<svg width="277" height="106" viewBox="0 0 277 106" fill="none" xmlns="http://www.w3.org/2000/svg">
<g clip-path="url(#clip0)">
<g filter="url(#filter0_f)">
<ellipse cx="90" cy="94" rx="68" ry="3" fill="#C4C4C4" fill-opacity="0.5"/>
</g>
<path d="M198.71 87.3779C197.909 88.3154 196.742 89.043 195.209 89.5605C193.676 90.0684 191.977 90.3076 190.111 90.2783C188.324 90.2588 186.815 89.8096 185.585 88.9307C184.354 88.0518 183.476 86.8262 182.948 85.2539C182.421 83.6816 182.279 81.9092 182.523 79.9365L182.641 79.0576C183.09 75.7471 184.252 73.125 186.127 71.1914C188.012 69.2578 190.316 68.3154 193.041 68.3643C195.424 68.4033 197.255 69.043 198.534 70.2832C199.813 71.5234 200.526 73.3154 200.673 75.6592L195.868 75.6445C195.8 74.502 195.517 73.667 195.019 73.1396C194.53 72.6123 193.832 72.334 192.924 72.3047C191.576 72.2559 190.463 72.7881 189.584 73.9014C188.705 75.0049 188.104 76.5869 187.782 78.6475C187.509 80.4053 187.411 81.7725 187.489 82.749C187.636 85.1025 188.695 86.2939 190.668 86.3232C191.859 86.3428 192.904 86.0547 193.803 85.459L194.462 82.1338H190.99L191.605 78.6035H200.087L198.71 87.3779ZM206.356 90H201.347L205.053 68.6719H210.048L206.356 90ZM227.626 87.3779C226.825 88.3154 225.658 89.043 224.125 89.5605C222.592 90.0684 220.893 90.3076 219.027 90.2783C217.24 90.2588 215.731 89.8096 214.501 88.9307C213.271 88.0518 212.392 86.8262 211.864 85.2539C211.337 83.6816 211.195 81.9092 211.439 79.9365L211.557 79.0576C212.006 75.7471 213.168 73.125 215.043 71.1914C216.928 69.2578 219.232 68.3154 221.957 68.3643C224.34 68.4033 226.171 69.043 227.45 70.2832C228.729 71.5234 229.442 73.3154 229.589 75.6592L224.784 75.6445C224.716 74.502 224.433 73.667 223.935 73.1396C223.446 72.6123 222.748 72.334 221.84 72.3047C220.492 72.2559 219.379 72.7881 218.5 73.9014C217.621 75.0049 217.021 76.5869 216.698 78.6475C216.425 80.4053 216.327 81.7725 216.405 82.749C216.552 85.1025 217.611 86.2939 219.584 86.3232C220.775 86.3428 221.82 86.0547 222.719 85.459L223.378 82.1338H219.906L220.521 78.6035H229.003L227.626 87.3779ZM242.45 86.0156H235.639L233.749 90H228.227L239.521 68.6719H244.237L248.178 90H242.963L242.45 86.0156ZM237.514 82.0459H241.938L241 74.6924L237.514 82.0459ZM261.625 84.2285C261.84 83.125 261.244 82.2705 259.838 81.665L257.436 80.6689C254.066 79.1553 252.465 77.0947 252.631 74.4873C252.699 73.2959 253.109 72.2363 253.861 71.3086C254.613 70.3711 255.653 69.6436 256.981 69.126C258.31 68.6084 259.76 68.3594 261.332 68.3789C263.441 68.418 265.136 69.0332 266.415 70.2246C267.704 71.416 268.339 73.0127 268.319 75.0146H263.339C263.368 74.1943 263.192 73.54 262.812 73.0518C262.44 72.5537 261.825 72.2949 260.966 72.2754C260.126 72.2559 259.384 72.4512 258.739 72.8613C258.095 73.2715 257.714 73.8232 257.597 74.5166C257.411 75.4932 258.134 76.2939 259.765 76.9189C261.405 77.5439 262.597 78.0811 263.339 78.5303C265.673 79.9268 266.767 81.8115 266.62 84.1846C266.542 85.415 266.146 86.4941 265.434 87.4219C264.721 88.3496 263.729 89.0674 262.46 89.5752C261.2 90.083 259.784 90.3271 258.212 90.3076C257.06 90.2881 255.99 90.1074 255.004 89.7656C254.018 89.4238 253.173 88.9258 252.47 88.2715C251.044 86.9531 250.36 85.2197 250.419 83.0713L255.443 83.0859C255.385 84.1797 255.595 85.0098 256.073 85.5762C256.552 86.1328 257.357 86.4111 258.49 86.4111C259.33 86.4111 260.028 86.2207 260.585 85.8398C261.151 85.4492 261.498 84.9121 261.625 84.2285Z" fill="#BBBBBB"/>
<path d="M61.1133 91H46.6113L54.7852 43.9785L39.8877 48.1973L41.9092 36.4639L70.21 27.0156L71.8359 26.9717L61.1133 91ZM123.999 91H80.625L82.207 80.8047L104.971 59.667L108.091 56.5469C112.983 51.625 115.225 46.9814 114.814 42.6162C114.492 39.2178 112.734 37.4746 109.541 37.3867C107.285 37.3281 105.366 38.251 103.784 40.1553C102.231 42.0303 101.265 44.4912 100.884 47.5381L86.5137 47.626C86.748 43.6123 87.9639 39.9502 90.1611 36.6396C92.3584 33.2998 95.2881 30.6924 98.9502 28.8174C102.642 26.9424 106.567 26.0195 110.728 26.0488C116.968 26.166 121.802 27.8652 125.229 31.1465C128.657 34.3984 130.151 38.8076 129.712 44.374C129.448 47.6553 128.364 50.8486 126.46 53.9541C124.585 57.0596 121.846 60.3262 118.242 63.7539L111.562 69.9062L101.631 79.4863L125.801 79.5742L123.999 91ZM153.53 91.8789C149.897 91.791 146.719 90.9414 143.994 89.3301C141.299 87.6895 139.219 85.3018 137.754 82.167C136.289 79.0029 135.498 75.4141 135.381 71.4004C135.293 69.2324 135.381 67.0498 135.645 64.8525L137.314 53.6904C138.662 44.6963 141.548 37.8262 145.972 33.0801C150.396 28.3047 156.035 25.9902 162.891 26.1367C168.457 26.2539 172.808 28.1289 175.942 31.7617C179.106 35.3945 180.806 40.3457 181.04 46.6152C181.099 48.7832 180.996 50.9658 180.732 53.1631L178.975 64.5449C177.568 73.6562 174.653 80.5264 170.229 85.1553C165.835 89.7842 160.269 92.0254 153.53 91.8789ZM166.582 51.1855C166.846 49.1348 166.992 47.333 167.021 45.7803C167.021 40.4189 165.322 37.6504 161.924 37.4746C156.709 37.2109 153.472 41.6787 152.212 50.8779L149.883 66.6982C149.59 69.1299 149.443 70.9316 149.443 72.1035C149.297 77.5234 150.981 80.3359 154.497 80.541C159.8 80.8047 163.066 76.2197 164.297 66.7861L166.582 51.1855Z" fill="#EF3829"/>
<path d="M61.1133 91V94H63.6527L64.0721 91.4955L61.1133 91ZM46.6113 91L43.6557 90.4862L43.0448 94H46.6113V91ZM54.7852 43.9785L57.7408 44.4923L58.5579 39.7922L53.9677 41.092L54.7852 43.9785ZM39.8877 48.1973L36.9313 47.6879L36.1226 52.3815L40.7051 51.0838L39.8877 48.1973ZM41.9092 36.4639L40.9592 33.6183L39.2574 34.1864L38.9527 35.9545L41.9092 36.4639ZM70.21 27.0156L70.1289 24.0167L69.683 24.0288L69.26 24.17L70.21 27.0156ZM71.8359 26.9717L74.7947 27.4672L75.3964 23.8744L71.7549 23.9728L71.8359 26.9717ZM61.1133 88H46.6113V94H61.1133V88ZM49.567 91.5138L57.7408 44.4923L51.8295 43.4647L43.6557 90.4862L49.567 91.5138ZM53.9677 41.092L39.0703 45.3108L40.7051 51.0838L55.6026 46.865L53.9677 41.092ZM42.8441 48.7066L44.8656 36.9732L38.9527 35.9545L36.9313 47.6879L42.8441 48.7066ZM42.8592 39.3095L71.16 29.8612L69.26 24.17L40.9592 33.6183L42.8592 39.3095ZM70.291 30.0145L71.917 29.9706L71.7549 23.9728L70.1289 24.0167L70.291 30.0145ZM68.8771 26.4762L58.1545 90.5045L64.0721 91.4955L74.7947 27.4672L68.8771 26.4762ZM123.999 91V94H126.563L126.962 91.4673L123.999 91ZM80.625 91L77.6605 90.54L77.1236 94H80.625V91ZM82.207 80.8047L80.1657 78.6063L79.4023 79.3152L79.2425 80.3447L82.207 80.8047ZM104.971 59.667L107.012 61.8654L107.053 61.8276L107.092 61.7883L104.971 59.667ZM108.091 56.5469L110.212 58.6682L110.218 58.6619L108.091 56.5469ZM114.814 42.6162L117.801 42.3356L117.801 42.333L114.814 42.6162ZM109.541 37.3867L109.624 34.3879L109.619 34.3877L109.541 37.3867ZM103.784 40.1553L101.477 38.2382L101.474 38.2418L103.784 40.1553ZM100.884 47.5381L100.902 50.538L103.534 50.5219L103.861 47.9102L100.884 47.5381ZM86.5137 47.626L83.5188 47.4511L83.3322 50.6455L86.532 50.6259L86.5137 47.626ZM90.1611 36.6396L92.6607 38.2987L92.6674 38.2885L90.1611 36.6396ZM98.9502 28.8174L97.5916 26.1426L97.583 26.147L98.9502 28.8174ZM110.728 26.0488L110.784 23.0494L110.766 23.049L110.749 23.0489L110.728 26.0488ZM125.229 31.1465L123.155 33.3136L123.165 33.3229L125.229 31.1465ZM129.712 44.374L132.702 44.6143L132.703 44.6101L129.712 44.374ZM126.46 53.9541L123.903 52.3858L123.897 52.3947L123.892 52.4035L126.46 53.9541ZM118.242 63.7539L120.275 65.9605L120.292 65.9442L120.31 65.9276L118.242 63.7539ZM111.562 69.9062L109.53 67.6996L109.505 67.723L109.48 67.7471L111.562 69.9062ZM101.631 79.4863L99.5481 77.3271L94.2275 82.4594L101.62 82.4863L101.631 79.4863ZM125.801 79.5742L128.764 80.0415L129.309 76.587L125.812 76.5742L125.801 79.5742ZM123.999 88H80.625V94H123.999V88ZM83.5895 91.46L85.1716 81.2647L79.2425 80.3447L77.6605 90.54L83.5895 91.46ZM84.2484 83.0031L107.012 61.8654L102.929 57.4686L80.1657 78.6063L84.2484 83.0031ZM107.092 61.7883L110.212 58.6682L105.969 54.4256L102.849 57.5457L107.092 61.7883ZM110.218 58.6619C115.375 53.4748 118.333 47.9975 117.801 42.3356L111.828 42.8969C112.116 45.9654 110.592 49.7752 105.963 54.4319L110.218 58.6619ZM117.801 42.333C117.599 40.1982 116.904 38.1546 115.367 36.6298C113.803 35.079 111.754 34.4465 109.624 34.3879L109.458 40.3856C110.522 40.4149 110.948 40.6979 111.142 40.8902C111.362 41.1086 111.708 41.6358 111.828 42.8994L117.801 42.333ZM109.619 34.3877C106.347 34.3027 103.581 35.7054 101.477 38.2382L106.092 42.0723C107.152 40.7965 108.224 40.3535 109.463 40.3857L109.619 34.3877ZM101.474 38.2418C99.4723 40.6585 98.3403 43.6996 97.907 47.166L103.861 47.9102C104.189 45.2828 104.991 43.402 106.095 42.0687L101.474 38.2418ZM100.865 44.5381L86.4953 44.626L86.532 50.6259L100.902 50.538L100.865 44.5381ZM89.5086 47.8009C89.7124 44.3104 90.7605 41.1615 92.6607 38.2986L87.6616 34.9807C85.1672 38.7389 83.7837 42.9142 83.5188 47.4511L89.5086 47.8009ZM92.6674 38.2885C94.5711 35.3949 97.1029 33.1336 100.317 31.4877L97.583 26.147C93.4733 28.2512 90.1457 31.2048 87.6549 34.9908L92.6674 38.2885ZM100.309 31.4921C103.571 29.8353 107.023 29.0228 110.706 29.0488L110.749 23.0489C106.112 23.0162 101.712 24.0495 97.5916 26.1426L100.309 31.4921ZM110.671 29.0483C116.402 29.1559 120.425 30.7004 123.155 33.3136L127.304 28.9794C123.178 25.03 117.534 23.1761 110.784 23.0494L110.671 29.0483ZM123.165 33.3229C125.813 35.8355 127.104 39.2914 126.721 44.1379L132.703 44.6101C133.199 38.3239 131.501 32.9614 127.294 28.9701L123.165 33.3229ZM126.722 44.1337C126.5 46.896 125.587 49.6393 123.903 52.3858L129.017 55.5224C131.142 52.058 132.397 48.4145 132.702 44.6143L126.722 44.1337ZM123.892 52.4035C122.196 55.2129 119.65 58.2739 116.175 61.5802L120.31 65.9276C124.041 62.3785 126.974 58.9062 129.028 55.5047L123.892 52.4035ZM116.21 61.5473L109.53 67.6996L113.595 72.1129L120.275 65.9605L116.21 61.5473ZM109.48 67.7471L99.5481 77.3271L103.714 81.6455L113.645 72.0654L109.48 67.7471ZM101.62 82.4863L125.79 82.5742L125.812 76.5742L101.642 76.4863L101.62 82.4863ZM122.837 79.1069L121.036 90.5327L126.962 91.4673L128.764 80.0415L122.837 79.1069ZM153.53 91.8789L153.458 94.878L153.465 94.8782L153.53 91.8789ZM143.994 89.3301L142.434 91.8927L142.451 91.9026L142.467 91.9123L143.994 89.3301ZM137.754 82.167L135.031 83.4274L135.036 83.437L137.754 82.167ZM135.381 71.4004L138.38 71.3128L138.379 71.2958L138.378 71.2789L135.381 71.4004ZM135.645 64.8525L132.678 64.4087L132.671 64.4518L132.666 64.4951L135.645 64.8525ZM137.314 53.6904L134.348 53.2459L134.347 53.2466L137.314 53.6904ZM145.972 33.0801L148.166 35.1256L148.172 35.1188L145.972 33.0801ZM162.891 26.1367L162.827 29.136L162.827 29.1361L162.891 26.1367ZM175.942 31.7617L173.671 33.7216L173.68 33.7321L175.942 31.7617ZM181.04 46.6152L184.039 46.5342L184.039 46.5187L184.038 46.5032L181.04 46.6152ZM180.732 53.1631L183.697 53.621L183.705 53.5709L183.711 53.5205L180.732 53.1631ZM178.975 64.5449L176.01 64.087L176.01 64.0873L178.975 64.5449ZM170.229 85.1553L168.061 83.0825L168.054 83.0897L170.229 85.1553ZM166.582 51.1855L169.55 51.6203L169.554 51.5943L169.558 51.5681L166.582 51.1855ZM167.021 45.7803L170.021 45.8369L170.021 45.8086V45.7803H167.021ZM161.924 37.4746L162.079 34.4786L162.075 34.4784L161.924 37.4746ZM152.212 50.8779L155.18 51.3149L155.182 51.2999L155.184 51.285L152.212 50.8779ZM149.883 66.6982L146.915 66.2613L146.909 66.3003L146.904 66.3394L149.883 66.6982ZM149.443 72.1035L152.442 72.1846L152.443 72.144V72.1035H149.443ZM154.497 80.541L154.322 83.5359L154.335 83.5367L154.348 83.5373L154.497 80.541ZM164.297 66.7861L161.329 66.3513L161.325 66.3747L161.322 66.3981L164.297 66.7861ZM153.603 88.8798C150.406 88.8024 147.743 88.0617 145.521 86.7479L142.467 91.9123C145.695 93.8211 149.389 94.7796 153.458 94.878L153.603 88.8798ZM145.554 86.7675C143.412 85.4638 141.712 83.5501 140.472 80.8969L135.036 83.437C136.726 87.0534 139.186 89.9152 142.434 91.8927L145.554 86.7675ZM140.476 80.9066C139.206 78.1624 138.487 74.9819 138.38 71.3128L132.382 71.4879C132.509 75.8462 133.372 79.8434 135.032 83.4274L140.476 80.9066ZM138.378 71.2789C138.297 69.274 138.378 67.2515 138.623 65.21L132.666 64.4951C132.384 66.8481 132.289 69.1909 132.383 71.5219L138.378 71.2789ZM138.612 65.2964L140.281 54.1343L134.347 53.2466L132.678 64.4087L138.612 65.2964ZM140.281 54.135C141.574 45.5077 144.291 39.2828 148.166 35.1256L143.777 31.0346C138.804 36.3695 135.75 43.8848 134.348 53.2459L140.281 54.135ZM148.172 35.1188C151.979 31.0098 156.777 29.0068 162.827 29.136L162.955 23.1374C155.294 22.9737 148.812 25.5996 143.771 31.0413L148.172 35.1188ZM162.827 29.1361C167.694 29.2385 171.183 30.838 173.671 33.7216L178.214 29.8018C174.432 25.4198 169.22 23.2693 162.954 23.1374L162.827 29.1361ZM173.68 33.7321C176.273 36.7092 177.826 40.9337 178.042 46.7273L184.038 46.5032C183.786 39.7577 181.94 34.0798 178.205 29.7914L173.68 33.7321ZM178.041 46.6963C178.096 48.7148 178 50.7509 177.754 52.8057L183.711 53.5205C183.992 51.1808 184.102 48.8516 184.039 46.5342L178.041 46.6963ZM177.768 52.7052L176.01 64.087L181.939 65.0028L183.697 53.621L177.768 52.7052ZM176.01 64.0873C174.658 72.8473 171.911 79.054 168.061 83.0825L172.398 87.228C177.396 81.9987 180.479 74.4652 181.94 65.0025L176.01 64.0873ZM168.054 83.0897C164.277 87.0679 159.542 89.0089 153.595 88.8796L153.465 94.8782C160.995 95.0419 167.393 92.5005 172.405 87.2208L168.054 83.0897ZM169.558 51.5681C169.831 49.4422 169.989 47.5275 170.021 45.8369L164.022 45.7237C163.995 47.1386 163.861 48.8273 163.607 50.803L169.558 51.5681ZM170.021 45.7803C170.021 42.8682 169.575 40.1849 168.304 38.1136C166.909 35.8407 164.709 34.6147 162.079 34.4786L161.769 40.4706C162.537 40.5103 162.886 40.7565 163.19 41.2521C163.618 41.9494 164.021 43.331 164.021 45.7803H170.021ZM162.075 34.4784C158.387 34.2919 155.329 35.8673 153.155 38.8674C151.113 41.6864 149.896 45.6755 149.24 50.4709L155.184 51.285C155.787 46.8812 156.819 44.0368 158.014 42.3879C159.077 40.9203 160.246 40.3936 161.772 40.4708L162.075 34.4784ZM149.244 50.441L146.915 66.2613L152.851 67.1352L155.18 51.3149L149.244 50.441ZM146.904 66.3394C146.609 68.791 146.443 70.7418 146.443 72.1035H152.443C152.443 71.1214 152.571 69.4687 152.861 67.0571L146.904 66.3394ZM146.444 72.0225C146.365 74.9681 146.754 77.6994 148.023 79.8193C149.419 82.1492 151.661 83.3807 154.322 83.5359L154.672 77.5461C153.818 77.4963 153.46 77.219 153.171 76.7363C152.756 76.0438 152.375 74.6589 152.442 72.1846L146.444 72.0225ZM154.348 83.5373C158.093 83.7235 161.184 82.106 163.367 79.0408C165.419 76.1607 166.631 72.0839 167.272 67.1742L161.322 66.3981C160.732 70.922 159.695 73.8544 158.481 75.5593C157.398 77.0791 156.204 77.6222 154.646 77.5447L154.348 83.5373ZM167.265 67.2209L169.55 51.6203L163.614 50.7508L161.329 66.3513L167.265 67.2209Z" fill="#EF3829"/>
</g>
<defs>
<filter id="filter0_f" x="12" y="81" width="156" height="26" filterUnits="userSpaceOnUse" color-interpolation-filters="sRGB">
<feFlood flood-opacity="0" result="BackgroundImageFix"/>
<feBlend mode="normal" in="SourceGraphic" in2="BackgroundImageFix" result="shape"/>
<feGaussianBlur stdDeviation="5" result="effect1_foregroundBlur"/>
</filter>
<clipPath id="clip0">
<rect width="277" height="105.82" fill="white"/>
</clipPath>
</defs>
</svg>
