<svg width="277" height="106" viewBox="0 0 277 106" fill="none" xmlns="http://www.w3.org/2000/svg">
<g clip-path="url(#clip0)">
<g filter="url(#filter0_f)">
<ellipse cx="86" cy="94" rx="68" ry="3" fill="#C4C4C4" fill-opacity="0.5"/>
</g>
<path d="M162.71 87.3779C161.909 88.3154 160.742 89.043 159.209 89.5605C157.676 90.0684 155.977 90.3076 154.111 90.2783C152.324 90.2588 150.815 89.8096 149.585 88.9307C148.354 88.0518 147.476 86.8262 146.948 85.2539C146.421 83.6816 146.279 81.9092 146.523 79.9365L146.641 79.0576C147.09 75.7471 148.252 73.125 150.127 71.1914C152.012 69.2578 154.316 68.3154 157.041 68.3643C159.424 68.4033 161.255 69.043 162.534 70.2832C163.813 71.5234 164.526 73.3154 164.673 75.6592L159.868 75.6445C159.8 74.502 159.517 73.667 159.019 73.1396C158.53 72.6123 157.832 72.334 156.924 72.3047C155.576 72.2559 154.463 72.7881 153.584 73.9014C152.705 75.0049 152.104 76.5869 151.782 78.6475C151.509 80.4053 151.411 81.7725 151.489 82.749C151.636 85.1025 152.695 86.2939 154.668 86.3232C155.859 86.3428 156.904 86.0547 157.803 85.459L158.462 82.1338H154.99L155.605 78.6035H164.087L162.71 87.3779ZM170.356 90H165.347L169.053 68.6719H174.048L170.356 90ZM191.626 87.3779C190.825 88.3154 189.658 89.043 188.125 89.5605C186.592 90.0684 184.893 90.3076 183.027 90.2783C181.24 90.2588 179.731 89.8096 178.501 88.9307C177.271 88.0518 176.392 86.8262 175.864 85.2539C175.337 83.6816 175.195 81.9092 175.439 79.9365L175.557 79.0576C176.006 75.7471 177.168 73.125 179.043 71.1914C180.928 69.2578 183.232 68.3154 185.957 68.3643C188.34 68.4033 190.171 69.043 191.45 70.2832C192.729 71.5234 193.442 73.3154 193.589 75.6592L188.784 75.6445C188.716 74.502 188.433 73.667 187.935 73.1396C187.446 72.6123 186.748 72.334 185.84 72.3047C184.492 72.2559 183.379 72.7881 182.5 73.9014C181.621 75.0049 181.021 76.5869 180.698 78.6475C180.425 80.4053 180.327 81.7725 180.405 82.749C180.552 85.1025 181.611 86.2939 183.584 86.3232C184.775 86.3428 185.82 86.0547 186.719 85.459L187.378 82.1338H183.906L184.521 78.6035H193.003L191.626 87.3779ZM206.45 86.0156H199.639L197.749 90H192.227L203.521 68.6719H208.237L212.178 90H206.963L206.45 86.0156ZM201.514 82.0459H205.938L205 74.6924L201.514 82.0459ZM225.625 84.2285C225.84 83.125 225.244 82.2705 223.838 81.665L221.436 80.6689C218.066 79.1553 216.465 77.0947 216.631 74.4873C216.699 73.2959 217.109 72.2363 217.861 71.3086C218.613 70.3711 219.653 69.6436 220.981 69.126C222.31 68.6084 223.76 68.3594 225.332 68.3789C227.441 68.418 229.136 69.0332 230.415 70.2246C231.704 71.416 232.339 73.0127 232.319 75.0146H227.339C227.368 74.1943 227.192 73.54 226.812 73.0518C226.44 72.5537 225.825 72.2949 224.966 72.2754C224.126 72.2559 223.384 72.4512 222.739 72.8613C222.095 73.2715 221.714 73.8232 221.597 74.5166C221.411 75.4932 222.134 76.2939 223.765 76.9189C225.405 77.5439 226.597 78.0811 227.339 78.5303C229.673 79.9268 230.767 81.8115 230.62 84.1846C230.542 85.415 230.146 86.4941 229.434 87.4219C228.721 88.3496 227.729 89.0674 226.46 89.5752C225.2 90.083 223.784 90.3271 222.212 90.3076C221.06 90.2881 219.99 90.1074 219.004 89.7656C218.018 89.4238 217.173 88.9258 216.47 88.2715C215.044 86.9531 214.36 85.2197 214.419 83.0713L219.443 83.0859C219.385 84.1797 219.595 85.0098 220.073 85.5762C220.552 86.1328 221.357 86.4111 222.49 86.4111C223.33 86.4111 224.028 86.2207 224.585 85.8398C225.151 85.4492 225.498 84.9121 225.625 84.2285Z" fill="#BBBBBB"/>
<path d="M76.1133 91H61.6113L69.7852 43.9785L54.8877 48.1973L56.9092 36.4639L85.21 27.0156L86.8359 26.9717L76.1133 91ZM138.999 91H95.625L97.207 80.8047L119.971 59.667L123.091 56.5469C127.983 51.625 130.225 46.9814 129.814 42.6162C129.492 39.2178 127.734 37.4746 124.541 37.3867C122.285 37.3281 120.366 38.251 118.784 40.1553C117.231 42.0303 116.265 44.4912 115.884 47.5381L101.514 47.626C101.748 43.6123 102.964 39.9502 105.161 36.6396C107.358 33.2998 110.288 30.6924 113.95 28.8174C117.642 26.9424 121.567 26.0195 125.728 26.0488C131.968 26.166 136.802 27.8652 140.229 31.1465C143.657 34.3984 145.151 38.8076 144.712 44.374C144.448 47.6553 143.364 50.8486 141.46 53.9541C139.585 57.0596 136.846 60.3262 133.242 63.7539L126.562 69.9062L116.631 79.4863L140.801 79.5742L138.999 91Z" fill="#EF3829"/>
<path d="M76.1133 91V94H78.6527L79.0721 91.4955L76.1133 91ZM61.6113 91L58.6557 90.4862L58.0448 94H61.6113V91ZM69.7852 43.9785L72.7408 44.4923L73.5579 39.7922L68.9677 41.092L69.7852 43.9785ZM54.8877 48.1973L51.9313 47.6879L51.1226 52.3815L55.7051 51.0838L54.8877 48.1973ZM56.9092 36.4639L55.9592 33.6183L54.2574 34.1864L53.9527 35.9545L56.9092 36.4639ZM85.21 27.0156L85.1289 24.0167L84.683 24.0288L84.26 24.17L85.21 27.0156ZM86.8359 26.9717L89.7947 27.4672L90.3964 23.8744L86.7549 23.9728L86.8359 26.9717ZM76.1133 88H61.6113V94H76.1133V88ZM64.567 91.5138L72.7408 44.4923L66.8295 43.4647L58.6557 90.4862L64.567 91.5138ZM68.9677 41.092L54.0703 45.3108L55.7051 51.0838L70.6026 46.865L68.9677 41.092ZM57.8441 48.7066L59.8656 36.9732L53.9527 35.9545L51.9313 47.6879L57.8441 48.7066ZM57.8592 39.3095L86.16 29.8612L84.26 24.17L55.9592 33.6183L57.8592 39.3095ZM85.291 30.0145L86.917 29.9706L86.7549 23.9728L85.1289 24.0167L85.291 30.0145ZM83.8771 26.4762L73.1545 90.5045L79.0721 91.4955L89.7947 27.4672L83.8771 26.4762ZM138.999 91V94H141.563L141.962 91.4673L138.999 91ZM95.625 91L92.6605 90.54L92.1236 94H95.625V91ZM97.207 80.8047L95.1657 78.6063L94.4023 79.3152L94.2425 80.3447L97.207 80.8047ZM119.971 59.667L122.012 61.8654L122.053 61.8276L122.092 61.7883L119.971 59.667ZM123.091 56.5469L125.212 58.6682L125.218 58.6619L123.091 56.5469ZM129.814 42.6162L132.801 42.3356L132.801 42.333L129.814 42.6162ZM124.541 37.3867L124.624 34.3879L124.619 34.3877L124.541 37.3867ZM118.784 40.1553L116.477 38.2382L116.474 38.2418L118.784 40.1553ZM115.884 47.5381L115.902 50.538L118.534 50.5219L118.861 47.9102L115.884 47.5381ZM101.514 47.626L98.5188 47.4511L98.3322 50.6455L101.532 50.6259L101.514 47.626ZM105.161 36.6396L107.661 38.2987L107.667 38.2885L105.161 36.6396ZM113.95 28.8174L112.592 26.1426L112.583 26.147L113.95 28.8174ZM125.728 26.0488L125.784 23.0494L125.766 23.049L125.749 23.0489L125.728 26.0488ZM140.229 31.1465L138.155 33.3136L138.165 33.3229L140.229 31.1465ZM144.712 44.374L147.702 44.6143L147.703 44.6101L144.712 44.374ZM141.46 53.9541L138.903 52.3858L138.897 52.3947L138.892 52.4035L141.46 53.9541ZM133.242 63.7539L135.275 65.9605L135.292 65.9442L135.31 65.9276L133.242 63.7539ZM126.562 69.9062L124.53 67.6996L124.505 67.723L124.48 67.7471L126.562 69.9062ZM116.631 79.4863L114.548 77.3271L109.227 82.4594L116.62 82.4863L116.631 79.4863ZM140.801 79.5742L143.764 80.0415L144.309 76.587L140.812 76.5742L140.801 79.5742ZM138.999 88H95.625V94H138.999V88ZM98.5895 91.46L100.172 81.2647L94.2425 80.3447L92.6605 90.54L98.5895 91.46ZM99.2484 83.0031L122.012 61.8654L117.929 57.4686L95.1657 78.6063L99.2484 83.0031ZM122.092 61.7883L125.212 58.6682L120.969 54.4256L117.849 57.5457L122.092 61.7883ZM125.218 58.6619C130.375 53.4748 133.333 47.9975 132.801 42.3356L126.828 42.8969C127.116 45.9654 125.592 49.7752 120.963 54.4319L125.218 58.6619ZM132.801 42.333C132.599 40.1982 131.904 38.1546 130.367 36.6298C128.803 35.079 126.754 34.4465 124.624 34.3879L124.458 40.3856C125.522 40.4149 125.948 40.6979 126.142 40.8902C126.362 41.1086 126.708 41.6358 126.828 42.8994L132.801 42.333ZM124.619 34.3877C121.347 34.3027 118.581 35.7054 116.477 38.2382L121.092 42.0723C122.152 40.7965 123.224 40.3535 124.463 40.3857L124.619 34.3877ZM116.474 38.2418C114.472 40.6585 113.34 43.6996 112.907 47.166L118.861 47.9102C119.189 45.2828 119.991 43.402 121.095 42.0687L116.474 38.2418ZM115.865 44.5381L101.495 44.626L101.532 50.6259L115.902 50.538L115.865 44.5381ZM104.509 47.8009C104.712 44.3104 105.761 41.1615 107.661 38.2986L102.662 34.9807C100.167 38.7389 98.7837 42.9142 98.5188 47.4511L104.509 47.8009ZM107.667 38.2885C109.571 35.3949 112.103 33.1336 115.317 31.4877L112.583 26.147C108.473 28.2512 105.146 31.2048 102.655 34.9908L107.667 38.2885ZM115.309 31.4921C118.571 29.8353 122.023 29.0228 125.706 29.0488L125.749 23.0489C121.112 23.0162 116.712 24.0495 112.592 26.1426L115.309 31.4921ZM125.671 29.0483C131.402 29.1559 135.425 30.7004 138.155 33.3136L142.304 28.9794C138.178 25.03 132.534 23.1761 125.784 23.0494L125.671 29.0483ZM138.165 33.3229C140.813 35.8355 142.104 39.2914 141.721 44.1379L147.703 44.6101C148.199 38.3239 146.501 32.9614 142.294 28.9701L138.165 33.3229ZM141.722 44.1337C141.5 46.896 140.587 49.6393 138.903 52.3858L144.017 55.5224C146.142 52.058 147.397 48.4145 147.702 44.6143L141.722 44.1337ZM138.892 52.4035C137.196 55.2129 134.65 58.2739 131.175 61.5802L135.31 65.9276C139.041 62.3785 141.974 58.9062 144.028 55.5047L138.892 52.4035ZM131.21 61.5473L124.53 67.6996L128.595 72.1129L135.275 65.9605L131.21 61.5473ZM124.48 67.7471L114.548 77.3271L118.714 81.6455L128.645 72.0654L124.48 67.7471ZM116.62 82.4863L140.79 82.5742L140.812 76.5742L116.642 76.4863L116.62 82.4863ZM137.837 79.1069L136.036 90.5327L141.962 91.4673L143.764 80.0415L137.837 79.1069Z" fill="#EF3829"/>
</g>
<defs>
<filter id="filter0_f" x="8" y="81" width="156" height="26" filterUnits="userSpaceOnUse" color-interpolation-filters="sRGB">
<feFlood flood-opacity="0" result="BackgroundImageFix"/>
<feBlend mode="normal" in="SourceGraphic" in2="BackgroundImageFix" result="shape"/>
<feGaussianBlur stdDeviation="5" result="effect1_foregroundBlur"/>
</filter>
<clipPath id="clip0">
<rect width="277" height="105.82" fill="white"/>
</clipPath>
</defs>
</svg>
