<svg width="277" height="106" viewBox="0 0 277 106" fill="none" xmlns="http://www.w3.org/2000/svg">
<g clip-path="url(#clip0)">
<g filter="url(#filter0_f)">
<ellipse cx="86" cy="94" rx="68" ry="3" fill="#C4C4C4" fill-opacity="0.5"/>
</g>
<path d="M162.71 87.3779C161.909 88.3154 160.742 89.043 159.209 89.5605C157.676 90.0684 155.977 90.3076 154.111 90.2783C152.324 90.2588 150.815 89.8096 149.585 88.9307C148.354 88.0518 147.476 86.8262 146.948 85.2539C146.421 83.6816 146.279 81.9092 146.523 79.9365L146.641 79.0576C147.09 75.7471 148.252 73.125 150.127 71.1914C152.012 69.2578 154.316 68.3154 157.041 68.3643C159.424 68.4033 161.255 69.043 162.534 70.2832C163.813 71.5234 164.526 73.3154 164.673 75.6592L159.868 75.6445C159.8 74.502 159.517 73.667 159.019 73.1396C158.53 72.6123 157.832 72.334 156.924 72.3047C155.576 72.2559 154.463 72.7881 153.584 73.9014C152.705 75.0049 152.104 76.5869 151.782 78.6475C151.509 80.4053 151.411 81.7725 151.489 82.749C151.636 85.1025 152.695 86.2939 154.668 86.3232C155.859 86.3428 156.904 86.0547 157.803 85.459L158.462 82.1338H154.99L155.605 78.6035H164.087L162.71 87.3779ZM170.356 90H165.347L169.053 68.6719H174.048L170.356 90ZM191.626 87.3779C190.825 88.3154 189.658 89.043 188.125 89.5605C186.592 90.0684 184.893 90.3076 183.027 90.2783C181.24 90.2588 179.731 89.8096 178.501 88.9307C177.271 88.0518 176.392 86.8262 175.864 85.2539C175.337 83.6816 175.195 81.9092 175.439 79.9365L175.557 79.0576C176.006 75.7471 177.168 73.125 179.043 71.1914C180.928 69.2578 183.232 68.3154 185.957 68.3643C188.34 68.4033 190.171 69.043 191.45 70.2832C192.729 71.5234 193.442 73.3154 193.589 75.6592L188.784 75.6445C188.716 74.502 188.433 73.667 187.935 73.1396C187.446 72.6123 186.748 72.334 185.84 72.3047C184.492 72.2559 183.379 72.7881 182.5 73.9014C181.621 75.0049 181.021 76.5869 180.698 78.6475C180.425 80.4053 180.327 81.7725 180.405 82.749C180.552 85.1025 181.611 86.2939 183.584 86.3232C184.775 86.3428 185.82 86.0547 186.719 85.459L187.378 82.1338H183.906L184.521 78.6035H193.003L191.626 87.3779ZM206.45 86.0156H199.639L197.749 90H192.227L203.521 68.6719H208.237L212.178 90H206.963L206.45 86.0156ZM201.514 82.0459H205.938L205 74.6924L201.514 82.0459ZM225.625 84.2285C225.84 83.125 225.244 82.2705 223.838 81.665L221.436 80.6689C218.066 79.1553 216.465 77.0947 216.631 74.4873C216.699 73.2959 217.109 72.2363 217.861 71.3086C218.613 70.3711 219.653 69.6436 220.981 69.126C222.31 68.6084 223.76 68.3594 225.332 68.3789C227.441 68.418 229.136 69.0332 230.415 70.2246C231.704 71.416 232.339 73.0127 232.319 75.0146H227.339C227.368 74.1943 227.192 73.54 226.812 73.0518C226.44 72.5537 225.825 72.2949 224.966 72.2754C224.126 72.2559 223.384 72.4512 222.739 72.8613C222.095 73.2715 221.714 73.8232 221.597 74.5166C221.411 75.4932 222.134 76.2939 223.765 76.9189C225.405 77.5439 226.597 78.0811 227.339 78.5303C229.673 79.9268 230.767 81.8115 230.62 84.1846C230.542 85.415 230.146 86.4941 229.434 87.4219C228.721 88.3496 227.729 89.0674 226.46 89.5752C225.2 90.083 223.784 90.3271 222.212 90.3076C221.06 90.2881 219.99 90.1074 219.004 89.7656C218.018 89.4238 217.173 88.9258 216.47 88.2715C215.044 86.9531 214.36 85.2197 214.419 83.0713L219.443 83.0859C219.385 84.1797 219.595 85.0098 220.073 85.5762C220.552 86.1328 221.357 86.4111 222.49 86.4111C223.33 86.4111 224.028 86.2207 224.585 85.8398C225.151 85.4492 225.498 84.9121 225.625 84.2285Z" fill="#BBBBBB"/>
<path d="M76.1133 91H61.6113L69.7852 43.9785L54.8877 48.1973L56.9092 36.4639L85.21 27.0156L86.8359 26.9717L76.1133 91ZM140.405 26.0488L139.263 37.7383H137.944C132.964 37.7969 128.584 39.1152 124.805 41.6934C121.055 44.2715 118.066 47.9922 115.84 52.8555C119.443 49.4277 123.647 47.7725 128.452 47.8896C131.88 47.9482 134.78 48.9297 137.153 50.834C139.526 52.709 141.27 55.3164 142.383 58.6562C143.525 61.9668 143.936 65.585 143.613 69.5107C143.291 73.4658 142.09 77.1279 140.01 80.4971C137.93 83.8662 135.19 86.5615 131.792 88.583C127.896 90.8975 123.721 92.0107 119.268 91.9229C114.902 91.8643 111.138 90.6924 107.974 88.4072C104.81 86.1221 102.495 83.0166 101.03 79.0908C99.5654 75.1357 99.082 70.8145 99.5801 66.127L100.239 60.7217C101.089 54.2471 103.242 48.3584 106.699 43.0557C110.186 37.7236 114.639 33.5781 120.059 30.6191C125.508 27.6309 131.396 26.1074 137.725 26.0488H140.405ZM122.871 59.1396C119.59 59.0225 116.763 60.5898 114.39 63.8418C113.833 67.9434 113.555 70.7559 113.555 72.2793C113.555 74.8574 114.082 76.8643 115.137 78.2998C116.191 79.7061 117.715 80.4238 119.707 80.4531C122.637 80.5117 125.01 79.0469 126.826 76.0586C128.672 73.041 129.419 69.6865 129.067 65.9951C128.862 63.9443 128.218 62.3037 127.134 61.0732C126.05 59.8135 124.629 59.1689 122.871 59.1396Z" fill="#EF3829"/>
<path d="M76.1133 91V94H78.6527L79.0721 91.4955L76.1133 91ZM61.6113 91L58.6557 90.4862L58.0448 94H61.6113V91ZM69.7852 43.9785L72.7408 44.4923L73.5579 39.7922L68.9677 41.092L69.7852 43.9785ZM54.8877 48.1973L51.9313 47.6879L51.1226 52.3815L55.7051 51.0838L54.8877 48.1973ZM56.9092 36.4639L55.9592 33.6183L54.2574 34.1864L53.9527 35.9545L56.9092 36.4639ZM85.21 27.0156L85.1289 24.0167L84.683 24.0288L84.26 24.17L85.21 27.0156ZM86.8359 26.9717L89.7947 27.4672L90.3964 23.8744L86.7549 23.9728L86.8359 26.9717ZM76.1133 88H61.6113V94H76.1133V88ZM64.567 91.5138L72.7408 44.4923L66.8295 43.4647L58.6557 90.4862L64.567 91.5138ZM68.9677 41.092L54.0703 45.3108L55.7051 51.0838L70.6026 46.865L68.9677 41.092ZM57.8441 48.7066L59.8656 36.9732L53.9527 35.9545L51.9313 47.6879L57.8441 48.7066ZM57.8592 39.3095L86.16 29.8612L84.26 24.17L55.9592 33.6183L57.8592 39.3095ZM85.291 30.0145L86.917 29.9706L86.7549 23.9728L85.1289 24.0167L85.291 30.0145ZM83.8771 26.4762L73.1545 90.5045L79.0721 91.4955L89.7947 27.4672L83.8771 26.4762ZM140.405 26.0488L143.391 26.3407L143.713 23.0488H140.405V26.0488ZM139.263 37.7383V40.7383H141.984L142.248 38.0301L139.263 37.7383ZM137.944 37.7383V34.7383H137.927L137.909 34.7385L137.944 37.7383ZM124.805 41.6934L123.114 39.2151L123.105 39.2212L124.805 41.6934ZM115.84 52.8555L113.112 51.6066L117.907 55.0291L115.84 52.8555ZM128.452 47.8896L128.379 50.8888L128.39 50.889L128.401 50.8892L128.452 47.8896ZM137.153 50.834L135.276 53.1738L135.285 53.1809L135.293 53.1879L137.153 50.834ZM142.383 58.6562L139.537 59.6049L139.542 59.62L139.547 59.635L142.383 58.6562ZM143.613 69.5107L140.623 69.2653L140.623 69.2671L143.613 69.5107ZM131.792 88.583L133.324 91.1623L133.326 91.1614L131.792 88.583ZM119.268 91.9229L119.327 88.9234L119.317 88.9232L119.308 88.9231L119.268 91.9229ZM101.03 79.0908L98.217 80.1328L98.2196 80.1396L101.03 79.0908ZM99.5801 66.127L96.6021 65.7638L96.5993 65.7869L96.5969 65.81L99.5801 66.127ZM100.239 60.7217L97.2648 60.3314L97.263 60.3449L97.2613 60.3585L100.239 60.7217ZM106.699 43.0557L104.188 41.4139L104.186 41.4173L106.699 43.0557ZM120.059 30.6191L121.496 33.2523L121.501 33.2496L120.059 30.6191ZM137.725 26.0488V23.0488H137.711L137.697 23.049L137.725 26.0488ZM122.871 59.1396L122.764 62.1377L122.793 62.1388L122.821 62.1392L122.871 59.1396ZM114.39 63.8418L111.966 62.0734L111.519 62.6864L111.417 63.4384L114.39 63.8418ZM115.137 78.2998L112.719 80.076L112.728 80.088L112.737 80.0998L115.137 78.2998ZM119.707 80.4531L119.767 77.4537L119.759 77.4536L119.751 77.4534L119.707 80.4531ZM126.826 76.0586L124.267 74.4932L124.263 74.5003L126.826 76.0586ZM129.067 65.9951L132.054 65.7107L132.053 65.7036L132.052 65.6966L129.067 65.9951ZM127.134 61.0732L124.86 63.03L124.871 63.0432L124.883 63.0563L127.134 61.0732ZM137.42 25.757L136.277 37.4464L142.248 38.0301L143.391 26.3407L137.42 25.757ZM139.263 34.7383H137.944V40.7383H139.263V34.7383ZM137.909 34.7385C132.392 34.8034 127.425 36.2742 123.114 39.2151L126.495 44.1716C129.743 41.9562 133.535 40.7904 137.98 40.7381L137.909 34.7385ZM123.105 39.2212C118.835 42.1569 115.524 46.3375 113.112 51.6066L118.568 54.1043C120.608 49.6468 123.274 46.3861 126.504 44.1655L123.105 39.2212ZM117.907 55.0291C120.957 52.128 124.399 50.7917 128.379 50.8888L128.525 44.8905C122.895 44.7532 117.929 46.7274 113.772 50.6818L117.907 55.0291ZM128.401 50.8892C131.252 50.938 133.487 51.7381 135.276 53.1738L139.031 48.4942C136.074 46.1213 132.508 44.9585 128.503 44.8901L128.401 50.8892ZM135.293 53.1879C137.137 54.6442 138.577 56.7265 139.537 59.6049L145.229 57.7076C143.962 53.9063 141.916 50.7738 139.013 48.4801L135.293 53.1879ZM139.547 59.635C140.538 62.5063 140.916 65.7021 140.623 69.2653L146.603 69.7562C146.955 65.4678 146.513 61.4273 145.219 57.6775L139.547 59.635ZM140.623 69.2671C140.339 72.7508 139.288 75.9562 137.457 78.9211L142.562 82.0731C144.892 78.2997 146.243 74.1808 146.603 69.7544L140.623 69.2671ZM137.457 78.9211C135.631 81.8794 133.241 84.2307 130.258 86.0047L133.326 91.1614C137.14 88.8924 140.229 85.853 142.562 82.0731L137.457 78.9211ZM130.26 86.0037C126.835 88.0378 123.21 89.0001 119.327 88.9234L119.208 94.9223C124.231 95.0214 128.956 93.7571 133.324 91.1623L130.26 86.0037ZM119.308 88.9231C115.483 88.8718 112.336 87.857 109.73 85.9752L106.217 90.8393C109.94 93.5278 114.321 94.8567 119.227 94.9226L119.308 88.9231ZM109.73 85.9752C107.082 84.0627 105.115 81.4556 103.841 78.042L98.2196 80.1396C99.8755 84.5776 102.537 88.1814 106.217 90.8393L109.73 85.9752ZM103.844 78.0489C102.557 74.5764 102.108 70.7261 102.563 66.4439L96.5969 65.81C96.0558 70.9028 96.5734 75.6951 98.217 80.1328L103.844 78.0489ZM102.558 66.4901L103.217 61.0848L97.2613 60.3585L96.6021 65.7638L102.558 66.4901ZM103.214 61.112C104.007 55.0682 106.008 49.6085 109.212 44.694L104.186 41.4173C100.476 47.1083 98.1709 53.4259 97.2648 60.3314L103.214 61.112ZM109.21 44.6974C112.435 39.7656 116.524 35.9666 121.496 33.2523L118.621 27.986C112.753 31.1896 107.936 35.6816 104.188 41.4139L109.21 44.6974ZM121.501 33.2496C126.508 30.5037 131.91 29.1028 137.752 29.0487L137.697 23.049C130.883 23.112 124.507 24.758 118.616 27.9887L121.501 33.2496ZM137.725 29.0488H140.405V23.0488H137.725V29.0488ZM122.978 56.1416C118.47 55.9806 114.775 58.2239 111.966 62.0734L116.813 65.6102C118.75 62.9558 120.709 62.0644 122.764 62.1377L122.978 56.1416ZM111.417 63.4384C110.863 67.5211 110.555 70.5248 110.555 72.2793H116.555C116.555 70.987 116.803 68.3656 117.362 64.2452L111.417 63.4384ZM110.555 72.2793C110.555 75.2216 111.151 77.9411 112.719 80.076L117.554 76.5236C117.013 75.7874 116.555 74.4932 116.555 72.2793H110.555ZM112.737 80.0998C114.428 82.355 116.883 83.4119 119.663 83.4528L119.751 77.4534C118.547 77.4357 117.955 77.0571 117.537 76.4998L112.737 80.0998ZM119.647 83.4525C123.869 83.537 127.145 81.3099 129.39 77.6168L124.263 74.5003C122.875 76.7839 121.404 77.4865 119.767 77.4537L119.647 83.4525ZM129.385 77.6239C131.587 74.0243 132.464 70.0153 132.054 65.7107L126.081 66.2795C126.374 69.3578 125.757 72.0577 124.267 74.4932L129.385 77.6239ZM132.052 65.6966C131.801 63.183 130.98 60.9003 129.385 59.0902L124.883 63.0563C125.456 63.7071 125.923 64.7057 126.082 66.2936L132.052 65.6966ZM129.408 59.1165C127.73 57.1663 125.479 56.1827 122.921 56.1401L122.821 62.1392C123.779 62.1552 124.37 62.4606 124.86 63.03L129.408 59.1165Z" fill="#EF3829"/>
</g>
<defs>
<filter id="filter0_f" x="8" y="81" width="156" height="26" filterUnits="userSpaceOnUse" color-interpolation-filters="sRGB">
<feFlood flood-opacity="0" result="BackgroundImageFix"/>
<feBlend mode="normal" in="SourceGraphic" in2="BackgroundImageFix" result="shape"/>
<feGaussianBlur stdDeviation="5" result="effect1_foregroundBlur"/>
</filter>
<clipPath id="clip0">
<rect width="277" height="105.82" fill="white"/>
</clipPath>
</defs>
</svg>
