<svg width="277" height="106" viewBox="0 0 277 106" fill="none" xmlns="http://www.w3.org/2000/svg">
<g clip-path="url(#clip0)">
<g filter="url(#filter0_f)">
<ellipse cx="101" cy="94" rx="68" ry="3" fill="#C4C4C4" fill-opacity="0.5"/>
</g>
<path d="M103.022 92H59.6484L61.2305 81.8047L83.9941 60.667L87.1143 57.5469C92.0068 52.625 94.248 47.9814 93.8379 43.6162C93.5156 40.2178 91.7578 38.4746 88.5645 38.3867C86.3086 38.3281 84.3896 39.251 82.8076 41.1553C81.2549 43.0303 80.2881 45.4912 79.9072 48.5381L65.5371 48.626C65.7715 44.6123 66.9873 40.9502 69.1846 37.6396C71.3818 34.2998 74.3115 31.6924 77.9736 29.8174C81.665 27.9424 85.5908 27.0195 89.751 27.0488C95.9912 27.166 100.825 28.8652 104.253 32.1465C107.681 35.3984 109.175 39.8076 108.735 45.374C108.472 48.6553 107.388 51.8486 105.483 54.9541C103.608 58.0596 100.869 61.3262 97.2656 64.7539L90.5859 70.9062L80.6543 80.4863L104.824 80.5742L103.022 92ZM132.554 92.8789C128.921 92.791 125.742 91.9414 123.018 90.3301C120.322 88.6895 118.242 86.3018 116.777 83.167C115.312 80.0029 114.521 76.4141 114.404 72.4004C114.316 70.2324 114.404 68.0498 114.668 65.8525L116.338 54.6904C117.686 45.6963 120.571 38.8262 124.995 34.0801C129.419 29.3047 135.059 26.9902 141.914 27.1367C147.48 27.2539 151.831 29.1289 154.966 32.7617C158.13 36.3945 159.829 41.3457 160.063 47.6152C160.122 49.7832 160.02 51.9658 159.756 54.1631L157.998 65.5449C156.592 74.6562 153.677 81.5264 149.253 86.1553C144.858 90.7842 139.292 93.0254 132.554 92.8789ZM145.605 52.1855C145.869 50.1348 146.016 48.333 146.045 46.7803C146.045 41.4189 144.346 38.6504 140.947 38.4746C135.732 38.2109 132.495 42.6787 131.235 51.8779L128.906 67.6982C128.613 70.1299 128.467 71.9316 128.467 73.1035C128.32 78.5234 130.005 81.3359 133.521 81.541C138.823 81.8047 142.09 77.2197 143.32 67.7861L145.605 52.1855Z" fill="#EF3829"/>
<path d="M103.022 92V95H105.586L105.986 92.4673L103.022 92ZM59.6484 92L56.6839 91.54L56.147 95H59.6484V92ZM61.2305 81.8047L59.1891 79.6063L58.4257 80.3152L58.2659 81.3447L61.2305 81.8047ZM83.9941 60.667L86.0355 62.8654L86.0762 62.8276L86.1155 62.7883L83.9941 60.667ZM87.1143 57.5469L89.2356 59.6682L89.2419 59.6619L87.1143 57.5469ZM93.8379 43.6162L96.8247 43.3356L96.8245 43.333L93.8379 43.6162ZM88.5645 38.3867L88.647 35.3879L88.6423 35.3877L88.5645 38.3867ZM82.8076 41.1553L80.5 39.2382L80.497 39.2418L82.8076 41.1553ZM79.9072 48.5381L79.9256 51.538L82.5576 51.5219L82.8841 48.9102L79.9072 48.5381ZM65.5371 48.626L62.5422 48.4511L62.3557 51.6455L65.5555 51.6259L65.5371 48.626ZM69.1846 37.6396L71.6841 39.2987L71.6908 39.2885L69.1846 37.6396ZM77.9736 29.8174L76.615 27.1426L76.6064 27.147L77.9736 29.8174ZM89.751 27.0488L89.8073 24.0494L89.7897 24.049L89.7721 24.0489L89.751 27.0488ZM104.253 32.1465L102.178 34.3136L102.188 34.3229L104.253 32.1465ZM108.735 45.374L111.726 45.6143L111.726 45.6101L108.735 45.374ZM105.483 54.9541L102.926 53.3858L102.921 53.3947L102.915 53.4035L105.483 54.9541ZM97.2656 64.7539L99.2981 66.9605L99.3158 66.9442L99.3333 66.9276L97.2656 64.7539ZM90.5859 70.9062L88.5535 68.6996L88.5281 68.723L88.5032 68.7471L90.5859 70.9062ZM80.6543 80.4863L78.5715 78.3271L73.2509 83.4594L80.6434 83.4863L80.6543 80.4863ZM104.824 80.5742L107.788 81.0415L108.332 77.587L104.835 77.5742L104.824 80.5742ZM103.022 89H59.6484V95H103.022V89ZM62.613 92.46L64.195 82.2647L58.2659 81.3447L56.6839 91.54L62.613 92.46ZM63.2718 84.0031L86.0355 62.8654L81.9528 58.4686L59.1891 79.6063L63.2718 84.0031ZM86.1155 62.7883L89.2356 59.6682L84.9929 55.4256L81.8728 58.5457L86.1155 62.7883ZM89.2419 59.6619C94.398 54.4748 97.3567 48.9975 96.8247 43.3356L90.851 43.8969C91.1394 46.9654 89.6156 50.7752 84.9866 55.4319L89.2419 59.6619ZM96.8245 43.333C96.6221 41.1982 95.9279 39.1546 94.3903 37.6298C92.8264 36.079 90.7769 35.4465 88.647 35.3879L88.4819 41.3856C89.5453 41.4149 89.9715 41.6979 90.1654 41.8902C90.3856 42.1086 90.7315 42.6358 90.8513 43.8994L96.8245 43.333ZM88.6423 35.3877C85.3701 35.3027 82.6042 36.7054 80.5 39.2382L85.1152 43.0723C86.1751 41.7965 87.2471 41.3535 88.4866 41.3857L88.6423 35.3877ZM80.497 39.2418C78.4957 41.6585 77.3637 44.6996 76.9304 48.166L82.8841 48.9102C83.2125 46.2828 84.014 44.402 85.1182 43.0687L80.497 39.2418ZM79.8889 45.5381L65.5188 45.626L65.5555 51.6259L79.9256 51.538L79.8889 45.5381ZM68.532 48.8009C68.7358 45.3104 69.784 42.1615 71.6841 39.2986L66.685 35.9807C64.1906 39.7389 62.8071 43.9142 62.5422 48.4511L68.532 48.8009ZM71.6908 39.2885C73.5945 36.3949 76.1263 34.1336 79.3408 32.4877L76.6064 27.147C72.4968 29.2512 69.1691 32.2048 66.6783 35.9908L71.6908 39.2885ZM79.3322 32.4921C82.5942 30.8353 86.0466 30.0228 89.7299 30.0488L89.7721 24.0489C85.1351 24.0162 80.7359 25.0495 76.615 27.1426L79.3322 32.4921ZM89.6946 30.0483C95.4251 30.1559 99.4486 31.7004 102.178 34.3136L106.327 29.9794C102.202 26.03 96.5573 24.1761 89.8073 24.0494L89.6946 30.0483ZM102.188 34.3229C104.837 36.8355 106.127 40.2914 105.745 45.1379L111.726 45.6101C112.222 39.3239 110.525 33.9614 106.318 29.9701L102.188 34.3229ZM105.745 45.1337C105.523 47.896 104.61 50.6393 102.926 53.3858L108.041 56.5224C110.165 53.058 111.42 49.4145 111.726 45.6143L105.745 45.1337ZM102.915 53.4035C101.219 56.2129 98.6739 59.2739 95.198 62.5802L99.3333 66.9276C103.064 63.3785 105.998 59.9062 108.052 56.5047L102.915 53.4035ZM95.2332 62.5473L88.5535 68.6996L92.6184 73.1129L99.2981 66.9605L95.2332 62.5473ZM88.5032 68.7471L78.5715 78.3271L82.7371 82.6455L92.6687 73.0654L88.5032 68.7471ZM80.6434 83.4863L104.813 83.5742L104.835 77.5742L80.6652 77.4863L80.6434 83.4863ZM101.861 80.1069L100.059 91.5327L105.986 92.4673L107.788 81.0415L101.861 80.1069ZM132.554 92.8789L132.481 95.878L132.489 95.8782L132.554 92.8789ZM123.018 90.3301L121.458 92.8927L121.474 92.9026L121.49 92.9123L123.018 90.3301ZM116.777 83.167L114.055 84.4274L114.059 84.437L116.777 83.167ZM114.404 72.4004L117.403 72.3128L117.403 72.2958L117.402 72.2789L114.404 72.4004ZM114.668 65.8525L111.701 65.4087L111.695 65.4518L111.689 65.4951L114.668 65.8525ZM116.338 54.6904L113.371 54.2459L113.371 54.2466L116.338 54.6904ZM124.995 34.0801L127.19 36.1256L127.196 36.1188L124.995 34.0801ZM141.914 27.1367L141.85 30.136L141.851 30.1361L141.914 27.1367ZM154.966 32.7617L152.695 34.7216L152.704 34.7321L154.966 32.7617ZM160.063 47.6152L163.062 47.5342L163.062 47.5187L163.061 47.5032L160.063 47.6152ZM159.756 54.1631L162.721 54.621L162.728 54.5709L162.734 54.5205L159.756 54.1631ZM157.998 65.5449L155.033 65.087L155.033 65.0873L157.998 65.5449ZM149.253 86.1553L147.084 84.0825L147.077 84.0897L149.253 86.1553ZM145.605 52.1855L148.574 52.6203L148.578 52.5943L148.581 52.5681L145.605 52.1855ZM146.045 46.7803L149.044 46.8369L149.045 46.8086V46.7803H146.045ZM140.947 38.4746L141.102 35.4786L141.099 35.4784L140.947 38.4746ZM131.235 51.8779L134.203 52.3149L134.206 52.2999L134.208 52.285L131.235 51.8779ZM128.906 67.6982L125.938 67.2613L125.933 67.3003L125.928 67.3394L128.906 67.6982ZM128.467 73.1035L131.466 73.1846L131.467 73.144V73.1035H128.467ZM133.521 81.541L133.346 84.5359L133.359 84.5367L133.372 84.5373L133.521 81.541ZM143.32 67.7861L140.352 67.3513L140.349 67.3747L140.346 67.3981L143.32 67.7861ZM132.626 89.8798C129.429 89.8024 126.766 89.0617 124.545 87.7479L121.49 92.9123C124.718 94.8211 128.413 95.7796 132.481 95.878L132.626 89.8798ZM124.577 87.7675C122.436 86.4638 120.735 84.5501 119.495 81.8969L114.059 84.437C115.749 88.0534 118.209 90.9152 121.458 92.8927L124.577 87.7675ZM119.5 81.9066C118.229 79.1624 117.51 75.9819 117.403 72.3128L111.406 72.4879C111.533 76.8462 112.396 80.8434 114.055 84.4274L119.5 81.9066ZM117.402 72.2789C117.321 70.274 117.402 68.2515 117.647 66.21L111.689 65.4951C111.407 67.8481 111.312 70.1909 111.407 72.5219L117.402 72.2789ZM117.635 66.2964L119.305 55.1343L113.371 54.2466L111.701 65.4087L117.635 66.2964ZM119.305 55.135C120.597 46.5077 123.315 40.2828 127.19 36.1256L122.801 32.0346C117.828 37.3695 114.774 44.8848 113.371 54.2459L119.305 55.135ZM127.196 36.1188C131.002 32.0098 135.8 30.0068 141.85 30.136L141.978 24.1374C134.317 23.9737 127.835 26.5996 122.794 32.0413L127.196 36.1188ZM141.851 30.1361C146.717 30.2385 150.206 31.838 152.695 34.7216L157.237 30.8018C153.456 26.4198 148.244 24.2693 141.977 24.1374L141.851 30.1361ZM152.704 34.7321C155.297 37.7092 156.849 41.9337 157.066 47.7273L163.061 47.5032C162.809 40.7577 160.963 35.0798 157.228 30.7914L152.704 34.7321ZM157.065 47.6963C157.119 49.7148 157.024 51.7509 156.777 53.8057L162.734 54.5205C163.015 52.1808 163.125 49.8516 163.062 47.5342L157.065 47.6963ZM156.791 53.7052L155.033 65.087L160.963 66.0028L162.721 54.621L156.791 53.7052ZM155.033 65.0873C153.681 73.8473 150.934 80.054 147.084 84.0825L151.422 88.228C156.419 82.9987 159.502 75.4652 160.963 66.0025L155.033 65.0873ZM147.077 84.0897C143.301 88.0679 138.565 90.0089 132.619 89.8796L132.489 95.8782C140.019 96.0419 146.416 93.5005 151.429 88.2208L147.077 84.0897ZM148.581 52.5681C148.854 50.4422 149.012 48.5275 149.044 46.8369L143.045 46.7237C143.019 48.1386 142.884 49.8273 142.63 51.803L148.581 52.5681ZM149.045 46.7803C149.045 43.8682 148.599 41.1849 147.327 39.1136C145.932 36.8407 143.732 35.6147 141.102 35.4786L140.792 41.4706C141.561 41.5103 141.909 41.7565 142.214 42.2521C142.642 42.9494 143.045 44.331 143.045 46.7803H149.045ZM141.099 35.4784C137.41 35.2919 134.353 36.8673 132.179 39.8674C130.136 42.6864 128.92 46.6755 128.263 51.4709L134.208 52.285C134.811 47.8812 135.843 45.0368 137.037 43.3879C138.101 41.9203 139.269 41.3936 140.796 41.4708L141.099 35.4784ZM128.267 51.441L125.938 67.2613L131.874 68.1352L134.203 52.3149L128.267 51.441ZM125.928 67.3394C125.632 69.791 125.467 71.7418 125.467 73.1035H131.467C131.467 72.1214 131.594 70.4687 131.885 68.0571L125.928 67.3394ZM125.468 73.0225C125.388 75.9681 125.777 78.6994 127.047 80.8193C128.442 83.1492 130.684 84.3807 133.346 84.5359L133.695 78.5461C132.841 78.4963 132.483 78.219 132.194 77.7363C131.779 77.0438 131.399 75.6589 131.466 73.1846L125.468 73.0225ZM133.372 84.5373C137.116 84.7235 140.207 83.106 142.391 80.0408C144.443 77.1607 145.655 73.0839 146.295 68.1742L140.346 67.3981C139.755 71.922 138.719 74.8544 137.504 76.5593C136.421 78.0791 135.227 78.6222 133.669 78.5447L133.372 84.5373ZM146.289 68.2209L148.574 52.6203L142.637 51.7508L140.352 67.3513L146.289 68.2209Z" fill="#EF3829"/>
<path d="M178.71 91.3779C177.909 92.3154 176.742 93.043 175.209 93.5605C173.676 94.0684 171.977 94.3076 170.111 94.2783C168.324 94.2588 166.815 93.8096 165.585 92.9307C164.354 92.0518 163.476 90.8262 162.948 89.2539C162.421 87.6816 162.279 85.9092 162.523 83.9365L162.641 83.0576C163.09 79.7471 164.252 77.125 166.127 75.1914C168.012 73.2578 170.316 72.3154 173.041 72.3643C175.424 72.4033 177.255 73.043 178.534 74.2832C179.813 75.5234 180.526 77.3154 180.673 79.6592L175.868 79.6445C175.8 78.502 175.517 77.667 175.019 77.1396C174.53 76.6123 173.832 76.334 172.924 76.3047C171.576 76.2559 170.463 76.7881 169.584 77.9014C168.705 79.0049 168.104 80.5869 167.782 82.6475C167.509 84.4053 167.411 85.7725 167.489 86.749C167.636 89.1025 168.695 90.2939 170.668 90.3232C171.859 90.3428 172.904 90.0547 173.803 89.459L174.462 86.1338H170.99L171.605 82.6035H180.087L178.71 91.3779ZM186.356 94H181.347L185.053 72.6719H190.048L186.356 94ZM207.626 91.3779C206.825 92.3154 205.658 93.043 204.125 93.5605C202.592 94.0684 200.893 94.3076 199.027 94.2783C197.24 94.2588 195.731 93.8096 194.501 92.9307C193.271 92.0518 192.392 90.8262 191.864 89.2539C191.337 87.6816 191.195 85.9092 191.439 83.9365L191.557 83.0576C192.006 79.7471 193.168 77.125 195.043 75.1914C196.928 73.2578 199.232 72.3154 201.957 72.3643C204.34 72.4033 206.171 73.043 207.45 74.2832C208.729 75.5234 209.442 77.3154 209.589 79.6592L204.784 79.6445C204.716 78.502 204.433 77.667 203.935 77.1396C203.446 76.6123 202.748 76.334 201.84 76.3047C200.492 76.2559 199.379 76.7881 198.5 77.9014C197.621 79.0049 197.021 80.5869 196.698 82.6475C196.425 84.4053 196.327 85.7725 196.405 86.749C196.552 89.1025 197.611 90.2939 199.584 90.3232C200.775 90.3428 201.82 90.0547 202.719 89.459L203.378 86.1338H199.906L200.521 82.6035H209.003L207.626 91.3779ZM222.45 90.0156H215.639L213.749 94H208.227L219.521 72.6719H224.237L228.178 94H222.963L222.45 90.0156ZM217.514 86.0459H221.938L221 78.6924L217.514 86.0459ZM241.625 88.2285C241.84 87.125 241.244 86.2705 239.838 85.665L237.436 84.6689C234.066 83.1553 232.465 81.0947 232.631 78.4873C232.699 77.2959 233.109 76.2363 233.861 75.3086C234.613 74.3711 235.653 73.6436 236.981 73.126C238.31 72.6084 239.76 72.3594 241.332 72.3789C243.441 72.418 245.136 73.0332 246.415 74.2246C247.704 75.416 248.339 77.0127 248.319 79.0146H243.339C243.368 78.1943 243.192 77.54 242.812 77.0518C242.44 76.5537 241.825 76.2949 240.966 76.2754C240.126 76.2559 239.384 76.4512 238.739 76.8613C238.095 77.2715 237.714 77.8232 237.597 78.5166C237.411 79.4932 238.134 80.2939 239.765 80.9189C241.405 81.5439 242.597 82.0811 243.339 82.5303C245.673 83.9268 246.767 85.8115 246.62 88.1846C246.542 89.415 246.146 90.4941 245.434 91.4219C244.721 92.3496 243.729 93.0674 242.46 93.5752C241.2 94.083 239.784 94.3271 238.212 94.3076C237.06 94.2881 235.99 94.1074 235.004 93.7656C234.018 93.4238 233.173 92.9258 232.47 92.2715C231.044 90.9531 230.36 89.2197 230.419 87.0713L235.443 87.0859C235.385 88.1797 235.595 89.0098 236.073 89.5762C236.552 90.1328 237.357 90.4111 238.49 90.4111C239.33 90.4111 240.028 90.2207 240.585 89.8398C241.151 89.4492 241.498 88.9121 241.625 88.2285Z" fill="url(#paint0_linear)"/>
<g clip-path="url(#clip1)">
<path d="M69.0542 91.4114L69.1177 90.8465L69.9139 83.5755L68.7184 83.5058C68.6642 83.4835 68.6101 83.4612 68.5591 83.4825L68.5336 83.4931L54.3358 82.6544L55.5277 94.9437L68.6381 95.0395L69.0542 91.4114Z" fill="#262C38"/>
<path d="M63.6538 83.1967C63.9126 85.6461 64.577 91.8295 64.9262 95.0337L58.7607 94.9878L60.9113 83.0394L63.6538 83.1967Z" fill="#00F0E9"/>
<path opacity="0.19" d="M54.3358 82.6568L69.9033 83.5524L69.429 87.9376C64.5396 87.5091 59.6246 87.0912 54.7352 86.6627L54.3358 82.6568Z" fill="#248D8A"/>
<path d="M72.3648 80.9551L70.5165 84.9861L53.2057 84.4287L51.6341 80.1939L72.3648 80.9551Z" fill="#262C38"/>
<path d="M64.4578 80.6763L63.8231 84.7844L60.6198 84.6696L60.3849 80.5204L64.4578 80.6763Z" fill="#4D8493"/>
<path d="M62.7229 80.5339C64.5756 80.4941 66.4176 80.0699 68.0748 79.2741C68.785 78.9331 69.5217 78.4763 69.7285 77.7171C69.9501 76.9218 69.5305 76.0948 69.1279 75.3804C69.0174 75.1872 68.9069 74.994 68.789 74.8188C68.4247 74.2679 67.9764 73.7669 67.351 73.594C66.3603 73.3342 65.0376 74.0354 64.3488 74.7862C63.0146 76.2848 62.8338 78.4688 62.7091 80.4649C62.7378 80.4978 62.7303 80.5159 62.7229 80.5339ZM62.9224 80.1516C63.4169 79.2575 64.1711 77.0138 67.3388 75.2143C67.444 75.5742 66.6671 76.4365 66.6056 76.7912C66.454 77.4675 66.0348 78.076 65.537 78.5678C64.8046 79.3218 63.9076 79.8604 62.9224 80.1516Z" fill="#00F0E9"/>
<path d="M62.9224 80.1512C63.897 79.8345 64.812 79.3033 65.5295 78.5854C66.0273 78.0936 66.4465 77.4851 66.5982 76.8087C66.6851 76.4435 66.6744 76.0591 66.5692 75.6992C67.2591 75.2021 68.0129 74.8579 68.807 74.8258C68.9249 75.0009 69.0354 75.1941 69.1459 75.3873C69.5666 76.1092 69.9862 76.9362 69.7465 77.7241C69.5217 78.4758 68.803 78.94 68.0928 79.2811C66.4176 80.0694 64.5756 80.4936 62.741 80.5409C62.7229 80.5334 62.8004 80.3965 62.9224 80.1512Z" fill="#4D8493"/>
<path d="M55.532 78.2093C55.7966 78.9514 56.5792 79.3578 57.3013 79.6549C59.0236 80.3423 60.8839 80.6433 62.7334 80.5599C62.4812 78.5565 61.7776 76.3674 60.3524 74.9579C59.6344 74.2403 58.6075 73.6068 57.6435 73.949C57.0289 74.1604 56.6213 74.6893 56.2966 75.2734C56.1969 75.4645 56.0897 75.6737 55.9899 75.8649C55.6132 76.5753 55.2461 77.4163 55.532 78.2093ZM58.5626 75.9734C60.4327 77.1227 61.941 79.3052 62.487 80.1841C61.4889 79.9424 60.5618 79.4766 59.7855 78.7983C59.2609 78.3292 58.7988 77.7592 58.5916 77.0829C58.5044 76.7305 58.4756 76.3387 58.5626 75.9734Z" fill="#00F0E9"/>
<path d="M62.5126 80.1728C61.5145 79.931 60.5875 79.4652 59.8111 78.787C59.2865 78.3178 58.8244 77.7478 58.6172 77.0716C58.512 76.7117 58.5012 76.3273 58.5701 75.9546C57.8459 75.5089 57.0803 75.2151 56.2755 75.2217C56.1757 75.4128 56.0686 75.622 55.9688 75.8132C55.6027 76.5491 55.2282 77.4081 55.5141 78.2012C55.7787 78.9432 56.5613 79.3496 57.2834 79.6467C59.0057 80.3342 60.866 80.6351 62.7155 80.5518C62.7229 80.5337 62.6518 80.3989 62.5126 80.1728Z" fill="#4D8493"/>
<path d="M62.6645 80.5727C63.019 80.2753 63.8854 80.2729 64.2857 80.4798C64.6967 80.7122 64.9867 81.0848 65.2331 81.4606C65.4721 81.8544 65.7037 82.2663 66.0266 82.6102C66.4822 83.0931 67.1172 83.3966 67.7692 83.4537C67.0855 83.679 66.5888 84.4245 65.8488 84.4789C65.2574 84.5311 64.7253 84.08 64.4077 83.5694C64.1156 83.0482 63.9838 82.4452 63.768 81.8921C63.5778 81.3284 63.2315 80.7849 62.6645 80.5727Z" fill="#00F0E9"/>
<g opacity="0.25">
<path opacity="0.25" d="M62.6645 80.5727C63.019 80.2753 63.8854 80.2729 64.2857 80.4798C64.6967 80.7122 64.9867 81.0848 65.2331 81.4606C65.4721 81.8544 65.7037 82.2663 66.0266 82.6102C66.4822 83.0931 67.1172 83.3966 67.7692 83.4537C67.0855 83.679 66.5888 84.4245 65.8488 84.4789C65.2574 84.5311 64.7253 84.08 64.4077 83.5694C64.1156 83.0482 63.9838 82.4452 63.768 81.8921C63.5778 81.3284 63.2315 80.7849 62.6645 80.5727Z" fill="#00F0E9"/>
</g>
<path d="M67.6391 81.5643C67.9151 81.509 67.8396 81.0769 67.5636 81.1322C67.2875 81.1875 67.3631 81.6196 67.6391 81.5643Z" fill="#3CBCB5"/>
<path d="M69.8023 83.1296C70.1219 83.0711 70.0251 82.588 69.7056 82.6465C69.4041 82.7124 69.5008 83.1955 69.8023 83.1296Z" fill="#3CBCB5"/>
<path d="M70.6047 81.8984C70.6153 81.9239 70.6259 81.9493 70.6546 81.9822C70.7045 82.0661 70.78 82.1393 70.8299 82.2232C70.8766 82.2635 70.9233 82.3039 70.9849 82.3081C71.0465 82.3123 71.1155 82.2985 71.1558 82.2518C71.1813 82.2411 71.1962 82.205 71.2036 82.187C71.2185 82.1509 71.2259 82.1328 71.2407 82.0967C71.2556 82.0606 71.245 82.0351 71.2343 82.0097C71.2237 81.9842 71.2131 81.9587 71.1844 81.9258C71.1345 81.8419 71.0591 81.7687 71.0017 81.7029C70.955 81.6626 70.9008 81.6403 70.8467 81.618C70.7851 81.6138 70.7341 81.635 70.6758 81.6743C70.6503 81.685 70.6354 81.7211 70.628 81.7391C70.6132 81.7752 70.6057 81.7933 70.5909 81.8294C70.5909 81.8294 70.5941 81.8729 70.6047 81.8984Z" fill="#3CBCB5"/>
<path d="M55.8712 82.8235C56.1473 82.7682 56.0717 82.3361 55.7957 82.3914C55.5016 82.4392 55.5952 82.8788 55.8712 82.8235Z" fill="#3CBCB5"/>
<path d="M57.783 81.9212C58.1025 81.8627 58.0058 81.3797 57.6862 81.4382C57.3741 81.4786 57.4634 81.9797 57.783 81.9212Z" fill="#3CBCB5"/>
<path d="M58.8553 81.623C58.8659 81.6485 58.8766 81.6739 58.9052 81.7069C58.9552 81.7907 59.0306 81.864 59.0805 81.9478C59.1272 81.9881 59.174 82.0285 59.2355 82.0327C59.2971 82.0369 59.3661 82.0231 59.4065 81.9764C59.4319 81.9658 59.4468 81.9297 59.4542 81.9116C59.4691 81.8755 59.4765 81.8574 59.4913 81.8213C59.5062 81.7852 59.4956 81.7598 59.485 81.7343C59.4743 81.7088 59.4637 81.6833 59.435 81.6504C59.3851 81.5666 59.3097 81.4933 59.2523 81.4275C59.2056 81.3872 59.1515 81.3649 59.0973 81.3426C59.0357 81.3384 58.9848 81.3596 58.9264 81.3989C58.9009 81.4096 58.886 81.4457 58.8786 81.4637C58.8638 81.4998 58.8563 81.5179 58.8415 81.554C58.8415 81.554 58.8521 81.5795 58.8553 81.623Z" fill="#3CBCB5"/>
<path d="M53.7919 81.5671C53.4724 81.6256 53.5691 82.1086 53.8887 82.0501C54.1902 81.9842 54.0934 81.5012 53.7919 81.5671Z" fill="#3CBCB5"/>
<path d="M55.4319 83.9927C55.4787 84.0331 55.5254 84.0734 55.587 84.0776C55.6486 84.0819 55.7176 84.068 55.7579 84.0213C55.7834 84.0107 55.7982 83.9746 55.8057 83.9565C55.8205 83.9204 55.8279 83.9024 55.8428 83.8663C55.8576 83.8302 55.847 83.8047 55.8364 83.7792C55.8258 83.7537 55.8151 83.7282 55.7865 83.6953C55.7365 83.6115 55.6611 83.5382 55.6038 83.4724C55.557 83.4321 55.5029 83.4098 55.4487 83.3875C55.3872 83.3833 55.3362 83.4046 55.2778 83.4439C55.2523 83.4545 55.2375 83.4906 55.2301 83.5086C55.2152 83.5447 55.2078 83.5628 55.1929 83.5989C55.1781 83.635 55.1887 83.6605 55.1993 83.686C55.2099 83.7114 55.2206 83.7369 55.2492 83.7698C55.314 83.8176 55.382 83.9089 55.4319 83.9927Z" fill="#3CBCB5"/>
<path d="M62.7951 80.5625C62.417 80.3015 61.5613 80.3293 61.16 80.5864C60.7662 80.8254 60.4977 81.2215 60.2833 81.6399C60.0509 82.0509 59.8546 82.4767 59.5649 82.8219C59.1467 83.3252 58.5342 83.6854 57.8664 83.7694C58.5715 83.954 59.1047 84.6588 59.8404 84.666C60.4276 84.6754 60.9435 84.1911 61.2024 83.6644C61.4687 83.1196 61.5471 82.5187 61.7338 81.9622C61.9279 81.3878 62.2526 80.8037 62.7951 80.5625Z" fill="#00F0E9"/>
<g opacity="0.25">
<path opacity="0.25" d="M62.7951 80.5625C62.417 80.3015 61.5613 80.3293 61.16 80.5864C60.7662 80.8254 60.4977 81.2215 60.2833 81.6399C60.0509 82.0509 59.8546 82.4767 59.5649 82.8219C59.1467 83.3252 58.5342 83.6854 57.8664 83.7694C58.5715 83.954 59.1047 84.6588 59.8404 84.666C60.4276 84.6754 60.9435 84.1911 61.2024 83.6644C61.4687 83.1196 61.5471 82.5187 61.7338 81.9622C61.9279 81.3878 62.2526 80.8037 62.7951 80.5625Z" fill="#00F0E9"/>
</g>
<path d="M62.0975 80.3603C62.158 80.1108 62.3202 79.4599 62.5888 79.4227C62.9265 79.3716 63.2017 80.1391 63.2209 80.4003C63.2689 81.0533 61.9056 81.0834 62.0975 80.3603Z" fill="#ABCDD6"/>
</g>
<g clip-path="url(#clip2)">
<path d="M49.8756 95.1131C50.1842 95.4265 50.4771 95.7554 50.7699 96.0842C50.9551 96.2723 51.1248 96.4447 51.3099 96.6327C51.3716 96.6954 51.4644 96.7583 51.4012 96.8822C51.3224 97.0216 51.1985 96.9584 51.1209 96.9422C50.5004 96.7508 49.8955 96.5439 49.2907 96.337C49.2441 96.321 49.1976 96.3051 49.1357 96.2735C48.9939 96.5057 48.8521 96.7378 48.7103 96.97C48.5686 97.2021 48.3957 97.434 48.2539 97.6662C48.1753 97.7744 48.0663 97.7891 47.9892 97.7107C47.9275 97.648 47.9126 97.5702 47.8822 97.4766C47.807 97.1495 47.7164 96.8067 47.6726 96.4487C47.6432 96.2307 47.5508 96.1056 47.3491 96.0574C47.0077 95.9614 46.682 95.85 46.3718 95.7542C46.2633 95.7067 46.1702 95.6749 46.0774 95.612C45.8918 95.4861 45.9398 95.3154 46.1585 95.1928C46.2523 95.1313 46.3612 95.1166 46.4704 95.0708C46.8603 94.9339 47.2501 94.797 47.6399 94.6601C47.9051 94.5533 47.9208 94.5379 47.923 94.258C47.9418 93.8383 47.9764 93.4032 47.9798 92.9678C47.98 92.9367 47.9648 92.8899 47.9808 92.8434C48.028 92.766 48.0601 92.6419 48.138 92.6269C48.2004 92.5963 48.3245 92.6284 48.3706 92.7065C48.4938 92.863 48.5858 93.0192 48.6933 93.1911C48.878 93.4413 49.0626 93.6916 49.2473 93.9419C49.3396 94.067 49.4483 94.0834 49.62 94.007C49.9476 93.8696 50.275 93.7633 50.6181 93.6416C50.7273 93.5958 50.8206 93.5965 50.8975 93.706C50.9589 93.7998 50.896 93.8926 50.8176 93.9697C50.4883 94.3248 50.1898 94.7112 49.8756 95.1131Z" fill="#00F0E9"/>
</g>
<g clip-path="url(#clip3)">
<path d="M157.714 16.1363C158.156 16.5853 158.575 17.0563 158.995 17.5274C159.26 17.7968 159.503 18.0437 159.768 18.3131C159.857 18.4029 159.99 18.493 159.899 18.6705C159.786 18.8701 159.609 18.7796 159.497 18.7565C158.609 18.4822 157.742 18.1858 156.876 17.8895C156.809 17.8667 156.743 17.8439 156.654 17.7986C156.451 18.1311 156.248 18.4637 156.045 18.7962C155.841 19.1287 155.594 19.4609 155.391 19.7935C155.278 19.9485 155.122 19.9695 155.012 19.8573C154.923 19.7675 154.902 19.656 154.858 19.522C154.751 19.0534 154.621 18.5623 154.558 18.0495C154.516 17.7373 154.384 17.5581 154.095 17.489C153.606 17.3515 153.139 17.1919 152.695 17.0547C152.539 16.9867 152.406 16.9411 152.273 16.851C152.007 16.6707 152.076 16.4262 152.389 16.2505C152.523 16.1624 152.68 16.1414 152.836 16.0758C153.394 15.8797 153.953 15.6836 154.511 15.4875C154.891 15.3345 154.914 15.3124 154.917 14.9115C154.944 14.3103 154.993 13.687 154.998 13.0633C154.998 13.0188 154.977 12.9518 154.999 12.8851C155.067 12.7743 155.113 12.5965 155.225 12.5751C155.314 12.5312 155.492 12.5772 155.558 12.689C155.734 12.9132 155.866 13.137 156.02 13.3832C156.285 13.7417 156.549 14.1001 156.814 14.4586C156.946 14.6379 157.102 14.6614 157.347 14.5519C157.817 14.3551 158.286 14.2029 158.777 14.0285C158.934 13.9629 159.067 13.964 159.177 14.1208C159.265 14.2551 159.175 14.3881 159.063 14.4986C158.591 15.0072 158.164 15.5607 157.714 16.1363Z" fill="#00F0E9"/>
</g>
<g clip-path="url(#clip4)">
<path d="M172.563 25C171.592 24.9577 171 24.4507 171 23.6056C171 22.7183 171.718 22 172.563 22C173.451 22 174.127 22.6338 174.127 23.4789C174.085 24.3662 173.451 25 172.563 25Z" fill="#FF2968"/>
</g>
<g clip-path="url(#clip5)">
<path d="M216.105 57.6199C216.105 57.079 216.132 56.5381 216.159 55.9971C216.159 55.6726 216.159 55.3751 216.159 55.0505C216.159 54.9423 216.132 54.8071 216.295 54.753C216.484 54.6989 216.538 54.8612 216.592 54.9423C216.971 55.6455 217.322 56.3488 217.674 57.052C217.701 57.1061 217.728 57.1601 217.755 57.2413C218.08 57.1601 218.404 57.079 218.729 56.9979C219.053 56.9167 219.405 56.8626 219.729 56.7815C219.892 56.7544 220 56.8356 220 56.9708C220 57.079 219.946 57.1601 219.892 57.2683C219.675 57.6199 219.459 57.9986 219.189 58.3502C219.026 58.5666 218.999 58.7559 219.134 58.9723C219.351 59.3509 219.54 59.7296 219.729 60.0812C219.784 60.2164 219.838 60.3246 219.865 60.4598C219.919 60.7303 219.729 60.8385 219.432 60.7573C219.297 60.7303 219.189 60.6492 219.053 60.5951C218.594 60.3787 218.134 60.1623 217.674 59.9459C217.349 59.8107 217.322 59.8107 217.079 60.0541C216.7 60.4057 216.295 60.7573 215.916 61.136C215.889 61.163 215.862 61.2171 215.808 61.2442C215.7 61.2712 215.564 61.3524 215.483 61.2983C215.402 61.2712 215.321 61.136 215.348 61.0278C215.375 60.7844 215.429 60.568 215.483 60.3246C215.537 59.9459 215.591 59.5673 215.645 59.1886C215.672 58.9993 215.591 58.8911 215.375 58.81C214.969 58.6477 214.591 58.4584 214.185 58.2691C214.05 58.215 213.969 58.1338 213.996 57.9715C214.023 57.8363 214.158 57.8093 214.293 57.8093C214.888 57.7822 215.483 57.7011 216.105 57.6199Z" fill="#00F0E9"/>
</g>
<g clip-path="url(#clip6)">
<path d="M218.042 14C217.394 13.9718 217 13.6338 217 13.0704C217 12.4789 217.479 12 218.042 12C218.634 12 219.084 12.4225 219.084 12.9859C219.056 13.5775 218.634 14 218.042 14Z" fill="#262C38"/>
</g>
<g clip-path="url(#clip7)">
<path d="M242.409 29C241.437 28.9577 240.846 28.4507 240.846 27.6056C240.846 26.7183 241.564 26 242.409 26C243.296 26 243.972 26.6338 243.972 27.4789C243.93 28.3662 243.296 29 242.409 29Z" fill="#262C38"/>
</g>
<g clip-path="url(#clip8)">
<path d="M262.563 80C261.591 79.9577 261 79.4507 261 78.6056C261 77.7183 261.718 77 262.563 77C263.451 77 264.127 77.6338 264.127 78.4789C264.084 79.3662 263.451 80 262.563 80Z" fill="#262C38"/>
</g>
<path d="M262.711 92.2163C262.75 92.2238 262.634 92.4032 262.317 92.5836C262.038 92.7717 261.55 92.9997 260.936 93.0421C260.323 93.0844 259.545 92.9334 258.882 92.4012C258.218 91.8689 257.779 91.0169 257.634 90.101C257.561 89.6431 257.535 89.1538 257.664 88.6947C257.71 88.4614 257.84 88.2043 257.963 87.9861C258.086 87.7678 258.287 87.5647 258.48 87.4005C258.906 87.0796 259.464 86.9055 260.001 87.05C260.577 87.2021 260.968 87.6816 261.111 88.1935C261.182 88.4494 261.168 88.7292 261.069 89.0327C260.977 89.2974 260.776 89.5005 260.544 89.6572C260.087 89.9317 259.637 89.9653 259.248 89.8898C258.891 89.8608 258.548 89.754 258.291 89.6234C258.034 89.4928 257.808 89.4086 257.629 89.2931C256.904 88.8699 256.256 88.2599 255.856 87.6174C255.456 86.9749 255.266 86.2923 255.255 85.7253C255.244 85.1582 255.373 84.6991 255.511 84.4031C255.681 84.1536 255.82 84.0596 255.859 84.0671C256.007 84.1362 255.77 84.7357 255.946 85.698C256.057 86.1635 256.239 86.683 256.623 87.2013C256.967 87.7121 257.522 88.1828 258.137 88.5444C258.278 88.6524 258.504 88.7366 258.722 88.8596C258.948 88.9438 259.173 89.028 259.446 89.0808C259.99 89.1865 260.439 88.9508 260.328 88.4854C260.295 88.2369 260.061 87.9897 259.828 87.9444C259.563 87.8527 259.222 87.9478 258.943 88.1359C258.664 88.3239 258.448 88.6048 258.373 88.9937C258.266 89.3361 258.268 89.74 258.31 90.1515C258.4 90.9357 258.738 91.6873 259.214 92.1429C259.73 92.6061 260.376 92.8122 260.943 92.8012C261.502 92.8291 261.936 92.6713 262.246 92.5297C262.532 92.3027 262.672 92.2087 262.711 92.2163Z" fill="#262C38"/>
<circle cx="231.5" cy="67.5" r="1.5" fill="#FF0B53"/>
<path d="M250.648 39.0154C247.627 40.3997 244.024 39.0795 242.63 36.0372L238.523 37.9194L245.823 53.8479C246.669 55.695 245.857 57.8816 244.01 58.7281C242.163 59.5746 239.976 58.7623 239.13 56.9152C238.283 55.0681 239.096 52.8816 240.943 52.0351C241.29 51.8757 241.702 51.7399 242.077 51.6992L240.155 47.5052C239.788 47.6211 239.43 47.7587 239.061 47.928C234.932 49.8202 233.119 54.7003 235.011 58.8291C236.903 62.9579 241.783 64.7708 245.912 62.8786C250.041 60.9864 251.854 56.1062 249.962 51.9774L246.098 43.546C248.155 44.0757 250.406 43.9382 252.492 42.9822L250.669 39.0055L250.648 39.0154Z" fill="#FF0B53"/>
<path d="M248.946 38.4021C245.904 39.7964 242.313 38.4444 240.929 35.4239L236.822 37.3061L244.122 53.2346C244.968 55.0817 244.156 57.2683 242.309 58.1148C240.462 58.9613 238.275 58.149 237.429 56.3019C236.582 54.4548 237.394 52.2683 239.241 51.4218C239.589 51.2624 240 51.1266 240.376 51.0859L238.454 46.8919C238.086 47.0078 237.729 47.1454 237.359 47.3147C233.22 49.1851 231.408 54.0653 233.3 58.1941C235.192 62.3229 240.072 64.1358 244.201 62.2436C248.33 60.3514 250.143 55.4712 248.25 51.3424L244.386 42.911C246.444 43.4407 248.694 43.3032 250.781 42.3471L248.968 38.3922L248.946 38.4021Z" fill="#00F0E9"/>
<path d="M249.414 39.4228C247.959 39.7478 246.459 39.5151 245.189 38.8088C243.765 38.5145 242.477 37.7113 241.587 36.5152L238.523 37.9194L245.823 53.8479C246.669 55.695 245.857 57.8816 244.01 58.7281C242.793 59.2858 241.408 59.1318 240.373 58.4228C239.126 58.2842 237.986 57.5182 237.419 56.2795C236.572 54.4324 237.384 52.2459 239.232 51.3994C239.579 51.24 239.99 51.1042 240.366 51.0635L238.952 47.9778C234.896 49.9152 233.129 54.7221 235.011 58.8291C235.818 60.5893 237.173 61.9402 238.782 62.7543C240.532 63.188 242.419 63.0595 244.201 62.2429C248.33 60.3507 250.143 55.4706 248.25 51.3418L244.386 42.9103C246.444 43.4401 248.694 43.3025 250.781 42.3465L249.436 39.4129L249.414 39.4228Z" fill="#262C38"/>
<g clip-path="url(#clip9)">
<path d="M39.2149 14.7768C39.2091 14.7269 39.4703 14.7977 39.8103 15.1123C40.1446 15.3769 40.6077 15.8796 40.8944 16.6051C41.1811 17.3305 41.2971 18.3288 40.9082 19.3351C40.5193 20.3415 39.6579 21.2004 38.6063 21.7273C38.0804 21.9908 37.4989 22.2102 36.8941 22.2299C36.5947 22.2647 36.2337 22.2054 35.9226 22.1404C35.6115 22.0754 35.2888 21.9106 35.0161 21.7399C34.4647 21.3487 34.0399 20.7404 34.0086 20.0359C33.9715 19.2814 34.401 18.6244 34.9652 18.2553C35.2473 18.0708 35.5908 17.9803 35.9959 17.9838C36.3511 17.9931 36.6738 18.1579 36.9524 18.3785C37.4596 18.8254 37.6732 19.357 37.7312 19.8562C37.8333 20.2996 37.8356 20.7546 37.7764 21.1156C37.7172 21.4766 37.702 21.7818 37.6312 22.043C37.3979 23.0819 36.9091 24.0998 36.2858 24.8299C35.6624 25.56 34.9102 26.0521 34.2288 26.2831C33.5474 26.514 32.9427 26.5337 32.5318 26.4803C32.165 26.3712 31.9979 26.2388 31.992 26.1889C32.0188 25.9835 32.8348 26.0404 33.9305 25.4577C34.4506 25.1444 35.0089 24.7254 35.4884 24.0626C35.9736 23.4498 36.33 22.5989 36.5308 21.7156C36.6075 21.5044 36.6226 21.1991 36.6876 20.888C36.7027 20.5827 36.7178 20.2775 36.6772 19.9281C36.596 19.2293 36.1387 18.7766 35.6186 19.0899C35.3308 19.2246 35.1218 19.603 35.1566 19.9024C35.1473 20.2576 35.3934 20.6337 35.7276 20.8984C36.0619 21.1631 36.4844 21.3163 36.9836 21.2583C37.4386 21.256 37.9261 21.0982 38.4078 20.8904C39.3214 20.4807 40.1003 19.7832 40.4683 19.0322C40.8305 18.2313 40.8317 17.3711 40.6007 16.6898C40.4197 16.0026 40.0622 15.5383 39.772 15.2179C39.3878 14.959 39.2207 14.8267 39.2149 14.7768Z" fill="#FF0B53"/>
</g>
<g clip-path="url(#clip10)">
<path d="M44.1054 39.6199C44.1054 39.079 44.1324 38.5381 44.1594 37.9971C44.1594 37.6726 44.1594 37.3751 44.1594 37.0505C44.1594 36.9423 44.1324 36.8071 44.2947 36.753C44.484 36.6989 44.5381 36.8612 44.5922 36.9423C44.9708 37.6455 45.3225 38.3488 45.6741 39.052C45.7011 39.1061 45.7281 39.1601 45.7552 39.2413C46.0798 39.1601 46.4043 39.079 46.7289 38.9979C47.0534 38.9167 47.405 38.8626 47.7296 38.7815C47.8919 38.7544 48.0001 38.8356 48.0001 38.9708C48.0001 39.079 47.946 39.1601 47.8919 39.2683C47.6755 39.6199 47.4591 39.9986 47.1887 40.3502C47.0264 40.5666 46.9993 40.7559 47.1346 40.9723C47.3509 41.3509 47.5403 41.7296 47.7296 42.0812C47.7837 42.2164 47.8378 42.3246 47.8648 42.4598C47.9189 42.7303 47.7296 42.8385 47.4321 42.7573C47.2968 42.7303 47.1887 42.6492 47.0534 42.5951C46.5936 42.3787 46.1338 42.1623 45.6741 41.9459C45.3495 41.8107 45.3225 41.8107 45.079 42.0541C44.7004 42.4057 44.2947 42.7573 43.916 43.136C43.889 43.163 43.8619 43.2171 43.8078 43.2442C43.6997 43.2712 43.5644 43.3524 43.4833 43.2983C43.4021 43.2712 43.321 43.136 43.3481 43.0278C43.3751 42.7844 43.4292 42.568 43.4833 42.3246C43.5374 41.9459 43.5915 41.5673 43.6456 41.1886C43.6726 40.9993 43.5915 40.8911 43.3751 40.81C42.9694 40.6477 42.5907 40.4584 42.185 40.2691C42.0498 40.215 41.9687 40.1338 41.9957 39.9715C42.0228 39.8363 42.158 39.8093 42.2932 39.8093C42.8883 39.7822 43.4833 39.7011 44.1054 39.6199Z" fill="#00F0E9"/>
</g>
<g clip-path="url(#clip11)">
<path d="M27.0423 94C26.3944 93.9718 26.0001 93.6338 26.0001 93.0704C26.0001 92.4789 26.4789 92 27.0423 92C27.6339 92 28.0846 92.4225 28.0846 92.9859C28.0564 93.5775 27.6339 94 27.0423 94Z" fill="#FF2968"/>
</g>
<path d="M25.8428 25.2514C25.8896 25.8982 25.5994 26.329 25.0398 26.394C24.4522 26.4623 23.9212 26.0419 23.8562 25.4823C23.7879 24.8947 24.1556 24.3982 24.7152 24.3332C25.306 24.2929 25.7745 24.6638 25.8428 25.2514Z" fill="#262C38"/>
<path d="M49.622 55.6966C46.8528 55.0532 45.1048 52.2742 45.7529 49.485L41.9875 48.6101L38.5942 63.2132C38.2007 64.9066 36.5067 65.9619 34.8133 65.5684C33.1199 65.1749 32.0646 63.4808 32.4581 61.7874C32.8516 60.094 34.5457 59.0388 36.2391 59.4323C36.5579 59.5063 36.9072 59.6295 37.1829 59.7986L38.0763 55.9535C37.7668 55.8396 37.4527 55.7456 37.114 55.6669C33.3288 54.7874 29.5478 57.1425 28.6682 60.9277C27.7887 64.713 30.1438 68.494 33.9291 69.3736C37.7143 70.2531 41.4953 67.898 42.3749 64.1127L44.171 56.3828C45.2864 57.8179 46.8822 58.9027 48.7948 59.3471L49.6419 55.7013L49.622 55.6966Z" fill="#FF0B53"/>
<path d="M48.7914 54.3919C46.0023 53.7438 44.2788 50.9496 44.9222 48.1804L41.1569 47.3054L37.7636 61.9085C37.3701 63.602 35.676 64.6572 33.9826 64.2637C32.2892 63.8702 31.234 62.1761 31.6275 60.4827C32.021 58.7893 33.7151 57.7341 35.4085 58.1276C35.7272 58.2016 36.0766 58.3248 36.3523 58.4939L37.2457 54.6488C36.9362 54.5349 36.6221 54.4409 36.2834 54.3622C32.5028 53.4627 28.7218 55.8179 27.8422 59.6031C26.9627 63.3884 29.3178 67.1694 33.1031 68.0489C36.8883 68.9285 40.6693 66.5734 41.5489 62.7881L43.345 55.0582C44.4604 56.4933 46.0562 57.578 47.9688 58.0225L48.8113 54.3966L48.7914 54.3919Z" fill="#00F0E9"/>
<path d="M48.574 55.3271C47.4189 54.7857 46.525 53.8431 46.0347 52.7002C45.2251 51.7562 44.7732 50.5383 44.7966 49.2628L41.9875 48.6101L38.5942 63.2132C38.2007 64.9066 36.5067 65.9619 34.8133 65.5684C33.6976 65.3091 32.8404 64.48 32.5108 63.4585C31.7393 62.7123 31.3684 61.5972 31.6323 60.4616C32.0258 58.7682 33.7199 57.713 35.4133 58.1065C35.732 58.1805 36.0814 58.3037 36.3571 58.4728L37.0144 55.6438C33.2551 54.8332 29.5432 57.1624 28.6682 60.9277C28.2933 62.5415 28.5039 64.1653 29.1671 65.5583C30.125 66.7678 31.4696 67.6682 33.1032 68.0478C36.8885 68.9273 40.6695 66.5722 41.549 62.7869L43.3452 55.057C44.4606 56.4921 46.0564 57.5769 47.9689 58.0213L48.5939 55.3317L48.574 55.3271Z" fill="#262C38"/>
<g clip-path="url(#clip12)">
<path d="M103.246 11.0812C103.208 11.0726 103.328 10.8964 103.65 10.7243C103.934 10.5437 104.428 10.3286 105.042 10.3025C105.656 10.2763 106.43 10.4477 107.079 10.9973C107.728 11.5469 108.145 12.4102 108.266 13.3296C108.326 13.7893 108.34 14.2791 108.198 14.7346C108.147 14.9666 108.009 15.2202 107.881 15.4351C107.752 15.65 107.546 15.8477 107.348 16.0068C106.914 16.3164 106.352 16.4757 105.819 16.3171C105.247 16.1498 104.869 15.6603 104.74 15.1448C104.675 14.887 104.696 14.6077 104.804 14.3069C104.902 14.0448 105.108 13.847 105.345 13.6965C105.808 13.4341 106.26 13.4124 106.646 13.4981C107.003 13.5366 107.342 13.6524 107.596 13.7897C107.85 13.927 108.073 14.0171 108.249 14.1373C108.963 14.5795 109.595 15.2064 109.977 15.8592C110.36 16.5121 110.533 17.1994 110.529 17.7665C110.525 18.3337 110.383 18.7892 110.237 19.0814C110.061 19.3264 109.919 19.4167 109.881 19.4082C109.735 19.3352 109.988 18.7421 109.837 17.7755C109.738 17.3073 109.57 16.7832 109.2 16.2549C108.869 15.7353 108.327 15.2501 107.721 14.8723C107.584 14.7607 107.36 14.6706 107.145 14.5418C106.922 14.4518 106.698 14.3617 106.428 14.3017C105.886 14.1817 105.431 14.4054 105.53 14.8736C105.556 15.1228 105.784 15.3762 106.016 15.4276C106.278 15.5262 106.622 15.4401 106.905 15.2595C107.189 15.0789 107.412 14.8038 107.498 14.417C107.613 14.0776 107.622 13.6737 107.591 13.2612C107.522 12.475 107.204 11.7147 106.74 11.2467C106.237 10.7701 105.596 10.547 105.029 10.5431C104.471 10.5004 104.032 10.6468 103.719 10.7801C103.427 10.9994 103.285 11.0897 103.246 11.0812Z" fill="#262C38"/>
</g>
<g clip-path="url(#clip13)">
<path d="M103.563 29.8086C102.592 29.7663 102 29.2593 102 28.4142C102 27.5269 102.718 26.8086 103.563 26.8086C104.451 26.8086 105.127 27.4424 105.127 28.2875C105.085 29.1748 104.451 29.8086 103.563 29.8086Z" fill="#262C38"/>
</g>
<path d="M200.912 48.4992C200.969 48.5344 200.68 48.7467 200.073 48.8394C199.522 48.9674 198.619 49.0324 197.63 48.7305C196.642 48.4286 195.511 47.7246 194.789 46.4906C194.067 45.2566 193.888 43.6547 194.211 42.1296C194.372 41.3671 194.624 40.5832 195.103 39.9401C195.315 39.601 195.674 39.2757 195.998 39.007C196.322 38.7382 196.76 38.5399 197.162 38.3981C198.023 38.1496 199.004 38.2115 199.76 38.7608C200.573 39.3453 200.899 40.3329 200.816 41.2224C200.774 41.6672 200.584 42.098 200.246 42.515C199.943 42.8755 199.506 43.0738 199.047 43.1804C198.165 43.3372 197.438 43.1195 196.873 42.7676C196.329 42.5073 195.855 42.134 195.53 41.7746C195.205 41.4151 194.901 41.1474 194.688 40.8584C193.804 39.7587 193.153 38.4117 192.911 37.1628C192.669 35.9139 192.78 34.7279 193.103 33.831C193.426 32.9341 193.905 32.291 194.3 31.9092C194.716 31.6192 194.991 31.5552 195.047 31.5904C195.238 31.7877 194.506 32.5865 194.205 34.2033C194.1 35.001 194.073 35.9257 194.364 36.9698C194.599 37.9788 195.187 39.0507 195.936 39.9882C196.092 40.242 196.396 40.5097 196.665 40.834C196.969 41.1017 197.273 41.3694 197.668 41.6158C198.46 42.1085 199.306 42.0083 199.411 41.2106C199.509 40.8011 199.289 40.2721 198.95 40.0609C198.59 39.758 197.997 39.7025 197.447 39.8304C196.896 39.9584 196.389 40.2698 196.037 40.835C195.663 41.3085 195.424 41.9441 195.242 42.6149C194.912 43.9001 194.992 45.2834 195.467 46.2848C195.998 47.3215 196.888 48.0329 197.785 48.3561C198.647 48.7359 199.423 48.7487 199.995 48.7125C200.58 48.528 200.856 48.4641 200.912 48.4992Z" fill="#FF0B53"/>
</g>
<defs>
<filter id="filter0_f" x="23" y="81" width="156" height="26" filterUnits="userSpaceOnUse" color-interpolation-filters="sRGB">
<feFlood flood-opacity="0" result="BackgroundImageFix"/>
<feBlend mode="normal" in="SourceGraphic" in2="BackgroundImageFix" result="shape"/>
<feGaussianBlur stdDeviation="5" result="effect1_foregroundBlur"/>
</filter>
<linearGradient id="paint0_linear" x1="161" y1="81.5" x2="244" y2="81" gradientUnits="userSpaceOnUse">
<stop stop-color="#09EAE5"/>
<stop offset="0.817708" stop-color="#BD4D7A"/>
<stop offset="1" stop-color="#E52A62"/>
</linearGradient>
<clipPath id="clip0">
<rect width="277" height="105.82" fill="white"/>
</clipPath>
<clipPath id="clip1">
<rect width="21.3938" height="24.2827" fill="white" transform="translate(56.2387 69) rotate(22.3625)"/>
</clipPath>
<clipPath id="clip2">
<rect width="8.94383" height="9.87464" fill="white" transform="translate(54.3011 97.168) rotate(135.45)"/>
</clipPath>
<clipPath id="clip3">
<rect width="12.8115" height="14.1448" fill="white" transform="translate(164.053 19.0801) rotate(135.45)"/>
</clipPath>
<clipPath id="clip4">
<rect width="3.08451" height="3" fill="white" transform="translate(171 22)"/>
</clipPath>
<clipPath id="clip5">
<rect width="11" height="12.1448" fill="white" transform="translate(214 52)"/>
</clipPath>
<clipPath id="clip6">
<rect width="2.05634" height="2" fill="white" transform="translate(217 12)"/>
</clipPath>
<clipPath id="clip7">
<rect width="3.08451" height="3" fill="white" transform="translate(240.846 26)"/>
</clipPath>
<clipPath id="clip8">
<rect width="3.08451" height="3" fill="white" transform="translate(261 77)"/>
</clipPath>
<clipPath id="clip9">
<rect width="10.904" height="10.1" fill="white" transform="translate(32.0385 26.5879) rotate(-96.6294)"/>
</clipPath>
<clipPath id="clip10">
<rect width="11" height="12.1448" fill="white" transform="translate(42.0001 34)"/>
</clipPath>
<clipPath id="clip11">
<rect width="2.05634" height="2" fill="white" transform="translate(26.0001 92)"/>
</clipPath>
<clipPath id="clip12">
<rect width="8.5957" height="7.96192" fill="white" transform="translate(110.19 19.4766) rotate(-167.505)"/>
</clipPath>
<clipPath id="clip13">
<rect width="3.08451" height="3" fill="white" transform="translate(102 26.8086)"/>
</clipPath>
</defs>
</svg>
