<svg width="277" height="106" viewBox="0 0 277 106" fill="none" xmlns="http://www.w3.org/2000/svg">
<g clip-path="url(#clip0)">
<g filter="url(#filter0_f)">
<ellipse cx="86" cy="94" rx="68" ry="3" fill="#C4C4C4" fill-opacity="0.5"/>
</g>
<path d="M162.71 87.3779C161.909 88.3154 160.742 89.043 159.209 89.5605C157.676 90.0684 155.977 90.3076 154.111 90.2783C152.324 90.2588 150.815 89.8096 149.585 88.9307C148.354 88.0518 147.476 86.8262 146.948 85.2539C146.421 83.6816 146.279 81.9092 146.523 79.9365L146.641 79.0576C147.09 75.7471 148.252 73.125 150.127 71.1914C152.012 69.2578 154.316 68.3154 157.041 68.3643C159.424 68.4033 161.255 69.043 162.534 70.2832C163.813 71.5234 164.526 73.3154 164.673 75.6592L159.868 75.6445C159.8 74.502 159.517 73.667 159.019 73.1396C158.53 72.6123 157.832 72.334 156.924 72.3047C155.576 72.2559 154.463 72.7881 153.584 73.9014C152.705 75.0049 152.104 76.5869 151.782 78.6475C151.509 80.4053 151.411 81.7725 151.489 82.749C151.636 85.1025 152.695 86.2939 154.668 86.3232C155.859 86.3428 156.904 86.0547 157.803 85.459L158.462 82.1338H154.99L155.605 78.6035H164.087L162.71 87.3779ZM170.356 90H165.347L169.053 68.6719H174.048L170.356 90ZM191.626 87.3779C190.825 88.3154 189.658 89.043 188.125 89.5605C186.592 90.0684 184.893 90.3076 183.027 90.2783C181.24 90.2588 179.731 89.8096 178.501 88.9307C177.271 88.0518 176.392 86.8262 175.864 85.2539C175.337 83.6816 175.195 81.9092 175.439 79.9365L175.557 79.0576C176.006 75.7471 177.168 73.125 179.043 71.1914C180.928 69.2578 183.232 68.3154 185.957 68.3643C188.34 68.4033 190.171 69.043 191.45 70.2832C192.729 71.5234 193.442 73.3154 193.589 75.6592L188.784 75.6445C188.716 74.502 188.433 73.667 187.935 73.1396C187.446 72.6123 186.748 72.334 185.84 72.3047C184.492 72.2559 183.379 72.7881 182.5 73.9014C181.621 75.0049 181.021 76.5869 180.698 78.6475C180.425 80.4053 180.327 81.7725 180.405 82.749C180.552 85.1025 181.611 86.2939 183.584 86.3232C184.775 86.3428 185.82 86.0547 186.719 85.459L187.378 82.1338H183.906L184.521 78.6035H193.003L191.626 87.3779ZM206.45 86.0156H199.639L197.749 90H192.227L203.521 68.6719H208.237L212.178 90H206.963L206.45 86.0156ZM201.514 82.0459H205.938L205 74.6924L201.514 82.0459ZM225.625 84.2285C225.84 83.125 225.244 82.2705 223.838 81.665L221.436 80.6689C218.066 79.1553 216.465 77.0947 216.631 74.4873C216.699 73.2959 217.109 72.2363 217.861 71.3086C218.613 70.3711 219.653 69.6436 220.981 69.126C222.31 68.6084 223.76 68.3594 225.332 68.3789C227.441 68.418 229.136 69.0332 230.415 70.2246C231.704 71.416 232.339 73.0127 232.319 75.0146H227.339C227.368 74.1943 227.192 73.54 226.812 73.0518C226.44 72.5537 225.825 72.2949 224.966 72.2754C224.126 72.2559 223.384 72.4512 222.739 72.8613C222.095 73.2715 221.714 73.8232 221.597 74.5166C221.411 75.4932 222.134 76.2939 223.765 76.9189C225.405 77.5439 226.597 78.0811 227.339 78.5303C229.673 79.9268 230.767 81.8115 230.62 84.1846C230.542 85.415 230.146 86.4941 229.434 87.4219C228.721 88.3496 227.729 89.0674 226.46 89.5752C225.2 90.083 223.784 90.3271 222.212 90.3076C221.06 90.2881 219.99 90.1074 219.004 89.7656C218.018 89.4238 217.173 88.9258 216.47 88.2715C215.044 86.9531 214.36 85.2197 214.419 83.0713L219.443 83.0859C219.385 84.1797 219.595 85.0098 220.073 85.5762C220.552 86.1328 221.357 86.4111 222.49 86.4111C223.33 86.4111 224.028 86.2207 224.585 85.8398C225.151 85.4492 225.498 84.9121 225.625 84.2285Z" fill="#BBBBBB"/>
<path d="M88.0225 91H44.6484L46.2305 80.8047L68.9941 59.667L72.1143 56.5469C77.0068 51.625 79.248 46.9814 78.8379 42.6162C78.5156 39.2178 76.7578 37.4746 73.5645 37.3867C71.3086 37.3281 69.3896 38.251 67.8076 40.1553C66.2549 42.0303 65.2881 44.4912 64.9072 47.5381L50.5371 47.626C50.7715 43.6123 51.9873 39.9502 54.1846 36.6396C56.3818 33.2998 59.3115 30.6924 62.9736 28.8174C66.665 26.9424 70.5908 26.0195 74.751 26.0488C80.9912 26.166 85.8252 27.8652 89.2529 31.1465C92.6807 34.3984 94.1748 38.8076 93.7354 44.374C93.4717 47.6553 92.3877 50.8486 90.4834 53.9541C88.6084 57.0596 85.8691 60.3262 82.2656 63.7539L75.5859 69.9062L65.6543 79.4863L89.8242 79.5742L88.0225 91ZM101.294 59.5352L110.171 27.0156H146.646L144.8 38.5293H120.322L116.411 51.3174C118.784 49.7939 121.729 49.0029 125.244 48.9443C130.869 48.9443 135.19 50.8926 138.208 54.7891C141.255 58.6855 142.515 63.7832 141.987 70.082C141.46 76.5859 138.926 81.8887 134.385 85.9902C129.844 90.0625 124.351 92.04 117.905 91.9229C114.126 91.835 110.684 90.9561 107.578 89.2861C104.502 87.6162 102.114 85.3457 100.415 82.4746C98.7158 79.5742 97.8809 76.3369 97.9102 72.7627H112.324C112.383 75.0479 112.954 76.8789 114.038 78.2559C115.122 79.6328 116.646 80.3506 118.608 80.4092C121.011 80.4971 123.003 79.6035 124.585 77.7285C126.167 75.8242 127.178 72.9385 127.617 69.0713C127.91 65.8193 127.471 63.3584 126.299 61.6885C125.127 59.9893 123.296 59.1396 120.806 59.1396C117.612 59.1396 115.02 60.2236 113.027 62.3916L101.294 59.5352Z" fill="#EF3829"/>
<path d="M88.0225 91V94H90.5865L90.9858 91.4673L88.0225 91ZM44.6484 91L41.6839 90.54L41.147 94H44.6484V91ZM46.2305 80.8047L44.1891 78.6063L43.4257 79.3152L43.2659 80.3447L46.2305 80.8047ZM68.9941 59.667L71.0355 61.8654L71.0762 61.8276L71.1155 61.7883L68.9941 59.667ZM72.1143 56.5469L74.2356 58.6682L74.2419 58.6619L72.1143 56.5469ZM78.8379 42.6162L81.8247 42.3356L81.8245 42.333L78.8379 42.6162ZM73.5645 37.3867L73.647 34.3879L73.6423 34.3877L73.5645 37.3867ZM67.8076 40.1553L65.5 38.2382L65.497 38.2418L67.8076 40.1553ZM64.9072 47.5381L64.9256 50.538L67.5576 50.5219L67.8841 47.9102L64.9072 47.5381ZM50.5371 47.626L47.5422 47.4511L47.3557 50.6455L50.5555 50.6259L50.5371 47.626ZM54.1846 36.6396L56.6841 38.2987L56.6908 38.2885L54.1846 36.6396ZM62.9736 28.8174L61.615 26.1426L61.6064 26.147L62.9736 28.8174ZM74.751 26.0488L74.8073 23.0494L74.7897 23.049L74.7721 23.0489L74.751 26.0488ZM89.2529 31.1465L87.1784 33.3136L87.1881 33.3229L89.2529 31.1465ZM93.7354 44.374L96.7257 44.6143L96.726 44.6101L93.7354 44.374ZM90.4834 53.9541L87.9259 52.3858L87.9205 52.3947L87.9152 52.4035L90.4834 53.9541ZM82.2656 63.7539L84.2981 65.9605L84.3158 65.9442L84.3333 65.9276L82.2656 63.7539ZM75.5859 69.9062L73.5535 67.6996L73.5281 67.723L73.5032 67.7471L75.5859 69.9062ZM65.6543 79.4863L63.5715 77.3271L58.2509 82.4594L65.6434 82.4863L65.6543 79.4863ZM89.8242 79.5742L92.7876 80.0415L93.3324 76.587L89.8351 76.5742L89.8242 79.5742ZM88.0225 88H44.6484V94H88.0225V88ZM47.613 91.46L49.195 81.2647L43.2659 80.3447L41.6839 90.54L47.613 91.46ZM48.2718 83.0031L71.0355 61.8654L66.9528 57.4686L44.1891 78.6063L48.2718 83.0031ZM71.1155 61.7883L74.2356 58.6682L69.9929 54.4256L66.8728 57.5457L71.1155 61.7883ZM74.2419 58.6619C79.398 53.4748 82.3567 47.9975 81.8247 42.3356L75.851 42.8969C76.1394 45.9654 74.6156 49.7752 69.9866 54.4319L74.2419 58.6619ZM81.8245 42.333C81.6221 40.1982 80.9279 38.1546 79.3903 36.6298C77.8264 35.079 75.7769 34.4465 73.647 34.3879L73.4819 40.3856C74.5453 40.4149 74.9715 40.6979 75.1654 40.8902C75.3856 41.1086 75.7315 41.6358 75.8513 42.8994L81.8245 42.333ZM73.6423 34.3877C70.3701 34.3027 67.6042 35.7054 65.5 38.2382L70.1152 42.0723C71.1751 40.7965 72.2471 40.3535 73.4866 40.3857L73.6423 34.3877ZM65.497 38.2418C63.4957 40.6585 62.3637 43.6996 61.9304 47.166L67.8841 47.9102C68.2125 45.2828 69.014 43.402 70.1182 42.0687L65.497 38.2418ZM64.8889 44.5381L50.5188 44.626L50.5555 50.6259L64.9256 50.538L64.8889 44.5381ZM53.532 47.8009C53.7358 44.3104 54.784 41.1615 56.6841 38.2986L51.685 34.9807C49.1906 38.7389 47.8071 42.9142 47.5422 47.4511L53.532 47.8009ZM56.6908 38.2885C58.5945 35.3949 61.1263 33.1336 64.3408 31.4877L61.6064 26.147C57.4968 28.2512 54.1691 31.2048 51.6783 34.9908L56.6908 38.2885ZM64.3322 31.4921C67.5942 29.8353 71.0466 29.0228 74.7299 29.0488L74.7721 23.0489C70.1351 23.0162 65.7359 24.0495 61.615 26.1426L64.3322 31.4921ZM74.6946 29.0483C80.4251 29.1559 84.4486 30.7004 87.1784 33.3136L91.3274 28.9794C87.2018 25.03 81.5573 23.1761 74.8073 23.0494L74.6946 29.0483ZM87.1881 33.3229C89.8366 35.8355 91.1273 39.2914 90.7447 44.1379L96.726 44.6101C97.2223 38.3239 95.5248 32.9614 91.3177 28.9701L87.1881 33.3229ZM90.745 44.1337C90.523 46.896 89.6102 49.6393 87.9259 52.3858L93.0409 55.5224C95.1652 52.058 96.4203 48.4145 96.7257 44.6143L90.745 44.1337ZM87.9152 52.4035C86.2189 55.2129 83.6739 58.2739 80.198 61.5802L84.3333 65.9276C88.0644 62.3785 90.9978 58.9062 93.0516 55.5047L87.9152 52.4035ZM80.2332 61.5473L73.5535 67.6996L77.6184 72.1129L84.2981 65.9605L80.2332 61.5473ZM73.5032 67.7471L63.5715 77.3271L67.7371 81.6455L77.6687 72.0654L73.5032 67.7471ZM65.6434 82.4863L89.8133 82.5742L89.8351 76.5742L65.6652 76.4863L65.6434 82.4863ZM86.8608 79.1069L85.0591 90.5327L90.9858 91.4673L92.7876 80.0415L86.8608 79.1069ZM101.294 59.5352L98.3998 58.7451L97.5876 61.7205L100.584 62.45L101.294 59.5352ZM110.171 27.0156V24.0156H107.88L107.277 26.2256L110.171 27.0156ZM146.646 27.0156L149.608 27.4905L150.165 24.0156H146.646V27.0156ZM144.8 38.5293V41.5293H147.357L147.762 39.0042L144.8 38.5293ZM120.322 38.5293V35.5293H118.103L117.453 37.6519L120.322 38.5293ZM116.411 51.3174L113.542 50.44L111.151 58.2594L118.032 53.8419L116.411 51.3174ZM125.244 48.9443V45.9443H125.219L125.194 45.9448L125.244 48.9443ZM138.208 54.7891L135.836 56.626L135.845 56.637L138.208 54.7891ZM141.987 70.082L138.998 69.8317L138.997 69.8396L141.987 70.082ZM134.385 85.9902L136.388 88.2237L136.396 88.2165L134.385 85.9902ZM117.905 91.9229L117.836 94.922L117.843 94.9222L117.851 94.9224L117.905 91.9229ZM107.578 89.2861L106.147 91.9227L106.157 91.9283L107.578 89.2861ZM100.415 82.4746L97.8265 83.9911L97.8333 84.0026L100.415 82.4746ZM97.9102 72.7627V69.7627H94.9346L94.9103 72.7381L97.9102 72.7627ZM112.324 72.7627L115.323 72.6858L115.248 69.7627H112.324V72.7627ZM118.608 80.4092L118.718 77.4112L118.708 77.4108L118.698 77.4105L118.608 80.4092ZM124.585 77.7285L126.878 79.6631L126.885 79.6544L126.893 79.6456L124.585 77.7285ZM127.617 69.0713L130.598 69.41L130.602 69.3753L130.605 69.3405L127.617 69.0713ZM126.299 61.6885L123.829 63.3917L123.836 63.4017L123.843 63.4118L126.299 61.6885ZM113.027 62.3916L112.318 65.3065L114.038 65.7253L115.236 64.4215L113.027 62.3916ZM104.188 60.3252L113.065 27.8056L107.277 26.2256L98.3998 58.7451L104.188 60.3252ZM110.171 30.0156H146.646V24.0156H110.171V30.0156ZM143.683 26.5408L141.838 38.0544L147.762 39.0042L149.608 27.4905L143.683 26.5408ZM144.8 35.5293H120.322V41.5293H144.8V35.5293ZM117.453 37.6519L113.542 50.44L119.28 52.1948L123.191 39.4067L117.453 37.6519ZM118.032 53.8419C119.832 52.686 122.199 51.9955 125.294 51.9439L125.194 45.9448C121.258 46.0104 117.736 46.9019 114.79 48.7928L118.032 53.8419ZM125.244 51.9443C130.09 51.9443 133.472 53.5733 135.836 56.6259L140.58 52.9522C136.909 48.2118 131.648 45.9443 125.244 45.9443V51.9443ZM135.845 56.637C138.307 59.7862 139.48 64.0693 138.998 69.8317L144.977 70.3323C145.549 63.4971 144.203 57.5849 140.571 52.9411L135.845 56.637ZM138.997 69.8396C138.527 75.6371 136.308 80.2109 132.374 83.7639L136.396 88.2165C141.544 83.5665 144.393 77.5348 144.977 70.3245L138.997 69.8396ZM132.382 83.7568C128.44 87.2921 123.695 89.0276 117.96 88.9233L117.851 94.9224C125.007 95.0525 131.248 92.8329 136.388 88.2237L132.382 83.7568ZM117.975 88.9237C114.633 88.8459 111.659 88.0742 108.999 86.6439L106.157 91.9283C109.708 93.8379 113.619 94.824 117.836 94.922L117.975 88.9237ZM109.009 86.6496C106.385 85.2251 104.406 83.3276 102.997 80.9466L97.8333 84.0026C99.8226 87.3638 102.618 90.0073 106.147 91.9227L109.009 86.6496ZM103.004 80.9581C101.595 78.5547 100.885 75.8557 100.91 72.7873L94.9103 72.7381C94.8768 76.8181 95.8362 80.5937 97.8266 83.9911L103.004 80.9581ZM97.9102 75.7627H112.324V69.7627H97.9102V75.7627ZM109.325 72.8396C109.395 75.5745 110.09 78.0908 111.681 80.1115L116.395 76.4002C115.818 75.667 115.37 74.5212 115.323 72.6858L109.325 72.8396ZM111.681 80.1115C113.385 82.2759 115.789 83.3263 118.519 83.4078L118.698 77.4105C117.502 77.3748 116.859 76.9897 116.395 76.4002L111.681 80.1115ZM118.499 83.4072C121.845 83.5296 124.715 82.2262 126.878 79.6631L122.292 75.7939C121.291 76.9809 120.177 77.4646 118.718 77.4112L118.499 83.4072ZM126.893 79.6456C129.005 77.1029 130.127 73.5524 130.598 69.41L124.636 68.7326C124.228 72.3246 123.329 74.5456 122.277 75.8115L126.893 79.6456ZM130.605 69.3405C130.926 65.7808 130.516 62.4753 128.754 59.9652L123.843 63.4118C124.425 64.2415 124.895 65.8579 124.629 68.8021L130.605 69.3405ZM128.768 59.9853C126.917 57.3001 124.05 56.1396 120.806 56.1396V62.1396C122.542 62.1396 123.337 62.6784 123.829 63.3917L128.768 59.9853ZM120.806 56.1396C116.852 56.1396 113.43 57.5193 110.818 60.3617L115.236 64.4215C116.609 62.9279 118.373 62.1396 120.806 62.1396V56.1396ZM113.737 59.4767L102.004 56.6203L100.584 62.45L112.318 65.3065L113.737 59.4767Z" fill="#EF3829"/>
</g>
<defs>
<filter id="filter0_f" x="8" y="81" width="156" height="26" filterUnits="userSpaceOnUse" color-interpolation-filters="sRGB">
<feFlood flood-opacity="0" result="BackgroundImageFix"/>
<feBlend mode="normal" in="SourceGraphic" in2="BackgroundImageFix" result="shape"/>
<feGaussianBlur stdDeviation="5" result="effect1_foregroundBlur"/>
</filter>
<clipPath id="clip0">
<rect width="277" height="105.82" fill="white"/>
</clipPath>
</defs>
</svg>
