<svg width="277" height="106" viewBox="0 0 277 106" fill="none" xmlns="http://www.w3.org/2000/svg">
<g clip-path="url(#clip0)">
<g filter="url(#filter0_f)">
<ellipse cx="86" cy="94" rx="68" ry="3" fill="#C4C4C4" fill-opacity="0.5"/>
</g>
<path d="M162.71 87.3779C161.909 88.3154 160.742 89.043 159.209 89.5605C157.676 90.0684 155.977 90.3076 154.111 90.2783C152.324 90.2588 150.815 89.8096 149.585 88.9307C148.354 88.0518 147.476 86.8262 146.948 85.2539C146.421 83.6816 146.279 81.9092 146.523 79.9365L146.641 79.0576C147.09 75.7471 148.252 73.125 150.127 71.1914C152.012 69.2578 154.316 68.3154 157.041 68.3643C159.424 68.4033 161.255 69.043 162.534 70.2832C163.813 71.5234 164.526 73.3154 164.673 75.6592L159.868 75.6445C159.8 74.502 159.517 73.667 159.019 73.1396C158.53 72.6123 157.832 72.334 156.924 72.3047C155.576 72.2559 154.463 72.7881 153.584 73.9014C152.705 75.0049 152.104 76.5869 151.782 78.6475C151.509 80.4053 151.411 81.7725 151.489 82.749C151.636 85.1025 152.695 86.2939 154.668 86.3232C155.859 86.3428 156.904 86.0547 157.803 85.459L158.462 82.1338H154.99L155.605 78.6035H164.087L162.71 87.3779ZM170.356 90H165.347L169.053 68.6719H174.048L170.356 90ZM191.626 87.3779C190.825 88.3154 189.658 89.043 188.125 89.5605C186.592 90.0684 184.893 90.3076 183.027 90.2783C181.24 90.2588 179.731 89.8096 178.501 88.9307C177.271 88.0518 176.392 86.8262 175.864 85.2539C175.337 83.6816 175.195 81.9092 175.439 79.9365L175.557 79.0576C176.006 75.7471 177.168 73.125 179.043 71.1914C180.928 69.2578 183.232 68.3154 185.957 68.3643C188.34 68.4033 190.171 69.043 191.45 70.2832C192.729 71.5234 193.442 73.3154 193.589 75.6592L188.784 75.6445C188.716 74.502 188.433 73.667 187.935 73.1396C187.446 72.6123 186.748 72.334 185.84 72.3047C184.492 72.2559 183.379 72.7881 182.5 73.9014C181.621 75.0049 181.021 76.5869 180.698 78.6475C180.425 80.4053 180.327 81.7725 180.405 82.749C180.552 85.1025 181.611 86.2939 183.584 86.3232C184.775 86.3428 185.82 86.0547 186.719 85.459L187.378 82.1338H183.906L184.521 78.6035H193.003L191.626 87.3779ZM206.45 86.0156H199.639L197.749 90H192.227L203.521 68.6719H208.237L212.178 90H206.963L206.45 86.0156ZM201.514 82.0459H205.938L205 74.6924L201.514 82.0459ZM225.625 84.2285C225.84 83.125 225.244 82.2705 223.838 81.665L221.436 80.6689C218.066 79.1553 216.465 77.0947 216.631 74.4873C216.699 73.2959 217.109 72.2363 217.861 71.3086C218.613 70.3711 219.653 69.6436 220.981 69.126C222.31 68.6084 223.76 68.3594 225.332 68.3789C227.441 68.418 229.136 69.0332 230.415 70.2246C231.704 71.416 232.339 73.0127 232.319 75.0146H227.339C227.368 74.1943 227.192 73.54 226.812 73.0518C226.44 72.5537 225.825 72.2949 224.966 72.2754C224.126 72.2559 223.384 72.4512 222.739 72.8613C222.095 73.2715 221.714 73.8232 221.597 74.5166C221.411 75.4932 222.134 76.2939 223.765 76.9189C225.405 77.5439 226.597 78.0811 227.339 78.5303C229.673 79.9268 230.767 81.8115 230.62 84.1846C230.542 85.415 230.146 86.4941 229.434 87.4219C228.721 88.3496 227.729 89.0674 226.46 89.5752C225.2 90.083 223.784 90.3271 222.212 90.3076C221.06 90.2881 219.99 90.1074 219.004 89.7656C218.018 89.4238 217.173 88.9258 216.47 88.2715C215.044 86.9531 214.36 85.2197 214.419 83.0713L219.443 83.0859C219.385 84.1797 219.595 85.0098 220.073 85.5762C220.552 86.1328 221.357 86.4111 222.49 86.4111C223.33 86.4111 224.028 86.2207 224.585 85.8398C225.151 85.4492 225.498 84.9121 225.625 84.2285Z" fill="#BBBBBB"/>
<path d="M63.7207 52.8115L70.1807 52.8555C72.8174 52.7969 74.9854 52.0352 76.6846 50.5703C78.3838 49.0762 79.3945 46.9961 79.7168 44.3301C79.9512 42.3379 79.5557 40.6973 78.5303 39.4082C77.5049 38.1191 75.9668 37.46 73.916 37.4307C72.0117 37.3721 70.3271 37.8994 68.8623 39.0127C67.3975 40.126 66.46 41.6055 66.0498 43.4512L51.5479 43.5391C51.7236 40.082 52.8369 37.0205 54.8877 34.3545C56.9385 31.6885 59.6631 29.6377 63.0615 28.2021C66.4893 26.7373 70.166 26.0195 74.0918 26.0488C80.5371 26.1953 85.6055 27.8945 89.2969 31.1465C92.9883 34.3691 94.6729 38.6758 94.3506 44.0664C93.9697 50.1016 90.0293 54.877 82.5293 58.3926C85.3711 59.7988 87.4951 61.7471 88.9014 64.2373C90.3076 66.7275 90.9375 69.54 90.791 72.6748C90.5859 76.6006 89.3408 80.0283 87.0557 82.958C84.7705 85.8584 81.709 88.0996 77.8711 89.6816C74.0332 91.2344 69.917 91.9668 65.5225 91.8789C61.6846 91.8496 58.1982 91.0439 55.0635 89.4619C51.958 87.8506 49.5703 85.6387 47.9004 82.8262C46.2305 80.0137 45.4102 76.791 45.4395 73.1582H59.8535C59.8828 75.2383 60.498 76.9521 61.6992 78.2998C62.9004 79.6475 64.585 80.3506 66.7529 80.4092C69.1846 80.4678 71.3379 79.75 73.2129 78.2559C75.0879 76.7617 76.2012 74.7988 76.5527 72.3672C76.9043 69.7598 76.5088 67.7236 75.3662 66.2588C74.2529 64.7646 72.3779 63.9736 69.7412 63.8857L62.0068 63.8418L63.7207 52.8115ZM140.405 26.0488L139.263 37.7383H137.944C132.964 37.7969 128.584 39.1152 124.805 41.6934C121.055 44.2715 118.066 47.9922 115.84 52.8555C119.443 49.4277 123.647 47.7725 128.452 47.8896C131.88 47.9482 134.78 48.9297 137.153 50.834C139.526 52.709 141.27 55.3164 142.383 58.6562C143.525 61.9668 143.936 65.585 143.613 69.5107C143.291 73.4658 142.09 77.1279 140.01 80.4971C137.93 83.8662 135.19 86.5615 131.792 88.583C127.896 90.8975 123.721 92.0107 119.268 91.9229C114.902 91.8643 111.138 90.6924 107.974 88.4072C104.81 86.1221 102.495 83.0166 101.03 79.0908C99.5654 75.1357 99.082 70.8145 99.5801 66.127L100.239 60.7217C101.089 54.2471 103.242 48.3584 106.699 43.0557C110.186 37.7236 114.639 33.5781 120.059 30.6191C125.508 27.6309 131.396 26.1074 137.725 26.0488H140.405ZM122.871 59.1396C119.59 59.0225 116.763 60.5898 114.39 63.8418C113.833 67.9434 113.555 70.7559 113.555 72.2793C113.555 74.8574 114.082 76.8643 115.137 78.2998C116.191 79.7061 117.715 80.4238 119.707 80.4531C122.637 80.5117 125.01 79.0469 126.826 76.0586C128.672 73.041 129.419 69.6865 129.067 65.9951C128.862 63.9443 128.218 62.3037 127.134 61.0732C126.05 59.8135 124.629 59.1689 122.871 59.1396Z" fill="#EF3829"/>
<path d="M63.7207 52.8115L63.7411 49.8116L61.1536 49.794L60.7563 52.3509L63.7207 52.8115ZM70.1807 52.8555L70.1603 55.8554L70.2038 55.8557L70.2473 55.8547L70.1807 52.8555ZM76.6846 50.5703L78.6434 52.8425L78.6545 52.8329L78.6656 52.8232L76.6846 50.5703ZM79.7168 44.3301L82.6951 44.6901L82.6962 44.6806L79.7168 44.3301ZM73.916 37.4307L73.8238 40.4292L73.8485 40.43L73.8732 40.4304L73.916 37.4307ZM66.0498 43.4512L66.068 46.4511L68.4596 46.4366L68.9784 44.102L66.0498 43.4512ZM51.5479 43.5391L48.5517 43.3867L48.3905 46.5583L51.566 46.539L51.5479 43.5391ZM63.0615 28.2021L64.2289 30.9657L64.2404 30.9608L63.0615 28.2021ZM74.0918 26.0488L74.16 23.0496L74.1371 23.0491L74.1142 23.0489L74.0918 26.0488ZM89.2969 31.1465L87.3138 33.3976L87.3239 33.4064L89.2969 31.1465ZM94.3506 44.0664L97.3446 44.2554L97.3452 44.2454L94.3506 44.0664ZM82.5293 58.3926L81.256 55.6762L75.6172 58.3194L81.1988 61.0814L82.5293 58.3926ZM90.791 72.6748L93.7869 72.8313L93.7874 72.8231L93.7877 72.8148L90.791 72.6748ZM87.0557 82.958L89.4121 84.8146L89.4167 84.8089L89.4212 84.8031L87.0557 82.958ZM77.8711 89.6816L78.9962 92.4627L79.0053 92.459L79.0144 92.4552L77.8711 89.6816ZM65.5225 91.8789L65.5824 88.8795L65.5639 88.8791L65.5454 88.879L65.5225 91.8789ZM55.0635 89.4619L53.6818 92.1248L53.6968 92.1326L53.7118 92.1402L55.0635 89.4619ZM45.4395 73.1582V70.1582H42.4635L42.4396 73.134L45.4395 73.1582ZM59.8535 73.1582L62.8532 73.116L62.8116 70.1582H59.8535V73.1582ZM66.7529 80.4092L66.6719 83.4081L66.6807 83.4083L66.7529 80.4092ZM76.5527 72.3672L79.5219 72.7965L79.5239 72.7823L79.5258 72.7681L76.5527 72.3672ZM75.3662 66.2588L72.9606 68.0512L72.9803 68.0778L73.0007 68.1039L75.3662 66.2588ZM69.7412 63.8857L69.8412 60.8874L69.7997 60.886L69.7583 60.8858L69.7412 63.8857ZM62.0068 63.8418L59.0424 63.3812L58.5078 66.822L61.9898 66.8417L62.0068 63.8418ZM63.7003 55.8115L70.1603 55.8554L70.2011 49.8555L63.7411 49.8116L63.7003 55.8115ZM70.2473 55.8547C73.452 55.7835 76.3275 54.839 78.6434 52.8425L74.7258 48.2981C73.6432 49.2313 72.1828 49.8102 70.114 49.8562L70.2473 55.8547ZM78.6656 52.8232C81.0189 50.7539 82.3018 47.9438 82.6951 44.6901L76.7385 43.9701C76.4872 46.0484 75.7487 47.3984 74.7036 48.3174L78.6656 52.8232ZM82.6962 44.6806C83.0023 42.0789 82.506 39.5871 80.8781 37.5406L76.1825 41.2758C76.6054 41.8074 76.9 42.5969 76.7373 43.9796L82.6962 44.6806ZM80.8781 37.5406C79.1584 35.3787 76.6678 34.4697 73.9589 34.431L73.8732 40.4304C75.2658 40.4503 75.8514 40.8596 76.1825 41.2758L80.8781 37.5406ZM74.0083 34.4321C71.4435 34.3532 69.0798 35.0794 67.0471 36.6242L70.6776 41.4012C71.5745 40.7195 72.58 40.391 73.8238 40.4292L74.0083 34.4321ZM67.0471 36.6242C65.0005 38.1796 63.6807 40.2829 63.1212 42.8004L68.9784 44.102C69.2392 42.928 69.7945 42.0723 70.6776 41.4012L67.0471 36.6242ZM66.0316 40.4512L51.5297 40.5391L51.566 46.539L66.068 46.4511L66.0316 40.4512ZM54.544 43.6914C54.6898 40.8243 55.5978 38.3517 57.2656 36.1836L52.5098 32.5254C50.076 35.6893 48.7575 39.3398 48.5517 43.3867L54.544 43.6914ZM57.2656 36.1836C58.9704 33.9674 61.2605 32.2196 64.2289 30.9657L61.8942 25.4386C58.0657 27.0558 54.9066 29.4096 52.5098 32.5254L57.2656 36.1836ZM64.2404 30.9608C67.2686 29.6667 70.534 29.0224 74.0694 29.0487L74.1142 23.0489C69.798 23.0167 65.71 23.8079 61.8826 25.4435L64.2404 30.9608ZM74.0236 29.0481C79.9848 29.1835 84.2985 30.7413 87.3138 33.3976L91.28 28.8954C86.9124 25.0478 81.0894 23.2071 74.16 23.0496L74.0236 29.0481ZM87.3239 33.4064C90.2374 35.95 91.6293 39.3155 91.3559 43.8874L97.3452 44.2454C97.7165 38.036 95.7391 32.7883 91.2698 28.8865L87.3239 33.4064ZM91.3565 43.8775C91.0695 48.4254 88.1814 52.4299 81.256 55.6762L83.8026 61.109C91.8772 57.324 96.8699 51.7777 97.3446 44.2554L91.3565 43.8775ZM81.1988 61.0814C83.5623 62.251 85.2105 63.8025 86.2891 65.7125L91.5136 62.7621C89.7797 59.6917 87.1799 57.3467 83.8598 55.7038L81.1988 61.0814ZM86.2891 65.7125C87.3911 67.6639 87.9171 69.907 87.7943 72.5348L93.7877 72.8148C93.9579 69.1731 93.2241 65.7912 91.5136 62.7621L86.2891 65.7125ZM87.7951 72.5183C87.6201 75.8676 86.5745 78.6971 84.6902 81.1129L89.4212 84.8031C92.1072 81.3595 93.5517 77.3335 93.7869 72.8313L87.7951 72.5183ZM84.6992 81.1014C82.771 83.5487 80.1495 85.4976 76.7278 86.908L79.0144 92.4552C83.2684 90.7017 86.77 88.1681 89.4121 84.8146L84.6992 81.1014ZM76.7459 86.9006C73.3071 88.2919 69.5966 88.9598 65.5824 88.8795L65.4625 94.8783C70.2373 94.9738 74.7593 94.1768 78.9962 92.4627L76.7459 86.9006ZM65.5454 88.879C62.1256 88.8529 59.1003 88.1388 56.4151 86.7837L53.7118 92.1402C57.2961 93.9491 61.2436 94.8463 65.4996 94.8788L65.5454 88.879ZM56.4452 86.799C53.8007 85.4269 51.8439 83.5918 50.48 81.2946L45.3208 84.3578C47.2967 87.6856 50.1153 90.2743 53.6818 92.1248L56.4452 86.799ZM50.48 81.2946C49.1196 79.0034 48.414 76.3303 48.4394 73.1824L42.4396 73.134C42.4063 77.2518 43.3413 81.0239 45.3208 84.3578L50.48 81.2946ZM45.4395 76.1582H59.8535V70.1582H45.4395V76.1582ZM56.8538 73.2005C56.8916 75.8854 57.7061 78.3285 59.4597 80.2959L63.9388 76.3037C63.29 75.5758 62.874 74.5911 62.8532 73.116L56.8538 73.2005ZM59.4597 80.2959C61.3206 82.3838 63.8568 83.332 66.6719 83.4081L66.834 77.4103C65.3131 77.3692 64.4802 76.9112 63.9388 76.3037L59.4597 80.2959ZM66.6807 83.4083C69.805 83.4836 72.6482 82.5419 75.0825 80.602L71.3433 75.9097C70.0276 76.9581 68.5642 77.452 66.8252 77.4101L66.6807 83.4083ZM75.0825 80.602C77.5708 78.6192 79.0641 75.9629 79.5219 72.7965L73.5836 71.9379C73.3383 73.6347 72.605 74.9042 71.3433 75.9097L75.0825 80.602ZM79.5258 72.7681C79.9397 69.6983 79.547 66.741 77.7317 64.4137L73.0007 68.1039C73.4705 68.7062 73.8689 69.8212 73.5796 71.9663L79.5258 72.7681ZM77.7719 64.4663C75.9132 61.9719 72.992 60.9924 69.8412 60.8874L69.6413 66.8841C71.7638 66.9548 72.5926 67.5574 72.9606 68.0512L77.7719 64.4663ZM69.7583 60.8858L62.0239 60.8418L61.9898 66.8417L69.7242 66.8857L69.7583 60.8858ZM64.9713 64.3024L66.6851 53.2721L60.7563 52.3509L59.0424 63.3812L64.9713 64.3024ZM140.405 26.0488L143.391 26.3407L143.713 23.0488H140.405V26.0488ZM139.263 37.7383V40.7383H141.984L142.248 38.0301L139.263 37.7383ZM137.944 37.7383V34.7383H137.927L137.909 34.7385L137.944 37.7383ZM124.805 41.6934L123.114 39.2151L123.105 39.2212L124.805 41.6934ZM115.84 52.8555L113.112 51.6066L117.907 55.0291L115.84 52.8555ZM128.452 47.8896L128.379 50.8888L128.39 50.889L128.401 50.8892L128.452 47.8896ZM137.153 50.834L135.276 53.1738L135.285 53.1809L135.293 53.1879L137.153 50.834ZM142.383 58.6562L139.537 59.6049L139.542 59.62L139.547 59.635L142.383 58.6562ZM143.613 69.5107L140.623 69.2653L140.623 69.2671L143.613 69.5107ZM131.792 88.583L133.324 91.1623L133.326 91.1614L131.792 88.583ZM119.268 91.9229L119.327 88.9234L119.317 88.9232L119.308 88.9231L119.268 91.9229ZM101.03 79.0908L98.217 80.1328L98.2196 80.1396L101.03 79.0908ZM99.5801 66.127L96.6021 65.7638L96.5993 65.7869L96.5969 65.81L99.5801 66.127ZM100.239 60.7217L97.2648 60.3314L97.263 60.3449L97.2613 60.3585L100.239 60.7217ZM106.699 43.0557L104.188 41.4139L104.186 41.4173L106.699 43.0557ZM120.059 30.6191L121.496 33.2523L121.501 33.2496L120.059 30.6191ZM137.725 26.0488V23.0488H137.711L137.697 23.049L137.725 26.0488ZM122.871 59.1396L122.764 62.1377L122.793 62.1388L122.821 62.1392L122.871 59.1396ZM114.39 63.8418L111.966 62.0734L111.519 62.6864L111.417 63.4384L114.39 63.8418ZM115.137 78.2998L112.719 80.076L112.728 80.088L112.737 80.0998L115.137 78.2998ZM119.707 80.4531L119.767 77.4537L119.759 77.4536L119.751 77.4534L119.707 80.4531ZM126.826 76.0586L124.267 74.4932L124.263 74.5003L126.826 76.0586ZM129.067 65.9951L132.054 65.7107L132.053 65.7036L132.052 65.6966L129.067 65.9951ZM127.134 61.0732L124.86 63.03L124.871 63.0432L124.883 63.0563L127.134 61.0732ZM137.42 25.757L136.277 37.4464L142.248 38.0301L143.391 26.3407L137.42 25.757ZM139.263 34.7383H137.944V40.7383H139.263V34.7383ZM137.909 34.7385C132.392 34.8034 127.425 36.2742 123.114 39.2151L126.495 44.1716C129.743 41.9562 133.535 40.7904 137.98 40.7381L137.909 34.7385ZM123.105 39.2212C118.835 42.1569 115.524 46.3375 113.112 51.6066L118.568 54.1043C120.608 49.6468 123.274 46.3861 126.504 44.1655L123.105 39.2212ZM117.907 55.0291C120.957 52.128 124.399 50.7917 128.379 50.8888L128.525 44.8905C122.895 44.7532 117.929 46.7274 113.772 50.6818L117.907 55.0291ZM128.401 50.8892C131.252 50.938 133.487 51.7381 135.276 53.1738L139.031 48.4942C136.074 46.1213 132.508 44.9585 128.503 44.8901L128.401 50.8892ZM135.293 53.1879C137.137 54.6442 138.577 56.7265 139.537 59.6049L145.229 57.7076C143.962 53.9063 141.916 50.7738 139.013 48.4801L135.293 53.1879ZM139.547 59.635C140.538 62.5063 140.916 65.7021 140.623 69.2653L146.603 69.7562C146.955 65.4678 146.513 61.4273 145.219 57.6775L139.547 59.635ZM140.623 69.2671C140.339 72.7508 139.288 75.9562 137.457 78.9211L142.562 82.0731C144.892 78.2997 146.243 74.1808 146.603 69.7544L140.623 69.2671ZM137.457 78.9211C135.631 81.8794 133.241 84.2307 130.258 86.0047L133.326 91.1614C137.14 88.8924 140.229 85.853 142.562 82.0731L137.457 78.9211ZM130.26 86.0037C126.835 88.0378 123.21 89.0001 119.327 88.9234L119.208 94.9223C124.231 95.0214 128.956 93.7571 133.324 91.1623L130.26 86.0037ZM119.308 88.9231C115.483 88.8718 112.336 87.857 109.73 85.9752L106.217 90.8393C109.94 93.5278 114.321 94.8567 119.227 94.9226L119.308 88.9231ZM109.73 85.9752C107.082 84.0627 105.115 81.4556 103.841 78.042L98.2196 80.1396C99.8755 84.5776 102.537 88.1814 106.217 90.8393L109.73 85.9752ZM103.844 78.0489C102.557 74.5764 102.108 70.7261 102.563 66.4439L96.5969 65.81C96.0558 70.9028 96.5734 75.6951 98.217 80.1328L103.844 78.0489ZM102.558 66.4901L103.217 61.0848L97.2613 60.3585L96.6021 65.7638L102.558 66.4901ZM103.214 61.112C104.007 55.0682 106.008 49.6085 109.212 44.694L104.186 41.4173C100.476 47.1083 98.1709 53.4259 97.2648 60.3314L103.214 61.112ZM109.21 44.6974C112.435 39.7656 116.524 35.9666 121.496 33.2523L118.621 27.986C112.753 31.1896 107.936 35.6816 104.188 41.4139L109.21 44.6974ZM121.501 33.2496C126.508 30.5037 131.91 29.1028 137.752 29.0487L137.697 23.049C130.883 23.112 124.507 24.758 118.616 27.9887L121.501 33.2496ZM137.725 29.0488H140.405V23.0488H137.725V29.0488ZM122.978 56.1416C118.47 55.9806 114.775 58.2239 111.966 62.0734L116.813 65.6102C118.75 62.9558 120.709 62.0644 122.764 62.1377L122.978 56.1416ZM111.417 63.4384C110.863 67.5211 110.555 70.5248 110.555 72.2793H116.555C116.555 70.987 116.803 68.3656 117.362 64.2452L111.417 63.4384ZM110.555 72.2793C110.555 75.2216 111.151 77.9411 112.719 80.076L117.554 76.5236C117.013 75.7874 116.555 74.4932 116.555 72.2793H110.555ZM112.737 80.0998C114.428 82.355 116.883 83.4119 119.663 83.4528L119.751 77.4534C118.547 77.4357 117.955 77.0571 117.537 76.4998L112.737 80.0998ZM119.647 83.4525C123.869 83.537 127.145 81.3099 129.39 77.6168L124.263 74.5003C122.875 76.7839 121.404 77.4865 119.767 77.4537L119.647 83.4525ZM129.385 77.6239C131.587 74.0243 132.464 70.0153 132.054 65.7107L126.081 66.2795C126.374 69.3578 125.757 72.0577 124.267 74.4932L129.385 77.6239ZM132.052 65.6966C131.801 63.183 130.98 60.9003 129.385 59.0902L124.883 63.0563C125.456 63.7071 125.923 64.7057 126.082 66.2936L132.052 65.6966ZM129.408 59.1165C127.73 57.1663 125.479 56.1827 122.921 56.1401L122.821 62.1392C123.779 62.1552 124.37 62.4606 124.86 63.03L129.408 59.1165Z" fill="#EF3829"/>
</g>
<defs>
<filter id="filter0_f" x="8" y="81" width="156" height="26" filterUnits="userSpaceOnUse" color-interpolation-filters="sRGB">
<feFlood flood-opacity="0" result="BackgroundImageFix"/>
<feBlend mode="normal" in="SourceGraphic" in2="BackgroundImageFix" result="shape"/>
<feGaussianBlur stdDeviation="5" result="effect1_foregroundBlur"/>
</filter>
<clipPath id="clip0">
<rect width="277" height="105.82" fill="white"/>
</clipPath>
</defs>
</svg>
