<svg width="277" height="106" viewBox="0 0 277 106" fill="none" xmlns="http://www.w3.org/2000/svg">
<g clip-path="url(#clip0)">
<g filter="url(#filter0_f)">
<ellipse cx="86" cy="94" rx="68" ry="3" fill="#C4C4C4" fill-opacity="0.5"/>
</g>
<path d="M162.71 87.3779C161.909 88.3154 160.742 89.043 159.209 89.5605C157.676 90.0684 155.977 90.3076 154.111 90.2783C152.324 90.2588 150.815 89.8096 149.585 88.9307C148.354 88.0518 147.476 86.8262 146.948 85.2539C146.421 83.6816 146.279 81.9092 146.523 79.9365L146.641 79.0576C147.09 75.7471 148.252 73.125 150.127 71.1914C152.012 69.2578 154.316 68.3154 157.041 68.3643C159.424 68.4033 161.255 69.043 162.534 70.2832C163.813 71.5234 164.526 73.3154 164.673 75.6592L159.868 75.6445C159.8 74.502 159.517 73.667 159.019 73.1396C158.53 72.6123 157.832 72.334 156.924 72.3047C155.576 72.2559 154.463 72.7881 153.584 73.9014C152.705 75.0049 152.104 76.5869 151.782 78.6475C151.509 80.4053 151.411 81.7725 151.489 82.749C151.636 85.1025 152.695 86.2939 154.668 86.3232C155.859 86.3428 156.904 86.0547 157.803 85.459L158.462 82.1338H154.99L155.605 78.6035H164.087L162.71 87.3779ZM170.356 90H165.347L169.053 68.6719H174.048L170.356 90ZM191.626 87.3779C190.825 88.3154 189.658 89.043 188.125 89.5605C186.592 90.0684 184.893 90.3076 183.027 90.2783C181.24 90.2588 179.731 89.8096 178.501 88.9307C177.271 88.0518 176.392 86.8262 175.864 85.2539C175.337 83.6816 175.195 81.9092 175.439 79.9365L175.557 79.0576C176.006 75.7471 177.168 73.125 179.043 71.1914C180.928 69.2578 183.232 68.3154 185.957 68.3643C188.34 68.4033 190.171 69.043 191.45 70.2832C192.729 71.5234 193.442 73.3154 193.589 75.6592L188.784 75.6445C188.716 74.502 188.433 73.667 187.935 73.1396C187.446 72.6123 186.748 72.334 185.84 72.3047C184.492 72.2559 183.379 72.7881 182.5 73.9014C181.621 75.0049 181.021 76.5869 180.698 78.6475C180.425 80.4053 180.327 81.7725 180.405 82.749C180.552 85.1025 181.611 86.2939 183.584 86.3232C184.775 86.3428 185.82 86.0547 186.719 85.459L187.378 82.1338H183.906L184.521 78.6035H193.003L191.626 87.3779ZM206.45 86.0156H199.639L197.749 90H192.227L203.521 68.6719H208.237L212.178 90H206.963L206.45 86.0156ZM201.514 82.0459H205.938L205 74.6924L201.514 82.0459ZM225.625 84.2285C225.84 83.125 225.244 82.2705 223.838 81.665L221.436 80.6689C218.066 79.1553 216.465 77.0947 216.631 74.4873C216.699 73.2959 217.109 72.2363 217.861 71.3086C218.613 70.3711 219.653 69.6436 220.981 69.126C222.31 68.6084 223.76 68.3594 225.332 68.3789C227.441 68.418 229.136 69.0332 230.415 70.2246C231.704 71.416 232.339 73.0127 232.319 75.0146H227.339C227.368 74.1943 227.192 73.54 226.812 73.0518C226.44 72.5537 225.825 72.2949 224.966 72.2754C224.126 72.2559 223.384 72.4512 222.739 72.8613C222.095 73.2715 221.714 73.8232 221.597 74.5166C221.411 75.4932 222.134 76.2939 223.765 76.9189C225.405 77.5439 226.597 78.0811 227.339 78.5303C229.673 79.9268 230.767 81.8115 230.62 84.1846C230.542 85.415 230.146 86.4941 229.434 87.4219C228.721 88.3496 227.729 89.0674 226.46 89.5752C225.2 90.083 223.784 90.3271 222.212 90.3076C221.06 90.2881 219.99 90.1074 219.004 89.7656C218.018 89.4238 217.173 88.9258 216.47 88.2715C215.044 86.9531 214.36 85.2197 214.419 83.0713L219.443 83.0859C219.385 84.1797 219.595 85.0098 220.073 85.5762C220.552 86.1328 221.357 86.4111 222.49 86.4111C223.33 86.4111 224.028 86.2207 224.585 85.8398C225.151 85.4492 225.498 84.9121 225.625 84.2285Z" fill="#BBBBBB"/>
<path d="M50.3174 59.5352L59.1943 27.0156H95.6689L93.8232 38.5293H69.3457L65.4346 51.3174C67.8076 49.7939 70.752 49.0029 74.2676 48.9443C79.8926 48.9443 84.2139 50.8926 87.2314 54.7891C90.2783 58.6855 91.5381 63.7832 91.0107 70.082C90.4834 76.5859 87.9492 81.8887 83.4082 85.9902C78.8672 90.0625 73.374 92.04 66.9287 91.9229C63.1494 91.835 59.707 90.9561 56.6016 89.2861C53.5254 87.6162 51.1377 85.3457 49.4385 82.4746C47.7393 79.5742 46.9043 76.3369 46.9336 72.7627H61.3477C61.4062 75.0479 61.9775 76.8789 63.0615 78.2559C64.1455 79.6328 65.6689 80.3506 67.6318 80.4092C70.0342 80.4971 72.0264 79.6035 73.6084 77.7285C75.1904 75.8242 76.2012 72.9385 76.6406 69.0713C76.9336 65.8193 76.4941 63.3584 75.3223 61.6885C74.1504 59.9893 72.3193 59.1396 69.8291 59.1396C66.6357 59.1396 64.043 60.2236 62.0508 62.3916L50.3174 59.5352ZM117.554 91.8789C113.921 91.791 110.742 90.9414 108.018 89.3301C105.322 87.6895 103.242 85.3018 101.777 82.167C100.312 79.0029 99.5215 75.4141 99.4043 71.4004C99.3164 69.2324 99.4043 67.0498 99.668 64.8525L101.338 53.6904C102.686 44.6963 105.571 37.8262 109.995 33.0801C114.419 28.3047 120.059 25.9902 126.914 26.1367C132.48 26.2539 136.831 28.1289 139.966 31.7617C143.13 35.3945 144.829 40.3457 145.063 46.6152C145.122 48.7832 145.02 50.9658 144.756 53.1631L142.998 64.5449C141.592 73.6562 138.677 80.5264 134.253 85.1553C129.858 89.7842 124.292 92.0254 117.554 91.8789ZM130.605 51.1855C130.869 49.1348 131.016 47.333 131.045 45.7803C131.045 40.4189 129.346 37.6504 125.947 37.4746C120.732 37.2109 117.495 41.6787 116.235 50.8779L113.906 66.6982C113.613 69.1299 113.467 70.9316 113.467 72.1035C113.32 77.5234 115.005 80.3359 118.521 80.541C123.823 80.8047 127.09 76.2197 128.32 66.7861L130.605 51.1855Z" fill="#EF3829"/>
<path d="M50.3174 59.5352L47.4233 58.7451L46.6111 61.7205L49.6078 62.45L50.3174 59.5352ZM59.1943 27.0156V24.0156H56.9035L56.3002 26.2256L59.1943 27.0156ZM95.6689 27.0156L98.6311 27.4905L99.1882 24.0156H95.6689V27.0156ZM93.8232 38.5293V41.5293H96.3806L96.7854 39.0042L93.8232 38.5293ZM69.3457 38.5293V35.5293H67.1261L66.4769 37.6519L69.3457 38.5293ZM65.4346 51.3174L62.5657 50.44L60.1742 58.2594L67.0553 53.8419L65.4346 51.3174ZM74.2676 48.9443V45.9443H74.2426L74.2176 45.9448L74.2676 48.9443ZM87.2314 54.7891L84.8595 56.626L84.8682 56.637L87.2314 54.7891ZM91.0107 70.082L88.0212 69.8317L88.0206 69.8396L91.0107 70.082ZM83.4082 85.9902L85.4111 88.2237L85.4191 88.2165L83.4082 85.9902ZM66.9287 91.9229L66.859 94.922L66.8666 94.9222L66.8742 94.9224L66.9287 91.9229ZM56.6016 89.2861L55.1703 91.9227L55.1807 91.9283L56.6016 89.2861ZM49.4385 82.4746L46.85 83.9911L46.8567 84.0026L49.4385 82.4746ZM46.9336 72.7627V69.7627H43.9581L43.9337 72.7381L46.9336 72.7627ZM61.3477 72.7627L64.3467 72.6858L64.2717 69.7627H61.3477V72.7627ZM67.6318 80.4092L67.7415 77.4112L67.7314 77.4108L67.7213 77.4105L67.6318 80.4092ZM73.6084 77.7285L75.9013 79.6631L75.9087 79.6544L75.916 79.6456L73.6084 77.7285ZM76.6406 69.0713L79.6214 69.41L79.6254 69.3753L79.6285 69.3405L76.6406 69.0713ZM75.3223 61.6885L72.8526 63.3917L72.8596 63.4017L72.8666 63.4118L75.3223 61.6885ZM62.0508 62.3916L61.3412 65.3065L63.0616 65.7253L64.2598 64.4215L62.0508 62.3916ZM53.2115 60.3252L62.0884 27.8056L56.3002 26.2256L47.4233 58.7451L53.2115 60.3252ZM59.1943 30.0156H95.6689V24.0156H59.1943V30.0156ZM92.7068 26.5408L90.8611 38.0544L96.7854 39.0042L98.6311 27.4905L92.7068 26.5408ZM93.8232 35.5293H69.3457V41.5293H93.8232V35.5293ZM66.4769 37.6519L62.5657 50.44L68.3034 52.1948L72.2145 39.4067L66.4769 37.6519ZM67.0553 53.8419C68.8558 52.686 71.2225 51.9955 74.3176 51.9439L74.2176 45.9448C70.2814 46.0104 66.7594 46.9019 63.8139 48.7928L67.0553 53.8419ZM74.2676 51.9443C79.1135 51.9443 82.4955 53.5733 84.8596 56.6259L89.6033 52.9522C85.9322 48.2118 80.6716 45.9443 74.2676 45.9443V51.9443ZM84.8682 56.637C87.3307 59.7862 88.5036 64.0693 88.0212 69.8317L94.0003 70.3323C94.5725 63.4971 93.226 57.5849 89.5947 52.9411L84.8682 56.637ZM88.0206 69.8396C87.5505 75.6371 85.3311 80.2109 81.3973 83.7639L85.4191 88.2165C90.5674 83.5665 93.4163 77.5348 94.0009 70.3245L88.0206 69.8396ZM81.4053 83.7568C77.463 87.2921 72.7179 89.0276 66.9832 88.9233L66.8742 94.9224C74.0301 95.0525 80.2714 92.8329 85.4111 88.2237L81.4053 83.7568ZM66.9985 88.9237C63.6565 88.8459 60.6822 88.0742 58.0224 86.6439L55.1807 91.9283C58.7319 93.8379 62.6424 94.824 66.859 94.922L66.9985 88.9237ZM58.0328 86.6496C55.4089 85.2251 53.4294 83.3276 52.0202 80.9466L46.8567 84.0026C48.846 87.3638 51.6419 90.0073 55.1703 91.9227L58.0328 86.6496ZM52.027 80.9581C50.6189 78.5547 49.9083 75.8557 49.9335 72.7873L43.9337 72.7381C43.9003 76.8181 44.8596 80.5937 46.85 83.9911L52.027 80.9581ZM46.9336 75.7627H61.3477V69.7627H46.9336V75.7627ZM58.3486 72.8396C58.4188 75.5745 59.1135 78.0908 60.7043 80.1115L65.4187 76.4002C64.8416 75.667 64.3937 74.5212 64.3467 72.6858L58.3486 72.8396ZM60.7043 80.1115C62.4082 82.2759 64.8121 83.3263 67.5423 83.4078L67.7213 77.4105C66.5258 77.3748 65.8828 76.9897 65.4187 76.4002L60.7043 80.1115ZM67.5222 83.4072C70.8681 83.5296 73.7387 82.2262 75.9013 79.6631L71.3155 75.7939C70.314 76.9809 69.2003 77.4646 67.7415 77.4112L67.5222 83.4072ZM75.916 79.6456C78.0284 77.1029 79.1507 73.5524 79.6214 69.41L73.6598 68.7326C73.2516 72.3246 72.3525 74.5456 71.3008 75.8115L75.916 79.6456ZM79.6285 69.3405C79.9492 65.7808 79.5394 62.4753 77.7779 59.9652L72.8666 63.4118C73.4489 64.2415 73.918 65.8579 73.6527 68.8021L79.6285 69.3405ZM77.7919 59.9853C75.9401 57.3001 73.0736 56.1396 69.8291 56.1396V62.1396C71.565 62.1396 72.3607 62.6784 72.8526 63.3917L77.7919 59.9853ZM69.8291 56.1396C65.8755 56.1396 62.4537 57.5193 59.8418 60.3617L64.2598 64.4215C65.6322 62.9279 67.396 62.1396 69.8291 62.1396V56.1396ZM62.7604 59.4767L51.027 56.6203L49.6078 62.45L61.3412 65.3065L62.7604 59.4767ZM117.554 91.8789L117.481 94.878L117.489 94.8782L117.554 91.8789ZM108.018 89.3301L106.458 91.8927L106.474 91.9026L106.49 91.9123L108.018 89.3301ZM101.777 82.167L99.0549 83.4274L99.0594 83.437L101.777 82.167ZM99.4043 71.4004L102.403 71.3128L102.403 71.2958L102.402 71.2789L99.4043 71.4004ZM99.668 64.8525L96.701 64.4087L96.6945 64.4518L96.6893 64.4951L99.668 64.8525ZM101.338 53.6904L98.371 53.2459L98.3709 53.2466L101.338 53.6904ZM109.995 33.0801L112.19 35.1256L112.196 35.1188L109.995 33.0801ZM126.914 26.1367L126.85 29.136L126.851 29.1361L126.914 26.1367ZM139.966 31.7617L137.695 33.7216L137.704 33.7321L139.966 31.7617ZM145.063 46.6152L148.062 46.5342L148.062 46.5187L148.061 46.5032L145.063 46.6152ZM144.756 53.1631L147.721 53.621L147.728 53.5709L147.734 53.5205L144.756 53.1631ZM142.998 64.5449L140.033 64.087L140.033 64.0873L142.998 64.5449ZM134.253 85.1553L132.084 83.0825L132.077 83.0897L134.253 85.1553ZM130.605 51.1855L133.574 51.6203L133.578 51.5943L133.581 51.5681L130.605 51.1855ZM131.045 45.7803L134.044 45.8369L134.045 45.8086V45.7803H131.045ZM125.947 37.4746L126.102 34.4786L126.099 34.4784L125.947 37.4746ZM116.235 50.8779L119.203 51.3149L119.206 51.2999L119.208 51.285L116.235 50.8779ZM113.906 66.6982L110.938 66.2613L110.933 66.3003L110.928 66.3394L113.906 66.6982ZM113.467 72.1035L116.466 72.1846L116.467 72.144V72.1035H113.467ZM118.521 80.541L118.346 83.5359L118.359 83.5367L118.372 83.5373L118.521 80.541ZM128.32 66.7861L125.352 66.3513L125.349 66.3747L125.346 66.3981L128.32 66.7861ZM117.626 88.8798C114.429 88.8024 111.766 88.0617 109.545 86.7479L106.49 91.9123C109.718 93.8211 113.413 94.7796 117.481 94.878L117.626 88.8798ZM109.577 86.7675C107.436 85.4638 105.735 83.5501 104.495 80.8969L99.0594 83.437C100.749 87.0534 103.209 89.9152 106.458 91.8927L109.577 86.7675ZM104.5 80.9066C103.229 78.1624 102.51 74.9819 102.403 71.3128L96.4056 71.4879C96.5328 75.8462 97.3957 79.8434 99.0549 83.4274L104.5 80.9066ZM102.402 71.2789C102.321 69.274 102.402 67.2515 102.647 65.21L96.6893 64.4951C96.407 66.8481 96.3123 69.1909 96.4068 71.5219L102.402 71.2789ZM102.635 65.2964L104.305 54.1343L98.3709 53.2466L96.701 64.4087L102.635 65.2964ZM104.305 54.135C105.597 45.5077 108.315 39.2828 112.19 35.1256L107.801 31.0346C102.828 36.3695 99.7736 43.8848 98.371 53.2459L104.305 54.135ZM112.196 35.1188C116.002 31.0098 120.8 29.0068 126.85 29.136L126.978 23.1374C119.317 22.9737 112.835 25.5996 107.794 31.0413L112.196 35.1188ZM126.851 29.1361C131.717 29.2385 135.206 30.838 137.695 33.7216L142.237 29.8018C138.456 25.4198 133.244 23.2693 126.977 23.1374L126.851 29.1361ZM137.704 33.7321C140.297 36.7092 141.849 40.9337 142.066 46.7273L148.061 46.5032C147.809 39.7577 145.963 34.0798 142.228 29.7914L137.704 33.7321ZM142.065 46.6963C142.119 48.7148 142.024 50.7509 141.777 52.8057L147.734 53.5205C148.015 51.1808 148.125 48.8516 148.062 46.5342L142.065 46.6963ZM141.791 52.7052L140.033 64.087L145.963 65.0028L147.721 53.621L141.791 52.7052ZM140.033 64.0873C138.681 72.8473 135.934 79.054 132.084 83.0825L136.422 87.228C141.419 81.9987 144.502 74.4652 145.963 65.0025L140.033 64.0873ZM132.077 83.0897C128.301 87.0679 123.565 89.0089 117.619 88.8796L117.489 94.8782C125.019 95.0419 131.416 92.5005 136.429 87.2208L132.077 83.0897ZM133.581 51.5681C133.854 49.4422 134.012 47.5275 134.044 45.8369L128.045 45.7237C128.019 47.1386 127.884 48.8273 127.63 50.803L133.581 51.5681ZM134.045 45.7803C134.045 42.8682 133.599 40.1849 132.327 38.1136C130.932 35.8407 128.732 34.6147 126.102 34.4786L125.792 40.4706C126.561 40.5103 126.909 40.7565 127.214 41.2521C127.642 41.9494 128.045 43.331 128.045 45.7803H134.045ZM126.099 34.4784C122.41 34.2919 119.353 35.8673 117.179 38.8674C115.136 41.6864 113.92 45.6755 113.263 50.4709L119.208 51.285C119.811 46.8812 120.843 44.0368 122.037 42.3879C123.101 40.9203 124.269 40.3936 125.796 40.4708L126.099 34.4784ZM113.267 50.441L110.938 66.2613L116.874 67.1352L119.203 51.3149L113.267 50.441ZM110.928 66.3394C110.632 68.791 110.467 70.7418 110.467 72.1035H116.467C116.467 71.1214 116.594 69.4687 116.885 67.0571L110.928 66.3394ZM110.468 72.0225C110.388 74.9681 110.777 77.6994 112.047 79.8193C113.442 82.1492 115.684 83.3807 118.346 83.5359L118.695 77.5461C117.841 77.4963 117.483 77.219 117.194 76.7363C116.779 76.0438 116.399 74.6589 116.466 72.1846L110.468 72.0225ZM118.372 83.5373C122.116 83.7235 125.207 82.106 127.391 79.0408C129.443 76.1607 130.655 72.0839 131.295 67.1742L125.346 66.3981C124.755 70.922 123.719 73.8544 122.504 75.5593C121.421 77.0791 120.227 77.6222 118.669 77.5447L118.372 83.5373ZM131.289 67.2209L133.574 51.6203L127.637 50.7508L125.352 66.3513L131.289 67.2209Z" fill="#EF3829"/>
</g>
<defs>
<filter id="filter0_f" x="8" y="81" width="156" height="26" filterUnits="userSpaceOnUse" color-interpolation-filters="sRGB">
<feFlood flood-opacity="0" result="BackgroundImageFix"/>
<feBlend mode="normal" in="SourceGraphic" in2="BackgroundImageFix" result="shape"/>
<feGaussianBlur stdDeviation="5" result="effect1_foregroundBlur"/>
</filter>
<clipPath id="clip0">
<rect width="277" height="105.82" fill="white"/>
</clipPath>
</defs>
</svg>
