<svg width="277" height="106" viewBox="0 0 277 106" fill="none" xmlns="http://www.w3.org/2000/svg">
<g clip-path="url(#clip0)">
<g filter="url(#filter0_f)">
<ellipse cx="86" cy="94" rx="68" ry="3" fill="#C4C4C4" fill-opacity="0.5"/>
</g>
<path d="M162.71 87.3779C161.909 88.3154 160.742 89.043 159.209 89.5605C157.676 90.0684 155.977 90.3076 154.111 90.2783C152.324 90.2588 150.815 89.8096 149.585 88.9307C148.354 88.0518 147.476 86.8262 146.948 85.2539C146.421 83.6816 146.279 81.9092 146.523 79.9365L146.641 79.0576C147.09 75.7471 148.252 73.125 150.127 71.1914C152.012 69.2578 154.316 68.3154 157.041 68.3643C159.424 68.4033 161.255 69.043 162.534 70.2832C163.813 71.5234 164.526 73.3154 164.673 75.6592L159.868 75.6445C159.8 74.502 159.517 73.667 159.019 73.1396C158.53 72.6123 157.832 72.334 156.924 72.3047C155.576 72.2559 154.463 72.7881 153.584 73.9014C152.705 75.0049 152.104 76.5869 151.782 78.6475C151.509 80.4053 151.411 81.7725 151.489 82.749C151.636 85.1025 152.695 86.2939 154.668 86.3232C155.859 86.3428 156.904 86.0547 157.803 85.459L158.462 82.1338H154.99L155.605 78.6035H164.087L162.71 87.3779ZM170.356 90H165.347L169.053 68.6719H174.048L170.356 90ZM191.626 87.3779C190.825 88.3154 189.658 89.043 188.125 89.5605C186.592 90.0684 184.893 90.3076 183.027 90.2783C181.24 90.2588 179.731 89.8096 178.501 88.9307C177.271 88.0518 176.392 86.8262 175.864 85.2539C175.337 83.6816 175.195 81.9092 175.439 79.9365L175.557 79.0576C176.006 75.7471 177.168 73.125 179.043 71.1914C180.928 69.2578 183.232 68.3154 185.957 68.3643C188.34 68.4033 190.171 69.043 191.45 70.2832C192.729 71.5234 193.442 73.3154 193.589 75.6592L188.784 75.6445C188.716 74.502 188.433 73.667 187.935 73.1396C187.446 72.6123 186.748 72.334 185.84 72.3047C184.492 72.2559 183.379 72.7881 182.5 73.9014C181.621 75.0049 181.021 76.5869 180.698 78.6475C180.425 80.4053 180.327 81.7725 180.405 82.749C180.552 85.1025 181.611 86.2939 183.584 86.3232C184.775 86.3428 185.82 86.0547 186.719 85.459L187.378 82.1338H183.906L184.521 78.6035H193.003L191.626 87.3779ZM206.45 86.0156H199.639L197.749 90H192.227L203.521 68.6719H208.237L212.178 90H206.963L206.45 86.0156ZM201.514 82.0459H205.938L205 74.6924L201.514 82.0459ZM225.625 84.2285C225.84 83.125 225.244 82.2705 223.838 81.665L221.436 80.6689C218.066 79.1553 216.465 77.0947 216.631 74.4873C216.699 73.2959 217.109 72.2363 217.861 71.3086C218.613 70.3711 219.653 69.6436 220.981 69.126C222.31 68.6084 223.76 68.3594 225.332 68.3789C227.441 68.418 229.136 69.0332 230.415 70.2246C231.704 71.416 232.339 73.0127 232.319 75.0146H227.339C227.368 74.1943 227.192 73.54 226.812 73.0518C226.44 72.5537 225.825 72.2949 224.966 72.2754C224.126 72.2559 223.384 72.4512 222.739 72.8613C222.095 73.2715 221.714 73.8232 221.597 74.5166C221.411 75.4932 222.134 76.2939 223.765 76.9189C225.405 77.5439 226.597 78.0811 227.339 78.5303C229.673 79.9268 230.767 81.8115 230.62 84.1846C230.542 85.415 230.146 86.4941 229.434 87.4219C228.721 88.3496 227.729 89.0674 226.46 89.5752C225.2 90.083 223.784 90.3271 222.212 90.3076C221.06 90.2881 219.99 90.1074 219.004 89.7656C218.018 89.4238 217.173 88.9258 216.47 88.2715C215.044 86.9531 214.36 85.2197 214.419 83.0713L219.443 83.0859C219.385 84.1797 219.595 85.0098 220.073 85.5762C220.552 86.1328 221.357 86.4111 222.49 86.4111C223.33 86.4111 224.028 86.2207 224.585 85.8398C225.151 85.4492 225.498 84.9121 225.625 84.2285Z" fill="#BBBBBB"/>
<path d="M94.4824 43.7588C94.0723 49.9697 90.4541 54.8184 83.6279 58.3047C86.0889 60.0625 87.9199 62.2012 89.1211 64.7207C90.3223 67.2402 90.8203 70.0088 90.6152 73.0264C90.2344 78.915 87.8174 83.5586 83.3643 86.957C78.9404 90.3555 73.4473 91.9961 66.8848 91.8789C64.0137 91.8496 61.3037 91.4102 58.7549 90.5605C56.2061 89.7109 54.0234 88.4365 52.207 86.7373C48.5742 83.3975 46.9482 79.0615 47.3291 73.7295C47.7393 66.7861 51.9141 61.4688 59.8535 57.7773C55.5176 54.4082 53.4961 49.9844 53.7891 44.5059C53.9941 40.7852 55.0928 37.5186 57.085 34.7061C59.0771 31.8936 61.7432 29.7402 65.083 28.2461C68.4521 26.7227 72.1582 26.0049 76.2012 26.0928C82.0605 26.21 86.6602 27.8945 90 31.1465C93.3691 34.3984 94.8633 38.6025 94.4824 43.7588ZM76.377 71.8398C76.6406 69.5547 76.2744 67.6797 75.2783 66.2148C74.3115 64.75 72.832 63.9883 70.8398 63.9297C68.584 63.8711 66.6357 64.6621 64.9951 66.3027C63.3545 67.9141 62.373 69.9941 62.0508 72.543C61.7871 74.9453 62.168 76.8643 63.1934 78.2998C64.248 79.7061 65.7715 80.4385 67.7637 80.4971C69.9316 80.5557 71.8213 79.7939 73.4326 78.2119C75.0439 76.6299 76.0254 74.5059 76.377 71.8398ZM79.8926 44.5498C80.127 42.3818 79.8193 40.668 78.9697 39.4082C78.1201 38.1191 76.875 37.4746 75.2344 37.4746C73.3301 37.416 71.7188 38.1045 70.4004 39.54C69.1113 40.9756 68.3203 42.8799 68.0273 45.2529C67.793 47.4209 68.1006 49.1934 68.9502 50.5703C69.7998 51.918 71.0596 52.5918 72.7295 52.5918C74.5752 52.6504 76.1572 51.9473 77.4756 50.4824C78.7939 49.0176 79.5996 47.04 79.8926 44.5498ZM117.554 91.8789C113.921 91.791 110.742 90.9414 108.018 89.3301C105.322 87.6895 103.242 85.3018 101.777 82.167C100.312 79.0029 99.5215 75.4141 99.4043 71.4004C99.3164 69.2324 99.4043 67.0498 99.668 64.8525L101.338 53.6904C102.686 44.6963 105.571 37.8262 109.995 33.0801C114.419 28.3047 120.059 25.9902 126.914 26.1367C132.48 26.2539 136.831 28.1289 139.966 31.7617C143.13 35.3945 144.829 40.3457 145.063 46.6152C145.122 48.7832 145.02 50.9658 144.756 53.1631L142.998 64.5449C141.592 73.6562 138.677 80.5264 134.253 85.1553C129.858 89.7842 124.292 92.0254 117.554 91.8789ZM130.605 51.1855C130.869 49.1348 131.016 47.333 131.045 45.7803C131.045 40.4189 129.346 37.6504 125.947 37.4746C120.732 37.2109 117.495 41.6787 116.235 50.8779L113.906 66.6982C113.613 69.1299 113.467 70.9316 113.467 72.1035C113.32 77.5234 115.005 80.3359 118.521 80.541C123.823 80.8047 127.09 76.2197 128.32 66.7861L130.605 51.1855Z" fill="#EF3829"/>
<path d="M94.4824 43.7588L91.4906 43.5378L91.4897 43.5495L91.4889 43.5611L94.4824 43.7588ZM83.6279 58.3047L82.2634 55.633L77.8685 57.8776L81.8842 60.7459L83.6279 58.3047ZM90.6152 73.0264L87.6221 72.823L87.6215 72.8327L90.6152 73.0264ZM83.3643 86.957L81.5442 84.5722L81.5366 84.578L83.3643 86.957ZM66.8848 91.8789L66.9383 88.8794L66.9269 88.8792L66.9154 88.8791L66.8848 91.8789ZM52.207 86.7373L54.2565 84.5465L54.247 84.5376L54.2374 84.5288L52.207 86.7373ZM47.3291 73.7295L50.3215 73.9432L50.3228 73.9248L50.3239 73.9064L47.3291 73.7295ZM59.8535 57.7773L61.1183 60.4977L65.5764 58.4249L61.6942 55.4084L59.8535 57.7773ZM53.7891 44.5059L50.7936 44.3408L50.7933 44.3457L53.7891 44.5059ZM65.083 28.2461L66.3081 30.9846L66.319 30.9796L65.083 28.2461ZM76.2012 26.0928L76.136 29.0921L76.1412 29.0922L76.2012 26.0928ZM90 31.1465L87.9071 33.2959L87.9166 33.305L90 31.1465ZM76.377 71.8398L79.3512 72.2321L79.3544 72.2079L79.3572 72.1837L76.377 71.8398ZM75.2783 66.2148L72.7745 67.8674L72.7859 67.8847L72.7975 67.9018L75.2783 66.2148ZM70.8398 63.9297L70.928 60.931L70.9177 60.9307L70.8398 63.9297ZM64.9951 66.3027L67.0972 68.4431L67.1069 68.4336L67.1164 68.4241L64.9951 66.3027ZM62.0508 72.543L59.0745 72.1667L59.0714 72.1911L59.0687 72.2157L62.0508 72.543ZM63.1934 78.2998L60.7522 80.0435L60.7724 80.0719L60.7934 80.0998L63.1934 78.2998ZM67.7637 80.4971L67.6755 83.4958L67.6826 83.496L67.7637 80.4971ZM79.8926 44.5498L82.872 44.9003L82.8737 44.8863L82.8752 44.8723L79.8926 44.5498ZM78.9697 39.4082L76.4649 41.0591L76.4736 41.0724L76.4825 41.0856L78.9697 39.4082ZM75.2344 37.4746L75.1421 40.4732L75.1882 40.4746H75.2344V37.4746ZM70.4004 39.54L68.1908 37.5108L68.1795 37.5232L68.1682 37.5357L70.4004 39.54ZM68.0273 45.2529L65.0499 44.8853L65.0472 44.9079L65.0447 44.9305L68.0273 45.2529ZM68.9502 50.5703L66.3971 52.1456L66.4047 52.158L66.4124 52.1702L68.9502 50.5703ZM72.7295 52.5918L72.8247 49.5933L72.7771 49.5918H72.7295V52.5918ZM91.4889 43.5611C91.1653 48.4623 88.4022 52.4977 82.2634 55.633L84.9925 60.9764C92.506 57.139 96.9793 51.4771 97.4759 43.9565L91.4889 43.5611ZM81.8842 60.7459C83.967 62.2336 85.4487 63.9889 86.4131 66.0117L91.8291 63.4297C90.3911 60.4134 88.2108 57.8914 85.3716 55.8635L81.8842 60.7459ZM86.4131 66.0117C87.3741 68.0274 87.7953 70.2755 87.6221 72.823L93.6083 73.2298C93.8454 69.7421 93.2705 66.4531 91.8291 63.4297L86.4131 66.0117ZM87.6215 72.8327C87.2932 77.9083 85.2669 81.7312 81.5442 84.5722L85.1843 89.3419C90.3679 85.386 93.1755 79.9218 93.609 73.22L87.6215 72.8327ZM81.5366 84.578C77.743 87.4923 72.9467 88.9867 66.9383 88.8794L66.8312 94.8784C73.9479 95.0055 80.1379 93.2186 85.1919 89.3361L81.5366 84.578ZM66.9154 88.8791C64.335 88.8527 61.9365 88.4588 59.7036 87.7145L57.8062 93.4066C60.6709 94.3615 63.6924 94.8465 66.8542 94.8788L66.9154 88.8791ZM59.7036 87.7145C57.5312 86.9904 55.7327 85.9275 54.2565 84.5465L50.1576 88.9281C52.3141 90.9456 54.8809 92.4315 57.8062 93.4066L59.7036 87.7145ZM54.2374 84.5288C51.3393 81.8644 49.9995 78.4505 50.3215 73.9432L44.3367 73.5158C43.897 79.6725 45.8091 84.9305 50.1766 88.9458L54.2374 84.5288ZM50.3239 73.9064C50.6513 68.3638 53.8745 63.8657 61.1183 60.4977L58.5887 55.057C49.9536 59.0718 44.8272 65.2085 44.3343 73.5526L50.3239 73.9064ZM61.6942 55.4084C58.1335 52.6416 56.5443 49.1622 56.7848 44.6661L50.7933 44.3457C50.4478 50.8065 52.9017 56.1748 58.0128 60.1463L61.6942 55.4084ZM56.7845 44.671C56.9611 41.4667 57.8939 38.7542 59.533 36.4401L54.6369 32.972C52.2916 36.283 51.0272 40.1036 50.7936 44.3408L56.7845 44.671ZM59.533 36.4401C61.1955 34.0931 63.4271 32.2734 66.3081 30.9845L63.8579 25.5076C60.0592 27.207 56.9588 29.694 54.6369 32.972L59.533 36.4401ZM66.319 30.9796C69.2426 29.6577 72.4986 29.013 76.136 29.0921L76.2664 23.0935C71.8178 22.9968 67.6617 23.7877 63.847 25.5126L66.319 30.9796ZM76.1412 29.0922C81.4439 29.1982 85.2432 30.702 87.9071 33.2959L92.0929 28.9971C88.0771 25.087 82.6772 23.2217 76.2612 23.0934L76.1412 29.0922ZM87.9166 33.305C90.5726 35.8687 91.8135 39.1655 91.4906 43.5378L97.4743 43.9798C97.913 38.0396 96.1657 32.9282 92.0834 28.988L87.9166 33.305ZM79.3572 72.1837C79.6782 69.4015 79.2681 66.7471 77.7591 64.5279L72.7975 67.9018C73.2807 68.6123 73.603 69.7079 73.3967 71.496L79.3572 72.1837ZM77.7821 64.5623C76.1981 62.1622 73.7434 61.0138 70.928 60.931L70.7516 66.9284C71.9206 66.9628 72.425 67.3378 72.7745 67.8674L77.7821 64.5623ZM70.9177 60.9307C67.8137 60.8501 65.0777 61.9776 62.8738 64.1814L67.1164 68.4241C68.1938 67.3467 69.3543 66.8921 70.7619 66.9287L70.9177 60.9307ZM62.893 64.1624C60.7144 66.3021 59.4709 69.0312 59.0745 72.1667L65.0271 72.9193C65.2752 70.957 65.9946 69.526 67.0972 68.4431L62.893 64.1624ZM59.0687 72.2157C58.7545 75.0784 59.1614 77.8165 60.7522 80.0435L65.6346 76.5561C65.1745 75.912 64.8197 74.8123 65.0329 72.8703L59.0687 72.2157ZM60.7934 80.0998C62.4739 82.3406 64.9086 83.4144 67.6755 83.4958L67.8519 77.4984C66.6343 77.4626 66.0221 77.0715 65.5934 76.4998L60.7934 80.0998ZM67.6826 83.496C70.7014 83.5776 73.3689 82.4787 75.5344 80.3526L71.3308 76.0712C70.2737 77.1092 69.1619 77.5338 67.8447 77.4982L67.6826 83.496ZM75.5344 80.3526C77.7101 78.2164 78.9294 75.4307 79.3512 72.2321L73.4027 71.4476C73.1214 73.5811 72.3778 75.0433 71.3308 76.0712L75.5344 80.3526ZM82.8752 44.8723C83.1532 42.3007 82.844 39.7874 81.4569 37.7308L76.4825 41.0856C76.7947 41.5485 77.1007 42.4629 76.91 44.2274L82.8752 44.8723ZM81.4746 37.7573C80.0296 35.5649 77.8082 34.4746 75.2344 34.4746V40.4746C75.9418 40.4746 76.2106 40.6734 76.4649 41.0591L81.4746 37.7573ZM75.3266 34.476C72.5278 34.3899 70.0835 35.4499 68.1908 37.5108L72.61 41.5693C73.354 40.7591 74.1323 40.4421 75.1421 40.4732L75.3266 34.476ZM68.1682 37.5357C66.3802 39.5268 65.3999 42.0504 65.0499 44.8853L71.0047 45.6205C71.2407 43.7093 71.8424 42.4243 72.6325 41.5444L68.1682 37.5357ZM65.0447 44.9305C64.7635 47.5322 65.0932 50.0324 66.3971 52.1456L71.5033 48.995C71.108 48.3543 70.8225 47.3096 71.01 45.5754L65.0447 44.9305ZM66.4124 52.1702C67.8427 54.4389 70.0894 55.5918 72.7295 55.5918V49.5918C72.0298 49.5918 71.7569 49.397 71.488 48.9704L66.4124 52.1702ZM72.6343 55.5903C75.4287 55.679 77.8412 54.5607 79.7055 52.4893L75.2457 48.4755C74.4732 49.3338 73.7217 49.6218 72.8247 49.5933L72.6343 55.5903ZM79.7055 52.4893C81.5395 50.4515 82.5263 47.8387 82.872 44.9003L76.9131 44.1993C76.6729 46.2414 76.0484 47.5837 75.2457 48.4755L79.7055 52.4893ZM117.554 91.8789L117.481 94.878L117.489 94.8782L117.554 91.8789ZM108.018 89.3301L106.458 91.8927L106.474 91.9026L106.49 91.9123L108.018 89.3301ZM101.777 82.167L99.0549 83.4274L99.0594 83.437L101.777 82.167ZM99.4043 71.4004L102.403 71.3128L102.403 71.2958L102.402 71.2789L99.4043 71.4004ZM99.668 64.8525L96.701 64.4087L96.6945 64.4518L96.6893 64.4951L99.668 64.8525ZM101.338 53.6904L98.371 53.2459L98.3709 53.2466L101.338 53.6904ZM109.995 33.0801L112.19 35.1256L112.196 35.1188L109.995 33.0801ZM126.914 26.1367L126.85 29.136L126.851 29.1361L126.914 26.1367ZM139.966 31.7617L137.695 33.7216L137.704 33.7321L139.966 31.7617ZM145.063 46.6152L148.062 46.5342L148.062 46.5187L148.061 46.5032L145.063 46.6152ZM144.756 53.1631L147.721 53.621L147.728 53.5709L147.734 53.5205L144.756 53.1631ZM142.998 64.5449L140.033 64.087L140.033 64.0873L142.998 64.5449ZM134.253 85.1553L132.084 83.0825L132.077 83.0897L134.253 85.1553ZM130.605 51.1855L133.574 51.6203L133.578 51.5943L133.581 51.5681L130.605 51.1855ZM131.045 45.7803L134.044 45.8369L134.045 45.8086V45.7803H131.045ZM125.947 37.4746L126.102 34.4786L126.099 34.4784L125.947 37.4746ZM116.235 50.8779L119.203 51.3149L119.206 51.2999L119.208 51.285L116.235 50.8779ZM113.906 66.6982L110.938 66.2613L110.933 66.3003L110.928 66.3394L113.906 66.6982ZM113.467 72.1035L116.466 72.1846L116.467 72.144V72.1035H113.467ZM118.521 80.541L118.346 83.5359L118.359 83.5367L118.372 83.5373L118.521 80.541ZM128.32 66.7861L125.352 66.3513L125.349 66.3747L125.346 66.3981L128.32 66.7861ZM117.626 88.8798C114.429 88.8024 111.766 88.0617 109.545 86.7479L106.49 91.9123C109.718 93.8211 113.413 94.7796 117.481 94.878L117.626 88.8798ZM109.577 86.7675C107.436 85.4638 105.735 83.5501 104.495 80.8969L99.0594 83.437C100.749 87.0534 103.209 89.9152 106.458 91.8927L109.577 86.7675ZM104.5 80.9066C103.229 78.1624 102.51 74.9819 102.403 71.3128L96.4056 71.4879C96.5328 75.8462 97.3957 79.8434 99.0549 83.4274L104.5 80.9066ZM102.402 71.2789C102.321 69.274 102.402 67.2515 102.647 65.21L96.6893 64.4951C96.407 66.8481 96.3123 69.1909 96.4068 71.5219L102.402 71.2789ZM102.635 65.2964L104.305 54.1343L98.3709 53.2466L96.701 64.4087L102.635 65.2964ZM104.305 54.135C105.597 45.5077 108.315 39.2828 112.19 35.1256L107.801 31.0346C102.828 36.3695 99.7736 43.8848 98.371 53.2459L104.305 54.135ZM112.196 35.1188C116.002 31.0098 120.8 29.0068 126.85 29.136L126.978 23.1374C119.317 22.9737 112.835 25.5996 107.794 31.0413L112.196 35.1188ZM126.851 29.1361C131.717 29.2385 135.206 30.838 137.695 33.7216L142.237 29.8018C138.456 25.4198 133.244 23.2693 126.977 23.1374L126.851 29.1361ZM137.704 33.7321C140.297 36.7092 141.849 40.9337 142.066 46.7273L148.061 46.5032C147.809 39.7577 145.963 34.0798 142.228 29.7914L137.704 33.7321ZM142.065 46.6963C142.119 48.7148 142.024 50.7509 141.777 52.8057L147.734 53.5205C148.015 51.1808 148.125 48.8516 148.062 46.5342L142.065 46.6963ZM141.791 52.7052L140.033 64.087L145.963 65.0028L147.721 53.621L141.791 52.7052ZM140.033 64.0873C138.681 72.8473 135.934 79.054 132.084 83.0825L136.422 87.228C141.419 81.9987 144.502 74.4652 145.963 65.0025L140.033 64.0873ZM132.077 83.0897C128.301 87.0679 123.565 89.0089 117.619 88.8796L117.489 94.8782C125.019 95.0419 131.416 92.5005 136.429 87.2208L132.077 83.0897ZM133.581 51.5681C133.854 49.4422 134.012 47.5275 134.044 45.8369L128.045 45.7237C128.019 47.1386 127.884 48.8273 127.63 50.803L133.581 51.5681ZM134.045 45.7803C134.045 42.8682 133.599 40.1849 132.327 38.1136C130.932 35.8407 128.732 34.6147 126.102 34.4786L125.792 40.4706C126.561 40.5103 126.909 40.7565 127.214 41.2521C127.642 41.9494 128.045 43.331 128.045 45.7803H134.045ZM126.099 34.4784C122.41 34.2919 119.353 35.8673 117.179 38.8674C115.136 41.6864 113.92 45.6755 113.263 50.4709L119.208 51.285C119.811 46.8812 120.843 44.0368 122.037 42.3879C123.101 40.9203 124.269 40.3936 125.796 40.4708L126.099 34.4784ZM113.267 50.441L110.938 66.2613L116.874 67.1352L119.203 51.3149L113.267 50.441ZM110.928 66.3394C110.632 68.791 110.467 70.7418 110.467 72.1035H116.467C116.467 71.1214 116.594 69.4687 116.885 67.0571L110.928 66.3394ZM110.468 72.0225C110.388 74.9681 110.777 77.6994 112.047 79.8193C113.442 82.1492 115.684 83.3807 118.346 83.5359L118.695 77.5461C117.841 77.4963 117.483 77.219 117.194 76.7363C116.779 76.0438 116.399 74.6589 116.466 72.1846L110.468 72.0225ZM118.372 83.5373C122.116 83.7235 125.207 82.106 127.391 79.0408C129.443 76.1607 130.655 72.0839 131.295 67.1742L125.346 66.3981C124.755 70.922 123.719 73.8544 122.504 75.5593C121.421 77.0791 120.227 77.6222 118.669 77.5447L118.372 83.5373ZM131.289 67.2209L133.574 51.6203L127.637 50.7508L125.352 66.3513L131.289 67.2209Z" fill="#EF3829"/>
</g>
<defs>
<filter id="filter0_f" x="8" y="81" width="156" height="26" filterUnits="userSpaceOnUse" color-interpolation-filters="sRGB">
<feFlood flood-opacity="0" result="BackgroundImageFix"/>
<feBlend mode="normal" in="SourceGraphic" in2="BackgroundImageFix" result="shape"/>
<feGaussianBlur stdDeviation="5" result="effect1_foregroundBlur"/>
</filter>
<clipPath id="clip0">
<rect width="277" height="105.82" fill="white"/>
</clipPath>
</defs>
</svg>
