<svg width="276" height="187" viewBox="0 0 276 187" fill="none" xmlns="http://www.w3.org/2000/svg">
<rect x="0.5" y="0.5" width="275" height="186" rx="9.5" fill="white"/>
<path d="M0 10C0 4.47715 4.47715 0 10 0H266C271.523 0 276 4.47715 276 10V27H0V10Z" fill="#EF3829"/>
<path d="M118.657 17H116.935V7.04688H118.657V17ZM122.164 9.60352L122.212 10.458C122.759 9.7972 123.477 9.4668 124.365 9.4668C125.906 9.4668 126.689 10.3486 126.717 12.1123V17H125.056V12.208C125.056 11.7386 124.953 11.3923 124.748 11.1689C124.548 10.9411 124.217 10.8271 123.757 10.8271C123.087 10.8271 122.588 11.1302 122.26 11.7363V17H120.599V9.60352H122.164ZM131.454 15.8105C131.869 15.8105 132.213 15.6898 132.486 15.4482C132.76 15.2067 132.906 14.9082 132.924 14.5527H134.489C134.471 15.013 134.327 15.4437 134.059 15.8447C133.79 16.2412 133.425 16.5557 132.965 16.7881C132.505 17.0205 132.008 17.1367 131.475 17.1367C130.44 17.1367 129.62 16.8018 129.014 16.1318C128.408 15.4619 128.104 14.5368 128.104 13.3564V13.1855C128.104 12.0599 128.405 11.1598 129.007 10.4854C129.608 9.80632 130.429 9.4668 131.468 9.4668C132.347 9.4668 133.063 9.72428 133.614 10.2393C134.17 10.7497 134.462 11.4219 134.489 12.2559H132.924C132.906 11.832 132.76 11.4834 132.486 11.21C132.217 10.9365 131.873 10.7998 131.454 10.7998C130.916 10.7998 130.502 10.9958 130.21 11.3877C129.918 11.7751 129.77 12.3652 129.766 13.1582V13.4248C129.766 14.2269 129.909 14.8262 130.196 15.2227C130.488 15.6146 130.907 15.8105 131.454 15.8105ZM137.511 17H135.85V6.5H137.511V17ZM143.807 16.2754C143.319 16.8496 142.626 17.1367 141.729 17.1367C140.926 17.1367 140.318 16.902 139.903 16.4326C139.493 15.9632 139.288 15.2842 139.288 14.3955V9.60352H140.949V14.375C140.949 15.3138 141.339 15.7832 142.118 15.7832C142.925 15.7832 143.469 15.4938 143.752 14.915V9.60352H145.413V17H143.848L143.807 16.2754ZM149.692 14.6211L151.196 9.60352H152.967L150.027 18.1211C149.576 19.3652 148.811 19.9873 147.73 19.9873C147.489 19.9873 147.222 19.9463 146.931 19.8643V18.5791L147.245 18.5996C147.664 18.5996 147.979 18.5221 148.188 18.3672C148.403 18.2168 148.571 17.9616 148.694 17.6016L148.934 16.9658L146.336 9.60352H148.127L149.692 14.6211ZM157.089 17.1367C156.036 17.1367 155.182 16.8063 154.525 16.1455C153.874 15.4801 153.548 14.596 153.548 13.4932V13.2881C153.548 12.5498 153.689 11.8913 153.972 11.3125C154.259 10.7292 154.66 10.2757 155.175 9.95215C155.69 9.62858 156.264 9.4668 156.897 9.4668C157.905 9.4668 158.682 9.78809 159.229 10.4307C159.78 11.0732 160.056 11.9824 160.056 13.1582V13.8281H155.223C155.273 14.4388 155.476 14.9219 155.831 15.2773C156.191 15.6328 156.642 15.8105 157.185 15.8105C157.946 15.8105 158.565 15.5029 159.044 14.8877L159.939 15.7422C159.643 16.1842 159.247 16.5283 158.75 16.7744C158.258 17.016 157.704 17.1367 157.089 17.1367ZM156.891 10.7998C156.435 10.7998 156.066 10.9593 155.783 11.2783C155.505 11.5973 155.327 12.0417 155.25 12.6113H158.415V12.4883C158.379 11.9323 158.23 11.513 157.971 11.2305C157.711 10.9434 157.351 10.7998 156.891 10.7998Z" fill="white"/>
<rect width="203.5" height="28" transform="translate(32.25 37.6667)" fill="white"/>
<path d="M40.1511 49.1806C40.1511 49.6764 40.0271 50.1137 39.7792 50.4926C39.536 50.8715 39.1992 51.1755 38.7689 51.4047C39.2553 51.6432 39.6412 51.9707 39.9265 52.3869C40.2119 52.7985 40.3545 53.2873 40.3545 53.8533C40.3545 54.7654 40.0388 55.4857 39.4074 56.0143C38.7806 56.5428 37.9153 56.8071 36.8114 56.8071C35.7029 56.8071 34.8282 56.5428 34.1874 56.0143C33.5466 55.481 33.2262 54.7607 33.2262 53.8533C33.2262 53.306 33.3665 52.8219 33.6471 52.401C33.9278 51.98 34.3254 51.6479 34.8399 51.4047C34.4049 51.1755 34.0634 50.8715 33.8155 50.4926C33.5676 50.1137 33.4437 49.6764 33.4437 49.1806C33.4437 48.2919 33.7454 47.5903 34.3488 47.0758C34.9521 46.5613 35.766 46.304 36.7904 46.304C37.8241 46.304 38.6426 46.5613 39.246 47.0758C39.8494 47.5903 40.1511 48.2919 40.1511 49.1806ZM37.9831 53.6639C37.9831 53.2429 37.8732 52.9202 37.6533 52.6956C37.4382 52.4665 37.1528 52.3519 36.7974 52.3519C36.4419 52.3519 36.1542 52.4665 35.9344 52.6956C35.7146 52.9202 35.6046 53.2429 35.6046 53.6639C35.6046 54.0708 35.7146 54.3935 35.9344 54.6321C36.1589 54.866 36.4512 54.9829 36.8114 54.9829C37.1622 54.9829 37.4452 54.866 37.6603 54.6321C37.8755 54.3982 37.9831 54.0755 37.9831 53.6639ZM36.7904 48.1282C36.4723 48.1282 36.2291 48.2334 36.0607 48.4439C35.897 48.6497 35.8151 48.9374 35.8151 49.3069C35.8151 49.6717 35.8993 49.9664 36.0677 50.1909C36.2361 50.4154 36.484 50.5277 36.8114 50.5277C37.1341 50.5277 37.375 50.4154 37.5341 50.1909C37.6978 49.9664 37.7796 49.6717 37.7796 49.3069C37.7796 48.942 37.6954 48.6544 37.527 48.4439C37.3633 48.2334 37.1178 48.1282 36.7904 48.1282ZM53.671 55.4039C53.2922 55.8248 52.7379 56.1639 52.0082 56.4212C51.2786 56.6784 50.4787 56.8071 49.6087 56.8071C48.271 56.8071 47.2022 56.3978 46.4024 55.5793C45.6025 54.7607 45.1746 53.6218 45.1184 52.1624L45.1114 51.2784C45.1114 50.2728 45.2892 49.3958 45.6446 48.6474C46.0001 47.8943 46.5076 47.3167 47.1671 46.9144C47.8313 46.5075 48.5984 46.304 49.4684 46.304C50.7407 46.304 51.7276 46.5963 52.4292 47.181C53.1355 47.761 53.5471 48.6287 53.664 49.784H51.2926C51.2084 49.2133 51.026 48.8064 50.7453 48.5632C50.4647 48.32 50.0671 48.1983 49.5526 48.1983C48.9352 48.1983 48.4581 48.4603 48.1213 48.9841C47.7845 49.508 47.6138 50.2564 47.6091 51.2293V51.8467C47.6091 52.8664 47.7822 53.6335 48.1283 54.148C48.4791 54.6578 49.0287 54.9127 49.7771 54.9127C50.4179 54.9127 50.895 54.7701 51.2084 54.4847V52.8991H49.4965V51.2082H53.671V55.4039ZM57.7263 56.6667H55.2707V46.4513H57.7263V56.6667ZM67.8014 55.4039C67.4226 55.8248 66.8683 56.1639 66.1386 56.4212C65.4089 56.6784 64.6091 56.8071 63.7391 56.8071C62.4014 56.8071 61.3326 56.3978 60.5328 55.5793C59.7329 54.7607 59.305 53.6218 59.2488 52.1624L59.2418 51.2784C59.2418 50.2728 59.4195 49.3958 59.775 48.6474C60.1305 47.8943 60.638 47.3167 61.2975 46.9144C61.9617 46.5075 62.7288 46.304 63.5988 46.304C64.871 46.304 65.858 46.5963 66.5596 47.181C67.2659 47.761 67.6775 48.6287 67.7944 49.784H65.423C65.3388 49.2133 65.1564 48.8064 64.8757 48.5632C64.5951 48.32 64.1975 48.1983 63.683 48.1983C63.0656 48.1983 62.5885 48.4603 62.2517 48.9841C61.9149 49.508 61.7442 50.2564 61.7395 51.2293V51.8467C61.7395 52.8664 61.9126 53.6335 62.2587 54.148C62.6095 54.6578 63.1591 54.9127 63.9075 54.9127C64.5483 54.9127 65.0254 54.7701 65.3388 54.4847V52.8991H63.6269V51.2082H67.8014V55.4039ZM75.035 54.7584H71.6603L71.0709 56.6667H68.4399L72.1865 46.4513H74.5018L78.2764 56.6667H75.6314L75.035 54.7584ZM72.2496 52.857H74.4457L73.3441 49.3139L72.2496 52.857ZM84.2962 53.9515C84.2962 53.5914 84.1676 53.3107 83.9103 53.1096C83.6578 52.9085 83.2111 52.7003 82.5703 52.4852C81.9295 52.27 81.4056 52.0619 80.9987 51.8607C79.675 51.2106 79.0131 50.3172 79.0131 49.1806C79.0131 48.6146 79.1768 48.1165 79.5042 47.6862C79.8363 47.2512 80.3041 46.9144 80.9075 46.6759C81.5108 46.4326 82.1891 46.311 82.9421 46.311C83.6765 46.311 84.3337 46.442 84.9136 46.7039C85.4983 46.9658 85.952 47.34 86.2748 47.8265C86.5975 48.3083 86.7589 48.8602 86.7589 49.4823H84.3032C84.3032 49.066 84.1746 48.7433 83.9174 48.5141C83.6648 48.2849 83.321 48.1703 82.886 48.1703C82.4463 48.1703 82.0979 48.2685 81.8406 48.465C81.588 48.6567 81.4617 48.9023 81.4617 49.2016C81.4617 49.4636 81.6021 49.7021 81.8827 49.9173C82.1633 50.1278 82.6568 50.3476 83.3631 50.5768C84.0694 50.8013 84.6494 51.0445 85.1031 51.3065C86.2069 51.9426 86.7589 52.8196 86.7589 53.9375C86.7589 54.8309 86.4221 55.5325 85.7486 56.0423C85.075 56.5522 84.1512 56.8071 82.9772 56.8071C82.1493 56.8071 81.3986 56.6597 80.725 56.3651C80.0562 56.0657 79.551 55.6588 79.2096 55.1443C78.8728 54.6251 78.7044 54.0287 78.7044 53.3552H81.1741C81.1741 53.9024 81.3144 54.307 81.595 54.5689C81.8804 54.8262 82.3411 54.9548 82.9772 54.9548C83.3841 54.9548 83.7045 54.8683 83.9384 54.6952C84.177 54.5175 84.2962 54.2696 84.2962 53.9515Z" fill="#222222" fill-opacity="0.8"/>
<path d="M169.423 45.2358V48.6667H168.267V39.9027H171.5C172.459 39.9027 173.209 40.1475 173.751 40.6371C174.297 41.1266 174.569 41.7747 174.569 42.5813C174.569 43.432 174.303 44.0881 173.769 44.5496C173.239 45.007 172.479 45.2358 171.488 45.2358H169.423ZM169.423 44.2908H171.5C172.118 44.2908 172.591 44.1463 172.92 43.8574C173.249 43.5644 173.414 43.1431 173.414 42.5933C173.414 42.0717 173.249 41.6543 172.92 41.3413C172.591 41.0283 172.14 40.8658 171.566 40.8538H169.423V44.2908ZM179.818 48.6667C179.754 48.5383 179.702 48.3096 179.662 47.9806C179.144 48.5183 178.526 48.7871 177.808 48.7871C177.166 48.7871 176.638 48.6066 176.225 48.2454C175.815 47.8802 175.611 47.4188 175.611 46.861C175.611 46.1828 175.868 45.6571 176.381 45.2839C176.899 44.9067 177.625 44.7181 178.56 44.7181H179.644V44.2065C179.644 43.8172 179.527 43.5083 179.295 43.2795C179.062 43.0468 178.719 42.9304 178.265 42.9304C177.868 42.9304 177.535 43.0307 177.266 43.2314C176.997 43.432 176.863 43.6748 176.863 43.9597H175.743C175.743 43.6347 175.858 43.3217 176.086 43.0207C176.319 42.7157 176.632 42.4749 177.025 42.2984C177.423 42.1218 177.858 42.0335 178.331 42.0335C179.082 42.0335 179.67 42.2221 180.095 42.5993C180.52 42.9725 180.741 43.4882 180.757 44.1463V47.1439C180.757 47.7418 180.833 48.2173 180.986 48.5704V48.6667H179.818ZM177.97 47.818C178.319 47.818 178.65 47.7277 178.963 47.5472C179.276 47.3666 179.503 47.1318 179.644 46.8429V45.5066H178.771C177.406 45.5066 176.724 45.9059 176.724 46.7045C176.724 47.0536 176.841 47.3265 177.073 47.5231C177.306 47.7197 177.605 47.818 177.97 47.818ZM185.651 43.1531C185.482 43.125 185.3 43.111 185.103 43.111C184.373 43.111 183.877 43.422 183.616 44.044V48.6667H182.503V42.1539H183.586L183.604 42.9063C183.969 42.3245 184.487 42.0335 185.157 42.0335C185.374 42.0335 185.538 42.0616 185.651 42.1178V43.1531ZM190.46 48.6667C190.396 48.5383 190.344 48.3096 190.304 47.9806C189.786 48.5183 189.168 48.7871 188.45 48.7871C187.808 48.7871 187.28 48.6066 186.867 48.2454C186.457 47.8802 186.253 47.4188 186.253 46.861C186.253 46.1828 186.51 45.6571 187.023 45.2839C187.541 44.9067 188.267 44.7181 189.202 44.7181H190.286V44.2065C190.286 43.8172 190.169 43.5083 189.937 43.2795C189.704 43.0468 189.361 42.9304 188.907 42.9304C188.51 42.9304 188.177 43.0307 187.908 43.2314C187.639 43.432 187.505 43.6748 187.505 43.9597H186.385C186.385 43.6347 186.5 43.3217 186.728 43.0207C186.961 42.7157 187.274 42.4749 187.667 42.2984C188.065 42.1218 188.5 42.0335 188.973 42.0335C189.724 42.0335 190.312 42.2221 190.737 42.5993C191.162 42.9725 191.383 43.4882 191.399 44.1463V47.1439C191.399 47.7418 191.475 48.2173 191.628 48.5704V48.6667H190.46ZM188.612 47.818C188.961 47.818 189.292 47.7277 189.605 47.5472C189.918 47.3666 190.145 47.1318 190.286 46.8429V45.5066H189.413C188.049 45.5066 187.366 45.9059 187.366 46.7045C187.366 47.0536 187.483 47.3265 187.715 47.5231C187.948 47.7197 188.247 47.818 188.612 47.818Z" fill="#222222" fill-opacity="0.8"/>
<path d="M169.519 56.1539L169.573 56.9063C170.039 56.3245 170.663 56.0335 171.445 56.0335C172.136 56.0335 172.649 56.2362 172.986 56.6415C173.323 57.0468 173.496 57.6527 173.504 58.4593V62.6667H171.764V58.5014C171.764 58.1322 171.684 57.8654 171.524 57.7009C171.363 57.5323 171.096 57.4481 170.723 57.4481C170.234 57.4481 169.866 57.6567 169.622 58.0741V62.6667H167.882V56.1539H169.519ZM178.602 62.6667C178.522 62.5102 178.464 62.3156 178.428 62.0829C178.006 62.5524 177.459 62.7871 176.784 62.7871C176.146 62.7871 175.617 62.6025 175.195 62.2334C174.778 61.8642 174.569 61.3987 174.569 60.8369C174.569 60.1467 174.824 59.617 175.334 59.2478C175.847 58.8786 176.588 58.692 177.555 58.688H178.356V58.3148C178.356 58.0139 178.277 57.7731 178.121 57.5925C177.968 57.4119 177.725 57.3217 177.392 57.3217C177.099 57.3217 176.869 57.3919 176.7 57.5323C176.536 57.6728 176.453 57.8654 176.453 58.1102H174.714C174.714 57.733 174.83 57.3839 175.063 57.0628C175.296 56.7418 175.625 56.491 176.05 56.3104C176.476 56.1258 176.953 56.0335 177.483 56.0335C178.285 56.0335 178.921 56.2362 179.391 56.6415C179.864 57.0428 180.101 57.6086 180.101 58.3389V61.1619C180.105 61.7799 180.191 62.2474 180.36 62.5644V62.6667H178.602ZM177.164 61.4569C177.421 61.4569 177.657 61.4007 177.874 61.2883C178.091 61.172 178.251 61.0175 178.356 60.8249V59.7053H177.705C176.835 59.7053 176.371 60.0062 176.315 60.6082L176.309 60.7105C176.309 60.9272 176.385 61.1058 176.538 61.2462C176.69 61.3867 176.899 61.4569 177.164 61.4569ZM183.779 60.542L184.989 56.1539H186.807L184.61 62.6667H182.948L180.751 56.1539H182.569L183.779 60.542ZM190.49 62.7871C189.535 62.7871 188.757 62.4942 188.155 61.9083C187.557 61.3224 187.258 60.542 187.258 59.5668V59.3983C187.258 58.7442 187.384 58.1603 187.637 57.6467C187.89 57.129 188.247 56.7318 188.709 56.4549C189.174 56.174 189.704 56.0335 190.298 56.0335C191.189 56.0335 191.889 56.3144 192.398 56.8762C192.912 57.438 193.169 58.2346 193.169 59.2659V59.9761H189.022C189.078 60.4015 189.246 60.7426 189.527 60.9994C189.812 61.2562 190.171 61.3846 190.605 61.3846C191.275 61.3846 191.799 61.1419 192.176 60.6563L193.03 61.6134C192.77 61.9826 192.416 62.2715 191.971 62.4802C191.526 62.6848 191.032 62.7871 190.49 62.7871ZM190.292 57.442C189.947 57.442 189.666 57.5584 189.449 57.7912C189.236 58.0239 189.1 58.357 189.04 58.7904H191.459V58.6519C191.451 58.2667 191.347 57.9697 191.146 57.7611C190.946 57.5484 190.661 57.442 190.292 57.442ZM193.909 59.3622C193.909 58.363 194.146 57.5584 194.62 56.9485C195.097 56.3385 195.739 56.0335 196.546 56.0335C197.26 56.0335 197.816 56.2783 198.213 56.7679L198.285 56.1539H199.862V62.4501C199.862 63.0199 199.732 63.5155 199.471 63.9368C199.214 64.3582 198.851 64.6792 198.382 64.8999C197.912 65.1206 197.362 65.2309 196.732 65.2309C196.255 65.2309 195.789 65.1346 195.336 64.942C194.882 64.7534 194.539 64.5086 194.307 64.2077L195.077 63.1483C195.51 63.6338 196.036 63.8766 196.654 63.8766C197.116 63.8766 197.475 63.7522 197.731 63.5034C197.988 63.2586 198.117 62.9095 198.117 62.4561V62.107C197.715 62.5604 197.188 62.7871 196.534 62.7871C195.751 62.7871 195.117 62.4822 194.632 61.8722C194.15 61.2582 193.909 60.4456 193.909 59.4344V59.3622ZM195.649 59.4886C195.649 60.0785 195.767 60.542 196.004 60.879C196.241 61.2121 196.566 61.3786 196.979 61.3786C197.509 61.3786 197.888 61.18 198.117 60.7827V58.044C197.884 57.6467 197.509 57.4481 196.991 57.4481C196.574 57.4481 196.245 57.6186 196.004 57.9597C195.767 58.3008 195.649 58.8104 195.649 59.4886ZM204.979 62.6667C204.898 62.5102 204.84 62.3156 204.804 62.0829C204.383 62.5524 203.835 62.7871 203.161 62.7871C202.523 62.7871 201.993 62.6025 201.572 62.2334C201.154 61.8642 200.946 61.3987 200.946 60.8369C200.946 60.1467 201.201 59.617 201.71 59.2478C202.224 58.8786 202.964 58.692 203.931 58.688H204.732V58.3148C204.732 58.0139 204.654 57.7731 204.497 57.5925C204.345 57.4119 204.102 57.3217 203.769 57.3217C203.476 57.3217 203.245 57.3919 203.077 57.5323C202.912 57.6728 202.83 57.8654 202.83 58.1102H201.09C201.09 57.733 201.207 57.3839 201.439 57.0628C201.672 56.7418 202.001 56.491 202.426 56.3104C202.852 56.1258 203.329 56.0335 203.859 56.0335C204.662 56.0335 205.298 56.2362 205.767 56.6415C206.241 57.0428 206.477 57.6086 206.477 58.3389V61.1619C206.481 61.7799 206.568 62.2474 206.736 62.5644V62.6667H204.979ZM203.54 61.4569C203.797 61.4569 204.034 61.4007 204.25 61.2883C204.467 61.172 204.628 61.0175 204.732 60.8249V59.7053H204.082C203.211 59.7053 202.748 60.0062 202.691 60.6082L202.685 60.7105C202.685 60.9272 202.762 61.1058 202.914 61.2462C203.067 61.3867 203.275 61.4569 203.54 61.4569ZM211.473 57.7851C211.237 57.753 211.028 57.737 210.847 57.737C210.189 57.737 209.758 57.9597 209.553 58.4051V62.6667H207.814V56.1539H209.457L209.505 56.9304C209.854 56.3325 210.338 56.0335 210.956 56.0335C211.148 56.0335 211.329 56.0596 211.498 56.1118L211.473 57.7851Z" fill="#EE3A2B"/>
<rect width="208" height="28" transform="translate(30 74.3333)" fill="white"/>
<path d="M35.0583 87.538H37.4508V89.5656H35.0583V92.3089H32.8483V89.5656H30.4488V87.538H32.8483V84.8719H35.0583V87.538ZM48.2556 89.3411H49.294V91.1653H48.2556V93.3333H45.8912V91.1653H41.9411L41.8008 89.72L45.8912 83.1389V83.1178H48.2556V89.3411ZM44.0529 89.3411H45.8912V86.1979L45.7438 86.4364L44.0529 89.3411ZM62.421 92.0704C62.0422 92.4913 61.4879 92.8304 60.7582 93.0877C60.0286 93.3449 59.2287 93.4736 58.3587 93.4736C57.021 93.4736 55.9522 93.0643 55.1524 92.2458C54.3526 91.4272 53.9246 90.2883 53.8684 88.8289L53.8614 87.9449C53.8614 86.9393 54.0392 86.0623 54.3946 85.3139C54.7501 84.5608 55.2576 83.9832 55.9171 83.5809C56.5813 83.174 57.3484 82.9705 58.2184 82.9705C59.4907 82.9705 60.4776 83.2628 61.1792 83.8475C61.8855 84.4275 62.2971 85.2952 62.414 86.4505H60.0426C59.9584 85.8798 59.776 85.4729 59.4953 85.2297C59.2147 84.9865 58.8171 84.8648 58.3026 84.8648C57.6852 84.8648 57.2081 85.1268 56.8713 85.6506C56.5346 86.1745 56.3638 86.9229 56.3591 87.8958V88.5132C56.3591 89.5329 56.5322 90.3 56.8783 90.8145C57.2291 91.3243 57.7787 91.5792 58.5271 91.5792C59.1679 91.5792 59.645 91.4366 59.9584 91.1513V89.5656H58.2465V87.8747H62.421V92.0704ZM66.4763 93.3333H64.0207V83.1178H66.4763V93.3333ZM76.5514 92.0704C76.1726 92.4913 75.6183 92.8304 74.8886 93.0877C74.1589 93.3449 73.3591 93.4736 72.4891 93.4736C71.1514 93.4736 70.0826 93.0643 69.2828 92.2458C68.4829 91.4272 68.055 90.2883 67.9988 88.8289L67.9918 87.9449C67.9918 86.9393 68.1695 86.0623 68.525 85.3139C68.8805 84.5608 69.388 83.9832 70.0475 83.5809C70.7117 83.174 71.4788 82.9705 72.3488 82.9705C73.621 82.9705 74.608 83.2628 75.3096 83.8475C76.0159 84.4275 76.4275 85.2952 76.5444 86.4505H74.173C74.0888 85.8798 73.9064 85.4729 73.6257 85.2297C73.3451 84.9865 72.9475 84.8648 72.433 84.8648C71.8156 84.8648 71.3385 85.1268 71.0017 85.6506C70.6649 86.1745 70.4942 86.9229 70.4895 87.8958V88.5132C70.4895 89.5329 70.6626 90.3 71.0087 90.8145C71.3595 91.3243 71.9091 91.5792 72.6575 91.5792C73.2983 91.5792 73.7754 91.4366 74.0888 91.1513V89.5656H72.3769V87.8747H76.5514V92.0704ZM83.785 91.4249H80.4103L79.8209 93.3333H77.1899L80.9365 83.1178H83.2518L87.0264 93.3333H84.3814L83.785 91.4249ZM80.9996 89.5235H83.1957L82.0941 85.9804L80.9996 89.5235ZM93.0462 90.618C93.0462 90.2579 92.9176 89.9772 92.6603 89.7761C92.4078 89.575 91.9611 89.3668 91.3203 89.1517C90.6795 88.9365 90.1556 88.7284 89.7487 88.5272C88.425 87.8771 87.7631 86.9837 87.7631 85.8471C87.7631 85.2811 87.9268 84.783 88.2542 84.3527C88.5863 83.9177 89.0541 83.5809 89.6575 83.3424C90.2608 83.0991 90.9391 82.9775 91.6921 82.9775C92.4265 82.9775 93.0837 83.1085 93.6636 83.3704C94.2483 83.6324 94.702 84.0065 95.0248 84.493C95.3475 84.9748 95.5089 85.5267 95.5089 86.1488H93.0532C93.0532 85.7325 92.9246 85.4098 92.6674 85.1806C92.4148 84.9514 92.071 84.8368 91.636 84.8368C91.1963 84.8368 90.8479 84.935 90.5906 85.1315C90.338 85.3232 90.2117 85.5688 90.2117 85.8681C90.2117 86.1301 90.3521 86.3686 90.6327 86.5838C90.9133 86.7943 91.4068 87.0141 92.1131 87.2433C92.8194 87.4678 93.3994 87.711 93.8531 87.973C94.9569 88.6091 95.5089 89.4861 95.5089 90.604C95.5089 91.4974 95.1721 92.199 94.4986 92.7088C93.825 93.2187 92.9012 93.4736 91.7272 93.4736C90.8993 93.4736 90.1486 93.3262 89.475 93.0316C88.8062 92.7322 88.301 92.3253 87.9596 91.8108C87.6228 91.2916 87.4544 90.6952 87.4544 90.0217H89.9241C89.9241 90.5689 90.0644 90.9735 90.345 91.2354C90.6304 91.4927 91.0911 91.6213 91.7272 91.6213C92.1341 91.6213 92.4545 91.5348 92.6884 91.3617C92.927 91.184 93.0462 90.9361 93.0462 90.618Z" fill="#222222" fill-opacity="0.8"/>
<path d="M171.971 81.2823H168.173V84.3882H172.585V85.3333H167.017V76.5692H172.525V77.5203H168.173V80.3373H171.971V81.2823ZM176.034 81.198L177.479 78.8204H178.779L176.648 82.0407L178.845 85.3333H177.557L176.052 82.8955L174.547 85.3333H173.253L175.45 82.0407L173.319 78.8204H174.608L176.034 81.198ZM182.457 84.5447C182.854 84.5447 183.201 84.4243 183.498 84.1836C183.795 83.9428 183.959 83.6418 183.992 83.2807H185.045C185.025 83.6539 184.896 84.009 184.66 84.3461C184.423 84.6832 184.106 84.952 183.709 85.1527C183.315 85.3533 182.898 85.4536 182.457 85.4536C181.57 85.4536 180.864 85.1587 180.338 84.5688C179.816 83.9749 179.555 83.1643 179.555 82.137V81.9504C179.555 81.3164 179.672 80.7526 179.904 80.259C180.137 79.7654 180.47 79.3822 180.904 79.1093C181.341 78.8365 181.857 78.7 182.451 78.7C183.181 78.7 183.787 78.9187 184.268 79.3561C184.754 79.7935 185.013 80.3614 185.045 81.0596H183.992C183.959 80.6382 183.799 80.2931 183.51 80.0243C183.225 79.7514 182.872 79.615 182.451 79.615C181.885 79.615 181.445 79.8196 181.132 80.2289C180.823 80.6342 180.669 81.2221 180.669 81.9926V82.2032C180.669 82.9536 180.823 83.5315 181.132 83.9368C181.441 84.3421 181.883 84.5447 182.457 84.5447ZM187.507 85.3333H186.393V76.0877H187.507V85.3333ZM193.315 84.6892C192.882 85.1988 192.246 85.4536 191.407 85.4536C190.713 85.4536 190.183 85.253 189.818 84.8517C189.457 84.4464 189.274 83.8485 189.27 83.058V78.8204H190.384V83.0279C190.384 84.015 190.785 84.5086 191.588 84.5086C192.439 84.5086 193.004 84.1916 193.285 83.5576V78.8204H194.399V85.3333H193.339L193.315 84.6892ZM199.888 83.6057C199.888 83.3048 199.774 83.072 199.545 82.9075C199.321 82.739 198.925 82.5945 198.359 82.4741C197.798 82.3537 197.35 82.2093 197.017 82.0407C196.688 81.8722 196.443 81.6715 196.283 81.4388C196.126 81.2061 196.048 80.9292 196.048 80.6081C196.048 80.0744 196.273 79.623 196.722 79.2538C197.176 78.8846 197.754 78.7 198.456 78.7C199.194 78.7 199.792 78.8906 200.25 79.2719C200.711 79.6531 200.942 80.1406 200.942 80.7345H199.822C199.822 80.4296 199.692 80.1667 199.431 79.946C199.174 79.7253 198.849 79.615 198.456 79.615C198.05 79.615 197.733 79.7032 197.505 79.8798C197.276 80.0564 197.162 80.2871 197.162 80.572C197.162 80.8409 197.268 81.0435 197.481 81.18C197.693 81.3164 198.077 81.4468 198.63 81.5712C199.188 81.6956 199.64 81.8441 199.985 82.0166C200.33 82.1892 200.585 82.3979 200.749 82.6426C200.918 82.8834 201.002 83.1784 201.002 83.5275C201.002 84.1093 200.769 84.5768 200.304 84.93C199.838 85.2791 199.234 85.4536 198.492 85.4536C197.97 85.4536 197.509 85.3613 197.107 85.1768C196.706 84.9922 196.391 84.7353 196.162 84.4063C195.938 84.0732 195.825 83.7141 195.825 83.3288H196.939C196.959 83.702 197.107 83.999 197.384 84.2197C197.665 84.4364 198.034 84.5447 198.492 84.5447C198.913 84.5447 199.25 84.4605 199.503 84.2919C199.76 84.1194 199.888 83.8906 199.888 83.6057ZM203.662 85.3333H202.549V78.8204H203.662V85.3333ZM202.459 77.0929C202.459 76.9123 202.513 76.7598 202.621 76.6354C202.733 76.511 202.898 76.4488 203.115 76.4488C203.331 76.4488 203.496 76.511 203.608 76.6354C203.721 76.7598 203.777 76.9123 203.777 77.0929C203.777 77.2735 203.721 77.424 203.608 77.5443C203.496 77.6647 203.331 77.7249 203.115 77.7249C202.898 77.7249 202.733 77.6647 202.621 77.5443C202.513 77.424 202.459 77.2735 202.459 77.0929ZM207.599 83.8224L209.212 78.8204H210.35L208.014 85.3333H207.166L204.806 78.8204H205.944L207.599 83.8224ZM211.03 82.0166C211.03 81.3786 211.154 80.8048 211.403 80.2951C211.656 79.7855 212.005 79.3923 212.451 79.1154C212.9 78.8385 213.412 78.7 213.985 78.7C214.872 78.7 215.589 79.007 216.134 79.621C216.684 80.2349 216.959 81.0516 216.959 82.0708V82.1491C216.959 82.7831 216.837 83.3529 216.592 83.8585C216.351 84.3601 216.004 84.7514 215.55 85.0323C215.101 85.3132 214.583 85.4536 213.997 85.4536C213.115 85.4536 212.398 85.1467 211.849 84.5327C211.303 83.9187 211.03 83.1061 211.03 82.0949V82.0166ZM212.15 82.1491C212.15 82.8714 212.316 83.4512 212.649 83.8886C212.986 84.326 213.436 84.5447 213.997 84.5447C214.563 84.5447 215.013 84.324 215.346 83.8826C215.679 83.4372 215.845 82.8152 215.845 82.0166C215.845 81.3024 215.675 80.7245 215.334 80.2831C214.997 79.8377 214.547 79.615 213.985 79.615C213.436 79.615 212.992 79.8337 212.655 80.2711C212.318 80.7085 212.15 81.3345 212.15 82.1491Z" fill="#222222" fill-opacity="0.8"/>
<path d="M172.531 96.137C172.531 97.1402 172.302 97.9448 171.845 98.5507C171.391 99.1527 170.777 99.4536 170.003 99.4536C169.345 99.4536 168.813 99.2249 168.408 98.7674V101.837H166.668V92.8204H168.281L168.341 93.4585C168.763 92.9528 169.313 92.7 169.991 92.7C170.793 92.7 171.417 92.997 171.863 93.5909C172.308 94.1848 172.531 95.0034 172.531 96.0467V96.137ZM170.791 96.0106C170.791 95.4047 170.683 94.9372 170.466 94.6081C170.254 94.2791 169.943 94.1146 169.533 94.1146C168.988 94.1146 168.612 94.3232 168.408 94.7406V97.4071C168.62 97.8365 169 98.0512 169.545 98.0512C170.376 98.0512 170.791 97.371 170.791 96.0106ZM177.388 99.3333C177.308 99.1768 177.25 98.9821 177.214 98.7494C176.793 99.2189 176.245 99.4536 175.571 99.4536C174.933 99.4536 174.403 99.269 173.982 98.8999C173.564 98.5307 173.356 98.0652 173.356 97.5034C173.356 96.8132 173.61 96.2835 174.12 95.9143C174.634 95.5451 175.374 95.3585 176.341 95.3545H177.142V94.9813C177.142 94.6804 177.063 94.4396 176.907 94.259C176.754 94.0784 176.512 93.9882 176.179 93.9882C175.886 93.9882 175.655 94.0584 175.486 94.1988C175.322 94.3393 175.24 94.5319 175.24 94.7767H173.5C173.5 94.3995 173.616 94.0504 173.849 93.7293C174.082 93.4083 174.411 93.1575 174.836 92.9769C175.262 92.7923 175.739 92.7 176.269 92.7C177.071 92.7 177.707 92.9027 178.177 93.308C178.65 93.7093 178.887 94.2751 178.887 95.0054V97.8284C178.891 98.4464 178.978 98.9139 179.146 99.2309V99.3333H177.388ZM175.95 98.1234C176.207 98.1234 176.443 98.0672 176.66 97.9548C176.877 97.8385 177.037 97.684 177.142 97.4914V96.3718H176.492C175.621 96.3718 175.157 96.6727 175.101 97.2747L175.095 97.377C175.095 97.5937 175.171 97.7723 175.324 97.9127C175.476 98.0532 175.685 98.1234 175.95 98.1234ZM183.883 94.4516C183.646 94.4195 183.438 94.4035 183.257 94.4035C182.599 94.4035 182.168 94.6262 181.963 95.0716V99.3333H180.223V92.8204H181.867L181.915 93.5969C182.264 92.999 182.748 92.7 183.366 92.7C183.558 92.7 183.739 92.7261 183.907 92.7783L183.883 94.4516ZM188.319 99.3333C188.239 99.1768 188.181 98.9821 188.145 98.7494C187.723 99.2189 187.176 99.4536 186.502 99.4536C185.864 99.4536 185.334 99.269 184.912 98.8999C184.495 98.5307 184.286 98.0652 184.286 97.5034C184.286 96.8132 184.541 96.2835 185.051 95.9143C185.565 95.5451 186.305 95.3585 187.272 95.3545H188.073V94.9813C188.073 94.6804 187.994 94.4396 187.838 94.259C187.685 94.0784 187.443 93.9882 187.11 93.9882C186.817 93.9882 186.586 94.0584 186.417 94.1988C186.253 94.3393 186.171 94.5319 186.171 94.7767H184.431C184.431 94.3995 184.547 94.0504 184.78 93.7293C185.013 93.4083 185.342 93.1575 185.767 92.9769C186.193 92.7923 186.67 92.7 187.2 92.7C188.002 92.7 188.638 92.9027 189.108 93.308C189.581 93.7093 189.818 94.2751 189.818 95.0054V97.8284C189.822 98.4464 189.908 98.9139 190.077 99.2309V99.3333H188.319ZM186.881 98.1234C187.138 98.1234 187.374 98.0672 187.591 97.9548C187.808 97.8385 187.968 97.684 188.073 97.4914V96.3718H187.423C186.552 96.3718 186.088 96.6727 186.032 97.2747L186.026 97.377C186.026 97.5937 186.102 97.7723 186.255 97.9127C186.407 98.0532 186.616 98.1234 186.881 98.1234ZM197.884 94.4516C197.647 94.4195 197.439 94.4035 197.258 94.4035C196.6 94.4035 196.168 94.6262 195.964 95.0716V99.3333H194.224V92.8204H195.868L195.916 93.5969C196.265 92.999 196.748 92.7 197.366 92.7C197.559 92.7 197.739 92.7261 197.908 92.7783L197.884 94.4516ZM201.604 99.4536C200.649 99.4536 199.87 99.1607 199.268 98.5748C198.67 97.989 198.372 97.2085 198.372 96.2333V96.0648C198.372 95.4107 198.498 94.8268 198.751 94.3132C199.004 93.7955 199.361 93.3983 199.822 93.1214C200.288 92.8405 200.817 92.7 201.411 92.7C202.302 92.7 203.002 92.9809 203.512 93.5427C204.026 94.1045 204.282 94.9011 204.282 95.9324V96.6426H200.135C200.191 97.068 200.36 97.4091 200.641 97.6659C200.926 97.9227 201.285 98.0512 201.718 98.0512C202.388 98.0512 202.912 97.8084 203.289 97.3228L204.144 98.2799C203.883 98.6491 203.53 98.938 203.085 99.1467C202.639 99.3513 202.146 99.4536 201.604 99.4536ZM201.405 94.1085C201.06 94.1085 200.779 94.2249 200.563 94.4577C200.35 94.6904 200.213 95.0235 200.153 95.4569H202.573V95.3184C202.565 94.9332 202.461 94.6362 202.26 94.4276C202.059 94.2149 201.774 94.1085 201.405 94.1085ZM205.005 96.0287C205.005 95.0134 205.231 94.2049 205.685 93.6029C206.142 93.001 206.766 92.7 207.557 92.7C208.191 92.7 208.715 92.9368 209.128 93.4103V90.0877H210.874V99.3333H209.302L209.218 98.641C208.785 99.1828 208.227 99.4536 207.545 99.4536C206.778 99.4536 206.162 99.1527 205.697 98.5507C205.235 97.9448 205.005 97.1041 205.005 96.0287ZM206.744 96.1551C206.744 96.765 206.851 97.2325 207.063 97.5576C207.276 97.8826 207.585 98.0451 207.99 98.0451C208.528 98.0451 208.907 97.8184 209.128 97.365V94.7947C208.911 94.3413 208.536 94.1146 208.002 94.1146C207.164 94.1146 206.744 94.7947 206.744 96.1551ZM215.219 99.4536C214.264 99.4536 213.486 99.1607 212.884 98.5748C212.286 97.989 211.987 97.2085 211.987 96.2333V96.0648C211.987 95.4107 212.113 94.8268 212.366 94.3132C212.619 93.7955 212.976 93.3983 213.438 93.1214C213.903 92.8405 214.433 92.7 215.027 92.7C215.918 92.7 216.618 92.9809 217.128 93.5427C217.641 94.1045 217.898 94.9011 217.898 95.9324V96.6426H213.751C213.807 97.068 213.975 97.4091 214.256 97.6659C214.541 97.9227 214.9 98.0512 215.334 98.0512C216.004 98.0512 216.528 97.8084 216.905 97.3228L217.76 98.2799C217.499 98.6491 217.146 98.938 216.7 99.1467C216.255 99.3513 215.761 99.4536 215.219 99.4536ZM215.021 94.1085C214.676 94.1085 214.395 94.2249 214.178 94.4577C213.965 94.6904 213.829 95.0235 213.769 95.4569H216.188V95.3184C216.18 94.9332 216.076 94.6362 215.875 94.4276C215.675 94.2149 215.39 94.1085 215.021 94.1085ZM222.418 97.5335C222.418 97.3208 222.312 97.1543 222.099 97.0339C221.891 96.9095 221.554 96.7991 221.088 96.7028C219.539 96.3778 218.765 95.7197 218.765 94.7285C218.765 94.1507 219.004 93.6691 219.481 93.2839C219.963 92.8947 220.591 92.7 221.365 92.7C222.192 92.7 222.852 92.8947 223.345 93.2839C223.843 93.6732 224.092 94.1788 224.092 94.8008H222.352C222.352 94.552 222.272 94.3473 222.111 94.1868C221.951 94.0223 221.7 93.94 221.359 93.94C221.066 93.94 220.839 94.0062 220.679 94.1386C220.518 94.2711 220.438 94.4396 220.438 94.6443C220.438 94.8369 220.528 94.9934 220.709 95.1138C220.894 95.2301 221.203 95.3325 221.636 95.4207C222.069 95.505 222.434 95.6013 222.731 95.7097C223.65 96.0467 224.11 96.6306 224.11 97.4613C224.11 98.0552 223.855 98.5367 223.345 98.9059C222.836 99.2711 222.178 99.4536 221.371 99.4536C220.825 99.4536 220.34 99.3573 219.914 99.1647C219.493 98.9681 219.162 98.7012 218.921 98.3642C218.68 98.0231 218.56 97.6559 218.56 97.2626H220.209C220.225 97.5716 220.34 97.8084 220.552 97.9729C220.765 98.1374 221.05 98.2197 221.407 98.2197C221.74 98.2197 221.991 98.1575 222.16 98.0331C222.332 97.9047 222.418 97.7382 222.418 97.5335Z" fill="#EE392A"/>
<rect width="208" height="28" transform="translate(30 111)" fill="white"/>
<path d="M35.7373 124.205H38.1297V126.232H35.7373V128.976H33.5272V126.232H31.1277V124.205H33.5272V121.539H35.7373V124.205ZM47.9312 130H45.5598V122.451L43.2304 123.131V121.335L47.7137 119.785H47.9312V130ZM51.1516 125.005L51.776 119.785H57.7467V121.623H53.6984L53.4669 123.65C53.6353 123.552 53.8551 123.466 54.1264 123.391C54.4024 123.316 54.6713 123.279 54.9332 123.279C55.9482 123.279 56.727 123.58 57.2696 124.184C57.8169 124.782 58.0905 125.624 58.0905 126.709C58.0905 127.364 57.9431 127.958 57.6485 128.492C57.3585 129.02 56.9492 129.427 56.4207 129.712C55.8921 129.998 55.2677 130.14 54.5474 130.14C53.9066 130.14 53.3055 130.009 52.7442 129.747C52.1829 129.481 51.7433 129.118 51.4252 128.66C51.1071 128.197 50.9505 127.675 50.9551 127.095H53.3266C53.35 127.47 53.4692 127.767 53.6844 127.986C53.8995 128.206 54.1825 128.316 54.5333 128.316C55.3285 128.316 55.7261 127.727 55.7261 126.548C55.7261 125.458 55.2396 124.913 54.2667 124.913C53.7148 124.913 53.3032 125.091 53.0319 125.447L51.1516 125.005ZM71.421 128.737C71.0422 129.158 70.4879 129.497 69.7582 129.754C69.0286 130.012 68.2287 130.14 67.3587 130.14C66.021 130.14 64.9522 129.731 64.1524 128.913C63.3525 128.094 62.9246 126.955 62.8684 125.496L62.8614 124.612C62.8614 123.606 63.0392 122.729 63.3946 121.981C63.7501 121.228 64.2576 120.65 64.9171 120.248C65.5813 119.841 66.3484 119.637 67.2184 119.637C68.4907 119.637 69.4776 119.93 70.1792 120.514C70.8855 121.094 71.2971 121.962 71.414 123.117H69.0426C68.9584 122.547 68.776 122.14 68.4953 121.896C68.2147 121.653 67.8171 121.532 67.3026 121.532C66.6852 121.532 66.2081 121.794 65.8713 122.317C65.5345 122.841 65.3638 123.59 65.3591 124.563V125.18C65.3591 126.2 65.5322 126.967 65.8783 127.481C66.2291 127.991 66.7787 128.246 67.5271 128.246C68.1679 128.246 68.645 128.103 68.9584 127.818V126.232H67.2465V124.541H71.421V128.737ZM75.4763 130H73.0207V119.785H75.4763V130ZM85.5514 128.737C85.1726 129.158 84.6183 129.497 83.8886 129.754C83.1589 130.012 82.3591 130.14 81.4891 130.14C80.1514 130.14 79.0826 129.731 78.2828 128.913C77.4829 128.094 77.0549 126.955 76.9988 125.496L76.9918 124.612C76.9918 123.606 77.1695 122.729 77.525 121.981C77.8805 121.228 78.388 120.65 79.0475 120.248C79.7117 119.841 80.4788 119.637 81.3488 119.637C82.621 119.637 83.608 119.93 84.3096 120.514C85.0159 121.094 85.4275 121.962 85.5444 123.117H83.173C83.0888 122.547 82.9064 122.14 82.6257 121.896C82.3451 121.653 81.9475 121.532 81.433 121.532C80.8156 121.532 80.3385 121.794 80.0017 122.317C79.6649 122.841 79.4942 123.59 79.4895 124.563V125.18C79.4895 126.2 79.6626 126.967 80.0087 127.481C80.3595 127.991 80.9091 128.246 81.6575 128.246C82.2983 128.246 82.7754 128.103 83.0888 127.818V126.232H81.3769V124.541H85.5514V128.737ZM92.785 128.092H89.4103L88.8209 130H86.1899L89.9365 119.785H92.2518L96.0264 130H93.3814L92.785 128.092ZM89.9996 126.19H92.1956L91.0941 122.647L89.9996 126.19ZM102.046 127.285C102.046 126.925 101.918 126.644 101.66 126.443C101.408 126.242 100.961 126.034 100.32 125.818C99.6795 125.603 99.1556 125.395 98.7487 125.194C97.425 124.544 96.7631 123.65 96.7631 122.514C96.7631 121.948 96.9268 121.45 97.2542 121.019C97.5863 120.584 98.0541 120.248 98.6575 120.009C99.2608 119.766 99.9391 119.644 100.692 119.644C101.426 119.644 102.084 119.775 102.664 120.037C103.248 120.299 103.702 120.673 104.025 121.16C104.347 121.642 104.509 122.193 104.509 122.816H102.053C102.053 122.399 101.925 122.077 101.667 121.847C101.415 121.618 101.071 121.504 100.636 121.504C100.196 121.504 99.8479 121.602 99.5906 121.798C99.338 121.99 99.2117 122.236 99.2117 122.535C99.2117 122.797 99.352 123.035 99.6327 123.251C99.9133 123.461 100.407 123.681 101.113 123.91C101.819 124.135 102.399 124.378 102.853 124.64C103.957 125.276 104.509 126.153 104.509 127.271C104.509 128.164 104.172 128.866 103.499 129.376C102.825 129.885 101.901 130.14 100.727 130.14C99.8993 130.14 99.1486 129.993 98.475 129.698C97.8062 129.399 97.301 128.992 96.9596 128.478C96.6228 127.958 96.4544 127.362 96.4544 126.688H98.9241C98.9241 127.236 99.0644 127.64 99.345 127.902C99.6304 128.159 100.091 128.288 100.727 128.288C101.134 128.288 101.455 128.202 101.688 128.028C101.927 127.851 102.046 127.603 102.046 127.285Z" fill="#222222" fill-opacity="0.8"/>
<path d="M167.017 122V113.236H169.491C170.254 113.236 170.928 113.405 171.514 113.742C172.1 114.079 172.551 114.558 172.868 115.18C173.189 115.802 173.352 116.516 173.356 117.323V117.883C173.356 118.709 173.195 119.434 172.874 120.056C172.557 120.678 172.102 121.155 171.508 121.488C170.918 121.821 170.23 121.992 169.443 122H167.017ZM168.173 114.187V121.055H169.389C170.28 121.055 170.972 120.778 171.465 120.224C171.963 119.671 172.212 118.882 172.212 117.859V117.347C172.212 116.352 171.977 115.579 171.508 115.03C171.042 114.476 170.38 114.195 169.521 114.187H168.173ZM177.635 122.12C176.752 122.12 176.034 121.831 175.48 121.254C174.927 120.672 174.65 119.895 174.65 118.924V118.72C174.65 118.073 174.772 117.498 175.017 116.992C175.266 116.482 175.611 116.085 176.052 115.8C176.498 115.511 176.979 115.367 177.497 115.367C178.343 115.367 179.002 115.646 179.471 116.203C179.941 116.761 180.175 117.56 180.175 118.599V119.063H175.763C175.779 119.705 175.966 120.224 176.323 120.622C176.684 121.015 177.142 121.211 177.695 121.211C178.089 121.211 178.422 121.131 178.695 120.971C178.967 120.81 179.206 120.598 179.411 120.333L180.091 120.862C179.545 121.701 178.727 122.12 177.635 122.12ZM177.497 116.282C177.047 116.282 176.67 116.446 176.365 116.775C176.06 117.1 175.872 117.558 175.799 118.148H179.062V118.063C179.03 117.498 178.877 117.06 178.604 116.751C178.331 116.438 177.962 116.282 177.497 116.282ZM187.675 116.486C187.507 116.458 187.324 116.444 187.128 116.444C186.397 116.444 185.902 116.755 185.641 117.377V122H184.527V115.487H185.611L185.629 116.24C185.994 115.658 186.512 115.367 187.182 115.367C187.398 115.367 187.563 115.395 187.675 115.451V116.486ZM191.287 122.12C190.404 122.12 189.686 121.831 189.132 121.254C188.578 120.672 188.301 119.895 188.301 118.924V118.72C188.301 118.073 188.424 117.498 188.668 116.992C188.917 116.482 189.262 116.085 189.704 115.8C190.149 115.511 190.631 115.367 191.148 115.367C191.995 115.367 192.653 115.646 193.123 116.203C193.592 116.761 193.827 117.56 193.827 118.599V119.063H189.415C189.431 119.705 189.618 120.224 189.975 120.622C190.336 121.015 190.793 121.211 191.347 121.211C191.74 121.211 192.073 121.131 192.346 120.971C192.619 120.81 192.858 120.598 193.063 120.333L193.743 120.862C193.197 121.701 192.378 122.12 191.287 122.12ZM191.148 116.282C190.699 116.282 190.322 116.446 190.017 116.775C189.712 117.1 189.523 117.558 189.451 118.148H192.713V118.063C192.681 117.498 192.529 117.06 192.256 116.751C191.983 116.438 191.614 116.282 191.148 116.282ZM194.856 118.689C194.856 117.674 195.091 116.868 195.561 116.27C196.03 115.668 196.652 115.367 197.426 115.367C198.221 115.367 198.841 115.648 199.286 116.209L199.341 115.487H200.358V121.843C200.358 122.686 200.107 123.35 199.605 123.836C199.108 124.321 198.438 124.564 197.595 124.564C197.126 124.564 196.666 124.464 196.217 124.263C195.767 124.063 195.424 123.788 195.187 123.439L195.765 122.77C196.243 123.36 196.827 123.655 197.517 123.655C198.059 123.655 198.48 123.503 198.781 123.198C199.086 122.893 199.238 122.463 199.238 121.91V121.35C198.793 121.864 198.185 122.12 197.414 122.12C196.652 122.12 196.034 121.813 195.561 121.199C195.091 120.585 194.856 119.749 194.856 118.689ZM195.976 118.816C195.976 119.55 196.126 120.128 196.427 120.549C196.728 120.967 197.15 121.175 197.691 121.175C198.394 121.175 198.909 120.856 199.238 120.218V117.245C198.897 116.623 198.386 116.312 197.703 116.312C197.162 116.312 196.738 116.522 196.433 116.944C196.128 117.365 195.976 117.989 195.976 118.816ZM206.064 122C206 121.872 205.948 121.643 205.908 121.314C205.39 121.852 204.772 122.12 204.054 122.12C203.412 122.12 202.884 121.94 202.471 121.579C202.061 121.213 201.857 120.752 201.857 120.194C201.857 119.516 202.113 118.99 202.627 118.617C203.145 118.24 203.871 118.051 204.806 118.051H205.89V117.54C205.89 117.15 205.773 116.842 205.54 116.613C205.308 116.38 204.965 116.264 204.511 116.264C204.114 116.264 203.781 116.364 203.512 116.565C203.243 116.765 203.109 117.008 203.109 117.293H201.989C201.989 116.968 202.103 116.655 202.332 116.354C202.565 116.049 202.878 115.808 203.271 115.632C203.668 115.455 204.104 115.367 204.577 115.367C205.328 115.367 205.916 115.555 206.341 115.933C206.766 116.306 206.987 116.821 207.003 117.48V120.477C207.003 121.075 207.079 121.551 207.232 121.904V122H206.064ZM204.216 121.151C204.565 121.151 204.896 121.061 205.209 120.88C205.522 120.7 205.749 120.465 205.89 120.176V118.84H205.017C203.652 118.84 202.97 119.239 202.97 120.038C202.97 120.387 203.087 120.66 203.319 120.856C203.552 121.053 203.851 121.151 204.216 121.151ZM209.959 122H208.845V112.754H209.959V122ZM211.451 118.683C211.451 118.045 211.576 117.472 211.825 116.962C212.077 116.452 212.426 116.059 212.872 115.782C213.321 115.505 213.833 115.367 214.407 115.367C215.294 115.367 216.01 115.674 216.556 116.288C217.105 116.902 217.38 117.718 217.38 118.738V118.816C217.38 119.45 217.258 120.02 217.013 120.525C216.772 121.027 216.425 121.418 215.972 121.699C215.522 121.98 215.005 122.12 214.419 122.12C213.536 122.12 212.82 121.813 212.27 121.199C211.724 120.585 211.451 119.773 211.451 118.762V118.683ZM212.571 118.816C212.571 119.538 212.737 120.118 213.071 120.555C213.408 120.993 213.857 121.211 214.419 121.211C214.985 121.211 215.434 120.991 215.767 120.549C216.1 120.104 216.267 119.482 216.267 118.683C216.267 117.969 216.096 117.391 215.755 116.95C215.418 116.504 214.969 116.282 214.407 116.282C213.857 116.282 213.414 116.5 213.077 116.938C212.739 117.375 212.571 118.001 212.571 118.816Z" fill="#222222" fill-opacity="0.8"/>
<path d="M172.531 132.804C172.531 133.807 172.302 134.612 171.845 135.217C171.391 135.819 170.777 136.12 170.003 136.12C169.345 136.12 168.813 135.892 168.408 135.434V138.504H166.668V129.487H168.281L168.341 130.125C168.763 129.62 169.313 129.367 169.991 129.367C170.793 129.367 171.417 129.664 171.863 130.258C172.308 130.852 172.531 131.67 172.531 132.713V132.804ZM170.791 132.677C170.791 132.071 170.683 131.604 170.466 131.275C170.254 130.946 169.943 130.781 169.533 130.781C168.988 130.781 168.612 130.99 168.408 131.407V134.074C168.62 134.503 169 134.718 169.545 134.718C170.376 134.718 170.791 134.038 170.791 132.677ZM173.343 132.683C173.343 132.037 173.468 131.461 173.717 130.956C173.965 130.45 174.323 130.059 174.788 129.782C175.258 129.505 175.801 129.367 176.419 129.367C177.298 129.367 178.014 129.636 178.568 130.173C179.126 130.711 179.437 131.441 179.501 132.364L179.513 132.81C179.513 133.809 179.234 134.612 178.677 135.217C178.119 135.819 177.37 136.12 176.431 136.12C175.492 136.12 174.742 135.819 174.18 135.217C173.622 134.616 173.343 133.797 173.343 132.762V132.683ZM175.083 132.81C175.083 133.428 175.199 133.901 175.432 134.23C175.665 134.555 175.998 134.718 176.431 134.718C176.853 134.718 177.182 134.557 177.419 134.236C177.655 133.911 177.774 133.394 177.774 132.683C177.774 132.077 177.655 131.608 177.419 131.275C177.182 130.942 176.849 130.775 176.419 130.775C175.994 130.775 175.665 130.942 175.432 131.275C175.199 131.604 175.083 132.116 175.083 132.81ZM184.244 131.118C184.008 131.086 183.799 131.07 183.618 131.07C182.96 131.07 182.529 131.293 182.324 131.738V136H180.585V129.487H182.228L182.276 130.264C182.625 129.666 183.109 129.367 183.727 129.367C183.919 129.367 184.1 129.393 184.268 129.445L184.244 131.118ZM192.31 136H190.571V129.295L188.494 129.939V128.524L192.124 127.224H192.31V136ZM199.937 129.487L199.991 130.216C200.452 129.65 201.076 129.367 201.863 129.367C202.701 129.367 203.277 129.698 203.59 130.36C204.048 129.698 204.7 129.367 205.546 129.367C206.253 129.367 206.778 129.573 207.124 129.987C207.469 130.396 207.641 131.014 207.641 131.841V136H205.896V131.847C205.896 131.478 205.823 131.209 205.679 131.04C205.534 130.868 205.28 130.781 204.914 130.781C204.393 130.781 204.032 131.03 203.831 131.528L203.837 136H202.097V131.853C202.097 131.476 202.023 131.203 201.875 131.034C201.726 130.866 201.473 130.781 201.116 130.781C200.623 130.781 200.266 130.986 200.045 131.395V136H198.305V129.487H199.937ZM211.981 136.12C211.026 136.12 210.248 135.827 209.646 135.242C209.048 134.656 208.749 133.875 208.749 132.9V132.732C208.749 132.077 208.875 131.494 209.128 130.98C209.381 130.462 209.738 130.065 210.199 129.788C210.665 129.507 211.195 129.367 211.788 129.367C212.679 129.367 213.38 129.648 213.889 130.209C214.403 130.771 214.66 131.568 214.66 132.599V133.309H210.512C210.569 133.735 210.737 134.076 211.018 134.333C211.303 134.589 211.662 134.718 212.095 134.718C212.766 134.718 213.289 134.475 213.666 133.99L214.521 134.947C214.26 135.316 213.907 135.605 213.462 135.813C213.016 136.018 212.523 136.12 211.981 136.12ZM211.782 130.775C211.437 130.775 211.156 130.892 210.94 131.124C210.727 131.357 210.591 131.69 210.53 132.124H212.95V131.985C212.942 131.6 212.838 131.303 212.637 131.094C212.437 130.882 212.152 130.775 211.782 130.775ZM219.18 134.2C219.18 133.988 219.074 133.821 218.861 133.701C218.652 133.576 218.315 133.466 217.85 133.37C216.301 133.045 215.526 132.386 215.526 131.395C215.526 130.817 215.765 130.336 216.243 129.951C216.724 129.561 217.352 129.367 218.127 129.367C218.953 129.367 219.613 129.561 220.107 129.951C220.605 130.34 220.853 130.846 220.853 131.468H219.114C219.114 131.219 219.034 131.014 218.873 130.854C218.713 130.689 218.462 130.607 218.121 130.607C217.828 130.607 217.601 130.673 217.441 130.805C217.28 130.938 217.2 131.106 217.2 131.311C217.2 131.504 217.29 131.66 217.471 131.781C217.655 131.897 217.964 131.999 218.398 132.087C218.831 132.172 219.196 132.268 219.493 132.376C220.412 132.713 220.871 133.297 220.871 134.128C220.871 134.722 220.617 135.203 220.107 135.573C219.597 135.938 218.939 136.12 218.133 136.12C217.587 136.12 217.101 136.024 216.676 135.831C216.255 135.635 215.924 135.368 215.683 135.031C215.442 134.69 215.322 134.323 215.322 133.929H216.971C216.987 134.238 217.101 134.475 217.314 134.64C217.527 134.804 217.812 134.886 218.169 134.886C218.502 134.886 218.753 134.824 218.921 134.7C219.094 134.571 219.18 134.405 219.18 134.2Z" fill="#EE3A2B"/>
<rect width="228" height="28" transform="translate(32 148)" fill="white"/>
<path d="M37.0583 161.205H39.4508V163.232H37.0583V165.976H34.8483V163.232H32.4488V161.205H34.8483V158.539H37.0583V161.205ZM44.1516 162.005L44.776 156.785H50.7467V158.623H46.6984L46.4669 160.65C46.6353 160.552 46.8551 160.466 47.1264 160.391C47.4024 160.316 47.6713 160.279 47.9333 160.279C48.9482 160.279 49.727 160.58 50.2696 161.184C50.8169 161.782 51.0905 162.624 51.0905 163.709C51.0905 164.364 50.9432 164.958 50.6485 165.492C50.3585 166.02 49.9492 166.427 49.4207 166.712C48.8921 166.998 48.2677 167.14 47.5474 167.14C46.9066 167.14 46.3055 167.009 45.7442 166.747C45.1829 166.481 44.7433 166.118 44.4252 165.66C44.1072 165.197 43.9505 164.675 43.9551 164.095H46.3266C46.35 164.47 46.4692 164.767 46.6844 164.986C46.8996 165.206 47.1825 165.316 47.5333 165.316C48.3285 165.316 48.7261 164.727 48.7261 163.548C48.7261 162.458 48.2396 161.913 47.2667 161.913C46.7148 161.913 46.3032 162.091 46.0319 162.447L44.1516 162.005ZM64.421 165.737C64.0422 166.158 63.4879 166.497 62.7582 166.754C62.0286 167.012 61.2287 167.14 60.3587 167.14C59.021 167.14 57.9522 166.731 57.1524 165.913C56.3526 165.094 55.9246 163.955 55.8684 162.496L55.8614 161.612C55.8614 160.606 56.0392 159.729 56.3946 158.981C56.7501 158.228 57.2576 157.65 57.9171 157.248C58.5813 156.841 59.3484 156.637 60.2184 156.637C61.4907 156.637 62.4776 156.93 63.1792 157.514C63.8855 158.094 64.2971 158.962 64.414 160.117H62.0426C61.9584 159.547 61.776 159.14 61.4953 158.896C61.2147 158.653 60.8171 158.532 60.3026 158.532C59.6852 158.532 59.2081 158.794 58.8713 159.317C58.5346 159.841 58.3638 160.59 58.3591 161.563V162.18C58.3591 163.2 58.5322 163.967 58.8783 164.481C59.2291 164.991 59.7787 165.246 60.5271 165.246C61.1679 165.246 61.645 165.103 61.9584 164.818V163.232H60.2465V161.541H64.421V165.737ZM68.4763 167H66.0207V156.785H68.4763V167ZM78.5514 165.737C78.1726 166.158 77.6183 166.497 76.8886 166.754C76.1589 167.012 75.3591 167.14 74.4891 167.14C73.1514 167.14 72.0826 166.731 71.2828 165.913C70.4829 165.094 70.055 163.955 69.9988 162.496L69.9918 161.612C69.9918 160.606 70.1695 159.729 70.525 158.981C70.8805 158.228 71.388 157.65 72.0475 157.248C72.7117 156.841 73.4788 156.637 74.3488 156.637C75.621 156.637 76.608 156.93 77.3096 157.514C78.0159 158.094 78.4275 158.962 78.5444 160.117H76.173C76.0888 159.547 75.9064 159.14 75.6257 158.896C75.3451 158.653 74.9475 158.532 74.433 158.532C73.8156 158.532 73.3385 158.794 73.0017 159.317C72.6649 159.841 72.4942 160.59 72.4895 161.563V162.18C72.4895 163.2 72.6626 163.967 73.0087 164.481C73.3595 164.991 73.9091 165.246 74.6575 165.246C75.2983 165.246 75.7754 165.103 76.0888 164.818V163.232H74.3769V161.541H78.5514V165.737ZM85.785 165.092H82.4103L81.8209 167H79.1899L82.9365 156.785H85.2518L89.0264 167H86.3814L85.785 165.092ZM82.9996 163.19H85.1957L84.0941 159.647L82.9996 163.19ZM95.0462 164.285C95.0462 163.925 94.9176 163.644 94.6603 163.443C94.4078 163.242 93.9611 163.034 93.3203 162.818C92.6795 162.603 92.1556 162.395 91.7487 162.194C90.425 161.544 89.7631 160.65 89.7631 159.514C89.7631 158.948 89.9268 158.45 90.2542 158.019C90.5863 157.584 91.0541 157.248 91.6575 157.009C92.2608 156.766 92.9391 156.644 93.6921 156.644C94.4265 156.644 95.0837 156.775 95.6636 157.037C96.2483 157.299 96.702 157.673 97.0248 158.16C97.3475 158.642 97.5089 159.193 97.5089 159.816H95.0532C95.0532 159.399 94.9246 159.077 94.6674 158.847C94.4148 158.618 94.071 158.504 93.636 158.504C93.1963 158.504 92.8479 158.602 92.5906 158.798C92.338 158.99 92.2117 159.236 92.2117 159.535C92.2117 159.797 92.3521 160.035 92.6327 160.251C92.9133 160.461 93.4068 160.681 94.1131 160.91C94.8194 161.135 95.3994 161.378 95.8531 161.64C96.9569 162.276 97.5089 163.153 97.5089 164.271C97.5089 165.164 97.1721 165.866 96.4986 166.376C95.825 166.885 94.9012 167.14 93.7272 167.14C92.8993 167.14 92.1486 166.993 91.475 166.698C90.8062 166.399 90.301 165.992 89.9596 165.478C89.6228 164.958 89.4544 164.362 89.4544 163.688H91.9241C91.9241 164.236 92.0644 164.64 92.345 164.902C92.6304 165.159 93.0911 165.288 93.7272 165.288C94.1341 165.288 94.4545 165.202 94.6884 165.028C94.927 164.851 95.0462 164.603 95.0462 164.285Z" fill="#222222" fill-opacity="0.8"/>
<path d="M170.173 155.569V159H169.017V150.236H172.25C173.209 150.236 173.959 150.481 174.501 150.97C175.047 151.46 175.319 152.108 175.319 152.915C175.319 153.765 175.053 154.421 174.519 154.883C173.989 155.34 173.229 155.569 172.238 155.569H170.173ZM170.173 154.624H172.25C172.868 154.624 173.341 154.48 173.67 154.191C173.999 153.898 174.164 153.476 174.164 152.927C174.164 152.405 173.999 151.988 173.67 151.675C173.341 151.362 172.89 151.199 172.316 151.187H170.173V154.624ZM180.568 159C180.504 158.872 180.452 158.643 180.412 158.314C179.894 158.852 179.276 159.12 178.558 159.12C177.916 159.12 177.388 158.94 176.975 158.579C176.565 158.213 176.361 157.752 176.361 157.194C176.361 156.516 176.618 155.99 177.131 155.617C177.649 155.24 178.375 155.051 179.31 155.051H180.394V154.54C180.394 154.15 180.277 153.842 180.045 153.613C179.812 153.38 179.469 153.264 179.015 153.264C178.618 153.264 178.285 153.364 178.016 153.565C177.747 153.765 177.613 154.008 177.613 154.293H176.493C176.493 153.968 176.608 153.655 176.836 153.354C177.069 153.049 177.382 152.808 177.775 152.632C178.173 152.455 178.608 152.367 179.081 152.367C179.832 152.367 180.42 152.555 180.845 152.933C181.27 153.306 181.491 153.821 181.507 154.48V157.477C181.507 158.075 181.583 158.551 181.736 158.904V159H180.568ZM178.72 158.151C179.069 158.151 179.4 158.061 179.713 157.88C180.026 157.7 180.253 157.465 180.394 157.176V155.84H179.521C178.156 155.84 177.474 156.239 177.474 157.038C177.474 157.387 177.591 157.66 177.823 157.856C178.056 158.053 178.355 158.151 178.72 158.151ZM186.401 153.486C186.232 153.458 186.05 153.444 185.853 153.444C185.123 153.444 184.627 153.755 184.366 154.377V159H183.253V152.487H184.336L184.354 153.24C184.719 152.658 185.237 152.367 185.907 152.367C186.124 152.367 186.288 152.395 186.401 152.451V153.486ZM191.21 159C191.146 158.872 191.094 158.643 191.054 158.314C190.536 158.852 189.918 159.12 189.2 159.12C188.558 159.12 188.03 158.94 187.617 158.579C187.207 158.213 187.003 157.752 187.003 157.194C187.003 156.516 187.26 155.99 187.773 155.617C188.291 155.24 189.017 155.051 189.952 155.051H191.036V154.54C191.036 154.15 190.919 153.842 190.687 153.613C190.454 153.38 190.111 153.264 189.657 153.264C189.26 153.264 188.927 153.364 188.658 153.565C188.389 153.765 188.255 154.008 188.255 154.293H187.135C187.135 153.968 187.25 153.655 187.478 153.354C187.711 153.049 188.024 152.808 188.417 152.632C188.815 152.455 189.25 152.367 189.723 152.367C190.474 152.367 191.062 152.555 191.487 152.933C191.912 153.306 192.133 153.821 192.149 154.48V157.477C192.149 158.075 192.225 158.551 192.378 158.904V159H191.21ZM189.362 158.151C189.711 158.151 190.042 158.061 190.355 157.88C190.668 157.7 190.895 157.465 191.036 157.176V155.84H190.163C188.799 155.84 188.116 156.239 188.116 157.038C188.116 157.387 188.233 157.66 188.465 157.856C188.698 158.053 188.997 158.151 189.362 158.151ZM202.942 151.187H200.125V159H198.975V151.187H196.164V150.236H202.942V151.187ZM205.277 159H204.164V152.487H205.277V159ZM204.073 150.76C204.073 150.579 204.128 150.427 204.236 150.302C204.348 150.178 204.513 150.116 204.729 150.116C204.946 150.116 205.111 150.178 205.223 150.302C205.335 150.427 205.392 150.579 205.392 150.76C205.392 150.94 205.335 151.091 205.223 151.211C205.111 151.331 204.946 151.392 204.729 151.392C204.513 151.392 204.348 151.331 204.236 151.211C204.128 151.091 204.073 150.94 204.073 150.76ZM208.883 155.984L208.185 156.713V159H207.071V149.754H208.185V155.346L208.78 154.63L210.809 152.487H212.163L209.629 155.208L212.458 159H211.152L208.883 155.984ZM222.36 151.187H219.543V159H218.393V151.187H215.582V150.236H222.36V151.187ZM222.589 155.683C222.589 155.045 222.713 154.472 222.962 153.962C223.215 153.452 223.564 153.059 224.009 152.782C224.459 152.505 224.97 152.367 225.544 152.367C226.431 152.367 227.147 152.674 227.693 153.288C228.243 153.902 228.518 154.718 228.518 155.738V155.816C228.518 156.45 228.395 157.02 228.15 157.525C227.91 158.027 227.562 158.418 227.109 158.699C226.66 158.98 226.142 159.12 225.556 159.12C224.673 159.12 223.957 158.813 223.407 158.199C222.861 157.585 222.589 156.773 222.589 155.762V155.683ZM223.708 155.816C223.708 156.538 223.875 157.118 224.208 157.555C224.545 157.993 224.994 158.211 225.556 158.211C226.122 158.211 226.571 157.991 226.904 157.549C227.237 157.104 227.404 156.482 227.404 155.683C227.404 154.969 227.233 154.391 226.892 153.95C226.555 153.504 226.106 153.282 225.544 153.282C224.994 153.282 224.551 153.5 224.214 153.938C223.877 154.375 223.708 155.001 223.708 155.816ZM231.732 155.984L231.034 156.713V159H229.92V149.754H231.034V155.346L231.629 154.63L233.658 152.487H235.012L232.478 155.208L235.307 159H234.001L231.732 155.984Z" fill="#222222" fill-opacity="0.8"/>
<path d="M174.531 169.804C174.531 170.807 174.302 171.612 173.845 172.217C173.391 172.819 172.777 173.12 172.003 173.12C171.345 173.12 170.813 172.892 170.408 172.434V175.504H168.668V166.487H170.281L170.341 167.125C170.763 166.62 171.313 166.367 171.991 166.367C172.793 166.367 173.417 166.664 173.863 167.258C174.308 167.852 174.531 168.67 174.531 169.713V169.804ZM172.791 169.677C172.791 169.071 172.683 168.604 172.466 168.275C172.254 167.946 171.943 167.781 171.533 167.781C170.988 167.781 170.612 167.99 170.408 168.407V171.074C170.62 171.503 171 171.718 171.545 171.718C172.376 171.718 172.791 171.038 172.791 169.677ZM175.343 169.683C175.343 169.037 175.468 168.461 175.717 167.956C175.965 167.45 176.323 167.059 176.788 166.782C177.258 166.505 177.801 166.367 178.419 166.367C179.298 166.367 180.014 166.636 180.568 167.173C181.126 167.711 181.437 168.441 181.501 169.364L181.513 169.81C181.513 170.809 181.234 171.612 180.677 172.217C180.119 172.819 179.37 173.12 178.431 173.12C177.492 173.12 176.742 172.819 176.18 172.217C175.622 171.616 175.343 170.797 175.343 169.762V169.683ZM177.083 169.81C177.083 170.428 177.199 170.901 177.432 171.23C177.665 171.555 177.998 171.718 178.431 171.718C178.853 171.718 179.182 171.557 179.419 171.236C179.655 170.911 179.774 170.394 179.774 169.683C179.774 169.077 179.655 168.608 179.419 168.275C179.182 167.942 178.849 167.775 178.419 167.775C177.994 167.775 177.665 167.942 177.432 168.275C177.199 168.604 177.083 169.116 177.083 169.81ZM186.244 168.118C186.008 168.086 185.799 168.07 185.618 168.07C184.96 168.07 184.529 168.293 184.324 168.738V173H182.585V166.487H184.228L184.276 167.264C184.625 166.666 185.109 166.367 185.727 166.367C185.919 166.367 186.1 166.393 186.268 166.445L186.244 168.118ZM194.31 173H192.571V166.295L190.494 166.939V165.524L194.124 164.224H194.31V173ZM201.937 166.487L201.991 167.216C202.452 166.65 203.076 166.367 203.863 166.367C204.701 166.367 205.277 166.698 205.59 167.36C206.048 166.698 206.7 166.367 207.546 166.367C208.253 166.367 208.778 166.573 209.124 166.987C209.469 167.396 209.641 168.014 209.641 168.841V173H207.896V168.847C207.896 168.478 207.823 168.209 207.679 168.04C207.534 167.868 207.28 167.781 206.914 167.781C206.393 167.781 206.032 168.03 205.831 168.528L205.837 173H204.097V168.853C204.097 168.476 204.023 168.203 203.875 168.034C203.726 167.866 203.473 167.781 203.116 167.781C202.623 167.781 202.266 167.986 202.045 168.395V173H200.305V166.487H201.937ZM213.981 173.12C213.026 173.12 212.248 172.827 211.646 172.242C211.048 171.656 210.749 170.875 210.749 169.9V169.732C210.749 169.077 210.875 168.494 211.128 167.98C211.381 167.462 211.738 167.065 212.199 166.788C212.665 166.507 213.195 166.367 213.788 166.367C214.679 166.367 215.38 166.648 215.889 167.209C216.403 167.771 216.66 168.568 216.66 169.599V170.309H212.512C212.569 170.735 212.737 171.076 213.018 171.333C213.303 171.589 213.662 171.718 214.095 171.718C214.766 171.718 215.289 171.475 215.666 170.99L216.521 171.947C216.26 172.316 215.907 172.605 215.462 172.813C215.016 173.018 214.523 173.12 213.981 173.12ZM213.782 167.775C213.437 167.775 213.156 167.892 212.94 168.124C212.727 168.357 212.591 168.69 212.53 169.124H214.95V168.985C214.942 168.6 214.838 168.303 214.637 168.094C214.437 167.882 214.152 167.775 213.782 167.775ZM221.18 171.2C221.18 170.988 221.074 170.821 220.861 170.701C220.652 170.576 220.315 170.466 219.85 170.37C218.301 170.045 217.526 169.386 217.526 168.395C217.526 167.817 217.765 167.336 218.243 166.951C218.724 166.561 219.352 166.367 220.127 166.367C220.953 166.367 221.613 166.561 222.107 166.951C222.605 167.34 222.853 167.846 222.853 168.468H221.114C221.114 168.219 221.034 168.014 220.873 167.854C220.713 167.689 220.462 167.607 220.121 167.607C219.828 167.607 219.601 167.673 219.441 167.805C219.28 167.938 219.2 168.106 219.2 168.311C219.2 168.504 219.29 168.66 219.471 168.781C219.655 168.897 219.964 168.999 220.398 169.087C220.831 169.172 221.196 169.268 221.493 169.376C222.412 169.713 222.871 170.297 222.871 171.128C222.871 171.722 222.617 172.203 222.107 172.573C221.597 172.938 220.939 173.12 220.133 173.12C219.587 173.12 219.101 173.024 218.676 172.831C218.255 172.635 217.924 172.368 217.683 172.031C217.442 171.69 217.322 171.323 217.322 170.929H218.971C218.987 171.238 219.101 171.475 219.314 171.64C219.527 171.804 219.812 171.886 220.169 171.886C220.502 171.886 220.753 171.824 220.921 171.7C221.094 171.571 221.18 171.405 221.18 171.2Z" fill="#EE3A2B"/>
<rect x="0.5" y="0.5" width="275" height="186" rx="9.5" stroke="#EF3829"/>
</svg>
