<svg width="276" height="187" viewBox="0 0 276 187" fill="none" xmlns="http://www.w3.org/2000/svg">
<rect x="0.5" y="0.5" width="275" height="186" rx="9.5" fill="white"/>
<path d="M0 10C0 4.47715 4.47715 0 10 0H266C271.523 0 276 4.47715 276 10V27H0V10Z" fill="#EF3829"/>
<path d="M118.657 17H116.935V7.04688H118.657V17ZM122.164 9.60352L122.212 10.458C122.759 9.7972 123.477 9.4668 124.365 9.4668C125.906 9.4668 126.689 10.3486 126.717 12.1123V17H125.056V12.208C125.056 11.7386 124.953 11.3923 124.748 11.1689C124.548 10.9411 124.217 10.8271 123.757 10.8271C123.087 10.8271 122.588 11.1302 122.26 11.7363V17H120.599V9.60352H122.164ZM131.454 15.8105C131.869 15.8105 132.213 15.6898 132.486 15.4482C132.76 15.2067 132.906 14.9082 132.924 14.5527H134.489C134.471 15.013 134.327 15.4437 134.059 15.8447C133.79 16.2412 133.425 16.5557 132.965 16.7881C132.505 17.0205 132.008 17.1367 131.475 17.1367C130.44 17.1367 129.62 16.8018 129.014 16.1318C128.408 15.4619 128.104 14.5368 128.104 13.3564V13.1855C128.104 12.0599 128.405 11.1598 129.007 10.4854C129.608 9.80632 130.429 9.4668 131.468 9.4668C132.347 9.4668 133.063 9.72428 133.614 10.2393C134.17 10.7497 134.462 11.4219 134.489 12.2559H132.924C132.906 11.832 132.76 11.4834 132.486 11.21C132.217 10.9365 131.873 10.7998 131.454 10.7998C130.916 10.7998 130.502 10.9958 130.21 11.3877C129.918 11.7751 129.77 12.3652 129.766 13.1582V13.4248C129.766 14.2269 129.909 14.8262 130.196 15.2227C130.488 15.6146 130.907 15.8105 131.454 15.8105ZM137.511 17H135.85V6.5H137.511V17ZM143.807 16.2754C143.319 16.8496 142.626 17.1367 141.729 17.1367C140.926 17.1367 140.318 16.902 139.903 16.4326C139.493 15.9632 139.288 15.2842 139.288 14.3955V9.60352H140.949V14.375C140.949 15.3138 141.339 15.7832 142.118 15.7832C142.925 15.7832 143.469 15.4938 143.752 14.915V9.60352H145.413V17H143.848L143.807 16.2754ZM149.692 14.6211L151.196 9.60352H152.967L150.027 18.1211C149.576 19.3652 148.811 19.9873 147.73 19.9873C147.489 19.9873 147.222 19.9463 146.931 19.8643V18.5791L147.245 18.5996C147.664 18.5996 147.979 18.5221 148.188 18.3672C148.403 18.2168 148.571 17.9616 148.694 17.6016L148.934 16.9658L146.336 9.60352H148.127L149.692 14.6211ZM157.089 17.1367C156.036 17.1367 155.182 16.8063 154.525 16.1455C153.874 15.4801 153.548 14.596 153.548 13.4932V13.2881C153.548 12.5498 153.689 11.8913 153.972 11.3125C154.259 10.7292 154.66 10.2757 155.175 9.95215C155.69 9.62858 156.264 9.4668 156.897 9.4668C157.905 9.4668 158.682 9.78809 159.229 10.4307C159.78 11.0732 160.056 11.9824 160.056 13.1582V13.8281H155.223C155.273 14.4388 155.476 14.9219 155.831 15.2773C156.191 15.6328 156.642 15.8105 157.185 15.8105C157.946 15.8105 158.565 15.5029 159.044 14.8877L159.939 15.7422C159.643 16.1842 159.247 16.5283 158.75 16.7744C158.258 17.016 157.704 17.1367 157.089 17.1367ZM156.891 10.7998C156.435 10.7998 156.066 10.9593 155.783 11.2783C155.505 11.5973 155.327 12.0417 155.25 12.6113H158.415V12.4883C158.379 11.9323 158.23 11.513 157.971 11.2305C157.711 10.9434 157.351 10.7998 156.891 10.7998Z" fill="white"/>
<rect width="203.5" height="28" transform="translate(36 38)" fill="white"/>
<path d="M41.9312 57H39.5598V49.4507L37.2304 50.1313V48.3351L41.7137 46.7846H41.9312V57ZM51.9011 49.5138C51.9011 50.0096 51.7771 50.447 51.5292 50.8258C51.286 51.2047 50.9492 51.5087 50.5189 51.7379C51.0053 51.9765 51.3912 52.3039 51.6765 52.7202C51.9619 53.1318 52.1045 53.6206 52.1045 54.1866C52.1045 55.0986 51.7888 55.819 51.1573 56.3475C50.5306 56.876 49.6653 57.1403 48.5614 57.1403C47.4529 57.1403 46.5782 56.876 45.9374 56.3475C45.2966 55.8143 44.9762 55.094 44.9762 54.1866C44.9762 53.6393 45.1165 53.1552 45.3971 52.7342C45.6778 52.3133 46.0754 51.9812 46.5899 51.7379C46.1549 51.5087 45.8134 51.2047 45.5655 50.8258C45.3176 50.447 45.1937 50.0096 45.1937 49.5138C45.1937 48.6251 45.4954 47.9235 46.0988 47.409C46.7021 46.8945 47.516 46.6372 48.5404 46.6372C49.5741 46.6372 50.3926 46.8945 50.996 47.409C51.5994 47.9235 51.9011 48.6251 51.9011 49.5138ZM49.7331 53.9971C49.7331 53.5762 49.6232 53.2534 49.4033 53.0289C49.1882 52.7997 48.9028 52.6851 48.5474 52.6851C48.1919 52.6851 47.9042 52.7997 47.6844 53.0289C47.4646 53.2534 47.3546 53.5762 47.3546 53.9971C47.3546 54.4041 47.4646 54.7268 47.6844 54.9653C47.9089 55.1992 48.2012 55.3161 48.5614 55.3161C48.9122 55.3161 49.1952 55.1992 49.4103 54.9653C49.6255 54.7315 49.7331 54.4087 49.7331 53.9971ZM48.5404 48.4614C48.2223 48.4614 47.9791 48.5667 47.8107 48.7772C47.647 48.983 47.5651 49.2706 47.5651 49.6401C47.5651 50.005 47.6493 50.2996 47.8177 50.5242C47.9861 50.7487 48.234 50.8609 48.5614 50.8609C48.8841 50.8609 49.125 50.7487 49.2841 50.5242C49.4478 50.2996 49.5296 50.005 49.5296 49.6401C49.5296 49.2753 49.4454 48.9876 49.277 48.7772C49.1133 48.5667 48.8678 48.4614 48.5404 48.4614ZM65.421 55.7371C65.0422 56.1581 64.4879 56.4972 63.7582 56.7544C63.0286 57.0117 62.2287 57.1403 61.3587 57.1403C60.021 57.1403 58.9522 56.7311 58.1524 55.9125C57.3525 55.094 56.9246 53.955 56.8684 52.4957L56.8614 51.6117C56.8614 50.606 57.0392 49.729 57.3946 48.9806C57.7501 48.2276 58.2576 47.6499 58.9171 47.2476C59.5813 46.8407 60.3484 46.6372 61.2184 46.6372C62.4907 46.6372 63.4776 46.9296 64.1792 47.5143C64.8855 48.0943 65.2971 48.9619 65.414 50.1172H63.0426C62.9584 49.5466 62.776 49.1397 62.4953 48.8964C62.2147 48.6532 61.8171 48.5316 61.3026 48.5316C60.6852 48.5316 60.2081 48.7935 59.8713 49.3174C59.5345 49.8413 59.3638 50.5896 59.3591 51.5625V52.18C59.3591 53.1996 59.5322 53.9667 59.8783 54.4812C60.2291 54.9911 60.7787 55.246 61.5271 55.246C62.1679 55.246 62.645 55.1033 62.9584 54.818V53.2324H61.2465V51.5415H65.421V55.7371ZM69.4763 57H67.0207V46.7846H69.4763V57ZM79.5514 55.7371C79.1726 56.1581 78.6183 56.4972 77.8886 56.7544C77.1589 57.0117 76.3591 57.1403 75.4891 57.1403C74.1514 57.1403 73.0826 56.7311 72.2828 55.9125C71.4829 55.094 71.055 53.955 70.9988 52.4957L70.9918 51.6117C70.9918 50.606 71.1695 49.729 71.525 48.9806C71.8805 48.2276 72.388 47.6499 73.0475 47.2476C73.7117 46.8407 74.4788 46.6372 75.3488 46.6372C76.621 46.6372 77.608 46.9296 78.3096 47.5143C79.0159 48.0943 79.4275 48.9619 79.5444 50.1172H77.173C77.0888 49.5466 76.9064 49.1397 76.6257 48.8964C76.3451 48.6532 75.9475 48.5316 75.433 48.5316C74.8156 48.5316 74.3385 48.7935 74.0017 49.3174C73.6649 49.8413 73.4942 50.5896 73.4895 51.5625V52.18C73.4895 53.1996 73.6626 53.9667 74.0087 54.4812C74.3595 54.9911 74.9091 55.246 75.6575 55.246C76.2983 55.246 76.7754 55.1033 77.0888 54.818V53.2324H75.3769V51.5415H79.5514V55.7371ZM86.785 55.0916H83.4103L82.8209 57H80.1899L83.9365 46.7846H86.2518L90.0264 57H87.3814L86.785 55.0916ZM83.9996 53.1903H86.1957L85.0941 49.6471L83.9996 53.1903ZM96.0462 54.2848C96.0462 53.9246 95.9176 53.644 95.6603 53.4428C95.4078 53.2417 94.9611 53.0336 94.3203 52.8184C93.6795 52.6033 93.1556 52.3951 92.7487 52.194C91.425 51.5438 90.7631 50.6504 90.7631 49.5138C90.7631 48.9479 90.9268 48.4497 91.2542 48.0194C91.5863 47.5844 92.0541 47.2476 92.6575 47.0091C93.2608 46.7659 93.9391 46.6443 94.6921 46.6443C95.4265 46.6443 96.0837 46.7752 96.6636 47.0372C97.2483 47.2991 97.702 47.6733 98.0248 48.1597C98.3475 48.6415 98.5089 49.1934 98.5089 49.8155H96.0532C96.0532 49.3992 95.9246 49.0765 95.6674 48.8473C95.4148 48.6181 95.071 48.5035 94.636 48.5035C94.1963 48.5035 93.8479 48.6018 93.5906 48.7982C93.338 48.99 93.2117 49.2355 93.2117 49.5349C93.2117 49.7968 93.3521 50.0354 93.6327 50.2505C93.9133 50.461 94.4068 50.6809 95.1131 50.91C95.8194 51.1346 96.3994 51.3778 96.8531 51.6397C97.9569 52.2758 98.5089 53.1528 98.5089 54.2707C98.5089 55.1641 98.1721 55.8657 97.4986 56.3756C96.825 56.8854 95.9012 57.1403 94.7272 57.1403C93.8993 57.1403 93.1486 56.993 92.475 56.6983C91.8062 56.399 91.301 55.992 90.9596 55.4775C90.6228 54.9583 90.4544 54.362 90.4544 53.6884H92.9241C92.9241 54.2357 93.0644 54.6403 93.345 54.9022C93.6304 55.1594 94.0911 55.2881 94.7272 55.2881C95.1341 55.2881 95.4545 55.2015 95.6884 55.0285C95.927 54.8507 96.0462 54.6028 96.0462 54.2848Z" fill="#222222" fill-opacity="0.8"/>
<path d="M172.173 45.569V49H171.017V40.236H174.25C175.209 40.236 175.959 40.4808 176.501 40.9703C177.047 41.4599 177.319 42.108 177.319 42.9145C177.319 43.7653 177.053 44.4214 176.519 44.8828C175.989 45.3403 175.229 45.569 174.238 45.569H172.173ZM172.173 44.624H174.25C174.868 44.624 175.341 44.4795 175.67 44.1906C175.999 43.8977 176.164 43.4763 176.164 42.9266C176.164 42.4049 175.999 41.9876 175.67 41.6746C175.341 41.3616 174.89 41.1991 174.316 41.187H172.173V44.624ZM182.568 49C182.504 48.8716 182.452 48.6429 182.412 48.3138C181.894 48.8515 181.276 49.1204 180.558 49.1204C179.916 49.1204 179.388 48.9398 178.975 48.5787C178.565 48.2135 178.361 47.752 178.361 47.1942C178.361 46.5161 178.618 45.9904 179.131 45.6172C179.649 45.24 180.375 45.0514 181.31 45.0514H182.394V44.5397C182.394 44.1505 182.277 43.8415 182.045 43.6128C181.812 43.38 181.469 43.2637 181.015 43.2637C180.618 43.2637 180.285 43.364 180.016 43.5646C179.747 43.7653 179.613 44.008 179.613 44.2929H178.493C178.493 43.9679 178.608 43.6549 178.836 43.3539C179.069 43.049 179.382 42.8082 179.775 42.6316C180.173 42.4551 180.608 42.3668 181.081 42.3668C181.832 42.3668 182.42 42.5554 182.845 42.9326C183.27 43.3058 183.491 43.8214 183.507 44.4795V47.4771C183.507 48.075 183.583 48.5506 183.736 48.9037V49H182.568ZM180.72 48.1513C181.069 48.1513 181.4 48.061 181.713 47.8804C182.026 47.6998 182.253 47.4651 182.394 47.1762V45.8399H181.521C180.156 45.8399 179.474 46.2392 179.474 47.0377C179.474 47.3868 179.591 47.6597 179.823 47.8563C180.056 48.053 180.355 48.1513 180.72 48.1513ZM188.401 43.4864C188.232 43.4583 188.05 43.4442 187.853 43.4442C187.123 43.4442 186.627 43.7552 186.366 44.3772V49H185.253V42.4872H186.336L186.354 43.2396C186.719 42.6577 187.237 42.3668 187.907 42.3668C188.124 42.3668 188.288 42.3949 188.401 42.4511V43.4864ZM193.21 49C193.146 48.8716 193.094 48.6429 193.054 48.3138C192.536 48.8515 191.918 49.1204 191.2 49.1204C190.558 49.1204 190.03 48.9398 189.617 48.5787C189.207 48.2135 189.003 47.752 189.003 47.1942C189.003 46.5161 189.26 45.9904 189.773 45.6172C190.291 45.24 191.017 45.0514 191.952 45.0514H193.036V44.5397C193.036 44.1505 192.919 43.8415 192.687 43.6128C192.454 43.38 192.111 43.2637 191.657 43.2637C191.26 43.2637 190.927 43.364 190.658 43.5646C190.389 43.7653 190.255 44.008 190.255 44.2929H189.135C189.135 43.9679 189.25 43.6549 189.478 43.3539C189.711 43.049 190.024 42.8082 190.417 42.6316C190.815 42.4551 191.25 42.3668 191.723 42.3668C192.474 42.3668 193.062 42.5554 193.487 42.9326C193.912 43.3058 194.133 43.8214 194.149 44.4795V47.4771C194.149 48.075 194.225 48.5506 194.378 48.9037V49H193.21ZM191.362 48.1513C191.711 48.1513 192.042 48.061 192.355 47.8804C192.668 47.6998 192.895 47.4651 193.036 47.1762V45.8399H192.163C190.799 45.8399 190.116 46.2392 190.116 47.0377C190.116 47.3868 190.233 47.6597 190.465 47.8563C190.698 48.053 190.997 48.1513 191.362 48.1513Z" fill="#222222" fill-opacity="0.8"/>
<path d="M172.269 56.4872L172.323 57.2396C172.789 56.6577 173.413 56.3668 174.195 56.3668C174.886 56.3668 175.399 56.5694 175.736 56.9747C176.073 57.38 176.246 57.986 176.254 58.7925V63H174.514V58.8347C174.514 58.4655 174.434 58.1986 174.274 58.0341C174.113 57.8656 173.846 57.7813 173.473 57.7813C172.984 57.7813 172.616 57.99 172.372 58.4073V63H170.632V56.4872H172.269ZM181.352 63C181.272 62.8435 181.214 62.6489 181.178 62.4161C180.756 62.8856 180.209 63.1204 179.534 63.1204C178.896 63.1204 178.367 62.9358 177.945 62.5666C177.528 62.1974 177.319 61.7319 177.319 61.1701C177.319 60.4799 177.574 59.9502 178.084 59.5811C178.597 59.2119 179.338 59.0253 180.305 59.0213H181.106V58.6481C181.106 58.3471 181.027 58.1064 180.871 57.9258C180.718 57.7452 180.475 57.6549 180.142 57.6549C179.849 57.6549 179.619 57.7251 179.45 57.8656C179.286 58.006 179.203 58.1986 179.203 58.4434H177.464C177.464 58.0662 177.58 57.7171 177.813 57.3961C178.046 57.0751 178.375 56.8243 178.8 56.6437C179.226 56.4591 179.703 56.3668 180.233 56.3668C181.035 56.3668 181.671 56.5694 182.141 56.9747C182.614 57.376 182.851 57.9418 182.851 58.6722V61.4952C182.855 62.1132 182.941 62.5807 183.11 62.8977V63H181.352ZM179.914 61.7901C180.171 61.7901 180.407 61.734 180.624 61.6216C180.841 61.5052 181.001 61.3507 181.106 61.1581V60.0385H180.455C179.585 60.0385 179.121 60.3395 179.065 60.9414L179.059 61.0437C179.059 61.2604 179.135 61.439 179.288 61.5795C179.44 61.7199 179.649 61.7901 179.914 61.7901ZM186.529 60.8752L187.739 56.4872H189.557L187.36 63H185.698L183.501 56.4872H185.319L186.529 60.8752ZM193.24 63.1204C192.285 63.1204 191.507 62.8274 190.905 62.2416C190.307 61.6557 190.008 60.8752 190.008 59.9001V59.7315C190.008 59.0775 190.134 58.4936 190.387 57.9799C190.64 57.4623 190.997 57.065 191.459 56.7881C191.924 56.5072 192.454 56.3668 193.048 56.3668C193.939 56.3668 194.639 56.6477 195.148 57.2095C195.662 57.7713 195.919 58.5678 195.919 59.5991V60.3094H191.772C191.828 60.7348 191.996 61.0758 192.277 61.3327C192.562 61.5895 192.921 61.7179 193.355 61.7179C194.025 61.7179 194.549 61.4751 194.926 60.9896L195.78 61.9466C195.52 62.3158 195.166 62.6047 194.721 62.8134C194.276 63.0181 193.782 63.1204 193.24 63.1204ZM193.042 57.7753C192.697 57.7753 192.416 57.8917 192.199 58.1244C191.986 58.3572 191.85 58.6902 191.79 59.1236H194.209V58.9852C194.201 58.5999 194.097 58.303 193.896 58.0943C193.696 57.8816 193.411 57.7753 193.042 57.7753ZM196.659 59.6954C196.659 58.6962 196.896 57.8917 197.37 57.2817C197.847 56.6718 198.489 56.3668 199.296 56.3668C200.01 56.3668 200.566 56.6116 200.963 57.1011L201.035 56.4872H202.612V62.7833C202.612 63.3531 202.482 63.8487 202.221 64.2701C201.964 64.6914 201.601 65.0124 201.132 65.2331C200.662 65.4538 200.112 65.5642 199.482 65.5642C199.005 65.5642 198.539 65.4679 198.086 65.2753C197.632 65.0867 197.289 64.8419 197.057 64.5409L197.827 63.4815C198.26 63.9671 198.786 64.2099 199.404 64.2099C199.866 64.2099 200.225 64.0855 200.481 63.8367C200.738 63.5919 200.867 63.2428 200.867 62.7893V62.4402C200.465 62.8937 199.938 63.1204 199.284 63.1204C198.501 63.1204 197.867 62.8154 197.382 62.2055C196.9 61.5915 196.659 60.7789 196.659 59.7677V59.6954ZM198.399 59.8218C198.399 60.4117 198.517 60.8752 198.754 61.2123C198.991 61.5453 199.316 61.7119 199.729 61.7119C200.259 61.7119 200.638 61.5132 200.867 61.116V58.3772C200.634 57.9799 200.259 57.7813 199.741 57.7813C199.324 57.7813 198.995 57.9519 198.754 58.2929C198.517 58.634 198.399 59.1437 198.399 59.8218ZM207.729 63C207.648 62.8435 207.59 62.6489 207.554 62.4161C207.133 62.8856 206.585 63.1204 205.911 63.1204C205.273 63.1204 204.743 62.9358 204.322 62.5666C203.904 62.1974 203.696 61.7319 203.696 61.1701C203.696 60.4799 203.951 59.9502 204.46 59.5811C204.974 59.2119 205.714 59.0253 206.681 59.0213H207.482V58.6481C207.482 58.3471 207.404 58.1064 207.247 57.9258C207.095 57.7452 206.852 57.6549 206.519 57.6549C206.226 57.6549 205.995 57.7251 205.827 57.8656C205.662 58.006 205.58 58.1986 205.58 58.4434H203.84C203.84 58.0662 203.957 57.7171 204.189 57.3961C204.422 57.0751 204.751 56.8243 205.176 56.6437C205.602 56.4591 206.079 56.3668 206.609 56.3668C207.412 56.3668 208.048 56.5694 208.517 56.9747C208.991 57.376 209.227 57.9418 209.227 58.6722V61.4952C209.231 62.1132 209.318 62.5807 209.486 62.8977V63H207.729ZM206.29 61.7901C206.547 61.7901 206.784 61.734 207 61.6216C207.217 61.5052 207.378 61.3507 207.482 61.1581V60.0385H206.832C205.961 60.0385 205.498 60.3395 205.441 60.9414L205.435 61.0437C205.435 61.2604 205.512 61.439 205.664 61.5795C205.817 61.7199 206.025 61.7901 206.29 61.7901ZM214.223 58.1184C213.987 58.0863 213.778 58.0702 213.597 58.0702C212.939 58.0702 212.508 58.2929 212.303 58.7384V63H210.564V56.4872H212.207L212.255 57.2637C212.604 56.6657 213.088 56.3668 213.706 56.3668C213.898 56.3668 214.079 56.3929 214.248 56.445L214.223 58.1184Z" fill="#EE3A2B"/>
<rect width="208" height="28" transform="translate(34 74.6665)" fill="white"/>
<path d="M39.0583 87.8712H41.4508V89.8989H39.0583V92.6422H36.8483V89.8989H34.4488V87.8712H36.8483V85.2051H39.0583V87.8712ZM53.1115 84.714L49.2948 93.6665H46.7971L50.6208 85.2753H45.7517V83.4511H53.1115V84.714ZM66.421 92.4036C66.0422 92.8246 65.4879 93.1637 64.7582 93.4209C64.0286 93.6782 63.2287 93.8068 62.3587 93.8068C61.021 93.8068 59.9522 93.3976 59.1524 92.579C58.3526 91.7605 57.9246 90.6215 57.8684 89.1622L57.8614 88.2782C57.8614 87.2725 58.0392 86.3955 58.3946 85.6471C58.7501 84.8941 59.2576 84.3164 59.9171 83.9142C60.5813 83.5072 61.3484 83.3038 62.2184 83.3038C63.4907 83.3038 64.4776 83.5961 65.1792 84.1808C65.8855 84.7608 66.2971 85.6284 66.414 86.7837H64.0426C63.9584 86.2131 63.776 85.8062 63.4953 85.5629C63.2147 85.3197 62.8171 85.1981 62.3026 85.1981C61.6852 85.1981 61.2081 85.46 60.8713 85.9839C60.5346 86.5078 60.3638 87.2561 60.3591 88.229V88.8465C60.3591 89.8661 60.5322 90.6332 60.8783 91.1477C61.2291 91.6576 61.7787 91.9125 62.5271 91.9125C63.1679 91.9125 63.645 91.7698 63.9584 91.4845V89.8989H62.2465V88.208H66.421V92.4036ZM70.4763 93.6665H68.0207V83.4511H70.4763V93.6665ZM80.5514 92.4036C80.1726 92.8246 79.6183 93.1637 78.8886 93.4209C78.1589 93.6782 77.3591 93.8068 76.4891 93.8068C75.1514 93.8068 74.0826 93.3976 73.2828 92.579C72.4829 91.7605 72.055 90.6215 71.9988 89.1622L71.9918 88.2782C71.9918 87.2725 72.1695 86.3955 72.525 85.6471C72.8805 84.8941 73.388 84.3164 74.0475 83.9142C74.7117 83.5072 75.4788 83.3038 76.3488 83.3038C77.621 83.3038 78.608 83.5961 79.3096 84.1808C80.0159 84.7608 80.4275 85.6284 80.5444 86.7837H78.173C78.0888 86.2131 77.9064 85.8062 77.6257 85.5629C77.3451 85.3197 76.9475 85.1981 76.433 85.1981C75.8156 85.1981 75.3385 85.46 75.0017 85.9839C74.6649 86.5078 74.4942 87.2561 74.4895 88.229V88.8465C74.4895 89.8661 74.6626 90.6332 75.0087 91.1477C75.3595 91.6576 75.9091 91.9125 76.6575 91.9125C77.2983 91.9125 77.7754 91.7698 78.0888 91.4845V89.8989H76.3769V88.208H80.5514V92.4036ZM87.785 91.7581H84.4103L83.8209 93.6665H81.1899L84.9365 83.4511H87.2518L91.0264 93.6665H88.3814L87.785 91.7581ZM84.9996 89.8568H87.1957L86.0941 86.3137L84.9996 89.8568ZM97.0462 90.9513C97.0462 90.5911 96.9176 90.3105 96.6603 90.1094C96.4078 89.9082 95.9611 89.7001 95.3203 89.4849C94.6795 89.2698 94.1556 89.0616 93.7487 88.8605C92.425 88.2103 91.7631 87.317 91.7631 86.1803C91.7631 85.6144 91.9268 85.1162 92.2542 84.6859C92.5863 84.2509 93.0541 83.9142 93.6575 83.6756C94.2608 83.4324 94.9391 83.3108 95.6921 83.3108C96.4265 83.3108 97.0837 83.4417 97.6636 83.7037C98.2483 83.9656 98.702 84.3398 99.0248 84.8262C99.3475 85.308 99.5089 85.8599 99.5089 86.482H97.0532C97.0532 86.0658 96.9246 85.743 96.6674 85.5138C96.4148 85.2846 96.071 85.17 95.636 85.17C95.1963 85.17 94.8479 85.2683 94.5906 85.4647C94.338 85.6565 94.2117 85.902 94.2117 86.2014C94.2117 86.4633 94.3521 86.7019 94.6327 86.917C94.9133 87.1275 95.4068 87.3474 96.1131 87.5765C96.8194 87.8011 97.3994 88.0443 97.8531 88.3062C98.9569 88.9423 99.5089 89.8194 99.5089 90.9372C99.5089 91.8306 99.1721 92.5322 98.4986 93.0421C97.825 93.5519 96.9012 93.8068 95.7272 93.8068C94.8993 93.8068 94.1486 93.6595 93.475 93.3648C92.8062 93.0655 92.301 92.6585 91.9596 92.144C91.6228 91.6248 91.4544 91.0285 91.4544 90.3549H93.9241C93.9241 90.9022 94.0644 91.3068 94.345 91.5687C94.6304 91.826 95.0911 91.9546 95.7272 91.9546C96.1341 91.9546 96.4545 91.868 96.6884 91.695C96.927 91.5172 97.0462 91.2693 97.0462 90.9513Z" fill="#222222" fill-opacity="0.8"/>
<path d="M175.971 81.6155H172.173V84.7215H176.585V85.6665H171.017V76.9025H176.525V77.8535H172.173V80.6705H175.971V81.6155ZM180.034 81.5313L181.479 79.1537H182.779L180.648 82.374L182.845 85.6665H181.557L180.052 83.2287L178.547 85.6665H177.253L179.45 82.374L177.319 79.1537H178.608L180.034 81.5313ZM186.457 84.878C186.854 84.878 187.201 84.7576 187.498 84.5168C187.795 84.2761 187.959 83.9751 187.992 83.6139H189.045C189.025 83.9871 188.896 84.3423 188.66 84.6793C188.423 85.0164 188.106 85.2853 187.709 85.4859C187.315 85.6866 186.898 85.7869 186.457 85.7869C185.57 85.7869 184.864 85.4919 184.338 84.9021C183.816 84.3082 183.555 83.4976 183.555 82.4703V82.2837C183.555 81.6497 183.672 81.0859 183.904 80.5923C184.137 80.0987 184.47 79.7155 184.904 79.4426C185.341 79.1697 185.857 79.0333 186.451 79.0333C187.181 79.0333 187.787 79.252 188.268 79.6894C188.754 80.1268 189.013 80.6946 189.045 81.3928H187.992C187.959 80.9715 187.799 80.6264 187.51 80.3575C187.225 80.0847 186.872 79.9482 186.451 79.9482C185.885 79.9482 185.445 80.1529 185.132 80.5622C184.823 80.9675 184.669 81.5554 184.669 82.3258V82.5365C184.669 83.2869 184.823 83.8647 185.132 84.27C185.441 84.6753 185.883 84.878 186.457 84.878ZM191.507 85.6665H190.393V76.4209H191.507V85.6665ZM197.315 85.0224C196.882 85.5321 196.246 85.7869 195.407 85.7869C194.713 85.7869 194.183 85.5862 193.818 85.185C193.457 84.7797 193.274 84.1818 193.27 83.3912V79.1537H194.384V83.3611C194.384 84.3483 194.785 84.8419 195.588 84.8419C196.439 84.8419 197.004 84.5249 197.285 83.8908V79.1537H198.399V85.6665H197.339L197.315 85.0224ZM203.888 83.939C203.888 83.638 203.774 83.4053 203.545 83.2407C203.321 83.0722 202.925 82.9277 202.359 82.8074C201.798 82.687 201.35 82.5425 201.017 82.374C200.688 82.2054 200.443 82.0048 200.283 81.772C200.126 81.5393 200.048 81.2624 200.048 80.9414C200.048 80.4077 200.273 79.9562 200.722 79.5871C201.176 79.2179 201.754 79.0333 202.456 79.0333C203.194 79.0333 203.792 79.2239 204.25 79.6051C204.711 79.9863 204.942 80.4739 204.942 81.0678H203.822C203.822 80.7628 203.692 80.5 203.431 80.2793C203.174 80.0586 202.849 79.9482 202.456 79.9482C202.05 79.9482 201.733 80.0365 201.505 80.2131C201.276 80.3896 201.162 80.6204 201.162 80.9053C201.162 81.1741 201.268 81.3768 201.481 81.5132C201.693 81.6497 202.077 81.7801 202.63 81.9045C203.188 82.0289 203.64 82.1773 203.985 82.3499C204.33 82.5224 204.585 82.7311 204.749 82.9759C204.918 83.2167 205.002 83.5116 205.002 83.8607C205.002 84.4426 204.769 84.9101 204.304 85.2632C203.838 85.6123 203.234 85.7869 202.492 85.7869C201.97 85.7869 201.509 85.6946 201.107 85.51C200.706 85.3254 200.391 85.0686 200.162 84.7395C199.938 84.4065 199.825 84.0473 199.825 83.6621H200.939C200.959 84.0353 201.107 84.3322 201.384 84.5529C201.665 84.7696 202.034 84.878 202.492 84.878C202.913 84.878 203.25 84.7937 203.503 84.6252C203.76 84.4526 203.888 84.2239 203.888 83.939ZM207.662 85.6665H206.549V79.1537H207.662V85.6665ZM206.459 77.4262C206.459 77.2456 206.513 77.0931 206.621 76.9687C206.733 76.8443 206.898 76.7821 207.115 76.7821C207.331 76.7821 207.496 76.8443 207.608 76.9687C207.721 77.0931 207.777 77.2456 207.777 77.4262C207.777 77.6067 207.721 77.7572 207.608 77.8776C207.496 77.998 207.331 78.0582 207.115 78.0582C206.898 78.0582 206.733 77.998 206.621 77.8776C206.513 77.7572 206.459 77.6067 206.459 77.4262ZM211.599 84.1557L213.212 79.1537H214.35L212.014 85.6665H211.166L208.806 79.1537H209.944L211.599 84.1557ZM215.03 82.3499C215.03 81.7119 215.154 81.138 215.403 80.6284C215.656 80.1188 216.005 79.7255 216.451 79.4486C216.9 79.1717 217.412 79.0333 217.985 79.0333C218.872 79.0333 219.589 79.3403 220.134 79.9542C220.684 80.5682 220.959 81.3848 220.959 82.4041V82.4823C220.959 83.1163 220.837 83.6862 220.592 84.1918C220.351 84.6934 220.004 85.0846 219.55 85.3655C219.101 85.6464 218.583 85.7869 217.997 85.7869C217.115 85.7869 216.398 85.4799 215.849 84.8659C215.303 84.252 215.03 83.4394 215.03 82.4281V82.3499ZM216.15 82.4823C216.15 83.2046 216.316 83.7845 216.649 84.2219C216.986 84.6593 217.436 84.878 217.997 84.878C218.563 84.878 219.013 84.6573 219.346 84.2159C219.679 83.7704 219.845 83.1485 219.845 82.3499C219.845 81.6356 219.675 81.0578 219.334 80.6164C218.997 80.1709 218.547 79.9482 217.985 79.9482C217.436 79.9482 216.992 80.1669 216.655 80.6043C216.318 81.0417 216.15 81.6677 216.15 82.4823Z" fill="#222222" fill-opacity="0.8"/>
<path d="M176.531 96.4703C176.531 97.4735 176.302 98.2781 175.845 98.884C175.391 99.4859 174.777 99.7869 174.003 99.7869C173.345 99.7869 172.813 99.5582 172.408 99.1007V102.171H170.668V93.1537H172.281L172.341 93.7917C172.763 93.2861 173.313 93.0333 173.991 93.0333C174.793 93.0333 175.417 93.3302 175.863 93.9241C176.308 94.518 176.531 95.3367 176.531 96.38V96.4703ZM174.791 96.3439C174.791 95.7379 174.683 95.2704 174.466 94.9414C174.254 94.6123 173.943 94.4478 173.533 94.4478C172.988 94.4478 172.612 94.6565 172.408 95.0738V97.7403C172.62 98.1697 173 98.3844 173.545 98.3844C174.376 98.3844 174.791 97.7042 174.791 96.3439ZM181.388 99.6665C181.308 99.51 181.25 99.3154 181.214 99.0826C180.793 99.5521 180.245 99.7869 179.571 99.7869C178.933 99.7869 178.403 99.6023 177.982 99.2331C177.564 98.8639 177.356 98.3984 177.356 97.8367C177.356 97.1464 177.61 96.6168 178.12 96.2476C178.634 95.8784 179.374 95.6918 180.341 95.6878H181.142V95.3146C181.142 95.0136 181.063 94.7729 180.907 94.5923C180.754 94.4117 180.512 94.3214 180.179 94.3214C179.886 94.3214 179.655 94.3916 179.486 94.5321C179.322 94.6725 179.24 94.8651 179.24 95.1099H177.5C177.5 94.7327 177.616 94.3836 177.849 94.0626C178.082 93.7416 178.411 93.4908 178.836 93.3102C179.262 93.1256 179.739 93.0333 180.269 93.0333C181.071 93.0333 181.707 93.2359 182.177 93.6412C182.65 94.0425 182.887 94.6083 182.887 95.3387V98.1617C182.891 98.7797 182.978 99.2472 183.146 99.5642V99.6665H181.388ZM179.95 98.4566C180.207 98.4566 180.443 98.4005 180.66 98.2881C180.877 98.1717 181.037 98.0172 181.142 97.8246V96.705H180.492C179.621 96.705 179.157 97.006 179.101 97.6079L179.095 97.7102C179.095 97.9269 179.171 98.1055 179.324 98.246C179.476 98.3864 179.685 98.4566 179.95 98.4566ZM187.883 94.7849C187.646 94.7528 187.438 94.7367 187.257 94.7367C186.599 94.7367 186.168 94.9595 185.963 95.4049V99.6665H184.223V93.1537H185.867L185.915 93.9302C186.264 93.3322 186.748 93.0333 187.366 93.0333C187.558 93.0333 187.739 93.0594 187.907 93.1115L187.883 94.7849ZM192.319 99.6665C192.239 99.51 192.181 99.3154 192.145 99.0826C191.723 99.5521 191.176 99.7869 190.502 99.7869C189.864 99.7869 189.334 99.6023 188.912 99.2331C188.495 98.8639 188.286 98.3984 188.286 97.8367C188.286 97.1464 188.541 96.6168 189.051 96.2476C189.565 95.8784 190.305 95.6918 191.272 95.6878H192.073V95.3146C192.073 95.0136 191.994 94.7729 191.838 94.5923C191.685 94.4117 191.443 94.3214 191.11 94.3214C190.817 94.3214 190.586 94.3916 190.417 94.5321C190.253 94.6725 190.171 94.8651 190.171 95.1099H188.431C188.431 94.7327 188.547 94.3836 188.78 94.0626C189.013 93.7416 189.342 93.4908 189.767 93.3102C190.193 93.1256 190.67 93.0333 191.2 93.0333C192.002 93.0333 192.638 93.2359 193.108 93.6412C193.581 94.0425 193.818 94.6083 193.818 95.3387V98.1617C193.822 98.7797 193.908 99.2472 194.077 99.5642V99.6665H192.319ZM190.881 98.4566C191.138 98.4566 191.374 98.4005 191.591 98.2881C191.808 98.1717 191.968 98.0172 192.073 97.8246V96.705H191.423C190.552 96.705 190.088 97.006 190.032 97.6079L190.026 97.7102C190.026 97.9269 190.102 98.1055 190.255 98.246C190.407 98.3864 190.616 98.4566 190.881 98.4566ZM201.884 94.7849C201.647 94.7528 201.439 94.7367 201.258 94.7367C200.6 94.7367 200.168 94.9595 199.964 95.4049V99.6665H198.224V93.1537H199.868L199.916 93.9302C200.265 93.3322 200.748 93.0333 201.366 93.0333C201.559 93.0333 201.739 93.0594 201.908 93.1115L201.884 94.7849ZM205.604 99.7869C204.649 99.7869 203.87 99.494 203.268 98.9081C202.67 98.3222 202.372 97.5417 202.372 96.5666V96.3981C202.372 95.744 202.498 95.1601 202.751 94.6465C203.004 94.1288 203.361 93.7315 203.822 93.4546C204.288 93.1737 204.817 93.0333 205.411 93.0333C206.302 93.0333 207.002 93.3142 207.512 93.876C208.026 94.4378 208.282 95.2343 208.282 96.2656V96.9759H204.135C204.191 97.4013 204.36 97.7424 204.641 97.9992C204.926 98.256 205.285 98.3844 205.718 98.3844C206.388 98.3844 206.912 98.1416 207.289 97.6561L208.144 98.6131C207.883 98.9823 207.53 99.2712 207.085 99.4799C206.639 99.6846 206.146 99.7869 205.604 99.7869ZM205.405 94.4418C205.06 94.4418 204.779 94.5582 204.563 94.7909C204.35 95.0237 204.213 95.3567 204.153 95.7901H206.573V95.6517C206.565 95.2664 206.461 94.9695 206.26 94.7608C206.059 94.5481 205.774 94.4418 205.405 94.4418ZM209.005 96.3619C209.005 95.3467 209.231 94.5381 209.685 93.9362C210.142 93.3343 210.766 93.0333 211.557 93.0333C212.191 93.0333 212.715 93.27 213.128 93.7436V90.4209H214.874V99.6665H213.302L213.218 98.9743C212.785 99.516 212.227 99.7869 211.545 99.7869C210.778 99.7869 210.162 99.4859 209.697 98.884C209.235 98.2781 209.005 97.4374 209.005 96.3619ZM210.744 96.4883C210.744 97.0983 210.851 97.5658 211.063 97.8908C211.276 98.2159 211.585 98.3784 211.99 98.3784C212.528 98.3784 212.907 98.1517 213.128 97.6982V95.128C212.911 94.6745 212.536 94.4478 212.002 94.4478C211.164 94.4478 210.744 95.128 210.744 96.4883ZM219.219 99.7869C218.264 99.7869 217.486 99.494 216.884 98.9081C216.286 98.3222 215.987 97.5417 215.987 96.5666V96.3981C215.987 95.744 216.113 95.1601 216.366 94.6465C216.619 94.1288 216.976 93.7315 217.438 93.4546C217.903 93.1737 218.433 93.0333 219.027 93.0333C219.918 93.0333 220.618 93.3142 221.128 93.876C221.641 94.4378 221.898 95.2343 221.898 96.2656V96.9759H217.751C217.807 97.4013 217.975 97.7424 218.256 97.9992C218.541 98.256 218.9 98.3844 219.334 98.3844C220.004 98.3844 220.528 98.1416 220.905 97.6561L221.76 98.6131C221.499 98.9823 221.146 99.2712 220.7 99.4799C220.255 99.6846 219.761 99.7869 219.219 99.7869ZM219.021 94.4418C218.676 94.4418 218.395 94.5582 218.178 94.7909C217.965 95.0237 217.829 95.3567 217.769 95.7901H220.188V95.6517C220.18 95.2664 220.076 94.9695 219.875 94.7608C219.675 94.5481 219.39 94.4418 219.021 94.4418ZM226.418 97.8667C226.418 97.6541 226.312 97.4875 226.099 97.3672C225.891 97.2428 225.554 97.1324 225.088 97.0361C223.539 96.7111 222.765 96.0529 222.765 95.0618C222.765 94.4839 223.004 94.0024 223.481 93.6172C223.963 93.2279 224.591 93.0333 225.365 93.0333C226.192 93.0333 226.852 93.2279 227.345 93.6172C227.843 94.0064 228.092 94.512 228.092 95.134H226.352C226.352 94.8852 226.272 94.6806 226.111 94.52C225.951 94.3555 225.7 94.2733 225.359 94.2733C225.066 94.2733 224.839 94.3395 224.679 94.4719C224.518 94.6043 224.438 94.7729 224.438 94.9775C224.438 95.1701 224.528 95.3266 224.709 95.447C224.894 95.5634 225.203 95.6657 225.636 95.754C226.069 95.8383 226.434 95.9346 226.731 96.0429C227.65 96.38 228.11 96.9639 228.11 97.7945C228.11 98.3884 227.855 98.87 227.345 99.2391C226.836 99.6043 226.178 99.7869 225.371 99.7869C224.825 99.7869 224.34 99.6906 223.914 99.498C223.493 99.3013 223.162 99.0345 222.921 98.6974C222.68 98.3563 222.56 97.9891 222.56 97.5959H224.209C224.225 97.9049 224.34 98.1416 224.552 98.3062C224.765 98.4707 225.05 98.5529 225.407 98.5529C225.74 98.5529 225.991 98.4907 226.16 98.3663C226.332 98.2379 226.418 98.0714 226.418 97.8667Z" fill="#EE392A"/>
<rect width="208" height="28" transform="translate(34 111.333)" fill="white"/>
<path d="M39.7373 124.538H42.1297V126.565H39.7373V129.309H37.5272V126.565H35.1277V124.538H37.5272V121.872H39.7373V124.538ZM51.9312 130.333H49.5598V122.784L47.2304 123.464V121.668L51.7137 120.118H51.9312V130.333ZM55.1516 125.338L55.776 120.118H61.7467V121.956H57.6984L57.4669 123.983C57.6353 123.885 57.8551 123.799 58.1264 123.724C58.4024 123.649 58.6713 123.612 58.9332 123.612C59.9482 123.612 60.727 123.913 61.2696 124.517C61.8169 125.115 62.0905 125.957 62.0905 127.042C62.0905 127.697 61.9431 128.291 61.6485 128.825C61.3585 129.353 60.9492 129.76 60.4207 130.045C59.8921 130.331 59.2677 130.473 58.5474 130.473C57.9066 130.473 57.3055 130.342 56.7442 130.08C56.1829 129.814 55.7433 129.451 55.4252 128.993C55.1071 128.53 54.9505 128.008 54.9551 127.428H57.3266C57.35 127.803 57.4692 128.1 57.6844 128.319C57.8995 128.539 58.1825 128.649 58.5333 128.649C59.3285 128.649 59.7261 128.06 59.7261 126.881C59.7261 125.791 59.2396 125.246 58.2667 125.246C57.7148 125.246 57.3032 125.424 57.0319 125.78L55.1516 125.338ZM75.421 129.07C75.0422 129.491 74.4879 129.83 73.7582 130.087C73.0286 130.345 72.2287 130.473 71.3587 130.473C70.021 130.473 68.9522 130.064 68.1524 129.246C67.3525 128.427 66.9246 127.288 66.8684 125.829L66.8614 124.945C66.8614 123.939 67.0392 123.062 67.3946 122.314C67.7501 121.561 68.2576 120.983 68.9171 120.581C69.5813 120.174 70.3484 119.97 71.2184 119.97C72.4907 119.97 73.4776 120.263 74.1792 120.847C74.8855 121.427 75.2971 122.295 75.414 123.45H73.0426C72.9584 122.88 72.776 122.473 72.4953 122.229C72.2147 121.986 71.8171 121.865 71.3026 121.865C70.6852 121.865 70.2081 122.127 69.8713 122.65C69.5345 123.174 69.3638 123.923 69.3591 124.896V125.513C69.3591 126.533 69.5322 127.3 69.8783 127.814C70.2291 128.324 70.7787 128.579 71.5271 128.579C72.1679 128.579 72.645 128.436 72.9584 128.151V126.565H71.2465V124.874H75.421V129.07ZM79.4763 130.333H77.0207V120.118H79.4763V130.333ZM89.5514 129.07C89.1726 129.491 88.6183 129.83 87.8886 130.087C87.1589 130.345 86.3591 130.473 85.4891 130.473C84.1514 130.473 83.0826 130.064 82.2828 129.246C81.4829 128.427 81.0549 127.288 80.9988 125.829L80.9918 124.945C80.9918 123.939 81.1695 123.062 81.525 122.314C81.8805 121.561 82.388 120.983 83.0475 120.581C83.7117 120.174 84.4788 119.97 85.3488 119.97C86.621 119.97 87.608 120.263 88.3096 120.847C89.0159 121.427 89.4275 122.295 89.5444 123.45H87.173C87.0888 122.88 86.9064 122.473 86.6257 122.229C86.3451 121.986 85.9475 121.865 85.433 121.865C84.8156 121.865 84.3385 122.127 84.0017 122.65C83.6649 123.174 83.4942 123.923 83.4895 124.896V125.513C83.4895 126.533 83.6626 127.3 84.0087 127.814C84.3595 128.324 84.9091 128.579 85.6575 128.579C86.2983 128.579 86.7754 128.436 87.0888 128.151V126.565H85.3769V124.874H89.5514V129.07ZM96.785 128.425H93.4103L92.8209 130.333H90.1899L93.9365 120.118H96.2518L100.026 130.333H97.3814L96.785 128.425ZM93.9996 126.523H96.1956L95.0941 122.98L93.9996 126.523ZM106.046 127.618C106.046 127.258 105.918 126.977 105.66 126.776C105.408 126.575 104.961 126.367 104.32 126.151C103.679 125.936 103.156 125.728 102.749 125.527C101.425 124.877 100.763 123.983 100.763 122.847C100.763 122.281 100.927 121.783 101.254 121.352C101.586 120.917 102.054 120.581 102.657 120.342C103.261 120.099 103.939 119.977 104.692 119.977C105.426 119.977 106.084 120.108 106.664 120.37C107.248 120.632 107.702 121.006 108.025 121.493C108.347 121.975 108.509 122.526 108.509 123.149H106.053C106.053 122.732 105.925 122.41 105.667 122.18C105.415 121.951 105.071 121.837 104.636 121.837C104.196 121.837 103.848 121.935 103.591 122.131C103.338 122.323 103.212 122.569 103.212 122.868C103.212 123.13 103.352 123.368 103.633 123.584C103.913 123.794 104.407 124.014 105.113 124.243C105.819 124.468 106.399 124.711 106.853 124.973C107.957 125.609 108.509 126.486 108.509 127.604C108.509 128.497 108.172 129.199 107.499 129.709C106.825 130.218 105.901 130.473 104.727 130.473C103.899 130.473 103.149 130.326 102.475 130.031C101.806 129.732 101.301 129.325 100.96 128.811C100.623 128.291 100.454 127.695 100.454 127.021H102.924C102.924 127.569 103.064 127.973 103.345 128.235C103.63 128.492 104.091 128.621 104.727 128.621C105.134 128.621 105.455 128.535 105.688 128.361C105.927 128.184 106.046 127.936 106.046 127.618Z" fill="#222222" fill-opacity="0.8"/>
<path d="M171.017 122.333V113.569H173.491C174.254 113.569 174.928 113.738 175.514 114.075C176.1 114.412 176.551 114.891 176.868 115.513C177.189 116.135 177.352 116.849 177.356 117.656V118.216C177.356 119.042 177.195 119.767 176.874 120.389C176.557 121.011 176.102 121.488 175.508 121.821C174.918 122.154 174.23 122.325 173.443 122.333H171.017ZM172.173 114.52V121.388H173.389C174.28 121.388 174.972 121.111 175.465 120.557C175.963 120.004 176.212 119.215 176.212 118.192V117.68C176.212 116.685 175.977 115.912 175.508 115.363C175.042 114.809 174.38 114.528 173.521 114.52H172.173ZM181.635 122.453C180.752 122.453 180.034 122.164 179.48 121.587C178.927 121.005 178.65 120.228 178.65 119.257V119.053C178.65 118.406 178.772 117.831 179.017 117.325C179.266 116.815 179.611 116.418 180.052 116.133C180.498 115.844 180.979 115.7 181.497 115.7C182.343 115.7 183.002 115.979 183.471 116.536C183.941 117.094 184.175 117.893 184.175 118.932V119.396H179.763C179.779 120.038 179.966 120.557 180.323 120.955C180.684 121.348 181.142 121.544 181.695 121.544C182.089 121.544 182.422 121.464 182.695 121.304C182.967 121.143 183.206 120.931 183.411 120.666L184.091 121.195C183.545 122.034 182.727 122.453 181.635 122.453ZM181.497 116.615C181.047 116.615 180.67 116.779 180.365 117.108C180.06 117.433 179.872 117.891 179.799 118.481H183.062V118.396C183.03 117.831 182.877 117.393 182.604 117.084C182.331 116.771 181.962 116.615 181.497 116.615ZM191.675 116.819C191.507 116.791 191.324 116.777 191.128 116.777C190.397 116.777 189.902 117.088 189.641 117.71V122.333H188.527V115.82H189.611L189.629 116.573C189.994 115.991 190.512 115.7 191.182 115.7C191.398 115.7 191.563 115.728 191.675 115.784V116.819ZM195.287 122.453C194.404 122.453 193.686 122.164 193.132 121.587C192.578 121.005 192.301 120.228 192.301 119.257V119.053C192.301 118.406 192.424 117.831 192.668 117.325C192.917 116.815 193.262 116.418 193.704 116.133C194.149 115.844 194.631 115.7 195.148 115.7C195.995 115.7 196.653 115.979 197.123 116.536C197.592 117.094 197.827 117.893 197.827 118.932V119.396H193.415C193.431 120.038 193.618 120.557 193.975 120.955C194.336 121.348 194.793 121.544 195.347 121.544C195.74 121.544 196.073 121.464 196.346 121.304C196.619 121.143 196.858 120.931 197.063 120.666L197.743 121.195C197.197 122.034 196.378 122.453 195.287 122.453ZM195.148 116.615C194.699 116.615 194.322 116.779 194.017 117.108C193.712 117.433 193.523 117.891 193.451 118.481H196.713V118.396C196.681 117.831 196.529 117.393 196.256 117.084C195.983 116.771 195.614 116.615 195.148 116.615ZM198.856 119.022C198.856 118.007 199.091 117.201 199.561 116.603C200.03 116.001 200.652 115.7 201.426 115.7C202.221 115.7 202.841 115.981 203.286 116.542L203.341 115.82H204.358V122.177C204.358 123.019 204.107 123.683 203.605 124.169C203.108 124.654 202.438 124.897 201.595 124.897C201.126 124.897 200.666 124.797 200.217 124.596C199.767 124.396 199.424 124.121 199.187 123.772L199.765 123.103C200.243 123.693 200.827 123.988 201.517 123.988C202.059 123.988 202.48 123.836 202.781 123.531C203.086 123.226 203.238 122.796 203.238 122.243V121.683C202.793 122.197 202.185 122.453 201.414 122.453C200.652 122.453 200.034 122.146 199.561 121.532C199.091 120.918 198.856 120.082 198.856 119.022ZM199.976 119.149C199.976 119.883 200.126 120.461 200.427 120.882C200.728 121.3 201.15 121.508 201.691 121.508C202.394 121.508 202.909 121.189 203.238 120.551V117.578C202.897 116.956 202.386 116.645 201.703 116.645C201.162 116.645 200.738 116.855 200.433 117.277C200.128 117.698 199.976 118.322 199.976 119.149ZM210.064 122.333C210 122.205 209.948 121.976 209.908 121.647C209.39 122.185 208.772 122.453 208.054 122.453C207.412 122.453 206.884 122.273 206.471 121.912C206.061 121.546 205.857 121.085 205.857 120.527C205.857 119.849 206.113 119.323 206.627 118.95C207.145 118.573 207.871 118.384 208.806 118.384H209.89V117.873C209.89 117.483 209.773 117.175 209.54 116.946C209.308 116.713 208.965 116.597 208.511 116.597C208.114 116.597 207.781 116.697 207.512 116.898C207.243 117.098 207.109 117.341 207.109 117.626H205.989C205.989 117.301 206.103 116.988 206.332 116.687C206.565 116.382 206.878 116.141 207.271 115.965C207.668 115.788 208.104 115.7 208.577 115.7C209.328 115.7 209.916 115.888 210.341 116.266C210.766 116.639 210.987 117.154 211.003 117.813V120.81C211.003 121.408 211.079 121.884 211.232 122.237V122.333H210.064ZM208.216 121.484C208.565 121.484 208.896 121.394 209.209 121.213C209.522 121.033 209.749 120.798 209.89 120.509V119.173H209.017C207.652 119.173 206.97 119.572 206.97 120.371C206.97 120.72 207.087 120.993 207.319 121.189C207.552 121.386 207.851 121.484 208.216 121.484ZM213.959 122.333H212.845V113.087H213.959V122.333ZM215.451 119.016C215.451 118.378 215.576 117.805 215.825 117.295C216.077 116.785 216.426 116.392 216.872 116.115C217.321 115.838 217.833 115.7 218.407 115.7C219.294 115.7 220.01 116.007 220.556 116.621C221.105 117.235 221.38 118.051 221.38 119.071V119.149C221.38 119.783 221.258 120.353 221.013 120.858C220.772 121.36 220.425 121.751 219.972 122.032C219.522 122.313 219.005 122.453 218.419 122.453C217.536 122.453 216.82 122.146 216.27 121.532C215.724 120.918 215.451 120.106 215.451 119.095V119.016ZM216.571 119.149C216.571 119.871 216.737 120.451 217.071 120.888C217.408 121.326 217.857 121.544 218.419 121.544C218.985 121.544 219.434 121.324 219.767 120.882C220.1 120.437 220.267 119.815 220.267 119.016C220.267 118.302 220.096 117.724 219.755 117.283C219.418 116.837 218.969 116.615 218.407 116.615C217.857 116.615 217.414 116.833 217.077 117.271C216.739 117.708 216.571 118.334 216.571 119.149Z" fill="#222222" fill-opacity="0.8"/>
<path d="M176.531 133.137C176.531 134.14 176.302 134.945 175.845 135.551C175.391 136.152 174.777 136.453 174.003 136.453C173.345 136.453 172.813 136.225 172.408 135.767V138.837H170.668V129.82H172.281L172.341 130.458C172.763 129.953 173.313 129.7 173.991 129.7C174.793 129.7 175.417 129.997 175.863 130.591C176.308 131.185 176.531 132.003 176.531 133.046V133.137ZM174.791 133.01C174.791 132.404 174.683 131.937 174.466 131.608C174.254 131.279 173.943 131.114 173.533 131.114C172.988 131.114 172.612 131.323 172.408 131.74V134.407C172.62 134.836 173 135.051 173.545 135.051C174.376 135.051 174.791 134.371 174.791 133.01ZM177.343 133.016C177.343 132.37 177.468 131.794 177.717 131.289C177.965 130.783 178.323 130.392 178.788 130.115C179.258 129.838 179.801 129.7 180.419 129.7C181.298 129.7 182.014 129.969 182.568 130.506C183.126 131.044 183.437 131.774 183.501 132.697L183.513 133.143C183.513 134.142 183.234 134.945 182.677 135.551C182.119 136.152 181.37 136.453 180.431 136.453C179.492 136.453 178.742 136.152 178.18 135.551C177.622 134.949 177.343 134.13 177.343 133.095V133.016ZM179.083 133.143C179.083 133.761 179.199 134.234 179.432 134.563C179.665 134.888 179.998 135.051 180.431 135.051C180.853 135.051 181.182 134.89 181.419 134.569C181.655 134.244 181.774 133.727 181.774 133.016C181.774 132.41 181.655 131.941 181.419 131.608C181.182 131.275 180.849 131.108 180.419 131.108C179.994 131.108 179.665 131.275 179.432 131.608C179.199 131.937 179.083 132.449 179.083 133.143ZM188.244 131.451C188.008 131.419 187.799 131.403 187.618 131.403C186.96 131.403 186.529 131.626 186.324 132.071V136.333H184.585V129.82H186.228L186.276 130.597C186.625 129.999 187.109 129.7 187.727 129.7C187.919 129.7 188.1 129.726 188.268 129.778L188.244 131.451ZM196.804 127.479V128.911H196.635C195.849 128.923 195.215 129.128 194.733 129.525C194.256 129.923 193.969 130.474 193.872 131.181C194.338 130.707 194.926 130.47 195.636 130.47C196.398 130.47 197.004 130.743 197.454 131.289C197.903 131.835 198.128 132.553 198.128 133.444C198.128 134.014 198.004 134.529 197.755 134.991C197.51 135.452 197.161 135.811 196.707 136.068C196.258 136.325 195.748 136.453 195.179 136.453C194.256 136.453 193.509 136.132 192.939 135.49C192.374 134.848 192.091 133.992 192.091 132.92V132.294C192.091 131.343 192.269 130.504 192.626 129.778C192.988 129.048 193.503 128.484 194.173 128.087C194.847 127.685 195.628 127.483 196.515 127.479H196.804ZM195.106 131.867C194.825 131.867 194.571 131.941 194.342 132.089C194.113 132.234 193.945 132.427 193.836 132.667V133.197C193.836 133.779 193.951 134.234 194.179 134.563C194.408 134.888 194.729 135.051 195.142 135.051C195.516 135.051 195.817 134.904 196.045 134.612C196.278 134.315 196.394 133.931 196.394 133.462C196.394 132.984 196.278 132.599 196.045 132.306C195.813 132.013 195.5 131.867 195.106 131.867ZM203.937 129.82L203.991 130.549C204.452 129.983 205.076 129.7 205.863 129.7C206.701 129.7 207.277 130.031 207.59 130.693C208.048 130.031 208.7 129.7 209.546 129.7C210.253 129.7 210.778 129.906 211.124 130.32C211.469 130.729 211.641 131.347 211.641 132.174V136.333H209.896V132.18C209.896 131.811 209.823 131.542 209.679 131.373C209.534 131.201 209.28 131.114 208.914 131.114C208.393 131.114 208.032 131.363 207.831 131.861L207.837 136.333H206.097V132.186C206.097 131.809 206.023 131.536 205.875 131.367C205.726 131.199 205.473 131.114 205.116 131.114C204.623 131.114 204.266 131.319 204.045 131.728V136.333H202.305V129.82H203.937ZM215.981 136.453C215.026 136.453 214.248 136.16 213.646 135.575C213.048 134.989 212.749 134.208 212.749 133.233V133.065C212.749 132.41 212.875 131.827 213.128 131.313C213.381 130.795 213.738 130.398 214.199 130.121C214.665 129.84 215.195 129.7 215.788 129.7C216.679 129.7 217.38 129.981 217.889 130.542C218.403 131.104 218.66 131.901 218.66 132.932V133.642H214.512C214.569 134.068 214.737 134.409 215.018 134.666C215.303 134.922 215.662 135.051 216.095 135.051C216.766 135.051 217.289 134.808 217.666 134.323L218.521 135.28C218.26 135.649 217.907 135.938 217.462 136.146C217.016 136.351 216.523 136.453 215.981 136.453ZM215.782 131.108C215.437 131.108 215.156 131.225 214.94 131.457C214.727 131.69 214.591 132.023 214.53 132.457H216.95V132.318C216.942 131.933 216.838 131.636 216.637 131.427C216.437 131.215 216.152 131.108 215.782 131.108ZM223.18 134.533C223.18 134.321 223.074 134.154 222.861 134.034C222.652 133.909 222.315 133.799 221.85 133.703C220.301 133.378 219.526 132.719 219.526 131.728C219.526 131.15 219.765 130.669 220.243 130.284C220.724 129.894 221.352 129.7 222.127 129.7C222.953 129.7 223.613 129.894 224.107 130.284C224.605 130.673 224.853 131.179 224.853 131.801H223.114C223.114 131.552 223.034 131.347 222.873 131.187C222.713 131.022 222.462 130.94 222.121 130.94C221.828 130.94 221.601 131.006 221.441 131.138C221.28 131.271 221.2 131.439 221.2 131.644C221.2 131.837 221.29 131.993 221.471 132.114C221.655 132.23 221.964 132.332 222.398 132.42C222.831 132.505 223.196 132.601 223.493 132.709C224.412 133.046 224.871 133.63 224.871 134.461C224.871 135.055 224.617 135.536 224.107 135.906C223.597 136.271 222.939 136.453 222.133 136.453C221.587 136.453 221.101 136.357 220.676 136.164C220.255 135.968 219.924 135.701 219.683 135.364C219.442 135.023 219.322 134.656 219.322 134.262H220.971C220.987 134.571 221.101 134.808 221.314 134.973C221.527 135.137 221.812 135.219 222.169 135.219C222.502 135.219 222.753 135.157 222.921 135.033C223.094 134.904 223.18 134.738 223.18 134.533ZM228.995 136.453C228.04 136.453 227.261 136.16 226.659 135.575C226.061 134.989 225.762 134.208 225.762 133.233V133.065C225.762 132.41 225.889 131.827 226.142 131.313C226.394 130.795 226.751 130.398 227.213 130.121C227.678 129.84 228.208 129.7 228.802 129.7C229.693 129.7 230.393 129.981 230.903 130.542C231.416 131.104 231.673 131.901 231.673 132.932V133.642H227.526C227.582 134.068 227.751 134.409 228.032 134.666C228.316 134.922 228.676 135.051 229.109 135.051C229.779 135.051 230.303 134.808 230.68 134.323L231.535 135.28C231.274 135.649 230.921 135.938 230.475 136.146C230.03 136.351 229.536 136.453 228.995 136.453ZM228.796 131.108C228.451 131.108 228.17 131.225 227.953 131.457C227.741 131.69 227.604 132.023 227.544 132.457H229.964V132.318C229.956 131.933 229.851 131.636 229.651 131.427C229.45 131.215 229.165 131.108 228.796 131.108ZM236.194 134.533C236.194 134.321 236.087 134.154 235.875 134.034C235.666 133.909 235.329 133.799 234.863 133.703C233.314 133.378 232.54 132.719 232.54 131.728C232.54 131.15 232.779 130.669 233.256 130.284C233.738 129.894 234.366 129.7 235.14 129.7C235.967 129.7 236.627 129.894 237.121 130.284C237.618 130.673 237.867 131.179 237.867 131.801H236.127C236.127 131.552 236.047 131.347 235.887 131.187C235.726 131.022 235.475 130.94 235.134 130.94C234.841 130.94 234.615 131.006 234.454 131.138C234.294 131.271 234.213 131.439 234.213 131.644C234.213 131.837 234.304 131.993 234.484 132.114C234.669 132.23 234.978 132.332 235.411 132.42C235.845 132.505 236.21 132.601 236.507 132.709C237.426 133.046 237.885 133.63 237.885 134.461C237.885 135.055 237.63 135.536 237.121 135.906C236.611 136.271 235.953 136.453 235.146 136.453C234.601 136.453 234.115 136.357 233.69 136.164C233.268 135.968 232.937 135.701 232.697 135.364C232.456 135.023 232.335 134.656 232.335 134.262H233.985C234.001 134.571 234.115 134.808 234.328 134.973C234.54 135.137 234.825 135.219 235.182 135.219C235.516 135.219 235.766 135.157 235.935 135.033C236.107 134.904 236.194 134.738 236.194 134.533Z" fill="#EE3A2B"/>
<rect width="206" height="28" transform="translate(35 150.333)" fill="white"/>
<path d="M40.0583 163.538H42.4508V165.565H40.0583V168.309H37.8483V165.565H35.4488V163.538H37.8483V160.872H40.0583V163.538ZM47.1516 164.338L47.776 159.118H53.7467V160.956H49.6984L49.4669 162.983C49.6353 162.885 49.8551 162.799 50.1264 162.724C50.4024 162.649 50.6713 162.612 50.9333 162.612C51.9482 162.612 52.727 162.913 53.2696 163.517C53.8169 164.115 54.0905 164.957 54.0905 166.042C54.0905 166.697 53.9432 167.291 53.6485 167.825C53.3585 168.353 52.9492 168.76 52.4207 169.045C51.8921 169.331 51.2677 169.473 50.5474 169.473C49.9066 169.473 49.3055 169.342 48.7442 169.08C48.1829 168.814 47.7433 168.451 47.4252 167.993C47.1072 167.53 46.9505 167.008 46.9551 166.428H49.3266C49.35 166.803 49.4692 167.1 49.6844 167.319C49.8996 167.539 50.1825 167.649 50.5333 167.649C51.3285 167.649 51.7261 167.06 51.7261 165.881C51.7261 164.791 51.2396 164.246 50.2667 164.246C49.7148 164.246 49.3032 164.424 49.0319 164.78L47.1516 164.338ZM67.421 168.07C67.0422 168.491 66.4879 168.83 65.7582 169.087C65.0286 169.345 64.2287 169.473 63.3587 169.473C62.021 169.473 60.9522 169.064 60.1524 168.246C59.3526 167.427 58.9246 166.288 58.8684 164.829L58.8614 163.945C58.8614 162.939 59.0392 162.062 59.3946 161.314C59.7501 160.561 60.2576 159.983 60.9171 159.581C61.5813 159.174 62.3484 158.97 63.2184 158.97C64.4907 158.97 65.4776 159.263 66.1792 159.847C66.8855 160.427 67.2971 161.295 67.414 162.45H65.0426C64.9584 161.88 64.776 161.473 64.4953 161.229C64.2147 160.986 63.8171 160.865 63.3026 160.865C62.6852 160.865 62.2081 161.127 61.8713 161.65C61.5346 162.174 61.3638 162.923 61.3591 163.896V164.513C61.3591 165.533 61.5322 166.3 61.8783 166.814C62.2291 167.324 62.7787 167.579 63.5271 167.579C64.1679 167.579 64.645 167.436 64.9584 167.151V165.565H63.2465V163.874H67.421V168.07ZM71.4763 169.333H69.0207V159.118H71.4763V169.333ZM81.5514 168.07C81.1726 168.491 80.6183 168.83 79.8886 169.087C79.1589 169.345 78.3591 169.473 77.4891 169.473C76.1514 169.473 75.0826 169.064 74.2828 168.246C73.4829 167.427 73.055 166.288 72.9988 164.829L72.9918 163.945C72.9918 162.939 73.1695 162.062 73.525 161.314C73.8805 160.561 74.388 159.983 75.0475 159.581C75.7117 159.174 76.4788 158.97 77.3488 158.97C78.621 158.97 79.608 159.263 80.3096 159.847C81.0159 160.427 81.4275 161.295 81.5444 162.45H79.173C79.0888 161.88 78.9064 161.473 78.6257 161.229C78.3451 160.986 77.9475 160.865 77.433 160.865C76.8156 160.865 76.3385 161.127 76.0017 161.65C75.6649 162.174 75.4942 162.923 75.4895 163.896V164.513C75.4895 165.533 75.6626 166.3 76.0087 166.814C76.3595 167.324 76.9091 167.579 77.6575 167.579C78.2983 167.579 78.7754 167.436 79.0888 167.151V165.565H77.3769V163.874H81.5514V168.07ZM88.785 167.425H85.4103L84.8209 169.333H82.1899L85.9365 159.118H88.2518L92.0264 169.333H89.3814L88.785 167.425ZM85.9996 165.523H88.1957L87.0941 161.98L85.9996 165.523ZM98.0462 166.618C98.0462 166.258 97.9176 165.977 97.6603 165.776C97.4078 165.575 96.9611 165.367 96.3203 165.151C95.6795 164.936 95.1556 164.728 94.7487 164.527C93.425 163.877 92.7631 162.983 92.7631 161.847C92.7631 161.281 92.9268 160.783 93.2542 160.352C93.5863 159.917 94.0541 159.581 94.6575 159.342C95.2608 159.099 95.9391 158.977 96.6921 158.977C97.4265 158.977 98.0837 159.108 98.6636 159.37C99.2483 159.632 99.702 160.006 100.025 160.493C100.348 160.975 100.509 161.526 100.509 162.149H98.0532C98.0532 161.732 97.9246 161.41 97.6674 161.18C97.4148 160.951 97.071 160.837 96.636 160.837C96.1963 160.837 95.8479 160.935 95.5906 161.131C95.338 161.323 95.2117 161.569 95.2117 161.868C95.2117 162.13 95.3521 162.368 95.6327 162.584C95.9133 162.794 96.4068 163.014 97.1131 163.243C97.8194 163.468 98.3994 163.711 98.8531 163.973C99.9569 164.609 100.509 165.486 100.509 166.604C100.509 167.497 100.172 168.199 99.4986 168.709C98.825 169.218 97.9012 169.473 96.7272 169.473C95.8993 169.473 95.1486 169.326 94.475 169.031C93.8062 168.732 93.301 168.325 92.9596 167.811C92.6228 167.291 92.4544 166.695 92.4544 166.021H94.9241C94.9241 166.569 95.0644 166.973 95.345 167.235C95.6304 167.492 96.0911 167.621 96.7272 167.621C97.1341 167.621 97.4545 167.535 97.6884 167.361C97.927 167.184 98.0462 166.936 98.0462 166.618Z" fill="#222222" fill-opacity="0.8"/>
<path d="M173.173 157.902V161.333H172.017V152.569H175.25C176.209 152.569 176.959 152.814 177.501 153.303C178.047 153.793 178.319 154.441 178.319 155.248C178.319 156.098 178.053 156.754 177.519 157.216C176.989 157.673 176.229 157.902 175.238 157.902H173.173ZM173.173 156.957H175.25C175.868 156.957 176.341 156.813 176.67 156.524C176.999 156.231 177.164 155.809 177.164 155.26C177.164 154.738 176.999 154.321 176.67 154.008C176.341 153.695 175.89 153.532 175.316 153.52H173.173V156.957ZM183.568 161.333C183.504 161.205 183.452 160.976 183.412 160.647C182.894 161.185 182.276 161.453 181.558 161.453C180.916 161.453 180.388 161.273 179.975 160.912C179.565 160.546 179.361 160.085 179.361 159.527C179.361 158.849 179.618 158.323 180.131 157.95C180.649 157.573 181.375 157.384 182.31 157.384H183.394V156.873C183.394 156.483 183.277 156.175 183.045 155.946C182.812 155.713 182.469 155.597 182.015 155.597C181.618 155.597 181.285 155.697 181.016 155.898C180.747 156.098 180.613 156.341 180.613 156.626H179.493C179.493 156.301 179.608 155.988 179.836 155.687C180.069 155.382 180.382 155.141 180.775 154.965C181.173 154.788 181.608 154.7 182.081 154.7C182.832 154.7 183.42 154.888 183.845 155.266C184.27 155.639 184.491 156.154 184.507 156.813V159.81C184.507 160.408 184.583 160.884 184.736 161.237V161.333H183.568ZM181.72 160.484C182.069 160.484 182.4 160.394 182.713 160.213C183.026 160.033 183.253 159.798 183.394 159.509V158.173H182.521C181.156 158.173 180.474 158.572 180.474 159.371C180.474 159.72 180.591 159.993 180.823 160.189C181.056 160.386 181.355 160.484 181.72 160.484ZM189.401 155.819C189.232 155.791 189.05 155.777 188.853 155.777C188.123 155.777 187.627 156.088 187.366 156.71V161.333H186.253V154.82H187.336L187.354 155.573C187.719 154.991 188.237 154.7 188.907 154.7C189.124 154.7 189.288 154.728 189.401 154.784V155.819ZM194.21 161.333C194.146 161.205 194.094 160.976 194.054 160.647C193.536 161.185 192.918 161.453 192.2 161.453C191.558 161.453 191.03 161.273 190.617 160.912C190.207 160.546 190.003 160.085 190.003 159.527C190.003 158.849 190.26 158.323 190.773 157.95C191.291 157.573 192.017 157.384 192.952 157.384H194.036V156.873C194.036 156.483 193.919 156.175 193.687 155.946C193.454 155.713 193.111 155.597 192.657 155.597C192.26 155.597 191.927 155.697 191.658 155.898C191.389 156.098 191.255 156.341 191.255 156.626H190.135C190.135 156.301 190.25 155.988 190.478 155.687C190.711 155.382 191.024 155.141 191.417 154.965C191.815 154.788 192.25 154.7 192.723 154.7C193.474 154.7 194.062 154.888 194.487 155.266C194.912 155.639 195.133 156.154 195.149 156.813V159.81C195.149 160.408 195.225 160.884 195.378 161.237V161.333H194.21ZM192.362 160.484C192.711 160.484 193.042 160.394 193.355 160.213C193.668 160.033 193.895 159.798 194.036 159.509V158.173H193.163C191.799 158.173 191.116 158.572 191.116 159.371C191.116 159.72 191.233 159.993 191.465 160.189C191.698 160.386 191.997 160.484 192.362 160.484ZM205.942 153.52H203.125V161.333H201.975V153.52H199.164V152.569H205.942V153.52ZM208.277 161.333H207.164V154.82H208.277V161.333ZM207.073 153.093C207.073 152.912 207.128 152.76 207.236 152.635C207.348 152.511 207.513 152.449 207.729 152.449C207.946 152.449 208.111 152.511 208.223 152.635C208.335 152.76 208.392 152.912 208.392 153.093C208.392 153.273 208.335 153.424 208.223 153.544C208.111 153.664 207.946 153.725 207.729 153.725C207.513 153.725 207.348 153.664 207.236 153.544C207.128 153.424 207.073 153.273 207.073 153.093ZM211.883 158.317L211.185 159.046V161.333H210.071V152.087H211.185V157.679L211.78 156.963L213.809 154.82H215.163L212.629 157.541L215.458 161.333H214.152L211.883 158.317ZM225.36 153.52H222.543V161.333H221.393V153.52H218.582V152.569H225.36V153.52ZM225.589 158.016C225.589 157.378 225.713 156.805 225.962 156.295C226.215 155.785 226.564 155.392 227.009 155.115C227.459 154.838 227.97 154.7 228.544 154.7C229.431 154.7 230.147 155.007 230.693 155.621C231.243 156.235 231.518 157.051 231.518 158.071V158.149C231.518 158.783 231.395 159.353 231.15 159.858C230.91 160.36 230.562 160.751 230.109 161.032C229.66 161.313 229.142 161.453 228.556 161.453C227.673 161.453 226.957 161.146 226.407 160.532C225.861 159.918 225.589 159.106 225.589 158.095V158.016ZM226.708 158.149C226.708 158.871 226.875 159.451 227.208 159.888C227.545 160.326 227.994 160.544 228.556 160.544C229.122 160.544 229.571 160.324 229.904 159.882C230.237 159.437 230.404 158.815 230.404 158.016C230.404 157.302 230.233 156.724 229.892 156.283C229.555 155.837 229.106 155.615 228.544 155.615C227.994 155.615 227.551 155.833 227.214 156.271C226.877 156.708 226.708 157.334 226.708 158.149ZM234.732 158.317L234.034 159.046V161.333H232.92V152.087H234.034V157.679L234.629 156.963L236.658 154.82H238.012L235.478 157.541L238.307 161.333H237.001L234.732 158.317Z" fill="#222222" fill-opacity="0.8"/>
<path d="M177.531 172.137C177.531 173.14 177.302 173.945 176.845 174.551C176.391 175.152 175.777 175.453 175.003 175.453C174.345 175.453 173.813 175.225 173.408 174.767V177.837H171.668V168.82H173.281L173.341 169.458C173.763 168.953 174.313 168.7 174.991 168.7C175.793 168.7 176.417 168.997 176.863 169.591C177.308 170.185 177.531 171.003 177.531 172.046V172.137ZM175.791 172.01C175.791 171.404 175.683 170.937 175.466 170.608C175.254 170.279 174.943 170.114 174.533 170.114C173.988 170.114 173.612 170.323 173.408 170.74V173.407C173.62 173.836 174 174.051 174.545 174.051C175.376 174.051 175.791 173.371 175.791 172.01ZM178.343 172.016C178.343 171.37 178.468 170.794 178.717 170.289C178.965 169.783 179.323 169.392 179.788 169.115C180.258 168.838 180.801 168.7 181.419 168.7C182.298 168.7 183.014 168.969 183.568 169.506C184.126 170.044 184.437 170.774 184.501 171.697L184.513 172.143C184.513 173.142 184.234 173.945 183.677 174.551C183.119 175.152 182.37 175.453 181.431 175.453C180.492 175.453 179.742 175.152 179.18 174.551C178.622 173.949 178.343 173.13 178.343 172.095V172.016ZM180.083 172.143C180.083 172.761 180.199 173.234 180.432 173.563C180.665 173.888 180.998 174.051 181.431 174.051C181.853 174.051 182.182 173.89 182.419 173.569C182.655 173.244 182.774 172.727 182.774 172.016C182.774 171.41 182.655 170.941 182.419 170.608C182.182 170.275 181.849 170.108 181.419 170.108C180.994 170.108 180.665 170.275 180.432 170.608C180.199 170.937 180.083 171.449 180.083 172.143ZM189.244 170.451C189.008 170.419 188.799 170.403 188.618 170.403C187.96 170.403 187.529 170.626 187.324 171.071V175.333H185.585V168.82H187.228L187.276 169.597C187.625 168.999 188.109 168.7 188.727 168.7C188.919 168.7 189.1 168.726 189.268 168.778L189.244 170.451ZM197.804 166.479V167.911H197.635C196.849 167.923 196.215 168.128 195.733 168.525C195.256 168.923 194.969 169.474 194.872 170.181C195.338 169.707 195.926 169.47 196.636 169.47C197.398 169.47 198.004 169.743 198.454 170.289C198.903 170.835 199.128 171.553 199.128 172.444C199.128 173.014 199.004 173.529 198.755 173.991C198.51 174.452 198.161 174.811 197.707 175.068C197.258 175.325 196.748 175.453 196.179 175.453C195.256 175.453 194.509 175.132 193.939 174.49C193.374 173.848 193.091 172.992 193.091 171.92V171.294C193.091 170.343 193.269 169.504 193.626 168.778C193.988 168.048 194.503 167.484 195.173 167.087C195.847 166.685 196.628 166.483 197.515 166.479H197.804ZM196.106 170.867C195.825 170.867 195.571 170.941 195.342 171.089C195.113 171.234 194.945 171.427 194.836 171.667V172.197C194.836 172.779 194.951 173.234 195.179 173.563C195.408 173.888 195.729 174.051 196.142 174.051C196.516 174.051 196.817 173.904 197.045 173.612C197.278 173.315 197.394 172.931 197.394 172.462C197.394 171.984 197.278 171.599 197.045 171.306C196.813 171.013 196.5 170.867 196.106 170.867ZM204.937 168.82L204.991 169.549C205.452 168.983 206.076 168.7 206.863 168.7C207.701 168.7 208.277 169.031 208.59 169.693C209.048 169.031 209.7 168.7 210.546 168.7C211.253 168.7 211.778 168.906 212.124 169.32C212.469 169.729 212.641 170.347 212.641 171.174V175.333H210.896V171.18C210.896 170.811 210.823 170.542 210.679 170.373C210.534 170.201 210.28 170.114 209.914 170.114C209.393 170.114 209.032 170.363 208.831 170.861L208.837 175.333H207.097V171.186C207.097 170.809 207.023 170.536 206.875 170.367C206.726 170.199 206.473 170.114 206.116 170.114C205.623 170.114 205.266 170.319 205.045 170.728V175.333H203.305V168.82H204.937ZM216.981 175.453C216.026 175.453 215.248 175.16 214.646 174.575C214.048 173.989 213.749 173.208 213.749 172.233V172.065C213.749 171.41 213.875 170.827 214.128 170.313C214.381 169.795 214.738 169.398 215.199 169.121C215.665 168.84 216.195 168.7 216.788 168.7C217.679 168.7 218.38 168.981 218.889 169.542C219.403 170.104 219.66 170.901 219.66 171.932V172.642H215.512C215.569 173.068 215.737 173.409 216.018 173.666C216.303 173.922 216.662 174.051 217.095 174.051C217.766 174.051 218.289 173.808 218.666 173.323L219.521 174.28C219.26 174.649 218.907 174.938 218.462 175.146C218.016 175.351 217.523 175.453 216.981 175.453ZM216.782 170.108C216.437 170.108 216.156 170.225 215.94 170.457C215.727 170.69 215.591 171.023 215.53 171.457H217.95V171.318C217.942 170.933 217.838 170.636 217.637 170.427C217.437 170.215 217.152 170.108 216.782 170.108ZM224.18 173.533C224.18 173.321 224.074 173.154 223.861 173.034C223.652 172.909 223.315 172.799 222.85 172.703C221.301 172.378 220.526 171.719 220.526 170.728C220.526 170.15 220.765 169.669 221.243 169.284C221.724 168.894 222.352 168.7 223.127 168.7C223.953 168.7 224.613 168.894 225.107 169.284C225.605 169.673 225.853 170.179 225.853 170.801H224.114C224.114 170.552 224.034 170.347 223.873 170.187C223.713 170.022 223.462 169.94 223.121 169.94C222.828 169.94 222.601 170.006 222.441 170.138C222.28 170.271 222.2 170.439 222.2 170.644C222.2 170.837 222.29 170.993 222.471 171.114C222.655 171.23 222.964 171.332 223.398 171.42C223.831 171.505 224.196 171.601 224.493 171.709C225.412 172.046 225.871 172.63 225.871 173.461C225.871 174.055 225.617 174.536 225.107 174.906C224.597 175.271 223.939 175.453 223.133 175.453C222.587 175.453 222.101 175.357 221.676 175.164C221.255 174.968 220.924 174.701 220.683 174.364C220.442 174.023 220.322 173.656 220.322 173.262H221.971C221.987 173.571 222.101 173.808 222.314 173.973C222.527 174.137 222.812 174.219 223.169 174.219C223.502 174.219 223.753 174.157 223.921 174.033C224.094 173.904 224.18 173.738 224.18 173.533ZM229.995 175.453C229.04 175.453 228.261 175.16 227.659 174.575C227.061 173.989 226.762 173.208 226.762 172.233V172.065C226.762 171.41 226.889 170.827 227.142 170.313C227.394 169.795 227.751 169.398 228.213 169.121C228.678 168.84 229.208 168.7 229.802 168.7C230.693 168.7 231.393 168.981 231.903 169.542C232.416 170.104 232.673 170.901 232.673 171.932V172.642H228.526C228.582 173.068 228.751 173.409 229.032 173.666C229.316 173.922 229.676 174.051 230.109 174.051C230.779 174.051 231.303 173.808 231.68 173.323L232.535 174.28C232.274 174.649 231.921 174.938 231.475 175.146C231.03 175.351 230.536 175.453 229.995 175.453ZM229.796 170.108C229.451 170.108 229.17 170.225 228.953 170.457C228.741 170.69 228.604 171.023 228.544 171.457H230.964V171.318C230.956 170.933 230.851 170.636 230.651 170.427C230.45 170.215 230.165 170.108 229.796 170.108ZM237.194 173.533C237.194 173.321 237.087 173.154 236.875 173.034C236.666 172.909 236.329 172.799 235.863 172.703C234.314 172.378 233.54 171.719 233.54 170.728C233.54 170.15 233.779 169.669 234.256 169.284C234.738 168.894 235.366 168.7 236.14 168.7C236.967 168.7 237.627 168.894 238.121 169.284C238.618 169.673 238.867 170.179 238.867 170.801H237.127C237.127 170.552 237.047 170.347 236.887 170.187C236.726 170.022 236.475 169.94 236.134 169.94C235.841 169.94 235.615 170.006 235.454 170.138C235.294 170.271 235.213 170.439 235.213 170.644C235.213 170.837 235.304 170.993 235.484 171.114C235.669 171.23 235.978 171.332 236.411 171.42C236.845 171.505 237.21 171.601 237.507 171.709C238.426 172.046 238.885 172.63 238.885 173.461C238.885 174.055 238.63 174.536 238.121 174.906C237.611 175.271 236.953 175.453 236.146 175.453C235.601 175.453 235.115 175.357 234.69 175.164C234.268 174.968 233.937 174.701 233.697 174.364C233.456 174.023 233.335 173.656 233.335 173.262H234.985C235.001 173.571 235.115 173.808 235.328 173.973C235.54 174.137 235.825 174.219 236.182 174.219C236.516 174.219 236.766 174.157 236.935 174.033C237.107 173.904 237.194 173.738 237.194 173.533Z" fill="#EE3A2B"/>
<rect x="0.5" y="0.5" width="275" height="186" rx="9.5" stroke="#EF3829"/>
</svg>
