<svg width="276" height="113" viewBox="0 0 276 113" fill="none" xmlns="http://www.w3.org/2000/svg">
<rect x="0.5" y="0.5" width="275" height="112" rx="9.5" fill="white"/>
<rect width="208" height="60" transform="translate(30 6)" fill="white"/>
<path d="M35.9312 57H33.5598V49.4507L31.2304 50.1313V48.3351L35.7137 46.7846H35.9312V57ZM45.9011 49.5138C45.9011 50.0096 45.7771 50.447 45.5292 50.8258C45.286 51.2047 44.9492 51.5087 44.5189 51.7379C45.0053 51.9765 45.3912 52.3039 45.6765 52.7202C45.9619 53.1318 46.1045 53.6206 46.1045 54.1866C46.1045 55.0986 45.7888 55.819 45.1573 56.3475C44.5306 56.876 43.6653 57.1403 42.5614 57.1403C41.4529 57.1403 40.5782 56.876 39.9374 56.3475C39.2966 55.8143 38.9762 55.094 38.9762 54.1866C38.9762 53.6393 39.1165 53.1552 39.3971 52.7342C39.6778 52.3133 40.0754 51.9812 40.5899 51.7379C40.1549 51.5087 39.8134 51.2047 39.5655 50.8258C39.3176 50.447 39.1937 50.0096 39.1937 49.5138C39.1937 48.6251 39.4954 47.9235 40.0988 47.409C40.7021 46.8945 41.516 46.6372 42.5404 46.6372C43.5741 46.6372 44.3926 46.8945 44.996 47.409C45.5994 47.9235 45.9011 48.6251 45.9011 49.5138ZM43.7331 53.9971C43.7331 53.5762 43.6232 53.2534 43.4033 53.0289C43.1882 52.7997 42.9028 52.6851 42.5474 52.6851C42.1919 52.6851 41.9042 52.7997 41.6844 53.0289C41.4646 53.2534 41.3546 53.5762 41.3546 53.9971C41.3546 54.4041 41.4646 54.7268 41.6844 54.9653C41.9089 55.1992 42.2012 55.3161 42.5614 55.3161C42.9122 55.3161 43.1952 55.1992 43.4103 54.9653C43.6255 54.7315 43.7331 54.4087 43.7331 53.9971ZM42.5404 48.4614C42.2223 48.4614 41.9791 48.5667 41.8107 48.7772C41.647 48.983 41.5651 49.2706 41.5651 49.6401C41.5651 50.005 41.6493 50.2996 41.8177 50.5242C41.9861 50.7487 42.234 50.8609 42.5614 50.8609C42.8841 50.8609 43.125 50.7487 43.2841 50.5242C43.4478 50.2996 43.5296 50.005 43.5296 49.6401C43.5296 49.2753 43.4454 48.9876 43.277 48.7772C43.1133 48.5667 42.8678 48.4614 42.5404 48.4614ZM59.421 55.7371C59.0422 56.1581 58.4879 56.4972 57.7582 56.7544C57.0286 57.0117 56.2287 57.1403 55.3587 57.1403C54.021 57.1403 52.9522 56.7311 52.1524 55.9125C51.3525 55.094 50.9246 53.955 50.8684 52.4957L50.8614 51.6117C50.8614 50.606 51.0392 49.729 51.3946 48.9806C51.7501 48.2276 52.2576 47.6499 52.9171 47.2476C53.5813 46.8407 54.3484 46.6372 55.2184 46.6372C56.4907 46.6372 57.4776 46.9296 58.1792 47.5143C58.8855 48.0943 59.2971 48.9619 59.414 50.1172H57.0426C56.9584 49.5466 56.776 49.1397 56.4953 48.8964C56.2147 48.6532 55.8171 48.5316 55.3026 48.5316C54.6852 48.5316 54.2081 48.7935 53.8713 49.3174C53.5345 49.8413 53.3638 50.5896 53.3591 51.5625V52.18C53.3591 53.1996 53.5322 53.9667 53.8783 54.4812C54.2291 54.9911 54.7787 55.246 55.5271 55.246C56.1679 55.246 56.645 55.1033 56.9584 54.818V53.2324H55.2465V51.5415H59.421V55.7371ZM63.4763 57H61.0207V46.7846H63.4763V57ZM73.5514 55.7371C73.1726 56.1581 72.6183 56.4972 71.8886 56.7544C71.1589 57.0117 70.3591 57.1403 69.4891 57.1403C68.1514 57.1403 67.0826 56.7311 66.2828 55.9125C65.4829 55.094 65.055 53.955 64.9988 52.4957L64.9918 51.6117C64.9918 50.606 65.1695 49.729 65.525 48.9806C65.8805 48.2276 66.388 47.6499 67.0475 47.2476C67.7117 46.8407 68.4788 46.6372 69.3488 46.6372C70.621 46.6372 71.608 46.9296 72.3096 47.5143C73.0159 48.0943 73.4275 48.9619 73.5444 50.1172H71.173C71.0888 49.5466 70.9064 49.1397 70.6257 48.8964C70.3451 48.6532 69.9475 48.5316 69.433 48.5316C68.8156 48.5316 68.3385 48.7935 68.0017 49.3174C67.6649 49.8413 67.4942 50.5896 67.4895 51.5625V52.18C67.4895 53.1996 67.6626 53.9667 68.0087 54.4812C68.3595 54.9911 68.9091 55.246 69.6575 55.246C70.2983 55.246 70.7754 55.1033 71.0888 54.818V53.2324H69.3769V51.5415H73.5514V55.7371ZM80.785 55.0916H77.4103L76.8209 57H74.1899L77.9365 46.7846H80.2518L84.0264 57H81.3814L80.785 55.0916ZM77.9996 53.1903H80.1957L79.0941 49.6471L77.9996 53.1903ZM90.0462 54.2848C90.0462 53.9246 89.9176 53.644 89.6603 53.4428C89.4078 53.2417 88.9611 53.0336 88.3203 52.8184C87.6795 52.6033 87.1556 52.3951 86.7487 52.194C85.425 51.5438 84.7631 50.6504 84.7631 49.5138C84.7631 48.9479 84.9268 48.4497 85.2542 48.0194C85.5863 47.5844 86.0541 47.2476 86.6575 47.0091C87.2608 46.7659 87.9391 46.6443 88.6921 46.6443C89.4265 46.6443 90.0837 46.7752 90.6636 47.0372C91.2483 47.2991 91.702 47.6733 92.0248 48.1597C92.3475 48.6415 92.5089 49.1934 92.5089 49.8155H90.0532C90.0532 49.3992 89.9246 49.0765 89.6674 48.8473C89.4148 48.6181 89.071 48.5035 88.636 48.5035C88.1963 48.5035 87.8479 48.6018 87.5906 48.7982C87.338 48.99 87.2117 49.2355 87.2117 49.5349C87.2117 49.7968 87.3521 50.0354 87.6327 50.2505C87.9133 50.461 88.4068 50.6809 89.1131 50.91C89.8194 51.1346 90.3994 51.3778 90.8531 51.6397C91.9569 52.2758 92.5089 53.1528 92.5089 54.2707C92.5089 55.1641 92.1721 55.8657 91.4986 56.3756C90.825 56.8854 89.9012 57.1403 88.7272 57.1403C87.8993 57.1403 87.1486 56.993 86.475 56.6983C85.8062 56.399 85.301 55.992 84.9596 55.4775C84.6228 54.9583 84.4544 54.362 84.4544 53.6884H86.9241C86.9241 54.2357 87.0644 54.6403 87.345 54.9022C87.6304 55.1594 88.0911 55.2881 88.7272 55.2881C89.1341 55.2881 89.4545 55.2015 89.6884 55.0285C89.927 54.8507 90.0462 54.6028 90.0462 54.2848Z" fill="#222222" fill-opacity="0.8"/>
<path d="M168.173 45.569V49H167.017V40.236H170.25C171.209 40.236 171.959 40.4808 172.501 40.9703C173.047 41.4599 173.319 42.108 173.319 42.9145C173.319 43.7653 173.053 44.4214 172.519 44.8828C171.989 45.3403 171.229 45.569 170.238 45.569H168.173ZM168.173 44.624H170.25C170.868 44.624 171.341 44.4795 171.67 44.1906C171.999 43.8977 172.164 43.4763 172.164 42.9266C172.164 42.4049 171.999 41.9876 171.67 41.6746C171.341 41.3616 170.89 41.1991 170.316 41.187H168.173V44.624ZM178.568 49C178.504 48.8716 178.452 48.6429 178.412 48.3138C177.894 48.8515 177.276 49.1204 176.558 49.1204C175.916 49.1204 175.388 48.9398 174.975 48.5787C174.565 48.2135 174.361 47.752 174.361 47.1942C174.361 46.5161 174.618 45.9904 175.131 45.6172C175.649 45.24 176.375 45.0514 177.31 45.0514H178.394V44.5397C178.394 44.1505 178.277 43.8415 178.045 43.6128C177.812 43.38 177.469 43.2637 177.015 43.2637C176.618 43.2637 176.285 43.364 176.016 43.5646C175.747 43.7653 175.613 44.008 175.613 44.2929H174.493C174.493 43.9679 174.608 43.6549 174.836 43.3539C175.069 43.049 175.382 42.8082 175.775 42.6316C176.173 42.4551 176.608 42.3668 177.081 42.3668C177.832 42.3668 178.42 42.5554 178.845 42.9326C179.27 43.3058 179.491 43.8214 179.507 44.4795V47.4771C179.507 48.075 179.583 48.5506 179.736 48.9037V49H178.568ZM176.72 48.1513C177.069 48.1513 177.4 48.061 177.713 47.8804C178.026 47.6998 178.253 47.4651 178.394 47.1762V45.8399H177.521C176.156 45.8399 175.474 46.2392 175.474 47.0377C175.474 47.3868 175.591 47.6597 175.823 47.8563C176.056 48.053 176.355 48.1513 176.72 48.1513ZM184.401 43.4864C184.232 43.4583 184.05 43.4442 183.853 43.4442C183.123 43.4442 182.627 43.7552 182.366 44.3772V49H181.253V42.4872H182.336L182.354 43.2396C182.719 42.6577 183.237 42.3668 183.907 42.3668C184.124 42.3668 184.288 42.3949 184.401 42.4511V43.4864ZM189.21 49C189.146 48.8716 189.094 48.6429 189.054 48.3138C188.536 48.8515 187.918 49.1204 187.2 49.1204C186.558 49.1204 186.03 48.9398 185.617 48.5787C185.207 48.2135 185.003 47.752 185.003 47.1942C185.003 46.5161 185.26 45.9904 185.773 45.6172C186.291 45.24 187.017 45.0514 187.952 45.0514H189.036V44.5397C189.036 44.1505 188.919 43.8415 188.687 43.6128C188.454 43.38 188.111 43.2637 187.657 43.2637C187.26 43.2637 186.927 43.364 186.658 43.5646C186.389 43.7653 186.255 44.008 186.255 44.2929H185.135C185.135 43.9679 185.25 43.6549 185.478 43.3539C185.711 43.049 186.024 42.8082 186.417 42.6316C186.815 42.4551 187.25 42.3668 187.723 42.3668C188.474 42.3668 189.062 42.5554 189.487 42.9326C189.912 43.3058 190.133 43.8214 190.149 44.4795V47.4771C190.149 48.075 190.225 48.5506 190.378 48.9037V49H189.21ZM187.362 48.1513C187.711 48.1513 188.042 48.061 188.355 47.8804C188.668 47.6998 188.895 47.4651 189.036 47.1762V45.8399H188.163C186.799 45.8399 186.116 46.2392 186.116 47.0377C186.116 47.3868 186.233 47.6597 186.465 47.8563C186.698 48.053 186.997 48.1513 187.362 48.1513Z" fill="#222222" fill-opacity="0.8"/>
<path d="M168.269 56.4872L168.323 57.2396C168.789 56.6577 169.413 56.3668 170.195 56.3668C170.886 56.3668 171.399 56.5694 171.736 56.9747C172.073 57.38 172.246 57.986 172.254 58.7925V63H170.514V58.8347C170.514 58.4655 170.434 58.1986 170.274 58.0341C170.113 57.8656 169.846 57.7813 169.473 57.7813C168.984 57.7813 168.616 57.99 168.372 58.4073V63H166.632V56.4872H168.269ZM177.352 63C177.272 62.8435 177.214 62.6489 177.178 62.4161C176.756 62.8856 176.209 63.1204 175.534 63.1204C174.896 63.1204 174.367 62.9358 173.945 62.5666C173.528 62.1974 173.319 61.7319 173.319 61.1701C173.319 60.4799 173.574 59.9502 174.084 59.5811C174.597 59.2119 175.338 59.0253 176.305 59.0213H177.106V58.6481C177.106 58.3471 177.027 58.1064 176.871 57.9258C176.718 57.7452 176.475 57.6549 176.142 57.6549C175.849 57.6549 175.619 57.7251 175.45 57.8656C175.286 58.006 175.203 58.1986 175.203 58.4434H173.464C173.464 58.0662 173.58 57.7171 173.813 57.3961C174.046 57.0751 174.375 56.8243 174.8 56.6437C175.226 56.4591 175.703 56.3668 176.233 56.3668C177.035 56.3668 177.671 56.5694 178.141 56.9747C178.614 57.376 178.851 57.9418 178.851 58.6722V61.4952C178.855 62.1132 178.941 62.5807 179.11 62.8977V63H177.352ZM175.914 61.7901C176.171 61.7901 176.407 61.734 176.624 61.6216C176.841 61.5052 177.001 61.3507 177.106 61.1581V60.0385H176.455C175.585 60.0385 175.121 60.3395 175.065 60.9414L175.059 61.0437C175.059 61.2604 175.135 61.439 175.288 61.5795C175.44 61.7199 175.649 61.7901 175.914 61.7901ZM182.529 60.8752L183.739 56.4872H185.557L183.36 63H181.698L179.501 56.4872H181.319L182.529 60.8752ZM189.24 63.1204C188.285 63.1204 187.507 62.8274 186.905 62.2416C186.307 61.6557 186.008 60.8752 186.008 59.9001V59.7315C186.008 59.0775 186.134 58.4936 186.387 57.9799C186.64 57.4623 186.997 57.065 187.459 56.7881C187.924 56.5072 188.454 56.3668 189.048 56.3668C189.939 56.3668 190.639 56.6477 191.148 57.2095C191.662 57.7713 191.919 58.5678 191.919 59.5991V60.3094H187.772C187.828 60.7348 187.996 61.0758 188.277 61.3327C188.562 61.5895 188.921 61.7179 189.355 61.7179C190.025 61.7179 190.549 61.4751 190.926 60.9896L191.78 61.9466C191.52 62.3158 191.166 62.6047 190.721 62.8134C190.276 63.0181 189.782 63.1204 189.24 63.1204ZM189.042 57.7753C188.697 57.7753 188.416 57.8917 188.199 58.1244C187.986 58.3572 187.85 58.6902 187.79 59.1236H190.209V58.9852C190.201 58.5999 190.097 58.303 189.896 58.0943C189.696 57.8816 189.411 57.7753 189.042 57.7753ZM192.659 59.6954C192.659 58.6962 192.896 57.8917 193.37 57.2817C193.847 56.6718 194.489 56.3668 195.296 56.3668C196.01 56.3668 196.566 56.6116 196.963 57.1011L197.035 56.4872H198.612V62.7833C198.612 63.3531 198.482 63.8487 198.221 64.2701C197.964 64.6914 197.601 65.0124 197.132 65.2331C196.662 65.4538 196.112 65.5642 195.482 65.5642C195.005 65.5642 194.539 65.4679 194.086 65.2753C193.632 65.0867 193.289 64.8419 193.057 64.5409L193.827 63.4815C194.26 63.9671 194.786 64.2099 195.404 64.2099C195.866 64.2099 196.225 64.0855 196.481 63.8367C196.738 63.5919 196.867 63.2428 196.867 62.7893V62.4402C196.465 62.8937 195.938 63.1204 195.284 63.1204C194.501 63.1204 193.867 62.8154 193.382 62.2055C192.9 61.5915 192.659 60.7789 192.659 59.7677V59.6954ZM194.399 59.8218C194.399 60.4117 194.517 60.8752 194.754 61.2123C194.991 61.5453 195.316 61.7119 195.729 61.7119C196.259 61.7119 196.638 61.5132 196.867 61.116V58.3772C196.634 57.9799 196.259 57.7813 195.741 57.7813C195.324 57.7813 194.995 57.9519 194.754 58.2929C194.517 58.634 194.399 59.1437 194.399 59.8218ZM203.729 63C203.648 62.8435 203.59 62.6489 203.554 62.4161C203.133 62.8856 202.585 63.1204 201.911 63.1204C201.273 63.1204 200.743 62.9358 200.322 62.5666C199.904 62.1974 199.696 61.7319 199.696 61.1701C199.696 60.4799 199.951 59.9502 200.46 59.5811C200.974 59.2119 201.714 59.0253 202.681 59.0213H203.482V58.6481C203.482 58.3471 203.404 58.1064 203.247 57.9258C203.095 57.7452 202.852 57.6549 202.519 57.6549C202.226 57.6549 201.995 57.7251 201.827 57.8656C201.662 58.006 201.58 58.1986 201.58 58.4434H199.84C199.84 58.0662 199.957 57.7171 200.189 57.3961C200.422 57.0751 200.751 56.8243 201.176 56.6437C201.602 56.4591 202.079 56.3668 202.609 56.3668C203.412 56.3668 204.048 56.5694 204.517 56.9747C204.991 57.376 205.227 57.9418 205.227 58.6722V61.4952C205.231 62.1132 205.318 62.5807 205.486 62.8977V63H203.729ZM202.29 61.7901C202.547 61.7901 202.784 61.734 203 61.6216C203.217 61.5052 203.378 61.3507 203.482 61.1581V60.0385H202.832C201.961 60.0385 201.498 60.3395 201.441 60.9414L201.435 61.0437C201.435 61.2604 201.512 61.439 201.664 61.5795C201.817 61.7199 202.025 61.7901 202.29 61.7901ZM210.223 58.1184C209.987 58.0863 209.778 58.0702 209.597 58.0702C208.939 58.0702 208.508 58.2929 208.303 58.7384V63H206.564V56.4872H208.207L208.255 57.2637C208.604 56.6657 209.088 56.3668 209.706 56.3668C209.898 56.3668 210.079 56.3929 210.248 56.445L210.223 58.1184Z" fill="#EE3A2B"/>
<rect width="199" height="33" transform="translate(34.5 74)" fill="white"/>
<path d="M39.5583 87.2047H41.9508V89.2324H39.5583V91.9757H37.3483V89.2324H34.9488V87.2047H37.3483V84.5386H39.5583V87.2047ZM53.6115 84.0475L49.7948 93H47.2971L51.1208 84.6088H46.2517V82.7846H53.6115V84.0475ZM66.921 91.7371C66.5422 92.1581 65.9879 92.4972 65.2582 92.7544C64.5286 93.0117 63.7287 93.1403 62.8587 93.1403C61.521 93.1403 60.4522 92.7311 59.6524 91.9125C58.8526 91.094 58.4246 89.955 58.3684 88.4957L58.3614 87.6117C58.3614 86.606 58.5392 85.729 58.8946 84.9806C59.2501 84.2276 59.7576 83.6499 60.4171 83.2476C61.0813 82.8407 61.8484 82.6372 62.7184 82.6372C63.9907 82.6372 64.9776 82.9296 65.6792 83.5143C66.3855 84.0943 66.7971 84.9619 66.914 86.1172H64.5426C64.4584 85.5466 64.276 85.1397 63.9953 84.8964C63.7147 84.6532 63.3171 84.5316 62.8026 84.5316C62.1852 84.5316 61.7081 84.7935 61.3713 85.3174C61.0346 85.8413 60.8638 86.5896 60.8591 87.5625V88.18C60.8591 89.1996 61.0322 89.9667 61.3783 90.4812C61.7291 90.9911 62.2787 91.246 63.0271 91.246C63.6679 91.246 64.145 91.1033 64.4584 90.818V89.2324H62.7465V87.5415H66.921V91.7371ZM70.9763 93H68.5207V82.7846H70.9763V93ZM81.0514 91.7371C80.6726 92.1581 80.1183 92.4972 79.3886 92.7544C78.6589 93.0117 77.8591 93.1403 76.9891 93.1403C75.6514 93.1403 74.5826 92.7311 73.7828 91.9125C72.9829 91.094 72.555 89.955 72.4988 88.4957L72.4918 87.6117C72.4918 86.606 72.6695 85.729 73.025 84.9806C73.3805 84.2276 73.888 83.6499 74.5475 83.2476C75.2117 82.8407 75.9788 82.6372 76.8488 82.6372C78.121 82.6372 79.108 82.9296 79.8096 83.5143C80.5159 84.0943 80.9275 84.9619 81.0444 86.1172H78.673C78.5888 85.5466 78.4064 85.1397 78.1257 84.8964C77.8451 84.6532 77.4475 84.5316 76.933 84.5316C76.3156 84.5316 75.8385 84.7935 75.5017 85.3174C75.1649 85.8413 74.9942 86.5896 74.9895 87.5625V88.18C74.9895 89.1996 75.1626 89.9667 75.5087 90.4812C75.8595 90.9911 76.4091 91.246 77.1575 91.246C77.7983 91.246 78.2754 91.1033 78.5888 90.818V89.2324H76.8769V87.5415H81.0514V91.7371ZM88.285 91.0916H84.9103L84.3209 93H81.6899L85.4365 82.7846H87.7518L91.5264 93H88.8814L88.285 91.0916ZM85.4996 89.1903H87.6957L86.5941 85.6471L85.4996 89.1903ZM97.5462 90.2848C97.5462 89.9246 97.4176 89.644 97.1603 89.4428C96.9078 89.2417 96.4611 89.0336 95.8203 88.8184C95.1795 88.6033 94.6556 88.3951 94.2487 88.194C92.925 87.5438 92.2631 86.6504 92.2631 85.5138C92.2631 84.9479 92.4268 84.4497 92.7542 84.0194C93.0863 83.5844 93.5541 83.2476 94.1575 83.0091C94.7608 82.7659 95.4391 82.6443 96.1921 82.6443C96.9265 82.6443 97.5837 82.7752 98.1636 83.0372C98.7483 83.2991 99.202 83.6733 99.5248 84.1597C99.8475 84.6415 100.009 85.1934 100.009 85.8155H97.5532C97.5532 85.3992 97.4246 85.0765 97.1674 84.8473C96.9148 84.6181 96.571 84.5035 96.136 84.5035C95.6963 84.5035 95.3479 84.6018 95.0906 84.7982C94.838 84.99 94.7117 85.2355 94.7117 85.5349C94.7117 85.7968 94.8521 86.0354 95.1327 86.2505C95.4133 86.461 95.9068 86.6809 96.6131 86.91C97.3194 87.1346 97.8994 87.3778 98.3531 87.6397C99.4569 88.2758 100.009 89.1528 100.009 90.2707C100.009 91.1641 99.6721 91.8657 98.9986 92.3756C98.325 92.8854 97.4012 93.1403 96.2272 93.1403C95.3993 93.1403 94.6486 92.993 93.975 92.6983C93.3062 92.399 92.801 91.992 92.4596 91.4775C92.1228 90.9583 91.9544 90.362 91.9544 89.6884H94.4241C94.4241 90.2357 94.5644 90.6403 94.845 90.9022C95.1304 91.1594 95.5911 91.2881 96.2272 91.2881C96.6341 91.2881 96.9545 91.2015 97.1884 91.0285C97.427 90.8507 97.5462 90.6028 97.5462 90.2848Z" fill="#222222" fill-opacity="0.8"/>
<path d="M167.471 80.949H163.673V84.055H168.085V85H162.517V76.236H168.025V77.187H163.673V80.004H167.471V80.949ZM171.534 80.8648L172.979 78.4872H174.279L172.148 81.7075L174.345 85H173.057L171.552 82.5622L170.047 85H168.753L170.95 81.7075L168.819 78.4872H170.108L171.534 80.8648ZM177.957 84.2115C178.354 84.2115 178.701 84.0911 178.998 83.8503C179.295 83.6096 179.459 83.3086 179.492 82.9474H180.545C180.525 83.3206 180.396 83.6758 180.16 84.0128C179.923 84.3499 179.606 84.6188 179.209 84.8194C178.815 85.0201 178.398 85.1204 177.957 85.1204C177.07 85.1204 176.364 84.8254 175.838 84.2356C175.316 83.6417 175.055 82.8311 175.055 81.8038V81.6172C175.055 80.9832 175.172 80.4194 175.404 79.9258C175.637 79.4322 175.97 79.049 176.404 78.7761C176.841 78.5032 177.357 78.3668 177.951 78.3668C178.681 78.3668 179.287 78.5855 179.768 79.0229C180.254 79.4603 180.513 80.0281 180.545 80.7263H179.492C179.459 80.305 179.299 79.9599 179.01 79.691C178.725 79.4181 178.372 79.2817 177.951 79.2817C177.385 79.2817 176.945 79.4864 176.632 79.8957C176.323 80.301 176.169 80.8889 176.169 81.6593V81.87C176.169 82.6204 176.323 83.1982 176.632 83.6035C176.941 84.0088 177.383 84.2115 177.957 84.2115ZM183.007 85H181.893V75.7544H183.007V85ZM188.815 84.3559C188.382 84.8656 187.746 85.1204 186.907 85.1204C186.213 85.1204 185.683 84.9197 185.318 84.5185C184.957 84.1132 184.774 83.5153 184.77 82.7247V78.4872H185.884V82.6946C185.884 83.6818 186.285 84.1754 187.088 84.1754C187.939 84.1754 188.504 83.8583 188.785 83.2243V78.4872H189.899V85H188.839L188.815 84.3559ZM195.388 83.2725C195.388 82.9715 195.274 82.7388 195.045 82.5742C194.821 82.4057 194.425 82.2612 193.859 82.1409C193.298 82.0205 192.85 81.876 192.517 81.7075C192.188 81.5389 191.943 81.3383 191.783 81.1055C191.626 80.8728 191.548 80.5959 191.548 80.2749C191.548 79.7412 191.773 79.2897 192.222 78.9206C192.676 78.5514 193.254 78.3668 193.956 78.3668C194.694 78.3668 195.292 78.5574 195.75 78.9386C196.211 79.3198 196.442 79.8074 196.442 80.4013H195.322C195.322 80.0963 195.192 79.8335 194.931 79.6128C194.674 79.3921 194.349 79.2817 193.956 79.2817C193.55 79.2817 193.233 79.37 193.005 79.5466C192.776 79.7231 192.662 79.9539 192.662 80.2388C192.662 80.5076 192.768 80.7103 192.981 80.8467C193.193 80.9832 193.577 81.1136 194.13 81.238C194.688 81.3624 195.14 81.5108 195.485 81.6834C195.83 81.8559 196.085 82.0646 196.249 82.3094C196.418 82.5502 196.502 82.8451 196.502 83.1942C196.502 83.7761 196.269 84.2436 195.804 84.5967C195.338 84.9458 194.734 85.1204 193.992 85.1204C193.47 85.1204 193.009 85.0281 192.607 84.8435C192.206 84.6589 191.891 84.4021 191.662 84.073C191.438 83.74 191.325 83.3808 191.325 82.9956H192.439C192.459 83.3688 192.607 83.6657 192.884 83.8864C193.165 84.1031 193.534 84.2115 193.992 84.2115C194.413 84.2115 194.75 84.1272 195.003 83.9587C195.26 83.7861 195.388 83.5574 195.388 83.2725ZM199.162 85H198.049V78.4872H199.162V85ZM197.959 76.7596C197.959 76.5791 198.013 76.4266 198.121 76.3022C198.233 76.1778 198.398 76.1156 198.615 76.1156C198.831 76.1156 198.996 76.1778 199.108 76.3022C199.221 76.4266 199.277 76.5791 199.277 76.7596C199.277 76.9402 199.221 77.0907 199.108 77.2111C198.996 77.3315 198.831 77.3917 198.615 77.3917C198.398 77.3917 198.233 77.3315 198.121 77.2111C198.013 77.0907 197.959 76.9402 197.959 76.7596ZM203.099 83.4892L204.712 78.4872H205.85L203.514 85H202.666L200.306 78.4872H201.444L203.099 83.4892ZM206.53 81.6834C206.53 81.0454 206.654 80.4715 206.903 79.9619C207.156 79.4523 207.505 79.059 207.951 78.7821C208.4 78.5052 208.912 78.3668 209.485 78.3668C210.372 78.3668 211.089 78.6738 211.634 79.2877C212.184 79.9017 212.459 80.7183 212.459 81.7376V81.8158C212.459 82.4498 212.337 83.0197 212.092 83.5253C211.851 84.0269 211.504 84.4181 211.05 84.699C210.601 84.9799 210.083 85.1204 209.497 85.1204C208.615 85.1204 207.898 84.8134 207.349 84.1994C206.803 83.5855 206.53 82.7729 206.53 81.7616V81.6834ZM207.65 81.8158C207.65 82.5381 207.816 83.118 208.149 83.5554C208.486 83.9928 208.936 84.2115 209.497 84.2115C210.063 84.2115 210.513 83.9908 210.846 83.5494C211.179 83.1039 211.345 82.4819 211.345 81.6834C211.345 80.9691 211.175 80.3913 210.834 79.9499C210.497 79.5044 210.047 79.2817 209.485 79.2817C208.936 79.2817 208.492 79.5004 208.155 79.9378C207.818 80.3752 207.65 81.0012 207.65 81.8158Z" fill="#222222" fill-opacity="0.8"/>
<path d="M168.031 95.8038C168.031 96.807 167.802 97.6116 167.345 98.2175C166.891 98.8194 166.277 99.1204 165.503 99.1204C164.845 99.1204 164.313 98.8917 163.908 98.4342V101.504H162.168V92.4872H163.781L163.841 93.1252C164.263 92.6196 164.813 92.3668 165.491 92.3668C166.293 92.3668 166.917 92.6637 167.363 93.2576C167.808 93.8515 168.031 94.6702 168.031 95.7135V95.8038ZM166.291 95.6774C166.291 95.0714 166.183 94.6039 165.966 94.2749C165.754 93.9458 165.443 93.7813 165.033 93.7813C164.488 93.7813 164.112 93.99 163.908 94.4073V97.0738C164.12 97.5032 164.5 97.7179 165.045 97.7179C165.876 97.7179 166.291 97.0377 166.291 95.6774ZM172.888 99C172.808 98.8435 172.75 98.6489 172.714 98.4161C172.293 98.8856 171.745 99.1204 171.071 99.1204C170.433 99.1204 169.903 98.9358 169.482 98.5666C169.064 98.1974 168.856 97.7319 168.856 97.1701C168.856 96.4799 169.11 95.9502 169.62 95.5811C170.134 95.2119 170.874 95.0253 171.841 95.0213H172.642V94.6481C172.642 94.3471 172.563 94.1064 172.407 93.9258C172.254 93.7452 172.012 93.6549 171.679 93.6549C171.386 93.6549 171.155 93.7251 170.986 93.8656C170.822 94.006 170.74 94.1986 170.74 94.4434H169C169 94.0662 169.116 93.7171 169.349 93.3961C169.582 93.0751 169.911 92.8243 170.336 92.6437C170.762 92.4591 171.239 92.3668 171.769 92.3668C172.571 92.3668 173.207 92.5694 173.677 92.9747C174.15 93.376 174.387 93.9418 174.387 94.6722V97.4952C174.391 98.1132 174.478 98.5807 174.646 98.8977V99H172.888ZM171.45 97.7901C171.707 97.7901 171.943 97.734 172.16 97.6216C172.377 97.5052 172.537 97.3507 172.642 97.1581V96.0385H171.992C171.121 96.0385 170.657 96.3395 170.601 96.9414L170.595 97.0437C170.595 97.2604 170.671 97.439 170.824 97.5795C170.976 97.7199 171.185 97.7901 171.45 97.7901ZM179.383 94.1184C179.146 94.0863 178.938 94.0702 178.757 94.0702C178.099 94.0702 177.668 94.2929 177.463 94.7384V99H175.723V92.4872H177.367L177.415 93.2637C177.764 92.6657 178.248 92.3668 178.866 92.3668C179.058 92.3668 179.239 92.3929 179.407 92.445L179.383 94.1184ZM183.819 99C183.739 98.8435 183.681 98.6489 183.645 98.4161C183.223 98.8856 182.676 99.1204 182.002 99.1204C181.364 99.1204 180.834 98.9358 180.412 98.5666C179.995 98.1974 179.786 97.7319 179.786 97.1701C179.786 96.4799 180.041 95.9502 180.551 95.5811C181.065 95.2119 181.805 95.0253 182.772 95.0213H183.573V94.6481C183.573 94.3471 183.494 94.1064 183.338 93.9258C183.185 93.7452 182.943 93.6549 182.61 93.6549C182.317 93.6549 182.086 93.7251 181.917 93.8656C181.753 94.006 181.671 94.1986 181.671 94.4434H179.931C179.931 94.0662 180.047 93.7171 180.28 93.3961C180.513 93.0751 180.842 92.8243 181.267 92.6437C181.693 92.4591 182.17 92.3668 182.7 92.3668C183.502 92.3668 184.138 92.5694 184.608 92.9747C185.081 93.376 185.318 93.9418 185.318 94.6722V97.4952C185.322 98.1132 185.408 98.5807 185.577 98.8977V99H183.819ZM182.381 97.7901C182.638 97.7901 182.874 97.734 183.091 97.6216C183.308 97.5052 183.468 97.3507 183.573 97.1581V96.0385H182.923C182.052 96.0385 181.588 96.3395 181.532 96.9414L181.526 97.0437C181.526 97.2604 181.602 97.439 181.755 97.5795C181.907 97.7199 182.116 97.7901 182.381 97.7901ZM193.384 94.1184C193.147 94.0863 192.939 94.0702 192.758 94.0702C192.1 94.0702 191.668 94.2929 191.464 94.7384V99H189.724V92.4872H191.368L191.416 93.2637C191.765 92.6657 192.248 92.3668 192.866 92.3668C193.059 92.3668 193.239 92.3929 193.408 92.445L193.384 94.1184ZM197.104 99.1204C196.149 99.1204 195.37 98.8274 194.768 98.2416C194.17 97.6557 193.872 96.8752 193.872 95.9001V95.7315C193.872 95.0775 193.998 94.4936 194.251 93.9799C194.504 93.4623 194.861 93.065 195.322 92.7881C195.788 92.5072 196.317 92.3668 196.911 92.3668C197.802 92.3668 198.502 92.6477 199.012 93.2095C199.526 93.7713 199.782 94.5678 199.782 95.5991V96.3094H195.635C195.691 96.7348 195.86 97.0758 196.141 97.3327C196.426 97.5895 196.785 97.7179 197.218 97.7179C197.888 97.7179 198.412 97.4751 198.789 96.9896L199.644 97.9466C199.383 98.3158 199.03 98.6047 198.585 98.8134C198.139 99.0181 197.646 99.1204 197.104 99.1204ZM196.905 93.7753C196.56 93.7753 196.279 93.8917 196.063 94.1244C195.85 94.3572 195.713 94.6902 195.653 95.1236H198.073V94.9852C198.065 94.5999 197.961 94.303 197.76 94.0943C197.559 93.8816 197.274 93.7753 196.905 93.7753ZM200.505 95.6954C200.505 94.6802 200.731 93.8716 201.185 93.2697C201.642 92.6677 202.266 92.3668 203.057 92.3668C203.691 92.3668 204.215 92.6035 204.628 93.0771V89.7544H206.374V99H204.802L204.718 98.3078C204.285 98.8495 203.727 99.1204 203.045 99.1204C202.278 99.1204 201.662 98.8194 201.197 98.2175C200.735 97.6116 200.505 96.7709 200.505 95.6954ZM202.244 95.8218C202.244 96.4318 202.351 96.8993 202.563 97.2243C202.776 97.5494 203.085 97.7119 203.49 97.7119C204.028 97.7119 204.407 97.4852 204.628 97.0317V94.4615C204.411 94.008 204.036 93.7813 203.502 93.7813C202.664 93.7813 202.244 94.4615 202.244 95.8218ZM210.719 99.1204C209.764 99.1204 208.986 98.8274 208.384 98.2416C207.786 97.6557 207.487 96.8752 207.487 95.9001V95.7315C207.487 95.0775 207.613 94.4936 207.866 93.9799C208.119 93.4623 208.476 93.065 208.938 92.7881C209.403 92.5072 209.933 92.3668 210.527 92.3668C211.418 92.3668 212.118 92.6477 212.628 93.2095C213.141 93.7713 213.398 94.5678 213.398 95.5991V96.3094H209.251C209.307 96.7348 209.475 97.0758 209.756 97.3327C210.041 97.5895 210.4 97.7179 210.834 97.7179C211.504 97.7179 212.028 97.4751 212.405 96.9896L213.26 97.9466C212.999 98.3158 212.646 98.6047 212.2 98.8134C211.755 99.0181 211.261 99.1204 210.719 99.1204ZM210.521 93.7753C210.176 93.7753 209.895 93.8917 209.678 94.1244C209.465 94.3572 209.329 94.6902 209.269 95.1236H211.688V94.9852C211.68 94.5999 211.576 94.303 211.375 94.0943C211.175 93.8816 210.89 93.7753 210.521 93.7753ZM217.918 97.2002C217.918 96.9876 217.812 96.821 217.599 96.7006C217.391 96.5762 217.054 96.4659 216.588 96.3696C215.039 96.0445 214.265 95.3864 214.265 94.3953C214.265 93.8174 214.504 93.3359 214.981 92.9507C215.463 92.5614 216.091 92.3668 216.865 92.3668C217.692 92.3668 218.352 92.5614 218.845 92.9507C219.343 93.3399 219.592 93.8455 219.592 94.4675H217.852C217.852 94.2187 217.772 94.0141 217.611 93.8535C217.451 93.689 217.2 93.6068 216.859 93.6068C216.566 93.6068 216.339 93.673 216.179 93.8054C216.018 93.9378 215.938 94.1064 215.938 94.311C215.938 94.5036 216.028 94.6601 216.209 94.7805C216.394 94.8969 216.703 94.9992 217.136 95.0875C217.569 95.1718 217.934 95.2681 218.231 95.3764C219.15 95.7135 219.61 96.2974 219.61 97.128C219.61 97.7219 219.355 98.2035 218.845 98.5726C218.336 98.9378 217.678 99.1204 216.871 99.1204C216.325 99.1204 215.84 99.0241 215.414 98.8315C214.993 98.6348 214.662 98.368 214.421 98.0309C214.18 97.6898 214.06 97.3226 214.06 96.9294H215.709C215.725 97.2384 215.84 97.4751 216.052 97.6396C216.265 97.8042 216.55 97.8864 216.907 97.8864C217.24 97.8864 217.491 97.8242 217.66 97.6998C217.832 97.5714 217.918 97.4049 217.918 97.2002Z" fill="#EE392A"/>
<rect x="0.5" y="0.5" width="275" height="112" rx="9.5" stroke="#EF3829"/>
<path d="M0 10C0 4.47715 4.47715 0 10 0H266C271.523 0 276 4.47715 276 10V27H0V10Z" fill="#EF3829"/>
<path d="M118.657 17H116.935V7.04688H118.657V17ZM122.164 9.60352L122.212 10.458C122.759 9.7972 123.477 9.4668 124.365 9.4668C125.906 9.4668 126.689 10.3486 126.717 12.1123V17H125.056V12.208C125.056 11.7386 124.953 11.3923 124.748 11.1689C124.548 10.9411 124.217 10.8271 123.757 10.8271C123.087 10.8271 122.588 11.1302 122.26 11.7363V17H120.599V9.60352H122.164ZM131.454 15.8105C131.869 15.8105 132.213 15.6898 132.486 15.4482C132.76 15.2067 132.906 14.9082 132.924 14.5527H134.489C134.471 15.013 134.327 15.4437 134.059 15.8447C133.79 16.2412 133.425 16.5557 132.965 16.7881C132.505 17.0205 132.008 17.1367 131.475 17.1367C130.44 17.1367 129.62 16.8018 129.014 16.1318C128.408 15.4619 128.104 14.5368 128.104 13.3564V13.1855C128.104 12.0599 128.405 11.1598 129.007 10.4854C129.608 9.80632 130.429 9.4668 131.468 9.4668C132.347 9.4668 133.063 9.72428 133.614 10.2393C134.17 10.7497 134.462 11.4219 134.489 12.2559H132.924C132.906 11.832 132.76 11.4834 132.486 11.21C132.217 10.9365 131.873 10.7998 131.454 10.7998C130.916 10.7998 130.502 10.9958 130.21 11.3877C129.918 11.7751 129.77 12.3652 129.766 13.1582V13.4248C129.766 14.2269 129.909 14.8262 130.196 15.2227C130.488 15.6146 130.907 15.8105 131.454 15.8105ZM137.511 17H135.85V6.5H137.511V17ZM143.807 16.2754C143.319 16.8496 142.626 17.1367 141.729 17.1367C140.926 17.1367 140.318 16.902 139.903 16.4326C139.493 15.9632 139.288 15.2842 139.288 14.3955V9.60352H140.949V14.375C140.949 15.3138 141.339 15.7832 142.118 15.7832C142.925 15.7832 143.469 15.4938 143.752 14.915V9.60352H145.413V17H143.848L143.807 16.2754ZM149.692 14.6211L151.196 9.60352H152.967L150.027 18.1211C149.576 19.3652 148.811 19.9873 147.73 19.9873C147.489 19.9873 147.222 19.9463 146.931 19.8643V18.5791L147.245 18.5996C147.664 18.5996 147.979 18.5221 148.188 18.3672C148.403 18.2168 148.571 17.9616 148.694 17.6016L148.934 16.9658L146.336 9.60352H148.127L149.692 14.6211ZM157.089 17.1367C156.036 17.1367 155.182 16.8063 154.525 16.1455C153.874 15.4801 153.548 14.596 153.548 13.4932V13.2881C153.548 12.5498 153.689 11.8913 153.972 11.3125C154.259 10.7292 154.66 10.2757 155.175 9.95215C155.69 9.62858 156.264 9.4668 156.897 9.4668C157.905 9.4668 158.682 9.78809 159.229 10.4307C159.78 11.0732 160.056 11.9824 160.056 13.1582V13.8281H155.223C155.273 14.4388 155.476 14.9219 155.831 15.2773C156.191 15.6328 156.642 15.8105 157.185 15.8105C157.946 15.8105 158.565 15.5029 159.044 14.8877L159.939 15.7422C159.643 16.1842 159.247 16.5283 158.75 16.7744C158.258 17.016 157.704 17.1367 157.089 17.1367ZM156.891 10.7998C156.435 10.7998 156.066 10.9593 155.783 11.2783C155.505 11.5973 155.327 12.0417 155.25 12.6113H158.415V12.4883C158.379 11.9323 158.23 11.513 157.971 11.2305C157.711 10.9434 157.351 10.7998 156.891 10.7998Z" fill="white"/>
</svg>
