<svg width="276" height="113" viewBox="0 0 276 113" fill="none" xmlns="http://www.w3.org/2000/svg">
<rect x="0.5" y="0.5" width="275" height="112" rx="9.5" fill="white"/>
<rect width="206" height="60" transform="translate(31 6)" fill="white"/>
<path d="M36.9312 57H34.5598V49.4507L32.2304 50.1313V48.3351L36.7137 46.7846H36.9312V57ZM42.1722 50.903H43.2878C44.1718 50.903 44.6138 50.4704 44.6138 49.6051C44.6138 49.2683 44.5086 48.9947 44.2981 48.7842C44.0876 48.569 43.7906 48.4614 43.407 48.4614C43.0937 48.4614 42.82 48.5526 42.5862 48.7351C42.357 48.9175 42.2424 49.1443 42.2424 49.4156H39.878C39.878 48.8777 40.0276 48.3983 40.327 47.9773C40.6263 47.5564 41.0403 47.2289 41.5688 46.9951C42.1021 46.7565 42.6867 46.6372 43.3229 46.6372C44.4595 46.6372 45.3528 46.8968 46.003 47.416C46.6532 47.9352 46.9782 48.6485 46.9782 49.5559C46.9782 49.9956 46.8426 50.4119 46.5713 50.8048C46.3047 51.193 45.9141 51.5087 45.3996 51.752C45.9422 51.9484 46.3678 52.2478 46.6765 52.65C46.9852 53.0476 47.1396 53.5411 47.1396 54.1304C47.1396 55.0425 46.7888 55.7722 46.0872 56.3194C45.3856 56.8667 44.4641 57.1403 43.3229 57.1403C42.654 57.1403 42.0319 57.014 41.4566 56.7615C40.8859 56.5042 40.4533 56.1511 40.1586 55.702C39.8639 55.2483 39.7166 54.7338 39.7166 54.1585H42.095C42.095 54.4719 42.2213 54.7432 42.4739 54.9724C42.7265 55.2015 43.0375 55.3161 43.407 55.3161C43.8233 55.3161 44.1554 55.2015 44.4033 54.9724C44.6512 54.7385 44.7752 54.4415 44.7752 54.0813C44.7752 53.5668 44.6466 53.202 44.3893 52.9868C44.132 52.7716 43.7766 52.6641 43.3229 52.6641H42.1722V50.903ZM60.421 55.7371C60.0422 56.1581 59.4879 56.4972 58.7582 56.7544C58.0286 57.0117 57.2287 57.1403 56.3587 57.1403C55.021 57.1403 53.9522 56.7311 53.1524 55.9125C52.3525 55.094 51.9246 53.955 51.8684 52.4957L51.8614 51.6117C51.8614 50.606 52.0392 49.729 52.3946 48.9806C52.7501 48.2276 53.2576 47.6499 53.9171 47.2476C54.5813 46.8407 55.3484 46.6372 56.2184 46.6372C57.4907 46.6372 58.4776 46.9296 59.1792 47.5143C59.8855 48.0943 60.2971 48.9619 60.414 50.1172H58.0426C57.9584 49.5466 57.776 49.1397 57.4953 48.8964C57.2147 48.6532 56.8171 48.5316 56.3026 48.5316C55.6852 48.5316 55.2081 48.7935 54.8713 49.3174C54.5345 49.8413 54.3638 50.5896 54.3591 51.5625V52.18C54.3591 53.1996 54.5322 53.9667 54.8783 54.4812C55.2291 54.9911 55.7787 55.246 56.5271 55.246C57.1679 55.246 57.645 55.1033 57.9584 54.818V53.2324H56.2465V51.5415H60.421V55.7371ZM64.4763 57H62.0207V46.7846H64.4763V57ZM74.5514 55.7371C74.1726 56.1581 73.6183 56.4972 72.8886 56.7544C72.1589 57.0117 71.3591 57.1403 70.4891 57.1403C69.1514 57.1403 68.0826 56.7311 67.2828 55.9125C66.4829 55.094 66.055 53.955 65.9988 52.4957L65.9918 51.6117C65.9918 50.606 66.1695 49.729 66.525 48.9806C66.8805 48.2276 67.388 47.6499 68.0475 47.2476C68.7117 46.8407 69.4788 46.6372 70.3488 46.6372C71.621 46.6372 72.608 46.9296 73.3096 47.5143C74.0159 48.0943 74.4275 48.9619 74.5444 50.1172H72.173C72.0888 49.5466 71.9064 49.1397 71.6257 48.8964C71.3451 48.6532 70.9475 48.5316 70.433 48.5316C69.8156 48.5316 69.3385 48.7935 69.0017 49.3174C68.6649 49.8413 68.4942 50.5896 68.4895 51.5625V52.18C68.4895 53.1996 68.6626 53.9667 69.0087 54.4812C69.3595 54.9911 69.9091 55.246 70.6575 55.246C71.2983 55.246 71.7754 55.1033 72.0888 54.818V53.2324H70.3769V51.5415H74.5514V55.7371ZM81.785 55.0916H78.4103L77.8209 57H75.1899L78.9365 46.7846H81.2518L85.0264 57H82.3814L81.785 55.0916ZM78.9996 53.1903H81.1957L80.0941 49.6471L78.9996 53.1903ZM91.0462 54.2848C91.0462 53.9246 90.9176 53.644 90.6603 53.4428C90.4078 53.2417 89.9611 53.0336 89.3203 52.8184C88.6795 52.6033 88.1556 52.3951 87.7487 52.194C86.425 51.5438 85.7631 50.6504 85.7631 49.5138C85.7631 48.9479 85.9268 48.4497 86.2542 48.0194C86.5863 47.5844 87.0541 47.2476 87.6575 47.0091C88.2608 46.7659 88.9391 46.6443 89.6921 46.6443C90.4265 46.6443 91.0837 46.7752 91.6636 47.0372C92.2483 47.2991 92.702 47.6733 93.0248 48.1597C93.3475 48.6415 93.5089 49.1934 93.5089 49.8155H91.0532C91.0532 49.3992 90.9246 49.0765 90.6674 48.8473C90.4148 48.6181 90.071 48.5035 89.636 48.5035C89.1963 48.5035 88.8479 48.6018 88.5906 48.7982C88.338 48.99 88.2117 49.2355 88.2117 49.5349C88.2117 49.7968 88.3521 50.0354 88.6327 50.2505C88.9133 50.461 89.4068 50.6809 90.1131 50.91C90.8194 51.1346 91.3994 51.3778 91.8531 51.6397C92.9569 52.2758 93.5089 53.1528 93.5089 54.2707C93.5089 55.1641 93.1721 55.8657 92.4986 56.3756C91.825 56.8854 90.9012 57.1403 89.7272 57.1403C88.8993 57.1403 88.1486 56.993 87.475 56.6983C86.8062 56.399 86.301 55.992 85.9596 55.4775C85.6228 54.9583 85.4544 54.362 85.4544 53.6884H87.9241C87.9241 54.2357 88.0644 54.6403 88.345 54.9022C88.6304 55.1594 89.0911 55.2881 89.7272 55.2881C90.1341 55.2881 90.4545 55.2015 90.6884 55.0285C90.927 54.8507 91.0462 54.6028 91.0462 54.2848Z" fill="#222222" fill-opacity="0.8"/>
<path d="M167.173 45.569V49H166.017V40.236H169.25C170.209 40.236 170.959 40.4808 171.501 40.9703C172.047 41.4599 172.319 42.108 172.319 42.9145C172.319 43.7653 172.053 44.4214 171.519 44.8828C170.989 45.3403 170.229 45.569 169.238 45.569H167.173ZM167.173 44.624H169.25C169.868 44.624 170.341 44.4795 170.67 44.1906C170.999 43.8977 171.164 43.4763 171.164 42.9266C171.164 42.4049 170.999 41.9876 170.67 41.6746C170.341 41.3616 169.89 41.1991 169.316 41.187H167.173V44.624ZM177.568 49C177.504 48.8716 177.452 48.6429 177.412 48.3138C176.894 48.8515 176.276 49.1204 175.558 49.1204C174.916 49.1204 174.388 48.9398 173.975 48.5787C173.565 48.2135 173.361 47.752 173.361 47.1942C173.361 46.5161 173.618 45.9904 174.131 45.6172C174.649 45.24 175.375 45.0514 176.31 45.0514H177.394V44.5397C177.394 44.1505 177.277 43.8415 177.045 43.6128C176.812 43.38 176.469 43.2637 176.015 43.2637C175.618 43.2637 175.285 43.364 175.016 43.5646C174.747 43.7653 174.613 44.008 174.613 44.2929H173.493C173.493 43.9679 173.608 43.6549 173.836 43.3539C174.069 43.049 174.382 42.8082 174.775 42.6316C175.173 42.4551 175.608 42.3668 176.081 42.3668C176.832 42.3668 177.42 42.5554 177.845 42.9326C178.27 43.3058 178.491 43.8214 178.507 44.4795V47.4771C178.507 48.075 178.583 48.5506 178.736 48.9037V49H177.568ZM175.72 48.1513C176.069 48.1513 176.4 48.061 176.713 47.8804C177.026 47.6998 177.253 47.4651 177.394 47.1762V45.8399H176.521C175.156 45.8399 174.474 46.2392 174.474 47.0377C174.474 47.3868 174.591 47.6597 174.823 47.8563C175.056 48.053 175.355 48.1513 175.72 48.1513ZM183.401 43.4864C183.232 43.4583 183.05 43.4442 182.853 43.4442C182.123 43.4442 181.627 43.7552 181.366 44.3772V49H180.253V42.4872H181.336L181.354 43.2396C181.719 42.6577 182.237 42.3668 182.907 42.3668C183.124 42.3668 183.288 42.3949 183.401 42.4511V43.4864ZM188.21 49C188.146 48.8716 188.094 48.6429 188.054 48.3138C187.536 48.8515 186.918 49.1204 186.2 49.1204C185.558 49.1204 185.03 48.9398 184.617 48.5787C184.207 48.2135 184.003 47.752 184.003 47.1942C184.003 46.5161 184.26 45.9904 184.773 45.6172C185.291 45.24 186.017 45.0514 186.952 45.0514H188.036V44.5397C188.036 44.1505 187.919 43.8415 187.687 43.6128C187.454 43.38 187.111 43.2637 186.657 43.2637C186.26 43.2637 185.927 43.364 185.658 43.5646C185.389 43.7653 185.255 44.008 185.255 44.2929H184.135C184.135 43.9679 184.25 43.6549 184.478 43.3539C184.711 43.049 185.024 42.8082 185.417 42.6316C185.815 42.4551 186.25 42.3668 186.723 42.3668C187.474 42.3668 188.062 42.5554 188.487 42.9326C188.912 43.3058 189.133 43.8214 189.149 44.4795V47.4771C189.149 48.075 189.225 48.5506 189.378 48.9037V49H188.21ZM186.362 48.1513C186.711 48.1513 187.042 48.061 187.355 47.8804C187.668 47.6998 187.895 47.4651 188.036 47.1762V45.8399H187.163C185.799 45.8399 185.116 46.2392 185.116 47.0377C185.116 47.3868 185.233 47.6597 185.465 47.8563C185.698 48.053 185.997 48.1513 186.362 48.1513Z" fill="#222222" fill-opacity="0.8"/>
<path d="M167.269 56.4872L167.323 57.2396C167.789 56.6577 168.413 56.3668 169.195 56.3668C169.886 56.3668 170.399 56.5694 170.736 56.9747C171.073 57.38 171.246 57.986 171.254 58.7925V63H169.514V58.8347C169.514 58.4655 169.434 58.1986 169.274 58.0341C169.113 57.8656 168.846 57.7813 168.473 57.7813C167.984 57.7813 167.616 57.99 167.372 58.4073V63H165.632V56.4872H167.269ZM176.352 63C176.272 62.8435 176.214 62.6489 176.178 62.4161C175.756 62.8856 175.209 63.1204 174.534 63.1204C173.896 63.1204 173.367 62.9358 172.945 62.5666C172.528 62.1974 172.319 61.7319 172.319 61.1701C172.319 60.4799 172.574 59.9502 173.084 59.5811C173.597 59.2119 174.338 59.0253 175.305 59.0213H176.106V58.6481C176.106 58.3471 176.027 58.1064 175.871 57.9258C175.718 57.7452 175.475 57.6549 175.142 57.6549C174.849 57.6549 174.619 57.7251 174.45 57.8656C174.286 58.006 174.203 58.1986 174.203 58.4434H172.464C172.464 58.0662 172.58 57.7171 172.813 57.3961C173.046 57.0751 173.375 56.8243 173.8 56.6437C174.226 56.4591 174.703 56.3668 175.233 56.3668C176.035 56.3668 176.671 56.5694 177.141 56.9747C177.614 57.376 177.851 57.9418 177.851 58.6722V61.4952C177.855 62.1132 177.941 62.5807 178.11 62.8977V63H176.352ZM174.914 61.7901C175.171 61.7901 175.407 61.734 175.624 61.6216C175.841 61.5052 176.001 61.3507 176.106 61.1581V60.0385H175.455C174.585 60.0385 174.121 60.3395 174.065 60.9414L174.059 61.0437C174.059 61.2604 174.135 61.439 174.288 61.5795C174.44 61.7199 174.649 61.7901 174.914 61.7901ZM181.529 60.8752L182.739 56.4872H184.557L182.36 63H180.698L178.501 56.4872H180.319L181.529 60.8752ZM188.24 63.1204C187.285 63.1204 186.507 62.8274 185.905 62.2416C185.307 61.6557 185.008 60.8752 185.008 59.9001V59.7315C185.008 59.0775 185.134 58.4936 185.387 57.9799C185.64 57.4623 185.997 57.065 186.459 56.7881C186.924 56.5072 187.454 56.3668 188.048 56.3668C188.939 56.3668 189.639 56.6477 190.148 57.2095C190.662 57.7713 190.919 58.5678 190.919 59.5991V60.3094H186.772C186.828 60.7348 186.996 61.0758 187.277 61.3327C187.562 61.5895 187.921 61.7179 188.355 61.7179C189.025 61.7179 189.549 61.4751 189.926 60.9896L190.78 61.9466C190.52 62.3158 190.166 62.6047 189.721 62.8134C189.276 63.0181 188.782 63.1204 188.24 63.1204ZM188.042 57.7753C187.697 57.7753 187.416 57.8917 187.199 58.1244C186.986 58.3572 186.85 58.6902 186.79 59.1236H189.209V58.9852C189.201 58.5999 189.097 58.303 188.896 58.0943C188.696 57.8816 188.411 57.7753 188.042 57.7753ZM191.659 59.6954C191.659 58.6962 191.896 57.8917 192.37 57.2817C192.847 56.6718 193.489 56.3668 194.296 56.3668C195.01 56.3668 195.566 56.6116 195.963 57.1011L196.035 56.4872H197.612V62.7833C197.612 63.3531 197.482 63.8487 197.221 64.2701C196.964 64.6914 196.601 65.0124 196.132 65.2331C195.662 65.4538 195.112 65.5642 194.482 65.5642C194.005 65.5642 193.539 65.4679 193.086 65.2753C192.632 65.0867 192.289 64.8419 192.057 64.5409L192.827 63.4815C193.26 63.9671 193.786 64.2099 194.404 64.2099C194.866 64.2099 195.225 64.0855 195.481 63.8367C195.738 63.5919 195.867 63.2428 195.867 62.7893V62.4402C195.465 62.8937 194.938 63.1204 194.284 63.1204C193.501 63.1204 192.867 62.8154 192.382 62.2055C191.9 61.5915 191.659 60.7789 191.659 59.7677V59.6954ZM193.399 59.8218C193.399 60.4117 193.517 60.8752 193.754 61.2123C193.991 61.5453 194.316 61.7119 194.729 61.7119C195.259 61.7119 195.638 61.5132 195.867 61.116V58.3772C195.634 57.9799 195.259 57.7813 194.741 57.7813C194.324 57.7813 193.995 57.9519 193.754 58.2929C193.517 58.634 193.399 59.1437 193.399 59.8218ZM202.729 63C202.648 62.8435 202.59 62.6489 202.554 62.4161C202.133 62.8856 201.585 63.1204 200.911 63.1204C200.273 63.1204 199.743 62.9358 199.322 62.5666C198.904 62.1974 198.696 61.7319 198.696 61.1701C198.696 60.4799 198.951 59.9502 199.46 59.5811C199.974 59.2119 200.714 59.0253 201.681 59.0213H202.482V58.6481C202.482 58.3471 202.404 58.1064 202.247 57.9258C202.095 57.7452 201.852 57.6549 201.519 57.6549C201.226 57.6549 200.995 57.7251 200.827 57.8656C200.662 58.006 200.58 58.1986 200.58 58.4434H198.84C198.84 58.0662 198.957 57.7171 199.189 57.3961C199.422 57.0751 199.751 56.8243 200.176 56.6437C200.602 56.4591 201.079 56.3668 201.609 56.3668C202.412 56.3668 203.048 56.5694 203.517 56.9747C203.991 57.376 204.227 57.9418 204.227 58.6722V61.4952C204.231 62.1132 204.318 62.5807 204.486 62.8977V63H202.729ZM201.29 61.7901C201.547 61.7901 201.784 61.734 202 61.6216C202.217 61.5052 202.378 61.3507 202.482 61.1581V60.0385H201.832C200.961 60.0385 200.498 60.3395 200.441 60.9414L200.435 61.0437C200.435 61.2604 200.512 61.439 200.664 61.5795C200.817 61.7199 201.025 61.7901 201.29 61.7901ZM209.223 58.1184C208.987 58.0863 208.778 58.0702 208.597 58.0702C207.939 58.0702 207.508 58.2929 207.303 58.7384V63H205.564V56.4872H207.207L207.255 57.2637C207.604 56.6657 208.088 56.3668 208.706 56.3668C208.898 56.3668 209.079 56.3929 209.248 56.445L209.223 58.1184Z" fill="#EE3A2B"/>
<rect width="208" height="33" transform="translate(30 74)" fill="white"/>
<path d="M35.0583 87.2047H37.4508V89.2324H35.0583V91.9757H32.8483V89.2324H30.4488V87.2047H32.8483V84.5386H35.0583V87.2047ZM49.1115 84.0475L45.2948 93H42.7971L46.6208 84.6088H41.7517V82.7846H49.1115V84.0475ZM62.421 91.7371C62.0422 92.1581 61.4879 92.4972 60.7582 92.7544C60.0286 93.0117 59.2287 93.1403 58.3587 93.1403C57.021 93.1403 55.9522 92.7311 55.1524 91.9125C54.3526 91.094 53.9246 89.955 53.8684 88.4957L53.8614 87.6117C53.8614 86.606 54.0392 85.729 54.3946 84.9806C54.7501 84.2276 55.2576 83.6499 55.9171 83.2476C56.5813 82.8407 57.3484 82.6372 58.2184 82.6372C59.4907 82.6372 60.4776 82.9296 61.1792 83.5143C61.8855 84.0943 62.2971 84.9619 62.414 86.1172H60.0426C59.9584 85.5466 59.776 85.1397 59.4953 84.8964C59.2147 84.6532 58.8171 84.5316 58.3026 84.5316C57.6852 84.5316 57.2081 84.7935 56.8713 85.3174C56.5346 85.8413 56.3638 86.5896 56.3591 87.5625V88.18C56.3591 89.1996 56.5322 89.9667 56.8783 90.4812C57.2291 90.9911 57.7787 91.246 58.5271 91.246C59.1679 91.246 59.645 91.1033 59.9584 90.818V89.2324H58.2465V87.5415H62.421V91.7371ZM66.4763 93H64.0207V82.7846H66.4763V93ZM76.5514 91.7371C76.1726 92.1581 75.6183 92.4972 74.8886 92.7544C74.1589 93.0117 73.3591 93.1403 72.4891 93.1403C71.1514 93.1403 70.0826 92.7311 69.2828 91.9125C68.4829 91.094 68.055 89.955 67.9988 88.4957L67.9918 87.6117C67.9918 86.606 68.1695 85.729 68.525 84.9806C68.8805 84.2276 69.388 83.6499 70.0475 83.2476C70.7117 82.8407 71.4788 82.6372 72.3488 82.6372C73.621 82.6372 74.608 82.9296 75.3096 83.5143C76.0159 84.0943 76.4275 84.9619 76.5444 86.1172H74.173C74.0888 85.5466 73.9064 85.1397 73.6257 84.8964C73.3451 84.6532 72.9475 84.5316 72.433 84.5316C71.8156 84.5316 71.3385 84.7935 71.0017 85.3174C70.6649 85.8413 70.4942 86.5896 70.4895 87.5625V88.18C70.4895 89.1996 70.6626 89.9667 71.0087 90.4812C71.3595 90.9911 71.9091 91.246 72.6575 91.246C73.2983 91.246 73.7754 91.1033 74.0888 90.818V89.2324H72.3769V87.5415H76.5514V91.7371ZM83.785 91.0916H80.4103L79.8209 93H77.1899L80.9365 82.7846H83.2518L87.0264 93H84.3814L83.785 91.0916ZM80.9996 89.1903H83.1957L82.0941 85.6471L80.9996 89.1903ZM93.0462 90.2848C93.0462 89.9246 92.9176 89.644 92.6603 89.4428C92.4078 89.2417 91.9611 89.0336 91.3203 88.8184C90.6795 88.6033 90.1556 88.3951 89.7487 88.194C88.425 87.5438 87.7631 86.6504 87.7631 85.5138C87.7631 84.9479 87.9268 84.4497 88.2542 84.0194C88.5863 83.5844 89.0541 83.2476 89.6575 83.0091C90.2608 82.7659 90.9391 82.6443 91.6921 82.6443C92.4265 82.6443 93.0837 82.7752 93.6636 83.0372C94.2483 83.2991 94.702 83.6733 95.0248 84.1597C95.3475 84.6415 95.5089 85.1934 95.5089 85.8155H93.0532C93.0532 85.3992 92.9246 85.0765 92.6674 84.8473C92.4148 84.6181 92.071 84.5035 91.636 84.5035C91.1963 84.5035 90.8479 84.6018 90.5906 84.7982C90.338 84.99 90.2117 85.2355 90.2117 85.5349C90.2117 85.7968 90.3521 86.0354 90.6327 86.2505C90.9133 86.461 91.4068 86.6809 92.1131 86.91C92.8194 87.1346 93.3994 87.3778 93.8531 87.6397C94.9569 88.2758 95.5089 89.1528 95.5089 90.2707C95.5089 91.1641 95.1721 91.8657 94.4986 92.3756C93.825 92.8854 92.9012 93.1403 91.7272 93.1403C90.8993 93.1403 90.1486 92.993 89.475 92.6983C88.8062 92.399 88.301 91.992 87.9596 91.4775C87.6228 90.9583 87.4544 90.362 87.4544 89.6884H89.9241C89.9241 90.2357 90.0644 90.6403 90.345 90.9022C90.6304 91.1594 91.0911 91.2881 91.7272 91.2881C92.1341 91.2881 92.4545 91.2015 92.6884 91.0285C92.927 90.8507 93.0462 90.6028 93.0462 90.2848Z" fill="#222222" fill-opacity="0.8"/>
<path d="M171.971 80.949H168.173V84.055H172.585V85H167.017V76.236H172.525V77.187H168.173V80.004H171.971V80.949ZM176.034 80.8648L177.479 78.4872H178.779L176.648 81.7075L178.845 85H177.557L176.052 82.5622L174.547 85H173.253L175.45 81.7075L173.319 78.4872H174.608L176.034 80.8648ZM182.457 84.2115C182.854 84.2115 183.201 84.0911 183.498 83.8503C183.795 83.6096 183.959 83.3086 183.992 82.9474H185.045C185.025 83.3206 184.896 83.6758 184.66 84.0128C184.423 84.3499 184.106 84.6188 183.709 84.8194C183.315 85.0201 182.898 85.1204 182.457 85.1204C181.57 85.1204 180.864 84.8254 180.338 84.2356C179.816 83.6417 179.555 82.8311 179.555 81.8038V81.6172C179.555 80.9832 179.672 80.4194 179.904 79.9258C180.137 79.4322 180.47 79.049 180.904 78.7761C181.341 78.5032 181.857 78.3668 182.451 78.3668C183.181 78.3668 183.787 78.5855 184.268 79.0229C184.754 79.4603 185.013 80.0281 185.045 80.7263H183.992C183.959 80.305 183.799 79.9599 183.51 79.691C183.225 79.4181 182.872 79.2817 182.451 79.2817C181.885 79.2817 181.445 79.4864 181.132 79.8957C180.823 80.301 180.669 80.8889 180.669 81.6593V81.87C180.669 82.6204 180.823 83.1982 181.132 83.6035C181.441 84.0088 181.883 84.2115 182.457 84.2115ZM187.507 85H186.393V75.7544H187.507V85ZM193.315 84.3559C192.882 84.8656 192.246 85.1204 191.407 85.1204C190.713 85.1204 190.183 84.9197 189.818 84.5185C189.457 84.1132 189.274 83.5153 189.27 82.7247V78.4872H190.384V82.6946C190.384 83.6818 190.785 84.1754 191.588 84.1754C192.439 84.1754 193.004 83.8583 193.285 83.2243V78.4872H194.399V85H193.339L193.315 84.3559ZM199.888 83.2725C199.888 82.9715 199.774 82.7388 199.545 82.5742C199.321 82.4057 198.925 82.2612 198.359 82.1409C197.798 82.0205 197.35 81.876 197.017 81.7075C196.688 81.5389 196.443 81.3383 196.283 81.1055C196.126 80.8728 196.048 80.5959 196.048 80.2749C196.048 79.7412 196.273 79.2897 196.722 78.9206C197.176 78.5514 197.754 78.3668 198.456 78.3668C199.194 78.3668 199.792 78.5574 200.25 78.9386C200.711 79.3198 200.942 79.8074 200.942 80.4013H199.822C199.822 80.0963 199.692 79.8335 199.431 79.6128C199.174 79.3921 198.849 79.2817 198.456 79.2817C198.05 79.2817 197.733 79.37 197.505 79.5466C197.276 79.7231 197.162 79.9539 197.162 80.2388C197.162 80.5076 197.268 80.7103 197.481 80.8467C197.693 80.9832 198.077 81.1136 198.63 81.238C199.188 81.3624 199.64 81.5108 199.985 81.6834C200.33 81.8559 200.585 82.0646 200.749 82.3094C200.918 82.5502 201.002 82.8451 201.002 83.1942C201.002 83.7761 200.769 84.2436 200.304 84.5967C199.838 84.9458 199.234 85.1204 198.492 85.1204C197.97 85.1204 197.509 85.0281 197.107 84.8435C196.706 84.6589 196.391 84.4021 196.162 84.073C195.938 83.74 195.825 83.3808 195.825 82.9956H196.939C196.959 83.3688 197.107 83.6657 197.384 83.8864C197.665 84.1031 198.034 84.2115 198.492 84.2115C198.913 84.2115 199.25 84.1272 199.503 83.9587C199.76 83.7861 199.888 83.5574 199.888 83.2725ZM203.662 85H202.549V78.4872H203.662V85ZM202.459 76.7596C202.459 76.5791 202.513 76.4266 202.621 76.3022C202.733 76.1778 202.898 76.1156 203.115 76.1156C203.331 76.1156 203.496 76.1778 203.608 76.3022C203.721 76.4266 203.777 76.5791 203.777 76.7596C203.777 76.9402 203.721 77.0907 203.608 77.2111C203.496 77.3315 203.331 77.3917 203.115 77.3917C202.898 77.3917 202.733 77.3315 202.621 77.2111C202.513 77.0907 202.459 76.9402 202.459 76.7596ZM207.599 83.4892L209.212 78.4872H210.35L208.014 85H207.166L204.806 78.4872H205.944L207.599 83.4892ZM211.03 81.6834C211.03 81.0454 211.154 80.4715 211.403 79.9619C211.656 79.4523 212.005 79.059 212.451 78.7821C212.9 78.5052 213.412 78.3668 213.985 78.3668C214.872 78.3668 215.589 78.6738 216.134 79.2877C216.684 79.9017 216.959 80.7183 216.959 81.7376V81.8158C216.959 82.4498 216.837 83.0197 216.592 83.5253C216.351 84.0269 216.004 84.4181 215.55 84.699C215.101 84.9799 214.583 85.1204 213.997 85.1204C213.115 85.1204 212.398 84.8134 211.849 84.1994C211.303 83.5855 211.03 82.7729 211.03 81.7616V81.6834ZM212.15 81.8158C212.15 82.5381 212.316 83.118 212.649 83.5554C212.986 83.9928 213.436 84.2115 213.997 84.2115C214.563 84.2115 215.013 83.9908 215.346 83.5494C215.679 83.1039 215.845 82.4819 215.845 81.6834C215.845 80.9691 215.675 80.3913 215.334 79.9499C214.997 79.5044 214.547 79.2817 213.985 79.2817C213.436 79.2817 212.992 79.5004 212.655 79.9378C212.318 80.3752 212.15 81.0012 212.15 81.8158Z" fill="#222222" fill-opacity="0.8"/>
<path d="M172.531 95.8038C172.531 96.807 172.302 97.6116 171.845 98.2175C171.391 98.8194 170.777 99.1204 170.003 99.1204C169.345 99.1204 168.813 98.8917 168.408 98.4342V101.504H166.668V92.4872H168.281L168.341 93.1252C168.763 92.6196 169.313 92.3668 169.991 92.3668C170.793 92.3668 171.417 92.6637 171.863 93.2576C172.308 93.8515 172.531 94.6702 172.531 95.7135V95.8038ZM170.791 95.6774C170.791 95.0714 170.683 94.6039 170.466 94.2749C170.254 93.9458 169.943 93.7813 169.533 93.7813C168.988 93.7813 168.612 93.99 168.408 94.4073V97.0738C168.62 97.5032 169 97.7179 169.545 97.7179C170.376 97.7179 170.791 97.0377 170.791 95.6774ZM177.388 99C177.308 98.8435 177.25 98.6489 177.214 98.4161C176.793 98.8856 176.245 99.1204 175.571 99.1204C174.933 99.1204 174.403 98.9358 173.982 98.5666C173.564 98.1974 173.356 97.7319 173.356 97.1701C173.356 96.4799 173.61 95.9502 174.12 95.5811C174.634 95.2119 175.374 95.0253 176.341 95.0213H177.142V94.6481C177.142 94.3471 177.063 94.1064 176.907 93.9258C176.754 93.7452 176.512 93.6549 176.179 93.6549C175.886 93.6549 175.655 93.7251 175.486 93.8656C175.322 94.006 175.24 94.1986 175.24 94.4434H173.5C173.5 94.0662 173.616 93.7171 173.849 93.3961C174.082 93.0751 174.411 92.8243 174.836 92.6437C175.262 92.4591 175.739 92.3668 176.269 92.3668C177.071 92.3668 177.707 92.5694 178.177 92.9747C178.65 93.376 178.887 93.9418 178.887 94.6722V97.4952C178.891 98.1132 178.978 98.5807 179.146 98.8977V99H177.388ZM175.95 97.7901C176.207 97.7901 176.443 97.734 176.66 97.6216C176.877 97.5052 177.037 97.3507 177.142 97.1581V96.0385H176.492C175.621 96.0385 175.157 96.3395 175.101 96.9414L175.095 97.0437C175.095 97.2604 175.171 97.439 175.324 97.5795C175.476 97.7199 175.685 97.7901 175.95 97.7901ZM183.883 94.1184C183.646 94.0863 183.438 94.0702 183.257 94.0702C182.599 94.0702 182.168 94.2929 181.963 94.7384V99H180.223V92.4872H181.867L181.915 93.2637C182.264 92.6657 182.748 92.3668 183.366 92.3668C183.558 92.3668 183.739 92.3929 183.907 92.445L183.883 94.1184ZM188.319 99C188.239 98.8435 188.181 98.6489 188.145 98.4161C187.723 98.8856 187.176 99.1204 186.502 99.1204C185.864 99.1204 185.334 98.9358 184.912 98.5666C184.495 98.1974 184.286 97.7319 184.286 97.1701C184.286 96.4799 184.541 95.9502 185.051 95.5811C185.565 95.2119 186.305 95.0253 187.272 95.0213H188.073V94.6481C188.073 94.3471 187.994 94.1064 187.838 93.9258C187.685 93.7452 187.443 93.6549 187.11 93.6549C186.817 93.6549 186.586 93.7251 186.417 93.8656C186.253 94.006 186.171 94.1986 186.171 94.4434H184.431C184.431 94.0662 184.547 93.7171 184.78 93.3961C185.013 93.0751 185.342 92.8243 185.767 92.6437C186.193 92.4591 186.67 92.3668 187.2 92.3668C188.002 92.3668 188.638 92.5694 189.108 92.9747C189.581 93.376 189.818 93.9418 189.818 94.6722V97.4952C189.822 98.1132 189.908 98.5807 190.077 98.8977V99H188.319ZM186.881 97.7901C187.138 97.7901 187.374 97.734 187.591 97.6216C187.808 97.5052 187.968 97.3507 188.073 97.1581V96.0385H187.423C186.552 96.0385 186.088 96.3395 186.032 96.9414L186.026 97.0437C186.026 97.2604 186.102 97.439 186.255 97.5795C186.407 97.7199 186.616 97.7901 186.881 97.7901ZM197.884 94.1184C197.647 94.0863 197.439 94.0702 197.258 94.0702C196.6 94.0702 196.168 94.2929 195.964 94.7384V99H194.224V92.4872H195.868L195.916 93.2637C196.265 92.6657 196.748 92.3668 197.366 92.3668C197.559 92.3668 197.739 92.3929 197.908 92.445L197.884 94.1184ZM201.604 99.1204C200.649 99.1204 199.87 98.8274 199.268 98.2416C198.67 97.6557 198.372 96.8752 198.372 95.9001V95.7315C198.372 95.0775 198.498 94.4936 198.751 93.9799C199.004 93.4623 199.361 93.065 199.822 92.7881C200.288 92.5072 200.817 92.3668 201.411 92.3668C202.302 92.3668 203.002 92.6477 203.512 93.2095C204.026 93.7713 204.282 94.5678 204.282 95.5991V96.3094H200.135C200.191 96.7348 200.36 97.0758 200.641 97.3327C200.926 97.5895 201.285 97.7179 201.718 97.7179C202.388 97.7179 202.912 97.4751 203.289 96.9896L204.144 97.9466C203.883 98.3158 203.53 98.6047 203.085 98.8134C202.639 99.0181 202.146 99.1204 201.604 99.1204ZM201.405 93.7753C201.06 93.7753 200.779 93.8917 200.563 94.1244C200.35 94.3572 200.213 94.6902 200.153 95.1236H202.573V94.9852C202.565 94.5999 202.461 94.303 202.26 94.0943C202.059 93.8816 201.774 93.7753 201.405 93.7753ZM205.005 95.6954C205.005 94.6802 205.231 93.8716 205.685 93.2697C206.142 92.6677 206.766 92.3668 207.557 92.3668C208.191 92.3668 208.715 92.6035 209.128 93.0771V89.7544H210.874V99H209.302L209.218 98.3078C208.785 98.8495 208.227 99.1204 207.545 99.1204C206.778 99.1204 206.162 98.8194 205.697 98.2175C205.235 97.6116 205.005 96.7709 205.005 95.6954ZM206.744 95.8218C206.744 96.4318 206.851 96.8993 207.063 97.2243C207.276 97.5494 207.585 97.7119 207.99 97.7119C208.528 97.7119 208.907 97.4852 209.128 97.0317V94.4615C208.911 94.008 208.536 93.7813 208.002 93.7813C207.164 93.7813 206.744 94.4615 206.744 95.8218ZM215.219 99.1204C214.264 99.1204 213.486 98.8274 212.884 98.2416C212.286 97.6557 211.987 96.8752 211.987 95.9001V95.7315C211.987 95.0775 212.113 94.4936 212.366 93.9799C212.619 93.4623 212.976 93.065 213.438 92.7881C213.903 92.5072 214.433 92.3668 215.027 92.3668C215.918 92.3668 216.618 92.6477 217.128 93.2095C217.641 93.7713 217.898 94.5678 217.898 95.5991V96.3094H213.751C213.807 96.7348 213.975 97.0758 214.256 97.3327C214.541 97.5895 214.9 97.7179 215.334 97.7179C216.004 97.7179 216.528 97.4751 216.905 96.9896L217.76 97.9466C217.499 98.3158 217.146 98.6047 216.7 98.8134C216.255 99.0181 215.761 99.1204 215.219 99.1204ZM215.021 93.7753C214.676 93.7753 214.395 93.8917 214.178 94.1244C213.965 94.3572 213.829 94.6902 213.769 95.1236H216.188V94.9852C216.18 94.5999 216.076 94.303 215.875 94.0943C215.675 93.8816 215.39 93.7753 215.021 93.7753ZM222.418 97.2002C222.418 96.9876 222.312 96.821 222.099 96.7006C221.891 96.5762 221.554 96.4659 221.088 96.3696C219.539 96.0445 218.765 95.3864 218.765 94.3953C218.765 93.8174 219.004 93.3359 219.481 92.9507C219.963 92.5614 220.591 92.3668 221.365 92.3668C222.192 92.3668 222.852 92.5614 223.345 92.9507C223.843 93.3399 224.092 93.8455 224.092 94.4675H222.352C222.352 94.2187 222.272 94.0141 222.111 93.8535C221.951 93.689 221.7 93.6068 221.359 93.6068C221.066 93.6068 220.839 93.673 220.679 93.8054C220.518 93.9378 220.438 94.1064 220.438 94.311C220.438 94.5036 220.528 94.6601 220.709 94.7805C220.894 94.8969 221.203 94.9992 221.636 95.0875C222.069 95.1718 222.434 95.2681 222.731 95.3764C223.65 95.7135 224.11 96.2974 224.11 97.128C224.11 97.7219 223.855 98.2035 223.345 98.5726C222.836 98.9378 222.178 99.1204 221.371 99.1204C220.825 99.1204 220.34 99.0241 219.914 98.8315C219.493 98.6348 219.162 98.368 218.921 98.0309C218.68 97.6898 218.56 97.3226 218.56 96.9294H220.209C220.225 97.2384 220.34 97.4751 220.552 97.6396C220.765 97.8042 221.05 97.8864 221.407 97.8864C221.74 97.8864 221.991 97.8242 222.16 97.6998C222.332 97.5714 222.418 97.4049 222.418 97.2002Z" fill="#EE392A"/>
<rect x="0.5" y="0.5" width="275" height="112" rx="9.5" stroke="#EF3829"/>
<path d="M0 10C0 4.47715 4.47715 0 10 0H266C271.523 0 276 4.47715 276 10V27H0V10Z" fill="#EF3829"/>
<path d="M118.657 17H116.935V7.04688H118.657V17ZM122.164 9.60352L122.212 10.458C122.759 9.7972 123.477 9.4668 124.365 9.4668C125.906 9.4668 126.689 10.3486 126.717 12.1123V17H125.056V12.208C125.056 11.7386 124.953 11.3923 124.748 11.1689C124.548 10.9411 124.217 10.8271 123.757 10.8271C123.087 10.8271 122.588 11.1302 122.26 11.7363V17H120.599V9.60352H122.164ZM131.454 15.8105C131.869 15.8105 132.213 15.6898 132.486 15.4482C132.76 15.2067 132.906 14.9082 132.924 14.5527H134.489C134.471 15.013 134.327 15.4437 134.059 15.8447C133.79 16.2412 133.425 16.5557 132.965 16.7881C132.505 17.0205 132.008 17.1367 131.475 17.1367C130.44 17.1367 129.62 16.8018 129.014 16.1318C128.408 15.4619 128.104 14.5368 128.104 13.3564V13.1855C128.104 12.0599 128.405 11.1598 129.007 10.4854C129.608 9.80632 130.429 9.4668 131.468 9.4668C132.347 9.4668 133.063 9.72428 133.614 10.2393C134.17 10.7497 134.462 11.4219 134.489 12.2559H132.924C132.906 11.832 132.76 11.4834 132.486 11.21C132.217 10.9365 131.873 10.7998 131.454 10.7998C130.916 10.7998 130.502 10.9958 130.21 11.3877C129.918 11.7751 129.77 12.3652 129.766 13.1582V13.4248C129.766 14.2269 129.909 14.8262 130.196 15.2227C130.488 15.6146 130.907 15.8105 131.454 15.8105ZM137.511 17H135.85V6.5H137.511V17ZM143.807 16.2754C143.319 16.8496 142.626 17.1367 141.729 17.1367C140.926 17.1367 140.318 16.902 139.903 16.4326C139.493 15.9632 139.288 15.2842 139.288 14.3955V9.60352H140.949V14.375C140.949 15.3138 141.339 15.7832 142.118 15.7832C142.925 15.7832 143.469 15.4938 143.752 14.915V9.60352H145.413V17H143.848L143.807 16.2754ZM149.692 14.6211L151.196 9.60352H152.967L150.027 18.1211C149.576 19.3652 148.811 19.9873 147.73 19.9873C147.489 19.9873 147.222 19.9463 146.931 19.8643V18.5791L147.245 18.5996C147.664 18.5996 147.979 18.5221 148.188 18.3672C148.403 18.2168 148.571 17.9616 148.694 17.6016L148.934 16.9658L146.336 9.60352H148.127L149.692 14.6211ZM157.089 17.1367C156.036 17.1367 155.182 16.8063 154.525 16.1455C153.874 15.4801 153.548 14.596 153.548 13.4932V13.2881C153.548 12.5498 153.689 11.8913 153.972 11.3125C154.259 10.7292 154.66 10.2757 155.175 9.95215C155.69 9.62858 156.264 9.4668 156.897 9.4668C157.905 9.4668 158.682 9.78809 159.229 10.4307C159.78 11.0732 160.056 11.9824 160.056 13.1582V13.8281H155.223C155.273 14.4388 155.476 14.9219 155.831 15.2773C156.191 15.6328 156.642 15.8105 157.185 15.8105C157.946 15.8105 158.565 15.5029 159.044 14.8877L159.939 15.7422C159.643 16.1842 159.247 16.5283 158.75 16.7744C158.258 17.016 157.704 17.1367 157.089 17.1367ZM156.891 10.7998C156.435 10.7998 156.066 10.9593 155.783 11.2783C155.505 11.5973 155.327 12.0417 155.25 12.6113H158.415V12.4883C158.379 11.9323 158.23 11.513 157.971 11.2305C157.711 10.9434 157.351 10.7998 156.891 10.7998Z" fill="white"/>
</svg>
