<svg width="302" height="317" viewBox="0 0 302 317" fill="none" xmlns="http://www.w3.org/2000/svg">
<rect width="302" height="317" fill="#F5F5F5"/>
<path opacity="0.2" d="M39.9494 43.5027C41.246 46.1535 43.3948 48.2925 46.0515 49.577C46.2459 49.6691 46.4609 49.709 46.6754 49.6928C46.8899 49.6766 47.0964 49.6048 47.2747 49.4845L51.1866 46.876C51.3596 46.7606 51.5586 46.6902 51.7657 46.6712C51.9728 46.6522 52.1813 46.6851 52.3724 46.767L59.6907 49.9034C59.9393 50.0091 60.1469 50.1926 60.2821 50.4264C60.4173 50.6602 60.4729 50.9317 60.4405 51.1998C60.2092 53.0098 59.326 54.6734 57.9564 55.8792C56.5869 57.085 54.8247 57.7502 53 57.7503C47.3641 57.7503 41.9591 55.5114 37.974 51.5263C33.9888 47.5411 31.75 42.1361 31.75 36.5003C31.7501 34.6755 32.4153 32.9134 33.6211 31.5438C34.8268 30.1742 36.4905 29.2911 38.3005 29.0598C38.5686 29.0274 38.84 29.0829 39.0739 29.2182C39.3077 29.3534 39.4912 29.5609 39.5968 29.8095L42.736 37.1342C42.8172 37.3237 42.8502 37.5303 42.8323 37.7356C42.8143 37.9409 42.7458 38.1386 42.6329 38.3111L40.0335 42.2829C39.9152 42.4616 39.8453 42.6679 39.8305 42.8817C39.8158 43.0955 39.8567 43.3094 39.9494 43.5027Z" fill="#EF3829"/>
<path d="M39.9494 43.5027C41.246 46.1535 43.3948 48.2925 46.0515 49.577C46.2459 49.6691 46.4609 49.709 46.6754 49.6928C46.8899 49.6766 47.0964 49.6048 47.2747 49.4845L51.1866 46.876C51.3596 46.7606 51.5586 46.6902 51.7657 46.6712C51.9728 46.6522 52.1813 46.6851 52.3724 46.767L59.6907 49.9034C59.9393 50.009 60.1469 50.1926 60.2821 50.4264C60.4173 50.6602 60.4729 50.9317 60.4405 51.1998C60.2092 53.0098 59.326 54.6734 57.9564 55.8792C56.5869 57.085 54.8247 57.7502 53 57.7503C47.3641 57.7503 41.9591 55.5114 37.974 51.5263C33.9888 47.5411 31.75 42.1361 31.75 36.5003C31.7501 34.6755 32.4153 32.9134 33.6211 31.5438C34.8268 30.1742 36.4905 29.2911 38.3005 29.0598C38.5686 29.0274 38.84 29.0829 39.0739 29.2182C39.3077 29.3534 39.4912 29.5609 39.5968 29.8095L42.736 37.1342C42.8172 37.3237 42.8502 37.5303 42.8323 37.7356C42.8143 37.9409 42.7458 38.1386 42.6329 38.3111L40.0335 42.2829C39.9152 42.4616 39.8453 42.6679 39.8305 42.8817C39.8158 43.0955 39.8567 43.3094 39.9494 43.5027V43.5027Z" stroke="#EF3829" stroke-width="2" stroke-linecap="round" stroke-linejoin="round"/>
<path d="M78.9531 58H72.1172V29.5625H78.9531V58ZM88.9742 52.7266H100.908V58H82.1187V29.5625H88.9742V52.7266ZM109.503 58H102.667V29.5625H109.503V58ZM121.673 29.5625L128.02 49.3477L134.348 29.5625H143.372V58H136.497V51.3594L137.161 37.7656L130.286 58H125.755L118.86 37.7461L119.524 51.3594V58H112.669V29.5625H121.673ZM153.452 58H146.616V29.5625H153.452V58ZM178.355 34.8555H169.82V58H162.965V34.8555H154.586V29.5625H178.355V34.8555ZM193.474 52.6875H184.08L182.439 58H175.115L185.545 29.5625H191.99L202.498 58H195.134L193.474 52.6875ZM185.72 47.3945H191.834L188.767 37.5312L185.72 47.3945ZM202.988 58V29.5625H212.148C214.661 29.5625 216.92 30.1354 218.925 31.2812C220.93 32.4141 222.493 34.0221 223.613 36.1055C224.745 38.1758 225.318 40.5 225.331 43.0781V44.3867C225.331 46.9909 224.778 49.3281 223.671 51.3984C222.577 53.4557 221.028 55.0703 219.023 56.2422C217.03 57.401 214.804 57.987 212.343 58H202.988ZM209.843 34.8555V52.7266H212.226C214.192 52.7266 215.702 52.0299 216.757 50.6367C217.812 49.2305 218.339 47.1471 218.339 44.3867V43.1562C218.339 40.4089 217.812 38.3385 216.757 36.9453C215.702 35.5521 214.166 34.8555 212.148 34.8555H209.843ZM251.329 44.3672C251.329 47.1406 250.815 49.5951 249.786 51.7305C248.757 53.8659 247.292 55.513 245.391 56.6719C243.503 57.8177 241.348 58.3906 238.927 58.3906C236.505 58.3906 234.356 57.8372 232.481 56.7305C230.606 55.6107 229.141 54.0156 228.087 51.9453C227.045 49.875 226.498 47.4987 226.446 44.8164V43.2148C226.446 40.4284 226.954 37.974 227.97 35.8516C228.998 33.7161 230.463 32.069 232.364 30.9102C234.278 29.7513 236.453 29.1719 238.887 29.1719C241.296 29.1719 243.445 29.7448 245.333 30.8906C247.221 32.0365 248.686 33.6706 249.727 35.793C250.782 37.9023 251.316 40.3242 251.329 43.0586V44.3672ZM244.356 43.1758C244.356 40.3503 243.881 38.2083 242.93 36.75C241.993 35.2786 240.645 34.543 238.887 34.543C235.45 34.543 233.634 37.1211 233.438 42.2773L233.419 44.3672C233.419 47.1536 233.881 49.2956 234.805 50.793C235.73 52.2904 237.104 53.0391 238.927 53.0391C240.658 53.0391 241.993 52.3034 242.93 50.832C243.868 49.3607 244.343 47.2448 244.356 44.4844V43.1758ZM267.932 50.4414C267.932 49.4388 267.574 48.6576 266.858 48.0977C266.155 47.5378 264.911 46.9583 263.127 46.3594C261.343 45.7604 259.885 45.181 258.752 44.6211C255.067 42.8112 253.225 40.3242 253.225 37.1602C253.225 35.5846 253.681 34.1979 254.592 33C255.517 31.7891 256.819 30.8516 258.498 30.1875C260.178 29.5104 262.066 29.1719 264.163 29.1719C266.207 29.1719 268.036 29.5365 269.651 30.2656C271.278 30.9948 272.541 32.0365 273.44 33.3906C274.338 34.7318 274.788 36.2682 274.788 38H267.952C267.952 36.8411 267.593 35.9427 266.877 35.3047C266.174 34.6667 265.217 34.3477 264.006 34.3477C262.782 34.3477 261.812 34.6211 261.096 35.168C260.393 35.7018 260.041 36.3854 260.041 37.2188C260.041 37.9479 260.432 38.612 261.213 39.2109C261.995 39.7969 263.368 40.4089 265.334 41.0469C267.301 41.6719 268.915 42.349 270.178 43.0781C273.251 44.849 274.788 47.2904 274.788 50.4023C274.788 52.8893 273.85 54.8424 271.975 56.2617C270.1 57.681 267.528 58.3906 264.26 58.3906C261.955 58.3906 259.866 57.9805 257.991 57.1602C256.129 56.3268 254.722 55.194 253.772 53.7617C252.834 52.3164 252.366 50.6562 252.366 48.7812H259.241C259.241 50.3047 259.631 51.431 260.413 52.1602C261.207 52.8763 262.489 53.2344 264.26 53.2344C265.393 53.2344 266.285 52.9935 266.936 52.5117C267.6 52.0169 267.932 51.3268 267.932 50.4414Z" fill="#EF3829"/>
<path d="M78.6797 67.8594H75.0234V78H73.5312V67.8594H69.8828V66.625H78.6797V67.8594ZM89.5384 72.6797C89.5384 73.7943 89.3509 74.7682 88.9759 75.6016C88.6009 76.4297 88.0697 77.0625 87.3822 77.5C86.6947 77.9375 85.8926 78.1562 84.9759 78.1562C84.0801 78.1562 83.2858 77.9375 82.5931 77.5C81.9004 77.0573 81.3614 76.4297 80.9759 75.6172C80.5957 74.7995 80.4004 73.8542 80.39 72.7812V71.9609C80.39 70.8672 80.5801 69.901 80.9603 69.0625C81.3405 68.224 81.877 67.5833 82.5697 67.1406C83.2676 66.6927 84.0645 66.4688 84.9603 66.4688C85.8718 66.4688 86.6739 66.6901 87.3666 67.1328C88.0645 67.5703 88.6009 68.2083 88.9759 69.0469C89.3509 69.8802 89.5384 70.8516 89.5384 71.9609V72.6797ZM88.0463 71.9453C88.0463 70.5964 87.7754 69.5625 87.2338 68.8438C86.6921 68.1198 85.9343 67.7578 84.9603 67.7578C84.0124 67.7578 83.265 68.1198 82.7181 68.8438C82.1765 69.5625 81.8978 70.5625 81.8822 71.8438V72.6797C81.8822 73.987 82.1556 75.0156 82.7025 75.7656C83.2546 76.5104 84.0124 76.8828 84.9759 76.8828C85.9447 76.8828 86.6947 76.5312 87.2259 75.8281C87.7572 75.1198 88.0306 74.1068 88.0463 72.7891V71.9453ZM92.4284 78V66.625H95.6394C96.629 66.625 97.504 66.8438 98.2644 67.2812C99.0248 67.7188 99.6107 68.3411 100.022 69.1484C100.439 69.9557 100.65 70.8828 100.655 71.9297V72.6562C100.655 73.7292 100.447 74.6693 100.03 75.4766C99.6185 76.2839 99.0274 76.9036 98.2566 77.3359C97.4909 77.7682 96.5977 77.9896 95.5769 78H92.4284ZM93.9284 67.8594V76.7734H95.5066C96.6628 76.7734 97.5613 76.4141 98.2019 75.6953C98.8477 74.9766 99.1706 73.9531 99.1706 72.625V71.9609C99.1706 70.6693 98.8659 69.6667 98.2566 68.9531C97.6524 68.2344 96.793 67.8698 95.6784 67.8594H93.9284ZM109.678 75.0312H104.912L103.842 78H102.295L106.639 66.625H107.951L112.303 78H110.764L109.678 75.0312ZM105.365 73.7969H109.232L107.295 68.4766L105.365 73.7969ZM117.826 72.9297C116.539 72.5599 115.602 72.1068 115.013 71.5703C114.43 71.0286 114.138 70.362 114.138 69.5703C114.138 68.6745 114.495 67.9349 115.208 67.3516C115.927 66.763 116.859 66.4688 118.005 66.4688C118.787 66.4688 119.482 66.6198 120.091 66.9219C120.706 67.224 121.18 67.6406 121.513 68.1719C121.852 68.7031 122.021 69.2839 122.021 69.9141H120.513C120.513 69.2266 120.294 68.6875 119.857 68.2969C119.419 67.901 118.802 67.7031 118.005 67.7031C117.266 67.7031 116.688 67.8672 116.271 68.1953C115.859 68.5182 115.654 68.9688 115.654 69.5469C115.654 70.0104 115.849 70.4036 116.24 70.7266C116.636 71.0443 117.305 71.3359 118.248 71.6016C119.195 71.8672 119.935 72.1615 120.466 72.4844C121.003 72.8021 121.399 73.1745 121.654 73.6016C121.914 74.0286 122.044 74.5312 122.044 75.1094C122.044 76.0312 121.685 76.7708 120.966 77.3281C120.248 77.8802 119.287 78.1562 118.083 78.1562C117.302 78.1562 116.573 78.0078 115.896 77.7109C115.219 77.4089 114.695 76.9974 114.326 76.4766C113.961 75.9557 113.779 75.3646 113.779 74.7031H115.287C115.287 75.3906 115.539 75.9349 116.044 76.3359C116.555 76.7318 117.234 76.9297 118.083 76.9297C118.875 76.9297 119.482 76.7682 119.904 76.4453C120.326 76.1224 120.537 75.6823 120.537 75.125C120.537 74.5677 120.341 74.138 119.951 73.8359C119.56 73.5286 118.852 73.2266 117.826 72.9297ZM130.731 76.7734H136.121V78H129.223V66.625H130.731V76.7734ZM144.91 75.0312H140.144L139.074 78H137.527L141.871 66.625H143.183L147.535 78H145.996L144.91 75.0312ZM140.597 73.7969H144.464L142.527 68.4766L140.597 73.7969ZM153.058 72.9297C151.771 72.5599 150.834 72.1068 150.245 71.5703C149.662 71.0286 149.37 70.362 149.37 69.5703C149.37 68.6745 149.727 67.9349 150.44 67.3516C151.159 66.763 152.091 66.4688 153.237 66.4688C154.018 66.4688 154.714 66.6198 155.323 66.9219C155.938 67.224 156.412 67.6406 156.745 68.1719C157.084 68.7031 157.253 69.2839 157.253 69.9141H155.745C155.745 69.2266 155.526 68.6875 155.089 68.2969C154.651 67.901 154.034 67.7031 153.237 67.7031C152.498 67.7031 151.919 67.8672 151.503 68.1953C151.091 68.5182 150.886 68.9688 150.886 69.5469C150.886 70.0104 151.081 70.4036 151.472 70.7266C151.867 71.0443 152.537 71.3359 153.479 71.6016C154.427 71.8672 155.167 72.1615 155.698 72.4844C156.235 72.8021 156.63 73.1745 156.886 73.6016C157.146 74.0286 157.276 74.5312 157.276 75.1094C157.276 76.0312 156.917 76.7708 156.198 77.3281C155.479 77.8802 154.518 78.1562 153.315 78.1562C152.534 78.1562 151.805 78.0078 151.128 77.7109C150.451 77.4089 149.927 76.9974 149.558 76.4766C149.193 75.9557 149.011 75.3646 149.011 74.7031H150.518C150.518 75.3906 150.771 75.9349 151.276 76.3359C151.787 76.7318 152.466 76.9297 153.315 76.9297C154.107 76.9297 154.714 76.7682 155.136 76.4453C155.558 76.1224 155.768 75.6823 155.768 75.125C155.768 74.5677 155.573 74.138 155.183 73.8359C154.792 73.5286 154.084 73.2266 153.058 72.9297ZM173.205 72.6797C173.205 73.7943 173.017 74.7682 172.642 75.6016C172.267 76.4297 171.736 77.0625 171.048 77.5C170.361 77.9375 169.559 78.1562 168.642 78.1562C167.746 78.1562 166.952 77.9375 166.259 77.5C165.567 77.0573 165.028 76.4297 164.642 75.6172C164.262 74.7995 164.067 73.8542 164.056 72.7812V71.9609C164.056 70.8672 164.246 69.901 164.627 69.0625C165.007 68.224 165.543 67.5833 166.236 67.1406C166.934 66.6927 167.731 66.4688 168.627 66.4688C169.538 66.4688 170.34 66.6901 171.033 67.1328C171.731 67.5703 172.267 68.2083 172.642 69.0469C173.017 69.8802 173.205 70.8516 173.205 71.9609V72.6797ZM171.713 71.9453C171.713 70.5964 171.442 69.5625 170.9 68.8438C170.358 68.1198 169.601 67.7578 168.627 67.7578C167.679 67.7578 166.931 68.1198 166.384 68.8438C165.843 69.5625 165.564 70.5625 165.548 71.8438V72.6797C165.548 73.987 165.822 75.0156 166.369 75.7656C166.921 76.5104 167.679 76.8828 168.642 76.8828C169.611 76.8828 170.361 76.5312 170.892 75.8281C171.423 75.1198 171.697 74.1068 171.713 72.7891V71.9453ZM177.595 73.5469V78H176.095V66.625H180.29C181.535 66.625 182.509 66.9427 183.212 67.5781C183.92 68.2135 184.274 69.0547 184.274 70.1016C184.274 71.2057 183.928 72.0573 183.235 72.6562C182.548 73.25 181.561 73.5469 180.274 73.5469H177.595ZM177.595 72.3203H180.29C181.092 72.3203 181.707 72.1328 182.134 71.7578C182.561 71.3776 182.774 70.8307 182.774 70.1172C182.774 69.4401 182.561 68.8984 182.134 68.4922C181.707 68.0859 181.121 67.875 180.376 67.8594H177.595V72.3203ZM193.258 72.7422H188.328V76.7734H194.055V78H186.828V66.625H193.977V67.8594H188.328V71.5156H193.258V72.7422ZM200.734 73.3984H198.062V78H196.554V66.625H200.32C201.601 66.625 202.586 66.9167 203.273 67.5C203.966 68.0833 204.312 68.9323 204.312 70.0469C204.312 70.7552 204.119 71.3724 203.734 71.8984C203.354 72.4245 202.823 72.8177 202.14 73.0781L204.812 77.9062V78H203.203L200.734 73.3984ZM198.062 72.1719H200.367C201.112 72.1719 201.703 71.9792 202.14 71.5938C202.583 71.2083 202.804 70.6927 202.804 70.0469C202.804 69.3438 202.593 68.8047 202.172 68.4297C201.755 68.0547 201.151 67.8646 200.359 67.8594H198.062V72.1719ZM213.343 75.0312H208.577L207.507 78H205.96L210.304 66.625H211.616L215.968 78H214.429L213.343 75.0312ZM209.03 73.7969H212.898L210.96 68.4766L209.03 73.7969ZM218.139 78V66.625H221.35C222.34 66.625 223.215 66.8438 223.975 67.2812C224.735 67.7188 225.321 68.3411 225.733 69.1484C226.149 69.9557 226.36 70.8828 226.366 71.9297V72.6562C226.366 73.7292 226.157 74.6693 225.741 75.4766C225.329 76.2839 224.738 76.9036 223.967 77.3359C223.202 77.7682 222.308 77.9896 221.288 78H218.139ZM219.639 67.8594V76.7734H221.217C222.373 76.7734 223.272 76.4141 223.913 75.6953C224.558 74.9766 224.881 73.9531 224.881 72.625V71.9609C224.881 70.6693 224.577 69.6667 223.967 68.9531C223.363 68.2344 222.504 67.8698 221.389 67.8594H219.639ZM238.029 72.6797C238.029 73.7943 237.842 74.7682 237.467 75.6016C237.092 76.4297 236.56 77.0625 235.873 77.5C235.185 77.9375 234.383 78.1562 233.467 78.1562C232.571 78.1562 231.776 77.9375 231.084 77.5C230.391 77.0573 229.852 76.4297 229.467 75.6172C229.086 74.7995 228.891 73.8542 228.881 72.7812V71.9609C228.881 70.8672 229.071 69.901 229.451 69.0625C229.831 68.224 230.368 67.5833 231.06 67.1406C231.758 66.6927 232.555 66.4688 233.451 66.4688C234.362 66.4688 235.164 66.6901 235.857 67.1328C236.555 67.5703 237.092 68.2083 237.467 69.0469C237.842 69.8802 238.029 70.8516 238.029 71.9609V72.6797ZM236.537 71.9453C236.537 70.5964 236.266 69.5625 235.724 68.8438C235.183 68.1198 234.425 67.7578 233.451 67.7578C232.503 67.7578 231.756 68.1198 231.209 68.8438C230.667 69.5625 230.388 70.5625 230.373 71.8438V72.6797C230.373 73.987 230.646 75.0156 231.193 75.7656C231.745 76.5104 232.503 76.8828 233.467 76.8828C234.435 76.8828 235.185 76.5312 235.717 75.8281C236.248 75.1198 236.521 74.1068 236.537 72.7891V71.9453ZM245.091 73.3984H242.419V78H240.911V66.625H244.677C245.958 66.625 246.943 66.9167 247.63 67.5C248.323 68.0833 248.669 68.9323 248.669 70.0469C248.669 70.7552 248.476 71.3724 248.091 71.8984C247.711 72.4245 247.179 72.8177 246.497 73.0781L249.169 77.9062V78H247.56L245.091 73.3984ZM242.419 72.1719H244.724C245.469 72.1719 246.06 71.9792 246.497 71.5938C246.94 71.2083 247.161 70.6927 247.161 70.0469C247.161 69.3438 246.95 68.8047 246.528 68.4297C246.112 68.0547 245.508 67.8646 244.716 67.8594H242.419V72.1719ZM257.7 75.0312H252.934L251.864 78H250.317L254.661 66.625H255.973L260.325 78H258.786L257.7 75.0312ZM253.387 73.7969H257.254L255.317 68.4766L253.387 73.7969ZM265.848 72.9297C264.561 72.5599 263.624 72.1068 263.035 71.5703C262.452 71.0286 262.16 70.362 262.16 69.5703C262.16 68.6745 262.517 67.9349 263.23 67.3516C263.949 66.763 264.881 66.4688 266.027 66.4688C266.808 66.4688 267.504 66.6198 268.113 66.9219C268.728 67.224 269.202 67.6406 269.535 68.1719C269.874 68.7031 270.043 69.2839 270.043 69.9141H268.535C268.535 69.2266 268.316 68.6875 267.879 68.2969C267.441 67.901 266.824 67.7031 266.027 67.7031C265.288 67.7031 264.709 67.8672 264.293 68.1953C263.881 68.5182 263.676 68.9688 263.676 69.5469C263.676 70.0104 263.871 70.4036 264.262 70.7266C264.657 71.0443 265.327 71.3359 266.269 71.6016C267.217 71.8672 267.957 72.1615 268.488 72.4844C269.025 72.8021 269.42 73.1745 269.676 73.6016C269.936 74.0286 270.066 74.5312 270.066 75.1094C270.066 76.0312 269.707 76.7708 268.988 77.3281C268.269 77.8802 267.308 78.1562 266.105 78.1562C265.324 78.1562 264.595 78.0078 263.918 77.7109C263.241 77.4089 262.717 76.9974 262.348 76.4766C261.983 75.9557 261.801 75.3646 261.801 74.7031H263.308C263.308 75.3906 263.561 75.9349 264.066 76.3359C264.577 76.7318 265.256 76.9297 266.105 76.9297C266.897 76.9297 267.504 76.7682 267.926 76.4453C268.348 76.1224 268.558 75.6823 268.558 75.125C268.558 74.5677 268.363 74.138 267.973 73.8359C267.582 73.5286 266.874 73.2266 265.848 72.9297Z" fill="#222222" fill-opacity="0.8"/>
<path d="M13.5967 125.07L14.9004 114.172H27.3662V118.01H18.9141L18.4307 122.243C18.7822 122.038 19.2412 121.857 19.8076 121.701C20.3838 121.545 20.9453 121.467 21.4922 121.467C23.6113 121.467 25.2373 122.097 26.3701 123.356C27.5127 124.606 28.084 126.364 28.084 128.63C28.084 129.997 27.7764 131.237 27.1611 132.351C26.5557 133.454 25.7012 134.304 24.5977 134.899C23.4941 135.495 22.1904 135.793 20.6865 135.793C19.3486 135.793 18.0938 135.52 16.9219 134.973C15.75 134.416 14.832 133.659 14.168 132.702C13.5039 131.735 13.1768 130.646 13.1865 129.436H18.1377C18.1865 130.217 18.4355 130.837 18.8848 131.296C19.334 131.755 19.9248 131.984 20.6572 131.984C22.3174 131.984 23.1475 130.754 23.1475 128.293C23.1475 126.018 22.1318 124.88 20.1006 124.88C18.9482 124.88 18.0889 125.251 17.5225 125.993L13.5967 125.07ZM45.4863 126.784C45.4863 129.665 44.8369 131.887 43.5381 133.449C42.249 135.012 40.4277 135.793 38.0742 135.793C35.7012 135.793 33.8652 135.007 32.5664 133.435C31.2676 131.862 30.6182 129.646 30.6182 126.784V122.888C30.6182 120.007 31.2627 117.785 32.5518 116.223C33.8506 114.66 35.6816 113.879 38.0449 113.879C40.4082 113.879 42.2393 114.665 43.5381 116.237C44.8369 117.81 45.4863 120.031 45.4863 122.902V126.784ZM40.5498 122.258C40.5498 120.725 40.3496 119.582 39.9492 118.83C39.5488 118.068 38.9141 117.688 38.0449 117.688C37.1953 117.688 36.5752 118.039 36.1846 118.742C35.8037 119.445 35.5986 120.51 35.5693 121.936V127.385C35.5693 128.977 35.7695 130.144 36.1699 130.886C36.5703 131.618 37.2051 131.984 38.0742 131.984C38.9141 131.984 39.5342 131.628 39.9346 130.915C40.335 130.192 40.54 129.064 40.5498 127.531V122.258ZM62.5811 114.172L67.3418 129.011L72.0879 114.172H78.8555V135.5H73.6992V130.52L74.1973 120.324L69.041 135.5H65.6426L60.4717 120.31L60.9697 130.52V135.5H55.8281V114.172H62.5811ZM87.6152 135.5H82.4883V114.172H87.6152V135.5ZM109.002 135.5H103.89L96.3311 122.229V135.5H91.1895V114.172H96.3311L103.875 127.443V114.172H109.002V135.5Z" fill="#222222"/>
<path d="M14.4746 153.427H19.1914V154.5H13.1553V144.547H14.4746V153.427ZM26.3213 151.902H22.1514L21.2148 154.5H19.8613L23.6621 144.547H24.8105L28.6182 154.5H27.2715L26.3213 151.902ZM22.5479 150.822H25.9316L24.2363 146.167L22.5479 150.822ZM33.6084 150.474H31.2705V154.5H29.9512V144.547H33.2461C34.3672 144.547 35.2285 144.802 35.8301 145.312C36.4362 145.823 36.7393 146.566 36.7393 147.541C36.7393 148.161 36.5706 148.701 36.2334 149.161C35.9007 149.621 35.4359 149.965 34.8389 150.193L37.1768 154.418V154.5H35.7686L33.6084 150.474ZM31.2705 149.4H33.2871C33.9388 149.4 34.4561 149.232 34.8389 148.895C35.2262 148.557 35.4199 148.106 35.4199 147.541C35.4199 146.926 35.2354 146.454 34.8662 146.126C34.5016 145.798 33.973 145.632 33.2803 145.627H31.2705V149.4ZM45.9336 153.194C45.5964 153.677 45.1247 154.04 44.5186 154.281C43.917 154.518 43.2152 154.637 42.4131 154.637C41.6019 154.637 40.8818 154.448 40.2529 154.069C39.624 153.687 39.1364 153.144 38.79 152.442C38.4482 151.741 38.2728 150.927 38.2637 150.002V149.134C38.2637 147.634 38.6123 146.472 39.3096 145.647C40.0114 144.823 40.9958 144.41 42.2627 144.41C43.3018 144.41 44.138 144.677 44.7715 145.21C45.4049 145.739 45.7923 146.491 45.9336 147.466H44.6211C44.375 146.149 43.5911 145.49 42.2695 145.49C41.39 145.49 40.7223 145.8 40.2666 146.42C39.8154 147.035 39.5876 147.928 39.583 149.1V149.913C39.583 151.03 39.8382 151.918 40.3486 152.579C40.859 153.235 41.5495 153.563 42.4199 153.563C42.9121 153.563 43.3428 153.509 43.7119 153.399C44.0811 153.29 44.3864 153.105 44.6279 152.846V150.61H42.3242V149.544H45.9336V153.194ZM53.624 151.902H49.4541L48.5176 154.5H47.1641L50.9648 144.547H52.1133L55.9209 154.5H54.5742L53.624 151.902ZM49.8506 150.822H53.2344L51.5391 146.167L49.8506 150.822ZM60.7334 154.5V144.547H63.543C64.4089 144.547 65.1745 144.738 65.8398 145.121C66.5052 145.504 67.0179 146.049 67.3779 146.755C67.7425 147.461 67.9271 148.272 67.9316 149.188V149.824C67.9316 150.763 67.7493 151.586 67.3848 152.292C67.0247 152.998 66.5075 153.541 65.833 153.919C65.1631 154.297 64.3815 154.491 63.4883 154.5H60.7334ZM62.0459 145.627V153.427H63.4268C64.4385 153.427 65.2246 153.112 65.7852 152.483C66.3503 151.854 66.6328 150.959 66.6328 149.797V149.216C66.6328 148.086 66.3662 147.208 65.833 146.584C65.3044 145.955 64.5524 145.636 63.5771 145.627H62.0459ZM71.3291 154.5H70.0166V144.547H71.3291V154.5ZM76.668 150.063C75.5423 149.74 74.722 149.343 74.207 148.874C73.6966 148.4 73.4414 147.817 73.4414 147.124C73.4414 146.34 73.7536 145.693 74.3779 145.183C75.0068 144.668 75.8226 144.41 76.8252 144.41C77.5088 144.41 78.1172 144.542 78.6504 144.807C79.1882 145.071 79.6029 145.436 79.8945 145.9C80.1908 146.365 80.3389 146.873 80.3389 147.425H79.0195C79.0195 146.823 78.8281 146.352 78.4453 146.01C78.0625 145.663 77.5225 145.49 76.8252 145.49C76.1781 145.49 75.6722 145.634 75.3076 145.921C74.9476 146.203 74.7676 146.598 74.7676 147.104C74.7676 147.509 74.9385 147.853 75.2803 148.136C75.6266 148.414 76.2122 148.669 77.0371 148.901C77.8665 149.134 78.5137 149.391 78.9785 149.674C79.4479 149.952 79.7943 150.278 80.0176 150.651C80.2454 151.025 80.3594 151.465 80.3594 151.971C80.3594 152.777 80.0449 153.424 79.416 153.912C78.7871 154.395 77.9463 154.637 76.8936 154.637C76.21 154.637 75.5719 154.507 74.9795 154.247C74.387 153.983 73.929 153.623 73.6055 153.167C73.2865 152.711 73.127 152.194 73.127 151.615H74.4463C74.4463 152.217 74.6673 152.693 75.1094 153.044C75.556 153.39 76.1507 153.563 76.8936 153.563C77.5863 153.563 78.1172 153.422 78.4863 153.14C78.8555 152.857 79.04 152.472 79.04 151.984C79.04 151.497 78.8691 151.121 78.5273 150.856C78.1855 150.588 77.5658 150.323 76.668 150.063ZM88.9248 145.627H85.7256V154.5H84.4199V145.627H81.2275V144.547H88.9248V145.627ZM95.3506 151.902H91.1807L90.2441 154.5H88.8906L92.6914 144.547H93.8398L97.6475 154.5H96.3008L95.3506 151.902ZM91.5771 150.822H94.9609L93.2656 146.167L91.5771 150.822ZM106.637 154.5H105.317L100.307 146.83V154.5H98.9873V144.547H100.307L105.331 152.251V144.547H106.637V154.5ZM116.289 151.342C116.166 152.395 115.776 153.208 115.12 153.782C114.468 154.352 113.6 154.637 112.516 154.637C111.34 154.637 110.396 154.215 109.686 153.372C108.979 152.529 108.626 151.401 108.626 149.988V149.031C108.626 148.106 108.79 147.293 109.118 146.591C109.451 145.889 109.92 145.351 110.526 144.978C111.132 144.599 111.834 144.41 112.632 144.41C113.689 144.41 114.537 144.706 115.175 145.299C115.813 145.887 116.184 146.702 116.289 147.746H114.97C114.856 146.953 114.607 146.379 114.225 146.023C113.846 145.668 113.315 145.49 112.632 145.49C111.793 145.49 111.135 145.8 110.656 146.42C110.182 147.04 109.945 147.922 109.945 149.065V150.029C109.945 151.109 110.171 151.968 110.622 152.606C111.073 153.244 111.704 153.563 112.516 153.563C113.245 153.563 113.803 153.399 114.19 153.071C114.582 152.739 114.842 152.162 114.97 151.342H116.289ZM119.495 154.5H118.183V144.547H119.495V154.5ZM127.521 151.902H123.351L122.414 154.5H121.061L124.861 144.547H126.01L129.817 154.5H128.471L127.521 151.902ZM123.747 150.822H127.131L125.436 146.167L123.747 150.822ZM14.5635 168.5H13.251V158.547H14.5635V168.5ZM24.6191 168.5H23.2998L18.2891 160.83V168.5H16.9697V158.547H18.2891L23.3135 166.251V158.547H24.6191V168.5ZM33.6221 159.627H30.4229V168.5H29.1172V159.627H25.9248V158.547H33.6221V159.627ZM40.7246 163.899H36.4111V167.427H41.4219V168.5H35.0986V158.547H41.3535V159.627H36.4111V162.826H40.7246V163.899ZM46.7061 164.474H44.3682V168.5H43.0488V158.547H46.3438C47.4648 158.547 48.3262 158.802 48.9277 159.312C49.5339 159.823 49.8369 160.566 49.8369 161.541C49.8369 162.161 49.6683 162.701 49.3311 163.161C48.9984 163.621 48.5335 163.965 47.9365 164.193L50.2744 168.418V168.5H48.8662L46.7061 164.474ZM44.3682 163.4H46.3848C47.0365 163.4 47.5537 163.232 47.9365 162.895C48.3239 162.557 48.5176 162.106 48.5176 161.541C48.5176 160.926 48.333 160.454 47.9639 160.126C47.5993 159.798 47.0706 159.632 46.3779 159.627H44.3682V163.4ZM59.332 168.5H58.0127L53.002 160.83V168.5H51.6826V158.547H53.002L58.0264 166.251V158.547H59.332V168.5ZM67.2822 165.902H63.1123L62.1758 168.5H60.8223L64.623 158.547H65.7715L69.5791 168.5H68.2324L67.2822 165.902ZM63.5088 164.822H66.8926L65.1973 160.167L63.5088 164.822ZM78.1582 165.342C78.0352 166.395 77.6455 167.208 76.9893 167.782C76.3376 168.352 75.4694 168.637 74.3848 168.637C73.209 168.637 72.2656 168.215 71.5547 167.372C70.8483 166.529 70.4951 165.401 70.4951 163.988V163.031C70.4951 162.106 70.6592 161.293 70.9873 160.591C71.32 159.889 71.7894 159.351 72.3955 158.978C73.0016 158.599 73.7035 158.41 74.501 158.41C75.5583 158.41 76.4059 158.706 77.0439 159.299C77.682 159.887 78.0534 160.702 78.1582 161.746H76.8389C76.7249 160.953 76.4766 160.379 76.0938 160.023C75.7155 159.668 75.1846 159.49 74.501 159.49C73.6624 159.49 73.0039 159.8 72.5254 160.42C72.0514 161.04 71.8145 161.922 71.8145 163.065V164.029C71.8145 165.109 72.04 165.968 72.4912 166.606C72.9424 167.244 73.5736 167.563 74.3848 167.563C75.1139 167.563 75.6722 167.399 76.0596 167.071C76.4515 166.739 76.7113 166.162 76.8389 165.342H78.1582ZM81.3643 168.5H80.0518V158.547H81.3643V168.5ZM91.4268 163.845C91.4268 164.82 91.2627 165.672 90.9346 166.401C90.6064 167.126 90.1416 167.68 89.54 168.062C88.9385 168.445 88.2367 168.637 87.4346 168.637C86.6507 168.637 85.9557 168.445 85.3496 168.062C84.7435 167.675 84.2718 167.126 83.9346 166.415C83.6019 165.7 83.431 164.872 83.4219 163.934V163.216C83.4219 162.259 83.5882 161.413 83.9209 160.68C84.2536 159.946 84.723 159.385 85.3291 158.998C85.9398 158.606 86.637 158.41 87.4209 158.41C88.2184 158.41 88.9202 158.604 89.5264 158.991C90.137 159.374 90.6064 159.932 90.9346 160.666C91.2627 161.395 91.4268 162.245 91.4268 163.216V163.845ZM90.1211 163.202C90.1211 162.022 89.8841 161.117 89.4102 160.488C88.9362 159.855 88.2731 159.538 87.4209 159.538C86.5915 159.538 85.9375 159.855 85.459 160.488C84.985 161.117 84.7412 161.992 84.7275 163.113V163.845C84.7275 164.989 84.9668 165.889 85.4453 166.545C85.9284 167.197 86.5915 167.522 87.4346 167.522C88.2822 167.522 88.9385 167.215 89.4033 166.6C89.8682 165.98 90.1074 165.093 90.1211 163.94V163.202ZM101.045 168.5H99.7256L94.7148 160.83V168.5H93.3955V158.547H94.7148L99.7393 166.251V158.547H101.045V168.5ZM108.995 165.902H104.825L103.889 168.5H102.535L106.336 158.547H107.484L111.292 168.5H109.945L108.995 165.902ZM105.222 164.822H108.605L106.91 160.167L105.222 164.822ZM113.951 167.427H118.668V168.5H112.632V158.547H113.951V167.427Z" fill="#222222"/>
<g filter="url(#filter0_d)">
<path d="M152.516 124.594H157.688L156.906 129.109H151.75L150.672 135.219H145.875L146.938 129.109H141.75L142.531 124.594H147.719L148.75 118.656H153.547L152.516 124.594Z" fill="#EF3829"/>
</g>
<path d="M174.134 113.859L177.625 124.741L181.105 113.859H186.068V129.5H182.287V125.848L182.652 118.371L178.871 129.5H176.379L172.587 118.36L172.952 125.848V129.5H169.182V113.859H174.134ZM198.175 122.872H192.245V126.6H199.249V129.5H188.475V113.859H199.271V116.771H192.245V120.068H198.175V122.872ZM213.848 129.5H210.099L204.556 119.768V129.5H200.785V113.859H204.556L210.088 123.592V113.859H213.848V129.5ZM224.3 125.343C224.3 124.791 224.103 124.362 223.709 124.054C223.322 123.746 222.638 123.427 221.657 123.098C220.676 122.768 219.874 122.45 219.251 122.142C217.224 121.146 216.211 119.778 216.211 118.038C216.211 117.172 216.462 116.409 216.963 115.75C217.471 115.084 218.188 114.568 219.111 114.203C220.035 113.831 221.074 113.645 222.227 113.645C223.351 113.645 224.357 113.845 225.245 114.246C226.14 114.647 226.835 115.22 227.329 115.965C227.823 116.702 228.07 117.548 228.07 118.5H224.311C224.311 117.863 224.114 117.368 223.72 117.018C223.333 116.667 222.807 116.491 222.141 116.491C221.467 116.491 220.934 116.642 220.54 116.942C220.153 117.236 219.96 117.612 219.96 118.07C219.96 118.471 220.175 118.837 220.604 119.166C221.034 119.488 221.79 119.825 222.871 120.176C223.952 120.52 224.84 120.892 225.535 121.293C227.225 122.267 228.07 123.61 228.07 125.321C228.07 126.689 227.555 127.763 226.523 128.544C225.492 129.325 224.078 129.715 222.28 129.715C221.013 129.715 219.863 129.489 218.832 129.038C217.808 128.58 217.035 127.957 216.512 127.169C215.996 126.374 215.738 125.461 215.738 124.43H219.52C219.52 125.268 219.734 125.887 220.164 126.288C220.601 126.682 221.306 126.879 222.28 126.879C222.903 126.879 223.394 126.746 223.752 126.481C224.117 126.209 224.3 125.83 224.3 125.343ZM238.888 126.578H233.721L232.818 129.5H228.79L234.526 113.859H238.071L243.851 129.5H239.801L238.888 126.578ZM234.623 123.667H237.985L236.299 118.242L234.623 123.667ZM251.23 113.859H254.99V124.591C254.99 125.586 254.757 126.474 254.292 127.255C253.834 128.035 253.189 128.641 252.358 129.07C251.535 129.5 250.615 129.715 249.598 129.715C247.893 129.715 246.568 129.285 245.623 128.426C244.678 127.566 244.205 126.349 244.205 124.773H247.986C247.986 125.49 248.108 126.009 248.352 126.331C248.602 126.653 249.018 126.814 249.598 126.814C250.12 126.814 250.521 126.621 250.801 126.234C251.087 125.84 251.23 125.293 251.23 124.591V113.859ZM267.075 122.872H261.146V126.6H268.149V129.5H257.375V113.859H268.171V116.771H261.146V120.068H267.075V122.872ZM277.753 125.343C277.753 124.791 277.556 124.362 277.162 124.054C276.775 123.746 276.091 123.427 275.11 123.098C274.129 122.768 273.327 122.45 272.704 122.142C270.677 121.146 269.664 119.778 269.664 118.038C269.664 117.172 269.915 116.409 270.416 115.75C270.924 115.084 271.641 114.568 272.564 114.203C273.488 113.831 274.527 113.645 275.68 113.645C276.804 113.645 277.81 113.845 278.698 114.246C279.593 114.647 280.288 115.22 280.782 115.965C281.276 116.702 281.523 117.548 281.523 118.5H277.764C277.764 117.863 277.567 117.368 277.173 117.018C276.786 116.667 276.26 116.491 275.594 116.491C274.921 116.491 274.387 116.642 273.993 116.942C273.606 117.236 273.413 117.612 273.413 118.07C273.413 118.471 273.628 118.837 274.058 119.166C274.487 119.488 275.243 119.825 276.324 120.176C277.406 120.52 278.294 120.892 278.988 121.293C280.678 122.267 281.523 123.61 281.523 125.321C281.523 126.689 281.008 127.763 279.977 128.544C278.945 129.325 277.531 129.715 275.733 129.715C274.466 129.715 273.316 129.489 272.285 129.038C271.261 128.58 270.488 127.957 269.965 127.169C269.449 126.374 269.191 125.461 269.191 124.43H272.973C272.973 125.268 273.188 125.887 273.617 126.288C274.054 126.682 274.759 126.879 275.733 126.879C276.356 126.879 276.847 126.746 277.205 126.481C277.57 126.209 277.753 125.83 277.753 125.343ZM173.199 151.5H169.439V135.859H173.199V151.5ZM179.591 148.6H186.154V151.5H175.82V135.859H179.591V148.6ZM191.762 151.5H188.002V135.859H191.762V151.5ZM199.335 135.859L202.826 146.741L206.307 135.859H211.27V151.5H207.488V147.848L207.854 140.371L204.072 151.5H201.58L197.788 140.36L198.153 147.848V151.5H194.383V135.859H199.335ZM217.693 151.5H213.934V135.859H217.693V151.5ZM232.271 138.771H227.576V151.5H223.806V138.771H219.197V135.859H232.271V138.771ZM241.466 148.578H236.299L235.396 151.5H231.368L237.104 135.859H240.649L246.429 151.5H242.379L241.466 148.578ZM237.201 145.667H240.563L238.877 140.242L237.201 145.667ZM247.578 151.5V135.859H252.616C253.998 135.859 255.241 136.174 256.344 136.805C257.447 137.428 258.306 138.312 258.922 139.458C259.545 140.597 259.86 141.875 259.867 143.293V144.013C259.867 145.445 259.563 146.73 258.954 147.869C258.353 149.001 257.5 149.889 256.397 150.533C255.302 151.171 254.077 151.493 252.724 151.5H247.578ZM251.349 138.771V148.6H252.659C253.741 148.6 254.571 148.216 255.151 147.45C255.731 146.677 256.021 145.531 256.021 144.013V143.336C256.021 141.825 255.731 140.686 255.151 139.92C254.571 139.154 253.726 138.771 252.616 138.771H251.349ZM275.046 144.002C275.046 145.527 274.763 146.877 274.197 148.052C273.632 149.226 272.826 150.132 271.78 150.77C270.742 151.4 269.557 151.715 268.225 151.715C266.893 151.715 265.711 151.41 264.68 150.802C263.648 150.186 262.843 149.309 262.263 148.17C261.69 147.031 261.389 145.724 261.36 144.249V143.368C261.36 141.836 261.64 140.486 262.198 139.318C262.764 138.144 263.57 137.238 264.615 136.601C265.668 135.963 266.864 135.645 268.203 135.645C269.528 135.645 270.71 135.96 271.748 136.59C272.786 137.22 273.592 138.119 274.165 139.286C274.745 140.446 275.039 141.778 275.046 143.282V144.002ZM271.211 143.347C271.211 141.793 270.95 140.615 270.427 139.812C269.911 139.003 269.17 138.599 268.203 138.599C266.312 138.599 265.313 140.017 265.206 142.853L265.195 144.002C265.195 145.535 265.45 146.713 265.958 147.536C266.466 148.36 267.222 148.771 268.225 148.771C269.177 148.771 269.911 148.367 270.427 147.558C270.942 146.748 271.204 145.585 271.211 144.066V143.347ZM285.058 147.343C285.058 146.791 284.861 146.362 284.467 146.054C284.08 145.746 283.396 145.427 282.415 145.098C281.434 144.768 280.632 144.45 280.009 144.142C277.982 143.146 276.969 141.778 276.969 140.038C276.969 139.172 277.219 138.409 277.721 137.75C278.229 137.084 278.945 136.568 279.869 136.203C280.793 135.831 281.831 135.645 282.984 135.645C284.109 135.645 285.115 135.845 286.003 136.246C286.898 136.647 287.593 137.22 288.087 137.965C288.581 138.702 288.828 139.548 288.828 140.5H285.068C285.068 139.863 284.871 139.368 284.478 139.018C284.091 138.667 283.564 138.491 282.898 138.491C282.225 138.491 281.692 138.642 281.298 138.942C280.911 139.236 280.718 139.612 280.718 140.07C280.718 140.471 280.933 140.837 281.362 141.166C281.792 141.488 282.548 141.825 283.629 142.176C284.71 142.52 285.598 142.892 286.293 143.293C287.983 144.267 288.828 145.61 288.828 147.321C288.828 148.689 288.312 149.763 287.281 150.544C286.25 151.325 284.836 151.715 283.038 151.715C281.771 151.715 280.621 151.489 279.59 151.038C278.566 150.58 277.792 149.957 277.27 149.169C276.754 148.374 276.496 147.461 276.496 146.43H280.277C280.277 147.268 280.492 147.887 280.922 148.288C281.359 148.682 282.064 148.879 283.038 148.879C283.661 148.879 284.152 148.746 284.51 148.481C284.875 148.209 285.058 147.83 285.058 147.343Z" fill="#222222"/>
<path d="M170.851 156.547L174.104 164.668L177.358 156.547H179.061V166.5H177.748V162.624L177.871 158.44L174.604 166.5H173.599L170.338 158.461L170.468 162.624V166.5H169.155V156.547H170.851ZM188.385 156.547V163.314C188.38 164.253 188.084 165.021 187.496 165.618C186.913 166.215 186.12 166.55 185.117 166.623L184.769 166.637C183.679 166.637 182.811 166.343 182.164 165.755C181.517 165.167 181.189 164.358 181.18 163.328V156.547H182.479V163.287C182.479 164.007 182.677 164.568 183.073 164.969C183.47 165.365 184.035 165.563 184.769 165.563C185.511 165.563 186.079 165.365 186.471 164.969C186.867 164.572 187.065 164.014 187.065 163.294V156.547H188.385ZM191.775 165.427H196.492V166.5H190.456V156.547H191.775V165.427ZM202.979 157.627H199.78V166.5H198.475V157.627H195.282V156.547H202.979V157.627ZM205.864 166.5H204.552V156.547H205.864V166.5ZM208.271 166.5V156.547H211.08C211.946 156.547 212.712 156.738 213.377 157.121C214.042 157.504 214.555 158.049 214.915 158.755C215.28 159.461 215.464 160.272 215.469 161.188V161.824C215.469 162.763 215.286 163.586 214.922 164.292C214.562 164.998 214.045 165.541 213.37 165.919C212.7 166.297 211.919 166.491 211.025 166.5H208.271ZM209.583 157.627V165.427H210.964C211.976 165.427 212.762 165.112 213.322 164.483C213.887 163.854 214.17 162.959 214.17 161.797V161.216C214.17 160.086 213.903 159.208 213.37 158.584C212.841 157.955 212.09 157.636 211.114 157.627H209.583ZM223.084 161.899H218.771V165.427H223.781V166.5H217.458V156.547H223.713V157.627H218.771V160.826H223.084V161.899ZM228.348 162.063C227.222 161.74 226.402 161.343 225.887 160.874C225.376 160.4 225.121 159.817 225.121 159.124C225.121 158.34 225.433 157.693 226.058 157.183C226.687 156.668 227.502 156.41 228.505 156.41C229.188 156.41 229.797 156.542 230.33 156.807C230.868 157.071 231.283 157.436 231.574 157.9C231.87 158.365 232.019 158.873 232.019 159.425H230.699C230.699 158.823 230.508 158.352 230.125 158.01C229.742 157.663 229.202 157.49 228.505 157.49C227.858 157.49 227.352 157.634 226.987 157.921C226.627 158.203 226.447 158.598 226.447 159.104C226.447 159.509 226.618 159.853 226.96 160.136C227.306 160.414 227.892 160.669 228.717 160.901C229.546 161.134 230.193 161.391 230.658 161.674C231.128 161.952 231.474 162.278 231.697 162.651C231.925 163.025 232.039 163.465 232.039 163.971C232.039 164.777 231.725 165.424 231.096 165.912C230.467 166.395 229.626 166.637 228.573 166.637C227.89 166.637 227.252 166.507 226.659 166.247C226.067 165.983 225.609 165.623 225.285 165.167C224.966 164.711 224.807 164.194 224.807 163.615H226.126C226.126 164.217 226.347 164.693 226.789 165.044C227.236 165.39 227.83 165.563 228.573 165.563C229.266 165.563 229.797 165.422 230.166 165.14C230.535 164.857 230.72 164.472 230.72 163.984C230.72 163.497 230.549 163.121 230.207 162.856C229.865 162.588 229.245 162.323 228.348 162.063ZM240.604 157.627H237.405V166.5H236.1V157.627H232.907V156.547H240.604V157.627ZM243.489 166.5H242.177V156.547H243.489V166.5ZM253.545 166.5H252.226L247.215 158.83V166.5H245.896V156.547H247.215L252.239 164.251V156.547H253.545V166.5ZM263.532 161.845C263.532 162.82 263.368 163.672 263.04 164.401C262.712 165.126 262.247 165.68 261.646 166.062C261.044 166.445 260.342 166.637 259.54 166.637C258.756 166.637 258.061 166.445 257.455 166.062C256.849 165.675 256.377 165.126 256.04 164.415C255.707 163.7 255.536 162.872 255.527 161.934V161.216C255.527 160.259 255.694 159.413 256.026 158.68C256.359 157.946 256.828 157.385 257.435 156.998C258.045 156.606 258.743 156.41 259.526 156.41C260.324 156.41 261.026 156.604 261.632 156.991C262.243 157.374 262.712 157.932 263.04 158.666C263.368 159.395 263.532 160.245 263.532 161.216V161.845ZM262.227 161.202C262.227 160.022 261.99 159.117 261.516 158.488C261.042 157.855 260.379 157.538 259.526 157.538C258.697 157.538 258.043 157.855 257.564 158.488C257.09 159.117 256.847 159.992 256.833 161.113V161.845C256.833 162.989 257.072 163.889 257.551 164.545C258.034 165.197 258.697 165.522 259.54 165.522C260.388 165.522 261.044 165.215 261.509 164.6C261.974 163.98 262.213 163.093 262.227 161.94V161.202Z" fill="#222222"/>
<g clip-path="url(#clip0)">
<path d="M82.356 214.895C82.2495 214.895 82.2495 214.895 82.2495 214.895C81.1839 214.895 80.1184 214.895 79.1594 214.895C79.0528 214.895 78.9463 214.895 78.9463 214.789C78.2004 213.421 77.1348 212.474 75.6431 212.053C73.512 211.526 71.8071 212.158 70.3153 213.737C69.4629 214.684 69.0367 215.842 69.0367 217.105C69.0367 218.053 69.2498 218.895 69.676 219.737C70.5284 221.105 71.7005 222.053 73.2989 222.263C75.3234 222.579 77.0283 221.947 78.3069 220.263C78.5201 220.053 78.6266 219.737 78.8397 219.421C78.8397 219.316 78.9463 219.316 79.0528 219.316C80.1184 219.316 81.1839 219.316 82.2495 219.316C82.356 219.316 82.356 219.316 82.356 219.421C81.9298 221 81.0774 222.368 79.7987 223.421C78.5201 224.474 77.1348 225.21 75.43 225.421C73.512 225.632 71.594 225.421 69.8891 224.368C67.6515 223 66.2663 221 65.84 218.474C65.5204 216.158 65.9466 213.947 67.4384 212.053C68.3974 210.895 69.4629 209.842 70.8481 209.316C71.594 209 72.3399 208.789 73.1923 208.789C74.3644 208.684 75.5365 208.684 76.7086 209.105C79.0528 209.842 80.7577 211.316 81.8232 213.526C82.0364 213.947 82.1429 214.368 82.356 214.895Z" fill="#EF3829"/>
<path d="M97.1672 224.368C97.0606 224.368 97.0606 224.474 97.0606 224.474C96.3148 225 95.4623 225.316 94.6099 225.526C93.864 225.632 93.1181 225.737 92.3722 225.632C90.987 225.421 89.9215 224.895 89.3887 223.526C89.1756 222.895 89.069 222.263 89.1756 221.632C89.1756 221.105 89.2821 220.579 89.4953 220.053C89.9215 219.105 90.6674 218.474 91.6264 218.053C92.3722 217.737 93.1181 217.632 93.864 217.526C94.6099 217.421 95.3558 217.316 96.1017 217.211C96.6344 217.105 97.0606 216.579 96.9541 215.947C96.8475 215.421 96.6344 215.105 96.1017 214.895C95.4623 214.684 94.9296 214.684 94.2902 214.79C94.0771 214.79 93.864 214.895 93.6509 214.895C93.1181 215.105 92.7985 215.632 92.5853 216.158V216.263C92.4788 216.579 92.4788 216.579 92.2657 216.579C91.3067 216.579 90.3477 216.579 89.3887 216.579C89.2821 216.579 89.2821 216.579 89.2821 216.474C89.2821 216.053 89.3887 215.632 89.4953 215.211C89.9215 213.632 90.987 212.684 92.4788 212.263C93.5443 211.947 94.5033 211.947 95.5689 212.053C96.5279 212.053 97.4869 212.368 98.3393 212.79C99.4049 213.316 99.9376 214.158 100.151 215.211C100.257 215.526 100.257 215.842 100.257 216.158C100.257 219.316 100.257 222.368 100.257 225.526C100.257 225.632 100.257 225.737 100.044 225.737C99.0852 225.737 98.0196 225.737 97.0606 225.737C96.9541 225.737 96.9541 225.737 96.9541 225.632C96.9541 225.316 96.9541 224.895 96.9541 224.579C97.2738 224.368 97.2738 224.368 97.1672 224.368ZM97.0606 219C96.9541 219.105 96.8475 219.105 96.8475 219.105C96.741 219.211 96.5279 219.316 96.4213 219.316C95.782 219.421 95.2492 219.632 94.6099 219.737C94.1837 219.842 93.864 219.842 93.5443 220.053C93.0116 220.263 92.6919 220.684 92.5853 221.211C92.4788 221.526 92.4788 221.737 92.5853 222.053C92.6919 222.684 93.1181 223.211 93.7574 223.316C94.7164 223.526 95.5689 223.211 96.3148 222.684C96.8475 222.368 96.9541 221.737 97.0606 221.211C97.1672 220.474 97.0606 219.737 97.0606 219Z" fill="#EF3829"/>
<path d="M110.593 218.79C110.593 215.421 113.044 213.105 115.175 212.368C119.331 211 123.273 213.526 124.126 217.316C124.552 219.421 124.232 221.316 122.954 223C121.888 224.368 120.503 225.316 118.798 225.632C116.56 226.053 114.536 225.526 112.937 223.947C111.978 223 111.233 221.947 110.913 220.684C110.7 220.053 110.593 219.421 110.593 218.79ZM117.413 215.316C115.388 215.211 113.79 217.105 113.79 218.895C113.79 220.579 115.175 222.474 117.413 222.474C119.65 222.474 121.036 220.579 121.036 218.895C121.036 216.895 119.544 215.211 117.413 215.316Z" fill="#EF3829"/>
<path d="M113.15 232.263C113.15 232.158 113.15 232.158 113.15 232.053C113.15 230.79 113.15 229.421 113.15 228.158C113.15 228.053 113.15 228.053 113.364 228.053C114.109 228.053 114.749 228.053 115.495 228.053C115.601 228.053 115.601 228.053 115.601 228.158C115.601 232.369 115.601 236.579 115.601 240.79C115.601 240.895 115.601 240.895 115.495 240.895C114.855 240.895 114.109 240.895 113.47 240.895C113.364 240.895 113.364 240.895 113.364 240.79C113.364 240.579 113.364 240.369 113.364 240.053H113.257C112.618 240.684 111.872 241 110.913 241C110.487 241 110.06 240.895 109.634 240.79C108.675 240.474 108.142 239.737 107.823 238.79C107.716 238.369 107.61 237.947 107.61 237.421C107.61 236.263 107.503 235.211 107.716 234.053C107.823 233.632 107.929 233.211 108.036 232.79C108.356 232.053 108.888 231.632 109.634 231.421C110.593 231.105 111.446 231.105 112.405 231.526C112.724 231.842 112.937 232.053 113.15 232.263ZM113.15 236.158C113.15 236.053 113.15 236.053 113.15 235.947C113.15 235.421 113.15 234.79 112.937 234.263C112.724 233.842 112.511 233.632 112.085 233.526C111.978 233.526 111.765 233.421 111.659 233.421C111.019 233.421 110.487 233.632 110.167 234.369C110.06 234.79 109.954 235.211 109.954 235.632C109.954 236.263 109.954 236.895 110.06 237.526C110.167 238.263 110.593 238.79 111.446 238.79C112.192 238.79 112.724 238.474 112.937 237.842C113.15 237.316 113.15 236.79 113.15 236.158Z" fill="black"/>
<path d="M105.798 214.263C106.118 213.842 106.331 213.631 106.651 213.316C107.29 212.789 108.036 212.368 108.888 212.158C109.315 212.053 109.741 212.053 110.167 211.947C110.274 211.947 110.274 212.053 110.274 212.053C110.274 212.684 110.274 213.421 110.274 214.053C110.274 214.368 110.274 214.789 110.274 215.105C110.274 215.21 110.274 215.21 110.167 215.21C109.847 215.21 109.528 215.105 109.102 215.21C108.569 215.21 108.143 215.421 107.716 215.631C106.864 216.158 106.225 216.789 106.011 217.842C105.905 218.263 105.905 218.789 105.905 219.21C105.905 221.21 105.905 223.316 105.905 225.316C105.905 225.421 105.905 225.526 105.692 225.526C104.733 225.526 103.774 225.526 102.815 225.526C102.708 225.526 102.708 225.526 102.708 225.421C102.708 221.21 102.708 217 102.708 212.684C102.708 212.579 102.708 212.579 102.815 212.579C103.774 212.579 104.733 212.579 105.692 212.579C105.798 212.579 105.798 212.579 105.798 212.684C105.798 213.316 105.798 213.737 105.798 214.263Z" fill="#EF3829"/>
<path d="M87.2577 217.105C87.2577 219.842 87.2577 222.684 87.2577 225.421C87.2577 225.526 87.2577 225.632 87.0445 225.632C86.0856 225.632 85.1266 225.632 84.061 225.632C83.9545 225.632 83.8479 225.632 83.8479 225.421C83.8479 219.842 83.8479 214.369 83.8479 208.79C83.8479 208.684 83.8479 208.579 84.061 208.579C85.02 208.579 86.0856 208.579 87.0445 208.579C87.1511 208.579 87.1511 208.579 87.1511 208.79C87.2577 211.632 87.2577 214.369 87.2577 217.105Z" fill="#EF3829"/>
<path d="M122.74 236.895C121.781 236.895 120.823 236.895 119.864 236.895C119.757 236.895 119.757 236.895 119.757 237C119.757 237.947 120.29 238.684 121.142 238.789C122.101 239 123.06 238.895 123.806 238.158C124.019 237.947 124.019 237.947 124.126 238.158C124.552 238.579 124.872 238.895 125.298 239.316C125.404 239.421 125.404 239.421 125.298 239.421C124.658 240.053 123.806 240.579 122.847 240.789C121.888 240.895 120.929 240.895 119.97 240.579C118.905 240.263 118.159 239.526 117.732 238.474C117.093 236.789 117.093 235.105 117.732 233.526C118.372 232.053 119.544 231.316 121.142 231.21C121.781 231.21 122.527 231.21 123.06 231.526C124.232 232.053 124.978 233 125.298 234.158C125.404 234.684 125.511 235.21 125.511 235.737C125.511 236.053 125.511 236.368 125.511 236.684C125.511 236.789 125.511 236.789 125.404 236.789C124.658 236.895 123.699 236.895 122.74 236.895ZM121.568 235.316C122.101 235.316 122.74 235.316 123.273 235.316C123.38 235.316 123.38 235.316 123.38 235.21C123.38 234.895 123.273 234.684 123.167 234.474C122.74 233.21 121.249 233.21 120.503 233.632C119.97 234.053 119.757 234.579 119.757 235.21C119.757 235.316 119.757 235.316 119.864 235.316C120.396 235.316 121.036 235.316 121.568 235.316Z" fill="black"/>
<path d="M135.207 236.158C135.207 236.895 135.207 237.632 134.994 238.263C134.675 239.526 133.822 240.368 132.543 240.789C131.478 241.105 130.412 241.105 129.347 240.579C128.175 240.053 127.535 239.21 127.322 237.947C127.109 237 127.109 236.053 127.216 235.105C127.216 234.579 127.322 233.947 127.642 233.421C128.175 232.263 129.134 231.632 130.412 231.316C131.158 231.21 132.011 231.21 132.757 231.421C134.035 231.842 134.888 232.789 135.207 234.158C135.207 234.895 135.207 235.526 135.207 236.158ZM129.56 236.158C129.56 236.684 129.56 237.105 129.667 237.632C129.88 238.684 130.626 239.105 131.584 238.895C132.224 238.789 132.543 238.263 132.757 237.737C132.97 236.789 132.97 235.842 132.757 234.895C132.65 234.368 132.437 233.947 131.904 233.737C131.478 233.526 131.158 233.526 130.732 233.632C130.093 233.842 129.773 234.263 129.667 234.789C129.56 235.21 129.453 235.632 129.56 236.158Z" fill="black"/>
<path d="M93.3313 231.421C93.651 231.421 93.9706 231.421 94.1837 231.421C94.7165 231.421 95.1427 231.421 95.6755 231.421C95.7821 231.421 95.8886 231.421 95.8886 231.631C96.5279 233.421 97.0607 235.316 97.7 237.105V237.21C97.8066 237.21 97.7 237.105 97.8066 237.105C98.4459 235.316 98.9787 233.421 99.618 231.526C99.618 231.421 99.7246 231.421 99.8311 231.421C100.577 231.421 101.323 231.421 102.069 231.421C102.282 231.421 102.282 231.421 102.175 231.526C101.216 234.158 100.151 236.895 99.1918 239.526C99.0853 239.947 98.8721 240.263 98.7656 240.684C98.7656 240.789 98.659 240.789 98.659 240.789C98.1263 240.789 97.5935 240.789 97.0607 240.789C96.9542 240.789 96.9542 240.789 96.8476 240.684C96.1017 238.789 95.4624 236.895 94.7165 235C94.2903 233.842 93.8641 232.684 93.4379 231.631C93.4379 231.526 93.4379 231.526 93.3313 231.421Z" fill="black"/>
<path d="M124.871 212.579C124.871 212.473 124.765 212.473 124.871 212.579C124.126 211.842 123.486 211.21 122.847 210.579C122.74 210.473 122.847 210.473 122.847 210.368L122.953 210.263C125.511 207.737 128.068 205.21 130.519 202.684C130.625 202.579 130.625 202.579 130.732 202.684C131.371 203.316 132.011 203.947 132.65 204.579C132.757 204.684 132.757 204.684 132.65 204.789C130.093 207.316 127.535 209.842 124.871 212.579C124.978 212.473 124.871 212.473 124.871 212.579Z" fill="#EF3829"/>
<path d="M130.626 215.737C132.011 215.737 133.396 215.737 134.781 215.737C134.888 215.737 134.888 215.737 134.888 215.842C134.888 216.684 134.888 217.632 134.888 218.474C134.888 218.579 134.888 218.579 134.781 218.579C132.011 218.579 129.134 218.579 126.363 218.579C126.257 218.579 126.257 218.579 126.257 218.474C126.257 217.632 126.257 216.684 126.257 215.842C126.257 215.737 126.257 215.737 126.363 215.737C127.855 215.737 129.24 215.737 130.626 215.737Z" fill="#EF3829"/>
<path d="M116.347 205.211C116.347 203.842 116.347 202.474 116.347 201.211C116.347 201.105 116.347 201 116.454 201C117.306 201 118.159 201 119.118 201C119.224 201 119.224 201 119.224 201.105C119.224 203.842 119.224 206.474 119.224 209.211C119.224 209.316 119.224 209.316 119.118 209.316C118.265 209.316 117.306 209.316 116.454 209.316C116.347 209.316 116.347 209.316 116.347 209.211C116.347 207.947 116.347 206.579 116.347 205.211Z" fill="#EF3829"/>
<path d="M103.347 236.158C103.347 234.684 103.347 233.105 103.347 231.631C103.347 231.526 103.347 231.421 103.454 231.421C104.2 231.421 104.839 231.421 105.585 231.421C105.692 231.421 105.692 231.421 105.692 231.526C105.692 234.579 105.692 237.631 105.692 240.684C105.692 240.789 105.692 240.789 105.585 240.789C104.839 240.789 104.2 240.789 103.454 240.789C103.347 240.789 103.347 240.789 103.347 240.684C103.347 239.21 103.347 237.631 103.347 236.158Z" fill="black"/>
<path d="M103.028 228.79C103.028 227.947 103.667 227.316 104.52 227.316C105.372 227.316 106.011 227.947 106.011 228.79C106.011 229.632 105.372 230.263 104.52 230.263C103.667 230.263 103.028 229.632 103.028 228.79Z" fill="black"/>
</g>
<g filter="url(#filter1_d)">
<path d="M154.729 216.979H159.901L159.12 221.495H153.964L152.886 227.604H148.089L149.151 221.495H143.964L144.745 216.979H149.933L150.964 211.042H155.761L154.729 216.979Z" fill="#EF3829"/>
</g>
<path d="M182.828 214.778C182.302 214.778 181.776 214.778 181.25 214.778C181.145 214.778 181.145 214.778 181.04 214.673C180.304 213.306 179.357 212.359 177.885 212.044C175.991 211.518 174.309 212.044 172.941 213.411C172.205 214.147 171.679 215.094 171.469 216.146C171.153 218.249 171.784 219.932 173.467 221.194C175.045 222.457 177.464 222.562 179.252 221.405C179.988 220.879 180.619 220.248 181.04 219.406C181.145 219.301 181.145 219.301 181.25 219.301C182.302 219.301 183.249 219.301 184.301 219.301C184.406 219.301 184.406 219.301 184.406 219.406C183.88 221.089 183.039 222.457 181.671 223.614C180.619 224.56 179.357 225.086 177.99 225.296C175.886 225.612 173.993 225.402 172.205 224.245C170.101 222.877 168.734 220.984 168.313 218.46C167.998 216.146 168.418 214.042 169.786 212.149C170.732 210.887 171.889 209.835 173.362 209.309C174.203 208.994 175.045 208.783 175.991 208.783C176.938 208.783 177.885 208.783 178.831 209.099C180.935 209.835 182.618 211.097 183.67 213.096C183.985 213.621 184.195 214.253 184.406 214.778C184.406 214.884 184.406 214.884 184.301 214.884C183.88 214.778 183.354 214.778 182.828 214.778Z" fill="#EF3829"/>
<path d="M199.236 224.14C198.815 224.56 198.29 224.771 197.764 224.981C196.712 225.402 195.66 225.507 194.503 225.402C193.767 225.297 193.031 225.086 192.399 224.56C191.768 223.929 191.453 223.193 191.348 222.246C191.348 221.615 191.348 220.984 191.453 220.353C191.768 219.196 192.505 218.46 193.556 218.039C194.293 217.724 195.029 217.619 195.765 217.513C196.607 217.408 197.343 217.303 198.184 217.093C198.71 216.987 199.131 216.462 199.026 215.725C198.921 215.305 198.71 214.989 198.29 214.884C197.974 214.779 197.658 214.674 197.343 214.674C196.922 214.674 196.607 214.674 196.186 214.674C195.555 214.779 195.134 215.199 194.819 215.831C194.819 215.936 194.713 216.041 194.713 216.251C194.713 216.356 194.608 216.462 194.503 216.462C193.556 216.462 192.61 216.462 191.558 216.462C191.453 216.462 191.453 216.462 191.453 216.356C191.453 215.936 191.558 215.41 191.663 214.989C192.084 213.622 193.031 212.675 194.398 212.254C194.924 212.044 195.555 211.939 196.186 211.939C197.343 211.834 198.5 211.939 199.657 212.254C199.972 212.36 200.288 212.465 200.709 212.675C201.655 213.096 202.076 213.832 202.286 214.884C202.392 215.305 202.392 215.62 202.392 216.041C202.392 219.091 202.392 222.246 202.392 225.297C202.392 225.402 202.392 225.507 202.181 225.507C201.235 225.507 200.288 225.507 199.236 225.507C199.131 225.507 199.026 225.507 199.131 225.297C199.236 224.981 199.236 224.56 199.236 224.14ZM199.026 218.881C198.815 218.986 198.605 219.196 198.395 219.196C197.869 219.407 197.238 219.512 196.712 219.617C196.291 219.722 195.976 219.722 195.555 219.933C195.029 220.143 194.713 220.458 194.608 221.09C194.503 221.3 194.503 221.615 194.608 221.826C194.713 222.562 195.134 222.983 195.765 223.088C196.186 223.193 196.607 223.193 197.027 222.983C198.395 222.562 198.815 221.931 199.026 220.879C199.131 220.248 199.026 219.617 199.026 218.881Z" fill="#EF3829"/>
<path d="M219.01 225.507C217.012 225.507 215.434 224.77 214.172 223.298C213.12 222.141 212.489 220.879 212.384 219.301C212.173 216.671 213.225 214.568 215.329 213.095C216.276 212.359 217.327 212.044 218.589 211.938C219.536 211.833 220.588 211.938 221.429 212.359C223.743 213.306 225.216 214.989 225.742 217.513C226.057 219.406 225.742 221.194 224.69 222.667C223.638 224.139 222.271 225.086 220.483 225.401C219.852 225.507 219.431 225.507 219.01 225.507ZM219.01 215.199C217.012 215.094 215.434 216.882 215.434 218.775C215.434 220.563 216.907 222.351 219.01 222.351C221.114 222.351 222.586 220.563 222.586 218.775C222.586 216.777 221.009 215.094 219.01 215.199Z" fill="#EF3829"/>
<path d="M184.616 232.343C185.037 231.923 185.458 231.712 185.983 231.502C186.93 231.186 187.772 231.292 188.613 231.712C188.929 231.923 189.139 232.133 189.454 232.448C189.56 232.554 189.56 232.554 189.665 232.448C190.191 231.923 190.822 231.502 191.558 231.397C192.399 231.292 193.136 231.292 193.977 231.607C194.924 232.028 195.45 232.869 195.66 233.921C195.765 234.237 195.765 234.552 195.765 234.868C195.765 236.761 195.765 238.759 195.765 240.653C195.765 240.758 195.765 240.863 195.66 240.758C195.029 240.758 194.293 240.758 193.662 240.758C193.556 240.758 193.556 240.758 193.556 240.653C193.556 238.759 193.556 236.971 193.556 235.078C193.556 234.762 193.556 234.447 193.346 234.237C193.136 233.711 192.505 233.395 191.979 233.395C191.453 233.395 191.032 233.605 190.717 234.026C190.506 234.342 190.401 234.657 190.401 234.973C190.401 236.866 190.401 238.654 190.401 240.547C190.401 240.653 190.401 240.758 190.191 240.758C189.56 240.758 188.823 240.758 188.192 240.758C188.087 240.758 188.087 240.758 188.087 240.653C188.087 238.759 188.087 236.971 188.087 235.078C188.087 234.762 188.087 234.447 187.877 234.131C187.561 233.605 187.14 233.395 186.615 233.395C185.983 233.395 185.563 233.605 185.247 234.131C185.037 234.447 185.037 234.762 185.037 235.078C185.037 236.866 185.037 238.759 185.037 240.547C185.037 240.653 185.037 240.653 184.932 240.653C184.195 240.653 183.564 240.653 182.828 240.653C182.723 240.653 182.723 240.653 182.723 240.547C182.723 237.497 182.723 234.447 182.723 231.397C182.723 231.292 182.723 231.292 182.828 231.292C183.459 231.292 184.195 231.292 184.827 231.292C184.932 231.292 184.932 231.292 184.932 231.397C184.616 231.817 184.616 232.133 184.616 232.343Z" fill="black"/>
<path d="M207.651 214.147C207.861 213.937 207.966 213.832 208.071 213.621C208.808 212.885 209.649 212.359 210.596 212.149C211.016 212.044 211.437 211.938 211.858 211.938C211.963 211.938 211.963 211.938 211.963 212.044C211.963 213.095 211.963 214.042 211.963 215.094C211.963 215.199 211.963 215.199 211.858 215.199C211.437 215.199 211.122 215.094 210.701 215.199C210.175 215.199 209.649 215.409 209.228 215.725C209.123 215.83 208.913 215.935 208.808 216.04C208.177 216.566 207.861 217.303 207.756 218.144C207.756 218.565 207.651 218.986 207.651 219.406C207.651 221.405 207.651 223.298 207.651 225.296C207.651 225.402 207.651 225.402 207.44 225.402C206.494 225.402 205.547 225.402 204.495 225.402C204.39 225.402 204.39 225.402 204.39 225.296C204.39 221.089 204.39 216.882 204.39 212.675C204.39 212.57 204.39 212.57 204.495 212.57C205.442 212.57 206.389 212.57 207.23 212.57C207.335 212.57 207.44 212.57 207.44 212.78C207.651 213.201 207.651 213.727 207.651 214.147Z" fill="#EF3829"/>
<path d="M186.194 217.093C186.194 214.358 186.194 211.623 186.194 208.889C186.194 208.783 186.194 208.678 186.404 208.678C187.351 208.678 188.298 208.678 189.349 208.678C189.455 208.678 189.56 208.678 189.56 208.783C189.56 214.253 189.56 219.827 189.56 225.297C189.56 225.402 189.56 225.507 189.455 225.507C188.508 225.507 187.456 225.507 186.51 225.507C186.404 225.507 186.404 225.507 186.404 225.297C186.194 222.562 186.194 219.827 186.194 217.093Z" fill="#EF3829"/>
<path d="M233.946 240.022C233.735 240.232 233.525 240.442 233.209 240.548C232.789 240.863 232.368 240.968 231.842 240.968C231.316 240.968 230.79 240.968 230.264 240.758C229.213 240.442 228.687 239.706 228.476 238.654C228.371 238.234 228.371 237.708 228.581 237.287C228.792 236.551 229.213 236.025 229.949 235.709C230.58 235.394 231.106 235.394 231.842 235.394C232.473 235.394 233.209 235.394 233.84 235.394C233.946 235.394 233.946 235.394 233.946 235.289C233.946 235.078 233.946 234.763 233.946 234.552C233.84 234.027 233.525 233.606 232.999 233.501C232.473 233.395 231.947 233.395 231.527 233.501C231.106 233.606 230.79 233.816 230.58 234.132C230.475 234.237 230.475 234.237 230.37 234.132C229.949 233.711 229.528 233.29 229.002 232.87C228.897 232.764 228.897 232.764 229.002 232.659C229.633 232.028 230.37 231.607 231.316 231.502C232.158 231.397 232.999 231.397 233.84 231.607C234.682 231.818 235.418 232.238 235.839 232.975C236.154 233.501 236.26 234.027 236.26 234.658C236.26 236.656 236.26 238.654 236.26 240.758C236.26 240.863 236.26 240.968 236.049 240.968C235.418 240.968 234.787 240.968 234.051 240.968C233.946 240.968 233.946 240.968 233.946 240.863C233.946 240.548 233.946 240.337 233.946 240.022ZM233.84 237.392C233.84 237.287 233.84 237.182 233.84 237.077C233.84 236.972 233.84 236.972 233.735 236.972C233.209 236.972 232.578 236.972 232.052 236.972C231.842 236.972 231.737 236.972 231.527 237.077C231.001 237.182 230.79 237.497 230.685 238.023C230.685 238.549 230.895 238.865 231.421 239.075C231.947 239.286 232.473 239.18 232.999 239.075C233.525 238.97 233.84 238.549 233.84 238.023C233.84 237.708 233.84 237.497 233.84 237.392Z" fill="black"/>
<path d="M203.128 240.022C202.181 240.969 201.024 241.179 199.762 240.863C198.605 240.548 197.974 239.812 197.764 238.655C197.658 238.339 197.658 237.918 197.658 237.603C197.658 235.604 197.658 233.711 197.658 231.713C197.658 231.608 197.658 231.502 197.869 231.502C198.5 231.502 199.236 231.502 199.867 231.502C199.972 231.502 199.972 231.502 199.972 231.608C199.972 233.501 199.972 235.289 199.972 237.182C199.972 237.708 200.078 238.129 200.393 238.444C200.709 238.76 201.129 238.865 201.55 238.865C202.076 238.865 202.497 238.655 202.812 238.234C203.023 238.024 203.023 237.708 203.128 237.393C203.128 237.077 203.128 236.867 203.128 236.551C203.128 234.973 203.128 233.291 203.128 231.713C203.128 231.608 203.128 231.608 203.233 231.608C203.864 231.608 204.6 231.608 205.231 231.608C205.337 231.608 205.337 231.608 205.337 231.713C205.337 234.763 205.337 237.813 205.337 240.758C205.337 240.863 205.337 240.863 205.231 240.863C204.6 240.863 203.864 240.863 203.233 240.863C203.128 240.863 203.128 240.863 203.128 240.758C203.128 240.443 203.128 240.232 203.128 240.022Z" fill="black"/>
<path d="M210.596 240.969C209.544 240.969 208.702 240.863 207.966 240.548C207.545 240.338 207.125 240.022 206.809 239.706C206.704 239.601 206.704 239.601 206.809 239.601C207.23 239.181 207.756 238.655 208.176 238.234C208.176 238.234 208.282 238.129 208.282 238.234C208.808 238.655 209.333 238.97 209.965 238.97C210.49 239.075 211.121 239.075 211.647 238.865C211.858 238.76 212.068 238.655 212.278 238.444C212.594 237.918 212.384 237.287 211.753 237.182C211.332 237.077 210.911 237.077 210.49 237.077C209.965 236.972 209.439 236.972 208.913 236.867C207.756 236.551 207.125 235.71 207.125 234.553C207.125 233.185 207.861 232.134 209.228 231.713C209.859 231.502 210.49 231.502 211.121 231.502C211.858 231.502 212.594 231.608 213.33 231.923C213.646 232.028 213.961 232.239 214.277 232.554C214.382 232.554 214.382 232.659 214.277 232.659C213.856 233.08 213.435 233.501 213.015 233.922C213.015 234.027 212.91 234.027 212.91 233.922C212.489 233.606 211.963 233.396 211.437 233.396C211.016 233.396 210.701 233.291 210.28 233.396C210.07 233.396 209.965 233.501 209.859 233.606C209.544 233.816 209.439 234.132 209.544 234.447C209.649 234.763 209.965 234.973 210.28 234.973C210.806 235.079 211.332 235.079 211.963 235.184C212.489 235.184 212.91 235.289 213.435 235.499C214.277 235.92 214.698 236.551 214.803 237.393C214.908 237.918 214.803 238.444 214.698 238.97C214.382 239.812 213.751 240.338 212.91 240.653C211.963 240.863 211.227 240.969 210.596 240.969Z" fill="black"/>
<path d="M220.377 236.235C220.377 235.289 220.483 234.447 220.903 233.606C221.429 232.449 222.376 231.713 223.743 231.502C224.585 231.397 225.426 231.397 226.162 231.607C226.793 231.818 227.214 232.133 227.635 232.554C227.74 232.659 227.635 232.659 227.635 232.659C227.109 233.185 226.688 233.606 226.162 234.132C226.057 234.237 226.057 234.132 226.057 234.132C225.742 233.816 225.531 233.606 225.111 233.501C224.059 233.29 223.217 233.816 222.902 234.868C222.691 235.709 222.691 236.551 222.902 237.392C223.112 238.129 223.533 238.549 224.164 238.76C224.795 238.865 225.426 238.76 225.952 238.234C226.162 238.023 226.162 238.023 226.268 238.234C226.688 238.654 227.109 239.075 227.53 239.496C227.635 239.601 227.635 239.601 227.53 239.706C226.688 240.548 225.636 240.863 224.479 240.863C223.638 240.863 222.902 240.653 222.271 240.232C221.429 239.706 220.903 238.865 220.588 237.918C220.483 237.392 220.377 236.761 220.377 236.235Z" fill="black"/>
<path d="M226.373 212.465C226.268 212.465 226.268 212.465 226.373 212.465C225.637 211.728 225.005 211.097 224.374 210.466C224.269 210.361 224.374 210.361 224.374 210.256C225.531 209.099 226.688 207.942 227.845 206.785C229.213 205.418 230.58 204.05 231.947 202.683C232.053 202.578 232.053 202.578 232.158 202.683C232.789 203.314 233.42 203.945 233.946 204.576C234.051 204.681 234.051 204.681 233.946 204.786C231.527 207.311 229.002 209.835 226.373 212.465C226.373 212.359 226.373 212.465 226.373 212.465Z" fill="#EF3829"/>
<path d="M232.052 218.565C230.685 218.565 229.318 218.565 227.95 218.565C227.845 218.565 227.74 218.565 227.74 218.354C227.74 217.513 227.74 216.671 227.74 215.725C227.74 215.62 227.74 215.62 227.845 215.62C230.58 215.62 233.315 215.62 236.049 215.62C236.154 215.62 236.154 215.62 236.154 215.725C236.154 216.566 236.154 217.408 236.154 218.354C236.154 218.459 236.154 218.459 236.049 218.459C234.787 218.565 233.42 218.565 232.052 218.565Z" fill="#EF3829"/>
<path d="M217.958 205.207C217.958 203.84 217.958 202.578 217.958 201.21C217.958 201 218.063 201 218.169 201C219.01 201 219.851 201 220.798 201C220.903 201 220.903 201 220.903 201.105C220.903 203.84 220.903 206.469 220.903 209.204C220.903 209.309 220.903 209.309 220.798 209.309C219.957 209.309 219.115 209.309 218.169 209.309C218.063 209.309 218.063 209.309 218.063 209.204C217.958 207.837 217.958 206.469 217.958 205.207Z" fill="#EF3829"/>
<path d="M216.275 236.13C216.275 234.658 216.275 233.08 216.275 231.608C216.275 231.502 216.275 231.502 216.381 231.502C217.117 231.502 217.748 231.502 218.484 231.502C218.589 231.502 218.589 231.502 218.589 231.608C218.589 234.658 218.589 237.708 218.589 240.653C218.589 240.758 218.589 240.758 218.484 240.758C217.748 240.758 217.117 240.758 216.381 240.758C216.275 240.758 216.275 240.758 216.275 240.653C216.275 239.181 216.275 237.708 216.275 236.13Z" fill="black"/>
<path d="M217.432 230.345C216.591 230.345 215.96 229.714 215.96 228.873C215.96 228.031 216.591 227.4 217.432 227.4C218.274 227.4 218.905 228.031 218.905 228.873C218.905 229.714 218.274 230.345 217.432 230.345Z" fill="black"/>
<path d="M200.498 230.03C200.603 229.714 200.709 229.399 200.919 228.978C201.129 228.347 201.445 227.716 201.655 227.085C201.655 226.979 201.655 226.979 201.76 226.979C202.497 226.979 203.338 226.979 204.074 226.979C204.074 226.979 204.074 227.085 203.969 227.085C203.338 228.031 202.707 228.978 202.076 229.925C202.076 230.03 201.971 230.03 201.866 230.03C201.445 230.03 200.919 230.03 200.498 230.03Z" fill="black"/>
<path d="M80.4141 268.016C80.4141 267.573 80.2578 267.234 79.9453 267C79.6328 266.76 79.0703 266.51 78.2578 266.25C77.4453 265.984 76.8021 265.724 76.3281 265.469C75.0365 264.771 74.3906 263.831 74.3906 262.648C74.3906 262.034 74.5625 261.487 74.9062 261.008C75.2552 260.523 75.7526 260.146 76.3984 259.875C77.0495 259.604 77.7786 259.469 78.5859 259.469C79.3984 259.469 80.1224 259.617 80.7578 259.914C81.3932 260.206 81.8854 260.62 82.2344 261.156C82.5885 261.693 82.7656 262.302 82.7656 262.984H80.4219C80.4219 262.464 80.2578 262.06 79.9297 261.773C79.6016 261.482 79.1406 261.336 78.5469 261.336C77.974 261.336 77.5286 261.458 77.2109 261.703C76.8932 261.943 76.7344 262.26 76.7344 262.656C76.7344 263.026 76.9193 263.336 77.2891 263.586C77.6641 263.836 78.2135 264.07 78.9375 264.289C80.2708 264.69 81.2422 265.188 81.8516 265.781C82.4609 266.375 82.7656 267.115 82.7656 268C82.7656 268.984 82.3932 269.758 81.6484 270.32C80.9036 270.878 79.901 271.156 78.6406 271.156C77.7656 271.156 76.9688 270.997 76.25 270.68C75.5312 270.357 74.9818 269.917 74.6016 269.359C74.2266 268.802 74.0391 268.156 74.0391 267.422H76.3906C76.3906 268.677 77.1406 269.305 78.6406 269.305C79.1979 269.305 79.6328 269.193 79.9453 268.969C80.2578 268.74 80.4141 268.422 80.4141 268.016ZM92.9688 259.625V267.117C92.9688 268.362 92.5781 269.346 91.7969 270.07C91.0208 270.794 89.9583 271.156 88.6094 271.156C87.2812 271.156 86.2266 270.805 85.4453 270.102C84.6641 269.398 84.2656 268.432 84.25 267.203V259.625H86.5938V267.133C86.5938 267.878 86.7708 268.422 87.125 268.766C87.4844 269.104 87.9792 269.273 88.6094 269.273C89.9271 269.273 90.5964 268.581 90.6172 267.195V259.625H92.9688ZM100.789 268.016C100.789 267.573 100.633 267.234 100.32 267C100.008 266.76 99.4453 266.51 98.6328 266.25C97.8203 265.984 97.1771 265.724 96.7031 265.469C95.4115 264.771 94.7656 263.831 94.7656 262.648C94.7656 262.034 94.9375 261.487 95.2812 261.008C95.6302 260.523 96.1276 260.146 96.7734 259.875C97.4245 259.604 98.1536 259.469 98.9609 259.469C99.7734 259.469 100.497 259.617 101.133 259.914C101.768 260.206 102.26 260.62 102.609 261.156C102.964 261.693 103.141 262.302 103.141 262.984H100.797C100.797 262.464 100.633 262.06 100.305 261.773C99.9766 261.482 99.5156 261.336 98.9219 261.336C98.349 261.336 97.9036 261.458 97.5859 261.703C97.2682 261.943 97.1094 262.26 97.1094 262.656C97.1094 263.026 97.2943 263.336 97.6641 263.586C98.0391 263.836 98.5885 264.07 99.3125 264.289C100.646 264.69 101.617 265.188 102.227 265.781C102.836 266.375 103.141 267.115 103.141 268C103.141 268.984 102.768 269.758 102.023 270.32C101.279 270.878 100.276 271.156 99.0156 271.156C98.1406 271.156 97.3438 270.997 96.625 270.68C95.9062 270.357 95.3568 269.917 94.9766 269.359C94.6016 268.802 94.4141 268.156 94.4141 267.422H96.7656C96.7656 268.677 97.5156 269.305 99.0156 269.305C99.5729 269.305 100.008 269.193 100.32 268.969C100.633 268.74 100.789 268.422 100.789 268.016ZM113.664 267.211C113.576 268.435 113.122 269.398 112.305 270.102C111.492 270.805 110.419 271.156 109.086 271.156C107.628 271.156 106.479 270.667 105.641 269.688C104.807 268.703 104.391 267.354 104.391 265.641V264.945C104.391 263.852 104.583 262.888 104.969 262.055C105.354 261.221 105.904 260.583 106.617 260.141C107.336 259.693 108.169 259.469 109.117 259.469C110.43 259.469 111.487 259.82 112.289 260.523C113.091 261.227 113.555 262.214 113.68 263.484H111.336C111.279 262.75 111.073 262.219 110.719 261.891C110.37 261.557 109.836 261.391 109.117 261.391C108.336 261.391 107.75 261.672 107.359 262.234C106.974 262.792 106.776 263.659 106.766 264.836V265.695C106.766 266.924 106.951 267.823 107.32 268.391C107.695 268.958 108.284 269.242 109.086 269.242C109.81 269.242 110.349 269.078 110.703 268.75C111.062 268.417 111.268 267.904 111.32 267.211H113.664ZM119.414 266.836H117.547V271H115.203V259.625H119.43C120.773 259.625 121.81 259.924 122.539 260.523C123.268 261.122 123.633 261.969 123.633 263.062C123.633 263.839 123.464 264.487 123.125 265.008C122.792 265.523 122.284 265.935 121.602 266.242L124.062 270.891V271H121.547L119.414 266.836ZM117.547 264.938H119.438C120.026 264.938 120.482 264.789 120.805 264.492C121.128 264.19 121.289 263.776 121.289 263.25C121.289 262.714 121.135 262.292 120.828 261.984C120.526 261.677 120.06 261.523 119.43 261.523H117.547V264.938ZM127.914 271H125.57V259.625H127.914V271ZM132.438 266.992V271H130.094V259.625H134.531C135.385 259.625 136.135 259.781 136.781 260.094C137.432 260.406 137.932 260.852 138.281 261.43C138.63 262.003 138.805 262.656 138.805 263.391C138.805 264.505 138.422 265.385 137.656 266.031C136.896 266.672 135.841 266.992 134.492 266.992H132.438ZM132.438 265.094H134.531C135.151 265.094 135.622 264.948 135.945 264.656C136.273 264.365 136.438 263.948 136.438 263.406C136.438 262.849 136.273 262.398 135.945 262.055C135.617 261.711 135.164 261.534 134.586 261.523H132.438V265.094ZM149.352 267.211C149.263 268.435 148.81 269.398 147.992 270.102C147.18 270.805 146.107 271.156 144.773 271.156C143.315 271.156 142.167 270.667 141.328 269.688C140.495 268.703 140.078 267.354 140.078 265.641V264.945C140.078 263.852 140.271 262.888 140.656 262.055C141.042 261.221 141.591 260.583 142.305 260.141C143.023 259.693 143.857 259.469 144.805 259.469C146.117 259.469 147.174 259.82 147.977 260.523C148.779 261.227 149.242 262.214 149.367 263.484H147.023C146.966 262.75 146.76 262.219 146.406 261.891C146.057 261.557 145.523 261.391 144.805 261.391C144.023 261.391 143.438 261.672 143.047 262.234C142.661 262.792 142.464 263.659 142.453 264.836V265.695C142.453 266.924 142.638 267.823 143.008 268.391C143.383 268.958 143.971 269.242 144.773 269.242C145.497 269.242 146.036 269.078 146.391 268.75C146.75 268.417 146.956 267.904 147.008 267.211H149.352ZM153.383 271H151.039V259.625H153.383V271ZM164.906 265.57C164.906 266.69 164.708 267.672 164.312 268.516C163.917 269.359 163.349 270.01 162.609 270.469C161.875 270.927 161.031 271.156 160.078 271.156C159.135 271.156 158.294 270.93 157.555 270.477C156.815 270.023 156.242 269.378 155.836 268.539C155.43 267.695 155.224 266.727 155.219 265.633V265.07C155.219 263.951 155.419 262.966 155.82 262.117C156.227 261.263 156.797 260.609 157.531 260.156C158.271 259.698 159.115 259.469 160.062 259.469C161.01 259.469 161.852 259.698 162.586 260.156C163.326 260.609 163.896 261.263 164.297 262.117C164.703 262.966 164.906 263.948 164.906 265.062V265.57ZM162.531 265.055C162.531 263.862 162.318 262.956 161.891 262.336C161.464 261.716 160.854 261.406 160.062 261.406C159.276 261.406 158.669 261.714 158.242 262.328C157.815 262.938 157.599 263.833 157.594 265.016V265.57C157.594 266.732 157.807 267.633 158.234 268.273C158.661 268.914 159.276 269.234 160.078 269.234C160.865 269.234 161.469 268.927 161.891 268.312C162.312 267.693 162.526 266.792 162.531 265.609V265.055ZM160.516 256.578H162.977L160.812 259H158.977L160.516 256.578ZM175.859 271H173.516L168.953 263.516V271H166.609V259.625H168.953L173.523 267.125V259.625H175.859V271ZM186.109 264.898H189.281V266.266H186.109V269.859H184.656V266.266H181.484V264.898H184.656V261.578H186.109V264.898ZM195.531 265.297L196.109 259.625H201.938V260.961H197.336L196.992 264.062C197.549 263.734 198.182 263.57 198.891 263.57C199.927 263.57 200.75 263.914 201.359 264.602C201.969 265.284 202.273 266.208 202.273 267.375C202.273 268.547 201.956 269.471 201.32 270.148C200.69 270.82 199.807 271.156 198.672 271.156C197.667 271.156 196.846 270.878 196.211 270.32C195.576 269.763 195.214 268.992 195.125 268.008H196.492C196.581 268.659 196.812 269.151 197.188 269.484C197.562 269.812 198.057 269.977 198.672 269.977C199.344 269.977 199.87 269.747 200.25 269.289C200.635 268.831 200.828 268.198 200.828 267.391C200.828 266.63 200.62 266.021 200.203 265.562C199.792 265.099 199.242 264.867 198.555 264.867C197.924 264.867 197.43 265.005 197.07 265.281L196.688 265.594L195.531 265.297ZM216.594 269.508C216.208 270.06 215.669 270.474 214.977 270.75C214.289 271.021 213.487 271.156 212.57 271.156C211.643 271.156 210.82 270.94 210.102 270.508C209.383 270.07 208.826 269.451 208.43 268.648C208.039 267.846 207.839 266.917 207.828 265.859V264.867C207.828 263.154 208.227 261.826 209.023 260.883C209.826 259.94 210.951 259.469 212.398 259.469C213.586 259.469 214.542 259.773 215.266 260.383C215.99 260.987 216.432 261.846 216.594 262.961H215.094C214.812 261.456 213.917 260.703 212.406 260.703C211.401 260.703 210.638 261.057 210.117 261.766C209.602 262.469 209.341 263.49 209.336 264.828V265.758C209.336 267.034 209.628 268.049 210.211 268.805C210.794 269.555 211.583 269.93 212.578 269.93C213.141 269.93 213.633 269.867 214.055 269.742C214.477 269.617 214.826 269.406 215.102 269.109V266.555H212.469V265.336H216.594V269.508ZM219.102 271V259.625H222.82C224.055 259.625 224.982 259.88 225.602 260.391C226.227 260.901 226.539 261.656 226.539 262.656C226.539 263.188 226.388 263.659 226.086 264.07C225.784 264.477 225.372 264.792 224.852 265.016C225.466 265.188 225.951 265.516 226.305 266C226.664 266.479 226.844 267.052 226.844 267.719C226.844 268.74 226.513 269.542 225.852 270.125C225.19 270.708 224.255 271 223.047 271H219.102ZM220.602 265.68V269.773H223.078C223.776 269.773 224.326 269.594 224.727 269.234C225.133 268.87 225.336 268.37 225.336 267.734C225.336 266.365 224.591 265.68 223.102 265.68H220.602ZM220.602 264.477H222.867C223.523 264.477 224.047 264.312 224.438 263.984C224.833 263.656 225.031 263.211 225.031 262.648C225.031 262.023 224.849 261.57 224.484 261.289C224.12 261.003 223.565 260.859 222.82 260.859H220.602V264.477Z" fill="#222222"/>
<path d="M76.3203 286.547V291H74.8203V279.625H79.0156C80.2604 279.625 81.2344 279.943 81.9375 280.578C82.6458 281.214 83 282.055 83 283.102C83 284.206 82.6536 285.057 81.9609 285.656C81.2734 286.25 80.2865 286.547 79 286.547H76.3203ZM76.3203 285.32H79.0156C79.8177 285.32 80.4323 285.133 80.8594 284.758C81.2865 284.378 81.5 283.831 81.5 283.117C81.5 282.44 81.2865 281.898 80.8594 281.492C80.4323 281.086 79.8464 280.875 79.1016 280.859H76.3203V285.32ZM90.1172 288.031H85.3516L84.2812 291H82.7344L87.0781 279.625H88.3906L92.7422 291H91.2031L90.1172 288.031ZM85.8047 286.797H89.6719L87.7344 281.477L85.8047 286.797ZM98.4453 286.398H95.7734V291H94.2656V279.625H98.0312C99.3125 279.625 100.297 279.917 100.984 280.5C101.677 281.083 102.023 281.932 102.023 283.047C102.023 283.755 101.831 284.372 101.445 284.898C101.065 285.424 100.534 285.818 99.8516 286.078L102.523 290.906V291H100.914L98.4453 286.398ZM95.7734 285.172H98.0781C98.8229 285.172 99.4141 284.979 99.8516 284.594C100.294 284.208 100.516 283.693 100.516 283.047C100.516 282.344 100.305 281.805 99.8828 281.43C99.4661 281.055 98.862 280.865 98.0703 280.859H95.7734V285.172ZM110.414 288.031H105.648L104.578 291H103.031L107.375 279.625H108.688L113.039 291H111.5L110.414 288.031ZM106.102 286.797H109.969L108.031 281.477L106.102 286.797ZM126.906 287.391C126.766 288.594 126.32 289.523 125.57 290.18C124.826 290.831 123.833 291.156 122.594 291.156C121.25 291.156 120.172 290.674 119.359 289.711C118.552 288.747 118.148 287.458 118.148 285.844V284.75C118.148 283.693 118.336 282.763 118.711 281.961C119.091 281.159 119.628 280.544 120.32 280.117C121.013 279.685 121.815 279.469 122.727 279.469C123.935 279.469 124.904 279.807 125.633 280.484C126.362 281.156 126.786 282.089 126.906 283.281H125.398C125.268 282.375 124.984 281.719 124.547 281.312C124.115 280.906 123.508 280.703 122.727 280.703C121.768 280.703 121.016 281.057 120.469 281.766C119.927 282.474 119.656 283.482 119.656 284.789V285.891C119.656 287.125 119.914 288.107 120.43 288.836C120.945 289.565 121.667 289.93 122.594 289.93C123.427 289.93 124.065 289.742 124.508 289.367C124.956 288.987 125.253 288.328 125.398 287.391H126.906ZM130.469 289.773H135.859V291H128.961V279.625H130.469V289.773ZM144.008 288.031H139.242L138.172 291H136.625L140.969 279.625H142.281L146.633 291H145.094L144.008 288.031ZM139.695 286.797H143.562L141.625 281.477L139.695 286.797ZM152.336 286.398H149.664V291H148.156V279.625H151.922C153.203 279.625 154.188 279.917 154.875 280.5C155.568 281.083 155.914 281.932 155.914 283.047C155.914 283.755 155.721 284.372 155.336 284.898C154.956 285.424 154.424 285.818 153.742 286.078L156.414 290.906V291H154.805L152.336 286.398ZM149.664 285.172H151.969C152.714 285.172 153.305 284.979 153.742 284.594C154.185 284.208 154.406 283.693 154.406 283.047C154.406 282.344 154.195 281.805 153.773 281.43C153.357 281.055 152.753 280.865 151.961 280.859H149.664V285.172ZM166.773 285.68C166.773 286.794 166.586 287.768 166.211 288.602C165.836 289.43 165.305 290.062 164.617 290.5C163.93 290.938 163.128 291.156 162.211 291.156C161.315 291.156 160.521 290.938 159.828 290.5C159.135 290.057 158.596 289.43 158.211 288.617C157.831 287.799 157.635 286.854 157.625 285.781V284.961C157.625 283.867 157.815 282.901 158.195 282.062C158.576 281.224 159.112 280.583 159.805 280.141C160.503 279.693 161.299 279.469 162.195 279.469C163.107 279.469 163.909 279.69 164.602 280.133C165.299 280.57 165.836 281.208 166.211 282.047C166.586 282.88 166.773 283.852 166.773 284.961V285.68ZM165.281 284.945C165.281 283.596 165.01 282.562 164.469 281.844C163.927 281.12 163.169 280.758 162.195 280.758C161.247 280.758 160.5 281.12 159.953 281.844C159.411 282.562 159.133 283.562 159.117 284.844V285.68C159.117 286.987 159.391 288.016 159.938 288.766C160.49 289.51 161.247 289.883 162.211 289.883C163.18 289.883 163.93 289.531 164.461 288.828C164.992 288.12 165.266 287.107 165.281 285.789V284.945ZM176.758 289.008L180.008 279.625H181.648L177.43 291H176.102L171.891 279.625H173.523L176.758 289.008ZM184.789 291H183.289V279.625H184.789V291ZM187.539 291V279.625H190.75C191.74 279.625 192.615 279.844 193.375 280.281C194.135 280.719 194.721 281.341 195.133 282.148C195.549 282.956 195.76 283.883 195.766 284.93V285.656C195.766 286.729 195.557 287.669 195.141 288.477C194.729 289.284 194.138 289.904 193.367 290.336C192.602 290.768 191.708 290.99 190.688 291H187.539ZM189.039 280.859V289.773H190.617C191.773 289.773 192.672 289.414 193.312 288.695C193.958 287.977 194.281 286.953 194.281 285.625V284.961C194.281 283.669 193.977 282.667 193.367 281.953C192.763 281.234 191.904 280.87 190.789 280.859H189.039ZM204.469 285.742H199.539V289.773H205.266V291H198.039V279.625H205.188V280.859H199.539V284.516H204.469V285.742ZM215.883 285.68C215.883 286.794 215.695 287.768 215.32 288.602C214.945 289.43 214.414 290.062 213.727 290.5C213.039 290.938 212.237 291.156 211.32 291.156C210.424 291.156 209.63 290.938 208.938 290.5C208.245 290.057 207.706 289.43 207.32 288.617C206.94 287.799 206.745 286.854 206.734 285.781V284.961C206.734 283.867 206.924 282.901 207.305 282.062C207.685 281.224 208.221 280.583 208.914 280.141C209.612 279.693 210.409 279.469 211.305 279.469C212.216 279.469 213.018 279.69 213.711 280.133C214.409 280.57 214.945 281.208 215.32 282.047C215.695 282.88 215.883 283.852 215.883 284.961V285.68ZM214.391 284.945C214.391 283.596 214.12 282.562 213.578 281.844C213.036 281.12 212.279 280.758 211.305 280.758C210.357 280.758 209.609 281.12 209.062 281.844C208.521 282.562 208.242 283.562 208.227 284.844V285.68C208.227 286.987 208.5 288.016 209.047 288.766C209.599 289.51 210.357 289.883 211.32 289.883C212.289 289.883 213.039 289.531 213.57 288.828C214.102 288.12 214.375 287.107 214.391 285.789V284.945Z" fill="#222222"/>
<defs>
<filter id="filter0_d" x="141.75" y="118.656" width="17.9375" height="18.5625" filterUnits="userSpaceOnUse" color-interpolation-filters="sRGB">
<feFlood flood-opacity="0" result="BackgroundImageFix"/>
<feColorMatrix in="SourceAlpha" type="matrix" values="0 0 0 0 0 0 0 0 0 0 0 0 0 0 0 0 0 0 127 0"/>
<feOffset dx="2" dy="2"/>
<feColorMatrix type="matrix" values="0 0 0 0 0 0 0 0 0 0 0 0 0 0 0 0 0 0 0.15 0"/>
<feBlend mode="normal" in2="BackgroundImageFix" result="effect1_dropShadow"/>
<feBlend mode="normal" in="SourceGraphic" in2="effect1_dropShadow" result="shape"/>
</filter>
<filter id="filter1_d" x="143.964" y="211.042" width="17.9375" height="18.5625" filterUnits="userSpaceOnUse" color-interpolation-filters="sRGB">
<feFlood flood-opacity="0" result="BackgroundImageFix"/>
<feColorMatrix in="SourceAlpha" type="matrix" values="0 0 0 0 0 0 0 0 0 0 0 0 0 0 0 0 0 0 127 0"/>
<feOffset dx="2" dy="2"/>
<feColorMatrix type="matrix" values="0 0 0 0 0 0 0 0 0 0 0 0 0 0 0 0 0 0 0.15 0"/>
<feBlend mode="normal" in2="BackgroundImageFix" result="effect1_dropShadow"/>
<feBlend mode="normal" in="SourceGraphic" in2="effect1_dropShadow" result="shape"/>
</filter>
<clipPath id="clip0">
<rect width="69.4737" height="40" fill="white" transform="translate(65.7402 201)"/>
</clipPath>
</defs>
</svg>
