<svg width="302" height="317" viewBox="0 0 302 317" fill="none" xmlns="http://www.w3.org/2000/svg">
<path d="M302 0H0V317H302V0Z" fill="#F5F5F5"/>
<path d="M32.0322 58.127H28.833V67H27.5273V58.127H24.335V57.0469H32.0322V58.127ZM41.5336 62.3447C41.5336 63.32 41.3696 64.1722 41.0414 64.9014C40.7133 65.626 40.2485 66.1797 39.6469 66.5625C39.0454 66.9453 38.3435 67.1367 37.5414 67.1367C36.7576 67.1367 36.0626 66.9453 35.4565 66.5625C34.8504 66.1751 34.3787 65.626 34.0414 64.915C33.7088 64.1995 33.5379 63.3724 33.5288 62.4336V61.7158C33.5288 60.7588 33.6951 59.9134 34.0278 59.1797C34.3605 58.446 34.8299 57.8854 35.436 57.498C36.0467 57.1061 36.7439 56.9102 37.5278 56.9102C38.3253 56.9102 39.0271 57.1038 39.6332 57.4912C40.2439 57.874 40.7133 58.4323 41.0414 59.166C41.3696 59.8952 41.5336 60.7451 41.5336 61.7158V62.3447ZM40.228 61.7021C40.228 60.5218 39.991 59.6172 39.517 58.9883C39.0431 58.3548 38.38 58.0381 37.5278 58.0381C36.6983 58.0381 36.0444 58.3548 35.5659 58.9883C35.0919 59.6172 34.8481 60.4922 34.8344 61.6133V62.3447C34.8344 63.4886 35.0737 64.3887 35.5522 65.0449C36.0353 65.6966 36.6983 66.0225 37.5414 66.0225C38.3891 66.0225 39.0454 65.7148 39.5102 65.0996C39.975 64.4798 40.2143 63.5934 40.228 62.4404V61.7021ZM44.0624 67V57.0469H46.872C47.7378 57.0469 48.5035 57.2383 49.1688 57.6211C49.8342 58.0039 50.3469 58.5485 50.7069 59.2549C51.0715 59.9613 51.2561 60.7725 51.2606 61.6885V62.3242C51.2606 63.263 51.0783 64.0856 50.7138 64.792C50.3537 65.4984 49.8365 66.0407 49.162 66.4189C48.4921 66.7972 47.7105 66.9909 46.8173 67H44.0624ZM45.3749 58.127V65.9268H46.7557C47.7675 65.9268 48.5536 65.6123 49.1141 64.9834C49.6792 64.3545 49.9618 63.459 49.9618 62.2969V61.7158C49.9618 60.5856 49.6952 59.7083 49.162 59.084C48.6333 58.4551 47.8814 58.1361 46.9061 58.127H45.3749ZM59.1556 64.4023H54.9857L54.0491 67H52.6956L56.4964 57.0469H57.6448L61.4525 67H60.1058L59.1556 64.4023ZM55.3821 63.3223H58.7659L57.0706 58.667L55.3821 63.3223ZM66.2849 62.5635C65.1593 62.2399 64.339 61.8434 63.824 61.374C63.3136 60.9001 63.0584 60.3167 63.0584 59.624C63.0584 58.8402 63.3705 58.193 63.9949 57.6826C64.6238 57.1676 65.4395 56.9102 66.4422 56.9102C67.1257 56.9102 67.7341 57.0423 68.2673 57.3066C68.8051 57.571 69.2198 57.9355 69.5115 58.4004C69.8077 58.8652 69.9558 59.3734 69.9558 59.9248H68.6365C68.6365 59.3232 68.4451 58.8516 68.0623 58.5098C67.6795 58.1634 67.1394 57.9902 66.4422 57.9902C65.795 57.9902 65.2892 58.1338 64.9246 58.4209C64.5645 58.7035 64.3845 59.0977 64.3845 59.6035C64.3845 60.0091 64.5554 60.3532 64.8972 60.6357C65.2436 60.9137 65.8292 61.1689 66.6541 61.4014C67.4835 61.6338 68.1306 61.8913 68.5955 62.1738C69.0649 62.4518 69.4112 62.7777 69.6345 63.1514C69.8624 63.5251 69.9763 63.9648 69.9763 64.4707C69.9763 65.2773 69.6619 65.9245 69.033 66.4121C68.4041 66.8952 67.5632 67.1367 66.5105 67.1367C65.8269 67.1367 65.1889 67.0068 64.5964 66.7471C64.004 66.4827 63.546 66.1227 63.2224 65.667C62.9034 65.2113 62.7439 64.694 62.7439 64.1152H64.0632C64.0632 64.7168 64.2843 65.193 64.7263 65.5439C65.1729 65.8903 65.7677 66.0635 66.5105 66.0635C67.2032 66.0635 67.7341 65.9222 68.1033 65.6396C68.4724 65.3571 68.657 64.972 68.657 64.4844C68.657 63.9967 68.4861 63.6208 68.1443 63.3564C67.8025 63.0876 67.1827 62.8232 66.2849 62.5635ZM77.5768 65.9268H82.2936V67H76.2575V57.0469H77.5768V65.9268ZM89.9835 64.4023H85.8136L84.877 67H83.5235L87.3243 57.0469H88.4727L92.2803 67H90.9337L89.9835 64.4023ZM86.21 63.3223H89.5938L87.8985 58.667L86.21 63.3223ZM97.1128 62.5635C95.9872 62.2399 95.1669 61.8434 94.6519 61.374C94.1415 60.9001 93.8863 60.3167 93.8863 59.624C93.8863 58.8402 94.1984 58.193 94.8228 57.6826C95.4517 57.1676 96.2674 56.9102 97.27 56.9102C97.9536 56.9102 98.562 57.0423 99.0952 57.3066C99.633 57.571 100.048 57.9355 100.339 58.4004C100.636 58.8652 100.784 59.3734 100.784 59.9248H99.4644C99.4644 59.3232 99.273 58.8516 98.8902 58.5098C98.5073 58.1634 97.9673 57.9902 97.27 57.9902C96.6229 57.9902 96.117 58.1338 95.7525 58.4209C95.3924 58.7035 95.2124 59.0977 95.2124 59.6035C95.2124 60.0091 95.3833 60.3532 95.7251 60.6357C96.0715 60.9137 96.6571 61.1689 97.482 61.4014C98.3114 61.6338 98.9585 61.8913 99.4234 62.1738C99.8928 62.4518 100.239 62.7777 100.462 63.1514C100.69 63.5251 100.804 63.9648 100.804 64.4707C100.804 65.2773 100.49 65.9245 99.8609 66.4121C99.232 66.8952 98.3911 67.1367 97.3384 67.1367C96.6548 67.1367 96.0168 67.0068 95.4243 66.7471C94.8319 66.4827 94.3739 66.1227 94.0503 65.667C93.7313 65.2113 93.5718 64.694 93.5718 64.1152H94.8911C94.8911 64.7168 95.1122 65.193 95.5542 65.5439C96.0008 65.8903 96.5956 66.0635 97.3384 66.0635C98.0311 66.0635 98.562 65.9222 98.9312 65.6396C99.3003 65.3571 99.4849 64.972 99.4849 64.4844C99.4849 63.9967 99.314 63.6208 98.9722 63.3564C98.6304 63.0876 98.0106 62.8232 97.1128 62.5635ZM32.8115 76.3447C32.8115 77.32 32.6475 78.1722 32.3193 78.9014C31.9912 79.626 31.5264 80.1797 30.9248 80.5625C30.3232 80.9453 29.6214 81.1367 28.8193 81.1367C28.0355 81.1367 27.3405 80.9453 26.7344 80.5625C26.1283 80.1751 25.6566 79.626 25.3193 78.915C24.9867 78.1995 24.8158 77.3724 24.8066 76.4336V75.7158C24.8066 74.7588 24.973 73.9134 25.3057 73.1797C25.6383 72.446 26.1077 71.8854 26.7139 71.498C27.3245 71.1061 28.0218 70.9102 28.8057 70.9102C29.6032 70.9102 30.305 71.1038 30.9111 71.4912C31.5218 71.874 31.9912 72.4323 32.3193 73.166C32.6475 73.8952 32.8115 74.7451 32.8115 75.7158V76.3447ZM31.5059 75.7021C31.5059 74.5218 31.2689 73.6172 30.7949 72.9883C30.321 72.3548 29.6579 72.0381 28.8057 72.0381C27.9762 72.0381 27.3223 72.3548 26.8438 72.9883C26.3698 73.6172 26.126 74.4922 26.1123 75.6133V76.3447C26.1123 77.4886 26.3516 78.3887 26.8301 79.0449C27.3132 79.6966 27.9762 80.0225 28.8193 80.0225C29.667 80.0225 30.3232 79.7148 30.7881 79.0996C31.2529 78.4798 31.4922 77.5934 31.5059 76.4404V75.7021ZM36.6528 77.1035V81H35.3403V71.0469H39.0112C40.1004 71.0469 40.9526 71.3249 41.5678 71.8809C42.1876 72.4368 42.4975 73.1729 42.4975 74.0889C42.4975 75.055 42.1944 75.8001 41.5883 76.3242C40.9868 76.8438 40.1232 77.1035 38.9975 77.1035H36.6528ZM36.6528 76.0303H39.0112C39.713 76.0303 40.2508 75.8662 40.6245 75.5381C40.9982 75.2054 41.185 74.7269 41.185 74.1025C41.185 73.5101 40.9982 73.0361 40.6245 72.6807C40.2508 72.3252 39.7381 72.1406 39.0864 72.127H36.6528V76.0303ZM50.3583 76.3994H46.0448V79.9268H51.0555V81H44.7323V71.0469H50.9872V72.127H46.0448V75.3262H50.3583V76.3994ZM56.8997 76.9736H54.5618V81H53.2425V71.0469H56.5374C57.6585 71.0469 58.5198 71.3021 59.1214 71.8125C59.7275 72.3229 60.0306 73.0658 60.0306 74.041C60.0306 74.6608 59.862 75.2008 59.5247 75.6611C59.192 76.1214 58.7272 76.4655 58.1302 76.6934L60.4681 80.918V81H59.0599L56.8997 76.9736ZM54.5618 75.9004H56.5784C57.2301 75.9004 57.7474 75.7318 58.1302 75.3945C58.5176 75.0573 58.7113 74.6061 58.7113 74.041C58.7113 73.4258 58.5267 72.9541 58.1575 72.626C57.793 72.2979 57.2643 72.1315 56.5716 72.127H54.5618V75.9004ZM67.9324 78.4023H63.7625L62.8259 81H61.4724L65.2732 71.0469H66.4216L70.2293 81H68.8826L67.9324 78.4023ZM64.1589 77.3223H67.5427L65.8474 72.667L64.1589 77.3223ZM72.1291 81V71.0469H74.9387C75.8046 71.0469 76.5702 71.2383 77.2355 71.6211C77.9009 72.0039 78.4136 72.5485 78.7736 73.2549C79.1382 73.9613 79.3228 74.7725 79.3273 75.6885V76.3242C79.3273 77.263 79.1451 78.0856 78.7805 78.792C78.4204 79.4984 77.9032 80.0407 77.2287 80.4189C76.5588 80.7972 75.7772 80.9909 74.884 81H72.1291ZM73.4416 72.127V79.9268H74.8225C75.8342 79.9268 76.6203 79.6123 77.1809 78.9834C77.746 78.3545 78.0285 77.459 78.0285 76.2969V75.7158C78.0285 74.5856 77.7619 73.7083 77.2287 73.084C76.7001 72.4551 75.9481 72.1361 74.9729 72.127H73.4416ZM89.5329 76.3447C89.5329 77.32 89.3688 78.1722 89.0407 78.9014C88.7125 79.626 88.2477 80.1797 87.6461 80.5625C87.0446 80.9453 86.3427 81.1367 85.5407 81.1367C84.7568 81.1367 84.0618 80.9453 83.4557 80.5625C82.8496 80.1751 82.3779 79.626 82.0407 78.915C81.708 78.1995 81.5371 77.3724 81.528 76.4336V75.7158C81.528 74.7588 81.6943 73.9134 82.027 73.1797C82.3597 72.446 82.8291 71.8854 83.4352 71.498C84.0459 71.1061 84.7431 70.9102 85.527 70.9102C86.3245 70.9102 87.0263 71.1038 87.6325 71.4912C88.2431 71.874 88.7125 72.4323 89.0407 73.166C89.3688 73.8952 89.5329 74.7451 89.5329 75.7158V76.3447ZM88.2272 75.7021C88.2272 74.5218 87.9902 73.6172 87.5163 72.9883C87.0423 72.3548 86.3792 72.0381 85.527 72.0381C84.6976 72.0381 84.0436 72.3548 83.5651 72.9883C83.0911 73.6172 82.8473 74.4922 82.8336 75.6133V76.3447C82.8336 77.4886 83.0729 78.3887 83.5514 79.0449C84.0345 79.6966 84.6976 80.0225 85.5407 80.0225C86.3883 80.0225 87.0446 79.7148 87.5094 79.0996C87.9743 78.4798 88.2135 77.5934 88.2272 76.4404V75.7021ZM95.712 76.9736H93.3741V81H92.0548V71.0469H95.3497C96.4708 71.0469 97.3321 71.3021 97.9337 71.8125C98.5398 72.3229 98.8428 73.0658 98.8428 74.041C98.8428 74.6608 98.6742 75.2008 98.337 75.6611C98.0043 76.1214 97.5395 76.4655 96.9425 76.6934L99.2803 80.918V81H97.8721L95.712 76.9736ZM93.3741 75.9004H95.3907C96.0424 75.9004 96.5596 75.7318 96.9425 75.3945C97.3298 75.0573 97.5235 74.6061 97.5235 74.041C97.5235 73.4258 97.3389 72.9541 96.9698 72.626C96.6052 72.2979 96.0766 72.1315 95.3839 72.127H93.3741V75.9004ZM106.745 78.4023H102.575L101.638 81H100.285L104.085 71.0469H105.234L109.042 81H107.695L106.745 78.4023ZM102.971 77.3223H106.355L104.66 72.667L102.971 77.3223ZM113.874 76.5635C112.748 76.2399 111.928 75.8434 111.413 75.374C110.903 74.9001 110.647 74.3167 110.647 73.624C110.647 72.8402 110.96 72.193 111.584 71.6826C112.213 71.1676 113.029 70.9102 114.031 70.9102C114.715 70.9102 115.323 71.0423 115.856 71.3066C116.394 71.571 116.809 71.9355 117.101 72.4004C117.397 72.8652 117.545 73.3734 117.545 73.9248H116.226C116.226 73.3232 116.034 72.8516 115.651 72.5098C115.269 72.1634 114.728 71.9902 114.031 71.9902C113.384 71.9902 112.878 72.1338 112.514 72.4209C112.154 72.7035 111.974 73.0977 111.974 73.6035C111.974 74.0091 112.144 74.3532 112.486 74.6357C112.833 74.9137 113.418 75.1689 114.243 75.4014C115.073 75.6338 115.72 75.8913 116.185 76.1738C116.654 76.4518 117 76.7777 117.224 77.1514C117.451 77.5251 117.565 77.9648 117.565 78.4707C117.565 79.2773 117.251 79.9245 116.622 80.4121C115.993 80.8952 115.152 81.1367 114.1 81.1367C113.416 81.1367 112.778 81.0068 112.186 80.7471C111.593 80.4827 111.135 80.1227 110.811 79.667C110.492 79.2113 110.333 78.694 110.333 78.1152H111.652C111.652 78.7168 111.873 79.193 112.315 79.5439C112.762 79.8903 113.357 80.0635 114.1 80.0635C114.792 80.0635 115.323 79.9222 115.692 79.6396C116.061 79.3571 116.246 78.972 116.246 78.4844C116.246 77.9967 116.075 77.6208 115.733 77.3564C115.392 77.0876 114.772 76.8232 113.874 76.5635Z" fill="#222222" fill-opacity="0.8"/>
<g filter="url(#filter0_d)">
<path d="M145.516 49.979H150.688L149.906 54.4946H144.75L143.672 60.604H138.875L139.938 54.4946H134.75L135.531 49.979H140.719L141.75 44.0415H146.547L145.516 49.979Z" fill="#EF3829"/>
</g>
<path d="M160.597 38.5703L161.9 27.6719H174.366V31.5098H165.914L165.431 35.7432C165.782 35.5381 166.241 35.3574 166.808 35.2012C167.384 35.0449 167.945 34.9668 168.492 34.9668C170.611 34.9668 172.237 35.5967 173.37 36.8564C174.513 38.1064 175.084 39.8643 175.084 42.1299C175.084 43.4971 174.776 44.7373 174.161 45.8506C173.556 46.9541 172.701 47.8037 171.598 48.3994C170.494 48.9951 169.19 49.293 167.687 49.293C166.349 49.293 165.094 49.0195 163.922 48.4727C162.75 47.916 161.832 47.1592 161.168 46.2021C160.504 45.2354 160.177 44.1465 160.187 42.9355H165.138C165.187 43.7168 165.436 44.3369 165.885 44.7959C166.334 45.2549 166.925 45.4844 167.657 45.4844C169.317 45.4844 170.147 44.2539 170.147 41.793C170.147 39.5176 169.132 38.3799 167.101 38.3799C165.948 38.3799 165.089 38.751 164.522 39.4932L160.597 38.5703ZM192.486 40.2842C192.486 43.165 191.837 45.3867 190.538 46.9492C189.249 48.5117 187.428 49.293 185.074 49.293C182.701 49.293 180.865 48.5068 179.566 46.9346C178.268 45.3623 177.618 43.1455 177.618 40.2842V36.3877C177.618 33.5068 178.263 31.2852 179.552 29.7227C180.851 28.1602 182.682 27.3789 185.045 27.3789C187.408 27.3789 189.239 28.165 190.538 29.7373C191.837 31.3096 192.486 33.5312 192.486 36.4023V40.2842ZM187.55 35.7578C187.55 34.2246 187.35 33.082 186.949 32.3301C186.549 31.5684 185.914 31.1875 185.045 31.1875C184.195 31.1875 183.575 31.5391 183.185 32.2422C182.804 32.9453 182.599 34.0098 182.569 35.4355V40.8848C182.569 42.4766 182.77 43.6436 183.17 44.3857C183.57 45.1182 184.205 45.4844 185.074 45.4844C185.914 45.4844 186.534 45.1279 186.935 44.415C187.335 43.6924 187.54 42.5645 187.55 41.0312V35.7578ZM209.581 27.6719L214.342 42.5107L219.088 27.6719H225.855V49H220.699V44.0195L221.197 33.8242L216.041 49H212.643L207.472 33.8096L207.97 44.0195V49H202.828V27.6719H209.581ZM234.615 49H229.488V27.6719H234.615V49ZM256.002 49H250.89L243.331 35.7285V49H238.189V27.6719H243.331L250.875 40.9434V27.6719H256.002V49Z" fill="#222222"/>
<path d="M161.475 66.9268H166.191V68H160.155V58.0469H161.475V66.9268ZM173.321 65.4023H169.151L168.215 68H166.861L170.662 58.0469H171.811L175.618 68H174.271L173.321 65.4023ZM169.548 64.3223H172.932L171.236 59.667L169.548 64.3223ZM180.608 63.9736H178.271V68H176.951V58.0469H180.246C181.367 58.0469 182.229 58.3021 182.83 58.8125C183.436 59.3229 183.739 60.0658 183.739 61.041C183.739 61.6608 183.571 62.2008 183.233 62.6611C182.901 63.1214 182.436 63.4655 181.839 63.6934L184.177 67.918V68H182.769L180.608 63.9736ZM178.271 62.9004H180.287C180.939 62.9004 181.456 62.7318 181.839 62.3945C182.226 62.0573 182.42 61.6061 182.42 61.041C182.42 60.4258 182.235 59.9541 181.866 59.626C181.502 59.2979 180.973 59.1315 180.28 59.127H178.271V62.9004ZM192.934 66.6943C192.596 67.1774 192.125 67.5397 191.519 67.7812C190.917 68.0182 190.215 68.1367 189.413 68.1367C188.602 68.1367 187.882 67.9476 187.253 67.5693C186.624 67.1865 186.136 66.6442 185.79 65.9424C185.448 65.2406 185.273 64.4271 185.264 63.502V62.6338C185.264 61.1344 185.612 59.9723 186.31 59.1475C187.011 58.3226 187.996 57.9102 189.263 57.9102C190.302 57.9102 191.138 58.1768 191.771 58.71C192.405 59.2386 192.792 59.9906 192.934 60.9658H191.621C191.375 59.6488 190.591 58.9902 189.27 58.9902C188.39 58.9902 187.722 59.3001 187.267 59.9199C186.815 60.5352 186.588 61.4284 186.583 62.5996V63.4131C186.583 64.5296 186.838 65.4183 187.349 66.0791C187.859 66.7354 188.549 67.0635 189.42 67.0635C189.912 67.0635 190.343 67.0088 190.712 66.8994C191.081 66.79 191.386 66.6055 191.628 66.3457V64.1104H189.324V63.0439H192.934V66.6943ZM200.624 65.4023H196.454L195.518 68H194.164L197.965 58.0469H199.113L202.921 68H201.574L200.624 65.4023ZM196.851 64.3223H200.234L198.539 59.667L196.851 64.3223ZM207.733 68V58.0469H210.543C211.409 58.0469 212.174 58.2383 212.84 58.6211C213.505 59.0039 214.018 59.5485 214.378 60.2549C214.743 60.9613 214.927 61.7725 214.932 62.6885V63.3242C214.932 64.263 214.749 65.0856 214.385 65.792C214.025 66.4984 213.507 67.0407 212.833 67.4189C212.163 67.7972 211.382 67.9909 210.488 68H207.733ZM209.046 59.127V66.9268H210.427C211.438 66.9268 212.225 66.6123 212.785 65.9834C213.35 65.3545 213.633 64.459 213.633 63.2969V62.7158C213.633 61.5856 213.366 60.7083 212.833 60.084C212.304 59.4551 211.552 59.1361 210.577 59.127H209.046ZM218.329 68H217.017V58.0469H218.329V68ZM223.668 63.5635C222.542 63.2399 221.722 62.8434 221.207 62.374C220.697 61.9001 220.441 61.3167 220.441 60.624C220.441 59.8402 220.754 59.193 221.378 58.6826C222.007 58.1676 222.823 57.9102 223.825 57.9102C224.509 57.9102 225.117 58.0423 225.65 58.3066C226.188 58.571 226.603 58.9355 226.895 59.4004C227.191 59.8652 227.339 60.3734 227.339 60.9248H226.02C226.02 60.3232 225.828 59.8516 225.445 59.5098C225.062 59.1634 224.522 58.9902 223.825 58.9902C223.178 58.9902 222.672 59.1338 222.308 59.4209C221.948 59.7035 221.768 60.0977 221.768 60.6035C221.768 61.0091 221.938 61.3532 222.28 61.6357C222.627 61.9137 223.212 62.1689 224.037 62.4014C224.867 62.6338 225.514 62.8913 225.979 63.1738C226.448 63.4518 226.794 63.7777 227.018 64.1514C227.245 64.5251 227.359 64.9648 227.359 65.4707C227.359 66.2773 227.045 66.9245 226.416 67.4121C225.787 67.8952 224.946 68.1367 223.894 68.1367C223.21 68.1367 222.572 68.0068 221.979 67.7471C221.387 67.4827 220.929 67.1227 220.605 66.667C220.286 66.2113 220.127 65.694 220.127 65.1152H221.446C221.446 65.7168 221.667 66.193 222.109 66.5439C222.556 66.8903 223.151 67.0635 223.894 67.0635C224.586 67.0635 225.117 66.9222 225.486 66.6396C225.855 66.3571 226.04 65.972 226.04 65.4844C226.04 64.9967 225.869 64.6208 225.527 64.3564C225.186 64.0876 224.566 63.8232 223.668 63.5635ZM235.925 59.127H232.726V68H231.42V59.127H228.228V58.0469H235.925V59.127ZM242.351 65.4023H238.181L237.244 68H235.891L239.691 58.0469H240.84L244.647 68H243.301L242.351 65.4023ZM238.577 64.3223H241.961L240.266 59.667L238.577 64.3223ZM253.637 68H252.317L247.307 60.3301V68H245.987V58.0469H247.307L252.331 65.751V58.0469H253.637V68ZM263.289 64.8418C263.166 65.8945 262.776 66.708 262.12 67.2822C261.468 67.8519 260.6 68.1367 259.516 68.1367C258.34 68.1367 257.396 67.7152 256.686 66.8721C255.979 66.029 255.626 64.901 255.626 63.4883V62.5312C255.626 61.6061 255.79 60.7926 256.118 60.0908C256.451 59.389 256.92 58.8512 257.526 58.4775C258.132 58.0993 258.834 57.9102 259.632 57.9102C260.689 57.9102 261.537 58.2064 262.175 58.7988C262.813 59.3867 263.184 60.2025 263.289 61.2461H261.97C261.856 60.4531 261.607 59.8789 261.225 59.5234C260.846 59.168 260.315 58.9902 259.632 58.9902C258.793 58.9902 258.135 59.3001 257.656 59.9199C257.182 60.5397 256.945 61.4215 256.945 62.5654V63.5293C256.945 64.6094 257.171 65.4684 257.622 66.1064C258.073 66.7445 258.704 67.0635 259.516 67.0635C260.245 67.0635 260.803 66.8994 261.19 66.5713C261.582 66.2386 261.842 65.6621 261.97 64.8418H263.289ZM266.495 68H265.183V58.0469H266.495V68ZM274.521 65.4023H270.351L269.414 68H268.061L271.861 58.0469H273.01L276.817 68H275.471L274.521 65.4023ZM270.747 64.3223H274.131L272.436 59.667L270.747 64.3223ZM161.563 82H160.251V72.0469H161.563V82ZM171.619 82H170.3L165.289 74.3301V82H163.97V72.0469H165.289L170.313 79.751V72.0469H171.619V82ZM180.622 73.127H177.423V82H176.117V73.127H172.925V72.0469H180.622V73.127ZM187.725 77.3994H183.411V80.9268H188.422V82H182.099V72.0469H188.354V73.127H183.411V76.3262H187.725V77.3994ZM193.706 77.9736H191.368V82H190.049V72.0469H193.344C194.465 72.0469 195.326 72.3021 195.928 72.8125C196.534 73.3229 196.837 74.0658 196.837 75.041C196.837 75.6608 196.668 76.2008 196.331 76.6611C195.998 77.1214 195.534 77.4655 194.937 77.6934L197.274 81.918V82H195.866L193.706 77.9736ZM191.368 76.9004H193.385C194.036 76.9004 194.554 76.7318 194.937 76.3945C195.324 76.0573 195.518 75.6061 195.518 75.041C195.518 74.4258 195.333 73.9541 194.964 73.626C194.599 73.2979 194.071 73.1315 193.378 73.127H191.368V76.9004ZM206.332 82H205.013L200.002 74.3301V82H198.683V72.0469H200.002L205.026 79.751V72.0469H206.332V82ZM214.282 79.4023H210.112L209.176 82H207.822L211.623 72.0469H212.771L216.579 82H215.232L214.282 79.4023ZM210.509 78.3223H213.893L212.197 73.667L210.509 78.3223ZM225.158 78.8418C225.035 79.8945 224.646 80.708 223.989 81.2822C223.338 81.8519 222.469 82.1367 221.385 82.1367C220.209 82.1367 219.266 81.7152 218.555 80.8721C217.848 80.029 217.495 78.901 217.495 77.4883V76.5312C217.495 75.6061 217.659 74.7926 217.987 74.0908C218.32 73.389 218.789 72.8512 219.396 72.4775C220.002 72.0993 220.703 71.9102 221.501 71.9102C222.558 71.9102 223.406 72.2064 224.044 72.7988C224.682 73.3867 225.053 74.2025 225.158 75.2461H223.839C223.725 74.4531 223.477 73.8789 223.094 73.5234C222.715 73.168 222.185 72.9902 221.501 72.9902C220.662 72.9902 220.004 73.3001 219.525 73.9199C219.051 74.5397 218.814 75.4215 218.814 76.5654V77.5293C218.814 78.6094 219.04 79.4684 219.491 80.1064C219.942 80.7445 220.574 81.0635 221.385 81.0635C222.114 81.0635 222.672 80.8994 223.06 80.5713C223.451 80.2386 223.711 79.6621 223.839 78.8418H225.158ZM228.364 82H227.052V72.0469H228.364V82ZM238.427 77.3447C238.427 78.32 238.263 79.1722 237.935 79.9014C237.606 80.626 237.142 81.1797 236.54 81.5625C235.938 81.9453 235.237 82.1367 234.435 82.1367C233.651 82.1367 232.956 81.9453 232.35 81.5625C231.743 81.1751 231.272 80.626 230.935 79.915C230.602 79.1995 230.431 78.3724 230.422 77.4336V76.7158C230.422 75.7588 230.588 74.9134 230.921 74.1797C231.254 73.446 231.723 72.8854 232.329 72.498C232.94 72.1061 233.637 71.9102 234.421 71.9102C235.218 71.9102 235.92 72.1038 236.526 72.4912C237.137 72.874 237.606 73.4323 237.935 74.166C238.263 74.8952 238.427 75.7451 238.427 76.7158V77.3447ZM237.121 76.7021C237.121 75.5218 236.884 74.6172 236.41 73.9883C235.936 73.3548 235.273 73.0381 234.421 73.0381C233.591 73.0381 232.938 73.3548 232.459 73.9883C231.985 74.6172 231.741 75.4922 231.728 76.6133V77.3447C231.728 78.4886 231.967 79.3887 232.445 80.0449C232.928 80.6966 233.591 81.0225 234.435 81.0225C235.282 81.0225 235.938 80.7148 236.403 80.0996C236.868 79.4798 237.107 78.5934 237.121 77.4404V76.7021ZM248.045 82H246.726L241.715 74.3301V82H240.396V72.0469H241.715L246.739 79.751V72.0469H248.045V82ZM255.995 79.4023H251.825L250.889 82H249.535L253.336 72.0469H254.484L258.292 82H256.945L255.995 79.4023ZM252.222 78.3223H255.605L253.91 73.667L252.222 78.3223ZM260.951 80.9268H265.668V82H259.632V72.0469H260.951V80.9268Z" fill="#222222"/>
<path d="M14.9521 129.6H21.5156V132.5H11.1816V116.859H14.9521V129.6ZM26.876 129.6H33.4395V132.5H23.1055V116.859H26.876V129.6ZM44.1279 129.578H38.9609L38.0586 132.5H34.0303L39.7666 116.859H43.3115L49.0908 132.5H45.041L44.1279 129.578ZM39.8633 126.667H43.2256L41.5391 121.242L39.8633 126.667ZM55.1924 116.859L58.6836 127.741L62.1641 116.859H67.127V132.5H63.3457V128.848L63.7109 121.371L59.9297 132.5H57.4375L53.6455 121.36L54.0107 128.848V132.5H50.2402V116.859H55.1924ZM78.6104 129.578H73.4434L72.541 132.5H68.5127L74.249 116.859H77.7939L83.5732 132.5H79.5234L78.6104 129.578ZM74.3457 126.667H77.708L76.0215 121.242L74.3457 126.667ZM84.7227 132.5V116.859H89.7607C91.1429 116.859 92.3854 117.174 93.4883 117.805C94.5911 118.428 95.4505 119.312 96.0664 120.458C96.6895 121.597 97.0046 122.875 97.0117 124.293V125.013C97.0117 126.445 96.7074 127.73 96.0986 128.869C95.4971 130.001 94.6449 130.889 93.542 131.533C92.4463 132.171 91.2217 132.493 89.8682 132.5H84.7227ZM88.4932 119.771V129.6H89.8037C90.8851 129.6 91.7158 129.216 92.2959 128.45C92.876 127.677 93.166 126.531 93.166 125.013V124.336C93.166 122.825 92.876 121.686 92.2959 120.92C91.7158 120.154 90.8708 119.771 89.7607 119.771H88.4932ZM107.593 129.578H102.426L101.523 132.5H97.4951L103.231 116.859H106.776L112.556 132.5H108.506L107.593 129.578ZM103.328 126.667H106.69L105.004 121.242L103.328 126.667ZM121.772 128.343C121.772 127.791 121.576 127.362 121.182 127.054C120.795 126.746 120.111 126.427 119.13 126.098C118.149 125.768 117.347 125.45 116.724 125.142C114.697 124.146 113.684 122.778 113.684 121.038C113.684 120.172 113.934 119.409 114.436 118.75C114.944 118.084 115.66 117.568 116.584 117.203C117.508 116.831 118.546 116.645 119.699 116.645C120.824 116.645 121.83 116.845 122.718 117.246C123.613 117.647 124.308 118.22 124.802 118.965C125.296 119.702 125.543 120.548 125.543 121.5H121.783C121.783 120.863 121.586 120.368 121.192 120.018C120.806 119.667 120.279 119.491 119.613 119.491C118.94 119.491 118.407 119.642 118.013 119.942C117.626 120.236 117.433 120.612 117.433 121.07C117.433 121.471 117.647 121.837 118.077 122.166C118.507 122.488 119.262 122.825 120.344 123.176C121.425 123.52 122.313 123.892 123.008 124.293C124.698 125.267 125.543 126.61 125.543 128.321C125.543 129.689 125.027 130.763 123.996 131.544C122.965 132.325 121.55 132.715 119.753 132.715C118.485 132.715 117.336 132.489 116.305 132.038C115.281 131.58 114.507 130.957 113.984 130.169C113.469 129.374 113.211 128.461 113.211 127.43H116.992C116.992 128.268 117.207 128.887 117.637 129.288C118.074 129.682 118.779 129.879 119.753 129.879C120.376 129.879 120.867 129.746 121.225 129.481C121.59 129.209 121.772 128.83 121.772 128.343ZM15.1992 154.5H11.4395V138.859H15.1992V154.5ZM21.5908 151.6H28.1543V154.5H17.8203V138.859H21.5908V151.6ZM33.7617 154.5H30.002V138.859H33.7617V154.5ZM41.335 138.859L44.8262 149.741L48.3066 138.859H53.2695V154.5H49.4883V150.848L49.8535 143.371L46.0723 154.5H43.5801L39.7881 143.36L40.1533 150.848V154.5H36.3828V138.859H41.335ZM59.6934 154.5H55.9336V138.859H59.6934V154.5ZM74.2705 141.771H69.5762V154.5H65.8057V141.771H61.1973V138.859H74.2705V141.771ZM83.4658 151.578H78.2988L77.3965 154.5H73.3682L79.1045 138.859H82.6494L88.4287 154.5H84.3789L83.4658 151.578ZM79.2012 148.667H82.5635L80.877 143.242L79.2012 148.667ZM89.5781 154.5V138.859H94.6162C95.9984 138.859 97.2409 139.174 98.3438 139.805C99.4466 140.428 100.306 141.312 100.922 142.458C101.545 143.597 101.86 144.875 101.867 146.293V147.013C101.867 148.445 101.563 149.73 100.954 150.869C100.353 152.001 99.5003 152.889 98.3975 153.533C97.3018 154.171 96.0771 154.493 94.7236 154.5H89.5781ZM93.3486 141.771V151.6H94.6592C95.7406 151.6 96.5713 151.216 97.1514 150.45C97.7314 149.677 98.0215 148.531 98.0215 147.013V146.336C98.0215 144.825 97.7314 143.686 97.1514 142.92C96.5713 142.154 95.7262 141.771 94.6162 141.771H93.3486ZM112.448 151.578H107.281L106.379 154.5H102.351L108.087 138.859H111.632L117.411 154.5H113.361L112.448 151.578ZM108.184 148.667H111.546L109.859 143.242L108.184 148.667ZM126.628 150.343C126.628 149.791 126.431 149.362 126.037 149.054C125.65 148.746 124.966 148.427 123.985 148.098C123.004 147.768 122.202 147.45 121.579 147.142C119.552 146.146 118.539 144.778 118.539 143.038C118.539 142.172 118.79 141.409 119.291 140.75C119.799 140.084 120.516 139.568 121.439 139.203C122.363 138.831 123.402 138.645 124.555 138.645C125.679 138.645 126.685 138.845 127.573 139.246C128.468 139.647 129.163 140.22 129.657 140.965C130.151 141.702 130.398 142.548 130.398 143.5H126.639C126.639 142.863 126.442 142.368 126.048 142.018C125.661 141.667 125.135 141.491 124.469 141.491C123.796 141.491 123.262 141.642 122.868 141.942C122.481 142.236 122.288 142.612 122.288 143.07C122.288 143.471 122.503 143.837 122.933 144.166C123.362 144.488 124.118 144.825 125.199 145.176C126.281 145.52 127.169 145.892 127.863 146.293C129.553 147.267 130.398 148.61 130.398 150.321C130.398 151.689 129.883 152.763 128.852 153.544C127.82 154.325 126.406 154.715 124.608 154.715C123.341 154.715 122.191 154.489 121.16 154.038C120.136 153.58 119.363 152.957 118.84 152.169C118.324 151.374 118.066 150.461 118.066 149.43H121.848C121.848 150.268 122.062 150.887 122.492 151.288C122.929 151.682 123.634 151.879 124.608 151.879C125.231 151.879 125.722 151.746 126.08 151.481C126.445 151.209 126.628 150.83 126.628 150.343Z" fill="#222222"/>
<path d="M16.6514 166.902H12.4814L11.5449 169.5H10.1914L13.9922 159.547H15.1406L18.9482 169.5H17.6016L16.6514 166.902ZM12.8779 165.822H16.2617L14.5664 161.167L12.8779 165.822ZM31.4102 169.5H30.0908L25.0801 161.83V169.5H23.7607V159.547H25.0801L30.1045 167.251V159.547H31.4102V169.5ZM40.748 159.547V166.314C40.7435 167.253 40.4473 168.021 39.8594 168.618C39.276 169.215 38.4831 169.55 37.4805 169.623L37.1318 169.637C36.0426 169.637 35.1745 169.343 34.5273 168.755C33.8802 168.167 33.5521 167.358 33.543 166.328V159.547H34.8418V166.287C34.8418 167.007 35.04 167.568 35.4365 167.969C35.833 168.365 36.3981 168.563 37.1318 168.563C37.8747 168.563 38.4421 168.365 38.834 167.969C39.2305 167.572 39.4287 167.014 39.4287 166.294V159.547H40.748ZM37.7676 156.881H39.2988L37.4668 158.891H36.4482L37.7676 156.881ZM44.5146 159.547L47.7686 167.668L51.0225 159.547H52.7246V169.5H51.4121V165.624L51.5352 161.44L48.2676 169.5H47.2627L44.002 161.461L44.1318 165.624V169.5H42.8193V159.547H44.5146ZM60.668 164.899H56.3545V168.427H61.3652V169.5H55.042V159.547H61.2969V160.627H56.3545V163.826H60.668V164.899ZM66.6494 165.474H64.3115V169.5H62.9922V159.547H66.2871C67.4082 159.547 68.2695 159.802 68.8711 160.312C69.4772 160.823 69.7803 161.566 69.7803 162.541C69.7803 163.161 69.6117 163.701 69.2744 164.161C68.9417 164.621 68.4769 164.965 67.8799 165.193L70.2178 169.418V169.5H68.8096L66.6494 165.474ZM64.3115 164.4H66.3281C66.9798 164.4 67.4971 164.232 67.8799 163.895C68.2673 163.557 68.4609 163.106 68.4609 162.541C68.4609 161.926 68.2764 161.454 67.9072 161.126C67.5426 160.798 67.014 160.632 66.3213 160.627H64.3115V164.4ZM79.2822 164.845C79.2822 165.82 79.1182 166.672 78.79 167.401C78.4619 168.126 77.9971 168.68 77.3955 169.062C76.7939 169.445 76.0921 169.637 75.29 169.637C74.5062 169.637 73.8112 169.445 73.2051 169.062C72.599 168.675 72.1273 168.126 71.79 167.415C71.4574 166.7 71.2865 165.872 71.2773 164.934V164.216C71.2773 163.259 71.4437 162.413 71.7764 161.68C72.109 160.946 72.5785 160.385 73.1846 159.998C73.7952 159.606 74.4925 159.41 75.2764 159.41C76.0739 159.41 76.7757 159.604 77.3818 159.991C77.9925 160.374 78.4619 160.932 78.79 161.666C79.1182 162.395 79.2822 163.245 79.2822 164.216V164.845ZM77.9766 164.202C77.9766 163.022 77.7396 162.117 77.2656 161.488C76.7917 160.855 76.1286 160.538 75.2764 160.538C74.4469 160.538 73.793 160.855 73.3145 161.488C72.8405 162.117 72.5967 162.992 72.583 164.113V164.845C72.583 165.989 72.8223 166.889 73.3008 167.545C73.7839 168.197 74.4469 168.522 75.29 168.522C76.1377 168.522 76.7939 168.215 77.2588 167.6C77.7236 166.98 77.9629 166.093 77.9766 164.94V164.202ZM84.1836 165.063C83.0579 164.74 82.2376 164.343 81.7227 163.874C81.2122 163.4 80.957 162.817 80.957 162.124C80.957 161.34 81.2692 160.693 81.8936 160.183C82.5225 159.668 83.3382 159.41 84.3408 159.41C85.0244 159.41 85.6328 159.542 86.166 159.807C86.7038 160.071 87.1185 160.436 87.4102 160.9C87.7064 161.365 87.8545 161.873 87.8545 162.425H86.5352C86.5352 161.823 86.3438 161.352 85.9609 161.01C85.5781 160.663 85.0381 160.49 84.3408 160.49C83.6937 160.49 83.1878 160.634 82.8232 160.921C82.4632 161.203 82.2832 161.598 82.2832 162.104C82.2832 162.509 82.4541 162.853 82.7959 163.136C83.1423 163.414 83.7279 163.669 84.5527 163.901C85.3822 164.134 86.0293 164.391 86.4941 164.674C86.9635 164.952 87.3099 165.278 87.5332 165.651C87.7611 166.025 87.875 166.465 87.875 166.971C87.875 167.777 87.5605 168.424 86.9316 168.912C86.3027 169.395 85.4619 169.637 84.4092 169.637C83.7256 169.637 83.0876 169.507 82.4951 169.247C81.9027 168.983 81.4447 168.623 81.1211 168.167C80.8021 167.711 80.6426 167.194 80.6426 166.615H81.9619C81.9619 167.217 82.1829 167.693 82.625 168.044C83.0716 168.39 83.6663 168.563 84.4092 168.563C85.1019 168.563 85.6328 168.422 86.002 168.14C86.3711 167.857 86.5557 167.472 86.5557 166.984C86.5557 166.497 86.3848 166.121 86.043 165.856C85.7012 165.588 85.0814 165.323 84.1836 165.063ZM100.357 166.342C100.234 167.395 99.8447 168.208 99.1885 168.782C98.5368 169.352 97.6686 169.637 96.584 169.637C95.4082 169.637 94.4648 169.215 93.7539 168.372C93.0475 167.529 92.6943 166.401 92.6943 164.988V164.031C92.6943 163.106 92.8584 162.293 93.1865 161.591C93.5192 160.889 93.9886 160.351 94.5947 159.978C95.2008 159.599 95.9027 159.41 96.7002 159.41C97.7575 159.41 98.6051 159.706 99.2432 160.299C99.8812 160.887 100.253 161.702 100.357 162.746H99.0381C98.9242 161.953 98.6758 161.379 98.293 161.023C97.9147 160.668 97.3838 160.49 96.7002 160.49C95.8617 160.49 95.2031 160.8 94.7246 161.42C94.2507 162.04 94.0137 162.922 94.0137 164.065V165.029C94.0137 166.109 94.2393 166.968 94.6904 167.606C95.1416 168.244 95.7728 168.563 96.584 168.563C97.3132 168.563 97.8714 168.399 98.2588 168.071C98.6507 167.739 98.9105 167.162 99.0381 166.342H100.357ZM103.475 168.427H108.191V169.5H102.155V159.547H103.475V168.427ZM115.321 166.902H111.151L110.215 169.5H108.861L112.662 159.547H113.811L117.618 169.5H116.271L115.321 166.902ZM111.548 165.822H114.932L113.236 161.167L111.548 165.822ZM122.608 165.474H120.271V169.5H118.951V159.547H122.246C123.367 159.547 124.229 159.802 124.83 160.312C125.436 160.823 125.739 161.566 125.739 162.541C125.739 163.161 125.571 163.701 125.233 164.161C124.901 164.621 124.436 164.965 123.839 165.193L126.177 169.418V169.5H124.769L122.608 165.474ZM120.271 164.4H122.287C122.939 164.4 123.456 164.232 123.839 163.895C124.226 163.557 124.42 163.106 124.42 162.541C124.42 161.926 124.235 161.454 123.866 161.126C123.502 160.798 122.973 160.632 122.28 160.627H120.271V164.4ZM135.241 164.845C135.241 165.82 135.077 166.672 134.749 167.401C134.421 168.126 133.956 168.68 133.354 169.062C132.753 169.445 132.051 169.637 131.249 169.637C130.465 169.637 129.77 169.445 129.164 169.062C128.558 168.675 128.086 168.126 127.749 167.415C127.416 166.7 127.245 165.872 127.236 164.934V164.216C127.236 163.259 127.403 162.413 127.735 161.68C128.068 160.946 128.537 160.385 129.144 159.998C129.754 159.606 130.451 159.41 131.235 159.41C132.033 159.41 132.735 159.604 133.341 159.991C133.951 160.374 134.421 160.932 134.749 161.666C135.077 162.395 135.241 163.245 135.241 164.216V164.845ZM133.936 164.202C133.936 163.022 133.699 162.117 133.225 161.488C132.751 160.855 132.088 160.538 131.235 160.538C130.406 160.538 129.752 160.855 129.273 161.488C128.799 162.117 128.556 162.992 128.542 164.113V164.845C128.542 165.989 128.781 166.889 129.26 167.545C129.743 168.197 130.406 168.522 131.249 168.522C132.097 168.522 132.753 168.215 133.218 167.6C133.683 166.98 133.922 166.093 133.936 164.94V164.202Z" fill="#222222"/>
<g filter="url(#filter1_d)">
<path d="M156.516 127.594H161.688L160.906 132.109H155.75L154.672 138.219H149.875L150.938 132.109H145.75L146.531 127.594H151.719L152.75 121.656H157.547L156.516 127.594Z" fill="#EF3829"/>
</g>
<path d="M176.134 116.859L179.625 127.741L183.105 116.859H188.068V132.5H184.287V128.848L184.652 121.371L180.871 132.5H178.379L174.587 121.36L174.952 128.848V132.5H171.182V116.859H176.134ZM200.175 125.872H194.245V129.6H201.249V132.5H190.475V116.859H201.271V119.771H194.245V123.068H200.175V125.872ZM215.848 132.5H212.099L206.556 122.768V132.5H202.785V116.859H206.556L212.088 126.592V116.859H215.848V132.5ZM226.3 128.343C226.3 127.791 226.103 127.362 225.709 127.054C225.322 126.746 224.638 126.427 223.657 126.098C222.676 125.768 221.874 125.45 221.251 125.142C219.224 124.146 218.211 122.778 218.211 121.038C218.211 120.172 218.462 119.409 218.963 118.75C219.471 118.084 220.188 117.568 221.111 117.203C222.035 116.831 223.074 116.645 224.227 116.645C225.351 116.645 226.357 116.845 227.245 117.246C228.14 117.647 228.835 118.22 229.329 118.965C229.823 119.702 230.07 120.548 230.07 121.5H226.311C226.311 120.863 226.114 120.368 225.72 120.018C225.333 119.667 224.807 119.491 224.141 119.491C223.467 119.491 222.934 119.642 222.54 119.942C222.153 120.236 221.96 120.612 221.96 121.07C221.96 121.471 222.175 121.837 222.604 122.166C223.034 122.488 223.79 122.825 224.871 123.176C225.952 123.52 226.84 123.892 227.535 124.293C229.225 125.267 230.07 126.61 230.07 128.321C230.07 129.689 229.555 130.763 228.523 131.544C227.492 132.325 226.078 132.715 224.28 132.715C223.013 132.715 221.863 132.489 220.832 132.038C219.808 131.58 219.035 130.957 218.512 130.169C217.996 129.374 217.738 128.461 217.738 127.43H221.52C221.52 128.268 221.734 128.887 222.164 129.288C222.601 129.682 223.306 129.879 224.28 129.879C224.903 129.879 225.394 129.746 225.752 129.481C226.117 129.209 226.3 128.83 226.3 128.343ZM240.888 129.578H235.721L234.818 132.5H230.79L236.526 116.859H240.071L245.851 132.5H241.801L240.888 129.578ZM236.623 126.667H239.985L238.299 121.242L236.623 126.667ZM253.23 116.859H256.99V127.591C256.99 128.586 256.757 129.474 256.292 130.255C255.834 131.035 255.189 131.641 254.358 132.07C253.535 132.5 252.615 132.715 251.598 132.715C249.893 132.715 248.568 132.285 247.623 131.426C246.678 130.566 246.205 129.349 246.205 127.773H249.986C249.986 128.49 250.108 129.009 250.352 129.331C250.602 129.653 251.018 129.814 251.598 129.814C252.12 129.814 252.521 129.621 252.801 129.234C253.087 128.84 253.23 128.293 253.23 127.591V116.859ZM269.075 125.872H263.146V129.6H270.149V132.5H259.375V116.859H270.171V119.771H263.146V123.068H269.075V125.872ZM279.753 128.343C279.753 127.791 279.556 127.362 279.162 127.054C278.775 126.746 278.091 126.427 277.11 126.098C276.129 125.768 275.327 125.45 274.704 125.142C272.677 124.146 271.664 122.778 271.664 121.038C271.664 120.172 271.915 119.409 272.416 118.75C272.924 118.084 273.641 117.568 274.564 117.203C275.488 116.831 276.527 116.645 277.68 116.645C278.804 116.645 279.81 116.845 280.698 117.246C281.593 117.647 282.288 118.22 282.782 118.965C283.276 119.702 283.523 120.548 283.523 121.5H279.764C279.764 120.863 279.567 120.368 279.173 120.018C278.786 119.667 278.26 119.491 277.594 119.491C276.921 119.491 276.387 119.642 275.993 119.942C275.606 120.236 275.413 120.612 275.413 121.07C275.413 121.471 275.628 121.837 276.058 122.166C276.487 122.488 277.243 122.825 278.324 123.176C279.406 123.52 280.294 123.892 280.988 124.293C282.678 125.267 283.523 126.61 283.523 128.321C283.523 129.689 283.008 130.763 281.977 131.544C280.945 132.325 279.531 132.715 277.733 132.715C276.466 132.715 275.316 132.489 274.285 132.038C273.261 131.58 272.488 130.957 271.965 130.169C271.449 129.374 271.191 128.461 271.191 127.43H274.973C274.973 128.268 275.188 128.887 275.617 129.288C276.054 129.682 276.759 129.879 277.733 129.879C278.356 129.879 278.847 129.746 279.205 129.481C279.57 129.209 279.753 128.83 279.753 128.343ZM175.199 154.5H171.439V138.859H175.199V154.5ZM181.591 151.6H188.154V154.5H177.82V138.859H181.591V151.6ZM193.762 154.5H190.002V138.859H193.762V154.5ZM201.335 138.859L204.826 149.741L208.307 138.859H213.27V154.5H209.488V150.848L209.854 143.371L206.072 154.5H203.58L199.788 143.36L200.153 150.848V154.5H196.383V138.859H201.335ZM219.693 154.5H215.934V138.859H219.693V154.5ZM234.271 141.771H229.576V154.5H225.806V141.771H221.197V138.859H234.271V141.771ZM243.466 151.578H238.299L237.396 154.5H233.368L239.104 138.859H242.649L248.429 154.5H244.379L243.466 151.578ZM239.201 148.667H242.563L240.877 143.242L239.201 148.667ZM249.578 154.5V138.859H254.616C255.998 138.859 257.241 139.174 258.344 139.805C259.447 140.428 260.306 141.312 260.922 142.458C261.545 143.597 261.86 144.875 261.867 146.293V147.013C261.867 148.445 261.563 149.73 260.954 150.869C260.353 152.001 259.5 152.889 258.397 153.533C257.302 154.171 256.077 154.493 254.724 154.5H249.578ZM253.349 141.771V151.6H254.659C255.741 151.6 256.571 151.216 257.151 150.45C257.731 149.677 258.021 148.531 258.021 147.013V146.336C258.021 144.825 257.731 143.686 257.151 142.92C256.571 142.154 255.726 141.771 254.616 141.771H253.349ZM277.046 147.002C277.046 148.527 276.763 149.877 276.197 151.052C275.632 152.226 274.826 153.132 273.78 153.77C272.742 154.4 271.557 154.715 270.225 154.715C268.893 154.715 267.711 154.41 266.68 153.802C265.648 153.186 264.843 152.309 264.263 151.17C263.69 150.031 263.389 148.724 263.36 147.249V146.368C263.36 144.836 263.64 143.486 264.198 142.318C264.764 141.144 265.57 140.238 266.615 139.601C267.668 138.963 268.864 138.645 270.203 138.645C271.528 138.645 272.71 138.96 273.748 139.59C274.786 140.22 275.592 141.119 276.165 142.286C276.745 143.446 277.039 144.778 277.046 146.282V147.002ZM273.211 146.347C273.211 144.793 272.95 143.615 272.427 142.812C271.911 142.003 271.17 141.599 270.203 141.599C268.312 141.599 267.313 143.017 267.206 145.853L267.195 147.002C267.195 148.535 267.45 149.713 267.958 150.536C268.466 151.36 269.222 151.771 270.225 151.771C271.177 151.771 271.911 151.367 272.427 150.558C272.942 149.748 273.204 148.585 273.211 147.066V146.347ZM287.058 150.343C287.058 149.791 286.861 149.362 286.467 149.054C286.08 148.746 285.396 148.427 284.415 148.098C283.434 147.768 282.632 147.45 282.009 147.142C279.982 146.146 278.969 144.778 278.969 143.038C278.969 142.172 279.219 141.409 279.721 140.75C280.229 140.084 280.945 139.568 281.869 139.203C282.793 138.831 283.831 138.645 284.984 138.645C286.109 138.645 287.115 138.845 288.003 139.246C288.898 139.647 289.593 140.22 290.087 140.965C290.581 141.702 290.828 142.548 290.828 143.5H287.068C287.068 142.863 286.871 142.368 286.478 142.018C286.091 141.667 285.564 141.491 284.898 141.491C284.225 141.491 283.692 141.642 283.298 141.942C282.911 142.236 282.718 142.612 282.718 143.07C282.718 143.471 282.933 143.837 283.362 144.166C283.792 144.488 284.548 144.825 285.629 145.176C286.71 145.52 287.598 145.892 288.293 146.293C289.983 147.267 290.828 148.61 290.828 150.321C290.828 151.689 290.312 152.763 289.281 153.544C288.25 154.325 286.836 154.715 285.038 154.715C283.771 154.715 282.621 154.489 281.59 154.038C280.566 153.58 279.792 152.957 279.27 152.169C278.754 151.374 278.496 150.461 278.496 149.43H282.277C282.277 150.268 282.492 150.887 282.922 151.288C283.359 151.682 284.064 151.879 285.038 151.879C285.661 151.879 286.152 151.746 286.51 151.481C286.875 151.209 287.058 150.83 287.058 150.343Z" fill="#222222"/>
<path d="M172.851 159.547L176.104 167.668L179.358 159.547H181.061V169.5H179.748V165.624L179.871 161.44L176.604 169.5H175.599L172.338 161.461L172.468 165.624V169.5H171.155V159.547H172.851ZM190.385 159.547V166.314C190.38 167.253 190.084 168.021 189.496 168.618C188.913 169.215 188.12 169.55 187.117 169.623L186.769 169.637C185.679 169.637 184.811 169.343 184.164 168.755C183.517 168.167 183.189 167.358 183.18 166.328V159.547H184.479V166.287C184.479 167.007 184.677 167.568 185.073 167.969C185.47 168.365 186.035 168.563 186.769 168.563C187.511 168.563 188.079 168.365 188.471 167.969C188.867 167.572 189.065 167.014 189.065 166.294V159.547H190.385ZM193.775 168.427H198.492V169.5H192.456V159.547H193.775V168.427ZM204.979 160.627H201.78V169.5H200.475V160.627H197.282V159.547H204.979V160.627ZM207.864 169.5H206.552V159.547H207.864V169.5ZM210.271 169.5V159.547H213.08C213.946 159.547 214.712 159.738 215.377 160.121C216.042 160.504 216.555 161.049 216.915 161.755C217.28 162.461 217.464 163.272 217.469 164.188V164.824C217.469 165.763 217.286 166.586 216.922 167.292C216.562 167.998 216.045 168.541 215.37 168.919C214.7 169.297 213.919 169.491 213.025 169.5H210.271ZM211.583 160.627V168.427H212.964C213.976 168.427 214.762 168.112 215.322 167.483C215.887 166.854 216.17 165.959 216.17 164.797V164.216C216.17 163.086 215.903 162.208 215.37 161.584C214.841 160.955 214.09 160.636 213.114 160.627H211.583ZM225.084 164.899H220.771V168.427H225.781V169.5H219.458V159.547H225.713V160.627H220.771V163.826H225.084V164.899ZM230.348 165.063C229.222 164.74 228.402 164.343 227.887 163.874C227.376 163.4 227.121 162.817 227.121 162.124C227.121 161.34 227.433 160.693 228.058 160.183C228.687 159.668 229.502 159.41 230.505 159.41C231.188 159.41 231.797 159.542 232.33 159.807C232.868 160.071 233.283 160.436 233.574 160.9C233.87 161.365 234.019 161.873 234.019 162.425H232.699C232.699 161.823 232.508 161.352 232.125 161.01C231.742 160.663 231.202 160.49 230.505 160.49C229.858 160.49 229.352 160.634 228.987 160.921C228.627 161.203 228.447 161.598 228.447 162.104C228.447 162.509 228.618 162.853 228.96 163.136C229.306 163.414 229.892 163.669 230.717 163.901C231.546 164.134 232.193 164.391 232.658 164.674C233.128 164.952 233.474 165.278 233.697 165.651C233.925 166.025 234.039 166.465 234.039 166.971C234.039 167.777 233.725 168.424 233.096 168.912C232.467 169.395 231.626 169.637 230.573 169.637C229.89 169.637 229.252 169.507 228.659 169.247C228.067 168.983 227.609 168.623 227.285 168.167C226.966 167.711 226.807 167.194 226.807 166.615H228.126C228.126 167.217 228.347 167.693 228.789 168.044C229.236 168.39 229.83 168.563 230.573 168.563C231.266 168.563 231.797 168.422 232.166 168.14C232.535 167.857 232.72 167.472 232.72 166.984C232.72 166.497 232.549 166.121 232.207 165.856C231.865 165.588 231.245 165.323 230.348 165.063ZM242.604 160.627H239.405V169.5H238.1V160.627H234.907V159.547H242.604V160.627ZM245.489 169.5H244.177V159.547H245.489V169.5ZM255.545 169.5H254.226L249.215 161.83V169.5H247.896V159.547H249.215L254.239 167.251V159.547H255.545V169.5ZM265.532 164.845C265.532 165.82 265.368 166.672 265.04 167.401C264.712 168.126 264.247 168.68 263.646 169.062C263.044 169.445 262.342 169.637 261.54 169.637C260.756 169.637 260.061 169.445 259.455 169.062C258.849 168.675 258.377 168.126 258.04 167.415C257.707 166.7 257.536 165.872 257.527 164.934V164.216C257.527 163.259 257.694 162.413 258.026 161.68C258.359 160.946 258.828 160.385 259.435 159.998C260.045 159.606 260.743 159.41 261.526 159.41C262.324 159.41 263.026 159.604 263.632 159.991C264.243 160.374 264.712 160.932 265.04 161.666C265.368 162.395 265.532 163.245 265.532 164.216V164.845ZM264.227 164.202C264.227 163.022 263.99 162.117 263.516 161.488C263.042 160.855 262.379 160.538 261.526 160.538C260.697 160.538 260.043 160.855 259.564 161.488C259.09 162.117 258.847 162.992 258.833 164.113V164.845C258.833 165.989 259.072 166.889 259.551 167.545C260.034 168.197 260.697 168.522 261.54 168.522C262.388 168.522 263.044 168.215 263.509 167.6C263.974 166.98 264.213 166.093 264.227 164.94V164.202Z" fill="#222222"/>
<path d="M132.879 214.895C132.772 214.895 132.772 214.895 132.772 214.895C131.707 214.895 130.641 214.895 129.682 214.895C129.576 214.895 129.469 214.895 129.469 214.789C128.723 213.421 127.658 212.474 126.166 212.053C124.035 211.526 122.33 212.158 120.838 213.737C119.986 214.684 119.56 215.842 119.56 217.105C119.56 218.053 119.773 218.895 120.199 219.737C121.051 221.105 122.223 222.053 123.822 222.263C125.846 222.579 127.551 221.947 128.83 220.263C129.043 220.053 129.15 219.737 129.363 219.421C129.363 219.316 129.469 219.316 129.576 219.316C130.641 219.316 131.707 219.316 132.772 219.316C132.879 219.316 132.879 219.316 132.879 219.421C132.453 221 131.6 222.368 130.322 223.421C129.043 224.474 127.658 225.21 125.953 225.421C124.035 225.632 122.117 225.421 120.412 224.368C118.174 223 116.789 221 116.363 218.474C116.043 216.158 116.47 213.947 117.961 212.053C118.92 210.895 119.986 209.842 121.371 209.316C122.117 209 122.863 208.789 123.715 208.789C124.887 208.684 126.059 208.684 127.232 209.105C129.576 209.842 131.281 211.316 132.346 213.526C132.559 213.947 132.666 214.368 132.879 214.895Z" fill="#EF3829"/>
<path d="M147.69 224.368C147.584 224.368 147.584 224.474 147.584 224.474C146.838 225 145.985 225.316 145.133 225.526C144.387 225.632 143.641 225.737 142.895 225.632C141.51 225.421 140.445 224.895 139.912 223.526C139.699 222.895 139.592 222.263 139.699 221.632C139.699 221.105 139.805 220.579 140.018 220.053C140.445 219.105 141.19 218.474 142.149 218.053C142.895 217.737 143.641 217.632 144.387 217.526C145.133 217.421 145.879 217.316 146.625 217.21C147.157 217.105 147.584 216.579 147.477 215.947C147.371 215.421 147.157 215.105 146.625 214.895C145.985 214.684 145.453 214.684 144.813 214.789C144.6 214.789 144.387 214.895 144.174 214.895C143.641 215.105 143.322 215.632 143.108 216.158V216.263C143.002 216.579 143.002 216.579 142.789 216.579C141.83 216.579 140.871 216.579 139.912 216.579C139.805 216.579 139.805 216.579 139.805 216.474C139.805 216.053 139.912 215.632 140.018 215.21C140.445 213.632 141.51 212.684 143.002 212.263C144.067 211.947 145.026 211.947 146.092 212.053C147.051 212.053 148.01 212.368 148.862 212.789C149.928 213.316 150.461 214.158 150.674 215.21C150.78 215.526 150.78 215.842 150.78 216.158C150.78 219.316 150.78 222.368 150.78 225.526C150.78 225.632 150.78 225.737 150.567 225.737C149.608 225.737 148.543 225.737 147.584 225.737C147.477 225.737 147.477 225.737 147.477 225.632C147.477 225.316 147.477 224.895 147.477 224.579C147.797 224.368 147.797 224.368 147.69 224.368ZM147.584 219C147.477 219.105 147.371 219.105 147.371 219.105C147.264 219.21 147.051 219.316 146.944 219.316C146.305 219.421 145.772 219.632 145.133 219.737C144.707 219.842 144.387 219.842 144.067 220.053C143.535 220.263 143.215 220.684 143.108 221.21C143.002 221.526 143.002 221.737 143.108 222.053C143.215 222.684 143.641 223.21 144.281 223.316C145.24 223.526 146.092 223.21 146.838 222.684C147.371 222.368 147.477 221.737 147.584 221.21C147.69 220.474 147.584 219.737 147.584 219Z" fill="#EF3829"/>
<path d="M161.116 218.789C161.116 215.421 163.567 213.105 165.698 212.368C169.854 211 173.796 213.526 174.649 217.316C175.075 219.421 174.755 221.316 173.476 223C172.411 224.368 171.026 225.316 169.321 225.632C167.083 226.053 165.059 225.526 163.46 223.947C162.501 223 161.755 221.947 161.436 220.684C161.223 220.053 161.116 219.421 161.116 218.789ZM167.936 215.316C165.911 215.21 164.313 217.105 164.313 218.895C164.313 220.579 165.698 222.474 167.936 222.474C170.173 222.474 171.558 220.579 171.558 218.895C171.558 216.895 170.067 215.21 167.936 215.316Z" fill="#EF3829"/>
<path d="M163.673 232.263C163.673 232.158 163.673 232.158 163.673 232.053C163.673 230.789 163.673 229.421 163.673 228.158C163.673 228.053 163.673 228.053 163.887 228.053C164.632 228.053 165.272 228.053 166.018 228.053C166.124 228.053 166.124 228.053 166.124 228.158C166.124 232.368 166.124 236.579 166.124 240.789C166.124 240.895 166.124 240.895 166.018 240.895C165.378 240.895 164.632 240.895 163.993 240.895C163.887 240.895 163.887 240.895 163.887 240.789C163.887 240.579 163.887 240.368 163.887 240.053H163.78C163.141 240.684 162.395 241 161.436 241C161.01 241 160.583 240.895 160.157 240.789C159.198 240.474 158.665 239.737 158.346 238.789C158.239 238.368 158.133 237.947 158.133 237.421C158.133 236.263 158.026 235.211 158.239 234.053C158.346 233.632 158.452 233.211 158.559 232.789C158.878 232.053 159.411 231.632 160.157 231.421C161.116 231.105 161.969 231.105 162.928 231.526C163.247 231.842 163.46 232.053 163.673 232.263ZM163.673 236.158C163.673 236.053 163.673 236.053 163.673 235.947C163.673 235.421 163.673 234.789 163.46 234.263C163.247 233.842 163.034 233.632 162.608 233.526C162.501 233.526 162.288 233.421 162.182 233.421C161.542 233.421 161.01 233.632 160.69 234.368C160.583 234.789 160.477 235.211 160.477 235.632C160.477 236.263 160.477 236.895 160.583 237.526C160.69 238.263 161.116 238.789 161.969 238.789C162.714 238.789 163.247 238.474 163.46 237.842C163.673 237.316 163.673 236.789 163.673 236.158Z" fill="black"/>
<path d="M156.321 214.263C156.641 213.842 156.854 213.632 157.174 213.316C157.813 212.789 158.559 212.368 159.411 212.158C159.837 212.053 160.264 212.053 160.69 211.947C160.796 211.947 160.796 212.053 160.796 212.053C160.796 212.684 160.796 213.421 160.796 214.053C160.796 214.368 160.796 214.789 160.796 215.105C160.796 215.211 160.796 215.211 160.69 215.211C160.37 215.211 160.051 215.105 159.624 215.211C159.092 215.211 158.665 215.421 158.239 215.632C157.387 216.158 156.747 216.789 156.534 217.842C156.428 218.263 156.428 218.789 156.428 219.211C156.428 221.211 156.428 223.316 156.428 225.316C156.428 225.421 156.428 225.526 156.215 225.526C155.256 225.526 154.297 225.526 153.338 225.526C153.231 225.526 153.231 225.526 153.231 225.421C153.231 221.211 153.231 217 153.231 212.684C153.231 212.579 153.231 212.579 153.338 212.579C154.297 212.579 155.256 212.579 156.215 212.579C156.321 212.579 156.321 212.579 156.321 212.684C156.321 213.316 156.321 213.737 156.321 214.263Z" fill="#EF3829"/>
<path d="M137.781 217.105C137.781 219.842 137.781 222.684 137.781 225.421C137.781 225.526 137.781 225.632 137.568 225.632C136.609 225.632 135.65 225.632 134.584 225.632C134.478 225.632 134.371 225.632 134.371 225.421C134.371 219.842 134.371 214.368 134.371 208.79C134.371 208.684 134.371 208.579 134.584 208.579C135.543 208.579 136.609 208.579 137.568 208.579C137.674 208.579 137.674 208.579 137.674 208.79C137.781 211.632 137.781 214.368 137.781 217.105Z" fill="#EF3829"/>
<path d="M173.263 236.895C172.304 236.895 171.345 236.895 170.386 236.895C170.28 236.895 170.28 236.895 170.28 237C170.28 237.947 170.813 238.684 171.665 238.79C172.624 239 173.583 238.895 174.329 238.158C174.542 237.947 174.542 237.947 174.649 238.158C175.075 238.579 175.394 238.895 175.821 239.316C175.927 239.421 175.927 239.421 175.821 239.421C175.181 240.053 174.329 240.579 173.37 240.79C172.411 240.895 171.452 240.895 170.493 240.579C169.427 240.263 168.681 239.526 168.255 238.474C167.616 236.79 167.616 235.105 168.255 233.526C168.895 232.053 170.067 231.316 171.665 231.211C172.304 231.211 173.05 231.211 173.583 231.526C174.755 232.053 175.501 233 175.821 234.158C175.927 234.684 176.034 235.211 176.034 235.737C176.034 236.053 176.034 236.368 176.034 236.684C176.034 236.79 176.034 236.79 175.927 236.79C175.181 236.895 174.222 236.895 173.263 236.895ZM172.091 235.316C172.624 235.316 173.263 235.316 173.796 235.316C173.903 235.316 173.903 235.316 173.903 235.211C173.903 234.895 173.796 234.684 173.69 234.474C173.263 233.211 171.772 233.211 171.026 233.632C170.493 234.053 170.28 234.579 170.28 235.211C170.28 235.316 170.28 235.316 170.386 235.316C170.919 235.316 171.558 235.316 172.091 235.316Z" fill="black"/>
<path d="M185.73 236.158C185.73 236.895 185.73 237.632 185.517 238.263C185.198 239.526 184.345 240.368 183.066 240.789C182.001 241.105 180.935 241.105 179.87 240.579C178.698 240.053 178.058 239.21 177.845 237.947C177.632 237 177.632 236.053 177.739 235.105C177.739 234.579 177.845 233.947 178.165 233.421C178.698 232.263 179.657 231.632 180.935 231.316C181.681 231.21 182.534 231.21 183.28 231.421C184.558 231.842 185.411 232.789 185.73 234.158C185.73 234.895 185.73 235.526 185.73 236.158ZM180.083 236.158C180.083 236.684 180.083 237.105 180.189 237.632C180.403 238.684 181.148 239.105 182.107 238.895C182.747 238.789 183.066 238.263 183.28 237.737C183.493 236.789 183.493 235.842 183.28 234.895C183.173 234.368 182.96 233.947 182.427 233.737C182.001 233.526 181.681 233.526 181.255 233.632C180.616 233.842 180.296 234.263 180.189 234.789C180.083 235.21 179.976 235.632 180.083 236.158Z" fill="black"/>
<path d="M143.854 231.421C144.174 231.421 144.494 231.421 144.707 231.421C145.239 231.421 145.666 231.421 146.198 231.421C146.305 231.421 146.412 231.421 146.412 231.632C147.051 233.421 147.584 235.316 148.223 237.105V237.211C148.33 237.211 148.223 237.105 148.33 237.105C148.969 235.316 149.502 233.421 150.141 231.526C150.141 231.421 150.248 231.421 150.354 231.421C151.1 231.421 151.846 231.421 152.592 231.421C152.805 231.421 152.805 231.421 152.698 231.526C151.739 234.158 150.674 236.895 149.715 239.526C149.608 239.947 149.395 240.263 149.289 240.684C149.289 240.79 149.182 240.79 149.182 240.79C148.649 240.79 148.116 240.79 147.584 240.79C147.477 240.79 147.477 240.79 147.371 240.684C146.625 238.79 145.985 236.895 145.239 235C144.813 233.842 144.387 232.684 143.961 231.632C143.961 231.526 143.961 231.526 143.854 231.421Z" fill="black"/>
<path d="M175.394 212.579C175.394 212.474 175.288 212.474 175.394 212.579C174.649 211.842 174.009 211.21 173.37 210.579C173.263 210.474 173.37 210.474 173.37 210.368L173.476 210.263C176.034 207.737 178.591 205.21 181.042 202.684C181.148 202.579 181.148 202.579 181.255 202.684C181.894 203.316 182.534 203.947 183.173 204.579C183.279 204.684 183.279 204.684 183.173 204.789C180.616 207.316 178.058 209.842 175.394 212.579C175.394 212.474 175.501 212.474 175.394 212.579Z" fill="#EF3829"/>
<path d="M181.148 215.737C182.534 215.737 183.919 215.737 185.304 215.737C185.411 215.737 185.411 215.737 185.411 215.842C185.411 216.684 185.411 217.632 185.411 218.474C185.411 218.579 185.411 218.579 185.304 218.579C182.534 218.579 179.657 218.579 176.886 218.579C176.78 218.579 176.78 218.579 176.78 218.474C176.78 217.632 176.78 216.684 176.78 215.842C176.78 215.737 176.78 215.737 176.886 215.737C178.378 215.737 179.763 215.737 181.148 215.737Z" fill="#EF3829"/>
<path d="M166.87 205.211C166.87 203.842 166.87 202.474 166.87 201.211C166.87 201.105 166.87 201 166.977 201C167.829 201 168.682 201 169.641 201C169.747 201 169.747 201 169.747 201.105C169.747 203.842 169.747 206.474 169.747 209.211C169.747 209.316 169.747 209.316 169.641 209.316C168.788 209.316 167.829 209.316 166.977 209.316C166.87 209.316 166.87 209.316 166.87 209.211C166.87 207.947 166.87 206.579 166.87 205.211Z" fill="#EF3829"/>
<path d="M153.87 236.158C153.87 234.684 153.87 233.105 153.87 231.632C153.87 231.526 153.87 231.421 153.977 231.421C154.723 231.421 155.362 231.421 156.108 231.421C156.215 231.421 156.215 231.421 156.215 231.526C156.215 234.579 156.215 237.632 156.215 240.684C156.215 240.79 156.215 240.79 156.108 240.79C155.362 240.79 154.723 240.79 153.977 240.79C153.87 240.79 153.87 240.79 153.87 240.684C153.87 239.211 153.87 237.632 153.87 236.158Z" fill="black"/>
<path d="M153.551 228.789C153.551 227.947 154.19 227.316 155.043 227.316C155.895 227.316 156.534 227.947 156.534 228.789C156.534 229.632 155.895 230.263 155.043 230.263C154.19 230.263 153.551 229.632 153.551 228.789Z" fill="black"/>
<path d="M33.9141 268.016C33.9141 267.573 33.7578 267.234 33.4453 267C33.1328 266.76 32.5703 266.51 31.7578 266.25C30.9453 265.984 30.3021 265.724 29.8281 265.469C28.5365 264.771 27.8906 263.831 27.8906 262.648C27.8906 262.034 28.0625 261.487 28.4062 261.008C28.7552 260.523 29.2526 260.146 29.8984 259.875C30.5495 259.604 31.2786 259.469 32.0859 259.469C32.8984 259.469 33.6224 259.617 34.2578 259.914C34.8932 260.206 35.3854 260.62 35.7344 261.156C36.0885 261.693 36.2656 262.302 36.2656 262.984H33.9219C33.9219 262.464 33.7578 262.06 33.4297 261.773C33.1016 261.482 32.6406 261.336 32.0469 261.336C31.474 261.336 31.0286 261.458 30.7109 261.703C30.3932 261.943 30.2344 262.26 30.2344 262.656C30.2344 263.026 30.4193 263.336 30.7891 263.586C31.1641 263.836 31.7135 264.07 32.4375 264.289C33.7708 264.69 34.7422 265.188 35.3516 265.781C35.9609 266.375 36.2656 267.115 36.2656 268C36.2656 268.984 35.8932 269.758 35.1484 270.32C34.4036 270.878 33.401 271.156 32.1406 271.156C31.2656 271.156 30.4688 270.997 29.75 270.68C29.0312 270.357 28.4818 269.917 28.1016 269.359C27.7266 268.802 27.5391 268.156 27.5391 267.422H29.8906C29.8906 268.677 30.6406 269.305 32.1406 269.305C32.6979 269.305 33.1328 269.193 33.4453 268.969C33.7578 268.74 33.9141 268.422 33.9141 268.016ZM46.4688 259.625V267.117C46.4688 268.362 46.0781 269.346 45.2969 270.07C44.5208 270.794 43.4583 271.156 42.1094 271.156C40.7812 271.156 39.7266 270.805 38.9453 270.102C38.1641 269.398 37.7656 268.432 37.75 267.203V259.625H40.0938V267.133C40.0938 267.878 40.2708 268.422 40.625 268.766C40.9844 269.104 41.4792 269.273 42.1094 269.273C43.4271 269.273 44.0964 268.581 44.1172 267.195V259.625H46.4688ZM54.2891 268.016C54.2891 267.573 54.1328 267.234 53.8203 267C53.5078 266.76 52.9453 266.51 52.1328 266.25C51.3203 265.984 50.6771 265.724 50.2031 265.469C48.9115 264.771 48.2656 263.831 48.2656 262.648C48.2656 262.034 48.4375 261.487 48.7812 261.008C49.1302 260.523 49.6276 260.146 50.2734 259.875C50.9245 259.604 51.6536 259.469 52.4609 259.469C53.2734 259.469 53.9974 259.617 54.6328 259.914C55.2682 260.206 55.7604 260.62 56.1094 261.156C56.4635 261.693 56.6406 262.302 56.6406 262.984H54.2969C54.2969 262.464 54.1328 262.06 53.8047 261.773C53.4766 261.482 53.0156 261.336 52.4219 261.336C51.849 261.336 51.4036 261.458 51.0859 261.703C50.7682 261.943 50.6094 262.26 50.6094 262.656C50.6094 263.026 50.7943 263.336 51.1641 263.586C51.5391 263.836 52.0885 264.07 52.8125 264.289C54.1458 264.69 55.1172 265.188 55.7266 265.781C56.3359 266.375 56.6406 267.115 56.6406 268C56.6406 268.984 56.2682 269.758 55.5234 270.32C54.7786 270.878 53.776 271.156 52.5156 271.156C51.6406 271.156 50.8438 270.997 50.125 270.68C49.4062 270.357 48.8568 269.917 48.4766 269.359C48.1016 268.802 47.9141 268.156 47.9141 267.422H50.2656C50.2656 268.677 51.0156 269.305 52.5156 269.305C53.0729 269.305 53.5078 269.193 53.8203 268.969C54.1328 268.74 54.2891 268.422 54.2891 268.016ZM67.1641 267.211C67.0755 268.435 66.6224 269.398 65.8047 270.102C64.9922 270.805 63.9193 271.156 62.5859 271.156C61.1276 271.156 59.9792 270.667 59.1406 269.688C58.3073 268.703 57.8906 267.354 57.8906 265.641V264.945C57.8906 263.852 58.0833 262.888 58.4688 262.055C58.8542 261.221 59.4036 260.583 60.1172 260.141C60.8359 259.693 61.6693 259.469 62.6172 259.469C63.9297 259.469 64.987 259.82 65.7891 260.523C66.5911 261.227 67.0547 262.214 67.1797 263.484H64.8359C64.7786 262.75 64.5729 262.219 64.2188 261.891C63.8698 261.557 63.3359 261.391 62.6172 261.391C61.8359 261.391 61.25 261.672 60.8594 262.234C60.474 262.792 60.276 263.659 60.2656 264.836V265.695C60.2656 266.924 60.4505 267.823 60.8203 268.391C61.1953 268.958 61.7839 269.242 62.5859 269.242C63.3099 269.242 63.849 269.078 64.2031 268.75C64.5625 268.417 64.7682 267.904 64.8203 267.211H67.1641ZM72.9141 266.836H71.0469V271H68.7031V259.625H72.9297C74.2734 259.625 75.3099 259.924 76.0391 260.523C76.7682 261.122 77.1328 261.969 77.1328 263.062C77.1328 263.839 76.9635 264.487 76.625 265.008C76.2917 265.523 75.7839 265.935 75.1016 266.242L77.5625 270.891V271H75.0469L72.9141 266.836ZM71.0469 264.938H72.9375C73.526 264.938 73.9818 264.789 74.3047 264.492C74.6276 264.19 74.7891 263.776 74.7891 263.25C74.7891 262.714 74.6354 262.292 74.3281 261.984C74.026 261.677 73.5599 261.523 72.9297 261.523H71.0469V264.938ZM81.4141 271H79.0703V259.625H81.4141V271ZM85.9375 266.992V271H83.5938V259.625H88.0312C88.8854 259.625 89.6354 259.781 90.2812 260.094C90.9323 260.406 91.4323 260.852 91.7812 261.43C92.1302 262.003 92.3047 262.656 92.3047 263.391C92.3047 264.505 91.9219 265.385 91.1562 266.031C90.3958 266.672 89.3411 266.992 87.9922 266.992H85.9375ZM85.9375 265.094H88.0312C88.651 265.094 89.1224 264.948 89.4453 264.656C89.7734 264.365 89.9375 263.948 89.9375 263.406C89.9375 262.849 89.7734 262.398 89.4453 262.055C89.1172 261.711 88.6641 261.534 88.0859 261.523H85.9375V265.094ZM102.852 267.211C102.763 268.435 102.31 269.398 101.492 270.102C100.68 270.805 99.6068 271.156 98.2734 271.156C96.8151 271.156 95.6667 270.667 94.8281 269.688C93.9948 268.703 93.5781 267.354 93.5781 265.641V264.945C93.5781 263.852 93.7708 262.888 94.1562 262.055C94.5417 261.221 95.0911 260.583 95.8047 260.141C96.5234 259.693 97.3568 259.469 98.3047 259.469C99.6172 259.469 100.674 259.82 101.477 260.523C102.279 261.227 102.742 262.214 102.867 263.484H100.523C100.466 262.75 100.26 262.219 99.9062 261.891C99.5573 261.557 99.0234 261.391 98.3047 261.391C97.5234 261.391 96.9375 261.672 96.5469 262.234C96.1615 262.792 95.9635 263.659 95.9531 264.836V265.695C95.9531 266.924 96.138 267.823 96.5078 268.391C96.8828 268.958 97.4714 269.242 98.2734 269.242C98.9974 269.242 99.5365 269.078 99.8906 268.75C100.25 268.417 100.456 267.904 100.508 267.211H102.852ZM106.883 271H104.539V259.625H106.883V271ZM118.406 265.57C118.406 266.69 118.208 267.672 117.812 268.516C117.417 269.359 116.849 270.01 116.109 270.469C115.375 270.927 114.531 271.156 113.578 271.156C112.635 271.156 111.794 270.93 111.055 270.477C110.315 270.023 109.742 269.378 109.336 268.539C108.93 267.695 108.724 266.727 108.719 265.633V265.07C108.719 263.951 108.919 262.966 109.32 262.117C109.727 261.263 110.297 260.609 111.031 260.156C111.771 259.698 112.615 259.469 113.562 259.469C114.51 259.469 115.352 259.698 116.086 260.156C116.826 260.609 117.396 261.263 117.797 262.117C118.203 262.966 118.406 263.948 118.406 265.062V265.57ZM116.031 265.055C116.031 263.862 115.818 262.956 115.391 262.336C114.964 261.716 114.354 261.406 113.562 261.406C112.776 261.406 112.169 261.714 111.742 262.328C111.315 262.938 111.099 263.833 111.094 265.016V265.57C111.094 266.732 111.307 267.633 111.734 268.273C112.161 268.914 112.776 269.234 113.578 269.234C114.365 269.234 114.969 268.927 115.391 268.312C115.812 267.693 116.026 266.792 116.031 265.609V265.055ZM114.016 256.578H116.477L114.312 259H112.477L114.016 256.578ZM129.359 271H127.016L122.453 263.516V271H120.109V259.625H122.453L127.023 267.125V259.625H129.359V271ZM139.328 266.375C139.328 265.182 139.487 264.047 139.805 262.969C140.122 261.891 140.591 260.938 141.211 260.109C141.831 259.276 142.503 258.698 143.227 258.375L143.664 259.594C142.904 260.156 142.31 261.026 141.883 262.203C141.456 263.38 141.242 264.755 141.242 266.328V266.57C141.242 268.148 141.453 269.529 141.875 270.711C142.297 271.893 142.893 272.776 143.664 273.359L143.227 274.555C142.518 274.237 141.857 273.674 141.242 272.867C140.633 272.065 140.167 271.138 139.844 270.086C139.521 269.034 139.349 267.935 139.328 266.789V266.375ZM152.555 271H144.758V269.453L148.438 265.531C148.943 264.979 149.315 264.497 149.555 264.086C149.799 263.674 149.922 263.284 149.922 262.914C149.922 262.409 149.794 262.013 149.539 261.727C149.284 261.435 148.919 261.289 148.445 261.289C147.935 261.289 147.531 261.466 147.234 261.82C146.943 262.169 146.797 262.63 146.797 263.203H144.531C144.531 262.51 144.695 261.878 145.023 261.305C145.357 260.732 145.826 260.284 146.43 259.961C147.034 259.633 147.719 259.469 148.484 259.469C149.656 259.469 150.565 259.75 151.211 260.312C151.862 260.875 152.188 261.669 152.188 262.695C152.188 263.258 152.042 263.831 151.75 264.414C151.458 264.997 150.958 265.677 150.25 266.453L147.664 269.18H152.555V271ZM160.625 266.719H161.914V268.539H160.625V271H158.367V268.539H153.703L153.602 267.117L158.344 259.625H160.625V266.719ZM155.852 266.719H158.367V262.703L158.219 262.961L155.852 266.719ZM170.422 259.625L173.344 267.875L176.25 259.625H179.328V271H176.977V267.891L177.211 262.523L174.141 271H172.531L169.469 262.531L169.703 267.891V271H167.359V259.625H170.422ZM188.219 266.07H183.719V269.117H189V271H181.375V259.625H188.984V261.523H183.719V264.234H188.219V266.07ZM196.273 268.016C196.273 267.573 196.117 267.234 195.805 267C195.492 266.76 194.93 266.51 194.117 266.25C193.305 265.984 192.661 265.724 192.188 265.469C190.896 264.771 190.25 263.831 190.25 262.648C190.25 262.034 190.422 261.487 190.766 261.008C191.115 260.523 191.612 260.146 192.258 259.875C192.909 259.604 193.638 259.469 194.445 259.469C195.258 259.469 195.982 259.617 196.617 259.914C197.253 260.206 197.745 260.62 198.094 261.156C198.448 261.693 198.625 262.302 198.625 262.984H196.281C196.281 262.464 196.117 262.06 195.789 261.773C195.461 261.482 195 261.336 194.406 261.336C193.833 261.336 193.388 261.458 193.07 261.703C192.753 261.943 192.594 262.26 192.594 262.656C192.594 263.026 192.779 263.336 193.148 263.586C193.523 263.836 194.073 264.07 194.797 264.289C196.13 264.69 197.102 265.188 197.711 265.781C198.32 266.375 198.625 267.115 198.625 268C198.625 268.984 198.253 269.758 197.508 270.32C196.763 270.878 195.76 271.156 194.5 271.156C193.625 271.156 192.828 270.997 192.109 270.68C191.391 270.357 190.841 269.917 190.461 269.359C190.086 268.802 189.898 268.156 189.898 267.422H192.25C192.25 268.677 193 269.305 194.5 269.305C195.057 269.305 195.492 269.193 195.805 268.969C196.117 268.74 196.273 268.422 196.273 268.016ZM207.062 266.07H202.562V269.117H207.844V271H200.219V259.625H207.828V261.523H202.562V264.234H207.062V266.07ZM215.117 268.016C215.117 267.573 214.961 267.234 214.648 267C214.336 266.76 213.773 266.51 212.961 266.25C212.148 265.984 211.505 265.724 211.031 265.469C209.74 264.771 209.094 263.831 209.094 262.648C209.094 262.034 209.266 261.487 209.609 261.008C209.958 260.523 210.456 260.146 211.102 259.875C211.753 259.604 212.482 259.469 213.289 259.469C214.102 259.469 214.826 259.617 215.461 259.914C216.096 260.206 216.589 260.62 216.938 261.156C217.292 261.693 217.469 262.302 217.469 262.984H215.125C215.125 262.464 214.961 262.06 214.633 261.773C214.305 261.482 213.844 261.336 213.25 261.336C212.677 261.336 212.232 261.458 211.914 261.703C211.596 261.943 211.438 262.26 211.438 262.656C211.438 263.026 211.622 263.336 211.992 263.586C212.367 263.836 212.917 264.07 213.641 264.289C214.974 264.69 215.945 265.188 216.555 265.781C217.164 266.375 217.469 267.115 217.469 268C217.469 268.984 217.096 269.758 216.352 270.32C215.607 270.878 214.604 271.156 213.344 271.156C212.469 271.156 211.672 270.997 210.953 270.68C210.234 270.357 209.685 269.917 209.305 269.359C208.93 268.802 208.742 268.156 208.742 267.422H211.094C211.094 268.677 211.844 269.305 213.344 269.305C213.901 269.305 214.336 269.193 214.648 268.969C214.961 268.74 215.117 268.422 215.117 268.016ZM222.805 266.555C222.805 267.732 222.635 268.865 222.297 269.953C221.958 271.042 221.471 272.003 220.836 272.836C220.201 273.669 219.521 274.242 218.797 274.555L218.359 273.359C219.099 272.802 219.682 271.943 220.109 270.781C220.536 269.62 220.758 268.284 220.773 266.773V266.359C220.773 264.802 220.56 263.43 220.133 262.242C219.711 261.055 219.12 260.164 218.359 259.57L218.797 258.375C219.505 258.682 220.172 259.24 220.797 260.047C221.427 260.854 221.914 261.794 222.258 262.867C222.607 263.94 222.789 265.052 222.805 266.203V266.555ZM232.906 264.898H236.078V266.266H232.906V269.859H231.453V266.266H228.281V264.898H231.453V261.578H232.906V264.898ZM242.328 265.297L242.906 259.625H248.734V260.961H244.133L243.789 264.062C244.346 263.734 244.979 263.57 245.688 263.57C246.724 263.57 247.547 263.914 248.156 264.602C248.766 265.284 249.07 266.208 249.07 267.375C249.07 268.547 248.753 269.471 248.117 270.148C247.487 270.82 246.604 271.156 245.469 271.156C244.464 271.156 243.643 270.878 243.008 270.32C242.372 269.763 242.01 268.992 241.922 268.008H243.289C243.378 268.659 243.609 269.151 243.984 269.484C244.359 269.812 244.854 269.977 245.469 269.977C246.141 269.977 246.667 269.747 247.047 269.289C247.432 268.831 247.625 268.198 247.625 267.391C247.625 266.63 247.417 266.021 247 265.562C246.589 265.099 246.039 264.867 245.352 264.867C244.721 264.867 244.227 265.005 243.867 265.281L243.484 265.594L242.328 265.297ZM263.391 269.508C263.005 270.06 262.466 270.474 261.773 270.75C261.086 271.021 260.284 271.156 259.367 271.156C258.44 271.156 257.617 270.94 256.898 270.508C256.18 270.07 255.622 269.451 255.227 268.648C254.836 267.846 254.635 266.917 254.625 265.859V264.867C254.625 263.154 255.023 261.826 255.82 260.883C256.622 259.94 257.747 259.469 259.195 259.469C260.383 259.469 261.339 259.773 262.062 260.383C262.786 260.987 263.229 261.846 263.391 262.961H261.891C261.609 261.456 260.714 260.703 259.203 260.703C258.198 260.703 257.435 261.057 256.914 261.766C256.398 262.469 256.138 263.49 256.133 264.828V265.758C256.133 267.034 256.424 268.049 257.008 268.805C257.591 269.555 258.38 269.93 259.375 269.93C259.938 269.93 260.43 269.867 260.852 269.742C261.273 269.617 261.622 269.406 261.898 269.109V266.555H259.266V265.336H263.391V269.508ZM265.898 271V259.625H269.617C270.852 259.625 271.779 259.88 272.398 260.391C273.023 260.901 273.336 261.656 273.336 262.656C273.336 263.188 273.185 263.659 272.883 264.07C272.581 264.477 272.169 264.792 271.648 265.016C272.263 265.188 272.747 265.516 273.102 266C273.461 266.479 273.641 267.052 273.641 267.719C273.641 268.74 273.31 269.542 272.648 270.125C271.987 270.708 271.052 271 269.844 271H265.898ZM267.398 265.68V269.773H269.875C270.573 269.773 271.122 269.594 271.523 269.234C271.93 268.87 272.133 268.37 272.133 267.734C272.133 266.365 271.388 265.68 269.898 265.68H267.398ZM267.398 264.477H269.664C270.32 264.477 270.844 264.312 271.234 263.984C271.63 263.656 271.828 263.211 271.828 262.648C271.828 262.023 271.646 261.57 271.281 261.289C270.917 261.003 270.362 260.859 269.617 260.859H267.398V264.477Z" fill="#222222"/>
<path d="M29.8203 286.547V291H28.3203V279.625H32.5156C33.7604 279.625 34.7344 279.943 35.4375 280.578C36.1458 281.214 36.5 282.055 36.5 283.102C36.5 284.206 36.1536 285.057 35.4609 285.656C34.7734 286.25 33.7865 286.547 32.5 286.547H29.8203ZM29.8203 285.32H32.5156C33.3177 285.32 33.9323 285.133 34.3594 284.758C34.7865 284.378 35 283.831 35 283.117C35 282.44 34.7865 281.898 34.3594 281.492C33.9323 281.086 33.3464 280.875 32.6016 280.859H29.8203V285.32ZM43.6172 288.031H38.8516L37.7812 291H36.2344L40.5781 279.625H41.8906L46.2422 291H44.7031L43.6172 288.031ZM39.3047 286.797H43.1719L41.2344 281.477L39.3047 286.797ZM51.9453 286.398H49.2734V291H47.7656V279.625H51.5312C52.8125 279.625 53.7969 279.917 54.4844 280.5C55.1771 281.083 55.5234 281.932 55.5234 283.047C55.5234 283.755 55.3307 284.372 54.9453 284.898C54.5651 285.424 54.0339 285.818 53.3516 286.078L56.0234 290.906V291H54.4141L51.9453 286.398ZM49.2734 285.172H51.5781C52.3229 285.172 52.9141 284.979 53.3516 284.594C53.7943 284.208 54.0156 283.693 54.0156 283.047C54.0156 282.344 53.8047 281.805 53.3828 281.43C52.9661 281.055 52.362 280.865 51.5703 280.859H49.2734V285.172ZM63.9141 288.031H59.1484L58.0781 291H56.5312L60.875 279.625H62.1875L66.5391 291H65L63.9141 288.031ZM59.6016 286.797H63.4688L61.5312 281.477L59.6016 286.797ZM80.4062 287.391C80.2656 288.594 79.8203 289.523 79.0703 290.18C78.3255 290.831 77.3333 291.156 76.0938 291.156C74.75 291.156 73.6719 290.674 72.8594 289.711C72.0521 288.747 71.6484 287.458 71.6484 285.844V284.75C71.6484 283.693 71.8359 282.763 72.2109 281.961C72.5911 281.159 73.1276 280.544 73.8203 280.117C74.513 279.685 75.3151 279.469 76.2266 279.469C77.4349 279.469 78.4036 279.807 79.1328 280.484C79.862 281.156 80.2865 282.089 80.4062 283.281H78.8984C78.7682 282.375 78.4844 281.719 78.0469 281.312C77.6146 280.906 77.0078 280.703 76.2266 280.703C75.2682 280.703 74.5156 281.057 73.9688 281.766C73.4271 282.474 73.1562 283.482 73.1562 284.789V285.891C73.1562 287.125 73.4141 288.107 73.9297 288.836C74.4453 289.565 75.1667 289.93 76.0938 289.93C76.9271 289.93 77.5651 289.742 78.0078 289.367C78.4557 288.987 78.7526 288.328 78.8984 287.391H80.4062ZM83.9688 289.773H89.3594V291H82.4609V279.625H83.9688V289.773ZM97.5078 288.031H92.7422L91.6719 291H90.125L94.4688 279.625H95.7812L100.133 291H98.5938L97.5078 288.031ZM93.1953 286.797H97.0625L95.125 281.477L93.1953 286.797ZM105.836 286.398H103.164V291H101.656V279.625H105.422C106.703 279.625 107.688 279.917 108.375 280.5C109.068 281.083 109.414 281.932 109.414 283.047C109.414 283.755 109.221 284.372 108.836 284.898C108.456 285.424 107.924 285.818 107.242 286.078L109.914 290.906V291H108.305L105.836 286.398ZM103.164 285.172H105.469C106.214 285.172 106.805 284.979 107.242 284.594C107.685 284.208 107.906 283.693 107.906 283.047C107.906 282.344 107.695 281.805 107.273 281.43C106.857 281.055 106.253 280.865 105.461 280.859H103.164V285.172ZM120.273 285.68C120.273 286.794 120.086 287.768 119.711 288.602C119.336 289.43 118.805 290.062 118.117 290.5C117.43 290.938 116.628 291.156 115.711 291.156C114.815 291.156 114.021 290.938 113.328 290.5C112.635 290.057 112.096 289.43 111.711 288.617C111.331 287.799 111.135 286.854 111.125 285.781V284.961C111.125 283.867 111.315 282.901 111.695 282.062C112.076 281.224 112.612 280.583 113.305 280.141C114.003 279.693 114.799 279.469 115.695 279.469C116.607 279.469 117.409 279.69 118.102 280.133C118.799 280.57 119.336 281.208 119.711 282.047C120.086 282.88 120.273 283.852 120.273 284.961V285.68ZM118.781 284.945C118.781 283.596 118.51 282.562 117.969 281.844C117.427 281.12 116.669 280.758 115.695 280.758C114.747 280.758 114 281.12 113.453 281.844C112.911 282.562 112.633 283.562 112.617 284.844V285.68C112.617 286.987 112.891 288.016 113.438 288.766C113.99 289.51 114.747 289.883 115.711 289.883C116.68 289.883 117.43 289.531 117.961 288.828C118.492 288.12 118.766 287.107 118.781 285.789V284.945ZM130.258 289.008L133.508 279.625H135.148L130.93 291H129.602L125.391 279.625H127.023L130.258 289.008ZM138.289 291H136.789V279.625H138.289V291ZM141.039 291V279.625H144.25C145.24 279.625 146.115 279.844 146.875 280.281C147.635 280.719 148.221 281.341 148.633 282.148C149.049 282.956 149.26 283.883 149.266 284.93V285.656C149.266 286.729 149.057 287.669 148.641 288.477C148.229 289.284 147.638 289.904 146.867 290.336C146.102 290.768 145.208 290.99 144.188 291H141.039ZM142.539 280.859V289.773H144.117C145.273 289.773 146.172 289.414 146.812 288.695C147.458 287.977 147.781 286.953 147.781 285.625V284.961C147.781 283.669 147.477 282.667 146.867 281.953C146.263 281.234 145.404 280.87 144.289 280.859H142.539ZM157.969 285.742H153.039V289.773H158.766V291H151.539V279.625H158.688V280.859H153.039V284.516H157.969V285.742ZM169.383 285.68C169.383 286.794 169.195 287.768 168.82 288.602C168.445 289.43 167.914 290.062 167.227 290.5C166.539 290.938 165.737 291.156 164.82 291.156C163.924 291.156 163.13 290.938 162.438 290.5C161.745 290.057 161.206 289.43 160.82 288.617C160.44 287.799 160.245 286.854 160.234 285.781V284.961C160.234 283.867 160.424 282.901 160.805 282.062C161.185 281.224 161.721 280.583 162.414 280.141C163.112 279.693 163.909 279.469 164.805 279.469C165.716 279.469 166.518 279.69 167.211 280.133C167.909 280.57 168.445 281.208 168.82 282.047C169.195 282.88 169.383 283.852 169.383 284.961V285.68ZM167.891 284.945C167.891 283.596 167.62 282.562 167.078 281.844C166.536 281.12 165.779 280.758 164.805 280.758C163.857 280.758 163.109 281.12 162.562 281.844C162.021 282.562 161.742 283.562 161.727 284.844V285.68C161.727 286.987 162 288.016 162.547 288.766C163.099 289.51 163.857 289.883 164.82 289.883C165.789 289.883 166.539 289.531 167.07 288.828C167.602 288.12 167.875 287.107 167.891 285.789V284.945Z" fill="#222222"/>
<path d="M24.4902 39.2656L25.707 29.0938H37.3418V32.6758H29.4531L29.002 36.627C29.3301 36.4355 29.7585 36.2669 30.2871 36.1211C30.8249 35.9753 31.349 35.9023 31.8594 35.9023C33.8372 35.9023 35.3548 36.4902 36.4121 37.666C37.4785 38.8327 38.0117 40.4733 38.0117 42.5879C38.0117 43.8639 37.7246 45.0215 37.1504 46.0605C36.5853 47.0905 35.7878 47.8835 34.7578 48.4395C33.7279 48.9954 32.5111 49.2734 31.1074 49.2734C29.8587 49.2734 28.6875 49.0182 27.5938 48.5078C26.5 47.9883 25.6432 47.2819 25.0234 46.3887C24.4036 45.4863 24.0983 44.4701 24.1074 43.3398H28.7285C28.7741 44.069 29.0065 44.6478 29.4258 45.0762C29.8451 45.5046 30.3965 45.7188 31.0801 45.7188C32.6296 45.7188 33.4043 44.5703 33.4043 42.2734C33.4043 40.1497 32.4564 39.0879 30.5605 39.0879C29.485 39.0879 28.6829 39.4342 28.1543 40.127L24.4902 39.2656ZM53.1339 40.8652C53.1339 43.554 52.5278 45.6276 51.3155 47.0859C50.1124 48.5443 48.4126 49.2734 46.2159 49.2734C44.0011 49.2734 42.2876 48.5397 41.0753 47.0723C39.8631 45.6048 39.257 43.5358 39.257 40.8652V37.2285C39.257 34.5397 39.8585 32.4661 41.0616 31.0078C42.2739 29.5495 43.9829 28.8203 46.1886 28.8203C48.3943 28.8203 50.1033 29.554 51.3155 31.0215C52.5278 32.4889 53.1339 34.5625 53.1339 37.2422V40.8652ZM48.5265 36.6406C48.5265 35.2096 48.3396 34.1432 47.9659 33.4414C47.5922 32.7305 46.9998 32.375 46.1886 32.375C45.3956 32.375 44.8168 32.7031 44.4523 33.3594C44.0968 34.0156 43.9054 35.0091 43.878 36.3398V41.4258C43.878 42.9115 44.0649 44.0007 44.4386 44.6934C44.8123 45.377 45.4047 45.7188 46.2159 45.7188C46.9998 45.7188 47.5786 45.3861 47.9523 44.7207C48.326 44.0462 48.5174 42.9935 48.5265 41.5625V36.6406ZM68.2288 40.8652C68.2288 43.554 67.6226 45.6276 66.4104 47.0859C65.2073 48.5443 63.5074 49.2734 61.3108 49.2734C59.0959 49.2734 57.3824 48.5397 56.1702 47.0723C54.9579 45.6048 54.3518 43.5358 54.3518 40.8652V37.2285C54.3518 34.5397 54.9534 32.4661 56.1565 31.0078C57.3687 29.5495 59.0777 28.8203 61.2834 28.8203C63.4892 28.8203 65.1982 29.554 66.4104 31.0215C67.6226 32.4889 68.2288 34.5625 68.2288 37.2422V40.8652ZM63.6213 36.6406C63.6213 35.2096 63.4345 34.1432 63.0608 33.4414C62.6871 32.7305 62.0946 32.375 61.2834 32.375C60.4905 32.375 59.9117 32.7031 59.5471 33.3594C59.1916 34.0156 59.0002 35.0091 58.9729 36.3398V41.4258C58.9729 42.9115 59.1597 44.0007 59.5334 44.6934C59.9071 45.377 60.4996 45.7188 61.3108 45.7188C62.0946 45.7188 62.6734 45.3861 63.0471 44.7207C63.4208 44.0462 63.6122 42.9935 63.6213 41.5625V36.6406ZM81.9438 29.0938L86.3872 42.9434L90.8169 29.0938H97.1333V49H92.3208V44.3516L92.7856 34.8359L87.9731 49H84.8013L79.9751 34.8223L80.4399 44.3516V49H75.6411V29.0938H81.9438ZM104.189 49H99.4039V29.0938H104.189V49ZM123.03 49H118.259L111.204 36.6133V49H106.405V29.0938H111.204L118.245 41.4805V29.0938H123.03V49Z" fill="#EF3829"/>
<defs>
<filter id="filter0_d" x="132.75" y="42.0415" width="23.938" height="24.5625" filterUnits="userSpaceOnUse" color-interpolation-filters="sRGB">
<feFlood flood-opacity="0" result="BackgroundImageFix"/>
<feColorMatrix in="SourceAlpha" type="matrix" values="0 0 0 0 0 0 0 0 0 0 0 0 0 0 0 0 0 0 127 0"/>
<feOffset dx="2" dy="2"/>
<feGaussianBlur stdDeviation="2"/>
<feColorMatrix type="matrix" values="0 0 0 0 0 0 0 0 0 0 0 0 0 0 0 0 0 0 0.15 0"/>
<feBlend mode="normal" in2="BackgroundImageFix" result="effect1_dropShadow"/>
<feBlend mode="normal" in="SourceGraphic" in2="effect1_dropShadow" result="shape"/>
</filter>
<filter id="filter1_d" x="143.75" y="119.656" width="23.938" height="24.563" filterUnits="userSpaceOnUse" color-interpolation-filters="sRGB">
<feFlood flood-opacity="0" result="BackgroundImageFix"/>
<feColorMatrix in="SourceAlpha" type="matrix" values="0 0 0 0 0 0 0 0 0 0 0 0 0 0 0 0 0 0 127 0"/>
<feOffset dx="2" dy="2"/>
<feGaussianBlur stdDeviation="2"/>
<feColorMatrix type="matrix" values="0 0 0 0 0 0 0 0 0 0 0 0 0 0 0 0 0 0 0.15 0"/>
<feBlend mode="normal" in2="BackgroundImageFix" result="effect1_dropShadow"/>
<feBlend mode="normal" in="SourceGraphic" in2="effect1_dropShadow" result="shape"/>
</filter>
</defs>
</svg>
