<svg width="302" height="317" viewBox="0 0 302 317" fill="none" xmlns="http://www.w3.org/2000/svg">
<rect width="302" height="317" fill="#F5F5F5"/>
<path opacity="0.2" d="M32.9494 43.5022C34.246 46.153 36.3948 48.292 39.0515 49.5765C39.2459 49.6686 39.4609 49.7085 39.6754 49.6923C39.8899 49.6761 40.0964 49.6043 40.2747 49.484L44.1866 46.8755C44.3596 46.7601 44.5586 46.6897 44.7657 46.6707C44.9728 46.6517 45.1813 46.6846 45.3724 46.7666L52.6907 49.903C52.9393 50.0086 53.1469 50.1921 53.2821 50.4259C53.4173 50.6597 53.4729 50.9312 53.4405 51.1993C53.2092 53.0093 52.326 54.673 50.9564 55.8787C49.5869 57.0845 47.8247 57.7497 46 57.7498C40.3641 57.7498 34.9591 55.511 30.974 51.5258C26.9888 47.5407 24.75 42.1356 24.75 36.4998C24.7501 34.6751 25.4153 32.9129 26.6211 31.5433C27.8268 30.1738 29.4905 29.2906 31.3005 29.0593C31.5686 29.0269 31.84 29.0824 32.0739 29.2177C32.3077 29.3529 32.4912 29.5604 32.5968 29.809L35.736 37.1337C35.8172 37.3232 35.8502 37.5298 35.8323 37.7351C35.8143 37.9404 35.7458 38.1382 35.6329 38.3106L33.0335 42.2825C32.9152 42.4611 32.8453 42.6674 32.8305 42.8812C32.8158 43.095 32.8567 43.309 32.9494 43.5022Z" fill="#EF3829"/>
<path d="M32.9494 43.5022C34.246 46.153 36.3948 48.292 39.0515 49.5765C39.2459 49.6686 39.4609 49.7085 39.6754 49.6923C39.8899 49.6761 40.0964 49.6043 40.2747 49.484L44.1866 46.8755C44.3596 46.7601 44.5586 46.6897 44.7657 46.6707C44.9728 46.6517 45.1813 46.6846 45.3724 46.7666L52.6907 49.903C52.9393 50.0086 53.1469 50.1921 53.2821 50.4259C53.4173 50.6597 53.4729 50.9312 53.4405 51.1993C53.2092 53.0093 52.326 54.673 50.9564 55.8787C49.5869 57.0845 47.8247 57.7497 46 57.7498C40.3641 57.7498 34.9591 55.511 30.974 51.5258C26.9888 47.5407 24.75 42.1356 24.75 36.4998C24.7501 34.6751 25.4153 32.9129 26.6211 31.5433C27.8268 30.1738 29.4905 29.2906 31.3005 29.0593C31.5686 29.0269 31.84 29.0824 32.0739 29.2177C32.3077 29.3529 32.4912 29.5604 32.5968 29.809L35.736 37.1337C35.8172 37.3232 35.8502 37.5298 35.8323 37.7351C35.8143 37.9404 35.7458 38.1382 35.6329 38.3106L33.0335 42.2825C32.9152 42.4611 32.8453 42.6674 32.8305 42.8812C32.8158 43.095 32.8567 43.309 32.9494 43.5022V43.5022Z" stroke="#EF3829" stroke-width="2" stroke-linecap="round" stroke-linejoin="round"/>
<path d="M83.7656 51H67.8906V47.5625L75.2031 39.875C77.0052 37.8229 77.9062 36.1927 77.9062 34.9844C77.9062 34.0052 77.6927 33.2604 77.2656 32.75C76.8385 32.2396 76.2188 31.9844 75.4062 31.9844C74.6042 31.9844 73.9531 32.3281 73.4531 33.0156C72.9531 33.6927 72.7031 34.5417 72.7031 35.5625H67.4219C67.4219 34.1667 67.7708 32.8802 68.4688 31.7031C69.1667 30.5156 70.1354 29.5885 71.375 28.9219C72.6146 28.2552 74 27.9219 75.5312 27.9219C77.9896 27.9219 79.8802 28.4896 81.2031 29.625C82.5365 30.7604 83.2031 32.3906 83.2031 34.5156C83.2031 35.4115 83.0365 36.2865 82.7031 37.1406C82.3698 37.9844 81.849 38.875 81.1406 39.8125C80.4427 40.7396 79.3125 41.9844 77.75 43.5469L74.8125 46.9375H83.7656V51ZM102.219 41.7031C102.219 44.776 101.526 47.1458 100.141 48.8125C98.7656 50.4792 96.8229 51.3125 94.3125 51.3125C91.7812 51.3125 89.8229 50.474 88.4375 48.7969C87.0521 47.1198 86.3594 44.7552 86.3594 41.7031V37.5469C86.3594 34.474 87.0469 32.1042 88.4219 30.4375C89.8073 28.7708 91.7604 27.9375 94.2812 27.9375C96.8021 27.9375 98.7552 28.776 100.141 30.4531C101.526 32.1302 102.219 34.5 102.219 37.5625V41.7031ZM96.9531 36.875C96.9531 35.2396 96.7396 34.0208 96.3125 33.2188C95.8854 32.4062 95.2083 32 94.2812 32C93.375 32 92.7135 32.375 92.2969 33.125C91.8906 33.875 91.6719 35.0104 91.6406 36.5312V42.3438C91.6406 44.0417 91.8542 45.2865 92.2812 46.0781C92.7083 46.8594 93.3854 47.25 94.3125 47.25C95.2083 47.25 95.8698 46.8698 96.2969 46.1094C96.724 45.3385 96.9427 44.1354 96.9531 42.5V36.875ZM120.75 41.7031C120.75 44.776 120.057 47.1458 118.672 48.8125C117.297 50.4792 115.354 51.3125 112.844 51.3125C110.312 51.3125 108.354 50.474 106.969 48.7969C105.583 47.1198 104.891 44.7552 104.891 41.7031V37.5469C104.891 34.474 105.578 32.1042 106.953 30.4375C108.339 28.7708 110.292 27.9375 112.812 27.9375C115.333 27.9375 117.286 28.776 118.672 30.4531C120.057 32.1302 120.75 34.5 120.75 37.5625V41.7031ZM115.484 36.875C115.484 35.2396 115.271 34.0208 114.844 33.2188C114.417 32.4062 113.74 32 112.812 32C111.906 32 111.245 32.375 110.828 33.125C110.422 33.875 110.203 35.0104 110.172 36.5312V42.3438C110.172 44.0417 110.385 45.2865 110.812 46.0781C111.24 46.8594 111.917 47.25 112.844 47.25C113.74 47.25 114.401 46.8698 114.828 46.1094C115.255 45.3385 115.474 44.1354 115.484 42.5V36.875ZM138.984 28.25L144.062 44.0781L149.125 28.25H156.344V51H150.844V45.6875L151.375 34.8125L145.875 51H142.25L136.734 34.7969L137.266 45.6875V51H131.781V28.25H138.984ZM165.688 51H160.219V28.25H165.688V51ZM188.5 51H183.047L174.984 36.8438V51H169.5V28.25H174.984L183.031 42.4062V28.25H188.5V51ZM209.812 28.25V43.1406C209.812 44.8281 209.453 46.2917 208.734 47.5312C208.016 48.7604 206.984 49.6979 205.641 50.3438C204.297 50.9896 202.708 51.3125 200.875 51.3125C198.104 51.3125 195.922 50.5938 194.328 49.1562C192.734 47.7188 191.922 45.75 191.891 43.25V28.25H197.406V43.3594C197.469 45.849 198.625 47.0938 200.875 47.0938C202.01 47.0938 202.87 46.7812 203.453 46.1562C204.036 45.5312 204.328 44.5156 204.328 43.1094V28.25H209.812ZM231.109 32.4844H224.281V51H218.797V32.4844H212.094V28.25H231.109V32.4844ZM252.266 40.0938C252.266 42.3125 251.854 44.276 251.031 45.9844C250.208 47.6927 249.036 49.0104 247.516 49.9375C246.005 50.8542 244.281 51.3125 242.344 51.3125C240.406 51.3125 238.688 50.8698 237.188 49.9844C235.688 49.0885 234.516 47.8125 233.672 46.1562C232.839 44.5 232.401 42.599 232.359 40.4531V39.1719C232.359 36.9427 232.766 34.9792 233.578 33.2812C234.401 31.5729 235.573 30.2552 237.094 29.3281C238.625 28.401 240.365 27.9375 242.312 27.9375C244.24 27.9375 245.958 28.3958 247.469 29.3125C248.979 30.2292 250.151 31.5365 250.984 33.2344C251.828 34.9219 252.255 36.8594 252.266 39.0469V40.0938ZM246.688 39.1406C246.688 36.8802 246.307 35.1667 245.547 34C244.797 32.8229 243.719 32.2344 242.312 32.2344C239.562 32.2344 238.109 34.2969 237.953 38.4219L237.938 40.0938C237.938 42.3229 238.307 44.0365 239.047 45.2344C239.786 46.4323 240.885 47.0312 242.344 47.0312C243.729 47.0312 244.797 46.4427 245.547 45.2656C246.297 44.0885 246.677 42.3958 246.688 40.1875V39.1406ZM266.828 44.9531C266.828 44.151 266.542 43.526 265.969 43.0781C265.406 42.6302 264.411 42.1667 262.984 41.6875C261.557 41.2083 260.391 40.7448 259.484 40.2969C256.536 38.849 255.062 36.8594 255.062 34.3281C255.062 33.0677 255.427 31.9583 256.156 31C256.896 30.0312 257.938 29.2812 259.281 28.75C260.625 28.2083 262.135 27.9375 263.812 27.9375C265.448 27.9375 266.911 28.2292 268.203 28.8125C269.505 29.3958 270.516 30.2292 271.234 31.3125C271.953 32.3854 272.312 33.6146 272.312 35H266.844C266.844 34.0729 266.557 33.3542 265.984 32.8438C265.422 32.3333 264.656 32.0781 263.688 32.0781C262.708 32.0781 261.932 32.2969 261.359 32.7344C260.797 33.1615 260.516 33.7083 260.516 34.375C260.516 34.9583 260.828 35.4896 261.453 35.9688C262.078 36.4375 263.177 36.9271 264.75 37.4375C266.323 37.9375 267.615 38.4792 268.625 39.0625C271.083 40.4792 272.312 42.4323 272.312 44.9219C272.312 46.9115 271.562 48.474 270.062 49.6094C268.562 50.7448 266.505 51.3125 263.891 51.3125C262.047 51.3125 260.375 50.9844 258.875 50.3281C257.385 49.6615 256.26 48.7552 255.5 47.6094C254.75 46.4531 254.375 45.125 254.375 43.625H259.875C259.875 44.8438 260.188 45.7448 260.812 46.3281C261.448 46.901 262.474 47.1875 263.891 47.1875C264.797 47.1875 265.51 46.9948 266.031 46.6094C266.562 46.2135 266.828 45.6615 266.828 44.9531Z" fill="#EF3829"/>
<path d="M74.1016 66.0312H69.3359L68.2656 69H66.7188L71.0625 57.625H72.375L76.7266 69H75.1875L74.1016 66.0312ZM69.7891 64.7969H73.6562L71.7188 59.4766L69.7891 64.7969ZM91.0534 58.8594H87.3972V69H85.905V58.8594H82.2566V57.625H91.0534V58.8594ZM101.912 63.6797C101.912 64.7943 101.725 65.7682 101.35 66.6016C100.975 67.4297 100.443 68.0625 99.7559 68.5C99.0684 68.9375 98.2664 69.1562 97.3497 69.1562C96.4539 69.1562 95.6596 68.9375 94.9669 68.5C94.2742 68.0573 93.7351 67.4297 93.3497 66.6172C92.9695 65.7995 92.7742 64.8542 92.7638 63.7812V62.9609C92.7638 61.8672 92.9539 60.901 93.3341 60.0625C93.7143 59.224 94.2507 58.5833 94.9434 58.1406C95.6414 57.6927 96.4382 57.4688 97.3341 57.4688C98.2455 57.4688 99.0476 57.6901 99.7403 58.1328C100.438 58.5703 100.975 59.2083 101.35 60.0469C101.725 60.8802 101.912 61.8516 101.912 62.9609V63.6797ZM100.42 62.9453C100.42 61.5964 100.149 60.5625 99.6075 59.8438C99.0658 59.1198 98.308 58.7578 97.3341 58.7578C96.3861 58.7578 95.6388 59.1198 95.0919 59.8438C94.5502 60.5625 94.2716 61.5625 94.2559 62.8438V63.6797C94.2559 64.987 94.5294 66.0156 95.0763 66.7656C95.6283 67.5104 96.3861 67.8828 97.3497 67.8828C98.3184 67.8828 99.0684 67.5312 99.5997 66.8281C100.131 66.1198 100.404 65.1068 100.42 63.7891V62.9453ZM104.802 69V57.625H108.013C109.003 57.625 109.878 57.8438 110.638 58.2812C111.399 58.7188 111.984 59.3411 112.396 60.1484C112.813 60.9557 113.024 61.8828 113.029 62.9297V63.6562C113.029 64.7292 112.82 65.6693 112.404 66.4766C111.992 67.2839 111.401 67.9036 110.63 68.3359C109.865 68.7682 108.971 68.9896 107.951 69H104.802ZM106.302 58.8594V67.7734H107.88C109.037 67.7734 109.935 67.4141 110.576 66.6953C111.221 65.9766 111.544 64.9531 111.544 63.625V62.9609C111.544 61.6693 111.24 60.6667 110.63 59.9531C110.026 59.2344 109.167 58.8698 108.052 58.8594H106.302ZM122.052 66.0312H117.286L116.216 69H114.669L119.013 57.625H120.325L124.677 69H123.138L122.052 66.0312ZM117.739 64.7969H121.606L119.669 59.4766L117.739 64.7969ZM130.199 63.9297C128.913 63.5599 127.975 63.1068 127.387 62.5703C126.804 62.0286 126.512 61.362 126.512 60.5703C126.512 59.6745 126.869 58.9349 127.582 58.3516C128.301 57.763 129.233 57.4688 130.379 57.4688C131.16 57.4688 131.856 57.6198 132.465 57.9219C133.08 58.224 133.554 58.6406 133.887 59.1719C134.225 59.7031 134.395 60.2839 134.395 60.9141H132.887C132.887 60.2266 132.668 59.6875 132.231 59.2969C131.793 58.901 131.176 58.7031 130.379 58.7031C129.639 58.7031 129.061 58.8672 128.645 59.1953C128.233 59.5182 128.028 59.9688 128.028 60.5469C128.028 61.0104 128.223 61.4036 128.613 61.7266C129.009 62.0443 129.679 62.3359 130.621 62.6016C131.569 62.8672 132.309 63.1615 132.84 63.4844C133.376 63.8021 133.772 64.1745 134.028 64.6016C134.288 65.0286 134.418 65.5312 134.418 66.1094C134.418 67.0312 134.059 67.7708 133.34 68.3281C132.621 68.8802 131.66 69.1562 130.457 69.1562C129.676 69.1562 128.947 69.0078 128.27 68.7109C127.593 68.4089 127.069 67.9974 126.699 67.4766C126.335 66.9557 126.153 66.3646 126.153 65.7031H127.66C127.66 66.3906 127.913 66.9349 128.418 67.3359C128.929 67.7318 129.608 67.9297 130.457 67.9297C131.249 67.9297 131.856 67.7682 132.278 67.4453C132.699 67.1224 132.91 66.6823 132.91 66.125C132.91 65.5677 132.715 65.138 132.324 64.8359C131.934 64.5286 131.225 64.2266 130.199 63.9297ZM143.104 67.7734H148.495V69H141.597V57.625H143.104V67.7734ZM157.283 66.0312H152.518L151.448 69H149.901L154.244 57.625H155.557L159.908 69H158.369L157.283 66.0312ZM152.971 64.7969H156.838L154.901 59.4766L152.971 64.7969ZM165.431 63.9297C164.145 63.5599 163.207 63.1068 162.619 62.5703C162.035 62.0286 161.744 61.362 161.744 60.5703C161.744 59.6745 162.101 58.9349 162.814 58.3516C163.533 57.763 164.465 57.4688 165.611 57.4688C166.392 57.4688 167.088 57.6198 167.697 57.9219C168.311 58.224 168.785 58.6406 169.119 59.1719C169.457 59.7031 169.627 60.2839 169.627 60.9141H168.119C168.119 60.2266 167.9 59.6875 167.463 59.2969C167.025 58.901 166.408 58.7031 165.611 58.7031C164.871 58.7031 164.293 58.8672 163.877 59.1953C163.465 59.5182 163.259 59.9688 163.259 60.5469C163.259 61.0104 163.455 61.4036 163.845 61.7266C164.241 62.0443 164.91 62.3359 165.853 62.6016C166.801 62.8672 167.541 63.1615 168.072 63.4844C168.608 63.8021 169.004 64.1745 169.259 64.6016C169.52 65.0286 169.65 65.5312 169.65 66.1094C169.65 67.0312 169.291 67.7708 168.572 68.3281C167.853 68.8802 166.892 69.1562 165.689 69.1562C164.908 69.1562 164.179 69.0078 163.502 68.7109C162.824 68.4089 162.301 67.9974 161.931 67.4766C161.567 66.9557 161.384 66.3646 161.384 65.7031H162.892C162.892 66.3906 163.145 66.9349 163.65 67.3359C164.16 67.7318 164.84 67.9297 165.689 67.9297C166.481 67.9297 167.088 67.7682 167.509 67.4453C167.931 67.1224 168.142 66.6823 168.142 66.125C168.142 65.5677 167.947 65.138 167.556 64.8359C167.166 64.5286 166.457 64.2266 165.431 63.9297ZM185.578 63.6797C185.578 64.7943 185.391 65.7682 185.016 66.6016C184.641 67.4297 184.11 68.0625 183.422 68.5C182.735 68.9375 181.933 69.1562 181.016 69.1562C180.12 69.1562 179.326 68.9375 178.633 68.5C177.94 68.0573 177.401 67.4297 177.016 66.6172C176.636 65.7995 176.44 64.8542 176.43 63.7812V62.9609C176.43 61.8672 176.62 60.901 177 60.0625C177.381 59.224 177.917 58.5833 178.61 58.1406C179.308 57.6927 180.104 57.4688 181 57.4688C181.912 57.4688 182.714 57.6901 183.407 58.1328C184.104 58.5703 184.641 59.2083 185.016 60.0469C185.391 60.8802 185.578 61.8516 185.578 62.9609V63.6797ZM184.086 62.9453C184.086 61.5964 183.815 60.5625 183.274 59.8438C182.732 59.1198 181.974 58.7578 181 58.7578C180.052 58.7578 179.305 59.1198 178.758 59.8438C178.216 60.5625 177.938 61.5625 177.922 62.8438V63.6797C177.922 64.987 178.196 66.0156 178.743 66.7656C179.295 67.5104 180.052 67.8828 181.016 67.8828C181.985 67.8828 182.735 67.5312 183.266 66.8281C183.797 66.1198 184.071 65.1068 184.086 63.7891V62.9453ZM189.968 64.5469V69H188.468V57.625H192.664C193.909 57.625 194.882 57.9427 195.586 58.5781C196.294 59.2135 196.648 60.0547 196.648 61.1016C196.648 62.2057 196.302 63.0573 195.609 63.6562C194.922 64.25 193.935 64.5469 192.648 64.5469H189.968ZM189.968 63.3203H192.664C193.466 63.3203 194.08 63.1328 194.507 62.7578C194.935 62.3776 195.148 61.8307 195.148 61.1172C195.148 60.4401 194.935 59.8984 194.507 59.4922C194.08 59.0859 193.494 58.875 192.75 58.8594H189.968V63.3203ZM205.632 63.7422H200.702V67.7734H206.429V69H199.202V57.625H206.351V58.8594H200.702V62.5156H205.632V63.7422ZM213.108 64.3984H210.436V69H208.928V57.625H212.694C213.975 57.625 214.959 57.9167 215.647 58.5C216.34 59.0833 216.686 59.9323 216.686 61.0469C216.686 61.7552 216.493 62.3724 216.108 62.8984C215.728 63.4245 215.196 63.8177 214.514 64.0781L217.186 68.9062V69H215.577L213.108 64.3984ZM210.436 63.1719H212.741C213.485 63.1719 214.077 62.9792 214.514 62.5938C214.957 62.2083 215.178 61.6927 215.178 61.0469C215.178 60.3438 214.967 59.8047 214.545 59.4297C214.129 59.0547 213.524 58.8646 212.733 58.8594H210.436V63.1719ZM225.717 66.0312H220.951L219.881 69H218.334L222.678 57.625H223.99L228.342 69H226.803L225.717 66.0312ZM221.404 64.7969H225.271L223.334 59.4766L221.404 64.7969ZM230.513 69V57.625H233.724C234.713 57.625 235.588 57.8438 236.349 58.2812C237.109 58.7188 237.695 59.3411 238.107 60.1484C238.523 60.9557 238.734 61.8828 238.739 62.9297V63.6562C238.739 64.7292 238.531 65.6693 238.114 66.4766C237.703 67.2839 237.112 67.9036 236.341 68.3359C235.575 68.7682 234.682 68.9896 233.661 69H230.513ZM232.013 58.8594V67.7734H233.591C234.747 67.7734 235.646 67.4141 236.286 66.6953C236.932 65.9766 237.255 64.9531 237.255 63.625V62.9609C237.255 61.6693 236.95 60.6667 236.341 59.9531C235.737 59.2344 234.877 58.8698 233.763 58.8594H232.013ZM250.403 63.6797C250.403 64.7943 250.215 65.7682 249.84 66.6016C249.465 67.4297 248.934 68.0625 248.247 68.5C247.559 68.9375 246.757 69.1562 245.84 69.1562C244.944 69.1562 244.15 68.9375 243.458 68.5C242.765 68.0573 242.226 67.4297 241.84 66.6172C241.46 65.7995 241.265 64.8542 241.254 63.7812V62.9609C241.254 61.8672 241.444 60.901 241.825 60.0625C242.205 59.224 242.741 58.5833 243.434 58.1406C244.132 57.6927 244.929 57.4688 245.825 57.4688C246.736 57.4688 247.538 57.6901 248.231 58.1328C248.929 58.5703 249.465 59.2083 249.84 60.0469C250.215 60.8802 250.403 61.8516 250.403 62.9609V63.6797ZM248.911 62.9453C248.911 61.5964 248.64 60.5625 248.098 59.8438C247.556 59.1198 246.799 58.7578 245.825 58.7578C244.877 58.7578 244.129 59.1198 243.583 59.8438C243.041 60.5625 242.762 61.5625 242.747 62.8438V63.6797C242.747 64.987 243.02 66.0156 243.567 66.7656C244.119 67.5104 244.877 67.8828 245.84 67.8828C246.809 67.8828 247.559 67.5312 248.09 66.8281C248.622 66.1198 248.895 65.1068 248.911 63.7891V62.9453ZM257.465 64.3984H254.793V69H253.285V57.625H257.051C258.332 57.625 259.316 57.9167 260.004 58.5C260.696 59.0833 261.043 59.9323 261.043 61.0469C261.043 61.7552 260.85 62.3724 260.465 62.8984C260.084 63.4245 259.553 63.8177 258.871 64.0781L261.543 68.9062V69H259.933L257.465 64.3984ZM254.793 63.1719H257.098C257.842 63.1719 258.433 62.9792 258.871 62.5938C259.314 62.2083 259.535 61.6927 259.535 61.0469C259.535 60.3438 259.324 59.8047 258.902 59.4297C258.486 59.0547 257.881 58.8646 257.09 58.8594H254.793V63.1719ZM270.073 66.0312H265.308L264.238 69H262.691L267.034 57.625H268.347L272.698 69H271.159L270.073 66.0312ZM265.761 64.7969H269.628L267.691 59.4766L265.761 64.7969ZM278.221 63.9297C276.935 63.5599 275.997 63.1068 275.409 62.5703C274.825 62.0286 274.534 61.362 274.534 60.5703C274.534 59.6745 274.891 58.9349 275.604 58.3516C276.323 57.763 277.255 57.4688 278.401 57.4688C279.182 57.4688 279.878 57.6198 280.487 57.9219C281.101 58.224 281.575 58.6406 281.909 59.1719C282.247 59.7031 282.417 60.2839 282.417 60.9141H280.909C280.909 60.2266 280.69 59.6875 280.253 59.2969C279.815 58.901 279.198 58.7031 278.401 58.7031C277.661 58.7031 277.083 58.8672 276.667 59.1953C276.255 59.5182 276.049 59.9688 276.049 60.5469C276.049 61.0104 276.245 61.4036 276.635 61.7266C277.031 62.0443 277.7 62.3359 278.643 62.6016C279.591 62.8672 280.331 63.1615 280.862 63.4844C281.398 63.8021 281.794 64.1745 282.049 64.6016C282.31 65.0286 282.44 65.5312 282.44 66.1094C282.44 67.0312 282.081 67.7708 281.362 68.3281C280.643 68.8802 279.682 69.1562 278.479 69.1562C277.698 69.1562 276.969 69.0078 276.292 68.7109C275.614 68.4089 275.091 67.9974 274.721 67.4766C274.357 66.9557 274.174 66.3646 274.174 65.7031H275.682C275.682 66.3906 275.935 66.9349 276.44 67.3359C276.95 67.7318 277.63 67.9297 278.479 67.9297C279.271 67.9297 279.878 67.7682 280.299 67.4453C280.721 67.1224 280.932 66.6823 280.932 66.125C280.932 65.5677 280.737 65.138 280.346 64.8359C279.956 64.5286 279.247 64.2266 278.221 63.9297Z" fill="#222222" fill-opacity="0.8"/>
<path d="M14.9521 120.069H21.5156V122.97H11.1816V107.329H14.9521V120.069ZM26.876 120.069H33.4395V122.97H23.1055V107.329H26.876V120.069ZM44.1279 120.048H38.9609L38.0586 122.97H34.0303L39.7666 107.329H43.3115L49.0908 122.97H45.041L44.1279 120.048ZM39.8633 117.137H43.2256L41.5391 111.712L39.8633 117.137ZM55.1924 107.329L58.6836 118.211L62.1641 107.329H67.127V122.97H63.3457V119.317L63.7109 111.841L59.9297 122.97H57.4375L53.6455 111.83L54.0107 119.317V122.97H50.2402V107.329H55.1924ZM78.6104 120.048H73.4434L72.541 122.97H68.5127L74.249 107.329H77.7939L83.5732 122.97H79.5234L78.6104 120.048ZM74.3457 117.137H77.708L76.0215 111.712L74.3457 117.137ZM84.7227 122.97V107.329H89.7607C91.1429 107.329 92.3854 107.644 93.4883 108.274C94.5911 108.897 95.4505 109.782 96.0664 110.928C96.6895 112.066 97.0046 113.345 97.0117 114.763V115.482C97.0117 116.915 96.7074 118.2 96.0986 119.339C95.4971 120.47 94.6449 121.358 93.542 122.003C92.4463 122.64 91.2217 122.963 89.8682 122.97H84.7227ZM88.4932 110.24V120.069H89.8037C90.8851 120.069 91.7158 119.686 92.2959 118.92C92.876 118.146 93.166 117.001 93.166 115.482V114.806C93.166 113.295 92.876 112.156 92.2959 111.39C91.7158 110.623 90.8708 110.24 89.7607 110.24H88.4932ZM107.593 120.048H102.426L101.523 122.97H97.4951L103.231 107.329H106.776L112.556 122.97H108.506L107.593 120.048ZM103.328 117.137H106.69L105.004 111.712L103.328 117.137ZM121.772 118.812C121.772 118.261 121.576 117.831 121.182 117.523C120.795 117.215 120.111 116.897 119.13 116.567C118.149 116.238 117.347 115.919 116.724 115.611C114.697 114.616 113.684 113.248 113.684 111.508C113.684 110.641 113.934 109.879 114.436 109.22C114.944 108.554 115.66 108.038 116.584 107.673C117.508 107.3 118.546 107.114 119.699 107.114C120.824 107.114 121.83 107.315 122.718 107.716C123.613 108.117 124.308 108.69 124.802 109.435C125.296 110.172 125.543 111.017 125.543 111.97H121.783C121.783 111.332 121.586 110.838 121.192 110.487C120.806 110.136 120.279 109.961 119.613 109.961C118.94 109.961 118.407 110.111 118.013 110.412C117.626 110.706 117.433 111.082 117.433 111.54C117.433 111.941 117.647 112.306 118.077 112.636C118.507 112.958 119.262 113.295 120.344 113.646C121.425 113.989 122.313 114.362 123.008 114.763C124.698 115.737 125.543 117.079 125.543 118.791C125.543 120.159 125.027 121.233 123.996 122.014C122.965 122.794 121.55 123.185 119.753 123.185C118.485 123.185 117.336 122.959 116.305 122.508C115.281 122.049 114.507 121.426 113.984 120.639C113.469 119.844 113.211 118.931 113.211 117.899H116.992C116.992 118.737 117.207 119.357 117.637 119.758C118.074 120.152 118.779 120.349 119.753 120.349C120.376 120.349 120.867 120.216 121.225 119.951C121.59 119.679 121.772 119.299 121.772 118.812ZM15.1992 144.97H11.4395V129.329H15.1992V144.97ZM21.5908 142.069H28.1543V144.97H17.8203V129.329H21.5908V142.069ZM33.7617 144.97H30.002V129.329H33.7617V144.97ZM41.335 129.329L44.8262 140.211L48.3066 129.329H53.2695V144.97H49.4883V141.317L49.8535 133.841L46.0723 144.97H43.5801L39.7881 133.83L40.1533 141.317V144.97H36.3828V129.329H41.335ZM59.6934 144.97H55.9336V129.329H59.6934V144.97ZM74.2705 132.24H69.5762V144.97H65.8057V132.24H61.1973V129.329H74.2705V132.24ZM83.4658 142.048H78.2988L77.3965 144.97H73.3682L79.1045 129.329H82.6494L88.4287 144.97H84.3789L83.4658 142.048ZM79.2012 139.137H82.5635L80.877 133.712L79.2012 139.137ZM89.5781 144.97V129.329H94.6162C95.9984 129.329 97.2409 129.644 98.3438 130.274C99.4466 130.897 100.306 131.782 100.922 132.928C101.545 134.066 101.86 135.345 101.867 136.763V137.482C101.867 138.915 101.563 140.2 100.954 141.339C100.353 142.47 99.5003 143.358 98.3975 144.003C97.3018 144.64 96.0771 144.963 94.7236 144.97H89.5781ZM93.3486 132.24V142.069H94.6592C95.7406 142.069 96.5713 141.686 97.1514 140.92C97.7314 140.146 98.0215 139.001 98.0215 137.482V136.806C98.0215 135.295 97.7314 134.156 97.1514 133.39C96.5713 132.623 95.7262 132.24 94.6162 132.24H93.3486ZM112.448 142.048H107.281L106.379 144.97H102.351L108.087 129.329H111.632L117.411 144.97H113.361L112.448 142.048ZM108.184 139.137H111.546L109.859 133.712L108.184 139.137ZM126.628 140.812C126.628 140.261 126.431 139.831 126.037 139.523C125.65 139.215 124.966 138.897 123.985 138.567C123.004 138.238 122.202 137.919 121.579 137.611C119.552 136.616 118.539 135.248 118.539 133.508C118.539 132.641 118.79 131.879 119.291 131.22C119.799 130.554 120.516 130.038 121.439 129.673C122.363 129.3 123.402 129.114 124.555 129.114C125.679 129.114 126.685 129.315 127.573 129.716C128.468 130.117 129.163 130.69 129.657 131.435C130.151 132.172 130.398 133.017 130.398 133.97H126.639C126.639 133.332 126.442 132.838 126.048 132.487C125.661 132.136 125.135 131.961 124.469 131.961C123.796 131.961 123.262 132.111 122.868 132.412C122.481 132.706 122.288 133.082 122.288 133.54C122.288 133.941 122.503 134.306 122.933 134.636C123.362 134.958 124.118 135.295 125.199 135.646C126.281 135.989 127.169 136.362 127.863 136.763C129.553 137.737 130.398 139.079 130.398 140.791C130.398 142.159 129.883 143.233 128.852 144.014C127.82 144.794 126.406 145.185 124.608 145.185C123.341 145.185 122.191 144.959 121.16 144.508C120.136 144.049 119.363 143.426 118.84 142.639C118.324 141.844 118.066 140.931 118.066 139.899H121.848C121.848 140.737 122.062 141.357 122.492 141.758C122.929 142.152 123.634 142.349 124.608 142.349C125.231 142.349 125.722 142.216 126.08 141.951C126.445 141.679 126.628 141.299 126.628 140.812Z" fill="#222222"/>
<path d="M16.6514 157.372H12.4814L11.5449 159.97H10.1914L13.9922 150.017H15.1406L18.9482 159.97H17.6016L16.6514 157.372ZM12.8779 156.292H16.2617L14.5664 151.637L12.8779 156.292ZM31.4102 159.97H30.0908L25.0801 152.3V159.97H23.7607V150.017H25.0801L30.1045 157.721V150.017H31.4102V159.97ZM40.748 150.017V156.784C40.7435 157.723 40.4473 158.491 39.8594 159.088C39.276 159.685 38.4831 160.02 37.4805 160.093L37.1318 160.106C36.0426 160.106 35.1745 159.812 34.5273 159.225C33.8802 158.637 33.5521 157.828 33.543 156.798V150.017H34.8418V156.757C34.8418 157.477 35.04 158.037 35.4365 158.438C35.833 158.835 36.3981 159.033 37.1318 159.033C37.8747 159.033 38.4421 158.835 38.834 158.438C39.2305 158.042 39.4287 157.484 39.4287 156.764V150.017H40.748ZM37.7676 147.351H39.2988L37.4668 149.36H36.4482L37.7676 147.351ZM44.5146 150.017L47.7686 158.138L51.0225 150.017H52.7246V159.97H51.4121V156.094L51.5352 151.91L48.2676 159.97H47.2627L44.002 151.931L44.1318 156.094V159.97H42.8193V150.017H44.5146ZM60.668 155.369H56.3545V158.896H61.3652V159.97H55.042V150.017H61.2969V151.097H56.3545V154.296H60.668V155.369ZM66.6494 155.943H64.3115V159.97H62.9922V150.017H66.2871C67.4082 150.017 68.2695 150.272 68.8711 150.782C69.4772 151.293 69.7803 152.035 69.7803 153.011C69.7803 153.631 69.6117 154.171 69.2744 154.631C68.9417 155.091 68.4769 155.435 67.8799 155.663L70.2178 159.888V159.97H68.8096L66.6494 155.943ZM64.3115 154.87H66.3281C66.9798 154.87 67.4971 154.701 67.8799 154.364C68.2673 154.027 68.4609 153.576 68.4609 153.011C68.4609 152.396 68.2764 151.924 67.9072 151.596C67.5426 151.268 67.014 151.101 66.3213 151.097H64.3115V154.87ZM79.2822 155.314C79.2822 156.29 79.1182 157.142 78.79 157.871C78.4619 158.596 77.9971 159.149 77.3955 159.532C76.7939 159.915 76.0921 160.106 75.29 160.106C74.5062 160.106 73.8112 159.915 73.2051 159.532C72.599 159.145 72.1273 158.596 71.79 157.885C71.4574 157.169 71.2865 156.342 71.2773 155.403V154.686C71.2773 153.729 71.4437 152.883 71.7764 152.149C72.109 151.416 72.5785 150.855 73.1846 150.468C73.7952 150.076 74.4925 149.88 75.2764 149.88C76.0739 149.88 76.7757 150.074 77.3818 150.461C77.9925 150.844 78.4619 151.402 78.79 152.136C79.1182 152.865 79.2822 153.715 79.2822 154.686V155.314ZM77.9766 154.672C77.9766 153.492 77.7396 152.587 77.2656 151.958C76.7917 151.325 76.1286 151.008 75.2764 151.008C74.4469 151.008 73.793 151.325 73.3145 151.958C72.8405 152.587 72.5967 153.462 72.583 154.583V155.314C72.583 156.458 72.8223 157.358 73.3008 158.015C73.7839 158.666 74.4469 158.992 75.29 158.992C76.1377 158.992 76.7939 158.685 77.2588 158.069C77.7236 157.45 77.9629 156.563 77.9766 155.41V154.672ZM84.1836 155.533C83.0579 155.21 82.2376 154.813 81.7227 154.344C81.2122 153.87 80.957 153.286 80.957 152.594C80.957 151.81 81.2692 151.163 81.8936 150.652C82.5225 150.137 83.3382 149.88 84.3408 149.88C85.0244 149.88 85.6328 150.012 86.166 150.276C86.7038 150.541 87.1185 150.905 87.4102 151.37C87.7064 151.835 87.8545 152.343 87.8545 152.895H86.5352C86.5352 152.293 86.3438 151.821 85.9609 151.479C85.5781 151.133 85.0381 150.96 84.3408 150.96C83.6937 150.96 83.1878 151.104 82.8232 151.391C82.4632 151.673 82.2832 152.067 82.2832 152.573C82.2832 152.979 82.4541 153.323 82.7959 153.605C83.1423 153.883 83.7279 154.139 84.5527 154.371C85.3822 154.604 86.0293 154.861 86.4941 155.144C86.9635 155.422 87.3099 155.747 87.5332 156.121C87.7611 156.495 87.875 156.935 87.875 157.44C87.875 158.247 87.5605 158.894 86.9316 159.382C86.3027 159.865 85.4619 160.106 84.4092 160.106C83.7256 160.106 83.0876 159.977 82.4951 159.717C81.9027 159.452 81.4447 159.092 81.1211 158.637C80.8021 158.181 80.6426 157.664 80.6426 157.085H81.9619C81.9619 157.687 82.1829 158.163 82.625 158.514C83.0716 158.86 83.6663 159.033 84.4092 159.033C85.1019 159.033 85.6328 158.892 86.002 158.609C86.3711 158.327 86.5557 157.942 86.5557 157.454C86.5557 156.966 86.3848 156.59 86.043 156.326C85.7012 156.057 85.0814 155.793 84.1836 155.533ZM100.357 156.812C100.234 157.864 99.8447 158.678 99.1885 159.252C98.5368 159.822 97.6686 160.106 96.584 160.106C95.4082 160.106 94.4648 159.685 93.7539 158.842C93.0475 157.999 92.6943 156.871 92.6943 155.458V154.501C92.6943 153.576 92.8584 152.762 93.1865 152.061C93.5192 151.359 93.9886 150.821 94.5947 150.447C95.2008 150.069 95.9027 149.88 96.7002 149.88C97.7575 149.88 98.6051 150.176 99.2432 150.769C99.8812 151.356 100.253 152.172 100.357 153.216H99.0381C98.9242 152.423 98.6758 151.849 98.293 151.493C97.9147 151.138 97.3838 150.96 96.7002 150.96C95.8617 150.96 95.2031 151.27 94.7246 151.89C94.2507 152.509 94.0137 153.391 94.0137 154.535V155.499C94.0137 156.579 94.2393 157.438 94.6904 158.076C95.1416 158.714 95.7728 159.033 96.584 159.033C97.3132 159.033 97.8714 158.869 98.2588 158.541C98.6507 158.208 98.9105 157.632 99.0381 156.812H100.357ZM103.475 158.896H108.191V159.97H102.155V150.017H103.475V158.896ZM115.321 157.372H111.151L110.215 159.97H108.861L112.662 150.017H113.811L117.618 159.97H116.271L115.321 157.372ZM111.548 156.292H114.932L113.236 151.637L111.548 156.292ZM122.608 155.943H120.271V159.97H118.951V150.017H122.246C123.367 150.017 124.229 150.272 124.83 150.782C125.436 151.293 125.739 152.035 125.739 153.011C125.739 153.631 125.571 154.171 125.233 154.631C124.901 155.091 124.436 155.435 123.839 155.663L126.177 159.888V159.97H124.769L122.608 155.943ZM120.271 154.87H122.287C122.939 154.87 123.456 154.701 123.839 154.364C124.226 154.027 124.42 153.576 124.42 153.011C124.42 152.396 124.235 151.924 123.866 151.596C123.502 151.268 122.973 151.101 122.28 151.097H120.271V154.87ZM135.241 155.314C135.241 156.29 135.077 157.142 134.749 157.871C134.421 158.596 133.956 159.149 133.354 159.532C132.753 159.915 132.051 160.106 131.249 160.106C130.465 160.106 129.77 159.915 129.164 159.532C128.558 159.145 128.086 158.596 127.749 157.885C127.416 157.169 127.245 156.342 127.236 155.403V154.686C127.236 153.729 127.403 152.883 127.735 152.149C128.068 151.416 128.537 150.855 129.144 150.468C129.754 150.076 130.451 149.88 131.235 149.88C132.033 149.88 132.735 150.074 133.341 150.461C133.951 150.844 134.421 151.402 134.749 152.136C135.077 152.865 135.241 153.715 135.241 154.686V155.314ZM133.936 154.672C133.936 153.492 133.699 152.587 133.225 151.958C132.751 151.325 132.088 151.008 131.235 151.008C130.406 151.008 129.752 151.325 129.273 151.958C128.799 152.587 128.556 153.462 128.542 154.583V155.314C128.542 156.458 128.781 157.358 129.26 158.015C129.743 158.666 130.406 158.992 131.249 158.992C132.097 158.992 132.753 158.685 133.218 158.069C133.683 157.45 133.922 156.563 133.936 155.41V154.672Z" fill="#222222"/>
<g filter="url(#filter0_d)">
<path d="M156.516 118.063H161.688L160.906 122.579H155.75L154.672 128.688H149.875L150.938 122.579H145.75L146.531 118.063H151.719L152.75 112.126H157.547L156.516 118.063Z" fill="#EF3829"/>
</g>
<path d="M176.134 107.329L179.625 118.211L183.105 107.329H188.068V122.97H184.287V119.317L184.652 111.841L180.871 122.97H178.379L174.587 111.83L174.952 119.317V122.97H171.182V107.329H176.134ZM200.175 116.342H194.245V120.069H201.249V122.97H190.475V107.329H201.271V110.24H194.245V113.538H200.175V116.342ZM215.848 122.97H212.099L206.556 113.237V122.97H202.785V107.329H206.556L212.088 117.062V107.329H215.848V122.97ZM226.3 118.812C226.3 118.261 226.103 117.831 225.709 117.523C225.322 117.215 224.638 116.897 223.657 116.567C222.676 116.238 221.874 115.919 221.251 115.611C219.224 114.616 218.211 113.248 218.211 111.508C218.211 110.641 218.462 109.879 218.963 109.22C219.471 108.554 220.188 108.038 221.111 107.673C222.035 107.3 223.074 107.114 224.227 107.114C225.351 107.114 226.357 107.315 227.245 107.716C228.14 108.117 228.835 108.69 229.329 109.435C229.823 110.172 230.07 111.017 230.07 111.97H226.311C226.311 111.332 226.114 110.838 225.72 110.487C225.333 110.136 224.807 109.961 224.141 109.961C223.467 109.961 222.934 110.111 222.54 110.412C222.153 110.706 221.96 111.082 221.96 111.54C221.96 111.941 222.175 112.306 222.604 112.636C223.034 112.958 223.79 113.295 224.871 113.646C225.952 113.989 226.84 114.362 227.535 114.763C229.225 115.737 230.07 117.079 230.07 118.791C230.07 120.159 229.555 121.233 228.523 122.014C227.492 122.794 226.078 123.185 224.28 123.185C223.013 123.185 221.863 122.959 220.832 122.508C219.808 122.049 219.035 121.426 218.512 120.639C217.996 119.844 217.738 118.931 217.738 117.899H221.52C221.52 118.737 221.734 119.357 222.164 119.758C222.601 120.152 223.306 120.349 224.28 120.349C224.903 120.349 225.394 120.216 225.752 119.951C226.117 119.679 226.3 119.299 226.3 118.812ZM240.888 120.048H235.721L234.818 122.97H230.79L236.526 107.329H240.071L245.851 122.97H241.801L240.888 120.048ZM236.623 117.137H239.985L238.299 111.712L236.623 117.137ZM253.23 107.329H256.99V118.061C256.99 119.056 256.757 119.944 256.292 120.725C255.834 121.505 255.189 122.11 254.358 122.54C253.535 122.97 252.615 123.185 251.598 123.185C249.893 123.185 248.568 122.755 247.623 121.896C246.678 121.036 246.205 119.819 246.205 118.243H249.986C249.986 118.959 250.108 119.479 250.352 119.801C250.602 120.123 251.018 120.284 251.598 120.284C252.12 120.284 252.521 120.091 252.801 119.704C253.087 119.31 253.23 118.762 253.23 118.061V107.329ZM269.075 116.342H263.146V120.069H270.149V122.97H259.375V107.329H270.171V110.24H263.146V113.538H269.075V116.342ZM279.753 118.812C279.753 118.261 279.556 117.831 279.162 117.523C278.775 117.215 278.091 116.897 277.11 116.567C276.129 116.238 275.327 115.919 274.704 115.611C272.677 114.616 271.664 113.248 271.664 111.508C271.664 110.641 271.915 109.879 272.416 109.22C272.924 108.554 273.641 108.038 274.564 107.673C275.488 107.3 276.527 107.114 277.68 107.114C278.804 107.114 279.81 107.315 280.698 107.716C281.593 108.117 282.288 108.69 282.782 109.435C283.276 110.172 283.523 111.017 283.523 111.97H279.764C279.764 111.332 279.567 110.838 279.173 110.487C278.786 110.136 278.26 109.961 277.594 109.961C276.921 109.961 276.387 110.111 275.993 110.412C275.606 110.706 275.413 111.082 275.413 111.54C275.413 111.941 275.628 112.306 276.058 112.636C276.487 112.958 277.243 113.295 278.324 113.646C279.406 113.989 280.294 114.362 280.988 114.763C282.678 115.737 283.523 117.079 283.523 118.791C283.523 120.159 283.008 121.233 281.977 122.014C280.945 122.794 279.531 123.185 277.733 123.185C276.466 123.185 275.316 122.959 274.285 122.508C273.261 122.049 272.488 121.426 271.965 120.639C271.449 119.844 271.191 118.931 271.191 117.899H274.973C274.973 118.737 275.188 119.357 275.617 119.758C276.054 120.152 276.759 120.349 277.733 120.349C278.356 120.349 278.847 120.216 279.205 119.951C279.57 119.679 279.753 119.299 279.753 118.812ZM175.199 144.97H171.439V129.329H175.199V144.97ZM181.591 142.069H188.154V144.97H177.82V129.329H181.591V142.069ZM193.762 144.97H190.002V129.329H193.762V144.97ZM201.335 129.329L204.826 140.211L208.307 129.329H213.27V144.97H209.488V141.317L209.854 133.841L206.072 144.97H203.58L199.788 133.83L200.153 141.317V144.97H196.383V129.329H201.335ZM219.693 144.97H215.934V129.329H219.693V144.97ZM234.271 132.24H229.576V144.97H225.806V132.24H221.197V129.329H234.271V132.24ZM243.466 142.048H238.299L237.396 144.97H233.368L239.104 129.329H242.649L248.429 144.97H244.379L243.466 142.048ZM239.201 139.137H242.563L240.877 133.712L239.201 139.137ZM249.578 144.97V129.329H254.616C255.998 129.329 257.241 129.644 258.344 130.274C259.447 130.897 260.306 131.782 260.922 132.928C261.545 134.066 261.86 135.345 261.867 136.763V137.482C261.867 138.915 261.563 140.2 260.954 141.339C260.353 142.47 259.5 143.358 258.397 144.003C257.302 144.64 256.077 144.963 254.724 144.97H249.578ZM253.349 132.24V142.069H254.659C255.741 142.069 256.571 141.686 257.151 140.92C257.731 140.146 258.021 139.001 258.021 137.482V136.806C258.021 135.295 257.731 134.156 257.151 133.39C256.571 132.623 255.726 132.24 254.616 132.24H253.349ZM277.046 137.472C277.046 138.997 276.763 140.347 276.197 141.521C275.632 142.696 274.826 143.602 273.78 144.239C272.742 144.869 271.557 145.185 270.225 145.185C268.893 145.185 267.711 144.88 266.68 144.271C265.648 143.656 264.843 142.778 264.263 141.64C263.69 140.501 263.389 139.194 263.36 137.719V136.838C263.36 135.305 263.64 133.955 264.198 132.788C264.764 131.614 265.57 130.708 266.615 130.07C267.668 129.433 268.864 129.114 270.203 129.114C271.528 129.114 272.71 129.429 273.748 130.06C274.786 130.69 275.592 131.589 276.165 132.756C276.745 133.916 277.039 135.248 277.046 136.752V137.472ZM273.211 136.816C273.211 135.262 272.95 134.084 272.427 133.282C271.911 132.473 271.17 132.068 270.203 132.068C268.312 132.068 267.313 133.486 267.206 136.322L267.195 137.472C267.195 139.004 267.45 140.182 267.958 141.006C268.466 141.829 269.222 142.241 270.225 142.241C271.177 142.241 271.911 141.837 272.427 141.027C272.942 140.218 273.204 139.054 273.211 137.536V136.816ZM287.058 140.812C287.058 140.261 286.861 139.831 286.467 139.523C286.08 139.215 285.396 138.897 284.415 138.567C283.434 138.238 282.632 137.919 282.009 137.611C279.982 136.616 278.969 135.248 278.969 133.508C278.969 132.641 279.219 131.879 279.721 131.22C280.229 130.554 280.945 130.038 281.869 129.673C282.793 129.3 283.831 129.114 284.984 129.114C286.109 129.114 287.115 129.315 288.003 129.716C288.898 130.117 289.593 130.69 290.087 131.435C290.581 132.172 290.828 133.017 290.828 133.97H287.068C287.068 133.332 286.871 132.838 286.478 132.487C286.091 132.136 285.564 131.961 284.898 131.961C284.225 131.961 283.692 132.111 283.298 132.412C282.911 132.706 282.718 133.082 282.718 133.54C282.718 133.941 282.933 134.306 283.362 134.636C283.792 134.958 284.548 135.295 285.629 135.646C286.71 135.989 287.598 136.362 288.293 136.763C289.983 137.737 290.828 139.079 290.828 140.791C290.828 142.159 290.312 143.233 289.281 144.014C288.25 144.794 286.836 145.185 285.038 145.185C283.771 145.185 282.621 144.959 281.59 144.508C280.566 144.049 279.792 143.426 279.27 142.639C278.754 141.844 278.496 140.931 278.496 139.899H282.277C282.277 140.737 282.492 141.357 282.922 141.758C283.359 142.152 284.064 142.349 285.038 142.349C285.661 142.349 286.152 142.216 286.51 141.951C286.875 141.679 287.058 141.299 287.058 140.812Z" fill="#222222"/>
<path d="M172.851 150.017L176.104 158.138L179.358 150.017H181.061V159.97H179.748V156.094L179.871 151.91L176.604 159.97H175.599L172.338 151.931L172.468 156.094V159.97H171.155V150.017H172.851ZM190.385 150.017V156.784C190.38 157.723 190.084 158.491 189.496 159.088C188.913 159.685 188.12 160.02 187.117 160.093L186.769 160.106C185.679 160.106 184.811 159.812 184.164 159.225C183.517 158.637 183.189 157.828 183.18 156.798V150.017H184.479V156.757C184.479 157.477 184.677 158.037 185.073 158.438C185.47 158.835 186.035 159.033 186.769 159.033C187.511 159.033 188.079 158.835 188.471 158.438C188.867 158.042 189.065 157.484 189.065 156.764V150.017H190.385ZM193.775 158.896H198.492V159.97H192.456V150.017H193.775V158.896ZM204.979 151.097H201.78V159.97H200.475V151.097H197.282V150.017H204.979V151.097ZM207.864 159.97H206.552V150.017H207.864V159.97ZM210.271 159.97V150.017H213.08C213.946 150.017 214.712 150.208 215.377 150.591C216.042 150.974 216.555 151.518 216.915 152.225C217.28 152.931 217.464 153.742 217.469 154.658V155.294C217.469 156.233 217.286 157.055 216.922 157.762C216.562 158.468 216.045 159.01 215.37 159.389C214.7 159.767 213.919 159.961 213.025 159.97H210.271ZM211.583 151.097V158.896H212.964C213.976 158.896 214.762 158.582 215.322 157.953C215.887 157.324 216.17 156.429 216.17 155.267V154.686C216.17 153.555 215.903 152.678 215.37 152.054C214.841 151.425 214.09 151.106 213.114 151.097H211.583ZM225.084 155.369H220.771V158.896H225.781V159.97H219.458V150.017H225.713V151.097H220.771V154.296H225.084V155.369ZM230.348 155.533C229.222 155.21 228.402 154.813 227.887 154.344C227.376 153.87 227.121 153.286 227.121 152.594C227.121 151.81 227.433 151.163 228.058 150.652C228.687 150.137 229.502 149.88 230.505 149.88C231.188 149.88 231.797 150.012 232.33 150.276C232.868 150.541 233.283 150.905 233.574 151.37C233.87 151.835 234.019 152.343 234.019 152.895H232.699C232.699 152.293 232.508 151.821 232.125 151.479C231.742 151.133 231.202 150.96 230.505 150.96C229.858 150.96 229.352 151.104 228.987 151.391C228.627 151.673 228.447 152.067 228.447 152.573C228.447 152.979 228.618 153.323 228.96 153.605C229.306 153.883 229.892 154.139 230.717 154.371C231.546 154.604 232.193 154.861 232.658 155.144C233.128 155.422 233.474 155.747 233.697 156.121C233.925 156.495 234.039 156.935 234.039 157.44C234.039 158.247 233.725 158.894 233.096 159.382C232.467 159.865 231.626 160.106 230.573 160.106C229.89 160.106 229.252 159.977 228.659 159.717C228.067 159.452 227.609 159.092 227.285 158.637C226.966 158.181 226.807 157.664 226.807 157.085H228.126C228.126 157.687 228.347 158.163 228.789 158.514C229.236 158.86 229.83 159.033 230.573 159.033C231.266 159.033 231.797 158.892 232.166 158.609C232.535 158.327 232.72 157.942 232.72 157.454C232.72 156.966 232.549 156.59 232.207 156.326C231.865 156.057 231.245 155.793 230.348 155.533ZM242.604 151.097H239.405V159.97H238.1V151.097H234.907V150.017H242.604V151.097ZM245.489 159.97H244.177V150.017H245.489V159.97ZM255.545 159.97H254.226L249.215 152.3V159.97H247.896V150.017H249.215L254.239 157.721V150.017H255.545V159.97ZM265.532 155.314C265.532 156.29 265.368 157.142 265.04 157.871C264.712 158.596 264.247 159.149 263.646 159.532C263.044 159.915 262.342 160.106 261.54 160.106C260.756 160.106 260.061 159.915 259.455 159.532C258.849 159.145 258.377 158.596 258.04 157.885C257.707 157.169 257.536 156.342 257.527 155.403V154.686C257.527 153.729 257.694 152.883 258.026 152.149C258.359 151.416 258.828 150.855 259.435 150.468C260.045 150.076 260.743 149.88 261.526 149.88C262.324 149.88 263.026 150.074 263.632 150.461C264.243 150.844 264.712 151.402 265.04 152.136C265.368 152.865 265.532 153.715 265.532 154.686V155.314ZM264.227 154.672C264.227 153.492 263.99 152.587 263.516 151.958C263.042 151.325 262.379 151.008 261.526 151.008C260.697 151.008 260.043 151.325 259.564 151.958C259.09 152.587 258.847 153.462 258.833 154.583V155.314C258.833 156.458 259.072 157.358 259.551 158.015C260.034 158.666 260.697 158.992 261.54 158.992C262.388 158.992 263.044 158.685 263.509 158.069C263.974 157.45 264.213 156.563 264.227 155.41V154.672Z" fill="#222222"/>
<g clip-path="url(#clip0)">
<path d="M130.133 210.939C130.011 210.939 130.011 210.939 130.011 210.939C128.784 210.939 127.557 210.939 126.452 210.939C126.33 210.939 126.207 210.939 126.207 210.818C125.348 209.242 124.121 208.152 122.403 207.667C119.949 207.061 117.986 207.788 116.268 209.606C115.287 210.697 114.796 212.03 114.796 213.485C114.796 214.576 115.041 215.545 115.532 216.515C116.514 218.091 117.863 219.182 119.704 219.424C122.035 219.788 123.998 219.061 125.471 217.121C125.716 216.879 125.839 216.515 126.084 216.152C126.084 216.03 126.207 216.03 126.33 216.03C127.557 216.03 128.784 216.03 130.011 216.03C130.133 216.03 130.133 216.03 130.133 216.152C129.643 217.97 128.661 219.546 127.189 220.758C125.716 221.97 124.121 222.818 122.158 223.061C119.949 223.303 117.741 223.061 115.778 221.849C113.201 220.273 111.606 217.97 111.115 215.061C110.747 212.394 111.238 209.849 112.955 207.667C114.06 206.333 115.287 205.121 116.882 204.515C117.741 204.152 118.6 203.909 119.581 203.909C120.931 203.788 122.281 203.788 123.63 204.273C126.33 205.121 128.293 206.818 129.52 209.364C129.765 209.849 129.888 210.333 130.133 210.939Z" fill="#EF3829"/>
<path d="M147.189 221.849C147.066 221.849 147.066 221.97 147.066 221.97C146.207 222.576 145.226 222.939 144.244 223.182C143.385 223.303 142.526 223.424 141.667 223.303C140.072 223.061 138.845 222.455 138.232 220.879C137.986 220.152 137.864 219.424 137.986 218.697C137.986 218.091 138.109 217.485 138.354 216.879C138.845 215.788 139.704 215.061 140.808 214.576C141.667 214.212 142.526 214.091 143.385 213.97C144.244 213.849 145.103 213.727 145.962 213.606C146.575 213.485 147.066 212.879 146.943 212.152C146.821 211.546 146.575 211.182 145.962 210.939C145.226 210.697 144.612 210.697 143.876 210.818C143.631 210.818 143.385 210.939 143.14 210.939C142.526 211.182 142.158 211.788 141.913 212.394V212.515C141.79 212.879 141.79 212.879 141.545 212.879C140.44 212.879 139.336 212.879 138.232 212.879C138.109 212.879 138.109 212.879 138.109 212.758C138.109 212.273 138.232 211.788 138.354 211.303C138.845 209.485 140.072 208.394 141.79 207.909C143.017 207.546 144.121 207.546 145.348 207.667C146.453 207.667 147.557 208.03 148.539 208.515C149.766 209.121 150.379 210.091 150.624 211.303C150.747 211.667 150.747 212.03 150.747 212.394C150.747 216.03 150.747 219.546 150.747 223.182C150.747 223.303 150.747 223.424 150.502 223.424C149.397 223.424 148.17 223.424 147.066 223.424C146.943 223.424 146.943 223.424 146.943 223.303C146.943 222.939 146.943 222.455 146.943 222.091C147.312 221.849 147.312 221.849 147.189 221.849ZM147.066 215.667C146.943 215.788 146.821 215.788 146.821 215.788C146.698 215.909 146.453 216.03 146.33 216.03C145.594 216.152 144.98 216.394 144.244 216.515C143.753 216.636 143.385 216.636 143.017 216.879C142.404 217.121 142.035 217.606 141.913 218.212C141.79 218.576 141.79 218.818 141.913 219.182C142.035 219.909 142.526 220.515 143.262 220.636C144.367 220.879 145.348 220.515 146.207 219.909C146.821 219.546 146.943 218.818 147.066 218.212C147.189 217.364 147.066 216.515 147.066 215.667Z" fill="#EF3829"/>
<path d="M162.649 215.424C162.649 211.546 165.471 208.879 167.925 208.03C172.71 206.455 177.25 209.364 178.232 213.727C178.723 216.152 178.354 218.334 176.882 220.273C175.655 221.849 174.06 222.94 172.097 223.303C169.52 223.788 167.189 223.182 165.348 221.364C164.244 220.273 163.385 219.061 163.017 217.606C162.772 216.879 162.649 216.152 162.649 215.424ZM170.502 211.424C168.17 211.303 166.33 213.485 166.33 215.546C166.33 217.485 167.925 219.667 170.502 219.667C173.078 219.667 174.673 217.485 174.673 215.546C174.673 213.243 172.956 211.303 170.502 211.424Z" fill="#EF3829"/>
<path d="M165.594 230.939C165.594 230.818 165.594 230.818 165.594 230.697C165.594 229.242 165.594 227.667 165.594 226.212C165.594 226.091 165.594 226.091 165.839 226.091C166.698 226.091 167.434 226.091 168.293 226.091C168.416 226.091 168.416 226.091 168.416 226.212C168.416 231.061 168.416 235.909 168.416 240.757C168.416 240.879 168.416 240.879 168.293 240.879C167.557 240.879 166.698 240.879 165.962 240.879C165.839 240.879 165.839 240.879 165.839 240.757C165.839 240.515 165.839 240.273 165.839 239.909H165.716C164.98 240.636 164.121 241 163.017 241C162.526 241 162.035 240.879 161.545 240.757C160.44 240.394 159.827 239.545 159.459 238.454C159.336 237.97 159.213 237.485 159.213 236.879C159.213 235.545 159.091 234.333 159.336 233C159.459 232.515 159.581 232.03 159.704 231.545C160.072 230.697 160.686 230.212 161.545 229.97C162.649 229.606 163.63 229.606 164.735 230.091C165.103 230.454 165.348 230.697 165.594 230.939ZM165.594 235.424C165.594 235.303 165.594 235.303 165.594 235.182C165.594 234.576 165.594 233.848 165.348 233.242C165.103 232.757 164.857 232.515 164.367 232.394C164.244 232.394 163.999 232.273 163.876 232.273C163.14 232.273 162.526 232.515 162.158 233.364C162.035 233.848 161.913 234.333 161.913 234.818C161.913 235.545 161.913 236.273 162.035 237C162.158 237.848 162.649 238.454 163.63 238.454C164.489 238.454 165.103 238.091 165.348 237.364C165.594 236.757 165.594 236.151 165.594 235.424Z" fill="black"/>
<path d="M157.127 210.212C157.495 209.727 157.741 209.485 158.109 209.121C158.845 208.515 159.704 208.03 160.686 207.788C161.176 207.667 161.667 207.667 162.158 207.545C162.281 207.545 162.281 207.667 162.281 207.667C162.281 208.394 162.281 209.242 162.281 209.97C162.281 210.333 162.281 210.818 162.281 211.182C162.281 211.303 162.281 211.303 162.158 211.303C161.79 211.303 161.422 211.182 160.931 211.303C160.318 211.303 159.827 211.545 159.336 211.788C158.354 212.394 157.618 213.121 157.373 214.333C157.25 214.818 157.25 215.424 157.25 215.909C157.25 218.212 157.25 220.636 157.25 222.939C157.25 223.061 157.25 223.182 157.005 223.182C155.9 223.182 154.796 223.182 153.692 223.182C153.569 223.182 153.569 223.182 153.569 223.061C153.569 218.212 153.569 213.364 153.569 208.394C153.569 208.273 153.569 208.273 153.692 208.273C154.796 208.273 155.9 208.273 157.005 208.273C157.127 208.273 157.127 208.273 157.127 208.394C157.127 209.121 157.127 209.606 157.127 210.212Z" fill="#EF3829"/>
<path d="M135.778 213.485C135.778 216.637 135.778 219.909 135.778 223.061C135.778 223.182 135.778 223.303 135.532 223.303C134.428 223.303 133.324 223.303 132.097 223.303C131.974 223.303 131.851 223.303 131.851 223.061C131.851 216.637 131.851 210.334 131.851 203.909C131.851 203.788 131.851 203.667 132.097 203.667C133.201 203.667 134.428 203.667 135.532 203.667C135.655 203.667 135.655 203.667 135.655 203.909C135.778 207.182 135.778 210.334 135.778 213.485Z" fill="#EF3829"/>
<path d="M176.637 236.273C175.532 236.273 174.428 236.273 173.324 236.273C173.201 236.273 173.201 236.273 173.201 236.394C173.201 237.485 173.815 238.334 174.796 238.455C175.9 238.697 177.005 238.576 177.864 237.728C178.109 237.485 178.109 237.485 178.232 237.728C178.723 238.212 179.091 238.576 179.581 239.061C179.704 239.182 179.704 239.182 179.581 239.182C178.845 239.909 177.864 240.515 176.759 240.758C175.655 240.879 174.551 240.879 173.446 240.515C172.219 240.152 171.361 239.303 170.87 238.091C170.134 236.152 170.134 234.212 170.87 232.394C171.606 230.697 172.956 229.849 174.796 229.728C175.532 229.728 176.391 229.728 177.005 230.091C178.354 230.697 179.213 231.788 179.581 233.121C179.704 233.728 179.827 234.334 179.827 234.94C179.827 235.303 179.827 235.667 179.827 236.031C179.827 236.152 179.827 236.152 179.704 236.152C178.845 236.273 177.741 236.273 176.637 236.273ZM175.287 234.455C175.9 234.455 176.637 234.455 177.25 234.455C177.373 234.455 177.373 234.455 177.373 234.334C177.373 233.97 177.25 233.728 177.127 233.485C176.637 232.031 174.919 232.031 174.06 232.515C173.446 233 173.201 233.606 173.201 234.334C173.201 234.455 173.201 234.455 173.324 234.455C173.937 234.455 174.673 234.455 175.287 234.455Z" fill="black"/>
<path d="M190.993 235.424C190.993 236.273 190.993 237.121 190.747 237.849C190.379 239.303 189.397 240.273 187.925 240.758C186.698 241.121 185.471 241.121 184.244 240.515C182.894 239.909 182.158 238.94 181.913 237.485C181.667 236.394 181.667 235.303 181.79 234.212C181.79 233.606 181.913 232.879 182.281 232.273C182.894 230.94 183.999 230.212 185.471 229.849C186.33 229.727 187.312 229.727 188.17 229.97C189.643 230.455 190.624 231.546 190.993 233.121C190.993 233.97 190.993 234.697 190.993 235.424ZM184.489 235.424C184.489 236.03 184.489 236.515 184.612 237.121C184.858 238.334 185.716 238.818 186.821 238.576C187.557 238.455 187.925 237.849 188.17 237.243C188.416 236.152 188.416 235.061 188.17 233.97C188.048 233.364 187.802 232.879 187.189 232.637C186.698 232.394 186.33 232.394 185.839 232.515C185.103 232.758 184.735 233.243 184.612 233.849C184.489 234.334 184.367 234.818 184.489 235.424Z" fill="black"/>
<path d="M142.771 229.97C143.14 229.97 143.508 229.97 143.753 229.97C144.367 229.97 144.857 229.97 145.471 229.97C145.594 229.97 145.716 229.97 145.716 230.212C146.452 232.273 147.066 234.455 147.802 236.515V236.636C147.925 236.636 147.802 236.515 147.925 236.515C148.661 234.455 149.275 232.273 150.011 230.091C150.011 229.97 150.133 229.97 150.256 229.97C151.115 229.97 151.974 229.97 152.833 229.97C153.078 229.97 153.078 229.97 152.956 230.091C151.851 233.121 150.624 236.273 149.52 239.303C149.397 239.788 149.152 240.152 149.029 240.636C149.029 240.758 148.906 240.758 148.906 240.758C148.293 240.758 147.679 240.758 147.066 240.758C146.943 240.758 146.943 240.758 146.821 240.636C145.962 238.455 145.225 236.273 144.367 234.091C143.876 232.758 143.385 231.424 142.894 230.212C142.894 230.091 142.894 230.091 142.771 229.97Z" fill="black"/>
<path d="M179.09 208.273C179.09 208.152 178.968 208.152 179.09 208.273C178.232 207.424 177.495 206.697 176.759 205.97C176.636 205.849 176.759 205.849 176.759 205.727L176.882 205.606C179.827 202.697 182.771 199.788 185.593 196.879C185.716 196.758 185.716 196.758 185.839 196.879C186.575 197.606 187.311 198.334 188.047 199.061C188.17 199.182 188.17 199.182 188.047 199.303C185.103 202.212 182.158 205.121 179.09 208.273C179.213 208.152 179.09 208.152 179.09 208.273Z" fill="#EF3829"/>
<path d="M185.716 211.909C187.311 211.909 188.906 211.909 190.502 211.909C190.624 211.909 190.624 211.909 190.624 212.03C190.624 213 190.624 214.091 190.624 215.061C190.624 215.182 190.624 215.182 190.502 215.182C187.311 215.182 183.998 215.182 180.808 215.182C180.686 215.182 180.686 215.182 180.686 215.061C180.686 214.091 180.686 213 180.686 212.03C180.686 211.909 180.686 211.909 180.808 211.909C182.526 211.909 184.121 211.909 185.716 211.909Z" fill="#EF3829"/>
<path d="M169.275 199.788C169.275 198.212 169.275 196.636 169.275 195.182C169.275 195.061 169.275 194.939 169.397 194.939C170.379 194.939 171.361 194.939 172.465 194.939C172.588 194.939 172.588 194.939 172.588 195.061C172.588 198.212 172.588 201.242 172.588 204.394C172.588 204.515 172.588 204.515 172.465 204.515C171.483 204.515 170.379 204.515 169.397 204.515C169.275 204.515 169.275 204.515 169.275 204.394C169.275 202.939 169.275 201.364 169.275 199.788Z" fill="#EF3829"/>
<path d="M154.305 235.424C154.305 233.727 154.305 231.909 154.305 230.212C154.305 230.091 154.305 229.97 154.428 229.97C155.287 229.97 156.023 229.97 156.882 229.97C157.005 229.97 157.005 229.97 157.005 230.091C157.005 233.606 157.005 237.121 157.005 240.636C157.005 240.758 157.005 240.758 156.882 240.758C156.023 240.758 155.287 240.758 154.428 240.758C154.305 240.758 154.305 240.758 154.305 240.636C154.305 238.939 154.305 237.121 154.305 235.424Z" fill="black"/>
<path d="M153.937 226.94C153.937 225.97 154.673 225.243 155.655 225.243C156.637 225.243 157.373 225.97 157.373 226.94C157.373 227.909 156.637 228.637 155.655 228.637C154.673 228.637 153.937 227.909 153.937 226.94Z" fill="black"/>
</g>
<path d="M35.9141 268.016C35.9141 267.573 35.7578 267.234 35.4453 267C35.1328 266.76 34.5703 266.51 33.7578 266.25C32.9453 265.984 32.3021 265.724 31.8281 265.469C30.5365 264.771 29.8906 263.831 29.8906 262.648C29.8906 262.034 30.0625 261.487 30.4062 261.008C30.7552 260.523 31.2526 260.146 31.8984 259.875C32.5495 259.604 33.2786 259.469 34.0859 259.469C34.8984 259.469 35.6224 259.617 36.2578 259.914C36.8932 260.206 37.3854 260.62 37.7344 261.156C38.0885 261.693 38.2656 262.302 38.2656 262.984H35.9219C35.9219 262.464 35.7578 262.06 35.4297 261.773C35.1016 261.482 34.6406 261.336 34.0469 261.336C33.474 261.336 33.0286 261.458 32.7109 261.703C32.3932 261.943 32.2344 262.26 32.2344 262.656C32.2344 263.026 32.4193 263.336 32.7891 263.586C33.1641 263.836 33.7135 264.07 34.4375 264.289C35.7708 264.69 36.7422 265.188 37.3516 265.781C37.9609 266.375 38.2656 267.115 38.2656 268C38.2656 268.984 37.8932 269.758 37.1484 270.32C36.4036 270.878 35.401 271.156 34.1406 271.156C33.2656 271.156 32.4688 270.997 31.75 270.68C31.0312 270.357 30.4818 269.917 30.1016 269.359C29.7266 268.802 29.5391 268.156 29.5391 267.422H31.8906C31.8906 268.677 32.6406 269.305 34.1406 269.305C34.6979 269.305 35.1328 269.193 35.4453 268.969C35.7578 268.74 35.9141 268.422 35.9141 268.016ZM48.4688 259.625V267.117C48.4688 268.362 48.0781 269.346 47.2969 270.07C46.5208 270.794 45.4583 271.156 44.1094 271.156C42.7812 271.156 41.7266 270.805 40.9453 270.102C40.1641 269.398 39.7656 268.432 39.75 267.203V259.625H42.0938V267.133C42.0938 267.878 42.2708 268.422 42.625 268.766C42.9844 269.104 43.4792 269.273 44.1094 269.273C45.4271 269.273 46.0964 268.581 46.1172 267.195V259.625H48.4688ZM56.2891 268.016C56.2891 267.573 56.1328 267.234 55.8203 267C55.5078 266.76 54.9453 266.51 54.1328 266.25C53.3203 265.984 52.6771 265.724 52.2031 265.469C50.9115 264.771 50.2656 263.831 50.2656 262.648C50.2656 262.034 50.4375 261.487 50.7812 261.008C51.1302 260.523 51.6276 260.146 52.2734 259.875C52.9245 259.604 53.6536 259.469 54.4609 259.469C55.2734 259.469 55.9974 259.617 56.6328 259.914C57.2682 260.206 57.7604 260.62 58.1094 261.156C58.4635 261.693 58.6406 262.302 58.6406 262.984H56.2969C56.2969 262.464 56.1328 262.06 55.8047 261.773C55.4766 261.482 55.0156 261.336 54.4219 261.336C53.849 261.336 53.4036 261.458 53.0859 261.703C52.7682 261.943 52.6094 262.26 52.6094 262.656C52.6094 263.026 52.7943 263.336 53.1641 263.586C53.5391 263.836 54.0885 264.07 54.8125 264.289C56.1458 264.69 57.1172 265.188 57.7266 265.781C58.3359 266.375 58.6406 267.115 58.6406 268C58.6406 268.984 58.2682 269.758 57.5234 270.32C56.7786 270.878 55.776 271.156 54.5156 271.156C53.6406 271.156 52.8438 270.997 52.125 270.68C51.4062 270.357 50.8568 269.917 50.4766 269.359C50.1016 268.802 49.9141 268.156 49.9141 267.422H52.2656C52.2656 268.677 53.0156 269.305 54.5156 269.305C55.0729 269.305 55.5078 269.193 55.8203 268.969C56.1328 268.74 56.2891 268.422 56.2891 268.016ZM69.1641 267.211C69.0755 268.435 68.6224 269.398 67.8047 270.102C66.9922 270.805 65.9193 271.156 64.5859 271.156C63.1276 271.156 61.9792 270.667 61.1406 269.688C60.3073 268.703 59.8906 267.354 59.8906 265.641V264.945C59.8906 263.852 60.0833 262.888 60.4688 262.055C60.8542 261.221 61.4036 260.583 62.1172 260.141C62.8359 259.693 63.6693 259.469 64.6172 259.469C65.9297 259.469 66.987 259.82 67.7891 260.523C68.5911 261.227 69.0547 262.214 69.1797 263.484H66.8359C66.7786 262.75 66.5729 262.219 66.2188 261.891C65.8698 261.557 65.3359 261.391 64.6172 261.391C63.8359 261.391 63.25 261.672 62.8594 262.234C62.474 262.792 62.276 263.659 62.2656 264.836V265.695C62.2656 266.924 62.4505 267.823 62.8203 268.391C63.1953 268.958 63.7839 269.242 64.5859 269.242C65.3099 269.242 65.849 269.078 66.2031 268.75C66.5625 268.417 66.7682 267.904 66.8203 267.211H69.1641ZM74.9141 266.836H73.0469V271H70.7031V259.625H74.9297C76.2734 259.625 77.3099 259.924 78.0391 260.523C78.7682 261.122 79.1328 261.969 79.1328 263.062C79.1328 263.839 78.9635 264.487 78.625 265.008C78.2917 265.523 77.7839 265.935 77.1016 266.242L79.5625 270.891V271H77.0469L74.9141 266.836ZM73.0469 264.938H74.9375C75.526 264.938 75.9818 264.789 76.3047 264.492C76.6276 264.19 76.7891 263.776 76.7891 263.25C76.7891 262.714 76.6354 262.292 76.3281 261.984C76.026 261.677 75.5599 261.523 74.9297 261.523H73.0469V264.938ZM83.4141 271H81.0703V259.625H83.4141V271ZM87.9375 266.992V271H85.5938V259.625H90.0312C90.8854 259.625 91.6354 259.781 92.2812 260.094C92.9323 260.406 93.4323 260.852 93.7812 261.43C94.1302 262.003 94.3047 262.656 94.3047 263.391C94.3047 264.505 93.9219 265.385 93.1562 266.031C92.3958 266.672 91.3411 266.992 89.9922 266.992H87.9375ZM87.9375 265.094H90.0312C90.651 265.094 91.1224 264.948 91.4453 264.656C91.7734 264.365 91.9375 263.948 91.9375 263.406C91.9375 262.849 91.7734 262.398 91.4453 262.055C91.1172 261.711 90.6641 261.534 90.0859 261.523H87.9375V265.094ZM104.852 267.211C104.763 268.435 104.31 269.398 103.492 270.102C102.68 270.805 101.607 271.156 100.273 271.156C98.8151 271.156 97.6667 270.667 96.8281 269.688C95.9948 268.703 95.5781 267.354 95.5781 265.641V264.945C95.5781 263.852 95.7708 262.888 96.1562 262.055C96.5417 261.221 97.0911 260.583 97.8047 260.141C98.5234 259.693 99.3568 259.469 100.305 259.469C101.617 259.469 102.674 259.82 103.477 260.523C104.279 261.227 104.742 262.214 104.867 263.484H102.523C102.466 262.75 102.26 262.219 101.906 261.891C101.557 261.557 101.023 261.391 100.305 261.391C99.5234 261.391 98.9375 261.672 98.5469 262.234C98.1615 262.792 97.9635 263.659 97.9531 264.836V265.695C97.9531 266.924 98.138 267.823 98.5078 268.391C98.8828 268.958 99.4714 269.242 100.273 269.242C100.997 269.242 101.536 269.078 101.891 268.75C102.25 268.417 102.456 267.904 102.508 267.211H104.852ZM108.883 271H106.539V259.625H108.883V271ZM120.406 265.57C120.406 266.69 120.208 267.672 119.812 268.516C119.417 269.359 118.849 270.01 118.109 270.469C117.375 270.927 116.531 271.156 115.578 271.156C114.635 271.156 113.794 270.93 113.055 270.477C112.315 270.023 111.742 269.378 111.336 268.539C110.93 267.695 110.724 266.727 110.719 265.633V265.07C110.719 263.951 110.919 262.966 111.32 262.117C111.727 261.263 112.297 260.609 113.031 260.156C113.771 259.698 114.615 259.469 115.562 259.469C116.51 259.469 117.352 259.698 118.086 260.156C118.826 260.609 119.396 261.263 119.797 262.117C120.203 262.966 120.406 263.948 120.406 265.062V265.57ZM118.031 265.055C118.031 263.862 117.818 262.956 117.391 262.336C116.964 261.716 116.354 261.406 115.562 261.406C114.776 261.406 114.169 261.714 113.742 262.328C113.315 262.938 113.099 263.833 113.094 265.016V265.57C113.094 266.732 113.307 267.633 113.734 268.273C114.161 268.914 114.776 269.234 115.578 269.234C116.365 269.234 116.969 268.927 117.391 268.312C117.812 267.693 118.026 266.792 118.031 265.609V265.055ZM116.016 256.578H118.477L116.312 259H114.477L116.016 256.578ZM131.359 271H129.016L124.453 263.516V271H122.109V259.625H124.453L129.023 267.125V259.625H131.359V271ZM137.344 266.375C137.344 265.182 137.503 264.047 137.82 262.969C138.138 261.891 138.607 260.938 139.227 260.109C139.846 259.276 140.518 258.698 141.242 258.375L141.68 259.594C140.919 260.156 140.326 261.026 139.898 262.203C139.471 263.38 139.258 264.755 139.258 266.328V266.57C139.258 268.148 139.469 269.529 139.891 270.711C140.312 271.893 140.909 272.776 141.68 273.359L141.242 274.555C140.534 274.237 139.872 273.674 139.258 272.867C138.648 272.065 138.182 271.138 137.859 270.086C137.536 269.034 137.365 267.935 137.344 266.789V266.375ZM148.258 271H146V262.297L143.305 263.133V261.297L148.016 259.609H148.258V271ZM159.758 271H151.961V269.453L155.641 265.531C156.146 264.979 156.518 264.497 156.758 264.086C157.003 263.674 157.125 263.284 157.125 262.914C157.125 262.409 156.997 262.013 156.742 261.727C156.487 261.435 156.122 261.289 155.648 261.289C155.138 261.289 154.734 261.466 154.438 261.82C154.146 262.169 154 262.63 154 263.203H151.734C151.734 262.51 151.898 261.878 152.227 261.305C152.56 260.732 153.029 260.284 153.633 259.961C154.237 259.633 154.922 259.469 155.688 259.469C156.859 259.469 157.768 259.75 158.414 260.312C159.065 260.875 159.391 261.669 159.391 262.695C159.391 263.258 159.245 263.831 158.953 264.414C158.661 264.997 158.161 265.677 157.453 266.453L154.867 269.18H159.758V271ZM168.438 259.625L171.359 267.875L174.266 259.625H177.344V271H174.992V267.891L175.227 262.523L172.156 271H170.547L167.484 262.531L167.719 267.891V271H165.375V259.625H168.438ZM186.234 266.07H181.734V269.117H187.016V271H179.391V259.625H187V261.523H181.734V264.234H186.234V266.07ZM194.289 268.016C194.289 267.573 194.133 267.234 193.82 267C193.508 266.76 192.945 266.51 192.133 266.25C191.32 265.984 190.677 265.724 190.203 265.469C188.911 264.771 188.266 263.831 188.266 262.648C188.266 262.034 188.438 261.487 188.781 261.008C189.13 260.523 189.628 260.146 190.273 259.875C190.924 259.604 191.654 259.469 192.461 259.469C193.273 259.469 193.997 259.617 194.633 259.914C195.268 260.206 195.76 260.62 196.109 261.156C196.464 261.693 196.641 262.302 196.641 262.984H194.297C194.297 262.464 194.133 262.06 193.805 261.773C193.477 261.482 193.016 261.336 192.422 261.336C191.849 261.336 191.404 261.458 191.086 261.703C190.768 261.943 190.609 262.26 190.609 262.656C190.609 263.026 190.794 263.336 191.164 263.586C191.539 263.836 192.089 264.07 192.812 264.289C194.146 264.69 195.117 265.188 195.727 265.781C196.336 266.375 196.641 267.115 196.641 268C196.641 268.984 196.268 269.758 195.523 270.32C194.779 270.878 193.776 271.156 192.516 271.156C191.641 271.156 190.844 270.997 190.125 270.68C189.406 270.357 188.857 269.917 188.477 269.359C188.102 268.802 187.914 268.156 187.914 267.422H190.266C190.266 268.677 191.016 269.305 192.516 269.305C193.073 269.305 193.508 269.193 193.82 268.969C194.133 268.74 194.289 268.422 194.289 268.016ZM205.078 266.07H200.578V269.117H205.859V271H198.234V259.625H205.844V261.523H200.578V264.234H205.078V266.07ZM213.133 268.016C213.133 267.573 212.977 267.234 212.664 267C212.352 266.76 211.789 266.51 210.977 266.25C210.164 265.984 209.521 265.724 209.047 265.469C207.755 264.771 207.109 263.831 207.109 262.648C207.109 262.034 207.281 261.487 207.625 261.008C207.974 260.523 208.471 260.146 209.117 259.875C209.768 259.604 210.497 259.469 211.305 259.469C212.117 259.469 212.841 259.617 213.477 259.914C214.112 260.206 214.604 260.62 214.953 261.156C215.307 261.693 215.484 262.302 215.484 262.984H213.141C213.141 262.464 212.977 262.06 212.648 261.773C212.32 261.482 211.859 261.336 211.266 261.336C210.693 261.336 210.247 261.458 209.93 261.703C209.612 261.943 209.453 262.26 209.453 262.656C209.453 263.026 209.638 263.336 210.008 263.586C210.383 263.836 210.932 264.07 211.656 264.289C212.99 264.69 213.961 265.188 214.57 265.781C215.18 266.375 215.484 267.115 215.484 268C215.484 268.984 215.112 269.758 214.367 270.32C213.622 270.878 212.62 271.156 211.359 271.156C210.484 271.156 209.688 270.997 208.969 270.68C208.25 270.357 207.701 269.917 207.32 269.359C206.945 268.802 206.758 268.156 206.758 267.422H209.109C209.109 268.677 209.859 269.305 211.359 269.305C211.917 269.305 212.352 269.193 212.664 268.969C212.977 268.74 213.133 268.422 213.133 268.016ZM220.82 266.555C220.82 267.732 220.651 268.865 220.312 269.953C219.974 271.042 219.487 272.003 218.852 272.836C218.216 273.669 217.536 274.242 216.812 274.555L216.375 273.359C217.115 272.802 217.698 271.943 218.125 270.781C218.552 269.62 218.773 268.284 218.789 266.773V266.359C218.789 264.802 218.576 263.43 218.148 262.242C217.727 261.055 217.135 260.164 216.375 259.57L216.812 258.375C217.521 258.682 218.188 259.24 218.812 260.047C219.443 260.854 219.93 261.794 220.273 262.867C220.622 263.94 220.805 265.052 220.82 266.203V266.555ZM230.922 264.898H234.094V266.266H230.922V269.859H229.469V266.266H226.297V264.898H229.469V261.578H230.922V264.898ZM240.344 265.297L240.922 259.625H246.75V260.961H242.148L241.805 264.062C242.362 263.734 242.995 263.57 243.703 263.57C244.74 263.57 245.562 263.914 246.172 264.602C246.781 265.284 247.086 266.208 247.086 267.375C247.086 268.547 246.768 269.471 246.133 270.148C245.503 270.82 244.62 271.156 243.484 271.156C242.479 271.156 241.659 270.878 241.023 270.32C240.388 269.763 240.026 268.992 239.938 268.008H241.305C241.393 268.659 241.625 269.151 242 269.484C242.375 269.812 242.87 269.977 243.484 269.977C244.156 269.977 244.682 269.747 245.062 269.289C245.448 268.831 245.641 268.198 245.641 267.391C245.641 266.63 245.432 266.021 245.016 265.562C244.604 265.099 244.055 264.867 243.367 264.867C242.737 264.867 242.242 265.005 241.883 265.281L241.5 265.594L240.344 265.297ZM261.406 269.508C261.021 270.06 260.482 270.474 259.789 270.75C259.102 271.021 258.299 271.156 257.383 271.156C256.456 271.156 255.633 270.94 254.914 270.508C254.195 270.07 253.638 269.451 253.242 268.648C252.852 267.846 252.651 266.917 252.641 265.859V264.867C252.641 263.154 253.039 261.826 253.836 260.883C254.638 259.94 255.763 259.469 257.211 259.469C258.398 259.469 259.354 259.773 260.078 260.383C260.802 260.987 261.245 261.846 261.406 262.961H259.906C259.625 261.456 258.729 260.703 257.219 260.703C256.214 260.703 255.451 261.057 254.93 261.766C254.414 262.469 254.154 263.49 254.148 264.828V265.758C254.148 267.034 254.44 268.049 255.023 268.805C255.607 269.555 256.396 269.93 257.391 269.93C257.953 269.93 258.445 269.867 258.867 269.742C259.289 269.617 259.638 269.406 259.914 269.109V266.555H257.281V265.336H261.406V269.508ZM263.914 271V259.625H267.633C268.867 259.625 269.794 259.88 270.414 260.391C271.039 260.901 271.352 261.656 271.352 262.656C271.352 263.188 271.201 263.659 270.898 264.07C270.596 264.477 270.185 264.792 269.664 265.016C270.279 265.188 270.763 265.516 271.117 266C271.477 266.479 271.656 267.052 271.656 267.719C271.656 268.74 271.326 269.542 270.664 270.125C270.003 270.708 269.068 271 267.859 271H263.914ZM265.414 265.68V269.773H267.891C268.589 269.773 269.138 269.594 269.539 269.234C269.945 268.87 270.148 268.37 270.148 267.734C270.148 266.365 269.404 265.68 267.914 265.68H265.414ZM265.414 264.477H267.68C268.336 264.477 268.859 264.312 269.25 263.984C269.646 263.656 269.844 263.211 269.844 262.648C269.844 262.023 269.661 261.57 269.297 261.289C268.932 261.003 268.378 260.859 267.633 260.859H265.414V264.477Z" fill="#222222"/>
<path d="M31.8203 286.547V291H30.3203V279.625H34.5156C35.7604 279.625 36.7344 279.943 37.4375 280.578C38.1458 281.214 38.5 282.055 38.5 283.102C38.5 284.206 38.1536 285.057 37.4609 285.656C36.7734 286.25 35.7865 286.547 34.5 286.547H31.8203ZM31.8203 285.32H34.5156C35.3177 285.32 35.9323 285.133 36.3594 284.758C36.7865 284.378 37 283.831 37 283.117C37 282.44 36.7865 281.898 36.3594 281.492C35.9323 281.086 35.3464 280.875 34.6016 280.859H31.8203V285.32ZM45.6172 288.031H40.8516L39.7812 291H38.2344L42.5781 279.625H43.8906L48.2422 291H46.7031L45.6172 288.031ZM41.3047 286.797H45.1719L43.2344 281.477L41.3047 286.797ZM53.9453 286.398H51.2734V291H49.7656V279.625H53.5312C54.8125 279.625 55.7969 279.917 56.4844 280.5C57.1771 281.083 57.5234 281.932 57.5234 283.047C57.5234 283.755 57.3307 284.372 56.9453 284.898C56.5651 285.424 56.0339 285.818 55.3516 286.078L58.0234 290.906V291H56.4141L53.9453 286.398ZM51.2734 285.172H53.5781C54.3229 285.172 54.9141 284.979 55.3516 284.594C55.7943 284.208 56.0156 283.693 56.0156 283.047C56.0156 282.344 55.8047 281.805 55.3828 281.43C54.9661 281.055 54.362 280.865 53.5703 280.859H51.2734V285.172ZM65.9141 288.031H61.1484L60.0781 291H58.5312L62.875 279.625H64.1875L68.5391 291H67L65.9141 288.031ZM61.6016 286.797H65.4688L63.5312 281.477L61.6016 286.797ZM82.4062 287.391C82.2656 288.594 81.8203 289.523 81.0703 290.18C80.3255 290.831 79.3333 291.156 78.0938 291.156C76.75 291.156 75.6719 290.674 74.8594 289.711C74.0521 288.747 73.6484 287.458 73.6484 285.844V284.75C73.6484 283.693 73.8359 282.763 74.2109 281.961C74.5911 281.159 75.1276 280.544 75.8203 280.117C76.513 279.685 77.3151 279.469 78.2266 279.469C79.4349 279.469 80.4036 279.807 81.1328 280.484C81.862 281.156 82.2865 282.089 82.4062 283.281H80.8984C80.7682 282.375 80.4844 281.719 80.0469 281.312C79.6146 280.906 79.0078 280.703 78.2266 280.703C77.2682 280.703 76.5156 281.057 75.9688 281.766C75.4271 282.474 75.1562 283.482 75.1562 284.789V285.891C75.1562 287.125 75.4141 288.107 75.9297 288.836C76.4453 289.565 77.1667 289.93 78.0938 289.93C78.9271 289.93 79.5651 289.742 80.0078 289.367C80.4557 288.987 80.7526 288.328 80.8984 287.391H82.4062ZM85.9688 289.773H91.3594V291H84.4609V279.625H85.9688V289.773ZM99.5078 288.031H94.7422L93.6719 291H92.125L96.4688 279.625H97.7812L102.133 291H100.594L99.5078 288.031ZM95.1953 286.797H99.0625L97.125 281.477L95.1953 286.797ZM107.836 286.398H105.164V291H103.656V279.625H107.422C108.703 279.625 109.688 279.917 110.375 280.5C111.068 281.083 111.414 281.932 111.414 283.047C111.414 283.755 111.221 284.372 110.836 284.898C110.456 285.424 109.924 285.818 109.242 286.078L111.914 290.906V291H110.305L107.836 286.398ZM105.164 285.172H107.469C108.214 285.172 108.805 284.979 109.242 284.594C109.685 284.208 109.906 283.693 109.906 283.047C109.906 282.344 109.695 281.805 109.273 281.43C108.857 281.055 108.253 280.865 107.461 280.859H105.164V285.172ZM122.273 285.68C122.273 286.794 122.086 287.768 121.711 288.602C121.336 289.43 120.805 290.062 120.117 290.5C119.43 290.938 118.628 291.156 117.711 291.156C116.815 291.156 116.021 290.938 115.328 290.5C114.635 290.057 114.096 289.43 113.711 288.617C113.331 287.799 113.135 286.854 113.125 285.781V284.961C113.125 283.867 113.315 282.901 113.695 282.062C114.076 281.224 114.612 280.583 115.305 280.141C116.003 279.693 116.799 279.469 117.695 279.469C118.607 279.469 119.409 279.69 120.102 280.133C120.799 280.57 121.336 281.208 121.711 282.047C122.086 282.88 122.273 283.852 122.273 284.961V285.68ZM120.781 284.945C120.781 283.596 120.51 282.562 119.969 281.844C119.427 281.12 118.669 280.758 117.695 280.758C116.747 280.758 116 281.12 115.453 281.844C114.911 282.562 114.633 283.562 114.617 284.844V285.68C114.617 286.987 114.891 288.016 115.438 288.766C115.99 289.51 116.747 289.883 117.711 289.883C118.68 289.883 119.43 289.531 119.961 288.828C120.492 288.12 120.766 287.107 120.781 285.789V284.945ZM132.258 289.008L135.508 279.625H137.148L132.93 291H131.602L127.391 279.625H129.023L132.258 289.008ZM140.289 291H138.789V279.625H140.289V291ZM143.039 291V279.625H146.25C147.24 279.625 148.115 279.844 148.875 280.281C149.635 280.719 150.221 281.341 150.633 282.148C151.049 282.956 151.26 283.883 151.266 284.93V285.656C151.266 286.729 151.057 287.669 150.641 288.477C150.229 289.284 149.638 289.904 148.867 290.336C148.102 290.768 147.208 290.99 146.188 291H143.039ZM144.539 280.859V289.773H146.117C147.273 289.773 148.172 289.414 148.812 288.695C149.458 287.977 149.781 286.953 149.781 285.625V284.961C149.781 283.669 149.477 282.667 148.867 281.953C148.263 281.234 147.404 280.87 146.289 280.859H144.539ZM159.969 285.742H155.039V289.773H160.766V291H153.539V279.625H160.688V280.859H155.039V284.516H159.969V285.742ZM171.383 285.68C171.383 286.794 171.195 287.768 170.82 288.602C170.445 289.43 169.914 290.062 169.227 290.5C168.539 290.938 167.737 291.156 166.82 291.156C165.924 291.156 165.13 290.938 164.438 290.5C163.745 290.057 163.206 289.43 162.82 288.617C162.44 287.799 162.245 286.854 162.234 285.781V284.961C162.234 283.867 162.424 282.901 162.805 282.062C163.185 281.224 163.721 280.583 164.414 280.141C165.112 279.693 165.909 279.469 166.805 279.469C167.716 279.469 168.518 279.69 169.211 280.133C169.909 280.57 170.445 281.208 170.82 282.047C171.195 282.88 171.383 283.852 171.383 284.961V285.68ZM169.891 284.945C169.891 283.596 169.62 282.562 169.078 281.844C168.536 281.12 167.779 280.758 166.805 280.758C165.857 280.758 165.109 281.12 164.562 281.844C164.021 282.562 163.742 283.562 163.727 284.844V285.68C163.727 286.987 164 288.016 164.547 288.766C165.099 289.51 165.857 289.883 166.82 289.883C167.789 289.883 168.539 289.531 169.07 288.828C169.602 288.12 169.875 287.107 169.891 285.789V284.945Z" fill="#222222"/>
<defs>
<filter id="filter0_d" x="145.75" y="112.126" width="17.9375" height="18.5625" filterUnits="userSpaceOnUse" color-interpolation-filters="sRGB">
<feFlood flood-opacity="0" result="BackgroundImageFix"/>
<feColorMatrix in="SourceAlpha" type="matrix" values="0 0 0 0 0 0 0 0 0 0 0 0 0 0 0 0 0 0 127 0"/>
<feOffset dx="2" dy="2"/>
<feColorMatrix type="matrix" values="0 0 0 0 0 0 0 0 0 0 0 0 0 0 0 0 0 0 0.15 0"/>
<feBlend mode="normal" in2="BackgroundImageFix" result="effect1_dropShadow"/>
<feBlend mode="normal" in="SourceGraphic" in2="effect1_dropShadow" result="shape"/>
</filter>
<clipPath id="clip0">
<rect width="80" height="46.0606" fill="white" transform="translate(111 194.939)"/>
</clipPath>
</defs>
</svg>
