<svg width="298" height="317" viewBox="0 0 298 317" fill="none" xmlns="http://www.w3.org/2000/svg">
<rect width="298" height="317" fill="#F5F5F5"/>
<path opacity="0.2" d="M37.9494 43.5022C39.246 46.153 41.3948 48.292 44.0515 49.5765C44.2459 49.6686 44.4609 49.7085 44.6754 49.6923C44.8899 49.6761 45.0964 49.6043 45.2747 49.484L49.1866 46.8755C49.3596 46.7601 49.5586 46.6897 49.7657 46.6707C49.9728 46.6517 50.1813 46.6846 50.3724 46.7666L57.6907 49.903C57.9393 50.0086 58.1469 50.1921 58.2821 50.4259C58.4173 50.6597 58.4729 50.9312 58.4405 51.1993C58.2092 53.0093 57.326 54.673 55.9564 55.8787C54.5869 57.0845 52.8247 57.7497 51 57.7498C45.3641 57.7498 39.9591 55.511 35.974 51.5258C31.9888 47.5407 29.75 42.1356 29.75 36.4998C29.7501 34.6751 30.4153 32.9129 31.6211 31.5433C32.8268 30.1738 34.4905 29.2906 36.3005 29.0593C36.5686 29.0269 36.84 29.0824 37.0739 29.2177C37.3077 29.3529 37.4912 29.5604 37.5968 29.809L40.736 37.1337C40.8172 37.3232 40.8502 37.5298 40.8323 37.7351C40.8143 37.9404 40.7458 38.1382 40.6329 38.3106L38.0335 42.2825C37.9152 42.4611 37.8453 42.6674 37.8305 42.8812C37.8158 43.095 37.8567 43.309 37.9494 43.5022Z" fill="#EF3829"/>
<path d="M37.9494 43.5022C39.246 46.153 41.3948 48.292 44.0515 49.5765C44.2459 49.6686 44.4609 49.7085 44.6754 49.6923C44.8899 49.6761 45.0964 49.6043 45.2747 49.484L49.1866 46.8755C49.3596 46.7601 49.5586 46.6897 49.7657 46.6707C49.9728 46.6517 50.1813 46.6846 50.3724 46.7666L57.6907 49.903C57.9393 50.0086 58.1469 50.1921 58.2821 50.4259C58.4173 50.6597 58.4729 50.9312 58.4405 51.1993C58.2092 53.0093 57.326 54.673 55.9564 55.8787C54.5869 57.0845 52.8247 57.7497 51 57.7498C45.3641 57.7498 39.9591 55.511 35.974 51.5258C31.9888 47.5407 29.75 42.1356 29.75 36.4998C29.7501 34.6751 30.4153 32.9129 31.6211 31.5433C32.8268 30.1738 34.4905 29.2906 36.3005 29.0593C36.5686 29.0269 36.84 29.0824 37.0739 29.2177C37.3077 29.3529 37.4912 29.5604 37.5968 29.809L40.736 37.1337C40.8172 37.3232 40.8502 37.5298 40.8323 37.7351C40.8143 37.9404 40.7458 38.1382 40.6329 38.3106L38.0335 42.2825C37.9152 42.4611 37.8453 42.6674 37.8305 42.8812C37.8158 43.095 37.8567 43.309 37.9494 43.5022V43.5022Z" stroke="#EF3829" stroke-width="2" stroke-linecap="round" stroke-linejoin="round"/>
<path d="M76.9531 58H70.1172V29.5625H76.9531V58ZM86.9742 52.7266H98.9078V58H80.1187V29.5625H86.9742V52.7266ZM107.503 58H100.667V29.5625H107.503V58ZM119.673 29.5625L126.02 49.3477L132.348 29.5625H141.372V58H134.497V51.3594L135.161 37.7656L128.286 58H123.755L116.86 37.7461L117.524 51.3594V58H110.669V29.5625H119.673ZM151.452 58H144.616V29.5625H151.452V58ZM176.355 34.8555H167.82V58H160.965V34.8555H152.586V29.5625H176.355V34.8555ZM191.474 52.6875H182.08L180.439 58H173.115L183.545 29.5625H189.99L200.498 58H193.134L191.474 52.6875ZM183.72 47.3945H189.834L186.767 37.5312L183.72 47.3945ZM200.988 58V29.5625H210.148C212.661 29.5625 214.92 30.1354 216.925 31.2812C218.93 32.4141 220.493 34.0221 221.613 36.1055C222.745 38.1758 223.318 40.5 223.331 43.0781V44.3867C223.331 46.9909 222.778 49.3281 221.671 51.3984C220.577 53.4557 219.028 55.0703 217.023 56.2422C215.03 57.401 212.804 57.987 210.343 58H200.988ZM207.843 34.8555V52.7266H210.226C212.192 52.7266 213.702 52.0299 214.757 50.6367C215.812 49.2305 216.339 47.1471 216.339 44.3867V43.1562C216.339 40.4089 215.812 38.3385 214.757 36.9453C213.702 35.5521 212.166 34.8555 210.148 34.8555H207.843ZM249.329 44.3672C249.329 47.1406 248.815 49.5951 247.786 51.7305C246.757 53.8659 245.292 55.513 243.391 56.6719C241.503 57.8177 239.348 58.3906 236.927 58.3906C234.505 58.3906 232.356 57.8372 230.481 56.7305C228.606 55.6107 227.141 54.0156 226.087 51.9453C225.045 49.875 224.498 47.4987 224.446 44.8164V43.2148C224.446 40.4284 224.954 37.974 225.97 35.8516C226.998 33.7161 228.463 32.069 230.364 30.9102C232.278 29.7513 234.453 29.1719 236.887 29.1719C239.296 29.1719 241.445 29.7448 243.333 30.8906C245.221 32.0365 246.686 33.6706 247.727 35.793C248.782 37.9023 249.316 40.3242 249.329 43.0586V44.3672ZM242.356 43.1758C242.356 40.3503 241.881 38.2083 240.93 36.75C239.993 35.2786 238.645 34.543 236.887 34.543C233.45 34.543 231.634 37.1211 231.438 42.2773L231.419 44.3672C231.419 47.1536 231.881 49.2956 232.805 50.793C233.73 52.2904 235.104 53.0391 236.927 53.0391C238.658 53.0391 239.993 52.3034 240.93 50.832C241.868 49.3607 242.343 47.2448 242.356 44.4844V43.1758ZM265.932 50.4414C265.932 49.4388 265.574 48.6576 264.858 48.0977C264.155 47.5378 262.911 46.9583 261.127 46.3594C259.343 45.7604 257.885 45.181 256.752 44.6211C253.067 42.8112 251.225 40.3242 251.225 37.1602C251.225 35.5846 251.681 34.1979 252.592 33C253.517 31.7891 254.819 30.8516 256.498 30.1875C258.178 29.5104 260.066 29.1719 262.163 29.1719C264.207 29.1719 266.036 29.5365 267.651 30.2656C269.278 30.9948 270.541 32.0365 271.44 33.3906C272.338 34.7318 272.788 36.2682 272.788 38H265.952C265.952 36.8411 265.593 35.9427 264.877 35.3047C264.174 34.6667 263.217 34.3477 262.006 34.3477C260.782 34.3477 259.812 34.6211 259.096 35.168C258.393 35.7018 258.041 36.3854 258.041 37.2188C258.041 37.9479 258.432 38.612 259.213 39.2109C259.995 39.7969 261.368 40.4089 263.334 41.0469C265.301 41.6719 266.915 42.349 268.178 43.0781C271.251 44.849 272.788 47.2904 272.788 50.4023C272.788 52.8893 271.85 54.8424 269.975 56.2617C268.1 57.681 265.528 58.3906 262.26 58.3906C259.955 58.3906 257.866 57.9805 255.991 57.1602C254.129 56.3268 252.722 55.194 251.772 53.7617C250.834 52.3164 250.366 50.6562 250.366 48.7812H257.241C257.241 50.3047 257.631 51.431 258.413 52.1602C259.207 52.8763 260.489 53.2344 262.26 53.2344C263.393 53.2344 264.285 52.9935 264.936 52.5117C265.6 52.0169 265.932 51.3268 265.932 50.4414Z" fill="#EF3829"/>
<path d="M74.1514 75.4023H69.9814L69.0449 78H67.6914L71.4922 68.0469H72.6406L76.4482 78H75.1016L74.1514 75.4023ZM70.3779 74.3223H73.7617L72.0664 69.667L70.3779 74.3223ZM88.9843 69.127H85.785V78H84.4794V69.127H81.287V68.0469H88.9843V69.127ZM98.4857 73.3447C98.4857 74.32 98.3216 75.1722 97.9935 75.9014C97.6654 76.626 97.2005 77.1797 96.5989 77.5625C95.9974 77.9453 95.2956 78.1367 94.4935 78.1367C93.7096 78.1367 93.0146 77.9453 92.4085 77.5625C91.8024 77.1751 91.3307 76.626 90.9935 75.915C90.6608 75.1995 90.4899 74.3724 90.4808 73.4336V72.7158C90.4808 71.7588 90.6471 70.9134 90.9798 70.1797C91.3125 69.446 91.7819 68.8854 92.388 68.498C92.9987 68.1061 93.696 67.9102 94.4798 67.9102C95.2773 67.9102 95.9792 68.1038 96.5853 68.4912C97.196 68.874 97.6654 69.4323 97.9935 70.166C98.3216 70.8952 98.4857 71.7451 98.4857 72.7158V73.3447ZM97.18 72.7021C97.18 71.5218 96.943 70.6172 96.4691 69.9883C95.9951 69.3548 95.332 69.0381 94.4798 69.0381C93.6504 69.0381 92.9964 69.3548 92.5179 69.9883C92.0439 70.6172 91.8001 71.4922 91.7864 72.6133V73.3447C91.7864 74.4886 92.0257 75.3887 92.5042 76.0449C92.9873 76.6966 93.6504 77.0225 94.4935 77.0225C95.3411 77.0225 95.9974 76.7148 96.4622 76.0996C96.9271 75.4798 97.1663 74.5934 97.18 73.4404V72.7021ZM101.014 78V68.0469H103.824C104.69 68.0469 105.455 68.2383 106.121 68.6211C106.786 69.0039 107.299 69.5485 107.659 70.2549C108.024 70.9613 108.208 71.7725 108.213 72.6885V73.3242C108.213 74.263 108.03 75.0856 107.666 75.792C107.306 76.4984 106.789 77.0407 106.114 77.4189C105.444 77.7972 104.663 77.9909 103.769 78H101.014ZM102.327 69.127V76.9268H103.708C104.719 76.9268 105.506 76.6123 106.066 75.9834C106.631 75.3545 106.914 74.459 106.914 73.2969V72.7158C106.914 71.5856 106.647 70.7083 106.114 70.084C105.585 69.4551 104.833 69.1361 103.858 69.127H102.327ZM116.108 75.4023H111.938L111.001 78H109.648L113.448 68.0469H114.597L118.404 78H117.058L116.108 75.4023ZM112.334 74.3223H115.718L114.023 69.667L112.334 74.3223ZM123.237 73.5635C122.111 73.2399 121.291 72.8434 120.776 72.374C120.266 71.9001 120.01 71.3167 120.01 70.624C120.01 69.8402 120.323 69.193 120.947 68.6826C121.576 68.1676 122.392 67.9102 123.394 67.9102C124.078 67.9102 124.686 68.0423 125.219 68.3066C125.757 68.571 126.172 68.9355 126.464 69.4004C126.76 69.8652 126.908 70.3734 126.908 70.9248H125.589C125.589 70.3232 125.397 69.8516 125.014 69.5098C124.631 69.1634 124.091 68.9902 123.394 68.9902C122.747 68.9902 122.241 69.1338 121.877 69.4209C121.517 69.7035 121.337 70.0977 121.337 70.6035C121.337 71.0091 121.507 71.3532 121.849 71.6357C122.196 71.9137 122.781 72.1689 123.606 72.4014C124.436 72.6338 125.083 72.8913 125.548 73.1738C126.017 73.4518 126.363 73.7777 126.587 74.1514C126.814 74.5251 126.928 74.9648 126.928 75.4707C126.928 76.2773 126.614 76.9245 125.985 77.4121C125.356 77.8952 124.515 78.1367 123.463 78.1367C122.779 78.1367 122.141 78.0068 121.548 77.7471C120.956 77.4827 120.498 77.1227 120.174 76.667C119.855 76.2113 119.696 75.694 119.696 75.1152H121.015C121.015 75.7168 121.236 76.193 121.678 76.5439C122.125 76.8903 122.72 77.0635 123.463 77.0635C124.155 77.0635 124.686 76.9222 125.055 76.6396C125.424 76.3571 125.609 75.972 125.609 75.4844C125.609 74.9967 125.438 74.6208 125.096 74.3564C124.755 74.0876 124.135 73.8232 123.237 73.5635ZM134.529 76.9268H139.246V78H133.209V68.0469H134.529V76.9268ZM146.936 75.4023H142.766L141.829 78H140.476L144.276 68.0469H145.425L149.232 78H147.886L146.936 75.4023ZM143.162 74.3223H146.546L144.851 69.667L143.162 74.3223ZM154.065 73.5635C152.939 73.2399 152.119 72.8434 151.604 72.374C151.093 71.9001 150.838 71.3167 150.838 70.624C150.838 69.8402 151.15 69.193 151.775 68.6826C152.404 68.1676 153.219 67.9102 154.222 67.9102C154.906 67.9102 155.514 68.0423 156.047 68.3066C156.585 68.571 157 68.9355 157.291 69.4004C157.588 69.8652 157.736 70.3734 157.736 70.9248H156.416C156.416 70.3232 156.225 69.8516 155.842 69.5098C155.459 69.1634 154.919 68.9902 154.222 68.9902C153.575 68.9902 153.069 69.1338 152.704 69.4209C152.344 69.7035 152.164 70.0977 152.164 70.6035C152.164 71.0091 152.335 71.3532 152.677 71.6357C153.024 71.9137 153.609 72.1689 154.434 72.4014C155.263 72.6338 155.911 72.8913 156.375 73.1738C156.845 73.4518 157.191 73.7777 157.414 74.1514C157.642 74.5251 157.756 74.9648 157.756 75.4707C157.756 76.2773 157.442 76.9245 156.813 77.4121C156.184 77.8952 155.343 78.1367 154.29 78.1367C153.607 78.1367 152.969 78.0068 152.376 77.7471C151.784 77.4827 151.326 77.1227 151.002 76.667C150.683 76.2113 150.524 75.694 150.524 75.1152H151.843C151.843 75.7168 152.064 76.193 152.506 76.5439C152.953 76.8903 153.548 77.0635 154.29 77.0635C154.983 77.0635 155.514 76.9222 155.883 76.6396C156.252 76.3571 156.437 75.972 156.437 75.4844C156.437 74.9967 156.266 74.6208 155.924 74.3564C155.582 74.0876 154.963 73.8232 154.065 73.5635ZM171.694 73.3447C171.694 74.32 171.53 75.1722 171.201 75.9014C170.873 76.626 170.408 77.1797 169.807 77.5625C169.205 77.9453 168.504 78.1367 167.701 78.1367C166.918 78.1367 166.223 77.9453 165.616 77.5625C165.01 77.1751 164.539 76.626 164.201 75.915C163.869 75.1995 163.698 74.3724 163.689 73.4336V72.7158C163.689 71.7588 163.855 70.9134 164.188 70.1797C164.52 69.446 164.99 68.8854 165.596 68.498C166.207 68.1061 166.904 67.9102 167.688 67.9102C168.485 67.9102 169.187 68.1038 169.793 68.4912C170.404 68.874 170.873 69.4323 171.201 70.166C171.53 70.8952 171.694 71.7451 171.694 72.7158V73.3447ZM170.388 72.7021C170.388 71.5218 170.151 70.6172 169.677 69.9883C169.203 69.3548 168.54 69.0381 167.688 69.0381C166.858 69.0381 166.204 69.3548 165.726 69.9883C165.252 70.6172 165.008 71.4922 164.994 72.6133V73.3447C164.994 74.4886 165.234 75.3887 165.712 76.0449C166.195 76.6966 166.858 77.0225 167.701 77.0225C168.549 77.0225 169.205 76.7148 169.67 76.0996C170.135 75.4798 170.374 74.5934 170.388 73.4404V72.7021ZM175.535 74.1035V78H174.222V68.0469H177.893C178.982 68.0469 179.835 68.3249 180.45 68.8809C181.07 69.4368 181.38 70.1729 181.38 71.0889C181.38 72.055 181.077 72.8001 180.47 73.3242C179.869 73.8438 179.005 74.1035 177.88 74.1035H175.535ZM175.535 73.0303H177.893C178.595 73.0303 179.133 72.8662 179.507 72.5381C179.88 72.2054 180.067 71.7269 180.067 71.1025C180.067 70.5101 179.88 70.0361 179.507 69.6807C179.133 69.3252 178.62 69.1406 177.968 69.127H175.535V73.0303ZM189.24 73.3994H184.927V76.9268H189.938V78H183.614V68.0469H189.869V69.127H184.927V72.3262H189.24V73.3994ZM195.782 73.9736H193.444V78H192.125V68.0469H195.42C196.541 68.0469 197.402 68.3021 198.004 68.8125C198.61 69.3229 198.913 70.0658 198.913 71.041C198.913 71.6608 198.744 72.2008 198.407 72.6611C198.074 73.1214 197.609 73.4655 197.012 73.6934L199.35 77.918V78H197.942L195.782 73.9736ZM193.444 72.9004H195.461C196.112 72.9004 196.629 72.7318 197.012 72.3945C197.4 72.0573 197.593 71.6061 197.593 71.041C197.593 70.4258 197.409 69.9541 197.04 69.626C196.675 69.2979 196.146 69.1315 195.454 69.127H193.444V72.9004ZM206.814 75.4023H202.645L201.708 78H200.355L204.155 68.0469H205.304L209.111 78H207.765L206.814 75.4023ZM203.041 74.3223H206.425L204.73 69.667L203.041 74.3223ZM211.011 78V68.0469H213.821C214.687 68.0469 215.452 68.2383 216.118 68.6211C216.783 69.0039 217.296 69.5485 217.656 70.2549C218.02 70.9613 218.205 71.7725 218.209 72.6885V73.3242C218.209 74.263 218.027 75.0856 217.663 75.792C217.303 76.4984 216.785 77.0407 216.111 77.4189C215.441 77.7972 214.659 77.9909 213.766 78H211.011ZM212.324 69.127V76.9268H213.705C214.716 76.9268 215.502 76.6123 216.063 75.9834C216.628 75.3545 216.911 74.459 216.911 73.2969V72.7158C216.911 71.5856 216.644 70.7083 216.111 70.084C215.582 69.4551 214.83 69.1361 213.855 69.127H212.324ZM228.415 73.3447C228.415 74.32 228.251 75.1722 227.923 75.9014C227.595 76.626 227.13 77.1797 226.528 77.5625C225.927 77.9453 225.225 78.1367 224.423 78.1367C223.639 78.1367 222.944 77.9453 222.338 77.5625C221.732 77.1751 221.26 76.626 220.923 75.915C220.59 75.1995 220.419 74.3724 220.41 73.4336V72.7158C220.41 71.7588 220.576 70.9134 220.909 70.1797C221.242 69.446 221.711 68.8854 222.317 68.498C222.928 68.1061 223.625 67.9102 224.409 67.9102C225.207 67.9102 225.908 68.1038 226.515 68.4912C227.125 68.874 227.595 69.4323 227.923 70.166C228.251 70.8952 228.415 71.7451 228.415 72.7158V73.3447ZM227.109 72.7021C227.109 71.5218 226.872 70.6172 226.398 69.9883C225.924 69.3548 225.261 69.0381 224.409 69.0381C223.58 69.0381 222.926 69.3548 222.447 69.9883C221.973 70.6172 221.729 71.4922 221.716 72.6133V73.3447C221.716 74.4886 221.955 75.3887 222.434 76.0449C222.917 76.6966 223.58 77.0225 224.423 77.0225C225.27 77.0225 225.927 76.7148 226.392 76.0996C226.856 75.4798 227.096 74.5934 227.109 73.4404V72.7021ZM234.594 73.9736H232.256V78H230.937V68.0469H234.232C235.353 68.0469 236.214 68.3021 236.816 68.8125C237.422 69.3229 237.725 70.0658 237.725 71.041C237.725 71.6608 237.556 72.2008 237.219 72.6611C236.886 73.1214 236.422 73.4655 235.825 73.6934L238.162 77.918V78H236.754L234.594 73.9736ZM232.256 72.9004H234.273C234.925 72.9004 235.442 72.7318 235.825 72.3945C236.212 72.0573 236.406 71.6061 236.406 71.041C236.406 70.4258 236.221 69.9541 235.852 69.626C235.487 69.2979 234.959 69.1315 234.266 69.127H232.256V72.9004ZM245.627 75.4023H241.457L240.52 78H239.167L242.968 68.0469H244.116L247.924 78H246.577L245.627 75.4023ZM241.853 74.3223H245.237L243.542 69.667L241.853 74.3223ZM252.756 73.5635C251.63 73.2399 250.81 72.8434 250.295 72.374C249.785 71.9001 249.53 71.3167 249.53 70.624C249.53 69.8402 249.842 69.193 250.466 68.6826C251.095 68.1676 251.911 67.9102 252.913 67.9102C253.597 67.9102 254.205 68.0423 254.739 68.3066C255.276 68.571 255.691 68.9355 255.983 69.4004C256.279 69.8652 256.427 70.3734 256.427 70.9248H255.108C255.108 70.3232 254.916 69.8516 254.533 69.5098C254.151 69.1634 253.611 68.9902 252.913 68.9902C252.266 68.9902 251.76 69.1338 251.396 69.4209C251.036 69.7035 250.856 70.0977 250.856 70.6035C250.856 71.0091 251.027 71.3532 251.368 71.6357C251.715 71.9137 252.3 72.1689 253.125 72.4014C253.955 72.6338 254.602 72.8913 255.067 73.1738C255.536 73.4518 255.882 73.7777 256.106 74.1514C256.334 74.5251 256.447 74.9648 256.447 75.4707C256.447 76.2773 256.133 76.9245 255.504 77.4121C254.875 77.8952 254.034 78.1367 252.982 78.1367C252.298 78.1367 251.66 78.0068 251.068 77.7471C250.475 77.4827 250.017 77.1227 249.694 76.667C249.375 76.2113 249.215 75.694 249.215 75.1152H250.534C250.534 75.7168 250.755 76.193 251.197 76.5439C251.644 76.8903 252.239 77.0635 252.982 77.0635C253.674 77.0635 254.205 76.9222 254.574 76.6396C254.944 76.3571 255.128 75.972 255.128 75.4844C255.128 74.9967 254.957 74.6208 254.615 74.3564C254.274 74.0876 253.654 73.8232 252.756 73.5635Z" fill="#222222" fill-opacity="0.8"/>
<path d="M22.2461 141.385H17.2949V125.624L12.4316 127.044V123.294L21.792 120.057H22.2461V141.385ZM43.4863 132.669C43.4863 135.55 42.8369 137.772 41.5381 139.334C40.249 140.897 38.4277 141.678 36.0742 141.678C33.7012 141.678 31.8652 140.892 30.5664 139.32C29.2676 137.748 28.6182 135.531 28.6182 132.669V128.773C28.6182 125.892 29.2627 123.67 30.5518 122.108C31.8506 120.545 33.6816 119.764 36.0449 119.764C38.4082 119.764 40.2393 120.55 41.5381 122.123C42.8369 123.695 43.4863 125.917 43.4863 128.788V132.669ZM38.5498 128.143C38.5498 126.61 38.3496 125.467 37.9492 124.715C37.5488 123.954 36.9141 123.573 36.0449 123.573C35.1953 123.573 34.5752 123.924 34.1846 124.627C33.8037 125.331 33.5986 126.395 33.5693 127.821V133.27C33.5693 134.862 33.7695 136.029 34.1699 136.771C34.5703 137.503 35.2051 137.87 36.0742 137.87C36.9141 137.87 37.5342 137.513 37.9346 136.8C38.335 136.078 38.54 134.95 38.5498 133.417V128.143ZM60.8594 132.669C60.8594 135.55 60.21 137.772 58.9111 139.334C57.6221 140.897 55.8008 141.678 53.4473 141.678C51.0742 141.678 49.2383 140.892 47.9395 139.32C46.6406 137.748 45.9912 135.531 45.9912 132.669V128.773C45.9912 125.892 46.6357 123.67 47.9248 122.108C49.2236 120.545 51.0547 119.764 53.418 119.764C55.7812 119.764 57.6123 120.55 58.9111 122.123C60.21 123.695 60.8594 125.917 60.8594 128.788V132.669ZM55.9229 128.143C55.9229 126.61 55.7227 125.467 55.3223 124.715C54.9219 123.954 54.2871 123.573 53.418 123.573C52.5684 123.573 51.9482 123.924 51.5576 124.627C51.1768 125.331 50.9717 126.395 50.9424 127.821V133.27C50.9424 134.862 51.1426 136.029 51.543 136.771C51.9434 137.503 52.5781 137.87 53.4473 137.87C54.2871 137.87 54.9072 137.513 55.3076 136.8C55.708 136.078 55.9131 134.95 55.9229 133.417V128.143ZM77.9541 120.057L82.7148 134.896L87.4609 120.057H94.2285V141.385H89.0723V136.405L89.5703 126.209L84.4141 141.385H81.0156L75.8447 126.195L76.3428 136.405V141.385H71.2012V120.057H77.9541ZM102.988 141.385H97.8613V120.057H102.988V141.385ZM124.375 141.385H119.263L111.704 128.114V141.385H106.562V120.057H111.704L119.248 133.329V120.057H124.375V141.385Z" fill="#222222"/>
<path d="M12.4746 159.312H17.1914V160.385H11.1553V150.432H12.4746V159.312ZM24.3213 157.788H20.1514L19.2148 160.385H17.8613L21.6621 150.432H22.8105L26.6182 160.385H25.2715L24.3213 157.788ZM20.5479 156.708H23.9316L22.2363 152.052L20.5479 156.708ZM31.6084 156.359H29.2705V160.385H27.9512V150.432H31.2461C32.3672 150.432 33.2285 150.687 33.8301 151.198C34.4362 151.708 34.7393 152.451 34.7393 153.426C34.7393 154.046 34.5706 154.586 34.2334 155.046C33.9007 155.507 33.4359 155.851 32.8389 156.079L35.1768 160.303V160.385H33.7686L31.6084 156.359ZM29.2705 155.286H31.2871C31.9388 155.286 32.4561 155.117 32.8389 154.78C33.2262 154.443 33.4199 153.991 33.4199 153.426C33.4199 152.811 33.2354 152.339 32.8662 152.011C32.5016 151.683 31.973 151.517 31.2803 151.512H29.2705V155.286ZM43.9336 159.08C43.5964 159.563 43.1247 159.925 42.5186 160.167C41.917 160.403 41.2152 160.522 40.4131 160.522C39.6019 160.522 38.8818 160.333 38.2529 159.955C37.624 159.572 37.1364 159.029 36.79 158.328C36.4482 157.626 36.2728 156.812 36.2637 155.887V155.019C36.2637 153.52 36.6123 152.358 37.3096 151.533C38.0114 150.708 38.9958 150.295 40.2627 150.295C41.3018 150.295 42.138 150.562 42.7715 151.095C43.4049 151.624 43.7923 152.376 43.9336 153.351H42.6211C42.375 152.034 41.5911 151.375 40.2695 151.375C39.39 151.375 38.7223 151.685 38.2666 152.305C37.8154 152.92 37.5876 153.814 37.583 154.985V155.798C37.583 156.915 37.8382 157.804 38.3486 158.464C38.859 159.121 39.5495 159.449 40.4199 159.449C40.9121 159.449 41.3428 159.394 41.7119 159.285C42.0811 159.175 42.3864 158.991 42.6279 158.731V156.496H40.3242V155.429H43.9336V159.08ZM51.624 157.788H47.4541L46.5176 160.385H45.1641L48.9648 150.432H50.1133L53.9209 160.385H52.5742L51.624 157.788ZM47.8506 156.708H51.2344L49.5391 152.052L47.8506 156.708ZM58.7334 160.385V150.432H61.543C62.4089 150.432 63.1745 150.624 63.8398 151.006C64.5052 151.389 65.0179 151.934 65.3779 152.64C65.7425 153.347 65.9271 154.158 65.9316 155.074V155.709C65.9316 156.648 65.7493 157.471 65.3848 158.177C65.0247 158.884 64.5075 159.426 63.833 159.804C63.1631 160.182 62.3815 160.376 61.4883 160.385H58.7334ZM60.0459 151.512V159.312H61.4268C62.4385 159.312 63.2246 158.998 63.7852 158.369C64.3503 157.74 64.6328 156.844 64.6328 155.682V155.101C64.6328 153.971 64.3662 153.094 63.833 152.469C63.3044 151.84 62.5524 151.521 61.5771 151.512H60.0459ZM69.3291 160.385H68.0166V150.432H69.3291V160.385ZM74.668 155.949C73.5423 155.625 72.722 155.229 72.207 154.759C71.6966 154.285 71.4414 153.702 71.4414 153.009C71.4414 152.225 71.7536 151.578 72.3779 151.068C73.0068 150.553 73.8226 150.295 74.8252 150.295C75.5088 150.295 76.1172 150.428 76.6504 150.692C77.1882 150.956 77.6029 151.321 77.8945 151.786C78.1908 152.25 78.3389 152.759 78.3389 153.31H77.0195C77.0195 152.708 76.8281 152.237 76.4453 151.895C76.0625 151.549 75.5225 151.375 74.8252 151.375C74.1781 151.375 73.6722 151.519 73.3076 151.806C72.9476 152.089 72.7676 152.483 72.7676 152.989C72.7676 153.394 72.9385 153.738 73.2803 154.021C73.6266 154.299 74.2122 154.554 75.0371 154.787C75.8665 155.019 76.5137 155.277 76.9785 155.559C77.4479 155.837 77.7943 156.163 78.0176 156.537C78.2454 156.91 78.3594 157.35 78.3594 157.856C78.3594 158.663 78.0449 159.31 77.416 159.797C76.7871 160.28 75.9463 160.522 74.8936 160.522C74.21 160.522 73.5719 160.392 72.9795 160.132C72.387 159.868 71.929 159.508 71.6055 159.052C71.2865 158.597 71.127 158.079 71.127 157.5H72.4463C72.4463 158.102 72.6673 158.578 73.1094 158.929C73.556 159.276 74.1507 159.449 74.8936 159.449C75.5863 159.449 76.1172 159.307 76.4863 159.025C76.8555 158.742 77.04 158.357 77.04 157.87C77.04 157.382 76.8691 157.006 76.5273 156.742C76.1855 156.473 75.5658 156.208 74.668 155.949ZM86.9248 151.512H83.7256V160.385H82.4199V151.512H79.2275V150.432H86.9248V151.512ZM93.3506 157.788H89.1807L88.2441 160.385H86.8906L90.6914 150.432H91.8398L95.6475 160.385H94.3008L93.3506 157.788ZM89.5771 156.708H92.9609L91.2656 152.052L89.5771 156.708ZM104.637 160.385H103.317L98.3066 152.715V160.385H96.9873V150.432H98.3066L103.331 158.136V150.432H104.637V160.385ZM114.289 157.227C114.166 158.28 113.776 159.093 113.12 159.667C112.468 160.237 111.6 160.522 110.516 160.522C109.34 160.522 108.396 160.1 107.686 159.257C106.979 158.414 106.626 157.286 106.626 155.874V154.917C106.626 153.991 106.79 153.178 107.118 152.476C107.451 151.774 107.92 151.236 108.526 150.863C109.132 150.485 109.834 150.295 110.632 150.295C111.689 150.295 112.537 150.592 113.175 151.184C113.813 151.772 114.184 152.588 114.289 153.631H112.97C112.856 152.838 112.607 152.264 112.225 151.909C111.846 151.553 111.315 151.375 110.632 151.375C109.793 151.375 109.135 151.685 108.656 152.305C108.182 152.925 107.945 153.807 107.945 154.951V155.915C107.945 156.995 108.171 157.854 108.622 158.492C109.073 159.13 109.704 159.449 110.516 159.449C111.245 159.449 111.803 159.285 112.19 158.957C112.582 158.624 112.842 158.047 112.97 157.227H114.289ZM117.495 160.385H116.183V150.432H117.495V160.385ZM125.521 157.788H121.351L120.414 160.385H119.061L122.861 150.432H124.01L127.817 160.385H126.471L125.521 157.788ZM121.747 156.708H125.131L123.436 152.052L121.747 156.708ZM12.5635 174.385H11.251V164.432H12.5635V174.385ZM22.6191 174.385H21.2998L16.2891 166.715V174.385H14.9697V164.432H16.2891L21.3135 172.136V164.432H22.6191V174.385ZM31.6221 165.512H28.4229V174.385H27.1172V165.512H23.9248V164.432H31.6221V165.512ZM38.7246 169.785H34.4111V173.312H39.4219V174.385H33.0986V164.432H39.3535V165.512H34.4111V168.711H38.7246V169.785ZM44.7061 170.359H42.3682V174.385H41.0488V164.432H44.3438C45.4648 164.432 46.3262 164.687 46.9277 165.198C47.5339 165.708 47.8369 166.451 47.8369 167.426C47.8369 168.046 47.6683 168.586 47.3311 169.046C46.9984 169.507 46.5335 169.851 45.9365 170.079L48.2744 174.303V174.385H46.8662L44.7061 170.359ZM42.3682 169.286H44.3848C45.0365 169.286 45.5537 169.117 45.9365 168.78C46.3239 168.443 46.5176 167.991 46.5176 167.426C46.5176 166.811 46.333 166.339 45.9639 166.011C45.5993 165.683 45.0706 165.517 44.3779 165.512H42.3682V169.286ZM57.332 174.385H56.0127L51.002 166.715V174.385H49.6826V164.432H51.002L56.0264 172.136V164.432H57.332V174.385ZM65.2822 171.788H61.1123L60.1758 174.385H58.8223L62.623 164.432H63.7715L67.5791 174.385H66.2324L65.2822 171.788ZM61.5088 170.708H64.8926L63.1973 166.052L61.5088 170.708ZM76.1582 171.227C76.0352 172.28 75.6455 173.093 74.9893 173.667C74.3376 174.237 73.4694 174.522 72.3848 174.522C71.209 174.522 70.2656 174.1 69.5547 173.257C68.8483 172.414 68.4951 171.286 68.4951 169.874V168.917C68.4951 167.991 68.6592 167.178 68.9873 166.476C69.32 165.774 69.7894 165.236 70.3955 164.863C71.0016 164.485 71.7035 164.295 72.501 164.295C73.5583 164.295 74.4059 164.592 75.0439 165.184C75.682 165.772 76.0534 166.588 76.1582 167.631H74.8389C74.7249 166.838 74.4766 166.264 74.0938 165.909C73.7155 165.553 73.1846 165.375 72.501 165.375C71.6624 165.375 71.0039 165.685 70.5254 166.305C70.0514 166.925 69.8145 167.807 69.8145 168.951V169.915C69.8145 170.995 70.04 171.854 70.4912 172.492C70.9424 173.13 71.5736 173.449 72.3848 173.449C73.1139 173.449 73.6722 173.285 74.0596 172.957C74.4515 172.624 74.7113 172.047 74.8389 171.227H76.1582ZM79.3643 174.385H78.0518V164.432H79.3643V174.385ZM89.4268 169.73C89.4268 170.705 89.2627 171.557 88.9346 172.287C88.6064 173.011 88.1416 173.565 87.54 173.948C86.9385 174.331 86.2367 174.522 85.4346 174.522C84.6507 174.522 83.9557 174.331 83.3496 173.948C82.7435 173.56 82.2718 173.011 81.9346 172.3C81.6019 171.585 81.431 170.758 81.4219 169.819V169.101C81.4219 168.144 81.5882 167.299 81.9209 166.565C82.2536 165.831 82.723 165.271 83.3291 164.883C83.9398 164.491 84.637 164.295 85.4209 164.295C86.2184 164.295 86.9202 164.489 87.5264 164.876C88.137 165.259 88.6064 165.818 88.9346 166.551C89.2627 167.28 89.4268 168.13 89.4268 169.101V169.73ZM88.1211 169.087C88.1211 167.907 87.8841 167.002 87.4102 166.374C86.9362 165.74 86.2731 165.423 85.4209 165.423C84.5915 165.423 83.9375 165.74 83.459 166.374C82.985 167.002 82.7412 167.877 82.7275 168.999V169.73C82.7275 170.874 82.9668 171.774 83.4453 172.43C83.9284 173.082 84.5915 173.408 85.4346 173.408C86.2822 173.408 86.9385 173.1 87.4033 172.485C87.8682 171.865 88.1074 170.979 88.1211 169.826V169.087ZM99.0449 174.385H97.7256L92.7148 166.715V174.385H91.3955V164.432H92.7148L97.7393 172.136V164.432H99.0449V174.385ZM106.995 171.788H102.825L101.889 174.385H100.535L104.336 164.432H105.484L109.292 174.385H107.945L106.995 171.788ZM103.222 170.708H106.605L104.91 166.052L103.222 170.708ZM111.951 173.312H116.668V174.385H110.632V164.432H111.951V173.312Z" fill="#222222"/>
<g filter="url(#filter0_d)">
<path d="M150.516 130.479H155.688L154.906 134.995H149.75L148.672 141.104H143.875L144.938 134.995H139.75L140.531 130.479H145.719L146.75 124.542H151.547L150.516 130.479Z" fill="#EF3829"/>
</g>
<path d="M172.134 119.745L175.625 130.626L179.105 119.745H184.068V135.385H180.287V131.733L180.652 124.256L176.871 135.385H174.379L170.587 124.246L170.952 131.733V135.385H167.182V119.745H172.134ZM196.175 128.757H190.245V132.485H197.249V135.385H186.475V119.745H197.271V122.656H190.245V125.954H196.175V128.757ZM211.848 135.385H208.099L202.556 125.653V135.385H198.785V119.745H202.556L208.088 129.477V119.745H211.848V135.385ZM222.3 131.228C222.3 130.677 222.103 130.247 221.709 129.939C221.322 129.631 220.638 129.312 219.657 128.983C218.676 128.653 217.874 128.335 217.251 128.027C215.224 127.031 214.211 125.664 214.211 123.923C214.211 123.057 214.462 122.294 214.963 121.635C215.471 120.969 216.188 120.454 217.111 120.088C218.035 119.716 219.074 119.53 220.227 119.53C221.351 119.53 222.357 119.73 223.245 120.131C224.14 120.532 224.835 121.105 225.329 121.85C225.823 122.588 226.07 123.433 226.07 124.385H222.311C222.311 123.748 222.114 123.254 221.72 122.903C221.333 122.552 220.807 122.376 220.141 122.376C219.467 122.376 218.934 122.527 218.54 122.828C218.153 123.121 217.96 123.497 217.96 123.956C217.96 124.357 218.175 124.722 218.604 125.051C219.034 125.374 219.79 125.71 220.871 126.061C221.952 126.405 222.84 126.777 223.535 127.178C225.225 128.152 226.07 129.495 226.07 131.207C226.07 132.574 225.555 133.649 224.523 134.429C223.492 135.21 222.078 135.6 220.28 135.6C219.013 135.6 217.863 135.375 216.832 134.923C215.808 134.465 215.035 133.842 214.512 133.054C213.996 132.259 213.738 131.346 213.738 130.315H217.52C217.52 131.153 217.734 131.772 218.164 132.173C218.601 132.567 219.306 132.764 220.28 132.764C220.903 132.764 221.394 132.632 221.752 132.367C222.117 132.095 222.3 131.715 222.3 131.228ZM236.888 132.463H231.721L230.818 135.385H226.79L232.526 119.745H236.071L241.851 135.385H237.801L236.888 132.463ZM232.623 129.552H235.985L234.299 124.127L232.623 129.552ZM249.23 119.745H252.99V130.476C252.99 131.472 252.757 132.36 252.292 133.14C251.834 133.921 251.189 134.526 250.358 134.956C249.535 135.385 248.615 135.6 247.598 135.6C245.893 135.6 244.568 135.17 243.623 134.311C242.678 133.452 242.205 132.234 242.205 130.659H245.986C245.986 131.375 246.108 131.894 246.352 132.216C246.602 132.539 247.018 132.7 247.598 132.7C248.12 132.7 248.521 132.506 248.801 132.12C249.087 131.726 249.23 131.178 249.23 130.476V119.745ZM265.075 128.757H259.146V132.485H266.149V135.385H255.375V119.745H266.171V122.656H259.146V125.954H265.075V128.757ZM275.753 131.228C275.753 130.677 275.556 130.247 275.162 129.939C274.775 129.631 274.091 129.312 273.11 128.983C272.129 128.653 271.327 128.335 270.704 128.027C268.677 127.031 267.664 125.664 267.664 123.923C267.664 123.057 267.915 122.294 268.416 121.635C268.924 120.969 269.641 120.454 270.564 120.088C271.488 119.716 272.527 119.53 273.68 119.53C274.804 119.53 275.81 119.73 276.698 120.131C277.593 120.532 278.288 121.105 278.782 121.85C279.276 122.588 279.523 123.433 279.523 124.385H275.764C275.764 123.748 275.567 123.254 275.173 122.903C274.786 122.552 274.26 122.376 273.594 122.376C272.921 122.376 272.387 122.527 271.993 122.828C271.606 123.121 271.413 123.497 271.413 123.956C271.413 124.357 271.628 124.722 272.058 125.051C272.487 125.374 273.243 125.71 274.324 126.061C275.406 126.405 276.294 126.777 276.988 127.178C278.678 128.152 279.523 129.495 279.523 131.207C279.523 132.574 279.008 133.649 277.977 134.429C276.945 135.21 275.531 135.6 273.733 135.6C272.466 135.6 271.316 135.375 270.285 134.923C269.261 134.465 268.488 133.842 267.965 133.054C267.449 132.259 267.191 131.346 267.191 130.315H270.973C270.973 131.153 271.188 131.772 271.617 132.173C272.054 132.567 272.759 132.764 273.733 132.764C274.356 132.764 274.847 132.632 275.205 132.367C275.57 132.095 275.753 131.715 275.753 131.228ZM171.199 157.385H167.439V141.745H171.199V157.385ZM177.591 154.485H184.154V157.385H173.82V141.745H177.591V154.485ZM189.762 157.385H186.002V141.745H189.762V157.385ZM197.335 141.745L200.826 152.626L204.307 141.745H209.27V157.385H205.488V153.733L205.854 146.256L202.072 157.385H199.58L195.788 146.246L196.153 153.733V157.385H192.383V141.745H197.335ZM215.693 157.385H211.934V141.745H215.693V157.385ZM230.271 144.656H225.576V157.385H221.806V144.656H217.197V141.745H230.271V144.656ZM239.466 154.463H234.299L233.396 157.385H229.368L235.104 141.745H238.649L244.429 157.385H240.379L239.466 154.463ZM235.201 151.552H238.563L236.877 146.127L235.201 151.552ZM245.578 157.385V141.745H250.616C251.998 141.745 253.241 142.06 254.344 142.69C255.447 143.313 256.306 144.197 256.922 145.343C257.545 146.482 257.86 147.76 257.867 149.178V149.898C257.867 151.33 257.563 152.616 256.954 153.754C256.353 154.886 255.5 155.774 254.397 156.418C253.302 157.056 252.077 157.378 250.724 157.385H245.578ZM249.349 144.656V154.485H250.659C251.741 154.485 252.571 154.102 253.151 153.335C253.731 152.562 254.021 151.416 254.021 149.898V149.221C254.021 147.71 253.731 146.571 253.151 145.805C252.571 145.039 251.726 144.656 250.616 144.656H249.349ZM273.046 149.887C273.046 151.413 272.763 152.763 272.197 153.937C271.632 155.111 270.826 156.017 269.78 156.655C268.742 157.285 267.557 157.6 266.225 157.6C264.893 157.6 263.711 157.296 262.68 156.687C261.648 156.071 260.843 155.194 260.263 154.055C259.69 152.917 259.389 151.61 259.36 150.134V149.253C259.36 147.721 259.64 146.371 260.198 145.204C260.764 144.029 261.57 143.123 262.615 142.486C263.668 141.848 264.864 141.53 266.203 141.53C267.528 141.53 268.71 141.845 269.748 142.475C270.786 143.105 271.592 144.004 272.165 145.171C272.745 146.332 273.039 147.664 273.046 149.167V149.887ZM269.211 149.232C269.211 147.678 268.95 146.5 268.427 145.698C267.911 144.889 267.17 144.484 266.203 144.484C264.312 144.484 263.313 145.902 263.206 148.738L263.195 149.887C263.195 151.42 263.45 152.598 263.958 153.421C264.466 154.245 265.222 154.657 266.225 154.657C267.177 154.657 267.911 154.252 268.427 153.443C268.942 152.634 269.204 151.47 269.211 149.952V149.232ZM283.058 153.228C283.058 152.677 282.861 152.247 282.467 151.939C282.08 151.631 281.396 151.312 280.415 150.983C279.434 150.653 278.632 150.335 278.009 150.027C275.982 149.031 274.969 147.664 274.969 145.923C274.969 145.057 275.219 144.294 275.721 143.635C276.229 142.969 276.945 142.454 277.869 142.088C278.793 141.716 279.831 141.53 280.984 141.53C282.109 141.53 283.115 141.73 284.003 142.131C284.898 142.532 285.593 143.105 286.087 143.85C286.581 144.588 286.828 145.433 286.828 146.385H283.068C283.068 145.748 282.871 145.254 282.478 144.903C282.091 144.552 281.564 144.376 280.898 144.376C280.225 144.376 279.692 144.527 279.298 144.828C278.911 145.121 278.718 145.497 278.718 145.956C278.718 146.357 278.933 146.722 279.362 147.051C279.792 147.374 280.548 147.71 281.629 148.061C282.71 148.405 283.598 148.777 284.293 149.178C285.983 150.152 286.828 151.495 286.828 153.207C286.828 154.574 286.312 155.649 285.281 156.429C284.25 157.21 282.836 157.6 281.038 157.6C279.771 157.6 278.621 157.375 277.59 156.923C276.566 156.465 275.792 155.842 275.27 155.054C274.754 154.259 274.496 153.346 274.496 152.315H278.277C278.277 153.153 278.492 153.772 278.922 154.173C279.359 154.567 280.064 154.764 281.038 154.764C281.661 154.764 282.152 154.632 282.51 154.367C282.875 154.095 283.058 153.715 283.058 153.228Z" fill="#222222"/>
<path d="M168.851 162.432L172.104 170.553L175.358 162.432H177.061V172.385H175.748V168.509L175.871 164.326L172.604 172.385H171.599L168.338 164.346L168.468 168.509V172.385H167.155V162.432H168.851ZM186.385 162.432V169.2C186.38 170.139 186.084 170.906 185.496 171.503C184.913 172.1 184.12 172.435 183.117 172.508L182.769 172.522C181.679 172.522 180.811 172.228 180.164 171.64C179.517 171.052 179.189 170.243 179.18 169.213V162.432H180.479V169.172C180.479 169.892 180.677 170.453 181.073 170.854C181.47 171.25 182.035 171.449 182.769 171.449C183.511 171.449 184.079 171.25 184.471 170.854C184.867 170.458 185.065 169.899 185.065 169.179V162.432H186.385ZM189.775 171.312H194.492V172.385H188.456V162.432H189.775V171.312ZM200.979 163.512H197.78V172.385H196.475V163.512H193.282V162.432H200.979V163.512ZM203.864 172.385H202.552V162.432H203.864V172.385ZM206.271 172.385V162.432H209.08C209.946 162.432 210.712 162.624 211.377 163.006C212.042 163.389 212.555 163.934 212.915 164.64C213.28 165.347 213.464 166.158 213.469 167.074V167.709C213.469 168.648 213.286 169.471 212.922 170.177C212.562 170.884 212.045 171.426 211.37 171.804C210.7 172.182 209.919 172.376 209.025 172.385H206.271ZM207.583 163.512V171.312H208.964C209.976 171.312 210.762 170.998 211.322 170.369C211.887 169.74 212.17 168.844 212.17 167.682V167.101C212.17 165.971 211.903 165.094 211.37 164.469C210.841 163.84 210.09 163.521 209.114 163.512H207.583ZM221.084 167.785H216.771V171.312H221.781V172.385H215.458V162.432H221.713V163.512H216.771V166.711H221.084V167.785ZM226.348 167.949C225.222 167.625 224.402 167.229 223.887 166.759C223.376 166.285 223.121 165.702 223.121 165.009C223.121 164.225 223.433 163.578 224.058 163.068C224.687 162.553 225.502 162.295 226.505 162.295C227.188 162.295 227.797 162.428 228.33 162.692C228.868 162.956 229.283 163.321 229.574 163.786C229.87 164.25 230.019 164.759 230.019 165.31H228.699C228.699 164.708 228.508 164.237 228.125 163.895C227.742 163.549 227.202 163.375 226.505 163.375C225.858 163.375 225.352 163.519 224.987 163.806C224.627 164.089 224.447 164.483 224.447 164.989C224.447 165.394 224.618 165.738 224.96 166.021C225.306 166.299 225.892 166.554 226.717 166.787C227.546 167.019 228.193 167.277 228.658 167.559C229.128 167.837 229.474 168.163 229.697 168.537C229.925 168.91 230.039 169.35 230.039 169.856C230.039 170.663 229.725 171.31 229.096 171.797C228.467 172.28 227.626 172.522 226.573 172.522C225.89 172.522 225.252 172.392 224.659 172.132C224.067 171.868 223.609 171.508 223.285 171.052C222.966 170.597 222.807 170.079 222.807 169.5H224.126C224.126 170.102 224.347 170.578 224.789 170.929C225.236 171.276 225.83 171.449 226.573 171.449C227.266 171.449 227.797 171.307 228.166 171.025C228.535 170.742 228.72 170.357 228.72 169.87C228.72 169.382 228.549 169.006 228.207 168.742C227.865 168.473 227.245 168.208 226.348 167.949ZM238.604 163.512H235.405V172.385H234.1V163.512H230.907V162.432H238.604V163.512ZM241.489 172.385H240.177V162.432H241.489V172.385ZM251.545 172.385H250.226L245.215 164.715V172.385H243.896V162.432H245.215L250.239 170.136V162.432H251.545V172.385ZM261.532 167.73C261.532 168.705 261.368 169.557 261.04 170.287C260.712 171.011 260.247 171.565 259.646 171.948C259.044 172.331 258.342 172.522 257.54 172.522C256.756 172.522 256.061 172.331 255.455 171.948C254.849 171.56 254.377 171.011 254.04 170.3C253.707 169.585 253.536 168.758 253.527 167.819V167.101C253.527 166.144 253.694 165.299 254.026 164.565C254.359 163.831 254.828 163.271 255.435 162.883C256.045 162.491 256.743 162.295 257.526 162.295C258.324 162.295 259.026 162.489 259.632 162.876C260.243 163.259 260.712 163.818 261.04 164.551C261.368 165.28 261.532 166.13 261.532 167.101V167.73ZM260.227 167.087C260.227 165.907 259.99 165.002 259.516 164.374C259.042 163.74 258.379 163.423 257.526 163.423C256.697 163.423 256.043 163.74 255.564 164.374C255.09 165.002 254.847 165.877 254.833 166.999V167.73C254.833 168.874 255.072 169.774 255.551 170.43C256.034 171.082 256.697 171.408 257.54 171.408C258.388 171.408 259.044 171.1 259.509 170.485C259.974 169.865 260.213 168.979 260.227 167.826V167.087Z" fill="#222222"/>
<g clip-path="url(#clip0)">
<path d="M26.2848 226C26.1996 226 26.1996 226 26.1996 226C25.3471 226 24.4947 226 23.7275 226C23.6423 226 23.557 226 23.557 225.916C22.9603 224.821 22.1079 224.063 20.9145 223.727C19.2096 223.306 17.8457 223.811 16.6523 225.074C15.9703 225.832 15.6293 226.758 15.6293 227.769C15.6293 228.527 15.7998 229.2 16.1408 229.874C16.8228 230.969 17.7604 231.727 19.0391 231.895C20.6587 232.148 22.0226 231.642 23.0456 230.295C23.216 230.127 23.3013 229.874 23.4718 229.621C23.4718 229.537 23.557 229.537 23.6423 229.537C24.4947 229.537 25.3471 229.537 26.1996 229.537C26.2848 229.537 26.2848 229.537 26.2848 229.621C25.9438 230.885 25.2619 231.979 24.239 232.821C23.216 233.663 22.1079 234.253 20.744 234.421C19.2096 234.59 17.6752 234.421 16.3113 233.579C14.5212 232.485 13.413 230.885 13.072 228.863C12.8163 227.011 13.1573 225.242 14.3507 223.727C15.1179 222.8 15.9703 221.958 17.0785 221.537C17.6752 221.285 18.2719 221.116 18.9539 221.116C19.8915 221.032 20.8292 221.032 21.7669 221.369C23.6423 221.958 25.0062 223.137 25.8586 224.906C26.0291 225.242 26.1143 225.579 26.2848 226Z" fill="#EF3829"/>
<path d="M38.1338 233.579C38.0485 233.579 38.0485 233.663 38.0485 233.663C37.4518 234.085 36.7699 234.337 36.0879 234.506C35.4912 234.59 34.8945 234.674 34.2978 234.59C33.1896 234.421 32.3372 234 31.911 232.906C31.7405 232.4 31.6552 231.895 31.7405 231.39C31.7405 230.969 31.8257 230.548 31.9962 230.127C32.3372 229.369 32.9339 228.863 33.7011 228.527C34.2978 228.274 34.8945 228.19 35.4912 228.106C36.0879 228.021 36.6846 227.937 37.2813 227.853C37.7075 227.769 38.0485 227.348 37.9633 226.842C37.878 226.421 37.7075 226.169 37.2813 226C36.7699 225.832 36.3436 225.832 35.8322 225.916C35.6617 225.916 35.4912 226 35.3207 226C34.8945 226.169 34.6388 226.59 34.4683 227.011V227.095C34.383 227.348 34.383 227.348 34.2125 227.348C33.4453 227.348 32.6782 227.348 31.911 227.348C31.8257 227.348 31.8257 227.348 31.8257 227.263C31.8257 226.927 31.911 226.59 31.9962 226.253C32.3372 224.99 33.1896 224.232 34.383 223.895C35.2355 223.642 36.0027 223.642 36.8551 223.727C37.6223 223.727 38.3895 223.979 39.0714 224.316C39.9239 224.737 40.3501 225.411 40.5206 226.253C40.6058 226.506 40.6058 226.758 40.6058 227.011C40.6058 229.537 40.6058 231.979 40.6058 234.506C40.6058 234.59 40.6058 234.674 40.4353 234.674C39.6682 234.674 38.8157 234.674 38.0485 234.674C37.9633 234.674 37.9633 234.674 37.9633 234.59C37.9633 234.337 37.9633 234 37.9633 233.748C38.219 233.579 38.219 233.579 38.1338 233.579ZM38.0485 229.285C37.9633 229.369 37.878 229.369 37.878 229.369C37.7928 229.453 37.6223 229.537 37.5371 229.537C37.0256 229.621 36.5994 229.79 36.0879 229.874C35.7469 229.958 35.4912 229.958 35.2355 230.127C34.8093 230.295 34.5535 230.632 34.4683 231.053C34.383 231.306 34.383 231.474 34.4683 231.727C34.5535 232.232 34.8945 232.653 35.406 232.737C36.1732 232.906 36.8551 232.653 37.4518 232.232C37.878 231.979 37.9633 231.474 38.0485 231.053C38.1338 230.463 38.0485 229.874 38.0485 229.285Z" fill="#EF3829"/>
<path d="M48.8745 229.116C48.8745 226.421 50.8351 224.569 52.54 223.979C55.8645 222.885 59.0185 224.906 59.7005 227.937C60.0414 229.621 59.7857 231.137 58.7628 232.485C57.9103 233.579 56.8022 234.337 55.4383 234.59C53.6482 234.927 52.0285 234.506 50.7499 233.242C49.9827 232.485 49.386 231.642 49.1302 230.632C48.9598 230.127 48.8745 229.621 48.8745 229.116ZM54.3301 226.337C52.7105 226.253 51.4318 227.769 51.4318 229.2C51.4318 230.548 52.54 232.063 54.3301 232.063C56.1202 232.063 57.2284 230.548 57.2284 229.2C57.2284 227.6 56.035 226.253 54.3301 226.337Z" fill="#EF3829"/>
<path d="M50.9203 239.895C50.9203 239.811 50.9203 239.811 50.9203 239.727C50.9203 238.716 50.9203 237.622 50.9203 236.611C50.9203 236.527 50.9203 236.527 51.0908 236.527C51.6875 236.527 52.199 236.527 52.7957 236.527C52.8809 236.527 52.8809 236.527 52.8809 236.611C52.8809 239.979 52.8809 243.348 52.8809 246.716C52.8809 246.801 52.8809 246.801 52.7957 246.801C52.2842 246.801 51.6875 246.801 51.176 246.801C51.0908 246.801 51.0908 246.801 51.0908 246.716C51.0908 246.548 51.0908 246.379 51.0908 246.127H51.0055C50.4941 246.632 49.8974 246.885 49.1302 246.885C48.7892 246.885 48.4482 246.801 48.1073 246.716C47.3401 246.464 46.9138 245.874 46.6581 245.116C46.5729 244.779 46.4876 244.443 46.4876 244.022C46.4876 243.095 46.4024 242.253 46.5729 241.327C46.6581 240.99 46.7434 240.653 46.8286 240.316C47.0843 239.727 47.5105 239.39 48.1073 239.222C48.8744 238.969 49.5564 238.969 50.3236 239.306C50.5793 239.558 50.7498 239.727 50.9203 239.895ZM50.9203 243.011C50.9203 242.927 50.9203 242.927 50.9203 242.843C50.9203 242.422 50.9203 241.916 50.7498 241.495C50.5793 241.158 50.4088 240.99 50.0679 240.906C49.9826 240.906 49.8121 240.822 49.7269 240.822C49.2154 240.822 48.7892 240.99 48.5335 241.579C48.4482 241.916 48.363 242.253 48.363 242.59C48.363 243.095 48.363 243.601 48.4482 244.106C48.5335 244.695 48.8744 245.116 49.5564 245.116C50.1531 245.116 50.5793 244.864 50.7498 244.358C50.9203 243.937 50.9203 243.516 50.9203 243.011Z" fill="black"/>
<path d="M45.0385 225.495C45.2942 225.158 45.4647 224.99 45.7204 224.737C46.2319 224.316 46.8286 223.979 47.5105 223.811C47.8515 223.727 48.1925 223.727 48.5335 223.643C48.6187 223.643 48.6187 223.727 48.6187 223.727C48.6187 224.232 48.6187 224.822 48.6187 225.327C48.6187 225.579 48.6187 225.916 48.6187 226.169C48.6187 226.253 48.6187 226.253 48.5335 226.253C48.2777 226.253 48.022 226.169 47.681 226.253C47.2548 226.253 46.9138 226.422 46.5729 226.59C45.8909 227.011 45.3794 227.516 45.209 228.358C45.1237 228.695 45.1237 229.116 45.1237 229.453C45.1237 231.053 45.1237 232.737 45.1237 234.337C45.1237 234.422 45.1237 234.506 44.9532 234.506C44.186 234.506 43.4188 234.506 42.6516 234.506C42.5664 234.506 42.5664 234.506 42.5664 234.422C42.5664 231.053 42.5664 227.685 42.5664 224.232C42.5664 224.148 42.5664 224.148 42.6516 224.148C43.4188 224.148 44.186 224.148 44.9532 224.148C45.0385 224.148 45.0385 224.148 45.0385 224.232C45.0385 224.737 45.0385 225.074 45.0385 225.495Z" fill="#EF3829"/>
<path d="M30.2061 227.769C30.2061 229.958 30.2061 232.232 30.2061 234.421C30.2061 234.506 30.2061 234.59 30.0356 234.59C29.2684 234.59 28.5012 234.59 27.6488 234.59C27.5635 234.59 27.4783 234.59 27.4783 234.421C27.4783 229.958 27.4783 225.579 27.4783 221.116C27.4783 221.032 27.4783 220.948 27.6488 220.948C28.416 220.948 29.2684 220.948 30.0356 220.948C30.1208 220.948 30.1208 220.948 30.1208 221.116C30.2061 223.39 30.2061 225.579 30.2061 227.769Z" fill="#EF3829"/>
<path d="M58.5922 243.601C57.825 243.601 57.0578 243.601 56.2906 243.601C56.2054 243.601 56.2054 243.601 56.2054 243.685C56.2054 244.443 56.6316 245.032 57.3135 245.116C58.0807 245.285 58.8479 245.201 59.4446 244.611C59.6151 244.443 59.6151 244.443 59.7004 244.611C60.0413 244.948 60.2971 245.201 60.638 245.537C60.7233 245.622 60.7233 245.622 60.638 245.622C60.1266 246.127 59.4446 246.548 58.6774 246.716C57.9102 246.801 57.1431 246.801 56.3759 246.548C55.5234 246.295 54.9267 245.706 54.5857 244.864C54.0743 243.516 54.0743 242.169 54.5857 240.906C55.0972 239.727 56.0349 239.137 57.3135 239.053C57.825 239.053 58.4217 239.053 58.8479 239.306C59.7856 239.727 60.3823 240.485 60.638 241.411C60.7233 241.832 60.8085 242.253 60.8085 242.674C60.8085 242.927 60.8085 243.18 60.8085 243.432C60.8085 243.516 60.8085 243.516 60.7233 243.516C60.1266 243.601 59.3594 243.601 58.5922 243.601ZM57.6545 242.337C58.0807 242.337 58.5922 242.337 59.0184 242.337C59.1037 242.337 59.1037 242.337 59.1037 242.253C59.1037 242.001 59.0184 241.832 58.9332 241.664C58.5922 240.653 57.3988 240.653 56.8021 240.99C56.3759 241.327 56.2054 241.748 56.2054 242.253C56.2054 242.337 56.2054 242.337 56.2906 242.337C56.7168 242.337 57.2283 242.337 57.6545 242.337Z" fill="black"/>
<path d="M68.566 243.011C68.566 243.601 68.566 244.19 68.3955 244.695C68.1398 245.706 67.4578 246.379 66.4349 246.716C65.5825 246.969 64.73 246.969 63.8776 246.548C62.9399 246.127 62.4284 245.453 62.2579 244.443C62.0874 243.685 62.0874 242.927 62.1727 242.169C62.1727 241.748 62.2579 241.243 62.5137 240.822C62.9399 239.895 63.7071 239.39 64.73 239.137C65.3267 239.053 66.0087 239.053 66.6054 239.222C67.6283 239.558 68.3103 240.316 68.566 241.411C68.566 242.001 68.566 242.506 68.566 243.011ZM64.0481 243.011C64.0481 243.432 64.0481 243.769 64.1333 244.19C64.3038 245.032 64.9005 245.369 65.6677 245.201C66.1792 245.116 66.4349 244.695 66.6054 244.274C66.7759 243.516 66.7759 242.758 66.6054 242.001C66.5201 241.579 66.3496 241.243 65.9234 241.074C65.5825 240.906 65.3267 240.906 64.9857 240.99C64.4743 241.158 64.2185 241.495 64.1333 241.916C64.0481 242.253 63.9628 242.59 64.0481 243.011Z" fill="black"/>
<path d="M35.0649 239.222C35.3207 239.222 35.5764 239.222 35.7469 239.222C36.1731 239.222 36.5141 239.222 36.9403 239.222C37.0255 239.222 37.1108 239.222 37.1108 239.39C37.6223 240.822 38.0485 242.337 38.5599 243.769V243.853C38.6452 243.853 38.5599 243.769 38.6452 243.769C39.1566 242.337 39.5829 240.822 40.0943 239.306C40.0943 239.222 40.1796 239.222 40.2648 239.222C40.8615 239.222 41.4582 239.222 42.0549 239.222C42.2254 239.222 42.2254 239.222 42.1402 239.306C41.373 241.411 40.5205 243.601 39.7533 245.706C39.6681 246.043 39.4976 246.295 39.4124 246.632C39.4124 246.716 39.3271 246.716 39.3271 246.716C38.9009 246.716 38.4747 246.716 38.0485 246.716C37.9632 246.716 37.9632 246.716 37.878 246.632C37.2813 245.116 36.7698 243.601 36.1731 242.085C35.8321 241.159 35.4912 240.232 35.1502 239.39C35.1502 239.306 35.1502 239.306 35.0649 239.222Z" fill="black"/>
<path d="M60.2972 224.148C60.2972 224.064 60.2119 224.064 60.2972 224.148C59.7005 223.558 59.189 223.053 58.6775 222.548C58.5923 222.464 58.6775 222.464 58.6775 222.379L58.7628 222.295C60.8086 220.274 62.8545 218.253 64.8151 216.232C64.9003 216.148 64.9003 216.148 64.9856 216.232C65.497 216.737 66.0085 217.243 66.52 217.748C66.6052 217.832 66.6052 217.832 66.52 217.916C64.4741 219.937 62.4283 221.958 60.2972 224.148C60.3824 224.064 60.2972 224.064 60.2972 224.148Z" fill="#EF3829"/>
<path d="M64.9003 226.674C66.0084 226.674 67.1166 226.674 68.2248 226.674C68.31 226.674 68.31 226.674 68.31 226.759C68.31 227.432 68.31 228.19 68.31 228.864C68.31 228.948 68.31 228.948 68.2248 228.948C66.0084 228.948 63.7069 228.948 61.4905 228.948C61.4053 228.948 61.4053 228.948 61.4053 228.864C61.4053 228.19 61.4053 227.432 61.4053 226.759C61.4053 226.674 61.4053 226.674 61.4905 226.674C62.6839 226.674 63.7921 226.674 64.9003 226.674Z" fill="#EF3829"/>
<path d="M53.4778 218.253C53.4778 217.158 53.4778 216.064 53.4778 215.053C53.4778 214.969 53.4778 214.885 53.563 214.885C54.245 214.885 54.9269 214.885 55.6941 214.885C55.7794 214.885 55.7794 214.885 55.7794 214.969C55.7794 217.158 55.7794 219.264 55.7794 221.453C55.7794 221.537 55.7794 221.537 55.6941 221.537C55.0122 221.537 54.245 221.537 53.563 221.537C53.4778 221.537 53.4778 221.537 53.4778 221.453C53.4778 220.443 53.4778 219.348 53.4778 218.253Z" fill="#EF3829"/>
<path d="M43.0779 243.011C43.0779 241.832 43.0779 240.569 43.0779 239.39C43.0779 239.306 43.0779 239.222 43.1631 239.222C43.7598 239.222 44.2713 239.222 44.868 239.222C44.9533 239.222 44.9532 239.222 44.9532 239.306C44.9532 241.748 44.9532 244.19 44.9532 246.632C44.9532 246.716 44.9533 246.716 44.868 246.716C44.2713 246.716 43.7598 246.716 43.1631 246.716C43.0779 246.716 43.0779 246.716 43.0779 246.632C43.0779 245.453 43.0779 244.19 43.0779 243.011Z" fill="black"/>
<path d="M42.8223 237.116C42.8223 236.443 43.3337 235.938 44.0157 235.938C44.6976 235.938 45.2091 236.443 45.2091 237.116C45.2091 237.79 44.6976 238.295 44.0157 238.295C43.3337 238.295 42.8223 237.79 42.8223 237.116Z" fill="black"/>
</g>
<g filter="url(#filter1_d)">
<path d="M89.4578 227.09H93.3367L92.7507 230.477H88.8835L88.075 235.059H84.4773L85.2742 230.477H81.3835L81.9695 227.09H85.8601L86.6335 222.637H90.2312L89.4578 227.09Z" fill="#EF3829"/>
</g>
<path d="M113.262 225.908C112.842 225.908 112.421 225.908 112 225.908C111.916 225.908 111.916 225.908 111.832 225.823C111.243 224.73 110.486 223.972 109.308 223.72C107.793 223.299 106.447 223.72 105.353 224.814C104.764 225.403 104.343 226.16 104.175 227.001C103.922 228.684 104.427 230.031 105.774 231.04C107.036 232.05 108.971 232.134 110.402 231.209C110.991 230.788 111.495 230.283 111.832 229.61C111.916 229.526 111.916 229.526 112 229.526C112.842 229.526 113.599 229.526 114.44 229.526C114.525 229.526 114.525 229.526 114.525 229.61C114.104 230.956 113.431 232.05 112.337 232.976C111.495 233.733 110.486 234.154 109.392 234.322C107.709 234.574 106.194 234.406 104.764 233.48C103.081 232.387 101.987 230.872 101.651 228.853C101.398 227.001 101.735 225.319 102.829 223.804C103.586 222.794 104.511 221.953 105.69 221.532C106.363 221.28 107.036 221.111 107.793 221.111C108.55 221.111 109.308 221.111 110.065 221.364C111.748 221.953 113.094 222.962 113.936 224.561C114.188 224.982 114.356 225.487 114.525 225.908C114.525 225.992 114.525 225.992 114.44 225.992C114.104 225.908 113.683 225.908 113.262 225.908Z" fill="#EF3829"/>
<path d="M126.389 233.397C126.052 233.733 125.632 233.902 125.211 234.07C124.369 234.406 123.528 234.491 122.602 234.406C122.013 234.322 121.424 234.154 120.92 233.733C120.415 233.228 120.162 232.639 120.078 231.882C120.078 231.377 120.078 230.872 120.162 230.368C120.415 229.442 121.004 228.853 121.845 228.516C122.434 228.264 123.023 228.18 123.612 228.096C124.285 228.012 124.874 227.927 125.547 227.759C125.968 227.675 126.305 227.254 126.221 226.665C126.136 226.329 125.968 226.076 125.632 225.992C125.379 225.908 125.127 225.824 124.874 225.824C124.538 225.824 124.285 225.824 123.949 225.824C123.444 225.908 123.107 226.245 122.855 226.749C122.855 226.834 122.771 226.918 122.771 227.086C122.771 227.17 122.687 227.254 122.602 227.254C121.845 227.254 121.088 227.254 120.246 227.254C120.162 227.254 120.162 227.254 120.162 227.17C120.162 226.834 120.246 226.413 120.331 226.076C120.667 224.982 121.424 224.225 122.518 223.888C122.939 223.72 123.444 223.636 123.949 223.636C124.874 223.552 125.8 223.636 126.726 223.888C126.978 223.973 127.23 224.057 127.567 224.225C128.324 224.562 128.661 225.151 128.829 225.992C128.913 226.329 128.913 226.581 128.913 226.918C128.913 229.358 128.913 231.882 128.913 234.322C128.913 234.406 128.913 234.491 128.745 234.491C127.988 234.491 127.23 234.491 126.389 234.491C126.305 234.491 126.221 234.491 126.305 234.322C126.389 234.07 126.389 233.733 126.389 233.397ZM126.221 229.19C126.052 229.274 125.884 229.442 125.716 229.442C125.295 229.61 124.79 229.694 124.369 229.779C124.033 229.863 123.78 229.863 123.444 230.031C123.023 230.199 122.771 230.452 122.687 230.957C122.602 231.125 122.602 231.377 122.687 231.546C122.771 232.135 123.107 232.471 123.612 232.555C123.949 232.639 124.285 232.639 124.622 232.471C125.716 232.135 126.052 231.63 126.221 230.788C126.305 230.283 126.221 229.779 126.221 229.19Z" fill="#EF3829"/>
<path d="M142.208 234.49C140.609 234.49 139.347 233.901 138.338 232.723C137.496 231.797 136.991 230.788 136.907 229.525C136.739 227.422 137.58 225.739 139.263 224.561C140.02 223.972 140.862 223.719 141.872 223.635C142.629 223.551 143.47 223.635 144.144 223.972C145.995 224.729 147.173 226.076 147.593 228.095C147.846 229.61 147.593 231.04 146.752 232.218C145.911 233.396 144.817 234.153 143.386 234.406C142.881 234.49 142.545 234.49 142.208 234.49ZM142.208 226.244C140.609 226.16 139.347 227.59 139.347 229.105C139.347 230.535 140.525 231.966 142.208 231.966C143.891 231.966 145.069 230.535 145.069 229.105C145.069 227.506 143.807 226.16 142.208 226.244Z" fill="#EF3829"/>
<path d="M114.693 239.96C115.029 239.623 115.366 239.455 115.787 239.286C116.544 239.034 117.217 239.118 117.89 239.455C118.143 239.623 118.311 239.791 118.563 240.044C118.648 240.128 118.648 240.128 118.732 240.044C119.152 239.623 119.657 239.286 120.246 239.202C120.919 239.118 121.508 239.118 122.182 239.371C122.939 239.707 123.36 240.38 123.528 241.222C123.612 241.474 123.612 241.727 123.612 241.979C123.612 243.494 123.612 245.092 123.612 246.607C123.612 246.691 123.612 246.775 123.528 246.691C123.023 246.691 122.434 246.691 121.929 246.691C121.845 246.691 121.845 246.691 121.845 246.607C121.845 245.092 121.845 243.662 121.845 242.147C121.845 241.895 121.845 241.642 121.677 241.474C121.508 241.053 121.004 240.801 120.583 240.801C120.162 240.801 119.826 240.969 119.573 241.306C119.405 241.558 119.321 241.811 119.321 242.063C119.321 243.578 119.321 245.008 119.321 246.523C119.321 246.607 119.321 246.691 119.152 246.691C118.648 246.691 118.059 246.691 117.554 246.691C117.47 246.691 117.47 246.691 117.47 246.607C117.47 245.092 117.47 243.662 117.47 242.147C117.47 241.895 117.47 241.642 117.301 241.39C117.049 240.969 116.712 240.801 116.292 240.801C115.787 240.801 115.45 240.969 115.198 241.39C115.029 241.642 115.029 241.895 115.029 242.147C115.029 243.578 115.029 245.092 115.029 246.523C115.029 246.607 115.029 246.607 114.945 246.607C114.356 246.607 113.851 246.607 113.262 246.607C113.178 246.607 113.178 246.607 113.178 246.523C113.178 244.083 113.178 241.642 113.178 239.202C113.178 239.118 113.178 239.118 113.262 239.118C113.767 239.118 114.356 239.118 114.861 239.118C114.945 239.118 114.945 239.118 114.945 239.202C114.693 239.539 114.693 239.791 114.693 239.96Z" fill="black"/>
<path d="M133.12 225.403C133.289 225.234 133.373 225.15 133.457 224.982C134.046 224.393 134.719 223.972 135.476 223.804C135.813 223.72 136.15 223.636 136.486 223.636C136.57 223.636 136.57 223.636 136.57 223.72C136.57 224.561 136.57 225.319 136.57 226.16C136.57 226.244 136.57 226.244 136.486 226.244C136.15 226.244 135.897 226.16 135.561 226.244C135.14 226.244 134.719 226.412 134.383 226.665C134.298 226.749 134.13 226.833 134.046 226.917C133.541 227.338 133.289 227.927 133.205 228.6C133.205 228.937 133.12 229.273 133.12 229.61C133.12 231.209 133.12 232.723 133.12 234.322C133.12 234.406 133.12 234.406 132.952 234.406C132.195 234.406 131.438 234.406 130.596 234.406C130.512 234.406 130.512 234.406 130.512 234.322C130.512 230.956 130.512 227.591 130.512 224.225C130.512 224.141 130.512 224.141 130.596 224.141C131.353 224.141 132.111 224.141 132.784 224.141C132.868 224.141 132.952 224.141 132.952 224.309C133.12 224.645 133.12 225.066 133.12 225.403Z" fill="#EF3829"/>
<path d="M115.955 227.759C115.955 225.571 115.955 223.383 115.955 221.196C115.955 221.111 115.955 221.027 116.124 221.027C116.881 221.027 117.638 221.027 118.48 221.027C118.564 221.027 118.648 221.027 118.648 221.111C118.648 225.487 118.648 229.947 118.648 234.322C118.648 234.406 118.648 234.49 118.564 234.49C117.806 234.49 116.965 234.49 116.208 234.49C116.124 234.49 116.124 234.49 116.124 234.322C115.955 232.134 115.955 229.947 115.955 227.759Z" fill="#EF3829"/>
<path d="M154.157 246.102C153.988 246.271 153.82 246.439 153.568 246.523C153.231 246.776 152.894 246.86 152.474 246.86C152.053 246.86 151.632 246.86 151.212 246.691C150.37 246.439 149.949 245.85 149.781 245.009C149.697 244.672 149.697 244.251 149.865 243.915C150.034 243.326 150.37 242.905 150.959 242.652C151.464 242.4 151.885 242.4 152.474 242.4C152.979 242.4 153.568 242.4 154.072 242.4C154.157 242.4 154.157 242.4 154.157 242.316C154.157 242.148 154.157 241.895 154.157 241.727C154.072 241.306 153.82 240.97 153.399 240.885C152.979 240.801 152.558 240.801 152.221 240.885C151.885 240.97 151.632 241.138 151.464 241.39C151.38 241.474 151.38 241.474 151.296 241.39C150.959 241.054 150.623 240.717 150.202 240.381C150.118 240.296 150.118 240.296 150.202 240.212C150.707 239.707 151.296 239.371 152.053 239.287C152.726 239.203 153.399 239.203 154.072 239.371C154.746 239.539 155.335 239.876 155.671 240.465C155.924 240.885 156.008 241.306 156.008 241.811C156.008 243.41 156.008 245.009 156.008 246.691C156.008 246.776 156.008 246.86 155.839 246.86C155.335 246.86 154.83 246.86 154.241 246.86C154.157 246.86 154.157 246.86 154.157 246.776C154.157 246.523 154.157 246.355 154.157 246.102ZM154.072 243.999C154.072 243.915 154.072 243.83 154.072 243.746C154.072 243.662 154.072 243.662 153.988 243.662C153.568 243.662 153.063 243.662 152.642 243.662C152.474 243.662 152.39 243.662 152.221 243.746C151.801 243.83 151.632 244.083 151.548 244.504C151.548 244.924 151.716 245.177 152.137 245.345C152.558 245.513 152.979 245.429 153.399 245.345C153.82 245.261 154.072 244.924 154.072 244.504C154.072 244.251 154.072 244.083 154.072 243.999Z" fill="black"/>
<path d="M129.502 246.102C128.745 246.86 127.819 247.028 126.81 246.775C125.884 246.523 125.379 245.934 125.211 245.008C125.127 244.756 125.127 244.419 125.127 244.167C125.127 242.568 125.127 241.054 125.127 239.455C125.127 239.371 125.127 239.287 125.295 239.287C125.8 239.287 126.389 239.287 126.894 239.287C126.978 239.287 126.978 239.287 126.978 239.371C126.978 240.885 126.978 242.316 126.978 243.83C126.978 244.251 127.062 244.588 127.314 244.84C127.567 245.093 127.903 245.177 128.24 245.177C128.661 245.177 128.997 245.008 129.25 244.672C129.418 244.504 129.418 244.251 129.502 243.999C129.502 243.746 129.502 243.578 129.502 243.326C129.502 242.063 129.502 240.717 129.502 239.455C129.502 239.371 129.502 239.371 129.586 239.371C130.091 239.371 130.68 239.371 131.185 239.371C131.269 239.371 131.269 239.371 131.269 239.455C131.269 241.895 131.269 244.335 131.269 246.691C131.269 246.775 131.269 246.775 131.185 246.775C130.68 246.775 130.091 246.775 129.586 246.775C129.502 246.775 129.502 246.775 129.502 246.691C129.502 246.439 129.502 246.271 129.502 246.102Z" fill="black"/>
<path d="M135.476 246.86C134.635 246.86 133.962 246.775 133.373 246.523C133.036 246.355 132.7 246.102 132.447 245.85C132.363 245.766 132.363 245.766 132.447 245.766C132.784 245.429 133.204 245.008 133.541 244.672C133.541 244.672 133.625 244.588 133.625 244.672C134.046 245.008 134.467 245.261 134.971 245.261C135.392 245.345 135.897 245.345 136.318 245.177C136.486 245.093 136.654 245.008 136.823 244.84C137.075 244.419 136.907 243.915 136.402 243.83C136.065 243.746 135.729 243.746 135.392 243.746C134.971 243.662 134.551 243.662 134.13 243.578C133.204 243.326 132.7 242.652 132.7 241.727C132.7 240.633 133.289 239.791 134.382 239.455C134.887 239.287 135.392 239.287 135.897 239.287C136.486 239.287 137.075 239.371 137.664 239.623C137.917 239.707 138.169 239.876 138.421 240.128C138.506 240.128 138.506 240.212 138.421 240.212C138.085 240.549 137.748 240.885 137.412 241.222C137.412 241.306 137.327 241.306 137.327 241.222C136.991 240.97 136.57 240.801 136.149 240.801C135.813 240.801 135.56 240.717 135.224 240.801C135.056 240.801 134.971 240.885 134.887 240.97C134.635 241.138 134.551 241.39 134.635 241.643C134.719 241.895 134.971 242.063 135.224 242.063C135.645 242.148 136.065 242.148 136.57 242.232C136.991 242.232 137.327 242.316 137.748 242.484C138.421 242.821 138.758 243.326 138.842 243.999C138.926 244.419 138.842 244.84 138.758 245.261C138.506 245.934 138.001 246.355 137.327 246.607C136.57 246.775 135.981 246.86 135.476 246.86Z" fill="black"/>
<path d="M143.302 243.073C143.302 242.316 143.386 241.643 143.723 240.97C144.143 240.044 144.901 239.455 145.995 239.287C146.668 239.203 147.341 239.203 147.93 239.371C148.435 239.539 148.771 239.792 149.108 240.128C149.192 240.212 149.108 240.212 149.108 240.212C148.687 240.633 148.351 240.97 147.93 241.39C147.846 241.474 147.846 241.39 147.846 241.39C147.593 241.138 147.425 240.97 147.088 240.885C146.247 240.717 145.574 241.138 145.321 241.979C145.153 242.652 145.153 243.326 145.321 243.999C145.49 244.588 145.826 244.924 146.331 245.093C146.836 245.177 147.341 245.093 147.762 244.672C147.93 244.504 147.93 244.504 148.014 244.672C148.351 245.009 148.687 245.345 149.024 245.682C149.108 245.766 149.108 245.766 149.024 245.85C148.351 246.523 147.509 246.776 146.584 246.776C145.91 246.776 145.321 246.607 144.817 246.271C144.143 245.85 143.723 245.177 143.47 244.419C143.386 243.999 143.302 243.494 143.302 243.073Z" fill="black"/>
<path d="M148.098 224.056C148.014 224.056 148.014 224.056 148.098 224.056C147.509 223.467 147.004 222.963 146.499 222.458C146.415 222.374 146.499 222.374 146.499 222.289C147.425 221.364 148.35 220.438 149.276 219.513C150.37 218.419 151.464 217.325 152.558 216.231C152.642 216.147 152.642 216.147 152.726 216.231C153.231 216.736 153.736 217.241 154.156 217.746C154.241 217.83 154.241 217.83 154.156 217.914C152.221 219.933 150.202 221.953 148.098 224.056C148.098 223.972 148.098 224.056 148.098 224.056Z" fill="#EF3829"/>
<path d="M152.642 228.937C151.548 228.937 150.454 228.937 149.36 228.937C149.276 228.937 149.192 228.937 149.192 228.768C149.192 228.095 149.192 227.422 149.192 226.665C149.192 226.581 149.192 226.581 149.276 226.581C151.464 226.581 153.652 226.581 155.839 226.581C155.923 226.581 155.923 226.581 155.923 226.665C155.923 227.338 155.923 228.011 155.923 228.768C155.923 228.852 155.923 228.852 155.839 228.852C154.83 228.937 153.736 228.937 152.642 228.937Z" fill="#EF3829"/>
<path d="M141.366 218.251C141.366 217.157 141.366 216.147 141.366 215.053C141.366 214.885 141.451 214.885 141.535 214.885C142.208 214.885 142.881 214.885 143.638 214.885C143.722 214.885 143.722 214.885 143.722 214.969C143.722 217.157 143.722 219.26 143.722 221.448C143.722 221.532 143.722 221.532 143.638 221.532C142.965 221.532 142.292 221.532 141.535 221.532C141.451 221.532 141.451 221.532 141.451 221.448C141.366 220.354 141.366 219.26 141.366 218.251Z" fill="#EF3829"/>
<path d="M140.02 242.989C140.02 241.811 140.02 240.549 140.02 239.371C140.02 239.287 140.02 239.287 140.104 239.287C140.693 239.287 141.198 239.287 141.787 239.287C141.871 239.287 141.871 239.287 141.871 239.371C141.871 241.811 141.871 244.251 141.871 246.607C141.871 246.691 141.871 246.691 141.787 246.691C141.198 246.691 140.693 246.691 140.104 246.691C140.02 246.691 140.02 246.691 140.02 246.607C140.02 245.429 140.02 244.251 140.02 242.989Z" fill="black"/>
<path d="M140.946 238.361C140.273 238.361 139.768 237.856 139.768 237.183C139.768 236.51 140.273 236.005 140.946 236.005C141.619 236.005 142.124 236.51 142.124 237.183C142.124 237.856 141.619 238.361 140.946 238.361Z" fill="black"/>
<path d="M127.399 238.109C127.483 237.856 127.567 237.604 127.735 237.267C127.904 236.762 128.156 236.257 128.324 235.753C128.324 235.668 128.324 235.668 128.408 235.668C128.997 235.668 129.671 235.668 130.26 235.668C130.26 235.668 130.26 235.753 130.175 235.753C129.671 236.51 129.166 237.267 128.661 238.024C128.661 238.109 128.577 238.109 128.493 238.109C128.156 238.109 127.735 238.109 127.399 238.109Z" fill="black"/>
<path d="M23.0498 268.389C23.0498 268.001 22.9131 267.705 22.6396 267.5C22.3662 267.29 21.874 267.072 21.1631 266.844C20.4521 266.611 19.8893 266.383 19.4746 266.16C18.3444 265.549 17.7793 264.727 17.7793 263.692C17.7793 263.155 17.9297 262.676 18.2305 262.257C18.5358 261.833 18.971 261.503 19.5361 261.266C20.1058 261.029 20.7438 260.91 21.4502 260.91C22.1611 260.91 22.7946 261.04 23.3506 261.3C23.9066 261.555 24.3372 261.917 24.6426 262.387C24.9525 262.856 25.1074 263.389 25.1074 263.986H23.0566C23.0566 263.531 22.9131 263.177 22.626 262.927C22.3389 262.672 21.9355 262.544 21.416 262.544C20.9147 262.544 20.5251 262.651 20.2471 262.865C19.9691 263.075 19.8301 263.353 19.8301 263.699C19.8301 264.023 19.9919 264.294 20.3154 264.513C20.6436 264.731 21.1243 264.937 21.7578 265.128C22.9245 265.479 23.7744 265.914 24.3076 266.434C24.8408 266.953 25.1074 267.6 25.1074 268.375C25.1074 269.236 24.7816 269.913 24.1299 270.405C23.4782 270.893 22.6009 271.137 21.498 271.137C20.7324 271.137 20.0352 270.998 19.4062 270.72C18.7773 270.437 18.2965 270.052 17.9639 269.564C17.6357 269.077 17.4717 268.512 17.4717 267.869H19.5293C19.5293 268.967 20.1855 269.517 21.498 269.517C21.9857 269.517 22.3662 269.419 22.6396 269.223C22.9131 269.022 23.0498 268.744 23.0498 268.389ZM34.0352 261.047V267.603C34.0352 268.692 33.6934 269.553 33.0098 270.187C32.3307 270.82 31.401 271.137 30.2207 271.137C29.0586 271.137 28.1357 270.829 27.4521 270.214C26.7686 269.599 26.4199 268.753 26.4062 267.678V261.047H28.457V267.616C28.457 268.268 28.612 268.744 28.9219 269.045C29.2363 269.341 29.6693 269.489 30.2207 269.489C31.3737 269.489 31.9593 268.883 31.9775 267.671V261.047H34.0352ZM40.8779 268.389C40.8779 268.001 40.7412 267.705 40.4678 267.5C40.1943 267.29 39.7021 267.072 38.9912 266.844C38.2803 266.611 37.7174 266.383 37.3027 266.16C36.1725 265.549 35.6074 264.727 35.6074 263.692C35.6074 263.155 35.7578 262.676 36.0586 262.257C36.3639 261.833 36.7992 261.503 37.3643 261.266C37.9339 261.029 38.5719 260.91 39.2783 260.91C39.9893 260.91 40.6227 261.04 41.1787 261.3C41.7347 261.555 42.1654 261.917 42.4707 262.387C42.7806 262.856 42.9355 263.389 42.9355 263.986H40.8848C40.8848 263.531 40.7412 263.177 40.4541 262.927C40.167 262.672 39.7637 262.544 39.2441 262.544C38.7428 262.544 38.3532 262.651 38.0752 262.865C37.7972 263.075 37.6582 263.353 37.6582 263.699C37.6582 264.023 37.82 264.294 38.1436 264.513C38.4717 264.731 38.9525 264.937 39.5859 265.128C40.7526 265.479 41.6025 265.914 42.1357 266.434C42.6689 266.953 42.9355 267.6 42.9355 268.375C42.9355 269.236 42.6097 269.913 41.958 270.405C41.3063 270.893 40.429 271.137 39.3262 271.137C38.5605 271.137 37.8633 270.998 37.2344 270.72C36.6055 270.437 36.1247 270.052 35.792 269.564C35.4639 269.077 35.2998 268.512 35.2998 267.869H37.3574C37.3574 268.967 38.0137 269.517 39.3262 269.517C39.8138 269.517 40.1943 269.419 40.4678 269.223C40.7412 269.022 40.8779 268.744 40.8779 268.389ZM52.1436 267.685C52.0661 268.756 51.6696 269.599 50.9541 270.214C50.2432 270.829 49.3044 271.137 48.1377 271.137C46.8617 271.137 45.8568 270.708 45.123 269.852C44.3939 268.99 44.0293 267.81 44.0293 266.311V265.702C44.0293 264.745 44.1979 263.902 44.5352 263.173C44.8724 262.444 45.3532 261.885 45.9775 261.498C46.6064 261.106 47.3356 260.91 48.165 260.91C49.3135 260.91 50.2386 261.218 50.9404 261.833C51.6423 262.448 52.0479 263.312 52.1572 264.424H50.1064C50.0563 263.781 49.8763 263.316 49.5664 263.029C49.2611 262.738 48.7939 262.592 48.165 262.592C47.4814 262.592 46.9688 262.838 46.627 263.33C46.2897 263.818 46.1165 264.576 46.1074 265.606V266.358C46.1074 267.434 46.2692 268.22 46.5928 268.717C46.9209 269.214 47.4359 269.462 48.1377 269.462C48.7712 269.462 49.2428 269.318 49.5527 269.031C49.8672 268.74 50.0472 268.291 50.0928 267.685H52.1436ZM57.1748 267.356H55.541V271H53.4902V261.047H57.1885C58.3643 261.047 59.2712 261.309 59.9092 261.833C60.5472 262.357 60.8662 263.098 60.8662 264.055C60.8662 264.734 60.7181 265.301 60.4219 265.757C60.1302 266.208 59.6859 266.568 59.0889 266.837L61.2422 270.904V271H59.041L57.1748 267.356ZM55.541 265.695H57.1953C57.7103 265.695 58.109 265.565 58.3916 265.306C58.6742 265.041 58.8154 264.679 58.8154 264.219C58.8154 263.749 58.681 263.38 58.4121 263.111C58.1478 262.842 57.7399 262.708 57.1885 262.708H55.541V265.695ZM64.6123 271H62.5615V261.047H64.6123V271ZM68.5703 267.493V271H66.5195V261.047H70.4023C71.1497 261.047 71.806 261.184 72.3711 261.457C72.9408 261.73 73.3783 262.12 73.6836 262.626C73.9889 263.127 74.1416 263.699 74.1416 264.342C74.1416 265.317 73.8066 266.087 73.1367 266.652C72.4714 267.213 71.5485 267.493 70.3682 267.493H68.5703ZM68.5703 265.832H70.4023C70.9447 265.832 71.3571 265.704 71.6396 265.449C71.9268 265.194 72.0703 264.829 72.0703 264.355C72.0703 263.868 71.9268 263.474 71.6396 263.173C71.3525 262.872 70.9561 262.717 70.4502 262.708H68.5703V265.832ZM83.3701 267.685C83.2926 268.756 82.8962 269.599 82.1807 270.214C81.4697 270.829 80.5309 271.137 79.3643 271.137C78.0882 271.137 77.0833 270.708 76.3496 269.852C75.6204 268.99 75.2559 267.81 75.2559 266.311V265.702C75.2559 264.745 75.4245 263.902 75.7617 263.173C76.099 262.444 76.5798 261.885 77.2041 261.498C77.833 261.106 78.5622 260.91 79.3916 260.91C80.54 260.91 81.4652 261.218 82.167 261.833C82.8688 262.448 83.2744 263.312 83.3838 264.424H81.333C81.2829 263.781 81.1029 263.316 80.793 263.029C80.4876 262.738 80.0205 262.592 79.3916 262.592C78.708 262.592 78.1953 262.838 77.8535 263.33C77.5163 263.818 77.3431 264.576 77.334 265.606V266.358C77.334 267.434 77.4958 268.22 77.8193 268.717C78.1475 269.214 78.6624 269.462 79.3643 269.462C79.9977 269.462 80.4694 269.318 80.7793 269.031C81.0938 268.74 81.2738 268.291 81.3193 267.685H83.3701ZM86.8975 271H84.8467V261.047H86.8975V271ZM96.9805 266.249C96.9805 267.229 96.8073 268.088 96.4609 268.826C96.1146 269.564 95.6178 270.134 94.9707 270.535C94.3281 270.936 93.5898 271.137 92.7559 271.137C91.931 271.137 91.195 270.938 90.5479 270.542C89.9007 270.146 89.3994 269.58 89.0439 268.847C88.6885 268.108 88.5085 267.261 88.5039 266.304V265.812C88.5039 264.832 88.6794 263.97 89.0303 263.228C89.3857 262.48 89.8848 261.908 90.5273 261.512C91.1745 261.111 91.9128 260.91 92.7422 260.91C93.5716 260.91 94.3076 261.111 94.9502 261.512C95.5973 261.908 96.0964 262.48 96.4473 263.228C96.8027 263.97 96.9805 264.829 96.9805 265.805V266.249ZM94.9023 265.798C94.9023 264.754 94.7155 263.961 94.3418 263.419C93.9681 262.877 93.4349 262.605 92.7422 262.605C92.054 262.605 91.5231 262.874 91.1494 263.412C90.7757 263.945 90.5866 264.729 90.582 265.764V266.249C90.582 267.265 90.7689 268.054 91.1426 268.614C91.5163 269.175 92.054 269.455 92.7559 269.455C93.444 269.455 93.9727 269.186 94.3418 268.648C94.7109 268.106 94.8978 267.318 94.9023 266.283V265.798ZM93.1387 258.381H95.292L93.3984 260.5H91.792L93.1387 258.381ZM106.564 271H104.514L100.521 264.451V271H98.4707V261.047H100.521L104.521 267.609V261.047H106.564V271ZM115.533 265.661H118.309V266.857H115.533V270.002H114.262V266.857H111.486V265.661H114.262V262.756H115.533V265.661ZM123.777 266.01L124.283 261.047H129.383V262.216H125.356L125.056 264.93C125.543 264.643 126.097 264.499 126.717 264.499C127.624 264.499 128.344 264.8 128.877 265.401C129.41 265.998 129.677 266.807 129.677 267.828C129.677 268.854 129.399 269.662 128.843 270.255C128.291 270.843 127.519 271.137 126.525 271.137C125.646 271.137 124.928 270.893 124.372 270.405C123.816 269.918 123.499 269.243 123.422 268.382H124.618C124.696 268.951 124.898 269.382 125.227 269.674C125.555 269.961 125.988 270.104 126.525 270.104C127.113 270.104 127.574 269.904 127.906 269.503C128.243 269.102 128.412 268.548 128.412 267.842C128.412 267.176 128.23 266.643 127.865 266.242C127.505 265.837 127.024 265.634 126.423 265.634C125.871 265.634 125.438 265.755 125.124 265.996L124.789 266.27L123.777 266.01ZM142.207 269.694C141.87 270.177 141.398 270.54 140.792 270.781C140.19 271.018 139.489 271.137 138.687 271.137C137.875 271.137 137.155 270.948 136.526 270.569C135.897 270.187 135.41 269.644 135.063 268.942C134.722 268.241 134.546 267.427 134.537 266.502V265.634C134.537 264.134 134.886 262.972 135.583 262.147C136.285 261.323 137.269 260.91 138.536 260.91C139.575 260.91 140.411 261.177 141.045 261.71C141.678 262.239 142.066 262.991 142.207 263.966H140.895C140.648 262.649 139.865 261.99 138.543 261.99C137.663 261.99 136.996 262.3 136.54 262.92C136.089 263.535 135.861 264.428 135.856 265.6V266.413C135.856 267.53 136.112 268.418 136.622 269.079C137.132 269.735 137.823 270.063 138.693 270.063C139.186 270.063 139.616 270.009 139.985 269.899C140.354 269.79 140.66 269.605 140.901 269.346V267.11H138.598V266.044H142.207V269.694ZM144.401 271V261.047H147.655C148.735 261.047 149.547 261.27 150.089 261.717C150.636 262.163 150.909 262.824 150.909 263.699C150.909 264.164 150.777 264.576 150.513 264.937C150.248 265.292 149.888 265.568 149.433 265.764C149.97 265.914 150.394 266.201 150.704 266.625C151.019 267.044 151.176 267.546 151.176 268.129C151.176 269.022 150.886 269.724 150.308 270.234C149.729 270.745 148.911 271 147.854 271H144.401ZM145.714 266.345V269.927H147.881C148.492 269.927 148.972 269.77 149.323 269.455C149.679 269.136 149.856 268.699 149.856 268.143C149.856 266.944 149.205 266.345 147.901 266.345H145.714ZM145.714 265.292H147.696C148.271 265.292 148.729 265.148 149.07 264.861C149.417 264.574 149.59 264.185 149.59 263.692C149.59 263.146 149.43 262.749 149.111 262.503C148.792 262.252 148.307 262.127 147.655 262.127H145.714V265.292Z" fill="#222222"/>
<path d="M19.4678 287.104V291H18.1553V281.047H21.8262C22.9154 281.047 23.7676 281.325 24.3828 281.881C25.0026 282.437 25.3125 283.173 25.3125 284.089C25.3125 285.055 25.0094 285.8 24.4033 286.324C23.8018 286.844 22.9382 287.104 21.8125 287.104H19.4678ZM19.4678 286.03H21.8262C22.528 286.03 23.0658 285.866 23.4395 285.538C23.8132 285.205 24 284.727 24 284.103C24 283.51 23.8132 283.036 23.4395 282.681C23.0658 282.325 22.5531 282.141 21.9014 282.127H19.4678V286.03ZM31.54 288.402H27.3701L26.4336 291H25.0801L28.8809 281.047H30.0293L33.8369 291H32.4902L31.54 288.402ZM27.7666 287.322H31.1504L29.4551 282.667L27.7666 287.322ZM38.8271 286.974H36.4893V291H35.1699V281.047H38.4648C39.5859 281.047 40.4473 281.302 41.0488 281.812C41.6549 282.323 41.958 283.066 41.958 284.041C41.958 284.661 41.7894 285.201 41.4521 285.661C41.1195 286.121 40.6546 286.465 40.0576 286.693L42.3955 290.918V291H40.9873L38.8271 286.974ZM36.4893 285.9H38.5059C39.1576 285.9 39.6748 285.732 40.0576 285.395C40.445 285.057 40.6387 284.606 40.6387 284.041C40.6387 283.426 40.4541 282.954 40.085 282.626C39.7204 282.298 39.1917 282.132 38.499 282.127H36.4893V285.9ZM49.2998 288.402H45.1299L44.1934 291H42.8398L46.6406 281.047H47.7891L51.5967 291H50.25L49.2998 288.402ZM45.5264 287.322H48.9102L47.2148 282.667L45.5264 287.322ZM67.2031 287.842C67.0801 288.895 66.6904 289.708 66.0342 290.282C65.3825 290.852 64.5143 291.137 63.4297 291.137C62.2539 291.137 61.3105 290.715 60.5996 289.872C59.8932 289.029 59.54 287.901 59.54 286.488V285.531C59.54 284.606 59.7041 283.793 60.0322 283.091C60.3649 282.389 60.8343 281.851 61.4404 281.478C62.0465 281.099 62.7484 280.91 63.5459 280.91C64.6032 280.91 65.4508 281.206 66.0889 281.799C66.7269 282.387 67.0983 283.202 67.2031 284.246H65.8838C65.7699 283.453 65.5215 282.879 65.1387 282.523C64.7604 282.168 64.2295 281.99 63.5459 281.99C62.7074 281.99 62.0488 282.3 61.5703 282.92C61.0964 283.54 60.8594 284.422 60.8594 285.565V286.529C60.8594 287.609 61.085 288.468 61.5361 289.106C61.9873 289.744 62.6185 290.063 63.4297 290.063C64.1589 290.063 64.7171 289.899 65.1045 289.571C65.4964 289.239 65.7562 288.662 65.8838 287.842H67.2031ZM70.3203 289.927H75.0371V291H69.001V281.047H70.3203V289.927ZM82.167 288.402H77.9971L77.0605 291H75.707L79.5078 281.047H80.6562L84.4639 291H83.1172L82.167 288.402ZM78.3936 287.322H81.7773L80.082 282.667L78.3936 287.322ZM89.4541 286.974H87.1162V291H85.7969V281.047H89.0918C90.2129 281.047 91.0742 281.302 91.6758 281.812C92.2819 282.323 92.585 283.066 92.585 284.041C92.585 284.661 92.4163 285.201 92.0791 285.661C91.7464 286.121 91.2816 286.465 90.6846 286.693L93.0225 290.918V291H91.6143L89.4541 286.974ZM87.1162 285.9H89.1328C89.7845 285.9 90.3018 285.732 90.6846 285.395C91.0719 285.057 91.2656 284.606 91.2656 284.041C91.2656 283.426 91.0811 282.954 90.7119 282.626C90.3473 282.298 89.8187 282.132 89.126 282.127H87.1162V285.9ZM102.087 286.345C102.087 287.32 101.923 288.172 101.595 288.901C101.267 289.626 100.802 290.18 100.2 290.562C99.5986 290.945 98.8968 291.137 98.0947 291.137C97.3109 291.137 96.6159 290.945 96.0098 290.562C95.4036 290.175 94.932 289.626 94.5947 288.915C94.262 288.2 94.0911 287.372 94.082 286.434V285.716C94.082 284.759 94.2484 283.913 94.5811 283.18C94.9137 282.446 95.3831 281.885 95.9893 281.498C96.5999 281.106 97.2972 280.91 98.0811 280.91C98.8786 280.91 99.5804 281.104 100.187 281.491C100.797 281.874 101.267 282.432 101.595 283.166C101.923 283.895 102.087 284.745 102.087 285.716V286.345ZM100.781 285.702C100.781 284.522 100.544 283.617 100.07 282.988C99.5964 282.355 98.9333 282.038 98.0811 282.038C97.2516 282.038 96.5977 282.355 96.1191 282.988C95.6452 283.617 95.4014 284.492 95.3877 285.613V286.345C95.3877 287.489 95.627 288.389 96.1055 289.045C96.5885 289.697 97.2516 290.022 98.0947 290.022C98.9424 290.022 99.5986 289.715 100.063 289.1C100.528 288.48 100.768 287.593 100.781 286.44V285.702ZM110.823 289.257L113.667 281.047H115.103L111.411 291H110.249L106.564 281.047H107.993L110.823 289.257ZM117.851 291H116.538V281.047H117.851V291ZM120.257 291V281.047H123.066C123.932 281.047 124.698 281.238 125.363 281.621C126.029 282.004 126.541 282.549 126.901 283.255C127.266 283.961 127.451 284.772 127.455 285.688V286.324C127.455 287.263 127.273 288.086 126.908 288.792C126.548 289.498 126.031 290.041 125.356 290.419C124.687 290.797 123.905 290.991 123.012 291H120.257ZM121.569 282.127V289.927H122.95C123.962 289.927 124.748 289.612 125.309 288.983C125.874 288.354 126.156 287.459 126.156 286.297V285.716C126.156 284.586 125.89 283.708 125.356 283.084C124.828 282.455 124.076 282.136 123.101 282.127H121.569ZM135.07 286.399H130.757V289.927H135.768V291H129.444V281.047H135.699V282.127H130.757V285.326H135.07V286.399ZM145.058 286.345C145.058 287.32 144.894 288.172 144.565 288.901C144.237 289.626 143.772 290.18 143.171 290.562C142.569 290.945 141.868 291.137 141.065 291.137C140.282 291.137 139.587 290.945 138.98 290.562C138.374 290.175 137.903 289.626 137.565 288.915C137.233 288.2 137.062 287.372 137.053 286.434V285.716C137.053 284.759 137.219 283.913 137.552 283.18C137.884 282.446 138.354 281.885 138.96 281.498C139.571 281.106 140.268 280.91 141.052 280.91C141.849 280.91 142.551 281.104 143.157 281.491C143.768 281.874 144.237 282.432 144.565 283.166C144.894 283.895 145.058 284.745 145.058 285.716V286.345ZM143.752 285.702C143.752 284.522 143.515 283.617 143.041 282.988C142.567 282.355 141.904 282.038 141.052 282.038C140.222 282.038 139.568 282.355 139.09 282.988C138.616 283.617 138.372 284.492 138.358 285.613V286.345C138.358 287.489 138.598 288.389 139.076 289.045C139.559 289.697 140.222 290.022 141.065 290.022C141.913 290.022 142.569 289.715 143.034 289.1C143.499 288.48 143.738 287.593 143.752 286.44V285.702Z" fill="#222222"/>
<g filter="url(#filter2_d)">
<path d="M175.523 248.864H180.695L179.914 253.379H174.758L173.68 259.489H168.883L169.945 253.379H164.758L165.539 248.864H170.727L171.758 242.926H176.555L175.523 248.864Z" fill="#EF3829"/>
</g>
<path d="M193.272 226.55H194.98C196.334 226.55 197.011 225.887 197.011 224.562C197.011 224.047 196.85 223.628 196.527 223.306C196.205 222.976 195.75 222.812 195.163 222.812C194.683 222.812 194.264 222.951 193.906 223.23C193.555 223.51 193.38 223.857 193.38 224.272H189.76C189.76 223.449 189.989 222.715 190.447 222.07C190.906 221.426 191.539 220.924 192.349 220.566C193.165 220.201 194.06 220.019 195.034 220.019C196.774 220.019 198.142 220.416 199.138 221.211C200.133 222.006 200.631 223.098 200.631 224.487C200.631 225.16 200.423 225.798 200.008 226.399C199.6 226.994 199.002 227.477 198.214 227.85C199.045 228.15 199.696 228.609 200.169 229.225C200.642 229.833 200.878 230.589 200.878 231.491C200.878 232.888 200.341 234.005 199.267 234.843C198.192 235.681 196.782 236.1 195.034 236.1C194.01 236.1 193.058 235.906 192.177 235.52C191.303 235.126 190.641 234.585 190.189 233.897C189.738 233.203 189.513 232.415 189.513 231.534H193.154C193.154 232.014 193.348 232.429 193.734 232.78C194.121 233.131 194.597 233.307 195.163 233.307C195.8 233.307 196.309 233.131 196.688 232.78C197.068 232.422 197.258 231.967 197.258 231.416C197.258 230.628 197.061 230.07 196.667 229.74C196.273 229.411 195.729 229.246 195.034 229.246H193.272V226.55ZM215.734 233.951C215.154 234.596 214.306 235.115 213.188 235.509C212.071 235.903 210.847 236.1 209.515 236.1C207.466 236.1 205.83 235.473 204.605 234.22C203.381 232.966 202.726 231.223 202.64 228.988L202.629 227.635C202.629 226.095 202.901 224.752 203.445 223.606C203.99 222.453 204.767 221.569 205.776 220.953C206.793 220.33 207.968 220.019 209.3 220.019C211.248 220.019 212.759 220.466 213.833 221.361C214.914 222.249 215.545 223.578 215.724 225.347H212.093C211.964 224.473 211.685 223.85 211.255 223.478C210.825 223.105 210.216 222.919 209.429 222.919C208.483 222.919 207.753 223.32 207.237 224.122C206.722 224.924 206.46 226.07 206.453 227.56V228.505C206.453 230.066 206.718 231.241 207.248 232.028C207.785 232.809 208.627 233.199 209.772 233.199C210.754 233.199 211.484 232.981 211.964 232.544V230.116H209.343V227.527H215.734V233.951ZM217.926 235.885V220.244H223.544C225.556 220.244 227.085 220.613 228.131 221.351C229.184 222.088 229.71 223.159 229.71 224.562C229.71 225.372 229.524 226.063 229.151 226.636C228.779 227.209 228.231 227.631 227.508 227.903C228.324 228.118 228.951 228.519 229.388 229.106C229.825 229.694 230.043 230.41 230.043 231.255C230.043 232.787 229.556 233.94 228.582 234.714C227.615 235.48 226.179 235.87 224.274 235.885H217.926ZM221.696 229.235V232.984H224.167C224.847 232.984 225.37 232.83 225.735 232.522C226.101 232.207 226.283 231.767 226.283 231.201C226.283 229.898 225.635 229.243 224.339 229.235H221.696ZM221.696 226.765H223.662C224.486 226.757 225.073 226.607 225.424 226.313C225.775 226.02 225.95 225.587 225.95 225.014C225.95 224.355 225.76 223.882 225.381 223.596C225.001 223.302 224.389 223.155 223.544 223.155H221.696V226.765ZM246.489 232.963H241.322L240.42 235.885H236.392L242.128 220.244H245.673L251.452 235.885H247.402L246.489 232.963ZM242.225 230.052H245.587L243.9 224.627L242.225 230.052ZM257.554 220.244L261.045 231.126L264.525 220.244H269.488V235.885H265.707V232.232L266.072 224.756L262.291 235.885H259.799L256.007 224.745L256.372 232.232V235.885H252.602V220.244H257.554ZM277.921 225.443L280.478 220.244H284.785L280.413 228L284.903 235.885H280.553L277.921 230.589L275.289 235.885H270.949L275.429 228L271.067 220.244H275.364L277.921 225.443ZM196.549 249.012H200.212V252.116H196.549V256.316H193.165V252.116H189.491V249.012H193.165V244.93H196.549V249.012ZM214.209 242.244V252.481C214.209 253.642 213.962 254.648 213.468 255.5C212.974 256.345 212.265 256.99 211.341 257.434C210.417 257.878 209.325 258.1 208.064 258.1C206.16 258.1 204.659 257.605 203.563 256.617C202.468 255.629 201.909 254.275 201.888 252.557V242.244H205.68V252.632C205.723 254.343 206.518 255.199 208.064 255.199C208.845 255.199 209.436 254.984 209.837 254.555C210.238 254.125 210.438 253.427 210.438 252.46V242.244H214.209ZM224.64 253.728C224.64 253.176 224.443 252.746 224.049 252.438C223.662 252.131 222.978 251.812 221.997 251.482C221.016 251.153 220.214 250.834 219.591 250.526C217.564 249.531 216.551 248.163 216.551 246.423C216.551 245.556 216.801 244.794 217.303 244.135C217.811 243.469 218.527 242.953 219.451 242.588C220.375 242.215 221.413 242.029 222.566 242.029C223.691 242.029 224.697 242.23 225.585 242.631C226.48 243.032 227.175 243.605 227.669 244.35C228.163 245.087 228.41 245.932 228.41 246.885H224.65C224.65 246.247 224.453 245.753 224.06 245.402C223.673 245.051 223.146 244.876 222.48 244.876C221.807 244.876 221.274 245.026 220.88 245.327C220.493 245.621 220.3 245.997 220.3 246.455C220.3 246.856 220.515 247.221 220.944 247.551C221.374 247.873 222.13 248.21 223.211 248.561C224.292 248.904 225.18 249.277 225.875 249.678C227.565 250.652 228.41 251.994 228.41 253.706C228.41 255.074 227.895 256.148 226.863 256.929C225.832 257.709 224.418 258.1 222.62 258.1C221.353 258.1 220.203 257.874 219.172 257.423C218.148 256.965 217.374 256.341 216.852 255.554C216.336 254.759 216.078 253.846 216.078 252.814H219.859C219.859 253.652 220.074 254.272 220.504 254.673C220.941 255.067 221.646 255.264 222.62 255.264C223.243 255.264 223.734 255.131 224.092 254.866C224.457 254.594 224.64 254.215 224.64 253.728ZM239.228 254.963H234.061L233.158 257.885H229.13L234.866 242.244H238.411L244.19 257.885H240.141L239.228 254.963ZM234.963 252.052H238.325L236.639 246.627L234.963 252.052Z" fill="#222222"/>
<path d="M192.31 269.747L192.501 271.06L192.781 269.877L194.75 262.932H195.857L197.778 269.877L198.052 271.08L198.264 269.74L199.809 262.932H201.128L198.715 272.885H197.519L195.468 265.632L195.311 264.873L195.153 265.632L193.027 272.885H191.831L189.425 262.932H190.737L192.31 269.747ZM210.24 272.885H208.921V268.284H203.903V272.885H202.591V262.932H203.903V267.211H208.921V262.932H210.24V272.885ZM218.19 270.287H214.021L213.084 272.885H211.73L215.531 262.932H216.68L220.487 272.885H219.141L218.19 270.287ZM214.417 269.207H217.801L216.105 264.552L214.417 269.207ZM227.815 264.012H224.616V272.885H223.311V264.012H220.118V262.932H227.815V264.012ZM232.115 268.448C230.99 268.125 230.169 267.728 229.654 267.259C229.144 266.785 228.889 266.201 228.889 265.509C228.889 264.725 229.201 264.078 229.825 263.567C230.454 263.052 231.27 262.795 232.272 262.795C232.956 262.795 233.564 262.927 234.098 263.191C234.635 263.456 235.05 263.82 235.342 264.285C235.638 264.75 235.786 265.258 235.786 265.81H234.467C234.467 265.208 234.275 264.736 233.893 264.395C233.51 264.048 232.97 263.875 232.272 263.875C231.625 263.875 231.119 264.019 230.755 264.306C230.395 264.588 230.215 264.982 230.215 265.488C230.215 265.894 230.386 266.238 230.728 266.521C231.074 266.799 231.66 267.054 232.484 267.286C233.314 267.519 233.961 267.776 234.426 268.059C234.895 268.337 235.242 268.662 235.465 269.036C235.693 269.41 235.807 269.85 235.807 270.355C235.807 271.162 235.492 271.809 234.863 272.297C234.234 272.78 233.394 273.021 232.341 273.021C231.657 273.021 231.019 272.892 230.427 272.632C229.834 272.368 229.376 272.007 229.053 271.552C228.734 271.096 228.574 270.579 228.574 270H229.894C229.894 270.602 230.115 271.078 230.557 271.429C231.003 271.775 231.598 271.948 232.341 271.948C233.034 271.948 233.564 271.807 233.934 271.524C234.303 271.242 234.487 270.857 234.487 270.369C234.487 269.882 234.316 269.506 233.975 269.241C233.633 268.972 233.013 268.708 232.115 268.448ZM242.991 270.287H238.821L237.885 272.885H236.531L240.332 262.932H241.48L245.288 272.885H243.941L242.991 270.287ZM239.218 269.207H242.602L240.906 264.552L239.218 269.207ZM247.94 268.988V272.885H246.628V262.932H250.299C251.388 262.932 252.24 263.21 252.855 263.766C253.475 264.322 253.785 265.058 253.785 265.974C253.785 266.94 253.482 267.685 252.876 268.209C252.274 268.729 251.411 268.988 250.285 268.988H247.94ZM247.94 267.915H250.299C251.001 267.915 251.538 267.751 251.912 267.423C252.286 267.09 252.473 266.612 252.473 265.987C252.473 265.395 252.286 264.921 251.912 264.565C251.538 264.21 251.026 264.025 250.374 264.012H247.94V267.915ZM256.772 268.988V272.885H255.46V262.932H259.131C260.22 262.932 261.072 263.21 261.688 263.766C262.307 264.322 262.617 265.058 262.617 265.974C262.617 266.94 262.314 267.685 261.708 268.209C261.106 268.729 260.243 268.988 259.117 268.988H256.772ZM256.772 267.915H259.131C259.833 267.915 260.37 267.751 260.744 267.423C261.118 267.09 261.305 266.612 261.305 265.987C261.305 265.395 261.118 264.921 260.744 264.565C260.37 264.21 259.858 264.025 259.206 264.012H256.772V267.915ZM193.813 282.858H191.476V286.885H190.156V276.932H193.451C194.572 276.932 195.434 277.187 196.035 277.697C196.641 278.208 196.944 278.951 196.944 279.926C196.944 280.546 196.776 281.086 196.438 281.546C196.106 282.006 195.641 282.35 195.044 282.578L197.382 286.803V286.885H195.974L193.813 282.858ZM191.476 281.785H193.492C194.144 281.785 194.661 281.617 195.044 281.279C195.431 280.942 195.625 280.491 195.625 279.926C195.625 279.311 195.44 278.839 195.071 278.511C194.707 278.183 194.178 278.016 193.485 278.012H191.476V281.785ZM206.446 282.229C206.446 283.205 206.282 284.057 205.954 284.786C205.626 285.511 205.161 286.064 204.56 286.447C203.958 286.83 203.256 287.021 202.454 287.021C201.67 287.021 200.975 286.83 200.369 286.447C199.763 286.06 199.291 285.511 198.954 284.8C198.621 284.084 198.451 283.257 198.441 282.318V281.601C198.441 280.644 198.608 279.798 198.94 279.064C199.273 278.331 199.743 277.77 200.349 277.383C200.959 276.991 201.657 276.795 202.44 276.795C203.238 276.795 203.94 276.989 204.546 277.376C205.157 277.759 205.626 278.317 205.954 279.051C206.282 279.78 206.446 280.63 206.446 281.601V282.229ZM205.141 281.587C205.141 280.407 204.904 279.502 204.43 278.873C203.956 278.24 203.293 277.923 202.44 277.923C201.611 277.923 200.957 278.24 200.479 278.873C200.005 279.502 199.761 280.377 199.747 281.498V282.229C199.747 283.373 199.986 284.273 200.465 284.93C200.948 285.581 201.611 285.907 202.454 285.907C203.302 285.907 203.958 285.6 204.423 284.984C204.888 284.365 205.127 283.478 205.141 282.325V281.587ZM213.761 284.287H209.591L208.654 286.885H207.301L211.102 276.932H212.25L216.058 286.885H214.711L213.761 284.287ZM209.987 283.207H213.371L211.676 278.552L209.987 283.207ZM219.093 276.932L222.347 285.053L225.601 276.932H227.303V286.885H225.99V283.009L226.113 278.825L222.846 286.885H221.841L218.58 278.846L218.71 283.009V286.885H217.397V276.932H219.093ZM231.028 286.885H229.716V276.932H231.028V286.885ZM241.084 286.885H239.765L234.754 279.215V286.885H233.435V276.932H234.754L239.778 284.636V276.932H241.084V286.885ZM250.764 285.579C250.426 286.062 249.955 286.424 249.349 286.666C248.747 286.903 248.045 287.021 247.243 287.021C246.432 287.021 245.712 286.832 245.083 286.454C244.454 286.071 243.966 285.529 243.62 284.827C243.278 284.125 243.103 283.312 243.094 282.387V281.519C243.094 280.019 243.442 278.857 244.14 278.032C244.841 277.207 245.826 276.795 247.093 276.795C248.132 276.795 248.968 277.062 249.602 277.595C250.235 278.123 250.622 278.875 250.764 279.851H249.451C249.205 278.534 248.421 277.875 247.1 277.875C246.22 277.875 245.552 278.185 245.097 278.805C244.646 279.42 244.418 280.313 244.413 281.484V282.298C244.413 283.414 244.668 284.303 245.179 284.964C245.689 285.62 246.38 285.948 247.25 285.948C247.742 285.948 248.173 285.894 248.542 285.784C248.911 285.675 249.216 285.49 249.458 285.23V282.995H247.154V281.929H250.764V285.579Z" fill="#222222"/>
<defs>
<filter id="filter0_d" x="139.75" y="124.542" width="17.9375" height="18.5625" filterUnits="userSpaceOnUse" color-interpolation-filters="sRGB">
<feFlood flood-opacity="0" result="BackgroundImageFix"/>
<feColorMatrix in="SourceAlpha" type="matrix" values="0 0 0 0 0 0 0 0 0 0 0 0 0 0 0 0 0 0 127 0"/>
<feOffset dx="2" dy="2"/>
<feColorMatrix type="matrix" values="0 0 0 0 0 0 0 0 0 0 0 0 0 0 0 0 0 0 0.15 0"/>
<feBlend mode="normal" in2="BackgroundImageFix" result="effect1_dropShadow"/>
<feBlend mode="normal" in="SourceGraphic" in2="effect1_dropShadow" result="shape"/>
</filter>
<filter id="filter1_d" x="81.3835" y="222.637" width="13.9531" height="14.4219" filterUnits="userSpaceOnUse" color-interpolation-filters="sRGB">
<feFlood flood-opacity="0" result="BackgroundImageFix"/>
<feColorMatrix in="SourceAlpha" type="matrix" values="0 0 0 0 0 0 0 0 0 0 0 0 0 0 0 0 0 0 127 0"/>
<feOffset dx="2" dy="2"/>
<feColorMatrix type="matrix" values="0 0 0 0 0 0 0 0 0 0 0 0 0 0 0 0 0 0 0.15 0"/>
<feBlend mode="normal" in2="BackgroundImageFix" result="effect1_dropShadow"/>
<feBlend mode="normal" in="SourceGraphic" in2="effect1_dropShadow" result="shape"/>
</filter>
<filter id="filter2_d" x="164.758" y="242.926" width="17.9375" height="18.5625" filterUnits="userSpaceOnUse" color-interpolation-filters="sRGB">
<feFlood flood-opacity="0" result="BackgroundImageFix"/>
<feColorMatrix in="SourceAlpha" type="matrix" values="0 0 0 0 0 0 0 0 0 0 0 0 0 0 0 0 0 0 127 0"/>
<feOffset dx="2" dy="2"/>
<feColorMatrix type="matrix" values="0 0 0 0 0 0 0 0 0 0 0 0 0 0 0 0 0 0 0.15 0"/>
<feBlend mode="normal" in2="BackgroundImageFix" result="effect1_dropShadow"/>
<feBlend mode="normal" in="SourceGraphic" in2="effect1_dropShadow" result="shape"/>
</filter>
<clipPath id="clip0">
<rect width="55.5789" height="32" fill="white" transform="translate(12.9922 214.885)"/>
</clipPath>
</defs>
</svg>
