<svg width="277" height="106" viewBox="0 0 277 106" fill="none" xmlns="http://www.w3.org/2000/svg">
<g clip-path="url(#clip0)">
<path d="M177.66 88.4688C176.859 89.4062 175.692 90.1338 174.159 90.6514C172.626 91.1592 170.927 91.3984 169.062 91.3691C167.274 91.3496 165.766 90.9004 164.535 90.0215C163.305 89.1426 162.426 87.917 161.898 86.3447C161.371 84.7725 161.229 83 161.474 81.0273L161.591 80.1484C162.04 76.8379 163.202 74.2158 165.077 72.2822C166.962 70.3486 169.267 69.4062 171.991 69.4551C174.374 69.4941 176.205 70.1338 177.484 71.374C178.764 72.6143 179.477 74.4062 179.623 76.75L174.818 76.7354C174.75 75.5928 174.467 74.7578 173.969 74.2305C173.48 73.7031 172.782 73.4248 171.874 73.3955C170.526 73.3467 169.413 73.8789 168.534 74.9922C167.655 76.0957 167.055 77.6777 166.732 79.7383C166.459 81.4961 166.361 82.8633 166.439 83.8398C166.586 86.1934 167.646 87.3848 169.618 87.4141C170.81 87.4336 171.854 87.1455 172.753 86.5498L173.412 83.2246H169.94L170.556 79.6943H179.037L177.66 88.4688ZM185.307 91.0908H180.297L184.003 69.7627H188.998L185.307 91.0908ZM206.576 88.4688C205.775 89.4062 204.608 90.1338 203.075 90.6514C201.542 91.1592 199.843 91.3984 197.978 91.3691C196.19 91.3496 194.682 90.9004 193.451 90.0215C192.221 89.1426 191.342 87.917 190.814 86.3447C190.287 84.7725 190.146 83 190.39 81.0273L190.507 80.1484C190.956 76.8379 192.118 74.2158 193.993 72.2822C195.878 70.3486 198.183 69.4062 200.907 69.4551C203.29 69.4941 205.121 70.1338 206.4 71.374C207.68 72.6143 208.393 74.4062 208.539 76.75L203.734 76.7354C203.666 75.5928 203.383 74.7578 202.885 74.2305C202.396 73.7031 201.698 73.4248 200.79 73.3955C199.442 73.3467 198.329 73.8789 197.45 74.9922C196.571 76.0957 195.971 77.6777 195.648 79.7383C195.375 81.4961 195.277 82.8633 195.355 83.8398C195.502 86.1934 196.562 87.3848 198.534 87.4141C199.726 87.4336 200.771 87.1455 201.669 86.5498L202.328 83.2246H198.856L199.472 79.6943H207.953L206.576 88.4688ZM221.4 87.1064H214.589L212.699 91.0908H207.177L218.471 69.7627H223.188L227.128 91.0908H221.913L221.4 87.1064ZM216.464 83.1367H220.888L219.95 75.7832L216.464 83.1367ZM240.575 85.3193C240.79 84.2158 240.194 83.3613 238.788 82.7559L236.386 81.7598C233.017 80.2461 231.415 78.1855 231.581 75.5781C231.649 74.3867 232.06 73.3271 232.812 72.3994C233.563 71.4619 234.604 70.7344 235.932 70.2168C237.26 69.6992 238.71 69.4502 240.282 69.4697C242.392 69.5088 244.086 70.124 245.365 71.3154C246.654 72.5068 247.289 74.1035 247.27 76.1055H242.289C242.318 75.2852 242.143 74.6309 241.762 74.1426C241.391 73.6445 240.775 73.3857 239.916 73.3662C239.076 73.3467 238.334 73.542 237.689 73.9521C237.045 74.3623 236.664 74.9141 236.547 75.6074C236.361 76.584 237.084 77.3848 238.715 78.0098C240.355 78.6348 241.547 79.1719 242.289 79.6211C244.623 81.0176 245.717 82.9023 245.57 85.2754C245.492 86.5059 245.097 87.585 244.384 88.5127C243.671 89.4404 242.68 90.1582 241.41 90.666C240.15 91.1738 238.734 91.418 237.162 91.3984C236.01 91.3789 234.94 91.1982 233.954 90.8564C232.968 90.5146 232.123 90.0166 231.42 89.3623C229.994 88.0439 229.311 86.3105 229.369 84.1621L234.394 84.1768C234.335 85.2705 234.545 86.1006 235.023 86.667C235.502 87.2236 236.308 87.502 237.44 87.502C238.28 87.502 238.979 87.3115 239.535 86.9307C240.102 86.54 240.448 86.0029 240.575 85.3193Z" fill="#BBBBBB"/>
<path d="M61.1133 92H46.6113L54.7852 44.9785L39.8877 49.1973L41.9092 37.4639L70.21 28.0156L71.8359 27.9717L61.1133 92ZM82.6465 85.3203C82.5879 83.0938 83.3496 81.248 84.9316 79.7832C86.5137 78.3184 88.4033 77.5859 90.6006 77.5859C92.7686 77.5859 94.6143 78.2598 96.1377 79.6074C97.6611 80.9258 98.4521 82.6543 98.5107 84.793C98.5693 86.9902 97.8223 88.8359 96.2695 90.3301C94.7168 91.7949 92.8125 92.5273 90.5566 92.5273C88.3301 92.5273 86.4697 91.8535 84.9756 90.5059C83.4814 89.1582 82.7051 87.4297 82.6465 85.3203ZM113.101 60.5352L121.978 28.0156H158.452L156.606 39.5293H132.129L128.218 52.3174C130.591 50.7939 133.535 50.0029 137.051 49.9443C142.676 49.9443 146.997 51.8926 150.015 55.7891C153.062 59.6855 154.321 64.7832 153.794 71.082C153.267 77.5859 150.732 82.8887 146.191 86.9902C141.65 91.0625 136.157 93.04 129.712 92.9229C125.933 92.835 122.49 91.9561 119.385 90.2861C116.309 88.6162 113.921 86.3457 112.222 83.4746C110.522 80.5742 109.688 77.3369 109.717 73.7627H124.131C124.189 76.0479 124.761 77.8789 125.845 79.2559C126.929 80.6328 128.452 81.3506 130.415 81.4092C132.817 81.4971 134.81 80.6035 136.392 78.7285C137.974 76.8242 138.984 73.9385 139.424 70.0713C139.717 66.8193 139.277 64.3584 138.105 62.6885C136.934 60.9893 135.103 60.1396 132.612 60.1396C129.419 60.1396 126.826 61.2236 124.834 63.3916L113.101 60.5352Z" fill="#EF3829"/>
<path d="M61.1133 92V94.9414H63.6031L64.0143 92.4858L61.1133 92ZM46.6113 92L43.7133 91.4962L43.1145 94.9414H46.6113V92ZM54.7852 44.9785L57.6831 45.4823L58.4842 40.8739L53.9837 42.1484L54.7852 44.9785ZM39.8877 49.1973L36.989 48.6979L36.1961 53.2998L40.6892 52.0274L39.8877 49.1973ZM41.9092 37.4639L40.9777 34.6738L39.3091 35.2309L39.0104 36.9645L41.9092 37.4639ZM70.21 28.0156L70.1305 25.0753L69.6933 25.0871L69.2785 25.2256L70.21 28.0156ZM71.8359 27.9717L74.737 28.4575L75.3269 24.9348L71.7565 25.0313L71.8359 27.9717ZM61.1133 89.0586H46.6113V94.9414H61.1133V89.0586ZM49.5093 92.5038L57.6831 45.4823L51.8872 44.4748L43.7133 91.4962L49.5093 92.5038ZM53.9837 42.1484L39.0862 46.3671L40.6892 52.0274L55.5866 47.8087L53.9837 42.1484ZM42.7864 49.6967L44.8079 37.9633L39.0104 36.9645L36.989 48.6979L42.7864 49.6967ZM42.8406 40.2539L71.1414 30.8057L69.2785 25.2256L40.9777 34.6738L42.8406 40.2539ZM70.2894 30.956L71.9154 30.9121L71.7565 25.0313L70.1305 25.0753L70.2894 30.956ZM68.9349 27.4858L58.2122 91.5142L64.0143 92.4858L74.737 28.4575L68.9349 27.4858ZM82.6465 85.3203L79.7061 85.3977L79.7062 85.402L82.6465 85.3203ZM96.1377 79.6074L94.1888 81.8106L94.2008 81.8212L94.2129 81.8317L96.1377 79.6074ZM98.5107 84.793L101.451 84.7146L101.451 84.7124L98.5107 84.793ZM96.2695 90.3301L98.288 92.4697L98.2986 92.4597L98.3091 92.4496L96.2695 90.3301ZM85.5869 85.2429C85.5497 83.8305 85.9921 82.81 86.9301 81.9415L82.9332 77.6249C80.7071 79.6861 79.626 82.357 79.7061 85.3977L85.5869 85.2429ZM86.9301 81.9415C87.957 80.9907 89.1286 80.5274 90.6006 80.5274V74.6445C87.678 74.6445 85.0704 75.646 82.9332 77.6249L86.9301 81.9415ZM90.6006 80.5274C92.102 80.5274 93.2404 80.9716 94.1888 81.8106L98.0866 77.4043C95.9881 75.5479 93.4351 74.6445 90.6006 74.6445V80.5274ZM94.2129 81.8317C95.0697 82.5731 95.5328 83.5027 95.5704 84.8735L101.451 84.7124C101.371 81.8059 100.253 79.2785 98.0625 77.3832L94.2129 81.8317ZM95.5703 84.8714C95.6074 86.2608 95.1734 87.3028 94.23 88.2106L98.3091 92.4496C100.471 90.3691 101.531 87.7197 101.451 84.7146L95.5703 84.8714ZM94.2511 88.1905C93.2774 89.109 92.1089 89.5859 90.5566 89.5859V95.4688C93.5161 95.4688 96.1562 94.4808 98.288 92.4697L94.2511 88.1905ZM90.5566 89.5859C88.9741 89.5859 87.8403 89.1285 86.9457 88.3216L83.0055 92.6901C85.0992 94.5785 87.6861 95.4688 90.5566 95.4688V89.5859ZM86.9457 88.3216C86.0807 87.5415 85.6243 86.5879 85.5868 85.2386L79.7062 85.402C79.7859 88.2714 80.8822 90.775 83.0055 92.6901L86.9457 88.3216ZM113.101 60.5352L110.263 59.7606L109.467 62.6778L112.405 63.3931L113.101 60.5352ZM121.978 28.0156V25.0742H119.731L119.14 27.241L121.978 28.0156ZM158.452 28.0156L161.357 28.4812L161.903 25.0742H158.452V28.0156ZM156.606 39.5293V42.4707H159.114L159.511 39.9949L156.606 39.5293ZM132.129 39.5293V36.5879H129.953L129.316 38.669L132.129 39.5293ZM128.218 52.3174L125.405 51.4571L123.06 59.1239L129.807 54.7927L128.218 52.3174ZM137.051 49.9443V47.0029H137.026L137.002 47.0033L137.051 49.9443ZM150.015 55.7891L147.689 57.5901L147.698 57.601L150.015 55.7891ZM153.794 71.082L150.863 70.8366L150.862 70.8443L153.794 71.082ZM146.191 86.9902L148.155 89.1801L148.163 89.1731L146.191 86.9902ZM129.712 92.9229L129.644 95.8635L129.651 95.8637L129.658 95.8638L129.712 92.9229ZM119.385 90.2861L117.981 92.8713L117.992 92.8768L119.385 90.2861ZM112.222 83.4746L109.684 84.9615L109.69 84.9727L112.222 83.4746ZM109.717 73.7627V70.8212H106.799L106.775 73.7386L109.717 73.7627ZM124.131 73.7627L127.071 73.6873L126.998 70.8212H124.131V73.7627ZM130.415 81.4092L130.523 78.4697L130.513 78.4693L130.503 78.469L130.415 81.4092ZM136.392 78.7285L138.64 80.6254L138.647 80.6168L138.654 80.6082L136.392 78.7285ZM139.424 70.0713L142.346 70.4034L142.35 70.3694L142.353 70.3352L139.424 70.0713ZM138.105 62.6885L135.684 64.3584L135.691 64.3683L135.698 64.3781L138.105 62.6885ZM124.834 63.3916L124.138 66.2496L125.825 66.6602L127 65.3819L124.834 63.3916ZM115.938 61.3098L124.815 28.7902L119.14 27.241L110.263 59.7606L115.938 61.3098ZM121.978 30.9571H158.452V25.0742H121.978V30.9571ZM155.548 27.55L153.702 39.0637L159.511 39.9949L161.357 28.4812L155.548 27.55ZM156.606 36.5879H132.129V42.4707H156.606V36.5879ZM129.316 38.669L125.405 51.4571L131.031 53.1777L134.942 40.3896L129.316 38.669ZM129.807 54.7927C131.619 53.6296 133.997 52.9371 137.1 52.8854L137.002 47.0033C133.074 47.0688 129.563 47.9583 126.629 49.8421L129.807 54.7927ZM137.051 52.8858C141.912 52.8858 145.312 54.521 147.689 57.5901L152.34 53.988C148.682 49.2641 143.44 47.0029 137.051 47.0029V52.8858ZM147.698 57.601C150.171 60.7647 151.346 65.0637 150.863 70.8366L156.725 71.3274C157.297 64.5027 155.952 58.6064 152.332 53.9772L147.698 57.601ZM150.862 70.8443C150.391 76.6556 148.165 81.2436 144.22 84.8074L148.163 89.1731C153.299 84.5337 156.142 78.5162 156.726 71.3197L150.862 70.8443ZM144.228 84.8004C140.274 88.3462 135.514 90.0864 129.765 89.9819L129.658 95.8638C136.801 95.9937 143.027 93.7788 148.155 89.1801L144.228 84.8004ZM129.78 89.9822C126.43 89.9043 123.446 89.1304 120.778 87.6955L117.992 92.8768C121.534 94.7817 125.435 95.7656 129.644 95.8635L129.78 89.9822ZM120.788 87.701C118.155 86.2718 116.168 84.367 114.753 81.9765L109.69 84.9727C111.674 88.3244 114.462 90.9606 117.981 92.8712L120.788 87.701ZM114.76 81.9877C113.346 79.5746 112.633 76.8651 112.658 73.7868L106.775 73.7386C106.742 77.8087 107.699 81.5738 109.684 84.9615L114.76 81.9877ZM109.717 76.7041H124.131V70.8212H109.717V76.7041ZM121.19 73.8381C121.26 76.5642 121.953 79.0671 123.534 81.0753L128.156 77.4364C127.569 76.6907 127.119 75.5315 127.071 73.6873L121.19 73.8381ZM123.534 81.0753C125.225 83.2243 127.612 84.2683 130.327 84.3493L130.503 78.469C129.292 78.4329 128.632 78.0413 128.156 77.4364L123.534 81.0753ZM130.307 84.3487C133.635 84.4704 136.488 83.175 138.64 80.6254L134.143 76.8317C133.131 78.032 132 78.5237 130.523 78.4697L130.307 84.3487ZM138.654 80.6082C140.756 78.0779 141.876 74.5404 142.346 70.4034L136.501 69.7392C136.092 73.3365 135.191 75.5705 134.129 76.8489L138.654 80.6082ZM142.353 70.3352C142.674 66.7816 142.263 63.4925 140.513 60.9988L135.698 64.3781C136.292 65.2243 136.76 66.8571 136.494 69.8074L142.353 70.3352ZM140.527 61.0185C138.688 58.3526 135.842 57.1982 132.612 57.1982V63.0811C134.363 63.0811 135.179 63.6259 135.684 64.3584L140.527 61.0185ZM132.612 57.1982C128.674 57.1982 125.268 58.5721 122.668 61.4013L127 65.3819C128.384 63.8751 130.164 63.0811 132.612 63.0811V57.1982ZM125.53 60.5336L113.796 57.6772L112.405 63.3931L124.138 66.2496L125.53 60.5336Z" fill="#EF3829"/>
</g>
<defs>
<clipPath id="clip0">
<rect width="277" height="105.82" fill="white"/>
</clipPath>
</defs>
</svg>
