<svg width="277" height="108" viewBox="0 0 277 108" fill="none" xmlns="http://www.w3.org/2000/svg">
<g filter="url(#filter0_f)">
<ellipse cx="90" cy="94.1624" rx="68" ry="3.00519" fill="#C4C4C4" fill-opacity="0.5"/>
</g>
<g clip-path="url(#clip0)">
<path d="M37.8691 87.6976C36.6255 84.756 36.227 81.4455 36.4558 78.217C36.5348 77.3648 36.6138 76.5125 37.1427 75.8788C37.6716 75.2451 38.6068 74.9199 39.2831 75.3596C39.8694 75.7556 39.8804 76.6515 40.1122 77.3207C40.3004 78.08 40.8458 78.7901 41.6038 78.6016C41.961 78.5524 42.2255 78.2355 42.4 77.875C44.7691 74.1272 42.7015 65.9987 47.0778 65.452C48.7302 65.2525 47.5745 69.4781 49.1396 69.4588C49.8104 69.4506 50.3393 68.8168 50.6446 68.1858C52.2613 65.0746 53.5152 61.5646 56.2145 59.2017C56.7461 58.7919 57.4114 58.3357 58.0386 58.4176C59.0693 58.5841 59.5302 59.6985 59.8111 60.7254C60.4249 63.3612 60.4579 66.0489 59.7737 68.6111C61.1589 68.5044 62.5876 68.3076 63.8011 68.7855C65.1481 69.2169 66.2798 70.3231 66.2527 71.7571C66.2636 72.653 65.7811 73.4205 65.2522 74.0543C63.4473 76.4062 60.7835 78.0071 57.9723 78.5345C58.0296 79.5643 59.2431 80.0421 60.1865 80.3889C61.13 80.7357 62.169 81.5742 61.9128 82.563C61.7846 83.0574 61.3402 83.2869 60.9858 83.56C59.6988 84.3823 58.2292 84.8932 56.7104 85.0463C55.2816 85.2431 53.6701 85.1286 52.3832 85.9509C51.0963 86.7731 50.7202 88.9283 52.07 89.5837C47.5247 90.9389 42.5975 90.3275 38.4554 88.0936" fill="#3EB09E"/>
<path d="M39.7832 86.957C40.4811 85.5148 41.3154 84.25 42.286 83.1628C43.2566 82.0756 44.3172 81.0321 45.4241 80.1225C46.5311 79.2128 47.728 78.3468 49.0613 77.6584C50.3046 76.9262 51.7279 76.2815 53.2875 75.8143C52.6796 77.3002 51.7554 78.5213 50.7848 79.6085C49.8142 80.6957 48.7536 81.7392 47.6466 82.6488C46.5397 83.5585 45.3427 84.4245 44.0094 85.1129C42.6761 85.8014 41.3428 86.4898 39.7832 86.957Z" fill="#003247"/>
<path d="M35.0767 86.1189C35.9326 82.9722 35.7578 79.659 35.0486 76.5316C34.8603 75.7723 34.6258 74.8791 33.9931 74.3493C33.3605 73.8195 32.3298 73.6529 31.8444 74.1965C31.3591 74.7401 31.4138 75.5459 31.2884 76.2643C31.253 77.0264 30.7268 77.8841 30.0097 77.7585C29.6961 77.7176 29.3798 77.4526 29.0635 77.1877C26.1592 73.7737 27.0419 65.5193 22.6165 65.7081C21.0077 65.8176 22.7559 69.7834 21.1935 70.0267C20.4791 70.1251 19.9801 69.5488 19.4811 68.9725C17.433 66.0856 15.6931 62.7916 12.7181 60.9018C12.0882 60.5959 11.3683 60.2464 10.7439 60.3885C9.71865 60.6699 9.46518 61.8827 9.29895 62.9152C9.01835 65.5619 9.4985 68.2442 10.5131 70.7406C9.17154 70.7571 7.78638 70.8637 6.4967 71.4621C5.20702 72.0604 4.32915 73.4152 4.56923 74.7563C4.71382 75.6058 5.25923 76.3159 5.84826 76.9359C7.97528 78.9706 10.8085 80.235 13.8051 80.2429C13.8625 81.2726 12.7964 81.8682 11.9539 82.461C11.065 82.9199 10.138 83.917 10.5962 84.8074C10.8253 85.2526 11.2752 85.4711 11.6352 85.6459C13.0286 86.2111 14.5528 86.506 16.1179 86.4867C17.5931 86.4237 19.1991 86.0904 20.5489 86.7458C21.8987 87.4012 22.6405 89.5426 21.3972 90.2747C26.1008 90.8888 30.9597 89.5745 34.6814 86.7062" fill="#3EB09E"/>
<path d="M32.9689 85.6524C31.401 85.4477 29.964 84.9726 28.5706 84.4073C27.1772 83.842 25.9174 83.2303 24.6112 82.4848C23.305 81.7392 22.1761 80.8571 20.9572 79.9312C19.8719 78.959 18.7402 77.8528 17.8293 76.52C19.3972 76.7247 20.8342 77.1998 22.2276 77.7651C23.621 78.3304 24.8808 78.9421 26.187 79.6876C27.4931 80.4332 28.6221 81.3153 29.751 82.1975C31.0163 83.2572 32.058 84.3196 32.9689 85.6524Z" fill="#003247"/>
<path d="M33.8501 88.1948C32.9554 84.5321 35.1909 80.8308 38.9374 79.9782C42.5938 79.0819 46.2887 81.3214 47.1398 85.0743C48.0345 88.737 45.7989 92.4383 42.0525 93.2909C38.3961 94.1871 34.7012 91.9477 33.8501 88.1948Z" fill="#FCAB10"/>
<path d="M33.8497 88.1943C34.7444 91.8571 38.4393 94.0965 42.0521 93.2904C45.7085 92.3941 47.9441 88.6928 47.1394 85.0738C47.1394 85.0738 43.3665 94.7079 33.8497 88.1943Z" fill="#D6920E"/>
<path d="M37.0887 78.7466C37.2333 79.596 37.2879 80.4018 37.4325 81.2513C37.4816 81.6091 37.6207 82.0106 37.937 82.2755C38.0734 82.453 38.2533 82.5404 38.4769 82.5377C38.6569 82.625 38.8805 82.6223 39.1041 82.6195C39.4613 82.5703 39.8621 82.431 40.1265 82.1141C40.391 81.7973 40.5655 81.4367 40.47 80.9451C40.3254 80.0956 40.2708 79.2898 40.1262 78.4404C40.0771 78.0826 39.938 77.681 39.6217 77.4161C39.4853 77.2386 39.3053 77.1512 39.0817 77.154C38.9018 77.0666 38.6782 77.0693 38.4546 77.0721C38.0974 77.1213 37.6966 77.2606 37.4321 77.5775C37.1677 77.8944 36.9496 78.3451 37.0887 78.7466Z" fill="#013041"/>
<path d="M37.329 83.761C36.6555 83.5452 35.8566 84.0479 35.554 84.9029C35.2078 85.848 35.4424 86.7411 35.9823 87.0033C36.6558 87.219 37.4547 86.7163 37.7573 85.8614C38.1935 84.96 37.9589 84.0668 37.329 83.761Z" fill="#FED576"/>
<path d="M28.5248 95.2941C26.3624 94.0215 25.5686 91.2983 26.8391 89.1322C28.1095 86.9661 30.828 86.171 32.9904 87.4436C35.1528 88.7162 35.9465 91.4394 34.6761 93.6055C33.5392 95.7252 30.7308 96.4766 28.5248 95.2941Z" fill="#FCAB10"/>
<path d="M28.5253 95.2946C30.6877 96.5672 33.4062 95.7721 34.6766 93.606C35.9471 91.4399 35.1534 88.7167 32.991 87.4441C32.991 87.4441 35.9282 93.5458 28.5253 95.2946Z" fill="#D6920E"/>
<path d="M25.3674 89.4197C25.7737 89.7284 26.27 90.0807 26.6763 90.3893C26.7663 90.433 26.9462 90.5204 27.0362 90.5641C27.1262 90.6077 27.3062 90.6951 27.4398 90.6487C27.6634 90.6459 27.9742 90.4629 28.1514 90.3263C28.3723 90.0996 28.4131 89.7855 28.4104 89.5615C28.4076 89.3375 28.2249 89.0262 28.0886 88.8486C27.6823 88.54 27.186 88.1877 26.7797 87.8791C26.6897 87.8354 26.5097 87.748 26.4197 87.7043C26.3297 87.6606 26.1498 87.5732 26.0162 87.6197C25.7926 87.6224 25.4817 87.8055 25.3045 87.9421C25.0837 88.1688 25.0428 88.4829 25.0455 88.7069C25.0483 88.9309 25.0974 89.2887 25.3674 89.4197Z" fill="#013041"/>
<path d="M27.9879 91.5821C27.5871 91.7215 27.4617 92.4399 27.7372 93.0189C28.0127 93.5979 28.5526 93.8601 28.9534 93.7208C29.3978 93.4913 29.4796 92.863 29.2041 92.284C28.9286 91.705 28.3887 91.4428 27.9879 91.5821Z" fill="#FED576"/>
</g>
<path d="M206.71 87.4902C205.909 88.4277 204.742 89.1553 203.209 89.6729C201.676 90.1807 199.977 90.4199 198.111 90.3906C196.324 90.3711 194.815 89.9219 193.585 89.043C192.354 88.1641 191.476 86.9385 190.948 85.3662C190.421 83.7939 190.279 82.0215 190.523 80.0488L190.641 79.1699C191.09 75.8594 192.252 73.2373 194.127 71.3037C196.012 69.3701 198.316 68.4277 201.041 68.4766C203.424 68.5156 205.255 69.1553 206.534 70.3955C207.813 71.6357 208.526 73.4277 208.673 75.7715L203.868 75.7568C203.8 74.6143 203.517 73.7793 203.019 73.252C202.53 72.7246 201.832 72.4463 200.924 72.417C199.576 72.3682 198.463 72.9004 197.584 74.0137C196.705 75.1172 196.104 76.6992 195.782 78.7598C195.509 80.5176 195.411 81.8848 195.489 82.8613C195.636 85.2148 196.695 86.4062 198.668 86.4355C199.859 86.4551 200.904 86.167 201.803 85.5713L202.462 82.2461H198.99L199.605 78.7158H208.087L206.71 87.4902ZM214.356 90.1123H209.347L213.053 68.7842H218.048L214.356 90.1123ZM235.626 87.4902C234.825 88.4277 233.658 89.1553 232.125 89.6729C230.592 90.1807 228.893 90.4199 227.027 90.3906C225.24 90.3711 223.731 89.9219 222.501 89.043C221.271 88.1641 220.392 86.9385 219.864 85.3662C219.337 83.7939 219.195 82.0215 219.439 80.0488L219.557 79.1699C220.006 75.8594 221.168 73.2373 223.043 71.3037C224.928 69.3701 227.232 68.4277 229.957 68.4766C232.34 68.5156 234.171 69.1553 235.45 70.3955C236.729 71.6357 237.442 73.4277 237.589 75.7715L232.784 75.7568C232.716 74.6143 232.433 73.7793 231.935 73.252C231.446 72.7246 230.748 72.4463 229.84 72.417C228.492 72.3682 227.379 72.9004 226.5 74.0137C225.621 75.1172 225.021 76.6992 224.698 78.7598C224.425 80.5176 224.327 81.8848 224.405 82.8613C224.552 85.2148 225.611 86.4062 227.584 86.4355C228.775 86.4551 229.82 86.167 230.719 85.5713L231.378 82.2461H227.906L228.521 78.7158H237.003L235.626 87.4902ZM250.45 86.1279H243.639L241.749 90.1123H236.227L247.521 68.7842H252.237L256.178 90.1123H250.963L250.45 86.1279ZM245.514 82.1582H249.938L249 74.8047L245.514 82.1582ZM269.625 84.3408C269.84 83.2373 269.244 82.3828 267.838 81.7773L265.436 80.7812C262.066 79.2676 260.465 77.207 260.631 74.5996C260.699 73.4082 261.109 72.3486 261.861 71.4209C262.613 70.4834 263.653 69.7559 264.981 69.2383C266.31 68.7207 267.76 68.4717 269.332 68.4912C271.441 68.5303 273.136 69.1455 274.415 70.3369C275.704 71.5283 276.339 73.125 276.319 75.127H271.339C271.368 74.3066 271.192 73.6523 270.812 73.1641C270.44 72.666 269.825 72.4072 268.966 72.3877C268.126 72.3682 267.384 72.5635 266.739 72.9736C266.095 73.3838 265.714 73.9355 265.597 74.6289C265.411 75.6055 266.134 76.4062 267.765 77.0312C269.405 77.6562 270.597 78.1934 271.339 78.6426C273.673 80.0391 274.767 81.9238 274.62 84.2969C274.542 85.5273 274.146 86.6064 273.434 87.5342C272.721 88.4619 271.729 89.1797 270.46 89.6875C269.2 90.1953 267.784 90.4395 266.212 90.4199C265.06 90.4004 263.99 90.2197 263.004 89.8779C262.018 89.5361 261.173 89.0381 260.47 88.3838C259.044 87.0654 258.36 85.332 258.419 83.1836L263.443 83.1982C263.385 84.292 263.595 85.1221 264.073 85.6885C264.552 86.2451 265.357 86.5234 266.49 86.5234C267.33 86.5234 268.028 86.333 268.585 85.9521C269.151 85.5615 269.498 85.0244 269.625 84.3408Z" fill="#BBBBBB"/>
<path d="M69.1133 91.0259H54.6113L62.7852 44.0044L47.8877 48.2231L49.9092 36.4897L78.21 27.0415L79.8359 26.9976L69.1133 91.0259ZM110.554 91.9048C106.921 91.8169 103.742 90.9673 101.018 89.356C98.3223 87.7153 96.2422 85.3276 94.7773 82.1929C93.3125 79.0288 92.5215 75.4399 92.4043 71.4263C92.3164 69.2583 92.4043 67.0757 92.668 64.8784L94.3379 53.7163C95.6855 44.7222 98.5713 37.8521 102.995 33.106C107.419 28.3306 113.059 26.0161 119.914 26.1626C125.48 26.2798 129.831 28.1548 132.966 31.7876C136.13 35.4204 137.829 40.3716 138.063 46.6411C138.122 48.8091 138.02 50.9917 137.756 53.189L135.998 64.5708C134.592 73.6821 131.677 80.5522 127.253 85.1812C122.858 89.8101 117.292 92.0513 110.554 91.9048ZM123.605 51.2114C123.869 49.1606 124.016 47.3589 124.045 45.8062C124.045 40.4448 122.346 37.6763 118.947 37.5005C113.732 37.2368 110.495 41.7046 109.235 50.9038L106.906 66.7241C106.613 69.1558 106.467 70.9575 106.467 72.1294C106.32 77.5493 108.005 80.3618 111.521 80.5669C116.823 80.8306 120.09 76.2456 121.32 66.812L123.605 51.2114ZM161.53 91.9048C157.897 91.8169 154.719 90.9673 151.994 89.356C149.299 87.7153 147.219 85.3276 145.754 82.1929C144.289 79.0288 143.498 75.4399 143.381 71.4263C143.293 69.2583 143.381 67.0757 143.645 64.8784L145.314 53.7163C146.662 44.7222 149.548 37.8521 153.972 33.106C158.396 28.3306 164.035 26.0161 170.891 26.1626C176.457 26.2798 180.808 28.1548 183.942 31.7876C187.106 35.4204 188.806 40.3716 189.04 46.6411C189.099 48.8091 188.996 50.9917 188.732 53.189L186.975 64.5708C185.568 73.6821 182.653 80.5522 178.229 85.1812C173.835 89.8101 168.269 92.0513 161.53 91.9048ZM174.582 51.2114C174.846 49.1606 174.992 47.3589 175.021 45.8062C175.021 40.4448 173.322 37.6763 169.924 37.5005C164.709 37.2368 161.472 41.7046 160.212 50.9038L157.883 66.7241C157.59 69.1558 157.443 70.9575 157.443 72.1294C157.297 77.5493 158.981 80.3618 162.497 80.5669C167.8 80.8306 171.066 76.2456 172.297 66.812L174.582 51.2114Z" fill="#EF3829"/>
<path d="M69.1133 91.0259V94.0259H71.6527L72.0721 91.5214L69.1133 91.0259ZM54.6113 91.0259L51.6557 90.5121L51.0448 94.0259H54.6113V91.0259ZM62.7852 44.0044L65.7408 44.5182L66.5579 39.818L61.9677 41.1179L62.7852 44.0044ZM47.8877 48.2231L44.9313 47.7138L44.1226 52.4073L48.7051 51.1096L47.8877 48.2231ZM49.9092 36.4897L48.9592 33.6441L47.2574 34.2123L46.9527 35.9804L49.9092 36.4897ZM78.21 27.0415L78.1289 24.0426L77.683 24.0546L77.26 24.1959L78.21 27.0415ZM79.8359 26.9976L82.7947 27.4931L83.3964 23.9002L79.7549 23.9987L79.8359 26.9976ZM69.1133 88.0259H54.6113V94.0259H69.1133V88.0259ZM57.567 91.5397L65.7408 44.5182L59.8295 43.4906L51.6557 90.5121L57.567 91.5397ZM61.9677 41.1179L47.0703 45.3367L48.7051 51.1096L63.6026 46.8909L61.9677 41.1179ZM50.8441 48.7325L52.8656 36.9991L46.9527 35.9804L44.9313 47.7138L50.8441 48.7325ZM50.8592 39.3354L79.16 29.8871L77.26 24.1959L48.9592 33.6441L50.8592 39.3354ZM78.291 30.0404L79.917 29.9965L79.7549 23.9987L78.1289 24.0426L78.291 30.0404ZM76.8771 26.5021L66.1545 90.5304L72.0721 91.5214L82.7947 27.4931L76.8771 26.5021ZM110.554 91.9048L110.481 94.9039L110.489 94.9041L110.554 91.9048ZM101.018 89.356L99.4577 91.9186L99.474 91.9285L99.4905 91.9382L101.018 89.356ZM94.7773 82.1929L92.0549 83.4532L92.0594 83.4629L94.7773 82.1929ZM92.4043 71.4263L95.403 71.3387L95.4025 71.3217L95.4018 71.3047L92.4043 71.4263ZM92.668 64.8784L89.701 64.4345L89.6945 64.4777L89.6893 64.521L92.668 64.8784ZM94.3379 53.7163L91.371 53.2718L91.3709 53.2724L94.3379 53.7163ZM102.995 33.106L105.19 35.1515L105.196 35.1447L102.995 33.106ZM119.914 26.1626L119.85 29.1619L119.851 29.1619L119.914 26.1626ZM132.966 31.7876L130.695 33.7475L130.704 33.7579L132.966 31.7876ZM138.063 46.6411L141.062 46.5601L141.062 46.5445L141.061 46.529L138.063 46.6411ZM137.756 53.189L140.721 53.6469L140.728 53.5967L140.734 53.5464L137.756 53.189ZM135.998 64.5708L133.033 64.1129L133.033 64.1132L135.998 64.5708ZM127.253 85.1812L125.084 83.1084L125.077 83.1156L127.253 85.1812ZM123.605 51.2114L126.574 51.6462L126.578 51.6201L126.581 51.594L123.605 51.2114ZM124.045 45.8062L127.044 45.8627L127.045 45.8345V45.8062H124.045ZM118.947 37.5005L119.102 34.5045L119.099 34.5043L118.947 37.5005ZM109.235 50.9038L112.203 51.3408L112.206 51.3258L112.208 51.3108L109.235 50.9038ZM106.906 66.7241L103.938 66.2872L103.933 66.3261L103.928 66.3653L106.906 66.7241ZM106.467 72.1294L109.466 72.2104L109.467 72.1699V72.1294H106.467ZM111.521 80.5669L111.346 83.5618L111.359 83.5626L111.372 83.5632L111.521 80.5669ZM121.32 66.812L118.352 66.3772L118.349 66.4006L118.346 66.424L121.32 66.812ZM110.626 88.9057C107.429 88.8283 104.766 88.0876 102.545 86.7737L99.4905 91.9382C102.718 93.847 106.413 94.8055 110.481 94.9039L110.626 88.9057ZM102.577 86.7934C100.436 85.4896 98.735 83.576 97.4952 80.9228L92.0594 83.4629C93.7493 87.0793 96.209 89.941 99.4577 91.9186L102.577 86.7934ZM97.4997 80.9325C96.2293 78.1883 95.5101 75.0078 95.403 71.3387L89.4056 71.5138C89.5328 75.8721 90.3957 79.8693 92.0549 83.4532L97.4997 80.9325ZM95.4018 71.3047C95.3206 69.2998 95.4016 67.2774 95.6466 65.2359L89.6893 64.521C89.407 66.874 89.3123 69.2168 89.4068 71.5478L95.4018 71.3047ZM95.6349 65.3223L97.3049 54.1602L91.3709 53.2724L89.701 64.4345L95.6349 65.3223ZM97.3048 54.1609C98.5975 45.5336 101.315 39.3087 105.19 35.1515L100.801 31.0605C95.8279 36.3954 92.7736 43.9107 91.371 53.2718L97.3048 54.1609ZM105.196 35.1447C109.002 31.0357 113.8 29.0326 119.85 29.1619L119.978 23.1633C112.317 22.9996 105.835 25.6255 100.794 31.0672L105.196 35.1447ZM119.851 29.1619C124.717 29.2644 128.206 30.8639 130.695 33.7475L135.237 29.8277C131.456 25.4457 126.244 23.2952 119.977 23.1633L119.851 29.1619ZM130.704 33.7579C133.297 36.7351 134.849 40.9596 135.066 46.7532L141.061 46.529C140.809 39.7835 138.963 34.1057 135.228 29.8173L130.704 33.7579ZM135.065 46.7222C135.119 48.7407 135.024 50.7768 134.777 52.8315L140.734 53.5464C141.015 51.2066 141.125 48.8774 141.062 46.5601L135.065 46.7222ZM134.791 52.7311L133.033 64.1129L138.963 65.0287L140.721 53.6469L134.791 52.7311ZM133.033 64.1132C131.681 72.8731 128.934 79.0799 125.084 83.1084L129.422 87.2539C134.419 82.0246 137.502 74.4911 138.963 65.0284L133.033 64.1132ZM125.077 83.1156C121.301 87.0938 116.565 89.0348 110.619 88.9055L110.489 94.9041C118.019 95.0678 124.416 92.5263 129.429 87.2467L125.077 83.1156ZM126.581 51.594C126.854 49.4681 127.012 47.5533 127.044 45.8627L121.045 45.7496C121.019 47.1644 120.884 48.8532 120.63 50.8289L126.581 51.594ZM127.045 45.8062C127.045 42.8941 126.599 40.2108 125.327 38.1395C123.932 35.8666 121.732 34.6405 119.102 34.5045L118.792 40.4965C119.561 40.5362 119.909 40.7824 120.214 41.278C120.642 41.9752 121.045 43.3569 121.045 45.8062H127.045ZM119.099 34.5043C115.41 34.3178 112.353 35.8931 110.179 38.8933C108.136 41.7122 106.92 45.7014 106.263 50.4968L112.208 51.3108C112.811 46.907 113.843 44.0627 115.037 42.4138C116.101 40.9462 117.269 40.4195 118.796 40.4967L119.099 34.5043ZM106.267 50.4669L103.938 66.2872L109.874 67.1611L112.203 51.3408L106.267 50.4669ZM103.928 66.3653C103.632 68.8169 103.467 70.7677 103.467 72.1294H109.467C109.467 71.1473 109.594 69.4946 109.885 67.083L103.928 66.3653ZM103.468 72.0483C103.388 74.9939 103.777 77.7253 105.047 79.8452C106.442 82.175 108.684 83.4065 111.346 83.5618L111.695 77.572C110.841 77.5222 110.483 77.2449 110.194 76.7622C109.779 76.0696 109.399 74.6848 109.466 72.2104L103.468 72.0483ZM111.372 83.5632C115.116 83.7494 118.207 82.1319 120.391 79.0667C122.443 76.1866 123.655 72.1098 124.295 67.2L118.346 66.424C117.755 70.9478 116.719 73.8803 115.504 75.5852C114.421 77.1049 113.227 77.6481 111.669 77.5706L111.372 83.5632ZM124.289 67.2468L126.574 51.6462L120.637 50.7766L118.352 66.3772L124.289 67.2468ZM161.53 91.9048L161.458 94.9039L161.465 94.9041L161.53 91.9048ZM151.994 89.356L150.434 91.9186L150.451 91.9285L150.467 91.9382L151.994 89.356ZM145.754 82.1929L143.031 83.4532L143.036 83.4629L145.754 82.1929ZM143.381 71.4263L146.38 71.3387L146.379 71.3217L146.378 71.3047L143.381 71.4263ZM143.645 64.8784L140.678 64.4345L140.671 64.4777L140.666 64.521L143.645 64.8784ZM145.314 53.7163L142.348 53.2718L142.347 53.2724L145.314 53.7163ZM153.972 33.106L156.166 35.1515L156.172 35.1447L153.972 33.106ZM170.891 26.1626L170.827 29.1619L170.827 29.1619L170.891 26.1626ZM183.942 31.7876L181.671 33.7475L181.68 33.7579L183.942 31.7876ZM189.04 46.6411L192.039 46.5601L192.039 46.5445L192.038 46.529L189.04 46.6411ZM188.732 53.189L191.697 53.6469L191.705 53.5967L191.711 53.5464L188.732 53.189ZM186.975 64.5708L184.01 64.1129L184.01 64.1132L186.975 64.5708ZM178.229 85.1812L176.061 83.1084L176.054 83.1156L178.229 85.1812ZM174.582 51.2114L177.55 51.6462L177.554 51.6201L177.558 51.594L174.582 51.2114ZM175.021 45.8062L178.021 45.8627L178.021 45.8345V45.8062H175.021ZM169.924 37.5005L170.079 34.5045L170.075 34.5043L169.924 37.5005ZM160.212 50.9038L163.18 51.3408L163.182 51.3258L163.184 51.3108L160.212 50.9038ZM157.883 66.7241L154.915 66.2872L154.909 66.3261L154.904 66.3653L157.883 66.7241ZM157.443 72.1294L160.442 72.2104L160.443 72.1699V72.1294H157.443ZM162.497 80.5669L162.322 83.5618L162.335 83.5626L162.348 83.5632L162.497 80.5669ZM172.297 66.812L169.329 66.3772L169.325 66.4006L169.322 66.424L172.297 66.812ZM161.603 88.9057C158.406 88.8283 155.743 88.0876 153.521 86.7737L150.467 91.9382C153.695 93.847 157.389 94.8055 161.458 94.9039L161.603 88.9057ZM153.554 86.7934C151.412 85.4896 149.712 83.576 148.472 80.9228L143.036 83.4629C144.726 87.0793 147.186 89.941 150.434 91.9186L153.554 86.7934ZM148.476 80.9325C147.206 78.1883 146.487 75.0078 146.38 71.3387L140.382 71.5138C140.509 75.8721 141.372 79.8693 143.032 83.4532L148.476 80.9325ZM146.378 71.3047C146.297 69.2998 146.378 67.2774 146.623 65.2359L140.666 64.521C140.384 66.874 140.289 69.2168 140.383 71.5478L146.378 71.3047ZM146.612 65.3223L148.281 54.1602L142.347 53.2724L140.678 64.4345L146.612 65.3223ZM148.281 54.1609C149.574 45.5336 152.291 39.3087 156.166 35.1515L151.777 31.0605C146.804 36.3954 143.75 43.9107 142.348 53.2718L148.281 54.1609ZM156.172 35.1447C159.979 31.0357 164.777 29.0326 170.827 29.1619L170.955 23.1633C163.294 22.9996 156.812 25.6255 151.771 31.0672L156.172 35.1447ZM170.827 29.1619C175.694 29.2644 179.183 30.8639 181.671 33.7475L186.214 29.8277C182.432 25.4457 177.22 23.2952 170.954 23.1633L170.827 29.1619ZM181.68 33.7579C184.273 36.7351 185.826 40.9596 186.042 46.7532L192.038 46.529C191.786 39.7835 189.94 34.1057 186.205 29.8173L181.68 33.7579ZM186.041 46.7222C186.096 48.7407 186 50.7768 185.754 52.8315L191.711 53.5464C191.992 51.2066 192.102 48.8774 192.039 46.5601L186.041 46.7222ZM185.768 52.7311L184.01 64.1129L189.939 65.0287L191.697 53.6469L185.768 52.7311ZM184.01 64.1132C182.658 72.8731 179.911 79.0799 176.061 83.1084L180.398 87.2539C185.396 82.0246 188.479 74.4911 189.94 65.0284L184.01 64.1132ZM176.054 83.1156C172.277 87.0938 167.542 89.0348 161.595 88.9055L161.465 94.9041C168.995 95.0678 175.393 92.5263 180.405 87.2467L176.054 83.1156ZM177.558 51.594C177.831 49.4681 177.989 47.5533 178.021 45.8627L172.022 45.7496C171.995 47.1644 171.861 48.8532 171.607 50.8289L177.558 51.594ZM178.021 45.8062C178.021 42.8941 177.575 40.2108 176.304 38.1395C174.909 35.8666 172.709 34.6405 170.079 34.5045L169.769 40.4965C170.537 40.5362 170.886 40.7824 171.19 41.278C171.618 41.9752 172.021 43.3569 172.021 45.8062H178.021ZM170.075 34.5043C166.387 34.3178 163.329 35.8931 161.155 38.8933C159.113 41.7122 157.896 45.7014 157.24 50.4968L163.184 51.3108C163.787 46.907 164.819 44.0627 166.014 42.4138C167.077 40.9462 168.246 40.4195 169.772 40.4967L170.075 34.5043ZM157.244 50.4669L154.915 66.2872L160.851 67.1611L163.18 51.3408L157.244 50.4669ZM154.904 66.3653C154.609 68.8169 154.443 70.7677 154.443 72.1294H160.443C160.443 71.1473 160.571 69.4946 160.861 67.083L154.904 66.3653ZM154.444 72.0483C154.365 74.9939 154.754 77.7253 156.023 79.8452C157.419 82.175 159.661 83.4065 162.322 83.5618L162.672 77.572C161.818 77.5222 161.46 77.2449 161.171 76.7622C160.756 76.0696 160.375 74.6848 160.442 72.2104L154.444 72.0483ZM162.348 83.5632C166.093 83.7494 169.184 82.1319 171.367 79.0667C173.419 76.1866 174.631 72.1098 175.272 67.2L169.322 66.424C168.732 70.9478 167.695 73.8803 166.481 75.5852C165.398 77.1049 164.204 77.6481 162.646 77.5706L162.348 83.5632ZM175.265 67.2468L177.55 51.6462L171.614 50.7766L169.329 66.3772L175.265 67.2468Z" fill="#EF3829"/>
<g clip-path="url(#clip1)">
<path d="M192.235 37.6375C187.036 31.6729 181.263 26.235 175 21.4022C182.388 15.2375 190.624 10.1702 199.455 6.35645C198.367 11.4958 198.721 16.8258 198.457 22.0742C198.194 27.3225 197.206 32.816 193.922 36.9111" fill="#FF2932"/>
<path d="M193.677 36.1934C188.468 30.2442 182.696 24.8132 176.443 19.9763V22.8638C183.723 16.8375 191.819 11.8729 200.489 8.11762L197.487 5.81127C196.398 11.3683 196.716 17.0071 196.398 22.6277C196.135 27.0679 195.301 31.8713 192.48 35.4579C192.108 35.8481 191.9 36.3668 191.9 36.9062C191.9 37.4456 192.108 37.9643 192.48 38.3545C192.864 38.7349 193.382 38.9482 193.922 38.9482C194.462 38.9482 194.981 38.7349 195.364 38.3545C198.612 34.223 199.9 29.2743 200.381 24.0987C200.889 18.3782 200.29 12.5578 201.451 6.90089C201.544 6.51095 201.522 6.10239 201.389 5.72442C201.255 5.34645 201.016 5.01518 200.698 4.77051C200.381 4.52584 200 4.3782 199.601 4.34536C199.202 4.31253 198.801 4.39591 198.448 4.58545C189.464 8.50648 181.083 13.6888 173.558 19.9763C173.176 20.3594 172.961 20.8786 172.961 21.42C172.961 21.9614 173.176 22.4807 173.558 22.8638C179.808 27.6914 185.58 33.11 190.793 39.0446C192.534 41.0331 195.41 38.1366 193.686 36.1571L193.677 36.1934Z" fill="#FF2932"/>
<path d="M199.664 6.90131C201.883 7.19422 204.14 6.88045 206.195 5.9933C206.648 5.80262 207.165 5.35769 206.93 4.93092C206.784 4.65852 206.422 4.61312 206.122 4.60404C204.404 4.57725 202.704 4.94699 201.151 5.68457C201.628 5.21031 202.003 4.64342 202.252 4.01879C202.502 3.39416 202.621 2.72501 202.603 2.05252C202.623 1.85775 202.589 1.66111 202.504 1.48467C202.419 1.30823 202.287 1.15899 202.122 1.0537C201.523 0.799461 201.034 1.58035 200.843 2.20688C200.517 3.32374 200.181 4.43152 199.854 5.54837L197.886 2.88789C197.55 2.44297 196.979 1.97988 196.525 2.26136C196.072 2.54285 196.28 3.16938 196.525 3.66878C197.111 4.69517 197.834 5.63619 198.675 6.46547" fill="#FFE3C5"/>
<path d="M199.664 7.92695C201.136 8.1109 202.628 8.05262 204.081 7.75443C204.778 7.61122 205.461 7.40766 206.122 7.14606C206.842 6.95486 207.459 6.4929 207.846 5.85668C208.015 5.50797 208.045 5.10752 207.928 4.73765C207.812 4.36779 207.559 4.05663 207.22 3.86813C206.574 3.59248 205.862 3.51047 205.17 3.63205C203.597 3.74618 202.059 4.15264 200.635 4.83063L201.841 6.42873C202.689 5.59331 203.265 4.52008 203.492 3.35057C203.682 2.28819 203.737 0.844449 202.666 0.21792C201.596 -0.408609 200.498 0.454004 200.027 1.45282C199.553 2.70773 199.156 3.99041 198.839 5.29372L200.707 5.04855C199.972 4.04974 199.283 2.98736 198.485 2.04303C197.687 1.09869 196.317 0.681007 195.546 1.81602C194.947 2.72404 195.373 3.74101 195.881 4.54006C196.47 5.48957 197.167 6.36719 197.959 7.15514C198.15 7.3466 198.409 7.45415 198.68 7.45415C198.95 7.45415 199.21 7.3466 199.401 7.15514C199.592 6.96369 199.7 6.70403 199.7 6.43327C199.7 6.16252 199.592 5.90285 199.401 5.7114C198.942 5.2533 198.517 4.76161 198.131 4.24042C197.941 3.9771 197.768 3.70469 197.596 3.43229C197.508 3.29508 197.43 3.15255 197.36 3.00552C197.306 2.97828 197.306 2.79668 197.306 2.72404C197.414 2.84208 196.879 3.48677 196.807 3.1508C196.807 3.1962 196.906 3.2416 196.925 3.27793C197.106 3.53217 197.333 3.78641 197.523 4.04066L198.975 6.08369C199.082 6.24959 199.234 6.38168 199.413 6.46463C199.592 6.54758 199.791 6.57798 199.986 6.55231C200.182 6.52664 200.366 6.44595 200.518 6.31961C200.67 6.19326 200.782 6.02645 200.843 5.83852C201.088 4.98499 201.342 4.13146 201.596 3.28701C201.687 2.97828 201.75 2.6514 201.868 2.37899C201.868 2.37899 202.086 2.01579 202.086 2.00671C202.086 1.99763 201.759 2.00671 201.741 2.00671C201.689 2.00495 201.64 1.98479 201.602 1.94984C201.564 1.91489 201.539 1.86745 201.533 1.81602C201.533 1.92499 201.533 1.97039 201.533 1.94315C201.533 2.07935 201.533 2.26095 201.533 2.40623C201.515 2.71369 201.463 3.01824 201.378 3.31425C201.188 3.95194 200.842 4.53226 200.371 5.00315C200.199 5.18029 200.096 5.41396 200.082 5.66108C200.068 5.90821 200.143 6.15212 200.294 6.34787C200.446 6.54362 200.663 6.67799 200.905 6.72623C201.148 6.77446 201.4 6.7333 201.614 6.61034C202.548 6.17334 203.541 5.87949 204.562 5.73864C205.049 5.67496 205.541 5.64765 206.032 5.65692C206.107 5.66126 206.183 5.66126 206.258 5.65692C206.189 5.41673 206.107 5.18033 206.014 4.94867C205.868 5.01406 205.726 5.08679 205.587 5.16659C203.708 5.90303 201.673 6.14682 199.673 5.87484C199.538 5.87365 199.403 5.8993 199.278 5.95033C199.153 6.00135 199.039 6.07674 198.942 6.17214C198.846 6.26754 198.77 6.38105 198.718 6.50614C198.666 6.63122 198.639 6.76539 198.639 6.9009C198.646 7.17085 198.756 7.42785 198.947 7.6188C199.138 7.80974 199.394 7.92006 199.664 7.92695Z" fill="#FFE3C5"/>
<path d="M191.663 42.0681C191.663 42.0681 199.047 37.4191 197.387 34.7223C197.387 34.7223 181.368 18.8865 176.361 18.7866C175.118 19.159 173.992 19.8474 173.094 20.7847C172.196 21.722 171.556 22.8762 171.236 24.1348C171.236 24.1348 186.883 33.442 191.663 42.0681Z" fill="#FFE3C5" stroke="#FFE3C5" stroke-width="0.339796" stroke-miterlimit="10"/>
<path d="M194.675 33.9961C194.693 34.4847 194.593 34.9705 194.385 35.4126C194.199 35.819 193.94 36.1883 193.623 36.5022C193.311 36.8231 192.945 37.0873 192.543 37.2831C192.107 37.4987 191.623 37.6017 191.137 37.5827C191.258 37.1326 191.448 36.7039 191.7 36.3115C191.921 35.983 192.177 35.6787 192.462 35.4035C192.735 35.1144 193.04 34.8557 193.369 34.6317C193.766 34.3496 194.208 34.1348 194.675 33.9961V33.9961Z" fill="#003041"/>
<path d="M189.387 32.3073C189.51 32.5642 189.564 32.8494 189.541 33.1336C189.535 33.3317 189.464 33.5224 189.34 33.6765C189.215 33.8306 189.044 33.9397 188.852 33.9872C188.575 34.0591 188.285 34.0591 188.008 33.9872C187.885 33.7269 187.832 33.4389 187.854 33.1518C187.864 32.9553 187.937 32.7673 188.062 32.6161C188.189 32.4659 188.356 32.3555 188.543 32.2983C188.821 32.2349 189.11 32.238 189.387 32.3073Z" fill="#003041"/>
<path d="M185.713 27.0591C185.772 27.4796 185.735 27.9082 185.604 28.3121C185.493 28.6597 185.327 28.9875 185.114 29.2837C184.905 29.5844 184.644 29.8457 184.343 30.0555C184 30.3036 183.607 30.474 183.191 30.5549C183.132 30.1344 183.169 29.7058 183.3 29.3019C183.414 28.9552 183.579 28.6277 183.79 28.3303C184.005 28.0315 184.269 27.7707 184.57 27.5585C184.909 27.3088 185.299 27.1381 185.713 27.0591V27.0591Z" fill="#003041"/>
<path d="M182.157 23.472C181.928 23.9006 181.647 24.3 181.323 24.6615C181.047 24.99 180.744 25.2938 180.415 25.5695C180.099 25.8442 179.759 26.0903 179.4 26.305C178.986 26.556 178.545 26.7571 178.084 26.9043C178.077 26.3858 178.209 25.8747 178.465 25.4242C178.696 24.9988 179.003 24.62 179.372 24.3074C179.744 23.9954 180.172 23.758 180.633 23.6082C181.12 23.4294 181.646 23.3824 182.157 23.472V23.472Z" fill="#003041"/>
<path d="M178.982 21.2023C178.629 21.6291 178.32 21.9378 178.075 22.2284C177.83 22.5189 177.504 22.7823 177.223 23.0274C176.941 23.2726 176.642 23.5178 176.316 23.772C175.948 24.0588 175.563 24.3227 175.164 24.562C175.03 24.0524 175.068 23.5129 175.272 23.0274C175.468 22.5495 175.78 22.1281 176.18 21.8016C176.563 21.4648 177.019 21.2223 177.513 21.0934C178.002 20.9736 178.516 21.0117 178.982 21.2023V21.2023Z" fill="#003041"/>
<path d="M195.256 28.5659C195.08 28.2938 194.977 27.9812 194.956 27.6579C194.937 27.4031 194.98 27.1473 195.083 26.9134C195.17 26.6894 195.31 26.4899 195.491 26.3322C195.752 26.1162 196.065 25.9722 196.398 25.9146C196.574 26.1867 196.677 26.4993 196.698 26.8226C196.717 27.0745 196.674 27.3273 196.571 27.5581C196.469 27.7911 196.314 27.9965 196.117 28.1573C195.87 28.3662 195.573 28.507 195.256 28.5659V28.5659Z" fill="#FFE3C5"/>
<path d="M196.68 21.2294C196.425 21.0543 196.219 20.8167 196.081 20.5393C195.978 20.3308 195.928 20.1 195.936 19.8674C195.945 19.6375 196.018 19.4146 196.144 19.2227C196.308 18.9576 196.54 18.7412 196.816 18.5962C197.074 18.7702 197.283 19.0078 197.423 19.2863C197.527 19.4946 197.577 19.7256 197.569 19.9582C197.551 20.1866 197.479 20.4075 197.36 20.6029C197.191 20.867 196.957 21.0829 196.68 21.2294V21.2294Z" fill="#FFE3C5"/>
<path d="M197.124 13.6748C196.881 13.5739 196.666 13.4149 196.498 13.2117C196.395 13.0865 196.341 12.9288 196.344 12.7668C196.35 12.6053 196.418 12.4524 196.534 12.34C196.716 12.1509 196.94 12.0077 197.187 11.9224C197.432 12.0206 197.648 12.1801 197.813 12.3855C197.917 12.5106 197.975 12.6677 197.977 12.8304C197.961 12.9941 197.891 13.1477 197.777 13.2662C197.595 13.4521 197.371 13.5921 197.124 13.6748V13.6748Z" fill="#FFE3C5"/>
<path d="M189.006 23.8448C188.897 23.5175 188.857 23.1713 188.888 22.8278C188.914 22.5642 188.991 22.3082 189.114 22.0742C189.238 21.8399 189.408 21.633 189.613 21.4658C189.879 21.2456 190.188 21.0846 190.52 20.9937C190.698 21.3024 190.786 21.6546 190.774 22.0106C190.768 22.3023 190.693 22.5883 190.557 22.846C190.415 23.0995 190.22 23.3193 189.985 23.4907C189.697 23.6963 189.358 23.8188 189.006 23.8448V23.8448Z" fill="#FFE3C5"/>
<path d="M192.552 15.9719C192.358 15.8222 192.198 15.6335 192.081 15.418C192.03 15.2929 192.03 15.1527 192.081 15.0276C192.136 14.9063 192.237 14.8117 192.362 14.7642C192.594 14.6804 192.841 14.6463 193.088 14.6644C193.284 14.8143 193.447 15.0028 193.568 15.2183C193.634 15.3374 193.65 15.4776 193.614 15.6087C193.554 15.7306 193.45 15.8249 193.323 15.872C193.077 15.9624 192.814 15.9966 192.552 15.9719V15.9719Z" fill="#FFE3C5"/>
<path d="M193.196 10.7239C193.013 11.03 192.787 11.3083 192.525 11.5502C192.329 11.7359 192.11 11.8947 191.872 12.0224C191.627 12.1426 191.368 12.2311 191.101 12.2857C190.752 12.3539 190.394 12.3723 190.04 12.3402C190.017 11.9484 190.129 11.5606 190.357 11.2415C190.552 10.9579 190.814 10.727 191.119 10.5696C191.429 10.4138 191.771 10.3329 192.117 10.3335C192.51 10.3433 192.888 10.4803 193.196 10.7239Z" fill="#FFE3C5"/>
<path d="M184.516 17.2526C184.436 17.6122 184.285 17.952 184.071 18.2514C183.893 18.4928 183.671 18.699 183.418 18.8598C183.168 19.0275 182.888 19.1447 182.593 19.2048C182.234 19.2865 181.862 19.2865 181.504 19.2048C181.535 18.8287 181.666 18.4678 181.885 18.1606C182.056 17.8945 182.282 17.6685 182.547 17.4978C182.824 17.3254 183.132 17.2111 183.454 17.1618C183.81 17.1044 184.175 17.1356 184.516 17.2526V17.2526Z" fill="#FFE3C5"/>
</g>
<defs>
<filter id="filter0_f" x="12" y="81.1572" width="156" height="26.0104" filterUnits="userSpaceOnUse" color-interpolation-filters="sRGB">
<feFlood flood-opacity="0" result="BackgroundImageFix"/>
<feBlend mode="normal" in="SourceGraphic" in2="BackgroundImageFix" result="shape"/>
<feGaussianBlur stdDeviation="5" result="effect1_foregroundBlur"/>
</filter>
<clipPath id="clip0">
<rect width="45.9643" height="56.2185" fill="white" transform="matrix(0.435579 -0.900151 0.899559 0.436799 0 81.4434)"/>
</clipPath>
<clipPath id="clip1">
<rect width="37" height="42.3588" fill="white" transform="translate(171)"/>
</clipPath>
</defs>
</svg>
