<svg width="244" height="106" viewBox="0 0 244 106" fill="none" xmlns="http://www.w3.org/2000/svg">
<path d="M173.71 87.3779C172.909 88.3154 171.742 89.043 170.209 89.5605C168.676 90.0684 166.977 90.3076 165.111 90.2783C163.324 90.2588 161.815 89.8096 160.585 88.9307C159.354 88.0518 158.476 86.8262 157.948 85.2539C157.421 83.6816 157.279 81.9092 157.523 79.9365L157.641 79.0576C158.09 75.7471 159.252 73.125 161.127 71.1914C163.012 69.2578 165.316 68.3154 168.041 68.3643C170.424 68.4033 172.255 69.043 173.534 70.2832C174.813 71.5234 175.526 73.3154 175.673 75.6592L170.868 75.6445C170.8 74.502 170.517 73.667 170.019 73.1396C169.53 72.6123 168.832 72.334 167.924 72.3047C166.576 72.2559 165.463 72.7881 164.584 73.9014C163.705 75.0049 163.104 76.5869 162.782 78.6475C162.509 80.4053 162.411 81.7725 162.489 82.749C162.636 85.1025 163.695 86.2939 165.668 86.3232C166.859 86.3428 167.904 86.0547 168.803 85.459L169.462 82.1338H165.99L166.605 78.6035H175.087L173.71 87.3779ZM181.356 90H176.347L180.053 68.6719H185.048L181.356 90ZM202.626 87.3779C201.825 88.3154 200.658 89.043 199.125 89.5605C197.592 90.0684 195.893 90.3076 194.027 90.2783C192.24 90.2588 190.731 89.8096 189.501 88.9307C188.271 88.0518 187.392 86.8262 186.864 85.2539C186.337 83.6816 186.195 81.9092 186.439 79.9365L186.557 79.0576C187.006 75.7471 188.168 73.125 190.043 71.1914C191.928 69.2578 194.232 68.3154 196.957 68.3643C199.34 68.4033 201.171 69.043 202.45 70.2832C203.729 71.5234 204.442 73.3154 204.589 75.6592L199.784 75.6445C199.716 74.502 199.433 73.667 198.935 73.1396C198.446 72.6123 197.748 72.334 196.84 72.3047C195.492 72.2559 194.379 72.7881 193.5 73.9014C192.621 75.0049 192.021 76.5869 191.698 78.6475C191.425 80.4053 191.327 81.7725 191.405 82.749C191.552 85.1025 192.611 86.2939 194.584 86.3232C195.775 86.3428 196.82 86.0547 197.719 85.459L198.378 82.1338H194.906L195.521 78.6035H204.003L202.626 87.3779ZM217.45 86.0156H210.639L208.749 90H203.227L214.521 68.6719H219.237L223.178 90H217.963L217.45 86.0156ZM212.514 82.0459H216.938L216 74.6924L212.514 82.0459ZM236.625 84.2285C236.84 83.125 236.244 82.2705 234.838 81.665L232.436 80.6689C229.066 79.1553 227.465 77.0947 227.631 74.4873C227.699 73.2959 228.109 72.2363 228.861 71.3086C229.613 70.3711 230.653 69.6436 231.981 69.126C233.31 68.6084 234.76 68.3594 236.332 68.3789C238.441 68.418 240.136 69.0332 241.415 70.2246C242.704 71.416 243.339 73.0127 243.319 75.0146H238.339C238.368 74.1943 238.192 73.54 237.812 73.0518C237.44 72.5537 236.825 72.2949 235.966 72.2754C235.126 72.2559 234.384 72.4512 233.739 72.8613C233.095 73.2715 232.714 73.8232 232.597 74.5166C232.411 75.4932 233.134 76.2939 234.765 76.9189C236.405 77.5439 237.597 78.0811 238.339 78.5303C240.673 79.9268 241.767 81.8115 241.62 84.1846C241.542 85.415 241.146 86.4941 240.434 87.4219C239.721 88.3496 238.729 89.0674 237.46 89.5752C236.2 90.083 234.784 90.3271 233.212 90.3076C232.06 90.2881 230.99 90.1074 230.004 89.7656C229.018 89.4238 228.173 88.9258 227.47 88.2715C226.044 86.9531 225.36 85.2197 225.419 83.0713L230.443 83.0859C230.385 84.1797 230.595 85.0098 231.073 85.5762C231.552 86.1328 232.357 86.4111 233.49 86.4111C234.33 86.4111 235.028 86.2207 235.585 85.8398C236.151 85.4492 236.498 84.9121 236.625 84.2285Z" fill="#BBBBBB"/>
<g clip-path="url(#clip0)">
<path d="M37.8694 87.5465C36.6257 84.61 36.2273 81.3053 36.456 78.0823C36.535 77.2315 36.614 76.3808 37.1429 75.7481C37.6719 75.1155 38.6071 74.7909 39.2834 75.2299C39.8696 75.6252 39.8806 76.5195 40.1125 77.1876C40.3007 77.9456 40.8461 78.6545 41.6041 78.4662C41.9613 78.4171 42.2257 78.1008 42.4002 77.7409C44.7694 73.9996 42.7018 65.8851 47.0781 65.3393C48.7305 65.1401 47.5747 69.3585 49.1399 69.3392C49.8106 69.331 50.3395 68.6983 50.6449 68.0685C52.2615 64.9626 53.5155 61.4586 56.2147 59.0998C56.7464 58.6907 57.4116 58.2353 58.0388 58.317C59.0695 58.4833 59.5304 59.5957 59.8114 60.6209C60.4251 63.2522 60.4581 65.9352 59.7739 68.493C61.1591 68.3865 62.5879 68.19 63.8013 68.6671C65.1483 69.0978 66.28 70.202 66.2529 71.6335C66.2639 72.5279 65.7813 73.2941 65.2524 73.9268C63.4476 76.2746 60.7837 77.8727 57.9725 78.3993C58.0299 79.4272 59.2433 79.9043 60.1868 80.2505C61.1303 80.5967 62.1692 81.4337 61.913 82.4208C61.7849 82.9143 61.3405 83.1434 60.986 83.4161C59.6991 84.237 58.2294 84.747 56.7107 84.8999C55.2819 85.0963 53.6704 84.9819 52.3835 85.8028C51.0965 86.6237 50.7205 88.7751 52.0702 89.4294C47.5249 90.7822 42.5977 90.1719 38.4556 87.9419" fill="#3EB09E"/>
<path d="M39.7832 86.8074C40.4811 85.3677 41.3154 84.1051 42.286 83.0198C43.2566 81.9345 44.3172 80.8928 45.4241 79.9847C46.5311 79.0766 47.728 78.2121 49.0613 77.5248C50.3046 76.7939 51.7279 76.1503 53.2875 75.6839C52.6796 77.1673 51.7554 78.3862 50.7848 79.4715C49.8142 80.5569 48.7536 81.5986 47.6466 82.5067C46.5397 83.4148 45.3427 84.2792 44.0094 84.9665C42.6761 85.6537 41.3428 86.341 39.7832 86.8074Z" fill="#003247"/>
<path d="M35.077 85.9708C35.9329 82.8295 35.758 79.522 35.0488 76.4C34.8606 75.642 34.626 74.7504 33.9934 74.2215C33.3607 73.6926 32.33 73.5263 31.8447 74.069C31.3594 74.6117 31.414 75.416 31.2886 76.1332C31.2533 76.8939 30.7271 77.7502 30.01 77.6248C29.6964 77.5839 29.3801 77.3195 29.0637 77.055C26.1595 73.6469 27.0421 65.4067 22.6167 65.5952C21.008 65.7045 22.7562 69.6635 21.1938 69.9063C20.4794 70.0045 19.9803 69.4292 19.4813 68.854C17.4333 65.972 15.6933 62.6838 12.7183 60.7972C12.0884 60.4918 11.3685 60.1429 10.7441 60.2847C9.7189 60.5657 9.46543 61.7764 9.2992 62.8071C9.0186 65.4493 9.49875 68.1269 10.5133 70.619C9.17178 70.6355 7.78662 70.7419 6.49694 71.3392C5.20727 71.9365 4.32939 73.289 4.56947 74.6278C4.71407 75.4758 5.25947 76.1847 5.8485 76.8036C7.97553 78.8348 10.8087 80.097 13.8054 80.1049C13.8627 81.1329 12.7966 81.7274 11.9541 82.3192C11.0653 82.7773 10.1383 83.7727 10.5964 84.6615C10.8255 85.106 11.2755 85.3241 11.6354 85.4985C13.0288 86.0628 14.5531 86.3572 16.1182 86.3379C17.5933 86.2751 19.1993 85.9423 20.5491 86.5966C21.8989 87.2508 22.6408 89.3885 21.3975 90.1194C26.1011 90.7325 30.96 89.4204 34.6816 86.5571" fill="#3EB09E"/>
<path d="M32.9691 85.5047C31.4012 85.3004 29.9642 84.826 28.5708 84.2617C27.1774 83.6974 25.9176 83.0868 24.6115 82.3425C23.3053 81.5982 22.1764 80.7176 20.9574 79.7934C19.8721 78.8228 18.7404 77.7186 17.8296 76.388C19.3974 76.5924 20.8345 77.0667 22.2279 77.631C23.6213 78.1953 24.8811 78.8059 26.1872 79.5502C27.4934 80.2945 28.6223 81.1751 29.7513 82.0557C31.0166 83.1136 32.0583 84.1742 32.9691 85.5047Z" fill="#003247"/>
<path d="M33.8501 88.0432C32.9554 84.3867 35.1909 80.6918 38.9374 79.8408C42.5938 78.9461 46.2887 81.1816 47.1398 84.928C48.0345 88.5845 45.7989 92.2794 42.0525 93.1304C38.3961 94.0252 34.7012 91.7896 33.8501 88.0432Z" fill="#FCAB10"/>
<path d="M33.8502 88.0432C34.7449 91.6996 38.4398 93.9352 42.0526 93.1304C45.709 92.2357 47.9446 88.5408 47.1398 84.928C47.1398 84.928 43.367 94.5455 33.8502 88.0432Z" fill="#D6920E"/>
<path d="M37.0884 78.6112C37.233 79.4592 37.2876 80.2636 37.4322 81.1115C37.4813 81.4687 37.6204 81.8696 37.9368 82.134C38.0731 82.3112 38.2531 82.3985 38.4767 82.3957C38.6566 82.483 38.8802 82.4802 39.1038 82.4775C39.461 82.4284 39.8618 82.2893 40.1263 81.9729C40.3908 81.6566 40.5652 81.2967 40.4697 80.8059C40.3251 79.9579 40.2705 79.1535 40.1259 78.3055C40.0768 77.9483 39.9377 77.5475 39.6214 77.283C39.4851 77.1058 39.3051 77.0186 39.0815 77.0213C38.9015 76.9341 38.6779 76.9368 38.4543 76.9396C38.0971 76.9887 37.6963 77.1278 37.4319 77.4441C37.1674 77.7604 36.9493 78.2104 37.0884 78.6112Z" fill="#013041"/>
<path d="M37.3287 83.6174C36.6552 83.402 35.8564 83.9038 35.5538 84.7573C35.2076 85.7008 35.4421 86.5924 35.9821 86.8541C36.6556 87.0695 37.4545 86.5677 37.757 85.7142C38.1932 84.8143 37.9586 83.9227 37.3287 83.6174Z" fill="#FED576"/>
<path d="M28.526 95.1304C26.3636 93.86 25.5698 91.1415 26.8403 88.9791C28.1107 86.8167 30.8292 86.023 32.9916 87.2934C35.154 88.5639 35.9477 91.2823 34.6773 93.4447C33.5404 95.5607 30.732 96.3109 28.526 95.1304Z" fill="#FCAB10"/>
<path d="M28.5258 95.1304C30.6882 96.4008 33.4067 95.6071 34.6771 93.4447C35.9476 91.2823 35.1538 88.5639 32.9914 87.2934C32.9914 87.2934 35.9287 93.3846 28.5258 95.1304Z" fill="#D6920E"/>
<path d="M25.3679 89.2655C25.7742 89.5736 26.2705 89.9253 26.6768 90.2334C26.7667 90.277 26.9467 90.3643 27.0367 90.4079C27.1267 90.4515 27.3067 90.5387 27.4403 90.4924C27.6639 90.4896 27.9747 90.3069 28.1519 90.1705C28.3728 89.9442 28.4136 89.6306 28.4109 89.407C28.4081 89.1835 28.2254 88.8726 28.0891 88.6954C27.6827 88.3873 27.1865 88.0356 26.7801 87.7275C26.6902 87.6839 26.5102 87.5967 26.4202 87.5531C26.3302 87.5094 26.1502 87.4222 26.0166 87.4686C25.7931 87.4713 25.4822 87.654 25.305 87.7904C25.0842 88.0167 25.0433 88.3303 25.046 88.5539C25.0488 88.7775 25.0979 89.1347 25.3679 89.2655Z" fill="#013041"/>
<path d="M27.9882 91.4248C27.5874 91.5639 27.462 92.2811 27.7374 92.8591C28.0129 93.4372 28.5528 93.6989 28.9536 93.5598C29.3981 93.3307 29.4798 92.7035 29.2043 92.1255C28.9289 91.5475 28.389 91.2857 27.9882 91.4248Z" fill="#FED576"/>
</g>
<path d="M82.1133 90H67.6113L75.7852 42.9785L60.8877 47.1973L62.9092 35.4639L91.21 26.0156L92.8359 25.9717L82.1133 90ZM123.554 90.8789C119.921 90.791 116.742 89.9414 114.018 88.3301C111.322 86.6895 109.242 84.3018 107.777 81.167C106.312 78.0029 105.521 74.4141 105.404 70.4004C105.316 68.2324 105.404 66.0498 105.668 63.8525L107.338 52.6904C108.686 43.6963 111.571 36.8262 115.995 32.0801C120.419 27.3047 126.059 24.9902 132.914 25.1367C138.48 25.2539 142.831 27.1289 145.966 30.7617C149.13 34.3945 150.829 39.3457 151.063 45.6152C151.122 47.7832 151.02 49.9658 150.756 52.1631L148.998 63.5449C147.592 72.6562 144.677 79.5264 140.253 84.1553C135.858 88.7842 130.292 91.0254 123.554 90.8789ZM136.605 50.1855C136.869 48.1348 137.016 46.333 137.045 44.7803C137.045 39.4189 135.346 36.6504 131.947 36.4746C126.732 36.2109 123.495 40.6787 122.235 49.8779L119.906 65.6982C119.613 68.1299 119.467 69.9316 119.467 71.1035C119.32 76.5234 121.005 79.3359 124.521 79.541C129.823 79.8047 133.09 75.2197 134.32 65.7861L136.605 50.1855Z" fill="#EF3829"/>
<path d="M82.1133 90V93H84.6527L85.0721 90.4955L82.1133 90ZM67.6113 90L64.6557 89.4862L64.0448 93H67.6113V90ZM75.7852 42.9785L78.7408 43.4923L79.5579 38.7922L74.9677 40.092L75.7852 42.9785ZM60.8877 47.1973L57.9313 46.6879L57.1226 51.3815L61.7051 50.0838L60.8877 47.1973ZM62.9092 35.4639L61.9592 32.6183L60.2574 33.1864L59.9527 34.9545L62.9092 35.4639ZM91.21 26.0156L91.1289 23.0167L90.683 23.0288L90.26 23.17L91.21 26.0156ZM92.8359 25.9717L95.7947 26.4672L96.3964 22.8744L92.7549 22.9728L92.8359 25.9717ZM82.1133 87H67.6113V93H82.1133V87ZM70.567 90.5138L78.7408 43.4923L72.8295 42.4647L64.6557 89.4862L70.567 90.5138ZM74.9677 40.092L60.0703 44.3108L61.7051 50.0838L76.6026 45.865L74.9677 40.092ZM63.8441 47.7066L65.8656 35.9732L59.9527 34.9545L57.9313 46.6879L63.8441 47.7066ZM63.8592 38.3095L92.16 28.8612L90.26 23.17L61.9592 32.6183L63.8592 38.3095ZM91.291 29.0145L92.917 28.9706L92.7549 22.9728L91.1289 23.0167L91.291 29.0145ZM89.8771 25.4762L79.1545 89.5045L85.0721 90.4955L95.7947 26.4672L89.8771 25.4762ZM123.554 90.8789L123.481 93.878L123.489 93.8782L123.554 90.8789ZM114.018 88.3301L112.458 90.8927L112.474 90.9026L112.49 90.9123L114.018 88.3301ZM107.777 81.167L105.055 82.4274L105.059 82.437L107.777 81.167ZM105.404 70.4004L108.403 70.3128L108.403 70.2958L108.402 70.2789L105.404 70.4004ZM105.668 63.8525L102.701 63.4087L102.695 63.4518L102.689 63.4951L105.668 63.8525ZM107.338 52.6904L104.371 52.2459L104.371 52.2466L107.338 52.6904ZM115.995 32.0801L118.19 34.1256L118.196 34.1188L115.995 32.0801ZM132.914 25.1367L132.85 28.136L132.851 28.1361L132.914 25.1367ZM145.966 30.7617L143.695 32.7216L143.704 32.7321L145.966 30.7617ZM151.063 45.6152L154.062 45.5342L154.062 45.5187L154.061 45.5032L151.063 45.6152ZM150.756 52.1631L153.721 52.621L153.728 52.5709L153.734 52.5205L150.756 52.1631ZM148.998 63.5449L146.033 63.087L146.033 63.0873L148.998 63.5449ZM140.253 84.1553L138.084 82.0825L138.077 82.0898L140.253 84.1553ZM136.605 50.1855L139.574 50.6203L139.578 50.5943L139.581 50.5681L136.605 50.1855ZM137.045 44.7803L140.044 44.8369L140.045 44.8086V44.7803H137.045ZM131.947 36.4746L132.102 33.4786L132.099 33.4784L131.947 36.4746ZM122.235 49.8779L125.203 50.3149L125.206 50.2999L125.208 50.285L122.235 49.8779ZM119.906 65.6982L116.938 65.2613L116.933 65.3003L116.928 65.3394L119.906 65.6982ZM119.467 71.1035L122.466 71.1846L122.467 71.1441V71.1035H119.467ZM124.521 79.541L124.346 82.5359L124.359 82.5367L124.372 82.5373L124.521 79.541ZM134.32 65.7861L131.352 65.3513L131.349 65.3747L131.346 65.3981L134.32 65.7861ZM123.626 87.8798C120.429 87.8024 117.766 87.0617 115.545 85.7478L112.49 90.9123C115.718 92.8211 119.413 93.7796 123.481 93.878L123.626 87.8798ZM115.577 85.7675C113.436 84.4638 111.735 82.5501 110.495 79.8969L105.059 82.437C106.749 86.0534 109.209 88.9152 112.458 90.8927L115.577 85.7675ZM110.5 79.9066C109.229 77.1624 108.51 73.9819 108.403 70.3128L102.406 70.4879C102.533 74.8462 103.396 78.8434 105.055 82.4274L110.5 79.9066ZM108.402 70.2789C108.321 68.274 108.402 66.2515 108.647 64.21L102.689 63.4951C102.407 65.8481 102.312 68.1909 102.407 70.5219L108.402 70.2789ZM108.635 64.2964L110.305 53.1343L104.371 52.2466L102.701 63.4087L108.635 64.2964ZM110.305 53.135C111.597 44.5077 114.315 38.2828 118.19 34.1256L113.801 30.0346C108.828 35.3695 105.774 42.8848 104.371 52.2459L110.305 53.135ZM118.196 34.1188C122.002 30.0098 126.8 28.0068 132.85 28.136L132.978 22.1374C125.317 21.9737 118.835 24.5996 113.794 30.0413L118.196 34.1188ZM132.851 28.1361C137.717 28.2385 141.206 29.838 143.695 32.7216L148.237 28.8018C144.456 24.4198 139.244 22.2693 132.977 22.1374L132.851 28.1361ZM143.704 32.7321C146.297 35.7092 147.849 39.9337 148.066 45.7273L154.061 45.5032C153.809 38.7577 151.963 33.0798 148.228 28.7914L143.704 32.7321ZM148.065 45.6963C148.119 47.7148 148.024 49.7509 147.777 51.8056L153.734 52.5205C154.015 50.1808 154.125 47.8516 154.062 45.5342L148.065 45.6963ZM147.791 51.7052L146.033 63.087L151.963 64.0028L153.721 52.621L147.791 51.7052ZM146.033 63.0873C144.681 71.8473 141.934 78.054 138.084 82.0825L142.422 86.228C147.419 80.9987 150.502 73.4652 151.963 64.0025L146.033 63.0873ZM138.077 82.0898C134.301 86.0679 129.565 88.0089 123.619 87.8796L123.489 93.8782C131.019 94.0419 137.416 91.5005 142.429 86.2208L138.077 82.0898ZM139.581 50.5681C139.854 48.4422 140.012 46.5275 140.044 44.8369L134.045 44.7237C134.019 46.1385 133.884 47.8273 133.63 49.803L139.581 50.5681ZM140.045 44.7803C140.045 41.8682 139.599 39.1849 138.327 37.1136C136.932 34.8407 134.732 33.6147 132.102 33.4786L131.792 39.4706C132.561 39.5103 132.909 39.7565 133.214 40.2521C133.642 40.9494 134.045 42.331 134.045 44.7803H140.045ZM132.099 33.4784C128.41 33.2919 125.353 34.8673 123.179 37.8674C121.136 40.6864 119.92 44.6755 119.263 49.4709L125.208 50.285C125.811 45.8812 126.843 43.0368 128.037 41.3879C129.101 39.9203 130.269 39.3936 131.796 39.4708L132.099 33.4784ZM119.267 49.441L116.938 65.2613L122.874 66.1352L125.203 50.3149L119.267 49.441ZM116.928 65.3394C116.632 67.791 116.467 69.7418 116.467 71.1035H122.467C122.467 70.1214 122.594 68.4687 122.885 66.0571L116.928 65.3394ZM116.468 71.0225C116.388 73.9681 116.777 76.6994 118.047 78.8194C119.442 81.1492 121.684 82.3807 124.346 82.5359L124.695 76.5461C123.841 76.4963 123.483 76.219 123.194 75.7363C122.779 75.0438 122.399 73.6589 122.466 71.1846L116.468 71.0225ZM124.372 82.5373C128.116 82.7235 131.207 81.106 133.391 78.0408C135.443 75.1607 136.655 71.0839 137.295 66.1741L131.346 65.3981C130.755 69.922 129.719 72.8544 128.504 74.5593C127.421 76.0791 126.227 76.6222 124.669 76.5447L124.372 82.5373ZM137.289 66.2209L139.574 50.6203L133.637 49.7508L131.352 65.3513L137.289 66.2209Z" fill="#EF3829"/>
<g clip-path="url(#clip1)">
<path d="M154.235 37.5725C149.036 31.6182 143.263 26.1896 137 21.3652C144.388 15.2112 152.624 10.1526 161.456 6.3454C160.367 11.4759 160.721 16.7967 160.458 22.036C160.195 27.2752 159.206 32.7592 155.922 36.8473" fill="#FF2932"/>
<path d="M155.677 36.1312C150.468 30.1923 144.696 24.7707 138.442 19.9421V22.8246C145.723 16.8087 153.819 11.8527 162.489 8.1039L159.487 5.80153C158.398 11.349 158.716 16.978 158.398 22.5889C158.135 27.0214 157.301 31.8165 154.48 35.397C154.108 35.7865 153.9 36.3043 153.9 36.8428C153.9 37.3813 154.108 37.899 154.48 38.2886C154.863 38.6683 155.382 38.8813 155.922 38.8813C156.462 38.8813 156.98 38.6683 157.364 38.2886C160.612 34.1642 161.9 29.2241 162.38 24.0574C162.888 18.3467 162.29 12.5364 163.451 6.88926C163.544 6.5 163.522 6.09215 163.389 5.71483C163.255 5.33751 163.015 5.00681 162.698 4.76256C162.381 4.51831 162 4.37093 161.6 4.33815C161.201 4.30537 160.801 4.38861 160.448 4.57782C151.463 8.49208 143.082 13.6655 135.558 19.9421C135.176 20.3245 134.961 20.8429 134.961 21.3833C134.961 21.9238 135.176 22.4422 135.558 22.8246C141.808 27.6439 147.579 33.0531 152.792 38.9775C154.534 40.9626 157.409 38.071 155.686 36.095L155.677 36.1312Z" fill="#FF2932"/>
<path d="M161.664 6.88927C163.883 7.18167 166.14 6.86845 168.195 5.98283C168.648 5.79247 169.165 5.34831 168.93 4.92228C168.784 4.65035 168.422 4.60503 168.122 4.59596C166.404 4.56922 164.704 4.93833 163.151 5.67463C163.628 5.20119 164.003 4.63528 164.252 4.01173C164.502 3.38818 164.621 2.72018 164.603 2.04885C164.623 1.85442 164.589 1.65811 164.504 1.48198C164.419 1.30584 164.287 1.15686 164.122 1.05176C163.523 0.797953 163.034 1.5775 162.843 2.20294C162.517 3.31787 162.181 4.42374 161.854 5.53867L159.886 2.88278C159.55 2.43862 158.979 1.97633 158.525 2.25733C158.072 2.53833 158.28 3.16378 158.525 3.66232C159.111 4.68693 159.834 5.62634 160.675 6.45418" fill="#FFE3C5"/>
<path d="M161.664 7.91346C163.136 8.09709 164.628 8.03891 166.081 7.74124C166.778 7.59827 167.461 7.39507 168.122 7.13392C168.842 6.94305 169.459 6.48188 169.846 5.84677C170.015 5.49865 170.045 5.09889 169.928 4.72967C169.812 4.36044 169.559 4.04982 169.22 3.86165C168.574 3.58648 167.862 3.5046 167.17 3.62597C165.597 3.73991 164.059 4.14567 162.635 4.82248L163.841 6.41783C164.689 5.58385 165.265 4.51247 165.492 3.34498C165.682 2.28443 165.737 0.843184 164.666 0.217736C163.596 -0.407712 162.498 0.453412 162.027 1.4505C161.553 2.70325 161.156 3.98372 160.839 5.28477L162.707 5.04003C161.972 4.04294 161.283 2.9824 160.485 2.03969C159.687 1.09699 158.317 0.680024 157.546 1.81308C156.947 2.71953 157.373 3.73475 157.881 4.53242C158.47 5.48029 159.167 6.35639 159.959 7.14298C160.15 7.33411 160.409 7.44148 160.68 7.44148C160.95 7.44148 161.21 7.33411 161.401 7.14298C161.592 6.95186 161.7 6.69265 161.7 6.42236C161.7 6.15207 161.592 5.89286 161.401 5.70174C160.942 5.24442 160.517 4.75359 160.131 4.23329C159.941 3.97042 159.768 3.69849 159.596 3.42656C159.508 3.28958 159.43 3.1473 159.36 3.00053C159.306 2.97333 159.306 2.79204 159.306 2.71953C159.414 2.83737 158.879 3.48094 158.807 3.14556C158.807 3.19088 158.906 3.2362 158.925 3.27246C159.106 3.52626 159.333 3.78007 159.523 4.03387L160.975 6.07338C161.082 6.23899 161.234 6.37086 161.413 6.45366C161.592 6.53647 161.791 6.56682 161.986 6.5412C162.182 6.51557 162.366 6.43502 162.518 6.30889C162.67 6.18277 162.782 6.01624 162.843 5.82864C163.088 4.97658 163.342 4.12452 163.596 3.28152C163.687 2.97333 163.75 2.64701 163.868 2.37508C163.868 2.37508 164.086 2.0125 164.086 2.00344C164.086 1.99437 163.759 2.00344 163.741 2.00344C163.689 2.00168 163.64 1.98155 163.602 1.94667C163.564 1.91178 163.539 1.86442 163.533 1.81308C163.533 1.92185 163.533 1.96718 163.533 1.93998C163.533 2.07595 163.533 2.25724 163.533 2.40227C163.515 2.7092 163.463 3.01322 163.378 3.30872C163.188 3.94531 162.842 4.52462 162.371 4.99471C162.199 5.17154 162.096 5.40481 162.082 5.6515C162.068 5.8982 162.143 6.1417 162.294 6.3371C162.446 6.53251 162.663 6.66666 162.905 6.71481C163.148 6.76296 163.4 6.72187 163.614 6.59912C164.548 6.16288 165.541 5.86953 166.562 5.72893C167.049 5.66536 167.541 5.63809 168.032 5.64735C168.107 5.65168 168.183 5.65168 168.258 5.64735C168.189 5.40757 168.107 5.17158 168.014 4.94032C167.868 5.00559 167.726 5.0782 167.587 5.15787C165.708 5.89303 163.673 6.1364 161.673 5.8649C161.538 5.8637 161.403 5.88931 161.278 5.94025C161.153 5.99119 161.039 6.06644 160.942 6.16168C160.846 6.25691 160.77 6.37023 160.718 6.4951C160.666 6.61996 160.639 6.7539 160.639 6.88918C160.646 7.15867 160.756 7.41522 160.947 7.60584C161.138 7.79645 161.394 7.90658 161.664 7.91346Z" fill="#FFE3C5"/>
<path d="M153.663 41.9957C153.663 41.9957 161.047 37.3547 159.387 34.6626C159.387 34.6626 143.368 18.8541 138.361 18.7544C137.118 19.1262 135.992 19.8134 135.094 20.749C134.196 21.6847 133.556 22.8369 133.236 24.0934C133.236 24.0934 148.883 33.3845 153.663 41.9957Z" fill="#FFE3C5" stroke="#FFE3C5" stroke-width="0.339796" stroke-miterlimit="10"/>
<path d="M156.675 33.9376C156.693 34.4254 156.593 34.9104 156.385 35.3516C156.199 35.7574 155.94 36.126 155.623 36.4394C155.311 36.7597 154.945 37.0235 154.543 37.2189C154.107 37.4341 153.623 37.5369 153.137 37.5181C153.258 37.0687 153.448 36.6407 153.7 36.249C153.921 35.9211 154.177 35.6173 154.462 35.3426C154.735 35.054 155.04 34.7957 155.369 34.5721C155.766 34.2905 156.208 34.0761 156.675 33.9376Z" fill="#003041"/>
<path d="M151.387 32.2516C151.51 32.508 151.563 32.7927 151.541 33.0765C151.535 33.2742 151.464 33.4645 151.339 33.6184C151.215 33.7722 151.044 33.8812 150.851 33.9285C150.575 34.0003 150.284 34.0003 150.008 33.9285C149.885 33.6687 149.831 33.3813 149.854 33.0946C149.863 32.8985 149.937 32.7108 150.062 32.5598C150.188 32.4099 150.355 32.2997 150.543 32.2426C150.821 32.1793 151.11 32.1824 151.387 32.2516Z" fill="#003041"/>
<path d="M147.713 27.0122C147.772 27.432 147.735 27.8599 147.604 28.2631C147.493 28.6101 147.327 28.9373 147.114 29.233C146.905 29.5332 146.644 29.794 146.343 30.0035C146 30.2512 145.607 30.4213 145.191 30.5021C145.132 30.0822 145.169 29.6544 145.3 29.2512C145.414 28.9051 145.579 28.5781 145.79 28.2813C146.005 27.983 146.269 27.7226 146.57 27.5108C146.909 27.2615 147.299 27.0911 147.713 27.0122Z" fill="#003041"/>
<path d="M144.157 23.4317C143.928 23.8596 143.647 24.2583 143.323 24.6192C143.047 24.9471 142.744 25.2504 142.415 25.5256C142.099 25.7999 141.759 26.0456 141.4 26.2599C140.986 26.5104 140.545 26.7112 140.084 26.8581C140.077 26.3405 140.209 25.8303 140.465 25.3806C140.696 24.9559 141.003 24.5778 141.372 24.2657C141.744 23.9542 142.172 23.7172 142.633 23.5677C143.12 23.3892 143.646 23.3423 144.157 23.4317Z" fill="#003041"/>
<path d="M140.982 21.1659C140.628 21.5919 140.32 21.9001 140.075 22.1902C139.83 22.4802 139.504 22.7431 139.222 22.9878C138.941 23.2326 138.642 23.4773 138.315 23.7311C137.948 24.0175 137.563 24.2808 137.163 24.5197C137.03 24.0111 137.068 23.4725 137.272 22.9878C137.468 22.5107 137.78 22.0901 138.179 21.7641C138.563 21.4279 139.019 21.1858 139.513 21.0571C140.002 20.9375 140.516 20.9756 140.982 21.1659Z" fill="#003041"/>
<path d="M157.256 28.5168C157.08 28.2451 156.977 27.9331 156.956 27.6104C156.937 27.3559 156.98 27.1006 157.083 26.8671C157.17 26.6435 157.31 26.4444 157.491 26.287C157.752 26.0713 158.065 25.9276 158.398 25.87C158.574 26.1417 158.677 26.4537 158.698 26.7764C158.717 27.0279 158.674 27.2803 158.571 27.5107C158.469 27.7433 158.314 27.9484 158.117 28.1089C157.87 28.3174 157.573 28.458 157.256 28.5168Z" fill="#FFE3C5"/>
<path d="M158.68 21.1929C158.425 21.018 158.219 20.7809 158.081 20.504C157.978 20.2958 157.928 20.0653 157.936 19.8332C157.945 19.6037 158.018 19.3811 158.144 19.1896C158.308 18.9249 158.54 18.7089 158.816 18.5642C159.074 18.7379 159.283 18.9751 159.423 19.2531C159.527 19.461 159.577 19.6916 159.569 19.9238C159.551 20.1518 159.479 20.3723 159.36 20.5674C159.191 20.8311 158.957 21.0466 158.68 21.1929Z" fill="#FFE3C5"/>
<path d="M159.124 13.6512C158.881 13.5504 158.666 13.3917 158.498 13.1889C158.395 13.0639 158.341 12.9064 158.344 12.7447C158.35 12.5835 158.418 12.4308 158.534 12.3187C158.716 12.1299 158.94 11.987 159.187 11.9017C159.432 11.9998 159.648 12.159 159.813 12.364C159.917 12.4889 159.975 12.6458 159.977 12.8082C159.961 12.9716 159.891 13.125 159.777 13.2433C159.595 13.4288 159.371 13.5686 159.124 13.6512Z" fill="#FFE3C5"/>
<path d="M151.006 23.8037C150.897 23.4769 150.857 23.1314 150.888 22.7884C150.914 22.5253 150.991 22.2697 151.115 22.0361C151.238 21.8022 151.408 21.5956 151.614 21.4288C151.879 21.2089 152.188 21.0483 152.521 20.9574C152.698 21.2657 152.786 21.6172 152.775 21.9726C152.768 22.2638 152.694 22.5494 152.557 22.8066C152.415 23.0596 152.22 23.2791 151.986 23.4502C151.698 23.6554 151.359 23.7777 151.006 23.8037Z" fill="#FFE3C5"/>
<path d="M154.552 15.9445C154.358 15.795 154.198 15.6067 154.081 15.3916C154.03 15.2666 154.03 15.1268 154.081 15.0018C154.136 14.8807 154.237 14.7863 154.362 14.7389C154.594 14.6552 154.841 14.6212 155.088 14.6392C155.284 14.7889 155.447 14.9771 155.568 15.1922C155.634 15.3111 155.65 15.4511 155.614 15.5819C155.554 15.7036 155.45 15.7978 155.323 15.8448C155.077 15.9351 154.814 15.9691 154.552 15.9445Z" fill="#FFE3C5"/>
<path d="M155.196 10.7054C155.013 11.0109 154.787 11.2887 154.525 11.5302C154.329 11.7156 154.11 11.8741 153.872 12.0016C153.627 12.1216 153.368 12.2099 153.101 12.2644C152.751 12.3325 152.394 12.3508 152.04 12.3188C152.017 11.9277 152.129 11.5406 152.357 11.222C152.552 10.9389 152.813 10.7084 153.119 10.5513C153.429 10.3957 153.77 10.315 154.117 10.3156C154.509 10.3254 154.888 10.4621 155.196 10.7054Z" fill="#FFE3C5"/>
<path d="M146.515 17.2227C146.436 17.5817 146.285 17.9209 146.071 18.2198C145.893 18.4608 145.671 18.6667 145.418 18.8271C145.168 18.9945 144.887 19.1115 144.592 19.1716C144.234 19.2532 143.862 19.2532 143.504 19.1716C143.534 18.7961 143.666 18.4359 143.885 18.1292C144.055 17.8636 144.281 17.6379 144.547 17.4675C144.824 17.2954 145.132 17.1813 145.454 17.1321C145.81 17.0748 146.174 17.1059 146.515 17.2227Z" fill="#FFE3C5"/>
</g>
<defs>
<clipPath id="clip0">
<rect width="45.9" height="56.2" fill="white" transform="translate(0 81.3032) rotate(-64.139)"/>
</clipPath>
<clipPath id="clip1">
<rect width="37" height="42.2857" fill="white" transform="translate(133)"/>
</clipPath>
</defs>
</svg>
