<svg width="277" height="106" viewBox="0 0 277 106" fill="none" xmlns="http://www.w3.org/2000/svg">
<g clip-path="url(#clip0)">
<g filter="url(#filter0_f)">
<ellipse cx="86" cy="94" rx="68" ry="3" fill="#C4C4C4" fill-opacity="0.5"/>
</g>
<path d="M162.71 88.3779C161.909 89.3154 160.742 90.043 159.209 90.5605C157.676 91.0684 155.977 91.3076 154.111 91.2783C152.324 91.2588 150.815 90.8096 149.585 89.9307C148.354 89.0518 147.476 87.8262 146.948 86.2539C146.421 84.6816 146.279 82.9092 146.523 80.9365L146.641 80.0576C147.09 76.7471 148.252 74.125 150.127 72.1914C152.012 70.2578 154.316 69.3154 157.041 69.3643C159.424 69.4033 161.255 70.043 162.534 71.2832C163.813 72.5234 164.526 74.3154 164.673 76.6592L159.868 76.6445C159.8 75.502 159.517 74.667 159.019 74.1396C158.53 73.6123 157.832 73.334 156.924 73.3047C155.576 73.2559 154.463 73.7881 153.584 74.9014C152.705 76.0049 152.104 77.5869 151.782 79.6475C151.509 81.4053 151.411 82.7725 151.489 83.749C151.636 86.1025 152.695 87.2939 154.668 87.3232C155.859 87.3428 156.904 87.0547 157.803 86.459L158.462 83.1338H154.99L155.605 79.6035H164.087L162.71 88.3779ZM170.356 91H165.347L169.053 69.6719H174.048L170.356 91ZM191.626 88.3779C190.825 89.3154 189.658 90.043 188.125 90.5605C186.592 91.0684 184.893 91.3076 183.027 91.2783C181.24 91.2588 179.731 90.8096 178.501 89.9307C177.271 89.0518 176.392 87.8262 175.864 86.2539C175.337 84.6816 175.195 82.9092 175.439 80.9365L175.557 80.0576C176.006 76.7471 177.168 74.125 179.043 72.1914C180.928 70.2578 183.232 69.3154 185.957 69.3643C188.34 69.4033 190.171 70.043 191.45 71.2832C192.729 72.5234 193.442 74.3154 193.589 76.6592L188.784 76.6445C188.716 75.502 188.433 74.667 187.935 74.1396C187.446 73.6123 186.748 73.334 185.84 73.3047C184.492 73.2559 183.379 73.7881 182.5 74.9014C181.621 76.0049 181.021 77.5869 180.698 79.6475C180.425 81.4053 180.327 82.7725 180.405 83.749C180.552 86.1025 181.611 87.2939 183.584 87.3232C184.775 87.3428 185.82 87.0547 186.719 86.459L187.378 83.1338H183.906L184.521 79.6035H193.003L191.626 88.3779ZM206.45 87.0156H199.639L197.749 91H192.227L203.521 69.6719H208.237L212.178 91H206.963L206.45 87.0156ZM201.514 83.0459H205.938L205 75.6924L201.514 83.0459ZM225.625 85.2285C225.84 84.125 225.244 83.2705 223.838 82.665L221.436 81.6689C218.066 80.1553 216.465 78.0947 216.631 75.4873C216.699 74.2959 217.109 73.2363 217.861 72.3086C218.613 71.3711 219.653 70.6436 220.981 70.126C222.31 69.6084 223.76 69.3594 225.332 69.3789C227.441 69.418 229.136 70.0332 230.415 71.2246C231.704 72.416 232.339 74.0127 232.319 76.0146H227.339C227.368 75.1943 227.192 74.54 226.812 74.0518C226.44 73.5537 225.825 73.2949 224.966 73.2754C224.126 73.2559 223.384 73.4512 222.739 73.8613C222.095 74.2715 221.714 74.8232 221.597 75.5166C221.411 76.4932 222.134 77.2939 223.765 77.9189C225.405 78.5439 226.597 79.0811 227.339 79.5303C229.673 80.9268 230.767 82.8115 230.62 85.1846C230.542 86.415 230.146 87.4941 229.434 88.4219C228.721 89.3496 227.729 90.0674 226.46 90.5752C225.2 91.083 223.784 91.3271 222.212 91.3076C221.06 91.2881 219.99 91.1074 219.004 90.7656C218.018 90.4238 217.173 89.9258 216.47 89.2715C215.044 87.9531 214.36 86.2197 214.419 84.0713L219.443 84.0859C219.385 85.1797 219.595 86.0098 220.073 86.5762C220.552 87.1328 221.357 87.4111 222.49 87.4111C223.33 87.4111 224.028 87.2207 224.585 86.8398C225.151 86.4492 225.498 85.9121 225.625 85.2285Z" fill="#BBBBBB"/>
<path d="M76.1133 92H61.6113L69.7852 44.9785L54.8877 49.1973L56.9092 37.4639L85.21 28.0156L86.8359 27.9717L76.1133 92ZM117.554 92.8789C113.921 92.791 110.742 91.9414 108.018 90.3301C105.322 88.6895 103.242 86.3018 101.777 83.167C100.312 80.0029 99.5215 76.4141 99.4043 72.4004C99.3164 70.2324 99.4043 68.0498 99.668 65.8525L101.338 54.6904C102.686 45.6963 105.571 38.8262 109.995 34.0801C114.419 29.3047 120.059 26.9902 126.914 27.1367C132.48 27.2539 136.831 29.1289 139.966 32.7617C143.13 36.3945 144.829 41.3457 145.063 47.6152C145.122 49.7832 145.02 51.9658 144.756 54.1631L142.998 65.5449C141.592 74.6562 138.677 81.5264 134.253 86.1553C129.858 90.7842 124.292 93.0254 117.554 92.8789ZM130.605 52.1855C130.869 50.1348 131.016 48.333 131.045 46.7803C131.045 41.4189 129.346 38.6504 125.947 38.4746C120.732 38.2109 117.495 42.6787 116.235 51.8779L113.906 67.6982C113.613 70.1299 113.467 71.9316 113.467 73.1035C113.32 78.5234 115.005 81.3359 118.521 81.541C123.823 81.8047 127.09 77.2197 128.32 67.7861L130.605 52.1855Z" fill="#EF3829"/>
<path d="M76.1133 92V95H78.6527L79.0721 92.4955L76.1133 92ZM61.6113 92L58.6557 91.4862L58.0448 95H61.6113V92ZM69.7852 44.9785L72.7408 45.4923L73.5579 40.7922L68.9677 42.092L69.7852 44.9785ZM54.8877 49.1973L51.9313 48.6879L51.1226 53.3815L55.7051 52.0838L54.8877 49.1973ZM56.9092 37.4639L55.9592 34.6183L54.2574 35.1864L53.9527 36.9545L56.9092 37.4639ZM85.21 28.0156L85.1289 25.0167L84.683 25.0288L84.26 25.17L85.21 28.0156ZM86.8359 27.9717L89.7947 28.4672L90.3964 24.8744L86.7549 24.9728L86.8359 27.9717ZM76.1133 89H61.6113V95H76.1133V89ZM64.567 92.5138L72.7408 45.4923L66.8295 44.4647L58.6557 91.4862L64.567 92.5138ZM68.9677 42.092L54.0703 46.3108L55.7051 52.0838L70.6026 47.865L68.9677 42.092ZM57.8441 49.7066L59.8656 37.9732L53.9527 36.9545L51.9313 48.6879L57.8441 49.7066ZM57.8592 40.3095L86.16 30.8612L84.26 25.17L55.9592 34.6183L57.8592 40.3095ZM85.291 31.0145L86.917 30.9706L86.7549 24.9728L85.1289 25.0167L85.291 31.0145ZM83.8771 27.4762L73.1545 91.5045L79.0721 92.4955L89.7947 28.4672L83.8771 27.4762ZM117.554 92.8789L117.481 95.878L117.489 95.8782L117.554 92.8789ZM108.018 90.3301L106.458 92.8927L106.474 92.9026L106.49 92.9123L108.018 90.3301ZM101.777 83.167L99.0549 84.4274L99.0594 84.437L101.777 83.167ZM99.4043 72.4004L102.403 72.3128L102.403 72.2958L102.402 72.2789L99.4043 72.4004ZM99.668 65.8525L96.701 65.4087L96.6945 65.4518L96.6893 65.4951L99.668 65.8525ZM101.338 54.6904L98.371 54.2459L98.3709 54.2466L101.338 54.6904ZM109.995 34.0801L112.19 36.1256L112.196 36.1188L109.995 34.0801ZM126.914 27.1367L126.85 30.136L126.851 30.1361L126.914 27.1367ZM139.966 32.7617L137.695 34.7216L137.704 34.7321L139.966 32.7617ZM145.063 47.6152L148.062 47.5342L148.062 47.5187L148.061 47.5032L145.063 47.6152ZM144.756 54.1631L147.721 54.621L147.728 54.5709L147.734 54.5205L144.756 54.1631ZM142.998 65.5449L140.033 65.087L140.033 65.0873L142.998 65.5449ZM134.253 86.1553L132.084 84.0825L132.077 84.0897L134.253 86.1553ZM130.605 52.1855L133.574 52.6203L133.578 52.5943L133.581 52.5681L130.605 52.1855ZM131.045 46.7803L134.044 46.8369L134.045 46.8086V46.7803H131.045ZM125.947 38.4746L126.102 35.4786L126.099 35.4784L125.947 38.4746ZM116.235 51.8779L119.203 52.3149L119.206 52.2999L119.208 52.285L116.235 51.8779ZM113.906 67.6982L110.938 67.2613L110.933 67.3003L110.928 67.3394L113.906 67.6982ZM113.467 73.1035L116.466 73.1846L116.467 73.144V73.1035H113.467ZM118.521 81.541L118.346 84.5359L118.359 84.5367L118.372 84.5373L118.521 81.541ZM128.32 67.7861L125.352 67.3513L125.349 67.3747L125.346 67.3981L128.32 67.7861ZM117.626 89.8798C114.429 89.8024 111.766 89.0617 109.545 87.7479L106.49 92.9123C109.718 94.8211 113.413 95.7796 117.481 95.878L117.626 89.8798ZM109.577 87.7675C107.436 86.4638 105.735 84.5501 104.495 81.8969L99.0594 84.437C100.749 88.0534 103.209 90.9152 106.458 92.8927L109.577 87.7675ZM104.5 81.9066C103.229 79.1624 102.51 75.9819 102.403 72.3128L96.4056 72.4879C96.5328 76.8462 97.3957 80.8434 99.0549 84.4274L104.5 81.9066ZM102.402 72.2789C102.321 70.274 102.402 68.2515 102.647 66.21L96.6893 65.4951C96.407 67.8481 96.3123 70.1909 96.4068 72.5219L102.402 72.2789ZM102.635 66.2964L104.305 55.1343L98.3709 54.2466L96.701 65.4087L102.635 66.2964ZM104.305 55.135C105.597 46.5077 108.315 40.2828 112.19 36.1256L107.801 32.0346C102.828 37.3695 99.7736 44.8848 98.371 54.2459L104.305 55.135ZM112.196 36.1188C116.002 32.0098 120.8 30.0068 126.85 30.136L126.978 24.1374C119.317 23.9737 112.835 26.5996 107.794 32.0413L112.196 36.1188ZM126.851 30.1361C131.717 30.2385 135.206 31.838 137.695 34.7216L142.237 30.8018C138.456 26.4198 133.244 24.2693 126.977 24.1374L126.851 30.1361ZM137.704 34.7321C140.297 37.7092 141.849 41.9337 142.066 47.7273L148.061 47.5032C147.809 40.7577 145.963 35.0798 142.228 30.7914L137.704 34.7321ZM142.065 47.6963C142.119 49.7148 142.024 51.7509 141.777 53.8057L147.734 54.5205C148.015 52.1808 148.125 49.8516 148.062 47.5342L142.065 47.6963ZM141.791 53.7052L140.033 65.087L145.963 66.0028L147.721 54.621L141.791 53.7052ZM140.033 65.0873C138.681 73.8473 135.934 80.054 132.084 84.0825L136.422 88.228C141.419 82.9987 144.502 75.4652 145.963 66.0025L140.033 65.0873ZM132.077 84.0897C128.301 88.0679 123.565 90.0089 117.619 89.8796L117.489 95.8782C125.019 96.0419 131.416 93.5005 136.429 88.2208L132.077 84.0897ZM133.581 52.5681C133.854 50.4422 134.012 48.5275 134.044 46.8369L128.045 46.7237C128.019 48.1386 127.884 49.8273 127.63 51.803L133.581 52.5681ZM134.045 46.7803C134.045 43.8682 133.599 41.1849 132.327 39.1136C130.932 36.8407 128.732 35.6147 126.102 35.4786L125.792 41.4706C126.561 41.5103 126.909 41.7565 127.214 42.2521C127.642 42.9494 128.045 44.331 128.045 46.7803H134.045ZM126.099 35.4784C122.41 35.2919 119.353 36.8673 117.179 39.8674C115.136 42.6864 113.92 46.6755 113.263 51.4709L119.208 52.285C119.811 47.8812 120.843 45.0368 122.037 43.3879C123.101 41.9203 124.269 41.3936 125.796 41.4708L126.099 35.4784ZM113.267 51.441L110.938 67.2613L116.874 68.1352L119.203 52.3149L113.267 51.441ZM110.928 67.3394C110.632 69.791 110.467 71.7418 110.467 73.1035H116.467C116.467 72.1214 116.594 70.4687 116.885 68.0571L110.928 67.3394ZM110.468 73.0225C110.388 75.9681 110.777 78.6994 112.047 80.8193C113.442 83.1492 115.684 84.3807 118.346 84.5359L118.695 78.5461C117.841 78.4963 117.483 78.219 117.194 77.7363C116.779 77.0438 116.399 75.6589 116.466 73.1846L110.468 73.0225ZM118.372 84.5373C122.116 84.7235 125.207 83.106 127.391 80.0408C129.443 77.1607 130.655 73.0839 131.295 68.1742L125.346 67.3981C124.755 71.922 123.719 74.8544 122.504 76.5593C121.421 78.0791 120.227 78.6222 118.669 78.5447L118.372 84.5373ZM131.289 68.2209L133.574 52.6203L127.637 51.7508L125.352 67.3513L131.289 68.2209Z" fill="#EF3829"/>
</g>
<defs>
<filter id="filter0_f" x="8" y="81" width="156" height="26" filterUnits="userSpaceOnUse" color-interpolation-filters="sRGB">
<feFlood flood-opacity="0" result="BackgroundImageFix"/>
<feBlend mode="normal" in="SourceGraphic" in2="BackgroundImageFix" result="shape"/>
<feGaussianBlur stdDeviation="5" result="effect1_foregroundBlur"/>
</filter>
<clipPath id="clip0">
<rect width="277" height="105.82" fill="white"/>
</clipPath>
</defs>
</svg>
