<svg width="277" height="106" viewBox="0 0 277 106" fill="none" xmlns="http://www.w3.org/2000/svg">
<g clip-path="url(#clip0)">
<g filter="url(#filter0_f)">
<ellipse cx="101" cy="94" rx="68" ry="3" fill="#C4C4C4" fill-opacity="0.5"/>
</g>
<path d="M58.1133 92H43.6113L51.7852 44.9785L36.8877 49.1973L38.9092 37.4639L67.21 28.0156L68.8359 27.9717L58.1133 92ZM109.09 92H94.5879L102.762 44.9785L87.8643 49.1973L89.8857 37.4639L118.187 28.0156L119.812 27.9717L109.09 92ZM134.271 60.5352L143.147 28.0156H179.622L177.776 39.5293H153.299L149.388 52.3174C151.761 50.7939 154.705 50.0029 158.221 49.9443C163.846 49.9443 168.167 51.8926 171.185 55.7891C174.231 59.6855 175.491 64.7832 174.964 71.082C174.437 77.5859 171.902 82.8887 167.361 86.9902C162.82 91.0625 157.327 93.04 150.882 92.9229C147.103 92.835 143.66 91.9561 140.555 90.2861C137.479 88.6162 135.091 86.3457 133.392 83.4746C131.692 80.5742 130.857 77.3369 130.887 73.7627H145.301C145.359 76.0479 145.931 77.8789 147.015 79.2559C148.099 80.6328 149.622 81.3506 151.585 81.4092C153.987 81.4971 155.979 80.6035 157.562 78.7285C159.144 76.8242 160.154 73.9385 160.594 70.0713C160.887 66.8193 160.447 64.3584 159.275 62.6885C158.104 60.9893 156.272 60.1396 153.782 60.1396C150.589 60.1396 147.996 61.2236 146.004 63.3916L134.271 60.5352Z" fill="#EF3829"/>
<path d="M58.1133 92V95H60.6527L61.0721 92.4955L58.1133 92ZM43.6113 92L40.6557 91.4862L40.0448 95H43.6113V92ZM51.7852 44.9785L54.7408 45.4923L55.5579 40.7922L50.9677 42.092L51.7852 44.9785ZM36.8877 49.1973L33.9313 48.6879L33.1226 53.3815L37.7051 52.0838L36.8877 49.1973ZM38.9092 37.4639L37.9592 34.6183L36.2574 35.1864L35.9527 36.9545L38.9092 37.4639ZM67.21 28.0156L67.1289 25.0167L66.683 25.0288L66.26 25.17L67.21 28.0156ZM68.8359 27.9717L71.7947 28.4672L72.3964 24.8744L68.7549 24.9728L68.8359 27.9717ZM58.1133 89H43.6113V95H58.1133V89ZM46.567 92.5138L54.7408 45.4923L48.8295 44.4647L40.6557 91.4862L46.567 92.5138ZM50.9677 42.092L36.0703 46.3108L37.7051 52.0838L52.6026 47.865L50.9677 42.092ZM39.8441 49.7066L41.8656 37.9732L35.9527 36.9545L33.9313 48.6879L39.8441 49.7066ZM39.8592 40.3095L68.16 30.8612L66.26 25.17L37.9592 34.6183L39.8592 40.3095ZM67.291 31.0145L68.917 30.9706L68.7549 24.9728L67.1289 25.0167L67.291 31.0145ZM65.8771 27.4762L55.1545 91.5045L61.0721 92.4955L71.7947 28.4672L65.8771 27.4762ZM109.09 92V95H111.629L112.049 92.4955L109.09 92ZM94.5879 92L91.6322 91.4862L91.0214 95H94.5879V92ZM102.762 44.9785L105.717 45.4923L106.534 40.7922L101.944 42.092L102.762 44.9785ZM87.8643 49.1973L84.9078 48.6879L84.0992 53.3815L88.6817 52.0838L87.8643 49.1973ZM89.8857 37.4639L88.9357 34.6183L87.2339 35.1864L86.9293 36.9545L89.8857 37.4639ZM118.187 28.0156L118.105 25.0167L117.66 25.0288L117.237 25.17L118.187 28.0156ZM119.812 27.9717L122.771 28.4672L123.373 24.8744L119.731 24.9728L119.812 27.9717ZM109.09 89H94.5879V95H109.09V89ZM97.5436 92.5138L105.717 45.4923L99.806 44.4647L91.6322 91.4862L97.5436 92.5138ZM101.944 42.092L87.0468 46.3108L88.6817 52.0838L103.579 47.865L101.944 42.092ZM90.8207 49.7066L92.8422 37.9732L86.9293 36.9545L84.9078 48.6879L90.8207 49.7066ZM90.8358 40.3095L119.137 30.8612L117.237 25.17L88.9357 34.6183L90.8358 40.3095ZM118.268 31.0145L119.894 30.9706L119.731 24.9728L118.105 25.0167L118.268 31.0145ZM116.854 27.4762L106.131 91.5045L112.049 92.4955L122.771 28.4672L116.854 27.4762ZM134.271 60.5352L131.376 59.7451L130.564 62.7205L133.561 63.45L134.271 60.5352ZM143.147 28.0156V25.0156H140.857L140.253 27.2256L143.147 28.0156ZM179.622 28.0156L182.584 28.4905L183.141 25.0156H179.622V28.0156ZM177.776 39.5293V42.5293H180.334L180.739 40.0042L177.776 39.5293ZM153.299 39.5293V36.5293H151.079L150.43 38.6519L153.299 39.5293ZM149.388 52.3174L146.519 51.44L144.127 59.2594L151.008 54.8419L149.388 52.3174ZM158.221 49.9443V46.9443H158.196L158.171 46.9448L158.221 49.9443ZM171.185 55.7891L168.813 57.626L168.821 57.637L171.185 55.7891ZM174.964 71.082L171.974 70.8317L171.974 70.8396L174.964 71.082ZM167.361 86.9902L169.364 89.2237L169.372 89.2165L167.361 86.9902ZM150.882 92.9229L150.812 95.922L150.82 95.9222L150.827 95.9224L150.882 92.9229ZM140.555 90.2861L139.123 92.9227L139.134 92.9283L140.555 90.2861ZM133.392 83.4746L130.803 84.9911L130.81 85.0026L133.392 83.4746ZM130.887 73.7627V70.7627H127.911L127.887 73.7381L130.887 73.7627ZM145.301 73.7627L148.3 73.6858L148.225 70.7627H145.301V73.7627ZM151.585 81.4092L151.695 78.4112L151.685 78.4108L151.674 78.4105L151.585 81.4092ZM157.562 78.7285L159.854 80.6631L159.862 80.6544L159.869 80.6456L157.562 78.7285ZM160.594 70.0713L163.575 70.41L163.579 70.3753L163.582 70.3405L160.594 70.0713ZM159.275 62.6885L156.806 64.3917L156.813 64.4017L156.82 64.4118L159.275 62.6885ZM146.004 63.3916L145.294 66.3065L147.015 66.7253L148.213 65.4215L146.004 63.3916ZM137.165 61.3252L146.042 28.8056L140.253 27.2256L131.376 59.7451L137.165 61.3252ZM143.147 31.0156H179.622V25.0156H143.147V31.0156ZM176.66 27.5408L174.814 39.0544L180.739 40.0042L182.584 28.4905L176.66 27.5408ZM177.776 36.5293H153.299V42.5293H177.776V36.5293ZM150.43 38.6519L146.519 51.44L152.257 53.1948L156.168 40.4067L150.43 38.6519ZM151.008 54.8419C152.809 53.686 155.176 52.9955 158.271 52.9439L158.171 46.9448C154.235 47.0104 150.713 47.9019 147.767 49.7928L151.008 54.8419ZM158.221 52.9443C163.067 52.9443 166.449 54.5733 168.813 57.6259L173.556 53.9522C169.885 49.2118 164.625 46.9443 158.221 46.9443V52.9443ZM168.821 57.637C171.284 60.7862 172.457 65.0693 171.974 70.8317L177.953 71.3323C178.526 64.4971 177.179 58.5849 173.548 53.9411L168.821 57.637ZM171.974 70.8396C171.504 76.6371 169.284 81.2109 165.35 84.7639L169.372 89.2165C174.521 84.5665 177.369 78.5348 177.954 71.3245L171.974 70.8396ZM165.358 84.7568C161.416 88.2921 156.671 90.0276 150.936 89.9233L150.827 95.9224C157.983 96.0525 164.225 93.8329 169.364 89.2237L165.358 84.7568ZM150.952 89.9237C147.61 89.8459 144.635 89.0742 141.976 87.6439L139.134 92.9283C142.685 94.8379 146.595 95.824 150.812 95.922L150.952 89.9237ZM141.986 87.6496C139.362 86.2251 137.382 84.3276 135.973 81.9466L130.81 85.0026C132.799 88.3638 135.595 91.0073 139.123 92.9227L141.986 87.6496ZM135.98 81.9581C134.572 79.5547 133.861 76.8557 133.887 73.7873L127.887 73.7381C127.853 77.8181 128.813 81.5937 130.803 84.9911L135.98 81.9581ZM130.887 76.7627H145.301V70.7627H130.887V76.7627ZM142.302 73.8396C142.372 76.5745 143.067 79.0908 144.657 81.1115L149.372 77.4002C148.795 76.667 148.347 75.5212 148.3 73.6858L142.302 73.8396ZM144.657 81.1115C146.361 83.2759 148.765 84.3263 151.495 84.4078L151.674 78.4105C150.479 78.3748 149.836 77.9897 149.372 77.4002L144.657 81.1115ZM151.475 84.4072C154.821 84.5296 157.692 83.2262 159.854 80.6631L155.269 76.7939C154.267 77.9809 153.153 78.4646 151.695 78.4112L151.475 84.4072ZM159.869 80.6456C161.981 78.1029 163.104 74.5524 163.575 70.41L157.613 69.7326C157.205 73.3246 156.306 75.5456 155.254 76.8115L159.869 80.6456ZM163.582 70.3405C163.902 66.7808 163.493 63.4753 161.731 60.9652L156.82 64.4118C157.402 65.2415 157.871 66.8579 157.606 69.8021L163.582 70.3405ZM161.745 60.9853C159.893 58.3001 157.027 57.1396 153.782 57.1396V63.1396C155.518 63.1396 156.314 63.6784 156.806 64.3917L161.745 60.9853ZM153.782 57.1396C149.829 57.1396 146.407 58.5193 143.795 61.3617L148.213 65.4215C149.585 63.9279 151.349 63.1396 153.782 63.1396V57.1396ZM146.714 60.4767L134.98 57.6203L133.561 63.45L145.294 66.3065L146.714 60.4767Z" fill="#EF3829"/>
<path d="M200.71 88.3779C199.909 89.3154 198.742 90.043 197.209 90.5605C195.676 91.0684 193.977 91.3076 192.111 91.2783C190.324 91.2588 188.815 90.8096 187.585 89.9307C186.354 89.0518 185.476 87.8262 184.948 86.2539C184.421 84.6816 184.279 82.9092 184.523 80.9365L184.641 80.0576C185.09 76.7471 186.252 74.125 188.127 72.1914C190.012 70.2578 192.316 69.3154 195.041 69.3643C197.424 69.4033 199.255 70.043 200.534 71.2832C201.813 72.5234 202.526 74.3154 202.673 76.6592L197.868 76.6445C197.8 75.502 197.517 74.667 197.019 74.1396C196.53 73.6123 195.832 73.334 194.924 73.3047C193.576 73.2559 192.463 73.7881 191.584 74.9014C190.705 76.0049 190.104 77.5869 189.782 79.6475C189.509 81.4053 189.411 82.7725 189.489 83.749C189.636 86.1025 190.695 87.2939 192.668 87.3232C193.859 87.3428 194.904 87.0547 195.803 86.459L196.462 83.1338H192.99L193.605 79.6035H202.087L200.71 88.3779ZM208.356 91H203.347L207.053 69.6719H212.048L208.356 91ZM229.626 88.3779C228.825 89.3154 227.658 90.043 226.125 90.5605C224.592 91.0684 222.893 91.3076 221.027 91.2783C219.24 91.2588 217.731 90.8096 216.501 89.9307C215.271 89.0518 214.392 87.8262 213.864 86.2539C213.337 84.6816 213.195 82.9092 213.439 80.9365L213.557 80.0576C214.006 76.7471 215.168 74.125 217.043 72.1914C218.928 70.2578 221.232 69.3154 223.957 69.3643C226.34 69.4033 228.171 70.043 229.45 71.2832C230.729 72.5234 231.442 74.3154 231.589 76.6592L226.784 76.6445C226.716 75.502 226.433 74.667 225.935 74.1396C225.446 73.6123 224.748 73.334 223.84 73.3047C222.492 73.2559 221.379 73.7881 220.5 74.9014C219.621 76.0049 219.021 77.5869 218.698 79.6475C218.425 81.4053 218.327 82.7725 218.405 83.749C218.552 86.1025 219.611 87.2939 221.584 87.3232C222.775 87.3428 223.82 87.0547 224.719 86.459L225.378 83.1338H221.906L222.521 79.6035H231.003L229.626 88.3779ZM244.45 87.0156H237.639L235.749 91H230.227L241.521 69.6719H246.237L250.178 91H244.963L244.45 87.0156ZM239.514 83.0459H243.938L243 75.6924L239.514 83.0459ZM263.625 85.2285C263.84 84.125 263.244 83.2705 261.838 82.665L259.436 81.6689C256.066 80.1553 254.465 78.0947 254.631 75.4873C254.699 74.2959 255.109 73.2363 255.861 72.3086C256.613 71.3711 257.653 70.6436 258.981 70.126C260.31 69.6084 261.76 69.3594 263.332 69.3789C265.441 69.418 267.136 70.0332 268.415 71.2246C269.704 72.416 270.339 74.0127 270.319 76.0146H265.339C265.368 75.1943 265.192 74.54 264.812 74.0518C264.44 73.5537 263.825 73.2949 262.966 73.2754C262.126 73.2559 261.384 73.4512 260.739 73.8613C260.095 74.2715 259.714 74.8232 259.597 75.5166C259.411 76.4932 260.134 77.2939 261.765 77.9189C263.405 78.5439 264.597 79.0811 265.339 79.5303C267.673 80.9268 268.767 82.8115 268.62 85.1846C268.542 86.415 268.146 87.4941 267.434 88.4219C266.721 89.3496 265.729 90.0674 264.46 90.5752C263.2 91.083 261.784 91.3271 260.212 91.3076C259.06 91.2881 257.99 91.1074 257.004 90.7656C256.018 90.4238 255.173 89.9258 254.47 89.2715C253.044 87.9531 252.36 86.2197 252.419 84.0713L257.443 84.0859C257.385 85.1797 257.595 86.0098 258.073 86.5762C258.552 87.1328 259.357 87.4111 260.49 87.4111C261.33 87.4111 262.028 87.2207 262.585 86.8398C263.151 86.4492 263.498 85.9121 263.625 85.2285Z" fill="url(#paint0_linear)"/>
<g clip-path="url(#clip1)">
<path d="M45.0542 91.4114L45.1177 90.8465L45.9139 83.5755L44.7184 83.5058C44.6642 83.4835 44.6101 83.4612 44.5591 83.4825L44.5336 83.4931L30.3358 82.6544L31.5277 94.9437L44.6381 95.0395L45.0542 91.4114Z" fill="#262C38"/>
<path d="M39.6538 83.1958C39.9126 85.6451 40.577 91.8285 40.9262 95.0327L34.7607 94.9868L36.9113 83.0384L39.6538 83.1958Z" fill="#00F0E9"/>
<path opacity="0.19" d="M30.3358 82.6549L45.9033 83.5505L45.429 87.9356C40.5396 87.5071 35.6246 87.0892 30.7352 86.6607L30.3358 82.6549Z" fill="#248D8A"/>
<path d="M48.3648 80.9542L46.5165 84.9851L29.2057 84.4277L27.6341 80.1929L48.3648 80.9542Z" fill="#262C38"/>
<path d="M40.4578 80.6763L39.8231 84.7844L36.6198 84.6696L36.3849 80.5204L40.4578 80.6763Z" fill="#4D8493"/>
<path d="M38.7229 80.533C40.5757 80.4931 42.4177 80.0689 44.0748 79.2731C44.785 78.9321 45.5217 78.4753 45.7285 77.7161C45.9502 76.9208 45.5305 76.0939 45.1279 75.3794C45.0174 75.1862 44.9069 74.993 44.789 74.8179C44.4247 74.2669 43.9765 73.7659 43.3511 73.5931C42.3604 73.3332 41.0377 74.0344 40.3488 74.7853C39.0147 76.2838 38.8338 78.4678 38.7091 80.4639C38.7378 80.4968 38.7304 80.5149 38.7229 80.533ZM38.9224 80.1507C39.4169 79.2565 40.1711 77.0128 43.3388 75.2133C43.444 75.5732 42.6671 76.4355 42.6056 76.7902C42.454 77.4666 42.0348 78.0751 41.537 78.5668C40.8046 79.3209 39.9076 79.8594 38.9224 80.1507Z" fill="#00F0E9"/>
<path d="M38.9224 80.1502C39.897 79.8335 40.812 79.3023 41.5295 78.5844C42.0273 78.0926 42.4465 77.4841 42.5982 76.8078C42.6851 76.4425 42.6744 76.0581 42.5692 75.6983C43.2591 75.2011 44.0129 74.8569 44.807 74.8248C44.9249 75 45.0354 75.1932 45.1459 75.3864C45.5666 76.1082 45.9862 76.9352 45.7465 77.7231C45.5217 78.4749 44.803 78.9391 44.0928 79.2801C42.4176 80.0684 40.5756 80.4926 38.741 80.5399C38.7229 80.5325 38.8004 80.3955 38.9224 80.1502Z" fill="#4D8493"/>
<path d="M31.532 78.2074C31.7966 78.9494 32.5792 79.3559 33.3013 79.6529C35.0236 80.3404 36.8839 80.6414 38.7334 80.558C38.4812 78.5545 37.7776 76.3655 36.3523 74.9559C35.6344 74.2384 34.6075 73.6048 33.6435 73.947C33.0288 74.1585 32.6213 74.6874 32.2966 75.2714C32.1968 75.4626 32.0897 75.6718 31.9899 75.8629C31.6132 76.5733 31.2461 77.4143 31.532 78.2074ZM34.5625 75.9715C36.4326 77.1208 37.941 79.3032 38.487 80.1822C37.4889 79.9404 36.5618 79.4746 35.7855 78.7964C35.2608 78.3273 34.7988 77.7573 34.5916 77.081C34.5044 76.7285 34.4756 76.3367 34.5625 75.9715Z" fill="#00F0E9"/>
<path d="M38.5126 80.1718C37.5145 79.93 36.5875 79.4642 35.8111 78.786C35.2865 78.3169 34.8245 77.7469 34.6172 77.0706C34.512 76.7107 34.5013 76.3263 34.5702 75.9537C33.8459 75.5079 33.0803 75.2141 32.2755 75.2207C32.1758 75.4118 32.0686 75.621 31.9689 75.8122C31.6028 76.5481 31.2282 77.4071 31.5141 78.2002C31.7787 78.9423 32.5613 79.3487 33.2834 79.6457C35.0058 80.3332 36.866 80.6342 38.7155 80.5508C38.723 80.5327 38.6518 80.3979 38.5126 80.1718Z" fill="#4D8493"/>
<path d="M38.6645 80.5727C39.019 80.2753 39.8854 80.2729 40.2857 80.4798C40.6967 80.7122 40.9867 81.0848 41.2331 81.4606C41.4721 81.8544 41.7037 82.2663 42.0266 82.6102C42.4822 83.0931 43.1172 83.3966 43.7692 83.4537C43.0855 83.679 42.5888 84.4245 41.8488 84.4789C41.2574 84.5311 40.7253 84.08 40.4077 83.5694C40.1156 83.0482 39.9838 82.4452 39.768 81.8921C39.5778 81.3284 39.2315 80.7849 38.6645 80.5727Z" fill="#00F0E9"/>
<g opacity="0.25">
<path opacity="0.25" d="M38.6645 80.5727C39.019 80.2753 39.8854 80.2729 40.2857 80.4798C40.6967 80.7122 40.9867 81.0848 41.2331 81.4606C41.4721 81.8544 41.7037 82.2663 42.0266 82.6102C42.4822 83.0931 43.1172 83.3966 43.7692 83.4537C43.0855 83.679 42.5888 84.4245 41.8488 84.4789C41.2574 84.5311 40.7253 84.08 40.4077 83.5694C40.1156 83.0482 39.9838 82.4452 39.768 81.8921C39.5778 81.3284 39.2315 80.7849 38.6645 80.5727Z" fill="#00F0E9"/>
</g>
<path d="M43.6391 81.5643C43.9151 81.509 43.8396 81.0769 43.5636 81.1322C43.2875 81.1875 43.3631 81.6196 43.6391 81.5643Z" fill="#3CBCB5"/>
<path d="M45.8024 83.1286C46.1219 83.0701 46.0252 82.587 45.7056 82.6455C45.4041 82.7114 45.5009 83.1945 45.8024 83.1286Z" fill="#3CBCB5"/>
<path d="M46.6047 81.8964C46.6153 81.9219 46.6259 81.9474 46.6546 81.9803C46.7045 82.0642 46.7799 82.1374 46.8299 82.2213C46.8766 82.2616 46.9233 82.3019 46.9849 82.3061C47.0465 82.3104 47.1155 82.2965 47.1558 82.2498C47.1813 82.2392 47.1961 82.2031 47.2036 82.185C47.2184 82.1489 47.2259 82.1309 47.2407 82.0948C47.2556 82.0587 47.2449 82.0332 47.2343 82.0077C47.2237 81.9822 47.2131 81.9568 47.1844 81.9239C47.1345 81.84 47.059 81.7668 47.0017 81.7009C46.955 81.6606 46.9008 81.6383 46.8467 81.6161C46.7851 81.6118 46.7341 81.6331 46.6757 81.6724C46.6503 81.683 46.6354 81.7191 46.628 81.7372C46.6131 81.7733 46.6057 81.7913 46.5908 81.8274C46.5908 81.8274 46.594 81.8709 46.6047 81.8964Z" fill="#3CBCB5"/>
<path d="M31.8712 82.8215C32.1473 82.7662 32.0717 82.3341 31.7957 82.3894C31.5016 82.4373 31.5952 82.8768 31.8712 82.8215Z" fill="#3CBCB5"/>
<path d="M33.783 81.9203C34.1025 81.8618 34.0058 81.3787 33.6862 81.4372C33.3741 81.4776 33.4634 81.9787 33.783 81.9203Z" fill="#3CBCB5"/>
<path d="M34.8553 81.622C34.8659 81.6475 34.8766 81.673 34.9052 81.7059C34.9552 81.7897 35.0306 81.863 35.0805 81.9468C35.1272 81.9872 35.174 82.0275 35.2355 82.0317C35.2971 82.036 35.3661 82.0221 35.4065 81.9754C35.4319 81.9648 35.4468 81.9287 35.4542 81.9106C35.4691 81.8745 35.4765 81.8565 35.4913 81.8204C35.5062 81.7843 35.4956 81.7588 35.485 81.7333C35.4743 81.7078 35.4637 81.6823 35.435 81.6494C35.3851 81.5656 35.3097 81.4923 35.2523 81.4265C35.2056 81.3862 35.1515 81.3639 35.0973 81.3416C35.0357 81.3374 34.9848 81.3587 34.9264 81.398C34.9009 81.4086 34.886 81.4447 34.8786 81.4627C34.8638 81.4988 34.8563 81.5169 34.8415 81.553C34.8415 81.553 34.8521 81.5785 34.8553 81.622Z" fill="#3CBCB5"/>
<path d="M29.7919 81.5651C29.4724 81.6236 29.5691 82.1067 29.8887 82.0482C30.1902 81.9823 30.0934 81.4992 29.7919 81.5651Z" fill="#3CBCB5"/>
<path d="M31.432 83.9918C31.4787 84.0321 31.5254 84.0724 31.587 84.0767C31.6486 84.0809 31.7176 84.0671 31.7579 84.0203C31.7834 84.0097 31.7983 83.9736 31.8057 83.9555C31.8205 83.9194 31.828 83.9014 31.8428 83.8653C31.8577 83.8292 31.847 83.8037 31.8364 83.7782C31.8258 83.7527 31.8152 83.7273 31.7865 83.6944C31.7366 83.6105 31.6612 83.5373 31.6038 83.4715C31.5571 83.4311 31.5029 83.4088 31.4488 83.3866C31.3872 83.3823 31.3362 83.4036 31.2778 83.4429C31.2524 83.4535 31.2375 83.4896 31.2301 83.5077C31.2152 83.5438 31.2078 83.5618 31.193 83.5979C31.1781 83.634 31.1887 83.6595 31.1993 83.685C31.21 83.7105 31.2206 83.7359 31.2493 83.7689C31.3141 83.8166 31.382 83.9079 31.432 83.9918Z" fill="#3CBCB5"/>
<path d="M38.7951 80.5625C38.417 80.3015 37.5613 80.3293 37.16 80.5864C36.7662 80.8254 36.4977 81.2215 36.2833 81.6399C36.0509 82.0509 35.8546 82.4767 35.5649 82.8219C35.1467 83.3252 34.5342 83.6854 33.8664 83.7694C34.5715 83.954 35.1047 84.6588 35.8404 84.666C36.4276 84.6754 36.9435 84.1911 37.2024 83.6644C37.4687 83.1196 37.5471 82.5187 37.7338 81.9622C37.9279 81.3878 38.2526 80.8037 38.7951 80.5625Z" fill="#00F0E9"/>
<g opacity="0.25">
<path opacity="0.25" d="M38.7951 80.5625C38.417 80.3015 37.5613 80.3293 37.16 80.5864C36.7662 80.8254 36.4977 81.2215 36.2833 81.6399C36.0509 82.0509 35.8546 82.4767 35.5649 82.8219C35.1467 83.3252 34.5342 83.6854 33.8664 83.7694C34.5715 83.954 35.1047 84.6588 35.8404 84.666C36.4276 84.6754 36.9435 84.1911 37.2024 83.6644C37.4687 83.1196 37.5471 82.5187 37.7338 81.9622C37.9279 81.3878 38.2526 80.8037 38.7951 80.5625Z" fill="#00F0E9"/>
</g>
<path d="M38.0975 80.3603C38.158 80.1108 38.3202 79.4599 38.5888 79.4227C38.9265 79.3716 39.2017 80.1391 39.2209 80.4003C39.2689 81.0533 37.9056 81.0834 38.0975 80.3603Z" fill="#ABCDD6"/>
</g>
<g clip-path="url(#clip2)">
<path d="M25.8756 95.1111C26.1842 95.4245 26.4771 95.7534 26.7699 96.0823C26.9551 96.2703 27.1248 96.4427 27.3099 96.6308C27.3716 96.6934 27.4644 96.7564 27.4012 96.8803C27.3224 97.0196 27.1985 96.9564 27.1209 96.9403C26.5004 96.7488 25.8955 96.5419 25.2907 96.335C25.2441 96.3191 25.1976 96.3032 25.1357 96.2716C24.9939 96.5037 24.8521 96.7359 24.7103 96.968C24.5686 97.2002 24.3957 97.4321 24.2539 97.6642C24.1753 97.7724 24.0663 97.7871 23.9892 97.7088C23.9275 97.6461 23.9126 97.5682 23.8822 97.4747C23.807 97.1475 23.7164 96.8047 23.6726 96.4467C23.6432 96.2288 23.5508 96.1037 23.3491 96.0554C23.0077 95.9594 22.682 95.848 22.3718 95.7523C22.2633 95.7048 22.1702 95.673 22.0774 95.61C21.8918 95.4842 21.9398 95.3135 22.1585 95.1908C22.2523 95.1293 22.3612 95.1146 22.4704 95.0688C22.8603 94.932 23.2501 94.7951 23.6399 94.6582C23.9051 94.5514 23.9208 94.536 23.923 94.2561C23.9418 93.8364 23.9764 93.4012 23.9798 92.9658C23.98 92.9347 23.9648 92.888 23.9808 92.8414C24.028 92.7641 24.0601 92.6399 24.138 92.625C24.2004 92.5944 24.3245 92.6264 24.3706 92.7045C24.4938 92.861 24.5858 93.0172 24.6933 93.1891C24.878 93.4394 25.0626 93.6897 25.2473 93.9399C25.3396 94.065 25.4483 94.0814 25.62 94.005C25.9476 93.8677 26.275 93.7614 26.6181 93.6397C26.7273 93.5939 26.8206 93.5946 26.8975 93.7041C26.9589 93.7978 26.896 93.8906 26.8176 93.9678C26.4883 94.3229 26.1898 94.7093 25.8756 95.1111Z" fill="#00F0E9"/>
</g>
<g clip-path="url(#clip3)">
<path d="M213.105 59.6199C213.105 59.079 213.132 58.5381 213.159 57.9971C213.159 57.6726 213.159 57.3751 213.159 57.0505C213.159 56.9423 213.132 56.8071 213.295 56.753C213.484 56.6989 213.538 56.8612 213.592 56.9423C213.971 57.6455 214.322 58.3488 214.674 59.052C214.701 59.1061 214.728 59.1601 214.755 59.2413C215.08 59.1601 215.404 59.079 215.729 58.9979C216.053 58.9167 216.405 58.8626 216.73 58.7815C216.892 58.7544 217 58.8356 217 58.9708C217 59.079 216.946 59.1601 216.892 59.2683C216.675 59.6199 216.459 59.9986 216.189 60.3502C216.026 60.5666 215.999 60.7559 216.135 60.9723C216.351 61.3509 216.54 61.7296 216.73 62.0812C216.784 62.2164 216.838 62.3246 216.865 62.4598C216.919 62.7303 216.73 62.8385 216.432 62.7573C216.297 62.7303 216.189 62.6492 216.053 62.5951C215.594 62.3787 215.134 62.1623 214.674 61.9459C214.349 61.8107 214.322 61.8107 214.079 62.0541C213.7 62.4057 213.295 62.7573 212.916 63.136C212.889 63.163 212.862 63.2171 212.808 63.2442C212.7 63.2712 212.564 63.3524 212.483 63.2983C212.402 63.2712 212.321 63.136 212.348 63.0278C212.375 62.7844 212.429 62.568 212.483 62.3246C212.537 61.9459 212.591 61.5673 212.646 61.1886C212.673 60.9993 212.591 60.8911 212.375 60.81C211.969 60.6477 211.591 60.4584 211.185 60.2691C211.05 60.215 210.969 60.1338 210.996 59.9715C211.023 59.8363 211.158 59.8093 211.293 59.8093C211.888 59.7822 212.483 59.7011 213.105 59.6199Z" fill="#00F0E9"/>
</g>
<g clip-path="url(#clip4)">
<path d="M215.042 16C214.394 15.9718 214 15.6338 214 15.0704C214 14.4789 214.479 14 215.042 14C215.634 14 216.085 14.4225 216.085 14.9859C216.056 15.5775 215.634 16 215.042 16Z" fill="#262C38"/>
</g>
<g clip-path="url(#clip5)">
<path d="M239.409 31C238.437 30.9577 237.846 30.4507 237.846 29.6056C237.846 28.7183 238.564 28 239.409 28C240.296 28 240.972 28.6338 240.972 29.4789C240.93 30.3662 240.296 31 239.409 31Z" fill="#262C38"/>
</g>
<circle cx="240.5" cy="62.1445" r="1.5" fill="#FF0B53"/>
<path d="M259.648 33.659C256.627 35.0433 253.024 33.723 251.63 30.6807L247.523 32.563L254.823 48.4914C255.669 50.3385 254.857 52.5251 253.01 53.3716C251.163 54.2181 248.976 53.4059 248.13 51.5588C247.283 49.7117 248.096 47.5251 249.943 46.6786C250.29 46.5193 250.702 46.3835 251.077 46.3427L249.155 42.1487C248.788 42.2646 248.43 42.4022 248.061 42.5715C243.932 44.4637 242.119 49.3439 244.011 53.4727C245.903 57.6015 250.783 59.4143 254.912 57.5221C259.041 55.63 260.854 50.7498 258.962 46.621L255.098 38.1895C257.155 38.7193 259.406 38.5818 261.492 37.6257L259.669 33.649L259.648 33.659Z" fill="#FF0B53"/>
<path d="M257.946 33.0457C254.904 34.4399 251.313 33.088 249.929 30.0675L245.822 31.9497L253.122 47.8782C253.968 49.7253 253.156 51.9118 251.309 52.7583C249.462 53.6048 247.275 52.7926 246.429 50.9455C245.582 49.0984 246.394 46.9118 248.241 46.0653C248.589 45.906 249 45.7702 249.376 45.7295L247.454 41.5355C247.086 41.6513 246.729 41.789 246.359 41.9583C242.22 43.8287 240.408 48.7089 242.3 52.8377C244.192 56.9665 249.072 58.7793 253.201 56.8871C257.33 54.995 259.143 50.1148 257.25 45.986L253.386 37.5545C255.444 38.0843 257.694 37.9467 259.781 36.9907L257.968 33.0357L257.946 33.0457Z" fill="#00F0E9"/>
<path d="M258.414 34.0664C256.959 34.3914 255.459 34.1586 254.189 33.4523C252.765 33.158 251.477 32.3549 250.587 31.1588L247.523 32.563L254.823 48.4914C255.669 50.3385 254.857 52.5251 253.01 53.3716C251.793 53.9293 250.408 53.7753 249.373 53.0663C248.126 52.9278 246.986 52.1617 246.419 50.9231C245.572 49.076 246.384 46.8894 248.232 46.0429C248.579 45.8836 248.99 45.7478 249.366 45.7071L247.952 42.6213C243.896 44.5588 242.129 49.3656 244.011 53.4727C244.818 55.2329 246.173 56.5838 247.782 57.3978C249.532 57.8316 251.419 57.7031 253.201 56.8865C257.33 54.9943 259.143 50.1141 257.25 45.9853L253.386 37.5539C255.444 38.0836 257.694 37.9461 259.781 36.99L258.436 34.0564L258.414 34.0664Z" fill="#262C38"/>
<g clip-path="url(#clip6)">
<path d="M24.4791 17.186C24.4733 17.136 24.7344 17.2069 25.0745 17.5214C25.4088 17.7861 25.8719 18.2887 26.1586 19.0142C26.4453 19.7397 26.5613 20.738 26.1724 21.7443C25.7835 22.7507 24.9221 23.6096 23.8705 24.1365C23.3446 24.4 22.7631 24.6193 22.1583 24.639C21.8588 24.6738 21.4979 24.6146 21.1868 24.5496C20.8757 24.4846 20.553 24.3197 20.2803 24.1491C19.7289 23.7579 19.3041 23.1496 19.2728 22.445C19.2357 21.6906 19.6652 21.0336 20.2294 20.6645C20.5114 20.48 20.855 20.3894 21.2601 20.3929C21.6153 20.4022 21.938 20.5671 22.2166 20.7877C22.7238 21.2346 22.9373 21.7662 22.9954 22.2653C23.0975 22.7087 23.0998 23.1638 23.0406 23.5248C22.9813 23.8857 22.9662 24.191 22.8954 24.4522C22.662 25.4911 22.1733 26.509 21.5499 27.2391C20.9266 27.9692 20.1744 28.4613 19.493 28.6922C18.8116 28.9232 18.2069 28.9429 17.796 28.8895C17.4292 28.7803 17.262 28.648 17.2562 28.5981C17.2829 28.3926 18.099 28.4496 19.1947 27.8669C19.7148 27.5536 20.2731 27.1346 20.7526 26.4718C21.2378 25.8589 21.5942 25.0081 21.795 24.1248C21.8717 23.9135 21.8868 23.6083 21.9518 23.2972C21.9669 22.9919 21.982 22.6866 21.9414 22.3372C21.8602 21.6385 21.4029 21.1857 20.8828 21.4991C20.595 21.6338 20.386 22.0121 20.4208 22.3116C20.4115 22.6668 20.6576 23.0429 20.9918 23.3076C21.3261 23.5723 21.7486 23.7255 22.2478 23.6675C22.7028 23.6652 23.1903 23.5074 23.672 23.2996C24.5856 22.8899 25.3645 22.1923 25.7325 21.4413C26.0947 20.6404 26.0959 19.7803 25.8649 19.099C25.6839 18.4118 25.3264 17.9475 25.0362 17.6271C24.652 17.3682 24.4849 17.2359 24.4791 17.186Z" fill="#FF0B53"/>
</g>
<g clip-path="url(#clip7)">
<path d="M29.3695 42.0301C29.3695 41.4892 29.3966 40.9482 29.4236 40.4073C29.4236 40.0827 29.4236 39.7852 29.4236 39.4607C29.4236 39.3525 29.3966 39.2173 29.5588 39.1632C29.7482 39.1091 29.8023 39.2713 29.8564 39.3525C30.235 40.0557 30.5866 40.7589 30.9382 41.4621C30.9653 41.5162 30.9923 41.5703 31.0194 41.6514C31.3439 41.5703 31.6685 41.4892 31.993 41.408C32.3176 41.3269 32.6692 41.2728 32.9938 41.1917C33.156 41.1646 33.2642 41.2457 33.2642 41.381C33.2642 41.4892 33.2101 41.5703 33.156 41.6785C32.9397 42.0301 32.7233 42.4087 32.4528 42.7604C32.2905 42.9767 32.2635 43.1661 32.3987 43.3824C32.6151 43.7611 32.8044 44.1397 32.9938 44.4913C33.0478 44.6266 33.1019 44.7348 33.129 44.87C33.1831 45.1405 32.9938 45.2486 32.6962 45.1675C32.561 45.1405 32.4528 45.0593 32.3176 45.0052C31.8578 44.7888 31.398 44.5725 30.9382 44.3561C30.6137 44.2209 30.5866 44.2209 30.3432 44.4643C29.9645 44.8159 29.5588 45.1675 29.1802 45.5462C29.1531 45.5732 29.1261 45.6273 29.072 45.6543C28.9638 45.6814 28.8286 45.7625 28.7474 45.7084C28.6663 45.6814 28.5852 45.5462 28.6122 45.438C28.6393 45.1945 28.6934 44.9782 28.7474 44.7348C28.8015 44.3561 28.8556 43.9774 28.9097 43.5988C28.9368 43.4095 28.8556 43.3013 28.6393 43.2201C28.2336 43.0579 27.8549 42.8685 27.4492 42.6792C27.314 42.6251 27.2328 42.544 27.2599 42.3817C27.2869 42.2465 27.4222 42.2194 27.5574 42.2194C28.1524 42.1924 28.7474 42.1112 29.3695 42.0301Z" fill="#00F0E9"/>
</g>
<g clip-path="url(#clip8)">
<path d="M12.3065 96.4102C11.6586 96.382 11.2642 96.044 11.2642 95.4806C11.2642 94.889 11.7431 94.4102 12.3065 94.4102C12.898 94.4102 13.3487 94.8327 13.3487 95.3961C13.3206 95.9876 12.898 96.4102 12.3065 96.4102Z" fill="#FF2968"/>
</g>
<path d="M11.107 27.6606C11.1538 28.3074 10.8635 28.7381 10.3039 28.8032C9.71633 28.8715 9.18538 28.4511 9.12034 27.8915C9.05204 27.3039 9.41972 26.8074 9.97934 26.7424C10.5702 26.7021 11.0387 27.073 11.107 27.6606Z" fill="#262C38"/>
<path d="M34.8862 58.1068C32.117 57.4633 30.3689 54.6843 31.017 51.8952L27.2517 51.0203L23.8584 65.6234C23.4649 67.3168 21.7708 68.372 20.0774 67.9785C18.384 67.585 17.3288 65.891 17.7223 64.1976C18.1158 62.5041 19.8098 61.4489 21.5033 61.8424C21.822 61.9165 22.1714 62.0397 22.447 62.2087L23.3405 58.3637C23.031 58.2498 22.7169 58.1558 22.3782 58.0771C18.5929 57.1975 14.812 59.5526 13.9324 63.3379C13.0528 67.1232 15.408 70.9041 19.1932 71.7837C22.9785 72.6633 26.7594 70.3081 27.639 66.5229L29.4352 58.793C30.5506 60.2281 32.1464 61.3128 34.0589 61.7572L34.9061 58.1114L34.8862 58.1068Z" fill="#FF0B53"/>
<path d="M34.0556 56.8021C31.2664 56.154 29.5429 53.3597 30.1864 50.5905L26.4211 49.7156L23.0278 64.3187C22.6343 66.0121 20.9402 67.0673 19.2468 66.6738C17.5534 66.2803 16.4982 64.5863 16.8917 62.8929C17.2851 61.1995 18.9792 60.1442 20.6726 60.5377C20.9914 60.6118 21.3407 60.735 21.6164 60.904L22.5099 57.059C22.2004 56.9451 21.8863 56.8511 21.5476 56.7724C17.7669 55.8729 13.986 58.228 13.1064 62.0133C12.2268 65.7986 14.582 69.5795 18.3672 70.4591C22.1525 71.3387 25.9335 68.9835 26.813 65.1983L28.6092 57.4684C29.7246 58.9035 31.3204 59.9882 33.2329 60.4326L34.0755 56.8067L34.0556 56.8021Z" fill="#00F0E9"/>
<path d="M33.8381 57.7373C32.6831 57.1959 31.7892 56.2533 31.2988 55.1104C30.4893 54.1664 30.0374 52.9484 30.0608 51.673L27.2517 51.0203L23.8584 65.6234C23.4649 67.3168 21.7708 68.372 20.0774 67.9785C18.9618 67.7193 18.1045 66.8901 17.7749 65.8686C17.0034 65.1224 16.6326 64.0073 16.8965 62.8718C17.2899 61.1784 18.984 60.1231 20.6774 60.5166C20.9962 60.5907 21.3455 60.7139 21.6212 60.8829L22.2786 58.0539C18.5193 57.2434 14.8073 59.5726 13.9324 63.3379C13.5574 64.9516 13.768 66.5754 14.4313 67.9684C15.3891 69.1779 16.7338 70.0783 18.3674 70.4579C22.1527 71.3375 25.9336 68.9824 26.8132 65.1971L28.6094 57.4672C29.7248 58.9023 31.3206 59.987 33.2331 60.4314L33.8581 57.7419L33.8381 57.7373Z" fill="#262C38"/>
<g clip-path="url(#clip9)">
<path d="M123.551 14.8777C123.516 14.8949 123.501 14.6821 123.647 14.3475C123.758 14.0302 124.013 13.5554 124.479 13.1544C124.945 12.7535 125.659 12.4092 126.509 12.4388C127.359 12.4684 128.221 12.888 128.885 13.5351C129.217 13.8586 129.531 14.2351 129.702 14.6804C129.805 14.8944 129.854 15.1786 129.886 15.4271C129.918 15.6756 129.879 15.9585 129.822 16.2057C129.673 16.7174 129.33 17.1909 128.813 17.3963C128.261 17.6189 127.661 17.4687 127.24 17.1439C127.03 16.9815 126.874 16.749 126.772 16.4464C126.687 16.1795 126.726 15.8966 126.818 15.6321C127.02 15.1389 127.361 14.8425 127.718 14.6703C128.022 14.4797 128.36 14.3604 128.644 14.3112C128.928 14.2621 129.159 14.1945 129.372 14.1797C130.206 14.0851 131.091 14.1861 131.795 14.4617C132.5 14.7373 133.061 15.1704 133.409 15.6182C133.757 16.066 133.928 16.5113 133.994 16.8311C134.008 17.1325 133.953 17.2912 133.917 17.3084C133.757 17.3416 133.589 16.7191 132.872 16.0536C132.504 15.7472 132.047 15.4397 131.43 15.2538C130.848 15.0508 130.122 15.0052 129.413 15.0838C129.236 15.0813 129.004 15.149 128.756 15.1809C128.525 15.2485 128.293 15.3162 128.044 15.4367C127.544 15.6777 127.325 16.1353 127.693 16.4416C127.867 16.6212 128.203 16.6791 128.417 16.5758C128.684 16.4909 128.901 16.2105 129.012 15.8932C129.122 15.5758 129.127 15.2216 128.955 14.8648C128.836 14.5265 128.592 14.2042 128.313 13.8991C127.772 13.3246 127.051 12.9247 126.397 12.8447C125.707 12.7819 125.066 13.0032 124.618 13.3513C124.153 13.6636 123.9 14.0499 123.736 14.3487C123.642 14.7018 123.587 14.8604 123.551 14.8777Z" fill="#262C38"/>
</g>
<g clip-path="url(#clip10)">
<path d="M133.085 29.2988C132.296 29.8674 131.517 29.8355 130.994 29.1719C130.445 28.4752 130.564 27.4664 131.228 26.9431C131.924 26.3937 132.848 26.4727 133.371 27.1363C133.887 27.8592 133.782 28.7494 133.085 29.2988Z" fill="#262C38"/>
</g>
<path d="M212.425 50.2219C212.481 50.2571 212.192 50.4693 211.585 50.5621C211.035 50.69 210.132 50.755 209.143 50.4531C208.154 50.1513 207.024 49.4473 206.302 48.2133C205.58 46.9793 205.401 45.3774 205.723 43.8523C205.884 43.0897 206.137 42.3059 206.616 41.6628C206.827 41.3236 207.187 40.9984 207.511 40.7296C207.835 40.4609 208.272 40.2625 208.674 40.1207C209.535 39.8723 210.516 39.9342 211.272 40.4835C212.085 41.068 212.411 42.0556 212.328 42.9451C212.287 43.3898 212.097 43.8207 211.759 44.2377C211.456 44.5981 211.018 44.7965 210.56 44.9031C209.678 45.0598 208.95 44.8422 208.385 44.4902C207.841 44.23 207.368 43.8566 207.042 43.4972C206.717 43.1378 206.413 42.8701 206.201 42.581C205.317 41.4814 204.665 40.1343 204.423 38.8854C204.181 37.6365 204.292 36.4506 204.616 35.5537C204.939 34.6567 205.418 34.0137 205.812 33.6319C206.228 33.3418 206.503 33.2778 206.56 33.313C206.751 33.5103 206.018 34.3091 205.717 35.9259C205.613 36.7237 205.586 37.6484 205.877 38.6925C206.112 39.7014 206.699 40.7733 207.449 41.7108C207.605 41.9647 207.909 42.2324 208.177 42.5566C208.481 42.8243 208.785 43.092 209.181 43.3384C209.972 43.8312 210.819 43.731 210.924 42.9333C211.022 42.5237 210.802 41.9947 210.463 41.7835C210.102 41.4806 209.509 41.4251 208.959 41.5531C208.409 41.681 207.901 41.9924 207.549 42.5576C207.176 43.0311 206.937 43.6668 206.754 44.3376C206.425 45.6227 206.505 47.006 206.979 48.0075C207.51 49.0442 208.401 49.7556 209.298 50.0788C210.159 50.4585 210.936 50.4714 211.508 50.4352C212.093 50.2507 212.368 50.1867 212.425 50.2219Z" fill="#FF0B53"/>
</g>
<defs>
<filter id="filter0_f" x="23" y="81" width="156" height="26" filterUnits="userSpaceOnUse" color-interpolation-filters="sRGB">
<feFlood flood-opacity="0" result="BackgroundImageFix"/>
<feBlend mode="normal" in="SourceGraphic" in2="BackgroundImageFix" result="shape"/>
<feGaussianBlur stdDeviation="5" result="effect1_foregroundBlur"/>
</filter>
<linearGradient id="paint0_linear" x1="177" y1="81" x2="271" y2="81" gradientUnits="userSpaceOnUse">
<stop stop-color="#09EAE5"/>
<stop offset="0.791667" stop-color="#BD4D7A"/>
<stop offset="1" stop-color="#E52A62"/>
</linearGradient>
<clipPath id="clip0">
<rect width="277" height="105.82" fill="white"/>
</clipPath>
<clipPath id="clip1">
<rect width="21.3938" height="24.2827" fill="white" transform="translate(32.2387 69) rotate(22.3625)"/>
</clipPath>
<clipPath id="clip2">
<rect width="8.94383" height="9.87464" fill="white" transform="translate(30.3011 97.167) rotate(135.45)"/>
</clipPath>
<clipPath id="clip3">
<rect width="11" height="12.1448" fill="white" transform="translate(211 54)"/>
</clipPath>
<clipPath id="clip4">
<rect width="2.05634" height="2" fill="white" transform="translate(214 14)"/>
</clipPath>
<clipPath id="clip5">
<rect width="3.08451" height="3" fill="white" transform="translate(237.846 28)"/>
</clipPath>
<clipPath id="clip6">
<rect width="10.904" height="10.1" fill="white" transform="translate(17.3027 28.9971) rotate(-96.6294)"/>
</clipPath>
<clipPath id="clip7">
<rect width="11" height="12.1448" fill="white" transform="translate(27.2642 36.4102)"/>
</clipPath>
<clipPath id="clip8">
<rect width="2.05634" height="2" fill="white" transform="translate(11.2642 94.4102)"/>
</clipPath>
<clipPath id="clip9">
<rect width="8.5957" height="7.96192" fill="white" transform="translate(134.202 17.1709) rotate(154.238)"/>
</clipPath>
<clipPath id="clip10">
<rect width="3.08451" height="3" fill="white" transform="translate(130 27.9111) rotate(-38.2574)"/>
</clipPath>
</defs>
</svg>
