<svg width="277" height="106" viewBox="0 0 277 106" fill="none" xmlns="http://www.w3.org/2000/svg">
<g clip-path="url(#clip0)">
<g filter="url(#filter0_f)">
<ellipse cx="86" cy="94" rx="68" ry="3" fill="#C4C4C4" fill-opacity="0.5"/>
</g>
<path d="M162.71 88.3779C161.909 89.3154 160.742 90.043 159.209 90.5605C157.676 91.0684 155.977 91.3076 154.111 91.2783C152.324 91.2588 150.815 90.8096 149.585 89.9307C148.354 89.0518 147.476 87.8262 146.948 86.2539C146.421 84.6816 146.279 82.9092 146.523 80.9365L146.641 80.0576C147.09 76.7471 148.252 74.125 150.127 72.1914C152.012 70.2578 154.316 69.3154 157.041 69.3643C159.424 69.4033 161.255 70.043 162.534 71.2832C163.813 72.5234 164.526 74.3154 164.673 76.6592L159.868 76.6445C159.8 75.502 159.517 74.667 159.019 74.1396C158.53 73.6123 157.832 73.334 156.924 73.3047C155.576 73.2559 154.463 73.7881 153.584 74.9014C152.705 76.0049 152.104 77.5869 151.782 79.6475C151.509 81.4053 151.411 82.7725 151.489 83.749C151.636 86.1025 152.695 87.2939 154.668 87.3232C155.859 87.3428 156.904 87.0547 157.803 86.459L158.462 83.1338H154.99L155.605 79.6035H164.087L162.71 88.3779ZM170.356 91H165.347L169.053 69.6719H174.048L170.356 91ZM191.626 88.3779C190.825 89.3154 189.658 90.043 188.125 90.5605C186.592 91.0684 184.893 91.3076 183.027 91.2783C181.24 91.2588 179.731 90.8096 178.501 89.9307C177.271 89.0518 176.392 87.8262 175.864 86.2539C175.337 84.6816 175.195 82.9092 175.439 80.9365L175.557 80.0576C176.006 76.7471 177.168 74.125 179.043 72.1914C180.928 70.2578 183.232 69.3154 185.957 69.3643C188.34 69.4033 190.171 70.043 191.45 71.2832C192.729 72.5234 193.442 74.3154 193.589 76.6592L188.784 76.6445C188.716 75.502 188.433 74.667 187.935 74.1396C187.446 73.6123 186.748 73.334 185.84 73.3047C184.492 73.2559 183.379 73.7881 182.5 74.9014C181.621 76.0049 181.021 77.5869 180.698 79.6475C180.425 81.4053 180.327 82.7725 180.405 83.749C180.552 86.1025 181.611 87.2939 183.584 87.3232C184.775 87.3428 185.82 87.0547 186.719 86.459L187.378 83.1338H183.906L184.521 79.6035H193.003L191.626 88.3779ZM206.45 87.0156H199.639L197.749 91H192.227L203.521 69.6719H208.237L212.178 91H206.963L206.45 87.0156ZM201.514 83.0459H205.938L205 75.6924L201.514 83.0459ZM225.625 85.2285C225.84 84.125 225.244 83.2705 223.838 82.665L221.436 81.6689C218.066 80.1553 216.465 78.0947 216.631 75.4873C216.699 74.2959 217.109 73.2363 217.861 72.3086C218.613 71.3711 219.653 70.6436 220.981 70.126C222.31 69.6084 223.76 69.3594 225.332 69.3789C227.441 69.418 229.136 70.0332 230.415 71.2246C231.704 72.416 232.339 74.0127 232.319 76.0146H227.339C227.368 75.1943 227.192 74.54 226.812 74.0518C226.44 73.5537 225.825 73.2949 224.966 73.2754C224.126 73.2559 223.384 73.4512 222.739 73.8613C222.095 74.2715 221.714 74.8232 221.597 75.5166C221.411 76.4932 222.134 77.2939 223.765 77.9189C225.405 78.5439 226.597 79.0811 227.339 79.5303C229.673 80.9268 230.767 82.8115 230.62 85.1846C230.542 86.415 230.146 87.4941 229.434 88.4219C228.721 89.3496 227.729 90.0674 226.46 90.5752C225.2 91.083 223.784 91.3271 222.212 91.3076C221.06 91.2881 219.99 91.1074 219.004 90.7656C218.018 90.4238 217.173 89.9258 216.47 89.2715C215.044 87.9531 214.36 86.2197 214.419 84.0713L219.443 84.0859C219.385 85.1797 219.595 86.0098 220.073 86.5762C220.552 87.1328 221.357 87.4111 222.49 87.4111C223.33 87.4111 224.028 87.2207 224.585 86.8398C225.151 86.4492 225.498 85.9121 225.625 85.2285Z" fill="#BBBBBB"/>
<path d="M76.1133 92H61.6113L69.7852 44.9785L54.8877 49.1973L56.9092 37.4639L85.21 28.0156L86.8359 27.9717L76.1133 92ZM138.999 92H95.625L97.207 81.8047L119.971 60.667L123.091 57.5469C127.983 52.625 130.225 47.9814 129.814 43.6162C129.492 40.2178 127.734 38.4746 124.541 38.3867C122.285 38.3281 120.366 39.251 118.784 41.1553C117.231 43.0303 116.265 45.4912 115.884 48.5381L101.514 48.626C101.748 44.6123 102.964 40.9502 105.161 37.6396C107.358 34.2998 110.288 31.6924 113.95 29.8174C117.642 27.9424 121.567 27.0195 125.728 27.0488C131.968 27.166 136.802 28.8652 140.229 32.1465C143.657 35.3984 145.151 39.8076 144.712 45.374C144.448 48.6553 143.364 51.8486 141.46 54.9541C139.585 58.0596 136.846 61.3262 133.242 64.7539L126.562 70.9062L116.631 80.4863L140.801 80.5742L138.999 92Z" fill="#EF3829"/>
<path d="M76.1133 92V95H78.6527L79.0721 92.4955L76.1133 92ZM61.6113 92L58.6557 91.4862L58.0448 95H61.6113V92ZM69.7852 44.9785L72.7408 45.4923L73.5579 40.7922L68.9677 42.092L69.7852 44.9785ZM54.8877 49.1973L51.9313 48.6879L51.1226 53.3815L55.7051 52.0838L54.8877 49.1973ZM56.9092 37.4639L55.9592 34.6183L54.2574 35.1864L53.9527 36.9545L56.9092 37.4639ZM85.21 28.0156L85.1289 25.0167L84.683 25.0288L84.26 25.17L85.21 28.0156ZM86.8359 27.9717L89.7947 28.4672L90.3964 24.8744L86.7549 24.9728L86.8359 27.9717ZM76.1133 89H61.6113V95H76.1133V89ZM64.567 92.5138L72.7408 45.4923L66.8295 44.4647L58.6557 91.4862L64.567 92.5138ZM68.9677 42.092L54.0703 46.3108L55.7051 52.0838L70.6026 47.865L68.9677 42.092ZM57.8441 49.7066L59.8656 37.9732L53.9527 36.9545L51.9313 48.6879L57.8441 49.7066ZM57.8592 40.3095L86.16 30.8612L84.26 25.17L55.9592 34.6183L57.8592 40.3095ZM85.291 31.0145L86.917 30.9706L86.7549 24.9728L85.1289 25.0167L85.291 31.0145ZM83.8771 27.4762L73.1545 91.5045L79.0721 92.4955L89.7947 28.4672L83.8771 27.4762ZM138.999 92V95H141.563L141.962 92.4673L138.999 92ZM95.625 92L92.6605 91.54L92.1236 95H95.625V92ZM97.207 81.8047L95.1657 79.6063L94.4023 80.3152L94.2425 81.3447L97.207 81.8047ZM119.971 60.667L122.012 62.8654L122.053 62.8276L122.092 62.7883L119.971 60.667ZM123.091 57.5469L125.212 59.6682L125.218 59.6619L123.091 57.5469ZM129.814 43.6162L132.801 43.3356L132.801 43.333L129.814 43.6162ZM124.541 38.3867L124.624 35.3879L124.619 35.3877L124.541 38.3867ZM118.784 41.1553L116.477 39.2382L116.474 39.2418L118.784 41.1553ZM115.884 48.5381L115.902 51.538L118.534 51.5219L118.861 48.9102L115.884 48.5381ZM101.514 48.626L98.5188 48.4511L98.3322 51.6455L101.532 51.6259L101.514 48.626ZM105.161 37.6396L107.661 39.2987L107.667 39.2885L105.161 37.6396ZM113.95 29.8174L112.592 27.1426L112.583 27.147L113.95 29.8174ZM125.728 27.0488L125.784 24.0494L125.766 24.049L125.749 24.0489L125.728 27.0488ZM140.229 32.1465L138.155 34.3136L138.165 34.3229L140.229 32.1465ZM144.712 45.374L147.702 45.6143L147.703 45.6101L144.712 45.374ZM141.46 54.9541L138.903 53.3858L138.897 53.3947L138.892 53.4035L141.46 54.9541ZM133.242 64.7539L135.275 66.9605L135.292 66.9442L135.31 66.9276L133.242 64.7539ZM126.562 70.9062L124.53 68.6996L124.505 68.723L124.48 68.7471L126.562 70.9062ZM116.631 80.4863L114.548 78.3271L109.227 83.4594L116.62 83.4863L116.631 80.4863ZM140.801 80.5742L143.764 81.0415L144.309 77.587L140.812 77.5742L140.801 80.5742ZM138.999 89H95.625V95H138.999V89ZM98.5895 92.46L100.172 82.2647L94.2425 81.3447L92.6605 91.54L98.5895 92.46ZM99.2484 84.0031L122.012 62.8654L117.929 58.4686L95.1657 79.6063L99.2484 84.0031ZM122.092 62.7883L125.212 59.6682L120.969 55.4256L117.849 58.5457L122.092 62.7883ZM125.218 59.6619C130.375 54.4748 133.333 48.9975 132.801 43.3356L126.828 43.8969C127.116 46.9654 125.592 50.7752 120.963 55.4319L125.218 59.6619ZM132.801 43.333C132.599 41.1982 131.904 39.1546 130.367 37.6298C128.803 36.079 126.754 35.4465 124.624 35.3879L124.458 41.3856C125.522 41.4149 125.948 41.6979 126.142 41.8902C126.362 42.1086 126.708 42.6358 126.828 43.8994L132.801 43.333ZM124.619 35.3877C121.347 35.3027 118.581 36.7054 116.477 39.2382L121.092 43.0723C122.152 41.7965 123.224 41.3535 124.463 41.3857L124.619 35.3877ZM116.474 39.2418C114.472 41.6585 113.34 44.6996 112.907 48.166L118.861 48.9102C119.189 46.2828 119.991 44.402 121.095 43.0687L116.474 39.2418ZM115.865 45.5381L101.495 45.626L101.532 51.6259L115.902 51.538L115.865 45.5381ZM104.509 48.8009C104.712 45.3104 105.761 42.1615 107.661 39.2986L102.662 35.9807C100.167 39.7389 98.7837 43.9142 98.5188 48.4511L104.509 48.8009ZM107.667 39.2885C109.571 36.3949 112.103 34.1336 115.317 32.4877L112.583 27.147C108.473 29.2512 105.146 32.2048 102.655 35.9908L107.667 39.2885ZM115.309 32.4921C118.571 30.8353 122.023 30.0228 125.706 30.0488L125.749 24.0489C121.112 24.0162 116.712 25.0495 112.592 27.1426L115.309 32.4921ZM125.671 30.0483C131.402 30.1559 135.425 31.7004 138.155 34.3136L142.304 29.9794C138.178 26.03 132.534 24.1761 125.784 24.0494L125.671 30.0483ZM138.165 34.3229C140.813 36.8355 142.104 40.2914 141.721 45.1379L147.703 45.6101C148.199 39.3239 146.501 33.9614 142.294 29.9701L138.165 34.3229ZM141.722 45.1337C141.5 47.896 140.587 50.6393 138.903 53.3858L144.017 56.5224C146.142 53.058 147.397 49.4145 147.702 45.6143L141.722 45.1337ZM138.892 53.4035C137.196 56.2129 134.65 59.2739 131.175 62.5802L135.31 66.9276C139.041 63.3785 141.974 59.9062 144.028 56.5047L138.892 53.4035ZM131.21 62.5473L124.53 68.6996L128.595 73.1129L135.275 66.9605L131.21 62.5473ZM124.48 68.7471L114.548 78.3271L118.714 82.6455L128.645 73.0654L124.48 68.7471ZM116.62 83.4863L140.79 83.5742L140.812 77.5742L116.642 77.4863L116.62 83.4863ZM137.837 80.1069L136.036 91.5327L141.962 92.4673L143.764 81.0415L137.837 80.1069Z" fill="#EF3829"/>
</g>
<defs>
<filter id="filter0_f" x="8" y="81" width="156" height="26" filterUnits="userSpaceOnUse" color-interpolation-filters="sRGB">
<feFlood flood-opacity="0" result="BackgroundImageFix"/>
<feBlend mode="normal" in="SourceGraphic" in2="BackgroundImageFix" result="shape"/>
<feGaussianBlur stdDeviation="5" result="effect1_foregroundBlur"/>
</filter>
<clipPath id="clip0">
<rect width="277" height="105.82" fill="white"/>
</clipPath>
</defs>
</svg>
