<svg width="277" height="106" viewBox="0 0 277 106" fill="none" xmlns="http://www.w3.org/2000/svg">
<g clip-path="url(#clip0)">
<g filter="url(#filter0_f)">
<ellipse cx="90" cy="94" rx="68" ry="3" fill="#C4C4C4" fill-opacity="0.5"/>
</g>
<path d="M198.71 87.3779C197.909 88.3154 196.742 89.043 195.209 89.5605C193.676 90.0684 191.977 90.3076 190.111 90.2783C188.324 90.2588 186.815 89.8096 185.585 88.9307C184.354 88.0518 183.476 86.8262 182.948 85.2539C182.421 83.6816 182.279 81.9092 182.523 79.9365L182.641 79.0576C183.09 75.7471 184.252 73.125 186.127 71.1914C188.012 69.2578 190.316 68.3154 193.041 68.3643C195.424 68.4033 197.255 69.043 198.534 70.2832C199.813 71.5234 200.526 73.3154 200.673 75.6592L195.868 75.6445C195.8 74.502 195.517 73.667 195.019 73.1396C194.53 72.6123 193.832 72.334 192.924 72.3047C191.576 72.2559 190.463 72.7881 189.584 73.9014C188.705 75.0049 188.104 76.5869 187.782 78.6475C187.509 80.4053 187.411 81.7725 187.489 82.749C187.636 85.1025 188.695 86.2939 190.668 86.3232C191.859 86.3428 192.904 86.0547 193.803 85.459L194.462 82.1338H190.99L191.605 78.6035H200.087L198.71 87.3779ZM206.356 90H201.347L205.053 68.6719H210.048L206.356 90ZM227.626 87.3779C226.825 88.3154 225.658 89.043 224.125 89.5605C222.592 90.0684 220.893 90.3076 219.027 90.2783C217.24 90.2588 215.731 89.8096 214.501 88.9307C213.271 88.0518 212.392 86.8262 211.864 85.2539C211.337 83.6816 211.195 81.9092 211.439 79.9365L211.557 79.0576C212.006 75.7471 213.168 73.125 215.043 71.1914C216.928 69.2578 219.232 68.3154 221.957 68.3643C224.34 68.4033 226.171 69.043 227.45 70.2832C228.729 71.5234 229.442 73.3154 229.589 75.6592L224.784 75.6445C224.716 74.502 224.433 73.667 223.935 73.1396C223.446 72.6123 222.748 72.334 221.84 72.3047C220.492 72.2559 219.379 72.7881 218.5 73.9014C217.621 75.0049 217.021 76.5869 216.698 78.6475C216.425 80.4053 216.327 81.7725 216.405 82.749C216.552 85.1025 217.611 86.2939 219.584 86.3232C220.775 86.3428 221.82 86.0547 222.719 85.459L223.378 82.1338H219.906L220.521 78.6035H229.003L227.626 87.3779ZM242.45 86.0156H235.639L233.749 90H228.227L239.521 68.6719H244.237L248.178 90H242.963L242.45 86.0156ZM237.514 82.0459H241.938L241 74.6924L237.514 82.0459ZM261.625 84.2285C261.84 83.125 261.244 82.2705 259.838 81.665L257.436 80.6689C254.066 79.1553 252.465 77.0947 252.631 74.4873C252.699 73.2959 253.109 72.2363 253.861 71.3086C254.613 70.3711 255.653 69.6436 256.981 69.126C258.31 68.6084 259.76 68.3594 261.332 68.3789C263.441 68.418 265.136 69.0332 266.415 70.2246C267.704 71.416 268.339 73.0127 268.319 75.0146H263.339C263.368 74.1943 263.192 73.54 262.812 73.0518C262.44 72.5537 261.825 72.2949 260.966 72.2754C260.126 72.2559 259.384 72.4512 258.739 72.8613C258.095 73.2715 257.714 73.8232 257.597 74.5166C257.411 75.4932 258.134 76.2939 259.765 76.9189C261.405 77.5439 262.597 78.0811 263.339 78.5303C265.673 79.9268 266.767 81.8115 266.62 84.1846C266.542 85.415 266.146 86.4941 265.434 87.4219C264.721 88.3496 263.729 89.0674 262.46 89.5752C261.2 90.083 259.784 90.3271 258.212 90.3076C257.06 90.2881 255.99 90.1074 255.004 89.7656C254.018 89.4238 253.173 88.9258 252.47 88.2715C251.044 86.9531 250.36 85.2197 250.419 83.0713L255.443 83.0859C255.385 84.1797 255.595 85.0098 256.073 85.5762C256.552 86.1328 257.357 86.4111 258.49 86.4111C259.33 86.4111 260.028 86.2207 260.585 85.8398C261.151 85.4492 261.498 84.9121 261.625 84.2285Z" fill="#BBBBBB"/>
<path d="M61.1133 91H46.6113L54.7852 43.9785L39.8877 48.1973L41.9092 36.4639L70.21 27.0156L71.8359 26.9717L61.1133 91ZM99.6973 52.8115L106.157 52.8555C108.794 52.7969 110.962 52.0352 112.661 50.5703C114.36 49.0762 115.371 46.9961 115.693 44.3301C115.928 42.3379 115.532 40.6973 114.507 39.4082C113.481 38.1191 111.943 37.46 109.893 37.4307C107.988 37.3721 106.304 37.8994 104.839 39.0127C103.374 40.126 102.437 41.6055 102.026 43.4512L87.5244 43.5391C87.7002 40.082 88.8135 37.0205 90.8643 34.3545C92.915 31.6885 95.6396 29.6377 99.0381 28.2021C102.466 26.7373 106.143 26.0195 110.068 26.0488C116.514 26.1953 121.582 27.8945 125.273 31.1465C128.965 34.3691 130.649 38.6758 130.327 44.0664C129.946 50.1016 126.006 54.877 118.506 58.3926C121.348 59.7988 123.472 61.7471 124.878 64.2373C126.284 66.7275 126.914 69.54 126.768 72.6748C126.562 76.6006 125.317 80.0283 123.032 82.958C120.747 85.8584 117.686 88.0996 113.848 89.6816C110.01 91.2344 105.894 91.9668 101.499 91.8789C97.6611 91.8496 94.1748 91.0439 91.04 89.4619C87.9346 87.8506 85.5469 85.6387 83.877 82.8262C82.207 80.0137 81.3867 76.791 81.416 73.1582H95.8301C95.8594 75.2383 96.4746 76.9521 97.6758 78.2998C98.877 79.6475 100.562 80.3506 102.729 80.4092C105.161 80.4678 107.314 79.75 109.189 78.2559C111.064 76.7617 112.178 74.7988 112.529 72.3672C112.881 69.7598 112.485 67.7236 111.343 66.2588C110.229 64.7646 108.354 63.9736 105.718 63.8857L97.9834 63.8418L99.6973 52.8115ZM137.271 59.5352L146.147 27.0156H182.622L180.776 38.5293H156.299L152.388 51.3174C154.761 49.7939 157.705 49.0029 161.221 48.9443C166.846 48.9443 171.167 50.8926 174.185 54.7891C177.231 58.6855 178.491 63.7832 177.964 70.082C177.437 76.5859 174.902 81.8887 170.361 85.9902C165.82 90.0625 160.327 92.04 153.882 91.9229C150.103 91.835 146.66 90.9561 143.555 89.2861C140.479 87.6162 138.091 85.3457 136.392 82.4746C134.692 79.5742 133.857 76.3369 133.887 72.7627H148.301C148.359 75.0479 148.931 76.8789 150.015 78.2559C151.099 79.6328 152.622 80.3506 154.585 80.4092C156.987 80.4971 158.979 79.6035 160.562 77.7285C162.144 75.8242 163.154 72.9385 163.594 69.0713C163.887 65.8193 163.447 63.3584 162.275 61.6885C161.104 59.9893 159.272 59.1396 156.782 59.1396C153.589 59.1396 150.996 60.2236 149.004 62.3916L137.271 59.5352Z" fill="#EF3829"/>
<path d="M61.1133 91V94H63.6527L64.0721 91.4955L61.1133 91ZM46.6113 91L43.6557 90.4862L43.0448 94H46.6113V91ZM54.7852 43.9785L57.7408 44.4923L58.5579 39.7922L53.9677 41.092L54.7852 43.9785ZM39.8877 48.1973L36.9313 47.6879L36.1226 52.3815L40.7051 51.0838L39.8877 48.1973ZM41.9092 36.4639L40.9592 33.6183L39.2574 34.1864L38.9527 35.9545L41.9092 36.4639ZM70.21 27.0156L70.1289 24.0167L69.683 24.0288L69.26 24.17L70.21 27.0156ZM71.8359 26.9717L74.7947 27.4672L75.3964 23.8744L71.7549 23.9728L71.8359 26.9717ZM61.1133 88H46.6113V94H61.1133V88ZM49.567 91.5138L57.7408 44.4923L51.8295 43.4647L43.6557 90.4862L49.567 91.5138ZM53.9677 41.092L39.0703 45.3108L40.7051 51.0838L55.6026 46.865L53.9677 41.092ZM42.8441 48.7066L44.8656 36.9732L38.9527 35.9545L36.9313 47.6879L42.8441 48.7066ZM42.8592 39.3095L71.16 29.8612L69.26 24.17L40.9592 33.6183L42.8592 39.3095ZM70.291 30.0145L71.917 29.9706L71.7549 23.9728L70.1289 24.0167L70.291 30.0145ZM68.8771 26.4762L58.1545 90.5045L64.0721 91.4955L74.7947 27.4672L68.8771 26.4762ZM99.6973 52.8115L99.7177 49.8116L97.1301 49.794L96.7328 52.3509L99.6973 52.8115ZM106.157 52.8555L106.137 55.8554L106.18 55.8557L106.224 55.8547L106.157 52.8555ZM112.661 50.5703L114.62 52.8425L114.631 52.8329L114.642 52.8232L112.661 50.5703ZM115.693 44.3301L118.672 44.6901L118.673 44.6806L115.693 44.3301ZM109.893 37.4307L109.8 40.4292L109.825 40.43L109.85 40.4304L109.893 37.4307ZM102.026 43.4512L102.045 46.4511L104.436 46.4366L104.955 44.102L102.026 43.4512ZM87.5244 43.5391L84.5283 43.3867L84.367 46.5583L87.5426 46.539L87.5244 43.5391ZM99.0381 28.2021L100.205 30.9657L100.217 30.9608L99.0381 28.2021ZM110.068 26.0488L110.137 23.0496L110.114 23.0491L110.091 23.0489L110.068 26.0488ZM125.273 31.1465L123.29 33.3976L123.3 33.4064L125.273 31.1465ZM130.327 44.0664L133.321 44.2554L133.322 44.2454L130.327 44.0664ZM118.506 58.3926L117.233 55.6762L111.594 58.3194L117.175 61.0814L118.506 58.3926ZM126.768 72.6748L129.763 72.8313L129.764 72.8231L129.764 72.8148L126.768 72.6748ZM123.032 82.958L125.389 84.8146L125.393 84.8089L125.398 84.8031L123.032 82.958ZM113.848 89.6816L114.973 92.4627L114.982 92.459L114.991 92.4552L113.848 89.6816ZM101.499 91.8789L101.559 88.8795L101.54 88.8791L101.522 88.879L101.499 91.8789ZM91.04 89.4619L89.6584 92.1248L89.6733 92.1326L89.6884 92.1402L91.04 89.4619ZM81.416 73.1582V70.1582H78.4401L78.4161 73.134L81.416 73.1582ZM95.8301 73.1582L98.8298 73.116L98.7881 70.1582H95.8301V73.1582ZM102.729 80.4092L102.648 83.4081L102.657 83.4083L102.729 80.4092ZM112.529 72.3672L115.498 72.7965L115.5 72.7823L115.502 72.7681L112.529 72.3672ZM111.343 66.2588L108.937 68.0512L108.957 68.0778L108.977 68.1039L111.343 66.2588ZM105.718 63.8857L105.818 60.8874L105.776 60.886L105.735 60.8858L105.718 63.8857ZM97.9834 63.8418L95.019 63.3812L94.4843 66.822L97.9664 66.8417L97.9834 63.8418ZM99.6769 55.8115L106.137 55.8554L106.178 49.8555L99.7177 49.8116L99.6769 55.8115ZM106.224 55.8547C109.429 55.7835 112.304 54.839 114.62 52.8425L110.702 48.2981C109.62 49.2313 108.159 49.8102 106.091 49.8562L106.224 55.8547ZM114.642 52.8232C116.995 50.7539 118.278 47.9438 118.672 44.6901L112.715 43.9701C112.464 46.0484 111.725 47.3984 110.68 48.3174L114.642 52.8232ZM118.673 44.6806C118.979 42.0789 118.483 39.5871 116.855 37.5406L112.159 41.2758C112.582 41.8074 112.877 42.5969 112.714 43.9796L118.673 44.6806ZM116.855 37.5406C115.135 35.3787 112.644 34.4697 109.935 34.431L109.85 40.4304C111.242 40.4503 111.828 40.8596 112.159 41.2758L116.855 37.5406ZM109.985 34.4321C107.42 34.3532 105.056 35.0794 103.024 36.6242L106.654 41.4012C107.551 40.7195 108.557 40.391 109.8 40.4292L109.985 34.4321ZM103.024 36.6242C100.977 38.1796 99.6572 40.2829 99.0978 42.8004L104.955 44.102C105.216 42.928 105.771 42.0723 106.654 41.4012L103.024 36.6242ZM102.008 40.4512L87.5062 40.5391L87.5426 46.539L102.045 46.4511L102.008 40.4512ZM90.5205 43.6914C90.6663 40.8243 91.5744 38.3517 93.2421 36.1836L88.4864 32.5254C86.0526 35.6893 84.7341 39.3398 84.5283 43.3867L90.5205 43.6914ZM93.2421 36.1836C94.9469 33.9674 97.237 32.2196 100.205 30.9657L97.8707 25.4386C94.0423 27.0558 90.8832 29.4096 88.4864 32.5254L93.2421 36.1836ZM100.217 30.9608C103.245 29.6667 106.511 29.0224 110.046 29.0487L110.091 23.0489C105.775 23.0167 101.687 23.8079 97.8592 25.4435L100.217 30.9608ZM110 29.0481C115.961 29.1835 120.275 30.7413 123.29 33.3976L127.257 28.8954C122.889 25.0478 117.066 23.2071 110.137 23.0496L110 29.0481ZM123.3 33.4064C126.214 35.95 127.606 39.3155 127.332 43.8874L133.322 44.2454C133.693 38.036 131.716 32.7883 127.246 28.8865L123.3 33.4064ZM127.333 43.8775C127.046 48.4254 124.158 52.4299 117.233 55.6762L119.779 61.109C127.854 57.324 132.846 51.7777 133.321 44.2554L127.333 43.8775ZM117.175 61.0814C119.539 62.251 121.187 63.8025 122.266 65.7125L127.49 62.7621C125.756 59.6917 123.156 57.3467 119.836 55.7038L117.175 61.0814ZM122.266 65.7125C123.368 67.6639 123.894 69.907 123.771 72.5348L129.764 72.8148C129.934 69.1731 129.201 65.7912 127.49 62.7621L122.266 65.7125ZM123.772 72.5183C123.597 75.8676 122.551 78.6971 120.667 81.1129L125.398 84.8031C128.084 81.3595 129.528 77.3335 129.763 72.8313L123.772 72.5183ZM120.676 81.1014C118.748 83.5487 116.126 85.4976 112.704 86.908L114.991 92.4552C119.245 90.7017 122.747 88.1681 125.389 84.8146L120.676 81.1014ZM112.723 86.9006C109.284 88.2919 105.573 88.9598 101.559 88.8795L101.439 94.8783C106.214 94.9738 110.736 94.1768 114.973 92.4627L112.723 86.9006ZM101.522 88.879C98.1021 88.8529 95.0769 88.1388 92.3917 86.7837L89.6884 92.1402C93.2727 93.9491 97.2201 94.8463 101.476 94.8788L101.522 88.879ZM92.4217 86.799C89.7772 85.4269 87.8205 83.5918 86.4565 81.2946L81.2974 84.3578C83.2733 87.6856 86.0919 90.2743 89.6584 92.1248L92.4217 86.799ZM86.4565 81.2946C85.0962 79.0034 84.3905 76.3303 84.4159 73.1824L78.4161 73.134C78.3829 77.2518 79.3179 81.0239 81.2974 84.3578L86.4565 81.2946ZM81.416 76.1582H95.8301V70.1582H81.416V76.1582ZM92.8304 73.2005C92.8682 75.8854 93.6826 78.3285 95.4362 80.2959L99.9153 76.3037C99.2666 75.5758 98.8506 74.5911 98.8298 73.116L92.8304 73.2005ZM95.4362 80.2959C97.2971 82.3838 99.8334 83.332 102.648 83.4081L102.811 77.4103C101.29 77.3692 100.457 76.9112 99.9153 76.3037L95.4362 80.2959ZM102.657 83.4083C105.782 83.4836 108.625 82.5419 111.059 80.602L107.32 75.9097C106.004 76.9581 104.541 77.452 102.802 77.4101L102.657 83.4083ZM111.059 80.602C113.547 78.6192 115.041 75.9629 115.498 72.7965L109.56 71.9379C109.315 73.6347 108.582 74.9042 107.32 75.9097L111.059 80.602ZM115.502 72.7681C115.916 69.6983 115.524 66.741 113.708 64.4137L108.977 68.1039C109.447 68.7062 109.845 69.8212 109.556 71.9663L115.502 72.7681ZM113.748 64.4663C111.89 61.9719 108.969 60.9924 105.818 60.8874L105.618 66.8841C107.74 66.9548 108.569 67.5574 108.937 68.0512L113.748 64.4663ZM105.735 60.8858L98.0004 60.8418L97.9664 66.8417L105.701 66.8857L105.735 60.8858ZM100.948 64.3024L102.662 53.2721L96.7328 52.3509L95.019 63.3812L100.948 64.3024ZM137.271 59.5352L134.376 58.7451L133.564 61.7205L136.561 62.45L137.271 59.5352ZM146.147 27.0156V24.0156H143.857L143.253 26.2256L146.147 27.0156ZM182.622 27.0156L185.584 27.4905L186.141 24.0156H182.622V27.0156ZM180.776 38.5293V41.5293H183.334L183.739 39.0042L180.776 38.5293ZM156.299 38.5293V35.5293H154.079L153.43 37.6519L156.299 38.5293ZM152.388 51.3174L149.519 50.44L147.127 58.2594L154.008 53.8419L152.388 51.3174ZM161.221 48.9443V45.9443H161.196L161.171 45.9448L161.221 48.9443ZM174.185 54.7891L171.813 56.626L171.821 56.637L174.185 54.7891ZM177.964 70.082L174.974 69.8317L174.974 69.8396L177.964 70.082ZM170.361 85.9902L172.364 88.2237L172.372 88.2165L170.361 85.9902ZM153.882 91.9229L153.812 94.922L153.82 94.9222L153.827 94.9224L153.882 91.9229ZM143.555 89.2861L142.123 91.9227L142.134 91.9283L143.555 89.2861ZM136.392 82.4746L133.803 83.9911L133.81 84.0026L136.392 82.4746ZM133.887 72.7627V69.7627H130.911L130.887 72.7381L133.887 72.7627ZM148.301 72.7627L151.3 72.6858L151.225 69.7627H148.301V72.7627ZM154.585 80.4092L154.695 77.4112L154.685 77.4108L154.674 77.4105L154.585 80.4092ZM160.562 77.7285L162.854 79.6631L162.862 79.6544L162.869 79.6456L160.562 77.7285ZM163.594 69.0713L166.575 69.41L166.579 69.3753L166.582 69.3405L163.594 69.0713ZM162.275 61.6885L159.806 63.3917L159.813 63.4017L159.82 63.4118L162.275 61.6885ZM149.004 62.3916L148.294 65.3065L150.015 65.7253L151.213 64.4215L149.004 62.3916ZM140.165 60.3252L149.042 27.8056L143.253 26.2256L134.376 58.7451L140.165 60.3252ZM146.147 30.0156H182.622V24.0156H146.147V30.0156ZM179.66 26.5408L177.814 38.0544L183.739 39.0042L185.584 27.4905L179.66 26.5408ZM180.776 35.5293H156.299V41.5293H180.776V35.5293ZM153.43 37.6519L149.519 50.44L155.257 52.1948L159.168 39.4067L153.43 37.6519ZM154.008 53.8419C155.809 52.686 158.176 51.9955 161.271 51.9439L161.171 45.9448C157.235 46.0104 153.713 46.9019 150.767 48.7928L154.008 53.8419ZM161.221 51.9443C166.067 51.9443 169.449 53.5733 171.813 56.6259L176.556 52.9522C172.885 48.2118 167.625 45.9443 161.221 45.9443V51.9443ZM171.821 56.637C174.284 59.7862 175.457 64.0693 174.974 69.8317L180.953 70.3323C181.526 63.4971 180.179 57.5849 176.548 52.9411L171.821 56.637ZM174.974 69.8396C174.504 75.6371 172.284 80.2109 168.35 83.7639L172.372 88.2165C177.521 83.5665 180.369 77.5348 180.954 70.3245L174.974 69.8396ZM168.358 83.7568C164.416 87.2921 159.671 89.0276 153.936 88.9233L153.827 94.9224C160.983 95.0525 167.225 92.8329 172.364 88.2237L168.358 83.7568ZM153.952 88.9237C150.61 88.8459 147.635 88.0742 144.976 86.6439L142.134 91.9283C145.685 93.8379 149.595 94.824 153.812 94.922L153.952 88.9237ZM144.986 86.6496C142.362 85.2251 140.382 83.3276 138.973 80.9466L133.81 84.0026C135.799 87.3638 138.595 90.0073 142.123 91.9227L144.986 86.6496ZM138.98 80.9581C137.572 78.5547 136.861 75.8557 136.887 72.7873L130.887 72.7381C130.853 76.8181 131.813 80.5937 133.803 83.9911L138.98 80.9581ZM133.887 75.7627H148.301V69.7627H133.887V75.7627ZM145.302 72.8396C145.372 75.5745 146.067 78.0908 147.657 80.1115L152.372 76.4002C151.795 75.667 151.347 74.5212 151.3 72.6858L145.302 72.8396ZM147.657 80.1115C149.361 82.2759 151.765 83.3263 154.495 83.4078L154.674 77.4105C153.479 77.3748 152.836 76.9897 152.372 76.4002L147.657 80.1115ZM154.475 83.4072C157.821 83.5296 160.692 82.2262 162.854 79.6631L158.269 75.7939C157.267 76.9809 156.153 77.4646 154.695 77.4112L154.475 83.4072ZM162.869 79.6456C164.981 77.1029 166.104 73.5524 166.575 69.41L160.613 68.7326C160.205 72.3246 159.306 74.5456 158.254 75.8115L162.869 79.6456ZM166.582 69.3405C166.902 65.7808 166.493 62.4753 164.731 59.9652L159.82 63.4118C160.402 64.2415 160.871 65.8579 160.606 68.8021L166.582 69.3405ZM164.745 59.9853C162.893 57.3001 160.027 56.1396 156.782 56.1396V62.1396C158.518 62.1396 159.314 62.6784 159.806 63.3917L164.745 59.9853ZM156.782 56.1396C152.829 56.1396 149.407 57.5193 146.795 60.3617L151.213 64.4215C152.585 62.9279 154.349 62.1396 156.782 62.1396V56.1396ZM149.714 59.4767L137.98 56.6203L136.561 62.45L148.294 65.3065L149.714 59.4767Z" fill="#EF3829"/>
</g>
<defs>
<filter id="filter0_f" x="12" y="81" width="156" height="26" filterUnits="userSpaceOnUse" color-interpolation-filters="sRGB">
<feFlood flood-opacity="0" result="BackgroundImageFix"/>
<feBlend mode="normal" in="SourceGraphic" in2="BackgroundImageFix" result="shape"/>
<feGaussianBlur stdDeviation="5" result="effect1_foregroundBlur"/>
</filter>
<clipPath id="clip0">
<rect width="277" height="105.82" fill="white"/>
</clipPath>
</defs>
</svg>
