<svg width="277" height="106" viewBox="0 0 277 106" fill="none" xmlns="http://www.w3.org/2000/svg">
<g clip-path="url(#clip0)">
<g clip-path="url(#clip1)">
<path d="M172.218 15.0728C173.005 15.2798 173.596 15.68 174.217 16.3837C174.777 17.0323 175.08 17.8602 175.05 18.6882V18.702V18.7158C175.05 18.7158 175.05 18.7296 175.065 18.7296C175.065 18.7296 175.065 18.7434 175.08 18.7434L175.096 18.7572C175.096 18.7572 175.111 18.7572 175.111 18.771H175.126H175.141C175.186 18.771 175.217 18.7434 175.217 18.702C175.217 18.702 175.217 18.702 175.217 18.6882C175.186 17.874 175.489 17.0323 176.05 16.3837C176.656 15.6662 177.262 15.2798 178.049 15.0728C178.095 15.059 178.11 15.0314 178.11 14.99C178.11 14.9486 178.079 14.921 178.049 14.921C177.246 14.7416 176.762 14.3138 176.247 13.817C175.747 13.3341 175.398 12.6993 175.232 11.9127C175.232 11.9127 175.232 11.9127 175.232 11.8989C175.232 11.8851 175.232 11.8851 175.217 11.8851C175.217 11.8851 175.217 11.8851 175.217 11.8713L175.202 11.8575C175.202 11.8575 175.202 11.8575 175.186 11.8575C175.186 11.8575 175.171 11.8575 175.171 11.8438H175.156H175.141C175.141 11.8438 175.126 11.8438 175.126 11.8575C175.126 11.8575 175.126 11.8575 175.111 11.8575L175.096 11.8713C175.096 11.8713 175.096 11.8713 175.096 11.8851C175.096 11.8851 175.096 11.8989 175.08 11.8989C175.08 11.8989 175.08 11.8989 175.08 11.9127C174.914 12.6993 174.565 13.3479 174.066 13.817C173.52 14.3138 173.02 14.7416 172.218 14.921C172.187 14.921 172.157 14.9486 172.157 14.99C172.157 15.0314 172.187 15.059 172.218 15.0728Z" fill="#954EDE"/>
</g>
<path d="M154.988 12.8834C154.801 12.9069 154.613 12.9771 154.449 13.0707C154.192 12.5557 153.607 12.2513 152.998 12.345C152.647 12.3918 152.342 12.5791 152.132 12.8366C151.851 12.6727 151.499 12.5791 151.148 12.6493C150.797 12.6961 150.493 12.8834 150.282 13.141C149.978 12.9537 149.65 12.8834 149.275 12.9303C148.526 13.0473 148.011 13.7263 148.105 14.4286C148.315 15.7163 148.386 16.325 148.432 16.5825C148.198 16.8635 148.081 17.2381 148.152 17.6127L148.479 19.6495C148.69 21.0308 149.65 22.2014 150.984 22.7867L152.061 29.6464C152.108 29.8805 152.319 30.021 152.576 29.9976C152.811 29.9507 152.998 29.74 152.951 29.5059L151.851 22.4355C151.827 22.295 151.734 22.1546 151.57 22.1077C150.399 21.6863 149.556 20.703 149.369 19.5324L149.041 17.4722C149.018 17.3083 149.065 17.1678 149.205 17.0508C149.205 17.0508 149.205 17.0508 149.229 17.0508C149.299 17.0039 149.392 16.9571 149.463 16.9337L151.851 16.5591C152.132 16.5123 152.366 16.6996 152.413 16.9337C152.459 17.1912 152.272 17.4254 151.991 17.4722L150.54 17.7063C150.423 17.7297 150.329 17.7765 150.259 17.8702C150.188 17.9638 150.165 18.0809 150.165 18.1745L150.376 19.5558C150.399 19.7197 150.54 19.8602 150.703 19.8836L152.857 20.3753C152.928 20.3987 152.974 20.3987 153.045 20.3753C153.209 20.3518 153.372 20.2348 153.419 20.0709C153.489 19.8368 153.349 19.6261 153.091 19.5558L151.219 19.111L151.101 18.4087L152.108 18.2448C152.74 18.1511 153.209 17.6595 153.279 17.0976C153.419 17.121 153.583 17.121 153.747 17.0976C154.098 17.0508 154.403 16.8635 154.613 16.6059C154.894 16.7698 155.245 16.8635 155.597 16.7932C155.76 16.7698 155.924 16.6996 156.065 16.6294L156.346 18.4321C156.603 20.1411 155.362 21.7331 153.56 22.0375C153.326 22.0843 153.138 22.295 153.185 22.5292C153.232 22.7633 153.443 22.9037 153.7 22.8803C154.332 22.7867 154.894 22.5526 155.386 22.2482L156.439 28.8972C156.486 29.1313 156.697 29.2718 156.954 29.2484C157.189 29.2016 157.376 28.9908 157.329 28.7567L156.205 21.5927C157.025 20.7264 157.446 19.5324 157.259 18.315L156.556 13.8902C156.439 13.2346 155.737 12.7664 154.988 12.8834ZM149.275 16.1143C149.205 15.6226 149.088 14.85 148.994 14.2882C148.948 14.0306 149.135 13.7965 149.416 13.7497C149.697 13.7029 149.931 13.8902 149.978 14.1243L150.259 15.9504L149.322 16.0909C149.322 16.1143 149.299 16.1143 149.275 16.1143ZM151.71 15.7397L151.148 15.8333L150.867 14.0072C150.821 13.7497 151.008 13.5156 151.289 13.4687C151.57 13.4219 151.804 13.6092 151.851 13.8433L152.155 15.7163C151.991 15.7163 151.851 15.7163 151.71 15.7397ZM153.63 16.325C153.349 16.3718 153.115 16.1845 153.068 15.9504L152.717 13.7029C152.67 13.4453 152.857 13.2112 153.138 13.1644C153.419 13.1176 153.653 13.3049 153.7 13.539L154.051 15.7865C154.075 16.0441 153.887 16.3016 153.63 16.325ZM155.479 16.0441C155.199 16.0909 154.964 15.9036 154.918 15.6695L154.683 14.2413C154.66 13.9838 154.847 13.7497 155.128 13.7029C155.409 13.656 155.643 13.8433 155.69 14.0775L155.924 15.5056C155.948 15.7631 155.76 15.9972 155.479 16.0441Z" fill="#FFDFFF"/>
<path d="M165.687 5.55559L165.43 3.86993C165.313 3.07392 164.517 2.51204 163.65 2.65251C163.393 2.69933 163.159 2.79298 162.971 2.93345C162.714 2.30133 162.011 1.90333 161.286 2.02039C160.841 2.09062 160.49 2.32474 160.256 2.6291C159.928 2.39498 159.506 2.30133 159.085 2.37156C158.64 2.4418 158.289 2.67592 158.055 2.98027C157.727 2.74616 157.306 2.65251 156.884 2.72274C156.041 2.86322 155.433 3.6124 155.573 4.43181C155.831 6.04724 155.924 6.74959 155.971 7.05395C155.69 7.38172 155.55 7.80313 155.62 8.22455L155.948 10.6594C156.205 12.2982 157.329 13.7029 158.944 14.3585L161.122 28.2417C161.169 28.4759 161.379 28.6163 161.637 28.5929C161.871 28.5461 162.058 28.3354 162.011 28.1013L159.787 13.9839C159.764 13.8434 159.67 13.7029 159.506 13.6561C158.078 13.141 157.048 11.947 156.837 10.5189L156.463 8.08407C156.439 7.87337 156.51 7.66266 156.674 7.49878C156.674 7.49878 156.697 7.49878 156.697 7.47536C156.791 7.40513 156.908 7.3583 157.025 7.33489L159.858 6.89007C160.232 6.84324 160.56 7.07736 160.63 7.40513C160.677 7.75631 160.419 8.08407 160.068 8.1309L158.336 8.41184C158.219 8.43525 158.125 8.48208 158.055 8.57572C157.985 8.66937 157.961 8.78643 157.961 8.88008L158.219 10.5189C158.242 10.6828 158.383 10.8233 158.546 10.8467L161.122 11.4554C161.192 11.4788 161.239 11.4788 161.309 11.4554C161.473 11.432 161.637 11.3149 161.684 11.151C161.754 10.9169 161.613 10.7062 161.356 10.636L159.062 10.0975L158.921 9.13761L160.209 8.9269C160.958 8.80984 161.496 8.22455 161.543 7.52219C161.731 7.56901 161.941 7.56901 162.152 7.5456C162.597 7.47536 162.948 7.24124 163.182 6.93689C163.51 7.17101 163.931 7.26466 164.353 7.19442C164.587 7.1476 164.821 7.07736 165.008 6.93689L165.359 9.23126C165.687 11.2915 164.165 13.2815 161.965 13.6093C161.731 13.6561 161.543 13.8668 161.59 14.1009C161.637 14.3351 161.848 14.4755 162.105 14.4521C162.878 14.3351 163.58 14.0307 164.189 13.6327L166.343 27.3521C166.389 27.5862 166.6 27.7267 166.858 27.7033C167.092 27.6564 167.279 27.4457 167.232 27.2116L164.985 12.9538C165.968 11.947 166.483 10.5423 166.249 9.09079L165.687 5.55559ZM156.744 6.53889C156.65 5.95359 156.51 4.9937 156.393 4.26793C156.346 3.91675 156.58 3.58898 156.954 3.54216C157.329 3.49534 157.657 3.72946 157.727 4.05722L158.078 6.32818L156.884 6.51547C156.837 6.51547 156.791 6.53889 156.744 6.53889ZM159.741 6.07065L158.968 6.18771L158.617 3.91675C158.57 3.56557 158.827 3.23781 159.179 3.19098C159.553 3.14416 159.881 3.37828 159.951 3.70604L160.326 6.07065C160.139 6.04724 159.928 6.04724 159.741 6.07065ZM162.011 6.77301C161.637 6.81983 161.309 6.58571 161.239 6.25794L160.841 3.58898C160.794 3.23781 161.052 2.91004 161.403 2.86322C161.777 2.81639 162.105 3.05051 162.175 3.37828L162.597 6.04724C162.644 6.39842 162.386 6.72618 162.011 6.77301ZM164.236 6.42183C163.861 6.46865 163.533 6.23453 163.463 5.90677L163.205 4.22111C163.159 3.86993 163.416 3.54216 163.767 3.49534C164.142 3.44851 164.47 3.68263 164.54 4.0104L164.797 5.69606C164.868 6.04724 164.61 6.375 164.236 6.42183Z" fill="#FFDFFF"/>
<path d="M153.894 12.8834C153.707 12.9069 153.519 12.9771 153.356 13.0707C153.098 12.5557 152.513 12.2513 151.904 12.345C151.553 12.3918 151.249 12.5791 151.038 12.8366C150.757 12.6727 150.406 12.5791 150.055 12.6493C149.703 12.6961 149.399 12.8834 149.188 13.141C148.884 12.9537 148.556 12.8834 148.182 12.9303C147.432 13.0473 146.917 13.7263 147.011 14.4286C147.222 15.7163 147.292 16.325 147.339 16.5825C147.105 16.8635 146.988 17.2381 147.058 17.6127L147.386 19.6495C147.596 21.0308 148.556 22.2014 149.891 22.7867L150.968 29.6464C151.014 29.8805 151.225 30.021 151.483 29.9976C151.717 29.9507 151.904 29.74 151.857 29.5059L150.757 22.4355C150.733 22.295 150.64 22.1546 150.476 22.1077C149.305 21.6863 148.463 20.703 148.275 19.5324L147.947 17.4722C147.924 17.3083 147.971 17.1678 148.111 17.0508C148.111 17.0508 148.111 17.0508 148.135 17.0508C148.205 17.0039 148.299 16.9571 148.369 16.9337L150.757 16.5591C151.038 16.5123 151.272 16.6996 151.319 16.9337C151.366 17.1912 151.178 17.4254 150.897 17.4722L149.446 17.7063C149.329 17.7297 149.235 17.7765 149.165 17.8702C149.095 17.9638 149.071 18.0809 149.071 18.1745L149.282 19.5558C149.305 19.7197 149.446 19.8602 149.61 19.8836L151.764 20.3753C151.834 20.3987 151.881 20.3987 151.951 20.3753C152.115 20.3518 152.279 20.2348 152.325 20.0709C152.396 19.8368 152.255 19.6261 151.998 19.5558L150.125 19.111L150.008 18.4087L151.014 18.2448C151.647 18.1511 152.115 17.6595 152.185 17.0976C152.325 17.121 152.489 17.121 152.653 17.0976C153.004 17.0508 153.309 16.8635 153.519 16.6059C153.8 16.7698 154.152 16.8635 154.503 16.7932C154.667 16.7698 154.831 16.6996 154.971 16.6294L155.252 18.4321C155.51 20.1411 154.269 21.7331 152.466 22.0375C152.232 22.0843 152.045 22.295 152.091 22.5292C152.138 22.7633 152.349 22.9037 152.606 22.8803C153.239 22.7867 153.8 22.5526 154.292 22.2482L155.346 28.8972C155.392 29.1313 155.603 29.2718 155.861 29.2484C156.095 29.2016 156.282 28.9908 156.235 28.7567L155.112 21.5927C155.931 20.7264 156.352 19.5324 156.165 18.315L155.463 13.8902C155.346 13.2346 154.643 12.7664 153.894 12.8834ZM148.182 16.1143C148.111 15.6226 147.994 14.85 147.901 14.2882C147.854 14.0306 148.041 13.7965 148.322 13.7497C148.603 13.7029 148.837 13.8902 148.884 14.1243L149.165 15.9504L148.228 16.0909C148.228 16.1143 148.205 16.1143 148.182 16.1143ZM150.616 15.7397L150.055 15.8333L149.774 14.0072C149.727 13.7497 149.914 13.5156 150.195 13.4687C150.476 13.4219 150.71 13.6092 150.757 13.8433L151.061 15.7163C150.897 15.7163 150.757 15.7163 150.616 15.7397ZM152.536 16.325C152.255 16.3718 152.021 16.1845 151.974 15.9504L151.623 13.7029C151.576 13.4453 151.764 13.2112 152.045 13.1644C152.325 13.1176 152.56 13.3049 152.606 13.539L152.958 15.7865C152.981 16.0441 152.794 16.3016 152.536 16.325ZM154.386 16.0441C154.105 16.0909 153.871 15.9036 153.824 15.6695L153.59 14.2413C153.566 13.9838 153.754 13.7497 154.035 13.7029C154.316 13.656 154.55 13.8433 154.596 14.0775L154.831 15.5056C154.854 15.7631 154.667 15.9972 154.386 16.0441Z" fill="#954EDE"/>
<path d="M164.593 5.55559L164.336 3.86993C164.219 3.07392 163.423 2.51204 162.557 2.65251C162.299 2.69933 162.065 2.79298 161.878 2.93345C161.62 2.30133 160.918 1.90333 160.192 2.02039C159.747 2.09062 159.396 2.32474 159.162 2.6291C158.834 2.39498 158.413 2.30133 157.991 2.37156C157.546 2.4418 157.195 2.67592 156.961 2.98027C156.633 2.74616 156.212 2.65251 155.79 2.72274C154.948 2.86322 154.339 3.6124 154.479 4.43181C154.737 6.04724 154.831 6.74959 154.877 7.05395C154.596 7.38172 154.456 7.80313 154.526 8.22455L154.854 10.6594C155.112 12.2982 156.235 13.7029 157.851 14.3585L160.028 28.2417C160.075 28.4759 160.286 28.6163 160.543 28.5929C160.777 28.5461 160.965 28.3354 160.918 28.1013L158.694 13.9839C158.67 13.8434 158.577 13.7029 158.413 13.6561C156.985 13.141 155.954 11.947 155.744 10.5189L155.369 8.08407C155.346 7.87337 155.416 7.66266 155.58 7.49878C155.58 7.49878 155.603 7.49878 155.603 7.47536C155.697 7.40513 155.814 7.3583 155.931 7.33489L158.764 6.89007C159.138 6.84324 159.466 7.07736 159.536 7.40513C159.583 7.75631 159.326 8.08407 158.975 8.1309L157.242 8.41184C157.125 8.43525 157.031 8.48208 156.961 8.57572C156.891 8.66937 156.867 8.78643 156.867 8.88008L157.125 10.5189C157.148 10.6828 157.289 10.8233 157.453 10.8467L160.028 11.4554C160.098 11.4788 160.145 11.4788 160.215 11.4554C160.379 11.432 160.543 11.3149 160.59 11.151C160.66 10.9169 160.52 10.7062 160.262 10.636L157.968 10.0975L157.827 9.13761L159.115 8.9269C159.864 8.80984 160.403 8.22455 160.449 7.52219C160.637 7.56901 160.847 7.56901 161.058 7.5456C161.503 7.47536 161.854 7.24124 162.088 6.93689C162.416 7.17101 162.837 7.26466 163.259 7.19442C163.493 7.1476 163.727 7.07736 163.914 6.93689L164.266 9.23126C164.593 11.2915 163.072 13.2815 160.871 13.6093C160.637 13.6561 160.449 13.8668 160.496 14.1009C160.543 14.3351 160.754 14.4755 161.011 14.4521C161.784 14.3351 162.486 14.0307 163.095 13.6327L165.249 27.3521C165.296 27.5862 165.506 27.7267 165.764 27.7033C165.998 27.6564 166.185 27.4457 166.139 27.2116L163.891 12.9538C164.874 11.947 165.389 10.5423 165.155 9.09079L164.593 5.55559ZM155.65 6.53889C155.556 5.95359 155.416 4.9937 155.299 4.26793C155.252 3.91675 155.486 3.58898 155.861 3.54216C156.235 3.49534 156.563 3.72946 156.633 4.05722L156.985 6.32818L155.79 6.51547C155.744 6.51547 155.697 6.53889 155.65 6.53889ZM158.647 6.07065L157.874 6.18771L157.523 3.91675C157.476 3.56557 157.734 3.23781 158.085 3.19098C158.459 3.14416 158.787 3.37828 158.857 3.70604L159.232 6.07065C159.045 6.04724 158.834 6.04724 158.647 6.07065ZM160.918 6.77301C160.543 6.81983 160.215 6.58571 160.145 6.25794L159.747 3.58898C159.7 3.23781 159.958 2.91004 160.309 2.86322C160.684 2.81639 161.011 3.05051 161.082 3.37828L161.503 6.04724C161.55 6.39842 161.292 6.72618 160.918 6.77301ZM163.142 6.42183C162.767 6.46865 162.439 6.23453 162.369 5.90677L162.112 4.22111C162.065 3.86993 162.322 3.54216 162.674 3.49534C163.048 3.44851 163.376 3.68263 163.446 4.0104L163.704 5.69606C163.774 6.04724 163.516 6.375 163.142 6.42183Z" fill="#954EDE"/>
<g filter="url(#filter0_f)">
<ellipse cx="101" cy="94" rx="68" ry="3" fill="#C4C4C4" fill-opacity="0.5"/>
</g>
<path d="M200.71 88.3779C199.909 89.3154 198.742 90.043 197.209 90.5605C195.676 91.0684 193.977 91.3076 192.111 91.2783C190.324 91.2588 188.815 90.8096 187.585 89.9307C186.354 89.0518 185.476 87.8262 184.948 86.2539C184.421 84.6816 184.279 82.9092 184.523 80.9365L184.641 80.0576C185.09 76.7471 186.252 74.125 188.127 72.1914C190.012 70.2578 192.316 69.3154 195.041 69.3643C197.424 69.4033 199.255 70.043 200.534 71.2832C201.813 72.5234 202.526 74.3154 202.673 76.6592L197.868 76.6445C197.8 75.502 197.517 74.667 197.019 74.1396C196.53 73.6123 195.832 73.334 194.924 73.3047C193.576 73.2559 192.463 73.7881 191.584 74.9014C190.705 76.0049 190.104 77.5869 189.782 79.6475C189.509 81.4053 189.411 82.7725 189.489 83.749C189.636 86.1025 190.695 87.2939 192.668 87.3232C193.859 87.3428 194.904 87.0547 195.803 86.459L196.462 83.1338H192.99L193.605 79.6035H202.087L200.71 88.3779ZM208.356 91H203.347L207.053 69.6719H212.048L208.356 91ZM229.626 88.3779C228.825 89.3154 227.658 90.043 226.125 90.5605C224.592 91.0684 222.893 91.3076 221.027 91.2783C219.24 91.2588 217.731 90.8096 216.501 89.9307C215.271 89.0518 214.392 87.8262 213.864 86.2539C213.337 84.6816 213.195 82.9092 213.439 80.9365L213.557 80.0576C214.006 76.7471 215.168 74.125 217.043 72.1914C218.928 70.2578 221.232 69.3154 223.957 69.3643C226.34 69.4033 228.171 70.043 229.45 71.2832C230.729 72.5234 231.442 74.3154 231.589 76.6592L226.784 76.6445C226.716 75.502 226.433 74.667 225.935 74.1396C225.446 73.6123 224.748 73.334 223.84 73.3047C222.492 73.2559 221.379 73.7881 220.5 74.9014C219.621 76.0049 219.021 77.5869 218.698 79.6475C218.425 81.4053 218.327 82.7725 218.405 83.749C218.552 86.1025 219.611 87.2939 221.584 87.3232C222.775 87.3428 223.82 87.0547 224.719 86.459L225.378 83.1338H221.906L222.521 79.6035H231.003L229.626 88.3779ZM244.45 87.0156H237.639L235.749 91H230.227L241.521 69.6719H246.237L250.178 91H244.963L244.45 87.0156ZM239.514 83.0459H243.938L243 75.6924L239.514 83.0459ZM263.625 85.2285C263.84 84.125 263.244 83.2705 261.838 82.665L259.436 81.6689C256.066 80.1553 254.465 78.0947 254.631 75.4873C254.699 74.2959 255.109 73.2363 255.861 72.3086C256.613 71.3711 257.653 70.6436 258.981 70.126C260.31 69.6084 261.76 69.3594 263.332 69.3789C265.441 69.418 267.136 70.0332 268.415 71.2246C269.704 72.416 270.339 74.0127 270.319 76.0146H265.339C265.368 75.1943 265.192 74.54 264.812 74.0518C264.44 73.5537 263.825 73.2949 262.966 73.2754C262.126 73.2559 261.384 73.4512 260.739 73.8613C260.095 74.2715 259.714 74.8232 259.597 75.5166C259.411 76.4932 260.134 77.2939 261.765 77.9189C263.405 78.5439 264.597 79.0811 265.339 79.5303C267.673 80.9268 268.767 82.8115 268.62 85.1846C268.542 86.415 268.146 87.4941 267.434 88.4219C266.721 89.3496 265.729 90.0674 264.46 90.5752C263.2 91.083 261.784 91.3271 260.212 91.3076C259.06 91.2881 257.99 91.1074 257.004 90.7656C256.018 90.4238 255.173 89.9258 254.47 89.2715C253.044 87.9531 252.36 86.2197 252.419 84.0713L257.443 84.0859C257.385 85.1797 257.595 86.0098 258.073 86.5762C258.552 87.1328 259.357 87.4111 260.49 87.4111C261.33 87.4111 262.028 87.2207 262.585 86.8398C263.151 86.4492 263.498 85.9121 263.625 85.2285Z" fill="#BBBBBB"/>
<path d="M58.1133 92H43.6113L51.7852 44.9785L36.8877 49.1973L38.9092 37.4639L67.21 28.0156L68.8359 27.9717L58.1133 92ZM96.6973 53.8115L103.157 53.8555C105.794 53.7969 107.962 53.0352 109.661 51.5703C111.36 50.0762 112.371 47.9961 112.693 45.3301C112.928 43.3379 112.532 41.6973 111.507 40.4082C110.481 39.1191 108.943 38.46 106.893 38.4307C104.988 38.3721 103.304 38.8994 101.839 40.0127C100.374 41.126 99.4365 42.6055 99.0264 44.4512L84.5244 44.5391C84.7002 41.082 85.8135 38.0205 87.8643 35.3545C89.915 32.6885 92.6396 30.6377 96.0381 29.2021C99.4658 27.7373 103.143 27.0195 107.068 27.0488C113.514 27.1953 118.582 28.8945 122.273 32.1465C125.965 35.3691 127.649 39.6758 127.327 45.0664C126.946 51.1016 123.006 55.877 115.506 59.3926C118.348 60.7988 120.472 62.7471 121.878 65.2373C123.284 67.7275 123.914 70.54 123.768 73.6748C123.562 77.6006 122.317 81.0283 120.032 83.958C117.747 86.8584 114.686 89.0996 110.848 90.6816C107.01 92.2344 102.894 92.9668 98.499 92.8789C94.6611 92.8496 91.1748 92.0439 88.04 90.4619C84.9346 88.8506 82.5469 86.6387 80.877 83.8262C79.207 81.0137 78.3867 77.791 78.416 74.1582H92.8301C92.8594 76.2383 93.4746 77.9521 94.6758 79.2998C95.877 80.6475 97.5615 81.3506 99.7295 81.4092C102.161 81.4678 104.314 80.75 106.189 79.2559C108.064 77.7617 109.178 75.7988 109.529 73.3672C109.881 70.7598 109.485 68.7236 108.343 67.2588C107.229 65.7646 105.354 64.9736 102.718 64.8857L94.9834 64.8418L96.6973 53.8115ZM134.271 60.5352L143.147 28.0156H179.622L177.776 39.5293H153.299L149.388 52.3174C151.761 50.7939 154.705 50.0029 158.221 49.9443C163.846 49.9443 168.167 51.8926 171.185 55.7891C174.231 59.6855 175.491 64.7832 174.964 71.082C174.437 77.5859 171.902 82.8887 167.361 86.9902C162.82 91.0625 157.327 93.04 150.882 92.9229C147.103 92.835 143.66 91.9561 140.555 90.2861C137.479 88.6162 135.091 86.3457 133.392 83.4746C131.692 80.5742 130.857 77.3369 130.887 73.7627H145.301C145.359 76.0479 145.931 77.8789 147.015 79.2559C148.099 80.6328 149.622 81.3506 151.585 81.4092C153.987 81.4971 155.979 80.6035 157.562 78.7285C159.144 76.8242 160.154 73.9385 160.594 70.0713C160.887 66.8193 160.447 64.3584 159.275 62.6885C158.104 60.9893 156.272 60.1396 153.782 60.1396C150.589 60.1396 147.996 61.2236 146.004 63.3916L134.271 60.5352Z" fill="#EF3829"/>
<path d="M58.1133 92V95H60.6527L61.0721 92.4955L58.1133 92ZM43.6113 92L40.6557 91.4862L40.0448 95H43.6113V92ZM51.7852 44.9785L54.7408 45.4923L55.5579 40.7922L50.9677 42.092L51.7852 44.9785ZM36.8877 49.1973L33.9313 48.6879L33.1226 53.3815L37.7051 52.0838L36.8877 49.1973ZM38.9092 37.4639L37.9592 34.6183L36.2574 35.1864L35.9527 36.9545L38.9092 37.4639ZM67.21 28.0156L67.1289 25.0167L66.683 25.0288L66.26 25.17L67.21 28.0156ZM68.8359 27.9717L71.7947 28.4672L72.3964 24.8744L68.7549 24.9728L68.8359 27.9717ZM58.1133 89H43.6113V95H58.1133V89ZM46.567 92.5138L54.7408 45.4923L48.8295 44.4647L40.6557 91.4862L46.567 92.5138ZM50.9677 42.092L36.0703 46.3108L37.7051 52.0838L52.6026 47.865L50.9677 42.092ZM39.8441 49.7066L41.8656 37.9732L35.9527 36.9545L33.9313 48.6879L39.8441 49.7066ZM39.8592 40.3095L68.16 30.8612L66.26 25.17L37.9592 34.6183L39.8592 40.3095ZM67.291 31.0145L68.917 30.9706L68.7549 24.9728L67.1289 25.0167L67.291 31.0145ZM65.8771 27.4762L55.1545 91.5045L61.0721 92.4955L71.7947 28.4672L65.8771 27.4762ZM96.6973 53.8115L96.7177 50.8116L94.1301 50.794L93.7328 53.3509L96.6973 53.8115ZM103.157 53.8555L103.137 56.8554L103.18 56.8557L103.224 56.8547L103.157 53.8555ZM109.661 51.5703L111.62 53.8425L111.631 53.8329L111.642 53.8232L109.661 51.5703ZM112.693 45.3301L115.672 45.6901L115.673 45.6806L112.693 45.3301ZM106.893 38.4307L106.8 41.4292L106.825 41.43L106.85 41.4304L106.893 38.4307ZM99.0264 44.4512L99.0445 47.4511L101.436 47.4366L101.955 45.102L99.0264 44.4512ZM84.5244 44.5391L81.5283 44.3867L81.367 47.5583L84.5426 47.539L84.5244 44.5391ZM96.0381 29.2021L97.2055 31.9657L97.217 31.9608L96.0381 29.2021ZM107.068 27.0488L107.137 24.0496L107.114 24.0491L107.091 24.0489L107.068 27.0488ZM122.273 32.1465L120.29 34.3976L120.3 34.4064L122.273 32.1465ZM127.327 45.0664L130.321 45.2554L130.322 45.2454L127.327 45.0664ZM115.506 59.3926L114.233 56.6762L108.594 59.3194L114.175 62.0814L115.506 59.3926ZM123.768 73.6748L126.763 73.8313L126.764 73.8231L126.764 73.8148L123.768 73.6748ZM120.032 83.958L122.389 85.8146L122.393 85.8089L122.398 85.8031L120.032 83.958ZM110.848 90.6816L111.973 93.4627L111.982 93.459L111.991 93.4552L110.848 90.6816ZM98.499 92.8789L98.559 89.8795L98.5405 89.8791L98.5219 89.879L98.499 92.8789ZM88.04 90.4619L86.6584 93.1248L86.6733 93.1326L86.6884 93.1402L88.04 90.4619ZM78.416 74.1582V71.1582H75.4401L75.4161 74.134L78.416 74.1582ZM92.8301 74.1582L95.8298 74.116L95.7881 71.1582H92.8301V74.1582ZM99.7295 81.4092L99.6484 84.4081L99.6572 84.4083L99.7295 81.4092ZM109.529 73.3672L112.498 73.7965L112.5 73.7823L112.502 73.7681L109.529 73.3672ZM108.343 67.2588L105.937 69.0512L105.957 69.0778L105.977 69.1039L108.343 67.2588ZM102.718 64.8857L102.818 61.8874L102.776 61.886L102.735 61.8858L102.718 64.8857ZM94.9834 64.8418L92.019 64.3812L91.4843 67.822L94.9664 67.8417L94.9834 64.8418ZM96.6769 56.8115L103.137 56.8554L103.178 50.8555L96.7177 50.8116L96.6769 56.8115ZM103.224 56.8547C106.429 56.7835 109.304 55.839 111.62 53.8425L107.702 49.2981C106.62 50.2313 105.159 50.8102 103.091 50.8562L103.224 56.8547ZM111.642 53.8232C113.995 51.7539 115.278 48.9438 115.672 45.6901L109.715 44.9701C109.464 47.0484 108.725 48.3984 107.68 49.3174L111.642 53.8232ZM115.673 45.6806C115.979 43.0789 115.483 40.5871 113.855 38.5406L109.159 42.2758C109.582 42.8074 109.877 43.5969 109.714 44.9796L115.673 45.6806ZM113.855 38.5406C112.135 36.3787 109.644 35.4697 106.935 35.431L106.85 41.4304C108.242 41.4503 108.828 41.8596 109.159 42.2758L113.855 38.5406ZM106.985 35.4321C104.42 35.3532 102.056 36.0794 100.024 37.6242L103.654 42.4012C104.551 41.7195 105.557 41.391 106.8 41.4292L106.985 35.4321ZM100.024 37.6242C97.977 39.1796 96.6572 41.2829 96.0978 43.8004L101.955 45.102C102.216 43.928 102.771 43.0723 103.654 42.4012L100.024 37.6242ZM99.0082 41.4512L84.5062 41.5391L84.5426 47.539L99.0445 47.4511L99.0082 41.4512ZM87.5205 44.6914C87.6663 41.8243 88.5744 39.3517 90.2421 37.1836L85.4864 33.5254C83.0526 36.6893 81.7341 40.3398 81.5283 44.3867L87.5205 44.6914ZM90.2421 37.1836C91.9469 34.9674 94.237 33.2196 97.2055 31.9657L94.8707 26.4386C91.0423 28.0558 87.8832 30.4096 85.4864 33.5254L90.2421 37.1836ZM97.217 31.9608C100.245 30.6667 103.511 30.0224 107.046 30.0487L107.091 24.0489C102.775 24.0167 98.6865 24.8079 94.8592 26.4435L97.217 31.9608ZM107 30.0481C112.961 30.1835 117.275 31.7413 120.29 34.3976L124.257 29.8954C119.889 26.0478 114.066 24.2071 107.137 24.0496L107 30.0481ZM120.3 34.4064C123.214 36.95 124.606 40.3155 124.332 44.8874L130.322 45.2454C130.693 39.036 128.716 33.7883 124.246 29.8865L120.3 34.4064ZM124.333 44.8775C124.046 49.4254 121.158 53.4299 114.233 56.6762L116.779 62.109C124.854 58.324 129.846 52.7777 130.321 45.2554L124.333 44.8775ZM114.175 62.0814C116.539 63.251 118.187 64.8025 119.266 66.7125L124.49 63.7621C122.756 60.6917 120.156 58.3467 116.836 56.7038L114.175 62.0814ZM119.266 66.7125C120.368 68.6639 120.894 70.907 120.771 73.5348L126.764 73.8148C126.934 70.1731 126.201 66.7912 124.49 63.7621L119.266 66.7125ZM120.772 73.5183C120.597 76.8676 119.551 79.6971 117.667 82.1129L122.398 85.8031C125.084 82.3595 126.528 78.3335 126.763 73.8313L120.772 73.5183ZM117.676 82.1014C115.748 84.5487 113.126 86.4976 109.704 87.908L111.991 93.4552C116.245 91.7017 119.747 89.1681 122.389 85.8146L117.676 82.1014ZM109.723 87.9006C106.284 89.2919 102.573 89.9598 98.559 89.8795L98.439 95.8783C103.214 95.9738 107.736 95.1768 111.973 93.4627L109.723 87.9006ZM98.5219 89.879C95.1021 89.8529 92.0769 89.1388 89.3917 87.7837L86.6884 93.1402C90.2727 94.9491 94.2201 95.8463 98.4761 95.8788L98.5219 89.879ZM89.4217 87.799C86.7772 86.4269 84.8205 84.5918 83.4565 82.2946L78.2974 85.3578C80.2733 88.6856 83.0919 91.2743 86.6584 93.1248L89.4217 87.799ZM83.4565 82.2946C82.0962 80.0034 81.3905 77.3303 81.4159 74.1824L75.4161 74.134C75.3829 78.2518 76.3179 82.0239 78.2974 85.3578L83.4565 82.2946ZM78.416 77.1582H92.8301V71.1582H78.416V77.1582ZM89.8304 74.2005C89.8682 76.8854 90.6826 79.3285 92.4362 81.2959L96.9153 77.3037C96.2666 76.5758 95.8506 75.5911 95.8298 74.116L89.8304 74.2005ZM92.4362 81.2959C94.2971 83.3838 96.8334 84.332 99.6484 84.4081L99.8105 78.4103C98.2897 78.3692 97.4568 77.9112 96.9153 77.3037L92.4362 81.2959ZM99.6572 84.4083C102.782 84.4836 105.625 83.5419 108.059 81.602L104.32 76.9097C103.004 77.9581 101.541 78.452 99.8018 78.4101L99.6572 84.4083ZM108.059 81.602C110.547 79.6192 112.041 76.9629 112.498 73.7965L106.56 72.9379C106.315 74.6347 105.582 75.9042 104.32 76.9097L108.059 81.602ZM112.502 73.7681C112.916 70.6983 112.524 67.741 110.708 65.4137L105.977 69.1039C106.447 69.7062 106.845 70.8212 106.556 72.9663L112.502 73.7681ZM110.748 65.4663C108.89 62.9719 105.969 61.9924 102.818 61.8874L102.618 67.8841C104.74 67.9548 105.569 68.5574 105.937 69.0512L110.748 65.4663ZM102.735 61.8858L95.0004 61.8418L94.9664 67.8417L102.701 67.8857L102.735 61.8858ZM97.9478 65.3024L99.6617 54.2721L93.7328 53.3509L92.019 64.3812L97.9478 65.3024ZM134.271 60.5352L131.376 59.7451L130.564 62.7205L133.561 63.45L134.271 60.5352ZM143.147 28.0156V25.0156H140.857L140.253 27.2256L143.147 28.0156ZM179.622 28.0156L182.584 28.4905L183.141 25.0156H179.622V28.0156ZM177.776 39.5293V42.5293H180.334L180.739 40.0042L177.776 39.5293ZM153.299 39.5293V36.5293H151.079L150.43 38.6519L153.299 39.5293ZM149.388 52.3174L146.519 51.44L144.127 59.2594L151.008 54.8419L149.388 52.3174ZM158.221 49.9443V46.9443H158.196L158.171 46.9448L158.221 49.9443ZM171.185 55.7891L168.813 57.626L168.821 57.637L171.185 55.7891ZM174.964 71.082L171.974 70.8317L171.974 70.8396L174.964 71.082ZM167.361 86.9902L169.364 89.2237L169.372 89.2165L167.361 86.9902ZM150.882 92.9229L150.812 95.922L150.82 95.9222L150.827 95.9224L150.882 92.9229ZM140.555 90.2861L139.123 92.9227L139.134 92.9283L140.555 90.2861ZM133.392 83.4746L130.803 84.9911L130.81 85.0026L133.392 83.4746ZM130.887 73.7627V70.7627H127.911L127.887 73.7381L130.887 73.7627ZM145.301 73.7627L148.3 73.6858L148.225 70.7627H145.301V73.7627ZM151.585 81.4092L151.695 78.4112L151.685 78.4108L151.674 78.4105L151.585 81.4092ZM157.562 78.7285L159.854 80.6631L159.862 80.6544L159.869 80.6456L157.562 78.7285ZM160.594 70.0713L163.575 70.41L163.579 70.3753L163.582 70.3405L160.594 70.0713ZM159.275 62.6885L156.806 64.3917L156.813 64.4017L156.82 64.4118L159.275 62.6885ZM146.004 63.3916L145.294 66.3065L147.015 66.7253L148.213 65.4215L146.004 63.3916ZM137.165 61.3252L146.042 28.8056L140.253 27.2256L131.376 59.7451L137.165 61.3252ZM143.147 31.0156H179.622V25.0156H143.147V31.0156ZM176.66 27.5408L174.814 39.0544L180.739 40.0042L182.584 28.4905L176.66 27.5408ZM177.776 36.5293H153.299V42.5293H177.776V36.5293ZM150.43 38.6519L146.519 51.44L152.257 53.1948L156.168 40.4067L150.43 38.6519ZM151.008 54.8419C152.809 53.686 155.176 52.9955 158.271 52.9439L158.171 46.9448C154.235 47.0104 150.713 47.9019 147.767 49.7928L151.008 54.8419ZM158.221 52.9443C163.067 52.9443 166.449 54.5733 168.813 57.6259L173.556 53.9522C169.885 49.2118 164.625 46.9443 158.221 46.9443V52.9443ZM168.821 57.637C171.284 60.7862 172.457 65.0693 171.974 70.8317L177.953 71.3323C178.526 64.4971 177.179 58.5849 173.548 53.9411L168.821 57.637ZM171.974 70.8396C171.504 76.6371 169.284 81.2109 165.35 84.7639L169.372 89.2165C174.521 84.5665 177.369 78.5348 177.954 71.3245L171.974 70.8396ZM165.358 84.7568C161.416 88.2921 156.671 90.0276 150.936 89.9233L150.827 95.9224C157.983 96.0525 164.225 93.8329 169.364 89.2237L165.358 84.7568ZM150.952 89.9237C147.61 89.8459 144.635 89.0742 141.976 87.6439L139.134 92.9283C142.685 94.8379 146.595 95.824 150.812 95.922L150.952 89.9237ZM141.986 87.6496C139.362 86.2251 137.382 84.3276 135.973 81.9466L130.81 85.0026C132.799 88.3638 135.595 91.0073 139.123 92.9227L141.986 87.6496ZM135.98 81.9581C134.572 79.5547 133.861 76.8557 133.887 73.7873L127.887 73.7381C127.853 77.8181 128.813 81.5937 130.803 84.9911L135.98 81.9581ZM130.887 76.7627H145.301V70.7627H130.887V76.7627ZM142.302 73.8396C142.372 76.5745 143.067 79.0908 144.657 81.1115L149.372 77.4002C148.795 76.667 148.347 75.5212 148.3 73.6858L142.302 73.8396ZM144.657 81.1115C146.361 83.2759 148.765 84.3263 151.495 84.4078L151.674 78.4105C150.479 78.3748 149.836 77.9897 149.372 77.4002L144.657 81.1115ZM151.475 84.4072C154.821 84.5296 157.692 83.2262 159.854 80.6631L155.269 76.7939C154.267 77.9809 153.153 78.4646 151.695 78.4112L151.475 84.4072ZM159.869 80.6456C161.981 78.1029 163.104 74.5524 163.575 70.41L157.613 69.7326C157.205 73.3246 156.306 75.5456 155.254 76.8115L159.869 80.6456ZM163.582 70.3405C163.902 66.7808 163.493 63.4753 161.731 60.9652L156.82 64.4118C157.402 65.2415 157.871 66.8579 157.606 69.8021L163.582 70.3405ZM161.745 60.9853C159.893 58.3001 157.027 57.1396 153.782 57.1396V63.1396C155.518 63.1396 156.314 63.6784 156.806 64.3917L161.745 60.9853ZM153.782 57.1396C149.829 57.1396 146.407 58.5193 143.795 61.3617L148.213 65.4215C149.585 63.9279 151.349 63.1396 153.782 63.1396V57.1396ZM146.714 60.4767L134.98 57.6203L133.561 63.45L145.294 66.3065L146.714 60.4767Z" fill="#EF3829"/>
<path d="M200.71 88.3779C199.909 89.3154 198.742 90.043 197.209 90.5605C195.676 91.0684 193.977 91.3076 192.111 91.2783C190.324 91.2588 188.815 90.8096 187.585 89.9307C186.354 89.0518 185.476 87.8262 184.948 86.2539C184.421 84.6816 184.279 82.9092 184.523 80.9365L184.641 80.0576C185.09 76.7471 186.252 74.125 188.127 72.1914C190.012 70.2578 192.316 69.3154 195.041 69.3643C197.424 69.4033 199.255 70.043 200.534 71.2832C201.813 72.5234 202.526 74.3154 202.673 76.6592L197.868 76.6445C197.8 75.502 197.517 74.667 197.019 74.1396C196.53 73.6123 195.832 73.334 194.924 73.3047C193.576 73.2559 192.463 73.7881 191.584 74.9014C190.705 76.0049 190.104 77.5869 189.782 79.6475C189.509 81.4053 189.411 82.7725 189.489 83.749C189.636 86.1025 190.695 87.2939 192.668 87.3232C193.859 87.3428 194.904 87.0547 195.803 86.459L196.462 83.1338H192.99L193.605 79.6035H202.087L200.71 88.3779ZM208.356 91H203.347L207.053 69.6719H212.048L208.356 91ZM229.626 88.3779C228.825 89.3154 227.658 90.043 226.125 90.5605C224.592 91.0684 222.893 91.3076 221.027 91.2783C219.24 91.2588 217.731 90.8096 216.501 89.9307C215.271 89.0518 214.392 87.8262 213.864 86.2539C213.337 84.6816 213.195 82.9092 213.439 80.9365L213.557 80.0576C214.006 76.7471 215.168 74.125 217.043 72.1914C218.928 70.2578 221.232 69.3154 223.957 69.3643C226.34 69.4033 228.171 70.043 229.45 71.2832C230.729 72.5234 231.442 74.3154 231.589 76.6592L226.784 76.6445C226.716 75.502 226.433 74.667 225.935 74.1396C225.446 73.6123 224.748 73.334 223.84 73.3047C222.492 73.2559 221.379 73.7881 220.5 74.9014C219.621 76.0049 219.021 77.5869 218.698 79.6475C218.425 81.4053 218.327 82.7725 218.405 83.749C218.552 86.1025 219.611 87.2939 221.584 87.3232C222.775 87.3428 223.82 87.0547 224.719 86.459L225.378 83.1338H221.906L222.521 79.6035H231.003L229.626 88.3779ZM244.45 87.0156H237.639L235.749 91H230.227L241.521 69.6719H246.237L250.178 91H244.963L244.45 87.0156ZM239.514 83.0459H243.938L243 75.6924L239.514 83.0459ZM263.625 85.2285C263.84 84.125 263.244 83.2705 261.838 82.665L259.436 81.6689C256.066 80.1553 254.465 78.0947 254.631 75.4873C254.699 74.2959 255.109 73.2363 255.861 72.3086C256.613 71.3711 257.653 70.6436 258.981 70.126C260.31 69.6084 261.76 69.3594 263.332 69.3789C265.441 69.418 267.136 70.0332 268.415 71.2246C269.704 72.416 270.339 74.0127 270.319 76.0146H265.339C265.368 75.1943 265.192 74.54 264.812 74.0518C264.44 73.5537 263.825 73.2949 262.966 73.2754C262.126 73.2559 261.384 73.4512 260.739 73.8613C260.095 74.2715 259.714 74.8232 259.597 75.5166C259.411 76.4932 260.134 77.2939 261.765 77.9189C263.405 78.5439 264.597 79.0811 265.339 79.5303C267.673 80.9268 268.767 82.8115 268.62 85.1846C268.542 86.415 268.146 87.4941 267.434 88.4219C266.721 89.3496 265.729 90.0674 264.46 90.5752C263.2 91.083 261.784 91.3271 260.212 91.3076C259.06 91.2881 257.99 91.1074 257.004 90.7656C256.018 90.4238 255.173 89.9258 254.47 89.2715C253.044 87.9531 252.36 86.2197 252.419 84.0713L257.443 84.0859C257.385 85.1797 257.595 86.0098 258.073 86.5762C258.552 87.1328 259.357 87.4111 260.49 87.4111C261.33 87.4111 262.028 87.2207 262.585 86.8398C263.151 86.4492 263.498 85.9121 263.625 85.2285Z" fill="#BBBBBB"/>
<g clip-path="url(#clip2)">
<path d="M29.0956 12.9973C28.8326 13.1814 28.596 13.4181 28.4119 13.6811C28.2804 13.8652 25.9398 17.7574 25.9398 17.7574C24.1515 20.7292 21.8109 23.2538 19.0232 25.2788L17.6557 26.2782C14.8154 28.3558 14.158 32.3269 16.183 35.1409C17.1823 36.5084 18.655 37.4025 20.3119 37.6918C21.2323 37.8496 22.1791 37.7707 23.0469 37.534L24.8878 40.085C24.993 40.2165 25.1245 40.2954 25.2823 40.3217C25.4138 40.348 25.5716 40.3217 25.7031 40.2428L28.3067 43.8194C28.78 44.4769 29.4901 44.8977 30.2528 45.0029C31.0154 45.1344 31.8044 44.9503 32.4619 44.4769C33.7768 43.5038 34.0924 41.6366 33.1193 40.3217L30.5158 36.7188L30.9891 36.3769C31.1206 36.2717 31.1995 36.1402 31.2258 35.9824C31.2521 35.8246 31.1995 35.6668 31.1206 35.5353L29.6479 33.5366C31.5677 32.5373 33.5927 31.7746 35.7229 31.2749C35.7229 31.2749 40.1674 30.2493 40.5093 30.1178C40.8775 29.9863 41.2193 29.7233 41.2193 29.7233C43.7966 27.9876 43.0602 22.7805 39.6414 18.0993C36.2752 13.3655 31.6203 11.1564 29.0956 12.9973ZM24.2041 37.0607C24.4934 36.9029 24.7563 36.7451 25.0193 36.561L26.4658 35.509C26.6761 35.3512 26.9128 35.1935 27.1232 35.0357L28.3856 36.7714L25.519 38.849L24.2041 37.0607ZM29.2797 43.0831L26.6761 39.5064L28.0437 38.5071L30.6473 42.0837C30.9365 42.4782 31.0417 42.9253 30.9628 43.3986C30.9102 43.6353 30.6736 43.8194 30.4369 43.7668C29.9898 43.7142 29.569 43.4775 29.2797 43.0831ZM32.1463 40.9792C32.5934 41.584 32.5934 42.3993 32.1726 43.0042C32.1463 42.4256 31.9622 41.847 31.594 41.3736L28.9904 37.797L29.5164 37.4025L32.1463 40.9792ZM29.8057 35.7457L29.3586 36.0876L28.1226 34.4045C28.2804 34.2993 28.4382 34.2204 28.596 34.1152L29.8057 35.7457ZM35.4862 30.0652C31.9622 30.9068 28.7011 32.4058 25.7557 34.536L24.3093 35.5879C23.2047 36.4032 21.8635 36.7188 20.4959 36.5084C19.1547 36.298 17.945 35.5616 17.156 34.4571C15.5255 32.1691 16.0515 28.9344 18.3658 27.2512L19.7333 26.2519C22.6524 24.1217 25.0982 21.4655 26.9654 18.3623L27.6229 17.284C27.807 19.4668 28.8589 22.0967 30.6736 24.5951C32.2515 26.7779 34.1976 28.5136 36.1174 29.4866C36.3015 29.5918 36.5119 29.6707 36.696 29.7496L35.4862 30.0652ZM32.2515 20.1506C32.2515 20.1769 32.2515 20.2032 32.2515 20.2558C32.383 21.0447 32.7512 21.8863 33.3297 22.6753C33.9609 23.5431 34.6973 24.148 35.381 24.4899L33.3823 25.9626C32.7775 25.3577 32.1989 24.6477 31.6466 23.9113C31.0943 23.1749 30.621 22.386 30.2265 21.6233L32.2515 20.1506ZM36.7749 23.5168C36.433 23.7798 35.2758 23.2801 34.3291 21.9915C33.882 21.3603 33.5664 20.6766 33.4612 20.098C33.3823 19.6772 33.4612 19.309 33.619 19.2038C33.6979 19.1512 33.8294 19.1249 33.9872 19.1512C34.145 19.1775 34.3291 19.2301 34.5132 19.3353C35.0391 19.5983 35.6177 20.1243 36.0648 20.7292C37.0115 22.0178 37.1167 23.2538 36.7749 23.5168ZM40.5619 28.724C40.4041 28.8292 40.3252 28.8818 40.0622 28.987C39.7992 29.0659 39.5625 29.1184 39.5625 29.1184C38.7473 29.2236 37.7479 29.0133 36.6434 28.461C35.8544 28.0665 35.0391 27.5142 34.2765 26.8305L37.4586 24.5162C38.5106 23.7535 38.3265 21.8337 37.0115 20.0191C36.433 19.2301 35.7492 18.599 35.0391 18.2571C34.1976 17.8363 33.4349 17.8363 32.8826 18.2308L29.7005 20.5451C29.306 19.5983 29.0167 18.6779 28.8852 17.7837C28.7011 16.574 28.78 15.5483 29.1482 14.8119C29.1482 14.8119 29.2534 14.5753 29.3849 14.4175C29.4901 14.286 29.6479 14.1019 29.8057 13.9967C30.3317 13.6022 31.0154 13.497 31.8044 13.6285C33.882 13.9441 36.5908 15.9165 38.6947 18.8094C41.6138 22.7805 42.4554 27.3301 40.5619 28.724Z" fill="#FFDFFF"/>
<path d="M49.372 22.9914L43.9282 22.1235C43.6126 22.071 43.297 22.3076 43.2444 22.6232C43.1918 22.9651 43.4285 23.2544 43.7441 23.307L49.1879 24.1749C49.5298 24.2274 49.8191 23.9908 49.8717 23.6752C49.9243 23.3596 49.7139 23.044 49.372 22.9914Z" fill="#FFDFFF"/>
<path d="M41.8503 19.2819C41.9292 19.5186 42.1133 19.6764 42.3237 19.7027C42.4026 19.729 42.5078 19.7027 42.5867 19.6764L49.0562 17.8092C49.3718 17.7303 49.5559 17.3884 49.477 17.0728C49.3718 16.7572 49.0562 16.5731 48.7406 16.652L42.2711 18.5192C41.9292 18.6244 41.7451 18.94 41.8503 19.2819Z" fill="#FFDFFF"/>
<path d="M40.0885 16.6793C40.1937 16.7845 40.3251 16.8634 40.4566 16.8897C40.6144 16.916 40.7985 16.8634 40.9563 16.7582L46.2687 12.1296C46.5316 11.9193 46.5579 11.5248 46.3213 11.2881C46.1109 11.0251 45.7164 10.9988 45.4797 11.2355L40.1411 15.8378C39.9044 16.0482 39.8781 16.4163 40.0885 16.6793Z" fill="#FFDFFF"/>
<path d="M37.8531 14.3654C37.9057 14.3917 37.9583 14.3917 38.0109 14.418C38.2739 14.4706 38.5368 14.3128 38.6683 14.0761L41.2982 8.15892C41.4297 7.84333 41.2982 7.50145 40.9826 7.36995C40.667 7.23846 40.3252 7.36995 40.1937 7.68554L37.5638 13.6028C37.4323 13.8657 37.5638 14.2076 37.8531 14.3654Z" fill="#FFDFFF"/>
<path d="M28.0964 12.7068C27.8334 12.8909 27.5967 13.1276 27.4126 13.3906C27.2811 13.5747 24.9405 17.4669 24.9405 17.4669C23.1522 20.4387 20.8116 22.9633 18.024 24.9883L16.6564 25.9877C13.8162 28.0653 13.1587 32.0364 15.1837 34.8504C16.183 36.2179 17.6558 37.112 19.3126 37.4013C20.233 37.5591 21.1798 37.4802 22.0477 37.2435L23.8886 39.7945C23.9938 39.926 24.1253 40.0049 24.283 40.0312C24.4145 40.0575 24.5723 40.0312 24.7038 39.9523L27.3074 43.5289C27.7808 44.1864 28.4908 44.6072 29.2535 44.7124C30.0162 44.8439 30.8051 44.6598 31.4626 44.1864C32.7775 43.2133 33.0931 41.3461 32.1201 40.0312L29.5165 36.4283L29.9899 36.0864C30.1214 35.9812 30.2003 35.8497 30.2266 35.6919C30.2529 35.5341 30.2003 35.3763 30.1214 35.2448L28.6486 33.2461C30.5684 32.2468 32.5934 31.4841 34.7236 30.9844C34.7236 30.9844 39.1681 29.9588 39.51 29.8273C39.8782 29.6958 40.2201 29.4328 40.2201 29.4328C42.7973 27.6971 42.061 22.49 38.6421 17.8088C35.2759 13.1013 30.621 10.8659 28.0964 12.7068ZM23.2048 36.7702C23.4941 36.6124 23.7571 36.4546 24.0201 36.2705L25.4665 35.2185C25.6769 35.0607 25.9136 34.903 26.124 34.7452L27.3863 36.4809L24.5197 38.5848L23.2048 36.7702ZM28.2805 42.7926L25.6769 39.2159L27.0444 38.2166L29.648 41.7932C29.9373 42.1877 30.0425 42.6348 29.9636 43.1082C29.911 43.3448 29.6743 43.5289 29.4376 43.4763C28.9905 43.4237 28.5697 43.187 28.2805 42.7926ZM31.147 40.715C31.5941 41.3198 31.5941 42.1351 31.1733 42.74C31.147 42.1614 30.9629 41.5828 30.5947 41.1094L27.9912 37.5328L28.5171 37.1383L31.147 40.715ZM28.8064 35.4552L28.3593 35.7971L27.1233 34.114C27.2811 34.0088 27.4389 33.9299 27.5967 33.8247L28.8064 35.4552ZM34.487 29.801C30.9629 30.6426 27.7019 32.1416 24.7564 34.2718L23.31 35.3237C22.2055 36.139 20.8642 36.4546 19.4967 36.2442C18.1554 36.0338 16.9457 35.2974 16.1567 34.1929C14.4999 31.8786 15.0522 28.6702 17.3665 26.987L18.734 25.9877C21.6532 23.8575 24.099 21.2013 25.9662 18.0981L26.6236 17.0198C26.8077 19.2026 27.8597 21.8325 29.6743 24.3309C31.2522 26.5137 33.1983 28.2494 35.1181 29.2224C35.3022 29.3276 35.5126 29.4065 35.6967 29.4854L34.487 29.801ZM31.2522 19.8864C31.2522 19.9127 31.2522 19.939 31.2522 19.9916C31.3837 20.7805 31.7519 21.6221 32.3305 22.4111C32.9616 23.2789 33.698 23.8838 34.3818 24.2257L32.3831 25.6984C31.7782 25.0935 31.1996 24.3835 30.6473 23.6471C30.0951 22.9107 29.6217 22.1218 29.2272 21.3591L31.2522 19.8864ZM35.7493 23.2263C35.4074 23.4893 34.2503 22.9896 33.3035 21.701C32.8564 21.0698 32.5408 20.3861 32.4356 19.8075C32.3568 19.3867 32.4356 19.0185 32.5934 18.9133C32.6723 18.8607 32.8038 18.8344 32.9616 18.8607C33.1194 18.887 33.3035 18.9396 33.4876 19.0448C34.0136 19.3078 34.5921 19.8338 35.0392 20.4387C36.0123 21.7273 36.1175 22.9896 35.7493 23.2263ZM39.5626 28.4335C39.4048 28.5387 39.3259 28.5913 39.0629 28.6965C38.7999 28.7753 38.5633 28.8279 38.5633 28.8279C37.748 28.9331 36.7486 28.7228 35.6441 28.1705C34.8551 27.776 34.0399 27.2237 33.2772 26.54L36.4594 24.2257C37.5113 23.463 37.3272 21.5432 36.0123 19.7286C35.4337 18.9396 34.7499 18.3085 34.0399 17.9666C33.2246 17.5195 32.4619 17.5195 31.8834 17.914L28.7012 20.2283C28.3068 19.2815 28.0175 18.3611 27.886 17.4669C27.7019 16.2572 27.7808 15.2315 28.149 14.4951C28.149 14.4951 28.2542 14.2585 28.3856 14.1007C28.4908 13.9692 28.6486 13.7851 28.8064 13.6799C29.3324 13.2854 30.0162 13.1802 30.8051 13.3117C32.8827 13.6273 35.5915 15.5997 37.6954 18.4926C40.6146 22.49 41.4561 27.0396 39.5626 28.4335Z" fill="#954EDE"/>
<path d="M48.373 22.7268L42.9291 21.8589C42.6136 21.8063 42.298 22.043 42.2454 22.3586C42.1928 22.7005 42.4295 22.9897 42.7451 23.0423L48.1889 23.9102C48.5308 23.9628 48.8201 23.7261 48.8727 23.4105C48.9253 23.0686 48.7149 22.7794 48.373 22.7268Z" fill="#954EDE"/>
<path d="M40.8513 18.9938C40.9302 19.2305 41.1143 19.3883 41.3247 19.4146C41.4036 19.4409 41.5088 19.4146 41.5877 19.3883L48.0572 17.5211C48.3727 17.4422 48.5568 17.1003 48.4779 16.7847C48.3727 16.4691 48.0572 16.285 47.7416 16.3639L41.2721 18.2311C40.9302 18.3363 40.7461 18.6782 40.8513 18.9938Z" fill="#954EDE"/>
<path d="M39.0895 16.4157C39.1947 16.5208 39.3262 16.5997 39.4577 16.626C39.6155 16.6523 39.7996 16.5997 39.9573 16.4945L45.2697 11.866C45.5327 11.6556 45.559 11.2611 45.3223 11.0244C45.1119 10.7614 44.7174 10.7351 44.4807 10.9718L39.1421 15.5478C38.8791 15.7845 38.8528 16.1527 39.0895 16.4157Z" fill="#954EDE"/>
<path d="M36.8539 14.0744C36.9065 14.1007 36.9591 14.1007 37.0117 14.127C37.2747 14.1796 37.5377 14.0218 37.6692 13.7851L40.299 7.8679C40.4305 7.55232 40.299 7.21043 39.9834 7.07894C39.6679 6.94744 39.326 7.07894 39.1945 7.39452L36.5646 13.3117C36.4068 13.5747 36.5646 13.9429 36.8539 14.0744Z" fill="#954EDE"/>
</g>
<path d="M54.0282 16.6708C54.9539 16.914 55.6481 17.3843 56.378 18.2114C57.0366 18.9736 57.3926 19.9466 57.357 20.9196V20.9358V20.9521C57.357 20.9521 57.357 20.9683 57.3748 20.9683C57.3748 20.9683 57.3748 20.9845 57.3926 20.9845L57.4104 21.0007C57.4104 21.0007 57.4282 21.0007 57.4282 21.0169H57.446H57.4638C57.5172 21.0169 57.5528 20.9845 57.5528 20.9358C57.5528 20.9358 57.5528 20.9358 57.5528 20.9196C57.5172 19.9628 57.8732 18.9736 58.5319 18.2114C59.2439 17.3681 59.9559 16.914 60.8816 16.6708C60.935 16.6545 60.9528 16.6221 60.9528 16.5735C60.9528 16.5248 60.9172 16.4924 60.8816 16.4924C59.9381 16.2816 59.3685 15.7788 58.7633 15.195C58.1758 14.6274 57.7664 13.8814 57.5706 12.9571C57.5706 12.9571 57.5706 12.9571 57.5706 12.9408C57.5706 12.9246 57.5706 12.9246 57.5528 12.9246C57.5528 12.9246 57.5528 12.9246 57.5528 12.9084L57.535 12.8922C57.535 12.8922 57.535 12.8922 57.5172 12.8922C57.5172 12.8922 57.4994 12.8922 57.4994 12.876H57.4816H57.4638C57.4638 12.876 57.446 12.876 57.446 12.8922C57.446 12.8922 57.446 12.8922 57.4282 12.8922L57.4104 12.9084C57.4104 12.9084 57.4104 12.9084 57.4104 12.9246C57.4104 12.9246 57.4104 12.9408 57.3926 12.9408C57.3926 12.9408 57.3926 12.9408 57.3926 12.9571C57.1968 13.8814 56.7874 14.6436 56.1999 15.195C55.5591 15.7788 54.9717 16.2816 54.0282 16.4924C53.9926 16.4924 53.957 16.5248 53.957 16.5735C53.957 16.6221 53.9926 16.6545 54.0282 16.6708Z" fill="#954EDE"/>
<g clip-path="url(#clip3)">
<path d="M194.631 61.5807C195.299 62.1345 195.69 62.7864 195.973 63.7452C196.223 64.6234 196.144 65.5592 195.743 66.3453L195.737 66.3586L195.73 66.372C195.73 66.372 195.724 66.3853 195.739 66.3921C195.739 66.3921 195.733 66.4054 195.747 66.4122L195.756 66.4324C195.756 66.4324 195.77 66.4392 195.764 66.4525L195.779 66.4593L195.793 66.4661C195.837 66.4865 195.879 66.4735 195.898 66.4335C195.898 66.4335 195.898 66.4335 195.904 66.4202C196.24 65.6202 196.911 64.9432 197.744 64.5686C198.651 64.1477 199.41 64.0467 200.264 64.2007C200.314 64.2077 200.341 64.1879 200.36 64.1479C200.378 64.1079 200.361 64.0677 200.332 64.054C199.637 63.5201 199.361 62.8891 199.087 62.1779C198.821 61.4869 198.77 60.7172 198.962 59.8827C198.962 59.8827 198.962 59.8827 198.969 59.8693C198.975 59.856 198.975 59.856 198.96 59.8492C198.96 59.8492 198.96 59.8492 198.966 59.8359L198.958 59.8157C198.958 59.8157 198.958 59.8157 198.943 59.8089C198.943 59.8089 198.929 59.8021 198.935 59.7888L198.92 59.782L198.906 59.7752C198.906 59.7752 198.891 59.7684 198.885 59.7817C198.885 59.7817 198.885 59.7817 198.87 59.7749L198.849 59.7814C198.849 59.7814 198.849 59.7814 198.843 59.7948C198.843 59.7948 198.837 59.8081 198.822 59.8013C198.822 59.8013 198.822 59.8013 198.816 59.8146C198.302 60.4995 197.674 60.9694 196.98 61.198C196.23 61.4328 195.555 61.6215 194.699 61.434C194.67 61.4204 194.629 61.4335 194.61 61.4735C194.591 61.5135 194.608 61.5537 194.631 61.5807Z" fill="#FFB8DC"/>
</g>
<path d="M184.123 53.018C184.374 53.2515 184.618 53.4339 184.857 53.5809C184.59 53.6668 184.31 53.7858 184.009 53.9526C182.253 54.9284 182.083 57.7826 182.076 57.9037C182.072 57.9899 182.091 58.0757 182.133 58.1512C182.535 58.8737 183.275 59.2548 184.097 59.3482C184.934 59.4433 185.855 59.2403 186.689 58.7766C186.989 58.6101 187.238 58.4344 187.451 58.253C187.451 58.5329 187.477 58.8366 187.543 59.1737C187.824 60.6118 189.441 61.7483 190.703 62.2331C190.784 62.2641 190.872 62.2718 190.956 62.2552C191.709 62.1082 192.329 61.5762 192.702 60.7574C193.051 59.9909 193.142 59.0527 192.959 58.1155C192.892 57.7752 192.801 57.4814 192.693 57.2201C192.937 57.2952 193.212 57.3549 193.53 57.3937C195.522 57.6363 197.364 55.4438 197.441 55.3504C197.498 55.2825 197.533 55.2 197.544 55.1126C197.637 54.3515 197.317 53.595 196.644 52.9824C196.015 52.4101 195.146 52.0314 194.198 51.9158C193.895 51.879 193.622 51.8722 193.371 51.8868C193.526 51.6694 193.674 51.4198 193.811 51.1253C194.658 49.3036 193.118 46.8943 193.052 46.7926C193.005 46.7201 192.939 46.6624 192.86 46.6259C192.165 46.3025 191.351 46.3686 190.568 46.8119C189.835 47.2268 189.21 47.9321 188.807 48.7979C188.675 49.0824 188.581 49.3481 188.516 49.5998C188.38 49.4166 188.215 49.2292 188.007 49.0364C186.537 47.6675 183.769 48.3875 183.652 48.4188C183.569 48.4411 183.493 48.4865 183.435 48.5497C182.364 49.6997 182.667 51.6624 184.123 53.018V53.018ZM186.243 57.9725C185.574 58.3439 184.849 58.508 184.201 58.4343C183.665 58.3734 183.245 58.154 183.005 57.8121C183.075 57.0385 183.431 55.326 184.456 54.7566C185.22 54.3319 185.785 54.2897 186.589 54.2603C187.242 54.4509 187.874 54.6674 188.634 55.3351C187.648 56.3528 187.533 57.2558 186.243 57.9725ZM189.046 53.6279C189.297 53.6557 189.53 53.6678 189.748 53.6672C189.799 53.9146 189.859 54.1406 189.927 54.3484C189.708 54.4733 189.512 54.6003 189.335 54.7286C189.148 54.5588 188.967 54.4116 188.791 54.2833C188.894 54.0535 188.978 53.8355 189.046 53.6279V53.6279ZM191.865 60.3762C191.641 60.8676 191.303 61.1986 190.903 61.3217C190.189 61.0161 188.67 60.1479 188.446 58.9973C188.269 58.0924 188.436 57.5043 188.63 56.8233L188.633 56.8152C189.016 56.2536 189.417 55.7189 190.287 55.2028C190.949 56.4535 191.773 56.843 192.056 58.2919C192.203 59.0425 192.135 59.7827 191.865 60.3762ZM194.086 52.8288C194.836 52.9201 195.543 53.2241 196.025 53.6627C196.428 54.0301 196.643 54.454 196.639 54.8696C196.276 55.2679 194.925 56.637 193.642 56.4808C192.765 56.374 192.34 56.0963 191.694 55.6613C191.278 55.1223 190.892 54.574 190.67 53.583C192.065 53.3241 192.63 52.6514 194.086 52.8288V52.8288ZM191.021 47.6122C191.491 47.3462 191.959 47.2772 192.355 47.4125C192.753 48.0794 193.471 49.6743 192.977 50.7374C192.603 51.5414 192.143 51.9212 191.613 52.3376C190.953 52.5902 190.318 52.823 189.257 52.725C189.456 51.3237 189.018 50.5245 189.641 49.1858C189.963 48.4924 190.454 47.9336 191.021 47.6122V47.6122ZM184.025 49.274C184.782 49.1014 186.522 48.9105 187.381 49.7097C188.042 50.3252 188.133 50.8138 188.387 51.5258C188.408 52.2057 188.398 52.8744 187.997 53.8038C186.729 53.1831 185.827 53.3478 184.75 52.3447C183.896 51.5499 183.328 50.1794 184.025 49.274Z" fill="#FFDFFF"/>
<g clip-path="url(#clip4)">
<path d="M183.381 52.8393C183.632 53.0728 183.876 53.2552 184.115 53.4022C183.848 53.4881 183.568 53.6071 183.267 53.7739C181.511 54.7497 181.341 57.6039 181.334 57.7249C181.33 57.8112 181.349 57.897 181.391 57.9725C181.793 58.695 182.533 59.0761 183.355 59.1695C184.192 59.2646 185.113 59.0616 185.947 58.5979C186.247 58.4314 186.496 58.2557 186.709 58.0743C186.709 58.3542 186.735 58.6578 186.801 58.995C187.082 60.4331 188.7 61.5696 189.961 62.0544C190.042 62.0854 190.13 62.0931 190.214 62.0765C190.967 61.9295 191.587 61.3975 191.96 60.5787C192.309 59.8122 192.4 58.874 192.217 57.9368C192.151 57.5965 192.059 57.3027 191.951 57.0414C192.195 57.1165 192.47 57.1762 192.789 57.215C194.78 57.4575 196.622 55.2651 196.699 55.1717C196.756 55.1038 196.791 55.0213 196.802 54.9338C196.895 54.1728 196.575 53.4163 195.902 52.8037C195.273 52.2314 194.404 51.8527 193.456 51.7371C193.153 51.7003 192.88 51.6935 192.629 51.7081C192.784 51.4907 192.932 51.241 193.069 50.9466C193.916 49.1248 192.376 46.7156 192.31 46.6139C192.263 46.5414 192.197 46.4837 192.118 46.4472C191.423 46.1238 190.609 46.1899 189.826 46.6332C189.093 47.0481 188.468 47.7534 188.065 48.6192C187.933 48.9037 187.839 49.1693 187.774 49.421C187.638 49.2379 187.473 49.0505 187.266 48.8577C185.795 47.4888 183.028 48.2088 182.91 48.2401C182.827 48.2624 182.752 48.3078 182.693 48.371C181.622 49.521 181.925 51.4837 183.381 52.8393V52.8393ZM185.501 57.7938C184.832 58.1652 184.107 58.3292 183.459 58.2556C182.923 58.1946 182.503 57.9753 182.263 57.6334C182.333 56.8598 182.689 55.1472 183.714 54.5779C184.478 54.1532 185.043 54.111 185.847 54.0816C186.5 54.2722 187.132 54.4887 187.892 55.1564C186.906 56.1741 186.791 57.0771 185.501 57.7938ZM188.304 53.4492C188.555 53.477 188.788 53.4891 189.006 53.4885C189.057 53.7359 189.117 53.9618 189.185 54.1697C188.966 54.2946 188.77 54.4216 188.593 54.5499C188.407 54.3801 188.225 54.2329 188.049 54.1046C188.152 53.8748 188.236 53.6568 188.304 53.4492V53.4492ZM191.123 60.1975C190.899 60.6889 190.561 61.0199 190.161 61.1429C189.447 60.8374 187.929 59.9692 187.704 58.8186C187.527 57.9137 187.694 57.3256 187.889 56.6446L187.891 56.6365C188.274 56.0749 188.675 55.5402 189.545 55.0241C190.207 56.2748 191.031 56.6643 191.314 58.1132C191.461 58.8637 191.393 59.604 191.123 60.1975ZM193.345 52.6501C194.094 52.7414 194.801 53.0454 195.283 53.484C195.686 53.8514 195.901 54.2753 195.897 54.6909C195.534 55.0891 194.183 56.4583 192.9 56.302C192.023 56.1953 191.598 55.9176 190.952 55.4825C190.536 54.9436 190.15 54.3953 189.928 53.4043C191.323 53.1454 191.888 52.4727 193.345 52.6501V52.6501ZM190.279 47.4335C190.749 47.1675 191.217 47.0984 191.613 47.2338C192.011 47.9007 192.729 49.4956 192.235 50.5587C191.861 51.3627 191.401 51.7424 190.871 52.1589C190.211 52.4115 189.576 52.6443 188.515 52.5463C188.714 51.145 188.276 50.3458 188.899 49.0071C189.221 48.3137 189.712 47.7548 190.279 47.4335V47.4335ZM183.283 49.0953C184.04 48.9227 185.78 48.7318 186.639 49.531C187.3 50.1465 187.391 50.6351 187.645 51.3471C187.666 52.027 187.656 52.6957 187.255 53.6251C185.987 53.0044 185.086 53.1691 184.008 52.166C183.154 51.3711 182.586 50.0007 183.283 49.0953Z" fill="#954EDE"/>
</g>
<g clip-path="url(#clip5)">
<path d="M12.7789 98.8004C13.7445 99.0542 14.4687 99.5448 15.23 100.408C15.9171 101.203 16.2885 102.218 16.2513 103.233V103.25V103.267C16.2513 103.267 16.2513 103.283 16.2699 103.283C16.2699 103.283 16.2699 103.3 16.2885 103.3L16.3071 103.317C16.3071 103.317 16.3256 103.317 16.3256 103.334H16.3442H16.3628C16.4185 103.334 16.4556 103.3 16.4556 103.25C16.4556 103.25 16.4556 103.25 16.4556 103.233C16.4185 102.235 16.7899 101.203 17.4769 100.408C18.2197 99.5278 18.9625 99.0542 19.9281 98.8004C19.9838 98.7835 20.0024 98.7497 20.0024 98.6989C20.0024 98.6482 19.9652 98.6143 19.9281 98.6143C18.9439 98.3944 18.3497 97.87 17.7183 97.261C17.1055 96.6688 16.6784 95.8907 16.4742 94.9264C16.4742 94.9264 16.4742 94.9264 16.4742 94.9095C16.4742 94.8925 16.4742 94.8925 16.4556 94.8925C16.4556 94.8925 16.4556 94.8925 16.4556 94.8756L16.437 94.8587C16.437 94.8587 16.437 94.8587 16.4185 94.8587C16.4185 94.8587 16.3999 94.8587 16.3999 94.8418H16.3813H16.3628C16.3628 94.8418 16.3442 94.8418 16.3442 94.8587C16.3442 94.8587 16.3442 94.8587 16.3256 94.8587L16.3071 94.8756C16.3071 94.8756 16.3071 94.8756 16.3071 94.8925C16.3071 94.8925 16.3071 94.9095 16.2885 94.9095C16.2885 94.9095 16.2885 94.9095 16.2885 94.9264C16.0842 95.8907 15.6571 96.6858 15.0443 97.261C14.3758 97.87 13.763 98.3944 12.7789 98.6143C12.7417 98.6143 12.7046 98.6482 12.7046 98.6989C12.7046 98.7497 12.7417 98.7835 12.7789 98.8004Z" fill="#954EDE"/>
</g>
<path d="M23.4644 63.9243C24.9095 64.304 25.9933 65.0382 27.1327 66.3294C28.161 67.5193 28.7168 69.0384 28.6612 70.5574V70.5828V70.6081C28.6612 70.6081 28.6612 70.6334 28.689 70.6334C28.689 70.6334 28.689 70.6587 28.7168 70.6587L28.7446 70.684C28.7446 70.684 28.7723 70.684 28.7723 70.7093H28.8001H28.8279C28.9113 70.7093 28.9669 70.6587 28.9669 70.5828C28.9669 70.5828 28.9669 70.5828 28.9669 70.5574C28.9113 69.0637 29.4671 67.5193 30.4953 66.3294C31.6069 65.0129 32.7185 64.304 34.1636 63.9243C34.247 63.899 34.2748 63.8483 34.2748 63.7724C34.2748 63.6964 34.2192 63.6458 34.1636 63.6458C32.6907 63.3167 31.8015 62.5318 30.8566 61.6204C29.9395 60.7343 29.3004 59.5697 28.9947 58.1266C28.9947 58.1266 28.9947 58.1266 28.9947 58.1013C28.9947 58.076 28.9947 58.076 28.9669 58.076C28.9669 58.076 28.9669 58.076 28.9669 58.0506L28.9391 58.0253C28.9391 58.0253 28.9391 58.0253 28.9113 58.0253C28.9113 58.0253 28.8835 58.0253 28.8835 58H28.8557H28.8279C28.8279 58 28.8001 58 28.8001 58.0253C28.8001 58.0253 28.8001 58.0253 28.7723 58.0253L28.7446 58.0506C28.7446 58.0506 28.7446 58.0506 28.7446 58.076C28.7446 58.076 28.7446 58.1013 28.7168 58.1013C28.7168 58.1013 28.7168 58.1013 28.7168 58.1266C28.4111 59.5697 27.7719 60.7596 26.8548 61.6204C25.8544 62.5318 24.9373 63.3167 23.4644 63.6458C23.4089 63.6458 23.3533 63.6964 23.3533 63.7724C23.3533 63.8483 23.4089 63.899 23.4644 63.9243Z" fill="#FFB8DC"/>
<path d="M9.16714 83.6356C9.47343 83.7351 9.75357 83.7938 10.015 83.8246C9.82216 84.0033 9.63025 84.2159 9.44053 84.477C8.33087 86.0043 9.31676 88.5035 9.35927 88.6092C9.38958 88.6845 9.44048 88.7497 9.50615 88.7974C10.1344 89.2539 10.9161 89.2852 11.6536 89.039C12.4042 88.7883 13.108 88.2506 13.6354 87.5247C13.8247 87.2642 13.9671 87.0159 14.0771 86.7768C14.1875 87.0154 14.3304 87.2636 14.5201 87.5247C15.3293 88.6386 17.1577 88.9659 18.4248 88.8789C18.5058 88.8734 18.5836 88.8452 18.6493 88.7974C19.2322 88.3739 19.5494 87.6751 19.5426 86.8297C19.5362 86.0384 19.2422 85.2029 18.7149 84.477C18.5234 84.2135 18.3291 83.9994 18.1333 83.8196C18.3713 83.7867 18.629 83.7287 18.9157 83.6356C20.7083 83.0531 21.409 80.4553 21.4379 80.345C21.4589 80.2649 21.4565 80.1805 21.4309 80.1018C21.2083 79.4166 20.6362 78.8988 19.8199 78.6437C19.0572 78.4054 18.1671 78.4269 17.3134 78.7043C17.0411 78.7928 16.8057 78.8952 16.5973 79.0073C16.6433 78.7606 16.6703 78.4894 16.6703 78.1843C16.6703 76.2964 14.4037 74.854 14.3072 74.7935C14.2384 74.7504 14.1589 74.7275 14.0778 74.7275C13.3573 74.7275 12.6899 75.1064 12.1985 75.7944C11.7385 76.4383 11.4852 77.287 11.4852 78.1843C11.4852 78.479 11.5109 78.7424 11.5548 78.9828C11.3667 78.8805 11.1514 78.7864 10.8986 78.7043C9.10299 78.1209 7.03086 79.8308 6.94352 79.9039C6.88127 79.956 6.83495 80.0246 6.80986 80.1018C6.35371 81.5056 7.38917 83.0579 9.16714 83.6356V83.6356ZM12.9362 87.0167C12.5138 87.5981 11.9611 88.0252 11.3799 88.2192C10.8987 88.3798 10.4545 88.3592 10.1142 88.1631C9.86724 87.4763 9.49221 85.8761 10.1397 84.9849C10.6226 84.3202 11.0869 84.0605 11.7603 83.7168C12.3917 83.6206 13.0165 83.5544 13.9282 83.8222C13.4917 85.0799 13.7513 85.895 12.9362 87.0167ZM13.6027 82.2045C13.8278 82.1286 14.0312 82.0466 14.2164 81.9598C14.3579 82.1503 14.4988 82.3189 14.6387 82.4693C14.5015 82.6625 14.3848 82.8484 14.2852 83.0277C14.0591 82.9569 13.8462 82.9034 13.6449 82.864C13.6424 82.6271 13.6275 82.4081 13.6027 82.2045V82.2045ZM18.6784 86.8367C18.6825 87.344 18.5256 87.7601 18.2339 88.0232C17.5046 88.0458 15.8667 87.908 15.2192 87.0168C14.71 86.3159 14.6197 85.7485 14.5151 85.0914L14.5139 85.0836C14.6176 84.4534 14.7476 83.8388 15.2841 83.0544C16.3442 83.8574 17.2004 83.8628 18.0157 84.985C18.4381 85.5663 18.6735 86.224 18.6784 86.8367ZM17.5804 79.5262C18.2553 79.3069 18.9776 79.2859 19.562 79.4686C20.0517 79.6216 20.4026 79.8976 20.5641 80.2532C20.4126 80.7364 19.8037 82.4384 18.6487 82.8138C17.8596 83.0701 17.3872 83.0021 16.6649 82.8872C16.0962 82.5932 15.5507 82.2789 14.9689 81.5224C16.0545 80.7493 16.2693 79.9522 17.5804 79.5262V79.5262ZM12.9016 76.2967C13.1965 75.8839 13.568 75.6395 13.9586 75.5981C14.562 76.0085 15.8061 77.0826 15.8061 78.1843C15.8061 79.0174 15.5651 79.523 15.2784 80.0879C14.8163 80.5646 14.3672 81.0148 13.4245 81.3517C13.0388 80.079 12.3493 79.5715 12.3493 78.1843C12.3494 77.4657 12.5455 76.7953 12.9016 76.2967V76.2967ZM7.59995 80.4848C8.17618 80.0379 9.58327 79.1856 10.6315 79.5262C11.4388 79.7885 11.7101 80.1687 12.2087 80.6745C12.4955 81.2457 12.7518 81.8195 12.7789 82.77C11.4529 82.7436 10.7498 83.2412 9.43417 82.8137C8.39162 82.475 7.36443 81.5326 7.59995 80.4848Z" fill="#FFDFFF"/>
<g clip-path="url(#clip6)">
<path d="M8.46474 83.7782C8.77104 83.8777 9.05118 83.9364 9.31262 83.9671C9.11976 84.1459 8.92786 84.3585 8.73814 84.6196C7.62848 86.1469 8.61436 88.6461 8.65688 88.7518C8.68718 88.8271 8.73808 88.8923 8.80376 88.94C9.43202 89.3965 10.2137 89.4278 10.9512 89.1815C11.7018 88.9309 12.4056 88.3932 12.933 87.6673C13.1223 87.4068 13.2647 87.1585 13.3747 86.9193C13.4851 87.158 13.628 87.4062 13.8177 87.6673C14.627 88.7812 16.4553 89.1085 17.7224 89.0215C17.8034 89.016 17.8812 88.9877 17.9469 88.94C18.5298 88.5165 18.847 87.8177 18.8402 86.9723C18.8338 86.181 18.5398 85.3454 18.0125 84.6196C17.821 84.356 17.6267 84.1419 17.431 83.9622C17.6689 83.9293 17.9266 83.8713 18.2134 83.7782C20.0059 83.1957 20.7066 80.5978 20.7355 80.4875C20.7565 80.4075 20.7542 80.3231 20.7285 80.2443C20.5059 79.5592 19.9338 79.0414 19.1175 78.7863C18.3548 78.548 17.4647 78.5695 16.611 78.8469C16.3387 78.9354 16.1033 79.0378 15.8949 79.1499C15.9409 78.9032 15.9679 78.6319 15.9679 78.3268C15.9679 76.439 13.7013 74.9966 13.6048 74.9361C13.536 74.893 13.4565 74.8701 13.3754 74.8701C12.6549 74.8701 11.9875 75.249 11.4961 75.9369C11.0361 76.5809 10.7828 77.4296 10.7828 78.3268C10.7828 78.6216 10.8085 78.885 10.8524 79.1254C10.6643 79.0231 10.449 78.929 10.1962 78.8468C8.40059 78.2635 6.32846 79.9734 6.24112 80.0465C6.17887 80.0985 6.13255 80.1671 6.10746 80.2443C5.65132 81.6482 6.68678 83.2005 8.46474 83.7782V83.7782ZM12.2338 87.1593C11.8114 87.7407 11.2587 88.1677 10.6775 88.3618C10.1963 88.5224 9.75211 88.5018 9.4118 88.3057C9.16485 87.6189 8.78982 86.0187 9.43732 85.1275C9.92025 84.4628 10.3845 84.2031 11.0579 83.8594C11.6893 83.7632 12.3141 83.697 13.2258 83.9648C12.7893 85.2225 13.0489 86.0375 12.2338 87.1593ZM12.9003 82.3471C13.1254 82.2712 13.3288 82.1891 13.514 82.1024C13.6555 82.2929 13.7964 82.4615 13.9363 82.6119C13.7991 82.8051 13.6824 82.991 13.5828 83.1702C13.3567 83.0995 13.1438 83.0459 12.9425 83.0066C12.94 82.7696 12.9251 82.5507 12.9003 82.3471V82.3471ZM17.976 86.9793C17.9801 87.4865 17.8232 87.9026 17.5315 88.1658C16.8022 88.1884 15.1643 88.0506 14.5168 87.1594C14.0076 86.4585 13.9173 85.891 13.8127 85.234L13.8115 85.2262C13.9152 84.596 14.0452 83.9814 14.5817 83.197C15.6418 84 16.498 84.0054 17.3133 85.1276C17.7358 85.7089 17.9711 86.3665 17.976 86.9793ZM16.8781 79.6688C17.5529 79.4495 18.2752 79.4285 18.8596 79.6112C19.3493 79.7642 19.7002 80.0402 19.8617 80.3958C19.7102 80.879 19.1013 82.581 17.9463 82.9563C17.1572 83.2127 16.6848 83.1447 15.9625 83.0298C15.3939 82.7358 14.8483 82.4214 14.2665 81.665C15.3521 80.8919 15.5669 80.0948 16.8781 79.6688V79.6688ZM12.1992 76.4393C12.4941 76.0264 12.8656 75.7821 13.2562 75.7406C13.8596 76.151 15.1037 77.2252 15.1037 78.3269C15.1037 79.16 14.8628 79.6656 14.576 80.2305C14.1139 80.7072 13.6648 81.1574 12.7221 81.4943C12.3364 80.2215 11.6469 79.7141 11.6469 78.3269C11.647 77.6082 11.8431 76.9379 12.1992 76.4393V76.4393ZM6.89755 80.6274C7.47379 80.1805 8.88088 79.3282 9.9291 79.6688C10.7364 79.9311 11.0077 80.3113 11.5063 80.8171C11.7931 81.3883 12.0494 81.962 12.0765 82.9125C10.7505 82.8861 10.0474 83.3838 8.73178 82.9563C7.68923 82.6175 6.66204 81.6751 6.89755 80.6274Z" fill="#954EDE"/>
</g>
<g clip-path="url(#clip7)">
<path d="M43.9885 87.3413C46.1626 86.0425 46.899 83.235 45.6283 81.0343C44.3577 78.8336 41.5583 78.0677 39.3465 79.3012C39.3088 76.769 37.2457 74.7275 34.7045 74.7275C32.1634 74.7275 30.1002 76.769 30.0626 79.3014C27.8508 78.0678 25.0512 78.8339 23.7806 81.0347C22.5101 83.2353 23.2464 86.0428 25.4206 87.3415C23.2465 88.6403 22.5101 91.4478 23.7807 93.6485C25.0513 95.8492 27.8509 96.6152 30.0627 95.3816C30.1002 97.914 32.1635 99.9555 34.7047 99.9554C37.2459 99.9554 39.309 97.9138 39.3466 95.3816C41.5584 96.6151 44.358 95.8491 45.6285 93.6482C46.8991 91.4475 46.1626 88.64 43.9885 87.3413ZM34.7045 91.5939C32.3559 91.5939 30.452 89.69 30.452 87.3414C30.452 84.9927 32.3559 83.0888 34.7045 83.0888C37.0531 83.0888 38.9571 84.9927 38.9571 87.3414C38.9571 89.69 37.0532 91.5939 34.7045 91.5939Z" fill="#954EDE"/>
<circle cx="34.7718" cy="87.7213" r="5.47422" fill="white"/>
</g>
<g clip-path="url(#clip8)">
<path d="M189.756 30.4999C191.221 29.6247 191.717 27.7329 190.861 26.2499C190.005 24.7669 188.118 24.2508 186.628 25.082C186.603 23.3757 185.212 22 183.5 22C181.788 22 180.397 23.3757 180.372 25.0821C178.882 24.2509 176.995 24.7671 176.139 26.2501C175.283 27.7331 175.779 29.6249 177.244 30.5C175.779 31.3752 175.283 33.2671 176.139 34.7501C176.995 36.2331 178.882 36.7492 180.372 35.918C180.397 37.6244 181.788 39.0001 183.5 39C185.213 39 186.603 37.6243 186.628 35.918C188.119 36.7491 190.005 36.233 190.861 34.7499C191.717 33.2669 191.221 31.375 189.756 30.4999ZM183.5 33.3656C181.917 33.3656 180.634 32.0826 180.634 30.5C180.634 28.9173 181.917 27.6343 183.5 27.6343C185.083 27.6343 186.366 28.9173 186.366 30.5C186.366 32.0826 185.083 33.3656 183.5 33.3656Z" fill="#954EDE"/>
<circle cx="183.545" cy="30.7562" r="3.68886" fill="white"/>
</g>
<path d="M127.235 20.5384C127.503 20.6253 127.748 20.6766 127.976 20.7035C127.808 20.8597 127.64 21.0455 127.474 21.2737C126.505 22.6086 127.366 24.7928 127.403 24.8851C127.43 24.9509 127.474 25.0079 127.532 25.0496C128.081 25.4486 128.764 25.4759 129.409 25.2607C130.065 25.0417 130.68 24.5717 131.141 23.9374C131.306 23.7096 131.43 23.4926 131.527 23.2836C131.623 23.4922 131.748 23.7092 131.914 23.9374C132.621 24.9108 134.219 25.1969 135.326 25.1209C135.397 25.116 135.465 25.0914 135.523 25.0496C136.032 24.6795 136.309 24.0688 136.303 23.3299C136.298 22.6383 136.041 21.9081 135.58 21.2737C135.413 21.0434 135.243 20.8563 135.072 20.6991C135.28 20.6704 135.505 20.6197 135.755 20.5383C137.322 20.0293 137.934 17.7588 137.96 17.6624C137.978 17.5924 137.976 17.5187 137.954 17.4499C137.759 16.8511 137.259 16.3985 136.546 16.1756C135.879 15.9673 135.101 15.9861 134.355 16.2285C134.117 16.3058 133.911 16.3954 133.729 16.4934C133.769 16.2778 133.793 16.0407 133.793 15.774C133.793 14.1241 131.812 12.8635 131.728 12.8106C131.668 12.7729 131.598 12.7529 131.527 12.7529C130.898 12.7529 130.314 13.0841 129.885 13.6853C129.483 14.2481 129.261 14.9899 129.261 15.774C129.261 16.0316 129.284 16.2618 129.322 16.4719C129.158 16.3825 128.97 16.3003 128.749 16.2285C127.179 15.7186 125.368 17.2131 125.292 17.2769C125.238 17.3224 125.197 17.3824 125.175 17.4499C124.777 18.6768 125.682 20.0334 127.235 20.5384V20.5384ZM130.53 23.4934C130.16 24.0015 129.677 24.3747 129.169 24.5443C128.749 24.6847 128.361 24.6666 128.063 24.4953C127.847 23.8951 127.52 22.4965 128.085 21.7176C128.507 21.1367 128.913 20.9097 129.502 20.6093C130.054 20.5253 130.6 20.4674 131.396 20.7014C131.015 21.8006 131.242 22.513 130.53 23.4934ZM131.112 19.2876C131.309 19.2213 131.486 19.1496 131.648 19.0738C131.772 19.2402 131.895 19.3876 132.017 19.519C131.898 19.6879 131.796 19.8503 131.708 20.007C131.511 19.9452 131.325 19.8984 131.149 19.864C131.147 19.6569 131.134 19.4655 131.112 19.2876V19.2876ZM135.548 23.336C135.552 23.7793 135.414 24.143 135.16 24.373C134.522 24.3928 133.091 24.2723 132.525 23.4934C132.08 22.8809 132.001 22.3849 131.909 21.8107L131.908 21.8039C131.999 21.2531 132.113 20.7159 132.582 20.0304C133.508 20.7322 134.256 20.7369 134.969 21.7177C135.338 22.2257 135.544 22.8005 135.548 23.336ZM134.588 16.9468C135.178 16.7552 135.81 16.7368 136.32 16.8965C136.748 17.0302 137.055 17.2715 137.196 17.5822C137.064 18.0045 136.532 19.4921 135.522 19.8201C134.832 20.0441 134.42 19.9847 133.788 19.8843C133.291 19.6273 132.814 19.3526 132.306 18.6915C133.255 18.0158 133.442 17.3192 134.588 16.9468V16.9468ZM130.499 14.1243C130.757 13.7635 131.082 13.5499 131.423 13.5137C131.95 13.8724 133.038 14.8112 133.038 15.774C133.038 16.5021 132.827 16.9441 132.577 17.4378C132.173 17.8544 131.78 18.2478 130.956 18.5423C130.619 17.4299 130.017 16.9864 130.017 15.774C130.017 15.146 130.188 14.5601 130.499 14.1243V14.1243ZM125.866 17.7846C126.369 17.3941 127.599 16.6492 128.515 16.9468C129.221 17.1761 129.458 17.5083 129.894 17.9504C130.144 18.4496 130.368 18.9511 130.392 19.7818C129.233 19.7587 128.619 20.1937 127.469 19.82C126.558 19.524 125.66 18.7003 125.866 17.7846Z" fill="#FFB8DC"/>
<path d="M126.924 20.9495C127.192 21.0365 127.436 21.0878 127.665 21.1146C127.496 21.2709 127.329 21.4567 127.163 21.6848C126.193 23.0197 127.055 25.2039 127.092 25.2962C127.118 25.3621 127.163 25.4191 127.22 25.4608C127.769 25.8597 128.452 25.8871 129.097 25.6719C129.753 25.4528 130.368 24.9829 130.829 24.3485C130.994 24.1208 131.119 23.9038 131.215 23.6948C131.312 23.9034 131.436 24.1203 131.602 24.3485C132.31 25.322 133.907 25.608 135.015 25.532C135.086 25.5272 135.154 25.5025 135.211 25.4608C135.72 25.0907 135.998 24.4799 135.992 23.741C135.986 23.0495 135.729 22.3192 135.268 21.6848C135.101 21.4545 134.931 21.2674 134.76 21.1103C134.968 21.0816 135.193 21.0309 135.444 20.9495C137.011 20.4404 137.623 18.1699 137.648 18.0735C137.667 18.0036 137.665 17.9298 137.642 17.861C137.448 17.2622 136.948 16.8097 136.234 16.5867C135.568 16.3784 134.79 16.3972 134.044 16.6396C133.806 16.717 133.6 16.8065 133.418 16.9045C133.458 16.6889 133.481 16.4518 133.481 16.1851C133.481 14.5352 131.501 13.2746 131.416 13.2217C131.356 13.184 131.287 13.1641 131.216 13.1641C130.586 13.1641 130.003 13.4952 129.573 14.0964C129.171 14.6592 128.95 15.401 128.95 16.1851C128.95 16.4427 128.972 16.6729 129.011 16.883C128.846 16.7936 128.658 16.7114 128.437 16.6396C126.868 16.1298 125.057 17.6242 124.981 17.6881C124.926 17.7336 124.886 17.7935 124.864 17.861C124.465 19.088 125.37 20.4446 126.924 20.9495ZM130.218 23.9045C129.849 24.4126 129.366 24.7858 128.858 24.9554C128.437 25.0958 128.049 25.0778 127.752 24.9064C127.536 24.3062 127.208 22.9076 127.774 22.1287C128.196 21.5478 128.602 21.3208 129.19 21.0204C129.742 20.9364 130.288 20.8785 131.085 21.1126C130.703 22.2118 130.93 22.9241 130.218 23.9045ZM130.8 19.6987C130.997 19.6324 131.175 19.5607 131.337 19.4849C131.46 19.6514 131.584 19.7987 131.706 19.9302C131.586 20.099 131.484 20.2615 131.397 20.4182C131.199 20.3563 131.013 20.3095 130.837 20.2751C130.835 20.068 130.822 19.8767 130.8 19.6987ZM135.237 23.7471C135.24 24.1905 135.103 24.5541 134.848 24.7841C134.211 24.8039 132.779 24.6834 132.213 23.9045C131.768 23.292 131.689 22.7961 131.598 22.2218L131.597 22.215C131.687 21.6642 131.801 21.1271 132.27 20.4415C133.196 21.1433 133.945 21.1481 134.657 22.1288C135.027 22.6369 135.232 23.2116 135.237 23.7471ZM134.277 17.358C134.867 17.1663 135.498 17.148 136.009 17.3076C136.437 17.4413 136.743 17.6826 136.885 17.9934C136.752 18.4156 136.22 19.9032 135.21 20.2312C134.521 20.4553 134.108 20.3959 133.477 20.2954C132.98 20.0385 132.503 19.7637 131.995 19.1026C132.943 18.4269 133.131 17.7303 134.277 17.358ZM130.188 14.5355C130.445 14.1747 130.77 13.9611 131.111 13.9249C131.639 14.2835 132.726 15.2224 132.726 16.1852C132.726 16.9133 132.516 17.3552 132.265 17.8489C131.861 18.2655 131.469 18.659 130.645 18.9534C130.308 17.8411 129.705 17.3976 129.705 16.1852C129.705 15.5571 129.877 14.9712 130.188 14.5355ZM125.554 18.1958C126.058 17.8052 127.288 17.0603 128.204 17.358C128.909 17.5872 129.146 17.9195 129.582 18.3616C129.833 18.8607 130.057 19.3622 130.08 20.1929C128.922 20.1698 128.307 20.6048 127.157 20.2312C126.246 19.9351 125.348 19.1115 125.554 18.1958Z" fill="#954EDE"/>
</g>
<defs>
<filter id="filter0_f" x="23" y="81" width="156" height="26" filterUnits="userSpaceOnUse" color-interpolation-filters="sRGB">
<feFlood flood-opacity="0" result="BackgroundImageFix"/>
<feBlend mode="normal" in="SourceGraphic" in2="BackgroundImageFix" result="shape"/>
<feGaussianBlur stdDeviation="5" result="effect1_foregroundBlur"/>
</filter>
<clipPath id="clip0">
<rect width="277" height="105.82" fill="white"/>
</clipPath>
<clipPath id="clip1">
<rect width="5.93764" height="6.92725" fill="white" transform="translate(172.157 11.8438)"/>
</clipPath>
<clipPath id="clip2">
<rect width="35.8977" height="38.0016" fill="white" transform="translate(14 7)"/>
</clipPath>
<clipPath id="clip3">
<rect width="6.32513" height="7.37931" fill="white" transform="translate(196.023 58.4346) rotate(24.9452)"/>
</clipPath>
<clipPath id="clip4">
<rect width="15.6977" height="15.6977" fill="white" transform="translate(185.065 43.001) rotate(24.9452)"/>
</clipPath>
<clipPath id="clip5">
<rect width="7.27921" height="8.49241" fill="white" transform="translate(12.7046 94.8418)"/>
</clipPath>
<clipPath id="clip6">
<rect width="14.7496" height="14.7496" fill="white" transform="translate(6 74.7285)"/>
</clipPath>
<clipPath id="clip7">
<rect width="25.2278" height="25.2278" fill="white" transform="translate(22.0908 74.7275)"/>
</clipPath>
<clipPath id="clip8">
<rect width="17" height="17" fill="white" transform="translate(175 22)"/>
</clipPath>
</defs>
</svg>
