<svg width="277" height="106" viewBox="0 0 277 106" fill="none" xmlns="http://www.w3.org/2000/svg">
<g clip-path="url(#clip0)">
<g filter="url(#filter0_f)">
<ellipse cx="101" cy="94" rx="68" ry="3" fill="#C4C4C4" fill-opacity="0.5"/>
</g>
<g clip-path="url(#clip1)">
<path d="M85.8771 24.5629C85.7112 24.8323 85.6126 25.1432 85.4467 25.4126C85.1202 25.4902 84.8352 25.5004 84.5087 25.578C77.2953 26.4303 69.2858 22.2404 72.0704 17.2669C73.4289 14.7594 76.3048 14.7657 77.9163 15.015C78.233 13.4451 79.1875 10.6887 81.8926 10.2182C87.5619 9.15804 88.9368 18.0868 85.8771 24.5629Z" fill="#EF3829"/>
<path d="M90.982 23.0629C90.8058 23.0473 90.5882 23.099 90.3447 23.042C90.2515 22.8916 90.0909 22.6999 89.9977 22.5495C87.4238 18.7348 87.4363 12.983 91.0842 13.0932C92.8875 13.1819 93.7367 14.8197 94.0783 15.7733C95.0993 15.4731 96.8664 15.1681 98.0162 16.6194C100.274 19.5894 95.6094 22.9403 90.982 23.0629Z" fill="#B72C38"/>
</g>
<g clip-path="url(#clip2)">
<path d="M8.73365 85.9115C8.73365 86.6341 8.13665 87.2311 7.38255 87.2311C6.62845 87.2311 6.03146 86.6341 6.03146 85.9115C6.00004 85.1888 6.59703 84.5918 7.35113 84.5918C8.10523 84.5918 8.73365 85.1888 8.73365 85.9115Z" fill="#B72C38"/>
<path d="M10.399 60.3667C10.399 60.8066 10.022 61.1837 9.58208 61.1837C9.14219 61.1837 8.76514 60.8381 8.76514 60.3667C8.76514 59.8954 9.14219 59.5498 9.58208 59.5498C10.022 59.5812 10.399 59.9269 10.399 60.3667Z" fill="#ED7E60"/>
<path d="M44.1762 70.167L43.8935 72.9634L43.0137 80.8186L42.668 83.8979L41.4112 95.3665L30.9795 95.9006L27.7746 96.0892L15.489 96.7176L12.3155 86.1288L11.4358 83.1438L8.92209 74.7544L8.70215 74.0318L44.1762 70.167Z" fill="#F3DEC9"/>
<path d="M43.014 80.8213L42.6683 83.9005L30.2257 84.8117L26.141 85.1259L12.3158 86.1314L11.436 83.1464L25.3869 82.1095L30.5085 81.7325L43.014 80.8213Z" fill="#EF3829"/>
<path opacity="0.1" d="M17.0284 95.305L41.411 95.3679L30.9793 95.902L27.7744 96.0906L15.4888 96.719L12.3153 86.1302L11.4355 83.1452L8.92188 74.7558L43.8932 72.9648L12.2525 77.7094L17.0284 95.305Z" fill="#CB2C1C"/>
<path opacity="0.38" d="M30.5083 81.7314L30.2255 84.8107L26.1408 85.1249L25.3867 82.1085L30.5083 81.7314Z" fill="#CB2C1C"/>
<path d="M30.9796 95.9018L27.7746 96.0903L25.041 75.0069L28.8744 74.6299L30.9796 95.9018Z" fill="#EF3829"/>
<path d="M25.8892 65.8635V67.0575C25.8892 67.0575 25.8892 67.0575 25.8578 67.0575C25.8578 67.0575 25.8264 67.0575 25.795 67.0575C25.795 67.0575 25.795 67.0575 25.7635 67.0575C25.5436 66.9947 24.978 66.8376 24.1925 66.4919C23.8469 64.7952 22.8414 62.093 19.7936 59.925C18.9452 59.328 18.1283 58.8567 17.3428 58.5111C16.6829 58.1969 16.0545 57.9769 15.4575 57.8198C16.0859 57.4113 16.84 57.1285 17.5941 56.9714C18.9138 56.7201 20.3277 56.8143 21.3646 57.3799C24.3182 58.9195 25.8892 62.7843 25.8892 65.8635Z" fill="#EF3829"/>
<path d="M25.8894 67.0571L24.3498 67.8112C24.3498 67.5598 24.3183 67.1827 24.2241 66.7114C22.0246 66.2401 20.0451 66.6172 17.2487 65.2975C15.8976 64.6691 14.1694 63.0038 13.8238 61.6841C13.3525 59.956 14.138 58.6363 15.4577 57.8193C16.0547 57.9764 16.6831 58.1964 17.3429 58.4792C17.2487 59.7988 17.5943 61.2756 18.8511 62.6267C20.7992 64.7319 22.8416 65.8631 24.2241 66.4601C25.0096 66.8057 25.5752 66.9628 25.7951 67.0256C25.7951 67.0256 25.7951 67.0256 25.8265 67.0256C25.8265 67.0571 25.858 67.0571 25.8894 67.0571Z" fill="#D93D40"/>
<path d="M26.0151 65.0157V66.2097C26.0151 66.2097 26.0151 66.2097 26.0466 66.2097C26.0466 66.2097 26.078 66.2097 26.1094 66.2097C26.1094 66.2097 26.1094 66.2097 26.1408 66.2097C26.3608 66.1469 26.9263 65.9897 27.7119 65.6441C28.0575 63.9474 29.063 61.2452 32.1108 59.0772C32.9591 58.4802 33.7761 58.0089 34.5616 57.6632C35.2214 57.349 35.8499 57.1605 36.4154 57.0034C35.787 56.5949 35.0329 56.3121 34.2788 56.155C32.9591 55.9037 31.5452 55.9979 30.5083 56.5635C27.5862 58.0717 26.0151 61.9365 26.0151 65.0157Z" fill="#EF3829"/>
<path d="M26.0151 66.2104L27.5548 66.9645C27.5548 66.7131 27.5862 66.3361 27.6804 65.8647C29.8799 65.3934 31.8594 65.7705 34.6559 64.4508C36.007 63.8224 37.7351 62.1571 38.0807 60.8374C38.552 59.1093 37.7665 57.7896 36.4468 56.9727C35.8499 57.1298 35.2529 57.3497 34.593 57.6639C34.6873 58.9836 34.3417 60.4604 33.0848 61.8115C31.1367 63.8852 29.0944 65.0478 27.7119 65.6134C26.9263 65.959 26.3608 66.1161 26.1408 66.179C26.1408 66.179 26.1408 66.179 26.1094 66.179C26.078 66.2104 26.078 66.2104 26.0151 66.2104C26.0151 66.2104 26.0466 66.2104 26.0151 66.2104Z" fill="#D93D40"/>
<path d="M42.6682 73.2485C42.6682 73.2485 36.1641 73.9084 28.9059 74.631C27.6491 74.7567 26.3608 74.8824 25.0726 75.0081C18.2857 75.6679 11.7501 76.3278 9.89632 76.5477C9.55069 76.5791 9.23648 76.5791 8.95369 76.4849C5.81161 75.7936 6.65997 69.5095 6.65997 69.5095C12.9441 67.7185 18.9455 66.6502 24.2556 66.0532C24.2871 66.0532 24.3185 66.0532 24.3813 66.0532C25.5439 65.9275 26.675 65.8018 27.7433 65.7075C27.7748 65.7075 27.8062 65.7075 27.8376 65.7075C38.0494 64.8592 44.8991 65.6447 44.8991 65.6447C44.8991 65.6447 44.8991 65.6447 45.6218 69.9493C46.0931 73.1228 42.6682 73.2485 42.6682 73.2485Z" fill="#EF3829"/>
<path d="M28.8744 74.5991C27.6176 74.7248 26.3293 74.8819 25.0411 75.0076L24.2241 66.0527C24.2555 66.0527 24.287 66.0527 24.3498 66.0527C25.5124 65.927 26.6435 65.8013 27.7118 65.707C27.7433 65.707 27.7747 65.707 27.8061 65.707L28.8744 74.5991Z" fill="#EF3829"/>
<path d="M31.4509 68.8489C31.2309 69.1945 30.9796 69.5087 30.7282 69.8544C30.6025 70.0115 30.5711 70.0429 30.3826 69.9801C30.0055 69.8544 30.0055 69.8544 30.0055 69.8544C29.4085 69.5716 29.1572 69.3831 28.6858 68.9746C28.3402 68.6604 28.0574 68.2205 28.026 67.7492C27.9946 67.2779 28.4345 66.7751 28.9058 66.7437C29.4085 66.6809 29.7227 67.2464 29.9741 67.6549C30.0055 67.3721 29.9741 67.0579 30.1312 66.8066C30.2569 66.5552 30.4768 66.3667 30.7596 66.2724C31.3566 66.021 31.8279 66.3981 31.985 66.9951C32.1421 67.6235 31.7965 68.2833 31.4509 68.8489Z" fill="#F2DEC9"/>
<path d="M30.2568 67.9068C30.2568 68.0639 30.1312 68.1896 29.9426 68.1896C29.7855 68.1896 29.6284 68.0639 29.6284 67.9068C29.6284 67.7497 29.7541 67.624 29.9426 67.624C30.0997 67.624 30.2568 67.7497 30.2568 67.9068Z" fill="#CB2C1C"/>
<path d="M30.2571 67.4033C30.2571 67.5918 30.1943 67.7175 30.1629 67.9061C30.1314 68.126 29.7858 68.0317 29.8172 67.8118C29.9115 67.2462 29.8801 66.6806 29.6601 66.1151C29.5659 65.9265 29.4088 65.7066 29.2202 65.5495C28.9689 65.2981 28.5918 65.1724 28.2148 65.2039C27.9634 65.2353 27.7749 65.4238 27.6492 65.6752C27.5235 65.6752 27.3664 65.7066 27.2407 65.7066C27.5549 64.8268 28.5918 64.6697 29.4088 65.2353C29.5344 65.3296 29.6287 65.4238 29.6915 65.5181C29.9429 65.8323 30.0686 66.2093 30.1314 66.5864C30.1943 66.8692 30.2571 67.152 30.2571 67.4033Z" fill="#CB3E3D"/>
<path opacity="0.09" d="M8.92218 76.4849C5.81152 75.7936 6.65988 69.5095 6.65988 69.5095C12.944 67.7185 18.9454 66.6502 24.2555 66.0532C24.287 66.0532 24.3184 66.0532 24.3812 66.0532C25.5438 65.9275 26.6749 65.8018 27.7432 65.7075C27.7747 65.7075 27.8061 65.7075 27.8375 65.7075C38.0493 64.8592 44.899 65.6447 44.899 65.6447C15.332 66.6187 7.72819 70.3578 7.72819 70.3578C6.50277 73.9712 8.92218 76.4849 8.92218 76.4849Z" fill="#F7CCBD"/>
<path d="M30.8538 58.3232C30.0683 58.9202 29.3142 59.2344 29.1571 59.0458C29 58.8573 29.4713 58.1975 30.2568 57.6005C31.0423 57.0035 31.7964 56.6893 31.9535 56.8778C32.1106 57.0663 31.6079 57.7262 30.8538 58.3232Z" fill="#F8F8F9"/>
<path d="M28.5916 60.0519C28.4031 60.1776 28.1517 60.1776 27.9946 59.9891C27.8375 59.8006 27.8689 59.5492 28.0575 59.4235C28.246 59.2978 28.4974 59.2978 28.6545 59.4864C28.7802 59.6749 28.7487 59.9263 28.5916 60.0519Z" fill="#F8F8F9"/>
<path d="M21.9934 58.5118C22.6847 59.1717 23.1246 59.8629 22.936 60.0515C22.7475 60.24 22.0248 59.8315 21.3336 59.1717C20.6423 58.5118 20.2024 57.8206 20.391 57.6321C20.5481 57.4435 21.2707 57.852 21.9934 58.5118Z" fill="#F8F8F9"/>
<path d="M24.0356 60.4928C24.1927 60.6499 24.1927 60.9013 24.0356 61.0584C23.8785 61.2155 23.6272 61.2155 23.4386 61.0584C23.2815 60.9013 23.2815 60.6499 23.4386 60.4928C23.6272 60.3357 23.8785 60.3357 24.0356 60.4928Z" fill="#F8F8F9"/>
<path d="M39.0234 63.2876C38.9606 63.2562 38.8978 63.2248 38.8663 63.1934C38.8663 63.1305 38.8663 63.0677 38.8349 63.0048C38.7721 61.4966 39.7461 59.8942 40.7516 60.554C41.2543 60.8682 41.2229 61.4652 41.1286 61.8108C41.4743 61.9051 42.0084 62.125 42.0713 62.722C42.1969 63.8532 40.3431 64.0103 39.0234 63.2876Z" fill="#E9626A"/>
<path d="M14.1694 65.3613C14.2008 65.4242 14.2323 65.487 14.2323 65.5498C14.2008 65.6127 14.1694 65.6755 14.1066 65.707C13.2268 66.9324 11.4672 67.5922 11.0902 66.4611C10.9016 65.8955 11.3101 65.4556 11.5615 65.2356C11.3415 64.9529 11.0588 64.4501 11.373 63.9474C12.0014 62.9419 13.5724 63.9788 14.1694 65.3613Z" fill="#D93D40"/>
<path d="M47.0668 68.2211C47.0354 68.2211 46.9726 68.2211 46.9412 68.2211C46.9097 68.1897 46.8783 68.1583 46.8783 68.0955C46.3756 67.2157 46.4384 65.9903 47.2554 66.0531C47.6638 66.0845 47.6324 66.6815 47.6953 66.9015C47.9152 66.8386 48.4808 66.5873 48.7007 66.9015C49.1092 67.5613 48.0723 68.2526 47.0668 68.2211Z" fill="#EF3829"/>
</g>
<path d="M250.034 61.7504C249.625 61.7504 249.216 61.7504 248.807 61.6141C248.534 61.2051 248.398 60.9325 248.125 60.5235C243.217 52.2073 243.899 40.3465 251.533 41.0281C255.351 41.4371 255.214 47.0267 255.76 49.208C257.941 48.6627 263.258 46.2087 265.439 49.3443C269.665 55.6155 259.577 62.0231 250.034 61.7504Z" fill="#EF3829"/>
<g clip-path="url(#clip3)">
<path d="M208.753 23.7218C207.918 24.3016 206.503 24.0465 205.549 24.019C203.121 23.8754 200.452 21.943 199.703 19.6122C199.51 19.0231 199.268 15.4171 200.405 15.5546C200.501 15.5621 200.522 15.5877 200.566 15.639C201.573 15.001 202.682 14.5863 203.893 14.3949C205.125 14.2291 206.705 14.2102 207.918 14.5928C208.923 14.8873 209.02 16.0906 209.384 16.9324C209.926 18.2425 210.202 19.2926 210.068 20.6928C209.963 21.7129 209.664 23.0763 208.753 23.7218Z" fill="#D93D40"/>
<path d="M192.369 47.1076C190.244 48.877 187.588 49.8153 185 50.783C183.965 51.1796 182.83 51.6162 181.696 51.7419C180.489 51.8859 179.154 52.1392 177.911 52.1368C177.553 52.1325 176.349 52.2289 176.145 51.7823C176.025 51.4859 176.264 51.1938 176.52 50.9749C177.041 50.1312 177.945 49.5808 178.689 48.946C179.432 48.3112 180.14 47.53 180.996 46.9758C181.425 46.6987 181.875 46.4473 182.351 46.174C183.453 45.5435 184.617 45.0375 185.777 44.579C187.504 43.9022 189.338 43.0903 191.203 42.7831C193.164 42.4834 195.034 41.8178 197.074 41.7157C197.243 41.7051 197.418 41.9102 197.286 42.0672C195.871 43.9404 194.163 45.5753 192.369 47.1076Z" fill="#C5C25E"/>
<path d="M201.337 32.8455C201.26 32.9112 201.161 32.9512 201.085 33.0169C199.811 33.7056 198.426 33.0703 197.308 32.3843C195.756 31.4488 194.464 29.936 193.33 28.5552C192.524 27.559 192.252 26.4614 192.674 25.3469C192.605 25.3176 192.565 25.2187 192.598 25.1018C192.816 24.1624 192.964 23.1937 193.229 22.2581C193.486 21.4175 193.85 20.4419 194.338 19.7151C194.881 18.8971 195.376 18.0752 196.054 17.3635C196.86 16.5423 197.721 15.9406 198.614 15.2219C199.328 14.6565 200.399 13.2105 201.44 13.9622C202.05 14.4168 202.622 15.3468 203.052 15.9546C203.501 16.6356 203.748 17.4443 203.951 18.2016C204.205 19.226 204.386 20.2685 204.519 21.3073C204.879 24.014 204.83 26.7602 203.816 29.3106C203.698 29.5883 203.607 29.8441 203.489 30.1218C202.949 31.2031 202.344 32.2076 201.337 32.8455Z" fill="#EA4F4F"/>
<path d="M205.531 30.9055C204.355 31.865 202.858 32.6556 201.337 32.8464C200.565 32.929 199.779 32.8909 199.063 32.5714C197.765 32.0386 196.63 31.2795 195.967 29.9837C195.508 29.1344 195.33 28.0444 195.617 27.1344C195.504 27.0537 195.42 26.9036 195.574 26.7723L195.651 26.7066C195.728 26.6409 195.853 26.579 195.955 26.4915C195.955 26.4915 195.955 26.4915 195.981 26.4696C196.006 26.4477 196.006 26.4477 196.032 26.4258C197.054 25.5977 198.116 24.8684 199.2 24.1648C199.679 23.8439 200.181 23.5487 200.66 23.2278C201.843 22.4841 203.164 21.7992 204.497 21.2826C204.991 21.0824 205.507 20.9079 205.997 20.7552C207.296 20.3555 212.666 19.2726 211.358 22.2064C210.694 23.6605 209.912 25.0815 209.204 26.4843C208.499 27.8396 207.51 28.8616 206.513 29.9786C206.176 30.3107 205.864 30.6209 205.531 30.9055Z" fill="#EA4F4F"/>
<path d="M181.847 15.575C182.01 16.2335 182.806 16.7507 183.303 17.1247C184.54 18.1071 186.65 18.3452 187.983 17.5177C188.334 17.3063 189.899 15.6602 189.289 15.2055C189.267 15.1799 189.219 15.1761 189.172 15.1724C188.947 14.3894 188.571 13.6902 188.046 13.0749C187.521 12.4595 186.739 11.7522 185.98 11.3814C185.38 11.095 184.813 11.6242 184.289 11.8937C183.535 12.3603 182.978 12.7469 182.465 13.4955C182.062 14.0615 181.665 14.8433 181.847 15.575Z" fill="#B72C38"/>
<path d="M181.791 23.5578C182.151 24.4471 183.083 24.7598 183.931 24.9223C185.06 25.1549 186.341 24.9928 187.456 24.7939C188.279 24.6675 188.84 24.2334 189.112 23.5136C189.159 23.5173 189.232 23.4992 189.262 23.4298C189.522 22.8525 189.849 22.3521 190.113 21.7274C190.323 21.1939 190.54 20.5653 190.61 19.9731C190.685 19.3333 190.781 18.7191 190.76 18.0719C190.725 17.3039 190.54 16.6197 190.384 15.8661C190.287 15.2845 190.333 14.0925 189.503 14.0031C189.006 13.94 188.344 14.1508 187.879 14.2815C187.367 14.4085 186.913 14.7075 186.532 14.9883C184.602 16.4143 182.792 18.1368 182.031 20.5159C181.689 21.5172 181.394 22.5222 181.791 23.5578Z" fill="#D33543"/>
<path d="M185.556 24.3316C184.692 24.67 183.841 24.5549 182.982 24.2242C182.492 24.066 182.087 23.747 181.737 23.3368L181.649 23.2342C181.211 22.7214 180.905 22.0517 180.695 21.3894C180.502 20.8003 180.382 20.193 180.402 19.6445C180.407 18.6645 180.314 17.7246 180.535 16.7377C180.735 15.7251 180.934 14.7126 181.203 13.7294C181.207 13.6819 181.207 13.6819 181.207 13.6819C181.443 12.8157 182.013 12.8607 182.579 13.2641C183.349 13.8031 184.148 14.8944 184.425 15.3227C184.593 15.6229 184.786 15.9012 184.95 16.2489C185.242 16.798 185.504 17.4165 185.722 17.9837C185.842 18.2802 185.936 18.5985 186.031 18.9168C186.369 20.0913 186.754 21.2695 186.971 22.4584C186.967 22.5059 186.989 22.5316 187.007 22.6047C187.026 22.6779 187.044 22.7511 187.062 22.8242L187.08 22.8974C187.094 23.0181 186.996 23.0581 186.901 23.0506C186.662 23.6536 186.123 24.1133 185.556 24.3316Z" fill="#D33543"/>
<path d="M199.766 16.677C198.843 17.4651 197.925 17.8948 197.706 17.6384C197.487 17.382 198.055 16.542 198.978 15.754C199.901 14.9659 200.82 14.5362 201.039 14.7926C201.258 15.049 200.69 15.8889 199.766 16.677Z" fill="#F8F8F9"/>
<path d="M197.048 18.9982C196.843 19.1733 196.511 19.1471 196.314 18.9163C196.117 18.6856 196.165 18.3785 196.37 18.2034C196.575 18.0282 196.908 18.0545 197.105 18.2852C197.302 18.516 197.254 18.8231 197.048 18.9982Z" fill="#F8F8F9"/>
<path d="M189.871 16.924C189.924 17.7652 189.798 18.4488 189.557 18.4775C189.341 18.4844 189.083 17.8184 189.03 16.9772C188.976 16.1361 189.102 15.4525 189.343 15.4237C189.585 15.3949 189.817 16.0829 189.871 16.924Z" fill="#F8F8F9"/>
<path d="M190.056 19.4248C190.089 19.6186 189.931 19.7975 189.716 19.8044C189.5 19.8113 189.368 19.6575 189.336 19.4636C189.303 19.2697 189.461 19.0908 189.677 19.0839C189.893 19.0771 190.05 19.209 190.056 19.4248Z" fill="#F8F8F9"/>
<path d="M214.512 34.9852C213.66 34.8702 212.988 34.6019 213.028 34.3899C213.047 34.1522 213.771 34.0659 214.576 34.1771C215.427 34.2922 216.1 34.5604 216.059 34.7724C216.044 34.9625 215.342 35.0745 214.512 34.9852Z" fill="#F8F8F9"/>
<path d="M212.051 34.6474C211.861 34.6324 211.708 34.4529 211.749 34.2409C211.764 34.0508 211.943 33.8975 212.155 33.9382C212.345 33.9532 212.498 34.1327 212.458 34.3447C212.417 34.5567 212.241 34.6624 212.051 34.6474Z" fill="#F8F8F9"/>
<path d="M183.267 22.7401L183.022 22.8164L181.697 23.238L181.65 23.2343L180.669 23.5396C180.611 23.3676 180.574 23.2212 180.491 23.0711C180.294 22.5296 180.292 21.9554 180.311 21.407C180.319 21.3119 180.443 21.25 180.487 21.3013C180.556 21.3306 180.626 21.36 180.695 21.3894C180.502 20.8003 180.383 20.1931 180.402 19.6446C180.408 18.6646 180.315 17.7246 180.536 16.7377C180.735 15.7252 180.935 14.7126 181.204 13.7295C181.115 14.2486 180.559 17.9591 181.914 20.7921C182.238 21.535 182.664 22.1904 183.267 22.7401Z" fill="#B72C38"/>
<path d="M205.531 30.9048C204.356 31.8642 202.859 32.6548 201.337 32.8457C201.26 32.9113 201.161 32.9514 201.084 33.017C199.811 33.7057 198.426 33.0704 197.308 32.3844C195.756 31.4489 194.464 29.9361 193.33 28.5553C192.524 27.5591 192.251 26.4616 192.674 25.3471C192.605 25.3177 192.565 25.2189 192.598 25.1019C192.815 24.1626 192.964 23.1938 193.229 22.2582C193.486 21.4176 193.85 20.442 194.338 19.7152C194.338 19.7152 193.377 23.1068 195.289 25.2425C195.289 25.2425 197.72 23.832 199.196 24.2115C199.478 24.2816 199.752 24.4466 199.923 24.6993C201.025 26.1971 201.179 29.7005 201.179 29.7005C201.179 29.7005 202.268 29.8343 203.441 30.1181C204.169 30.2951 204.936 30.5708 205.531 30.9048Z" fill="#DB4040"/>
<path d="M180.259 46.0098C180.182 46.0755 180.062 46.0899 179.996 46.013C179.434 45.5621 178.805 45.3451 178.323 44.7811C177.977 44.3233 177.66 43.7961 177.39 43.2727C176.658 41.9475 176.284 40.6267 176.137 39.1564C175.993 37.9494 176.386 36.9043 176.761 35.786C177.199 34.4814 177.414 32.9679 178.129 31.7809C178.21 31.6677 178.473 31.6645 178.51 31.8109C179.063 33.2893 179.762 34.7314 180.392 36.1442C180.88 37.2348 181.473 38.5012 181.811 39.6757C182.087 40.7257 182.004 42.0822 181.848 43.146C181.848 43.146 181.848 43.146 181.822 43.1679C181.759 43.6651 181.539 44.0304 181.315 44.4431C181.315 44.4431 181.315 44.4431 181.337 44.4688C181.381 44.5201 181.374 44.6151 181.344 44.6845C181.238 44.8196 181.153 44.9804 181.047 45.1155C181.043 45.163 181.018 45.1849 181.014 45.2324C181.01 45.28 181.006 45.3275 180.977 45.3969C180.951 45.4188 180.951 45.4188 180.926 45.4407C180.896 45.5101 180.823 45.5282 180.75 45.5464C180.592 45.7253 180.435 45.9041 180.259 46.0098Z" fill="#C5C25E"/>
<path d="M215.285 42.1712C214.653 42.0018 214.142 41.1963 213.726 40.7091C212.749 39.4603 212.508 37.3608 213.333 35.9912C213.528 35.6478 215.184 34.0567 215.636 34.6902C215.658 34.7158 215.654 34.7633 215.65 34.8109C216.421 35.0391 217.108 35.428 217.714 35.9302C218.342 36.458 219.021 37.2528 219.392 37.9995C219.702 38.6218 219.134 39.1509 218.877 39.6806C218.481 40.4624 218.099 41.0541 217.341 41.5682C216.785 41.9547 215.987 42.3701 215.285 42.1712Z" fill="#B72C38"/>
<path d="M207.342 42.2151C206.461 41.8587 206.152 40.9256 206.004 40.077C205.783 38.9356 205.932 37.6561 206.117 36.5228C206.254 35.6967 206.657 35.1306 207.396 34.8542C207.4 34.8066 207.43 34.7372 207.455 34.7153C208.026 34.4495 208.532 34.1067 209.124 33.8665C209.644 33.6445 210.306 33.4337 210.862 33.358C211.491 33.2641 212.121 33.1703 212.76 33.2446C213.521 33.3046 214.201 33.4778 214.954 33.6329C215.542 33.751 216.72 33.6765 216.821 34.5214C216.878 35.0042 216.657 35.6803 216.551 36.1262C216.44 36.6197 216.139 37.0981 215.846 37.4815C214.427 39.4022 212.679 41.2491 210.348 41.9979C209.342 42.3251 208.339 42.6047 207.342 42.2151Z" fill="#D33543"/>
<path d="M206.671 41.0146C206.381 40.1547 206.258 39.2841 206.589 38.4254C206.802 37.8444 207.249 37.3297 207.842 37.0895C207.824 37.0163 207.857 36.8994 208 36.9106L208.069 36.94C208.138 36.9694 208.233 36.9769 208.303 37.0063C208.303 37.0063 208.325 37.0319 208.35 37.01C209.575 37.2501 210.766 37.6071 211.98 37.9898C213.193 38.3725 214.464 38.9271 215.535 39.6093C216.287 40.0752 219.171 42.3115 217.192 42.8488C216.19 43.1284 215.147 43.3092 214.148 43.5413C213.175 43.7515 212.225 43.6765 211.27 43.6491C209.53 43.5835 207.279 42.7125 206.671 41.0146Z" fill="#D33543"/>
<path d="M187.94 26.2415C187.186 26.7081 186.37 27.0503 185.503 27.1254C185.214 27.1504 184.904 27.1498 184.596 27.1017C184.406 27.0867 184.242 27.0498 184.03 27.0091C182.952 26.7328 181.995 26.1312 181.353 25.1719C181.032 24.6922 180.839 24.1031 180.643 23.5615C180.585 23.3896 180.549 23.2432 180.465 23.0931C180.268 22.5515 180.266 21.9774 180.285 21.429C180.293 21.3339 180.417 21.272 180.461 21.3232C180.53 21.3526 180.6 21.382 180.669 21.4114C180.969 21.5546 181.294 21.6759 181.641 21.8229C181.71 21.8523 181.78 21.8816 181.802 21.9073C182.145 22.1018 182.437 22.34 182.777 22.582C182.821 22.6333 182.89 22.6627 182.934 22.714L182.999 22.7909C183.109 22.9191 183.208 22.8791 183.245 22.7146C183.322 22.6489 183.505 22.4481 183.582 22.3825C183.919 22.0504 184.281 21.6964 184.706 21.4668C185.134 21.1897 185.775 20.6425 186.265 21.1115C186.597 21.4485 186.819 21.9682 186.968 22.5061C186.964 22.5536 186.986 22.5792 187.004 22.6524C187.08 22.8976 187.109 23.139 187.189 23.3366C187.643 23.0376 188.068 22.8081 188.642 22.8055C188.905 22.8024 189.238 22.8286 189.519 22.8986C189.589 22.928 189.68 22.9831 189.771 23.0381L189.797 23.0162C189.925 22.9067 190.1 23.1119 189.972 23.2213C189.946 23.2432 189.946 23.2432 189.921 23.2651C189.895 23.287 189.895 23.287 189.891 23.3345C189.759 23.4915 189.668 23.7473 189.579 23.9556C189.414 24.2295 189.319 24.5328 189.128 24.8287C188.801 25.329 188.471 25.8769 187.94 26.2415Z" fill="#C5C25E"/>
<path d="M180.954 45.9934C181.097 45.6939 181.218 45.3686 181.361 45.0691C181.361 45.0691 181.361 45.0691 181.387 45.0472C181.538 44.6525 181.736 44.2617 181.865 43.8414C181.894 43.772 181.923 43.7025 181.931 43.6075C182.651 41.7512 183.211 39.8106 183.672 37.91C184.471 34.7448 185.452 30.4939 184.596 27.1024C184.501 26.784 184.429 26.4914 184.334 26.173C184.138 25.6315 184.972 25.3625 185.169 25.9041C185.329 26.2993 185.441 26.6908 185.503 27.1261C186.184 30.3124 185.449 34.1762 184.785 37.1369C184.379 38.9462 183.9 40.7737 183.257 42.5642C183.224 42.6812 183.165 42.82 183.132 42.937C183.007 43.3097 182.856 43.7043 182.709 44.0515C182.68 44.1209 182.676 44.1684 182.646 44.2378C182.643 44.2854 182.613 44.3548 182.588 44.3767C182.046 44.8839 181.478 45.413 180.954 45.9934Z" fill="#C5C25E"/>
<path d="M167.64 64.4075C168.774 60.6469 171.362 57.551 173.569 54.4251C175.322 51.909 176.892 49.2829 178.871 46.9281C179.19 46.5228 179.557 46.1213 179.92 45.7673C180.546 45.0993 181.169 44.4789 181.839 43.8622C182.019 43.709 182.151 43.552 182.33 43.3987C182.638 43.136 182.924 42.8477 183.257 42.5631C184.543 41.4211 185.869 40.3778 187.176 39.2614L191.714 35.3867C192.304 34.8832 192.861 34.1859 193.564 33.7631C192.29 32.6343 191.5 31.1371 190.984 29.4943C190.678 28.5136 190.86 27.4279 190.986 26.4335C191.053 25.8888 191.259 25.4029 191.347 24.8838C191.421 24.5548 191.572 24.1602 191.602 23.7799C191.605 23.7324 191.609 23.6849 191.613 23.6373C191.617 23.5898 191.617 23.5898 191.62 23.5423C191.57 23.2752 192.009 23.1664 192.056 23.481L192.052 23.5285C192.666 23.6248 193.272 24.1269 193.696 24.519C194.411 25.1494 194.709 25.9142 194.927 26.7923C195.868 26.0774 197.165 25.1035 198.339 25.0766C199.417 25.0421 199.641 26.4467 199.889 27.2553C200.161 28.0421 200.218 28.8357 200.297 29.655C200.33 29.8489 200.296 30.2766 200.354 30.4486C200.185 30.7701 200.295 30.8983 200.708 30.8113C200.829 30.7969 200.971 30.8082 201.066 30.8157C201.71 30.8425 202.328 30.8913 202.96 31.0607C203.757 31.267 204.469 31.6341 205.266 31.8404C205.383 31.8736 205.463 32.0712 205.382 32.1844C204.778 32.878 204.22 33.5753 203.397 34.0126C202.35 34.5517 201.288 35.281 200.165 35.575C198.383 36.0323 196.592 35.6997 194.963 34.8299C194.711 34.6905 194.506 34.5548 194.302 34.4191C193.145 34.83 191.738 36.6081 190.892 37.3305C189.635 38.4032 188.375 39.5233 187.097 40.5704C186.584 41.0082 186.075 41.3984 185.562 41.8363C184.669 42.5549 183.793 43.3467 182.943 44.1166C182.841 44.2042 182.712 44.3137 182.632 44.4269C182.064 44.956 181.496 45.4851 180.95 46.0399C180.796 46.1712 180.69 46.3063 180.536 46.4377C178.008 49.0839 176.246 52.3167 174.101 55.2562C172.004 58.1995 169.545 61.186 168.473 64.7602C168.315 65.2499 167.478 64.9448 167.64 64.4075Z" fill="#C5C25E"/>
<path d="M210.535 43.5667C210.181 43.5148 209.804 43.4373 209.432 43.3123C208.708 43.0878 208.017 42.7464 207.506 42.2517C207.437 42.2223 207.39 42.2186 207.32 42.1892C206.44 41.8328 206.131 40.8997 205.982 40.051C205.761 38.9097 205.932 37.6557 206.095 36.4969C206.232 35.6707 206.635 35.1047 207.375 34.8282C207.378 34.7807 207.382 34.7332 207.433 34.6894C207.631 34.6093 207.781 34.5255 207.957 34.4198C208.33 34.234 208.707 34.0007 209.128 33.8187C209.648 33.5967 210.31 33.3858 210.866 33.3101C211.517 33.2419 212.146 33.1481 212.764 33.1968C213.313 33.2162 213.828 33.3525 214.347 33.4412L214.263 33.602C214.263 33.602 210.34 33.0056 208.963 35.91C208.963 35.91 211.138 36.5359 210.978 37.6473C210.845 38.7367 210.397 39.5623 209.141 40.6349C209.141 40.6349 209.739 41.2321 210.133 42.0045C210.376 42.5498 210.551 43.0658 210.535 43.5667Z" fill="#B72C38"/>
<path d="M207.789 43.5173C207.116 43.2491 206.32 43.0427 205.754 42.6394C204.822 42.0159 204.206 41.0347 203.934 39.9372C203.589 38.5469 203.958 37.2129 204.699 36.004C205.029 35.4561 205.604 35.1427 206.109 34.8C206.362 34.6286 206.705 34.5123 206.98 34.3665C207.156 34.2608 207.401 34.1845 207.602 34.0569C207.628 34.035 207.654 34.0131 207.654 34.0131C207.679 33.9912 207.679 33.9912 207.679 33.9912C207.785 33.8561 208.012 34.0175 207.906 34.1526C207.906 34.1526 207.906 34.1526 207.88 34.1745C208.095 34.4784 208.105 34.9574 208.101 35.3158C208.103 35.8899 207.876 36.3502 207.579 36.7811C208.306 36.9581 209.271 37.1538 209.778 37.696C210.242 38.1869 209.688 38.8367 209.417 39.2457C209.167 39.6804 208.83 40.0125 208.468 40.3665C208.365 40.4541 208.186 40.6073 208.131 40.6986C207.911 40.753 207.904 40.8481 208.13 41.0094C208.174 41.0607 208.218 41.112 208.283 41.1889C208.546 41.4966 208.761 41.8005 208.972 42.152C209.202 42.5766 209.329 43.0888 209.559 43.5134C209.577 43.5866 209.544 43.7036 209.448 43.6961C208.896 43.7242 208.322 43.7268 207.789 43.5173Z" fill="#C5C25E"/>
<path d="M204.743 39.6907C204.44 39.5951 204.136 39.4994 203.807 39.4256C200.43 38.5853 196.194 39.5425 193.047 40.3225C189.583 41.1971 186.074 42.3312 182.947 44.0694C182.849 44.1094 182.772 44.1751 182.673 44.2151C182.321 44.4265 181.97 44.6379 181.618 44.8493C181.52 44.8894 181.417 44.9769 181.34 45.0426C180.861 45.3635 180.355 45.7062 179.919 46.0784C179.564 46.3373 179.205 46.6438 178.872 46.9283C179.191 46.5231 179.557 46.1215 179.92 45.7675C180.547 45.0996 181.169 44.4791 181.84 43.8624C181.869 43.793 181.899 43.7236 181.906 43.6285C182.056 43.5447 182.181 43.4828 182.331 43.399C182.605 43.2532 182.88 43.1075 183.132 42.9361C183.93 42.5208 184.75 42.1311 185.566 41.789C188.216 40.6349 191.008 39.803 193.807 39.1868C196.751 38.5343 200.589 37.7848 203.762 38.4894C204.186 38.5707 204.606 38.6995 204.979 38.8245C205.56 39.0377 205.28 39.8527 204.743 39.6907Z" fill="#C5C25E"/>
<path d="M193.557 29.913C193.255 28.8849 193.184 27.6597 193.457 26.6291C193.49 26.5121 193.329 26.4277 193.227 26.5153C192.827 27.0337 192.811 27.8455 192.762 28.4634C192.721 28.9862 192.657 29.7943 193.128 30.1901C193.307 30.3477 193.633 30.1582 193.557 29.913Z" fill="#BAB23C"/>
<path d="M196.892 30.0801C197.09 29.6892 197.062 29.137 197.377 28.7792C197.429 28.7354 197.337 28.6804 197.312 28.7023C196.986 28.8918 196.905 29.3158 196.783 29.641C196.596 30.2002 196.087 30.5905 195.947 31.1533C195.917 31.2227 196.005 31.3253 196.104 31.2853C196.481 31.052 196.72 30.4491 196.892 30.0801Z" fill="#BAB23C"/>
<path d="M201.37 32.7294C200.77 32.7539 200.221 33.0453 199.596 33.0917C199.091 33.1236 198.536 32.8885 198.122 33.2863C197.964 33.4651 197.942 33.7503 198.172 33.8641C199.403 34.6308 200.48 33.4005 201.388 32.8026C201.414 32.7807 201.37 32.7294 201.37 32.7294Z" fill="#BAB23C"/>
<path d="M184.051 25.2176C183.807 24.9831 183.459 24.8361 183.164 24.6454C182.755 24.374 182.496 24.0188 182.112 23.7255C182.09 23.6999 182.065 23.7218 182.087 23.7474C182.528 24.5235 183.214 24.9125 183.97 25.3308C184.018 25.3345 184.095 25.2689 184.051 25.2176Z" fill="#BAB23C"/>
<path d="M185.403 24.153C185.451 23.846 185.451 23.5351 185.521 23.2537C185.525 23.2062 185.478 23.2024 185.452 23.2243C185.184 23.5858 185.062 24.2219 185.171 24.6609C185.189 24.7341 185.237 24.7378 185.288 24.694C185.49 24.5664 185.388 24.3432 185.403 24.153Z" fill="#BAB23C"/>
<path d="M187.467 25.2719C187.544 25.2063 187.969 24.3551 188.017 24.3588C188.039 24.3845 188.043 24.3369 188.043 24.3369C188.021 24.3113 187.999 24.2857 187.977 24.26C187.955 24.2344 187.929 24.2563 187.929 24.2563C187.647 24.4971 187.457 24.7929 187.175 25.0337C186.918 25.2526 186.644 25.3983 186.5 25.6979C186.445 25.7892 186.555 25.9174 186.654 25.8774C186.976 25.7354 187.254 25.5421 187.467 25.2719Z" fill="#BAB23C"/>
<path d="M206.093 37.4299C206.236 37.1303 206.376 36.5674 206.72 36.4511C206.443 36.3335 206.234 36.5562 206.12 36.7863C205.87 37.221 205.72 37.6156 205.587 38.0834C205.558 38.1529 205.671 38.2335 205.722 38.1897C205.927 38.0146 205.954 37.6819 206.093 37.4299Z" fill="#BAB23C"/>
<path d="M207.582 38.863C207.191 38.9756 206.426 38.9631 206.206 39.3284C206.177 39.3978 206.243 39.4747 206.316 39.4566C206.74 39.227 207.198 39.1913 207.582 38.863Z" fill="#BAB23C"/>
<path d="M207.444 42.1277C207.144 41.9845 206.491 41.4786 206.422 41.1384C206.382 41.0396 206.265 41.0064 206.232 41.1234C206.037 41.7776 206.91 42.229 207.444 42.1277Z" fill="#BAB23C"/>
<path d="M193.706 43.7943C191.236 44.7951 189.071 46.4657 186.597 47.514C185.532 47.98 184.442 48.4679 183.337 48.8351C182.773 49.0059 182.217 49.0816 181.712 49.4243C181.635 49.49 181.745 49.6182 181.818 49.6001C186.026 48.0907 190.23 46.6288 193.706 43.7943C193.732 43.7724 193.754 43.798 193.706 43.7943Z" fill="#BAB23C"/>
<path d="M180.319 43.4316C178.825 40.8507 177.968 37.77 178.467 34.7725C178.004 36.099 178.132 38.1177 178.356 39.5224C178.602 40.9527 179.026 42.5405 180.118 43.5592C180.205 43.6618 180.403 43.5817 180.319 43.4316Z" fill="#BAB23C"/>
<path d="M214.794 34.7454C213.971 34.561 213.303 34.2452 213.369 34.0113C213.41 33.7993 214.108 33.7348 214.956 33.8974C215.779 34.0818 216.447 34.3976 216.381 34.6315C216.315 34.8654 215.616 34.9298 214.794 34.7454Z" fill="#F8F8F9"/>
<path d="M212.349 34.2168C212.137 34.1762 212.031 34.0005 212.072 33.7884C212.087 33.5983 212.288 33.4707 212.5 33.5114C212.712 33.552 212.818 33.7277 212.777 33.9397C212.737 34.1518 212.535 34.2794 212.349 34.2168Z" fill="#F8F8F9"/>
<path opacity="0.09" d="M180.703 45.5426C180.571 45.6996 180.413 45.8785 180.259 46.0098C180.182 46.0755 180.062 46.0899 179.996 46.013C179.434 45.5621 178.805 45.3451 178.323 44.7811C177.977 44.3233 177.66 43.7961 177.39 43.2727C176.658 41.9475 176.284 40.6267 176.137 39.1564C175.993 37.9494 176.386 36.9043 176.761 35.786C177.199 34.4814 177.414 32.9679 178.129 31.7809C178.21 31.6677 178.473 31.6645 178.51 31.8109C178.51 31.8109 176.615 41.2746 178.769 43.3814C180.787 45.3819 181.731 43.4237 181.819 43.2155C181.756 43.7127 181.535 44.0779 181.312 44.4907C181.312 44.4907 181.312 44.4907 181.333 44.5163C181.377 44.5676 181.37 44.6627 181.34 44.7321C181.234 44.8672 181.15 45.0279 181.043 45.163C181.04 45.2105 181.014 45.2324 181.01 45.28C181.006 45.3275 181.003 45.375 180.973 45.4444C180.948 45.4663 180.948 45.4663 180.922 45.4882C180.823 45.5282 180.772 45.572 180.703 45.5426Z" fill="#CB2C1C"/>
<path opacity="0.09" d="M185 50.7835C183.964 51.1801 182.83 51.6167 181.696 51.7425C180.489 51.8864 179.154 52.1398 177.91 52.1374C177.552 52.133 176.349 52.2294 176.145 51.7829C176.025 51.4865 176.263 51.1944 176.519 50.9755C177.04 50.1318 177.945 49.5814 178.688 48.9465C179.432 48.3117 180.139 47.5305 180.996 46.9764C181.424 46.6993 181.874 46.4479 182.35 46.1745L182.365 46.2952C182.365 46.2952 178.085 49.0185 179.091 50.5088C180.105 51.904 184.733 50.8342 185 50.7835Z" fill="#CB2C1C"/>
<path d="M180.324 67.011C180.228 65.8077 179.833 65.3462 178.8 64.8103C177.123 63.9367 176.987 62.3238 177.572 60.6721C177.965 59.627 178.165 58.3037 177.725 57.2167C177.546 56.7483 177.229 56.2211 176.875 55.8584C176.853 55.8328 176.226 55.305 175.798 54.9604C176.102 55.0561 176.379 55.1737 176.657 55.2912C177.603 55.7246 178.678 56.0484 179.687 56.2954C180.578 56.5092 182.765 56.6817 182.782 55.2483C182.788 53.9574 180.651 53.1671 179.656 53.0408C178.07 52.8439 175.769 52.9016 174.407 53.7985C174.364 53.7473 174.316 53.7435 174.272 53.6922C174.25 53.6666 174.225 53.6885 174.203 53.6628C174.13 53.3702 174.135 53.0118 174.08 52.7923C173.971 52.3533 173.837 51.9361 173.655 51.5153C173.316 50.6516 172.883 49.7804 172.446 48.9568C171.903 47.9575 170.56 46.4885 169.326 47.276C168.345 47.892 169.092 49.3379 169.558 50.0921C170.025 50.8463 170.693 51.4729 171.262 52.1396C171.59 52.5242 171.897 52.8831 172.277 53.2239C171.754 53.1827 171.275 53.1927 170.865 53.2322C169.27 53.4412 168.142 54.7152 166.417 54.1487C165.463 53.8104 164.397 52.7698 163.325 53.02C162.912 53.107 161.949 53.4854 162.073 54.0452C162.145 54.3378 162.606 54.2546 162.508 53.9838C162.45 53.8119 163.434 53.4591 163.555 53.4447C164.155 53.4202 164.994 53.9887 165.524 54.2457C166.189 54.609 166.913 54.8335 167.659 54.7727C168.547 54.7233 169.258 54.2054 170.096 53.8889C170.809 53.6343 172.035 53.5635 173 53.7592C173.274 53.9243 173.5 54.0857 173.675 54.2908C173.785 54.419 173.956 54.3608 174.037 54.2476C174.125 54.3502 174.224 54.3101 174.3 54.2445C174.505 54.3802 174.757 54.5196 175.013 54.6115C175.009 54.659 175.053 54.7103 175.075 54.736C175.844 55.8967 177.244 56.3418 177.504 57.8928C177.746 59.3706 176.965 60.4808 176.761 61.8517C176.676 62.634 176.933 63.9217 177.509 64.4933C177.71 64.6765 178.127 64.8529 178.353 65.0142C179.27 65.517 179.788 65.9165 179.87 66.9991C179.936 67.3869 180.349 67.2999 180.324 67.011ZM173.095 53.4559C173.026 53.4265 172.935 53.3715 172.891 53.3202C172.146 52.7593 171.61 51.9757 171.019 51.2834C170.603 50.7962 170.183 50.3566 169.844 49.8038C169.421 49.1009 168.931 47.4361 170.408 47.8156C171.932 48.1989 172.48 50.0356 173.096 51.3277C173.38 51.9718 173.686 52.6416 173.772 53.3658C173.786 53.4865 173.801 53.6072 173.819 53.6804C173.541 53.5628 173.333 53.4747 173.095 53.4559ZM178.855 53.5037C179.476 53.5049 180.072 53.528 180.649 53.7887C180.902 53.9282 181.197 54.1189 181.424 54.2802C181.968 54.658 182.374 54.6661 182.054 55.3822C181.492 56.7487 179.114 55.6763 178.039 55.3524C177.407 55.183 176.855 54.9003 176.278 54.6396C175.814 54.4595 175.299 54.3232 174.86 54.1212C175.988 53.4688 177.637 53.4794 178.855 53.5037Z" fill="#F2DEC9"/>
</g>
<path d="M200.71 88.3779C199.909 89.3154 198.742 90.043 197.209 90.5605C195.676 91.0684 193.977 91.3076 192.111 91.2783C190.324 91.2588 188.815 90.8096 187.585 89.9307C186.354 89.0518 185.476 87.8262 184.948 86.2539C184.421 84.6816 184.279 82.9092 184.523 80.9365L184.641 80.0576C185.09 76.7471 186.252 74.125 188.127 72.1914C190.012 70.2578 192.316 69.3154 195.041 69.3643C197.424 69.4033 199.255 70.043 200.534 71.2832C201.813 72.5234 202.526 74.3154 202.673 76.6592L197.868 76.6445C197.8 75.502 197.517 74.667 197.019 74.1396C196.53 73.6123 195.832 73.334 194.924 73.3047C193.576 73.2559 192.463 73.7881 191.584 74.9014C190.705 76.0049 190.104 77.5869 189.782 79.6475C189.509 81.4053 189.411 82.7725 189.489 83.749C189.636 86.1025 190.695 87.2939 192.668 87.3232C193.859 87.3428 194.904 87.0547 195.803 86.459L196.462 83.1338H192.99L193.605 79.6035H202.087L200.71 88.3779ZM208.356 91H203.347L207.053 69.6719H212.048L208.356 91ZM229.626 88.3779C228.825 89.3154 227.658 90.043 226.125 90.5605C224.592 91.0684 222.893 91.3076 221.027 91.2783C219.24 91.2588 217.731 90.8096 216.501 89.9307C215.271 89.0518 214.392 87.8262 213.864 86.2539C213.337 84.6816 213.195 82.9092 213.439 80.9365L213.557 80.0576C214.006 76.7471 215.168 74.125 217.043 72.1914C218.928 70.2578 221.232 69.3154 223.957 69.3643C226.34 69.4033 228.171 70.043 229.45 71.2832C230.729 72.5234 231.442 74.3154 231.589 76.6592L226.784 76.6445C226.716 75.502 226.433 74.667 225.935 74.1396C225.446 73.6123 224.748 73.334 223.84 73.3047C222.492 73.2559 221.379 73.7881 220.5 74.9014C219.621 76.0049 219.021 77.5869 218.698 79.6475C218.425 81.4053 218.327 82.7725 218.405 83.749C218.552 86.1025 219.611 87.2939 221.584 87.3232C222.775 87.3428 223.82 87.0547 224.719 86.459L225.378 83.1338H221.906L222.521 79.6035H231.003L229.626 88.3779ZM244.45 87.0156H237.639L235.749 91H230.227L241.521 69.6719H246.237L250.178 91H244.963L244.45 87.0156ZM239.514 83.0459H243.938L243 75.6924L239.514 83.0459ZM263.625 85.2285C263.84 84.125 263.244 83.2705 261.838 82.665L259.436 81.6689C256.066 80.1553 254.465 78.0947 254.631 75.4873C254.699 74.2959 255.109 73.2363 255.861 72.3086C256.613 71.3711 257.653 70.6436 258.981 70.126C260.31 69.6084 261.76 69.3594 263.332 69.3789C265.441 69.418 267.136 70.0332 268.415 71.2246C269.704 72.416 270.339 74.0127 270.319 76.0146H265.339C265.368 75.1943 265.192 74.54 264.812 74.0518C264.44 73.5537 263.825 73.2949 262.966 73.2754C262.126 73.2559 261.384 73.4512 260.739 73.8613C260.095 74.2715 259.714 74.8232 259.597 75.5166C259.411 76.4932 260.134 77.2939 261.765 77.9189C263.405 78.5439 264.597 79.0811 265.339 79.5303C267.673 80.9268 268.767 82.8115 268.62 85.1846C268.542 86.415 268.146 87.4941 267.434 88.4219C266.721 89.3496 265.729 90.0674 264.46 90.5752C263.2 91.083 261.784 91.3271 260.212 91.3076C259.06 91.2881 257.99 91.1074 257.004 90.7656C256.018 90.4238 255.173 89.9258 254.47 89.2715C253.044 87.9531 252.36 86.2197 252.419 84.0713L257.443 84.0859C257.385 85.1797 257.595 86.0098 258.073 86.5762C258.552 87.1328 259.357 87.4111 260.49 87.4111C261.33 87.4111 262.028 87.2207 262.585 86.8398C263.151 86.4492 263.498 85.9121 263.625 85.2285Z" fill="#BBBBBB"/>
<path d="M58.1133 92H43.6113L51.7852 44.9785L36.8877 49.1973L38.9092 37.4639L67.21 28.0156L68.8359 27.9717L58.1133 92ZM96.6973 53.8115L103.157 53.8555C105.794 53.7969 107.962 53.0352 109.661 51.5703C111.36 50.0762 112.371 47.9961 112.693 45.3301C112.928 43.3379 112.532 41.6973 111.507 40.4082C110.481 39.1191 108.943 38.46 106.893 38.4307C104.988 38.3721 103.304 38.8994 101.839 40.0127C100.374 41.126 99.4365 42.6055 99.0264 44.4512L84.5244 44.5391C84.7002 41.082 85.8135 38.0205 87.8643 35.3545C89.915 32.6885 92.6396 30.6377 96.0381 29.2021C99.4658 27.7373 103.143 27.0195 107.068 27.0488C113.514 27.1953 118.582 28.8945 122.273 32.1465C125.965 35.3691 127.649 39.6758 127.327 45.0664C126.946 51.1016 123.006 55.877 115.506 59.3926C118.348 60.7988 120.472 62.7471 121.878 65.2373C123.284 67.7275 123.914 70.54 123.768 73.6748C123.562 77.6006 122.317 81.0283 120.032 83.958C117.747 86.8584 114.686 89.0996 110.848 90.6816C107.01 92.2344 102.894 92.9668 98.499 92.8789C94.6611 92.8496 91.1748 92.0439 88.04 90.4619C84.9346 88.8506 82.5469 86.6387 80.877 83.8262C79.207 81.0137 78.3867 77.791 78.416 74.1582H92.8301C92.8594 76.2383 93.4746 77.9521 94.6758 79.2998C95.877 80.6475 97.5615 81.3506 99.7295 81.4092C102.161 81.4678 104.314 80.75 106.189 79.2559C108.064 77.7617 109.178 75.7988 109.529 73.3672C109.881 70.7598 109.485 68.7236 108.343 67.2588C107.229 65.7646 105.354 64.9736 102.718 64.8857L94.9834 64.8418L96.6973 53.8115ZM134.271 60.5352L143.147 28.0156H179.622L177.776 39.5293H153.299L149.388 52.3174C151.761 50.7939 154.705 50.0029 158.221 49.9443C163.846 49.9443 168.167 51.8926 171.185 55.7891C174.231 59.6855 175.491 64.7832 174.964 71.082C174.437 77.5859 171.902 82.8887 167.361 86.9902C162.82 91.0625 157.327 93.04 150.882 92.9229C147.103 92.835 143.66 91.9561 140.555 90.2861C137.479 88.6162 135.091 86.3457 133.392 83.4746C131.692 80.5742 130.857 77.3369 130.887 73.7627H145.301C145.359 76.0479 145.931 77.8789 147.015 79.2559C148.099 80.6328 149.622 81.3506 151.585 81.4092C153.987 81.4971 155.979 80.6035 157.562 78.7285C159.144 76.8242 160.154 73.9385 160.594 70.0713C160.887 66.8193 160.447 64.3584 159.275 62.6885C158.104 60.9893 156.272 60.1396 153.782 60.1396C150.589 60.1396 147.996 61.2236 146.004 63.3916L134.271 60.5352Z" fill="#EF3829"/>
<path d="M58.1133 92V95H60.6527L61.0721 92.4955L58.1133 92ZM43.6113 92L40.6557 91.4862L40.0448 95H43.6113V92ZM51.7852 44.9785L54.7408 45.4923L55.5579 40.7922L50.9677 42.092L51.7852 44.9785ZM36.8877 49.1973L33.9313 48.6879L33.1226 53.3815L37.7051 52.0838L36.8877 49.1973ZM38.9092 37.4639L37.9592 34.6183L36.2574 35.1864L35.9527 36.9545L38.9092 37.4639ZM67.21 28.0156L67.1289 25.0167L66.683 25.0288L66.26 25.17L67.21 28.0156ZM68.8359 27.9717L71.7947 28.4672L72.3964 24.8744L68.7549 24.9728L68.8359 27.9717ZM58.1133 89H43.6113V95H58.1133V89ZM46.567 92.5138L54.7408 45.4923L48.8295 44.4647L40.6557 91.4862L46.567 92.5138ZM50.9677 42.092L36.0703 46.3108L37.7051 52.0838L52.6026 47.865L50.9677 42.092ZM39.8441 49.7066L41.8656 37.9732L35.9527 36.9545L33.9313 48.6879L39.8441 49.7066ZM39.8592 40.3095L68.16 30.8612L66.26 25.17L37.9592 34.6183L39.8592 40.3095ZM67.291 31.0145L68.917 30.9706L68.7549 24.9728L67.1289 25.0167L67.291 31.0145ZM65.8771 27.4762L55.1545 91.5045L61.0721 92.4955L71.7947 28.4672L65.8771 27.4762ZM96.6973 53.8115L96.7177 50.8116L94.1301 50.794L93.7328 53.3509L96.6973 53.8115ZM103.157 53.8555L103.137 56.8554L103.18 56.8557L103.224 56.8547L103.157 53.8555ZM109.661 51.5703L111.62 53.8425L111.631 53.8329L111.642 53.8232L109.661 51.5703ZM112.693 45.3301L115.672 45.6901L115.673 45.6806L112.693 45.3301ZM106.893 38.4307L106.8 41.4292L106.825 41.43L106.85 41.4304L106.893 38.4307ZM99.0264 44.4512L99.0445 47.4511L101.436 47.4366L101.955 45.102L99.0264 44.4512ZM84.5244 44.5391L81.5283 44.3867L81.367 47.5583L84.5426 47.539L84.5244 44.5391ZM96.0381 29.2021L97.2055 31.9657L97.217 31.9608L96.0381 29.2021ZM107.068 27.0488L107.137 24.0496L107.114 24.0491L107.091 24.0489L107.068 27.0488ZM122.273 32.1465L120.29 34.3976L120.3 34.4064L122.273 32.1465ZM127.327 45.0664L130.321 45.2554L130.322 45.2454L127.327 45.0664ZM115.506 59.3926L114.233 56.6762L108.594 59.3194L114.175 62.0814L115.506 59.3926ZM123.768 73.6748L126.763 73.8313L126.764 73.8231L126.764 73.8148L123.768 73.6748ZM120.032 83.958L122.389 85.8146L122.393 85.8089L122.398 85.8031L120.032 83.958ZM110.848 90.6816L111.973 93.4627L111.982 93.459L111.991 93.4552L110.848 90.6816ZM98.499 92.8789L98.559 89.8795L98.5405 89.8791L98.5219 89.879L98.499 92.8789ZM88.04 90.4619L86.6584 93.1248L86.6733 93.1326L86.6884 93.1402L88.04 90.4619ZM78.416 74.1582V71.1582H75.4401L75.4161 74.134L78.416 74.1582ZM92.8301 74.1582L95.8298 74.116L95.7881 71.1582H92.8301V74.1582ZM99.7295 81.4092L99.6484 84.4081L99.6572 84.4083L99.7295 81.4092ZM109.529 73.3672L112.498 73.7965L112.5 73.7823L112.502 73.7681L109.529 73.3672ZM108.343 67.2588L105.937 69.0512L105.957 69.0778L105.977 69.1039L108.343 67.2588ZM102.718 64.8857L102.818 61.8874L102.776 61.886L102.735 61.8858L102.718 64.8857ZM94.9834 64.8418L92.019 64.3812L91.4843 67.822L94.9664 67.8417L94.9834 64.8418ZM96.6769 56.8115L103.137 56.8554L103.178 50.8555L96.7177 50.8116L96.6769 56.8115ZM103.224 56.8547C106.429 56.7835 109.304 55.839 111.62 53.8425L107.702 49.2981C106.62 50.2313 105.159 50.8102 103.091 50.8562L103.224 56.8547ZM111.642 53.8232C113.995 51.7539 115.278 48.9438 115.672 45.6901L109.715 44.9701C109.464 47.0484 108.725 48.3984 107.68 49.3174L111.642 53.8232ZM115.673 45.6806C115.979 43.0789 115.483 40.5871 113.855 38.5406L109.159 42.2758C109.582 42.8074 109.877 43.5969 109.714 44.9796L115.673 45.6806ZM113.855 38.5406C112.135 36.3787 109.644 35.4697 106.935 35.431L106.85 41.4304C108.242 41.4503 108.828 41.8596 109.159 42.2758L113.855 38.5406ZM106.985 35.4321C104.42 35.3532 102.056 36.0794 100.024 37.6242L103.654 42.4012C104.551 41.7195 105.557 41.391 106.8 41.4292L106.985 35.4321ZM100.024 37.6242C97.977 39.1796 96.6572 41.2829 96.0978 43.8004L101.955 45.102C102.216 43.928 102.771 43.0723 103.654 42.4012L100.024 37.6242ZM99.0082 41.4512L84.5062 41.5391L84.5426 47.539L99.0445 47.4511L99.0082 41.4512ZM87.5205 44.6914C87.6663 41.8243 88.5744 39.3517 90.2421 37.1836L85.4864 33.5254C83.0526 36.6893 81.7341 40.3398 81.5283 44.3867L87.5205 44.6914ZM90.2421 37.1836C91.9469 34.9674 94.237 33.2196 97.2055 31.9657L94.8707 26.4386C91.0423 28.0558 87.8832 30.4096 85.4864 33.5254L90.2421 37.1836ZM97.217 31.9608C100.245 30.6667 103.511 30.0224 107.046 30.0487L107.091 24.0489C102.775 24.0167 98.6865 24.8079 94.8592 26.4435L97.217 31.9608ZM107 30.0481C112.961 30.1835 117.275 31.7413 120.29 34.3976L124.257 29.8954C119.889 26.0478 114.066 24.2071 107.137 24.0496L107 30.0481ZM120.3 34.4064C123.214 36.95 124.606 40.3155 124.332 44.8874L130.322 45.2454C130.693 39.036 128.716 33.7883 124.246 29.8865L120.3 34.4064ZM124.333 44.8775C124.046 49.4254 121.158 53.4299 114.233 56.6762L116.779 62.109C124.854 58.324 129.846 52.7777 130.321 45.2554L124.333 44.8775ZM114.175 62.0814C116.539 63.251 118.187 64.8025 119.266 66.7125L124.49 63.7621C122.756 60.6917 120.156 58.3467 116.836 56.7038L114.175 62.0814ZM119.266 66.7125C120.368 68.6639 120.894 70.907 120.771 73.5348L126.764 73.8148C126.934 70.1731 126.201 66.7912 124.49 63.7621L119.266 66.7125ZM120.772 73.5183C120.597 76.8676 119.551 79.6971 117.667 82.1129L122.398 85.8031C125.084 82.3595 126.528 78.3335 126.763 73.8313L120.772 73.5183ZM117.676 82.1014C115.748 84.5487 113.126 86.4976 109.704 87.908L111.991 93.4552C116.245 91.7017 119.747 89.1681 122.389 85.8146L117.676 82.1014ZM109.723 87.9006C106.284 89.2919 102.573 89.9598 98.559 89.8795L98.439 95.8783C103.214 95.9738 107.736 95.1768 111.973 93.4627L109.723 87.9006ZM98.5219 89.879C95.1021 89.8529 92.0769 89.1388 89.3917 87.7837L86.6884 93.1402C90.2727 94.9491 94.2201 95.8463 98.4761 95.8788L98.5219 89.879ZM89.4217 87.799C86.7772 86.4269 84.8205 84.5918 83.4565 82.2946L78.2974 85.3578C80.2733 88.6856 83.0919 91.2743 86.6584 93.1248L89.4217 87.799ZM83.4565 82.2946C82.0962 80.0034 81.3905 77.3303 81.4159 74.1824L75.4161 74.134C75.3829 78.2518 76.3179 82.0239 78.2974 85.3578L83.4565 82.2946ZM78.416 77.1582H92.8301V71.1582H78.416V77.1582ZM89.8304 74.2005C89.8682 76.8854 90.6826 79.3285 92.4362 81.2959L96.9153 77.3037C96.2666 76.5758 95.8506 75.5911 95.8298 74.116L89.8304 74.2005ZM92.4362 81.2959C94.2971 83.3838 96.8334 84.332 99.6484 84.4081L99.8105 78.4103C98.2897 78.3692 97.4568 77.9112 96.9153 77.3037L92.4362 81.2959ZM99.6572 84.4083C102.782 84.4836 105.625 83.5419 108.059 81.602L104.32 76.9097C103.004 77.9581 101.541 78.452 99.8018 78.4101L99.6572 84.4083ZM108.059 81.602C110.547 79.6192 112.041 76.9629 112.498 73.7965L106.56 72.9379C106.315 74.6347 105.582 75.9042 104.32 76.9097L108.059 81.602ZM112.502 73.7681C112.916 70.6983 112.524 67.741 110.708 65.4137L105.977 69.1039C106.447 69.7062 106.845 70.8212 106.556 72.9663L112.502 73.7681ZM110.748 65.4663C108.89 62.9719 105.969 61.9924 102.818 61.8874L102.618 67.8841C104.74 67.9548 105.569 68.5574 105.937 69.0512L110.748 65.4663ZM102.735 61.8858L95.0004 61.8418L94.9664 67.8417L102.701 67.8857L102.735 61.8858ZM97.9478 65.3024L99.6617 54.2721L93.7328 53.3509L92.019 64.3812L97.9478 65.3024ZM134.271 60.5352L131.376 59.7451L130.564 62.7205L133.561 63.45L134.271 60.5352ZM143.147 28.0156V25.0156H140.857L140.253 27.2256L143.147 28.0156ZM179.622 28.0156L182.584 28.4905L183.141 25.0156H179.622V28.0156ZM177.776 39.5293V42.5293H180.334L180.739 40.0042L177.776 39.5293ZM153.299 39.5293V36.5293H151.079L150.43 38.6519L153.299 39.5293ZM149.388 52.3174L146.519 51.44L144.127 59.2594L151.008 54.8419L149.388 52.3174ZM158.221 49.9443V46.9443H158.196L158.171 46.9448L158.221 49.9443ZM171.185 55.7891L168.813 57.626L168.821 57.637L171.185 55.7891ZM174.964 71.082L171.974 70.8317L171.974 70.8396L174.964 71.082ZM167.361 86.9902L169.364 89.2237L169.372 89.2165L167.361 86.9902ZM150.882 92.9229L150.812 95.922L150.82 95.9222L150.827 95.9224L150.882 92.9229ZM140.555 90.2861L139.123 92.9227L139.134 92.9283L140.555 90.2861ZM133.392 83.4746L130.803 84.9911L130.81 85.0026L133.392 83.4746ZM130.887 73.7627V70.7627H127.911L127.887 73.7381L130.887 73.7627ZM145.301 73.7627L148.3 73.6858L148.225 70.7627H145.301V73.7627ZM151.585 81.4092L151.695 78.4112L151.685 78.4108L151.674 78.4105L151.585 81.4092ZM157.562 78.7285L159.854 80.6631L159.862 80.6544L159.869 80.6456L157.562 78.7285ZM160.594 70.0713L163.575 70.41L163.579 70.3753L163.582 70.3405L160.594 70.0713ZM159.275 62.6885L156.806 64.3917L156.813 64.4017L156.82 64.4118L159.275 62.6885ZM146.004 63.3916L145.294 66.3065L147.015 66.7253L148.213 65.4215L146.004 63.3916ZM137.165 61.3252L146.042 28.8056L140.253 27.2256L131.376 59.7451L137.165 61.3252ZM143.147 31.0156H179.622V25.0156H143.147V31.0156ZM176.66 27.5408L174.814 39.0544L180.739 40.0042L182.584 28.4905L176.66 27.5408ZM177.776 36.5293H153.299V42.5293H177.776V36.5293ZM150.43 38.6519L146.519 51.44L152.257 53.1948L156.168 40.4067L150.43 38.6519ZM151.008 54.8419C152.809 53.686 155.176 52.9955 158.271 52.9439L158.171 46.9448C154.235 47.0104 150.713 47.9019 147.767 49.7928L151.008 54.8419ZM158.221 52.9443C163.067 52.9443 166.449 54.5733 168.813 57.6259L173.556 53.9522C169.885 49.2118 164.625 46.9443 158.221 46.9443V52.9443ZM168.821 57.637C171.284 60.7862 172.457 65.0693 171.974 70.8317L177.953 71.3323C178.526 64.4971 177.179 58.5849 173.548 53.9411L168.821 57.637ZM171.974 70.8396C171.504 76.6371 169.284 81.2109 165.35 84.7639L169.372 89.2165C174.521 84.5665 177.369 78.5348 177.954 71.3245L171.974 70.8396ZM165.358 84.7568C161.416 88.2921 156.671 90.0276 150.936 89.9233L150.827 95.9224C157.983 96.0525 164.225 93.8329 169.364 89.2237L165.358 84.7568ZM150.952 89.9237C147.61 89.8459 144.635 89.0742 141.976 87.6439L139.134 92.9283C142.685 94.8379 146.595 95.824 150.812 95.922L150.952 89.9237ZM141.986 87.6496C139.362 86.2251 137.382 84.3276 135.973 81.9466L130.81 85.0026C132.799 88.3638 135.595 91.0073 139.123 92.9227L141.986 87.6496ZM135.98 81.9581C134.572 79.5547 133.861 76.8557 133.887 73.7873L127.887 73.7381C127.853 77.8181 128.813 81.5937 130.803 84.9911L135.98 81.9581ZM130.887 76.7627H145.301V70.7627H130.887V76.7627ZM142.302 73.8396C142.372 76.5745 143.067 79.0908 144.657 81.1115L149.372 77.4002C148.795 76.667 148.347 75.5212 148.3 73.6858L142.302 73.8396ZM144.657 81.1115C146.361 83.2759 148.765 84.3263 151.495 84.4078L151.674 78.4105C150.479 78.3748 149.836 77.9897 149.372 77.4002L144.657 81.1115ZM151.475 84.4072C154.821 84.5296 157.692 83.2262 159.854 80.6631L155.269 76.7939C154.267 77.9809 153.153 78.4646 151.695 78.4112L151.475 84.4072ZM159.869 80.6456C161.981 78.1029 163.104 74.5524 163.575 70.41L157.613 69.7326C157.205 73.3246 156.306 75.5456 155.254 76.8115L159.869 80.6456ZM163.582 70.3405C163.902 66.7808 163.493 63.4753 161.731 60.9652L156.82 64.4118C157.402 65.2415 157.871 66.8579 157.606 69.8021L163.582 70.3405ZM161.745 60.9853C159.893 58.3001 157.027 57.1396 153.782 57.1396V63.1396C155.518 63.1396 156.314 63.6784 156.806 64.3917L161.745 60.9853ZM153.782 57.1396C149.829 57.1396 146.407 58.5193 143.795 61.3617L148.213 65.4215C149.585 63.9279 151.349 63.1396 153.782 63.1396V57.1396ZM146.714 60.4767L134.98 57.6203L133.561 63.45L145.294 66.3065L146.714 60.4767Z" fill="#EF3829"/>
<path d="M200.71 88.3779C199.909 89.3154 198.742 90.043 197.209 90.5605C195.676 91.0684 193.977 91.3076 192.111 91.2783C190.324 91.2588 188.815 90.8096 187.585 89.9307C186.354 89.0518 185.476 87.8262 184.948 86.2539C184.421 84.6816 184.279 82.9092 184.523 80.9365L184.641 80.0576C185.09 76.7471 186.252 74.125 188.127 72.1914C190.012 70.2578 192.316 69.3154 195.041 69.3643C197.424 69.4033 199.255 70.043 200.534 71.2832C201.813 72.5234 202.526 74.3154 202.673 76.6592L197.868 76.6445C197.8 75.502 197.517 74.667 197.019 74.1396C196.53 73.6123 195.832 73.334 194.924 73.3047C193.576 73.2559 192.463 73.7881 191.584 74.9014C190.705 76.0049 190.104 77.5869 189.782 79.6475C189.509 81.4053 189.411 82.7725 189.489 83.749C189.636 86.1025 190.695 87.2939 192.668 87.3232C193.859 87.3428 194.904 87.0547 195.803 86.459L196.462 83.1338H192.99L193.605 79.6035H202.087L200.71 88.3779ZM208.356 91H203.347L207.053 69.6719H212.048L208.356 91ZM229.626 88.3779C228.825 89.3154 227.658 90.043 226.125 90.5605C224.592 91.0684 222.893 91.3076 221.027 91.2783C219.24 91.2588 217.731 90.8096 216.501 89.9307C215.271 89.0518 214.392 87.8262 213.864 86.2539C213.337 84.6816 213.195 82.9092 213.439 80.9365L213.557 80.0576C214.006 76.7471 215.168 74.125 217.043 72.1914C218.928 70.2578 221.232 69.3154 223.957 69.3643C226.34 69.4033 228.171 70.043 229.45 71.2832C230.729 72.5234 231.442 74.3154 231.589 76.6592L226.784 76.6445C226.716 75.502 226.433 74.667 225.935 74.1396C225.446 73.6123 224.748 73.334 223.84 73.3047C222.492 73.2559 221.379 73.7881 220.5 74.9014C219.621 76.0049 219.021 77.5869 218.698 79.6475C218.425 81.4053 218.327 82.7725 218.405 83.749C218.552 86.1025 219.611 87.2939 221.584 87.3232C222.775 87.3428 223.82 87.0547 224.719 86.459L225.378 83.1338H221.906L222.521 79.6035H231.003L229.626 88.3779ZM244.45 87.0156H237.639L235.749 91H230.227L241.521 69.6719H246.237L250.178 91H244.963L244.45 87.0156ZM239.514 83.0459H243.938L243 75.6924L239.514 83.0459ZM263.625 85.2285C263.84 84.125 263.244 83.2705 261.838 82.665L259.436 81.6689C256.066 80.1553 254.465 78.0947 254.631 75.4873C254.699 74.2959 255.109 73.2363 255.861 72.3086C256.613 71.3711 257.653 70.6436 258.981 70.126C260.31 69.6084 261.76 69.3594 263.332 69.3789C265.441 69.418 267.136 70.0332 268.415 71.2246C269.704 72.416 270.339 74.0127 270.319 76.0146H265.339C265.368 75.1943 265.192 74.54 264.812 74.0518C264.44 73.5537 263.825 73.2949 262.966 73.2754C262.126 73.2559 261.384 73.4512 260.739 73.8613C260.095 74.2715 259.714 74.8232 259.597 75.5166C259.411 76.4932 260.134 77.2939 261.765 77.9189C263.405 78.5439 264.597 79.0811 265.339 79.5303C267.673 80.9268 268.767 82.8115 268.62 85.1846C268.542 86.415 268.146 87.4941 267.434 88.4219C266.721 89.3496 265.729 90.0674 264.46 90.5752C263.2 91.083 261.784 91.3271 260.212 91.3076C259.06 91.2881 257.99 91.1074 257.004 90.7656C256.018 90.4238 255.173 89.9258 254.47 89.2715C253.044 87.9531 252.36 86.2197 252.419 84.0713L257.443 84.0859C257.385 85.1797 257.595 86.0098 258.073 86.5762C258.552 87.1328 259.357 87.4111 260.49 87.4111C261.33 87.4111 262.028 87.2207 262.585 86.8398C263.151 86.4492 263.498 85.9121 263.625 85.2285Z" fill="#BBBBBB"/>
</g>
<defs>
<filter id="filter0_f" x="23" y="81" width="156" height="26" filterUnits="userSpaceOnUse" color-interpolation-filters="sRGB">
<feFlood flood-opacity="0" result="BackgroundImageFix"/>
<feBlend mode="normal" in="SourceGraphic" in2="BackgroundImageFix" result="shape"/>
<feGaussianBlur stdDeviation="5" result="effect1_foregroundBlur"/>
</filter>
<clipPath id="clip0">
<rect width="277" height="105.82" fill="white"/>
</clipPath>
<clipPath id="clip1">
<rect width="26.9138" height="21.1142" fill="white" transform="translate(78.0728 1) rotate(31.6292)"/>
</clipPath>
<clipPath id="clip2">
<rect width="42.7637" height="49.205" fill="white" transform="translate(6 56)"/>
</clipPath>
<clipPath id="clip3">
<rect width="45.8168" height="73.5294" fill="white" transform="translate(196.921) rotate(49.5101)"/>
</clipPath>
</defs>
</svg>
