<svg width="277" height="106" viewBox="0 0 277 106" fill="none" xmlns="http://www.w3.org/2000/svg">
<g clip-path="url(#clip0)">
<g filter="url(#filter0_f)">
<ellipse cx="105" cy="94.8613" rx="68" ry="3" fill="#C4C4C4" fill-opacity="0.5"/>
</g>
<path d="M170.71 89.3779C169.909 90.3154 168.742 91.043 167.209 91.5605C165.676 92.0684 163.977 92.3076 162.111 92.2783C160.324 92.2588 158.815 91.8096 157.585 90.9307C156.354 90.0518 155.476 88.8262 154.948 87.2539C154.421 85.6816 154.279 83.9092 154.523 81.9365L154.641 81.0576C155.09 77.7471 156.252 75.125 158.127 73.1914C160.012 71.2578 162.316 70.3154 165.041 70.3643C167.424 70.4033 169.255 71.043 170.534 72.2832C171.813 73.5234 172.526 75.3154 172.673 77.6592L167.868 77.6445C167.8 76.502 167.517 75.667 167.019 75.1396C166.53 74.6123 165.832 74.334 164.924 74.3047C163.576 74.2559 162.463 74.7881 161.584 75.9014C160.705 77.0049 160.104 78.5869 159.782 80.6475C159.509 82.4053 159.411 83.7725 159.489 84.749C159.636 87.1025 160.695 88.2939 162.668 88.3232C163.859 88.3428 164.904 88.0547 165.803 87.459L166.462 84.1338H162.99L163.605 80.6035H172.087L170.71 89.3779ZM178.356 92H173.347L177.053 70.6719H182.048L178.356 92ZM199.626 89.3779C198.825 90.3154 197.658 91.043 196.125 91.5605C194.592 92.0684 192.893 92.3076 191.027 92.2783C189.24 92.2588 187.731 91.8096 186.501 90.9307C185.271 90.0518 184.392 88.8262 183.864 87.2539C183.337 85.6816 183.195 83.9092 183.439 81.9365L183.557 81.0576C184.006 77.7471 185.168 75.125 187.043 73.1914C188.928 71.2578 191.232 70.3154 193.957 70.3643C196.34 70.4033 198.171 71.043 199.45 72.2832C200.729 73.5234 201.442 75.3154 201.589 77.6592L196.784 77.6445C196.716 76.502 196.433 75.667 195.935 75.1396C195.446 74.6123 194.748 74.334 193.84 74.3047C192.492 74.2559 191.379 74.7881 190.5 75.9014C189.621 77.0049 189.021 78.5869 188.698 80.6475C188.425 82.4053 188.327 83.7725 188.405 84.749C188.552 87.1025 189.611 88.2939 191.584 88.3232C192.775 88.3428 193.82 88.0547 194.719 87.459L195.378 84.1338H191.906L192.521 80.6035H201.003L199.626 89.3779ZM214.45 88.0156H207.639L205.749 92H200.227L211.521 70.6719H216.237L220.178 92H214.963L214.45 88.0156ZM209.514 84.0459H213.938L213 76.6924L209.514 84.0459ZM233.625 86.2285C233.84 85.125 233.244 84.2705 231.838 83.665L229.436 82.6689C226.066 81.1553 224.465 79.0947 224.631 76.4873C224.699 75.2959 225.109 74.2363 225.861 73.3086C226.613 72.3711 227.653 71.6436 228.981 71.126C230.31 70.6084 231.76 70.3594 233.332 70.3789C235.441 70.418 237.136 71.0332 238.415 72.2246C239.704 73.416 240.339 75.0127 240.319 77.0146H235.339C235.368 76.1943 235.192 75.54 234.812 75.0518C234.44 74.5537 233.825 74.2949 232.966 74.2754C232.126 74.2559 231.384 74.4512 230.739 74.8613C230.095 75.2715 229.714 75.8232 229.597 76.5166C229.411 77.4932 230.134 78.2939 231.765 78.9189C233.405 79.5439 234.597 80.0811 235.339 80.5303C237.673 81.9268 238.767 83.8115 238.62 86.1846C238.542 87.415 238.146 88.4941 237.434 89.4219C236.721 90.3496 235.729 91.0674 234.46 91.5752C233.2 92.083 231.784 92.3271 230.212 92.3076C229.06 92.2881 227.99 92.1074 227.004 91.7656C226.018 91.4238 225.173 90.9258 224.47 90.2715C223.044 88.9531 222.36 87.2197 222.419 85.0713L227.443 85.0859C227.385 86.1797 227.595 87.0098 228.073 87.5762C228.552 88.1328 229.357 88.4111 230.49 88.4111C231.33 88.4111 232.028 88.2207 232.585 87.8398C233.151 87.4492 233.498 86.9121 233.625 86.2285Z" fill="#BBBBBB"/>
<path d="M81.1133 91H66.6113L74.7852 43.9785L59.8877 48.1973L61.9092 36.4639L90.21 27.0156L91.8359 26.9717L81.1133 91ZM119.697 52.8115L126.157 52.8555C128.794 52.7969 130.962 52.0352 132.661 50.5703C134.36 49.0762 135.371 46.9961 135.693 44.3301C135.928 42.3379 135.532 40.6973 134.507 39.4082C133.481 38.1191 131.943 37.46 129.893 37.4307C127.988 37.3721 126.304 37.8994 124.839 39.0127C123.374 40.126 122.437 41.6055 122.026 43.4512L107.524 43.5391C107.7 40.082 108.813 37.0205 110.864 34.3545C112.915 31.6885 115.64 29.6377 119.038 28.2021C122.466 26.7373 126.143 26.0195 130.068 26.0488C136.514 26.1953 141.582 27.8945 145.273 31.1465C148.965 34.3691 150.649 38.6758 150.327 44.0664C149.946 50.1016 146.006 54.877 138.506 58.3926C141.348 59.7988 143.472 61.7471 144.878 64.2373C146.284 66.7275 146.914 69.54 146.768 72.6748C146.562 76.6006 145.317 80.0283 143.032 82.958C140.747 85.8584 137.686 88.0996 133.848 89.6816C130.01 91.2344 125.894 91.9668 121.499 91.8789C117.661 91.8496 114.175 91.0439 111.04 89.4619C107.935 87.8506 105.547 85.6387 103.877 82.8262C102.207 80.0137 101.387 76.791 101.416 73.1582H115.83C115.859 75.2383 116.475 76.9521 117.676 78.2998C118.877 79.6475 120.562 80.3506 122.729 80.4092C125.161 80.4678 127.314 79.75 129.189 78.2559C131.064 76.7617 132.178 74.7988 132.529 72.3672C132.881 69.7598 132.485 67.7236 131.343 66.2588C130.229 64.7646 128.354 63.9736 125.718 63.8857L117.983 63.8418L119.697 52.8115Z" fill="#EF3829"/>
<path d="M81.1133 91V94H83.6527L84.0721 91.4955L81.1133 91ZM66.6113 91L63.6557 90.4862L63.0448 94H66.6113V91ZM74.7852 43.9785L77.7408 44.4923L78.5579 39.7922L73.9677 41.092L74.7852 43.9785ZM59.8877 48.1973L56.9313 47.6879L56.1226 52.3815L60.7051 51.0838L59.8877 48.1973ZM61.9092 36.4639L60.9592 33.6183L59.2574 34.1864L58.9527 35.9545L61.9092 36.4639ZM90.21 27.0156L90.1289 24.0167L89.683 24.0288L89.26 24.17L90.21 27.0156ZM91.8359 26.9717L94.7947 27.4672L95.3964 23.8744L91.7549 23.9728L91.8359 26.9717ZM81.1133 88H66.6113V94H81.1133V88ZM69.567 91.5138L77.7408 44.4923L71.8295 43.4647L63.6557 90.4862L69.567 91.5138ZM73.9677 41.092L59.0703 45.3108L60.7051 51.0838L75.6026 46.865L73.9677 41.092ZM62.8441 48.7066L64.8656 36.9732L58.9527 35.9545L56.9313 47.6879L62.8441 48.7066ZM62.8592 39.3095L91.16 29.8612L89.26 24.17L60.9592 33.6183L62.8592 39.3095ZM90.291 30.0145L91.917 29.9706L91.7549 23.9728L90.1289 24.0167L90.291 30.0145ZM88.8771 26.4762L78.1545 90.5045L84.0721 91.4955L94.7947 27.4672L88.8771 26.4762ZM119.697 52.8115L119.718 49.8116L117.13 49.794L116.733 52.3509L119.697 52.8115ZM126.157 52.8555L126.137 55.8554L126.18 55.8557L126.224 55.8547L126.157 52.8555ZM132.661 50.5703L134.62 52.8425L134.631 52.8329L134.642 52.8232L132.661 50.5703ZM135.693 44.3301L138.672 44.6901L138.673 44.6806L135.693 44.3301ZM129.893 37.4307L129.8 40.4292L129.825 40.43L129.85 40.4304L129.893 37.4307ZM122.026 43.4512L122.045 46.4511L124.436 46.4366L124.955 44.102L122.026 43.4512ZM107.524 43.5391L104.528 43.3867L104.367 46.5583L107.543 46.539L107.524 43.5391ZM119.038 28.2021L120.205 30.9657L120.217 30.9608L119.038 28.2021ZM130.068 26.0488L130.137 23.0496L130.114 23.0491L130.091 23.0489L130.068 26.0488ZM145.273 31.1465L143.29 33.3976L143.3 33.4064L145.273 31.1465ZM150.327 44.0664L153.321 44.2554L153.322 44.2454L150.327 44.0664ZM138.506 58.3926L137.233 55.6762L131.594 58.3194L137.175 61.0814L138.506 58.3926ZM146.768 72.6748L149.763 72.8313L149.764 72.8231L149.764 72.8148L146.768 72.6748ZM143.032 82.958L145.389 84.8146L145.393 84.8089L145.398 84.8031L143.032 82.958ZM133.848 89.6816L134.973 92.4627L134.982 92.459L134.991 92.4552L133.848 89.6816ZM121.499 91.8789L121.559 88.8795L121.54 88.8791L121.522 88.879L121.499 91.8789ZM111.04 89.4619L109.658 92.1248L109.673 92.1326L109.688 92.1402L111.04 89.4619ZM101.416 73.1582V70.1582H98.4401L98.4161 73.134L101.416 73.1582ZM115.83 73.1582L118.83 73.116L118.788 70.1582H115.83V73.1582ZM122.729 80.4092L122.648 83.4081L122.657 83.4083L122.729 80.4092ZM132.529 72.3672L135.498 72.7965L135.5 72.7823L135.502 72.7681L132.529 72.3672ZM131.343 66.2588L128.937 68.0512L128.957 68.0778L128.977 68.1039L131.343 66.2588ZM125.718 63.8857L125.818 60.8874L125.776 60.886L125.735 60.8858L125.718 63.8857ZM117.983 63.8418L115.019 63.3812L114.484 66.822L117.966 66.8417L117.983 63.8418ZM119.677 55.8115L126.137 55.8554L126.178 49.8555L119.718 49.8116L119.677 55.8115ZM126.224 55.8547C129.429 55.7835 132.304 54.839 134.62 52.8425L130.702 48.2981C129.62 49.2313 128.159 49.8102 126.091 49.8562L126.224 55.8547ZM134.642 52.8232C136.995 50.7539 138.278 47.9438 138.672 44.6901L132.715 43.9701C132.464 46.0484 131.725 47.3984 130.68 48.3174L134.642 52.8232ZM138.673 44.6806C138.979 42.0789 138.483 39.5871 136.855 37.5406L132.159 41.2758C132.582 41.8074 132.877 42.5969 132.714 43.9796L138.673 44.6806ZM136.855 37.5406C135.135 35.3787 132.644 34.4697 129.935 34.431L129.85 40.4304C131.242 40.4503 131.828 40.8596 132.159 41.2758L136.855 37.5406ZM129.985 34.4321C127.42 34.3532 125.056 35.0794 123.024 36.6242L126.654 41.4012C127.551 40.7195 128.557 40.391 129.8 40.4292L129.985 34.4321ZM123.024 36.6242C120.977 38.1796 119.657 40.2829 119.098 42.8004L124.955 44.102C125.216 42.928 125.771 42.0723 126.654 41.4012L123.024 36.6242ZM122.008 40.4512L107.506 40.5391L107.543 46.539L122.045 46.4511L122.008 40.4512ZM110.521 43.6914C110.666 40.8243 111.574 38.3517 113.242 36.1836L108.486 32.5254C106.053 35.6893 104.734 39.3398 104.528 43.3867L110.521 43.6914ZM113.242 36.1836C114.947 33.9674 117.237 32.2196 120.205 30.9657L117.871 25.4386C114.042 27.0558 110.883 29.4096 108.486 32.5254L113.242 36.1836ZM120.217 30.9608C123.245 29.6667 126.511 29.0224 130.046 29.0487L130.091 23.0489C125.775 23.0167 121.687 23.8079 117.859 25.4435L120.217 30.9608ZM130 29.0481C135.961 29.1835 140.275 30.7413 143.29 33.3976L147.257 28.8954C142.889 25.0478 137.066 23.2071 130.137 23.0496L130 29.0481ZM143.3 33.4064C146.214 35.95 147.606 39.3155 147.332 43.8874L153.322 44.2454C153.693 38.036 151.716 32.7883 147.246 28.8865L143.3 33.4064ZM147.333 43.8775C147.046 48.4254 144.158 52.4299 137.233 55.6762L139.779 61.109C147.854 57.324 152.846 51.7777 153.321 44.2554L147.333 43.8775ZM137.175 61.0814C139.539 62.251 141.187 63.8025 142.266 65.7125L147.49 62.7621C145.756 59.6917 143.156 57.3467 139.836 55.7038L137.175 61.0814ZM142.266 65.7125C143.368 67.6639 143.894 69.907 143.771 72.5348L149.764 72.8148C149.934 69.1731 149.201 65.7912 147.49 62.7621L142.266 65.7125ZM143.772 72.5183C143.597 75.8676 142.551 78.6971 140.667 81.1129L145.398 84.8031C148.084 81.3595 149.528 77.3335 149.763 72.8313L143.772 72.5183ZM140.676 81.1014C138.748 83.5487 136.126 85.4976 132.704 86.908L134.991 92.4552C139.245 90.7017 142.747 88.1681 145.389 84.8146L140.676 81.1014ZM132.723 86.9006C129.284 88.2919 125.573 88.9598 121.559 88.8795L121.439 94.8783C126.214 94.9738 130.736 94.1768 134.973 92.4627L132.723 86.9006ZM121.522 88.879C118.102 88.8529 115.077 88.1388 112.392 86.7837L109.688 92.1402C113.273 93.9491 117.22 94.8463 121.476 94.8788L121.522 88.879ZM112.422 86.799C109.777 85.4269 107.82 83.5918 106.457 81.2946L101.297 84.3578C103.273 87.6856 106.092 90.2743 109.658 92.1248L112.422 86.799ZM106.457 81.2946C105.096 79.0034 104.391 76.3303 104.416 73.1824L98.4161 73.134C98.3829 77.2518 99.3179 81.0239 101.297 84.3578L106.457 81.2946ZM101.416 76.1582H115.83V70.1582H101.416V76.1582ZM112.83 73.2005C112.868 75.8854 113.683 78.3285 115.436 80.2959L119.915 76.3037C119.267 75.5758 118.851 74.5911 118.83 73.116L112.83 73.2005ZM115.436 80.2959C117.297 82.3838 119.833 83.332 122.648 83.4081L122.811 77.4103C121.29 77.3692 120.457 76.9112 119.915 76.3037L115.436 80.2959ZM122.657 83.4083C125.782 83.4836 128.625 82.5419 131.059 80.602L127.32 75.9097C126.004 76.9581 124.541 77.452 122.802 77.4101L122.657 83.4083ZM131.059 80.602C133.547 78.6192 135.041 75.9629 135.498 72.7965L129.56 71.9379C129.315 73.6347 128.582 74.9042 127.32 75.9097L131.059 80.602ZM135.502 72.7681C135.916 69.6983 135.524 66.741 133.708 64.4137L128.977 68.1039C129.447 68.7062 129.845 69.8212 129.556 71.9663L135.502 72.7681ZM133.748 64.4663C131.89 61.9719 128.969 60.9924 125.818 60.8874L125.618 66.8841C127.74 66.9548 128.569 67.5574 128.937 68.0512L133.748 64.4663ZM125.735 60.8858L118 60.8418L117.966 66.8417L125.701 66.8857L125.735 60.8858ZM120.948 64.3024L122.662 53.2721L116.733 52.3509L115.019 63.3812L120.948 64.3024Z" fill="#EF3829"/>
</g>
<defs>
<filter id="filter0_f" x="27" y="81.8613" width="156" height="26" filterUnits="userSpaceOnUse" color-interpolation-filters="sRGB">
<feFlood flood-opacity="0" result="BackgroundImageFix"/>
<feBlend mode="normal" in="SourceGraphic" in2="BackgroundImageFix" result="shape"/>
<feGaussianBlur stdDeviation="5" result="effect1_foregroundBlur"/>
</filter>
<clipPath id="clip0">
<rect width="277" height="105.82" fill="white"/>
</clipPath>
</defs>
</svg>
