<svg width="277" height="106" viewBox="0 0 277 106" fill="none" xmlns="http://www.w3.org/2000/svg">
<g clip-path="url(#clip0)">
<g filter="url(#filter0_f)">
<ellipse cx="101" cy="94" rx="68" ry="3" fill="#C4C4C4" fill-opacity="0.5"/>
</g>
<g clip-path="url(#clip1)">
<path d="M117.405 22.7016C117.24 22.971 117.141 23.2819 116.975 23.5513C116.649 23.6289 116.364 23.6391 116.037 23.7167C108.824 24.569 100.814 20.3791 103.599 15.4056C104.957 12.8981 107.833 12.9044 109.445 13.1537C109.761 11.5837 110.716 8.82736 113.421 8.35684C119.09 7.29671 120.465 16.2255 117.405 22.7016Z" fill="#EF3829"/>
<path d="M122.51 21.2016C122.334 21.186 122.117 21.2377 121.873 21.1806C121.78 21.0303 121.619 20.8385 121.526 20.6882C118.952 16.8734 118.965 11.1216 122.613 11.2318C124.416 11.3206 125.265 12.9584 125.607 13.912C126.628 13.6118 128.395 13.3067 129.544 14.7581C131.803 17.7281 127.138 21.079 122.51 21.2016Z" fill="#B72C38"/>
</g>
<g clip-path="url(#clip2)">
<path d="M24.7336 86.974C24.7336 87.6966 24.1367 88.2936 23.3826 88.2936C22.6285 88.2936 22.0315 87.6966 22.0315 86.974C22 86.2513 22.597 85.6543 23.3511 85.6543C24.1052 85.6543 24.7336 86.2513 24.7336 86.974Z" fill="#B72C38"/>
<path d="M26.399 61.4292C26.399 61.8691 26.022 62.2462 25.5821 62.2462C25.1422 62.2462 24.7651 61.9006 24.7651 61.4292C24.7651 60.9579 25.1422 60.6123 25.5821 60.6123C26.022 60.6437 26.399 60.9894 26.399 61.4292Z" fill="#ED7E60"/>
<path d="M60.1762 71.2295L59.8935 74.0259L59.0137 81.8811L58.668 84.9604L57.4112 96.429L46.9795 96.9631L43.7746 97.1517L31.489 97.7801L28.3155 87.1913L27.4358 84.2063L24.9221 75.8169L24.7021 75.0943L60.1762 71.2295Z" fill="#F3DEC9"/>
<path d="M59.014 81.8838L58.6683 84.963L46.2257 85.8742L42.141 86.1884L28.3158 87.1939L27.436 84.2089L41.3869 83.172L46.5085 82.795L59.014 81.8838Z" fill="#EF3829"/>
<path opacity="0.1" d="M33.0284 96.3675L57.411 96.4304L46.9793 96.9645L43.7744 97.1531L31.4888 97.7815L28.3153 87.1927L27.4355 84.2077L24.9219 75.8183L59.8932 74.0273L28.2525 78.7719L33.0284 96.3675Z" fill="#CB2C1C"/>
<path opacity="0.38" d="M46.5083 82.7939L46.2255 85.8732L42.1408 86.1874L41.3867 83.171L46.5083 82.7939Z" fill="#CB2C1C"/>
<path d="M46.9796 96.9643L43.7746 97.1528L41.041 76.0694L44.8744 75.6924L46.9796 96.9643Z" fill="#EF3829"/>
<path d="M41.8892 66.926V68.12C41.8892 68.12 41.8892 68.12 41.8578 68.12C41.8578 68.12 41.8264 68.12 41.795 68.12C41.795 68.12 41.795 68.12 41.7635 68.12C41.5436 68.0572 40.978 67.9001 40.1925 67.5544C39.8469 65.8577 38.8414 63.1555 35.7936 60.9875C34.9452 60.3905 34.1283 59.9192 33.3428 59.5736C32.6829 59.2594 32.0545 59.0394 31.4575 58.8823C32.0859 58.4738 32.84 58.191 33.5941 58.0339C34.9138 57.7826 36.3277 57.8768 37.3646 58.4424C40.3182 59.982 41.8892 63.8468 41.8892 66.926Z" fill="#EF3829"/>
<path d="M41.8894 68.1196L40.3498 68.8737C40.3498 68.6223 40.3183 68.2452 40.2241 67.7739C38.0246 67.3026 36.0451 67.6797 33.2487 66.36C31.8976 65.7316 30.1694 64.0663 29.8238 62.7466C29.3525 61.0185 30.138 59.6988 31.4577 58.8818C32.0547 59.0389 32.6831 59.2589 33.3429 59.5417C33.2487 60.8613 33.5943 62.3381 34.8511 63.6892C36.7992 65.7944 38.8416 66.9256 40.2241 67.5226C41.0096 67.8682 41.5752 68.0253 41.7951 68.0881C41.7951 68.0881 41.7951 68.0881 41.8265 68.0881C41.8265 68.1196 41.858 68.1196 41.8894 68.1196Z" fill="#D93D40"/>
<path d="M42.0151 66.0782V67.2722C42.0151 67.2722 42.0151 67.2722 42.0466 67.2722C42.0466 67.2722 42.078 67.2722 42.1094 67.2722C42.1094 67.2722 42.1094 67.2722 42.1408 67.2722C42.3608 67.2094 42.9263 67.0522 43.7119 66.7066C44.0575 65.0099 45.063 62.3077 48.1108 60.1397C48.9591 59.5427 49.7761 59.0714 50.5616 58.7257C51.2214 58.4115 51.8499 58.223 52.4154 58.0659C51.787 57.6574 51.0329 57.3746 50.2788 57.2175C48.9591 56.9662 47.5452 57.0604 46.5083 57.626C43.5862 59.1342 42.0151 62.999 42.0151 66.0782Z" fill="#EF3829"/>
<path d="M42.0151 67.2729L43.5548 68.027C43.5548 67.7756 43.5862 67.3986 43.6804 66.9272C45.8799 66.4559 47.8594 66.833 50.6559 65.5133C52.007 64.8849 53.7351 63.2196 54.0807 61.8999C54.552 60.1718 53.7665 58.8521 52.4468 58.0352C51.8499 58.1923 51.2529 58.4122 50.593 58.7264C50.6873 60.0461 50.3417 61.5229 49.0848 62.874C47.1367 64.9477 45.0944 66.1103 43.7119 66.6759C42.9263 67.0215 42.3608 67.1786 42.1408 67.2415C42.1408 67.2415 42.1408 67.2415 42.1094 67.2415C42.078 67.2729 42.078 67.2729 42.0151 67.2729C42.0151 67.2729 42.0466 67.2729 42.0151 67.2729Z" fill="#D93D40"/>
<path d="M58.6682 74.311C58.6682 74.311 52.1641 74.9709 44.9059 75.6935C43.6491 75.8192 42.3608 75.9449 41.0726 76.0706C34.2857 76.7304 27.7501 77.3903 25.8963 77.6102C25.5507 77.6416 25.2365 77.6416 24.9537 77.5474C21.8116 76.8561 22.66 70.572 22.66 70.572C28.9441 68.781 34.9455 67.7127 40.2556 67.1157C40.2871 67.1157 40.3185 67.1157 40.3813 67.1157C41.5439 66.99 42.675 66.8643 43.7433 66.77C43.7748 66.77 43.8062 66.77 43.8376 66.77C54.0494 65.9217 60.8991 66.7072 60.8991 66.7072C60.8991 66.7072 60.8991 66.7072 61.6218 71.0118C62.0931 74.1853 58.6682 74.311 58.6682 74.311Z" fill="#EF3829"/>
<path d="M44.8744 75.6616C43.6176 75.7873 42.3293 75.9444 41.0411 76.0701L40.2241 67.1152C40.2555 67.1152 40.287 67.1152 40.3498 67.1152C41.5124 66.9895 42.6435 66.8638 43.7118 66.7695C43.7433 66.7695 43.7747 66.7695 43.8061 66.7695L44.8744 75.6616Z" fill="#EF3829"/>
<path d="M47.4509 69.9114C47.2309 70.257 46.9796 70.5712 46.7282 70.9169C46.6025 71.074 46.5711 71.1054 46.3826 71.0426C46.0055 70.9169 46.0055 70.9169 46.0055 70.9169C45.4085 70.6341 45.1572 70.4456 44.6858 70.0371C44.3402 69.7229 44.0574 69.283 44.026 68.8117C43.9946 68.3404 44.4345 67.8376 44.9058 67.8062C45.4085 67.7434 45.7227 68.3089 45.9741 68.7174C46.0055 68.4346 45.9741 68.1204 46.1312 67.8691C46.2569 67.6177 46.4768 67.4292 46.7596 67.3349C47.3566 67.0835 47.8279 67.4606 47.985 68.0576C48.1421 68.686 47.7965 69.3458 47.4509 69.9114Z" fill="#F2DEC9"/>
<path d="M46.2568 68.9693C46.2568 69.1264 46.1312 69.2521 45.9426 69.2521C45.7855 69.2521 45.6284 69.1264 45.6284 68.9693C45.6284 68.8122 45.7541 68.6865 45.9426 68.6865C46.0997 68.6865 46.2568 68.8122 46.2568 68.9693Z" fill="#CB2C1C"/>
<path d="M46.2571 68.4658C46.2571 68.6543 46.1943 68.78 46.1629 68.9686C46.1314 69.1885 45.7858 69.0942 45.8172 68.8743C45.9115 68.3087 45.8801 67.7431 45.6601 67.1776C45.5659 66.989 45.4088 66.7691 45.2202 66.612C44.9689 66.3606 44.5918 66.2349 44.2148 66.2664C43.9634 66.2978 43.7749 66.4863 43.6492 66.7377C43.5235 66.7377 43.3664 66.7691 43.2407 66.7691C43.5549 65.8893 44.5918 65.7322 45.4088 66.2978C45.5344 66.3921 45.6287 66.4863 45.6915 66.5806C45.9429 66.8948 46.0686 67.2718 46.1314 67.6489C46.1943 67.9317 46.2571 68.2145 46.2571 68.4658Z" fill="#CB3E3D"/>
<path opacity="0.09" d="M24.9222 77.5474C21.8115 76.8561 22.6599 70.572 22.6599 70.572C28.944 68.781 34.9454 67.7127 40.2555 67.1157C40.287 67.1157 40.3184 67.1157 40.3812 67.1157C41.5438 66.99 42.6749 66.8643 43.7432 66.77C43.7747 66.77 43.8061 66.77 43.8375 66.77C54.0493 65.9217 60.899 66.7072 60.899 66.7072C31.332 67.6812 23.7282 71.4203 23.7282 71.4203C22.5028 75.0337 24.9222 77.5474 24.9222 77.5474Z" fill="#F7CCBD"/>
<path d="M46.8538 59.3857C46.0683 59.9827 45.3142 60.2969 45.1571 60.1083C45 59.9198 45.4713 59.26 46.2568 58.663C47.0423 58.066 47.7964 57.7518 47.9535 57.9403C48.1106 58.1288 47.6079 58.7887 46.8538 59.3857Z" fill="#F8F8F9"/>
<path d="M44.5916 61.1144C44.4031 61.2401 44.1517 61.2401 43.9946 61.0516C43.8375 60.8631 43.8689 60.6117 44.0575 60.486C44.246 60.3603 44.4974 60.3603 44.6545 60.5489C44.7802 60.7374 44.7487 60.9888 44.5916 61.1144Z" fill="#F8F8F9"/>
<path d="M37.9934 59.5743C38.6847 60.2342 39.1246 60.9254 38.936 61.114C38.7475 61.3025 38.0248 60.894 37.3336 60.2342C36.6423 59.5743 36.2024 58.8831 36.391 58.6946C36.5481 58.506 37.2707 58.9145 37.9934 59.5743Z" fill="#F8F8F9"/>
<path d="M40.0356 61.5553C40.1927 61.7124 40.1927 61.9638 40.0356 62.1209C39.8785 62.278 39.6272 62.278 39.4386 62.1209C39.2815 61.9638 39.2815 61.7124 39.4386 61.5553C39.6272 61.3982 39.8785 61.3982 40.0356 61.5553Z" fill="#F8F8F9"/>
<path d="M55.0234 64.3501C54.9606 64.3187 54.8978 64.2873 54.8663 64.2559C54.8663 64.193 54.8663 64.1302 54.8349 64.0673C54.7721 62.5591 55.7461 60.9567 56.7516 61.6165C57.2543 61.9307 57.2229 62.5277 57.1286 62.8733C57.4743 62.9676 58.0084 63.1875 58.0713 63.7845C58.1969 64.9157 56.3431 65.0728 55.0234 64.3501Z" fill="#E9626A"/>
<path d="M30.1694 66.4238C30.2008 66.4867 30.2323 66.5495 30.2323 66.6123C30.2008 66.6752 30.1694 66.738 30.1066 66.7695C29.2268 67.9949 27.4672 68.6547 27.0902 67.5236C26.9016 66.958 27.3101 66.5181 27.5615 66.2981C27.3415 66.0154 27.0588 65.5126 27.373 65.0099C28.0014 64.0044 29.5724 65.0413 30.1694 66.4238Z" fill="#D93D40"/>
<path d="M63.0668 69.2836C63.0354 69.2836 62.9726 69.2836 62.9412 69.2836C62.9097 69.2522 62.8783 69.2208 62.8783 69.158C62.3756 68.2782 62.4384 67.0528 63.2554 67.1156C63.6638 67.147 63.6324 67.744 63.6953 67.964C63.9152 67.9011 64.4808 67.6498 64.7007 67.964C65.1092 68.6238 64.0723 69.3151 63.0668 69.2836Z" fill="#EF3829"/>
</g>
<path d="M177.71 88.3779C176.909 89.3154 175.742 90.043 174.209 90.5605C172.676 91.0684 170.977 91.3076 169.111 91.2783C167.324 91.2588 165.815 90.8096 164.585 89.9307C163.354 89.0518 162.476 87.8262 161.948 86.2539C161.421 84.6816 161.279 82.9092 161.523 80.9365L161.641 80.0576C162.09 76.7471 163.252 74.125 165.127 72.1914C167.012 70.2578 169.316 69.3154 172.041 69.3643C174.424 69.4033 176.255 70.043 177.534 71.2832C178.813 72.5234 179.526 74.3154 179.673 76.6592L174.868 76.6445C174.8 75.502 174.517 74.667 174.019 74.1396C173.53 73.6123 172.832 73.334 171.924 73.3047C170.576 73.2559 169.463 73.7881 168.584 74.9014C167.705 76.0049 167.104 77.5869 166.782 79.6475C166.509 81.4053 166.411 82.7725 166.489 83.749C166.636 86.1025 167.695 87.2939 169.668 87.3232C170.859 87.3428 171.904 87.0547 172.803 86.459L173.462 83.1338H169.99L170.605 79.6035H179.087L177.71 88.3779ZM185.356 91H180.347L184.053 69.6719H189.048L185.356 91ZM206.626 88.3779C205.825 89.3154 204.658 90.043 203.125 90.5605C201.592 91.0684 199.893 91.3076 198.027 91.2783C196.24 91.2588 194.731 90.8096 193.501 89.9307C192.271 89.0518 191.392 87.8262 190.864 86.2539C190.337 84.6816 190.195 82.9092 190.439 80.9365L190.557 80.0576C191.006 76.7471 192.168 74.125 194.043 72.1914C195.928 70.2578 198.232 69.3154 200.957 69.3643C203.34 69.4033 205.171 70.043 206.45 71.2832C207.729 72.5234 208.442 74.3154 208.589 76.6592L203.784 76.6445C203.716 75.502 203.433 74.667 202.935 74.1396C202.446 73.6123 201.748 73.334 200.84 73.3047C199.492 73.2559 198.379 73.7881 197.5 74.9014C196.621 76.0049 196.021 77.5869 195.698 79.6475C195.425 81.4053 195.327 82.7725 195.405 83.749C195.552 86.1025 196.611 87.2939 198.584 87.3232C199.775 87.3428 200.82 87.0547 201.719 86.459L202.378 83.1338H198.906L199.521 79.6035H208.003L206.626 88.3779ZM221.45 87.0156H214.639L212.749 91H207.227L218.521 69.6719H223.237L227.178 91H221.963L221.45 87.0156ZM216.514 83.0459H220.938L220 75.6924L216.514 83.0459ZM240.625 85.2285C240.84 84.125 240.244 83.2705 238.838 82.665L236.436 81.6689C233.066 80.1553 231.465 78.0947 231.631 75.4873C231.699 74.2959 232.109 73.2363 232.861 72.3086C233.613 71.3711 234.653 70.6436 235.981 70.126C237.31 69.6084 238.76 69.3594 240.332 69.3789C242.441 69.418 244.136 70.0332 245.415 71.2246C246.704 72.416 247.339 74.0127 247.319 76.0146H242.339C242.368 75.1943 242.192 74.54 241.812 74.0518C241.44 73.5537 240.825 73.2949 239.966 73.2754C239.126 73.2559 238.384 73.4512 237.739 73.8613C237.095 74.2715 236.714 74.8232 236.597 75.5166C236.411 76.4932 237.134 77.2939 238.765 77.9189C240.405 78.5439 241.597 79.0811 242.339 79.5303C244.673 80.9268 245.767 82.8115 245.62 85.1846C245.542 86.415 245.146 87.4941 244.434 88.4219C243.721 89.3496 242.729 90.0674 241.46 90.5752C240.2 91.083 238.784 91.3271 237.212 91.3076C236.06 91.2881 234.99 91.1074 234.004 90.7656C233.018 90.4238 232.173 89.9258 231.47 89.2715C230.044 87.9531 229.36 86.2197 229.419 84.0713L234.443 84.0859C234.385 85.1797 234.595 86.0098 235.073 86.5762C235.552 87.1328 236.357 87.4111 237.49 87.4111C238.33 87.4111 239.028 87.2207 239.585 86.8398C240.151 86.4492 240.498 85.9121 240.625 85.2285Z" fill="#BBBBBB"/>
<path d="M183.692 38.4747C182.857 39.0545 181.442 38.7994 180.488 38.772C178.06 38.6283 175.39 36.696 174.642 34.3652C174.449 33.776 174.207 30.17 175.344 30.3075C175.439 30.315 175.461 30.3407 175.505 30.3919C176.512 29.754 177.621 29.3392 178.832 29.1478C180.064 28.982 181.644 28.9631 182.857 29.3458C183.862 29.6403 183.959 30.8435 184.323 31.6853C184.865 32.9955 185.141 34.0455 185.007 35.4458C184.902 36.4658 184.603 37.8292 183.692 38.4747Z" fill="#D93D40"/>
<path d="M167.308 61.8606C165.183 63.63 162.527 64.5682 159.939 65.5359C158.904 65.9325 157.769 66.3691 156.635 66.4949C155.428 66.6388 154.093 66.8922 152.85 66.8898C152.492 66.8854 151.288 66.9818 151.084 66.5353C150.964 66.2388 151.203 65.9468 151.459 65.7279C151.98 64.8842 152.884 64.3337 153.628 63.6989C154.371 63.0641 155.079 62.2829 155.935 61.7288C156.364 61.4517 156.814 61.2002 157.29 60.9269C158.392 60.2964 159.556 59.7904 160.716 59.3319C162.443 58.6551 164.277 57.8432 166.142 57.536C168.103 57.2363 169.973 56.5708 172.013 56.4687C172.182 56.458 172.357 56.6632 172.225 56.8201C170.81 58.6933 169.102 60.3282 167.308 61.8606Z" fill="#C5C25E"/>
<path d="M176.276 47.5985C176.199 47.6641 176.1 47.7042 176.024 47.7698C174.75 48.4585 173.365 47.8232 172.247 47.1372C170.695 46.2017 169.403 44.6889 168.269 43.3081C167.463 42.3119 167.191 41.2144 167.613 40.0999C167.544 40.0705 167.504 39.9717 167.537 39.8547C167.754 38.9154 167.903 37.9466 168.168 37.011C168.425 36.1704 168.789 35.1948 169.277 34.468C169.82 33.65 170.315 32.8282 170.993 32.1164C171.799 31.2952 172.66 30.6935 173.553 29.9749C174.267 29.4095 175.338 27.9635 176.379 28.7151C176.988 29.1698 177.561 30.0997 177.991 30.7075C178.44 31.3886 178.687 32.1972 178.89 32.9545C179.144 33.9789 179.325 35.0215 179.458 36.0602C179.818 38.767 179.769 41.5131 178.755 44.0635C178.637 44.3412 178.546 44.597 178.428 44.8747C177.888 45.9561 177.283 46.9605 176.276 47.5985Z" fill="#EA4F4F"/>
<path d="M180.47 45.6584C179.294 46.6179 177.797 47.4085 176.275 47.5993C175.504 47.6819 174.718 47.6439 174.002 47.3243C172.704 46.7916 171.569 46.0324 170.906 44.7366C170.447 43.8874 170.269 42.7973 170.556 41.8873C170.443 41.8067 170.359 41.6566 170.513 41.5252L170.59 41.4595C170.667 41.3939 170.792 41.332 170.894 41.2444C170.894 41.2444 170.894 41.2444 170.92 41.2225C170.945 41.2006 170.945 41.2006 170.971 41.1787C171.993 40.3506 173.055 39.6213 174.139 38.9177C174.618 38.5968 175.12 38.3016 175.599 37.9807C176.782 37.2371 178.103 36.5522 179.435 36.0355C179.93 35.8353 180.445 35.6608 180.936 35.5082C182.235 35.1085 187.605 34.0255 186.297 36.9594C185.633 38.4135 184.851 39.8344 184.143 41.2372C183.438 42.5925 182.449 43.6145 181.452 44.7315C181.115 45.0636 180.803 45.3739 180.47 45.6584Z" fill="#EA4F4F"/>
<path d="M156.786 30.3279C156.949 30.9865 157.745 31.5036 158.242 31.8776C159.479 32.86 161.589 33.0981 162.922 32.2706C163.273 32.0592 164.838 30.4131 164.228 29.9585C164.206 29.9328 164.158 29.9291 164.111 29.9253C163.886 29.1423 163.51 28.4432 162.985 27.8278C162.46 27.2124 161.678 26.5052 160.919 26.1344C160.319 25.848 159.752 26.3771 159.228 26.6467C158.474 27.1133 157.917 27.4998 157.404 28.2484C157.001 28.8145 156.604 29.5962 156.786 30.3279Z" fill="#B72C38"/>
<path d="M156.73 38.3108C157.09 39.2001 158.022 39.5127 158.87 39.6752C159.999 39.9078 161.28 39.7458 162.395 39.5468C163.218 39.4204 163.779 38.9863 164.051 38.2665C164.098 38.2702 164.171 38.2521 164.201 38.1827C164.461 37.6054 164.788 37.1051 165.052 36.4803C165.262 35.9468 165.479 35.3183 165.549 34.726C165.624 34.0862 165.72 33.4721 165.699 32.8248C165.664 32.0568 165.479 31.3726 165.323 30.619C165.226 30.0374 165.272 28.8454 164.442 28.756C163.945 28.6929 163.283 28.9037 162.818 29.0344C162.306 29.1614 161.852 29.4604 161.471 29.7412C159.541 31.1673 157.731 32.8897 156.97 35.2688C156.628 36.2701 156.333 37.2751 156.73 38.3108Z" fill="#D33543"/>
<path d="M160.495 39.0845C159.631 39.4229 158.779 39.3079 157.921 38.9771C157.431 38.8189 157.026 38.5 156.676 38.0897L156.588 37.9872C156.15 37.4744 155.844 36.8046 155.634 36.1423C155.441 35.5532 155.321 34.9459 155.341 34.3975C155.346 33.4175 155.253 32.4775 155.474 31.4906C155.674 30.4781 155.873 29.4655 156.142 28.4824C156.146 28.4348 156.146 28.4348 156.146 28.4348C156.382 27.5687 156.952 27.6136 157.518 28.017C158.288 28.556 159.087 29.6473 159.364 30.0757C159.532 30.3759 159.725 30.6541 159.889 31.0019C160.18 31.5509 160.443 32.1694 160.661 32.7367C160.781 33.0331 160.875 33.3514 160.97 33.6697C161.308 34.8442 161.693 36.0224 161.91 37.2113C161.906 37.2589 161.928 37.2845 161.946 37.3577C161.965 37.4308 161.983 37.504 162.001 37.5772L162.019 37.6503C162.033 37.771 161.935 37.8111 161.839 37.8036C161.601 38.4065 161.062 38.8662 160.495 39.0845Z" fill="#D33543"/>
<path d="M174.705 31.4299C173.782 32.218 172.864 32.6477 172.645 32.3913C172.426 32.1349 172.994 31.2949 173.917 30.5069C174.84 29.7188 175.759 29.2891 175.978 29.5455C176.197 29.8019 175.628 30.6419 174.705 31.4299Z" fill="#F8F8F9"/>
<path d="M171.987 33.7511C171.782 33.9263 171.45 33.9 171.253 33.6693C171.056 33.4385 171.104 33.1314 171.309 32.9563C171.514 32.7812 171.847 32.8074 172.044 33.0382C172.241 33.2689 172.192 33.576 171.987 33.7511Z" fill="#F8F8F9"/>
<path d="M164.81 31.677C164.863 32.5181 164.737 33.2017 164.496 33.2305C164.28 33.2374 164.022 32.5713 163.968 31.7302C163.915 30.889 164.041 30.2054 164.282 30.1767C164.524 30.1479 164.756 30.8358 164.81 31.677Z" fill="#F8F8F9"/>
<path d="M164.995 34.1777C165.028 34.3716 164.87 34.5504 164.655 34.5573C164.439 34.5642 164.307 34.4104 164.275 34.2165C164.242 34.0226 164.4 33.8438 164.616 33.8369C164.831 33.83 164.988 33.9619 164.995 34.1777Z" fill="#F8F8F9"/>
<path d="M189.451 49.7381C188.599 49.6231 187.927 49.3548 187.967 49.1428C187.986 48.9052 188.71 48.8188 189.515 48.9301C190.366 49.0451 191.039 49.3133 190.998 49.5254C190.983 49.7155 190.281 49.8275 189.451 49.7381Z" fill="#F8F8F9"/>
<path d="M186.99 49.4003C186.8 49.3853 186.647 49.2058 186.688 48.9938C186.703 48.8037 186.882 48.6505 187.094 48.6911C187.284 48.7061 187.437 48.8856 187.397 49.0976C187.356 49.3096 187.18 49.4153 186.99 49.4003Z" fill="#F8F8F9"/>
<path d="M158.206 37.493L157.961 37.5694L156.636 37.991L156.589 37.9872L155.608 38.2925C155.55 38.1205 155.513 37.9742 155.43 37.8241C155.233 37.2825 155.231 36.7084 155.25 36.1599C155.258 36.0648 155.382 36.0029 155.426 36.0542C155.495 36.0836 155.565 36.113 155.634 36.1424C155.441 35.5532 155.322 34.946 155.341 34.3975C155.347 33.4175 155.254 32.4775 155.475 31.4906C155.674 30.4781 155.874 29.4656 156.143 28.4824C156.054 29.0015 155.498 32.712 156.853 35.545C157.177 36.288 157.603 36.9434 158.206 37.493Z" fill="#B72C38"/>
<path d="M180.47 45.6577C179.295 46.6171 177.798 47.4077 176.276 47.5986C176.199 47.6643 176.1 47.7043 176.023 47.77C174.749 48.4586 173.365 47.8233 172.247 47.1373C170.695 46.2018 169.403 44.6891 168.269 43.3083C167.463 42.312 167.19 41.2145 167.613 40.1C167.544 40.0706 167.504 39.9718 167.537 39.8548C167.754 38.9155 167.903 37.9467 168.168 37.0111C168.425 36.1706 168.789 35.1949 169.277 34.4682C169.277 34.4682 168.316 37.8598 170.228 39.9954C170.228 39.9954 172.659 38.5849 174.135 38.9645C174.417 39.0345 174.691 39.1996 174.862 39.4522C175.963 40.95 176.118 44.4535 176.118 44.4535C176.118 44.4535 177.207 44.5872 178.38 44.8711C179.108 45.048 179.875 45.3238 180.47 45.6577Z" fill="#DB4040"/>
<path d="M155.198 60.7628C155.121 60.8284 155 60.8428 154.935 60.7659C154.373 60.315 153.744 60.0981 153.262 59.534C152.916 59.0762 152.599 58.549 152.329 58.0256C151.597 56.7004 151.223 55.3796 151.076 53.9093C150.932 52.7023 151.325 51.6572 151.7 50.539C152.138 49.2344 152.353 47.7209 153.068 46.5338C153.149 46.4206 153.412 46.4175 153.449 46.5638C154.001 48.0422 154.701 49.4843 155.331 50.8971C155.819 51.9877 156.412 53.2541 156.75 54.4286C157.026 55.4786 156.943 56.8351 156.787 57.899C156.787 57.899 156.787 57.899 156.761 57.9209C156.698 58.418 156.478 58.7833 156.254 59.1961C156.254 59.1961 156.254 59.1961 156.276 59.2217C156.32 59.273 156.312 59.3681 156.283 59.4375C156.177 59.5726 156.092 59.7333 155.986 59.8684C155.982 59.9159 155.957 59.9378 155.953 59.9854C155.949 60.0329 155.945 60.0804 155.916 60.1498C155.89 60.1717 155.89 60.1717 155.865 60.1936C155.835 60.263 155.762 60.2812 155.689 60.2993C155.531 60.4782 155.374 60.6571 155.198 60.7628Z" fill="#C5C25E"/>
<path d="M190.224 56.9242C189.592 56.7547 189.081 55.9492 188.665 55.4621C187.688 54.2132 187.447 52.1138 188.272 50.7441C188.467 50.4007 190.123 48.8096 190.575 49.4431C190.597 49.4687 190.593 49.5163 190.589 49.5638C191.36 49.792 192.047 50.181 192.653 50.6831C193.281 51.2109 193.96 52.0058 194.331 52.7525C194.641 53.3747 194.073 53.9038 193.816 54.4336C193.42 55.2154 193.038 55.807 192.28 56.3211C191.724 56.7077 190.926 57.123 190.224 56.9242Z" fill="#B72C38"/>
<path d="M182.281 56.9681C181.4 56.6116 181.091 55.6786 180.943 54.8299C180.722 53.6886 180.871 52.409 181.056 51.2757C181.193 50.4496 181.596 49.8836 182.335 49.6071C182.339 49.5596 182.369 49.4901 182.394 49.4682C182.965 49.2024 183.47 48.8597 184.063 48.6195C184.583 48.3974 185.245 48.1866 185.801 48.1109C186.43 48.017 187.06 47.9232 187.699 47.9976C188.46 48.0576 189.14 48.2308 189.893 48.3858C190.481 48.504 191.659 48.4295 191.76 49.2744C191.817 49.7572 191.596 50.4332 191.489 50.8792C191.379 51.3726 191.078 51.8511 190.785 52.2345C189.366 54.1552 187.618 56.0021 185.287 56.7508C184.281 57.078 183.278 57.3576 182.281 56.9681Z" fill="#D33543"/>
<path d="M181.61 55.7675C181.32 54.9076 181.197 54.0371 181.528 53.1784C181.741 52.5974 182.188 52.0826 182.781 51.8424C182.763 51.7693 182.796 51.6523 182.938 51.6636L183.008 51.693C183.077 51.7223 183.172 51.7298 183.242 51.7592C183.242 51.7592 183.264 51.7849 183.289 51.763C184.514 52.003 185.705 52.3601 186.919 52.7427C188.132 53.1254 189.403 53.68 190.473 54.3623C191.226 54.8281 194.11 57.0644 192.131 57.6017C191.128 57.8814 190.086 58.0622 189.087 58.2943C188.114 58.5045 187.163 58.4295 186.209 58.402C184.469 58.3365 182.218 57.4654 181.61 55.7675Z" fill="#D33543"/>
<path d="M162.879 40.9944C162.125 41.461 161.309 41.8032 160.442 41.8783C160.153 41.9033 159.842 41.9027 159.535 41.8546C159.345 41.8396 159.181 41.8027 158.969 41.7621C157.891 41.4857 156.934 40.8841 156.292 39.9248C155.971 39.4452 155.778 38.8561 155.582 38.3145C155.524 38.1425 155.488 37.9961 155.404 37.8461C155.207 37.3045 155.205 36.7304 155.224 36.1819C155.232 36.0868 155.356 36.0249 155.4 36.0762C155.469 36.1056 155.539 36.135 155.608 36.1643C155.908 36.3075 156.233 36.4288 156.58 36.5758C156.649 36.6052 156.719 36.6346 156.741 36.6602C157.084 36.8547 157.376 37.0929 157.716 37.335C157.76 37.3862 157.829 37.4156 157.873 37.4669L157.938 37.5438C158.048 37.672 158.147 37.632 158.184 37.4675C158.261 37.4018 158.444 37.2011 158.521 37.1354C158.858 36.8033 159.22 36.4493 159.645 36.2197C160.073 35.9427 160.714 35.3954 161.204 35.8644C161.536 36.2015 161.758 36.7212 161.907 37.259C161.903 37.3065 161.925 37.3322 161.943 37.4053C162.019 37.6505 162.048 37.8919 162.128 38.0895C162.582 37.7905 163.007 37.561 163.581 37.5584C163.844 37.5553 164.177 37.5815 164.458 37.6516C164.528 37.681 164.619 37.736 164.71 37.791L164.736 37.7691C164.864 37.6597 165.039 37.8648 164.911 37.9742C164.885 37.9961 164.885 37.9961 164.86 38.018C164.834 38.0399 164.834 38.0399 164.83 38.0875C164.698 38.2444 164.607 38.5002 164.518 38.7085C164.353 38.9824 164.258 39.2858 164.067 39.5816C163.74 40.0819 163.41 40.6298 162.879 40.9944Z" fill="#C5C25E"/>
<path d="M155.893 60.7464C156.036 60.4468 156.157 60.1216 156.3 59.822C156.3 59.822 156.3 59.822 156.326 59.8001C156.477 59.4055 156.675 59.0146 156.804 58.5943C156.833 58.5249 156.862 58.4555 156.87 58.3604C157.59 56.5042 158.15 54.5635 158.611 52.6629C159.41 49.4977 160.391 45.2468 159.535 41.8553C159.44 41.537 159.368 41.2443 159.273 40.926C159.077 40.3844 159.911 40.1154 160.108 40.657C160.268 41.0522 160.38 41.4437 160.442 41.879C161.123 45.0654 160.388 48.9291 159.724 51.8898C159.318 53.6991 158.839 55.5266 158.196 57.3171C158.163 57.4341 158.104 57.5729 158.071 57.6899C157.946 58.0626 157.795 58.4573 157.648 58.8044C157.619 58.8738 157.615 58.9213 157.585 58.9908C157.582 59.0383 157.552 59.1077 157.527 59.1296C156.984 59.6368 156.417 60.166 155.893 60.7464Z" fill="#C5C25E"/>
<path d="M142.579 79.1605C143.713 75.3999 146.301 72.304 148.508 69.1781C150.261 66.662 151.831 64.0358 153.81 61.681C154.129 61.2757 154.496 60.8742 154.858 60.5202C155.485 59.8522 156.108 59.2318 156.778 58.6151C156.958 58.4619 157.09 58.3049 157.269 58.1517C157.577 57.889 157.863 57.6006 158.196 57.3161C159.482 56.174 160.808 55.1307 162.115 54.0143L166.653 50.1397C167.243 49.6362 167.8 48.9388 168.503 48.516C167.229 47.3872 166.439 45.8901 165.923 44.2472C165.617 43.2666 165.799 42.1809 165.925 41.1865C165.992 40.6417 166.197 40.1558 166.286 39.6367C166.36 39.3077 166.511 38.9131 166.541 38.5329C166.544 38.4853 166.548 38.4378 166.552 38.3903C166.556 38.3427 166.556 38.3427 166.559 38.2952C166.509 38.0282 166.948 37.9193 166.995 38.2339L166.991 38.2814C167.605 38.3777 168.211 38.8798 168.635 39.2719C169.35 39.9023 169.648 40.6671 169.866 41.5452C170.807 40.8303 172.104 39.8565 173.278 39.8295C174.356 39.795 174.58 41.1997 174.827 42.0083C175.1 42.795 175.157 43.5886 175.236 44.4079C175.269 44.6018 175.235 45.0296 175.293 45.2015C175.124 45.523 175.234 45.6512 175.647 45.5642C175.768 45.5499 175.91 45.5611 176.005 45.5686C176.649 45.5954 177.267 45.6442 177.899 45.8136C178.696 46.02 179.408 46.387 180.205 46.5933C180.322 46.6265 180.402 46.8241 180.321 46.9373C179.717 47.6309 179.159 48.3283 178.336 48.7655C177.289 49.3047 176.227 50.0339 175.104 50.328C173.322 50.7852 171.531 50.4526 169.902 49.5828C169.65 49.4434 169.445 49.3077 169.241 49.172C168.084 49.5829 166.677 51.3611 165.831 52.0835C164.574 53.1561 163.314 54.2763 162.036 55.3233C161.523 55.7611 161.014 56.1514 160.501 56.5892C159.608 57.3078 158.732 58.0997 157.882 58.8696C157.78 58.9571 157.651 59.0666 157.571 59.1798C157.003 59.7089 156.435 60.238 155.889 60.7928C155.735 60.9242 155.629 61.0593 155.475 61.1906C152.947 63.8368 151.185 67.0696 149.04 70.0092C146.943 72.9524 144.483 75.9389 143.412 79.5131C143.254 80.0028 142.417 79.6977 142.579 79.1605Z" fill="#C5C25E"/>
<path d="M185.474 58.3196C185.12 58.2678 184.743 58.1902 184.371 58.0652C183.647 57.8407 182.956 57.4993 182.445 57.0046C182.376 56.9752 182.329 56.9715 182.259 56.9421C181.378 56.5857 181.069 55.6526 180.921 54.804C180.7 53.6626 180.871 52.4087 181.034 51.2498C181.171 50.4236 181.574 49.8576 182.314 49.5811C182.317 49.5336 182.321 49.4861 182.372 49.4423C182.57 49.3622 182.72 49.2784 182.896 49.1727C183.269 48.987 183.646 48.7537 184.067 48.5716C184.587 48.3496 185.249 48.1388 185.805 48.0631C186.456 47.9949 187.085 47.901 187.703 47.9497C188.252 47.9691 188.767 48.1054 189.286 48.1942L189.202 48.3549C189.202 48.3549 185.279 47.7585 183.902 50.663C183.902 50.663 186.077 51.2889 185.917 52.4002C185.784 53.4897 185.336 54.3152 184.08 55.3879C184.08 55.3879 184.678 55.9851 185.071 56.7574C185.315 57.3028 185.49 57.8187 185.474 58.3196Z" fill="#B72C38"/>
<path d="M182.728 58.2702C182.055 58.002 181.259 57.7957 180.692 57.3923C179.761 56.7689 179.145 55.7876 178.873 54.6901C178.528 53.2998 178.897 51.9658 179.638 50.7569C179.968 50.209 180.543 49.8957 181.048 49.5529C181.3 49.3815 181.644 49.2652 181.919 49.1194C182.095 49.0137 182.34 48.9374 182.541 48.8098C182.567 48.7879 182.593 48.7661 182.593 48.7661C182.618 48.7442 182.618 48.7442 182.618 48.7442C182.724 48.6091 182.951 48.7704 182.845 48.9055C182.845 48.9055 182.845 48.9055 182.819 48.9274C183.034 49.2313 183.044 49.7104 183.04 50.0687C183.042 50.6428 182.815 51.1032 182.518 51.5341C183.245 51.711 184.21 51.9067 184.717 52.4489C185.181 52.9398 184.627 53.5896 184.356 53.9987C184.106 54.4333 183.769 54.7654 183.407 55.1194C183.304 55.207 183.125 55.3602 183.07 55.4515C182.85 55.506 182.842 55.601 183.069 55.7624C183.113 55.8136 183.156 55.8649 183.222 55.9418C183.485 56.2495 183.7 56.5535 183.911 56.9049C184.141 57.3295 184.268 57.8417 184.497 58.2664C184.516 58.3395 184.482 58.4565 184.387 58.449C183.835 58.4772 183.261 58.4797 182.728 58.2702Z" fill="#C5C25E"/>
<path d="M179.682 54.4436C179.379 54.348 179.075 54.2523 178.746 54.1785C175.369 53.3382 171.133 54.2954 167.986 55.0755C164.522 55.95 161.013 57.0841 157.886 58.8223C157.788 58.8623 157.711 58.928 157.612 58.968C157.26 59.1794 156.909 59.3908 156.557 59.6023C156.459 59.6423 156.356 59.7299 156.279 59.7955C155.799 60.1164 155.294 60.4591 154.858 60.8313C154.503 61.0902 154.144 61.3967 153.811 61.6813C154.13 61.276 154.496 60.8745 154.859 60.5205C155.486 59.8525 156.108 59.2321 156.779 58.6154C156.808 58.5459 156.838 58.4765 156.845 58.3815C156.995 58.2976 157.12 58.2357 157.27 58.1519C157.544 58.0062 157.819 57.8604 158.071 57.6891C158.869 57.2737 159.689 56.8841 160.505 56.5419C163.155 55.3879 165.947 54.5559 168.745 53.9397C171.69 53.2872 175.528 52.5377 178.701 53.2423C179.125 53.3236 179.545 53.4524 179.918 53.5775C180.499 53.7907 180.219 54.6056 179.682 54.4436Z" fill="#C5C25E"/>
<path d="M168.496 44.666C168.194 43.6378 168.123 42.4127 168.396 41.382C168.429 41.265 168.268 41.1806 168.166 41.2682C167.766 41.7867 167.75 42.5984 167.701 43.2163C167.66 43.7392 167.596 44.5472 168.067 44.943C168.246 45.1006 168.572 44.9111 168.496 44.666Z" fill="#BAB23C"/>
<path d="M171.831 44.833C172.029 44.4421 172.001 43.8899 172.316 43.5321C172.368 43.4884 172.276 43.4333 172.251 43.4552C171.925 43.6447 171.844 44.0688 171.722 44.394C171.535 44.9531 171.026 45.3434 170.886 45.9062C170.856 45.9757 170.944 46.0782 171.043 46.0382C171.42 45.8049 171.659 45.202 171.831 44.833Z" fill="#BAB23C"/>
<path d="M176.309 47.4824C175.709 47.5068 175.16 47.7983 174.535 47.8446C174.03 47.8765 173.475 47.6414 173.061 48.0392C172.903 48.2181 172.881 48.5032 173.111 48.6171C174.342 49.3837 175.419 48.1535 176.327 47.5555C176.353 47.5336 176.309 47.4824 176.309 47.4824Z" fill="#BAB23C"/>
<path d="M158.99 39.9705C158.746 39.736 158.398 39.5891 158.103 39.3983C157.694 39.1269 157.435 38.7717 157.051 38.4785C157.029 38.4528 157.004 38.4747 157.026 38.5003C157.467 39.2764 158.153 39.6654 158.909 40.0837C158.957 40.0875 159.034 40.0218 158.99 39.9705Z" fill="#BAB23C"/>
<path d="M160.342 38.906C160.39 38.5989 160.39 38.2881 160.46 38.0066C160.464 37.9591 160.417 37.9554 160.391 37.9772C160.123 38.3387 160.001 38.9748 160.11 39.4138C160.128 39.487 160.176 39.4907 160.227 39.4469C160.429 39.3194 160.327 39.0961 160.342 38.906Z" fill="#BAB23C"/>
<path d="M162.406 40.0249C162.483 39.9592 162.908 39.108 162.956 39.1118C162.978 39.1374 162.982 39.0899 162.982 39.0899C162.96 39.0642 162.938 39.0386 162.916 39.0129C162.894 38.9873 162.868 39.0092 162.868 39.0092C162.586 39.25 162.396 39.5458 162.114 39.7866C161.857 40.0055 161.583 40.1513 161.439 40.4508C161.384 40.5422 161.494 40.6703 161.593 40.6303C161.915 40.4883 162.193 40.2951 162.406 40.0249Z" fill="#BAB23C"/>
<path d="M181.032 52.1828C181.175 51.8832 181.315 51.3203 181.659 51.204C181.382 51.0864 181.173 51.3091 181.059 51.5392C180.809 51.9739 180.659 52.3686 180.526 52.8364C180.497 52.9058 180.61 52.9865 180.661 52.9427C180.866 52.7675 180.893 52.4348 181.032 52.1828Z" fill="#BAB23C"/>
<path d="M182.521 53.6159C182.13 53.7285 181.365 53.716 181.145 54.0813C181.116 54.1507 181.182 54.2276 181.255 54.2095C181.679 53.9799 182.137 53.9443 182.521 53.6159Z" fill="#BAB23C"/>
<path d="M182.383 56.8806C182.083 56.7374 181.43 56.2315 181.361 55.8913C181.321 55.7925 181.204 55.7593 181.171 55.8763C180.976 56.5305 181.849 56.982 182.383 56.8806Z" fill="#BAB23C"/>
<path d="M168.645 58.5472C166.175 59.548 164.01 61.2186 161.536 62.267C160.471 62.733 159.381 63.2208 158.276 63.588C157.712 63.7588 157.156 63.8345 156.651 64.1773C156.574 64.2429 156.683 64.3711 156.757 64.353C160.965 62.8436 165.169 61.3818 168.645 58.5472C168.671 58.5253 168.693 58.551 168.645 58.5472Z" fill="#BAB23C"/>
<path d="M155.258 58.1846C153.764 55.6036 152.907 52.523 153.406 49.5254C152.943 50.8519 153.071 52.8707 153.295 54.2753C153.541 55.7056 153.965 57.2934 155.057 58.3121C155.144 58.4147 155.342 58.3346 155.258 58.1846Z" fill="#BAB23C"/>
<path d="M189.733 49.4983C188.91 49.3139 188.242 48.9981 188.308 48.7642C188.349 48.5522 189.047 48.4877 189.895 48.6503C190.718 48.8347 191.386 49.1505 191.32 49.3844C191.254 49.6183 190.555 49.6828 189.733 49.4983Z" fill="#F8F8F9"/>
<path d="M187.288 48.9698C187.076 48.9291 186.97 48.7534 187.011 48.5414C187.026 48.3513 187.227 48.2237 187.439 48.2643C187.651 48.3049 187.757 48.4807 187.716 48.6927C187.676 48.9047 187.474 49.0323 187.288 48.9698Z" fill="#F8F8F9"/>
<path opacity="0.09" d="M155.641 60.2956C155.51 60.4526 155.352 60.6314 155.198 60.7628C155.121 60.8284 155 60.8428 154.935 60.7659C154.373 60.315 153.744 60.0981 153.262 59.534C152.916 59.0762 152.599 58.549 152.329 58.0256C151.597 56.7004 151.223 55.3796 151.076 53.9093C150.932 52.7023 151.325 51.6572 151.7 50.539C152.138 49.2344 152.353 47.7209 153.068 46.5338C153.149 46.4206 153.412 46.4175 153.449 46.5638C153.449 46.5638 151.554 56.0275 153.708 58.1343C155.726 60.1348 156.67 58.1766 156.758 57.9684C156.695 58.4656 156.474 58.8308 156.251 59.2436C156.251 59.2436 156.251 59.2436 156.272 59.2692C156.316 59.3205 156.309 59.4156 156.279 59.485C156.173 59.6201 156.089 59.7808 155.982 59.9159C155.979 59.9635 155.953 59.9854 155.949 60.0329C155.945 60.0804 155.942 60.1279 155.912 60.1974C155.887 60.2193 155.887 60.2193 155.861 60.2411C155.762 60.2812 155.711 60.325 155.641 60.2956Z" fill="#CB2C1C"/>
<path opacity="0.09" d="M159.939 65.5365C158.903 65.933 157.769 66.3697 156.635 66.4954C155.428 66.6394 154.093 66.8927 152.849 66.8903C152.491 66.886 151.288 66.9824 151.084 66.5358C150.964 66.2394 151.202 65.9473 151.458 65.7284C151.979 64.8847 152.884 64.3343 153.627 63.6995C154.371 63.0646 155.078 62.2835 155.935 61.7293C156.363 61.4522 156.813 61.2008 157.289 60.9275L157.304 61.0482C157.304 61.0482 153.024 63.7714 154.03 65.2617C155.044 66.6569 159.672 65.5872 159.939 65.5365Z" fill="#CB2C1C"/>
<path d="M155.263 81.7639C155.166 80.5606 154.772 80.0991 153.739 79.5632C152.062 78.6896 151.926 77.0767 152.511 75.425C152.904 74.38 153.104 73.0566 152.664 71.9697C152.485 71.5013 152.168 70.9741 151.814 70.6114C151.792 70.5857 151.164 70.0579 150.737 69.7134C151.041 69.809 151.318 69.9266 151.596 70.0441C152.542 70.4775 153.617 70.8014 154.625 71.0483C155.517 71.2622 157.704 71.4346 157.721 70.0012C157.727 68.7104 155.59 67.92 154.595 67.7938C153.009 67.5969 150.708 67.6545 149.346 68.5515C149.303 68.5002 149.255 68.4964 149.211 68.4452C149.189 68.4195 149.164 68.4414 149.142 68.4158C149.069 68.1231 149.074 67.7647 149.019 67.5452C148.91 67.1062 148.776 66.6891 148.594 66.2682C148.255 65.4045 147.822 64.5334 147.385 63.7098C146.842 62.7104 145.499 61.2414 144.265 62.0289C143.284 62.645 144.031 64.0908 144.497 64.845C144.964 65.5992 145.632 66.2259 146.201 66.8925C146.529 67.2771 146.836 67.6361 147.216 67.9769C146.693 67.9356 146.214 67.9457 145.804 67.9851C144.209 68.1941 143.081 69.4681 141.356 68.9016C140.402 68.5633 139.336 67.5227 138.264 67.773C137.851 67.8599 136.888 68.2384 137.012 68.7981C137.084 69.0908 137.545 69.0076 137.447 68.7368C137.389 68.5648 138.373 68.212 138.494 68.1976C139.093 68.1732 139.933 68.7416 140.463 68.9986C141.128 69.3619 141.852 69.5864 142.598 69.5257C143.486 69.4762 144.197 68.9583 145.035 68.6418C145.748 68.3872 146.974 68.3165 147.939 68.5122C148.212 68.6772 148.439 68.8386 148.614 69.0437C148.723 69.1719 148.895 69.1137 148.976 69.0005C149.064 69.1031 149.162 69.0631 149.239 68.9974C149.444 69.1331 149.696 69.2725 149.952 69.3644C149.948 69.412 149.992 69.4633 150.014 69.4889C150.783 70.6496 152.183 71.0948 152.443 72.6458C152.685 74.1236 151.904 75.2337 151.7 76.6046C151.615 77.387 151.872 78.6746 152.448 79.2462C152.649 79.4294 153.066 79.6058 153.292 79.7671C154.209 80.2699 154.727 80.6695 154.809 81.752C154.875 82.1398 155.288 82.0528 155.263 81.7639ZM148.034 68.2088C147.965 68.1794 147.873 68.1244 147.83 68.0731C147.085 67.5122 146.549 66.7286 145.958 66.0363C145.542 65.5492 145.122 65.1096 144.783 64.5567C144.36 63.8538 143.87 62.189 145.346 62.5685C146.871 62.9518 147.419 64.7886 148.035 66.0806C148.319 66.7247 148.625 67.3945 148.711 68.1187C148.725 68.2394 148.74 68.3601 148.758 68.4333C148.48 68.3157 148.272 68.2276 148.034 68.2088ZM153.794 68.2566C154.415 68.2578 155.011 68.2809 155.588 68.5417C155.84 68.6811 156.136 68.8718 156.363 69.0332C156.907 69.4109 157.313 69.419 156.993 70.1351C156.431 71.5016 154.053 70.4292 152.978 70.1053C152.346 69.9359 151.794 69.6533 151.217 69.3925C150.753 69.2124 150.238 69.0761 149.799 68.8741C150.927 68.2218 152.576 68.2323 153.794 68.2566Z" fill="#F2DEC9"/>
<path d="M91.1133 92H76.6113L84.7852 44.9785L69.8877 49.1973L71.9092 37.4639L100.21 28.0156L101.836 27.9717L91.1133 92ZM129.697 53.8115L136.157 53.8555C138.794 53.7969 140.962 53.0352 142.661 51.5703C144.36 50.0762 145.371 47.9961 145.693 45.3301C145.928 43.3379 145.532 41.6973 144.507 40.4082C143.481 39.1191 141.943 38.46 139.893 38.4307C137.988 38.3721 136.304 38.8994 134.839 40.0127C133.374 41.126 132.437 42.6055 132.026 44.4512L117.524 44.5391C117.7 41.082 118.813 38.0205 120.864 35.3545C122.915 32.6885 125.64 30.6377 129.038 29.2021C132.466 27.7373 136.143 27.0195 140.068 27.0488C146.514 27.1953 151.582 28.8945 155.273 32.1465C158.965 35.3691 160.649 39.6758 160.327 45.0664C159.946 51.1016 156.006 55.877 148.506 59.3926C151.348 60.7988 153.472 62.7471 154.878 65.2373C156.284 67.7275 156.914 70.54 156.768 73.6748C156.562 77.6006 155.317 81.0283 153.032 83.958C150.747 86.8584 147.686 89.0996 143.848 90.6816C140.01 92.2344 135.894 92.9668 131.499 92.8789C127.661 92.8496 124.175 92.0439 121.04 90.4619C117.935 88.8506 115.547 86.6387 113.877 83.8262C112.207 81.0137 111.387 77.791 111.416 74.1582H125.83C125.859 76.2383 126.475 77.9521 127.676 79.2998C128.877 80.6475 130.562 81.3506 132.729 81.4092C135.161 81.4678 137.314 80.75 139.189 79.2559C141.064 77.7617 142.178 75.7988 142.529 73.3672C142.881 70.7598 142.485 68.7236 141.343 67.2588C140.229 65.7646 138.354 64.9736 135.718 64.8857L127.983 64.8418L129.697 53.8115Z" fill="#EF3829"/>
<path d="M91.1133 92V95H93.6527L94.0721 92.4955L91.1133 92ZM76.6113 92L73.6557 91.4862L73.0448 95H76.6113V92ZM84.7852 44.9785L87.7408 45.4923L88.5579 40.7922L83.9677 42.092L84.7852 44.9785ZM69.8877 49.1973L66.9313 48.6879L66.1226 53.3815L70.7051 52.0838L69.8877 49.1973ZM71.9092 37.4639L70.9592 34.6183L69.2574 35.1864L68.9527 36.9545L71.9092 37.4639ZM100.21 28.0156L100.129 25.0167L99.683 25.0288L99.26 25.17L100.21 28.0156ZM101.836 27.9717L104.795 28.4672L105.396 24.8744L101.755 24.9728L101.836 27.9717ZM91.1133 89H76.6113V95H91.1133V89ZM79.567 92.5138L87.7408 45.4923L81.8295 44.4647L73.6557 91.4862L79.567 92.5138ZM83.9677 42.092L69.0703 46.3108L70.7051 52.0838L85.6026 47.865L83.9677 42.092ZM72.8441 49.7066L74.8656 37.9732L68.9527 36.9545L66.9313 48.6879L72.8441 49.7066ZM72.8592 40.3095L101.16 30.8612L99.26 25.17L70.9592 34.6183L72.8592 40.3095ZM100.291 31.0145L101.917 30.9706L101.755 24.9728L100.129 25.0167L100.291 31.0145ZM98.8771 27.4762L88.1545 91.5045L94.0721 92.4955L104.795 28.4672L98.8771 27.4762ZM129.697 53.8115L129.718 50.8116L127.13 50.794L126.733 53.3509L129.697 53.8115ZM136.157 53.8555L136.137 56.8554L136.18 56.8557L136.224 56.8547L136.157 53.8555ZM142.661 51.5703L144.62 53.8425L144.631 53.8329L144.642 53.8232L142.661 51.5703ZM145.693 45.3301L148.672 45.6901L148.673 45.6806L145.693 45.3301ZM139.893 38.4307L139.8 41.4292L139.825 41.43L139.85 41.4304L139.893 38.4307ZM132.026 44.4512L132.045 47.4511L134.436 47.4366L134.955 45.102L132.026 44.4512ZM117.524 44.5391L114.528 44.3867L114.367 47.5583L117.543 47.539L117.524 44.5391ZM129.038 29.2021L130.205 31.9657L130.217 31.9608L129.038 29.2021ZM140.068 27.0488L140.137 24.0496L140.114 24.0491L140.091 24.0489L140.068 27.0488ZM155.273 32.1465L153.29 34.3976L153.3 34.4064L155.273 32.1465ZM160.327 45.0664L163.321 45.2554L163.322 45.2454L160.327 45.0664ZM148.506 59.3926L147.233 56.6762L141.594 59.3194L147.175 62.0814L148.506 59.3926ZM156.768 73.6748L159.763 73.8313L159.764 73.8231L159.764 73.8148L156.768 73.6748ZM153.032 83.958L155.389 85.8146L155.393 85.8089L155.398 85.8031L153.032 83.958ZM143.848 90.6816L144.973 93.4627L144.982 93.459L144.991 93.4552L143.848 90.6816ZM131.499 92.8789L131.559 89.8795L131.54 89.8791L131.522 89.879L131.499 92.8789ZM121.04 90.4619L119.658 93.1248L119.673 93.1326L119.688 93.1402L121.04 90.4619ZM111.416 74.1582V71.1582H108.44L108.416 74.134L111.416 74.1582ZM125.83 74.1582L128.83 74.116L128.788 71.1582H125.83V74.1582ZM132.729 81.4092L132.648 84.4081L132.657 84.4083L132.729 81.4092ZM142.529 73.3672L145.498 73.7965L145.5 73.7823L145.502 73.7681L142.529 73.3672ZM141.343 67.2588L138.937 69.0512L138.957 69.0778L138.977 69.1039L141.343 67.2588ZM135.718 64.8857L135.818 61.8874L135.776 61.886L135.735 61.8858L135.718 64.8857ZM127.983 64.8418L125.019 64.3812L124.484 67.822L127.966 67.8417L127.983 64.8418ZM129.677 56.8115L136.137 56.8554L136.178 50.8555L129.718 50.8116L129.677 56.8115ZM136.224 56.8547C139.429 56.7835 142.304 55.839 144.62 53.8425L140.702 49.2981C139.62 50.2313 138.159 50.8102 136.091 50.8562L136.224 56.8547ZM144.642 53.8232C146.995 51.7539 148.278 48.9438 148.672 45.6901L142.715 44.9701C142.464 47.0484 141.725 48.3984 140.68 49.3174L144.642 53.8232ZM148.673 45.6806C148.979 43.0789 148.483 40.5871 146.855 38.5406L142.159 42.2758C142.582 42.8074 142.877 43.5969 142.714 44.9796L148.673 45.6806ZM146.855 38.5406C145.135 36.3787 142.644 35.4697 139.935 35.431L139.85 41.4304C141.242 41.4503 141.828 41.8596 142.159 42.2758L146.855 38.5406ZM139.985 35.4321C137.42 35.3532 135.056 36.0794 133.024 37.6242L136.654 42.4012C137.551 41.7195 138.557 41.391 139.8 41.4292L139.985 35.4321ZM133.024 37.6242C130.977 39.1796 129.657 41.2829 129.098 43.8004L134.955 45.102C135.216 43.928 135.771 43.0723 136.654 42.4012L133.024 37.6242ZM132.008 41.4512L117.506 41.5391L117.543 47.539L132.045 47.4511L132.008 41.4512ZM120.521 44.6914C120.666 41.8243 121.574 39.3517 123.242 37.1836L118.486 33.5254C116.053 36.6893 114.734 40.3398 114.528 44.3867L120.521 44.6914ZM123.242 37.1836C124.947 34.9674 127.237 33.2196 130.205 31.9657L127.871 26.4386C124.042 28.0558 120.883 30.4096 118.486 33.5254L123.242 37.1836ZM130.217 31.9608C133.245 30.6667 136.511 30.0224 140.046 30.0487L140.091 24.0489C135.775 24.0167 131.687 24.8079 127.859 26.4435L130.217 31.9608ZM140 30.0481C145.961 30.1835 150.275 31.7413 153.29 34.3976L157.257 29.8954C152.889 26.0478 147.066 24.2071 140.137 24.0496L140 30.0481ZM153.3 34.4064C156.214 36.95 157.606 40.3155 157.332 44.8874L163.322 45.2454C163.693 39.036 161.716 33.7883 157.246 29.8865L153.3 34.4064ZM157.333 44.8775C157.046 49.4254 154.158 53.4299 147.233 56.6762L149.779 62.109C157.854 58.324 162.846 52.7777 163.321 45.2554L157.333 44.8775ZM147.175 62.0814C149.539 63.251 151.187 64.8025 152.266 66.7125L157.49 63.7621C155.756 60.6917 153.156 58.3467 149.836 56.7038L147.175 62.0814ZM152.266 66.7125C153.368 68.6639 153.894 70.907 153.771 73.5348L159.764 73.8148C159.934 70.1731 159.201 66.7912 157.49 63.7621L152.266 66.7125ZM153.772 73.5183C153.597 76.8676 152.551 79.6971 150.667 82.1129L155.398 85.8031C158.084 82.3595 159.528 78.3335 159.763 73.8313L153.772 73.5183ZM150.676 82.1014C148.748 84.5487 146.126 86.4976 142.704 87.908L144.991 93.4552C149.245 91.7017 152.747 89.1681 155.389 85.8146L150.676 82.1014ZM142.723 87.9006C139.284 89.2919 135.573 89.9598 131.559 89.8795L131.439 95.8783C136.214 95.9738 140.736 95.1768 144.973 93.4627L142.723 87.9006ZM131.522 89.879C128.102 89.8529 125.077 89.1388 122.392 87.7837L119.688 93.1402C123.273 94.9491 127.22 95.8463 131.476 95.8788L131.522 89.879ZM122.422 87.799C119.777 86.4269 117.82 84.5918 116.457 82.2946L111.297 85.3578C113.273 88.6856 116.092 91.2743 119.658 93.1248L122.422 87.799ZM116.457 82.2946C115.096 80.0034 114.391 77.3303 114.416 74.1824L108.416 74.134C108.383 78.2518 109.318 82.0239 111.297 85.3578L116.457 82.2946ZM111.416 77.1582H125.83V71.1582H111.416V77.1582ZM122.83 74.2005C122.868 76.8854 123.683 79.3285 125.436 81.2959L129.915 77.3037C129.267 76.5758 128.851 75.5911 128.83 74.116L122.83 74.2005ZM125.436 81.2959C127.297 83.3838 129.833 84.332 132.648 84.4081L132.811 78.4103C131.29 78.3692 130.457 77.9112 129.915 77.3037L125.436 81.2959ZM132.657 84.4083C135.782 84.4836 138.625 83.5419 141.059 81.602L137.32 76.9097C136.004 77.9581 134.541 78.452 132.802 78.4101L132.657 84.4083ZM141.059 81.602C143.547 79.6192 145.041 76.9629 145.498 73.7965L139.56 72.9379C139.315 74.6347 138.582 75.9042 137.32 76.9097L141.059 81.602ZM145.502 73.7681C145.916 70.6983 145.524 67.741 143.708 65.4137L138.977 69.1039C139.447 69.7062 139.845 70.8212 139.556 72.9663L145.502 73.7681ZM143.748 65.4663C141.89 62.9719 138.969 61.9924 135.818 61.8874L135.618 67.8841C137.74 67.9548 138.569 68.5574 138.937 69.0512L143.748 65.4663ZM135.735 61.8858L128 61.8418L127.966 67.8417L135.701 67.8857L135.735 61.8858ZM130.948 65.3024L132.662 54.2721L126.733 53.3509L125.019 64.3812L130.948 65.3024Z" fill="#EF3829"/>
<path d="M232.034 61.7504C231.625 61.7504 231.216 61.7504 230.807 61.6141C230.534 61.2051 230.398 60.9325 230.125 60.5235C225.217 52.2073 225.899 40.3465 233.533 41.0281C237.351 41.4371 237.214 47.0267 237.76 49.208C239.941 48.6627 245.258 46.2087 247.439 49.3443C251.665 55.6155 241.577 62.0231 232.034 61.7504Z" fill="#EF3829"/>
</g>
<defs>
<filter id="filter0_f" x="23" y="81" width="156" height="26" filterUnits="userSpaceOnUse" color-interpolation-filters="sRGB">
<feFlood flood-opacity="0" result="BackgroundImageFix"/>
<feBlend mode="normal" in="SourceGraphic" in2="BackgroundImageFix" result="shape"/>
<feGaussianBlur stdDeviation="5" result="effect1_foregroundBlur"/>
</filter>
<clipPath id="clip0">
<rect width="277" height="105.82" fill="white"/>
</clipPath>
<clipPath id="clip1">
<rect width="26.9138" height="21.1142" fill="white" transform="translate(109.601 -0.861328) rotate(31.6292)"/>
</clipPath>
<clipPath id="clip2">
<rect width="42.7637" height="49.205" fill="white" transform="translate(22 57.0625)"/>
</clipPath>
</defs>
</svg>
