<svg width="277" height="106" viewBox="0 0 277 106" fill="none" xmlns="http://www.w3.org/2000/svg">
<g clip-path="url(#clip0)">
<g filter="url(#filter0_f)">
<ellipse cx="90" cy="94" rx="68" ry="3" fill="#C4C4C4" fill-opacity="0.5"/>
</g>
<path d="M198.71 87.3779C197.909 88.3154 196.742 89.043 195.209 89.5605C193.676 90.0684 191.977 90.3076 190.111 90.2783C188.324 90.2588 186.815 89.8096 185.585 88.9307C184.354 88.0518 183.476 86.8262 182.948 85.2539C182.421 83.6816 182.279 81.9092 182.523 79.9365L182.641 79.0576C183.09 75.7471 184.252 73.125 186.127 71.1914C188.012 69.2578 190.316 68.3154 193.041 68.3643C195.424 68.4033 197.255 69.043 198.534 70.2832C199.813 71.5234 200.526 73.3154 200.673 75.6592L195.868 75.6445C195.8 74.502 195.517 73.667 195.019 73.1396C194.53 72.6123 193.832 72.334 192.924 72.3047C191.576 72.2559 190.463 72.7881 189.584 73.9014C188.705 75.0049 188.104 76.5869 187.782 78.6475C187.509 80.4053 187.411 81.7725 187.489 82.749C187.636 85.1025 188.695 86.2939 190.668 86.3232C191.859 86.3428 192.904 86.0547 193.803 85.459L194.462 82.1338H190.99L191.605 78.6035H200.087L198.71 87.3779ZM206.356 90H201.347L205.053 68.6719H210.048L206.356 90ZM227.626 87.3779C226.825 88.3154 225.658 89.043 224.125 89.5605C222.592 90.0684 220.893 90.3076 219.027 90.2783C217.24 90.2588 215.731 89.8096 214.501 88.9307C213.271 88.0518 212.392 86.8262 211.864 85.2539C211.337 83.6816 211.195 81.9092 211.439 79.9365L211.557 79.0576C212.006 75.7471 213.168 73.125 215.043 71.1914C216.928 69.2578 219.232 68.3154 221.957 68.3643C224.34 68.4033 226.171 69.043 227.45 70.2832C228.729 71.5234 229.442 73.3154 229.589 75.6592L224.784 75.6445C224.716 74.502 224.433 73.667 223.935 73.1396C223.446 72.6123 222.748 72.334 221.84 72.3047C220.492 72.2559 219.379 72.7881 218.5 73.9014C217.621 75.0049 217.021 76.5869 216.698 78.6475C216.425 80.4053 216.327 81.7725 216.405 82.749C216.552 85.1025 217.611 86.2939 219.584 86.3232C220.775 86.3428 221.82 86.0547 222.719 85.459L223.378 82.1338H219.906L220.521 78.6035H229.003L227.626 87.3779ZM242.45 86.0156H235.639L233.749 90H228.227L239.521 68.6719H244.237L248.178 90H242.963L242.45 86.0156ZM237.514 82.0459H241.938L241 74.6924L237.514 82.0459ZM261.625 84.2285C261.84 83.125 261.244 82.2705 259.838 81.665L257.436 80.6689C254.066 79.1553 252.465 77.0947 252.631 74.4873C252.699 73.2959 253.109 72.2363 253.861 71.3086C254.613 70.3711 255.653 69.6436 256.981 69.126C258.31 68.6084 259.76 68.3594 261.332 68.3789C263.441 68.418 265.136 69.0332 266.415 70.2246C267.704 71.416 268.339 73.0127 268.319 75.0146H263.339C263.368 74.1943 263.192 73.54 262.812 73.0518C262.44 72.5537 261.825 72.2949 260.966 72.2754C260.126 72.2559 259.384 72.4512 258.739 72.8613C258.095 73.2715 257.714 73.8232 257.597 74.5166C257.411 75.4932 258.134 76.2939 259.765 76.9189C261.405 77.5439 262.597 78.0811 263.339 78.5303C265.673 79.9268 266.767 81.8115 266.62 84.1846C266.542 85.415 266.146 86.4941 265.434 87.4219C264.721 88.3496 263.729 89.0674 262.46 89.5752C261.2 90.083 259.784 90.3271 258.212 90.3076C257.06 90.2881 255.99 90.1074 255.004 89.7656C254.018 89.4238 253.173 88.9258 252.47 88.2715C251.044 86.9531 250.36 85.2197 250.419 83.0713L255.443 83.0859C255.385 84.1797 255.595 85.0098 256.073 85.5762C256.552 86.1328 257.357 86.4111 258.49 86.4111C259.33 86.4111 260.028 86.2207 260.585 85.8398C261.151 85.4492 261.498 84.9121 261.625 84.2285Z" fill="#BBBBBB"/>
<path d="M61.1133 91H46.6113L54.7852 43.9785L39.8877 48.1973L41.9092 36.4639L70.21 27.0156L71.8359 26.9717L61.1133 91ZM86.2939 59.5352L95.1709 27.0156H131.646L129.8 38.5293H105.322L101.411 51.3174C103.784 49.7939 106.729 49.0029 110.244 48.9443C115.869 48.9443 120.19 50.8926 123.208 54.7891C126.255 58.6855 127.515 63.7832 126.987 70.082C126.46 76.5859 123.926 81.8887 119.385 85.9902C114.844 90.0625 109.351 92.04 102.905 91.9229C99.126 91.835 95.6836 90.9561 92.5781 89.2861C89.502 87.6162 87.1143 85.3457 85.415 82.4746C83.7158 79.5742 82.8809 76.3369 82.9102 72.7627H97.3242C97.3828 75.0479 97.9541 76.8789 99.0381 78.2559C100.122 79.6328 101.646 80.3506 103.608 80.4092C106.011 80.4971 108.003 79.6035 109.585 77.7285C111.167 75.8242 112.178 72.9385 112.617 69.0713C112.91 65.8193 112.471 63.3584 111.299 61.6885C110.127 59.9893 108.296 59.1396 105.806 59.1396C102.612 59.1396 100.02 60.2236 98.0273 62.3916L86.2939 59.5352ZM153.53 91.8789C149.897 91.791 146.719 90.9414 143.994 89.3301C141.299 87.6895 139.219 85.3018 137.754 82.167C136.289 79.0029 135.498 75.4141 135.381 71.4004C135.293 69.2324 135.381 67.0498 135.645 64.8525L137.314 53.6904C138.662 44.6963 141.548 37.8262 145.972 33.0801C150.396 28.3047 156.035 25.9902 162.891 26.1367C168.457 26.2539 172.808 28.1289 175.942 31.7617C179.106 35.3945 180.806 40.3457 181.04 46.6152C181.099 48.7832 180.996 50.9658 180.732 53.1631L178.975 64.5449C177.568 73.6562 174.653 80.5264 170.229 85.1553C165.835 89.7842 160.269 92.0254 153.53 91.8789ZM166.582 51.1855C166.846 49.1348 166.992 47.333 167.021 45.7803C167.021 40.4189 165.322 37.6504 161.924 37.4746C156.709 37.2109 153.472 41.6787 152.212 50.8779L149.883 66.6982C149.59 69.1299 149.443 70.9316 149.443 72.1035C149.297 77.5234 150.981 80.3359 154.497 80.541C159.8 80.8047 163.066 76.2197 164.297 66.7861L166.582 51.1855Z" fill="#EF3829"/>
<path d="M61.1133 91V94H63.6527L64.0721 91.4955L61.1133 91ZM46.6113 91L43.6557 90.4862L43.0448 94H46.6113V91ZM54.7852 43.9785L57.7408 44.4923L58.5579 39.7922L53.9677 41.092L54.7852 43.9785ZM39.8877 48.1973L36.9313 47.6879L36.1226 52.3815L40.7051 51.0838L39.8877 48.1973ZM41.9092 36.4639L40.9592 33.6183L39.2574 34.1864L38.9527 35.9545L41.9092 36.4639ZM70.21 27.0156L70.1289 24.0167L69.683 24.0288L69.26 24.17L70.21 27.0156ZM71.8359 26.9717L74.7947 27.4672L75.3964 23.8744L71.7549 23.9728L71.8359 26.9717ZM61.1133 88H46.6113V94H61.1133V88ZM49.567 91.5138L57.7408 44.4923L51.8295 43.4647L43.6557 90.4862L49.567 91.5138ZM53.9677 41.092L39.0703 45.3108L40.7051 51.0838L55.6026 46.865L53.9677 41.092ZM42.8441 48.7066L44.8656 36.9732L38.9527 35.9545L36.9313 47.6879L42.8441 48.7066ZM42.8592 39.3095L71.16 29.8612L69.26 24.17L40.9592 33.6183L42.8592 39.3095ZM70.291 30.0145L71.917 29.9706L71.7549 23.9728L70.1289 24.0167L70.291 30.0145ZM68.8771 26.4762L58.1545 90.5045L64.0721 91.4955L74.7947 27.4672L68.8771 26.4762ZM86.2939 59.5352L83.3998 58.7451L82.5876 61.7205L85.5843 62.45L86.2939 59.5352ZM95.1709 27.0156V24.0156H92.8801L92.2768 26.2256L95.1709 27.0156ZM131.646 27.0156L134.608 27.4905L135.165 24.0156H131.646V27.0156ZM129.8 38.5293V41.5293H132.357L132.762 39.0042L129.8 38.5293ZM105.322 38.5293V35.5293H103.103L102.453 37.6519L105.322 38.5293ZM101.411 51.3174L98.5423 50.44L96.1508 58.2594L103.032 53.8419L101.411 51.3174ZM110.244 48.9443V45.9443H110.219L110.194 45.9448L110.244 48.9443ZM123.208 54.7891L120.836 56.626L120.845 56.637L123.208 54.7891ZM126.987 70.082L123.998 69.8317L123.997 69.8396L126.987 70.082ZM119.385 85.9902L121.388 88.2237L121.396 88.2165L119.385 85.9902ZM102.905 91.9229L102.836 94.922L102.843 94.9222L102.851 94.9224L102.905 91.9229ZM92.5781 89.2861L91.1468 91.9227L91.1573 91.9283L92.5781 89.2861ZM85.415 82.4746L82.8265 83.9911L82.8333 84.0026L85.415 82.4746ZM82.9102 72.7627V69.7627H79.9346L79.9103 72.7381L82.9102 72.7627ZM97.3242 72.7627L100.323 72.6858L100.248 69.7627H97.3242V72.7627ZM103.608 80.4092L103.718 77.4112L103.708 77.4108L103.698 77.4105L103.608 80.4092ZM109.585 77.7285L111.878 79.6631L111.885 79.6544L111.893 79.6456L109.585 77.7285ZM112.617 69.0713L115.598 69.41L115.602 69.3753L115.605 69.3405L112.617 69.0713ZM111.299 61.6885L108.829 63.3917L108.836 63.4017L108.843 63.4118L111.299 61.6885ZM98.0273 62.3916L97.3177 65.3065L99.0382 65.7253L100.236 64.4215L98.0273 62.3916ZM89.1881 60.3252L98.065 27.8056L92.2768 26.2256L83.3998 58.7451L89.1881 60.3252ZM95.1709 30.0156H131.646V24.0156H95.1709V30.0156ZM128.683 26.5408L126.838 38.0544L132.762 39.0042L134.608 27.4905L128.683 26.5408ZM129.8 35.5293H105.322V41.5293H129.8V35.5293ZM102.453 37.6519L98.5423 50.44L104.28 52.1948L108.191 39.4067L102.453 37.6519ZM103.032 53.8419C104.832 52.686 107.199 51.9955 110.294 51.9439L110.194 45.9448C106.258 46.0104 102.736 46.9019 99.7904 48.7928L103.032 53.8419ZM110.244 51.9443C115.09 51.9443 118.472 53.5733 120.836 56.6259L125.58 52.9522C121.909 48.2118 116.648 45.9443 110.244 45.9443V51.9443ZM120.845 56.637C123.307 59.7862 124.48 64.0693 123.998 69.8317L129.977 70.3323C130.549 63.4971 129.203 57.5849 125.571 52.9411L120.845 56.637ZM123.997 69.8396C123.527 75.6371 121.308 80.2109 117.374 83.7639L121.396 88.2165C126.544 83.5665 129.393 77.5348 129.977 70.3245L123.997 69.8396ZM117.382 83.7568C113.44 87.2921 108.695 89.0276 102.96 88.9233L102.851 94.9224C110.007 95.0525 116.248 92.8329 121.388 88.2237L117.382 83.7568ZM102.975 88.9237C99.633 88.8459 96.6588 88.0742 93.9989 86.6439L91.1573 91.9283C94.7084 93.8379 98.6189 94.824 102.836 94.922L102.975 88.9237ZM94.0094 86.6496C91.3854 85.2251 89.4059 83.3276 87.9968 80.9466L82.8333 84.0026C84.8226 87.3638 87.6185 90.0073 91.1468 91.9227L94.0094 86.6496ZM88.0035 80.9581C86.5955 78.5547 85.8849 75.8557 85.9101 72.7873L79.9103 72.7381C79.8768 76.8181 80.8362 80.5937 82.8266 83.9911L88.0035 80.9581ZM82.9102 75.7627H97.3242V69.7627H82.9102V75.7627ZM94.3252 72.8396C94.3953 75.5745 95.0901 78.0908 96.6809 80.1115L101.395 76.4002C100.818 75.667 100.37 74.5212 100.323 72.6858L94.3252 72.8396ZM96.6809 80.1115C98.3847 82.2759 100.789 83.3263 103.519 83.4078L103.698 77.4105C102.502 77.3748 101.859 76.9897 101.395 76.4002L96.6809 80.1115ZM103.499 83.4072C106.845 83.5296 109.715 82.2262 111.878 79.6631L107.292 75.7939C106.291 76.9809 105.177 77.4646 103.718 77.4112L103.499 83.4072ZM111.893 79.6456C114.005 77.1029 115.127 73.5524 115.598 69.41L109.636 68.7326C109.228 72.3246 108.329 74.5456 107.277 75.8115L111.893 79.6456ZM115.605 69.3405C115.926 65.7808 115.516 62.4753 113.754 59.9652L108.843 63.4118C109.425 64.2415 109.895 65.8579 109.629 68.8021L115.605 69.3405ZM113.768 59.9853C111.917 57.3001 109.05 56.1396 105.806 56.1396V62.1396C107.542 62.1396 108.337 62.6784 108.829 63.3917L113.768 59.9853ZM105.806 56.1396C101.852 56.1396 98.4303 57.5193 95.8184 60.3617L100.236 64.4215C101.609 62.9279 103.373 62.1396 105.806 62.1396V56.1396ZM98.737 59.4767L87.0036 56.6203L85.5843 62.45L97.3177 65.3065L98.737 59.4767ZM153.53 91.8789L153.458 94.878L153.465 94.8782L153.53 91.8789ZM143.994 89.3301L142.434 91.8927L142.451 91.9026L142.467 91.9123L143.994 89.3301ZM137.754 82.167L135.031 83.4274L135.036 83.437L137.754 82.167ZM135.381 71.4004L138.38 71.3128L138.379 71.2958L138.378 71.2789L135.381 71.4004ZM135.645 64.8525L132.678 64.4087L132.671 64.4518L132.666 64.4951L135.645 64.8525ZM137.314 53.6904L134.348 53.2459L134.347 53.2466L137.314 53.6904ZM145.972 33.0801L148.166 35.1256L148.172 35.1188L145.972 33.0801ZM162.891 26.1367L162.827 29.136L162.827 29.1361L162.891 26.1367ZM175.942 31.7617L173.671 33.7216L173.68 33.7321L175.942 31.7617ZM181.04 46.6152L184.039 46.5342L184.039 46.5187L184.038 46.5032L181.04 46.6152ZM180.732 53.1631L183.697 53.621L183.705 53.5709L183.711 53.5205L180.732 53.1631ZM178.975 64.5449L176.01 64.087L176.01 64.0873L178.975 64.5449ZM170.229 85.1553L168.061 83.0825L168.054 83.0897L170.229 85.1553ZM166.582 51.1855L169.55 51.6203L169.554 51.5943L169.558 51.5681L166.582 51.1855ZM167.021 45.7803L170.021 45.8369L170.021 45.8086V45.7803H167.021ZM161.924 37.4746L162.079 34.4786L162.075 34.4784L161.924 37.4746ZM152.212 50.8779L155.18 51.3149L155.182 51.2999L155.184 51.285L152.212 50.8779ZM149.883 66.6982L146.915 66.2613L146.909 66.3003L146.904 66.3394L149.883 66.6982ZM149.443 72.1035L152.442 72.1846L152.443 72.144V72.1035H149.443ZM154.497 80.541L154.322 83.5359L154.335 83.5367L154.348 83.5373L154.497 80.541ZM164.297 66.7861L161.329 66.3513L161.325 66.3747L161.322 66.3981L164.297 66.7861ZM153.603 88.8798C150.406 88.8024 147.743 88.0617 145.521 86.7479L142.467 91.9123C145.695 93.8211 149.389 94.7796 153.458 94.878L153.603 88.8798ZM145.554 86.7675C143.412 85.4638 141.712 83.5501 140.472 80.8969L135.036 83.437C136.726 87.0534 139.186 89.9152 142.434 91.8927L145.554 86.7675ZM140.476 80.9066C139.206 78.1624 138.487 74.9819 138.38 71.3128L132.382 71.4879C132.509 75.8462 133.372 79.8434 135.032 83.4274L140.476 80.9066ZM138.378 71.2789C138.297 69.274 138.378 67.2515 138.623 65.21L132.666 64.4951C132.384 66.8481 132.289 69.1909 132.383 71.5219L138.378 71.2789ZM138.612 65.2964L140.281 54.1343L134.347 53.2466L132.678 64.4087L138.612 65.2964ZM140.281 54.135C141.574 45.5077 144.291 39.2828 148.166 35.1256L143.777 31.0346C138.804 36.3695 135.75 43.8848 134.348 53.2459L140.281 54.135ZM148.172 35.1188C151.979 31.0098 156.777 29.0068 162.827 29.136L162.955 23.1374C155.294 22.9737 148.812 25.5996 143.771 31.0413L148.172 35.1188ZM162.827 29.1361C167.694 29.2385 171.183 30.838 173.671 33.7216L178.214 29.8018C174.432 25.4198 169.22 23.2693 162.954 23.1374L162.827 29.1361ZM173.68 33.7321C176.273 36.7092 177.826 40.9337 178.042 46.7273L184.038 46.5032C183.786 39.7577 181.94 34.0798 178.205 29.7914L173.68 33.7321ZM178.041 46.6963C178.096 48.7148 178 50.7509 177.754 52.8057L183.711 53.5205C183.992 51.1808 184.102 48.8516 184.039 46.5342L178.041 46.6963ZM177.768 52.7052L176.01 64.087L181.939 65.0028L183.697 53.621L177.768 52.7052ZM176.01 64.0873C174.658 72.8473 171.911 79.054 168.061 83.0825L172.398 87.228C177.396 81.9987 180.479 74.4652 181.94 65.0025L176.01 64.0873ZM168.054 83.0897C164.277 87.0679 159.542 89.0089 153.595 88.8796L153.465 94.8782C160.995 95.0419 167.393 92.5005 172.405 87.2208L168.054 83.0897ZM169.558 51.5681C169.831 49.4422 169.989 47.5275 170.021 45.8369L164.022 45.7237C163.995 47.1386 163.861 48.8273 163.607 50.803L169.558 51.5681ZM170.021 45.7803C170.021 42.8682 169.575 40.1849 168.304 38.1136C166.909 35.8407 164.709 34.6147 162.079 34.4786L161.769 40.4706C162.537 40.5103 162.886 40.7565 163.19 41.2521C163.618 41.9494 164.021 43.331 164.021 45.7803H170.021ZM162.075 34.4784C158.387 34.2919 155.329 35.8673 153.155 38.8674C151.113 41.6864 149.896 45.6755 149.24 50.4709L155.184 51.285C155.787 46.8812 156.819 44.0368 158.014 42.3879C159.077 40.9203 160.246 40.3936 161.772 40.4708L162.075 34.4784ZM149.244 50.441L146.915 66.2613L152.851 67.1352L155.18 51.3149L149.244 50.441ZM146.904 66.3394C146.609 68.791 146.443 70.7418 146.443 72.1035H152.443C152.443 71.1214 152.571 69.4687 152.861 67.0571L146.904 66.3394ZM146.444 72.0225C146.365 74.9681 146.754 77.6994 148.023 79.8193C149.419 82.1492 151.661 83.3807 154.322 83.5359L154.672 77.5461C153.818 77.4963 153.46 77.219 153.171 76.7363C152.756 76.0438 152.375 74.6589 152.442 72.1846L146.444 72.0225ZM154.348 83.5373C158.093 83.7235 161.184 82.106 163.367 79.0408C165.419 76.1607 166.631 72.0839 167.272 67.1742L161.322 66.3981C160.732 70.922 159.695 73.8544 158.481 75.5593C157.398 77.0791 156.204 77.6222 154.646 77.5447L154.348 83.5373ZM167.265 67.2209L169.55 51.6203L163.614 50.7508L161.329 66.3513L167.265 67.2209Z" fill="#EF3829"/>
</g>
<defs>
<filter id="filter0_f" x="12" y="81" width="156" height="26" filterUnits="userSpaceOnUse" color-interpolation-filters="sRGB">
<feFlood flood-opacity="0" result="BackgroundImageFix"/>
<feBlend mode="normal" in="SourceGraphic" in2="BackgroundImageFix" result="shape"/>
<feGaussianBlur stdDeviation="5" result="effect1_foregroundBlur"/>
</filter>
<clipPath id="clip0">
<rect width="277" height="105.82" fill="white"/>
</clipPath>
</defs>
</svg>
