<svg width="277" height="106" viewBox="0 0 277 106" fill="none" xmlns="http://www.w3.org/2000/svg">
<g clip-path="url(#clip0)">
<g filter="url(#filter0_f)">
<ellipse cx="101" cy="94" rx="68" ry="3" fill="#C4C4C4" fill-opacity="0.5"/>
</g>
<path d="M58.1133 92H43.6113L51.7852 44.9785L36.8877 49.1973L38.9092 37.4639L67.21 28.0156L68.8359 27.9717L58.1133 92ZM83.2939 60.5352L92.1709 28.0156H128.646L126.8 39.5293H102.322L98.4111 52.3174C100.784 50.7939 103.729 50.0029 107.244 49.9443C112.869 49.9443 117.19 51.8926 120.208 55.7891C123.255 59.6855 124.515 64.7832 123.987 71.082C123.46 77.5859 120.926 82.8887 116.385 86.9902C111.844 91.0625 106.351 93.04 99.9053 92.9229C96.126 92.835 92.6836 91.9561 89.5781 90.2861C86.502 88.6162 84.1143 86.3457 82.415 83.4746C80.7158 80.5742 79.8809 77.3369 79.9102 73.7627H94.3242C94.3828 76.0479 94.9541 77.8789 96.0381 79.2559C97.1221 80.6328 98.6455 81.3506 100.608 81.4092C103.011 81.4971 105.003 80.6035 106.585 78.7285C108.167 76.8242 109.178 73.9385 109.617 70.0713C109.91 66.8193 109.471 64.3584 108.299 62.6885C107.127 60.9893 105.296 60.1396 102.806 60.1396C99.6123 60.1396 97.0195 61.2236 95.0273 63.3916L83.2939 60.5352ZM150.53 92.8789C146.897 92.791 143.719 91.9414 140.994 90.3301C138.299 88.6895 136.219 86.3018 134.754 83.167C133.289 80.0029 132.498 76.4141 132.381 72.4004C132.293 70.2324 132.381 68.0498 132.645 65.8525L134.314 54.6904C135.662 45.6963 138.548 38.8262 142.972 34.0801C147.396 29.3047 153.035 26.9902 159.891 27.1367C165.457 27.2539 169.808 29.1289 172.942 32.7617C176.106 36.3945 177.806 41.3457 178.04 47.6152C178.099 49.7832 177.996 51.9658 177.732 54.1631L175.975 65.5449C174.568 74.6562 171.653 81.5264 167.229 86.1553C162.835 90.7842 157.269 93.0254 150.53 92.8789ZM163.582 52.1855C163.846 50.1348 163.992 48.333 164.021 46.7803C164.021 41.4189 162.322 38.6504 158.924 38.4746C153.709 38.2109 150.472 42.6787 149.212 51.8779L146.883 67.6982C146.59 70.1299 146.443 71.9316 146.443 73.1035C146.297 78.5234 147.981 81.3359 151.497 81.541C156.8 81.8047 160.066 77.2197 161.297 67.7861L163.582 52.1855Z" fill="#EF3829"/>
<path d="M58.1133 92V95H60.6527L61.0721 92.4955L58.1133 92ZM43.6113 92L40.6557 91.4862L40.0448 95H43.6113V92ZM51.7852 44.9785L54.7408 45.4923L55.5579 40.7922L50.9677 42.092L51.7852 44.9785ZM36.8877 49.1973L33.9313 48.6879L33.1226 53.3815L37.7051 52.0838L36.8877 49.1973ZM38.9092 37.4639L37.9592 34.6183L36.2574 35.1864L35.9527 36.9545L38.9092 37.4639ZM67.21 28.0156L67.1289 25.0167L66.683 25.0288L66.26 25.17L67.21 28.0156ZM68.8359 27.9717L71.7947 28.4672L72.3964 24.8744L68.7549 24.9728L68.8359 27.9717ZM58.1133 89H43.6113V95H58.1133V89ZM46.567 92.5138L54.7408 45.4923L48.8295 44.4647L40.6557 91.4862L46.567 92.5138ZM50.9677 42.092L36.0703 46.3108L37.7051 52.0838L52.6026 47.865L50.9677 42.092ZM39.8441 49.7066L41.8656 37.9732L35.9527 36.9545L33.9313 48.6879L39.8441 49.7066ZM39.8592 40.3095L68.16 30.8612L66.26 25.17L37.9592 34.6183L39.8592 40.3095ZM67.291 31.0145L68.917 30.9706L68.7549 24.9728L67.1289 25.0167L67.291 31.0145ZM65.8771 27.4762L55.1545 91.5045L61.0721 92.4955L71.7947 28.4672L65.8771 27.4762ZM83.2939 60.5352L80.3998 59.7451L79.5876 62.7205L82.5843 63.45L83.2939 60.5352ZM92.1709 28.0156V25.0156H89.8801L89.2768 27.2256L92.1709 28.0156ZM128.646 28.0156L131.608 28.4905L132.165 25.0156H128.646V28.0156ZM126.8 39.5293V42.5293H129.357L129.762 40.0042L126.8 39.5293ZM102.322 39.5293V36.5293H100.103L99.4534 38.6519L102.322 39.5293ZM98.4111 52.3174L95.5423 51.44L93.1508 59.2594L100.032 54.8419L98.4111 52.3174ZM107.244 49.9443V46.9443H107.219L107.194 46.9448L107.244 49.9443ZM120.208 55.7891L117.836 57.626L117.845 57.637L120.208 55.7891ZM123.987 71.082L120.998 70.8317L120.997 70.8396L123.987 71.082ZM116.385 86.9902L118.388 89.2237L118.396 89.2165L116.385 86.9902ZM99.9053 92.9229L99.8355 95.922L99.8431 95.9222L99.8507 95.9224L99.9053 92.9229ZM89.5781 90.2861L88.1468 92.9227L88.1573 92.9283L89.5781 90.2861ZM82.415 83.4746L79.8265 84.9911L79.8333 85.0026L82.415 83.4746ZM79.9102 73.7627V70.7627H76.9346L76.9103 73.7381L79.9102 73.7627ZM94.3242 73.7627L97.3232 73.6858L97.2483 70.7627H94.3242V73.7627ZM100.608 81.4092L100.718 78.4112L100.708 78.4108L100.698 78.4105L100.608 81.4092ZM106.585 78.7285L108.878 80.6631L108.885 80.6544L108.893 80.6456L106.585 78.7285ZM109.617 70.0713L112.598 70.41L112.602 70.3753L112.605 70.3405L109.617 70.0713ZM108.299 62.6885L105.829 64.3917L105.836 64.4017L105.843 64.4118L108.299 62.6885ZM95.0273 63.3916L94.3177 66.3065L96.0382 66.7253L97.2363 65.4215L95.0273 63.3916ZM86.1881 61.3252L95.065 28.8056L89.2768 27.2256L80.3998 59.7451L86.1881 61.3252ZM92.1709 31.0156H128.646V25.0156H92.1709V31.0156ZM125.683 27.5408L123.838 39.0544L129.762 40.0042L131.608 28.4905L125.683 27.5408ZM126.8 36.5293H102.322V42.5293H126.8V36.5293ZM99.4534 38.6519L95.5423 51.44L101.28 53.1948L105.191 40.4067L99.4534 38.6519ZM100.032 54.8419C101.832 53.686 104.199 52.9955 107.294 52.9439L107.194 46.9448C103.258 47.0104 99.736 47.9019 96.7904 49.7928L100.032 54.8419ZM107.244 52.9443C112.09 52.9443 115.472 54.5733 117.836 57.6259L122.58 53.9522C118.909 49.2118 113.648 46.9443 107.244 46.9443V52.9443ZM117.845 57.637C120.307 60.7862 121.48 65.0693 120.998 70.8317L126.977 71.3323C127.549 64.4971 126.203 58.5849 122.571 53.9411L117.845 57.637ZM120.997 70.8396C120.527 76.6371 118.308 81.2109 114.374 84.7639L118.396 89.2165C123.544 84.5665 126.393 78.5348 126.977 71.3245L120.997 70.8396ZM114.382 84.7568C110.44 88.2921 105.695 90.0276 99.9598 89.9233L99.8507 95.9224C107.007 96.0525 113.248 93.8329 118.388 89.2237L114.382 84.7568ZM99.975 89.9237C96.633 89.8459 93.6588 89.0742 90.9989 87.6439L88.1573 92.9283C91.7084 94.8379 95.6189 95.824 99.8355 95.922L99.975 89.9237ZM91.0094 87.6496C88.3854 86.2251 86.4059 84.3276 84.9968 81.9466L79.8333 85.0026C81.8226 88.3638 84.6185 91.0073 88.1468 92.9227L91.0094 87.6496ZM85.0035 81.9581C83.5955 79.5547 82.8849 76.8557 82.9101 73.7873L76.9103 73.7381C76.8768 77.8181 77.8362 81.5937 79.8266 84.9911L85.0035 81.9581ZM79.9102 76.7627H94.3242V70.7627H79.9102V76.7627ZM91.3252 73.8396C91.3953 76.5745 92.0901 79.0908 93.6809 81.1115L98.3953 77.4002C97.8181 76.667 97.3703 75.5212 97.3232 73.6858L91.3252 73.8396ZM93.6809 81.1115C95.3847 83.2759 97.7887 84.3263 100.519 84.4078L100.698 78.4105C99.5023 78.3748 98.8594 77.9897 98.3953 77.4002L93.6809 81.1115ZM100.499 84.4072C103.845 84.5296 106.715 83.2262 108.878 80.6631L104.292 76.7939C103.291 77.9809 102.177 78.4646 100.718 78.4112L100.499 84.4072ZM108.893 80.6456C111.005 78.1029 112.127 74.5524 112.598 70.41L106.636 69.7326C106.228 73.3246 105.329 75.5456 104.277 76.8115L108.893 80.6456ZM112.605 70.3405C112.926 66.7808 112.516 63.4753 110.754 60.9652L105.843 64.4118C106.425 65.2415 106.895 66.8579 106.629 69.8021L112.605 70.3405ZM110.768 60.9853C108.917 58.3001 106.05 57.1396 102.806 57.1396V63.1396C104.542 63.1396 105.337 63.6784 105.829 64.3917L110.768 60.9853ZM102.806 57.1396C98.8521 57.1396 95.4303 58.5193 92.8184 61.3617L97.2363 65.4215C98.6088 63.9279 100.373 63.1396 102.806 63.1396V57.1396ZM95.737 60.4767L84.0036 57.6203L82.5843 63.45L94.3177 66.3065L95.737 60.4767ZM150.53 92.8789L150.458 95.878L150.465 95.8782L150.53 92.8789ZM140.994 90.3301L139.434 92.8927L139.451 92.9026L139.467 92.9123L140.994 90.3301ZM134.754 83.167L132.031 84.4274L132.036 84.437L134.754 83.167ZM132.381 72.4004L135.38 72.3128L135.379 72.2958L135.378 72.2789L132.381 72.4004ZM132.645 65.8525L129.678 65.4087L129.671 65.4518L129.666 65.4951L132.645 65.8525ZM134.314 54.6904L131.348 54.2459L131.347 54.2466L134.314 54.6904ZM142.972 34.0801L145.166 36.1256L145.172 36.1188L142.972 34.0801ZM159.891 27.1367L159.827 30.136L159.827 30.1361L159.891 27.1367ZM172.942 32.7617L170.671 34.7216L170.68 34.7321L172.942 32.7617ZM178.04 47.6152L181.039 47.5342L181.039 47.5187L181.038 47.5032L178.04 47.6152ZM177.732 54.1631L180.697 54.621L180.705 54.5709L180.711 54.5205L177.732 54.1631ZM175.975 65.5449L173.01 65.087L173.01 65.0873L175.975 65.5449ZM167.229 86.1553L165.061 84.0825L165.054 84.0897L167.229 86.1553ZM163.582 52.1855L166.55 52.6203L166.554 52.5943L166.558 52.5681L163.582 52.1855ZM164.021 46.7803L167.021 46.8369L167.021 46.8086V46.7803H164.021ZM158.924 38.4746L159.079 35.4786L159.075 35.4784L158.924 38.4746ZM149.212 51.8779L152.18 52.3149L152.182 52.2999L152.184 52.285L149.212 51.8779ZM146.883 67.6982L143.915 67.2613L143.909 67.3003L143.904 67.3394L146.883 67.6982ZM146.443 73.1035L149.442 73.1846L149.443 73.144V73.1035H146.443ZM151.497 81.541L151.322 84.5359L151.335 84.5367L151.348 84.5373L151.497 81.541ZM161.297 67.7861L158.329 67.3513L158.325 67.3747L158.322 67.3981L161.297 67.7861ZM150.603 89.8798C147.406 89.8024 144.743 89.0617 142.521 87.7479L139.467 92.9123C142.695 94.8211 146.389 95.7796 150.458 95.878L150.603 89.8798ZM142.554 87.7675C140.412 86.4638 138.712 84.5501 137.472 81.8969L132.036 84.437C133.726 88.0534 136.186 90.9152 139.434 92.8927L142.554 87.7675ZM137.476 81.9066C136.206 79.1624 135.487 75.9819 135.38 72.3128L129.382 72.4879C129.509 76.8462 130.372 80.8434 132.032 84.4274L137.476 81.9066ZM135.378 72.2789C135.297 70.274 135.378 68.2515 135.623 66.21L129.666 65.4951C129.384 67.8481 129.289 70.1909 129.383 72.5219L135.378 72.2789ZM135.612 66.2964L137.281 55.1343L131.347 54.2466L129.678 65.4087L135.612 66.2964ZM137.281 55.135C138.574 46.5077 141.291 40.2828 145.166 36.1256L140.777 32.0346C135.804 37.3695 132.75 44.8848 131.348 54.2459L137.281 55.135ZM145.172 36.1188C148.979 32.0098 153.777 30.0068 159.827 30.136L159.955 24.1374C152.294 23.9737 145.812 26.5996 140.771 32.0413L145.172 36.1188ZM159.827 30.1361C164.694 30.2385 168.183 31.838 170.671 34.7216L175.214 30.8018C171.432 26.4198 166.22 24.2693 159.954 24.1374L159.827 30.1361ZM170.68 34.7321C173.273 37.7092 174.826 41.9337 175.042 47.7273L181.038 47.5032C180.786 40.7577 178.94 35.0798 175.205 30.7914L170.68 34.7321ZM175.041 47.6963C175.096 49.7148 175 51.7509 174.754 53.8057L180.711 54.5205C180.992 52.1808 181.102 49.8516 181.039 47.5342L175.041 47.6963ZM174.768 53.7052L173.01 65.087L178.939 66.0028L180.697 54.621L174.768 53.7052ZM173.01 65.0873C171.658 73.8473 168.911 80.054 165.061 84.0825L169.398 88.228C174.396 82.9987 177.479 75.4652 178.94 66.0025L173.01 65.0873ZM165.054 84.0897C161.277 88.0679 156.542 90.0089 150.595 89.8796L150.465 95.8782C157.995 96.0419 164.393 93.5005 169.405 88.2208L165.054 84.0897ZM166.558 52.5681C166.831 50.4422 166.989 48.5275 167.021 46.8369L161.022 46.7237C160.995 48.1386 160.861 49.8273 160.607 51.803L166.558 52.5681ZM167.021 46.7803C167.021 43.8682 166.575 41.1849 165.304 39.1136C163.909 36.8407 161.709 35.6147 159.079 35.4786L158.769 41.4706C159.537 41.5103 159.886 41.7565 160.19 42.2521C160.618 42.9494 161.021 44.331 161.021 46.7803H167.021ZM159.075 35.4784C155.387 35.2919 152.329 36.8673 150.155 39.8674C148.113 42.6864 146.896 46.6755 146.24 51.4709L152.184 52.285C152.787 47.8812 153.819 45.0368 155.014 43.3879C156.077 41.9203 157.246 41.3936 158.772 41.4708L159.075 35.4784ZM146.244 51.441L143.915 67.2613L149.851 68.1352L152.18 52.3149L146.244 51.441ZM143.904 67.3394C143.609 69.791 143.443 71.7418 143.443 73.1035H149.443C149.443 72.1214 149.571 70.4687 149.861 68.0571L143.904 67.3394ZM143.444 73.0225C143.365 75.9681 143.754 78.6994 145.023 80.8193C146.419 83.1492 148.661 84.3807 151.322 84.5359L151.672 78.5461C150.818 78.4963 150.46 78.219 150.171 77.7363C149.756 77.0438 149.375 75.6589 149.442 73.1846L143.444 73.0225ZM151.348 84.5373C155.093 84.7235 158.184 83.106 160.367 80.0408C162.419 77.1607 163.631 73.0839 164.272 68.1742L158.322 67.3981C157.732 71.922 156.695 74.8544 155.481 76.5593C154.398 78.0791 153.204 78.6222 151.646 78.5447L151.348 84.5373ZM164.265 68.2209L166.55 52.6203L160.614 51.7508L158.329 67.3513L164.265 68.2209Z" fill="#EF3829"/>
<path d="M200.71 88.3779C199.909 89.3154 198.742 90.043 197.209 90.5605C195.676 91.0684 193.977 91.3076 192.111 91.2783C190.324 91.2588 188.815 90.8096 187.585 89.9307C186.354 89.0518 185.476 87.8262 184.948 86.2539C184.421 84.6816 184.279 82.9092 184.523 80.9365L184.641 80.0576C185.09 76.7471 186.252 74.125 188.127 72.1914C190.012 70.2578 192.316 69.3154 195.041 69.3643C197.424 69.4033 199.255 70.043 200.534 71.2832C201.813 72.5234 202.526 74.3154 202.673 76.6592L197.868 76.6445C197.8 75.502 197.517 74.667 197.019 74.1396C196.53 73.6123 195.832 73.334 194.924 73.3047C193.576 73.2559 192.463 73.7881 191.584 74.9014C190.705 76.0049 190.104 77.5869 189.782 79.6475C189.509 81.4053 189.411 82.7725 189.489 83.749C189.636 86.1025 190.695 87.2939 192.668 87.3232C193.859 87.3428 194.904 87.0547 195.803 86.459L196.462 83.1338H192.99L193.605 79.6035H202.087L200.71 88.3779ZM208.356 91H203.347L207.053 69.6719H212.048L208.356 91ZM229.626 88.3779C228.825 89.3154 227.658 90.043 226.125 90.5605C224.592 91.0684 222.893 91.3076 221.027 91.2783C219.24 91.2588 217.731 90.8096 216.501 89.9307C215.271 89.0518 214.392 87.8262 213.864 86.2539C213.337 84.6816 213.195 82.9092 213.439 80.9365L213.557 80.0576C214.006 76.7471 215.168 74.125 217.043 72.1914C218.928 70.2578 221.232 69.3154 223.957 69.3643C226.34 69.4033 228.171 70.043 229.45 71.2832C230.729 72.5234 231.442 74.3154 231.589 76.6592L226.784 76.6445C226.716 75.502 226.433 74.667 225.935 74.1396C225.446 73.6123 224.748 73.334 223.84 73.3047C222.492 73.2559 221.379 73.7881 220.5 74.9014C219.621 76.0049 219.021 77.5869 218.698 79.6475C218.425 81.4053 218.327 82.7725 218.405 83.749C218.552 86.1025 219.611 87.2939 221.584 87.3232C222.775 87.3428 223.82 87.0547 224.719 86.459L225.378 83.1338H221.906L222.521 79.6035H231.003L229.626 88.3779ZM244.45 87.0156H237.639L235.749 91H230.227L241.521 69.6719H246.237L250.178 91H244.963L244.45 87.0156ZM239.514 83.0459H243.938L243 75.6924L239.514 83.0459ZM263.625 85.2285C263.84 84.125 263.244 83.2705 261.838 82.665L259.436 81.6689C256.066 80.1553 254.465 78.0947 254.631 75.4873C254.699 74.2959 255.109 73.2363 255.861 72.3086C256.613 71.3711 257.653 70.6436 258.981 70.126C260.31 69.6084 261.76 69.3594 263.332 69.3789C265.441 69.418 267.136 70.0332 268.415 71.2246C269.704 72.416 270.339 74.0127 270.319 76.0146H265.339C265.368 75.1943 265.192 74.54 264.812 74.0518C264.44 73.5537 263.825 73.2949 262.966 73.2754C262.126 73.2559 261.384 73.4512 260.739 73.8613C260.095 74.2715 259.714 74.8232 259.597 75.5166C259.411 76.4932 260.134 77.2939 261.765 77.9189C263.405 78.5439 264.597 79.0811 265.339 79.5303C267.673 80.9268 268.767 82.8115 268.62 85.1846C268.542 86.415 268.146 87.4941 267.434 88.4219C266.721 89.3496 265.729 90.0674 264.46 90.5752C263.2 91.083 261.784 91.3271 260.212 91.3076C259.06 91.2881 257.99 91.1074 257.004 90.7656C256.018 90.4238 255.173 89.9258 254.47 89.2715C253.044 87.9531 252.36 86.2197 252.419 84.0713L257.443 84.0859C257.385 85.1797 257.595 86.0098 258.073 86.5762C258.552 87.1328 259.357 87.4111 260.49 87.4111C261.33 87.4111 262.028 87.2207 262.585 86.8398C263.151 86.4492 263.498 85.9121 263.625 85.2285Z" fill="url(#paint0_linear)"/>
<g clip-path="url(#clip1)">
<path d="M189.957 57.338C189.987 57.423 190.018 57.5081 189.987 57.5931C189.866 58.1175 189.699 58.5569 189.456 59.0388C189.077 59.7758 188.925 59.9742 188.409 60.6404C188.333 60.7537 188.226 60.853 188.12 60.9522C188.09 60.9947 188.029 61.0089 187.983 60.9947C187.908 60.9805 187.877 60.8955 187.862 60.8388C187.71 60.3427 187.528 59.8467 187.315 59.3789C186.936 58.5569 186.086 57.6215 185.539 56.8845C183.717 54.4183 183.414 54.1207 181 52.1506C181.38 52.0797 181.668 51.8246 181.972 51.612C182.26 51.4136 182.594 51.2719 182.867 51.0734C182.913 51.0451 182.958 51.0026 183.004 51.0026C183.277 50.9601 183.884 51.4561 184.127 51.5978C184.552 51.853 184.962 52.1081 185.372 52.3915C186.162 52.9301 186.162 52.916 186.86 53.5538C187.619 54.2341 187.513 54.1065 188.166 54.886C188.515 55.3112 188.849 55.7648 189.168 56.2041C189.335 56.4451 189.502 56.686 189.669 56.9128C189.729 57.0262 189.881 57.1821 189.957 57.338Z" fill="#00F0E9"/>
<path d="M181.836 56.7142C181.612 55.4629 181.238 54.249 180.827 53.0537C180.566 52.288 180.286 51.5223 179.95 50.7752C179.856 50.5884 179.781 50.4017 179.688 50.2336C179.632 50.1029 179.595 49.9908 179.445 49.9535C179.296 49.9348 178.96 50.1215 178.81 50.1776C178.381 50.327 177.708 50.4204 177.372 50.7192C177.055 50.9806 177.26 51.6717 177.298 52.0265C177.41 53.1844 177.578 54.3424 177.615 55.5003C177.652 56.6022 177.634 57.7227 177.615 58.8246C177.596 59.2168 177.634 59.609 177.596 60.0012C177.503 61.1031 177.671 60.4868 177.372 61.514C177.055 62.5412 177.129 62.2611 176.887 62.9334C176.719 63.4377 177.951 63.2509 178.175 63.2135C179.539 63.0268 180.939 62.8213 182.228 62.3918C182.303 62.3731 182.359 62.3544 182.415 62.2797C182.433 62.2424 182.452 62.2237 182.452 62.1864C182.209 59.1421 182.377 59.609 181.836 56.7142Z" fill="#00F0E9"/>
<path d="M176.55 29.6162C176.532 29.3547 176.457 29.1119 176.289 29.0746C176.214 29.0559 176.121 29.0559 176.046 29.0746C175.803 29.0932 175.561 29.1119 175.336 29.1493C175.206 29.1679 175.075 29.1866 174.963 29.2426C174.701 29.3547 174.72 29.5601 174.739 29.7469C174.813 30.2885 174.888 30.8488 174.963 31.3904C175.038 31.876 175.15 33.9117 176.289 33.5568C176.644 33.4448 176.588 33.0713 176.606 32.8471C176.625 32.4363 176.644 32.0254 176.644 31.6145C176.644 31.1476 176.606 30.6807 176.569 30.2138C176.55 30.1204 176.569 29.859 176.55 29.6162Z" fill="#163C5A"/>
<path d="M177.839 31.2033C177.764 31.7449 177.708 32.2865 177.634 32.8281C177.578 33.2577 177.428 33.8366 176.887 33.5565C176.812 33.5191 176.756 33.4818 176.7 33.4071C176.662 33.3511 176.662 33.2764 176.644 33.2017C176.569 32.5293 176.532 31.8383 176.513 31.1659C176.494 30.587 176.457 30.008 176.438 29.4291C176.438 29.3544 176.438 29.261 176.476 29.1863C176.55 29.0555 176.718 29.0182 176.868 29.0182C177.204 29.0182 177.764 28.9248 177.951 29.2983C178.045 29.5038 178.026 29.7466 177.988 29.9893C177.932 30.3815 177.876 30.7924 177.839 31.2033Z" fill="#20F2EC"/>
<path d="M179.016 29.056C178.661 29.0186 178.194 29.056 178.007 29.2427C177.82 29.4108 177.895 29.7283 177.858 29.9711C177.802 30.326 177.764 30.6995 177.708 31.0543C177.615 31.7827 177.54 32.5111 177.484 33.2208C177.484 33.3142 177.466 33.4262 177.522 33.5009C177.634 33.7064 177.876 33.725 178.082 33.6503C178.642 33.4822 178.922 32.2496 179.09 31.764C179.24 31.3345 179.37 30.8863 179.464 30.438C179.52 30.0458 179.875 29.3175 179.314 29.112C179.24 29.0933 179.128 29.056 179.016 29.056Z" fill="#163C5A"/>
<path d="M181.201 29.971C181.201 29.9523 181.182 29.9337 181.182 29.915C181.163 29.8776 181.126 29.859 181.089 29.8403C180.846 29.6909 180.584 29.5601 180.323 29.4294C180.248 29.3734 180.155 29.336 180.061 29.336C179.893 29.3174 179.744 29.4294 179.651 29.5601C179.483 29.7843 179.37 30.1204 179.277 30.3819C179.109 30.8675 178.978 31.3717 178.848 31.876C178.735 32.3616 178.53 32.8285 178.437 33.3141C178.418 33.3888 178.399 33.4635 178.455 33.5382C178.474 33.5755 178.53 33.6129 178.567 33.6315C178.754 33.7249 178.941 33.7996 179.146 33.837C179.202 33.8557 179.258 33.8557 179.296 33.837C179.333 33.8183 179.37 33.7996 179.389 33.7623C179.613 33.5195 179.763 33.2207 179.912 32.9405C180.211 32.3429 180.51 31.7453 180.809 31.1289C180.977 30.7741 181.145 30.4192 181.201 30.0457C181.201 30.027 181.201 29.9897 181.201 29.971Z" fill="#20F2EC"/>
<path d="M182.172 31.0168C182.284 30.774 182.359 30.5499 182.265 30.4378C182.209 30.3818 182.153 30.3444 182.079 30.3257C181.892 30.2324 181.705 30.139 181.518 30.0643C181.406 30.0269 181.313 29.9896 181.201 29.9896C180.958 29.9709 180.865 30.1577 180.79 30.3444C180.566 30.8487 180.342 31.3529 180.118 31.8572C179.912 32.3054 178.978 34.117 179.987 34.3224C180.304 34.3972 180.454 34.0423 180.584 33.8555C180.809 33.5194 181.033 33.1645 181.238 32.8097C181.481 32.3988 181.686 31.9879 181.892 31.5771C181.91 31.4463 182.06 31.2409 182.172 31.0168Z" fill="#163C5A"/>
<path d="M182.452 33.0334C182.116 33.4629 181.78 33.8925 181.425 34.322C181.163 34.6582 180.715 35.0878 180.416 34.5648C180.379 34.4901 180.342 34.4154 180.342 34.3407C180.342 34.266 180.379 34.1913 180.398 34.1353C180.678 33.519 181.014 32.9213 181.35 32.3237C181.63 31.8194 181.91 31.3152 182.191 30.8109C182.228 30.7362 182.265 30.6615 182.34 30.6241C182.471 30.5494 182.639 30.6055 182.77 30.6802C183.068 30.8483 183.591 31.0537 183.554 31.4646C183.535 31.6887 183.386 31.8941 183.236 32.0809C182.975 32.3984 182.714 32.7159 182.452 33.0334Z" fill="#20F2EC"/>
<path d="M184.581 31.8014C184.301 31.5773 183.89 31.3905 183.61 31.4466C183.367 31.5026 183.255 31.8014 183.106 32.0068C182.882 32.287 182.639 32.5671 182.415 32.866C181.966 33.4449 181.518 34.0239 181.089 34.6028C181.033 34.6775 180.977 34.7709 180.958 34.8643C180.939 35.1071 181.145 35.2378 181.35 35.2939C181.91 35.4246 182.788 34.5281 183.18 34.192C183.535 33.8931 183.871 33.5756 184.189 33.2395C184.469 32.9407 185.141 32.4924 184.768 32.0442C184.749 31.9508 184.675 31.8761 184.581 31.8014Z" fill="#163C5A"/>
<path d="M185.982 33.725C185.982 33.7063 186.001 33.6876 186.001 33.669C186.001 33.6316 185.982 33.5943 185.963 33.5569C185.833 33.2954 185.683 33.0527 185.534 32.8099C185.478 32.7352 185.422 32.6605 185.347 32.6044C185.216 32.511 185.029 32.5297 184.88 32.5858C184.619 32.6978 184.357 32.9219 184.133 33.09C183.741 33.4262 183.367 33.781 182.994 34.1546C182.639 34.5094 182.228 34.8082 181.892 35.1817C181.836 35.2378 181.78 35.2938 181.78 35.3872C181.78 35.4432 181.798 35.4806 181.836 35.5366C181.948 35.7047 182.079 35.8728 182.228 36.0222C182.265 36.0595 182.303 36.0969 182.359 36.1156C182.396 36.1156 182.433 36.1156 182.471 36.0969C182.788 36.0035 183.068 35.8354 183.349 35.6486C183.909 35.2938 184.469 34.9203 185.048 34.5654C185.366 34.36 185.702 34.1359 185.945 33.8371C185.945 33.781 185.963 33.7437 185.982 33.725Z" fill="#20F2EC"/>
<path d="M186.355 34.7141C186.561 34.546 186.729 34.378 186.692 34.2285C186.673 34.1538 186.636 34.0978 186.58 34.0418C186.449 33.8737 186.318 33.7056 186.187 33.5562C186.113 33.4815 186.038 33.3881 185.945 33.3321C185.739 33.22 185.571 33.3321 185.422 33.4628C184.992 33.8177 184.562 34.1725 184.133 34.5274C183.759 34.8449 182.116 36.0401 182.919 36.6751C183.18 36.8806 183.461 36.6378 183.647 36.5257C184.002 36.3203 184.357 36.0962 184.693 35.8721C185.085 35.6106 185.459 35.3491 185.832 35.0503C185.926 35.0129 186.15 34.8635 186.355 34.7141Z" fill="#163C5A"/>
<path d="M185.702 36.6568C185.198 36.8809 184.712 37.1237 184.208 37.3478C183.816 37.5345 183.237 37.7213 183.199 37.105C183.199 37.0303 183.199 36.9369 183.237 36.8809C183.274 36.8248 183.33 36.7688 183.386 36.7315C183.928 36.3019 184.469 35.9097 185.048 35.5362C185.534 35.2187 186.001 34.8825 186.468 34.5463C186.542 34.509 186.598 34.453 186.692 34.453C186.841 34.4343 186.972 34.565 187.047 34.6958C187.233 34.9759 187.607 35.4054 187.383 35.7603C187.252 35.9471 187.047 36.0591 186.822 36.1712C186.449 36.3206 186.075 36.4887 185.702 36.6568Z" fill="#20F2EC"/>
<path d="M188.148 36.5069C187.999 36.1894 187.719 35.8159 187.439 35.7598C187.196 35.7038 186.972 35.9279 186.748 36.0213C186.411 36.1707 186.094 36.3201 185.758 36.4882C185.104 36.8057 184.45 37.1232 183.797 37.4594C183.703 37.4967 183.629 37.5528 183.573 37.6275C183.461 37.8329 183.573 38.0383 183.741 38.1877C184.17 38.5613 185.384 38.1504 185.87 38.0197C186.318 37.9076 186.766 37.7769 187.196 37.6088C187.569 37.4594 188.391 37.366 188.26 36.787C188.242 36.7123 188.204 36.6189 188.148 36.5069Z" fill="#163C5A"/>
<path d="M188.559 38.8417C188.578 38.8231 188.578 38.8044 188.597 38.8044C188.615 38.767 188.615 38.7297 188.615 38.6923C188.615 38.4122 188.597 38.1134 188.559 37.8332C188.541 37.7399 188.541 37.6465 188.484 37.5718C188.41 37.4224 188.223 37.3477 188.074 37.3477C187.793 37.329 187.457 37.4037 187.177 37.4597C186.673 37.5718 186.187 37.7399 185.683 37.9079C185.216 38.076 184.712 38.1507 184.245 38.3375C184.17 38.3562 184.096 38.3935 184.058 38.4682C184.04 38.5056 184.04 38.5616 184.04 38.6176C184.058 38.8231 184.096 39.0285 184.17 39.2153C184.189 39.2713 184.208 39.3087 184.245 39.346C184.282 39.3647 184.32 39.3834 184.357 39.3834C184.675 39.4394 185.011 39.4207 185.328 39.3834C186.001 39.3087 186.654 39.2339 187.327 39.1592C187.719 39.1219 188.111 39.0659 188.466 38.9165C188.503 38.8791 188.522 38.8604 188.559 38.8417Z" fill="#20F2EC"/>
<path d="M188.186 40.2241C188.447 40.1868 188.69 40.1307 188.727 39.9813C188.746 39.9066 188.746 39.8319 188.727 39.7572C188.709 39.5518 188.671 39.3463 188.634 39.1409C188.615 39.0288 188.597 38.9168 188.541 38.8234C188.429 38.618 188.204 38.6366 188.018 38.6553C187.476 38.73 186.916 38.8234 186.374 38.8981C185.889 38.9728 183.853 39.1409 184.226 40.1121C184.338 40.4109 184.712 40.3548 184.936 40.3548C185.347 40.3548 185.758 40.3548 186.169 40.3362C186.636 40.3175 187.103 40.2801 187.569 40.2241C187.681 40.2428 187.943 40.2428 188.186 40.2241Z" fill="#163C5A"/>
<path d="M186.635 41.55C186.094 41.494 185.552 41.438 184.992 41.382C184.562 41.3446 183.965 41.1952 184.245 40.6536C184.282 40.5789 184.32 40.5228 184.394 40.4668C184.45 40.4295 184.525 40.4108 184.6 40.4108C185.272 40.3174 185.963 40.2614 186.635 40.2427C187.214 40.2054 187.793 40.168 188.372 40.1306C188.447 40.1306 188.54 40.112 188.615 40.1493C188.746 40.224 188.783 40.3921 188.783 40.5415C188.802 40.8777 188.895 41.438 188.54 41.6247C188.335 41.7368 188.092 41.6994 187.849 41.6808C187.457 41.6434 187.046 41.6061 186.635 41.55Z" fill="#20F2EC"/>
<path d="M188.821 42.6901C188.858 42.3352 188.802 41.8683 188.615 41.6816C188.428 41.4948 188.13 41.5882 187.887 41.5508C187.532 41.5135 187.158 41.4761 186.804 41.4388C186.075 41.3641 185.347 41.308 184.619 41.252C184.525 41.252 184.413 41.2333 184.338 41.2894C184.133 41.4014 184.133 41.6442 184.189 41.8497C184.376 42.3913 185.608 42.6527 186.113 42.8208C186.561 42.9515 186.99 43.0636 187.457 43.157C187.849 43.2317 188.597 43.5679 188.783 43.0076C188.783 42.9142 188.802 42.8021 188.821 42.6901Z" fill="#163C5A"/>
<path d="M187.943 44.893C187.962 44.893 187.98 44.8744 187.999 44.8744C188.036 44.8557 188.055 44.8183 188.074 44.781C188.223 44.5382 188.354 44.2767 188.466 44.0153C188.503 43.9219 188.54 43.8472 188.54 43.7538C188.54 43.5857 188.428 43.4363 188.298 43.3429C188.055 43.1935 187.737 43.0628 187.476 42.9881C186.99 42.82 186.486 42.7079 185.963 42.5959C185.478 42.4838 185.011 42.2971 184.506 42.2037C184.432 42.185 184.338 42.185 184.282 42.2224C184.245 42.2597 184.208 42.2971 184.189 42.3531C184.096 42.5398 184.04 42.7266 183.983 42.932C183.965 42.9881 183.965 43.0441 183.983 43.0815C184.002 43.1188 184.021 43.1562 184.058 43.1748C184.301 43.3989 184.6 43.5297 184.899 43.6791C185.515 43.9592 186.113 44.2394 186.729 44.5195C187.084 44.6876 187.439 44.8557 187.831 44.893C187.887 44.893 187.924 44.893 187.943 44.893Z" fill="#20F2EC"/>
<path d="M187.177 45.7144C187.42 45.7891 187.681 45.8265 187.756 45.6958C187.794 45.6397 187.831 45.565 187.85 45.4903C187.906 45.2849 187.962 45.0981 188.018 44.8927C188.036 44.7806 188.055 44.6686 188.055 44.5565C188.018 44.3137 187.831 44.2577 187.644 44.2017C187.102 44.0709 186.561 43.9215 186.038 43.7908C185.571 43.6787 183.629 43.0437 183.591 44.0709C183.573 44.3884 183.946 44.4818 184.152 44.5752C184.525 44.7433 184.917 44.8927 185.291 45.0421C185.72 45.2102 186.169 45.3596 186.617 45.4903C186.692 45.5464 186.934 45.6397 187.177 45.7144Z" fill="#163C5A"/>
<path d="M185.216 46.3314C184.731 46.0699 184.264 45.8085 183.778 45.547C183.405 45.3416 182.919 44.9867 183.386 44.5758C183.442 44.5198 183.517 44.4825 183.591 44.4638C183.666 44.4451 183.741 44.4638 183.815 44.4825C184.469 44.6692 185.123 44.8747 185.758 45.1175C186.299 45.3229 186.86 45.491 187.401 45.6777C187.476 45.6964 187.551 45.7338 187.607 45.7898C187.7 45.9019 187.663 46.0886 187.625 46.2194C187.513 46.5368 187.383 47.0971 186.972 47.1158C186.748 47.1345 186.523 47.0224 186.318 46.9104C185.944 46.7236 185.59 46.5368 185.216 46.3314Z" fill="#20F2EC"/>
<path d="M186.804 48.2177C186.972 47.9002 187.102 47.452 186.99 47.2092C186.897 46.9664 186.579 46.9291 186.355 46.7983C186.038 46.6116 185.72 46.4435 185.403 46.2754C184.768 45.9206 184.114 45.5844 183.461 45.2669C183.367 45.2295 183.274 45.1735 183.18 45.1922C182.938 45.2109 182.844 45.4537 182.826 45.6591C182.788 46.2381 183.815 46.9477 184.208 47.2839C184.562 47.5827 184.917 47.8629 185.31 48.1057C185.646 48.3298 186.206 48.9274 186.598 48.4792C186.673 48.4232 186.748 48.3298 186.804 48.2177Z" fill="#163C5A"/>
<path d="M185.142 49.9166C185.16 49.9166 185.179 49.9166 185.198 49.9166C185.235 49.9166 185.272 49.8792 185.291 49.8605C185.515 49.6924 185.739 49.5057 185.945 49.3002C186.019 49.2442 186.075 49.1695 186.113 49.0948C186.187 48.9454 186.15 48.7586 186.057 48.6279C185.907 48.3851 185.646 48.161 185.44 47.9742C185.048 47.6381 184.637 47.3392 184.208 47.0404C183.797 46.7603 183.442 46.4054 183.012 46.1253C182.956 46.0879 182.882 46.0319 182.807 46.0506C182.751 46.0693 182.714 46.0879 182.676 46.1253C182.527 46.256 182.377 46.4241 182.265 46.5922C182.228 46.6295 182.209 46.6856 182.209 46.7416C182.209 46.779 182.228 46.8163 182.247 46.8537C182.377 47.1525 182.602 47.3953 182.826 47.6381C183.274 48.1423 183.722 48.6279 184.17 49.1322C184.432 49.4123 184.693 49.7111 185.029 49.8979C185.085 49.8979 185.104 49.9166 185.142 49.9166Z" fill="#20F2EC"/>
<path d="M183.815 50.4403C183.984 50.6271 184.189 50.7951 184.32 50.7391C184.394 50.7204 184.45 50.6644 184.488 50.6084C184.637 50.4776 184.787 50.3282 184.936 50.1788C185.011 50.1041 185.085 50.0107 185.123 49.9174C185.216 49.6933 185.085 49.5438 184.955 49.3944C184.562 49.0022 184.17 48.61 183.778 48.2178C183.442 47.8817 182.097 46.3315 181.537 47.1906C181.35 47.4708 181.63 47.7323 181.761 47.919C182.004 48.2552 182.247 48.5914 182.489 48.9089C182.788 49.2824 183.087 49.6372 183.405 49.9734C183.498 50.0481 183.647 50.2535 183.815 50.4403Z" fill="#163C5A"/>
<path d="M181.817 49.9725C181.537 49.5056 181.275 49.02 180.995 48.5531C180.771 48.1796 180.547 47.6193 181.145 47.5259C181.219 47.5073 181.313 47.5073 181.369 47.5446C181.444 47.5633 181.481 47.6193 181.537 47.6753C182.004 48.1609 182.452 48.6839 182.882 49.2255C183.236 49.6737 183.629 50.1033 184.002 50.5515C184.058 50.6075 184.114 50.6822 184.114 50.7569C184.133 50.9063 184.021 51.0371 183.909 51.1304C183.647 51.3359 183.255 51.7468 182.882 51.56C182.676 51.4479 182.545 51.2425 182.433 51.0371C182.228 50.6822 182.023 50.3274 181.817 49.9725Z" fill="#20F2EC"/>
<path d="M182.191 52.3815C182.489 52.1947 182.844 51.8772 182.882 51.6157C182.919 51.3729 182.676 51.1488 182.545 50.9434C182.359 50.6259 182.191 50.3084 182.004 49.9909C181.63 49.3559 181.257 48.7396 180.865 48.1233C180.809 48.0486 180.752 47.9552 180.678 47.9179C180.472 47.8245 180.267 47.9552 180.136 48.1233C179.8 48.5902 180.323 49.7481 180.491 50.2337C180.64 50.6633 180.809 51.0928 181.014 51.5224C181.182 51.8959 181.35 52.699 181.91 52.5122C181.985 52.4935 182.097 52.4562 182.191 52.3815Z" fill="#163C5A"/>
<path d="M179.893 52.9984C179.912 53.017 179.931 53.017 179.949 53.0357C179.987 53.0544 180.024 53.0544 180.062 53.0357C180.342 52.9984 180.64 52.961 180.921 52.905C181.014 52.8863 181.107 52.8676 181.182 52.8116C181.313 52.7182 181.388 52.5315 181.369 52.3821C181.35 52.1019 181.257 51.7657 181.163 51.5043C180.995 51.0187 180.809 50.5331 180.584 50.0662C180.379 49.5993 180.248 49.1137 180.043 48.6655C180.006 48.5908 179.968 48.5161 179.893 48.4974C179.837 48.4787 179.8 48.4787 179.744 48.4974C179.539 48.5348 179.352 48.5908 179.146 48.6842C179.09 48.7028 179.053 48.7215 179.016 48.7775C178.997 48.8149 178.978 48.8523 178.978 48.8896C178.941 49.2071 179.016 49.5433 179.072 49.8608C179.202 50.5144 179.333 51.1681 179.464 51.8404C179.539 52.214 179.613 52.6062 179.8 52.9423C179.856 52.9423 179.875 52.9797 179.893 52.9984Z" fill="#20F2EC"/>
<path d="M178.829 52.9799C178.904 53.2227 178.997 53.4655 179.146 53.4655C179.221 53.4655 179.296 53.4468 179.352 53.4282C179.557 53.3721 179.744 53.3161 179.949 53.2414C180.062 53.204 180.155 53.1667 180.248 53.092C180.435 52.9426 180.379 52.7371 180.323 52.5504C180.155 52.0274 179.968 51.5045 179.8 50.9629C179.651 50.496 179.146 48.535 178.25 49.0393C177.97 49.2073 178.082 49.5622 178.119 49.7863C178.175 50.1972 178.25 50.6081 178.343 51.0003C178.437 51.4672 178.549 51.9154 178.68 52.3636C178.717 52.4757 178.754 52.7371 178.829 52.9799Z" fill="#163C5A"/>
<path d="M177.26 51.6537C177.223 51.1121 177.185 50.5518 177.148 50.0102C177.129 49.5807 177.167 48.983 177.746 49.1511C177.82 49.1698 177.895 49.2071 177.951 49.2632C178.007 49.3192 178.026 49.3939 178.044 49.4686C178.25 50.1223 178.418 50.7759 178.567 51.4483C178.698 52.0086 178.829 52.5689 178.978 53.1291C178.997 53.2039 179.016 53.2972 178.997 53.3719C178.96 53.5213 178.792 53.5774 178.642 53.6147C178.306 53.6894 177.783 53.8762 177.54 53.54C177.409 53.3533 177.391 53.1105 177.372 52.8677C177.316 52.4755 177.279 52.0646 177.26 51.6537Z" fill="#20F2EC"/>
<path d="M176.513 53.9878C176.868 53.9504 177.316 53.8384 177.466 53.6143C177.615 53.4088 177.484 53.11 177.466 52.8672C177.447 52.5124 177.428 52.1388 177.409 51.784C177.353 51.0556 177.297 50.3272 177.223 49.5989C177.204 49.5055 177.204 49.3934 177.148 49.3187C176.999 49.132 176.756 49.1693 176.569 49.2627C176.065 49.5428 176.009 50.7942 175.934 51.3171C175.878 51.7653 175.841 52.2322 175.822 52.6991C175.822 53.11 175.617 53.8944 176.196 53.9878C176.289 54.0065 176.401 54.0065 176.513 53.9878Z" fill="#163C5A"/>
<path d="M174.178 53.5215C174.178 53.5402 174.197 53.5588 174.216 53.5775C174.234 53.6149 174.272 53.6149 174.309 53.6335C174.589 53.7269 174.851 53.8203 175.131 53.895C175.224 53.9137 175.318 53.951 175.411 53.9324C175.579 53.9137 175.71 53.7829 175.766 53.6335C175.878 53.3721 175.934 53.0359 175.99 52.7558C176.065 52.2515 176.102 51.7286 176.121 51.2056C176.139 50.7014 176.252 50.2158 176.252 49.7115C176.252 49.6368 176.252 49.5434 176.195 49.4874C176.158 49.4501 176.102 49.4314 176.065 49.4127C175.859 49.3567 175.654 49.3193 175.448 49.3193C175.392 49.3193 175.336 49.3193 175.299 49.338C175.262 49.3567 175.243 49.394 175.224 49.4314C175.056 49.7115 174.963 50.029 174.869 50.3465C174.701 51.0002 174.515 51.6352 174.347 52.2888C174.253 52.6624 174.141 53.0359 174.16 53.4281C174.178 53.4468 174.178 53.4841 174.178 53.5215Z" fill="#20F2EC"/>
<path d="M173.039 52.6812C172.965 52.924 172.946 53.1854 173.058 53.2601C173.114 53.2975 173.189 53.3162 173.263 53.3348C173.469 53.3909 173.674 53.4469 173.88 53.4842C173.992 53.5029 174.104 53.5216 174.216 53.5029C174.459 53.4656 174.515 53.2601 174.552 53.0734C174.683 52.5318 174.795 51.9901 174.926 51.4485C175.038 50.9816 175.617 49.0206 174.589 49.002C174.272 49.002 174.179 49.3755 174.104 49.5809C173.954 49.9544 173.805 50.3466 173.656 50.7388C173.506 51.1871 173.357 51.6353 173.245 52.0835C173.189 52.1956 173.095 52.4384 173.039 52.6812Z" fill="#163C5A"/>
<path d="M172.367 50.7383C172.61 50.2528 172.871 49.7672 173.114 49.2816C173.319 48.9081 173.656 48.4038 174.066 48.852C174.122 48.9081 174.16 48.9828 174.178 49.0575C174.197 49.1322 174.178 49.2069 174.16 49.2816C173.992 49.9353 173.805 50.5889 173.581 51.2426C173.394 51.7842 173.226 52.3445 173.058 52.8861C173.039 52.9608 173.002 53.0355 172.946 53.0915C172.834 53.1849 172.666 53.1662 172.516 53.1102C172.199 52.9982 171.639 52.8861 171.601 52.4752C171.583 52.2511 171.695 52.027 171.788 51.8216C171.993 51.4667 172.18 51.0932 172.367 50.7383Z" fill="#20F2EC"/>
<path d="M170.518 52.3445C170.835 52.5125 171.284 52.6246 171.526 52.5125C171.769 52.4192 171.807 52.083 171.919 51.8776C172.087 51.5601 172.255 51.2426 172.423 50.9064C172.759 50.2527 173.077 49.5991 173.394 48.9454C173.431 48.852 173.469 48.7586 173.469 48.6653C173.431 48.4225 173.207 48.3291 173.002 48.3291C172.423 48.2917 171.732 49.3563 171.414 49.7671C171.134 50.122 170.854 50.4955 170.611 50.8877C170.387 51.2239 169.808 51.8029 170.256 52.1764C170.313 52.2324 170.406 52.3071 170.518 52.3445Z" fill="#163C5A"/>
<path d="M168.781 50.7392C168.781 50.7578 168.781 50.7765 168.781 50.7952C168.781 50.8325 168.818 50.8699 168.837 50.8886C169.024 51.1127 169.211 51.3368 169.416 51.5422C169.472 51.6169 169.547 51.673 169.64 51.7103C169.79 51.785 169.976 51.729 170.107 51.6356C170.331 51.4675 170.574 51.2061 170.742 51.0006C171.078 50.6084 171.358 50.1789 171.657 49.7493C171.937 49.3385 172.274 48.9649 172.554 48.5354C172.591 48.4793 172.628 48.4046 172.61 48.3299C172.591 48.2739 172.572 48.2366 172.535 48.1992C172.404 48.0498 172.236 47.9191 172.068 47.807C172.031 47.7697 171.975 47.751 171.919 47.751C171.881 47.751 171.844 47.7697 171.807 47.7883C171.508 47.9377 171.265 48.1619 171.041 48.386C170.555 48.8529 170.07 49.3198 169.584 49.768C169.304 50.0295 169.024 50.3096 168.837 50.6458C168.8 50.6831 168.781 50.7018 168.781 50.7392Z" fill="#20F2EC"/>
<path d="M168.277 49.7863C168.109 49.9918 167.978 50.1972 168.053 50.328C168.09 50.384 168.146 50.44 168.202 50.4774C168.37 50.6081 168.52 50.7388 168.706 50.8509C168.8 50.9069 168.893 50.9816 169.005 51.0003C169.229 51.0563 169.379 50.9069 169.491 50.7575C169.827 50.3093 170.163 49.8611 170.481 49.4315C170.779 49.0393 172.105 47.4892 171.172 47.0596C170.873 46.9289 170.649 47.2277 170.499 47.3771C170.201 47.6573 169.902 47.9561 169.622 48.2549C169.304 48.5911 168.987 48.9459 168.706 49.3194C168.613 49.4128 168.426 49.5809 168.277 49.7863Z" fill="#163C5A"/>
<path d="M168.445 47.7318C168.874 47.3956 169.304 47.0408 169.734 46.7046C170.07 46.4431 170.593 46.1257 170.779 46.7046C170.798 46.7793 170.817 46.854 170.798 46.9287C170.779 47.0034 170.742 47.0595 170.686 47.1155C170.275 47.6571 169.827 48.1614 169.36 48.6656C168.968 49.0952 168.594 49.5247 168.202 49.9543C168.146 50.0103 168.09 50.085 168.015 50.1037C167.866 50.1597 167.716 50.0477 167.604 49.9543C167.362 49.7302 166.895 49.394 167.025 49.0018C167.1 48.7777 167.287 48.6283 167.474 48.4789C167.81 48.2547 168.127 47.9933 168.445 47.7318Z" fill="#20F2EC"/>
<path d="M166.11 48.4604C166.335 48.7405 166.689 49.0206 166.97 49.0206C167.231 49.0206 167.399 48.7405 167.586 48.5911C167.866 48.367 168.165 48.1429 168.445 47.9187C169.005 47.4705 169.566 47.0036 170.126 46.518C170.201 46.462 170.275 46.3873 170.294 46.2939C170.369 46.0698 170.182 45.883 169.995 45.7897C169.472 45.5282 168.408 46.2192 167.959 46.4433C167.548 46.6488 167.156 46.8916 166.764 47.1343C166.428 47.3585 165.662 47.6386 165.924 48.1802C165.961 48.2923 166.017 48.367 166.11 48.4604Z" fill="#163C5A"/>
<path d="M165.158 46.2939C165.139 46.3126 165.139 46.3313 165.139 46.3499C165.139 46.3873 165.139 46.4246 165.158 46.462C165.233 46.7421 165.326 47.0223 165.419 47.2837C165.457 47.3771 165.494 47.4518 165.55 47.5265C165.662 47.6573 165.849 47.6759 166.017 47.6573C166.297 47.6012 166.615 47.4518 166.857 47.3398C167.324 47.1157 167.773 46.8355 168.202 46.5554C168.632 46.2939 169.08 46.0885 169.509 45.8083C169.565 45.771 169.64 45.7149 169.659 45.6402C169.677 45.5842 169.659 45.5469 169.64 45.4908C169.565 45.3041 169.491 45.1173 169.379 44.9305C169.36 44.8932 169.323 44.8372 169.267 44.8185C169.229 44.7998 169.192 44.7998 169.155 44.7998C168.837 44.8185 168.52 44.9305 168.202 45.0426C167.567 45.2667 166.932 45.4908 166.316 45.7149C165.942 45.8457 165.587 45.9764 165.27 46.2192C165.214 46.2379 165.177 46.2565 165.158 46.2939Z" fill="#20F2EC"/>
<path d="M165.195 44.8552C164.953 44.9485 164.728 45.0606 164.728 45.21C164.728 45.2847 164.747 45.3594 164.766 45.4154C164.84 45.6209 164.915 45.8076 164.99 45.9944C165.027 46.0878 165.083 46.1998 165.158 46.2745C165.326 46.4426 165.531 46.3866 165.7 46.3119C166.222 46.1065 166.727 45.901 167.25 45.6956C167.698 45.5088 169.64 44.8738 169.061 44.0147C168.875 43.7533 168.538 43.884 168.314 43.94C167.903 44.0334 167.511 44.1268 167.119 44.2388C166.671 44.3696 166.222 44.519 165.774 44.6684C165.681 44.7057 165.438 44.7804 165.195 44.8552Z" fill="#163C5A"/>
<path d="M166.409 43.1936C166.951 43.1189 167.492 43.0442 168.034 42.9695C168.464 42.9134 169.061 42.9134 168.93 43.5111C168.912 43.5858 168.893 43.6605 168.837 43.7165C168.781 43.7726 168.706 43.7912 168.65 43.8286C168.015 44.0714 167.362 44.2768 166.708 44.4822C166.148 44.6503 165.606 44.8184 165.046 45.0052C164.971 45.0239 164.878 45.0612 164.803 45.0425C164.654 45.0052 164.579 44.8371 164.542 44.7064C164.448 44.3889 164.224 43.8659 164.542 43.6045C164.71 43.4551 164.971 43.4177 165.195 43.3804C165.587 43.3056 165.998 43.2496 166.409 43.1936Z" fill="#20F2EC"/>
<path d="M164.019 42.6138C164.075 42.9687 164.224 43.3982 164.467 43.5476C164.691 43.6783 164.971 43.5289 165.214 43.5103C165.569 43.4729 165.942 43.4169 166.297 43.3795C167.026 43.2861 167.735 43.1741 168.464 43.0434C168.557 43.0247 168.65 43.006 168.725 42.95C168.893 42.8006 168.837 42.5578 168.725 42.371C168.426 41.8854 167.156 41.9228 166.633 41.8854C166.166 41.8481 165.718 41.8481 165.251 41.8668C164.84 41.8854 164.037 41.736 164 42.315C164 42.3897 164 42.5018 164.019 42.6138Z" fill="#163C5A"/>
<path d="M164.336 40.2612C164.317 40.2612 164.299 40.2798 164.28 40.2985C164.261 40.3359 164.243 40.3732 164.224 40.4106C164.149 40.6907 164.075 40.9708 164.019 41.251C164.019 41.3257 164 41.4191 164.019 41.5125C164.056 41.6805 164.187 41.7926 164.355 41.8486C164.616 41.942 164.971 41.9794 165.251 41.998C165.774 42.0354 166.278 42.0354 166.801 42.0167C167.306 41.998 167.791 42.0727 168.296 42.0541C168.37 42.0541 168.464 42.0354 168.501 41.9794C168.538 41.942 168.557 41.886 168.557 41.8486C168.594 41.6432 168.613 41.4378 168.613 41.2323C168.613 41.1763 168.613 41.1203 168.576 41.0829C168.557 41.0456 168.52 41.0269 168.482 41.0082C168.202 40.8588 167.866 40.7841 167.548 40.7281C166.895 40.5973 166.241 40.4666 165.569 40.3359C165.195 40.2612 164.803 40.1865 164.411 40.2238C164.411 40.2425 164.374 40.2425 164.336 40.2612Z" fill="#20F2EC"/>
<path d="M164.784 39.2895C164.523 39.2521 164.28 39.2708 164.205 39.4015C164.168 39.4575 164.168 39.5322 164.149 39.607C164.112 39.8124 164.112 40.0178 164.093 40.2233C164.093 40.3353 164.093 40.4474 164.112 40.5594C164.187 40.7836 164.392 40.8209 164.579 40.8396C165.139 40.8769 165.681 40.933 166.241 40.9703C166.727 41.0077 168.744 41.3065 168.613 40.2793C168.576 39.9618 168.202 39.9244 167.978 39.8684C167.586 39.775 167.175 39.6817 166.764 39.607C166.297 39.5136 165.849 39.4575 165.382 39.4015C165.27 39.3642 165.027 39.3081 164.784 39.2895Z" fill="#163C5A"/>
<path d="M166.596 38.338C167.119 38.5248 167.623 38.6929 168.146 38.8796C168.557 39.0104 169.099 39.2905 168.706 39.7574C168.65 39.8134 168.594 39.8695 168.52 39.9068C168.445 39.9255 168.37 39.9255 168.296 39.9255C167.623 39.8695 166.951 39.7574 166.279 39.6454C165.718 39.552 165.139 39.4586 164.56 39.3652C164.486 39.3465 164.392 39.3279 164.336 39.2905C164.224 39.1971 164.224 39.0104 164.261 38.861C164.318 38.5248 164.355 37.9645 164.747 37.8711C164.971 37.8151 165.214 37.8898 165.419 37.9645C165.812 38.0766 166.204 38.2073 166.596 38.338Z" fill="#20F2EC"/>
<path d="M164.728 36.7501C164.616 37.0863 164.56 37.5532 164.71 37.7773C164.84 38.0014 165.177 37.9827 165.401 38.0761C165.737 38.2068 166.092 38.3189 166.428 38.4309C167.119 38.6737 167.81 38.8792 168.501 39.1033C168.594 39.122 168.688 39.1593 168.781 39.1406C169.005 39.0846 169.061 38.8418 169.043 38.6177C168.987 38.0387 167.847 37.5158 167.399 37.2543C167.007 37.0116 166.596 36.8061 166.166 36.6194C165.793 36.4513 165.139 35.9657 164.84 36.4699C164.803 36.5447 164.766 36.638 164.728 36.7501Z" fill="#163C5A"/>
<path d="M165.961 34.7705C165.942 34.7705 165.924 34.7705 165.905 34.7892C165.868 34.8079 165.83 34.8452 165.812 34.8639C165.606 35.1067 165.419 35.3495 165.233 35.6109C165.177 35.6856 165.12 35.779 165.102 35.8724C165.064 36.0405 165.158 36.2273 165.289 36.358C165.513 36.5634 165.849 36.7502 166.11 36.8996C166.615 37.1611 167.138 37.3852 167.66 37.5906C168.165 37.796 168.632 38.0762 169.155 38.263C169.229 38.3003 169.323 38.319 169.397 38.2816C169.453 38.263 169.491 38.2069 169.509 38.1696C169.64 37.9828 169.752 37.796 169.846 37.5906C169.864 37.5346 169.883 37.4786 169.883 37.4225C169.883 37.3852 169.846 37.3478 169.827 37.3105C169.603 37.0303 169.304 36.8249 169.024 36.6194C168.426 36.2086 167.829 35.7977 167.231 35.3868C166.876 35.144 166.521 34.9012 166.129 34.7892C166.036 34.7705 165.998 34.7705 165.961 34.7705Z" fill="#20F2EC"/>
<path d="M167.754 33.6311C167.53 33.463 167.287 33.3323 167.138 33.4257C167.063 33.4817 167.007 33.5377 166.951 33.6124C166.783 33.7992 166.633 34.0046 166.503 34.2101C166.428 34.3221 166.353 34.4342 166.316 34.5649C166.241 34.8451 166.409 34.9758 166.577 35.1065C167.082 35.4427 167.567 35.7975 168.072 36.1337C168.501 36.4325 170.238 37.8146 170.78 36.694C170.948 36.3392 170.611 36.115 170.443 35.947C170.126 35.6295 169.808 35.3306 169.472 35.0318C169.099 34.6956 168.688 34.3782 168.296 34.0607C168.184 33.986 167.978 33.7992 167.754 33.6311Z" fill="#163C5A"/>
<path d="M169.995 33.7056C170.369 34.1539 170.761 34.6208 171.134 35.069C171.433 35.4239 171.788 35.9841 171.134 36.2269C171.06 36.2643 170.966 36.283 170.873 36.2643C170.798 36.2456 170.723 36.2083 170.667 36.1522C170.07 35.7227 169.491 35.2371 168.931 34.7515C168.464 34.3406 167.959 33.9484 167.492 33.5376C167.418 33.4815 167.362 33.4255 167.324 33.3321C167.268 33.1827 167.38 32.996 167.492 32.8839C167.754 32.6038 168.109 32.0621 168.538 32.1929C168.781 32.2676 168.949 32.473 169.117 32.6598C169.435 33.0333 169.715 33.3695 169.995 33.7056Z" fill="#20F2EC"/>
<path d="M169.267 31.3896C168.986 31.6698 168.706 32.0806 168.706 32.3794C168.706 32.6596 169.005 32.7903 169.155 32.9771C169.397 33.2572 169.64 33.5374 169.883 33.7988C170.368 34.3404 170.873 34.8821 171.377 35.405C171.452 35.4797 171.508 35.5544 171.62 35.5731C171.863 35.6104 172.031 35.405 172.124 35.1996C172.367 34.6206 171.638 33.5747 171.396 33.1078C171.172 32.6969 170.91 32.3047 170.649 31.9312C170.406 31.5951 170.088 30.8293 169.565 31.1655C169.453 31.2215 169.36 31.2962 169.267 31.3896Z" fill="#163C5A"/>
<path d="M171.788 30.1573C171.769 30.1387 171.751 30.1387 171.732 30.1387C171.695 30.1387 171.657 30.1387 171.62 30.1573C171.321 30.2507 171.041 30.3628 170.761 30.4935C170.667 30.5309 170.574 30.5682 170.499 30.6429C170.369 30.7737 170.331 30.9604 170.35 31.1285C170.406 31.4087 170.537 31.7261 170.667 31.9876C170.891 32.4545 171.172 32.9027 171.433 33.3323C171.695 33.7619 171.9 34.2288 172.18 34.6396C172.217 34.6957 172.273 34.7704 172.348 34.789C172.404 34.789 172.46 34.7704 172.498 34.7517C172.703 34.6583 172.89 34.5649 173.077 34.4342C173.114 34.3968 173.17 34.3595 173.189 34.3221C173.207 34.2848 173.207 34.2288 173.207 34.1914C173.207 33.8552 173.095 33.5377 172.983 33.2202C172.759 32.5666 172.554 31.9316 172.33 31.2779C172.199 30.9044 172.068 30.5309 171.844 30.2321C171.825 30.1947 171.807 30.176 171.788 30.1573Z" fill="#20F2EC"/>
<path d="M172.647 29.4288C172.311 29.5596 171.919 29.821 171.825 30.0825C171.732 30.3253 171.956 30.5681 172.031 30.7922C172.161 31.1284 172.273 31.4832 172.404 31.8194C172.666 32.4917 172.927 33.1641 173.207 33.8364C173.245 33.9298 173.282 34.0232 173.357 34.0792C173.543 34.2099 173.786 34.0979 173.936 33.9485C174.347 33.5376 174.029 32.305 173.954 31.8007C173.88 31.3525 173.786 30.9043 173.674 30.456C173.562 30.0638 173.543 29.2421 172.946 29.3355C172.871 29.3541 172.759 29.3728 172.647 29.4288Z" fill="#163C5A"/>
<path d="M175 29.1862C174.982 29.1676 174.982 29.1489 174.963 29.1489C174.926 29.1302 174.888 29.1302 174.851 29.1302C174.571 29.1115 174.272 29.1115 173.992 29.1302C173.898 29.1302 173.805 29.1302 173.712 29.1862C173.562 29.261 173.469 29.429 173.45 29.5784C173.413 29.8586 173.469 30.1948 173.506 30.4749C173.581 30.9792 173.712 31.4834 173.842 31.9877C173.973 32.4733 174.01 32.9588 174.16 33.4444C174.179 33.5191 174.216 33.5938 174.272 33.6312C174.309 33.6499 174.365 33.6499 174.421 33.6499C174.627 33.6499 174.832 33.6125 175.019 33.5565C175.075 33.5378 175.131 33.5191 175.15 33.4818C175.168 33.4444 175.187 33.4071 175.206 33.3697C175.299 33.0522 175.28 32.7347 175.262 32.3986C175.243 31.7262 175.206 31.0725 175.187 30.4002C175.168 30.008 175.15 29.6158 175.019 29.261C175.038 29.2423 175.019 29.2049 175 29.1862Z" fill="#20F2EC"/>
<path d="M164.149 43.0997C164.205 42.6888 164.28 42.2779 164.374 41.8857C164.168 41.9418 164.019 42.0538 164 42.2966C164 42.39 164 42.5021 164.019 42.6141C164.037 42.7635 164.093 42.9316 164.149 43.0997Z" fill="#D6D6D6"/>
<path d="M184.189 37.7589C183.703 36.6383 182.994 35.6111 182.06 34.7707C181.91 34.6399 181.761 34.5092 181.593 34.3971C179.725 32.9777 177.241 32.3988 174.926 32.8283C169.808 33.7995 167.231 39.3463 168.669 44.0901C169.211 45.883 170.294 47.4891 171.863 48.535C175.841 51.2244 181.406 49.749 183.778 45.6402C185.16 43.2683 185.253 40.2615 184.189 37.7589Z" fill="#DFEDF4"/>
<path d="M179.949 42.0731C181.481 42.652 183.124 42.8761 184.787 42.8388C185.067 41.1392 184.861 39.3463 184.189 37.7589C183.703 36.6383 182.994 35.6111 182.06 34.7707C181.91 34.6399 181.761 34.5092 181.593 34.3971C179.725 32.9777 177.241 32.3988 174.926 32.8283C174.272 32.9591 173.674 33.1458 173.114 33.4073C173.488 37.1612 176.55 40.8031 179.949 42.0731Z" fill="#E8F2F7"/>
<path d="M183.349 45.3226C180.547 45.9949 177.596 45.5467 175.168 43.9779C172.909 42.5024 171.284 40.1679 171.06 37.4412C170.985 36.5821 170.985 35.667 171.078 34.7705C168.632 37.0303 167.661 40.7656 168.669 44.0899C169.211 45.8828 170.294 47.489 171.863 48.5349C175.841 51.2242 181.406 49.7488 183.778 45.64C183.872 45.472 183.965 45.3039 184.04 45.1358C183.816 45.2105 183.591 45.2665 183.349 45.3226Z" fill="#D4E3EB"/>
<path d="M174.87 47.5641C170.331 46.0887 168.987 41.2142 169.472 36.8066C168.258 38.9544 167.922 41.6251 168.669 44.0904C169.211 45.8833 170.294 47.4894 171.863 48.5353C175.598 51.0566 180.734 49.9173 183.311 46.3502C180.678 47.8069 177.671 48.4979 174.87 47.5641Z" fill="#CCDDE6"/>
<path d="M180.902 43.9041C180.547 43.4559 180.286 42.9329 179.987 42.4287C179.501 41.6069 179.072 40.7665 178.623 39.9261C178.082 38.8802 177.559 37.8157 177.092 36.7324C176.943 36.3776 176.831 36.0041 176.662 35.6492C176.457 35.1823 176.308 34.7154 176.027 34.2672C176.009 34.2298 175.971 34.1738 175.915 34.1551C175.841 34.1178 175.766 34.1551 175.71 34.1925C175.449 34.3045 175.206 34.4166 174.944 34.5286C174.758 34.622 174.496 34.6407 174.403 34.8461C174.272 35.1263 174.272 35.5372 174.216 35.8547C174.216 36.0414 174.141 36.2655 174.104 36.4523C174.066 36.6764 174.01 36.9005 173.973 37.1246C173.898 37.5168 173.805 37.8717 173.693 38.2639C173.394 39.3097 172.965 40.2996 172.479 41.2707C172.348 41.5322 172.199 41.775 172.031 42.0178C171.62 42.6154 172.33 42.5034 172.684 42.3726C173.133 42.2046 173.562 42.0365 173.992 41.8497C174.16 41.775 174.347 41.7377 174.44 41.5882C174.533 41.4388 174.533 41.2334 174.608 41.0653C174.72 40.7665 174.795 40.4303 174.907 40.1315C175.15 39.3845 175.411 38.6561 175.617 37.909C175.598 38.0024 175.747 38.2826 175.785 38.3759C175.841 38.544 175.897 38.7308 175.971 38.8989C176.102 39.2537 176.214 39.6272 176.326 39.9821C176.7 41.1774 177.036 42.3726 177.279 43.6053C177.466 44.5391 177.69 45.5663 177.615 46.5188C177.615 46.6308 177.615 46.7615 177.727 46.7802C177.764 46.7802 177.783 46.7802 177.82 46.7615C178.717 46.3693 179.595 45.9211 180.454 45.4169C180.697 45.2674 180.939 45.1367 181.182 44.9873C181.275 44.9313 181.462 44.8379 181.518 44.7258C181.612 44.5764 181.257 44.3523 181.163 44.2589C181.089 44.1282 180.995 44.0161 180.902 43.9041Z" fill="#262C38"/>
</g>
<g clip-path="url(#clip2)">
<path d="M157.714 15.1353C158.156 15.5843 158.575 16.0554 158.995 16.5264C159.26 16.7958 159.503 17.0427 159.768 17.3121C159.857 17.4019 159.99 17.4921 159.899 17.6696C159.786 17.8691 159.609 17.7787 159.497 17.7555C158.609 17.4812 157.742 17.1849 156.876 16.8885C156.809 16.8657 156.743 16.8429 156.654 16.7976C156.451 17.1302 156.248 17.4627 156.045 17.7952C155.841 18.1278 155.594 18.4599 155.391 18.7925C155.278 18.9475 155.122 18.9686 155.012 18.8563C154.923 18.7665 154.902 18.655 154.858 18.521C154.751 18.0524 154.621 17.5613 154.558 17.0485C154.516 16.7363 154.384 16.5571 154.095 16.488C153.606 16.3505 153.139 16.1909 152.695 16.0538C152.539 15.9857 152.406 15.9401 152.273 15.85C152.007 15.6697 152.076 15.4252 152.389 15.2495C152.523 15.1614 152.68 15.1404 152.836 15.0748C153.394 14.8787 153.953 14.6826 154.511 14.4865C154.891 14.3336 154.914 14.3115 154.917 13.9105C154.944 13.3093 154.993 12.686 154.998 12.0624C154.998 12.0178 154.977 11.9508 154.999 11.8842C155.067 11.7733 155.113 11.5955 155.225 11.5741C155.314 11.5302 155.492 11.5762 155.558 11.6881C155.734 11.9122 155.866 12.136 156.02 12.3822C156.285 12.7407 156.549 13.0992 156.814 13.4576C156.946 13.6369 157.102 13.6604 157.347 13.5509C157.817 13.3541 158.286 13.2019 158.777 13.0276C158.934 12.962 159.067 12.963 159.177 13.1198C159.265 13.2541 159.175 13.3871 159.063 13.4976C158.591 14.0062 158.164 14.5597 157.714 15.1353Z" fill="#00F0E9"/>
</g>
<g clip-path="url(#clip3)">
<path d="M176.563 20C175.592 19.9577 175 19.4507 175 18.6056C175 17.7183 175.718 17 176.563 17C177.451 17 178.127 17.6338 178.127 18.4789C178.085 19.3662 177.451 20 176.563 20Z" fill="#FF2968"/>
</g>
<g clip-path="url(#clip4)">
<path d="M101.689 90.3536C101.689 90.3536 98.2281 80.6191 86.4385 87.3791C81.4631 90.1913 78.0019 90.7321 75.6224 90.3536C74.3244 90.1373 73.5132 91.6515 74.3244 92.679C78.4346 97.8167 87.0334 103.982 101.689 95.8157V90.3536Z" fill="#262C38"/>
<path d="M101.311 90.3546C101.311 90.3546 104.772 80.62 116.562 87.3801C121.537 90.1923 124.998 90.7331 127.378 90.3546C128.676 90.1382 129.487 91.6525 128.676 92.68C124.565 97.8177 115.967 103.983 101.311 95.8167V90.3546V90.3546Z" fill="#262C38"/>
</g>
<path d="M219.387 45.1921C219.33 45.0916 219.274 44.9911 219.187 44.9023C218.892 44.5448 218.596 44.1873 218.331 43.8181C218.012 43.3998 217.663 42.9933 217.344 42.575C217.311 42.5353 217.287 42.4745 217.306 42.4323C217.39 42.2426 217.504 42.0412 217.619 41.8397C218.073 42.0659 218.527 42.292 218.991 42.4971C219.455 42.7022 219.86 42.9823 220.361 43.1031C220.37 43.082 220.38 43.0609 220.389 43.0398C220.272 42.9628 220.173 42.8437 220.047 42.7877C219.454 42.4752 218.873 42.1931 218.281 41.8806C218.091 41.7967 217.911 41.6918 217.709 41.5775C217.803 41.3667 217.896 41.1559 217.989 40.9451C219.046 40.8333 220.102 40.6699 221.147 40.5276C221.157 40.5065 221.145 40.4761 221.154 40.4551C221.039 40.4295 220.925 40.404 220.822 40.4088C220.461 40.4259 220.092 40.464 219.722 40.5021C219.219 40.5568 218.725 40.5905 218.222 40.6452C218.192 40.657 218.171 40.6476 218.119 40.6501C218.199 40.3574 218.289 40.0952 218.368 39.8025C218.412 39.6457 218.447 39.5099 218.44 39.3554C218.445 39.2314 218.494 39.1775 218.606 39.1516C218.758 39.0928 218.919 39.0129 219.092 38.9635C220.262 38.5987 221.469 38.3765 222.707 38.3696C223.242 38.3546 223.783 38.4426 224.289 38.6663C225.165 39.0789 225.517 39.7639 225.303 40.7026C225.157 41.3183 224.842 41.8594 224.431 42.3329C224.324 42.4618 224.226 42.5696 224.097 42.6892C223.702 43.069 223.476 43.5233 223.367 44.0547C223.235 44.7523 223.019 45.4126 222.688 46.0473C222.468 46.4291 222.207 46.7923 221.859 47.0667C221.352 47.4725 220.816 47.4875 220.228 47.2779C219.095 46.8775 218.143 46.1795 217.437 45.212C217.095 44.7329 216.822 44.2093 216.51 43.7184C216.454 43.6179 216.452 43.5664 216.54 43.4797C216.746 43.243 216.93 42.9969 217.136 42.7602C217.279 42.9495 217.431 43.1177 217.574 43.307C218.001 43.8234 218.407 44.3304 218.843 44.8257C218.942 44.9449 219.07 45.0523 219.199 45.1597C219.232 45.1994 219.284 45.197 219.326 45.2157C219.347 45.225 219.356 45.2039 219.387 45.1921Z" fill="#262C38"/>
<path d="M213.4 39.47C212.454 39.102 211.604 38.5747 210.669 38.2371C210.66 38.2582 210.651 38.2792 210.641 38.3003C210.695 38.3494 210.749 38.3984 210.833 38.4357C211.246 38.6432 211.637 38.8414 212.049 39.0489C212.461 39.2564 212.895 39.4733 213.328 39.6901C213.265 39.8891 213.19 40.0578 213.137 40.2357C212.713 40.2248 212.29 40.2138 211.897 40.1911C211.503 40.1684 211.089 40.1364 210.675 40.1044C210.666 40.1255 210.656 40.1466 210.659 40.1981C210.743 40.2353 210.818 40.2937 210.891 40.3006C211.193 40.3586 211.504 40.3954 211.794 40.423C212.208 40.455 212.623 40.487 213.037 40.519C213.002 40.6548 212.976 40.7695 212.951 40.8842C212.921 41.123 212.903 41.3921 212.894 41.6402C212.887 41.7127 212.889 41.7642 212.798 41.7995C211.694 42.2437 210.574 42.5546 209.381 42.6317C208.887 42.6653 208.4 42.6264 207.983 42.3159C207.641 42.0638 207.409 41.7343 207.308 41.3367C207.11 40.6444 207.16 39.961 207.397 39.31C207.458 39.0595 207.558 38.7762 207.7 38.5115C208.048 37.7832 208.259 37.0199 208.501 36.2449C208.815 35.2499 209.225 34.3225 209.942 33.556C210.129 33.3614 210.349 33.2066 210.569 33.0517C211.13 32.695 211.621 32.6099 212.38 33.1725C212.83 33.5227 213.161 33.9714 213.421 34.4647C213.952 35.4301 214.452 36.4074 214.973 37.3939C214.985 37.4243 215.018 37.464 214.997 37.4547C214.595 37.9071 214.203 38.3383 213.82 38.7485C213.548 38.4519 213.264 38.1248 212.959 37.7883C212.786 37.6108 212.612 37.4333 212.46 37.2651C212.406 37.216 212.373 37.1763 212.31 37.1483C212.247 37.1204 212.153 37.1042 212.081 37.0973C212.104 37.1581 212.109 37.261 212.142 37.3007C212.601 37.8568 213.082 38.4223 213.533 38.9994C213.565 39.0392 213.558 39.1117 213.549 39.1328C213.533 39.2264 213.456 39.3436 213.4 39.47Z" fill="#262C38"/>
<path d="M217.484 41.1761C217.206 41.8599 216.866 42.5157 216.357 43.097C216.259 43.2048 216.158 43.2611 216.004 43.2684C215.049 43.3754 214.26 43.0516 213.571 42.4444C213.259 42.1806 213.13 41.8462 213.192 41.4202C213.338 40.3505 213.736 39.3927 214.472 38.5841C214.659 38.3895 214.825 38.1856 215.011 37.9911C215.287 37.7098 215.621 37.5805 216.026 37.6336C216.867 37.728 217.516 38.141 218.041 38.7765C218.139 38.8957 218.186 39.0173 218.152 39.1531C218.038 39.5815 217.924 40.01 217.789 40.4291C217.719 40.7006 217.586 40.9442 217.484 41.1761Z" fill="#262C38"/>
<g clip-path="url(#clip5)">
<path d="M229.106 27.8527C229.148 27.8793 228.93 28.0394 228.472 28.1094C228.057 28.206 227.375 28.255 226.629 28.0272C225.883 27.7994 225.03 27.2682 224.485 26.3369C223.94 25.4057 223.805 24.1969 224.048 23.046C224.17 22.4705 224.361 21.879 224.722 21.3937C224.882 21.1378 225.153 20.8923 225.397 20.6895C225.642 20.4867 225.972 20.337 226.276 20.23C226.925 20.0425 227.665 20.0892 228.236 20.5038C228.849 20.9448 229.096 21.6901 229.033 22.3614C229.001 22.697 228.858 23.0221 228.603 23.3368C228.374 23.6088 228.044 23.7585 227.698 23.8389C227.033 23.9572 226.484 23.793 226.057 23.5274C225.647 23.331 225.289 23.0493 225.044 22.778C224.799 22.5068 224.569 22.3047 224.409 22.0866C223.742 21.2568 223.25 20.2403 223.068 19.2978C222.885 18.3553 222.969 17.4604 223.213 16.7835C223.456 16.1067 223.818 15.6214 224.116 15.3333C224.43 15.1144 224.637 15.0661 224.68 15.0927C224.824 15.2416 224.271 15.8444 224.044 17.0645C223.965 17.6665 223.945 18.3643 224.165 19.1522C224.342 19.9136 224.785 20.7225 225.351 21.4299C225.468 21.6215 225.698 21.8235 225.9 22.0682C226.13 22.2702 226.359 22.4723 226.658 22.6582C227.255 23.0301 227.894 22.9544 227.973 22.3524C228.047 22.0434 227.881 21.6442 227.625 21.4848C227.353 21.2562 226.906 21.2143 226.49 21.3109C226.075 21.4075 225.692 21.6424 225.426 22.069C225.145 22.4263 224.964 22.906 224.827 23.4122C224.578 24.382 224.638 25.4259 224.996 26.1816C225.397 26.964 226.069 27.5008 226.746 27.7447C227.396 28.0313 227.982 28.041 228.414 28.0136C228.855 27.8744 229.063 27.8262 229.106 27.8527Z" fill="#FF0B53"/>
</g>
<g clip-path="url(#clip6)">
<path d="M213.105 59.6199C213.105 59.079 213.132 58.5381 213.159 57.9971C213.159 57.6726 213.159 57.3751 213.159 57.0505C213.159 56.9423 213.132 56.8071 213.295 56.753C213.484 56.6989 213.538 56.8612 213.592 56.9423C213.971 57.6455 214.322 58.3488 214.674 59.052C214.701 59.1061 214.728 59.1601 214.755 59.2413C215.08 59.1601 215.404 59.079 215.729 58.9979C216.053 58.9167 216.405 58.8626 216.73 58.7815C216.892 58.7544 217 58.8356 217 58.9708C217 59.079 216.946 59.1601 216.892 59.2683C216.675 59.6199 216.459 59.9986 216.189 60.3502C216.026 60.5666 215.999 60.7559 216.135 60.9723C216.351 61.3509 216.54 61.7296 216.73 62.0812C216.784 62.2164 216.838 62.3246 216.865 62.4598C216.919 62.7303 216.73 62.8385 216.432 62.7573C216.297 62.7303 216.189 62.6492 216.053 62.5951C215.594 62.3787 215.134 62.1623 214.674 61.9459C214.349 61.8107 214.322 61.8107 214.079 62.0541C213.7 62.4057 213.295 62.7573 212.916 63.136C212.889 63.163 212.862 63.2171 212.808 63.2442C212.7 63.2712 212.564 63.3524 212.483 63.2983C212.402 63.2712 212.321 63.136 212.348 63.0278C212.375 62.7844 212.429 62.568 212.483 62.3246C212.537 61.9459 212.591 61.5673 212.646 61.1886C212.673 60.9993 212.591 60.8911 212.375 60.81C211.969 60.6477 211.591 60.4584 211.185 60.2691C211.05 60.215 210.969 60.1338 210.996 59.9715C211.023 59.8363 211.158 59.8093 211.293 59.8093C211.888 59.7822 212.483 59.7011 213.105 59.6199Z" fill="#00F0E9"/>
</g>
<g clip-path="url(#clip7)">
<path d="M215.042 16C214.394 15.9718 214 15.6338 214 15.0704C214 14.4789 214.479 14 215.042 14C215.634 14 216.085 14.4225 216.085 14.9859C216.056 15.5775 215.634 16 215.042 16Z" fill="#262C38"/>
</g>
<g clip-path="url(#clip8)">
<path d="M239.409 31C238.437 30.9577 237.846 30.4507 237.846 29.6056C237.846 28.7183 238.564 28 239.409 28C240.296 28 240.972 28.6338 240.972 29.4789C240.93 30.3662 240.296 31 239.409 31Z" fill="#262C38"/>
</g>
<circle cx="240.5" cy="62.1445" r="1.5" fill="#FF0B53"/>
<path d="M259.648 33.659C256.627 35.0433 253.024 33.723 251.63 30.6807L247.523 32.563L254.823 48.4914C255.669 50.3385 254.857 52.5251 253.01 53.3716C251.163 54.2181 248.976 53.4059 248.13 51.5588C247.283 49.7117 248.096 47.5251 249.943 46.6786C250.29 46.5193 250.702 46.3835 251.077 46.3427L249.155 42.1487C248.788 42.2646 248.43 42.4022 248.061 42.5715C243.932 44.4637 242.119 49.3439 244.011 53.4727C245.903 57.6015 250.783 59.4143 254.912 57.5221C259.041 55.63 260.854 50.7498 258.962 46.621L255.098 38.1895C257.155 38.7193 259.406 38.5818 261.492 37.6257L259.669 33.649L259.648 33.659Z" fill="#FF0B53"/>
<path d="M257.946 33.0457C254.904 34.4399 251.313 33.088 249.929 30.0675L245.822 31.9497L253.122 47.8782C253.968 49.7253 253.156 51.9118 251.309 52.7583C249.462 53.6048 247.275 52.7926 246.429 50.9455C245.582 49.0984 246.394 46.9118 248.241 46.0653C248.589 45.906 249 45.7702 249.376 45.7295L247.454 41.5355C247.086 41.6513 246.729 41.789 246.359 41.9583C242.22 43.8287 240.408 48.7089 242.3 52.8377C244.192 56.9665 249.072 58.7793 253.201 56.8871C257.33 54.995 259.143 50.1148 257.25 45.986L253.386 37.5545C255.444 38.0843 257.694 37.9467 259.781 36.9907L257.968 33.0357L257.946 33.0457Z" fill="#00F0E9"/>
<path d="M258.414 34.0664C256.959 34.3914 255.459 34.1586 254.189 33.4523C252.765 33.158 251.477 32.3549 250.587 31.1588L247.523 32.563L254.823 48.4914C255.669 50.3385 254.857 52.5251 253.01 53.3716C251.793 53.9293 250.408 53.7753 249.373 53.0663C248.126 52.9278 246.986 52.1617 246.419 50.9231C245.572 49.076 246.384 46.8894 248.232 46.0429C248.579 45.8836 248.99 45.7478 249.366 45.7071L247.952 42.6213C243.896 44.5588 242.129 49.3656 244.011 53.4727C244.818 55.2329 246.173 56.5838 247.782 57.3978C249.532 57.8316 251.419 57.7031 253.201 56.8865C257.33 54.9943 259.143 50.1141 257.25 45.9853L253.386 37.5539C255.444 38.0836 257.694 37.9461 259.781 36.99L258.436 34.0564L258.414 34.0664Z" fill="#262C38"/>
<g clip-path="url(#clip9)">
<path d="M24.479 17.186C24.4732 17.136 24.7344 17.2069 25.0744 17.5214C25.4087 17.7861 25.8718 18.2887 26.1585 19.0142C26.4452 19.7397 26.5612 20.738 26.1723 21.7443C25.7834 22.7507 24.922 23.6096 23.8704 24.1365C23.3445 24.4 22.763 24.6193 22.1582 24.639C21.8588 24.6738 21.4978 24.6146 21.1867 24.5496C20.8756 24.4846 20.5529 24.3197 20.2802 24.1491C19.7288 23.7579 19.304 23.1496 19.2727 22.445C19.2356 21.6906 19.6651 21.0336 20.2293 20.6645C20.5113 20.48 20.8549 20.3894 21.26 20.3929C21.6152 20.4022 21.9379 20.5671 22.2165 20.7877C22.7237 21.2346 22.9373 21.7662 22.9953 22.2653C23.0974 22.7087 23.0997 23.1638 23.0405 23.5248C22.9812 23.8857 22.9661 24.191 22.8953 24.4522C22.662 25.4911 22.1732 26.509 21.5499 27.2391C20.9265 27.9692 20.1743 28.4613 19.4929 28.6922C18.8115 28.9232 18.2068 28.9429 17.7959 28.8895C17.4291 28.7803 17.2619 28.648 17.2561 28.5981C17.2829 28.3926 18.0989 28.4496 19.1946 27.8669C19.7147 27.5536 20.273 27.1346 20.7525 26.4718C21.2377 25.8589 21.5941 25.0081 21.7949 24.1248C21.8716 23.9135 21.8867 23.6083 21.9517 23.2972C21.9668 22.9919 21.9819 22.6866 21.9413 22.3372C21.8601 21.6385 21.4028 21.1857 20.8827 21.4991C20.5949 21.6338 20.3859 22.0121 20.4207 22.3116C20.4114 22.6668 20.6575 23.0429 20.9917 23.3076C21.326 23.5723 21.7485 23.7255 22.2477 23.6675C22.7027 23.6652 23.1902 23.5074 23.6719 23.2996C24.5855 22.8899 25.3644 22.1923 25.7324 21.4413C26.0946 20.6404 26.0958 19.7803 25.8648 19.099C25.6838 18.4118 25.3263 17.9475 25.0361 17.6271C24.6519 17.3682 24.4848 17.2359 24.479 17.186Z" fill="#FF0B53"/>
</g>
<g clip-path="url(#clip10)">
<path d="M29.3695 42.0301C29.3695 41.4892 29.3965 40.9482 29.4235 40.4073C29.4235 40.0827 29.4235 39.7852 29.4235 39.4607C29.4235 39.3525 29.3965 39.2173 29.5588 39.1632C29.7481 39.1091 29.8022 39.2713 29.8563 39.3525C30.2349 40.0557 30.5865 40.7589 30.9382 41.4621C30.9652 41.5162 30.9922 41.5703 31.0193 41.6514C31.3439 41.5703 31.6684 41.4892 31.993 41.408C32.3175 41.3269 32.6691 41.2728 32.9937 41.1917C33.156 41.1646 33.2642 41.2457 33.2642 41.381C33.2642 41.4892 33.2101 41.5703 33.156 41.6785C32.9396 42.0301 32.7232 42.4087 32.4528 42.7604C32.2905 42.9767 32.2634 43.1661 32.3987 43.3824C32.615 43.7611 32.8044 44.1397 32.9937 44.4913C33.0478 44.6266 33.1019 44.7348 33.1289 44.87C33.183 45.1405 32.9937 45.2486 32.6962 45.1675C32.5609 45.1405 32.4528 45.0593 32.3175 45.0052C31.8577 44.7888 31.3979 44.5725 30.9382 44.3561C30.6136 44.2209 30.5865 44.2209 30.3431 44.4643C29.9645 44.8159 29.5588 45.1675 29.1801 45.5462C29.1531 45.5732 29.126 45.6273 29.0719 45.6543C28.9638 45.6814 28.8285 45.7625 28.7474 45.7084C28.6662 45.6814 28.5851 45.5462 28.6121 45.438C28.6392 45.1945 28.6933 44.9782 28.7474 44.7348C28.8015 44.3561 28.8556 43.9774 28.9097 43.5988C28.9367 43.4095 28.8556 43.3013 28.6392 43.2201C28.2335 43.0579 27.8548 42.8685 27.4491 42.6792C27.3139 42.6251 27.2328 42.544 27.2598 42.3817C27.2869 42.2465 27.4221 42.2194 27.5573 42.2194C28.1524 42.1924 28.7474 42.1112 29.3695 42.0301Z" fill="#00F0E9"/>
</g>
<g clip-path="url(#clip11)">
<path d="M12.3064 96.4102C11.6585 96.382 11.2642 96.044 11.2642 95.4806C11.2642 94.889 11.743 94.4102 12.3064 94.4102C12.898 94.4102 13.3487 94.8327 13.3487 95.3961C13.3205 95.9876 12.898 96.4102 12.3064 96.4102Z" fill="#FF2968"/>
</g>
<path d="M11.1069 27.6606C11.1537 28.3074 10.8635 28.7381 10.3039 28.8032C9.71627 28.8715 9.18532 28.4511 9.12028 27.8915C9.05198 27.3039 9.41966 26.8074 9.97928 26.7424C10.5701 26.7021 11.0386 27.073 11.1069 27.6606Z" fill="#262C38"/>
<path d="M34.8862 58.1068C32.117 57.4633 30.3689 54.6843 31.017 51.8952L27.2517 51.0203L23.8584 65.6234C23.4649 67.3168 21.7708 68.372 20.0774 67.9785C18.384 67.585 17.3288 65.891 17.7223 64.1976C18.1158 62.5041 19.8098 61.4489 21.5033 61.8424C21.822 61.9165 22.1714 62.0397 22.447 62.2087L23.3405 58.3637C23.031 58.2498 22.7169 58.1558 22.3782 58.0771C18.5929 57.1975 14.812 59.5526 13.9324 63.3379C13.0528 67.1232 15.408 70.9041 19.1932 71.7837C22.9785 72.6633 26.7594 70.3081 27.639 66.5229L29.4352 58.793C30.5506 60.2281 32.1464 61.3128 34.0589 61.7572L34.9061 58.1114L34.8862 58.1068Z" fill="#FF0B53"/>
<path d="M34.0555 56.8021C31.2664 56.154 29.5429 53.3597 30.1863 50.5905L26.421 49.7156L23.0277 64.3187C22.6342 66.0121 20.9401 67.0673 19.2467 66.6738C17.5533 66.2803 16.4981 64.5863 16.8916 62.8929C17.2851 61.1995 18.9792 60.1442 20.6726 60.5377C20.9913 60.6118 21.3407 60.735 21.6164 60.904L22.5098 57.059C22.2003 56.9451 21.8862 56.8511 21.5475 56.7724C17.7669 55.8729 13.9859 58.228 13.1063 62.0133C12.2268 65.7986 14.5819 69.5795 18.3672 70.4591C22.1524 71.3387 25.9334 68.9835 26.813 65.1983L28.6091 57.4684C29.7245 58.9035 31.3203 59.9882 33.2329 60.4326L34.0754 56.8067L34.0555 56.8021Z" fill="#00F0E9"/>
<path d="M33.8381 57.7373C32.6831 57.1959 31.7892 56.2533 31.2988 55.1104C30.4893 54.1664 30.0374 52.9484 30.0608 51.673L27.2517 51.0203L23.8584 65.6234C23.4649 67.3168 21.7708 68.372 20.0774 67.9785C18.9618 67.7193 18.1045 66.8901 17.7749 65.8686C17.0034 65.1224 16.6326 64.0073 16.8965 62.8718C17.2899 61.1784 18.984 60.1231 20.6774 60.5166C20.9962 60.5907 21.3455 60.7139 21.6212 60.8829L22.2786 58.0539C18.5193 57.2434 14.8073 59.5726 13.9324 63.3379C13.5574 64.9516 13.768 66.5754 14.4313 67.9684C15.3891 69.1779 16.7338 70.0783 18.3674 70.4579C22.1527 71.3375 25.9336 68.9824 26.8132 65.1971L28.6094 57.4672C29.7248 58.9023 31.3206 59.987 33.2331 60.4314L33.8581 57.7419L33.8381 57.7373Z" fill="#262C38"/>
<g clip-path="url(#clip12)">
<path d="M123.551 14.8777C123.516 14.8949 123.501 14.6821 123.647 14.3475C123.758 14.0302 124.013 13.5554 124.479 13.1544C124.945 12.7535 125.659 12.4092 126.509 12.4388C127.359 12.4684 128.221 12.888 128.885 13.5351C129.217 13.8586 129.531 14.2351 129.702 14.6804C129.805 14.8944 129.854 15.1786 129.886 15.4271C129.918 15.6756 129.879 15.9585 129.822 16.2057C129.673 16.7174 129.33 17.1909 128.813 17.3963C128.261 17.6189 127.661 17.4687 127.24 17.1439C127.03 16.9815 126.874 16.749 126.771 16.4464C126.687 16.1795 126.726 15.8966 126.818 15.6321C127.02 15.1389 127.361 14.8425 127.718 14.6703C128.021 14.4797 128.36 14.3604 128.644 14.3112C128.928 14.2621 129.159 14.1945 129.372 14.1797C130.206 14.0851 131.091 14.1861 131.795 14.4617C132.5 14.7373 133.061 15.1704 133.409 15.6182C133.757 16.066 133.928 16.5113 133.994 16.8311C134.008 17.1325 133.953 17.2912 133.917 17.3084C133.757 17.3416 133.589 16.7191 132.871 16.0536C132.504 15.7472 132.047 15.4397 131.43 15.2538C130.848 15.0508 130.122 15.0052 129.413 15.0838C129.235 15.0813 129.004 15.149 128.756 15.1809C128.524 15.2485 128.293 15.3162 128.043 15.4367C127.544 15.6777 127.325 16.1353 127.693 16.4416C127.867 16.6212 128.203 16.6791 128.417 16.5758C128.684 16.4909 128.901 16.2105 129.012 15.8932C129.122 15.5758 129.127 15.2216 128.955 14.8648C128.836 14.5265 128.592 14.2042 128.313 13.8991C127.772 13.3246 127.051 12.9247 126.397 12.8447C125.707 12.7819 125.066 13.0032 124.618 13.3513C124.153 13.6636 123.9 14.0499 123.736 14.3487C123.642 14.7018 123.587 14.8604 123.551 14.8777Z" fill="#262C38"/>
</g>
<g clip-path="url(#clip13)">
<path d="M133.085 29.2988C132.296 29.8674 131.517 29.8355 130.994 29.1719C130.445 28.4752 130.564 27.4664 131.228 26.9431C131.924 26.3937 132.848 26.4727 133.371 27.1363C133.887 27.8592 133.782 28.7494 133.085 29.2988Z" fill="#262C38"/>
</g>
<path d="M60.888 8.19388L62.6081 20.6311L63.1372 24.5058L42.2766 30.9068L40.5413 27.4022L34.9896 16.1407L44.4671 20.8408L46.5454 7.6262L55.6778 17.4008L60.888 8.19388Z" fill="#FF0B53"/>
<path d="M63.5603 27.909L43.835 33.9617C42.3804 34.408 40.8504 33.5965 40.4041 32.1419C39.9578 30.6873 40.7693 29.1574 42.2238 28.711L61.9491 22.6584C63.4037 22.2121 64.9337 23.0236 65.38 24.4781C65.8264 25.9327 65.0148 27.4627 63.5603 27.909Z" fill="#FF0B53"/>
<path d="M35.6426 18.2681C36.7398 17.9314 37.3564 16.769 37.0197 15.6718C36.683 14.5745 35.5206 13.958 34.4234 14.2947C33.3261 14.6314 32.7096 15.7938 33.0463 16.891C33.3829 17.9883 34.5454 18.6048 35.6426 18.2681Z" fill="#FF0B53"/>
<path d="M47.1551 9.61285C48.2523 9.27617 48.8688 8.11375 48.5322 7.01651C48.1955 5.91927 47.0331 5.30272 45.9358 5.63941C44.8386 5.97609 44.222 7.13851 44.5587 8.23575C44.8954 9.33298 46.0578 9.94953 47.1551 9.61285Z" fill="#FF0B53"/>
<path d="M61.5412 10.3228C62.6384 9.98613 63.255 8.82371 62.9183 7.72647C62.5816 6.62923 61.4192 6.01268 60.3219 6.34937C59.2247 6.68605 58.6081 7.84847 58.9448 8.94571C59.2815 10.0429 60.4439 10.6595 61.5412 10.3228Z" fill="#FF0B53"/>
<path d="M63.888 9.19388L65.6081 21.6311L66.1372 25.5058L45.2766 31.9068L43.5413 28.4022L37.9896 17.1407L47.4671 21.8408L49.5454 8.6262L58.6778 18.4008L63.888 9.19388Z" fill="#00F0E9"/>
<path d="M66.5603 28.909L46.835 34.9617C45.3804 35.408 43.8504 34.5965 43.4041 33.1419C42.9578 31.6873 43.7693 30.1574 45.2238 29.711L64.9491 23.6584C66.4037 23.2121 67.9337 24.0236 68.38 25.4781C68.8264 26.9327 68.0148 28.4627 66.5603 28.909Z" fill="#00F0E9"/>
<path d="M38.6426 19.2681C39.7398 18.9314 40.3564 17.769 40.0197 16.6718C39.683 15.5745 38.5206 14.958 37.4234 15.2947C36.3261 15.6314 35.7096 16.7938 36.0463 17.891C36.3829 18.9883 37.5454 19.6048 38.6426 19.2681Z" fill="#00F0E9"/>
<path d="M50.1551 10.6129C51.2523 10.2762 51.8688 9.11375 51.5322 8.01651C51.1955 6.91927 50.0331 6.30272 48.9358 6.63941C47.8386 6.97609 47.222 8.13851 47.5587 9.23575C47.8954 10.333 49.0578 10.9495 50.1551 10.6129Z" fill="#00F0E9"/>
<path d="M64.5412 11.3228C65.6384 10.9861 66.255 9.82371 65.9183 8.72647C65.5816 7.62923 64.4192 7.01268 63.3219 7.34937C62.2247 7.68605 61.6081 8.84847 61.9448 9.94571C62.2815 11.0429 63.4439 11.6595 64.5412 11.3228Z" fill="#00F0E9"/>
<path d="M62.0701 8.13724L63.7903 20.5745L64.3193 24.4492L43.4587 30.8502L41.7234 27.3456L36.1717 16.0841L45.6492 20.7842L47.7275 7.56956L56.86 17.3442L62.0701 8.13724Z" fill="#262C38"/>
<path d="M62.0701 8.13713L63.7903 20.5744L64.3193 24.4491L43.4587 30.85L41.7452 27.4164L55.7942 23.1056C59.5193 21.9625 61.8494 18.2974 61.3204 14.4227L60.7724 10.3597L62.0701 8.13713Z" fill="#163C5A"/>
<path d="M47.3359 19.9555C46.7985 19.8487 46.4114 19.3464 46.5183 18.809L46.9625 15.9555C47.0693 15.418 47.5716 15.031 48.109 15.1378C48.6464 15.2447 49.0334 15.747 48.9266 16.2844L48.4824 19.1379C48.3756 19.6753 47.8624 20.0269 47.3359 19.9555Z" fill="#40F4EF"/>
<path d="M63.7902 20.5756L64.3192 24.4503L43.4586 30.8512L41.7234 27.3467L63.7902 20.5756Z" fill="#FF1A5E"/>
<path d="M64.7424 27.8524L45.0171 33.905C43.5625 34.3513 42.0325 33.5398 41.5862 32.0853C41.1399 30.6307 41.9514 29.1007 43.406 28.6544L63.1313 22.6018C64.5858 22.1554 66.1158 22.9669 66.5622 24.4215C67.0085 25.8761 66.197 27.4061 64.7424 27.8524Z" fill="#163C5A"/>
<path d="M61.0883 28.9736L45.0171 33.905C43.5625 34.3513 42.0325 33.5398 41.5862 32.0853C41.1399 30.6307 41.9514 29.1007 43.406 28.6544L59.4771 23.723C60.9317 23.2767 62.4617 24.0882 62.908 25.5428C63.3543 26.9973 62.5428 28.5273 61.0883 28.9736Z" fill="#262C38"/>
<path d="M47.6172 30.2338L44.5307 31.1809C44.0695 31.3224 43.5595 31.0519 43.418 30.5907C43.2765 30.1295 43.547 29.6195 44.0082 29.478L47.0947 28.5309C47.5559 28.3894 48.0659 28.6599 48.2074 29.1211C48.3489 29.5823 48.0784 30.0923 47.6172 30.2338Z" fill="#40F4EF"/>
<path d="M36.8247 18.2115C37.922 17.8748 38.5385 16.7124 38.2018 15.6151C37.8652 14.5179 36.7027 13.9014 35.6055 14.238C34.5083 14.5747 33.8917 15.7371 34.2284 16.8344C34.5651 17.9316 35.7275 18.5482 36.8247 18.2115Z" fill="#262C38"/>
<path d="M36.8189 15.5352C37.004 16.1383 36.6597 16.7874 36.0566 16.9725C35.4535 17.1575 34.8044 16.8133 34.6193 16.2101C34.4343 15.607 34.7785 14.9579 35.3817 14.7729C35.9957 14.6233 36.6339 14.9321 36.8189 15.5352Z" fill="#40F4EF"/>
<path d="M48.3372 9.55621C49.4344 9.21953 50.051 8.05711 49.7143 6.95987C49.3776 5.86263 48.2152 5.24608 47.1179 5.58276C46.0207 5.91945 45.4042 7.08187 45.7408 8.17911C46.0775 9.27634 47.2399 9.89289 48.3372 9.55621Z" fill="#262C38"/>
<path d="M48.3312 6.87896C48.5163 7.48207 48.172 8.13116 47.5689 8.31622C46.9658 8.50128 46.3167 8.15701 46.1317 7.55389C45.9466 6.95078 46.2909 6.3017 46.894 6.11663C47.4971 5.93157 48.1462 6.27585 48.3312 6.87896Z" fill="#40F4EF"/>
<path d="M62.7233 10.2662C63.8205 9.92949 64.4371 8.76707 64.1004 7.66983C63.7637 6.57259 62.6013 5.95604 61.5041 6.29273C60.4068 6.62941 59.7903 7.79183 60.127 8.88907C60.4636 9.9863 61.6261 10.6029 62.7233 10.2662Z" fill="#262C38"/>
<path d="M61.1917 8.0578C61.3768 8.66091 62.0259 9.00519 62.629 8.82013C63.2321 8.63506 63.5764 7.98598 63.3913 7.38287C63.2062 6.77975 62.5572 6.43548 61.954 6.62054C61.3618 6.84108 61.0067 7.45469 61.1917 8.0578Z" fill="#40F4EF"/>
</g>
<defs>
<filter id="filter0_f" x="23" y="81" width="156" height="26" filterUnits="userSpaceOnUse" color-interpolation-filters="sRGB">
<feFlood flood-opacity="0" result="BackgroundImageFix"/>
<feBlend mode="normal" in="SourceGraphic" in2="BackgroundImageFix" result="shape"/>
<feGaussianBlur stdDeviation="5" result="effect1_foregroundBlur"/>
</filter>
<linearGradient id="paint0_linear" x1="177" y1="81" x2="271" y2="81" gradientUnits="userSpaceOnUse">
<stop stop-color="#09EAE5"/>
<stop offset="0.791667" stop-color="#BD4D7A"/>
<stop offset="1" stop-color="#E52A62"/>
</linearGradient>
<clipPath id="clip0">
<rect width="277" height="105.82" fill="white"/>
</clipPath>
<clipPath id="clip1">
<rect width="25.549" height="34.2895" fill="white" transform="translate(164 29)"/>
</clipPath>
<clipPath id="clip2">
<rect width="12.8115" height="14.1448" fill="white" transform="translate(164.053 18.0801) rotate(135.45)"/>
</clipPath>
<clipPath id="clip3">
<rect width="3.08451" height="3" fill="white" transform="translate(175 17)"/>
</clipPath>
<clipPath id="clip4">
<rect width="55" height="14.764" fill="white" transform="translate(74 85)"/>
</clipPath>
<clipPath id="clip5">
<rect width="10.904" height="10.1" fill="white" transform="translate(224.339 14.8809) rotate(31.9116)"/>
</clipPath>
<clipPath id="clip6">
<rect width="11" height="12.1448" fill="white" transform="translate(211 54)"/>
</clipPath>
<clipPath id="clip7">
<rect width="2.05634" height="2" fill="white" transform="translate(214 14)"/>
</clipPath>
<clipPath id="clip8">
<rect width="3.08451" height="3" fill="white" transform="translate(237.846 28)"/>
</clipPath>
<clipPath id="clip9">
<rect width="10.904" height="10.1" fill="white" transform="translate(17.3026 28.9971) rotate(-96.6294)"/>
</clipPath>
<clipPath id="clip10">
<rect width="11" height="12.1448" fill="white" transform="translate(27.2642 36.4102)"/>
</clipPath>
<clipPath id="clip11">
<rect width="2.05634" height="2" fill="white" transform="translate(11.2642 94.4102)"/>
</clipPath>
<clipPath id="clip12">
<rect width="8.5957" height="7.96192" fill="white" transform="translate(134.202 17.1709) rotate(154.238)"/>
</clipPath>
<clipPath id="clip13">
<rect width="3.08451" height="3" fill="white" transform="translate(130 27.9111) rotate(-38.2574)"/>
</clipPath>
</defs>
</svg>
