<svg width="277" height="106" viewBox="0 0 277 106" fill="none" xmlns="http://www.w3.org/2000/svg">
<g clip-path="url(#clip0)">
<g filter="url(#filter0_f)">
<ellipse cx="90" cy="94" rx="68" ry="3" fill="#C4C4C4" fill-opacity="0.5"/>
</g>
<path d="M198.71 87.3779C197.909 88.3154 196.742 89.043 195.209 89.5605C193.676 90.0684 191.977 90.3076 190.111 90.2783C188.324 90.2588 186.815 89.8096 185.585 88.9307C184.354 88.0518 183.476 86.8262 182.948 85.2539C182.421 83.6816 182.279 81.9092 182.523 79.9365L182.641 79.0576C183.09 75.7471 184.252 73.125 186.127 71.1914C188.012 69.2578 190.316 68.3154 193.041 68.3643C195.424 68.4033 197.255 69.043 198.534 70.2832C199.813 71.5234 200.526 73.3154 200.673 75.6592L195.868 75.6445C195.8 74.502 195.517 73.667 195.019 73.1396C194.53 72.6123 193.832 72.334 192.924 72.3047C191.576 72.2559 190.463 72.7881 189.584 73.9014C188.705 75.0049 188.104 76.5869 187.782 78.6475C187.509 80.4053 187.411 81.7725 187.489 82.749C187.636 85.1025 188.695 86.2939 190.668 86.3232C191.859 86.3428 192.904 86.0547 193.803 85.459L194.462 82.1338H190.99L191.605 78.6035H200.087L198.71 87.3779ZM206.356 90H201.347L205.053 68.6719H210.048L206.356 90ZM227.626 87.3779C226.825 88.3154 225.658 89.043 224.125 89.5605C222.592 90.0684 220.893 90.3076 219.027 90.2783C217.24 90.2588 215.731 89.8096 214.501 88.9307C213.271 88.0518 212.392 86.8262 211.864 85.2539C211.337 83.6816 211.195 81.9092 211.439 79.9365L211.557 79.0576C212.006 75.7471 213.168 73.125 215.043 71.1914C216.928 69.2578 219.232 68.3154 221.957 68.3643C224.34 68.4033 226.171 69.043 227.45 70.2832C228.729 71.5234 229.442 73.3154 229.589 75.6592L224.784 75.6445C224.716 74.502 224.433 73.667 223.935 73.1396C223.446 72.6123 222.748 72.334 221.84 72.3047C220.492 72.2559 219.379 72.7881 218.5 73.9014C217.621 75.0049 217.021 76.5869 216.698 78.6475C216.425 80.4053 216.327 81.7725 216.405 82.749C216.552 85.1025 217.611 86.2939 219.584 86.3232C220.775 86.3428 221.82 86.0547 222.719 85.459L223.378 82.1338H219.906L220.521 78.6035H229.003L227.626 87.3779ZM242.45 86.0156H235.639L233.749 90H228.227L239.521 68.6719H244.237L248.178 90H242.963L242.45 86.0156ZM237.514 82.0459H241.938L241 74.6924L237.514 82.0459ZM261.625 84.2285C261.84 83.125 261.244 82.2705 259.838 81.665L257.436 80.6689C254.066 79.1553 252.465 77.0947 252.631 74.4873C252.699 73.2959 253.109 72.2363 253.861 71.3086C254.613 70.3711 255.653 69.6436 256.981 69.126C258.31 68.6084 259.76 68.3594 261.332 68.3789C263.441 68.418 265.136 69.0332 266.415 70.2246C267.704 71.416 268.339 73.0127 268.319 75.0146H263.339C263.368 74.1943 263.192 73.54 262.812 73.0518C262.44 72.5537 261.825 72.2949 260.966 72.2754C260.126 72.2559 259.384 72.4512 258.739 72.8613C258.095 73.2715 257.714 73.8232 257.597 74.5166C257.411 75.4932 258.134 76.2939 259.765 76.9189C261.405 77.5439 262.597 78.0811 263.339 78.5303C265.673 79.9268 266.767 81.8115 266.62 84.1846C266.542 85.415 266.146 86.4941 265.434 87.4219C264.721 88.3496 263.729 89.0674 262.46 89.5752C261.2 90.083 259.784 90.3271 258.212 90.3076C257.06 90.2881 255.99 90.1074 255.004 89.7656C254.018 89.4238 253.173 88.9258 252.47 88.2715C251.044 86.9531 250.36 85.2197 250.419 83.0713L255.443 83.0859C255.385 84.1797 255.595 85.0098 256.073 85.5762C256.552 86.1328 257.357 86.4111 258.49 86.4111C259.33 86.4111 260.028 86.2207 260.585 85.8398C261.151 85.4492 261.498 84.9121 261.625 84.2285Z" fill="#BBBBBB"/>
<path d="M61.1133 91H46.6113L54.7852 43.9785L39.8877 48.1973L41.9092 36.4639L70.21 27.0156L71.8359 26.9717L61.1133 91ZM125.405 26.0488L124.263 37.7383H122.944C117.964 37.7969 113.584 39.1152 109.805 41.6934C106.055 44.2715 103.066 47.9922 100.84 52.8555C104.443 49.4277 108.647 47.7725 113.452 47.8896C116.88 47.9482 119.78 48.9297 122.153 50.834C124.526 52.709 126.27 55.3164 127.383 58.6562C128.525 61.9668 128.936 65.585 128.613 69.5107C128.291 73.4658 127.09 77.1279 125.01 80.4971C122.93 83.8662 120.19 86.5615 116.792 88.583C112.896 90.8975 108.721 92.0107 104.268 91.9229C99.9023 91.8643 96.1377 90.6924 92.9736 88.4072C89.8096 86.1221 87.4951 83.0166 86.0303 79.0908C84.5654 75.1357 84.082 70.8145 84.5801 66.127L85.2393 60.7217C86.0889 54.2471 88.2422 48.3584 91.6992 43.0557C95.1855 37.7236 99.6387 33.5781 105.059 30.6191C110.508 27.6309 116.396 26.1074 122.725 26.0488H125.405ZM107.871 59.1396C104.59 59.0225 101.763 60.5898 99.3896 63.8418C98.833 67.9434 98.5547 70.7559 98.5547 72.2793C98.5547 74.8574 99.082 76.8643 100.137 78.2998C101.191 79.7061 102.715 80.4238 104.707 80.4531C107.637 80.5117 110.01 79.0469 111.826 76.0586C113.672 73.041 114.419 69.6865 114.067 65.9951C113.862 63.9443 113.218 62.3037 112.134 61.0732C111.05 59.8135 109.629 59.1689 107.871 59.1396ZM137.271 59.5352L146.147 27.0156H182.622L180.776 38.5293H156.299L152.388 51.3174C154.761 49.7939 157.705 49.0029 161.221 48.9443C166.846 48.9443 171.167 50.8926 174.185 54.7891C177.231 58.6855 178.491 63.7832 177.964 70.082C177.437 76.5859 174.902 81.8887 170.361 85.9902C165.82 90.0625 160.327 92.04 153.882 91.9229C150.103 91.835 146.66 90.9561 143.555 89.2861C140.479 87.6162 138.091 85.3457 136.392 82.4746C134.692 79.5742 133.857 76.3369 133.887 72.7627H148.301C148.359 75.0479 148.931 76.8789 150.015 78.2559C151.099 79.6328 152.622 80.3506 154.585 80.4092C156.987 80.4971 158.979 79.6035 160.562 77.7285C162.144 75.8242 163.154 72.9385 163.594 69.0713C163.887 65.8193 163.447 63.3584 162.275 61.6885C161.104 59.9893 159.272 59.1396 156.782 59.1396C153.589 59.1396 150.996 60.2236 149.004 62.3916L137.271 59.5352Z" fill="#EF3829"/>
<path d="M61.1133 91V94H63.6527L64.0721 91.4955L61.1133 91ZM46.6113 91L43.6557 90.4862L43.0448 94H46.6113V91ZM54.7852 43.9785L57.7408 44.4923L58.5579 39.7922L53.9677 41.092L54.7852 43.9785ZM39.8877 48.1973L36.9313 47.6879L36.1226 52.3815L40.7051 51.0838L39.8877 48.1973ZM41.9092 36.4639L40.9592 33.6183L39.2574 34.1864L38.9527 35.9545L41.9092 36.4639ZM70.21 27.0156L70.1289 24.0167L69.683 24.0288L69.26 24.17L70.21 27.0156ZM71.8359 26.9717L74.7947 27.4672L75.3964 23.8744L71.7549 23.9728L71.8359 26.9717ZM61.1133 88H46.6113V94H61.1133V88ZM49.567 91.5138L57.7408 44.4923L51.8295 43.4647L43.6557 90.4862L49.567 91.5138ZM53.9677 41.092L39.0703 45.3108L40.7051 51.0838L55.6026 46.865L53.9677 41.092ZM42.8441 48.7066L44.8656 36.9732L38.9527 35.9545L36.9313 47.6879L42.8441 48.7066ZM42.8592 39.3095L71.16 29.8612L69.26 24.17L40.9592 33.6183L42.8592 39.3095ZM70.291 30.0145L71.917 29.9706L71.7549 23.9728L70.1289 24.0167L70.291 30.0145ZM68.8771 26.4762L58.1545 90.5045L64.0721 91.4955L74.7947 27.4672L68.8771 26.4762ZM125.405 26.0488L128.391 26.3407L128.713 23.0488H125.405V26.0488ZM124.263 37.7383V40.7383H126.984L127.248 38.0301L124.263 37.7383ZM122.944 37.7383V34.7383H122.927L122.909 34.7385L122.944 37.7383ZM109.805 41.6934L108.114 39.2151L108.105 39.2212L109.805 41.6934ZM100.84 52.8555L98.1121 51.6066L102.907 55.0291L100.84 52.8555ZM113.452 47.8896L113.379 50.8888L113.39 50.889L113.401 50.8892L113.452 47.8896ZM122.153 50.834L120.276 53.1738L120.285 53.1809L120.293 53.1879L122.153 50.834ZM127.383 58.6562L124.537 59.6049L124.542 59.62L124.547 59.635L127.383 58.6562ZM128.613 69.5107L125.623 69.2653L125.623 69.2671L128.613 69.5107ZM116.792 88.583L118.324 91.1623L118.326 91.1614L116.792 88.583ZM104.268 91.9229L104.327 88.9234L104.317 88.9232L104.308 88.9231L104.268 91.9229ZM86.0303 79.0908L83.217 80.1328L83.2196 80.1396L86.0303 79.0908ZM84.5801 66.127L81.6021 65.7638L81.5993 65.7869L81.5969 65.81L84.5801 66.127ZM85.2393 60.7217L82.2648 60.3314L82.263 60.3449L82.2613 60.3585L85.2393 60.7217ZM91.6992 43.0557L89.1883 41.4139L89.1861 41.4173L91.6992 43.0557ZM105.059 30.6191L106.496 33.2523L106.501 33.2496L105.059 30.6191ZM122.725 26.0488V23.0488H122.711L122.697 23.049L122.725 26.0488ZM107.871 59.1396L107.764 62.1377L107.793 62.1388L107.821 62.1392L107.871 59.1396ZM99.3896 63.8418L96.9663 62.0734L96.519 62.6864L96.4169 63.4384L99.3896 63.8418ZM100.137 78.2998L97.7191 80.076L97.7278 80.088L97.7367 80.0998L100.137 78.2998ZM104.707 80.4531L104.767 77.4537L104.759 77.4536L104.751 77.4534L104.707 80.4531ZM111.826 76.0586L109.267 74.4932L109.263 74.5003L111.826 76.0586ZM114.067 65.9951L117.054 65.7107L117.053 65.7036L117.052 65.6966L114.067 65.9951ZM112.134 61.0732L109.86 63.03L109.871 63.0432L109.883 63.0563L112.134 61.0732ZM122.42 25.757L121.277 37.4464L127.248 38.0301L128.391 26.3407L122.42 25.757ZM124.263 34.7383H122.944V40.7383H124.263V34.7383ZM122.909 34.7385C117.392 34.8034 112.425 36.2742 108.114 39.2151L111.495 44.1716C114.743 41.9562 118.535 40.7904 122.98 40.7381L122.909 34.7385ZM108.105 39.2212C103.835 42.1569 100.524 46.3375 98.1121 51.6066L103.568 54.1043C105.608 49.6468 108.274 46.3861 111.504 44.1655L108.105 39.2212ZM102.907 55.0291C105.957 52.128 109.399 50.7917 113.379 50.8888L113.525 44.8905C107.895 44.7532 102.929 46.7274 98.7722 50.6818L102.907 55.0291ZM113.401 50.8892C116.252 50.938 118.487 51.7381 120.276 53.1738L124.031 48.4942C121.074 46.1213 117.508 44.9585 113.503 44.8901L113.401 50.8892ZM120.293 53.1879C122.137 54.6442 123.577 56.7265 124.537 59.6049L130.229 57.7076C128.962 53.9063 126.916 50.7738 124.013 48.4801L120.293 53.1879ZM124.547 59.635C125.538 62.5063 125.916 65.7021 125.623 69.2653L131.603 69.7562C131.955 65.4678 131.513 61.4273 130.219 57.6775L124.547 59.635ZM125.623 69.2671C125.339 72.7508 124.288 75.9562 122.457 78.9211L127.562 82.0731C129.892 78.2997 131.243 74.1808 131.603 69.7544L125.623 69.2671ZM122.457 78.9211C120.631 81.8794 118.241 84.2307 115.258 86.0047L118.326 91.1614C122.14 88.8924 125.229 85.853 127.562 82.0731L122.457 78.9211ZM115.26 86.0037C111.835 88.0378 108.21 89.0001 104.327 88.9234L104.208 94.9223C109.231 95.0214 113.956 93.7571 118.324 91.1623L115.26 86.0037ZM104.308 88.9231C100.483 88.8718 97.3356 87.857 94.7301 85.9752L91.2172 90.8393C94.9397 93.5278 99.3215 94.8567 104.227 94.9226L104.308 88.9231ZM94.7301 85.9752C92.0821 84.0627 90.1147 81.4556 88.841 78.042L83.2196 80.1396C84.8755 84.5776 87.537 88.1814 91.2172 90.8393L94.7301 85.9752ZM88.8435 78.0489C87.5574 74.5764 87.1083 70.7261 87.5633 66.4439L81.5969 65.81C81.0558 70.9028 81.5734 75.6951 83.217 80.1328L88.8435 78.0489ZM87.558 66.4901L88.2172 61.0848L82.2613 60.3585L81.6021 65.7638L87.558 66.4901ZM88.2138 61.112C89.0068 55.0682 91.0084 49.6085 94.2123 44.694L89.1861 41.4173C85.4759 47.1083 83.1709 53.4259 82.2648 60.3314L88.2138 61.112ZM94.2101 44.6974C97.4347 39.7656 101.524 35.9666 106.496 33.2523L103.621 27.986C97.753 31.1896 92.9363 35.6816 89.1883 41.4139L94.2101 44.6974ZM106.501 33.2496C111.508 30.5037 116.91 29.1028 122.752 29.0487L122.697 23.049C115.883 23.112 109.507 24.758 103.616 27.9887L106.501 33.2496ZM122.725 29.0488H125.405V23.0488H122.725V29.0488ZM107.978 56.1416C103.47 55.9806 99.7754 58.2239 96.9663 62.0734L101.813 65.6102C103.75 62.9558 105.709 62.0644 107.764 62.1377L107.978 56.1416ZM96.4169 63.4384C95.8628 67.5211 95.5547 70.5248 95.5547 72.2793H101.555C101.555 70.987 101.803 68.3656 102.362 64.2452L96.4169 63.4384ZM95.5547 72.2793C95.5547 75.2216 96.1506 77.9411 97.7191 80.076L102.554 76.5236C102.013 75.7874 101.555 74.4932 101.555 72.2793H95.5547ZM97.7367 80.0998C99.4281 82.355 101.883 83.4119 104.663 83.4528L104.751 77.4534C103.547 77.4357 102.955 77.0571 102.537 76.4998L97.7367 80.0998ZM104.647 83.4525C108.869 83.537 112.145 81.3099 114.39 77.6168L109.263 74.5003C107.875 76.7839 106.404 77.4865 104.767 77.4537L104.647 83.4525ZM114.385 77.6239C116.587 74.0243 117.464 70.0153 117.054 65.7107L111.081 66.2795C111.374 69.3578 110.757 72.0577 109.267 74.4932L114.385 77.6239ZM117.052 65.6966C116.801 63.183 115.98 60.9003 114.385 59.0902L109.883 63.0563C110.456 63.7071 110.923 64.7057 111.082 66.2936L117.052 65.6966ZM114.408 59.1165C112.73 57.1663 110.479 56.1827 107.921 56.1401L107.821 62.1392C108.779 62.1552 109.37 62.4606 109.86 63.03L114.408 59.1165ZM137.271 59.5352L134.376 58.7451L133.564 61.7205L136.561 62.45L137.271 59.5352ZM146.147 27.0156V24.0156H143.857L143.253 26.2256L146.147 27.0156ZM182.622 27.0156L185.584 27.4905L186.141 24.0156H182.622V27.0156ZM180.776 38.5293V41.5293H183.334L183.739 39.0042L180.776 38.5293ZM156.299 38.5293V35.5293H154.079L153.43 37.6519L156.299 38.5293ZM152.388 51.3174L149.519 50.44L147.127 58.2594L154.008 53.8419L152.388 51.3174ZM161.221 48.9443V45.9443H161.196L161.171 45.9448L161.221 48.9443ZM174.185 54.7891L171.813 56.626L171.821 56.637L174.185 54.7891ZM177.964 70.082L174.974 69.8317L174.974 69.8396L177.964 70.082ZM170.361 85.9902L172.364 88.2237L172.372 88.2165L170.361 85.9902ZM153.882 91.9229L153.812 94.922L153.82 94.9222L153.827 94.9224L153.882 91.9229ZM143.555 89.2861L142.123 91.9227L142.134 91.9283L143.555 89.2861ZM136.392 82.4746L133.803 83.9911L133.81 84.0026L136.392 82.4746ZM133.887 72.7627V69.7627H130.911L130.887 72.7381L133.887 72.7627ZM148.301 72.7627L151.3 72.6858L151.225 69.7627H148.301V72.7627ZM154.585 80.4092L154.695 77.4112L154.685 77.4108L154.674 77.4105L154.585 80.4092ZM160.562 77.7285L162.854 79.6631L162.862 79.6544L162.869 79.6456L160.562 77.7285ZM163.594 69.0713L166.575 69.41L166.579 69.3753L166.582 69.3405L163.594 69.0713ZM162.275 61.6885L159.806 63.3917L159.813 63.4017L159.82 63.4118L162.275 61.6885ZM149.004 62.3916L148.294 65.3065L150.015 65.7253L151.213 64.4215L149.004 62.3916ZM140.165 60.3252L149.042 27.8056L143.253 26.2256L134.376 58.7451L140.165 60.3252ZM146.147 30.0156H182.622V24.0156H146.147V30.0156ZM179.66 26.5408L177.814 38.0544L183.739 39.0042L185.584 27.4905L179.66 26.5408ZM180.776 35.5293H156.299V41.5293H180.776V35.5293ZM153.43 37.6519L149.519 50.44L155.257 52.1948L159.168 39.4067L153.43 37.6519ZM154.008 53.8419C155.809 52.686 158.176 51.9955 161.271 51.9439L161.171 45.9448C157.235 46.0104 153.713 46.9019 150.767 48.7928L154.008 53.8419ZM161.221 51.9443C166.067 51.9443 169.449 53.5733 171.813 56.6259L176.556 52.9522C172.885 48.2118 167.625 45.9443 161.221 45.9443V51.9443ZM171.821 56.637C174.284 59.7862 175.457 64.0693 174.974 69.8317L180.953 70.3323C181.526 63.4971 180.179 57.5849 176.548 52.9411L171.821 56.637ZM174.974 69.8396C174.504 75.6371 172.284 80.2109 168.35 83.7639L172.372 88.2165C177.521 83.5665 180.369 77.5348 180.954 70.3245L174.974 69.8396ZM168.358 83.7568C164.416 87.2921 159.671 89.0276 153.936 88.9233L153.827 94.9224C160.983 95.0525 167.225 92.8329 172.364 88.2237L168.358 83.7568ZM153.952 88.9237C150.61 88.8459 147.635 88.0742 144.976 86.6439L142.134 91.9283C145.685 93.8379 149.595 94.824 153.812 94.922L153.952 88.9237ZM144.986 86.6496C142.362 85.2251 140.382 83.3276 138.973 80.9466L133.81 84.0026C135.799 87.3638 138.595 90.0073 142.123 91.9227L144.986 86.6496ZM138.98 80.9581C137.572 78.5547 136.861 75.8557 136.887 72.7873L130.887 72.7381C130.853 76.8181 131.813 80.5937 133.803 83.9911L138.98 80.9581ZM133.887 75.7627H148.301V69.7627H133.887V75.7627ZM145.302 72.8396C145.372 75.5745 146.067 78.0908 147.657 80.1115L152.372 76.4002C151.795 75.667 151.347 74.5212 151.3 72.6858L145.302 72.8396ZM147.657 80.1115C149.361 82.2759 151.765 83.3263 154.495 83.4078L154.674 77.4105C153.479 77.3748 152.836 76.9897 152.372 76.4002L147.657 80.1115ZM154.475 83.4072C157.821 83.5296 160.692 82.2262 162.854 79.6631L158.269 75.7939C157.267 76.9809 156.153 77.4646 154.695 77.4112L154.475 83.4072ZM162.869 79.6456C164.981 77.1029 166.104 73.5524 166.575 69.41L160.613 68.7326C160.205 72.3246 159.306 74.5456 158.254 75.8115L162.869 79.6456ZM166.582 69.3405C166.902 65.7808 166.493 62.4753 164.731 59.9652L159.82 63.4118C160.402 64.2415 160.871 65.8579 160.606 68.8021L166.582 69.3405ZM164.745 59.9853C162.893 57.3001 160.027 56.1396 156.782 56.1396V62.1396C158.518 62.1396 159.314 62.6784 159.806 63.3917L164.745 59.9853ZM156.782 56.1396C152.829 56.1396 149.407 57.5193 146.795 60.3617L151.213 64.4215C152.585 62.9279 154.349 62.1396 156.782 62.1396V56.1396ZM149.714 59.4767L137.98 56.6203L136.561 62.45L148.294 65.3065L149.714 59.4767Z" fill="#EF3829"/>
</g>
<defs>
<filter id="filter0_f" x="12" y="81" width="156" height="26" filterUnits="userSpaceOnUse" color-interpolation-filters="sRGB">
<feFlood flood-opacity="0" result="BackgroundImageFix"/>
<feBlend mode="normal" in="SourceGraphic" in2="BackgroundImageFix" result="shape"/>
<feGaussianBlur stdDeviation="5" result="effect1_foregroundBlur"/>
</filter>
<clipPath id="clip0">
<rect width="277" height="105.82" fill="white"/>
</clipPath>
</defs>
</svg>
