<svg width="277" height="106" viewBox="0 0 277 106" fill="none" xmlns="http://www.w3.org/2000/svg">
<g clip-path="url(#clip0)">
<g filter="url(#filter0_f)">
<ellipse cx="101" cy="94" rx="68" ry="3" fill="#C4C4C4" fill-opacity="0.5"/>
</g>
<path d="M58.1133 92H43.6113L51.7852 44.9785L36.8877 49.1973L38.9092 37.4639L67.21 28.0156L68.8359 27.9717L58.1133 92ZM122.405 27.0488L121.263 38.7383H119.944C114.964 38.7969 110.584 40.1152 106.805 42.6934C103.055 45.2715 100.066 48.9922 97.8398 53.8555C101.443 50.4277 105.647 48.7725 110.452 48.8896C113.88 48.9482 116.78 49.9297 119.153 51.834C121.526 53.709 123.27 56.3164 124.383 59.6562C125.525 62.9668 125.936 66.585 125.613 70.5107C125.291 74.4658 124.09 78.1279 122.01 81.4971C119.93 84.8662 117.19 87.5615 113.792 89.583C109.896 91.8975 105.721 93.0107 101.268 92.9229C96.9023 92.8643 93.1377 91.6924 89.9736 89.4072C86.8096 87.1221 84.4951 84.0166 83.0303 80.0908C81.5654 76.1357 81.082 71.8145 81.5801 67.127L82.2393 61.7217C83.0889 55.2471 85.2422 49.3584 88.6992 44.0557C92.1855 38.7236 96.6387 34.5781 102.059 31.6191C107.508 28.6309 113.396 27.1074 119.725 27.0488H122.405ZM104.871 60.1396C101.59 60.0225 98.7627 61.5898 96.3896 64.8418C95.833 68.9434 95.5547 71.7559 95.5547 73.2793C95.5547 75.8574 96.082 77.8643 97.1367 79.2998C98.1914 80.7061 99.7148 81.4238 101.707 81.4531C104.637 81.5117 107.01 80.0469 108.826 77.0586C110.672 74.041 111.419 70.6865 111.067 66.9951C110.862 64.9443 110.218 63.3037 109.134 62.0732C108.05 60.8135 106.629 60.1689 104.871 60.1396ZM134.271 60.5352L143.147 28.0156H179.622L177.776 39.5293H153.299L149.388 52.3174C151.761 50.7939 154.705 50.0029 158.221 49.9443C163.846 49.9443 168.167 51.8926 171.185 55.7891C174.231 59.6855 175.491 64.7832 174.964 71.082C174.437 77.5859 171.902 82.8887 167.361 86.9902C162.82 91.0625 157.327 93.04 150.882 92.9229C147.103 92.835 143.66 91.9561 140.555 90.2861C137.479 88.6162 135.091 86.3457 133.392 83.4746C131.692 80.5742 130.857 77.3369 130.887 73.7627H145.301C145.359 76.0479 145.931 77.8789 147.015 79.2559C148.099 80.6328 149.622 81.3506 151.585 81.4092C153.987 81.4971 155.979 80.6035 157.562 78.7285C159.144 76.8242 160.154 73.9385 160.594 70.0713C160.887 66.8193 160.447 64.3584 159.275 62.6885C158.104 60.9893 156.272 60.1396 153.782 60.1396C150.589 60.1396 147.996 61.2236 146.004 63.3916L134.271 60.5352Z" fill="#EF3829"/>
<path d="M58.1133 92V95H60.6527L61.0721 92.4955L58.1133 92ZM43.6113 92L40.6557 91.4862L40.0448 95H43.6113V92ZM51.7852 44.9785L54.7408 45.4923L55.5579 40.7922L50.9677 42.092L51.7852 44.9785ZM36.8877 49.1973L33.9313 48.6879L33.1226 53.3815L37.7051 52.0838L36.8877 49.1973ZM38.9092 37.4639L37.9592 34.6183L36.2574 35.1864L35.9527 36.9545L38.9092 37.4639ZM67.21 28.0156L67.1289 25.0167L66.683 25.0288L66.26 25.17L67.21 28.0156ZM68.8359 27.9717L71.7947 28.4672L72.3964 24.8744L68.7549 24.9728L68.8359 27.9717ZM58.1133 89H43.6113V95H58.1133V89ZM46.567 92.5138L54.7408 45.4923L48.8295 44.4647L40.6557 91.4862L46.567 92.5138ZM50.9677 42.092L36.0703 46.3108L37.7051 52.0838L52.6026 47.865L50.9677 42.092ZM39.8441 49.7066L41.8656 37.9732L35.9527 36.9545L33.9313 48.6879L39.8441 49.7066ZM39.8592 40.3095L68.16 30.8612L66.26 25.17L37.9592 34.6183L39.8592 40.3095ZM67.291 31.0145L68.917 30.9706L68.7549 24.9728L67.1289 25.0167L67.291 31.0145ZM65.8771 27.4762L55.1545 91.5045L61.0721 92.4955L71.7947 28.4672L65.8771 27.4762ZM122.405 27.0488L125.391 27.3407L125.713 24.0488H122.405V27.0488ZM121.263 38.7383V41.7383H123.984L124.248 39.0301L121.263 38.7383ZM119.944 38.7383V35.7383H119.927L119.909 35.7385L119.944 38.7383ZM106.805 42.6934L105.114 40.2151L105.105 40.2212L106.805 42.6934ZM97.8398 53.8555L95.1121 52.6066L99.9075 56.0291L97.8398 53.8555ZM110.452 48.8896L110.379 51.8888L110.39 51.889L110.401 51.8892L110.452 48.8896ZM119.153 51.834L117.276 54.1738L117.285 54.1809L117.293 54.1879L119.153 51.834ZM124.383 59.6562L121.537 60.6049L121.542 60.62L121.547 60.635L124.383 59.6562ZM125.613 70.5107L122.623 70.2653L122.623 70.2671L125.613 70.5107ZM113.792 89.583L115.324 92.1623L115.326 92.1614L113.792 89.583ZM101.268 92.9229L101.327 89.9234L101.317 89.9232L101.308 89.9231L101.268 92.9229ZM83.0303 80.0908L80.217 81.1328L80.2196 81.1396L83.0303 80.0908ZM81.5801 67.127L78.6021 66.7638L78.5993 66.7869L78.5969 66.81L81.5801 67.127ZM82.2393 61.7217L79.2648 61.3314L79.263 61.3449L79.2613 61.3585L82.2393 61.7217ZM88.6992 44.0557L86.1883 42.4139L86.1861 42.4173L88.6992 44.0557ZM102.059 31.6191L103.496 34.2523L103.501 34.2496L102.059 31.6191ZM119.725 27.0488V24.0488H119.711L119.697 24.049L119.725 27.0488ZM104.871 60.1396L104.764 63.1377L104.793 63.1388L104.821 63.1392L104.871 60.1396ZM96.3896 64.8418L93.9663 63.0734L93.519 63.6864L93.4169 64.4384L96.3896 64.8418ZM97.1367 79.2998L94.7191 81.076L94.7278 81.088L94.7367 81.0998L97.1367 79.2998ZM101.707 81.4531L101.767 78.4537L101.759 78.4536L101.751 78.4534L101.707 81.4531ZM108.826 77.0586L106.267 75.4932L106.263 75.5003L108.826 77.0586ZM111.067 66.9951L114.054 66.7107L114.053 66.7036L114.052 66.6966L111.067 66.9951ZM109.134 62.0732L106.86 64.03L106.871 64.0432L106.883 64.0563L109.134 62.0732ZM119.42 26.757L118.277 38.4464L124.248 39.0301L125.391 27.3407L119.42 26.757ZM121.263 35.7383H119.944V41.7383H121.263V35.7383ZM119.909 35.7385C114.392 35.8034 109.425 37.2742 105.114 40.2151L108.495 45.1716C111.743 42.9562 115.535 41.7904 119.98 41.7381L119.909 35.7385ZM105.105 40.2212C100.835 43.1569 97.5245 47.3375 95.1121 52.6066L100.568 55.1043C102.608 50.6468 105.274 47.3861 108.504 45.1655L105.105 40.2212ZM99.9075 56.0291C102.957 53.128 106.399 51.7917 110.379 51.8888L110.525 45.8905C104.895 45.7532 99.9294 47.7274 95.7722 51.6818L99.9075 56.0291ZM110.401 51.8892C113.252 51.938 115.487 52.7381 117.276 54.1738L121.031 49.4942C118.074 47.1213 114.508 45.9585 110.503 45.8901L110.401 51.8892ZM117.293 54.1879C119.137 55.6442 120.577 57.7265 121.537 60.6049L127.229 58.7076C125.962 54.9063 123.916 51.7738 121.013 49.4801L117.293 54.1879ZM121.547 60.635C122.538 63.5063 122.916 66.7021 122.623 70.2653L128.603 70.7562C128.955 66.4678 128.513 62.4273 127.219 58.6775L121.547 60.635ZM122.623 70.2671C122.339 73.7508 121.288 76.9562 119.457 79.9211L124.562 83.0731C126.892 79.2997 128.243 75.1808 128.603 70.7544L122.623 70.2671ZM119.457 79.9211C117.631 82.8794 115.241 85.2307 112.258 87.0047L115.326 92.1614C119.14 89.8924 122.229 86.853 124.562 83.0731L119.457 79.9211ZM112.26 87.0037C108.835 89.0378 105.21 90.0001 101.327 89.9234L101.208 95.9223C106.231 96.0214 110.956 94.7571 115.324 92.1623L112.26 87.0037ZM101.308 89.9231C97.4832 89.8718 94.3356 88.857 91.7301 86.9752L88.2172 91.8393C91.9397 94.5278 96.3215 95.8567 101.227 95.9226L101.308 89.9231ZM91.7301 86.9752C89.0821 85.0627 87.1147 82.4556 85.841 79.042L80.2196 81.1396C81.8755 85.5776 84.537 89.1814 88.2172 91.8393L91.7301 86.9752ZM85.8435 79.0489C84.5574 75.5764 84.1083 71.7261 84.5633 67.4439L78.5969 66.81C78.0558 71.9028 78.5734 76.6951 80.217 81.1328L85.8435 79.0489ZM84.558 67.4901L85.2172 62.0848L79.2613 61.3585L78.6021 66.7638L84.558 67.4901ZM85.2138 62.112C86.0068 56.0682 88.0084 50.6085 91.2123 45.694L86.1861 42.4173C82.4759 48.1083 80.1709 54.4259 79.2648 61.3314L85.2138 62.112ZM91.2101 45.6974C94.4347 40.7656 98.5243 36.9666 103.496 34.2523L100.621 28.986C94.753 32.1896 89.9363 36.6816 86.1883 42.4139L91.2101 45.6974ZM103.501 34.2496C108.508 31.5037 113.91 30.1028 119.752 30.0487L119.697 24.049C112.883 24.112 106.507 25.758 100.616 28.9887L103.501 34.2496ZM119.725 30.0488H122.405V24.0488H119.725V30.0488ZM104.978 57.1416C100.47 56.9806 96.7754 59.2239 93.9663 63.0734L98.813 66.6102C100.75 63.9558 102.709 63.0644 104.764 63.1377L104.978 57.1416ZM93.4169 64.4384C92.8628 68.5211 92.5547 71.5248 92.5547 73.2793H98.5547C98.5547 71.987 98.8032 69.3656 99.3624 65.2452L93.4169 64.4384ZM92.5547 73.2793C92.5547 76.2216 93.1506 78.9411 94.7191 81.076L99.5544 77.5236C99.0135 76.7874 98.5547 75.4932 98.5547 73.2793H92.5547ZM94.7367 81.0998C96.4281 83.355 98.8831 84.4119 101.663 84.4528L101.751 78.4534C100.547 78.4357 99.9547 78.0571 99.5367 77.4998L94.7367 81.0998ZM101.647 84.4525C105.869 84.537 109.145 82.3099 111.39 78.6168L106.263 75.5003C104.875 77.7839 103.404 78.4865 101.767 78.4537L101.647 84.4525ZM111.385 78.6239C113.587 75.0243 114.464 71.0153 114.054 66.7107L108.081 67.2795C108.374 70.3578 107.757 73.0577 106.267 75.4932L111.385 78.6239ZM114.052 66.6966C113.801 64.183 112.98 61.9003 111.385 60.0902L106.883 64.0563C107.456 64.7071 107.923 65.7057 108.082 67.2936L114.052 66.6966ZM111.408 60.1165C109.73 58.1663 107.479 57.1827 104.921 57.1401L104.821 63.1392C105.779 63.1552 106.37 63.4606 106.86 64.03L111.408 60.1165ZM134.271 60.5352L131.376 59.7451L130.564 62.7205L133.561 63.45L134.271 60.5352ZM143.147 28.0156V25.0156H140.857L140.253 27.2256L143.147 28.0156ZM179.622 28.0156L182.584 28.4905L183.141 25.0156H179.622V28.0156ZM177.776 39.5293V42.5293H180.334L180.739 40.0042L177.776 39.5293ZM153.299 39.5293V36.5293H151.079L150.43 38.6519L153.299 39.5293ZM149.388 52.3174L146.519 51.44L144.127 59.2594L151.008 54.8419L149.388 52.3174ZM158.221 49.9443V46.9443H158.196L158.171 46.9448L158.221 49.9443ZM171.185 55.7891L168.813 57.626L168.821 57.637L171.185 55.7891ZM174.964 71.082L171.974 70.8317L171.974 70.8396L174.964 71.082ZM167.361 86.9902L169.364 89.2237L169.372 89.2165L167.361 86.9902ZM150.882 92.9229L150.812 95.922L150.82 95.9222L150.827 95.9224L150.882 92.9229ZM140.555 90.2861L139.123 92.9227L139.134 92.9283L140.555 90.2861ZM133.392 83.4746L130.803 84.9911L130.81 85.0026L133.392 83.4746ZM130.887 73.7627V70.7627H127.911L127.887 73.7381L130.887 73.7627ZM145.301 73.7627L148.3 73.6858L148.225 70.7627H145.301V73.7627ZM151.585 81.4092L151.695 78.4112L151.685 78.4108L151.674 78.4105L151.585 81.4092ZM157.562 78.7285L159.854 80.6631L159.862 80.6544L159.869 80.6456L157.562 78.7285ZM160.594 70.0713L163.575 70.41L163.579 70.3753L163.582 70.3405L160.594 70.0713ZM159.275 62.6885L156.806 64.3917L156.813 64.4017L156.82 64.4118L159.275 62.6885ZM146.004 63.3916L145.294 66.3065L147.015 66.7253L148.213 65.4215L146.004 63.3916ZM137.165 61.3252L146.042 28.8056L140.253 27.2256L131.376 59.7451L137.165 61.3252ZM143.147 31.0156H179.622V25.0156H143.147V31.0156ZM176.66 27.5408L174.814 39.0544L180.739 40.0042L182.584 28.4905L176.66 27.5408ZM177.776 36.5293H153.299V42.5293H177.776V36.5293ZM150.43 38.6519L146.519 51.44L152.257 53.1948L156.168 40.4067L150.43 38.6519ZM151.008 54.8419C152.809 53.686 155.176 52.9955 158.271 52.9439L158.171 46.9448C154.235 47.0104 150.713 47.9019 147.767 49.7928L151.008 54.8419ZM158.221 52.9443C163.067 52.9443 166.449 54.5733 168.813 57.6259L173.556 53.9522C169.885 49.2118 164.625 46.9443 158.221 46.9443V52.9443ZM168.821 57.637C171.284 60.7862 172.457 65.0693 171.974 70.8317L177.953 71.3323C178.526 64.4971 177.179 58.5849 173.548 53.9411L168.821 57.637ZM171.974 70.8396C171.504 76.6371 169.284 81.2109 165.35 84.7639L169.372 89.2165C174.521 84.5665 177.369 78.5348 177.954 71.3245L171.974 70.8396ZM165.358 84.7568C161.416 88.2921 156.671 90.0276 150.936 89.9233L150.827 95.9224C157.983 96.0525 164.225 93.8329 169.364 89.2237L165.358 84.7568ZM150.952 89.9237C147.61 89.8459 144.635 89.0742 141.976 87.6439L139.134 92.9283C142.685 94.8379 146.595 95.824 150.812 95.922L150.952 89.9237ZM141.986 87.6496C139.362 86.2251 137.382 84.3276 135.973 81.9466L130.81 85.0026C132.799 88.3638 135.595 91.0073 139.123 92.9227L141.986 87.6496ZM135.98 81.9581C134.572 79.5547 133.861 76.8557 133.887 73.7873L127.887 73.7381C127.853 77.8181 128.813 81.5937 130.803 84.9911L135.98 81.9581ZM130.887 76.7627H145.301V70.7627H130.887V76.7627ZM142.302 73.8396C142.372 76.5745 143.067 79.0908 144.657 81.1115L149.372 77.4002C148.795 76.667 148.347 75.5212 148.3 73.6858L142.302 73.8396ZM144.657 81.1115C146.361 83.2759 148.765 84.3263 151.495 84.4078L151.674 78.4105C150.479 78.3748 149.836 77.9897 149.372 77.4002L144.657 81.1115ZM151.475 84.4072C154.821 84.5296 157.692 83.2262 159.854 80.6631L155.269 76.7939C154.267 77.9809 153.153 78.4646 151.695 78.4112L151.475 84.4072ZM159.869 80.6456C161.981 78.1029 163.104 74.5524 163.575 70.41L157.613 69.7326C157.205 73.3246 156.306 75.5456 155.254 76.8115L159.869 80.6456ZM163.582 70.3405C163.902 66.7808 163.493 63.4753 161.731 60.9652L156.82 64.4118C157.402 65.2415 157.871 66.8579 157.606 69.8021L163.582 70.3405ZM161.745 60.9853C159.893 58.3001 157.027 57.1396 153.782 57.1396V63.1396C155.518 63.1396 156.314 63.6784 156.806 64.3917L161.745 60.9853ZM153.782 57.1396C149.829 57.1396 146.407 58.5193 143.795 61.3617L148.213 65.4215C149.585 63.9279 151.349 63.1396 153.782 63.1396V57.1396ZM146.714 60.4767L134.98 57.6203L133.561 63.45L145.294 66.3065L146.714 60.4767Z" fill="#EF3829"/>
<path d="M200.71 88.3779C199.909 89.3154 198.742 90.043 197.209 90.5605C195.676 91.0684 193.977 91.3076 192.111 91.2783C190.324 91.2588 188.815 90.8096 187.585 89.9307C186.354 89.0518 185.476 87.8262 184.948 86.2539C184.421 84.6816 184.279 82.9092 184.523 80.9365L184.641 80.0576C185.09 76.7471 186.252 74.125 188.127 72.1914C190.012 70.2578 192.316 69.3154 195.041 69.3643C197.424 69.4033 199.255 70.043 200.534 71.2832C201.813 72.5234 202.526 74.3154 202.673 76.6592L197.868 76.6445C197.8 75.502 197.517 74.667 197.019 74.1396C196.53 73.6123 195.832 73.334 194.924 73.3047C193.576 73.2559 192.463 73.7881 191.584 74.9014C190.705 76.0049 190.104 77.5869 189.782 79.6475C189.509 81.4053 189.411 82.7725 189.489 83.749C189.636 86.1025 190.695 87.2939 192.668 87.3232C193.859 87.3428 194.904 87.0547 195.803 86.459L196.462 83.1338H192.99L193.605 79.6035H202.087L200.71 88.3779ZM208.356 91H203.347L207.053 69.6719H212.048L208.356 91ZM229.626 88.3779C228.825 89.3154 227.658 90.043 226.125 90.5605C224.592 91.0684 222.893 91.3076 221.027 91.2783C219.24 91.2588 217.731 90.8096 216.501 89.9307C215.271 89.0518 214.392 87.8262 213.864 86.2539C213.337 84.6816 213.195 82.9092 213.439 80.9365L213.557 80.0576C214.006 76.7471 215.168 74.125 217.043 72.1914C218.928 70.2578 221.232 69.3154 223.957 69.3643C226.34 69.4033 228.171 70.043 229.45 71.2832C230.729 72.5234 231.442 74.3154 231.589 76.6592L226.784 76.6445C226.716 75.502 226.433 74.667 225.935 74.1396C225.446 73.6123 224.748 73.334 223.84 73.3047C222.492 73.2559 221.379 73.7881 220.5 74.9014C219.621 76.0049 219.021 77.5869 218.698 79.6475C218.425 81.4053 218.327 82.7725 218.405 83.749C218.552 86.1025 219.611 87.2939 221.584 87.3232C222.775 87.3428 223.82 87.0547 224.719 86.459L225.378 83.1338H221.906L222.521 79.6035H231.003L229.626 88.3779ZM244.45 87.0156H237.639L235.749 91H230.227L241.521 69.6719H246.237L250.178 91H244.963L244.45 87.0156ZM239.514 83.0459H243.938L243 75.6924L239.514 83.0459ZM263.625 85.2285C263.84 84.125 263.244 83.2705 261.838 82.665L259.436 81.6689C256.066 80.1553 254.465 78.0947 254.631 75.4873C254.699 74.2959 255.109 73.2363 255.861 72.3086C256.613 71.3711 257.653 70.6436 258.981 70.126C260.31 69.6084 261.76 69.3594 263.332 69.3789C265.441 69.418 267.136 70.0332 268.415 71.2246C269.704 72.416 270.339 74.0127 270.319 76.0146H265.339C265.368 75.1943 265.192 74.54 264.812 74.0518C264.44 73.5537 263.825 73.2949 262.966 73.2754C262.126 73.2559 261.384 73.4512 260.739 73.8613C260.095 74.2715 259.714 74.8232 259.597 75.5166C259.411 76.4932 260.134 77.2939 261.765 77.9189C263.405 78.5439 264.597 79.0811 265.339 79.5303C267.673 80.9268 268.767 82.8115 268.62 85.1846C268.542 86.415 268.146 87.4941 267.434 88.4219C266.721 89.3496 265.729 90.0674 264.46 90.5752C263.2 91.083 261.784 91.3271 260.212 91.3076C259.06 91.2881 257.99 91.1074 257.004 90.7656C256.018 90.4238 255.173 89.9258 254.47 89.2715C253.044 87.9531 252.36 86.2197 252.419 84.0713L257.443 84.0859C257.385 85.1797 257.595 86.0098 258.073 86.5762C258.552 87.1328 259.357 87.4111 260.49 87.4111C261.33 87.4111 262.028 87.2207 262.585 86.8398C263.151 86.4492 263.498 85.9121 263.625 85.2285Z" fill="url(#paint0_linear)"/>
<g clip-path="url(#clip1)">
<path d="M157.714 15.1353C158.156 15.5843 158.575 16.0554 158.995 16.5264C159.26 16.7958 159.503 17.0427 159.768 17.3121C159.857 17.4019 159.99 17.4921 159.899 17.6696C159.786 17.8691 159.609 17.7787 159.497 17.7555C158.609 17.4812 157.742 17.1849 156.876 16.8885C156.809 16.8657 156.743 16.8429 156.654 16.7976C156.451 17.1302 156.248 17.4627 156.045 17.7952C155.841 18.1278 155.594 18.4599 155.391 18.7925C155.278 18.9475 155.122 18.9686 155.012 18.8563C154.923 18.7665 154.902 18.655 154.858 18.521C154.751 18.0524 154.621 17.5613 154.558 17.0485C154.516 16.7363 154.384 16.5571 154.095 16.488C153.606 16.3505 153.139 16.1909 152.695 16.0538C152.539 15.9857 152.406 15.9401 152.273 15.85C152.007 15.6697 152.076 15.4252 152.389 15.2495C152.523 15.1614 152.68 15.1404 152.836 15.0748C153.394 14.8787 153.953 14.6826 154.511 14.4865C154.891 14.3336 154.914 14.3115 154.917 13.9105C154.944 13.3093 154.993 12.686 154.998 12.0624C154.998 12.0178 154.977 11.9508 154.999 11.8842C155.067 11.7733 155.113 11.5955 155.225 11.5741C155.314 11.5302 155.492 11.5762 155.558 11.6881C155.734 11.9122 155.866 12.136 156.02 12.3822C156.285 12.7407 156.549 13.0992 156.814 13.4576C156.946 13.6369 157.102 13.6604 157.347 13.5509C157.817 13.3541 158.286 13.2019 158.777 13.0276C158.934 12.962 159.067 12.963 159.177 13.1198C159.265 13.2541 159.175 13.3871 159.063 13.4976C158.591 14.0062 158.164 14.5597 157.714 15.1353Z" fill="#00F0E9"/>
</g>
<g clip-path="url(#clip2)">
<path d="M176.563 20C175.592 19.9577 175 19.4507 175 18.6056C175 17.7183 175.718 17 176.563 17C177.451 17 178.127 17.6338 178.127 18.4789C178.085 19.3662 177.451 20 176.563 20Z" fill="#FF2968"/>
</g>
<g clip-path="url(#clip3)">
<path d="M213.105 59.6199C213.105 59.079 213.132 58.5381 213.159 57.9971C213.159 57.6726 213.159 57.3751 213.159 57.0505C213.159 56.9423 213.132 56.8071 213.295 56.753C213.484 56.6989 213.538 56.8612 213.592 56.9423C213.971 57.6455 214.322 58.3488 214.674 59.052C214.701 59.1061 214.728 59.1601 214.755 59.2413C215.08 59.1601 215.404 59.079 215.729 58.9979C216.053 58.9167 216.405 58.8626 216.73 58.7815C216.892 58.7544 217 58.8356 217 58.9708C217 59.079 216.946 59.1601 216.892 59.2683C216.675 59.6199 216.459 59.9986 216.189 60.3502C216.026 60.5666 215.999 60.7559 216.135 60.9723C216.351 61.3509 216.54 61.7296 216.73 62.0812C216.784 62.2164 216.838 62.3246 216.865 62.4598C216.919 62.7303 216.73 62.8385 216.432 62.7573C216.297 62.7303 216.189 62.6492 216.053 62.5951C215.594 62.3787 215.134 62.1623 214.674 61.9459C214.349 61.8107 214.322 61.8107 214.079 62.0541C213.7 62.4057 213.295 62.7573 212.916 63.136C212.889 63.163 212.862 63.2171 212.808 63.2442C212.7 63.2712 212.564 63.3524 212.483 63.2983C212.402 63.2712 212.321 63.136 212.348 63.0278C212.375 62.7844 212.429 62.568 212.483 62.3246C212.537 61.9459 212.591 61.5673 212.646 61.1886C212.673 60.9993 212.591 60.8911 212.375 60.81C211.969 60.6477 211.591 60.4584 211.185 60.2691C211.05 60.215 210.969 60.1338 210.996 59.9715C211.023 59.8363 211.158 59.8093 211.293 59.8093C211.888 59.7822 212.483 59.7011 213.105 59.6199Z" fill="#00F0E9"/>
</g>
<g clip-path="url(#clip4)">
<path d="M215.042 16C214.394 15.9718 214 15.6338 214 15.0704C214 14.4789 214.479 14 215.042 14C215.634 14 216.085 14.4225 216.085 14.9859C216.056 15.5775 215.634 16 215.042 16Z" fill="#262C38"/>
</g>
<g clip-path="url(#clip5)">
<path d="M239.409 31C238.437 30.9577 237.846 30.4507 237.846 29.6056C237.846 28.7183 238.564 28 239.409 28C240.296 28 240.972 28.6338 240.972 29.4789C240.93 30.3662 240.296 31 239.409 31Z" fill="#262C38"/>
</g>
<circle cx="240.5" cy="62.1445" r="1.5" fill="#FF0B53"/>
<path d="M259.648 33.659C256.627 35.0433 253.024 33.723 251.63 30.6807L247.523 32.563L254.823 48.4914C255.669 50.3385 254.857 52.5251 253.01 53.3716C251.163 54.2181 248.976 53.4059 248.13 51.5588C247.283 49.7117 248.096 47.5251 249.943 46.6786C250.29 46.5193 250.702 46.3835 251.077 46.3427L249.155 42.1487C248.788 42.2646 248.43 42.4022 248.061 42.5715C243.932 44.4637 242.119 49.3439 244.011 53.4727C245.903 57.6015 250.783 59.4143 254.912 57.5221C259.041 55.63 260.854 50.7498 258.962 46.621L255.098 38.1895C257.155 38.7193 259.406 38.5818 261.492 37.6257L259.669 33.649L259.648 33.659Z" fill="#FF0B53"/>
<path d="M257.946 33.0457C254.904 34.4399 251.313 33.088 249.929 30.0675L245.822 31.9497L253.122 47.8782C253.968 49.7253 253.156 51.9118 251.309 52.7583C249.462 53.6048 247.275 52.7926 246.429 50.9455C245.582 49.0984 246.394 46.9118 248.241 46.0653C248.589 45.906 249 45.7702 249.376 45.7295L247.454 41.5355C247.086 41.6513 246.729 41.789 246.359 41.9583C242.22 43.8287 240.408 48.7089 242.3 52.8377C244.192 56.9665 249.072 58.7793 253.201 56.8871C257.33 54.995 259.143 50.1148 257.25 45.986L253.386 37.5545C255.444 38.0843 257.694 37.9467 259.781 36.9907L257.968 33.0357L257.946 33.0457Z" fill="#00F0E9"/>
<path d="M258.414 34.0664C256.959 34.3914 255.459 34.1586 254.189 33.4523C252.765 33.158 251.477 32.3549 250.587 31.1588L247.523 32.563L254.823 48.4914C255.669 50.3385 254.857 52.5251 253.01 53.3716C251.793 53.9293 250.408 53.7753 249.373 53.0663C248.126 52.9278 246.986 52.1617 246.419 50.9231C245.572 49.076 246.384 46.8894 248.232 46.0429C248.579 45.8836 248.99 45.7478 249.366 45.7071L247.952 42.6213C243.896 44.5588 242.129 49.3656 244.011 53.4727C244.818 55.2329 246.173 56.5838 247.782 57.3978C249.532 57.8316 251.419 57.7031 253.201 56.8865C257.33 54.9943 259.143 50.1141 257.25 45.9853L253.386 37.5539C255.444 38.0836 257.694 37.9461 259.781 36.99L258.436 34.0564L258.414 34.0664Z" fill="#262C38"/>
<g clip-path="url(#clip6)">
<path d="M24.4791 17.186C24.4733 17.136 24.7344 17.2069 25.0745 17.5214C25.4088 17.7861 25.8719 18.2887 26.1586 19.0142C26.4452 19.7397 26.5613 20.738 26.1723 21.7443C25.7834 22.7507 24.9221 23.6096 23.8704 24.1365C23.3446 24.4 22.763 24.6193 22.1583 24.639C21.8588 24.6738 21.4978 24.6146 21.1867 24.5496C20.8757 24.4846 20.553 24.3197 20.2802 24.1491C19.7289 23.7579 19.3041 23.1496 19.2728 22.445C19.2357 21.6906 19.6652 21.0336 20.2293 20.6645C20.5114 20.48 20.855 20.3894 21.2601 20.3929C21.6153 20.4022 21.938 20.5671 22.2165 20.7877C22.7238 21.2346 22.9373 21.7662 22.9953 22.2653C23.0975 22.7087 23.0997 23.1638 23.0405 23.5248C22.9813 23.8857 22.9662 24.191 22.8954 24.4522C22.662 25.4911 22.1733 26.509 21.5499 27.2391C20.9266 27.9692 20.1744 28.4613 19.493 28.6922C18.8116 28.9232 18.2068 28.9429 17.7959 28.8895C17.4292 28.7803 17.262 28.648 17.2562 28.5981C17.2829 28.3926 18.0989 28.4496 19.1947 27.8669C19.7147 27.5536 20.2731 27.1346 20.7525 26.4718C21.2377 25.8589 21.5941 25.0081 21.795 24.1248C21.8716 23.9135 21.8867 23.6083 21.9518 23.2972C21.9669 22.9919 21.982 22.6866 21.9414 22.3372C21.8601 21.6385 21.4028 21.1857 20.8828 21.4991C20.5949 21.6338 20.386 22.0121 20.4208 22.3116C20.4115 22.6668 20.6575 23.0429 20.9918 23.3076C21.3261 23.5723 21.7486 23.7255 22.2477 23.6675C22.7027 23.6652 23.1903 23.5074 23.672 23.2996C24.5855 22.8899 25.3644 22.1923 25.7324 21.4413C26.0946 20.6404 26.0958 19.7803 25.8649 19.099C25.6838 18.4118 25.3264 17.9475 25.0362 17.6271C24.652 17.3682 24.4849 17.2359 24.4791 17.186Z" fill="#FF0B53"/>
</g>
<g clip-path="url(#clip7)">
<path d="M29.3695 42.0301C29.3695 41.4892 29.3966 40.9482 29.4236 40.4073C29.4236 40.0827 29.4236 39.7852 29.4236 39.4607C29.4236 39.3525 29.3966 39.2173 29.5588 39.1632C29.7482 39.1091 29.8023 39.2713 29.8564 39.3525C30.235 40.0557 30.5866 40.7589 30.9382 41.4621C30.9653 41.5162 30.9923 41.5703 31.0194 41.6514C31.3439 41.5703 31.6685 41.4892 31.993 41.408C32.3176 41.3269 32.6692 41.2728 32.9938 41.1917C33.156 41.1646 33.2642 41.2457 33.2642 41.381C33.2642 41.4892 33.2101 41.5703 33.156 41.6785C32.9397 42.0301 32.7233 42.4087 32.4528 42.7604C32.2905 42.9767 32.2635 43.1661 32.3987 43.3824C32.6151 43.7611 32.8044 44.1397 32.9938 44.4913C33.0478 44.6266 33.1019 44.7348 33.129 44.87C33.1831 45.1405 32.9938 45.2486 32.6962 45.1675C32.561 45.1405 32.4528 45.0593 32.3176 45.0052C31.8578 44.7888 31.398 44.5725 30.9382 44.3561C30.6137 44.2209 30.5866 44.2209 30.3432 44.4643C29.9645 44.8159 29.5588 45.1675 29.1802 45.5462C29.1531 45.5732 29.1261 45.6273 29.072 45.6543C28.9638 45.6814 28.8286 45.7625 28.7474 45.7084C28.6663 45.6814 28.5852 45.5462 28.6122 45.438C28.6393 45.1945 28.6934 44.9782 28.7474 44.7348C28.8015 44.3561 28.8556 43.9774 28.9097 43.5988C28.9368 43.4095 28.8556 43.3013 28.6393 43.2201C28.2336 43.0579 27.8549 42.8685 27.4492 42.6792C27.314 42.6251 27.2328 42.544 27.2599 42.3817C27.2869 42.2465 27.4222 42.2194 27.5574 42.2194C28.1524 42.1924 28.7474 42.1112 29.3695 42.0301Z" fill="#00F0E9"/>
</g>
<g clip-path="url(#clip8)">
<path d="M12.3065 96.4102C11.6586 96.382 11.2642 96.044 11.2642 95.4806C11.2642 94.889 11.7431 94.4102 12.3065 94.4102C12.898 94.4102 13.3487 94.8327 13.3487 95.3961C13.3206 95.9876 12.898 96.4102 12.3065 96.4102Z" fill="#FF2968"/>
</g>
<path d="M11.107 27.6606C11.1538 28.3074 10.8635 28.7381 10.3039 28.8032C9.71633 28.8715 9.18538 28.4511 9.12034 27.8915C9.05204 27.3039 9.41972 26.8074 9.97934 26.7424C10.5702 26.7021 11.0387 27.073 11.107 27.6606Z" fill="#262C38"/>
<path d="M34.8862 58.1068C32.117 57.4633 30.3689 54.6843 31.017 51.8952L27.2517 51.0203L23.8584 65.6234C23.4649 67.3168 21.7708 68.372 20.0774 67.9785C18.384 67.585 17.3288 65.891 17.7223 64.1976C18.1158 62.5041 19.8098 61.4489 21.5033 61.8424C21.822 61.9165 22.1714 62.0397 22.447 62.2087L23.3405 58.3637C23.031 58.2498 22.7169 58.1558 22.3782 58.0771C18.5929 57.1975 14.812 59.5526 13.9324 63.3379C13.0528 67.1232 15.408 70.9041 19.1932 71.7837C22.9785 72.6633 26.7594 70.3081 27.639 66.5229L29.4352 58.793C30.5506 60.2281 32.1464 61.3128 34.0589 61.7572L34.9061 58.1114L34.8862 58.1068Z" fill="#FF0B53"/>
<path d="M34.0556 56.8021C31.2664 56.154 29.5429 53.3597 30.1864 50.5905L26.4211 49.7156L23.0278 64.3187C22.6343 66.0121 20.9402 67.0673 19.2468 66.6738C17.5534 66.2803 16.4982 64.5863 16.8917 62.8929C17.2851 61.1995 18.9792 60.1442 20.6726 60.5377C20.9914 60.6118 21.3407 60.735 21.6164 60.904L22.5099 57.059C22.2004 56.9451 21.8863 56.8511 21.5476 56.7724C17.7669 55.8729 13.986 58.228 13.1064 62.0133C12.2268 65.7986 14.582 69.5795 18.3672 70.4591C22.1525 71.3387 25.9335 68.9835 26.813 65.1983L28.6092 57.4684C29.7246 58.9035 31.3204 59.9882 33.2329 60.4326L34.0755 56.8067L34.0556 56.8021Z" fill="#00F0E9"/>
<path d="M33.8381 57.7373C32.6831 57.1959 31.7892 56.2533 31.2988 55.1104C30.4893 54.1664 30.0374 52.9484 30.0608 51.673L27.2517 51.0203L23.8584 65.6234C23.4649 67.3168 21.7708 68.372 20.0774 67.9785C18.9618 67.7193 18.1045 66.8901 17.7749 65.8686C17.0034 65.1224 16.6326 64.0073 16.8965 62.8718C17.2899 61.1784 18.984 60.1231 20.6774 60.5166C20.9962 60.5907 21.3455 60.7139 21.6212 60.8829L22.2786 58.0539C18.5193 57.2434 14.8073 59.5726 13.9324 63.3379C13.5574 64.9516 13.768 66.5754 14.4313 67.9684C15.3891 69.1779 16.7338 70.0783 18.3674 70.4579C22.1527 71.3375 25.9336 68.9824 26.8132 65.1971L28.6094 57.4672C29.7248 58.9023 31.3206 59.987 33.2331 60.4314L33.8581 57.7419L33.8381 57.7373Z" fill="#262C38"/>
<g clip-path="url(#clip9)">
<path d="M123.551 14.8777C123.516 14.8949 123.501 14.6821 123.647 14.3475C123.758 14.0302 124.013 13.5554 124.479 13.1544C124.945 12.7535 125.659 12.4092 126.509 12.4388C127.359 12.4684 128.221 12.888 128.885 13.5351C129.217 13.8586 129.531 14.2351 129.702 14.6804C129.805 14.8944 129.854 15.1786 129.886 15.4271C129.918 15.6756 129.879 15.9585 129.822 16.2057C129.673 16.7174 129.33 17.1909 128.813 17.3963C128.261 17.6189 127.661 17.4687 127.24 17.1439C127.03 16.9815 126.874 16.749 126.772 16.4464C126.687 16.1795 126.726 15.8966 126.818 15.6321C127.02 15.1389 127.361 14.8425 127.718 14.6703C128.022 14.4797 128.36 14.3604 128.644 14.3112C128.928 14.2621 129.159 14.1945 129.372 14.1797C130.206 14.0851 131.091 14.1861 131.795 14.4617C132.5 14.7373 133.061 15.1704 133.409 15.6182C133.757 16.066 133.928 16.5113 133.994 16.8311C134.008 17.1325 133.953 17.2912 133.917 17.3084C133.757 17.3416 133.589 16.7191 132.872 16.0536C132.504 15.7472 132.047 15.4397 131.43 15.2538C130.848 15.0508 130.122 15.0052 129.413 15.0838C129.236 15.0813 129.004 15.149 128.756 15.1809C128.525 15.2485 128.293 15.3162 128.044 15.4367C127.544 15.6777 127.325 16.1353 127.693 16.4416C127.867 16.6212 128.203 16.6791 128.417 16.5758C128.684 16.4909 128.901 16.2105 129.012 15.8932C129.122 15.5758 129.127 15.2216 128.955 14.8648C128.836 14.5265 128.592 14.2042 128.313 13.8991C127.772 13.3246 127.051 12.9247 126.397 12.8447C125.707 12.7819 125.066 13.0032 124.618 13.3513C124.153 13.6636 123.9 14.0499 123.736 14.3487C123.642 14.7018 123.587 14.8604 123.551 14.8777Z" fill="#262C38"/>
</g>
<g clip-path="url(#clip10)">
<path d="M133.085 29.2988C132.296 29.8674 131.517 29.8355 130.994 29.1719C130.445 28.4752 130.564 27.4664 131.228 26.9431C131.924 26.3937 132.848 26.4727 133.371 27.1363C133.887 27.8592 133.782 28.7494 133.085 29.2988Z" fill="#262C38"/>
</g>
<path d="M212.425 50.2219C212.481 50.2571 212.192 50.4693 211.585 50.5621C211.035 50.69 210.132 50.755 209.143 50.4531C208.154 50.1513 207.024 49.4473 206.302 48.2133C205.58 46.9793 205.401 45.3774 205.723 43.8523C205.884 43.0897 206.137 42.3059 206.616 41.6628C206.827 41.3236 207.187 40.9984 207.511 40.7296C207.835 40.4609 208.272 40.2625 208.674 40.1207C209.535 39.8723 210.516 39.9342 211.272 40.4835C212.085 41.068 212.411 42.0556 212.328 42.9451C212.287 43.3898 212.097 43.8207 211.759 44.2377C211.456 44.5981 211.018 44.7965 210.56 44.9031C209.678 45.0598 208.95 44.8422 208.385 44.4902C207.841 44.23 207.368 43.8566 207.042 43.4972C206.717 43.1378 206.413 42.8701 206.201 42.581C205.317 41.4814 204.665 40.1343 204.423 38.8854C204.181 37.6365 204.292 36.4506 204.616 35.5537C204.939 34.6567 205.418 34.0137 205.812 33.6319C206.228 33.3418 206.503 33.2778 206.56 33.313C206.751 33.5103 206.018 34.3091 205.717 35.9259C205.613 36.7237 205.586 37.6484 205.877 38.6925C206.112 39.7014 206.699 40.7733 207.449 41.7108C207.605 41.9647 207.909 42.2324 208.177 42.5566C208.481 42.8243 208.785 43.092 209.181 43.3384C209.972 43.8312 210.819 43.731 210.924 42.9333C211.022 42.5237 210.802 41.9947 210.463 41.7835C210.102 41.4806 209.509 41.4251 208.959 41.5531C208.409 41.681 207.901 41.9924 207.549 42.5576C207.176 43.0311 206.937 43.6668 206.754 44.3376C206.425 45.6227 206.505 47.006 206.979 48.0075C207.51 49.0442 208.401 49.7556 209.298 50.0788C210.159 50.4585 210.936 50.4714 211.508 50.4352C212.093 50.2507 212.368 50.1867 212.425 50.2219Z" fill="#FF0B53"/>
</g>
<defs>
<filter id="filter0_f" x="23" y="81" width="156" height="26" filterUnits="userSpaceOnUse" color-interpolation-filters="sRGB">
<feFlood flood-opacity="0" result="BackgroundImageFix"/>
<feBlend mode="normal" in="SourceGraphic" in2="BackgroundImageFix" result="shape"/>
<feGaussianBlur stdDeviation="5" result="effect1_foregroundBlur"/>
</filter>
<linearGradient id="paint0_linear" x1="186" y1="84" x2="267.5" y2="84.5" gradientUnits="userSpaceOnUse">
<stop stop-color="#14E1DF"/>
<stop offset="1" stop-color="#E52A62"/>
</linearGradient>
<clipPath id="clip0">
<rect width="277" height="105.82" fill="white"/>
</clipPath>
<clipPath id="clip1">
<rect width="12.8115" height="14.1448" fill="white" transform="translate(164.053 18.0801) rotate(135.45)"/>
</clipPath>
<clipPath id="clip2">
<rect width="3.08451" height="3" fill="white" transform="translate(175 17)"/>
</clipPath>
<clipPath id="clip3">
<rect width="11" height="12.1448" fill="white" transform="translate(211 54)"/>
</clipPath>
<clipPath id="clip4">
<rect width="2.05634" height="2" fill="white" transform="translate(214 14)"/>
</clipPath>
<clipPath id="clip5">
<rect width="3.08451" height="3" fill="white" transform="translate(237.846 28)"/>
</clipPath>
<clipPath id="clip6">
<rect width="10.904" height="10.1" fill="white" transform="translate(17.3027 28.9971) rotate(-96.6294)"/>
</clipPath>
<clipPath id="clip7">
<rect width="11" height="12.1448" fill="white" transform="translate(27.2642 36.4102)"/>
</clipPath>
<clipPath id="clip8">
<rect width="2.05634" height="2" fill="white" transform="translate(11.2642 94.4102)"/>
</clipPath>
<clipPath id="clip9">
<rect width="8.5957" height="7.96192" fill="white" transform="translate(134.202 17.1709) rotate(154.238)"/>
</clipPath>
<clipPath id="clip10">
<rect width="3.08451" height="3" fill="white" transform="translate(130 27.9111) rotate(-38.2574)"/>
</clipPath>
</defs>
</svg>
