<svg width="277" height="106" viewBox="0 0 277 106" fill="none" xmlns="http://www.w3.org/2000/svg">
<g clip-path="url(#clip0)">
<g filter="url(#filter0_f)">
<ellipse cx="101" cy="94" rx="68" ry="3" fill="#C4C4C4" fill-opacity="0.5"/>
</g>
<path d="M58.1133 92H43.6113L51.7852 44.9785L36.8877 49.1973L38.9092 37.4639L67.21 28.0156L68.8359 27.9717L58.1133 92ZM129.48 36.585L97.9277 92H82.1074L113.528 39.4414H84.2168L86.0625 28.0156H130.843L129.48 36.585ZM150.53 92.8789C146.897 92.791 143.719 91.9414 140.994 90.3301C138.299 88.6895 136.219 86.3018 134.754 83.167C133.289 80.0029 132.498 76.4141 132.381 72.4004C132.293 70.2324 132.381 68.0498 132.645 65.8525L134.314 54.6904C135.662 45.6963 138.548 38.8262 142.972 34.0801C147.396 29.3047 153.035 26.9902 159.891 27.1367C165.457 27.2539 169.808 29.1289 172.942 32.7617C176.106 36.3945 177.806 41.3457 178.04 47.6152C178.099 49.7832 177.996 51.9658 177.732 54.1631L175.975 65.5449C174.568 74.6562 171.653 81.5264 167.229 86.1553C162.835 90.7842 157.269 93.0254 150.53 92.8789ZM163.582 52.1855C163.846 50.1348 163.992 48.333 164.021 46.7803C164.021 41.4189 162.322 38.6504 158.924 38.4746C153.709 38.2109 150.472 42.6787 149.212 51.8779L146.883 67.6982C146.59 70.1299 146.443 71.9316 146.443 73.1035C146.297 78.5234 147.981 81.3359 151.497 81.541C156.8 81.8047 160.066 77.2197 161.297 67.7861L163.582 52.1855Z" fill="#EF3829"/>
<path d="M58.1133 92V95H60.6527L61.0721 92.4955L58.1133 92ZM43.6113 92L40.6557 91.4862L40.0448 95H43.6113V92ZM51.7852 44.9785L54.7408 45.4923L55.5579 40.7922L50.9677 42.092L51.7852 44.9785ZM36.8877 49.1973L33.9313 48.6879L33.1226 53.3815L37.7051 52.0838L36.8877 49.1973ZM38.9092 37.4639L37.9592 34.6183L36.2574 35.1864L35.9527 36.9545L38.9092 37.4639ZM67.21 28.0156L67.1289 25.0167L66.683 25.0288L66.26 25.17L67.21 28.0156ZM68.8359 27.9717L71.7947 28.4672L72.3964 24.8744L68.7549 24.9728L68.8359 27.9717ZM58.1133 89H43.6113V95H58.1133V89ZM46.567 92.5138L54.7408 45.4923L48.8295 44.4647L40.6557 91.4862L46.567 92.5138ZM50.9677 42.092L36.0703 46.3108L37.7051 52.0838L52.6026 47.865L50.9677 42.092ZM39.8441 49.7066L41.8656 37.9732L35.9527 36.9545L33.9313 48.6879L39.8441 49.7066ZM39.8592 40.3095L68.16 30.8612L66.26 25.17L37.9592 34.6183L39.8592 40.3095ZM67.291 31.0145L68.917 30.9706L68.7549 24.9728L67.1289 25.0167L67.291 31.0145ZM65.8771 27.4762L55.1545 91.5045L61.0721 92.4955L71.7947 28.4672L65.8771 27.4762ZM129.48 36.585L132.087 38.0694L132.358 37.595L132.443 37.056L129.48 36.585ZM97.9277 92V95H99.6718L100.535 93.4844L97.9277 92ZM82.1074 92L79.5325 90.4606L76.8187 95H82.1074V92ZM113.528 39.4414L116.103 40.9808L118.817 36.4414H113.528V39.4414ZM84.2168 39.4414L81.2552 38.963L80.6933 42.4414H84.2168V39.4414ZM86.0625 28.0156V25.0156H83.5082L83.1009 27.5372L86.0625 28.0156ZM130.843 28.0156L133.806 28.4866L134.357 25.0156H130.843V28.0156ZM126.873 35.1006L95.3207 90.5156L100.535 93.4844L132.087 38.0694L126.873 35.1006ZM97.9277 89H82.1074V95H97.9277V89ZM84.6824 93.5394L116.103 40.9808L110.953 37.902L79.5325 90.4606L84.6824 93.5394ZM113.528 36.4414H84.2168V42.4414H113.528V36.4414ZM87.1784 39.9198L89.0241 28.494L83.1009 27.5372L81.2552 38.963L87.1784 39.9198ZM86.0625 31.0156H130.843V25.0156H86.0625V31.0156ZM127.88 27.5446L126.518 36.114L132.443 37.056L133.806 28.4866L127.88 27.5446ZM150.53 92.8789L150.458 95.878L150.465 95.8782L150.53 92.8789ZM140.994 90.3301L139.434 92.8927L139.451 92.9026L139.467 92.9123L140.994 90.3301ZM134.754 83.167L132.031 84.4274L132.036 84.437L134.754 83.167ZM132.381 72.4004L135.38 72.3128L135.379 72.2958L135.378 72.2789L132.381 72.4004ZM132.645 65.8525L129.678 65.4087L129.671 65.4518L129.666 65.4951L132.645 65.8525ZM134.314 54.6904L131.348 54.2459L131.347 54.2466L134.314 54.6904ZM142.972 34.0801L145.166 36.1256L145.172 36.1188L142.972 34.0801ZM159.891 27.1367L159.827 30.136L159.827 30.1361L159.891 27.1367ZM172.942 32.7617L170.671 34.7216L170.68 34.7321L172.942 32.7617ZM178.04 47.6152L181.039 47.5342L181.039 47.5187L181.038 47.5032L178.04 47.6152ZM177.732 54.1631L180.697 54.621L180.705 54.5709L180.711 54.5205L177.732 54.1631ZM175.975 65.5449L173.01 65.087L173.01 65.0873L175.975 65.5449ZM167.229 86.1553L165.061 84.0825L165.054 84.0897L167.229 86.1553ZM163.582 52.1855L166.55 52.6203L166.554 52.5943L166.558 52.5681L163.582 52.1855ZM164.021 46.7803L167.021 46.8369L167.021 46.8086V46.7803H164.021ZM158.924 38.4746L159.079 35.4786L159.075 35.4784L158.924 38.4746ZM149.212 51.8779L152.18 52.3149L152.182 52.2999L152.184 52.285L149.212 51.8779ZM146.883 67.6982L143.915 67.2613L143.909 67.3003L143.904 67.3394L146.883 67.6982ZM146.443 73.1035L149.442 73.1846L149.443 73.144V73.1035H146.443ZM151.497 81.541L151.322 84.5359L151.335 84.5367L151.348 84.5373L151.497 81.541ZM161.297 67.7861L158.329 67.3513L158.325 67.3747L158.322 67.3981L161.297 67.7861ZM150.603 89.8798C147.406 89.8024 144.743 89.0617 142.521 87.7479L139.467 92.9123C142.695 94.8211 146.389 95.7796 150.458 95.878L150.603 89.8798ZM142.554 87.7675C140.412 86.4638 138.712 84.5501 137.472 81.8969L132.036 84.437C133.726 88.0534 136.186 90.9152 139.434 92.8927L142.554 87.7675ZM137.476 81.9066C136.206 79.1624 135.487 75.9819 135.38 72.3128L129.382 72.4879C129.509 76.8462 130.372 80.8434 132.032 84.4274L137.476 81.9066ZM135.378 72.2789C135.297 70.274 135.378 68.2515 135.623 66.21L129.666 65.4951C129.384 67.8481 129.289 70.1909 129.383 72.5219L135.378 72.2789ZM135.612 66.2964L137.281 55.1343L131.347 54.2466L129.678 65.4087L135.612 66.2964ZM137.281 55.135C138.574 46.5077 141.291 40.2828 145.166 36.1256L140.777 32.0346C135.804 37.3695 132.75 44.8848 131.348 54.2459L137.281 55.135ZM145.172 36.1188C148.979 32.0098 153.777 30.0068 159.827 30.136L159.955 24.1374C152.294 23.9737 145.812 26.5996 140.771 32.0413L145.172 36.1188ZM159.827 30.1361C164.694 30.2385 168.183 31.838 170.671 34.7216L175.214 30.8018C171.432 26.4198 166.22 24.2693 159.954 24.1374L159.827 30.1361ZM170.68 34.7321C173.273 37.7092 174.826 41.9337 175.042 47.7273L181.038 47.5032C180.786 40.7577 178.94 35.0798 175.205 30.7914L170.68 34.7321ZM175.041 47.6963C175.096 49.7148 175 51.7509 174.754 53.8057L180.711 54.5205C180.992 52.1808 181.102 49.8516 181.039 47.5342L175.041 47.6963ZM174.768 53.7052L173.01 65.087L178.939 66.0028L180.697 54.621L174.768 53.7052ZM173.01 65.0873C171.658 73.8473 168.911 80.054 165.061 84.0825L169.398 88.228C174.396 82.9987 177.479 75.4652 178.94 66.0025L173.01 65.0873ZM165.054 84.0897C161.277 88.0679 156.542 90.0089 150.595 89.8796L150.465 95.8782C157.995 96.0419 164.393 93.5005 169.405 88.2208L165.054 84.0897ZM166.558 52.5681C166.831 50.4422 166.989 48.5275 167.021 46.8369L161.022 46.7237C160.995 48.1386 160.861 49.8273 160.607 51.803L166.558 52.5681ZM167.021 46.7803C167.021 43.8682 166.575 41.1849 165.304 39.1136C163.909 36.8407 161.709 35.6147 159.079 35.4786L158.769 41.4706C159.537 41.5103 159.886 41.7565 160.19 42.2521C160.618 42.9494 161.021 44.331 161.021 46.7803H167.021ZM159.075 35.4784C155.387 35.2919 152.329 36.8673 150.155 39.8674C148.113 42.6864 146.896 46.6755 146.24 51.4709L152.184 52.285C152.787 47.8812 153.819 45.0368 155.014 43.3879C156.077 41.9203 157.246 41.3936 158.772 41.4708L159.075 35.4784ZM146.244 51.441L143.915 67.2613L149.851 68.1352L152.18 52.3149L146.244 51.441ZM143.904 67.3394C143.609 69.791 143.443 71.7418 143.443 73.1035H149.443C149.443 72.1214 149.571 70.4687 149.861 68.0571L143.904 67.3394ZM143.444 73.0225C143.365 75.9681 143.754 78.6994 145.023 80.8193C146.419 83.1492 148.661 84.3807 151.322 84.5359L151.672 78.5461C150.818 78.4963 150.46 78.219 150.171 77.7363C149.756 77.0438 149.375 75.6589 149.442 73.1846L143.444 73.0225ZM151.348 84.5373C155.093 84.7235 158.184 83.106 160.367 80.0408C162.419 77.1607 163.631 73.0839 164.272 68.1742L158.322 67.3981C157.732 71.922 156.695 74.8544 155.481 76.5593C154.398 78.0791 153.204 78.6222 151.646 78.5447L151.348 84.5373ZM164.265 68.2209L166.55 52.6203L160.614 51.7508L158.329 67.3513L164.265 68.2209Z" fill="#EF3829"/>
<path d="M200.71 88.3779C199.909 89.3154 198.742 90.043 197.209 90.5605C195.676 91.0684 193.977 91.3076 192.111 91.2783C190.324 91.2588 188.815 90.8096 187.585 89.9307C186.354 89.0518 185.476 87.8262 184.948 86.2539C184.421 84.6816 184.279 82.9092 184.523 80.9365L184.641 80.0576C185.09 76.7471 186.252 74.125 188.127 72.1914C190.012 70.2578 192.316 69.3154 195.041 69.3643C197.424 69.4033 199.255 70.043 200.534 71.2832C201.813 72.5234 202.526 74.3154 202.673 76.6592L197.868 76.6445C197.8 75.502 197.517 74.667 197.019 74.1396C196.53 73.6123 195.832 73.334 194.924 73.3047C193.576 73.2559 192.463 73.7881 191.584 74.9014C190.705 76.0049 190.104 77.5869 189.782 79.6475C189.509 81.4053 189.411 82.7725 189.489 83.749C189.636 86.1025 190.695 87.2939 192.668 87.3232C193.859 87.3428 194.904 87.0547 195.803 86.459L196.462 83.1338H192.99L193.605 79.6035H202.087L200.71 88.3779ZM208.356 91H203.347L207.053 69.6719H212.048L208.356 91ZM229.626 88.3779C228.825 89.3154 227.658 90.043 226.125 90.5605C224.592 91.0684 222.893 91.3076 221.027 91.2783C219.24 91.2588 217.731 90.8096 216.501 89.9307C215.271 89.0518 214.392 87.8262 213.864 86.2539C213.337 84.6816 213.195 82.9092 213.439 80.9365L213.557 80.0576C214.006 76.7471 215.168 74.125 217.043 72.1914C218.928 70.2578 221.232 69.3154 223.957 69.3643C226.34 69.4033 228.171 70.043 229.45 71.2832C230.729 72.5234 231.442 74.3154 231.589 76.6592L226.784 76.6445C226.716 75.502 226.433 74.667 225.935 74.1396C225.446 73.6123 224.748 73.334 223.84 73.3047C222.492 73.2559 221.379 73.7881 220.5 74.9014C219.621 76.0049 219.021 77.5869 218.698 79.6475C218.425 81.4053 218.327 82.7725 218.405 83.749C218.552 86.1025 219.611 87.2939 221.584 87.3232C222.775 87.3428 223.82 87.0547 224.719 86.459L225.378 83.1338H221.906L222.521 79.6035H231.003L229.626 88.3779ZM244.45 87.0156H237.639L235.749 91H230.227L241.521 69.6719H246.237L250.178 91H244.963L244.45 87.0156ZM239.514 83.0459H243.938L243 75.6924L239.514 83.0459ZM263.625 85.2285C263.84 84.125 263.244 83.2705 261.838 82.665L259.436 81.6689C256.066 80.1553 254.465 78.0947 254.631 75.4873C254.699 74.2959 255.109 73.2363 255.861 72.3086C256.613 71.3711 257.653 70.6436 258.981 70.126C260.31 69.6084 261.76 69.3594 263.332 69.3789C265.441 69.418 267.136 70.0332 268.415 71.2246C269.704 72.416 270.339 74.0127 270.319 76.0146H265.339C265.368 75.1943 265.192 74.54 264.812 74.0518C264.44 73.5537 263.825 73.2949 262.966 73.2754C262.126 73.2559 261.384 73.4512 260.739 73.8613C260.095 74.2715 259.714 74.8232 259.597 75.5166C259.411 76.4932 260.134 77.2939 261.765 77.9189C263.405 78.5439 264.597 79.0811 265.339 79.5303C267.673 80.9268 268.767 82.8115 268.62 85.1846C268.542 86.415 268.146 87.4941 267.434 88.4219C266.721 89.3496 265.729 90.0674 264.46 90.5752C263.2 91.083 261.784 91.3271 260.212 91.3076C259.06 91.2881 257.99 91.1074 257.004 90.7656C256.018 90.4238 255.173 89.9258 254.47 89.2715C253.044 87.9531 252.36 86.2197 252.419 84.0713L257.443 84.0859C257.385 85.1797 257.595 86.0098 258.073 86.5762C258.552 87.1328 259.357 87.4111 260.49 87.4111C261.33 87.4111 262.028 87.2207 262.585 86.8398C263.151 86.4492 263.498 85.9121 263.625 85.2285Z" fill="url(#paint0_linear)"/>
<g clip-path="url(#clip1)">
<path d="M45.0542 91.4114L45.1177 90.8465L45.9139 83.5755L44.7184 83.5058C44.6642 83.4835 44.61 83.4612 44.5591 83.4825L44.5336 83.4931L30.3358 82.6544L31.5276 94.9437L44.638 95.0395L45.0542 91.4114Z" fill="#262C38"/>
<path d="M39.6538 83.1967C39.9126 85.6461 40.577 91.8295 40.9262 95.0337L34.7607 94.9878L36.9113 83.0394L39.6538 83.1967Z" fill="#00F0E9"/>
<path opacity="0.19" d="M30.3358 82.6568L45.9033 83.5524L45.429 87.9376C40.5396 87.5091 35.6246 87.0912 30.7352 86.6627L30.3358 82.6568Z" fill="#248D8A"/>
<path d="M48.3647 80.9551L46.5164 84.9861L29.2056 84.4287L27.634 80.1939L48.3647 80.9551Z" fill="#262C38"/>
<path d="M40.4578 80.6763L39.8231 84.7844L36.6198 84.6696L36.3849 80.5204L40.4578 80.6763Z" fill="#4D8493"/>
<path d="M38.7229 80.5339C40.5756 80.4941 42.4176 80.0699 44.0748 79.2741C44.785 78.9331 45.5217 78.4763 45.7285 77.7171C45.9501 76.9218 45.5305 76.0948 45.1279 75.3804C45.0174 75.1872 44.9069 74.994 44.789 74.8188C44.4247 74.2679 43.9764 73.7669 43.351 73.594C42.3603 73.3342 41.0376 74.0354 40.3488 74.7862C39.0146 76.2848 38.8338 78.4688 38.7091 80.4649C38.7378 80.4978 38.7303 80.5159 38.7229 80.5339ZM38.9224 80.1516C39.4169 79.2575 40.1711 77.0138 43.3388 75.2143C43.444 75.5742 42.6671 76.4365 42.6056 76.7912C42.454 77.4675 42.0348 78.076 41.537 78.5678C40.8046 79.3218 39.9076 79.8604 38.9224 80.1516Z" fill="#00F0E9"/>
<path d="M38.9224 80.1512C39.897 79.8345 40.812 79.3033 41.5295 78.5854C42.0273 78.0936 42.4465 77.4851 42.5982 76.8087C42.6851 76.4435 42.6744 76.0591 42.5692 75.6992C43.2591 75.2021 44.0129 74.8579 44.807 74.8258C44.9249 75.0009 45.0354 75.1941 45.1459 75.3873C45.5666 76.1092 45.9862 76.9362 45.7465 77.7241C45.5217 78.4758 44.803 78.94 44.0928 79.2811C42.4176 80.0694 40.5756 80.4936 38.741 80.5409C38.7229 80.5334 38.8004 80.3965 38.9224 80.1512Z" fill="#4D8493"/>
<path d="M31.532 78.2093C31.7966 78.9514 32.5792 79.3578 33.3013 79.6549C35.0236 80.3423 36.8839 80.6433 38.7334 80.5599C38.4812 78.5565 37.7776 76.3674 36.3523 74.9579C35.6344 74.2403 34.6075 73.6068 33.6435 73.949C33.0288 74.1604 32.6213 74.6893 32.2966 75.2734C32.1968 75.4645 32.0897 75.6737 31.9899 75.8649C31.6132 76.5753 31.2461 77.4163 31.532 78.2093ZM34.5625 75.9734C36.4326 77.1227 37.941 79.3052 38.487 80.1841C37.4889 79.9424 36.5618 79.4766 35.7855 78.7983C35.2608 78.3292 34.7988 77.7592 34.5916 77.0829C34.5044 76.7305 34.4756 76.3387 34.5625 75.9734Z" fill="#00F0E9"/>
<path d="M38.5126 80.1728C37.5145 79.931 36.5875 79.4652 35.8111 78.787C35.2865 78.3178 34.8245 77.7478 34.6172 77.0716C34.512 76.7117 34.5012 76.3273 34.5701 75.9546C33.8459 75.5089 33.0803 75.2151 32.2755 75.2217C32.1758 75.4128 32.0686 75.622 31.9688 75.8132C31.6028 76.5491 31.2282 77.4081 31.5141 78.2012C31.7787 78.9432 32.5613 79.3496 33.2834 79.6467C35.0057 80.3342 36.866 80.6351 38.7155 80.5518C38.723 80.5337 38.6518 80.3989 38.5126 80.1728Z" fill="#4D8493"/>
<path d="M38.6645 80.5727C39.019 80.2753 39.8854 80.2729 40.2857 80.4798C40.6967 80.7122 40.9867 81.0848 41.2331 81.4606C41.4721 81.8544 41.7037 82.2663 42.0266 82.6102C42.4822 83.0931 43.1172 83.3966 43.7692 83.4537C43.0855 83.679 42.5888 84.4245 41.8488 84.4789C41.2574 84.5311 40.7253 84.08 40.4077 83.5694C40.1156 83.0482 39.9838 82.4452 39.768 81.8921C39.5778 81.3284 39.2315 80.7849 38.6645 80.5727Z" fill="#00F0E9"/>
<g opacity="0.25">
<path opacity="0.25" d="M38.6645 80.5727C39.019 80.2753 39.8854 80.2729 40.2857 80.4798C40.6967 80.7122 40.9867 81.0848 41.2331 81.4606C41.4721 81.8544 41.7037 82.2663 42.0266 82.6102C42.4822 83.0931 43.1172 83.3966 43.7692 83.4537C43.0855 83.679 42.5888 84.4245 41.8488 84.4789C41.2574 84.5311 40.7253 84.08 40.4077 83.5694C40.1156 83.0482 39.9838 82.4452 39.768 81.8921C39.5778 81.3284 39.2315 80.7849 38.6645 80.5727Z" fill="#00F0E9"/>
</g>
<path d="M43.6391 81.5643C43.9151 81.509 43.8396 81.0769 43.5636 81.1322C43.2875 81.1875 43.3631 81.6196 43.6391 81.5643Z" fill="#3CBCB5"/>
<path d="M45.8024 83.1296C46.1219 83.0711 46.0252 82.588 45.7056 82.6465C45.4041 82.7124 45.5008 83.1955 45.8024 83.1296Z" fill="#3CBCB5"/>
<path d="M46.6047 81.8984C46.6153 81.9239 46.6259 81.9493 46.6546 81.9822C46.7045 82.0661 46.7799 82.1393 46.8299 82.2232C46.8766 82.2635 46.9233 82.3039 46.9849 82.3081C47.0465 82.3123 47.1155 82.2985 47.1558 82.2518C47.1813 82.2411 47.1961 82.205 47.2036 82.187C47.2184 82.1509 47.2259 82.1328 47.2407 82.0967C47.2556 82.0606 47.2449 82.0351 47.2343 82.0097C47.2237 81.9842 47.2131 81.9587 47.1844 81.9258C47.1345 81.8419 47.059 81.7687 47.0017 81.7029C46.955 81.6626 46.9008 81.6403 46.8467 81.618C46.7851 81.6138 46.7341 81.635 46.6757 81.6743C46.6503 81.685 46.6354 81.7211 46.628 81.7391C46.6131 81.7752 46.6057 81.7933 46.5908 81.8294C46.5908 81.8294 46.594 81.8729 46.6047 81.8984Z" fill="#3CBCB5"/>
<path d="M31.8712 82.8235C32.1472 82.7682 32.0717 82.3361 31.7957 82.3914C31.5016 82.4392 31.5952 82.8788 31.8712 82.8235Z" fill="#3CBCB5"/>
<path d="M33.783 81.9212C34.1025 81.8627 34.0058 81.3797 33.6862 81.4382C33.3741 81.4786 33.4634 81.9797 33.783 81.9212Z" fill="#3CBCB5"/>
<path d="M34.8553 81.623C34.8659 81.6485 34.8765 81.6739 34.9052 81.7069C34.9551 81.7907 35.0306 81.864 35.0805 81.9478C35.1272 81.9881 35.1739 82.0285 35.2355 82.0327C35.2971 82.0369 35.3661 82.0231 35.4064 81.9764C35.4319 81.9658 35.4468 81.9297 35.4542 81.9116C35.4691 81.8755 35.4765 81.8574 35.4913 81.8213C35.5062 81.7852 35.4956 81.7598 35.4849 81.7343C35.4743 81.7088 35.4637 81.6833 35.435 81.6504C35.3851 81.5666 35.3097 81.4933 35.2523 81.4275C35.2056 81.3872 35.1514 81.3649 35.0973 81.3426C35.0357 81.3384 34.9847 81.3596 34.9264 81.3989C34.9009 81.4096 34.886 81.4457 34.8786 81.4637C34.8637 81.4998 34.8563 81.5179 34.8415 81.554C34.8415 81.554 34.8521 81.5795 34.8553 81.623Z" fill="#3CBCB5"/>
<path d="M29.7919 81.5671C29.4723 81.6256 29.5691 82.1086 29.8887 82.0501C30.1902 81.9842 30.0934 81.5012 29.7919 81.5671Z" fill="#3CBCB5"/>
<path d="M31.4319 83.9927C31.4787 84.0331 31.5254 84.0734 31.587 84.0776C31.6486 84.0819 31.7176 84.068 31.7579 84.0213C31.7834 84.0107 31.7982 83.9746 31.8057 83.9565C31.8205 83.9204 31.828 83.9024 31.8428 83.8663C31.8577 83.8302 31.847 83.8047 31.8364 83.7792C31.8258 83.7537 31.8152 83.7282 31.7865 83.6953C31.7366 83.6115 31.6611 83.5382 31.6038 83.4724C31.5571 83.4321 31.5029 83.4098 31.4488 83.3875C31.3872 83.3833 31.3362 83.4046 31.2778 83.4439C31.2523 83.4545 31.2375 83.4906 31.2301 83.5086C31.2152 83.5447 31.2078 83.5628 31.1929 83.5989C31.1781 83.635 31.1887 83.6605 31.1993 83.686C31.21 83.7114 31.2206 83.7369 31.2493 83.7698C31.314 83.8176 31.382 83.9089 31.4319 83.9927Z" fill="#3CBCB5"/>
<path d="M38.7951 80.5625C38.417 80.3015 37.5612 80.3293 37.16 80.5864C36.7662 80.8254 36.4977 81.2215 36.2833 81.6399C36.0509 82.0509 35.8546 82.4767 35.5649 82.8219C35.1467 83.3252 34.5342 83.6854 33.8664 83.7694C34.5714 83.954 35.1046 84.6588 35.8404 84.666C36.4276 84.6754 36.9434 84.1911 37.2023 83.6644C37.4687 83.1196 37.5471 82.5187 37.7337 81.9622C37.9279 81.3878 38.2526 80.8037 38.7951 80.5625Z" fill="#00F0E9"/>
<g opacity="0.25">
<path opacity="0.25" d="M38.7951 80.5625C38.417 80.3015 37.5612 80.3293 37.16 80.5864C36.7662 80.8254 36.4977 81.2215 36.2833 81.6399C36.0509 82.0509 35.8546 82.4767 35.5649 82.8219C35.1467 83.3252 34.5342 83.6854 33.8664 83.7694C34.5714 83.954 35.1046 84.6588 35.8404 84.666C36.4276 84.6754 36.9434 84.1911 37.2023 83.6644C37.4687 83.1196 37.5471 82.5187 37.7337 81.9622C37.9279 81.3878 38.2526 80.8037 38.7951 80.5625Z" fill="#00F0E9"/>
</g>
<path d="M38.0975 80.3603C38.158 80.1108 38.3202 79.4599 38.5888 79.4227C38.9264 79.3716 39.2017 80.1391 39.2209 80.4003C39.2688 81.0533 37.9056 81.0834 38.0975 80.3603Z" fill="#ABCDD6"/>
</g>
<g clip-path="url(#clip2)">
<path d="M25.8756 95.1131C26.1842 95.4265 26.4771 95.7554 26.7699 96.0842C26.9551 96.2723 27.1248 96.4447 27.3099 96.6327C27.3716 96.6954 27.4644 96.7583 27.4012 96.8822C27.3224 97.0216 27.1985 96.9584 27.1209 96.9422C26.5004 96.7508 25.8955 96.5439 25.2907 96.337C25.2441 96.321 25.1976 96.3051 25.1357 96.2735C24.9939 96.5057 24.8521 96.7378 24.7103 96.97C24.5686 97.2021 24.3957 97.434 24.2539 97.6662C24.1753 97.7744 24.0663 97.7891 23.9892 97.7107C23.9275 97.648 23.9126 97.5702 23.8822 97.4766C23.807 97.1495 23.7164 96.8067 23.6726 96.4487C23.6432 96.2307 23.5508 96.1056 23.3491 96.0574C23.0077 95.9614 22.682 95.85 22.3718 95.7542C22.2633 95.7067 22.1702 95.6749 22.0774 95.612C21.8918 95.4861 21.9398 95.3154 22.1585 95.1928C22.2523 95.1313 22.3612 95.1166 22.4704 95.0708C22.8603 94.9339 23.2501 94.797 23.6399 94.6601C23.9051 94.5533 23.9208 94.5379 23.923 94.258C23.9418 93.8383 23.9764 93.4032 23.9798 92.9678C23.98 92.9367 23.9648 92.8899 23.9808 92.8434C24.028 92.766 24.0601 92.6419 24.138 92.6269C24.2004 92.5963 24.3245 92.6284 24.3706 92.7065C24.4938 92.863 24.5858 93.0192 24.6933 93.1911C24.878 93.4413 25.0626 93.6916 25.2473 93.9419C25.3396 94.067 25.4483 94.0834 25.62 94.007C25.9476 93.8696 26.275 93.7633 26.6181 93.6416C26.7273 93.5958 26.8206 93.5965 26.8975 93.706C26.9589 93.7998 26.896 93.8926 26.8176 93.9697C26.4883 94.3248 26.1898 94.7112 25.8756 95.1131Z" fill="#00F0E9"/>
</g>
<g clip-path="url(#clip3)">
<path d="M213.105 59.6199C213.105 59.079 213.132 58.5381 213.159 57.9971C213.159 57.6726 213.159 57.3751 213.159 57.0505C213.159 56.9423 213.132 56.8071 213.295 56.753C213.484 56.6989 213.538 56.8612 213.592 56.9423C213.971 57.6455 214.322 58.3488 214.674 59.052C214.701 59.1061 214.728 59.1601 214.755 59.2413C215.08 59.1601 215.404 59.079 215.729 58.9979C216.053 58.9167 216.405 58.8626 216.73 58.7815C216.892 58.7544 217 58.8356 217 58.9708C217 59.079 216.946 59.1601 216.892 59.2683C216.675 59.6199 216.459 59.9986 216.189 60.3502C216.026 60.5666 215.999 60.7559 216.135 60.9723C216.351 61.3509 216.54 61.7296 216.73 62.0812C216.784 62.2164 216.838 62.3246 216.865 62.4598C216.919 62.7303 216.73 62.8385 216.432 62.7573C216.297 62.7303 216.189 62.6492 216.053 62.5951C215.594 62.3787 215.134 62.1623 214.674 61.9459C214.349 61.8107 214.322 61.8107 214.079 62.0541C213.7 62.4057 213.295 62.7573 212.916 63.136C212.889 63.163 212.862 63.2171 212.808 63.2442C212.7 63.2712 212.564 63.3524 212.483 63.2983C212.402 63.2712 212.321 63.136 212.348 63.0278C212.375 62.7844 212.429 62.568 212.483 62.3246C212.537 61.9459 212.591 61.5673 212.646 61.1886C212.673 60.9993 212.591 60.8911 212.375 60.81C211.969 60.6477 211.591 60.4584 211.185 60.2691C211.05 60.215 210.969 60.1338 210.996 59.9715C211.023 59.8363 211.158 59.8093 211.293 59.8093C211.888 59.7822 212.483 59.7011 213.105 59.6199Z" fill="#00F0E9"/>
</g>
<g clip-path="url(#clip4)">
<path d="M215.042 16C214.394 15.9718 214 15.6338 214 15.0704C214 14.4789 214.479 14 215.042 14C215.634 14 216.085 14.4225 216.085 14.9859C216.056 15.5775 215.634 16 215.042 16Z" fill="#262C38"/>
</g>
<g clip-path="url(#clip5)">
<path d="M239.409 31C238.437 30.9577 237.846 30.4507 237.846 29.6056C237.846 28.7183 238.564 28 239.409 28C240.296 28 240.972 28.6338 240.972 29.4789C240.93 30.3662 240.296 31 239.409 31Z" fill="#262C38"/>
</g>
<circle cx="240.5" cy="62.1445" r="1.5" fill="#FF0B53"/>
<path d="M259.648 33.66C256.627 35.0442 253.024 33.724 251.63 30.6817L247.523 32.5639L254.823 48.4924C255.669 50.3395 254.857 52.5261 253.01 53.3726C251.163 54.2191 248.976 53.4068 248.13 51.5597C247.283 49.7126 248.096 47.5261 249.943 46.6796C250.29 46.5202 250.701 46.3844 251.077 46.3437L249.155 42.1497C248.788 42.2656 248.43 42.4032 248.061 42.5725C243.932 44.4647 242.119 49.3449 244.011 53.4737C245.903 57.6025 250.783 59.4153 254.912 57.5231C259.041 55.6309 260.854 50.7508 258.962 46.622L255.098 38.1905C257.155 38.7203 259.406 38.5827 261.492 37.6267L259.669 33.65L259.648 33.66Z" fill="#FF0B53"/>
<path d="M257.946 33.0467C254.904 34.4409 251.313 33.089 249.929 30.0684L245.822 31.9507L253.122 47.8791C253.968 49.7262 253.156 51.9128 251.309 52.7593C249.462 53.6058 247.275 52.7936 246.429 50.9465C245.582 49.0994 246.394 46.9128 248.241 46.0663C248.589 45.907 249 45.7712 249.376 45.7304L247.454 41.5364C247.086 41.6523 246.729 41.7899 246.359 41.9592C242.22 43.8297 240.408 48.7098 242.3 52.8386C244.192 56.9675 249.072 58.7803 253.201 56.8881C257.33 54.9959 259.143 50.1158 257.25 45.987L253.386 37.5555C255.444 38.0853 257.694 37.9477 259.781 36.9917L257.968 33.0367L257.946 33.0467Z" fill="#00F0E9"/>
<path d="M258.414 34.0673C256.959 34.3923 255.459 34.1596 254.189 33.4533C252.765 33.159 251.477 32.3558 250.587 31.1597L247.523 32.5639L254.823 48.4924C255.669 50.3395 254.857 52.5261 253.01 53.3726C251.793 53.9303 250.408 53.7763 249.373 53.0673C248.126 52.9287 246.986 52.1627 246.419 50.9241C245.572 49.077 246.384 46.8904 248.232 46.0439C248.579 45.8846 248.99 45.7488 249.366 45.708L247.952 42.6223C243.896 44.5598 242.129 49.3666 244.011 53.4737C244.818 55.2338 246.173 56.5848 247.782 57.3988C249.532 57.8326 251.419 57.7041 253.201 56.8875C257.33 54.9953 259.143 50.1151 257.25 45.9863L253.386 37.5549C255.444 38.0846 257.694 37.9471 259.781 36.991L258.436 34.0574L258.414 34.0673Z" fill="#262C38"/>
<g clip-path="url(#clip6)">
<path d="M24.4791 17.1869C24.4733 17.137 24.7344 17.2078 25.0745 17.5224C25.4088 17.7871 25.8719 18.2897 26.1586 19.0152C26.4452 19.7407 26.5613 20.739 26.1724 21.7453C25.7835 22.7517 24.9221 23.6106 23.8705 24.1375C23.3446 24.401 22.7631 24.6203 22.1583 24.64C21.8588 24.6748 21.4978 24.6156 21.1868 24.5506C20.8757 24.4856 20.553 24.3207 20.2802 24.1501C19.7289 23.7589 19.3041 23.1506 19.2728 22.446C19.2357 21.6915 19.6652 21.0346 20.2294 20.6655C20.5114 20.4809 20.855 20.3904 21.2601 20.3939C21.6153 20.4032 21.938 20.5681 22.2166 20.7886C22.7238 21.2355 22.9373 21.7672 22.9953 22.2663C23.0975 22.7097 23.0998 23.1647 23.0405 23.5257C22.9813 23.8867 22.9662 24.192 22.8954 24.4532C22.662 25.492 22.1733 26.51 21.5499 27.2401C20.9266 27.9701 20.1744 28.4623 19.493 28.6932C18.8116 28.9242 18.2069 28.9439 17.796 28.8905C17.4292 28.7813 17.262 28.649 17.2562 28.5991C17.2829 28.3936 18.0989 28.4505 19.1947 27.8679C19.7148 27.5545 20.2731 27.1355 20.7525 26.4728C21.2378 25.8599 21.5942 25.0091 21.795 24.1258C21.8716 23.9145 21.8867 23.6092 21.9518 23.2982C21.9669 22.9929 21.982 22.6876 21.9414 22.3382C21.8602 21.6394 21.4028 21.1867 20.8828 21.5001C20.5949 21.6347 20.386 22.0131 20.4208 22.3126C20.4115 22.6678 20.6575 23.0439 20.9918 23.3086C21.3261 23.5732 21.7486 23.7265 22.2477 23.6685C22.7028 23.6662 23.1903 23.5083 23.672 23.3006C24.5855 22.8909 25.3644 22.1933 25.7324 21.4423C26.0946 20.6414 26.0959 19.7813 25.8649 19.0999C25.6839 18.4128 25.3264 17.9484 25.0362 17.628C24.652 17.3692 24.4849 17.2368 24.4791 17.1869Z" fill="#FF0B53"/>
</g>
<g clip-path="url(#clip7)">
<path d="M29.3695 42.0301C29.3695 41.4892 29.3965 40.9482 29.4236 40.4073C29.4236 40.0827 29.4236 39.7852 29.4236 39.4607C29.4236 39.3525 29.3965 39.2173 29.5588 39.1632C29.7482 39.1091 29.8022 39.2713 29.8563 39.3525C30.235 40.0557 30.5866 40.7589 30.9382 41.4621C30.9652 41.5162 30.9923 41.5703 31.0193 41.6514C31.3439 41.5703 31.6685 41.4892 31.993 41.408C32.3176 41.3269 32.6692 41.2728 32.9937 41.1917C33.156 41.1646 33.2642 41.2457 33.2642 41.381C33.2642 41.4892 33.2101 41.5703 33.156 41.6785C32.9396 42.0301 32.7233 42.4087 32.4528 42.7604C32.2905 42.9767 32.2635 43.1661 32.3987 43.3824C32.6151 43.7611 32.8044 44.1397 32.9937 44.4913C33.0478 44.6266 33.1019 44.7348 33.129 44.87C33.1831 45.1405 32.9937 45.2486 32.6962 45.1675C32.561 45.1405 32.4528 45.0593 32.3176 45.0052C31.8578 44.7888 31.398 44.5725 30.9382 44.3561C30.6136 44.2209 30.5866 44.2209 30.3432 44.4643C29.9645 44.8159 29.5588 45.1675 29.1802 45.5462C29.1531 45.5732 29.1261 45.6273 29.072 45.6543C28.9638 45.6814 28.8286 45.7625 28.7474 45.7084C28.6663 45.6814 28.5851 45.5462 28.6122 45.438C28.6392 45.1945 28.6933 44.9782 28.7474 44.7348C28.8015 44.3561 28.8556 43.9774 28.9097 43.5988C28.9368 43.4095 28.8556 43.3013 28.6392 43.2201C28.2335 43.0579 27.8549 42.8685 27.4492 42.6792C27.314 42.6251 27.2328 42.544 27.2599 42.3817C27.2869 42.2465 27.4221 42.2194 27.5574 42.2194C28.1524 42.1924 28.7474 42.1112 29.3695 42.0301Z" fill="#00F0E9"/>
</g>
<g clip-path="url(#clip8)">
<path d="M12.3065 96.4102C11.6586 96.382 11.2642 96.044 11.2642 95.4806C11.2642 94.889 11.7431 94.4102 12.3065 94.4102C12.898 94.4102 13.3487 94.8327 13.3487 95.3961C13.3205 95.9876 12.898 96.4102 12.3065 96.4102Z" fill="#FF2968"/>
</g>
<path d="M11.1069 27.6616C11.1538 28.3084 10.8635 28.7391 10.3039 28.8042C9.71632 28.8725 9.18536 28.4521 9.12032 27.8924C9.05203 27.3049 9.41971 26.8084 9.97932 26.7433C10.5702 26.703 11.0387 27.074 11.1069 27.6616Z" fill="#262C38"/>
<path d="M34.8862 58.1068C32.1169 57.4633 30.3689 54.6843 31.017 51.8952L27.2517 51.0203L23.8584 65.6234C23.4649 67.3168 21.7708 68.372 20.0774 67.9785C18.384 67.585 17.3288 65.891 17.7223 64.1976C18.1158 62.5041 19.8098 61.4489 21.5032 61.8424C21.822 61.9165 22.1713 62.0397 22.447 62.2087L23.3405 58.3637C23.031 58.2498 22.7169 58.1558 22.3782 58.0771C18.5929 57.1975 14.812 59.5526 13.9324 63.3379C13.0528 67.1232 15.4079 70.9041 19.1932 71.7837C22.9785 72.6633 26.7594 70.3081 27.639 66.5229L29.4352 58.793C30.5506 60.2281 32.1464 61.3128 34.0589 61.7572L34.9061 58.1114L34.8862 58.1068Z" fill="#FF0B53"/>
<path d="M34.0555 56.8021C31.2664 56.154 29.5429 53.3597 30.1864 50.5905L26.421 49.7156L23.0277 64.3187C22.6343 66.0121 20.9402 67.0673 19.2468 66.6738C17.5534 66.2803 16.4981 64.5863 16.8916 62.8929C17.2851 61.1995 18.9792 60.1442 20.6726 60.5377C20.9914 60.6118 21.3407 60.735 21.6164 60.904L22.5099 57.059C22.2004 56.9451 21.8862 56.8511 21.5476 56.7724C17.7669 55.8729 13.986 58.228 13.1064 62.0133C12.2268 65.7986 14.5819 69.5795 18.3672 70.4591C22.1525 71.3387 25.9334 68.9835 26.813 65.1983L28.6092 57.4684C29.7246 58.9035 31.3204 59.9882 33.2329 60.4326L34.0755 56.8067L34.0555 56.8021Z" fill="#00F0E9"/>
<path d="M33.8381 57.7373C32.683 57.1959 31.7892 56.2533 31.2988 55.1104C30.4893 54.1664 30.0373 52.9484 30.0607 51.673L27.2517 51.0203L23.8584 65.6234C23.4649 67.3168 21.7708 68.372 20.0774 67.9785C18.9617 67.7193 18.1045 66.8901 17.7749 65.8686C17.0034 65.1224 16.6326 64.0073 16.8964 62.8718C17.2899 61.1784 18.984 60.1231 20.6774 60.5166C20.9962 60.5907 21.3455 60.7139 21.6212 60.8829L22.2786 58.0539C18.5193 57.2434 14.8073 59.5726 13.9324 63.3379C13.5574 64.9516 13.768 66.5754 14.4313 67.9684C15.3891 69.1779 16.7337 70.0783 18.3674 70.4579C22.1526 71.3375 25.9336 68.9824 26.8132 65.1971L28.6094 57.4672C29.7248 58.9023 31.3205 59.987 33.2331 60.4314L33.8581 57.7419L33.8381 57.7373Z" fill="#262C38"/>
<g clip-path="url(#clip9)">
<path d="M123.551 14.8767C123.516 14.8939 123.501 14.6811 123.647 14.3465C123.758 14.0292 124.013 13.5544 124.479 13.1535C124.945 12.7525 125.659 12.4082 126.509 12.4378C127.359 12.4674 128.221 12.887 128.885 13.5341C129.217 13.8577 129.531 14.2341 129.702 14.6794C129.805 14.8935 129.854 15.1776 129.886 15.4261C129.918 15.6746 129.879 15.9575 129.822 16.2047C129.673 16.7164 129.33 17.19 128.813 17.3953C128.261 17.6179 127.661 17.4677 127.24 17.143C127.03 16.9806 126.874 16.7481 126.772 16.4454C126.687 16.1785 126.726 15.8956 126.818 15.6311C127.02 15.1379 127.361 14.8415 127.718 14.6693C128.022 14.4787 128.36 14.3594 128.644 14.3103C128.928 14.2611 129.159 14.1935 129.372 14.1787C130.206 14.0841 131.091 14.1851 131.795 14.4607C132.5 14.7364 133.061 15.1694 133.409 15.6172C133.757 16.065 133.928 16.5103 133.994 16.8302C134.008 17.1315 133.953 17.2902 133.917 17.3074C133.757 17.3406 133.589 16.7182 132.872 16.0526C132.504 15.7463 132.047 15.4387 131.43 15.2529C130.848 15.0498 130.122 15.0042 129.413 15.0829C129.236 15.0804 129.004 15.148 128.756 15.1799C128.525 15.2476 128.293 15.3152 128.044 15.4357C127.544 15.6767 127.325 16.1343 127.693 16.4406C127.867 16.6203 128.203 16.6781 128.417 16.5748C128.684 16.49 128.901 16.2095 129.012 15.8922C129.122 15.5748 129.127 15.2206 128.955 14.8638C128.836 14.5256 128.592 14.2032 128.313 13.8981C127.772 13.3236 127.051 12.9238 126.397 12.8437C125.707 12.7809 125.066 13.0022 124.618 13.3503C124.153 13.6627 123.9 14.0489 123.736 14.3478C123.642 14.7008 123.587 14.8595 123.551 14.8767Z" fill="#262C38"/>
</g>
<g clip-path="url(#clip10)">
<path d="M133.085 29.2959C132.296 29.8645 131.517 29.8326 130.994 29.169C130.445 28.4722 130.564 27.4634 131.228 26.9402C131.924 26.3907 132.848 26.4698 133.371 27.1334C133.887 27.8563 133.782 28.7465 133.085 29.2959Z" fill="#262C38"/>
</g>
<path d="M212.425 50.2219C212.481 50.2571 212.192 50.4693 211.585 50.5621C211.035 50.69 210.132 50.755 209.143 50.4531C208.154 50.1513 207.024 49.4473 206.302 48.2133C205.58 46.9793 205.401 45.3774 205.723 43.8523C205.884 43.0897 206.137 42.3059 206.616 41.6628C206.827 41.3236 207.187 40.9984 207.511 40.7296C207.835 40.4609 208.272 40.2625 208.674 40.1207C209.535 39.8723 210.516 39.9342 211.272 40.4835C212.085 41.068 212.411 42.0556 212.328 42.9451C212.287 43.3898 212.097 43.8207 211.759 44.2377C211.456 44.5981 211.018 44.7965 210.56 44.9031C209.678 45.0598 208.95 44.8422 208.385 44.4902C207.841 44.23 207.368 43.8566 207.042 43.4972C206.717 43.1378 206.413 42.8701 206.201 42.581C205.317 41.4814 204.665 40.1343 204.423 38.8854C204.181 37.6365 204.292 36.4506 204.616 35.5537C204.939 34.6567 205.418 34.0137 205.812 33.6319C206.228 33.3418 206.503 33.2778 206.56 33.313C206.751 33.5103 206.018 34.3091 205.717 35.9259C205.613 36.7237 205.586 37.6484 205.877 38.6925C206.112 39.7014 206.699 40.7733 207.449 41.7108C207.605 41.9647 207.909 42.2324 208.177 42.5566C208.481 42.8243 208.785 43.092 209.181 43.3384C209.972 43.8312 210.819 43.731 210.924 42.9333C211.022 42.5237 210.802 41.9947 210.463 41.7835C210.102 41.4806 209.509 41.4251 208.959 41.5531C208.409 41.681 207.901 41.9924 207.549 42.5576C207.176 43.0311 206.937 43.6668 206.754 44.3376C206.425 45.6227 206.505 47.006 206.979 48.0075C207.51 49.0442 208.401 49.7556 209.298 50.0788C210.159 50.4585 210.936 50.4714 211.508 50.4352C212.093 50.2507 212.368 50.1867 212.425 50.2219Z" fill="#FF0B53"/>
</g>
<defs>
<filter id="filter0_f" x="23" y="81" width="156" height="26" filterUnits="userSpaceOnUse" color-interpolation-filters="sRGB">
<feFlood flood-opacity="0" result="BackgroundImageFix"/>
<feBlend mode="normal" in="SourceGraphic" in2="BackgroundImageFix" result="shape"/>
<feGaussianBlur stdDeviation="5" result="effect1_foregroundBlur"/>
</filter>
<linearGradient id="paint0_linear" x1="177" y1="81" x2="271" y2="81" gradientUnits="userSpaceOnUse">
<stop stop-color="#09EAE5"/>
<stop offset="0.791667" stop-color="#BD4D7A"/>
<stop offset="1" stop-color="#E52A62"/>
</linearGradient>
<clipPath id="clip0">
<rect width="277" height="105.82" fill="white"/>
</clipPath>
<clipPath id="clip1">
<rect width="21.3938" height="24.2827" fill="white" transform="translate(32.2387 69) rotate(22.3625)"/>
</clipPath>
<clipPath id="clip2">
<rect width="8.94383" height="9.87464" fill="white" transform="translate(30.3011 97.168) rotate(135.45)"/>
</clipPath>
<clipPath id="clip3">
<rect width="11" height="12.1448" fill="white" transform="translate(211 54)"/>
</clipPath>
<clipPath id="clip4">
<rect width="2.05634" height="2" fill="white" transform="translate(214 14)"/>
</clipPath>
<clipPath id="clip5">
<rect width="3.08451" height="3" fill="white" transform="translate(237.846 28)"/>
</clipPath>
<clipPath id="clip6">
<rect width="10.904" height="10.1" fill="white" transform="translate(17.3027 28.998) rotate(-96.6294)"/>
</clipPath>
<clipPath id="clip7">
<rect width="11" height="12.1448" fill="white" transform="translate(27.2642 36.4102)"/>
</clipPath>
<clipPath id="clip8">
<rect width="2.05634" height="2" fill="white" transform="translate(11.2642 94.4102)"/>
</clipPath>
<clipPath id="clip9">
<rect width="8.5957" height="7.96192" fill="white" transform="translate(134.202 17.1699) rotate(154.238)"/>
</clipPath>
<clipPath id="clip10">
<rect width="3.08451" height="3" fill="white" transform="translate(130 27.9082) rotate(-38.2574)"/>
</clipPath>
</defs>
</svg>
