<svg width="277" height="106" viewBox="0 0 277 106" fill="none" xmlns="http://www.w3.org/2000/svg">
<g clip-path="url(#clip0)">
<g filter="url(#filter0_f)">
<ellipse cx="86" cy="94" rx="68" ry="3" fill="#C4C4C4" fill-opacity="0.5"/>
</g>
<path d="M162.71 87.3779C161.909 88.3154 160.742 89.043 159.209 89.5605C157.676 90.0684 155.977 90.3076 154.111 90.2783C152.324 90.2588 150.815 89.8096 149.585 88.9307C148.354 88.0518 147.476 86.8262 146.948 85.2539C146.421 83.6816 146.279 81.9092 146.523 79.9365L146.641 79.0576C147.09 75.7471 148.252 73.125 150.127 71.1914C152.012 69.2578 154.316 68.3154 157.041 68.3643C159.424 68.4033 161.255 69.043 162.534 70.2832C163.813 71.5234 164.526 73.3154 164.673 75.6592L159.868 75.6445C159.8 74.502 159.517 73.667 159.019 73.1396C158.53 72.6123 157.832 72.334 156.924 72.3047C155.576 72.2559 154.463 72.7881 153.584 73.9014C152.705 75.0049 152.104 76.5869 151.782 78.6475C151.509 80.4053 151.411 81.7725 151.489 82.749C151.636 85.1025 152.695 86.2939 154.668 86.3232C155.859 86.3428 156.904 86.0547 157.803 85.459L158.462 82.1338H154.99L155.605 78.6035H164.087L162.71 87.3779ZM170.356 90H165.347L169.053 68.6719H174.048L170.356 90ZM191.626 87.3779C190.825 88.3154 189.658 89.043 188.125 89.5605C186.592 90.0684 184.893 90.3076 183.027 90.2783C181.24 90.2588 179.731 89.8096 178.501 88.9307C177.271 88.0518 176.392 86.8262 175.864 85.2539C175.337 83.6816 175.195 81.9092 175.439 79.9365L175.557 79.0576C176.006 75.7471 177.168 73.125 179.043 71.1914C180.928 69.2578 183.232 68.3154 185.957 68.3643C188.34 68.4033 190.171 69.043 191.45 70.2832C192.729 71.5234 193.442 73.3154 193.589 75.6592L188.784 75.6445C188.716 74.502 188.433 73.667 187.935 73.1396C187.446 72.6123 186.748 72.334 185.84 72.3047C184.492 72.2559 183.379 72.7881 182.5 73.9014C181.621 75.0049 181.021 76.5869 180.698 78.6475C180.425 80.4053 180.327 81.7725 180.405 82.749C180.552 85.1025 181.611 86.2939 183.584 86.3232C184.775 86.3428 185.82 86.0547 186.719 85.459L187.378 82.1338H183.906L184.521 78.6035H193.003L191.626 87.3779ZM206.45 86.0156H199.639L197.749 90H192.227L203.521 68.6719H208.237L212.178 90H206.963L206.45 86.0156ZM201.514 82.0459H205.938L205 74.6924L201.514 82.0459ZM225.625 84.2285C225.84 83.125 225.244 82.2705 223.838 81.665L221.436 80.6689C218.066 79.1553 216.465 77.0947 216.631 74.4873C216.699 73.2959 217.109 72.2363 217.861 71.3086C218.613 70.3711 219.653 69.6436 220.981 69.126C222.31 68.6084 223.76 68.3594 225.332 68.3789C227.441 68.418 229.136 69.0332 230.415 70.2246C231.704 71.416 232.339 73.0127 232.319 75.0146H227.339C227.368 74.1943 227.192 73.54 226.812 73.0518C226.44 72.5537 225.825 72.2949 224.966 72.2754C224.126 72.2559 223.384 72.4512 222.739 72.8613C222.095 73.2715 221.714 73.8232 221.597 74.5166C221.411 75.4932 222.134 76.2939 223.765 76.9189C225.405 77.5439 226.597 78.0811 227.339 78.5303C229.673 79.9268 230.767 81.8115 230.62 84.1846C230.542 85.415 230.146 86.4941 229.434 87.4219C228.721 88.3496 227.729 89.0674 226.46 89.5752C225.2 90.083 223.784 90.3271 222.212 90.3076C221.06 90.2881 219.99 90.1074 219.004 89.7656C218.018 89.4238 217.173 88.9258 216.47 88.2715C215.044 86.9531 214.36 85.2197 214.419 83.0713L219.443 83.0859C219.385 84.1797 219.595 85.0098 220.073 85.5762C220.552 86.1328 221.357 86.4111 222.49 86.4111C223.33 86.4111 224.028 86.2207 224.585 85.8398C225.151 85.4492 225.498 84.9121 225.625 84.2285Z" fill="#BBBBBB"/>
<path d="M76.1133 91H61.6113L69.7852 43.9785L54.8877 48.1973L56.9092 36.4639L85.21 27.0156L86.8359 26.9717L76.1133 91ZM147.48 35.585L115.928 91H100.107L131.528 38.4414H102.217L104.062 27.0156H148.843L147.48 35.585Z" fill="#EF3829"/>
<path d="M76.1133 91V94H78.6527L79.0721 91.4955L76.1133 91ZM61.6113 91L58.6557 90.4862L58.0448 94H61.6113V91ZM69.7852 43.9785L72.7408 44.4923L73.5579 39.7922L68.9677 41.092L69.7852 43.9785ZM54.8877 48.1973L51.9313 47.6879L51.1226 52.3815L55.7051 51.0838L54.8877 48.1973ZM56.9092 36.4639L55.9592 33.6183L54.2574 34.1864L53.9527 35.9545L56.9092 36.4639ZM85.21 27.0156L85.1289 24.0167L84.683 24.0288L84.26 24.17L85.21 27.0156ZM86.8359 26.9717L89.7947 27.4672L90.3964 23.8744L86.7549 23.9728L86.8359 26.9717ZM76.1133 88H61.6113V94H76.1133V88ZM64.567 91.5138L72.7408 44.4923L66.8295 43.4647L58.6557 90.4862L64.567 91.5138ZM68.9677 41.092L54.0703 45.3108L55.7051 51.0838L70.6026 46.865L68.9677 41.092ZM57.8441 48.7066L59.8656 36.9732L53.9527 35.9545L51.9313 47.6879L57.8441 48.7066ZM57.8592 39.3095L86.16 29.8612L84.26 24.17L55.9592 33.6183L57.8592 39.3095ZM85.291 30.0145L86.917 29.9706L86.7549 23.9728L85.1289 24.0167L85.291 30.0145ZM83.8771 26.4762L73.1545 90.5045L79.0721 91.4955L89.7947 27.4672L83.8771 26.4762ZM147.48 35.585L150.087 37.0694L150.358 36.595L150.443 36.056L147.48 35.585ZM115.928 91V94H117.672L118.535 92.4844L115.928 91ZM100.107 91L97.5325 89.4606L94.8187 94H100.107V91ZM131.528 38.4414L134.103 39.9808L136.817 35.4414H131.528V38.4414ZM102.217 38.4414L99.2552 37.963L98.6933 41.4414H102.217V38.4414ZM104.062 27.0156V24.0156H101.508L101.101 26.5372L104.062 27.0156ZM148.843 27.0156L151.806 27.4866L152.357 24.0156H148.843V27.0156ZM144.873 34.1006L113.321 89.5156L118.535 92.4844L150.087 37.0694L144.873 34.1006ZM115.928 88H100.107V94H115.928V88ZM102.682 92.5394L134.103 39.9808L128.953 36.902L97.5325 89.4606L102.682 92.5394ZM131.528 35.4414H102.217V41.4414H131.528V35.4414ZM105.178 38.9198L107.024 27.494L101.101 26.5372L99.2552 37.963L105.178 38.9198ZM104.062 30.0156H148.843V24.0156H104.062V30.0156ZM145.88 26.5446L144.518 35.114L150.443 36.056L151.806 27.4866L145.88 26.5446Z" fill="#EF3829"/>
</g>
<defs>
<filter id="filter0_f" x="8" y="81" width="156" height="26" filterUnits="userSpaceOnUse" color-interpolation-filters="sRGB">
<feFlood flood-opacity="0" result="BackgroundImageFix"/>
<feBlend mode="normal" in="SourceGraphic" in2="BackgroundImageFix" result="shape"/>
<feGaussianBlur stdDeviation="5" result="effect1_foregroundBlur"/>
</filter>
<clipPath id="clip0">
<rect width="277" height="105.82" fill="white"/>
</clipPath>
</defs>
</svg>
