<svg width="277" height="106" viewBox="0 0 277 106" fill="none" xmlns="http://www.w3.org/2000/svg">
<g clip-path="url(#clip0)">
<g filter="url(#filter0_f)">
<ellipse cx="90" cy="94" rx="68" ry="3" fill="#C4C4C4" fill-opacity="0.5"/>
</g>
<path d="M198.71 87.3779C197.909 88.3154 196.742 89.043 195.209 89.5605C193.676 90.0684 191.977 90.3076 190.111 90.2783C188.324 90.2588 186.815 89.8096 185.585 88.9307C184.354 88.0518 183.476 86.8262 182.948 85.2539C182.421 83.6816 182.279 81.9092 182.523 79.9365L182.641 79.0576C183.09 75.7471 184.252 73.125 186.127 71.1914C188.012 69.2578 190.316 68.3154 193.041 68.3643C195.424 68.4033 197.255 69.043 198.534 70.2832C199.813 71.5234 200.526 73.3154 200.673 75.6592L195.868 75.6445C195.8 74.502 195.517 73.667 195.019 73.1396C194.53 72.6123 193.832 72.334 192.924 72.3047C191.576 72.2559 190.463 72.7881 189.584 73.9014C188.705 75.0049 188.104 76.5869 187.782 78.6475C187.509 80.4053 187.411 81.7725 187.489 82.749C187.636 85.1025 188.695 86.2939 190.668 86.3232C191.859 86.3428 192.904 86.0547 193.803 85.459L194.462 82.1338H190.99L191.605 78.6035H200.087L198.71 87.3779ZM206.356 90H201.347L205.053 68.6719H210.048L206.356 90ZM227.626 87.3779C226.825 88.3154 225.658 89.043 224.125 89.5605C222.592 90.0684 220.893 90.3076 219.027 90.2783C217.24 90.2588 215.731 89.8096 214.501 88.9307C213.271 88.0518 212.392 86.8262 211.864 85.2539C211.337 83.6816 211.195 81.9092 211.439 79.9365L211.557 79.0576C212.006 75.7471 213.168 73.125 215.043 71.1914C216.928 69.2578 219.232 68.3154 221.957 68.3643C224.34 68.4033 226.171 69.043 227.45 70.2832C228.729 71.5234 229.442 73.3154 229.589 75.6592L224.784 75.6445C224.716 74.502 224.433 73.667 223.935 73.1396C223.446 72.6123 222.748 72.334 221.84 72.3047C220.492 72.2559 219.379 72.7881 218.5 73.9014C217.621 75.0049 217.021 76.5869 216.698 78.6475C216.425 80.4053 216.327 81.7725 216.405 82.749C216.552 85.1025 217.611 86.2939 219.584 86.3232C220.775 86.3428 221.82 86.0547 222.719 85.459L223.378 82.1338H219.906L220.521 78.6035H229.003L227.626 87.3779ZM242.45 86.0156H235.639L233.749 90H228.227L239.521 68.6719H244.237L248.178 90H242.963L242.45 86.0156ZM237.514 82.0459H241.938L241 74.6924L237.514 82.0459ZM261.625 84.2285C261.84 83.125 261.244 82.2705 259.838 81.665L257.436 80.6689C254.066 79.1553 252.465 77.0947 252.631 74.4873C252.699 73.2959 253.109 72.2363 253.861 71.3086C254.613 70.3711 255.653 69.6436 256.981 69.126C258.31 68.6084 259.76 68.3594 261.332 68.3789C263.441 68.418 265.136 69.0332 266.415 70.2246C267.704 71.416 268.339 73.0127 268.319 75.0146H263.339C263.368 74.1943 263.192 73.54 262.812 73.0518C262.44 72.5537 261.825 72.2949 260.966 72.2754C260.126 72.2559 259.384 72.4512 258.739 72.8613C258.095 73.2715 257.714 73.8232 257.597 74.5166C257.411 75.4932 258.134 76.2939 259.765 76.9189C261.405 77.5439 262.597 78.0811 263.339 78.5303C265.673 79.9268 266.767 81.8115 266.62 84.1846C266.542 85.415 266.146 86.4941 265.434 87.4219C264.721 88.3496 263.729 89.0674 262.46 89.5752C261.2 90.083 259.784 90.3271 258.212 90.3076C257.06 90.2881 255.99 90.1074 255.004 89.7656C254.018 89.4238 253.173 88.9258 252.47 88.2715C251.044 86.9531 250.36 85.2197 250.419 83.0713L255.443 83.0859C255.385 84.1797 255.595 85.0098 256.073 85.5762C256.552 86.1328 257.357 86.4111 258.49 86.4111C259.33 86.4111 260.028 86.2207 260.585 85.8398C261.151 85.4492 261.498 84.9121 261.625 84.2285Z" fill="#BBBBBB"/>
<path d="M61.1133 91H46.6113L54.7852 43.9785L39.8877 48.1973L41.9092 36.4639L70.21 27.0156L71.8359 26.9717L61.1133 91ZM130.459 43.7588C130.049 49.9697 126.431 54.8184 119.604 58.3047C122.065 60.0625 123.896 62.2012 125.098 64.7207C126.299 67.2402 126.797 70.0088 126.592 73.0264C126.211 78.915 123.794 83.5586 119.341 86.957C114.917 90.3555 109.424 91.9961 102.861 91.8789C99.9902 91.8496 97.2803 91.4102 94.7314 90.5605C92.1826 89.7109 90 88.4365 88.1836 86.7373C84.5508 83.3975 82.9248 79.0615 83.3057 73.7295C83.7158 66.7861 87.8906 61.4688 95.8301 57.7773C91.4941 54.4082 89.4727 49.9844 89.7656 44.5059C89.9707 40.7852 91.0693 37.5186 93.0615 34.7061C95.0537 31.8936 97.7197 29.7402 101.06 28.2461C104.429 26.7227 108.135 26.0049 112.178 26.0928C118.037 26.21 122.637 27.8945 125.977 31.1465C129.346 34.3984 130.84 38.6025 130.459 43.7588ZM112.354 71.8398C112.617 69.5547 112.251 67.6797 111.255 66.2148C110.288 64.75 108.809 63.9883 106.816 63.9297C104.561 63.8711 102.612 64.6621 100.972 66.3027C99.3311 67.9141 98.3496 69.9941 98.0273 72.543C97.7637 74.9453 98.1445 76.8643 99.1699 78.2998C100.225 79.7061 101.748 80.4385 103.74 80.4971C105.908 80.5557 107.798 79.7939 109.409 78.2119C111.021 76.6299 112.002 74.5059 112.354 71.8398ZM115.869 44.5498C116.104 42.3818 115.796 40.668 114.946 39.4082C114.097 38.1191 112.852 37.4746 111.211 37.4746C109.307 37.416 107.695 38.1045 106.377 39.54C105.088 40.9756 104.297 42.8799 104.004 45.2529C103.77 47.4209 104.077 49.1934 104.927 50.5703C105.776 51.918 107.036 52.5918 108.706 52.5918C110.552 52.6504 112.134 51.9473 113.452 50.4824C114.771 49.0176 115.576 47.04 115.869 44.5498ZM153.53 91.8789C149.897 91.791 146.719 90.9414 143.994 89.3301C141.299 87.6895 139.219 85.3018 137.754 82.167C136.289 79.0029 135.498 75.4141 135.381 71.4004C135.293 69.2324 135.381 67.0498 135.645 64.8525L137.314 53.6904C138.662 44.6963 141.548 37.8262 145.972 33.0801C150.396 28.3047 156.035 25.9902 162.891 26.1367C168.457 26.2539 172.808 28.1289 175.942 31.7617C179.106 35.3945 180.806 40.3457 181.04 46.6152C181.099 48.7832 180.996 50.9658 180.732 53.1631L178.975 64.5449C177.568 73.6562 174.653 80.5264 170.229 85.1553C165.835 89.7842 160.269 92.0254 153.53 91.8789ZM166.582 51.1855C166.846 49.1348 166.992 47.333 167.021 45.7803C167.021 40.4189 165.322 37.6504 161.924 37.4746C156.709 37.2109 153.472 41.6787 152.212 50.8779L149.883 66.6982C149.59 69.1299 149.443 70.9316 149.443 72.1035C149.297 77.5234 150.981 80.3359 154.497 80.541C159.8 80.8047 163.066 76.2197 164.297 66.7861L166.582 51.1855Z" fill="#EF3829"/>
<path d="M61.1133 91V94H63.6527L64.0721 91.4955L61.1133 91ZM46.6113 91L43.6557 90.4862L43.0448 94H46.6113V91ZM54.7852 43.9785L57.7408 44.4923L58.5579 39.7922L53.9677 41.092L54.7852 43.9785ZM39.8877 48.1973L36.9313 47.6879L36.1226 52.3815L40.7051 51.0838L39.8877 48.1973ZM41.9092 36.4639L40.9592 33.6183L39.2574 34.1864L38.9527 35.9545L41.9092 36.4639ZM70.21 27.0156L70.1289 24.0167L69.683 24.0288L69.26 24.17L70.21 27.0156ZM71.8359 26.9717L74.7947 27.4672L75.3964 23.8744L71.7549 23.9728L71.8359 26.9717ZM61.1133 88H46.6113V94H61.1133V88ZM49.567 91.5138L57.7408 44.4923L51.8295 43.4647L43.6557 90.4862L49.567 91.5138ZM53.9677 41.092L39.0703 45.3108L40.7051 51.0838L55.6026 46.865L53.9677 41.092ZM42.8441 48.7066L44.8656 36.9732L38.9527 35.9545L36.9313 47.6879L42.8441 48.7066ZM42.8592 39.3095L71.16 29.8612L69.26 24.17L40.9592 33.6183L42.8592 39.3095ZM70.291 30.0145L71.917 29.9706L71.7549 23.9728L70.1289 24.0167L70.291 30.0145ZM68.8771 26.4762L58.1545 90.5045L64.0721 91.4955L74.7947 27.4672L68.8771 26.4762ZM130.459 43.7588L127.467 43.5378L127.466 43.5495L127.466 43.5611L130.459 43.7588ZM119.604 58.3047L118.24 55.633L113.845 57.8776L117.861 60.7459L119.604 58.3047ZM126.592 73.0264L123.599 72.823L123.598 72.8327L126.592 73.0264ZM119.341 86.957L117.521 84.5722L117.513 84.578L119.341 86.957ZM102.861 91.8789L102.915 88.8794L102.903 88.8792L102.892 88.8791L102.861 91.8789ZM88.1836 86.7373L90.2331 84.5465L90.2236 84.5376L90.214 84.5288L88.1836 86.7373ZM83.3057 73.7295L86.298 73.9432L86.2994 73.9248L86.3004 73.9064L83.3057 73.7295ZM95.8301 57.7773L97.0949 60.4977L101.553 58.4249L97.6708 55.4084L95.8301 57.7773ZM89.7656 44.5059L86.7702 44.3408L86.7699 44.3457L89.7656 44.5059ZM101.06 28.2461L102.285 30.9846L102.296 30.9796L101.06 28.2461ZM112.178 26.0928L112.113 29.0921L112.118 29.0922L112.178 26.0928ZM125.977 31.1465L123.884 33.2959L123.893 33.305L125.977 31.1465ZM112.354 71.8398L115.328 72.2321L115.331 72.2079L115.334 72.1837L112.354 71.8398ZM111.255 66.2148L108.751 67.8674L108.762 67.8847L108.774 67.9018L111.255 66.2148ZM106.816 63.9297L106.905 60.931L106.894 60.9307L106.816 63.9297ZM100.972 66.3027L103.074 68.4431L103.083 68.4336L103.093 68.4241L100.972 66.3027ZM98.0273 72.543L95.051 72.1667L95.0479 72.1911L95.0453 72.2157L98.0273 72.543ZM99.1699 78.2998L96.7287 80.0435L96.749 80.0719L96.7699 80.0998L99.1699 78.2998ZM103.74 80.4971L103.652 83.4958L103.659 83.496L103.74 80.4971ZM115.869 44.5498L118.849 44.9003L118.85 44.8863L118.852 44.8723L115.869 44.5498ZM114.946 39.4082L112.441 41.0591L112.45 41.0724L112.459 41.0856L114.946 39.4082ZM111.211 37.4746L111.119 40.4732L111.165 40.4746H111.211V37.4746ZM106.377 39.54L104.167 37.5108L104.156 37.5232L104.145 37.5357L106.377 39.54ZM104.004 45.2529L101.027 44.8853L101.024 44.9079L101.021 44.9305L104.004 45.2529ZM104.927 50.5703L102.374 52.1456L102.381 52.158L102.389 52.1702L104.927 50.5703ZM108.706 52.5918L108.801 49.5933L108.754 49.5918H108.706V52.5918ZM127.466 43.5611C127.142 48.4623 124.379 52.4977 118.24 55.633L120.969 60.9764C128.483 57.139 132.956 51.4771 133.452 43.9565L127.466 43.5611ZM117.861 60.7459C119.944 62.2336 121.425 63.9889 122.39 66.0117L127.806 63.4297C126.368 60.4134 124.187 57.8914 121.348 55.8635L117.861 60.7459ZM122.39 66.0117C123.351 68.0274 123.772 70.2755 123.599 72.823L129.585 73.2298C129.822 69.7421 129.247 66.4531 127.806 63.4297L122.39 66.0117ZM123.598 72.8327C123.27 77.9083 121.243 81.7312 117.521 84.5722L121.161 89.3419C126.344 85.386 129.152 79.9218 129.586 73.22L123.598 72.8327ZM117.513 84.578C113.72 87.4923 108.923 88.9867 102.915 88.8794L102.808 94.8784C109.924 95.0055 116.114 93.2186 121.168 89.3361L117.513 84.578ZM102.892 88.8791C100.312 88.8527 97.9131 88.4588 95.6801 87.7145L93.7828 93.4066C96.6474 94.3615 99.6689 94.8465 102.831 94.8788L102.892 88.8791ZM95.6801 87.7145C93.5078 86.9904 91.7093 85.9275 90.2331 84.5465L86.1341 88.9281C88.2907 90.9456 90.8575 92.4315 93.7828 93.4066L95.6801 87.7145ZM90.214 84.5288C87.3159 81.8644 85.9761 78.4505 86.298 73.9432L80.3133 73.5158C79.8735 79.6725 81.7857 84.9305 86.1532 88.9458L90.214 84.5288ZM86.3004 73.9064C86.6279 68.3638 89.8511 63.8657 97.0949 60.4977L94.5653 55.057C85.9302 59.0718 80.8038 65.2085 80.3109 73.5526L86.3004 73.9064ZM97.6708 55.4084C94.1101 52.6416 92.5209 49.1622 92.7613 44.6661L86.7699 44.3457C86.4244 50.8065 88.8782 56.1748 93.9894 60.1463L97.6708 55.4084ZM92.7611 44.671C92.9377 41.4667 93.8705 38.7542 95.5096 36.4401L90.6134 32.972C88.2682 36.283 87.0037 40.1036 86.7702 44.3408L92.7611 44.671ZM95.5096 36.4401C97.1721 34.0931 99.4037 32.2734 102.285 30.9845L99.8345 25.5076C96.0358 27.207 92.9353 29.694 90.6134 32.972L95.5096 36.4401ZM102.296 30.9796C105.219 29.6577 108.475 29.013 112.113 29.0921L112.243 23.0935C107.794 22.9968 103.638 23.7877 99.8235 25.5126L102.296 30.9796ZM112.118 29.0922C117.42 29.1982 121.22 30.702 123.884 33.2959L128.069 28.9971C124.054 25.087 118.654 23.2217 112.238 23.0934L112.118 29.0922ZM123.893 33.305C126.549 35.8687 127.79 39.1655 127.467 43.5378L133.451 43.9798C133.89 38.0396 132.142 32.9282 128.06 28.988L123.893 33.305ZM115.334 72.1837C115.655 69.4015 115.245 66.7471 113.736 64.5279L108.774 67.9018C109.257 68.6123 109.58 69.7079 109.373 71.496L115.334 72.1837ZM113.759 64.5623C112.175 62.1622 109.72 61.0138 106.905 60.931L106.728 66.9284C107.897 66.9628 108.402 67.3378 108.751 67.8674L113.759 64.5623ZM106.894 60.9307C103.79 60.8501 101.054 61.9776 98.8504 64.1814L103.093 68.4241C104.17 67.3467 105.331 66.8921 106.739 66.9287L106.894 60.9307ZM98.8696 64.1624C96.6909 66.3021 95.4475 69.0312 95.051 72.1667L101.004 72.9193C101.252 70.957 101.971 69.526 103.074 68.4431L98.8696 64.1624ZM95.0453 72.2157C94.7311 75.0784 95.138 77.8165 96.7287 80.0435L101.611 76.5561C101.151 75.912 100.796 74.8123 101.009 72.8703L95.0453 72.2157ZM96.7699 80.0998C98.4505 82.3406 100.885 83.4144 103.652 83.4958L103.828 77.4984C102.611 77.4626 101.999 77.0715 101.57 76.4998L96.7699 80.0998ZM103.659 83.496C106.678 83.5776 109.345 82.4787 111.511 80.3526L107.307 76.0712C106.25 77.1092 105.138 77.5338 103.821 77.4982L103.659 83.496ZM111.511 80.3526C113.687 78.2164 114.906 75.4307 115.328 72.2321L109.379 71.4476C109.098 73.5811 108.354 75.0433 107.307 76.0712L111.511 80.3526ZM118.852 44.8723C119.13 42.3007 118.821 39.7874 117.434 37.7308L112.459 41.0856C112.771 41.5485 113.077 42.4629 112.887 44.2274L118.852 44.8723ZM117.451 37.7573C116.006 35.5649 113.785 34.4746 111.211 34.4746V40.4746C111.918 40.4746 112.187 40.6734 112.441 41.0591L117.451 37.7573ZM111.303 34.476C108.504 34.3899 106.06 35.4499 104.167 37.5108L108.587 41.5693C109.331 40.7591 110.109 40.4421 111.119 40.4732L111.303 34.476ZM104.145 37.5357C102.357 39.5268 101.377 42.0504 101.027 44.8853L106.981 45.6205C107.217 43.7093 107.819 42.4243 108.609 41.5444L104.145 37.5357ZM101.021 44.9305C100.74 47.5322 101.07 50.0324 102.374 52.1456L107.48 48.995C107.085 48.3543 106.799 47.3096 106.987 45.5754L101.021 44.9305ZM102.389 52.1702C103.819 54.4389 106.066 55.5918 108.706 55.5918V49.5918C108.006 49.5918 107.733 49.397 107.465 48.9704L102.389 52.1702ZM108.611 55.5903C111.405 55.679 113.818 54.5607 115.682 52.4893L111.222 48.4755C110.45 49.3338 109.698 49.6218 108.801 49.5933L108.611 55.5903ZM115.682 52.4893C117.516 50.4515 118.503 47.8387 118.849 44.9003L112.89 44.1993C112.649 46.2414 112.025 47.5837 111.222 48.4755L115.682 52.4893ZM153.53 91.8789L153.458 94.878L153.465 94.8782L153.53 91.8789ZM143.994 89.3301L142.434 91.8927L142.451 91.9026L142.467 91.9123L143.994 89.3301ZM137.754 82.167L135.031 83.4274L135.036 83.437L137.754 82.167ZM135.381 71.4004L138.38 71.3128L138.379 71.2958L138.378 71.2789L135.381 71.4004ZM135.645 64.8525L132.678 64.4087L132.671 64.4518L132.666 64.4951L135.645 64.8525ZM137.314 53.6904L134.348 53.2459L134.347 53.2466L137.314 53.6904ZM145.972 33.0801L148.166 35.1256L148.172 35.1188L145.972 33.0801ZM162.891 26.1367L162.827 29.136L162.827 29.1361L162.891 26.1367ZM175.942 31.7617L173.671 33.7216L173.68 33.7321L175.942 31.7617ZM181.04 46.6152L184.039 46.5342L184.039 46.5187L184.038 46.5032L181.04 46.6152ZM180.732 53.1631L183.697 53.621L183.705 53.5709L183.711 53.5205L180.732 53.1631ZM178.975 64.5449L176.01 64.087L176.01 64.0873L178.975 64.5449ZM170.229 85.1553L168.061 83.0825L168.054 83.0897L170.229 85.1553ZM166.582 51.1855L169.55 51.6203L169.554 51.5943L169.558 51.5681L166.582 51.1855ZM167.021 45.7803L170.021 45.8369L170.021 45.8086V45.7803H167.021ZM161.924 37.4746L162.079 34.4786L162.075 34.4784L161.924 37.4746ZM152.212 50.8779L155.18 51.3149L155.182 51.2999L155.184 51.285L152.212 50.8779ZM149.883 66.6982L146.915 66.2613L146.909 66.3003L146.904 66.3394L149.883 66.6982ZM149.443 72.1035L152.442 72.1846L152.443 72.144V72.1035H149.443ZM154.497 80.541L154.322 83.5359L154.335 83.5367L154.348 83.5373L154.497 80.541ZM164.297 66.7861L161.329 66.3513L161.325 66.3747L161.322 66.3981L164.297 66.7861ZM153.603 88.8798C150.406 88.8024 147.743 88.0617 145.521 86.7479L142.467 91.9123C145.695 93.8211 149.389 94.7796 153.458 94.878L153.603 88.8798ZM145.554 86.7675C143.412 85.4638 141.712 83.5501 140.472 80.8969L135.036 83.437C136.726 87.0534 139.186 89.9152 142.434 91.8927L145.554 86.7675ZM140.476 80.9066C139.206 78.1624 138.487 74.9819 138.38 71.3128L132.382 71.4879C132.509 75.8462 133.372 79.8434 135.032 83.4274L140.476 80.9066ZM138.378 71.2789C138.297 69.274 138.378 67.2515 138.623 65.21L132.666 64.4951C132.384 66.8481 132.289 69.1909 132.383 71.5219L138.378 71.2789ZM138.612 65.2964L140.281 54.1343L134.347 53.2466L132.678 64.4087L138.612 65.2964ZM140.281 54.135C141.574 45.5077 144.291 39.2828 148.166 35.1256L143.777 31.0346C138.804 36.3695 135.75 43.8848 134.348 53.2459L140.281 54.135ZM148.172 35.1188C151.979 31.0098 156.777 29.0068 162.827 29.136L162.955 23.1374C155.294 22.9737 148.812 25.5996 143.771 31.0413L148.172 35.1188ZM162.827 29.1361C167.694 29.2385 171.183 30.838 173.671 33.7216L178.214 29.8018C174.432 25.4198 169.22 23.2693 162.954 23.1374L162.827 29.1361ZM173.68 33.7321C176.273 36.7092 177.826 40.9337 178.042 46.7273L184.038 46.5032C183.786 39.7577 181.94 34.0798 178.205 29.7914L173.68 33.7321ZM178.041 46.6963C178.096 48.7148 178 50.7509 177.754 52.8057L183.711 53.5205C183.992 51.1808 184.102 48.8516 184.039 46.5342L178.041 46.6963ZM177.768 52.7052L176.01 64.087L181.939 65.0028L183.697 53.621L177.768 52.7052ZM176.01 64.0873C174.658 72.8473 171.911 79.054 168.061 83.0825L172.398 87.228C177.396 81.9987 180.479 74.4652 181.94 65.0025L176.01 64.0873ZM168.054 83.0897C164.277 87.0679 159.542 89.0089 153.595 88.8796L153.465 94.8782C160.995 95.0419 167.393 92.5005 172.405 87.2208L168.054 83.0897ZM169.558 51.5681C169.831 49.4422 169.989 47.5275 170.021 45.8369L164.022 45.7237C163.995 47.1386 163.861 48.8273 163.607 50.803L169.558 51.5681ZM170.021 45.7803C170.021 42.8682 169.575 40.1849 168.304 38.1136C166.909 35.8407 164.709 34.6147 162.079 34.4786L161.769 40.4706C162.537 40.5103 162.886 40.7565 163.19 41.2521C163.618 41.9494 164.021 43.331 164.021 45.7803H170.021ZM162.075 34.4784C158.387 34.2919 155.329 35.8673 153.155 38.8674C151.113 41.6864 149.896 45.6755 149.24 50.4709L155.184 51.285C155.787 46.8812 156.819 44.0368 158.014 42.3879C159.077 40.9203 160.246 40.3936 161.772 40.4708L162.075 34.4784ZM149.244 50.441L146.915 66.2613L152.851 67.1352L155.18 51.3149L149.244 50.441ZM146.904 66.3394C146.609 68.791 146.443 70.7418 146.443 72.1035H152.443C152.443 71.1214 152.571 69.4687 152.861 67.0571L146.904 66.3394ZM146.444 72.0225C146.365 74.9681 146.754 77.6994 148.023 79.8193C149.419 82.1492 151.661 83.3807 154.322 83.5359L154.672 77.5461C153.818 77.4963 153.46 77.219 153.171 76.7363C152.756 76.0438 152.375 74.6589 152.442 72.1846L146.444 72.0225ZM154.348 83.5373C158.093 83.7235 161.184 82.106 163.367 79.0408C165.419 76.1607 166.631 72.0839 167.272 67.1742L161.322 66.3981C160.732 70.922 159.695 73.8544 158.481 75.5593C157.398 77.0791 156.204 77.6222 154.646 77.5447L154.348 83.5373ZM167.265 67.2209L169.55 51.6203L163.614 50.7508L161.329 66.3513L167.265 67.2209Z" fill="#EF3829"/>
</g>
<defs>
<filter id="filter0_f" x="12" y="81" width="156" height="26" filterUnits="userSpaceOnUse" color-interpolation-filters="sRGB">
<feFlood flood-opacity="0" result="BackgroundImageFix"/>
<feBlend mode="normal" in="SourceGraphic" in2="BackgroundImageFix" result="shape"/>
<feGaussianBlur stdDeviation="5" result="effect1_foregroundBlur"/>
</filter>
<clipPath id="clip0">
<rect width="277" height="105.82" fill="white"/>
</clipPath>
</defs>
</svg>
