<svg width="277" height="106" viewBox="0 0 277 106" fill="none" xmlns="http://www.w3.org/2000/svg">
<g clip-path="url(#clip0)">
<g filter="url(#filter0_f)">
<ellipse cx="101" cy="94" rx="68" ry="3" fill="#C4C4C4" fill-opacity="0.5"/>
</g>
<g clip-path="url(#clip1)">
<path d="M117.405 22.7016C117.24 22.971 117.141 23.2819 116.975 23.5513C116.649 23.6289 116.364 23.6391 116.037 23.7167C108.824 24.569 100.814 20.3791 103.599 15.4056C104.957 12.8981 107.833 12.9044 109.445 13.1537C109.761 11.5837 110.716 8.82736 113.421 8.35684C119.09 7.29671 120.465 16.2255 117.405 22.7016Z" fill="#EF3829"/>
<path d="M122.51 21.2016C122.334 21.186 122.117 21.2377 121.873 21.1806C121.78 21.0303 121.619 20.8385 121.526 20.6882C118.952 16.8734 118.965 11.1216 122.613 11.2318C124.416 11.3206 125.265 12.9584 125.607 13.912C126.628 13.6118 128.395 13.3067 129.544 14.7581C131.803 17.7281 127.138 21.079 122.51 21.2016Z" fill="#B72C38"/>
</g>
<g clip-path="url(#clip2)">
<path d="M24.7336 86.974C24.7336 87.6966 24.1367 88.2936 23.3826 88.2936C22.6285 88.2936 22.0315 87.6966 22.0315 86.974C22 86.2513 22.597 85.6543 23.3511 85.6543C24.1052 85.6543 24.7336 86.2513 24.7336 86.974Z" fill="#B72C38"/>
<path d="M26.399 61.4292C26.399 61.8691 26.022 62.2462 25.5821 62.2462C25.1422 62.2462 24.7651 61.9006 24.7651 61.4292C24.7651 60.9579 25.1422 60.6123 25.5821 60.6123C26.022 60.6437 26.399 60.9894 26.399 61.4292Z" fill="#ED7E60"/>
<path d="M60.1762 71.2295L59.8935 74.0259L59.0137 81.8811L58.668 84.9604L57.4112 96.429L46.9795 96.9631L43.7746 97.1517L31.489 97.7801L28.3155 87.1913L27.4358 84.2063L24.9221 75.8169L24.7021 75.0943L60.1762 71.2295Z" fill="#F3DEC9"/>
<path d="M59.014 81.8838L58.6683 84.963L46.2257 85.8742L42.141 86.1884L28.3158 87.1939L27.436 84.2089L41.3869 83.172L46.5085 82.795L59.014 81.8838Z" fill="#EF3829"/>
<path opacity="0.1" d="M33.0284 96.3675L57.411 96.4304L46.9793 96.9645L43.7744 97.1531L31.4888 97.7815L28.3153 87.1927L27.4355 84.2077L24.9219 75.8183L59.8932 74.0273L28.2525 78.7719L33.0284 96.3675Z" fill="#CB2C1C"/>
<path opacity="0.38" d="M46.5083 82.7939L46.2255 85.8732L42.1408 86.1874L41.3867 83.171L46.5083 82.7939Z" fill="#CB2C1C"/>
<path d="M46.9796 96.9643L43.7746 97.1528L41.041 76.0694L44.8744 75.6924L46.9796 96.9643Z" fill="#EF3829"/>
<path d="M41.8892 66.926V68.12C41.8892 68.12 41.8892 68.12 41.8578 68.12C41.8578 68.12 41.8264 68.12 41.795 68.12C41.795 68.12 41.795 68.12 41.7635 68.12C41.5436 68.0572 40.978 67.9001 40.1925 67.5544C39.8469 65.8577 38.8414 63.1555 35.7936 60.9875C34.9452 60.3905 34.1283 59.9192 33.3428 59.5736C32.6829 59.2594 32.0545 59.0394 31.4575 58.8823C32.0859 58.4738 32.84 58.191 33.5941 58.0339C34.9138 57.7826 36.3277 57.8768 37.3646 58.4424C40.3182 59.982 41.8892 63.8468 41.8892 66.926Z" fill="#EF3829"/>
<path d="M41.8894 68.1196L40.3498 68.8737C40.3498 68.6223 40.3183 68.2452 40.2241 67.7739C38.0246 67.3026 36.0451 67.6797 33.2487 66.36C31.8976 65.7316 30.1694 64.0663 29.8238 62.7466C29.3525 61.0185 30.138 59.6988 31.4577 58.8818C32.0547 59.0389 32.6831 59.2589 33.3429 59.5417C33.2487 60.8613 33.5943 62.3381 34.8511 63.6892C36.7992 65.7944 38.8416 66.9256 40.2241 67.5226C41.0096 67.8682 41.5752 68.0253 41.7951 68.0881C41.7951 68.0881 41.7951 68.0881 41.8265 68.0881C41.8265 68.1196 41.858 68.1196 41.8894 68.1196Z" fill="#D93D40"/>
<path d="M42.0151 66.0782V67.2722C42.0151 67.2722 42.0151 67.2722 42.0466 67.2722C42.0466 67.2722 42.078 67.2722 42.1094 67.2722C42.1094 67.2722 42.1094 67.2722 42.1408 67.2722C42.3608 67.2094 42.9263 67.0522 43.7119 66.7066C44.0575 65.0099 45.063 62.3077 48.1108 60.1397C48.9591 59.5427 49.7761 59.0714 50.5616 58.7257C51.2214 58.4115 51.8499 58.223 52.4154 58.0659C51.787 57.6574 51.0329 57.3746 50.2788 57.2175C48.9591 56.9662 47.5452 57.0604 46.5083 57.626C43.5862 59.1342 42.0151 62.999 42.0151 66.0782Z" fill="#EF3829"/>
<path d="M42.0151 67.2729L43.5548 68.027C43.5548 67.7756 43.5862 67.3986 43.6804 66.9272C45.8799 66.4559 47.8594 66.833 50.6559 65.5133C52.007 64.8849 53.7351 63.2196 54.0807 61.8999C54.552 60.1718 53.7665 58.8521 52.4468 58.0352C51.8499 58.1923 51.2529 58.4122 50.593 58.7264C50.6873 60.0461 50.3417 61.5229 49.0848 62.874C47.1367 64.9477 45.0944 66.1103 43.7119 66.6759C42.9263 67.0215 42.3608 67.1786 42.1408 67.2415C42.1408 67.2415 42.1408 67.2415 42.1094 67.2415C42.078 67.2729 42.078 67.2729 42.0151 67.2729C42.0151 67.2729 42.0466 67.2729 42.0151 67.2729Z" fill="#D93D40"/>
<path d="M58.6682 74.311C58.6682 74.311 52.1641 74.9709 44.9059 75.6935C43.6491 75.8192 42.3608 75.9449 41.0726 76.0706C34.2857 76.7304 27.7501 77.3903 25.8963 77.6102C25.5507 77.6416 25.2365 77.6416 24.9537 77.5474C21.8116 76.8561 22.66 70.572 22.66 70.572C28.9441 68.781 34.9455 67.7127 40.2556 67.1157C40.2871 67.1157 40.3185 67.1157 40.3813 67.1157C41.5439 66.99 42.675 66.8643 43.7433 66.77C43.7748 66.77 43.8062 66.77 43.8376 66.77C54.0494 65.9217 60.8991 66.7072 60.8991 66.7072C60.8991 66.7072 60.8991 66.7072 61.6218 71.0118C62.0931 74.1853 58.6682 74.311 58.6682 74.311Z" fill="#EF3829"/>
<path d="M44.8744 75.6616C43.6176 75.7873 42.3293 75.9444 41.0411 76.0701L40.2241 67.1152C40.2555 67.1152 40.287 67.1152 40.3498 67.1152C41.5124 66.9895 42.6435 66.8638 43.7118 66.7695C43.7433 66.7695 43.7747 66.7695 43.8061 66.7695L44.8744 75.6616Z" fill="#EF3829"/>
<path d="M47.4509 69.9114C47.2309 70.257 46.9796 70.5712 46.7282 70.9169C46.6025 71.074 46.5711 71.1054 46.3826 71.0426C46.0055 70.9169 46.0055 70.9169 46.0055 70.9169C45.4085 70.6341 45.1572 70.4456 44.6858 70.0371C44.3402 69.7229 44.0574 69.283 44.026 68.8117C43.9946 68.3404 44.4345 67.8376 44.9058 67.8062C45.4085 67.7434 45.7227 68.3089 45.9741 68.7174C46.0055 68.4346 45.9741 68.1204 46.1312 67.8691C46.2569 67.6177 46.4768 67.4292 46.7596 67.3349C47.3566 67.0835 47.8279 67.4606 47.985 68.0576C48.1421 68.686 47.7965 69.3458 47.4509 69.9114Z" fill="#F2DEC9"/>
<path d="M46.2568 68.9693C46.2568 69.1264 46.1312 69.2521 45.9426 69.2521C45.7855 69.2521 45.6284 69.1264 45.6284 68.9693C45.6284 68.8122 45.7541 68.6865 45.9426 68.6865C46.0997 68.6865 46.2568 68.8122 46.2568 68.9693Z" fill="#CB2C1C"/>
<path d="M46.2571 68.4658C46.2571 68.6543 46.1943 68.78 46.1629 68.9686C46.1314 69.1885 45.7858 69.0942 45.8172 68.8743C45.9115 68.3087 45.8801 67.7431 45.6601 67.1776C45.5659 66.989 45.4088 66.7691 45.2202 66.612C44.9689 66.3606 44.5918 66.2349 44.2148 66.2664C43.9634 66.2978 43.7749 66.4863 43.6492 66.7377C43.5235 66.7377 43.3664 66.7691 43.2407 66.7691C43.5549 65.8893 44.5918 65.7322 45.4088 66.2978C45.5344 66.3921 45.6287 66.4863 45.6915 66.5806C45.9429 66.8948 46.0686 67.2718 46.1314 67.6489C46.1943 67.9317 46.2571 68.2145 46.2571 68.4658Z" fill="#CB3E3D"/>
<path opacity="0.09" d="M24.9222 77.5474C21.8115 76.8561 22.6599 70.572 22.6599 70.572C28.944 68.781 34.9454 67.7127 40.2555 67.1157C40.287 67.1157 40.3184 67.1157 40.3812 67.1157C41.5438 66.99 42.6749 66.8643 43.7432 66.77C43.7747 66.77 43.8061 66.77 43.8375 66.77C54.0493 65.9217 60.899 66.7072 60.899 66.7072C31.332 67.6812 23.7282 71.4203 23.7282 71.4203C22.5028 75.0337 24.9222 77.5474 24.9222 77.5474Z" fill="#F7CCBD"/>
<path d="M46.8538 59.3857C46.0683 59.9827 45.3142 60.2969 45.1571 60.1083C45 59.9198 45.4713 59.26 46.2568 58.663C47.0423 58.066 47.7964 57.7518 47.9535 57.9403C48.1106 58.1288 47.6079 58.7887 46.8538 59.3857Z" fill="#F8F8F9"/>
<path d="M44.5916 61.1144C44.4031 61.2401 44.1517 61.2401 43.9946 61.0516C43.8375 60.8631 43.8689 60.6117 44.0575 60.486C44.246 60.3603 44.4974 60.3603 44.6545 60.5489C44.7802 60.7374 44.7487 60.9888 44.5916 61.1144Z" fill="#F8F8F9"/>
<path d="M37.9934 59.5743C38.6847 60.2342 39.1246 60.9254 38.936 61.114C38.7475 61.3025 38.0248 60.894 37.3336 60.2342C36.6423 59.5743 36.2024 58.8831 36.391 58.6946C36.5481 58.506 37.2707 58.9145 37.9934 59.5743Z" fill="#F8F8F9"/>
<path d="M40.0356 61.5553C40.1927 61.7124 40.1927 61.9638 40.0356 62.1209C39.8785 62.278 39.6272 62.278 39.4386 62.1209C39.2815 61.9638 39.2815 61.7124 39.4386 61.5553C39.6272 61.3982 39.8785 61.3982 40.0356 61.5553Z" fill="#F8F8F9"/>
<path d="M55.0234 64.3501C54.9606 64.3187 54.8978 64.2873 54.8663 64.2559C54.8663 64.193 54.8663 64.1302 54.8349 64.0673C54.7721 62.5591 55.7461 60.9567 56.7516 61.6165C57.2543 61.9307 57.2229 62.5277 57.1286 62.8733C57.4743 62.9676 58.0084 63.1875 58.0713 63.7845C58.1969 64.9157 56.3431 65.0728 55.0234 64.3501Z" fill="#E9626A"/>
<path d="M30.1694 66.4238C30.2008 66.4867 30.2323 66.5495 30.2323 66.6123C30.2008 66.6752 30.1694 66.738 30.1066 66.7695C29.2268 67.9949 27.4672 68.6547 27.0902 67.5236C26.9016 66.958 27.3101 66.5181 27.5615 66.2981C27.3415 66.0154 27.0588 65.5126 27.373 65.0099C28.0014 64.0044 29.5724 65.0413 30.1694 66.4238Z" fill="#D93D40"/>
<path d="M63.0668 69.2836C63.0354 69.2836 62.9726 69.2836 62.9412 69.2836C62.9097 69.2522 62.8783 69.2208 62.8783 69.158C62.3756 68.2782 62.4384 67.0528 63.2554 67.1156C63.6638 67.147 63.6324 67.744 63.6953 67.964C63.9152 67.9011 64.4808 67.6498 64.7007 67.964C65.1092 68.6238 64.0723 69.3151 63.0668 69.2836Z" fill="#EF3829"/>
</g>
<path d="M177.71 88.3779C176.909 89.3154 175.742 90.043 174.209 90.5605C172.676 91.0684 170.977 91.3076 169.111 91.2783C167.324 91.2588 165.815 90.8096 164.585 89.9307C163.354 89.0518 162.476 87.8262 161.948 86.2539C161.421 84.6816 161.279 82.9092 161.523 80.9365L161.641 80.0576C162.09 76.7471 163.252 74.125 165.127 72.1914C167.012 70.2578 169.316 69.3154 172.041 69.3643C174.424 69.4033 176.255 70.043 177.534 71.2832C178.813 72.5234 179.526 74.3154 179.673 76.6592L174.868 76.6445C174.8 75.502 174.517 74.667 174.019 74.1396C173.53 73.6123 172.832 73.334 171.924 73.3047C170.576 73.2559 169.463 73.7881 168.584 74.9014C167.705 76.0049 167.104 77.5869 166.782 79.6475C166.509 81.4053 166.411 82.7725 166.489 83.749C166.636 86.1025 167.695 87.2939 169.668 87.3232C170.859 87.3428 171.904 87.0547 172.803 86.459L173.462 83.1338H169.99L170.605 79.6035H179.087L177.71 88.3779ZM185.356 91H180.347L184.053 69.6719H189.048L185.356 91ZM206.626 88.3779C205.825 89.3154 204.658 90.043 203.125 90.5605C201.592 91.0684 199.893 91.3076 198.027 91.2783C196.24 91.2588 194.731 90.8096 193.501 89.9307C192.271 89.0518 191.392 87.8262 190.864 86.2539C190.337 84.6816 190.195 82.9092 190.439 80.9365L190.557 80.0576C191.006 76.7471 192.168 74.125 194.043 72.1914C195.928 70.2578 198.232 69.3154 200.957 69.3643C203.34 69.4033 205.171 70.043 206.45 71.2832C207.729 72.5234 208.442 74.3154 208.589 76.6592L203.784 76.6445C203.716 75.502 203.433 74.667 202.935 74.1396C202.446 73.6123 201.748 73.334 200.84 73.3047C199.492 73.2559 198.379 73.7881 197.5 74.9014C196.621 76.0049 196.021 77.5869 195.698 79.6475C195.425 81.4053 195.327 82.7725 195.405 83.749C195.552 86.1025 196.611 87.2939 198.584 87.3232C199.775 87.3428 200.82 87.0547 201.719 86.459L202.378 83.1338H198.906L199.521 79.6035H208.003L206.626 88.3779ZM221.45 87.0156H214.639L212.749 91H207.227L218.521 69.6719H223.237L227.178 91H221.963L221.45 87.0156ZM216.514 83.0459H220.938L220 75.6924L216.514 83.0459ZM240.625 85.2285C240.84 84.125 240.244 83.2705 238.838 82.665L236.436 81.6689C233.066 80.1553 231.465 78.0947 231.631 75.4873C231.699 74.2959 232.109 73.2363 232.861 72.3086C233.613 71.3711 234.653 70.6436 235.981 70.126C237.31 69.6084 238.76 69.3594 240.332 69.3789C242.441 69.418 244.136 70.0332 245.415 71.2246C246.704 72.416 247.339 74.0127 247.319 76.0146H242.339C242.368 75.1943 242.192 74.54 241.812 74.0518C241.44 73.5537 240.825 73.2949 239.966 73.2754C239.126 73.2559 238.384 73.4512 237.739 73.8613C237.095 74.2715 236.714 74.8232 236.597 75.5166C236.411 76.4932 237.134 77.2939 238.765 77.9189C240.405 78.5439 241.597 79.0811 242.339 79.5303C244.673 80.9268 245.767 82.8115 245.62 85.1846C245.542 86.415 245.146 87.4941 244.434 88.4219C243.721 89.3496 242.729 90.0674 241.46 90.5752C240.2 91.083 238.784 91.3271 237.212 91.3076C236.06 91.2881 234.99 91.1074 234.004 90.7656C233.018 90.4238 232.173 89.9258 231.47 89.2715C230.044 87.9531 229.36 86.2197 229.419 84.0713L234.443 84.0859C234.385 85.1797 234.595 86.0098 235.073 86.5762C235.552 87.1328 236.357 87.4111 237.49 87.4111C238.33 87.4111 239.028 87.2207 239.585 86.8398C240.151 86.4492 240.498 85.9121 240.625 85.2285Z" fill="#BBBBBB"/>
<path d="M186.692 35.4747C185.857 36.0545 184.442 35.7994 183.488 35.772C181.06 35.6283 178.39 33.696 177.642 31.3652C177.449 30.776 177.207 27.17 178.344 27.3075C178.439 27.315 178.461 27.3407 178.505 27.3919C179.512 26.754 180.621 26.3392 181.832 26.1478C183.064 25.982 184.644 25.9631 185.857 26.3458C186.862 26.6403 186.959 27.8435 187.323 28.6853C187.865 29.9955 188.141 31.0455 188.007 32.4458C187.902 33.4658 187.603 34.8292 186.692 35.4747Z" fill="#D93D40"/>
<path d="M170.308 58.8606C168.183 60.63 165.527 61.5682 162.939 62.5359C161.904 62.9325 160.769 63.3691 159.635 63.4949C158.428 63.6388 157.093 63.8922 155.85 63.8898C155.492 63.8854 154.288 63.9818 154.084 63.5353C153.964 63.2388 154.203 62.9468 154.459 62.7279C154.98 61.8842 155.884 61.3337 156.628 60.6989C157.371 60.0641 158.079 59.2829 158.935 58.7288C159.364 58.4517 159.814 58.2002 160.29 57.9269C161.392 57.2964 162.556 56.7904 163.716 56.3319C165.443 55.6551 167.277 54.8432 169.142 54.536C171.103 54.2363 172.973 53.5708 175.013 53.4687C175.182 53.458 175.357 53.6632 175.225 53.8201C173.81 55.6933 172.102 57.3282 170.308 58.8606Z" fill="#C5C25E"/>
<path d="M179.276 44.5985C179.199 44.6641 179.1 44.7042 179.024 44.7698C177.75 45.4585 176.365 44.8232 175.247 44.1372C173.695 43.2017 172.403 41.6889 171.269 40.3081C170.463 39.3119 170.191 38.2144 170.613 37.0999C170.544 37.0705 170.504 36.9717 170.537 36.8547C170.754 35.9154 170.903 34.9466 171.168 34.011C171.425 33.1704 171.789 32.1948 172.277 31.468C172.82 30.65 173.315 29.8282 173.993 29.1164C174.799 28.2952 175.66 27.6935 176.553 26.9749C177.267 26.4095 178.338 24.9635 179.379 25.7151C179.988 26.1698 180.561 27.0997 180.991 27.7075C181.44 28.3886 181.687 29.1972 181.89 29.9545C182.144 30.9789 182.325 32.0215 182.458 33.0602C182.818 35.767 182.769 38.5131 181.755 41.0635C181.637 41.3412 181.546 41.597 181.428 41.8747C180.888 42.9561 180.283 43.9605 179.276 44.5985Z" fill="#EA4F4F"/>
<path d="M183.47 42.6584C182.294 43.6179 180.797 44.4085 179.275 44.5993C178.504 44.6819 177.718 44.6439 177.002 44.3243C175.704 43.7916 174.569 43.0324 173.906 41.7366C173.447 40.8874 173.269 39.7973 173.556 38.8873C173.443 38.8067 173.359 38.6566 173.513 38.5252L173.59 38.4595C173.667 38.3939 173.792 38.332 173.894 38.2444C173.894 38.2444 173.894 38.2444 173.92 38.2225C173.945 38.2006 173.945 38.2006 173.971 38.1787C174.993 37.3506 176.055 36.6213 177.139 35.9177C177.618 35.5968 178.12 35.3016 178.599 34.9807C179.782 34.2371 181.103 33.5522 182.435 33.0355C182.93 32.8353 183.445 32.6608 183.936 32.5082C185.235 32.1085 190.605 31.0255 189.297 33.9594C188.633 35.4135 187.851 36.8344 187.143 38.2372C186.438 39.5925 185.449 40.6145 184.452 41.7315C184.115 42.0636 183.803 42.3739 183.47 42.6584Z" fill="#EA4F4F"/>
<path d="M159.786 27.3279C159.949 27.9865 160.745 28.5036 161.242 28.8776C162.479 29.86 164.589 30.0981 165.922 29.2706C166.273 29.0592 167.838 27.4131 167.228 26.9585C167.206 26.9328 167.158 26.9291 167.111 26.9253C166.886 26.1423 166.51 25.4432 165.985 24.8278C165.46 24.2124 164.678 23.5052 163.919 23.1344C163.319 22.848 162.752 23.3771 162.228 23.6467C161.474 24.1133 160.917 24.4998 160.404 25.2484C160.001 25.8145 159.604 26.5962 159.786 27.3279Z" fill="#B72C38"/>
<path d="M159.73 35.3108C160.09 36.2001 161.022 36.5127 161.87 36.6752C162.999 36.9078 164.28 36.7458 165.395 36.5468C166.218 36.4204 166.779 35.9863 167.051 35.2665C167.098 35.2702 167.171 35.2521 167.201 35.1827C167.461 34.6054 167.788 34.1051 168.052 33.4803C168.262 32.9468 168.479 32.3183 168.549 31.726C168.624 31.0862 168.72 30.4721 168.699 29.8248C168.664 29.0568 168.479 28.3726 168.323 27.619C168.226 27.0374 168.272 25.8454 167.442 25.756C166.945 25.6929 166.283 25.9037 165.818 26.0344C165.306 26.1614 164.852 26.4604 164.471 26.7412C162.541 28.1673 160.731 29.8897 159.97 32.2688C159.628 33.2701 159.333 34.2751 159.73 35.3108Z" fill="#D33543"/>
<path d="M163.495 36.0845C162.631 36.4229 161.779 36.3079 160.921 35.9771C160.431 35.8189 160.026 35.5 159.676 35.0897L159.588 34.9872C159.15 34.4744 158.844 33.8046 158.634 33.1423C158.441 32.5532 158.321 31.9459 158.341 31.3975C158.346 30.4175 158.253 29.4775 158.474 28.4906C158.674 27.4781 158.873 26.4655 159.142 25.4824C159.146 25.4348 159.146 25.4348 159.146 25.4348C159.382 24.5687 159.952 24.6136 160.518 25.017C161.288 25.556 162.087 26.6473 162.364 27.0757C162.532 27.3759 162.725 27.6541 162.889 28.0019C163.18 28.5509 163.443 29.1694 163.661 29.7367C163.781 30.0331 163.875 30.3514 163.97 30.6697C164.308 31.8442 164.693 33.0224 164.91 34.2113C164.906 34.2589 164.928 34.2845 164.946 34.3577C164.965 34.4308 164.983 34.504 165.001 34.5772L165.019 34.6503C165.033 34.771 164.935 34.8111 164.839 34.8036C164.601 35.4065 164.062 35.8662 163.495 36.0845Z" fill="#D33543"/>
<path d="M177.705 28.4299C176.782 29.218 175.864 29.6477 175.645 29.3913C175.426 29.1349 175.994 28.2949 176.917 27.5069C177.84 26.7188 178.759 26.2891 178.978 26.5455C179.197 26.8019 178.628 27.6419 177.705 28.4299Z" fill="#F8F8F9"/>
<path d="M174.987 30.7511C174.782 30.9263 174.45 30.9 174.253 30.6693C174.056 30.4385 174.104 30.1314 174.309 29.9563C174.514 29.7812 174.847 29.8074 175.044 30.0382C175.241 30.2689 175.192 30.576 174.987 30.7511Z" fill="#F8F8F9"/>
<path d="M167.81 28.677C167.863 29.5181 167.737 30.2017 167.496 30.2305C167.28 30.2374 167.022 29.5713 166.968 28.7302C166.915 27.889 167.041 27.2054 167.282 27.1767C167.524 27.1479 167.756 27.8358 167.81 28.677Z" fill="#F8F8F9"/>
<path d="M167.995 31.1777C168.028 31.3716 167.87 31.5504 167.655 31.5573C167.439 31.5642 167.307 31.4104 167.275 31.2165C167.242 31.0226 167.4 30.8438 167.616 30.8369C167.831 30.83 167.988 30.9619 167.995 31.1777Z" fill="#F8F8F9"/>
<path d="M192.451 46.7381C191.599 46.6231 190.927 46.3548 190.967 46.1428C190.986 45.9052 191.71 45.8188 192.515 45.9301C193.366 46.0451 194.039 46.3133 193.998 46.5254C193.983 46.7155 193.281 46.8275 192.451 46.7381Z" fill="#F8F8F9"/>
<path d="M189.99 46.4003C189.8 46.3853 189.647 46.2058 189.688 45.9938C189.703 45.8037 189.882 45.6505 190.094 45.6911C190.284 45.7061 190.437 45.8856 190.397 46.0976C190.356 46.3096 190.18 46.4153 189.99 46.4003Z" fill="#F8F8F9"/>
<path d="M161.206 34.493L160.961 34.5694L159.636 34.991L159.589 34.9872L158.608 35.2925C158.55 35.1205 158.513 34.9742 158.43 34.8241C158.233 34.2825 158.231 33.7084 158.25 33.1599C158.258 33.0648 158.382 33.0029 158.426 33.0542C158.495 33.0836 158.565 33.113 158.634 33.1424C158.441 32.5532 158.322 31.946 158.341 31.3975C158.347 30.4175 158.254 29.4775 158.475 28.4906C158.674 27.4781 158.874 26.4656 159.143 25.4824C159.054 26.0015 158.498 29.712 159.853 32.545C160.177 33.288 160.603 33.9434 161.206 34.493Z" fill="#B72C38"/>
<path d="M183.47 42.6577C182.295 43.6171 180.798 44.4077 179.276 44.5986C179.199 44.6643 179.1 44.7043 179.023 44.77C177.749 45.4586 176.365 44.8233 175.247 44.1373C173.695 43.2018 172.403 41.6891 171.269 40.3083C170.463 39.312 170.19 38.2145 170.613 37.1C170.544 37.0706 170.504 36.9718 170.537 36.8548C170.754 35.9155 170.903 34.9467 171.168 34.0111C171.425 33.1706 171.789 32.1949 172.277 31.4682C172.277 31.4682 171.316 34.8598 173.228 36.9954C173.228 36.9954 175.659 35.5849 177.135 35.9645C177.417 36.0345 177.691 36.1996 177.862 36.4522C178.963 37.95 179.118 41.4535 179.118 41.4535C179.118 41.4535 180.207 41.5872 181.38 41.8711C182.108 42.048 182.875 42.3238 183.47 42.6577Z" fill="#DB4040"/>
<path d="M158.198 57.7628C158.121 57.8284 158 57.8428 157.935 57.7659C157.373 57.315 156.744 57.0981 156.262 56.534C155.916 56.0762 155.599 55.549 155.329 55.0256C154.597 53.7004 154.223 52.3796 154.076 50.9093C153.932 49.7023 154.325 48.6572 154.7 47.539C155.138 46.2344 155.353 44.7209 156.068 43.5338C156.149 43.4206 156.412 43.4175 156.449 43.5638C157.001 45.0422 157.701 46.4843 158.331 47.8971C158.819 48.9877 159.412 50.2541 159.75 51.4286C160.026 52.4786 159.943 53.8351 159.787 54.899C159.787 54.899 159.787 54.899 159.761 54.9209C159.698 55.418 159.478 55.7833 159.254 56.1961C159.254 56.1961 159.254 56.1961 159.276 56.2217C159.32 56.273 159.312 56.3681 159.283 56.4375C159.177 56.5726 159.092 56.7333 158.986 56.8684C158.982 56.9159 158.957 56.9378 158.953 56.9854C158.949 57.0329 158.945 57.0804 158.916 57.1498C158.89 57.1717 158.89 57.1717 158.865 57.1936C158.835 57.263 158.762 57.2812 158.689 57.2993C158.531 57.4782 158.374 57.6571 158.198 57.7628Z" fill="#C5C25E"/>
<path d="M193.224 53.9242C192.592 53.7547 192.081 52.9492 191.665 52.4621C190.688 51.2132 190.447 49.1138 191.272 47.7441C191.467 47.4007 193.123 45.8096 193.575 46.4431C193.597 46.4687 193.593 46.5163 193.589 46.5638C194.36 46.792 195.047 47.181 195.653 47.6831C196.281 48.2109 196.96 49.0058 197.331 49.7525C197.641 50.3747 197.073 50.9038 196.816 51.4336C196.42 52.2154 196.038 52.807 195.28 53.3211C194.724 53.7077 193.926 54.123 193.224 53.9242Z" fill="#B72C38"/>
<path d="M185.281 53.9681C184.4 53.6116 184.091 52.6786 183.943 51.8299C183.722 50.6886 183.871 49.409 184.056 48.2757C184.193 47.4496 184.596 46.8836 185.335 46.6071C185.339 46.5596 185.369 46.4901 185.394 46.4682C185.965 46.2024 186.47 45.8597 187.063 45.6195C187.583 45.3974 188.245 45.1866 188.801 45.1109C189.43 45.017 190.06 44.9232 190.699 44.9976C191.46 45.0576 192.14 45.2308 192.893 45.3858C193.481 45.504 194.659 45.4295 194.76 46.2744C194.817 46.7572 194.596 47.4332 194.489 47.8792C194.379 48.3726 194.078 48.8511 193.785 49.2345C192.366 51.1552 190.618 53.0021 188.287 53.7508C187.281 54.078 186.278 54.3576 185.281 53.9681Z" fill="#D33543"/>
<path d="M184.61 52.7675C184.32 51.9076 184.197 51.0371 184.528 50.1784C184.741 49.5974 185.188 49.0826 185.781 48.8424C185.763 48.7693 185.796 48.6523 185.938 48.6636L186.008 48.693C186.077 48.7223 186.172 48.7298 186.242 48.7592C186.242 48.7592 186.264 48.7849 186.289 48.763C187.514 49.003 188.705 49.3601 189.919 49.7427C191.132 50.1254 192.403 50.68 193.473 51.3623C194.226 51.8281 197.11 54.0644 195.131 54.6017C194.128 54.8814 193.086 55.0622 192.087 55.2943C191.114 55.5045 190.163 55.4295 189.209 55.402C187.469 55.3365 185.218 54.4654 184.61 52.7675Z" fill="#D33543"/>
<path d="M165.879 37.9944C165.125 38.461 164.309 38.8032 163.442 38.8783C163.153 38.9033 162.842 38.9027 162.535 38.8546C162.345 38.8396 162.181 38.8027 161.969 38.7621C160.891 38.4857 159.934 37.8841 159.292 36.9248C158.971 36.4452 158.778 35.8561 158.582 35.3145C158.524 35.1425 158.488 34.9961 158.404 34.8461C158.207 34.3045 158.205 33.7304 158.224 33.1819C158.232 33.0868 158.356 33.0249 158.4 33.0762C158.469 33.1056 158.539 33.135 158.608 33.1643C158.908 33.3075 159.233 33.4288 159.58 33.5758C159.649 33.6052 159.719 33.6346 159.741 33.6602C160.084 33.8547 160.376 34.0929 160.716 34.335C160.76 34.3862 160.829 34.4156 160.873 34.4669L160.938 34.5438C161.048 34.672 161.147 34.632 161.184 34.4675C161.261 34.4018 161.444 34.2011 161.521 34.1354C161.858 33.8033 162.22 33.4493 162.645 33.2197C163.073 32.9427 163.714 32.3954 164.204 32.8644C164.536 33.2015 164.758 33.7212 164.907 34.259C164.903 34.3065 164.925 34.3322 164.943 34.4053C165.019 34.6505 165.048 34.8919 165.128 35.0895C165.582 34.7905 166.007 34.561 166.581 34.5584C166.844 34.5553 167.177 34.5815 167.458 34.6516C167.528 34.681 167.619 34.736 167.71 34.791L167.736 34.7691C167.864 34.6597 168.039 34.8648 167.911 34.9742C167.885 34.9961 167.885 34.9961 167.86 35.018C167.834 35.0399 167.834 35.0399 167.83 35.0875C167.698 35.2444 167.607 35.5002 167.518 35.7085C167.353 35.9824 167.258 36.2858 167.067 36.5816C166.74 37.0819 166.41 37.6298 165.879 37.9944Z" fill="#C5C25E"/>
<path d="M158.893 57.7464C159.036 57.4468 159.157 57.1216 159.3 56.822C159.3 56.822 159.3 56.822 159.326 56.8001C159.477 56.4055 159.675 56.0146 159.804 55.5943C159.833 55.5249 159.862 55.4555 159.87 55.3604C160.59 53.5042 161.15 51.5635 161.611 49.6629C162.41 46.4977 163.391 42.2468 162.535 38.8553C162.44 38.537 162.368 38.2443 162.273 37.926C162.077 37.3844 162.911 37.1154 163.108 37.657C163.268 38.0522 163.38 38.4437 163.442 38.879C164.123 42.0654 163.388 45.9291 162.724 48.8898C162.318 50.6991 161.839 52.5266 161.196 54.3171C161.163 54.4341 161.104 54.5729 161.071 54.6899C160.946 55.0626 160.795 55.4573 160.648 55.8044C160.619 55.8738 160.615 55.9213 160.585 55.9908C160.582 56.0383 160.552 56.1077 160.527 56.1296C159.984 56.6368 159.417 57.166 158.893 57.7464Z" fill="#C5C25E"/>
<path d="M145.579 76.1605C146.713 72.3999 149.301 69.304 151.508 66.1781C153.261 63.662 154.831 61.0358 156.81 58.681C157.129 58.2757 157.496 57.8742 157.858 57.5202C158.485 56.8522 159.108 56.2318 159.778 55.6151C159.958 55.4619 160.09 55.3049 160.269 55.1517C160.577 54.889 160.863 54.6006 161.196 54.3161C162.482 53.174 163.808 52.1307 165.115 51.0143L169.653 47.1397C170.243 46.6362 170.8 45.9388 171.503 45.516C170.229 44.3872 169.439 42.8901 168.923 41.2472C168.617 40.2666 168.799 39.1809 168.925 38.1865C168.992 37.6417 169.197 37.1558 169.286 36.6367C169.36 36.3077 169.511 35.9131 169.541 35.5329C169.544 35.4853 169.548 35.4378 169.552 35.3903C169.556 35.3427 169.556 35.3427 169.559 35.2952C169.509 35.0282 169.948 34.9193 169.995 35.2339L169.991 35.2814C170.605 35.3777 171.211 35.8798 171.635 36.2719C172.35 36.9023 172.648 37.6671 172.866 38.5452C173.807 37.8303 175.104 36.8565 176.278 36.8295C177.356 36.795 177.58 38.1997 177.827 39.0083C178.1 39.795 178.157 40.5886 178.236 41.4079C178.269 41.6018 178.235 42.0296 178.293 42.2015C178.124 42.523 178.234 42.6512 178.647 42.5642C178.768 42.5499 178.91 42.5611 179.005 42.5686C179.649 42.5954 180.267 42.6442 180.899 42.8136C181.696 43.02 182.408 43.387 183.205 43.5933C183.322 43.6265 183.402 43.8241 183.321 43.9373C182.717 44.6309 182.159 45.3283 181.336 45.7655C180.289 46.3047 179.227 47.0339 178.104 47.328C176.322 47.7852 174.531 47.4526 172.902 46.5828C172.65 46.4434 172.445 46.3077 172.241 46.172C171.084 46.5829 169.677 48.3611 168.831 49.0835C167.574 50.1561 166.314 51.2763 165.036 52.3233C164.523 52.7611 164.014 53.1514 163.501 53.5892C162.608 54.3078 161.732 55.0997 160.882 55.8696C160.78 55.9571 160.651 56.0666 160.571 56.1798C160.003 56.7089 159.435 57.238 158.889 57.7928C158.735 57.9242 158.629 58.0593 158.475 58.1906C155.947 60.8368 154.185 64.0696 152.04 67.0092C149.943 69.9524 147.483 72.9389 146.412 76.5131C146.254 77.0028 145.417 76.6977 145.579 76.1605Z" fill="#C5C25E"/>
<path d="M188.474 55.3196C188.12 55.2678 187.743 55.1902 187.371 55.0652C186.647 54.8407 185.956 54.4993 185.445 54.0046C185.376 53.9752 185.329 53.9715 185.259 53.9421C184.378 53.5857 184.069 52.6526 183.921 51.804C183.7 50.6626 183.871 49.4087 184.034 48.2498C184.171 47.4236 184.574 46.8576 185.314 46.5811C185.317 46.5336 185.321 46.4861 185.372 46.4423C185.57 46.3622 185.72 46.2784 185.896 46.1727C186.269 45.987 186.646 45.7537 187.067 45.5716C187.587 45.3496 188.249 45.1388 188.805 45.0631C189.456 44.9949 190.085 44.901 190.703 44.9497C191.252 44.9691 191.767 45.1054 192.286 45.1942L192.202 45.3549C192.202 45.3549 188.279 44.7585 186.902 47.663C186.902 47.663 189.077 48.2889 188.917 49.4002C188.784 50.4897 188.336 51.3152 187.08 52.3879C187.08 52.3879 187.678 52.9851 188.071 53.7574C188.315 54.3028 188.49 54.8187 188.474 55.3196Z" fill="#B72C38"/>
<path d="M185.728 55.2702C185.055 55.002 184.259 54.7957 183.692 54.3923C182.761 53.7689 182.145 52.7876 181.873 51.6901C181.528 50.2998 181.897 48.9658 182.638 47.7569C182.968 47.209 183.543 46.8957 184.048 46.5529C184.3 46.3815 184.644 46.2652 184.919 46.1194C185.095 46.0137 185.34 45.9374 185.541 45.8098C185.567 45.7879 185.593 45.7661 185.593 45.7661C185.618 45.7442 185.618 45.7442 185.618 45.7442C185.724 45.6091 185.951 45.7704 185.845 45.9055C185.845 45.9055 185.845 45.9055 185.819 45.9274C186.034 46.2313 186.044 46.7104 186.04 47.0687C186.042 47.6428 185.815 48.1032 185.518 48.5341C186.245 48.711 187.21 48.9067 187.717 49.4489C188.181 49.9398 187.627 50.5896 187.356 50.9987C187.106 51.4333 186.769 51.7654 186.407 52.1194C186.304 52.207 186.125 52.3602 186.07 52.4515C185.85 52.506 185.842 52.601 186.069 52.7624C186.113 52.8136 186.156 52.8649 186.222 52.9418C186.485 53.2495 186.7 53.5535 186.911 53.9049C187.141 54.3295 187.268 54.8417 187.497 55.2664C187.516 55.3395 187.482 55.4565 187.387 55.449C186.835 55.4772 186.261 55.4797 185.728 55.2702Z" fill="#C5C25E"/>
<path d="M182.682 51.4436C182.379 51.348 182.075 51.2523 181.746 51.1785C178.369 50.3382 174.133 51.2954 170.986 52.0755C167.522 52.95 164.013 54.0841 160.886 55.8223C160.788 55.8623 160.711 55.928 160.612 55.968C160.26 56.1794 159.909 56.3908 159.557 56.6023C159.459 56.6423 159.356 56.7299 159.279 56.7955C158.799 57.1164 158.294 57.4591 157.858 57.8313C157.503 58.0902 157.144 58.3967 156.811 58.6813C157.13 58.276 157.496 57.8745 157.859 57.5205C158.486 56.8525 159.108 56.2321 159.779 55.6154C159.808 55.5459 159.838 55.4765 159.845 55.3815C159.995 55.2976 160.12 55.2357 160.27 55.1519C160.544 55.0062 160.819 54.8604 161.071 54.6891C161.869 54.2737 162.689 53.8841 163.505 53.5419C166.155 52.3879 168.947 51.5559 171.745 50.9397C174.69 50.2872 178.528 49.5377 181.701 50.2423C182.125 50.3236 182.545 50.4524 182.918 50.5775C183.499 50.7907 183.219 51.6056 182.682 51.4436Z" fill="#C5C25E"/>
<path d="M171.496 41.666C171.194 40.6378 171.123 39.4127 171.396 38.382C171.429 38.265 171.268 38.1806 171.166 38.2682C170.766 38.7867 170.75 39.5984 170.701 40.2163C170.66 40.7392 170.596 41.5472 171.067 41.943C171.246 42.1006 171.572 41.9111 171.496 41.666Z" fill="#BAB23C"/>
<path d="M174.831 41.833C175.029 41.4421 175.001 40.8899 175.316 40.5321C175.368 40.4884 175.276 40.4333 175.251 40.4552C174.925 40.6447 174.844 41.0688 174.722 41.394C174.535 41.9531 174.026 42.3434 173.886 42.9062C173.856 42.9757 173.944 43.0782 174.043 43.0382C174.42 42.8049 174.659 42.202 174.831 41.833Z" fill="#BAB23C"/>
<path d="M179.309 44.4824C178.709 44.5068 178.16 44.7983 177.535 44.8446C177.03 44.8765 176.475 44.6414 176.061 45.0392C175.903 45.2181 175.881 45.5032 176.111 45.6171C177.342 46.3837 178.419 45.1535 179.327 44.5555C179.353 44.5336 179.309 44.4824 179.309 44.4824Z" fill="#BAB23C"/>
<path d="M161.99 36.9705C161.746 36.736 161.398 36.5891 161.103 36.3983C160.694 36.1269 160.435 35.7717 160.051 35.4785C160.029 35.4528 160.004 35.4747 160.026 35.5003C160.467 36.2764 161.153 36.6654 161.909 37.0837C161.957 37.0875 162.034 37.0218 161.99 36.9705Z" fill="#BAB23C"/>
<path d="M163.342 35.906C163.39 35.5989 163.39 35.2881 163.46 35.0066C163.464 34.9591 163.417 34.9554 163.391 34.9772C163.123 35.3387 163.001 35.9748 163.11 36.4138C163.128 36.487 163.176 36.4907 163.227 36.4469C163.429 36.3194 163.327 36.0961 163.342 35.906Z" fill="#BAB23C"/>
<path d="M165.406 37.0249C165.483 36.9592 165.908 36.108 165.956 36.1118C165.978 36.1374 165.982 36.0899 165.982 36.0899C165.96 36.0642 165.938 36.0386 165.916 36.0129C165.894 35.9873 165.868 36.0092 165.868 36.0092C165.586 36.25 165.396 36.5458 165.114 36.7866C164.857 37.0055 164.583 37.1513 164.439 37.4508C164.384 37.5422 164.494 37.6703 164.593 37.6303C164.915 37.4883 165.193 37.2951 165.406 37.0249Z" fill="#BAB23C"/>
<path d="M184.032 49.1828C184.175 48.8832 184.315 48.3203 184.659 48.204C184.382 48.0864 184.173 48.3091 184.059 48.5392C183.809 48.9739 183.659 49.3686 183.526 49.8364C183.497 49.9058 183.61 49.9865 183.661 49.9427C183.866 49.7675 183.893 49.4348 184.032 49.1828Z" fill="#BAB23C"/>
<path d="M185.521 50.6159C185.13 50.7285 184.365 50.716 184.145 51.0813C184.116 51.1507 184.182 51.2276 184.255 51.2095C184.679 50.9799 185.137 50.9443 185.521 50.6159Z" fill="#BAB23C"/>
<path d="M185.383 53.8806C185.083 53.7374 184.43 53.2315 184.361 52.8913C184.321 52.7925 184.204 52.7593 184.171 52.8763C183.976 53.5305 184.849 53.982 185.383 53.8806Z" fill="#BAB23C"/>
<path d="M171.645 55.5472C169.175 56.548 167.01 58.2186 164.536 59.267C163.471 59.733 162.381 60.2208 161.276 60.588C160.712 60.7588 160.156 60.8345 159.651 61.1773C159.574 61.2429 159.683 61.3711 159.757 61.353C163.965 59.8436 168.169 58.3818 171.645 55.5472C171.671 55.5253 171.693 55.551 171.645 55.5472Z" fill="#BAB23C"/>
<path d="M158.258 55.1846C156.764 52.6036 155.907 49.523 156.406 46.5254C155.943 47.8519 156.071 49.8707 156.295 51.2753C156.541 52.7056 156.965 54.2934 158.057 55.3121C158.144 55.4147 158.342 55.3346 158.258 55.1846Z" fill="#BAB23C"/>
<path d="M192.733 46.4983C191.91 46.3139 191.242 45.9981 191.308 45.7642C191.349 45.5522 192.047 45.4877 192.895 45.6503C193.718 45.8347 194.386 46.1505 194.32 46.3844C194.254 46.6183 193.555 46.6828 192.733 46.4983Z" fill="#F8F8F9"/>
<path d="M190.288 45.9698C190.076 45.9291 189.97 45.7534 190.011 45.5414C190.026 45.3513 190.227 45.2237 190.439 45.2643C190.651 45.3049 190.757 45.4807 190.716 45.6927C190.676 45.9047 190.474 46.0323 190.288 45.9698Z" fill="#F8F8F9"/>
<path opacity="0.09" d="M158.641 57.2956C158.51 57.4526 158.352 57.6314 158.198 57.7628C158.121 57.8284 158 57.8428 157.935 57.7659C157.373 57.315 156.744 57.0981 156.262 56.534C155.916 56.0762 155.599 55.549 155.329 55.0256C154.597 53.7004 154.223 52.3796 154.076 50.9093C153.932 49.7023 154.325 48.6572 154.7 47.539C155.138 46.2344 155.353 44.7209 156.068 43.5338C156.149 43.4206 156.412 43.4175 156.449 43.5638C156.449 43.5638 154.554 53.0275 156.708 55.1343C158.726 57.1348 159.67 55.1766 159.758 54.9684C159.695 55.4656 159.474 55.8308 159.251 56.2436C159.251 56.2436 159.251 56.2436 159.272 56.2692C159.316 56.3205 159.309 56.4156 159.279 56.485C159.173 56.6201 159.089 56.7808 158.982 56.9159C158.979 56.9635 158.953 56.9854 158.949 57.0329C158.945 57.0804 158.942 57.1279 158.912 57.1974C158.887 57.2193 158.887 57.2193 158.861 57.2411C158.762 57.2812 158.711 57.325 158.641 57.2956Z" fill="#CB2C1C"/>
<path opacity="0.09" d="M162.939 62.5365C161.903 62.933 160.769 63.3697 159.635 63.4954C158.428 63.6394 157.093 63.8927 155.849 63.8903C155.491 63.886 154.288 63.9824 154.084 63.5358C153.964 63.2394 154.202 62.9473 154.458 62.7284C154.979 61.8847 155.884 61.3343 156.627 60.6995C157.371 60.0646 158.078 59.2835 158.935 58.7293C159.363 58.4522 159.813 58.2008 160.289 57.9275L160.304 58.0482C160.304 58.0482 156.024 60.7714 157.03 62.2617C158.044 63.6569 162.672 62.5872 162.939 62.5365Z" fill="#CB2C1C"/>
<path d="M158.263 78.7639C158.166 77.5606 157.772 77.0991 156.739 76.5632C155.062 75.6896 154.926 74.0767 155.511 72.425C155.904 71.38 156.104 70.0566 155.664 68.9697C155.485 68.5013 155.168 67.9741 154.814 67.6114C154.792 67.5857 154.164 67.0579 153.737 66.7134C154.041 66.809 154.318 66.9266 154.596 67.0441C155.542 67.4775 156.617 67.8014 157.625 68.0483C158.517 68.2622 160.704 68.4346 160.721 67.0012C160.727 65.7104 158.59 64.92 157.595 64.7938C156.009 64.5969 153.708 64.6545 152.346 65.5515C152.303 65.5002 152.255 65.4964 152.211 65.4452C152.189 65.4195 152.164 65.4414 152.142 65.4158C152.069 65.1231 152.074 64.7647 152.019 64.5452C151.91 64.1062 151.776 63.6891 151.594 63.2682C151.255 62.4045 150.822 61.5334 150.385 60.7098C149.842 59.7104 148.499 58.2414 147.265 59.0289C146.284 59.645 147.031 61.0908 147.497 61.845C147.964 62.5992 148.632 63.2259 149.201 63.8925C149.529 64.2771 149.836 64.6361 150.216 64.9769C149.693 64.9356 149.214 64.9457 148.804 64.9851C147.209 65.1941 146.081 66.4681 144.356 65.9016C143.402 65.5633 142.336 64.5227 141.264 64.773C140.851 64.8599 139.888 65.2384 140.012 65.7981C140.084 66.0908 140.545 66.0076 140.447 65.7368C140.389 65.5648 141.373 65.212 141.494 65.1976C142.093 65.1732 142.933 65.7416 143.463 65.9986C144.128 66.3619 144.852 66.5864 145.598 66.5257C146.486 66.4762 147.197 65.9583 148.035 65.6418C148.748 65.3872 149.974 65.3165 150.939 65.5122C151.212 65.6772 151.439 65.8386 151.614 66.0437C151.723 66.1719 151.895 66.1137 151.976 66.0005C152.064 66.1031 152.162 66.0631 152.239 65.9974C152.444 66.1331 152.696 66.2725 152.952 66.3644C152.948 66.412 152.992 66.4633 153.014 66.4889C153.783 67.6496 155.183 68.0948 155.443 69.6458C155.685 71.1236 154.904 72.2337 154.7 73.6046C154.615 74.387 154.872 75.6746 155.448 76.2462C155.649 76.4294 156.066 76.6058 156.292 76.7671C157.209 77.2699 157.727 77.6695 157.809 78.752C157.875 79.1398 158.288 79.0528 158.263 78.7639ZM151.034 65.2088C150.965 65.1794 150.873 65.1244 150.83 65.0731C150.085 64.5122 149.549 63.7286 148.958 63.0363C148.542 62.5492 148.122 62.1096 147.783 61.5567C147.36 60.8538 146.87 59.189 148.346 59.5685C149.871 59.9518 150.419 61.7886 151.035 63.0806C151.319 63.7247 151.625 64.3945 151.711 65.1187C151.725 65.2394 151.74 65.3601 151.758 65.4333C151.48 65.3157 151.272 65.2276 151.034 65.2088ZM156.794 65.2566C157.415 65.2578 158.011 65.2809 158.588 65.5417C158.84 65.6811 159.136 65.8718 159.363 66.0332C159.907 66.4109 160.313 66.419 159.993 67.1351C159.431 68.5016 157.053 67.4292 155.978 67.1053C155.346 66.9359 154.794 66.6533 154.217 66.3925C153.753 66.2124 153.238 66.0761 152.799 65.8741C153.927 65.2218 155.576 65.2323 156.794 65.2566Z" fill="#F2DEC9"/>
<path d="M91.1133 92H76.6113L84.7852 44.9785L69.8877 49.1973L71.9092 37.4639L100.21 28.0156L101.836 27.9717L91.1133 92ZM160.459 44.7588C160.049 50.9697 156.431 55.8184 149.604 59.3047C152.065 61.0625 153.896 63.2012 155.098 65.7207C156.299 68.2402 156.797 71.0088 156.592 74.0264C156.211 79.915 153.794 84.5586 149.341 87.957C144.917 91.3555 139.424 92.9961 132.861 92.8789C129.99 92.8496 127.28 92.4102 124.731 91.5605C122.183 90.7109 120 89.4365 118.184 87.7373C114.551 84.3975 112.925 80.0615 113.306 74.7295C113.716 67.7861 117.891 62.4688 125.83 58.7773C121.494 55.4082 119.473 50.9844 119.766 45.5059C119.971 41.7852 121.069 38.5186 123.062 35.7061C125.054 32.8936 127.72 30.7402 131.06 29.2461C134.429 27.7227 138.135 27.0049 142.178 27.0928C148.037 27.21 152.637 28.8945 155.977 32.1465C159.346 35.3984 160.84 39.6025 160.459 44.7588ZM142.354 72.8398C142.617 70.5547 142.251 68.6797 141.255 67.2148C140.288 65.75 138.809 64.9883 136.816 64.9297C134.561 64.8711 132.612 65.6621 130.972 67.3027C129.331 68.9141 128.35 70.9941 128.027 73.543C127.764 75.9453 128.145 77.8643 129.17 79.2998C130.225 80.7061 131.748 81.4385 133.74 81.4971C135.908 81.5557 137.798 80.7939 139.409 79.2119C141.021 77.6299 142.002 75.5059 142.354 72.8398ZM145.869 45.5498C146.104 43.3818 145.796 41.668 144.946 40.4082C144.097 39.1191 142.852 38.4746 141.211 38.4746C139.307 38.416 137.695 39.1045 136.377 40.54C135.088 41.9756 134.297 43.8799 134.004 46.2529C133.77 48.4209 134.077 50.1934 134.927 51.5703C135.776 52.918 137.036 53.5918 138.706 53.5918C140.552 53.6504 142.134 52.9473 143.452 51.4824C144.771 50.0176 145.576 48.04 145.869 45.5498Z" fill="#EF3829"/>
<path d="M91.1133 92V95H93.6527L94.0721 92.4955L91.1133 92ZM76.6113 92L73.6557 91.4862L73.0448 95H76.6113V92ZM84.7852 44.9785L87.7408 45.4923L88.5579 40.7922L83.9677 42.092L84.7852 44.9785ZM69.8877 49.1973L66.9313 48.6879L66.1226 53.3815L70.7051 52.0838L69.8877 49.1973ZM71.9092 37.4639L70.9592 34.6183L69.2574 35.1864L68.9527 36.9545L71.9092 37.4639ZM100.21 28.0156L100.129 25.0167L99.683 25.0288L99.26 25.17L100.21 28.0156ZM101.836 27.9717L104.795 28.4672L105.396 24.8744L101.755 24.9728L101.836 27.9717ZM91.1133 89H76.6113V95H91.1133V89ZM79.567 92.5138L87.7408 45.4923L81.8295 44.4647L73.6557 91.4862L79.567 92.5138ZM83.9677 42.092L69.0703 46.3108L70.7051 52.0838L85.6026 47.865L83.9677 42.092ZM72.8441 49.7066L74.8656 37.9732L68.9527 36.9545L66.9313 48.6879L72.8441 49.7066ZM72.8592 40.3095L101.16 30.8612L99.26 25.17L70.9592 34.6183L72.8592 40.3095ZM100.291 31.0145L101.917 30.9706L101.755 24.9728L100.129 25.0167L100.291 31.0145ZM98.8771 27.4762L88.1545 91.5045L94.0721 92.4955L104.795 28.4672L98.8771 27.4762ZM160.459 44.7588L157.467 44.5378L157.466 44.5495L157.466 44.5611L160.459 44.7588ZM149.604 59.3047L148.24 56.633L143.845 58.8776L147.861 61.7459L149.604 59.3047ZM156.592 74.0264L153.599 73.823L153.598 73.8327L156.592 74.0264ZM149.341 87.957L147.521 85.5722L147.513 85.578L149.341 87.957ZM132.861 92.8789L132.915 89.8794L132.903 89.8792L132.892 89.8791L132.861 92.8789ZM118.184 87.7373L120.233 85.5465L120.224 85.5376L120.214 85.5288L118.184 87.7373ZM113.306 74.7295L116.298 74.9432L116.299 74.9248L116.3 74.9064L113.306 74.7295ZM125.83 58.7773L127.095 61.4977L131.553 59.4249L127.671 56.4084L125.83 58.7773ZM119.766 45.5059L116.77 45.3408L116.77 45.3457L119.766 45.5059ZM131.06 29.2461L132.285 31.9846L132.296 31.9796L131.06 29.2461ZM142.178 27.0928L142.113 30.0921L142.118 30.0922L142.178 27.0928ZM155.977 32.1465L153.884 34.2959L153.893 34.305L155.977 32.1465ZM142.354 72.8398L145.328 73.2321L145.331 73.2079L145.334 73.1837L142.354 72.8398ZM141.255 67.2148L138.751 68.8674L138.762 68.8847L138.774 68.9018L141.255 67.2148ZM136.816 64.9297L136.905 61.931L136.894 61.9307L136.816 64.9297ZM130.972 67.3027L133.074 69.4431L133.083 69.4336L133.093 69.4241L130.972 67.3027ZM128.027 73.543L125.051 73.1667L125.048 73.1911L125.045 73.2157L128.027 73.543ZM129.17 79.2998L126.729 81.0435L126.749 81.0719L126.77 81.0998L129.17 79.2998ZM133.74 81.4971L133.652 84.4958L133.659 84.496L133.74 81.4971ZM145.869 45.5498L148.849 45.9003L148.85 45.8863L148.852 45.8723L145.869 45.5498ZM144.946 40.4082L142.441 42.0591L142.45 42.0724L142.459 42.0856L144.946 40.4082ZM141.211 38.4746L141.119 41.4732L141.165 41.4746H141.211V38.4746ZM136.377 40.54L134.167 38.5108L134.156 38.5232L134.145 38.5357L136.377 40.54ZM134.004 46.2529L131.027 45.8853L131.024 45.9079L131.021 45.9305L134.004 46.2529ZM134.927 51.5703L132.374 53.1456L132.381 53.158L132.389 53.1702L134.927 51.5703ZM138.706 53.5918L138.801 50.5933L138.754 50.5918H138.706V53.5918ZM157.466 44.5611C157.142 49.4623 154.379 53.4977 148.24 56.633L150.969 61.9764C158.483 58.139 162.956 52.4771 163.452 44.9565L157.466 44.5611ZM147.861 61.7459C149.944 63.2336 151.425 64.9889 152.39 67.0117L157.806 64.4297C156.368 61.4134 154.187 58.8914 151.348 56.8635L147.861 61.7459ZM152.39 67.0117C153.351 69.0274 153.772 71.2755 153.599 73.823L159.585 74.2298C159.822 70.7421 159.247 67.4531 157.806 64.4297L152.39 67.0117ZM153.598 73.8327C153.27 78.9083 151.243 82.7312 147.521 85.5722L151.161 90.3419C156.344 86.386 159.152 80.9218 159.586 74.22L153.598 73.8327ZM147.513 85.578C143.72 88.4923 138.923 89.9867 132.915 89.8794L132.808 95.8784C139.924 96.0055 146.114 94.2186 151.168 90.3361L147.513 85.578ZM132.892 89.8791C130.312 89.8527 127.913 89.4588 125.68 88.7145L123.783 94.4066C126.647 95.3615 129.669 95.8465 132.831 95.8788L132.892 89.8791ZM125.68 88.7145C123.508 87.9904 121.709 86.9275 120.233 85.5465L116.134 89.9281C118.291 91.9456 120.857 93.4315 123.783 94.4066L125.68 88.7145ZM120.214 85.5288C117.316 82.8644 115.976 79.4505 116.298 74.9432L110.313 74.5158C109.874 80.6725 111.786 85.9305 116.153 89.9458L120.214 85.5288ZM116.3 74.9064C116.628 69.3638 119.851 64.8657 127.095 61.4977L124.565 56.057C115.93 60.0718 110.804 66.2085 110.311 74.5526L116.3 74.9064ZM127.671 56.4084C124.11 53.6416 122.521 50.1622 122.761 45.6661L116.77 45.3457C116.424 51.8065 118.878 57.1748 123.989 61.1463L127.671 56.4084ZM122.761 45.671C122.938 42.4667 123.87 39.7542 125.51 37.4401L120.613 33.972C118.268 37.283 117.004 41.1036 116.77 45.3408L122.761 45.671ZM125.51 37.4401C127.172 35.0931 129.404 33.2734 132.285 31.9845L129.834 26.5076C126.036 28.207 122.935 30.694 120.613 33.972L125.51 37.4401ZM132.296 31.9796C135.219 30.6577 138.475 30.013 142.113 30.0921L142.243 24.0935C137.794 23.9968 133.638 24.7877 129.824 26.5126L132.296 31.9796ZM142.118 30.0922C147.42 30.1982 151.22 31.702 153.884 34.2959L158.069 29.9971C154.054 26.087 148.654 24.2217 142.238 24.0934L142.118 30.0922ZM153.893 34.305C156.549 36.8687 157.79 40.1655 157.467 44.5378L163.451 44.9798C163.89 39.0396 162.142 33.9282 158.06 29.988L153.893 34.305ZM145.334 73.1837C145.655 70.4015 145.245 67.7471 143.736 65.5279L138.774 68.9018C139.257 69.6123 139.58 70.7079 139.373 72.496L145.334 73.1837ZM143.759 65.5623C142.175 63.1622 139.72 62.0138 136.905 61.931L136.728 67.9284C137.897 67.9628 138.402 68.3378 138.751 68.8674L143.759 65.5623ZM136.894 61.9307C133.79 61.8501 131.054 62.9776 128.85 65.1814L133.093 69.4241C134.17 68.3467 135.331 67.8921 136.739 67.9287L136.894 61.9307ZM128.87 65.1624C126.691 67.3021 125.447 70.0312 125.051 73.1667L131.004 73.9193C131.252 71.957 131.971 70.526 133.074 69.4431L128.87 65.1624ZM125.045 73.2157C124.731 76.0784 125.138 78.8165 126.729 81.0435L131.611 77.5561C131.151 76.912 130.796 75.8123 131.009 73.8703L125.045 73.2157ZM126.77 81.0998C128.451 83.3406 130.885 84.4144 133.652 84.4958L133.828 78.4984C132.611 78.4626 131.999 78.0715 131.57 77.4998L126.77 81.0998ZM133.659 84.496C136.678 84.5776 139.345 83.4787 141.511 81.3526L137.307 77.0712C136.25 78.1092 135.138 78.5338 133.821 78.4982L133.659 84.496ZM141.511 81.3526C143.687 79.2164 144.906 76.4307 145.328 73.2321L139.379 72.4476C139.098 74.5811 138.354 76.0433 137.307 77.0712L141.511 81.3526ZM148.852 45.8723C149.13 43.3007 148.821 40.7874 147.434 38.7308L142.459 42.0856C142.771 42.5485 143.077 43.4629 142.887 45.2274L148.852 45.8723ZM147.451 38.7573C146.006 36.5649 143.785 35.4746 141.211 35.4746V41.4746C141.918 41.4746 142.187 41.6734 142.441 42.0591L147.451 38.7573ZM141.303 35.476C138.504 35.3899 136.06 36.4499 134.167 38.5108L138.587 42.5693C139.331 41.7591 140.109 41.4421 141.119 41.4732L141.303 35.476ZM134.145 38.5357C132.357 40.5268 131.377 43.0504 131.027 45.8853L136.981 46.6205C137.217 44.7093 137.819 43.4243 138.609 42.5444L134.145 38.5357ZM131.021 45.9305C130.74 48.5322 131.07 51.0324 132.374 53.1456L137.48 49.995C137.085 49.3543 136.799 48.3096 136.987 46.5754L131.021 45.9305ZM132.389 53.1702C133.819 55.4389 136.066 56.5918 138.706 56.5918V50.5918C138.006 50.5918 137.733 50.397 137.465 49.9704L132.389 53.1702ZM138.611 56.5903C141.405 56.679 143.818 55.5607 145.682 53.4893L141.222 49.4755C140.45 50.3338 139.698 50.6218 138.801 50.5933L138.611 56.5903ZM145.682 53.4893C147.516 51.4515 148.503 48.8387 148.849 45.9003L142.89 45.1993C142.649 47.2414 142.025 48.5837 141.222 49.4755L145.682 53.4893Z" fill="#EF3829"/>
<path d="M232.034 61.7504C231.625 61.7504 231.216 61.7504 230.807 61.6141C230.534 61.2051 230.398 60.9325 230.125 60.5235C225.217 52.2073 225.899 40.3465 233.533 41.0281C237.351 41.4371 237.214 47.0267 237.76 49.208C239.941 48.6627 245.258 46.2087 247.439 49.3443C251.665 55.6155 241.577 62.0231 232.034 61.7504Z" fill="#EF3829"/>
</g>
<defs>
<filter id="filter0_f" x="23" y="81" width="156" height="26" filterUnits="userSpaceOnUse" color-interpolation-filters="sRGB">
<feFlood flood-opacity="0" result="BackgroundImageFix"/>
<feBlend mode="normal" in="SourceGraphic" in2="BackgroundImageFix" result="shape"/>
<feGaussianBlur stdDeviation="5" result="effect1_foregroundBlur"/>
</filter>
<clipPath id="clip0">
<rect width="277" height="105.82" fill="white"/>
</clipPath>
<clipPath id="clip1">
<rect width="26.9138" height="21.1142" fill="white" transform="translate(109.601 -0.861328) rotate(31.6292)"/>
</clipPath>
<clipPath id="clip2">
<rect width="42.7637" height="49.205" fill="white" transform="translate(22 57.0625)"/>
</clipPath>
</defs>
</svg>
