<svg width="277" height="106" viewBox="0 0 277 106" fill="none" xmlns="http://www.w3.org/2000/svg">
<g clip-path="url(#clip0)">
<g clip-path="url(#clip1)">
<path d="M151.218 15.0728C152.005 15.2798 152.596 15.68 153.217 16.3837C153.777 17.0323 154.08 17.8602 154.05 18.6882V18.702V18.7158C154.05 18.7158 154.05 18.7296 154.065 18.7296C154.065 18.7296 154.065 18.7434 154.08 18.7434L154.096 18.7572C154.096 18.7572 154.111 18.7572 154.111 18.771H154.126H154.141C154.186 18.771 154.217 18.7434 154.217 18.702C154.217 18.702 154.217 18.702 154.217 18.6882C154.186 17.874 154.489 17.0323 155.05 16.3837C155.656 15.6662 156.262 15.2798 157.049 15.0728C157.095 15.059 157.11 15.0314 157.11 14.99C157.11 14.9486 157.079 14.921 157.049 14.921C156.246 14.7416 155.762 14.3138 155.247 13.817C154.747 13.3341 154.398 12.6993 154.232 11.9127C154.232 11.9127 154.232 11.9127 154.232 11.8989C154.232 11.8851 154.232 11.8851 154.217 11.8851C154.217 11.8851 154.217 11.8851 154.217 11.8713L154.202 11.8575C154.202 11.8575 154.202 11.8575 154.186 11.8575C154.186 11.8575 154.171 11.8575 154.171 11.8438H154.156H154.141C154.141 11.8438 154.126 11.8438 154.126 11.8575C154.126 11.8575 154.126 11.8575 154.111 11.8575L154.096 11.8713C154.096 11.8713 154.096 11.8713 154.096 11.8851C154.096 11.8851 154.096 11.8989 154.08 11.8989C154.08 11.8989 154.08 11.8989 154.08 11.9127C153.914 12.6993 153.565 13.3479 153.066 13.817C152.52 14.3138 152.02 14.7416 151.218 14.921C151.187 14.921 151.157 14.9486 151.157 14.99C151.157 15.0314 151.187 15.059 151.218 15.0728Z" fill="#954EDE"/>
</g>
<path d="M133.988 12.8834C133.801 12.9069 133.613 12.9771 133.449 13.0707C133.192 12.5557 132.607 12.2513 131.998 12.345C131.647 12.3918 131.342 12.5791 131.132 12.8366C130.851 12.6727 130.499 12.5791 130.148 12.6493C129.797 12.6961 129.493 12.8834 129.282 13.141C128.978 12.9537 128.65 12.8834 128.275 12.9303C127.526 13.0473 127.011 13.7263 127.105 14.4286C127.315 15.7163 127.386 16.325 127.432 16.5825C127.198 16.8635 127.081 17.2381 127.152 17.6127L127.479 19.6495C127.69 21.0308 128.65 22.2014 129.984 22.7867L131.061 29.6464C131.108 29.8805 131.319 30.021 131.576 29.9976C131.811 29.9507 131.998 29.74 131.951 29.5059L130.851 22.4355C130.827 22.295 130.734 22.1546 130.57 22.1077C129.399 21.6863 128.556 20.703 128.369 19.5324L128.041 17.4722C128.018 17.3083 128.065 17.1678 128.205 17.0508C128.205 17.0508 128.205 17.0508 128.229 17.0508C128.299 17.0039 128.392 16.9571 128.463 16.9337L130.851 16.5591C131.132 16.5123 131.366 16.6996 131.413 16.9337C131.459 17.1912 131.272 17.4254 130.991 17.4722L129.54 17.7063C129.423 17.7297 129.329 17.7765 129.259 17.8702C129.188 17.9638 129.165 18.0809 129.165 18.1745L129.376 19.5558C129.399 19.7197 129.54 19.8602 129.703 19.8836L131.857 20.3753C131.928 20.3987 131.974 20.3987 132.045 20.3753C132.209 20.3518 132.372 20.2348 132.419 20.0709C132.489 19.8368 132.349 19.6261 132.091 19.5558L130.219 19.111L130.101 18.4087L131.108 18.2448C131.74 18.1511 132.209 17.6595 132.279 17.0976C132.419 17.121 132.583 17.121 132.747 17.0976C133.098 17.0508 133.403 16.8635 133.613 16.6059C133.894 16.7698 134.245 16.8635 134.597 16.7932C134.76 16.7698 134.924 16.6996 135.065 16.6294L135.346 18.4321C135.603 20.1411 134.362 21.7331 132.56 22.0375C132.326 22.0843 132.138 22.295 132.185 22.5292C132.232 22.7633 132.443 22.9037 132.7 22.8803C133.332 22.7867 133.894 22.5526 134.386 22.2482L135.439 28.8972C135.486 29.1313 135.697 29.2718 135.954 29.2484C136.189 29.2016 136.376 28.9908 136.329 28.7567L135.205 21.5927C136.025 20.7264 136.446 19.5324 136.259 18.315L135.556 13.8902C135.439 13.2346 134.737 12.7664 133.988 12.8834ZM128.275 16.1143C128.205 15.6226 128.088 14.85 127.994 14.2882C127.948 14.0306 128.135 13.7965 128.416 13.7497C128.697 13.7029 128.931 13.8902 128.978 14.1243L129.259 15.9504L128.322 16.0909C128.322 16.1143 128.299 16.1143 128.275 16.1143ZM130.71 15.7397L130.148 15.8333L129.867 14.0072C129.821 13.7497 130.008 13.5156 130.289 13.4687C130.57 13.4219 130.804 13.6092 130.851 13.8433L131.155 15.7163C130.991 15.7163 130.851 15.7163 130.71 15.7397ZM132.63 16.325C132.349 16.3718 132.115 16.1845 132.068 15.9504L131.717 13.7029C131.67 13.4453 131.857 13.2112 132.138 13.1644C132.419 13.1176 132.653 13.3049 132.7 13.539L133.051 15.7865C133.075 16.0441 132.887 16.3016 132.63 16.325ZM134.479 16.0441C134.199 16.0909 133.964 15.9036 133.918 15.6695L133.683 14.2413C133.66 13.9838 133.847 13.7497 134.128 13.7029C134.409 13.656 134.643 13.8433 134.69 14.0775L134.924 15.5056C134.948 15.7631 134.76 15.9972 134.479 16.0441Z" fill="#FFDFFF"/>
<path d="M144.687 5.55559L144.43 3.86993C144.313 3.07392 143.517 2.51204 142.65 2.65251C142.393 2.69933 142.159 2.79298 141.971 2.93345C141.714 2.30133 141.011 1.90333 140.286 2.02039C139.841 2.09062 139.49 2.32474 139.256 2.6291C138.928 2.39498 138.506 2.30133 138.085 2.37156C137.64 2.4418 137.289 2.67592 137.055 2.98027C136.727 2.74616 136.306 2.65251 135.884 2.72274C135.041 2.86322 134.433 3.6124 134.573 4.43181C134.831 6.04724 134.924 6.74959 134.971 7.05395C134.69 7.38172 134.55 7.80313 134.62 8.22455L134.948 10.6594C135.205 12.2982 136.329 13.7029 137.944 14.3585L140.122 28.2417C140.169 28.4759 140.379 28.6163 140.637 28.5929C140.871 28.5461 141.058 28.3354 141.011 28.1013L138.787 13.9839C138.764 13.8434 138.67 13.7029 138.506 13.6561C137.078 13.141 136.048 11.947 135.837 10.5189L135.463 8.08407C135.439 7.87337 135.51 7.66266 135.674 7.49878C135.674 7.49878 135.697 7.49878 135.697 7.47536C135.791 7.40513 135.908 7.3583 136.025 7.33489L138.858 6.89007C139.232 6.84324 139.56 7.07736 139.63 7.40513C139.677 7.75631 139.419 8.08407 139.068 8.1309L137.336 8.41184C137.219 8.43525 137.125 8.48208 137.055 8.57572C136.985 8.66937 136.961 8.78643 136.961 8.88008L137.219 10.5189C137.242 10.6828 137.383 10.8233 137.546 10.8467L140.122 11.4554C140.192 11.4788 140.239 11.4788 140.309 11.4554C140.473 11.432 140.637 11.3149 140.684 11.151C140.754 10.9169 140.613 10.7062 140.356 10.636L138.062 10.0975L137.921 9.13761L139.209 8.9269C139.958 8.80984 140.496 8.22455 140.543 7.52219C140.731 7.56901 140.941 7.56901 141.152 7.5456C141.597 7.47536 141.948 7.24124 142.182 6.93689C142.51 7.17101 142.931 7.26466 143.353 7.19442C143.587 7.1476 143.821 7.07736 144.008 6.93689L144.359 9.23126C144.687 11.2915 143.165 13.2815 140.965 13.6093C140.731 13.6561 140.543 13.8668 140.59 14.1009C140.637 14.3351 140.848 14.4755 141.105 14.4521C141.878 14.3351 142.58 14.0307 143.189 13.6327L145.343 27.3521C145.389 27.5862 145.6 27.7267 145.858 27.7033C146.092 27.6564 146.279 27.4457 146.232 27.2116L143.985 12.9538C144.968 11.947 145.483 10.5423 145.249 9.09079L144.687 5.55559ZM135.744 6.53889C135.65 5.95359 135.51 4.9937 135.393 4.26793C135.346 3.91675 135.58 3.58898 135.954 3.54216C136.329 3.49534 136.657 3.72946 136.727 4.05722L137.078 6.32818L135.884 6.51547C135.837 6.51547 135.791 6.53889 135.744 6.53889ZM138.741 6.07065L137.968 6.18771L137.617 3.91675C137.57 3.56557 137.827 3.23781 138.179 3.19098C138.553 3.14416 138.881 3.37828 138.951 3.70604L139.326 6.07065C139.139 6.04724 138.928 6.04724 138.741 6.07065ZM141.011 6.77301C140.637 6.81983 140.309 6.58571 140.239 6.25794L139.841 3.58898C139.794 3.23781 140.052 2.91004 140.403 2.86322C140.777 2.81639 141.105 3.05051 141.175 3.37828L141.597 6.04724C141.644 6.39842 141.386 6.72618 141.011 6.77301ZM143.236 6.42183C142.861 6.46865 142.533 6.23453 142.463 5.90677L142.205 4.22111C142.159 3.86993 142.416 3.54216 142.767 3.49534C143.142 3.44851 143.47 3.68263 143.54 4.0104L143.797 5.69606C143.868 6.04724 143.61 6.375 143.236 6.42183Z" fill="#FFDFFF"/>
<path d="M132.894 12.8834C132.707 12.9069 132.519 12.9771 132.356 13.0707C132.098 12.5557 131.513 12.2513 130.904 12.345C130.553 12.3918 130.249 12.5791 130.038 12.8366C129.757 12.6727 129.406 12.5791 129.055 12.6493C128.703 12.6961 128.399 12.8834 128.188 13.141C127.884 12.9537 127.556 12.8834 127.182 12.9303C126.432 13.0473 125.917 13.7263 126.011 14.4286C126.222 15.7163 126.292 16.325 126.339 16.5825C126.105 16.8635 125.988 17.2381 126.058 17.6127L126.386 19.6495C126.596 21.0308 127.556 22.2014 128.891 22.7867L129.968 29.6464C130.014 29.8805 130.225 30.021 130.483 29.9976C130.717 29.9507 130.904 29.74 130.857 29.5059L129.757 22.4355C129.733 22.295 129.64 22.1546 129.476 22.1077C128.305 21.6863 127.463 20.703 127.275 19.5324L126.947 17.4722C126.924 17.3083 126.971 17.1678 127.111 17.0508C127.111 17.0508 127.111 17.0508 127.135 17.0508C127.205 17.0039 127.299 16.9571 127.369 16.9337L129.757 16.5591C130.038 16.5123 130.272 16.6996 130.319 16.9337C130.366 17.1912 130.178 17.4254 129.897 17.4722L128.446 17.7063C128.329 17.7297 128.235 17.7765 128.165 17.8702C128.095 17.9638 128.071 18.0809 128.071 18.1745L128.282 19.5558C128.305 19.7197 128.446 19.8602 128.61 19.8836L130.764 20.3753C130.834 20.3987 130.881 20.3987 130.951 20.3753C131.115 20.3518 131.279 20.2348 131.325 20.0709C131.396 19.8368 131.255 19.6261 130.998 19.5558L129.125 19.111L129.008 18.4087L130.014 18.2448C130.647 18.1511 131.115 17.6595 131.185 17.0976C131.325 17.121 131.489 17.121 131.653 17.0976C132.004 17.0508 132.309 16.8635 132.519 16.6059C132.8 16.7698 133.152 16.8635 133.503 16.7932C133.667 16.7698 133.831 16.6996 133.971 16.6294L134.252 18.4321C134.51 20.1411 133.269 21.7331 131.466 22.0375C131.232 22.0843 131.045 22.295 131.091 22.5292C131.138 22.7633 131.349 22.9037 131.606 22.8803C132.239 22.7867 132.8 22.5526 133.292 22.2482L134.346 28.8972C134.392 29.1313 134.603 29.2718 134.861 29.2484C135.095 29.2016 135.282 28.9908 135.235 28.7567L134.112 21.5927C134.931 20.7264 135.352 19.5324 135.165 18.315L134.463 13.8902C134.346 13.2346 133.643 12.7664 132.894 12.8834ZM127.182 16.1143C127.111 15.6226 126.994 14.85 126.901 14.2882C126.854 14.0306 127.041 13.7965 127.322 13.7497C127.603 13.7029 127.837 13.8902 127.884 14.1243L128.165 15.9504L127.228 16.0909C127.228 16.1143 127.205 16.1143 127.182 16.1143ZM129.616 15.7397L129.055 15.8333L128.774 14.0072C128.727 13.7497 128.914 13.5156 129.195 13.4687C129.476 13.4219 129.71 13.6092 129.757 13.8433L130.061 15.7163C129.897 15.7163 129.757 15.7163 129.616 15.7397ZM131.536 16.325C131.255 16.3718 131.021 16.1845 130.974 15.9504L130.623 13.7029C130.576 13.4453 130.764 13.2112 131.045 13.1644C131.325 13.1176 131.56 13.3049 131.606 13.539L131.958 15.7865C131.981 16.0441 131.794 16.3016 131.536 16.325ZM133.386 16.0441C133.105 16.0909 132.871 15.9036 132.824 15.6695L132.59 14.2413C132.566 13.9838 132.754 13.7497 133.035 13.7029C133.316 13.656 133.55 13.8433 133.596 14.0775L133.831 15.5056C133.854 15.7631 133.667 15.9972 133.386 16.0441Z" fill="#954EDE"/>
<path d="M143.593 5.55559L143.336 3.86993C143.219 3.07392 142.423 2.51204 141.557 2.65251C141.299 2.69933 141.065 2.79298 140.878 2.93345C140.62 2.30133 139.918 1.90333 139.192 2.02039C138.747 2.09062 138.396 2.32474 138.162 2.6291C137.834 2.39498 137.413 2.30133 136.991 2.37156C136.546 2.4418 136.195 2.67592 135.961 2.98027C135.633 2.74616 135.212 2.65251 134.79 2.72274C133.948 2.86322 133.339 3.6124 133.479 4.43181C133.737 6.04724 133.831 6.74959 133.877 7.05395C133.596 7.38172 133.456 7.80313 133.526 8.22455L133.854 10.6594C134.112 12.2982 135.235 13.7029 136.851 14.3585L139.028 28.2417C139.075 28.4759 139.286 28.6163 139.543 28.5929C139.777 28.5461 139.965 28.3354 139.918 28.1013L137.694 13.9839C137.67 13.8434 137.577 13.7029 137.413 13.6561C135.985 13.141 134.954 11.947 134.744 10.5189L134.369 8.08407C134.346 7.87337 134.416 7.66266 134.58 7.49878C134.58 7.49878 134.603 7.49878 134.603 7.47536C134.697 7.40513 134.814 7.3583 134.931 7.33489L137.764 6.89007C138.138 6.84324 138.466 7.07736 138.536 7.40513C138.583 7.75631 138.326 8.08407 137.975 8.1309L136.242 8.41184C136.125 8.43525 136.031 8.48208 135.961 8.57572C135.891 8.66937 135.867 8.78643 135.867 8.88008L136.125 10.5189C136.148 10.6828 136.289 10.8233 136.453 10.8467L139.028 11.4554C139.098 11.4788 139.145 11.4788 139.215 11.4554C139.379 11.432 139.543 11.3149 139.59 11.151C139.66 10.9169 139.52 10.7062 139.262 10.636L136.968 10.0975L136.827 9.13761L138.115 8.9269C138.864 8.80984 139.403 8.22455 139.449 7.52219C139.637 7.56901 139.847 7.56901 140.058 7.5456C140.503 7.47536 140.854 7.24124 141.088 6.93689C141.416 7.17101 141.837 7.26466 142.259 7.19442C142.493 7.1476 142.727 7.07736 142.914 6.93689L143.266 9.23126C143.593 11.2915 142.072 13.2815 139.871 13.6093C139.637 13.6561 139.449 13.8668 139.496 14.1009C139.543 14.3351 139.754 14.4755 140.011 14.4521C140.784 14.3351 141.486 14.0307 142.095 13.6327L144.249 27.3521C144.296 27.5862 144.506 27.7267 144.764 27.7033C144.998 27.6564 145.185 27.4457 145.139 27.2116L142.891 12.9538C143.874 11.947 144.389 10.5423 144.155 9.09079L143.593 5.55559ZM134.65 6.53889C134.556 5.95359 134.416 4.9937 134.299 4.26793C134.252 3.91675 134.486 3.58898 134.861 3.54216C135.235 3.49534 135.563 3.72946 135.633 4.05722L135.985 6.32818L134.79 6.51547C134.744 6.51547 134.697 6.53889 134.65 6.53889ZM137.647 6.07065L136.874 6.18771L136.523 3.91675C136.476 3.56557 136.734 3.23781 137.085 3.19098C137.459 3.14416 137.787 3.37828 137.857 3.70604L138.232 6.07065C138.045 6.04724 137.834 6.04724 137.647 6.07065ZM139.918 6.77301C139.543 6.81983 139.215 6.58571 139.145 6.25794L138.747 3.58898C138.7 3.23781 138.958 2.91004 139.309 2.86322C139.684 2.81639 140.011 3.05051 140.082 3.37828L140.503 6.04724C140.55 6.39842 140.292 6.72618 139.918 6.77301ZM142.142 6.42183C141.767 6.46865 141.439 6.23453 141.369 5.90677L141.112 4.22111C141.065 3.86993 141.322 3.54216 141.674 3.49534C142.048 3.44851 142.376 3.68263 142.446 4.0104L142.704 5.69606C142.774 6.04724 142.516 6.375 142.142 6.42183Z" fill="#954EDE"/>
<g filter="url(#filter0_f)">
<ellipse cx="101" cy="94" rx="68" ry="3" fill="#C4C4C4" fill-opacity="0.5"/>
</g>
<path d="M177.71 88.3779C176.909 89.3154 175.742 90.043 174.209 90.5605C172.676 91.0684 170.977 91.3076 169.111 91.2783C167.324 91.2588 165.815 90.8096 164.585 89.9307C163.354 89.0518 162.476 87.8262 161.948 86.2539C161.421 84.6816 161.279 82.9092 161.523 80.9365L161.641 80.0576C162.09 76.7471 163.252 74.125 165.127 72.1914C167.012 70.2578 169.316 69.3154 172.041 69.3643C174.424 69.4033 176.255 70.043 177.534 71.2832C178.813 72.5234 179.526 74.3154 179.673 76.6592L174.868 76.6445C174.8 75.502 174.517 74.667 174.019 74.1396C173.53 73.6123 172.832 73.334 171.924 73.3047C170.576 73.2559 169.463 73.7881 168.584 74.9014C167.705 76.0049 167.104 77.5869 166.782 79.6475C166.509 81.4053 166.411 82.7725 166.489 83.749C166.636 86.1025 167.695 87.2939 169.668 87.3232C170.859 87.3428 171.904 87.0547 172.803 86.459L173.462 83.1338H169.99L170.605 79.6035H179.087L177.71 88.3779ZM185.356 91H180.347L184.053 69.6719H189.048L185.356 91ZM206.626 88.3779C205.825 89.3154 204.658 90.043 203.125 90.5605C201.592 91.0684 199.893 91.3076 198.027 91.2783C196.24 91.2588 194.731 90.8096 193.501 89.9307C192.271 89.0518 191.392 87.8262 190.864 86.2539C190.337 84.6816 190.195 82.9092 190.439 80.9365L190.557 80.0576C191.006 76.7471 192.168 74.125 194.043 72.1914C195.928 70.2578 198.232 69.3154 200.957 69.3643C203.34 69.4033 205.171 70.043 206.45 71.2832C207.729 72.5234 208.442 74.3154 208.589 76.6592L203.784 76.6445C203.716 75.502 203.433 74.667 202.935 74.1396C202.446 73.6123 201.748 73.334 200.84 73.3047C199.492 73.2559 198.379 73.7881 197.5 74.9014C196.621 76.0049 196.021 77.5869 195.698 79.6475C195.425 81.4053 195.327 82.7725 195.405 83.749C195.552 86.1025 196.611 87.2939 198.584 87.3232C199.775 87.3428 200.82 87.0547 201.719 86.459L202.378 83.1338H198.906L199.521 79.6035H208.003L206.626 88.3779ZM221.45 87.0156H214.639L212.749 91H207.227L218.521 69.6719H223.237L227.178 91H221.963L221.45 87.0156ZM216.514 83.0459H220.938L220 75.6924L216.514 83.0459ZM240.625 85.2285C240.84 84.125 240.244 83.2705 238.838 82.665L236.436 81.6689C233.066 80.1553 231.465 78.0947 231.631 75.4873C231.699 74.2959 232.109 73.2363 232.861 72.3086C233.613 71.3711 234.653 70.6436 235.981 70.126C237.31 69.6084 238.76 69.3594 240.332 69.3789C242.441 69.418 244.136 70.0332 245.415 71.2246C246.704 72.416 247.339 74.0127 247.319 76.0146H242.339C242.368 75.1943 242.192 74.54 241.812 74.0518C241.44 73.5537 240.825 73.2949 239.966 73.2754C239.126 73.2559 238.384 73.4512 237.739 73.8613C237.095 74.2715 236.714 74.8232 236.597 75.5166C236.411 76.4932 237.134 77.2939 238.765 77.9189C240.405 78.5439 241.597 79.0811 242.339 79.5303C244.673 80.9268 245.767 82.8115 245.62 85.1846C245.542 86.415 245.146 87.4941 244.434 88.4219C243.721 89.3496 242.729 90.0674 241.46 90.5752C240.2 91.083 238.784 91.3271 237.212 91.3076C236.06 91.2881 234.99 91.1074 234.004 90.7656C233.018 90.4238 232.173 89.9258 231.47 89.2715C230.044 87.9531 229.36 86.2197 229.419 84.0713L234.443 84.0859C234.385 85.1797 234.595 86.0098 235.073 86.5762C235.552 87.1328 236.357 87.4111 237.49 87.4111C238.33 87.4111 239.028 87.2207 239.585 86.8398C240.151 86.4492 240.498 85.9121 240.625 85.2285Z" fill="#BBBBBB"/>
<path d="M91.1133 92H76.6113L84.7852 44.9785L69.8877 49.1973L71.9092 37.4639L100.21 28.0156L101.836 27.9717L91.1133 92ZM160.459 44.7588C160.049 50.9697 156.431 55.8184 149.604 59.3047C152.065 61.0625 153.896 63.2012 155.098 65.7207C156.299 68.2402 156.797 71.0088 156.592 74.0264C156.211 79.915 153.794 84.5586 149.341 87.957C144.917 91.3555 139.424 92.9961 132.861 92.8789C129.99 92.8496 127.28 92.4102 124.731 91.5605C122.183 90.7109 120 89.4365 118.184 87.7373C114.551 84.3975 112.925 80.0615 113.306 74.7295C113.716 67.7861 117.891 62.4688 125.83 58.7773C121.494 55.4082 119.473 50.9844 119.766 45.5059C119.971 41.7852 121.069 38.5186 123.062 35.7061C125.054 32.8936 127.72 30.7402 131.06 29.2461C134.429 27.7227 138.135 27.0049 142.178 27.0928C148.037 27.21 152.637 28.8945 155.977 32.1465C159.346 35.3984 160.84 39.6025 160.459 44.7588ZM142.354 72.8398C142.617 70.5547 142.251 68.6797 141.255 67.2148C140.288 65.75 138.809 64.9883 136.816 64.9297C134.561 64.8711 132.612 65.6621 130.972 67.3027C129.331 68.9141 128.35 70.9941 128.027 73.543C127.764 75.9453 128.145 77.8643 129.17 79.2998C130.225 80.7061 131.748 81.4385 133.74 81.4971C135.908 81.5557 137.798 80.7939 139.409 79.2119C141.021 77.6299 142.002 75.5059 142.354 72.8398ZM145.869 45.5498C146.104 43.3818 145.796 41.668 144.946 40.4082C144.097 39.1191 142.852 38.4746 141.211 38.4746C139.307 38.416 137.695 39.1045 136.377 40.54C135.088 41.9756 134.297 43.8799 134.004 46.2529C133.77 48.4209 134.077 50.1934 134.927 51.5703C135.776 52.918 137.036 53.5918 138.706 53.5918C140.552 53.6504 142.134 52.9473 143.452 51.4824C144.771 50.0176 145.576 48.04 145.869 45.5498Z" fill="#EF3829"/>
<path d="M91.1133 92V95H93.6527L94.0721 92.4955L91.1133 92ZM76.6113 92L73.6557 91.4862L73.0448 95H76.6113V92ZM84.7852 44.9785L87.7408 45.4923L88.5579 40.7922L83.9677 42.092L84.7852 44.9785ZM69.8877 49.1973L66.9313 48.6879L66.1226 53.3815L70.7051 52.0838L69.8877 49.1973ZM71.9092 37.4639L70.9592 34.6183L69.2574 35.1864L68.9527 36.9545L71.9092 37.4639ZM100.21 28.0156L100.129 25.0167L99.683 25.0288L99.26 25.17L100.21 28.0156ZM101.836 27.9717L104.795 28.4672L105.396 24.8744L101.755 24.9728L101.836 27.9717ZM91.1133 89H76.6113V95H91.1133V89ZM79.567 92.5138L87.7408 45.4923L81.8295 44.4647L73.6557 91.4862L79.567 92.5138ZM83.9677 42.092L69.0703 46.3108L70.7051 52.0838L85.6026 47.865L83.9677 42.092ZM72.8441 49.7066L74.8656 37.9732L68.9527 36.9545L66.9313 48.6879L72.8441 49.7066ZM72.8592 40.3095L101.16 30.8612L99.26 25.17L70.9592 34.6183L72.8592 40.3095ZM100.291 31.0145L101.917 30.9706L101.755 24.9728L100.129 25.0167L100.291 31.0145ZM98.8771 27.4762L88.1545 91.5045L94.0721 92.4955L104.795 28.4672L98.8771 27.4762ZM160.459 44.7588L157.467 44.5378L157.466 44.5495L157.466 44.5611L160.459 44.7588ZM149.604 59.3047L148.24 56.633L143.845 58.8776L147.861 61.7459L149.604 59.3047ZM156.592 74.0264L153.599 73.823L153.598 73.8327L156.592 74.0264ZM149.341 87.957L147.521 85.5722L147.513 85.578L149.341 87.957ZM132.861 92.8789L132.915 89.8794L132.903 89.8792L132.892 89.8791L132.861 92.8789ZM118.184 87.7373L120.233 85.5465L120.224 85.5376L120.214 85.5288L118.184 87.7373ZM113.306 74.7295L116.298 74.9432L116.299 74.9248L116.3 74.9064L113.306 74.7295ZM125.83 58.7773L127.095 61.4977L131.553 59.4249L127.671 56.4084L125.83 58.7773ZM119.766 45.5059L116.77 45.3408L116.77 45.3457L119.766 45.5059ZM131.06 29.2461L132.285 31.9846L132.296 31.9796L131.06 29.2461ZM142.178 27.0928L142.113 30.0921L142.118 30.0922L142.178 27.0928ZM155.977 32.1465L153.884 34.2959L153.893 34.305L155.977 32.1465ZM142.354 72.8398L145.328 73.2321L145.331 73.2079L145.334 73.1837L142.354 72.8398ZM141.255 67.2148L138.751 68.8674L138.762 68.8847L138.774 68.9018L141.255 67.2148ZM136.816 64.9297L136.905 61.931L136.894 61.9307L136.816 64.9297ZM130.972 67.3027L133.074 69.4431L133.083 69.4336L133.093 69.4241L130.972 67.3027ZM128.027 73.543L125.051 73.1667L125.048 73.1911L125.045 73.2157L128.027 73.543ZM129.17 79.2998L126.729 81.0435L126.749 81.0719L126.77 81.0998L129.17 79.2998ZM133.74 81.4971L133.652 84.4958L133.659 84.496L133.74 81.4971ZM145.869 45.5498L148.849 45.9003L148.85 45.8863L148.852 45.8723L145.869 45.5498ZM144.946 40.4082L142.441 42.0591L142.45 42.0724L142.459 42.0856L144.946 40.4082ZM141.211 38.4746L141.119 41.4732L141.165 41.4746H141.211V38.4746ZM136.377 40.54L134.167 38.5108L134.156 38.5232L134.145 38.5357L136.377 40.54ZM134.004 46.2529L131.027 45.8853L131.024 45.9079L131.021 45.9305L134.004 46.2529ZM134.927 51.5703L132.374 53.1456L132.381 53.158L132.389 53.1702L134.927 51.5703ZM138.706 53.5918L138.801 50.5933L138.754 50.5918H138.706V53.5918ZM157.466 44.5611C157.142 49.4623 154.379 53.4977 148.24 56.633L150.969 61.9764C158.483 58.139 162.956 52.4771 163.452 44.9565L157.466 44.5611ZM147.861 61.7459C149.944 63.2336 151.425 64.9889 152.39 67.0117L157.806 64.4297C156.368 61.4134 154.187 58.8914 151.348 56.8635L147.861 61.7459ZM152.39 67.0117C153.351 69.0274 153.772 71.2755 153.599 73.823L159.585 74.2298C159.822 70.7421 159.247 67.4531 157.806 64.4297L152.39 67.0117ZM153.598 73.8327C153.27 78.9083 151.243 82.7312 147.521 85.5722L151.161 90.3419C156.344 86.386 159.152 80.9218 159.586 74.22L153.598 73.8327ZM147.513 85.578C143.72 88.4923 138.923 89.9867 132.915 89.8794L132.808 95.8784C139.924 96.0055 146.114 94.2186 151.168 90.3361L147.513 85.578ZM132.892 89.8791C130.312 89.8527 127.913 89.4588 125.68 88.7145L123.783 94.4066C126.647 95.3615 129.669 95.8465 132.831 95.8788L132.892 89.8791ZM125.68 88.7145C123.508 87.9904 121.709 86.9275 120.233 85.5465L116.134 89.9281C118.291 91.9456 120.857 93.4315 123.783 94.4066L125.68 88.7145ZM120.214 85.5288C117.316 82.8644 115.976 79.4505 116.298 74.9432L110.313 74.5158C109.874 80.6725 111.786 85.9305 116.153 89.9458L120.214 85.5288ZM116.3 74.9064C116.628 69.3638 119.851 64.8657 127.095 61.4977L124.565 56.057C115.93 60.0718 110.804 66.2085 110.311 74.5526L116.3 74.9064ZM127.671 56.4084C124.11 53.6416 122.521 50.1622 122.761 45.6661L116.77 45.3457C116.424 51.8065 118.878 57.1748 123.989 61.1463L127.671 56.4084ZM122.761 45.671C122.938 42.4667 123.87 39.7542 125.51 37.4401L120.613 33.972C118.268 37.283 117.004 41.1036 116.77 45.3408L122.761 45.671ZM125.51 37.4401C127.172 35.0931 129.404 33.2734 132.285 31.9845L129.834 26.5076C126.036 28.207 122.935 30.694 120.613 33.972L125.51 37.4401ZM132.296 31.9796C135.219 30.6577 138.475 30.013 142.113 30.0921L142.243 24.0935C137.794 23.9968 133.638 24.7877 129.824 26.5126L132.296 31.9796ZM142.118 30.0922C147.42 30.1982 151.22 31.702 153.884 34.2959L158.069 29.9971C154.054 26.087 148.654 24.2217 142.238 24.0934L142.118 30.0922ZM153.893 34.305C156.549 36.8687 157.79 40.1655 157.467 44.5378L163.451 44.9798C163.89 39.0396 162.142 33.9282 158.06 29.988L153.893 34.305ZM145.334 73.1837C145.655 70.4015 145.245 67.7471 143.736 65.5279L138.774 68.9018C139.257 69.6123 139.58 70.7079 139.373 72.496L145.334 73.1837ZM143.759 65.5623C142.175 63.1622 139.72 62.0138 136.905 61.931L136.728 67.9284C137.897 67.9628 138.402 68.3378 138.751 68.8674L143.759 65.5623ZM136.894 61.9307C133.79 61.8501 131.054 62.9776 128.85 65.1814L133.093 69.4241C134.17 68.3467 135.331 67.8921 136.739 67.9287L136.894 61.9307ZM128.87 65.1624C126.691 67.3021 125.447 70.0312 125.051 73.1667L131.004 73.9193C131.252 71.957 131.971 70.526 133.074 69.4431L128.87 65.1624ZM125.045 73.2157C124.731 76.0784 125.138 78.8165 126.729 81.0435L131.611 77.5561C131.151 76.912 130.796 75.8123 131.009 73.8703L125.045 73.2157ZM126.77 81.0998C128.451 83.3406 130.885 84.4144 133.652 84.4958L133.828 78.4984C132.611 78.4626 131.999 78.0715 131.57 77.4998L126.77 81.0998ZM133.659 84.496C136.678 84.5776 139.345 83.4787 141.511 81.3526L137.307 77.0712C136.25 78.1092 135.138 78.5338 133.821 78.4982L133.659 84.496ZM141.511 81.3526C143.687 79.2164 144.906 76.4307 145.328 73.2321L139.379 72.4476C139.098 74.5811 138.354 76.0433 137.307 77.0712L141.511 81.3526ZM148.852 45.8723C149.13 43.3007 148.821 40.7874 147.434 38.7308L142.459 42.0856C142.771 42.5485 143.077 43.4629 142.887 45.2274L148.852 45.8723ZM147.451 38.7573C146.006 36.5649 143.785 35.4746 141.211 35.4746V41.4746C141.918 41.4746 142.187 41.6734 142.441 42.0591L147.451 38.7573ZM141.303 35.476C138.504 35.3899 136.06 36.4499 134.167 38.5108L138.587 42.5693C139.331 41.7591 140.109 41.4421 141.119 41.4732L141.303 35.476ZM134.145 38.5357C132.357 40.5268 131.377 43.0504 131.027 45.8853L136.981 46.6205C137.217 44.7093 137.819 43.4243 138.609 42.5444L134.145 38.5357ZM131.021 45.9305C130.74 48.5322 131.07 51.0324 132.374 53.1456L137.48 49.995C137.085 49.3543 136.799 48.3096 136.987 46.5754L131.021 45.9305ZM132.389 53.1702C133.819 55.4389 136.066 56.5918 138.706 56.5918V50.5918C138.006 50.5918 137.733 50.397 137.465 49.9704L132.389 53.1702ZM138.611 56.5903C141.405 56.679 143.818 55.5607 145.682 53.4893L141.222 49.4755C140.45 50.3338 139.698 50.6218 138.801 50.5933L138.611 56.5903ZM145.682 53.4893C147.516 51.4515 148.503 48.8387 148.849 45.9003L142.89 45.1993C142.649 47.2414 142.025 48.5837 141.222 49.4755L145.682 53.4893Z" fill="#EF3829"/>
<g clip-path="url(#clip2)">
<path d="M59.0956 11.9973C58.8326 12.1814 58.596 12.4181 58.4119 12.6811C58.2804 12.8652 55.9398 16.7574 55.9398 16.7574C54.1515 19.7292 51.8109 22.2538 49.0232 24.2788L47.6557 25.2782C44.8154 27.3558 44.158 31.3269 46.183 34.1409C47.1823 35.5084 48.655 36.4025 50.3119 36.6918C51.2323 36.8496 52.1791 36.7707 53.0469 36.534L54.8878 39.085C54.993 39.2165 55.1245 39.2954 55.2823 39.3217C55.4138 39.348 55.5716 39.3217 55.7031 39.2428L58.3067 42.8194C58.78 43.4769 59.4901 43.8977 60.2528 44.0029C61.0154 44.1344 61.8044 43.9503 62.4619 43.4769C63.7768 42.5038 64.0924 40.6366 63.1193 39.3217L60.5158 35.7188L60.9891 35.3769C61.1206 35.2717 61.1995 35.1402 61.2258 34.9824C61.2521 34.8246 61.1995 34.6668 61.1206 34.5353L59.6479 32.5366C61.5677 31.5373 63.5927 30.7746 65.7229 30.2749C65.7229 30.2749 70.1674 29.2493 70.5093 29.1178C70.8775 28.9863 71.2193 28.7233 71.2193 28.7233C73.7966 26.9876 73.0602 21.7805 69.6414 17.0993C66.2752 12.3655 61.6203 10.1564 59.0956 11.9973ZM54.2041 36.0607C54.4934 35.9029 54.7563 35.7451 55.0193 35.561L56.4658 34.509C56.6761 34.3512 56.9128 34.1935 57.1232 34.0357L58.3856 35.7714L55.519 37.849L54.2041 36.0607ZM59.2797 42.0831L56.6761 38.5064L58.0437 37.5071L60.6473 41.0837C60.9365 41.4782 61.0417 41.9253 60.9628 42.3986C60.9102 42.6353 60.6736 42.8194 60.4369 42.7668C59.9898 42.7142 59.569 42.4775 59.2797 42.0831ZM62.1463 39.9792C62.5934 40.584 62.5934 41.3993 62.1726 42.0042C62.1463 41.4256 61.9622 40.847 61.594 40.3736L58.9904 36.797L59.5164 36.4025L62.1463 39.9792ZM59.8057 34.7457L59.3586 35.0876L58.1226 33.4045C58.2804 33.2993 58.4382 33.2204 58.596 33.1152L59.8057 34.7457ZM65.4862 29.0652C61.9622 29.9068 58.7011 31.4058 55.7557 33.536L54.3093 34.5879C53.2047 35.4032 51.8635 35.7188 50.4959 35.5084C49.1547 35.298 47.945 34.5616 47.156 33.4571C45.5255 31.1691 46.0515 27.9344 48.3658 26.2512L49.7333 25.2519C52.6524 23.1217 55.0982 20.4655 56.9654 17.3623L57.6229 16.284C57.807 18.4668 58.8589 21.0967 60.6736 23.5951C62.2515 25.7779 64.1976 27.5136 66.1174 28.4866C66.3015 28.5918 66.5119 28.6707 66.696 28.7496L65.4862 29.0652ZM62.2515 19.1506C62.2515 19.1769 62.2515 19.2032 62.2515 19.2558C62.383 20.0447 62.7512 20.8863 63.3297 21.6753C63.9609 22.5431 64.6973 23.148 65.381 23.4899L63.3823 24.9626C62.7775 24.3577 62.1989 23.6477 61.6466 22.9113C61.0943 22.1749 60.621 21.386 60.2265 20.6233L62.2515 19.1506ZM66.7749 22.5168C66.433 22.7798 65.2758 22.2801 64.3291 20.9915C63.882 20.3603 63.5664 19.6766 63.4612 19.098C63.3823 18.6772 63.4612 18.309 63.619 18.2038C63.6979 18.1512 63.8294 18.1249 63.9872 18.1512C64.145 18.1775 64.3291 18.2301 64.5132 18.3353C65.0391 18.5983 65.6177 19.1243 66.0648 19.7292C67.0115 21.0178 67.1167 22.2538 66.7749 22.5168ZM70.5619 27.724C70.4041 27.8292 70.3252 27.8818 70.0622 27.987C69.7992 28.0659 69.5625 28.1184 69.5625 28.1184C68.7473 28.2236 67.7479 28.0133 66.6434 27.461C65.8544 27.0665 65.0391 26.5142 64.2765 25.8305L67.4586 23.5162C68.5106 22.7535 68.3265 20.8337 67.0115 19.0191C66.433 18.2301 65.7492 17.599 65.0391 17.2571C64.1976 16.8363 63.4349 16.8363 62.8826 17.2308L59.7005 19.5451C59.306 18.5983 59.0167 17.6779 58.8852 16.7837C58.7011 15.574 58.78 14.5483 59.1482 13.8119C59.1482 13.8119 59.2534 13.5753 59.3849 13.4175C59.4901 13.286 59.6479 13.1019 59.8057 12.9967C60.3317 12.6022 61.0154 12.497 61.8044 12.6285C63.882 12.9441 66.5908 14.9165 68.6947 17.8094C71.6138 21.7805 72.4554 26.3301 70.5619 27.724Z" fill="#FFDFFF"/>
<path d="M79.372 21.9914L73.9282 21.1235C73.6126 21.071 73.297 21.3076 73.2444 21.6232C73.1918 21.9651 73.4285 22.2544 73.7441 22.307L79.1879 23.1749C79.5298 23.2274 79.8191 22.9908 79.8717 22.6752C79.9243 22.3596 79.7139 22.044 79.372 21.9914Z" fill="#FFDFFF"/>
<path d="M71.8503 18.2819C71.9292 18.5186 72.1133 18.6764 72.3237 18.7027C72.4026 18.729 72.5078 18.7027 72.5867 18.6764L79.0562 16.8092C79.3718 16.7303 79.5559 16.3884 79.477 16.0728C79.3718 15.7572 79.0562 15.5731 78.7406 15.652L72.2711 17.5192C71.9292 17.6244 71.7451 17.94 71.8503 18.2819Z" fill="#FFDFFF"/>
<path d="M70.0885 15.6793C70.1937 15.7845 70.3251 15.8634 70.4566 15.8897C70.6144 15.916 70.7985 15.8634 70.9563 15.7582L76.2687 11.1296C76.5316 10.9193 76.5579 10.5248 76.3213 10.2881C76.1109 10.0251 75.7164 9.9988 75.4797 10.2355L70.1411 14.8378C69.9044 15.0482 69.8781 15.4163 70.0885 15.6793Z" fill="#FFDFFF"/>
<path d="M67.8531 13.3654C67.9057 13.3917 67.9583 13.3917 68.0109 13.418C68.2739 13.4706 68.5368 13.3128 68.6683 13.0761L71.2982 7.15892C71.4297 6.84333 71.2982 6.50145 70.9826 6.36995C70.667 6.23846 70.3252 6.36995 70.1937 6.68554L67.5638 12.6028C67.4323 12.8657 67.5638 13.2076 67.8531 13.3654Z" fill="#FFDFFF"/>
<path d="M58.0964 11.7068C57.8334 11.8909 57.5967 12.1276 57.4126 12.3906C57.2811 12.5747 54.9405 16.4669 54.9405 16.4669C53.1522 19.4387 50.8116 21.9633 48.024 23.9883L46.6564 24.9877C43.8162 27.0653 43.1587 31.0364 45.1837 33.8504C46.183 35.2179 47.6558 36.112 49.3126 36.4013C50.233 36.5591 51.1798 36.4802 52.0477 36.2435L53.8886 38.7945C53.9938 38.926 54.1253 39.0049 54.283 39.0312C54.4145 39.0575 54.5723 39.0312 54.7038 38.9523L57.3074 42.5289C57.7808 43.1864 58.4908 43.6072 59.2535 43.7124C60.0162 43.8439 60.8051 43.6598 61.4626 43.1864C62.7775 42.2133 63.0931 40.3461 62.1201 39.0312L59.5165 35.4283L59.9899 35.0864C60.1214 34.9812 60.2003 34.8497 60.2266 34.6919C60.2529 34.5341 60.2003 34.3763 60.1214 34.2448L58.6486 32.2461C60.5684 31.2468 62.5934 30.4841 64.7236 29.9844C64.7236 29.9844 69.1681 28.9588 69.51 28.8273C69.8782 28.6958 70.2201 28.4328 70.2201 28.4328C72.7973 26.6971 72.061 21.49 68.6421 16.8088C65.2759 12.1013 60.621 9.86592 58.0964 11.7068ZM53.2048 35.7702C53.4941 35.6124 53.7571 35.4546 54.0201 35.2705L55.4665 34.2185C55.6769 34.0607 55.9136 33.903 56.124 33.7452L57.3863 35.4809L54.5197 37.5848L53.2048 35.7702ZM58.2805 41.7926L55.6769 38.2159L57.0444 37.2166L59.648 40.7932C59.9373 41.1877 60.0425 41.6348 59.9636 42.1082C59.911 42.3448 59.6743 42.5289 59.4376 42.4763C58.9905 42.4237 58.5697 42.187 58.2805 41.7926ZM61.147 39.715C61.5941 40.3198 61.5941 41.1351 61.1733 41.74C61.147 41.1614 60.9629 40.5828 60.5947 40.1094L57.9912 36.5328L58.5171 36.1383L61.147 39.715ZM58.8064 34.4552L58.3593 34.7971L57.1233 33.114C57.2811 33.0088 57.4389 32.9299 57.5967 32.8247L58.8064 34.4552ZM64.487 28.801C60.9629 29.6426 57.7019 31.1416 54.7564 33.2718L53.31 34.3237C52.2055 35.139 50.8642 35.4546 49.4967 35.2442C48.1554 35.0338 46.9457 34.2974 46.1567 33.1929C44.4999 30.8786 45.0522 27.6702 47.3665 25.987L48.734 24.9877C51.6532 22.8575 54.099 20.2013 55.9662 17.0981L56.6236 16.0198C56.8077 18.2026 57.8597 20.8325 59.6743 23.3309C61.2522 25.5137 63.1983 27.2494 65.1181 28.2224C65.3022 28.3276 65.5126 28.4065 65.6967 28.4854L64.487 28.801ZM61.2522 18.8864C61.2522 18.9127 61.2522 18.939 61.2522 18.9916C61.3837 19.7805 61.7519 20.6221 62.3305 21.4111C62.9616 22.2789 63.698 22.8838 64.3818 23.2257L62.3831 24.6984C61.7782 24.0935 61.1996 23.3835 60.6473 22.6471C60.0951 21.9107 59.6217 21.1218 59.2272 20.3591L61.2522 18.8864ZM65.7493 22.2263C65.4074 22.4893 64.2503 21.9896 63.3035 20.701C62.8564 20.0698 62.5408 19.3861 62.4356 18.8075C62.3568 18.3867 62.4356 18.0185 62.5934 17.9133C62.6723 17.8607 62.8038 17.8344 62.9616 17.8607C63.1194 17.887 63.3035 17.9396 63.4876 18.0448C64.0136 18.3078 64.5921 18.8338 65.0392 19.4387C66.0123 20.7273 66.1175 21.9896 65.7493 22.2263ZM69.5626 27.4335C69.4048 27.5387 69.3259 27.5913 69.0629 27.6965C68.7999 27.7753 68.5633 27.8279 68.5633 27.8279C67.748 27.9331 66.7486 27.7228 65.6441 27.1705C64.8551 26.776 64.0399 26.2237 63.2772 25.54L66.4594 23.2257C67.5113 22.463 67.3272 20.5432 66.0123 18.7286C65.4337 17.9396 64.7499 17.3085 64.0399 16.9666C63.2246 16.5195 62.4619 16.5195 61.8834 16.914L58.7012 19.2283C58.3068 18.2815 58.0175 17.3611 57.886 16.4669C57.7019 15.2572 57.7808 14.2315 58.149 13.4951C58.149 13.4951 58.2542 13.2585 58.3856 13.1007C58.4908 12.9692 58.6486 12.7851 58.8064 12.6799C59.3324 12.2854 60.0162 12.1802 60.8051 12.3117C62.8827 12.6273 65.5915 14.5997 67.6954 17.4926C70.6146 21.49 71.4561 26.0396 69.5626 27.4335Z" fill="#954EDE"/>
<path d="M78.373 21.7268L72.9291 20.8589C72.6136 20.8063 72.298 21.043 72.2454 21.3586C72.1928 21.7005 72.4295 21.9897 72.7451 22.0423L78.1889 22.9102C78.5308 22.9628 78.8201 22.7261 78.8727 22.4105C78.9253 22.0686 78.7149 21.7794 78.373 21.7268Z" fill="#954EDE"/>
<path d="M70.8513 17.9938C70.9302 18.2305 71.1143 18.3883 71.3247 18.4146C71.4036 18.4409 71.5088 18.4146 71.5877 18.3883L78.0572 16.5211C78.3727 16.4422 78.5568 16.1003 78.4779 15.7847C78.3727 15.4691 78.0572 15.285 77.7416 15.3639L71.2721 17.2311C70.9302 17.3363 70.7461 17.6782 70.8513 17.9938Z" fill="#954EDE"/>
<path d="M69.0895 15.4157C69.1947 15.5208 69.3262 15.5997 69.4577 15.626C69.6155 15.6523 69.7996 15.5997 69.9573 15.4945L75.2697 10.866C75.5327 10.6556 75.559 10.2611 75.3223 10.0244C75.1119 9.76143 74.7174 9.73513 74.4807 9.97182L69.1421 14.5478C68.8791 14.7845 68.8528 15.1527 69.0895 15.4157Z" fill="#954EDE"/>
<path d="M66.8539 13.0744C66.9065 13.1007 66.9591 13.1007 67.0117 13.127C67.2747 13.1796 67.5377 13.0218 67.6692 12.7851L70.299 6.8679C70.4305 6.55232 70.299 6.21043 69.9834 6.07894C69.6679 5.94744 69.326 6.07894 69.1945 6.39452L66.5646 12.3117C66.4068 12.5747 66.5646 12.9429 66.8539 13.0744Z" fill="#954EDE"/>
</g>
<path d="M84.0282 15.6708C84.9539 15.914 85.6481 16.3843 86.378 17.2114C87.0366 17.9736 87.3926 18.9466 87.357 19.9196V19.9358V19.9521C87.357 19.9521 87.357 19.9683 87.3748 19.9683C87.3748 19.9683 87.3748 19.9845 87.3926 19.9845L87.4104 20.0007C87.4104 20.0007 87.4282 20.0007 87.4282 20.0169H87.446H87.4638C87.5172 20.0169 87.5528 19.9845 87.5528 19.9358C87.5528 19.9358 87.5528 19.9358 87.5528 19.9196C87.5172 18.9628 87.8732 17.9736 88.5319 17.2114C89.2439 16.3681 89.9559 15.914 90.8816 15.6708C90.935 15.6545 90.9528 15.6221 90.9528 15.5735C90.9528 15.5248 90.9172 15.4924 90.8816 15.4924C89.9381 15.2816 89.3685 14.7788 88.7633 14.195C88.1758 13.6274 87.7664 12.8814 87.5706 11.9571C87.5706 11.9571 87.5706 11.9571 87.5706 11.9408C87.5706 11.9246 87.5706 11.9246 87.5528 11.9246C87.5528 11.9246 87.5528 11.9246 87.5528 11.9084L87.535 11.8922C87.535 11.8922 87.535 11.8922 87.5172 11.8922C87.5172 11.8922 87.4994 11.8922 87.4994 11.876H87.4816H87.4638C87.4638 11.876 87.446 11.876 87.446 11.8922C87.446 11.8922 87.446 11.8922 87.4282 11.8922L87.4104 11.9084C87.4104 11.9084 87.4104 11.9084 87.4104 11.9246C87.4104 11.9246 87.4104 11.9408 87.3926 11.9408C87.3926 11.9408 87.3926 11.9408 87.3926 11.9571C87.1968 12.8814 86.7874 13.6436 86.1999 14.195C85.5591 14.7788 84.9717 15.2816 84.0282 15.4924C83.9926 15.4924 83.957 15.5248 83.957 15.5735C83.957 15.6221 83.9926 15.6545 84.0282 15.6708Z" fill="#954EDE"/>
<g clip-path="url(#clip3)">
<path d="M178.631 60.5807C179.299 61.1345 179.69 61.7864 179.973 62.7452C180.223 63.6234 180.144 64.5592 179.743 65.3453L179.737 65.3586L179.73 65.372C179.73 65.372 179.724 65.3853 179.739 65.3921C179.739 65.3921 179.733 65.4054 179.747 65.4122L179.756 65.4324C179.756 65.4324 179.77 65.4392 179.764 65.4525L179.779 65.4593L179.793 65.4661C179.837 65.4865 179.879 65.4735 179.898 65.4335C179.898 65.4335 179.898 65.4335 179.904 65.4202C180.24 64.6202 180.911 63.9432 181.744 63.5686C182.651 63.1477 183.41 63.0467 184.264 63.2007C184.314 63.2077 184.341 63.1879 184.36 63.1479C184.378 63.1079 184.361 63.0677 184.332 63.054C183.637 62.5201 183.361 61.8891 183.087 61.1779C182.821 60.4869 182.77 59.7172 182.962 58.8827C182.962 58.8827 182.962 58.8827 182.969 58.8693C182.975 58.856 182.975 58.856 182.96 58.8492C182.96 58.8492 182.96 58.8492 182.966 58.8359L182.958 58.8157C182.958 58.8157 182.958 58.8157 182.943 58.8089C182.943 58.8089 182.929 58.8021 182.935 58.7888L182.92 58.782L182.906 58.7752C182.906 58.7752 182.891 58.7684 182.885 58.7817C182.885 58.7817 182.885 58.7817 182.87 58.7749L182.849 58.7814C182.849 58.7814 182.849 58.7814 182.843 58.7948C182.843 58.7948 182.837 58.8081 182.822 58.8013C182.822 58.8013 182.822 58.8013 182.816 58.8146C182.302 59.4995 181.674 59.9694 180.98 60.198C180.23 60.4328 179.555 60.6215 178.699 60.434C178.67 60.4204 178.629 60.4335 178.61 60.4735C178.591 60.5135 178.608 60.5537 178.631 60.5807Z" fill="#FFB8DC"/>
</g>
<path d="M168.123 52.018C168.374 52.2515 168.618 52.4339 168.857 52.5809C168.59 52.6668 168.31 52.7858 168.009 52.9526C166.253 53.9284 166.083 56.7826 166.076 56.9037C166.072 56.9899 166.091 57.0757 166.133 57.1512C166.535 57.8737 167.275 58.2548 168.097 58.3482C168.934 58.4433 169.855 58.2403 170.689 57.7766C170.989 57.6101 171.238 57.4344 171.451 57.253C171.451 57.5329 171.477 57.8366 171.543 58.1737C171.824 59.6118 173.441 60.7483 174.703 61.2331C174.784 61.2641 174.872 61.2718 174.956 61.2552C175.709 61.1082 176.329 60.5762 176.702 59.7574C177.051 58.9909 177.142 58.0527 176.959 57.1155C176.892 56.7752 176.801 56.4814 176.693 56.2201C176.937 56.2952 177.212 56.3549 177.53 56.3937C179.522 56.6363 181.364 54.4438 181.441 54.3504C181.498 54.2825 181.533 54.2 181.544 54.1126C181.637 53.3515 181.317 52.595 180.644 51.9824C180.015 51.4101 179.146 51.0314 178.198 50.9158C177.895 50.879 177.622 50.8722 177.371 50.8868C177.526 50.6694 177.674 50.4198 177.811 50.1253C178.658 48.3036 177.118 45.8943 177.052 45.7926C177.005 45.7201 176.939 45.6624 176.86 45.6259C176.165 45.3025 175.351 45.3686 174.568 45.8119C173.835 46.2268 173.21 46.9321 172.807 47.7979C172.675 48.0824 172.581 48.3481 172.516 48.5998C172.38 48.4166 172.215 48.2292 172.007 48.0364C170.537 46.6675 167.769 47.3875 167.652 47.4188C167.569 47.4411 167.493 47.4865 167.435 47.5497C166.364 48.6997 166.667 50.6624 168.123 52.018V52.018ZM170.243 56.9725C169.574 57.3439 168.849 57.508 168.201 57.4343C167.665 57.3734 167.245 57.154 167.005 56.8121C167.075 56.0385 167.431 54.326 168.456 53.7566C169.22 53.3319 169.785 53.2897 170.589 53.2603C171.242 53.4509 171.874 53.6674 172.634 54.3351C171.648 55.3528 171.533 56.2558 170.243 56.9725ZM173.046 52.6279C173.297 52.6557 173.53 52.6678 173.748 52.6672C173.799 52.9146 173.859 53.1406 173.927 53.3484C173.708 53.4733 173.512 53.6003 173.335 53.7286C173.148 53.5588 172.967 53.4116 172.791 53.2833C172.894 53.0535 172.978 52.8355 173.046 52.6279V52.6279ZM175.865 59.3762C175.641 59.8676 175.303 60.1986 174.903 60.3217C174.189 60.0161 172.67 59.1479 172.446 57.9973C172.269 57.0924 172.436 56.5043 172.63 55.8233L172.633 55.8152C173.016 55.2536 173.417 54.7189 174.287 54.2028C174.949 55.4535 175.773 55.843 176.056 57.2919C176.203 58.0425 176.135 58.7827 175.865 59.3762ZM178.086 51.8288C178.836 51.9201 179.543 52.2241 180.025 52.6627C180.428 53.0301 180.643 53.454 180.639 53.8696C180.276 54.2679 178.925 55.637 177.642 55.4808C176.765 55.374 176.34 55.0963 175.694 54.6613C175.278 54.1223 174.892 53.574 174.67 52.583C176.065 52.3241 176.63 51.6514 178.086 51.8288V51.8288ZM175.021 46.6122C175.491 46.3462 175.959 46.2772 176.355 46.4125C176.753 47.0794 177.471 48.6743 176.977 49.7374C176.603 50.5414 176.143 50.9212 175.613 51.3376C174.953 51.5902 174.318 51.823 173.257 51.725C173.456 50.3237 173.018 49.5245 173.641 48.1858C173.963 47.4924 174.454 46.9336 175.021 46.6122V46.6122ZM168.025 48.274C168.782 48.1014 170.522 47.9105 171.381 48.7097C172.042 49.3252 172.133 49.8138 172.387 50.5258C172.408 51.2057 172.398 51.8744 171.997 52.8038C170.729 52.1831 169.827 52.3478 168.75 51.3447C167.896 50.5499 167.328 49.1794 168.025 48.274Z" fill="#FFDFFF"/>
<g clip-path="url(#clip4)">
<path d="M167.381 51.8393C167.632 52.0728 167.876 52.2552 168.115 52.4022C167.848 52.4881 167.568 52.6071 167.267 52.7739C165.511 53.7497 165.341 56.6039 165.334 56.7249C165.33 56.8112 165.349 56.897 165.391 56.9725C165.793 57.695 166.533 58.0761 167.355 58.1695C168.192 58.2646 169.113 58.0616 169.947 57.5979C170.247 57.4314 170.496 57.2557 170.709 57.0743C170.709 57.3542 170.735 57.6578 170.801 57.995C171.082 59.4331 172.7 60.5696 173.961 61.0544C174.042 61.0854 174.13 61.0931 174.214 61.0765C174.967 60.9295 175.587 60.3975 175.96 59.5787C176.309 58.8122 176.4 57.874 176.217 56.9368C176.151 56.5965 176.059 56.3027 175.951 56.0414C176.195 56.1165 176.47 56.1762 176.789 56.215C178.78 56.4575 180.622 54.2651 180.699 54.1717C180.756 54.1038 180.791 54.0213 180.802 53.9338C180.895 53.1728 180.575 52.4163 179.902 51.8037C179.273 51.2314 178.404 50.8527 177.456 50.7371C177.153 50.7003 176.88 50.6935 176.629 50.7081C176.784 50.4907 176.932 50.241 177.069 49.9466C177.916 48.1248 176.376 45.7156 176.31 45.6139C176.263 45.5414 176.197 45.4837 176.118 45.4472C175.423 45.1238 174.609 45.1899 173.826 45.6332C173.093 46.0481 172.468 46.7534 172.065 47.6192C171.933 47.9037 171.839 48.1693 171.774 48.421C171.638 48.2379 171.473 48.0505 171.266 47.8577C169.795 46.4888 167.028 47.2088 166.91 47.2401C166.827 47.2624 166.752 47.3078 166.693 47.371C165.622 48.521 165.925 50.4837 167.381 51.8393V51.8393ZM169.501 56.7938C168.832 57.1652 168.107 57.3292 167.459 57.2556C166.923 57.1946 166.503 56.9753 166.263 56.6334C166.333 55.8598 166.689 54.1472 167.714 53.5779C168.478 53.1532 169.043 53.111 169.847 53.0816C170.5 53.2722 171.132 53.4887 171.892 54.1564C170.906 55.1741 170.791 56.0771 169.501 56.7938ZM172.304 52.4492C172.555 52.477 172.788 52.4891 173.006 52.4885C173.057 52.7359 173.117 52.9618 173.185 53.1697C172.966 53.2946 172.77 53.4216 172.593 53.5499C172.407 53.3801 172.225 53.2329 172.049 53.1046C172.152 52.8748 172.236 52.6568 172.304 52.4492V52.4492ZM175.123 59.1975C174.899 59.6889 174.561 60.0199 174.161 60.1429C173.447 59.8374 171.929 58.9692 171.704 57.8186C171.527 56.9137 171.694 56.3256 171.889 55.6446L171.891 55.6365C172.274 55.0749 172.675 54.5402 173.545 54.0241C174.207 55.2748 175.031 55.6643 175.314 57.1132C175.461 57.8637 175.393 58.604 175.123 59.1975ZM177.345 51.6501C178.094 51.7414 178.801 52.0454 179.283 52.484C179.686 52.8514 179.901 53.2753 179.897 53.6909C179.534 54.0891 178.183 55.4583 176.9 55.302C176.023 55.1953 175.598 54.9176 174.952 54.4825C174.536 53.9436 174.15 53.3953 173.928 52.4043C175.323 52.1454 175.888 51.4727 177.345 51.6501V51.6501ZM174.279 46.4335C174.749 46.1675 175.217 46.0984 175.613 46.2338C176.011 46.9007 176.729 48.4956 176.235 49.5587C175.861 50.3627 175.401 50.7424 174.871 51.1589C174.211 51.4115 173.576 51.6443 172.515 51.5463C172.714 50.145 172.276 49.3458 172.899 48.0071C173.221 47.3137 173.712 46.7548 174.279 46.4335V46.4335ZM167.283 48.0953C168.04 47.9227 169.78 47.7318 170.639 48.531C171.3 49.1465 171.391 49.6351 171.645 50.3471C171.666 51.027 171.656 51.6957 171.255 52.6251C169.987 52.0044 169.086 52.1691 168.008 51.166C167.154 50.3711 166.586 49.0007 167.283 48.0953Z" fill="#954EDE"/>
</g>
<g clip-path="url(#clip5)">
<path d="M45.7789 97.8004C46.7445 98.0542 47.4687 98.5448 48.23 99.4075C48.9171 100.203 49.2885 101.218 49.2513 102.233V102.25V102.267C49.2513 102.267 49.2513 102.283 49.2699 102.283C49.2699 102.283 49.2699 102.3 49.2885 102.3L49.3071 102.317C49.3071 102.317 49.3256 102.317 49.3256 102.334H49.3442H49.3628C49.4185 102.334 49.4556 102.3 49.4556 102.25C49.4556 102.25 49.4556 102.25 49.4556 102.233C49.4185 101.235 49.7899 100.203 50.4769 99.4075C51.2197 98.5278 51.9625 98.0542 52.9281 97.8004C52.9838 97.7835 53.0024 97.7497 53.0024 97.6989C53.0024 97.6482 52.9652 97.6143 52.9281 97.6143C51.9439 97.3944 51.3497 96.87 50.7183 96.261C50.1055 95.6688 49.6784 94.8907 49.4742 93.9264C49.4742 93.9264 49.4742 93.9264 49.4742 93.9095C49.4742 93.8925 49.4742 93.8925 49.4556 93.8925C49.4556 93.8925 49.4556 93.8925 49.4556 93.8756L49.437 93.8587C49.437 93.8587 49.437 93.8587 49.4185 93.8587C49.4185 93.8587 49.3999 93.8587 49.3999 93.8418H49.3813H49.3628C49.3628 93.8418 49.3442 93.8418 49.3442 93.8587C49.3442 93.8587 49.3442 93.8587 49.3256 93.8587L49.3071 93.8756C49.3071 93.8756 49.3071 93.8756 49.3071 93.8925C49.3071 93.8925 49.3071 93.9095 49.2885 93.9095C49.2885 93.9095 49.2885 93.9095 49.2885 93.9264C49.0842 94.8907 48.6571 95.6858 48.0443 96.261C47.3758 96.87 46.763 97.3944 45.7789 97.6143C45.7417 97.6143 45.7046 97.6482 45.7046 97.6989C45.7046 97.7497 45.7417 97.7835 45.7789 97.8004Z" fill="#954EDE"/>
</g>
<path d="M56.4644 62.9243C57.9095 63.304 58.9933 64.0382 60.1327 65.3294C61.161 66.5193 61.7168 68.0384 61.6612 69.5574V69.5828V69.6081C61.6612 69.6081 61.6612 69.6334 61.689 69.6334C61.689 69.6334 61.689 69.6587 61.7168 69.6587L61.7446 69.684C61.7446 69.684 61.7723 69.684 61.7723 69.7093H61.8001H61.8279C61.9113 69.7093 61.9669 69.6587 61.9669 69.5828C61.9669 69.5828 61.9669 69.5828 61.9669 69.5574C61.9113 68.0637 62.4671 66.5193 63.4953 65.3294C64.6069 64.0129 65.7185 63.304 67.1636 62.9243C67.247 62.899 67.2748 62.8483 67.2748 62.7724C67.2748 62.6964 67.2192 62.6458 67.1636 62.6458C65.6907 62.3167 64.8015 61.5318 63.8566 60.6204C62.9395 59.7343 62.3004 58.5697 61.9947 57.1266C61.9947 57.1266 61.9947 57.1266 61.9947 57.1013C61.9947 57.076 61.9947 57.076 61.9669 57.076C61.9669 57.076 61.9669 57.076 61.9669 57.0506L61.9391 57.0253C61.9391 57.0253 61.9391 57.0253 61.9113 57.0253C61.9113 57.0253 61.8835 57.0253 61.8835 57H61.8557H61.8279C61.8279 57 61.8001 57 61.8001 57.0253C61.8001 57.0253 61.8001 57.0253 61.7723 57.0253L61.7446 57.0506C61.7446 57.0506 61.7446 57.0506 61.7446 57.076C61.7446 57.076 61.7446 57.1013 61.7168 57.1013C61.7168 57.1013 61.7168 57.1013 61.7168 57.1266C61.4111 58.5697 60.7719 59.7596 59.8548 60.6204C58.8544 61.5318 57.9373 62.3167 56.4644 62.6458C56.4089 62.6458 56.3533 62.6964 56.3533 62.7724C56.3533 62.8483 56.4089 62.899 56.4644 62.9243Z" fill="#FFB8DC"/>
<path d="M42.1671 82.6356C42.4734 82.7351 42.7536 82.7938 43.015 82.8246C42.8222 83.0033 42.6303 83.2159 42.4405 83.477C41.3309 85.0043 42.3168 87.5035 42.3593 87.6092C42.3896 87.6845 42.4405 87.7497 42.5062 87.7974C43.1344 88.2539 43.9161 88.2852 44.6536 88.039C45.4042 87.7883 46.108 87.2506 46.6354 86.5247C46.8247 86.2642 46.9671 86.0159 47.0771 85.7768C47.1875 86.0154 47.3304 86.2636 47.5201 86.5247C48.3293 87.6386 50.1577 87.9659 51.4248 87.8789C51.5058 87.8734 51.5836 87.8452 51.6493 87.7974C52.2322 87.3739 52.5494 86.6751 52.5426 85.8297C52.5362 85.0384 52.2422 84.2029 51.7149 83.477C51.5234 83.2135 51.3291 82.9994 51.1333 82.8196C51.3713 82.7867 51.629 82.7287 51.9157 82.6356C53.7083 82.0531 54.409 79.4553 54.4379 79.345C54.4589 79.2649 54.4565 79.1805 54.4309 79.1018C54.2083 78.4166 53.6362 77.8988 52.8199 77.6437C52.0572 77.4054 51.1671 77.4269 50.3134 77.7043C50.0411 77.7928 49.8057 77.8952 49.5973 78.0073C49.6433 77.7606 49.6703 77.4894 49.6703 77.1843C49.6703 75.2964 47.4037 73.854 47.3072 73.7935C47.2384 73.7504 47.1589 73.7275 47.0778 73.7275C46.3573 73.7275 45.6899 74.1064 45.1985 74.7944C44.7385 75.4383 44.4852 76.287 44.4852 77.1843C44.4852 77.479 44.5109 77.7424 44.5548 77.9828C44.3667 77.8805 44.1514 77.7864 43.8986 77.7043C42.103 77.1209 40.0309 78.8308 39.9435 78.9039C39.8813 78.956 39.8349 79.0246 39.8099 79.1018C39.3537 80.5056 40.3892 82.0579 42.1671 82.6356V82.6356ZM45.9362 86.0167C45.5138 86.5981 44.9611 87.0252 44.3799 87.2192C43.8987 87.3798 43.4545 87.3592 43.1142 87.1631C42.8672 86.4763 42.4922 84.8761 43.1397 83.9849C43.6226 83.3202 44.0869 83.0605 44.7603 82.7168C45.3917 82.6206 46.0165 82.5544 46.9282 82.8222C46.4917 84.0799 46.7513 84.895 45.9362 86.0167ZM46.6027 81.2045C46.8278 81.1286 47.0312 81.0466 47.2164 80.9598C47.3579 81.1503 47.4988 81.3189 47.6387 81.4693C47.5015 81.6625 47.3848 81.8484 47.2852 82.0277C47.0591 81.9569 46.8462 81.9034 46.6449 81.864C46.6424 81.6271 46.6275 81.4081 46.6027 81.2045V81.2045ZM51.6784 85.8367C51.6825 86.344 51.5256 86.7601 51.2339 87.0232C50.5046 87.0458 48.8667 86.908 48.2192 86.0168C47.71 85.3159 47.6197 84.7485 47.5151 84.0914L47.5139 84.0836C47.6176 83.4534 47.7476 82.8388 48.2841 82.0544C49.3442 82.8574 50.2004 82.8628 51.0157 83.985C51.4381 84.5663 51.6735 85.224 51.6784 85.8367ZM50.5804 78.5262C51.2553 78.3069 51.9776 78.2859 52.562 78.4686C53.0517 78.6216 53.4026 78.8976 53.5641 79.2532C53.4126 79.7364 52.8037 81.4384 51.6487 81.8138C50.8596 82.0701 50.3872 82.0021 49.6649 81.8872C49.0962 81.5932 48.5507 81.2789 47.9689 80.5224C49.0545 79.7493 49.2693 78.9522 50.5804 78.5262V78.5262ZM45.9016 75.2967C46.1965 74.8839 46.568 74.6395 46.9586 74.5981C47.562 75.0085 48.8061 76.0826 48.8061 77.1843C48.8061 78.0174 48.5651 78.523 48.2784 79.0879C47.8163 79.5646 47.3672 80.0148 46.4245 80.3517C46.0388 79.079 45.3493 78.5715 45.3493 77.1843C45.3494 76.4657 45.5455 75.7953 45.9016 75.2967V75.2967ZM40.5999 79.4848C41.1762 79.0379 42.5833 78.1856 43.6315 78.5262C44.4388 78.7885 44.7101 79.1687 45.2087 79.6745C45.4955 80.2457 45.7518 80.8195 45.7789 81.77C44.4529 81.7436 43.7498 82.2412 42.4342 81.8137C41.3916 81.475 40.3644 80.5326 40.5999 79.4848Z" fill="#FFDFFF"/>
<g clip-path="url(#clip6)">
<path d="M41.4647 82.7782C41.771 82.8777 42.0512 82.9364 42.3126 82.9671C42.1198 83.1459 41.9279 83.3585 41.7381 83.6196C40.6285 85.1469 41.6144 87.6461 41.6569 87.7518C41.6872 87.8271 41.7381 87.8923 41.8038 87.94C42.432 88.3965 43.2137 88.4278 43.9512 88.1815C44.7018 87.9309 45.4056 87.3932 45.933 86.6673C46.1223 86.4068 46.2647 86.1585 46.3747 85.9193C46.4851 86.158 46.628 86.4062 46.8177 86.6673C47.627 87.7812 49.4553 88.1085 50.7224 88.0215C50.8034 88.016 50.8812 87.9877 50.9469 87.94C51.5298 87.5165 51.847 86.8177 51.8402 85.9723C51.8338 85.181 51.5398 84.3454 51.0125 83.6196C50.821 83.356 50.6267 83.1419 50.431 82.9622C50.6689 82.9293 50.9266 82.8713 51.2134 82.7782C53.0059 82.1957 53.7066 79.5978 53.7355 79.4875C53.7565 79.4075 53.7542 79.3231 53.7285 79.2443C53.5059 78.5592 52.9338 78.0414 52.1175 77.7863C51.3548 77.548 50.4647 77.5695 49.611 77.8469C49.3387 77.9354 49.1033 78.0378 48.8949 78.1499C48.9409 77.9032 48.9679 77.6319 48.9679 77.3268C48.9679 75.439 46.7013 73.9966 46.6048 73.9361C46.536 73.893 46.4565 73.8701 46.3754 73.8701C45.6549 73.8701 44.9875 74.249 44.4961 74.9369C44.0361 75.5809 43.7828 76.4296 43.7828 77.3268C43.7828 77.6216 43.8085 77.885 43.8524 78.1254C43.6643 78.0231 43.449 77.929 43.1962 77.8468C41.4006 77.2635 39.3285 78.9734 39.2411 79.0465C39.1789 79.0985 39.1326 79.1671 39.1075 79.2443C38.6513 80.6482 39.6868 82.2005 41.4647 82.7782V82.7782ZM45.2338 86.1593C44.8114 86.7407 44.2587 87.1677 43.6775 87.3618C43.1963 87.5224 42.7521 87.5018 42.4118 87.3057C42.1648 86.6189 41.7898 85.0187 42.4373 84.1275C42.9203 83.4628 43.3845 83.2031 44.0579 82.8594C44.6893 82.7632 45.3141 82.697 46.2258 82.9648C45.7893 84.2225 46.0489 85.0375 45.2338 86.1593ZM45.9003 81.3471C46.1254 81.2712 46.3288 81.1891 46.514 81.1024C46.6555 81.2929 46.7964 81.4615 46.9363 81.6119C46.7991 81.8051 46.6824 81.991 46.5828 82.1702C46.3567 82.0995 46.1438 82.0459 45.9425 82.0066C45.94 81.7696 45.9251 81.5507 45.9003 81.3471V81.3471ZM50.976 85.9793C50.9801 86.4865 50.8232 86.9026 50.5315 87.1658C49.8022 87.1884 48.1643 87.0506 47.5168 86.1594C47.0076 85.4585 46.9173 84.891 46.8127 84.234L46.8115 84.2262C46.9152 83.596 47.0452 82.9814 47.5817 82.197C48.6418 83 49.498 83.0054 50.3133 84.1276C50.7358 84.7089 50.9711 85.3665 50.976 85.9793ZM49.8781 78.6688C50.5529 78.4495 51.2752 78.4285 51.8596 78.6112C52.3493 78.7642 52.7002 79.0402 52.8617 79.3958C52.7102 79.879 52.1013 81.581 50.9463 81.9563C50.1572 82.2127 49.6848 82.1447 48.9625 82.0298C48.3939 81.7358 47.8483 81.4214 47.2665 80.665C48.3521 79.8919 48.5669 79.0948 49.8781 78.6688V78.6688ZM45.1992 75.4393C45.4941 75.0264 45.8656 74.7821 46.2562 74.7406C46.8596 75.151 48.1037 76.2252 48.1037 77.3269C48.1037 78.16 47.8628 78.6656 47.576 79.2305C47.1139 79.7072 46.6648 80.1574 45.7221 80.4943C45.3364 79.2215 44.6469 78.7141 44.6469 77.3269C44.647 76.6082 44.8431 75.9379 45.1992 75.4393V75.4393ZM39.8976 79.6274C40.4738 79.1805 41.8809 78.3282 42.9291 78.6688C43.7364 78.9311 44.0077 79.3113 44.5063 79.8171C44.7931 80.3883 45.0494 80.962 45.0765 81.9125C43.7505 81.8861 43.0474 82.3838 41.7318 81.9563C40.6892 81.6175 39.662 80.6751 39.8976 79.6274Z" fill="#954EDE"/>
</g>
<g clip-path="url(#clip7)">
<path d="M76.9885 86.3413C79.1626 85.0425 79.899 82.235 78.6283 80.0343C77.3577 77.8336 74.5583 77.0677 72.3465 78.3012C72.3088 75.769 70.2457 73.7275 67.7045 73.7275C65.1634 73.7275 63.1002 75.769 63.0626 78.3014C60.8508 77.0678 58.0512 77.8339 56.7806 80.0347C55.5101 82.2353 56.2464 85.0428 58.4206 86.3415C56.2465 87.6403 55.5101 90.4478 56.7807 92.6485C58.0513 94.8492 60.8509 95.6152 63.0627 94.3816C63.1002 96.914 65.1635 98.9555 67.7047 98.9554C70.2459 98.9554 72.309 96.9138 72.3466 94.3816C74.5584 95.6151 77.358 94.8491 78.6285 92.6482C79.8991 90.4475 79.1626 87.64 76.9885 86.3413ZM67.7045 90.5939C65.3559 90.5939 63.452 88.69 63.452 86.3414C63.452 83.9927 65.3559 82.0888 67.7045 82.0888C70.0531 82.0888 71.9571 83.9927 71.9571 86.3414C71.9571 88.69 70.0532 90.5939 67.7045 90.5939Z" fill="#954EDE"/>
<circle cx="67.7718" cy="86.7213" r="5.47422" fill="white"/>
</g>
<g clip-path="url(#clip8)">
<path d="M170.756 28.4999C172.221 27.6247 172.717 25.7329 171.861 24.2499C171.005 22.7669 169.118 22.2508 167.628 23.082C167.603 21.3757 166.212 20 164.5 20C162.788 20 161.397 21.3757 161.372 23.0821C159.882 22.2509 157.995 22.7671 157.139 24.2501C156.283 25.7331 156.779 27.6249 158.244 28.5C156.779 29.3752 156.283 31.2671 157.139 32.7501C157.995 34.2331 159.882 34.7492 161.372 33.918C161.397 35.6244 162.788 37.0001 164.5 37C166.213 37 167.603 35.6243 167.628 33.918C169.119 34.7491 171.005 34.233 171.861 32.7499C172.717 31.2669 172.221 29.375 170.756 28.4999ZM164.5 31.3656C162.917 31.3656 161.634 30.0826 161.634 28.5C161.634 26.9173 162.917 25.6343 164.5 25.6343C166.083 25.6343 167.366 26.9173 167.366 28.5C167.366 30.0826 166.083 31.3656 164.5 31.3656Z" fill="#954EDE"/>
<circle cx="164.545" cy="28.7562" r="3.68886" fill="white"/>
</g>
<path d="M107.235 20.5374C107.503 20.6244 107.748 20.6757 107.976 20.7025C107.808 20.8587 107.64 21.0445 107.474 21.2727C106.505 22.6076 107.366 24.7918 107.403 24.8841C107.43 24.9499 107.474 25.007 107.532 25.0487C108.081 25.4476 108.764 25.475 109.409 25.2598C110.065 25.0407 110.68 24.5708 111.141 23.9364C111.306 23.7087 111.43 23.4917 111.527 23.2827C111.623 23.4912 111.748 23.7082 111.914 23.9364C112.621 24.9099 114.219 25.1959 115.326 25.1199C115.397 25.115 115.465 25.0904 115.523 25.0487C116.032 24.6786 116.309 24.0678 116.303 23.3289C116.298 22.6374 116.041 21.9071 115.58 21.2727C115.413 21.0424 115.243 20.8553 115.072 20.6982C115.28 20.6695 115.505 20.6188 115.755 20.5374C117.322 20.0283 117.934 17.7578 117.96 17.6614C117.978 17.5914 117.976 17.5177 117.954 17.4489C117.759 16.8501 117.259 16.3975 116.546 16.1746C115.879 15.9663 115.101 15.9851 114.355 16.2275C114.117 16.3049 113.911 16.3944 113.729 16.4924C113.769 16.2768 113.793 16.0397 113.793 15.773C113.793 14.1231 111.812 12.8625 111.728 12.8096C111.668 12.7719 111.598 12.752 111.527 12.752C110.898 12.752 110.314 13.0831 109.885 13.6843C109.483 14.2471 109.261 14.9889 109.261 15.773C109.261 16.0306 109.284 16.2608 109.322 16.4709C109.158 16.3815 108.97 16.2993 108.749 16.2275C107.179 15.7176 105.368 17.2121 105.292 17.2759C105.238 17.3215 105.197 17.3814 105.175 17.4489C104.777 18.6758 105.682 20.0325 107.235 20.5374V20.5374ZM110.53 23.4924C110.16 24.0005 109.677 24.3737 109.169 24.5433C108.749 24.6837 108.361 24.6657 108.063 24.4943C107.847 23.8941 107.52 22.4955 108.085 21.7166C108.507 21.1357 108.913 20.9087 109.502 20.6083C110.054 20.5243 110.6 20.4664 111.396 20.7005C111.015 21.7997 111.242 22.512 110.53 23.4924ZM111.112 19.2866C111.309 19.2203 111.486 19.1486 111.648 19.0728C111.772 19.2392 111.895 19.3866 112.017 19.518C111.898 19.6869 111.796 19.8494 111.708 20.006C111.511 19.9442 111.325 19.8974 111.149 19.863C111.147 19.6559 111.134 19.4645 111.112 19.2866V19.2866ZM115.548 23.335C115.552 23.7784 115.414 24.142 115.16 24.372C114.522 24.3918 113.091 24.2713 112.525 23.4924C112.08 22.8799 112.001 22.3839 111.909 21.8097L111.908 21.8029C111.999 21.2521 112.113 20.7149 112.582 20.0294C113.508 20.7312 114.256 20.7359 114.969 21.7167C115.338 22.2248 115.544 22.7995 115.548 23.335ZM114.588 16.9458C115.178 16.7542 115.81 16.7359 116.32 16.8955C116.748 17.0292 117.055 17.2705 117.196 17.5813C117.064 18.0035 116.532 19.4911 115.522 19.8191C114.832 20.0432 114.42 19.9837 113.788 19.8833C113.291 19.6263 112.814 19.3516 112.306 18.6905C113.255 18.0148 113.442 17.3182 114.588 16.9458V16.9458ZM110.499 14.1233C110.757 13.7626 111.082 13.549 111.423 13.5128C111.95 13.8714 113.038 14.8102 113.038 15.7731C113.038 16.5012 112.827 16.9431 112.577 17.4368C112.173 17.8534 111.78 18.2468 110.956 18.5413C110.619 17.429 110.017 16.9854 110.017 15.7731C110.017 15.145 110.188 14.5591 110.499 14.1233V14.1233ZM105.866 17.7837C106.369 17.3931 107.599 16.6482 108.515 16.9458C109.221 17.1751 109.458 17.5074 109.894 17.9495C110.144 18.4486 110.368 18.9501 110.392 19.7808C109.233 19.7577 108.619 20.1927 107.469 19.8191C106.558 19.523 105.66 18.6994 105.866 17.7837Z" fill="#FFB8DC"/>
<path d="M106.924 20.9485C107.192 21.0355 107.436 21.0868 107.665 21.1136C107.496 21.2699 107.329 21.4557 107.163 21.6839C106.193 23.0187 107.055 25.2029 107.092 25.2953C107.118 25.3611 107.163 25.4181 107.22 25.4598C107.769 25.8587 108.452 25.8861 109.097 25.6709C109.753 25.4519 110.368 24.9819 110.829 24.3475C110.994 24.1198 111.119 23.9028 111.215 23.6938C111.312 23.9024 111.436 24.1193 111.602 24.3475C112.31 25.321 113.907 25.607 115.015 25.531C115.086 25.5262 115.154 25.5015 115.211 25.4598C115.72 25.0897 115.998 24.4789 115.992 23.7401C115.986 23.0485 115.729 22.3182 115.268 21.6839C115.101 21.4535 114.931 21.2664 114.76 21.1093C114.968 21.0806 115.193 21.0299 115.444 20.9485C117.011 20.4394 117.623 18.169 117.648 18.0726C117.667 18.0026 117.665 17.9288 117.642 17.86C117.448 17.2612 116.948 16.8087 116.234 16.5857C115.568 16.3774 114.79 16.3962 114.044 16.6387C113.806 16.716 113.6 16.8055 113.418 16.9035C113.458 16.6879 113.481 16.4508 113.481 16.1842C113.481 14.5342 111.501 13.2736 111.416 13.2207C111.356 13.1831 111.287 13.1631 111.216 13.1631C110.586 13.1631 110.003 13.4942 109.573 14.0955C109.171 14.6582 108.95 15.4 108.95 16.1842C108.95 16.4418 108.972 16.6719 109.011 16.8821C108.846 16.7927 108.658 16.7104 108.437 16.6386C106.868 16.1288 105.057 17.6232 104.981 17.6871C104.926 17.7326 104.886 17.7925 104.864 17.86C104.465 19.087 105.37 20.4436 106.924 20.9485ZM110.218 23.9035C109.849 24.4116 109.366 24.7849 108.858 24.9544C108.437 25.0948 108.049 25.0768 107.752 24.9055C107.536 24.3052 107.208 22.9067 107.774 22.1278C108.196 21.5468 108.602 21.3199 109.19 21.0195C109.742 20.9354 110.288 20.8775 111.085 21.1116C110.703 22.2108 110.93 22.9231 110.218 23.9035ZM110.8 19.6977C110.997 19.6314 111.175 19.5597 111.337 19.4839C111.46 19.6504 111.584 19.7978 111.706 19.9292C111.586 20.098 111.484 20.2605 111.397 20.4172C111.199 20.3553 111.013 20.3085 110.837 20.2742C110.835 20.0671 110.822 19.8757 110.8 19.6977ZM115.237 23.7462C115.24 24.1895 115.103 24.5532 114.848 24.7831C114.211 24.8029 112.779 24.6824 112.213 23.9036C111.768 23.291 111.689 22.7951 111.598 22.2208L111.597 22.214C111.687 21.6633 111.801 21.1261 112.27 20.4406C113.196 21.1424 113.945 21.1471 114.657 22.1278C115.027 22.6359 115.232 23.2106 115.237 23.7462ZM114.277 17.357C114.867 17.1653 115.498 17.147 116.009 17.3066C116.437 17.4404 116.743 17.6816 116.885 17.9924C116.752 18.4147 116.22 19.9022 115.21 20.2302C114.521 20.4543 114.108 20.3949 113.477 20.2944C112.98 20.0375 112.503 19.7627 111.995 19.1017C112.943 18.4259 113.131 17.7293 114.277 17.357ZM110.188 14.5345C110.445 14.1737 110.77 13.9601 111.111 13.9239C111.639 14.2826 112.726 15.2214 112.726 16.1842C112.726 16.9123 112.516 17.3542 112.265 17.8479C111.861 18.2645 111.469 18.658 110.645 18.9524C110.308 17.8401 109.705 17.3966 109.705 16.1842C109.705 15.5561 109.877 14.9703 110.188 14.5345ZM105.554 18.1948C106.058 17.8042 107.288 17.0593 108.204 17.357C108.909 17.5863 109.146 17.9185 109.582 18.3606C109.833 18.8598 110.057 19.3612 110.08 20.192C108.922 20.1689 108.307 20.6038 107.157 20.2302C106.246 19.9341 105.348 19.1105 105.554 18.1948Z" fill="#954EDE"/>
</g>
<defs>
<filter id="filter0_f" x="23" y="81" width="156" height="26" filterUnits="userSpaceOnUse" color-interpolation-filters="sRGB">
<feFlood flood-opacity="0" result="BackgroundImageFix"/>
<feBlend mode="normal" in="SourceGraphic" in2="BackgroundImageFix" result="shape"/>
<feGaussianBlur stdDeviation="5" result="effect1_foregroundBlur"/>
</filter>
<clipPath id="clip0">
<rect width="277" height="105.82" fill="white"/>
</clipPath>
<clipPath id="clip1">
<rect width="5.93764" height="6.92725" fill="white" transform="translate(151.157 11.8438)"/>
</clipPath>
<clipPath id="clip2">
<rect width="35.8977" height="38.0016" fill="white" transform="translate(44 6)"/>
</clipPath>
<clipPath id="clip3">
<rect width="6.32513" height="7.37931" fill="white" transform="translate(180.023 57.4346) rotate(24.9452)"/>
</clipPath>
<clipPath id="clip4">
<rect width="15.6977" height="15.6977" fill="white" transform="translate(169.065 42.001) rotate(24.9452)"/>
</clipPath>
<clipPath id="clip5">
<rect width="7.27921" height="8.49241" fill="white" transform="translate(45.7046 93.8418)"/>
</clipPath>
<clipPath id="clip6">
<rect width="14.7496" height="14.7496" fill="white" transform="translate(39 73.7285)"/>
</clipPath>
<clipPath id="clip7">
<rect width="25.2278" height="25.2278" fill="white" transform="translate(55.0908 73.7275)"/>
</clipPath>
<clipPath id="clip8">
<rect width="17" height="17" fill="white" transform="translate(156 20)"/>
</clipPath>
</defs>
</svg>
