<svg width="277" height="106" viewBox="0 0 277 106" fill="none" xmlns="http://www.w3.org/2000/svg">
<g clip-path="url(#clip0)">
<g filter="url(#filter0_f)">
<ellipse cx="105" cy="94.8613" rx="68" ry="3" fill="#C4C4C4" fill-opacity="0.5"/>
</g>
<path d="M170.71 89.3779C169.909 90.3154 168.742 91.043 167.209 91.5605C165.676 92.0684 163.977 92.3076 162.111 92.2783C160.324 92.2588 158.815 91.8096 157.585 90.9307C156.354 90.0518 155.476 88.8262 154.948 87.2539C154.421 85.6816 154.279 83.9092 154.523 81.9365L154.641 81.0576C155.09 77.7471 156.252 75.125 158.127 73.1914C160.012 71.2578 162.316 70.3154 165.041 70.3643C167.424 70.4033 169.255 71.043 170.534 72.2832C171.813 73.5234 172.526 75.3154 172.673 77.6592L167.868 77.6445C167.8 76.502 167.517 75.667 167.019 75.1396C166.53 74.6123 165.832 74.334 164.924 74.3047C163.576 74.2559 162.463 74.7881 161.584 75.9014C160.705 77.0049 160.104 78.5869 159.782 80.6475C159.509 82.4053 159.411 83.7725 159.489 84.749C159.636 87.1025 160.695 88.2939 162.668 88.3232C163.859 88.3428 164.904 88.0547 165.803 87.459L166.462 84.1338H162.99L163.605 80.6035H172.087L170.71 89.3779ZM178.356 92H173.347L177.053 70.6719H182.048L178.356 92ZM199.626 89.3779C198.825 90.3154 197.658 91.043 196.125 91.5605C194.592 92.0684 192.893 92.3076 191.027 92.2783C189.24 92.2588 187.731 91.8096 186.501 90.9307C185.271 90.0518 184.392 88.8262 183.864 87.2539C183.337 85.6816 183.195 83.9092 183.439 81.9365L183.557 81.0576C184.006 77.7471 185.168 75.125 187.043 73.1914C188.928 71.2578 191.232 70.3154 193.957 70.3643C196.34 70.4033 198.171 71.043 199.45 72.2832C200.729 73.5234 201.442 75.3154 201.589 77.6592L196.784 77.6445C196.716 76.502 196.433 75.667 195.935 75.1396C195.446 74.6123 194.748 74.334 193.84 74.3047C192.492 74.2559 191.379 74.7881 190.5 75.9014C189.621 77.0049 189.021 78.5869 188.698 80.6475C188.425 82.4053 188.327 83.7725 188.405 84.749C188.552 87.1025 189.611 88.2939 191.584 88.3232C192.775 88.3428 193.82 88.0547 194.719 87.459L195.378 84.1338H191.906L192.521 80.6035H201.003L199.626 89.3779ZM214.45 88.0156H207.639L205.749 92H200.227L211.521 70.6719H216.237L220.178 92H214.963L214.45 88.0156ZM209.514 84.0459H213.938L213 76.6924L209.514 84.0459ZM233.625 86.2285C233.84 85.125 233.244 84.2705 231.838 83.665L229.436 82.6689C226.066 81.1553 224.465 79.0947 224.631 76.4873C224.699 75.2959 225.109 74.2363 225.861 73.3086C226.613 72.3711 227.653 71.6436 228.981 71.126C230.31 70.6084 231.76 70.3594 233.332 70.3789C235.441 70.418 237.136 71.0332 238.415 72.2246C239.704 73.416 240.339 75.0127 240.319 77.0146H235.339C235.368 76.1943 235.192 75.54 234.812 75.0518C234.44 74.5537 233.825 74.2949 232.966 74.2754C232.126 74.2559 231.384 74.4512 230.739 74.8613C230.095 75.2715 229.714 75.8232 229.597 76.5166C229.411 77.4932 230.134 78.2939 231.765 78.9189C233.405 79.5439 234.597 80.0811 235.339 80.5303C237.673 81.9268 238.767 83.8115 238.62 86.1846C238.542 87.415 238.146 88.4941 237.434 89.4219C236.721 90.3496 235.729 91.0674 234.46 91.5752C233.2 92.083 231.784 92.3271 230.212 92.3076C229.06 92.2881 227.99 92.1074 227.004 91.7656C226.018 91.4238 225.173 90.9258 224.47 90.2715C223.044 88.9531 222.36 87.2197 222.419 85.0713L227.443 85.0859C227.385 86.1797 227.595 87.0098 228.073 87.5762C228.552 88.1328 229.357 88.4111 230.49 88.4111C231.33 88.4111 232.028 88.2207 232.585 87.8398C233.151 87.4492 233.498 86.9121 233.625 86.2285Z" fill="#BBBBBB"/>
<path d="M81.1133 91H66.6113L74.7852 43.9785L59.8877 48.1973L61.9092 36.4639L90.21 27.0156L91.8359 26.9717L81.1133 91ZM150.459 43.7588C150.049 49.9697 146.431 54.8184 139.604 58.3047C142.065 60.0625 143.896 62.2012 145.098 64.7207C146.299 67.2402 146.797 70.0088 146.592 73.0264C146.211 78.915 143.794 83.5586 139.341 86.957C134.917 90.3555 129.424 91.9961 122.861 91.8789C119.99 91.8496 117.28 91.4102 114.731 90.5605C112.183 89.7109 110 88.4365 108.184 86.7373C104.551 83.3975 102.925 79.0615 103.306 73.7295C103.716 66.7861 107.891 61.4688 115.83 57.7773C111.494 54.4082 109.473 49.9844 109.766 44.5059C109.971 40.7852 111.069 37.5186 113.062 34.7061C115.054 31.8936 117.72 29.7402 121.06 28.2461C124.429 26.7227 128.135 26.0049 132.178 26.0928C138.037 26.21 142.637 27.8945 145.977 31.1465C149.346 34.3984 150.84 38.6025 150.459 43.7588ZM132.354 71.8398C132.617 69.5547 132.251 67.6797 131.255 66.2148C130.288 64.75 128.809 63.9883 126.816 63.9297C124.561 63.8711 122.612 64.6621 120.972 66.3027C119.331 67.9141 118.35 69.9941 118.027 72.543C117.764 74.9453 118.145 76.8643 119.17 78.2998C120.225 79.7061 121.748 80.4385 123.74 80.4971C125.908 80.5557 127.798 79.7939 129.409 78.2119C131.021 76.6299 132.002 74.5059 132.354 71.8398ZM135.869 44.5498C136.104 42.3818 135.796 40.668 134.946 39.4082C134.097 38.1191 132.852 37.4746 131.211 37.4746C129.307 37.416 127.695 38.1045 126.377 39.54C125.088 40.9756 124.297 42.8799 124.004 45.2529C123.77 47.4209 124.077 49.1934 124.927 50.5703C125.776 51.918 127.036 52.5918 128.706 52.5918C130.552 52.6504 132.134 51.9473 133.452 50.4824C134.771 49.0176 135.576 47.04 135.869 44.5498Z" fill="#EF3829"/>
<path d="M81.1133 91V94H83.6527L84.0721 91.4955L81.1133 91ZM66.6113 91L63.6557 90.4862L63.0448 94H66.6113V91ZM74.7852 43.9785L77.7408 44.4923L78.5579 39.7922L73.9677 41.092L74.7852 43.9785ZM59.8877 48.1973L56.9313 47.6879L56.1226 52.3815L60.7051 51.0838L59.8877 48.1973ZM61.9092 36.4639L60.9592 33.6183L59.2574 34.1864L58.9527 35.9545L61.9092 36.4639ZM90.21 27.0156L90.1289 24.0167L89.683 24.0288L89.26 24.17L90.21 27.0156ZM91.8359 26.9717L94.7947 27.4672L95.3964 23.8744L91.7549 23.9728L91.8359 26.9717ZM81.1133 88H66.6113V94H81.1133V88ZM69.567 91.5138L77.7408 44.4923L71.8295 43.4647L63.6557 90.4862L69.567 91.5138ZM73.9677 41.092L59.0703 45.3108L60.7051 51.0838L75.6026 46.865L73.9677 41.092ZM62.8441 48.7066L64.8656 36.9732L58.9527 35.9545L56.9313 47.6879L62.8441 48.7066ZM62.8592 39.3095L91.16 29.8612L89.26 24.17L60.9592 33.6183L62.8592 39.3095ZM90.291 30.0145L91.917 29.9706L91.7549 23.9728L90.1289 24.0167L90.291 30.0145ZM88.8771 26.4762L78.1545 90.5045L84.0721 91.4955L94.7947 27.4672L88.8771 26.4762ZM150.459 43.7588L147.467 43.5378L147.466 43.5495L147.466 43.5611L150.459 43.7588ZM139.604 58.3047L138.24 55.633L133.845 57.8776L137.861 60.7459L139.604 58.3047ZM146.592 73.0264L143.599 72.823L143.598 72.8327L146.592 73.0264ZM139.341 86.957L137.521 84.5722L137.513 84.578L139.341 86.957ZM122.861 91.8789L122.915 88.8794L122.903 88.8792L122.892 88.8791L122.861 91.8789ZM108.184 86.7373L110.233 84.5465L110.224 84.5376L110.214 84.5288L108.184 86.7373ZM103.306 73.7295L106.298 73.9432L106.299 73.9248L106.3 73.9064L103.306 73.7295ZM115.83 57.7773L117.095 60.4977L121.553 58.4249L117.671 55.4084L115.83 57.7773ZM109.766 44.5059L106.77 44.3408L106.77 44.3457L109.766 44.5059ZM121.06 28.2461L122.285 30.9846L122.296 30.9796L121.06 28.2461ZM132.178 26.0928L132.113 29.0921L132.118 29.0922L132.178 26.0928ZM145.977 31.1465L143.884 33.2959L143.893 33.305L145.977 31.1465ZM132.354 71.8398L135.328 72.2321L135.331 72.2079L135.334 72.1837L132.354 71.8398ZM131.255 66.2148L128.751 67.8674L128.762 67.8847L128.774 67.9018L131.255 66.2148ZM126.816 63.9297L126.905 60.931L126.894 60.9307L126.816 63.9297ZM120.972 66.3027L123.074 68.4431L123.083 68.4336L123.093 68.4241L120.972 66.3027ZM118.027 72.543L115.051 72.1667L115.048 72.1911L115.045 72.2157L118.027 72.543ZM119.17 78.2998L116.729 80.0435L116.749 80.0719L116.77 80.0998L119.17 78.2998ZM123.74 80.4971L123.652 83.4958L123.659 83.496L123.74 80.4971ZM135.869 44.5498L138.849 44.9003L138.85 44.8863L138.852 44.8723L135.869 44.5498ZM134.946 39.4082L132.441 41.0591L132.45 41.0724L132.459 41.0856L134.946 39.4082ZM131.211 37.4746L131.119 40.4732L131.165 40.4746H131.211V37.4746ZM126.377 39.54L124.167 37.5108L124.156 37.5232L124.145 37.5357L126.377 39.54ZM124.004 45.2529L121.027 44.8853L121.024 44.9079L121.021 44.9305L124.004 45.2529ZM124.927 50.5703L122.374 52.1456L122.381 52.158L122.389 52.1702L124.927 50.5703ZM128.706 52.5918L128.801 49.5933L128.754 49.5918H128.706V52.5918ZM147.466 43.5611C147.142 48.4623 144.379 52.4977 138.24 55.633L140.969 60.9764C148.483 57.139 152.956 51.4771 153.452 43.9565L147.466 43.5611ZM137.861 60.7459C139.944 62.2336 141.425 63.9889 142.39 66.0117L147.806 63.4297C146.368 60.4134 144.187 57.8914 141.348 55.8635L137.861 60.7459ZM142.39 66.0117C143.351 68.0274 143.772 70.2755 143.599 72.823L149.585 73.2298C149.822 69.7421 149.247 66.4531 147.806 63.4297L142.39 66.0117ZM143.598 72.8327C143.27 77.9083 141.243 81.7312 137.521 84.5722L141.161 89.3419C146.344 85.386 149.152 79.9218 149.586 73.22L143.598 72.8327ZM137.513 84.578C133.72 87.4923 128.923 88.9867 122.915 88.8794L122.808 94.8784C129.924 95.0055 136.114 93.2186 141.168 89.3361L137.513 84.578ZM122.892 88.8791C120.312 88.8527 117.913 88.4588 115.68 87.7145L113.783 93.4066C116.647 94.3615 119.669 94.8465 122.831 94.8788L122.892 88.8791ZM115.68 87.7145C113.508 86.9904 111.709 85.9275 110.233 84.5465L106.134 88.9281C108.291 90.9456 110.857 92.4315 113.783 93.4066L115.68 87.7145ZM110.214 84.5288C107.316 81.8644 105.976 78.4505 106.298 73.9432L100.313 73.5158C99.8735 79.6725 101.786 84.9305 106.153 88.9458L110.214 84.5288ZM106.3 73.9064C106.628 68.3638 109.851 63.8657 117.095 60.4977L114.565 55.057C105.93 59.0718 100.804 65.2085 100.311 73.5526L106.3 73.9064ZM117.671 55.4084C114.11 52.6416 112.521 49.1622 112.761 44.6661L106.77 44.3457C106.424 50.8065 108.878 56.1748 113.989 60.1463L117.671 55.4084ZM112.761 44.671C112.938 41.4667 113.87 38.7542 115.51 36.4401L110.613 32.972C108.268 36.283 107.004 40.1036 106.77 44.3408L112.761 44.671ZM115.51 36.4401C117.172 34.0931 119.404 32.2734 122.285 30.9845L119.834 25.5076C116.036 27.207 112.935 29.694 110.613 32.972L115.51 36.4401ZM122.296 30.9796C125.219 29.6577 128.475 29.013 132.113 29.0921L132.243 23.0935C127.794 22.9968 123.638 23.7877 119.824 25.5126L122.296 30.9796ZM132.118 29.0922C137.42 29.1982 141.22 30.702 143.884 33.2959L148.069 28.9971C144.054 25.087 138.654 23.2217 132.238 23.0934L132.118 29.0922ZM143.893 33.305C146.549 35.8687 147.79 39.1655 147.467 43.5378L153.451 43.9798C153.89 38.0396 152.142 32.9282 148.06 28.988L143.893 33.305ZM135.334 72.1837C135.655 69.4015 135.245 66.7471 133.736 64.5279L128.774 67.9018C129.257 68.6123 129.58 69.7079 129.373 71.496L135.334 72.1837ZM133.759 64.5623C132.175 62.1622 129.72 61.0138 126.905 60.931L126.728 66.9284C127.897 66.9628 128.402 67.3378 128.751 67.8674L133.759 64.5623ZM126.894 60.9307C123.79 60.8501 121.054 61.9776 118.85 64.1814L123.093 68.4241C124.17 67.3467 125.331 66.8921 126.739 66.9287L126.894 60.9307ZM118.87 64.1624C116.691 66.3021 115.447 69.0312 115.051 72.1667L121.004 72.9193C121.252 70.957 121.971 69.526 123.074 68.4431L118.87 64.1624ZM115.045 72.2157C114.731 75.0784 115.138 77.8165 116.729 80.0435L121.611 76.5561C121.151 75.912 120.796 74.8123 121.009 72.8703L115.045 72.2157ZM116.77 80.0998C118.451 82.3406 120.885 83.4144 123.652 83.4958L123.828 77.4984C122.611 77.4626 121.999 77.0715 121.57 76.4998L116.77 80.0998ZM123.659 83.496C126.678 83.5776 129.345 82.4787 131.511 80.3526L127.307 76.0712C126.25 77.1092 125.138 77.5338 123.821 77.4982L123.659 83.496ZM131.511 80.3526C133.687 78.2164 134.906 75.4307 135.328 72.2321L129.379 71.4476C129.098 73.5811 128.354 75.0433 127.307 76.0712L131.511 80.3526ZM138.852 44.8723C139.13 42.3007 138.821 39.7874 137.434 37.7308L132.459 41.0856C132.771 41.5485 133.077 42.4629 132.887 44.2274L138.852 44.8723ZM137.451 37.7573C136.006 35.5649 133.785 34.4746 131.211 34.4746V40.4746C131.918 40.4746 132.187 40.6734 132.441 41.0591L137.451 37.7573ZM131.303 34.476C128.504 34.3899 126.06 35.4499 124.167 37.5108L128.587 41.5693C129.331 40.7591 130.109 40.4421 131.119 40.4732L131.303 34.476ZM124.145 37.5357C122.357 39.5268 121.377 42.0504 121.027 44.8853L126.981 45.6205C127.217 43.7093 127.819 42.4243 128.609 41.5444L124.145 37.5357ZM121.021 44.9305C120.74 47.5322 121.07 50.0324 122.374 52.1456L127.48 48.995C127.085 48.3543 126.799 47.3096 126.987 45.5754L121.021 44.9305ZM122.389 52.1702C123.819 54.4389 126.066 55.5918 128.706 55.5918V49.5918C128.006 49.5918 127.733 49.397 127.465 48.9704L122.389 52.1702ZM128.611 55.5903C131.405 55.679 133.818 54.5607 135.682 52.4893L131.222 48.4755C130.45 49.3338 129.698 49.6218 128.801 49.5933L128.611 55.5903ZM135.682 52.4893C137.516 50.4515 138.503 47.8387 138.849 44.9003L132.89 44.1993C132.649 46.2414 132.025 47.5837 131.222 48.4755L135.682 52.4893Z" fill="#EF3829"/>
</g>
<defs>
<filter id="filter0_f" x="27" y="81.8613" width="156" height="26" filterUnits="userSpaceOnUse" color-interpolation-filters="sRGB">
<feFlood flood-opacity="0" result="BackgroundImageFix"/>
<feBlend mode="normal" in="SourceGraphic" in2="BackgroundImageFix" result="shape"/>
<feGaussianBlur stdDeviation="5" result="effect1_foregroundBlur"/>
</filter>
<clipPath id="clip0">
<rect width="277" height="105.82" fill="white"/>
</clipPath>
</defs>
</svg>
