<svg width="277" height="106" viewBox="0 0 277 106" fill="none" xmlns="http://www.w3.org/2000/svg">
<g clip-path="url(#clip0)">
<g clip-path="url(#clip1)">
<path d="M151.218 15.0728C152.005 15.2798 152.596 15.68 153.217 16.3837C153.777 17.0323 154.08 17.8602 154.05 18.6882V18.702V18.7158C154.05 18.7158 154.05 18.7296 154.065 18.7296C154.065 18.7296 154.065 18.7434 154.08 18.7434L154.096 18.7572C154.096 18.7572 154.111 18.7572 154.111 18.771H154.126H154.141C154.186 18.771 154.217 18.7434 154.217 18.702C154.217 18.702 154.217 18.702 154.217 18.6882C154.186 17.874 154.489 17.0323 155.05 16.3837C155.656 15.6662 156.262 15.2798 157.049 15.0728C157.095 15.059 157.11 15.0314 157.11 14.99C157.11 14.9486 157.079 14.921 157.049 14.921C156.246 14.7416 155.762 14.3138 155.247 13.817C154.747 13.3341 154.398 12.6993 154.232 11.9127C154.232 11.9127 154.232 11.9127 154.232 11.8989C154.232 11.8851 154.232 11.8851 154.217 11.8851C154.217 11.8851 154.217 11.8851 154.217 11.8713L154.202 11.8575C154.202 11.8575 154.202 11.8575 154.186 11.8575C154.186 11.8575 154.171 11.8575 154.171 11.8438H154.156H154.141C154.141 11.8438 154.126 11.8438 154.126 11.8575C154.126 11.8575 154.126 11.8575 154.111 11.8575L154.096 11.8713C154.096 11.8713 154.096 11.8713 154.096 11.8851C154.096 11.8851 154.096 11.8989 154.08 11.8989C154.08 11.8989 154.08 11.8989 154.08 11.9127C153.914 12.6993 153.565 13.3479 153.066 13.817C152.52 14.3138 152.02 14.7416 151.218 14.921C151.187 14.921 151.157 14.9486 151.157 14.99C151.157 15.0314 151.187 15.059 151.218 15.0728Z" fill="#954EDE"/>
</g>
<path d="M133.988 12.8834C133.801 12.9069 133.613 12.9771 133.449 13.0707C133.192 12.5557 132.607 12.2513 131.998 12.345C131.647 12.3918 131.342 12.5791 131.132 12.8366C130.851 12.6727 130.499 12.5791 130.148 12.6493C129.797 12.6961 129.493 12.8834 129.282 13.141C128.978 12.9537 128.65 12.8834 128.275 12.9303C127.526 13.0473 127.011 13.7263 127.105 14.4286C127.315 15.7163 127.386 16.325 127.432 16.5825C127.198 16.8635 127.081 17.2381 127.152 17.6127L127.479 19.6495C127.69 21.0308 128.65 22.2014 129.984 22.7867L131.061 29.6464C131.108 29.8805 131.319 30.021 131.576 29.9976C131.811 29.9507 131.998 29.74 131.951 29.5059L130.851 22.4355C130.827 22.295 130.734 22.1546 130.57 22.1077C129.399 21.6863 128.556 20.703 128.369 19.5324L128.041 17.4722C128.018 17.3083 128.065 17.1678 128.205 17.0508C128.205 17.0508 128.205 17.0508 128.229 17.0508C128.299 17.0039 128.392 16.9571 128.463 16.9337L130.851 16.5591C131.132 16.5123 131.366 16.6996 131.413 16.9337C131.459 17.1912 131.272 17.4254 130.991 17.4722L129.54 17.7063C129.423 17.7297 129.329 17.7765 129.259 17.8702C129.188 17.9638 129.165 18.0809 129.165 18.1745L129.376 19.5558C129.399 19.7197 129.54 19.8602 129.703 19.8836L131.857 20.3753C131.928 20.3987 131.974 20.3987 132.045 20.3753C132.209 20.3518 132.372 20.2348 132.419 20.0709C132.489 19.8368 132.349 19.6261 132.091 19.5558L130.219 19.111L130.101 18.4087L131.108 18.2448C131.74 18.1511 132.209 17.6595 132.279 17.0976C132.419 17.121 132.583 17.121 132.747 17.0976C133.098 17.0508 133.403 16.8635 133.613 16.6059C133.894 16.7698 134.245 16.8635 134.597 16.7932C134.76 16.7698 134.924 16.6996 135.065 16.6294L135.346 18.4321C135.603 20.1411 134.362 21.7331 132.56 22.0375C132.326 22.0843 132.138 22.295 132.185 22.5292C132.232 22.7633 132.443 22.9037 132.7 22.8803C133.332 22.7867 133.894 22.5526 134.386 22.2482L135.439 28.8972C135.486 29.1313 135.697 29.2718 135.954 29.2484C136.189 29.2016 136.376 28.9908 136.329 28.7567L135.205 21.5927C136.025 20.7264 136.446 19.5324 136.259 18.315L135.556 13.8902C135.439 13.2346 134.737 12.7664 133.988 12.8834ZM128.275 16.1143C128.205 15.6226 128.088 14.85 127.994 14.2882C127.948 14.0306 128.135 13.7965 128.416 13.7497C128.697 13.7029 128.931 13.8902 128.978 14.1243L129.259 15.9504L128.322 16.0909C128.322 16.1143 128.299 16.1143 128.275 16.1143ZM130.71 15.7397L130.148 15.8333L129.867 14.0072C129.821 13.7497 130.008 13.5156 130.289 13.4687C130.57 13.4219 130.804 13.6092 130.851 13.8433L131.155 15.7163C130.991 15.7163 130.851 15.7163 130.71 15.7397ZM132.63 16.325C132.349 16.3718 132.115 16.1845 132.068 15.9504L131.717 13.7029C131.67 13.4453 131.857 13.2112 132.138 13.1644C132.419 13.1176 132.653 13.3049 132.7 13.539L133.051 15.7865C133.075 16.0441 132.887 16.3016 132.63 16.325ZM134.479 16.0441C134.199 16.0909 133.964 15.9036 133.918 15.6695L133.683 14.2413C133.66 13.9838 133.847 13.7497 134.128 13.7029C134.409 13.656 134.643 13.8433 134.69 14.0775L134.924 15.5056C134.948 15.7631 134.76 15.9972 134.479 16.0441Z" fill="#FFDFFF"/>
<path d="M144.687 5.55559L144.43 3.86993C144.313 3.07392 143.517 2.51204 142.65 2.65251C142.393 2.69933 142.159 2.79298 141.971 2.93345C141.714 2.30133 141.011 1.90333 140.286 2.02039C139.841 2.09062 139.49 2.32474 139.256 2.6291C138.928 2.39498 138.506 2.30133 138.085 2.37156C137.64 2.4418 137.289 2.67592 137.055 2.98027C136.727 2.74616 136.306 2.65251 135.884 2.72274C135.041 2.86322 134.433 3.6124 134.573 4.43181C134.831 6.04724 134.924 6.74959 134.971 7.05395C134.69 7.38172 134.55 7.80313 134.62 8.22455L134.948 10.6594C135.205 12.2982 136.329 13.7029 137.944 14.3585L140.122 28.2417C140.169 28.4759 140.379 28.6163 140.637 28.5929C140.871 28.5461 141.058 28.3354 141.011 28.1013L138.787 13.9839C138.764 13.8434 138.67 13.7029 138.506 13.6561C137.078 13.141 136.048 11.947 135.837 10.5189L135.463 8.08407C135.439 7.87337 135.51 7.66266 135.674 7.49878C135.674 7.49878 135.697 7.49878 135.697 7.47536C135.791 7.40513 135.908 7.3583 136.025 7.33489L138.858 6.89007C139.232 6.84324 139.56 7.07736 139.63 7.40513C139.677 7.75631 139.419 8.08407 139.068 8.1309L137.336 8.41184C137.219 8.43525 137.125 8.48208 137.055 8.57572C136.985 8.66937 136.961 8.78643 136.961 8.88008L137.219 10.5189C137.242 10.6828 137.383 10.8233 137.546 10.8467L140.122 11.4554C140.192 11.4788 140.239 11.4788 140.309 11.4554C140.473 11.432 140.637 11.3149 140.684 11.151C140.754 10.9169 140.613 10.7062 140.356 10.636L138.062 10.0975L137.921 9.13761L139.209 8.9269C139.958 8.80984 140.496 8.22455 140.543 7.52219C140.731 7.56901 140.941 7.56901 141.152 7.5456C141.597 7.47536 141.948 7.24124 142.182 6.93689C142.51 7.17101 142.931 7.26466 143.353 7.19442C143.587 7.1476 143.821 7.07736 144.008 6.93689L144.359 9.23126C144.687 11.2915 143.165 13.2815 140.965 13.6093C140.731 13.6561 140.543 13.8668 140.59 14.1009C140.637 14.3351 140.848 14.4755 141.105 14.4521C141.878 14.3351 142.58 14.0307 143.189 13.6327L145.343 27.3521C145.389 27.5862 145.6 27.7267 145.858 27.7033C146.092 27.6564 146.279 27.4457 146.232 27.2116L143.985 12.9538C144.968 11.947 145.483 10.5423 145.249 9.09079L144.687 5.55559ZM135.744 6.53889C135.65 5.95359 135.51 4.9937 135.393 4.26793C135.346 3.91675 135.58 3.58898 135.954 3.54216C136.329 3.49534 136.657 3.72946 136.727 4.05722L137.078 6.32818L135.884 6.51547C135.837 6.51547 135.791 6.53889 135.744 6.53889ZM138.741 6.07065L137.968 6.18771L137.617 3.91675C137.57 3.56557 137.827 3.23781 138.179 3.19098C138.553 3.14416 138.881 3.37828 138.951 3.70604L139.326 6.07065C139.139 6.04724 138.928 6.04724 138.741 6.07065ZM141.011 6.77301C140.637 6.81983 140.309 6.58571 140.239 6.25794L139.841 3.58898C139.794 3.23781 140.052 2.91004 140.403 2.86322C140.777 2.81639 141.105 3.05051 141.175 3.37828L141.597 6.04724C141.644 6.39842 141.386 6.72618 141.011 6.77301ZM143.236 6.42183C142.861 6.46865 142.533 6.23453 142.463 5.90677L142.205 4.22111C142.159 3.86993 142.416 3.54216 142.767 3.49534C143.142 3.44851 143.47 3.68263 143.54 4.0104L143.797 5.69606C143.868 6.04724 143.61 6.375 143.236 6.42183Z" fill="#FFDFFF"/>
<path d="M132.894 12.8834C132.707 12.9069 132.519 12.9771 132.356 13.0707C132.098 12.5557 131.513 12.2513 130.904 12.345C130.553 12.3918 130.249 12.5791 130.038 12.8366C129.757 12.6727 129.406 12.5791 129.055 12.6493C128.703 12.6961 128.399 12.8834 128.188 13.141C127.884 12.9537 127.556 12.8834 127.182 12.9303C126.432 13.0473 125.917 13.7263 126.011 14.4286C126.222 15.7163 126.292 16.325 126.339 16.5825C126.105 16.8635 125.988 17.2381 126.058 17.6127L126.386 19.6495C126.596 21.0308 127.556 22.2014 128.891 22.7867L129.968 29.6464C130.014 29.8805 130.225 30.021 130.483 29.9976C130.717 29.9507 130.904 29.74 130.857 29.5059L129.757 22.4355C129.733 22.295 129.64 22.1546 129.476 22.1077C128.305 21.6863 127.463 20.703 127.275 19.5324L126.947 17.4722C126.924 17.3083 126.971 17.1678 127.111 17.0508C127.111 17.0508 127.111 17.0508 127.135 17.0508C127.205 17.0039 127.299 16.9571 127.369 16.9337L129.757 16.5591C130.038 16.5123 130.272 16.6996 130.319 16.9337C130.366 17.1912 130.178 17.4254 129.897 17.4722L128.446 17.7063C128.329 17.7297 128.235 17.7765 128.165 17.8702C128.095 17.9638 128.071 18.0809 128.071 18.1745L128.282 19.5558C128.305 19.7197 128.446 19.8602 128.61 19.8836L130.764 20.3753C130.834 20.3987 130.881 20.3987 130.951 20.3753C131.115 20.3518 131.279 20.2348 131.325 20.0709C131.396 19.8368 131.255 19.6261 130.998 19.5558L129.125 19.111L129.008 18.4087L130.014 18.2448C130.647 18.1511 131.115 17.6595 131.185 17.0976C131.325 17.121 131.489 17.121 131.653 17.0976C132.004 17.0508 132.309 16.8635 132.519 16.6059C132.8 16.7698 133.152 16.8635 133.503 16.7932C133.667 16.7698 133.831 16.6996 133.971 16.6294L134.252 18.4321C134.51 20.1411 133.269 21.7331 131.466 22.0375C131.232 22.0843 131.045 22.295 131.091 22.5292C131.138 22.7633 131.349 22.9037 131.606 22.8803C132.239 22.7867 132.8 22.5526 133.292 22.2482L134.346 28.8972C134.392 29.1313 134.603 29.2718 134.861 29.2484C135.095 29.2016 135.282 28.9908 135.235 28.7567L134.112 21.5927C134.931 20.7264 135.352 19.5324 135.165 18.315L134.463 13.8902C134.346 13.2346 133.643 12.7664 132.894 12.8834ZM127.182 16.1143C127.111 15.6226 126.994 14.85 126.901 14.2882C126.854 14.0306 127.041 13.7965 127.322 13.7497C127.603 13.7029 127.837 13.8902 127.884 14.1243L128.165 15.9504L127.228 16.0909C127.228 16.1143 127.205 16.1143 127.182 16.1143ZM129.616 15.7397L129.055 15.8333L128.774 14.0072C128.727 13.7497 128.914 13.5156 129.195 13.4687C129.476 13.4219 129.71 13.6092 129.757 13.8433L130.061 15.7163C129.897 15.7163 129.757 15.7163 129.616 15.7397ZM131.536 16.325C131.255 16.3718 131.021 16.1845 130.974 15.9504L130.623 13.7029C130.576 13.4453 130.764 13.2112 131.045 13.1644C131.325 13.1176 131.56 13.3049 131.606 13.539L131.958 15.7865C131.981 16.0441 131.794 16.3016 131.536 16.325ZM133.386 16.0441C133.105 16.0909 132.871 15.9036 132.824 15.6695L132.59 14.2413C132.566 13.9838 132.754 13.7497 133.035 13.7029C133.316 13.656 133.55 13.8433 133.596 14.0775L133.831 15.5056C133.854 15.7631 133.667 15.9972 133.386 16.0441Z" fill="#954EDE"/>
<path d="M143.593 5.55559L143.336 3.86993C143.219 3.07392 142.423 2.51204 141.557 2.65251C141.299 2.69933 141.065 2.79298 140.878 2.93345C140.62 2.30133 139.918 1.90333 139.192 2.02039C138.747 2.09062 138.396 2.32474 138.162 2.6291C137.834 2.39498 137.413 2.30133 136.991 2.37156C136.546 2.4418 136.195 2.67592 135.961 2.98027C135.633 2.74616 135.212 2.65251 134.79 2.72274C133.948 2.86322 133.339 3.6124 133.479 4.43181C133.737 6.04724 133.831 6.74959 133.877 7.05395C133.596 7.38172 133.456 7.80313 133.526 8.22455L133.854 10.6594C134.112 12.2982 135.235 13.7029 136.851 14.3585L139.028 28.2417C139.075 28.4759 139.286 28.6163 139.543 28.5929C139.777 28.5461 139.965 28.3354 139.918 28.1013L137.694 13.9839C137.67 13.8434 137.577 13.7029 137.413 13.6561C135.985 13.141 134.954 11.947 134.744 10.5189L134.369 8.08407C134.346 7.87337 134.416 7.66266 134.58 7.49878C134.58 7.49878 134.603 7.49878 134.603 7.47536C134.697 7.40513 134.814 7.3583 134.931 7.33489L137.764 6.89007C138.138 6.84324 138.466 7.07736 138.536 7.40513C138.583 7.75631 138.326 8.08407 137.975 8.1309L136.242 8.41184C136.125 8.43525 136.031 8.48208 135.961 8.57572C135.891 8.66937 135.867 8.78643 135.867 8.88008L136.125 10.5189C136.148 10.6828 136.289 10.8233 136.453 10.8467L139.028 11.4554C139.098 11.4788 139.145 11.4788 139.215 11.4554C139.379 11.432 139.543 11.3149 139.59 11.151C139.66 10.9169 139.52 10.7062 139.262 10.636L136.968 10.0975L136.827 9.13761L138.115 8.9269C138.864 8.80984 139.403 8.22455 139.449 7.52219C139.637 7.56901 139.847 7.56901 140.058 7.5456C140.503 7.47536 140.854 7.24124 141.088 6.93689C141.416 7.17101 141.837 7.26466 142.259 7.19442C142.493 7.1476 142.727 7.07736 142.914 6.93689L143.266 9.23126C143.593 11.2915 142.072 13.2815 139.871 13.6093C139.637 13.6561 139.449 13.8668 139.496 14.1009C139.543 14.3351 139.754 14.4755 140.011 14.4521C140.784 14.3351 141.486 14.0307 142.095 13.6327L144.249 27.3521C144.296 27.5862 144.506 27.7267 144.764 27.7033C144.998 27.6564 145.185 27.4457 145.139 27.2116L142.891 12.9538C143.874 11.947 144.389 10.5423 144.155 9.09079L143.593 5.55559ZM134.65 6.53889C134.556 5.95359 134.416 4.9937 134.299 4.26793C134.252 3.91675 134.486 3.58898 134.861 3.54216C135.235 3.49534 135.563 3.72946 135.633 4.05722L135.985 6.32818L134.79 6.51547C134.744 6.51547 134.697 6.53889 134.65 6.53889ZM137.647 6.07065L136.874 6.18771L136.523 3.91675C136.476 3.56557 136.734 3.23781 137.085 3.19098C137.459 3.14416 137.787 3.37828 137.857 3.70604L138.232 6.07065C138.045 6.04724 137.834 6.04724 137.647 6.07065ZM139.918 6.77301C139.543 6.81983 139.215 6.58571 139.145 6.25794L138.747 3.58898C138.7 3.23781 138.958 2.91004 139.309 2.86322C139.684 2.81639 140.011 3.05051 140.082 3.37828L140.503 6.04724C140.55 6.39842 140.292 6.72618 139.918 6.77301ZM142.142 6.42183C141.767 6.46865 141.439 6.23453 141.369 5.90677L141.112 4.22111C141.065 3.86993 141.322 3.54216 141.674 3.49534C142.048 3.44851 142.376 3.68263 142.446 4.0104L142.704 5.69606C142.774 6.04724 142.516 6.375 142.142 6.42183Z" fill="#954EDE"/>
<g filter="url(#filter0_f)">
<ellipse cx="101" cy="94" rx="68" ry="3" fill="#C4C4C4" fill-opacity="0.5"/>
</g>
<path d="M177.71 88.3779C176.909 89.3154 175.742 90.043 174.209 90.5605C172.676 91.0684 170.977 91.3076 169.111 91.2783C167.324 91.2588 165.815 90.8096 164.585 89.9307C163.354 89.0518 162.476 87.8262 161.948 86.2539C161.421 84.6816 161.279 82.9092 161.523 80.9365L161.641 80.0576C162.09 76.7471 163.252 74.125 165.127 72.1914C167.012 70.2578 169.316 69.3154 172.041 69.3643C174.424 69.4033 176.255 70.043 177.534 71.2832C178.813 72.5234 179.526 74.3154 179.673 76.6592L174.868 76.6445C174.8 75.502 174.517 74.667 174.019 74.1396C173.53 73.6123 172.832 73.334 171.924 73.3047C170.576 73.2559 169.463 73.7881 168.584 74.9014C167.705 76.0049 167.104 77.5869 166.782 79.6475C166.509 81.4053 166.411 82.7725 166.489 83.749C166.636 86.1025 167.695 87.2939 169.668 87.3232C170.859 87.3428 171.904 87.0547 172.803 86.459L173.462 83.1338H169.99L170.605 79.6035H179.087L177.71 88.3779ZM185.356 91H180.347L184.053 69.6719H189.048L185.356 91ZM206.626 88.3779C205.825 89.3154 204.658 90.043 203.125 90.5605C201.592 91.0684 199.893 91.3076 198.027 91.2783C196.24 91.2588 194.731 90.8096 193.501 89.9307C192.271 89.0518 191.392 87.8262 190.864 86.2539C190.337 84.6816 190.195 82.9092 190.439 80.9365L190.557 80.0576C191.006 76.7471 192.168 74.125 194.043 72.1914C195.928 70.2578 198.232 69.3154 200.957 69.3643C203.34 69.4033 205.171 70.043 206.45 71.2832C207.729 72.5234 208.442 74.3154 208.589 76.6592L203.784 76.6445C203.716 75.502 203.433 74.667 202.935 74.1396C202.446 73.6123 201.748 73.334 200.84 73.3047C199.492 73.2559 198.379 73.7881 197.5 74.9014C196.621 76.0049 196.021 77.5869 195.698 79.6475C195.425 81.4053 195.327 82.7725 195.405 83.749C195.552 86.1025 196.611 87.2939 198.584 87.3232C199.775 87.3428 200.82 87.0547 201.719 86.459L202.378 83.1338H198.906L199.521 79.6035H208.003L206.626 88.3779ZM221.45 87.0156H214.639L212.749 91H207.227L218.521 69.6719H223.237L227.178 91H221.963L221.45 87.0156ZM216.514 83.0459H220.938L220 75.6924L216.514 83.0459ZM240.625 85.2285C240.84 84.125 240.244 83.2705 238.838 82.665L236.436 81.6689C233.066 80.1553 231.465 78.0947 231.631 75.4873C231.699 74.2959 232.109 73.2363 232.861 72.3086C233.613 71.3711 234.653 70.6436 235.981 70.126C237.31 69.6084 238.76 69.3594 240.332 69.3789C242.441 69.418 244.136 70.0332 245.415 71.2246C246.704 72.416 247.339 74.0127 247.319 76.0146H242.339C242.368 75.1943 242.192 74.54 241.812 74.0518C241.44 73.5537 240.825 73.2949 239.966 73.2754C239.126 73.2559 238.384 73.4512 237.739 73.8613C237.095 74.2715 236.714 74.8232 236.597 75.5166C236.411 76.4932 237.134 77.2939 238.765 77.9189C240.405 78.5439 241.597 79.0811 242.339 79.5303C244.673 80.9268 245.767 82.8115 245.62 85.1846C245.542 86.415 245.146 87.4941 244.434 88.4219C243.721 89.3496 242.729 90.0674 241.46 90.5752C240.2 91.083 238.784 91.3271 237.212 91.3076C236.06 91.2881 234.99 91.1074 234.004 90.7656C233.018 90.4238 232.173 89.9258 231.47 89.2715C230.044 87.9531 229.36 86.2197 229.419 84.0713L234.443 84.0859C234.385 85.1797 234.595 86.0098 235.073 86.5762C235.552 87.1328 236.357 87.4111 237.49 87.4111C238.33 87.4111 239.028 87.2207 239.585 86.8398C240.151 86.4492 240.498 85.9121 240.625 85.2285Z" fill="#BBBBBB"/>
<path d="M103.022 92H59.6484L61.2305 81.8047L83.9941 60.667L87.1143 57.5469C92.0068 52.625 94.248 47.9814 93.8379 43.6162C93.5156 40.2178 91.7578 38.4746 88.5645 38.3867C86.3086 38.3281 84.3896 39.251 82.8076 41.1553C81.2549 43.0303 80.2881 45.4912 79.9072 48.5381L65.5371 48.626C65.7715 44.6123 66.9873 40.9502 69.1846 37.6396C71.3818 34.2998 74.3115 31.6924 77.9736 29.8174C81.665 27.9424 85.5908 27.0195 89.751 27.0488C95.9912 27.166 100.825 28.8652 104.253 32.1465C107.681 35.3984 109.175 39.8076 108.735 45.374C108.472 48.6553 107.388 51.8486 105.483 54.9541C103.608 58.0596 100.869 61.3262 97.2656 64.7539L90.5859 70.9062L80.6543 80.4863L104.824 80.5742L103.022 92ZM132.554 92.8789C128.921 92.791 125.742 91.9414 123.018 90.3301C120.322 88.6895 118.242 86.3018 116.777 83.167C115.312 80.0029 114.521 76.4141 114.404 72.4004C114.316 70.2324 114.404 68.0498 114.668 65.8525L116.338 54.6904C117.686 45.6963 120.571 38.8262 124.995 34.0801C129.419 29.3047 135.059 26.9902 141.914 27.1367C147.48 27.2539 151.831 29.1289 154.966 32.7617C158.13 36.3945 159.829 41.3457 160.063 47.6152C160.122 49.7832 160.02 51.9658 159.756 54.1631L157.998 65.5449C156.592 74.6562 153.677 81.5264 149.253 86.1553C144.858 90.7842 139.292 93.0254 132.554 92.8789ZM145.605 52.1855C145.869 50.1348 146.016 48.333 146.045 46.7803C146.045 41.4189 144.346 38.6504 140.947 38.4746C135.732 38.2109 132.495 42.6787 131.235 51.8779L128.906 67.6982C128.613 70.1299 128.467 71.9316 128.467 73.1035C128.32 78.5234 130.005 81.3359 133.521 81.541C138.823 81.8047 142.09 77.2197 143.32 67.7861L145.605 52.1855Z" fill="#EF3829"/>
<path d="M103.022 92V95H105.586L105.986 92.4673L103.022 92ZM59.6484 92L56.6839 91.54L56.147 95H59.6484V92ZM61.2305 81.8047L59.1891 79.6063L58.4257 80.3152L58.2659 81.3447L61.2305 81.8047ZM83.9941 60.667L86.0355 62.8654L86.0762 62.8276L86.1155 62.7883L83.9941 60.667ZM87.1143 57.5469L89.2356 59.6682L89.2419 59.6619L87.1143 57.5469ZM93.8379 43.6162L96.8247 43.3356L96.8245 43.333L93.8379 43.6162ZM88.5645 38.3867L88.647 35.3879L88.6423 35.3877L88.5645 38.3867ZM82.8076 41.1553L80.5 39.2382L80.497 39.2418L82.8076 41.1553ZM79.9072 48.5381L79.9256 51.538L82.5576 51.5219L82.8841 48.9102L79.9072 48.5381ZM65.5371 48.626L62.5422 48.4511L62.3557 51.6455L65.5555 51.6259L65.5371 48.626ZM69.1846 37.6396L71.6841 39.2987L71.6908 39.2885L69.1846 37.6396ZM77.9736 29.8174L76.615 27.1426L76.6064 27.147L77.9736 29.8174ZM89.751 27.0488L89.8073 24.0494L89.7897 24.049L89.7721 24.0489L89.751 27.0488ZM104.253 32.1465L102.178 34.3136L102.188 34.3229L104.253 32.1465ZM108.735 45.374L111.726 45.6143L111.726 45.6101L108.735 45.374ZM105.483 54.9541L102.926 53.3858L102.921 53.3947L102.915 53.4035L105.483 54.9541ZM97.2656 64.7539L99.2981 66.9605L99.3158 66.9442L99.3333 66.9276L97.2656 64.7539ZM90.5859 70.9062L88.5535 68.6996L88.5281 68.723L88.5032 68.7471L90.5859 70.9062ZM80.6543 80.4863L78.5715 78.3271L73.2509 83.4594L80.6434 83.4863L80.6543 80.4863ZM104.824 80.5742L107.788 81.0415L108.332 77.587L104.835 77.5742L104.824 80.5742ZM103.022 89H59.6484V95H103.022V89ZM62.613 92.46L64.195 82.2647L58.2659 81.3447L56.6839 91.54L62.613 92.46ZM63.2718 84.0031L86.0355 62.8654L81.9528 58.4686L59.1891 79.6063L63.2718 84.0031ZM86.1155 62.7883L89.2356 59.6682L84.9929 55.4256L81.8728 58.5457L86.1155 62.7883ZM89.2419 59.6619C94.398 54.4748 97.3567 48.9975 96.8247 43.3356L90.851 43.8969C91.1394 46.9654 89.6156 50.7752 84.9866 55.4319L89.2419 59.6619ZM96.8245 43.333C96.6221 41.1982 95.9279 39.1546 94.3903 37.6298C92.8264 36.079 90.7769 35.4465 88.647 35.3879L88.4819 41.3856C89.5453 41.4149 89.9715 41.6979 90.1654 41.8902C90.3856 42.1086 90.7315 42.6358 90.8513 43.8994L96.8245 43.333ZM88.6423 35.3877C85.3701 35.3027 82.6042 36.7054 80.5 39.2382L85.1152 43.0723C86.1751 41.7965 87.2471 41.3535 88.4866 41.3857L88.6423 35.3877ZM80.497 39.2418C78.4957 41.6585 77.3637 44.6996 76.9304 48.166L82.8841 48.9102C83.2125 46.2828 84.014 44.402 85.1182 43.0687L80.497 39.2418ZM79.8889 45.5381L65.5188 45.626L65.5555 51.6259L79.9256 51.538L79.8889 45.5381ZM68.532 48.8009C68.7358 45.3104 69.784 42.1615 71.6841 39.2986L66.685 35.9807C64.1906 39.7389 62.8071 43.9142 62.5422 48.4511L68.532 48.8009ZM71.6908 39.2885C73.5945 36.3949 76.1263 34.1336 79.3408 32.4877L76.6064 27.147C72.4968 29.2512 69.1691 32.2048 66.6783 35.9908L71.6908 39.2885ZM79.3322 32.4921C82.5942 30.8353 86.0466 30.0228 89.7299 30.0488L89.7721 24.0489C85.1351 24.0162 80.7359 25.0495 76.615 27.1426L79.3322 32.4921ZM89.6946 30.0483C95.4251 30.1559 99.4486 31.7004 102.178 34.3136L106.327 29.9794C102.202 26.03 96.5573 24.1761 89.8073 24.0494L89.6946 30.0483ZM102.188 34.3229C104.837 36.8355 106.127 40.2914 105.745 45.1379L111.726 45.6101C112.222 39.3239 110.525 33.9614 106.318 29.9701L102.188 34.3229ZM105.745 45.1337C105.523 47.896 104.61 50.6393 102.926 53.3858L108.041 56.5224C110.165 53.058 111.42 49.4145 111.726 45.6143L105.745 45.1337ZM102.915 53.4035C101.219 56.2129 98.6739 59.2739 95.198 62.5802L99.3333 66.9276C103.064 63.3785 105.998 59.9062 108.052 56.5047L102.915 53.4035ZM95.2332 62.5473L88.5535 68.6996L92.6184 73.1129L99.2981 66.9605L95.2332 62.5473ZM88.5032 68.7471L78.5715 78.3271L82.7371 82.6455L92.6687 73.0654L88.5032 68.7471ZM80.6434 83.4863L104.813 83.5742L104.835 77.5742L80.6652 77.4863L80.6434 83.4863ZM101.861 80.1069L100.059 91.5327L105.986 92.4673L107.788 81.0415L101.861 80.1069ZM132.554 92.8789L132.481 95.878L132.489 95.8782L132.554 92.8789ZM123.018 90.3301L121.458 92.8927L121.474 92.9026L121.49 92.9123L123.018 90.3301ZM116.777 83.167L114.055 84.4274L114.059 84.437L116.777 83.167ZM114.404 72.4004L117.403 72.3128L117.403 72.2958L117.402 72.2789L114.404 72.4004ZM114.668 65.8525L111.701 65.4087L111.695 65.4518L111.689 65.4951L114.668 65.8525ZM116.338 54.6904L113.371 54.2459L113.371 54.2466L116.338 54.6904ZM124.995 34.0801L127.19 36.1256L127.196 36.1188L124.995 34.0801ZM141.914 27.1367L141.85 30.136L141.851 30.1361L141.914 27.1367ZM154.966 32.7617L152.695 34.7216L152.704 34.7321L154.966 32.7617ZM160.063 47.6152L163.062 47.5342L163.062 47.5187L163.061 47.5032L160.063 47.6152ZM159.756 54.1631L162.721 54.621L162.728 54.5709L162.734 54.5205L159.756 54.1631ZM157.998 65.5449L155.033 65.087L155.033 65.0873L157.998 65.5449ZM149.253 86.1553L147.084 84.0825L147.077 84.0897L149.253 86.1553ZM145.605 52.1855L148.574 52.6203L148.578 52.5943L148.581 52.5681L145.605 52.1855ZM146.045 46.7803L149.044 46.8369L149.045 46.8086V46.7803H146.045ZM140.947 38.4746L141.102 35.4786L141.099 35.4784L140.947 38.4746ZM131.235 51.8779L134.203 52.3149L134.206 52.2999L134.208 52.285L131.235 51.8779ZM128.906 67.6982L125.938 67.2613L125.933 67.3003L125.928 67.3394L128.906 67.6982ZM128.467 73.1035L131.466 73.1846L131.467 73.144V73.1035H128.467ZM133.521 81.541L133.346 84.5359L133.359 84.5367L133.372 84.5373L133.521 81.541ZM143.32 67.7861L140.352 67.3513L140.349 67.3747L140.346 67.3981L143.32 67.7861ZM132.626 89.8798C129.429 89.8024 126.766 89.0617 124.545 87.7479L121.49 92.9123C124.718 94.8211 128.413 95.7796 132.481 95.878L132.626 89.8798ZM124.577 87.7675C122.436 86.4638 120.735 84.5501 119.495 81.8969L114.059 84.437C115.749 88.0534 118.209 90.9152 121.458 92.8927L124.577 87.7675ZM119.5 81.9066C118.229 79.1624 117.51 75.9819 117.403 72.3128L111.406 72.4879C111.533 76.8462 112.396 80.8434 114.055 84.4274L119.5 81.9066ZM117.402 72.2789C117.321 70.274 117.402 68.2515 117.647 66.21L111.689 65.4951C111.407 67.8481 111.312 70.1909 111.407 72.5219L117.402 72.2789ZM117.635 66.2964L119.305 55.1343L113.371 54.2466L111.701 65.4087L117.635 66.2964ZM119.305 55.135C120.597 46.5077 123.315 40.2828 127.19 36.1256L122.801 32.0346C117.828 37.3695 114.774 44.8848 113.371 54.2459L119.305 55.135ZM127.196 36.1188C131.002 32.0098 135.8 30.0068 141.85 30.136L141.978 24.1374C134.317 23.9737 127.835 26.5996 122.794 32.0413L127.196 36.1188ZM141.851 30.1361C146.717 30.2385 150.206 31.838 152.695 34.7216L157.237 30.8018C153.456 26.4198 148.244 24.2693 141.977 24.1374L141.851 30.1361ZM152.704 34.7321C155.297 37.7092 156.849 41.9337 157.066 47.7273L163.061 47.5032C162.809 40.7577 160.963 35.0798 157.228 30.7914L152.704 34.7321ZM157.065 47.6963C157.119 49.7148 157.024 51.7509 156.777 53.8057L162.734 54.5205C163.015 52.1808 163.125 49.8516 163.062 47.5342L157.065 47.6963ZM156.791 53.7052L155.033 65.087L160.963 66.0028L162.721 54.621L156.791 53.7052ZM155.033 65.0873C153.681 73.8473 150.934 80.054 147.084 84.0825L151.422 88.228C156.419 82.9987 159.502 75.4652 160.963 66.0025L155.033 65.0873ZM147.077 84.0897C143.301 88.0679 138.565 90.0089 132.619 89.8796L132.489 95.8782C140.019 96.0419 146.416 93.5005 151.429 88.2208L147.077 84.0897ZM148.581 52.5681C148.854 50.4422 149.012 48.5275 149.044 46.8369L143.045 46.7237C143.019 48.1386 142.884 49.8273 142.63 51.803L148.581 52.5681ZM149.045 46.7803C149.045 43.8682 148.599 41.1849 147.327 39.1136C145.932 36.8407 143.732 35.6147 141.102 35.4786L140.792 41.4706C141.561 41.5103 141.909 41.7565 142.214 42.2521C142.642 42.9494 143.045 44.331 143.045 46.7803H149.045ZM141.099 35.4784C137.41 35.2919 134.353 36.8673 132.179 39.8674C130.136 42.6864 128.92 46.6755 128.263 51.4709L134.208 52.285C134.811 47.8812 135.843 45.0368 137.037 43.3879C138.101 41.9203 139.269 41.3936 140.796 41.4708L141.099 35.4784ZM128.267 51.441L125.938 67.2613L131.874 68.1352L134.203 52.3149L128.267 51.441ZM125.928 67.3394C125.632 69.791 125.467 71.7418 125.467 73.1035H131.467C131.467 72.1214 131.594 70.4687 131.885 68.0571L125.928 67.3394ZM125.468 73.0225C125.388 75.9681 125.777 78.6994 127.047 80.8193C128.442 83.1492 130.684 84.3807 133.346 84.5359L133.695 78.5461C132.841 78.4963 132.483 78.219 132.194 77.7363C131.779 77.0438 131.399 75.6589 131.466 73.1846L125.468 73.0225ZM133.372 84.5373C137.116 84.7235 140.207 83.106 142.391 80.0408C144.443 77.1607 145.655 73.0839 146.295 68.1742L140.346 67.3981C139.755 71.922 138.719 74.8544 137.504 76.5593C136.421 78.0791 135.227 78.6222 133.669 78.5447L133.372 84.5373ZM146.289 68.2209L148.574 52.6203L142.637 51.7508L140.352 67.3513L146.289 68.2209Z" fill="#EF3829"/>
<g clip-path="url(#clip2)">
<path d="M59.0956 11.9973C58.8326 12.1814 58.596 12.4181 58.4119 12.6811C58.2804 12.8652 55.9398 16.7574 55.9398 16.7574C54.1515 19.7292 51.8109 22.2538 49.0232 24.2788L47.6557 25.2782C44.8154 27.3558 44.158 31.3269 46.183 34.1409C47.1823 35.5084 48.655 36.4025 50.3119 36.6918C51.2323 36.8496 52.1791 36.7707 53.0469 36.534L54.8878 39.085C54.993 39.2165 55.1245 39.2954 55.2823 39.3217C55.4138 39.348 55.5716 39.3217 55.7031 39.2428L58.3067 42.8194C58.78 43.4769 59.4901 43.8977 60.2528 44.0029C61.0154 44.1344 61.8044 43.9503 62.4619 43.4769C63.7768 42.5038 64.0924 40.6366 63.1193 39.3217L60.5158 35.7188L60.9891 35.3769C61.1206 35.2717 61.1995 35.1402 61.2258 34.9824C61.2521 34.8246 61.1995 34.6668 61.1206 34.5353L59.6479 32.5366C61.5677 31.5373 63.5927 30.7746 65.7229 30.2749C65.7229 30.2749 70.1674 29.2493 70.5093 29.1178C70.8775 28.9863 71.2193 28.7233 71.2193 28.7233C73.7966 26.9876 73.0602 21.7805 69.6414 17.0993C66.2752 12.3655 61.6203 10.1564 59.0956 11.9973ZM54.2041 36.0607C54.4934 35.9029 54.7563 35.7451 55.0193 35.561L56.4658 34.509C56.6761 34.3512 56.9128 34.1935 57.1232 34.0357L58.3856 35.7714L55.519 37.849L54.2041 36.0607ZM59.2797 42.0831L56.6761 38.5064L58.0437 37.5071L60.6473 41.0837C60.9365 41.4782 61.0417 41.9253 60.9628 42.3986C60.9102 42.6353 60.6736 42.8194 60.4369 42.7668C59.9898 42.7142 59.569 42.4775 59.2797 42.0831ZM62.1463 39.9792C62.5934 40.584 62.5934 41.3993 62.1726 42.0042C62.1463 41.4256 61.9622 40.847 61.594 40.3736L58.9904 36.797L59.5164 36.4025L62.1463 39.9792ZM59.8057 34.7457L59.3586 35.0876L58.1226 33.4045C58.2804 33.2993 58.4382 33.2204 58.596 33.1152L59.8057 34.7457ZM65.4862 29.0652C61.9622 29.9068 58.7011 31.4058 55.7557 33.536L54.3093 34.5879C53.2047 35.4032 51.8635 35.7188 50.4959 35.5084C49.1547 35.298 47.945 34.5616 47.156 33.4571C45.5255 31.1691 46.0515 27.9344 48.3658 26.2512L49.7333 25.2519C52.6524 23.1217 55.0982 20.4655 56.9654 17.3623L57.6229 16.284C57.807 18.4668 58.8589 21.0967 60.6736 23.5951C62.2515 25.7779 64.1976 27.5136 66.1174 28.4866C66.3015 28.5918 66.5119 28.6707 66.696 28.7496L65.4862 29.0652ZM62.2515 19.1506C62.2515 19.1769 62.2515 19.2032 62.2515 19.2558C62.383 20.0447 62.7512 20.8863 63.3297 21.6753C63.9609 22.5431 64.6973 23.148 65.381 23.4899L63.3823 24.9626C62.7775 24.3577 62.1989 23.6477 61.6466 22.9113C61.0943 22.1749 60.621 21.386 60.2265 20.6233L62.2515 19.1506ZM66.7749 22.5168C66.433 22.7798 65.2758 22.2801 64.3291 20.9915C63.882 20.3603 63.5664 19.6766 63.4612 19.098C63.3823 18.6772 63.4612 18.309 63.619 18.2038C63.6979 18.1512 63.8294 18.1249 63.9872 18.1512C64.145 18.1775 64.3291 18.2301 64.5132 18.3353C65.0391 18.5983 65.6177 19.1243 66.0648 19.7292C67.0115 21.0178 67.1167 22.2538 66.7749 22.5168ZM70.5619 27.724C70.4041 27.8292 70.3252 27.8818 70.0622 27.987C69.7992 28.0659 69.5625 28.1184 69.5625 28.1184C68.7473 28.2236 67.7479 28.0133 66.6434 27.461C65.8544 27.0665 65.0391 26.5142 64.2765 25.8305L67.4586 23.5162C68.5106 22.7535 68.3265 20.8337 67.0115 19.0191C66.433 18.2301 65.7492 17.599 65.0391 17.2571C64.1976 16.8363 63.4349 16.8363 62.8826 17.2308L59.7005 19.5451C59.306 18.5983 59.0167 17.6779 58.8852 16.7837C58.7011 15.574 58.78 14.5483 59.1482 13.8119C59.1482 13.8119 59.2534 13.5753 59.3849 13.4175C59.4901 13.286 59.6479 13.1019 59.8057 12.9967C60.3317 12.6022 61.0154 12.497 61.8044 12.6285C63.882 12.9441 66.5908 14.9165 68.6947 17.8094C71.6138 21.7805 72.4554 26.3301 70.5619 27.724Z" fill="#FFDFFF"/>
<path d="M79.372 21.9914L73.9282 21.1235C73.6126 21.071 73.297 21.3076 73.2444 21.6232C73.1918 21.9651 73.4285 22.2544 73.7441 22.307L79.1879 23.1749C79.5298 23.2274 79.8191 22.9908 79.8717 22.6752C79.9243 22.3596 79.7139 22.044 79.372 21.9914Z" fill="#FFDFFF"/>
<path d="M71.8503 18.2819C71.9292 18.5186 72.1133 18.6764 72.3237 18.7027C72.4026 18.729 72.5078 18.7027 72.5867 18.6764L79.0562 16.8092C79.3718 16.7303 79.5559 16.3884 79.477 16.0728C79.3718 15.7572 79.0562 15.5731 78.7406 15.652L72.2711 17.5192C71.9292 17.6244 71.7451 17.94 71.8503 18.2819Z" fill="#FFDFFF"/>
<path d="M70.0885 15.6793C70.1937 15.7845 70.3251 15.8634 70.4566 15.8897C70.6144 15.916 70.7985 15.8634 70.9563 15.7582L76.2687 11.1296C76.5316 10.9193 76.5579 10.5248 76.3213 10.2881C76.1109 10.0251 75.7164 9.9988 75.4797 10.2355L70.1411 14.8378C69.9044 15.0482 69.8781 15.4163 70.0885 15.6793Z" fill="#FFDFFF"/>
<path d="M67.8531 13.3654C67.9057 13.3917 67.9583 13.3917 68.0109 13.418C68.2739 13.4706 68.5368 13.3128 68.6683 13.0761L71.2982 7.15892C71.4297 6.84333 71.2982 6.50145 70.9826 6.36995C70.667 6.23846 70.3252 6.36995 70.1937 6.68554L67.5638 12.6028C67.4323 12.8657 67.5638 13.2076 67.8531 13.3654Z" fill="#FFDFFF"/>
<path d="M58.0964 11.7068C57.8334 11.8909 57.5967 12.1276 57.4126 12.3906C57.2811 12.5747 54.9405 16.4669 54.9405 16.4669C53.1522 19.4387 50.8116 21.9633 48.024 23.9883L46.6564 24.9877C43.8162 27.0653 43.1587 31.0364 45.1837 33.8504C46.183 35.2179 47.6558 36.112 49.3126 36.4013C50.233 36.5591 51.1798 36.4802 52.0477 36.2435L53.8886 38.7945C53.9938 38.926 54.1253 39.0049 54.283 39.0312C54.4145 39.0575 54.5723 39.0312 54.7038 38.9523L57.3074 42.5289C57.7808 43.1864 58.4908 43.6072 59.2535 43.7124C60.0162 43.8439 60.8051 43.6598 61.4626 43.1864C62.7775 42.2133 63.0931 40.3461 62.1201 39.0312L59.5165 35.4283L59.9899 35.0864C60.1214 34.9812 60.2003 34.8497 60.2266 34.6919C60.2529 34.5341 60.2003 34.3763 60.1214 34.2448L58.6486 32.2461C60.5684 31.2468 62.5934 30.4841 64.7236 29.9844C64.7236 29.9844 69.1681 28.9588 69.51 28.8273C69.8782 28.6958 70.2201 28.4328 70.2201 28.4328C72.7973 26.6971 72.061 21.49 68.6421 16.8088C65.2759 12.1013 60.621 9.86592 58.0964 11.7068ZM53.2048 35.7702C53.4941 35.6124 53.7571 35.4546 54.0201 35.2705L55.4665 34.2185C55.6769 34.0607 55.9136 33.903 56.124 33.7452L57.3863 35.4809L54.5197 37.5848L53.2048 35.7702ZM58.2805 41.7926L55.6769 38.2159L57.0444 37.2166L59.648 40.7932C59.9373 41.1877 60.0425 41.6348 59.9636 42.1082C59.911 42.3448 59.6743 42.5289 59.4376 42.4763C58.9905 42.4237 58.5697 42.187 58.2805 41.7926ZM61.147 39.715C61.5941 40.3198 61.5941 41.1351 61.1733 41.74C61.147 41.1614 60.9629 40.5828 60.5947 40.1094L57.9912 36.5328L58.5171 36.1383L61.147 39.715ZM58.8064 34.4552L58.3593 34.7971L57.1233 33.114C57.2811 33.0088 57.4389 32.9299 57.5967 32.8247L58.8064 34.4552ZM64.487 28.801C60.9629 29.6426 57.7019 31.1416 54.7564 33.2718L53.31 34.3237C52.2055 35.139 50.8642 35.4546 49.4967 35.2442C48.1554 35.0338 46.9457 34.2974 46.1567 33.1929C44.4999 30.8786 45.0522 27.6702 47.3665 25.987L48.734 24.9877C51.6532 22.8575 54.099 20.2013 55.9662 17.0981L56.6236 16.0198C56.8077 18.2026 57.8597 20.8325 59.6743 23.3309C61.2522 25.5137 63.1983 27.2494 65.1181 28.2224C65.3022 28.3276 65.5126 28.4065 65.6967 28.4854L64.487 28.801ZM61.2522 18.8864C61.2522 18.9127 61.2522 18.939 61.2522 18.9916C61.3837 19.7805 61.7519 20.6221 62.3305 21.4111C62.9616 22.2789 63.698 22.8838 64.3818 23.2257L62.3831 24.6984C61.7782 24.0935 61.1996 23.3835 60.6473 22.6471C60.0951 21.9107 59.6217 21.1218 59.2272 20.3591L61.2522 18.8864ZM65.7493 22.2263C65.4074 22.4893 64.2503 21.9896 63.3035 20.701C62.8564 20.0698 62.5408 19.3861 62.4356 18.8075C62.3568 18.3867 62.4356 18.0185 62.5934 17.9133C62.6723 17.8607 62.8038 17.8344 62.9616 17.8607C63.1194 17.887 63.3035 17.9396 63.4876 18.0448C64.0136 18.3078 64.5921 18.8338 65.0392 19.4387C66.0123 20.7273 66.1175 21.9896 65.7493 22.2263ZM69.5626 27.4335C69.4048 27.5387 69.3259 27.5913 69.0629 27.6965C68.7999 27.7753 68.5633 27.8279 68.5633 27.8279C67.748 27.9331 66.7486 27.7228 65.6441 27.1705C64.8551 26.776 64.0399 26.2237 63.2772 25.54L66.4594 23.2257C67.5113 22.463 67.3272 20.5432 66.0123 18.7286C65.4337 17.9396 64.7499 17.3085 64.0399 16.9666C63.2246 16.5195 62.4619 16.5195 61.8834 16.914L58.7012 19.2283C58.3068 18.2815 58.0175 17.3611 57.886 16.4669C57.7019 15.2572 57.7808 14.2315 58.149 13.4951C58.149 13.4951 58.2542 13.2585 58.3856 13.1007C58.4908 12.9692 58.6486 12.7851 58.8064 12.6799C59.3324 12.2854 60.0162 12.1802 60.8051 12.3117C62.8827 12.6273 65.5915 14.5997 67.6954 17.4926C70.6146 21.49 71.4561 26.0396 69.5626 27.4335Z" fill="#954EDE"/>
<path d="M78.373 21.7268L72.9291 20.8589C72.6136 20.8063 72.298 21.043 72.2454 21.3586C72.1928 21.7005 72.4295 21.9897 72.7451 22.0423L78.1889 22.9102C78.5308 22.9628 78.8201 22.7261 78.8727 22.4105C78.9253 22.0686 78.7149 21.7794 78.373 21.7268Z" fill="#954EDE"/>
<path d="M70.8513 17.9938C70.9302 18.2305 71.1143 18.3883 71.3247 18.4146C71.4036 18.4409 71.5088 18.4146 71.5877 18.3883L78.0572 16.5211C78.3727 16.4422 78.5568 16.1003 78.4779 15.7847C78.3727 15.4691 78.0572 15.285 77.7416 15.3639L71.2721 17.2311C70.9302 17.3363 70.7461 17.6782 70.8513 17.9938Z" fill="#954EDE"/>
<path d="M69.0895 15.4157C69.1947 15.5208 69.3262 15.5997 69.4577 15.626C69.6155 15.6523 69.7996 15.5997 69.9573 15.4945L75.2697 10.866C75.5327 10.6556 75.559 10.2611 75.3223 10.0244C75.1119 9.76143 74.7174 9.73513 74.4807 9.97182L69.1421 14.5478C68.8791 14.7845 68.8528 15.1527 69.0895 15.4157Z" fill="#954EDE"/>
<path d="M66.8539 13.0744C66.9065 13.1007 66.9591 13.1007 67.0117 13.127C67.2747 13.1796 67.5377 13.0218 67.6692 12.7851L70.299 6.8679C70.4305 6.55232 70.299 6.21043 69.9834 6.07894C69.6679 5.94744 69.326 6.07894 69.1945 6.39452L66.5646 12.3117C66.4068 12.5747 66.5646 12.9429 66.8539 13.0744Z" fill="#954EDE"/>
</g>
<path d="M84.0282 15.6708C84.9539 15.914 85.6481 16.3843 86.378 17.2114C87.0366 17.9736 87.3926 18.9466 87.357 19.9196V19.9358V19.9521C87.357 19.9521 87.357 19.9683 87.3748 19.9683C87.3748 19.9683 87.3748 19.9845 87.3926 19.9845L87.4104 20.0007C87.4104 20.0007 87.4282 20.0007 87.4282 20.0169H87.446H87.4638C87.5172 20.0169 87.5528 19.9845 87.5528 19.9358C87.5528 19.9358 87.5528 19.9358 87.5528 19.9196C87.5172 18.9628 87.8732 17.9736 88.5319 17.2114C89.2439 16.3681 89.9559 15.914 90.8816 15.6708C90.935 15.6545 90.9528 15.6221 90.9528 15.5735C90.9528 15.5248 90.9172 15.4924 90.8816 15.4924C89.9381 15.2816 89.3685 14.7788 88.7633 14.195C88.1758 13.6274 87.7664 12.8814 87.5706 11.9571C87.5706 11.9571 87.5706 11.9571 87.5706 11.9408C87.5706 11.9246 87.5706 11.9246 87.5528 11.9246C87.5528 11.9246 87.5528 11.9246 87.5528 11.9084L87.535 11.8922C87.535 11.8922 87.535 11.8922 87.5172 11.8922C87.5172 11.8922 87.4994 11.8922 87.4994 11.876H87.4816H87.4638C87.4638 11.876 87.446 11.876 87.446 11.8922C87.446 11.8922 87.446 11.8922 87.4282 11.8922L87.4104 11.9084C87.4104 11.9084 87.4104 11.9084 87.4104 11.9246C87.4104 11.9246 87.4104 11.9408 87.3926 11.9408C87.3926 11.9408 87.3926 11.9408 87.3926 11.9571C87.1968 12.8814 86.7874 13.6436 86.1999 14.195C85.5591 14.7788 84.9717 15.2816 84.0282 15.4924C83.9926 15.4924 83.957 15.5248 83.957 15.5735C83.957 15.6221 83.9926 15.6545 84.0282 15.6708Z" fill="#954EDE"/>
<g clip-path="url(#clip3)">
<path d="M178.631 60.5807C179.299 61.1345 179.69 61.7864 179.973 62.7452C180.223 63.6234 180.144 64.5592 179.743 65.3453L179.737 65.3586L179.73 65.372C179.73 65.372 179.724 65.3853 179.739 65.3921C179.739 65.3921 179.733 65.4054 179.747 65.4122L179.756 65.4324C179.756 65.4324 179.77 65.4392 179.764 65.4525L179.779 65.4593L179.793 65.4661C179.837 65.4865 179.879 65.4735 179.898 65.4335C179.898 65.4335 179.898 65.4335 179.904 65.4202C180.24 64.6202 180.911 63.9432 181.744 63.5686C182.651 63.1477 183.41 63.0467 184.264 63.2007C184.314 63.2077 184.341 63.1879 184.36 63.1479C184.378 63.1079 184.361 63.0677 184.332 63.054C183.637 62.5201 183.361 61.8891 183.087 61.1779C182.821 60.4869 182.77 59.7172 182.962 58.8827C182.962 58.8827 182.962 58.8827 182.969 58.8693C182.975 58.856 182.975 58.856 182.96 58.8492C182.96 58.8492 182.96 58.8492 182.966 58.8359L182.958 58.8157C182.958 58.8157 182.958 58.8157 182.943 58.8089C182.943 58.8089 182.929 58.8021 182.935 58.7888L182.92 58.782L182.906 58.7752C182.906 58.7752 182.891 58.7684 182.885 58.7817C182.885 58.7817 182.885 58.7817 182.87 58.7749L182.849 58.7814C182.849 58.7814 182.849 58.7814 182.843 58.7948C182.843 58.7948 182.837 58.8081 182.822 58.8013C182.822 58.8013 182.822 58.8013 182.816 58.8146C182.302 59.4995 181.674 59.9694 180.98 60.198C180.23 60.4328 179.555 60.6215 178.699 60.434C178.67 60.4204 178.629 60.4335 178.61 60.4735C178.591 60.5135 178.608 60.5537 178.631 60.5807Z" fill="#FFB8DC"/>
</g>
<path d="M168.123 52.018C168.374 52.2515 168.618 52.4339 168.857 52.5809C168.59 52.6668 168.31 52.7858 168.009 52.9526C166.253 53.9284 166.083 56.7826 166.076 56.9037C166.072 56.9899 166.091 57.0757 166.133 57.1512C166.535 57.8737 167.275 58.2548 168.097 58.3482C168.934 58.4433 169.855 58.2403 170.689 57.7766C170.989 57.6101 171.238 57.4344 171.451 57.253C171.451 57.5329 171.477 57.8366 171.543 58.1737C171.824 59.6118 173.441 60.7483 174.703 61.2331C174.784 61.2641 174.872 61.2718 174.956 61.2552C175.709 61.1082 176.329 60.5762 176.702 59.7574C177.051 58.9909 177.142 58.0527 176.959 57.1155C176.892 56.7752 176.801 56.4814 176.693 56.2201C176.937 56.2952 177.212 56.3549 177.53 56.3937C179.522 56.6363 181.364 54.4438 181.441 54.3504C181.498 54.2825 181.533 54.2 181.544 54.1126C181.637 53.3515 181.317 52.595 180.644 51.9824C180.015 51.4101 179.146 51.0314 178.198 50.9158C177.895 50.879 177.622 50.8722 177.371 50.8868C177.526 50.6694 177.674 50.4198 177.811 50.1253C178.658 48.3036 177.118 45.8943 177.052 45.7926C177.005 45.7201 176.939 45.6624 176.86 45.6259C176.165 45.3025 175.351 45.3686 174.568 45.8119C173.835 46.2268 173.21 46.9321 172.807 47.7979C172.675 48.0824 172.581 48.3481 172.516 48.5998C172.38 48.4166 172.215 48.2292 172.007 48.0364C170.537 46.6675 167.769 47.3875 167.652 47.4188C167.569 47.4411 167.493 47.4865 167.435 47.5497C166.364 48.6997 166.667 50.6624 168.123 52.018V52.018ZM170.243 56.9725C169.574 57.3439 168.849 57.508 168.201 57.4343C167.665 57.3734 167.245 57.154 167.005 56.8121C167.075 56.0385 167.431 54.326 168.456 53.7566C169.22 53.3319 169.785 53.2897 170.589 53.2603C171.242 53.4509 171.874 53.6674 172.634 54.3351C171.648 55.3528 171.533 56.2558 170.243 56.9725ZM173.046 52.6279C173.297 52.6557 173.53 52.6678 173.748 52.6672C173.799 52.9146 173.859 53.1406 173.927 53.3484C173.708 53.4733 173.512 53.6003 173.335 53.7286C173.148 53.5588 172.967 53.4116 172.791 53.2833C172.894 53.0535 172.978 52.8355 173.046 52.6279V52.6279ZM175.865 59.3762C175.641 59.8676 175.303 60.1986 174.903 60.3217C174.189 60.0161 172.67 59.1479 172.446 57.9973C172.269 57.0924 172.436 56.5043 172.63 55.8233L172.633 55.8152C173.016 55.2536 173.417 54.7189 174.287 54.2028C174.949 55.4535 175.773 55.843 176.056 57.2919C176.203 58.0425 176.135 58.7827 175.865 59.3762ZM178.086 51.8288C178.836 51.9201 179.543 52.2241 180.025 52.6627C180.428 53.0301 180.643 53.454 180.639 53.8696C180.276 54.2679 178.925 55.637 177.642 55.4808C176.765 55.374 176.34 55.0963 175.694 54.6613C175.278 54.1223 174.892 53.574 174.67 52.583C176.065 52.3241 176.63 51.6514 178.086 51.8288V51.8288ZM175.021 46.6122C175.491 46.3462 175.959 46.2772 176.355 46.4125C176.753 47.0794 177.471 48.6743 176.977 49.7374C176.603 50.5414 176.143 50.9212 175.613 51.3376C174.953 51.5902 174.318 51.823 173.257 51.725C173.456 50.3237 173.018 49.5245 173.641 48.1858C173.963 47.4924 174.454 46.9336 175.021 46.6122V46.6122ZM168.025 48.274C168.782 48.1014 170.522 47.9105 171.381 48.7097C172.042 49.3252 172.133 49.8138 172.387 50.5258C172.408 51.2057 172.398 51.8744 171.997 52.8038C170.729 52.1831 169.827 52.3478 168.75 51.3447C167.896 50.5499 167.328 49.1794 168.025 48.274Z" fill="#FFDFFF"/>
<g clip-path="url(#clip4)">
<path d="M167.381 51.8393C167.632 52.0728 167.876 52.2552 168.115 52.4022C167.848 52.4881 167.568 52.6071 167.267 52.7739C165.511 53.7497 165.341 56.6039 165.334 56.7249C165.33 56.8112 165.349 56.897 165.391 56.9725C165.793 57.695 166.533 58.0761 167.355 58.1695C168.192 58.2646 169.113 58.0616 169.947 57.5979C170.247 57.4314 170.496 57.2557 170.709 57.0743C170.709 57.3542 170.735 57.6578 170.801 57.995C171.082 59.4331 172.7 60.5696 173.961 61.0544C174.042 61.0854 174.13 61.0931 174.214 61.0765C174.967 60.9295 175.587 60.3975 175.96 59.5787C176.309 58.8122 176.4 57.874 176.217 56.9368C176.151 56.5965 176.059 56.3027 175.951 56.0414C176.195 56.1165 176.47 56.1762 176.789 56.215C178.78 56.4575 180.622 54.2651 180.699 54.1717C180.756 54.1038 180.791 54.0213 180.802 53.9338C180.895 53.1728 180.575 52.4163 179.902 51.8037C179.273 51.2314 178.404 50.8527 177.456 50.7371C177.153 50.7003 176.88 50.6935 176.629 50.7081C176.784 50.4907 176.932 50.241 177.069 49.9466C177.916 48.1248 176.376 45.7156 176.31 45.6139C176.263 45.5414 176.197 45.4837 176.118 45.4472C175.423 45.1238 174.609 45.1899 173.826 45.6332C173.093 46.0481 172.468 46.7534 172.065 47.6192C171.933 47.9037 171.839 48.1693 171.774 48.421C171.638 48.2379 171.473 48.0505 171.266 47.8577C169.795 46.4888 167.028 47.2088 166.91 47.2401C166.827 47.2624 166.752 47.3078 166.693 47.371C165.622 48.521 165.925 50.4837 167.381 51.8393V51.8393ZM169.501 56.7938C168.832 57.1652 168.107 57.3292 167.459 57.2556C166.923 57.1946 166.503 56.9753 166.263 56.6334C166.333 55.8598 166.689 54.1472 167.714 53.5779C168.478 53.1532 169.043 53.111 169.847 53.0816C170.5 53.2722 171.132 53.4887 171.892 54.1564C170.906 55.1741 170.791 56.0771 169.501 56.7938ZM172.304 52.4492C172.555 52.477 172.788 52.4891 173.006 52.4885C173.057 52.7359 173.117 52.9618 173.185 53.1697C172.966 53.2946 172.77 53.4216 172.593 53.5499C172.407 53.3801 172.225 53.2329 172.049 53.1046C172.152 52.8748 172.236 52.6568 172.304 52.4492V52.4492ZM175.123 59.1975C174.899 59.6889 174.561 60.0199 174.161 60.1429C173.447 59.8374 171.929 58.9692 171.704 57.8186C171.527 56.9137 171.694 56.3256 171.889 55.6446L171.891 55.6365C172.274 55.0749 172.675 54.5402 173.545 54.0241C174.207 55.2748 175.031 55.6643 175.314 57.1132C175.461 57.8637 175.393 58.604 175.123 59.1975ZM177.345 51.6501C178.094 51.7414 178.801 52.0454 179.283 52.484C179.686 52.8514 179.901 53.2753 179.897 53.6909C179.534 54.0891 178.183 55.4583 176.9 55.302C176.023 55.1953 175.598 54.9176 174.952 54.4825C174.536 53.9436 174.15 53.3953 173.928 52.4043C175.323 52.1454 175.888 51.4727 177.345 51.6501V51.6501ZM174.279 46.4335C174.749 46.1675 175.217 46.0984 175.613 46.2338C176.011 46.9007 176.729 48.4956 176.235 49.5587C175.861 50.3627 175.401 50.7424 174.871 51.1589C174.211 51.4115 173.576 51.6443 172.515 51.5463C172.714 50.145 172.276 49.3458 172.899 48.0071C173.221 47.3137 173.712 46.7548 174.279 46.4335V46.4335ZM167.283 48.0953C168.04 47.9227 169.78 47.7318 170.639 48.531C171.3 49.1465 171.391 49.6351 171.645 50.3471C171.666 51.027 171.656 51.6957 171.255 52.6251C169.987 52.0044 169.086 52.1691 168.008 51.166C167.154 50.3711 166.586 49.0007 167.283 48.0953Z" fill="#954EDE"/>
</g>
<g clip-path="url(#clip5)">
<path d="M32.4256 95.8004C33.3912 96.0542 34.1154 96.5448 34.8768 97.4075C35.5638 98.2026 35.9352 99.2177 35.8981 100.233V100.25V100.267C35.8981 100.267 35.8981 100.283 35.9166 100.283C35.9166 100.283 35.9166 100.3 35.9352 100.3L35.9538 100.317C35.9538 100.317 35.9724 100.317 35.9724 100.334H35.9909H36.0095C36.0652 100.334 36.1023 100.3 36.1023 100.25C36.1023 100.25 36.1023 100.25 36.1023 100.233C36.0652 99.2346 36.4366 98.2026 37.1237 97.4075C37.8664 96.5278 38.6092 96.0542 39.5748 95.8004C39.6305 95.7835 39.6491 95.7497 39.6491 95.6989C39.6491 95.6482 39.612 95.6143 39.5748 95.6143C38.5906 95.3944 37.9964 94.87 37.3651 94.261C36.7523 93.6688 36.3252 92.8907 36.1209 91.9264C36.1209 91.9264 36.1209 91.9264 36.1209 91.9095C36.1209 91.8925 36.1209 91.8925 36.1023 91.8925C36.1023 91.8925 36.1023 91.8925 36.1023 91.8756L36.0838 91.8587C36.0838 91.8587 36.0838 91.8587 36.0652 91.8587C36.0652 91.8587 36.0466 91.8587 36.0466 91.8418H36.0281H36.0095C36.0095 91.8418 35.9909 91.8418 35.9909 91.8587C35.9909 91.8587 35.9909 91.8587 35.9724 91.8587L35.9538 91.8756C35.9538 91.8756 35.9538 91.8756 35.9538 91.8925C35.9538 91.8925 35.9538 91.9095 35.9352 91.9095C35.9352 91.9095 35.9352 91.9095 35.9352 91.9264C35.731 92.8907 35.3039 93.6858 34.6911 94.261C34.0226 94.87 33.4098 95.3944 32.4256 95.6143C32.3885 95.6143 32.3513 95.6482 32.3513 95.6989C32.3513 95.7497 32.3885 95.7835 32.4256 95.8004Z" fill="#954EDE"/>
</g>
<path d="M43.1112 60.9243C44.5562 61.304 45.6401 62.0382 46.7795 63.3294C47.8077 64.5193 48.3635 66.0384 48.3079 67.5574V67.5828V67.6081C48.3079 67.6081 48.3079 67.6334 48.3357 67.6334C48.3357 67.6334 48.3357 67.6587 48.3635 67.6587L48.3913 67.684C48.3913 67.684 48.4191 67.684 48.4191 67.7093H48.4469H48.4746C48.558 67.7093 48.6136 67.6587 48.6136 67.5828C48.6136 67.5828 48.6136 67.5828 48.6136 67.5574C48.558 66.0637 49.1138 64.5193 50.1421 63.3294C51.2537 62.0129 52.3653 61.304 53.8103 60.9243C53.8937 60.899 53.9215 60.8483 53.9215 60.7724C53.9215 60.6964 53.8659 60.6458 53.8103 60.6458C52.3375 60.3167 51.4482 59.5318 50.5033 58.6204C49.5863 57.7343 48.9471 56.5697 48.6414 55.1266C48.6414 55.1266 48.6414 55.1266 48.6414 55.1013C48.6414 55.076 48.6414 55.076 48.6136 55.076C48.6136 55.076 48.6136 55.076 48.6136 55.0506L48.5858 55.0253C48.5858 55.0253 48.5858 55.0253 48.558 55.0253C48.558 55.0253 48.5302 55.0253 48.5302 55H48.5024H48.4746C48.4746 55 48.4469 55 48.4469 55.0253C48.4469 55.0253 48.4469 55.0253 48.4191 55.0253L48.3913 55.0506C48.3913 55.0506 48.3913 55.0506 48.3913 55.076C48.3913 55.076 48.3913 55.1013 48.3635 55.1013C48.3635 55.1013 48.3635 55.1013 48.3635 55.1266C48.0578 56.5697 47.4186 57.7596 46.5016 58.6204C45.5011 59.5318 44.584 60.3167 43.1112 60.6458C43.0556 60.6458 43 60.6964 43 60.7724C43 60.8483 43.0556 60.899 43.1112 60.9243Z" fill="#FFB8DC"/>
<path d="M28.8139 80.6356C29.1202 80.7351 29.4003 80.7938 29.6617 80.8246C29.4689 81.0033 29.277 81.2159 29.0873 81.477C27.9776 83.0043 28.9635 85.5035 29.006 85.6092C29.0363 85.6845 29.0872 85.7497 29.1529 85.7974C29.7811 86.2539 30.5628 86.2852 31.3003 86.039C32.0509 85.7883 32.7547 85.2506 33.2821 84.5247C33.4714 84.2642 33.6138 84.0159 33.7238 83.7768C33.8342 84.0154 33.9771 84.2636 34.1668 84.5247C34.9761 85.6386 36.8044 85.9659 38.0716 85.8789C38.1526 85.8734 38.2303 85.8452 38.296 85.7974C38.8789 85.3739 39.1961 84.6751 39.1893 83.8297C39.1829 83.0384 38.889 82.2029 38.3616 81.477C38.1701 81.2135 37.9758 80.9994 37.7801 80.8196C38.018 80.7867 38.2758 80.7287 38.5625 80.6356C40.355 80.0531 41.0557 77.4553 41.0847 77.345C41.1057 77.2649 41.1033 77.1805 41.0777 77.1018C40.8551 76.4166 40.2829 75.8988 39.4666 75.6437C38.7039 75.4054 37.8139 75.4269 36.9602 75.7043C36.6878 75.7928 36.4525 75.8952 36.2441 76.0073C36.29 75.7606 36.317 75.4894 36.317 75.1843C36.317 73.2964 34.0504 71.854 33.9539 71.7935C33.8852 71.7504 33.8057 71.7275 33.7245 71.7275C33.004 71.7275 32.3366 72.1064 31.8452 72.7944C31.3853 73.4383 31.1319 74.287 31.1319 75.1843C31.1319 75.479 31.1576 75.7424 31.2015 75.9828C31.0135 75.8805 30.7981 75.7864 30.5453 75.7043C28.7497 75.1209 26.6776 76.8308 26.5902 76.9039C26.528 76.956 26.4817 77.0246 26.4566 77.1018C26.0004 78.5056 27.0359 80.0579 28.8139 80.6356V80.6356ZM32.583 84.0167C32.1605 84.5981 31.6078 85.0252 31.0267 85.2192C30.5455 85.3798 30.1012 85.3592 29.7609 85.1631C29.514 84.4763 29.1389 82.8761 29.7864 81.9849C30.2694 81.3202 30.7336 81.0605 31.407 80.7168C32.0384 80.6206 32.6632 80.5544 33.5749 80.8222C33.1384 82.0799 33.398 82.895 32.583 84.0167ZM33.2495 79.2045C33.4745 79.1286 33.6779 79.0466 33.8631 78.9598C34.0046 79.1503 34.1455 79.3189 34.2854 79.4693C34.1482 79.6625 34.0316 79.8484 33.9319 80.0277C33.7058 79.9569 33.493 79.9034 33.2917 79.864C33.2891 79.6271 33.2742 79.4081 33.2495 79.2045V79.2045ZM38.3251 83.8367C38.3293 84.344 38.1723 84.7601 37.8807 85.0232C37.1513 85.0458 35.5134 84.908 34.8659 84.0168C34.3567 83.3159 34.2664 82.7485 34.1619 82.0914L34.1606 82.0836C34.2643 81.4534 34.3943 80.8388 34.9308 80.0544C35.991 80.8574 36.8472 80.8628 37.6625 81.985C38.0849 82.5663 38.3202 83.224 38.3251 83.8367ZM37.2272 76.5262C37.9021 76.3069 38.6244 76.2859 39.2088 76.4686C39.6984 76.6216 40.0493 76.8976 40.2108 77.2532C40.0593 77.7364 39.4504 79.4384 38.2954 79.8138C37.5063 80.0701 37.0339 80.0021 36.3117 79.8872C35.743 79.5932 35.1974 79.2789 34.6157 78.5224C35.7012 77.7493 35.916 76.9522 37.2272 76.5262V76.5262ZM32.5484 73.2967C32.8432 72.8839 33.2148 72.6395 33.6053 72.5981C34.2087 73.0085 35.4528 74.0826 35.4528 75.1843C35.4528 76.0174 35.2119 76.523 34.9251 77.0879C34.4631 77.5646 34.0139 78.0148 33.0712 78.3517C32.6855 77.079 31.9961 76.5715 31.9961 75.1843C31.9961 74.4657 32.1922 73.7953 32.5484 73.2967V73.2967ZM27.2467 77.4848C27.8229 77.0379 29.23 76.1856 30.2782 76.5262C31.0856 76.7885 31.3568 77.1687 31.8554 77.6745C32.1422 78.2457 32.3986 78.8195 32.4256 79.77C31.0996 79.7436 30.3966 80.2412 29.0809 79.8137C28.0384 79.475 27.0112 78.5326 27.2467 77.4848Z" fill="#FFDFFF"/>
<g clip-path="url(#clip6)">
<path d="M28.1115 80.7782C28.4178 80.8777 28.6979 80.9364 28.9593 80.9671C28.7665 81.1459 28.5746 81.3585 28.3849 81.6196C27.2752 83.1469 28.2611 85.6461 28.3036 85.7518C28.3339 85.8271 28.3848 85.8923 28.4505 85.94C29.0787 86.3965 29.8604 86.4278 30.5979 86.1815C31.3485 85.9309 32.0523 85.3932 32.5797 84.6673C32.769 84.4068 32.9114 84.1585 33.0214 83.9193C33.1318 84.158 33.2747 84.4062 33.4644 84.6673C34.2737 85.7812 36.1021 86.1085 37.3692 86.0215C37.4502 86.016 37.5279 85.9877 37.5936 85.94C38.1765 85.5165 38.4938 84.8177 38.4869 83.9723C38.4805 83.181 38.1866 82.3454 37.6592 81.6196C37.4677 81.356 37.2734 81.1419 37.0777 80.9622C37.3156 80.9293 37.5734 80.8713 37.8601 80.7782C39.6527 80.1957 40.3533 77.5978 40.3823 77.4875C40.4033 77.4075 40.4009 77.3231 40.3753 77.2443C40.1527 76.5592 39.5805 76.0414 38.7642 75.7863C38.0015 75.548 37.1115 75.5695 36.2578 75.8469C35.9854 75.9354 35.7501 76.0378 35.5417 76.1499C35.5876 75.9032 35.6146 75.6319 35.6146 75.3268C35.6146 73.439 33.3481 71.9966 33.2516 71.9361C33.1828 71.893 33.1033 71.8701 33.0221 71.8701C32.3016 71.8701 31.6342 72.249 31.1428 72.9369C30.6829 73.5809 30.4295 74.4296 30.4295 75.3268C30.4295 75.6216 30.4552 75.885 30.4991 76.1254C30.3111 76.0231 30.0957 75.929 29.8429 75.8468C28.0473 75.2635 25.9752 76.9734 25.8879 77.0465C25.8256 77.0985 25.7793 77.1671 25.7542 77.2443C25.298 78.6482 26.3335 80.2005 28.1115 80.7782V80.7782ZM31.8806 84.1593C31.4582 84.7407 30.9055 85.1677 30.3243 85.3618C29.8431 85.5224 29.3988 85.5018 29.0585 85.3057C28.8116 84.6189 28.4365 83.0187 29.084 82.1275C29.567 81.4628 30.0312 81.2031 30.7046 80.8594C31.336 80.7632 31.9608 80.697 32.8726 80.9648C32.436 82.2225 32.6956 83.0375 31.8806 84.1593ZM32.5471 79.3471C32.7721 79.2712 32.9755 79.1891 33.1607 79.1024C33.3022 79.2929 33.4431 79.4615 33.583 79.6119C33.4459 79.8051 33.3292 79.991 33.2295 80.1702C33.0034 80.0995 32.7906 80.0459 32.5893 80.0066C32.5867 79.7696 32.5719 79.5507 32.5471 79.3471V79.3471ZM37.6228 83.9793C37.6269 84.4865 37.4699 84.9026 37.1783 85.1658C36.4489 85.1884 34.811 85.0506 34.1635 84.1594C33.6543 83.4585 33.564 82.891 33.4595 82.234L33.4582 82.2262C33.5619 81.596 33.6919 80.9814 34.2285 80.197C35.2886 81 36.1448 81.0054 36.9601 82.1276C37.3825 82.7089 37.6178 83.3665 37.6228 83.9793ZM36.5248 76.6688C37.1997 76.4495 37.922 76.4285 38.5064 76.6112C38.996 76.7642 39.3469 77.0402 39.5084 77.3958C39.3569 77.879 38.7481 79.581 37.593 79.9563C36.8039 80.2127 36.3316 80.1447 35.6093 80.0298C35.0406 79.7358 34.495 79.4214 33.9133 78.665C34.9988 77.8919 35.2136 77.0948 36.5248 76.6688V76.6688ZM31.846 73.4393C32.1408 73.0264 32.5124 72.7821 32.9029 72.7406C33.5063 73.151 34.7504 74.2252 34.7504 75.3269C34.7504 76.16 34.5095 76.6656 34.2228 77.2305C33.7607 77.7072 33.3115 78.1574 32.3688 78.4943C31.9831 77.2215 31.2937 76.7141 31.2937 75.3269C31.2937 74.6082 31.4898 73.9379 31.846 73.4393V73.4393ZM26.5443 77.6274C27.1205 77.1805 28.5276 76.3282 29.5758 76.6688C30.3832 76.9311 30.6544 77.3113 31.153 77.8171C31.4398 78.3883 31.6962 78.962 31.7232 79.9125C30.3973 79.8861 29.6942 80.3838 28.3785 79.9563C27.336 79.6175 26.3088 78.6751 26.5443 77.6274Z" fill="#954EDE"/>
</g>
<g clip-path="url(#clip7)">
<path d="M63.6352 84.3413C65.8094 83.0425 66.5457 80.235 65.2751 78.0343C64.0044 75.8336 61.205 75.0677 58.9933 76.3012C58.9555 73.769 56.8924 71.7275 54.3513 71.7275C51.8101 71.7275 49.7469 73.769 49.7093 76.3014C47.4975 75.0678 44.6979 75.8339 43.4274 78.0347C42.1568 80.2353 42.8931 83.0428 45.0674 84.3415C42.8932 85.6403 42.1568 88.4478 43.4274 90.6485C44.6981 92.8492 47.4976 93.6152 49.7094 92.3816C49.747 94.914 51.8102 96.9555 54.3514 96.9554C56.8926 96.9554 58.9557 94.9138 58.9933 92.3816C61.2051 93.6151 64.0047 92.8491 65.2752 90.6482C66.5458 88.4475 65.8094 85.64 63.6352 84.3413ZM54.3513 88.5939C52.0027 88.5939 50.0987 86.69 50.0987 84.3414C50.0987 81.9927 52.0027 80.0888 54.3513 80.0888C56.6998 80.0888 58.6038 81.9927 58.6038 84.3414C58.6038 86.69 56.6999 88.5939 54.3513 88.5939Z" fill="#954EDE"/>
<circle cx="54.4186" cy="84.7213" r="5.47422" fill="white"/>
</g>
<g clip-path="url(#clip8)">
<path d="M170.756 28.4999C172.221 27.6247 172.717 25.7329 171.861 24.2499C171.005 22.7669 169.118 22.2508 167.628 23.082C167.603 21.3757 166.212 20 164.5 20C162.788 20 161.397 21.3757 161.372 23.0821C159.882 22.2509 157.995 22.7671 157.139 24.2501C156.283 25.7331 156.779 27.6249 158.244 28.5C156.779 29.3752 156.283 31.2671 157.139 32.7501C157.995 34.2331 159.882 34.7492 161.372 33.918C161.397 35.6244 162.788 37.0001 164.5 37C166.213 37 167.603 35.6243 167.628 33.918C169.119 34.7491 171.005 34.233 171.861 32.7499C172.717 31.2669 172.221 29.375 170.756 28.4999ZM164.5 31.3656C162.917 31.3656 161.634 30.0826 161.634 28.5C161.634 26.9173 162.917 25.6343 164.5 25.6343C166.083 25.6343 167.366 26.9173 167.366 28.5C167.366 30.0826 166.083 31.3656 164.5 31.3656Z" fill="#954EDE"/>
<circle cx="164.545" cy="28.7562" r="3.68886" fill="white"/>
</g>
<path d="M107.235 20.5374C107.503 20.6244 107.748 20.6757 107.976 20.7025C107.808 20.8587 107.64 21.0445 107.474 21.2727C106.505 22.6076 107.366 24.7918 107.403 24.8841C107.43 24.9499 107.474 25.007 107.532 25.0487C108.081 25.4476 108.764 25.475 109.409 25.2598C110.065 25.0407 110.68 24.5708 111.141 23.9364C111.306 23.7087 111.43 23.4917 111.527 23.2827C111.623 23.4912 111.748 23.7082 111.914 23.9364C112.621 24.9099 114.219 25.1959 115.326 25.1199C115.397 25.115 115.465 25.0904 115.523 25.0487C116.032 24.6786 116.309 24.0678 116.303 23.3289C116.298 22.6374 116.041 21.9071 115.58 21.2727C115.413 21.0424 115.243 20.8553 115.072 20.6982C115.28 20.6695 115.505 20.6188 115.755 20.5374C117.322 20.0283 117.934 17.7578 117.96 17.6614C117.978 17.5914 117.976 17.5177 117.954 17.4489C117.759 16.8501 117.259 16.3975 116.546 16.1746C115.879 15.9663 115.101 15.9851 114.355 16.2275C114.117 16.3049 113.911 16.3944 113.729 16.4924C113.769 16.2768 113.793 16.0397 113.793 15.773C113.793 14.1231 111.812 12.8625 111.728 12.8096C111.668 12.7719 111.598 12.752 111.527 12.752C110.898 12.752 110.314 13.0831 109.885 13.6843C109.483 14.2471 109.261 14.9889 109.261 15.773C109.261 16.0306 109.284 16.2608 109.322 16.4709C109.158 16.3815 108.97 16.2993 108.749 16.2275C107.179 15.7176 105.368 17.2121 105.292 17.2759C105.238 17.3215 105.197 17.3814 105.175 17.4489C104.777 18.6758 105.682 20.0325 107.235 20.5374V20.5374ZM110.53 23.4924C110.16 24.0005 109.677 24.3737 109.169 24.5433C108.749 24.6837 108.361 24.6657 108.063 24.4943C107.847 23.8941 107.52 22.4955 108.085 21.7166C108.507 21.1357 108.913 20.9087 109.502 20.6083C110.054 20.5243 110.6 20.4664 111.396 20.7005C111.015 21.7997 111.242 22.512 110.53 23.4924ZM111.112 19.2866C111.309 19.2203 111.486 19.1486 111.648 19.0728C111.772 19.2392 111.895 19.3866 112.017 19.518C111.898 19.6869 111.796 19.8494 111.708 20.006C111.511 19.9442 111.325 19.8974 111.149 19.863C111.147 19.6559 111.134 19.4645 111.112 19.2866V19.2866ZM115.548 23.335C115.552 23.7784 115.414 24.142 115.16 24.372C114.522 24.3918 113.091 24.2713 112.525 23.4924C112.08 22.8799 112.001 22.3839 111.909 21.8097L111.908 21.8029C111.999 21.2521 112.113 20.7149 112.582 20.0294C113.508 20.7312 114.256 20.7359 114.969 21.7167C115.338 22.2248 115.544 22.7995 115.548 23.335ZM114.588 16.9458C115.178 16.7542 115.81 16.7359 116.32 16.8955C116.748 17.0292 117.055 17.2705 117.196 17.5813C117.064 18.0035 116.532 19.4911 115.522 19.8191C114.832 20.0432 114.42 19.9837 113.788 19.8833C113.291 19.6263 112.814 19.3516 112.306 18.6905C113.255 18.0148 113.442 17.3182 114.588 16.9458V16.9458ZM110.499 14.1233C110.757 13.7626 111.082 13.549 111.423 13.5128C111.95 13.8714 113.038 14.8102 113.038 15.7731C113.038 16.5012 112.827 16.9431 112.577 17.4368C112.173 17.8534 111.78 18.2468 110.956 18.5413C110.619 17.429 110.017 16.9854 110.017 15.7731C110.017 15.145 110.188 14.5591 110.499 14.1233V14.1233ZM105.866 17.7837C106.369 17.3931 107.599 16.6482 108.515 16.9458C109.221 17.1751 109.458 17.5074 109.894 17.9495C110.144 18.4486 110.368 18.9501 110.392 19.7808C109.233 19.7577 108.619 20.1927 107.469 19.8191C106.558 19.523 105.66 18.6994 105.866 17.7837Z" fill="#FFB8DC"/>
<path d="M106.924 20.9485C107.192 21.0355 107.436 21.0868 107.665 21.1136C107.496 21.2699 107.329 21.4557 107.163 21.6839C106.193 23.0187 107.055 25.2029 107.092 25.2953C107.118 25.3611 107.163 25.4181 107.22 25.4598C107.769 25.8587 108.452 25.8861 109.097 25.6709C109.753 25.4519 110.368 24.9819 110.829 24.3475C110.994 24.1198 111.119 23.9028 111.215 23.6938C111.312 23.9024 111.436 24.1193 111.602 24.3475C112.31 25.321 113.907 25.607 115.015 25.531C115.086 25.5262 115.154 25.5015 115.211 25.4598C115.72 25.0897 115.998 24.4789 115.992 23.7401C115.986 23.0485 115.729 22.3182 115.268 21.6839C115.101 21.4535 114.931 21.2664 114.76 21.1093C114.968 21.0806 115.193 21.0299 115.444 20.9485C117.011 20.4394 117.623 18.169 117.648 18.0726C117.667 18.0026 117.665 17.9288 117.642 17.86C117.448 17.2612 116.948 16.8087 116.234 16.5857C115.568 16.3774 114.79 16.3962 114.044 16.6387C113.806 16.716 113.6 16.8055 113.418 16.9035C113.458 16.6879 113.481 16.4508 113.481 16.1842C113.481 14.5342 111.501 13.2736 111.416 13.2207C111.356 13.1831 111.287 13.1631 111.216 13.1631C110.586 13.1631 110.003 13.4942 109.573 14.0955C109.171 14.6582 108.95 15.4 108.95 16.1842C108.95 16.4418 108.972 16.6719 109.011 16.8821C108.846 16.7927 108.658 16.7104 108.437 16.6386C106.868 16.1288 105.057 17.6232 104.981 17.6871C104.926 17.7326 104.886 17.7925 104.864 17.86C104.465 19.087 105.37 20.4436 106.924 20.9485ZM110.218 23.9035C109.849 24.4116 109.366 24.7849 108.858 24.9544C108.437 25.0948 108.049 25.0768 107.752 24.9055C107.536 24.3052 107.208 22.9067 107.774 22.1278C108.196 21.5468 108.602 21.3199 109.19 21.0195C109.742 20.9354 110.288 20.8775 111.085 21.1116C110.703 22.2108 110.93 22.9231 110.218 23.9035ZM110.8 19.6977C110.997 19.6314 111.175 19.5597 111.337 19.4839C111.46 19.6504 111.584 19.7978 111.706 19.9292C111.586 20.098 111.484 20.2605 111.397 20.4172C111.199 20.3553 111.013 20.3085 110.837 20.2742C110.835 20.0671 110.822 19.8757 110.8 19.6977ZM115.237 23.7462C115.24 24.1895 115.103 24.5532 114.848 24.7831C114.211 24.8029 112.779 24.6824 112.213 23.9036C111.768 23.291 111.689 22.7951 111.598 22.2208L111.597 22.214C111.687 21.6633 111.801 21.1261 112.27 20.4406C113.196 21.1424 113.945 21.1471 114.657 22.1278C115.027 22.6359 115.232 23.2106 115.237 23.7462ZM114.277 17.357C114.867 17.1653 115.498 17.147 116.009 17.3066C116.437 17.4404 116.743 17.6816 116.885 17.9924C116.752 18.4147 116.22 19.9022 115.21 20.2302C114.521 20.4543 114.108 20.3949 113.477 20.2944C112.98 20.0375 112.503 19.7627 111.995 19.1017C112.943 18.4259 113.131 17.7293 114.277 17.357ZM110.188 14.5345C110.445 14.1737 110.77 13.9601 111.111 13.9239C111.639 14.2826 112.726 15.2214 112.726 16.1842C112.726 16.9123 112.516 17.3542 112.265 17.8479C111.861 18.2645 111.469 18.658 110.645 18.9524C110.308 17.8401 109.705 17.3966 109.705 16.1842C109.705 15.5561 109.877 14.9703 110.188 14.5345ZM105.554 18.1948C106.058 17.8042 107.288 17.0593 108.204 17.357C108.909 17.5863 109.146 17.9185 109.582 18.3606C109.833 18.8598 110.057 19.3612 110.08 20.192C108.922 20.1689 108.307 20.6038 107.157 20.2302C106.246 19.9341 105.348 19.1105 105.554 18.1948Z" fill="#954EDE"/>
</g>
<defs>
<filter id="filter0_f" x="23" y="81" width="156" height="26" filterUnits="userSpaceOnUse" color-interpolation-filters="sRGB">
<feFlood flood-opacity="0" result="BackgroundImageFix"/>
<feBlend mode="normal" in="SourceGraphic" in2="BackgroundImageFix" result="shape"/>
<feGaussianBlur stdDeviation="5" result="effect1_foregroundBlur"/>
</filter>
<clipPath id="clip0">
<rect width="277" height="105.82" fill="white"/>
</clipPath>
<clipPath id="clip1">
<rect width="5.93764" height="6.92725" fill="white" transform="translate(151.157 11.8438)"/>
</clipPath>
<clipPath id="clip2">
<rect width="35.8977" height="38.0016" fill="white" transform="translate(44 6)"/>
</clipPath>
<clipPath id="clip3">
<rect width="6.32513" height="7.37931" fill="white" transform="translate(180.023 57.4346) rotate(24.9452)"/>
</clipPath>
<clipPath id="clip4">
<rect width="15.6977" height="15.6977" fill="white" transform="translate(169.065 42.001) rotate(24.9452)"/>
</clipPath>
<clipPath id="clip5">
<rect width="7.27921" height="8.49241" fill="white" transform="translate(32.3513 91.8418)"/>
</clipPath>
<clipPath id="clip6">
<rect width="14.7496" height="14.7496" fill="white" transform="translate(25.6467 71.7285)"/>
</clipPath>
<clipPath id="clip7">
<rect width="25.2278" height="25.2278" fill="white" transform="translate(41.7375 71.7275)"/>
</clipPath>
<clipPath id="clip8">
<rect width="17" height="17" fill="white" transform="translate(156 20)"/>
</clipPath>
</defs>
</svg>
