<svg width="277" height="106" viewBox="0 0 277 106" fill="none" xmlns="http://www.w3.org/2000/svg">
<g clip-path="url(#clip0)">
<g filter="url(#filter0_f)">
<ellipse cx="105" cy="94.8613" rx="68" ry="3" fill="#C4C4C4" fill-opacity="0.5"/>
</g>
<path d="M170.71 89.3779C169.909 90.3154 168.742 91.043 167.209 91.5605C165.676 92.0684 163.977 92.3076 162.111 92.2783C160.324 92.2588 158.815 91.8096 157.585 90.9307C156.354 90.0518 155.476 88.8262 154.948 87.2539C154.421 85.6816 154.279 83.9092 154.523 81.9365L154.641 81.0576C155.09 77.7471 156.252 75.125 158.127 73.1914C160.012 71.2578 162.316 70.3154 165.041 70.3643C167.424 70.4033 169.255 71.043 170.534 72.2832C171.813 73.5234 172.526 75.3154 172.673 77.6592L167.868 77.6445C167.8 76.502 167.517 75.667 167.019 75.1396C166.53 74.6123 165.832 74.334 164.924 74.3047C163.576 74.2559 162.463 74.7881 161.584 75.9014C160.705 77.0049 160.104 78.5869 159.782 80.6475C159.509 82.4053 159.411 83.7725 159.489 84.749C159.636 87.1025 160.695 88.2939 162.668 88.3232C163.859 88.3428 164.904 88.0547 165.803 87.459L166.462 84.1338H162.99L163.605 80.6035H172.087L170.71 89.3779ZM178.356 92H173.347L177.053 70.6719H182.048L178.356 92ZM199.626 89.3779C198.825 90.3154 197.658 91.043 196.125 91.5605C194.592 92.0684 192.893 92.3076 191.027 92.2783C189.24 92.2588 187.731 91.8096 186.501 90.9307C185.271 90.0518 184.392 88.8262 183.864 87.2539C183.337 85.6816 183.195 83.9092 183.439 81.9365L183.557 81.0576C184.006 77.7471 185.168 75.125 187.043 73.1914C188.928 71.2578 191.232 70.3154 193.957 70.3643C196.34 70.4033 198.171 71.043 199.45 72.2832C200.729 73.5234 201.442 75.3154 201.589 77.6592L196.784 77.6445C196.716 76.502 196.433 75.667 195.935 75.1396C195.446 74.6123 194.748 74.334 193.84 74.3047C192.492 74.2559 191.379 74.7881 190.5 75.9014C189.621 77.0049 189.021 78.5869 188.698 80.6475C188.425 82.4053 188.327 83.7725 188.405 84.749C188.552 87.1025 189.611 88.2939 191.584 88.3232C192.775 88.3428 193.82 88.0547 194.719 87.459L195.378 84.1338H191.906L192.521 80.6035H201.003L199.626 89.3779ZM214.45 88.0156H207.639L205.749 92H200.227L211.521 70.6719H216.237L220.178 92H214.963L214.45 88.0156ZM209.514 84.0459H213.938L213 76.6924L209.514 84.0459ZM233.625 86.2285C233.84 85.125 233.244 84.2705 231.838 83.665L229.436 82.6689C226.066 81.1553 224.465 79.0947 224.631 76.4873C224.699 75.2959 225.109 74.2363 225.861 73.3086C226.613 72.3711 227.653 71.6436 228.981 71.126C230.31 70.6084 231.76 70.3594 233.332 70.3789C235.441 70.418 237.136 71.0332 238.415 72.2246C239.704 73.416 240.339 75.0127 240.319 77.0146H235.339C235.368 76.1943 235.192 75.54 234.812 75.0518C234.44 74.5537 233.825 74.2949 232.966 74.2754C232.126 74.2559 231.384 74.4512 230.739 74.8613C230.095 75.2715 229.714 75.8232 229.597 76.5166C229.411 77.4932 230.134 78.2939 231.765 78.9189C233.405 79.5439 234.597 80.0811 235.339 80.5303C237.673 81.9268 238.767 83.8115 238.62 86.1846C238.542 87.415 238.146 88.4941 237.434 89.4219C236.721 90.3496 235.729 91.0674 234.46 91.5752C233.2 92.083 231.784 92.3271 230.212 92.3076C229.06 92.2881 227.99 92.1074 227.004 91.7656C226.018 91.4238 225.173 90.9258 224.47 90.2715C223.044 88.9531 222.36 87.2197 222.419 85.0713L227.443 85.0859C227.385 86.1797 227.595 87.0098 228.073 87.5762C228.552 88.1328 229.357 88.4111 230.49 88.4111C231.33 88.4111 232.028 88.2207 232.585 87.8398C233.151 87.4492 233.498 86.9121 233.625 86.2285Z" fill="#BBBBBB"/>
<path d="M93.0225 91H49.6484L51.2305 80.8047L73.9941 59.667L77.1143 56.5469C82.0068 51.625 84.248 46.9814 83.8379 42.6162C83.5156 39.2178 81.7578 37.4746 78.5645 37.3867C76.3086 37.3281 74.3896 38.251 72.8076 40.1553C71.2549 42.0303 70.2881 44.4912 69.9072 47.5381L55.5371 47.626C55.7715 43.6123 56.9873 39.9502 59.1846 36.6396C61.3818 33.2998 64.3115 30.6924 67.9736 28.8174C71.665 26.9424 75.5908 26.0195 79.751 26.0488C85.9912 26.166 90.8252 27.8652 94.2529 31.1465C97.6807 34.3984 99.1748 38.8076 98.7354 44.374C98.4717 47.6553 97.3877 50.8486 95.4834 53.9541C93.6084 57.0596 90.8691 60.3262 87.2656 63.7539L80.5859 69.9062L70.6543 79.4863L94.8242 79.5742L93.0225 91ZM122.554 91.8789C118.921 91.791 115.742 90.9414 113.018 89.3301C110.322 87.6895 108.242 85.3018 106.777 82.167C105.312 79.0029 104.521 75.4141 104.404 71.4004C104.316 69.2324 104.404 67.0498 104.668 64.8525L106.338 53.6904C107.686 44.6963 110.571 37.8262 114.995 33.0801C119.419 28.3047 125.059 25.9902 131.914 26.1367C137.48 26.2539 141.831 28.1289 144.966 31.7617C148.13 35.3945 149.829 40.3457 150.063 46.6152C150.122 48.7832 150.02 50.9658 149.756 53.1631L147.998 64.5449C146.592 73.6562 143.677 80.5264 139.253 85.1553C134.858 89.7842 129.292 92.0254 122.554 91.8789ZM135.605 51.1855C135.869 49.1348 136.016 47.333 136.045 45.7803C136.045 40.4189 134.346 37.6504 130.947 37.4746C125.732 37.2109 122.495 41.6787 121.235 50.8779L118.906 66.6982C118.613 69.1299 118.467 70.9316 118.467 72.1035C118.32 77.5234 120.005 80.3359 123.521 80.541C128.823 80.8047 132.09 76.2197 133.32 66.7861L135.605 51.1855Z" fill="#EF3829"/>
<path d="M93.0225 91V94H95.5865L95.9858 91.4673L93.0225 91ZM49.6484 91L46.6839 90.54L46.147 94H49.6484V91ZM51.2305 80.8047L49.1891 78.6063L48.4257 79.3152L48.2659 80.3447L51.2305 80.8047ZM73.9941 59.667L76.0355 61.8654L76.0762 61.8276L76.1155 61.7883L73.9941 59.667ZM77.1143 56.5469L79.2356 58.6682L79.2419 58.6619L77.1143 56.5469ZM83.8379 42.6162L86.8247 42.3356L86.8245 42.333L83.8379 42.6162ZM78.5645 37.3867L78.647 34.3879L78.6423 34.3877L78.5645 37.3867ZM72.8076 40.1553L70.5 38.2382L70.497 38.2418L72.8076 40.1553ZM69.9072 47.5381L69.9256 50.538L72.5576 50.5219L72.8841 47.9102L69.9072 47.5381ZM55.5371 47.626L52.5422 47.4511L52.3557 50.6455L55.5555 50.6259L55.5371 47.626ZM59.1846 36.6396L61.6841 38.2987L61.6908 38.2885L59.1846 36.6396ZM67.9736 28.8174L66.615 26.1426L66.6064 26.147L67.9736 28.8174ZM79.751 26.0488L79.8073 23.0494L79.7897 23.049L79.7721 23.0489L79.751 26.0488ZM94.2529 31.1465L92.1784 33.3136L92.1881 33.3229L94.2529 31.1465ZM98.7354 44.374L101.726 44.6143L101.726 44.6101L98.7354 44.374ZM95.4834 53.9541L92.9259 52.3858L92.9205 52.3947L92.9152 52.4035L95.4834 53.9541ZM87.2656 63.7539L89.2981 65.9605L89.3158 65.9442L89.3333 65.9276L87.2656 63.7539ZM80.5859 69.9062L78.5535 67.6996L78.5281 67.723L78.5032 67.7471L80.5859 69.9062ZM70.6543 79.4863L68.5715 77.3271L63.2509 82.4594L70.6434 82.4863L70.6543 79.4863ZM94.8242 79.5742L97.7876 80.0415L98.3324 76.587L94.8351 76.5742L94.8242 79.5742ZM93.0225 88H49.6484V94H93.0225V88ZM52.613 91.46L54.195 81.2647L48.2659 80.3447L46.6839 90.54L52.613 91.46ZM53.2718 83.0031L76.0355 61.8654L71.9528 57.4686L49.1891 78.6063L53.2718 83.0031ZM76.1155 61.7883L79.2356 58.6682L74.9929 54.4256L71.8728 57.5457L76.1155 61.7883ZM79.2419 58.6619C84.398 53.4748 87.3567 47.9975 86.8247 42.3356L80.851 42.8969C81.1394 45.9654 79.6156 49.7752 74.9866 54.4319L79.2419 58.6619ZM86.8245 42.333C86.6221 40.1982 85.9279 38.1546 84.3903 36.6298C82.8264 35.079 80.7769 34.4465 78.647 34.3879L78.4819 40.3856C79.5453 40.4149 79.9715 40.6979 80.1654 40.8902C80.3856 41.1086 80.7315 41.6358 80.8513 42.8994L86.8245 42.333ZM78.6423 34.3877C75.3701 34.3027 72.6042 35.7054 70.5 38.2382L75.1152 42.0723C76.1751 40.7965 77.2471 40.3535 78.4866 40.3857L78.6423 34.3877ZM70.497 38.2418C68.4957 40.6585 67.3637 43.6996 66.9304 47.166L72.8841 47.9102C73.2125 45.2828 74.014 43.402 75.1182 42.0687L70.497 38.2418ZM69.8889 44.5381L55.5188 44.626L55.5555 50.6259L69.9256 50.538L69.8889 44.5381ZM58.532 47.8009C58.7358 44.3104 59.784 41.1615 61.6841 38.2986L56.685 34.9807C54.1906 38.7389 52.8071 42.9142 52.5422 47.4511L58.532 47.8009ZM61.6908 38.2885C63.5945 35.3949 66.1263 33.1336 69.3408 31.4877L66.6064 26.147C62.4968 28.2512 59.1691 31.2048 56.6783 34.9908L61.6908 38.2885ZM69.3322 31.4921C72.5942 29.8353 76.0466 29.0228 79.7299 29.0488L79.7721 23.0489C75.1351 23.0162 70.7359 24.0495 66.615 26.1426L69.3322 31.4921ZM79.6946 29.0483C85.4251 29.1559 89.4486 30.7004 92.1784 33.3136L96.3274 28.9794C92.2018 25.03 86.5573 23.1761 79.8073 23.0494L79.6946 29.0483ZM92.1881 33.3229C94.8366 35.8355 96.1273 39.2914 95.7447 44.1379L101.726 44.6101C102.222 38.3239 100.525 32.9614 96.3177 28.9701L92.1881 33.3229ZM95.745 44.1337C95.523 46.896 94.6102 49.6393 92.9259 52.3858L98.0409 55.5224C100.165 52.058 101.42 48.4145 101.726 44.6143L95.745 44.1337ZM92.9152 52.4035C91.2189 55.2129 88.6739 58.2739 85.198 61.5802L89.3333 65.9276C93.0644 62.3785 95.9978 58.9062 98.0516 55.5047L92.9152 52.4035ZM85.2332 61.5473L78.5535 67.6996L82.6184 72.1129L89.2981 65.9605L85.2332 61.5473ZM78.5032 67.7471L68.5715 77.3271L72.7371 81.6455L82.6687 72.0654L78.5032 67.7471ZM70.6434 82.4863L94.8133 82.5742L94.8351 76.5742L70.6652 76.4863L70.6434 82.4863ZM91.8608 79.1069L90.0591 90.5327L95.9858 91.4673L97.7876 80.0415L91.8608 79.1069ZM122.554 91.8789L122.481 94.878L122.489 94.8782L122.554 91.8789ZM113.018 89.3301L111.458 91.8927L111.474 91.9026L111.49 91.9123L113.018 89.3301ZM106.777 82.167L104.055 83.4274L104.059 83.437L106.777 82.167ZM104.404 71.4004L107.403 71.3128L107.403 71.2958L107.402 71.2789L104.404 71.4004ZM104.668 64.8525L101.701 64.4087L101.695 64.4518L101.689 64.4951L104.668 64.8525ZM106.338 53.6904L103.371 53.2459L103.371 53.2466L106.338 53.6904ZM114.995 33.0801L117.19 35.1256L117.196 35.1188L114.995 33.0801ZM131.914 26.1367L131.85 29.136L131.851 29.1361L131.914 26.1367ZM144.966 31.7617L142.695 33.7216L142.704 33.7321L144.966 31.7617ZM150.063 46.6152L153.062 46.5342L153.062 46.5187L153.061 46.5032L150.063 46.6152ZM149.756 53.1631L152.721 53.621L152.728 53.5709L152.734 53.5205L149.756 53.1631ZM147.998 64.5449L145.033 64.087L145.033 64.0873L147.998 64.5449ZM139.253 85.1553L137.084 83.0825L137.077 83.0897L139.253 85.1553ZM135.605 51.1855L138.574 51.6203L138.578 51.5943L138.581 51.5681L135.605 51.1855ZM136.045 45.7803L139.044 45.8369L139.045 45.8086V45.7803H136.045ZM130.947 37.4746L131.102 34.4786L131.099 34.4784L130.947 37.4746ZM121.235 50.8779L124.203 51.3149L124.206 51.2999L124.208 51.285L121.235 50.8779ZM118.906 66.6982L115.938 66.2613L115.933 66.3003L115.928 66.3394L118.906 66.6982ZM118.467 72.1035L121.466 72.1846L121.467 72.144V72.1035H118.467ZM123.521 80.541L123.346 83.5359L123.359 83.5367L123.372 83.5373L123.521 80.541ZM133.32 66.7861L130.352 66.3513L130.349 66.3747L130.346 66.3981L133.32 66.7861ZM122.626 88.8798C119.429 88.8024 116.766 88.0617 114.545 86.7479L111.49 91.9123C114.718 93.8211 118.413 94.7796 122.481 94.878L122.626 88.8798ZM114.577 86.7675C112.436 85.4638 110.735 83.5501 109.495 80.8969L104.059 83.437C105.749 87.0534 108.209 89.9152 111.458 91.8927L114.577 86.7675ZM109.5 80.9066C108.229 78.1624 107.51 74.9819 107.403 71.3128L101.406 71.4879C101.533 75.8462 102.396 79.8434 104.055 83.4274L109.5 80.9066ZM107.402 71.2789C107.321 69.274 107.402 67.2515 107.647 65.21L101.689 64.4951C101.407 66.8481 101.312 69.1909 101.407 71.5219L107.402 71.2789ZM107.635 65.2964L109.305 54.1343L103.371 53.2466L101.701 64.4087L107.635 65.2964ZM109.305 54.135C110.597 45.5077 113.315 39.2828 117.19 35.1256L112.801 31.0346C107.828 36.3695 104.774 43.8848 103.371 53.2459L109.305 54.135ZM117.196 35.1188C121.002 31.0098 125.8 29.0068 131.85 29.136L131.978 23.1374C124.317 22.9737 117.835 25.5996 112.794 31.0413L117.196 35.1188ZM131.851 29.1361C136.717 29.2385 140.206 30.838 142.695 33.7216L147.237 29.8018C143.456 25.4198 138.244 23.2693 131.977 23.1374L131.851 29.1361ZM142.704 33.7321C145.297 36.7092 146.849 40.9337 147.066 46.7273L153.061 46.5032C152.809 39.7577 150.963 34.0798 147.228 29.7914L142.704 33.7321ZM147.065 46.6963C147.119 48.7148 147.024 50.7509 146.777 52.8057L152.734 53.5205C153.015 51.1808 153.125 48.8516 153.062 46.5342L147.065 46.6963ZM146.791 52.7052L145.033 64.087L150.963 65.0028L152.721 53.621L146.791 52.7052ZM145.033 64.0873C143.681 72.8473 140.934 79.054 137.084 83.0825L141.422 87.228C146.419 81.9987 149.502 74.4652 150.963 65.0025L145.033 64.0873ZM137.077 83.0897C133.301 87.0679 128.565 89.0089 122.619 88.8796L122.489 94.8782C130.019 95.0419 136.416 92.5005 141.429 87.2208L137.077 83.0897ZM138.581 51.5681C138.854 49.4422 139.012 47.5275 139.044 45.8369L133.045 45.7237C133.019 47.1386 132.884 48.8273 132.63 50.803L138.581 51.5681ZM139.045 45.7803C139.045 42.8682 138.599 40.1849 137.327 38.1136C135.932 35.8407 133.732 34.6147 131.102 34.4786L130.792 40.4706C131.561 40.5103 131.909 40.7565 132.214 41.2521C132.642 41.9494 133.045 43.331 133.045 45.7803H139.045ZM131.099 34.4784C127.41 34.2919 124.353 35.8673 122.179 38.8674C120.136 41.6864 118.92 45.6755 118.263 50.4709L124.208 51.285C124.811 46.8812 125.843 44.0368 127.037 42.3879C128.101 40.9203 129.269 40.3936 130.796 40.4708L131.099 34.4784ZM118.267 50.441L115.938 66.2613L121.874 67.1352L124.203 51.3149L118.267 50.441ZM115.928 66.3394C115.632 68.791 115.467 70.7418 115.467 72.1035H121.467C121.467 71.1214 121.594 69.4687 121.885 67.0571L115.928 66.3394ZM115.468 72.0225C115.388 74.9681 115.777 77.6994 117.047 79.8193C118.442 82.1492 120.684 83.3807 123.346 83.5359L123.695 77.5461C122.841 77.4963 122.483 77.219 122.194 76.7363C121.779 76.0438 121.399 74.6589 121.466 72.1846L115.468 72.0225ZM123.372 83.5373C127.116 83.7235 130.207 82.106 132.391 79.0408C134.443 76.1607 135.655 72.0839 136.295 67.1742L130.346 66.3981C129.755 70.922 128.719 73.8544 127.504 75.5593C126.421 77.0791 125.227 77.6222 123.669 77.5447L123.372 83.5373ZM136.289 67.2209L138.574 51.6203L132.637 50.7508L130.352 66.3513L136.289 67.2209Z" fill="#EF3829"/>
</g>
<defs>
<filter id="filter0_f" x="27" y="81.8613" width="156" height="26" filterUnits="userSpaceOnUse" color-interpolation-filters="sRGB">
<feFlood flood-opacity="0" result="BackgroundImageFix"/>
<feBlend mode="normal" in="SourceGraphic" in2="BackgroundImageFix" result="shape"/>
<feGaussianBlur stdDeviation="5" result="effect1_foregroundBlur"/>
</filter>
<clipPath id="clip0">
<rect width="277" height="105.82" fill="white"/>
</clipPath>
</defs>
</svg>
