<svg width="277" height="106" viewBox="0 0 277 106" fill="none" xmlns="http://www.w3.org/2000/svg">
<g clip-path="url(#clip0)">
<g filter="url(#filter0_f)">
<ellipse cx="86" cy="94" rx="68" ry="3" fill="#C4C4C4" fill-opacity="0.5"/>
</g>
<path d="M162.71 88.3779C161.909 89.3154 160.742 90.043 159.209 90.5605C157.676 91.0684 155.977 91.3076 154.111 91.2783C152.324 91.2588 150.815 90.8096 149.585 89.9307C148.354 89.0518 147.476 87.8262 146.948 86.2539C146.421 84.6816 146.279 82.9092 146.523 80.9365L146.641 80.0576C147.09 76.7471 148.252 74.125 150.127 72.1914C152.012 70.2578 154.316 69.3154 157.041 69.3643C159.424 69.4033 161.255 70.043 162.534 71.2832C163.813 72.5234 164.526 74.3154 164.673 76.6592L159.868 76.6445C159.8 75.502 159.517 74.667 159.019 74.1396C158.53 73.6123 157.832 73.334 156.924 73.3047C155.576 73.2559 154.463 73.7881 153.584 74.9014C152.705 76.0049 152.104 77.5869 151.782 79.6475C151.509 81.4053 151.411 82.7725 151.489 83.749C151.636 86.1025 152.695 87.2939 154.668 87.3232C155.859 87.3428 156.904 87.0547 157.803 86.459L158.462 83.1338H154.99L155.605 79.6035H164.087L162.71 88.3779ZM170.356 91H165.347L169.053 69.6719H174.048L170.356 91ZM191.626 88.3779C190.825 89.3154 189.658 90.043 188.125 90.5605C186.592 91.0684 184.893 91.3076 183.027 91.2783C181.24 91.2588 179.731 90.8096 178.501 89.9307C177.271 89.0518 176.392 87.8262 175.864 86.2539C175.337 84.6816 175.195 82.9092 175.439 80.9365L175.557 80.0576C176.006 76.7471 177.168 74.125 179.043 72.1914C180.928 70.2578 183.232 69.3154 185.957 69.3643C188.34 69.4033 190.171 70.043 191.45 71.2832C192.729 72.5234 193.442 74.3154 193.589 76.6592L188.784 76.6445C188.716 75.502 188.433 74.667 187.935 74.1396C187.446 73.6123 186.748 73.334 185.84 73.3047C184.492 73.2559 183.379 73.7881 182.5 74.9014C181.621 76.0049 181.021 77.5869 180.698 79.6475C180.425 81.4053 180.327 82.7725 180.405 83.749C180.552 86.1025 181.611 87.2939 183.584 87.3232C184.775 87.3428 185.82 87.0547 186.719 86.459L187.378 83.1338H183.906L184.521 79.6035H193.003L191.626 88.3779ZM206.45 87.0156H199.639L197.749 91H192.227L203.521 69.6719H208.237L212.178 91H206.963L206.45 87.0156ZM201.514 83.0459H205.938L205 75.6924L201.514 83.0459ZM225.625 85.2285C225.84 84.125 225.244 83.2705 223.838 82.665L221.436 81.6689C218.066 80.1553 216.465 78.0947 216.631 75.4873C216.699 74.2959 217.109 73.2363 217.861 72.3086C218.613 71.3711 219.653 70.6436 220.981 70.126C222.31 69.6084 223.76 69.3594 225.332 69.3789C227.441 69.418 229.136 70.0332 230.415 71.2246C231.704 72.416 232.339 74.0127 232.319 76.0146H227.339C227.368 75.1943 227.192 74.54 226.812 74.0518C226.44 73.5537 225.825 73.2949 224.966 73.2754C224.126 73.2559 223.384 73.4512 222.739 73.8613C222.095 74.2715 221.714 74.8232 221.597 75.5166C221.411 76.4932 222.134 77.2939 223.765 77.9189C225.405 78.5439 226.597 79.0811 227.339 79.5303C229.673 80.9268 230.767 82.8115 230.62 85.1846C230.542 86.415 230.146 87.4941 229.434 88.4219C228.721 89.3496 227.729 90.0674 226.46 90.5752C225.2 91.083 223.784 91.3271 222.212 91.3076C221.06 91.2881 219.99 91.1074 219.004 90.7656C218.018 90.4238 217.173 89.9258 216.47 89.2715C215.044 87.9531 214.36 86.2197 214.419 84.0713L219.443 84.0859C219.385 85.1797 219.595 86.0098 220.073 86.5762C220.552 87.1328 221.357 87.4111 222.49 87.4111C223.33 87.4111 224.028 87.2207 224.585 86.8398C225.151 86.4492 225.498 85.9121 225.625 85.2285Z" fill="#BBBBBB"/>
<path d="M88.0225 92H44.6484L46.2305 81.8047L68.9941 60.667L72.1143 57.5469C77.0068 52.625 79.248 47.9814 78.8379 43.6162C78.5156 40.2178 76.7578 38.4746 73.5645 38.3867C71.3086 38.3281 69.3896 39.251 67.8076 41.1553C66.2549 43.0303 65.2881 45.4912 64.9072 48.5381L50.5371 48.626C50.7715 44.6123 51.9873 40.9502 54.1846 37.6396C56.3818 34.2998 59.3115 31.6924 62.9736 29.8174C66.665 27.9424 70.5908 27.0195 74.751 27.0488C80.9912 27.166 85.8252 28.8652 89.2529 32.1465C92.6807 35.3984 94.1748 39.8076 93.7354 45.374C93.4717 48.6553 92.3877 51.8486 90.4834 54.9541C88.6084 58.0596 85.8691 61.3262 82.2656 64.7539L75.5859 70.9062L65.6543 80.4863L89.8242 80.5742L88.0225 92ZM101.294 60.5352L110.171 28.0156H146.646L144.8 39.5293H120.322L116.411 52.3174C118.784 50.7939 121.729 50.0029 125.244 49.9443C130.869 49.9443 135.19 51.8926 138.208 55.7891C141.255 59.6855 142.515 64.7832 141.987 71.082C141.46 77.5859 138.926 82.8887 134.385 86.9902C129.844 91.0625 124.351 93.04 117.905 92.9229C114.126 92.835 110.684 91.9561 107.578 90.2861C104.502 88.6162 102.114 86.3457 100.415 83.4746C98.7158 80.5742 97.8809 77.3369 97.9102 73.7627H112.324C112.383 76.0479 112.954 77.8789 114.038 79.2559C115.122 80.6328 116.646 81.3506 118.608 81.4092C121.011 81.4971 123.003 80.6035 124.585 78.7285C126.167 76.8242 127.178 73.9385 127.617 70.0713C127.91 66.8193 127.471 64.3584 126.299 62.6885C125.127 60.9893 123.296 60.1396 120.806 60.1396C117.612 60.1396 115.02 61.2236 113.027 63.3916L101.294 60.5352Z" fill="#EF3829"/>
<path d="M88.0225 92V95H90.5865L90.9858 92.4673L88.0225 92ZM44.6484 92L41.6839 91.54L41.147 95H44.6484V92ZM46.2305 81.8047L44.1891 79.6063L43.4257 80.3152L43.2659 81.3447L46.2305 81.8047ZM68.9941 60.667L71.0355 62.8654L71.0762 62.8276L71.1155 62.7883L68.9941 60.667ZM72.1143 57.5469L74.2356 59.6682L74.2419 59.6619L72.1143 57.5469ZM78.8379 43.6162L81.8247 43.3356L81.8245 43.333L78.8379 43.6162ZM73.5645 38.3867L73.647 35.3879L73.6423 35.3877L73.5645 38.3867ZM67.8076 41.1553L65.5 39.2382L65.497 39.2418L67.8076 41.1553ZM64.9072 48.5381L64.9256 51.538L67.5576 51.5219L67.8841 48.9102L64.9072 48.5381ZM50.5371 48.626L47.5422 48.4511L47.3557 51.6455L50.5555 51.6259L50.5371 48.626ZM54.1846 37.6396L56.6841 39.2987L56.6908 39.2885L54.1846 37.6396ZM62.9736 29.8174L61.615 27.1426L61.6064 27.147L62.9736 29.8174ZM74.751 27.0488L74.8073 24.0494L74.7897 24.049L74.7721 24.0489L74.751 27.0488ZM89.2529 32.1465L87.1784 34.3136L87.1881 34.3229L89.2529 32.1465ZM93.7354 45.374L96.7257 45.6143L96.726 45.6101L93.7354 45.374ZM90.4834 54.9541L87.9259 53.3858L87.9205 53.3947L87.9152 53.4035L90.4834 54.9541ZM82.2656 64.7539L84.2981 66.9605L84.3158 66.9442L84.3333 66.9276L82.2656 64.7539ZM75.5859 70.9062L73.5535 68.6996L73.5281 68.723L73.5032 68.7471L75.5859 70.9062ZM65.6543 80.4863L63.5715 78.3271L58.2509 83.4594L65.6434 83.4863L65.6543 80.4863ZM89.8242 80.5742L92.7876 81.0415L93.3324 77.587L89.8351 77.5742L89.8242 80.5742ZM88.0225 89H44.6484V95H88.0225V89ZM47.613 92.46L49.195 82.2647L43.2659 81.3447L41.6839 91.54L47.613 92.46ZM48.2718 84.0031L71.0355 62.8654L66.9528 58.4686L44.1891 79.6063L48.2718 84.0031ZM71.1155 62.7883L74.2356 59.6682L69.9929 55.4256L66.8728 58.5457L71.1155 62.7883ZM74.2419 59.6619C79.398 54.4748 82.3567 48.9975 81.8247 43.3356L75.851 43.8969C76.1394 46.9654 74.6156 50.7752 69.9866 55.4319L74.2419 59.6619ZM81.8245 43.333C81.6221 41.1982 80.9279 39.1546 79.3903 37.6298C77.8264 36.079 75.7769 35.4465 73.647 35.3879L73.4819 41.3856C74.5453 41.4149 74.9715 41.6979 75.1654 41.8902C75.3856 42.1086 75.7315 42.6358 75.8513 43.8994L81.8245 43.333ZM73.6423 35.3877C70.3701 35.3027 67.6042 36.7054 65.5 39.2382L70.1152 43.0723C71.1751 41.7965 72.2471 41.3535 73.4866 41.3857L73.6423 35.3877ZM65.497 39.2418C63.4957 41.6585 62.3637 44.6996 61.9304 48.166L67.8841 48.9102C68.2125 46.2828 69.014 44.402 70.1182 43.0687L65.497 39.2418ZM64.8889 45.5381L50.5188 45.626L50.5555 51.6259L64.9256 51.538L64.8889 45.5381ZM53.532 48.8009C53.7358 45.3104 54.784 42.1615 56.6841 39.2986L51.685 35.9807C49.1906 39.7389 47.8071 43.9142 47.5422 48.4511L53.532 48.8009ZM56.6908 39.2885C58.5945 36.3949 61.1263 34.1336 64.3408 32.4877L61.6064 27.147C57.4968 29.2512 54.1691 32.2048 51.6783 35.9908L56.6908 39.2885ZM64.3322 32.4921C67.5942 30.8353 71.0466 30.0228 74.7299 30.0488L74.7721 24.0489C70.1351 24.0162 65.7359 25.0495 61.615 27.1426L64.3322 32.4921ZM74.6946 30.0483C80.4251 30.1559 84.4486 31.7004 87.1784 34.3136L91.3274 29.9794C87.2018 26.03 81.5573 24.1761 74.8073 24.0494L74.6946 30.0483ZM87.1881 34.3229C89.8366 36.8355 91.1273 40.2914 90.7447 45.1379L96.726 45.6101C97.2223 39.3239 95.5248 33.9614 91.3177 29.9701L87.1881 34.3229ZM90.745 45.1337C90.523 47.896 89.6102 50.6393 87.9259 53.3858L93.0409 56.5224C95.1652 53.058 96.4203 49.4145 96.7257 45.6143L90.745 45.1337ZM87.9152 53.4035C86.2189 56.2129 83.6739 59.2739 80.198 62.5802L84.3333 66.9276C88.0644 63.3785 90.9978 59.9062 93.0516 56.5047L87.9152 53.4035ZM80.2332 62.5473L73.5535 68.6996L77.6184 73.1129L84.2981 66.9605L80.2332 62.5473ZM73.5032 68.7471L63.5715 78.3271L67.7371 82.6455L77.6687 73.0654L73.5032 68.7471ZM65.6434 83.4863L89.8133 83.5742L89.8351 77.5742L65.6652 77.4863L65.6434 83.4863ZM86.8608 80.1069L85.0591 91.5327L90.9858 92.4673L92.7876 81.0415L86.8608 80.1069ZM101.294 60.5352L98.3998 59.7451L97.5876 62.7205L100.584 63.45L101.294 60.5352ZM110.171 28.0156V25.0156H107.88L107.277 27.2256L110.171 28.0156ZM146.646 28.0156L149.608 28.4905L150.165 25.0156H146.646V28.0156ZM144.8 39.5293V42.5293H147.357L147.762 40.0042L144.8 39.5293ZM120.322 39.5293V36.5293H118.103L117.453 38.6519L120.322 39.5293ZM116.411 52.3174L113.542 51.44L111.151 59.2594L118.032 54.8419L116.411 52.3174ZM125.244 49.9443V46.9443H125.219L125.194 46.9448L125.244 49.9443ZM138.208 55.7891L135.836 57.626L135.845 57.637L138.208 55.7891ZM141.987 71.082L138.998 70.8317L138.997 70.8396L141.987 71.082ZM134.385 86.9902L136.388 89.2237L136.396 89.2165L134.385 86.9902ZM117.905 92.9229L117.836 95.922L117.843 95.9222L117.851 95.9224L117.905 92.9229ZM107.578 90.2861L106.147 92.9227L106.157 92.9283L107.578 90.2861ZM100.415 83.4746L97.8265 84.9911L97.8333 85.0026L100.415 83.4746ZM97.9102 73.7627V70.7627H94.9346L94.9103 73.7381L97.9102 73.7627ZM112.324 73.7627L115.323 73.6858L115.248 70.7627H112.324V73.7627ZM118.608 81.4092L118.718 78.4112L118.708 78.4108L118.698 78.4105L118.608 81.4092ZM124.585 78.7285L126.878 80.6631L126.885 80.6544L126.893 80.6456L124.585 78.7285ZM127.617 70.0713L130.598 70.41L130.602 70.3753L130.605 70.3405L127.617 70.0713ZM126.299 62.6885L123.829 64.3917L123.836 64.4017L123.843 64.4118L126.299 62.6885ZM113.027 63.3916L112.318 66.3065L114.038 66.7253L115.236 65.4215L113.027 63.3916ZM104.188 61.3252L113.065 28.8056L107.277 27.2256L98.3998 59.7451L104.188 61.3252ZM110.171 31.0156H146.646V25.0156H110.171V31.0156ZM143.683 27.5408L141.838 39.0544L147.762 40.0042L149.608 28.4905L143.683 27.5408ZM144.8 36.5293H120.322V42.5293H144.8V36.5293ZM117.453 38.6519L113.542 51.44L119.28 53.1948L123.191 40.4067L117.453 38.6519ZM118.032 54.8419C119.832 53.686 122.199 52.9955 125.294 52.9439L125.194 46.9448C121.258 47.0104 117.736 47.9019 114.79 49.7928L118.032 54.8419ZM125.244 52.9443C130.09 52.9443 133.472 54.5733 135.836 57.6259L140.58 53.9522C136.909 49.2118 131.648 46.9443 125.244 46.9443V52.9443ZM135.845 57.637C138.307 60.7862 139.48 65.0693 138.998 70.8317L144.977 71.3323C145.549 64.4971 144.203 58.5849 140.571 53.9411L135.845 57.637ZM138.997 70.8396C138.527 76.6371 136.308 81.2109 132.374 84.7639L136.396 89.2165C141.544 84.5665 144.393 78.5348 144.977 71.3245L138.997 70.8396ZM132.382 84.7568C128.44 88.2921 123.695 90.0276 117.96 89.9233L117.851 95.9224C125.007 96.0525 131.248 93.8329 136.388 89.2237L132.382 84.7568ZM117.975 89.9237C114.633 89.8459 111.659 89.0742 108.999 87.6439L106.157 92.9283C109.708 94.8379 113.619 95.824 117.836 95.922L117.975 89.9237ZM109.009 87.6496C106.385 86.2251 104.406 84.3276 102.997 81.9466L97.8333 85.0026C99.8226 88.3638 102.618 91.0073 106.147 92.9227L109.009 87.6496ZM103.004 81.9581C101.595 79.5547 100.885 76.8557 100.91 73.7873L94.9103 73.7381C94.8768 77.8181 95.8362 81.5937 97.8266 84.9911L103.004 81.9581ZM97.9102 76.7627H112.324V70.7627H97.9102V76.7627ZM109.325 73.8396C109.395 76.5745 110.09 79.0908 111.681 81.1115L116.395 77.4002C115.818 76.667 115.37 75.5212 115.323 73.6858L109.325 73.8396ZM111.681 81.1115C113.385 83.2759 115.789 84.3263 118.519 84.4078L118.698 78.4105C117.502 78.3748 116.859 77.9897 116.395 77.4002L111.681 81.1115ZM118.499 84.4072C121.845 84.5296 124.715 83.2262 126.878 80.6631L122.292 76.7939C121.291 77.9809 120.177 78.4646 118.718 78.4112L118.499 84.4072ZM126.893 80.6456C129.005 78.1029 130.127 74.5524 130.598 70.41L124.636 69.7326C124.228 73.3246 123.329 75.5456 122.277 76.8115L126.893 80.6456ZM130.605 70.3405C130.926 66.7808 130.516 63.4753 128.754 60.9652L123.843 64.4118C124.425 65.2415 124.895 66.8579 124.629 69.8021L130.605 70.3405ZM128.768 60.9853C126.917 58.3001 124.05 57.1396 120.806 57.1396V63.1396C122.542 63.1396 123.337 63.6784 123.829 64.3917L128.768 60.9853ZM120.806 57.1396C116.852 57.1396 113.43 58.5193 110.818 61.3617L115.236 65.4215C116.609 63.9279 118.373 63.1396 120.806 63.1396V57.1396ZM113.737 60.4767L102.004 57.6203L100.584 63.45L112.318 66.3065L113.737 60.4767Z" fill="#EF3829"/>
</g>
<defs>
<filter id="filter0_f" x="8" y="81" width="156" height="26" filterUnits="userSpaceOnUse" color-interpolation-filters="sRGB">
<feFlood flood-opacity="0" result="BackgroundImageFix"/>
<feBlend mode="normal" in="SourceGraphic" in2="BackgroundImageFix" result="shape"/>
<feGaussianBlur stdDeviation="5" result="effect1_foregroundBlur"/>
</filter>
<clipPath id="clip0">
<rect width="277" height="105.82" fill="white"/>
</clipPath>
</defs>
</svg>
