<svg width="277" height="106" viewBox="0 0 277 106" fill="none" xmlns="http://www.w3.org/2000/svg">
<g clip-path="url(#clip0)">
<g filter="url(#filter0_f)">
<ellipse cx="101" cy="94" rx="68" ry="3" fill="#C4C4C4" fill-opacity="0.5"/>
</g>
<path d="M103.022 92H59.6484L61.2305 81.8047L83.9941 60.667L87.1143 57.5469C92.0068 52.625 94.248 47.9814 93.8379 43.6162C93.5156 40.2178 91.7578 38.4746 88.5645 38.3867C86.3086 38.3281 84.3896 39.251 82.8076 41.1553C81.2549 43.0303 80.2881 45.4912 79.9072 48.5381L65.5371 48.626C65.7715 44.6123 66.9873 40.9502 69.1846 37.6396C71.3818 34.2998 74.3115 31.6924 77.9736 29.8174C81.665 27.9424 85.5908 27.0195 89.751 27.0488C95.9912 27.166 100.825 28.8652 104.253 32.1465C107.681 35.3984 109.175 39.8076 108.735 45.374C108.472 48.6553 107.388 51.8486 105.483 54.9541C103.608 58.0596 100.869 61.3262 97.2656 64.7539L90.5859 70.9062L80.6543 80.4863L104.824 80.5742L103.022 92ZM116.294 60.5352L125.171 28.0156H161.646L159.8 39.5293H135.322L131.411 52.3174C133.784 50.7939 136.729 50.0029 140.244 49.9443C145.869 49.9443 150.19 51.8926 153.208 55.7891C156.255 59.6855 157.515 64.7832 156.987 71.082C156.46 77.5859 153.926 82.8887 149.385 86.9902C144.844 91.0625 139.351 93.04 132.905 92.9229C129.126 92.835 125.684 91.9561 122.578 90.2861C119.502 88.6162 117.114 86.3457 115.415 83.4746C113.716 80.5742 112.881 77.3369 112.91 73.7627H127.324C127.383 76.0479 127.954 77.8789 129.038 79.2559C130.122 80.6328 131.646 81.3506 133.608 81.4092C136.011 81.4971 138.003 80.6035 139.585 78.7285C141.167 76.8242 142.178 73.9385 142.617 70.0713C142.91 66.8193 142.471 64.3584 141.299 62.6885C140.127 60.9893 138.296 60.1396 135.806 60.1396C132.612 60.1396 130.02 61.2236 128.027 63.3916L116.294 60.5352Z" fill="#EF3829"/>
<path d="M103.022 92V95H105.586L105.986 92.4673L103.022 92ZM59.6484 92L56.6839 91.54L56.147 95H59.6484V92ZM61.2305 81.8047L59.1891 79.6063L58.4257 80.3152L58.2659 81.3447L61.2305 81.8047ZM83.9941 60.667L86.0355 62.8654L86.0762 62.8276L86.1155 62.7883L83.9941 60.667ZM87.1143 57.5469L89.2356 59.6682L89.2419 59.6619L87.1143 57.5469ZM93.8379 43.6162L96.8247 43.3356L96.8245 43.333L93.8379 43.6162ZM88.5645 38.3867L88.647 35.3879L88.6423 35.3877L88.5645 38.3867ZM82.8076 41.1553L80.5 39.2382L80.497 39.2418L82.8076 41.1553ZM79.9072 48.5381L79.9256 51.538L82.5576 51.5219L82.8841 48.9102L79.9072 48.5381ZM65.5371 48.626L62.5422 48.4511L62.3557 51.6455L65.5555 51.6259L65.5371 48.626ZM69.1846 37.6396L71.6841 39.2987L71.6908 39.2885L69.1846 37.6396ZM77.9736 29.8174L76.615 27.1426L76.6064 27.147L77.9736 29.8174ZM89.751 27.0488L89.8073 24.0494L89.7897 24.049L89.7721 24.0489L89.751 27.0488ZM104.253 32.1465L102.178 34.3136L102.188 34.3229L104.253 32.1465ZM108.735 45.374L111.726 45.6143L111.726 45.6101L108.735 45.374ZM105.483 54.9541L102.926 53.3858L102.921 53.3947L102.915 53.4035L105.483 54.9541ZM97.2656 64.7539L99.2981 66.9605L99.3158 66.9442L99.3333 66.9276L97.2656 64.7539ZM90.5859 70.9062L88.5535 68.6996L88.5281 68.723L88.5032 68.7471L90.5859 70.9062ZM80.6543 80.4863L78.5715 78.3271L73.2509 83.4594L80.6434 83.4863L80.6543 80.4863ZM104.824 80.5742L107.788 81.0415L108.332 77.587L104.835 77.5742L104.824 80.5742ZM103.022 89H59.6484V95H103.022V89ZM62.613 92.46L64.195 82.2647L58.2659 81.3447L56.6839 91.54L62.613 92.46ZM63.2718 84.0031L86.0355 62.8654L81.9528 58.4686L59.1891 79.6063L63.2718 84.0031ZM86.1155 62.7883L89.2356 59.6682L84.9929 55.4256L81.8728 58.5457L86.1155 62.7883ZM89.2419 59.6619C94.398 54.4748 97.3567 48.9975 96.8247 43.3356L90.851 43.8969C91.1394 46.9654 89.6156 50.7752 84.9866 55.4319L89.2419 59.6619ZM96.8245 43.333C96.6221 41.1982 95.9279 39.1546 94.3903 37.6298C92.8264 36.079 90.7769 35.4465 88.647 35.3879L88.4819 41.3856C89.5453 41.4149 89.9715 41.6979 90.1654 41.8902C90.3856 42.1086 90.7315 42.6358 90.8513 43.8994L96.8245 43.333ZM88.6423 35.3877C85.3701 35.3027 82.6042 36.7054 80.5 39.2382L85.1152 43.0723C86.1751 41.7965 87.2471 41.3535 88.4866 41.3857L88.6423 35.3877ZM80.497 39.2418C78.4957 41.6585 77.3637 44.6996 76.9304 48.166L82.8841 48.9102C83.2125 46.2828 84.014 44.402 85.1182 43.0687L80.497 39.2418ZM79.8889 45.5381L65.5188 45.626L65.5555 51.6259L79.9256 51.538L79.8889 45.5381ZM68.532 48.8009C68.7358 45.3104 69.784 42.1615 71.6841 39.2986L66.685 35.9807C64.1906 39.7389 62.8071 43.9142 62.5422 48.4511L68.532 48.8009ZM71.6908 39.2885C73.5945 36.3949 76.1263 34.1336 79.3408 32.4877L76.6064 27.147C72.4968 29.2512 69.1691 32.2048 66.6783 35.9908L71.6908 39.2885ZM79.3322 32.4921C82.5942 30.8353 86.0466 30.0228 89.7299 30.0488L89.7721 24.0489C85.1351 24.0162 80.7359 25.0495 76.615 27.1426L79.3322 32.4921ZM89.6946 30.0483C95.4251 30.1559 99.4486 31.7004 102.178 34.3136L106.327 29.9794C102.202 26.03 96.5573 24.1761 89.8073 24.0494L89.6946 30.0483ZM102.188 34.3229C104.837 36.8355 106.127 40.2914 105.745 45.1379L111.726 45.6101C112.222 39.3239 110.525 33.9614 106.318 29.9701L102.188 34.3229ZM105.745 45.1337C105.523 47.896 104.61 50.6393 102.926 53.3858L108.041 56.5224C110.165 53.058 111.42 49.4145 111.726 45.6143L105.745 45.1337ZM102.915 53.4035C101.219 56.2129 98.6739 59.2739 95.198 62.5802L99.3333 66.9276C103.064 63.3785 105.998 59.9062 108.052 56.5047L102.915 53.4035ZM95.2332 62.5473L88.5535 68.6996L92.6184 73.1129L99.2981 66.9605L95.2332 62.5473ZM88.5032 68.7471L78.5715 78.3271L82.7371 82.6455L92.6687 73.0654L88.5032 68.7471ZM80.6434 83.4863L104.813 83.5742L104.835 77.5742L80.6652 77.4863L80.6434 83.4863ZM101.861 80.1069L100.059 91.5327L105.986 92.4673L107.788 81.0415L101.861 80.1069ZM116.294 60.5352L113.4 59.7451L112.588 62.7205L115.584 63.45L116.294 60.5352ZM125.171 28.0156V25.0156H122.88L122.277 27.2256L125.171 28.0156ZM161.646 28.0156L164.608 28.4905L165.165 25.0156H161.646V28.0156ZM159.8 39.5293V42.5293H162.357L162.762 40.0042L159.8 39.5293ZM135.322 39.5293V36.5293H133.103L132.453 38.6519L135.322 39.5293ZM131.411 52.3174L128.542 51.44L126.151 59.2594L133.032 54.8419L131.411 52.3174ZM140.244 49.9443V46.9443H140.219L140.194 46.9448L140.244 49.9443ZM153.208 55.7891L150.836 57.626L150.845 57.637L153.208 55.7891ZM156.987 71.082L153.998 70.8317L153.997 70.8396L156.987 71.082ZM149.385 86.9902L151.388 89.2237L151.396 89.2165L149.385 86.9902ZM132.905 92.9229L132.836 95.922L132.843 95.9222L132.851 95.9224L132.905 92.9229ZM122.578 90.2861L121.147 92.9227L121.157 92.9283L122.578 90.2861ZM115.415 83.4746L112.827 84.9911L112.833 85.0026L115.415 83.4746ZM112.91 73.7627V70.7627H109.935L109.91 73.7381L112.91 73.7627ZM127.324 73.7627L130.323 73.6858L130.248 70.7627H127.324V73.7627ZM133.608 81.4092L133.718 78.4112L133.708 78.4108L133.698 78.4105L133.608 81.4092ZM139.585 78.7285L141.878 80.6631L141.885 80.6544L141.893 80.6456L139.585 78.7285ZM142.617 70.0713L145.598 70.41L145.602 70.3753L145.605 70.3405L142.617 70.0713ZM141.299 62.6885L138.829 64.3917L138.836 64.4017L138.843 64.4118L141.299 62.6885ZM128.027 63.3916L127.318 66.3065L129.038 66.7253L130.236 65.4215L128.027 63.3916ZM119.188 61.3252L128.065 28.8056L122.277 27.2256L113.4 59.7451L119.188 61.3252ZM125.171 31.0156H161.646V25.0156H125.171V31.0156ZM158.683 27.5408L156.838 39.0544L162.762 40.0042L164.608 28.4905L158.683 27.5408ZM159.8 36.5293H135.322V42.5293H159.8V36.5293ZM132.453 38.6519L128.542 51.44L134.28 53.1948L138.191 40.4067L132.453 38.6519ZM133.032 54.8419C134.832 53.686 137.199 52.9955 140.294 52.9439L140.194 46.9448C136.258 47.0104 132.736 47.9019 129.79 49.7928L133.032 54.8419ZM140.244 52.9443C145.09 52.9443 148.472 54.5733 150.836 57.6259L155.58 53.9522C151.909 49.2118 146.648 46.9443 140.244 46.9443V52.9443ZM150.845 57.637C153.307 60.7862 154.48 65.0693 153.998 70.8317L159.977 71.3323C160.549 64.4971 159.203 58.5849 155.571 53.9411L150.845 57.637ZM153.997 70.8396C153.527 76.6371 151.308 81.2109 147.374 84.7639L151.396 89.2165C156.544 84.5665 159.393 78.5348 159.977 71.3245L153.997 70.8396ZM147.382 84.7568C143.44 88.2921 138.695 90.0276 132.96 89.9233L132.851 95.9224C140.007 96.0525 146.248 93.8329 151.388 89.2237L147.382 84.7568ZM132.975 89.9237C129.633 89.8459 126.659 89.0742 123.999 87.6439L121.157 92.9283C124.708 94.8379 128.619 95.824 132.836 95.922L132.975 89.9237ZM124.009 87.6496C121.385 86.2251 119.406 84.3276 117.997 81.9466L112.833 85.0026C114.823 88.3638 117.618 91.0073 121.147 92.9227L124.009 87.6496ZM118.004 81.9581C116.595 79.5547 115.885 76.8557 115.91 73.7873L109.91 73.7381C109.877 77.8181 110.836 81.5937 112.827 84.9911L118.004 81.9581ZM112.91 76.7627H127.324V70.7627H112.91V76.7627ZM124.325 73.8396C124.395 76.5745 125.09 79.0908 126.681 81.1115L131.395 77.4002C130.818 76.667 130.37 75.5212 130.323 73.6858L124.325 73.8396ZM126.681 81.1115C128.385 83.2759 130.789 84.3263 133.519 84.4078L133.698 78.4105C132.502 78.3748 131.859 77.9897 131.395 77.4002L126.681 81.1115ZM133.499 84.4072C136.845 84.5296 139.715 83.2262 141.878 80.6631L137.292 76.7939C136.291 77.9809 135.177 78.4646 133.718 78.4112L133.499 84.4072ZM141.893 80.6456C144.005 78.1029 145.127 74.5524 145.598 70.41L139.636 69.7326C139.228 73.3246 138.329 75.5456 137.277 76.8115L141.893 80.6456ZM145.605 70.3405C145.926 66.7808 145.516 63.4753 143.754 60.9652L138.843 64.4118C139.425 65.2415 139.895 66.8579 139.629 69.8021L145.605 70.3405ZM143.768 60.9853C141.917 58.3001 139.05 57.1396 135.806 57.1396V63.1396C137.542 63.1396 138.337 63.6784 138.829 64.3917L143.768 60.9853ZM135.806 57.1396C131.852 57.1396 128.43 58.5193 125.818 61.3617L130.236 65.4215C131.609 63.9279 133.373 63.1396 135.806 63.1396V57.1396ZM128.737 60.4767L117.004 57.6203L115.584 63.45L127.318 66.3065L128.737 60.4767Z" fill="#EF3829"/>
<path d="M177.71 88.3779C176.909 89.3154 175.742 90.043 174.209 90.5605C172.676 91.0684 170.977 91.3076 169.111 91.2783C167.324 91.2588 165.815 90.8096 164.585 89.9307C163.354 89.0518 162.476 87.8262 161.948 86.2539C161.421 84.6816 161.279 82.9092 161.523 80.9365L161.641 80.0576C162.09 76.7471 163.252 74.125 165.127 72.1914C167.012 70.2578 169.316 69.3154 172.041 69.3643C174.424 69.4033 176.255 70.043 177.534 71.2832C178.813 72.5234 179.526 74.3154 179.673 76.6592L174.868 76.6445C174.8 75.502 174.517 74.667 174.019 74.1396C173.53 73.6123 172.832 73.334 171.924 73.3047C170.576 73.2559 169.463 73.7881 168.584 74.9014C167.705 76.0049 167.104 77.5869 166.782 79.6475C166.509 81.4053 166.411 82.7725 166.489 83.749C166.636 86.1025 167.695 87.2939 169.668 87.3232C170.859 87.3428 171.904 87.0547 172.803 86.459L173.462 83.1338H169.99L170.605 79.6035H179.087L177.71 88.3779ZM185.356 91H180.347L184.053 69.6719H189.048L185.356 91ZM206.626 88.3779C205.825 89.3154 204.658 90.043 203.125 90.5605C201.592 91.0684 199.893 91.3076 198.027 91.2783C196.24 91.2588 194.731 90.8096 193.501 89.9307C192.271 89.0518 191.392 87.8262 190.864 86.2539C190.337 84.6816 190.195 82.9092 190.439 80.9365L190.557 80.0576C191.006 76.7471 192.168 74.125 194.043 72.1914C195.928 70.2578 198.232 69.3154 200.957 69.3643C203.34 69.4033 205.171 70.043 206.45 71.2832C207.729 72.5234 208.442 74.3154 208.589 76.6592L203.784 76.6445C203.716 75.502 203.433 74.667 202.935 74.1396C202.446 73.6123 201.748 73.334 200.84 73.3047C199.492 73.2559 198.379 73.7881 197.5 74.9014C196.621 76.0049 196.021 77.5869 195.698 79.6475C195.425 81.4053 195.327 82.7725 195.405 83.749C195.552 86.1025 196.611 87.2939 198.584 87.3232C199.775 87.3428 200.82 87.0547 201.719 86.459L202.378 83.1338H198.906L199.521 79.6035H208.003L206.626 88.3779ZM221.45 87.0156H214.639L212.749 91H207.227L218.521 69.6719H223.237L227.178 91H221.963L221.45 87.0156ZM216.514 83.0459H220.938L220 75.6924L216.514 83.0459ZM240.625 85.2285C240.84 84.125 240.244 83.2705 238.838 82.665L236.436 81.6689C233.066 80.1553 231.465 78.0947 231.631 75.4873C231.699 74.2959 232.109 73.2363 232.861 72.3086C233.613 71.3711 234.653 70.6436 235.981 70.126C237.31 69.6084 238.76 69.3594 240.332 69.3789C242.441 69.418 244.136 70.0332 245.415 71.2246C246.704 72.416 247.339 74.0127 247.319 76.0146H242.339C242.368 75.1943 242.192 74.54 241.812 74.0518C241.44 73.5537 240.825 73.2949 239.966 73.2754C239.126 73.2559 238.384 73.4512 237.739 73.8613C237.095 74.2715 236.714 74.8232 236.597 75.5166C236.411 76.4932 237.134 77.2939 238.765 77.9189C240.405 78.5439 241.597 79.0811 242.339 79.5303C244.673 80.9268 245.767 82.8115 245.62 85.1846C245.542 86.415 245.146 87.4941 244.434 88.4219C243.721 89.3496 242.729 90.0674 241.46 90.5752C240.2 91.083 238.784 91.3271 237.212 91.3076C236.06 91.2881 234.99 91.1074 234.004 90.7656C233.018 90.4238 232.173 89.9258 231.47 89.2715C230.044 87.9531 229.36 86.2197 229.419 84.0713L234.443 84.0859C234.385 85.1797 234.595 86.0098 235.073 86.5762C235.552 87.1328 236.357 87.4111 237.49 87.4111C238.33 87.4111 239.028 87.2207 239.585 86.8398C240.151 86.4492 240.498 85.9121 240.625 85.2285Z" fill="url(#paint0_linear)"/>
<g clip-path="url(#clip1)">
<path d="M66.0542 91.4114L66.1177 90.8465L66.9139 83.5755L65.7184 83.5058C65.6642 83.4835 65.6101 83.4612 65.5591 83.4825L65.5336 83.4931L51.3358 82.6544L52.5277 94.9437L65.6381 95.0395L66.0542 91.4114Z" fill="#262C38"/>
<path d="M60.6539 83.1958C60.9127 85.6451 61.5771 91.8285 61.9264 95.0327L55.7608 94.9868L57.9114 83.0384L60.6539 83.1958Z" fill="#00F0E9"/>
<path opacity="0.19" d="M51.3358 82.6549L66.9033 83.5505L66.429 87.9356C61.5396 87.5071 56.6246 87.0892 51.7352 86.6607L51.3358 82.6549Z" fill="#248D8A"/>
<path d="M69.3648 80.9542L67.5165 84.9851L50.2057 84.4277L48.6341 80.1929L69.3648 80.9542Z" fill="#262C38"/>
<path d="M61.4578 80.6763L60.8231 84.7844L57.6198 84.6696L57.385 80.5204L61.4578 80.6763Z" fill="#4D8493"/>
<path d="M59.723 80.533C61.5758 80.4931 63.4177 80.0689 65.0749 79.2731C65.7851 78.9321 66.5218 78.4753 66.7286 77.7161C66.9503 76.9208 66.5306 76.0939 66.128 75.3794C66.0175 75.1862 65.907 74.993 65.7891 74.8179C65.4248 74.2669 64.9766 73.7659 64.3512 73.5931C63.3605 73.3332 62.0378 74.0344 61.3489 74.7853C60.0148 76.2838 59.8339 78.4678 59.7092 80.4639C59.7379 80.4968 59.7305 80.5149 59.723 80.533ZM59.9225 80.1507C60.417 79.2565 61.1712 77.0128 64.3389 75.2133C64.4441 75.5732 63.6672 76.4355 63.6057 76.7902C63.4541 77.4666 63.0349 78.0751 62.5371 78.5668C61.8047 79.3209 60.9077 79.8594 59.9225 80.1507Z" fill="#00F0E9"/>
<path d="M59.9225 80.1502C60.8971 79.8335 61.8121 79.3023 62.5297 78.5844C63.0275 78.0926 63.4467 77.4841 63.5983 76.8078C63.6852 76.4425 63.6745 76.0581 63.5693 75.6983C64.2593 75.2011 65.013 74.8569 65.8072 74.8248C65.9251 75 66.0356 75.1932 66.146 75.3864C66.5667 76.1082 66.9863 76.9352 66.7466 77.7231C66.5218 78.4749 65.8031 78.9391 65.0929 79.2801C63.4177 80.0684 61.5757 80.4926 59.7411 80.5399C59.723 80.5325 59.8005 80.3955 59.9225 80.1502Z" fill="#4D8493"/>
<path d="M52.532 78.2074C52.7966 78.9494 53.5792 79.3559 54.3013 79.6529C56.0236 80.3404 57.8839 80.6414 59.7334 80.558C59.4812 78.5545 58.7776 76.3655 57.3524 74.9559C56.6344 74.2384 55.6075 73.6048 54.6435 73.947C54.0289 74.1585 53.6213 74.6874 53.2966 75.2714C53.1969 75.4626 53.0897 75.6718 52.9899 75.8629C52.6132 76.5733 52.2461 77.4143 52.532 78.2074ZM55.5626 75.9715C57.4327 77.1208 58.941 79.3032 59.487 80.1822C58.4889 79.9404 57.5618 79.4746 56.7855 78.7964C56.2609 78.3273 55.7988 77.7573 55.5916 77.081C55.5044 76.7285 55.4756 76.3367 55.5626 75.9715Z" fill="#00F0E9"/>
<path d="M59.5127 80.1718C58.5146 79.93 57.5875 79.4642 56.8112 78.786C56.2865 78.3169 55.8245 77.7469 55.6173 77.0706C55.512 76.7107 55.5013 76.3263 55.5702 75.9537C54.8459 75.5079 54.0803 75.2141 53.2755 75.2207C53.1758 75.4118 53.0686 75.621 52.9689 75.8122C52.6028 76.5481 52.2283 77.4071 52.5141 78.2002C52.7787 78.9423 53.5614 79.3487 54.2834 79.6457C56.0058 80.3332 57.866 80.6342 59.7156 80.5508C59.723 80.5327 59.6518 80.3979 59.5127 80.1718Z" fill="#4D8493"/>
<path d="M59.6646 80.5727C60.0191 80.2753 60.8855 80.2729 61.2858 80.4798C61.6968 80.7122 61.9867 81.0848 62.2332 81.4606C62.4722 81.8544 62.7038 82.2663 63.0267 82.6102C63.4823 83.0931 64.1173 83.3966 64.7692 83.4537C64.0855 83.679 63.5889 84.4245 62.8489 84.4789C62.2575 84.5311 61.7254 84.08 61.4078 83.5694C61.1157 83.0482 60.9838 82.4452 60.7681 81.8921C60.5779 81.3284 60.2316 80.7849 59.6646 80.5727Z" fill="#00F0E9"/>
<g opacity="0.25">
<path opacity="0.25" d="M59.6646 80.5727C60.0191 80.2753 60.8855 80.2729 61.2858 80.4798C61.6968 80.7122 61.9867 81.0848 62.2332 81.4606C62.4722 81.8544 62.7038 82.2663 63.0267 82.6102C63.4823 83.0931 64.1173 83.3966 64.7692 83.4537C64.0855 83.679 63.5889 84.4245 62.8489 84.4789C62.2575 84.5311 61.7254 84.08 61.4078 83.5694C61.1157 83.0482 60.9838 82.4452 60.7681 81.8921C60.5779 81.3284 60.2316 80.7849 59.6646 80.5727Z" fill="#00F0E9"/>
</g>
<path d="M64.6392 81.5643C64.9153 81.509 64.8397 81.0769 64.5637 81.1322C64.2877 81.1875 64.3632 81.6196 64.6392 81.5643Z" fill="#3CBCB5"/>
<path d="M66.8025 83.1286C67.122 83.0701 67.0253 82.587 66.7057 82.6455C66.4042 82.7114 66.501 83.1945 66.8025 83.1286Z" fill="#3CBCB5"/>
<path d="M67.6047 81.8964C67.6153 81.9219 67.6259 81.9474 67.6546 81.9803C67.7045 82.0642 67.78 82.1374 67.8299 82.2213C67.8766 82.2616 67.9233 82.3019 67.9849 82.3061C68.0465 82.3104 68.1155 82.2965 68.1558 82.2498C68.1813 82.2392 68.1962 82.2031 68.2036 82.185C68.2185 82.1489 68.2259 82.1309 68.2407 82.0948C68.2556 82.0587 68.245 82.0332 68.2343 82.0077C68.2237 81.9822 68.2131 81.9568 68.1844 81.9239C68.1345 81.84 68.0591 81.7668 68.0017 81.7009C67.955 81.6606 67.9008 81.6383 67.8467 81.6161C67.7851 81.6118 67.7341 81.6331 67.6758 81.6724C67.6503 81.683 67.6354 81.7191 67.628 81.7372C67.6132 81.7733 67.6057 81.7913 67.5909 81.8274C67.5909 81.8274 67.5941 81.8709 67.6047 81.8964Z" fill="#3CBCB5"/>
<path d="M52.8713 82.8215C53.1473 82.7662 53.0718 82.3341 52.7958 82.3894C52.5017 82.4373 52.5952 82.8768 52.8713 82.8215Z" fill="#3CBCB5"/>
<path d="M54.783 81.9203C55.1026 81.8618 55.0058 81.3787 54.6863 81.4372C54.3741 81.4776 54.4635 81.9787 54.783 81.9203Z" fill="#3CBCB5"/>
<path d="M55.8554 81.622C55.8661 81.6475 55.8767 81.673 55.9054 81.7059C55.9553 81.7897 56.0307 81.863 56.0806 81.9468C56.1273 81.9872 56.1741 82.0275 56.2357 82.0317C56.2972 82.036 56.3662 82.0221 56.4066 81.9754C56.4321 81.9648 56.4469 81.9287 56.4543 81.9106C56.4692 81.8745 56.4766 81.8565 56.4915 81.8204C56.5063 81.7843 56.4957 81.7588 56.4851 81.7333C56.4744 81.7078 56.4638 81.6823 56.4351 81.6494C56.3852 81.5656 56.3098 81.4923 56.2525 81.4265C56.2057 81.3862 56.1516 81.3639 56.0974 81.3416C56.0358 81.3374 55.9849 81.3587 55.9265 81.398C55.901 81.4086 55.8862 81.4447 55.8787 81.4627C55.8639 81.4988 55.8565 81.5169 55.8416 81.553C55.8416 81.553 55.8522 81.5785 55.8554 81.622Z" fill="#3CBCB5"/>
<path d="M50.792 81.5651C50.4724 81.6236 50.5692 82.1067 50.8888 82.0482C51.1903 81.9823 51.0935 81.4992 50.792 81.5651Z" fill="#3CBCB5"/>
<path d="M52.4321 83.9918C52.4788 84.0321 52.5255 84.0724 52.5871 84.0767C52.6487 84.0809 52.7177 84.0671 52.758 84.0203C52.7835 84.0097 52.7984 83.9736 52.8058 83.9555C52.8206 83.9194 52.8281 83.9014 52.8429 83.8653C52.8578 83.8292 52.8471 83.8037 52.8365 83.7782C52.8259 83.7527 52.8153 83.7273 52.7866 83.6944C52.7367 83.6105 52.6613 83.5373 52.6039 83.4715C52.5572 83.4311 52.503 83.4088 52.4489 83.3866C52.3873 83.3823 52.3363 83.4036 52.2779 83.4429C52.2525 83.4535 52.2376 83.4896 52.2302 83.5077C52.2153 83.5438 52.2079 83.5618 52.193 83.5979C52.1782 83.634 52.1888 83.6595 52.1994 83.685C52.2101 83.7105 52.2207 83.7359 52.2494 83.7689C52.3141 83.8166 52.3821 83.9079 52.4321 83.9918Z" fill="#3CBCB5"/>
<path d="M59.7951 80.5625C59.417 80.3015 58.5613 80.3293 58.16 80.5864C57.7662 80.8254 57.4977 81.2215 57.2833 81.6399C57.0509 82.0509 56.8546 82.4767 56.5649 82.8219C56.1467 83.3252 55.5342 83.6854 54.8664 83.7694C55.5715 83.954 56.1047 84.6588 56.8404 84.666C57.4276 84.6754 57.9435 84.1911 58.2024 83.6644C58.4687 83.1196 58.5471 82.5187 58.7338 81.9622C58.9279 81.3878 59.2526 80.8037 59.7951 80.5625Z" fill="#00F0E9"/>
<g opacity="0.25">
<path opacity="0.25" d="M59.7951 80.5625C59.417 80.3015 58.5613 80.3293 58.16 80.5864C57.7662 80.8254 57.4977 81.2215 57.2833 81.6399C57.0509 82.0509 56.8546 82.4767 56.5649 82.8219C56.1467 83.3252 55.5342 83.6854 54.8664 83.7694C55.5715 83.954 56.1047 84.6588 56.8404 84.666C57.4276 84.6754 57.9435 84.1911 58.2024 83.6644C58.4687 83.1196 58.5471 82.5187 58.7338 81.9622C58.9279 81.3878 59.2526 80.8037 59.7951 80.5625Z" fill="#00F0E9"/>
</g>
<path d="M59.0975 80.3603C59.158 80.1108 59.3202 79.4599 59.5888 79.4227C59.9265 79.3716 60.2017 80.1391 60.2209 80.4003C60.2689 81.0533 58.9056 81.0834 59.0975 80.3603Z" fill="#ABCDD6"/>
</g>
<g clip-path="url(#clip2)">
<path d="M46.8757 95.1111C47.1842 95.4245 47.4771 95.7534 47.77 96.0823C47.9551 96.2703 48.1248 96.4427 48.31 96.6308C48.3717 96.6934 48.4645 96.7564 48.4013 96.8803C48.3225 97.0196 48.1986 96.9564 48.1209 96.9403C47.5004 96.7488 46.8956 96.5419 46.2907 96.335C46.2442 96.3191 46.1977 96.3032 46.1357 96.2716C45.994 96.5037 45.8522 96.7359 45.7104 96.968C45.5686 97.2002 45.3958 97.4321 45.254 97.6642C45.1754 97.7724 45.0664 97.7871 44.9893 97.7088C44.9276 97.6461 44.9126 97.5682 44.8823 97.4747C44.8071 97.1475 44.7165 96.8047 44.6726 96.4467C44.6432 96.2288 44.5509 96.1037 44.3491 96.0554C44.0078 95.9594 43.6821 95.848 43.3718 95.7523C43.2633 95.7048 43.1703 95.673 43.0775 95.61C42.8919 95.4842 42.9399 95.3135 43.1585 95.1908C43.2523 95.1293 43.3613 95.1146 43.4705 95.0688C43.8603 94.932 44.2502 94.7951 44.64 94.6582C44.9052 94.5514 44.9209 94.536 44.9231 94.2561C44.9419 93.8364 44.9764 93.4012 44.9798 92.9658C44.9801 92.9347 44.9649 92.888 44.9808 92.8414C45.0281 92.7641 45.0601 92.6399 45.138 92.625C45.2005 92.5944 45.3246 92.6264 45.3706 92.7045C45.4938 92.861 45.5859 93.0172 45.6934 93.1891C45.878 93.4394 46.0627 93.6897 46.2473 93.9399C46.3396 94.065 46.4484 94.0814 46.62 94.005C46.9477 93.8677 47.2751 93.7614 47.6181 93.6397C47.7273 93.5939 47.8206 93.5946 47.8975 93.7041C47.959 93.7978 47.8961 93.8906 47.8177 93.9678C47.4884 94.3229 47.1899 94.7093 46.8757 95.1111Z" fill="#00F0E9"/>
</g>
<g clip-path="url(#clip3)">
<path d="M213.105 59.6199C213.105 59.079 213.132 58.5381 213.159 57.9971C213.159 57.6726 213.159 57.3751 213.159 57.0505C213.159 56.9423 213.132 56.8071 213.295 56.753C213.484 56.6989 213.538 56.8612 213.592 56.9423C213.971 57.6455 214.322 58.3488 214.674 59.052C214.701 59.1061 214.728 59.1601 214.755 59.2413C215.08 59.1601 215.404 59.079 215.729 58.9979C216.053 58.9167 216.405 58.8626 216.73 58.7815C216.892 58.7544 217 58.8356 217 58.9708C217 59.079 216.946 59.1601 216.892 59.2683C216.675 59.6199 216.459 59.9986 216.189 60.3502C216.026 60.5666 215.999 60.7559 216.135 60.9723C216.351 61.3509 216.54 61.7296 216.73 62.0812C216.784 62.2164 216.838 62.3246 216.865 62.4598C216.919 62.7303 216.73 62.8385 216.432 62.7573C216.297 62.7303 216.189 62.6492 216.053 62.5951C215.594 62.3787 215.134 62.1623 214.674 61.9459C214.349 61.8107 214.322 61.8107 214.079 62.0541C213.7 62.4057 213.295 62.7573 212.916 63.136C212.889 63.163 212.862 63.2171 212.808 63.2442C212.7 63.2712 212.564 63.3524 212.483 63.2983C212.402 63.2712 212.321 63.136 212.348 63.0278C212.375 62.7844 212.429 62.568 212.483 62.3246C212.537 61.9459 212.591 61.5673 212.646 61.1886C212.673 60.9993 212.591 60.8911 212.375 60.81C211.969 60.6477 211.591 60.4584 211.185 60.2691C211.05 60.215 210.969 60.1338 210.996 59.9715C211.023 59.8363 211.158 59.8093 211.293 59.8093C211.888 59.7822 212.483 59.7011 213.105 59.6199Z" fill="#00F0E9"/>
</g>
<g clip-path="url(#clip4)">
<path d="M215.042 16C214.394 15.9718 214 15.6338 214 15.0704C214 14.4789 214.479 14 215.042 14C215.634 14 216.085 14.4225 216.085 14.9859C216.056 15.5775 215.634 16 215.042 16Z" fill="#262C38"/>
</g>
<g clip-path="url(#clip5)">
<path d="M239.409 31C238.437 30.9577 237.846 30.4507 237.846 29.6056C237.846 28.7183 238.564 28 239.409 28C240.296 28 240.972 28.6338 240.972 29.4789C240.93 30.3662 240.296 31 239.409 31Z" fill="#262C38"/>
</g>
<g clip-path="url(#clip6)">
<path d="M259.563 82C258.592 81.9577 258 81.4507 258 80.6056C258 79.7183 258.718 79 259.563 79C260.451 79 261.127 79.6338 261.127 80.4789C261.085 81.3662 260.451 82 259.563 82Z" fill="#262C38"/>
</g>
<path d="M259.711 94.2163C259.75 94.2238 259.634 94.4032 259.317 94.5836C259.038 94.7717 258.55 94.9997 257.936 95.0421C257.323 95.0844 256.545 94.9334 255.882 94.4012C255.219 93.8689 254.779 93.0169 254.634 92.101C254.561 91.6431 254.535 91.1538 254.664 90.6947C254.71 90.4614 254.84 90.2043 254.963 89.9861C255.086 89.7678 255.287 89.5647 255.481 89.4005C255.906 89.0796 256.464 88.9055 257.001 89.05C257.577 89.2021 257.968 89.6816 258.111 90.1935C258.182 90.4494 258.168 90.7292 258.069 91.0327C257.977 91.2974 257.776 91.5005 257.544 91.6572C257.087 91.9317 256.637 91.9653 256.248 91.8898C255.891 91.8608 255.548 91.754 255.291 91.6234C255.034 91.4928 254.808 91.4086 254.629 91.2931C253.904 90.8699 253.256 90.2599 252.856 89.6174C252.456 88.9749 252.266 88.2923 252.255 87.7253C252.244 87.1582 252.373 86.6991 252.511 86.4031C252.681 86.1536 252.82 86.0596 252.859 86.0671C253.007 86.1362 252.77 86.7357 252.946 87.698C253.057 88.1635 253.239 88.683 253.623 89.2013C253.967 89.7121 254.522 90.1828 255.137 90.5444C255.278 90.6524 255.504 90.7366 255.722 90.8596C255.948 90.9438 256.173 91.028 256.446 91.0808C256.99 91.1865 257.439 90.9508 257.328 90.4854C257.295 90.2369 257.061 89.9897 256.828 89.9444C256.563 89.8527 256.222 89.9478 255.943 90.1359C255.664 90.3239 255.449 90.6048 255.373 90.9937C255.266 91.3361 255.269 91.74 255.31 92.1515C255.4 92.9357 255.738 93.6873 256.214 94.1429C256.73 94.6061 257.376 94.8122 257.943 94.8012C258.502 94.8291 258.936 94.6713 259.246 94.5297C259.533 94.3027 259.672 94.2087 259.711 94.2163Z" fill="#262C38"/>
<circle cx="231.5" cy="67.5" r="1.5" fill="#FF0B53"/>
<path d="M250.648 39.0144C247.627 40.3987 244.024 39.0785 242.63 36.0362L238.523 37.9184L245.823 53.8469C246.669 55.694 245.857 57.8806 244.01 58.7271C242.163 59.5736 239.976 58.7613 239.13 56.9142C238.283 55.0671 239.096 52.8806 240.943 52.0341C241.29 51.8747 241.702 51.7389 242.077 51.6982L240.155 47.5042C239.788 47.6201 239.43 47.7577 239.061 47.927C234.932 49.8192 233.119 54.6993 235.011 58.8281C236.903 62.957 241.783 64.7698 245.912 62.8776C250.041 60.9854 251.854 56.1053 249.962 51.9765L246.098 43.545C248.155 44.0748 250.406 43.9372 252.492 42.9812L250.669 39.0045L250.648 39.0144Z" fill="#FF0B53"/>
<path d="M248.946 38.4012C245.904 39.7954 242.313 38.4435 240.929 35.4229L236.822 37.3051L244.122 53.2336C244.968 55.0807 244.156 57.2673 242.309 58.1138C240.462 58.9603 238.275 58.1481 237.429 56.301C236.582 54.4539 237.394 52.2673 239.241 51.4208C239.589 51.2615 240 51.1257 240.376 51.0849L238.454 46.8909C238.086 47.0068 237.729 47.1444 237.359 47.3137C233.22 49.1842 231.408 54.0643 233.3 58.1931C235.192 62.3219 240.072 64.1348 244.201 62.2426C248.33 60.3504 250.143 55.4703 248.25 51.3415L244.386 42.91C246.444 43.4398 248.694 43.3022 250.781 42.3462L248.968 38.3912L248.946 38.4012Z" fill="#00F0E9"/>
<path d="M249.414 39.4218C247.959 39.7468 246.459 39.5141 245.189 38.8078C243.765 38.5135 242.477 37.7103 241.587 36.5142L238.523 37.9184L245.823 53.8469C246.669 55.694 245.857 57.8806 244.01 58.7271C242.793 59.2848 241.408 59.1308 240.373 58.4218C239.126 58.2832 237.986 57.5172 237.419 56.2786C236.572 54.4315 237.384 52.2449 239.232 51.3984C239.579 51.2391 239.99 51.1033 240.366 51.0625L238.952 47.9768C234.896 49.9142 233.129 54.7211 235.011 58.8281C235.818 60.5883 237.173 61.9393 238.782 62.7533C240.532 63.1871 242.419 63.0586 244.201 62.2419C248.33 60.3498 250.143 55.4696 248.25 51.3408L244.386 42.9093C246.444 43.4391 248.694 43.3016 250.781 42.3455L249.436 39.4119L249.414 39.4218Z" fill="#262C38"/>
<path d="M200.912 48.4992C200.969 48.5344 200.68 48.7467 200.073 48.8394C199.522 48.9674 198.619 49.0324 197.63 48.7305C196.642 48.4286 195.511 47.7246 194.789 46.4906C194.067 45.2566 193.888 43.6547 194.211 42.1296C194.372 41.3671 194.624 40.5832 195.103 39.9401C195.315 39.601 195.674 39.2757 195.998 39.007C196.322 38.7382 196.76 38.5399 197.162 38.3981C198.023 38.1496 199.004 38.2115 199.76 38.7608C200.573 39.3453 200.899 40.3329 200.816 41.2224C200.774 41.6672 200.584 42.098 200.246 42.515C199.943 42.8755 199.506 43.0738 199.047 43.1804C198.165 43.3372 197.438 43.1195 196.873 42.7676C196.329 42.5073 195.855 42.134 195.53 41.7746C195.205 41.4151 194.901 41.1474 194.688 40.8584C193.804 39.7587 193.153 38.4117 192.911 37.1628C192.669 35.9139 192.78 34.7279 193.103 33.831C193.426 32.9341 193.905 32.291 194.3 31.9092C194.716 31.6192 194.991 31.5552 195.047 31.5904C195.238 31.7877 194.506 32.5865 194.205 34.2033C194.1 35.001 194.073 35.9257 194.364 36.9698C194.599 37.9788 195.187 39.0507 195.936 39.9882C196.092 40.242 196.396 40.5097 196.665 40.834C196.969 41.1017 197.273 41.3694 197.668 41.6158C198.46 42.1085 199.306 42.0083 199.411 41.2106C199.509 40.8011 199.289 40.2721 198.95 40.0609C198.59 39.758 197.997 39.7025 197.447 39.8304C196.896 39.9584 196.389 40.2698 196.037 40.835C195.663 41.3085 195.424 41.9441 195.242 42.6149C194.912 43.9001 194.992 45.2834 195.467 46.2848C195.998 47.3215 196.888 48.0329 197.785 48.3561C198.647 48.7359 199.423 48.7487 199.995 48.7125C200.58 48.528 200.856 48.4641 200.912 48.4992Z" fill="#FF0B53"/>
<g clip-path="url(#clip7)">
<path d="M39.2148 14.7758C39.209 14.7259 39.4702 14.7967 39.8103 15.1113C40.1446 15.376 40.6077 15.8786 40.8943 16.6041C41.181 17.3296 41.297 18.3278 40.9081 19.3342C40.5192 20.3405 39.6579 21.1994 38.6062 21.7264C38.0804 21.9898 37.4988 22.2092 36.8941 22.2289C36.5946 22.2637 36.2336 22.2045 35.9225 22.1394C35.6114 22.0744 35.2888 21.9096 35.016 21.7389C34.4647 21.3477 34.0399 20.7395 34.0086 20.0349C33.9715 19.2804 34.401 18.6234 34.9651 18.2543C35.2472 18.0698 35.5908 17.9793 35.9959 17.9828C36.3511 17.9921 36.6738 18.1569 36.9523 18.3775C37.4595 18.8244 37.6731 19.3561 37.7311 19.8552C37.8332 20.2986 37.8355 20.7536 37.7763 21.1146C37.7171 21.4756 37.702 21.7809 37.6312 22.042C37.3978 23.0809 36.9091 24.0989 36.2857 24.8289C35.6623 25.559 34.9101 26.0511 34.2288 26.2821C33.5474 26.513 32.9426 26.5327 32.5317 26.4793C32.1649 26.3702 31.9978 26.2379 31.992 26.1879C32.0187 25.9825 32.8347 26.0394 33.9305 25.4568C34.4505 25.1434 35.0089 24.7244 35.4883 24.0616C35.9735 23.4488 36.3299 22.598 36.5308 21.7146C36.6074 21.5034 36.6225 21.1981 36.6875 20.887C36.7026 20.5818 36.7177 20.2765 36.6771 19.9271C36.5959 19.2283 36.1386 18.7756 35.6186 19.089C35.3307 19.2236 35.1217 19.602 35.1566 19.9015C35.1472 20.2567 35.3933 20.6328 35.7276 20.8974C36.0619 21.1621 36.4844 21.3153 36.9835 21.2573C37.4385 21.255 37.926 21.0972 38.4078 20.8894C39.3213 20.4798 40.1002 19.7822 40.4682 19.0312C40.8304 18.2303 40.8316 17.3702 40.6007 16.6888C40.4196 16.0016 40.0621 15.5373 39.772 15.2169C39.3878 14.958 39.2206 14.8257 39.2148 14.7758Z" fill="#FF0B53"/>
</g>
<g clip-path="url(#clip8)">
<path d="M44.1053 39.6199C44.1053 39.079 44.1323 38.5381 44.1594 37.9971C44.1594 37.6726 44.1594 37.3751 44.1594 37.0505C44.1594 36.9423 44.1323 36.8071 44.2946 36.753C44.4839 36.6989 44.538 36.8612 44.5921 36.9423C44.9708 37.6455 45.3224 38.3488 45.674 39.052C45.701 39.1061 45.7281 39.1601 45.7551 39.2413C46.0797 39.1601 46.4043 39.079 46.7288 38.9979C47.0534 38.9167 47.405 38.8626 47.7295 38.7815C47.8918 38.7544 48 38.8356 48 38.9708C48 39.079 47.9459 39.1601 47.8918 39.2683C47.6754 39.6199 47.4591 39.9986 47.1886 40.3502C47.0263 40.5666 46.9993 40.7559 47.1345 40.9723C47.3509 41.3509 47.5402 41.7296 47.7295 42.0812C47.7836 42.2164 47.8377 42.3246 47.8648 42.4598C47.9189 42.7303 47.7295 42.8385 47.432 42.7573C47.2968 42.7303 47.1886 42.6492 47.0534 42.5951C46.5936 42.3787 46.1338 42.1623 45.674 41.9459C45.3494 41.8107 45.3224 41.8107 45.079 42.0541C44.7003 42.4057 44.2946 42.7573 43.916 43.136C43.8889 43.163 43.8619 43.2171 43.8078 43.2442C43.6996 43.2712 43.5644 43.3524 43.4832 43.2983C43.4021 43.2712 43.3209 43.136 43.348 43.0278C43.375 42.7844 43.4291 42.568 43.4832 42.3246C43.5373 41.9459 43.5914 41.5673 43.6455 41.1886C43.6725 40.9993 43.5914 40.8911 43.375 40.81C42.9693 40.6477 42.5907 40.4584 42.185 40.2691C42.0498 40.215 41.9686 40.1338 41.9957 39.9715C42.0227 39.8363 42.1579 39.8093 42.2932 39.8093C42.8882 39.7822 43.4832 39.7011 44.1053 39.6199Z" fill="#00F0E9"/>
</g>
<g clip-path="url(#clip9)">
<path d="M27.0423 94C26.3944 93.9718 26 93.6338 26 93.0704C26 92.4789 26.4789 92 27.0423 92C27.6338 92 28.0845 92.4225 28.0845 92.9859C28.0563 93.5775 27.6338 94 27.0423 94Z" fill="#FF2968"/>
</g>
<path d="M25.8427 25.2504C25.8896 25.8972 25.5993 26.328 25.0397 26.393C24.4521 26.4613 23.9212 26.0409 23.8561 25.4813C23.7878 24.8937 24.1555 24.3973 24.7151 24.3322C25.306 24.2919 25.7745 24.6628 25.8427 25.2504Z" fill="#262C38"/>
<path d="M49.622 55.6966C46.8528 55.0532 45.1048 52.2742 45.7529 49.485L41.9875 48.6101L38.5942 63.2132C38.2007 64.9066 36.5067 65.9619 34.8133 65.5684C33.1199 65.1749 32.0646 63.4808 32.4581 61.7874C32.8516 60.094 34.5457 59.0388 36.2391 59.4323C36.5579 59.5063 36.9072 59.6295 37.1829 59.7986L38.0763 55.9535C37.7668 55.8396 37.4527 55.7456 37.114 55.6669C33.3288 54.7874 29.5478 57.1425 28.6682 60.9277C27.7887 64.713 30.1438 68.494 33.9291 69.3736C37.7143 70.2531 41.4953 67.898 42.3749 64.1127L44.171 56.3828C45.2864 57.8179 46.8822 58.9027 48.7948 59.3471L49.6419 55.7013L49.622 55.6966Z" fill="#FF0B53"/>
<path d="M48.7913 54.3919C46.0022 53.7438 44.2787 50.9496 44.9222 48.1804L41.1568 47.3054L37.7635 61.9085C37.37 63.602 35.676 64.6572 33.9826 64.2637C32.2892 63.8702 31.2339 62.1761 31.6274 60.4827C32.0209 58.7893 33.715 57.7341 35.4084 58.1276C35.7272 58.2016 36.0765 58.3248 36.3522 58.4939L37.2457 54.6488C36.9362 54.5349 36.622 54.4409 36.2833 54.3622C32.5027 53.4627 28.7217 55.8179 27.8422 59.6031C26.9626 63.3884 29.3177 67.1694 33.103 68.0489C36.8883 68.9285 40.6692 66.5734 41.5488 62.7881L43.345 55.0582C44.4604 56.4933 46.0562 57.578 47.9687 58.0225L48.8113 54.3966L48.7913 54.3919Z" fill="#00F0E9"/>
<path d="M48.574 55.3271C47.4189 54.7857 46.525 53.8431 46.0347 52.7002C45.2251 51.7562 44.7732 50.5383 44.7966 49.2628L41.9875 48.6101L38.5942 63.2132C38.2007 64.9066 36.5067 65.9619 34.8133 65.5684C33.6976 65.3091 32.8404 64.48 32.5108 63.4585C31.7393 62.7123 31.3684 61.5972 31.6323 60.4616C32.0258 58.7682 33.7199 57.713 35.4133 58.1065C35.732 58.1805 36.0814 58.3037 36.3571 58.4728L37.0144 55.6438C33.2551 54.8332 29.5432 57.1624 28.6682 60.9277C28.2933 62.5415 28.5039 64.1653 29.1671 65.5583C30.125 66.7678 31.4696 67.6682 33.1032 68.0478C36.8885 68.9273 40.6695 66.5722 41.549 62.7869L43.3452 55.057C44.4606 56.4921 46.0564 57.5769 47.9689 58.0213L48.5939 55.3317L48.574 55.3271Z" fill="#262C38"/>
<g clip-path="url(#clip10)">
<path d="M103.246 11.0821C103.208 11.0736 103.328 10.8973 103.65 10.7253C103.934 10.5447 104.428 10.3296 105.042 10.3034C105.656 10.2773 106.43 10.4487 107.079 10.9983C107.728 11.5478 108.145 12.4112 108.266 13.3306C108.326 13.7903 108.34 14.28 108.198 14.7355C108.147 14.9676 108.009 15.2212 107.881 15.4361C107.752 15.651 107.546 15.8487 107.348 16.0078C106.914 16.3174 106.352 16.4767 105.819 16.318C105.247 16.1508 104.869 15.6612 104.74 15.1457C104.675 14.888 104.696 14.6087 104.804 14.3079C104.902 14.0457 105.108 13.848 105.345 13.6975C105.809 13.4351 106.26 13.4134 106.646 13.4991C107.003 13.5375 107.343 13.6533 107.596 13.7907C107.85 13.928 108.073 14.0181 108.249 14.1383C108.963 14.5804 109.595 15.2073 109.978 15.8602C110.36 16.513 110.533 17.2004 110.529 17.7675C110.525 18.3346 110.383 18.7901 110.237 19.0824C110.061 19.3274 109.919 19.4177 109.881 19.4091C109.735 19.3362 109.988 18.7431 109.837 17.7765C109.738 17.3082 109.57 16.7842 109.2 16.2559C108.869 15.7362 108.327 15.2511 107.721 14.8733C107.584 14.7617 107.36 14.6716 107.145 14.5428C106.922 14.4527 106.698 14.3626 106.428 14.3026C105.886 14.1827 105.431 14.4063 105.53 14.8746C105.556 15.1238 105.784 15.3771 106.016 15.4286C106.278 15.5272 106.622 15.4411 106.905 15.2605C107.189 15.0799 107.412 14.8048 107.498 14.418C107.613 14.0785 107.622 13.6747 107.591 13.2622C107.522 12.476 107.204 11.7157 106.74 11.2477C106.237 10.771 105.596 10.548 105.029 10.544C104.471 10.5014 104.032 10.6477 103.719 10.7811C103.427 11.0004 103.285 11.0907 103.246 11.0821Z" fill="#262C38"/>
</g>
<g clip-path="url(#clip11)">
<path d="M103.563 29.8086C102.592 29.7663 102 29.2593 102 28.4142C102 27.5269 102.718 26.8086 103.563 26.8086C104.451 26.8086 105.127 27.4424 105.127 28.2875C105.085 29.1748 104.451 29.8086 103.563 29.8086Z" fill="#262C38"/>
</g>
</g>
<defs>
<filter id="filter0_f" x="23" y="81" width="156" height="26" filterUnits="userSpaceOnUse" color-interpolation-filters="sRGB">
<feFlood flood-opacity="0" result="BackgroundImageFix"/>
<feBlend mode="normal" in="SourceGraphic" in2="BackgroundImageFix" result="shape"/>
<feGaussianBlur stdDeviation="5" result="effect1_foregroundBlur"/>
</filter>
<linearGradient id="paint0_linear" x1="154" y1="81" x2="248" y2="81" gradientUnits="userSpaceOnUse">
<stop stop-color="#09EAE5"/>
<stop offset="0.791667" stop-color="#BD4D7A"/>
<stop offset="1" stop-color="#E52A62"/>
</linearGradient>
<clipPath id="clip0">
<rect width="277" height="105.82" fill="white"/>
</clipPath>
<clipPath id="clip1">
<rect width="21.3938" height="24.2827" fill="white" transform="translate(53.2388 69) rotate(22.3625)"/>
</clipPath>
<clipPath id="clip2">
<rect width="8.94383" height="9.87464" fill="white" transform="translate(51.3011 97.167) rotate(135.45)"/>
</clipPath>
<clipPath id="clip3">
<rect width="11" height="12.1448" fill="white" transform="translate(211 54)"/>
</clipPath>
<clipPath id="clip4">
<rect width="2.05634" height="2" fill="white" transform="translate(214 14)"/>
</clipPath>
<clipPath id="clip5">
<rect width="3.08451" height="3" fill="white" transform="translate(237.846 28)"/>
</clipPath>
<clipPath id="clip6">
<rect width="3.08451" height="3" fill="white" transform="translate(258 79)"/>
</clipPath>
<clipPath id="clip7">
<rect width="10.904" height="10.1" fill="white" transform="translate(32.0385 26.5869) rotate(-96.6294)"/>
</clipPath>
<clipPath id="clip8">
<rect width="11" height="12.1448" fill="white" transform="translate(42 34)"/>
</clipPath>
<clipPath id="clip9">
<rect width="2.05634" height="2" fill="white" transform="translate(26 92)"/>
</clipPath>
<clipPath id="clip10">
<rect width="8.5957" height="7.96192" fill="white" transform="translate(110.19 19.4775) rotate(-167.505)"/>
</clipPath>
<clipPath id="clip11">
<rect width="3.08451" height="3" fill="white" transform="translate(102 26.8086)"/>
</clipPath>
</defs>
</svg>
