<svg width="277" height="108" viewBox="0 0 277 108" fill="none" xmlns="http://www.w3.org/2000/svg">
<g filter="url(#filter0_f)">
<ellipse cx="89" cy="94.1624" rx="68" ry="3.00519" fill="#C4C4C4" fill-opacity="0.5"/>
</g>
<g clip-path="url(#clip0)">
<path d="M37.8691 87.6976C36.6255 84.756 36.227 81.4455 36.4558 78.217C36.5348 77.3648 36.6138 76.5125 37.1427 75.8788C37.6716 75.2451 38.6068 74.9199 39.2831 75.3596C39.8694 75.7556 39.8804 76.6515 40.1122 77.3207C40.3004 78.08 40.8458 78.7901 41.6038 78.6016C41.961 78.5524 42.2255 78.2355 42.4 77.875C44.7691 74.1272 42.7015 65.9987 47.0778 65.452C48.7302 65.2525 47.5745 69.4781 49.1396 69.4588C49.8104 69.4506 50.3393 68.8168 50.6446 68.1858C52.2613 65.0746 53.5152 61.5646 56.2145 59.2017C56.7461 58.7919 57.4114 58.3357 58.0386 58.4176C59.0693 58.5841 59.5302 59.6985 59.8111 60.7254C60.4249 63.3612 60.4579 66.0489 59.7737 68.6111C61.1589 68.5044 62.5876 68.3076 63.8011 68.7855C65.1481 69.2169 66.2798 70.3231 66.2527 71.7571C66.2636 72.653 65.7811 73.4205 65.2522 74.0543C63.4473 76.4062 60.7835 78.0071 57.9723 78.5345C58.0296 79.5643 59.2431 80.0421 60.1865 80.3889C61.13 80.7357 62.169 81.5742 61.9128 82.563C61.7846 83.0574 61.3402 83.2869 60.9858 83.56C59.6988 84.3823 58.2292 84.8932 56.7104 85.0463C55.2816 85.2431 53.6701 85.1286 52.3832 85.9509C51.0963 86.7731 50.7202 88.9283 52.07 89.5837C47.5247 90.9389 42.5975 90.3275 38.4554 88.0936" fill="#3EB09E"/>
<path d="M39.7832 86.957C40.4811 85.5148 41.3154 84.25 42.286 83.1628C43.2566 82.0756 44.3172 81.0321 45.4241 80.1225C46.5311 79.2128 47.728 78.3468 49.0613 77.6584C50.3046 76.9262 51.7279 76.2815 53.2875 75.8143C52.6796 77.3002 51.7554 78.5213 50.7848 79.6085C49.8142 80.6957 48.7536 81.7392 47.6466 82.6488C46.5397 83.5585 45.3427 84.4245 44.0094 85.1129C42.6761 85.8014 41.3428 86.4898 39.7832 86.957Z" fill="#003247"/>
<path d="M35.0768 86.1189C35.9327 82.9722 35.7579 79.659 35.0487 76.5316C34.8605 75.7723 34.6259 74.8791 33.9932 74.3493C33.3606 73.8195 32.3299 73.6529 31.8446 74.1965C31.3593 74.7401 31.4139 75.5459 31.2885 76.2643C31.2531 77.0264 30.727 77.8841 30.0098 77.7585C29.6963 77.7176 29.3799 77.4526 29.0636 77.1877C26.1593 73.7737 27.042 65.5193 22.6166 65.7081C21.0078 65.8176 22.756 69.7834 21.1937 70.0267C20.4793 70.1251 19.9802 69.5488 19.4812 68.9725C17.4331 66.0856 15.6932 62.7916 12.7182 60.9018C12.0883 60.5959 11.3684 60.2464 10.744 60.3885C9.71878 60.6699 9.46531 61.8827 9.29907 62.9152C9.01847 65.5619 9.49863 68.2442 10.5132 70.7406C9.17166 70.7571 7.7865 70.8637 6.49682 71.4621C5.20714 72.0604 4.32927 73.4152 4.56935 74.7563C4.71394 75.6058 5.25935 76.3159 5.84838 76.9359C7.9754 78.9706 10.8086 80.235 13.8052 80.2429C13.8626 81.2726 12.7965 81.8682 11.954 82.461C11.0651 82.9199 10.1382 83.917 10.5963 84.8074C10.8254 85.2526 11.2753 85.4711 11.6353 85.6459C13.0287 86.2111 14.5529 86.506 16.1181 86.4867C17.5932 86.4237 19.1992 86.0904 20.549 86.7458C21.8988 87.4012 22.6406 89.5426 21.3973 90.2747C26.101 90.8888 30.9598 89.5745 34.6815 86.7062" fill="#3EB09E"/>
<path d="M32.9691 85.6524C31.4012 85.4477 29.9642 84.9726 28.5708 84.4073C27.1774 83.842 25.9176 83.2303 24.6114 82.4848C23.3052 81.7392 22.1763 80.8571 20.9574 79.9312C19.872 78.959 18.7404 77.8528 17.8295 76.52C19.3974 76.7247 20.8344 77.1998 22.2278 77.7651C23.6212 78.3304 24.881 78.9421 26.1872 79.6876C27.4933 80.4332 28.6223 81.3153 29.7512 82.1975C31.0165 83.2572 32.0582 84.3196 32.9691 85.6524Z" fill="#003247"/>
<path d="M33.85 88.1948C32.9553 84.5321 35.1908 80.8308 38.9372 79.9782C42.5937 79.0819 46.2886 81.3214 47.1397 85.0743C48.0344 88.737 45.7988 92.4383 42.0524 93.2909C38.396 94.1871 34.7011 91.9477 33.85 88.1948Z" fill="#FCAB10"/>
<path d="M33.8495 88.1943C34.7442 91.8571 38.4391 94.0965 42.0519 93.2904C45.7083 92.3941 47.9439 88.6928 47.1392 85.0738C47.1392 85.0738 43.3663 94.7079 33.8495 88.1943Z" fill="#D6920E"/>
<path d="M37.0884 78.7466C37.233 79.596 37.2876 80.4018 37.4322 81.2513C37.4813 81.6091 37.6204 82.0106 37.9368 82.2755C38.0731 82.453 38.2531 82.5404 38.4767 82.5377C38.6566 82.625 38.8802 82.6223 39.1038 82.6195C39.461 82.5703 39.8618 82.431 40.1263 82.1141C40.3908 81.7973 40.5652 81.4367 40.4697 80.9451C40.3251 80.0956 40.2705 79.2898 40.1259 78.4404C40.0768 78.0826 39.9377 77.681 39.6214 77.4161C39.4851 77.2386 39.3051 77.1512 39.0815 77.154C38.9015 77.0666 38.6779 77.0693 38.4543 77.0721C38.0971 77.1213 37.6963 77.2606 37.4319 77.5775C37.1674 77.8944 36.9493 78.3451 37.0884 78.7466Z" fill="#013041"/>
<path d="M37.3289 83.761C36.6554 83.5452 35.8565 84.0479 35.5539 84.9029C35.2077 85.848 35.4423 86.7411 35.9822 87.0033C36.6557 87.219 37.4546 86.7163 37.7572 85.8614C38.1933 84.96 37.9588 84.0668 37.3289 83.761Z" fill="#FED576"/>
<path d="M28.5248 95.2941C26.3624 94.0215 25.5687 91.2983 26.8391 89.1322C28.1096 86.9661 30.828 86.171 32.9904 87.4436C35.1528 88.7162 35.9466 91.4394 34.6761 93.6055C33.5393 95.7252 30.7308 96.4766 28.5248 95.2941Z" fill="#FCAB10"/>
<path d="M28.5253 95.2946C30.6877 96.5672 33.4062 95.7721 34.6766 93.606C35.9471 91.4399 35.1534 88.7167 32.991 87.4441C32.991 87.4441 35.9282 93.5458 28.5253 95.2946Z" fill="#D6920E"/>
<path d="M25.3673 89.4197C25.7736 89.7284 26.2699 90.0807 26.6762 90.3893C26.7662 90.433 26.9462 90.5204 27.0362 90.5641C27.1261 90.6077 27.3061 90.6951 27.4397 90.6487C27.6633 90.6459 27.9741 90.4629 28.1514 90.3263C28.3722 90.0996 28.4131 89.7855 28.4103 89.5615C28.4076 89.3375 28.2249 89.0262 28.0885 88.8486C27.6822 88.54 27.1859 88.1877 26.7796 87.8791C26.6896 87.8354 26.5096 87.748 26.4197 87.7043C26.3297 87.6606 26.1497 87.5732 26.0161 87.6197C25.7925 87.6224 25.4817 87.8055 25.3044 87.9421C25.0836 88.1688 25.0427 88.4829 25.0455 88.7069C25.0482 88.9309 25.0973 89.2887 25.3673 89.4197Z" fill="#013041"/>
<path d="M27.9879 91.5821C27.587 91.7215 27.4617 92.4399 27.7371 93.0189C28.0126 93.5979 28.5525 93.8601 28.9533 93.7208C29.3978 93.4913 29.4795 92.863 29.204 92.284C28.9286 91.705 28.3887 91.4428 27.9879 91.5821Z" fill="#FED576"/>
</g>
<path d="M173.71 87.4902C172.909 88.4277 171.742 89.1553 170.209 89.6729C168.676 90.1807 166.977 90.4199 165.111 90.3906C163.324 90.3711 161.815 89.9219 160.585 89.043C159.354 88.1641 158.476 86.9385 157.948 85.3662C157.421 83.7939 157.279 82.0215 157.523 80.0488L157.641 79.1699C158.09 75.8594 159.252 73.2373 161.127 71.3037C163.012 69.3701 165.316 68.4277 168.041 68.4766C170.424 68.5156 172.255 69.1553 173.534 70.3955C174.813 71.6357 175.526 73.4277 175.673 75.7715L170.868 75.7568C170.8 74.6143 170.517 73.7793 170.019 73.252C169.53 72.7246 168.832 72.4463 167.924 72.417C166.576 72.3682 165.463 72.9004 164.584 74.0137C163.705 75.1172 163.104 76.6992 162.782 78.7598C162.509 80.5176 162.411 81.8848 162.489 82.8613C162.636 85.2148 163.695 86.4062 165.668 86.4355C166.859 86.4551 167.904 86.167 168.803 85.5713L169.462 82.2461H165.99L166.605 78.7158H175.087L173.71 87.4902ZM181.356 90.1123H176.347L180.053 68.7842H185.048L181.356 90.1123ZM202.626 87.4902C201.825 88.4277 200.658 89.1553 199.125 89.6729C197.592 90.1807 195.893 90.4199 194.027 90.3906C192.24 90.3711 190.731 89.9219 189.501 89.043C188.271 88.1641 187.392 86.9385 186.864 85.3662C186.337 83.7939 186.195 82.0215 186.439 80.0488L186.557 79.1699C187.006 75.8594 188.168 73.2373 190.043 71.3037C191.928 69.3701 194.232 68.4277 196.957 68.4766C199.34 68.5156 201.171 69.1553 202.45 70.3955C203.729 71.6357 204.442 73.4277 204.589 75.7715L199.784 75.7568C199.716 74.6143 199.433 73.7793 198.935 73.252C198.446 72.7246 197.748 72.4463 196.84 72.417C195.492 72.3682 194.379 72.9004 193.5 74.0137C192.621 75.1172 192.021 76.6992 191.698 78.7598C191.425 80.5176 191.327 81.8848 191.405 82.8613C191.552 85.2148 192.611 86.4062 194.584 86.4355C195.775 86.4551 196.82 86.167 197.719 85.5713L198.378 82.2461H194.906L195.521 78.7158H204.003L202.626 87.4902ZM217.45 86.1279H210.639L208.749 90.1123H203.227L214.521 68.7842H219.237L223.178 90.1123H217.963L217.45 86.1279ZM212.514 82.1582H216.938L216 74.8047L212.514 82.1582ZM236.625 84.3408C236.84 83.2373 236.244 82.3828 234.838 81.7773L232.436 80.7812C229.066 79.2676 227.465 77.207 227.631 74.5996C227.699 73.4082 228.109 72.3486 228.861 71.4209C229.613 70.4834 230.653 69.7559 231.981 69.2383C233.31 68.7207 234.76 68.4717 236.332 68.4912C238.441 68.5303 240.136 69.1455 241.415 70.3369C242.704 71.5283 243.339 73.125 243.319 75.127H238.339C238.368 74.3066 238.192 73.6523 237.812 73.1641C237.44 72.666 236.825 72.4072 235.966 72.3877C235.126 72.3682 234.384 72.5635 233.739 72.9736C233.095 73.3838 232.714 73.9355 232.597 74.6289C232.411 75.6055 233.134 76.4062 234.765 77.0312C236.405 77.6562 237.597 78.1934 238.339 78.6426C240.673 80.0391 241.767 81.9238 241.62 84.2969C241.542 85.5273 241.146 86.6064 240.434 87.5342C239.721 88.4619 238.729 89.1797 237.46 89.6875C236.2 90.1953 234.784 90.4395 233.212 90.4199C232.06 90.4004 230.99 90.2197 230.004 89.8779C229.018 89.5361 228.173 89.0381 227.47 88.3838C226.044 87.0654 225.36 85.332 225.419 83.1836L230.443 83.1982C230.385 84.292 230.595 85.1221 231.073 85.6885C231.552 86.2451 232.357 86.5234 233.49 86.5234C234.33 86.5234 235.028 86.333 235.585 85.9521C236.151 85.5615 236.498 85.0244 236.625 84.3408Z" fill="#BBBBBB"/>
<path d="M94.0225 90.0244H50.6484L52.2305 79.8291L74.9941 58.6914L78.1143 55.5713C83.0068 50.6494 85.248 46.0059 84.8379 41.6406C84.5156 38.2422 82.7578 36.499 79.5645 36.4111C77.3086 36.3525 75.3896 37.2754 73.8076 39.1797C72.2549 41.0547 71.2881 43.5156 70.9072 46.5625L56.5371 46.6504C56.7715 42.6367 57.9873 38.9746 60.1846 35.6641C62.3818 32.3242 65.3115 29.7168 68.9736 27.8418C72.665 25.9668 76.5908 25.0439 80.751 25.0732C86.9912 25.1904 91.8252 26.8896 95.2529 30.1709C98.6807 33.4229 100.175 37.832 99.7354 43.3984C99.4717 46.6797 98.3877 49.873 96.4834 52.9785C94.6084 56.084 91.8691 59.3506 88.2656 62.7783L81.5859 68.9307L71.6543 78.5107L95.8242 78.5986L94.0225 90.0244ZM107.294 58.5596L116.171 26.04H152.646L150.8 37.5537H126.322L122.411 50.3418C124.784 48.8184 127.729 48.0273 131.244 47.9688C136.869 47.9688 141.19 49.917 144.208 53.8135C147.255 57.71 148.515 62.8076 147.987 69.1064C147.46 75.6104 144.926 80.9131 140.385 85.0146C135.844 89.0869 130.351 91.0645 123.905 90.9473C120.126 90.8594 116.684 89.9805 113.578 88.3105C110.502 86.6406 108.114 84.3701 106.415 81.499C104.716 78.5986 103.881 75.3613 103.91 71.7871H118.324C118.383 74.0723 118.954 75.9033 120.038 77.2803C121.122 78.6572 122.646 79.375 124.608 79.4336C127.011 79.5215 129.003 78.6279 130.585 76.7529C132.167 74.8486 133.178 71.9629 133.617 68.0957C133.91 64.8438 133.471 62.3828 132.299 60.7129C131.127 59.0137 129.296 58.1641 126.806 58.1641C123.612 58.1641 121.02 59.248 119.027 61.416L107.294 58.5596Z" fill="#EF3829"/>
<path d="M94.0225 90.0244V93.0244H96.5865L96.9858 90.4917L94.0225 90.0244ZM50.6484 90.0244L47.6839 89.5644L47.147 93.0244H50.6484V90.0244ZM52.2305 79.8291L50.1891 77.6307L49.4257 78.3396L49.2659 79.3691L52.2305 79.8291ZM74.9941 58.6914L77.0355 60.8898L77.0762 60.852L77.1155 60.8127L74.9941 58.6914ZM78.1143 55.5713L80.2356 57.6926L80.2419 57.6863L78.1143 55.5713ZM84.8379 41.6406L87.8247 41.36L87.8245 41.3574L84.8379 41.6406ZM79.5645 36.4111L79.647 33.4123L79.6423 33.4121L79.5645 36.4111ZM73.8076 39.1797L71.5 37.2626L71.497 37.2662L73.8076 39.1797ZM70.9072 46.5625L70.9256 49.5624L73.5576 49.5463L73.8841 46.9346L70.9072 46.5625ZM56.5371 46.6504L53.5422 46.4755L53.3557 49.6699L56.5555 49.6503L56.5371 46.6504ZM60.1846 35.6641L62.6841 37.3231L62.6908 37.3129L60.1846 35.6641ZM68.9736 27.8418L67.615 25.167L67.6064 25.1715L68.9736 27.8418ZM80.751 25.0732L80.8073 22.0738L80.7897 22.0734L80.7721 22.0733L80.751 25.0732ZM95.2529 30.1709L93.1784 32.338L93.1881 32.3473L95.2529 30.1709ZM99.7354 43.3984L102.726 43.6387L102.726 43.6345L99.7354 43.3984ZM96.4834 52.9785L93.9259 51.4103L93.9205 51.4191L93.9152 51.4279L96.4834 52.9785ZM88.2656 62.7783L90.2981 64.985L90.3158 64.9686L90.3333 64.952L88.2656 62.7783ZM81.5859 68.9307L79.5535 66.724L79.5281 66.7475L79.5032 66.7715L81.5859 68.9307ZM71.6543 78.5107L69.5715 76.3516L64.2509 81.4838L71.6434 81.5107L71.6543 78.5107ZM95.8242 78.5986L98.7876 79.0659L99.3324 75.6114L95.8351 75.5987L95.8242 78.5986ZM94.0225 87.0244H50.6484V93.0244H94.0225V87.0244ZM53.613 90.4844L55.195 80.2891L49.2659 79.3691L47.6839 89.5644L53.613 90.4844ZM54.2718 82.0275L77.0355 60.8898L72.9528 56.493L50.1891 77.6307L54.2718 82.0275ZM77.1155 60.8127L80.2356 57.6926L75.9929 53.45L72.8728 56.5701L77.1155 60.8127ZM80.2419 57.6863C85.398 52.4993 88.3567 47.0219 87.8247 41.36L81.851 41.9213C82.1394 44.9898 80.6156 48.7996 75.9866 53.4563L80.2419 57.6863ZM87.8245 41.3574C87.6221 39.2226 86.9279 37.179 85.3903 35.6542C83.8264 34.1034 81.7769 33.4709 79.647 33.4123L79.4819 39.41C80.5453 39.4393 80.9715 39.7223 81.1654 39.9146C81.3856 40.133 81.7315 40.6602 81.8513 41.9238L87.8245 41.3574ZM79.6423 33.4121C76.3701 33.3271 73.6042 34.7299 71.5 37.2626L76.1152 41.0967C77.1751 39.8209 78.2471 39.3779 79.4866 39.4101L79.6423 33.4121ZM71.497 37.2662C69.4957 39.6829 68.3637 42.724 67.9304 46.1904L73.8841 46.9346C74.2125 44.3072 75.014 42.4265 76.1182 41.0931L71.497 37.2662ZM70.8889 43.5626L56.5188 43.6504L56.5555 49.6503L70.9256 49.5624L70.8889 43.5626ZM59.532 46.8253C59.7358 43.3348 60.784 40.1859 62.6841 37.3231L57.685 34.0051C55.1906 37.7633 53.8071 41.9386 53.5422 46.4755L59.532 46.8253ZM62.6908 37.3129C64.5945 34.4193 67.1263 32.158 70.3408 30.5121L67.6064 25.1715C63.4968 27.2756 60.1691 30.2292 57.6783 34.0152L62.6908 37.3129ZM70.3322 30.5165C73.5942 28.8597 77.0466 28.0472 80.7299 28.0732L80.7721 22.0733C76.1351 22.0407 71.7359 23.0739 67.615 25.1671L70.3322 30.5165ZM80.6946 28.0727C86.4251 28.1803 90.4486 29.7248 93.1784 32.338L97.3274 28.0038C93.2018 24.0544 87.5573 22.2005 80.8073 22.0738L80.6946 28.0727ZM93.1881 32.3473C95.8366 34.8599 97.1273 38.3158 96.7447 43.1623L102.726 43.6345C103.222 37.3483 101.525 31.9858 97.3177 27.9945L93.1881 32.3473ZM96.745 43.1581C96.523 45.9204 95.6102 48.6637 93.9259 51.4103L99.0409 54.5468C101.165 51.0824 102.42 47.4389 102.726 43.6387L96.745 43.1581ZM93.9152 51.4279C92.2189 54.2373 89.6739 57.2983 86.198 60.6046L90.3333 64.952C94.0644 61.4029 96.9978 57.9306 99.0516 54.5291L93.9152 51.4279ZM86.2332 60.5717L79.5535 66.724L83.6184 71.1373L90.2981 64.985L86.2332 60.5717ZM79.5032 66.7715L69.5715 76.3516L73.7371 80.6699L83.6687 71.0899L79.5032 66.7715ZM71.6434 81.5107L95.8133 81.5986L95.8351 75.5987L71.6652 75.5108L71.6434 81.5107ZM92.8608 78.1313L91.0591 89.5571L96.9858 90.4917L98.7876 79.0659L92.8608 78.1313ZM107.294 58.5596L104.4 57.7696L103.588 60.7449L106.584 61.4744L107.294 58.5596ZM116.171 26.04V23.04H113.88L113.277 25.25L116.171 26.04ZM152.646 26.04L155.608 26.5149L156.165 23.04H152.646V26.04ZM150.8 37.5537V40.5537H153.357L153.762 38.0286L150.8 37.5537ZM126.322 37.5537V34.5537H124.103L123.453 36.6763L126.322 37.5537ZM122.411 50.3418L119.542 49.4644L117.151 57.2838L124.032 52.8663L122.411 50.3418ZM131.244 47.9688V44.9688H131.219L131.194 44.9692L131.244 47.9688ZM144.208 53.8135L141.836 55.6504L141.845 55.6614L144.208 53.8135ZM147.987 69.1064L144.998 68.8562L144.997 68.864L147.987 69.1064ZM140.385 85.0146L142.388 87.2481L142.396 87.241L140.385 85.0146ZM123.905 90.9473L123.836 93.9465L123.843 93.9466L123.851 93.9468L123.905 90.9473ZM113.578 88.3105L112.147 90.9471L112.157 90.9528L113.578 88.3105ZM106.415 81.499L103.827 83.0155L103.833 83.027L106.415 81.499ZM103.91 71.7871V68.7871H100.935L100.91 71.7625L103.91 71.7871ZM118.324 71.7871L121.323 71.7102L121.248 68.7871H118.324V71.7871ZM124.608 79.4336L124.718 76.4356L124.708 76.4352L124.698 76.4349L124.608 79.4336ZM130.585 76.7529L132.878 78.6875L132.885 78.6788L132.893 78.67L130.585 76.7529ZM133.617 68.0957L136.598 68.4344L136.602 68.3997L136.605 68.3649L133.617 68.0957ZM132.299 60.7129L129.829 62.4161L129.836 62.4262L129.843 62.4362L132.299 60.7129ZM119.027 61.416L118.318 64.3309L120.038 64.7497L121.236 63.4459L119.027 61.416ZM110.188 59.3496L119.065 26.8301L113.277 25.25L104.4 57.7696L110.188 59.3496ZM116.171 29.04H152.646V23.04H116.171V29.04ZM149.683 25.5652L147.838 37.0789L153.762 38.0286L155.608 26.5149L149.683 25.5652ZM150.8 34.5537H126.322V40.5537H150.8V34.5537ZM123.453 36.6763L119.542 49.4644L125.28 51.2192L129.191 38.4311L123.453 36.6763ZM124.032 52.8663C125.832 51.7104 128.199 51.0199 131.294 50.9683L131.194 44.9692C127.258 45.0348 123.736 45.9263 120.79 47.8172L124.032 52.8663ZM131.244 50.9688C136.09 50.9688 139.472 52.5978 141.836 55.6504L146.58 51.9766C142.909 47.2362 137.648 44.9688 131.244 44.9688V50.9688ZM141.845 55.6614C144.307 58.8106 145.48 63.0937 144.998 68.8562L150.977 69.3567C151.549 62.5215 150.203 56.6093 146.571 51.9655L141.845 55.6614ZM144.997 68.864C144.527 74.6615 142.308 79.2353 138.374 82.7883L142.396 87.241C147.544 82.5909 150.393 76.5592 150.977 69.3489L144.997 68.864ZM138.382 82.7812C134.44 86.3166 129.695 88.052 123.96 87.9478L123.851 93.9468C131.007 94.0769 137.248 91.8573 142.388 87.2481L138.382 82.7812ZM123.975 87.9481C120.633 87.8704 117.659 87.0986 114.999 85.6683L112.157 90.9528C115.708 92.8623 119.619 93.8484 123.836 93.9465L123.975 87.9481ZM115.009 85.674C112.385 84.2495 110.406 82.352 108.997 79.9711L103.833 83.027C105.823 86.3882 108.618 89.0317 112.147 90.9471L115.009 85.674ZM109.004 79.9825C107.595 77.5791 106.885 74.8802 106.91 71.8117L100.91 71.7625C100.877 75.8425 101.836 79.6181 103.827 83.0155L109.004 79.9825ZM103.91 74.7871H118.324V68.7871H103.91V74.7871ZM115.325 71.864C115.395 74.5989 116.09 77.1152 117.681 79.136L122.395 75.4246C121.818 74.6914 121.37 73.5456 121.323 71.7102L115.325 71.864ZM117.681 79.136C119.385 81.3003 121.789 82.3508 124.519 82.4323L124.698 76.4349C123.502 76.3992 122.859 76.0141 122.395 75.4246L117.681 79.136ZM124.499 82.4316C127.845 82.554 130.715 81.2506 132.878 78.6875L128.292 74.8183C127.291 76.0053 126.177 76.489 124.718 76.4356L124.499 82.4316ZM132.893 78.67C135.005 76.1273 136.127 72.5768 136.598 68.4344L130.636 67.757C130.228 71.349 129.329 73.57 128.277 74.8359L132.893 78.67ZM136.605 68.3649C136.926 64.8052 136.516 61.4997 134.754 58.9896L129.843 62.4362C130.425 63.2659 130.895 64.8823 130.629 67.8265L136.605 68.3649ZM134.768 59.0097C132.917 56.3245 130.05 55.1641 126.806 55.1641V61.1641C128.542 61.1641 129.337 61.7028 129.829 62.4161L134.768 59.0097ZM126.806 55.1641C122.852 55.1641 119.43 56.5438 116.818 59.3861L121.236 63.4459C122.609 61.9523 124.373 61.1641 126.806 61.1641V55.1641ZM119.737 58.5011L108.004 55.6447L106.584 61.4744L118.318 64.3309L119.737 58.5011Z" fill="#EF3829"/>
<g clip-path="url(#clip1)">
<path d="M154.235 37.6375C149.036 31.6729 143.263 26.235 137 21.4022C144.388 15.2375 152.624 10.1702 161.455 6.35645C160.367 11.4958 160.721 16.8258 160.458 22.0742C160.195 27.3225 159.206 32.816 155.922 36.9111" fill="#FF2932"/>
<path d="M155.677 36.1934C150.468 30.2442 144.696 24.8132 138.443 19.9763V22.8638C145.723 16.8375 153.819 11.8729 162.489 8.11762L159.487 5.81127C158.398 11.3683 158.716 17.0071 158.398 22.6277C158.135 27.0679 157.301 31.8713 154.48 35.4579C154.108 35.8481 153.9 36.3668 153.9 36.9062C153.9 37.4456 154.108 37.9643 154.48 38.3545C154.864 38.7349 155.382 38.9482 155.922 38.9482C156.462 38.9482 156.981 38.7349 157.364 38.3545C160.612 34.223 161.9 29.2743 162.381 24.0987C162.889 18.3782 162.29 12.5578 163.451 6.90089C163.544 6.51095 163.522 6.10239 163.389 5.72442C163.255 5.34645 163.016 5.01518 162.698 4.77051C162.381 4.52584 162 4.3782 161.601 4.34536C161.202 4.31253 160.801 4.39591 160.448 4.58545C151.464 8.50648 143.083 13.6888 135.558 19.9763C135.176 20.3594 134.961 20.8786 134.961 21.42C134.961 21.9614 135.176 22.4807 135.558 22.8638C141.808 27.6914 147.58 33.11 152.793 39.0446C154.534 41.0331 157.41 38.1366 155.686 36.1571L155.677 36.1934Z" fill="#FF2932"/>
<path d="M161.664 6.90131C163.883 7.19422 166.14 6.88045 168.195 5.9933C168.649 5.80262 169.166 5.35769 168.93 4.93092C168.785 4.65852 168.422 4.61312 168.122 4.60404C166.405 4.57725 164.704 4.94699 163.152 5.68457C163.628 5.21031 164.003 4.64342 164.252 4.01879C164.502 3.39416 164.621 2.72501 164.603 2.05252C164.623 1.85775 164.589 1.66111 164.504 1.48467C164.42 1.30823 164.287 1.15899 164.122 1.0537C163.524 0.799461 163.034 1.58035 162.843 2.20688C162.517 3.32374 162.181 4.43152 161.854 5.54837L159.886 2.88789C159.55 2.44297 158.979 1.97988 158.525 2.26136C158.072 2.54285 158.281 3.16938 158.525 3.66878C159.111 4.69517 159.834 5.63619 160.675 6.46547" fill="#FFE3C5"/>
<path d="M161.664 7.92695C163.136 8.1109 164.628 8.05262 166.082 7.75443C166.778 7.61122 167.461 7.40766 168.122 7.14606C168.842 6.95486 169.459 6.4929 169.846 5.85668C170.015 5.50797 170.045 5.10752 169.929 4.73765C169.812 4.36779 169.559 4.05663 169.22 3.86813C168.574 3.59248 167.862 3.51047 167.17 3.63205C165.597 3.74618 164.059 4.15264 162.635 4.83063L163.841 6.42873C164.69 5.59331 165.265 4.52008 165.492 3.35057C165.682 2.28819 165.737 0.844449 164.666 0.21792C163.596 -0.408609 162.499 0.454004 162.027 1.45282C161.553 2.70773 161.156 3.99041 160.839 5.29372L162.707 5.04855C161.972 4.04974 161.283 2.98736 160.485 2.04303C159.687 1.09869 158.317 0.681007 157.546 1.81602C156.947 2.72404 157.374 3.74101 157.881 4.54006C158.47 5.48957 159.167 6.36719 159.959 7.15514C160.15 7.3466 160.409 7.45415 160.68 7.45415C160.95 7.45415 161.21 7.3466 161.401 7.15514C161.592 6.96369 161.7 6.70403 161.7 6.43327C161.7 6.16252 161.592 5.90285 161.401 5.7114C160.942 5.2533 160.517 4.76161 160.131 4.24042C159.941 3.9771 159.768 3.70469 159.596 3.43229C159.508 3.29508 159.43 3.15255 159.36 3.00552C159.306 2.97828 159.306 2.79668 159.306 2.72404C159.414 2.84208 158.879 3.48677 158.807 3.1508C158.807 3.1962 158.906 3.2416 158.925 3.27793C159.106 3.53217 159.333 3.78641 159.523 4.04066L160.975 6.08369C161.082 6.24959 161.234 6.38168 161.413 6.46463C161.592 6.54758 161.791 6.57798 161.986 6.55231C162.182 6.52664 162.366 6.44595 162.518 6.31961C162.67 6.19326 162.782 6.02645 162.843 5.83852C163.088 4.98499 163.342 4.13146 163.596 3.28701C163.687 2.97828 163.75 2.6514 163.868 2.37899C163.868 2.37899 164.086 2.01579 164.086 2.00671C164.086 1.99763 163.759 2.00671 163.741 2.00671C163.69 2.00495 163.64 1.98479 163.602 1.94984C163.564 1.91489 163.539 1.86745 163.533 1.81602C163.533 1.92499 163.533 1.97039 163.533 1.94315C163.533 2.07935 163.533 2.26095 163.533 2.40623C163.515 2.71369 163.463 3.01824 163.378 3.31425C163.188 3.95194 162.842 4.53226 162.372 5.00315C162.199 5.18029 162.096 5.41396 162.082 5.66108C162.068 5.90821 162.143 6.15212 162.295 6.34787C162.446 6.54362 162.663 6.67799 162.905 6.72623C163.148 6.77446 163.4 6.7333 163.614 6.61034C164.548 6.17334 165.541 5.87949 166.562 5.73864C167.049 5.67496 167.541 5.64765 168.032 5.65692C168.107 5.66126 168.183 5.66126 168.259 5.65692C168.189 5.41673 168.108 5.18033 168.014 4.94867C167.868 5.01406 167.726 5.08679 167.587 5.16659C165.708 5.90303 163.673 6.14682 161.673 5.87484C161.538 5.87365 161.403 5.8993 161.278 5.95033C161.153 6.00135 161.039 6.07674 160.942 6.17214C160.846 6.26754 160.77 6.38105 160.718 6.50614C160.666 6.63122 160.639 6.76539 160.639 6.9009C160.646 7.17085 160.756 7.42785 160.947 7.6188C161.138 7.80974 161.394 7.92006 161.664 7.92695Z" fill="#FFE3C5"/>
<path d="M153.664 42.0681C153.664 42.0681 161.047 37.4191 159.387 34.7223C159.387 34.7223 143.368 18.8865 138.361 18.7866C137.118 19.159 135.993 19.8474 135.094 20.7847C134.196 21.722 133.556 22.8762 133.236 24.1348C133.236 24.1348 148.883 33.442 153.664 42.0681Z" fill="#FFE3C5" stroke="#FFE3C5" stroke-width="0.339796" stroke-miterlimit="10"/>
<path d="M156.675 33.9961C156.693 34.4847 156.594 34.9705 156.385 35.4126C156.199 35.819 155.941 36.1883 155.623 36.5022C155.311 36.8231 154.946 37.0873 154.543 37.2831C154.107 37.4987 153.624 37.6017 153.137 37.5827C153.259 37.1326 153.448 36.7039 153.7 36.3115C153.921 35.983 154.177 35.6787 154.462 35.4035C154.736 35.1144 155.04 34.8557 155.369 34.6317C155.766 34.3496 156.208 34.1348 156.675 33.9961V33.9961Z" fill="#003041"/>
<path d="M151.387 32.3073C151.51 32.5642 151.564 32.8494 151.541 33.1336C151.535 33.3317 151.464 33.5224 151.34 33.6765C151.215 33.8306 151.044 33.9397 150.852 33.9872C150.575 34.0591 150.285 34.0591 150.008 33.9872C149.885 33.7269 149.832 33.4389 149.854 33.1518C149.863 32.9553 149.937 32.7673 150.062 32.6161C150.189 32.4659 150.356 32.3555 150.543 32.2983C150.821 32.2349 151.11 32.238 151.387 32.3073Z" fill="#003041"/>
<path d="M147.713 27.0591C147.773 27.4796 147.735 27.9082 147.604 28.3121C147.493 28.6597 147.327 28.9875 147.114 29.2837C146.905 29.5844 146.644 29.8457 146.343 30.0555C146 30.3036 145.607 30.474 145.191 30.5549C145.132 30.1344 145.169 29.7058 145.3 29.3019C145.414 28.9552 145.579 28.6277 145.79 28.3303C146.005 28.0315 146.269 27.7707 146.57 27.5585C146.909 27.3088 147.3 27.1381 147.713 27.0591V27.0591Z" fill="#003041"/>
<path d="M144.157 23.472C143.928 23.9006 143.648 24.3 143.323 24.6615C143.047 24.99 142.744 25.2938 142.416 25.5695C142.099 25.8442 141.759 26.0903 141.4 26.305C140.986 26.556 140.545 26.7571 140.084 26.9043C140.077 26.3858 140.209 25.8747 140.465 25.4242C140.696 24.9988 141.003 24.62 141.372 24.3074C141.744 23.9954 142.172 23.758 142.633 23.6082C143.12 23.4294 143.646 23.3824 144.157 23.472V23.472Z" fill="#003041"/>
<path d="M140.982 21.2023C140.629 21.6291 140.32 21.9378 140.075 22.2284C139.83 22.5189 139.504 22.7823 139.223 23.0274C138.941 23.2726 138.642 23.5178 138.316 23.772C137.948 24.0588 137.563 24.3227 137.164 24.562C137.03 24.0524 137.068 23.5129 137.272 23.0274C137.468 22.5495 137.78 22.1281 138.18 21.8016C138.563 21.4648 139.019 21.2223 139.513 21.0934C140.002 20.9736 140.516 21.0117 140.982 21.2023V21.2023Z" fill="#003041"/>
<path d="M157.256 28.5659C157.08 28.2938 156.977 27.9812 156.956 27.6579C156.937 27.4031 156.98 27.1473 157.083 26.9134C157.17 26.6894 157.31 26.4899 157.491 26.3322C157.752 26.1162 158.065 25.9722 158.398 25.9146C158.574 26.1867 158.677 26.4993 158.698 26.8226C158.717 27.0745 158.674 27.3273 158.571 27.5581C158.469 27.7911 158.314 27.9965 158.117 28.1573C157.87 28.3662 157.573 28.507 157.256 28.5659V28.5659Z" fill="#FFE3C5"/>
<path d="M158.68 21.2294C158.425 21.0543 158.218 20.8167 158.081 20.5393C157.978 20.3308 157.928 20.1 157.936 19.8674C157.945 19.6375 158.017 19.4146 158.144 19.2227C158.308 18.9576 158.54 18.7412 158.816 18.5962C159.074 18.7702 159.283 19.0078 159.423 19.2863C159.527 19.4946 159.577 19.7256 159.569 19.9582C159.551 20.1866 159.479 20.4075 159.36 20.6029C159.191 20.867 158.957 21.0829 158.68 21.2294V21.2294Z" fill="#FFE3C5"/>
<path d="M159.124 13.6748C158.881 13.5739 158.666 13.4149 158.498 13.2117C158.396 13.0865 158.341 12.9288 158.344 12.7668C158.35 12.6053 158.418 12.4524 158.535 12.34C158.716 12.1509 158.94 12.0077 159.188 11.9224C159.432 12.0206 159.648 12.1801 159.814 12.3855C159.917 12.5106 159.975 12.6677 159.977 12.8304C159.961 12.9941 159.891 13.1477 159.777 13.2662C159.595 13.4521 159.371 13.5921 159.124 13.6748V13.6748Z" fill="#FFE3C5"/>
<path d="M151.006 23.8448C150.897 23.5175 150.857 23.1713 150.888 22.8278C150.914 22.5642 150.991 22.3082 151.115 22.0742C151.238 21.8399 151.408 21.633 151.614 21.4658C151.879 21.2456 152.188 21.0846 152.521 20.9937C152.698 21.3024 152.786 21.6546 152.775 22.0106C152.768 22.3023 152.694 22.5883 152.557 22.846C152.415 23.0995 152.22 23.3193 151.985 23.4907C151.697 23.6963 151.359 23.8188 151.006 23.8448V23.8448Z" fill="#FFE3C5"/>
<path d="M154.552 15.9719C154.358 15.8222 154.198 15.6335 154.081 15.418C154.03 15.2929 154.03 15.1527 154.081 15.0276C154.136 14.9063 154.237 14.8117 154.362 14.7642C154.594 14.6804 154.841 14.6463 155.088 14.6644C155.284 14.8143 155.447 15.0028 155.568 15.2183C155.634 15.3374 155.65 15.4776 155.614 15.6087C155.554 15.7306 155.45 15.8249 155.323 15.872C155.077 15.9624 154.814 15.9966 154.552 15.9719V15.9719Z" fill="#FFE3C5"/>
<path d="M155.196 10.7239C155.013 11.03 154.787 11.3083 154.525 11.5502C154.329 11.7359 154.11 11.8947 153.872 12.0224C153.627 12.1426 153.368 12.2311 153.101 12.2857C152.752 12.3539 152.394 12.3723 152.04 12.3402C152.017 11.9484 152.129 11.5606 152.357 11.2415C152.552 10.9579 152.814 10.727 153.119 10.5696C153.429 10.4138 153.771 10.3329 154.117 10.3335C154.51 10.3433 154.888 10.4803 155.196 10.7239Z" fill="#FFE3C5"/>
<path d="M146.516 17.2526C146.436 17.6122 146.285 17.952 146.071 18.2514C145.893 18.4928 145.671 18.699 145.418 18.8598C145.168 19.0275 144.888 19.1447 144.593 19.2048C144.234 19.2865 143.862 19.2865 143.504 19.2048C143.535 18.8287 143.666 18.4678 143.885 18.1606C144.056 17.8945 144.281 17.6685 144.547 17.4978C144.824 17.3254 145.132 17.2111 145.454 17.1618C145.81 17.1044 146.175 17.1356 146.516 17.2526V17.2526Z" fill="#FFE3C5"/>
</g>
<defs>
<filter id="filter0_f" x="11" y="81.1572" width="156" height="26.0104" filterUnits="userSpaceOnUse" color-interpolation-filters="sRGB">
<feFlood flood-opacity="0" result="BackgroundImageFix"/>
<feBlend mode="normal" in="SourceGraphic" in2="BackgroundImageFix" result="shape"/>
<feGaussianBlur stdDeviation="5" result="effect1_foregroundBlur"/>
</filter>
<clipPath id="clip0">
<rect width="45.9643" height="56.2185" fill="white" transform="matrix(0.435579 -0.900151 0.899559 0.436799 0 81.4434)"/>
</clipPath>
<clipPath id="clip1">
<rect width="37" height="42.3588" fill="white" transform="translate(133)"/>
</clipPath>
</defs>
</svg>
