<svg width="277" height="106" viewBox="0 0 277 106" fill="none" xmlns="http://www.w3.org/2000/svg">
<g clip-path="url(#clip0)">
<g filter="url(#filter0_f)">
<ellipse cx="86" cy="94" rx="68" ry="3" fill="#C4C4C4" fill-opacity="0.5"/>
</g>
<path d="M162.71 87.3779C161.909 88.3154 160.742 89.043 159.209 89.5605C157.676 90.0684 155.977 90.3076 154.111 90.2783C152.324 90.2588 150.815 89.8096 149.585 88.9307C148.354 88.0518 147.476 86.8262 146.948 85.2539C146.421 83.6816 146.279 81.9092 146.523 79.9365L146.641 79.0576C147.09 75.7471 148.252 73.125 150.127 71.1914C152.012 69.2578 154.316 68.3154 157.041 68.3643C159.424 68.4033 161.255 69.043 162.534 70.2832C163.813 71.5234 164.526 73.3154 164.673 75.6592L159.868 75.6445C159.8 74.502 159.517 73.667 159.019 73.1396C158.53 72.6123 157.832 72.334 156.924 72.3047C155.576 72.2559 154.463 72.7881 153.584 73.9014C152.705 75.0049 152.104 76.5869 151.782 78.6475C151.509 80.4053 151.411 81.7725 151.489 82.749C151.636 85.1025 152.695 86.2939 154.668 86.3232C155.859 86.3428 156.904 86.0547 157.803 85.459L158.462 82.1338H154.99L155.605 78.6035H164.087L162.71 87.3779ZM170.356 90H165.347L169.053 68.6719H174.048L170.356 90ZM191.626 87.3779C190.825 88.3154 189.658 89.043 188.125 89.5605C186.592 90.0684 184.893 90.3076 183.027 90.2783C181.24 90.2588 179.731 89.8096 178.501 88.9307C177.271 88.0518 176.392 86.8262 175.864 85.2539C175.337 83.6816 175.195 81.9092 175.439 79.9365L175.557 79.0576C176.006 75.7471 177.168 73.125 179.043 71.1914C180.928 69.2578 183.232 68.3154 185.957 68.3643C188.34 68.4033 190.171 69.043 191.45 70.2832C192.729 71.5234 193.442 73.3154 193.589 75.6592L188.784 75.6445C188.716 74.502 188.433 73.667 187.935 73.1396C187.446 72.6123 186.748 72.334 185.84 72.3047C184.492 72.2559 183.379 72.7881 182.5 73.9014C181.621 75.0049 181.021 76.5869 180.698 78.6475C180.425 80.4053 180.327 81.7725 180.405 82.749C180.552 85.1025 181.611 86.2939 183.584 86.3232C184.775 86.3428 185.82 86.0547 186.719 85.459L187.378 82.1338H183.906L184.521 78.6035H193.003L191.626 87.3779ZM206.45 86.0156H199.639L197.749 90H192.227L203.521 68.6719H208.237L212.178 90H206.963L206.45 86.0156ZM201.514 82.0459H205.938L205 74.6924L201.514 82.0459ZM225.625 84.2285C225.84 83.125 225.244 82.2705 223.838 81.665L221.436 80.6689C218.066 79.1553 216.465 77.0947 216.631 74.4873C216.699 73.2959 217.109 72.2363 217.861 71.3086C218.613 70.3711 219.653 69.6436 220.981 69.126C222.31 68.6084 223.76 68.3594 225.332 68.3789C227.441 68.418 229.136 69.0332 230.415 70.2246C231.704 71.416 232.339 73.0127 232.319 75.0146H227.339C227.368 74.1943 227.192 73.54 226.812 73.0518C226.44 72.5537 225.825 72.2949 224.966 72.2754C224.126 72.2559 223.384 72.4512 222.739 72.8613C222.095 73.2715 221.714 73.8232 221.597 74.5166C221.411 75.4932 222.134 76.2939 223.765 76.9189C225.405 77.5439 226.597 78.0811 227.339 78.5303C229.673 79.9268 230.767 81.8115 230.62 84.1846C230.542 85.415 230.146 86.4941 229.434 87.4219C228.721 88.3496 227.729 89.0674 226.46 89.5752C225.2 90.083 223.784 90.3271 222.212 90.3076C221.06 90.2881 219.99 90.1074 219.004 89.7656C218.018 89.4238 217.173 88.9258 216.47 88.2715C215.044 86.9531 214.36 85.2197 214.419 83.0713L219.443 83.0859C219.385 84.1797 219.595 85.0098 220.073 85.5762C220.552 86.1328 221.357 86.4111 222.49 86.4111C223.33 86.4111 224.028 86.2207 224.585 85.8398C225.151 85.4492 225.498 84.9121 225.625 84.2285Z" fill="#BBBBBB"/>
<path d="M88.0225 91H44.6484L46.2305 80.8047L68.9941 59.667L72.1143 56.5469C77.0068 51.625 79.248 46.9814 78.8379 42.6162C78.5156 39.2178 76.7578 37.4746 73.5645 37.3867C71.3086 37.3281 69.3896 38.251 67.8076 40.1553C66.2549 42.0303 65.2881 44.4912 64.9072 47.5381L50.5371 47.626C50.7715 43.6123 51.9873 39.9502 54.1846 36.6396C56.3818 33.2998 59.3115 30.6924 62.9736 28.8174C66.665 26.9424 70.5908 26.0195 74.751 26.0488C80.9912 26.166 85.8252 27.8652 89.2529 31.1465C92.6807 34.3984 94.1748 38.8076 93.7354 44.374C93.4717 47.6553 92.3877 50.8486 90.4834 53.9541C88.6084 57.0596 85.8691 60.3262 82.2656 63.7539L75.5859 69.9062L65.6543 79.4863L89.8242 79.5742L88.0225 91ZM147.48 35.585L115.928 91H100.107L131.528 38.4414H102.217L104.062 27.0156H148.843L147.48 35.585Z" fill="#EF3829"/>
<path d="M88.0225 91V94H90.5865L90.9858 91.4673L88.0225 91ZM44.6484 91L41.6839 90.54L41.147 94H44.6484V91ZM46.2305 80.8047L44.1891 78.6063L43.4257 79.3152L43.2659 80.3447L46.2305 80.8047ZM68.9941 59.667L71.0355 61.8654L71.0762 61.8276L71.1155 61.7883L68.9941 59.667ZM72.1143 56.5469L74.2356 58.6682L74.2419 58.6619L72.1143 56.5469ZM78.8379 42.6162L81.8247 42.3356L81.8245 42.333L78.8379 42.6162ZM73.5645 37.3867L73.647 34.3879L73.6423 34.3877L73.5645 37.3867ZM67.8076 40.1553L65.5 38.2382L65.497 38.2418L67.8076 40.1553ZM64.9072 47.5381L64.9256 50.538L67.5576 50.5219L67.8841 47.9102L64.9072 47.5381ZM50.5371 47.626L47.5422 47.4511L47.3557 50.6455L50.5555 50.6259L50.5371 47.626ZM54.1846 36.6396L56.6841 38.2987L56.6908 38.2885L54.1846 36.6396ZM62.9736 28.8174L61.615 26.1426L61.6064 26.147L62.9736 28.8174ZM74.751 26.0488L74.8073 23.0494L74.7897 23.049L74.7721 23.0489L74.751 26.0488ZM89.2529 31.1465L87.1784 33.3136L87.1881 33.3229L89.2529 31.1465ZM93.7354 44.374L96.7257 44.6143L96.726 44.6101L93.7354 44.374ZM90.4834 53.9541L87.9259 52.3858L87.9205 52.3947L87.9152 52.4035L90.4834 53.9541ZM82.2656 63.7539L84.2981 65.9605L84.3158 65.9442L84.3333 65.9276L82.2656 63.7539ZM75.5859 69.9062L73.5535 67.6996L73.5281 67.723L73.5032 67.7471L75.5859 69.9062ZM65.6543 79.4863L63.5715 77.3271L58.2509 82.4594L65.6434 82.4863L65.6543 79.4863ZM89.8242 79.5742L92.7876 80.0415L93.3324 76.587L89.8351 76.5742L89.8242 79.5742ZM88.0225 88H44.6484V94H88.0225V88ZM47.613 91.46L49.195 81.2647L43.2659 80.3447L41.6839 90.54L47.613 91.46ZM48.2718 83.0031L71.0355 61.8654L66.9528 57.4686L44.1891 78.6063L48.2718 83.0031ZM71.1155 61.7883L74.2356 58.6682L69.9929 54.4256L66.8728 57.5457L71.1155 61.7883ZM74.2419 58.6619C79.398 53.4748 82.3567 47.9975 81.8247 42.3356L75.851 42.8969C76.1394 45.9654 74.6156 49.7752 69.9866 54.4319L74.2419 58.6619ZM81.8245 42.333C81.6221 40.1982 80.9279 38.1546 79.3903 36.6298C77.8264 35.079 75.7769 34.4465 73.647 34.3879L73.4819 40.3856C74.5453 40.4149 74.9715 40.6979 75.1654 40.8902C75.3856 41.1086 75.7315 41.6358 75.8513 42.8994L81.8245 42.333ZM73.6423 34.3877C70.3701 34.3027 67.6042 35.7054 65.5 38.2382L70.1152 42.0723C71.1751 40.7965 72.2471 40.3535 73.4866 40.3857L73.6423 34.3877ZM65.497 38.2418C63.4957 40.6585 62.3637 43.6996 61.9304 47.166L67.8841 47.9102C68.2125 45.2828 69.014 43.402 70.1182 42.0687L65.497 38.2418ZM64.8889 44.5381L50.5188 44.626L50.5555 50.6259L64.9256 50.538L64.8889 44.5381ZM53.532 47.8009C53.7358 44.3104 54.784 41.1615 56.6841 38.2986L51.685 34.9807C49.1906 38.7389 47.8071 42.9142 47.5422 47.4511L53.532 47.8009ZM56.6908 38.2885C58.5945 35.3949 61.1263 33.1336 64.3408 31.4877L61.6064 26.147C57.4968 28.2512 54.1691 31.2048 51.6783 34.9908L56.6908 38.2885ZM64.3322 31.4921C67.5942 29.8353 71.0466 29.0228 74.7299 29.0488L74.7721 23.0489C70.1351 23.0162 65.7359 24.0495 61.615 26.1426L64.3322 31.4921ZM74.6946 29.0483C80.4251 29.1559 84.4486 30.7004 87.1784 33.3136L91.3274 28.9794C87.2018 25.03 81.5573 23.1761 74.8073 23.0494L74.6946 29.0483ZM87.1881 33.3229C89.8366 35.8355 91.1273 39.2914 90.7447 44.1379L96.726 44.6101C97.2223 38.3239 95.5248 32.9614 91.3177 28.9701L87.1881 33.3229ZM90.745 44.1337C90.523 46.896 89.6102 49.6393 87.9259 52.3858L93.0409 55.5224C95.1652 52.058 96.4203 48.4145 96.7257 44.6143L90.745 44.1337ZM87.9152 52.4035C86.2189 55.2129 83.6739 58.2739 80.198 61.5802L84.3333 65.9276C88.0644 62.3785 90.9978 58.9062 93.0516 55.5047L87.9152 52.4035ZM80.2332 61.5473L73.5535 67.6996L77.6184 72.1129L84.2981 65.9605L80.2332 61.5473ZM73.5032 67.7471L63.5715 77.3271L67.7371 81.6455L77.6687 72.0654L73.5032 67.7471ZM65.6434 82.4863L89.8133 82.5742L89.8351 76.5742L65.6652 76.4863L65.6434 82.4863ZM86.8608 79.1069L85.0591 90.5327L90.9858 91.4673L92.7876 80.0415L86.8608 79.1069ZM147.48 35.585L150.087 37.0694L150.358 36.595L150.443 36.056L147.48 35.585ZM115.928 91V94H117.672L118.535 92.4844L115.928 91ZM100.107 91L97.5325 89.4606L94.8187 94H100.107V91ZM131.528 38.4414L134.103 39.9808L136.817 35.4414H131.528V38.4414ZM102.217 38.4414L99.2552 37.963L98.6933 41.4414H102.217V38.4414ZM104.062 27.0156V24.0156H101.508L101.101 26.5372L104.062 27.0156ZM148.843 27.0156L151.806 27.4866L152.357 24.0156H148.843V27.0156ZM144.873 34.1006L113.321 89.5156L118.535 92.4844L150.087 37.0694L144.873 34.1006ZM115.928 88H100.107V94H115.928V88ZM102.682 92.5394L134.103 39.9808L128.953 36.902L97.5325 89.4606L102.682 92.5394ZM131.528 35.4414H102.217V41.4414H131.528V35.4414ZM105.178 38.9198L107.024 27.494L101.101 26.5372L99.2552 37.963L105.178 38.9198ZM104.062 30.0156H148.843V24.0156H104.062V30.0156ZM145.88 26.5446L144.518 35.114L150.443 36.056L151.806 27.4866L145.88 26.5446Z" fill="#EF3829"/>
</g>
<defs>
<filter id="filter0_f" x="8" y="81" width="156" height="26" filterUnits="userSpaceOnUse" color-interpolation-filters="sRGB">
<feFlood flood-opacity="0" result="BackgroundImageFix"/>
<feBlend mode="normal" in="SourceGraphic" in2="BackgroundImageFix" result="shape"/>
<feGaussianBlur stdDeviation="5" result="effect1_foregroundBlur"/>
</filter>
<clipPath id="clip0">
<rect width="277" height="105.82" fill="white"/>
</clipPath>
</defs>
</svg>
