<svg width="277" height="106" viewBox="0 0 277 106" fill="none" xmlns="http://www.w3.org/2000/svg">
<g clip-path="url(#clip0)">
<g filter="url(#filter0_f)">
<ellipse cx="105" cy="94.8613" rx="68" ry="3" fill="#C4C4C4" fill-opacity="0.5"/>
</g>
<path d="M170.71 90.3779C169.909 91.3154 168.742 92.043 167.209 92.5605C165.676 93.0684 163.977 93.3076 162.111 93.2783C160.324 93.2588 158.815 92.8096 157.585 91.9307C156.354 91.0518 155.476 89.8262 154.948 88.2539C154.421 86.6816 154.279 84.9092 154.523 82.9365L154.641 82.0576C155.09 78.7471 156.252 76.125 158.127 74.1914C160.012 72.2578 162.316 71.3154 165.041 71.3643C167.424 71.4033 169.255 72.043 170.534 73.2832C171.813 74.5234 172.526 76.3154 172.673 78.6592L167.868 78.6445C167.8 77.502 167.517 76.667 167.019 76.1396C166.53 75.6123 165.832 75.334 164.924 75.3047C163.576 75.2559 162.463 75.7881 161.584 76.9014C160.705 78.0049 160.104 79.5869 159.782 81.6475C159.509 83.4053 159.411 84.7725 159.489 85.749C159.636 88.1025 160.695 89.2939 162.668 89.3232C163.859 89.3428 164.904 89.0547 165.803 88.459L166.462 85.1338H162.99L163.605 81.6035H172.087L170.71 90.3779ZM178.356 93H173.347L177.053 71.6719H182.048L178.356 93ZM199.626 90.3779C198.825 91.3154 197.658 92.043 196.125 92.5605C194.592 93.0684 192.893 93.3076 191.027 93.2783C189.24 93.2588 187.731 92.8096 186.501 91.9307C185.271 91.0518 184.392 89.8262 183.864 88.2539C183.337 86.6816 183.195 84.9092 183.439 82.9365L183.557 82.0576C184.006 78.7471 185.168 76.125 187.043 74.1914C188.928 72.2578 191.232 71.3154 193.957 71.3643C196.34 71.4033 198.171 72.043 199.45 73.2832C200.729 74.5234 201.442 76.3154 201.589 78.6592L196.784 78.6445C196.716 77.502 196.433 76.667 195.935 76.1396C195.446 75.6123 194.748 75.334 193.84 75.3047C192.492 75.2559 191.379 75.7881 190.5 76.9014C189.621 78.0049 189.021 79.5869 188.698 81.6475C188.425 83.4053 188.327 84.7725 188.405 85.749C188.552 88.1025 189.611 89.2939 191.584 89.3232C192.775 89.3428 193.82 89.0547 194.719 88.459L195.378 85.1338H191.906L192.521 81.6035H201.003L199.626 90.3779ZM214.45 89.0156H207.639L205.749 93H200.227L211.521 71.6719H216.237L220.178 93H214.963L214.45 89.0156ZM209.514 85.0459H213.938L213 77.6924L209.514 85.0459ZM233.625 87.2285C233.84 86.125 233.244 85.2705 231.838 84.665L229.436 83.6689C226.066 82.1553 224.465 80.0947 224.631 77.4873C224.699 76.2959 225.109 75.2363 225.861 74.3086C226.613 73.3711 227.653 72.6436 228.981 72.126C230.31 71.6084 231.76 71.3594 233.332 71.3789C235.441 71.418 237.136 72.0332 238.415 73.2246C239.704 74.416 240.339 76.0127 240.319 78.0146H235.339C235.368 77.1943 235.192 76.54 234.812 76.0518C234.44 75.5537 233.825 75.2949 232.966 75.2754C232.126 75.2559 231.384 75.4512 230.739 75.8613C230.095 76.2715 229.714 76.8232 229.597 77.5166C229.411 78.4932 230.134 79.2939 231.765 79.9189C233.405 80.5439 234.597 81.0811 235.339 81.5303C237.673 82.9268 238.767 84.8115 238.62 87.1846C238.542 88.415 238.146 89.4941 237.434 90.4219C236.721 91.3496 235.729 92.0674 234.46 92.5752C233.2 93.083 231.784 93.3271 230.212 93.3076C229.06 93.2881 227.99 93.1074 227.004 92.7656C226.018 92.4238 225.173 91.9258 224.47 91.2715C223.044 89.9531 222.36 88.2197 222.419 86.0713L227.443 86.0859C227.385 87.1797 227.595 88.0098 228.073 88.5762C228.552 89.1328 229.357 89.4111 230.49 89.4111C231.33 89.4111 232.028 89.2207 232.585 88.8398C233.151 88.4492 233.498 87.9121 233.625 87.2285Z" fill="#BBBBBB"/>
<path d="M68.7207 53.8115L75.1807 53.8555C77.8174 53.7969 79.9854 53.0352 81.6846 51.5703C83.3838 50.0762 84.3945 47.9961 84.7168 45.3301C84.9512 43.3379 84.5557 41.6973 83.5303 40.4082C82.5049 39.1191 80.9668 38.46 78.916 38.4307C77.0117 38.3721 75.3271 38.8994 73.8623 40.0127C72.3975 41.126 71.46 42.6055 71.0498 44.4512L56.5479 44.5391C56.7236 41.082 57.8369 38.0205 59.8877 35.3545C61.9385 32.6885 64.6631 30.6377 68.0615 29.2021C71.4893 27.7373 75.166 27.0195 79.0918 27.0488C85.5371 27.1953 90.6055 28.8945 94.2969 32.1465C97.9883 35.3691 99.6729 39.6758 99.3506 45.0664C98.9697 51.1016 95.0293 55.877 87.5293 59.3926C90.3711 60.7988 92.4951 62.7471 93.9014 65.2373C95.3076 67.7275 95.9375 70.54 95.791 73.6748C95.5859 77.6006 94.3408 81.0283 92.0557 83.958C89.7705 86.8584 86.709 89.0996 82.8711 90.6816C79.0332 92.2344 74.917 92.9668 70.5225 92.8789C66.6846 92.8496 63.1982 92.0439 60.0635 90.4619C56.958 88.8506 54.5703 86.6387 52.9004 83.8262C51.2305 81.0137 50.4102 77.791 50.4395 74.1582H64.8535C64.8828 76.2383 65.498 77.9521 66.6992 79.2998C67.9004 80.6475 69.585 81.3506 71.7529 81.4092C74.1846 81.4678 76.3379 80.75 78.2129 79.2559C80.0879 77.7617 81.2012 75.7988 81.5527 73.3672C81.9043 70.7598 81.5088 68.7236 80.3662 67.2588C79.2529 65.7646 77.3779 64.9736 74.7412 64.8857L67.0068 64.8418L68.7207 53.8115ZM106.294 60.5352L115.171 28.0156H151.646L149.8 39.5293H125.322L121.411 52.3174C123.784 50.7939 126.729 50.0029 130.244 49.9443C135.869 49.9443 140.19 51.8926 143.208 55.7891C146.255 59.6855 147.515 64.7832 146.987 71.082C146.46 77.5859 143.926 82.8887 139.385 86.9902C134.844 91.0625 129.351 93.04 122.905 92.9229C119.126 92.835 115.684 91.9561 112.578 90.2861C109.502 88.6162 107.114 86.3457 105.415 83.4746C103.716 80.5742 102.881 77.3369 102.91 73.7627H117.324C117.383 76.0479 117.954 77.8789 119.038 79.2559C120.122 80.6328 121.646 81.3506 123.608 81.4092C126.011 81.4971 128.003 80.6035 129.585 78.7285C131.167 76.8242 132.178 73.9385 132.617 70.0713C132.91 66.8193 132.471 64.3584 131.299 62.6885C130.127 60.9893 128.296 60.1396 125.806 60.1396C122.612 60.1396 120.02 61.2236 118.027 63.3916L106.294 60.5352Z" fill="#EF3829"/>
<path d="M68.7207 53.8115L68.7411 50.8116L66.1536 50.794L65.7563 53.3509L68.7207 53.8115ZM75.1807 53.8555L75.1603 56.8554L75.2038 56.8557L75.2473 56.8547L75.1807 53.8555ZM81.6846 51.5703L83.6434 53.8425L83.6545 53.8329L83.6656 53.8232L81.6846 51.5703ZM84.7168 45.3301L87.6951 45.6901L87.6962 45.6806L84.7168 45.3301ZM78.916 38.4307L78.8238 41.4292L78.8485 41.43L78.8732 41.4304L78.916 38.4307ZM71.0498 44.4512L71.068 47.4511L73.4596 47.4366L73.9784 45.102L71.0498 44.4512ZM56.5479 44.5391L53.5517 44.3867L53.3905 47.5583L56.566 47.539L56.5479 44.5391ZM68.0615 29.2021L69.2289 31.9657L69.2404 31.9608L68.0615 29.2021ZM79.0918 27.0488L79.16 24.0496L79.1371 24.0491L79.1142 24.0489L79.0918 27.0488ZM94.2969 32.1465L92.3138 34.3976L92.3239 34.4064L94.2969 32.1465ZM99.3506 45.0664L102.345 45.2554L102.345 45.2454L99.3506 45.0664ZM87.5293 59.3926L86.256 56.6762L80.6172 59.3194L86.1988 62.0814L87.5293 59.3926ZM95.791 73.6748L98.7869 73.8313L98.7874 73.8231L98.7877 73.8148L95.791 73.6748ZM92.0557 83.958L94.4121 85.8146L94.4167 85.8089L94.4212 85.8031L92.0557 83.958ZM82.8711 90.6816L83.9962 93.4627L84.0053 93.459L84.0144 93.4552L82.8711 90.6816ZM70.5225 92.8789L70.5824 89.8795L70.5639 89.8791L70.5454 89.879L70.5225 92.8789ZM60.0635 90.4619L58.6818 93.1248L58.6968 93.1326L58.7118 93.1402L60.0635 90.4619ZM50.4395 74.1582V71.1582H47.4635L47.4396 74.134L50.4395 74.1582ZM64.8535 74.1582L67.8532 74.116L67.8116 71.1582H64.8535V74.1582ZM71.7529 81.4092L71.6719 84.4081L71.6807 84.4083L71.7529 81.4092ZM81.5527 73.3672L84.5219 73.7965L84.5239 73.7823L84.5258 73.7681L81.5527 73.3672ZM80.3662 67.2588L77.9606 69.0512L77.9803 69.0778L78.0007 69.1039L80.3662 67.2588ZM74.7412 64.8857L74.8412 61.8874L74.7997 61.886L74.7583 61.8858L74.7412 64.8857ZM67.0068 64.8418L64.0424 64.3812L63.5078 67.822L66.9898 67.8417L67.0068 64.8418ZM68.7003 56.8115L75.1603 56.8554L75.2011 50.8555L68.7411 50.8116L68.7003 56.8115ZM75.2473 56.8547C78.452 56.7835 81.3275 55.839 83.6434 53.8425L79.7258 49.2981C78.6432 50.2313 77.1828 50.8102 75.114 50.8562L75.2473 56.8547ZM83.6656 53.8232C86.0189 51.7539 87.3018 48.9438 87.6951 45.6901L81.7385 44.9701C81.4872 47.0484 80.7487 48.3984 79.7036 49.3174L83.6656 53.8232ZM87.6962 45.6806C88.0023 43.0789 87.506 40.5871 85.8781 38.5406L81.1825 42.2758C81.6054 42.8074 81.9 43.5969 81.7373 44.9796L87.6962 45.6806ZM85.8781 38.5406C84.1584 36.3787 81.6678 35.4697 78.9589 35.431L78.8732 41.4304C80.2658 41.4503 80.8514 41.8596 81.1825 42.2758L85.8781 38.5406ZM79.0083 35.4321C76.4435 35.3532 74.0798 36.0794 72.0471 37.6242L75.6776 42.4012C76.5745 41.7195 77.58 41.391 78.8238 41.4292L79.0083 35.4321ZM72.0471 37.6242C70.0005 39.1796 68.6807 41.2829 68.1212 43.8004L73.9784 45.102C74.2392 43.928 74.7945 43.0723 75.6776 42.4012L72.0471 37.6242ZM71.0316 41.4512L56.5297 41.5391L56.566 47.539L71.068 47.4511L71.0316 41.4512ZM59.544 44.6914C59.6898 41.8243 60.5978 39.3517 62.2656 37.1836L57.5098 33.5254C55.076 36.6893 53.7575 40.3398 53.5517 44.3867L59.544 44.6914ZM62.2656 37.1836C63.9704 34.9674 66.2605 33.2196 69.2289 31.9657L66.8942 26.4386C63.0657 28.0558 59.9066 30.4096 57.5098 33.5254L62.2656 37.1836ZM69.2404 31.9608C72.2686 30.6667 75.534 30.0224 79.0694 30.0487L79.1142 24.0489C74.798 24.0167 70.71 24.8079 66.8826 26.4435L69.2404 31.9608ZM79.0236 30.0481C84.9848 30.1835 89.2985 31.7413 92.3138 34.3976L96.28 29.8954C91.9124 26.0478 86.0894 24.2071 79.16 24.0496L79.0236 30.0481ZM92.3239 34.4064C95.2374 36.95 96.6293 40.3155 96.3559 44.8874L102.345 45.2454C102.716 39.036 100.739 33.7883 96.2698 29.8865L92.3239 34.4064ZM96.3565 44.8775C96.0695 49.4254 93.1814 53.4299 86.256 56.6762L88.8026 62.109C96.8772 58.324 101.87 52.7777 102.345 45.2554L96.3565 44.8775ZM86.1988 62.0814C88.5623 63.251 90.2105 64.8025 91.2891 66.7125L96.5136 63.7621C94.7797 60.6917 92.1799 58.3467 88.8598 56.7038L86.1988 62.0814ZM91.2891 66.7125C92.3911 68.6639 92.9171 70.907 92.7943 73.5348L98.7877 73.8148C98.9579 70.1731 98.2241 66.7912 96.5136 63.7621L91.2891 66.7125ZM92.7951 73.5183C92.6201 76.8676 91.5745 79.6971 89.6902 82.1129L94.4212 85.8031C97.1072 82.3595 98.5517 78.3335 98.7869 73.8313L92.7951 73.5183ZM89.6992 82.1014C87.771 84.5487 85.1495 86.4976 81.7278 87.908L84.0144 93.4552C88.2684 91.7017 91.77 89.1681 94.4121 85.8146L89.6992 82.1014ZM81.7459 87.9006C78.3071 89.2919 74.5966 89.9598 70.5824 89.8795L70.4625 95.8783C75.2373 95.9738 79.7593 95.1768 83.9962 93.4627L81.7459 87.9006ZM70.5454 89.879C67.1256 89.8529 64.1003 89.1388 61.4151 87.7837L58.7118 93.1402C62.2961 94.9491 66.2436 95.8463 70.4996 95.8788L70.5454 89.879ZM61.4452 87.799C58.8007 86.4269 56.8439 84.5918 55.48 82.2946L50.3208 85.3578C52.2967 88.6856 55.1153 91.2743 58.6818 93.1248L61.4452 87.799ZM55.48 82.2946C54.1196 80.0034 53.414 77.3303 53.4394 74.1824L47.4396 74.134C47.4063 78.2518 48.3413 82.0239 50.3208 85.3578L55.48 82.2946ZM50.4395 77.1582H64.8535V71.1582H50.4395V77.1582ZM61.8538 74.2005C61.8916 76.8854 62.7061 79.3285 64.4597 81.2959L68.9388 77.3037C68.29 76.5758 67.874 75.5911 67.8532 74.116L61.8538 74.2005ZM64.4597 81.2959C66.3206 83.3838 68.8568 84.332 71.6719 84.4081L71.834 78.4103C70.3131 78.3692 69.4802 77.9112 68.9388 77.3037L64.4597 81.2959ZM71.6807 84.4083C74.805 84.4836 77.6482 83.5419 80.0825 81.602L76.3433 76.9097C75.0276 77.9581 73.5642 78.452 71.8252 78.4101L71.6807 84.4083ZM80.0825 81.602C82.5708 79.6192 84.0641 76.9629 84.5219 73.7965L78.5836 72.9379C78.3383 74.6347 77.605 75.9042 76.3433 76.9097L80.0825 81.602ZM84.5258 73.7681C84.9397 70.6983 84.547 67.741 82.7317 65.4137L78.0007 69.1039C78.4705 69.7062 78.8689 70.8212 78.5796 72.9663L84.5258 73.7681ZM82.7719 65.4663C80.9132 62.9719 77.992 61.9924 74.8412 61.8874L74.6413 67.8841C76.7638 67.9548 77.5926 68.5574 77.9606 69.0512L82.7719 65.4663ZM74.7583 61.8858L67.0239 61.8418L66.9898 67.8417L74.7242 67.8857L74.7583 61.8858ZM69.9713 65.3024L71.6851 54.2721L65.7563 53.3509L64.0424 64.3812L69.9713 65.3024ZM106.294 60.5352L103.4 59.7451L102.588 62.7205L105.584 63.45L106.294 60.5352ZM115.171 28.0156V25.0156H112.88L112.277 27.2256L115.171 28.0156ZM151.646 28.0156L154.608 28.4905L155.165 25.0156H151.646V28.0156ZM149.8 39.5293V42.5293H152.357L152.762 40.0042L149.8 39.5293ZM125.322 39.5293V36.5293H123.103L122.453 38.6519L125.322 39.5293ZM121.411 52.3174L118.542 51.44L116.151 59.2594L123.032 54.8419L121.411 52.3174ZM130.244 49.9443V46.9443H130.219L130.194 46.9448L130.244 49.9443ZM143.208 55.7891L140.836 57.626L140.845 57.637L143.208 55.7891ZM146.987 71.082L143.998 70.8317L143.997 70.8396L146.987 71.082ZM139.385 86.9902L141.388 89.2237L141.396 89.2165L139.385 86.9902ZM122.905 92.9229L122.836 95.922L122.843 95.9222L122.851 95.9224L122.905 92.9229ZM112.578 90.2861L111.147 92.9227L111.157 92.9283L112.578 90.2861ZM105.415 83.4746L102.827 84.9911L102.833 85.0026L105.415 83.4746ZM102.91 73.7627V70.7627H99.9346L99.9103 73.7381L102.91 73.7627ZM117.324 73.7627L120.323 73.6858L120.248 70.7627H117.324V73.7627ZM123.608 81.4092L123.718 78.4112L123.708 78.4108L123.698 78.4105L123.608 81.4092ZM129.585 78.7285L131.878 80.6631L131.885 80.6544L131.893 80.6456L129.585 78.7285ZM132.617 70.0713L135.598 70.41L135.602 70.3753L135.605 70.3405L132.617 70.0713ZM131.299 62.6885L128.829 64.3917L128.836 64.4017L128.843 64.4118L131.299 62.6885ZM118.027 63.3916L117.318 66.3065L119.038 66.7253L120.236 65.4215L118.027 63.3916ZM109.188 61.3252L118.065 28.8056L112.277 27.2256L103.4 59.7451L109.188 61.3252ZM115.171 31.0156H151.646V25.0156H115.171V31.0156ZM148.683 27.5408L146.838 39.0544L152.762 40.0042L154.608 28.4905L148.683 27.5408ZM149.8 36.5293H125.322V42.5293H149.8V36.5293ZM122.453 38.6519L118.542 51.44L124.28 53.1948L128.191 40.4067L122.453 38.6519ZM123.032 54.8419C124.832 53.686 127.199 52.9955 130.294 52.9439L130.194 46.9448C126.258 47.0104 122.736 47.9019 119.79 49.7928L123.032 54.8419ZM130.244 52.9443C135.09 52.9443 138.472 54.5733 140.836 57.6259L145.58 53.9522C141.909 49.2118 136.648 46.9443 130.244 46.9443V52.9443ZM140.845 57.637C143.307 60.7862 144.48 65.0693 143.998 70.8317L149.977 71.3323C150.549 64.4971 149.203 58.5849 145.571 53.9411L140.845 57.637ZM143.997 70.8396C143.527 76.6371 141.308 81.2109 137.374 84.7639L141.396 89.2165C146.544 84.5665 149.393 78.5348 149.977 71.3245L143.997 70.8396ZM137.382 84.7568C133.44 88.2921 128.695 90.0276 122.96 89.9233L122.851 95.9224C130.007 96.0525 136.248 93.8329 141.388 89.2237L137.382 84.7568ZM122.975 89.9237C119.633 89.8459 116.659 89.0742 113.999 87.6439L111.157 92.9283C114.708 94.8379 118.619 95.824 122.836 95.922L122.975 89.9237ZM114.009 87.6496C111.385 86.2251 109.406 84.3276 107.997 81.9466L102.833 85.0026C104.823 88.3638 107.618 91.0073 111.147 92.9227L114.009 87.6496ZM108.004 81.9581C106.595 79.5547 105.885 76.8557 105.91 73.7873L99.9103 73.7381C99.8768 77.8181 100.836 81.5937 102.827 84.9911L108.004 81.9581ZM102.91 76.7627H117.324V70.7627H102.91V76.7627ZM114.325 73.8396C114.395 76.5745 115.09 79.0908 116.681 81.1115L121.395 77.4002C120.818 76.667 120.37 75.5212 120.323 73.6858L114.325 73.8396ZM116.681 81.1115C118.385 83.2759 120.789 84.3263 123.519 84.4078L123.698 78.4105C122.502 78.3748 121.859 77.9897 121.395 77.4002L116.681 81.1115ZM123.499 84.4072C126.845 84.5296 129.715 83.2262 131.878 80.6631L127.292 76.7939C126.291 77.9809 125.177 78.4646 123.718 78.4112L123.499 84.4072ZM131.893 80.6456C134.005 78.1029 135.127 74.5524 135.598 70.41L129.636 69.7326C129.228 73.3246 128.329 75.5456 127.277 76.8115L131.893 80.6456ZM135.605 70.3405C135.926 66.7808 135.516 63.4753 133.754 60.9652L128.843 64.4118C129.425 65.2415 129.895 66.8579 129.629 69.8021L135.605 70.3405ZM133.768 60.9853C131.917 58.3001 129.05 57.1396 125.806 57.1396V63.1396C127.542 63.1396 128.337 63.6784 128.829 64.3917L133.768 60.9853ZM125.806 57.1396C121.852 57.1396 118.43 58.5193 115.818 61.3617L120.236 65.4215C121.609 63.9279 123.373 63.1396 125.806 63.1396V57.1396ZM118.737 60.4767L107.004 57.6203L105.584 63.45L117.318 66.3065L118.737 60.4767Z" fill="#EF3829"/>
</g>
<defs>
<filter id="filter0_f" x="27" y="81.8613" width="156" height="26" filterUnits="userSpaceOnUse" color-interpolation-filters="sRGB">
<feFlood flood-opacity="0" result="BackgroundImageFix"/>
<feBlend mode="normal" in="SourceGraphic" in2="BackgroundImageFix" result="shape"/>
<feGaussianBlur stdDeviation="5" result="effect1_foregroundBlur"/>
</filter>
<clipPath id="clip0">
<rect width="277" height="105.82" fill="white"/>
</clipPath>
</defs>
</svg>
