<svg width="277" height="106" viewBox="0 0 277 106" fill="none" xmlns="http://www.w3.org/2000/svg">
<g clip-path="url(#clip0)">
<g clip-path="url(#clip1)">
<path d="M151.218 15.0728C152.005 15.2798 152.596 15.68 153.217 16.3837C153.777 17.0323 154.08 17.8602 154.05 18.6882V18.702V18.7158C154.05 18.7158 154.05 18.7296 154.065 18.7296C154.065 18.7296 154.065 18.7434 154.08 18.7434L154.096 18.7572C154.096 18.7572 154.111 18.7572 154.111 18.771H154.126H154.141C154.186 18.771 154.217 18.7434 154.217 18.702C154.217 18.702 154.217 18.702 154.217 18.6882C154.186 17.874 154.489 17.0323 155.05 16.3837C155.656 15.6662 156.262 15.2798 157.049 15.0728C157.095 15.059 157.11 15.0314 157.11 14.99C157.11 14.9486 157.079 14.921 157.049 14.921C156.246 14.7416 155.762 14.3138 155.247 13.817C154.747 13.3341 154.398 12.6993 154.232 11.9127C154.232 11.9127 154.232 11.9127 154.232 11.8989C154.232 11.8851 154.232 11.8851 154.217 11.8851C154.217 11.8851 154.217 11.8851 154.217 11.8713L154.202 11.8575C154.202 11.8575 154.202 11.8575 154.186 11.8575C154.186 11.8575 154.171 11.8575 154.171 11.8438H154.156H154.141C154.141 11.8438 154.126 11.8438 154.126 11.8575C154.126 11.8575 154.126 11.8575 154.111 11.8575L154.096 11.8713C154.096 11.8713 154.096 11.8713 154.096 11.8851C154.096 11.8851 154.096 11.8989 154.08 11.8989C154.08 11.8989 154.08 11.8989 154.08 11.9127C153.914 12.6993 153.565 13.3479 153.066 13.817C152.52 14.3138 152.02 14.7416 151.218 14.921C151.187 14.921 151.157 14.9486 151.157 14.99C151.157 15.0314 151.187 15.059 151.218 15.0728Z" fill="#954EDE"/>
</g>
<path d="M133.988 12.8834C133.801 12.9069 133.613 12.9771 133.449 13.0707C133.192 12.5557 132.607 12.2513 131.998 12.345C131.647 12.3918 131.342 12.5791 131.132 12.8366C130.851 12.6727 130.499 12.5791 130.148 12.6493C129.797 12.6961 129.493 12.8834 129.282 13.141C128.978 12.9537 128.65 12.8834 128.275 12.9303C127.526 13.0473 127.011 13.7263 127.105 14.4286C127.315 15.7163 127.386 16.325 127.432 16.5825C127.198 16.8635 127.081 17.2381 127.152 17.6127L127.479 19.6495C127.69 21.0308 128.65 22.2014 129.984 22.7867L131.061 29.6464C131.108 29.8805 131.319 30.021 131.576 29.9976C131.811 29.9507 131.998 29.74 131.951 29.5059L130.851 22.4355C130.827 22.295 130.734 22.1546 130.57 22.1077C129.399 21.6863 128.556 20.703 128.369 19.5324L128.041 17.4722C128.018 17.3083 128.065 17.1678 128.205 17.0508C128.205 17.0508 128.205 17.0508 128.229 17.0508C128.299 17.0039 128.392 16.9571 128.463 16.9337L130.851 16.5591C131.132 16.5123 131.366 16.6996 131.413 16.9337C131.459 17.1912 131.272 17.4254 130.991 17.4722L129.54 17.7063C129.423 17.7297 129.329 17.7765 129.259 17.8702C129.188 17.9638 129.165 18.0809 129.165 18.1745L129.376 19.5558C129.399 19.7197 129.54 19.8602 129.703 19.8836L131.857 20.3753C131.928 20.3987 131.974 20.3987 132.045 20.3753C132.209 20.3518 132.372 20.2348 132.419 20.0709C132.489 19.8368 132.349 19.6261 132.091 19.5558L130.219 19.111L130.101 18.4087L131.108 18.2448C131.74 18.1511 132.209 17.6595 132.279 17.0976C132.419 17.121 132.583 17.121 132.747 17.0976C133.098 17.0508 133.403 16.8635 133.613 16.6059C133.894 16.7698 134.245 16.8635 134.597 16.7932C134.76 16.7698 134.924 16.6996 135.065 16.6294L135.346 18.4321C135.603 20.1411 134.362 21.7331 132.56 22.0375C132.326 22.0843 132.138 22.295 132.185 22.5292C132.232 22.7633 132.443 22.9037 132.7 22.8803C133.332 22.7867 133.894 22.5526 134.386 22.2482L135.439 28.8972C135.486 29.1313 135.697 29.2718 135.954 29.2484C136.189 29.2016 136.376 28.9908 136.329 28.7567L135.205 21.5927C136.025 20.7264 136.446 19.5324 136.259 18.315L135.556 13.8902C135.439 13.2346 134.737 12.7664 133.988 12.8834ZM128.275 16.1143C128.205 15.6226 128.088 14.85 127.994 14.2882C127.948 14.0306 128.135 13.7965 128.416 13.7497C128.697 13.7029 128.931 13.8902 128.978 14.1243L129.259 15.9504L128.322 16.0909C128.322 16.1143 128.299 16.1143 128.275 16.1143ZM130.71 15.7397L130.148 15.8333L129.867 14.0072C129.821 13.7497 130.008 13.5156 130.289 13.4687C130.57 13.4219 130.804 13.6092 130.851 13.8433L131.155 15.7163C130.991 15.7163 130.851 15.7163 130.71 15.7397ZM132.63 16.325C132.349 16.3718 132.115 16.1845 132.068 15.9504L131.717 13.7029C131.67 13.4453 131.857 13.2112 132.138 13.1644C132.419 13.1176 132.653 13.3049 132.7 13.539L133.051 15.7865C133.075 16.0441 132.887 16.3016 132.63 16.325ZM134.479 16.0441C134.199 16.0909 133.964 15.9036 133.918 15.6695L133.683 14.2413C133.66 13.9838 133.847 13.7497 134.128 13.7029C134.409 13.656 134.643 13.8433 134.69 14.0775L134.924 15.5056C134.948 15.7631 134.76 15.9972 134.479 16.0441Z" fill="#FFDFFF"/>
<path d="M144.687 5.55559L144.43 3.86993C144.313 3.07392 143.517 2.51204 142.65 2.65251C142.393 2.69933 142.159 2.79298 141.971 2.93345C141.714 2.30133 141.011 1.90333 140.286 2.02039C139.841 2.09062 139.49 2.32474 139.256 2.6291C138.928 2.39498 138.506 2.30133 138.085 2.37156C137.64 2.4418 137.289 2.67592 137.055 2.98027C136.727 2.74616 136.306 2.65251 135.884 2.72274C135.041 2.86322 134.433 3.6124 134.573 4.43181C134.831 6.04724 134.924 6.74959 134.971 7.05395C134.69 7.38172 134.55 7.80313 134.62 8.22455L134.948 10.6594C135.205 12.2982 136.329 13.7029 137.944 14.3585L140.122 28.2417C140.169 28.4759 140.379 28.6163 140.637 28.5929C140.871 28.5461 141.058 28.3354 141.011 28.1013L138.787 13.9839C138.764 13.8434 138.67 13.7029 138.506 13.6561C137.078 13.141 136.048 11.947 135.837 10.5189L135.463 8.08407C135.439 7.87337 135.51 7.66266 135.674 7.49878C135.674 7.49878 135.697 7.49878 135.697 7.47536C135.791 7.40513 135.908 7.3583 136.025 7.33489L138.858 6.89007C139.232 6.84324 139.56 7.07736 139.63 7.40513C139.677 7.75631 139.419 8.08407 139.068 8.1309L137.336 8.41184C137.219 8.43525 137.125 8.48208 137.055 8.57572C136.985 8.66937 136.961 8.78643 136.961 8.88008L137.219 10.5189C137.242 10.6828 137.383 10.8233 137.546 10.8467L140.122 11.4554C140.192 11.4788 140.239 11.4788 140.309 11.4554C140.473 11.432 140.637 11.3149 140.684 11.151C140.754 10.9169 140.613 10.7062 140.356 10.636L138.062 10.0975L137.921 9.13761L139.209 8.9269C139.958 8.80984 140.496 8.22455 140.543 7.52219C140.731 7.56901 140.941 7.56901 141.152 7.5456C141.597 7.47536 141.948 7.24124 142.182 6.93689C142.51 7.17101 142.931 7.26466 143.353 7.19442C143.587 7.1476 143.821 7.07736 144.008 6.93689L144.359 9.23126C144.687 11.2915 143.165 13.2815 140.965 13.6093C140.731 13.6561 140.543 13.8668 140.59 14.1009C140.637 14.3351 140.848 14.4755 141.105 14.4521C141.878 14.3351 142.58 14.0307 143.189 13.6327L145.343 27.3521C145.389 27.5862 145.6 27.7267 145.858 27.7033C146.092 27.6564 146.279 27.4457 146.232 27.2116L143.985 12.9538C144.968 11.947 145.483 10.5423 145.249 9.09079L144.687 5.55559ZM135.744 6.53889C135.65 5.95359 135.51 4.9937 135.393 4.26793C135.346 3.91675 135.58 3.58898 135.954 3.54216C136.329 3.49534 136.657 3.72946 136.727 4.05722L137.078 6.32818L135.884 6.51547C135.837 6.51547 135.791 6.53889 135.744 6.53889ZM138.741 6.07065L137.968 6.18771L137.617 3.91675C137.57 3.56557 137.827 3.23781 138.179 3.19098C138.553 3.14416 138.881 3.37828 138.951 3.70604L139.326 6.07065C139.139 6.04724 138.928 6.04724 138.741 6.07065ZM141.011 6.77301C140.637 6.81983 140.309 6.58571 140.239 6.25794L139.841 3.58898C139.794 3.23781 140.052 2.91004 140.403 2.86322C140.777 2.81639 141.105 3.05051 141.175 3.37828L141.597 6.04724C141.644 6.39842 141.386 6.72618 141.011 6.77301ZM143.236 6.42183C142.861 6.46865 142.533 6.23453 142.463 5.90677L142.205 4.22111C142.159 3.86993 142.416 3.54216 142.767 3.49534C143.142 3.44851 143.47 3.68263 143.54 4.0104L143.797 5.69606C143.868 6.04724 143.61 6.375 143.236 6.42183Z" fill="#FFDFFF"/>
<path d="M132.894 12.8834C132.707 12.9069 132.519 12.9771 132.356 13.0707C132.098 12.5557 131.513 12.2513 130.904 12.345C130.553 12.3918 130.249 12.5791 130.038 12.8366C129.757 12.6727 129.406 12.5791 129.055 12.6493C128.703 12.6961 128.399 12.8834 128.188 13.141C127.884 12.9537 127.556 12.8834 127.182 12.9303C126.432 13.0473 125.917 13.7263 126.011 14.4286C126.222 15.7163 126.292 16.325 126.339 16.5825C126.105 16.8635 125.988 17.2381 126.058 17.6127L126.386 19.6495C126.596 21.0308 127.556 22.2014 128.891 22.7867L129.968 29.6464C130.014 29.8805 130.225 30.021 130.483 29.9976C130.717 29.9507 130.904 29.74 130.857 29.5059L129.757 22.4355C129.733 22.295 129.64 22.1546 129.476 22.1077C128.305 21.6863 127.463 20.703 127.275 19.5324L126.947 17.4722C126.924 17.3083 126.971 17.1678 127.111 17.0508C127.111 17.0508 127.111 17.0508 127.135 17.0508C127.205 17.0039 127.299 16.9571 127.369 16.9337L129.757 16.5591C130.038 16.5123 130.272 16.6996 130.319 16.9337C130.366 17.1912 130.178 17.4254 129.897 17.4722L128.446 17.7063C128.329 17.7297 128.235 17.7765 128.165 17.8702C128.095 17.9638 128.071 18.0809 128.071 18.1745L128.282 19.5558C128.305 19.7197 128.446 19.8602 128.61 19.8836L130.764 20.3753C130.834 20.3987 130.881 20.3987 130.951 20.3753C131.115 20.3518 131.279 20.2348 131.325 20.0709C131.396 19.8368 131.255 19.6261 130.998 19.5558L129.125 19.111L129.008 18.4087L130.014 18.2448C130.647 18.1511 131.115 17.6595 131.185 17.0976C131.325 17.121 131.489 17.121 131.653 17.0976C132.004 17.0508 132.309 16.8635 132.519 16.6059C132.8 16.7698 133.152 16.8635 133.503 16.7932C133.667 16.7698 133.831 16.6996 133.971 16.6294L134.252 18.4321C134.51 20.1411 133.269 21.7331 131.466 22.0375C131.232 22.0843 131.045 22.295 131.091 22.5292C131.138 22.7633 131.349 22.9037 131.606 22.8803C132.239 22.7867 132.8 22.5526 133.292 22.2482L134.346 28.8972C134.392 29.1313 134.603 29.2718 134.861 29.2484C135.095 29.2016 135.282 28.9908 135.235 28.7567L134.112 21.5927C134.931 20.7264 135.352 19.5324 135.165 18.315L134.463 13.8902C134.346 13.2346 133.643 12.7664 132.894 12.8834ZM127.182 16.1143C127.111 15.6226 126.994 14.85 126.901 14.2882C126.854 14.0306 127.041 13.7965 127.322 13.7497C127.603 13.7029 127.837 13.8902 127.884 14.1243L128.165 15.9504L127.228 16.0909C127.228 16.1143 127.205 16.1143 127.182 16.1143ZM129.616 15.7397L129.055 15.8333L128.774 14.0072C128.727 13.7497 128.914 13.5156 129.195 13.4687C129.476 13.4219 129.71 13.6092 129.757 13.8433L130.061 15.7163C129.897 15.7163 129.757 15.7163 129.616 15.7397ZM131.536 16.325C131.255 16.3718 131.021 16.1845 130.974 15.9504L130.623 13.7029C130.576 13.4453 130.764 13.2112 131.045 13.1644C131.325 13.1176 131.56 13.3049 131.606 13.539L131.958 15.7865C131.981 16.0441 131.794 16.3016 131.536 16.325ZM133.386 16.0441C133.105 16.0909 132.871 15.9036 132.824 15.6695L132.59 14.2413C132.566 13.9838 132.754 13.7497 133.035 13.7029C133.316 13.656 133.55 13.8433 133.596 14.0775L133.831 15.5056C133.854 15.7631 133.667 15.9972 133.386 16.0441Z" fill="#954EDE"/>
<path d="M143.593 5.55559L143.336 3.86993C143.219 3.07392 142.423 2.51204 141.557 2.65251C141.299 2.69933 141.065 2.79298 140.878 2.93345C140.62 2.30133 139.918 1.90333 139.192 2.02039C138.747 2.09062 138.396 2.32474 138.162 2.6291C137.834 2.39498 137.413 2.30133 136.991 2.37156C136.546 2.4418 136.195 2.67592 135.961 2.98027C135.633 2.74616 135.212 2.65251 134.79 2.72274C133.948 2.86322 133.339 3.6124 133.479 4.43181C133.737 6.04724 133.831 6.74959 133.877 7.05395C133.596 7.38172 133.456 7.80313 133.526 8.22455L133.854 10.6594C134.112 12.2982 135.235 13.7029 136.851 14.3585L139.028 28.2417C139.075 28.4759 139.286 28.6163 139.543 28.5929C139.777 28.5461 139.965 28.3354 139.918 28.1013L137.694 13.9839C137.67 13.8434 137.577 13.7029 137.413 13.6561C135.985 13.141 134.954 11.947 134.744 10.5189L134.369 8.08407C134.346 7.87337 134.416 7.66266 134.58 7.49878C134.58 7.49878 134.603 7.49878 134.603 7.47536C134.697 7.40513 134.814 7.3583 134.931 7.33489L137.764 6.89007C138.138 6.84324 138.466 7.07736 138.536 7.40513C138.583 7.75631 138.326 8.08407 137.975 8.1309L136.242 8.41184C136.125 8.43525 136.031 8.48208 135.961 8.57572C135.891 8.66937 135.867 8.78643 135.867 8.88008L136.125 10.5189C136.148 10.6828 136.289 10.8233 136.453 10.8467L139.028 11.4554C139.098 11.4788 139.145 11.4788 139.215 11.4554C139.379 11.432 139.543 11.3149 139.59 11.151C139.66 10.9169 139.52 10.7062 139.262 10.636L136.968 10.0975L136.827 9.13761L138.115 8.9269C138.864 8.80984 139.403 8.22455 139.449 7.52219C139.637 7.56901 139.847 7.56901 140.058 7.5456C140.503 7.47536 140.854 7.24124 141.088 6.93689C141.416 7.17101 141.837 7.26466 142.259 7.19442C142.493 7.1476 142.727 7.07736 142.914 6.93689L143.266 9.23126C143.593 11.2915 142.072 13.2815 139.871 13.6093C139.637 13.6561 139.449 13.8668 139.496 14.1009C139.543 14.3351 139.754 14.4755 140.011 14.4521C140.784 14.3351 141.486 14.0307 142.095 13.6327L144.249 27.3521C144.296 27.5862 144.506 27.7267 144.764 27.7033C144.998 27.6564 145.185 27.4457 145.139 27.2116L142.891 12.9538C143.874 11.947 144.389 10.5423 144.155 9.09079L143.593 5.55559ZM134.65 6.53889C134.556 5.95359 134.416 4.9937 134.299 4.26793C134.252 3.91675 134.486 3.58898 134.861 3.54216C135.235 3.49534 135.563 3.72946 135.633 4.05722L135.985 6.32818L134.79 6.51547C134.744 6.51547 134.697 6.53889 134.65 6.53889ZM137.647 6.07065L136.874 6.18771L136.523 3.91675C136.476 3.56557 136.734 3.23781 137.085 3.19098C137.459 3.14416 137.787 3.37828 137.857 3.70604L138.232 6.07065C138.045 6.04724 137.834 6.04724 137.647 6.07065ZM139.918 6.77301C139.543 6.81983 139.215 6.58571 139.145 6.25794L138.747 3.58898C138.7 3.23781 138.958 2.91004 139.309 2.86322C139.684 2.81639 140.011 3.05051 140.082 3.37828L140.503 6.04724C140.55 6.39842 140.292 6.72618 139.918 6.77301ZM142.142 6.42183C141.767 6.46865 141.439 6.23453 141.369 5.90677L141.112 4.22111C141.065 3.86993 141.322 3.54216 141.674 3.49534C142.048 3.44851 142.376 3.68263 142.446 4.0104L142.704 5.69606C142.774 6.04724 142.516 6.375 142.142 6.42183Z" fill="#954EDE"/>
<g filter="url(#filter0_f)">
<ellipse cx="101" cy="94" rx="68" ry="3" fill="#C4C4C4" fill-opacity="0.5"/>
</g>
<path d="M177.71 88.3779C176.909 89.3154 175.742 90.043 174.209 90.5605C172.676 91.0684 170.977 91.3076 169.111 91.2783C167.324 91.2588 165.815 90.8096 164.585 89.9307C163.354 89.0518 162.476 87.8262 161.948 86.2539C161.421 84.6816 161.279 82.9092 161.523 80.9365L161.641 80.0576C162.09 76.7471 163.252 74.125 165.127 72.1914C167.012 70.2578 169.316 69.3154 172.041 69.3643C174.424 69.4033 176.255 70.043 177.534 71.2832C178.813 72.5234 179.526 74.3154 179.673 76.6592L174.868 76.6445C174.8 75.502 174.517 74.667 174.019 74.1396C173.53 73.6123 172.832 73.334 171.924 73.3047C170.576 73.2559 169.463 73.7881 168.584 74.9014C167.705 76.0049 167.104 77.5869 166.782 79.6475C166.509 81.4053 166.411 82.7725 166.489 83.749C166.636 86.1025 167.695 87.2939 169.668 87.3232C170.859 87.3428 171.904 87.0547 172.803 86.459L173.462 83.1338H169.99L170.605 79.6035H179.087L177.71 88.3779ZM185.356 91H180.347L184.053 69.6719H189.048L185.356 91ZM206.626 88.3779C205.825 89.3154 204.658 90.043 203.125 90.5605C201.592 91.0684 199.893 91.3076 198.027 91.2783C196.24 91.2588 194.731 90.8096 193.501 89.9307C192.271 89.0518 191.392 87.8262 190.864 86.2539C190.337 84.6816 190.195 82.9092 190.439 80.9365L190.557 80.0576C191.006 76.7471 192.168 74.125 194.043 72.1914C195.928 70.2578 198.232 69.3154 200.957 69.3643C203.34 69.4033 205.171 70.043 206.45 71.2832C207.729 72.5234 208.442 74.3154 208.589 76.6592L203.784 76.6445C203.716 75.502 203.433 74.667 202.935 74.1396C202.446 73.6123 201.748 73.334 200.84 73.3047C199.492 73.2559 198.379 73.7881 197.5 74.9014C196.621 76.0049 196.021 77.5869 195.698 79.6475C195.425 81.4053 195.327 82.7725 195.405 83.749C195.552 86.1025 196.611 87.2939 198.584 87.3232C199.775 87.3428 200.82 87.0547 201.719 86.459L202.378 83.1338H198.906L199.521 79.6035H208.003L206.626 88.3779ZM221.45 87.0156H214.639L212.749 91H207.227L218.521 69.6719H223.237L227.178 91H221.963L221.45 87.0156ZM216.514 83.0459H220.938L220 75.6924L216.514 83.0459ZM240.625 85.2285C240.84 84.125 240.244 83.2705 238.838 82.665L236.436 81.6689C233.066 80.1553 231.465 78.0947 231.631 75.4873C231.699 74.2959 232.109 73.2363 232.861 72.3086C233.613 71.3711 234.653 70.6436 235.981 70.126C237.31 69.6084 238.76 69.3594 240.332 69.3789C242.441 69.418 244.136 70.0332 245.415 71.2246C246.704 72.416 247.339 74.0127 247.319 76.0146H242.339C242.368 75.1943 242.192 74.54 241.812 74.0518C241.44 73.5537 240.825 73.2949 239.966 73.2754C239.126 73.2559 238.384 73.4512 237.739 73.8613C237.095 74.2715 236.714 74.8232 236.597 75.5166C236.411 76.4932 237.134 77.2939 238.765 77.9189C240.405 78.5439 241.597 79.0811 242.339 79.5303C244.673 80.9268 245.767 82.8115 245.62 85.1846C245.542 86.415 245.146 87.4941 244.434 88.4219C243.721 89.3496 242.729 90.0674 241.46 90.5752C240.2 91.083 238.784 91.3271 237.212 91.3076C236.06 91.2881 234.99 91.1074 234.004 90.7656C233.018 90.4238 232.173 89.9258 231.47 89.2715C230.044 87.9531 229.36 86.2197 229.419 84.0713L234.443 84.0859C234.385 85.1797 234.595 86.0098 235.073 86.5762C235.552 87.1328 236.357 87.4111 237.49 87.4111C238.33 87.4111 239.028 87.2207 239.585 86.8398C240.151 86.4492 240.498 85.9121 240.625 85.2285Z" fill="#BBBBBB"/>
<path d="M78.7207 53.8115L85.1807 53.8555C87.8174 53.7969 89.9854 53.0352 91.6846 51.5703C93.3838 50.0762 94.3945 47.9961 94.7168 45.3301C94.9512 43.3379 94.5557 41.6973 93.5303 40.4082C92.5049 39.1191 90.9668 38.46 88.916 38.4307C87.0117 38.3721 85.3271 38.8994 83.8623 40.0127C82.3975 41.126 81.46 42.6055 81.0498 44.4512L66.5479 44.5391C66.7236 41.082 67.8369 38.0205 69.8877 35.3545C71.9385 32.6885 74.6631 30.6377 78.0615 29.2021C81.4893 27.7373 85.166 27.0195 89.0918 27.0488C95.5371 27.1953 100.605 28.8945 104.297 32.1465C107.988 35.3691 109.673 39.6758 109.351 45.0664C108.97 51.1016 105.029 55.877 97.5293 59.3926C100.371 60.7988 102.495 62.7471 103.901 65.2373C105.308 67.7275 105.938 70.54 105.791 73.6748C105.586 77.6006 104.341 81.0283 102.056 83.958C99.7705 86.8584 96.709 89.0996 92.8711 90.6816C89.0332 92.2344 84.917 92.9668 80.5225 92.8789C76.6846 92.8496 73.1982 92.0439 70.0635 90.4619C66.958 88.8506 64.5703 86.6387 62.9004 83.8262C61.2305 81.0137 60.4102 77.791 60.4395 74.1582H74.8535C74.8828 76.2383 75.498 77.9521 76.6992 79.2998C77.9004 80.6475 79.585 81.3506 81.7529 81.4092C84.1846 81.4678 86.3379 80.75 88.2129 79.2559C90.0879 77.7617 91.2012 75.7988 91.5527 73.3672C91.9043 70.7598 91.5088 68.7236 90.3662 67.2588C89.2529 65.7646 87.3779 64.9736 84.7412 64.8857L77.0068 64.8418L78.7207 53.8115ZM116.294 60.5352L125.171 28.0156H161.646L159.8 39.5293H135.322L131.411 52.3174C133.784 50.7939 136.729 50.0029 140.244 49.9443C145.869 49.9443 150.19 51.8926 153.208 55.7891C156.255 59.6855 157.515 64.7832 156.987 71.082C156.46 77.5859 153.926 82.8887 149.385 86.9902C144.844 91.0625 139.351 93.04 132.905 92.9229C129.126 92.835 125.684 91.9561 122.578 90.2861C119.502 88.6162 117.114 86.3457 115.415 83.4746C113.716 80.5742 112.881 77.3369 112.91 73.7627H127.324C127.383 76.0479 127.954 77.8789 129.038 79.2559C130.122 80.6328 131.646 81.3506 133.608 81.4092C136.011 81.4971 138.003 80.6035 139.585 78.7285C141.167 76.8242 142.178 73.9385 142.617 70.0713C142.91 66.8193 142.471 64.3584 141.299 62.6885C140.127 60.9893 138.296 60.1396 135.806 60.1396C132.612 60.1396 130.02 61.2236 128.027 63.3916L116.294 60.5352Z" fill="#EF3829"/>
<path d="M78.7207 53.8115L78.7411 50.8116L76.1536 50.794L75.7563 53.3509L78.7207 53.8115ZM85.1807 53.8555L85.1603 56.8554L85.2038 56.8557L85.2473 56.8547L85.1807 53.8555ZM91.6846 51.5703L93.6434 53.8425L93.6545 53.8329L93.6656 53.8232L91.6846 51.5703ZM94.7168 45.3301L97.6951 45.6901L97.6962 45.6806L94.7168 45.3301ZM88.916 38.4307L88.8238 41.4292L88.8485 41.43L88.8732 41.4304L88.916 38.4307ZM81.0498 44.4512L81.068 47.4511L83.4596 47.4366L83.9784 45.102L81.0498 44.4512ZM66.5479 44.5391L63.5517 44.3867L63.3905 47.5583L66.566 47.539L66.5479 44.5391ZM78.0615 29.2021L79.2289 31.9657L79.2404 31.9608L78.0615 29.2021ZM89.0918 27.0488L89.16 24.0496L89.1371 24.0491L89.1142 24.0489L89.0918 27.0488ZM104.297 32.1465L102.314 34.3976L102.324 34.4064L104.297 32.1465ZM109.351 45.0664L112.345 45.2554L112.345 45.2454L109.351 45.0664ZM97.5293 59.3926L96.256 56.6762L90.6172 59.3194L96.1988 62.0814L97.5293 59.3926ZM105.791 73.6748L108.787 73.8313L108.787 73.8231L108.788 73.8148L105.791 73.6748ZM102.056 83.958L104.412 85.8146L104.417 85.8089L104.421 85.8031L102.056 83.958ZM92.8711 90.6816L93.9962 93.4627L94.0053 93.459L94.0144 93.4552L92.8711 90.6816ZM80.5225 92.8789L80.5824 89.8795L80.5639 89.8791L80.5454 89.879L80.5225 92.8789ZM70.0635 90.4619L68.6818 93.1248L68.6968 93.1326L68.7118 93.1402L70.0635 90.4619ZM60.4395 74.1582V71.1582H57.4635L57.4396 74.134L60.4395 74.1582ZM74.8535 74.1582L77.8532 74.116L77.8116 71.1582H74.8535V74.1582ZM81.7529 81.4092L81.6719 84.4081L81.6807 84.4083L81.7529 81.4092ZM91.5527 73.3672L94.5219 73.7965L94.5239 73.7823L94.5258 73.7681L91.5527 73.3672ZM90.3662 67.2588L87.9606 69.0512L87.9803 69.0778L88.0007 69.1039L90.3662 67.2588ZM84.7412 64.8857L84.8412 61.8874L84.7997 61.886L84.7583 61.8858L84.7412 64.8857ZM77.0068 64.8418L74.0424 64.3812L73.5078 67.822L76.9898 67.8417L77.0068 64.8418ZM78.7003 56.8115L85.1603 56.8554L85.2011 50.8555L78.7411 50.8116L78.7003 56.8115ZM85.2473 56.8547C88.452 56.7835 91.3275 55.839 93.6434 53.8425L89.7258 49.2981C88.6432 50.2313 87.1828 50.8102 85.114 50.8562L85.2473 56.8547ZM93.6656 53.8232C96.0189 51.7539 97.3018 48.9438 97.6951 45.6901L91.7385 44.9701C91.4872 47.0484 90.7487 48.3984 89.7036 49.3174L93.6656 53.8232ZM97.6962 45.6806C98.0023 43.0789 97.506 40.5871 95.8781 38.5406L91.1825 42.2758C91.6054 42.8074 91.9 43.5969 91.7373 44.9796L97.6962 45.6806ZM95.8781 38.5406C94.1584 36.3787 91.6678 35.4697 88.9589 35.431L88.8732 41.4304C90.2658 41.4503 90.8514 41.8596 91.1825 42.2758L95.8781 38.5406ZM89.0083 35.4321C86.4435 35.3532 84.0798 36.0794 82.0471 37.6242L85.6776 42.4012C86.5745 41.7195 87.58 41.391 88.8238 41.4292L89.0083 35.4321ZM82.0471 37.6242C80.0005 39.1796 78.6807 41.2829 78.1212 43.8004L83.9784 45.102C84.2392 43.928 84.7945 43.0723 85.6776 42.4012L82.0471 37.6242ZM81.0316 41.4512L66.5297 41.5391L66.566 47.539L81.068 47.4511L81.0316 41.4512ZM69.544 44.6914C69.6898 41.8243 70.5978 39.3517 72.2656 37.1836L67.5098 33.5254C65.076 36.6893 63.7575 40.3398 63.5517 44.3867L69.544 44.6914ZM72.2656 37.1836C73.9704 34.9674 76.2605 33.2196 79.2289 31.9657L76.8942 26.4386C73.0657 28.0558 69.9066 30.4096 67.5098 33.5254L72.2656 37.1836ZM79.2404 31.9608C82.2686 30.6667 85.534 30.0224 89.0694 30.0487L89.1142 24.0489C84.798 24.0167 80.71 24.8079 76.8826 26.4435L79.2404 31.9608ZM89.0236 30.0481C94.9848 30.1835 99.2985 31.7413 102.314 34.3976L106.28 29.8954C101.912 26.0478 96.0894 24.2071 89.16 24.0496L89.0236 30.0481ZM102.324 34.4064C105.237 36.95 106.629 40.3155 106.356 44.8874L112.345 45.2454C112.716 39.036 110.739 33.7883 106.27 29.8865L102.324 34.4064ZM106.357 44.8775C106.07 49.4254 103.181 53.4299 96.256 56.6762L98.8026 62.109C106.877 58.324 111.87 52.7777 112.345 45.2554L106.357 44.8775ZM96.1988 62.0814C98.5623 63.251 100.211 64.8025 101.289 66.7125L106.514 63.7621C104.78 60.6917 102.18 58.3467 98.8598 56.7038L96.1988 62.0814ZM101.289 66.7125C102.391 68.6639 102.917 70.907 102.794 73.5348L108.788 73.8148C108.958 70.1731 108.224 66.7912 106.514 63.7621L101.289 66.7125ZM102.795 73.5183C102.62 76.8676 101.574 79.6971 99.6902 82.1129L104.421 85.8031C107.107 82.3595 108.552 78.3335 108.787 73.8313L102.795 73.5183ZM99.6992 82.1014C97.771 84.5487 95.1495 86.4976 91.7278 87.908L94.0144 93.4552C98.2684 91.7017 101.77 89.1681 104.412 85.8146L99.6992 82.1014ZM91.7459 87.9006C88.3071 89.2919 84.5966 89.9598 80.5824 89.8795L80.4625 95.8783C85.2373 95.9738 89.7593 95.1768 93.9962 93.4627L91.7459 87.9006ZM80.5454 89.879C77.1256 89.8529 74.1003 89.1388 71.4151 87.7837L68.7118 93.1402C72.2961 94.9491 76.2436 95.8463 80.4996 95.8788L80.5454 89.879ZM71.4452 87.799C68.8007 86.4269 66.8439 84.5918 65.48 82.2946L60.3208 85.3578C62.2967 88.6856 65.1153 91.2743 68.6818 93.1248L71.4452 87.799ZM65.48 82.2946C64.1196 80.0034 63.414 77.3303 63.4394 74.1824L57.4396 74.134C57.4063 78.2518 58.3413 82.0239 60.3208 85.3578L65.48 82.2946ZM60.4395 77.1582H74.8535V71.1582H60.4395V77.1582ZM71.8538 74.2005C71.8916 76.8854 72.7061 79.3285 74.4597 81.2959L78.9388 77.3037C78.29 76.5758 77.874 75.5911 77.8532 74.116L71.8538 74.2005ZM74.4597 81.2959C76.3206 83.3838 78.8568 84.332 81.6719 84.4081L81.834 78.4103C80.3131 78.3692 79.4802 77.9112 78.9388 77.3037L74.4597 81.2959ZM81.6807 84.4083C84.805 84.4836 87.6482 83.5419 90.0825 81.602L86.3433 76.9097C85.0276 77.9581 83.5642 78.452 81.8252 78.4101L81.6807 84.4083ZM90.0825 81.602C92.5708 79.6192 94.0641 76.9629 94.5219 73.7965L88.5836 72.9379C88.3383 74.6347 87.605 75.9042 86.3433 76.9097L90.0825 81.602ZM94.5258 73.7681C94.9397 70.6983 94.547 67.741 92.7317 65.4137L88.0007 69.1039C88.4705 69.7062 88.8689 70.8212 88.5796 72.9663L94.5258 73.7681ZM92.7719 65.4663C90.9132 62.9719 87.992 61.9924 84.8412 61.8874L84.6413 67.8841C86.7638 67.9548 87.5926 68.5574 87.9606 69.0512L92.7719 65.4663ZM84.7583 61.8858L77.0239 61.8418L76.9898 67.8417L84.7242 67.8857L84.7583 61.8858ZM79.9713 65.3024L81.6851 54.2721L75.7563 53.3509L74.0424 64.3812L79.9713 65.3024ZM116.294 60.5352L113.4 59.7451L112.588 62.7205L115.584 63.45L116.294 60.5352ZM125.171 28.0156V25.0156H122.88L122.277 27.2256L125.171 28.0156ZM161.646 28.0156L164.608 28.4905L165.165 25.0156H161.646V28.0156ZM159.8 39.5293V42.5293H162.357L162.762 40.0042L159.8 39.5293ZM135.322 39.5293V36.5293H133.103L132.453 38.6519L135.322 39.5293ZM131.411 52.3174L128.542 51.44L126.151 59.2594L133.032 54.8419L131.411 52.3174ZM140.244 49.9443V46.9443H140.219L140.194 46.9448L140.244 49.9443ZM153.208 55.7891L150.836 57.626L150.845 57.637L153.208 55.7891ZM156.987 71.082L153.998 70.8317L153.997 70.8396L156.987 71.082ZM149.385 86.9902L151.388 89.2237L151.396 89.2165L149.385 86.9902ZM132.905 92.9229L132.836 95.922L132.843 95.9222L132.851 95.9224L132.905 92.9229ZM122.578 90.2861L121.147 92.9227L121.157 92.9283L122.578 90.2861ZM115.415 83.4746L112.827 84.9911L112.833 85.0026L115.415 83.4746ZM112.91 73.7627V70.7627H109.935L109.91 73.7381L112.91 73.7627ZM127.324 73.7627L130.323 73.6858L130.248 70.7627H127.324V73.7627ZM133.608 81.4092L133.718 78.4112L133.708 78.4108L133.698 78.4105L133.608 81.4092ZM139.585 78.7285L141.878 80.6631L141.885 80.6544L141.893 80.6456L139.585 78.7285ZM142.617 70.0713L145.598 70.41L145.602 70.3753L145.605 70.3405L142.617 70.0713ZM141.299 62.6885L138.829 64.3917L138.836 64.4017L138.843 64.4118L141.299 62.6885ZM128.027 63.3916L127.318 66.3065L129.038 66.7253L130.236 65.4215L128.027 63.3916ZM119.188 61.3252L128.065 28.8056L122.277 27.2256L113.4 59.7451L119.188 61.3252ZM125.171 31.0156H161.646V25.0156H125.171V31.0156ZM158.683 27.5408L156.838 39.0544L162.762 40.0042L164.608 28.4905L158.683 27.5408ZM159.8 36.5293H135.322V42.5293H159.8V36.5293ZM132.453 38.6519L128.542 51.44L134.28 53.1948L138.191 40.4067L132.453 38.6519ZM133.032 54.8419C134.832 53.686 137.199 52.9955 140.294 52.9439L140.194 46.9448C136.258 47.0104 132.736 47.9019 129.79 49.7928L133.032 54.8419ZM140.244 52.9443C145.09 52.9443 148.472 54.5733 150.836 57.6259L155.58 53.9522C151.909 49.2118 146.648 46.9443 140.244 46.9443V52.9443ZM150.845 57.637C153.307 60.7862 154.48 65.0693 153.998 70.8317L159.977 71.3323C160.549 64.4971 159.203 58.5849 155.571 53.9411L150.845 57.637ZM153.997 70.8396C153.527 76.6371 151.308 81.2109 147.374 84.7639L151.396 89.2165C156.544 84.5665 159.393 78.5348 159.977 71.3245L153.997 70.8396ZM147.382 84.7568C143.44 88.2921 138.695 90.0276 132.96 89.9233L132.851 95.9224C140.007 96.0525 146.248 93.8329 151.388 89.2237L147.382 84.7568ZM132.975 89.9237C129.633 89.8459 126.659 89.0742 123.999 87.6439L121.157 92.9283C124.708 94.8379 128.619 95.824 132.836 95.922L132.975 89.9237ZM124.009 87.6496C121.385 86.2251 119.406 84.3276 117.997 81.9466L112.833 85.0026C114.823 88.3638 117.618 91.0073 121.147 92.9227L124.009 87.6496ZM118.004 81.9581C116.595 79.5547 115.885 76.8557 115.91 73.7873L109.91 73.7381C109.877 77.8181 110.836 81.5937 112.827 84.9911L118.004 81.9581ZM112.91 76.7627H127.324V70.7627H112.91V76.7627ZM124.325 73.8396C124.395 76.5745 125.09 79.0908 126.681 81.1115L131.395 77.4002C130.818 76.667 130.37 75.5212 130.323 73.6858L124.325 73.8396ZM126.681 81.1115C128.385 83.2759 130.789 84.3263 133.519 84.4078L133.698 78.4105C132.502 78.3748 131.859 77.9897 131.395 77.4002L126.681 81.1115ZM133.499 84.4072C136.845 84.5296 139.715 83.2262 141.878 80.6631L137.292 76.7939C136.291 77.9809 135.177 78.4646 133.718 78.4112L133.499 84.4072ZM141.893 80.6456C144.005 78.1029 145.127 74.5524 145.598 70.41L139.636 69.7326C139.228 73.3246 138.329 75.5456 137.277 76.8115L141.893 80.6456ZM145.605 70.3405C145.926 66.7808 145.516 63.4753 143.754 60.9652L138.843 64.4118C139.425 65.2415 139.895 66.8579 139.629 69.8021L145.605 70.3405ZM143.768 60.9853C141.917 58.3001 139.05 57.1396 135.806 57.1396V63.1396C137.542 63.1396 138.337 63.6784 138.829 64.3917L143.768 60.9853ZM135.806 57.1396C131.852 57.1396 128.43 58.5193 125.818 61.3617L130.236 65.4215C131.609 63.9279 133.373 63.1396 135.806 63.1396V57.1396ZM128.737 60.4767L117.004 57.6203L115.584 63.45L127.318 66.3065L128.737 60.4767Z" fill="#EF3829"/>
<g clip-path="url(#clip2)">
<path d="M59.0956 11.9973C58.8326 12.1814 58.596 12.4181 58.4119 12.6811C58.2804 12.8652 55.9398 16.7574 55.9398 16.7574C54.1515 19.7292 51.8109 22.2538 49.0232 24.2788L47.6557 25.2782C44.8154 27.3558 44.158 31.3269 46.183 34.1409C47.1823 35.5084 48.655 36.4025 50.3119 36.6918C51.2323 36.8496 52.1791 36.7707 53.0469 36.534L54.8878 39.085C54.993 39.2165 55.1245 39.2954 55.2823 39.3217C55.4138 39.348 55.5716 39.3217 55.7031 39.2428L58.3067 42.8194C58.78 43.4769 59.4901 43.8977 60.2528 44.0029C61.0154 44.1344 61.8044 43.9503 62.4619 43.4769C63.7768 42.5038 64.0924 40.6366 63.1193 39.3217L60.5158 35.7188L60.9891 35.3769C61.1206 35.2717 61.1995 35.1402 61.2258 34.9824C61.2521 34.8246 61.1995 34.6668 61.1206 34.5353L59.6479 32.5366C61.5677 31.5373 63.5927 30.7746 65.7229 30.2749C65.7229 30.2749 70.1674 29.2493 70.5093 29.1178C70.8775 28.9863 71.2193 28.7233 71.2193 28.7233C73.7966 26.9876 73.0602 21.7805 69.6414 17.0993C66.2752 12.3655 61.6203 10.1564 59.0956 11.9973ZM54.2041 36.0607C54.4934 35.9029 54.7563 35.7451 55.0193 35.561L56.4658 34.509C56.6761 34.3512 56.9128 34.1935 57.1232 34.0357L58.3856 35.7714L55.519 37.849L54.2041 36.0607ZM59.2797 42.0831L56.6761 38.5064L58.0437 37.5071L60.6473 41.0837C60.9365 41.4782 61.0417 41.9253 60.9628 42.3986C60.9102 42.6353 60.6736 42.8194 60.4369 42.7668C59.9898 42.7142 59.569 42.4775 59.2797 42.0831ZM62.1463 39.9792C62.5934 40.584 62.5934 41.3993 62.1726 42.0042C62.1463 41.4256 61.9622 40.847 61.594 40.3736L58.9904 36.797L59.5164 36.4025L62.1463 39.9792ZM59.8057 34.7457L59.3586 35.0876L58.1226 33.4045C58.2804 33.2993 58.4382 33.2204 58.596 33.1152L59.8057 34.7457ZM65.4862 29.0652C61.9622 29.9068 58.7011 31.4058 55.7557 33.536L54.3093 34.5879C53.2047 35.4032 51.8635 35.7188 50.4959 35.5084C49.1547 35.298 47.945 34.5616 47.156 33.4571C45.5255 31.1691 46.0515 27.9344 48.3658 26.2512L49.7333 25.2519C52.6524 23.1217 55.0982 20.4655 56.9654 17.3623L57.6229 16.284C57.807 18.4668 58.8589 21.0967 60.6736 23.5951C62.2515 25.7779 64.1976 27.5136 66.1174 28.4866C66.3015 28.5918 66.5119 28.6707 66.696 28.7496L65.4862 29.0652ZM62.2515 19.1506C62.2515 19.1769 62.2515 19.2032 62.2515 19.2558C62.383 20.0447 62.7512 20.8863 63.3297 21.6753C63.9609 22.5431 64.6973 23.148 65.381 23.4899L63.3823 24.9626C62.7775 24.3577 62.1989 23.6477 61.6466 22.9113C61.0943 22.1749 60.621 21.386 60.2265 20.6233L62.2515 19.1506ZM66.7749 22.5168C66.433 22.7798 65.2758 22.2801 64.3291 20.9915C63.882 20.3603 63.5664 19.6766 63.4612 19.098C63.3823 18.6772 63.4612 18.309 63.619 18.2038C63.6979 18.1512 63.8294 18.1249 63.9872 18.1512C64.145 18.1775 64.3291 18.2301 64.5132 18.3353C65.0391 18.5983 65.6177 19.1243 66.0648 19.7292C67.0115 21.0178 67.1167 22.2538 66.7749 22.5168ZM70.5619 27.724C70.4041 27.8292 70.3252 27.8818 70.0622 27.987C69.7992 28.0659 69.5625 28.1184 69.5625 28.1184C68.7473 28.2236 67.7479 28.0133 66.6434 27.461C65.8544 27.0665 65.0391 26.5142 64.2765 25.8305L67.4586 23.5162C68.5106 22.7535 68.3265 20.8337 67.0115 19.0191C66.433 18.2301 65.7492 17.599 65.0391 17.2571C64.1976 16.8363 63.4349 16.8363 62.8826 17.2308L59.7005 19.5451C59.306 18.5983 59.0167 17.6779 58.8852 16.7837C58.7011 15.574 58.78 14.5483 59.1482 13.8119C59.1482 13.8119 59.2534 13.5753 59.3849 13.4175C59.4901 13.286 59.6479 13.1019 59.8057 12.9967C60.3317 12.6022 61.0154 12.497 61.8044 12.6285C63.882 12.9441 66.5908 14.9165 68.6947 17.8094C71.6138 21.7805 72.4554 26.3301 70.5619 27.724Z" fill="#FFDFFF"/>
<path d="M79.372 21.9914L73.9282 21.1235C73.6126 21.071 73.297 21.3076 73.2444 21.6232C73.1918 21.9651 73.4285 22.2544 73.7441 22.307L79.1879 23.1749C79.5298 23.2274 79.8191 22.9908 79.8717 22.6752C79.9243 22.3596 79.7139 22.044 79.372 21.9914Z" fill="#FFDFFF"/>
<path d="M71.8503 18.2819C71.9292 18.5186 72.1133 18.6764 72.3237 18.7027C72.4026 18.729 72.5078 18.7027 72.5867 18.6764L79.0562 16.8092C79.3718 16.7303 79.5559 16.3884 79.477 16.0728C79.3718 15.7572 79.0562 15.5731 78.7406 15.652L72.2711 17.5192C71.9292 17.6244 71.7451 17.94 71.8503 18.2819Z" fill="#FFDFFF"/>
<path d="M70.0885 15.6793C70.1937 15.7845 70.3251 15.8634 70.4566 15.8897C70.6144 15.916 70.7985 15.8634 70.9563 15.7582L76.2687 11.1296C76.5316 10.9193 76.5579 10.5248 76.3213 10.2881C76.1109 10.0251 75.7164 9.9988 75.4797 10.2355L70.1411 14.8378C69.9044 15.0482 69.8781 15.4163 70.0885 15.6793Z" fill="#FFDFFF"/>
<path d="M67.8531 13.3654C67.9057 13.3917 67.9583 13.3917 68.0109 13.418C68.2739 13.4706 68.5368 13.3128 68.6683 13.0761L71.2982 7.15892C71.4297 6.84333 71.2982 6.50145 70.9826 6.36995C70.667 6.23846 70.3252 6.36995 70.1937 6.68554L67.5638 12.6028C67.4323 12.8657 67.5638 13.2076 67.8531 13.3654Z" fill="#FFDFFF"/>
<path d="M58.0964 11.7068C57.8334 11.8909 57.5967 12.1276 57.4126 12.3906C57.2811 12.5747 54.9405 16.4669 54.9405 16.4669C53.1522 19.4387 50.8116 21.9633 48.024 23.9883L46.6564 24.9877C43.8162 27.0653 43.1587 31.0364 45.1837 33.8504C46.183 35.2179 47.6558 36.112 49.3126 36.4013C50.233 36.5591 51.1798 36.4802 52.0477 36.2435L53.8886 38.7945C53.9938 38.926 54.1253 39.0049 54.283 39.0312C54.4145 39.0575 54.5723 39.0312 54.7038 38.9523L57.3074 42.5289C57.7808 43.1864 58.4908 43.6072 59.2535 43.7124C60.0162 43.8439 60.8051 43.6598 61.4626 43.1864C62.7775 42.2133 63.0931 40.3461 62.1201 39.0312L59.5165 35.4283L59.9899 35.0864C60.1214 34.9812 60.2003 34.8497 60.2266 34.6919C60.2529 34.5341 60.2003 34.3763 60.1214 34.2448L58.6486 32.2461C60.5684 31.2468 62.5934 30.4841 64.7236 29.9844C64.7236 29.9844 69.1681 28.9588 69.51 28.8273C69.8782 28.6958 70.2201 28.4328 70.2201 28.4328C72.7973 26.6971 72.061 21.49 68.6421 16.8088C65.2759 12.1013 60.621 9.86592 58.0964 11.7068ZM53.2048 35.7702C53.4941 35.6124 53.7571 35.4546 54.0201 35.2705L55.4665 34.2185C55.6769 34.0607 55.9136 33.903 56.124 33.7452L57.3863 35.4809L54.5197 37.5848L53.2048 35.7702ZM58.2805 41.7926L55.6769 38.2159L57.0444 37.2166L59.648 40.7932C59.9373 41.1877 60.0425 41.6348 59.9636 42.1082C59.911 42.3448 59.6743 42.5289 59.4376 42.4763C58.9905 42.4237 58.5697 42.187 58.2805 41.7926ZM61.147 39.715C61.5941 40.3198 61.5941 41.1351 61.1733 41.74C61.147 41.1614 60.9629 40.5828 60.5947 40.1094L57.9912 36.5328L58.5171 36.1383L61.147 39.715ZM58.8064 34.4552L58.3593 34.7971L57.1233 33.114C57.2811 33.0088 57.4389 32.9299 57.5967 32.8247L58.8064 34.4552ZM64.487 28.801C60.9629 29.6426 57.7019 31.1416 54.7564 33.2718L53.31 34.3237C52.2055 35.139 50.8642 35.4546 49.4967 35.2442C48.1554 35.0338 46.9457 34.2974 46.1567 33.1929C44.4999 30.8786 45.0522 27.6702 47.3665 25.987L48.734 24.9877C51.6532 22.8575 54.099 20.2013 55.9662 17.0981L56.6236 16.0198C56.8077 18.2026 57.8597 20.8325 59.6743 23.3309C61.2522 25.5137 63.1983 27.2494 65.1181 28.2224C65.3022 28.3276 65.5126 28.4065 65.6967 28.4854L64.487 28.801ZM61.2522 18.8864C61.2522 18.9127 61.2522 18.939 61.2522 18.9916C61.3837 19.7805 61.7519 20.6221 62.3305 21.4111C62.9616 22.2789 63.698 22.8838 64.3818 23.2257L62.3831 24.6984C61.7782 24.0935 61.1996 23.3835 60.6473 22.6471C60.0951 21.9107 59.6217 21.1218 59.2272 20.3591L61.2522 18.8864ZM65.7493 22.2263C65.4074 22.4893 64.2503 21.9896 63.3035 20.701C62.8564 20.0698 62.5408 19.3861 62.4356 18.8075C62.3568 18.3867 62.4356 18.0185 62.5934 17.9133C62.6723 17.8607 62.8038 17.8344 62.9616 17.8607C63.1194 17.887 63.3035 17.9396 63.4876 18.0448C64.0136 18.3078 64.5921 18.8338 65.0392 19.4387C66.0123 20.7273 66.1175 21.9896 65.7493 22.2263ZM69.5626 27.4335C69.4048 27.5387 69.3259 27.5913 69.0629 27.6965C68.7999 27.7753 68.5633 27.8279 68.5633 27.8279C67.748 27.9331 66.7486 27.7228 65.6441 27.1705C64.8551 26.776 64.0399 26.2237 63.2772 25.54L66.4594 23.2257C67.5113 22.463 67.3272 20.5432 66.0123 18.7286C65.4337 17.9396 64.7499 17.3085 64.0399 16.9666C63.2246 16.5195 62.4619 16.5195 61.8834 16.914L58.7012 19.2283C58.3068 18.2815 58.0175 17.3611 57.886 16.4669C57.7019 15.2572 57.7808 14.2315 58.149 13.4951C58.149 13.4951 58.2542 13.2585 58.3856 13.1007C58.4908 12.9692 58.6486 12.7851 58.8064 12.6799C59.3324 12.2854 60.0162 12.1802 60.8051 12.3117C62.8827 12.6273 65.5915 14.5997 67.6954 17.4926C70.6146 21.49 71.4561 26.0396 69.5626 27.4335Z" fill="#954EDE"/>
<path d="M78.373 21.7268L72.9291 20.8589C72.6136 20.8063 72.298 21.043 72.2454 21.3586C72.1928 21.7005 72.4295 21.9897 72.7451 22.0423L78.1889 22.9102C78.5308 22.9628 78.8201 22.7261 78.8727 22.4105C78.9253 22.0686 78.7149 21.7794 78.373 21.7268Z" fill="#954EDE"/>
<path d="M70.8513 17.9938C70.9302 18.2305 71.1143 18.3883 71.3247 18.4146C71.4036 18.4409 71.5088 18.4146 71.5877 18.3883L78.0572 16.5211C78.3727 16.4422 78.5568 16.1003 78.4779 15.7847C78.3727 15.4691 78.0572 15.285 77.7416 15.3639L71.2721 17.2311C70.9302 17.3363 70.7461 17.6782 70.8513 17.9938Z" fill="#954EDE"/>
<path d="M69.0895 15.4157C69.1947 15.5208 69.3262 15.5997 69.4577 15.626C69.6155 15.6523 69.7996 15.5997 69.9573 15.4945L75.2697 10.866C75.5327 10.6556 75.559 10.2611 75.3223 10.0244C75.1119 9.76143 74.7174 9.73513 74.4807 9.97182L69.1421 14.5478C68.8791 14.7845 68.8528 15.1527 69.0895 15.4157Z" fill="#954EDE"/>
<path d="M66.8539 13.0744C66.9065 13.1007 66.9591 13.1007 67.0117 13.127C67.2747 13.1796 67.5377 13.0218 67.6692 12.7851L70.299 6.8679C70.4305 6.55232 70.299 6.21043 69.9834 6.07894C69.6679 5.94744 69.326 6.07894 69.1945 6.39452L66.5646 12.3117C66.4068 12.5747 66.5646 12.9429 66.8539 13.0744Z" fill="#954EDE"/>
</g>
<path d="M84.0282 15.6708C84.9539 15.914 85.6481 16.3843 86.378 17.2114C87.0366 17.9736 87.3926 18.9466 87.357 19.9196V19.9358V19.9521C87.357 19.9521 87.357 19.9683 87.3748 19.9683C87.3748 19.9683 87.3748 19.9845 87.3926 19.9845L87.4104 20.0007C87.4104 20.0007 87.4282 20.0007 87.4282 20.0169H87.446H87.4638C87.5172 20.0169 87.5528 19.9845 87.5528 19.9358C87.5528 19.9358 87.5528 19.9358 87.5528 19.9196C87.5172 18.9628 87.8732 17.9736 88.5319 17.2114C89.2439 16.3681 89.9559 15.914 90.8816 15.6708C90.935 15.6545 90.9528 15.6221 90.9528 15.5735C90.9528 15.5248 90.9172 15.4924 90.8816 15.4924C89.9381 15.2816 89.3685 14.7788 88.7633 14.195C88.1758 13.6274 87.7664 12.8814 87.5706 11.9571C87.5706 11.9571 87.5706 11.9571 87.5706 11.9408C87.5706 11.9246 87.5706 11.9246 87.5528 11.9246C87.5528 11.9246 87.5528 11.9246 87.5528 11.9084L87.535 11.8922C87.535 11.8922 87.535 11.8922 87.5172 11.8922C87.5172 11.8922 87.4994 11.8922 87.4994 11.876H87.4816H87.4638C87.4638 11.876 87.446 11.876 87.446 11.8922C87.446 11.8922 87.446 11.8922 87.4282 11.8922L87.4104 11.9084C87.4104 11.9084 87.4104 11.9084 87.4104 11.9246C87.4104 11.9246 87.4104 11.9408 87.3926 11.9408C87.3926 11.9408 87.3926 11.9408 87.3926 11.9571C87.1968 12.8814 86.7874 13.6436 86.1999 14.195C85.5591 14.7788 84.9717 15.2816 84.0282 15.4924C83.9926 15.4924 83.957 15.5248 83.957 15.5735C83.957 15.6221 83.9926 15.6545 84.0282 15.6708Z" fill="#954EDE"/>
<g clip-path="url(#clip3)">
<path d="M178.631 60.5807C179.299 61.1345 179.69 61.7864 179.973 62.7452C180.223 63.6234 180.144 64.5592 179.743 65.3453L179.737 65.3586L179.73 65.372C179.73 65.372 179.724 65.3853 179.739 65.3921C179.739 65.3921 179.733 65.4054 179.747 65.4122L179.756 65.4324C179.756 65.4324 179.77 65.4392 179.764 65.4525L179.779 65.4593L179.793 65.4661C179.837 65.4865 179.879 65.4735 179.898 65.4335C179.898 65.4335 179.898 65.4335 179.904 65.4202C180.24 64.6202 180.911 63.9432 181.744 63.5686C182.651 63.1477 183.41 63.0467 184.264 63.2007C184.314 63.2077 184.341 63.1879 184.36 63.1479C184.378 63.1079 184.361 63.0677 184.332 63.054C183.637 62.5201 183.361 61.8891 183.087 61.1779C182.821 60.4869 182.77 59.7172 182.962 58.8827C182.962 58.8827 182.962 58.8827 182.969 58.8693C182.975 58.856 182.975 58.856 182.96 58.8492C182.96 58.8492 182.96 58.8492 182.966 58.8359L182.958 58.8157C182.958 58.8157 182.958 58.8157 182.943 58.8089C182.943 58.8089 182.929 58.8021 182.935 58.7888L182.92 58.782L182.906 58.7752C182.906 58.7752 182.891 58.7684 182.885 58.7817C182.885 58.7817 182.885 58.7817 182.87 58.7749L182.849 58.7814C182.849 58.7814 182.849 58.7814 182.843 58.7948C182.843 58.7948 182.837 58.8081 182.822 58.8013C182.822 58.8013 182.822 58.8013 182.816 58.8146C182.302 59.4995 181.674 59.9694 180.98 60.198C180.23 60.4328 179.555 60.6215 178.699 60.434C178.67 60.4204 178.629 60.4335 178.61 60.4735C178.591 60.5135 178.608 60.5537 178.631 60.5807Z" fill="#FFB8DC"/>
</g>
<path d="M168.123 52.018C168.374 52.2515 168.618 52.4339 168.857 52.5809C168.59 52.6668 168.31 52.7858 168.009 52.9526C166.253 53.9284 166.083 56.7826 166.076 56.9037C166.072 56.9899 166.091 57.0757 166.133 57.1512C166.535 57.8737 167.275 58.2548 168.097 58.3482C168.934 58.4433 169.855 58.2403 170.689 57.7766C170.989 57.6101 171.238 57.4344 171.451 57.253C171.451 57.5329 171.477 57.8366 171.543 58.1737C171.824 59.6118 173.441 60.7483 174.703 61.2331C174.784 61.2641 174.872 61.2718 174.956 61.2552C175.709 61.1082 176.329 60.5762 176.702 59.7574C177.051 58.9909 177.142 58.0527 176.959 57.1155C176.892 56.7752 176.801 56.4814 176.693 56.2201C176.937 56.2952 177.212 56.3549 177.53 56.3937C179.522 56.6363 181.364 54.4438 181.441 54.3504C181.498 54.2825 181.533 54.2 181.544 54.1126C181.637 53.3515 181.317 52.595 180.644 51.9824C180.015 51.4101 179.146 51.0314 178.198 50.9158C177.895 50.879 177.622 50.8722 177.371 50.8868C177.526 50.6694 177.674 50.4198 177.811 50.1253C178.658 48.3036 177.118 45.8943 177.052 45.7926C177.005 45.7201 176.939 45.6624 176.86 45.6259C176.165 45.3025 175.351 45.3686 174.568 45.8119C173.835 46.2268 173.21 46.9321 172.807 47.7979C172.675 48.0824 172.581 48.3481 172.516 48.5998C172.38 48.4166 172.215 48.2292 172.007 48.0364C170.537 46.6675 167.769 47.3875 167.652 47.4188C167.569 47.4411 167.493 47.4865 167.435 47.5497C166.364 48.6997 166.667 50.6624 168.123 52.018V52.018ZM170.243 56.9725C169.574 57.3439 168.849 57.508 168.201 57.4343C167.665 57.3734 167.245 57.154 167.005 56.8121C167.075 56.0385 167.431 54.326 168.456 53.7566C169.22 53.3319 169.785 53.2897 170.589 53.2603C171.242 53.4509 171.874 53.6674 172.634 54.3351C171.648 55.3528 171.533 56.2558 170.243 56.9725ZM173.046 52.6279C173.297 52.6557 173.53 52.6678 173.748 52.6672C173.799 52.9146 173.859 53.1406 173.927 53.3484C173.708 53.4733 173.512 53.6003 173.335 53.7286C173.148 53.5588 172.967 53.4116 172.791 53.2833C172.894 53.0535 172.978 52.8355 173.046 52.6279V52.6279ZM175.865 59.3762C175.641 59.8676 175.303 60.1986 174.903 60.3217C174.189 60.0161 172.67 59.1479 172.446 57.9973C172.269 57.0924 172.436 56.5043 172.63 55.8233L172.633 55.8152C173.016 55.2536 173.417 54.7189 174.287 54.2028C174.949 55.4535 175.773 55.843 176.056 57.2919C176.203 58.0425 176.135 58.7827 175.865 59.3762ZM178.086 51.8288C178.836 51.9201 179.543 52.2241 180.025 52.6627C180.428 53.0301 180.643 53.454 180.639 53.8696C180.276 54.2679 178.925 55.637 177.642 55.4808C176.765 55.374 176.34 55.0963 175.694 54.6613C175.278 54.1223 174.892 53.574 174.67 52.583C176.065 52.3241 176.63 51.6514 178.086 51.8288V51.8288ZM175.021 46.6122C175.491 46.3462 175.959 46.2772 176.355 46.4125C176.753 47.0794 177.471 48.6743 176.977 49.7374C176.603 50.5414 176.143 50.9212 175.613 51.3376C174.953 51.5902 174.318 51.823 173.257 51.725C173.456 50.3237 173.018 49.5245 173.641 48.1858C173.963 47.4924 174.454 46.9336 175.021 46.6122V46.6122ZM168.025 48.274C168.782 48.1014 170.522 47.9105 171.381 48.7097C172.042 49.3252 172.133 49.8138 172.387 50.5258C172.408 51.2057 172.398 51.8744 171.997 52.8038C170.729 52.1831 169.827 52.3478 168.75 51.3447C167.896 50.5499 167.328 49.1794 168.025 48.274Z" fill="#FFDFFF"/>
<g clip-path="url(#clip4)">
<path d="M167.381 51.8393C167.632 52.0728 167.876 52.2552 168.115 52.4022C167.848 52.4881 167.568 52.6071 167.267 52.7739C165.511 53.7497 165.341 56.6039 165.334 56.7249C165.33 56.8112 165.349 56.897 165.391 56.9725C165.793 57.695 166.533 58.0761 167.355 58.1695C168.192 58.2646 169.113 58.0616 169.947 57.5979C170.247 57.4314 170.496 57.2557 170.709 57.0743C170.709 57.3542 170.735 57.6578 170.801 57.995C171.082 59.4331 172.7 60.5696 173.961 61.0544C174.042 61.0854 174.13 61.0931 174.214 61.0765C174.967 60.9295 175.587 60.3975 175.96 59.5787C176.309 58.8122 176.4 57.874 176.217 56.9368C176.151 56.5965 176.059 56.3027 175.951 56.0414C176.195 56.1165 176.47 56.1762 176.789 56.215C178.78 56.4575 180.622 54.2651 180.699 54.1717C180.756 54.1038 180.791 54.0213 180.802 53.9338C180.895 53.1728 180.575 52.4163 179.902 51.8037C179.273 51.2314 178.404 50.8527 177.456 50.7371C177.153 50.7003 176.88 50.6935 176.629 50.7081C176.784 50.4907 176.932 50.241 177.069 49.9466C177.916 48.1248 176.376 45.7156 176.31 45.6139C176.263 45.5414 176.197 45.4837 176.118 45.4472C175.423 45.1238 174.609 45.1899 173.826 45.6332C173.093 46.0481 172.468 46.7534 172.065 47.6192C171.933 47.9037 171.839 48.1693 171.774 48.421C171.638 48.2379 171.473 48.0505 171.266 47.8577C169.795 46.4888 167.028 47.2088 166.91 47.2401C166.827 47.2624 166.752 47.3078 166.693 47.371C165.622 48.521 165.925 50.4837 167.381 51.8393V51.8393ZM169.501 56.7938C168.832 57.1652 168.107 57.3292 167.459 57.2556C166.923 57.1946 166.503 56.9753 166.263 56.6334C166.333 55.8598 166.689 54.1472 167.714 53.5779C168.478 53.1532 169.043 53.111 169.847 53.0816C170.5 53.2722 171.132 53.4887 171.892 54.1564C170.906 55.1741 170.791 56.0771 169.501 56.7938ZM172.304 52.4492C172.555 52.477 172.788 52.4891 173.006 52.4885C173.057 52.7359 173.117 52.9618 173.185 53.1697C172.966 53.2946 172.77 53.4216 172.593 53.5499C172.407 53.3801 172.225 53.2329 172.049 53.1046C172.152 52.8748 172.236 52.6568 172.304 52.4492V52.4492ZM175.123 59.1975C174.899 59.6889 174.561 60.0199 174.161 60.1429C173.447 59.8374 171.929 58.9692 171.704 57.8186C171.527 56.9137 171.694 56.3256 171.889 55.6446L171.891 55.6365C172.274 55.0749 172.675 54.5402 173.545 54.0241C174.207 55.2748 175.031 55.6643 175.314 57.1132C175.461 57.8637 175.393 58.604 175.123 59.1975ZM177.345 51.6501C178.094 51.7414 178.801 52.0454 179.283 52.484C179.686 52.8514 179.901 53.2753 179.897 53.6909C179.534 54.0891 178.183 55.4583 176.9 55.302C176.023 55.1953 175.598 54.9176 174.952 54.4825C174.536 53.9436 174.15 53.3953 173.928 52.4043C175.323 52.1454 175.888 51.4727 177.345 51.6501V51.6501ZM174.279 46.4335C174.749 46.1675 175.217 46.0984 175.613 46.2338C176.011 46.9007 176.729 48.4956 176.235 49.5587C175.861 50.3627 175.401 50.7424 174.871 51.1589C174.211 51.4115 173.576 51.6443 172.515 51.5463C172.714 50.145 172.276 49.3458 172.899 48.0071C173.221 47.3137 173.712 46.7548 174.279 46.4335V46.4335ZM167.283 48.0953C168.04 47.9227 169.78 47.7318 170.639 48.531C171.3 49.1465 171.391 49.6351 171.645 50.3471C171.666 51.027 171.656 51.6957 171.255 52.6251C169.987 52.0044 169.086 52.1691 168.008 51.166C167.154 50.3711 166.586 49.0007 167.283 48.0953Z" fill="#954EDE"/>
</g>
<g clip-path="url(#clip5)">
<path d="M35.7789 93.8004C36.7445 94.0542 37.4687 94.5448 38.23 95.4075C38.9171 96.2026 39.2885 97.2177 39.2513 98.2327V98.2496V98.2665C39.2513 98.2665 39.2513 98.2835 39.2699 98.2835C39.2699 98.2835 39.2699 98.3004 39.2885 98.3004L39.3071 98.3173C39.3071 98.3173 39.3256 98.3173 39.3256 98.3342H39.3442H39.3628C39.4185 98.3342 39.4556 98.3004 39.4556 98.2496C39.4556 98.2496 39.4556 98.2496 39.4556 98.2327C39.4185 97.2346 39.7899 96.2026 40.4769 95.4075C41.2197 94.5278 41.9625 94.0542 42.9281 93.8004C42.9838 93.7835 43.0024 93.7497 43.0024 93.6989C43.0024 93.6482 42.9652 93.6143 42.9281 93.6143C41.9439 93.3944 41.3497 92.87 40.7183 92.261C40.1055 91.6688 39.6784 90.8907 39.4742 89.9264C39.4742 89.9264 39.4742 89.9264 39.4742 89.9095C39.4742 89.8925 39.4742 89.8925 39.4556 89.8925C39.4556 89.8925 39.4556 89.8925 39.4556 89.8756L39.437 89.8587C39.437 89.8587 39.437 89.8587 39.4185 89.8587C39.4185 89.8587 39.3999 89.8587 39.3999 89.8418H39.3813H39.3628C39.3628 89.8418 39.3442 89.8418 39.3442 89.8587C39.3442 89.8587 39.3442 89.8587 39.3256 89.8587L39.3071 89.8756C39.3071 89.8756 39.3071 89.8756 39.3071 89.8925C39.3071 89.8925 39.3071 89.9095 39.2885 89.9095C39.2885 89.9095 39.2885 89.9095 39.2885 89.9264C39.0842 90.8907 38.6571 91.6858 38.0443 92.261C37.3758 92.87 36.763 93.3944 35.7789 93.6143C35.7417 93.6143 35.7046 93.6482 35.7046 93.6989C35.7046 93.7497 35.7417 93.7835 35.7789 93.8004Z" fill="#954EDE"/>
</g>
<path d="M46.4644 58.9243C47.9095 59.304 48.9933 60.0382 50.1327 61.3294C51.161 62.5193 51.7168 64.0384 51.6612 65.5574V65.5828V65.6081C51.6612 65.6081 51.6612 65.6334 51.689 65.6334C51.689 65.6334 51.689 65.6587 51.7168 65.6587L51.7446 65.684C51.7446 65.684 51.7723 65.684 51.7723 65.7093H51.8001H51.8279C51.9113 65.7093 51.9669 65.6587 51.9669 65.5828C51.9669 65.5828 51.9669 65.5828 51.9669 65.5574C51.9113 64.0637 52.4671 62.5193 53.4953 61.3294C54.6069 60.0129 55.7185 59.304 57.1636 58.9243C57.247 58.899 57.2748 58.8483 57.2748 58.7724C57.2748 58.6964 57.2192 58.6458 57.1636 58.6458C55.6907 58.3167 54.8015 57.5318 53.8566 56.6204C52.9395 55.7343 52.3004 54.5697 51.9947 53.1266C51.9947 53.1266 51.9947 53.1266 51.9947 53.1013C51.9947 53.076 51.9947 53.076 51.9669 53.076C51.9669 53.076 51.9669 53.076 51.9669 53.0506L51.9391 53.0253C51.9391 53.0253 51.9391 53.0253 51.9113 53.0253C51.9113 53.0253 51.8835 53.0253 51.8835 53H51.8557H51.8279C51.8279 53 51.8001 53 51.8001 53.0253C51.8001 53.0253 51.8001 53.0253 51.7723 53.0253L51.7446 53.0506C51.7446 53.0506 51.7446 53.0506 51.7446 53.076C51.7446 53.076 51.7446 53.1013 51.7168 53.1013C51.7168 53.1013 51.7168 53.1013 51.7168 53.1266C51.4111 54.5697 50.7719 55.7596 49.8548 56.6204C48.8544 57.5318 47.9373 58.3167 46.4644 58.6458C46.4089 58.6458 46.3533 58.6964 46.3533 58.7724C46.3533 58.8483 46.4089 58.899 46.4644 58.9243Z" fill="#FFB8DC"/>
<path d="M32.1671 78.6356C32.4734 78.7351 32.7536 78.7938 33.015 78.8246C32.8222 79.0033 32.6303 79.2159 32.4405 79.477C31.3309 81.0043 32.3168 83.5035 32.3593 83.6092C32.3896 83.6845 32.4405 83.7497 32.5062 83.7974C33.1344 84.2539 33.9161 84.2852 34.6536 84.039C35.4042 83.7883 36.108 83.2506 36.6354 82.5247C36.8247 82.2642 36.9671 82.0159 37.0771 81.7768C37.1875 82.0154 37.3304 82.2636 37.5201 82.5247C38.3293 83.6386 40.1577 83.9659 41.4248 83.8789C41.5058 83.8734 41.5836 83.8452 41.6493 83.7974C42.2322 83.3739 42.5494 82.6751 42.5426 81.8297C42.5362 81.0384 42.2422 80.2029 41.7149 79.477C41.5234 79.2135 41.3291 78.9994 41.1333 78.8196C41.3713 78.7867 41.629 78.7287 41.9157 78.6356C43.7083 78.0531 44.409 75.4553 44.4379 75.345C44.4589 75.2649 44.4565 75.1805 44.4309 75.1018C44.2083 74.4166 43.6362 73.8988 42.8199 73.6437C42.0572 73.4054 41.1671 73.4269 40.3134 73.7043C40.0411 73.7928 39.8057 73.8952 39.5973 74.0073C39.6433 73.7606 39.6703 73.4894 39.6703 73.1843C39.6703 71.2964 37.4037 69.854 37.3072 69.7935C37.2384 69.7504 37.1589 69.7275 37.0778 69.7275C36.3573 69.7275 35.6899 70.1064 35.1985 70.7944C34.7385 71.4383 34.4852 72.287 34.4852 73.1843C34.4852 73.479 34.5109 73.7424 34.5548 73.9828C34.3667 73.8805 34.1514 73.7864 33.8986 73.7043C32.103 73.1209 30.0309 74.8308 29.9435 74.9039C29.8813 74.956 29.8349 75.0246 29.8099 75.1018C29.3537 76.5056 30.3892 78.0579 32.1671 78.6356V78.6356ZM35.9362 82.0167C35.5138 82.5981 34.9611 83.0252 34.3799 83.2192C33.8987 83.3798 33.4545 83.3592 33.1142 83.1631C32.8672 82.4763 32.4922 80.8761 33.1397 79.9849C33.6226 79.3202 34.0869 79.0605 34.7603 78.7168C35.3917 78.6206 36.0165 78.5544 36.9282 78.8222C36.4917 80.0799 36.7513 80.895 35.9362 82.0167ZM36.6027 77.2045C36.8278 77.1286 37.0312 77.0466 37.2164 76.9598C37.3579 77.1503 37.4988 77.3189 37.6387 77.4693C37.5015 77.6625 37.3848 77.8484 37.2852 78.0277C37.0591 77.9569 36.8462 77.9034 36.6449 77.864C36.6424 77.6271 36.6275 77.4081 36.6027 77.2045V77.2045ZM41.6784 81.8367C41.6825 82.344 41.5256 82.7601 41.2339 83.0232C40.5046 83.0458 38.8667 82.908 38.2192 82.0168C37.71 81.3159 37.6197 80.7485 37.5151 80.0914L37.5139 80.0836C37.6176 79.4534 37.7476 78.8388 38.2841 78.0544C39.3442 78.8574 40.2004 78.8628 41.0157 79.985C41.4381 80.5663 41.6735 81.224 41.6784 81.8367ZM40.5804 74.5262C41.2553 74.3069 41.9776 74.2859 42.562 74.4686C43.0517 74.6216 43.4026 74.8976 43.5641 75.2532C43.4126 75.7364 42.8037 77.4384 41.6487 77.8138C40.8596 78.0701 40.3872 78.0021 39.6649 77.8872C39.0962 77.5932 38.5507 77.2789 37.9689 76.5224C39.0545 75.7493 39.2693 74.9522 40.5804 74.5262V74.5262ZM35.9016 71.2967C36.1965 70.8839 36.568 70.6395 36.9586 70.5981C37.562 71.0085 38.8061 72.0826 38.8061 73.1843C38.8061 74.0174 38.5651 74.523 38.2784 75.0879C37.8163 75.5646 37.3672 76.0148 36.4245 76.3517C36.0388 75.079 35.3493 74.5715 35.3493 73.1843C35.3494 72.4657 35.5455 71.7953 35.9016 71.2967V71.2967ZM30.5999 75.4848C31.1762 75.0379 32.5833 74.1856 33.6315 74.5262C34.4388 74.7885 34.7101 75.1687 35.2087 75.6745C35.4955 76.2457 35.7518 76.8195 35.7789 77.77C34.4529 77.7436 33.7498 78.2412 32.4342 77.8137C31.3916 77.475 30.3644 76.5326 30.5999 75.4848Z" fill="#FFDFFF"/>
<g clip-path="url(#clip6)">
<path d="M31.4647 78.7782C31.771 78.8777 32.0512 78.9364 32.3126 78.9671C32.1198 79.1459 31.9279 79.3585 31.7381 79.6196C30.6285 81.1469 31.6144 83.6461 31.6569 83.7518C31.6872 83.8271 31.7381 83.8923 31.8038 83.94C32.432 84.3965 33.2137 84.4278 33.9512 84.1815C34.7018 83.9309 35.4056 83.3932 35.933 82.6673C36.1223 82.4068 36.2647 82.1585 36.3747 81.9193C36.4851 82.158 36.628 82.4062 36.8177 82.6673C37.627 83.7812 39.4553 84.1085 40.7224 84.0215C40.8034 84.016 40.8812 83.9877 40.9469 83.94C41.5298 83.5165 41.847 82.8177 41.8402 81.9723C41.8338 81.181 41.5398 80.3454 41.0125 79.6196C40.821 79.356 40.6267 79.1419 40.431 78.9622C40.6689 78.9293 40.9266 78.8713 41.2134 78.7782C43.0059 78.1957 43.7066 75.5978 43.7355 75.4875C43.7565 75.4075 43.7542 75.3231 43.7285 75.2443C43.5059 74.5592 42.9338 74.0414 42.1175 73.7863C41.3548 73.548 40.4647 73.5695 39.611 73.8469C39.3387 73.9354 39.1033 74.0378 38.8949 74.1499C38.9409 73.9032 38.9679 73.6319 38.9679 73.3268C38.9679 71.439 36.7013 69.9966 36.6048 69.9361C36.536 69.893 36.4565 69.8701 36.3754 69.8701C35.6549 69.8701 34.9875 70.249 34.4961 70.9369C34.0361 71.5809 33.7828 72.4296 33.7828 73.3268C33.7828 73.6216 33.8085 73.885 33.8524 74.1254C33.6643 74.0231 33.449 73.929 33.1962 73.8468C31.4006 73.2635 29.3285 74.9734 29.2411 75.0465C29.1789 75.0985 29.1326 75.1671 29.1075 75.2443C28.6513 76.6482 29.6868 78.2005 31.4647 78.7782V78.7782ZM35.2338 82.1593C34.8114 82.7407 34.2587 83.1677 33.6775 83.3618C33.1963 83.5224 32.7521 83.5018 32.4118 83.3057C32.1648 82.6189 31.7898 81.0187 32.4373 80.1275C32.9203 79.4628 33.3845 79.2031 34.0579 78.8594C34.6893 78.7632 35.3141 78.697 36.2258 78.9648C35.7893 80.2225 36.0489 81.0375 35.2338 82.1593ZM35.9003 77.3471C36.1254 77.2712 36.3288 77.1891 36.514 77.1024C36.6555 77.2929 36.7964 77.4615 36.9363 77.6119C36.7991 77.8051 36.6824 77.991 36.5828 78.1702C36.3567 78.0995 36.1438 78.0459 35.9425 78.0066C35.94 77.7696 35.9251 77.5507 35.9003 77.3471V77.3471ZM40.976 81.9793C40.9801 82.4865 40.8232 82.9026 40.5315 83.1658C39.8022 83.1884 38.1643 83.0506 37.5168 82.1594C37.0076 81.4585 36.9173 80.891 36.8127 80.234L36.8115 80.2262C36.9152 79.596 37.0452 78.9814 37.5817 78.197C38.6418 79 39.498 79.0054 40.3133 80.1276C40.7358 80.7089 40.9711 81.3665 40.976 81.9793ZM39.8781 74.6688C40.5529 74.4495 41.2752 74.4285 41.8596 74.6112C42.3493 74.7642 42.7002 75.0402 42.8617 75.3958C42.7102 75.879 42.1013 77.581 40.9463 77.9563C40.1572 78.2127 39.6848 78.1447 38.9625 78.0298C38.3939 77.7358 37.8483 77.4214 37.2665 76.665C38.3521 75.8919 38.5669 75.0948 39.8781 74.6688V74.6688ZM35.1992 71.4393C35.4941 71.0264 35.8656 70.7821 36.2562 70.7406C36.8596 71.151 38.1037 72.2252 38.1037 73.3269C38.1037 74.16 37.8628 74.6656 37.576 75.2305C37.1139 75.7072 36.6648 76.1574 35.7221 76.4943C35.3364 75.2215 34.6469 74.7141 34.6469 73.3269C34.647 72.6082 34.8431 71.9379 35.1992 71.4393V71.4393ZM29.8976 75.6274C30.4738 75.1805 31.8809 74.3282 32.9291 74.6688C33.7364 74.9311 34.0077 75.3113 34.5063 75.8171C34.7931 76.3883 35.0494 76.962 35.0765 77.9125C33.7505 77.8861 33.0474 78.3838 31.7318 77.9563C30.6892 77.6175 29.662 76.6751 29.8976 75.6274Z" fill="#954EDE"/>
</g>
<g clip-path="url(#clip7)">
<path d="M66.9885 82.3413C69.1626 81.0425 69.899 78.235 68.6283 76.0343C67.3577 73.8336 64.5583 73.0677 62.3465 74.3012C62.3088 71.769 60.2457 69.7275 57.7045 69.7275C55.1634 69.7275 53.1002 71.769 53.0626 74.3014C50.8508 73.0678 48.0512 73.8339 46.7806 76.0347C45.5101 78.2353 46.2464 81.0428 48.4206 82.3415C46.2465 83.6403 45.5101 86.4478 46.7807 88.6485C48.0513 90.8492 50.8509 91.6152 53.0627 90.3816C53.1002 92.914 55.1635 94.9555 57.7047 94.9554C60.2459 94.9554 62.309 92.9138 62.3466 90.3816C64.5584 91.6151 67.358 90.8491 68.6285 88.6482C69.8991 86.4475 69.1626 83.64 66.9885 82.3413ZM57.7045 86.5939C55.3559 86.5939 53.452 84.69 53.452 82.3414C53.452 79.9927 55.3559 78.0888 57.7045 78.0888C60.0531 78.0888 61.9571 79.9927 61.9571 82.3414C61.9571 84.69 60.0532 86.5939 57.7045 86.5939Z" fill="#954EDE"/>
<circle cx="57.7718" cy="82.7213" r="5.47422" fill="white"/>
</g>
<g clip-path="url(#clip8)">
<path d="M170.756 28.4999C172.221 27.6247 172.717 25.7329 171.861 24.2499C171.005 22.7669 169.118 22.2508 167.628 23.082C167.603 21.3757 166.212 20 164.5 20C162.788 20 161.397 21.3757 161.372 23.0821C159.882 22.2509 157.995 22.7671 157.139 24.2501C156.283 25.7331 156.779 27.6249 158.244 28.5C156.779 29.3752 156.283 31.2671 157.139 32.7501C157.995 34.2331 159.882 34.7492 161.372 33.918C161.397 35.6244 162.788 37.0001 164.5 37C166.213 37 167.603 35.6243 167.628 33.918C169.119 34.7491 171.005 34.233 171.861 32.7499C172.717 31.2669 172.221 29.375 170.756 28.4999ZM164.5 31.3656C162.917 31.3656 161.634 30.0826 161.634 28.5C161.634 26.9173 162.917 25.6343 164.5 25.6343C166.083 25.6343 167.366 26.9173 167.366 28.5C167.366 30.0826 166.083 31.3656 164.5 31.3656Z" fill="#954EDE"/>
<circle cx="164.545" cy="28.7562" r="3.68886" fill="white"/>
</g>
<path d="M107.235 20.5374C107.503 20.6244 107.748 20.6757 107.976 20.7025C107.808 20.8587 107.64 21.0445 107.474 21.2727C106.505 22.6076 107.366 24.7918 107.403 24.8841C107.43 24.9499 107.474 25.007 107.532 25.0487C108.081 25.4476 108.764 25.475 109.409 25.2598C110.065 25.0407 110.68 24.5708 111.141 23.9364C111.306 23.7087 111.43 23.4917 111.527 23.2827C111.623 23.4912 111.748 23.7082 111.914 23.9364C112.621 24.9099 114.219 25.1959 115.326 25.1199C115.397 25.115 115.465 25.0904 115.523 25.0487C116.032 24.6786 116.309 24.0678 116.303 23.3289C116.298 22.6374 116.041 21.9071 115.58 21.2727C115.413 21.0424 115.243 20.8553 115.072 20.6982C115.28 20.6695 115.505 20.6188 115.755 20.5374C117.322 20.0283 117.934 17.7578 117.96 17.6614C117.978 17.5914 117.976 17.5177 117.954 17.4489C117.759 16.8501 117.259 16.3975 116.546 16.1746C115.879 15.9663 115.101 15.9851 114.355 16.2275C114.117 16.3049 113.911 16.3944 113.729 16.4924C113.769 16.2768 113.793 16.0397 113.793 15.773C113.793 14.1231 111.812 12.8625 111.728 12.8096C111.668 12.7719 111.598 12.752 111.527 12.752C110.898 12.752 110.314 13.0831 109.885 13.6843C109.483 14.2471 109.261 14.9889 109.261 15.773C109.261 16.0306 109.284 16.2608 109.322 16.4709C109.158 16.3815 108.97 16.2993 108.749 16.2275C107.179 15.7176 105.368 17.2121 105.292 17.2759C105.238 17.3215 105.197 17.3814 105.175 17.4489C104.777 18.6758 105.682 20.0325 107.235 20.5374V20.5374ZM110.53 23.4924C110.16 24.0005 109.677 24.3737 109.169 24.5433C108.749 24.6837 108.361 24.6657 108.063 24.4943C107.847 23.8941 107.52 22.4955 108.085 21.7166C108.507 21.1357 108.913 20.9087 109.502 20.6083C110.054 20.5243 110.6 20.4664 111.396 20.7005C111.015 21.7997 111.242 22.512 110.53 23.4924ZM111.112 19.2866C111.309 19.2203 111.486 19.1486 111.648 19.0728C111.772 19.2392 111.895 19.3866 112.017 19.518C111.898 19.6869 111.796 19.8494 111.708 20.006C111.511 19.9442 111.325 19.8974 111.149 19.863C111.147 19.6559 111.134 19.4645 111.112 19.2866V19.2866ZM115.548 23.335C115.552 23.7784 115.414 24.142 115.16 24.372C114.522 24.3918 113.091 24.2713 112.525 23.4924C112.08 22.8799 112.001 22.3839 111.909 21.8097L111.908 21.8029C111.999 21.2521 112.113 20.7149 112.582 20.0294C113.508 20.7312 114.256 20.7359 114.969 21.7167C115.338 22.2248 115.544 22.7995 115.548 23.335ZM114.588 16.9458C115.178 16.7542 115.81 16.7359 116.32 16.8955C116.748 17.0292 117.055 17.2705 117.196 17.5813C117.064 18.0035 116.532 19.4911 115.522 19.8191C114.832 20.0432 114.42 19.9837 113.788 19.8833C113.291 19.6263 112.814 19.3516 112.306 18.6905C113.255 18.0148 113.442 17.3182 114.588 16.9458V16.9458ZM110.499 14.1233C110.757 13.7626 111.082 13.549 111.423 13.5128C111.95 13.8714 113.038 14.8102 113.038 15.7731C113.038 16.5012 112.827 16.9431 112.577 17.4368C112.173 17.8534 111.78 18.2468 110.956 18.5413C110.619 17.429 110.017 16.9854 110.017 15.7731C110.017 15.145 110.188 14.5591 110.499 14.1233V14.1233ZM105.866 17.7837C106.369 17.3931 107.599 16.6482 108.515 16.9458C109.221 17.1751 109.458 17.5074 109.894 17.9495C110.144 18.4486 110.368 18.9501 110.392 19.7808C109.233 19.7577 108.619 20.1927 107.469 19.8191C106.558 19.523 105.66 18.6994 105.866 17.7837Z" fill="#FFB8DC"/>
<path d="M106.924 20.9485C107.192 21.0355 107.436 21.0868 107.665 21.1136C107.496 21.2699 107.329 21.4557 107.163 21.6839C106.193 23.0187 107.055 25.2029 107.092 25.2953C107.118 25.3611 107.163 25.4181 107.22 25.4598C107.769 25.8587 108.452 25.8861 109.097 25.6709C109.753 25.4519 110.368 24.9819 110.829 24.3475C110.994 24.1198 111.119 23.9028 111.215 23.6938C111.312 23.9024 111.436 24.1193 111.602 24.3475C112.31 25.321 113.907 25.607 115.015 25.531C115.086 25.5262 115.154 25.5015 115.211 25.4598C115.72 25.0897 115.998 24.4789 115.992 23.7401C115.986 23.0485 115.729 22.3182 115.268 21.6839C115.101 21.4535 114.931 21.2664 114.76 21.1093C114.968 21.0806 115.193 21.0299 115.444 20.9485C117.011 20.4394 117.623 18.169 117.648 18.0726C117.667 18.0026 117.665 17.9288 117.642 17.86C117.448 17.2612 116.948 16.8087 116.234 16.5857C115.568 16.3774 114.79 16.3962 114.044 16.6387C113.806 16.716 113.6 16.8055 113.418 16.9035C113.458 16.6879 113.481 16.4508 113.481 16.1842C113.481 14.5342 111.501 13.2736 111.416 13.2207C111.356 13.1831 111.287 13.1631 111.216 13.1631C110.586 13.1631 110.003 13.4942 109.573 14.0955C109.171 14.6582 108.95 15.4 108.95 16.1842C108.95 16.4418 108.972 16.6719 109.011 16.8821C108.846 16.7927 108.658 16.7104 108.437 16.6386C106.868 16.1288 105.057 17.6232 104.981 17.6871C104.926 17.7326 104.886 17.7925 104.864 17.86C104.465 19.087 105.37 20.4436 106.924 20.9485ZM110.218 23.9035C109.849 24.4116 109.366 24.7849 108.858 24.9544C108.437 25.0948 108.049 25.0768 107.752 24.9055C107.536 24.3052 107.208 22.9067 107.774 22.1278C108.196 21.5468 108.602 21.3199 109.19 21.0195C109.742 20.9354 110.288 20.8775 111.085 21.1116C110.703 22.2108 110.93 22.9231 110.218 23.9035ZM110.8 19.6977C110.997 19.6314 111.175 19.5597 111.337 19.4839C111.46 19.6504 111.584 19.7978 111.706 19.9292C111.586 20.098 111.484 20.2605 111.397 20.4172C111.199 20.3553 111.013 20.3085 110.837 20.2742C110.835 20.0671 110.822 19.8757 110.8 19.6977ZM115.237 23.7462C115.24 24.1895 115.103 24.5532 114.848 24.7831C114.211 24.8029 112.779 24.6824 112.213 23.9036C111.768 23.291 111.689 22.7951 111.598 22.2208L111.597 22.214C111.687 21.6633 111.801 21.1261 112.27 20.4406C113.196 21.1424 113.945 21.1471 114.657 22.1278C115.027 22.6359 115.232 23.2106 115.237 23.7462ZM114.277 17.357C114.867 17.1653 115.498 17.147 116.009 17.3066C116.437 17.4404 116.743 17.6816 116.885 17.9924C116.752 18.4147 116.22 19.9022 115.21 20.2302C114.521 20.4543 114.108 20.3949 113.477 20.2944C112.98 20.0375 112.503 19.7627 111.995 19.1017C112.943 18.4259 113.131 17.7293 114.277 17.357ZM110.188 14.5345C110.445 14.1737 110.77 13.9601 111.111 13.9239C111.639 14.2826 112.726 15.2214 112.726 16.1842C112.726 16.9123 112.516 17.3542 112.265 17.8479C111.861 18.2645 111.469 18.658 110.645 18.9524C110.308 17.8401 109.705 17.3966 109.705 16.1842C109.705 15.5561 109.877 14.9703 110.188 14.5345ZM105.554 18.1948C106.058 17.8042 107.288 17.0593 108.204 17.357C108.909 17.5863 109.146 17.9185 109.582 18.3606C109.833 18.8598 110.057 19.3612 110.08 20.192C108.922 20.1689 108.307 20.6038 107.157 20.2302C106.246 19.9341 105.348 19.1105 105.554 18.1948Z" fill="#954EDE"/>
</g>
<defs>
<filter id="filter0_f" x="23" y="81" width="156" height="26" filterUnits="userSpaceOnUse" color-interpolation-filters="sRGB">
<feFlood flood-opacity="0" result="BackgroundImageFix"/>
<feBlend mode="normal" in="SourceGraphic" in2="BackgroundImageFix" result="shape"/>
<feGaussianBlur stdDeviation="5" result="effect1_foregroundBlur"/>
</filter>
<clipPath id="clip0">
<rect width="277" height="105.82" fill="white"/>
</clipPath>
<clipPath id="clip1">
<rect width="5.93764" height="6.92725" fill="white" transform="translate(151.157 11.8438)"/>
</clipPath>
<clipPath id="clip2">
<rect width="35.8977" height="38.0016" fill="white" transform="translate(44 6)"/>
</clipPath>
<clipPath id="clip3">
<rect width="6.32513" height="7.37931" fill="white" transform="translate(180.023 57.4346) rotate(24.9452)"/>
</clipPath>
<clipPath id="clip4">
<rect width="15.6977" height="15.6977" fill="white" transform="translate(169.065 42.001) rotate(24.9452)"/>
</clipPath>
<clipPath id="clip5">
<rect width="7.27921" height="8.49241" fill="white" transform="translate(35.7046 89.8418)"/>
</clipPath>
<clipPath id="clip6">
<rect width="14.7496" height="14.7496" fill="white" transform="translate(29 69.7285)"/>
</clipPath>
<clipPath id="clip7">
<rect width="25.2278" height="25.2278" fill="white" transform="translate(45.0908 69.7275)"/>
</clipPath>
<clipPath id="clip8">
<rect width="17" height="17" fill="white" transform="translate(156 20)"/>
</clipPath>
</defs>
</svg>
