<svg width="277" height="106" viewBox="0 0 277 106" fill="none" xmlns="http://www.w3.org/2000/svg">
<g clip-path="url(#clip0)">
<g filter="url(#filter0_f)">
<ellipse cx="101" cy="94" rx="68" ry="3" fill="#C4C4C4" fill-opacity="0.5"/>
</g>
<path d="M78.7207 53.8115L85.1807 53.8555C87.8174 53.7969 89.9854 53.0352 91.6846 51.5703C93.3838 50.0762 94.3945 47.9961 94.7168 45.3301C94.9512 43.3379 94.5557 41.6973 93.5303 40.4082C92.5049 39.1191 90.9668 38.46 88.916 38.4307C87.0117 38.3721 85.3271 38.8994 83.8623 40.0127C82.3975 41.126 81.46 42.6055 81.0498 44.4512L66.5479 44.5391C66.7236 41.082 67.8369 38.0205 69.8877 35.3545C71.9385 32.6885 74.6631 30.6377 78.0615 29.2021C81.4893 27.7373 85.166 27.0195 89.0918 27.0488C95.5371 27.1953 100.605 28.8945 104.297 32.1465C107.988 35.3691 109.673 39.6758 109.351 45.0664C108.97 51.1016 105.029 55.877 97.5293 59.3926C100.371 60.7988 102.495 62.7471 103.901 65.2373C105.308 67.7275 105.938 70.54 105.791 73.6748C105.586 77.6006 104.341 81.0283 102.056 83.958C99.7705 86.8584 96.709 89.0996 92.8711 90.6816C89.0332 92.2344 84.917 92.9668 80.5225 92.8789C76.6846 92.8496 73.1982 92.0439 70.0635 90.4619C66.958 88.8506 64.5703 86.6387 62.9004 83.8262C61.2305 81.0137 60.4102 77.791 60.4395 74.1582H74.8535C74.8828 76.2383 75.498 77.9521 76.6992 79.2998C77.9004 80.6475 79.585 81.3506 81.7529 81.4092C84.1846 81.4678 86.3379 80.75 88.2129 79.2559C90.0879 77.7617 91.2012 75.7988 91.5527 73.3672C91.9043 70.7598 91.5088 68.7236 90.3662 67.2588C89.2529 65.7646 87.3779 64.9736 84.7412 64.8857L77.0068 64.8418L78.7207 53.8115ZM162.48 36.585L130.928 92H115.107L146.528 39.4414H117.217L119.062 28.0156H163.843L162.48 36.585Z" fill="#EF3829"/>
<path d="M78.7207 53.8115L78.7411 50.8116L76.1536 50.794L75.7563 53.3509L78.7207 53.8115ZM85.1807 53.8555L85.1603 56.8554L85.2038 56.8557L85.2473 56.8547L85.1807 53.8555ZM91.6846 51.5703L93.6434 53.8425L93.6545 53.8329L93.6656 53.8232L91.6846 51.5703ZM94.7168 45.3301L97.6951 45.6901L97.6962 45.6806L94.7168 45.3301ZM88.916 38.4307L88.8238 41.4292L88.8485 41.43L88.8732 41.4304L88.916 38.4307ZM81.0498 44.4512L81.068 47.4511L83.4596 47.4366L83.9784 45.102L81.0498 44.4512ZM66.5479 44.5391L63.5517 44.3867L63.3905 47.5583L66.566 47.539L66.5479 44.5391ZM78.0615 29.2021L79.2289 31.9657L79.2404 31.9608L78.0615 29.2021ZM89.0918 27.0488L89.16 24.0496L89.1371 24.0491L89.1142 24.0489L89.0918 27.0488ZM104.297 32.1465L102.314 34.3976L102.324 34.4064L104.297 32.1465ZM109.351 45.0664L112.345 45.2554L112.345 45.2454L109.351 45.0664ZM97.5293 59.3926L96.256 56.6762L90.6172 59.3194L96.1988 62.0814L97.5293 59.3926ZM105.791 73.6748L108.787 73.8313L108.787 73.8231L108.788 73.8148L105.791 73.6748ZM102.056 83.958L104.412 85.8146L104.417 85.8089L104.421 85.8031L102.056 83.958ZM92.8711 90.6816L93.9962 93.4627L94.0053 93.459L94.0144 93.4552L92.8711 90.6816ZM80.5225 92.8789L80.5824 89.8795L80.5639 89.8791L80.5454 89.879L80.5225 92.8789ZM70.0635 90.4619L68.6818 93.1248L68.6968 93.1326L68.7118 93.1402L70.0635 90.4619ZM60.4395 74.1582V71.1582H57.4635L57.4396 74.134L60.4395 74.1582ZM74.8535 74.1582L77.8532 74.116L77.8116 71.1582H74.8535V74.1582ZM81.7529 81.4092L81.6719 84.4081L81.6807 84.4083L81.7529 81.4092ZM91.5527 73.3672L94.5219 73.7965L94.5239 73.7823L94.5258 73.7681L91.5527 73.3672ZM90.3662 67.2588L87.9606 69.0512L87.9803 69.0778L88.0007 69.1039L90.3662 67.2588ZM84.7412 64.8857L84.8412 61.8874L84.7997 61.886L84.7583 61.8858L84.7412 64.8857ZM77.0068 64.8418L74.0424 64.3812L73.5078 67.822L76.9898 67.8417L77.0068 64.8418ZM78.7003 56.8115L85.1603 56.8554L85.2011 50.8555L78.7411 50.8116L78.7003 56.8115ZM85.2473 56.8547C88.452 56.7835 91.3275 55.839 93.6434 53.8425L89.7258 49.2981C88.6432 50.2313 87.1828 50.8102 85.114 50.8562L85.2473 56.8547ZM93.6656 53.8232C96.0189 51.7539 97.3018 48.9438 97.6951 45.6901L91.7385 44.9701C91.4872 47.0484 90.7487 48.3984 89.7036 49.3174L93.6656 53.8232ZM97.6962 45.6806C98.0023 43.0789 97.506 40.5871 95.8781 38.5406L91.1825 42.2758C91.6054 42.8074 91.9 43.5969 91.7373 44.9796L97.6962 45.6806ZM95.8781 38.5406C94.1584 36.3787 91.6678 35.4697 88.9589 35.431L88.8732 41.4304C90.2658 41.4503 90.8514 41.8596 91.1825 42.2758L95.8781 38.5406ZM89.0083 35.4321C86.4435 35.3532 84.0798 36.0794 82.0471 37.6242L85.6776 42.4012C86.5745 41.7195 87.58 41.391 88.8238 41.4292L89.0083 35.4321ZM82.0471 37.6242C80.0005 39.1796 78.6807 41.2829 78.1212 43.8004L83.9784 45.102C84.2392 43.928 84.7945 43.0723 85.6776 42.4012L82.0471 37.6242ZM81.0316 41.4512L66.5297 41.5391L66.566 47.539L81.068 47.4511L81.0316 41.4512ZM69.544 44.6914C69.6898 41.8243 70.5978 39.3517 72.2656 37.1836L67.5098 33.5254C65.076 36.6893 63.7575 40.3398 63.5517 44.3867L69.544 44.6914ZM72.2656 37.1836C73.9704 34.9674 76.2605 33.2196 79.2289 31.9657L76.8942 26.4386C73.0657 28.0558 69.9066 30.4096 67.5098 33.5254L72.2656 37.1836ZM79.2404 31.9608C82.2686 30.6667 85.534 30.0224 89.0694 30.0487L89.1142 24.0489C84.798 24.0167 80.71 24.8079 76.8826 26.4435L79.2404 31.9608ZM89.0236 30.0481C94.9848 30.1835 99.2985 31.7413 102.314 34.3976L106.28 29.8954C101.912 26.0478 96.0894 24.2071 89.16 24.0496L89.0236 30.0481ZM102.324 34.4064C105.237 36.95 106.629 40.3155 106.356 44.8874L112.345 45.2454C112.716 39.036 110.739 33.7883 106.27 29.8865L102.324 34.4064ZM106.357 44.8775C106.07 49.4254 103.181 53.4299 96.256 56.6762L98.8026 62.109C106.877 58.324 111.87 52.7777 112.345 45.2554L106.357 44.8775ZM96.1988 62.0814C98.5623 63.251 100.211 64.8025 101.289 66.7125L106.514 63.7621C104.78 60.6917 102.18 58.3467 98.8598 56.7038L96.1988 62.0814ZM101.289 66.7125C102.391 68.6639 102.917 70.907 102.794 73.5348L108.788 73.8148C108.958 70.1731 108.224 66.7912 106.514 63.7621L101.289 66.7125ZM102.795 73.5183C102.62 76.8676 101.574 79.6971 99.6902 82.1129L104.421 85.8031C107.107 82.3595 108.552 78.3335 108.787 73.8313L102.795 73.5183ZM99.6992 82.1014C97.771 84.5487 95.1495 86.4976 91.7278 87.908L94.0144 93.4552C98.2684 91.7017 101.77 89.1681 104.412 85.8146L99.6992 82.1014ZM91.7459 87.9006C88.3071 89.2919 84.5966 89.9598 80.5824 89.8795L80.4625 95.8783C85.2373 95.9738 89.7593 95.1768 93.9962 93.4627L91.7459 87.9006ZM80.5454 89.879C77.1256 89.8529 74.1003 89.1388 71.4151 87.7837L68.7118 93.1402C72.2961 94.9491 76.2436 95.8463 80.4996 95.8788L80.5454 89.879ZM71.4452 87.799C68.8007 86.4269 66.8439 84.5918 65.48 82.2946L60.3208 85.3578C62.2967 88.6856 65.1153 91.2743 68.6818 93.1248L71.4452 87.799ZM65.48 82.2946C64.1196 80.0034 63.414 77.3303 63.4394 74.1824L57.4396 74.134C57.4063 78.2518 58.3413 82.0239 60.3208 85.3578L65.48 82.2946ZM60.4395 77.1582H74.8535V71.1582H60.4395V77.1582ZM71.8538 74.2005C71.8916 76.8854 72.7061 79.3285 74.4597 81.2959L78.9388 77.3037C78.29 76.5758 77.874 75.5911 77.8532 74.116L71.8538 74.2005ZM74.4597 81.2959C76.3206 83.3838 78.8568 84.332 81.6719 84.4081L81.834 78.4103C80.3131 78.3692 79.4802 77.9112 78.9388 77.3037L74.4597 81.2959ZM81.6807 84.4083C84.805 84.4836 87.6482 83.5419 90.0825 81.602L86.3433 76.9097C85.0276 77.9581 83.5642 78.452 81.8252 78.4101L81.6807 84.4083ZM90.0825 81.602C92.5708 79.6192 94.0641 76.9629 94.5219 73.7965L88.5836 72.9379C88.3383 74.6347 87.605 75.9042 86.3433 76.9097L90.0825 81.602ZM94.5258 73.7681C94.9397 70.6983 94.547 67.741 92.7317 65.4137L88.0007 69.1039C88.4705 69.7062 88.8689 70.8212 88.5796 72.9663L94.5258 73.7681ZM92.7719 65.4663C90.9132 62.9719 87.992 61.9924 84.8412 61.8874L84.6413 67.8841C86.7638 67.9548 87.5926 68.5574 87.9606 69.0512L92.7719 65.4663ZM84.7583 61.8858L77.0239 61.8418L76.9898 67.8417L84.7242 67.8857L84.7583 61.8858ZM79.9713 65.3024L81.6851 54.2721L75.7563 53.3509L74.0424 64.3812L79.9713 65.3024ZM162.48 36.585L165.087 38.0694L165.358 37.595L165.443 37.056L162.48 36.585ZM130.928 92V95H132.672L133.535 93.4844L130.928 92ZM115.107 92L112.532 90.4606L109.819 95H115.107V92ZM146.528 39.4414L149.103 40.9808L151.817 36.4414H146.528V39.4414ZM117.217 39.4414L114.255 38.963L113.693 42.4414H117.217V39.4414ZM119.062 28.0156V25.0156H116.508L116.101 27.5372L119.062 28.0156ZM163.843 28.0156L166.806 28.4866L167.357 25.0156H163.843V28.0156ZM159.873 35.1006L128.321 90.5156L133.535 93.4844L165.087 38.0694L159.873 35.1006ZM130.928 89H115.107V95H130.928V89ZM117.682 93.5394L149.103 40.9808L143.953 37.902L112.532 90.4606L117.682 93.5394ZM146.528 36.4414H117.217V42.4414H146.528V36.4414ZM120.178 39.9198L122.024 28.494L116.101 27.5372L114.255 38.963L120.178 39.9198ZM119.062 31.0156H163.843V25.0156H119.062V31.0156ZM160.88 27.5446L159.518 36.114L165.443 37.056L166.806 28.4866L160.88 27.5446Z" fill="#EF3829"/>
<path d="M178.71 91.3779C177.909 92.3154 176.742 93.043 175.209 93.5605C173.676 94.0684 171.977 94.3076 170.111 94.2783C168.324 94.2588 166.815 93.8096 165.585 92.9307C164.354 92.0518 163.476 90.8262 162.948 89.2539C162.421 87.6816 162.279 85.9092 162.523 83.9365L162.641 83.0576C163.09 79.7471 164.252 77.125 166.127 75.1914C168.012 73.2578 170.316 72.3154 173.041 72.3643C175.424 72.4033 177.255 73.043 178.534 74.2832C179.813 75.5234 180.526 77.3154 180.673 79.6592L175.868 79.6445C175.8 78.502 175.517 77.667 175.019 77.1396C174.53 76.6123 173.832 76.334 172.924 76.3047C171.576 76.2559 170.463 76.7881 169.584 77.9014C168.705 79.0049 168.104 80.5869 167.782 82.6475C167.509 84.4053 167.411 85.7725 167.489 86.749C167.636 89.1025 168.695 90.2939 170.668 90.3232C171.859 90.3428 172.904 90.0547 173.803 89.459L174.462 86.1338H170.99L171.605 82.6035H180.087L178.71 91.3779ZM186.356 94H181.347L185.053 72.6719H190.048L186.356 94ZM207.626 91.3779C206.825 92.3154 205.658 93.043 204.125 93.5605C202.592 94.0684 200.893 94.3076 199.027 94.2783C197.24 94.2588 195.731 93.8096 194.501 92.9307C193.271 92.0518 192.392 90.8262 191.864 89.2539C191.337 87.6816 191.195 85.9092 191.439 83.9365L191.557 83.0576C192.006 79.7471 193.168 77.125 195.043 75.1914C196.928 73.2578 199.232 72.3154 201.957 72.3643C204.34 72.4033 206.171 73.043 207.45 74.2832C208.729 75.5234 209.442 77.3154 209.589 79.6592L204.784 79.6445C204.716 78.502 204.433 77.667 203.935 77.1396C203.446 76.6123 202.748 76.334 201.84 76.3047C200.492 76.2559 199.379 76.7881 198.5 77.9014C197.621 79.0049 197.021 80.5869 196.698 82.6475C196.425 84.4053 196.327 85.7725 196.405 86.749C196.552 89.1025 197.611 90.2939 199.584 90.3232C200.775 90.3428 201.82 90.0547 202.719 89.459L203.378 86.1338H199.906L200.521 82.6035H209.003L207.626 91.3779ZM222.45 90.0156H215.639L213.749 94H208.227L219.521 72.6719H224.237L228.178 94H222.963L222.45 90.0156ZM217.514 86.0459H221.938L221 78.6924L217.514 86.0459ZM241.625 88.2285C241.84 87.125 241.244 86.2705 239.838 85.665L237.436 84.6689C234.066 83.1553 232.465 81.0947 232.631 78.4873C232.699 77.2959 233.109 76.2363 233.861 75.3086C234.613 74.3711 235.653 73.6436 236.981 73.126C238.31 72.6084 239.76 72.3594 241.332 72.3789C243.441 72.418 245.136 73.0332 246.415 74.2246C247.704 75.416 248.339 77.0127 248.319 79.0146H243.339C243.368 78.1943 243.192 77.54 242.812 77.0518C242.44 76.5537 241.825 76.2949 240.966 76.2754C240.126 76.2559 239.384 76.4512 238.739 76.8613C238.095 77.2715 237.714 77.8232 237.597 78.5166C237.411 79.4932 238.134 80.2939 239.765 80.9189C241.405 81.5439 242.597 82.0811 243.339 82.5303C245.673 83.9268 246.767 85.8115 246.62 88.1846C246.542 89.415 246.146 90.4941 245.434 91.4219C244.721 92.3496 243.729 93.0674 242.46 93.5752C241.2 94.083 239.784 94.3271 238.212 94.3076C237.06 94.2881 235.99 94.1074 235.004 93.7656C234.018 93.4238 233.173 92.9258 232.47 92.2715C231.044 90.9531 230.36 89.2197 230.419 87.0713L235.443 87.0859C235.385 88.1797 235.595 89.0098 236.073 89.5762C236.552 90.1328 237.357 90.4111 238.49 90.4111C239.33 90.4111 240.028 90.2207 240.585 89.8398C241.151 89.4492 241.498 88.9121 241.625 88.2285Z" fill="url(#paint0_linear)"/>
<g clip-path="url(#clip1)">
<path d="M66.0542 91.4114L66.1177 90.8465L66.9139 83.5755L65.7184 83.5058C65.6642 83.4835 65.6101 83.4612 65.5591 83.4825L65.5336 83.4931L51.3358 82.6544L52.5277 94.9437L65.6381 95.0395L66.0542 91.4114Z" fill="#262C38"/>
<path d="M60.6539 83.1967C60.9127 85.6461 61.5771 91.8295 61.9264 95.0337L55.7608 94.9878L57.9114 83.0394L60.6539 83.1967Z" fill="#00F0E9"/>
<path opacity="0.19" d="M51.3358 82.6568L66.9033 83.5524L66.429 87.9376C61.5396 87.5091 56.6246 87.0912 51.7352 86.6627L51.3358 82.6568Z" fill="#248D8A"/>
<path d="M69.3648 80.9551L67.5165 84.9861L50.2057 84.4287L48.6341 80.1939L69.3648 80.9551Z" fill="#262C38"/>
<path d="M61.4578 80.6763L60.8231 84.7844L57.6198 84.6696L57.385 80.5204L61.4578 80.6763Z" fill="#4D8493"/>
<path d="M59.723 80.5339C61.5758 80.4941 63.4177 80.0699 65.0749 79.2741C65.7851 78.9331 66.5218 78.4763 66.7286 77.7171C66.9503 76.9218 66.5306 76.0948 66.128 75.3804C66.0175 75.1872 65.907 74.994 65.7891 74.8188C65.4248 74.2679 64.9766 73.7669 64.3512 73.594C63.3605 73.3342 62.0378 74.0354 61.3489 74.7862C60.0148 76.2848 59.8339 78.4688 59.7092 80.4649C59.7379 80.4978 59.7305 80.5159 59.723 80.5339ZM59.9225 80.1516C60.417 79.2575 61.1712 77.0138 64.3389 75.2143C64.4441 75.5742 63.6672 76.4365 63.6057 76.7912C63.4541 77.4675 63.0349 78.076 62.5371 78.5678C61.8047 79.3218 60.9077 79.8604 59.9225 80.1516Z" fill="#00F0E9"/>
<path d="M59.9225 80.1512C60.8971 79.8345 61.8121 79.3033 62.5297 78.5854C63.0275 78.0936 63.4467 77.4851 63.5983 76.8087C63.6852 76.4435 63.6745 76.0591 63.5693 75.6992C64.2593 75.2021 65.013 74.8579 65.8072 74.8258C65.9251 75.0009 66.0356 75.1941 66.146 75.3873C66.5667 76.1092 66.9863 76.9362 66.7466 77.7241C66.5218 78.4758 65.8031 78.94 65.0929 79.2811C63.4177 80.0694 61.5757 80.4936 59.7411 80.5409C59.723 80.5334 59.8005 80.3965 59.9225 80.1512Z" fill="#4D8493"/>
<path d="M52.532 78.2093C52.7966 78.9514 53.5792 79.3578 54.3013 79.6549C56.0236 80.3423 57.8839 80.6433 59.7334 80.5599C59.4812 78.5565 58.7776 76.3674 57.3524 74.9579C56.6344 74.2403 55.6075 73.6068 54.6435 73.949C54.0289 74.1604 53.6213 74.6893 53.2966 75.2734C53.1969 75.4645 53.0897 75.6737 52.9899 75.8649C52.6132 76.5753 52.2461 77.4163 52.532 78.2093ZM55.5626 75.9734C57.4327 77.1227 58.941 79.3052 59.487 80.1841C58.4889 79.9424 57.5618 79.4766 56.7855 78.7983C56.2609 78.3292 55.7988 77.7592 55.5916 77.0829C55.5044 76.7305 55.4756 76.3387 55.5626 75.9734Z" fill="#00F0E9"/>
<path d="M59.5127 80.1728C58.5146 79.931 57.5875 79.4652 56.8112 78.787C56.2865 78.3178 55.8245 77.7478 55.6173 77.0716C55.512 76.7117 55.5013 76.3273 55.5702 75.9546C54.8459 75.5089 54.0803 75.2151 53.2755 75.2217C53.1758 75.4128 53.0686 75.622 52.9689 75.8132C52.6028 76.5491 52.2283 77.4081 52.5141 78.2012C52.7787 78.9432 53.5614 79.3496 54.2834 79.6467C56.0058 80.3342 57.866 80.6351 59.7156 80.5518C59.723 80.5337 59.6518 80.3989 59.5127 80.1728Z" fill="#4D8493"/>
<path d="M59.6646 80.5727C60.0191 80.2753 60.8855 80.2729 61.2858 80.4798C61.6968 80.7122 61.9867 81.0848 62.2332 81.4606C62.4722 81.8544 62.7038 82.2663 63.0267 82.6102C63.4823 83.0931 64.1173 83.3966 64.7692 83.4537C64.0855 83.679 63.5889 84.4245 62.8489 84.4789C62.2575 84.5311 61.7254 84.08 61.4078 83.5694C61.1157 83.0482 60.9838 82.4452 60.7681 81.8921C60.5779 81.3284 60.2316 80.7849 59.6646 80.5727Z" fill="#00F0E9"/>
<g opacity="0.25">
<path opacity="0.25" d="M59.6646 80.5727C60.0191 80.2753 60.8855 80.2729 61.2858 80.4798C61.6968 80.7122 61.9867 81.0848 62.2332 81.4606C62.4722 81.8544 62.7038 82.2663 63.0267 82.6102C63.4823 83.0931 64.1173 83.3966 64.7692 83.4537C64.0855 83.679 63.5889 84.4245 62.8489 84.4789C62.2575 84.5311 61.7254 84.08 61.4078 83.5694C61.1157 83.0482 60.9838 82.4452 60.7681 81.8921C60.5779 81.3284 60.2316 80.7849 59.6646 80.5727Z" fill="#00F0E9"/>
</g>
<path d="M64.6392 81.5643C64.9153 81.509 64.8397 81.0769 64.5637 81.1322C64.2877 81.1875 64.3632 81.6196 64.6392 81.5643Z" fill="#3CBCB5"/>
<path d="M66.8025 83.1296C67.122 83.0711 67.0253 82.588 66.7057 82.6465C66.4042 82.7124 66.501 83.1955 66.8025 83.1296Z" fill="#3CBCB5"/>
<path d="M67.6047 81.8984C67.6153 81.9239 67.6259 81.9493 67.6546 81.9822C67.7045 82.0661 67.78 82.1393 67.8299 82.2232C67.8766 82.2635 67.9233 82.3039 67.9849 82.3081C68.0465 82.3123 68.1155 82.2985 68.1558 82.2518C68.1813 82.2411 68.1962 82.205 68.2036 82.187C68.2185 82.1509 68.2259 82.1328 68.2407 82.0967C68.2556 82.0606 68.245 82.0351 68.2343 82.0097C68.2237 81.9842 68.2131 81.9587 68.1844 81.9258C68.1345 81.8419 68.0591 81.7687 68.0017 81.7029C67.955 81.6626 67.9008 81.6403 67.8467 81.618C67.7851 81.6138 67.7341 81.635 67.6758 81.6743C67.6503 81.685 67.6354 81.7211 67.628 81.7391C67.6132 81.7752 67.6057 81.7933 67.5909 81.8294C67.5909 81.8294 67.5941 81.8729 67.6047 81.8984Z" fill="#3CBCB5"/>
<path d="M52.8713 82.8235C53.1473 82.7682 53.0718 82.3361 52.7958 82.3914C52.5017 82.4392 52.5952 82.8788 52.8713 82.8235Z" fill="#3CBCB5"/>
<path d="M54.783 81.9212C55.1026 81.8627 55.0058 81.3797 54.6863 81.4382C54.3741 81.4786 54.4635 81.9797 54.783 81.9212Z" fill="#3CBCB5"/>
<path d="M55.8554 81.623C55.8661 81.6485 55.8767 81.6739 55.9054 81.7069C55.9553 81.7907 56.0307 81.864 56.0806 81.9478C56.1273 81.9881 56.1741 82.0285 56.2357 82.0327C56.2972 82.0369 56.3662 82.0231 56.4066 81.9764C56.4321 81.9658 56.4469 81.9297 56.4543 81.9116C56.4692 81.8755 56.4766 81.8574 56.4915 81.8213C56.5063 81.7852 56.4957 81.7598 56.4851 81.7343C56.4744 81.7088 56.4638 81.6833 56.4351 81.6504C56.3852 81.5666 56.3098 81.4933 56.2525 81.4275C56.2057 81.3872 56.1516 81.3649 56.0974 81.3426C56.0358 81.3384 55.9849 81.3596 55.9265 81.3989C55.901 81.4096 55.8862 81.4457 55.8787 81.4637C55.8639 81.4998 55.8565 81.5179 55.8416 81.554C55.8416 81.554 55.8522 81.5795 55.8554 81.623Z" fill="#3CBCB5"/>
<path d="M50.792 81.5671C50.4724 81.6256 50.5692 82.1086 50.8888 82.0501C51.1903 81.9842 51.0935 81.5012 50.792 81.5671Z" fill="#3CBCB5"/>
<path d="M52.4321 83.9927C52.4788 84.0331 52.5255 84.0734 52.5871 84.0776C52.6487 84.0819 52.7177 84.068 52.758 84.0213C52.7835 84.0107 52.7984 83.9746 52.8058 83.9565C52.8206 83.9204 52.8281 83.9024 52.8429 83.8663C52.8578 83.8302 52.8471 83.8047 52.8365 83.7792C52.8259 83.7537 52.8153 83.7282 52.7866 83.6953C52.7367 83.6115 52.6613 83.5382 52.6039 83.4724C52.5572 83.4321 52.503 83.4098 52.4489 83.3875C52.3873 83.3833 52.3363 83.4046 52.2779 83.4439C52.2525 83.4545 52.2376 83.4906 52.2302 83.5086C52.2153 83.5447 52.2079 83.5628 52.193 83.5989C52.1782 83.635 52.1888 83.6605 52.1994 83.686C52.2101 83.7114 52.2207 83.7369 52.2494 83.7698C52.3141 83.8176 52.3821 83.9089 52.4321 83.9927Z" fill="#3CBCB5"/>
<path d="M59.7951 80.5625C59.417 80.3015 58.5613 80.3293 58.16 80.5864C57.7662 80.8254 57.4977 81.2215 57.2833 81.6399C57.0509 82.0509 56.8546 82.4767 56.5649 82.8219C56.1467 83.3252 55.5342 83.6854 54.8664 83.7694C55.5715 83.954 56.1047 84.6588 56.8404 84.666C57.4276 84.6754 57.9435 84.1911 58.2024 83.6644C58.4687 83.1196 58.5471 82.5187 58.7338 81.9622C58.9279 81.3878 59.2526 80.8037 59.7951 80.5625Z" fill="#00F0E9"/>
<g opacity="0.25">
<path opacity="0.25" d="M59.7951 80.5625C59.417 80.3015 58.5613 80.3293 58.16 80.5864C57.7662 80.8254 57.4977 81.2215 57.2833 81.6399C57.0509 82.0509 56.8546 82.4767 56.5649 82.8219C56.1467 83.3252 55.5342 83.6854 54.8664 83.7694C55.5715 83.954 56.1047 84.6588 56.8404 84.666C57.4276 84.6754 57.9435 84.1911 58.2024 83.6644C58.4687 83.1196 58.5471 82.5187 58.7338 81.9622C58.9279 81.3878 59.2526 80.8037 59.7951 80.5625Z" fill="#00F0E9"/>
</g>
<path d="M59.0975 80.3603C59.158 80.1108 59.3202 79.4599 59.5888 79.4227C59.9265 79.3716 60.2017 80.1391 60.2209 80.4003C60.2689 81.0533 58.9056 81.0834 59.0975 80.3603Z" fill="#ABCDD6"/>
</g>
<g clip-path="url(#clip2)">
<path d="M46.8757 95.1131C47.1842 95.4265 47.4771 95.7554 47.77 96.0842C47.9551 96.2723 48.1248 96.4447 48.31 96.6327C48.3717 96.6954 48.4645 96.7583 48.4013 96.8822C48.3225 97.0216 48.1986 96.9584 48.1209 96.9422C47.5004 96.7508 46.8956 96.5439 46.2907 96.337C46.2442 96.321 46.1977 96.3051 46.1357 96.2735C45.994 96.5057 45.8522 96.7378 45.7104 96.97C45.5686 97.2021 45.3958 97.434 45.254 97.6662C45.1754 97.7744 45.0664 97.7891 44.9893 97.7107C44.9276 97.648 44.9126 97.5702 44.8823 97.4766C44.8071 97.1495 44.7165 96.8067 44.6726 96.4487C44.6432 96.2307 44.5509 96.1056 44.3491 96.0574C44.0078 95.9614 43.6821 95.85 43.3718 95.7542C43.2633 95.7067 43.1703 95.6749 43.0775 95.612C42.8919 95.4861 42.9399 95.3154 43.1585 95.1928C43.2523 95.1313 43.3613 95.1166 43.4705 95.0708C43.8603 94.9339 44.2502 94.797 44.64 94.6601C44.9052 94.5533 44.9209 94.5379 44.9231 94.258C44.9419 93.8383 44.9764 93.4032 44.9798 92.9678C44.9801 92.9367 44.9649 92.8899 44.9808 92.8434C45.0281 92.766 45.0601 92.6419 45.138 92.6269C45.2005 92.5963 45.3246 92.6284 45.3706 92.7065C45.4938 92.863 45.5859 93.0192 45.6934 93.1911C45.878 93.4413 46.0627 93.6916 46.2473 93.9419C46.3396 94.067 46.4484 94.0834 46.62 94.007C46.9477 93.8696 47.2751 93.7633 47.6181 93.6416C47.7273 93.5958 47.8206 93.5965 47.8975 93.706C47.959 93.7998 47.8961 93.8926 47.8177 93.9697C47.4884 94.3248 47.1899 94.7112 46.8757 95.1131Z" fill="#00F0E9"/>
</g>
<g clip-path="url(#clip3)">
<path d="M157.714 21.1363C158.156 21.5853 158.575 22.0563 158.995 22.5274C159.26 22.7968 159.503 23.0437 159.768 23.3131C159.857 23.4029 159.99 23.493 159.899 23.6705C159.786 23.8701 159.609 23.7796 159.497 23.7565C158.609 23.4822 157.742 23.1858 156.876 22.8895C156.809 22.8667 156.743 22.8439 156.654 22.7986C156.451 23.1311 156.248 23.4637 156.045 23.7962C155.841 24.1287 155.594 24.4609 155.391 24.7935C155.278 24.9485 155.122 24.9695 155.012 24.8573C154.923 24.7675 154.902 24.656 154.858 24.522C154.751 24.0534 154.621 23.5623 154.558 23.0495C154.516 22.7373 154.384 22.5581 154.095 22.489C153.606 22.3515 153.139 22.1919 152.695 22.0547C152.539 21.9867 152.406 21.9411 152.273 21.851C152.007 21.6707 152.076 21.4262 152.389 21.2505C152.523 21.1624 152.68 21.1414 152.836 21.0758C153.394 20.8797 153.953 20.6836 154.511 20.4875C154.891 20.3345 154.914 20.3124 154.917 19.9115C154.944 19.3103 154.993 18.687 154.998 18.0633C154.998 18.0188 154.977 17.9518 154.999 17.8851C155.067 17.7743 155.113 17.5965 155.225 17.5751C155.314 17.5312 155.492 17.5772 155.558 17.689C155.734 17.9132 155.866 18.137 156.02 18.3832C156.285 18.7417 156.549 19.1001 156.814 19.4586C156.946 19.6379 157.102 19.6614 157.347 19.5519C157.817 19.3551 158.286 19.2029 158.777 19.0285C158.934 18.9629 159.067 18.964 159.177 19.1208C159.265 19.2551 159.175 19.3881 159.063 19.4986C158.591 20.0072 158.164 20.5607 157.714 21.1363Z" fill="#00F0E9"/>
</g>
<g clip-path="url(#clip4)">
<path d="M172.563 25C171.592 24.9577 171 24.4507 171 23.6056C171 22.7183 171.718 22 172.563 22C173.451 22 174.127 22.6338 174.127 23.4789C174.085 24.3662 173.451 25 172.563 25Z" fill="#FF2968"/>
</g>
<g clip-path="url(#clip5)">
<path d="M213.105 59.6199C213.105 59.079 213.132 58.5381 213.159 57.9971C213.159 57.6726 213.159 57.3751 213.159 57.0505C213.159 56.9423 213.132 56.8071 213.295 56.753C213.484 56.6989 213.538 56.8612 213.592 56.9423C213.971 57.6455 214.322 58.3488 214.674 59.052C214.701 59.1061 214.728 59.1601 214.755 59.2413C215.08 59.1601 215.404 59.079 215.729 58.9979C216.053 58.9167 216.405 58.8626 216.73 58.7815C216.892 58.7544 217 58.8356 217 58.9708C217 59.079 216.946 59.1601 216.892 59.2683C216.675 59.6199 216.459 59.9986 216.189 60.3502C216.026 60.5666 215.999 60.7559 216.135 60.9723C216.351 61.3509 216.54 61.7296 216.73 62.0812C216.784 62.2164 216.838 62.3246 216.865 62.4598C216.919 62.7303 216.73 62.8385 216.432 62.7573C216.297 62.7303 216.189 62.6492 216.053 62.5951C215.594 62.3787 215.134 62.1623 214.674 61.9459C214.349 61.8107 214.322 61.8107 214.079 62.0541C213.7 62.4057 213.295 62.7573 212.916 63.136C212.889 63.163 212.862 63.2171 212.808 63.2442C212.7 63.2712 212.564 63.3524 212.483 63.2983C212.402 63.2712 212.321 63.136 212.348 63.0278C212.375 62.7844 212.429 62.568 212.483 62.3246C212.537 61.9459 212.591 61.5673 212.646 61.1886C212.673 60.9993 212.591 60.8911 212.375 60.81C211.969 60.6477 211.591 60.4584 211.185 60.2691C211.05 60.215 210.969 60.1338 210.996 59.9715C211.023 59.8363 211.158 59.8093 211.293 59.8093C211.888 59.7822 212.483 59.7011 213.105 59.6199Z" fill="#00F0E9"/>
</g>
<g clip-path="url(#clip6)">
<path d="M215.042 16C214.394 15.9718 214 15.6338 214 15.0704C214 14.4789 214.479 14 215.042 14C215.634 14 216.085 14.4225 216.085 14.9859C216.056 15.5775 215.634 16 215.042 16Z" fill="#262C38"/>
</g>
<g clip-path="url(#clip7)">
<path d="M239.409 31C238.437 30.9577 237.846 30.4507 237.846 29.6056C237.846 28.7183 238.564 28 239.409 28C240.296 28 240.972 28.6338 240.972 29.4789C240.93 30.3662 240.296 31 239.409 31Z" fill="#262C38"/>
</g>
<g clip-path="url(#clip8)">
<path d="M259.563 82C258.592 81.9577 258 81.4507 258 80.6056C258 79.7183 258.718 79 259.563 79C260.451 79 261.127 79.6338 261.127 80.4789C261.085 81.3662 260.451 82 259.563 82Z" fill="#262C38"/>
</g>
<path d="M259.711 94.2163C259.75 94.2238 259.634 94.4032 259.317 94.5836C259.038 94.7717 258.55 94.9997 257.936 95.0421C257.323 95.0844 256.545 94.9334 255.882 94.4012C255.219 93.8689 254.779 93.0169 254.634 92.101C254.561 91.6431 254.535 91.1538 254.664 90.6947C254.71 90.4614 254.84 90.2043 254.963 89.9861C255.086 89.7678 255.287 89.5647 255.481 89.4005C255.906 89.0796 256.464 88.9055 257.001 89.05C257.577 89.2021 257.968 89.6816 258.111 90.1935C258.182 90.4494 258.168 90.7292 258.069 91.0327C257.977 91.2974 257.776 91.5005 257.544 91.6572C257.087 91.9317 256.637 91.9653 256.248 91.8898C255.891 91.8608 255.548 91.754 255.291 91.6234C255.034 91.4928 254.808 91.4086 254.629 91.2931C253.904 90.8699 253.256 90.2599 252.856 89.6174C252.456 88.9749 252.266 88.2923 252.255 87.7253C252.244 87.1582 252.373 86.6991 252.511 86.4031C252.681 86.1536 252.82 86.0596 252.859 86.0671C253.007 86.1362 252.77 86.7357 252.946 87.698C253.057 88.1635 253.239 88.683 253.623 89.2013C253.967 89.7121 254.522 90.1828 255.137 90.5444C255.278 90.6524 255.504 90.7366 255.722 90.8596C255.948 90.9438 256.173 91.028 256.446 91.0808C256.99 91.1865 257.439 90.9508 257.328 90.4854C257.295 90.2369 257.061 89.9897 256.828 89.9444C256.563 89.8527 256.222 89.9478 255.943 90.1359C255.664 90.3239 255.449 90.6048 255.373 90.9937C255.266 91.3361 255.269 91.74 255.31 92.1515C255.4 92.9357 255.738 93.6873 256.214 94.1429C256.73 94.6061 257.376 94.8122 257.943 94.8012C258.502 94.8291 258.936 94.6713 259.246 94.5297C259.533 94.3027 259.672 94.2087 259.711 94.2163Z" fill="#262C38"/>
<circle cx="231.5" cy="67.5" r="1.5" fill="#FF0B53"/>
<path d="M250.648 39.0154C247.627 40.3997 244.024 39.0795 242.63 36.0372L238.523 37.9194L245.823 53.8479C246.669 55.695 245.857 57.8816 244.01 58.7281C242.163 59.5746 239.976 58.7623 239.13 56.9152C238.283 55.0681 239.096 52.8816 240.943 52.0351C241.29 51.8757 241.702 51.7399 242.077 51.6992L240.155 47.5052C239.788 47.6211 239.43 47.7587 239.061 47.928C234.932 49.8202 233.119 54.7003 235.011 58.8291C236.903 62.9579 241.783 64.7708 245.912 62.8786C250.041 60.9864 251.854 56.1062 249.962 51.9774L246.098 43.546C248.155 44.0757 250.406 43.9382 252.492 42.9822L250.669 39.0055L250.648 39.0154Z" fill="#FF0B53"/>
<path d="M248.946 38.4021C245.904 39.7964 242.313 38.4444 240.929 35.4239L236.822 37.3061L244.122 53.2346C244.968 55.0817 244.156 57.2683 242.309 58.1148C240.462 58.9613 238.275 58.149 237.429 56.3019C236.582 54.4548 237.394 52.2683 239.241 51.4218C239.589 51.2624 240 51.1266 240.376 51.0859L238.454 46.8919C238.086 47.0078 237.729 47.1454 237.359 47.3147C233.22 49.1851 231.408 54.0653 233.3 58.1941C235.192 62.3229 240.072 64.1358 244.201 62.2436C248.33 60.3514 250.143 55.4712 248.25 51.3424L244.386 42.911C246.444 43.4407 248.694 43.3032 250.781 42.3471L248.968 38.3922L248.946 38.4021Z" fill="#00F0E9"/>
<path d="M249.414 39.4228C247.959 39.7478 246.459 39.5151 245.189 38.8088C243.765 38.5145 242.477 37.7113 241.587 36.5152L238.523 37.9194L245.823 53.8479C246.669 55.695 245.857 57.8816 244.01 58.7281C242.793 59.2858 241.408 59.1318 240.373 58.4228C239.126 58.2842 237.986 57.5182 237.419 56.2795C236.572 54.4324 237.384 52.2459 239.232 51.3994C239.579 51.24 239.99 51.1042 240.366 51.0635L238.952 47.9778C234.896 49.9152 233.129 54.7221 235.011 58.8291C235.818 60.5893 237.173 61.9402 238.782 62.7543C240.532 63.188 242.419 63.0595 244.201 62.2429C248.33 60.3507 250.143 55.4706 248.25 51.3418L244.386 42.9103C246.444 43.4401 248.694 43.3025 250.781 42.3465L249.436 39.4129L249.414 39.4228Z" fill="#262C38"/>
<g clip-path="url(#clip9)">
<path d="M39.2148 14.7768C39.209 14.7269 39.4702 14.7977 39.8103 15.1123C40.1446 15.3769 40.6077 15.8796 40.8943 16.6051C41.181 17.3305 41.297 18.3288 40.9081 19.3351C40.5192 20.3415 39.6579 21.2004 38.6062 21.7273C38.0804 21.9908 37.4988 22.2102 36.8941 22.2299C36.5946 22.2647 36.2336 22.2054 35.9225 22.1404C35.6114 22.0754 35.2888 21.9106 35.016 21.7399C34.4647 21.3487 34.0399 20.7404 34.0086 20.0359C33.9715 19.2814 34.401 18.6244 34.9651 18.2553C35.2472 18.0708 35.5908 17.9803 35.9959 17.9838C36.3511 17.9931 36.6738 18.1579 36.9523 18.3785C37.4595 18.8254 37.6731 19.357 37.7311 19.8562C37.8332 20.2996 37.8355 20.7546 37.7763 21.1156C37.7171 21.4766 37.702 21.7818 37.6312 22.043C37.3978 23.0819 36.9091 24.0998 36.2857 24.8299C35.6623 25.56 34.9101 26.0521 34.2288 26.2831C33.5474 26.514 32.9426 26.5337 32.5317 26.4803C32.1649 26.3712 31.9978 26.2388 31.992 26.1889C32.0187 25.9835 32.8347 26.0404 33.9305 25.4577C34.4505 25.1444 35.0089 24.7254 35.4883 24.0626C35.9735 23.4498 36.3299 22.5989 36.5308 21.7156C36.6074 21.5044 36.6225 21.1991 36.6875 20.888C36.7026 20.5827 36.7177 20.2775 36.6771 19.9281C36.5959 19.2293 36.1386 18.7766 35.6186 19.0899C35.3307 19.2246 35.1217 19.603 35.1566 19.9024C35.1472 20.2576 35.3933 20.6337 35.7276 20.8984C36.0619 21.1631 36.4844 21.3163 36.9835 21.2583C37.4385 21.256 37.926 21.0982 38.4078 20.8904C39.3213 20.4807 40.1002 19.7832 40.4682 19.0322C40.8304 18.2313 40.8316 17.3711 40.6007 16.6898C40.4196 16.0026 40.0621 15.5383 39.772 15.2179C39.3878 14.959 39.2206 14.8267 39.2148 14.7768Z" fill="#FF0B53"/>
</g>
<g clip-path="url(#clip10)">
<path d="M44.1053 39.6199C44.1053 39.079 44.1323 38.5381 44.1594 37.9971C44.1594 37.6726 44.1594 37.3751 44.1594 37.0505C44.1594 36.9423 44.1323 36.8071 44.2946 36.753C44.4839 36.6989 44.538 36.8612 44.5921 36.9423C44.9708 37.6455 45.3224 38.3488 45.674 39.052C45.701 39.1061 45.7281 39.1601 45.7551 39.2413C46.0797 39.1601 46.4043 39.079 46.7288 38.9979C47.0534 38.9167 47.405 38.8626 47.7295 38.7815C47.8918 38.7544 48 38.8356 48 38.9708C48 39.079 47.9459 39.1601 47.8918 39.2683C47.6754 39.6199 47.4591 39.9986 47.1886 40.3502C47.0263 40.5666 46.9993 40.7559 47.1345 40.9723C47.3509 41.3509 47.5402 41.7296 47.7295 42.0812C47.7836 42.2164 47.8377 42.3246 47.8648 42.4598C47.9189 42.7303 47.7295 42.8385 47.432 42.7573C47.2968 42.7303 47.1886 42.6492 47.0534 42.5951C46.5936 42.3787 46.1338 42.1623 45.674 41.9459C45.3494 41.8107 45.3224 41.8107 45.079 42.0541C44.7003 42.4057 44.2946 42.7573 43.916 43.136C43.8889 43.163 43.8619 43.2171 43.8078 43.2442C43.6996 43.2712 43.5644 43.3524 43.4832 43.2983C43.4021 43.2712 43.3209 43.136 43.348 43.0278C43.375 42.7844 43.4291 42.568 43.4832 42.3246C43.5373 41.9459 43.5914 41.5673 43.6455 41.1886C43.6725 40.9993 43.5914 40.8911 43.375 40.81C42.9693 40.6477 42.5907 40.4584 42.185 40.2691C42.0498 40.215 41.9686 40.1338 41.9957 39.9715C42.0227 39.8363 42.1579 39.8093 42.2932 39.8093C42.8882 39.7822 43.4832 39.7011 44.1053 39.6199Z" fill="#00F0E9"/>
</g>
<g clip-path="url(#clip11)">
<path d="M27.0423 94C26.3944 93.9718 26 93.6338 26 93.0704C26 92.4789 26.4789 92 27.0423 92C27.6338 92 28.0845 92.4225 28.0845 92.9859C28.0563 93.5775 27.6338 94 27.0423 94Z" fill="#FF2968"/>
</g>
<path d="M25.8427 25.2514C25.8896 25.8982 25.5993 26.329 25.0397 26.394C24.4521 26.4623 23.9212 26.0419 23.8561 25.4823C23.7878 24.8947 24.1555 24.3982 24.7151 24.3332C25.306 24.2929 25.7745 24.6638 25.8427 25.2514Z" fill="#262C38"/>
<path d="M49.622 55.6966C46.8528 55.0532 45.1048 52.2742 45.7529 49.485L41.9875 48.6101L38.5942 63.2132C38.2007 64.9066 36.5067 65.9619 34.8133 65.5684C33.1199 65.1749 32.0646 63.4808 32.4581 61.7874C32.8516 60.094 34.5457 59.0388 36.2391 59.4323C36.5579 59.5063 36.9072 59.6295 37.1829 59.7986L38.0763 55.9535C37.7668 55.8396 37.4527 55.7456 37.114 55.6669C33.3288 54.7874 29.5478 57.1425 28.6682 60.9277C27.7887 64.713 30.1438 68.494 33.9291 69.3736C37.7143 70.2531 41.4953 67.898 42.3749 64.1127L44.171 56.3828C45.2864 57.8179 46.8822 58.9027 48.7948 59.3471L49.6419 55.7013L49.622 55.6966Z" fill="#FF0B53"/>
<path d="M48.7913 54.3919C46.0022 53.7438 44.2787 50.9496 44.9222 48.1804L41.1568 47.3054L37.7635 61.9085C37.37 63.602 35.676 64.6572 33.9826 64.2637C32.2892 63.8702 31.2339 62.1761 31.6274 60.4827C32.0209 58.7893 33.715 57.7341 35.4084 58.1276C35.7272 58.2016 36.0765 58.3248 36.3522 58.4939L37.2457 54.6488C36.9362 54.5349 36.622 54.4409 36.2833 54.3622C32.5027 53.4627 28.7217 55.8179 27.8422 59.6031C26.9626 63.3884 29.3177 67.1694 33.103 68.0489C36.8883 68.9285 40.6692 66.5734 41.5488 62.7881L43.345 55.0582C44.4604 56.4933 46.0562 57.578 47.9687 58.0225L48.8113 54.3966L48.7913 54.3919Z" fill="#00F0E9"/>
<path d="M48.574 55.3271C47.4189 54.7857 46.525 53.8431 46.0347 52.7002C45.2251 51.7562 44.7732 50.5383 44.7966 49.2628L41.9875 48.6101L38.5942 63.2132C38.2007 64.9066 36.5067 65.9619 34.8133 65.5684C33.6976 65.3091 32.8404 64.48 32.5108 63.4585C31.7393 62.7123 31.3684 61.5972 31.6323 60.4616C32.0258 58.7682 33.7199 57.713 35.4133 58.1065C35.732 58.1805 36.0814 58.3037 36.3571 58.4728L37.0144 55.6438C33.2551 54.8332 29.5432 57.1624 28.6682 60.9277C28.2933 62.5415 28.5039 64.1653 29.1671 65.5583C30.125 66.7678 31.4696 67.6682 33.1032 68.0478C36.8885 68.9273 40.6695 66.5722 41.549 62.7869L43.3452 55.057C44.4606 56.4921 46.0564 57.5769 47.9689 58.0213L48.5939 55.3317L48.574 55.3271Z" fill="#262C38"/>
<g clip-path="url(#clip12)">
<path d="M103.246 11.0812C103.208 11.0726 103.328 10.8964 103.65 10.7243C103.934 10.5437 104.428 10.3286 105.042 10.3025C105.656 10.2763 106.43 10.4477 107.079 10.9973C107.728 11.5469 108.145 12.4102 108.266 13.3296C108.326 13.7893 108.34 14.2791 108.198 14.7346C108.147 14.9666 108.009 15.2202 107.881 15.4351C107.752 15.65 107.546 15.8477 107.348 16.0068C106.914 16.3164 106.352 16.4757 105.819 16.3171C105.247 16.1498 104.869 15.6603 104.74 15.1448C104.675 14.887 104.696 14.6077 104.804 14.3069C104.902 14.0448 105.108 13.847 105.345 13.6965C105.809 13.4341 106.26 13.4124 106.646 13.4981C107.003 13.5366 107.343 13.6524 107.596 13.7897C107.85 13.927 108.073 14.0171 108.249 14.1373C108.963 14.5795 109.595 15.2064 109.978 15.8592C110.36 16.5121 110.533 17.1994 110.529 17.7665C110.525 18.3337 110.383 18.7892 110.237 19.0814C110.061 19.3264 109.919 19.4167 109.881 19.4082C109.735 19.3352 109.988 18.7421 109.837 17.7755C109.738 17.3073 109.57 16.7832 109.2 16.2549C108.869 15.7353 108.327 15.2501 107.721 14.8723C107.584 14.7607 107.36 14.6706 107.145 14.5418C106.922 14.4518 106.698 14.3617 106.428 14.3017C105.886 14.1817 105.431 14.4054 105.53 14.8736C105.556 15.1228 105.784 15.3762 106.016 15.4276C106.278 15.5262 106.622 15.4401 106.905 15.2595C107.189 15.0789 107.412 14.8038 107.498 14.417C107.613 14.0776 107.622 13.6737 107.591 13.2612C107.522 12.475 107.204 11.7147 106.74 11.2467C106.237 10.7701 105.596 10.547 105.029 10.5431C104.471 10.5004 104.032 10.6468 103.719 10.7801C103.427 10.9994 103.285 11.0897 103.246 11.0812Z" fill="#262C38"/>
</g>
<g clip-path="url(#clip13)">
<path d="M103.563 29.8086C102.592 29.7663 102 29.2593 102 28.4142C102 27.5269 102.718 26.8086 103.563 26.8086C104.451 26.8086 105.127 27.4424 105.127 28.2875C105.085 29.1748 104.451 29.8086 103.563 29.8086Z" fill="#262C38"/>
</g>
<path d="M198.912 47.4992C198.969 47.5344 198.68 47.7467 198.073 47.8394C197.522 47.9674 196.619 48.0324 195.63 47.7305C194.642 47.4286 193.511 46.7246 192.789 45.4906C192.067 44.2566 191.888 42.6547 192.211 41.1296C192.372 40.3671 192.624 39.5832 193.103 38.9401C193.315 38.601 193.674 38.2757 193.998 38.007C194.322 37.7382 194.76 37.5399 195.162 37.3981C196.023 37.1496 197.004 37.2115 197.76 37.7608C198.573 38.3453 198.899 39.3329 198.816 40.2224C198.774 40.6672 198.584 41.098 198.246 41.515C197.943 41.8755 197.506 42.0738 197.047 42.1804C196.165 42.3372 195.438 42.1195 194.873 41.7676C194.329 41.5073 193.855 41.134 193.53 40.7746C193.205 40.4151 192.901 40.1474 192.688 39.8584C191.804 38.7587 191.153 37.4117 190.911 36.1628C190.669 34.9139 190.78 33.7279 191.103 32.831C191.426 31.9341 191.905 31.291 192.3 30.9092C192.716 30.6192 192.991 30.5552 193.047 30.5904C193.238 30.7877 192.506 31.5865 192.205 33.2033C192.1 34.001 192.073 34.9257 192.364 35.9698C192.599 36.9788 193.187 38.0507 193.936 38.9882C194.092 39.242 194.396 39.5097 194.665 39.834C194.969 40.1017 195.273 40.3694 195.668 40.6158C196.46 41.1085 197.306 41.0083 197.411 40.2106C197.509 39.8011 197.289 39.2721 196.95 39.0609C196.59 38.758 195.997 38.7025 195.447 38.8304C194.896 38.9584 194.389 39.2698 194.037 39.835C193.663 40.3085 193.424 40.9441 193.242 41.6149C192.912 42.9001 192.992 44.2834 193.467 45.2848C193.998 46.3215 194.888 47.0329 195.785 47.3561C196.647 47.7359 197.423 47.7487 197.995 47.7125C198.58 47.528 198.856 47.4641 198.912 47.4992Z" fill="#FF0B53"/>
</g>
<defs>
<filter id="filter0_f" x="23" y="81" width="156" height="26" filterUnits="userSpaceOnUse" color-interpolation-filters="sRGB">
<feFlood flood-opacity="0" result="BackgroundImageFix"/>
<feBlend mode="normal" in="SourceGraphic" in2="BackgroundImageFix" result="shape"/>
<feGaussianBlur stdDeviation="5" result="effect1_foregroundBlur"/>
</filter>
<linearGradient id="paint0_linear" x1="161" y1="81.5" x2="244" y2="81" gradientUnits="userSpaceOnUse">
<stop stop-color="#09EAE5"/>
<stop offset="0.817708" stop-color="#BD4D7A"/>
<stop offset="1" stop-color="#E52A62"/>
</linearGradient>
<clipPath id="clip0">
<rect width="277" height="105.82" fill="white"/>
</clipPath>
<clipPath id="clip1">
<rect width="21.3938" height="24.2827" fill="white" transform="translate(53.2388 69) rotate(22.3625)"/>
</clipPath>
<clipPath id="clip2">
<rect width="8.94383" height="9.87464" fill="white" transform="translate(51.3011 97.168) rotate(135.45)"/>
</clipPath>
<clipPath id="clip3">
<rect width="12.8115" height="14.1448" fill="white" transform="translate(164.053 24.0801) rotate(135.45)"/>
</clipPath>
<clipPath id="clip4">
<rect width="3.08451" height="3" fill="white" transform="translate(171 22)"/>
</clipPath>
<clipPath id="clip5">
<rect width="11" height="12.1448" fill="white" transform="translate(211 54)"/>
</clipPath>
<clipPath id="clip6">
<rect width="2.05634" height="2" fill="white" transform="translate(214 14)"/>
</clipPath>
<clipPath id="clip7">
<rect width="3.08451" height="3" fill="white" transform="translate(237.846 28)"/>
</clipPath>
<clipPath id="clip8">
<rect width="3.08451" height="3" fill="white" transform="translate(258 79)"/>
</clipPath>
<clipPath id="clip9">
<rect width="10.904" height="10.1" fill="white" transform="translate(32.0385 26.5879) rotate(-96.6294)"/>
</clipPath>
<clipPath id="clip10">
<rect width="11" height="12.1448" fill="white" transform="translate(42 34)"/>
</clipPath>
<clipPath id="clip11">
<rect width="2.05634" height="2" fill="white" transform="translate(26 92)"/>
</clipPath>
<clipPath id="clip12">
<rect width="8.5957" height="7.96192" fill="white" transform="translate(110.19 19.4766) rotate(-167.505)"/>
</clipPath>
<clipPath id="clip13">
<rect width="3.08451" height="3" fill="white" transform="translate(102 26.8086)"/>
</clipPath>
</defs>
</svg>
