<svg width="277" height="106" viewBox="0 0 277 106" fill="none" xmlns="http://www.w3.org/2000/svg">
<g clip-path="url(#clip0)">
<g filter="url(#filter0_f)">
<ellipse cx="101" cy="94" rx="68" ry="3" fill="#C4C4C4" fill-opacity="0.5"/>
</g>
<path d="M78.7207 53.8115L85.1807 53.8555C87.8174 53.7969 89.9854 53.0352 91.6846 51.5703C93.3838 50.0762 94.3945 47.9961 94.7168 45.3301C94.9512 43.3379 94.5557 41.6973 93.5303 40.4082C92.5049 39.1191 90.9668 38.46 88.916 38.4307C87.0117 38.3721 85.3271 38.8994 83.8623 40.0127C82.3975 41.126 81.46 42.6055 81.0498 44.4512L66.5479 44.5391C66.7236 41.082 67.8369 38.0205 69.8877 35.3545C71.9385 32.6885 74.6631 30.6377 78.0615 29.2021C81.4893 27.7373 85.166 27.0195 89.0918 27.0488C95.5371 27.1953 100.605 28.8945 104.297 32.1465C107.988 35.3691 109.673 39.6758 109.351 45.0664C108.97 51.1016 105.029 55.877 97.5293 59.3926C100.371 60.7988 102.495 62.7471 103.901 65.2373C105.308 67.7275 105.938 70.54 105.791 73.6748C105.586 77.6006 104.341 81.0283 102.056 83.958C99.7705 86.8584 96.709 89.0996 92.8711 90.6816C89.0332 92.2344 84.917 92.9668 80.5225 92.8789C76.6846 92.8496 73.1982 92.0439 70.0635 90.4619C66.958 88.8506 64.5703 86.6387 62.9004 83.8262C61.2305 81.0137 60.4102 77.791 60.4395 74.1582H74.8535C74.8828 76.2383 75.498 77.9521 76.6992 79.2998C77.9004 80.6475 79.585 81.3506 81.7529 81.4092C84.1846 81.4678 86.3379 80.75 88.2129 79.2559C90.0879 77.7617 91.2012 75.7988 91.5527 73.3672C91.9043 70.7598 91.5088 68.7236 90.3662 67.2588C89.2529 65.7646 87.3779 64.9736 84.7412 64.8857L77.0068 64.8418L78.7207 53.8115ZM162.48 36.585L130.928 92H115.107L146.528 39.4414H117.217L119.062 28.0156H163.843L162.48 36.585Z" fill="#EF3829"/>
<path d="M78.7207 53.8115L78.7411 50.8116L76.1536 50.794L75.7563 53.3509L78.7207 53.8115ZM85.1807 53.8555L85.1603 56.8554L85.2038 56.8557L85.2473 56.8547L85.1807 53.8555ZM91.6846 51.5703L93.6434 53.8425L93.6545 53.8329L93.6656 53.8232L91.6846 51.5703ZM94.7168 45.3301L97.6951 45.6901L97.6962 45.6806L94.7168 45.3301ZM88.916 38.4307L88.8238 41.4292L88.8485 41.43L88.8732 41.4304L88.916 38.4307ZM81.0498 44.4512L81.068 47.4511L83.4596 47.4366L83.9784 45.102L81.0498 44.4512ZM66.5479 44.5391L63.5517 44.3867L63.3905 47.5583L66.566 47.539L66.5479 44.5391ZM78.0615 29.2021L79.2289 31.9657L79.2404 31.9608L78.0615 29.2021ZM89.0918 27.0488L89.16 24.0496L89.1371 24.0491L89.1142 24.0489L89.0918 27.0488ZM104.297 32.1465L102.314 34.3976L102.324 34.4064L104.297 32.1465ZM109.351 45.0664L112.345 45.2554L112.345 45.2454L109.351 45.0664ZM97.5293 59.3926L96.256 56.6762L90.6172 59.3194L96.1988 62.0814L97.5293 59.3926ZM105.791 73.6748L108.787 73.8313L108.787 73.8231L108.788 73.8148L105.791 73.6748ZM102.056 83.958L104.412 85.8146L104.417 85.8089L104.421 85.8031L102.056 83.958ZM92.8711 90.6816L93.9962 93.4627L94.0053 93.459L94.0144 93.4552L92.8711 90.6816ZM80.5225 92.8789L80.5824 89.8795L80.5639 89.8791L80.5454 89.879L80.5225 92.8789ZM70.0635 90.4619L68.6818 93.1248L68.6968 93.1326L68.7118 93.1402L70.0635 90.4619ZM60.4395 74.1582V71.1582H57.4635L57.4396 74.134L60.4395 74.1582ZM74.8535 74.1582L77.8532 74.116L77.8116 71.1582H74.8535V74.1582ZM81.7529 81.4092L81.6719 84.4081L81.6807 84.4083L81.7529 81.4092ZM91.5527 73.3672L94.5219 73.7965L94.5239 73.7823L94.5258 73.7681L91.5527 73.3672ZM90.3662 67.2588L87.9606 69.0512L87.9803 69.0778L88.0007 69.1039L90.3662 67.2588ZM84.7412 64.8857L84.8412 61.8874L84.7997 61.886L84.7583 61.8858L84.7412 64.8857ZM77.0068 64.8418L74.0424 64.3812L73.5078 67.822L76.9898 67.8417L77.0068 64.8418ZM78.7003 56.8115L85.1603 56.8554L85.2011 50.8555L78.7411 50.8116L78.7003 56.8115ZM85.2473 56.8547C88.452 56.7835 91.3275 55.839 93.6434 53.8425L89.7258 49.2981C88.6432 50.2313 87.1828 50.8102 85.114 50.8562L85.2473 56.8547ZM93.6656 53.8232C96.0189 51.7539 97.3018 48.9438 97.6951 45.6901L91.7385 44.9701C91.4872 47.0484 90.7487 48.3984 89.7036 49.3174L93.6656 53.8232ZM97.6962 45.6806C98.0023 43.0789 97.506 40.5871 95.8781 38.5406L91.1825 42.2758C91.6054 42.8074 91.9 43.5969 91.7373 44.9796L97.6962 45.6806ZM95.8781 38.5406C94.1584 36.3787 91.6678 35.4697 88.9589 35.431L88.8732 41.4304C90.2658 41.4503 90.8514 41.8596 91.1825 42.2758L95.8781 38.5406ZM89.0083 35.4321C86.4435 35.3532 84.0798 36.0794 82.0471 37.6242L85.6776 42.4012C86.5745 41.7195 87.58 41.391 88.8238 41.4292L89.0083 35.4321ZM82.0471 37.6242C80.0005 39.1796 78.6807 41.2829 78.1212 43.8004L83.9784 45.102C84.2392 43.928 84.7945 43.0723 85.6776 42.4012L82.0471 37.6242ZM81.0316 41.4512L66.5297 41.5391L66.566 47.539L81.068 47.4511L81.0316 41.4512ZM69.544 44.6914C69.6898 41.8243 70.5978 39.3517 72.2656 37.1836L67.5098 33.5254C65.076 36.6893 63.7575 40.3398 63.5517 44.3867L69.544 44.6914ZM72.2656 37.1836C73.9704 34.9674 76.2605 33.2196 79.2289 31.9657L76.8942 26.4386C73.0657 28.0558 69.9066 30.4096 67.5098 33.5254L72.2656 37.1836ZM79.2404 31.9608C82.2686 30.6667 85.534 30.0224 89.0694 30.0487L89.1142 24.0489C84.798 24.0167 80.71 24.8079 76.8826 26.4435L79.2404 31.9608ZM89.0236 30.0481C94.9848 30.1835 99.2985 31.7413 102.314 34.3976L106.28 29.8954C101.912 26.0478 96.0894 24.2071 89.16 24.0496L89.0236 30.0481ZM102.324 34.4064C105.237 36.95 106.629 40.3155 106.356 44.8874L112.345 45.2454C112.716 39.036 110.739 33.7883 106.27 29.8865L102.324 34.4064ZM106.357 44.8775C106.07 49.4254 103.181 53.4299 96.256 56.6762L98.8026 62.109C106.877 58.324 111.87 52.7777 112.345 45.2554L106.357 44.8775ZM96.1988 62.0814C98.5623 63.251 100.211 64.8025 101.289 66.7125L106.514 63.7621C104.78 60.6917 102.18 58.3467 98.8598 56.7038L96.1988 62.0814ZM101.289 66.7125C102.391 68.6639 102.917 70.907 102.794 73.5348L108.788 73.8148C108.958 70.1731 108.224 66.7912 106.514 63.7621L101.289 66.7125ZM102.795 73.5183C102.62 76.8676 101.574 79.6971 99.6902 82.1129L104.421 85.8031C107.107 82.3595 108.552 78.3335 108.787 73.8313L102.795 73.5183ZM99.6992 82.1014C97.771 84.5487 95.1495 86.4976 91.7278 87.908L94.0144 93.4552C98.2684 91.7017 101.77 89.1681 104.412 85.8146L99.6992 82.1014ZM91.7459 87.9006C88.3071 89.2919 84.5966 89.9598 80.5824 89.8795L80.4625 95.8783C85.2373 95.9738 89.7593 95.1768 93.9962 93.4627L91.7459 87.9006ZM80.5454 89.879C77.1256 89.8529 74.1003 89.1388 71.4151 87.7837L68.7118 93.1402C72.2961 94.9491 76.2436 95.8463 80.4996 95.8788L80.5454 89.879ZM71.4452 87.799C68.8007 86.4269 66.8439 84.5918 65.48 82.2946L60.3208 85.3578C62.2967 88.6856 65.1153 91.2743 68.6818 93.1248L71.4452 87.799ZM65.48 82.2946C64.1196 80.0034 63.414 77.3303 63.4394 74.1824L57.4396 74.134C57.4063 78.2518 58.3413 82.0239 60.3208 85.3578L65.48 82.2946ZM60.4395 77.1582H74.8535V71.1582H60.4395V77.1582ZM71.8538 74.2005C71.8916 76.8854 72.7061 79.3285 74.4597 81.2959L78.9388 77.3037C78.29 76.5758 77.874 75.5911 77.8532 74.116L71.8538 74.2005ZM74.4597 81.2959C76.3206 83.3838 78.8568 84.332 81.6719 84.4081L81.834 78.4103C80.3131 78.3692 79.4802 77.9112 78.9388 77.3037L74.4597 81.2959ZM81.6807 84.4083C84.805 84.4836 87.6482 83.5419 90.0825 81.602L86.3433 76.9097C85.0276 77.9581 83.5642 78.452 81.8252 78.4101L81.6807 84.4083ZM90.0825 81.602C92.5708 79.6192 94.0641 76.9629 94.5219 73.7965L88.5836 72.9379C88.3383 74.6347 87.605 75.9042 86.3433 76.9097L90.0825 81.602ZM94.5258 73.7681C94.9397 70.6983 94.547 67.741 92.7317 65.4137L88.0007 69.1039C88.4705 69.7062 88.8689 70.8212 88.5796 72.9663L94.5258 73.7681ZM92.7719 65.4663C90.9132 62.9719 87.992 61.9924 84.8412 61.8874L84.6413 67.8841C86.7638 67.9548 87.5926 68.5574 87.9606 69.0512L92.7719 65.4663ZM84.7583 61.8858L77.0239 61.8418L76.9898 67.8417L84.7242 67.8857L84.7583 61.8858ZM79.9713 65.3024L81.6851 54.2721L75.7563 53.3509L74.0424 64.3812L79.9713 65.3024ZM162.48 36.585L165.087 38.0694L165.358 37.595L165.443 37.056L162.48 36.585ZM130.928 92V95H132.672L133.535 93.4844L130.928 92ZM115.107 92L112.532 90.4606L109.819 95H115.107V92ZM146.528 39.4414L149.103 40.9808L151.817 36.4414H146.528V39.4414ZM117.217 39.4414L114.255 38.963L113.693 42.4414H117.217V39.4414ZM119.062 28.0156V25.0156H116.508L116.101 27.5372L119.062 28.0156ZM163.843 28.0156L166.806 28.4866L167.357 25.0156H163.843V28.0156ZM159.873 35.1006L128.321 90.5156L133.535 93.4844L165.087 38.0694L159.873 35.1006ZM130.928 89H115.107V95H130.928V89ZM117.682 93.5394L149.103 40.9808L143.953 37.902L112.532 90.4606L117.682 93.5394ZM146.528 36.4414H117.217V42.4414H146.528V36.4414ZM120.178 39.9198L122.024 28.494L116.101 27.5372L114.255 38.963L120.178 39.9198ZM119.062 31.0156H163.843V25.0156H119.062V31.0156ZM160.88 27.5446L159.518 36.114L165.443 37.056L166.806 28.4866L160.88 27.5446Z" fill="#EF3829"/>
<path d="M178.71 91.3779C177.909 92.3154 176.742 93.043 175.209 93.5605C173.676 94.0684 171.977 94.3076 170.111 94.2783C168.324 94.2588 166.815 93.8096 165.585 92.9307C164.354 92.0518 163.476 90.8262 162.948 89.2539C162.421 87.6816 162.279 85.9092 162.523 83.9365L162.641 83.0576C163.09 79.7471 164.252 77.125 166.127 75.1914C168.012 73.2578 170.316 72.3154 173.041 72.3643C175.424 72.4033 177.255 73.043 178.534 74.2832C179.813 75.5234 180.526 77.3154 180.673 79.6592L175.868 79.6445C175.8 78.502 175.517 77.667 175.019 77.1396C174.53 76.6123 173.832 76.334 172.924 76.3047C171.576 76.2559 170.463 76.7881 169.584 77.9014C168.705 79.0049 168.104 80.5869 167.782 82.6475C167.509 84.4053 167.411 85.7725 167.489 86.749C167.636 89.1025 168.695 90.2939 170.668 90.3232C171.859 90.3428 172.904 90.0547 173.803 89.459L174.462 86.1338H170.99L171.605 82.6035H180.087L178.71 91.3779ZM186.356 94H181.347L185.053 72.6719H190.048L186.356 94ZM207.626 91.3779C206.825 92.3154 205.658 93.043 204.125 93.5605C202.592 94.0684 200.893 94.3076 199.027 94.2783C197.24 94.2588 195.731 93.8096 194.501 92.9307C193.271 92.0518 192.392 90.8262 191.864 89.2539C191.337 87.6816 191.195 85.9092 191.439 83.9365L191.557 83.0576C192.006 79.7471 193.168 77.125 195.043 75.1914C196.928 73.2578 199.232 72.3154 201.957 72.3643C204.34 72.4033 206.171 73.043 207.45 74.2832C208.729 75.5234 209.442 77.3154 209.589 79.6592L204.784 79.6445C204.716 78.502 204.433 77.667 203.935 77.1396C203.446 76.6123 202.748 76.334 201.84 76.3047C200.492 76.2559 199.379 76.7881 198.5 77.9014C197.621 79.0049 197.021 80.5869 196.698 82.6475C196.425 84.4053 196.327 85.7725 196.405 86.749C196.552 89.1025 197.611 90.2939 199.584 90.3232C200.775 90.3428 201.82 90.0547 202.719 89.459L203.378 86.1338H199.906L200.521 82.6035H209.003L207.626 91.3779ZM222.45 90.0156H215.639L213.749 94H208.227L219.521 72.6719H224.237L228.178 94H222.963L222.45 90.0156ZM217.514 86.0459H221.938L221 78.6924L217.514 86.0459ZM241.625 88.2285C241.84 87.125 241.244 86.2705 239.838 85.665L237.436 84.6689C234.066 83.1553 232.465 81.0947 232.631 78.4873C232.699 77.2959 233.109 76.2363 233.861 75.3086C234.613 74.3711 235.653 73.6436 236.981 73.126C238.31 72.6084 239.76 72.3594 241.332 72.3789C243.441 72.418 245.136 73.0332 246.415 74.2246C247.704 75.416 248.339 77.0127 248.319 79.0146H243.339C243.368 78.1943 243.192 77.54 242.812 77.0518C242.44 76.5537 241.825 76.2949 240.966 76.2754C240.126 76.2559 239.384 76.4512 238.739 76.8613C238.095 77.2715 237.714 77.8232 237.597 78.5166C237.411 79.4932 238.134 80.2939 239.765 80.9189C241.405 81.5439 242.597 82.0811 243.339 82.5303C245.673 83.9268 246.767 85.8115 246.62 88.1846C246.542 89.415 246.146 90.4941 245.434 91.4219C244.721 92.3496 243.729 93.0674 242.46 93.5752C241.2 94.083 239.784 94.3271 238.212 94.3076C237.06 94.2881 235.99 94.1074 235.004 93.7656C234.018 93.4238 233.173 92.9258 232.47 92.2715C231.044 90.9531 230.36 89.2197 230.419 87.0713L235.443 87.0859C235.385 88.1797 235.595 89.0098 236.073 89.5762C236.552 90.1328 237.357 90.4111 238.49 90.4111C239.33 90.4111 240.028 90.2207 240.585 89.8398C241.151 89.4492 241.498 88.9121 241.625 88.2285Z" fill="#BBBBBB"/>
<g clip-path="url(#clip1)">
<path d="M66.0542 91.2815L66.1177 90.7166L66.9139 83.4456L65.7184 83.3759C65.6642 83.3536 65.6101 83.3313 65.5591 83.3526L65.5336 83.3632L51.3358 82.5245L52.5277 94.8138L65.6381 94.9096L66.0542 91.2815Z" fill="#163C5A"/>
<path d="M60.6539 83.0659C60.9127 85.5152 61.5771 91.6986 61.9264 94.9028L55.7608 94.8569L57.9114 82.9085L60.6539 83.0659Z" fill="#6EA4B7"/>
<path opacity="0.19" d="M51.3358 82.525L66.9033 83.4206L66.429 87.8057C61.5396 87.3772 56.6246 86.9593 51.7352 86.5308L51.3358 82.525Z" fill="#248D8A"/>
<path d="M69.3648 80.8243L67.5165 84.8552L50.2057 84.2978L48.6341 80.063L69.3648 80.8243Z" fill="#163C5A"/>
<path d="M61.4578 80.5464L60.8231 84.6545L57.6198 84.5398L57.385 80.3906L61.4578 80.5464Z" fill="#4D8493"/>
<path d="M59.723 80.4031C61.5758 80.3632 63.4177 79.939 65.0749 79.1433C65.7851 78.8022 66.5218 78.3455 66.7286 77.5862C66.9503 76.7909 66.5306 75.964 66.128 75.2495C66.0175 75.0563 65.907 74.8631 65.7891 74.688C65.4248 74.1371 64.9766 73.636 64.3512 73.4632C63.3605 73.2034 62.0378 73.9045 61.3489 74.6554C60.0148 76.1539 59.8339 78.338 59.7092 80.3341C59.7379 80.367 59.7305 80.385 59.723 80.4031ZM59.9225 80.0208C60.417 79.1266 61.1712 76.883 64.3389 75.0834C64.4441 75.4433 63.6672 76.3057 63.6057 76.6603C63.4541 77.3367 63.0349 77.9452 62.5371 78.4369C61.8047 79.191 60.9077 79.7296 59.9225 80.0208Z" fill="#6EA4B7"/>
<path d="M59.9225 80.0203C60.8971 79.7036 61.8121 79.1725 62.5297 78.4545C63.0275 77.9628 63.4467 77.3543 63.5983 76.6779C63.6852 76.3126 63.6745 75.9283 63.5693 75.5684C64.2593 75.0713 65.013 74.727 65.8072 74.6949C65.9251 74.8701 66.0356 75.0633 66.146 75.2565C66.5667 75.9783 66.9863 76.8053 66.7466 77.5932C66.5218 78.345 65.8031 78.8092 65.0929 79.1502C63.4177 79.9385 61.5757 80.3627 59.7411 80.41C59.723 80.4026 59.8005 80.2656 59.9225 80.0203Z" fill="#4D8493"/>
<path d="M52.532 78.0775C52.7966 78.8196 53.5792 79.226 54.3013 79.523C56.0236 80.2105 57.8839 80.5115 59.7334 80.4281C59.4812 78.4247 58.7776 76.2356 57.3524 74.826C56.6344 74.1085 55.6075 73.475 54.6435 73.8171C54.0289 74.0286 53.6213 74.5575 53.2966 75.1415C53.1969 75.3327 53.0897 75.5419 52.9899 75.733C52.6132 76.4434 52.2461 77.2845 52.532 78.0775ZM55.5626 75.8416C57.4327 76.9909 58.941 79.1734 59.487 80.0523C58.4889 79.8105 57.5618 79.3447 56.7855 78.6665C56.2609 78.1974 55.7988 77.6274 55.5916 76.9511C55.5044 76.5986 55.4756 76.2069 55.5626 75.8416Z" fill="#6EA4B7"/>
<path d="M59.5127 80.0419C58.5146 79.8001 57.5875 79.3343 56.8112 78.6561C56.2865 78.187 55.8245 77.617 55.6173 76.9407C55.512 76.5808 55.5013 76.1965 55.5702 75.8238C54.8459 75.3781 54.0803 75.0842 53.2755 75.0908C53.1758 75.282 53.0686 75.4912 52.9689 75.6823C52.6028 76.4182 52.2283 77.2773 52.5141 78.0703C52.7787 78.8124 53.5614 79.2188 54.2834 79.5158C56.0058 80.2033 57.866 80.5043 59.7156 80.4209C59.723 80.4028 59.6518 80.268 59.5127 80.0419Z" fill="#4D8493"/>
<path d="M59.6646 80.4428C60.0191 80.1454 60.8855 80.143 61.2858 80.3499C61.6968 80.5823 61.9867 80.9549 62.2332 81.3307C62.4722 81.7245 62.7038 82.1364 63.0267 82.4803C63.4823 82.9633 64.1173 83.2667 64.7692 83.3239C64.0855 83.5492 63.5889 84.2946 62.8489 84.349C62.2575 84.4012 61.7254 83.9502 61.4078 83.4396C61.1157 82.9183 60.9838 82.3153 60.7681 81.7622C60.5779 81.1985 60.2316 80.655 59.6646 80.4428Z" fill="#6EA4B7"/>
<g opacity="0.25">
<path opacity="0.25" d="M59.6646 80.4428C60.0191 80.1454 60.8855 80.143 61.2858 80.3499C61.6968 80.5823 61.9867 80.9549 62.2332 81.3307C62.4722 81.7245 62.7038 82.1364 63.0267 82.4803C63.4823 82.9633 64.1173 83.2667 64.7692 83.3239C64.0855 83.5492 63.5889 84.2946 62.8489 84.349C62.2575 84.4012 61.7254 83.9502 61.4078 83.4396C61.1157 82.9183 60.9838 82.3153 60.7681 81.7622C60.5779 81.1985 60.2316 80.655 59.6646 80.4428Z" fill="#6EA4B7"/>
</g>
<path d="M64.6392 81.4345C64.9153 81.3792 64.8397 80.9471 64.5637 81.0023C64.2877 81.0576 64.3632 81.4897 64.6392 81.4345Z" fill="#3CBCB5"/>
<path d="M66.8025 82.9987C67.122 82.9402 67.0253 82.4571 66.7057 82.5156C66.4042 82.5816 66.501 83.0646 66.8025 82.9987Z" fill="#3CBCB5"/>
<path d="M67.6047 81.7665C67.6153 81.792 67.6259 81.8175 67.6546 81.8504C67.7045 81.9343 67.78 82.0075 67.8299 82.0914C67.8766 82.1317 67.9233 82.172 67.9849 82.1763C68.0465 82.1805 68.1155 82.1667 68.1558 82.1199C68.1813 82.1093 68.1962 82.0732 68.2036 82.0552C68.2185 82.0191 68.2259 82.001 68.2407 81.9649C68.2556 81.9288 68.245 81.9033 68.2343 81.8778C68.2237 81.8524 68.2131 81.8269 68.1844 81.794C68.1345 81.7101 68.0591 81.6369 68.0017 81.5711C67.955 81.5307 67.9008 81.5085 67.8467 81.4862C67.7851 81.4819 67.7341 81.5032 67.6758 81.5425C67.6503 81.5531 67.6354 81.5892 67.628 81.6073C67.6132 81.6434 67.6057 81.6614 67.5909 81.6975C67.5909 81.6975 67.5941 81.7411 67.6047 81.7665Z" fill="#3CBCB5"/>
<path d="M52.8713 82.6916C53.1473 82.6363 53.0718 82.2042 52.7958 82.2595C52.5017 82.3074 52.5952 82.7469 52.8713 82.6916Z" fill="#3CBCB5"/>
<path d="M54.783 81.7904C55.1026 81.7319 55.0058 81.2488 54.6863 81.3073C54.3741 81.3477 54.4635 81.8489 54.783 81.7904Z" fill="#3CBCB5"/>
<path d="M55.8554 81.4921C55.8661 81.5176 55.8767 81.5431 55.9054 81.576C55.9553 81.6599 56.0307 81.7331 56.0806 81.817C56.1273 81.8573 56.1741 81.8976 56.2357 81.9018C56.2972 81.9061 56.3662 81.8922 56.4066 81.8455C56.4321 81.8349 56.4469 81.7988 56.4543 81.7807C56.4692 81.7446 56.4766 81.7266 56.4915 81.6905C56.5063 81.6544 56.4957 81.6289 56.4851 81.6034C56.4744 81.5779 56.4638 81.5525 56.4351 81.5196C56.3852 81.4357 56.3098 81.3625 56.2525 81.2966C56.2057 81.2563 56.1516 81.234 56.0974 81.2118C56.0358 81.2075 55.9849 81.2288 55.9265 81.2681C55.901 81.2787 55.8862 81.3148 55.8787 81.3329C55.8639 81.369 55.8565 81.387 55.8416 81.4231C55.8416 81.4231 55.8522 81.4486 55.8554 81.4921Z" fill="#3CBCB5"/>
<path d="M50.792 81.4352C50.4724 81.4937 50.5692 81.9768 50.8888 81.9183C51.1903 81.8524 51.0935 81.3693 50.792 81.4352Z" fill="#3CBCB5"/>
<path d="M52.4321 83.8619C52.4788 83.9022 52.5255 83.9425 52.5871 83.9468C52.6487 83.951 52.7177 83.9372 52.758 83.8904C52.7835 83.8798 52.7984 83.8437 52.8058 83.8257C52.8206 83.7896 52.8281 83.7715 52.8429 83.7354C52.8578 83.6993 52.8471 83.6738 52.8365 83.6483C52.8259 83.6229 52.8153 83.5974 52.7866 83.5645C52.7367 83.4806 52.6613 83.4074 52.6039 83.3416C52.5572 83.3012 52.503 83.279 52.4489 83.2567C52.3873 83.2525 52.3363 83.2737 52.2779 83.313C52.2525 83.3236 52.2376 83.3597 52.2302 83.3778C52.2153 83.4139 52.2079 83.4319 52.193 83.468C52.1782 83.5041 52.1888 83.5296 52.1994 83.5551C52.2101 83.5806 52.2207 83.6061 52.2494 83.639C52.3141 83.6867 52.3821 83.778 52.4321 83.8619Z" fill="#3CBCB5"/>
<path d="M59.7951 80.4327C59.417 80.1716 58.5613 80.1995 58.16 80.4565C57.7662 80.6955 57.4977 81.0916 57.2833 81.51C57.0509 81.921 56.8546 82.3468 56.5649 82.692C56.1467 83.1954 55.5342 83.5555 54.8664 83.6396C55.5715 83.8241 56.1047 84.5289 56.8404 84.5361C57.4276 84.5455 57.9435 84.0612 58.2024 83.5345C58.4687 82.9897 58.5471 82.3888 58.7338 81.8324C58.9279 81.2579 59.2526 80.6738 59.7951 80.4327Z" fill="#6EA4B7"/>
<g opacity="0.25">
<path opacity="0.25" d="M59.7951 80.4327C59.417 80.1716 58.5613 80.1995 58.16 80.4565C57.7662 80.6955 57.4977 81.0916 57.2833 81.51C57.0509 81.921 56.8546 82.3468 56.5649 82.692C56.1467 83.1954 55.5342 83.5555 54.8664 83.6396C55.5715 83.8241 56.1047 84.5289 56.8404 84.5361C57.4276 84.5455 57.9435 84.0612 58.2024 83.5345C58.4687 82.9897 58.5471 82.3888 58.7338 81.8324C58.9279 81.2579 59.2526 80.6738 59.7951 80.4327Z" fill="#6EA4B7"/>
</g>
<path d="M59.0975 80.2304C59.158 79.9809 59.3202 79.33 59.5888 79.2928C59.9265 79.2417 60.2017 80.0093 60.2209 80.2704C60.2689 80.9234 58.9056 80.9535 59.0975 80.2304Z" fill="#ABCDD6"/>
</g>
<g clip-path="url(#clip2)">
<path d="M46.8757 94.9812C47.1842 95.2947 47.4771 95.6235 47.77 95.9524C47.9551 96.1404 48.1248 96.3128 48.31 96.5009C48.3717 96.5636 48.4645 96.6265 48.4013 96.7504C48.3225 96.8897 48.1986 96.8266 48.1209 96.8104C47.5004 96.6189 46.8956 96.412 46.2907 96.2051C46.2442 96.1892 46.1977 96.1733 46.1357 96.1417C45.994 96.3739 45.8522 96.606 45.7104 96.8381C45.5686 97.0703 45.3958 97.3022 45.254 97.5343C45.1754 97.6426 45.0664 97.6573 44.9893 97.5789C44.9276 97.5162 44.9126 97.4383 44.8823 97.3448C44.8071 97.0177 44.7165 96.6748 44.6726 96.3168C44.6432 96.0989 44.5509 95.9738 44.3491 95.9255C44.0078 95.8296 43.6821 95.7181 43.3718 95.6224C43.2633 95.5749 43.1703 95.5431 43.0775 95.4801C42.8919 95.3543 42.9399 95.1836 43.1585 95.0609C43.2523 94.9995 43.3613 94.9848 43.4705 94.939C43.8603 94.8021 44.2502 94.6652 44.64 94.5283C44.9052 94.4215 44.9209 94.4061 44.9231 94.1262C44.9419 93.7065 44.9764 93.2713 44.9798 92.836C44.9801 92.8049 44.9649 92.7581 44.9808 92.7116C45.0281 92.6342 45.0601 92.51 45.138 92.4951C45.2005 92.4645 45.3246 92.4965 45.3706 92.5747C45.4938 92.7311 45.5859 92.8874 45.6934 93.0593C45.878 93.3095 46.0627 93.5598 46.2473 93.81C46.3396 93.9352 46.4484 93.9516 46.62 93.8752C46.9477 93.7378 47.2751 93.6315 47.6181 93.5098C47.7273 93.464 47.8206 93.4647 47.8975 93.5742C47.959 93.668 47.8961 93.7608 47.8177 93.8379C47.4884 94.193 47.1899 94.5794 46.8757 94.9812Z" fill="#FFCA12"/>
</g>
<path d="M86.9277 9.1103L87.5296 21.6515L87.7102 25.558L66.3611 30.0691L64.9459 26.4235L60.4228 14.7109L69.4423 20.2392L72.6932 7.26317L80.9157 17.8148L86.9277 9.1103Z" fill="#FFAB19"/>
<path d="M86.9277 9.11055L87.5295 21.6517L87.7102 25.5582L66.361 30.0694L64.9612 26.4964L79.3392 23.4582C83.1516 22.6527 85.7999 19.2105 85.6193 15.304L85.4366 11.2083L86.9277 9.11055Z" fill="#FF9C19"/>
<path d="M71.1964 19.5641C70.6707 19.4096 70.3301 18.8747 70.4845 18.349L71.1819 15.5466C71.3363 15.0209 71.8712 14.6803 72.3969 14.8347C72.9226 14.9891 73.2632 15.524 73.1088 16.0498L72.4114 18.8522C72.257 19.3779 71.7144 19.6822 71.1964 19.5641Z" fill="#FFC219"/>
<path d="M87.5294 21.6518L87.7101 25.5583L66.3609 30.0694L64.9458 26.4238L87.5294 21.6518Z" fill="#FF7719"/>
<path d="M87.8274 28.9845L67.6401 33.2502C66.1515 33.5648 64.7002 32.6198 64.3856 31.1311C64.071 29.6425 65.016 28.1912 66.5047 27.8766L86.692 23.6109C88.1806 23.2964 89.6319 24.2414 89.9465 25.73C90.2611 27.2186 89.3161 28.67 87.8274 28.9845Z" fill="#FF9C19"/>
<path d="M84.0877 29.7748L67.6401 33.2502C66.1515 33.5648 64.7002 32.6198 64.3856 31.1311C64.071 29.6425 65.016 28.1912 66.5047 27.8766L82.9522 24.4012C84.4409 24.0866 85.8922 25.0316 86.2068 26.5202C86.5213 28.0089 85.5763 29.4602 84.0877 29.7748Z" fill="#FFAB19"/>
<path d="M70.5579 29.8267L67.3991 30.4942C66.9271 30.5939 66.4433 30.2789 66.3436 29.8069C66.2438 29.3349 66.5588 28.8512 67.0308 28.7514L70.1896 28.0839C70.6616 27.9842 71.1454 28.2992 71.2451 28.7712C71.3449 29.2432 71.0299 29.727 70.5579 29.8267Z" fill="#FFC219"/>
<path d="M60.883 16.8888C62.0059 16.6515 62.7239 15.5489 62.4866 14.4259C62.2493 13.303 61.1467 12.585 60.0237 12.8223C58.9008 13.0596 58.1828 14.1623 58.4201 15.2852C58.6574 16.4081 59.7601 17.1261 60.883 16.8888Z" fill="#FFAB19"/>
<path d="M61.1163 14.2231C61.2467 14.8404 60.8458 15.4561 60.2285 15.5865C59.6113 15.7169 58.9956 15.316 58.8652 14.6988C58.7347 14.0816 59.1356 13.4658 59.7529 13.3354C60.3778 13.2413 60.9858 13.6059 61.1163 14.2231Z" fill="#FFC219"/>
<path d="M73.1229 9.29703C74.2458 9.05974 74.9638 7.95707 74.7265 6.83414C74.4892 5.7112 73.3865 4.99324 72.2636 5.23052C71.1407 5.4678 70.4227 6.57047 70.66 7.69341C70.8973 8.81634 71.9999 9.53431 73.1229 9.29703Z" fill="#FFAB19"/>
<path d="M73.3561 6.63035C73.4865 7.24759 73.0856 7.86331 72.4684 7.99374C71.8512 8.12416 71.2354 7.72326 71.105 7.10602C70.9746 6.48878 71.3755 5.87306 71.9927 5.74263C72.61 5.61221 73.2257 6.01311 73.3561 6.63035Z" fill="#FFC219"/>
<path d="M87.388 11.2892C88.5109 11.0519 89.2289 9.94926 88.9916 8.82632C88.7543 7.70339 87.6517 6.98543 86.5287 7.22271C85.4058 7.45999 84.6878 8.56266 84.9251 9.6856C85.1624 10.8085 86.2651 11.5265 87.388 11.2892Z" fill="#FFAB19"/>
<path d="M86.0599 8.9527C86.1903 9.56994 86.806 9.97084 87.4232 9.84042C88.0405 9.70999 88.4414 9.09427 88.311 8.47703C88.1805 7.85979 87.5648 7.45889 86.9476 7.58931C86.338 7.75605 85.9294 8.33546 86.0599 8.9527Z" fill="#FFC219"/>
<g clip-path="url(#clip3)">
<path d="M103.246 11.0821C103.208 11.0736 103.328 10.8973 103.65 10.7253C103.934 10.5447 104.428 10.3296 105.042 10.3034C105.656 10.2773 106.43 10.4487 107.079 10.9983C107.728 11.5478 108.145 12.4112 108.266 13.3306C108.326 13.7903 108.34 14.28 108.198 14.7355C108.147 14.9676 108.009 15.2212 107.881 15.4361C107.752 15.651 107.546 15.8487 107.348 16.0078C106.914 16.3174 106.352 16.4767 105.819 16.318C105.247 16.1508 104.869 15.6612 104.74 15.1457C104.675 14.888 104.696 14.6087 104.804 14.3079C104.902 14.0457 105.108 13.848 105.345 13.6975C105.809 13.4351 106.26 13.4134 106.646 13.4991C107.003 13.5375 107.343 13.6533 107.596 13.7907C107.85 13.928 108.073 14.0181 108.249 14.1383C108.963 14.5804 109.595 15.2073 109.978 15.8602C110.36 16.513 110.533 17.2004 110.529 17.7675C110.525 18.3346 110.383 18.7901 110.237 19.0824C110.061 19.3274 109.919 19.4177 109.881 19.4091C109.735 19.3362 109.988 18.7431 109.837 17.7765C109.738 17.3082 109.57 16.7842 109.2 16.2559C108.869 15.7362 108.327 15.2511 107.721 14.8733C107.584 14.7617 107.36 14.6716 107.145 14.5428C106.922 14.4527 106.698 14.3626 106.428 14.3026C105.886 14.1827 105.431 14.4063 105.53 14.8746C105.556 15.1238 105.784 15.3771 106.016 15.4286C106.278 15.5272 106.622 15.4411 106.905 15.2605C107.189 15.0799 107.412 14.8048 107.498 14.418C107.613 14.0785 107.622 13.6747 107.591 13.2622C107.522 12.476 107.204 11.7157 106.74 11.2477C106.237 10.771 105.596 10.548 105.029 10.544C104.471 10.5014 104.032 10.6477 103.719 10.7811C103.427 11.0004 103.285 11.0907 103.246 11.0821Z" fill="#00626B"/>
</g>
<g clip-path="url(#clip4)">
<path d="M103.563 29.8086C102.592 29.7663 102 29.2593 102 28.4142C102 27.5269 102.718 26.8086 103.563 26.8086C104.451 26.8086 105.127 27.4424 105.127 28.2875C105.085 29.1748 104.451 29.8086 103.563 29.8086Z" fill="#00626B"/>
</g>
<path d="M197.449 54.1938C197.392 54.0921 197.335 53.9905 197.248 53.9007C196.949 53.539 196.65 53.1773 196.382 52.8038C196.059 52.3806 195.705 51.9694 195.383 51.5462C195.349 51.506 195.326 51.4445 195.344 51.4019C195.429 51.21 195.545 51.0062 195.661 50.8024C196.12 51.0312 196.58 51.26 197.049 51.4674C197.518 51.6749 197.928 51.9582 198.435 52.0804C198.444 52.0591 198.454 52.0378 198.463 52.0165C198.345 51.9386 198.245 51.818 198.117 51.7614C197.518 51.4453 196.93 51.1599 196.331 50.8438C196.139 50.7589 195.956 50.6527 195.752 50.5371C195.847 50.3238 195.941 50.1106 196.035 49.8974C197.105 49.7842 198.173 49.6189 199.23 49.475C199.24 49.4536 199.228 49.4229 199.237 49.4016C199.121 49.3757 199.005 49.3499 198.901 49.3548C198.537 49.3721 198.163 49.4106 197.789 49.4492C197.28 49.5045 196.78 49.5386 196.272 49.5939C196.241 49.6058 196.219 49.5964 196.167 49.5989C196.247 49.3028 196.339 49.0375 196.419 48.7414C196.464 48.5828 196.499 48.4454 196.492 48.2892C196.496 48.1637 196.546 48.1091 196.659 48.0829C196.813 48.0234 196.976 47.9427 197.152 47.8926C198.334 47.5236 199.556 47.2988 200.808 47.2918C201.35 47.2767 201.897 47.3656 202.409 47.592C203.295 48.0094 203.651 48.7024 203.435 49.652C203.287 50.2749 202.968 50.8223 202.553 51.3013C202.444 51.4317 202.345 51.5407 202.215 51.6617C201.815 52.0459 201.587 52.5056 201.476 53.0432C201.343 53.7489 201.124 54.4168 200.789 55.059C200.567 55.4452 200.302 55.8126 199.95 56.0903C199.437 56.5007 198.895 56.5159 198.301 56.3039C197.154 55.8988 196.192 55.1927 195.477 54.214C195.131 53.7293 194.855 53.1995 194.54 52.703C194.483 52.6013 194.48 52.5492 194.57 52.4614C194.778 52.222 194.964 51.9731 195.172 51.7336C195.317 51.9251 195.471 52.0952 195.616 52.2867C196.048 52.8091 196.458 53.3221 196.899 53.8232C196.999 53.9437 197.129 54.0524 197.26 54.161C197.293 54.2012 197.345 54.1988 197.388 54.2176C197.409 54.227 197.419 54.2057 197.449 54.1938Z" fill="#163C5A"/>
<path d="M191.393 48.4059C190.436 48.0336 189.576 47.5001 188.63 47.1586C188.621 47.1799 188.612 47.2012 188.602 47.2225C188.657 47.2721 188.711 47.3218 188.797 47.3595C189.214 47.5694 189.609 47.7699 190.026 47.9799C190.443 48.1898 190.882 48.4092 191.32 48.6285C191.256 48.8299 191.181 49.0005 191.127 49.1805C190.698 49.1694 190.27 49.1583 189.872 49.1354C189.474 49.1124 189.055 49.08 188.636 49.0477C188.627 49.069 188.617 49.0903 188.62 49.1424C188.705 49.1801 188.781 49.2391 188.854 49.2461C189.16 49.3047 189.475 49.3421 189.768 49.3699C190.187 49.4023 190.607 49.4347 191.026 49.4671C190.99 49.6045 190.965 49.7205 190.939 49.8365C190.908 50.0781 190.89 50.3503 190.881 50.6013C190.874 50.6747 190.876 50.7268 190.784 50.7624C189.668 51.2119 188.534 51.5264 187.327 51.6043C186.828 51.6384 186.335 51.599 185.913 51.2849C185.567 51.0299 185.332 50.6965 185.23 50.2943C185.029 49.5939 185.08 48.9026 185.321 48.244C185.382 47.9906 185.483 47.704 185.627 47.4362C185.978 46.6994 186.192 45.9272 186.437 45.1432C186.755 44.1365 187.17 43.1984 187.895 42.4229C188.084 42.2261 188.306 42.0695 188.529 41.9128C189.096 41.552 189.593 41.4659 190.361 42.035C190.816 42.3893 191.151 42.8432 191.415 43.3422C191.951 44.3189 192.457 45.3075 192.985 46.3056C192.997 46.3363 193.03 46.3765 193.009 46.3671C192.602 46.8247 192.205 47.261 191.818 47.676C191.543 47.3758 191.256 47.0449 190.947 46.7046C190.772 46.525 190.596 46.3454 190.442 46.1752C190.388 46.1256 190.354 46.0854 190.29 46.0571C190.226 46.0289 190.132 46.0125 190.058 46.0055C190.082 46.067 190.087 46.1711 190.12 46.2113C190.585 46.7739 191.072 47.3459 191.527 47.9298C191.56 47.97 191.553 48.0434 191.544 48.0647C191.527 48.1594 191.45 48.2779 191.393 48.4059Z" fill="#163C5A"/>
<path d="M195.524 50.1311C195.244 50.8229 194.899 51.4863 194.384 52.0744C194.285 52.1834 194.183 52.2404 194.027 52.2478C193.061 52.3561 192.263 52.0285 191.566 51.4142C191.251 51.1473 191.12 50.809 191.183 50.3781C191.33 49.2959 191.733 48.327 192.477 47.5089C192.667 47.3121 192.834 47.1058 193.023 46.909C193.302 46.6244 193.64 46.4936 194.05 46.5473C194.9 46.6429 195.557 47.0607 196.088 47.7036C196.188 47.8242 196.235 47.9472 196.2 48.0846C196.085 48.518 195.969 48.9514 195.833 49.3754C195.762 49.6501 195.628 49.8966 195.524 50.1311Z" fill="#163C5A"/>
<g clip-path="url(#clip5)">
<path d="M217 37.7947C217.101 38.4629 218.782 40.731 219.673 41.1967C219.714 41.217 219.754 41.2372 219.795 41.2575C219.795 41.2575 219.795 41.2575 219.795 41.2777C219.795 41.298 219.795 41.298 219.795 41.3182C219.855 41.6625 219.936 42.1282 220.017 42.675C220.058 42.8572 220.078 43.0192 220.119 43.2217C220.179 43.5457 220.24 43.8697 220.301 44.2342C220.321 44.376 220.362 44.538 220.382 44.7C220.422 44.943 220.463 45.2062 220.524 45.4695C220.524 45.51 220.544 45.5505 220.544 45.591C220.584 45.7733 220.605 45.9555 220.645 46.158C220.767 46.8465 220.908 47.5553 221.03 48.2843C221.07 48.4868 221.111 48.669 221.131 48.8715C221.172 49.1145 221.232 49.3575 221.273 49.5803C221.313 49.803 221.354 50.0055 221.394 50.2283C221.496 50.775 221.617 51.3421 221.718 51.8686C221.739 51.9901 221.759 52.0913 221.799 52.2128C221.82 52.2938 221.84 52.3748 221.86 52.4558C221.88 52.5976 221.921 52.7393 221.941 52.8608C222.083 53.5696 222.245 54.2378 222.387 54.8453C222.407 54.9061 222.407 54.9668 222.427 55.0276C222.549 55.5541 222.69 56.0401 222.792 56.4654C222.812 56.5464 222.832 56.6071 222.852 56.6881C222.913 56.9109 222.974 57.0931 223.035 57.2754C223.156 57.6399 223.257 57.9031 223.359 58.0651C223.399 58.1461 223.44 58.2069 223.5 58.2271C223.683 58.3689 223.966 58.5309 224.351 58.7334C224.472 58.8144 224.614 58.8751 224.756 58.9561C225.08 59.1181 225.424 59.2801 225.789 59.4624C225.87 59.5029 225.951 59.5434 226.032 59.5839C226.153 59.6446 226.295 59.7054 226.416 59.7661C226.68 59.8876 226.963 60.0091 227.226 60.1104C227.692 60.2926 228.158 60.4749 228.583 60.6166C228.684 60.6571 228.786 60.6774 228.887 60.7179C229.454 60.9001 229.92 60.9811 230.203 60.9406C230.325 60.9204 230.406 60.8596 230.466 60.7989C230.507 60.7584 230.547 60.6976 230.588 60.6166C231.114 59.8471 231.56 59.1181 231.945 58.4296C232.35 57.7209 232.674 57.0526 232.917 56.4654C233.301 55.5136 233.484 54.7441 233.443 54.1163C233.443 54.0961 233.443 54.0758 233.443 54.0556C233.443 54.0353 233.443 53.9948 233.423 53.9746C233.362 53.6708 233.16 53.2253 232.856 52.6583C232.795 52.4356 232.674 52.2331 232.552 52.0103C232.552 52.0103 232.552 51.9901 232.532 51.9901C232.491 51.9496 232.471 51.8888 232.431 51.8483C232.147 51.4028 231.823 50.8966 231.459 50.37C231.216 50.0258 230.973 49.6613 230.689 49.2765C230.669 49.236 230.649 49.2158 230.628 49.1753C230.507 49.0133 230.385 48.831 230.244 48.6488C230.122 48.4868 230.021 48.345 229.899 48.183C229.839 48.102 229.778 48.021 229.717 47.94C229.373 47.454 229.008 46.9883 228.644 46.5023C228.543 46.3605 228.421 46.1985 228.32 46.0568C228.279 45.996 228.239 45.9555 228.198 45.8948C228.117 45.7733 228.016 45.672 227.935 45.5505C227.793 45.3682 227.652 45.1657 227.51 44.9835C227.024 44.3355 226.538 43.7077 226.072 43.1205C226.052 43.1002 226.032 43.08 226.032 43.0597C225.91 42.918 225.809 42.756 225.687 42.6142C225.627 42.5535 225.586 42.4927 225.546 42.432C225.384 42.2295 225.222 42.027 225.06 41.8245C224.918 41.6625 224.796 41.4802 224.655 41.3385C224.472 41.0955 224.29 40.893 224.128 40.6702C223.986 40.488 223.865 40.3259 223.743 40.1842C223.5 39.9007 223.318 39.6577 223.156 39.4754C223.44 38.7869 223.379 36.5999 222.792 35.5874C222.609 35.2634 222.387 35.0811 222.144 35.0204C222.123 35.0204 222.103 35.0204 222.063 35.0204C221.86 35.0001 221.516 35.0609 221.131 35.2027C220.281 35.4659 219.147 36.0127 218.296 36.5594C217.851 36.8227 217.486 37.1062 217.263 37.3289C217.061 37.5112 216.98 37.6732 217 37.7947Z" fill="#6EA4B7"/>
<path d="M219.369 41.2173C219.369 41.2173 219.369 41.1971 219.369 41.2173C219.369 41.1971 219.349 41.1971 219.369 41.2173Z" fill="#6EA4B7"/>
<path opacity="0.25" d="M221.131 35.1823C221.172 35.6886 221.212 36.2151 221.273 36.7213C221.334 37.2883 221.354 37.8553 221.921 38.1186C222.042 38.1793 222.225 38.1186 222.326 38.0376C222.792 37.6326 222.589 37.0048 222.468 36.4783C222.366 35.9923 222.265 35.5063 222.144 35.0406C222.123 35.0406 222.103 35.0406 222.063 35.0203C221.86 34.9798 221.536 35.0608 221.131 35.1823Z" fill="white"/>
<path opacity="0.54" d="M222.164 43.3227C223.156 42.8367 224.108 42.3305 225.06 41.8242C225.222 42.0267 225.384 42.2292 225.546 42.4317C225.586 42.4925 225.647 42.5532 225.687 42.614C225.809 42.7557 225.91 42.8975 226.032 43.0595C225.06 43.5455 224.088 43.991 223.136 44.4365C222.285 44.8212 221.435 45.206 220.584 45.5503C220.584 45.5098 220.564 45.4693 220.564 45.4288C220.503 45.1655 220.463 44.9225 220.422 44.6592C220.402 44.4972 220.362 44.3555 220.341 44.1935C220.929 43.9302 221.556 43.6265 222.164 43.3227ZM226.761 47.5348C227.429 47.1703 228.057 46.8463 228.664 46.502C229.029 46.988 229.393 47.474 229.737 47.9398C228.968 48.3448 228.219 48.7295 227.449 49.1143C225.546 50.066 223.642 50.9773 221.759 51.8076C221.637 51.2608 221.536 50.7141 221.435 50.1673C223.197 49.3573 224.979 48.4663 226.761 47.5348ZM226.983 57.4979C228.441 56.7689 229.899 55.9994 231.337 55.1893C231.398 55.1488 231.519 55.0881 231.58 55.0476C231.762 54.9463 231.965 54.8248 232.147 54.7236C232.491 54.5211 232.836 54.3186 233.18 54.0958C233.281 54.0351 233.362 53.9743 233.463 53.9136C233.463 53.9338 233.463 53.9743 233.484 53.9946C233.484 54.0148 233.484 54.0351 233.484 54.0553C233.524 54.6628 233.362 55.4526 232.957 56.4044C232.41 56.6676 231.884 56.9309 231.378 57.1941C229.697 58.0244 228.016 58.7534 226.376 59.4216C226.275 59.4621 226.173 59.5026 226.092 59.5431C226.011 59.5026 225.93 59.4621 225.849 59.4216C225.485 59.2596 225.141 59.0774 224.817 58.9154C224.675 58.8344 224.533 58.7736 224.412 58.6926C225.262 58.3281 226.133 57.9231 226.983 57.4979ZM224.088 54.2376C225.687 53.4681 227.307 52.6176 228.907 51.7671C229.737 51.3216 230.547 50.8761 231.378 50.4103C231.418 50.3901 231.438 50.3698 231.479 50.3496C231.843 50.8761 232.167 51.3823 232.451 51.8278C231.519 52.3341 230.588 52.8403 229.656 53.3061C227.388 54.4603 225.1 55.5134 222.852 56.4246C222.731 55.9994 222.609 55.5134 222.488 54.9868C223.014 54.7438 223.561 54.5008 224.088 54.2376Z" fill="#163C5A"/>
</g>
<g clip-path="url(#clip6)">
<path d="M229.106 27.8527C229.148 27.8793 228.93 28.0394 228.472 28.1094C228.057 28.206 227.375 28.255 226.629 28.0272C225.883 27.7994 225.03 27.2682 224.485 26.3369C223.94 25.4057 223.805 24.1969 224.048 23.046C224.17 22.4705 224.361 21.879 224.722 21.3937C224.882 21.1378 225.153 20.8923 225.397 20.6895C225.642 20.4867 225.972 20.337 226.276 20.23C226.925 20.0425 227.665 20.0892 228.236 20.5038C228.849 20.9448 229.096 21.6901 229.033 22.3614C229.001 22.697 228.858 23.0221 228.603 23.3368C228.374 23.6088 228.044 23.7585 227.698 23.8389C227.033 23.9572 226.484 23.793 226.057 23.5274C225.647 23.331 225.289 23.0493 225.044 22.778C224.799 22.5068 224.569 22.3047 224.409 22.0866C223.742 21.2568 223.25 20.2403 223.068 19.2978C222.885 18.3553 222.969 17.4604 223.213 16.7835C223.456 16.1067 223.818 15.6214 224.116 15.3333C224.43 15.1144 224.637 15.0661 224.68 15.0927C224.824 15.2416 224.271 15.8444 224.044 17.0645C223.965 17.6665 223.945 18.3643 224.165 19.1522C224.342 19.9136 224.785 20.7225 225.351 21.4299C225.468 21.6215 225.698 21.8235 225.9 22.0682C226.13 22.2702 226.359 22.4723 226.658 22.6582C227.255 23.0301 227.894 22.9544 227.973 22.3524C228.047 22.0434 227.881 21.6442 227.625 21.4848C227.353 21.2562 226.906 21.2143 226.49 21.3109C226.075 21.4075 225.692 21.6424 225.426 22.069C225.145 22.4263 224.964 22.906 224.827 23.4122C224.578 24.382 224.638 25.4259 224.996 26.1816C225.397 26.964 226.069 27.5008 226.746 27.7447C227.396 28.0313 227.982 28.041 228.414 28.0136C228.855 27.8744 229.063 27.8262 229.106 27.8527Z" fill="#00626B"/>
</g>
<g clip-path="url(#clip7)">
<path d="M213.105 59.6199C213.105 59.079 213.132 58.5381 213.159 57.9971C213.159 57.6726 213.159 57.3751 213.159 57.0505C213.159 56.9423 213.132 56.8071 213.295 56.753C213.484 56.6989 213.538 56.8612 213.592 56.9423C213.971 57.6455 214.322 58.3488 214.674 59.052C214.701 59.1061 214.728 59.1601 214.755 59.2413C215.08 59.1601 215.404 59.079 215.729 58.9979C216.053 58.9167 216.405 58.8626 216.73 58.7815C216.892 58.7544 217 58.8356 217 58.9708C217 59.079 216.946 59.1601 216.892 59.2683C216.675 59.6199 216.459 59.9986 216.189 60.3502C216.026 60.5666 215.999 60.7559 216.135 60.9723C216.351 61.3509 216.54 61.7296 216.73 62.0812C216.784 62.2164 216.838 62.3246 216.865 62.4598C216.919 62.7303 216.73 62.8385 216.432 62.7573C216.297 62.7303 216.189 62.6492 216.053 62.5951C215.594 62.3787 215.134 62.1623 214.674 61.9459C214.349 61.8107 214.322 61.8107 214.079 62.0541C213.7 62.4057 213.295 62.7573 212.916 63.136C212.889 63.163 212.862 63.2171 212.808 63.2442C212.7 63.2712 212.564 63.3524 212.483 63.2983C212.402 63.2712 212.321 63.136 212.348 63.0278C212.375 62.7844 212.429 62.568 212.483 62.3246C212.537 61.9459 212.591 61.5673 212.646 61.1886C212.673 60.9993 212.591 60.8911 212.375 60.81C211.969 60.6477 211.591 60.4584 211.185 60.2691C211.05 60.215 210.969 60.1338 210.996 59.9715C211.023 59.8363 211.158 59.8093 211.293 59.8093C211.888 59.7822 212.483 59.7011 213.105 59.6199Z" fill="#FFCA12"/>
</g>
<g clip-path="url(#clip8)">
<path d="M215.042 16C214.394 15.9718 214 15.6338 214 15.0704C214 14.4789 214.479 14 215.042 14C215.634 14 216.085 14.4225 216.085 14.9859C216.056 15.5775 215.634 16 215.042 16Z" fill="#00626B"/>
</g>
<g clip-path="url(#clip9)">
<path d="M239.409 31C238.437 30.9577 237.846 30.4507 237.846 29.6056C237.846 28.7183 238.564 28 239.409 28C240.296 28 240.972 28.6338 240.972 29.4789C240.93 30.3662 240.296 31 239.409 31Z" fill="#00626B"/>
</g>
<g clip-path="url(#clip10)">
<path d="M259.563 82C258.592 81.9577 258 81.4507 258 80.6056C258 79.7183 258.718 79 259.563 79C260.451 79 261.127 79.6338 261.127 80.4789C261.085 81.3662 260.451 82 259.563 82Z" fill="#00626B"/>
</g>
<path d="M259.711 94.2163C259.75 94.2238 259.634 94.4032 259.317 94.5836C259.038 94.7717 258.55 94.9997 257.936 95.0421C257.323 95.0844 256.545 94.9334 255.882 94.4012C255.219 93.8689 254.779 93.0169 254.634 92.101C254.561 91.6431 254.535 91.1538 254.664 90.6947C254.71 90.4614 254.84 90.2043 254.963 89.9861C255.086 89.7678 255.287 89.5647 255.481 89.4005C255.906 89.0796 256.464 88.9055 257.001 89.05C257.577 89.2021 257.968 89.6816 258.111 90.1935C258.182 90.4494 258.168 90.7292 258.069 91.0327C257.977 91.2974 257.776 91.5005 257.544 91.6572C257.087 91.9317 256.637 91.9653 256.248 91.8898C255.891 91.8608 255.548 91.754 255.291 91.6234C255.034 91.4928 254.808 91.4086 254.629 91.2931C253.904 90.8699 253.256 90.2599 252.856 89.6174C252.456 88.9749 252.266 88.2923 252.255 87.7253C252.244 87.1582 252.373 86.6991 252.511 86.4031C252.681 86.1536 252.82 86.0596 252.859 86.0671C253.007 86.1362 252.77 86.7357 252.946 87.698C253.057 88.1635 253.239 88.683 253.623 89.2013C253.967 89.7121 254.522 90.1828 255.137 90.5444C255.278 90.6524 255.504 90.7366 255.722 90.8596C255.948 90.9438 256.173 91.028 256.446 91.0808C256.99 91.1865 257.439 90.9508 257.328 90.4854C257.295 90.2369 257.061 89.9897 256.828 89.9444C256.563 89.8527 256.222 89.9478 255.943 90.1359C255.664 90.3239 255.449 90.6048 255.373 90.9937C255.266 91.3361 255.269 91.74 255.31 92.1515C255.4 92.9357 255.738 93.6873 256.214 94.1429C256.73 94.6061 257.376 94.8122 257.943 94.8012C258.502 94.8291 258.936 94.6713 259.246 94.5297C259.533 94.3027 259.672 94.2087 259.711 94.2163Z" fill="#00626B"/>
<g clip-path="url(#clip11)">
<path d="M172.493 58.1339C172.53 58.2459 172.568 58.358 172.53 58.47C172.381 59.1611 172.176 59.74 171.877 60.375C171.41 61.3462 171.223 61.6076 170.588 62.4854C170.495 62.6348 170.364 62.7656 170.233 62.8963C170.196 62.9523 170.121 62.971 170.065 62.9523C169.972 62.9337 169.934 62.8216 169.916 62.7469C169.729 62.0932 169.505 61.4396 169.243 60.8232C168.777 59.74 167.731 58.5074 167.058 57.5362C164.817 54.2866 164.444 53.8944 161.474 51.2984C161.941 51.205 162.296 50.8688 162.669 50.5887C163.024 50.3272 163.435 50.1405 163.771 49.879C163.827 49.8416 163.883 49.7856 163.939 49.7856C164.276 49.7296 165.023 50.3833 165.321 50.57C165.844 50.9062 166.349 51.2424 166.853 51.6159C167.824 52.3256 167.824 52.3069 168.683 53.1473C169.617 54.0438 169.486 53.8757 170.289 54.9029C170.719 55.4632 171.13 56.0608 171.522 56.6398C171.727 56.9573 171.933 57.2748 172.138 57.5736C172.213 57.723 172.4 57.9284 172.493 58.1339Z" fill="#FF9C19"/>
<path d="M164.836 56.7142C164.612 55.4629 164.238 54.249 163.827 53.0537C163.566 52.288 163.286 51.5223 162.95 50.7752C162.856 50.5884 162.781 50.4017 162.688 50.2336C162.632 50.1029 162.595 49.9908 162.445 49.9535C162.296 49.9348 161.96 50.1215 161.81 50.1776C161.381 50.327 160.708 50.4204 160.372 50.7192C160.055 50.9806 160.26 51.6717 160.298 52.0265C160.41 53.1844 160.578 54.3424 160.615 55.5003C160.652 56.6022 160.634 57.7227 160.615 58.8246C160.596 59.2168 160.634 59.609 160.596 60.0012C160.503 61.1031 160.671 60.4868 160.372 61.514C160.055 62.5412 160.129 62.2611 159.887 62.9334C159.719 63.4377 160.951 63.2509 161.175 63.2135C162.539 63.0268 163.939 62.8213 165.228 62.3918C165.303 62.3731 165.359 62.3544 165.415 62.2797C165.433 62.2424 165.452 62.2237 165.452 62.1864C165.209 59.1421 165.377 59.609 164.836 56.7142Z" fill="#FFAB19"/>
<path d="M159.55 29.6162C159.532 29.3547 159.457 29.1119 159.289 29.0746C159.214 29.0559 159.121 29.0559 159.046 29.0746C158.803 29.0932 158.561 29.1119 158.336 29.1493C158.206 29.1679 158.075 29.1866 157.963 29.2426C157.701 29.3547 157.72 29.5601 157.739 29.7469C157.813 30.2885 157.888 30.8488 157.963 31.3904C158.038 31.876 158.15 33.9117 159.289 33.5568C159.644 33.4448 159.588 33.0713 159.606 32.8471C159.625 32.4363 159.644 32.0254 159.644 31.6145C159.644 31.1476 159.606 30.6807 159.569 30.2138C159.55 30.1204 159.569 29.859 159.55 29.6162Z" fill="#163C5A"/>
<path d="M160.839 31.2033C160.764 31.7449 160.708 32.2865 160.634 32.8281C160.578 33.2577 160.428 33.8366 159.887 33.5565C159.812 33.5191 159.756 33.4818 159.7 33.4071C159.662 33.3511 159.662 33.2764 159.644 33.2017C159.569 32.5293 159.532 31.8383 159.513 31.1659C159.494 30.587 159.457 30.008 159.438 29.4291C159.438 29.3544 159.438 29.261 159.476 29.1863C159.55 29.0555 159.718 29.0182 159.868 29.0182C160.204 29.0182 160.764 28.9248 160.951 29.2983C161.045 29.5038 161.026 29.7466 160.988 29.9893C160.932 30.3815 160.876 30.7924 160.839 31.2033Z" fill="#64B8DA"/>
<path d="M162.016 29.056C161.661 29.0186 161.194 29.056 161.007 29.2427C160.82 29.4108 160.895 29.7283 160.858 29.9711C160.802 30.326 160.764 30.6995 160.708 31.0543C160.615 31.7827 160.54 32.5111 160.484 33.2208C160.484 33.3142 160.466 33.4262 160.522 33.5009C160.634 33.7064 160.876 33.725 161.082 33.6503C161.642 33.4822 161.922 32.2496 162.09 31.764C162.24 31.3345 162.37 30.8863 162.464 30.438C162.52 30.0458 162.875 29.3175 162.314 29.112C162.24 29.0933 162.128 29.056 162.016 29.056Z" fill="#163C5A"/>
<path d="M164.201 29.971C164.201 29.9523 164.182 29.9337 164.182 29.915C164.163 29.8776 164.126 29.859 164.089 29.8403C163.846 29.6909 163.584 29.5601 163.323 29.4294C163.248 29.3734 163.155 29.336 163.061 29.336C162.893 29.3174 162.744 29.4294 162.651 29.5601C162.483 29.7843 162.37 30.1204 162.277 30.3819C162.109 30.8675 161.978 31.3717 161.848 31.876C161.735 32.3616 161.53 32.8285 161.437 33.3141C161.418 33.3888 161.399 33.4635 161.455 33.5382C161.474 33.5755 161.53 33.6129 161.567 33.6315C161.754 33.7249 161.941 33.7996 162.146 33.837C162.202 33.8557 162.258 33.8557 162.296 33.837C162.333 33.8183 162.37 33.7996 162.389 33.7623C162.613 33.5195 162.763 33.2207 162.912 32.9405C163.211 32.3429 163.51 31.7453 163.809 31.1289C163.977 30.7741 164.145 30.4192 164.201 30.0457C164.201 30.027 164.201 29.9897 164.201 29.971Z" fill="#64B8DA"/>
<path d="M165.172 31.0168C165.284 30.774 165.359 30.5499 165.265 30.4378C165.209 30.3818 165.153 30.3444 165.079 30.3257C164.892 30.2324 164.705 30.139 164.518 30.0643C164.406 30.0269 164.313 29.9896 164.201 29.9896C163.958 29.9709 163.865 30.1577 163.79 30.3444C163.566 30.8487 163.342 31.3529 163.118 31.8572C162.912 32.3054 161.978 34.117 162.987 34.3224C163.304 34.3972 163.454 34.0423 163.584 33.8555C163.809 33.5194 164.033 33.1645 164.238 32.8097C164.481 32.3988 164.686 31.9879 164.892 31.5771C164.91 31.4463 165.06 31.2409 165.172 31.0168Z" fill="#163C5A"/>
<path d="M165.452 33.0334C165.116 33.4629 164.78 33.8925 164.425 34.322C164.163 34.6582 163.715 35.0878 163.416 34.5648C163.379 34.4901 163.342 34.4154 163.342 34.3407C163.342 34.266 163.379 34.1913 163.398 34.1353C163.678 33.519 164.014 32.9213 164.35 32.3237C164.63 31.8194 164.91 31.3152 165.191 30.8109C165.228 30.7362 165.265 30.6615 165.34 30.6241C165.471 30.5494 165.639 30.6055 165.77 30.6802C166.068 30.8483 166.591 31.0537 166.554 31.4646C166.535 31.6887 166.386 31.8941 166.236 32.0809C165.975 32.3984 165.714 32.7159 165.452 33.0334Z" fill="#64B8DA"/>
<path d="M167.581 31.8014C167.301 31.5773 166.89 31.3905 166.61 31.4466C166.367 31.5026 166.255 31.8014 166.106 32.0068C165.882 32.287 165.639 32.5671 165.415 32.866C164.966 33.4449 164.518 34.0239 164.089 34.6028C164.033 34.6775 163.977 34.7709 163.958 34.8643C163.939 35.1071 164.145 35.2378 164.35 35.2939C164.91 35.4246 165.788 34.5281 166.18 34.192C166.535 33.8931 166.871 33.5756 167.189 33.2395C167.469 32.9407 168.141 32.4924 167.768 32.0442C167.749 31.9508 167.675 31.8761 167.581 31.8014Z" fill="#163C5A"/>
<path d="M168.982 33.725C168.982 33.7063 169.001 33.6876 169.001 33.669C169.001 33.6316 168.982 33.5943 168.963 33.5569C168.833 33.2954 168.683 33.0527 168.534 32.8099C168.478 32.7352 168.422 32.6605 168.347 32.6044C168.216 32.511 168.029 32.5297 167.88 32.5858C167.619 32.6978 167.357 32.9219 167.133 33.09C166.741 33.4262 166.367 33.781 165.994 34.1546C165.639 34.5094 165.228 34.8082 164.892 35.1817C164.836 35.2378 164.78 35.2938 164.78 35.3872C164.78 35.4432 164.798 35.4806 164.836 35.5366C164.948 35.7047 165.079 35.8728 165.228 36.0222C165.265 36.0595 165.303 36.0969 165.359 36.1156C165.396 36.1156 165.433 36.1156 165.471 36.0969C165.788 36.0035 166.068 35.8354 166.349 35.6486C166.909 35.2938 167.469 34.9203 168.048 34.5654C168.366 34.36 168.702 34.1359 168.945 33.8371C168.945 33.781 168.963 33.7437 168.982 33.725Z" fill="#64B8DA"/>
<path d="M169.355 34.7141C169.561 34.546 169.729 34.378 169.692 34.2285C169.673 34.1538 169.636 34.0978 169.58 34.0418C169.449 33.8737 169.318 33.7056 169.187 33.5562C169.113 33.4815 169.038 33.3881 168.945 33.3321C168.739 33.22 168.571 33.3321 168.422 33.4628C167.992 33.8177 167.562 34.1725 167.133 34.5274C166.759 34.8449 165.116 36.0401 165.919 36.6751C166.18 36.8806 166.461 36.6378 166.647 36.5257C167.002 36.3203 167.357 36.0962 167.693 35.8721C168.085 35.6106 168.459 35.3491 168.832 35.0503C168.926 35.0129 169.15 34.8635 169.355 34.7141Z" fill="#163C5A"/>
<path d="M168.702 36.6568C168.198 36.8809 167.712 37.1237 167.208 37.3478C166.816 37.5345 166.237 37.7213 166.199 37.105C166.199 37.0303 166.199 36.9369 166.237 36.8809C166.274 36.8248 166.33 36.7688 166.386 36.7315C166.928 36.3019 167.469 35.9097 168.048 35.5362C168.534 35.2187 169.001 34.8825 169.468 34.5463C169.542 34.509 169.598 34.453 169.692 34.453C169.841 34.4343 169.972 34.565 170.047 34.6958C170.233 34.9759 170.607 35.4054 170.383 35.7603C170.252 35.9471 170.047 36.0591 169.822 36.1712C169.449 36.3206 169.075 36.4887 168.702 36.6568Z" fill="#64B8DA"/>
<path d="M171.148 36.5069C170.999 36.1894 170.719 35.8159 170.439 35.7598C170.196 35.7038 169.972 35.9279 169.748 36.0213C169.411 36.1707 169.094 36.3201 168.758 36.4882C168.104 36.8057 167.45 37.1232 166.797 37.4594C166.703 37.4967 166.629 37.5528 166.573 37.6275C166.461 37.8329 166.573 38.0383 166.741 38.1877C167.17 38.5613 168.384 38.1504 168.87 38.0197C169.318 37.9076 169.766 37.7769 170.196 37.6088C170.569 37.4594 171.391 37.366 171.26 36.787C171.242 36.7123 171.204 36.6189 171.148 36.5069Z" fill="#163C5A"/>
<path d="M171.559 38.8417C171.578 38.8231 171.578 38.8044 171.597 38.8044C171.615 38.767 171.615 38.7297 171.615 38.6923C171.615 38.4122 171.597 38.1134 171.559 37.8332C171.541 37.7399 171.541 37.6465 171.484 37.5718C171.41 37.4224 171.223 37.3477 171.074 37.3477C170.793 37.329 170.457 37.4037 170.177 37.4597C169.673 37.5718 169.187 37.7399 168.683 37.9079C168.216 38.076 167.712 38.1507 167.245 38.3375C167.17 38.3562 167.096 38.3935 167.058 38.4682C167.04 38.5056 167.04 38.5616 167.04 38.6176C167.058 38.8231 167.096 39.0285 167.17 39.2153C167.189 39.2713 167.208 39.3087 167.245 39.346C167.282 39.3647 167.32 39.3834 167.357 39.3834C167.675 39.4394 168.011 39.4207 168.328 39.3834C169.001 39.3087 169.654 39.2339 170.327 39.1592C170.719 39.1219 171.111 39.0659 171.466 38.9165C171.503 38.8791 171.522 38.8604 171.559 38.8417Z" fill="#64B8DA"/>
<path d="M171.186 40.2241C171.447 40.1868 171.69 40.1307 171.727 39.9813C171.746 39.9066 171.746 39.8319 171.727 39.7572C171.709 39.5518 171.671 39.3463 171.634 39.1409C171.615 39.0288 171.597 38.9168 171.541 38.8234C171.429 38.618 171.204 38.6366 171.018 38.6553C170.476 38.73 169.916 38.8234 169.374 38.8981C168.889 38.9728 166.853 39.1409 167.226 40.1121C167.338 40.4109 167.712 40.3548 167.936 40.3548C168.347 40.3548 168.758 40.3548 169.169 40.3362C169.636 40.3175 170.103 40.2801 170.569 40.2241C170.681 40.2428 170.943 40.2428 171.186 40.2241Z" fill="#163C5A"/>
<path d="M169.635 41.55C169.094 41.494 168.552 41.438 167.992 41.382C167.562 41.3446 166.965 41.1952 167.245 40.6536C167.282 40.5789 167.32 40.5228 167.394 40.4668C167.45 40.4295 167.525 40.4108 167.6 40.4108C168.272 40.3174 168.963 40.2614 169.635 40.2427C170.214 40.2054 170.793 40.168 171.372 40.1306C171.447 40.1306 171.54 40.112 171.615 40.1493C171.746 40.224 171.783 40.3921 171.783 40.5415C171.802 40.8777 171.895 41.438 171.54 41.6247C171.335 41.7368 171.092 41.6994 170.849 41.6808C170.457 41.6434 170.046 41.6061 169.635 41.55Z" fill="#64B8DA"/>
<path d="M171.821 42.6901C171.858 42.3352 171.802 41.8683 171.615 41.6816C171.428 41.4948 171.13 41.5882 170.887 41.5508C170.532 41.5135 170.158 41.4761 169.804 41.4388C169.075 41.3641 168.347 41.308 167.619 41.252C167.525 41.252 167.413 41.2333 167.338 41.2894C167.133 41.4014 167.133 41.6442 167.189 41.8497C167.376 42.3913 168.608 42.6527 169.113 42.8208C169.561 42.9515 169.99 43.0636 170.457 43.157C170.849 43.2317 171.597 43.5679 171.783 43.0076C171.783 42.9142 171.802 42.8021 171.821 42.6901Z" fill="#163C5A"/>
<path d="M170.943 44.893C170.962 44.893 170.98 44.8744 170.999 44.8744C171.036 44.8557 171.055 44.8183 171.074 44.781C171.223 44.5382 171.354 44.2767 171.466 44.0153C171.503 43.9219 171.54 43.8472 171.54 43.7538C171.54 43.5857 171.428 43.4363 171.298 43.3429C171.055 43.1935 170.737 43.0628 170.476 42.9881C169.99 42.82 169.486 42.7079 168.963 42.5959C168.478 42.4838 168.011 42.2971 167.506 42.2037C167.432 42.185 167.338 42.185 167.282 42.2224C167.245 42.2597 167.208 42.2971 167.189 42.3531C167.096 42.5398 167.04 42.7266 166.983 42.932C166.965 42.9881 166.965 43.0441 166.983 43.0815C167.002 43.1188 167.021 43.1562 167.058 43.1748C167.301 43.3989 167.6 43.5297 167.899 43.6791C168.515 43.9592 169.113 44.2394 169.729 44.5195C170.084 44.6876 170.439 44.8557 170.831 44.893C170.887 44.893 170.924 44.893 170.943 44.893Z" fill="#64B8DA"/>
<path d="M170.177 45.7144C170.42 45.7891 170.681 45.8265 170.756 45.6958C170.794 45.6397 170.831 45.565 170.85 45.4903C170.906 45.2849 170.962 45.0981 171.018 44.8927C171.036 44.7806 171.055 44.6686 171.055 44.5565C171.018 44.3137 170.831 44.2577 170.644 44.2017C170.102 44.0709 169.561 43.9215 169.038 43.7908C168.571 43.6787 166.629 43.0437 166.591 44.0709C166.573 44.3884 166.946 44.4818 167.152 44.5752C167.525 44.7433 167.917 44.8927 168.291 45.0421C168.72 45.2102 169.169 45.3596 169.617 45.4903C169.692 45.5464 169.934 45.6397 170.177 45.7144Z" fill="#163C5A"/>
<path d="M168.216 46.3314C167.731 46.0699 167.264 45.8085 166.778 45.547C166.405 45.3416 165.919 44.9867 166.386 44.5758C166.442 44.5198 166.517 44.4825 166.591 44.4638C166.666 44.4451 166.741 44.4638 166.815 44.4825C167.469 44.6692 168.123 44.8747 168.758 45.1175C169.299 45.3229 169.86 45.491 170.401 45.6777C170.476 45.6964 170.551 45.7338 170.607 45.7898C170.7 45.9019 170.663 46.0886 170.625 46.2194C170.513 46.5368 170.383 47.0971 169.972 47.1158C169.748 47.1345 169.523 47.0224 169.318 46.9104C168.944 46.7236 168.59 46.5368 168.216 46.3314Z" fill="#64B8DA"/>
<path d="M169.804 48.2177C169.972 47.9002 170.102 47.452 169.99 47.2092C169.897 46.9664 169.579 46.9291 169.355 46.7983C169.038 46.6116 168.72 46.4435 168.403 46.2754C167.768 45.9206 167.114 45.5844 166.461 45.2669C166.367 45.2295 166.274 45.1735 166.18 45.1922C165.938 45.2109 165.844 45.4537 165.826 45.6591C165.788 46.2381 166.815 46.9477 167.208 47.2839C167.562 47.5827 167.917 47.8629 168.31 48.1057C168.646 48.3298 169.206 48.9274 169.598 48.4792C169.673 48.4232 169.748 48.3298 169.804 48.2177Z" fill="#163C5A"/>
<path d="M168.142 49.9166C168.16 49.9166 168.179 49.9166 168.198 49.9166C168.235 49.9166 168.272 49.8792 168.291 49.8605C168.515 49.6924 168.739 49.5057 168.945 49.3002C169.019 49.2442 169.075 49.1695 169.113 49.0948C169.187 48.9454 169.15 48.7586 169.057 48.6279C168.907 48.3851 168.646 48.161 168.44 47.9742C168.048 47.6381 167.637 47.3392 167.208 47.0404C166.797 46.7603 166.442 46.4054 166.012 46.1253C165.956 46.0879 165.882 46.0319 165.807 46.0506C165.751 46.0693 165.714 46.0879 165.676 46.1253C165.527 46.256 165.377 46.4241 165.265 46.5922C165.228 46.6295 165.209 46.6856 165.209 46.7416C165.209 46.779 165.228 46.8163 165.247 46.8537C165.377 47.1525 165.602 47.3953 165.826 47.6381C166.274 48.1423 166.722 48.6279 167.17 49.1322C167.432 49.4123 167.693 49.7111 168.029 49.8979C168.085 49.8979 168.104 49.9166 168.142 49.9166Z" fill="#64B8DA"/>
<path d="M166.815 50.4403C166.984 50.6271 167.189 50.7951 167.32 50.7391C167.394 50.7204 167.45 50.6644 167.488 50.6084C167.637 50.4776 167.787 50.3282 167.936 50.1788C168.011 50.1041 168.085 50.0107 168.123 49.9174C168.216 49.6933 168.085 49.5438 167.955 49.3944C167.562 49.0022 167.17 48.61 166.778 48.2178C166.442 47.8817 165.097 46.3315 164.537 47.1906C164.35 47.4708 164.63 47.7323 164.761 47.919C165.004 48.2552 165.247 48.5914 165.489 48.9089C165.788 49.2824 166.087 49.6372 166.405 49.9734C166.498 50.0481 166.647 50.2535 166.815 50.4403Z" fill="#163C5A"/>
<path d="M164.817 49.9725C164.537 49.5056 164.275 49.02 163.995 48.5531C163.771 48.1796 163.547 47.6193 164.145 47.5259C164.219 47.5073 164.313 47.5073 164.369 47.5446C164.444 47.5633 164.481 47.6193 164.537 47.6753C165.004 48.1609 165.452 48.6839 165.882 49.2255C166.236 49.6737 166.629 50.1033 167.002 50.5515C167.058 50.6075 167.114 50.6822 167.114 50.7569C167.133 50.9063 167.021 51.0371 166.909 51.1304C166.647 51.3359 166.255 51.7468 165.882 51.56C165.676 51.4479 165.545 51.2425 165.433 51.0371C165.228 50.6822 165.023 50.3274 164.817 49.9725Z" fill="#64B8DA"/>
<path d="M165.191 52.3815C165.489 52.1947 165.844 51.8772 165.882 51.6157C165.919 51.3729 165.676 51.1488 165.545 50.9434C165.359 50.6259 165.191 50.3084 165.004 49.9909C164.63 49.3559 164.257 48.7396 163.865 48.1233C163.809 48.0486 163.752 47.9552 163.678 47.9179C163.472 47.8245 163.267 47.9552 163.136 48.1233C162.8 48.5902 163.323 49.7481 163.491 50.2337C163.64 50.6633 163.809 51.0928 164.014 51.5224C164.182 51.8959 164.35 52.699 164.91 52.5122C164.985 52.4935 165.097 52.4562 165.191 52.3815Z" fill="#163C5A"/>
<path d="M162.893 52.9984C162.912 53.017 162.931 53.017 162.949 53.0357C162.987 53.0544 163.024 53.0544 163.062 53.0357C163.342 52.9984 163.64 52.961 163.921 52.905C164.014 52.8863 164.107 52.8676 164.182 52.8116C164.313 52.7182 164.388 52.5315 164.369 52.3821C164.35 52.1019 164.257 51.7657 164.163 51.5043C163.995 51.0187 163.809 50.5331 163.584 50.0662C163.379 49.5993 163.248 49.1137 163.043 48.6655C163.006 48.5908 162.968 48.5161 162.893 48.4974C162.837 48.4787 162.8 48.4787 162.744 48.4974C162.539 48.5348 162.352 48.5908 162.146 48.6842C162.09 48.7028 162.053 48.7215 162.016 48.7775C161.997 48.8149 161.978 48.8523 161.978 48.8896C161.941 49.2071 162.016 49.5433 162.072 49.8608C162.202 50.5144 162.333 51.1681 162.464 51.8404C162.539 52.214 162.613 52.6062 162.8 52.9423C162.856 52.9423 162.875 52.9797 162.893 52.9984Z" fill="#64B8DA"/>
<path d="M161.829 52.9799C161.904 53.2227 161.997 53.4655 162.146 53.4655C162.221 53.4655 162.296 53.4468 162.352 53.4282C162.557 53.3721 162.744 53.3161 162.949 53.2414C163.062 53.204 163.155 53.1667 163.248 53.092C163.435 52.9426 163.379 52.7371 163.323 52.5504C163.155 52.0274 162.968 51.5045 162.8 50.9629C162.651 50.496 162.146 48.535 161.25 49.0393C160.97 49.2073 161.082 49.5622 161.119 49.7863C161.175 50.1972 161.25 50.6081 161.343 51.0003C161.437 51.4672 161.549 51.9154 161.68 52.3636C161.717 52.4757 161.754 52.7371 161.829 52.9799Z" fill="#163C5A"/>
<path d="M160.26 51.6537C160.223 51.1121 160.185 50.5518 160.148 50.0102C160.129 49.5807 160.167 48.983 160.746 49.1511C160.82 49.1698 160.895 49.2071 160.951 49.2632C161.007 49.3192 161.026 49.3939 161.044 49.4686C161.25 50.1223 161.418 50.7759 161.567 51.4483C161.698 52.0086 161.829 52.5689 161.978 53.1291C161.997 53.2039 162.016 53.2972 161.997 53.3719C161.96 53.5213 161.792 53.5774 161.642 53.6147C161.306 53.6894 160.783 53.8762 160.54 53.54C160.409 53.3533 160.391 53.1105 160.372 52.8677C160.316 52.4755 160.279 52.0646 160.26 51.6537Z" fill="#64B8DA"/>
<path d="M159.513 53.9878C159.868 53.9504 160.316 53.8384 160.466 53.6143C160.615 53.4088 160.484 53.11 160.466 52.8672C160.447 52.5124 160.428 52.1388 160.409 51.784C160.353 51.0556 160.297 50.3272 160.223 49.5989C160.204 49.5055 160.204 49.3934 160.148 49.3187C159.999 49.132 159.756 49.1693 159.569 49.2627C159.065 49.5428 159.009 50.7942 158.934 51.3171C158.878 51.7653 158.841 52.2322 158.822 52.6991C158.822 53.11 158.617 53.8944 159.196 53.9878C159.289 54.0065 159.401 54.0065 159.513 53.9878Z" fill="#163C5A"/>
<path d="M157.178 53.5215C157.178 53.5402 157.197 53.5588 157.216 53.5775C157.234 53.6149 157.272 53.6149 157.309 53.6335C157.589 53.7269 157.851 53.8203 158.131 53.895C158.224 53.9137 158.318 53.951 158.411 53.9324C158.579 53.9137 158.71 53.7829 158.766 53.6335C158.878 53.3721 158.934 53.0359 158.99 52.7558C159.065 52.2515 159.102 51.7286 159.121 51.2056C159.139 50.7014 159.252 50.2158 159.252 49.7115C159.252 49.6368 159.252 49.5434 159.195 49.4874C159.158 49.4501 159.102 49.4314 159.065 49.4127C158.859 49.3567 158.654 49.3193 158.448 49.3193C158.392 49.3193 158.336 49.3193 158.299 49.338C158.262 49.3567 158.243 49.394 158.224 49.4314C158.056 49.7115 157.963 50.029 157.869 50.3465C157.701 51.0002 157.515 51.6352 157.347 52.2888C157.253 52.6624 157.141 53.0359 157.16 53.4281C157.178 53.4468 157.178 53.4841 157.178 53.5215Z" fill="#64B8DA"/>
<path d="M156.039 52.6812C155.965 52.924 155.946 53.1854 156.058 53.2601C156.114 53.2975 156.189 53.3162 156.263 53.3348C156.469 53.3909 156.674 53.4469 156.88 53.4842C156.992 53.5029 157.104 53.5216 157.216 53.5029C157.459 53.4656 157.515 53.2601 157.552 53.0734C157.683 52.5318 157.795 51.9901 157.926 51.4485C158.038 50.9816 158.617 49.0206 157.589 49.002C157.272 49.002 157.179 49.3755 157.104 49.5809C156.954 49.9544 156.805 50.3466 156.656 50.7388C156.506 51.1871 156.357 51.6353 156.245 52.0835C156.189 52.1956 156.095 52.4384 156.039 52.6812Z" fill="#163C5A"/>
<path d="M155.367 50.7383C155.61 50.2528 155.871 49.7672 156.114 49.2816C156.319 48.9081 156.656 48.4038 157.066 48.852C157.122 48.9081 157.16 48.9828 157.178 49.0575C157.197 49.1322 157.178 49.2069 157.16 49.2816C156.992 49.9353 156.805 50.5889 156.581 51.2426C156.394 51.7842 156.226 52.3445 156.058 52.8861C156.039 52.9608 156.002 53.0355 155.946 53.0915C155.834 53.1849 155.666 53.1662 155.516 53.1102C155.199 52.9982 154.639 52.8861 154.601 52.4752C154.583 52.2511 154.695 52.027 154.788 51.8216C154.993 51.4667 155.18 51.0932 155.367 50.7383Z" fill="#64B8DA"/>
<path d="M153.518 52.3445C153.835 52.5125 154.284 52.6246 154.526 52.5125C154.769 52.4192 154.807 52.083 154.919 51.8776C155.087 51.5601 155.255 51.2426 155.423 50.9064C155.759 50.2527 156.077 49.5991 156.394 48.9454C156.431 48.852 156.469 48.7586 156.469 48.6653C156.431 48.4225 156.207 48.3291 156.002 48.3291C155.423 48.2917 154.732 49.3563 154.414 49.7671C154.134 50.122 153.854 50.4955 153.611 50.8877C153.387 51.2239 152.808 51.8029 153.256 52.1764C153.313 52.2324 153.406 52.3071 153.518 52.3445Z" fill="#163C5A"/>
<path d="M151.781 50.7392C151.781 50.7578 151.781 50.7765 151.781 50.7952C151.781 50.8325 151.818 50.8699 151.837 50.8886C152.024 51.1127 152.211 51.3368 152.416 51.5422C152.472 51.6169 152.547 51.673 152.64 51.7103C152.79 51.785 152.976 51.729 153.107 51.6356C153.331 51.4675 153.574 51.2061 153.742 51.0006C154.078 50.6084 154.358 50.1789 154.657 49.7493C154.937 49.3385 155.274 48.9649 155.554 48.5354C155.591 48.4793 155.628 48.4046 155.61 48.3299C155.591 48.2739 155.572 48.2366 155.535 48.1992C155.404 48.0498 155.236 47.9191 155.068 47.807C155.031 47.7697 154.975 47.751 154.919 47.751C154.881 47.751 154.844 47.7697 154.807 47.7883C154.508 47.9377 154.265 48.1619 154.041 48.386C153.555 48.8529 153.07 49.3198 152.584 49.768C152.304 50.0295 152.024 50.3096 151.837 50.6458C151.8 50.6831 151.781 50.7018 151.781 50.7392Z" fill="#64B8DA"/>
<path d="M151.277 49.7863C151.109 49.9918 150.978 50.1972 151.053 50.328C151.09 50.384 151.146 50.44 151.202 50.4774C151.37 50.6081 151.52 50.7388 151.706 50.8509C151.8 50.9069 151.893 50.9816 152.005 51.0003C152.229 51.0563 152.379 50.9069 152.491 50.7575C152.827 50.3093 153.163 49.8611 153.481 49.4315C153.779 49.0393 155.105 47.4892 154.172 47.0596C153.873 46.9289 153.649 47.2277 153.499 47.3771C153.201 47.6573 152.902 47.9561 152.622 48.2549C152.304 48.5911 151.987 48.9459 151.706 49.3194C151.613 49.4128 151.426 49.5809 151.277 49.7863Z" fill="#163C5A"/>
<path d="M151.445 47.7318C151.874 47.3956 152.304 47.0408 152.734 46.7046C153.07 46.4431 153.593 46.1257 153.779 46.7046C153.798 46.7793 153.817 46.854 153.798 46.9287C153.779 47.0034 153.742 47.0595 153.686 47.1155C153.275 47.6571 152.827 48.1614 152.36 48.6656C151.968 49.0952 151.594 49.5247 151.202 49.9543C151.146 50.0103 151.09 50.085 151.015 50.1037C150.866 50.1597 150.716 50.0477 150.604 49.9543C150.362 49.7302 149.895 49.394 150.025 49.0018C150.1 48.7777 150.287 48.6283 150.474 48.4789C150.81 48.2547 151.127 47.9933 151.445 47.7318Z" fill="#64B8DA"/>
<path d="M149.11 48.4604C149.335 48.7405 149.689 49.0206 149.97 49.0206C150.231 49.0206 150.399 48.7405 150.586 48.5911C150.866 48.367 151.165 48.1429 151.445 47.9187C152.005 47.4705 152.566 47.0036 153.126 46.518C153.201 46.462 153.275 46.3873 153.294 46.2939C153.369 46.0698 153.182 45.883 152.995 45.7897C152.472 45.5282 151.408 46.2192 150.959 46.4433C150.548 46.6488 150.156 46.8916 149.764 47.1343C149.428 47.3585 148.662 47.6386 148.924 48.1802C148.961 48.2923 149.017 48.367 149.11 48.4604Z" fill="#163C5A"/>
<path d="M148.158 46.2939C148.139 46.3126 148.139 46.3313 148.139 46.3499C148.139 46.3873 148.139 46.4246 148.158 46.462C148.233 46.7421 148.326 47.0223 148.419 47.2837C148.457 47.3771 148.494 47.4518 148.55 47.5265C148.662 47.6573 148.849 47.6759 149.017 47.6573C149.297 47.6012 149.615 47.4518 149.857 47.3398C150.324 47.1157 150.773 46.8355 151.202 46.5554C151.632 46.2939 152.08 46.0885 152.509 45.8083C152.565 45.771 152.64 45.7149 152.659 45.6402C152.677 45.5842 152.659 45.5469 152.64 45.4908C152.565 45.3041 152.491 45.1173 152.379 44.9305C152.36 44.8932 152.323 44.8372 152.267 44.8185C152.229 44.7998 152.192 44.7998 152.155 44.7998C151.837 44.8185 151.52 44.9305 151.202 45.0426C150.567 45.2667 149.932 45.4908 149.316 45.7149C148.942 45.8457 148.587 45.9764 148.27 46.2192C148.214 46.2379 148.177 46.2565 148.158 46.2939Z" fill="#64B8DA"/>
<path d="M148.195 44.8552C147.953 44.9485 147.728 45.0606 147.728 45.21C147.728 45.2847 147.747 45.3594 147.766 45.4154C147.84 45.6209 147.915 45.8076 147.99 45.9944C148.027 46.0878 148.083 46.1998 148.158 46.2745C148.326 46.4426 148.531 46.3866 148.7 46.3119C149.222 46.1065 149.727 45.901 150.25 45.6956C150.698 45.5088 152.64 44.8738 152.061 44.0147C151.875 43.7533 151.538 43.884 151.314 43.94C150.903 44.0334 150.511 44.1268 150.119 44.2388C149.671 44.3696 149.222 44.519 148.774 44.6684C148.681 44.7057 148.438 44.7804 148.195 44.8552Z" fill="#163C5A"/>
<path d="M149.409 43.1936C149.951 43.1189 150.492 43.0442 151.034 42.9695C151.464 42.9134 152.061 42.9134 151.93 43.5111C151.912 43.5858 151.893 43.6605 151.837 43.7165C151.781 43.7726 151.706 43.7912 151.65 43.8286C151.015 44.0714 150.362 44.2768 149.708 44.4822C149.148 44.6503 148.606 44.8184 148.046 45.0052C147.971 45.0239 147.878 45.0612 147.803 45.0425C147.654 45.0052 147.579 44.8371 147.542 44.7064C147.448 44.3889 147.224 43.8659 147.542 43.6045C147.71 43.4551 147.971 43.4177 148.195 43.3804C148.587 43.3056 148.998 43.2496 149.409 43.1936Z" fill="#64B8DA"/>
<path d="M147.019 42.6138C147.075 42.9687 147.224 43.3982 147.467 43.5476C147.691 43.6783 147.971 43.5289 148.214 43.5103C148.569 43.4729 148.942 43.4169 149.297 43.3795C150.026 43.2861 150.735 43.1741 151.464 43.0434C151.557 43.0247 151.65 43.006 151.725 42.95C151.893 42.8006 151.837 42.5578 151.725 42.371C151.426 41.8854 150.156 41.9228 149.633 41.8854C149.166 41.8481 148.718 41.8481 148.251 41.8668C147.84 41.8854 147.037 41.736 147 42.315C147 42.3897 147 42.5018 147.019 42.6138Z" fill="#163C5A"/>
<path d="M147.336 40.2612C147.317 40.2612 147.299 40.2798 147.28 40.2985C147.261 40.3359 147.243 40.3732 147.224 40.4106C147.149 40.6907 147.075 40.9708 147.019 41.251C147.019 41.3257 147 41.4191 147.019 41.5125C147.056 41.6805 147.187 41.7926 147.355 41.8486C147.616 41.942 147.971 41.9794 148.251 41.998C148.774 42.0354 149.278 42.0354 149.801 42.0167C150.306 41.998 150.791 42.0727 151.296 42.0541C151.37 42.0541 151.464 42.0354 151.501 41.9794C151.538 41.942 151.557 41.886 151.557 41.8486C151.594 41.6432 151.613 41.4378 151.613 41.2323C151.613 41.1763 151.613 41.1203 151.576 41.0829C151.557 41.0456 151.52 41.0269 151.482 41.0082C151.202 40.8588 150.866 40.7841 150.548 40.7281C149.895 40.5973 149.241 40.4666 148.569 40.3359C148.195 40.2612 147.803 40.1865 147.411 40.2238C147.411 40.2425 147.374 40.2425 147.336 40.2612Z" fill="#64B8DA"/>
<path d="M147.784 39.2895C147.523 39.2521 147.28 39.2708 147.205 39.4015C147.168 39.4575 147.168 39.5322 147.149 39.607C147.112 39.8124 147.112 40.0178 147.093 40.2233C147.093 40.3353 147.093 40.4474 147.112 40.5594C147.187 40.7836 147.392 40.8209 147.579 40.8396C148.139 40.8769 148.681 40.933 149.241 40.9703C149.727 41.0077 151.744 41.3065 151.613 40.2793C151.576 39.9618 151.202 39.9244 150.978 39.8684C150.586 39.775 150.175 39.6817 149.764 39.607C149.297 39.5136 148.849 39.4575 148.382 39.4015C148.27 39.3642 148.027 39.3081 147.784 39.2895Z" fill="#163C5A"/>
<path d="M149.596 38.338C150.119 38.5248 150.623 38.6929 151.146 38.8796C151.557 39.0104 152.099 39.2905 151.706 39.7574C151.65 39.8134 151.594 39.8695 151.52 39.9068C151.445 39.9255 151.37 39.9255 151.296 39.9255C150.623 39.8695 149.951 39.7574 149.279 39.6454C148.718 39.552 148.139 39.4586 147.56 39.3652C147.486 39.3465 147.392 39.3279 147.336 39.2905C147.224 39.1971 147.224 39.0104 147.261 38.861C147.318 38.5248 147.355 37.9645 147.747 37.8711C147.971 37.8151 148.214 37.8898 148.419 37.9645C148.812 38.0766 149.204 38.2073 149.596 38.338Z" fill="#64B8DA"/>
<path d="M147.728 36.7501C147.616 37.0863 147.56 37.5532 147.71 37.7773C147.84 38.0014 148.177 37.9827 148.401 38.0761C148.737 38.2068 149.092 38.3189 149.428 38.4309C150.119 38.6737 150.81 38.8792 151.501 39.1033C151.594 39.122 151.688 39.1593 151.781 39.1406C152.005 39.0846 152.061 38.8418 152.043 38.6177C151.987 38.0387 150.847 37.5158 150.399 37.2543C150.007 37.0116 149.596 36.8061 149.166 36.6194C148.793 36.4513 148.139 35.9657 147.84 36.4699C147.803 36.5447 147.766 36.638 147.728 36.7501Z" fill="#163C5A"/>
<path d="M148.961 34.7705C148.942 34.7705 148.924 34.7705 148.905 34.7892C148.868 34.8079 148.83 34.8452 148.812 34.8639C148.606 35.1067 148.419 35.3495 148.233 35.6109C148.177 35.6856 148.12 35.779 148.102 35.8724C148.064 36.0405 148.158 36.2273 148.289 36.358C148.513 36.5634 148.849 36.7502 149.11 36.8996C149.615 37.1611 150.138 37.3852 150.66 37.5906C151.165 37.796 151.632 38.0762 152.155 38.263C152.229 38.3003 152.323 38.319 152.397 38.2816C152.453 38.263 152.491 38.2069 152.509 38.1696C152.64 37.9828 152.752 37.796 152.846 37.5906C152.864 37.5346 152.883 37.4786 152.883 37.4225C152.883 37.3852 152.846 37.3478 152.827 37.3105C152.603 37.0303 152.304 36.8249 152.024 36.6194C151.426 36.2086 150.829 35.7977 150.231 35.3868C149.876 35.144 149.521 34.9012 149.129 34.7892C149.036 34.7705 148.998 34.7705 148.961 34.7705Z" fill="#64B8DA"/>
<path d="M150.754 33.6311C150.53 33.463 150.287 33.3323 150.138 33.4257C150.063 33.4817 150.007 33.5377 149.951 33.6124C149.783 33.7992 149.633 34.0046 149.503 34.2101C149.428 34.3221 149.353 34.4342 149.316 34.5649C149.241 34.8451 149.409 34.9758 149.577 35.1065C150.082 35.4427 150.567 35.7975 151.072 36.1337C151.501 36.4325 153.238 37.8146 153.78 36.694C153.948 36.3392 153.611 36.115 153.443 35.947C153.126 35.6295 152.808 35.3306 152.472 35.0318C152.099 34.6956 151.688 34.3782 151.296 34.0607C151.184 33.986 150.978 33.7992 150.754 33.6311Z" fill="#163C5A"/>
<path d="M152.995 33.7056C153.369 34.1539 153.761 34.6208 154.134 35.069C154.433 35.4239 154.788 35.9841 154.134 36.2269C154.06 36.2643 153.966 36.283 153.873 36.2643C153.798 36.2456 153.723 36.2083 153.667 36.1522C153.07 35.7227 152.491 35.2371 151.931 34.7515C151.464 34.3406 150.959 33.9484 150.492 33.5376C150.418 33.4815 150.362 33.4255 150.324 33.3321C150.268 33.1827 150.38 32.996 150.492 32.8839C150.754 32.6038 151.109 32.0621 151.538 32.1929C151.781 32.2676 151.949 32.473 152.117 32.6598C152.435 33.0333 152.715 33.3695 152.995 33.7056Z" fill="#64B8DA"/>
<path d="M152.267 31.3896C151.986 31.6698 151.706 32.0806 151.706 32.3794C151.706 32.6596 152.005 32.7903 152.155 32.9771C152.397 33.2572 152.64 33.5374 152.883 33.7988C153.368 34.3404 153.873 34.8821 154.377 35.405C154.452 35.4797 154.508 35.5544 154.62 35.5731C154.863 35.6104 155.031 35.405 155.124 35.1996C155.367 34.6206 154.638 33.5747 154.396 33.1078C154.172 32.6969 153.91 32.3047 153.649 31.9312C153.406 31.5951 153.088 30.8293 152.565 31.1655C152.453 31.2215 152.36 31.2962 152.267 31.3896Z" fill="#163C5A"/>
<path d="M154.788 30.1573C154.769 30.1387 154.751 30.1387 154.732 30.1387C154.695 30.1387 154.657 30.1387 154.62 30.1573C154.321 30.2507 154.041 30.3628 153.761 30.4935C153.667 30.5309 153.574 30.5682 153.499 30.6429C153.369 30.7737 153.331 30.9604 153.35 31.1285C153.406 31.4087 153.537 31.7261 153.667 31.9876C153.891 32.4545 154.172 32.9027 154.433 33.3323C154.695 33.7619 154.9 34.2288 155.18 34.6396C155.217 34.6957 155.273 34.7704 155.348 34.789C155.404 34.789 155.46 34.7704 155.498 34.7517C155.703 34.6583 155.89 34.5649 156.077 34.4342C156.114 34.3968 156.17 34.3595 156.189 34.3221C156.207 34.2848 156.207 34.2288 156.207 34.1914C156.207 33.8552 156.095 33.5377 155.983 33.2202C155.759 32.5666 155.554 31.9316 155.33 31.2779C155.199 30.9044 155.068 30.5309 154.844 30.2321C154.825 30.1947 154.807 30.176 154.788 30.1573Z" fill="#64B8DA"/>
<path d="M155.647 29.4288C155.311 29.5596 154.919 29.821 154.825 30.0825C154.732 30.3253 154.956 30.5681 155.031 30.7922C155.161 31.1284 155.273 31.4832 155.404 31.8194C155.666 32.4917 155.927 33.1641 156.207 33.8364C156.245 33.9298 156.282 34.0232 156.357 34.0792C156.543 34.2099 156.786 34.0979 156.936 33.9485C157.347 33.5376 157.029 32.305 156.954 31.8007C156.88 31.3525 156.786 30.9043 156.674 30.456C156.562 30.0638 156.543 29.2421 155.946 29.3355C155.871 29.3541 155.759 29.3728 155.647 29.4288Z" fill="#163C5A"/>
<path d="M158 29.1862C157.982 29.1676 157.982 29.1489 157.963 29.1489C157.926 29.1302 157.888 29.1302 157.851 29.1302C157.571 29.1115 157.272 29.1115 156.992 29.1302C156.898 29.1302 156.805 29.1302 156.712 29.1862C156.562 29.261 156.469 29.429 156.45 29.5784C156.413 29.8586 156.469 30.1948 156.506 30.4749C156.581 30.9792 156.712 31.4834 156.842 31.9877C156.973 32.4733 157.01 32.9588 157.16 33.4444C157.179 33.5191 157.216 33.5938 157.272 33.6312C157.309 33.6499 157.365 33.6499 157.421 33.6499C157.627 33.6499 157.832 33.6125 158.019 33.5565C158.075 33.5378 158.131 33.5191 158.15 33.4818C158.168 33.4444 158.187 33.4071 158.206 33.3697C158.299 33.0522 158.28 32.7347 158.262 32.3986C158.243 31.7262 158.206 31.0725 158.187 30.4002C158.168 30.008 158.15 29.6158 158.019 29.261C158.038 29.2423 158.019 29.2049 158 29.1862Z" fill="#64B8DA"/>
<path d="M147.149 43.0997C147.205 42.6888 147.28 42.2779 147.374 41.8857C147.168 41.9418 147.019 42.0538 147 42.2966C147 42.39 147 42.5021 147.019 42.6141C147.037 42.7635 147.093 42.9316 147.149 43.0997Z" fill="#D6D6D6"/>
<path d="M167.189 37.7589C166.703 36.6383 165.994 35.6111 165.06 34.7707C164.91 34.6399 164.761 34.5092 164.593 34.3971C162.725 32.9777 160.241 32.3988 157.926 32.8283C152.808 33.7995 150.231 39.3463 151.669 44.0901C152.211 45.883 153.294 47.4891 154.863 48.535C158.841 51.2244 164.406 49.749 166.778 45.6402C168.16 43.2683 168.253 40.2615 167.189 37.7589Z" fill="#DFEDF4"/>
<path d="M162.949 42.0731C164.481 42.652 166.124 42.8761 167.787 42.8388C168.067 41.1392 167.861 39.3463 167.189 37.7589C166.703 36.6383 165.994 35.6111 165.06 34.7707C164.91 34.6399 164.761 34.5092 164.593 34.3971C162.725 32.9777 160.241 32.3988 157.926 32.8283C157.272 32.9591 156.674 33.1458 156.114 33.4073C156.488 37.1612 159.55 40.8031 162.949 42.0731Z" fill="#E8F2F7"/>
<path d="M166.349 45.3226C163.547 45.9949 160.596 45.5467 158.168 43.9779C155.909 42.5024 154.284 40.1679 154.06 37.4412C153.985 36.5821 153.985 35.667 154.078 34.7705C151.632 37.0303 150.661 40.7656 151.669 44.0899C152.211 45.8828 153.294 47.489 154.863 48.5349C158.841 51.2242 164.406 49.7488 166.778 45.64C166.872 45.472 166.965 45.3039 167.04 45.1358C166.816 45.2105 166.591 45.2665 166.349 45.3226Z" fill="#D4E3EB"/>
<path d="M157.87 47.5641C153.331 46.0887 151.987 41.2142 152.472 36.8066C151.258 38.9544 150.922 41.6251 151.669 44.0904C152.211 45.8833 153.294 47.4894 154.863 48.5353C158.598 51.0566 163.734 49.9173 166.311 46.3502C163.678 47.8069 160.671 48.4979 157.87 47.5641Z" fill="#CCDDE6"/>
<path d="M163.902 43.9041C163.547 43.4559 163.286 42.9329 162.987 42.4287C162.501 41.6069 162.072 40.7665 161.623 39.9261C161.082 38.8802 160.559 37.8157 160.092 36.7324C159.943 36.3776 159.831 36.0041 159.662 35.6492C159.457 35.1823 159.308 34.7154 159.027 34.2672C159.009 34.2298 158.971 34.1738 158.915 34.1551C158.841 34.1178 158.766 34.1551 158.71 34.1925C158.449 34.3045 158.206 34.4166 157.944 34.5286C157.758 34.622 157.496 34.6407 157.403 34.8461C157.272 35.1263 157.272 35.5372 157.216 35.8547C157.216 36.0414 157.141 36.2655 157.104 36.4523C157.066 36.6764 157.01 36.9005 156.973 37.1246C156.898 37.5168 156.805 37.8717 156.693 38.2639C156.394 39.3097 155.965 40.2996 155.479 41.2707C155.348 41.5322 155.199 41.775 155.031 42.0178C154.62 42.6154 155.33 42.5034 155.684 42.3726C156.133 42.2046 156.562 42.0365 156.992 41.8497C157.16 41.775 157.347 41.7377 157.44 41.5882C157.533 41.4388 157.533 41.2334 157.608 41.0653C157.72 40.7665 157.795 40.4303 157.907 40.1315C158.15 39.3845 158.411 38.6561 158.617 37.909C158.598 38.0024 158.747 38.2826 158.785 38.3759C158.841 38.544 158.897 38.7308 158.971 38.8989C159.102 39.2537 159.214 39.6272 159.326 39.9821C159.7 41.1774 160.036 42.3726 160.279 43.6053C160.466 44.5391 160.69 45.5663 160.615 46.5188C160.615 46.6308 160.615 46.7615 160.727 46.7802C160.764 46.7802 160.783 46.7802 160.82 46.7615C161.717 46.3693 162.595 45.9211 163.454 45.4169C163.697 45.2674 163.939 45.1367 164.182 44.9873C164.275 44.9313 164.462 44.8379 164.518 44.7258C164.612 44.5764 164.257 44.3523 164.163 44.2589C164.089 44.1282 163.995 44.0161 163.902 43.9041Z" fill="#163C5A"/>
</g>
<g clip-path="url(#clip12)">
<path d="M158.253 18.7965C158.695 19.2454 159.114 19.7165 159.534 20.1876C159.799 20.4569 160.042 20.7039 160.307 20.9733C160.396 21.0631 160.529 21.1532 160.438 21.3307C160.325 21.5303 160.148 21.4398 160.037 21.4166C159.148 21.1424 158.281 20.846 157.415 20.5496C157.348 20.5268 157.282 20.504 157.193 20.4588C156.99 20.7913 156.787 21.1238 156.584 21.4564C156.381 21.7889 156.133 22.1211 155.93 22.4536C155.817 22.6086 155.661 22.6297 155.551 22.5175C155.462 22.4277 155.441 22.3161 155.397 22.1821C155.29 21.7135 155.16 21.2224 155.097 20.7096C155.055 20.3974 154.923 20.2182 154.634 20.1491C154.145 20.0116 153.678 19.852 153.234 19.7149C153.078 19.6469 152.945 19.6013 152.812 19.5111C152.546 19.3308 152.615 19.0863 152.928 18.9106C153.063 18.8226 153.219 18.8015 153.375 18.7359C153.934 18.5398 154.492 18.3437 155.05 18.1476C155.43 17.9947 155.453 17.9726 155.456 17.5717C155.483 16.9705 155.532 16.3471 155.537 15.7235C155.538 15.6789 155.516 15.6119 155.539 15.5453C155.606 15.4345 155.652 15.2566 155.764 15.2352C155.853 15.1914 156.031 15.2373 156.097 15.3492C156.273 15.5733 156.405 15.7971 156.559 16.0434C156.824 16.4018 157.088 16.7603 157.353 17.1188C157.485 17.298 157.641 17.3215 157.887 17.2121C158.356 17.0153 158.825 16.863 159.316 16.6887C159.473 16.6231 159.606 16.6241 159.717 16.7809C159.805 16.9153 159.715 17.0482 159.602 17.1587C159.13 17.6673 158.703 18.2208 158.253 18.7965Z" fill="#FFCA12"/>
</g>
<g clip-path="url(#clip13)">
<path d="M172.563 25C171.592 24.9577 171 24.4507 171 23.6056C171 22.7183 171.718 22 172.563 22C173.451 22 174.127 22.6338 174.127 23.4789C174.085 24.3662 173.451 25 172.563 25Z" fill="#00626B"/>
</g>
<g clip-path="url(#clip14)">
<path d="M128.689 90.3536C128.689 90.3536 125.228 80.6191 113.438 87.3791C108.463 90.1913 105.002 90.7321 102.622 90.3536C101.324 90.1373 100.513 91.6515 101.324 92.679C105.435 97.8167 114.033 103.982 128.689 95.8157V90.3536Z" fill="#163C5A"/>
<path d="M128.311 90.3546C128.311 90.3546 131.772 80.62 143.562 87.3801C148.537 90.1923 151.998 90.7331 154.378 90.3546C155.676 90.1382 156.487 91.6525 155.676 92.68C151.565 97.8177 142.967 103.983 128.311 95.8167V90.3546V90.3546Z" fill="#163C5A"/>
</g>
<path d="M46.1513 22.2424C46.073 22.2157 45.9946 22.1889 45.9056 22.1831C45.5761 22.1336 45.2465 22.0841 44.9275 22.0138C44.5562 21.9431 44.1743 21.8933 43.803 21.8226C43.7663 21.8171 43.7246 21.7958 43.7143 21.7643C43.6682 21.6226 43.6327 21.46 43.5972 21.2974C43.9488 21.2004 44.3003 21.1034 44.6467 20.9906C44.9932 20.8779 45.3444 20.8332 45.6703 20.6575C45.6652 20.6417 45.66 20.626 45.6549 20.6102C45.5553 20.6252 45.4454 20.6088 45.351 20.6395C44.884 20.7567 44.438 20.8844 43.9711 21.0016C43.8294 21.0477 43.6825 21.0781 43.5199 21.1136C43.4687 20.9561 43.4174 20.7987 43.3662 20.6412C43.8782 20.074 44.3641 19.4804 44.8553 18.9026C44.8501 18.8869 44.8293 18.8762 44.8241 18.8605C44.7505 18.9019 44.6769 18.9432 44.6242 18.9952C44.4396 19.1772 44.2602 19.375 44.0807 19.5727C43.8379 19.8433 43.59 20.0981 43.3472 20.3687C43.3365 20.3896 43.3208 20.3947 43.2944 20.4207C43.1963 20.2263 43.119 20.0424 43.0209 19.848C42.9693 19.7429 42.9228 19.6535 42.8448 19.5744C42.7877 19.5059 42.788 19.4536 42.8357 19.3858C42.8888 19.2815 42.9367 19.1614 43.0056 19.0519C43.4561 18.2957 43.9952 17.5978 44.654 17.0002C44.9334 16.7351 45.2648 16.5227 45.6428 16.3997C46.3092 16.2002 46.8263 16.3976 47.1624 17.0022C47.3796 17.4018 47.4707 17.8423 47.478 18.2927C47.4824 18.4132 47.4816 18.5179 47.4703 18.6435C47.4413 19.0361 47.5383 19.3876 47.735 19.7242C47.999 20.1607 48.2 20.6177 48.3274 21.1161C48.3933 21.4256 48.4277 21.7453 48.3731 22.0591C48.2965 22.5194 48.0171 22.7845 47.6022 22.9544C46.8038 23.2839 45.9601 23.367 45.1182 23.1882C44.7052 23.0963 44.3082 22.9468 43.9058 22.834C43.8274 22.8073 43.8014 22.7809 43.8073 22.6919C43.8036 22.4667 43.7843 22.2466 43.7806 22.0214C43.948 22.054 44.1102 22.0709 44.2775 22.1035C44.7536 22.1749 45.2139 22.2515 45.6848 22.3072C45.7947 22.3237 45.9151 22.3193 46.0356 22.3149C46.0722 22.3204 46.0986 22.2944 46.1301 22.2842C46.1458 22.279 46.1407 22.2633 46.1513 22.2424Z" fill="#163C5A"/>
<path d="M40.204 22.0537C39.5214 22.3108 38.8135 22.4367 38.1518 22.7043C38.1569 22.7201 38.162 22.7358 38.1672 22.7516C38.2195 22.7519 38.2719 22.7523 38.3349 22.7318C38.6549 22.645 38.9592 22.5634 39.2793 22.4766C39.5994 22.3899 39.9352 22.298 40.271 22.2061C40.3329 22.3427 40.3739 22.4686 40.4306 22.5895C40.1988 22.7869 39.967 22.9842 39.7458 23.1607C39.5246 23.3372 39.2877 23.5188 39.0507 23.7004C39.0558 23.7162 39.061 23.7319 39.087 23.7583C39.1499 23.7378 39.2181 23.733 39.2602 23.7019C39.4495 23.588 39.6337 23.4584 39.8022 23.3339C40.0391 23.1523 40.2761 22.9707 40.513 22.7891C40.5595 22.8784 40.6009 22.952 40.6422 23.0256C40.7407 23.1677 40.8601 23.3204 40.9744 23.4574C41.0055 23.4995 41.0315 23.5259 40.9996 23.5885C40.6224 24.3557 40.1723 25.0595 39.5709 25.6732C39.323 25.928 39.0439 26.1408 38.6719 26.1748C38.3679 26.2041 38.0856 26.1392 37.8406 25.9751C37.4027 25.6997 37.1017 25.3101 36.9164 24.8479C36.8286 24.685 36.7462 24.4854 36.6953 24.2755C36.5317 23.7193 36.2786 23.2095 36.0363 22.6789C35.7269 21.9959 35.5014 21.3031 35.5172 20.5491C35.5238 20.3553 35.567 20.1671 35.6102 19.9789C35.7391 19.519 35.9611 19.2377 36.6371 19.1744C37.0458 19.1459 37.4379 19.2272 37.814 19.366C38.561 19.6279 39.2974 19.9107 40.0496 20.1883C40.0705 20.1989 40.1071 20.2044 40.0913 20.2096C40.0935 20.6442 40.0905 21.0632 40.0824 21.4663C39.7946 21.4381 39.4859 21.3993 39.1615 21.3656C38.9835 21.3538 38.8055 21.3421 38.6433 21.3253C38.5909 21.3249 38.5543 21.3194 38.5071 21.3348C38.4598 21.3501 38.402 21.3864 38.3599 21.4175C38.4016 21.4388 38.4536 21.4915 38.4902 21.497C39.0029 21.5739 39.5313 21.6457 40.0491 21.7384C40.0857 21.7439 40.1168 21.786 40.122 21.8018C40.1582 21.8596 40.1732 21.9593 40.204 22.0537Z" fill="#163C5A"/>
<path d="M43.2066 21.0074C43.3864 21.5062 43.5189 22.0204 43.5255 22.5755C43.5247 22.6802 43.498 22.7586 43.4189 22.8366C42.9596 23.3518 42.3821 23.5572 41.7223 23.563C41.4289 23.5714 41.1993 23.4546 41.0283 23.1968C40.593 22.5548 40.3466 21.8513 40.3521 21.0658C40.3587 20.8721 40.3496 20.6835 40.3562 20.4898C40.3687 20.2071 40.4855 19.9775 40.7276 19.8116C41.2223 19.459 41.7676 19.3686 42.3535 19.4565C42.4634 19.473 42.5469 19.5155 42.5934 19.6049C42.738 19.8887 42.8826 20.1725 43.0115 20.4614C43.1045 20.6401 43.1503 20.8342 43.2066 21.0074Z" fill="#163C5A"/>
<g clip-path="url(#clip15)">
<path d="M36.4617 50.2703C36.1717 50.6717 35.8865 52.7202 36.1133 53.421C36.1241 53.4524 36.1349 53.4837 36.1457 53.5151C36.1457 53.5151 36.1457 53.5151 36.1353 53.5257C36.1249 53.5363 36.1249 53.5363 36.1145 53.5469C35.9696 53.7581 35.7729 54.0432 35.5346 54.3706C35.4623 54.4867 35.3897 54.5818 35.307 54.7085C35.1724 54.9091 35.0379 55.1096 34.8826 55.3314C34.8204 55.4159 34.7585 55.5214 34.6859 55.6165C34.5824 55.7644 34.4684 55.9228 34.3651 56.0916C34.3443 56.1128 34.3341 56.1444 34.3133 56.1655C34.241 56.2816 34.158 56.3873 34.0753 56.514C33.7854 56.9363 33.4958 57.3797 33.1852 57.8232C33.1024 57.9499 33.03 58.0659 32.9367 58.1822C32.8332 58.3301 32.7402 58.4883 32.6471 58.6256C32.5539 58.7628 32.4712 58.8895 32.378 59.0267C32.1503 59.3646 31.9229 59.7234 31.7056 60.0507C31.6538 60.1246 31.6124 60.1879 31.5712 60.2722C31.5403 60.325 31.5093 60.3777 31.4783 60.4305C31.4161 60.515 31.3646 60.6099 31.3128 60.6838C31.0231 61.1272 30.7649 61.5597 30.5272 61.9501C30.5066 61.9923 30.4754 62.024 30.4548 62.0662C30.2481 62.4038 30.0728 62.7307 29.9075 63.005C29.8765 63.0578 29.8559 63.0999 29.825 63.1527C29.7424 63.3003 29.6806 63.4268 29.6189 63.5533C29.4953 63.8062 29.4131 63.9958 29.3829 64.1325C29.3625 64.1956 29.3525 64.2482 29.3739 64.29C29.3964 64.4576 29.4615 64.6878 29.5588 64.9912C29.5807 65.0959 29.6237 65.2004 29.6562 65.3155C29.7425 65.5665 29.8393 65.8279 29.9364 66.1103C29.958 66.173 29.9795 66.2358 30.0011 66.2985C30.0334 66.3926 30.0764 66.4971 30.1087 66.5913C30.184 66.7899 30.2699 66.9989 30.3556 67.187C30.5056 67.5213 30.6556 67.8557 30.8052 68.148C30.8373 68.2212 30.8799 68.2837 30.912 68.3569C31.1149 68.7432 31.3169 69.0246 31.4859 69.1489C31.5598 69.2007 31.6334 69.2105 31.6963 69.2099C31.7383 69.2095 31.7906 69.1985 31.8534 69.1769C32.5236 69.0448 33.1307 68.8923 33.6852 68.7298C34.2608 68.567 34.7732 68.3839 35.2016 68.2016C35.8913 67.9014 36.3815 67.5926 36.6825 67.2436C36.6929 67.233 36.7033 67.2224 36.7137 67.2118C36.7241 67.2012 36.7449 67.18 36.7447 67.1591C36.8688 66.9691 36.9916 66.6322 37.1237 66.1798C37.2063 66.0322 37.2467 65.8639 37.2975 65.6851C37.2975 65.6851 37.3079 65.6745 37.2973 65.6641C37.2969 65.6222 37.3175 65.58 37.3171 65.538C37.3975 65.1596 37.4879 64.7286 37.5676 64.2662C37.6172 63.9615 37.6772 63.6462 37.7265 63.2995C37.7367 63.268 37.7365 63.247 37.7467 63.2154C37.7663 63.0683 37.7963 62.9107 37.8157 62.7426C37.8353 62.5956 37.8551 62.4695 37.8747 62.3224C37.8846 62.2489 37.8944 62.1754 37.9042 62.1018C37.9736 61.671 38.0221 61.2404 38.0809 60.7992C38.1007 60.6732 38.1203 60.5261 38.1401 60.4C38.1501 60.3475 38.1498 60.3055 38.1598 60.253C38.1798 60.1478 38.1788 60.0429 38.1988 59.9378C38.2182 59.7698 38.248 59.5912 38.2674 59.4231C38.3459 58.8349 38.414 58.2572 38.4719 57.7111C38.4717 57.6901 38.4715 57.6691 38.4819 57.6585C38.4911 57.5221 38.5213 57.3854 38.5305 57.2489C38.5299 57.186 38.5399 57.1334 38.5499 57.0809C38.5692 56.8918 38.5884 56.7028 38.6076 56.5138C38.6166 56.3563 38.6466 56.1987 38.6453 56.0518C38.6747 55.8312 38.6833 55.6318 38.713 55.4322C38.7324 55.2641 38.752 55.1171 38.7612 54.9806C38.7797 54.7076 38.8091 54.4871 38.8179 54.3086C39.3195 54.0941 40.4102 52.9194 40.6228 52.0886C40.6938 51.8257 40.6709 51.616 40.575 51.4596C40.5644 51.4492 40.5538 51.4388 40.5326 51.418C40.4371 51.3035 40.226 51.1585 39.952 51.0352C39.3722 50.7363 38.4987 50.4402 37.7734 50.2896C37.4053 50.1986 37.0692 50.1597 36.8384 50.1619C36.639 50.1532 36.5135 50.1964 36.4617 50.2703Z" fill="#163C5A"/>
<path d="M35.9448 53.2748C35.9448 53.2748 35.9543 53.2652 35.9448 53.2748C35.9543 53.2652 35.9446 53.2557 35.9448 53.2748Z" fill="#163C5A"/>
<path opacity="0.25" d="M39.9622 51.0246C39.7236 51.3101 39.4745 51.6062 39.2465 51.902C38.9872 52.2297 38.7068 52.5366 38.8682 52.9652C38.9005 53.0593 39.027 53.1211 39.1215 53.1307C39.5729 53.158 39.7892 52.7258 39.9959 52.3882C40.1924 52.0821 40.3889 51.776 40.5644 51.4701C40.5538 51.4597 40.5432 51.4493 40.5324 51.418C40.4473 51.2929 40.2364 51.1689 39.9622 51.0246Z" fill="white"/>
<path opacity="0.54" d="M36.3242 55.8115C37.0925 56.0667 37.8499 56.2904 38.6074 56.5142C38.5882 56.7032 38.569 56.8922 38.5497 57.0813C38.5397 57.1338 38.5403 57.1968 38.5303 57.2493C38.5211 57.3858 38.5013 57.5119 38.4817 57.6589C37.724 57.4142 36.9871 57.1483 36.2608 56.8927C35.6187 56.6574 34.9765 56.4221 34.3551 56.1655C34.3759 56.1444 34.3861 56.1128 34.4069 56.0916C34.5102 55.9228 34.6138 55.775 34.7277 55.6165C34.8002 55.5214 34.8518 55.4265 34.9244 55.3314C35.3665 55.4952 35.8507 55.6585 36.3242 55.8115ZM36.566 60.3731C37.1025 60.5255 37.597 60.6782 38.0913 60.81C38.0325 61.2512 37.9736 61.6924 37.9146 62.1126C37.3044 61.9295 36.7151 61.7461 36.1153 61.5523C34.6315 61.073 33.1686 60.5725 31.7577 60.0401C31.9748 59.6919 32.2025 59.354 32.4302 59.0162C33.7671 59.4968 35.1561 59.9455 36.566 60.3731ZM31.569 65.6968C32.7055 66.0639 33.8628 66.4099 35.0303 66.7243C35.0829 66.7343 35.1776 66.7649 35.2301 66.7749C35.3774 66.8155 35.5456 66.8559 35.6929 66.8965C35.9768 66.9673 36.2607 67.0381 36.5551 67.0983C36.6392 67.1185 36.7127 67.1283 36.7968 67.1485C36.7864 67.1591 36.7657 67.1802 36.7659 67.2012C36.7555 67.2118 36.7451 67.2224 36.7347 67.233C36.4441 67.5714 35.954 67.9012 35.2538 68.191C34.8328 68.048 34.4224 67.9155 34.0226 67.7933C32.7176 67.3648 31.4647 66.8833 30.264 66.3909C30.1903 66.3601 30.1166 66.3293 30.0535 66.3089C30.0319 66.2462 30.0103 66.1834 29.9888 66.1207C29.8813 65.8489 29.7949 65.5769 29.7086 65.3259C29.676 65.2108 29.6331 65.1063 29.6111 65.0016C30.2429 65.2475 30.9061 65.4826 31.569 65.6968ZM31.7282 62.5059C32.9596 62.9246 34.2432 63.3113 35.5162 63.6877C36.1789 63.8809 36.8311 64.0636 37.5043 64.2462C37.5358 64.2564 37.5568 64.2562 37.5884 64.2664C37.5087 64.7288 37.4183 65.1598 37.3379 65.5382C36.591 65.3249 35.8441 65.1115 35.118 64.8769C33.3398 64.3164 31.6029 63.6926 29.9599 63.0154C30.1146 62.7307 30.3005 62.4142 30.5072 62.0766C30.9072 62.2198 31.3178 62.3733 31.7282 62.5059Z" fill="white"/>
</g>
<g clip-path="url(#clip16)">
<path d="M22.5634 48.8086C21.5915 48.7663 21 48.2593 21 47.4142C21 46.5269 21.7183 45.8086 22.5634 45.8086C23.4507 45.8086 24.1268 46.4424 24.1268 47.2875C24.0845 48.1748 23.4507 48.8086 22.5634 48.8086Z" fill="#00626B"/>
</g>
<g clip-path="url(#clip17)">
<path d="M31.9036 34.3006C31.9538 34.3006 31.8533 34.5519 31.5016 34.8534C31.2001 35.1549 30.6474 35.5569 29.8936 35.7578C29.1399 35.9588 28.1349 35.9588 27.1802 35.4564C26.2255 34.9539 25.4717 33.9991 25.0698 32.8937C24.8688 32.3409 24.718 31.7379 24.7683 31.135C24.7683 30.8335 24.8688 30.4817 24.9693 30.1802C25.0698 29.8787 25.2707 29.5773 25.4717 29.326C25.924 28.8235 26.5772 28.4718 27.2807 28.522C28.0344 28.5723 28.6374 29.0748 28.9389 29.6777C29.0897 29.9792 29.1399 30.331 29.0897 30.733C29.0394 31.0847 28.8384 31.3862 28.5872 31.6374C28.0847 32.0897 27.5319 32.2404 27.0295 32.2404C26.5772 32.2907 26.125 32.2404 25.7732 32.1399C25.4215 32.0394 25.12 31.9892 24.8688 31.8887C23.8638 31.537 22.9091 30.934 22.2558 30.2305C21.6026 29.527 21.2006 28.723 21.0499 28.0195C20.8991 27.3161 20.9494 26.7131 21.0499 26.3111C21.2006 25.9593 21.3513 25.8086 21.4016 25.8086C21.6026 25.8588 21.4518 26.6628 21.9041 27.8185C22.1553 28.3713 22.5071 28.9743 23.1101 29.527C23.6628 30.0797 24.4668 30.532 25.321 30.8335C25.522 30.934 25.8235 30.9842 26.125 31.0847C26.4265 31.135 26.728 31.1852 27.0797 31.1852C27.7832 31.1852 28.2857 30.7832 28.0344 30.2305C27.9339 29.929 27.5822 29.6777 27.2807 29.6777C26.929 29.6275 26.527 29.8285 26.2255 30.13C25.924 30.4315 25.723 30.8335 25.723 31.336C25.6727 31.7882 25.7732 32.2907 25.924 32.7932C26.2255 33.7479 26.8285 34.6021 27.5319 35.0544C28.2857 35.5066 29.1399 35.6071 29.8434 35.4564C30.5469 35.3559 31.0494 35.0544 31.4011 34.8031C31.7026 34.4514 31.8533 34.3006 31.9036 34.3006Z" fill="#00626B"/>
</g>
<g clip-path="url(#clip18)">
<path d="M40.1053 43.4285C40.1053 42.8876 40.1323 42.3467 40.1594 41.8057C40.1594 41.4812 40.1594 41.1837 40.1594 40.8591C40.1594 40.7509 40.1323 40.6157 40.2946 40.5616C40.4839 40.5075 40.538 40.6698 40.5921 40.7509C40.9708 41.4541 41.3224 42.1573 41.674 42.8606C41.701 42.9146 41.7281 42.9687 41.7551 43.0499C42.0797 42.9687 42.4043 42.8876 42.7288 42.8065C43.0534 42.7253 43.405 42.6712 43.7295 42.5901C43.8918 42.563 44 42.6442 44 42.7794C44 42.8876 43.9459 42.9687 43.8918 43.0769C43.6754 43.4285 43.4591 43.8072 43.1886 44.1588C43.0263 44.3752 42.9993 44.5645 43.1345 44.7809C43.3509 45.1595 43.5402 45.5382 43.7295 45.8898C43.7836 46.025 43.8377 46.1332 43.8648 46.2684C43.9189 46.5389 43.7295 46.6471 43.432 46.5659C43.2968 46.5389 43.1886 46.4577 43.0534 46.4037C42.5936 46.1873 42.1338 45.9709 41.674 45.7545C41.3494 45.6193 41.3224 45.6193 41.079 45.8627C40.7003 46.2143 40.2946 46.5659 39.916 46.9446C39.8889 46.9716 39.8619 47.0257 39.8078 47.0528C39.6996 47.0798 39.5644 47.161 39.4832 47.1069C39.4021 47.0798 39.3209 46.9446 39.348 46.8364C39.375 46.593 39.4291 46.3766 39.4832 46.1332C39.5373 45.7545 39.5914 45.3759 39.6455 44.9972C39.6725 44.8079 39.5914 44.6997 39.375 44.6186C38.9693 44.4563 38.5907 44.267 38.185 44.0777C38.0498 44.0236 37.9686 43.9424 37.9957 43.7801C38.0227 43.6449 38.1579 43.6179 38.2932 43.6179C38.8882 43.5908 39.4832 43.5097 40.1053 43.4285Z" fill="#FFCA12"/>
</g>
<g clip-path="url(#clip19)">
<path d="M27.0423 93.8086C26.3944 93.7804 26 93.4424 26 92.879C26 92.2875 26.4789 91.8086 27.0423 91.8086C27.6338 91.8086 28.0845 92.2311 28.0845 92.7945C28.0563 93.3861 27.6338 93.8086 27.0423 93.8086Z" fill="#00626B"/>
</g>
<g clip-path="url(#clip20)">
<path d="M23.0423 19.8086C22.3944 19.7804 22 19.4424 22 18.879C22 18.2875 22.4789 17.8086 23.0423 17.8086C23.6338 17.8086 24.0845 18.2311 24.0845 18.7945C24.0563 19.3861 23.6338 19.8086 23.0423 19.8086Z" fill="#00626B"/>
</g>
</g>
<defs>
<filter id="filter0_f" x="23" y="81" width="156" height="26" filterUnits="userSpaceOnUse" color-interpolation-filters="sRGB">
<feFlood flood-opacity="0" result="BackgroundImageFix"/>
<feBlend mode="normal" in="SourceGraphic" in2="BackgroundImageFix" result="shape"/>
<feGaussianBlur stdDeviation="5" result="effect1_foregroundBlur"/>
</filter>
<clipPath id="clip0">
<rect width="277" height="105.82" fill="white"/>
</clipPath>
<clipPath id="clip1">
<rect width="21.3938" height="24.2827" fill="white" transform="translate(53.2388 68.8701) rotate(22.3625)"/>
</clipPath>
<clipPath id="clip2">
<rect width="8.94383" height="9.87464" fill="white" transform="translate(51.3011 97.0371) rotate(135.45)"/>
</clipPath>
<clipPath id="clip3">
<rect width="8.5957" height="7.96192" fill="white" transform="translate(110.19 19.4775) rotate(-167.505)"/>
</clipPath>
<clipPath id="clip4">
<rect width="3.08451" height="3" fill="white" transform="translate(102 26.8086)"/>
</clipPath>
<clipPath id="clip5">
<rect width="16.4837" height="25.9" fill="white" transform="matrix(-1 0 0 1 233.484 35)"/>
</clipPath>
<clipPath id="clip6">
<rect width="10.904" height="10.1" fill="white" transform="translate(224.339 14.8809) rotate(31.9116)"/>
</clipPath>
<clipPath id="clip7">
<rect width="11" height="12.1448" fill="white" transform="translate(211 54)"/>
</clipPath>
<clipPath id="clip8">
<rect width="2.05634" height="2" fill="white" transform="translate(214 14)"/>
</clipPath>
<clipPath id="clip9">
<rect width="3.08451" height="3" fill="white" transform="translate(237.846 28)"/>
</clipPath>
<clipPath id="clip10">
<rect width="3.08451" height="3" fill="white" transform="translate(258 79)"/>
</clipPath>
<clipPath id="clip11">
<rect width="25.549" height="34.2895" fill="white" transform="translate(147 29)"/>
</clipPath>
<clipPath id="clip12">
<rect width="12.8115" height="14.1448" fill="white" transform="translate(164.053 24.0801) rotate(135.45)"/>
</clipPath>
<clipPath id="clip13">
<rect width="3.08451" height="3" fill="white" transform="translate(171 22)"/>
</clipPath>
<clipPath id="clip14">
<rect width="55" height="14.764" fill="white" transform="translate(101 85)"/>
</clipPath>
<clipPath id="clip15">
<rect width="12.077" height="18.9761" fill="white" transform="matrix(-0.713651 -0.700502 -0.700502 0.713651 46.5148 57.2695)"/>
</clipPath>
<clipPath id="clip16">
<rect width="3.08451" height="3" fill="white" transform="translate(21 45.8086)"/>
</clipPath>
<clipPath id="clip17">
<rect width="10.904" height="10.1" fill="white" transform="translate(21 25.8086)"/>
</clipPath>
<clipPath id="clip18">
<rect width="11" height="12.1448" fill="white" transform="translate(38 37.8086)"/>
</clipPath>
<clipPath id="clip19">
<rect width="2.05634" height="2" fill="white" transform="translate(26 91.8086)"/>
</clipPath>
<clipPath id="clip20">
<rect width="2.05634" height="2" fill="white" transform="translate(22 17.8086)"/>
</clipPath>
</defs>
</svg>
