<svg width="277" height="106" viewBox="0 0 277 106" fill="none" xmlns="http://www.w3.org/2000/svg">
<g clip-path="url(#clip0)">
<g filter="url(#filter0_f)">
<ellipse cx="86" cy="94" rx="68" ry="3" fill="#C4C4C4" fill-opacity="0.5"/>
</g>
<path d="M162.71 87.3779C161.909 88.3154 160.742 89.043 159.209 89.5605C157.676 90.0684 155.977 90.3076 154.111 90.2783C152.324 90.2588 150.815 89.8096 149.585 88.9307C148.354 88.0518 147.476 86.8262 146.948 85.2539C146.421 83.6816 146.279 81.9092 146.523 79.9365L146.641 79.0576C147.09 75.7471 148.252 73.125 150.127 71.1914C152.012 69.2578 154.316 68.3154 157.041 68.3643C159.424 68.4033 161.255 69.043 162.534 70.2832C163.813 71.5234 164.526 73.3154 164.673 75.6592L159.868 75.6445C159.8 74.502 159.517 73.667 159.019 73.1396C158.53 72.6123 157.832 72.334 156.924 72.3047C155.576 72.2559 154.463 72.7881 153.584 73.9014C152.705 75.0049 152.104 76.5869 151.782 78.6475C151.509 80.4053 151.411 81.7725 151.489 82.749C151.636 85.1025 152.695 86.2939 154.668 86.3232C155.859 86.3428 156.904 86.0547 157.803 85.459L158.462 82.1338H154.99L155.605 78.6035H164.087L162.71 87.3779ZM170.356 90H165.347L169.053 68.6719H174.048L170.356 90ZM191.626 87.3779C190.825 88.3154 189.658 89.043 188.125 89.5605C186.592 90.0684 184.893 90.3076 183.027 90.2783C181.24 90.2588 179.731 89.8096 178.501 88.9307C177.271 88.0518 176.392 86.8262 175.864 85.2539C175.337 83.6816 175.195 81.9092 175.439 79.9365L175.557 79.0576C176.006 75.7471 177.168 73.125 179.043 71.1914C180.928 69.2578 183.232 68.3154 185.957 68.3643C188.34 68.4033 190.171 69.043 191.45 70.2832C192.729 71.5234 193.442 73.3154 193.589 75.6592L188.784 75.6445C188.716 74.502 188.433 73.667 187.935 73.1396C187.446 72.6123 186.748 72.334 185.84 72.3047C184.492 72.2559 183.379 72.7881 182.5 73.9014C181.621 75.0049 181.021 76.5869 180.698 78.6475C180.425 80.4053 180.327 81.7725 180.405 82.749C180.552 85.1025 181.611 86.2939 183.584 86.3232C184.775 86.3428 185.82 86.0547 186.719 85.459L187.378 82.1338H183.906L184.521 78.6035H193.003L191.626 87.3779ZM206.45 86.0156H199.639L197.749 90H192.227L203.521 68.6719H208.237L212.178 90H206.963L206.45 86.0156ZM201.514 82.0459H205.938L205 74.6924L201.514 82.0459ZM225.625 84.2285C225.84 83.125 225.244 82.2705 223.838 81.665L221.436 80.6689C218.066 79.1553 216.465 77.0947 216.631 74.4873C216.699 73.2959 217.109 72.2363 217.861 71.3086C218.613 70.3711 219.653 69.6436 220.981 69.126C222.31 68.6084 223.76 68.3594 225.332 68.3789C227.441 68.418 229.136 69.0332 230.415 70.2246C231.704 71.416 232.339 73.0127 232.319 75.0146H227.339C227.368 74.1943 227.192 73.54 226.812 73.0518C226.44 72.5537 225.825 72.2949 224.966 72.2754C224.126 72.2559 223.384 72.4512 222.739 72.8613C222.095 73.2715 221.714 73.8232 221.597 74.5166C221.411 75.4932 222.134 76.2939 223.765 76.9189C225.405 77.5439 226.597 78.0811 227.339 78.5303C229.673 79.9268 230.767 81.8115 230.62 84.1846C230.542 85.415 230.146 86.4941 229.434 87.4219C228.721 88.3496 227.729 89.0674 226.46 89.5752C225.2 90.083 223.784 90.3271 222.212 90.3076C221.06 90.2881 219.99 90.1074 219.004 89.7656C218.018 89.4238 217.173 88.9258 216.47 88.2715C215.044 86.9531 214.36 85.2197 214.419 83.0713L219.443 83.0859C219.385 84.1797 219.595 85.0098 220.073 85.5762C220.552 86.1328 221.357 86.4111 222.49 86.4111C223.33 86.4111 224.028 86.2207 224.585 85.8398C225.151 85.4492 225.498 84.9121 225.625 84.2285Z" fill="#BBBBBB"/>
<path d="M63.7207 52.8115L70.1807 52.8555C72.8174 52.7969 74.9854 52.0352 76.6846 50.5703C78.3838 49.0762 79.3945 46.9961 79.7168 44.3301C79.9512 42.3379 79.5557 40.6973 78.5303 39.4082C77.5049 38.1191 75.9668 37.46 73.916 37.4307C72.0117 37.3721 70.3271 37.8994 68.8623 39.0127C67.3975 40.126 66.46 41.6055 66.0498 43.4512L51.5479 43.5391C51.7236 40.082 52.8369 37.0205 54.8877 34.3545C56.9385 31.6885 59.6631 29.6377 63.0615 28.2021C66.4893 26.7373 70.166 26.0195 74.0918 26.0488C80.5371 26.1953 85.6055 27.8945 89.2969 31.1465C92.9883 34.3691 94.6729 38.6758 94.3506 44.0664C93.9697 50.1016 90.0293 54.877 82.5293 58.3926C85.3711 59.7988 87.4951 61.7471 88.9014 64.2373C90.3076 66.7275 90.9375 69.54 90.791 72.6748C90.5859 76.6006 89.3408 80.0283 87.0557 82.958C84.7705 85.8584 81.709 88.0996 77.8711 89.6816C74.0332 91.2344 69.917 91.9668 65.5225 91.8789C61.6846 91.8496 58.1982 91.0439 55.0635 89.4619C51.958 87.8506 49.5703 85.6387 47.9004 82.8262C46.2305 80.0137 45.4102 76.791 45.4395 73.1582H59.8535C59.8828 75.2383 60.498 76.9521 61.6992 78.2998C62.9004 79.6475 64.585 80.3506 66.7529 80.4092C69.1846 80.4678 71.3379 79.75 73.2129 78.2559C75.0879 76.7617 76.2012 74.7988 76.5527 72.3672C76.9043 69.7598 76.5088 67.7236 75.3662 66.2588C74.2529 64.7646 72.3779 63.9736 69.7412 63.8857L62.0068 63.8418L63.7207 52.8115ZM147.48 35.585L115.928 91H100.107L131.528 38.4414H102.217L104.062 27.0156H148.843L147.48 35.585Z" fill="#EF3829"/>
<path d="M63.7207 52.8115L63.7411 49.8116L61.1536 49.794L60.7563 52.3509L63.7207 52.8115ZM70.1807 52.8555L70.1603 55.8554L70.2038 55.8557L70.2473 55.8547L70.1807 52.8555ZM76.6846 50.5703L78.6434 52.8425L78.6545 52.8329L78.6656 52.8232L76.6846 50.5703ZM79.7168 44.3301L82.6951 44.6901L82.6962 44.6806L79.7168 44.3301ZM73.916 37.4307L73.8238 40.4292L73.8485 40.43L73.8732 40.4304L73.916 37.4307ZM66.0498 43.4512L66.068 46.4511L68.4596 46.4366L68.9784 44.102L66.0498 43.4512ZM51.5479 43.5391L48.5517 43.3867L48.3905 46.5583L51.566 46.539L51.5479 43.5391ZM63.0615 28.2021L64.2289 30.9657L64.2404 30.9608L63.0615 28.2021ZM74.0918 26.0488L74.16 23.0496L74.1371 23.0491L74.1142 23.0489L74.0918 26.0488ZM89.2969 31.1465L87.3138 33.3976L87.3239 33.4064L89.2969 31.1465ZM94.3506 44.0664L97.3446 44.2554L97.3452 44.2454L94.3506 44.0664ZM82.5293 58.3926L81.256 55.6762L75.6172 58.3194L81.1988 61.0814L82.5293 58.3926ZM90.791 72.6748L93.7869 72.8313L93.7874 72.8231L93.7877 72.8148L90.791 72.6748ZM87.0557 82.958L89.4121 84.8146L89.4167 84.8089L89.4212 84.8031L87.0557 82.958ZM77.8711 89.6816L78.9962 92.4627L79.0053 92.459L79.0144 92.4552L77.8711 89.6816ZM65.5225 91.8789L65.5824 88.8795L65.5639 88.8791L65.5454 88.879L65.5225 91.8789ZM55.0635 89.4619L53.6818 92.1248L53.6968 92.1326L53.7118 92.1402L55.0635 89.4619ZM45.4395 73.1582V70.1582H42.4635L42.4396 73.134L45.4395 73.1582ZM59.8535 73.1582L62.8532 73.116L62.8116 70.1582H59.8535V73.1582ZM66.7529 80.4092L66.6719 83.4081L66.6807 83.4083L66.7529 80.4092ZM76.5527 72.3672L79.5219 72.7965L79.5239 72.7823L79.5258 72.7681L76.5527 72.3672ZM75.3662 66.2588L72.9606 68.0512L72.9803 68.0778L73.0007 68.1039L75.3662 66.2588ZM69.7412 63.8857L69.8412 60.8874L69.7997 60.886L69.7583 60.8858L69.7412 63.8857ZM62.0068 63.8418L59.0424 63.3812L58.5078 66.822L61.9898 66.8417L62.0068 63.8418ZM63.7003 55.8115L70.1603 55.8554L70.2011 49.8555L63.7411 49.8116L63.7003 55.8115ZM70.2473 55.8547C73.452 55.7835 76.3275 54.839 78.6434 52.8425L74.7258 48.2981C73.6432 49.2313 72.1828 49.8102 70.114 49.8562L70.2473 55.8547ZM78.6656 52.8232C81.0189 50.7539 82.3018 47.9438 82.6951 44.6901L76.7385 43.9701C76.4872 46.0484 75.7487 47.3984 74.7036 48.3174L78.6656 52.8232ZM82.6962 44.6806C83.0023 42.0789 82.506 39.5871 80.8781 37.5406L76.1825 41.2758C76.6054 41.8074 76.9 42.5969 76.7373 43.9796L82.6962 44.6806ZM80.8781 37.5406C79.1584 35.3787 76.6678 34.4697 73.9589 34.431L73.8732 40.4304C75.2658 40.4503 75.8514 40.8596 76.1825 41.2758L80.8781 37.5406ZM74.0083 34.4321C71.4435 34.3532 69.0798 35.0794 67.0471 36.6242L70.6776 41.4012C71.5745 40.7195 72.58 40.391 73.8238 40.4292L74.0083 34.4321ZM67.0471 36.6242C65.0005 38.1796 63.6807 40.2829 63.1212 42.8004L68.9784 44.102C69.2392 42.928 69.7945 42.0723 70.6776 41.4012L67.0471 36.6242ZM66.0316 40.4512L51.5297 40.5391L51.566 46.539L66.068 46.4511L66.0316 40.4512ZM54.544 43.6914C54.6898 40.8243 55.5978 38.3517 57.2656 36.1836L52.5098 32.5254C50.076 35.6893 48.7575 39.3398 48.5517 43.3867L54.544 43.6914ZM57.2656 36.1836C58.9704 33.9674 61.2605 32.2196 64.2289 30.9657L61.8942 25.4386C58.0657 27.0558 54.9066 29.4096 52.5098 32.5254L57.2656 36.1836ZM64.2404 30.9608C67.2686 29.6667 70.534 29.0224 74.0694 29.0487L74.1142 23.0489C69.798 23.0167 65.71 23.8079 61.8826 25.4435L64.2404 30.9608ZM74.0236 29.0481C79.9848 29.1835 84.2985 30.7413 87.3138 33.3976L91.28 28.8954C86.9124 25.0478 81.0894 23.2071 74.16 23.0496L74.0236 29.0481ZM87.3239 33.4064C90.2374 35.95 91.6293 39.3155 91.3559 43.8874L97.3452 44.2454C97.7165 38.036 95.7391 32.7883 91.2698 28.8865L87.3239 33.4064ZM91.3565 43.8775C91.0695 48.4254 88.1814 52.4299 81.256 55.6762L83.8026 61.109C91.8772 57.324 96.8699 51.7777 97.3446 44.2554L91.3565 43.8775ZM81.1988 61.0814C83.5623 62.251 85.2105 63.8025 86.2891 65.7125L91.5136 62.7621C89.7797 59.6917 87.1799 57.3467 83.8598 55.7038L81.1988 61.0814ZM86.2891 65.7125C87.3911 67.6639 87.9171 69.907 87.7943 72.5348L93.7877 72.8148C93.9579 69.1731 93.2241 65.7912 91.5136 62.7621L86.2891 65.7125ZM87.7951 72.5183C87.6201 75.8676 86.5745 78.6971 84.6902 81.1129L89.4212 84.8031C92.1072 81.3595 93.5517 77.3335 93.7869 72.8313L87.7951 72.5183ZM84.6992 81.1014C82.771 83.5487 80.1495 85.4976 76.7278 86.908L79.0144 92.4552C83.2684 90.7017 86.77 88.1681 89.4121 84.8146L84.6992 81.1014ZM76.7459 86.9006C73.3071 88.2919 69.5966 88.9598 65.5824 88.8795L65.4625 94.8783C70.2373 94.9738 74.7593 94.1768 78.9962 92.4627L76.7459 86.9006ZM65.5454 88.879C62.1256 88.8529 59.1003 88.1388 56.4151 86.7837L53.7118 92.1402C57.2961 93.9491 61.2436 94.8463 65.4996 94.8788L65.5454 88.879ZM56.4452 86.799C53.8007 85.4269 51.8439 83.5918 50.48 81.2946L45.3208 84.3578C47.2967 87.6856 50.1153 90.2743 53.6818 92.1248L56.4452 86.799ZM50.48 81.2946C49.1196 79.0034 48.414 76.3303 48.4394 73.1824L42.4396 73.134C42.4063 77.2518 43.3413 81.0239 45.3208 84.3578L50.48 81.2946ZM45.4395 76.1582H59.8535V70.1582H45.4395V76.1582ZM56.8538 73.2005C56.8916 75.8854 57.7061 78.3285 59.4597 80.2959L63.9388 76.3037C63.29 75.5758 62.874 74.5911 62.8532 73.116L56.8538 73.2005ZM59.4597 80.2959C61.3206 82.3838 63.8568 83.332 66.6719 83.4081L66.834 77.4103C65.3131 77.3692 64.4802 76.9112 63.9388 76.3037L59.4597 80.2959ZM66.6807 83.4083C69.805 83.4836 72.6482 82.5419 75.0825 80.602L71.3433 75.9097C70.0276 76.9581 68.5642 77.452 66.8252 77.4101L66.6807 83.4083ZM75.0825 80.602C77.5708 78.6192 79.0641 75.9629 79.5219 72.7965L73.5836 71.9379C73.3383 73.6347 72.605 74.9042 71.3433 75.9097L75.0825 80.602ZM79.5258 72.7681C79.9397 69.6983 79.547 66.741 77.7317 64.4137L73.0007 68.1039C73.4705 68.7062 73.8689 69.8212 73.5796 71.9663L79.5258 72.7681ZM77.7719 64.4663C75.9132 61.9719 72.992 60.9924 69.8412 60.8874L69.6413 66.8841C71.7638 66.9548 72.5926 67.5574 72.9606 68.0512L77.7719 64.4663ZM69.7583 60.8858L62.0239 60.8418L61.9898 66.8417L69.7242 66.8857L69.7583 60.8858ZM64.9713 64.3024L66.6851 53.2721L60.7563 52.3509L59.0424 63.3812L64.9713 64.3024ZM147.48 35.585L150.087 37.0694L150.358 36.595L150.443 36.056L147.48 35.585ZM115.928 91V94H117.672L118.535 92.4844L115.928 91ZM100.107 91L97.5325 89.4606L94.8187 94H100.107V91ZM131.528 38.4414L134.103 39.9808L136.817 35.4414H131.528V38.4414ZM102.217 38.4414L99.2552 37.963L98.6933 41.4414H102.217V38.4414ZM104.062 27.0156V24.0156H101.508L101.101 26.5372L104.062 27.0156ZM148.843 27.0156L151.806 27.4866L152.357 24.0156H148.843V27.0156ZM144.873 34.1006L113.321 89.5156L118.535 92.4844L150.087 37.0694L144.873 34.1006ZM115.928 88H100.107V94H115.928V88ZM102.682 92.5394L134.103 39.9808L128.953 36.902L97.5325 89.4606L102.682 92.5394ZM131.528 35.4414H102.217V41.4414H131.528V35.4414ZM105.178 38.9198L107.024 27.494L101.101 26.5372L99.2552 37.963L105.178 38.9198ZM104.062 30.0156H148.843V24.0156H104.062V30.0156ZM145.88 26.5446L144.518 35.114L150.443 36.056L151.806 27.4866L145.88 26.5446Z" fill="#EF3829"/>
</g>
<defs>
<filter id="filter0_f" x="8" y="81" width="156" height="26" filterUnits="userSpaceOnUse" color-interpolation-filters="sRGB">
<feFlood flood-opacity="0" result="BackgroundImageFix"/>
<feBlend mode="normal" in="SourceGraphic" in2="BackgroundImageFix" result="shape"/>
<feGaussianBlur stdDeviation="5" result="effect1_foregroundBlur"/>
</filter>
<clipPath id="clip0">
<rect width="277" height="105.82" fill="white"/>
</clipPath>
</defs>
</svg>
