<svg width="277" height="106" viewBox="0 0 277 106" fill="none" xmlns="http://www.w3.org/2000/svg">
<path d="M141.364 86.4291C140.579 87.3483 139.435 88.0616 137.932 88.5691C136.428 89.067 134.762 89.3016 132.933 89.2729C131.181 89.2537 129.702 88.8133 128.495 87.9515C127.289 87.0898 126.427 85.8881 125.91 84.3465C125.393 82.805 125.254 81.0671 125.494 79.1329L125.609 78.2712C126.049 75.0253 127.188 72.4544 129.027 70.5585C130.875 68.6627 133.135 67.7387 135.806 67.7865C138.142 67.8248 139.938 68.452 141.192 69.668C142.446 70.8841 143.145 72.6411 143.289 74.9391L138.578 74.9247C138.511 73.8044 138.233 72.9858 137.745 72.4687C137.266 71.9517 136.582 71.6788 135.691 71.6501C134.37 71.6022 133.278 72.124 132.416 73.2156C131.555 74.2976 130.966 75.8487 130.65 77.869C130.382 79.5925 130.286 80.933 130.363 81.8905C130.506 84.1981 131.545 85.3663 133.479 85.395C134.647 85.4142 135.672 85.1317 136.553 84.5476L137.199 81.2873H133.795L134.398 77.8259H142.714L141.364 86.4291ZM148.862 89H143.95L147.583 68.0882H152.481L148.862 89ZM169.716 86.4291C168.931 87.3483 167.787 88.0616 166.283 88.5691C164.78 89.067 163.114 89.3016 161.285 89.2729C159.533 89.2537 158.054 88.8133 156.847 87.9515C155.641 87.0898 154.779 85.8881 154.262 84.3465C153.745 82.805 153.606 81.0671 153.845 79.1329L153.96 78.2712C154.401 75.0253 155.54 72.4544 157.379 70.5585C159.227 68.6627 161.486 67.7387 164.158 67.7865C166.494 67.8248 168.289 68.452 169.544 69.668C170.798 70.8841 171.497 72.6411 171.641 74.9391L166.93 74.9247C166.863 73.8044 166.585 72.9858 166.097 72.4687C165.618 71.9517 164.933 71.6788 164.043 71.6501C162.721 71.6022 161.63 72.124 160.768 73.2156C159.906 74.2976 159.317 75.8487 159.001 77.869C158.733 79.5925 158.638 80.933 158.714 81.8905C158.858 84.1981 159.897 85.3663 161.831 85.395C162.999 85.4142 164.024 85.1317 164.904 84.5476L165.551 81.2873H162.147L162.75 77.8259H171.066L169.716 86.4291ZM184.251 85.0934H177.572L175.719 89H170.305L181.378 68.0882H186.003L189.867 89H184.754L184.251 85.0934ZM179.411 81.2011H183.748L182.829 73.9912L179.411 81.2011ZM203.051 83.3412C203.262 82.2592 202.678 81.4214 201.299 80.8277L198.944 79.8511C195.64 78.3669 194.07 76.3466 194.233 73.7901C194.3 72.6219 194.702 71.583 195.439 70.6734C196.177 69.7542 197.196 69.0409 198.498 68.5334C199.801 68.0259 201.223 67.7818 202.764 67.8009C204.832 67.8392 206.494 68.4424 207.748 69.6106C209.012 70.7787 209.634 72.3442 209.615 74.3071H204.732C204.761 73.5028 204.588 72.8613 204.215 72.3825C203.851 71.8942 203.248 71.6405 202.405 71.6213C201.582 71.6022 200.854 71.7937 200.222 72.1958C199.59 72.598 199.217 73.139 199.102 73.8188C198.92 74.7763 199.628 75.5615 201.227 76.1743C202.836 76.7871 204.004 77.3137 204.732 77.7541C207.02 79.1234 208.093 80.9713 207.949 83.2981C207.872 84.5045 207.485 85.5626 206.786 86.4722C206.087 87.3818 205.115 88.0856 203.87 88.5835C202.635 89.0814 201.246 89.3208 199.705 89.3016C198.575 89.2825 197.527 89.1053 196.56 88.7702C195.592 88.4351 194.764 87.9467 194.075 87.3052C192.677 86.0126 192.007 84.313 192.064 82.2065L196.99 82.2209C196.933 83.2933 197.139 84.1072 197.608 84.6625C198.077 85.2083 198.867 85.4812 199.978 85.4812C200.801 85.4812 201.486 85.2945 202.032 84.921C202.587 84.538 202.927 84.0114 203.051 83.3412Z" fill="#BBBBBB"/>
<path d="M86.3553 52.5569L92.6892 52.6C95.2744 52.5425 97.4001 51.7957 99.0662 50.3594C100.732 48.8944 101.723 46.855 102.039 44.241C102.269 42.2877 101.881 40.6791 100.876 39.4152C99.8705 38.1513 98.3624 37.5049 96.3516 37.4762C94.4845 37.4188 92.8328 37.9358 91.3966 39.0274C89.9603 40.1189 89.0411 41.5695 88.639 43.3792L74.4201 43.4654C74.5924 40.0758 75.684 37.0741 77.6947 34.4601C79.7055 31.8461 82.3769 29.8354 85.709 28.4278C89.0698 26.9916 92.6748 26.2878 96.524 26.3165C102.844 26.4602 107.813 28.1262 111.432 31.3147C115.052 34.4744 116.703 38.697 116.387 43.9824C116.014 49.8998 112.15 54.582 104.797 58.029C107.583 59.4078 109.666 61.318 111.045 63.7597C112.423 66.2013 113.041 68.9589 112.897 72.0325C112.696 75.8816 111.475 79.2425 109.235 82.115C106.994 84.9588 103.993 87.1562 100.23 88.7074C96.4665 90.2298 92.4307 90.9479 88.1219 90.8618C84.3589 90.833 80.9406 90.0431 77.8671 88.4919C74.8222 86.9121 72.4811 84.7433 70.8438 81.9857C69.2065 79.2281 68.4022 76.0683 68.4309 72.5064H82.5636C82.5923 74.5459 83.1956 76.2263 84.3733 77.5477C85.551 78.869 87.2027 79.5584 89.3284 79.6159C91.7125 79.6733 93.8238 78.9696 95.6622 77.5046C97.5006 76.0396 98.5922 74.115 98.9369 71.7309C99.2816 69.1743 98.8938 67.1779 97.7735 65.7417C96.682 64.2767 94.8436 63.5011 92.2583 63.415L84.6749 63.3719L86.3553 52.5569Z" fill="#EF3829"/>
<path d="M86.3553 52.5569L86.3753 49.6155L83.8383 49.5982L83.4487 52.1053L86.3553 52.5569ZM92.6892 52.6L92.6692 55.5413L92.7119 55.5416L92.7545 55.5407L92.6892 52.6ZM99.0662 50.3594L100.987 52.5873L100.998 52.5779L101.009 52.5683L99.0662 50.3594ZM102.039 44.241L104.959 44.594L104.961 44.5847L102.039 44.241ZM96.3516 37.4762L96.2612 40.4163L96.2854 40.417L96.3096 40.4174L96.3516 37.4762ZM88.639 43.3792L88.6568 46.3206L91.0017 46.3064L91.5104 44.0173L88.639 43.3792ZM74.4201 43.4654L71.4824 43.316L71.3243 46.4257L74.4379 46.4068L74.4201 43.4654ZM85.709 28.4278L86.8536 31.1375L86.8649 31.1326L85.709 28.4278ZM96.524 26.3165L96.5908 23.3758L96.5684 23.3753L96.5459 23.3752L96.524 26.3165ZM111.432 31.3147L109.488 33.5219L109.498 33.5305L111.432 31.3147ZM116.387 43.9824L119.323 44.1677L119.324 44.158L116.387 43.9824ZM104.797 58.029L103.548 55.3656L98.0196 57.9572L103.492 60.6653L104.797 58.029ZM112.897 72.0325L115.835 72.1859L115.835 72.1778L115.836 72.1698L112.897 72.0325ZM109.235 82.115L111.545 83.9353L111.55 83.9297L111.554 83.9241L109.235 82.115ZM100.23 88.7074L101.333 91.4341L101.342 91.4305L101.351 91.4268L100.23 88.7074ZM88.1219 90.8618L88.1807 87.9209L88.1625 87.9205L88.1444 87.9204L88.1219 90.8618ZM77.8671 88.4919L76.5123 91.1028L76.527 91.1105L76.5418 91.1179L77.8671 88.4919ZM68.4309 72.5064V69.565H65.5131L65.4895 72.4827L68.4309 72.5064ZM82.5636 72.5064L85.5048 72.465L85.4639 69.565H82.5636V72.5064ZM89.3284 79.6159L89.2489 82.5563L89.2575 82.5565L89.3284 79.6159ZM98.9369 71.7309L101.848 72.1518L101.85 72.1378L101.852 72.1239L98.9369 71.7309ZM97.7735 65.7417L95.4148 67.4991L95.4342 67.5252L95.4542 67.5508L97.7735 65.7417ZM92.2583 63.415L92.3563 60.4751L92.3157 60.4738L92.275 60.4736L92.2583 63.415ZM84.6749 63.3719L81.7683 62.9202L81.2441 66.2939L84.6582 66.3133L84.6749 63.3719ZM86.3353 55.4983L92.6692 55.5413L92.7092 49.6586L86.3753 49.6155L86.3353 55.4983ZM92.7545 55.5407C95.8967 55.4709 98.716 54.5448 100.987 52.5873L97.1456 48.1315C96.0842 49.0465 94.6522 49.6142 92.6238 49.6592L92.7545 55.5407ZM101.009 52.5683C103.316 50.5394 104.574 47.7841 104.959 44.594L99.119 43.888C98.8727 45.9258 98.1485 47.2494 97.1238 48.1505L101.009 52.5683ZM104.961 44.5847C105.261 42.0337 104.774 39.5906 103.178 37.584L98.5739 41.2463C98.9885 41.7676 99.2774 42.5416 99.1179 43.8973L104.961 44.5847ZM103.178 37.584C101.492 35.4643 99.0497 34.573 96.3937 34.5351L96.3096 40.4174C97.6751 40.4369 98.2493 40.8382 98.5739 41.2463L103.178 37.584ZM96.4421 34.5362C93.9273 34.4588 91.6098 35.1708 89.6167 36.6855L93.1764 41.3692C94.0559 40.7008 95.0417 40.3788 96.2612 40.4163L96.4421 34.5362ZM89.6167 36.6855C87.6101 38.2106 86.3161 40.2728 85.7676 42.7411L91.5104 44.0173C91.7661 42.8663 92.3105 42.0273 93.1764 41.3692L89.6167 36.6855ZM88.6211 40.4378L74.4022 40.524L74.4379 46.4068L88.6568 46.3206L88.6211 40.4378ZM77.3577 43.6148C77.5006 40.8036 78.3909 38.3793 80.0262 36.2535L75.3632 32.6667C72.977 35.7688 71.6842 39.3481 71.4824 43.316L77.3577 43.6148ZM80.0262 36.2535C81.6977 34.0806 83.9431 32.3669 86.8536 31.1374L84.5644 25.7182C80.8107 27.3038 77.7132 29.6117 75.3632 32.6667L80.0262 36.2535ZM86.8649 31.1326C89.8339 29.8638 93.0357 29.232 96.502 29.2579L96.5459 23.3752C92.314 23.3436 88.3057 24.1193 84.5531 25.723L86.8649 31.1326ZM96.4572 29.2572C102.302 29.3901 106.532 30.9174 109.488 33.5218L113.377 29.1076C109.094 25.335 103.385 23.5303 96.5908 23.3758L96.4572 29.2572ZM109.498 33.5305C112.355 36.0245 113.719 39.3243 113.451 43.8069L119.324 44.158C119.688 38.0698 117.749 32.9244 113.367 29.0988L109.498 33.5305ZM113.452 43.7972C113.17 48.2564 110.339 52.1827 103.548 55.3656L106.045 60.6924C113.962 56.9813 118.858 51.5432 119.323 44.1677L113.452 43.7972ZM103.492 60.6653C105.81 61.8121 107.426 63.3333 108.483 65.206L113.606 62.3133C111.906 59.3027 109.357 57.0035 106.101 55.3927L103.492 60.6653ZM108.483 65.206C109.564 67.1194 110.079 69.3187 109.959 71.8952L115.836 72.1698C116.002 68.5991 115.283 65.2832 113.606 62.3133L108.483 65.206ZM109.96 71.879C109.788 75.163 108.763 77.9372 106.915 80.3059L111.554 83.9241C114.188 80.5477 115.604 76.6003 115.835 72.1859L109.96 71.879ZM106.924 80.2946C105.034 82.6941 102.463 84.605 99.1085 85.9879L101.351 91.4268C105.522 89.7075 108.955 87.2234 111.545 83.9353L106.924 80.2946ZM99.1263 85.9806C95.7546 87.3448 92.1166 87.9996 88.1807 87.9209L88.0631 93.8026C92.7448 93.8962 97.1784 93.1148 101.333 91.4341L99.1263 85.9806ZM88.1444 87.9204C84.7913 87.8948 81.8251 87.1947 79.1923 85.866L76.5418 91.1179C80.0562 92.8915 83.9265 93.7713 88.0995 93.8031L88.1444 87.9204ZM79.2218 85.881C76.6289 84.5357 74.7104 82.7364 73.373 80.484L68.3146 83.4874C70.2519 86.7503 73.0155 89.2884 76.5123 91.1028L79.2218 85.881ZM73.373 80.484C72.0392 78.2376 71.3473 75.6166 71.3722 72.5302L65.4895 72.4827C65.457 76.5201 66.3737 80.2186 68.3146 83.4874L73.373 80.484ZM68.4309 75.4479H82.5636V69.565H68.4309V75.4479ZM79.6225 72.5479C79.6595 75.1804 80.4581 77.5758 82.1775 79.5048L86.5691 75.5905C85.933 74.8769 85.5251 73.9114 85.5048 72.465L79.6225 72.5479ZM82.1775 79.5048C84.002 81.5519 86.4888 82.4817 89.2489 82.5563L89.4078 76.6755C87.9166 76.6352 87.1 76.1862 86.5691 75.5905L82.1775 79.5048ZM89.2575 82.5565C92.3208 82.6303 95.1086 81.707 97.4954 79.805L93.8291 75.2042C92.5391 76.2322 91.1042 76.7164 89.3992 76.6753L89.2575 82.5565ZM97.4954 79.805C99.9351 77.8608 101.399 75.2564 101.848 72.1518L96.0257 71.31C95.7852 72.9737 95.0662 74.2184 93.8291 75.2042L97.4954 79.805ZM101.852 72.1239C102.258 69.1141 101.873 66.2145 100.093 63.9326L95.4542 67.5508C95.9149 68.1414 96.3054 69.2346 96.0218 71.3378L101.852 72.1239ZM100.132 63.9842C98.3099 61.5384 95.4457 60.5781 92.3563 60.4751L92.1603 66.3548C94.2414 66.4241 95.0541 67.015 95.4148 67.4991L100.132 63.9842ZM92.275 60.4736L84.6916 60.4305L84.6582 66.3133L92.2416 66.3564L92.275 60.4736ZM87.5815 63.8235L89.2619 53.0085L83.4487 52.1053L81.7683 62.9202L87.5815 63.8235Z" fill="#EF3829"/>
</svg>
