<svg width="277" height="106" viewBox="0 0 277 106" fill="none" xmlns="http://www.w3.org/2000/svg">
<g clip-path="url(#clip0)">
<g filter="url(#filter0_f)">
<ellipse cx="101" cy="94" rx="68" ry="3" fill="#C4C4C4" fill-opacity="0.5"/>
</g>
<path d="M101.572 66.9951H107.856L105.879 78.4209H99.5947L97.2217 92H82.7637L85.1367 78.4209H61.1865L61.9775 68.665L93.3984 28.1475V27.8398L108.34 28.0596L101.572 66.9951ZM76.2158 66.9072L87.1143 66.9951L90.9814 47.1318L76.2158 66.9072ZM132.554 92.8789C128.921 92.791 125.742 91.9414 123.018 90.3301C120.322 88.6895 118.242 86.3018 116.777 83.167C115.312 80.0029 114.521 76.4141 114.404 72.4004C114.316 70.2324 114.404 68.0498 114.668 65.8525L116.338 54.6904C117.686 45.6963 120.571 38.8262 124.995 34.0801C129.419 29.3047 135.059 26.9902 141.914 27.1367C147.48 27.2539 151.831 29.1289 154.966 32.7617C158.13 36.3945 159.829 41.3457 160.063 47.6152C160.122 49.7832 160.02 51.9658 159.756 54.1631L157.998 65.5449C156.592 74.6562 153.677 81.5264 149.253 86.1553C144.858 90.7842 139.292 93.0254 132.554 92.8789ZM145.605 52.1855C145.869 50.1348 146.016 48.333 146.045 46.7803C146.045 41.4189 144.346 38.6504 140.947 38.4746C135.732 38.2109 132.495 42.6787 131.235 51.8779L128.906 67.6982C128.613 70.1299 128.467 71.9316 128.467 73.1035C128.32 78.5234 130.005 81.3359 133.521 81.541C138.823 81.8047 142.09 77.2197 143.32 67.7861L145.605 52.1855Z" fill="#EF3829"/>
<path d="M101.572 66.9951L98.6166 66.4814L98.0058 69.9951H101.572V66.9951ZM107.856 66.9951L110.812 67.5067L111.42 63.9951H107.856V66.9951ZM105.879 78.4209V81.4209H108.404L108.835 78.9325L105.879 78.4209ZM99.5947 78.4209V75.4209H97.0735L96.6395 77.9045L99.5947 78.4209ZM97.2217 92V95H99.7429L100.177 92.5164L97.2217 92ZM82.7637 92L79.8085 91.4836L79.1939 95H82.7637V92ZM85.1367 78.4209L88.0919 78.9373L88.7065 75.4209H85.1367V78.4209ZM61.1865 78.4209L58.1963 78.1785L57.9334 81.4209H61.1865V78.4209ZM61.9775 68.665L59.6069 66.8266L59.0595 67.5324L58.9874 68.4226L61.9775 68.665ZM93.3984 28.1475L95.7691 29.9859L96.3984 29.1744V28.1475H93.3984ZM93.3984 27.8398L93.4426 24.8402L90.3984 24.7954V27.8398H93.3984ZM108.34 28.0596L111.296 28.5733L111.897 25.1116L108.384 25.0599L108.34 28.0596ZM76.2158 66.9072L73.812 65.1124L70.2676 69.8594L76.1916 69.9071L76.2158 66.9072ZM87.1143 66.9951L87.0901 69.995L89.5826 70.0151L90.059 67.5684L87.1143 66.9951ZM90.9814 47.1318L93.9262 47.7051L88.5776 45.337L90.9814 47.1318ZM101.572 69.9951H107.856V63.9951H101.572V69.9951ZM104.9 66.4835L102.923 77.9093L108.835 78.9325L110.812 67.5067L104.9 66.4835ZM105.879 75.4209H99.5947V81.4209H105.879V75.4209ZM96.6395 77.9045L94.2665 91.4836L100.177 92.5164L102.55 78.9373L96.6395 77.9045ZM97.2217 89H82.7637V95H97.2217V89ZM85.7189 92.5164L88.0919 78.9373L82.1815 77.9045L79.8085 91.4836L85.7189 92.5164ZM85.1367 75.4209H61.1865V81.4209H85.1367V75.4209ZM64.1767 78.6633L64.9677 68.9075L58.9874 68.4226L58.1963 78.1785L64.1767 78.6633ZM64.3482 70.5035L95.7691 29.9859L91.0278 26.309L59.6069 66.8266L64.3482 70.5035ZM96.3984 28.1475V27.8398H90.3984V28.1475H96.3984ZM93.3543 30.8395L108.296 31.0592L108.384 25.0599L93.4426 24.8402L93.3543 30.8395ZM105.384 27.5458L98.6166 66.4814L104.528 67.5089L111.296 28.5733L105.384 27.5458ZM76.1916 69.9071L87.0901 69.995L87.1385 63.9952L76.24 63.9073L76.1916 69.9071ZM90.059 67.5684L93.9262 47.7051L88.0367 46.5585L84.1695 66.4218L90.059 67.5684ZM88.5776 45.337L73.812 65.1124L78.6197 68.7021L93.3853 48.9267L88.5776 45.337ZM132.554 92.8789L132.481 95.878L132.489 95.8782L132.554 92.8789ZM123.018 90.3301L121.458 92.8927L121.474 92.9026L121.49 92.9123L123.018 90.3301ZM116.777 83.167L114.055 84.4274L114.059 84.437L116.777 83.167ZM114.404 72.4004L117.403 72.3128L117.403 72.2958L117.402 72.2789L114.404 72.4004ZM114.668 65.8525L111.701 65.4087L111.695 65.4518L111.689 65.4951L114.668 65.8525ZM116.338 54.6904L113.371 54.2459L113.371 54.2466L116.338 54.6904ZM124.995 34.0801L127.19 36.1256L127.196 36.1188L124.995 34.0801ZM141.914 27.1367L141.85 30.136L141.851 30.1361L141.914 27.1367ZM154.966 32.7617L152.695 34.7216L152.704 34.7321L154.966 32.7617ZM160.063 47.6152L163.062 47.5342L163.062 47.5187L163.061 47.5032L160.063 47.6152ZM159.756 54.1631L162.721 54.621L162.728 54.5709L162.734 54.5205L159.756 54.1631ZM157.998 65.5449L155.033 65.087L155.033 65.0873L157.998 65.5449ZM149.253 86.1553L147.084 84.0825L147.077 84.0897L149.253 86.1553ZM145.605 52.1855L148.574 52.6203L148.578 52.5943L148.581 52.5681L145.605 52.1855ZM146.045 46.7803L149.044 46.8369L149.045 46.8086V46.7803H146.045ZM140.947 38.4746L141.102 35.4786L141.099 35.4784L140.947 38.4746ZM131.235 51.8779L134.203 52.3149L134.206 52.2999L134.208 52.285L131.235 51.8779ZM128.906 67.6982L125.938 67.2613L125.933 67.3003L125.928 67.3394L128.906 67.6982ZM128.467 73.1035L131.466 73.1846L131.467 73.144V73.1035H128.467ZM133.521 81.541L133.346 84.5359L133.359 84.5367L133.372 84.5373L133.521 81.541ZM143.32 67.7861L140.352 67.3513L140.349 67.3747L140.346 67.3981L143.32 67.7861ZM132.626 89.8798C129.429 89.8024 126.766 89.0617 124.545 87.7479L121.49 92.9123C124.718 94.8211 128.413 95.7796 132.481 95.878L132.626 89.8798ZM124.577 87.7675C122.436 86.4638 120.735 84.5501 119.495 81.8969L114.059 84.437C115.749 88.0534 118.209 90.9152 121.458 92.8927L124.577 87.7675ZM119.5 81.9066C118.229 79.1624 117.51 75.9819 117.403 72.3128L111.406 72.4879C111.533 76.8462 112.396 80.8434 114.055 84.4274L119.5 81.9066ZM117.402 72.2789C117.321 70.274 117.402 68.2515 117.647 66.21L111.689 65.4951C111.407 67.8481 111.312 70.1909 111.407 72.5219L117.402 72.2789ZM117.635 66.2964L119.305 55.1343L113.371 54.2466L111.701 65.4087L117.635 66.2964ZM119.305 55.135C120.597 46.5077 123.315 40.2828 127.19 36.1256L122.801 32.0346C117.828 37.3695 114.774 44.8848 113.371 54.2459L119.305 55.135ZM127.196 36.1188C131.002 32.0098 135.8 30.0068 141.85 30.136L141.978 24.1374C134.317 23.9737 127.835 26.5996 122.794 32.0413L127.196 36.1188ZM141.851 30.1361C146.717 30.2385 150.206 31.838 152.695 34.7216L157.237 30.8018C153.456 26.4198 148.244 24.2693 141.977 24.1374L141.851 30.1361ZM152.704 34.7321C155.297 37.7092 156.849 41.9337 157.066 47.7273L163.061 47.5032C162.809 40.7577 160.963 35.0798 157.228 30.7914L152.704 34.7321ZM157.065 47.6963C157.119 49.7148 157.024 51.7509 156.777 53.8057L162.734 54.5205C163.015 52.1808 163.125 49.8516 163.062 47.5342L157.065 47.6963ZM156.791 53.7052L155.033 65.087L160.963 66.0028L162.721 54.621L156.791 53.7052ZM155.033 65.0873C153.681 73.8473 150.934 80.054 147.084 84.0825L151.422 88.228C156.419 82.9987 159.502 75.4652 160.963 66.0025L155.033 65.0873ZM147.077 84.0897C143.301 88.0679 138.565 90.0089 132.619 89.8796L132.489 95.8782C140.019 96.0419 146.416 93.5005 151.429 88.2208L147.077 84.0897ZM148.581 52.5681C148.854 50.4422 149.012 48.5275 149.044 46.8369L143.045 46.7237C143.019 48.1386 142.884 49.8273 142.63 51.803L148.581 52.5681ZM149.045 46.7803C149.045 43.8682 148.599 41.1849 147.327 39.1136C145.932 36.8407 143.732 35.6147 141.102 35.4786L140.792 41.4706C141.561 41.5103 141.909 41.7565 142.214 42.2521C142.642 42.9494 143.045 44.331 143.045 46.7803H149.045ZM141.099 35.4784C137.41 35.2919 134.353 36.8673 132.179 39.8674C130.136 42.6864 128.92 46.6755 128.263 51.4709L134.208 52.285C134.811 47.8812 135.843 45.0368 137.037 43.3879C138.101 41.9203 139.269 41.3936 140.796 41.4708L141.099 35.4784ZM128.267 51.441L125.938 67.2613L131.874 68.1352L134.203 52.3149L128.267 51.441ZM125.928 67.3394C125.632 69.791 125.467 71.7418 125.467 73.1035H131.467C131.467 72.1214 131.594 70.4687 131.885 68.0571L125.928 67.3394ZM125.468 73.0225C125.388 75.9681 125.777 78.6994 127.047 80.8193C128.442 83.1492 130.684 84.3807 133.346 84.5359L133.695 78.5461C132.841 78.4963 132.483 78.219 132.194 77.7363C131.779 77.0438 131.399 75.6589 131.466 73.1846L125.468 73.0225ZM133.372 84.5373C137.116 84.7235 140.207 83.106 142.391 80.0408C144.443 77.1607 145.655 73.0839 146.295 68.1742L140.346 67.3981C139.755 71.922 138.719 74.8544 137.504 76.5593C136.421 78.0791 135.227 78.6222 133.669 78.5447L133.372 84.5373ZM146.289 68.2209L148.574 52.6203L142.637 51.7508L140.352 67.3513L146.289 68.2209Z" fill="#EF3829"/>
<path d="M178.71 91.3779C177.909 92.3154 176.742 93.043 175.209 93.5605C173.676 94.0684 171.977 94.3076 170.111 94.2783C168.324 94.2588 166.815 93.8096 165.585 92.9307C164.354 92.0518 163.476 90.8262 162.948 89.2539C162.421 87.6816 162.279 85.9092 162.523 83.9365L162.641 83.0576C163.09 79.7471 164.252 77.125 166.127 75.1914C168.012 73.2578 170.316 72.3154 173.041 72.3643C175.424 72.4033 177.255 73.043 178.534 74.2832C179.813 75.5234 180.526 77.3154 180.673 79.6592L175.868 79.6445C175.8 78.502 175.517 77.667 175.019 77.1396C174.53 76.6123 173.832 76.334 172.924 76.3047C171.576 76.2559 170.463 76.7881 169.584 77.9014C168.705 79.0049 168.104 80.5869 167.782 82.6475C167.509 84.4053 167.411 85.7725 167.489 86.749C167.636 89.1025 168.695 90.2939 170.668 90.3232C171.859 90.3428 172.904 90.0547 173.803 89.459L174.462 86.1338H170.99L171.605 82.6035H180.087L178.71 91.3779ZM186.356 94H181.347L185.053 72.6719H190.048L186.356 94ZM207.626 91.3779C206.825 92.3154 205.658 93.043 204.125 93.5605C202.592 94.0684 200.893 94.3076 199.027 94.2783C197.24 94.2588 195.731 93.8096 194.501 92.9307C193.271 92.0518 192.392 90.8262 191.864 89.2539C191.337 87.6816 191.195 85.9092 191.439 83.9365L191.557 83.0576C192.006 79.7471 193.168 77.125 195.043 75.1914C196.928 73.2578 199.232 72.3154 201.957 72.3643C204.34 72.4033 206.171 73.043 207.45 74.2832C208.729 75.5234 209.442 77.3154 209.589 79.6592L204.784 79.6445C204.716 78.502 204.433 77.667 203.935 77.1396C203.446 76.6123 202.748 76.334 201.84 76.3047C200.492 76.2559 199.379 76.7881 198.5 77.9014C197.621 79.0049 197.021 80.5869 196.698 82.6475C196.425 84.4053 196.327 85.7725 196.405 86.749C196.552 89.1025 197.611 90.2939 199.584 90.3232C200.775 90.3428 201.82 90.0547 202.719 89.459L203.378 86.1338H199.906L200.521 82.6035H209.003L207.626 91.3779ZM222.45 90.0156H215.639L213.749 94H208.227L219.521 72.6719H224.237L228.178 94H222.963L222.45 90.0156ZM217.514 86.0459H221.938L221 78.6924L217.514 86.0459ZM241.625 88.2285C241.84 87.125 241.244 86.2705 239.838 85.665L237.436 84.6689C234.066 83.1553 232.465 81.0947 232.631 78.4873C232.699 77.2959 233.109 76.2363 233.861 75.3086C234.613 74.3711 235.653 73.6436 236.981 73.126C238.31 72.6084 239.76 72.3594 241.332 72.3789C243.441 72.418 245.136 73.0332 246.415 74.2246C247.704 75.416 248.339 77.0127 248.319 79.0146H243.339C243.368 78.1943 243.192 77.54 242.812 77.0518C242.44 76.5537 241.825 76.2949 240.966 76.2754C240.126 76.2559 239.384 76.4512 238.739 76.8613C238.095 77.2715 237.714 77.8232 237.597 78.5166C237.411 79.4932 238.134 80.2939 239.765 80.9189C241.405 81.5439 242.597 82.0811 243.339 82.5303C245.673 83.9268 246.767 85.8115 246.62 88.1846C246.542 89.415 246.146 90.4941 245.434 91.4219C244.721 92.3496 243.729 93.0674 242.46 93.5752C241.2 94.083 239.784 94.3271 238.212 94.3076C237.06 94.2881 235.99 94.1074 235.004 93.7656C234.018 93.4238 233.173 92.9258 232.47 92.2715C231.044 90.9531 230.36 89.2197 230.419 87.0713L235.443 87.0859C235.385 88.1797 235.595 89.0098 236.073 89.5762C236.552 90.1328 237.357 90.4111 238.49 90.4111C239.33 90.4111 240.028 90.2207 240.585 89.8398C241.151 89.4492 241.498 88.9121 241.625 88.2285Z" fill="url(#paint0_linear)"/>
<g clip-path="url(#clip1)">
<path d="M69.0542 91.4114L69.1177 90.8465L69.9139 83.5755L68.7184 83.5058C68.6642 83.4835 68.6101 83.4612 68.5591 83.4825L68.5336 83.4931L54.3358 82.6544L55.5277 94.9437L68.6381 95.0395L69.0542 91.4114Z" fill="#262C38"/>
<path d="M63.6538 83.1958C63.9126 85.6451 64.577 91.8285 64.9262 95.0327L58.7607 94.9868L60.9113 83.0384L63.6538 83.1958Z" fill="#00F0E9"/>
<path opacity="0.19" d="M54.3358 82.6549L69.9033 83.5505L69.429 87.9356C64.5396 87.5071 59.6246 87.0892 54.7352 86.6607L54.3358 82.6549Z" fill="#248D8A"/>
<path d="M72.3648 80.9542L70.5165 84.9851L53.2057 84.4277L51.6341 80.1929L72.3648 80.9542Z" fill="#262C38"/>
<path d="M64.4578 80.6763L63.8231 84.7844L60.6198 84.6696L60.3849 80.5204L64.4578 80.6763Z" fill="#4D8493"/>
<path d="M62.7229 80.533C64.5756 80.4931 66.4176 80.0689 68.0748 79.2731C68.785 78.9321 69.5217 78.4753 69.7285 77.7161C69.9501 76.9208 69.5305 76.0939 69.1279 75.3794C69.0174 75.1862 68.9069 74.993 68.789 74.8179C68.4247 74.2669 67.9764 73.7659 67.351 73.5931C66.3603 73.3332 65.0376 74.0344 64.3488 74.7853C63.0146 76.2838 62.8338 78.4678 62.7091 80.4639C62.7378 80.4968 62.7303 80.5149 62.7229 80.533ZM62.9224 80.1507C63.4169 79.2565 64.1711 77.0128 67.3388 75.2133C67.444 75.5732 66.6671 76.4355 66.6056 76.7902C66.454 77.4666 66.0348 78.0751 65.537 78.5668C64.8046 79.3209 63.9076 79.8594 62.9224 80.1507Z" fill="#00F0E9"/>
<path d="M62.9224 80.1502C63.897 79.8335 64.812 79.3023 65.5295 78.5844C66.0273 78.0926 66.4465 77.4841 66.5982 76.8078C66.6851 76.4425 66.6744 76.0581 66.5692 75.6983C67.2591 75.2011 68.0129 74.8569 68.807 74.8248C68.9249 75 69.0354 75.1932 69.1459 75.3864C69.5666 76.1082 69.9862 76.9352 69.7465 77.7231C69.5217 78.4749 68.803 78.9391 68.0928 79.2801C66.4176 80.0684 64.5756 80.4926 62.741 80.5399C62.7229 80.5325 62.8004 80.3955 62.9224 80.1502Z" fill="#4D8493"/>
<path d="M55.532 78.2074C55.7966 78.9494 56.5792 79.3559 57.3013 79.6529C59.0236 80.3404 60.8839 80.6414 62.7334 80.558C62.4812 78.5545 61.7776 76.3655 60.3524 74.9559C59.6344 74.2384 58.6075 73.6048 57.6435 73.947C57.0289 74.1585 56.6213 74.6874 56.2966 75.2714C56.1969 75.4626 56.0897 75.6718 55.9899 75.8629C55.6132 76.5733 55.2461 77.4143 55.532 78.2074ZM58.5626 75.9715C60.4327 77.1208 61.941 79.3032 62.487 80.1822C61.4889 79.9404 60.5618 79.4746 59.7855 78.7964C59.2609 78.3273 58.7988 77.7573 58.5916 77.081C58.5044 76.7285 58.4756 76.3367 58.5626 75.9715Z" fill="#00F0E9"/>
<path d="M62.5126 80.1718C61.5145 79.93 60.5875 79.4642 59.8111 78.786C59.2865 78.3169 58.8244 77.7469 58.6172 77.0706C58.512 76.7107 58.5012 76.3263 58.5701 75.9537C57.8459 75.5079 57.0803 75.2141 56.2755 75.2207C56.1757 75.4118 56.0686 75.621 55.9688 75.8122C55.6027 76.5481 55.2282 77.4071 55.5141 78.2002C55.7787 78.9423 56.5613 79.3487 57.2834 79.6457C59.0057 80.3332 60.866 80.6342 62.7155 80.5508C62.7229 80.5327 62.6518 80.3979 62.5126 80.1718Z" fill="#4D8493"/>
<path d="M62.6645 80.5727C63.019 80.2753 63.8854 80.2729 64.2857 80.4798C64.6967 80.7122 64.9867 81.0848 65.2331 81.4606C65.4721 81.8544 65.7037 82.2663 66.0266 82.6102C66.4822 83.0931 67.1172 83.3966 67.7692 83.4537C67.0855 83.679 66.5888 84.4245 65.8488 84.4789C65.2574 84.5311 64.7253 84.08 64.4077 83.5694C64.1156 83.0482 63.9838 82.4452 63.768 81.8921C63.5778 81.3284 63.2315 80.7849 62.6645 80.5727Z" fill="#00F0E9"/>
<g opacity="0.25">
<path opacity="0.25" d="M62.6645 80.5727C63.019 80.2753 63.8854 80.2729 64.2857 80.4798C64.6967 80.7122 64.9867 81.0848 65.2331 81.4606C65.4721 81.8544 65.7037 82.2663 66.0266 82.6102C66.4822 83.0931 67.1172 83.3966 67.7692 83.4537C67.0855 83.679 66.5888 84.4245 65.8488 84.4789C65.2574 84.5311 64.7253 84.08 64.4077 83.5694C64.1156 83.0482 63.9838 82.4452 63.768 81.8921C63.5778 81.3284 63.2315 80.7849 62.6645 80.5727Z" fill="#00F0E9"/>
</g>
<path d="M67.6391 81.5643C67.9151 81.509 67.8396 81.0769 67.5636 81.1322C67.2875 81.1875 67.3631 81.6196 67.6391 81.5643Z" fill="#3CBCB5"/>
<path d="M69.8023 83.1286C70.1219 83.0701 70.0251 82.587 69.7056 82.6455C69.4041 82.7114 69.5008 83.1945 69.8023 83.1286Z" fill="#3CBCB5"/>
<path d="M70.6047 81.8964C70.6153 81.9219 70.6259 81.9474 70.6546 81.9803C70.7045 82.0642 70.78 82.1374 70.8299 82.2213C70.8766 82.2616 70.9233 82.3019 70.9849 82.3061C71.0465 82.3104 71.1155 82.2965 71.1558 82.2498C71.1813 82.2392 71.1962 82.2031 71.2036 82.185C71.2185 82.1489 71.2259 82.1309 71.2407 82.0948C71.2556 82.0587 71.245 82.0332 71.2343 82.0077C71.2237 81.9822 71.2131 81.9568 71.1844 81.9239C71.1345 81.84 71.0591 81.7668 71.0017 81.7009C70.955 81.6606 70.9008 81.6383 70.8467 81.6161C70.7851 81.6118 70.7341 81.6331 70.6758 81.6724C70.6503 81.683 70.6354 81.7191 70.628 81.7372C70.6132 81.7733 70.6057 81.7913 70.5909 81.8274C70.5909 81.8274 70.5941 81.8709 70.6047 81.8964Z" fill="#3CBCB5"/>
<path d="M55.8712 82.8215C56.1473 82.7662 56.0717 82.3341 55.7957 82.3894C55.5016 82.4373 55.5952 82.8768 55.8712 82.8215Z" fill="#3CBCB5"/>
<path d="M57.783 81.9203C58.1025 81.8618 58.0058 81.3787 57.6862 81.4372C57.3741 81.4776 57.4634 81.9787 57.783 81.9203Z" fill="#3CBCB5"/>
<path d="M58.8553 81.622C58.8659 81.6475 58.8766 81.673 58.9052 81.7059C58.9552 81.7897 59.0306 81.863 59.0805 81.9468C59.1272 81.9872 59.174 82.0275 59.2355 82.0317C59.2971 82.036 59.3661 82.0221 59.4065 81.9754C59.4319 81.9648 59.4468 81.9287 59.4542 81.9106C59.4691 81.8745 59.4765 81.8565 59.4913 81.8204C59.5062 81.7843 59.4956 81.7588 59.485 81.7333C59.4743 81.7078 59.4637 81.6823 59.435 81.6494C59.3851 81.5656 59.3097 81.4923 59.2523 81.4265C59.2056 81.3862 59.1515 81.3639 59.0973 81.3416C59.0357 81.3374 58.9848 81.3587 58.9264 81.398C58.9009 81.4086 58.886 81.4447 58.8786 81.4627C58.8638 81.4988 58.8563 81.5169 58.8415 81.553C58.8415 81.553 58.8521 81.5785 58.8553 81.622Z" fill="#3CBCB5"/>
<path d="M53.7919 81.5651C53.4724 81.6236 53.5691 82.1067 53.8887 82.0482C54.1902 81.9823 54.0934 81.4992 53.7919 81.5651Z" fill="#3CBCB5"/>
<path d="M55.4319 83.9918C55.4787 84.0321 55.5254 84.0724 55.587 84.0767C55.6486 84.0809 55.7176 84.0671 55.7579 84.0203C55.7834 84.0097 55.7982 83.9736 55.8057 83.9555C55.8205 83.9194 55.8279 83.9014 55.8428 83.8653C55.8576 83.8292 55.847 83.8037 55.8364 83.7782C55.8258 83.7527 55.8151 83.7273 55.7865 83.6944C55.7365 83.6105 55.6611 83.5373 55.6038 83.4715C55.557 83.4311 55.5029 83.4088 55.4487 83.3866C55.3872 83.3823 55.3362 83.4036 55.2778 83.4429C55.2523 83.4535 55.2375 83.4896 55.2301 83.5077C55.2152 83.5438 55.2078 83.5618 55.1929 83.5979C55.1781 83.634 55.1887 83.6595 55.1993 83.685C55.2099 83.7105 55.2206 83.7359 55.2492 83.7689C55.314 83.8166 55.382 83.9079 55.4319 83.9918Z" fill="#3CBCB5"/>
<path d="M62.7951 80.5625C62.417 80.3015 61.5613 80.3293 61.16 80.5864C60.7662 80.8254 60.4977 81.2215 60.2833 81.6399C60.0509 82.0509 59.8546 82.4767 59.5649 82.8219C59.1467 83.3252 58.5342 83.6854 57.8664 83.7694C58.5715 83.954 59.1047 84.6588 59.8404 84.666C60.4276 84.6754 60.9435 84.1911 61.2024 83.6644C61.4687 83.1196 61.5471 82.5187 61.7338 81.9622C61.9279 81.3878 62.2526 80.8037 62.7951 80.5625Z" fill="#00F0E9"/>
<g opacity="0.25">
<path opacity="0.25" d="M62.7951 80.5625C62.417 80.3015 61.5613 80.3293 61.16 80.5864C60.7662 80.8254 60.4977 81.2215 60.2833 81.6399C60.0509 82.0509 59.8546 82.4767 59.5649 82.8219C59.1467 83.3252 58.5342 83.6854 57.8664 83.7694C58.5715 83.954 59.1047 84.6588 59.8404 84.666C60.4276 84.6754 60.9435 84.1911 61.2024 83.6644C61.4687 83.1196 61.5471 82.5187 61.7338 81.9622C61.9279 81.3878 62.2526 80.8037 62.7951 80.5625Z" fill="#00F0E9"/>
</g>
<path d="M62.0975 80.3603C62.158 80.1108 62.3202 79.4599 62.5888 79.4227C62.9265 79.3716 63.2017 80.1391 63.2209 80.4003C63.2689 81.0533 61.9056 81.0834 62.0975 80.3603Z" fill="#ABCDD6"/>
</g>
<g clip-path="url(#clip2)">
<path d="M49.8756 95.1111C50.1842 95.4245 50.4771 95.7534 50.7699 96.0823C50.9551 96.2703 51.1248 96.4427 51.3099 96.6308C51.3716 96.6934 51.4644 96.7564 51.4012 96.8803C51.3224 97.0196 51.1985 96.9564 51.1209 96.9403C50.5004 96.7488 49.8955 96.5419 49.2907 96.335C49.2441 96.3191 49.1976 96.3032 49.1357 96.2716C48.9939 96.5037 48.8521 96.7359 48.7103 96.968C48.5686 97.2002 48.3957 97.4321 48.2539 97.6642C48.1753 97.7724 48.0663 97.7871 47.9892 97.7088C47.9275 97.6461 47.9126 97.5682 47.8822 97.4747C47.807 97.1475 47.7164 96.8047 47.6726 96.4467C47.6432 96.2288 47.5508 96.1037 47.3491 96.0554C47.0077 95.9594 46.682 95.848 46.3718 95.7523C46.2633 95.7048 46.1702 95.673 46.0774 95.61C45.8918 95.4842 45.9398 95.3135 46.1585 95.1908C46.2523 95.1293 46.3612 95.1146 46.4704 95.0688C46.8603 94.932 47.2501 94.7951 47.6399 94.6582C47.9051 94.5514 47.9208 94.536 47.923 94.2561C47.9418 93.8364 47.9764 93.4012 47.9798 92.9658C47.98 92.9347 47.9648 92.888 47.9808 92.8414C48.028 92.7641 48.0601 92.6399 48.138 92.625C48.2004 92.5944 48.3245 92.6264 48.3706 92.7045C48.4938 92.861 48.5858 93.0172 48.6933 93.1891C48.878 93.4394 49.0626 93.6897 49.2473 93.9399C49.3396 94.065 49.4483 94.0814 49.62 94.005C49.9476 93.8677 50.275 93.7614 50.6181 93.6397C50.7273 93.5939 50.8206 93.5946 50.8975 93.7041C50.9589 93.7978 50.896 93.8906 50.8176 93.9678C50.4883 94.3229 50.1898 94.7093 49.8756 95.1111Z" fill="#00F0E9"/>
</g>
<g clip-path="url(#clip3)">
<path d="M157.714 16.1353C158.156 16.5843 158.575 17.0554 158.995 17.5264C159.26 17.7958 159.503 18.0427 159.768 18.3121C159.857 18.4019 159.99 18.4921 159.899 18.6696C159.786 18.8691 159.609 18.7787 159.497 18.7555C158.609 18.4812 157.742 18.1849 156.876 17.8885C156.809 17.8657 156.743 17.8429 156.654 17.7976C156.451 18.1302 156.248 18.4627 156.045 18.7952C155.841 19.1278 155.594 19.4599 155.391 19.7925C155.278 19.9475 155.122 19.9686 155.012 19.8563C154.923 19.7665 154.902 19.655 154.858 19.521C154.751 19.0524 154.621 18.5613 154.558 18.0485C154.516 17.7363 154.384 17.5571 154.095 17.488C153.606 17.3505 153.139 17.1909 152.695 17.0538C152.539 16.9857 152.406 16.9401 152.273 16.85C152.007 16.6697 152.076 16.4252 152.389 16.2495C152.523 16.1614 152.68 16.1404 152.836 16.0748C153.394 15.8787 153.953 15.6826 154.511 15.4865C154.891 15.3336 154.914 15.3115 154.917 14.9105C154.944 14.3093 154.993 13.686 154.998 13.0624C154.998 13.0178 154.977 12.9508 154.999 12.8842C155.067 12.7733 155.113 12.5955 155.225 12.5741C155.314 12.5302 155.492 12.5762 155.558 12.6881C155.734 12.9122 155.866 13.136 156.02 13.3822C156.285 13.7407 156.549 14.0992 156.814 14.4576C156.946 14.6369 157.102 14.6604 157.348 14.5509C157.817 14.3541 158.286 14.2019 158.777 14.0276C158.934 13.962 159.067 13.963 159.177 14.1198C159.265 14.2541 159.175 14.3871 159.063 14.4976C158.591 15.0062 158.164 15.5597 157.714 16.1353Z" fill="#00F0E9"/>
</g>
<g clip-path="url(#clip4)">
<path d="M172.563 25C171.592 24.9577 171 24.4507 171 23.6056C171 22.7183 171.718 22 172.563 22C173.451 22 174.127 22.6338 174.127 23.4789C174.085 24.3662 173.451 25 172.563 25Z" fill="#FF2968"/>
</g>
<g clip-path="url(#clip5)">
<path d="M216.105 57.6199C216.105 57.079 216.132 56.5381 216.159 55.9971C216.159 55.6726 216.159 55.3751 216.159 55.0505C216.159 54.9423 216.132 54.8071 216.295 54.753C216.484 54.6989 216.538 54.8612 216.592 54.9423C216.971 55.6455 217.322 56.3488 217.674 57.052C217.701 57.1061 217.728 57.1601 217.755 57.2413C218.08 57.1601 218.404 57.079 218.729 56.9979C219.053 56.9167 219.405 56.8626 219.729 56.7815C219.892 56.7544 220 56.8356 220 56.9708C220 57.079 219.946 57.1601 219.892 57.2683C219.675 57.6199 219.459 57.9986 219.189 58.3502C219.026 58.5666 218.999 58.7559 219.134 58.9723C219.351 59.3509 219.54 59.7296 219.729 60.0812C219.784 60.2164 219.838 60.3246 219.865 60.4598C219.919 60.7303 219.729 60.8385 219.432 60.7573C219.297 60.7303 219.189 60.6492 219.053 60.5951C218.594 60.3787 218.134 60.1623 217.674 59.9459C217.349 59.8107 217.322 59.8107 217.079 60.0541C216.7 60.4057 216.295 60.7573 215.916 61.136C215.889 61.163 215.862 61.2171 215.808 61.2442C215.7 61.2712 215.564 61.3524 215.483 61.2983C215.402 61.2712 215.321 61.136 215.348 61.0278C215.375 60.7844 215.429 60.568 215.483 60.3246C215.537 59.9459 215.591 59.5673 215.645 59.1886C215.672 58.9993 215.591 58.8911 215.375 58.81C214.969 58.6477 214.591 58.4584 214.185 58.2691C214.05 58.215 213.969 58.1338 213.996 57.9715C214.023 57.8363 214.158 57.8093 214.293 57.8093C214.888 57.7822 215.483 57.7011 216.105 57.6199Z" fill="#00F0E9"/>
</g>
<g clip-path="url(#clip6)">
<path d="M218.042 14C217.394 13.9718 217 13.6338 217 13.0704C217 12.4789 217.479 12 218.042 12C218.634 12 219.084 12.4225 219.084 12.9859C219.056 13.5775 218.634 14 218.042 14Z" fill="#262C38"/>
</g>
<g clip-path="url(#clip7)">
<path d="M242.409 29C241.437 28.9577 240.846 28.4507 240.846 27.6056C240.846 26.7183 241.564 26 242.409 26C243.296 26 243.972 26.6338 243.972 27.4789C243.93 28.3662 243.296 29 242.409 29Z" fill="#262C38"/>
</g>
<g clip-path="url(#clip8)">
<path d="M262.563 80C261.591 79.9577 261 79.4507 261 78.6056C261 77.7183 261.718 77 262.563 77C263.451 77 264.127 77.6338 264.127 78.4789C264.084 79.3662 263.451 80 262.563 80Z" fill="#262C38"/>
</g>
<path d="M262.711 92.2163C262.75 92.2238 262.634 92.4032 262.317 92.5836C262.038 92.7717 261.55 92.9997 260.936 93.0421C260.323 93.0844 259.545 92.9334 258.882 92.4012C258.218 91.8689 257.779 91.0169 257.634 90.101C257.561 89.6431 257.535 89.1538 257.664 88.6947C257.71 88.4614 257.84 88.2043 257.963 87.9861C258.086 87.7678 258.287 87.5647 258.48 87.4005C258.906 87.0796 259.464 86.9055 260.001 87.05C260.577 87.2021 260.968 87.6816 261.111 88.1935C261.182 88.4494 261.168 88.7292 261.069 89.0327C260.977 89.2974 260.776 89.5005 260.544 89.6572C260.087 89.9317 259.637 89.9653 259.248 89.8898C258.891 89.8608 258.548 89.754 258.291 89.6234C258.034 89.4928 257.808 89.4086 257.629 89.2931C256.904 88.8699 256.256 88.2599 255.856 87.6174C255.456 86.9749 255.266 86.2923 255.255 85.7253C255.244 85.1582 255.373 84.6991 255.511 84.4031C255.681 84.1536 255.82 84.0596 255.859 84.0671C256.007 84.1362 255.77 84.7357 255.946 85.698C256.057 86.1635 256.239 86.683 256.623 87.2013C256.967 87.7121 257.522 88.1828 258.137 88.5444C258.278 88.6524 258.504 88.7366 258.722 88.8596C258.948 88.9438 259.173 89.028 259.446 89.0808C259.99 89.1865 260.439 88.9508 260.328 88.4854C260.295 88.2369 260.061 87.9897 259.828 87.9444C259.563 87.8527 259.222 87.9478 258.943 88.1359C258.664 88.3239 258.448 88.6048 258.373 88.9937C258.266 89.3361 258.268 89.74 258.31 90.1515C258.4 90.9357 258.738 91.6873 259.214 92.1429C259.73 92.6061 260.376 92.8122 260.943 92.8012C261.502 92.8291 261.936 92.6713 262.246 92.5297C262.532 92.3027 262.672 92.2087 262.711 92.2163Z" fill="#262C38"/>
<circle cx="231.5" cy="67.5" r="1.5" fill="#FF0B53"/>
<path d="M250.648 39.0144C247.627 40.3987 244.024 39.0785 242.63 36.0362L238.523 37.9184L245.823 53.8469C246.669 55.694 245.857 57.8806 244.01 58.7271C242.163 59.5736 239.976 58.7613 239.13 56.9142C238.283 55.0671 239.096 52.8806 240.943 52.0341C241.29 51.8747 241.701 51.7389 242.077 51.6982L240.155 47.5042C239.788 47.6201 239.43 47.7577 239.061 47.927C234.932 49.8192 233.119 54.6993 235.011 58.8281C236.903 62.957 241.783 64.7698 245.912 62.8776C250.041 60.9854 251.854 56.1053 249.962 51.9765L246.098 43.545C248.155 44.0748 250.406 43.9372 252.492 42.9812L250.669 39.0045L250.648 39.0144Z" fill="#FF0B53"/>
<path d="M248.946 38.4012C245.904 39.7954 242.313 38.4435 240.929 35.4229L236.822 37.3051L244.122 53.2336C244.968 55.0807 244.156 57.2673 242.309 58.1138C240.462 58.9603 238.275 58.1481 237.429 56.301C236.582 54.4539 237.394 52.2673 239.241 51.4208C239.589 51.2615 240 51.1257 240.376 51.0849L238.454 46.8909C238.086 47.0068 237.729 47.1444 237.359 47.3137C233.22 49.1842 231.408 54.0643 233.3 58.1931C235.192 62.3219 240.072 64.1348 244.201 62.2426C248.33 60.3504 250.143 55.4703 248.25 51.3415L244.386 42.91C246.444 43.4398 248.694 43.3022 250.781 42.3462L248.968 38.3912L248.946 38.4012Z" fill="#00F0E9"/>
<path d="M249.414 39.4218C247.959 39.7468 246.459 39.5141 245.189 38.8078C243.765 38.5135 242.477 37.7103 241.587 36.5142L238.523 37.9184L245.823 53.8469C246.669 55.694 245.857 57.8806 244.01 58.7271C242.793 59.2848 241.408 59.1308 240.373 58.4218C239.126 58.2832 237.986 57.5172 237.419 56.2786C236.572 54.4315 237.384 52.2449 239.232 51.3984C239.579 51.2391 239.99 51.1033 240.366 51.0625L238.952 47.9768C234.896 49.9142 233.129 54.7211 235.011 58.8281C235.818 60.5883 237.173 61.9393 238.782 62.7533C240.532 63.1871 242.419 63.0586 244.201 62.2419C248.33 60.3498 250.143 55.4696 248.25 51.3408L244.386 42.9093C246.444 43.4391 248.694 43.3016 250.781 42.3455L249.436 39.4119L249.414 39.4218Z" fill="#262C38"/>
<g clip-path="url(#clip9)">
<path d="M39.2149 14.7758C39.2091 14.7259 39.4703 14.7967 39.8103 15.1113C40.1446 15.376 40.6077 15.8786 40.8944 16.6041C41.1811 17.3296 41.2971 18.3278 40.9082 19.3342C40.5193 20.3405 39.6579 21.1994 38.6063 21.7264C38.0804 21.9898 37.4989 22.2092 36.8941 22.2289C36.5947 22.2637 36.2337 22.2045 35.9226 22.1394C35.6115 22.0744 35.2888 21.9096 35.0161 21.7389C34.4647 21.3477 34.0399 20.7395 34.0086 20.0349C33.9715 19.2804 34.401 18.6234 34.9652 18.2543C35.2473 18.0698 35.5908 17.9793 35.9959 17.9828C36.3511 17.9921 36.6738 18.1569 36.9524 18.3775C37.4596 18.8244 37.6732 19.3561 37.7312 19.8552C37.8333 20.2986 37.8356 20.7536 37.7764 21.1146C37.7172 21.4756 37.702 21.7809 37.6312 22.042C37.3979 23.0809 36.9091 24.0989 36.2858 24.8289C35.6624 25.559 34.9102 26.0511 34.2288 26.2821C33.5474 26.513 32.9427 26.5327 32.5318 26.4793C32.165 26.3702 31.9979 26.2379 31.992 26.1879C32.0188 25.9825 32.8348 26.0394 33.9305 25.4568C34.4506 25.1434 35.0089 24.7244 35.4884 24.0616C35.9736 23.4488 36.33 22.598 36.5308 21.7146C36.6075 21.5034 36.6226 21.1981 36.6876 20.887C36.7027 20.5818 36.7178 20.2765 36.6772 19.9271C36.596 19.2283 36.1387 18.7756 35.6186 19.089C35.3308 19.2236 35.1218 19.602 35.1566 19.9015C35.1473 20.2567 35.3934 20.6328 35.7276 20.8974C36.0619 21.1621 36.4844 21.3153 36.9836 21.2573C37.4386 21.255 37.9261 21.0972 38.4078 20.8894C39.3214 20.4798 40.1003 19.7822 40.4683 19.0312C40.8305 18.2303 40.8317 17.3702 40.6007 16.6888C40.4197 16.0016 40.0622 15.5373 39.772 15.2169C39.3878 14.958 39.2207 14.8257 39.2149 14.7758Z" fill="#FF0B53"/>
</g>
<g clip-path="url(#clip10)">
<path d="M44.1054 39.6199C44.1054 39.079 44.1324 38.5381 44.1594 37.9971C44.1594 37.6726 44.1594 37.3751 44.1594 37.0505C44.1594 36.9423 44.1324 36.8071 44.2947 36.753C44.484 36.6989 44.5381 36.8612 44.5922 36.9423C44.9708 37.6455 45.3225 38.3488 45.6741 39.052C45.7011 39.1061 45.7281 39.1601 45.7552 39.2413C46.0798 39.1601 46.4043 39.079 46.7289 38.9979C47.0534 38.9167 47.405 38.8626 47.7296 38.7815C47.8919 38.7544 48.0001 38.8356 48.0001 38.9708C48.0001 39.079 47.946 39.1601 47.8919 39.2683C47.6755 39.6199 47.4591 39.9986 47.1887 40.3502C47.0264 40.5666 46.9993 40.7559 47.1346 40.9723C47.3509 41.3509 47.5403 41.7296 47.7296 42.0812C47.7837 42.2164 47.8378 42.3246 47.8648 42.4598C47.9189 42.7303 47.7296 42.8385 47.4321 42.7573C47.2968 42.7303 47.1887 42.6492 47.0534 42.5951C46.5936 42.3787 46.1338 42.1623 45.6741 41.9459C45.3495 41.8107 45.3225 41.8107 45.079 42.0541C44.7004 42.4057 44.2947 42.7573 43.916 43.136C43.889 43.163 43.8619 43.2171 43.8078 43.2442C43.6997 43.2712 43.5644 43.3524 43.4833 43.2983C43.4021 43.2712 43.321 43.136 43.3481 43.0278C43.3751 42.7844 43.4292 42.568 43.4833 42.3246C43.5374 41.9459 43.5915 41.5673 43.6456 41.1886C43.6726 40.9993 43.5915 40.8911 43.3751 40.81C42.9694 40.6477 42.5907 40.4584 42.185 40.2691C42.0498 40.215 41.9687 40.1338 41.9957 39.9715C42.0228 39.8363 42.158 39.8093 42.2932 39.8093C42.8883 39.7822 43.4833 39.7011 44.1054 39.6199Z" fill="#00F0E9"/>
</g>
<g clip-path="url(#clip11)">
<path d="M27.0423 94C26.3944 93.9718 26.0001 93.6338 26.0001 93.0704C26.0001 92.4789 26.4789 92 27.0423 92C27.6339 92 28.0846 92.4225 28.0846 92.9859C28.0564 93.5775 27.6339 94 27.0423 94Z" fill="#FF2968"/>
</g>
<path d="M25.8428 25.2504C25.8896 25.8972 25.5994 26.328 25.0398 26.393C24.4522 26.4613 23.9212 26.0409 23.8562 25.4813C23.7879 24.8937 24.1556 24.3973 24.7152 24.3322C25.306 24.2919 25.7745 24.6628 25.8428 25.2504Z" fill="#262C38"/>
<path d="M49.622 55.6966C46.8528 55.0532 45.1048 52.2742 45.7529 49.485L41.9875 48.6101L38.5942 63.2132C38.2007 64.9066 36.5067 65.9619 34.8133 65.5684C33.1199 65.1749 32.0646 63.4808 32.4581 61.7874C32.8516 60.094 34.5457 59.0388 36.2391 59.4323C36.5579 59.5063 36.9072 59.6295 37.1829 59.7986L38.0763 55.9535C37.7668 55.8396 37.4527 55.7456 37.114 55.6669C33.3288 54.7874 29.5478 57.1425 28.6682 60.9277C27.7887 64.713 30.1438 68.494 33.9291 69.3736C37.7143 70.2531 41.4953 67.898 42.3749 64.1127L44.171 56.3828C45.2864 57.8179 46.8822 58.9027 48.7948 59.3471L49.6419 55.7013L49.622 55.6966Z" fill="#FF0B53"/>
<path d="M48.7914 54.3919C46.0023 53.7438 44.2788 50.9496 44.9222 48.1804L41.1569 47.3054L37.7636 61.9085C37.3701 63.602 35.676 64.6572 33.9826 64.2637C32.2892 63.8702 31.234 62.1761 31.6275 60.4827C32.021 58.7893 33.7151 57.7341 35.4085 58.1276C35.7272 58.2016 36.0766 58.3248 36.3523 58.4939L37.2457 54.6488C36.9362 54.5349 36.6221 54.4409 36.2834 54.3622C32.5028 53.4627 28.7218 55.8179 27.8422 59.6031C26.9627 63.3884 29.3178 67.1694 33.1031 68.0489C36.8883 68.9285 40.6693 66.5734 41.5489 62.7881L43.345 55.0582C44.4604 56.4933 46.0562 57.578 47.9688 58.0225L48.8113 54.3966L48.7914 54.3919Z" fill="#00F0E9"/>
<path d="M48.574 55.3271C47.4189 54.7857 46.525 53.8431 46.0347 52.7002C45.2251 51.7562 44.7732 50.5383 44.7966 49.2628L41.9875 48.6101L38.5942 63.2132C38.2007 64.9066 36.5067 65.9619 34.8133 65.5684C33.6976 65.3091 32.8404 64.48 32.5108 63.4585C31.7393 62.7123 31.3684 61.5972 31.6323 60.4616C32.0258 58.7682 33.7199 57.713 35.4133 58.1065C35.732 58.1805 36.0814 58.3037 36.3571 58.4728L37.0144 55.6438C33.2551 54.8332 29.5432 57.1624 28.6682 60.9277C28.2933 62.5415 28.5039 64.1653 29.1671 65.5583C30.125 66.7678 31.4696 67.6682 33.1032 68.0478C36.8885 68.9273 40.6695 66.5722 41.549 62.7869L43.3452 55.057C44.4606 56.4921 46.0564 57.5769 47.9689 58.0213L48.5939 55.3317L48.574 55.3271Z" fill="#262C38"/>
<g clip-path="url(#clip12)">
<path d="M103.246 11.0821C103.208 11.0736 103.328 10.8973 103.65 10.7253C103.934 10.5447 104.428 10.3296 105.042 10.3034C105.656 10.2773 106.43 10.4487 107.079 10.9983C107.728 11.5478 108.145 12.4112 108.266 13.3306C108.326 13.7903 108.34 14.28 108.198 14.7355C108.147 14.9676 108.009 15.2212 107.881 15.4361C107.752 15.651 107.546 15.8487 107.348 16.0078C106.914 16.3174 106.352 16.4767 105.819 16.318C105.247 16.1508 104.869 15.6612 104.74 15.1457C104.675 14.888 104.696 14.6087 104.804 14.3079C104.902 14.0457 105.108 13.848 105.345 13.6975C105.808 13.4351 106.26 13.4134 106.646 13.4991C107.003 13.5375 107.342 13.6533 107.596 13.7907C107.85 13.928 108.073 14.0181 108.249 14.1383C108.963 14.5804 109.595 15.2073 109.977 15.8602C110.36 16.513 110.533 17.2004 110.529 17.7675C110.525 18.3346 110.383 18.7901 110.237 19.0824C110.061 19.3274 109.919 19.4177 109.881 19.4091C109.735 19.3362 109.988 18.7431 109.837 17.7765C109.738 17.3082 109.57 16.7842 109.2 16.2559C108.869 15.7362 108.327 15.2511 107.721 14.8733C107.584 14.7617 107.36 14.6716 107.145 14.5428C106.922 14.4527 106.698 14.3626 106.428 14.3026C105.886 14.1827 105.431 14.4063 105.53 14.8746C105.556 15.1238 105.784 15.3771 106.016 15.4286C106.278 15.5272 106.622 15.4411 106.905 15.2605C107.189 15.0799 107.412 14.8048 107.498 14.418C107.613 14.0785 107.622 13.6747 107.591 13.2622C107.522 12.476 107.204 11.7157 106.74 11.2477C106.237 10.771 105.596 10.548 105.029 10.544C104.471 10.5014 104.032 10.6477 103.719 10.7811C103.427 11.0004 103.285 11.0907 103.246 11.0821Z" fill="#262C38"/>
</g>
<g clip-path="url(#clip13)">
<path d="M103.563 29.8086C102.592 29.7663 102 29.2593 102 28.4142C102 27.5269 102.718 26.8086 103.563 26.8086C104.451 26.8086 105.127 27.4424 105.127 28.2875C105.085 29.1748 104.451 29.8086 103.563 29.8086Z" fill="#262C38"/>
</g>
<path d="M200.912 48.4992C200.969 48.5344 200.68 48.7467 200.073 48.8394C199.522 48.9674 198.619 49.0324 197.63 48.7305C196.642 48.4286 195.511 47.7246 194.789 46.4906C194.067 45.2566 193.888 43.6547 194.211 42.1296C194.372 41.3671 194.624 40.5832 195.103 39.9401C195.315 39.601 195.674 39.2757 195.998 39.007C196.322 38.7382 196.76 38.5399 197.162 38.3981C198.023 38.1496 199.004 38.2115 199.76 38.7608C200.573 39.3453 200.899 40.3329 200.816 41.2224C200.774 41.6672 200.584 42.098 200.246 42.515C199.943 42.8755 199.506 43.0738 199.047 43.1804C198.165 43.3372 197.438 43.1195 196.873 42.7676C196.329 42.5073 195.855 42.134 195.53 41.7746C195.205 41.4151 194.901 41.1474 194.688 40.8584C193.804 39.7587 193.153 38.4117 192.911 37.1628C192.669 35.9139 192.78 34.7279 193.103 33.831C193.426 32.9341 193.905 32.291 194.3 31.9092C194.716 31.6192 194.991 31.5552 195.047 31.5904C195.238 31.7877 194.506 32.5865 194.205 34.2033C194.1 35.001 194.073 35.9257 194.364 36.9698C194.599 37.9788 195.187 39.0507 195.936 39.9882C196.092 40.242 196.396 40.5097 196.665 40.834C196.969 41.1017 197.273 41.3694 197.668 41.6158C198.46 42.1085 199.306 42.0083 199.411 41.2106C199.509 40.8011 199.289 40.2721 198.95 40.0609C198.59 39.758 197.997 39.7025 197.447 39.8304C196.896 39.9584 196.389 40.2698 196.037 40.835C195.663 41.3085 195.424 41.9441 195.242 42.6149C194.912 43.9001 194.992 45.2834 195.467 46.2848C195.998 47.3215 196.888 48.0329 197.785 48.3561C198.647 48.7359 199.423 48.7487 199.995 48.7125C200.58 48.528 200.856 48.4641 200.912 48.4992Z" fill="#FF0B53"/>
</g>
<defs>
<filter id="filter0_f" x="23" y="81" width="156" height="26" filterUnits="userSpaceOnUse" color-interpolation-filters="sRGB">
<feFlood flood-opacity="0" result="BackgroundImageFix"/>
<feBlend mode="normal" in="SourceGraphic" in2="BackgroundImageFix" result="shape"/>
<feGaussianBlur stdDeviation="5" result="effect1_foregroundBlur"/>
</filter>
<linearGradient id="paint0_linear" x1="161" y1="81.5" x2="244" y2="81" gradientUnits="userSpaceOnUse">
<stop stop-color="#09EAE5"/>
<stop offset="0.817708" stop-color="#BD4D7A"/>
<stop offset="1" stop-color="#E52A62"/>
</linearGradient>
<clipPath id="clip0">
<rect width="277" height="105.82" fill="white"/>
</clipPath>
<clipPath id="clip1">
<rect width="21.3938" height="24.2827" fill="white" transform="translate(56.2387 69) rotate(22.3625)"/>
</clipPath>
<clipPath id="clip2">
<rect width="8.94383" height="9.87464" fill="white" transform="translate(54.3011 97.167) rotate(135.45)"/>
</clipPath>
<clipPath id="clip3">
<rect width="12.8115" height="14.1448" fill="white" transform="translate(164.053 19.0801) rotate(135.45)"/>
</clipPath>
<clipPath id="clip4">
<rect width="3.08451" height="3" fill="white" transform="translate(171 22)"/>
</clipPath>
<clipPath id="clip5">
<rect width="11" height="12.1448" fill="white" transform="translate(214 52)"/>
</clipPath>
<clipPath id="clip6">
<rect width="2.05634" height="2" fill="white" transform="translate(217 12)"/>
</clipPath>
<clipPath id="clip7">
<rect width="3.08451" height="3" fill="white" transform="translate(240.846 26)"/>
</clipPath>
<clipPath id="clip8">
<rect width="3.08451" height="3" fill="white" transform="translate(261 77)"/>
</clipPath>
<clipPath id="clip9">
<rect width="10.904" height="10.1" fill="white" transform="translate(32.0385 26.5869) rotate(-96.6294)"/>
</clipPath>
<clipPath id="clip10">
<rect width="11" height="12.1448" fill="white" transform="translate(42.0001 34)"/>
</clipPath>
<clipPath id="clip11">
<rect width="2.05634" height="2" fill="white" transform="translate(26.0001 92)"/>
</clipPath>
<clipPath id="clip12">
<rect width="8.5957" height="7.96192" fill="white" transform="translate(110.19 19.4775) rotate(-167.505)"/>
</clipPath>
<clipPath id="clip13">
<rect width="3.08451" height="3" fill="white" transform="translate(102 26.8086)"/>
</clipPath>
</defs>
</svg>
