<svg width="277" height="106" viewBox="0 0 277 106" fill="none" xmlns="http://www.w3.org/2000/svg">
<g clip-path="url(#clip0)">
<g filter="url(#filter0_f)">
<ellipse cx="101" cy="94" rx="68" ry="3" fill="#C4C4C4" fill-opacity="0.5"/>
</g>
<g clip-path="url(#clip1)">
<path d="M117.405 22.7016C117.24 22.971 117.141 23.2819 116.975 23.5513C116.649 23.6289 116.364 23.6391 116.037 23.7167C108.824 24.569 100.814 20.3791 103.599 15.4056C104.957 12.8981 107.833 12.9044 109.445 13.1537C109.761 11.5837 110.716 8.82736 113.421 8.35684C119.09 7.29671 120.465 16.2255 117.405 22.7016Z" fill="#EF3829"/>
<path d="M122.51 21.2016C122.334 21.186 122.117 21.2377 121.873 21.1806C121.78 21.0303 121.619 20.8385 121.526 20.6882C118.952 16.8734 118.965 11.1216 122.613 11.2318C124.416 11.3206 125.265 12.9584 125.607 13.912C126.628 13.6118 128.395 13.3067 129.544 14.7581C131.803 17.7281 127.138 21.079 122.51 21.2016Z" fill="#B72C38"/>
</g>
<g clip-path="url(#clip2)">
<path d="M24.7336 86.974C24.7336 87.6966 24.1367 88.2936 23.3826 88.2936C22.6285 88.2936 22.0315 87.6966 22.0315 86.974C22 86.2513 22.597 85.6543 23.3511 85.6543C24.1052 85.6543 24.7336 86.2513 24.7336 86.974Z" fill="#B72C38"/>
<path d="M26.399 61.4292C26.399 61.8691 26.022 62.2462 25.5821 62.2462C25.1422 62.2462 24.7651 61.9006 24.7651 61.4292C24.7651 60.9579 25.1422 60.6123 25.5821 60.6123C26.022 60.6437 26.399 60.9894 26.399 61.4292Z" fill="#ED7E60"/>
<path d="M60.1762 71.2295L59.8935 74.0259L59.0137 81.8811L58.668 84.9604L57.4112 96.429L46.9795 96.9631L43.7746 97.1517L31.489 97.7801L28.3155 87.1913L27.4358 84.2063L24.9221 75.8169L24.7021 75.0943L60.1762 71.2295Z" fill="#F3DEC9"/>
<path d="M59.014 81.8838L58.6683 84.963L46.2257 85.8742L42.141 86.1884L28.3158 87.1939L27.436 84.2089L41.3869 83.172L46.5085 82.795L59.014 81.8838Z" fill="#EF3829"/>
<path opacity="0.1" d="M33.0284 96.3675L57.411 96.4304L46.9793 96.9645L43.7744 97.1531L31.4888 97.7815L28.3153 87.1927L27.4355 84.2077L24.9219 75.8183L59.8932 74.0273L28.2525 78.7719L33.0284 96.3675Z" fill="#CB2C1C"/>
<path opacity="0.38" d="M46.5083 82.7939L46.2255 85.8732L42.1408 86.1874L41.3867 83.171L46.5083 82.7939Z" fill="#CB2C1C"/>
<path d="M46.9796 96.9643L43.7746 97.1528L41.041 76.0694L44.8744 75.6924L46.9796 96.9643Z" fill="#EF3829"/>
<path d="M41.8892 66.926V68.12C41.8892 68.12 41.8892 68.12 41.8578 68.12C41.8578 68.12 41.8264 68.12 41.795 68.12C41.795 68.12 41.795 68.12 41.7635 68.12C41.5436 68.0572 40.978 67.9001 40.1925 67.5544C39.8469 65.8577 38.8414 63.1555 35.7936 60.9875C34.9452 60.3905 34.1283 59.9192 33.3428 59.5736C32.6829 59.2594 32.0545 59.0394 31.4575 58.8823C32.0859 58.4738 32.84 58.191 33.5941 58.0339C34.9138 57.7826 36.3277 57.8768 37.3646 58.4424C40.3182 59.982 41.8892 63.8468 41.8892 66.926Z" fill="#EF3829"/>
<path d="M41.8894 68.1196L40.3498 68.8737C40.3498 68.6223 40.3183 68.2452 40.2241 67.7739C38.0246 67.3026 36.0451 67.6797 33.2487 66.36C31.8976 65.7316 30.1694 64.0663 29.8238 62.7466C29.3525 61.0185 30.138 59.6988 31.4577 58.8818C32.0547 59.0389 32.6831 59.2589 33.3429 59.5417C33.2487 60.8613 33.5943 62.3381 34.8511 63.6892C36.7992 65.7944 38.8416 66.9256 40.2241 67.5226C41.0096 67.8682 41.5752 68.0253 41.7951 68.0881C41.7951 68.0881 41.7951 68.0881 41.8265 68.0881C41.8265 68.1196 41.858 68.1196 41.8894 68.1196Z" fill="#D93D40"/>
<path d="M42.0151 66.0782V67.2722C42.0151 67.2722 42.0151 67.2722 42.0466 67.2722C42.0466 67.2722 42.078 67.2722 42.1094 67.2722C42.1094 67.2722 42.1094 67.2722 42.1408 67.2722C42.3608 67.2094 42.9263 67.0522 43.7119 66.7066C44.0575 65.0099 45.063 62.3077 48.1108 60.1397C48.9591 59.5427 49.7761 59.0714 50.5616 58.7257C51.2214 58.4115 51.8499 58.223 52.4154 58.0659C51.787 57.6574 51.0329 57.3746 50.2788 57.2175C48.9591 56.9662 47.5452 57.0604 46.5083 57.626C43.5862 59.1342 42.0151 62.999 42.0151 66.0782Z" fill="#EF3829"/>
<path d="M42.0151 67.2729L43.5548 68.027C43.5548 67.7756 43.5862 67.3986 43.6804 66.9272C45.8799 66.4559 47.8594 66.833 50.6559 65.5133C52.007 64.8849 53.7351 63.2196 54.0807 61.8999C54.552 60.1718 53.7665 58.8521 52.4468 58.0352C51.8499 58.1923 51.2529 58.4122 50.593 58.7264C50.6873 60.0461 50.3417 61.5229 49.0848 62.874C47.1367 64.9477 45.0944 66.1103 43.7119 66.6759C42.9263 67.0215 42.3608 67.1786 42.1408 67.2415C42.1408 67.2415 42.1408 67.2415 42.1094 67.2415C42.078 67.2729 42.078 67.2729 42.0151 67.2729C42.0151 67.2729 42.0466 67.2729 42.0151 67.2729Z" fill="#D93D40"/>
<path d="M58.6682 74.311C58.6682 74.311 52.1641 74.9709 44.9059 75.6935C43.6491 75.8192 42.3608 75.9449 41.0726 76.0706C34.2857 76.7304 27.7501 77.3903 25.8963 77.6102C25.5507 77.6416 25.2365 77.6416 24.9537 77.5474C21.8116 76.8561 22.66 70.572 22.66 70.572C28.9441 68.781 34.9455 67.7127 40.2556 67.1157C40.2871 67.1157 40.3185 67.1157 40.3813 67.1157C41.5439 66.99 42.675 66.8643 43.7433 66.77C43.7748 66.77 43.8062 66.77 43.8376 66.77C54.0494 65.9217 60.8991 66.7072 60.8991 66.7072C60.8991 66.7072 60.8991 66.7072 61.6218 71.0118C62.0931 74.1853 58.6682 74.311 58.6682 74.311Z" fill="#EF3829"/>
<path d="M44.8744 75.6616C43.6176 75.7873 42.3293 75.9444 41.0411 76.0701L40.2241 67.1152C40.2555 67.1152 40.287 67.1152 40.3498 67.1152C41.5124 66.9895 42.6435 66.8638 43.7118 66.7695C43.7433 66.7695 43.7747 66.7695 43.8061 66.7695L44.8744 75.6616Z" fill="#EF3829"/>
<path d="M47.4509 69.9114C47.2309 70.257 46.9796 70.5712 46.7282 70.9169C46.6025 71.074 46.5711 71.1054 46.3826 71.0426C46.0055 70.9169 46.0055 70.9169 46.0055 70.9169C45.4085 70.6341 45.1572 70.4456 44.6858 70.0371C44.3402 69.7229 44.0574 69.283 44.026 68.8117C43.9946 68.3404 44.4345 67.8376 44.9058 67.8062C45.4085 67.7434 45.7227 68.3089 45.9741 68.7174C46.0055 68.4346 45.9741 68.1204 46.1312 67.8691C46.2569 67.6177 46.4768 67.4292 46.7596 67.3349C47.3566 67.0835 47.8279 67.4606 47.985 68.0576C48.1421 68.686 47.7965 69.3458 47.4509 69.9114Z" fill="#F2DEC9"/>
<path d="M46.2568 68.9693C46.2568 69.1264 46.1312 69.2521 45.9426 69.2521C45.7855 69.2521 45.6284 69.1264 45.6284 68.9693C45.6284 68.8122 45.7541 68.6865 45.9426 68.6865C46.0997 68.6865 46.2568 68.8122 46.2568 68.9693Z" fill="#CB2C1C"/>
<path d="M46.2571 68.4658C46.2571 68.6543 46.1943 68.78 46.1629 68.9686C46.1314 69.1885 45.7858 69.0942 45.8172 68.8743C45.9115 68.3087 45.8801 67.7431 45.6601 67.1776C45.5659 66.989 45.4088 66.7691 45.2202 66.612C44.9689 66.3606 44.5918 66.2349 44.2148 66.2664C43.9634 66.2978 43.7749 66.4863 43.6492 66.7377C43.5235 66.7377 43.3664 66.7691 43.2407 66.7691C43.5549 65.8893 44.5918 65.7322 45.4088 66.2978C45.5344 66.3921 45.6287 66.4863 45.6915 66.5806C45.9429 66.8948 46.0686 67.2718 46.1314 67.6489C46.1943 67.9317 46.2571 68.2145 46.2571 68.4658Z" fill="#CB3E3D"/>
<path opacity="0.09" d="M24.9222 77.5474C21.8115 76.8561 22.6599 70.572 22.6599 70.572C28.944 68.781 34.9454 67.7127 40.2555 67.1157C40.287 67.1157 40.3184 67.1157 40.3812 67.1157C41.5438 66.99 42.6749 66.8643 43.7432 66.77C43.7747 66.77 43.8061 66.77 43.8375 66.77C54.0493 65.9217 60.899 66.7072 60.899 66.7072C31.332 67.6812 23.7282 71.4203 23.7282 71.4203C22.5028 75.0337 24.9222 77.5474 24.9222 77.5474Z" fill="#F7CCBD"/>
<path d="M46.8538 59.3857C46.0683 59.9827 45.3142 60.2969 45.1571 60.1083C45 59.9198 45.4713 59.26 46.2568 58.663C47.0423 58.066 47.7964 57.7518 47.9535 57.9403C48.1106 58.1288 47.6079 58.7887 46.8538 59.3857Z" fill="#F8F8F9"/>
<path d="M44.5916 61.1144C44.4031 61.2401 44.1517 61.2401 43.9946 61.0516C43.8375 60.8631 43.8689 60.6117 44.0575 60.486C44.246 60.3603 44.4974 60.3603 44.6545 60.5489C44.7802 60.7374 44.7487 60.9888 44.5916 61.1144Z" fill="#F8F8F9"/>
<path d="M37.9934 59.5743C38.6847 60.2342 39.1246 60.9254 38.936 61.114C38.7475 61.3025 38.0248 60.894 37.3336 60.2342C36.6423 59.5743 36.2024 58.8831 36.391 58.6946C36.5481 58.506 37.2707 58.9145 37.9934 59.5743Z" fill="#F8F8F9"/>
<path d="M40.0356 61.5553C40.1927 61.7124 40.1927 61.9638 40.0356 62.1209C39.8785 62.278 39.6272 62.278 39.4386 62.1209C39.2815 61.9638 39.2815 61.7124 39.4386 61.5553C39.6272 61.3982 39.8785 61.3982 40.0356 61.5553Z" fill="#F8F8F9"/>
<path d="M55.0234 64.3501C54.9606 64.3187 54.8978 64.2873 54.8663 64.2559C54.8663 64.193 54.8663 64.1302 54.8349 64.0673C54.7721 62.5591 55.7461 60.9567 56.7516 61.6165C57.2543 61.9307 57.2229 62.5277 57.1286 62.8733C57.4743 62.9676 58.0084 63.1875 58.0713 63.7845C58.1969 64.9157 56.3431 65.0728 55.0234 64.3501Z" fill="#E9626A"/>
<path d="M30.1694 66.4238C30.2008 66.4867 30.2323 66.5495 30.2323 66.6123C30.2008 66.6752 30.1694 66.738 30.1066 66.7695C29.2268 67.9949 27.4672 68.6547 27.0902 67.5236C26.9016 66.958 27.3101 66.5181 27.5615 66.2981C27.3415 66.0154 27.0588 65.5126 27.373 65.0099C28.0014 64.0044 29.5724 65.0413 30.1694 66.4238Z" fill="#D93D40"/>
<path d="M63.0668 69.2836C63.0354 69.2836 62.9726 69.2836 62.9412 69.2836C62.9097 69.2522 62.8783 69.2208 62.8783 69.158C62.3756 68.2782 62.4384 67.0528 63.2554 67.1156C63.6638 67.147 63.6324 67.744 63.6953 67.964C63.9152 67.9011 64.4808 67.6498 64.7007 67.964C65.1092 68.6238 64.0723 69.3151 63.0668 69.2836Z" fill="#EF3829"/>
</g>
<path d="M177.71 88.3779C176.909 89.3154 175.742 90.043 174.209 90.5605C172.676 91.0684 170.977 91.3076 169.111 91.2783C167.324 91.2588 165.815 90.8096 164.585 89.9307C163.354 89.0518 162.476 87.8262 161.948 86.2539C161.421 84.6816 161.279 82.9092 161.523 80.9365L161.641 80.0576C162.09 76.7471 163.252 74.125 165.127 72.1914C167.012 70.2578 169.316 69.3154 172.041 69.3643C174.424 69.4033 176.255 70.043 177.534 71.2832C178.813 72.5234 179.526 74.3154 179.673 76.6592L174.868 76.6445C174.8 75.502 174.517 74.667 174.019 74.1396C173.53 73.6123 172.832 73.334 171.924 73.3047C170.576 73.2559 169.463 73.7881 168.584 74.9014C167.705 76.0049 167.104 77.5869 166.782 79.6475C166.509 81.4053 166.411 82.7725 166.489 83.749C166.636 86.1025 167.695 87.2939 169.668 87.3232C170.859 87.3428 171.904 87.0547 172.803 86.459L173.462 83.1338H169.99L170.605 79.6035H179.087L177.71 88.3779ZM185.356 91H180.347L184.053 69.6719H189.048L185.356 91ZM206.626 88.3779C205.825 89.3154 204.658 90.043 203.125 90.5605C201.592 91.0684 199.893 91.3076 198.027 91.2783C196.24 91.2588 194.731 90.8096 193.501 89.9307C192.271 89.0518 191.392 87.8262 190.864 86.2539C190.337 84.6816 190.195 82.9092 190.439 80.9365L190.557 80.0576C191.006 76.7471 192.168 74.125 194.043 72.1914C195.928 70.2578 198.232 69.3154 200.957 69.3643C203.34 69.4033 205.171 70.043 206.45 71.2832C207.729 72.5234 208.442 74.3154 208.589 76.6592L203.784 76.6445C203.716 75.502 203.433 74.667 202.935 74.1396C202.446 73.6123 201.748 73.334 200.84 73.3047C199.492 73.2559 198.379 73.7881 197.5 74.9014C196.621 76.0049 196.021 77.5869 195.698 79.6475C195.425 81.4053 195.327 82.7725 195.405 83.749C195.552 86.1025 196.611 87.2939 198.584 87.3232C199.775 87.3428 200.82 87.0547 201.719 86.459L202.378 83.1338H198.906L199.521 79.6035H208.003L206.626 88.3779ZM221.45 87.0156H214.639L212.749 91H207.227L218.521 69.6719H223.237L227.178 91H221.963L221.45 87.0156ZM216.514 83.0459H220.938L220 75.6924L216.514 83.0459ZM240.625 85.2285C240.84 84.125 240.244 83.2705 238.838 82.665L236.436 81.6689C233.066 80.1553 231.465 78.0947 231.631 75.4873C231.699 74.2959 232.109 73.2363 232.861 72.3086C233.613 71.3711 234.653 70.6436 235.981 70.126C237.31 69.6084 238.76 69.3594 240.332 69.3789C242.441 69.418 244.136 70.0332 245.415 71.2246C246.704 72.416 247.339 74.0127 247.319 76.0146H242.339C242.368 75.1943 242.192 74.54 241.812 74.0518C241.44 73.5537 240.825 73.2949 239.966 73.2754C239.126 73.2559 238.384 73.4512 237.739 73.8613C237.095 74.2715 236.714 74.8232 236.597 75.5166C236.411 76.4932 237.134 77.2939 238.765 77.9189C240.405 78.5439 241.597 79.0811 242.339 79.5303C244.673 80.9268 245.767 82.8115 245.62 85.1846C245.542 86.415 245.146 87.4941 244.434 88.4219C243.721 89.3496 242.729 90.0674 241.46 90.5752C240.2 91.083 238.784 91.3271 237.212 91.3076C236.06 91.2881 234.99 91.1074 234.004 90.7656C233.018 90.4238 232.173 89.9258 231.47 89.2715C230.044 87.9531 229.36 86.2197 229.419 84.0713L234.443 84.0859C234.385 85.1797 234.595 86.0098 235.073 86.5762C235.552 87.1328 236.357 87.4111 237.49 87.4111C238.33 87.4111 239.028 87.2207 239.585 86.8398C240.151 86.4492 240.498 85.9121 240.625 85.2285Z" fill="#BBBBBB"/>
<path d="M185.692 35.4747C184.857 36.0545 183.442 35.7994 182.488 35.772C180.06 35.6283 177.39 33.696 176.642 31.3652C176.449 30.776 176.207 27.17 177.344 27.3075C177.439 27.315 177.461 27.3407 177.505 27.3919C178.512 26.754 179.621 26.3392 180.832 26.1478C182.064 25.982 183.644 25.9631 184.857 26.3458C185.862 26.6403 185.959 27.8435 186.323 28.6853C186.865 29.9955 187.141 31.0455 187.007 32.4458C186.902 33.4658 186.603 34.8292 185.692 35.4747Z" fill="#D93D40"/>
<path d="M169.308 58.8606C167.183 60.63 164.527 61.5682 161.939 62.5359C160.904 62.9325 159.769 63.3691 158.635 63.4949C157.428 63.6388 156.093 63.8922 154.85 63.8898C154.492 63.8854 153.288 63.9818 153.084 63.5353C152.964 63.2388 153.203 62.9468 153.459 62.7279C153.98 61.8842 154.884 61.3337 155.628 60.6989C156.371 60.0641 157.079 59.2829 157.935 58.7288C158.364 58.4517 158.814 58.2002 159.29 57.9269C160.392 57.2964 161.556 56.7904 162.716 56.3319C164.443 55.6551 166.277 54.8432 168.142 54.536C170.103 54.2363 171.973 53.5708 174.013 53.4687C174.182 53.458 174.357 53.6632 174.225 53.8201C172.81 55.6933 171.102 57.3282 169.308 58.8606Z" fill="#C5C25E"/>
<path d="M178.276 44.5985C178.199 44.6641 178.1 44.7042 178.024 44.7698C176.75 45.4585 175.365 44.8232 174.247 44.1372C172.695 43.2017 171.403 41.6889 170.269 40.3081C169.463 39.3119 169.191 38.2144 169.613 37.0999C169.544 37.0705 169.504 36.9717 169.537 36.8547C169.754 35.9154 169.903 34.9466 170.168 34.011C170.425 33.1704 170.789 32.1948 171.277 31.468C171.82 30.65 172.315 29.8282 172.993 29.1164C173.799 28.2952 174.66 27.6935 175.553 26.9749C176.267 26.4095 177.338 24.9635 178.379 25.7151C178.988 26.1698 179.561 27.0997 179.991 27.7075C180.44 28.3886 180.687 29.1972 180.89 29.9545C181.144 30.9789 181.325 32.0215 181.458 33.0602C181.818 35.767 181.769 38.5131 180.755 41.0635C180.637 41.3412 180.546 41.597 180.428 41.8747C179.888 42.9561 179.283 43.9605 178.276 44.5985Z" fill="#EA4F4F"/>
<path d="M182.47 42.6584C181.294 43.6179 179.797 44.4085 178.275 44.5993C177.504 44.6819 176.718 44.6439 176.002 44.3243C174.704 43.7916 173.569 43.0324 172.906 41.7366C172.447 40.8874 172.269 39.7973 172.556 38.8873C172.443 38.8067 172.359 38.6566 172.513 38.5252L172.59 38.4595C172.667 38.3939 172.792 38.332 172.894 38.2444C172.894 38.2444 172.894 38.2444 172.92 38.2225C172.945 38.2006 172.945 38.2006 172.971 38.1787C173.993 37.3506 175.055 36.6213 176.139 35.9177C176.618 35.5968 177.12 35.3016 177.599 34.9807C178.782 34.2371 180.103 33.5522 181.435 33.0355C181.93 32.8353 182.445 32.6608 182.936 32.5082C184.235 32.1085 189.605 31.0255 188.297 33.9594C187.633 35.4135 186.851 36.8344 186.143 38.2372C185.438 39.5925 184.449 40.6145 183.452 41.7315C183.115 42.0636 182.803 42.3739 182.47 42.6584Z" fill="#EA4F4F"/>
<path d="M158.786 27.3279C158.949 27.9865 159.745 28.5036 160.242 28.8776C161.479 29.86 163.589 30.0981 164.922 29.2706C165.273 29.0592 166.838 27.4131 166.228 26.9585C166.206 26.9328 166.158 26.9291 166.111 26.9253C165.886 26.1423 165.51 25.4432 164.985 24.8278C164.46 24.2124 163.678 23.5052 162.919 23.1344C162.319 22.848 161.752 23.3771 161.228 23.6467C160.474 24.1133 159.917 24.4998 159.404 25.2484C159.001 25.8145 158.604 26.5962 158.786 27.3279Z" fill="#B72C38"/>
<path d="M158.73 35.3108C159.09 36.2001 160.022 36.5127 160.87 36.6752C161.999 36.9078 163.28 36.7458 164.395 36.5468C165.218 36.4204 165.779 35.9863 166.051 35.2665C166.098 35.2702 166.171 35.2521 166.201 35.1827C166.461 34.6054 166.788 34.1051 167.052 33.4803C167.262 32.9468 167.479 32.3183 167.549 31.726C167.624 31.0862 167.72 30.4721 167.699 29.8248C167.664 29.0568 167.479 28.3726 167.323 27.619C167.226 27.0374 167.272 25.8454 166.442 25.756C165.945 25.6929 165.283 25.9037 164.818 26.0344C164.306 26.1614 163.852 26.4604 163.471 26.7412C161.541 28.1673 159.731 29.8897 158.97 32.2688C158.628 33.2701 158.333 34.2751 158.73 35.3108Z" fill="#D33543"/>
<path d="M162.495 36.0845C161.631 36.4229 160.779 36.3079 159.921 35.9771C159.431 35.8189 159.026 35.5 158.676 35.0897L158.588 34.9872C158.15 34.4744 157.844 33.8046 157.634 33.1423C157.441 32.5532 157.321 31.9459 157.341 31.3975C157.346 30.4175 157.253 29.4775 157.474 28.4906C157.674 27.4781 157.873 26.4655 158.142 25.4824C158.146 25.4348 158.146 25.4348 158.146 25.4348C158.382 24.5687 158.952 24.6136 159.518 25.017C160.288 25.556 161.087 26.6473 161.364 27.0757C161.532 27.3759 161.725 27.6541 161.889 28.0019C162.18 28.5509 162.443 29.1694 162.661 29.7367C162.781 30.0331 162.875 30.3514 162.97 30.6697C163.308 31.8442 163.693 33.0224 163.91 34.2113C163.906 34.2589 163.928 34.2845 163.946 34.3577C163.965 34.4308 163.983 34.504 164.001 34.5772L164.019 34.6503C164.033 34.771 163.935 34.8111 163.839 34.8036C163.601 35.4065 163.062 35.8662 162.495 36.0845Z" fill="#D33543"/>
<path d="M176.705 28.4299C175.782 29.218 174.864 29.6477 174.645 29.3913C174.426 29.1349 174.994 28.2949 175.917 27.5069C176.84 26.7188 177.759 26.2891 177.978 26.5455C178.197 26.8019 177.628 27.6419 176.705 28.4299Z" fill="#F8F8F9"/>
<path d="M173.987 30.7511C173.782 30.9263 173.45 30.9 173.253 30.6693C173.056 30.4385 173.104 30.1314 173.309 29.9563C173.514 29.7812 173.847 29.8074 174.044 30.0382C174.241 30.2689 174.192 30.576 173.987 30.7511Z" fill="#F8F8F9"/>
<path d="M166.81 28.677C166.863 29.5181 166.737 30.2017 166.496 30.2305C166.28 30.2374 166.022 29.5713 165.968 28.7302C165.915 27.889 166.041 27.2054 166.282 27.1767C166.524 27.1479 166.756 27.8358 166.81 28.677Z" fill="#F8F8F9"/>
<path d="M166.995 31.1777C167.028 31.3716 166.87 31.5504 166.655 31.5573C166.439 31.5642 166.307 31.4104 166.275 31.2165C166.242 31.0226 166.4 30.8438 166.616 30.8369C166.831 30.83 166.988 30.9619 166.995 31.1777Z" fill="#F8F8F9"/>
<path d="M191.451 46.7381C190.599 46.6231 189.927 46.3548 189.967 46.1428C189.986 45.9052 190.71 45.8188 191.515 45.9301C192.366 46.0451 193.039 46.3133 192.998 46.5254C192.983 46.7155 192.281 46.8275 191.451 46.7381Z" fill="#F8F8F9"/>
<path d="M188.99 46.4003C188.8 46.3853 188.647 46.2058 188.688 45.9938C188.703 45.8037 188.882 45.6505 189.094 45.6911C189.284 45.7061 189.437 45.8856 189.397 46.0976C189.356 46.3096 189.18 46.4153 188.99 46.4003Z" fill="#F8F8F9"/>
<path d="M160.206 34.493L159.961 34.5694L158.636 34.991L158.589 34.9872L157.608 35.2925C157.55 35.1205 157.513 34.9742 157.43 34.8241C157.233 34.2825 157.231 33.7084 157.25 33.1599C157.258 33.0648 157.382 33.0029 157.426 33.0542C157.495 33.0836 157.565 33.113 157.634 33.1424C157.441 32.5532 157.322 31.946 157.341 31.3975C157.347 30.4175 157.254 29.4775 157.475 28.4906C157.674 27.4781 157.874 26.4656 158.143 25.4824C158.054 26.0015 157.498 29.712 158.853 32.545C159.177 33.288 159.603 33.9434 160.206 34.493Z" fill="#B72C38"/>
<path d="M182.47 42.6577C181.295 43.6171 179.798 44.4077 178.276 44.5986C178.199 44.6643 178.1 44.7043 178.023 44.77C176.749 45.4586 175.365 44.8233 174.247 44.1373C172.695 43.2018 171.403 41.6891 170.269 40.3083C169.463 39.312 169.19 38.2145 169.613 37.1C169.544 37.0706 169.504 36.9718 169.537 36.8548C169.754 35.9155 169.903 34.9467 170.168 34.0111C170.425 33.1706 170.789 32.1949 171.277 31.4682C171.277 31.4682 170.316 34.8598 172.228 36.9954C172.228 36.9954 174.659 35.5849 176.135 35.9645C176.417 36.0345 176.691 36.1996 176.862 36.4522C177.963 37.95 178.118 41.4535 178.118 41.4535C178.118 41.4535 179.207 41.5872 180.38 41.8711C181.108 42.048 181.875 42.3238 182.47 42.6577Z" fill="#DB4040"/>
<path d="M157.198 57.7628C157.121 57.8284 157 57.8428 156.935 57.7659C156.373 57.315 155.744 57.0981 155.262 56.534C154.916 56.0762 154.599 55.549 154.329 55.0256C153.597 53.7004 153.223 52.3796 153.076 50.9093C152.932 49.7023 153.325 48.6572 153.7 47.539C154.138 46.2344 154.353 44.7209 155.068 43.5338C155.149 43.4206 155.412 43.4175 155.449 43.5638C156.001 45.0422 156.701 46.4843 157.331 47.8971C157.819 48.9877 158.412 50.2541 158.75 51.4286C159.026 52.4786 158.943 53.8351 158.787 54.899C158.787 54.899 158.787 54.899 158.761 54.9209C158.698 55.418 158.478 55.7833 158.254 56.1961C158.254 56.1961 158.254 56.1961 158.276 56.2217C158.32 56.273 158.312 56.3681 158.283 56.4375C158.177 56.5726 158.092 56.7333 157.986 56.8684C157.982 56.9159 157.957 56.9378 157.953 56.9854C157.949 57.0329 157.945 57.0804 157.916 57.1498C157.89 57.1717 157.89 57.1717 157.865 57.1936C157.835 57.263 157.762 57.2812 157.689 57.2993C157.531 57.4782 157.374 57.6571 157.198 57.7628Z" fill="#C5C25E"/>
<path d="M192.224 53.9242C191.592 53.7547 191.081 52.9492 190.665 52.4621C189.688 51.2132 189.447 49.1138 190.272 47.7441C190.467 47.4007 192.123 45.8096 192.575 46.4431C192.597 46.4687 192.593 46.5163 192.589 46.5638C193.36 46.792 194.047 47.181 194.653 47.6831C195.281 48.2109 195.96 49.0058 196.331 49.7525C196.641 50.3747 196.073 50.9038 195.816 51.4336C195.42 52.2154 195.038 52.807 194.28 53.3211C193.724 53.7077 192.926 54.123 192.224 53.9242Z" fill="#B72C38"/>
<path d="M184.281 53.9681C183.4 53.6116 183.091 52.6786 182.943 51.8299C182.722 50.6886 182.871 49.409 183.056 48.2757C183.193 47.4496 183.596 46.8836 184.335 46.6071C184.339 46.5596 184.369 46.4901 184.394 46.4682C184.965 46.2024 185.47 45.8597 186.063 45.6195C186.583 45.3974 187.245 45.1866 187.801 45.1109C188.43 45.017 189.06 44.9232 189.699 44.9976C190.46 45.0576 191.14 45.2308 191.893 45.3858C192.481 45.504 193.659 45.4295 193.76 46.2744C193.817 46.7572 193.596 47.4332 193.489 47.8792C193.379 48.3726 193.078 48.8511 192.785 49.2345C191.366 51.1552 189.618 53.0021 187.287 53.7508C186.281 54.078 185.278 54.3576 184.281 53.9681Z" fill="#D33543"/>
<path d="M183.61 52.7675C183.32 51.9076 183.197 51.0371 183.528 50.1784C183.741 49.5974 184.188 49.0826 184.781 48.8424C184.763 48.7693 184.796 48.6523 184.938 48.6636L185.008 48.693C185.077 48.7223 185.172 48.7298 185.242 48.7592C185.242 48.7592 185.264 48.7849 185.289 48.763C186.514 49.003 187.705 49.3601 188.919 49.7427C190.132 50.1254 191.403 50.68 192.473 51.3623C193.226 51.8281 196.11 54.0644 194.131 54.6017C193.128 54.8814 192.086 55.0622 191.087 55.2943C190.114 55.5045 189.163 55.4295 188.209 55.402C186.469 55.3365 184.218 54.4654 183.61 52.7675Z" fill="#D33543"/>
<path d="M164.879 37.9944C164.125 38.461 163.309 38.8032 162.442 38.8783C162.153 38.9033 161.842 38.9027 161.535 38.8546C161.345 38.8396 161.181 38.8027 160.969 38.7621C159.891 38.4857 158.934 37.8841 158.292 36.9248C157.971 36.4452 157.778 35.8561 157.582 35.3145C157.524 35.1425 157.488 34.9961 157.404 34.8461C157.207 34.3045 157.205 33.7304 157.224 33.1819C157.232 33.0868 157.356 33.0249 157.4 33.0762C157.469 33.1056 157.539 33.135 157.608 33.1643C157.908 33.3075 158.233 33.4288 158.58 33.5758C158.649 33.6052 158.719 33.6346 158.741 33.6602C159.084 33.8547 159.376 34.0929 159.716 34.335C159.76 34.3862 159.829 34.4156 159.873 34.4669L159.938 34.5438C160.048 34.672 160.147 34.632 160.184 34.4675C160.261 34.4018 160.444 34.2011 160.521 34.1354C160.858 33.8033 161.22 33.4493 161.645 33.2197C162.073 32.9427 162.714 32.3954 163.204 32.8644C163.536 33.2015 163.758 33.7212 163.907 34.259C163.903 34.3065 163.925 34.3322 163.943 34.4053C164.019 34.6505 164.048 34.8919 164.128 35.0895C164.582 34.7905 165.007 34.561 165.581 34.5584C165.844 34.5553 166.177 34.5815 166.458 34.6516C166.528 34.681 166.619 34.736 166.71 34.791L166.736 34.7691C166.864 34.6597 167.039 34.8648 166.911 34.9742C166.885 34.9961 166.885 34.9961 166.86 35.018C166.834 35.0399 166.834 35.0399 166.83 35.0875C166.698 35.2444 166.607 35.5002 166.518 35.7085C166.353 35.9824 166.258 36.2858 166.067 36.5816C165.74 37.0819 165.41 37.6298 164.879 37.9944Z" fill="#C5C25E"/>
<path d="M157.893 57.7464C158.036 57.4468 158.157 57.1216 158.3 56.822C158.3 56.822 158.3 56.822 158.326 56.8001C158.477 56.4055 158.675 56.0146 158.804 55.5943C158.833 55.5249 158.862 55.4555 158.87 55.3604C159.59 53.5042 160.15 51.5635 160.611 49.6629C161.41 46.4977 162.391 42.2468 161.535 38.8553C161.44 38.537 161.368 38.2443 161.273 37.926C161.077 37.3844 161.911 37.1154 162.108 37.657C162.268 38.0522 162.38 38.4437 162.442 38.879C163.123 42.0654 162.388 45.9291 161.724 48.8898C161.318 50.6991 160.839 52.5266 160.196 54.3171C160.163 54.4341 160.104 54.5729 160.071 54.6899C159.946 55.0626 159.795 55.4573 159.648 55.8044C159.619 55.8738 159.615 55.9213 159.585 55.9908C159.582 56.0383 159.552 56.1077 159.527 56.1296C158.984 56.6368 158.417 57.166 157.893 57.7464Z" fill="#C5C25E"/>
<path d="M144.579 76.1605C145.713 72.3999 148.301 69.304 150.508 66.1781C152.261 63.662 153.831 61.0358 155.81 58.681C156.129 58.2757 156.496 57.8742 156.858 57.5202C157.485 56.8522 158.108 56.2318 158.778 55.6151C158.958 55.4619 159.09 55.3049 159.269 55.1517C159.577 54.889 159.863 54.6006 160.196 54.3161C161.482 53.174 162.808 52.1307 164.115 51.0143L168.653 47.1397C169.243 46.6362 169.8 45.9388 170.503 45.516C169.229 44.3872 168.439 42.8901 167.923 41.2472C167.617 40.2666 167.799 39.1809 167.925 38.1865C167.992 37.6417 168.197 37.1558 168.286 36.6367C168.36 36.3077 168.511 35.9131 168.541 35.5329C168.544 35.4853 168.548 35.4378 168.552 35.3903C168.556 35.3427 168.556 35.3427 168.559 35.2952C168.509 35.0282 168.948 34.9193 168.995 35.2339L168.991 35.2814C169.605 35.3777 170.211 35.8798 170.635 36.2719C171.35 36.9023 171.648 37.6671 171.866 38.5452C172.807 37.8303 174.104 36.8565 175.278 36.8295C176.356 36.795 176.58 38.1997 176.827 39.0083C177.1 39.795 177.157 40.5886 177.236 41.4079C177.269 41.6018 177.235 42.0296 177.293 42.2015C177.124 42.523 177.234 42.6512 177.647 42.5642C177.768 42.5499 177.91 42.5611 178.005 42.5686C178.649 42.5954 179.267 42.6442 179.899 42.8136C180.696 43.02 181.408 43.387 182.205 43.5933C182.322 43.6265 182.402 43.8241 182.321 43.9373C181.717 44.6309 181.159 45.3283 180.336 45.7655C179.289 46.3047 178.227 47.0339 177.104 47.328C175.322 47.7852 173.531 47.4526 171.902 46.5828C171.65 46.4434 171.445 46.3077 171.241 46.172C170.084 46.5829 168.677 48.3611 167.831 49.0835C166.574 50.1561 165.314 51.2763 164.036 52.3233C163.523 52.7611 163.014 53.1514 162.501 53.5892C161.608 54.3078 160.732 55.0997 159.882 55.8696C159.78 55.9571 159.651 56.0666 159.571 56.1798C159.003 56.7089 158.435 57.238 157.889 57.7928C157.735 57.9242 157.629 58.0593 157.475 58.1906C154.947 60.8368 153.185 64.0696 151.04 67.0092C148.943 69.9524 146.483 72.9389 145.412 76.5131C145.254 77.0028 144.417 76.6977 144.579 76.1605Z" fill="#C5C25E"/>
<path d="M187.474 55.3196C187.12 55.2678 186.743 55.1902 186.371 55.0652C185.647 54.8407 184.956 54.4993 184.445 54.0046C184.376 53.9752 184.329 53.9715 184.259 53.9421C183.378 53.5857 183.069 52.6526 182.921 51.804C182.7 50.6626 182.871 49.4087 183.034 48.2498C183.171 47.4236 183.574 46.8576 184.314 46.5811C184.317 46.5336 184.321 46.4861 184.372 46.4423C184.57 46.3622 184.72 46.2784 184.896 46.1727C185.269 45.987 185.646 45.7537 186.067 45.5716C186.587 45.3496 187.249 45.1388 187.805 45.0631C188.456 44.9949 189.085 44.901 189.703 44.9497C190.252 44.9691 190.767 45.1054 191.286 45.1942L191.202 45.3549C191.202 45.3549 187.279 44.7585 185.902 47.663C185.902 47.663 188.077 48.2889 187.917 49.4002C187.784 50.4897 187.336 51.3152 186.08 52.3879C186.08 52.3879 186.678 52.9851 187.071 53.7574C187.315 54.3028 187.49 54.8187 187.474 55.3196Z" fill="#B72C38"/>
<path d="M184.728 55.2702C184.055 55.002 183.259 54.7957 182.692 54.3923C181.761 53.7689 181.145 52.7876 180.873 51.6901C180.528 50.2998 180.897 48.9658 181.638 47.7569C181.968 47.209 182.543 46.8957 183.048 46.5529C183.3 46.3815 183.644 46.2652 183.919 46.1194C184.095 46.0137 184.34 45.9374 184.541 45.8098C184.567 45.7879 184.593 45.7661 184.593 45.7661C184.618 45.7442 184.618 45.7442 184.618 45.7442C184.724 45.6091 184.951 45.7704 184.845 45.9055C184.845 45.9055 184.845 45.9055 184.819 45.9274C185.034 46.2313 185.044 46.7104 185.04 47.0687C185.042 47.6428 184.815 48.1032 184.518 48.5341C185.245 48.711 186.21 48.9067 186.717 49.4489C187.181 49.9398 186.627 50.5896 186.356 50.9987C186.106 51.4333 185.769 51.7654 185.407 52.1194C185.304 52.207 185.125 52.3602 185.07 52.4515C184.85 52.506 184.842 52.601 185.069 52.7624C185.113 52.8136 185.156 52.8649 185.222 52.9418C185.485 53.2495 185.7 53.5535 185.911 53.9049C186.141 54.3295 186.268 54.8417 186.497 55.2664C186.516 55.3395 186.482 55.4565 186.387 55.449C185.835 55.4772 185.261 55.4797 184.728 55.2702Z" fill="#C5C25E"/>
<path d="M181.682 51.4436C181.379 51.348 181.075 51.2523 180.746 51.1785C177.369 50.3382 173.133 51.2954 169.986 52.0755C166.522 52.95 163.013 54.0841 159.886 55.8223C159.788 55.8623 159.711 55.928 159.612 55.968C159.26 56.1794 158.909 56.3908 158.557 56.6023C158.459 56.6423 158.356 56.7299 158.279 56.7955C157.799 57.1164 157.294 57.4591 156.858 57.8313C156.503 58.0902 156.144 58.3967 155.811 58.6813C156.13 58.276 156.496 57.8745 156.859 57.5205C157.486 56.8525 158.108 56.2321 158.779 55.6154C158.808 55.5459 158.838 55.4765 158.845 55.3815C158.995 55.2976 159.12 55.2357 159.27 55.1519C159.544 55.0062 159.819 54.8604 160.071 54.6891C160.869 54.2737 161.689 53.8841 162.505 53.5419C165.155 52.3879 167.947 51.5559 170.745 50.9397C173.69 50.2872 177.528 49.5377 180.701 50.2423C181.125 50.3236 181.545 50.4524 181.918 50.5775C182.499 50.7907 182.219 51.6056 181.682 51.4436Z" fill="#C5C25E"/>
<path d="M170.496 41.666C170.194 40.6378 170.123 39.4127 170.396 38.382C170.429 38.265 170.268 38.1806 170.166 38.2682C169.766 38.7867 169.75 39.5984 169.701 40.2163C169.66 40.7392 169.596 41.5472 170.067 41.943C170.246 42.1006 170.572 41.9111 170.496 41.666Z" fill="#BAB23C"/>
<path d="M173.831 41.833C174.029 41.4421 174.001 40.8899 174.316 40.5321C174.368 40.4884 174.276 40.4333 174.251 40.4552C173.925 40.6447 173.844 41.0688 173.722 41.394C173.535 41.9531 173.026 42.3434 172.886 42.9062C172.856 42.9757 172.944 43.0782 173.043 43.0382C173.42 42.8049 173.659 42.202 173.831 41.833Z" fill="#BAB23C"/>
<path d="M178.309 44.4824C177.709 44.5068 177.16 44.7983 176.535 44.8446C176.03 44.8765 175.475 44.6414 175.061 45.0392C174.903 45.2181 174.881 45.5032 175.111 45.6171C176.342 46.3837 177.419 45.1535 178.327 44.5555C178.353 44.5336 178.309 44.4824 178.309 44.4824Z" fill="#BAB23C"/>
<path d="M160.99 36.9705C160.746 36.736 160.398 36.5891 160.103 36.3983C159.694 36.1269 159.435 35.7717 159.051 35.4785C159.029 35.4528 159.004 35.4747 159.026 35.5003C159.467 36.2764 160.153 36.6654 160.909 37.0837C160.957 37.0875 161.034 37.0218 160.99 36.9705Z" fill="#BAB23C"/>
<path d="M162.342 35.906C162.39 35.5989 162.39 35.2881 162.46 35.0066C162.464 34.9591 162.417 34.9554 162.391 34.9772C162.123 35.3387 162.001 35.9748 162.11 36.4138C162.128 36.487 162.176 36.4907 162.227 36.4469C162.429 36.3194 162.327 36.0961 162.342 35.906Z" fill="#BAB23C"/>
<path d="M164.406 37.0249C164.483 36.9592 164.908 36.108 164.956 36.1118C164.978 36.1374 164.982 36.0899 164.982 36.0899C164.96 36.0642 164.938 36.0386 164.916 36.0129C164.894 35.9873 164.868 36.0092 164.868 36.0092C164.586 36.25 164.396 36.5458 164.114 36.7866C163.857 37.0055 163.583 37.1513 163.439 37.4508C163.384 37.5422 163.494 37.6703 163.593 37.6303C163.915 37.4883 164.193 37.2951 164.406 37.0249Z" fill="#BAB23C"/>
<path d="M183.032 49.1828C183.175 48.8832 183.315 48.3203 183.659 48.204C183.382 48.0864 183.173 48.3091 183.059 48.5392C182.809 48.9739 182.659 49.3686 182.526 49.8364C182.497 49.9058 182.61 49.9865 182.661 49.9427C182.866 49.7675 182.893 49.4348 183.032 49.1828Z" fill="#BAB23C"/>
<path d="M184.521 50.6159C184.13 50.7285 183.365 50.716 183.145 51.0813C183.116 51.1507 183.182 51.2276 183.255 51.2095C183.679 50.9799 184.137 50.9443 184.521 50.6159Z" fill="#BAB23C"/>
<path d="M184.383 53.8806C184.083 53.7374 183.43 53.2315 183.361 52.8913C183.321 52.7925 183.204 52.7593 183.171 52.8763C182.976 53.5305 183.849 53.982 184.383 53.8806Z" fill="#BAB23C"/>
<path d="M170.645 55.5472C168.175 56.548 166.01 58.2186 163.536 59.267C162.471 59.733 161.381 60.2208 160.276 60.588C159.712 60.7588 159.156 60.8345 158.651 61.1773C158.574 61.2429 158.683 61.3711 158.757 61.353C162.965 59.8436 167.169 58.3818 170.645 55.5472C170.671 55.5253 170.693 55.551 170.645 55.5472Z" fill="#BAB23C"/>
<path d="M157.258 55.1846C155.764 52.6036 154.907 49.523 155.406 46.5254C154.943 47.8519 155.071 49.8707 155.295 51.2753C155.541 52.7056 155.965 54.2934 157.057 55.3121C157.144 55.4147 157.342 55.3346 157.258 55.1846Z" fill="#BAB23C"/>
<path d="M191.733 46.4983C190.91 46.3139 190.242 45.9981 190.308 45.7642C190.349 45.5522 191.047 45.4877 191.895 45.6503C192.718 45.8347 193.386 46.1505 193.32 46.3844C193.254 46.6183 192.555 46.6828 191.733 46.4983Z" fill="#F8F8F9"/>
<path d="M189.288 45.9698C189.076 45.9291 188.97 45.7534 189.011 45.5414C189.026 45.3513 189.227 45.2237 189.439 45.2643C189.651 45.3049 189.757 45.4807 189.716 45.6927C189.676 45.9047 189.474 46.0323 189.288 45.9698Z" fill="#F8F8F9"/>
<path opacity="0.09" d="M157.641 57.2956C157.51 57.4526 157.352 57.6314 157.198 57.7628C157.121 57.8284 157 57.8428 156.935 57.7659C156.373 57.315 155.744 57.0981 155.262 56.534C154.916 56.0762 154.599 55.549 154.329 55.0256C153.597 53.7004 153.223 52.3796 153.076 50.9093C152.932 49.7023 153.325 48.6572 153.7 47.539C154.138 46.2344 154.353 44.7209 155.068 43.5338C155.149 43.4206 155.412 43.4175 155.449 43.5638C155.449 43.5638 153.554 53.0275 155.708 55.1343C157.726 57.1348 158.67 55.1766 158.758 54.9684C158.695 55.4656 158.474 55.8308 158.251 56.2436C158.251 56.2436 158.251 56.2436 158.272 56.2692C158.316 56.3205 158.309 56.4156 158.279 56.485C158.173 56.6201 158.089 56.7808 157.982 56.9159C157.979 56.9635 157.953 56.9854 157.949 57.0329C157.945 57.0804 157.942 57.1279 157.912 57.1974C157.887 57.2193 157.887 57.2193 157.861 57.2411C157.762 57.2812 157.711 57.325 157.641 57.2956Z" fill="#CB2C1C"/>
<path opacity="0.09" d="M161.939 62.5365C160.903 62.933 159.769 63.3697 158.635 63.4954C157.428 63.6394 156.093 63.8927 154.849 63.8903C154.491 63.886 153.288 63.9824 153.084 63.5358C152.964 63.2394 153.202 62.9473 153.458 62.7284C153.979 61.8847 154.884 61.3343 155.627 60.6995C156.371 60.0646 157.078 59.2835 157.935 58.7293C158.363 58.4522 158.813 58.2008 159.289 57.9275L159.304 58.0482C159.304 58.0482 155.024 60.7714 156.03 62.2617C157.044 63.6569 161.672 62.5872 161.939 62.5365Z" fill="#CB2C1C"/>
<path d="M157.263 78.7639C157.166 77.5606 156.772 77.0991 155.739 76.5632C154.062 75.6896 153.926 74.0767 154.511 72.425C154.904 71.38 155.104 70.0566 154.664 68.9697C154.485 68.5013 154.168 67.9741 153.814 67.6114C153.792 67.5857 153.164 67.0579 152.737 66.7134C153.041 66.809 153.318 66.9266 153.596 67.0441C154.542 67.4775 155.617 67.8014 156.625 68.0483C157.517 68.2622 159.704 68.4346 159.721 67.0012C159.727 65.7104 157.59 64.92 156.595 64.7938C155.009 64.5969 152.708 64.6545 151.346 65.5515C151.303 65.5002 151.255 65.4964 151.211 65.4452C151.189 65.4195 151.164 65.4414 151.142 65.4158C151.069 65.1231 151.074 64.7647 151.019 64.5452C150.91 64.1062 150.776 63.6891 150.594 63.2682C150.255 62.4045 149.822 61.5334 149.385 60.7098C148.842 59.7104 147.499 58.2414 146.265 59.0289C145.284 59.645 146.031 61.0908 146.497 61.845C146.964 62.5992 147.632 63.2259 148.201 63.8925C148.529 64.2771 148.836 64.6361 149.216 64.9769C148.693 64.9356 148.214 64.9457 147.804 64.9851C146.209 65.1941 145.081 66.4681 143.356 65.9016C142.402 65.5633 141.336 64.5227 140.264 64.773C139.851 64.8599 138.888 65.2384 139.012 65.7981C139.084 66.0908 139.545 66.0076 139.447 65.7368C139.389 65.5648 140.373 65.212 140.494 65.1976C141.093 65.1732 141.933 65.7416 142.463 65.9986C143.128 66.3619 143.852 66.5864 144.598 66.5257C145.486 66.4762 146.197 65.9583 147.035 65.6418C147.748 65.3872 148.974 65.3165 149.939 65.5122C150.212 65.6772 150.439 65.8386 150.614 66.0437C150.723 66.1719 150.895 66.1137 150.976 66.0005C151.064 66.1031 151.162 66.0631 151.239 65.9974C151.444 66.1331 151.696 66.2725 151.952 66.3644C151.948 66.412 151.992 66.4633 152.014 66.4889C152.783 67.6496 154.183 68.0948 154.443 69.6458C154.685 71.1236 153.904 72.2337 153.7 73.6046C153.615 74.387 153.872 75.6746 154.448 76.2462C154.649 76.4294 155.066 76.6058 155.292 76.7671C156.209 77.2699 156.727 77.6695 156.809 78.752C156.875 79.1398 157.288 79.0528 157.263 78.7639ZM150.034 65.2088C149.965 65.1794 149.873 65.1244 149.83 65.0731C149.085 64.5122 148.549 63.7286 147.958 63.0363C147.542 62.5492 147.122 62.1096 146.783 61.5567C146.36 60.8538 145.87 59.189 147.346 59.5685C148.871 59.9518 149.419 61.7886 150.035 63.0806C150.319 63.7247 150.625 64.3945 150.711 65.1187C150.725 65.2394 150.74 65.3601 150.758 65.4333C150.48 65.3157 150.272 65.2276 150.034 65.2088ZM155.794 65.2566C156.415 65.2578 157.011 65.2809 157.588 65.5417C157.84 65.6811 158.136 65.8718 158.363 66.0332C158.907 66.4109 159.313 66.419 158.993 67.1351C158.431 68.5016 156.053 67.4292 154.978 67.1053C154.346 66.9359 153.794 66.6533 153.217 66.3925C152.753 66.2124 152.238 66.0761 151.799 65.8741C152.927 65.2218 154.576 65.2323 155.794 65.2566Z" fill="#F2DEC9"/>
<path d="M101.572 66.9951H107.856L105.879 78.4209H99.5947L97.2217 92H82.7637L85.1367 78.4209H61.1865L61.9775 68.665L93.3984 28.1475V27.8398L108.34 28.0596L101.572 66.9951ZM76.2158 66.9072L87.1143 66.9951L90.9814 47.1318L76.2158 66.9072ZM116.294 60.5352L125.171 28.0156H161.646L159.8 39.5293H135.322L131.411 52.3174C133.784 50.7939 136.729 50.0029 140.244 49.9443C145.869 49.9443 150.19 51.8926 153.208 55.7891C156.255 59.6855 157.515 64.7832 156.987 71.082C156.46 77.5859 153.926 82.8887 149.385 86.9902C144.844 91.0625 139.351 93.04 132.905 92.9229C129.126 92.835 125.684 91.9561 122.578 90.2861C119.502 88.6162 117.114 86.3457 115.415 83.4746C113.716 80.5742 112.881 77.3369 112.91 73.7627H127.324C127.383 76.0479 127.954 77.8789 129.038 79.2559C130.122 80.6328 131.646 81.3506 133.608 81.4092C136.011 81.4971 138.003 80.6035 139.585 78.7285C141.167 76.8242 142.178 73.9385 142.617 70.0713C142.91 66.8193 142.471 64.3584 141.299 62.6885C140.127 60.9893 138.296 60.1396 135.806 60.1396C132.612 60.1396 130.02 61.2236 128.027 63.3916L116.294 60.5352Z" fill="#EF3829"/>
<path d="M101.572 66.9951L98.6166 66.4814L98.0058 69.9951H101.572V66.9951ZM107.856 66.9951L110.812 67.5067L111.42 63.9951H107.856V66.9951ZM105.879 78.4209V81.4209H108.404L108.835 78.9325L105.879 78.4209ZM99.5947 78.4209V75.4209H97.0735L96.6395 77.9045L99.5947 78.4209ZM97.2217 92V95H99.7429L100.177 92.5164L97.2217 92ZM82.7637 92L79.8085 91.4836L79.1939 95H82.7637V92ZM85.1367 78.4209L88.0919 78.9373L88.7065 75.4209H85.1367V78.4209ZM61.1865 78.4209L58.1963 78.1785L57.9334 81.4209H61.1865V78.4209ZM61.9775 68.665L59.6069 66.8266L59.0595 67.5324L58.9874 68.4226L61.9775 68.665ZM93.3984 28.1475L95.7691 29.9859L96.3984 29.1744V28.1475H93.3984ZM93.3984 27.8398L93.4426 24.8402L90.3984 24.7954V27.8398H93.3984ZM108.34 28.0596L111.296 28.5733L111.897 25.1116L108.384 25.0599L108.34 28.0596ZM76.2158 66.9072L73.812 65.1124L70.2676 69.8594L76.1916 69.9071L76.2158 66.9072ZM87.1143 66.9951L87.0901 69.995L89.5826 70.0151L90.059 67.5684L87.1143 66.9951ZM90.9814 47.1318L93.9262 47.7051L88.5776 45.337L90.9814 47.1318ZM101.572 69.9951H107.856V63.9951H101.572V69.9951ZM104.9 66.4835L102.923 77.9093L108.835 78.9325L110.812 67.5067L104.9 66.4835ZM105.879 75.4209H99.5947V81.4209H105.879V75.4209ZM96.6395 77.9045L94.2665 91.4836L100.177 92.5164L102.55 78.9373L96.6395 77.9045ZM97.2217 89H82.7637V95H97.2217V89ZM85.7189 92.5164L88.0919 78.9373L82.1815 77.9045L79.8085 91.4836L85.7189 92.5164ZM85.1367 75.4209H61.1865V81.4209H85.1367V75.4209ZM64.1767 78.6633L64.9677 68.9075L58.9874 68.4226L58.1963 78.1785L64.1767 78.6633ZM64.3482 70.5035L95.7691 29.9859L91.0278 26.309L59.6069 66.8266L64.3482 70.5035ZM96.3984 28.1475V27.8398H90.3984V28.1475H96.3984ZM93.3543 30.8395L108.296 31.0592L108.384 25.0599L93.4426 24.8402L93.3543 30.8395ZM105.384 27.5458L98.6166 66.4814L104.528 67.5089L111.296 28.5733L105.384 27.5458ZM76.1916 69.9071L87.0901 69.995L87.1385 63.9952L76.24 63.9073L76.1916 69.9071ZM90.059 67.5684L93.9262 47.7051L88.0367 46.5585L84.1695 66.4218L90.059 67.5684ZM88.5776 45.337L73.812 65.1124L78.6197 68.7021L93.3853 48.9267L88.5776 45.337ZM116.294 60.5352L113.4 59.7451L112.588 62.7205L115.584 63.45L116.294 60.5352ZM125.171 28.0156V25.0156H122.88L122.277 27.2256L125.171 28.0156ZM161.646 28.0156L164.608 28.4905L165.165 25.0156H161.646V28.0156ZM159.8 39.5293V42.5293H162.357L162.762 40.0042L159.8 39.5293ZM135.322 39.5293V36.5293H133.103L132.453 38.6519L135.322 39.5293ZM131.411 52.3174L128.542 51.44L126.151 59.2594L133.032 54.8419L131.411 52.3174ZM140.244 49.9443V46.9443H140.219L140.194 46.9448L140.244 49.9443ZM153.208 55.7891L150.836 57.626L150.845 57.637L153.208 55.7891ZM156.987 71.082L153.998 70.8317L153.997 70.8396L156.987 71.082ZM149.385 86.9902L151.388 89.2237L151.396 89.2165L149.385 86.9902ZM132.905 92.9229L132.836 95.922L132.843 95.9222L132.851 95.9224L132.905 92.9229ZM122.578 90.2861L121.147 92.9227L121.157 92.9283L122.578 90.2861ZM115.415 83.4746L112.827 84.9911L112.833 85.0026L115.415 83.4746ZM112.91 73.7627V70.7627H109.935L109.91 73.7381L112.91 73.7627ZM127.324 73.7627L130.323 73.6858L130.248 70.7627H127.324V73.7627ZM133.608 81.4092L133.718 78.4112L133.708 78.4108L133.698 78.4105L133.608 81.4092ZM139.585 78.7285L141.878 80.6631L141.885 80.6544L141.893 80.6456L139.585 78.7285ZM142.617 70.0713L145.598 70.41L145.602 70.3753L145.605 70.3405L142.617 70.0713ZM141.299 62.6885L138.829 64.3917L138.836 64.4017L138.843 64.4118L141.299 62.6885ZM128.027 63.3916L127.318 66.3065L129.038 66.7253L130.236 65.4215L128.027 63.3916ZM119.188 61.3252L128.065 28.8056L122.277 27.2256L113.4 59.7451L119.188 61.3252ZM125.171 31.0156H161.646V25.0156H125.171V31.0156ZM158.683 27.5408L156.838 39.0544L162.762 40.0042L164.608 28.4905L158.683 27.5408ZM159.8 36.5293H135.322V42.5293H159.8V36.5293ZM132.453 38.6519L128.542 51.44L134.28 53.1948L138.191 40.4067L132.453 38.6519ZM133.032 54.8419C134.832 53.686 137.199 52.9955 140.294 52.9439L140.194 46.9448C136.258 47.0104 132.736 47.9019 129.79 49.7928L133.032 54.8419ZM140.244 52.9443C145.09 52.9443 148.472 54.5733 150.836 57.6259L155.58 53.9522C151.909 49.2118 146.648 46.9443 140.244 46.9443V52.9443ZM150.845 57.637C153.307 60.7862 154.48 65.0693 153.998 70.8317L159.977 71.3323C160.549 64.4971 159.203 58.5849 155.571 53.9411L150.845 57.637ZM153.997 70.8396C153.527 76.6371 151.308 81.2109 147.374 84.7639L151.396 89.2165C156.544 84.5665 159.393 78.5348 159.977 71.3245L153.997 70.8396ZM147.382 84.7568C143.44 88.2921 138.695 90.0276 132.96 89.9233L132.851 95.9224C140.007 96.0525 146.248 93.8329 151.388 89.2237L147.382 84.7568ZM132.975 89.9237C129.633 89.8459 126.659 89.0742 123.999 87.6439L121.157 92.9283C124.708 94.8379 128.619 95.824 132.836 95.922L132.975 89.9237ZM124.009 87.6496C121.385 86.2251 119.406 84.3276 117.997 81.9466L112.833 85.0026C114.823 88.3638 117.618 91.0073 121.147 92.9227L124.009 87.6496ZM118.004 81.9581C116.595 79.5547 115.885 76.8557 115.91 73.7873L109.91 73.7381C109.877 77.8181 110.836 81.5937 112.827 84.9911L118.004 81.9581ZM112.91 76.7627H127.324V70.7627H112.91V76.7627ZM124.325 73.8396C124.395 76.5745 125.09 79.0908 126.681 81.1115L131.395 77.4002C130.818 76.667 130.37 75.5212 130.323 73.6858L124.325 73.8396ZM126.681 81.1115C128.385 83.2759 130.789 84.3263 133.519 84.4078L133.698 78.4105C132.502 78.3748 131.859 77.9897 131.395 77.4002L126.681 81.1115ZM133.499 84.4072C136.845 84.5296 139.715 83.2262 141.878 80.6631L137.292 76.7939C136.291 77.9809 135.177 78.4646 133.718 78.4112L133.499 84.4072ZM141.893 80.6456C144.005 78.1029 145.127 74.5524 145.598 70.41L139.636 69.7326C139.228 73.3246 138.329 75.5456 137.277 76.8115L141.893 80.6456ZM145.605 70.3405C145.926 66.7808 145.516 63.4753 143.754 60.9652L138.843 64.4118C139.425 65.2415 139.895 66.8579 139.629 69.8021L145.605 70.3405ZM143.768 60.9853C141.917 58.3001 139.05 57.1396 135.806 57.1396V63.1396C137.542 63.1396 138.337 63.6784 138.829 64.3917L143.768 60.9853ZM135.806 57.1396C131.852 57.1396 128.43 58.5193 125.818 61.3617L130.236 65.4215C131.609 63.9279 133.373 63.1396 135.806 63.1396V57.1396ZM128.737 60.4767L117.004 57.6203L115.584 63.45L127.318 66.3065L128.737 60.4767Z" fill="#EF3829"/>
<path d="M232.034 61.7504C231.625 61.7504 231.216 61.7504 230.807 61.6141C230.534 61.2051 230.398 60.9325 230.125 60.5235C225.217 52.2073 225.899 40.3465 233.533 41.0281C237.351 41.4371 237.214 47.0267 237.76 49.208C239.941 48.6627 245.258 46.2087 247.439 49.3443C251.665 55.6155 241.577 62.0231 232.034 61.7504Z" fill="#EF3829"/>
</g>
<defs>
<filter id="filter0_f" x="23" y="81" width="156" height="26" filterUnits="userSpaceOnUse" color-interpolation-filters="sRGB">
<feFlood flood-opacity="0" result="BackgroundImageFix"/>
<feBlend mode="normal" in="SourceGraphic" in2="BackgroundImageFix" result="shape"/>
<feGaussianBlur stdDeviation="5" result="effect1_foregroundBlur"/>
</filter>
<clipPath id="clip0">
<rect width="277" height="105.82" fill="white"/>
</clipPath>
<clipPath id="clip1">
<rect width="26.9138" height="21.1142" fill="white" transform="translate(109.601 -0.861328) rotate(31.6292)"/>
</clipPath>
<clipPath id="clip2">
<rect width="42.7637" height="49.205" fill="white" transform="translate(22 57.0625)"/>
</clipPath>
</defs>
</svg>
