<svg width="277" height="106" viewBox="0 0 277 106" fill="none" xmlns="http://www.w3.org/2000/svg">
<g clip-path="url(#clip0)">
<g filter="url(#filter0_f)">
<ellipse cx="101" cy="94" rx="68" ry="3" fill="#C4C4C4" fill-opacity="0.5"/>
</g>
<path d="M101.572 66.9951H107.856L105.879 78.4209H99.5947L97.2217 92H82.7637L85.1367 78.4209H61.1865L61.9775 68.665L93.3984 28.1475V27.8398L108.34 28.0596L101.572 66.9951ZM76.2158 66.9072L87.1143 66.9951L90.9814 47.1318L76.2158 66.9072ZM116.294 60.5352L125.171 28.0156H161.646L159.8 39.5293H135.322L131.411 52.3174C133.784 50.7939 136.729 50.0029 140.244 49.9443C145.869 49.9443 150.19 51.8926 153.208 55.7891C156.255 59.6855 157.515 64.7832 156.987 71.082C156.46 77.5859 153.926 82.8887 149.385 86.9902C144.844 91.0625 139.351 93.04 132.905 92.9229C129.126 92.835 125.684 91.9561 122.578 90.2861C119.502 88.6162 117.114 86.3457 115.415 83.4746C113.716 80.5742 112.881 77.3369 112.91 73.7627H127.324C127.383 76.0479 127.954 77.8789 129.038 79.2559C130.122 80.6328 131.646 81.3506 133.608 81.4092C136.011 81.4971 138.003 80.6035 139.585 78.7285C141.167 76.8242 142.178 73.9385 142.617 70.0713C142.91 66.8193 142.471 64.3584 141.299 62.6885C140.127 60.9893 138.296 60.1396 135.806 60.1396C132.612 60.1396 130.02 61.2236 128.027 63.3916L116.294 60.5352Z" fill="#EF3829"/>
<path d="M101.572 66.9951L98.6166 66.4814L98.0058 69.9951H101.572V66.9951ZM107.856 66.9951L110.812 67.5067L111.42 63.9951H107.856V66.9951ZM105.879 78.4209V81.4209H108.404L108.835 78.9325L105.879 78.4209ZM99.5947 78.4209V75.4209H97.0735L96.6395 77.9045L99.5947 78.4209ZM97.2217 92V95H99.7429L100.177 92.5164L97.2217 92ZM82.7637 92L79.8085 91.4836L79.1939 95H82.7637V92ZM85.1367 78.4209L88.0919 78.9373L88.7065 75.4209H85.1367V78.4209ZM61.1865 78.4209L58.1963 78.1785L57.9334 81.4209H61.1865V78.4209ZM61.9775 68.665L59.6069 66.8266L59.0595 67.5324L58.9874 68.4226L61.9775 68.665ZM93.3984 28.1475L95.7691 29.9859L96.3984 29.1744V28.1475H93.3984ZM93.3984 27.8398L93.4426 24.8402L90.3984 24.7954V27.8398H93.3984ZM108.34 28.0596L111.296 28.5733L111.897 25.1116L108.384 25.0599L108.34 28.0596ZM76.2158 66.9072L73.812 65.1124L70.2676 69.8594L76.1916 69.9071L76.2158 66.9072ZM87.1143 66.9951L87.0901 69.995L89.5826 70.0151L90.059 67.5684L87.1143 66.9951ZM90.9814 47.1318L93.9262 47.7051L88.5776 45.337L90.9814 47.1318ZM101.572 69.9951H107.856V63.9951H101.572V69.9951ZM104.9 66.4835L102.923 77.9093L108.835 78.9325L110.812 67.5067L104.9 66.4835ZM105.879 75.4209H99.5947V81.4209H105.879V75.4209ZM96.6395 77.9045L94.2665 91.4836L100.177 92.5164L102.55 78.9373L96.6395 77.9045ZM97.2217 89H82.7637V95H97.2217V89ZM85.7189 92.5164L88.0919 78.9373L82.1815 77.9045L79.8085 91.4836L85.7189 92.5164ZM85.1367 75.4209H61.1865V81.4209H85.1367V75.4209ZM64.1767 78.6633L64.9677 68.9075L58.9874 68.4226L58.1963 78.1785L64.1767 78.6633ZM64.3482 70.5035L95.7691 29.9859L91.0278 26.309L59.6069 66.8266L64.3482 70.5035ZM96.3984 28.1475V27.8398H90.3984V28.1475H96.3984ZM93.3543 30.8395L108.296 31.0592L108.384 25.0599L93.4426 24.8402L93.3543 30.8395ZM105.384 27.5458L98.6166 66.4814L104.528 67.5089L111.296 28.5733L105.384 27.5458ZM76.1916 69.9071L87.0901 69.995L87.1385 63.9952L76.24 63.9073L76.1916 69.9071ZM90.059 67.5684L93.9262 47.7051L88.0367 46.5585L84.1695 66.4218L90.059 67.5684ZM88.5776 45.337L73.812 65.1124L78.6197 68.7021L93.3853 48.9267L88.5776 45.337ZM116.294 60.5352L113.4 59.7451L112.588 62.7205L115.584 63.45L116.294 60.5352ZM125.171 28.0156V25.0156H122.88L122.277 27.2256L125.171 28.0156ZM161.646 28.0156L164.608 28.4905L165.165 25.0156H161.646V28.0156ZM159.8 39.5293V42.5293H162.357L162.762 40.0042L159.8 39.5293ZM135.322 39.5293V36.5293H133.103L132.453 38.6519L135.322 39.5293ZM131.411 52.3174L128.542 51.44L126.151 59.2594L133.032 54.8419L131.411 52.3174ZM140.244 49.9443V46.9443H140.219L140.194 46.9448L140.244 49.9443ZM153.208 55.7891L150.836 57.626L150.845 57.637L153.208 55.7891ZM156.987 71.082L153.998 70.8317L153.997 70.8396L156.987 71.082ZM149.385 86.9902L151.388 89.2237L151.396 89.2165L149.385 86.9902ZM132.905 92.9229L132.836 95.922L132.843 95.9222L132.851 95.9224L132.905 92.9229ZM122.578 90.2861L121.147 92.9227L121.157 92.9283L122.578 90.2861ZM115.415 83.4746L112.827 84.9911L112.833 85.0026L115.415 83.4746ZM112.91 73.7627V70.7627H109.935L109.91 73.7381L112.91 73.7627ZM127.324 73.7627L130.323 73.6858L130.248 70.7627H127.324V73.7627ZM133.608 81.4092L133.718 78.4112L133.708 78.4108L133.698 78.4105L133.608 81.4092ZM139.585 78.7285L141.878 80.6631L141.885 80.6544L141.893 80.6456L139.585 78.7285ZM142.617 70.0713L145.598 70.41L145.602 70.3753L145.605 70.3405L142.617 70.0713ZM141.299 62.6885L138.829 64.3917L138.836 64.4017L138.843 64.4118L141.299 62.6885ZM128.027 63.3916L127.318 66.3065L129.038 66.7253L130.236 65.4215L128.027 63.3916ZM119.188 61.3252L128.065 28.8056L122.277 27.2256L113.4 59.7451L119.188 61.3252ZM125.171 31.0156H161.646V25.0156H125.171V31.0156ZM158.683 27.5408L156.838 39.0544L162.762 40.0042L164.608 28.4905L158.683 27.5408ZM159.8 36.5293H135.322V42.5293H159.8V36.5293ZM132.453 38.6519L128.542 51.44L134.28 53.1948L138.191 40.4067L132.453 38.6519ZM133.032 54.8419C134.832 53.686 137.199 52.9955 140.294 52.9439L140.194 46.9448C136.258 47.0104 132.736 47.9019 129.79 49.7928L133.032 54.8419ZM140.244 52.9443C145.09 52.9443 148.472 54.5733 150.836 57.6259L155.58 53.9522C151.909 49.2118 146.648 46.9443 140.244 46.9443V52.9443ZM150.845 57.637C153.307 60.7862 154.48 65.0693 153.998 70.8317L159.977 71.3323C160.549 64.4971 159.203 58.5849 155.571 53.9411L150.845 57.637ZM153.997 70.8396C153.527 76.6371 151.308 81.2109 147.374 84.7639L151.396 89.2165C156.544 84.5665 159.393 78.5348 159.977 71.3245L153.997 70.8396ZM147.382 84.7568C143.44 88.2921 138.695 90.0276 132.96 89.9233L132.851 95.9224C140.007 96.0525 146.248 93.8329 151.388 89.2237L147.382 84.7568ZM132.975 89.9237C129.633 89.8459 126.659 89.0742 123.999 87.6439L121.157 92.9283C124.708 94.8379 128.619 95.824 132.836 95.922L132.975 89.9237ZM124.009 87.6496C121.385 86.2251 119.406 84.3276 117.997 81.9466L112.833 85.0026C114.823 88.3638 117.618 91.0073 121.147 92.9227L124.009 87.6496ZM118.004 81.9581C116.595 79.5547 115.885 76.8557 115.91 73.7873L109.91 73.7381C109.877 77.8181 110.836 81.5937 112.827 84.9911L118.004 81.9581ZM112.91 76.7627H127.324V70.7627H112.91V76.7627ZM124.325 73.8396C124.395 76.5745 125.09 79.0908 126.681 81.1115L131.395 77.4002C130.818 76.667 130.37 75.5212 130.323 73.6858L124.325 73.8396ZM126.681 81.1115C128.385 83.2759 130.789 84.3263 133.519 84.4078L133.698 78.4105C132.502 78.3748 131.859 77.9897 131.395 77.4002L126.681 81.1115ZM133.499 84.4072C136.845 84.5296 139.715 83.2262 141.878 80.6631L137.292 76.7939C136.291 77.9809 135.177 78.4646 133.718 78.4112L133.499 84.4072ZM141.893 80.6456C144.005 78.1029 145.127 74.5524 145.598 70.41L139.636 69.7326C139.228 73.3246 138.329 75.5456 137.277 76.8115L141.893 80.6456ZM145.605 70.3405C145.926 66.7808 145.516 63.4753 143.754 60.9652L138.843 64.4118C139.425 65.2415 139.895 66.8579 139.629 69.8021L145.605 70.3405ZM143.768 60.9853C141.917 58.3001 139.05 57.1396 135.806 57.1396V63.1396C137.542 63.1396 138.337 63.6784 138.829 64.3917L143.768 60.9853ZM135.806 57.1396C131.852 57.1396 128.43 58.5193 125.818 61.3617L130.236 65.4215C131.609 63.9279 133.373 63.1396 135.806 63.1396V57.1396ZM128.737 60.4767L117.004 57.6203L115.584 63.45L127.318 66.3065L128.737 60.4767Z" fill="#EF3829"/>
<path d="M178.71 91.3779C177.909 92.3154 176.742 93.043 175.209 93.5605C173.676 94.0684 171.977 94.3076 170.111 94.2783C168.324 94.2588 166.815 93.8096 165.585 92.9307C164.354 92.0518 163.476 90.8262 162.948 89.2539C162.421 87.6816 162.279 85.9092 162.523 83.9365L162.641 83.0576C163.09 79.7471 164.252 77.125 166.127 75.1914C168.012 73.2578 170.316 72.3154 173.041 72.3643C175.424 72.4033 177.255 73.043 178.534 74.2832C179.813 75.5234 180.526 77.3154 180.673 79.6592L175.868 79.6445C175.8 78.502 175.517 77.667 175.019 77.1396C174.53 76.6123 173.832 76.334 172.924 76.3047C171.576 76.2559 170.463 76.7881 169.584 77.9014C168.705 79.0049 168.104 80.5869 167.782 82.6475C167.509 84.4053 167.411 85.7725 167.489 86.749C167.636 89.1025 168.695 90.2939 170.668 90.3232C171.859 90.3428 172.904 90.0547 173.803 89.459L174.462 86.1338H170.99L171.605 82.6035H180.087L178.71 91.3779ZM186.356 94H181.347L185.053 72.6719H190.048L186.356 94ZM207.626 91.3779C206.825 92.3154 205.658 93.043 204.125 93.5605C202.592 94.0684 200.893 94.3076 199.027 94.2783C197.24 94.2588 195.731 93.8096 194.501 92.9307C193.271 92.0518 192.392 90.8262 191.864 89.2539C191.337 87.6816 191.195 85.9092 191.439 83.9365L191.557 83.0576C192.006 79.7471 193.168 77.125 195.043 75.1914C196.928 73.2578 199.232 72.3154 201.957 72.3643C204.34 72.4033 206.171 73.043 207.45 74.2832C208.729 75.5234 209.442 77.3154 209.589 79.6592L204.784 79.6445C204.716 78.502 204.433 77.667 203.935 77.1396C203.446 76.6123 202.748 76.334 201.84 76.3047C200.492 76.2559 199.379 76.7881 198.5 77.9014C197.621 79.0049 197.021 80.5869 196.698 82.6475C196.425 84.4053 196.327 85.7725 196.405 86.749C196.552 89.1025 197.611 90.2939 199.584 90.3232C200.775 90.3428 201.82 90.0547 202.719 89.459L203.378 86.1338H199.906L200.521 82.6035H209.003L207.626 91.3779ZM222.45 90.0156H215.639L213.749 94H208.227L219.521 72.6719H224.237L228.178 94H222.963L222.45 90.0156ZM217.514 86.0459H221.938L221 78.6924L217.514 86.0459ZM241.625 88.2285C241.84 87.125 241.244 86.2705 239.838 85.665L237.436 84.6689C234.066 83.1553 232.465 81.0947 232.631 78.4873C232.699 77.2959 233.109 76.2363 233.861 75.3086C234.613 74.3711 235.653 73.6436 236.981 73.126C238.31 72.6084 239.76 72.3594 241.332 72.3789C243.441 72.418 245.136 73.0332 246.415 74.2246C247.704 75.416 248.339 77.0127 248.319 79.0146H243.339C243.368 78.1943 243.192 77.54 242.812 77.0518C242.44 76.5537 241.825 76.2949 240.966 76.2754C240.126 76.2559 239.384 76.4512 238.739 76.8613C238.095 77.2715 237.714 77.8232 237.597 78.5166C237.411 79.4932 238.134 80.2939 239.765 80.9189C241.405 81.5439 242.597 82.0811 243.339 82.5303C245.673 83.9268 246.767 85.8115 246.62 88.1846C246.542 89.415 246.146 90.4941 245.434 91.4219C244.721 92.3496 243.729 93.0674 242.46 93.5752C241.2 94.083 239.784 94.3271 238.212 94.3076C237.06 94.2881 235.99 94.1074 235.004 93.7656C234.018 93.4238 233.173 92.9258 232.47 92.2715C231.044 90.9531 230.36 89.2197 230.419 87.0713L235.443 87.0859C235.385 88.1797 235.595 89.0098 236.073 89.5762C236.552 90.1328 237.357 90.4111 238.49 90.4111C239.33 90.4111 240.028 90.2207 240.585 89.8398C241.151 89.4492 241.498 88.9121 241.625 88.2285Z" fill="url(#paint0_linear)"/>
<g clip-path="url(#clip1)">
<path d="M69.0542 91.4114L69.1177 90.8465L69.9139 83.5755L68.7184 83.5058C68.6642 83.4835 68.6101 83.4612 68.5591 83.4825L68.5336 83.4931L54.3358 82.6544L55.5277 94.9437L68.6381 95.0395L69.0542 91.4114Z" fill="#262C38"/>
<path d="M63.6538 83.1958C63.9126 85.6451 64.577 91.8285 64.9262 95.0327L58.7607 94.9868L60.9113 83.0384L63.6538 83.1958Z" fill="#00F0E9"/>
<path opacity="0.19" d="M54.3358 82.6549L69.9033 83.5505L69.429 87.9356C64.5396 87.5071 59.6246 87.0892 54.7352 86.6607L54.3358 82.6549Z" fill="#248D8A"/>
<path d="M72.3648 80.9542L70.5165 84.9851L53.2057 84.4277L51.6341 80.1929L72.3648 80.9542Z" fill="#262C38"/>
<path d="M64.4578 80.6763L63.8231 84.7844L60.6198 84.6696L60.3849 80.5204L64.4578 80.6763Z" fill="#4D8493"/>
<path d="M62.7229 80.533C64.5756 80.4931 66.4176 80.0689 68.0748 79.2731C68.785 78.9321 69.5217 78.4753 69.7285 77.7161C69.9501 76.9208 69.5305 76.0939 69.1279 75.3794C69.0174 75.1862 68.9069 74.993 68.789 74.8179C68.4247 74.2669 67.9764 73.7659 67.351 73.5931C66.3603 73.3332 65.0376 74.0344 64.3488 74.7853C63.0146 76.2838 62.8338 78.4678 62.7091 80.4639C62.7378 80.4968 62.7303 80.5149 62.7229 80.533ZM62.9224 80.1507C63.4169 79.2565 64.1711 77.0128 67.3388 75.2133C67.444 75.5732 66.6671 76.4355 66.6056 76.7902C66.454 77.4666 66.0348 78.0751 65.537 78.5668C64.8046 79.3209 63.9076 79.8594 62.9224 80.1507Z" fill="#00F0E9"/>
<path d="M62.9224 80.1502C63.897 79.8335 64.812 79.3023 65.5295 78.5844C66.0273 78.0926 66.4465 77.4841 66.5982 76.8078C66.6851 76.4425 66.6744 76.0581 66.5692 75.6983C67.2591 75.2011 68.0129 74.8569 68.807 74.8248C68.9249 75 69.0354 75.1932 69.1459 75.3864C69.5666 76.1082 69.9862 76.9352 69.7465 77.7231C69.5217 78.4749 68.803 78.9391 68.0928 79.2801C66.4176 80.0684 64.5756 80.4926 62.741 80.5399C62.7229 80.5325 62.8004 80.3955 62.9224 80.1502Z" fill="#4D8493"/>
<path d="M55.532 78.2074C55.7966 78.9494 56.5792 79.3559 57.3013 79.6529C59.0236 80.3404 60.8839 80.6414 62.7334 80.558C62.4812 78.5545 61.7776 76.3655 60.3524 74.9559C59.6344 74.2384 58.6075 73.6048 57.6435 73.947C57.0289 74.1585 56.6213 74.6874 56.2966 75.2714C56.1969 75.4626 56.0897 75.6718 55.9899 75.8629C55.6132 76.5733 55.2461 77.4143 55.532 78.2074ZM58.5626 75.9715C60.4327 77.1208 61.941 79.3032 62.487 80.1822C61.4889 79.9404 60.5618 79.4746 59.7855 78.7964C59.2609 78.3273 58.7988 77.7573 58.5916 77.081C58.5044 76.7285 58.4756 76.3367 58.5626 75.9715Z" fill="#00F0E9"/>
<path d="M62.5126 80.1718C61.5145 79.93 60.5875 79.4642 59.8111 78.786C59.2865 78.3169 58.8244 77.7469 58.6172 77.0706C58.512 76.7107 58.5012 76.3263 58.5701 75.9537C57.8459 75.5079 57.0803 75.2141 56.2755 75.2207C56.1757 75.4118 56.0686 75.621 55.9688 75.8122C55.6027 76.5481 55.2282 77.4071 55.5141 78.2002C55.7787 78.9423 56.5613 79.3487 57.2834 79.6457C59.0057 80.3332 60.866 80.6342 62.7155 80.5508C62.7229 80.5327 62.6518 80.3979 62.5126 80.1718Z" fill="#4D8493"/>
<path d="M62.6645 80.5727C63.019 80.2753 63.8854 80.2729 64.2857 80.4798C64.6967 80.7122 64.9867 81.0848 65.2331 81.4606C65.4721 81.8544 65.7037 82.2663 66.0266 82.6102C66.4822 83.0931 67.1172 83.3966 67.7692 83.4537C67.0855 83.679 66.5888 84.4245 65.8488 84.4789C65.2574 84.5311 64.7253 84.08 64.4077 83.5694C64.1156 83.0482 63.9838 82.4452 63.768 81.8921C63.5778 81.3284 63.2315 80.7849 62.6645 80.5727Z" fill="#00F0E9"/>
<g opacity="0.25">
<path opacity="0.25" d="M62.6645 80.5727C63.019 80.2753 63.8854 80.2729 64.2857 80.4798C64.6967 80.7122 64.9867 81.0848 65.2331 81.4606C65.4721 81.8544 65.7037 82.2663 66.0266 82.6102C66.4822 83.0931 67.1172 83.3966 67.7692 83.4537C67.0855 83.679 66.5888 84.4245 65.8488 84.4789C65.2574 84.5311 64.7253 84.08 64.4077 83.5694C64.1156 83.0482 63.9838 82.4452 63.768 81.8921C63.5778 81.3284 63.2315 80.7849 62.6645 80.5727Z" fill="#00F0E9"/>
</g>
<path d="M67.6391 81.5643C67.9151 81.509 67.8396 81.0769 67.5636 81.1322C67.2875 81.1875 67.3631 81.6196 67.6391 81.5643Z" fill="#3CBCB5"/>
<path d="M69.8023 83.1286C70.1219 83.0701 70.0251 82.587 69.7056 82.6455C69.4041 82.7114 69.5008 83.1945 69.8023 83.1286Z" fill="#3CBCB5"/>
<path d="M70.6047 81.8964C70.6153 81.9219 70.6259 81.9474 70.6546 81.9803C70.7045 82.0642 70.78 82.1374 70.8299 82.2213C70.8766 82.2616 70.9233 82.3019 70.9849 82.3061C71.0465 82.3104 71.1155 82.2965 71.1558 82.2498C71.1813 82.2392 71.1962 82.2031 71.2036 82.185C71.2185 82.1489 71.2259 82.1309 71.2407 82.0948C71.2556 82.0587 71.245 82.0332 71.2343 82.0077C71.2237 81.9822 71.2131 81.9568 71.1844 81.9239C71.1345 81.84 71.0591 81.7668 71.0017 81.7009C70.955 81.6606 70.9008 81.6383 70.8467 81.6161C70.7851 81.6118 70.7341 81.6331 70.6758 81.6724C70.6503 81.683 70.6354 81.7191 70.628 81.7372C70.6132 81.7733 70.6057 81.7913 70.5909 81.8274C70.5909 81.8274 70.5941 81.8709 70.6047 81.8964Z" fill="#3CBCB5"/>
<path d="M55.8712 82.8215C56.1473 82.7662 56.0717 82.3341 55.7957 82.3894C55.5016 82.4373 55.5952 82.8768 55.8712 82.8215Z" fill="#3CBCB5"/>
<path d="M57.783 81.9203C58.1025 81.8618 58.0058 81.3787 57.6862 81.4372C57.3741 81.4776 57.4634 81.9787 57.783 81.9203Z" fill="#3CBCB5"/>
<path d="M58.8553 81.622C58.8659 81.6475 58.8766 81.673 58.9052 81.7059C58.9552 81.7897 59.0306 81.863 59.0805 81.9468C59.1272 81.9872 59.174 82.0275 59.2355 82.0317C59.2971 82.036 59.3661 82.0221 59.4065 81.9754C59.4319 81.9648 59.4468 81.9287 59.4542 81.9106C59.4691 81.8745 59.4765 81.8565 59.4913 81.8204C59.5062 81.7843 59.4956 81.7588 59.485 81.7333C59.4743 81.7078 59.4637 81.6823 59.435 81.6494C59.3851 81.5656 59.3097 81.4923 59.2523 81.4265C59.2056 81.3862 59.1515 81.3639 59.0973 81.3416C59.0357 81.3374 58.9848 81.3587 58.9264 81.398C58.9009 81.4086 58.886 81.4447 58.8786 81.4627C58.8638 81.4988 58.8563 81.5169 58.8415 81.553C58.8415 81.553 58.8521 81.5785 58.8553 81.622Z" fill="#3CBCB5"/>
<path d="M53.7919 81.5651C53.4724 81.6236 53.5691 82.1067 53.8887 82.0482C54.1902 81.9823 54.0934 81.4992 53.7919 81.5651Z" fill="#3CBCB5"/>
<path d="M55.4319 83.9918C55.4787 84.0321 55.5254 84.0724 55.587 84.0767C55.6486 84.0809 55.7176 84.0671 55.7579 84.0203C55.7834 84.0097 55.7982 83.9736 55.8057 83.9555C55.8205 83.9194 55.8279 83.9014 55.8428 83.8653C55.8576 83.8292 55.847 83.8037 55.8364 83.7782C55.8258 83.7527 55.8151 83.7273 55.7865 83.6944C55.7365 83.6105 55.6611 83.5373 55.6038 83.4715C55.557 83.4311 55.5029 83.4088 55.4487 83.3866C55.3872 83.3823 55.3362 83.4036 55.2778 83.4429C55.2523 83.4535 55.2375 83.4896 55.2301 83.5077C55.2152 83.5438 55.2078 83.5618 55.1929 83.5979C55.1781 83.634 55.1887 83.6595 55.1993 83.685C55.2099 83.7105 55.2206 83.7359 55.2492 83.7689C55.314 83.8166 55.382 83.9079 55.4319 83.9918Z" fill="#3CBCB5"/>
<path d="M62.7951 80.5625C62.417 80.3015 61.5613 80.3293 61.16 80.5864C60.7662 80.8254 60.4977 81.2215 60.2833 81.6399C60.0509 82.0509 59.8546 82.4767 59.5649 82.8219C59.1467 83.3252 58.5342 83.6854 57.8664 83.7694C58.5715 83.954 59.1047 84.6588 59.8404 84.666C60.4276 84.6754 60.9435 84.1911 61.2024 83.6644C61.4687 83.1196 61.5471 82.5187 61.7338 81.9622C61.9279 81.3878 62.2526 80.8037 62.7951 80.5625Z" fill="#00F0E9"/>
<g opacity="0.25">
<path opacity="0.25" d="M62.7951 80.5625C62.417 80.3015 61.5613 80.3293 61.16 80.5864C60.7662 80.8254 60.4977 81.2215 60.2833 81.6399C60.0509 82.0509 59.8546 82.4767 59.5649 82.8219C59.1467 83.3252 58.5342 83.6854 57.8664 83.7694C58.5715 83.954 59.1047 84.6588 59.8404 84.666C60.4276 84.6754 60.9435 84.1911 61.2024 83.6644C61.4687 83.1196 61.5471 82.5187 61.7338 81.9622C61.9279 81.3878 62.2526 80.8037 62.7951 80.5625Z" fill="#00F0E9"/>
</g>
<path d="M62.0975 80.3603C62.158 80.1108 62.3202 79.4599 62.5888 79.4227C62.9265 79.3716 63.2017 80.1391 63.2209 80.4003C63.2689 81.0533 61.9056 81.0834 62.0975 80.3603Z" fill="#ABCDD6"/>
</g>
<g clip-path="url(#clip2)">
<path d="M49.8756 95.1111C50.1842 95.4245 50.4771 95.7534 50.7699 96.0823C50.9551 96.2703 51.1248 96.4427 51.3099 96.6308C51.3716 96.6934 51.4644 96.7564 51.4012 96.8803C51.3224 97.0196 51.1985 96.9564 51.1209 96.9403C50.5004 96.7488 49.8955 96.5419 49.2907 96.335C49.2441 96.3191 49.1976 96.3032 49.1357 96.2716C48.9939 96.5037 48.8521 96.7359 48.7103 96.968C48.5686 97.2002 48.3957 97.4321 48.2539 97.6642C48.1753 97.7724 48.0663 97.7871 47.9892 97.7088C47.9275 97.6461 47.9126 97.5682 47.8822 97.4747C47.807 97.1475 47.7164 96.8047 47.6726 96.4467C47.6432 96.2288 47.5508 96.1037 47.3491 96.0554C47.0077 95.9594 46.682 95.848 46.3718 95.7523C46.2633 95.7048 46.1702 95.673 46.0774 95.61C45.8918 95.4842 45.9398 95.3135 46.1585 95.1908C46.2523 95.1293 46.3612 95.1146 46.4704 95.0688C46.8603 94.932 47.2501 94.7951 47.6399 94.6582C47.9051 94.5514 47.9208 94.536 47.923 94.2561C47.9418 93.8364 47.9764 93.4012 47.9798 92.9658C47.98 92.9347 47.9648 92.888 47.9808 92.8414C48.028 92.7641 48.0601 92.6399 48.138 92.625C48.2004 92.5944 48.3245 92.6264 48.3706 92.7045C48.4938 92.861 48.5858 93.0172 48.6933 93.1891C48.878 93.4394 49.0626 93.6897 49.2473 93.9399C49.3396 94.065 49.4483 94.0814 49.62 94.005C49.9476 93.8677 50.275 93.7614 50.6181 93.6397C50.7273 93.5939 50.8206 93.5946 50.8975 93.7041C50.9589 93.7978 50.896 93.8906 50.8176 93.9678C50.4883 94.3229 50.1898 94.7093 49.8756 95.1111Z" fill="#00F0E9"/>
</g>
<g clip-path="url(#clip3)">
<path d="M176.957 56.338C176.987 56.423 177.018 56.5081 176.987 56.5931C176.866 57.1175 176.699 57.5569 176.456 58.0388C176.077 58.7758 175.925 58.9742 175.409 59.6404C175.333 59.7537 175.226 59.853 175.12 59.9522C175.09 59.9947 175.029 60.0089 174.983 59.9947C174.908 59.9805 174.877 59.8955 174.862 59.8388C174.71 59.3427 174.528 58.8467 174.315 58.3789C173.936 57.5569 173.086 56.6215 172.539 55.8845C170.717 53.4183 170.414 53.1207 168 51.1506C168.38 51.0797 168.668 50.8246 168.972 50.612C169.26 50.4136 169.594 50.2719 169.867 50.0734C169.913 50.0451 169.958 50.0026 170.004 50.0026C170.277 49.9601 170.884 50.4561 171.127 50.5978C171.552 50.853 171.962 51.1081 172.372 51.3915C173.162 51.9301 173.162 51.916 173.86 52.5538C174.619 53.2341 174.513 53.1065 175.166 53.886C175.515 54.3112 175.849 54.7648 176.168 55.2041C176.335 55.4451 176.502 55.686 176.669 55.9128C176.729 56.0262 176.881 56.1821 176.957 56.338Z" fill="#00F0E9"/>
<path d="M168.836 55.7142C168.612 54.4629 168.238 53.249 167.827 52.0537C167.566 51.288 167.286 50.5223 166.95 49.7752C166.856 49.5884 166.781 49.4017 166.688 49.2336C166.632 49.1029 166.595 48.9908 166.445 48.9535C166.296 48.9348 165.96 49.1215 165.81 49.1776C165.381 49.327 164.708 49.4204 164.372 49.7192C164.055 49.9806 164.26 50.6717 164.298 51.0265C164.41 52.1844 164.578 53.3424 164.615 54.5003C164.652 55.6022 164.634 56.7227 164.615 57.8246C164.596 58.2168 164.634 58.609 164.596 59.0012C164.503 60.1031 164.671 59.4868 164.372 60.514C164.055 61.5412 164.129 61.2611 163.887 61.9334C163.719 62.4377 164.951 62.2509 165.175 62.2135C166.539 62.0268 167.939 61.8213 169.228 61.3918C169.303 61.3731 169.359 61.3544 169.415 61.2797C169.433 61.2424 169.452 61.2237 169.452 61.1864C169.209 58.1421 169.377 58.609 168.836 55.7142Z" fill="#00F0E9"/>
<path d="M163.55 28.6162C163.532 28.3547 163.457 28.1119 163.289 28.0746C163.214 28.0559 163.121 28.0559 163.046 28.0746C162.803 28.0932 162.561 28.1119 162.336 28.1493C162.206 28.1679 162.075 28.1866 161.963 28.2426C161.701 28.3547 161.72 28.5601 161.739 28.7469C161.814 29.2885 161.888 29.8488 161.963 30.3904C162.038 30.876 162.15 32.9117 163.289 32.5568C163.644 32.4448 163.588 32.0713 163.606 31.8471C163.625 31.4363 163.644 31.0254 163.644 30.6145C163.644 30.1476 163.606 29.6807 163.569 29.2138C163.55 29.1204 163.569 28.859 163.55 28.6162Z" fill="#163C5A"/>
<path d="M164.839 30.2033C164.764 30.7449 164.708 31.2865 164.634 31.8281C164.578 32.2577 164.428 32.8366 163.887 32.5565C163.812 32.5191 163.756 32.4818 163.7 32.4071C163.662 32.3511 163.662 32.2764 163.644 32.2017C163.569 31.5293 163.532 30.8383 163.513 30.1659C163.494 29.587 163.457 29.008 163.438 28.4291C163.438 28.3544 163.438 28.261 163.476 28.1863C163.55 28.0555 163.718 28.0182 163.868 28.0182C164.204 28.0182 164.764 27.9248 164.951 28.2983C165.045 28.5038 165.026 28.7466 164.988 28.9893C164.932 29.3815 164.876 29.7924 164.839 30.2033Z" fill="#20F2EC"/>
<path d="M166.016 28.056C165.661 28.0186 165.194 28.056 165.007 28.2427C164.82 28.4108 164.895 28.7283 164.858 28.9711C164.802 29.326 164.764 29.6995 164.708 30.0543C164.615 30.7827 164.54 31.5111 164.484 32.2208C164.484 32.3142 164.465 32.4262 164.521 32.5009C164.634 32.7064 164.876 32.725 165.082 32.6503C165.642 32.4822 165.922 31.2496 166.09 30.764C166.24 30.3345 166.37 29.8863 166.464 29.438C166.52 29.0458 166.875 28.3175 166.314 28.112C166.24 28.0933 166.128 28.056 166.016 28.056Z" fill="#163C5A"/>
<path d="M168.201 28.971C168.201 28.9523 168.182 28.9337 168.182 28.915C168.163 28.8776 168.126 28.859 168.089 28.8403C167.846 28.6909 167.584 28.5601 167.323 28.4294C167.248 28.3734 167.155 28.336 167.062 28.336C166.893 28.3174 166.744 28.4294 166.651 28.5601C166.483 28.7843 166.371 29.1204 166.277 29.3819C166.109 29.8675 165.978 30.3717 165.848 30.876C165.736 31.3616 165.53 31.8285 165.437 32.3141C165.418 32.3888 165.399 32.4635 165.455 32.5382C165.474 32.5755 165.53 32.6129 165.567 32.6315C165.754 32.7249 165.941 32.7996 166.146 32.837C166.202 32.8557 166.258 32.8557 166.296 32.837C166.333 32.8183 166.371 32.7996 166.389 32.7623C166.613 32.5195 166.763 32.2207 166.912 31.9405C167.211 31.3429 167.51 30.7453 167.809 30.1289C167.977 29.7741 168.145 29.4192 168.201 29.0457C168.201 29.027 168.201 28.9897 168.201 28.971Z" fill="#20F2EC"/>
<path d="M169.172 30.0168C169.284 29.774 169.359 29.5499 169.265 29.4378C169.209 29.3818 169.153 29.3444 169.078 29.3257C168.892 29.2324 168.705 29.139 168.518 29.0643C168.406 29.0269 168.313 28.9896 168.201 28.9896C167.958 28.9709 167.865 29.1577 167.79 29.3444C167.566 29.8487 167.342 30.3529 167.117 30.8572C166.912 31.3054 165.978 33.117 166.987 33.3224C167.304 33.3972 167.454 33.0423 167.584 32.8555C167.808 32.5194 168.033 32.1645 168.238 31.8097C168.481 31.3988 168.686 30.9879 168.892 30.5771C168.91 30.4463 169.06 30.2409 169.172 30.0168Z" fill="#163C5A"/>
<path d="M169.452 32.0334C169.116 32.4629 168.78 32.8925 168.425 33.322C168.163 33.6582 167.715 34.0878 167.416 33.5648C167.379 33.4901 167.342 33.4154 167.342 33.3407C167.342 33.266 167.379 33.1913 167.398 33.1353C167.678 32.519 168.014 31.9213 168.35 31.3237C168.63 30.8194 168.91 30.3152 169.191 29.8109C169.228 29.7362 169.265 29.6615 169.34 29.6241C169.471 29.5494 169.639 29.6055 169.77 29.6802C170.068 29.8483 170.591 30.0537 170.554 30.4646C170.535 30.6887 170.386 30.8941 170.236 31.0809C169.975 31.3984 169.713 31.7159 169.452 32.0334Z" fill="#20F2EC"/>
<path d="M171.581 30.8014C171.301 30.5773 170.89 30.3905 170.61 30.4466C170.367 30.5026 170.255 30.8014 170.106 31.0068C169.882 31.287 169.639 31.5671 169.415 31.866C168.966 32.4449 168.518 33.0239 168.089 33.6028C168.033 33.6775 167.977 33.7709 167.958 33.8643C167.939 34.1071 168.145 34.2378 168.35 34.2939C168.91 34.4246 169.788 33.5281 170.18 33.192C170.535 32.8931 170.871 32.5756 171.189 32.2395C171.469 31.9407 172.141 31.4924 171.768 31.0442C171.749 30.9508 171.675 30.8761 171.581 30.8014Z" fill="#163C5A"/>
<path d="M172.982 32.725C172.982 32.7063 173.001 32.6876 173.001 32.669C173.001 32.6316 172.982 32.5943 172.963 32.5569C172.833 32.2954 172.683 32.0527 172.534 31.8099C172.478 31.7352 172.422 31.6605 172.347 31.6044C172.216 31.511 172.029 31.5297 171.88 31.5858C171.619 31.6978 171.357 31.9219 171.133 32.09C170.741 32.4262 170.367 32.781 169.994 33.1546C169.639 33.5094 169.228 33.8082 168.892 34.1817C168.836 34.2378 168.78 34.2938 168.78 34.3872C168.78 34.4432 168.798 34.4806 168.836 34.5366C168.948 34.7047 169.079 34.8728 169.228 35.0222C169.265 35.0595 169.303 35.0969 169.359 35.1156C169.396 35.1156 169.433 35.1156 169.471 35.0969C169.788 35.0035 170.068 34.8354 170.349 34.6486C170.909 34.2938 171.469 33.9203 172.048 33.5654C172.366 33.36 172.702 33.1359 172.945 32.8371C172.945 32.781 172.963 32.7437 172.982 32.725Z" fill="#20F2EC"/>
<path d="M173.355 33.7141C173.561 33.546 173.729 33.378 173.692 33.2285C173.673 33.1538 173.636 33.0978 173.58 33.0418C173.449 32.8737 173.318 32.7056 173.187 32.5562C173.113 32.4815 173.038 32.3881 172.945 32.3321C172.739 32.22 172.571 32.3321 172.422 32.4628C171.992 32.8177 171.562 33.1725 171.133 33.5274C170.759 33.8449 169.116 35.0401 169.919 35.6751C170.18 35.8806 170.461 35.6378 170.647 35.5257C171.002 35.3203 171.357 35.0962 171.693 34.8721C172.085 34.6106 172.459 34.3491 172.832 34.0503C172.926 34.0129 173.15 33.8635 173.355 33.7141Z" fill="#163C5A"/>
<path d="M172.702 35.6568C172.198 35.8809 171.712 36.1237 171.208 36.3478C170.816 36.5345 170.237 36.7213 170.199 36.105C170.199 36.0303 170.199 35.9369 170.237 35.8809C170.274 35.8248 170.33 35.7688 170.386 35.7315C170.928 35.3019 171.469 34.9097 172.048 34.5362C172.534 34.2187 173.001 33.8825 173.468 33.5463C173.542 33.509 173.598 33.453 173.692 33.453C173.841 33.4343 173.972 33.565 174.047 33.6958C174.233 33.9759 174.607 34.4054 174.383 34.7603C174.252 34.9471 174.047 35.0591 173.822 35.1712C173.449 35.3206 173.075 35.4887 172.702 35.6568Z" fill="#20F2EC"/>
<path d="M175.148 35.5069C174.999 35.1894 174.719 34.8159 174.439 34.7598C174.196 34.7038 173.972 34.9279 173.748 35.0213C173.411 35.1707 173.094 35.3201 172.758 35.4882C172.104 35.8057 171.45 36.1232 170.797 36.4594C170.703 36.4967 170.629 36.5528 170.573 36.6275C170.461 36.8329 170.573 37.0383 170.741 37.1877C171.17 37.5613 172.384 37.1504 172.87 37.0197C173.318 36.9076 173.766 36.7769 174.196 36.6088C174.569 36.4594 175.391 36.366 175.26 35.787C175.242 35.7123 175.204 35.6189 175.148 35.5069Z" fill="#163C5A"/>
<path d="M175.559 37.8417C175.578 37.8231 175.578 37.8044 175.597 37.8044C175.615 37.767 175.615 37.7297 175.615 37.6923C175.615 37.4122 175.597 37.1134 175.559 36.8332C175.541 36.7399 175.541 36.6465 175.484 36.5718C175.41 36.4224 175.223 36.3477 175.074 36.3477C174.793 36.329 174.457 36.4037 174.177 36.4597C173.673 36.5718 173.187 36.7399 172.683 36.9079C172.216 37.076 171.712 37.1507 171.245 37.3375C171.17 37.3562 171.096 37.3935 171.058 37.4682C171.04 37.5056 171.04 37.5616 171.04 37.6176C171.058 37.8231 171.096 38.0285 171.17 38.2153C171.189 38.2713 171.208 38.3087 171.245 38.346C171.282 38.3647 171.32 38.3834 171.357 38.3834C171.675 38.4394 172.011 38.4207 172.328 38.3834C173.001 38.3087 173.654 38.2339 174.327 38.1592C174.719 38.1219 175.111 38.0659 175.466 37.9165C175.503 37.8791 175.522 37.8604 175.559 37.8417Z" fill="#20F2EC"/>
<path d="M175.186 39.2241C175.447 39.1868 175.69 39.1307 175.727 38.9813C175.746 38.9066 175.746 38.8319 175.727 38.7572C175.709 38.5518 175.671 38.3463 175.634 38.1409C175.615 38.0288 175.597 37.9168 175.541 37.8234C175.428 37.618 175.204 37.6366 175.018 37.6553C174.476 37.73 173.916 37.8234 173.374 37.8981C172.889 37.9728 170.853 38.1409 171.226 39.1121C171.338 39.4109 171.712 39.3548 171.936 39.3548C172.347 39.3548 172.758 39.3548 173.169 39.3362C173.636 39.3175 174.102 39.2801 174.569 39.2241C174.681 39.2428 174.943 39.2428 175.186 39.2241Z" fill="#163C5A"/>
<path d="M173.636 40.55C173.094 40.494 172.552 40.438 171.992 40.382C171.562 40.3446 170.965 40.1952 171.245 39.6536C171.282 39.5789 171.32 39.5228 171.394 39.4668C171.45 39.4295 171.525 39.4108 171.6 39.4108C172.272 39.3174 172.963 39.2614 173.636 39.2427C174.214 39.2054 174.793 39.168 175.372 39.1306C175.447 39.1306 175.54 39.112 175.615 39.1493C175.746 39.224 175.783 39.3921 175.783 39.5415C175.802 39.8777 175.895 40.438 175.54 40.6247C175.335 40.7368 175.092 40.6994 174.849 40.6808C174.457 40.6434 174.046 40.6061 173.636 40.55Z" fill="#20F2EC"/>
<path d="M175.821 41.6901C175.858 41.3352 175.802 40.8683 175.615 40.6816C175.428 40.4948 175.13 40.5882 174.887 40.5508C174.532 40.5135 174.158 40.4761 173.804 40.4388C173.075 40.3641 172.347 40.308 171.619 40.252C171.525 40.252 171.413 40.2333 171.338 40.2894C171.133 40.4014 171.133 40.6442 171.189 40.8497C171.376 41.3913 172.608 41.6527 173.113 41.8208C173.561 41.9515 173.99 42.0636 174.457 42.157C174.849 42.2317 175.597 42.5679 175.783 42.0076C175.783 41.9142 175.802 41.8021 175.821 41.6901Z" fill="#163C5A"/>
<path d="M174.943 43.893C174.962 43.893 174.98 43.8744 174.999 43.8744C175.036 43.8557 175.055 43.8183 175.074 43.781C175.223 43.5382 175.354 43.2767 175.466 43.0153C175.503 42.9219 175.541 42.8472 175.541 42.7538C175.541 42.5857 175.428 42.4363 175.298 42.3429C175.055 42.1935 174.737 42.0628 174.476 41.9881C173.99 41.82 173.486 41.7079 172.963 41.5959C172.478 41.4838 172.011 41.2971 171.506 41.2037C171.432 41.185 171.338 41.185 171.282 41.2224C171.245 41.2597 171.208 41.2971 171.189 41.3531C171.096 41.5398 171.04 41.7266 170.984 41.932C170.965 41.9881 170.965 42.0441 170.984 42.0815C171.002 42.1188 171.021 42.1562 171.058 42.1748C171.301 42.3989 171.6 42.5297 171.899 42.6791C172.515 42.9592 173.113 43.2394 173.729 43.5195C174.084 43.6876 174.439 43.8557 174.831 43.893C174.887 43.893 174.924 43.893 174.943 43.893Z" fill="#20F2EC"/>
<path d="M174.177 44.7144C174.42 44.7891 174.681 44.8265 174.756 44.6958C174.793 44.6397 174.831 44.565 174.849 44.4903C174.906 44.2849 174.962 44.0981 175.018 43.8927C175.036 43.7806 175.055 43.6686 175.055 43.5565C175.018 43.3137 174.831 43.2577 174.644 43.2017C174.102 43.0709 173.561 42.9215 173.038 42.7908C172.571 42.6787 170.629 42.0437 170.591 43.0709C170.573 43.3884 170.946 43.4818 171.152 43.5752C171.525 43.7433 171.917 43.8927 172.291 44.0421C172.72 44.2102 173.169 44.3596 173.617 44.4903C173.692 44.5464 173.934 44.6397 174.177 44.7144Z" fill="#163C5A"/>
<path d="M172.216 45.3314C171.731 45.0699 171.264 44.8085 170.778 44.547C170.405 44.3416 169.919 43.9867 170.386 43.5758C170.442 43.5198 170.517 43.4825 170.591 43.4638C170.666 43.4451 170.741 43.4638 170.815 43.4825C171.469 43.6692 172.123 43.8747 172.758 44.1175C173.299 44.3229 173.86 44.491 174.401 44.6777C174.476 44.6964 174.551 44.7338 174.607 44.7898C174.7 44.9019 174.663 45.0886 174.625 45.2194C174.513 45.5368 174.383 46.0971 173.972 46.1158C173.748 46.1345 173.523 46.0224 173.318 45.9104C172.944 45.7236 172.59 45.5368 172.216 45.3314Z" fill="#20F2EC"/>
<path d="M173.804 47.2177C173.972 46.9002 174.102 46.452 173.99 46.2092C173.897 45.9664 173.579 45.9291 173.355 45.7983C173.038 45.6116 172.72 45.4435 172.403 45.2754C171.768 44.9206 171.114 44.5844 170.461 44.2669C170.367 44.2295 170.274 44.1735 170.18 44.1922C169.938 44.2109 169.844 44.4537 169.826 44.6591C169.788 45.2381 170.815 45.9477 171.208 46.2839C171.562 46.5827 171.917 46.8629 172.31 47.1057C172.646 47.3298 173.206 47.9274 173.598 47.4792C173.673 47.4232 173.748 47.3298 173.804 47.2177Z" fill="#163C5A"/>
<path d="M172.141 48.9166C172.16 48.9166 172.179 48.9166 172.197 48.9166C172.235 48.9166 172.272 48.8792 172.291 48.8605C172.515 48.6924 172.739 48.5057 172.945 48.3002C173.019 48.2442 173.075 48.1695 173.113 48.0948C173.187 47.9454 173.15 47.7586 173.057 47.6279C172.907 47.3851 172.646 47.161 172.44 46.9742C172.048 46.6381 171.637 46.3392 171.208 46.0404C170.797 45.7603 170.442 45.4054 170.012 45.1253C169.956 45.0879 169.882 45.0319 169.807 45.0506C169.751 45.0693 169.714 45.0879 169.676 45.1253C169.527 45.256 169.377 45.4241 169.265 45.5922C169.228 45.6295 169.209 45.6856 169.209 45.7416C169.209 45.779 169.228 45.8163 169.247 45.8537C169.377 46.1525 169.601 46.3953 169.826 46.6381C170.274 47.1423 170.722 47.6279 171.17 48.1322C171.432 48.4123 171.693 48.7111 172.029 48.8979C172.085 48.8979 172.104 48.9166 172.141 48.9166Z" fill="#20F2EC"/>
<path d="M170.815 49.4403C170.984 49.6271 171.189 49.7951 171.32 49.7391C171.394 49.7204 171.45 49.6644 171.488 49.6084C171.637 49.4776 171.787 49.3282 171.936 49.1788C172.011 49.1041 172.085 49.0107 172.123 48.9174C172.216 48.6933 172.085 48.5438 171.955 48.3944C171.562 48.0022 171.17 47.61 170.778 47.2178C170.442 46.8817 169.097 45.3315 168.537 46.1906C168.35 46.4708 168.63 46.7323 168.761 46.919C169.004 47.2552 169.247 47.5914 169.489 47.9089C169.788 48.2824 170.087 48.6372 170.405 48.9734C170.498 49.0481 170.647 49.2535 170.815 49.4403Z" fill="#163C5A"/>
<path d="M168.817 48.9725C168.537 48.5056 168.275 48.02 167.995 47.5531C167.771 47.1796 167.547 46.6193 168.145 46.5259C168.219 46.5073 168.313 46.5073 168.369 46.5446C168.444 46.5633 168.481 46.6193 168.537 46.6753C169.004 47.1609 169.452 47.6839 169.882 48.2255C170.236 48.6737 170.629 49.1033 171.002 49.5515C171.058 49.6075 171.114 49.6822 171.114 49.7569C171.133 49.9063 171.021 50.0371 170.909 50.1304C170.647 50.3359 170.255 50.7468 169.882 50.56C169.676 50.4479 169.545 50.2425 169.433 50.0371C169.228 49.6822 169.023 49.3274 168.817 48.9725Z" fill="#20F2EC"/>
<path d="M169.191 51.3815C169.489 51.1947 169.844 50.8772 169.882 50.6157C169.919 50.3729 169.676 50.1488 169.545 49.9434C169.359 49.6259 169.191 49.3084 169.004 48.9909C168.63 48.3559 168.257 47.7396 167.865 47.1233C167.809 47.0486 167.752 46.9552 167.678 46.9179C167.472 46.8245 167.267 46.9552 167.136 47.1233C166.8 47.5902 167.323 48.7481 167.491 49.2337C167.64 49.6633 167.809 50.0928 168.014 50.5224C168.182 50.8959 168.35 51.699 168.91 51.5122C168.985 51.4935 169.097 51.4562 169.191 51.3815Z" fill="#163C5A"/>
<path d="M166.893 51.9984C166.912 52.017 166.931 52.017 166.949 52.0357C166.987 52.0544 167.024 52.0544 167.062 52.0357C167.342 51.9984 167.64 51.961 167.921 51.905C168.014 51.8863 168.107 51.8676 168.182 51.8116C168.313 51.7182 168.388 51.5315 168.369 51.3821C168.35 51.1019 168.257 50.7657 168.163 50.5043C167.995 50.0187 167.809 49.5331 167.584 49.0662C167.379 48.5993 167.248 48.1137 167.043 47.6655C167.006 47.5908 166.968 47.5161 166.893 47.4974C166.837 47.4787 166.8 47.4787 166.744 47.4974C166.539 47.5348 166.352 47.5908 166.146 47.6842C166.09 47.7028 166.053 47.7215 166.016 47.7775C165.997 47.8149 165.978 47.8523 165.978 47.8896C165.941 48.2071 166.016 48.5433 166.072 48.8608C166.202 49.5144 166.333 50.1681 166.464 50.8404C166.539 51.214 166.613 51.6062 166.8 51.9423C166.856 51.9423 166.875 51.9797 166.893 51.9984Z" fill="#20F2EC"/>
<path d="M165.829 51.9799C165.904 52.2227 165.997 52.4655 166.146 52.4655C166.221 52.4655 166.296 52.4468 166.352 52.4282C166.557 52.3721 166.744 52.3161 166.949 52.2414C167.062 52.204 167.155 52.1667 167.248 52.092C167.435 51.9426 167.379 51.7371 167.323 51.5504C167.155 51.0274 166.968 50.5045 166.8 49.9629C166.651 49.496 166.146 47.535 165.25 48.0393C164.97 48.2073 165.082 48.5622 165.119 48.7863C165.175 49.1972 165.25 49.6081 165.343 50.0003C165.437 50.4672 165.549 50.9154 165.68 51.3636C165.717 51.4757 165.754 51.7371 165.829 51.9799Z" fill="#163C5A"/>
<path d="M164.26 50.6537C164.223 50.1121 164.185 49.5518 164.148 49.0102C164.129 48.5807 164.167 47.983 164.746 48.1511C164.82 48.1698 164.895 48.2071 164.951 48.2632C165.007 48.3192 165.026 48.3939 165.044 48.4686C165.25 49.1223 165.418 49.7759 165.567 50.4483C165.698 51.0086 165.829 51.5689 165.978 52.1291C165.997 52.2039 166.016 52.2972 165.997 52.3719C165.96 52.5213 165.792 52.5774 165.642 52.6147C165.306 52.6894 164.783 52.8762 164.54 52.54C164.409 52.3533 164.391 52.1105 164.372 51.8677C164.316 51.4755 164.279 51.0646 164.26 50.6537Z" fill="#20F2EC"/>
<path d="M163.513 52.9878C163.868 52.9504 164.316 52.8384 164.466 52.6143C164.615 52.4088 164.484 52.11 164.466 51.8672C164.447 51.5124 164.428 51.1388 164.409 50.784C164.353 50.0556 164.297 49.3272 164.223 48.5989C164.204 48.5055 164.204 48.3934 164.148 48.3187C163.999 48.132 163.756 48.1693 163.569 48.2627C163.065 48.5428 163.009 49.7942 162.934 50.3171C162.878 50.7653 162.841 51.2322 162.822 51.6991C162.822 52.11 162.617 52.8944 163.196 52.9878C163.289 53.0065 163.401 53.0065 163.513 52.9878Z" fill="#163C5A"/>
<path d="M161.179 52.5215C161.179 52.5402 161.197 52.5588 161.216 52.5775C161.235 52.6149 161.272 52.6149 161.309 52.6335C161.589 52.7269 161.851 52.8203 162.131 52.895C162.224 52.9137 162.318 52.951 162.411 52.9324C162.579 52.9137 162.71 52.7829 162.766 52.6335C162.878 52.3721 162.934 52.0359 162.99 51.7558C163.065 51.2515 163.102 50.7286 163.121 50.2056C163.14 49.7014 163.252 49.2158 163.252 48.7115C163.252 48.6368 163.252 48.5434 163.196 48.4874C163.158 48.4501 163.102 48.4314 163.065 48.4127C162.859 48.3567 162.654 48.3193 162.448 48.3193C162.392 48.3193 162.336 48.3193 162.299 48.338C162.262 48.3567 162.243 48.394 162.224 48.4314C162.056 48.7115 161.963 49.029 161.87 49.3465C161.701 50.0002 161.515 50.6352 161.347 51.2888C161.253 51.6624 161.141 52.0359 161.16 52.4281C161.179 52.4468 161.179 52.4841 161.179 52.5215Z" fill="#20F2EC"/>
<path d="M160.039 51.6812C159.965 51.924 159.946 52.1854 160.058 52.2601C160.114 52.2975 160.189 52.3162 160.263 52.3348C160.469 52.3909 160.674 52.4469 160.88 52.4842C160.992 52.5029 161.104 52.5216 161.216 52.5029C161.459 52.4656 161.515 52.2601 161.552 52.0734C161.683 51.5318 161.795 50.9901 161.926 50.4485C162.038 49.9816 162.617 48.0206 161.589 48.002C161.272 48.002 161.179 48.3755 161.104 48.5809C160.954 48.9544 160.805 49.3466 160.656 49.7388C160.506 50.1871 160.357 50.6353 160.245 51.0835C160.189 51.1956 160.095 51.4384 160.039 51.6812Z" fill="#163C5A"/>
<path d="M159.367 49.7383C159.61 49.2528 159.871 48.7672 160.114 48.2816C160.319 47.9081 160.656 47.4038 161.066 47.852C161.122 47.9081 161.16 47.9828 161.178 48.0575C161.197 48.1322 161.178 48.2069 161.16 48.2816C160.992 48.9353 160.805 49.5889 160.581 50.2426C160.394 50.7842 160.226 51.3445 160.058 51.8861C160.039 51.9608 160.002 52.0355 159.946 52.0915C159.834 52.1849 159.666 52.1662 159.516 52.1102C159.199 51.9982 158.639 51.8861 158.601 51.4752C158.583 51.2511 158.695 51.027 158.788 50.8216C158.993 50.4667 159.18 50.0932 159.367 49.7383Z" fill="#20F2EC"/>
<path d="M157.518 51.3445C157.836 51.5125 158.284 51.6246 158.527 51.5125C158.769 51.4192 158.807 51.083 158.919 50.8776C159.087 50.5601 159.255 50.2426 159.423 49.9064C159.759 49.2527 160.077 48.5991 160.394 47.9454C160.431 47.852 160.469 47.7586 160.469 47.6653C160.431 47.4225 160.207 47.3291 160.002 47.3291C159.423 47.2917 158.732 48.3563 158.414 48.7671C158.134 49.122 157.854 49.4955 157.611 49.8877C157.387 50.2239 156.808 50.8029 157.257 51.1764C157.313 51.2324 157.406 51.3071 157.518 51.3445Z" fill="#163C5A"/>
<path d="M155.781 49.7392C155.781 49.7578 155.781 49.7765 155.781 49.7952C155.781 49.8325 155.818 49.8699 155.837 49.8886C156.024 50.1127 156.211 50.3368 156.416 50.5422C156.472 50.6169 156.547 50.673 156.64 50.7103C156.79 50.785 156.976 50.729 157.107 50.6356C157.331 50.4675 157.574 50.2061 157.742 50.0006C158.078 49.6084 158.358 49.1789 158.657 48.7493C158.937 48.3385 159.274 47.9649 159.554 47.5354C159.591 47.4793 159.628 47.4046 159.61 47.3299C159.591 47.2739 159.572 47.2366 159.535 47.1992C159.404 47.0498 159.236 46.9191 159.068 46.807C159.031 46.7697 158.975 46.751 158.919 46.751C158.881 46.751 158.844 46.7697 158.807 46.7883C158.508 46.9377 158.265 47.1619 158.041 47.386C157.555 47.8529 157.07 48.3198 156.584 48.768C156.304 49.0295 156.024 49.3096 155.837 49.6458C155.8 49.6831 155.781 49.7018 155.781 49.7392Z" fill="#20F2EC"/>
<path d="M155.277 48.7863C155.109 48.9918 154.978 49.1972 155.053 49.328C155.09 49.384 155.146 49.44 155.202 49.4774C155.37 49.6081 155.52 49.7388 155.706 49.8509C155.8 49.9069 155.893 49.9816 156.005 50.0003C156.229 50.0563 156.379 49.9069 156.491 49.7575C156.827 49.3093 157.163 48.8611 157.481 48.4315C157.779 48.0393 159.105 46.4892 158.172 46.0596C157.873 45.9289 157.649 46.2277 157.499 46.3771C157.201 46.6573 156.902 46.9561 156.622 47.2549C156.304 47.5911 155.987 47.9459 155.706 48.3194C155.613 48.4128 155.426 48.5809 155.277 48.7863Z" fill="#163C5A"/>
<path d="M155.445 46.7318C155.874 46.3956 156.304 46.0408 156.734 45.7046C157.07 45.4431 157.593 45.1257 157.779 45.7046C157.798 45.7793 157.817 45.854 157.798 45.9287C157.779 46.0034 157.742 46.0595 157.686 46.1155C157.275 46.6571 156.827 47.1614 156.36 47.6656C155.968 48.0952 155.594 48.5247 155.202 48.9543C155.146 49.0103 155.09 49.085 155.015 49.1037C154.866 49.1597 154.716 49.0477 154.604 48.9543C154.362 48.7302 153.895 48.394 154.025 48.0018C154.1 47.7777 154.287 47.6283 154.474 47.4789C154.81 47.2547 155.127 46.9933 155.445 46.7318Z" fill="#20F2EC"/>
<path d="M153.11 47.4604C153.335 47.7405 153.689 48.0206 153.97 48.0206C154.231 48.0206 154.399 47.7405 154.586 47.5911C154.866 47.367 155.165 47.1429 155.445 46.9187C156.005 46.4705 156.566 46.0036 157.126 45.518C157.201 45.462 157.275 45.3873 157.294 45.2939C157.369 45.0698 157.182 44.883 156.995 44.7897C156.472 44.5282 155.408 45.2192 154.959 45.4433C154.548 45.6488 154.156 45.8916 153.764 46.1343C153.428 46.3585 152.662 46.6386 152.924 47.1802C152.961 47.2923 153.017 47.367 153.11 47.4604Z" fill="#163C5A"/>
<path d="M152.158 45.2939C152.139 45.3126 152.139 45.3313 152.139 45.3499C152.139 45.3873 152.139 45.4246 152.158 45.462C152.233 45.7421 152.326 46.0223 152.419 46.2837C152.457 46.3771 152.494 46.4518 152.55 46.5265C152.662 46.6573 152.849 46.6759 153.017 46.6573C153.297 46.6012 153.615 46.4518 153.857 46.3398C154.324 46.1157 154.773 45.8355 155.202 45.5554C155.632 45.2939 156.08 45.0885 156.509 44.8083C156.565 44.771 156.64 44.7149 156.659 44.6402C156.678 44.5842 156.659 44.5469 156.64 44.4908C156.565 44.3041 156.491 44.1173 156.379 43.9305C156.36 43.8932 156.323 43.8372 156.267 43.8185C156.229 43.7998 156.192 43.7998 156.155 43.7998C155.837 43.8185 155.52 43.9305 155.202 44.0426C154.567 44.2667 153.932 44.4908 153.316 44.7149C152.942 44.8457 152.587 44.9764 152.27 45.2192C152.214 45.2379 152.177 45.2565 152.158 45.2939Z" fill="#20F2EC"/>
<path d="M152.195 43.8552C151.953 43.9485 151.728 44.0606 151.728 44.21C151.728 44.2847 151.747 44.3594 151.766 44.4154C151.84 44.6209 151.915 44.8076 151.99 44.9944C152.027 45.0878 152.083 45.1998 152.158 45.2745C152.326 45.4426 152.531 45.3866 152.7 45.3119C153.222 45.1065 153.727 44.901 154.25 44.6956C154.698 44.5088 156.64 43.8738 156.061 43.0147C155.875 42.7533 155.538 42.884 155.314 42.94C154.903 43.0334 154.511 43.1268 154.119 43.2388C153.671 43.3696 153.222 43.519 152.774 43.6684C152.681 43.7057 152.438 43.7804 152.195 43.8552Z" fill="#163C5A"/>
<path d="M153.409 42.1936C153.951 42.1189 154.492 42.0442 155.034 41.9695C155.464 41.9134 156.061 41.9134 155.931 42.5111C155.912 42.5858 155.893 42.6605 155.837 42.7165C155.781 42.7726 155.706 42.7912 155.65 42.8286C155.015 43.0714 154.362 43.2768 153.708 43.4822C153.148 43.6503 152.606 43.8184 152.046 44.0052C151.971 44.0239 151.878 44.0612 151.803 44.0425C151.654 44.0052 151.579 43.8371 151.542 43.7064C151.448 43.3889 151.224 42.8659 151.542 42.6045C151.71 42.4551 151.971 42.4177 152.195 42.3804C152.587 42.3056 152.998 42.2496 153.409 42.1936Z" fill="#20F2EC"/>
<path d="M151.019 41.6138C151.075 41.9687 151.224 42.3982 151.467 42.5476C151.691 42.6783 151.971 42.5289 152.214 42.5103C152.569 42.4729 152.942 42.4169 153.297 42.3795C154.026 42.2861 154.735 42.1741 155.464 42.0434C155.557 42.0247 155.65 42.006 155.725 41.95C155.893 41.8006 155.837 41.5578 155.725 41.371C155.426 40.8854 154.156 40.9228 153.633 40.8854C153.166 40.8481 152.718 40.8481 152.251 40.8668C151.84 40.8854 151.037 40.736 151 41.315C151 41.3897 151 41.5018 151.019 41.6138Z" fill="#163C5A"/>
<path d="M151.336 39.2612C151.317 39.2612 151.299 39.2798 151.28 39.2985C151.261 39.3359 151.243 39.3732 151.224 39.4106C151.149 39.6907 151.075 39.9708 151.019 40.251C151.019 40.3257 151 40.4191 151.019 40.5125C151.056 40.6805 151.187 40.7926 151.355 40.8486C151.616 40.942 151.971 40.9794 152.251 40.998C152.774 41.0354 153.278 41.0354 153.801 41.0167C154.306 40.998 154.791 41.0727 155.296 41.0541C155.37 41.0541 155.464 41.0354 155.501 40.9794C155.538 40.942 155.557 40.886 155.557 40.8486C155.594 40.6432 155.613 40.4378 155.613 40.2323C155.613 40.1763 155.613 40.1203 155.576 40.0829C155.557 40.0456 155.52 40.0269 155.482 40.0082C155.202 39.8588 154.866 39.7841 154.548 39.7281C153.895 39.5973 153.241 39.4666 152.569 39.3359C152.195 39.2612 151.803 39.1865 151.411 39.2238C151.411 39.2425 151.374 39.2425 151.336 39.2612Z" fill="#20F2EC"/>
<path d="M151.784 38.2895C151.523 38.2521 151.28 38.2708 151.205 38.4015C151.168 38.4575 151.168 38.5322 151.149 38.607C151.112 38.8124 151.112 39.0178 151.093 39.2233C151.093 39.3353 151.093 39.4474 151.112 39.5594C151.187 39.7836 151.392 39.8209 151.579 39.8396C152.139 39.8769 152.681 39.933 153.241 39.9703C153.727 40.0077 155.744 40.3065 155.613 39.2793C155.576 38.9618 155.202 38.9244 154.978 38.8684C154.586 38.775 154.175 38.6817 153.764 38.607C153.297 38.5136 152.849 38.4575 152.382 38.4015C152.27 38.3642 152.027 38.3081 151.784 38.2895Z" fill="#163C5A"/>
<path d="M153.596 37.338C154.119 37.5248 154.623 37.6929 155.146 37.8796C155.557 38.0104 156.099 38.2905 155.706 38.7574C155.65 38.8134 155.594 38.8695 155.52 38.9068C155.445 38.9255 155.37 38.9255 155.296 38.9255C154.623 38.8695 153.951 38.7574 153.279 38.6454C152.718 38.552 152.139 38.4586 151.56 38.3652C151.486 38.3465 151.392 38.3279 151.336 38.2905C151.224 38.1971 151.224 38.0104 151.261 37.861C151.318 37.5248 151.355 36.9645 151.747 36.8711C151.971 36.8151 152.214 36.8898 152.419 36.9645C152.812 37.0766 153.204 37.2073 153.596 37.338Z" fill="#20F2EC"/>
<path d="M151.728 35.7501C151.616 36.0863 151.56 36.5532 151.71 36.7773C151.84 37.0014 152.177 36.9827 152.401 37.0761C152.737 37.2068 153.092 37.3189 153.428 37.4309C154.119 37.6737 154.81 37.8792 155.501 38.1033C155.594 38.122 155.688 38.1593 155.781 38.1406C156.005 38.0846 156.061 37.8418 156.043 37.6177C155.987 37.0387 154.847 36.5158 154.399 36.2543C154.007 36.0116 153.596 35.8061 153.166 35.6194C152.793 35.4513 152.139 34.9657 151.84 35.4699C151.803 35.5447 151.766 35.638 151.728 35.7501Z" fill="#163C5A"/>
<path d="M152.961 33.7705C152.942 33.7705 152.924 33.7705 152.905 33.7892C152.868 33.8079 152.83 33.8452 152.812 33.8639C152.606 34.1067 152.419 34.3495 152.233 34.6109C152.177 34.6856 152.121 34.779 152.102 34.8724C152.065 35.0405 152.158 35.2273 152.289 35.358C152.513 35.5634 152.849 35.7502 153.11 35.8996C153.615 36.1611 154.138 36.3852 154.661 36.5906C155.165 36.796 155.632 37.0762 156.155 37.263C156.229 37.3003 156.323 37.319 156.397 37.2816C156.453 37.263 156.491 37.2069 156.509 37.1696C156.64 36.9828 156.752 36.796 156.846 36.5906C156.864 36.5346 156.883 36.4786 156.883 36.4225C156.883 36.3852 156.846 36.3478 156.827 36.3105C156.603 36.0303 156.304 35.8249 156.024 35.6194C155.426 35.2086 154.829 34.7977 154.231 34.3868C153.876 34.144 153.521 33.9012 153.129 33.7892C153.036 33.7705 152.998 33.7705 152.961 33.7705Z" fill="#20F2EC"/>
<path d="M154.754 32.6311C154.53 32.463 154.287 32.3323 154.138 32.4257C154.063 32.4817 154.007 32.5377 153.951 32.6124C153.783 32.7992 153.633 33.0046 153.503 33.2101C153.428 33.3221 153.353 33.4342 153.316 33.5649C153.241 33.8451 153.409 33.9758 153.577 34.1065C154.082 34.4427 154.567 34.7975 155.071 35.1337C155.501 35.4325 157.238 36.8146 157.78 35.694C157.948 35.3392 157.611 35.115 157.443 34.947C157.126 34.6295 156.808 34.3306 156.472 34.0318C156.099 33.6956 155.688 33.3782 155.296 33.0607C155.184 32.986 154.978 32.7992 154.754 32.6311Z" fill="#163C5A"/>
<path d="M156.995 32.7056C157.369 33.1539 157.761 33.6208 158.134 34.069C158.433 34.4239 158.788 34.9841 158.134 35.2269C158.06 35.2643 157.966 35.283 157.873 35.2643C157.798 35.2456 157.723 35.2083 157.667 35.1522C157.07 34.7227 156.491 34.2371 155.93 33.7515C155.464 33.3406 154.959 32.9484 154.492 32.5376C154.418 32.4815 154.362 32.4255 154.324 32.3321C154.268 32.1827 154.38 31.996 154.492 31.8839C154.754 31.6038 155.109 31.0621 155.538 31.1929C155.781 31.2676 155.949 31.473 156.117 31.6598C156.435 32.0333 156.715 32.3695 156.995 32.7056Z" fill="#20F2EC"/>
<path d="M156.267 30.3896C155.986 30.6698 155.706 31.0806 155.706 31.3794C155.706 31.6596 156.005 31.7903 156.155 31.9771C156.397 32.2572 156.64 32.5374 156.883 32.7988C157.368 33.3404 157.873 33.8821 158.377 34.405C158.452 34.4797 158.508 34.5544 158.62 34.5731C158.863 34.6104 159.031 34.405 159.124 34.1996C159.367 33.6206 158.638 32.5747 158.396 32.1078C158.172 31.6969 157.91 31.3047 157.649 30.9312C157.406 30.5951 157.088 29.8293 156.565 30.1655C156.453 30.2215 156.36 30.2962 156.267 30.3896Z" fill="#163C5A"/>
<path d="M158.788 29.1573C158.769 29.1387 158.751 29.1387 158.732 29.1387C158.695 29.1387 158.657 29.1387 158.62 29.1573C158.321 29.2507 158.041 29.3628 157.761 29.4935C157.667 29.5309 157.574 29.5682 157.499 29.6429C157.369 29.7737 157.331 29.9604 157.35 30.1285C157.406 30.4087 157.537 30.7261 157.667 30.9876C157.892 31.4545 158.172 31.9027 158.433 32.3323C158.695 32.7619 158.9 33.2288 159.18 33.6396C159.218 33.6957 159.274 33.7704 159.348 33.789C159.404 33.789 159.46 33.7704 159.498 33.7517C159.703 33.6583 159.89 33.5649 160.077 33.4342C160.114 33.3968 160.17 33.3595 160.189 33.3221C160.207 33.2848 160.207 33.2288 160.207 33.1914C160.207 32.8552 160.095 32.5377 159.983 32.2202C159.759 31.5666 159.554 30.9316 159.33 30.2779C159.199 29.9044 159.068 29.5309 158.844 29.2321C158.825 29.1947 158.807 29.176 158.788 29.1573Z" fill="#20F2EC"/>
<path d="M159.647 28.4288C159.311 28.5596 158.919 28.821 158.825 29.0825C158.732 29.3253 158.956 29.5681 159.031 29.7922C159.161 30.1284 159.274 30.4832 159.404 30.8194C159.666 31.4917 159.927 32.1641 160.207 32.8364C160.245 32.9298 160.282 33.0232 160.357 33.0792C160.544 33.2099 160.786 33.0979 160.936 32.9485C161.347 32.5376 161.029 31.305 160.954 30.8007C160.88 30.3525 160.786 29.9043 160.674 29.456C160.562 29.0638 160.544 28.2421 159.946 28.3355C159.871 28.3541 159.759 28.3728 159.647 28.4288Z" fill="#163C5A"/>
<path d="M162 28.1862C161.982 28.1676 161.982 28.1489 161.963 28.1489C161.926 28.1302 161.888 28.1302 161.851 28.1302C161.571 28.1115 161.272 28.1115 160.992 28.1302C160.898 28.1302 160.805 28.1302 160.712 28.1862C160.562 28.261 160.469 28.429 160.45 28.5784C160.413 28.8586 160.469 29.1948 160.506 29.4749C160.581 29.9792 160.712 30.4834 160.842 30.9877C160.973 31.4733 161.01 31.9588 161.16 32.4444C161.179 32.5191 161.216 32.5938 161.272 32.6312C161.309 32.6499 161.365 32.6499 161.421 32.6499C161.627 32.6499 161.832 32.6125 162.019 32.5565C162.075 32.5378 162.131 32.5191 162.15 32.4818C162.168 32.4444 162.187 32.4071 162.206 32.3697C162.299 32.0522 162.28 31.7347 162.262 31.3986C162.243 30.7262 162.206 30.0725 162.187 29.4002C162.168 29.008 162.15 28.6158 162.019 28.261C162.038 28.2423 162.019 28.2049 162 28.1862Z" fill="#20F2EC"/>
<path d="M151.149 42.0997C151.205 41.6888 151.28 41.2779 151.374 40.8857C151.168 40.9418 151.019 41.0538 151 41.2966C151 41.39 151 41.5021 151.019 41.6141C151.037 41.7635 151.093 41.9316 151.149 42.0997Z" fill="#D6D6D6"/>
<path d="M171.189 36.7589C170.703 35.6383 169.994 34.6111 169.06 33.7707C168.91 33.6399 168.761 33.5092 168.593 33.3971C166.725 31.9777 164.241 31.3988 161.926 31.8283C156.808 32.7995 154.231 38.3463 155.669 43.0901C156.211 44.883 157.294 46.4891 158.863 47.535C162.841 50.2244 168.406 48.749 170.778 44.6402C172.16 42.2683 172.254 39.2615 171.189 36.7589Z" fill="#DFEDF4"/>
<path d="M166.949 41.0731C168.481 41.652 170.124 41.8761 171.787 41.8388C172.067 40.1392 171.861 38.3463 171.189 36.7589C170.703 35.6383 169.994 34.6111 169.06 33.7707C168.91 33.6399 168.761 33.5092 168.593 33.3971C166.725 31.9777 164.241 31.3988 161.926 31.8283C161.272 31.9591 160.674 32.1458 160.114 32.4073C160.488 36.1612 163.55 39.8031 166.949 41.0731Z" fill="#E8F2F7"/>
<path d="M170.349 44.3226C167.547 44.9949 164.596 44.5467 162.168 42.9779C159.909 41.5024 158.284 39.1679 158.06 36.4412C157.985 35.5821 157.985 34.667 158.078 33.7705C155.632 36.0303 154.661 39.7656 155.669 43.0899C156.211 44.8828 157.294 46.489 158.863 47.5349C162.841 50.2242 168.406 48.7488 170.778 44.64C170.871 44.472 170.965 44.3039 171.04 44.1358C170.815 44.2105 170.591 44.2665 170.349 44.3226Z" fill="#D4E3EB"/>
<path d="M161.87 46.5641C157.331 45.0887 155.987 40.2142 156.472 35.8066C155.258 37.9544 154.922 40.6251 155.669 43.0904C156.211 44.8833 157.294 46.4894 158.863 47.5353C162.598 50.0566 167.734 48.9173 170.311 45.3502C167.678 46.8069 164.671 47.4979 161.87 46.5641Z" fill="#CCDDE6"/>
<path d="M167.902 42.9041C167.547 42.4559 167.286 41.9329 166.987 41.4287C166.501 40.6069 166.072 39.7665 165.623 38.9261C165.082 37.8802 164.559 36.8157 164.092 35.7324C163.943 35.3776 163.831 35.0041 163.662 34.6492C163.457 34.1823 163.308 33.7154 163.027 33.2672C163.009 33.2298 162.971 33.1738 162.915 33.1551C162.841 33.1178 162.766 33.1551 162.71 33.1925C162.449 33.3045 162.206 33.4166 161.944 33.5286C161.758 33.622 161.496 33.6407 161.403 33.8461C161.272 34.1263 161.272 34.5372 161.216 34.8547C161.216 35.0414 161.141 35.2655 161.104 35.4523C161.066 35.6764 161.01 35.9005 160.973 36.1246C160.898 36.5168 160.805 36.8717 160.693 37.2639C160.394 38.3097 159.965 39.2996 159.479 40.2707C159.348 40.5322 159.199 40.775 159.031 41.0178C158.62 41.6154 159.33 41.5034 159.684 41.3726C160.133 41.2046 160.562 41.0365 160.992 40.8497C161.16 40.775 161.347 40.7377 161.44 40.5882C161.533 40.4388 161.533 40.2334 161.608 40.0653C161.72 39.7665 161.795 39.4303 161.907 39.1315C162.15 38.3845 162.411 37.6561 162.617 36.909C162.598 37.0024 162.747 37.2826 162.785 37.3759C162.841 37.544 162.897 37.7308 162.971 37.8989C163.102 38.2537 163.214 38.6272 163.326 38.9821C163.7 40.1774 164.036 41.3726 164.279 42.6053C164.466 43.5391 164.69 44.5663 164.615 45.5188C164.615 45.6308 164.615 45.7615 164.727 45.7802C164.764 45.7802 164.783 45.7802 164.82 45.7615C165.717 45.3693 166.595 44.9211 167.454 44.4169C167.697 44.2674 167.939 44.1367 168.182 43.9873C168.275 43.9313 168.462 43.8379 168.518 43.7258C168.612 43.5764 168.257 43.3523 168.163 43.2589C168.089 43.1282 167.995 43.0161 167.902 42.9041Z" fill="#262C38"/>
</g>
<g clip-path="url(#clip4)">
<path d="M157.714 16.1353C158.156 16.5843 158.575 17.0554 158.995 17.5264C159.26 17.7958 159.503 18.0427 159.768 18.3121C159.857 18.4019 159.99 18.4921 159.899 18.6696C159.786 18.8691 159.609 18.7787 159.497 18.7555C158.609 18.4812 157.742 18.1849 156.876 17.8885C156.809 17.8657 156.743 17.8429 156.654 17.7976C156.451 18.1302 156.248 18.4627 156.045 18.7952C155.841 19.1278 155.594 19.4599 155.391 19.7925C155.278 19.9475 155.122 19.9686 155.012 19.8563C154.923 19.7665 154.902 19.655 154.858 19.521C154.751 19.0524 154.621 18.5613 154.558 18.0485C154.516 17.7363 154.384 17.5571 154.095 17.488C153.606 17.3505 153.139 17.1909 152.695 17.0538C152.539 16.9857 152.406 16.9401 152.273 16.85C152.007 16.6697 152.076 16.4252 152.389 16.2495C152.523 16.1614 152.68 16.1404 152.836 16.0748C153.394 15.8787 153.953 15.6826 154.511 15.4865C154.891 15.3336 154.914 15.3115 154.917 14.9105C154.944 14.3093 154.993 13.686 154.998 13.0624C154.998 13.0178 154.977 12.9508 154.999 12.8842C155.067 12.7733 155.113 12.5955 155.225 12.5741C155.314 12.5302 155.492 12.5762 155.558 12.6881C155.734 12.9122 155.866 13.136 156.02 13.3822C156.285 13.7407 156.549 14.0992 156.814 14.4576C156.946 14.6369 157.102 14.6604 157.347 14.5509C157.817 14.3541 158.286 14.2019 158.777 14.0276C158.934 13.962 159.067 13.963 159.177 14.1198C159.265 14.2541 159.175 14.3871 159.063 14.4976C158.591 15.0062 158.164 15.5597 157.714 16.1353Z" fill="#00F0E9"/>
</g>
<g clip-path="url(#clip5)">
<path d="M172.563 25C171.592 24.9577 171 24.4507 171 23.6056C171 22.7183 171.718 22 172.563 22C173.451 22 174.127 22.6338 174.127 23.4789C174.085 24.3662 173.451 25 172.563 25Z" fill="#FF2968"/>
</g>
<g clip-path="url(#clip6)">
<path d="M131.689 90.3536C131.689 90.3536 128.228 80.6191 116.438 87.3791C111.463 90.1913 108.002 90.7321 105.622 90.3536C104.324 90.1373 103.513 91.6515 104.324 92.679C108.435 97.8167 117.033 103.982 131.689 95.8157V90.3536Z" fill="#262C38"/>
<path d="M131.311 90.3546C131.311 90.3546 134.772 80.62 146.561 87.3801C151.537 90.1923 154.998 90.7331 157.378 90.3546C158.676 90.1382 159.487 91.6525 158.676 92.68C154.565 97.8177 145.967 103.983 131.311 95.8167V90.3546V90.3546Z" fill="#262C38"/>
</g>
<path d="M200.449 52.1938C200.392 52.0921 200.335 51.9905 200.248 51.9007C199.949 51.539 199.65 51.1773 199.381 50.8038C199.059 50.3806 198.705 49.9694 198.383 49.5462C198.349 49.506 198.326 49.4445 198.344 49.4019C198.429 49.21 198.545 49.0062 198.661 48.8024C199.12 49.0312 199.58 49.26 200.049 49.4674C200.518 49.6749 200.928 49.9582 201.435 50.0804C201.444 50.0591 201.454 50.0378 201.463 50.0165C201.345 49.9386 201.245 49.818 201.117 49.7614C200.518 49.4453 199.93 49.1599 199.331 48.8438C199.139 48.7589 198.956 48.6527 198.752 48.5371C198.847 48.3238 198.941 48.1106 199.035 47.8974C200.105 47.7842 201.172 47.6189 202.23 47.475C202.24 47.4536 202.228 47.4229 202.237 47.4016C202.121 47.3757 202.005 47.3499 201.901 47.3548C201.537 47.3721 201.163 47.4106 200.789 47.4492C200.28 47.5045 199.78 47.5386 199.272 47.5939C199.241 47.6058 199.219 47.5964 199.167 47.5989C199.247 47.3028 199.339 47.0375 199.419 46.7414C199.464 46.5828 199.499 46.4454 199.492 46.2892C199.496 46.1637 199.546 46.1091 199.659 46.0829C199.813 46.0234 199.976 45.9427 200.151 45.8926C201.334 45.5236 202.556 45.2988 203.808 45.2918C204.35 45.2767 204.897 45.3656 205.409 45.592C206.295 46.0094 206.651 46.7024 206.435 47.652C206.287 48.2749 205.968 48.8223 205.553 49.3013C205.444 49.4317 205.345 49.5407 205.215 49.6617C204.815 50.0459 204.587 50.5056 204.476 51.0432C204.343 51.7489 204.124 52.4168 203.789 53.059C203.567 53.4452 203.302 53.8126 202.95 54.0903C202.437 54.5007 201.895 54.5159 201.301 54.3039C200.154 53.8988 199.192 53.1927 198.477 52.214C198.131 51.7293 197.855 51.1995 197.54 50.703C197.483 50.6013 197.48 50.5492 197.57 50.4614C197.778 50.222 197.964 49.9731 198.172 49.7336C198.317 49.9251 198.471 50.0952 198.616 50.2867C199.048 50.8091 199.458 51.3221 199.899 51.8232C199.999 51.9437 200.129 52.0524 200.26 52.161C200.293 52.2012 200.345 52.1988 200.388 52.2176C200.409 52.227 200.418 52.2057 200.449 52.1938Z" fill="#262C38"/>
<path d="M194.393 46.4059C193.436 46.0336 192.576 45.5001 191.63 45.1586C191.621 45.1799 191.612 45.2012 191.602 45.2225C191.657 45.2721 191.711 45.3218 191.797 45.3595C192.214 45.5694 192.609 45.7699 193.026 45.9799C193.443 46.1898 193.882 46.4092 194.32 46.6285C194.256 46.8299 194.181 47.0005 194.127 47.1805C193.698 47.1694 193.27 47.1583 192.872 47.1354C192.474 47.1124 192.055 47.08 191.636 47.0477C191.627 47.069 191.617 47.0903 191.62 47.1424C191.705 47.1801 191.781 47.2391 191.854 47.2461C192.16 47.3047 192.475 47.3421 192.768 47.3699C193.187 47.4023 193.606 47.4347 194.026 47.4671C193.99 47.6045 193.964 47.7205 193.939 47.8365C193.908 48.0781 193.89 48.3503 193.881 48.6013C193.874 48.6747 193.876 48.7268 193.784 48.7624C192.668 49.2119 191.534 49.5264 190.327 49.6043C189.828 49.6384 189.335 49.599 188.913 49.2849C188.567 49.0299 188.332 48.6965 188.23 48.2943C188.029 47.5939 188.08 46.9026 188.321 46.244C188.382 45.9906 188.483 45.704 188.627 45.4362C188.978 44.6994 189.192 43.9272 189.437 43.1432C189.755 42.1365 190.17 41.1984 190.895 40.4229C191.084 40.2261 191.306 40.0695 191.529 39.9128C192.096 39.552 192.593 39.4659 193.361 40.035C193.816 40.3893 194.151 40.8432 194.415 41.3422C194.951 42.3189 195.457 43.3075 195.985 44.3056C195.997 44.3363 196.03 44.3765 196.008 44.3671C195.602 44.8247 195.205 45.261 194.818 45.676C194.543 45.3758 194.256 45.0449 193.947 44.7046C193.772 44.525 193.596 44.3454 193.442 44.1752C193.387 44.1256 193.354 44.0854 193.29 44.0571C193.226 44.0289 193.132 44.0125 193.058 44.0055C193.082 44.067 193.087 44.1711 193.12 44.2113C193.585 44.7739 194.071 45.3459 194.527 45.9298C194.56 45.97 194.553 46.0434 194.544 46.0647C194.527 46.1594 194.45 46.2779 194.393 46.4059Z" fill="#262C38"/>
<path d="M198.524 48.1311C198.244 48.8229 197.899 49.4863 197.384 50.0744C197.285 50.1834 197.183 50.2404 197.027 50.2478C196.061 50.3561 195.263 50.0285 194.566 49.4142C194.251 49.1473 194.12 48.809 194.183 48.3781C194.33 47.2959 194.733 46.327 195.477 45.5089C195.666 45.3121 195.834 45.1058 196.023 44.909C196.302 44.6244 196.64 44.4936 197.05 44.5473C197.9 44.6429 198.556 45.0607 199.088 45.7036C199.188 45.8242 199.235 45.9472 199.2 46.0846C199.085 46.518 198.969 46.9514 198.833 47.3754C198.762 47.6501 198.628 47.8966 198.524 48.1311Z" fill="#262C38"/>
<g clip-path="url(#clip7)">
<path d="M232.106 25.8527C232.148 25.8793 231.93 26.0394 231.472 26.1094C231.057 26.206 230.375 26.255 229.629 26.0272C228.883 25.7994 228.03 25.2682 227.485 24.3369C226.94 23.4057 226.805 22.1969 227.048 21.046C227.17 20.4705 227.361 19.879 227.722 19.3937C227.882 19.1378 228.153 18.8923 228.397 18.6895C228.642 18.4867 228.972 18.337 229.276 18.23C229.925 18.0425 230.665 18.0892 231.236 18.5038C231.849 18.9448 232.096 19.6901 232.033 20.3614C232.001 20.697 231.858 21.0221 231.603 21.3368C231.374 21.6088 231.044 21.7585 230.698 21.8389C230.033 21.9572 229.484 21.793 229.057 21.5274C228.647 21.331 228.289 21.0493 228.044 20.778C227.799 20.5068 227.569 20.3047 227.409 20.0866C226.742 19.2568 226.25 18.2403 226.068 17.2978C225.885 16.3553 225.969 15.4604 226.213 14.7835C226.456 14.1067 226.818 13.6214 227.116 13.3333C227.43 13.1144 227.637 13.0661 227.68 13.0927C227.824 13.2416 227.271 13.8444 227.044 15.0645C226.965 15.6665 226.945 16.3643 227.165 17.1522C227.342 17.9136 227.785 18.7225 228.351 19.4299C228.468 19.6215 228.698 19.8235 228.9 20.0682C229.13 20.2702 229.359 20.4723 229.658 20.6582C230.255 21.0301 230.894 20.9544 230.973 20.3524C231.047 20.0434 230.881 19.6442 230.625 19.4848C230.353 19.2562 229.906 19.2143 229.49 19.3109C229.075 19.4075 228.692 19.6424 228.426 20.069C228.145 20.4263 227.964 20.906 227.827 21.4122C227.578 22.382 227.638 23.4259 227.996 24.1816C228.397 24.964 229.069 25.5008 229.746 25.7447C230.396 26.0313 230.982 26.041 231.414 26.0136C231.855 25.8744 232.063 25.8262 232.106 25.8527Z" fill="#FF0B53"/>
</g>
<g clip-path="url(#clip8)">
<path d="M216.105 57.6199C216.105 57.079 216.132 56.5381 216.159 55.9971C216.159 55.6726 216.159 55.3751 216.159 55.0505C216.159 54.9423 216.132 54.8071 216.295 54.753C216.484 54.6989 216.538 54.8612 216.592 54.9423C216.971 55.6455 217.322 56.3488 217.674 57.052C217.701 57.1061 217.728 57.1601 217.755 57.2413C218.08 57.1601 218.404 57.079 218.729 56.9979C219.053 56.9167 219.405 56.8626 219.729 56.7815C219.892 56.7544 220 56.8356 220 56.9708C220 57.079 219.946 57.1601 219.892 57.2683C219.675 57.6199 219.459 57.9986 219.189 58.3502C219.026 58.5666 218.999 58.7559 219.134 58.9723C219.351 59.3509 219.54 59.7296 219.729 60.0812C219.784 60.2164 219.838 60.3246 219.865 60.4598C219.919 60.7303 219.729 60.8385 219.432 60.7573C219.297 60.7303 219.189 60.6492 219.053 60.5951C218.594 60.3787 218.134 60.1623 217.674 59.9459C217.349 59.8107 217.322 59.8107 217.079 60.0541C216.7 60.4057 216.295 60.7573 215.916 61.136C215.889 61.163 215.862 61.2171 215.808 61.2442C215.7 61.2712 215.564 61.3524 215.483 61.2983C215.402 61.2712 215.321 61.136 215.348 61.0278C215.375 60.7844 215.429 60.568 215.483 60.3246C215.537 59.9459 215.591 59.5673 215.645 59.1886C215.672 58.9993 215.591 58.8911 215.375 58.81C214.969 58.6477 214.591 58.4584 214.185 58.2691C214.05 58.215 213.969 58.1338 213.996 57.9715C214.023 57.8363 214.158 57.8093 214.293 57.8093C214.888 57.7822 215.483 57.7011 216.105 57.6199Z" fill="#00F0E9"/>
</g>
<g clip-path="url(#clip9)">
<path d="M218.042 14C217.394 13.9718 217 13.6338 217 13.0704C217 12.4789 217.479 12 218.042 12C218.634 12 219.084 12.4225 219.084 12.9859C219.056 13.5775 218.634 14 218.042 14Z" fill="#262C38"/>
</g>
<g clip-path="url(#clip10)">
<path d="M242.409 29C241.437 28.9577 240.846 28.4507 240.846 27.6056C240.846 26.7183 241.564 26 242.409 26C243.296 26 243.972 26.6338 243.972 27.4789C243.93 28.3662 243.296 29 242.409 29Z" fill="#262C38"/>
</g>
<g clip-path="url(#clip11)">
<path d="M262.563 80C261.591 79.9577 261 79.4507 261 78.6056C261 77.7183 261.718 77 262.563 77C263.451 77 264.127 77.6338 264.127 78.4789C264.084 79.3662 263.451 80 262.563 80Z" fill="#262C38"/>
</g>
<path d="M262.711 92.2163C262.75 92.2238 262.634 92.4032 262.317 92.5836C262.038 92.7717 261.55 92.9997 260.936 93.0421C260.323 93.0844 259.545 92.9334 258.882 92.4012C258.218 91.8689 257.779 91.0169 257.634 90.101C257.561 89.6431 257.535 89.1538 257.664 88.6947C257.71 88.4614 257.84 88.2043 257.963 87.9861C258.086 87.7678 258.287 87.5647 258.48 87.4005C258.906 87.0796 259.464 86.9055 260.001 87.05C260.577 87.2021 260.968 87.6816 261.111 88.1935C261.182 88.4494 261.168 88.7292 261.069 89.0327C260.977 89.2974 260.776 89.5005 260.544 89.6572C260.087 89.9317 259.637 89.9653 259.248 89.8898C258.891 89.8608 258.548 89.754 258.291 89.6234C258.034 89.4928 257.808 89.4086 257.629 89.2931C256.904 88.8699 256.256 88.2599 255.856 87.6174C255.456 86.9749 255.266 86.2923 255.255 85.7253C255.244 85.1582 255.373 84.6991 255.511 84.4031C255.681 84.1536 255.82 84.0596 255.859 84.0671C256.007 84.1362 255.77 84.7357 255.946 85.698C256.057 86.1635 256.239 86.683 256.623 87.2013C256.967 87.7121 257.522 88.1828 258.137 88.5444C258.278 88.6524 258.504 88.7366 258.722 88.8596C258.948 88.9438 259.173 89.028 259.446 89.0808C259.99 89.1865 260.439 88.9508 260.328 88.4854C260.295 88.2369 260.061 87.9897 259.828 87.9444C259.563 87.8527 259.222 87.9478 258.943 88.1359C258.664 88.3239 258.448 88.6048 258.373 88.9937C258.266 89.3361 258.268 89.74 258.31 90.1515C258.4 90.9357 258.738 91.6873 259.214 92.1429C259.73 92.6061 260.376 92.8122 260.943 92.8012C261.502 92.8291 261.936 92.6713 262.246 92.5297C262.532 92.3027 262.672 92.2087 262.711 92.2163Z" fill="#262C38"/>
<circle cx="231.5" cy="67.5" r="1.5" fill="#FF0B53"/>
<path d="M250.648 39.0144C247.627 40.3987 244.024 39.0785 242.63 36.0362L238.523 37.9184L245.823 53.8469C246.669 55.694 245.857 57.8806 244.01 58.7271C242.163 59.5736 239.976 58.7613 239.13 56.9142C238.283 55.0671 239.096 52.8806 240.943 52.0341C241.29 51.8747 241.702 51.7389 242.077 51.6982L240.155 47.5042C239.788 47.6201 239.43 47.7577 239.061 47.927C234.932 49.8192 233.119 54.6993 235.011 58.8281C236.903 62.957 241.783 64.7698 245.912 62.8776C250.041 60.9854 251.854 56.1053 249.962 51.9765L246.098 43.545C248.155 44.0748 250.406 43.9372 252.492 42.9812L250.669 39.0045L250.648 39.0144Z" fill="#FF0B53"/>
<path d="M248.946 38.4012C245.904 39.7954 242.313 38.4435 240.929 35.4229L236.822 37.3051L244.122 53.2336C244.968 55.0807 244.156 57.2673 242.309 58.1138C240.462 58.9603 238.275 58.1481 237.429 56.301C236.582 54.4539 237.394 52.2673 239.241 51.4208C239.589 51.2615 240 51.1257 240.376 51.0849L238.454 46.8909C238.086 47.0068 237.729 47.1444 237.359 47.3137C233.22 49.1842 231.408 54.0643 233.3 58.1931C235.192 62.3219 240.072 64.1348 244.201 62.2426C248.33 60.3504 250.143 55.4703 248.25 51.3415L244.386 42.91C246.444 43.4398 248.694 43.3022 250.781 42.3462L248.968 38.3912L248.946 38.4012Z" fill="#00F0E9"/>
<path d="M249.414 39.4218C247.959 39.7468 246.459 39.5141 245.189 38.8078C243.765 38.5135 242.477 37.7103 241.587 36.5142L238.523 37.9184L245.823 53.8469C246.669 55.694 245.857 57.8806 244.01 58.7271C242.793 59.2848 241.408 59.1308 240.373 58.4218C239.126 58.2832 237.986 57.5172 237.419 56.2786C236.572 54.4315 237.384 52.2449 239.232 51.3984C239.579 51.2391 239.99 51.1033 240.366 51.0625L238.952 47.9768C234.896 49.9142 233.129 54.7211 235.011 58.8281C235.818 60.5883 237.173 61.9393 238.782 62.7533C240.532 63.1871 242.419 63.0586 244.201 62.2419C248.33 60.3498 250.143 55.4696 248.25 51.3408L244.386 42.9093C246.444 43.4391 248.694 43.3016 250.781 42.3455L249.436 39.4119L249.414 39.4218Z" fill="#262C38"/>
<g clip-path="url(#clip12)">
<path d="M39.2149 14.7758C39.2091 14.7259 39.4703 14.7967 39.8103 15.1113C40.1446 15.376 40.6077 15.8786 40.8944 16.6041C41.1811 17.3296 41.2971 18.3278 40.9082 19.3342C40.5193 20.3405 39.6579 21.1994 38.6063 21.7264C38.0804 21.9898 37.4989 22.2092 36.8941 22.2289C36.5947 22.2637 36.2337 22.2045 35.9226 22.1394C35.6115 22.0744 35.2888 21.9096 35.0161 21.7389C34.4647 21.3477 34.0399 20.7395 34.0086 20.0349C33.9715 19.2804 34.401 18.6234 34.9652 18.2543C35.2473 18.0698 35.5908 17.9793 35.9959 17.9828C36.3511 17.9921 36.6738 18.1569 36.9524 18.3775C37.4596 18.8244 37.6732 19.3561 37.7312 19.8552C37.8333 20.2986 37.8356 20.7536 37.7764 21.1146C37.7172 21.4756 37.702 21.7809 37.6312 22.042C37.3979 23.0809 36.9091 24.0989 36.2858 24.8289C35.6624 25.559 34.9102 26.0511 34.2288 26.2821C33.5474 26.513 32.9427 26.5327 32.5318 26.4793C32.165 26.3702 31.9979 26.2379 31.992 26.1879C32.0188 25.9825 32.8348 26.0394 33.9305 25.4568C34.4506 25.1434 35.0089 24.7244 35.4884 24.0616C35.9736 23.4488 36.33 22.598 36.5308 21.7146C36.6075 21.5034 36.6226 21.1981 36.6876 20.887C36.7027 20.5818 36.7178 20.2765 36.6772 19.9271C36.596 19.2283 36.1387 18.7756 35.6186 19.089C35.3308 19.2236 35.1218 19.602 35.1566 19.9015C35.1473 20.2567 35.3934 20.6328 35.7276 20.8974C36.0619 21.1621 36.4844 21.3153 36.9836 21.2573C37.4386 21.255 37.9261 21.0972 38.4078 20.8894C39.3214 20.4798 40.1003 19.7822 40.4683 19.0312C40.8305 18.2303 40.8317 17.3702 40.6007 16.6888C40.4197 16.0016 40.0622 15.5373 39.772 15.2169C39.3878 14.958 39.2207 14.8257 39.2149 14.7758Z" fill="#FF0B53"/>
</g>
<g clip-path="url(#clip13)">
<path d="M44.1054 39.6199C44.1054 39.079 44.1324 38.5381 44.1594 37.9971C44.1594 37.6726 44.1594 37.3751 44.1594 37.0505C44.1594 36.9423 44.1324 36.8071 44.2947 36.753C44.484 36.6989 44.5381 36.8612 44.5922 36.9423C44.9708 37.6455 45.3225 38.3488 45.6741 39.052C45.7011 39.1061 45.7281 39.1601 45.7552 39.2413C46.0798 39.1601 46.4043 39.079 46.7289 38.9979C47.0534 38.9167 47.405 38.8626 47.7296 38.7815C47.8919 38.7544 48.0001 38.8356 48.0001 38.9708C48.0001 39.079 47.946 39.1601 47.8919 39.2683C47.6755 39.6199 47.4591 39.9986 47.1887 40.3502C47.0264 40.5666 46.9993 40.7559 47.1346 40.9723C47.3509 41.3509 47.5403 41.7296 47.7296 42.0812C47.7837 42.2164 47.8378 42.3246 47.8648 42.4598C47.9189 42.7303 47.7296 42.8385 47.4321 42.7573C47.2968 42.7303 47.1887 42.6492 47.0534 42.5951C46.5936 42.3787 46.1338 42.1623 45.6741 41.9459C45.3495 41.8107 45.3225 41.8107 45.079 42.0541C44.7004 42.4057 44.2947 42.7573 43.916 43.136C43.889 43.163 43.8619 43.2171 43.8078 43.2442C43.6997 43.2712 43.5644 43.3524 43.4833 43.2983C43.4021 43.2712 43.321 43.136 43.3481 43.0278C43.3751 42.7844 43.4292 42.568 43.4833 42.3246C43.5374 41.9459 43.5915 41.5673 43.6456 41.1886C43.6726 40.9993 43.5915 40.8911 43.3751 40.81C42.9694 40.6477 42.5907 40.4584 42.185 40.2691C42.0498 40.215 41.9687 40.1338 41.9957 39.9715C42.0228 39.8363 42.158 39.8093 42.2932 39.8093C42.8883 39.7822 43.4833 39.7011 44.1054 39.6199Z" fill="#00F0E9"/>
</g>
<g clip-path="url(#clip14)">
<path d="M27.0423 94C26.3944 93.9718 26.0001 93.6338 26.0001 93.0704C26.0001 92.4789 26.4789 92 27.0423 92C27.6339 92 28.0846 92.4225 28.0846 92.9859C28.0564 93.5775 27.6339 94 27.0423 94Z" fill="#FF2968"/>
</g>
<path d="M25.8428 25.2504C25.8896 25.8972 25.5994 26.328 25.0398 26.393C24.4522 26.4613 23.9212 26.0409 23.8562 25.4813C23.7879 24.8937 24.1556 24.3973 24.7152 24.3322C25.306 24.2919 25.7745 24.6628 25.8428 25.2504Z" fill="#262C38"/>
<path d="M49.622 55.6966C46.8528 55.0532 45.1048 52.2742 45.7529 49.485L41.9875 48.6101L38.5942 63.2132C38.2007 64.9066 36.5067 65.9619 34.8133 65.5684C33.1199 65.1749 32.0646 63.4808 32.4581 61.7874C32.8516 60.094 34.5457 59.0388 36.2391 59.4323C36.5579 59.5063 36.9072 59.6295 37.1829 59.7986L38.0763 55.9535C37.7668 55.8396 37.4527 55.7456 37.114 55.6669C33.3288 54.7874 29.5478 57.1425 28.6682 60.9277C27.7887 64.713 30.1438 68.494 33.9291 69.3736C37.7143 70.2531 41.4953 67.898 42.3749 64.1127L44.171 56.3828C45.2864 57.8179 46.8822 58.9027 48.7948 59.3471L49.6419 55.7013L49.622 55.6966Z" fill="#FF0B53"/>
<path d="M48.7914 54.3919C46.0023 53.7438 44.2788 50.9496 44.9222 48.1804L41.1569 47.3054L37.7636 61.9085C37.3701 63.602 35.676 64.6572 33.9826 64.2637C32.2892 63.8702 31.234 62.1761 31.6275 60.4827C32.021 58.7893 33.7151 57.7341 35.4085 58.1276C35.7272 58.2016 36.0766 58.3248 36.3523 58.4939L37.2457 54.6488C36.9362 54.5349 36.6221 54.4409 36.2834 54.3622C32.5028 53.4627 28.7218 55.8179 27.8422 59.6031C26.9627 63.3884 29.3178 67.1694 33.1031 68.0489C36.8883 68.9285 40.6693 66.5734 41.5489 62.7881L43.345 55.0582C44.4604 56.4933 46.0562 57.578 47.9688 58.0225L48.8113 54.3966L48.7914 54.3919Z" fill="#00F0E9"/>
<path d="M48.574 55.3271C47.4189 54.7857 46.525 53.8431 46.0347 52.7002C45.2251 51.7562 44.7732 50.5383 44.7966 49.2628L41.9875 48.6101L38.5942 63.2132C38.2007 64.9066 36.5067 65.9619 34.8133 65.5684C33.6976 65.3091 32.8404 64.48 32.5108 63.4585C31.7393 62.7123 31.3684 61.5972 31.6323 60.4616C32.0258 58.7682 33.7199 57.713 35.4133 58.1065C35.732 58.1805 36.0814 58.3037 36.3571 58.4728L37.0144 55.6438C33.2551 54.8332 29.5432 57.1624 28.6682 60.9277C28.2933 62.5415 28.5039 64.1653 29.1671 65.5583C30.125 66.7678 31.4696 67.6682 33.1032 68.0478C36.8885 68.9273 40.6695 66.5722 41.549 62.7869L43.3452 55.057C44.4606 56.4921 46.0564 57.5769 47.9689 58.0213L48.5939 55.3317L48.574 55.3271Z" fill="#262C38"/>
<g clip-path="url(#clip15)">
<path d="M103.246 11.0821C103.208 11.0736 103.328 10.8973 103.65 10.7253C103.934 10.5447 104.428 10.3296 105.042 10.3034C105.656 10.2773 106.43 10.4487 107.079 10.9983C107.728 11.5478 108.145 12.4112 108.266 13.3306C108.326 13.7903 108.34 14.28 108.198 14.7355C108.147 14.9676 108.009 15.2212 107.881 15.4361C107.752 15.651 107.546 15.8487 107.348 16.0078C106.914 16.3174 106.352 16.4767 105.819 16.318C105.247 16.1508 104.869 15.6612 104.74 15.1457C104.675 14.888 104.696 14.6087 104.804 14.3079C104.902 14.0457 105.108 13.848 105.345 13.6975C105.808 13.4351 106.26 13.4134 106.646 13.4991C107.003 13.5375 107.342 13.6533 107.596 13.7907C107.85 13.928 108.073 14.0181 108.249 14.1383C108.963 14.5804 109.595 15.2073 109.977 15.8602C110.36 16.513 110.533 17.2004 110.529 17.7675C110.525 18.3346 110.383 18.7901 110.237 19.0824C110.061 19.3274 109.919 19.4177 109.881 19.4091C109.735 19.3362 109.988 18.7431 109.837 17.7765C109.738 17.3082 109.57 16.7842 109.2 16.2559C108.869 15.7362 108.327 15.2511 107.721 14.8733C107.584 14.7617 107.36 14.6716 107.145 14.5428C106.922 14.4527 106.698 14.3626 106.428 14.3026C105.886 14.1827 105.431 14.4063 105.53 14.8746C105.556 15.1238 105.784 15.3771 106.016 15.4286C106.278 15.5272 106.622 15.4411 106.905 15.2605C107.189 15.0799 107.412 14.8048 107.498 14.418C107.613 14.0785 107.622 13.6747 107.591 13.2622C107.522 12.476 107.204 11.7157 106.74 11.2477C106.237 10.771 105.596 10.548 105.029 10.544C104.471 10.5014 104.032 10.6477 103.719 10.7811C103.427 11.0004 103.285 11.0907 103.246 11.0821Z" fill="#262C38"/>
</g>
<g clip-path="url(#clip16)">
<path d="M103.563 29.8086C102.592 29.7663 102 29.2593 102 28.4142C102 27.5269 102.718 26.8086 103.563 26.8086C104.451 26.8086 105.127 27.4424 105.127 28.2875C105.085 29.1748 104.451 29.8086 103.563 29.8086Z" fill="#262C38"/>
</g>
<path d="M84.3837 10.7322L90.6919 21.5881L92.6508 24.9727L75.7759 38.8065L72.8412 36.2218L63.4335 27.9068L73.9854 28.6618L70.8971 15.6461L83.0543 21.2273L84.3837 10.7322Z" fill="#FF0B53"/>
<path d="M94.3326 27.9606L78.376 41.0416C77.1994 42.0062 75.4759 41.8355 74.5113 40.6589C73.5467 39.4822 73.7174 37.7588 74.894 36.7942L90.8506 23.7132C92.0272 22.7486 93.7507 22.9193 94.7153 24.0959C95.6799 25.2726 95.5092 26.996 94.3326 27.9606Z" fill="#FF0B53"/>
<path d="M64.8446 29.6272C65.7322 28.8996 65.8618 27.5902 65.1342 26.7026C64.4066 25.815 63.0971 25.6853 62.2096 26.413C61.322 27.1406 61.1923 28.45 61.9199 29.3376C62.6476 30.2252 63.957 30.3549 64.8446 29.6272Z" fill="#FF0B53"/>
<path d="M72.2147 17.2532C73.1023 16.5256 73.2319 15.2162 72.5043 14.3286C71.7767 13.441 70.4673 13.3113 69.5797 14.0389C68.6921 14.7666 68.5624 16.076 69.29 16.9636C70.0177 17.8512 71.3271 17.9808 72.2147 17.2532Z" fill="#FF0B53"/>
<path d="M85.7951 12.4534C86.6827 11.7258 86.8124 10.4164 86.0848 9.52876C85.3571 8.64117 84.0477 8.5115 83.1601 9.23914C82.2725 9.96677 82.1428 11.2762 82.8705 12.1638C83.5981 13.0514 84.9075 13.181 85.7951 12.4534Z" fill="#FF0B53"/>
<path d="M87.5388 10.5193L93.847 21.3752L95.806 24.7598L78.931 38.5936L75.9964 36.0089L66.5887 27.694L77.1406 28.4489L74.0523 15.4332L86.2094 21.0144L87.5388 10.5193Z" fill="#00F0E9"/>
<path d="M97.4877 27.7478L81.5312 40.8287C80.3545 41.7933 78.6311 41.6226 77.6665 40.446C76.7019 39.2693 76.8725 37.5459 78.0492 36.5813L94.0057 23.5003C95.1824 22.5357 96.9058 22.7064 97.8704 23.8831C98.8351 25.0597 98.6644 26.7832 97.4877 27.7478Z" fill="#00F0E9"/>
<path d="M67.9997 29.4143C68.8873 28.6867 69.017 27.3773 68.2893 26.4897C67.5617 25.6021 66.2523 25.4724 65.3647 26.2001C64.4771 26.9277 64.3474 28.2371 65.0751 29.1247C65.8027 30.0123 67.1121 30.142 67.9997 29.4143Z" fill="#00F0E9"/>
<path d="M75.3698 17.0403C76.2574 16.3127 76.3871 15.0033 75.6595 14.1157C74.9318 13.2281 73.6224 13.0984 72.7348 13.826C71.8472 14.5537 71.7176 15.8631 72.4452 16.7507C73.1728 17.6383 74.4822 17.768 75.3698 17.0403Z" fill="#00F0E9"/>
<path d="M88.9503 12.2405C89.8379 11.5129 89.9675 10.2035 89.2399 9.31587C88.5123 8.42828 87.2029 8.29861 86.3153 9.02624C85.4277 9.75388 85.298 11.0633 86.0256 11.9509C86.7533 12.8385 88.0627 12.9682 88.9503 12.2405Z" fill="#00F0E9"/>
<path d="M85.456 10.2312L91.7642 21.0871L93.7231 24.4717L76.8482 38.3056L73.9135 35.7208L64.5058 27.4059L75.0578 28.1608L71.9695 15.1451L84.1266 20.7263L85.456 10.2312Z" fill="#262C38"/>
<path d="M85.4561 10.2316L91.7643 21.0874L93.7232 24.4721L76.8483 38.3059L73.9607 35.7786L85.3254 26.4619C88.3388 23.9916 89.105 19.7166 87.1461 16.3319L85.0982 12.7803L85.4561 10.2316Z" fill="#163C5A"/>
<path d="M76.3041 26.7542C75.7663 26.8592 75.2177 26.5411 75.1127 26.0034L74.4416 23.1945C74.3366 22.6568 74.6547 22.1081 75.1924 22.0032C75.7302 21.8982 76.2788 22.2162 76.3838 22.754L77.0549 25.5628C77.1599 26.1006 76.8183 26.6205 76.3041 26.7542Z" fill="#40F4EF"/>
<path d="M91.7644 21.087L93.7233 24.4716L76.8484 38.3054L73.9137 35.7207L91.7644 21.087Z" fill="#FF1A5E"/>
<path d="M95.4049 27.4597L79.4483 40.5406C78.2717 41.5052 76.5482 41.3345 75.5836 40.1579C74.619 38.9812 74.7897 37.2578 75.9664 36.2932L91.9229 23.2122C93.0996 22.2476 94.823 22.4183 95.7876 23.595C96.7522 24.7716 96.5816 26.4951 95.4049 27.4597Z" fill="#163C5A"/>
<path d="M92.4489 29.8829L79.4483 40.5406C78.2717 41.5052 76.5482 41.3345 75.5836 40.1579C74.619 38.9812 74.7897 37.2578 75.9664 36.2932L88.9669 25.6355C90.1436 24.6709 91.867 24.8416 92.8316 26.0182C93.7962 27.1949 93.6256 28.9183 92.4489 29.8829Z" fill="#262C38"/>
<path d="M80.4621 36.1577L77.9653 38.2045C77.5923 38.5104 77.0178 38.4535 76.7119 38.0804C76.4061 37.7073 76.463 37.1328 76.836 36.827L79.3328 34.7801C79.7059 34.4743 80.2804 34.5312 80.5863 34.9042C80.8921 35.2773 80.8352 35.8518 80.4621 36.1577Z" fill="#40F4EF"/>
<path d="M65.9169 29.1263C66.8045 28.3986 66.9342 27.0892 66.2065 26.2016C65.4789 25.314 64.1695 25.1843 63.2819 25.912C62.3943 26.6396 62.2646 27.949 62.9922 28.8366C63.7199 29.7242 65.0293 29.8539 65.9169 29.1263Z" fill="#262C38"/>
<path d="M64.8967 26.6527C65.2967 27.1406 65.2243 27.8717 64.7364 28.2717C64.2485 28.6716 63.5174 28.5992 63.1174 28.1113C62.7174 27.6235 62.7898 26.8923 63.2777 26.4923C63.7891 26.1211 64.4968 26.1648 64.8967 26.6527Z" fill="#40F4EF"/>
<path d="M73.287 16.7522C74.1746 16.0246 74.3043 14.7152 73.5766 13.8276C72.849 12.94 71.5396 12.8103 70.652 13.538C69.7644 14.2656 69.6347 15.575 70.3624 16.4626C71.09 17.3502 72.3994 17.4799 73.287 16.7522Z" fill="#262C38"/>
<path d="M72.2662 14.2777C72.6662 14.7656 72.5938 15.4967 72.1059 15.8967C71.618 16.2966 70.8869 16.2242 70.4869 15.7363C70.0869 15.2485 70.1594 14.5173 70.6472 14.1173C71.1351 13.7174 71.8663 13.7898 72.2662 14.2777Z" fill="#40F4EF"/>
<path d="M86.8675 11.9524C87.755 11.2248 87.8847 9.91538 87.1571 9.02779C86.4294 8.14019 85.12 8.01052 84.2324 8.73816C83.3448 9.4658 83.2152 10.7752 83.9428 11.6628C84.6704 12.5504 85.9799 12.6801 86.8675 11.9524Z" fill="#262C38"/>
<path d="M84.6128 10.4903C85.0127 10.9781 85.7439 11.0505 86.2318 10.6506C86.7196 10.2506 86.792 9.51946 86.3921 9.03158C85.9921 8.5437 85.261 8.4713 84.7731 8.87125C84.3087 9.29991 84.2128 10.0024 84.6128 10.4903Z" fill="#40F4EF"/>
</g>
<defs>
<filter id="filter0_f" x="23" y="81" width="156" height="26" filterUnits="userSpaceOnUse" color-interpolation-filters="sRGB">
<feFlood flood-opacity="0" result="BackgroundImageFix"/>
<feBlend mode="normal" in="SourceGraphic" in2="BackgroundImageFix" result="shape"/>
<feGaussianBlur stdDeviation="5" result="effect1_foregroundBlur"/>
</filter>
<linearGradient id="paint0_linear" x1="161" y1="81.5" x2="244" y2="81" gradientUnits="userSpaceOnUse">
<stop stop-color="#09EAE5"/>
<stop offset="0.817708" stop-color="#BD4D7A"/>
<stop offset="1" stop-color="#E52A62"/>
</linearGradient>
<clipPath id="clip0">
<rect width="277" height="105.82" fill="white"/>
</clipPath>
<clipPath id="clip1">
<rect width="21.3938" height="24.2827" fill="white" transform="translate(56.2387 69) rotate(22.3625)"/>
</clipPath>
<clipPath id="clip2">
<rect width="8.94383" height="9.87464" fill="white" transform="translate(54.3011 97.167) rotate(135.45)"/>
</clipPath>
<clipPath id="clip3">
<rect width="25.549" height="34.2895" fill="white" transform="translate(151 28)"/>
</clipPath>
<clipPath id="clip4">
<rect width="12.8115" height="14.1448" fill="white" transform="translate(164.053 19.0801) rotate(135.45)"/>
</clipPath>
<clipPath id="clip5">
<rect width="3.08451" height="3" fill="white" transform="translate(171 22)"/>
</clipPath>
<clipPath id="clip6">
<rect width="55" height="14.764" fill="white" transform="translate(104 85)"/>
</clipPath>
<clipPath id="clip7">
<rect width="10.904" height="10.1" fill="white" transform="translate(227.339 12.8809) rotate(31.9116)"/>
</clipPath>
<clipPath id="clip8">
<rect width="11" height="12.1448" fill="white" transform="translate(214 52)"/>
</clipPath>
<clipPath id="clip9">
<rect width="2.05634" height="2" fill="white" transform="translate(217 12)"/>
</clipPath>
<clipPath id="clip10">
<rect width="3.08451" height="3" fill="white" transform="translate(240.846 26)"/>
</clipPath>
<clipPath id="clip11">
<rect width="3.08451" height="3" fill="white" transform="translate(261 77)"/>
</clipPath>
<clipPath id="clip12">
<rect width="10.904" height="10.1" fill="white" transform="translate(32.0385 26.5869) rotate(-96.6294)"/>
</clipPath>
<clipPath id="clip13">
<rect width="11" height="12.1448" fill="white" transform="translate(42.0001 34)"/>
</clipPath>
<clipPath id="clip14">
<rect width="2.05634" height="2" fill="white" transform="translate(26.0001 92)"/>
</clipPath>
<clipPath id="clip15">
<rect width="8.5957" height="7.96192" fill="white" transform="translate(110.19 19.4775) rotate(-167.505)"/>
</clipPath>
<clipPath id="clip16">
<rect width="3.08451" height="3" fill="white" transform="translate(102 26.8086)"/>
</clipPath>
</defs>
</svg>
