<svg width="277" height="106" viewBox="0 0 277 106" fill="none" xmlns="http://www.w3.org/2000/svg">
<g clip-path="url(#clip0)">
<g clip-path="url(#clip1)">
<path d="M154.217 15.0728C155.005 15.2798 155.596 15.68 156.217 16.3837C156.777 17.0323 157.08 17.8602 157.05 18.6882V18.702V18.7158C157.05 18.7158 157.05 18.7296 157.065 18.7296C157.065 18.7296 157.065 18.7434 157.08 18.7434L157.095 18.7572C157.095 18.7572 157.111 18.7572 157.111 18.771H157.126H157.141C157.186 18.771 157.217 18.7434 157.217 18.702C157.217 18.702 157.217 18.702 157.217 18.6882C157.186 17.874 157.489 17.0323 158.05 16.3837C158.656 15.6662 159.261 15.2798 160.049 15.0728C160.095 15.059 160.11 15.0314 160.11 14.99C160.11 14.9486 160.079 14.921 160.049 14.921C159.246 14.7416 158.762 14.3138 158.247 13.817C157.747 13.3341 157.398 12.6993 157.232 11.9127C157.232 11.9127 157.232 11.9127 157.232 11.8989C157.232 11.8851 157.232 11.8851 157.217 11.8851C157.217 11.8851 157.217 11.8851 157.217 11.8713L157.201 11.8575C157.201 11.8575 157.201 11.8575 157.186 11.8575C157.186 11.8575 157.171 11.8575 157.171 11.8438H157.156H157.141C157.141 11.8438 157.126 11.8438 157.126 11.8575C157.126 11.8575 157.126 11.8575 157.111 11.8575L157.095 11.8713C157.095 11.8713 157.095 11.8713 157.095 11.8851C157.095 11.8851 157.095 11.8989 157.08 11.8989C157.08 11.8989 157.08 11.8989 157.08 11.9127C156.914 12.6993 156.565 13.3479 156.065 13.817C155.52 14.3138 155.02 14.7416 154.217 14.921C154.187 14.921 154.157 14.9486 154.157 14.99C154.157 15.0314 154.187 15.059 154.217 15.0728Z" fill="#954EDE"/>
</g>
<path d="M136.988 12.8834C136.801 12.9069 136.613 12.9771 136.449 13.0707C136.192 12.5557 135.607 12.2513 134.998 12.345C134.647 12.3918 134.342 12.5791 134.132 12.8366C133.851 12.6727 133.499 12.5791 133.148 12.6493C132.797 12.6961 132.493 12.8834 132.282 13.141C131.978 12.9537 131.65 12.8834 131.275 12.9303C130.526 13.0473 130.011 13.7263 130.105 14.4286C130.315 15.7163 130.386 16.325 130.433 16.5825C130.198 16.8635 130.081 17.2381 130.152 17.6127L130.479 19.6495C130.69 21.0308 131.65 22.2014 132.984 22.7867L134.061 29.6464C134.108 29.8805 134.319 30.021 134.576 29.9976C134.811 29.9507 134.998 29.74 134.951 29.5059L133.851 22.4355C133.827 22.295 133.734 22.1546 133.57 22.1077C132.399 21.6863 131.556 20.703 131.369 19.5324L131.041 17.4722C131.018 17.3083 131.065 17.1678 131.205 17.0508C131.205 17.0508 131.205 17.0508 131.229 17.0508C131.299 17.0039 131.392 16.9571 131.463 16.9337L133.851 16.5591C134.132 16.5123 134.366 16.6996 134.413 16.9337C134.459 17.1912 134.272 17.4254 133.991 17.4722L132.54 17.7063C132.423 17.7297 132.329 17.7765 132.259 17.8702C132.188 17.9638 132.165 18.0809 132.165 18.1745L132.376 19.5558C132.399 19.7197 132.54 19.8602 132.703 19.8836L134.857 20.3753C134.928 20.3987 134.974 20.3987 135.045 20.3753C135.209 20.3518 135.372 20.2348 135.419 20.0709C135.49 19.8368 135.349 19.6261 135.092 19.5558L133.219 19.111L133.101 18.4087L134.108 18.2448C134.74 18.1511 135.209 17.6595 135.279 17.0976C135.419 17.121 135.583 17.121 135.747 17.0976C136.098 17.0508 136.403 16.8635 136.613 16.6059C136.894 16.7698 137.245 16.8635 137.597 16.7932C137.76 16.7698 137.924 16.6996 138.065 16.6294L138.346 18.4321C138.603 20.1411 137.362 21.7331 135.56 22.0375C135.326 22.0843 135.138 22.295 135.185 22.5292C135.232 22.7633 135.443 22.9037 135.7 22.8803C136.332 22.7867 136.894 22.5526 137.386 22.2482L138.439 28.8972C138.486 29.1313 138.697 29.2718 138.954 29.2484C139.189 29.2016 139.376 28.9908 139.329 28.7567L138.205 21.5927C139.025 20.7264 139.446 19.5324 139.259 18.315L138.556 13.8902C138.439 13.2346 137.737 12.7664 136.988 12.8834ZM131.275 16.1143C131.205 15.6226 131.088 14.85 130.994 14.2882C130.948 14.0306 131.135 13.7965 131.416 13.7497C131.697 13.7029 131.931 13.8902 131.978 14.1243L132.259 15.9504L131.322 16.0909C131.322 16.1143 131.299 16.1143 131.275 16.1143ZM133.71 15.7397L133.148 15.8333L132.867 14.0072C132.821 13.7497 133.008 13.5156 133.289 13.4687C133.57 13.4219 133.804 13.6092 133.851 13.8433L134.155 15.7163C133.991 15.7163 133.851 15.7163 133.71 15.7397ZM135.63 16.325C135.349 16.3718 135.115 16.1845 135.068 15.9504L134.717 13.7029C134.67 13.4453 134.857 13.2112 135.138 13.1644C135.419 13.1176 135.653 13.3049 135.7 13.539L136.051 15.7865C136.075 16.0441 135.888 16.3016 135.63 16.325ZM137.48 16.0441C137.199 16.0909 136.964 15.9036 136.918 15.6695L136.684 14.2413C136.66 13.9838 136.847 13.7497 137.128 13.7029C137.409 13.656 137.643 13.8433 137.69 14.0775L137.924 15.5056C137.948 15.7631 137.76 15.9972 137.48 16.0441Z" fill="#FFDFFF"/>
<path d="M147.687 5.55559L147.43 3.86993C147.313 3.07392 146.517 2.51204 145.65 2.65251C145.393 2.69933 145.159 2.79298 144.971 2.93345C144.714 2.30133 144.011 1.90333 143.286 2.02039C142.841 2.09062 142.49 2.32474 142.256 2.6291C141.928 2.39498 141.506 2.30133 141.085 2.37156C140.64 2.4418 140.289 2.67592 140.055 2.98027C139.727 2.74616 139.306 2.65251 138.884 2.72274C138.041 2.86322 137.433 3.6124 137.573 4.43181C137.831 6.04724 137.924 6.74959 137.971 7.05395C137.69 7.38172 137.55 7.80313 137.62 8.22455L137.948 10.6594C138.205 12.2982 139.329 13.7029 140.945 14.3585L143.122 28.2417C143.169 28.4759 143.379 28.6163 143.637 28.5929C143.871 28.5461 144.058 28.3354 144.011 28.1013L141.787 13.9839C141.764 13.8434 141.67 13.7029 141.506 13.6561C140.078 13.141 139.048 11.947 138.837 10.5189L138.463 8.08407C138.439 7.87337 138.51 7.66266 138.674 7.49878C138.674 7.49878 138.697 7.49878 138.697 7.47536C138.791 7.40513 138.908 7.3583 139.025 7.33489L141.858 6.89007C142.232 6.84324 142.56 7.07736 142.63 7.40513C142.677 7.75631 142.419 8.08407 142.068 8.1309L140.336 8.41184C140.219 8.43525 140.125 8.48208 140.055 8.57572C139.985 8.66937 139.961 8.78643 139.961 8.88008L140.219 10.5189C140.242 10.6828 140.383 10.8233 140.547 10.8467L143.122 11.4554C143.192 11.4788 143.239 11.4788 143.309 11.4554C143.473 11.432 143.637 11.3149 143.684 11.151C143.754 10.9169 143.613 10.7062 143.356 10.636L141.062 10.0975L140.921 9.13761L142.209 8.9269C142.958 8.80984 143.496 8.22455 143.543 7.52219C143.731 7.56901 143.941 7.56901 144.152 7.5456C144.597 7.47536 144.948 7.24124 145.182 6.93689C145.51 7.17101 145.931 7.26466 146.353 7.19442C146.587 7.1476 146.821 7.07736 147.008 6.93689L147.359 9.23126C147.687 11.2915 146.165 13.2815 143.965 13.6093C143.731 13.6561 143.543 13.8668 143.59 14.1009C143.637 14.3351 143.848 14.4755 144.105 14.4521C144.878 14.3351 145.58 14.0307 146.189 13.6327L148.343 27.3521C148.39 27.5862 148.6 27.7267 148.858 27.7033C149.092 27.6564 149.279 27.4457 149.232 27.2116L146.985 12.9538C147.968 11.947 148.483 10.5423 148.249 9.09079L147.687 5.55559ZM138.744 6.53889C138.65 5.95359 138.51 4.9937 138.393 4.26793C138.346 3.91675 138.58 3.58898 138.955 3.54216C139.329 3.49534 139.657 3.72946 139.727 4.05722L140.078 6.32818L138.884 6.51547C138.837 6.51547 138.791 6.53889 138.744 6.53889ZM141.741 6.07065L140.968 6.18771L140.617 3.91675C140.57 3.56557 140.827 3.23781 141.179 3.19098C141.553 3.14416 141.881 3.37828 141.951 3.70604L142.326 6.07065C142.139 6.04724 141.928 6.04724 141.741 6.07065ZM144.011 6.77301C143.637 6.81983 143.309 6.58571 143.239 6.25794L142.841 3.58898C142.794 3.23781 143.052 2.91004 143.403 2.86322C143.777 2.81639 144.105 3.05051 144.175 3.37828L144.597 6.04724C144.644 6.39842 144.386 6.72618 144.011 6.77301ZM146.236 6.42183C145.861 6.46865 145.533 6.23453 145.463 5.90677L145.205 4.22111C145.159 3.86993 145.416 3.54216 145.767 3.49534C146.142 3.44851 146.47 3.68263 146.54 4.0104L146.798 5.69606C146.868 6.04724 146.61 6.375 146.236 6.42183Z" fill="#FFDFFF"/>
<path d="M135.894 12.8834C135.707 12.9069 135.52 12.9771 135.356 13.0707C135.098 12.5557 134.513 12.2513 133.904 12.345C133.553 12.3918 133.249 12.5791 133.038 12.8366C132.757 12.6727 132.406 12.5791 132.055 12.6493C131.703 12.6961 131.399 12.8834 131.188 13.141C130.884 12.9537 130.556 12.8834 130.182 12.9303C129.432 13.0473 128.917 13.7263 129.011 14.4286C129.222 15.7163 129.292 16.325 129.339 16.5825C129.105 16.8635 128.988 17.2381 129.058 17.6127L129.386 19.6495C129.596 21.0308 130.556 22.2014 131.891 22.7867L132.968 29.6464C133.014 29.8805 133.225 30.021 133.483 29.9976C133.717 29.9507 133.904 29.74 133.857 29.5059L132.757 22.4355C132.734 22.295 132.64 22.1546 132.476 22.1077C131.305 21.6863 130.463 20.703 130.275 19.5324L129.948 17.4722C129.924 17.3083 129.971 17.1678 130.111 17.0508C130.111 17.0508 130.111 17.0508 130.135 17.0508C130.205 17.0039 130.299 16.9571 130.369 16.9337L132.757 16.5591C133.038 16.5123 133.272 16.6996 133.319 16.9337C133.366 17.1912 133.178 17.4254 132.897 17.4722L131.446 17.7063C131.329 17.7297 131.235 17.7765 131.165 17.8702C131.095 17.9638 131.071 18.0809 131.071 18.1745L131.282 19.5558C131.305 19.7197 131.446 19.8602 131.61 19.8836L133.764 20.3753C133.834 20.3987 133.881 20.3987 133.951 20.3753C134.115 20.3518 134.279 20.2348 134.326 20.0709C134.396 19.8368 134.255 19.6261 133.998 19.5558L132.125 19.111L132.008 18.4087L133.014 18.2448C133.647 18.1511 134.115 17.6595 134.185 17.0976C134.326 17.121 134.489 17.121 134.653 17.0976C135.004 17.0508 135.309 16.8635 135.52 16.6059C135.8 16.7698 136.152 16.8635 136.503 16.7932C136.667 16.7698 136.831 16.6996 136.971 16.6294L137.252 18.4321C137.51 20.1411 136.269 21.7331 134.466 22.0375C134.232 22.0843 134.045 22.295 134.091 22.5292C134.138 22.7633 134.349 22.9037 134.606 22.8803C135.239 22.7867 135.8 22.5526 136.292 22.2482L137.346 28.8972C137.392 29.1313 137.603 29.2718 137.861 29.2484C138.095 29.2016 138.282 28.9908 138.235 28.7567L137.112 21.5927C137.931 20.7264 138.352 19.5324 138.165 18.315L137.463 13.8902C137.346 13.2346 136.643 12.7664 135.894 12.8834ZM130.182 16.1143C130.111 15.6226 129.994 14.85 129.901 14.2882C129.854 14.0306 130.041 13.7965 130.322 13.7497C130.603 13.7029 130.837 13.8902 130.884 14.1243L131.165 15.9504L130.228 16.0909C130.228 16.1143 130.205 16.1143 130.182 16.1143ZM132.616 15.7397L132.055 15.8333L131.774 14.0072C131.727 13.7497 131.914 13.5156 132.195 13.4687C132.476 13.4219 132.71 13.6092 132.757 13.8433L133.061 15.7163C132.897 15.7163 132.757 15.7163 132.616 15.7397ZM134.536 16.325C134.255 16.3718 134.021 16.1845 133.974 15.9504L133.623 13.7029C133.576 13.4453 133.764 13.2112 134.045 13.1644C134.326 13.1176 134.56 13.3049 134.606 13.539L134.958 15.7865C134.981 16.0441 134.794 16.3016 134.536 16.325ZM136.386 16.0441C136.105 16.0909 135.871 15.9036 135.824 15.6695L135.59 14.2413C135.566 13.9838 135.754 13.7497 136.035 13.7029C136.316 13.656 136.55 13.8433 136.596 14.0775L136.831 15.5056C136.854 15.7631 136.667 15.9972 136.386 16.0441Z" fill="#954EDE"/>
<path d="M146.593 5.55559L146.336 3.86993C146.219 3.07392 145.423 2.51204 144.557 2.65251C144.299 2.69933 144.065 2.79298 143.878 2.93345C143.62 2.30133 142.918 1.90333 142.192 2.02039C141.747 2.09062 141.396 2.32474 141.162 2.6291C140.834 2.39498 140.413 2.30133 139.991 2.37156C139.546 2.4418 139.195 2.67592 138.961 2.98027C138.633 2.74616 138.212 2.65251 137.791 2.72274C136.948 2.86322 136.339 3.6124 136.479 4.43181C136.737 6.04724 136.831 6.74959 136.877 7.05395C136.597 7.38172 136.456 7.80313 136.526 8.22455L136.854 10.6594C137.112 12.2982 138.235 13.7029 139.851 14.3585L142.028 28.2417C142.075 28.4759 142.286 28.6163 142.543 28.5929C142.777 28.5461 142.965 28.3354 142.918 28.1013L140.694 13.9839C140.67 13.8434 140.577 13.7029 140.413 13.6561C138.985 13.141 137.954 11.947 137.744 10.5189L137.369 8.08407C137.346 7.87337 137.416 7.66266 137.58 7.49878C137.58 7.49878 137.603 7.49878 137.603 7.47536C137.697 7.40513 137.814 7.3583 137.931 7.33489L140.764 6.89007C141.138 6.84324 141.466 7.07736 141.536 7.40513C141.583 7.75631 141.326 8.08407 140.975 8.1309L139.242 8.41184C139.125 8.43525 139.031 8.48208 138.961 8.57572C138.891 8.66937 138.867 8.78643 138.867 8.88008L139.125 10.5189C139.148 10.6828 139.289 10.8233 139.453 10.8467L142.028 11.4554C142.098 11.4788 142.145 11.4788 142.215 11.4554C142.379 11.432 142.543 11.3149 142.59 11.151C142.66 10.9169 142.52 10.7062 142.262 10.636L139.968 10.0975L139.827 9.13761L141.115 8.9269C141.864 8.80984 142.403 8.22455 142.45 7.52219C142.637 7.56901 142.848 7.56901 143.058 7.5456C143.503 7.47536 143.854 7.24124 144.088 6.93689C144.416 7.17101 144.838 7.26466 145.259 7.19442C145.493 7.1476 145.727 7.07736 145.914 6.93689L146.266 9.23126C146.593 11.2915 145.072 13.2815 142.871 13.6093C142.637 13.6561 142.45 13.8668 142.496 14.1009C142.543 14.3351 142.754 14.4755 143.011 14.4521C143.784 14.3351 144.486 14.0307 145.095 13.6327L147.249 27.3521C147.296 27.5862 147.506 27.7267 147.764 27.7033C147.998 27.6564 148.185 27.4457 148.139 27.2116L145.891 12.9538C146.874 11.947 147.389 10.5423 147.155 9.09079L146.593 5.55559ZM137.65 6.53889C137.556 5.95359 137.416 4.9937 137.299 4.26793C137.252 3.91675 137.486 3.58898 137.861 3.54216C138.235 3.49534 138.563 3.72946 138.633 4.05722L138.985 6.32818L137.791 6.51547C137.744 6.51547 137.697 6.53889 137.65 6.53889ZM140.647 6.07065L139.874 6.18771L139.523 3.91675C139.476 3.56557 139.734 3.23781 140.085 3.19098C140.46 3.14416 140.787 3.37828 140.858 3.70604L141.232 6.07065C141.045 6.04724 140.834 6.04724 140.647 6.07065ZM142.918 6.77301C142.543 6.81983 142.215 6.58571 142.145 6.25794L141.747 3.58898C141.7 3.23781 141.958 2.91004 142.309 2.86322C142.684 2.81639 143.011 3.05051 143.082 3.37828L143.503 6.04724C143.55 6.39842 143.292 6.72618 142.918 6.77301ZM145.142 6.42183C144.767 6.46865 144.44 6.23453 144.369 5.90677L144.112 4.22111C144.065 3.86993 144.322 3.54216 144.674 3.49534C145.048 3.44851 145.376 3.68263 145.446 4.0104L145.704 5.69606C145.774 6.04724 145.516 6.375 145.142 6.42183Z" fill="#954EDE"/>
<g filter="url(#filter0_f)">
<ellipse cx="101" cy="94" rx="68" ry="3" fill="#C4C4C4" fill-opacity="0.5"/>
</g>
<path d="M177.71 88.3779C176.909 89.3154 175.742 90.043 174.209 90.5605C172.676 91.0684 170.977 91.3076 169.111 91.2783C167.324 91.2588 165.815 90.8096 164.585 89.9307C163.354 89.0518 162.476 87.8262 161.948 86.2539C161.421 84.6816 161.279 82.9092 161.523 80.9365L161.641 80.0576C162.09 76.7471 163.252 74.125 165.127 72.1914C167.012 70.2578 169.316 69.3154 172.041 69.3643C174.424 69.4033 176.255 70.043 177.534 71.2832C178.813 72.5234 179.526 74.3154 179.673 76.6592L174.868 76.6445C174.8 75.502 174.517 74.667 174.019 74.1396C173.53 73.6123 172.832 73.334 171.924 73.3047C170.576 73.2559 169.463 73.7881 168.584 74.9014C167.705 76.0049 167.104 77.5869 166.782 79.6475C166.509 81.4053 166.411 82.7725 166.489 83.749C166.636 86.1025 167.695 87.2939 169.668 87.3232C170.859 87.3428 171.904 87.0547 172.803 86.459L173.462 83.1338H169.99L170.605 79.6035H179.087L177.71 88.3779ZM185.356 91H180.347L184.053 69.6719H189.048L185.356 91ZM206.626 88.3779C205.825 89.3154 204.658 90.043 203.125 90.5605C201.592 91.0684 199.893 91.3076 198.027 91.2783C196.24 91.2588 194.731 90.8096 193.501 89.9307C192.271 89.0518 191.392 87.8262 190.864 86.2539C190.337 84.6816 190.195 82.9092 190.439 80.9365L190.557 80.0576C191.006 76.7471 192.168 74.125 194.043 72.1914C195.928 70.2578 198.232 69.3154 200.957 69.3643C203.34 69.4033 205.171 70.043 206.45 71.2832C207.729 72.5234 208.442 74.3154 208.589 76.6592L203.784 76.6445C203.716 75.502 203.433 74.667 202.935 74.1396C202.446 73.6123 201.748 73.334 200.84 73.3047C199.492 73.2559 198.379 73.7881 197.5 74.9014C196.621 76.0049 196.021 77.5869 195.698 79.6475C195.425 81.4053 195.327 82.7725 195.405 83.749C195.552 86.1025 196.611 87.2939 198.584 87.3232C199.775 87.3428 200.82 87.0547 201.719 86.459L202.378 83.1338H198.906L199.521 79.6035H208.003L206.626 88.3779ZM221.45 87.0156H214.639L212.749 91H207.227L218.521 69.6719H223.237L227.178 91H221.963L221.45 87.0156ZM216.514 83.0459H220.938L220 75.6924L216.514 83.0459ZM240.625 85.2285C240.84 84.125 240.244 83.2705 238.838 82.665L236.436 81.6689C233.066 80.1553 231.465 78.0947 231.631 75.4873C231.699 74.2959 232.109 73.2363 232.861 72.3086C233.613 71.3711 234.653 70.6436 235.981 70.126C237.31 69.6084 238.76 69.3594 240.332 69.3789C242.441 69.418 244.136 70.0332 245.415 71.2246C246.704 72.416 247.339 74.0127 247.319 76.0146H242.339C242.368 75.1943 242.192 74.54 241.812 74.0518C241.44 73.5537 240.825 73.2949 239.966 73.2754C239.126 73.2559 238.384 73.4512 237.739 73.8613C237.095 74.2715 236.714 74.8232 236.597 75.5166C236.411 76.4932 237.134 77.2939 238.765 77.9189C240.405 78.5439 241.597 79.0811 242.339 79.5303C244.673 80.9268 245.767 82.8115 245.62 85.1846C245.542 86.415 245.146 87.4941 244.434 88.4219C243.721 89.3496 242.729 90.0674 241.46 90.5752C240.2 91.083 238.784 91.3271 237.212 91.3076C236.06 91.2881 234.99 91.1074 234.004 90.7656C233.018 90.4238 232.173 89.9258 231.47 89.2715C230.044 87.9531 229.36 86.2197 229.419 84.0713L234.443 84.0859C234.385 85.1797 234.595 86.0098 235.073 86.5762C235.552 87.1328 236.357 87.4111 237.49 87.4111C238.33 87.4111 239.028 87.2207 239.585 86.8398C240.151 86.4492 240.498 85.9121 240.625 85.2285Z" fill="#BBBBBB"/>
<path d="M101.572 66.9951H107.856L105.879 78.4209H99.5947L97.2217 92H82.7637L85.1367 78.4209H61.1865L61.9775 68.665L93.3984 28.1475V27.8398L108.34 28.0596L101.572 66.9951ZM76.2158 66.9072L87.1143 66.9951L90.9814 47.1318L76.2158 66.9072ZM116.294 60.5352L125.171 28.0156H161.646L159.8 39.5293H135.322L131.411 52.3174C133.784 50.7939 136.729 50.0029 140.244 49.9443C145.869 49.9443 150.19 51.8926 153.208 55.7891C156.255 59.6855 157.515 64.7832 156.987 71.082C156.46 77.5859 153.926 82.8887 149.385 86.9902C144.844 91.0625 139.351 93.04 132.905 92.9229C129.126 92.835 125.684 91.9561 122.578 90.2861C119.502 88.6162 117.114 86.3457 115.415 83.4746C113.716 80.5742 112.881 77.3369 112.91 73.7627H127.324C127.383 76.0479 127.954 77.8789 129.038 79.2559C130.122 80.6328 131.646 81.3506 133.608 81.4092C136.011 81.4971 138.003 80.6035 139.585 78.7285C141.167 76.8242 142.178 73.9385 142.617 70.0713C142.91 66.8193 142.471 64.3584 141.299 62.6885C140.127 60.9893 138.296 60.1396 135.806 60.1396C132.612 60.1396 130.02 61.2236 128.027 63.3916L116.294 60.5352Z" fill="#EF3829"/>
<path d="M101.572 66.9951L98.6166 66.4814L98.0058 69.9951H101.572V66.9951ZM107.856 66.9951L110.812 67.5067L111.42 63.9951H107.856V66.9951ZM105.879 78.4209V81.4209H108.404L108.835 78.9325L105.879 78.4209ZM99.5947 78.4209V75.4209H97.0735L96.6395 77.9045L99.5947 78.4209ZM97.2217 92V95H99.7429L100.177 92.5164L97.2217 92ZM82.7637 92L79.8085 91.4836L79.1939 95H82.7637V92ZM85.1367 78.4209L88.0919 78.9373L88.7065 75.4209H85.1367V78.4209ZM61.1865 78.4209L58.1963 78.1785L57.9334 81.4209H61.1865V78.4209ZM61.9775 68.665L59.6069 66.8266L59.0595 67.5324L58.9874 68.4226L61.9775 68.665ZM93.3984 28.1475L95.7691 29.9859L96.3984 29.1744V28.1475H93.3984ZM93.3984 27.8398L93.4426 24.8402L90.3984 24.7954V27.8398H93.3984ZM108.34 28.0596L111.296 28.5733L111.897 25.1116L108.384 25.0599L108.34 28.0596ZM76.2158 66.9072L73.812 65.1124L70.2676 69.8594L76.1916 69.9071L76.2158 66.9072ZM87.1143 66.9951L87.0901 69.995L89.5826 70.0151L90.059 67.5684L87.1143 66.9951ZM90.9814 47.1318L93.9262 47.7051L88.5776 45.337L90.9814 47.1318ZM101.572 69.9951H107.856V63.9951H101.572V69.9951ZM104.9 66.4835L102.923 77.9093L108.835 78.9325L110.812 67.5067L104.9 66.4835ZM105.879 75.4209H99.5947V81.4209H105.879V75.4209ZM96.6395 77.9045L94.2665 91.4836L100.177 92.5164L102.55 78.9373L96.6395 77.9045ZM97.2217 89H82.7637V95H97.2217V89ZM85.7189 92.5164L88.0919 78.9373L82.1815 77.9045L79.8085 91.4836L85.7189 92.5164ZM85.1367 75.4209H61.1865V81.4209H85.1367V75.4209ZM64.1767 78.6633L64.9677 68.9075L58.9874 68.4226L58.1963 78.1785L64.1767 78.6633ZM64.3482 70.5035L95.7691 29.9859L91.0278 26.309L59.6069 66.8266L64.3482 70.5035ZM96.3984 28.1475V27.8398H90.3984V28.1475H96.3984ZM93.3543 30.8395L108.296 31.0592L108.384 25.0599L93.4426 24.8402L93.3543 30.8395ZM105.384 27.5458L98.6166 66.4814L104.528 67.5089L111.296 28.5733L105.384 27.5458ZM76.1916 69.9071L87.0901 69.995L87.1385 63.9952L76.24 63.9073L76.1916 69.9071ZM90.059 67.5684L93.9262 47.7051L88.0367 46.5585L84.1695 66.4218L90.059 67.5684ZM88.5776 45.337L73.812 65.1124L78.6197 68.7021L93.3853 48.9267L88.5776 45.337ZM116.294 60.5352L113.4 59.7451L112.588 62.7205L115.584 63.45L116.294 60.5352ZM125.171 28.0156V25.0156H122.88L122.277 27.2256L125.171 28.0156ZM161.646 28.0156L164.608 28.4905L165.165 25.0156H161.646V28.0156ZM159.8 39.5293V42.5293H162.357L162.762 40.0042L159.8 39.5293ZM135.322 39.5293V36.5293H133.103L132.453 38.6519L135.322 39.5293ZM131.411 52.3174L128.542 51.44L126.151 59.2594L133.032 54.8419L131.411 52.3174ZM140.244 49.9443V46.9443H140.219L140.194 46.9448L140.244 49.9443ZM153.208 55.7891L150.836 57.626L150.845 57.637L153.208 55.7891ZM156.987 71.082L153.998 70.8317L153.997 70.8396L156.987 71.082ZM149.385 86.9902L151.388 89.2237L151.396 89.2165L149.385 86.9902ZM132.905 92.9229L132.836 95.922L132.843 95.9222L132.851 95.9224L132.905 92.9229ZM122.578 90.2861L121.147 92.9227L121.157 92.9283L122.578 90.2861ZM115.415 83.4746L112.827 84.9911L112.833 85.0026L115.415 83.4746ZM112.91 73.7627V70.7627H109.935L109.91 73.7381L112.91 73.7627ZM127.324 73.7627L130.323 73.6858L130.248 70.7627H127.324V73.7627ZM133.608 81.4092L133.718 78.4112L133.708 78.4108L133.698 78.4105L133.608 81.4092ZM139.585 78.7285L141.878 80.6631L141.885 80.6544L141.893 80.6456L139.585 78.7285ZM142.617 70.0713L145.598 70.41L145.602 70.3753L145.605 70.3405L142.617 70.0713ZM141.299 62.6885L138.829 64.3917L138.836 64.4017L138.843 64.4118L141.299 62.6885ZM128.027 63.3916L127.318 66.3065L129.038 66.7253L130.236 65.4215L128.027 63.3916ZM119.188 61.3252L128.065 28.8056L122.277 27.2256L113.4 59.7451L119.188 61.3252ZM125.171 31.0156H161.646V25.0156H125.171V31.0156ZM158.683 27.5408L156.838 39.0544L162.762 40.0042L164.608 28.4905L158.683 27.5408ZM159.8 36.5293H135.322V42.5293H159.8V36.5293ZM132.453 38.6519L128.542 51.44L134.28 53.1948L138.191 40.4067L132.453 38.6519ZM133.032 54.8419C134.832 53.686 137.199 52.9955 140.294 52.9439L140.194 46.9448C136.258 47.0104 132.736 47.9019 129.79 49.7928L133.032 54.8419ZM140.244 52.9443C145.09 52.9443 148.472 54.5733 150.836 57.6259L155.58 53.9522C151.909 49.2118 146.648 46.9443 140.244 46.9443V52.9443ZM150.845 57.637C153.307 60.7862 154.48 65.0693 153.998 70.8317L159.977 71.3323C160.549 64.4971 159.203 58.5849 155.571 53.9411L150.845 57.637ZM153.997 70.8396C153.527 76.6371 151.308 81.2109 147.374 84.7639L151.396 89.2165C156.544 84.5665 159.393 78.5348 159.977 71.3245L153.997 70.8396ZM147.382 84.7568C143.44 88.2921 138.695 90.0276 132.96 89.9233L132.851 95.9224C140.007 96.0525 146.248 93.8329 151.388 89.2237L147.382 84.7568ZM132.975 89.9237C129.633 89.8459 126.659 89.0742 123.999 87.6439L121.157 92.9283C124.708 94.8379 128.619 95.824 132.836 95.922L132.975 89.9237ZM124.009 87.6496C121.385 86.2251 119.406 84.3276 117.997 81.9466L112.833 85.0026C114.823 88.3638 117.618 91.0073 121.147 92.9227L124.009 87.6496ZM118.004 81.9581C116.595 79.5547 115.885 76.8557 115.91 73.7873L109.91 73.7381C109.877 77.8181 110.836 81.5937 112.827 84.9911L118.004 81.9581ZM112.91 76.7627H127.324V70.7627H112.91V76.7627ZM124.325 73.8396C124.395 76.5745 125.09 79.0908 126.681 81.1115L131.395 77.4002C130.818 76.667 130.37 75.5212 130.323 73.6858L124.325 73.8396ZM126.681 81.1115C128.385 83.2759 130.789 84.3263 133.519 84.4078L133.698 78.4105C132.502 78.3748 131.859 77.9897 131.395 77.4002L126.681 81.1115ZM133.499 84.4072C136.845 84.5296 139.715 83.2262 141.878 80.6631L137.292 76.7939C136.291 77.9809 135.177 78.4646 133.718 78.4112L133.499 84.4072ZM141.893 80.6456C144.005 78.1029 145.127 74.5524 145.598 70.41L139.636 69.7326C139.228 73.3246 138.329 75.5456 137.277 76.8115L141.893 80.6456ZM145.605 70.3405C145.926 66.7808 145.516 63.4753 143.754 60.9652L138.843 64.4118C139.425 65.2415 139.895 66.8579 139.629 69.8021L145.605 70.3405ZM143.768 60.9853C141.917 58.3001 139.05 57.1396 135.806 57.1396V63.1396C137.542 63.1396 138.337 63.6784 138.829 64.3917L143.768 60.9853ZM135.806 57.1396C131.852 57.1396 128.43 58.5193 125.818 61.3617L130.236 65.4215C131.609 63.9279 133.373 63.1396 135.806 63.1396V57.1396ZM128.737 60.4767L117.004 57.6203L115.584 63.45L127.318 66.3065L128.737 60.4767Z" fill="#EF3829"/>
<g clip-path="url(#clip2)">
<path d="M64.0955 11.9973C63.8325 12.1814 63.5958 12.4181 63.4117 12.6811C63.2802 12.8652 60.9396 16.7574 60.9396 16.7574C59.1513 19.7292 56.8107 22.2538 54.0231 24.2788L52.6555 25.2782C49.8153 27.3558 49.1578 31.3269 51.1828 34.1409C52.1822 35.5084 53.6549 36.4025 55.3117 36.6918C56.2322 36.8496 57.1789 36.7707 58.0468 36.534L59.8877 39.085C59.9929 39.2165 60.1244 39.2954 60.2822 39.3217C60.4137 39.348 60.5714 39.3217 60.7029 39.2428L63.3065 42.8194C63.7799 43.4769 64.49 43.8977 65.2526 44.0029C66.0153 44.1344 66.8042 43.9503 67.4617 43.4769C68.7766 42.5038 69.0922 40.6366 68.1192 39.3217L65.5156 35.7188L65.989 35.3769C66.1205 35.2717 66.1994 35.1402 66.2257 34.9824C66.252 34.8246 66.1994 34.6668 66.1205 34.5353L64.6478 32.5366C66.5676 31.5373 68.5926 30.7746 70.7228 30.2749C70.7228 30.2749 75.1672 29.2493 75.5091 29.1178C75.8773 28.9863 76.2192 28.7233 76.2192 28.7233C78.7965 26.9876 78.0601 21.7805 74.6413 17.0993C71.275 12.3655 66.6202 10.1564 64.0955 11.9973ZM59.2039 36.0607C59.4932 35.9029 59.7562 35.7451 60.0192 35.561L61.4656 34.509C61.676 34.3512 61.9127 34.1935 62.1231 34.0357L63.3854 35.7714L60.5189 37.849L59.2039 36.0607ZM64.2796 42.0831L61.676 38.5064L63.0435 37.5071L65.6471 41.0837C65.9364 41.4782 66.0416 41.9253 65.9627 42.3986C65.9101 42.6353 65.6734 42.8194 65.4367 42.7668C64.9896 42.7142 64.5689 42.4775 64.2796 42.0831ZM67.1461 39.9792C67.5932 40.584 67.5932 41.3993 67.1724 42.0042C67.1461 41.4256 66.962 40.847 66.5939 40.3736L63.9903 36.797L64.5163 36.4025L67.1461 39.9792ZM64.8055 34.7457L64.3585 35.0876L63.1224 33.4045C63.2802 33.2993 63.438 33.2204 63.5958 33.1152L64.8055 34.7457ZM70.4861 29.0652C66.962 29.9068 63.701 31.4058 60.7555 33.536L59.3091 34.5879C58.2046 35.4032 56.8633 35.7188 55.4958 35.5084C54.1546 35.298 52.9448 34.5616 52.1559 33.4571C50.5253 31.1691 51.0513 27.9344 53.3656 26.2512L54.7331 25.2519C57.6523 23.1217 60.0981 20.4655 61.9653 17.3623L62.6227 16.284C62.8068 18.4668 63.8588 21.0967 65.6734 23.5951C67.2513 25.7779 69.1974 27.5136 71.1172 28.4866C71.3013 28.5918 71.5117 28.6707 71.6958 28.7496L70.4861 29.0652ZM67.2513 19.1506C67.2513 19.1769 67.2513 19.2032 67.2513 19.2558C67.3828 20.0447 67.751 20.8863 68.3296 21.6753C68.9607 22.5431 69.6971 23.148 70.3809 23.4899L68.3822 24.9626C67.7773 24.3577 67.1987 23.6477 66.6465 22.9113C66.0942 22.1749 65.6208 21.386 65.2263 20.6233L67.2513 19.1506ZM71.7747 22.5168C71.4328 22.7798 70.2757 22.2801 69.3289 20.9915C68.8818 20.3603 68.5663 19.6766 68.4611 19.098C68.3822 18.6772 68.4611 18.309 68.6189 18.2038C68.6978 18.1512 68.8292 18.1249 68.987 18.1512C69.1448 18.1775 69.3289 18.2301 69.513 18.3353C70.039 18.5983 70.6176 19.1243 71.0646 19.7292C72.0114 21.0178 72.1166 22.2538 71.7747 22.5168ZM75.5617 27.724C75.4039 27.8292 75.325 27.8818 75.062 27.987C74.7991 28.0659 74.5624 28.1184 74.5624 28.1184C73.7471 28.2236 72.7478 28.0133 71.6432 27.461C70.8542 27.0665 70.039 26.5142 69.2763 25.8305L72.4585 23.5162C73.5104 22.7535 73.3263 20.8337 72.0114 19.0191C71.4328 18.2301 70.7491 17.599 70.039 17.2571C69.1974 16.8363 68.4348 16.8363 67.8825 17.2308L64.7003 19.5451C64.3059 18.5983 64.0166 17.6779 63.8851 16.7837C63.701 15.574 63.7799 14.5483 64.1481 13.8119C64.1481 13.8119 64.2533 13.5753 64.3848 13.4175C64.49 13.286 64.6478 13.1019 64.8055 12.9967C65.3315 12.6022 66.0153 12.497 66.8042 12.6285C68.8818 12.9441 71.5906 14.9165 73.6945 17.8094C76.6137 21.7805 77.4552 26.3301 75.5617 27.724Z" fill="#FFDFFF"/>
<path d="M84.3718 21.9914L78.928 21.1235C78.6124 21.071 78.2968 21.3076 78.2442 21.6232C78.1916 21.9651 78.4283 22.2544 78.7439 22.307L84.1877 23.1749C84.5296 23.2274 84.8189 22.9908 84.8715 22.6752C84.9241 22.3596 84.7137 22.044 84.3718 21.9914Z" fill="#FFDFFF"/>
<path d="M76.8503 18.2819C76.9292 18.5186 77.1133 18.6764 77.3237 18.7027C77.4026 18.729 77.5078 18.7027 77.5867 18.6764L84.0562 16.8092C84.3717 16.7303 84.5558 16.3884 84.4769 16.0728C84.3717 15.7572 84.0562 15.5731 83.7406 15.652L77.2711 17.5192C76.9292 17.6244 76.7451 17.94 76.8503 18.2819Z" fill="#FFDFFF"/>
<path d="M75.0883 15.6793C75.1935 15.7845 75.325 15.8634 75.4565 15.8897C75.6143 15.916 75.7984 15.8634 75.9562 15.7582L81.2685 11.1296C81.5315 10.9193 81.5578 10.5248 81.3211 10.2881C81.1107 10.0251 80.7162 9.9988 80.4795 10.2355L75.1409 14.8378C74.9042 15.0482 74.8779 15.4163 75.0883 15.6793Z" fill="#FFDFFF"/>
<path d="M72.8529 13.3654C72.9055 13.3917 72.9581 13.3917 73.0107 13.418C73.2737 13.4706 73.5367 13.3128 73.6682 13.0761L76.2981 7.15892C76.4296 6.84333 76.2981 6.50145 75.9825 6.36995C75.6669 6.23846 75.325 6.36995 75.1935 6.68554L72.5637 12.6028C72.4322 12.8657 72.5637 13.2076 72.8529 13.3654Z" fill="#FFDFFF"/>
<path d="M63.0963 11.7068C62.8333 11.8909 62.5966 12.1276 62.4125 12.3906C62.281 12.5747 59.9405 16.4669 59.9405 16.4669C58.1521 19.4387 55.8116 21.9633 53.0239 23.9883L51.6564 24.9877C48.8161 27.0653 48.1586 31.0364 50.1836 33.8504C51.183 35.2179 52.6557 36.112 54.3125 36.4013C55.233 36.5591 56.1797 36.4802 57.0476 36.2435L58.8885 38.7945C58.9937 38.926 59.1252 39.0049 59.283 39.0312C59.4145 39.0575 59.5723 39.0312 59.7038 38.9523L62.3073 42.5289C62.7807 43.1864 63.4908 43.6072 64.2534 43.7124C65.0161 43.8439 65.8051 43.6598 66.4625 43.1864C67.7775 42.2133 68.0931 40.3461 67.12 39.0312L64.5164 35.4283L64.9898 35.0864C65.1213 34.9812 65.2002 34.8497 65.2265 34.6919C65.2528 34.5341 65.2002 34.3763 65.1213 34.2448L63.6486 32.2461C65.5684 31.2468 67.5934 30.4841 69.7236 29.9844C69.7236 29.9844 74.1681 28.9588 74.5099 28.8273C74.8781 28.6958 75.22 28.4328 75.22 28.4328C77.7973 26.6971 77.0609 21.49 73.6421 16.8088C70.2758 12.1013 65.621 9.86592 63.0963 11.7068ZM58.2047 35.7702C58.494 35.6124 58.757 35.4546 59.02 35.2705L60.4664 34.2185C60.6768 34.0607 60.9135 33.903 61.1239 33.7452L62.3862 35.4809L59.5197 37.5848L58.2047 35.7702ZM63.2804 41.7926L60.6768 38.2159L62.0444 37.2166L64.6479 40.7932C64.9372 41.1877 65.0424 41.6348 64.9635 42.1082C64.9109 42.3448 64.6742 42.5289 64.4375 42.4763C63.9905 42.4237 63.5697 42.187 63.2804 41.7926ZM66.147 39.715C66.594 40.3198 66.594 41.1351 66.1733 41.74C66.147 41.1614 65.9629 40.5828 65.5947 40.1094L62.9911 36.5328L63.5171 36.1383L66.147 39.715ZM63.8064 34.4552L63.3593 34.7971L62.1232 33.114C62.281 33.0088 62.4388 32.9299 62.5966 32.8247L63.8064 34.4552ZM69.4869 28.801C65.9629 29.6426 62.7018 31.1416 59.7564 33.2718L58.3099 34.3237C57.2054 35.139 55.8642 35.4546 54.4966 35.2442C53.1554 35.0338 51.9456 34.2974 51.1567 33.1929C49.4999 30.8786 50.0521 27.6702 52.3664 25.987L53.734 24.9877C56.6531 22.8575 59.0989 20.2013 60.9661 17.0981L61.6236 16.0198C61.8077 18.2026 62.8596 20.8325 64.6742 23.3309C66.2521 25.5137 68.1983 27.2494 70.1181 28.2224C70.3021 28.3276 70.5125 28.4065 70.6966 28.4854L69.4869 28.801ZM66.2521 18.8864C66.2521 18.9127 66.2521 18.939 66.2521 18.9916C66.3836 19.7805 66.7518 20.6221 67.3304 21.4111C67.9616 22.2789 68.6979 22.8838 69.3817 23.2257L67.383 24.6984C66.7781 24.0935 66.1996 23.3835 65.6473 22.6471C65.095 21.9107 64.6216 21.1218 64.2271 20.3591L66.2521 18.8864ZM70.7492 22.2263C70.4073 22.4893 69.2502 21.9896 68.3034 20.701C67.8564 20.0698 67.5408 19.3861 67.4356 18.8075C67.3567 18.3867 67.4356 18.0185 67.5934 17.9133C67.6723 17.8607 67.8038 17.8344 67.9616 17.8607C68.1194 17.887 68.3034 17.9396 68.4875 18.0448C69.0135 18.3078 69.5921 18.8338 70.0392 19.4387C71.0122 20.7273 71.1174 21.9896 70.7492 22.2263ZM74.5625 27.4335C74.4047 27.5387 74.3259 27.5913 74.0629 27.6965C73.7999 27.7753 73.5632 27.8279 73.5632 27.8279C72.7479 27.9331 71.7486 27.7228 70.644 27.1705C69.8551 26.776 69.0398 26.2237 68.2771 25.54L71.4593 23.2257C72.5112 22.463 72.3271 20.5432 71.0122 18.7286C70.4336 17.9396 69.7499 17.3085 69.0398 16.9666C68.2245 16.5195 67.4619 16.5195 66.8833 16.914L63.7012 19.2283C63.3067 18.2815 63.0174 17.3611 62.8859 16.4669C62.7018 15.2572 62.7807 14.2315 63.1489 13.4951C63.1489 13.4951 63.2541 13.2585 63.3856 13.1007C63.4908 12.9692 63.6486 12.7851 63.8064 12.6799C64.3323 12.2854 65.0161 12.1802 65.8051 12.3117C67.8827 12.6273 70.5914 14.5997 72.6953 17.4926C75.6145 21.49 76.456 26.0396 74.5625 27.4335Z" fill="#954EDE"/>
<path d="M83.3728 21.7268L77.9289 20.8589C77.6133 20.8063 77.2978 21.043 77.2452 21.3586C77.1926 21.7005 77.4293 21.9897 77.7448 22.0423L83.1887 22.9102C83.5306 22.9628 83.8198 22.7261 83.8724 22.4105C83.925 22.0686 83.7146 21.7794 83.3728 21.7268Z" fill="#954EDE"/>
<path d="M75.8513 17.9938C75.9302 18.2305 76.1143 18.3883 76.3247 18.4146C76.4036 18.4409 76.5087 18.4146 76.5876 18.3883L83.0571 16.5211C83.3727 16.4422 83.5568 16.1003 83.4779 15.7847C83.3727 15.4691 83.0571 15.285 82.7415 15.3639L76.2721 17.2311C75.9302 17.3363 75.7461 17.6782 75.8513 17.9938Z" fill="#954EDE"/>
<path d="M74.0893 15.4157C74.1945 15.5208 74.326 15.5997 74.4575 15.626C74.6153 15.6523 74.7994 15.5997 74.9572 15.4945L80.2695 10.866C80.5325 10.6556 80.5588 10.2611 80.3221 10.0244C80.1117 9.76143 79.7173 9.73513 79.4806 9.97182L74.1419 14.5478C73.8789 14.7845 73.8527 15.1527 74.0893 15.4157Z" fill="#954EDE"/>
<path d="M71.8538 13.0744C71.9064 13.1007 71.959 13.1007 72.0116 13.127C72.2746 13.1796 72.5375 13.0218 72.669 12.7851L75.2989 6.8679C75.4304 6.55232 75.2989 6.21043 74.9833 6.07894C74.6677 5.94744 74.3259 6.07894 74.1944 6.39452L71.5645 12.3117C71.4067 12.5747 71.5645 12.9429 71.8538 13.0744Z" fill="#954EDE"/>
</g>
<path d="M89.0282 15.6708C89.9539 15.914 90.6481 16.3843 91.378 17.2114C92.0366 17.9736 92.3926 18.9466 92.357 19.9196V19.9358V19.9521C92.357 19.9521 92.357 19.9683 92.3748 19.9683C92.3748 19.9683 92.3748 19.9845 92.3926 19.9845L92.4104 20.0007C92.4104 20.0007 92.4282 20.0007 92.4282 20.0169H92.446H92.4638C92.5172 20.0169 92.5528 19.9845 92.5528 19.9358C92.5528 19.9358 92.5528 19.9358 92.5528 19.9196C92.5172 18.9628 92.8732 17.9736 93.5319 17.2114C94.2439 16.3681 94.9559 15.914 95.8816 15.6708C95.935 15.6545 95.9528 15.6221 95.9528 15.5735C95.9528 15.5248 95.9172 15.4924 95.8816 15.4924C94.9381 15.2816 94.3685 14.7788 93.7633 14.195C93.1758 13.6274 92.7664 12.8814 92.5706 11.9571C92.5706 11.9571 92.5706 11.9571 92.5706 11.9408C92.5706 11.9246 92.5706 11.9246 92.5528 11.9246C92.5528 11.9246 92.5528 11.9246 92.5528 11.9084L92.535 11.8922C92.535 11.8922 92.535 11.8922 92.5172 11.8922C92.5172 11.8922 92.4994 11.8922 92.4994 11.876H92.4816H92.4638C92.4638 11.876 92.446 11.876 92.446 11.8922C92.446 11.8922 92.446 11.8922 92.4282 11.8922L92.4104 11.9084C92.4104 11.9084 92.4104 11.9084 92.4104 11.9246C92.4104 11.9246 92.4104 11.9408 92.3926 11.9408C92.3926 11.9408 92.3926 11.9408 92.3926 11.9571C92.1968 12.8814 91.7874 13.6436 91.1999 14.195C90.5591 14.7788 89.9717 15.2816 89.0282 15.4924C88.9926 15.4924 88.957 15.5248 88.957 15.5735C88.957 15.6221 88.9926 15.6545 89.0282 15.6708Z" fill="#954EDE"/>
<g clip-path="url(#clip3)">
<path d="M178.631 60.5807C179.299 61.1345 179.69 61.7864 179.974 62.7452C180.224 63.6234 180.144 64.5592 179.743 65.3453L179.737 65.3586L179.731 65.372C179.731 65.372 179.724 65.3853 179.739 65.3921C179.739 65.3921 179.733 65.4054 179.747 65.4122L179.756 65.4324C179.756 65.4324 179.77 65.4392 179.764 65.4525L179.779 65.4593L179.794 65.4661C179.837 65.4865 179.879 65.4735 179.898 65.4335C179.898 65.4335 179.898 65.4335 179.904 65.4202C180.24 64.6202 180.911 63.9432 181.744 63.5686C182.651 63.1477 183.41 63.0467 184.264 63.2007C184.314 63.2077 184.341 63.1879 184.36 63.1479C184.378 63.1079 184.361 63.0677 184.332 63.054C183.637 62.5201 183.361 61.8891 183.087 61.1779C182.821 60.4869 182.77 59.7172 182.963 58.8827C182.963 58.8827 182.963 58.8827 182.969 58.8693C182.975 58.856 182.975 58.856 182.96 58.8492C182.96 58.8492 182.96 58.8492 182.967 58.8359L182.958 58.8157C182.958 58.8157 182.958 58.8157 182.943 58.8089C182.943 58.8089 182.929 58.8021 182.935 58.7888L182.92 58.782L182.906 58.7752C182.906 58.7752 182.891 58.7684 182.885 58.7817C182.885 58.7817 182.885 58.7817 182.87 58.7749L182.849 58.7814C182.849 58.7814 182.849 58.7814 182.843 58.7948C182.843 58.7948 182.837 58.8081 182.822 58.8013C182.822 58.8013 182.822 58.8013 182.816 58.8146C182.302 59.4995 181.674 59.9694 180.98 60.198C180.231 60.4328 179.556 60.6215 178.7 60.434C178.67 60.4204 178.629 60.4335 178.61 60.4735C178.591 60.5135 178.608 60.5537 178.631 60.5807Z" fill="#FFB8DC"/>
</g>
<path d="M168.123 52.018C168.374 52.2515 168.618 52.4339 168.857 52.5809C168.59 52.6668 168.31 52.7858 168.009 52.9526C166.253 53.9284 166.083 56.7826 166.076 56.9037C166.072 56.9899 166.091 57.0757 166.133 57.1512C166.535 57.8737 167.275 58.2548 168.097 58.3482C168.934 58.4433 169.855 58.2403 170.689 57.7766C170.989 57.6101 171.238 57.4344 171.451 57.253C171.451 57.5329 171.477 57.8366 171.543 58.1737C171.824 59.6118 173.442 60.7483 174.703 61.2331C174.784 61.2641 174.872 61.2718 174.956 61.2552C175.709 61.1082 176.329 60.5762 176.702 59.7574C177.051 58.9909 177.142 58.0527 176.959 57.1155C176.893 56.7752 176.801 56.4814 176.693 56.2201C176.937 56.2952 177.212 56.3549 177.531 56.3937C179.522 56.6363 181.364 54.4438 181.441 54.3504C181.498 54.2825 181.533 54.2 181.544 54.1126C181.637 53.3515 181.317 52.595 180.644 51.9824C180.015 51.4101 179.146 51.0314 178.198 50.9158C177.895 50.879 177.622 50.8722 177.371 50.8868C177.526 50.6694 177.674 50.4198 177.811 50.1253C178.658 48.3036 177.118 45.8943 177.052 45.7926C177.005 45.7201 176.939 45.6624 176.86 45.6259C176.165 45.3025 175.351 45.3686 174.568 45.8119C173.835 46.2268 173.21 46.9321 172.807 47.7979C172.675 48.0824 172.581 48.3481 172.516 48.5998C172.38 48.4166 172.215 48.2292 172.008 48.0364C170.537 46.6675 167.77 47.3875 167.652 47.4188C167.569 47.4411 167.494 47.4865 167.435 47.5497C166.364 48.6997 166.667 50.6624 168.123 52.018V52.018ZM170.243 56.9725C169.574 57.3439 168.849 57.508 168.201 57.4343C167.665 57.3734 167.245 57.154 167.005 56.8121C167.075 56.0385 167.431 54.326 168.456 53.7566C169.22 53.3319 169.785 53.2897 170.589 53.2603C171.242 53.4509 171.874 53.6674 172.634 54.3351C171.648 55.3528 171.533 56.2558 170.243 56.9725ZM173.046 52.6279C173.297 52.6557 173.53 52.6678 173.748 52.6672C173.799 52.9146 173.859 53.1406 173.927 53.3484C173.708 53.4733 173.512 53.6003 173.335 53.7286C173.149 53.5588 172.967 53.4116 172.791 53.2833C172.894 53.0535 172.978 52.8355 173.046 52.6279V52.6279ZM175.865 59.3762C175.641 59.8676 175.303 60.1986 174.903 60.3217C174.189 60.0161 172.671 59.1479 172.446 57.9973C172.269 57.0924 172.437 56.5043 172.631 55.8233L172.633 55.8152C173.016 55.2536 173.417 54.7189 174.287 54.2028C174.949 55.4535 175.773 55.843 176.056 57.2919C176.203 58.0425 176.135 58.7827 175.865 59.3762ZM178.087 51.8288C178.836 51.9201 179.543 52.2241 180.025 52.6627C180.428 53.0301 180.643 53.454 180.639 53.8696C180.276 54.2679 178.925 55.637 177.642 55.4808C176.765 55.374 176.34 55.0963 175.694 54.6613C175.278 54.1223 174.892 53.574 174.67 52.583C176.065 52.3241 176.63 51.6514 178.087 51.8288V51.8288ZM175.021 46.6122C175.491 46.3462 175.959 46.2772 176.355 46.4125C176.753 47.0794 177.471 48.6743 176.977 49.7374C176.603 50.5414 176.143 50.9212 175.613 51.3376C174.953 51.5902 174.318 51.823 173.257 51.725C173.456 50.3237 173.018 49.5245 173.641 48.1858C173.963 47.4924 174.454 46.9336 175.021 46.6122V46.6122ZM168.025 48.274C168.782 48.1014 170.522 47.9105 171.381 48.7097C172.042 49.3252 172.133 49.8138 172.387 50.5258C172.408 51.2057 172.398 51.8744 171.997 52.8038C170.729 52.1831 169.828 52.3478 168.75 51.3447C167.896 50.5499 167.328 49.1794 168.025 48.274Z" fill="#FFDFFF"/>
<g clip-path="url(#clip4)">
<path d="M167.381 51.8393C167.632 52.0728 167.876 52.2552 168.115 52.4022C167.848 52.4881 167.568 52.6071 167.267 52.7739C165.511 53.7497 165.341 56.6039 165.334 56.7249C165.33 56.8112 165.35 56.897 165.391 56.9725C165.793 57.695 166.533 58.0761 167.355 58.1695C168.192 58.2646 169.113 58.0616 169.947 57.5979C170.247 57.4314 170.496 57.2557 170.709 57.0743C170.709 57.3542 170.735 57.6578 170.801 57.995C171.082 59.4331 172.7 60.5696 173.961 61.0544C174.042 61.0854 174.13 61.0931 174.215 61.0765C174.967 60.9295 175.587 60.3975 175.96 59.5787C176.309 58.8122 176.4 57.874 176.217 56.9368C176.151 56.5965 176.059 56.3027 175.951 56.0414C176.195 56.1165 176.47 56.1762 176.789 56.215C178.78 56.4575 180.622 54.2651 180.7 54.1717C180.756 54.1038 180.791 54.0213 180.802 53.9338C180.895 53.1728 180.575 52.4163 179.902 51.8037C179.273 51.2314 178.404 50.8527 177.456 50.7371C177.153 50.7003 176.88 50.6935 176.629 50.7081C176.784 50.4907 176.932 50.241 177.069 49.9466C177.916 48.1248 176.376 45.7156 176.31 45.6139C176.263 45.5414 176.197 45.4837 176.118 45.4472C175.423 45.1238 174.609 45.1899 173.826 45.6332C173.093 46.0481 172.468 46.7534 172.065 47.6192C171.933 47.9037 171.839 48.1693 171.774 48.421C171.638 48.2379 171.473 48.0505 171.266 47.8577C169.795 46.4888 167.028 47.2088 166.911 47.2401C166.827 47.2624 166.752 47.3078 166.693 47.371C165.622 48.521 165.925 50.4837 167.381 51.8393V51.8393ZM169.501 56.7938C168.832 57.1652 168.107 57.3292 167.459 57.2556C166.923 57.1946 166.503 56.9753 166.263 56.6334C166.333 55.8598 166.689 54.1472 167.714 53.5779C168.479 53.1532 169.043 53.111 169.847 53.0816C170.5 53.2722 171.132 53.4887 171.892 54.1564C170.906 55.1741 170.791 56.0771 169.501 56.7938ZM172.304 52.4492C172.555 52.477 172.788 52.4891 173.006 52.4885C173.057 52.7359 173.117 52.9618 173.185 53.1697C172.966 53.2946 172.77 53.4216 172.593 53.5499C172.407 53.3801 172.225 53.2329 172.049 53.1046C172.153 52.8748 172.236 52.6568 172.304 52.4492V52.4492ZM175.123 59.1975C174.899 59.6889 174.561 60.0199 174.161 60.1429C173.447 59.8374 171.929 58.9692 171.704 57.8186C171.527 56.9137 171.695 56.3256 171.889 55.6446L171.891 55.6365C172.274 55.0749 172.675 54.5402 173.545 54.0241C174.208 55.2748 175.031 55.6643 175.314 57.1132C175.461 57.8637 175.393 58.604 175.123 59.1975ZM177.345 51.6501C178.094 51.7414 178.801 52.0454 179.283 52.484C179.687 52.8514 179.901 53.2753 179.897 53.6909C179.534 54.0891 178.183 55.4583 176.9 55.302C176.023 55.1953 175.598 54.9176 174.953 54.4825C174.536 53.9436 174.15 53.3953 173.928 52.4043C175.323 52.1454 175.888 51.4727 177.345 51.6501V51.6501ZM174.279 46.4335C174.749 46.1675 175.217 46.0984 175.613 46.2338C176.011 46.9007 176.729 48.4956 176.235 49.5587C175.861 50.3627 175.401 50.7424 174.871 51.1589C174.211 51.4115 173.576 51.6443 172.515 51.5463C172.714 50.145 172.276 49.3458 172.899 48.0071C173.222 47.3137 173.712 46.7548 174.279 46.4335V46.4335ZM167.283 48.0953C168.04 47.9227 169.78 47.7318 170.639 48.531C171.3 49.1465 171.391 49.6351 171.645 50.3471C171.666 51.027 171.656 51.6957 171.255 52.6251C169.987 52.0044 169.086 52.1691 168.008 51.166C167.154 50.3711 166.586 49.0007 167.283 48.0953Z" fill="#954EDE"/>
</g>
<g clip-path="url(#clip5)">
<path d="M32.4255 95.8004C33.3911 96.0542 34.1154 96.5448 34.8767 97.4075C35.5638 98.2026 35.9352 99.2177 35.898 100.233V100.25V100.267C35.898 100.267 35.898 100.283 35.9166 100.283C35.9166 100.283 35.9166 100.3 35.9352 100.3L35.9537 100.317C35.9537 100.317 35.9723 100.317 35.9723 100.334H35.9909H36.0094C36.0651 100.334 36.1023 100.3 36.1023 100.25C36.1023 100.25 36.1023 100.25 36.1023 100.233C36.0651 99.2346 36.4365 98.2026 37.1236 97.4075C37.8664 96.5278 38.6091 96.0542 39.5748 95.8004C39.6305 95.7835 39.649 95.7497 39.649 95.6989C39.649 95.6482 39.6119 95.6143 39.5748 95.6143C38.5906 95.3944 37.9964 94.87 37.365 94.261C36.7522 93.6688 36.3251 92.8907 36.1208 91.9264C36.1208 91.9264 36.1208 91.9264 36.1208 91.9095C36.1208 91.8925 36.1208 91.8925 36.1023 91.8925C36.1023 91.8925 36.1023 91.8925 36.1023 91.8756L36.0837 91.8587C36.0837 91.8587 36.0837 91.8587 36.0651 91.8587C36.0651 91.8587 36.0466 91.8587 36.0466 91.8418H36.028H36.0094C36.0094 91.8418 35.9909 91.8418 35.9909 91.8587C35.9909 91.8587 35.9909 91.8587 35.9723 91.8587L35.9537 91.8756C35.9537 91.8756 35.9537 91.8756 35.9537 91.8925C35.9537 91.8925 35.9537 91.9095 35.9352 91.9095C35.9352 91.9095 35.9352 91.9095 35.9352 91.9264C35.7309 92.8907 35.3038 93.6858 34.691 94.261C34.0225 94.87 33.4097 95.3944 32.4255 95.6143C32.3884 95.6143 32.3513 95.6482 32.3513 95.6989C32.3513 95.7497 32.3884 95.7835 32.4255 95.8004Z" fill="#954EDE"/>
</g>
<path d="M43.1112 60.9243C44.5562 61.304 45.6401 62.0382 46.7795 63.3294C47.8077 64.5193 48.3635 66.0384 48.3079 67.5574V67.5828V67.6081C48.3079 67.6081 48.3079 67.6334 48.3357 67.6334C48.3357 67.6334 48.3357 67.6587 48.3635 67.6587L48.3913 67.684C48.3913 67.684 48.4191 67.684 48.4191 67.7093H48.4469H48.4746C48.558 67.7093 48.6136 67.6587 48.6136 67.5828C48.6136 67.5828 48.6136 67.5828 48.6136 67.5574C48.558 66.0637 49.1138 64.5193 50.1421 63.3294C51.2537 62.0129 52.3653 61.304 53.8103 60.9243C53.8937 60.899 53.9215 60.8483 53.9215 60.7724C53.9215 60.6964 53.8659 60.6458 53.8103 60.6458C52.3375 60.3167 51.4482 59.5318 50.5033 58.6204C49.5863 57.7343 48.9471 56.5697 48.6414 55.1266C48.6414 55.1266 48.6414 55.1266 48.6414 55.1013C48.6414 55.076 48.6414 55.076 48.6136 55.076C48.6136 55.076 48.6136 55.076 48.6136 55.0506L48.5858 55.0253C48.5858 55.0253 48.5858 55.0253 48.558 55.0253C48.558 55.0253 48.5302 55.0253 48.5302 55H48.5024H48.4746C48.4746 55 48.4469 55 48.4469 55.0253C48.4469 55.0253 48.4469 55.0253 48.4191 55.0253L48.3913 55.0506C48.3913 55.0506 48.3913 55.0506 48.3913 55.076C48.3913 55.076 48.3913 55.1013 48.3635 55.1013C48.3635 55.1013 48.3635 55.1013 48.3635 55.1266C48.0578 56.5697 47.4186 57.7596 46.5016 58.6204C45.5011 59.5318 44.584 60.3167 43.1112 60.6458C43.0556 60.6458 43 60.6964 43 60.7724C43 60.8483 43.0556 60.899 43.1112 60.9243Z" fill="#FFB8DC"/>
<path d="M28.8139 80.6356C29.1202 80.7351 29.4003 80.7938 29.6618 80.8246C29.4689 81.0033 29.277 81.2159 29.0873 81.477C27.9776 83.0043 28.9635 85.5035 29.006 85.6092C29.0363 85.6845 29.0872 85.7497 29.1529 85.7974C29.7812 86.2539 30.5628 86.2852 31.3004 86.039C32.051 85.7883 32.7548 85.2506 33.2821 84.5247C33.4714 84.2642 33.6138 84.0159 33.7238 83.7768C33.8343 84.0154 33.9771 84.2636 34.1668 84.5247C34.9761 85.6386 36.8045 85.9659 38.0716 85.8789C38.1526 85.8734 38.2304 85.8452 38.296 85.7974C38.8789 85.3739 39.1962 84.6751 39.1894 83.8297C39.183 83.0384 38.889 82.2029 38.3617 81.477C38.1702 81.2135 37.9758 80.9994 37.7801 80.8196C38.0181 80.7867 38.2758 80.7287 38.5625 80.6356C40.3551 80.0531 41.0558 77.4553 41.0847 77.345C41.1057 77.2649 41.1033 77.1805 41.0777 77.1018C40.8551 76.4166 40.2829 75.8988 39.4666 75.6437C38.7039 75.4054 37.8139 75.4269 36.9602 75.7043C36.6878 75.7928 36.4525 75.8952 36.2441 76.0073C36.2901 75.7606 36.317 75.4894 36.317 75.1843C36.317 73.2964 34.0505 71.854 33.954 71.7935C33.8852 71.7504 33.8057 71.7275 33.7245 71.7275C33.004 71.7275 32.3366 72.1064 31.8452 72.7944C31.3853 73.4383 31.132 74.287 31.132 75.1843C31.132 75.479 31.1577 75.7424 31.2015 75.9828C31.0135 75.8805 30.7982 75.7864 30.5453 75.7043C28.7497 75.1209 26.6776 76.8308 26.5903 76.9039C26.528 76.956 26.4817 77.0246 26.4566 77.1018C26.0005 78.5056 27.0359 80.0579 28.8139 80.6356V80.6356ZM32.583 84.0167C32.1606 84.5981 31.6079 85.0252 31.0267 85.2192C30.5455 85.3798 30.1013 85.3592 29.761 85.1631C29.514 84.4763 29.139 82.8761 29.7865 81.9849C30.2694 81.3202 30.7336 81.0605 31.407 80.7168C32.0385 80.6206 32.6632 80.5544 33.575 80.8222C33.1384 82.0799 33.398 82.895 32.583 84.0167ZM33.2495 79.2045C33.4745 79.1286 33.678 79.0466 33.8631 78.9598C34.0046 79.1503 34.1456 79.3189 34.2854 79.4693C34.1483 79.6625 34.0316 79.8484 33.932 80.0277C33.7058 79.9569 33.493 79.9034 33.2917 79.864C33.2891 79.6271 33.2743 79.4081 33.2495 79.2045V79.2045ZM38.3252 83.8367C38.3293 84.344 38.1723 84.7601 37.8807 85.0232C37.1513 85.0458 35.5134 84.908 34.8659 84.0168C34.3567 83.3159 34.2664 82.7485 34.1619 82.0914L34.1607 82.0836C34.2643 81.4534 34.3944 80.8388 34.9309 80.0544C35.991 80.8574 36.8472 80.8628 37.6625 81.985C38.0849 82.5663 38.3202 83.224 38.3252 83.8367ZM37.2272 76.5262C37.9021 76.3069 38.6244 76.2859 39.2088 76.4686C39.6984 76.6216 40.0494 76.8976 40.2109 77.2532C40.0593 77.7364 39.4505 79.4384 38.2954 79.8138C37.5064 80.0701 37.034 80.0021 36.3117 79.8872C35.743 79.5932 35.1974 79.2789 34.6157 78.5224C35.7012 77.7493 35.916 76.9522 37.2272 76.5262V76.5262ZM32.5484 73.2967C32.8432 72.8839 33.2148 72.6395 33.6053 72.5981C34.2088 73.0085 35.4528 74.0826 35.4528 75.1843C35.4528 76.0174 35.2119 76.523 34.9252 77.0879C34.4631 77.5646 34.0139 78.0148 33.0712 78.3517C32.6856 77.079 31.9961 76.5715 31.9961 75.1843C31.9961 74.4657 32.1923 73.7953 32.5484 73.2967V73.2967ZM27.2467 77.4848C27.8229 77.0379 29.23 76.1856 30.2782 76.5262C31.0856 76.7885 31.3569 77.1687 31.8555 77.6745C32.1423 78.2457 32.3986 78.8195 32.4256 79.77C31.0997 79.7436 30.3966 80.2412 29.0809 79.8137C28.0384 79.475 27.0112 78.5326 27.2467 77.4848Z" fill="#FFDFFF"/>
<g clip-path="url(#clip6)">
<path d="M28.1115 80.7782C28.4178 80.8777 28.6979 80.9364 28.9594 80.9671C28.7665 81.1459 28.5746 81.3585 28.3849 81.6196C27.2752 83.1469 28.2611 85.6461 28.3036 85.7518C28.3339 85.8271 28.3848 85.8923 28.4505 85.94C29.0788 86.3965 29.8604 86.4278 30.598 86.1815C31.3486 85.9309 32.0524 85.3932 32.5797 84.6673C32.7691 84.4068 32.9114 84.1585 33.0214 83.9193C33.1319 84.158 33.2747 84.4062 33.4644 84.6673C34.2737 85.7812 36.1021 86.1085 37.3692 86.0215C37.4502 86.016 37.528 85.9877 37.5936 85.94C38.1765 85.5165 38.4938 84.8177 38.487 83.9723C38.4806 83.181 38.1866 82.3454 37.6593 81.6196C37.4678 81.356 37.2734 81.1419 37.0777 80.9622C37.3157 80.9293 37.5734 80.8713 37.8601 80.7782C39.6527 80.1957 40.3534 77.5978 40.3823 77.4875C40.4033 77.4075 40.4009 77.3231 40.3753 77.2443C40.1527 76.5592 39.5806 76.0414 38.7642 75.7863C38.0016 75.548 37.1115 75.5695 36.2578 75.8469C35.9854 75.9354 35.7501 76.0378 35.5417 76.1499C35.5877 75.9032 35.6147 75.6319 35.6147 75.3268C35.6147 73.439 33.3481 71.9966 33.2516 71.9361C33.1828 71.893 33.1033 71.8701 33.0221 71.8701C32.3017 71.8701 31.6342 72.249 31.1428 72.9369C30.6829 73.5809 30.4296 74.4296 30.4296 75.3268C30.4296 75.6216 30.4553 75.885 30.4991 76.1254C30.3111 76.0231 30.0958 75.929 29.8429 75.8468C28.0474 75.2635 25.9752 76.9734 25.8879 77.0465C25.8256 77.0985 25.7793 77.1671 25.7542 77.2443C25.2981 78.6482 26.3335 80.2005 28.1115 80.7782V80.7782ZM31.8806 84.1593C31.4582 84.7407 30.9055 85.1677 30.3243 85.3618C29.8431 85.5224 29.3989 85.5018 29.0586 85.3057C28.8116 84.6189 28.4366 83.0187 29.0841 82.1275C29.567 81.4628 30.0312 81.2031 30.7046 80.8594C31.3361 80.7632 31.9608 80.697 32.8726 80.9648C32.436 82.2225 32.6956 83.0375 31.8806 84.1593ZM32.5471 79.3471C32.7721 79.2712 32.9756 79.1891 33.1607 79.1024C33.3023 79.2929 33.4432 79.4615 33.5831 79.6119C33.4459 79.8051 33.3292 79.991 33.2296 80.1702C33.0035 80.0995 32.7906 80.0459 32.5893 80.0066C32.5867 79.7696 32.5719 79.5507 32.5471 79.3471V79.3471ZM37.6228 83.9793C37.6269 84.4865 37.4699 84.9026 37.1783 85.1658C36.4489 85.1884 34.8111 85.0506 34.1636 84.1594C33.6544 83.4585 33.564 82.891 33.4595 82.234L33.4583 82.2262C33.5619 81.596 33.692 80.9814 34.2285 80.197C35.2886 81 36.1448 81.0054 36.9601 82.1276C37.3825 82.7089 37.6179 83.3665 37.6228 83.9793ZM36.5248 76.6688C37.1997 76.4495 37.922 76.4285 38.5064 76.6112C38.996 76.7642 39.347 77.0402 39.5085 77.3958C39.3569 77.879 38.7481 79.581 37.593 79.9563C36.804 80.2127 36.3316 80.1447 35.6093 80.0298C35.0406 79.7358 34.495 79.4214 33.9133 78.665C34.9988 77.8919 35.2136 77.0948 36.5248 76.6688V76.6688ZM31.846 73.4393C32.1409 73.0264 32.5124 72.7821 32.9029 72.7406C33.5064 73.151 34.7504 74.2252 34.7504 75.3269C34.7504 76.16 34.5095 76.6656 34.2228 77.2305C33.7607 77.7072 33.3115 78.1574 32.3689 78.4943C31.9832 77.2215 31.2937 76.7141 31.2937 75.3269C31.2937 74.6082 31.4899 73.9379 31.846 73.4393V73.4393ZM26.5443 77.6274C27.1205 77.1805 28.5276 76.3282 29.5759 76.6688C30.3832 76.9311 30.6545 77.3113 31.1531 77.8171C31.4399 78.3883 31.6962 78.962 31.7232 79.9125C30.3973 79.8861 29.6942 80.3838 28.3785 79.9563C27.336 79.6175 26.3088 78.6751 26.5443 77.6274Z" fill="#954EDE"/>
</g>
<g clip-path="url(#clip7)">
<path d="M63.6353 84.3413C65.8094 83.0425 66.5458 80.235 65.2751 78.0343C64.0045 75.8336 61.205 75.0677 58.9933 76.3012C58.9556 73.769 56.8924 71.7275 54.3513 71.7275C51.8101 71.7275 49.7469 73.769 49.7093 76.3014C47.4975 75.0678 44.698 75.8339 43.4274 78.0347C42.1568 80.2353 42.8932 83.0428 45.0674 84.3415C42.8932 85.6403 42.1568 88.4478 43.4275 90.6485C44.6981 92.8492 47.4977 93.6152 49.7094 92.3816C49.747 94.914 51.8102 96.9555 54.3514 96.9554C56.8927 96.9554 58.9557 94.9138 58.9934 92.3816C61.2051 93.6151 64.0048 92.8491 65.2752 90.6482C66.5458 88.4475 65.8094 85.64 63.6353 84.3413ZM54.3513 88.5939C52.0027 88.5939 50.0987 86.69 50.0987 84.3414C50.0987 81.9927 52.0027 80.0888 54.3513 80.0888C56.6999 80.0888 58.6039 81.9927 58.6039 84.3414C58.6039 86.69 56.6999 88.5939 54.3513 88.5939Z" fill="#954EDE"/>
<circle cx="54.4184" cy="84.7213" r="5.47422" fill="white"/>
</g>
<g clip-path="url(#clip8)">
<path d="M171.756 24.4999C173.221 23.6247 173.717 21.7329 172.861 20.2499C172.005 18.7669 170.118 18.2508 168.628 19.082C168.603 17.3757 167.212 16 165.5 16C163.788 16 162.397 17.3757 162.372 19.0821C160.881 18.2509 158.995 18.7671 158.139 20.2501C157.283 21.7331 157.779 23.6249 159.244 24.5C157.779 25.3752 157.283 27.2671 158.139 28.7501C158.995 30.2331 160.882 30.7492 162.372 29.918C162.397 31.6244 163.788 33.0001 165.5 33C167.212 33 168.603 31.6243 168.628 29.918C170.118 30.7491 172.005 30.233 172.861 28.7499C173.717 27.2669 173.221 25.375 171.756 24.4999ZM165.5 27.3656C163.917 27.3656 162.634 26.0826 162.634 24.5C162.634 22.9173 163.917 21.6343 165.5 21.6343C167.083 21.6343 168.366 22.9173 168.366 24.5C168.366 26.0826 167.083 27.3656 165.5 27.3656Z" fill="#954EDE"/>
<circle cx="165.545" cy="24.7562" r="3.68886" fill="white"/>
</g>
<path d="M108.235 16.5374C108.503 16.6244 108.748 16.6757 108.976 16.7025C108.808 16.8587 108.64 17.0445 108.474 17.2727C107.504 18.6076 108.366 20.7918 108.403 20.8841C108.43 20.9499 108.474 21.007 108.532 21.0487C109.081 21.4476 109.764 21.475 110.408 21.2598C111.064 21.0407 111.68 20.5708 112.14 19.9364C112.306 19.7087 112.43 19.4917 112.527 19.2827C112.623 19.4912 112.748 19.7082 112.914 19.9364C113.621 20.9099 115.219 21.1959 116.326 21.1199C116.397 21.115 116.465 21.0904 116.522 21.0487C117.032 20.6786 117.309 20.0678 117.303 19.3289C117.298 18.6374 117.041 17.9071 116.58 17.2727C116.412 17.0424 116.243 16.8553 116.072 16.6982C116.28 16.6695 116.505 16.6188 116.755 16.5374C118.322 16.0283 118.934 13.7578 118.96 13.6614C118.978 13.5914 118.976 13.5177 118.954 13.4489C118.759 12.8501 118.259 12.3975 117.546 12.1746C116.879 11.9663 116.101 11.9851 115.355 12.2275C115.117 12.3049 114.911 12.3944 114.729 12.4924C114.769 12.2768 114.793 12.0397 114.793 11.773C114.793 10.1231 112.812 8.86247 112.728 8.80961C112.668 8.77192 112.598 8.75195 112.527 8.75195C111.897 8.75195 111.314 9.08309 110.885 9.68433C110.483 10.2471 110.261 10.9889 110.261 11.773C110.261 12.0306 110.284 12.2608 110.322 12.4709C110.158 12.3815 109.97 12.2993 109.749 12.2275C108.179 11.7176 106.368 13.2121 106.292 13.2759C106.238 13.3215 106.197 13.3814 106.175 13.4489C105.777 14.6758 106.681 16.0325 108.235 16.5374V16.5374ZM111.529 19.4924C111.16 20.0005 110.677 20.3737 110.169 20.5433C109.749 20.6837 109.36 20.6657 109.063 20.4943C108.847 19.8941 108.519 18.4955 109.085 17.7166C109.507 17.1357 109.913 16.9087 110.502 16.6083C111.054 16.5243 111.6 16.4664 112.396 16.7005C112.015 17.7997 112.242 18.512 111.529 19.4924ZM112.112 15.2866C112.309 15.2203 112.486 15.1486 112.648 15.0728C112.772 15.2392 112.895 15.3866 113.017 15.518C112.897 15.6869 112.795 15.8494 112.708 16.006C112.511 15.9442 112.325 15.8974 112.149 15.863C112.147 15.6559 112.134 15.4645 112.112 15.2866V15.2866ZM116.548 19.335C116.552 19.7784 116.414 20.142 116.16 20.372C115.522 20.3918 114.091 20.2713 113.525 19.4924C113.08 18.8799 113.001 18.3839 112.909 17.8097L112.908 17.8029C112.999 17.2521 113.113 16.7149 113.581 16.0294C114.508 16.7312 115.256 16.7359 115.969 17.7167C116.338 18.2248 116.544 18.7995 116.548 19.335ZM115.588 12.9458C116.178 12.7542 116.809 12.7359 117.32 12.8955C117.748 13.0292 118.055 13.2705 118.196 13.5813C118.064 14.0035 117.531 15.4911 116.522 15.8191C115.832 16.0432 115.419 15.9837 114.788 15.8833C114.291 15.6263 113.814 15.3516 113.306 14.6905C114.255 14.0148 114.442 13.3182 115.588 12.9458V12.9458ZM111.499 10.1233C111.757 9.76256 112.082 9.54896 112.423 9.51276C112.95 9.87144 114.038 10.8102 114.038 11.7731C114.038 12.5012 113.827 12.9431 113.576 13.4368C113.173 13.8534 112.78 14.2468 111.956 14.5413C111.619 13.429 111.017 12.9854 111.017 11.7731C111.017 11.145 111.188 10.5591 111.499 10.1233V10.1233ZM106.866 13.7837C107.369 13.3931 108.599 12.6482 109.515 12.9458C110.221 13.1751 110.458 13.5074 110.894 13.9495C111.144 14.4486 111.368 14.9501 111.392 15.7808C110.233 15.7577 109.619 16.1927 108.469 15.8191C107.558 15.523 106.66 14.6994 106.866 13.7837Z" fill="#FFB8DC"/>
<path d="M107.924 16.9485C108.192 17.0355 108.437 17.0868 108.665 17.1136C108.496 17.2699 108.329 17.4557 108.163 17.6839C107.193 19.0187 108.055 21.2029 108.092 21.2953C108.118 21.3611 108.163 21.4181 108.22 21.4598C108.769 21.8587 109.453 21.8861 110.097 21.6709C110.753 21.4519 111.368 20.9819 111.829 20.3475C111.995 20.1198 112.119 19.9028 112.215 19.6938C112.312 19.9024 112.437 20.1193 112.602 20.3475C113.31 21.321 114.908 21.607 116.015 21.531C116.086 21.5262 116.154 21.5015 116.211 21.4598C116.721 21.0897 116.998 20.4789 116.992 19.7401C116.986 19.0485 116.729 18.3182 116.268 17.6839C116.101 17.4535 115.931 17.2664 115.76 17.1093C115.968 17.0806 116.193 17.0299 116.444 16.9485C118.011 16.4394 118.623 14.169 118.648 14.0726C118.667 14.0026 118.665 13.9288 118.642 13.86C118.448 13.2612 117.948 12.8087 117.234 12.5857C116.568 12.3774 115.79 12.3962 115.044 12.6387C114.806 12.716 114.6 12.8055 114.418 12.9035C114.458 12.6879 114.482 12.4508 114.482 12.1842C114.482 10.5342 112.501 9.27361 112.416 9.22074C112.356 9.18305 112.287 9.16309 112.216 9.16309C111.586 9.16309 111.003 9.49422 110.573 10.0955C110.171 10.6582 109.95 11.4 109.95 12.1842C109.95 12.4418 109.972 12.6719 110.011 12.8821C109.846 12.7927 109.658 12.7104 109.437 12.6386C107.868 12.1288 106.057 13.6232 105.981 13.6871C105.926 13.7326 105.886 13.7925 105.864 13.86C105.465 15.087 106.37 16.4436 107.924 16.9485ZM111.218 19.9035C110.849 20.4116 110.366 20.7849 109.858 20.9544C109.437 21.0948 109.049 21.0768 108.752 20.9055C108.536 20.3052 108.208 18.9067 108.774 18.1278C109.196 17.5468 109.602 17.3199 110.19 17.0195C110.742 16.9354 111.288 16.8775 112.085 17.1116C111.704 18.2108 111.93 18.9231 111.218 19.9035ZM111.801 15.6977C111.997 15.6314 112.175 15.5597 112.337 15.4839C112.461 15.6504 112.584 15.7978 112.706 15.9292C112.586 16.098 112.484 16.2605 112.397 16.4172C112.199 16.3553 112.013 16.3085 111.837 16.2742C111.835 16.0671 111.822 15.8757 111.801 15.6977ZM116.237 19.7462C116.24 20.1895 116.103 20.5532 115.848 20.7831C115.211 20.8029 113.779 20.6824 113.213 19.9036C112.768 19.291 112.689 18.7951 112.598 18.2208L112.597 18.214C112.688 17.6633 112.801 17.1261 113.27 16.4406C114.197 17.1424 114.945 17.1471 115.657 18.1278C116.027 18.6359 116.232 19.2106 116.237 19.7462ZM115.277 13.357C115.867 13.1653 116.498 13.147 117.009 13.3066C117.437 13.4404 117.743 13.6816 117.885 13.9924C117.752 14.4147 117.22 15.9022 116.211 16.2302C115.521 16.4543 115.108 16.3949 114.477 16.2944C113.98 16.0375 113.503 15.7627 112.995 15.1017C113.943 14.4259 114.131 13.7293 115.277 13.357ZM111.188 10.5345C111.446 10.1737 111.77 9.9601 112.112 9.92389C112.639 10.2826 113.726 11.2214 113.726 12.1842C113.726 12.9123 113.516 13.3542 113.265 13.8479C112.861 14.2645 112.469 14.658 111.645 14.9524C111.308 13.8401 110.705 13.3966 110.705 12.1842C110.705 11.5561 110.877 10.9703 111.188 10.5345ZM106.554 14.1948C107.058 13.8042 108.288 13.0593 109.204 13.357C109.909 13.5863 110.146 13.9185 110.582 14.3606C110.833 14.8598 111.057 15.3612 111.081 16.192C109.922 16.1689 109.307 16.6038 108.157 16.2302C107.246 15.9341 106.348 15.1105 106.554 14.1948Z" fill="#954EDE"/>
</g>
<defs>
<filter id="filter0_f" x="23" y="81" width="156" height="26" filterUnits="userSpaceOnUse" color-interpolation-filters="sRGB">
<feFlood flood-opacity="0" result="BackgroundImageFix"/>
<feBlend mode="normal" in="SourceGraphic" in2="BackgroundImageFix" result="shape"/>
<feGaussianBlur stdDeviation="5" result="effect1_foregroundBlur"/>
</filter>
<clipPath id="clip0">
<rect width="277" height="105.82" fill="white"/>
</clipPath>
<clipPath id="clip1">
<rect width="5.93764" height="6.92725" fill="white" transform="translate(154.157 11.8438)"/>
</clipPath>
<clipPath id="clip2">
<rect width="35.8977" height="38.0016" fill="white" transform="translate(49 6)"/>
</clipPath>
<clipPath id="clip3">
<rect width="6.32513" height="7.37931" fill="white" transform="translate(180.024 57.4346) rotate(24.9452)"/>
</clipPath>
<clipPath id="clip4">
<rect width="15.6977" height="15.6977" fill="white" transform="translate(169.065 42.001) rotate(24.9452)"/>
</clipPath>
<clipPath id="clip5">
<rect width="7.27921" height="8.49241" fill="white" transform="translate(32.3513 91.8418)"/>
</clipPath>
<clipPath id="clip6">
<rect width="14.7496" height="14.7496" fill="white" transform="translate(25.6467 71.7285)"/>
</clipPath>
<clipPath id="clip7">
<rect width="25.2278" height="25.2278" fill="white" transform="translate(41.7375 71.7275)"/>
</clipPath>
<clipPath id="clip8">
<rect width="17" height="17" fill="white" transform="translate(157 16)"/>
</clipPath>
</defs>
</svg>
