<svg width="277" height="106" viewBox="0 0 277 106" fill="none" xmlns="http://www.w3.org/2000/svg">
<g clip-path="url(#clip0)">
<g filter="url(#filter0_f)">
<ellipse cx="101" cy="94" rx="68" ry="3" fill="#C4C4C4" fill-opacity="0.5"/>
</g>
<path d="M101.572 66.9951H107.856L105.879 78.4209H99.5947L97.2217 92H82.7637L85.1367 78.4209H61.1865L61.9775 68.665L93.3984 28.1475V27.8398L108.34 28.0596L101.572 66.9951ZM76.2158 66.9072L87.1143 66.9951L90.9814 47.1318L76.2158 66.9072ZM116.294 60.5352L125.171 28.0156H161.646L159.8 39.5293H135.322L131.411 52.3174C133.784 50.7939 136.729 50.0029 140.244 49.9443C145.869 49.9443 150.19 51.8926 153.208 55.7891C156.255 59.6855 157.515 64.7832 156.987 71.082C156.46 77.5859 153.926 82.8887 149.385 86.9902C144.844 91.0625 139.351 93.04 132.905 92.9229C129.126 92.835 125.684 91.9561 122.578 90.2861C119.502 88.6162 117.114 86.3457 115.415 83.4746C113.716 80.5742 112.881 77.3369 112.91 73.7627H127.324C127.383 76.0479 127.954 77.8789 129.038 79.2559C130.122 80.6328 131.646 81.3506 133.608 81.4092C136.011 81.4971 138.003 80.6035 139.585 78.7285C141.167 76.8242 142.178 73.9385 142.617 70.0713C142.91 66.8193 142.471 64.3584 141.299 62.6885C140.127 60.9893 138.296 60.1396 135.806 60.1396C132.612 60.1396 130.02 61.2236 128.027 63.3916L116.294 60.5352Z" fill="#EF3829"/>
<path d="M101.572 66.9951L98.6166 66.4814L98.0058 69.9951H101.572V66.9951ZM107.856 66.9951L110.812 67.5067L111.42 63.9951H107.856V66.9951ZM105.879 78.4209V81.4209H108.404L108.835 78.9325L105.879 78.4209ZM99.5947 78.4209V75.4209H97.0735L96.6395 77.9045L99.5947 78.4209ZM97.2217 92V95H99.7429L100.177 92.5164L97.2217 92ZM82.7637 92L79.8085 91.4836L79.1939 95H82.7637V92ZM85.1367 78.4209L88.0919 78.9373L88.7065 75.4209H85.1367V78.4209ZM61.1865 78.4209L58.1963 78.1785L57.9334 81.4209H61.1865V78.4209ZM61.9775 68.665L59.6069 66.8266L59.0595 67.5324L58.9874 68.4226L61.9775 68.665ZM93.3984 28.1475L95.7691 29.9859L96.3984 29.1744V28.1475H93.3984ZM93.3984 27.8398L93.4426 24.8402L90.3984 24.7954V27.8398H93.3984ZM108.34 28.0596L111.296 28.5733L111.897 25.1116L108.384 25.0599L108.34 28.0596ZM76.2158 66.9072L73.812 65.1124L70.2676 69.8594L76.1916 69.9071L76.2158 66.9072ZM87.1143 66.9951L87.0901 69.995L89.5826 70.0151L90.059 67.5684L87.1143 66.9951ZM90.9814 47.1318L93.9262 47.7051L88.5776 45.337L90.9814 47.1318ZM101.572 69.9951H107.856V63.9951H101.572V69.9951ZM104.9 66.4835L102.923 77.9093L108.835 78.9325L110.812 67.5067L104.9 66.4835ZM105.879 75.4209H99.5947V81.4209H105.879V75.4209ZM96.6395 77.9045L94.2665 91.4836L100.177 92.5164L102.55 78.9373L96.6395 77.9045ZM97.2217 89H82.7637V95H97.2217V89ZM85.7189 92.5164L88.0919 78.9373L82.1815 77.9045L79.8085 91.4836L85.7189 92.5164ZM85.1367 75.4209H61.1865V81.4209H85.1367V75.4209ZM64.1767 78.6633L64.9677 68.9075L58.9874 68.4226L58.1963 78.1785L64.1767 78.6633ZM64.3482 70.5035L95.7691 29.9859L91.0278 26.309L59.6069 66.8266L64.3482 70.5035ZM96.3984 28.1475V27.8398H90.3984V28.1475H96.3984ZM93.3543 30.8395L108.296 31.0592L108.384 25.0599L93.4426 24.8402L93.3543 30.8395ZM105.384 27.5458L98.6166 66.4814L104.528 67.5089L111.296 28.5733L105.384 27.5458ZM76.1916 69.9071L87.0901 69.995L87.1385 63.9952L76.24 63.9073L76.1916 69.9071ZM90.059 67.5684L93.9262 47.7051L88.0367 46.5585L84.1695 66.4218L90.059 67.5684ZM88.5776 45.337L73.812 65.1124L78.6197 68.7021L93.3853 48.9267L88.5776 45.337ZM116.294 60.5352L113.4 59.7451L112.588 62.7205L115.584 63.45L116.294 60.5352ZM125.171 28.0156V25.0156H122.88L122.277 27.2256L125.171 28.0156ZM161.646 28.0156L164.608 28.4905L165.165 25.0156H161.646V28.0156ZM159.8 39.5293V42.5293H162.357L162.762 40.0042L159.8 39.5293ZM135.322 39.5293V36.5293H133.103L132.453 38.6519L135.322 39.5293ZM131.411 52.3174L128.542 51.44L126.151 59.2594L133.032 54.8419L131.411 52.3174ZM140.244 49.9443V46.9443H140.219L140.194 46.9448L140.244 49.9443ZM153.208 55.7891L150.836 57.626L150.845 57.637L153.208 55.7891ZM156.987 71.082L153.998 70.8317L153.997 70.8396L156.987 71.082ZM149.385 86.9902L151.388 89.2237L151.396 89.2165L149.385 86.9902ZM132.905 92.9229L132.836 95.922L132.843 95.9222L132.851 95.9224L132.905 92.9229ZM122.578 90.2861L121.147 92.9227L121.157 92.9283L122.578 90.2861ZM115.415 83.4746L112.827 84.9911L112.833 85.0026L115.415 83.4746ZM112.91 73.7627V70.7627H109.935L109.91 73.7381L112.91 73.7627ZM127.324 73.7627L130.323 73.6858L130.248 70.7627H127.324V73.7627ZM133.608 81.4092L133.718 78.4112L133.708 78.4108L133.698 78.4105L133.608 81.4092ZM139.585 78.7285L141.878 80.6631L141.885 80.6544L141.893 80.6456L139.585 78.7285ZM142.617 70.0713L145.598 70.41L145.602 70.3753L145.605 70.3405L142.617 70.0713ZM141.299 62.6885L138.829 64.3917L138.836 64.4017L138.843 64.4118L141.299 62.6885ZM128.027 63.3916L127.318 66.3065L129.038 66.7253L130.236 65.4215L128.027 63.3916ZM119.188 61.3252L128.065 28.8056L122.277 27.2256L113.4 59.7451L119.188 61.3252ZM125.171 31.0156H161.646V25.0156H125.171V31.0156ZM158.683 27.5408L156.838 39.0544L162.762 40.0042L164.608 28.4905L158.683 27.5408ZM159.8 36.5293H135.322V42.5293H159.8V36.5293ZM132.453 38.6519L128.542 51.44L134.28 53.1948L138.191 40.4067L132.453 38.6519ZM133.032 54.8419C134.832 53.686 137.199 52.9955 140.294 52.9439L140.194 46.9448C136.258 47.0104 132.736 47.9019 129.79 49.7928L133.032 54.8419ZM140.244 52.9443C145.09 52.9443 148.472 54.5733 150.836 57.6259L155.58 53.9522C151.909 49.2118 146.648 46.9443 140.244 46.9443V52.9443ZM150.845 57.637C153.307 60.7862 154.48 65.0693 153.998 70.8317L159.977 71.3323C160.549 64.4971 159.203 58.5849 155.571 53.9411L150.845 57.637ZM153.997 70.8396C153.527 76.6371 151.308 81.2109 147.374 84.7639L151.396 89.2165C156.544 84.5665 159.393 78.5348 159.977 71.3245L153.997 70.8396ZM147.382 84.7568C143.44 88.2921 138.695 90.0276 132.96 89.9233L132.851 95.9224C140.007 96.0525 146.248 93.8329 151.388 89.2237L147.382 84.7568ZM132.975 89.9237C129.633 89.8459 126.659 89.0742 123.999 87.6439L121.157 92.9283C124.708 94.8379 128.619 95.824 132.836 95.922L132.975 89.9237ZM124.009 87.6496C121.385 86.2251 119.406 84.3276 117.997 81.9466L112.833 85.0026C114.823 88.3638 117.618 91.0073 121.147 92.9227L124.009 87.6496ZM118.004 81.9581C116.595 79.5547 115.885 76.8557 115.91 73.7873L109.91 73.7381C109.877 77.8181 110.836 81.5937 112.827 84.9911L118.004 81.9581ZM112.91 76.7627H127.324V70.7627H112.91V76.7627ZM124.325 73.8396C124.395 76.5745 125.09 79.0908 126.681 81.1115L131.395 77.4002C130.818 76.667 130.37 75.5212 130.323 73.6858L124.325 73.8396ZM126.681 81.1115C128.385 83.2759 130.789 84.3263 133.519 84.4078L133.698 78.4105C132.502 78.3748 131.859 77.9897 131.395 77.4002L126.681 81.1115ZM133.499 84.4072C136.845 84.5296 139.715 83.2262 141.878 80.6631L137.292 76.7939C136.291 77.9809 135.177 78.4646 133.718 78.4112L133.499 84.4072ZM141.893 80.6456C144.005 78.1029 145.127 74.5524 145.598 70.41L139.636 69.7326C139.228 73.3246 138.329 75.5456 137.277 76.8115L141.893 80.6456ZM145.605 70.3405C145.926 66.7808 145.516 63.4753 143.754 60.9652L138.843 64.4118C139.425 65.2415 139.895 66.8579 139.629 69.8021L145.605 70.3405ZM143.768 60.9853C141.917 58.3001 139.05 57.1396 135.806 57.1396V63.1396C137.542 63.1396 138.337 63.6784 138.829 64.3917L143.768 60.9853ZM135.806 57.1396C131.852 57.1396 128.43 58.5193 125.818 61.3617L130.236 65.4215C131.609 63.9279 133.373 63.1396 135.806 63.1396V57.1396ZM128.737 60.4767L117.004 57.6203L115.584 63.45L127.318 66.3065L128.737 60.4767Z" fill="#EF3829"/>
<path d="M178.71 91.3779C177.909 92.3154 176.742 93.043 175.209 93.5605C173.676 94.0684 171.977 94.3076 170.111 94.2783C168.324 94.2588 166.815 93.8096 165.585 92.9307C164.354 92.0518 163.476 90.8262 162.948 89.2539C162.421 87.6816 162.279 85.9092 162.523 83.9365L162.641 83.0576C163.09 79.7471 164.252 77.125 166.127 75.1914C168.012 73.2578 170.316 72.3154 173.041 72.3643C175.424 72.4033 177.255 73.043 178.534 74.2832C179.813 75.5234 180.526 77.3154 180.673 79.6592L175.868 79.6445C175.8 78.502 175.517 77.667 175.019 77.1396C174.53 76.6123 173.832 76.334 172.924 76.3047C171.576 76.2559 170.463 76.7881 169.584 77.9014C168.705 79.0049 168.104 80.5869 167.782 82.6475C167.509 84.4053 167.411 85.7725 167.489 86.749C167.636 89.1025 168.695 90.2939 170.668 90.3232C171.859 90.3428 172.904 90.0547 173.803 89.459L174.462 86.1338H170.99L171.605 82.6035H180.087L178.71 91.3779ZM186.356 94H181.347L185.053 72.6719H190.048L186.356 94ZM207.626 91.3779C206.825 92.3154 205.658 93.043 204.125 93.5605C202.592 94.0684 200.893 94.3076 199.027 94.2783C197.24 94.2588 195.731 93.8096 194.501 92.9307C193.271 92.0518 192.392 90.8262 191.864 89.2539C191.337 87.6816 191.195 85.9092 191.439 83.9365L191.557 83.0576C192.006 79.7471 193.168 77.125 195.043 75.1914C196.928 73.2578 199.232 72.3154 201.957 72.3643C204.34 72.4033 206.171 73.043 207.45 74.2832C208.729 75.5234 209.442 77.3154 209.589 79.6592L204.784 79.6445C204.716 78.502 204.433 77.667 203.935 77.1396C203.446 76.6123 202.748 76.334 201.84 76.3047C200.492 76.2559 199.379 76.7881 198.5 77.9014C197.621 79.0049 197.021 80.5869 196.698 82.6475C196.425 84.4053 196.327 85.7725 196.405 86.749C196.552 89.1025 197.611 90.2939 199.584 90.3232C200.775 90.3428 201.82 90.0547 202.719 89.459L203.378 86.1338H199.906L200.521 82.6035H209.003L207.626 91.3779ZM222.45 90.0156H215.639L213.749 94H208.227L219.521 72.6719H224.237L228.178 94H222.963L222.45 90.0156ZM217.514 86.0459H221.938L221 78.6924L217.514 86.0459ZM241.625 88.2285C241.84 87.125 241.244 86.2705 239.838 85.665L237.436 84.6689C234.066 83.1553 232.465 81.0947 232.631 78.4873C232.699 77.2959 233.109 76.2363 233.861 75.3086C234.613 74.3711 235.653 73.6436 236.981 73.126C238.31 72.6084 239.76 72.3594 241.332 72.3789C243.441 72.418 245.136 73.0332 246.415 74.2246C247.704 75.416 248.339 77.0127 248.319 79.0146H243.339C243.368 78.1943 243.192 77.54 242.812 77.0518C242.44 76.5537 241.825 76.2949 240.966 76.2754C240.126 76.2559 239.384 76.4512 238.739 76.8613C238.095 77.2715 237.714 77.8232 237.597 78.5166C237.411 79.4932 238.134 80.2939 239.765 80.9189C241.405 81.5439 242.597 82.0811 243.339 82.5303C245.673 83.9268 246.767 85.8115 246.62 88.1846C246.542 89.415 246.146 90.4941 245.434 91.4219C244.721 92.3496 243.729 93.0674 242.46 93.5752C241.2 94.083 239.784 94.3271 238.212 94.3076C237.06 94.2881 235.99 94.1074 235.004 93.7656C234.018 93.4238 233.173 92.9258 232.47 92.2715C231.044 90.9531 230.36 89.2197 230.419 87.0713L235.443 87.0859C235.385 88.1797 235.595 89.0098 236.073 89.5762C236.552 90.1328 237.357 90.4111 238.49 90.4111C239.33 90.4111 240.028 90.2207 240.585 89.8398C241.151 89.4492 241.498 88.9121 241.625 88.2285Z" fill="#BBBBBB"/>
<g clip-path="url(#clip1)">
<path d="M69.0542 91.4114L69.1177 90.8465L69.9139 83.5755L68.7184 83.5058C68.6642 83.4835 68.6101 83.4612 68.5591 83.4825L68.5336 83.4931L54.3358 82.6544L55.5277 94.9437L68.6381 95.0395L69.0542 91.4114Z" fill="#163C5A"/>
<path d="M63.6538 83.1958C63.9126 85.6451 64.577 91.8285 64.9262 95.0327L58.7607 94.9868L60.9113 83.0384L63.6538 83.1958Z" fill="#6EA4B7"/>
<path opacity="0.19" d="M54.3358 82.6549L69.9033 83.5505L69.429 87.9356C64.5396 87.5071 59.6246 87.0892 54.7352 86.6607L54.3358 82.6549Z" fill="#248D8A"/>
<path d="M72.3648 80.9542L70.5165 84.9851L53.2057 84.4277L51.6341 80.1929L72.3648 80.9542Z" fill="#163C5A"/>
<path d="M64.4578 80.6763L63.8231 84.7844L60.6198 84.6696L60.3849 80.5204L64.4578 80.6763Z" fill="#4D8493"/>
<path d="M62.7229 80.533C64.5756 80.4931 66.4176 80.0689 68.0748 79.2731C68.785 78.9321 69.5217 78.4753 69.7285 77.7161C69.9501 76.9208 69.5305 76.0939 69.1279 75.3794C69.0174 75.1862 68.9069 74.993 68.789 74.8179C68.4247 74.2669 67.9764 73.7659 67.351 73.5931C66.3603 73.3332 65.0376 74.0344 64.3488 74.7853C63.0146 76.2838 62.8338 78.4678 62.7091 80.4639C62.7378 80.4968 62.7303 80.5149 62.7229 80.533ZM62.9224 80.1507C63.4169 79.2565 64.1711 77.0128 67.3388 75.2133C67.444 75.5732 66.6671 76.4355 66.6056 76.7902C66.454 77.4666 66.0348 78.0751 65.537 78.5668C64.8046 79.3209 63.9076 79.8594 62.9224 80.1507Z" fill="#6EA4B7"/>
<path d="M62.9224 80.1502C63.897 79.8335 64.812 79.3023 65.5295 78.5844C66.0273 78.0926 66.4465 77.4841 66.5982 76.8078C66.6851 76.4425 66.6744 76.0581 66.5692 75.6983C67.2591 75.2011 68.0129 74.8569 68.807 74.8248C68.9249 75 69.0354 75.1932 69.1459 75.3864C69.5666 76.1082 69.9862 76.9352 69.7465 77.7231C69.5217 78.4749 68.803 78.9391 68.0928 79.2801C66.4176 80.0684 64.5756 80.4926 62.741 80.5399C62.7229 80.5325 62.8004 80.3955 62.9224 80.1502Z" fill="#4D8493"/>
<path d="M55.532 78.2074C55.7966 78.9494 56.5792 79.3559 57.3013 79.6529C59.0236 80.3404 60.8839 80.6414 62.7334 80.558C62.4812 78.5545 61.7776 76.3655 60.3524 74.9559C59.6344 74.2384 58.6075 73.6048 57.6435 73.947C57.0289 74.1585 56.6213 74.6874 56.2966 75.2714C56.1969 75.4626 56.0897 75.6718 55.9899 75.8629C55.6132 76.5733 55.2461 77.4143 55.532 78.2074ZM58.5626 75.9715C60.4327 77.1208 61.941 79.3032 62.487 80.1822C61.4889 79.9404 60.5618 79.4746 59.7855 78.7964C59.2609 78.3273 58.7988 77.7573 58.5916 77.081C58.5044 76.7285 58.4756 76.3367 58.5626 75.9715Z" fill="#6EA4B7"/>
<path d="M62.5126 80.1718C61.5145 79.93 60.5875 79.4642 59.8111 78.786C59.2865 78.3169 58.8244 77.7469 58.6172 77.0706C58.512 76.7107 58.5012 76.3263 58.5701 75.9537C57.8459 75.5079 57.0803 75.2141 56.2755 75.2207C56.1757 75.4118 56.0686 75.621 55.9688 75.8122C55.6027 76.5481 55.2282 77.4071 55.5141 78.2002C55.7787 78.9423 56.5613 79.3487 57.2834 79.6457C59.0057 80.3332 60.866 80.6342 62.7155 80.5508C62.7229 80.5327 62.6518 80.3979 62.5126 80.1718Z" fill="#4D8493"/>
<path d="M62.6645 80.5727C63.019 80.2753 63.8854 80.2729 64.2857 80.4798C64.6967 80.7122 64.9867 81.0848 65.2331 81.4606C65.4721 81.8544 65.7037 82.2663 66.0266 82.6102C66.4822 83.0931 67.1172 83.3966 67.7692 83.4537C67.0855 83.679 66.5888 84.4245 65.8488 84.4789C65.2574 84.5311 64.7253 84.08 64.4077 83.5694C64.1156 83.0482 63.9838 82.4452 63.768 81.8921C63.5778 81.3284 63.2315 80.7849 62.6645 80.5727Z" fill="#6EA4B7"/>
<g opacity="0.25">
<path opacity="0.25" d="M62.6645 80.5727C63.019 80.2753 63.8854 80.2729 64.2857 80.4798C64.6967 80.7122 64.9867 81.0848 65.2331 81.4606C65.4721 81.8544 65.7037 82.2663 66.0266 82.6102C66.4822 83.0931 67.1172 83.3966 67.7692 83.4537C67.0855 83.679 66.5888 84.4245 65.8488 84.4789C65.2574 84.5311 64.7253 84.08 64.4077 83.5694C64.1156 83.0482 63.9838 82.4452 63.768 81.8921C63.5778 81.3284 63.2315 80.7849 62.6645 80.5727Z" fill="#6EA4B7"/>
</g>
<path d="M67.6391 81.5643C67.9151 81.509 67.8396 81.0769 67.5636 81.1322C67.2875 81.1875 67.3631 81.6196 67.6391 81.5643Z" fill="#3CBCB5"/>
<path d="M69.8023 83.1286C70.1219 83.0701 70.0251 82.587 69.7056 82.6455C69.4041 82.7114 69.5008 83.1945 69.8023 83.1286Z" fill="#3CBCB5"/>
<path d="M70.6047 81.8964C70.6153 81.9219 70.6259 81.9474 70.6546 81.9803C70.7045 82.0642 70.78 82.1374 70.8299 82.2213C70.8766 82.2616 70.9233 82.3019 70.9849 82.3061C71.0465 82.3104 71.1155 82.2965 71.1558 82.2498C71.1813 82.2392 71.1962 82.2031 71.2036 82.185C71.2185 82.1489 71.2259 82.1309 71.2407 82.0948C71.2556 82.0587 71.245 82.0332 71.2343 82.0077C71.2237 81.9822 71.2131 81.9568 71.1844 81.9239C71.1345 81.84 71.0591 81.7668 71.0017 81.7009C70.955 81.6606 70.9008 81.6383 70.8467 81.6161C70.7851 81.6118 70.7341 81.6331 70.6758 81.6724C70.6503 81.683 70.6354 81.7191 70.628 81.7372C70.6132 81.7733 70.6057 81.7913 70.5909 81.8274C70.5909 81.8274 70.5941 81.8709 70.6047 81.8964Z" fill="#3CBCB5"/>
<path d="M55.8712 82.8215C56.1473 82.7662 56.0717 82.3341 55.7957 82.3894C55.5016 82.4373 55.5952 82.8768 55.8712 82.8215Z" fill="#3CBCB5"/>
<path d="M57.783 81.9203C58.1025 81.8618 58.0058 81.3787 57.6862 81.4372C57.3741 81.4776 57.4634 81.9787 57.783 81.9203Z" fill="#3CBCB5"/>
<path d="M58.8553 81.622C58.8659 81.6475 58.8766 81.673 58.9052 81.7059C58.9552 81.7897 59.0306 81.863 59.0805 81.9468C59.1272 81.9872 59.174 82.0275 59.2355 82.0317C59.2971 82.036 59.3661 82.0221 59.4065 81.9754C59.4319 81.9648 59.4468 81.9287 59.4542 81.9106C59.4691 81.8745 59.4765 81.8565 59.4913 81.8204C59.5062 81.7843 59.4956 81.7588 59.485 81.7333C59.4743 81.7078 59.4637 81.6823 59.435 81.6494C59.3851 81.5656 59.3097 81.4923 59.2523 81.4265C59.2056 81.3862 59.1515 81.3639 59.0973 81.3416C59.0357 81.3374 58.9848 81.3587 58.9264 81.398C58.9009 81.4086 58.886 81.4447 58.8786 81.4627C58.8638 81.4988 58.8563 81.5169 58.8415 81.553C58.8415 81.553 58.8521 81.5785 58.8553 81.622Z" fill="#3CBCB5"/>
<path d="M53.7919 81.5651C53.4724 81.6236 53.5691 82.1067 53.8887 82.0482C54.1902 81.9823 54.0934 81.4992 53.7919 81.5651Z" fill="#3CBCB5"/>
<path d="M55.4319 83.9918C55.4787 84.0321 55.5254 84.0724 55.587 84.0767C55.6486 84.0809 55.7176 84.0671 55.7579 84.0203C55.7834 84.0097 55.7982 83.9736 55.8057 83.9555C55.8205 83.9194 55.8279 83.9014 55.8428 83.8653C55.8576 83.8292 55.847 83.8037 55.8364 83.7782C55.8258 83.7527 55.8151 83.7273 55.7865 83.6944C55.7365 83.6105 55.6611 83.5373 55.6038 83.4715C55.557 83.4311 55.5029 83.4088 55.4487 83.3866C55.3872 83.3823 55.3362 83.4036 55.2778 83.4429C55.2523 83.4535 55.2375 83.4896 55.2301 83.5077C55.2152 83.5438 55.2078 83.5618 55.1929 83.5979C55.1781 83.634 55.1887 83.6595 55.1993 83.685C55.2099 83.7105 55.2206 83.7359 55.2492 83.7689C55.314 83.8166 55.382 83.9079 55.4319 83.9918Z" fill="#3CBCB5"/>
<path d="M62.7951 80.5625C62.417 80.3015 61.5613 80.3293 61.16 80.5864C60.7662 80.8254 60.4977 81.2215 60.2833 81.6399C60.0509 82.0509 59.8546 82.4767 59.5649 82.8219C59.1467 83.3252 58.5342 83.6854 57.8664 83.7694C58.5715 83.954 59.1047 84.6588 59.8404 84.666C60.4276 84.6754 60.9435 84.1911 61.2024 83.6644C61.4687 83.1196 61.5471 82.5187 61.7338 81.9622C61.9279 81.3878 62.2526 80.8037 62.7951 80.5625Z" fill="#6EA4B7"/>
<g opacity="0.25">
<path opacity="0.25" d="M62.7951 80.5625C62.417 80.3015 61.5613 80.3293 61.16 80.5864C60.7662 80.8254 60.4977 81.2215 60.2833 81.6399C60.0509 82.0509 59.8546 82.4767 59.5649 82.8219C59.1467 83.3252 58.5342 83.6854 57.8664 83.7694C58.5715 83.954 59.1047 84.6588 59.8404 84.666C60.4276 84.6754 60.9435 84.1911 61.2024 83.6644C61.4687 83.1196 61.5471 82.5187 61.7338 81.9622C61.9279 81.3878 62.2526 80.8037 62.7951 80.5625Z" fill="#6EA4B7"/>
</g>
<path d="M62.0975 80.3603C62.158 80.1108 62.3202 79.4599 62.5888 79.4227C62.9265 79.3716 63.2017 80.1391 63.2209 80.4003C63.2689 81.0533 61.9056 81.0834 62.0975 80.3603Z" fill="#ABCDD6"/>
</g>
<g clip-path="url(#clip2)">
<path d="M49.8756 95.1111C50.1842 95.4245 50.4771 95.7534 50.7699 96.0823C50.9551 96.2703 51.1248 96.4427 51.3099 96.6308C51.3716 96.6934 51.4644 96.7564 51.4012 96.8803C51.3224 97.0196 51.1985 96.9564 51.1209 96.9403C50.5004 96.7488 49.8955 96.5419 49.2907 96.335C49.2441 96.3191 49.1976 96.3032 49.1357 96.2716C48.9939 96.5037 48.8521 96.7359 48.7103 96.968C48.5686 97.2002 48.3957 97.4321 48.2539 97.6642C48.1753 97.7724 48.0663 97.7871 47.9892 97.7088C47.9275 97.6461 47.9126 97.5682 47.8822 97.4747C47.807 97.1475 47.7164 96.8047 47.6726 96.4467C47.6432 96.2288 47.5508 96.1037 47.3491 96.0554C47.0077 95.9594 46.682 95.848 46.3718 95.7523C46.2633 95.7048 46.1702 95.673 46.0774 95.61C45.8918 95.4842 45.9398 95.3135 46.1585 95.1908C46.2523 95.1293 46.3612 95.1146 46.4704 95.0688C46.8603 94.932 47.2501 94.7951 47.6399 94.6582C47.9051 94.5514 47.9208 94.536 47.923 94.2561C47.9418 93.8364 47.9764 93.4012 47.9798 92.9658C47.98 92.9347 47.9648 92.888 47.9808 92.8414C48.028 92.7641 48.0601 92.6399 48.138 92.625C48.2004 92.5944 48.3245 92.6264 48.3706 92.7045C48.4938 92.861 48.5858 93.0172 48.6933 93.1891C48.878 93.4394 49.0626 93.6897 49.2473 93.9399C49.3396 94.065 49.4483 94.0814 49.62 94.005C49.9476 93.8677 50.275 93.7614 50.6181 93.6397C50.7273 93.5939 50.8206 93.5946 50.8975 93.7041C50.9589 93.7978 50.896 93.8906 50.8176 93.9678C50.4883 94.3229 50.1898 94.7093 49.8756 95.1111Z" fill="#FFCA12"/>
</g>
<path d="M90.073 10.8377L95.2635 22.2702L96.874 25.8338L78.6998 37.91L76.0385 35.0447L67.5098 25.8303L77.9332 27.637L76.1625 14.3777L87.7003 21.1471L90.073 10.8377Z" fill="#FFAB19"/>
<path d="M90.073 10.8381L95.2636 22.2706L96.8741 25.8342L78.6999 37.9105L76.0796 35.1069L88.3194 26.974C91.5648 24.8175 92.7547 20.6406 91.1443 17.0769L89.462 13.3382L90.073 10.8381Z" fill="#FF9C19"/>
<path d="M79.314 26.3621C78.7684 26.4127 78.2544 26.0414 78.2038 25.4958L77.817 22.6339C77.7664 22.0884 78.1377 21.5743 78.6832 21.5237C79.2288 21.473 79.7429 21.8444 79.7935 22.3899L80.1803 25.2518C80.2309 25.7974 79.8391 26.2805 79.314 26.3621Z" fill="#FFC219"/>
<path d="M95.2637 22.2704L96.8742 25.834L78.7 37.9103L76.0386 35.0449L95.2637 22.2704Z" fill="#FF7719"/>
<path d="M98.2485 28.9745L81.0633 40.3935C79.7961 41.2356 78.0984 40.8933 77.2563 39.6261C76.4143 38.3588 76.7565 36.6611 78.0237 35.8191L95.2089 24.4C96.4761 23.558 98.1738 23.9002 99.0159 25.1675C99.8579 26.4347 99.5157 28.1324 98.2485 28.9745Z" fill="#FF9C19"/>
<path d="M95.0649 31.0899L81.0633 40.3935C79.7961 41.2356 78.0984 40.8933 77.2563 39.6261C76.4143 38.3588 76.7565 36.6611 78.0237 35.8191L92.0253 26.5154C93.2925 25.6734 94.9903 26.0156 95.8323 27.2829C96.6744 28.5501 96.3321 30.2478 95.0649 31.0899Z" fill="#FFAB19"/>
<path d="M82.5105 36.1346L79.8215 37.9214C79.4197 38.1884 78.8538 38.0743 78.5868 37.6725C78.3198 37.2707 78.4339 36.7047 78.8357 36.4378L81.5247 34.651C81.9265 34.384 82.4924 34.4981 82.7594 34.8999C83.0264 35.3017 82.9123 35.8676 82.5105 36.1346Z" fill="#FFC219"/>
<path d="M68.7416 27.6837C69.6975 27.0485 69.9575 25.7586 69.3223 24.8027C68.6871 23.8468 67.3973 23.5868 66.4413 24.222C65.4854 24.8571 65.2254 26.147 65.8606 27.1029C66.4958 28.0589 67.7856 28.3189 68.7416 27.6837Z" fill="#FFAB19"/>
<path d="M67.974 25.1204C68.3231 25.6458 68.1779 26.3661 67.6525 26.7152C67.127 27.0643 66.4068 26.9192 66.0576 26.3937C65.7085 25.8683 65.8537 25.148 66.3791 24.7989C66.9251 24.4806 67.6248 24.5949 67.974 25.1204Z" fill="#FFC219"/>
<path d="M77.3127 16.1085C78.2686 15.4733 78.5286 14.1834 77.8934 13.2275C77.2582 12.2716 75.9684 12.0116 75.0124 12.6468C74.0565 13.2819 73.7965 14.5718 74.4317 15.5278C75.0669 16.4837 76.3567 16.7437 77.3127 16.1085Z" fill="#FFAB19"/>
<path d="M76.5446 13.5442C76.8937 14.0696 76.7485 14.7899 76.2231 15.139C75.6976 15.4882 74.9774 15.343 74.6283 14.8175C74.2791 14.2921 74.4243 13.5718 74.9497 13.2227C75.4752 12.8736 76.1954 13.0187 76.5446 13.5442Z" fill="#FFC219"/>
<path d="M91.3051 12.6915C92.261 12.0563 92.521 10.7665 91.8859 9.81052C91.2507 8.85459 89.9608 8.59457 89.0049 9.22976C88.0489 9.86496 87.7889 11.1548 88.4241 12.1108C89.0593 13.0667 90.3492 13.3267 91.3051 12.6915Z" fill="#FFAB19"/>
<path d="M89.208 11.0109C89.5572 11.5363 90.2774 11.6815 90.8029 11.3324C91.3283 10.9832 91.4735 10.263 91.1243 9.73755C90.7752 9.21211 90.055 9.06692 89.5295 9.41606C89.0246 9.79611 88.8589 10.4855 89.208 11.0109Z" fill="#FFC219"/>
<g clip-path="url(#clip3)">
<path d="M107.7 10.5498C107.665 10.5679 107.645 10.3555 107.783 10.0175C107.886 9.69755 108.13 9.21678 108.586 8.80471C109.042 8.39265 109.747 8.03123 110.598 8.04037C111.448 8.04951 112.32 8.44818 113 9.0791C113.34 9.39455 113.662 9.76333 113.844 10.2044C113.952 10.4159 114.008 10.6988 114.046 10.9464C114.084 11.1941 114.052 11.4778 114.001 11.7264C113.865 12.2415 113.533 12.7232 113.021 12.9409C112.474 13.1767 111.871 13.0411 111.442 12.7265C111.228 12.5692 111.066 12.3406 110.957 12.0405C110.866 11.7757 110.898 11.4919 110.984 11.2253C111.174 10.7273 111.508 10.4228 111.86 10.2421C112.159 10.0442 112.495 9.91683 112.778 9.86083C113.06 9.80483 113.29 9.73165 113.502 9.7118C114.334 9.59712 115.22 9.67676 115.932 9.93532C116.643 10.1939 117.214 10.6133 117.573 11.0526C117.932 11.4919 118.113 11.9329 118.187 12.2511C118.208 12.552 118.156 12.712 118.121 12.73C117.962 12.7671 117.779 12.1489 117.046 11.5008C116.671 11.2034 116.207 10.9069 115.585 10.736C114.999 10.5471 114.272 10.519 113.565 10.6147C113.388 10.6165 113.158 10.6896 112.91 10.7276C112.681 10.8007 112.451 10.8739 112.204 11.0004C111.711 11.2534 111.503 11.7161 111.878 12.0135C112.057 12.1889 112.394 12.2386 112.606 12.1302C112.87 12.0389 113.08 11.7534 113.183 11.4334C113.286 11.1135 113.283 10.7592 113.102 10.4067C112.975 10.0714 112.723 9.75508 112.437 9.4568C111.882 8.89549 111.152 8.51311 110.496 8.44886C109.804 8.40269 109.169 8.63939 108.73 8.99814C108.272 9.32163 108.028 9.71384 107.872 10.0166C107.787 10.3718 107.735 10.5317 107.7 10.5498Z" fill="#00626B"/>
</g>
<g clip-path="url(#clip4)">
<path d="M119.89 24.769C119.115 25.3564 118.336 25.3433 117.797 24.6925C117.231 24.0092 117.326 22.9978 117.977 22.4587C118.66 21.8927 119.585 21.9495 120.124 22.6002C120.657 23.3105 120.574 24.2029 119.89 24.769Z" fill="#00626B"/>
</g>
<path d="M197.449 54.1938C197.392 54.0921 197.335 53.9905 197.248 53.9007C196.949 53.539 196.65 53.1773 196.381 52.8038C196.059 52.3806 195.705 51.9694 195.383 51.5462C195.349 51.506 195.326 51.4445 195.344 51.4019C195.429 51.21 195.545 51.0062 195.661 50.8024C196.12 51.0312 196.58 51.26 197.049 51.4674C197.518 51.6749 197.928 51.9582 198.435 52.0804C198.444 52.0591 198.454 52.0378 198.463 52.0165C198.345 51.9386 198.245 51.818 198.117 51.7614C197.518 51.4453 196.93 51.1599 196.331 50.8438C196.139 50.7589 195.956 50.6527 195.752 50.5371C195.847 50.3238 195.941 50.1106 196.035 49.8974C197.105 49.7842 198.172 49.6189 199.23 49.475C199.24 49.4536 199.228 49.4229 199.237 49.4016C199.121 49.3757 199.005 49.3499 198.901 49.3548C198.537 49.3721 198.163 49.4106 197.789 49.4492C197.28 49.5045 196.78 49.5386 196.272 49.5939C196.241 49.6058 196.219 49.5964 196.167 49.5989C196.247 49.3028 196.339 49.0375 196.419 48.7414C196.464 48.5828 196.499 48.4454 196.492 48.2892C196.496 48.1637 196.546 48.1091 196.659 48.0829C196.813 48.0234 196.976 47.9427 197.151 47.8926C198.334 47.5236 199.556 47.2988 200.808 47.2918C201.35 47.2767 201.897 47.3656 202.409 47.592C203.295 48.0094 203.651 48.7024 203.435 49.652C203.287 50.2749 202.968 50.8223 202.553 51.3013C202.444 51.4317 202.345 51.5407 202.215 51.6617C201.815 52.0459 201.587 52.5056 201.476 53.0432C201.343 53.7489 201.124 54.4168 200.789 55.059C200.567 55.4452 200.302 55.8126 199.95 56.0903C199.437 56.5007 198.895 56.5159 198.301 56.3039C197.154 55.8988 196.192 55.1927 195.477 54.214C195.131 53.7293 194.855 53.1995 194.54 52.703C194.483 52.6013 194.48 52.5492 194.57 52.4614C194.778 52.222 194.964 51.9731 195.172 51.7336C195.317 51.9251 195.471 52.0952 195.616 52.2867C196.048 52.8091 196.458 53.3221 196.899 53.8232C196.999 53.9437 197.129 54.0524 197.26 54.161C197.293 54.2012 197.345 54.1988 197.388 54.2176C197.409 54.227 197.418 54.2057 197.449 54.1938Z" fill="#163C5A"/>
<path d="M191.393 48.4059C190.436 48.0336 189.576 47.5001 188.63 47.1586C188.621 47.1799 188.612 47.2012 188.602 47.2225C188.657 47.2721 188.711 47.3218 188.797 47.3595C189.214 47.5694 189.609 47.7699 190.026 47.9799C190.443 48.1898 190.882 48.4092 191.32 48.6285C191.256 48.8299 191.181 49.0005 191.127 49.1805C190.698 49.1694 190.27 49.1583 189.872 49.1354C189.474 49.1124 189.055 49.08 188.636 49.0477C188.627 49.069 188.617 49.0903 188.62 49.1424C188.705 49.1801 188.781 49.2391 188.854 49.2461C189.16 49.3047 189.475 49.3421 189.768 49.3699C190.187 49.4023 190.606 49.4347 191.026 49.4671C190.99 49.6045 190.964 49.7205 190.939 49.8365C190.908 50.0781 190.89 50.3503 190.881 50.6013C190.874 50.6747 190.876 50.7268 190.784 50.7624C189.668 51.2119 188.534 51.5264 187.327 51.6043C186.828 51.6384 186.335 51.599 185.913 51.2849C185.567 51.0299 185.332 50.6965 185.23 50.2943C185.029 49.5939 185.08 48.9026 185.321 48.244C185.382 47.9906 185.483 47.704 185.627 47.4362C185.978 46.6994 186.192 45.9272 186.437 45.1432C186.755 44.1365 187.17 43.1984 187.895 42.4229C188.084 42.2261 188.306 42.0695 188.529 41.9128C189.096 41.552 189.593 41.4659 190.361 42.035C190.816 42.3893 191.151 42.8432 191.415 43.3422C191.951 44.3189 192.457 45.3075 192.985 46.3056C192.997 46.3363 193.03 46.3765 193.008 46.3671C192.602 46.8247 192.205 47.261 191.818 47.676C191.543 47.3758 191.256 47.0449 190.947 46.7046C190.772 46.525 190.596 46.3454 190.442 46.1752C190.387 46.1256 190.354 46.0854 190.29 46.0571C190.226 46.0289 190.132 46.0125 190.058 46.0055C190.082 46.067 190.087 46.1711 190.12 46.2113C190.585 46.7739 191.071 47.3459 191.527 47.9298C191.56 47.97 191.553 48.0434 191.544 48.0647C191.527 48.1594 191.45 48.2779 191.393 48.4059Z" fill="#163C5A"/>
<path d="M195.524 50.1311C195.244 50.8229 194.899 51.4863 194.384 52.0744C194.285 52.1834 194.183 52.2404 194.027 52.2478C193.061 52.3561 192.263 52.0285 191.566 51.4142C191.251 51.1473 191.12 50.809 191.183 50.3781C191.33 49.2959 191.733 48.327 192.477 47.5089C192.666 47.3121 192.834 47.1058 193.023 46.909C193.302 46.6244 193.64 46.4936 194.05 46.5473C194.9 46.6429 195.556 47.0607 196.088 47.7036C196.188 47.8242 196.235 47.9472 196.2 48.0846C196.085 48.518 195.969 48.9514 195.833 49.3754C195.762 49.6501 195.628 49.8966 195.524 50.1311Z" fill="#163C5A"/>
<g clip-path="url(#clip5)">
<path d="M217 37.7947C217.101 38.4629 218.782 40.731 219.673 41.1967C219.714 41.217 219.754 41.2372 219.795 41.2575C219.795 41.2575 219.795 41.2575 219.795 41.2777C219.795 41.298 219.795 41.298 219.795 41.3182C219.855 41.6625 219.936 42.1282 220.017 42.675C220.058 42.8572 220.078 43.0192 220.119 43.2217C220.179 43.5457 220.24 43.8697 220.301 44.2342C220.321 44.376 220.362 44.538 220.382 44.7C220.422 44.943 220.463 45.2062 220.524 45.4695C220.524 45.51 220.544 45.5505 220.544 45.591C220.584 45.7733 220.605 45.9555 220.645 46.158C220.767 46.8465 220.908 47.5553 221.03 48.2843C221.07 48.4868 221.111 48.669 221.131 48.8715C221.172 49.1145 221.232 49.3575 221.273 49.5803C221.313 49.803 221.354 50.0055 221.394 50.2283C221.496 50.775 221.617 51.3421 221.718 51.8686C221.739 51.9901 221.759 52.0913 221.799 52.2128C221.82 52.2938 221.84 52.3748 221.86 52.4558C221.88 52.5976 221.921 52.7393 221.941 52.8608C222.083 53.5696 222.245 54.2378 222.387 54.8453C222.407 54.9061 222.407 54.9668 222.427 55.0276C222.549 55.5541 222.69 56.0401 222.792 56.4654C222.812 56.5464 222.832 56.6071 222.852 56.6881C222.913 56.9109 222.974 57.0931 223.035 57.2754C223.156 57.6399 223.257 57.9031 223.359 58.0651C223.399 58.1461 223.44 58.2069 223.5 58.2271C223.683 58.3689 223.966 58.5309 224.351 58.7334C224.472 58.8144 224.614 58.8751 224.756 58.9561C225.08 59.1181 225.424 59.2801 225.789 59.4624C225.87 59.5029 225.951 59.5434 226.032 59.5839C226.153 59.6446 226.295 59.7054 226.416 59.7661C226.68 59.8876 226.963 60.0091 227.226 60.1104C227.692 60.2926 228.158 60.4749 228.583 60.6166C228.684 60.6571 228.786 60.6774 228.887 60.7179C229.454 60.9001 229.92 60.9811 230.203 60.9406C230.325 60.9204 230.406 60.8596 230.466 60.7989C230.507 60.7584 230.547 60.6976 230.588 60.6166C231.114 59.8471 231.56 59.1181 231.945 58.4296C232.35 57.7209 232.674 57.0526 232.917 56.4654C233.301 55.5136 233.484 54.7441 233.443 54.1163C233.443 54.0961 233.443 54.0758 233.443 54.0556C233.443 54.0353 233.443 53.9948 233.423 53.9746C233.362 53.6708 233.16 53.2253 232.856 52.6583C232.795 52.4356 232.674 52.2331 232.552 52.0103C232.552 52.0103 232.552 51.9901 232.532 51.9901C232.491 51.9496 232.471 51.8888 232.431 51.8483C232.147 51.4028 231.823 50.8966 231.459 50.37C231.216 50.0258 230.973 49.6613 230.689 49.2765C230.669 49.236 230.649 49.2158 230.628 49.1753C230.507 49.0133 230.385 48.831 230.244 48.6488C230.122 48.4868 230.021 48.345 229.899 48.183C229.839 48.102 229.778 48.021 229.717 47.94C229.373 47.454 229.008 46.9883 228.644 46.5023C228.543 46.3605 228.421 46.1985 228.32 46.0568C228.279 45.996 228.239 45.9555 228.198 45.8948C228.117 45.7733 228.016 45.672 227.935 45.5505C227.793 45.3682 227.652 45.1657 227.51 44.9835C227.024 44.3355 226.538 43.7077 226.072 43.1205C226.052 43.1002 226.032 43.08 226.032 43.0597C225.91 42.918 225.809 42.756 225.687 42.6142C225.627 42.5535 225.586 42.4927 225.546 42.432C225.384 42.2295 225.222 42.027 225.06 41.8245C224.918 41.6625 224.796 41.4802 224.655 41.3385C224.472 41.0955 224.29 40.893 224.128 40.6702C223.986 40.488 223.865 40.3259 223.743 40.1842C223.5 39.9007 223.318 39.6577 223.156 39.4754C223.44 38.7869 223.379 36.5999 222.792 35.5874C222.609 35.2634 222.387 35.0811 222.144 35.0204C222.123 35.0204 222.103 35.0204 222.063 35.0204C221.86 35.0001 221.516 35.0609 221.131 35.2027C220.281 35.4659 219.147 36.0127 218.296 36.5594C217.851 36.8227 217.486 37.1062 217.263 37.3289C217.061 37.5112 216.98 37.6732 217 37.7947Z" fill="#6EA4B7"/>
<path d="M219.369 41.2173C219.369 41.2173 219.369 41.1971 219.369 41.2173C219.369 41.1971 219.349 41.1971 219.369 41.2173Z" fill="#6EA4B7"/>
<path opacity="0.25" d="M221.131 35.1823C221.171 35.6886 221.212 36.2151 221.273 36.7213C221.333 37.2883 221.354 37.8553 221.921 38.1186C222.042 38.1793 222.225 38.1186 222.326 38.0376C222.792 37.6326 222.589 37.0048 222.468 36.4783C222.366 35.9923 222.265 35.5063 222.144 35.0406C222.123 35.0406 222.103 35.0406 222.063 35.0203C221.86 34.9798 221.536 35.0608 221.131 35.1823Z" fill="white"/>
<path opacity="0.54" d="M222.164 43.3227C223.156 42.8367 224.108 42.3305 225.06 41.8242C225.222 42.0267 225.384 42.2292 225.546 42.4317C225.586 42.4925 225.647 42.5532 225.687 42.614C225.809 42.7557 225.91 42.8975 226.032 43.0595C225.06 43.5455 224.088 43.991 223.136 44.4365C222.285 44.8212 221.435 45.206 220.584 45.5503C220.584 45.5098 220.564 45.4693 220.564 45.4288C220.503 45.1655 220.463 44.9225 220.422 44.6592C220.402 44.4972 220.362 44.3555 220.341 44.1935C220.929 43.9302 221.556 43.6265 222.164 43.3227ZM226.761 47.5348C227.429 47.1703 228.057 46.8463 228.664 46.502C229.029 46.988 229.393 47.474 229.737 47.9398C228.968 48.3448 228.219 48.7295 227.449 49.1143C225.546 50.066 223.642 50.9773 221.759 51.8076C221.637 51.2608 221.536 50.7141 221.435 50.1673C223.197 49.3573 224.979 48.4663 226.761 47.5348ZM226.983 57.4979C228.441 56.7689 229.899 55.9994 231.337 55.1893C231.398 55.1488 231.519 55.0881 231.58 55.0476C231.762 54.9463 231.965 54.8248 232.147 54.7236C232.491 54.5211 232.836 54.3186 233.18 54.0958C233.281 54.0351 233.362 53.9743 233.463 53.9136C233.463 53.9338 233.463 53.9743 233.484 53.9946C233.484 54.0148 233.484 54.0351 233.484 54.0553C233.524 54.6628 233.362 55.4526 232.957 56.4044C232.41 56.6676 231.884 56.9309 231.378 57.1941C229.697 58.0244 228.016 58.7534 226.376 59.4216C226.275 59.4621 226.173 59.5026 226.092 59.5431C226.011 59.5026 225.93 59.4621 225.849 59.4216C225.485 59.2596 225.141 59.0774 224.817 58.9154C224.675 58.8344 224.533 58.7736 224.412 58.6926C225.262 58.3281 226.133 57.9231 226.983 57.4979ZM224.088 54.2376C225.687 53.4681 227.307 52.6176 228.907 51.7671C229.737 51.3216 230.547 50.8761 231.378 50.4103C231.418 50.3901 231.438 50.3698 231.479 50.3496C231.843 50.8761 232.167 51.3823 232.451 51.8278C231.519 52.3341 230.588 52.8403 229.656 53.3061C227.388 54.4603 225.1 55.5134 222.852 56.4246C222.731 55.9994 222.609 55.5134 222.488 54.9868C223.014 54.7438 223.561 54.5008 224.088 54.2376Z" fill="#163C5A"/>
</g>
<g clip-path="url(#clip6)">
<path d="M229.106 27.8527C229.148 27.8793 228.93 28.0394 228.472 28.1094C228.057 28.206 227.375 28.255 226.629 28.0272C225.883 27.7994 225.03 27.2682 224.485 26.3369C223.94 25.4057 223.805 24.1969 224.048 23.046C224.17 22.4705 224.361 21.879 224.722 21.3937C224.882 21.1378 225.153 20.8923 225.397 20.6895C225.642 20.4867 225.972 20.337 226.276 20.23C226.925 20.0425 227.665 20.0892 228.236 20.5038C228.849 20.9448 229.096 21.6901 229.033 22.3614C229.001 22.697 228.858 23.0221 228.603 23.3368C228.374 23.6088 228.044 23.7585 227.698 23.8389C227.033 23.9572 226.484 23.793 226.057 23.5274C225.647 23.331 225.289 23.0493 225.044 22.778C224.799 22.5068 224.569 22.3047 224.409 22.0866C223.742 21.2568 223.25 20.2403 223.068 19.2978C222.885 18.3553 222.969 17.4604 223.213 16.7835C223.456 16.1067 223.818 15.6214 224.116 15.3333C224.43 15.1144 224.637 15.0661 224.68 15.0927C224.824 15.2416 224.271 15.8444 224.044 17.0645C223.965 17.6665 223.945 18.3643 224.165 19.1522C224.342 19.9136 224.785 20.7225 225.351 21.4299C225.468 21.6215 225.698 21.8235 225.9 22.0682C226.13 22.2702 226.359 22.4723 226.658 22.6582C227.255 23.0301 227.894 22.9544 227.973 22.3524C228.047 22.0434 227.881 21.6442 227.625 21.4848C227.353 21.2562 226.906 21.2143 226.49 21.3109C226.075 21.4075 225.692 21.6424 225.426 22.069C225.145 22.4263 224.964 22.906 224.827 23.4122C224.578 24.382 224.638 25.4259 224.996 26.1816C225.397 26.964 226.069 27.5008 226.746 27.7447C227.396 28.0313 227.982 28.041 228.414 28.0136C228.855 27.8744 229.063 27.8262 229.106 27.8527Z" fill="#00626B"/>
</g>
<g clip-path="url(#clip7)">
<path d="M213.105 59.6199C213.105 59.079 213.132 58.5381 213.159 57.9971C213.159 57.6726 213.159 57.3751 213.159 57.0505C213.159 56.9423 213.132 56.8071 213.295 56.753C213.484 56.6989 213.538 56.8612 213.592 56.9423C213.971 57.6455 214.322 58.3488 214.674 59.052C214.701 59.1061 214.728 59.1601 214.755 59.2413C215.08 59.1601 215.404 59.079 215.729 58.9979C216.053 58.9167 216.405 58.8626 216.729 58.7815C216.892 58.7544 217 58.8356 217 58.9708C217 59.079 216.946 59.1601 216.892 59.2683C216.675 59.6199 216.459 59.9986 216.189 60.3502C216.026 60.5666 215.999 60.7559 216.134 60.9723C216.351 61.3509 216.54 61.7296 216.729 62.0812C216.784 62.2164 216.838 62.3246 216.865 62.4598C216.919 62.7303 216.729 62.8385 216.432 62.7573C216.297 62.7303 216.189 62.6492 216.053 62.5951C215.594 62.3787 215.134 62.1623 214.674 61.9459C214.349 61.8107 214.322 61.8107 214.079 62.0541C213.7 62.4057 213.295 62.7573 212.916 63.136C212.889 63.163 212.862 63.2171 212.808 63.2442C212.7 63.2712 212.564 63.3524 212.483 63.2983C212.402 63.2712 212.321 63.136 212.348 63.0278C212.375 62.7844 212.429 62.568 212.483 62.3246C212.537 61.9459 212.591 61.5673 212.645 61.1886C212.672 60.9993 212.591 60.8911 212.375 60.81C211.969 60.6477 211.591 60.4584 211.185 60.2691C211.05 60.215 210.969 60.1338 210.996 59.9715C211.023 59.8363 211.158 59.8093 211.293 59.8093C211.888 59.7822 212.483 59.7011 213.105 59.6199Z" fill="#FFCA12"/>
</g>
<g clip-path="url(#clip8)">
<path d="M215.042 16C214.394 15.9718 214 15.6338 214 15.0704C214 14.4789 214.479 14 215.042 14C215.634 14 216.084 14.4225 216.084 14.9859C216.056 15.5775 215.634 16 215.042 16Z" fill="#00626B"/>
</g>
<g clip-path="url(#clip9)">
<path d="M239.409 31C238.437 30.9577 237.846 30.4507 237.846 29.6056C237.846 28.7183 238.564 28 239.409 28C240.296 28 240.972 28.6338 240.972 29.4789C240.93 30.3662 240.296 31 239.409 31Z" fill="#00626B"/>
</g>
<g clip-path="url(#clip10)">
<path d="M259.563 82C258.591 81.9577 258 81.4507 258 80.6056C258 79.7183 258.718 79 259.563 79C260.451 79 261.127 79.6338 261.127 80.4789C261.084 81.3662 260.451 82 259.563 82Z" fill="#00626B"/>
</g>
<path d="M259.711 94.2163C259.75 94.2238 259.634 94.4032 259.317 94.5836C259.038 94.7717 258.55 94.9997 257.936 95.0421C257.323 95.0844 256.545 94.9334 255.882 94.4012C255.218 93.8689 254.779 93.0169 254.634 92.101C254.561 91.6431 254.535 91.1538 254.664 90.6947C254.71 90.4614 254.84 90.2043 254.963 89.9861C255.086 89.7678 255.287 89.5647 255.48 89.4005C255.906 89.0796 256.464 88.9055 257.001 89.05C257.577 89.2021 257.968 89.6816 258.111 90.1935C258.182 90.4494 258.168 90.7292 258.069 91.0327C257.977 91.2974 257.776 91.5005 257.544 91.6572C257.087 91.9317 256.637 91.9653 256.248 91.8898C255.891 91.8608 255.548 91.754 255.291 91.6234C255.034 91.4928 254.808 91.4086 254.629 91.2931C253.904 90.8699 253.256 90.2599 252.856 89.6174C252.456 88.9749 252.266 88.2923 252.255 87.7253C252.244 87.1582 252.373 86.6991 252.511 86.4031C252.681 86.1536 252.82 86.0596 252.859 86.0671C253.007 86.1362 252.77 86.7357 252.946 87.698C253.057 88.1635 253.239 88.683 253.623 89.2013C253.967 89.7121 254.522 90.1828 255.137 90.5444C255.278 90.6524 255.504 90.7366 255.722 90.8596C255.948 90.9438 256.173 91.028 256.446 91.0808C256.99 91.1865 257.439 90.9508 257.328 90.4854C257.295 90.2369 257.061 89.9897 256.828 89.9444C256.563 89.8527 256.222 89.9478 255.943 90.1359C255.664 90.3239 255.448 90.6048 255.373 90.9937C255.266 91.3361 255.268 91.74 255.31 92.1515C255.4 92.9357 255.738 93.6873 256.214 94.1429C256.73 94.6061 257.376 94.8122 257.943 94.8012C258.502 94.8291 258.936 94.6713 259.246 94.5297C259.532 94.3027 259.672 94.2087 259.711 94.2163Z" fill="#00626B"/>
<g clip-path="url(#clip11)">
<path d="M176.493 53.1339C176.53 53.2459 176.568 53.358 176.53 53.47C176.381 54.1611 176.176 54.74 175.877 55.375C175.41 56.3462 175.223 56.6076 174.588 57.4854C174.495 57.6348 174.364 57.7656 174.233 57.8963C174.196 57.9523 174.121 57.971 174.065 57.9523C173.972 57.9337 173.934 57.8216 173.916 57.7469C173.729 57.0932 173.505 56.4396 173.243 55.8232C172.777 54.74 171.731 53.5074 171.058 52.5362C168.817 49.2866 168.444 48.8944 165.474 46.2984C165.941 46.205 166.296 45.8688 166.669 45.5887C167.024 45.3272 167.435 45.1405 167.771 44.879C167.827 44.8416 167.883 44.7856 167.939 44.7856C168.276 44.7296 169.023 45.3833 169.321 45.57C169.844 45.9062 170.349 46.2424 170.853 46.6159C171.824 47.3256 171.824 47.3069 172.683 48.1473C173.617 49.0438 173.486 48.8757 174.289 49.9029C174.719 50.4632 175.13 51.0608 175.522 51.6398C175.727 51.9573 175.933 52.2748 176.138 52.5736C176.213 52.723 176.4 52.9284 176.493 53.1339Z" fill="#FF9C19"/>
<path d="M168.836 51.7142C168.612 50.4629 168.238 49.249 167.827 48.0537C167.566 47.288 167.286 46.5223 166.95 45.7752C166.856 45.5884 166.781 45.4017 166.688 45.2336C166.632 45.1029 166.595 44.9908 166.445 44.9535C166.296 44.9348 165.96 45.1215 165.81 45.1776C165.381 45.327 164.708 45.4204 164.372 45.7192C164.055 45.9806 164.26 46.6717 164.298 47.0265C164.41 48.1844 164.578 49.3424 164.615 50.5003C164.652 51.6022 164.634 52.7227 164.615 53.8246C164.596 54.2168 164.634 54.609 164.596 55.0012C164.503 56.1031 164.671 55.4868 164.372 56.514C164.055 57.5412 164.129 57.2611 163.887 57.9334C163.719 58.4377 164.951 58.2509 165.175 58.2135C166.539 58.0268 167.939 57.8213 169.228 57.3918C169.303 57.3731 169.359 57.3544 169.415 57.2797C169.433 57.2424 169.452 57.2237 169.452 57.1864C169.209 54.1421 169.377 54.609 168.836 51.7142Z" fill="#FFAB19"/>
<path d="M163.55 24.6162C163.532 24.3547 163.457 24.1119 163.289 24.0746C163.214 24.0559 163.121 24.0559 163.046 24.0746C162.803 24.0932 162.561 24.1119 162.336 24.1493C162.206 24.1679 162.075 24.1866 161.963 24.2426C161.701 24.3547 161.72 24.5601 161.739 24.7469C161.814 25.2885 161.888 25.8488 161.963 26.3904C162.038 26.876 162.15 28.9117 163.289 28.5568C163.644 28.4448 163.588 28.0713 163.606 27.8471C163.625 27.4363 163.644 27.0254 163.644 26.6145C163.644 26.1476 163.606 25.6807 163.569 25.2138C163.55 25.1204 163.569 24.859 163.55 24.6162Z" fill="#163C5A"/>
<path d="M164.839 26.2033C164.764 26.7449 164.708 27.2865 164.634 27.8281C164.578 28.2577 164.428 28.8366 163.887 28.5565C163.812 28.5191 163.756 28.4818 163.7 28.4071C163.662 28.3511 163.662 28.2764 163.644 28.2017C163.569 27.5293 163.532 26.8383 163.513 26.1659C163.494 25.587 163.457 25.008 163.438 24.4291C163.438 24.3544 163.438 24.261 163.476 24.1863C163.55 24.0555 163.718 24.0182 163.868 24.0182C164.204 24.0182 164.764 23.9248 164.951 24.2983C165.045 24.5038 165.026 24.7466 164.988 24.9893C164.932 25.3815 164.876 25.7924 164.839 26.2033Z" fill="#64B8DA"/>
<path d="M166.016 24.056C165.661 24.0186 165.194 24.056 165.007 24.2427C164.82 24.4108 164.895 24.7283 164.858 24.9711C164.802 25.326 164.764 25.6995 164.708 26.0543C164.615 26.7827 164.54 27.5111 164.484 28.2208C164.484 28.3142 164.465 28.4262 164.521 28.5009C164.634 28.7064 164.876 28.725 165.082 28.6503C165.642 28.4822 165.922 27.2496 166.09 26.764C166.24 26.3345 166.37 25.8863 166.464 25.438C166.52 25.0458 166.875 24.3175 166.314 24.112C166.24 24.0933 166.128 24.056 166.016 24.056Z" fill="#163C5A"/>
<path d="M168.201 24.971C168.201 24.9523 168.182 24.9337 168.182 24.915C168.163 24.8776 168.126 24.859 168.089 24.8403C167.846 24.6909 167.584 24.5601 167.323 24.4294C167.248 24.3734 167.155 24.336 167.062 24.336C166.893 24.3174 166.744 24.4294 166.651 24.5601C166.483 24.7843 166.371 25.1204 166.277 25.3819C166.109 25.8675 165.978 26.3717 165.848 26.876C165.736 27.3616 165.53 27.8285 165.437 28.3141C165.418 28.3888 165.399 28.4635 165.455 28.5382C165.474 28.5755 165.53 28.6129 165.567 28.6315C165.754 28.7249 165.941 28.7996 166.146 28.837C166.202 28.8557 166.258 28.8557 166.296 28.837C166.333 28.8183 166.371 28.7996 166.389 28.7623C166.613 28.5195 166.763 28.2207 166.912 27.9405C167.211 27.3429 167.51 26.7453 167.809 26.1289C167.977 25.7741 168.145 25.4192 168.201 25.0457C168.201 25.027 168.201 24.9897 168.201 24.971Z" fill="#64B8DA"/>
<path d="M169.172 26.0168C169.284 25.774 169.359 25.5499 169.265 25.4378C169.209 25.3818 169.153 25.3444 169.078 25.3257C168.892 25.2324 168.705 25.139 168.518 25.0643C168.406 25.0269 168.313 24.9896 168.201 24.9896C167.958 24.9709 167.865 25.1577 167.79 25.3444C167.566 25.8487 167.342 26.3529 167.117 26.8572C166.912 27.3054 165.978 29.117 166.987 29.3224C167.304 29.3972 167.454 29.0423 167.584 28.8555C167.808 28.5194 168.033 28.1645 168.238 27.8097C168.481 27.3988 168.686 26.9879 168.892 26.5771C168.91 26.4463 169.06 26.2409 169.172 26.0168Z" fill="#163C5A"/>
<path d="M169.452 28.0334C169.116 28.4629 168.78 28.8925 168.425 29.322C168.163 29.6582 167.715 30.0878 167.416 29.5648C167.379 29.4901 167.342 29.4154 167.342 29.3407C167.342 29.266 167.379 29.1913 167.398 29.1353C167.678 28.519 168.014 27.9213 168.35 27.3237C168.63 26.8194 168.91 26.3152 169.191 25.8109C169.228 25.7362 169.265 25.6615 169.34 25.6241C169.471 25.5494 169.639 25.6055 169.77 25.6802C170.068 25.8483 170.591 26.0537 170.554 26.4646C170.535 26.6887 170.386 26.8941 170.236 27.0809C169.975 27.3984 169.713 27.7159 169.452 28.0334Z" fill="#64B8DA"/>
<path d="M171.581 26.8014C171.301 26.5773 170.89 26.3905 170.61 26.4466C170.367 26.5026 170.255 26.8014 170.106 27.0068C169.882 27.287 169.639 27.5671 169.415 27.866C168.966 28.4449 168.518 29.0239 168.089 29.6028C168.033 29.6775 167.977 29.7709 167.958 29.8643C167.939 30.1071 168.145 30.2378 168.35 30.2939C168.91 30.4246 169.788 29.5281 170.18 29.192C170.535 28.8931 170.871 28.5756 171.189 28.2395C171.469 27.9407 172.141 27.4924 171.768 27.0442C171.749 26.9508 171.675 26.8761 171.581 26.8014Z" fill="#163C5A"/>
<path d="M172.982 28.725C172.982 28.7063 173.001 28.6876 173.001 28.669C173.001 28.6316 172.982 28.5943 172.963 28.5569C172.833 28.2954 172.683 28.0527 172.534 27.8099C172.478 27.7352 172.422 27.6605 172.347 27.6044C172.216 27.511 172.029 27.5297 171.88 27.5858C171.619 27.6978 171.357 27.9219 171.133 28.09C170.741 28.4262 170.367 28.781 169.994 29.1546C169.639 29.5094 169.228 29.8082 168.892 30.1817C168.836 30.2378 168.78 30.2938 168.78 30.3872C168.78 30.4432 168.798 30.4806 168.836 30.5366C168.948 30.7047 169.079 30.8728 169.228 31.0222C169.265 31.0595 169.303 31.0969 169.359 31.1156C169.396 31.1156 169.433 31.1156 169.471 31.0969C169.788 31.0035 170.068 30.8354 170.349 30.6486C170.909 30.2938 171.469 29.9203 172.048 29.5654C172.366 29.36 172.702 29.1359 172.945 28.8371C172.945 28.781 172.963 28.7437 172.982 28.725Z" fill="#64B8DA"/>
<path d="M173.355 29.7141C173.561 29.546 173.729 29.378 173.692 29.2285C173.673 29.1538 173.636 29.0978 173.58 29.0418C173.449 28.8737 173.318 28.7056 173.187 28.5562C173.113 28.4815 173.038 28.3881 172.945 28.3321C172.739 28.22 172.571 28.3321 172.422 28.4628C171.992 28.8177 171.562 29.1725 171.133 29.5274C170.759 29.8449 169.116 31.0401 169.919 31.6751C170.18 31.8806 170.461 31.6378 170.647 31.5257C171.002 31.3203 171.357 31.0962 171.693 30.8721C172.085 30.6106 172.459 30.3491 172.832 30.0503C172.926 30.0129 173.15 29.8635 173.355 29.7141Z" fill="#163C5A"/>
<path d="M172.702 31.6568C172.198 31.8809 171.712 32.1237 171.208 32.3478C170.816 32.5345 170.237 32.7213 170.199 32.105C170.199 32.0303 170.199 31.9369 170.237 31.8809C170.274 31.8248 170.33 31.7688 170.386 31.7315C170.928 31.3019 171.469 30.9097 172.048 30.5362C172.534 30.2187 173.001 29.8825 173.468 29.5463C173.542 29.509 173.598 29.453 173.692 29.453C173.841 29.4343 173.972 29.565 174.047 29.6958C174.233 29.9759 174.607 30.4054 174.383 30.7603C174.252 30.9471 174.047 31.0591 173.822 31.1712C173.449 31.3206 173.075 31.4887 172.702 31.6568Z" fill="#64B8DA"/>
<path d="M175.148 31.5069C174.999 31.1894 174.719 30.8159 174.439 30.7598C174.196 30.7038 173.972 30.9279 173.748 31.0213C173.411 31.1707 173.094 31.3201 172.758 31.4882C172.104 31.8057 171.45 32.1232 170.797 32.4594C170.703 32.4967 170.629 32.5528 170.573 32.6275C170.461 32.8329 170.573 33.0383 170.741 33.1877C171.17 33.5613 172.384 33.1504 172.87 33.0197C173.318 32.9076 173.766 32.7769 174.196 32.6088C174.569 32.4594 175.391 32.366 175.26 31.787C175.242 31.7123 175.204 31.6189 175.148 31.5069Z" fill="#163C5A"/>
<path d="M175.559 33.8417C175.578 33.8231 175.578 33.8044 175.597 33.8044C175.615 33.767 175.615 33.7297 175.615 33.6923C175.615 33.4122 175.597 33.1134 175.559 32.8332C175.541 32.7399 175.541 32.6465 175.484 32.5718C175.41 32.4224 175.223 32.3477 175.074 32.3477C174.793 32.329 174.457 32.4037 174.177 32.4597C173.673 32.5718 173.187 32.7399 172.683 32.9079C172.216 33.076 171.712 33.1507 171.245 33.3375C171.17 33.3562 171.096 33.3935 171.058 33.4682C171.04 33.5056 171.04 33.5616 171.04 33.6176C171.058 33.8231 171.096 34.0285 171.17 34.2153C171.189 34.2713 171.208 34.3087 171.245 34.346C171.282 34.3647 171.32 34.3834 171.357 34.3834C171.675 34.4394 172.011 34.4207 172.328 34.3834C173.001 34.3087 173.654 34.2339 174.327 34.1592C174.719 34.1219 175.111 34.0659 175.466 33.9165C175.503 33.8791 175.522 33.8604 175.559 33.8417Z" fill="#64B8DA"/>
<path d="M175.186 35.2241C175.447 35.1868 175.69 35.1307 175.727 34.9813C175.746 34.9066 175.746 34.8319 175.727 34.7572C175.709 34.5518 175.671 34.3463 175.634 34.1409C175.615 34.0288 175.597 33.9168 175.541 33.8234C175.428 33.618 175.204 33.6366 175.018 33.6553C174.476 33.73 173.916 33.8234 173.374 33.8981C172.889 33.9728 170.853 34.1409 171.226 35.1121C171.338 35.4109 171.712 35.3548 171.936 35.3548C172.347 35.3548 172.758 35.3548 173.169 35.3362C173.636 35.3175 174.102 35.2801 174.569 35.2241C174.681 35.2428 174.943 35.2428 175.186 35.2241Z" fill="#163C5A"/>
<path d="M173.636 36.55C173.094 36.494 172.552 36.438 171.992 36.382C171.562 36.3446 170.965 36.1952 171.245 35.6536C171.282 35.5789 171.32 35.5228 171.394 35.4668C171.45 35.4295 171.525 35.4108 171.6 35.4108C172.272 35.3174 172.963 35.2614 173.636 35.2427C174.214 35.2054 174.793 35.168 175.372 35.1306C175.447 35.1306 175.54 35.112 175.615 35.1493C175.746 35.224 175.783 35.3921 175.783 35.5415C175.802 35.8777 175.895 36.438 175.54 36.6247C175.335 36.7368 175.092 36.6994 174.849 36.6808C174.457 36.6434 174.046 36.6061 173.636 36.55Z" fill="#64B8DA"/>
<path d="M175.821 37.6901C175.858 37.3352 175.802 36.8683 175.615 36.6816C175.428 36.4948 175.13 36.5882 174.887 36.5508C174.532 36.5135 174.158 36.4761 173.804 36.4388C173.075 36.3641 172.347 36.308 171.619 36.252C171.525 36.252 171.413 36.2333 171.338 36.2894C171.133 36.4014 171.133 36.6442 171.189 36.8497C171.376 37.3913 172.608 37.6527 173.113 37.8208C173.561 37.9515 173.99 38.0636 174.457 38.157C174.849 38.2317 175.597 38.5679 175.783 38.0076C175.783 37.9142 175.802 37.8021 175.821 37.6901Z" fill="#163C5A"/>
<path d="M174.943 39.893C174.962 39.893 174.98 39.8744 174.999 39.8744C175.036 39.8557 175.055 39.8183 175.074 39.781C175.223 39.5382 175.354 39.2767 175.466 39.0153C175.503 38.9219 175.541 38.8472 175.541 38.7538C175.541 38.5857 175.428 38.4363 175.298 38.3429C175.055 38.1935 174.737 38.0628 174.476 37.9881C173.99 37.82 173.486 37.7079 172.963 37.5959C172.478 37.4838 172.011 37.2971 171.506 37.2037C171.432 37.185 171.338 37.185 171.282 37.2224C171.245 37.2597 171.208 37.2971 171.189 37.3531C171.096 37.5398 171.04 37.7266 170.984 37.932C170.965 37.9881 170.965 38.0441 170.984 38.0815C171.002 38.1188 171.021 38.1562 171.058 38.1748C171.301 38.3989 171.6 38.5297 171.899 38.6791C172.515 38.9592 173.113 39.2394 173.729 39.5195C174.084 39.6876 174.439 39.8557 174.831 39.893C174.887 39.893 174.924 39.893 174.943 39.893Z" fill="#64B8DA"/>
<path d="M174.177 40.7144C174.42 40.7891 174.681 40.8265 174.756 40.6958C174.793 40.6397 174.831 40.565 174.849 40.4903C174.906 40.2849 174.962 40.0981 175.018 39.8927C175.036 39.7806 175.055 39.6686 175.055 39.5565C175.018 39.3137 174.831 39.2577 174.644 39.2017C174.102 39.0709 173.561 38.9215 173.038 38.7908C172.571 38.6787 170.629 38.0437 170.591 39.0709C170.573 39.3884 170.946 39.4818 171.152 39.5752C171.525 39.7433 171.917 39.8927 172.291 40.0421C172.72 40.2102 173.169 40.3596 173.617 40.4903C173.692 40.5464 173.934 40.6397 174.177 40.7144Z" fill="#163C5A"/>
<path d="M172.216 41.3314C171.731 41.0699 171.264 40.8085 170.778 40.547C170.405 40.3416 169.919 39.9867 170.386 39.5758C170.442 39.5198 170.517 39.4825 170.591 39.4638C170.666 39.4451 170.741 39.4638 170.815 39.4825C171.469 39.6692 172.123 39.8747 172.758 40.1175C173.299 40.3229 173.86 40.491 174.401 40.6777C174.476 40.6964 174.551 40.7338 174.607 40.7898C174.7 40.9019 174.663 41.0886 174.625 41.2194C174.513 41.5368 174.383 42.0971 173.972 42.1158C173.748 42.1345 173.523 42.0224 173.318 41.9104C172.944 41.7236 172.59 41.5368 172.216 41.3314Z" fill="#64B8DA"/>
<path d="M173.804 43.2177C173.972 42.9002 174.102 42.452 173.99 42.2092C173.897 41.9664 173.579 41.9291 173.355 41.7983C173.038 41.6116 172.72 41.4435 172.403 41.2754C171.768 40.9206 171.114 40.5844 170.461 40.2669C170.367 40.2295 170.274 40.1735 170.18 40.1922C169.938 40.2109 169.844 40.4537 169.826 40.6591C169.788 41.2381 170.815 41.9477 171.208 42.2839C171.562 42.5827 171.917 42.8629 172.31 43.1057C172.646 43.3298 173.206 43.9274 173.598 43.4792C173.673 43.4232 173.748 43.3298 173.804 43.2177Z" fill="#163C5A"/>
<path d="M172.141 44.9166C172.16 44.9166 172.179 44.9166 172.197 44.9166C172.235 44.9166 172.272 44.8792 172.291 44.8605C172.515 44.6924 172.739 44.5057 172.945 44.3002C173.019 44.2442 173.075 44.1695 173.113 44.0948C173.187 43.9454 173.15 43.7586 173.057 43.6279C172.907 43.3851 172.646 43.161 172.44 42.9742C172.048 42.6381 171.637 42.3392 171.208 42.0404C170.797 41.7603 170.442 41.4054 170.012 41.1253C169.956 41.0879 169.882 41.0319 169.807 41.0506C169.751 41.0693 169.714 41.0879 169.676 41.1253C169.527 41.256 169.377 41.4241 169.265 41.5922C169.228 41.6295 169.209 41.6856 169.209 41.7416C169.209 41.779 169.228 41.8163 169.247 41.8537C169.377 42.1525 169.601 42.3953 169.826 42.6381C170.274 43.1423 170.722 43.6279 171.17 44.1322C171.432 44.4123 171.693 44.7111 172.029 44.8979C172.085 44.8979 172.104 44.9166 172.141 44.9166Z" fill="#64B8DA"/>
<path d="M170.815 45.4403C170.984 45.6271 171.189 45.7951 171.32 45.7391C171.394 45.7204 171.45 45.6644 171.488 45.6084C171.637 45.4776 171.787 45.3282 171.936 45.1788C172.011 45.1041 172.085 45.0107 172.123 44.9174C172.216 44.6933 172.085 44.5438 171.955 44.3944C171.562 44.0022 171.17 43.61 170.778 43.2178C170.442 42.8817 169.097 41.3315 168.537 42.1906C168.35 42.4708 168.63 42.7323 168.761 42.919C169.004 43.2552 169.247 43.5914 169.489 43.9089C169.788 44.2824 170.087 44.6372 170.405 44.9734C170.498 45.0481 170.647 45.2535 170.815 45.4403Z" fill="#163C5A"/>
<path d="M168.817 44.9725C168.537 44.5056 168.275 44.02 167.995 43.5531C167.771 43.1796 167.547 42.6193 168.145 42.5259C168.219 42.5073 168.313 42.5073 168.369 42.5446C168.444 42.5633 168.481 42.6193 168.537 42.6753C169.004 43.1609 169.452 43.6839 169.882 44.2255C170.236 44.6737 170.629 45.1033 171.002 45.5515C171.058 45.6075 171.114 45.6822 171.114 45.7569C171.133 45.9063 171.021 46.0371 170.909 46.1304C170.647 46.3359 170.255 46.7468 169.882 46.56C169.676 46.4479 169.545 46.2425 169.433 46.0371C169.228 45.6822 169.023 45.3274 168.817 44.9725Z" fill="#64B8DA"/>
<path d="M169.191 47.3815C169.489 47.1947 169.844 46.8772 169.882 46.6157C169.919 46.3729 169.676 46.1488 169.545 45.9434C169.359 45.6259 169.191 45.3084 169.004 44.9909C168.63 44.3559 168.257 43.7396 167.865 43.1233C167.809 43.0486 167.752 42.9552 167.678 42.9179C167.472 42.8245 167.267 42.9552 167.136 43.1233C166.8 43.5902 167.323 44.7481 167.491 45.2337C167.64 45.6633 167.809 46.0928 168.014 46.5224C168.182 46.8959 168.35 47.699 168.91 47.5122C168.985 47.4935 169.097 47.4562 169.191 47.3815Z" fill="#163C5A"/>
<path d="M166.893 47.9984C166.912 48.017 166.931 48.017 166.949 48.0357C166.987 48.0544 167.024 48.0544 167.062 48.0357C167.342 47.9984 167.64 47.961 167.921 47.905C168.014 47.8863 168.107 47.8676 168.182 47.8116C168.313 47.7182 168.388 47.5315 168.369 47.3821C168.35 47.1019 168.257 46.7657 168.163 46.5043C167.995 46.0187 167.809 45.5331 167.584 45.0662C167.379 44.5993 167.248 44.1137 167.043 43.6655C167.006 43.5908 166.968 43.5161 166.893 43.4974C166.837 43.4787 166.8 43.4787 166.744 43.4974C166.539 43.5348 166.352 43.5908 166.146 43.6842C166.09 43.7028 166.053 43.7215 166.016 43.7775C165.997 43.8149 165.978 43.8523 165.978 43.8896C165.941 44.2071 166.016 44.5433 166.072 44.8608C166.202 45.5144 166.333 46.1681 166.464 46.8404C166.539 47.214 166.613 47.6062 166.8 47.9423C166.856 47.9423 166.875 47.9797 166.893 47.9984Z" fill="#64B8DA"/>
<path d="M165.829 47.9799C165.904 48.2227 165.997 48.4655 166.146 48.4655C166.221 48.4655 166.296 48.4468 166.352 48.4282C166.557 48.3721 166.744 48.3161 166.949 48.2414C167.062 48.204 167.155 48.1667 167.248 48.092C167.435 47.9426 167.379 47.7371 167.323 47.5504C167.155 47.0274 166.968 46.5045 166.8 45.9629C166.651 45.496 166.146 43.535 165.25 44.0393C164.97 44.2073 165.082 44.5622 165.119 44.7863C165.175 45.1972 165.25 45.6081 165.343 46.0003C165.437 46.4672 165.549 46.9154 165.68 47.3636C165.717 47.4757 165.754 47.7371 165.829 47.9799Z" fill="#163C5A"/>
<path d="M164.26 46.6537C164.223 46.1121 164.185 45.5518 164.148 45.0102C164.129 44.5807 164.167 43.983 164.746 44.1511C164.82 44.1698 164.895 44.2071 164.951 44.2632C165.007 44.3192 165.026 44.3939 165.044 44.4686C165.25 45.1223 165.418 45.7759 165.567 46.4483C165.698 47.0086 165.829 47.5689 165.978 48.1291C165.997 48.2039 166.016 48.2972 165.997 48.3719C165.96 48.5213 165.792 48.5774 165.642 48.6147C165.306 48.6894 164.783 48.8762 164.54 48.54C164.409 48.3533 164.391 48.1105 164.372 47.8677C164.316 47.4755 164.279 47.0646 164.26 46.6537Z" fill="#64B8DA"/>
<path d="M163.513 48.9878C163.868 48.9504 164.316 48.8384 164.466 48.6143C164.615 48.4088 164.484 48.11 164.466 47.8672C164.447 47.5124 164.428 47.1388 164.409 46.784C164.353 46.0556 164.297 45.3272 164.223 44.5989C164.204 44.5055 164.204 44.3934 164.148 44.3187C163.999 44.132 163.756 44.1693 163.569 44.2627C163.065 44.5428 163.009 45.7942 162.934 46.3171C162.878 46.7653 162.841 47.2322 162.822 47.6991C162.822 48.11 162.617 48.8944 163.196 48.9878C163.289 49.0065 163.401 49.0065 163.513 48.9878Z" fill="#163C5A"/>
<path d="M161.179 48.5215C161.179 48.5402 161.197 48.5588 161.216 48.5775C161.235 48.6149 161.272 48.6149 161.309 48.6335C161.589 48.7269 161.851 48.8203 162.131 48.895C162.224 48.9137 162.318 48.951 162.411 48.9324C162.579 48.9137 162.71 48.7829 162.766 48.6335C162.878 48.3721 162.934 48.0359 162.99 47.7558C163.065 47.2515 163.102 46.7286 163.121 46.2056C163.14 45.7014 163.252 45.2158 163.252 44.7115C163.252 44.6368 163.252 44.5434 163.196 44.4874C163.158 44.4501 163.102 44.4314 163.065 44.4127C162.859 44.3567 162.654 44.3193 162.448 44.3193C162.392 44.3193 162.336 44.3193 162.299 44.338C162.262 44.3567 162.243 44.394 162.224 44.4314C162.056 44.7115 161.963 45.029 161.87 45.3465C161.701 46.0002 161.515 46.6352 161.347 47.2888C161.253 47.6624 161.141 48.0359 161.16 48.4281C161.179 48.4468 161.179 48.4841 161.179 48.5215Z" fill="#64B8DA"/>
<path d="M160.039 47.6812C159.965 47.924 159.946 48.1854 160.058 48.2601C160.114 48.2975 160.189 48.3162 160.263 48.3348C160.469 48.3909 160.674 48.4469 160.88 48.4842C160.992 48.5029 161.104 48.5216 161.216 48.5029C161.459 48.4656 161.515 48.2601 161.552 48.0734C161.683 47.5318 161.795 46.9901 161.926 46.4485C162.038 45.9816 162.617 44.0206 161.589 44.002C161.272 44.002 161.179 44.3755 161.104 44.5809C160.954 44.9544 160.805 45.3466 160.656 45.7388C160.506 46.1871 160.357 46.6353 160.245 47.0835C160.189 47.1956 160.095 47.4384 160.039 47.6812Z" fill="#163C5A"/>
<path d="M159.367 45.7383C159.61 45.2528 159.871 44.7672 160.114 44.2816C160.319 43.9081 160.656 43.4038 161.066 43.852C161.122 43.9081 161.16 43.9828 161.178 44.0575C161.197 44.1322 161.178 44.2069 161.16 44.2816C160.992 44.9353 160.805 45.5889 160.581 46.2426C160.394 46.7842 160.226 47.3445 160.058 47.8861C160.039 47.9608 160.002 48.0355 159.946 48.0915C159.834 48.1849 159.666 48.1662 159.516 48.1102C159.199 47.9982 158.639 47.8861 158.601 47.4752C158.583 47.2511 158.695 47.027 158.788 46.8216C158.993 46.4667 159.18 46.0932 159.367 45.7383Z" fill="#64B8DA"/>
<path d="M157.518 47.3445C157.836 47.5125 158.284 47.6246 158.527 47.5125C158.769 47.4192 158.807 47.083 158.919 46.8776C159.087 46.5601 159.255 46.2426 159.423 45.9064C159.759 45.2527 160.077 44.5991 160.394 43.9454C160.431 43.852 160.469 43.7586 160.469 43.6653C160.431 43.4225 160.207 43.3291 160.002 43.3291C159.423 43.2917 158.732 44.3563 158.414 44.7671C158.134 45.122 157.854 45.4955 157.611 45.8877C157.387 46.2239 156.808 46.8029 157.257 47.1764C157.313 47.2324 157.406 47.3071 157.518 47.3445Z" fill="#163C5A"/>
<path d="M155.781 45.7392C155.781 45.7578 155.781 45.7765 155.781 45.7952C155.781 45.8325 155.818 45.8699 155.837 45.8886C156.024 46.1127 156.211 46.3368 156.416 46.5422C156.472 46.6169 156.547 46.673 156.64 46.7103C156.79 46.785 156.976 46.729 157.107 46.6356C157.331 46.4675 157.574 46.2061 157.742 46.0006C158.078 45.6084 158.358 45.1789 158.657 44.7493C158.937 44.3385 159.274 43.9649 159.554 43.5354C159.591 43.4793 159.628 43.4046 159.61 43.3299C159.591 43.2739 159.572 43.2366 159.535 43.1992C159.404 43.0498 159.236 42.9191 159.068 42.807C159.031 42.7697 158.975 42.751 158.919 42.751C158.881 42.751 158.844 42.7697 158.807 42.7883C158.508 42.9377 158.265 43.1619 158.041 43.386C157.555 43.8529 157.07 44.3198 156.584 44.768C156.304 45.0295 156.024 45.3096 155.837 45.6458C155.8 45.6831 155.781 45.7018 155.781 45.7392Z" fill="#64B8DA"/>
<path d="M155.277 44.7863C155.109 44.9918 154.978 45.1972 155.053 45.328C155.09 45.384 155.146 45.44 155.202 45.4774C155.37 45.6081 155.52 45.7388 155.706 45.8509C155.8 45.9069 155.893 45.9816 156.005 46.0003C156.229 46.0563 156.379 45.9069 156.491 45.7575C156.827 45.3093 157.163 44.8611 157.481 44.4315C157.779 44.0393 159.105 42.4892 158.172 42.0596C157.873 41.9289 157.649 42.2277 157.499 42.3771C157.201 42.6573 156.902 42.9561 156.622 43.2549C156.304 43.5911 155.987 43.9459 155.706 44.3194C155.613 44.4128 155.426 44.5809 155.277 44.7863Z" fill="#163C5A"/>
<path d="M155.445 42.7318C155.874 42.3956 156.304 42.0408 156.734 41.7046C157.07 41.4431 157.593 41.1257 157.779 41.7046C157.798 41.7793 157.817 41.854 157.798 41.9287C157.779 42.0034 157.742 42.0595 157.686 42.1155C157.275 42.6571 156.827 43.1614 156.36 43.6656C155.968 44.0952 155.594 44.5247 155.202 44.9543C155.146 45.0103 155.09 45.085 155.015 45.1037C154.866 45.1597 154.716 45.0477 154.604 44.9543C154.362 44.7302 153.895 44.394 154.025 44.0018C154.1 43.7777 154.287 43.6283 154.474 43.4789C154.81 43.2547 155.127 42.9933 155.445 42.7318Z" fill="#64B8DA"/>
<path d="M153.11 43.4604C153.335 43.7405 153.689 44.0206 153.97 44.0206C154.231 44.0206 154.399 43.7405 154.586 43.5911C154.866 43.367 155.165 43.1429 155.445 42.9187C156.005 42.4705 156.566 42.0036 157.126 41.518C157.201 41.462 157.275 41.3873 157.294 41.2939C157.369 41.0698 157.182 40.883 156.995 40.7897C156.472 40.5282 155.408 41.2192 154.959 41.4433C154.548 41.6488 154.156 41.8916 153.764 42.1343C153.428 42.3585 152.662 42.6386 152.924 43.1802C152.961 43.2923 153.017 43.367 153.11 43.4604Z" fill="#163C5A"/>
<path d="M152.158 41.2939C152.139 41.3126 152.139 41.3313 152.139 41.3499C152.139 41.3873 152.139 41.4246 152.158 41.462C152.233 41.7421 152.326 42.0223 152.419 42.2837C152.457 42.3771 152.494 42.4518 152.55 42.5265C152.662 42.6573 152.849 42.6759 153.017 42.6573C153.297 42.6012 153.615 42.4518 153.857 42.3398C154.324 42.1157 154.773 41.8355 155.202 41.5554C155.632 41.2939 156.08 41.0885 156.509 40.8083C156.565 40.771 156.64 40.7149 156.659 40.6402C156.678 40.5842 156.659 40.5469 156.64 40.4908C156.565 40.3041 156.491 40.1173 156.379 39.9305C156.36 39.8932 156.323 39.8372 156.267 39.8185C156.229 39.7998 156.192 39.7998 156.155 39.7998C155.837 39.8185 155.52 39.9305 155.202 40.0426C154.567 40.2667 153.932 40.4908 153.316 40.7149C152.942 40.8457 152.587 40.9764 152.27 41.2192C152.214 41.2379 152.177 41.2565 152.158 41.2939Z" fill="#64B8DA"/>
<path d="M152.195 39.8552C151.953 39.9485 151.728 40.0606 151.728 40.21C151.728 40.2847 151.747 40.3594 151.766 40.4154C151.84 40.6209 151.915 40.8076 151.99 40.9944C152.027 41.0878 152.083 41.1998 152.158 41.2745C152.326 41.4426 152.531 41.3866 152.7 41.3119C153.222 41.1065 153.727 40.901 154.25 40.6956C154.698 40.5088 156.64 39.8738 156.061 39.0147C155.875 38.7533 155.538 38.884 155.314 38.94C154.903 39.0334 154.511 39.1268 154.119 39.2388C153.671 39.3696 153.222 39.519 152.774 39.6684C152.681 39.7057 152.438 39.7804 152.195 39.8552Z" fill="#163C5A"/>
<path d="M153.409 38.1936C153.951 38.1189 154.492 38.0442 155.034 37.9695C155.464 37.9134 156.061 37.9134 155.931 38.5111C155.912 38.5858 155.893 38.6605 155.837 38.7165C155.781 38.7726 155.706 38.7912 155.65 38.8286C155.015 39.0714 154.362 39.2768 153.708 39.4822C153.148 39.6503 152.606 39.8184 152.046 40.0052C151.971 40.0239 151.878 40.0612 151.803 40.0425C151.654 40.0052 151.579 39.8371 151.542 39.7064C151.448 39.3889 151.224 38.8659 151.542 38.6045C151.71 38.4551 151.971 38.4177 152.195 38.3804C152.587 38.3056 152.998 38.2496 153.409 38.1936Z" fill="#64B8DA"/>
<path d="M151.019 37.6138C151.075 37.9687 151.224 38.3982 151.467 38.5476C151.691 38.6783 151.971 38.5289 152.214 38.5103C152.569 38.4729 152.942 38.4169 153.297 38.3795C154.026 38.2861 154.735 38.1741 155.464 38.0434C155.557 38.0247 155.65 38.006 155.725 37.95C155.893 37.8006 155.837 37.5578 155.725 37.371C155.426 36.8854 154.156 36.9228 153.633 36.8854C153.166 36.8481 152.718 36.8481 152.251 36.8668C151.84 36.8854 151.037 36.736 151 37.315C151 37.3897 151 37.5018 151.019 37.6138Z" fill="#163C5A"/>
<path d="M151.336 35.2612C151.317 35.2612 151.299 35.2798 151.28 35.2985C151.261 35.3359 151.243 35.3732 151.224 35.4106C151.149 35.6907 151.075 35.9708 151.019 36.251C151.019 36.3257 151 36.4191 151.019 36.5125C151.056 36.6805 151.187 36.7926 151.355 36.8486C151.616 36.942 151.971 36.9794 152.251 36.998C152.774 37.0354 153.278 37.0354 153.801 37.0167C154.306 36.998 154.791 37.0727 155.296 37.0541C155.37 37.0541 155.464 37.0354 155.501 36.9794C155.538 36.942 155.557 36.886 155.557 36.8486C155.594 36.6432 155.613 36.4378 155.613 36.2323C155.613 36.1763 155.613 36.1203 155.576 36.0829C155.557 36.0456 155.52 36.0269 155.482 36.0082C155.202 35.8588 154.866 35.7841 154.548 35.7281C153.895 35.5973 153.241 35.4666 152.569 35.3359C152.195 35.2612 151.803 35.1865 151.411 35.2238C151.411 35.2425 151.374 35.2425 151.336 35.2612Z" fill="#64B8DA"/>
<path d="M151.784 34.2895C151.523 34.2521 151.28 34.2708 151.205 34.4015C151.168 34.4575 151.168 34.5322 151.149 34.607C151.112 34.8124 151.112 35.0178 151.093 35.2233C151.093 35.3353 151.093 35.4474 151.112 35.5594C151.187 35.7836 151.392 35.8209 151.579 35.8396C152.139 35.8769 152.681 35.933 153.241 35.9703C153.727 36.0077 155.744 36.3065 155.613 35.2793C155.576 34.9618 155.202 34.9244 154.978 34.8684C154.586 34.775 154.175 34.6817 153.764 34.607C153.297 34.5136 152.849 34.4575 152.382 34.4015C152.27 34.3642 152.027 34.3081 151.784 34.2895Z" fill="#163C5A"/>
<path d="M153.596 33.338C154.119 33.5248 154.623 33.6929 155.146 33.8796C155.557 34.0104 156.099 34.2905 155.706 34.7574C155.65 34.8134 155.594 34.8695 155.52 34.9068C155.445 34.9255 155.37 34.9255 155.296 34.9255C154.623 34.8695 153.951 34.7574 153.279 34.6454C152.718 34.552 152.139 34.4586 151.56 34.3652C151.486 34.3465 151.392 34.3279 151.336 34.2905C151.224 34.1971 151.224 34.0104 151.261 33.861C151.318 33.5248 151.355 32.9645 151.747 32.8711C151.971 32.8151 152.214 32.8898 152.419 32.9645C152.812 33.0766 153.204 33.2073 153.596 33.338Z" fill="#64B8DA"/>
<path d="M151.728 31.7501C151.616 32.0863 151.56 32.5532 151.71 32.7773C151.84 33.0014 152.177 32.9827 152.401 33.0761C152.737 33.2068 153.092 33.3189 153.428 33.4309C154.119 33.6737 154.81 33.8792 155.501 34.1033C155.594 34.122 155.688 34.1593 155.781 34.1406C156.005 34.0846 156.061 33.8418 156.043 33.6177C155.987 33.0387 154.847 32.5158 154.399 32.2543C154.007 32.0116 153.596 31.8061 153.166 31.6194C152.793 31.4513 152.139 30.9657 151.84 31.4699C151.803 31.5447 151.766 31.638 151.728 31.7501Z" fill="#163C5A"/>
<path d="M152.961 29.7705C152.942 29.7705 152.924 29.7705 152.905 29.7892C152.868 29.8079 152.83 29.8452 152.812 29.8639C152.606 30.1067 152.419 30.3495 152.233 30.6109C152.177 30.6856 152.121 30.779 152.102 30.8724C152.065 31.0405 152.158 31.2273 152.289 31.358C152.513 31.5634 152.849 31.7502 153.11 31.8996C153.615 32.1611 154.138 32.3852 154.661 32.5906C155.165 32.796 155.632 33.0762 156.155 33.263C156.229 33.3003 156.323 33.319 156.397 33.2816C156.453 33.263 156.491 33.2069 156.509 33.1696C156.64 32.9828 156.752 32.796 156.846 32.5906C156.864 32.5346 156.883 32.4786 156.883 32.4225C156.883 32.3852 156.846 32.3478 156.827 32.3105C156.603 32.0303 156.304 31.8249 156.024 31.6194C155.426 31.2086 154.829 30.7977 154.231 30.3868C153.876 30.144 153.521 29.9012 153.129 29.7892C153.036 29.7705 152.998 29.7705 152.961 29.7705Z" fill="#64B8DA"/>
<path d="M154.754 28.6311C154.53 28.463 154.287 28.3323 154.138 28.4257C154.063 28.4817 154.007 28.5377 153.951 28.6124C153.783 28.7992 153.633 29.0046 153.503 29.2101C153.428 29.3221 153.353 29.4342 153.316 29.5649C153.241 29.8451 153.409 29.9758 153.577 30.1065C154.082 30.4427 154.567 30.7975 155.071 31.1337C155.501 31.4325 157.238 32.8146 157.78 31.694C157.948 31.3392 157.611 31.115 157.443 30.947C157.126 30.6295 156.808 30.3306 156.472 30.0318C156.099 29.6956 155.688 29.3782 155.296 29.0607C155.184 28.986 154.978 28.7992 154.754 28.6311Z" fill="#163C5A"/>
<path d="M156.995 28.7056C157.369 29.1539 157.761 29.6208 158.134 30.069C158.433 30.4239 158.788 30.9841 158.134 31.2269C158.06 31.2643 157.966 31.283 157.873 31.2643C157.798 31.2456 157.723 31.2083 157.667 31.1522C157.07 30.7227 156.491 30.2371 155.93 29.7515C155.464 29.3406 154.959 28.9484 154.492 28.5376C154.418 28.4815 154.362 28.4255 154.324 28.3321C154.268 28.1827 154.38 27.996 154.492 27.8839C154.754 27.6038 155.109 27.0621 155.538 27.1929C155.781 27.2676 155.949 27.473 156.117 27.6598C156.435 28.0333 156.715 28.3695 156.995 28.7056Z" fill="#64B8DA"/>
<path d="M156.267 26.3896C155.986 26.6698 155.706 27.0806 155.706 27.3794C155.706 27.6596 156.005 27.7903 156.155 27.9771C156.397 28.2572 156.64 28.5374 156.883 28.7988C157.368 29.3404 157.873 29.8821 158.377 30.405C158.452 30.4797 158.508 30.5544 158.62 30.5731C158.863 30.6104 159.031 30.405 159.124 30.1996C159.367 29.6206 158.638 28.5747 158.396 28.1078C158.172 27.6969 157.91 27.3047 157.649 26.9312C157.406 26.5951 157.088 25.8293 156.565 26.1655C156.453 26.2215 156.36 26.2962 156.267 26.3896Z" fill="#163C5A"/>
<path d="M158.788 25.1573C158.769 25.1387 158.751 25.1387 158.732 25.1387C158.695 25.1387 158.657 25.1387 158.62 25.1573C158.321 25.2507 158.041 25.3628 157.761 25.4935C157.667 25.5309 157.574 25.5682 157.499 25.6429C157.369 25.7737 157.331 25.9604 157.35 26.1285C157.406 26.4087 157.537 26.7261 157.667 26.9876C157.892 27.4545 158.172 27.9027 158.433 28.3323C158.695 28.7619 158.9 29.2288 159.18 29.6396C159.218 29.6957 159.274 29.7704 159.348 29.789C159.404 29.789 159.46 29.7704 159.498 29.7517C159.703 29.6583 159.89 29.5649 160.077 29.4342C160.114 29.3968 160.17 29.3595 160.189 29.3221C160.207 29.2848 160.207 29.2288 160.207 29.1914C160.207 28.8552 160.095 28.5377 159.983 28.2202C159.759 27.5666 159.554 26.9316 159.33 26.2779C159.199 25.9044 159.068 25.5309 158.844 25.2321C158.825 25.1947 158.807 25.176 158.788 25.1573Z" fill="#64B8DA"/>
<path d="M159.647 24.4288C159.311 24.5596 158.919 24.821 158.825 25.0825C158.732 25.3253 158.956 25.5681 159.031 25.7922C159.161 26.1284 159.274 26.4832 159.404 26.8194C159.666 27.4917 159.927 28.1641 160.207 28.8364C160.245 28.9298 160.282 29.0232 160.357 29.0792C160.544 29.2099 160.786 29.0979 160.936 28.9485C161.347 28.5376 161.029 27.305 160.954 26.8007C160.88 26.3525 160.786 25.9043 160.674 25.456C160.562 25.0638 160.544 24.2421 159.946 24.3355C159.871 24.3541 159.759 24.3728 159.647 24.4288Z" fill="#163C5A"/>
<path d="M162 24.1862C161.982 24.1676 161.982 24.1489 161.963 24.1489C161.926 24.1302 161.888 24.1302 161.851 24.1302C161.571 24.1115 161.272 24.1115 160.992 24.1302C160.898 24.1302 160.805 24.1302 160.712 24.1862C160.562 24.261 160.469 24.429 160.45 24.5784C160.413 24.8586 160.469 25.1948 160.506 25.4749C160.581 25.9792 160.712 26.4834 160.842 26.9877C160.973 27.4733 161.01 27.9588 161.16 28.4444C161.179 28.5191 161.216 28.5938 161.272 28.6312C161.309 28.6499 161.365 28.6499 161.421 28.6499C161.627 28.6499 161.832 28.6125 162.019 28.5565C162.075 28.5378 162.131 28.5191 162.15 28.4818C162.168 28.4444 162.187 28.4071 162.206 28.3697C162.299 28.0522 162.28 27.7347 162.262 27.3986C162.243 26.7262 162.206 26.0725 162.187 25.4002C162.168 25.008 162.15 24.6158 162.019 24.261C162.038 24.2423 162.019 24.2049 162 24.1862Z" fill="#64B8DA"/>
<path d="M151.149 38.0997C151.205 37.6888 151.28 37.2779 151.374 36.8857C151.168 36.9418 151.019 37.0538 151 37.2966C151 37.39 151 37.5021 151.019 37.6141C151.037 37.7635 151.093 37.9316 151.149 38.0997Z" fill="#D6D6D6"/>
<path d="M171.189 32.7589C170.703 31.6383 169.994 30.6111 169.06 29.7707C168.91 29.6399 168.761 29.5092 168.593 29.3971C166.725 27.9777 164.241 27.3988 161.926 27.8283C156.808 28.7995 154.231 34.3463 155.669 39.0901C156.211 40.883 157.294 42.4891 158.863 43.535C162.841 46.2244 168.406 44.749 170.778 40.6402C172.16 38.2683 172.254 35.2615 171.189 32.7589Z" fill="#DFEDF4"/>
<path d="M166.949 37.0731C168.481 37.652 170.124 37.8761 171.787 37.8388C172.067 36.1392 171.861 34.3463 171.189 32.7589C170.703 31.6383 169.994 30.6111 169.06 29.7707C168.91 29.6399 168.761 29.5092 168.593 29.3971C166.725 27.9777 164.241 27.3988 161.926 27.8283C161.272 27.9591 160.674 28.1458 160.114 28.4073C160.488 32.1612 163.55 35.8031 166.949 37.0731Z" fill="#E8F2F7"/>
<path d="M170.349 40.3226C167.547 40.9949 164.596 40.5467 162.168 38.9779C159.909 37.5024 158.284 35.1679 158.06 32.4412C157.985 31.5821 157.985 30.667 158.078 29.7705C155.632 32.0303 154.661 35.7656 155.669 39.0899C156.211 40.8828 157.294 42.489 158.863 43.5349C162.841 46.2242 168.406 44.7488 170.778 40.64C170.871 40.472 170.965 40.3039 171.04 40.1358C170.815 40.2105 170.591 40.2665 170.349 40.3226Z" fill="#D4E3EB"/>
<path d="M161.87 42.5641C157.331 41.0887 155.987 36.2142 156.472 31.8066C155.258 33.9544 154.922 36.6251 155.669 39.0904C156.211 40.8833 157.294 42.4894 158.863 43.5353C162.598 46.0566 167.734 44.9173 170.311 41.3502C167.678 42.8069 164.671 43.4979 161.87 42.5641Z" fill="#CCDDE6"/>
<path d="M167.902 38.9041C167.547 38.4559 167.286 37.9329 166.987 37.4287C166.501 36.6069 166.072 35.7665 165.623 34.9261C165.082 33.8802 164.559 32.8157 164.092 31.7324C163.943 31.3776 163.831 31.0041 163.662 30.6492C163.457 30.1823 163.308 29.7154 163.027 29.2672C163.009 29.2298 162.971 29.1738 162.915 29.1551C162.841 29.1178 162.766 29.1551 162.71 29.1925C162.449 29.3045 162.206 29.4166 161.944 29.5286C161.758 29.622 161.496 29.6407 161.403 29.8461C161.272 30.1263 161.272 30.5372 161.216 30.8547C161.216 31.0414 161.141 31.2655 161.104 31.4523C161.066 31.6764 161.01 31.9005 160.973 32.1246C160.898 32.5168 160.805 32.8717 160.693 33.2639C160.394 34.3097 159.965 35.2996 159.479 36.2707C159.348 36.5322 159.199 36.775 159.031 37.0178C158.62 37.6154 159.33 37.5034 159.684 37.3726C160.133 37.2046 160.562 37.0365 160.992 36.8497C161.16 36.775 161.347 36.7377 161.44 36.5882C161.533 36.4388 161.533 36.2334 161.608 36.0653C161.72 35.7665 161.795 35.4303 161.907 35.1315C162.15 34.3845 162.411 33.6561 162.617 32.909C162.598 33.0024 162.747 33.2826 162.785 33.3759C162.841 33.544 162.897 33.7308 162.971 33.8989C163.102 34.2537 163.214 34.6272 163.326 34.9821C163.7 36.1774 164.036 37.3726 164.279 38.6053C164.466 39.5391 164.69 40.5663 164.615 41.5188C164.615 41.6308 164.615 41.7615 164.727 41.7802C164.764 41.7802 164.783 41.7802 164.82 41.7615C165.717 41.3693 166.595 40.9211 167.454 40.4169C167.697 40.2674 167.939 40.1367 168.182 39.9873C168.275 39.9313 168.462 39.8379 168.518 39.7258C168.612 39.5764 168.257 39.3523 168.163 39.2589C168.089 39.1282 167.995 39.0161 167.902 38.9041Z" fill="#163C5A"/>
</g>
<g clip-path="url(#clip12)">
<path d="M157.714 18.1353C158.156 18.5843 158.575 19.0554 158.995 19.5264C159.26 19.7958 159.503 20.0427 159.768 20.3121C159.857 20.4019 159.99 20.4921 159.899 20.6696C159.786 20.8691 159.609 20.7787 159.497 20.7555C158.609 20.4812 157.742 20.1849 156.876 19.8885C156.809 19.8657 156.743 19.8429 156.654 19.7976C156.451 20.1302 156.248 20.4627 156.045 20.7952C155.841 21.1278 155.594 21.4599 155.391 21.7925C155.278 21.9475 155.122 21.9686 155.012 21.8563C154.923 21.7665 154.902 21.655 154.858 21.521C154.751 21.0524 154.621 20.5613 154.558 20.0485C154.516 19.7363 154.384 19.5571 154.095 19.488C153.606 19.3505 153.139 19.1909 152.695 19.0538C152.539 18.9857 152.406 18.9401 152.273 18.85C152.007 18.6697 152.076 18.4252 152.389 18.2495C152.523 18.1614 152.68 18.1404 152.836 18.0748C153.394 17.8787 153.953 17.6826 154.511 17.4865C154.891 17.3336 154.914 17.3115 154.917 16.9105C154.944 16.3093 154.993 15.686 154.998 15.0624C154.998 15.0178 154.977 14.9508 154.999 14.8842C155.067 14.7733 155.113 14.5955 155.225 14.5741C155.314 14.5302 155.492 14.5762 155.558 14.6881C155.734 14.9122 155.866 15.136 156.02 15.3822C156.285 15.7407 156.549 16.0992 156.814 16.4576C156.946 16.6369 157.102 16.6604 157.347 16.5509C157.817 16.3541 158.286 16.2019 158.777 16.0276C158.934 15.962 159.067 15.963 159.177 16.1198C159.265 16.2541 159.175 16.3871 159.063 16.4976C158.591 17.0062 158.164 17.5597 157.714 18.1353Z" fill="#FFCA12"/>
</g>
<g clip-path="url(#clip13)">
<path d="M131.689 90.3536C131.689 90.3536 128.228 80.6191 116.438 87.3791C111.463 90.1913 108.002 90.7321 105.622 90.3536C104.324 90.1373 103.513 91.6515 104.324 92.679C108.435 97.8167 117.033 103.982 131.689 95.8157V90.3536Z" fill="#163C5A"/>
<path d="M131.311 90.3546C131.311 90.3546 134.772 80.62 146.561 87.3801C151.537 90.1923 154.998 90.7331 157.378 90.3546C158.676 90.1382 159.487 91.6525 158.676 92.68C154.565 97.8177 145.967 103.983 131.311 95.8167V90.3546V90.3546Z" fill="#163C5A"/>
</g>
<path d="M178.563 21C177.592 20.9577 177 20.4507 177 19.6056C177 18.7183 177.718 18 178.563 18C179.451 18 180.127 18.6338 180.127 19.4789C180.085 20.3662 179.451 21 178.563 21Z" fill="#00626B"/>
<path d="M46.1513 22.2424C46.0729 22.2157 45.9946 22.1889 45.9056 22.1831C45.576 22.1336 45.2464 22.0841 44.9275 22.0138C44.5562 21.9431 44.1742 21.8933 43.8029 21.8226C43.7663 21.8171 43.7245 21.7958 43.7143 21.7643C43.6682 21.6226 43.6326 21.46 43.5971 21.2974C43.9487 21.2004 44.3002 21.1034 44.6467 20.9906C44.9931 20.8779 45.3443 20.8332 45.6702 20.6575C45.6651 20.6417 45.66 20.626 45.6548 20.6102C45.5552 20.6252 45.4454 20.6088 45.3509 20.6395C44.884 20.7567 44.438 20.8844 43.971 21.0016C43.8293 21.0477 43.6825 21.0781 43.5199 21.1136C43.4686 20.9561 43.4174 20.7987 43.3661 20.6412C43.8781 20.074 44.3641 19.4804 44.8552 18.9026C44.8501 18.8869 44.8292 18.8762 44.8241 18.8605C44.7505 18.9019 44.6769 18.9432 44.6241 18.9952C44.4395 19.1772 44.2601 19.375 44.0806 19.5727C43.8378 19.8433 43.5899 20.0981 43.3471 20.3687C43.3365 20.3896 43.3207 20.3947 43.2944 20.4207C43.1962 20.2263 43.119 20.0424 43.0209 19.848C42.9692 19.7429 42.9227 19.6535 42.8447 19.5744C42.7876 19.5059 42.788 19.4536 42.8356 19.3858C42.8887 19.2815 42.9367 19.1614 43.0055 19.0519C43.456 18.2957 43.9951 17.5978 44.6539 17.0002C44.9334 16.7351 45.2648 16.5227 45.6427 16.3997C46.3092 16.2002 46.8262 16.3976 47.1624 17.0022C47.3795 17.4018 47.4706 17.8423 47.4779 18.2927C47.4823 18.4132 47.4816 18.5179 47.4702 18.6435C47.4413 19.0361 47.5383 19.3876 47.7349 19.7242C47.9989 20.1607 48.1999 20.6177 48.3273 21.1161C48.3932 21.4256 48.4276 21.7453 48.373 22.0591C48.2964 22.5194 48.017 22.7845 47.6021 22.9544C46.8038 23.2839 45.96 23.367 45.1182 23.1882C44.7051 23.0963 44.3082 22.9468 43.9057 22.834C43.8274 22.8073 43.8014 22.7809 43.8072 22.6919C43.8036 22.4667 43.7842 22.2466 43.7805 22.0214C43.9479 22.054 44.1101 22.0709 44.2775 22.1035C44.7535 22.1749 45.2138 22.2515 45.6847 22.3072C45.7946 22.3237 45.9151 22.3193 46.0356 22.3149C46.0722 22.3204 46.0985 22.2944 46.13 22.2842C46.1458 22.279 46.1407 22.2633 46.1513 22.2424Z" fill="#163C5A"/>
<path d="M40.204 22.0537C39.5214 22.3108 38.8135 22.4367 38.1518 22.7043C38.1569 22.7201 38.162 22.7358 38.1672 22.7516C38.2195 22.7519 38.2719 22.7523 38.3349 22.7318C38.6549 22.645 38.9592 22.5634 39.2793 22.4766C39.5994 22.3899 39.9352 22.298 40.271 22.2061C40.3329 22.3427 40.3739 22.4686 40.4306 22.5895C40.1988 22.7869 39.967 22.9842 39.7458 23.1607C39.5246 23.3372 39.2877 23.5188 39.0507 23.7004C39.0558 23.7162 39.061 23.7319 39.087 23.7583C39.1499 23.7378 39.2181 23.733 39.2602 23.7019C39.4495 23.588 39.6337 23.4584 39.8022 23.3339C40.0391 23.1523 40.2761 22.9707 40.513 22.7891C40.5595 22.8784 40.6009 22.952 40.6422 23.0256C40.7407 23.1677 40.8601 23.3204 40.9744 23.4574C41.0055 23.4995 41.0315 23.5259 40.9996 23.5885C40.6224 24.3557 40.1723 25.0595 39.5709 25.6732C39.323 25.928 39.0439 26.1408 38.6719 26.1748C38.3679 26.2041 38.0856 26.1392 37.8406 25.9751C37.4027 25.6997 37.1017 25.3101 36.9164 24.8479C36.8286 24.685 36.7462 24.4854 36.6953 24.2755C36.5317 23.7193 36.2786 23.2095 36.0363 22.6789C35.7269 21.9959 35.5014 21.3031 35.5172 20.5491C35.5238 20.3553 35.567 20.1671 35.6102 19.9789C35.7391 19.519 35.9611 19.2377 36.6371 19.1744C37.0458 19.1459 37.4379 19.2272 37.814 19.366C38.561 19.6279 39.2974 19.9107 40.0496 20.1883C40.0705 20.1989 40.1071 20.2044 40.0913 20.2096C40.0935 20.6442 40.0905 21.0632 40.0824 21.4663C39.7946 21.4381 39.4859 21.3993 39.1615 21.3656C38.9835 21.3538 38.8055 21.3421 38.6433 21.3253C38.5909 21.3249 38.5543 21.3194 38.5071 21.3348C38.4598 21.3501 38.402 21.3864 38.3599 21.4175C38.4016 21.4388 38.4536 21.4915 38.4902 21.497C39.0029 21.5739 39.5313 21.6457 40.0491 21.7384C40.0857 21.7439 40.1168 21.786 40.122 21.8018C40.1582 21.8596 40.1732 21.9593 40.204 22.0537Z" fill="#163C5A"/>
<path d="M43.2066 21.0074C43.3864 21.5062 43.5189 22.0204 43.5255 22.5755C43.5247 22.6802 43.498 22.7586 43.4189 22.8366C42.9596 23.3518 42.3821 23.5572 41.7223 23.563C41.4289 23.5714 41.1993 23.4546 41.0283 23.1968C40.593 22.5548 40.3466 21.8513 40.3521 21.0658C40.3587 20.8721 40.3496 20.6835 40.3562 20.4898C40.3687 20.2071 40.4855 19.9775 40.7276 19.8116C41.2223 19.459 41.7676 19.3686 42.3535 19.4565C42.4634 19.473 42.5469 19.5155 42.5934 19.6049C42.738 19.8887 42.8826 20.1725 43.0115 20.4614C43.1045 20.6401 43.1503 20.8342 43.2066 21.0074Z" fill="#163C5A"/>
<g clip-path="url(#clip14)">
<path d="M36.4619 50.2703C36.1718 50.6717 35.8866 52.7202 36.1135 53.421C36.1242 53.4524 36.135 53.4837 36.1458 53.5151C36.1458 53.5151 36.1458 53.5151 36.1354 53.5257C36.125 53.5363 36.125 53.5363 36.1146 53.5469C35.9697 53.7581 35.773 54.0432 35.5348 54.3706C35.4624 54.4867 35.3898 54.5818 35.3071 54.7085C35.1726 54.9091 35.038 55.1096 34.8827 55.3314C34.8206 55.4159 34.7586 55.5214 34.686 55.6165C34.5825 55.7644 34.4686 55.9228 34.3652 56.0916C34.3444 56.1128 34.3342 56.1444 34.3134 56.1655C34.2411 56.2816 34.1581 56.3873 34.0754 56.514C33.7855 56.9363 33.4959 57.3797 33.1853 57.8232C33.1025 57.9499 33.0302 58.0659 32.9368 58.1822C32.8333 58.3301 32.7403 58.4883 32.6472 58.6256C32.554 58.7628 32.4713 58.8895 32.3781 59.0267C32.1505 59.3646 31.923 59.7234 31.7057 60.0507C31.6539 60.1246 31.6126 60.1879 31.5714 60.2722C31.5404 60.325 31.5094 60.3777 31.4784 60.4305C31.4163 60.515 31.3647 60.6099 31.3129 60.6838C31.0233 61.1272 30.765 61.5597 30.5273 61.9501C30.5067 61.9923 30.4756 62.024 30.455 62.0662C30.2483 62.4038 30.073 62.7307 29.9076 63.005C29.8767 63.0578 29.8561 63.0999 29.8251 63.1527C29.7425 63.3003 29.6807 63.4268 29.619 63.5533C29.4954 63.8062 29.4133 63.9958 29.3831 64.1325C29.3627 64.1956 29.3527 64.2482 29.374 64.29C29.3966 64.4576 29.4617 64.6878 29.5589 64.9912C29.5809 65.0959 29.6238 65.2004 29.6563 65.3155C29.7426 65.5665 29.8395 65.8279 29.9365 66.1103C29.9581 66.173 29.9796 66.2358 30.0012 66.2985C30.0336 66.3926 30.0765 66.4971 30.1088 66.5913C30.1841 66.7899 30.27 66.9989 30.3557 67.187C30.5057 67.5213 30.6557 67.8557 30.8053 68.148C30.8374 68.2212 30.88 68.2837 30.9121 68.3569C31.1151 68.7432 31.317 69.0246 31.486 69.1489C31.56 69.2007 31.6335 69.2105 31.6964 69.2099C31.7384 69.2095 31.7908 69.1985 31.8535 69.1769C32.5237 69.0448 33.1308 68.8923 33.6854 68.7298C34.2609 68.567 34.7733 68.3839 35.2017 68.2016C35.8914 67.9014 36.3816 67.5926 36.6826 67.2436C36.693 67.233 36.7034 67.2224 36.7138 67.2118C36.7242 67.2012 36.745 67.18 36.7448 67.1591C36.8689 66.9691 36.9917 66.6322 37.1239 66.1798C37.2064 66.0322 37.2468 65.8639 37.2976 65.6851C37.2976 65.6851 37.308 65.6745 37.2974 65.6641C37.297 65.6222 37.3176 65.58 37.3172 65.538C37.3977 65.1596 37.4881 64.7286 37.5677 64.2662C37.6173 63.9615 37.6773 63.6462 37.7266 63.2995C37.7368 63.268 37.7366 63.247 37.7468 63.2154C37.7664 63.0683 37.7964 62.9107 37.8158 62.7426C37.8354 62.5956 37.8553 62.4695 37.8749 62.3224C37.8847 62.2489 37.8945 62.1754 37.9043 62.1018C37.9737 61.671 38.0222 61.2404 38.081 60.7992C38.1008 60.6732 38.1205 60.5261 38.1403 60.4C38.1503 60.3475 38.1499 60.3055 38.1599 60.253C38.1799 60.1478 38.1789 60.0429 38.1989 59.9378C38.2183 59.7698 38.2482 59.5912 38.2676 59.4231C38.346 58.8349 38.4141 58.2572 38.472 57.7111C38.4718 57.6901 38.4716 57.6691 38.482 57.6585C38.4912 57.5221 38.5214 57.3854 38.5306 57.2489C38.53 57.186 38.54 57.1334 38.55 57.0809C38.5693 56.8918 38.5885 56.7028 38.6077 56.5138C38.6168 56.3563 38.6468 56.1987 38.6454 56.0518C38.6748 55.8312 38.6835 55.6318 38.7131 55.4322C38.7325 55.2641 38.7521 55.1171 38.7613 54.9806C38.7798 54.7076 38.8092 54.4871 38.818 54.3086C39.3196 54.0941 40.4103 52.9194 40.6229 52.0886C40.6939 51.8257 40.671 51.616 40.5751 51.4596C40.5645 51.4492 40.5539 51.4388 40.5328 51.418C40.4373 51.3035 40.2261 51.1585 39.9522 51.0352C39.3723 50.7363 38.4988 50.4402 37.7735 50.2896C37.4054 50.1986 37.0693 50.1597 36.8385 50.1619C36.6391 50.1532 36.5136 50.1964 36.4619 50.2703Z" fill="#163C5A"/>
<path d="M35.9449 53.2748C35.9449 53.2748 35.9543 53.2652 35.9449 53.2748C35.9543 53.2652 35.9447 53.2557 35.9449 53.2748Z" fill="#163C5A"/>
<path opacity="0.25" d="M39.9624 51.0246C39.7237 51.3101 39.4747 51.6062 39.2466 51.902C38.9874 52.2297 38.7069 52.5366 38.8683 52.9652C38.9007 53.0593 39.0271 53.1211 39.1216 53.1307C39.573 53.158 39.7893 52.7258 39.996 52.3882C40.1925 52.0821 40.389 51.776 40.5645 51.4701C40.5539 51.4597 40.5433 51.4493 40.5326 51.418C40.4475 51.2929 40.2365 51.1689 39.9624 51.0246Z" fill="white"/>
<path opacity="0.54" d="M36.3243 55.8115C37.0925 56.0667 37.85 56.2904 38.6075 56.5142C38.5883 56.7032 38.569 56.8922 38.5498 57.0813C38.5398 57.1338 38.5404 57.1968 38.5304 57.2493C38.5212 57.3858 38.5013 57.5119 38.4817 57.6589C37.7241 57.4142 36.9872 57.1483 36.2609 56.8927C35.6187 56.6574 34.9765 56.4221 34.3552 56.1655C34.3759 56.1444 34.3861 56.1128 34.4069 56.0916C34.5103 55.9228 34.6138 55.775 34.7278 55.6165C34.8003 55.5214 34.8519 55.4265 34.9244 55.3314C35.3666 55.4952 35.8507 55.6585 36.3243 55.8115ZM36.566 60.3731C37.1025 60.5255 37.597 60.6782 38.0914 60.81C38.0325 61.2512 37.9737 61.6924 37.9146 62.1126C37.3044 61.9295 36.7152 61.7461 36.1154 61.5523C34.6316 61.073 33.1686 60.5725 31.7578 60.0401C31.9749 59.6919 32.2026 59.354 32.4302 59.0162C33.7671 59.4968 35.1562 59.9455 36.566 60.3731ZM31.5691 65.6968C32.7056 66.0639 33.8629 66.4099 35.0304 66.7243C35.0829 66.7343 35.1776 66.7649 35.2302 66.7749C35.3774 66.8155 35.5457 66.8559 35.6929 66.8965C35.9769 66.9673 36.2608 67.0381 36.5551 67.0983C36.6392 67.1185 36.7128 67.1283 36.7969 67.1485C36.7865 67.1591 36.7657 67.1802 36.7659 67.2012C36.7555 67.2118 36.7451 67.2224 36.7347 67.233C36.4441 67.5714 35.9541 67.9012 35.2538 68.191C34.8328 68.048 34.4224 67.9155 34.0226 67.7933C32.7177 67.3648 31.4647 66.8833 30.2641 66.3909C30.1904 66.3601 30.1167 66.3293 30.0535 66.3089C30.0319 66.2462 30.0104 66.1834 29.9888 66.1207C29.8814 65.8489 29.7949 65.5769 29.7086 65.3259C29.6761 65.2108 29.6332 65.1063 29.6112 65.0016C30.243 65.2475 30.9061 65.4826 31.5691 65.6968ZM31.7283 62.5059C32.9597 62.9246 34.2432 63.3113 35.5162 63.6877C36.179 63.8809 36.8312 64.0636 37.5043 64.2462C37.5359 64.2564 37.5569 64.2562 37.5884 64.2664C37.5088 64.7288 37.4184 65.1598 37.338 65.5382C36.5911 65.3249 35.8442 65.1115 35.1181 64.8769C33.3398 64.3164 31.6029 63.6926 29.9599 63.0154C30.1147 62.7307 30.3006 62.4142 30.5073 62.0766C30.9073 62.2198 31.3179 62.3733 31.7283 62.5059Z" fill="white"/>
</g>
<g clip-path="url(#clip15)">
<path d="M22.5634 48.8086C21.5915 48.7663 21 48.2593 21 47.4142C21 46.5269 21.7183 45.8086 22.5634 45.8086C23.4507 45.8086 24.1268 46.4424 24.1268 47.2875C24.0845 48.1748 23.4507 48.8086 22.5634 48.8086Z" fill="#00626B"/>
</g>
<g clip-path="url(#clip16)">
<path d="M31.9036 34.3006C31.9538 34.3006 31.8533 34.5519 31.5016 34.8534C31.2001 35.1549 30.6474 35.5569 29.8936 35.7578C29.1399 35.9588 28.1349 35.9588 27.1802 35.4564C26.2255 34.9539 25.4717 33.9991 25.0698 32.8937C24.8688 32.3409 24.718 31.7379 24.7683 31.135C24.7683 30.8335 24.8688 30.4817 24.9693 30.1802C25.0698 29.8787 25.2707 29.5773 25.4717 29.326C25.924 28.8235 26.5772 28.4718 27.2807 28.522C28.0344 28.5723 28.6374 29.0748 28.9389 29.6777C29.0897 29.9792 29.1399 30.331 29.0897 30.733C29.0394 31.0847 28.8384 31.3862 28.5872 31.6374C28.0847 32.0897 27.5319 32.2404 27.0295 32.2404C26.5772 32.2907 26.125 32.2404 25.7732 32.1399C25.4215 32.0394 25.12 31.9892 24.8688 31.8887C23.8638 31.537 22.9091 30.934 22.2558 30.2305C21.6026 29.527 21.2006 28.723 21.0499 28.0195C20.8991 27.3161 20.9494 26.7131 21.0499 26.3111C21.2006 25.9593 21.3513 25.8086 21.4016 25.8086C21.6026 25.8588 21.4518 26.6628 21.9041 27.8185C22.1553 28.3713 22.5071 28.9743 23.1101 29.527C23.6628 30.0797 24.4668 30.532 25.321 30.8335C25.522 30.934 25.8235 30.9842 26.125 31.0847C26.4265 31.135 26.728 31.1852 27.0797 31.1852C27.7832 31.1852 28.2857 30.7832 28.0344 30.2305C27.9339 29.929 27.5822 29.6777 27.2807 29.6777C26.929 29.6275 26.527 29.8285 26.2255 30.13C25.924 30.4315 25.723 30.8335 25.723 31.336C25.6727 31.7882 25.7732 32.2907 25.924 32.7932C26.2255 33.7479 26.8285 34.6021 27.5319 35.0544C28.2857 35.5066 29.1399 35.6071 29.8434 35.4564C30.5469 35.3559 31.0494 35.0544 31.4011 34.8031C31.7026 34.4514 31.8533 34.3006 31.9036 34.3006Z" fill="#00626B"/>
</g>
<g clip-path="url(#clip17)">
<path d="M40.1053 43.4285C40.1053 42.8876 40.1323 42.3467 40.1594 41.8057C40.1594 41.4812 40.1594 41.1837 40.1594 40.8591C40.1594 40.7509 40.1323 40.6157 40.2946 40.5616C40.4839 40.5075 40.538 40.6698 40.5921 40.7509C40.9708 41.4541 41.3224 42.1573 41.674 42.8606C41.701 42.9146 41.7281 42.9687 41.7551 43.0499C42.0797 42.9687 42.4043 42.8876 42.7288 42.8065C43.0534 42.7253 43.405 42.6712 43.7295 42.5901C43.8918 42.563 44 42.6442 44 42.7794C44 42.8876 43.9459 42.9687 43.8918 43.0769C43.6754 43.4285 43.4591 43.8072 43.1886 44.1588C43.0263 44.3752 42.9993 44.5645 43.1345 44.7809C43.3509 45.1595 43.5402 45.5382 43.7295 45.8898C43.7836 46.025 43.8377 46.1332 43.8648 46.2684C43.9189 46.5389 43.7295 46.6471 43.432 46.5659C43.2968 46.5389 43.1886 46.4577 43.0534 46.4037C42.5936 46.1873 42.1338 45.9709 41.674 45.7545C41.3494 45.6193 41.3224 45.6193 41.079 45.8627C40.7003 46.2143 40.2946 46.5659 39.916 46.9446C39.8889 46.9716 39.8619 47.0257 39.8078 47.0528C39.6996 47.0798 39.5644 47.161 39.4832 47.1069C39.4021 47.0798 39.3209 46.9446 39.348 46.8364C39.375 46.593 39.4291 46.3766 39.4832 46.1332C39.5373 45.7545 39.5914 45.3759 39.6455 44.9972C39.6725 44.8079 39.5914 44.6997 39.375 44.6186C38.9693 44.4563 38.5907 44.267 38.185 44.0777C38.0498 44.0236 37.9686 43.9424 37.9957 43.7801C38.0227 43.6449 38.1579 43.6179 38.2932 43.6179C38.8882 43.5908 39.4832 43.5097 40.1053 43.4285Z" fill="#FFCA12"/>
</g>
<g clip-path="url(#clip18)">
<path d="M27.0423 93.8086C26.3944 93.7804 26 93.4424 26 92.879C26 92.2875 26.4789 91.8086 27.0423 91.8086C27.6338 91.8086 28.0845 92.2311 28.0845 92.7945C28.0563 93.3861 27.6338 93.8086 27.0423 93.8086Z" fill="#00626B"/>
</g>
<g clip-path="url(#clip19)">
<path d="M23.0423 19.8086C22.3944 19.7804 22 19.4424 22 18.879C22 18.2875 22.4789 17.8086 23.0423 17.8086C23.6338 17.8086 24.0845 18.2311 24.0845 18.7945C24.0563 19.3861 23.6338 19.8086 23.0423 19.8086Z" fill="#00626B"/>
</g>
</g>
<defs>
<filter id="filter0_f" x="23" y="81" width="156" height="26" filterUnits="userSpaceOnUse" color-interpolation-filters="sRGB">
<feFlood flood-opacity="0" result="BackgroundImageFix"/>
<feBlend mode="normal" in="SourceGraphic" in2="BackgroundImageFix" result="shape"/>
<feGaussianBlur stdDeviation="5" result="effect1_foregroundBlur"/>
</filter>
<clipPath id="clip0">
<rect width="277" height="105.82" fill="white"/>
</clipPath>
<clipPath id="clip1">
<rect width="21.3938" height="24.2827" fill="white" transform="translate(56.2387 69) rotate(22.3625)"/>
</clipPath>
<clipPath id="clip2">
<rect width="8.94383" height="9.87464" fill="white" transform="translate(54.3011 97.167) rotate(135.45)"/>
</clipPath>
<clipPath id="clip3">
<rect width="8.5957" height="7.96192" fill="white" transform="translate(118.403 12.5859) rotate(152.857)"/>
</clipPath>
<clipPath id="clip4">
<rect width="3.08451" height="3" fill="white" transform="translate(116.773 23.4561) rotate(-39.6381)"/>
</clipPath>
<clipPath id="clip5">
<rect width="16.4837" height="25.9" fill="white" transform="matrix(-1 0 0 1 233.484 35)"/>
</clipPath>
<clipPath id="clip6">
<rect width="10.904" height="10.1" fill="white" transform="translate(224.339 14.8809) rotate(31.9116)"/>
</clipPath>
<clipPath id="clip7">
<rect width="11" height="12.1448" fill="white" transform="translate(211 54)"/>
</clipPath>
<clipPath id="clip8">
<rect width="2.05634" height="2" fill="white" transform="translate(214 14)"/>
</clipPath>
<clipPath id="clip9">
<rect width="3.08451" height="3" fill="white" transform="translate(237.846 28)"/>
</clipPath>
<clipPath id="clip10">
<rect width="3.08451" height="3" fill="white" transform="translate(258 79)"/>
</clipPath>
<clipPath id="clip11">
<rect width="25.549" height="34.2895" fill="white" transform="translate(151 24)"/>
</clipPath>
<clipPath id="clip12">
<rect width="12.8115" height="14.1448" fill="white" transform="translate(164.053 21.0801) rotate(135.45)"/>
</clipPath>
<clipPath id="clip13">
<rect width="55" height="14.764" fill="white" transform="translate(104 85)"/>
</clipPath>
<clipPath id="clip14">
<rect width="12.077" height="18.9761" fill="white" transform="matrix(-0.713651 -0.700502 -0.700502 0.713651 46.5148 57.2695)"/>
</clipPath>
<clipPath id="clip15">
<rect width="3.08451" height="3" fill="white" transform="translate(21 45.8086)"/>
</clipPath>
<clipPath id="clip16">
<rect width="10.904" height="10.1" fill="white" transform="translate(21 25.8086)"/>
</clipPath>
<clipPath id="clip17">
<rect width="11" height="12.1448" fill="white" transform="translate(38 37.8086)"/>
</clipPath>
<clipPath id="clip18">
<rect width="2.05634" height="2" fill="white" transform="translate(26 91.8086)"/>
</clipPath>
<clipPath id="clip19">
<rect width="2.05634" height="2" fill="white" transform="translate(22 17.8086)"/>
</clipPath>
</defs>
</svg>
