<svg width="277" height="108" viewBox="0 0 277 108" fill="none" xmlns="http://www.w3.org/2000/svg">
<g filter="url(#filter0_f)">
<ellipse cx="89" cy="94.1624" rx="68" ry="3.00519" fill="#C4C4C4" fill-opacity="0.5"/>
</g>
<g clip-path="url(#clip0)">
<path d="M37.8691 87.6976C36.6255 84.756 36.227 81.4455 36.4558 78.217C36.5348 77.3648 36.6138 76.5125 37.1427 75.8788C37.6716 75.2451 38.6068 74.9199 39.2831 75.3596C39.8694 75.7556 39.8804 76.6515 40.1122 77.3207C40.3004 78.08 40.8458 78.7901 41.6038 78.6016C41.961 78.5524 42.2255 78.2355 42.4 77.875C44.7691 74.1272 42.7015 65.9987 47.0778 65.452C48.7302 65.2525 47.5745 69.4781 49.1396 69.4588C49.8104 69.4506 50.3393 68.8168 50.6446 68.1858C52.2613 65.0746 53.5152 61.5646 56.2145 59.2017C56.7461 58.7919 57.4114 58.3357 58.0386 58.4176C59.0693 58.5841 59.5302 59.6985 59.8111 60.7254C60.4249 63.3612 60.4579 66.0489 59.7737 68.6111C61.1589 68.5044 62.5876 68.3076 63.8011 68.7855C65.1481 69.2169 66.2798 70.3231 66.2527 71.7571C66.2636 72.653 65.7811 73.4205 65.2522 74.0543C63.4473 76.4062 60.7835 78.0071 57.9723 78.5345C58.0296 79.5643 59.2431 80.0421 60.1865 80.3889C61.13 80.7357 62.169 81.5742 61.9128 82.563C61.7846 83.0574 61.3402 83.2869 60.9858 83.56C59.6988 84.3823 58.2292 84.8932 56.7104 85.0463C55.2816 85.2431 53.6701 85.1286 52.3832 85.9509C51.0963 86.7731 50.7202 88.9283 52.07 89.5837C47.5247 90.9389 42.5975 90.3275 38.4554 88.0936" fill="#3EB09E"/>
<path d="M39.7832 86.957C40.4811 85.5148 41.3154 84.25 42.286 83.1628C43.2566 82.0756 44.3172 81.0321 45.4241 80.1225C46.5311 79.2128 47.728 78.3468 49.0613 77.6584C50.3046 76.9262 51.7279 76.2815 53.2875 75.8143C52.6796 77.3002 51.7554 78.5213 50.7848 79.6085C49.8142 80.6957 48.7536 81.7392 47.6466 82.6488C46.5397 83.5585 45.3427 84.4245 44.0094 85.1129C42.6761 85.8014 41.3428 86.4898 39.7832 86.957Z" fill="#003247"/>
<path d="M35.0768 86.1189C35.9327 82.9722 35.7579 79.659 35.0487 76.5316C34.8605 75.7723 34.6259 74.8791 33.9932 74.3493C33.3606 73.8195 32.3299 73.6529 31.8446 74.1965C31.3593 74.7401 31.4139 75.5459 31.2885 76.2643C31.2531 77.0264 30.727 77.8841 30.0098 77.7585C29.6963 77.7176 29.3799 77.4526 29.0636 77.1877C26.1593 73.7737 27.042 65.5193 22.6166 65.7081C21.0078 65.8176 22.756 69.7834 21.1937 70.0267C20.4793 70.1251 19.9802 69.5488 19.4812 68.9725C17.4331 66.0856 15.6932 62.7916 12.7182 60.9018C12.0883 60.5959 11.3684 60.2464 10.744 60.3885C9.71878 60.6699 9.46531 61.8827 9.29907 62.9152C9.01847 65.5619 9.49863 68.2442 10.5132 70.7406C9.17166 70.7571 7.7865 70.8637 6.49682 71.4621C5.20714 72.0604 4.32927 73.4152 4.56935 74.7563C4.71394 75.6058 5.25935 76.3159 5.84838 76.9359C7.9754 78.9706 10.8086 80.235 13.8052 80.2429C13.8626 81.2726 12.7965 81.8682 11.954 82.461C11.0651 82.9199 10.1382 83.917 10.5963 84.8074C10.8254 85.2526 11.2753 85.4711 11.6353 85.6459C13.0287 86.2111 14.5529 86.506 16.1181 86.4867C17.5932 86.4237 19.1992 86.0904 20.549 86.7458C21.8988 87.4012 22.6406 89.5426 21.3973 90.2747C26.101 90.8888 30.9598 89.5745 34.6815 86.7062" fill="#3EB09E"/>
<path d="M32.969 85.6524C31.4011 85.4477 29.9641 84.9726 28.5707 84.4073C27.1773 83.842 25.9175 83.2303 24.6113 82.4848C23.3052 81.7392 22.1762 80.8571 20.9573 79.9312C19.872 78.959 18.7403 77.8528 17.8294 76.52C19.3973 76.7247 20.8343 77.1998 22.2277 77.7651C23.6211 78.3304 24.8809 78.9421 26.1871 79.6876C27.4933 80.4332 28.6222 81.3153 29.7512 82.1975C31.0164 83.2572 32.0581 84.3196 32.969 85.6524Z" fill="#003247"/>
<path d="M33.85 88.1948C32.9553 84.5321 35.1908 80.8308 38.9372 79.9782C42.5937 79.0819 46.2886 81.3214 47.1397 85.0743C48.0344 88.737 45.7988 92.4383 42.0524 93.2909C38.396 94.1871 34.7011 91.9477 33.85 88.1948Z" fill="#FCAB10"/>
<path d="M33.8494 88.1943C34.7441 91.8571 38.439 94.0965 42.0518 93.2904C45.7083 92.3941 47.9438 88.6928 47.1391 85.0738C47.1391 85.0738 43.3663 94.7079 33.8494 88.1943Z" fill="#D6920E"/>
<path d="M37.0884 78.7466C37.233 79.596 37.2876 80.4018 37.4322 81.2513C37.4813 81.6091 37.6204 82.0106 37.9368 82.2755C38.0731 82.453 38.2531 82.5404 38.4767 82.5377C38.6566 82.625 38.8802 82.6223 39.1038 82.6195C39.461 82.5703 39.8618 82.431 40.1263 82.1141C40.3908 81.7973 40.5652 81.4367 40.4697 80.9451C40.3251 80.0956 40.2705 79.2898 40.1259 78.4404C40.0768 78.0826 39.9377 77.681 39.6214 77.4161C39.4851 77.2386 39.3051 77.1512 39.0815 77.154C38.9015 77.0666 38.6779 77.0693 38.4543 77.0721C38.0971 77.1213 37.6963 77.2606 37.4319 77.5775C37.1674 77.8944 36.9493 78.3451 37.0884 78.7466Z" fill="#013041"/>
<path d="M37.3289 83.761C36.6554 83.5452 35.8565 84.0479 35.5539 84.9029C35.2077 85.848 35.4423 86.7411 35.9822 87.0033C36.6557 87.219 37.4546 86.7163 37.7572 85.8614C38.1933 84.96 37.9588 84.0668 37.3289 83.761Z" fill="#FED576"/>
<path d="M28.5248 95.2941C26.3624 94.0215 25.5686 91.2983 26.8391 89.1322C28.1095 86.9661 30.828 86.171 32.9904 87.4436C35.1528 88.7162 35.9465 91.4394 34.6761 93.6055C33.5392 95.7252 30.7308 96.4766 28.5248 95.2941Z" fill="#FCAB10"/>
<path d="M28.5253 95.2946C30.6877 96.5672 33.4062 95.7721 34.6766 93.606C35.9471 91.4399 35.1534 88.7167 32.991 87.4441C32.991 87.4441 35.9282 93.5458 28.5253 95.2946Z" fill="#D6920E"/>
<path d="M25.3672 89.4197C25.7735 89.7284 26.2698 90.0807 26.6762 90.3893C26.7661 90.433 26.9461 90.5204 27.0361 90.5641C27.1261 90.6077 27.3061 90.6951 27.4397 90.6487C27.6632 90.6459 27.9741 90.4629 28.1513 90.3263C28.3721 90.0996 28.413 89.7855 28.4103 89.5615C28.4075 89.3375 28.2248 89.0262 28.0884 88.8486C27.6821 88.54 27.1858 88.1877 26.7795 87.8791C26.6895 87.8354 26.5096 87.748 26.4196 87.7043C26.3296 87.6606 26.1496 87.5732 26.016 87.6197C25.7924 87.6224 25.4816 87.8055 25.3044 87.9421C25.0835 88.1688 25.0427 88.4829 25.0454 88.7069C25.0482 88.9309 25.0973 89.2887 25.3672 89.4197Z" fill="#013041"/>
<path d="M27.9878 91.5821C27.587 91.7215 27.4616 92.4399 27.7371 93.0189C28.0125 93.5979 28.5524 93.8601 28.9533 93.7208C29.3977 93.4913 29.4794 92.863 29.204 92.284C28.9285 91.705 28.3886 91.4428 27.9878 91.5821Z" fill="#FED576"/>
</g>
<path d="M173.71 87.4902C172.909 88.4277 171.742 89.1553 170.209 89.6729C168.676 90.1807 166.977 90.4199 165.111 90.3906C163.324 90.3711 161.815 89.9219 160.585 89.043C159.354 88.1641 158.476 86.9385 157.948 85.3662C157.421 83.7939 157.279 82.0215 157.523 80.0488L157.641 79.1699C158.09 75.8594 159.252 73.2373 161.127 71.3037C163.012 69.3701 165.316 68.4277 168.041 68.4766C170.424 68.5156 172.255 69.1553 173.534 70.3955C174.813 71.6357 175.526 73.4277 175.673 75.7715L170.868 75.7568C170.8 74.6143 170.517 73.7793 170.019 73.252C169.53 72.7246 168.832 72.4463 167.924 72.417C166.576 72.3682 165.463 72.9004 164.584 74.0137C163.705 75.1172 163.104 76.6992 162.782 78.7598C162.509 80.5176 162.411 81.8848 162.489 82.8613C162.636 85.2148 163.695 86.4062 165.668 86.4355C166.859 86.4551 167.904 86.167 168.803 85.5713L169.462 82.2461H165.99L166.605 78.7158H175.087L173.71 87.4902ZM181.356 90.1123H176.347L180.053 68.7842H185.048L181.356 90.1123ZM202.626 87.4902C201.825 88.4277 200.658 89.1553 199.125 89.6729C197.592 90.1807 195.893 90.4199 194.027 90.3906C192.24 90.3711 190.731 89.9219 189.501 89.043C188.271 88.1641 187.392 86.9385 186.864 85.3662C186.337 83.7939 186.195 82.0215 186.439 80.0488L186.557 79.1699C187.006 75.8594 188.168 73.2373 190.043 71.3037C191.928 69.3701 194.232 68.4277 196.957 68.4766C199.34 68.5156 201.171 69.1553 202.45 70.3955C203.729 71.6357 204.442 73.4277 204.589 75.7715L199.784 75.7568C199.716 74.6143 199.433 73.7793 198.935 73.252C198.446 72.7246 197.748 72.4463 196.84 72.417C195.492 72.3682 194.379 72.9004 193.5 74.0137C192.621 75.1172 192.021 76.6992 191.698 78.7598C191.425 80.5176 191.327 81.8848 191.405 82.8613C191.552 85.2148 192.611 86.4062 194.584 86.4355C195.775 86.4551 196.82 86.167 197.719 85.5713L198.378 82.2461H194.906L195.521 78.7158H204.003L202.626 87.4902ZM217.45 86.1279H210.639L208.749 90.1123H203.227L214.521 68.7842H219.237L223.178 90.1123H217.963L217.45 86.1279ZM212.514 82.1582H216.938L216 74.8047L212.514 82.1582ZM236.625 84.3408C236.84 83.2373 236.244 82.3828 234.838 81.7773L232.436 80.7812C229.066 79.2676 227.465 77.207 227.631 74.5996C227.699 73.4082 228.109 72.3486 228.861 71.4209C229.613 70.4834 230.653 69.7559 231.981 69.2383C233.31 68.7207 234.76 68.4717 236.332 68.4912C238.441 68.5303 240.136 69.1455 241.415 70.3369C242.704 71.5283 243.339 73.125 243.319 75.127H238.339C238.368 74.3066 238.192 73.6523 237.812 73.1641C237.44 72.666 236.825 72.4072 235.966 72.3877C235.126 72.3682 234.384 72.5635 233.739 72.9736C233.095 73.3838 232.714 73.9355 232.597 74.6289C232.411 75.6055 233.134 76.4062 234.765 77.0312C236.405 77.6562 237.597 78.1934 238.339 78.6426C240.673 80.0391 241.767 81.9238 241.62 84.2969C241.542 85.5273 241.146 86.6064 240.434 87.5342C239.721 88.4619 238.729 89.1797 237.46 89.6875C236.2 90.1953 234.784 90.4395 233.212 90.4199C232.06 90.4004 230.99 90.2197 230.004 89.8779C229.018 89.5361 228.173 89.0381 227.47 88.3838C226.044 87.0654 225.36 85.332 225.419 83.1836L230.443 83.1982C230.385 84.292 230.595 85.1221 231.073 85.6885C231.552 86.2451 232.357 86.5234 233.49 86.5234C234.33 86.5234 235.028 86.333 235.585 85.9521C236.151 85.5615 236.498 85.0244 236.625 84.3408Z" fill="#BBBBBB"/>
<path d="M56.3174 58.5596L65.1943 26.04H101.669L99.8232 37.5537H75.3457L71.4346 50.3418C73.8076 48.8184 76.752 48.0273 80.2676 47.9688C85.8926 47.9688 90.2139 49.917 93.2314 53.8135C96.2783 57.71 97.5381 62.8076 97.0107 69.1064C96.4834 75.6104 93.9492 80.9131 89.4082 85.0146C84.8672 89.0869 79.374 91.0645 72.9287 90.9473C69.1494 90.8594 65.707 89.9805 62.6016 88.3105C59.5254 86.6406 57.1377 84.3701 55.4385 81.499C53.7393 78.5986 52.9043 75.3613 52.9336 71.7871H67.3477C67.4062 74.0723 67.9775 75.9033 69.0615 77.2803C70.1455 78.6572 71.6689 79.375 73.6318 79.4336C76.0342 79.5215 78.0264 78.6279 79.6084 76.7529C81.1904 74.8486 82.2012 71.9629 82.6406 68.0957C82.9336 64.8438 82.4941 62.3828 81.3223 60.7129C80.1504 59.0137 78.3193 58.1641 75.8291 58.1641C72.6357 58.1641 70.043 59.248 68.0508 61.416L56.3174 58.5596ZM123.554 90.9033C119.921 90.8154 116.742 89.9658 114.018 88.3545C111.322 86.7139 109.242 84.3262 107.777 81.1914C106.312 78.0273 105.521 74.4385 105.404 70.4248C105.316 68.2568 105.404 66.0742 105.668 63.877L107.338 52.7148C108.686 43.7207 111.571 36.8506 115.995 32.1045C120.419 27.3291 126.059 25.0146 132.914 25.1611C138.48 25.2783 142.831 27.1533 145.966 30.7861C149.13 34.4189 150.829 39.3701 151.063 45.6396C151.122 47.8076 151.02 49.9902 150.756 52.1875L148.998 63.5693C147.592 72.6807 144.677 79.5508 140.253 84.1797C135.858 88.8086 130.292 91.0498 123.554 90.9033ZM136.605 50.21C136.869 48.1592 137.016 46.3574 137.045 44.8047C137.045 39.4434 135.346 36.6748 131.947 36.499C126.732 36.2354 123.495 40.7031 122.235 49.9023L119.906 65.7227C119.613 68.1543 119.467 69.9561 119.467 71.1279C119.32 76.5479 121.005 79.3604 124.521 79.5654C129.823 79.8291 133.09 75.2441 134.32 65.8105L136.605 50.21Z" fill="#EF3829"/>
<path d="M56.3174 58.5596L53.4233 57.7696L52.6111 60.7449L55.6078 61.4744L56.3174 58.5596ZM65.1943 26.04V23.04H62.9035L62.3002 25.25L65.1943 26.04ZM101.669 26.04L104.631 26.5149L105.188 23.04H101.669V26.04ZM99.8232 37.5537V40.5537H102.381L102.785 38.0286L99.8232 37.5537ZM75.3457 37.5537V34.5537H73.1261L72.4769 36.6763L75.3457 37.5537ZM71.4346 50.3418L68.5657 49.4644L66.1742 57.2838L73.0553 52.8663L71.4346 50.3418ZM80.2676 47.9688V44.9688H80.2426L80.2176 44.9692L80.2676 47.9688ZM93.2314 53.8135L90.8595 55.6504L90.8682 55.6614L93.2314 53.8135ZM97.0107 69.1064L94.0212 68.8562L94.0206 68.864L97.0107 69.1064ZM89.4082 85.0146L91.4111 87.2481L91.4191 87.241L89.4082 85.0146ZM72.9287 90.9473L72.859 93.9465L72.8666 93.9466L72.8742 93.9468L72.9287 90.9473ZM62.6016 88.3105L61.1703 90.9471L61.1807 90.9528L62.6016 88.3105ZM55.4385 81.499L52.85 83.0155L52.8567 83.027L55.4385 81.499ZM52.9336 71.7871V68.7871H49.9581L49.9337 71.7625L52.9336 71.7871ZM67.3477 71.7871L70.3467 71.7102L70.2717 68.7871H67.3477V71.7871ZM73.6318 79.4336L73.7415 76.4356L73.7314 76.4352L73.7213 76.4349L73.6318 79.4336ZM79.6084 76.7529L81.9013 78.6875L81.9087 78.6788L81.916 78.67L79.6084 76.7529ZM82.6406 68.0957L85.6214 68.4344L85.6254 68.3997L85.6285 68.3649L82.6406 68.0957ZM81.3223 60.7129L78.8526 62.4161L78.8596 62.4262L78.8666 62.4362L81.3223 60.7129ZM68.0508 61.416L67.3412 64.3309L69.0616 64.7497L70.2598 63.4459L68.0508 61.416ZM59.2115 59.3496L68.0884 26.8301L62.3002 25.25L53.4233 57.7696L59.2115 59.3496ZM65.1943 29.04H101.669V23.04H65.1943V29.04ZM98.7068 25.5652L96.8611 37.0789L102.785 38.0286L104.631 26.5149L98.7068 25.5652ZM99.8232 34.5537H75.3457V40.5537H99.8232V34.5537ZM72.4769 36.6763L68.5657 49.4644L74.3034 51.2192L78.2145 38.4311L72.4769 36.6763ZM73.0553 52.8663C74.8558 51.7104 77.2225 51.0199 80.3176 50.9683L80.2176 44.9692C76.2814 45.0348 72.7594 45.9263 69.8139 47.8172L73.0553 52.8663ZM80.2676 50.9688C85.1135 50.9688 88.4955 52.5978 90.8596 55.6504L95.6033 51.9766C91.9322 47.2362 86.6716 44.9688 80.2676 44.9688V50.9688ZM90.8682 55.6614C93.3307 58.8106 94.5036 63.0937 94.0212 68.8562L100 69.3567C100.573 62.5215 99.226 56.6093 95.5947 51.9655L90.8682 55.6614ZM94.0206 68.864C93.5505 74.6615 91.3311 79.2353 87.3973 82.7883L91.4191 87.241C96.5674 82.5909 99.4163 76.5592 100.001 69.3489L94.0206 68.864ZM87.4053 82.7812C83.463 86.3166 78.7179 88.052 72.9832 87.9478L72.8742 93.9468C80.0301 94.0769 86.2714 91.8573 91.4111 87.2481L87.4053 82.7812ZM72.9985 87.9481C69.6565 87.8704 66.6822 87.0986 64.0224 85.6683L61.1807 90.9528C64.7319 92.8623 68.6424 93.8484 72.859 93.9465L72.9985 87.9481ZM64.0328 85.674C61.4089 84.2495 59.4294 82.352 58.0202 79.9711L52.8567 83.027C54.846 86.3882 57.6419 89.0317 61.1703 90.9471L64.0328 85.674ZM58.027 79.9825C56.6189 77.5791 55.9083 74.8802 55.9335 71.8117L49.9337 71.7625C49.9003 75.8425 50.8596 79.6181 52.85 83.0155L58.027 79.9825ZM52.9336 74.7871H67.3477V68.7871H52.9336V74.7871ZM64.3486 71.864C64.4188 74.5989 65.1135 77.1152 66.7043 79.136L71.4187 75.4246C70.8416 74.6914 70.3937 73.5456 70.3467 71.7102L64.3486 71.864ZM66.7043 79.136C68.4082 81.3003 70.8121 82.3508 73.5423 82.4323L73.7213 76.4349C72.5258 76.3992 71.8828 76.0141 71.4187 75.4246L66.7043 79.136ZM73.5222 82.4316C76.8681 82.554 79.7387 81.2506 81.9013 78.6875L77.3155 74.8183C76.314 76.0053 75.2003 76.489 73.7415 76.4356L73.5222 82.4316ZM81.916 78.67C84.0284 76.1273 85.1507 72.5768 85.6214 68.4344L79.6598 67.757C79.2516 71.349 78.3525 73.57 77.3008 74.8359L81.916 78.67ZM85.6285 68.3649C85.9492 64.8052 85.5394 61.4997 83.7779 58.9896L78.8666 62.4362C79.4489 63.2659 79.918 64.8823 79.6527 67.8265L85.6285 68.3649ZM83.7919 59.0097C81.9401 56.3245 79.0736 55.1641 75.8291 55.1641V61.1641C77.565 61.1641 78.3607 61.7028 78.8526 62.4161L83.7919 59.0097ZM75.8291 55.1641C71.8755 55.1641 68.4537 56.5438 65.8418 59.3861L70.2598 63.4459C71.6322 61.9523 73.396 61.1641 75.8291 61.1641V55.1641ZM68.7604 58.5011L57.027 55.6447L55.6078 61.4744L67.3412 64.3309L68.7604 58.5011ZM123.554 90.9033L123.481 93.9025L123.489 93.9026L123.554 90.9033ZM114.018 88.3545L112.458 90.9171L112.474 90.927L112.49 90.9367L114.018 88.3545ZM107.777 81.1914L105.055 82.4518L105.059 82.4615L107.777 81.1914ZM105.404 70.4248L108.403 70.3373L108.403 70.3203L108.402 70.3033L105.404 70.4248ZM105.668 63.877L102.701 63.4331L102.695 63.4762L102.689 63.5195L105.668 63.877ZM107.338 52.7148L104.371 52.2703L104.371 52.271L107.338 52.7148ZM115.995 32.1045L118.19 34.15L118.196 34.1433L115.995 32.1045ZM132.914 25.1611L132.85 28.1604L132.851 28.1605L132.914 25.1611ZM145.966 30.7861L143.695 32.7461L143.704 32.7565L145.966 30.7861ZM151.063 45.6396L154.062 45.5586L154.062 45.5431L154.061 45.5276L151.063 45.6396ZM150.756 52.1875L153.721 52.6454L153.728 52.5953L153.734 52.5449L150.756 52.1875ZM148.998 63.5693L146.033 63.1114L146.033 63.1117L148.998 63.5693ZM140.253 84.1797L138.084 82.1069L138.077 82.1142L140.253 84.1797ZM136.605 50.21L139.574 50.6448L139.578 50.6187L139.581 50.5925L136.605 50.21ZM137.045 44.8047L140.044 44.8613L140.045 44.833V44.8047H137.045ZM131.947 36.499L132.102 33.503L132.099 33.5029L131.947 36.499ZM122.235 49.9023L125.203 50.3393L125.206 50.3243L125.208 50.3094L122.235 49.9023ZM119.906 65.7227L116.938 65.2857L116.933 65.3247L116.928 65.3638L119.906 65.7227ZM119.467 71.1279L122.466 71.209L122.467 71.1685V71.1279H119.467ZM124.521 79.5654L124.346 82.5603L124.359 82.5611L124.372 82.5617L124.521 79.5654ZM134.32 65.8105L131.352 65.3758L131.349 65.3991L131.346 65.4225L134.32 65.8105ZM123.626 87.9042C120.429 87.8269 117.766 87.0862 115.545 85.7723L112.49 90.9367C115.718 92.8455 119.413 93.804 123.481 93.9024L123.626 87.9042ZM115.577 85.7919C113.436 84.4882 111.735 82.5745 110.495 79.9214L105.059 82.4615C106.749 86.0778 109.209 88.9396 112.458 90.9171L115.577 85.7919ZM110.5 79.931C109.229 77.1868 108.51 74.0064 108.403 70.3373L102.406 70.5124C102.533 74.8706 103.396 78.8678 105.055 82.4518L110.5 79.931ZM108.402 70.3033C108.321 68.2984 108.402 66.2759 108.647 64.2344L102.689 63.5195C102.407 65.8725 102.312 68.2153 102.407 70.5463L108.402 70.3033ZM108.635 64.3208L110.305 53.1587L104.371 52.271L102.701 63.4331L108.635 64.3208ZM110.305 53.1594C111.597 44.5321 114.315 38.3073 118.19 34.15L113.801 30.059C108.828 35.3939 105.774 42.9093 104.371 52.2703L110.305 53.1594ZM118.196 34.1433C122.002 30.0342 126.8 28.0312 132.85 28.1604L132.978 22.1618C125.317 21.9981 118.835 24.624 113.794 30.0657L118.196 34.1433ZM132.851 28.1605C137.717 28.2629 141.206 29.8624 143.695 32.746L148.237 28.8262C144.456 24.4442 139.244 22.2937 132.977 22.1618L132.851 28.1605ZM143.704 32.7565C146.297 35.7336 147.849 39.9582 148.066 45.7517L154.061 45.5276C153.809 38.7821 151.963 33.1042 148.228 28.8158L143.704 32.7565ZM148.065 45.7207C148.119 47.7393 148.024 49.7753 147.777 51.8301L153.734 52.5449C154.015 50.2052 154.125 47.876 154.062 45.5586L148.065 45.7207ZM147.791 51.7296L146.033 63.1114L151.963 64.0272L153.721 52.6454L147.791 51.7296ZM146.033 63.1117C144.681 71.8717 141.934 78.0784 138.084 82.107L142.422 86.2524C147.419 81.0232 150.502 73.4896 151.963 64.0269L146.033 63.1117ZM138.077 82.1142C134.301 86.0923 129.565 88.0333 123.619 87.904L123.489 93.9026C131.019 94.0663 137.416 91.5249 142.429 86.2452L138.077 82.1142ZM139.581 50.5925C139.854 48.4666 140.012 46.5519 140.044 44.8613L134.045 44.7481C134.019 46.163 133.884 47.8518 133.63 49.8274L139.581 50.5925ZM140.045 44.8047C140.045 41.8926 139.599 39.2093 138.327 37.138C136.932 34.8651 134.732 33.6391 132.102 33.503L131.792 39.495C132.561 39.5348 132.909 39.7809 133.214 40.2765C133.642 40.9738 134.045 42.3554 134.045 44.8047H140.045ZM132.099 33.5029C128.41 33.3164 125.353 34.8917 123.179 37.8918C121.136 40.7108 119.92 44.6999 119.263 49.4953L125.208 50.3094C125.811 45.9056 126.843 43.0612 128.037 41.4123C129.101 39.9448 130.269 39.418 131.796 39.4952L132.099 33.5029ZM119.267 49.4654L116.938 65.2857L122.874 66.1596L125.203 50.3393L119.267 49.4654ZM116.928 65.3638C116.632 67.8155 116.467 69.7662 116.467 71.1279H122.467C122.467 70.1459 122.594 68.4931 122.885 66.0815L116.928 65.3638ZM116.468 71.0469C116.388 73.9925 116.777 76.7238 118.047 78.8438C119.442 81.1736 121.684 82.4051 124.346 82.5603L124.695 76.5705C123.841 76.5207 123.483 76.2434 123.194 75.7607C122.779 75.0682 122.399 73.6833 122.466 71.209L116.468 71.0469ZM124.372 82.5617C128.116 82.7479 131.207 81.1304 133.391 78.0652C135.443 75.1851 136.655 71.1083 137.295 66.1986L131.346 65.4225C130.755 69.9464 129.719 72.8788 128.504 74.5837C127.421 76.1035 126.227 76.6466 124.669 76.5691L124.372 82.5617ZM137.289 66.2453L139.574 50.6448L133.637 49.7752L131.352 65.3758L137.289 66.2453Z" fill="#EF3829"/>
<g clip-path="url(#clip1)">
<path d="M154.235 37.6375C149.036 31.6729 143.263 26.235 137 21.4022C144.388 15.2375 152.624 10.1702 161.455 6.35645C160.367 11.4958 160.721 16.8258 160.458 22.0742C160.195 27.3225 159.206 32.816 155.922 36.9111" fill="#FF2932"/>
<path d="M155.677 36.1934C150.468 30.2442 144.696 24.8132 138.443 19.9763V22.8638C145.723 16.8375 153.819 11.8729 162.489 8.11762L159.487 5.81127C158.398 11.3683 158.716 17.0071 158.398 22.6277C158.135 27.0679 157.301 31.8713 154.48 35.4579C154.108 35.8481 153.9 36.3668 153.9 36.9062C153.9 37.4456 154.108 37.9643 154.48 38.3545C154.864 38.7349 155.382 38.9482 155.922 38.9482C156.462 38.9482 156.981 38.7349 157.364 38.3545C160.612 34.223 161.9 29.2743 162.381 24.0987C162.889 18.3782 162.29 12.5578 163.451 6.90089C163.544 6.51095 163.522 6.10239 163.389 5.72442C163.255 5.34645 163.016 5.01518 162.698 4.77051C162.381 4.52584 162 4.3782 161.601 4.34536C161.202 4.31253 160.801 4.39591 160.448 4.58545C151.464 8.50648 143.083 13.6888 135.558 19.9763C135.176 20.3594 134.961 20.8786 134.961 21.42C134.961 21.9614 135.176 22.4807 135.558 22.8638C141.808 27.6914 147.58 33.11 152.793 39.0446C154.534 41.0331 157.41 38.1366 155.686 36.1571L155.677 36.1934Z" fill="#FF2932"/>
<path d="M161.664 6.90131C163.883 7.19422 166.14 6.88045 168.195 5.9933C168.648 5.80262 169.165 5.35769 168.93 4.93092C168.784 4.65852 168.422 4.61312 168.122 4.60404C166.404 4.57725 164.704 4.94699 163.151 5.68457C163.628 5.21031 164.003 4.64342 164.252 4.01879C164.502 3.39416 164.621 2.72501 164.603 2.05252C164.623 1.85775 164.589 1.66111 164.504 1.48467C164.419 1.30823 164.287 1.15899 164.122 1.0537C163.523 0.799461 163.034 1.58035 162.843 2.20688C162.517 3.32374 162.181 4.43152 161.854 5.54837L159.886 2.88789C159.55 2.44297 158.979 1.97988 158.525 2.26136C158.072 2.54285 158.28 3.16938 158.525 3.66878C159.111 4.69517 159.834 5.63619 160.675 6.46547" fill="#FFE3C5"/>
<path d="M161.664 7.92695C163.136 8.1109 164.628 8.05262 166.081 7.75443C166.778 7.61122 167.461 7.40766 168.122 7.14606C168.842 6.95486 169.459 6.4929 169.846 5.85668C170.015 5.50797 170.045 5.10752 169.928 4.73765C169.812 4.36779 169.559 4.05663 169.22 3.86813C168.574 3.59248 167.862 3.51047 167.17 3.63205C165.597 3.74618 164.059 4.15264 162.635 4.83063L163.841 6.42873C164.689 5.59331 165.265 4.52008 165.492 3.35057C165.682 2.28819 165.737 0.844449 164.666 0.21792C163.596 -0.408609 162.498 0.454004 162.027 1.45282C161.553 2.70773 161.156 3.99041 160.839 5.29372L162.707 5.04855C161.972 4.04974 161.283 2.98736 160.485 2.04303C159.687 1.09869 158.317 0.681007 157.546 1.81602C156.947 2.72404 157.373 3.74101 157.881 4.54006C158.47 5.48957 159.167 6.36719 159.959 7.15514C160.15 7.3466 160.409 7.45415 160.68 7.45415C160.95 7.45415 161.21 7.3466 161.401 7.15514C161.592 6.96369 161.7 6.70403 161.7 6.43327C161.7 6.16252 161.592 5.90285 161.401 5.7114C160.942 5.2533 160.517 4.76161 160.131 4.24042C159.941 3.9771 159.768 3.70469 159.596 3.43229C159.508 3.29508 159.43 3.15255 159.36 3.00552C159.306 2.97828 159.306 2.79668 159.306 2.72404C159.414 2.84208 158.879 3.48677 158.807 3.1508C158.807 3.1962 158.906 3.2416 158.925 3.27793C159.106 3.53217 159.333 3.78641 159.523 4.04066L160.975 6.08369C161.082 6.24959 161.234 6.38168 161.413 6.46463C161.592 6.54758 161.791 6.57798 161.986 6.55231C162.182 6.52664 162.366 6.44595 162.518 6.31961C162.67 6.19326 162.782 6.02645 162.843 5.83852C163.088 4.98499 163.342 4.13146 163.596 3.28701C163.687 2.97828 163.75 2.6514 163.868 2.37899C163.868 2.37899 164.086 2.01579 164.086 2.00671C164.086 1.99763 163.759 2.00671 163.741 2.00671C163.689 2.00495 163.64 1.98479 163.602 1.94984C163.564 1.91489 163.539 1.86745 163.533 1.81602C163.533 1.92499 163.533 1.97039 163.533 1.94315C163.533 2.07935 163.533 2.26095 163.533 2.40623C163.515 2.71369 163.463 3.01824 163.378 3.31425C163.188 3.95194 162.842 4.53226 162.371 5.00315C162.199 5.18029 162.096 5.41396 162.082 5.66108C162.068 5.90821 162.143 6.15212 162.294 6.34787C162.446 6.54362 162.663 6.67799 162.905 6.72623C163.148 6.77446 163.4 6.7333 163.614 6.61034C164.548 6.17334 165.541 5.87949 166.562 5.73864C167.049 5.67496 167.541 5.64765 168.032 5.65692C168.107 5.66126 168.183 5.66126 168.258 5.65692C168.189 5.41673 168.107 5.18033 168.014 4.94867C167.868 5.01406 167.726 5.08679 167.587 5.16659C165.708 5.90303 163.673 6.14682 161.673 5.87484C161.538 5.87365 161.403 5.8993 161.278 5.95033C161.153 6.00135 161.039 6.07674 160.942 6.17214C160.846 6.26754 160.77 6.38105 160.718 6.50614C160.666 6.63122 160.639 6.76539 160.639 6.9009C160.646 7.17085 160.756 7.42785 160.947 7.6188C161.138 7.80974 161.394 7.92006 161.664 7.92695Z" fill="#FFE3C5"/>
<path d="M153.663 42.0681C153.663 42.0681 161.047 37.4191 159.387 34.7223C159.387 34.7223 143.368 18.8865 138.361 18.7866C137.118 19.159 135.992 19.8474 135.094 20.7847C134.196 21.722 133.556 22.8762 133.236 24.1348C133.236 24.1348 148.883 33.442 153.663 42.0681Z" fill="#FFE3C5" stroke="#FFE3C5" stroke-width="0.339796" stroke-miterlimit="10"/>
<path d="M156.675 33.9961C156.693 34.4847 156.593 34.9705 156.385 35.4126C156.199 35.819 155.941 36.1883 155.623 36.5022C155.311 36.8231 154.946 37.0873 154.543 37.2831C154.107 37.4987 153.624 37.6017 153.137 37.5827C153.258 37.1326 153.448 36.7039 153.7 36.3115C153.921 35.983 154.177 35.6787 154.462 35.4035C154.736 35.1144 155.04 34.8557 155.369 34.6317C155.766 34.3496 156.208 34.1348 156.675 33.9961V33.9961Z" fill="#003041"/>
<path d="M151.387 32.3073C151.51 32.5642 151.564 32.8494 151.541 33.1336C151.535 33.3317 151.464 33.5224 151.34 33.6765C151.215 33.8306 151.044 33.9397 150.851 33.9872C150.575 34.0591 150.284 34.0591 150.008 33.9872C149.885 33.7269 149.831 33.4389 149.854 33.1518C149.863 32.9553 149.937 32.7673 150.062 32.6161C150.189 32.4659 150.356 32.3555 150.543 32.2983C150.821 32.2349 151.11 32.238 151.387 32.3073Z" fill="#003041"/>
<path d="M147.713 27.0591C147.773 27.4796 147.735 27.9082 147.604 28.3121C147.493 28.6597 147.327 28.9875 147.114 29.2837C146.905 29.5844 146.644 29.8457 146.343 30.0555C146 30.3036 145.607 30.474 145.191 30.5549C145.132 30.1344 145.169 29.7058 145.3 29.3019C145.414 28.9552 145.579 28.6277 145.79 28.3303C146.005 28.0315 146.269 27.7707 146.57 27.5585C146.909 27.3088 147.3 27.1381 147.713 27.0591V27.0591Z" fill="#003041"/>
<path d="M144.157 23.472C143.928 23.9006 143.648 24.3 143.323 24.6615C143.047 24.99 142.744 25.2938 142.416 25.5695C142.099 25.8442 141.759 26.0903 141.4 26.305C140.986 26.556 140.545 26.7571 140.084 26.9043C140.077 26.3858 140.209 25.8747 140.465 25.4242C140.696 24.9988 141.003 24.62 141.372 24.3074C141.744 23.9954 142.172 23.758 142.633 23.6082C143.12 23.4294 143.646 23.3824 144.157 23.472V23.472Z" fill="#003041"/>
<path d="M140.982 21.2023C140.629 21.6291 140.32 21.9378 140.075 22.2284C139.83 22.5189 139.504 22.7823 139.223 23.0274C138.941 23.2726 138.642 23.5178 138.315 23.772C137.948 24.0588 137.563 24.3227 137.163 24.562C137.03 24.0524 137.068 23.5129 137.272 23.0274C137.468 22.5495 137.78 22.1281 138.179 21.8016C138.563 21.4648 139.019 21.2223 139.513 21.0934C140.002 20.9736 140.516 21.0117 140.982 21.2023V21.2023Z" fill="#003041"/>
<path d="M157.256 28.5659C157.08 28.2938 156.977 27.9812 156.956 27.6579C156.937 27.4031 156.98 27.1473 157.083 26.9134C157.17 26.6894 157.31 26.4899 157.491 26.3322C157.752 26.1162 158.065 25.9722 158.398 25.9146C158.574 26.1867 158.677 26.4993 158.698 26.8226C158.717 27.0745 158.674 27.3273 158.571 27.5581C158.469 27.7911 158.314 27.9965 158.117 28.1573C157.87 28.3662 157.573 28.507 157.256 28.5659V28.5659Z" fill="#FFE3C5"/>
<path d="M158.68 21.2294C158.424 21.0543 158.218 20.8167 158.081 20.5393C157.978 20.3308 157.928 20.1 157.936 19.8674C157.945 19.6375 158.017 19.4146 158.144 19.2227C158.308 18.9576 158.54 18.7412 158.816 18.5962C159.074 18.7702 159.283 19.0078 159.423 19.2863C159.527 19.4946 159.577 19.7256 159.568 19.9582C159.551 20.1866 159.479 20.4075 159.36 20.6029C159.191 20.867 158.957 21.0829 158.68 21.2294V21.2294Z" fill="#FFE3C5"/>
<path d="M159.124 13.6748C158.881 13.5739 158.666 13.4149 158.498 13.2117C158.396 13.0865 158.341 12.9288 158.344 12.7668C158.35 12.6053 158.418 12.4524 158.534 12.34C158.716 12.1509 158.94 12.0077 159.188 11.9224C159.432 12.0206 159.648 12.1801 159.813 12.3855C159.917 12.5106 159.975 12.6677 159.977 12.8304C159.961 12.9941 159.891 13.1477 159.777 13.2662C159.595 13.4521 159.371 13.5921 159.124 13.6748V13.6748Z" fill="#FFE3C5"/>
<path d="M151.006 23.8448C150.897 23.5175 150.857 23.1713 150.888 22.8278C150.914 22.5642 150.991 22.3082 151.114 22.0742C151.238 21.8399 151.408 21.633 151.613 21.4658C151.879 21.2456 152.188 21.0846 152.52 20.9937C152.698 21.3024 152.786 21.6546 152.774 22.0106C152.768 22.3023 152.693 22.5883 152.557 22.846C152.415 23.0995 152.22 23.3193 151.985 23.4907C151.697 23.6963 151.358 23.8188 151.006 23.8448V23.8448Z" fill="#FFE3C5"/>
<path d="M154.552 15.9719C154.358 15.8222 154.198 15.6335 154.081 15.418C154.03 15.2929 154.03 15.1527 154.081 15.0276C154.136 14.9063 154.237 14.8117 154.362 14.7642C154.594 14.6804 154.841 14.6463 155.088 14.6644C155.284 14.8143 155.447 15.0028 155.568 15.2183C155.634 15.3374 155.65 15.4776 155.614 15.6087C155.554 15.7306 155.45 15.8249 155.323 15.872C155.077 15.9624 154.814 15.9966 154.552 15.9719V15.9719Z" fill="#FFE3C5"/>
<path d="M155.196 10.7239C155.013 11.03 154.787 11.3083 154.525 11.5502C154.329 11.7359 154.11 11.8947 153.872 12.0224C153.627 12.1426 153.368 12.2311 153.101 12.2857C152.752 12.3539 152.394 12.3723 152.04 12.3402C152.017 11.9484 152.129 11.5606 152.357 11.2415C152.552 10.9579 152.814 10.727 153.119 10.5696C153.429 10.4138 153.771 10.3329 154.117 10.3335C154.51 10.3433 154.888 10.4803 155.196 10.7239Z" fill="#FFE3C5"/>
<path d="M146.516 17.2526C146.436 17.6122 146.285 17.952 146.071 18.2514C145.893 18.4928 145.671 18.699 145.418 18.8598C145.168 19.0275 144.887 19.1447 144.593 19.2048C144.234 19.2865 143.862 19.2865 143.504 19.2048C143.534 18.8287 143.666 18.4678 143.885 18.1606C144.056 17.8945 144.281 17.6685 144.547 17.4978C144.824 17.3254 145.132 17.2111 145.454 17.1618C145.81 17.1044 146.175 17.1356 146.516 17.2526V17.2526Z" fill="#FFE3C5"/>
</g>
<defs>
<filter id="filter0_f" x="11" y="81.1572" width="156" height="26.0104" filterUnits="userSpaceOnUse" color-interpolation-filters="sRGB">
<feFlood flood-opacity="0" result="BackgroundImageFix"/>
<feBlend mode="normal" in="SourceGraphic" in2="BackgroundImageFix" result="shape"/>
<feGaussianBlur stdDeviation="5" result="effect1_foregroundBlur"/>
</filter>
<clipPath id="clip0">
<rect width="45.9643" height="56.2185" fill="white" transform="matrix(0.435579 -0.900151 0.899559 0.436799 0 81.4434)"/>
</clipPath>
<clipPath id="clip1">
<rect width="37" height="42.3588" fill="white" transform="translate(133)"/>
</clipPath>
</defs>
</svg>
