<svg width="277" height="106" viewBox="0 0 277 106" fill="none" xmlns="http://www.w3.org/2000/svg">
<g clip-path="url(#clip0)">
<g filter="url(#filter0_f)">
<ellipse cx="86" cy="94" rx="68" ry="3" fill="#C4C4C4" fill-opacity="0.5"/>
</g>
<path d="M162.71 87.3779C161.909 88.3154 160.742 89.043 159.209 89.5605C157.676 90.0684 155.977 90.3076 154.111 90.2783C152.324 90.2588 150.815 89.8096 149.585 88.9307C148.354 88.0518 147.476 86.8262 146.948 85.2539C146.421 83.6816 146.279 81.9092 146.523 79.9365L146.641 79.0576C147.09 75.7471 148.252 73.125 150.127 71.1914C152.012 69.2578 154.316 68.3154 157.041 68.3643C159.424 68.4033 161.255 69.043 162.534 70.2832C163.813 71.5234 164.526 73.3154 164.673 75.6592L159.868 75.6445C159.8 74.502 159.517 73.667 159.019 73.1396C158.53 72.6123 157.832 72.334 156.924 72.3047C155.576 72.2559 154.463 72.7881 153.584 73.9014C152.705 75.0049 152.104 76.5869 151.782 78.6475C151.509 80.4053 151.411 81.7725 151.489 82.749C151.636 85.1025 152.695 86.2939 154.668 86.3232C155.859 86.3428 156.904 86.0547 157.803 85.459L158.462 82.1338H154.99L155.605 78.6035H164.087L162.71 87.3779ZM170.356 90H165.347L169.053 68.6719H174.048L170.356 90ZM191.626 87.3779C190.825 88.3154 189.658 89.043 188.125 89.5605C186.592 90.0684 184.893 90.3076 183.027 90.2783C181.24 90.2588 179.731 89.8096 178.501 88.9307C177.271 88.0518 176.392 86.8262 175.864 85.2539C175.337 83.6816 175.195 81.9092 175.439 79.9365L175.557 79.0576C176.006 75.7471 177.168 73.125 179.043 71.1914C180.928 69.2578 183.232 68.3154 185.957 68.3643C188.34 68.4033 190.171 69.043 191.45 70.2832C192.729 71.5234 193.442 73.3154 193.589 75.6592L188.784 75.6445C188.716 74.502 188.433 73.667 187.935 73.1396C187.446 72.6123 186.748 72.334 185.84 72.3047C184.492 72.2559 183.379 72.7881 182.5 73.9014C181.621 75.0049 181.021 76.5869 180.698 78.6475C180.425 80.4053 180.327 81.7725 180.405 82.749C180.552 85.1025 181.611 86.2939 183.584 86.3232C184.775 86.3428 185.82 86.0547 186.719 85.459L187.378 82.1338H183.906L184.521 78.6035H193.003L191.626 87.3779ZM206.45 86.0156H199.639L197.749 90H192.227L203.521 68.6719H208.237L212.178 90H206.963L206.45 86.0156ZM201.514 82.0459H205.938L205 74.6924L201.514 82.0459ZM225.625 84.2285C225.84 83.125 225.244 82.2705 223.838 81.665L221.436 80.6689C218.066 79.1553 216.465 77.0947 216.631 74.4873C216.699 73.2959 217.109 72.2363 217.861 71.3086C218.613 70.3711 219.653 69.6436 220.981 69.126C222.31 68.6084 223.76 68.3594 225.332 68.3789C227.441 68.418 229.136 69.0332 230.415 70.2246C231.704 71.416 232.339 73.0127 232.319 75.0146H227.339C227.368 74.1943 227.192 73.54 226.812 73.0518C226.44 72.5537 225.825 72.2949 224.966 72.2754C224.126 72.2559 223.384 72.4512 222.739 72.8613C222.095 73.2715 221.714 73.8232 221.597 74.5166C221.411 75.4932 222.134 76.2939 223.765 76.9189C225.405 77.5439 226.597 78.0811 227.339 78.5303C229.673 79.9268 230.767 81.8115 230.62 84.1846C230.542 85.415 230.146 86.4941 229.434 87.4219C228.721 88.3496 227.729 89.0674 226.46 89.5752C225.2 90.083 223.784 90.3271 222.212 90.3076C221.06 90.2881 219.99 90.1074 219.004 89.7656C218.018 89.4238 217.173 88.9258 216.47 88.2715C215.044 86.9531 214.36 85.2197 214.419 83.0713L219.443 83.0859C219.385 84.1797 219.595 85.0098 220.073 85.5762C220.552 86.1328 221.357 86.4111 222.49 86.4111C223.33 86.4111 224.028 86.2207 224.585 85.8398C225.151 85.4492 225.498 84.9121 225.625 84.2285Z" fill="#BBBBBB"/>
<path d="M89.4287 26.0488L88.2861 37.7383H86.9678C81.9873 37.7969 77.6074 39.1152 73.8281 41.6934C70.0781 44.2715 67.0898 47.9922 64.8633 52.8555C68.4668 49.4277 72.6709 47.7725 77.4756 47.8896C80.9033 47.9482 83.8037 48.9297 86.1768 50.834C88.5498 52.709 90.293 55.3164 91.4062 58.6562C92.5488 61.9668 92.959 65.585 92.6367 69.5107C92.3145 73.4658 91.1133 77.1279 89.0332 80.4971C86.9531 83.8662 84.2139 86.5615 80.8154 88.583C76.9189 90.8975 72.7441 92.0107 68.291 91.9229C63.9258 91.8643 60.1611 90.6924 56.9971 88.4072C53.833 86.1221 51.5186 83.0166 50.0537 79.0908C48.5889 75.1357 48.1055 70.8145 48.6035 66.127L49.2627 60.7217C50.1123 54.2471 52.2656 48.3584 55.7227 43.0557C59.209 37.7236 63.6621 33.5781 69.082 30.6191C74.5312 27.6309 80.4199 26.1074 86.748 26.0488H89.4287ZM71.8945 59.1396C68.6133 59.0225 65.7861 60.5898 63.4131 63.8418C62.8564 67.9434 62.5781 70.7559 62.5781 72.2793C62.5781 74.8574 63.1055 76.8643 64.1602 78.2998C65.2148 79.7061 66.7383 80.4238 68.7305 80.4531C71.6602 80.5117 74.0332 79.0469 75.8496 76.0586C77.6953 73.041 78.4424 69.6865 78.0908 65.9951C77.8857 63.9443 77.2412 62.3037 76.1572 61.0732C75.0732 59.8135 73.6523 59.1689 71.8945 59.1396ZM117.554 91.8789C113.921 91.791 110.742 90.9414 108.018 89.3301C105.322 87.6895 103.242 85.3018 101.777 82.167C100.312 79.0029 99.5215 75.4141 99.4043 71.4004C99.3164 69.2324 99.4043 67.0498 99.668 64.8525L101.338 53.6904C102.686 44.6963 105.571 37.8262 109.995 33.0801C114.419 28.3047 120.059 25.9902 126.914 26.1367C132.48 26.2539 136.831 28.1289 139.966 31.7617C143.13 35.3945 144.829 40.3457 145.063 46.6152C145.122 48.7832 145.02 50.9658 144.756 53.1631L142.998 64.5449C141.592 73.6562 138.677 80.5264 134.253 85.1553C129.858 89.7842 124.292 92.0254 117.554 91.8789ZM130.605 51.1855C130.869 49.1348 131.016 47.333 131.045 45.7803C131.045 40.4189 129.346 37.6504 125.947 37.4746C120.732 37.2109 117.495 41.6787 116.235 50.8779L113.906 66.6982C113.613 69.1299 113.467 70.9316 113.467 72.1035C113.32 77.5234 115.005 80.3359 118.521 80.541C123.823 80.8047 127.09 76.2197 128.32 66.7861L130.605 51.1855Z" fill="#EF3829"/>
<path d="M89.4287 26.0488L92.4145 26.3407L92.7362 23.0488H89.4287V26.0488ZM88.2861 37.7383V40.7383H91.0072L91.2719 38.0301L88.2861 37.7383ZM86.9678 37.7383V34.7383H86.9501L86.9325 34.7385L86.9678 37.7383ZM73.8281 41.6934L72.1375 39.2151L72.1285 39.2212L73.8281 41.6934ZM64.8633 52.8555L62.1356 51.6066L66.9309 55.0291L64.8633 52.8555ZM77.4756 47.8896L77.4024 50.8888L77.4134 50.889L77.4243 50.8892L77.4756 47.8896ZM86.1768 50.834L84.2992 53.1738L84.308 53.1809L84.3169 53.1879L86.1768 50.834ZM91.4062 58.6562L88.5602 59.6049L88.5652 59.62L88.5704 59.635L91.4062 58.6562ZM92.6367 69.5107L89.6468 69.2653L89.6466 69.2671L92.6367 69.5107ZM80.8154 88.583L82.3475 91.1623L82.3491 91.1614L80.8154 88.583ZM68.291 91.9229L68.3502 88.9234L68.3407 88.9232L68.3313 88.9231L68.291 91.9229ZM50.0537 79.0908L47.2405 80.1328L47.243 80.1396L50.0537 79.0908ZM48.6035 66.127L45.6256 65.7638L45.6228 65.7869L45.6203 65.81L48.6035 66.127ZM49.2627 60.7217L46.2882 60.3314L46.2864 60.3449L46.2848 60.3585L49.2627 60.7217ZM55.7227 43.0557L53.2117 41.4139L53.2095 41.4173L55.7227 43.0557ZM69.082 30.6191L70.5196 33.2523L70.5245 33.2496L69.082 30.6191ZM86.748 26.0488V23.0488H86.7342L86.7203 23.049L86.748 26.0488ZM71.8945 59.1396L71.7875 62.1377L71.816 62.1388L71.8445 62.1392L71.8945 59.1396ZM63.4131 63.8418L60.9897 62.0734L60.5424 62.6864L60.4403 63.4384L63.4131 63.8418ZM64.1602 78.2998L61.7425 80.076L61.7513 80.088L61.7602 80.0998L64.1602 78.2998ZM68.7305 80.4531L68.7905 77.4537L68.7825 77.4536L68.7746 77.4534L68.7305 80.4531ZM75.8496 76.0586L73.2904 74.4932L73.286 74.5003L75.8496 76.0586ZM78.0908 65.9951L81.0773 65.7107L81.0766 65.7036L81.0759 65.6966L78.0908 65.9951ZM76.1572 61.0732L73.8832 63.03L73.8946 63.0432L73.9061 63.0563L76.1572 61.0732ZM86.4429 25.757L85.3004 37.4464L91.2719 38.0301L92.4145 26.3407L86.4429 25.757ZM88.2861 34.7383H86.9678V40.7383H88.2861V34.7383ZM86.9325 34.7385C81.4157 34.8034 76.4485 36.2742 72.1375 39.2151L75.5187 44.1716C78.7663 41.9562 82.5589 40.7904 87.0031 40.7381L86.9325 34.7385ZM72.1285 39.2212C67.8585 42.1569 64.5479 46.3375 62.1356 51.6066L67.591 54.1043C69.6318 49.6468 72.2978 46.3861 75.5277 44.1655L72.1285 39.2212ZM66.9309 55.0291C69.9808 52.128 73.4229 50.7917 77.4024 50.8888L77.5487 44.8905C71.9189 44.7532 66.9528 46.7274 62.7956 50.6818L66.9309 55.0291ZM77.4243 50.8892C80.2757 50.938 82.5101 51.7381 84.2992 53.1738L88.0544 48.4942C85.0973 46.1213 81.531 44.9585 77.5269 44.8901L77.4243 50.8892ZM84.3169 53.1879C86.16 54.6442 87.6007 56.7265 88.5602 59.6049L94.2523 57.7076C92.9852 53.9063 90.9396 50.7738 88.0366 48.4801L84.3169 53.1879ZM88.5704 59.635C89.5614 62.5063 89.9393 65.7021 89.6468 69.2653L95.6267 69.7562C95.9787 65.4678 95.5363 61.4273 94.2421 57.6775L88.5704 59.635ZM89.6466 69.2671C89.3628 72.7508 88.311 75.9562 86.4805 78.9211L91.5859 82.0731C93.9155 78.2997 95.2661 74.1808 95.6268 69.7544L89.6466 69.2671ZM86.4805 78.9211C84.654 81.8794 82.2641 84.2307 79.2818 86.0047L82.3491 91.1614C86.1636 88.8924 89.2522 85.853 91.5859 82.0731L86.4805 78.9211ZM79.2834 86.0037C75.8589 88.0378 72.2339 89.0001 68.3502 88.9234L68.2318 94.9223C73.2544 95.0214 77.979 93.7571 82.3475 91.1623L79.2834 86.0037ZM68.3313 88.9231C64.5067 88.8718 61.3591 87.857 58.7535 85.9752L55.2406 90.8393C58.9632 93.5278 63.3449 94.8567 68.2508 94.9226L68.3313 88.9231ZM58.7535 85.9752C56.1055 84.0627 54.1381 81.4556 52.8644 78.042L47.243 80.1396C48.899 84.5776 51.5605 88.1814 55.2406 90.8393L58.7535 85.9752ZM52.867 78.0489C51.5809 74.5764 51.1317 70.7261 51.5867 66.4439L45.6203 65.81C45.0792 70.9028 45.5969 75.6951 47.2405 80.1328L52.867 78.0489ZM51.5815 66.4901L52.2406 61.0848L46.2848 60.3585L45.6256 65.7638L51.5815 66.4901ZM52.2372 61.112C53.0303 55.0682 55.0319 49.6085 58.2358 44.694L53.2095 41.4173C49.4994 47.1083 47.1943 53.4259 46.2882 60.3314L52.2372 61.112ZM58.2336 44.6974C61.4582 39.7656 65.5477 35.9666 70.5196 33.2523L67.6445 27.986C61.7765 31.1896 56.9598 35.6816 53.2117 41.4139L58.2336 44.6974ZM70.5245 33.2496C75.5317 30.5037 80.9331 29.1028 86.7758 29.0487L86.7203 23.049C79.9067 23.112 73.5308 24.758 67.6395 27.9887L70.5245 33.2496ZM86.748 29.0488H89.4287V23.0488H86.748V29.0488ZM72.0016 56.1416C67.4937 55.9806 63.7988 58.2239 60.9897 62.0734L65.8365 65.6102C67.7735 62.9558 69.7328 62.0644 71.7875 62.1377L72.0016 56.1416ZM60.4403 63.4384C59.8862 67.5211 59.5781 70.5248 59.5781 72.2793H65.5781C65.5781 70.987 65.8266 68.3656 66.3858 64.2452L60.4403 63.4384ZM59.5781 72.2793C59.5781 75.2216 60.174 77.9411 61.7425 80.076L66.5778 76.5236C66.0369 75.7874 65.5781 74.4932 65.5781 72.2793H59.5781ZM61.7602 80.0998C63.4516 82.355 65.9065 83.4119 68.6864 83.4528L68.7746 77.4534C67.57 77.4357 66.9781 77.0571 66.5602 76.4998L61.7602 80.0998ZM68.6705 83.4525C72.8926 83.537 76.1684 81.3099 78.4132 77.6168L73.286 74.5003C71.898 76.7839 70.4277 77.4865 68.7905 77.4537L68.6705 83.4525ZM78.4088 77.6239C80.6105 74.0243 81.4873 70.0153 81.0773 65.7107L75.1043 66.2795C75.3975 69.3578 74.7801 72.0577 73.2904 74.4932L78.4088 77.6239ZM81.0759 65.6966C80.8246 63.183 80.003 60.9003 78.4083 59.0902L73.9061 63.0563C74.4794 63.7071 74.9469 64.7057 75.1057 66.2936L81.0759 65.6966ZM78.4313 59.1165C76.7532 57.1663 74.5025 56.1827 71.9445 56.1401L71.8445 62.1392C72.8022 62.1552 73.3933 62.4606 73.8832 63.03L78.4313 59.1165ZM117.554 91.8789L117.481 94.878L117.489 94.8782L117.554 91.8789ZM108.018 89.3301L106.458 91.8927L106.474 91.9026L106.49 91.9123L108.018 89.3301ZM101.777 82.167L99.0549 83.4274L99.0594 83.437L101.777 82.167ZM99.4043 71.4004L102.403 71.3128L102.403 71.2958L102.402 71.2789L99.4043 71.4004ZM99.668 64.8525L96.701 64.4087L96.6945 64.4518L96.6893 64.4951L99.668 64.8525ZM101.338 53.6904L98.371 53.2459L98.3709 53.2466L101.338 53.6904ZM109.995 33.0801L112.19 35.1256L112.196 35.1188L109.995 33.0801ZM126.914 26.1367L126.85 29.136L126.851 29.1361L126.914 26.1367ZM139.966 31.7617L137.695 33.7216L137.704 33.7321L139.966 31.7617ZM145.063 46.6152L148.062 46.5342L148.062 46.5187L148.061 46.5032L145.063 46.6152ZM144.756 53.1631L147.721 53.621L147.728 53.5709L147.734 53.5205L144.756 53.1631ZM142.998 64.5449L140.033 64.087L140.033 64.0873L142.998 64.5449ZM134.253 85.1553L132.084 83.0825L132.077 83.0897L134.253 85.1553ZM130.605 51.1855L133.574 51.6203L133.578 51.5943L133.581 51.5681L130.605 51.1855ZM131.045 45.7803L134.044 45.8369L134.045 45.8086V45.7803H131.045ZM125.947 37.4746L126.102 34.4786L126.099 34.4784L125.947 37.4746ZM116.235 50.8779L119.203 51.3149L119.206 51.2999L119.208 51.285L116.235 50.8779ZM113.906 66.6982L110.938 66.2613L110.933 66.3003L110.928 66.3394L113.906 66.6982ZM113.467 72.1035L116.466 72.1846L116.467 72.144V72.1035H113.467ZM118.521 80.541L118.346 83.5359L118.359 83.5367L118.372 83.5373L118.521 80.541ZM128.32 66.7861L125.352 66.3513L125.349 66.3747L125.346 66.3981L128.32 66.7861ZM117.626 88.8798C114.429 88.8024 111.766 88.0617 109.545 86.7479L106.49 91.9123C109.718 93.8211 113.413 94.7796 117.481 94.878L117.626 88.8798ZM109.577 86.7675C107.436 85.4638 105.735 83.5501 104.495 80.8969L99.0594 83.437C100.749 87.0534 103.209 89.9152 106.458 91.8927L109.577 86.7675ZM104.5 80.9066C103.229 78.1624 102.51 74.9819 102.403 71.3128L96.4056 71.4879C96.5328 75.8462 97.3957 79.8434 99.0549 83.4274L104.5 80.9066ZM102.402 71.2789C102.321 69.274 102.402 67.2515 102.647 65.21L96.6893 64.4951C96.407 66.8481 96.3123 69.1909 96.4068 71.5219L102.402 71.2789ZM102.635 65.2964L104.305 54.1343L98.3709 53.2466L96.701 64.4087L102.635 65.2964ZM104.305 54.135C105.597 45.5077 108.315 39.2828 112.19 35.1256L107.801 31.0346C102.828 36.3695 99.7736 43.8848 98.371 53.2459L104.305 54.135ZM112.196 35.1188C116.002 31.0098 120.8 29.0068 126.85 29.136L126.978 23.1374C119.317 22.9737 112.835 25.5996 107.794 31.0413L112.196 35.1188ZM126.851 29.1361C131.717 29.2385 135.206 30.838 137.695 33.7216L142.237 29.8018C138.456 25.4198 133.244 23.2693 126.977 23.1374L126.851 29.1361ZM137.704 33.7321C140.297 36.7092 141.849 40.9337 142.066 46.7273L148.061 46.5032C147.809 39.7577 145.963 34.0798 142.228 29.7914L137.704 33.7321ZM142.065 46.6963C142.119 48.7148 142.024 50.7509 141.777 52.8057L147.734 53.5205C148.015 51.1808 148.125 48.8516 148.062 46.5342L142.065 46.6963ZM141.791 52.7052L140.033 64.087L145.963 65.0028L147.721 53.621L141.791 52.7052ZM140.033 64.0873C138.681 72.8473 135.934 79.054 132.084 83.0825L136.422 87.228C141.419 81.9987 144.502 74.4652 145.963 65.0025L140.033 64.0873ZM132.077 83.0897C128.301 87.0679 123.565 89.0089 117.619 88.8796L117.489 94.8782C125.019 95.0419 131.416 92.5005 136.429 87.2208L132.077 83.0897ZM133.581 51.5681C133.854 49.4422 134.012 47.5275 134.044 45.8369L128.045 45.7237C128.019 47.1386 127.884 48.8273 127.63 50.803L133.581 51.5681ZM134.045 45.7803C134.045 42.8682 133.599 40.1849 132.327 38.1136C130.932 35.8407 128.732 34.6147 126.102 34.4786L125.792 40.4706C126.561 40.5103 126.909 40.7565 127.214 41.2521C127.642 41.9494 128.045 43.331 128.045 45.7803H134.045ZM126.099 34.4784C122.41 34.2919 119.353 35.8673 117.179 38.8674C115.136 41.6864 113.92 45.6755 113.263 50.4709L119.208 51.285C119.811 46.8812 120.843 44.0368 122.037 42.3879C123.101 40.9203 124.269 40.3936 125.796 40.4708L126.099 34.4784ZM113.267 50.441L110.938 66.2613L116.874 67.1352L119.203 51.3149L113.267 50.441ZM110.928 66.3394C110.632 68.791 110.467 70.7418 110.467 72.1035H116.467C116.467 71.1214 116.594 69.4687 116.885 67.0571L110.928 66.3394ZM110.468 72.0225C110.388 74.9681 110.777 77.6994 112.047 79.8193C113.442 82.1492 115.684 83.3807 118.346 83.5359L118.695 77.5461C117.841 77.4963 117.483 77.219 117.194 76.7363C116.779 76.0438 116.399 74.6589 116.466 72.1846L110.468 72.0225ZM118.372 83.5373C122.116 83.7235 125.207 82.106 127.391 79.0408C129.443 76.1607 130.655 72.0839 131.295 67.1742L125.346 66.3981C124.755 70.922 123.719 73.8544 122.504 75.5593C121.421 77.0791 120.227 77.6222 118.669 77.5447L118.372 83.5373ZM131.289 67.2209L133.574 51.6203L127.637 50.7508L125.352 66.3513L131.289 67.2209Z" fill="#EF3829"/>
</g>
<defs>
<filter id="filter0_f" x="8" y="81" width="156" height="26" filterUnits="userSpaceOnUse" color-interpolation-filters="sRGB">
<feFlood flood-opacity="0" result="BackgroundImageFix"/>
<feBlend mode="normal" in="SourceGraphic" in2="BackgroundImageFix" result="shape"/>
<feGaussianBlur stdDeviation="5" result="effect1_foregroundBlur"/>
</filter>
<clipPath id="clip0">
<rect width="277" height="105.82" fill="white"/>
</clipPath>
</defs>
</svg>
