<svg width="277" height="106" viewBox="0 0 277 106" fill="none" xmlns="http://www.w3.org/2000/svg">
<g clip-path="url(#clip0)">
<g filter="url(#filter0_f)">
<ellipse cx="86" cy="94" rx="68" ry="3" fill="#C4C4C4" fill-opacity="0.5"/>
</g>
<path d="M162.71 87.3779C161.909 88.3154 160.742 89.043 159.209 89.5605C157.676 90.0684 155.977 90.3076 154.111 90.2783C152.324 90.2588 150.815 89.8096 149.585 88.9307C148.354 88.0518 147.476 86.8262 146.948 85.2539C146.421 83.6816 146.279 81.9092 146.523 79.9365L146.641 79.0576C147.09 75.7471 148.252 73.125 150.127 71.1914C152.012 69.2578 154.316 68.3154 157.041 68.3643C159.424 68.4033 161.255 69.043 162.534 70.2832C163.813 71.5234 164.526 73.3154 164.673 75.6592L159.868 75.6445C159.8 74.502 159.517 73.667 159.019 73.1396C158.53 72.6123 157.832 72.334 156.924 72.3047C155.576 72.2559 154.463 72.7881 153.584 73.9014C152.705 75.0049 152.104 76.5869 151.782 78.6475C151.509 80.4053 151.411 81.7725 151.489 82.749C151.636 85.1025 152.695 86.2939 154.668 86.3232C155.859 86.3428 156.904 86.0547 157.803 85.459L158.462 82.1338H154.99L155.605 78.6035H164.087L162.71 87.3779ZM170.356 90H165.347L169.053 68.6719H174.048L170.356 90ZM191.626 87.3779C190.825 88.3154 189.658 89.043 188.125 89.5605C186.592 90.0684 184.893 90.3076 183.027 90.2783C181.24 90.2588 179.731 89.8096 178.501 88.9307C177.271 88.0518 176.392 86.8262 175.864 85.2539C175.337 83.6816 175.195 81.9092 175.439 79.9365L175.557 79.0576C176.006 75.7471 177.168 73.125 179.043 71.1914C180.928 69.2578 183.232 68.3154 185.957 68.3643C188.34 68.4033 190.171 69.043 191.45 70.2832C192.729 71.5234 193.442 73.3154 193.589 75.6592L188.784 75.6445C188.716 74.502 188.433 73.667 187.935 73.1396C187.446 72.6123 186.748 72.334 185.84 72.3047C184.492 72.2559 183.379 72.7881 182.5 73.9014C181.621 75.0049 181.021 76.5869 180.698 78.6475C180.425 80.4053 180.327 81.7725 180.405 82.749C180.552 85.1025 181.611 86.2939 183.584 86.3232C184.775 86.3428 185.82 86.0547 186.719 85.459L187.378 82.1338H183.906L184.521 78.6035H193.003L191.626 87.3779ZM206.45 86.0156H199.639L197.749 90H192.227L203.521 68.6719H208.237L212.178 90H206.963L206.45 86.0156ZM201.514 82.0459H205.938L205 74.6924L201.514 82.0459ZM225.625 84.2285C225.84 83.125 225.244 82.2705 223.838 81.665L221.436 80.6689C218.066 79.1553 216.465 77.0947 216.631 74.4873C216.699 73.2959 217.109 72.2363 217.861 71.3086C218.613 70.3711 219.653 69.6436 220.981 69.126C222.31 68.6084 223.76 68.3594 225.332 68.3789C227.441 68.418 229.136 69.0332 230.415 70.2246C231.704 71.416 232.339 73.0127 232.319 75.0146H227.339C227.368 74.1943 227.192 73.54 226.812 73.0518C226.44 72.5537 225.825 72.2949 224.966 72.2754C224.126 72.2559 223.384 72.4512 222.739 72.8613C222.095 73.2715 221.714 73.8232 221.597 74.5166C221.411 75.4932 222.134 76.2939 223.765 76.9189C225.405 77.5439 226.597 78.0811 227.339 78.5303C229.673 79.9268 230.767 81.8115 230.62 84.1846C230.542 85.415 230.146 86.4941 229.434 87.4219C228.721 88.3496 227.729 89.0674 226.46 89.5752C225.2 90.083 223.784 90.3271 222.212 90.3076C221.06 90.2881 219.99 90.1074 219.004 89.7656C218.018 89.4238 217.173 88.9258 216.47 88.2715C215.044 86.9531 214.36 85.2197 214.419 83.0713L219.443 83.0859C219.385 84.1797 219.595 85.0098 220.073 85.5762C220.552 86.1328 221.357 86.4111 222.49 86.4111C223.33 86.4111 224.028 86.2207 224.585 85.8398C225.151 85.4492 225.498 84.9121 225.625 84.2285Z" fill="#BBBBBB"/>
<path d="M89.4287 26.0488L88.2861 37.7383H86.9678C81.9873 37.7969 77.6074 39.1152 73.8281 41.6934C70.0781 44.2715 67.0898 47.9922 64.8633 52.8555C68.4668 49.4277 72.6709 47.7725 77.4756 47.8896C80.9033 47.9482 83.8037 48.9297 86.1768 50.834C88.5498 52.709 90.293 55.3164 91.4062 58.6562C92.5488 61.9668 92.959 65.585 92.6367 69.5107C92.3145 73.4658 91.1133 77.1279 89.0332 80.4971C86.9531 83.8662 84.2139 86.5615 80.8154 88.583C76.9189 90.8975 72.7441 92.0107 68.291 91.9229C63.9258 91.8643 60.1611 90.6924 56.9971 88.4072C53.833 86.1221 51.5186 83.0166 50.0537 79.0908C48.5889 75.1357 48.1055 70.8145 48.6035 66.127L49.2627 60.7217C50.1123 54.2471 52.2656 48.3584 55.7227 43.0557C59.209 37.7236 63.6621 33.5781 69.082 30.6191C74.5312 27.6309 80.4199 26.1074 86.748 26.0488H89.4287ZM71.8945 59.1396C68.6133 59.0225 65.7861 60.5898 63.4131 63.8418C62.8564 67.9434 62.5781 70.7559 62.5781 72.2793C62.5781 74.8574 63.1055 76.8643 64.1602 78.2998C65.2148 79.7061 66.7383 80.4238 68.7305 80.4531C71.6602 80.5117 74.0332 79.0469 75.8496 76.0586C77.6953 73.041 78.4424 69.6865 78.0908 65.9951C77.8857 63.9443 77.2412 62.3037 76.1572 61.0732C75.0732 59.8135 73.6523 59.1689 71.8945 59.1396ZM101.294 59.5352L110.171 27.0156H146.646L144.8 38.5293H120.322L116.411 51.3174C118.784 49.7939 121.729 49.0029 125.244 48.9443C130.869 48.9443 135.19 50.8926 138.208 54.7891C141.255 58.6855 142.515 63.7832 141.987 70.082C141.46 76.5859 138.926 81.8887 134.385 85.9902C129.844 90.0625 124.351 92.04 117.905 91.9229C114.126 91.835 110.684 90.9561 107.578 89.2861C104.502 87.6162 102.114 85.3457 100.415 82.4746C98.7158 79.5742 97.8809 76.3369 97.9102 72.7627H112.324C112.383 75.0479 112.954 76.8789 114.038 78.2559C115.122 79.6328 116.646 80.3506 118.608 80.4092C121.011 80.4971 123.003 79.6035 124.585 77.7285C126.167 75.8242 127.178 72.9385 127.617 69.0713C127.91 65.8193 127.471 63.3584 126.299 61.6885C125.127 59.9893 123.296 59.1396 120.806 59.1396C117.612 59.1396 115.02 60.2236 113.027 62.3916L101.294 59.5352Z" fill="#EF3829"/>
<path d="M89.4287 26.0488L92.4145 26.3407L92.7362 23.0488H89.4287V26.0488ZM88.2861 37.7383V40.7383H91.0072L91.2719 38.0301L88.2861 37.7383ZM86.9678 37.7383V34.7383H86.9501L86.9325 34.7385L86.9678 37.7383ZM73.8281 41.6934L72.1375 39.2151L72.1285 39.2212L73.8281 41.6934ZM64.8633 52.8555L62.1356 51.6066L66.9309 55.0291L64.8633 52.8555ZM77.4756 47.8896L77.4024 50.8888L77.4134 50.889L77.4243 50.8892L77.4756 47.8896ZM86.1768 50.834L84.2992 53.1738L84.308 53.1809L84.3169 53.1879L86.1768 50.834ZM91.4062 58.6562L88.5602 59.6049L88.5652 59.62L88.5704 59.635L91.4062 58.6562ZM92.6367 69.5107L89.6468 69.2653L89.6466 69.2671L92.6367 69.5107ZM80.8154 88.583L82.3475 91.1623L82.3491 91.1614L80.8154 88.583ZM68.291 91.9229L68.3502 88.9234L68.3407 88.9232L68.3313 88.9231L68.291 91.9229ZM50.0537 79.0908L47.2405 80.1328L47.243 80.1396L50.0537 79.0908ZM48.6035 66.127L45.6256 65.7638L45.6228 65.7869L45.6203 65.81L48.6035 66.127ZM49.2627 60.7217L46.2882 60.3314L46.2864 60.3449L46.2848 60.3585L49.2627 60.7217ZM55.7227 43.0557L53.2117 41.4139L53.2095 41.4173L55.7227 43.0557ZM69.082 30.6191L70.5196 33.2523L70.5245 33.2496L69.082 30.6191ZM86.748 26.0488V23.0488H86.7342L86.7203 23.049L86.748 26.0488ZM71.8945 59.1396L71.7875 62.1377L71.816 62.1388L71.8445 62.1392L71.8945 59.1396ZM63.4131 63.8418L60.9897 62.0734L60.5424 62.6864L60.4403 63.4384L63.4131 63.8418ZM64.1602 78.2998L61.7425 80.076L61.7513 80.088L61.7602 80.0998L64.1602 78.2998ZM68.7305 80.4531L68.7905 77.4537L68.7825 77.4536L68.7746 77.4534L68.7305 80.4531ZM75.8496 76.0586L73.2904 74.4932L73.286 74.5003L75.8496 76.0586ZM78.0908 65.9951L81.0773 65.7107L81.0766 65.7036L81.0759 65.6966L78.0908 65.9951ZM76.1572 61.0732L73.8832 63.03L73.8946 63.0432L73.9061 63.0563L76.1572 61.0732ZM86.4429 25.757L85.3004 37.4464L91.2719 38.0301L92.4145 26.3407L86.4429 25.757ZM88.2861 34.7383H86.9678V40.7383H88.2861V34.7383ZM86.9325 34.7385C81.4157 34.8034 76.4485 36.2742 72.1375 39.2151L75.5187 44.1716C78.7663 41.9562 82.5589 40.7904 87.0031 40.7381L86.9325 34.7385ZM72.1285 39.2212C67.8585 42.1569 64.5479 46.3375 62.1356 51.6066L67.591 54.1043C69.6318 49.6468 72.2978 46.3861 75.5277 44.1655L72.1285 39.2212ZM66.9309 55.0291C69.9808 52.128 73.4229 50.7917 77.4024 50.8888L77.5487 44.8905C71.9189 44.7532 66.9528 46.7274 62.7956 50.6818L66.9309 55.0291ZM77.4243 50.8892C80.2757 50.938 82.5101 51.7381 84.2992 53.1738L88.0544 48.4942C85.0973 46.1213 81.531 44.9585 77.5269 44.8901L77.4243 50.8892ZM84.3169 53.1879C86.16 54.6442 87.6007 56.7265 88.5602 59.6049L94.2523 57.7076C92.9852 53.9063 90.9396 50.7738 88.0366 48.4801L84.3169 53.1879ZM88.5704 59.635C89.5614 62.5063 89.9393 65.7021 89.6468 69.2653L95.6267 69.7562C95.9787 65.4678 95.5363 61.4273 94.2421 57.6775L88.5704 59.635ZM89.6466 69.2671C89.3628 72.7508 88.311 75.9562 86.4805 78.9211L91.5859 82.0731C93.9155 78.2997 95.2661 74.1808 95.6268 69.7544L89.6466 69.2671ZM86.4805 78.9211C84.654 81.8794 82.2641 84.2307 79.2818 86.0047L82.3491 91.1614C86.1636 88.8924 89.2522 85.853 91.5859 82.0731L86.4805 78.9211ZM79.2834 86.0037C75.8589 88.0378 72.2339 89.0001 68.3502 88.9234L68.2318 94.9223C73.2544 95.0214 77.979 93.7571 82.3475 91.1623L79.2834 86.0037ZM68.3313 88.9231C64.5067 88.8718 61.3591 87.857 58.7535 85.9752L55.2406 90.8393C58.9632 93.5278 63.3449 94.8567 68.2508 94.9226L68.3313 88.9231ZM58.7535 85.9752C56.1055 84.0627 54.1381 81.4556 52.8644 78.042L47.243 80.1396C48.899 84.5776 51.5605 88.1814 55.2406 90.8393L58.7535 85.9752ZM52.867 78.0489C51.5809 74.5764 51.1317 70.7261 51.5867 66.4439L45.6203 65.81C45.0792 70.9028 45.5969 75.6951 47.2405 80.1328L52.867 78.0489ZM51.5815 66.4901L52.2406 61.0848L46.2848 60.3585L45.6256 65.7638L51.5815 66.4901ZM52.2372 61.112C53.0303 55.0682 55.0319 49.6085 58.2358 44.694L53.2095 41.4173C49.4994 47.1083 47.1943 53.4259 46.2882 60.3314L52.2372 61.112ZM58.2336 44.6974C61.4582 39.7656 65.5477 35.9666 70.5196 33.2523L67.6445 27.986C61.7765 31.1896 56.9598 35.6816 53.2117 41.4139L58.2336 44.6974ZM70.5245 33.2496C75.5317 30.5037 80.9331 29.1028 86.7758 29.0487L86.7203 23.049C79.9067 23.112 73.5308 24.758 67.6395 27.9887L70.5245 33.2496ZM86.748 29.0488H89.4287V23.0488H86.748V29.0488ZM72.0016 56.1416C67.4937 55.9806 63.7988 58.2239 60.9897 62.0734L65.8365 65.6102C67.7735 62.9558 69.7328 62.0644 71.7875 62.1377L72.0016 56.1416ZM60.4403 63.4384C59.8862 67.5211 59.5781 70.5248 59.5781 72.2793H65.5781C65.5781 70.987 65.8266 68.3656 66.3858 64.2452L60.4403 63.4384ZM59.5781 72.2793C59.5781 75.2216 60.174 77.9411 61.7425 80.076L66.5778 76.5236C66.0369 75.7874 65.5781 74.4932 65.5781 72.2793H59.5781ZM61.7602 80.0998C63.4516 82.355 65.9065 83.4119 68.6864 83.4528L68.7746 77.4534C67.57 77.4357 66.9781 77.0571 66.5602 76.4998L61.7602 80.0998ZM68.6705 83.4525C72.8926 83.537 76.1684 81.3099 78.4132 77.6168L73.286 74.5003C71.898 76.7839 70.4277 77.4865 68.7905 77.4537L68.6705 83.4525ZM78.4088 77.6239C80.6105 74.0243 81.4873 70.0153 81.0773 65.7107L75.1043 66.2795C75.3975 69.3578 74.7801 72.0577 73.2904 74.4932L78.4088 77.6239ZM81.0759 65.6966C80.8246 63.183 80.003 60.9003 78.4083 59.0902L73.9061 63.0563C74.4794 63.7071 74.9469 64.7057 75.1057 66.2936L81.0759 65.6966ZM78.4313 59.1165C76.7532 57.1663 74.5025 56.1827 71.9445 56.1401L71.8445 62.1392C72.8022 62.1552 73.3933 62.4606 73.8832 63.03L78.4313 59.1165ZM101.294 59.5352L98.3998 58.7451L97.5876 61.7205L100.584 62.45L101.294 59.5352ZM110.171 27.0156V24.0156H107.88L107.277 26.2256L110.171 27.0156ZM146.646 27.0156L149.608 27.4905L150.165 24.0156H146.646V27.0156ZM144.8 38.5293V41.5293H147.357L147.762 39.0042L144.8 38.5293ZM120.322 38.5293V35.5293H118.103L117.453 37.6519L120.322 38.5293ZM116.411 51.3174L113.542 50.44L111.151 58.2594L118.032 53.8419L116.411 51.3174ZM125.244 48.9443V45.9443H125.219L125.194 45.9448L125.244 48.9443ZM138.208 54.7891L135.836 56.626L135.845 56.637L138.208 54.7891ZM141.987 70.082L138.998 69.8317L138.997 69.8396L141.987 70.082ZM134.385 85.9902L136.388 88.2237L136.396 88.2165L134.385 85.9902ZM117.905 91.9229L117.836 94.922L117.843 94.9222L117.851 94.9224L117.905 91.9229ZM107.578 89.2861L106.147 91.9227L106.157 91.9283L107.578 89.2861ZM100.415 82.4746L97.8265 83.9911L97.8333 84.0026L100.415 82.4746ZM97.9102 72.7627V69.7627H94.9346L94.9103 72.7381L97.9102 72.7627ZM112.324 72.7627L115.323 72.6858L115.248 69.7627H112.324V72.7627ZM118.608 80.4092L118.718 77.4112L118.708 77.4108L118.698 77.4105L118.608 80.4092ZM124.585 77.7285L126.878 79.6631L126.885 79.6544L126.893 79.6456L124.585 77.7285ZM127.617 69.0713L130.598 69.41L130.602 69.3753L130.605 69.3405L127.617 69.0713ZM126.299 61.6885L123.829 63.3917L123.836 63.4017L123.843 63.4118L126.299 61.6885ZM113.027 62.3916L112.318 65.3065L114.038 65.7253L115.236 64.4215L113.027 62.3916ZM104.188 60.3252L113.065 27.8056L107.277 26.2256L98.3998 58.7451L104.188 60.3252ZM110.171 30.0156H146.646V24.0156H110.171V30.0156ZM143.683 26.5408L141.838 38.0544L147.762 39.0042L149.608 27.4905L143.683 26.5408ZM144.8 35.5293H120.322V41.5293H144.8V35.5293ZM117.453 37.6519L113.542 50.44L119.28 52.1948L123.191 39.4067L117.453 37.6519ZM118.032 53.8419C119.832 52.686 122.199 51.9955 125.294 51.9439L125.194 45.9448C121.258 46.0104 117.736 46.9019 114.79 48.7928L118.032 53.8419ZM125.244 51.9443C130.09 51.9443 133.472 53.5733 135.836 56.6259L140.58 52.9522C136.909 48.2118 131.648 45.9443 125.244 45.9443V51.9443ZM135.845 56.637C138.307 59.7862 139.48 64.0693 138.998 69.8317L144.977 70.3323C145.549 63.4971 144.203 57.5849 140.571 52.9411L135.845 56.637ZM138.997 69.8396C138.527 75.6371 136.308 80.2109 132.374 83.7639L136.396 88.2165C141.544 83.5665 144.393 77.5348 144.977 70.3245L138.997 69.8396ZM132.382 83.7568C128.44 87.2921 123.695 89.0276 117.96 88.9233L117.851 94.9224C125.007 95.0525 131.248 92.8329 136.388 88.2237L132.382 83.7568ZM117.975 88.9237C114.633 88.8459 111.659 88.0742 108.999 86.6439L106.157 91.9283C109.708 93.8379 113.619 94.824 117.836 94.922L117.975 88.9237ZM109.009 86.6496C106.385 85.2251 104.406 83.3276 102.997 80.9466L97.8333 84.0026C99.8226 87.3638 102.618 90.0073 106.147 91.9227L109.009 86.6496ZM103.004 80.9581C101.595 78.5547 100.885 75.8557 100.91 72.7873L94.9103 72.7381C94.8768 76.8181 95.8362 80.5937 97.8266 83.9911L103.004 80.9581ZM97.9102 75.7627H112.324V69.7627H97.9102V75.7627ZM109.325 72.8396C109.395 75.5745 110.09 78.0908 111.681 80.1115L116.395 76.4002C115.818 75.667 115.37 74.5212 115.323 72.6858L109.325 72.8396ZM111.681 80.1115C113.385 82.2759 115.789 83.3263 118.519 83.4078L118.698 77.4105C117.502 77.3748 116.859 76.9897 116.395 76.4002L111.681 80.1115ZM118.499 83.4072C121.845 83.5296 124.715 82.2262 126.878 79.6631L122.292 75.7939C121.291 76.9809 120.177 77.4646 118.718 77.4112L118.499 83.4072ZM126.893 79.6456C129.005 77.1029 130.127 73.5524 130.598 69.41L124.636 68.7326C124.228 72.3246 123.329 74.5456 122.277 75.8115L126.893 79.6456ZM130.605 69.3405C130.926 65.7808 130.516 62.4753 128.754 59.9652L123.843 63.4118C124.425 64.2415 124.895 65.8579 124.629 68.8021L130.605 69.3405ZM128.768 59.9853C126.917 57.3001 124.05 56.1396 120.806 56.1396V62.1396C122.542 62.1396 123.337 62.6784 123.829 63.3917L128.768 59.9853ZM120.806 56.1396C116.852 56.1396 113.43 57.5193 110.818 60.3617L115.236 64.4215C116.609 62.9279 118.373 62.1396 120.806 62.1396V56.1396ZM113.737 59.4767L102.004 56.6203L100.584 62.45L112.318 65.3065L113.737 59.4767Z" fill="#EF3829"/>
</g>
<defs>
<filter id="filter0_f" x="8" y="81" width="156" height="26" filterUnits="userSpaceOnUse" color-interpolation-filters="sRGB">
<feFlood flood-opacity="0" result="BackgroundImageFix"/>
<feBlend mode="normal" in="SourceGraphic" in2="BackgroundImageFix" result="shape"/>
<feGaussianBlur stdDeviation="5" result="effect1_foregroundBlur"/>
</filter>
<clipPath id="clip0">
<rect width="277" height="105.82" fill="white"/>
</clipPath>
</defs>
</svg>
