<svg width="277" height="106" viewBox="0 0 277 106" fill="none" xmlns="http://www.w3.org/2000/svg">
<g clip-path="url(#clip0)">
<g filter="url(#filter0_f)">
<ellipse cx="101" cy="94" rx="68" ry="3" fill="#C4C4C4" fill-opacity="0.5"/>
</g>
<path d="M104.429 27.0488L103.286 38.7383H101.968C96.9873 38.7969 92.6074 40.1152 88.8281 42.6934C85.0781 45.2715 82.0898 48.9922 79.8633 53.8555C83.4668 50.4277 87.6709 48.7725 92.4756 48.8896C95.9033 48.9482 98.8037 49.9297 101.177 51.834C103.55 53.709 105.293 56.3164 106.406 59.6562C107.549 62.9668 107.959 66.585 107.637 70.5107C107.314 74.4658 106.113 78.1279 104.033 81.4971C101.953 84.8662 99.2139 87.5615 95.8154 89.583C91.9189 91.8975 87.7441 93.0107 83.291 92.9229C78.9258 92.8643 75.1611 91.6924 71.9971 89.4072C68.833 87.1221 66.5186 84.0166 65.0537 80.0908C63.5889 76.1357 63.1055 71.8145 63.6035 67.127L64.2627 61.7217C65.1123 55.2471 67.2656 49.3584 70.7227 44.0557C74.209 38.7236 78.6621 34.5781 84.082 31.6191C89.5312 28.6309 95.4199 27.1074 101.748 27.0488H104.429ZM86.8945 60.1396C83.6133 60.0225 80.7861 61.5898 78.4131 64.8418C77.8564 68.9434 77.5781 71.7559 77.5781 73.2793C77.5781 75.8574 78.1055 77.8643 79.1602 79.2998C80.2148 80.7061 81.7383 81.4238 83.7305 81.4531C86.6602 81.5117 89.0332 80.0469 90.8496 77.0586C92.6953 74.041 93.4424 70.6865 93.0908 66.9951C92.8857 64.9443 92.2412 63.3037 91.1572 62.0732C90.0732 60.8135 88.6523 60.1689 86.8945 60.1396ZM116.294 60.5352L125.171 28.0156H161.646L159.8 39.5293H135.322L131.411 52.3174C133.784 50.7939 136.729 50.0029 140.244 49.9443C145.869 49.9443 150.19 51.8926 153.208 55.7891C156.255 59.6855 157.515 64.7832 156.987 71.082C156.46 77.5859 153.926 82.8887 149.385 86.9902C144.844 91.0625 139.351 93.04 132.905 92.9229C129.126 92.835 125.684 91.9561 122.578 90.2861C119.502 88.6162 117.114 86.3457 115.415 83.4746C113.716 80.5742 112.881 77.3369 112.91 73.7627H127.324C127.383 76.0479 127.954 77.8789 129.038 79.2559C130.122 80.6328 131.646 81.3506 133.608 81.4092C136.011 81.4971 138.003 80.6035 139.585 78.7285C141.167 76.8242 142.178 73.9385 142.617 70.0713C142.91 66.8193 142.471 64.3584 141.299 62.6885C140.127 60.9893 138.296 60.1396 135.806 60.1396C132.612 60.1396 130.02 61.2236 128.027 63.3916L116.294 60.5352Z" fill="#EF3829"/>
<path d="M104.429 27.0488L107.414 27.3407L107.736 24.0488H104.429V27.0488ZM103.286 38.7383V41.7383H106.007L106.272 39.0301L103.286 38.7383ZM101.968 38.7383V35.7383H101.95L101.932 35.7385L101.968 38.7383ZM88.8281 42.6934L87.1375 40.2151L87.1285 40.2212L88.8281 42.6934ZM79.8633 53.8555L77.1356 52.6066L81.9309 56.0291L79.8633 53.8555ZM92.4756 48.8896L92.4024 51.8888L92.4134 51.889L92.4243 51.8892L92.4756 48.8896ZM101.177 51.834L99.2992 54.1738L99.308 54.1809L99.3169 54.1879L101.177 51.834ZM106.406 59.6562L103.56 60.6049L103.565 60.62L103.57 60.635L106.406 59.6562ZM107.637 70.5107L104.647 70.2653L104.647 70.2671L107.637 70.5107ZM95.8154 89.583L97.3475 92.1623L97.3491 92.1614L95.8154 89.583ZM83.291 92.9229L83.3502 89.9234L83.3407 89.9232L83.3313 89.9231L83.291 92.9229ZM65.0537 80.0908L62.2405 81.1328L62.243 81.1396L65.0537 80.0908ZM63.6035 67.127L60.6256 66.7638L60.6228 66.7869L60.6203 66.81L63.6035 67.127ZM64.2627 61.7217L61.2882 61.3314L61.2864 61.3449L61.2848 61.3585L64.2627 61.7217ZM70.7227 44.0557L68.2117 42.4139L68.2095 42.4173L70.7227 44.0557ZM84.082 31.6191L85.5196 34.2523L85.5245 34.2496L84.082 31.6191ZM101.748 27.0488V24.0488H101.734L101.72 24.049L101.748 27.0488ZM86.8945 60.1396L86.7875 63.1377L86.816 63.1388L86.8445 63.1392L86.8945 60.1396ZM78.4131 64.8418L75.9897 63.0734L75.5424 63.6864L75.4403 64.4384L78.4131 64.8418ZM79.1602 79.2998L76.7425 81.076L76.7513 81.088L76.7602 81.0998L79.1602 79.2998ZM83.7305 81.4531L83.7905 78.4537L83.7825 78.4536L83.7746 78.4534L83.7305 81.4531ZM90.8496 77.0586L88.2904 75.4932L88.286 75.5003L90.8496 77.0586ZM93.0908 66.9951L96.0773 66.7107L96.0766 66.7036L96.0759 66.6966L93.0908 66.9951ZM91.1572 62.0732L88.8832 64.03L88.8946 64.0432L88.9061 64.0563L91.1572 62.0732ZM101.443 26.757L100.3 38.4464L106.272 39.0301L107.414 27.3407L101.443 26.757ZM103.286 35.7383H101.968V41.7383H103.286V35.7383ZM101.932 35.7385C96.4157 35.8034 91.4485 37.2742 87.1375 40.2151L90.5187 45.1716C93.7663 42.9562 97.5589 41.7904 102.003 41.7381L101.932 35.7385ZM87.1285 40.2212C82.8585 43.1569 79.5479 47.3375 77.1356 52.6066L82.591 55.1043C84.6318 50.6468 87.2978 47.3861 90.5277 45.1655L87.1285 40.2212ZM81.9309 56.0291C84.9808 53.128 88.4229 51.7917 92.4024 51.8888L92.5487 45.8905C86.9189 45.7532 81.9528 47.7274 77.7956 51.6818L81.9309 56.0291ZM92.4243 51.8892C95.2757 51.938 97.5101 52.7381 99.2992 54.1738L103.054 49.4942C100.097 47.1213 96.531 45.9585 92.5269 45.8901L92.4243 51.8892ZM99.3169 54.1879C101.16 55.6442 102.601 57.7265 103.56 60.6049L109.252 58.7076C107.985 54.9063 105.94 51.7738 103.037 49.4801L99.3169 54.1879ZM103.57 60.635C104.561 63.5063 104.939 66.7021 104.647 70.2653L110.627 70.7562C110.979 66.4678 110.536 62.4273 109.242 58.6775L103.57 60.635ZM104.647 70.2671C104.363 73.7508 103.311 76.9562 101.481 79.9211L106.586 83.0731C108.916 79.2997 110.266 75.1808 110.627 70.7544L104.647 70.2671ZM101.481 79.9211C99.654 82.8794 97.2641 85.2307 94.2818 87.0047L97.3491 92.1614C101.164 89.8924 104.252 86.853 106.586 83.0731L101.481 79.9211ZM94.2834 87.0037C90.8589 89.0378 87.2339 90.0001 83.3502 89.9234L83.2318 95.9223C88.2544 96.0214 92.979 94.7571 97.3475 92.1623L94.2834 87.0037ZM83.3313 89.9231C79.5067 89.8718 76.3591 88.857 73.7535 86.9752L70.2406 91.8393C73.9632 94.5278 78.3449 95.8567 83.2508 95.9226L83.3313 89.9231ZM73.7535 86.9752C71.1055 85.0627 69.1381 82.4556 67.8644 79.042L62.243 81.1396C63.899 85.5776 66.5605 89.1814 70.2406 91.8393L73.7535 86.9752ZM67.867 79.0489C66.5809 75.5764 66.1317 71.7261 66.5867 67.4439L60.6203 66.81C60.0792 71.9028 60.5969 76.6951 62.2405 81.1328L67.867 79.0489ZM66.5815 67.4901L67.2406 62.0848L61.2848 61.3585L60.6256 66.7638L66.5815 67.4901ZM67.2372 62.112C68.0303 56.0682 70.0319 50.6085 73.2358 45.694L68.2095 42.4173C64.4994 48.1083 62.1943 54.4259 61.2882 61.3314L67.2372 62.112ZM73.2336 45.6974C76.4582 40.7656 80.5477 36.9666 85.5196 34.2523L82.6445 28.986C76.7765 32.1896 71.9598 36.6816 68.2117 42.4139L73.2336 45.6974ZM85.5245 34.2496C90.5317 31.5037 95.9331 30.1028 101.776 30.0487L101.72 24.049C94.9067 24.112 88.5308 25.758 82.6395 28.9887L85.5245 34.2496ZM101.748 30.0488H104.429V24.0488H101.748V30.0488ZM87.0016 57.1416C82.4937 56.9806 78.7988 59.2239 75.9897 63.0734L80.8365 66.6102C82.7735 63.9558 84.7328 63.0644 86.7875 63.1377L87.0016 57.1416ZM75.4403 64.4384C74.8862 68.5211 74.5781 71.5248 74.5781 73.2793H80.5781C80.5781 71.987 80.8266 69.3656 81.3858 65.2452L75.4403 64.4384ZM74.5781 73.2793C74.5781 76.2216 75.174 78.9411 76.7425 81.076L81.5778 77.5236C81.0369 76.7874 80.5781 75.4932 80.5781 73.2793H74.5781ZM76.7602 81.0998C78.4516 83.355 80.9065 84.4119 83.6864 84.4528L83.7746 78.4534C82.57 78.4357 81.9781 78.0571 81.5602 77.4998L76.7602 81.0998ZM83.6705 84.4525C87.8926 84.537 91.1684 82.3099 93.4132 78.6168L88.286 75.5003C86.898 77.7839 85.4277 78.4865 83.7905 78.4537L83.6705 84.4525ZM93.4088 78.6239C95.6105 75.0243 96.4873 71.0153 96.0773 66.7107L90.1043 67.2795C90.3975 70.3578 89.7801 73.0577 88.2904 75.4932L93.4088 78.6239ZM96.0759 66.6966C95.8246 64.183 95.003 61.9003 93.4083 60.0902L88.9061 64.0563C89.4794 64.7071 89.9469 65.7057 90.1057 67.2936L96.0759 66.6966ZM93.4313 60.1165C91.7532 58.1663 89.5025 57.1827 86.9445 57.1401L86.8445 63.1392C87.8022 63.1552 88.3933 63.4606 88.8832 64.03L93.4313 60.1165ZM116.294 60.5352L113.4 59.7451L112.588 62.7205L115.584 63.45L116.294 60.5352ZM125.171 28.0156V25.0156H122.88L122.277 27.2256L125.171 28.0156ZM161.646 28.0156L164.608 28.4905L165.165 25.0156H161.646V28.0156ZM159.8 39.5293V42.5293H162.357L162.762 40.0042L159.8 39.5293ZM135.322 39.5293V36.5293H133.103L132.453 38.6519L135.322 39.5293ZM131.411 52.3174L128.542 51.44L126.151 59.2594L133.032 54.8419L131.411 52.3174ZM140.244 49.9443V46.9443H140.219L140.194 46.9448L140.244 49.9443ZM153.208 55.7891L150.836 57.626L150.845 57.637L153.208 55.7891ZM156.987 71.082L153.998 70.8317L153.997 70.8396L156.987 71.082ZM149.385 86.9902L151.388 89.2237L151.396 89.2165L149.385 86.9902ZM132.905 92.9229L132.836 95.922L132.843 95.9222L132.851 95.9224L132.905 92.9229ZM122.578 90.2861L121.147 92.9227L121.157 92.9283L122.578 90.2861ZM115.415 83.4746L112.827 84.9911L112.833 85.0026L115.415 83.4746ZM112.91 73.7627V70.7627H109.935L109.91 73.7381L112.91 73.7627ZM127.324 73.7627L130.323 73.6858L130.248 70.7627H127.324V73.7627ZM133.608 81.4092L133.718 78.4112L133.708 78.4108L133.698 78.4105L133.608 81.4092ZM139.585 78.7285L141.878 80.6631L141.885 80.6544L141.893 80.6456L139.585 78.7285ZM142.617 70.0713L145.598 70.41L145.602 70.3753L145.605 70.3405L142.617 70.0713ZM141.299 62.6885L138.829 64.3917L138.836 64.4017L138.843 64.4118L141.299 62.6885ZM128.027 63.3916L127.318 66.3065L129.038 66.7253L130.236 65.4215L128.027 63.3916ZM119.188 61.3252L128.065 28.8056L122.277 27.2256L113.4 59.7451L119.188 61.3252ZM125.171 31.0156H161.646V25.0156H125.171V31.0156ZM158.683 27.5408L156.838 39.0544L162.762 40.0042L164.608 28.4905L158.683 27.5408ZM159.8 36.5293H135.322V42.5293H159.8V36.5293ZM132.453 38.6519L128.542 51.44L134.28 53.1948L138.191 40.4067L132.453 38.6519ZM133.032 54.8419C134.832 53.686 137.199 52.9955 140.294 52.9439L140.194 46.9448C136.258 47.0104 132.736 47.9019 129.79 49.7928L133.032 54.8419ZM140.244 52.9443C145.09 52.9443 148.472 54.5733 150.836 57.6259L155.58 53.9522C151.909 49.2118 146.648 46.9443 140.244 46.9443V52.9443ZM150.845 57.637C153.307 60.7862 154.48 65.0693 153.998 70.8317L159.977 71.3323C160.549 64.4971 159.203 58.5849 155.571 53.9411L150.845 57.637ZM153.997 70.8396C153.527 76.6371 151.308 81.2109 147.374 84.7639L151.396 89.2165C156.544 84.5665 159.393 78.5348 159.977 71.3245L153.997 70.8396ZM147.382 84.7568C143.44 88.2921 138.695 90.0276 132.96 89.9233L132.851 95.9224C140.007 96.0525 146.248 93.8329 151.388 89.2237L147.382 84.7568ZM132.975 89.9237C129.633 89.8459 126.659 89.0742 123.999 87.6439L121.157 92.9283C124.708 94.8379 128.619 95.824 132.836 95.922L132.975 89.9237ZM124.009 87.6496C121.385 86.2251 119.406 84.3276 117.997 81.9466L112.833 85.0026C114.823 88.3638 117.618 91.0073 121.147 92.9227L124.009 87.6496ZM118.004 81.9581C116.595 79.5547 115.885 76.8557 115.91 73.7873L109.91 73.7381C109.877 77.8181 110.836 81.5937 112.827 84.9911L118.004 81.9581ZM112.91 76.7627H127.324V70.7627H112.91V76.7627ZM124.325 73.8396C124.395 76.5745 125.09 79.0908 126.681 81.1115L131.395 77.4002C130.818 76.667 130.37 75.5212 130.323 73.6858L124.325 73.8396ZM126.681 81.1115C128.385 83.2759 130.789 84.3263 133.519 84.4078L133.698 78.4105C132.502 78.3748 131.859 77.9897 131.395 77.4002L126.681 81.1115ZM133.499 84.4072C136.845 84.5296 139.715 83.2262 141.878 80.6631L137.292 76.7939C136.291 77.9809 135.177 78.4646 133.718 78.4112L133.499 84.4072ZM141.893 80.6456C144.005 78.1029 145.127 74.5524 145.598 70.41L139.636 69.7326C139.228 73.3246 138.329 75.5456 137.277 76.8115L141.893 80.6456ZM145.605 70.3405C145.926 66.7808 145.516 63.4753 143.754 60.9652L138.843 64.4118C139.425 65.2415 139.895 66.8579 139.629 69.8021L145.605 70.3405ZM143.768 60.9853C141.917 58.3001 139.05 57.1396 135.806 57.1396V63.1396C137.542 63.1396 138.337 63.6784 138.829 64.3917L143.768 60.9853ZM135.806 57.1396C131.852 57.1396 128.43 58.5193 125.818 61.3617L130.236 65.4215C131.609 63.9279 133.373 63.1396 135.806 63.1396V57.1396ZM128.737 60.4767L117.004 57.6203L115.584 63.45L127.318 66.3065L128.737 60.4767Z" fill="#EF3829"/>
<path d="M177.71 88.3779C176.909 89.3154 175.742 90.043 174.209 90.5605C172.676 91.0684 170.977 91.3076 169.111 91.2783C167.324 91.2588 165.815 90.8096 164.585 89.9307C163.354 89.0518 162.476 87.8262 161.948 86.2539C161.421 84.6816 161.279 82.9092 161.523 80.9365L161.641 80.0576C162.09 76.7471 163.252 74.125 165.127 72.1914C167.012 70.2578 169.316 69.3154 172.041 69.3643C174.424 69.4033 176.255 70.043 177.534 71.2832C178.813 72.5234 179.526 74.3154 179.673 76.6592L174.868 76.6445C174.8 75.502 174.517 74.667 174.019 74.1396C173.53 73.6123 172.832 73.334 171.924 73.3047C170.576 73.2559 169.463 73.7881 168.584 74.9014C167.705 76.0049 167.104 77.5869 166.782 79.6475C166.509 81.4053 166.411 82.7725 166.489 83.749C166.636 86.1025 167.695 87.2939 169.668 87.3232C170.859 87.3428 171.904 87.0547 172.803 86.459L173.462 83.1338H169.99L170.605 79.6035H179.087L177.71 88.3779ZM185.356 91H180.347L184.053 69.6719H189.048L185.356 91ZM206.626 88.3779C205.825 89.3154 204.658 90.043 203.125 90.5605C201.592 91.0684 199.893 91.3076 198.027 91.2783C196.24 91.2588 194.731 90.8096 193.501 89.9307C192.271 89.0518 191.392 87.8262 190.864 86.2539C190.337 84.6816 190.195 82.9092 190.439 80.9365L190.557 80.0576C191.006 76.7471 192.168 74.125 194.043 72.1914C195.928 70.2578 198.232 69.3154 200.957 69.3643C203.34 69.4033 205.171 70.043 206.45 71.2832C207.729 72.5234 208.442 74.3154 208.589 76.6592L203.784 76.6445C203.716 75.502 203.433 74.667 202.935 74.1396C202.446 73.6123 201.748 73.334 200.84 73.3047C199.492 73.2559 198.379 73.7881 197.5 74.9014C196.621 76.0049 196.021 77.5869 195.698 79.6475C195.425 81.4053 195.327 82.7725 195.405 83.749C195.552 86.1025 196.611 87.2939 198.584 87.3232C199.775 87.3428 200.82 87.0547 201.719 86.459L202.378 83.1338H198.906L199.521 79.6035H208.003L206.626 88.3779ZM221.45 87.0156H214.639L212.749 91H207.227L218.521 69.6719H223.237L227.178 91H221.963L221.45 87.0156ZM216.514 83.0459H220.938L220 75.6924L216.514 83.0459ZM240.625 85.2285C240.84 84.125 240.244 83.2705 238.838 82.665L236.436 81.6689C233.066 80.1553 231.465 78.0947 231.631 75.4873C231.699 74.2959 232.109 73.2363 232.861 72.3086C233.613 71.3711 234.653 70.6436 235.981 70.126C237.31 69.6084 238.76 69.3594 240.332 69.3789C242.441 69.418 244.136 70.0332 245.415 71.2246C246.704 72.416 247.339 74.0127 247.319 76.0146H242.339C242.368 75.1943 242.192 74.54 241.812 74.0518C241.44 73.5537 240.825 73.2949 239.966 73.2754C239.126 73.2559 238.384 73.4512 237.739 73.8613C237.095 74.2715 236.714 74.8232 236.597 75.5166C236.411 76.4932 237.134 77.2939 238.765 77.9189C240.405 78.5439 241.597 79.0811 242.339 79.5303C244.673 80.9268 245.767 82.8115 245.62 85.1846C245.542 86.415 245.146 87.4941 244.434 88.4219C243.721 89.3496 242.729 90.0674 241.46 90.5752C240.2 91.083 238.784 91.3271 237.212 91.3076C236.06 91.2881 234.99 91.1074 234.004 90.7656C233.018 90.4238 232.173 89.9258 231.47 89.2715C230.044 87.9531 229.36 86.2197 229.419 84.0713L234.443 84.0859C234.385 85.1797 234.595 86.0098 235.073 86.5762C235.552 87.1328 236.357 87.4111 237.49 87.4111C238.33 87.4111 239.028 87.2207 239.585 86.8398C240.151 86.4492 240.498 85.9121 240.625 85.2285Z" fill="url(#paint0_linear)"/>
<g clip-path="url(#clip1)">
<path d="M66.0542 91.4114L66.1177 90.8465L66.9139 83.5755L65.7184 83.5058C65.6642 83.4835 65.61 83.4612 65.5591 83.4825L65.5336 83.4931L51.3358 82.6544L52.5276 94.9437L65.638 95.0395L66.0542 91.4114Z" fill="#262C38"/>
<path d="M60.6538 83.1958C60.9126 85.6451 61.577 91.8285 61.9262 95.0327L55.7607 94.9868L57.9113 83.0384L60.6538 83.1958Z" fill="#00F0E9"/>
<path opacity="0.19" d="M51.3358 82.6549L66.9033 83.5505L66.429 87.9356C61.5396 87.5071 56.6246 87.0892 51.7352 86.6607L51.3358 82.6549Z" fill="#248D8A"/>
<path d="M69.3647 80.9542L67.5164 84.9851L50.2056 84.4277L48.634 80.1929L69.3647 80.9542Z" fill="#262C38"/>
<path d="M61.4578 80.6763L60.8231 84.7844L57.6198 84.6696L57.3849 80.5204L61.4578 80.6763Z" fill="#4D8493"/>
<path d="M59.7229 80.533C61.5756 80.4931 63.4176 80.0689 65.0748 79.2731C65.785 78.9321 66.5217 78.4753 66.7285 77.7161C66.9501 76.9208 66.5305 76.0939 66.1279 75.3794C66.0174 75.1862 65.9069 74.993 65.789 74.8179C65.4247 74.2669 64.9764 73.7659 64.351 73.5931C63.3603 73.3332 62.0376 74.0344 61.3488 74.7853C60.0146 76.2838 59.8338 78.4678 59.7091 80.4639C59.7378 80.4968 59.7303 80.5149 59.7229 80.533ZM59.9224 80.1507C60.4169 79.2565 61.1711 77.0128 64.3388 75.2133C64.444 75.5732 63.6671 76.4355 63.6056 76.7902C63.454 77.4666 63.0348 78.0751 62.537 78.5668C61.8046 79.3209 60.9076 79.8594 59.9224 80.1507Z" fill="#00F0E9"/>
<path d="M59.9224 80.1502C60.897 79.8335 61.812 79.3023 62.5295 78.5844C63.0273 78.0926 63.4465 77.4841 63.5982 76.8078C63.6851 76.4425 63.6744 76.0581 63.5692 75.6983C64.2591 75.2011 65.0129 74.8569 65.807 74.8248C65.9249 75 66.0354 75.1932 66.1459 75.3864C66.5666 76.1082 66.9862 76.9352 66.7465 77.7231C66.5217 78.4749 65.803 78.9391 65.0928 79.2801C63.4176 80.0684 61.5756 80.4926 59.741 80.5399C59.7229 80.5325 59.8004 80.3955 59.9224 80.1502Z" fill="#4D8493"/>
<path d="M52.532 78.2074C52.7966 78.9494 53.5792 79.3559 54.3013 79.6529C56.0236 80.3404 57.8839 80.6414 59.7334 80.558C59.4812 78.5545 58.7776 76.3655 57.3523 74.9559C56.6344 74.2384 55.6075 73.6048 54.6435 73.947C54.0288 74.1585 53.6213 74.6874 53.2966 75.2714C53.1968 75.4626 53.0897 75.6718 52.9899 75.8629C52.6132 76.5733 52.2461 77.4143 52.532 78.2074ZM55.5625 75.9715C57.4326 77.1208 58.941 79.3032 59.487 80.1822C58.4889 79.9404 57.5618 79.4746 56.7855 78.7964C56.2608 78.3273 55.7988 77.7573 55.5916 77.081C55.5044 76.7285 55.4756 76.3367 55.5625 75.9715Z" fill="#00F0E9"/>
<path d="M59.5126 80.1718C58.5145 79.93 57.5875 79.4642 56.8111 78.786C56.2865 78.3169 55.8245 77.7469 55.6172 77.0706C55.512 76.7107 55.5012 76.3263 55.5701 75.9537C54.8459 75.5079 54.0803 75.2141 53.2755 75.2207C53.1758 75.4118 53.0686 75.621 52.9688 75.8122C52.6028 76.5481 52.2282 77.4071 52.5141 78.2002C52.7787 78.9423 53.5613 79.3487 54.2834 79.6457C56.0057 80.3332 57.866 80.6342 59.7155 80.5508C59.723 80.5327 59.6518 80.3979 59.5126 80.1718Z" fill="#4D8493"/>
<path d="M59.6645 80.5727C60.019 80.2753 60.8854 80.2729 61.2857 80.4798C61.6967 80.7122 61.9867 81.0848 62.2331 81.4606C62.4721 81.8544 62.7037 82.2663 63.0266 82.6102C63.4822 83.0931 64.1172 83.3966 64.7692 83.4537C64.0855 83.679 63.5888 84.4245 62.8488 84.4789C62.2574 84.5311 61.7253 84.08 61.4077 83.5694C61.1156 83.0482 60.9838 82.4452 60.768 81.8921C60.5778 81.3284 60.2315 80.7849 59.6645 80.5727Z" fill="#00F0E9"/>
<g opacity="0.25">
<path opacity="0.25" d="M59.6645 80.5727C60.019 80.2753 60.8854 80.2729 61.2857 80.4798C61.6967 80.7122 61.9867 81.0848 62.2331 81.4606C62.4721 81.8544 62.7037 82.2663 63.0266 82.6102C63.4822 83.0931 64.1172 83.3966 64.7692 83.4537C64.0855 83.679 63.5888 84.4245 62.8488 84.4789C62.2574 84.5311 61.7253 84.08 61.4077 83.5694C61.1156 83.0482 60.9838 82.4452 60.768 81.8921C60.5778 81.3284 60.2315 80.7849 59.6645 80.5727Z" fill="#00F0E9"/>
</g>
<path d="M64.6391 81.5643C64.9151 81.509 64.8396 81.0769 64.5636 81.1322C64.2875 81.1875 64.3631 81.6196 64.6391 81.5643Z" fill="#3CBCB5"/>
<path d="M66.8024 83.1286C67.1219 83.0701 67.0252 82.587 66.7056 82.6455C66.4041 82.7114 66.5008 83.1945 66.8024 83.1286Z" fill="#3CBCB5"/>
<path d="M67.6047 81.8964C67.6153 81.9219 67.6259 81.9474 67.6546 81.9803C67.7045 82.0642 67.7799 82.1374 67.8299 82.2213C67.8766 82.2616 67.9233 82.3019 67.9849 82.3061C68.0465 82.3104 68.1155 82.2965 68.1558 82.2498C68.1813 82.2392 68.1961 82.2031 68.2036 82.185C68.2184 82.1489 68.2259 82.1309 68.2407 82.0948C68.2556 82.0587 68.2449 82.0332 68.2343 82.0077C68.2237 81.9822 68.2131 81.9568 68.1844 81.9239C68.1345 81.84 68.059 81.7668 68.0017 81.7009C67.955 81.6606 67.9008 81.6383 67.8467 81.6161C67.7851 81.6118 67.7341 81.6331 67.6757 81.6724C67.6503 81.683 67.6354 81.7191 67.628 81.7372C67.6131 81.7733 67.6057 81.7913 67.5908 81.8274C67.5908 81.8274 67.594 81.8709 67.6047 81.8964Z" fill="#3CBCB5"/>
<path d="M52.8712 82.8215C53.1472 82.7662 53.0717 82.3341 52.7957 82.3894C52.5016 82.4373 52.5952 82.8768 52.8712 82.8215Z" fill="#3CBCB5"/>
<path d="M54.783 81.9203C55.1025 81.8618 55.0058 81.3787 54.6862 81.4372C54.3741 81.4776 54.4634 81.9787 54.783 81.9203Z" fill="#3CBCB5"/>
<path d="M55.8553 81.622C55.8659 81.6475 55.8765 81.673 55.9052 81.7059C55.9551 81.7897 56.0306 81.863 56.0805 81.9468C56.1272 81.9872 56.1739 82.0275 56.2355 82.0317C56.2971 82.036 56.3661 82.0221 56.4064 81.9754C56.4319 81.9648 56.4468 81.9287 56.4542 81.9106C56.4691 81.8745 56.4765 81.8565 56.4913 81.8204C56.5062 81.7843 56.4956 81.7588 56.4849 81.7333C56.4743 81.7078 56.4637 81.6823 56.435 81.6494C56.3851 81.5656 56.3097 81.4923 56.2523 81.4265C56.2056 81.3862 56.1514 81.3639 56.0973 81.3416C56.0357 81.3374 55.9847 81.3587 55.9264 81.398C55.9009 81.4086 55.886 81.4447 55.8786 81.4627C55.8637 81.4988 55.8563 81.5169 55.8415 81.553C55.8415 81.553 55.8521 81.5785 55.8553 81.622Z" fill="#3CBCB5"/>
<path d="M50.7919 81.5651C50.4723 81.6236 50.5691 82.1067 50.8887 82.0482C51.1902 81.9823 51.0934 81.4992 50.7919 81.5651Z" fill="#3CBCB5"/>
<path d="M52.4319 83.9918C52.4787 84.0321 52.5254 84.0724 52.587 84.0767C52.6486 84.0809 52.7176 84.0671 52.7579 84.0203C52.7834 84.0097 52.7982 83.9736 52.8057 83.9555C52.8205 83.9194 52.828 83.9014 52.8428 83.8653C52.8577 83.8292 52.847 83.8037 52.8364 83.7782C52.8258 83.7527 52.8152 83.7273 52.7865 83.6944C52.7366 83.6105 52.6611 83.5373 52.6038 83.4715C52.5571 83.4311 52.5029 83.4088 52.4488 83.3866C52.3872 83.3823 52.3362 83.4036 52.2778 83.4429C52.2523 83.4535 52.2375 83.4896 52.2301 83.5077C52.2152 83.5438 52.2078 83.5618 52.1929 83.5979C52.1781 83.634 52.1887 83.6595 52.1993 83.685C52.21 83.7105 52.2206 83.7359 52.2493 83.7689C52.314 83.8166 52.382 83.9079 52.4319 83.9918Z" fill="#3CBCB5"/>
<path d="M59.7951 80.5625C59.417 80.3015 58.5612 80.3293 58.16 80.5864C57.7662 80.8254 57.4977 81.2215 57.2833 81.6399C57.0509 82.0509 56.8546 82.4767 56.5649 82.8219C56.1467 83.3252 55.5342 83.6854 54.8664 83.7694C55.5714 83.954 56.1046 84.6588 56.8404 84.666C57.4276 84.6754 57.9434 84.1911 58.2023 83.6644C58.4687 83.1196 58.5471 82.5187 58.7337 81.9622C58.9279 81.3878 59.2526 80.8037 59.7951 80.5625Z" fill="#00F0E9"/>
<g opacity="0.25">
<path opacity="0.25" d="M59.7951 80.5625C59.417 80.3015 58.5612 80.3293 58.16 80.5864C57.7662 80.8254 57.4977 81.2215 57.2833 81.6399C57.0509 82.0509 56.8546 82.4767 56.5649 82.8219C56.1467 83.3252 55.5342 83.6854 54.8664 83.7694C55.5714 83.954 56.1046 84.6588 56.8404 84.666C57.4276 84.6754 57.9434 84.1911 58.2023 83.6644C58.4687 83.1196 58.5471 82.5187 58.7337 81.9622C58.9279 81.3878 59.2526 80.8037 59.7951 80.5625Z" fill="#00F0E9"/>
</g>
<path d="M59.0975 80.3603C59.158 80.1108 59.3202 79.4599 59.5888 79.4227C59.9264 79.3716 60.2017 80.1391 60.2209 80.4003C60.2688 81.0533 58.9056 81.0834 59.0975 80.3603Z" fill="#ABCDD6"/>
</g>
<g clip-path="url(#clip2)">
<path d="M46.8756 95.1111C47.1842 95.4245 47.4771 95.7534 47.7699 96.0823C47.9551 96.2703 48.1248 96.4427 48.3099 96.6308C48.3716 96.6934 48.4644 96.7564 48.4012 96.8803C48.3224 97.0196 48.1985 96.9564 48.1209 96.9403C47.5004 96.7488 46.8955 96.5419 46.2907 96.335C46.2441 96.3191 46.1976 96.3032 46.1357 96.2716C45.9939 96.5037 45.8521 96.7359 45.7103 96.968C45.5686 97.2002 45.3957 97.4321 45.2539 97.6642C45.1753 97.7724 45.0663 97.7871 44.9892 97.7088C44.9275 97.6461 44.9126 97.5682 44.8822 97.4747C44.807 97.1475 44.7164 96.8047 44.6726 96.4467C44.6432 96.2288 44.5508 96.1037 44.3491 96.0554C44.0077 95.9594 43.682 95.848 43.3718 95.7523C43.2633 95.7048 43.1702 95.673 43.0774 95.61C42.8918 95.4842 42.9398 95.3135 43.1585 95.1908C43.2523 95.1293 43.3612 95.1146 43.4704 95.0688C43.8603 94.932 44.2501 94.7951 44.6399 94.6582C44.9051 94.5514 44.9208 94.536 44.923 94.2561C44.9418 93.8364 44.9764 93.4012 44.9798 92.9658C44.98 92.9347 44.9648 92.888 44.9808 92.8414C45.028 92.7641 45.0601 92.6399 45.138 92.625C45.2004 92.5944 45.3245 92.6264 45.3706 92.7045C45.4938 92.861 45.5858 93.0172 45.6933 93.1891C45.878 93.4394 46.0626 93.6897 46.2473 93.9399C46.3396 94.065 46.4483 94.0814 46.62 94.005C46.9476 93.8677 47.275 93.7614 47.6181 93.6397C47.7273 93.5939 47.8206 93.5946 47.8975 93.7041C47.9589 93.7978 47.896 93.8906 47.8176 93.9678C47.4883 94.3229 47.1898 94.7093 46.8756 95.1111Z" fill="#00F0E9"/>
</g>
<g clip-path="url(#clip3)">
<path d="M157.714 21.1353C158.156 21.5843 158.575 22.0554 158.995 22.5264C159.26 22.7958 159.503 23.0427 159.768 23.3121C159.857 23.4019 159.99 23.4921 159.899 23.6696C159.786 23.8691 159.609 23.7787 159.497 23.7555C158.609 23.4812 157.742 23.1849 156.876 22.8885C156.809 22.8657 156.743 22.8429 156.654 22.7976C156.451 23.1302 156.248 23.4627 156.045 23.7952C155.841 24.1278 155.594 24.4599 155.391 24.7925C155.278 24.9475 155.122 24.9686 155.012 24.8563C154.923 24.7665 154.902 24.655 154.858 24.521C154.751 24.0524 154.621 23.5613 154.558 23.0485C154.516 22.7363 154.384 22.5571 154.095 22.488C153.606 22.3505 153.139 22.1909 152.695 22.0538C152.539 21.9857 152.406 21.9401 152.273 21.85C152.007 21.6697 152.076 21.4252 152.389 21.2495C152.523 21.1614 152.68 21.1404 152.836 21.0748C153.394 20.8787 153.953 20.6826 154.511 20.4865C154.891 20.3336 154.914 20.3115 154.917 19.9105C154.944 19.3093 154.993 18.686 154.998 18.0624C154.998 18.0178 154.977 17.9508 154.999 17.8842C155.067 17.7733 155.113 17.5955 155.225 17.5741C155.314 17.5302 155.492 17.5762 155.558 17.6881C155.734 17.9122 155.866 18.136 156.02 18.3822C156.285 18.7407 156.549 19.0992 156.814 19.4576C156.946 19.6369 157.102 19.6604 157.348 19.5509C157.817 19.3541 158.286 19.2019 158.777 19.0276C158.934 18.962 159.067 18.963 159.177 19.1198C159.265 19.2541 159.175 19.3871 159.063 19.4976C158.591 20.0062 158.164 20.5597 157.714 21.1353Z" fill="#00F0E9"/>
</g>
<g clip-path="url(#clip4)">
<path d="M172.563 25C171.592 24.9577 171 24.4507 171 23.6056C171 22.7183 171.718 22 172.563 22C173.451 22 174.127 22.6338 174.127 23.4789C174.085 24.3662 173.451 25 172.563 25Z" fill="#FF2968"/>
</g>
<g clip-path="url(#clip5)">
<path d="M213.105 59.6199C213.105 59.079 213.132 58.5381 213.159 57.9971C213.159 57.6726 213.159 57.3751 213.159 57.0505C213.159 56.9423 213.132 56.8071 213.295 56.753C213.484 56.6989 213.538 56.8612 213.592 56.9423C213.971 57.6455 214.322 58.3488 214.674 59.052C214.701 59.1061 214.728 59.1601 214.755 59.2413C215.08 59.1601 215.404 59.079 215.729 58.9979C216.053 58.9167 216.405 58.8626 216.729 58.7815C216.892 58.7544 217 58.8356 217 58.9708C217 59.079 216.946 59.1601 216.892 59.2683C216.675 59.6199 216.459 59.9986 216.189 60.3502C216.026 60.5666 215.999 60.7559 216.134 60.9723C216.351 61.3509 216.54 61.7296 216.729 62.0812C216.784 62.2164 216.838 62.3246 216.865 62.4598C216.919 62.7303 216.729 62.8385 216.432 62.7573C216.297 62.7303 216.189 62.6492 216.053 62.5951C215.594 62.3787 215.134 62.1623 214.674 61.9459C214.349 61.8107 214.322 61.8107 214.079 62.0541C213.7 62.4057 213.295 62.7573 212.916 63.136C212.889 63.163 212.862 63.2171 212.808 63.2442C212.7 63.2712 212.564 63.3524 212.483 63.2983C212.402 63.2712 212.321 63.136 212.348 63.0278C212.375 62.7844 212.429 62.568 212.483 62.3246C212.537 61.9459 212.591 61.5673 212.645 61.1886C212.672 60.9993 212.591 60.8911 212.375 60.81C211.969 60.6477 211.591 60.4584 211.185 60.2691C211.05 60.215 210.969 60.1338 210.996 59.9715C211.023 59.8363 211.158 59.8093 211.293 59.8093C211.888 59.7822 212.483 59.7011 213.105 59.6199Z" fill="#00F0E9"/>
</g>
<g clip-path="url(#clip6)">
<path d="M215.042 16C214.394 15.9718 214 15.6338 214 15.0704C214 14.4789 214.479 14 215.042 14C215.634 14 216.084 14.4225 216.084 14.9859C216.056 15.5775 215.634 16 215.042 16Z" fill="#262C38"/>
</g>
<g clip-path="url(#clip7)">
<path d="M239.409 31C238.437 30.9577 237.846 30.4507 237.846 29.6056C237.846 28.7183 238.564 28 239.409 28C240.296 28 240.972 28.6338 240.972 29.4789C240.93 30.3662 240.296 31 239.409 31Z" fill="#262C38"/>
</g>
<g clip-path="url(#clip8)">
<path d="M259.563 82C258.591 81.9577 258 81.4507 258 80.6056C258 79.7183 258.718 79 259.563 79C260.451 79 261.127 79.6338 261.127 80.4789C261.084 81.3662 260.451 82 259.563 82Z" fill="#262C38"/>
</g>
<path d="M259.711 94.2163C259.75 94.2238 259.634 94.4032 259.317 94.5836C259.038 94.7717 258.55 94.9997 257.936 95.0421C257.323 95.0844 256.545 94.9334 255.882 94.4012C255.218 93.8689 254.779 93.0169 254.634 92.101C254.561 91.6431 254.535 91.1538 254.664 90.6947C254.71 90.4614 254.84 90.2043 254.963 89.9861C255.086 89.7678 255.287 89.5647 255.48 89.4005C255.906 89.0796 256.464 88.9055 257.001 89.05C257.577 89.2021 257.968 89.6816 258.111 90.1935C258.182 90.4494 258.168 90.7292 258.069 91.0327C257.977 91.2974 257.776 91.5005 257.544 91.6572C257.087 91.9317 256.637 91.9653 256.248 91.8898C255.891 91.8608 255.548 91.754 255.291 91.6234C255.034 91.4928 254.808 91.4086 254.629 91.2931C253.904 90.8699 253.256 90.2599 252.856 89.6174C252.456 88.9749 252.266 88.2923 252.255 87.7253C252.244 87.1582 252.373 86.6991 252.511 86.4031C252.681 86.1536 252.82 86.0596 252.859 86.0671C253.007 86.1362 252.77 86.7357 252.946 87.698C253.057 88.1635 253.239 88.683 253.623 89.2013C253.967 89.7121 254.522 90.1828 255.137 90.5444C255.278 90.6524 255.504 90.7366 255.722 90.8596C255.948 90.9438 256.173 91.028 256.446 91.0808C256.99 91.1865 257.439 90.9508 257.328 90.4854C257.295 90.2369 257.061 89.9897 256.828 89.9444C256.563 89.8527 256.222 89.9478 255.943 90.1359C255.664 90.3239 255.448 90.6048 255.373 90.9937C255.266 91.3361 255.268 91.74 255.31 92.1515C255.4 92.9357 255.738 93.6873 256.214 94.1429C256.73 94.6061 257.376 94.8122 257.943 94.8012C258.502 94.8291 258.936 94.6713 259.246 94.5297C259.532 94.3027 259.672 94.2087 259.711 94.2163Z" fill="#262C38"/>
<circle cx="231.5" cy="67.5" r="1.5" fill="#FF0B53"/>
<path d="M250.648 39.0144C247.627 40.3987 244.024 39.0785 242.63 36.0362L238.523 37.9184L245.823 53.8469C246.669 55.694 245.857 57.8806 244.01 58.7271C242.163 59.5736 239.976 58.7613 239.13 56.9142C238.283 55.0671 239.096 52.8806 240.943 52.0341C241.29 51.8747 241.701 51.7389 242.077 51.6982L240.155 47.5042C239.788 47.6201 239.43 47.7577 239.061 47.927C234.932 49.8192 233.119 54.6993 235.011 58.8281C236.903 62.957 241.783 64.7698 245.912 62.8776C250.041 60.9854 251.854 56.1053 249.962 51.9765L246.098 43.545C248.155 44.0748 250.406 43.9372 252.492 42.9812L250.669 39.0045L250.648 39.0144Z" fill="#FF0B53"/>
<path d="M248.946 38.4012C245.904 39.7954 242.313 38.4435 240.929 35.4229L236.822 37.3051L244.122 53.2336C244.968 55.0807 244.156 57.2673 242.309 58.1138C240.462 58.9603 238.275 58.1481 237.429 56.301C236.582 54.4539 237.394 52.2673 239.241 51.4208C239.589 51.2615 240 51.1257 240.376 51.0849L238.454 46.8909C238.086 47.0068 237.729 47.1444 237.359 47.3137C233.22 49.1842 231.408 54.0643 233.3 58.1931C235.192 62.3219 240.072 64.1348 244.201 62.2426C248.33 60.3504 250.143 55.4703 248.25 51.3415L244.386 42.91C246.444 43.4398 248.694 43.3022 250.781 42.3462L248.968 38.3912L248.946 38.4012Z" fill="#00F0E9"/>
<path d="M249.414 39.4218C247.959 39.7468 246.459 39.5141 245.189 38.8078C243.765 38.5135 242.477 37.7103 241.587 36.5142L238.523 37.9184L245.823 53.8469C246.669 55.694 245.857 57.8806 244.01 58.7271C242.793 59.2848 241.408 59.1308 240.373 58.4218C239.126 58.2832 237.986 57.5172 237.419 56.2786C236.572 54.4315 237.384 52.2449 239.232 51.3984C239.579 51.2391 239.99 51.1033 240.366 51.0625L238.952 47.9768C234.896 49.9142 233.129 54.7211 235.011 58.8281C235.818 60.5883 237.173 61.9393 238.782 62.7533C240.532 63.1871 242.419 63.0586 244.201 62.2419C248.33 60.3498 250.143 55.4696 248.25 51.3408L244.386 42.9093C246.444 43.4391 248.694 43.3016 250.781 42.3455L249.436 39.4119L249.414 39.4218Z" fill="#262C38"/>
<g clip-path="url(#clip9)">
<path d="M39.2149 14.7758C39.2091 14.7259 39.4703 14.7967 39.8104 15.1113C40.1446 15.376 40.6078 15.8786 40.8944 16.6041C41.1811 17.3296 41.2971 18.3278 40.9082 19.3342C40.5193 20.3405 39.658 21.1994 38.6063 21.7264C38.0805 21.9898 37.4989 22.2092 36.8941 22.2289C36.5947 22.2637 36.2337 22.2045 35.9226 22.1394C35.6115 22.0744 35.2888 21.9096 35.0161 21.7389C34.4647 21.3477 34.0399 20.7395 34.0086 20.0349C33.9715 19.2804 34.401 18.6234 34.9652 18.2543C35.2473 18.0698 35.5909 17.9793 35.996 17.9828C36.3511 17.9921 36.6738 18.1569 36.9524 18.3775C37.4596 18.8244 37.6732 19.3561 37.7312 19.8552C37.8333 20.2986 37.8356 20.7536 37.7764 21.1146C37.7172 21.4756 37.7021 21.7809 37.6312 22.042C37.3979 23.0809 36.9091 24.0989 36.2858 24.8289C35.6624 25.559 34.9102 26.0511 34.2288 26.2821C33.5475 26.513 32.9427 26.5327 32.5318 26.4793C32.165 26.3702 31.9979 26.2379 31.9921 26.1879C32.0188 25.9825 32.8348 26.0394 33.9306 25.4568C34.4506 25.1434 35.0089 24.7244 35.4884 24.0616C35.9736 23.4488 36.33 22.598 36.5309 21.7146C36.6075 21.5034 36.6226 21.1981 36.6876 20.887C36.7027 20.5818 36.7178 20.2765 36.6772 19.9271C36.596 19.2283 36.1387 18.7756 35.6187 19.089C35.3308 19.2236 35.1218 19.602 35.1566 19.9015C35.1473 20.2567 35.3934 20.6328 35.7277 20.8974C36.0619 21.1621 36.4845 21.3153 36.9836 21.2573C37.4386 21.255 37.9261 21.0972 38.4078 20.8894C39.3214 20.4798 40.1003 19.7822 40.4683 19.0312C40.8305 18.2303 40.8317 17.3702 40.6007 16.6888C40.4197 16.0016 40.0622 15.5373 39.772 15.2169C39.3878 14.958 39.2207 14.8257 39.2149 14.7758Z" fill="#FF0B53"/>
</g>
<g clip-path="url(#clip10)">
<path d="M44.1053 39.6199C44.1053 39.079 44.1324 38.5381 44.1594 37.9971C44.1594 37.6726 44.1594 37.3751 44.1594 37.0505C44.1594 36.9423 44.1324 36.8071 44.2947 36.753C44.484 36.6989 44.5381 36.8612 44.5922 36.9423C44.9708 37.6455 45.3224 38.3488 45.674 39.052C45.7011 39.1061 45.7281 39.1601 45.7552 39.2413C46.0797 39.1601 46.4043 39.079 46.7289 38.9979C47.0534 38.9167 47.405 38.8626 47.7296 38.7815C47.8919 38.7544 48 38.8356 48 38.9708C48 39.079 47.946 39.1601 47.8919 39.2683C47.6755 39.6199 47.4591 39.9986 47.1886 40.3502C47.0264 40.5666 46.9993 40.7559 47.1346 40.9723C47.3509 41.3509 47.5403 41.7296 47.7296 42.0812C47.7837 42.2164 47.8378 42.3246 47.8648 42.4598C47.9189 42.7303 47.7296 42.8385 47.4321 42.7573C47.2968 42.7303 47.1886 42.6492 47.0534 42.5951C46.5936 42.3787 46.1338 42.1623 45.674 41.9459C45.3495 41.8107 45.3224 41.8107 45.079 42.0541C44.7004 42.4057 44.2947 42.7573 43.916 43.136C43.889 43.163 43.8619 43.2171 43.8078 43.2442C43.6996 43.2712 43.5644 43.3524 43.4833 43.2983C43.4021 43.2712 43.321 43.136 43.348 43.0278C43.3751 42.7844 43.4292 42.568 43.4833 42.3246C43.5374 41.9459 43.5915 41.5673 43.6455 41.1886C43.6726 40.9993 43.5915 40.8911 43.3751 40.81C42.9694 40.6477 42.5907 40.4584 42.185 40.2691C42.0498 40.215 41.9687 40.1338 41.9957 39.9715C42.0228 39.8363 42.158 39.8093 42.2932 39.8093C42.8882 39.7822 43.4833 39.7011 44.1053 39.6199Z" fill="#00F0E9"/>
</g>
<g clip-path="url(#clip11)">
<path d="M27.0423 94C26.3944 93.9718 26 93.6338 26 93.0704C26 92.4789 26.4789 92 27.0423 92C27.6338 92 28.0846 92.4225 28.0846 92.9859C28.0564 93.5775 27.6338 94 27.0423 94Z" fill="#FF2968"/>
</g>
<path d="M25.8428 25.2504C25.8896 25.8972 25.5994 26.328 25.0398 26.393C24.4522 26.4613 23.9212 26.0409 23.8562 25.4813C23.7879 24.8937 24.1555 24.3973 24.7152 24.3322C25.306 24.2919 25.7745 24.6628 25.8428 25.2504Z" fill="#262C38"/>
<path d="M49.622 55.6966C46.8528 55.0532 45.1047 52.2742 45.7529 49.485L41.9875 48.6101L38.5942 63.2132C38.2007 64.9066 36.5067 65.9619 34.8132 65.5684C33.1198 65.1749 32.0646 63.4808 32.4581 61.7874C32.8516 60.094 34.5457 59.0388 36.2391 59.4323C36.5578 59.5063 36.9072 59.6295 37.1829 59.7986L38.0763 55.9535C37.7668 55.8396 37.4527 55.7456 37.114 55.6669C33.3288 54.7874 29.5478 57.1425 28.6682 60.9277C27.7886 64.713 30.1438 68.494 33.929 69.3736C37.7143 70.2531 41.4953 67.898 42.3748 64.1127L44.171 56.3828C45.2864 57.8179 46.8822 58.9027 48.7948 59.3471L49.6419 55.7013L49.622 55.6966Z" fill="#FF0B53"/>
<path d="M48.7914 54.3919C46.0022 53.7438 44.2787 50.9496 44.9222 48.1804L41.1569 47.3054L37.7636 61.9085C37.3701 63.602 35.676 64.6572 33.9826 64.2637C32.2892 63.8702 31.234 62.1761 31.6275 60.4827C32.021 58.7893 33.715 57.7341 35.4085 58.1276C35.7272 58.2016 36.0766 58.3248 36.3522 58.4939L37.2457 54.6488C36.9362 54.5349 36.6221 54.4409 36.2834 54.3622C32.5028 53.4627 28.7218 55.8179 27.8422 59.6031C26.9626 63.3884 29.3178 67.1694 33.103 68.0489C36.8883 68.9285 40.6693 66.5734 41.5488 62.7881L43.345 55.0582C44.4604 56.4933 46.0562 57.578 47.9688 58.0225L48.8113 54.3966L48.7914 54.3919Z" fill="#00F0E9"/>
<path d="M48.574 55.3271C47.4189 54.7857 46.525 53.8431 46.0347 52.7002C45.2251 51.7562 44.7732 50.5383 44.7966 49.2628L41.9875 48.6101L38.5942 63.2132C38.2007 64.9066 36.5066 65.9619 34.8132 65.5684C33.6976 65.3091 32.8403 64.48 32.5108 63.4585C31.7392 62.7123 31.3684 61.5972 31.6323 60.4616C32.0258 58.7682 33.7198 57.713 35.4133 58.1065C35.732 58.1805 36.0814 58.3037 36.357 58.4728L37.0144 55.6438C33.2551 54.8332 29.5432 57.1624 28.6682 60.9277C28.2932 62.5415 28.5039 64.1653 29.1671 65.5583C30.1249 66.7678 31.4696 67.6682 33.1032 68.0478C36.8885 68.9273 40.6694 66.5722 41.549 62.7869L43.3452 55.057C44.4606 56.4921 46.0564 57.5769 47.9689 58.0213L48.5939 55.3317L48.574 55.3271Z" fill="#262C38"/>
<g clip-path="url(#clip12)">
<path d="M103.246 11.0821C103.208 11.0736 103.328 10.8973 103.65 10.7253C103.934 10.5447 104.428 10.3296 105.042 10.3034C105.656 10.2773 106.43 10.4487 107.079 10.9983C107.728 11.5478 108.145 12.4112 108.266 13.3306C108.326 13.7903 108.34 14.28 108.198 14.7355C108.147 14.9676 108.009 15.2212 107.881 15.4361C107.752 15.651 107.546 15.8487 107.348 16.0078C106.914 16.3174 106.352 16.4767 105.819 16.318C105.247 16.1508 104.869 15.6612 104.74 15.1457C104.675 14.888 104.696 14.6087 104.804 14.3079C104.902 14.0457 105.108 13.848 105.345 13.6975C105.809 13.4351 106.26 13.4134 106.646 13.4991C107.003 13.5375 107.342 13.6533 107.596 13.7907C107.85 13.928 108.073 14.0181 108.249 14.1383C108.963 14.5804 109.595 15.2073 109.977 15.8602C110.36 16.513 110.533 17.2004 110.529 17.7675C110.525 18.3346 110.383 18.7901 110.237 19.0824C110.061 19.3274 109.919 19.4177 109.881 19.4091C109.735 19.3362 109.988 18.7431 109.837 17.7765C109.738 17.3082 109.57 16.7842 109.2 16.2559C108.869 15.7362 108.327 15.2511 107.721 14.8733C107.584 14.7617 107.36 14.6716 107.145 14.5428C106.922 14.4527 106.698 14.3626 106.428 14.3026C105.886 14.1827 105.431 14.4063 105.53 14.8746C105.556 15.1238 105.784 15.3771 106.016 15.4286C106.278 15.5272 106.622 15.4411 106.905 15.2605C107.189 15.0799 107.412 14.8048 107.498 14.418C107.613 14.0785 107.622 13.6747 107.591 13.2622C107.522 12.476 107.204 11.7157 106.74 11.2477C106.237 10.771 105.596 10.548 105.029 10.544C104.471 10.5014 104.032 10.6477 103.719 10.7811C103.427 11.0004 103.285 11.0907 103.246 11.0821Z" fill="#262C38"/>
</g>
<g clip-path="url(#clip13)">
<path d="M103.563 29.8086C102.592 29.7663 102 29.2593 102 28.4142C102 27.5269 102.718 26.8086 103.563 26.8086C104.451 26.8086 105.127 27.4424 105.127 28.2875C105.085 29.1748 104.451 29.8086 103.563 29.8086Z" fill="#262C38"/>
</g>
<path d="M200.912 48.4992C200.969 48.5344 200.68 48.7467 200.073 48.8394C199.522 48.9674 198.619 49.0324 197.63 48.7305C196.642 48.4286 195.511 47.7246 194.789 46.4906C194.067 45.2566 193.888 43.6547 194.211 42.1296C194.372 41.3671 194.624 40.5832 195.103 39.9401C195.315 39.601 195.674 39.2757 195.998 39.007C196.322 38.7382 196.76 38.5399 197.162 38.3981C198.023 38.1496 199.004 38.2115 199.76 38.7608C200.573 39.3453 200.899 40.3329 200.816 41.2224C200.774 41.6672 200.584 42.098 200.246 42.515C199.943 42.8755 199.506 43.0738 199.047 43.1804C198.165 43.3372 197.438 43.1195 196.873 42.7676C196.329 42.5073 195.855 42.134 195.53 41.7746C195.205 41.4151 194.901 41.1474 194.688 40.8584C193.804 39.7587 193.153 38.4117 192.911 37.1628C192.669 35.9139 192.78 34.7279 193.103 33.831C193.426 32.9341 193.905 32.291 194.3 31.9092C194.716 31.6192 194.991 31.5552 195.047 31.5904C195.238 31.7877 194.506 32.5865 194.205 34.2033C194.1 35.001 194.073 35.9257 194.364 36.9698C194.599 37.9788 195.187 39.0507 195.936 39.9882C196.092 40.242 196.396 40.5097 196.665 40.834C196.969 41.1017 197.273 41.3694 197.668 41.6158C198.46 42.1085 199.306 42.0083 199.411 41.2106C199.509 40.8011 199.289 40.2721 198.95 40.0609C198.59 39.758 197.997 39.7025 197.447 39.8304C196.896 39.9584 196.389 40.2698 196.037 40.835C195.663 41.3085 195.424 41.9441 195.242 42.6149C194.912 43.9001 194.992 45.2834 195.467 46.2848C195.998 47.3215 196.888 48.0329 197.785 48.3561C198.647 48.7359 199.423 48.7487 199.995 48.7125C200.58 48.528 200.856 48.4641 200.912 48.4992Z" fill="#FF0B53"/>
</g>
<defs>
<filter id="filter0_f" x="23" y="81" width="156" height="26" filterUnits="userSpaceOnUse" color-interpolation-filters="sRGB">
<feFlood flood-opacity="0" result="BackgroundImageFix"/>
<feBlend mode="normal" in="SourceGraphic" in2="BackgroundImageFix" result="shape"/>
<feGaussianBlur stdDeviation="5" result="effect1_foregroundBlur"/>
</filter>
<linearGradient id="paint0_linear" x1="154" y1="81" x2="248" y2="81" gradientUnits="userSpaceOnUse">
<stop stop-color="#09EAE5"/>
<stop offset="0.791667" stop-color="#BD4D7A"/>
<stop offset="1" stop-color="#E52A62"/>
</linearGradient>
<clipPath id="clip0">
<rect width="277" height="105.82" fill="white"/>
</clipPath>
<clipPath id="clip1">
<rect width="21.3938" height="24.2827" fill="white" transform="translate(53.2387 69) rotate(22.3625)"/>
</clipPath>
<clipPath id="clip2">
<rect width="8.94383" height="9.87464" fill="white" transform="translate(51.3011 97.167) rotate(135.45)"/>
</clipPath>
<clipPath id="clip3">
<rect width="12.8115" height="14.1448" fill="white" transform="translate(164.053 24.0801) rotate(135.45)"/>
</clipPath>
<clipPath id="clip4">
<rect width="3.08451" height="3" fill="white" transform="translate(171 22)"/>
</clipPath>
<clipPath id="clip5">
<rect width="11" height="12.1448" fill="white" transform="translate(211 54)"/>
</clipPath>
<clipPath id="clip6">
<rect width="2.05634" height="2" fill="white" transform="translate(214 14)"/>
</clipPath>
<clipPath id="clip7">
<rect width="3.08451" height="3" fill="white" transform="translate(237.846 28)"/>
</clipPath>
<clipPath id="clip8">
<rect width="3.08451" height="3" fill="white" transform="translate(258 79)"/>
</clipPath>
<clipPath id="clip9">
<rect width="10.904" height="10.1" fill="white" transform="translate(32.0385 26.5869) rotate(-96.6294)"/>
</clipPath>
<clipPath id="clip10">
<rect width="11" height="12.1448" fill="white" transform="translate(42 34)"/>
</clipPath>
<clipPath id="clip11">
<rect width="2.05634" height="2" fill="white" transform="translate(26 92)"/>
</clipPath>
<clipPath id="clip12">
<rect width="8.5957" height="7.96192" fill="white" transform="translate(110.19 19.4775) rotate(-167.505)"/>
</clipPath>
<clipPath id="clip13">
<rect width="3.08451" height="3" fill="white" transform="translate(102 26.8086)"/>
</clipPath>
</defs>
</svg>
