<svg width="277" height="106" viewBox="0 0 277 106" fill="none" xmlns="http://www.w3.org/2000/svg">
<g clip-path="url(#clip0)">
<g filter="url(#filter0_f)">
<ellipse cx="86" cy="94" rx="68" ry="3" fill="#C4C4C4" fill-opacity="0.5"/>
</g>
<path d="M162.71 87.3779C161.909 88.3154 160.742 89.043 159.209 89.5605C157.676 90.0684 155.977 90.3076 154.111 90.2783C152.324 90.2588 150.815 89.8096 149.585 88.9307C148.354 88.0518 147.476 86.8262 146.948 85.2539C146.421 83.6816 146.279 81.9092 146.523 79.9365L146.641 79.0576C147.09 75.7471 148.252 73.125 150.127 71.1914C152.012 69.2578 154.316 68.3154 157.041 68.3643C159.424 68.4033 161.255 69.043 162.534 70.2832C163.813 71.5234 164.526 73.3154 164.673 75.6592L159.868 75.6445C159.8 74.502 159.517 73.667 159.019 73.1396C158.53 72.6123 157.832 72.334 156.924 72.3047C155.576 72.2559 154.463 72.7881 153.584 73.9014C152.705 75.0049 152.104 76.5869 151.782 78.6475C151.509 80.4053 151.411 81.7725 151.489 82.749C151.636 85.1025 152.695 86.2939 154.668 86.3232C155.859 86.3428 156.904 86.0547 157.803 85.459L158.462 82.1338H154.99L155.605 78.6035H164.087L162.71 87.3779ZM170.356 90H165.347L169.053 68.6719H174.048L170.356 90ZM191.626 87.3779C190.825 88.3154 189.658 89.043 188.125 89.5605C186.592 90.0684 184.893 90.3076 183.027 90.2783C181.24 90.2588 179.731 89.8096 178.501 88.9307C177.271 88.0518 176.392 86.8262 175.864 85.2539C175.337 83.6816 175.195 81.9092 175.439 79.9365L175.557 79.0576C176.006 75.7471 177.168 73.125 179.043 71.1914C180.928 69.2578 183.232 68.3154 185.957 68.3643C188.34 68.4033 190.171 69.043 191.45 70.2832C192.729 71.5234 193.442 73.3154 193.589 75.6592L188.784 75.6445C188.716 74.502 188.433 73.667 187.935 73.1396C187.446 72.6123 186.748 72.334 185.84 72.3047C184.492 72.2559 183.379 72.7881 182.5 73.9014C181.621 75.0049 181.021 76.5869 180.698 78.6475C180.425 80.4053 180.327 81.7725 180.405 82.749C180.552 85.1025 181.611 86.2939 183.584 86.3232C184.775 86.3428 185.82 86.0547 186.719 85.459L187.378 82.1338H183.906L184.521 78.6035H193.003L191.626 87.3779ZM206.45 86.0156H199.639L197.749 90H192.227L203.521 68.6719H208.237L212.178 90H206.963L206.45 86.0156ZM201.514 82.0459H205.938L205 74.6924L201.514 82.0459ZM225.625 84.2285C225.84 83.125 225.244 82.2705 223.838 81.665L221.436 80.6689C218.066 79.1553 216.465 77.0947 216.631 74.4873C216.699 73.2959 217.109 72.2363 217.861 71.3086C218.613 70.3711 219.653 69.6436 220.981 69.126C222.31 68.6084 223.76 68.3594 225.332 68.3789C227.441 68.418 229.136 69.0332 230.415 70.2246C231.704 71.416 232.339 73.0127 232.319 75.0146H227.339C227.368 74.1943 227.192 73.54 226.812 73.0518C226.44 72.5537 225.825 72.2949 224.966 72.2754C224.126 72.2559 223.384 72.4512 222.739 72.8613C222.095 73.2715 221.714 73.8232 221.597 74.5166C221.411 75.4932 222.134 76.2939 223.765 76.9189C225.405 77.5439 226.597 78.0811 227.339 78.5303C229.673 79.9268 230.767 81.8115 230.62 84.1846C230.542 85.415 230.146 86.4941 229.434 87.4219C228.721 88.3496 227.729 89.0674 226.46 89.5752C225.2 90.083 223.784 90.3271 222.212 90.3076C221.06 90.2881 219.99 90.1074 219.004 89.7656C218.018 89.4238 217.173 88.9258 216.47 88.2715C215.044 86.9531 214.36 85.2197 214.419 83.0713L219.443 83.0859C219.385 84.1797 219.595 85.0098 220.073 85.5762C220.552 86.1328 221.357 86.4111 222.49 86.4111C223.33 86.4111 224.028 86.2207 224.585 85.8398C225.151 85.4492 225.498 84.9121 225.625 84.2285Z" fill="#BBBBBB"/>
<path d="M96.5039 35.585L64.9512 91H49.1309L80.5518 38.4414H51.2402L53.0859 27.0156H97.8662L96.5039 35.585ZM101.294 59.5352L110.171 27.0156H146.646L144.8 38.5293H120.322L116.411 51.3174C118.784 49.7939 121.729 49.0029 125.244 48.9443C130.869 48.9443 135.19 50.8926 138.208 54.7891C141.255 58.6855 142.515 63.7832 141.987 70.082C141.46 76.5859 138.926 81.8887 134.385 85.9902C129.844 90.0625 124.351 92.04 117.905 91.9229C114.126 91.835 110.684 90.9561 107.578 89.2861C104.502 87.6162 102.114 85.3457 100.415 82.4746C98.7158 79.5742 97.8809 76.3369 97.9102 72.7627H112.324C112.383 75.0479 112.954 76.8789 114.038 78.2559C115.122 79.6328 116.646 80.3506 118.608 80.4092C121.011 80.4971 123.003 79.6035 124.585 77.7285C126.167 75.8242 127.178 72.9385 127.617 69.0713C127.91 65.8193 127.471 63.3584 126.299 61.6885C125.127 59.9893 123.296 59.1396 120.806 59.1396C117.612 59.1396 115.02 60.2236 113.027 62.3916L101.294 59.5352Z" fill="#EF3829"/>
<path d="M96.5039 35.585L99.1109 37.0694L99.381 36.595L99.4667 36.056L96.5039 35.585ZM64.9512 91V94H66.6952L67.5582 92.4844L64.9512 91ZM49.1309 91L46.5559 89.4606L43.8422 94H49.1309V91ZM80.5518 38.4414L83.1267 39.9808L85.8405 35.4414H80.5518V38.4414ZM51.2402 38.4414L48.2786 37.963L47.7167 41.4414H51.2402V38.4414ZM53.0859 27.0156V24.0156H50.5317L50.1243 26.5372L53.0859 27.0156ZM97.8662 27.0156L100.829 27.4866L101.381 24.0156H97.8662V27.0156ZM93.8969 34.1006L62.3442 89.5156L67.5582 92.4844L99.1109 37.0694L93.8969 34.1006ZM64.9512 88H49.1309V94H64.9512V88ZM51.7058 92.5394L83.1267 39.9808L77.9768 36.902L46.5559 89.4606L51.7058 92.5394ZM80.5518 35.4414H51.2402V41.4414H80.5518V35.4414ZM54.2018 38.9198L56.0475 27.494L50.1243 26.5372L48.2786 37.963L54.2018 38.9198ZM53.0859 30.0156H97.8662V24.0156H53.0859V30.0156ZM94.9034 26.5446L93.5411 35.114L99.4667 36.056L100.829 27.4866L94.9034 26.5446ZM101.294 59.5352L98.3998 58.7451L97.5876 61.7205L100.584 62.45L101.294 59.5352ZM110.171 27.0156V24.0156H107.88L107.277 26.2256L110.171 27.0156ZM146.646 27.0156L149.608 27.4905L150.165 24.0156H146.646V27.0156ZM144.8 38.5293V41.5293H147.357L147.762 39.0042L144.8 38.5293ZM120.322 38.5293V35.5293H118.103L117.453 37.6519L120.322 38.5293ZM116.411 51.3174L113.542 50.44L111.151 58.2594L118.032 53.8419L116.411 51.3174ZM125.244 48.9443V45.9443H125.219L125.194 45.9448L125.244 48.9443ZM138.208 54.7891L135.836 56.626L135.845 56.637L138.208 54.7891ZM141.987 70.082L138.998 69.8317L138.997 69.8396L141.987 70.082ZM134.385 85.9902L136.388 88.2237L136.396 88.2165L134.385 85.9902ZM117.905 91.9229L117.836 94.922L117.843 94.9222L117.851 94.9224L117.905 91.9229ZM107.578 89.2861L106.147 91.9227L106.157 91.9283L107.578 89.2861ZM100.415 82.4746L97.8265 83.9911L97.8333 84.0026L100.415 82.4746ZM97.9102 72.7627V69.7627H94.9346L94.9103 72.7381L97.9102 72.7627ZM112.324 72.7627L115.323 72.6858L115.248 69.7627H112.324V72.7627ZM118.608 80.4092L118.718 77.4112L118.708 77.4108L118.698 77.4105L118.608 80.4092ZM124.585 77.7285L126.878 79.6631L126.885 79.6544L126.893 79.6456L124.585 77.7285ZM127.617 69.0713L130.598 69.41L130.602 69.3753L130.605 69.3405L127.617 69.0713ZM126.299 61.6885L123.829 63.3917L123.836 63.4017L123.843 63.4118L126.299 61.6885ZM113.027 62.3916L112.318 65.3065L114.038 65.7253L115.236 64.4215L113.027 62.3916ZM104.188 60.3252L113.065 27.8056L107.277 26.2256L98.3998 58.7451L104.188 60.3252ZM110.171 30.0156H146.646V24.0156H110.171V30.0156ZM143.683 26.5408L141.838 38.0544L147.762 39.0042L149.608 27.4905L143.683 26.5408ZM144.8 35.5293H120.322V41.5293H144.8V35.5293ZM117.453 37.6519L113.542 50.44L119.28 52.1948L123.191 39.4067L117.453 37.6519ZM118.032 53.8419C119.832 52.686 122.199 51.9955 125.294 51.9439L125.194 45.9448C121.258 46.0104 117.736 46.9019 114.79 48.7928L118.032 53.8419ZM125.244 51.9443C130.09 51.9443 133.472 53.5733 135.836 56.6259L140.58 52.9522C136.909 48.2118 131.648 45.9443 125.244 45.9443V51.9443ZM135.845 56.637C138.307 59.7862 139.48 64.0693 138.998 69.8317L144.977 70.3323C145.549 63.4971 144.203 57.5849 140.571 52.9411L135.845 56.637ZM138.997 69.8396C138.527 75.6371 136.308 80.2109 132.374 83.7639L136.396 88.2165C141.544 83.5665 144.393 77.5348 144.977 70.3245L138.997 69.8396ZM132.382 83.7568C128.44 87.2921 123.695 89.0276 117.96 88.9233L117.851 94.9224C125.007 95.0525 131.248 92.8329 136.388 88.2237L132.382 83.7568ZM117.975 88.9237C114.633 88.8459 111.659 88.0742 108.999 86.6439L106.157 91.9283C109.708 93.8379 113.619 94.824 117.836 94.922L117.975 88.9237ZM109.009 86.6496C106.385 85.2251 104.406 83.3276 102.997 80.9466L97.8333 84.0026C99.8226 87.3638 102.618 90.0073 106.147 91.9227L109.009 86.6496ZM103.004 80.9581C101.595 78.5547 100.885 75.8557 100.91 72.7873L94.9103 72.7381C94.8768 76.8181 95.8362 80.5937 97.8266 83.9911L103.004 80.9581ZM97.9102 75.7627H112.324V69.7627H97.9102V75.7627ZM109.325 72.8396C109.395 75.5745 110.09 78.0908 111.681 80.1115L116.395 76.4002C115.818 75.667 115.37 74.5212 115.323 72.6858L109.325 72.8396ZM111.681 80.1115C113.385 82.2759 115.789 83.3263 118.519 83.4078L118.698 77.4105C117.502 77.3748 116.859 76.9897 116.395 76.4002L111.681 80.1115ZM118.499 83.4072C121.845 83.5296 124.715 82.2262 126.878 79.6631L122.292 75.7939C121.291 76.9809 120.177 77.4646 118.718 77.4112L118.499 83.4072ZM126.893 79.6456C129.005 77.1029 130.127 73.5524 130.598 69.41L124.636 68.7326C124.228 72.3246 123.329 74.5456 122.277 75.8115L126.893 79.6456ZM130.605 69.3405C130.926 65.7808 130.516 62.4753 128.754 59.9652L123.843 63.4118C124.425 64.2415 124.895 65.8579 124.629 68.8021L130.605 69.3405ZM128.768 59.9853C126.917 57.3001 124.05 56.1396 120.806 56.1396V62.1396C122.542 62.1396 123.337 62.6784 123.829 63.3917L128.768 59.9853ZM120.806 56.1396C116.852 56.1396 113.43 57.5193 110.818 60.3617L115.236 64.4215C116.609 62.9279 118.373 62.1396 120.806 62.1396V56.1396ZM113.737 59.4767L102.004 56.6203L100.584 62.45L112.318 65.3065L113.737 59.4767Z" fill="#EF3829"/>
</g>
<defs>
<filter id="filter0_f" x="8" y="81" width="156" height="26" filterUnits="userSpaceOnUse" color-interpolation-filters="sRGB">
<feFlood flood-opacity="0" result="BackgroundImageFix"/>
<feBlend mode="normal" in="SourceGraphic" in2="BackgroundImageFix" result="shape"/>
<feGaussianBlur stdDeviation="5" result="effect1_foregroundBlur"/>
</filter>
<clipPath id="clip0">
<rect width="277" height="105.82" fill="white"/>
</clipPath>
</defs>
</svg>
