<svg width="277" height="106" viewBox="0 0 277 106" fill="none" xmlns="http://www.w3.org/2000/svg">
<g clip-path="url(#clip0)">
<g filter="url(#filter0_f)">
<ellipse cx="137" cy="94.8613" rx="68" ry="3" fill="#C4C4C4" fill-opacity="0.5"/>
</g>
<path d="M138.71 89.2393C137.909 90.1768 136.742 90.9043 135.209 91.4219C133.676 91.9297 131.977 92.1689 130.111 92.1396C128.324 92.1201 126.815 91.6709 125.585 90.792C124.354 89.9131 123.476 88.6875 122.948 87.1152C122.421 85.543 122.279 83.7705 122.523 81.7979L122.641 80.9189C123.09 77.6084 124.252 74.9863 126.127 73.0527C128.012 71.1191 130.316 70.1768 133.041 70.2256C135.424 70.2646 137.255 70.9043 138.534 72.1445C139.813 73.3848 140.526 75.1768 140.673 77.5205L135.868 77.5059C135.8 76.3633 135.517 75.5283 135.019 75.001C134.53 74.4736 133.832 74.1953 132.924 74.166C131.576 74.1172 130.463 74.6494 129.584 75.7627C128.705 76.8662 128.104 78.4482 127.782 80.5088C127.509 82.2666 127.411 83.6338 127.489 84.6104C127.636 86.9639 128.695 88.1553 130.668 88.1846C131.859 88.2041 132.904 87.916 133.803 87.3203L134.462 83.9951H130.99L131.605 80.4648H140.087L138.71 89.2393ZM146.356 91.8613H141.347L145.053 70.5332H150.048L146.356 91.8613ZM167.626 89.2393C166.825 90.1768 165.658 90.9043 164.125 91.4219C162.592 91.9297 160.893 92.1689 159.027 92.1396C157.24 92.1201 155.731 91.6709 154.501 90.792C153.271 89.9131 152.392 88.6875 151.864 87.1152C151.337 85.543 151.195 83.7705 151.439 81.7979L151.557 80.9189C152.006 77.6084 153.168 74.9863 155.043 73.0527C156.928 71.1191 159.232 70.1768 161.957 70.2256C164.34 70.2646 166.171 70.9043 167.45 72.1445C168.729 73.3848 169.442 75.1768 169.589 77.5205L164.784 77.5059C164.716 76.3633 164.433 75.5283 163.935 75.001C163.446 74.4736 162.748 74.1953 161.84 74.166C160.492 74.1172 159.379 74.6494 158.5 75.7627C157.621 76.8662 157.021 78.4482 156.698 80.5088C156.425 82.2666 156.327 83.6338 156.405 84.6104C156.552 86.9639 157.611 88.1553 159.584 88.1846C160.775 88.2041 161.82 87.916 162.719 87.3203L163.378 83.9951H159.906L160.521 80.4648H169.003L167.626 89.2393ZM182.45 87.877H175.639L173.749 91.8613H168.227L179.521 70.5332H184.237L188.178 91.8613H182.963L182.45 87.877ZM177.514 83.9072H181.938L181 76.5537L177.514 83.9072ZM201.625 86.0898C201.84 84.9863 201.244 84.1318 199.838 83.5264L197.436 82.5303C194.066 81.0166 192.465 78.9561 192.631 76.3486C192.699 75.1572 193.109 74.0977 193.861 73.1699C194.613 72.2324 195.653 71.5049 196.981 70.9873C198.31 70.4697 199.76 70.2207 201.332 70.2402C203.441 70.2793 205.136 70.8945 206.415 72.0859C207.704 73.2773 208.339 74.874 208.319 76.876H203.339C203.368 76.0557 203.192 75.4014 202.812 74.9131C202.44 74.415 201.825 74.1562 200.966 74.1367C200.126 74.1172 199.384 74.3125 198.739 74.7227C198.095 75.1328 197.714 75.6846 197.597 76.3779C197.411 77.3545 198.134 78.1553 199.765 78.7803C201.405 79.4053 202.597 79.9424 203.339 80.3916C205.673 81.7881 206.767 83.6729 206.62 86.0459C206.542 87.2764 206.146 88.3555 205.434 89.2832C204.721 90.2109 203.729 90.9287 202.46 91.4365C201.2 91.9443 199.784 92.1885 198.212 92.1689C197.06 92.1494 195.99 91.9688 195.004 91.627C194.018 91.2852 193.173 90.7871 192.47 90.1328C191.044 88.8145 190.36 87.0811 190.419 84.9326L195.443 84.9473C195.385 86.041 195.595 86.8711 196.073 87.4375C196.552 87.9941 197.357 88.2725 198.49 88.2725C199.33 88.2725 200.028 88.082 200.585 87.7012C201.151 87.3105 201.498 86.7734 201.625 86.0898Z" fill="#BBBBBB"/>
<path d="M133.504 35.585L101.951 91H86.1309L117.552 38.4414H88.2402L90.0859 27.0156H134.866L133.504 35.585Z" fill="#EF3829"/>
<path d="M133.504 35.585L136.111 37.0694L136.381 36.595L136.467 36.056L133.504 35.585ZM101.951 91V94H103.695L104.558 92.4844L101.951 91ZM86.1309 91L83.5559 89.4606L80.8422 94H86.1309V91ZM117.552 38.4414L120.127 39.9808L122.84 35.4414H117.552V38.4414ZM88.2402 38.4414L85.2786 37.963L84.7167 41.4414H88.2402V38.4414ZM90.0859 27.0156V24.0156H87.5317L87.1243 26.5372L90.0859 27.0156ZM134.866 27.0156L137.829 27.4866L138.381 24.0156H134.866V27.0156ZM130.897 34.1006L99.3442 89.5156L104.558 92.4844L136.111 37.0694L130.897 34.1006ZM101.951 88H86.1309V94H101.951V88ZM88.7058 92.5394L120.127 39.9808L114.977 36.902L83.5559 89.4606L88.7058 92.5394ZM117.552 35.4414H88.2402V41.4414H117.552V35.4414ZM91.2018 38.9198L93.0475 27.494L87.1243 26.5372L85.2786 37.963L91.2018 38.9198ZM90.0859 30.0156H134.866V24.0156H90.0859V30.0156ZM131.903 26.5446L130.541 35.114L136.467 36.056L137.829 27.4866L131.903 26.5446Z" fill="#EF3829"/>
</g>
<defs>
<filter id="filter0_f" x="59" y="81.8613" width="156" height="26" filterUnits="userSpaceOnUse" color-interpolation-filters="sRGB">
<feFlood flood-opacity="0" result="BackgroundImageFix"/>
<feBlend mode="normal" in="SourceGraphic" in2="BackgroundImageFix" result="shape"/>
<feGaussianBlur stdDeviation="5" result="effect1_foregroundBlur"/>
</filter>
<clipPath id="clip0">
<rect width="277" height="105.82" fill="white"/>
</clipPath>
</defs>
</svg>
