<svg width="277" height="106" viewBox="0 0 277 106" fill="none" xmlns="http://www.w3.org/2000/svg">
<g clip-path="url(#clip0)">
<g clip-path="url(#clip1)">
<path d="M151.217 15.0728C152.005 15.2798 152.596 15.68 153.217 16.3837C153.777 17.0323 154.08 17.8602 154.05 18.6882V18.702V18.7158C154.05 18.7158 154.05 18.7296 154.065 18.7296C154.065 18.7296 154.065 18.7434 154.08 18.7434L154.095 18.7572C154.095 18.7572 154.111 18.7572 154.111 18.771H154.126H154.141C154.186 18.771 154.217 18.7434 154.217 18.702C154.217 18.702 154.217 18.702 154.217 18.6882C154.186 17.874 154.489 17.0323 155.05 16.3837C155.656 15.6662 156.261 15.2798 157.049 15.0728C157.094 15.059 157.11 15.0314 157.11 14.99C157.11 14.9486 157.079 14.921 157.049 14.921C156.246 14.7416 155.762 14.3138 155.247 13.817C154.747 13.3341 154.398 12.6993 154.232 11.9127C154.232 11.9127 154.232 11.9127 154.232 11.8989C154.232 11.8851 154.232 11.8851 154.217 11.8851C154.217 11.8851 154.217 11.8851 154.217 11.8713L154.201 11.8575C154.201 11.8575 154.201 11.8575 154.186 11.8575C154.186 11.8575 154.171 11.8575 154.171 11.8438H154.156H154.141C154.141 11.8438 154.126 11.8438 154.126 11.8575C154.126 11.8575 154.126 11.8575 154.111 11.8575L154.095 11.8713C154.095 11.8713 154.095 11.8713 154.095 11.8851C154.095 11.8851 154.095 11.8989 154.08 11.8989C154.08 11.8989 154.08 11.8989 154.08 11.9127C153.914 12.6993 153.565 13.3479 153.065 13.817C152.52 14.3138 152.02 14.7416 151.217 14.921C151.187 14.921 151.157 14.9486 151.157 14.99C151.157 15.0314 151.187 15.059 151.217 15.0728Z" fill="#954EDE"/>
</g>
<path d="M133.988 12.8834C133.801 12.9069 133.613 12.9771 133.449 13.0707C133.192 12.5557 132.607 12.2513 131.998 12.345C131.647 12.3918 131.342 12.5791 131.132 12.8366C130.851 12.6727 130.5 12.5791 130.148 12.6493C129.797 12.6961 129.493 12.8834 129.282 13.141C128.978 12.9537 128.65 12.8834 128.275 12.9303C127.526 13.0473 127.011 13.7263 127.105 14.4286C127.316 15.7163 127.386 16.325 127.433 16.5825C127.199 16.8635 127.081 17.2381 127.152 17.6127L127.479 19.6495C127.69 21.0308 128.65 22.2014 129.985 22.7867L131.061 29.6464C131.108 29.8805 131.319 30.021 131.577 29.9976C131.811 29.9507 131.998 29.74 131.951 29.5059L130.851 22.4355C130.827 22.295 130.734 22.1546 130.57 22.1077C129.399 21.6863 128.556 20.703 128.369 19.5324L128.041 17.4722C128.018 17.3083 128.065 17.1678 128.205 17.0508C128.205 17.0508 128.205 17.0508 128.229 17.0508C128.299 17.0039 128.393 16.9571 128.463 16.9337L130.851 16.5591C131.132 16.5123 131.366 16.6996 131.413 16.9337C131.459 17.1912 131.272 17.4254 130.991 17.4722L129.54 17.7063C129.423 17.7297 129.329 17.7765 129.259 17.8702C129.189 17.9638 129.165 18.0809 129.165 18.1745L129.376 19.5558C129.399 19.7197 129.54 19.8602 129.704 19.8836L131.857 20.3753C131.928 20.3987 131.975 20.3987 132.045 20.3753C132.209 20.3518 132.373 20.2348 132.419 20.0709C132.49 19.8368 132.349 19.6261 132.092 19.5558L130.219 19.111L130.102 18.4087L131.108 18.2448C131.74 18.1511 132.209 17.6595 132.279 17.0976C132.419 17.121 132.583 17.121 132.747 17.0976C133.098 17.0508 133.403 16.8635 133.613 16.6059C133.894 16.7698 134.245 16.8635 134.597 16.7932C134.761 16.7698 134.924 16.6996 135.065 16.6294L135.346 18.4321C135.603 20.1411 134.363 21.7331 132.56 22.0375C132.326 22.0843 132.138 22.295 132.185 22.5292C132.232 22.7633 132.443 22.9037 132.7 22.8803C133.332 22.7867 133.894 22.5526 134.386 22.2482L135.439 28.8972C135.486 29.1313 135.697 29.2718 135.955 29.2484C136.189 29.2016 136.376 28.9908 136.329 28.7567L135.205 21.5927C136.025 20.7264 136.446 19.5324 136.259 18.315L135.557 13.8902C135.439 13.2346 134.737 12.7664 133.988 12.8834ZM128.275 16.1143C128.205 15.6226 128.088 14.85 127.995 14.2882C127.948 14.0306 128.135 13.7965 128.416 13.7497C128.697 13.7029 128.931 13.8902 128.978 14.1243L129.259 15.9504L128.322 16.0909C128.322 16.1143 128.299 16.1143 128.275 16.1143ZM130.71 15.7397L130.148 15.8333L129.867 14.0072C129.821 13.7497 130.008 13.5156 130.289 13.4687C130.57 13.4219 130.804 13.6092 130.851 13.8433L131.155 15.7163C130.991 15.7163 130.851 15.7163 130.71 15.7397ZM132.63 16.325C132.349 16.3718 132.115 16.1845 132.068 15.9504L131.717 13.7029C131.67 13.4453 131.857 13.2112 132.138 13.1644C132.419 13.1176 132.653 13.3049 132.7 13.539L133.051 15.7865C133.075 16.0441 132.888 16.3016 132.63 16.325ZM134.48 16.0441C134.199 16.0909 133.965 15.9036 133.918 15.6695L133.684 14.2413C133.66 13.9838 133.847 13.7497 134.128 13.7029C134.409 13.656 134.643 13.8433 134.69 14.0775L134.924 15.5056C134.948 15.7631 134.761 15.9972 134.48 16.0441Z" fill="#FFDFFF"/>
<path d="M144.687 5.55559L144.43 3.86993C144.313 3.07392 143.517 2.51204 142.65 2.65251C142.393 2.69933 142.159 2.79298 141.971 2.93345C141.714 2.30133 141.012 1.90333 140.286 2.02039C139.841 2.09062 139.49 2.32474 139.256 2.6291C138.928 2.39498 138.507 2.30133 138.085 2.37156C137.64 2.4418 137.289 2.67592 137.055 2.98027C136.727 2.74616 136.306 2.65251 135.884 2.72274C135.042 2.86322 134.433 3.6124 134.573 4.43181C134.831 6.04724 134.924 6.74959 134.971 7.05395C134.69 7.38172 134.55 7.80313 134.62 8.22455L134.948 10.6594C135.205 12.2982 136.329 13.7029 137.945 14.3585L140.122 28.2417C140.169 28.4759 140.379 28.6163 140.637 28.5929C140.871 28.5461 141.058 28.3354 141.012 28.1013L138.787 13.9839C138.764 13.8434 138.67 13.7029 138.507 13.6561C137.078 13.141 136.048 11.947 135.838 10.5189L135.463 8.08407C135.44 7.87337 135.51 7.66266 135.674 7.49878C135.674 7.49878 135.697 7.49878 135.697 7.47536C135.791 7.40513 135.908 7.3583 136.025 7.33489L138.858 6.89007C139.232 6.84324 139.56 7.07736 139.63 7.40513C139.677 7.75631 139.42 8.08407 139.068 8.1309L137.336 8.41184C137.219 8.43525 137.125 8.48208 137.055 8.57572C136.985 8.66937 136.961 8.78643 136.961 8.88008L137.219 10.5189C137.242 10.6828 137.383 10.8233 137.547 10.8467L140.122 11.4554C140.192 11.4788 140.239 11.4788 140.309 11.4554C140.473 11.432 140.637 11.3149 140.684 11.151C140.754 10.9169 140.614 10.7062 140.356 10.636L138.062 10.0975L137.921 9.13761L139.209 8.9269C139.958 8.80984 140.497 8.22455 140.543 7.52219C140.731 7.56901 140.941 7.56901 141.152 7.5456C141.597 7.47536 141.948 7.24124 142.182 6.93689C142.51 7.17101 142.931 7.26466 143.353 7.19442C143.587 7.1476 143.821 7.07736 144.008 6.93689L144.359 9.23126C144.687 11.2915 143.165 13.2815 140.965 13.6093C140.731 13.6561 140.543 13.8668 140.59 14.1009C140.637 14.3351 140.848 14.4755 141.105 14.4521C141.878 14.3351 142.58 14.0307 143.189 13.6327L145.343 27.3521C145.39 27.5862 145.6 27.7267 145.858 27.7033C146.092 27.6564 146.279 27.4457 146.232 27.2116L143.985 12.9538C144.968 11.947 145.483 10.5423 145.249 9.09079L144.687 5.55559ZM135.744 6.53889C135.65 5.95359 135.51 4.9937 135.393 4.26793C135.346 3.91675 135.58 3.58898 135.955 3.54216C136.329 3.49534 136.657 3.72946 136.727 4.05722L137.078 6.32818L135.884 6.51547C135.838 6.51547 135.791 6.53889 135.744 6.53889ZM138.741 6.07065L137.968 6.18771L137.617 3.91675C137.57 3.56557 137.828 3.23781 138.179 3.19098C138.553 3.14416 138.881 3.37828 138.951 3.70604L139.326 6.07065C139.139 6.04724 138.928 6.04724 138.741 6.07065ZM141.012 6.77301C140.637 6.81983 140.309 6.58571 140.239 6.25794L139.841 3.58898C139.794 3.23781 140.052 2.91004 140.403 2.86322C140.777 2.81639 141.105 3.05051 141.175 3.37828L141.597 6.04724C141.644 6.39842 141.386 6.72618 141.012 6.77301ZM143.236 6.42183C142.861 6.46865 142.533 6.23453 142.463 5.90677L142.206 4.22111C142.159 3.86993 142.416 3.54216 142.767 3.49534C143.142 3.44851 143.47 3.68263 143.54 4.0104L143.798 5.69606C143.868 6.04724 143.61 6.375 143.236 6.42183Z" fill="#FFDFFF"/>
<path d="M132.894 12.8834C132.707 12.9069 132.519 12.9771 132.356 13.0707C132.098 12.5557 131.513 12.2513 130.904 12.345C130.553 12.3918 130.249 12.5791 130.038 12.8366C129.757 12.6727 129.406 12.5791 129.055 12.6493C128.703 12.6961 128.399 12.8834 128.188 13.141C127.884 12.9537 127.556 12.8834 127.182 12.9303C126.432 13.0473 125.917 13.7263 126.011 14.4286C126.222 15.7163 126.292 16.325 126.339 16.5825C126.105 16.8635 125.988 17.2381 126.058 17.6127L126.386 19.6495C126.596 21.0308 127.556 22.2014 128.891 22.7867L129.968 29.6464C130.014 29.8805 130.225 30.021 130.483 29.9976C130.717 29.9507 130.904 29.74 130.857 29.5059L129.757 22.4355C129.733 22.295 129.64 22.1546 129.476 22.1077C128.305 21.6863 127.463 20.703 127.275 19.5324L126.947 17.4722C126.924 17.3083 126.971 17.1678 127.111 17.0508C127.111 17.0508 127.111 17.0508 127.135 17.0508C127.205 17.0039 127.299 16.9571 127.369 16.9337L129.757 16.5591C130.038 16.5123 130.272 16.6996 130.319 16.9337C130.366 17.1912 130.178 17.4254 129.897 17.4722L128.446 17.7063C128.329 17.7297 128.235 17.7765 128.165 17.8702C128.095 17.9638 128.071 18.0809 128.071 18.1745L128.282 19.5558C128.305 19.7197 128.446 19.8602 128.61 19.8836L130.764 20.3753C130.834 20.3987 130.881 20.3987 130.951 20.3753C131.115 20.3518 131.279 20.2348 131.325 20.0709C131.396 19.8368 131.255 19.6261 130.998 19.5558L129.125 19.111L129.008 18.4087L130.014 18.2448C130.647 18.1511 131.115 17.6595 131.185 17.0976C131.325 17.121 131.489 17.121 131.653 17.0976C132.004 17.0508 132.309 16.8635 132.519 16.6059C132.8 16.7698 133.152 16.8635 133.503 16.7932C133.667 16.7698 133.831 16.6996 133.971 16.6294L134.252 18.4321C134.51 20.1411 133.269 21.7331 131.466 22.0375C131.232 22.0843 131.045 22.295 131.091 22.5292C131.138 22.7633 131.349 22.9037 131.606 22.8803C132.239 22.7867 132.8 22.5526 133.292 22.2482L134.346 28.8972C134.392 29.1313 134.603 29.2718 134.861 29.2484C135.095 29.2016 135.282 28.9908 135.235 28.7567L134.112 21.5927C134.931 20.7264 135.352 19.5324 135.165 18.315L134.463 13.8902C134.346 13.2346 133.643 12.7664 132.894 12.8834ZM127.182 16.1143C127.111 15.6226 126.994 14.85 126.901 14.2882C126.854 14.0306 127.041 13.7965 127.322 13.7497C127.603 13.7029 127.837 13.8902 127.884 14.1243L128.165 15.9504L127.228 16.0909C127.228 16.1143 127.205 16.1143 127.182 16.1143ZM129.616 15.7397L129.055 15.8333L128.774 14.0072C128.727 13.7497 128.914 13.5156 129.195 13.4687C129.476 13.4219 129.71 13.6092 129.757 13.8433L130.061 15.7163C129.897 15.7163 129.757 15.7163 129.616 15.7397ZM131.536 16.325C131.255 16.3718 131.021 16.1845 130.974 15.9504L130.623 13.7029C130.576 13.4453 130.764 13.2112 131.045 13.1644C131.325 13.1176 131.56 13.3049 131.606 13.539L131.958 15.7865C131.981 16.0441 131.794 16.3016 131.536 16.325ZM133.386 16.0441C133.105 16.0909 132.871 15.9036 132.824 15.6695L132.59 14.2413C132.566 13.9838 132.754 13.7497 133.035 13.7029C133.316 13.656 133.55 13.8433 133.596 14.0775L133.831 15.5056C133.854 15.7631 133.667 15.9972 133.386 16.0441Z" fill="#954EDE"/>
<path d="M143.593 5.55559L143.336 3.86993C143.219 3.07392 142.423 2.51204 141.557 2.65251C141.299 2.69933 141.065 2.79298 140.878 2.93345C140.62 2.30133 139.918 1.90333 139.192 2.02039C138.747 2.09062 138.396 2.32474 138.162 2.6291C137.834 2.39498 137.413 2.30133 136.991 2.37156C136.546 2.4418 136.195 2.67592 135.961 2.98027C135.633 2.74616 135.212 2.65251 134.79 2.72274C133.948 2.86322 133.339 3.6124 133.479 4.43181C133.737 6.04724 133.831 6.74959 133.877 7.05395C133.596 7.38172 133.456 7.80313 133.526 8.22455L133.854 10.6594C134.112 12.2982 135.235 13.7029 136.851 14.3585L139.028 28.2417C139.075 28.4759 139.286 28.6163 139.543 28.5929C139.777 28.5461 139.965 28.3354 139.918 28.1013L137.694 13.9839C137.67 13.8434 137.577 13.7029 137.413 13.6561C135.985 13.141 134.954 11.947 134.744 10.5189L134.369 8.08407C134.346 7.87337 134.416 7.66266 134.58 7.49878C134.58 7.49878 134.603 7.49878 134.603 7.47536C134.697 7.40513 134.814 7.3583 134.931 7.33489L137.764 6.89007C138.138 6.84324 138.466 7.07736 138.536 7.40513C138.583 7.75631 138.326 8.08407 137.975 8.1309L136.242 8.41184C136.125 8.43525 136.031 8.48208 135.961 8.57572C135.891 8.66937 135.867 8.78643 135.867 8.88008L136.125 10.5189C136.148 10.6828 136.289 10.8233 136.453 10.8467L139.028 11.4554C139.098 11.4788 139.145 11.4788 139.215 11.4554C139.379 11.432 139.543 11.3149 139.59 11.151C139.66 10.9169 139.52 10.7062 139.262 10.636L136.968 10.0975L136.827 9.13761L138.115 8.9269C138.864 8.80984 139.403 8.22455 139.449 7.52219C139.637 7.56901 139.847 7.56901 140.058 7.5456C140.503 7.47536 140.854 7.24124 141.088 6.93689C141.416 7.17101 141.837 7.26466 142.259 7.19442C142.493 7.1476 142.727 7.07736 142.914 6.93689L143.266 9.23126C143.593 11.2915 142.072 13.2815 139.871 13.6093C139.637 13.6561 139.449 13.8668 139.496 14.1009C139.543 14.3351 139.754 14.4755 140.011 14.4521C140.784 14.3351 141.486 14.0307 142.095 13.6327L144.249 27.3521C144.296 27.5862 144.506 27.7267 144.764 27.7033C144.998 27.6564 145.185 27.4457 145.139 27.2116L142.891 12.9538C143.874 11.947 144.389 10.5423 144.155 9.09079L143.593 5.55559ZM134.65 6.53889C134.556 5.95359 134.416 4.9937 134.299 4.26793C134.252 3.91675 134.486 3.58898 134.861 3.54216C135.235 3.49534 135.563 3.72946 135.633 4.05722L135.985 6.32818L134.79 6.51547C134.744 6.51547 134.697 6.53889 134.65 6.53889ZM137.647 6.07065L136.874 6.18771L136.523 3.91675C136.476 3.56557 136.734 3.23781 137.085 3.19098C137.459 3.14416 137.787 3.37828 137.857 3.70604L138.232 6.07065C138.045 6.04724 137.834 6.04724 137.647 6.07065ZM139.918 6.77301C139.543 6.81983 139.215 6.58571 139.145 6.25794L138.747 3.58898C138.7 3.23781 138.958 2.91004 139.309 2.86322C139.684 2.81639 140.011 3.05051 140.082 3.37828L140.503 6.04724C140.55 6.39842 140.292 6.72618 139.918 6.77301ZM142.142 6.42183C141.767 6.46865 141.439 6.23453 141.369 5.90677L141.112 4.22111C141.065 3.86993 141.322 3.54216 141.674 3.49534C142.048 3.44851 142.376 3.68263 142.446 4.0104L142.704 5.69606C142.774 6.04724 142.516 6.375 142.142 6.42183Z" fill="#954EDE"/>
<g filter="url(#filter0_f)">
<ellipse cx="118" cy="94.8613" rx="68" ry="3" fill="#C4C4C4" fill-opacity="0.5"/>
</g>
<path d="M156.71 89.2393C155.909 90.1768 154.742 90.9043 153.209 91.4219C151.676 91.9297 149.977 92.1689 148.111 92.1396C146.324 92.1201 144.815 91.6709 143.585 90.792C142.354 89.9131 141.476 88.6875 140.948 87.1152C140.421 85.543 140.279 83.7705 140.523 81.7979L140.641 80.9189C141.09 77.6084 142.252 74.9863 144.127 73.0527C146.012 71.1191 148.316 70.1768 151.041 70.2256C153.424 70.2646 155.255 70.9043 156.534 72.1445C157.813 73.3848 158.526 75.1768 158.673 77.5205L153.868 77.5059C153.8 76.3633 153.517 75.5283 153.019 75.001C152.53 74.4736 151.832 74.1953 150.924 74.166C149.576 74.1172 148.463 74.6494 147.584 75.7627C146.705 76.8662 146.104 78.4482 145.782 80.5088C145.509 82.2666 145.411 83.6338 145.489 84.6104C145.636 86.9639 146.695 88.1553 148.668 88.1846C149.859 88.2041 150.904 87.916 151.803 87.3203L152.462 83.9951H148.99L149.605 80.4648H158.087L156.71 89.2393ZM164.356 91.8613H159.347L163.053 70.5332H168.048L164.356 91.8613ZM185.626 89.2393C184.825 90.1768 183.658 90.9043 182.125 91.4219C180.592 91.9297 178.893 92.1689 177.027 92.1396C175.24 92.1201 173.731 91.6709 172.501 90.792C171.271 89.9131 170.392 88.6875 169.864 87.1152C169.337 85.543 169.195 83.7705 169.439 81.7979L169.557 80.9189C170.006 77.6084 171.168 74.9863 173.043 73.0527C174.928 71.1191 177.232 70.1768 179.957 70.2256C182.34 70.2646 184.171 70.9043 185.45 72.1445C186.729 73.3848 187.442 75.1768 187.589 77.5205L182.784 77.5059C182.716 76.3633 182.433 75.5283 181.935 75.001C181.446 74.4736 180.748 74.1953 179.84 74.166C178.492 74.1172 177.379 74.6494 176.5 75.7627C175.621 76.8662 175.021 78.4482 174.698 80.5088C174.425 82.2666 174.327 83.6338 174.405 84.6104C174.552 86.9639 175.611 88.1553 177.584 88.1846C178.775 88.2041 179.82 87.916 180.719 87.3203L181.378 83.9951H177.906L178.521 80.4648H187.003L185.626 89.2393ZM200.45 87.877H193.639L191.749 91.8613H186.227L197.521 70.5332H202.237L206.178 91.8613H200.963L200.45 87.877ZM195.514 83.9072H199.938L199 76.5537L195.514 83.9072ZM219.625 86.0898C219.84 84.9863 219.244 84.1318 217.838 83.5264L215.436 82.5303C212.066 81.0166 210.465 78.9561 210.631 76.3486C210.699 75.1572 211.109 74.0977 211.861 73.1699C212.613 72.2324 213.653 71.5049 214.981 70.9873C216.31 70.4697 217.76 70.2207 219.332 70.2402C221.441 70.2793 223.136 70.8945 224.415 72.0859C225.704 73.2773 226.339 74.874 226.319 76.876H221.339C221.368 76.0557 221.192 75.4014 220.812 74.9131C220.44 74.415 219.825 74.1562 218.966 74.1367C218.126 74.1172 217.384 74.3125 216.739 74.7227C216.095 75.1328 215.714 75.6846 215.597 76.3779C215.411 77.3545 216.134 78.1553 217.765 78.7803C219.405 79.4053 220.597 79.9424 221.339 80.3916C223.673 81.7881 224.767 83.6729 224.62 86.0459C224.542 87.2764 224.146 88.3555 223.434 89.2832C222.721 90.2109 221.729 90.9287 220.46 91.4365C219.2 91.9443 217.784 92.1885 216.212 92.1689C215.06 92.1494 213.99 91.9688 213.004 91.627C212.018 91.2852 211.173 90.7871 210.47 90.1328C209.044 88.8145 208.36 87.0811 208.419 84.9326L213.443 84.9473C213.385 86.041 213.595 86.8711 214.073 87.4375C214.552 87.9941 215.357 88.2725 216.49 88.2725C217.33 88.2725 218.028 88.082 218.585 87.7012C219.151 87.3105 219.498 86.7734 219.625 86.0898Z" fill="#BBBBBB"/>
<path d="M151.504 35.585L119.951 91H104.131L135.552 38.4414H106.24L108.086 27.0156H152.866L151.504 35.585Z" fill="#EF3829"/>
<path d="M151.504 35.585L154.111 37.0694L154.381 36.595L154.467 36.056L151.504 35.585ZM119.951 91V94H121.695L122.558 92.4844L119.951 91ZM104.131 91L101.556 89.4606L98.8422 94H104.131V91ZM135.552 38.4414L138.127 39.9808L140.84 35.4414H135.552V38.4414ZM106.24 38.4414L103.279 37.963L102.717 41.4414H106.24V38.4414ZM108.086 27.0156V24.0156H105.532L105.124 26.5372L108.086 27.0156ZM152.866 27.0156L155.829 27.4866L156.381 24.0156H152.866V27.0156ZM148.897 34.1006L117.344 89.5156L122.558 92.4844L154.111 37.0694L148.897 34.1006ZM119.951 88H104.131V94H119.951V88ZM106.706 92.5394L138.127 39.9808L132.977 36.902L101.556 89.4606L106.706 92.5394ZM135.552 35.4414H106.24V41.4414H135.552V35.4414ZM109.202 38.9198L111.048 27.494L105.124 26.5372L103.279 37.963L109.202 38.9198ZM108.086 30.0156H152.866V24.0156H108.086V30.0156ZM149.903 26.5446L148.541 35.114L154.467 36.056L155.829 27.4866L149.903 26.5446Z" fill="#EF3829"/>
<g clip-path="url(#clip2)">
<path d="M93.7257 11.2613C93.5388 11.3921 93.3707 11.5603 93.2399 11.7471C93.1464 11.8779 91.4834 14.6435 91.4834 14.6435C90.2127 16.7551 88.5496 18.5489 86.5689 19.9878L85.5972 20.6979C83.5791 22.1741 83.1119 24.9957 84.5508 26.9951C85.2608 27.9668 86.3073 28.6021 87.4845 28.8077C88.1385 28.9198 88.8112 28.8638 89.4279 28.6956L90.7359 30.5081C90.8107 30.6016 90.9041 30.6576 91.0162 30.6763C91.1096 30.695 91.2218 30.6763 91.3152 30.6203L93.1651 33.1616C93.5015 33.6288 94.006 33.9277 94.5479 34.0025C95.0898 34.0959 95.6504 33.9651 96.1176 33.6288C97.0519 32.9374 97.2761 31.6106 96.5847 30.6763L94.7348 28.1163L95.0711 27.8734C95.1646 27.7986 95.2206 27.7052 95.2393 27.5931C95.258 27.481 95.2206 27.3689 95.1646 27.2754L94.1181 25.8553C95.4822 25.1452 96.9211 24.6033 98.4346 24.2482C98.4346 24.2482 101.593 23.5195 101.836 23.4261C102.097 23.3326 102.34 23.1458 102.34 23.1458C104.171 21.9125 103.648 18.2126 101.219 14.8864C98.8271 11.5229 95.5196 9.95326 93.7257 11.2613ZM90.2501 28.3592C90.4556 28.2471 90.6425 28.135 90.8293 28.0042L91.8571 27.2567C92.0066 27.1446 92.1748 27.0325 92.3242 26.9204L93.2212 28.1537L91.1844 29.6299L90.2501 28.3592ZM93.8565 32.6384L92.0066 30.097L92.9783 29.387L94.8282 31.9283C95.0337 32.2086 95.1085 32.5263 95.0524 32.8626C95.0151 33.0308 94.8469 33.1616 94.6787 33.1242C94.361 33.0869 94.0621 32.9187 93.8565 32.6384ZM95.8933 31.1435C96.211 31.5733 96.211 32.1525 95.912 32.5823C95.8933 32.1712 95.7625 31.7601 95.5009 31.4238L93.651 28.8824L94.0247 28.6021L95.8933 31.1435ZM94.2302 27.4249L93.9126 27.6678L93.0343 26.4719C93.1464 26.3972 93.2586 26.3411 93.3707 26.2664L94.2302 27.4249ZM98.2665 23.3887C95.7625 23.9866 93.4454 25.0518 91.3526 26.5653L90.3248 27.3128C89.54 27.8921 88.587 28.1163 87.6153 27.9668C86.6623 27.8173 85.8027 27.2941 85.2421 26.5093C84.0836 24.8836 84.4573 22.5852 86.1017 21.3893L87.0734 20.6792C89.1476 19.1656 90.8854 17.2783 92.2121 15.0733L92.6793 14.3072C92.8101 15.8581 93.5575 17.7267 94.8469 19.5019C95.9681 21.0529 97.3508 22.2862 98.7149 22.9776C98.8457 23.0523 98.9952 23.1084 99.126 23.1644L98.2665 23.3887ZM95.9681 16.344C95.9681 16.3626 95.9681 16.3813 95.9681 16.4187C96.0615 16.9793 96.3231 17.5773 96.7342 18.1378C97.1827 18.7545 97.7059 19.1843 98.1917 19.4272L96.7716 20.4736C96.3418 20.0438 95.9307 19.5393 95.5383 19.0161C95.1459 18.4929 94.8095 17.9323 94.5292 17.3904L95.9681 16.344ZM99.1821 18.7358C98.9392 18.9227 98.117 18.5676 97.4443 17.652C97.1266 17.2035 96.9024 16.7177 96.8276 16.3066C96.7716 16.0076 96.8276 15.746 96.9397 15.6713C96.9958 15.6339 97.0892 15.6152 97.2014 15.6339C97.3135 15.6526 97.4443 15.6899 97.5751 15.7647C97.9488 15.9515 98.3599 16.3253 98.6776 16.7551C99.3503 17.6707 99.425 18.5489 99.1821 18.7358ZM101.873 22.4357C101.761 22.5104 101.705 22.5478 101.518 22.6225C101.331 22.6786 101.163 22.716 101.163 22.716C100.584 22.7907 99.8735 22.6412 99.0887 22.2488C98.5281 21.9685 97.9488 21.5761 97.4069 21.0903L99.6679 19.4459C100.415 18.904 100.285 17.5399 99.3503 16.2505C98.9392 15.6899 98.4533 15.2415 97.9488 14.9985C97.3508 14.6996 96.8089 14.6996 96.4165 14.9799L94.1555 16.6243C93.8752 15.9515 93.6697 15.2975 93.5762 14.6622C93.4454 13.8026 93.5015 13.0739 93.7631 12.5506C93.7631 12.5506 93.8378 12.3825 93.9313 12.2704C94.006 12.1769 94.1181 12.0461 94.2302 11.9714C94.604 11.6911 95.0898 11.6163 95.6504 11.7098C97.1266 11.934 99.0513 13.3355 100.546 15.391C102.62 18.2126 103.218 21.4453 101.873 22.4357Z" fill="#FFDFFF"/>
<path d="M108.133 18.3621L104.265 17.7454C104.041 17.7081 103.816 17.8763 103.779 18.1005C103.742 18.3434 103.91 18.549 104.134 18.5863L108.002 19.203C108.245 19.2404 108.451 19.0722 108.488 18.8479C108.525 18.6237 108.376 18.3995 108.133 18.3621Z" fill="#FFDFFF"/>
<path d="M102.789 15.7263C102.845 15.8945 102.975 16.0066 103.125 16.0253C103.181 16.044 103.256 16.0253 103.312 16.0066L107.909 14.6799C108.133 14.6238 108.264 14.3809 108.208 14.1567C108.133 13.9324 107.909 13.8016 107.684 13.8577L103.088 15.1844C102.845 15.2591 102.714 15.4834 102.789 15.7263Z" fill="#FFDFFF"/>
<path d="M101.537 13.8779C101.611 13.9526 101.705 14.0087 101.798 14.0274C101.91 14.046 102.041 14.0087 102.153 13.9339L105.928 10.6451C106.115 10.4957 106.133 10.2154 105.965 10.0472C105.816 9.86032 105.536 9.84164 105.367 10.0098L101.574 13.2799C101.406 13.4294 101.387 13.691 101.537 13.8779Z" fill="#FFDFFF"/>
<path d="M99.9483 12.2331C99.9856 12.2518 100.023 12.2518 100.06 12.2704C100.247 12.3078 100.434 12.1957 100.528 12.0275L102.396 7.82312C102.49 7.59888 102.396 7.35596 102.172 7.26253C101.948 7.1691 101.705 7.26253 101.611 7.48676L99.7427 11.6912C99.6493 11.878 99.7427 12.121 99.9483 12.2331Z" fill="#FFDFFF"/>
<path d="M93.0159 11.0548C92.829 11.1856 92.6608 11.3538 92.53 11.5406C92.4366 11.6714 90.7735 14.437 90.7735 14.437C89.5029 16.5485 87.8398 18.3424 85.859 19.7813L84.8873 20.4913C82.8692 21.9676 82.4021 24.7892 83.8409 26.7886C84.551 27.7603 85.5974 28.3956 86.7747 28.6012C87.4287 28.7133 88.1014 28.6572 88.718 28.4891L90.0261 30.3016C90.1008 30.3951 90.1942 30.4511 90.3064 30.4698C90.3998 30.4885 90.5119 30.4698 90.6053 30.4138L92.4553 32.9551C92.7916 33.4222 93.2962 33.7212 93.8381 33.796C94.38 33.8894 94.9406 33.7586 95.4077 33.4222C96.342 32.7308 96.5663 31.4041 95.8749 30.4698L94.0249 27.9098L94.3613 27.6669C94.4547 27.5921 94.5108 27.4987 94.5295 27.3866C94.5481 27.2745 94.5108 27.1623 94.4547 27.0689L93.4083 25.6488C94.7724 24.9387 96.2112 24.3968 97.7248 24.0417C97.7248 24.0417 100.883 23.313 101.126 23.2195C101.387 23.1261 101.63 22.9392 101.63 22.9392C103.461 21.706 102.938 18.0061 100.509 14.6799C98.1172 11.3351 94.8098 9.74675 93.0159 11.0548ZM89.5402 28.1527C89.7458 28.0406 89.9326 27.9285 90.1195 27.7977L91.1472 27.0502C91.2967 26.9381 91.4649 26.826 91.6144 26.7139L92.5113 27.9472L90.4745 29.4421L89.5402 28.1527ZM93.1467 32.4319L91.2967 29.8905L92.2684 29.1805L94.1184 31.7218C94.3239 32.0021 94.3987 32.3198 94.3426 32.6561C94.3052 32.8243 94.137 32.9551 93.9689 32.9177C93.6512 32.8803 93.3522 32.7122 93.1467 32.4319ZM95.1835 30.9557C95.5011 31.3854 95.5011 31.9647 95.2022 32.3945C95.1835 31.9834 95.0527 31.5723 94.7911 31.2359L92.9411 28.6946L93.3149 28.4143L95.1835 30.9557ZM93.5204 27.2184L93.2027 27.4613L92.3245 26.2654C92.4366 26.1907 92.5487 26.1346 92.6608 26.0599L93.5204 27.2184ZM97.5566 23.2009C95.0527 23.7988 92.7356 24.8639 90.6427 26.3775L89.615 27.125C88.8302 27.7042 87.8772 27.9285 86.9055 27.779C85.9525 27.6295 85.0929 27.1063 84.5323 26.3215C83.3551 24.6771 83.7475 22.3973 85.3919 21.2014L86.3636 20.4913C88.4377 18.9778 90.1756 17.0904 91.5023 14.8855L91.9694 14.1193C92.1002 15.6703 92.8477 17.5389 94.137 19.3141C95.2582 20.8651 96.641 22.0984 98.0051 22.7898C98.1359 22.8645 98.2854 22.9206 98.4162 22.9766L97.5566 23.2009ZM95.2582 16.1561C95.2582 16.1748 95.2582 16.1935 95.2582 16.2309C95.3517 16.7915 95.6133 17.3894 96.0244 17.95C96.4728 18.5667 96.996 18.9964 97.4819 19.2394L96.0617 20.2858C95.6319 19.856 95.2209 19.3515 94.8284 18.8283C94.436 18.3051 94.0997 17.7445 93.8194 17.2026L95.2582 16.1561ZM98.4536 18.5293C98.2107 18.7162 97.3885 18.3611 96.7158 17.4455C96.3981 16.997 96.1738 16.5112 96.0991 16.1001C96.043 15.8011 96.0991 15.5395 96.2112 15.4647C96.2673 15.4274 96.3607 15.4087 96.4728 15.4274C96.5849 15.4461 96.7158 15.4834 96.8466 15.5582C97.2203 15.745 97.6314 16.1188 97.949 16.5485C98.6404 17.4642 98.7152 18.3611 98.4536 18.5293ZM101.163 22.2292C101.051 22.3039 100.995 22.3413 100.808 22.416C100.621 22.4721 100.453 22.5095 100.453 22.5095C99.8737 22.5842 99.1637 22.4347 98.3788 22.0423C97.8182 21.762 97.239 21.3696 96.6971 20.8838L98.9581 19.2394C99.7056 18.6975 99.5747 17.3334 98.6404 16.044C98.2293 15.4834 97.7435 15.035 97.239 14.792C96.6597 14.4744 96.1178 14.4744 95.7067 14.7547L93.4457 16.3991C93.1654 15.7264 92.9598 15.0723 92.8664 14.437C92.7356 13.5774 92.7916 12.8487 93.0532 12.3255C93.0532 12.3255 93.128 12.1573 93.2214 12.0452C93.2962 11.9517 93.4083 11.8209 93.5204 11.7462C93.8941 11.4659 94.38 11.3911 94.9406 11.4846C96.4168 11.7088 98.3415 13.1103 99.8364 15.1658C101.911 18.0061 102.508 21.2388 101.163 22.2292Z" fill="#954EDE"/>
<path d="M107.423 18.1736L103.555 17.557C103.331 17.5196 103.107 17.6878 103.069 17.912C103.032 18.1549 103.2 18.3605 103.424 18.3979L107.292 19.0145C107.535 19.0519 107.741 18.8837 107.778 18.6595C107.815 18.4165 107.666 18.211 107.423 18.1736Z" fill="#954EDE"/>
<path d="M102.079 15.5212C102.135 15.6894 102.266 15.8015 102.415 15.8202C102.471 15.8389 102.546 15.8202 102.602 15.8015L107.199 14.4748C107.423 14.4187 107.554 14.1758 107.498 13.9516C107.423 13.7273 107.199 13.5965 106.975 13.6526L102.378 14.9793C102.135 15.0541 102.004 15.297 102.079 15.5212Z" fill="#954EDE"/>
<path d="M100.827 13.6894C100.902 13.7641 100.995 13.8202 101.088 13.8389C101.201 13.8576 101.331 13.8202 101.443 13.7455L105.218 10.4567C105.405 10.3072 105.424 10.0269 105.255 9.85871C105.106 9.67185 104.826 9.65316 104.658 9.82134L100.864 13.0727C100.677 13.2409 100.659 13.5025 100.827 13.6894Z" fill="#954EDE"/>
<path d="M99.2383 12.026C99.2757 12.0447 99.313 12.0447 99.3504 12.0634C99.5373 12.1008 99.7241 11.9887 99.8176 11.8205L101.686 7.61609C101.78 7.39185 101.686 7.14893 101.462 7.0555C101.238 6.96207 100.995 7.0555 100.901 7.27973L99.0328 11.4841C98.9206 11.671 99.0328 11.9326 99.2383 12.026Z" fill="#954EDE"/>
</g>
<path d="M111.442 13.8711C112.099 14.044 112.593 14.3782 113.111 14.9658C113.579 15.5074 113.832 16.1988 113.807 16.8901V16.9017V16.9132C113.807 16.9132 113.807 16.9247 113.819 16.9247C113.819 16.9247 113.819 16.9362 113.832 16.9362L113.845 16.9477C113.845 16.9477 113.857 16.9477 113.857 16.9593H113.87H113.883C113.921 16.9593 113.946 16.9362 113.946 16.9017C113.946 16.9017 113.946 16.9017 113.946 16.8901C113.921 16.2103 114.174 15.5074 114.642 14.9658C115.148 14.3666 115.653 14.044 116.311 13.8711C116.349 13.8596 116.362 13.8366 116.362 13.802C116.362 13.7674 116.336 13.7444 116.311 13.7444C115.641 13.5946 115.236 13.2374 114.806 12.8226C114.389 12.4193 114.098 11.8892 113.959 11.2324C113.959 11.2324 113.959 11.2324 113.959 11.2209C113.959 11.2094 113.959 11.2094 113.946 11.2094C113.946 11.2094 113.946 11.2094 113.946 11.1979L113.933 11.1863C113.933 11.1863 113.933 11.1863 113.921 11.1863C113.921 11.1863 113.908 11.1863 113.908 11.1748H113.895H113.883C113.883 11.1748 113.87 11.1748 113.87 11.1863C113.87 11.1863 113.87 11.1863 113.857 11.1863L113.845 11.1979C113.845 11.1979 113.845 11.1979 113.845 11.2094C113.845 11.2094 113.845 11.2209 113.832 11.2209C113.832 11.2209 113.832 11.2209 113.832 11.2324C113.693 11.8892 113.402 12.4308 112.985 12.8226C112.529 13.2374 112.112 13.5946 111.442 13.7444C111.416 13.7444 111.391 13.7674 111.391 13.802C111.391 13.8366 111.416 13.8596 111.442 13.8711Z" fill="#954EDE"/>
<g clip-path="url(#clip3)">
<path d="M170.631 61.5807C171.299 62.1345 171.69 62.7864 171.974 63.7452C172.224 64.6234 172.144 65.5592 171.743 66.3453L171.737 66.3586L171.731 66.372C171.731 66.372 171.724 66.3853 171.739 66.3921C171.739 66.3921 171.733 66.4054 171.747 66.4122L171.756 66.4324C171.756 66.4324 171.77 66.4392 171.764 66.4525L171.779 66.4593L171.793 66.4661C171.837 66.4865 171.879 66.4735 171.898 66.4335C171.898 66.4335 171.898 66.4335 171.904 66.4202C172.24 65.6202 172.911 64.9432 173.744 64.5686C174.651 64.1477 175.41 64.0467 176.264 64.2007C176.314 64.2077 176.341 64.1879 176.36 64.1479C176.378 64.1079 176.361 64.0677 176.332 64.054C175.637 63.5201 175.361 62.8891 175.087 62.1779C174.821 61.4869 174.77 60.7172 174.963 59.8827C174.963 59.8827 174.963 59.8827 174.969 59.8693C174.975 59.856 174.975 59.856 174.96 59.8492C174.96 59.8492 174.96 59.8492 174.966 59.8359L174.958 59.8157C174.958 59.8157 174.958 59.8157 174.943 59.8089C174.943 59.8089 174.929 59.8021 174.935 59.7888L174.92 59.782L174.906 59.7752C174.906 59.7752 174.891 59.7684 174.885 59.7817C174.885 59.7817 174.885 59.7817 174.87 59.7749L174.849 59.7814C174.849 59.7814 174.849 59.7814 174.843 59.7948C174.843 59.7948 174.837 59.8081 174.822 59.8013C174.822 59.8013 174.822 59.8013 174.816 59.8146C174.302 60.4995 173.674 60.9694 172.98 61.198C172.231 61.4328 171.556 61.6215 170.7 61.434C170.67 61.4204 170.629 61.4335 170.61 61.4735C170.591 61.5135 170.608 61.5537 170.631 61.5807Z" fill="#FFB8DC"/>
</g>
<path d="M160.123 53.018C160.374 53.2515 160.618 53.4339 160.857 53.5809C160.59 53.6668 160.31 53.7858 160.009 53.9526C158.253 54.9284 158.083 57.7826 158.076 57.9037C158.072 57.9899 158.092 58.0757 158.133 58.1512C158.535 58.8737 159.275 59.2548 160.097 59.3482C160.934 59.4433 161.855 59.2403 162.689 58.7766C162.989 58.6101 163.238 58.4344 163.451 58.253C163.451 58.5329 163.477 58.8366 163.543 59.1737C163.824 60.6118 165.442 61.7483 166.703 62.2331C166.784 62.2641 166.872 62.2718 166.957 62.2552C167.709 62.1082 168.329 61.5762 168.702 60.7574C169.051 59.9909 169.142 59.0527 168.959 58.1155C168.893 57.7752 168.801 57.4814 168.693 57.2201C168.937 57.2952 169.212 57.3549 169.531 57.3937C171.522 57.6363 173.364 55.4438 173.442 55.3504C173.498 55.2825 173.533 55.2 173.544 55.1126C173.637 54.3515 173.317 53.595 172.644 52.9824C172.015 52.4101 171.146 52.0314 170.198 51.9158C169.895 51.879 169.622 51.8722 169.371 51.8868C169.526 51.6694 169.674 51.4198 169.811 51.1253C170.658 49.3036 169.118 46.8943 169.052 46.7926C169.005 46.7201 168.939 46.6624 168.86 46.6259C168.165 46.3025 167.351 46.3686 166.568 46.8119C165.835 47.2268 165.21 47.9321 164.807 48.7979C164.675 49.0824 164.581 49.3481 164.516 49.5998C164.38 49.4166 164.215 49.2292 164.008 49.0364C162.537 47.6675 159.77 48.3875 159.653 48.4188C159.569 48.4411 159.494 48.4865 159.435 48.5497C158.364 49.6997 158.667 51.6624 160.123 53.018V53.018ZM162.243 57.9725C161.574 58.3439 160.849 58.508 160.201 58.4343C159.665 58.3734 159.245 58.154 159.005 57.8121C159.075 57.0385 159.431 55.326 160.456 54.7566C161.221 54.3319 161.785 54.2897 162.589 54.2603C163.242 54.4509 163.874 54.6674 164.634 55.3351C163.648 56.3528 163.533 57.2558 162.243 57.9725ZM165.046 53.6279C165.297 53.6557 165.53 53.6678 165.748 53.6672C165.799 53.9146 165.859 54.1406 165.927 54.3484C165.708 54.4733 165.512 54.6003 165.335 54.7286C165.149 54.5588 164.967 54.4116 164.791 54.2833C164.895 54.0535 164.978 53.8355 165.046 53.6279V53.6279ZM167.865 60.3762C167.641 60.8676 167.303 61.1986 166.903 61.3217C166.189 61.0161 164.671 60.1479 164.446 58.9973C164.269 58.0924 164.437 57.5043 164.631 56.8233L164.633 56.8152C165.016 56.2536 165.417 55.7189 166.287 55.2028C166.95 56.4535 167.773 56.843 168.056 58.2919C168.203 59.0425 168.135 59.7827 167.865 60.3762ZM170.087 52.8288C170.836 52.9201 171.543 53.2241 172.025 53.6627C172.428 54.0301 172.643 54.454 172.639 54.8696C172.276 55.2679 170.925 56.637 169.642 56.4808C168.765 56.374 168.34 56.0963 167.694 55.6613C167.278 55.1223 166.892 54.574 166.67 53.583C168.065 53.3241 168.63 52.6514 170.087 52.8288V52.8288ZM167.021 47.6122C167.491 47.3462 167.959 47.2772 168.355 47.4125C168.753 48.0794 169.471 49.6743 168.977 50.7374C168.603 51.5414 168.143 51.9212 167.613 52.3376C166.953 52.5902 166.318 52.823 165.257 52.725C165.456 51.3237 165.018 50.5245 165.641 49.1858C165.964 48.4924 166.454 47.9336 167.021 47.6122V47.6122ZM160.025 49.274C160.782 49.1014 162.522 48.9105 163.381 49.7097C164.042 50.3252 164.133 50.8138 164.387 51.5258C164.408 52.2057 164.398 52.8744 163.997 53.8038C162.729 53.1831 161.828 53.3478 160.75 52.3447C159.896 51.5499 159.328 50.1794 160.025 49.274Z" fill="#FFDFFF"/>
<g clip-path="url(#clip4)">
<path d="M159.381 52.8393C159.632 53.0728 159.876 53.2552 160.115 53.4022C159.848 53.4881 159.568 53.6071 159.267 53.7739C157.511 54.7497 157.341 57.6039 157.334 57.7249C157.33 57.8112 157.35 57.897 157.392 57.9725C157.793 58.695 158.533 59.0761 159.355 59.1695C160.192 59.2646 161.113 59.0616 161.947 58.5979C162.247 58.4314 162.496 58.2557 162.709 58.0743C162.709 58.3542 162.735 58.6578 162.801 58.995C163.082 60.4331 164.7 61.5696 165.961 62.0544C166.042 62.0854 166.13 62.0931 166.215 62.0765C166.967 61.9295 167.587 61.3975 167.96 60.5787C168.309 59.8122 168.4 58.874 168.217 57.9368C168.151 57.5965 168.059 57.3027 167.951 57.0414C168.195 57.1165 168.47 57.1762 168.789 57.215C170.78 57.4575 172.622 55.2651 172.7 55.1717C172.756 55.1038 172.791 55.0213 172.802 54.9338C172.895 54.1728 172.575 53.4163 171.902 52.8037C171.273 52.2314 170.404 51.8527 169.456 51.7371C169.153 51.7003 168.88 51.6935 168.629 51.7081C168.784 51.4907 168.932 51.241 169.069 50.9466C169.916 49.1248 168.376 46.7156 168.31 46.6139C168.263 46.5414 168.197 46.4837 168.119 46.4472C167.423 46.1238 166.609 46.1899 165.826 46.6332C165.093 47.0481 164.468 47.7534 164.065 48.6192C163.933 48.9037 163.839 49.1693 163.774 49.421C163.638 49.2379 163.473 49.0505 163.266 48.8577C161.795 47.4888 159.028 48.2088 158.911 48.2401C158.827 48.2624 158.752 48.3078 158.693 48.371C157.622 49.521 157.925 51.4837 159.381 52.8393V52.8393ZM161.501 57.7938C160.832 58.1652 160.107 58.3292 159.459 58.2556C158.923 58.1946 158.503 57.9753 158.263 57.6334C158.333 56.8598 158.689 55.1472 159.714 54.5779C160.479 54.1532 161.043 54.111 161.847 54.0816C162.5 54.2722 163.132 54.4887 163.892 55.1564C162.906 56.1741 162.791 57.0771 161.501 57.7938ZM164.304 53.4492C164.555 53.477 164.788 53.4891 165.006 53.4885C165.057 53.7359 165.117 53.9618 165.185 54.1697C164.966 54.2946 164.77 54.4216 164.593 54.5499C164.407 54.3801 164.225 54.2329 164.049 54.1046C164.153 53.8748 164.237 53.6568 164.304 53.4492V53.4492ZM167.123 60.1975C166.899 60.6889 166.561 61.0199 166.161 61.1429C165.447 60.8374 163.929 59.9692 163.704 58.8186C163.527 57.9137 163.695 57.3256 163.889 56.6446L163.891 56.6365C164.274 56.0749 164.675 55.5402 165.545 55.0241C166.208 56.2748 167.031 56.6643 167.314 58.1132C167.461 58.8637 167.393 59.604 167.123 60.1975ZM169.345 52.6501C170.094 52.7414 170.801 53.0454 171.283 53.484C171.687 53.8514 171.901 54.2753 171.898 54.6909C171.534 55.0891 170.183 56.4583 168.9 56.302C168.023 56.1953 167.598 55.9176 166.953 55.4825C166.536 54.9436 166.15 54.3953 165.929 53.4043C167.323 53.1454 167.888 52.4727 169.345 52.6501V52.6501ZM166.279 47.4335C166.749 47.1675 167.217 47.0984 167.613 47.2338C168.011 47.9007 168.729 49.4956 168.235 50.5587C167.861 51.3627 167.401 51.7424 166.871 52.1589C166.211 52.4115 165.576 52.6443 164.515 52.5463C164.714 51.145 164.276 50.3458 164.899 49.0071C165.222 48.3137 165.712 47.7548 166.279 47.4335V47.4335ZM159.283 49.0953C160.04 48.9227 161.78 48.7318 162.639 49.531C163.3 50.1465 163.391 50.6351 163.646 51.3471C163.666 52.027 163.656 52.6957 163.255 53.6251C161.987 53.0044 161.086 53.1691 160.008 52.166C159.154 51.3711 158.586 50.0007 159.283 49.0953Z" fill="#954EDE"/>
</g>
<g clip-path="url(#clip5)">
<path d="M71.7787 97.8004C72.7444 98.0542 73.4686 98.5448 74.2299 99.4075C74.917 100.203 75.2884 101.218 75.2512 102.233V102.25V102.267C75.2512 102.267 75.2512 102.283 75.2698 102.283C75.2698 102.283 75.2698 102.3 75.2884 102.3L75.3069 102.317C75.3069 102.317 75.3255 102.317 75.3255 102.334H75.3441H75.3626C75.4184 102.334 75.4555 102.3 75.4555 102.25C75.4555 102.25 75.4555 102.25 75.4555 102.233C75.4184 101.235 75.7897 100.203 76.4768 99.4075C77.2196 98.5278 77.9624 98.0542 78.928 97.8004C78.9837 97.7835 79.0022 97.7497 79.0022 97.6989C79.0022 97.6482 78.9651 97.6143 78.928 97.6143C77.9438 97.3944 77.3496 96.87 76.7182 96.261C76.1054 95.6688 75.6783 94.8907 75.4741 93.9264C75.4741 93.9264 75.4741 93.9264 75.4741 93.9095C75.4741 93.8925 75.4741 93.8925 75.4555 93.8925C75.4555 93.8925 75.4555 93.8925 75.4555 93.8756L75.4369 93.8587C75.4369 93.8587 75.4369 93.8587 75.4184 93.8587C75.4184 93.8587 75.3998 93.8587 75.3998 93.8418H75.3812H75.3626C75.3626 93.8418 75.3441 93.8418 75.3441 93.8587C75.3441 93.8587 75.3441 93.8587 75.3255 93.8587L75.3069 93.8756C75.3069 93.8756 75.3069 93.8756 75.3069 93.8925C75.3069 93.8925 75.3069 93.9095 75.2884 93.9095C75.2884 93.9095 75.2884 93.9095 75.2884 93.9264C75.0841 94.8907 74.657 95.6858 74.0442 96.261C73.3757 96.87 72.7629 97.3944 71.7787 97.6143C71.7416 97.6143 71.7045 97.6482 71.7045 97.6989C71.7045 97.7497 71.7416 97.7835 71.7787 97.8004Z" fill="#954EDE"/>
</g>
<path d="M82.4644 62.9243C83.9095 63.304 84.9933 64.0382 86.1327 65.3294C87.161 66.5193 87.7168 68.0384 87.6612 69.5574V69.5828V69.6081C87.6612 69.6081 87.6612 69.6334 87.689 69.6334C87.689 69.6334 87.689 69.6587 87.7168 69.6587L87.7446 69.684C87.7446 69.684 87.7723 69.684 87.7723 69.7093H87.8001H87.8279C87.9113 69.7093 87.9669 69.6587 87.9669 69.5828C87.9669 69.5828 87.9669 69.5828 87.9669 69.5574C87.9113 68.0637 88.4671 66.5193 89.4953 65.3294C90.6069 64.0129 91.7185 63.304 93.1636 62.9243C93.247 62.899 93.2748 62.8483 93.2748 62.7724C93.2748 62.6964 93.2192 62.6458 93.1636 62.6458C91.6907 62.3167 90.8015 61.5318 89.8566 60.6204C88.9395 59.7343 88.3004 58.5697 87.9947 57.1266C87.9947 57.1266 87.9947 57.1266 87.9947 57.1013C87.9947 57.076 87.9947 57.076 87.9669 57.076C87.9669 57.076 87.9669 57.076 87.9669 57.0506L87.9391 57.0253C87.9391 57.0253 87.9391 57.0253 87.9113 57.0253C87.9113 57.0253 87.8835 57.0253 87.8835 57H87.8557H87.8279C87.8279 57 87.8001 57 87.8001 57.0253C87.8001 57.0253 87.8001 57.0253 87.7723 57.0253L87.7446 57.0506C87.7446 57.0506 87.7446 57.0506 87.7446 57.076C87.7446 57.076 87.7446 57.1013 87.7168 57.1013C87.7168 57.1013 87.7168 57.1013 87.7168 57.1266C87.4111 58.5697 86.7719 59.7596 85.8548 60.6204C84.8544 61.5318 83.9373 62.3167 82.4644 62.6458C82.4089 62.6458 82.3533 62.6964 82.3533 62.7724C82.3533 62.8483 82.4089 62.899 82.4644 62.9243Z" fill="#FFB8DC"/>
<path d="M68.1671 82.6356C68.4734 82.7351 68.7536 82.7938 69.015 82.8246C68.8222 83.0033 68.6303 83.2159 68.4405 83.477C67.3309 85.0043 68.3168 87.5035 68.3593 87.6092C68.3896 87.6845 68.4405 87.7497 68.5062 87.7974C69.1344 88.2539 69.9161 88.2852 70.6536 88.039C71.4042 87.7883 72.108 87.2506 72.6354 86.5247C72.8247 86.2642 72.9671 86.0159 73.0771 85.7768C73.1875 86.0154 73.3304 86.2636 73.5201 86.5247C74.3293 87.6386 76.1577 87.9659 77.4248 87.8789C77.5058 87.8734 77.5836 87.8452 77.6493 87.7974C78.2322 87.3739 78.5494 86.6751 78.5426 85.8297C78.5362 85.0384 78.2422 84.2029 77.7149 83.477C77.5234 83.2135 77.3291 82.9994 77.1333 82.8196C77.3713 82.7867 77.629 82.7287 77.9157 82.6356C79.7083 82.0531 80.409 79.4553 80.4379 79.345C80.4589 79.2649 80.4565 79.1805 80.4309 79.1018C80.2083 78.4166 79.6362 77.8988 78.8199 77.6437C78.0572 77.4054 77.1671 77.4269 76.3134 77.7043C76.0411 77.7928 75.8057 77.8952 75.5973 78.0073C75.6433 77.7606 75.6703 77.4894 75.6703 77.1843C75.6703 75.2964 73.4037 73.854 73.3072 73.7935C73.2384 73.7504 73.1589 73.7275 73.0778 73.7275C72.3573 73.7275 71.6899 74.1064 71.1985 74.7944C70.7385 75.4383 70.4852 76.287 70.4852 77.1843C70.4852 77.479 70.5109 77.7424 70.5548 77.9828C70.3667 77.8805 70.1514 77.7864 69.8986 77.7043C68.103 77.1209 66.0309 78.8308 65.9435 78.9039C65.8813 78.956 65.8349 79.0246 65.8099 79.1018C65.3537 80.5056 66.3892 82.0579 68.1671 82.6356V82.6356ZM71.9362 86.0167C71.5138 86.5981 70.9611 87.0252 70.3799 87.2192C69.8987 87.3798 69.4545 87.3592 69.1142 87.1631C68.8672 86.4763 68.4922 84.8761 69.1397 83.9849C69.6226 83.3202 70.0869 83.0605 70.7603 82.7168C71.3917 82.6206 72.0165 82.5544 72.9282 82.8222C72.4917 84.0799 72.7513 84.895 71.9362 86.0167ZM72.6027 81.2045C72.8278 81.1286 73.0312 81.0466 73.2164 80.9598C73.3579 81.1503 73.4988 81.3189 73.6387 81.4693C73.5015 81.6625 73.3848 81.8484 73.2852 82.0277C73.0591 81.9569 72.8462 81.9034 72.6449 81.864C72.6424 81.6271 72.6275 81.4081 72.6027 81.2045V81.2045ZM77.6784 85.8367C77.6825 86.344 77.5256 86.7601 77.2339 87.0232C76.5046 87.0458 74.8667 86.908 74.2192 86.0168C73.71 85.3159 73.6197 84.7485 73.5151 84.0914L73.5139 84.0836C73.6176 83.4534 73.7476 82.8388 74.2841 82.0544C75.3442 82.8574 76.2004 82.8628 77.0157 83.985C77.4381 84.5663 77.6735 85.224 77.6784 85.8367ZM76.5804 78.5262C77.2553 78.3069 77.9776 78.2859 78.562 78.4686C79.0517 78.6216 79.4026 78.8976 79.5641 79.2532C79.4126 79.7364 78.8037 81.4384 77.6487 81.8138C76.8596 82.0701 76.3872 82.0021 75.6649 81.8872C75.0962 81.5932 74.5507 81.2789 73.9689 80.5224C75.0545 79.7493 75.2693 78.9522 76.5804 78.5262V78.5262ZM71.9016 75.2967C72.1965 74.8839 72.568 74.6395 72.9586 74.5981C73.562 75.0085 74.8061 76.0826 74.8061 77.1843C74.8061 78.0174 74.5651 78.523 74.2784 79.0879C73.8163 79.5646 73.3672 80.0148 72.4245 80.3517C72.0388 79.079 71.3493 78.5715 71.3493 77.1843C71.3494 76.4657 71.5455 75.7953 71.9016 75.2967V75.2967ZM66.5999 79.4848C67.1762 79.0379 68.5833 78.1856 69.6315 78.5262C70.4388 78.7885 70.7101 79.1687 71.2087 79.6745C71.4955 80.2457 71.7518 80.8195 71.7789 81.77C70.4529 81.7436 69.7498 82.2412 68.4342 81.8137C67.3916 81.475 66.3644 80.5326 66.5999 79.4848Z" fill="#FFDFFF"/>
<g clip-path="url(#clip6)">
<path d="M67.4647 82.7782C67.771 82.8777 68.0512 82.9364 68.3126 82.9671C68.1198 83.1459 67.9279 83.3585 67.7381 83.6196C66.6285 85.1469 67.6144 87.6461 67.6569 87.7518C67.6872 87.8271 67.7381 87.8923 67.8038 87.94C68.432 88.3965 69.2137 88.4278 69.9512 88.1815C70.7018 87.9309 71.4056 87.3932 71.933 86.6673C72.1223 86.4068 72.2647 86.1585 72.3747 85.9193C72.4851 86.158 72.628 86.4062 72.8177 86.6673C73.627 87.7812 75.4553 88.1085 76.7224 88.0215C76.8034 88.016 76.8812 87.9877 76.9469 87.94C77.5298 87.5165 77.847 86.8177 77.8402 85.9723C77.8338 85.181 77.5398 84.3454 77.0125 83.6196C76.821 83.356 76.6267 83.1419 76.431 82.9622C76.6689 82.9293 76.9266 82.8713 77.2134 82.7782C79.0059 82.1957 79.7066 79.5978 79.7355 79.4875C79.7565 79.4075 79.7542 79.3231 79.7285 79.2443C79.5059 78.5592 78.9338 78.0414 78.1175 77.7863C77.3548 77.548 76.4647 77.5695 75.611 77.8469C75.3387 77.9354 75.1033 78.0378 74.8949 78.1499C74.9409 77.9032 74.9679 77.6319 74.9679 77.3268C74.9679 75.439 72.7013 73.9966 72.6048 73.9361C72.536 73.893 72.4565 73.8701 72.3754 73.8701C71.6549 73.8701 70.9875 74.249 70.4961 74.9369C70.0361 75.5809 69.7828 76.4296 69.7828 77.3268C69.7828 77.6216 69.8085 77.885 69.8524 78.1254C69.6643 78.0231 69.449 77.929 69.1962 77.8468C67.4006 77.2635 65.3285 78.9734 65.2411 79.0465C65.1789 79.0985 65.1326 79.1671 65.1075 79.2443C64.6513 80.6482 65.6868 82.2005 67.4647 82.7782V82.7782ZM71.2338 86.1593C70.8114 86.7407 70.2587 87.1677 69.6775 87.3618C69.1963 87.5224 68.7521 87.5018 68.4118 87.3057C68.1648 86.6189 67.7898 85.0187 68.4373 84.1275C68.9203 83.4628 69.3845 83.2031 70.0579 82.8594C70.6893 82.7632 71.3141 82.697 72.2258 82.9648C71.7893 84.2225 72.0489 85.0375 71.2338 86.1593ZM71.9003 81.3471C72.1254 81.2712 72.3288 81.1891 72.514 81.1024C72.6555 81.2929 72.7964 81.4615 72.9363 81.6119C72.7991 81.8051 72.6824 81.991 72.5828 82.1702C72.3567 82.0995 72.1438 82.0459 71.9425 82.0066C71.94 81.7696 71.9251 81.5507 71.9003 81.3471V81.3471ZM76.976 85.9793C76.9801 86.4865 76.8232 86.9026 76.5315 87.1658C75.8022 87.1884 74.1643 87.0506 73.5168 86.1594C73.0076 85.4585 72.9173 84.891 72.8127 84.234L72.8115 84.2262C72.9152 83.596 73.0452 82.9814 73.5817 82.197C74.6418 83 75.498 83.0054 76.3133 84.1276C76.7358 84.7089 76.9711 85.3665 76.976 85.9793ZM75.8781 78.6688C76.5529 78.4495 77.2752 78.4285 77.8596 78.6112C78.3493 78.7642 78.7002 79.0402 78.8617 79.3958C78.7102 79.879 78.1013 81.581 76.9463 81.9563C76.1572 82.2127 75.6848 82.1447 74.9625 82.0298C74.3939 81.7358 73.8483 81.4214 73.2665 80.665C74.3521 79.8919 74.5669 79.0948 75.8781 78.6688V78.6688ZM71.1992 75.4393C71.4941 75.0264 71.8656 74.7821 72.2562 74.7406C72.8596 75.151 74.1037 76.2252 74.1037 77.3269C74.1037 78.16 73.8628 78.6656 73.576 79.2305C73.1139 79.7072 72.6648 80.1574 71.7221 80.4943C71.3364 79.2215 70.6469 78.7141 70.6469 77.3269C70.647 76.6082 70.8431 75.9379 71.1992 75.4393V75.4393ZM65.8976 79.6274C66.4738 79.1805 67.8809 78.3282 68.9291 78.6688C69.7364 78.9311 70.0077 79.3113 70.5063 79.8171C70.7931 80.3883 71.0494 80.962 71.0765 81.9125C69.7505 81.8861 69.0474 82.3838 67.7318 81.9563C66.6892 81.6175 65.662 80.6751 65.8976 79.6274Z" fill="#954EDE"/>
</g>
<g clip-path="url(#clip7)">
<path d="M102.989 86.3413C105.163 85.0425 105.899 82.235 104.628 80.0343C103.358 77.8336 100.558 77.0677 98.3467 78.3012C98.3089 75.769 96.2458 73.7275 93.7047 73.7275C91.1635 73.7275 89.1003 75.769 89.0627 78.3014C86.8509 77.0678 84.0513 77.8339 82.7808 80.0347C81.5102 82.2353 82.2465 85.0428 84.4208 86.3415C82.2466 87.6403 81.5102 90.4478 82.7808 92.6485C84.0514 94.8492 86.851 95.6152 89.0628 94.3816C89.1004 96.914 91.1636 98.9555 93.7048 98.9554C96.246 98.9554 98.3091 96.9138 98.3467 94.3816C100.558 95.6151 103.358 94.8491 104.629 92.6482C105.899 90.4475 105.163 87.64 102.989 86.3413ZM93.7047 90.5939C91.3561 90.5939 89.4521 88.69 89.4521 86.3414C89.4521 83.9927 91.3561 82.0888 93.7047 82.0888C96.0532 82.0888 97.9572 83.9927 97.9572 86.3414C97.9572 88.69 96.0533 90.5939 93.7047 90.5939Z" fill="#954EDE"/>
<circle cx="93.7717" cy="86.7213" r="5.47422" fill="white"/>
</g>
<g clip-path="url(#clip8)">
<path d="M163.756 29.4999C165.221 28.6247 165.717 26.7329 164.861 25.2499C164.005 23.7669 162.118 23.2508 160.628 24.082C160.603 22.3757 159.212 21 157.5 21C155.787 21 154.397 22.3757 154.372 24.0821C152.881 23.2509 150.995 23.7671 150.139 25.2501C149.283 26.7331 149.779 28.6249 151.244 29.5C149.779 30.3752 149.283 32.2671 150.139 33.7501C150.995 35.2331 152.882 35.7492 154.372 34.918C154.397 36.6244 155.788 38.0001 157.5 38C159.212 38 160.603 36.6243 160.628 34.918C162.118 35.7491 164.005 35.233 164.861 33.7499C165.717 32.2669 165.221 30.375 163.756 29.4999ZM157.5 32.3656C155.917 32.3656 154.634 31.0826 154.634 29.5C154.634 27.9173 155.917 26.6343 157.5 26.6343C159.082 26.6343 160.366 27.9173 160.366 29.5C160.366 31.0826 159.083 32.3656 157.5 32.3656Z" fill="#954EDE"/>
<circle cx="157.545" cy="29.7562" r="3.68886" fill="white"/>
</g>
</g>
<defs>
<filter id="filter0_f" x="40" y="81.8613" width="156" height="26" filterUnits="userSpaceOnUse" color-interpolation-filters="sRGB">
<feFlood flood-opacity="0" result="BackgroundImageFix"/>
<feBlend mode="normal" in="SourceGraphic" in2="BackgroundImageFix" result="shape"/>
<feGaussianBlur stdDeviation="5" result="effect1_foregroundBlur"/>
</filter>
<clipPath id="clip0">
<rect width="277" height="105.82" fill="white"/>
</clipPath>
<clipPath id="clip1">
<rect width="5.93764" height="6.92725" fill="white" transform="translate(151.157 11.8438)"/>
</clipPath>
<clipPath id="clip2">
<rect width="25.5067" height="27.0016" fill="white" transform="translate(83 7)"/>
</clipPath>
<clipPath id="clip3">
<rect width="6.32513" height="7.37931" fill="white" transform="translate(172.024 58.4346) rotate(24.9452)"/>
</clipPath>
<clipPath id="clip4">
<rect width="15.6977" height="15.6977" fill="white" transform="translate(161.065 43.001) rotate(24.9452)"/>
</clipPath>
<clipPath id="clip5">
<rect width="7.27921" height="8.49241" fill="white" transform="translate(71.7045 93.8418)"/>
</clipPath>
<clipPath id="clip6">
<rect width="14.7496" height="14.7496" fill="white" transform="translate(65 73.7285)"/>
</clipPath>
<clipPath id="clip7">
<rect width="25.2278" height="25.2278" fill="white" transform="translate(81.0908 73.7275)"/>
</clipPath>
<clipPath id="clip8">
<rect width="17" height="17" fill="white" transform="translate(149 21)"/>
</clipPath>
</defs>
</svg>
