<svg width="277" height="106" viewBox="0 0 277 106" fill="none" xmlns="http://www.w3.org/2000/svg">
<g clip-path="url(#clip0)">
<g filter="url(#filter0_f)">
<ellipse cx="118" cy="94.8613" rx="68" ry="3" fill="#C4C4C4" fill-opacity="0.5"/>
</g>
<g clip-path="url(#clip1)">
<path d="M93.4054 23.5629C93.2395 23.8323 93.141 24.1432 92.975 24.4126C92.6485 24.4902 92.3635 24.5004 92.0371 24.578C84.8237 25.4303 76.8142 21.2404 79.5987 16.2669C80.9573 13.7594 83.8332 13.7657 85.4446 14.015C85.7613 12.4451 86.7158 9.68869 89.4209 9.21817C95.0902 8.15804 96.4652 17.0868 93.4054 23.5629Z" fill="#EF3829"/>
<path d="M98.5103 22.0629C98.3342 22.0473 98.1165 22.099 97.873 22.042C97.7798 21.8916 97.6192 21.6999 97.526 21.5495C94.9521 17.7348 94.9646 11.983 98.6126 12.0932C100.416 12.1819 101.265 13.8197 101.607 14.7733C102.628 14.4731 104.395 14.1681 105.544 15.6194C107.803 18.5894 103.138 21.9403 98.5103 22.0629Z" fill="#B72C38"/>
</g>
<g clip-path="url(#clip2)">
<path d="M69.3687 59.482C69.3687 59.9219 68.9917 60.2989 68.5518 60.2989C68.1119 60.2989 67.7349 59.9533 67.7349 59.482C67.7349 59.0107 68.1119 58.665 68.5518 58.665C68.9917 58.6965 69.3687 59.0421 69.3687 59.482Z" fill="#ED7E60"/>
<path d="M103.146 69.2822L102.863 72.0787L101.983 79.9339L101.638 83.0131L100.381 94.4817L89.9492 95.0159L86.7443 95.2044L74.4588 95.8328L71.2853 85.244L70.4055 82.259L67.8918 73.8697L67.6719 73.147L103.146 69.2822Z" fill="#F3DEC9"/>
<path d="M101.984 79.9365L101.638 83.0158L89.1954 83.927L85.1107 84.2412L71.2855 85.2466L70.4058 82.2617L84.3566 81.2248L89.4782 80.8477L101.984 79.9365Z" fill="#EF3829"/>
<path opacity="0.1" d="M75.9982 94.4203L100.381 94.4831L89.949 95.0173L86.7441 95.2058L74.4586 95.8342L71.285 85.2454L70.4053 82.2604L67.8916 73.8711L102.863 72.0801L71.2222 76.8246L75.9982 94.4203Z" fill="#CB2C1C"/>
<path opacity="0.38" d="M89.478 80.8467L89.1953 83.9259L85.1105 84.2401L84.3564 81.2237L89.478 80.8467Z" fill="#CB2C1C"/>
<path d="M89.9493 95.017L86.7444 95.2055L84.0107 74.1222L87.8441 73.7451L89.9493 95.017Z" fill="#EF3829"/>
<path d="M84.859 64.9788V66.1728C84.859 66.1728 84.859 66.1728 84.8275 66.1728C84.8275 66.1728 84.7961 66.1728 84.7647 66.1728C84.7647 66.1728 84.7647 66.1728 84.7333 66.1728C84.5133 66.1099 83.9478 65.9528 83.1622 65.6072C82.8166 63.9105 81.8111 61.2083 78.7633 59.0402C77.915 58.4432 77.098 57.9719 76.3125 57.6263C75.6527 57.3121 75.0242 57.0921 74.4272 56.935C75.0557 56.5266 75.8098 56.2438 76.5639 56.0867C77.8835 55.8353 79.2975 55.9296 80.3344 56.4951C83.2879 58.0348 84.859 61.8995 84.859 64.9788Z" fill="#EF3829"/>
<path d="M84.8591 66.1723L83.3195 66.9264C83.3195 66.675 83.2881 66.298 83.1938 65.8267C80.9943 65.3553 79.0148 65.7324 76.2184 64.4127C74.8673 63.7843 73.1391 62.119 72.7935 60.7993C72.3222 59.0712 73.1077 57.7515 74.4274 56.9346C75.0244 57.0917 75.6528 57.3116 76.3126 57.5944C76.2184 58.9141 76.564 60.3909 77.8208 61.742C79.7689 63.8471 81.8113 64.9783 83.1938 65.5753C83.9793 65.9209 84.5449 66.078 84.7648 66.1409C84.7648 66.1409 84.7648 66.1409 84.7963 66.1409C84.7963 66.1723 84.8277 66.1723 84.8591 66.1723Z" fill="#D93D40"/>
<path d="M84.9849 64.1309V65.3249C84.9849 65.3249 84.9849 65.3249 85.0163 65.3249C85.0163 65.3249 85.0477 65.3249 85.0791 65.3249C85.0791 65.3249 85.0791 65.3249 85.1105 65.3249C85.3305 65.2621 85.8961 65.105 86.6816 64.7594C87.0272 63.0626 88.0327 60.3604 91.0805 58.1924C91.9289 57.5954 92.7458 57.1241 93.5313 56.7785C94.1912 56.4643 94.8196 56.2757 95.3852 56.1186C94.7567 55.7102 94.0026 55.4274 93.2485 55.2703C91.9289 55.0189 90.5149 55.1132 89.478 55.6787C86.5559 57.1869 84.9849 61.0517 84.9849 64.1309Z" fill="#EF3829"/>
<path d="M84.9849 65.3256L86.5245 66.0797C86.5245 65.8283 86.5559 65.4513 86.6502 64.98C88.8496 64.5087 90.8291 64.8857 93.6256 63.566C94.9767 62.9376 96.7048 61.2723 97.0505 59.9527C97.5218 58.2245 96.7362 56.9048 95.4166 56.0879C94.8196 56.245 94.2226 56.4649 93.5627 56.7791C93.657 58.0988 93.3114 59.5756 92.0545 60.9267C90.1065 63.0005 88.0641 64.163 86.6816 64.7286C85.8961 65.0742 85.3305 65.2313 85.1105 65.2942C85.1105 65.2942 85.1105 65.2942 85.0791 65.2942C85.0477 65.3256 85.0477 65.3256 84.9849 65.3256C84.9849 65.3256 85.0163 65.3256 84.9849 65.3256Z" fill="#D93D40"/>
<path d="M101.638 72.3638C101.638 72.3638 95.1338 73.0236 87.8756 73.7463C86.6188 73.872 85.3306 73.9976 84.0423 74.1233C77.2554 74.7832 70.7199 75.443 68.866 75.663C68.5204 75.6944 68.2062 75.6944 67.9234 75.6001C64.7813 74.9089 65.6297 68.6247 65.6297 68.6247C71.9139 66.8337 77.9152 65.7654 83.2254 65.1684C83.2568 65.1684 83.2882 65.1684 83.351 65.1684C84.5136 65.0427 85.6448 64.917 86.7131 64.8228C86.7445 64.8228 86.7759 64.8228 86.8073 64.8228C97.0191 63.9744 103.869 64.7599 103.869 64.7599C103.869 64.7599 103.869 64.7599 104.592 69.0646C105.063 72.2381 101.638 72.3638 101.638 72.3638Z" fill="#EF3829"/>
<path d="M87.8441 73.7144C86.5873 73.84 85.299 73.9971 84.0108 74.1228L83.1938 65.1679C83.2253 65.1679 83.2567 65.1679 83.3195 65.1679C84.4821 65.0422 85.6132 64.9165 86.6816 64.8223C86.713 64.8223 86.7444 64.8223 86.7758 64.8223L87.8441 73.7144Z" fill="#EF3829"/>
<path d="M90.4206 67.9641C90.2007 68.3098 89.9493 68.624 89.6979 68.9696C89.5722 69.1267 89.5408 69.1581 89.3523 69.0953C88.9752 68.9696 88.9752 68.9696 88.9752 68.9696C88.3782 68.6868 88.1269 68.4983 87.6556 68.0898C87.3099 67.7756 87.0271 67.3357 86.9957 66.8644C86.9643 66.3931 87.4042 65.8904 87.8755 65.859C88.3782 65.7961 88.6925 66.3617 88.9438 66.7702C88.9752 66.4874 88.9438 66.1732 89.1009 65.9218C89.2266 65.6704 89.4466 65.4819 89.7293 65.3876C90.3263 65.1363 90.7976 65.5133 90.9548 66.1103C91.1119 66.7387 90.7662 67.3986 90.4206 67.9641Z" fill="#F2DEC9"/>
<path d="M89.2266 67.022C89.2266 67.1791 89.1009 67.3048 88.9124 67.3048C88.7552 67.3048 88.5981 67.1791 88.5981 67.022C88.5981 66.8649 88.7238 66.7393 88.9124 66.7393C89.0695 66.7393 89.2266 66.8649 89.2266 67.022Z" fill="#CB2C1C"/>
<path d="M89.2268 66.5186C89.2268 66.7071 89.164 66.8328 89.1326 67.0213C89.1012 67.2412 88.7555 67.147 88.787 66.927C88.8812 66.3615 88.8498 65.7959 88.6299 65.2303C88.5356 65.0418 88.3785 64.8218 88.19 64.6647C87.9386 64.4134 87.5615 64.2877 87.1845 64.3191C86.9331 64.3505 86.7446 64.539 86.6189 64.7904C86.4932 64.7904 86.3361 64.8218 86.2104 64.8218C86.5247 63.9421 87.5615 63.7849 88.3785 64.3505C88.5042 64.4448 88.5984 64.539 88.6613 64.6333C88.9126 64.9475 89.0383 65.3246 89.1012 65.7016C89.164 65.9844 89.2268 66.2672 89.2268 66.5186Z" fill="#CB3E3D"/>
<path opacity="0.09" d="M67.8919 75.6001C64.7812 74.9089 65.6296 68.6247 65.6296 68.6247C71.9138 66.8337 77.9151 65.7654 83.2253 65.1684C83.2567 65.1684 83.2881 65.1684 83.3509 65.1684C84.5135 65.0427 85.6447 64.917 86.713 64.8228C86.7444 64.8228 86.7758 64.8228 86.8072 64.8228C97.019 63.9744 103.869 64.7599 103.869 64.7599C74.3018 65.734 66.6979 69.4731 66.6979 69.4731C65.4725 73.0864 67.8919 75.6001 67.8919 75.6001Z" fill="#F7CCBD"/>
<path d="M89.8235 57.4384C89.038 58.0354 88.2839 58.3496 88.1268 58.1611C87.9697 57.9726 88.441 57.3127 89.2265 56.7157C90.012 56.1187 90.7661 55.8045 90.9232 55.993C91.0803 56.1816 90.5776 56.8414 89.8235 57.4384Z" fill="#F8F8F9"/>
<path d="M87.5614 59.1672C87.3728 59.2929 87.1215 59.2929 86.9644 59.1043C86.8073 58.9158 86.8387 58.6644 87.0272 58.5388C87.2157 58.4131 87.4671 58.4131 87.6242 58.6016C87.7499 58.7901 87.7185 59.0415 87.5614 59.1672Z" fill="#F8F8F9"/>
<path d="M80.9631 57.6271C81.6544 58.2869 82.0943 58.9782 81.9058 59.1667C81.7172 59.3552 80.9946 58.9467 80.3033 58.2869C79.612 57.6271 79.1722 56.9358 79.3607 56.7473C79.5178 56.5588 80.2405 56.9672 80.9631 57.6271Z" fill="#F8F8F9"/>
<path d="M83.0054 59.6081C83.1625 59.7652 83.1625 60.0165 83.0054 60.1736C82.8482 60.3307 82.5969 60.3307 82.4084 60.1736C82.2513 60.0165 82.2513 59.7652 82.4084 59.6081C82.5969 59.451 82.8482 59.451 83.0054 59.6081Z" fill="#F8F8F9"/>
<path d="M97.9932 62.4028C97.9303 62.3714 97.8675 62.34 97.8361 62.3086C97.8361 62.2457 97.8361 62.1829 97.8046 62.1201C97.7418 60.6119 98.7158 59.0094 99.7213 59.6692C100.224 59.9834 100.193 60.5804 100.098 60.9261C100.444 61.0203 100.978 61.2403 101.041 61.8373C101.167 62.9684 99.3128 63.1255 97.9932 62.4028Z" fill="#E9626A"/>
<path d="M73.1391 64.4766C73.1706 64.5394 73.202 64.6022 73.202 64.6651C73.1706 64.7279 73.1391 64.7908 73.0763 64.8222C72.1965 66.0476 70.4369 66.7074 70.0599 65.5763C69.8714 65.0107 70.2798 64.5708 70.5312 64.3509C70.3113 64.0681 70.0285 63.5654 70.3427 63.0626C70.9711 62.0572 72.5421 63.094 73.1391 64.4766Z" fill="#D93D40"/>
<path d="M106.037 67.3364C106.005 67.3364 105.942 67.3364 105.911 67.3364C105.879 67.305 105.848 67.2735 105.848 67.2107C105.345 66.3309 105.408 65.1055 106.225 65.1683C106.634 65.1998 106.602 65.7968 106.665 66.0167C106.885 65.9539 107.451 65.7025 107.67 66.0167C108.079 66.6765 107.042 67.3678 106.037 67.3364Z" fill="#EF3829"/>
</g>
<path d="M156.71 89.2393C155.909 90.1768 154.742 90.9043 153.209 91.4219C151.676 91.9297 149.977 92.1689 148.111 92.1396C146.324 92.1201 144.815 91.6709 143.585 90.792C142.354 89.9131 141.476 88.6875 140.948 87.1152C140.421 85.543 140.279 83.7705 140.523 81.7979L140.641 80.9189C141.09 77.6084 142.252 74.9863 144.127 73.0527C146.012 71.1191 148.316 70.1768 151.041 70.2256C153.424 70.2646 155.255 70.9043 156.534 72.1445C157.813 73.3848 158.526 75.1768 158.673 77.5205L153.868 77.5059C153.8 76.3633 153.517 75.5283 153.019 75.001C152.53 74.4736 151.832 74.1953 150.924 74.166C149.576 74.1172 148.463 74.6494 147.584 75.7627C146.705 76.8662 146.104 78.4482 145.782 80.5088C145.509 82.2666 145.411 83.6338 145.489 84.6104C145.636 86.9639 146.695 88.1553 148.668 88.1846C149.859 88.2041 150.904 87.916 151.803 87.3203L152.462 83.9951H148.99L149.605 80.4648H158.087L156.71 89.2393ZM164.356 91.8613H159.347L163.053 70.5332H168.048L164.356 91.8613ZM185.626 89.2393C184.825 90.1768 183.658 90.9043 182.125 91.4219C180.592 91.9297 178.893 92.1689 177.027 92.1396C175.24 92.1201 173.731 91.6709 172.501 90.792C171.271 89.9131 170.392 88.6875 169.864 87.1152C169.337 85.543 169.195 83.7705 169.439 81.7979L169.557 80.9189C170.006 77.6084 171.168 74.9863 173.043 73.0527C174.928 71.1191 177.232 70.1768 179.957 70.2256C182.34 70.2646 184.171 70.9043 185.45 72.1445C186.729 73.3848 187.442 75.1768 187.589 77.5205L182.784 77.5059C182.716 76.3633 182.433 75.5283 181.935 75.001C181.446 74.4736 180.748 74.1953 179.84 74.166C178.492 74.1172 177.379 74.6494 176.5 75.7627C175.621 76.8662 175.021 78.4482 174.698 80.5088C174.425 82.2666 174.327 83.6338 174.405 84.6104C174.552 86.9639 175.611 88.1553 177.584 88.1846C178.775 88.2041 179.82 87.916 180.719 87.3203L181.378 83.9951H177.906L178.521 80.4648H187.003L185.626 89.2393ZM200.45 87.877H193.639L191.749 91.8613H186.227L197.521 70.5332H202.237L206.178 91.8613H200.963L200.45 87.877ZM195.514 83.9072H199.938L199 76.5537L195.514 83.9072ZM219.625 86.0898C219.84 84.9863 219.244 84.1318 217.838 83.5264L215.436 82.5303C212.066 81.0166 210.465 78.9561 210.631 76.3486C210.699 75.1572 211.109 74.0977 211.861 73.1699C212.613 72.2324 213.653 71.5049 214.981 70.9873C216.31 70.4697 217.76 70.2207 219.332 70.2402C221.441 70.2793 223.136 70.8945 224.415 72.0859C225.704 73.2773 226.339 74.874 226.319 76.876H221.339C221.368 76.0557 221.192 75.4014 220.812 74.9131C220.44 74.415 219.825 74.1562 218.966 74.1367C218.126 74.1172 217.384 74.3125 216.739 74.7227C216.095 75.1328 215.714 75.6846 215.597 76.3779C215.411 77.3545 216.134 78.1553 217.765 78.7803C219.405 79.4053 220.597 79.9424 221.339 80.3916C223.673 81.7881 224.767 83.6729 224.62 86.0459C224.542 87.2764 224.146 88.3555 223.434 89.2832C222.721 90.2109 221.729 90.9287 220.46 91.4365C219.2 91.9443 217.784 92.1885 216.212 92.1689C215.06 92.1494 213.99 91.9688 213.004 91.627C212.018 91.2852 211.173 90.7871 210.47 90.1328C209.044 88.8145 208.36 87.0811 208.419 84.9326L213.443 84.9473C213.385 86.041 213.595 86.8711 214.073 87.4375C214.552 87.9941 215.357 88.2725 216.49 88.2725C217.33 88.2725 218.028 88.082 218.585 87.7012C219.151 87.3105 219.498 86.7734 219.625 86.0898Z" fill="#BBBBBB"/>
<path d="M178.692 24.4747C177.857 25.0545 176.442 24.7994 175.488 24.772C173.06 24.6283 170.39 22.696 169.642 20.3652C169.449 19.776 169.207 16.17 170.344 16.3075C170.439 16.315 170.461 16.3407 170.505 16.3919C171.512 15.754 172.621 15.3392 173.832 15.1478C175.064 14.982 176.644 14.9631 177.857 15.3458C178.862 15.6403 178.959 16.8435 179.323 17.6853C179.865 18.9955 180.141 20.0455 180.007 21.4458C179.902 22.4658 179.603 23.8292 178.692 24.4747Z" fill="#D93D40"/>
<path d="M162.308 47.8606C160.183 49.63 157.527 50.5682 154.939 51.5359C153.904 51.9325 152.769 52.3691 151.635 52.4949C150.428 52.6388 149.093 52.8922 147.85 52.8898C147.492 52.8854 146.288 52.9818 146.084 52.5353C145.964 52.2388 146.203 51.9468 146.459 51.7279C146.98 50.8842 147.884 50.3337 148.628 49.6989C149.371 49.0641 150.079 48.2829 150.935 47.7288C151.364 47.4517 151.814 47.2002 152.29 46.9269C153.392 46.2964 154.556 45.7904 155.716 45.3319C157.443 44.6551 159.277 43.8432 161.142 43.536C163.103 43.2363 164.973 42.5708 167.013 42.4687C167.182 42.458 167.357 42.6632 167.225 42.8201C165.81 44.6933 164.102 46.3282 162.308 47.8606Z" fill="#C5C25E"/>
<path d="M171.276 33.5985C171.199 33.6641 171.1 33.7042 171.024 33.7698C169.75 34.4585 168.365 33.8232 167.247 33.1372C165.695 32.2017 164.403 30.6889 163.269 29.3081C162.463 28.3119 162.191 27.2144 162.613 26.0999C162.544 26.0705 162.504 25.9717 162.537 25.8547C162.754 24.9154 162.903 23.9466 163.168 23.011C163.425 22.1704 163.789 21.1948 164.277 20.468C164.82 19.65 165.315 18.8282 165.993 18.1164C166.799 17.2952 167.66 16.6935 168.553 15.9749C169.267 15.4095 170.338 13.9635 171.379 14.7151C171.988 15.1698 172.561 16.0997 172.991 16.7075C173.44 17.3886 173.687 18.1972 173.89 18.9545C174.144 19.9789 174.325 21.0215 174.458 22.0602C174.818 24.767 174.769 27.5131 173.755 30.0635C173.637 30.3412 173.546 30.597 173.428 30.8747C172.888 31.9561 172.283 32.9605 171.276 33.5985Z" fill="#EA4F4F"/>
<path d="M175.47 31.6584C174.294 32.6179 172.797 33.4085 171.275 33.5993C170.504 33.6819 169.718 33.6439 169.002 33.3243C167.704 32.7916 166.569 32.0324 165.906 30.7366C165.447 29.8874 165.269 28.7973 165.556 27.8873C165.443 27.8067 165.359 27.6566 165.513 27.5252L165.59 27.4595C165.667 27.3939 165.792 27.332 165.894 27.2444C165.894 27.2444 165.894 27.2444 165.92 27.2225C165.945 27.2006 165.945 27.2006 165.971 27.1787C166.993 26.3506 168.055 25.6213 169.139 24.9177C169.618 24.5968 170.12 24.3016 170.599 23.9807C171.782 23.2371 173.103 22.5522 174.435 22.0355C174.93 21.8353 175.445 21.6608 175.936 21.5082C177.235 21.1085 182.605 20.0255 181.297 22.9594C180.633 24.4135 179.851 25.8344 179.143 27.2372C178.438 28.5925 177.449 29.6145 176.452 30.7315C176.115 31.0636 175.803 31.3739 175.47 31.6584Z" fill="#EA4F4F"/>
<path d="M151.786 16.3279C151.949 16.9865 152.745 17.5036 153.242 17.8776C154.479 18.86 156.589 19.0981 157.922 18.2706C158.273 18.0592 159.838 16.4131 159.228 15.9585C159.206 15.9328 159.158 15.9291 159.111 15.9253C158.886 15.1423 158.51 14.4432 157.985 13.8278C157.46 13.2124 156.678 12.5052 155.919 12.1344C155.319 11.848 154.752 12.3771 154.228 12.6467C153.474 13.1133 152.917 13.4998 152.404 14.2484C152.001 14.8145 151.604 15.5962 151.786 16.3279Z" fill="#B72C38"/>
<path d="M151.73 24.3108C152.09 25.2001 153.022 25.5127 153.87 25.6752C154.999 25.9078 156.28 25.7458 157.395 25.5468C158.218 25.4204 158.779 24.9863 159.051 24.2665C159.098 24.2702 159.171 24.2521 159.201 24.1827C159.461 23.6054 159.788 23.1051 160.052 22.4803C160.262 21.9468 160.479 21.3183 160.549 20.726C160.624 20.0862 160.72 19.4721 160.699 18.8248C160.664 18.0568 160.479 17.3726 160.323 16.619C160.226 16.0374 160.272 14.8454 159.442 14.756C158.945 14.6929 158.283 14.9037 157.818 15.0344C157.306 15.1614 156.852 15.4604 156.471 15.7412C154.541 17.1673 152.731 18.8897 151.97 21.2688C151.628 22.2701 151.333 23.2751 151.73 24.3108Z" fill="#D33543"/>
<path d="M155.495 25.0845C154.631 25.4229 153.779 25.3079 152.921 24.9771C152.431 24.8189 152.026 24.5 151.676 24.0897L151.588 23.9872C151.15 23.4744 150.844 22.8046 150.634 22.1423C150.441 21.5532 150.321 20.9459 150.341 20.3975C150.346 19.4175 150.253 18.4775 150.474 17.4906C150.674 16.4781 150.873 15.4655 151.142 14.4824C151.146 14.4348 151.146 14.4348 151.146 14.4348C151.382 13.5687 151.952 13.6136 152.518 14.017C153.288 14.556 154.087 15.6473 154.364 16.0757C154.532 16.3759 154.725 16.6541 154.889 17.0019C155.18 17.5509 155.443 18.1694 155.661 18.7367C155.781 19.0331 155.875 19.3514 155.97 19.6697C156.308 20.8442 156.693 22.0224 156.91 23.2113C156.906 23.2589 156.928 23.2845 156.946 23.3577C156.965 23.4308 156.983 23.504 157.001 23.5772L157.019 23.6503C157.033 23.771 156.935 23.8111 156.839 23.8036C156.601 24.4065 156.062 24.8662 155.495 25.0845Z" fill="#D33543"/>
<path d="M169.705 17.4299C168.782 18.218 167.864 18.6477 167.645 18.3913C167.426 18.1349 167.994 17.2949 168.917 16.5069C169.84 15.7188 170.759 15.2891 170.978 15.5455C171.197 15.8019 170.628 16.6419 169.705 17.4299Z" fill="#F8F8F9"/>
<path d="M166.987 19.7511C166.782 19.9263 166.45 19.9 166.253 19.6693C166.056 19.4385 166.104 19.1314 166.309 18.9563C166.514 18.7812 166.847 18.8074 167.044 19.0382C167.241 19.2689 167.192 19.576 166.987 19.7511Z" fill="#F8F8F9"/>
<path d="M159.81 17.677C159.863 18.5181 159.737 19.2017 159.496 19.2305C159.28 19.2374 159.022 18.5713 158.968 17.7302C158.915 16.889 159.041 16.2054 159.282 16.1767C159.524 16.1479 159.756 16.8358 159.81 17.677Z" fill="#F8F8F9"/>
<path d="M159.995 20.1777C160.028 20.3716 159.87 20.5504 159.655 20.5573C159.439 20.5642 159.307 20.4104 159.275 20.2165C159.242 20.0226 159.4 19.8438 159.616 19.8369C159.831 19.83 159.988 19.9619 159.995 20.1777Z" fill="#F8F8F9"/>
<path d="M184.451 35.7381C183.599 35.6231 182.927 35.3548 182.967 35.1428C182.986 34.9052 183.71 34.8188 184.515 34.9301C185.366 35.0451 186.039 35.3133 185.998 35.5254C185.983 35.7155 185.281 35.8275 184.451 35.7381Z" fill="#F8F8F9"/>
<path d="M181.99 35.4003C181.8 35.3853 181.647 35.2058 181.688 34.9938C181.703 34.8037 181.882 34.6505 182.094 34.6911C182.284 34.7061 182.437 34.8856 182.397 35.0976C182.356 35.3096 182.18 35.4153 181.99 35.4003Z" fill="#F8F8F9"/>
<path d="M153.206 23.493L152.961 23.5694L151.636 23.991L151.589 23.9872L150.608 24.2925C150.55 24.1205 150.513 23.9742 150.43 23.8241C150.233 23.2825 150.231 22.7084 150.25 22.1599C150.258 22.0648 150.382 22.0029 150.426 22.0542C150.495 22.0836 150.565 22.113 150.634 22.1424C150.441 21.5532 150.322 20.946 150.341 20.3975C150.347 19.4175 150.254 18.4775 150.475 17.4906C150.674 16.4781 150.874 15.4656 151.143 14.4824C151.054 15.0015 150.498 18.712 151.853 21.545C152.177 22.288 152.603 22.9434 153.206 23.493Z" fill="#B72C38"/>
<path d="M175.47 31.6577C174.295 32.6171 172.798 33.4077 171.276 33.5986C171.199 33.6643 171.1 33.7043 171.023 33.77C169.749 34.4586 168.365 33.8233 167.247 33.1373C165.695 32.2018 164.403 30.6891 163.269 29.3083C162.463 28.312 162.19 27.2145 162.613 26.1C162.544 26.0706 162.504 25.9718 162.537 25.8548C162.754 24.9155 162.903 23.9467 163.168 23.0111C163.425 22.1706 163.789 21.1949 164.277 20.4682C164.277 20.4682 163.316 23.8598 165.228 25.9954C165.228 25.9954 167.659 24.5849 169.135 24.9645C169.417 25.0345 169.691 25.1996 169.862 25.4522C170.963 26.95 171.118 30.4535 171.118 30.4535C171.118 30.4535 172.207 30.5872 173.38 30.8711C174.108 31.048 174.875 31.3238 175.47 31.6577Z" fill="#DB4040"/>
<path d="M150.198 46.7628C150.121 46.8284 150 46.8428 149.935 46.7659C149.373 46.315 148.744 46.0981 148.262 45.534C147.916 45.0762 147.599 44.549 147.329 44.0256C146.597 42.7004 146.223 41.3796 146.076 39.9093C145.932 38.7023 146.325 37.6572 146.7 36.539C147.138 35.2344 147.353 33.7209 148.068 32.5338C148.149 32.4206 148.412 32.4175 148.449 32.5638C149.001 34.0422 149.701 35.4843 150.331 36.8971C150.819 37.9877 151.412 39.2541 151.75 40.4286C152.026 41.4786 151.943 42.8351 151.787 43.899C151.787 43.899 151.787 43.899 151.761 43.9209C151.698 44.418 151.478 44.7833 151.254 45.1961C151.254 45.1961 151.254 45.1961 151.276 45.2217C151.32 45.273 151.312 45.3681 151.283 45.4375C151.177 45.5726 151.092 45.7333 150.986 45.8684C150.982 45.9159 150.957 45.9378 150.953 45.9854C150.949 46.0329 150.945 46.0804 150.916 46.1498C150.89 46.1717 150.89 46.1717 150.865 46.1936C150.835 46.263 150.762 46.2812 150.689 46.2993C150.531 46.4782 150.374 46.6571 150.198 46.7628Z" fill="#C5C25E"/>
<path d="M185.224 42.9242C184.592 42.7547 184.081 41.9492 183.665 41.4621C182.688 40.2132 182.447 38.1138 183.272 36.7441C183.467 36.4007 185.123 34.8096 185.575 35.4431C185.597 35.4687 185.593 35.5163 185.589 35.5638C186.36 35.792 187.047 36.181 187.653 36.6831C188.281 37.2109 188.96 38.0058 189.331 38.7525C189.641 39.3747 189.073 39.9038 188.816 40.4336C188.42 41.2154 188.038 41.807 187.28 42.3211C186.724 42.7077 185.926 43.123 185.224 42.9242Z" fill="#B72C38"/>
<path d="M177.281 42.9681C176.4 42.6116 176.091 41.6786 175.943 40.8299C175.722 39.6886 175.871 38.409 176.056 37.2757C176.193 36.4496 176.596 35.8836 177.335 35.6071C177.339 35.5596 177.369 35.4901 177.394 35.4682C177.965 35.2024 178.47 34.8597 179.063 34.6195C179.583 34.3974 180.245 34.1866 180.801 34.1109C181.43 34.017 182.06 33.9232 182.699 33.9976C183.46 34.0576 184.14 34.2308 184.893 34.3858C185.481 34.504 186.659 34.4295 186.76 35.2744C186.817 35.7572 186.596 36.4332 186.489 36.8792C186.379 37.3726 186.078 37.8511 185.785 38.2345C184.366 40.1552 182.618 42.0021 180.287 42.7508C179.281 43.078 178.278 43.3576 177.281 42.9681Z" fill="#D33543"/>
<path d="M176.61 41.7675C176.32 40.9076 176.197 40.0371 176.528 39.1784C176.741 38.5974 177.188 38.0826 177.781 37.8424C177.763 37.7693 177.796 37.6523 177.938 37.6636L178.008 37.693C178.077 37.7223 178.172 37.7298 178.242 37.7592C178.242 37.7592 178.264 37.7849 178.289 37.763C179.514 38.003 180.705 38.3601 181.919 38.7427C183.132 39.1254 184.403 39.68 185.473 40.3623C186.226 40.8281 189.11 43.0644 187.131 43.6017C186.128 43.8814 185.086 44.0622 184.087 44.2943C183.114 44.5045 182.163 44.4295 181.209 44.402C179.469 44.3365 177.218 43.4654 176.61 41.7675Z" fill="#D33543"/>
<path d="M157.879 26.9944C157.125 27.461 156.309 27.8032 155.442 27.8783C155.153 27.9033 154.842 27.9027 154.535 27.8546C154.345 27.8396 154.181 27.8027 153.969 27.7621C152.891 27.4857 151.934 26.8841 151.292 25.9248C150.971 25.4452 150.778 24.8561 150.582 24.3145C150.524 24.1425 150.488 23.9961 150.404 23.8461C150.207 23.3045 150.205 22.7304 150.224 22.1819C150.232 22.0868 150.356 22.0249 150.4 22.0762C150.469 22.1056 150.539 22.135 150.608 22.1643C150.908 22.3075 151.233 22.4288 151.58 22.5758C151.649 22.6052 151.719 22.6346 151.741 22.6602C152.084 22.8547 152.376 23.0929 152.716 23.335C152.76 23.3862 152.829 23.4156 152.873 23.4669L152.938 23.5438C153.048 23.672 153.147 23.632 153.184 23.4675C153.261 23.4018 153.444 23.2011 153.521 23.1354C153.858 22.8033 154.22 22.4493 154.645 22.2197C155.073 21.9427 155.714 21.3954 156.204 21.8644C156.536 22.2015 156.758 22.7212 156.907 23.259C156.903 23.3065 156.925 23.3322 156.943 23.4053C157.019 23.6505 157.048 23.8919 157.128 24.0895C157.582 23.7905 158.007 23.561 158.581 23.5584C158.844 23.5553 159.177 23.5815 159.458 23.6516C159.528 23.681 159.619 23.736 159.71 23.791L159.736 23.7691C159.864 23.6597 160.039 23.8648 159.911 23.9742C159.885 23.9961 159.885 23.9961 159.86 24.018C159.834 24.0399 159.834 24.0399 159.83 24.0875C159.698 24.2444 159.607 24.5002 159.518 24.7085C159.353 24.9824 159.258 25.2858 159.067 25.5816C158.74 26.0819 158.41 26.6298 157.879 26.9944Z" fill="#C5C25E"/>
<path d="M150.893 46.7464C151.036 46.4468 151.157 46.1216 151.3 45.822C151.3 45.822 151.3 45.822 151.326 45.8001C151.477 45.4055 151.675 45.0146 151.804 44.5943C151.833 44.5249 151.862 44.4555 151.87 44.3604C152.59 42.5042 153.15 40.5635 153.611 38.6629C154.41 35.4977 155.391 31.2468 154.535 27.8553C154.44 27.537 154.368 27.2443 154.273 26.926C154.077 26.3844 154.911 26.1154 155.108 26.657C155.268 27.0522 155.38 27.4437 155.442 27.879C156.123 31.0654 155.388 34.9291 154.724 37.8898C154.318 39.6991 153.839 41.5266 153.196 43.3171C153.163 43.4341 153.104 43.5729 153.071 43.6899C152.946 44.0626 152.795 44.4573 152.648 44.8044C152.619 44.8738 152.615 44.9213 152.585 44.9908C152.582 45.0383 152.552 45.1077 152.527 45.1296C151.984 45.6368 151.417 46.166 150.893 46.7464Z" fill="#C5C25E"/>
<path d="M137.579 65.1605C138.713 61.3999 141.301 58.304 143.508 55.1781C145.261 52.662 146.831 50.0358 148.81 47.681C149.129 47.2757 149.496 46.8742 149.858 46.5202C150.485 45.8522 151.108 45.2318 151.778 44.6151C151.958 44.4619 152.09 44.3049 152.269 44.1517C152.577 43.889 152.863 43.6006 153.196 43.3161C154.482 42.174 155.808 41.1307 157.115 40.0143L161.653 36.1397C162.243 35.6362 162.8 34.9388 163.503 34.516C162.229 33.3872 161.439 31.8901 160.923 30.2472C160.617 29.2666 160.799 28.1809 160.925 27.1865C160.992 26.6417 161.197 26.1558 161.286 25.6367C161.36 25.3077 161.511 24.9131 161.541 24.5329C161.544 24.4853 161.548 24.4378 161.552 24.3903C161.556 24.3427 161.556 24.3427 161.559 24.2952C161.509 24.0282 161.948 23.9193 161.995 24.2339L161.991 24.2814C162.605 24.3777 163.211 24.8798 163.635 25.2719C164.35 25.9023 164.648 26.6671 164.866 27.5452C165.807 26.8303 167.104 25.8565 168.278 25.8295C169.356 25.795 169.58 27.1997 169.827 28.0083C170.1 28.795 170.157 29.5886 170.236 30.4079C170.269 30.6018 170.235 31.0296 170.293 31.2015C170.124 31.523 170.234 31.6512 170.647 31.5642C170.768 31.5499 170.91 31.5611 171.005 31.5686C171.649 31.5954 172.267 31.6442 172.899 31.8136C173.696 32.02 174.408 32.387 175.205 32.5933C175.322 32.6265 175.402 32.8241 175.321 32.9373C174.717 33.6309 174.159 34.3283 173.336 34.7655C172.289 35.3047 171.227 36.0339 170.104 36.328C168.322 36.7852 166.531 36.4526 164.902 35.5828C164.65 35.4434 164.445 35.3077 164.241 35.172C163.084 35.5829 161.677 37.3611 160.831 38.0835C159.574 39.1561 158.314 40.2763 157.036 41.3233C156.523 41.7611 156.014 42.1514 155.501 42.5892C154.608 43.3078 153.732 44.0997 152.882 44.8696C152.78 44.9571 152.651 45.0666 152.571 45.1798C152.003 45.7089 151.435 46.238 150.889 46.7928C150.735 46.9242 150.629 47.0593 150.475 47.1906C147.947 49.8368 146.185 53.0696 144.04 56.0092C141.943 58.9524 139.483 61.9389 138.412 65.5131C138.254 66.0028 137.417 65.6977 137.579 65.1605Z" fill="#C5C25E"/>
<path d="M180.474 44.3196C180.12 44.2678 179.743 44.1902 179.371 44.0652C178.647 43.8407 177.956 43.4993 177.445 43.0046C177.376 42.9752 177.329 42.9715 177.259 42.9421C176.378 42.5857 176.069 41.6526 175.921 40.804C175.7 39.6626 175.871 38.4087 176.034 37.2498C176.171 36.4236 176.574 35.8576 177.314 35.5811C177.317 35.5336 177.321 35.4861 177.372 35.4423C177.57 35.3622 177.72 35.2784 177.896 35.1727C178.269 34.987 178.646 34.7537 179.067 34.5716C179.587 34.3496 180.249 34.1388 180.805 34.0631C181.456 33.9949 182.085 33.901 182.703 33.9497C183.252 33.9691 183.767 34.1054 184.286 34.1942L184.202 34.3549C184.202 34.3549 180.279 33.7585 178.902 36.663C178.902 36.663 181.077 37.2889 180.917 38.4002C180.784 39.4897 180.336 40.3152 179.08 41.3879C179.08 41.3879 179.678 41.9851 180.071 42.7574C180.315 43.3028 180.49 43.8187 180.474 44.3196Z" fill="#B72C38"/>
<path d="M177.728 44.2702C177.055 44.002 176.259 43.7957 175.692 43.3923C174.761 42.7689 174.145 41.7876 173.873 40.6901C173.528 39.2998 173.897 37.9658 174.638 36.7569C174.968 36.209 175.543 35.8957 176.048 35.5529C176.3 35.3815 176.644 35.2652 176.919 35.1194C177.095 35.0137 177.34 34.9374 177.541 34.8098C177.567 34.7879 177.593 34.7661 177.593 34.7661C177.618 34.7442 177.618 34.7442 177.618 34.7442C177.724 34.6091 177.951 34.7704 177.845 34.9055C177.845 34.9055 177.845 34.9055 177.819 34.9274C178.034 35.2313 178.044 35.7104 178.04 36.0687C178.042 36.6428 177.815 37.1032 177.518 37.5341C178.245 37.711 179.21 37.9067 179.717 38.4489C180.181 38.9398 179.627 39.5896 179.356 39.9987C179.106 40.4333 178.769 40.7654 178.407 41.1194C178.304 41.207 178.125 41.3602 178.07 41.4515C177.85 41.506 177.842 41.601 178.069 41.7624C178.113 41.8136 178.156 41.8649 178.222 41.9418C178.485 42.2495 178.7 42.5535 178.911 42.9049C179.141 43.3295 179.268 43.8417 179.497 44.2664C179.516 44.3395 179.482 44.4565 179.387 44.449C178.835 44.4772 178.261 44.4797 177.728 44.2702Z" fill="#C5C25E"/>
<path d="M174.682 40.4436C174.379 40.348 174.075 40.2523 173.746 40.1785C170.369 39.3382 166.133 40.2954 162.986 41.0755C159.522 41.95 156.013 43.0841 152.886 44.8223C152.788 44.8623 152.711 44.928 152.612 44.968C152.26 45.1794 151.909 45.3908 151.557 45.6023C151.459 45.6423 151.356 45.7299 151.279 45.7955C150.799 46.1164 150.294 46.4591 149.858 46.8313C149.503 47.0902 149.144 47.3967 148.811 47.6813C149.13 47.276 149.496 46.8745 149.859 46.5205C150.486 45.8525 151.108 45.2321 151.779 44.6154C151.808 44.5459 151.838 44.4765 151.845 44.3815C151.995 44.2976 152.12 44.2357 152.27 44.1519C152.544 44.0062 152.819 43.8604 153.071 43.6891C153.869 43.2737 154.689 42.8841 155.505 42.5419C158.155 41.3879 160.947 40.5559 163.745 39.9397C166.69 39.2872 170.528 38.5377 173.701 39.2423C174.125 39.3236 174.545 39.4524 174.918 39.5775C175.499 39.7907 175.219 40.6056 174.682 40.4436Z" fill="#C5C25E"/>
<path d="M163.496 30.666C163.194 29.6378 163.123 28.4127 163.396 27.382C163.429 27.265 163.268 27.1806 163.166 27.2682C162.766 27.7867 162.75 28.5984 162.701 29.2163C162.66 29.7392 162.596 30.5472 163.067 30.943C163.246 31.1006 163.572 30.9111 163.496 30.666Z" fill="#BAB23C"/>
<path d="M166.831 30.833C167.029 30.4421 167.001 29.8899 167.316 29.5321C167.368 29.4884 167.276 29.4333 167.251 29.4552C166.925 29.6447 166.844 30.0688 166.722 30.394C166.535 30.9531 166.026 31.3434 165.886 31.9062C165.856 31.9757 165.944 32.0782 166.043 32.0382C166.42 31.8049 166.659 31.202 166.831 30.833Z" fill="#BAB23C"/>
<path d="M171.309 33.4824C170.709 33.5068 170.16 33.7983 169.535 33.8446C169.03 33.8765 168.475 33.6414 168.061 34.0392C167.903 34.2181 167.881 34.5032 168.111 34.6171C169.342 35.3837 170.419 34.1535 171.327 33.5555C171.353 33.5336 171.309 33.4824 171.309 33.4824Z" fill="#BAB23C"/>
<path d="M153.99 25.9705C153.746 25.736 153.398 25.5891 153.103 25.3983C152.694 25.1269 152.435 24.7717 152.051 24.4785C152.029 24.4528 152.004 24.4747 152.026 24.5003C152.467 25.2764 153.153 25.6654 153.909 26.0837C153.957 26.0875 154.034 26.0218 153.99 25.9705Z" fill="#BAB23C"/>
<path d="M155.342 24.906C155.39 24.5989 155.39 24.2881 155.46 24.0066C155.464 23.9591 155.417 23.9554 155.391 23.9772C155.123 24.3387 155.001 24.9748 155.11 25.4138C155.128 25.487 155.176 25.4907 155.227 25.4469C155.429 25.3194 155.327 25.0961 155.342 24.906Z" fill="#BAB23C"/>
<path d="M157.406 26.0249C157.483 25.9592 157.908 25.108 157.956 25.1118C157.978 25.1374 157.982 25.0899 157.982 25.0899C157.96 25.0642 157.938 25.0386 157.916 25.0129C157.894 24.9873 157.868 25.0092 157.868 25.0092C157.586 25.25 157.396 25.5458 157.114 25.7866C156.857 26.0055 156.583 26.1513 156.439 26.4508C156.384 26.5422 156.494 26.6703 156.593 26.6303C156.915 26.4883 157.193 26.2951 157.406 26.0249Z" fill="#BAB23C"/>
<path d="M176.032 38.1828C176.175 37.8832 176.315 37.3203 176.659 37.204C176.382 37.0864 176.173 37.3091 176.059 37.5392C175.809 37.9739 175.659 38.3686 175.526 38.8364C175.497 38.9058 175.61 38.9865 175.661 38.9427C175.866 38.7675 175.893 38.4348 176.032 38.1828Z" fill="#BAB23C"/>
<path d="M177.521 39.6159C177.13 39.7285 176.365 39.716 176.145 40.0813C176.116 40.1507 176.182 40.2276 176.255 40.2095C176.679 39.9799 177.137 39.9443 177.521 39.6159Z" fill="#BAB23C"/>
<path d="M177.383 42.8806C177.083 42.7374 176.43 42.2315 176.361 41.8913C176.321 41.7925 176.204 41.7593 176.171 41.8763C175.976 42.5305 176.849 42.982 177.383 42.8806Z" fill="#BAB23C"/>
<path d="M163.645 44.5472C161.175 45.548 159.01 47.2186 156.536 48.267C155.471 48.733 154.381 49.2208 153.276 49.588C152.712 49.7588 152.156 49.8345 151.651 50.1773C151.574 50.2429 151.683 50.3711 151.757 50.353C155.965 48.8436 160.169 47.3818 163.645 44.5472C163.671 44.5253 163.693 44.551 163.645 44.5472Z" fill="#BAB23C"/>
<path d="M150.258 44.1846C148.764 41.6036 147.907 38.523 148.406 35.5254C147.943 36.8519 148.071 38.8707 148.295 40.2753C148.541 41.7056 148.965 43.2934 150.057 44.3121C150.144 44.4147 150.342 44.3346 150.258 44.1846Z" fill="#BAB23C"/>
<path d="M184.733 35.4983C183.91 35.3139 183.242 34.9981 183.308 34.7642C183.349 34.5522 184.047 34.4877 184.895 34.6503C185.718 34.8347 186.386 35.1505 186.32 35.3844C186.254 35.6183 185.555 35.6828 184.733 35.4983Z" fill="#F8F8F9"/>
<path d="M182.288 34.9698C182.076 34.9291 181.97 34.7534 182.011 34.5414C182.026 34.3513 182.227 34.2237 182.439 34.2643C182.651 34.3049 182.757 34.4807 182.716 34.6927C182.676 34.9047 182.474 35.0323 182.288 34.9698Z" fill="#F8F8F9"/>
<path opacity="0.09" d="M150.641 46.2956C150.51 46.4526 150.352 46.6314 150.198 46.7628C150.121 46.8284 150 46.8428 149.935 46.7659C149.373 46.315 148.744 46.0981 148.262 45.534C147.916 45.0762 147.599 44.549 147.329 44.0256C146.597 42.7004 146.223 41.3796 146.076 39.9093C145.932 38.7023 146.325 37.6572 146.7 36.539C147.138 35.2344 147.353 33.7209 148.068 32.5338C148.149 32.4206 148.412 32.4175 148.449 32.5638C148.449 32.5638 146.554 42.0275 148.708 44.1343C150.726 46.1348 151.67 44.1766 151.758 43.9684C151.695 44.4656 151.474 44.8308 151.251 45.2436C151.251 45.2436 151.251 45.2436 151.272 45.2692C151.316 45.3205 151.309 45.4156 151.279 45.485C151.173 45.6201 151.089 45.7808 150.982 45.9159C150.979 45.9635 150.953 45.9854 150.949 46.0329C150.945 46.0804 150.942 46.1279 150.912 46.1974C150.887 46.2193 150.887 46.2193 150.861 46.2411C150.762 46.2812 150.711 46.325 150.641 46.2956Z" fill="#CB2C1C"/>
<path opacity="0.09" d="M154.939 51.5365C153.903 51.933 152.769 52.3697 151.635 52.4954C150.428 52.6394 149.093 52.8927 147.849 52.8903C147.491 52.886 146.288 52.9824 146.084 52.5358C145.964 52.2394 146.202 51.9473 146.458 51.7284C146.979 50.8847 147.884 50.3343 148.627 49.6995C149.371 49.0646 150.078 48.2835 150.935 47.7293C151.363 47.4522 151.813 47.2008 152.289 46.9275L152.304 47.0482C152.304 47.0482 148.024 49.7714 149.03 51.2617C150.044 52.6569 154.672 51.5872 154.939 51.5365Z" fill="#CB2C1C"/>
<path d="M150.263 67.7639C150.166 66.5606 149.772 66.0991 148.739 65.5632C147.062 64.6896 146.926 63.0767 147.511 61.425C147.904 60.38 148.104 59.0566 147.664 57.9697C147.485 57.5013 147.168 56.9741 146.814 56.6114C146.792 56.5857 146.164 56.0579 145.737 55.7134C146.041 55.809 146.318 55.9266 146.596 56.0441C147.542 56.4775 148.617 56.8014 149.625 57.0483C150.517 57.2622 152.704 57.4346 152.721 56.0012C152.727 54.7104 150.59 53.92 149.595 53.7938C148.009 53.5969 145.708 53.6545 144.346 54.5515C144.303 54.5002 144.255 54.4964 144.211 54.4452C144.189 54.4195 144.164 54.4414 144.142 54.4158C144.069 54.1231 144.074 53.7647 144.019 53.5452C143.91 53.1062 143.776 52.6891 143.594 52.2682C143.255 51.4045 142.822 50.5334 142.385 49.7098C141.842 48.7104 140.499 47.2414 139.265 48.0289C138.284 48.645 139.031 50.0908 139.497 50.845C139.964 51.5992 140.632 52.2259 141.201 52.8925C141.529 53.2771 141.836 53.6361 142.216 53.9769C141.693 53.9356 141.214 53.9457 140.804 53.9851C139.209 54.1941 138.081 55.4681 136.356 54.9016C135.402 54.5633 134.336 53.5227 133.264 53.773C132.851 53.8599 131.888 54.2384 132.012 54.7981C132.084 55.0908 132.545 55.0076 132.447 54.7368C132.389 54.5648 133.373 54.212 133.494 54.1976C134.093 54.1732 134.933 54.7416 135.463 54.9986C136.128 55.3619 136.852 55.5864 137.598 55.5257C138.486 55.4762 139.197 54.9583 140.035 54.6418C140.748 54.3872 141.974 54.3165 142.939 54.5122C143.212 54.6772 143.439 54.8386 143.614 55.0437C143.723 55.1719 143.895 55.1137 143.976 55.0005C144.064 55.1031 144.162 55.0631 144.239 54.9974C144.444 55.1331 144.696 55.2725 144.952 55.3644C144.948 55.412 144.992 55.4633 145.014 55.4889C145.783 56.6496 147.183 57.0948 147.443 58.6458C147.685 60.1236 146.904 61.2337 146.7 62.6046C146.615 63.387 146.872 64.6746 147.448 65.2462C147.649 65.4294 148.066 65.6058 148.292 65.7671C149.209 66.2699 149.727 66.6695 149.809 67.752C149.875 68.1398 150.288 68.0528 150.263 67.7639ZM143.034 54.2088C142.965 54.1794 142.873 54.1244 142.83 54.0731C142.085 53.5122 141.549 52.7286 140.958 52.0363C140.542 51.5492 140.122 51.1096 139.783 50.5567C139.36 49.8538 138.87 48.189 140.346 48.5685C141.871 48.9518 142.419 50.7886 143.035 52.0806C143.319 52.7247 143.625 53.3945 143.711 54.1187C143.725 54.2394 143.74 54.3601 143.758 54.4333C143.48 54.3157 143.272 54.2276 143.034 54.2088ZM148.794 54.2566C149.415 54.2578 150.011 54.2809 150.588 54.5417C150.84 54.6811 151.136 54.8718 151.363 55.0332C151.907 55.4109 152.313 55.419 151.993 56.1351C151.431 57.5016 149.053 56.4292 147.978 56.1053C147.346 55.9359 146.794 55.6533 146.217 55.3925C145.753 55.2124 145.238 55.0761 144.799 54.8741C145.927 54.2218 147.576 54.2323 148.794 54.2566Z" fill="#F2DEC9"/>
<path d="M151.504 35.585L119.951 91H104.131L135.552 38.4414H106.24L108.086 27.0156H152.866L151.504 35.585Z" fill="#EF3829"/>
<path d="M151.504 35.585L154.111 37.0694L154.381 36.595L154.467 36.056L151.504 35.585ZM119.951 91V94H121.695L122.558 92.4844L119.951 91ZM104.131 91L101.556 89.4606L98.8422 94H104.131V91ZM135.552 38.4414L138.127 39.9808L140.84 35.4414H135.552V38.4414ZM106.24 38.4414L103.279 37.963L102.717 41.4414H106.24V38.4414ZM108.086 27.0156V24.0156H105.532L105.124 26.5372L108.086 27.0156ZM152.866 27.0156L155.829 27.4866L156.381 24.0156H152.866V27.0156ZM148.897 34.1006L117.344 89.5156L122.558 92.4844L154.111 37.0694L148.897 34.1006ZM119.951 88H104.131V94H119.951V88ZM106.706 92.5394L138.127 39.9808L132.977 36.902L101.556 89.4606L106.706 92.5394ZM135.552 35.4414H106.24V41.4414H135.552V35.4414ZM109.202 38.9198L111.048 27.494L105.124 26.5372L103.279 37.963L109.202 38.9198ZM108.086 30.0156H152.866V24.0156H108.086V30.0156ZM149.903 26.5446L148.541 35.114L154.467 36.056L155.829 27.4866L149.903 26.5446Z" fill="#EF3829"/>
<path d="M211.034 62.6118C210.625 62.6118 210.216 62.6118 209.807 62.4754C209.534 62.0664 209.398 61.7938 209.125 61.3848C204.217 53.0686 204.899 41.2078 212.533 41.8894C216.351 42.2984 216.214 47.888 216.76 50.0693C218.941 49.524 224.258 47.07 226.439 50.2056C230.665 56.4769 220.577 62.8844 211.034 62.6118Z" fill="#EF3829"/>
</g>
<defs>
<filter id="filter0_f" x="40" y="81.8613" width="156" height="26" filterUnits="userSpaceOnUse" color-interpolation-filters="sRGB">
<feFlood flood-opacity="0" result="BackgroundImageFix"/>
<feBlend mode="normal" in="SourceGraphic" in2="BackgroundImageFix" result="shape"/>
<feGaussianBlur stdDeviation="5" result="effect1_foregroundBlur"/>
</filter>
<clipPath id="clip0">
<rect width="277" height="105.82" fill="white"/>
</clipPath>
<clipPath id="clip1">
<rect width="26.9138" height="21.1142" fill="white" transform="translate(85.6011) rotate(31.6292)"/>
</clipPath>
<clipPath id="clip2">
<rect width="42.7637" height="49.205" fill="white" transform="translate(68 56)"/>
</clipPath>
</defs>
</svg>
