<svg width="277" height="106" viewBox="0 0 277 106" fill="none" xmlns="http://www.w3.org/2000/svg">
<g clip-path="url(#clip0)">
<g filter="url(#filter0_f)">
<ellipse cx="101" cy="94" rx="68" ry="3" fill="#C4C4C4" fill-opacity="0.5"/>
</g>
<path d="M109.482 44.7588C109.072 50.9697 105.454 55.8184 98.6279 59.3047C101.089 61.0625 102.92 63.2012 104.121 65.7207C105.322 68.2402 105.82 71.0088 105.615 74.0264C105.234 79.915 102.817 84.5586 98.3643 87.957C93.9404 91.3555 88.4473 92.9961 81.8848 92.8789C79.0137 92.8496 76.3037 92.4102 73.7549 91.5605C71.2061 90.7109 69.0234 89.4365 67.207 87.7373C63.5742 84.3975 61.9482 80.0615 62.3291 74.7295C62.7393 67.7861 66.9141 62.4688 74.8535 58.7773C70.5176 55.4082 68.4961 50.9844 68.7891 45.5059C68.9941 41.7852 70.0928 38.5186 72.085 35.7061C74.0771 32.8936 76.7432 30.7402 80.083 29.2461C83.4521 27.7227 87.1582 27.0049 91.2012 27.0928C97.0605 27.21 101.66 28.8945 105 32.1465C108.369 35.3984 109.863 39.6025 109.482 44.7588ZM91.377 72.8398C91.6406 70.5547 91.2744 68.6797 90.2783 67.2148C89.3115 65.75 87.832 64.9883 85.8398 64.9297C83.584 64.8711 81.6357 65.6621 79.9951 67.3027C78.3545 68.9141 77.373 70.9941 77.0508 73.543C76.7871 75.9453 77.168 77.8643 78.1934 79.2998C79.248 80.7061 80.7715 81.4385 82.7637 81.4971C84.9316 81.5557 86.8213 80.7939 88.4326 79.2119C90.0439 77.6299 91.0254 75.5059 91.377 72.8398ZM94.8926 45.5498C95.127 43.3818 94.8193 41.668 93.9697 40.4082C93.1201 39.1191 91.875 38.4746 90.2344 38.4746C88.3301 38.416 86.7188 39.1045 85.4004 40.54C84.1113 41.9756 83.3203 43.8799 83.0273 46.2529C82.793 48.4209 83.1006 50.1934 83.9502 51.5703C84.7998 52.918 86.0596 53.5918 87.7295 53.5918C89.5752 53.6504 91.1572 52.9473 92.4756 51.4824C93.7939 50.0176 94.5996 48.04 94.8926 45.5498ZM132.554 92.8789C128.921 92.791 125.742 91.9414 123.018 90.3301C120.322 88.6895 118.242 86.3018 116.777 83.167C115.312 80.0029 114.521 76.4141 114.404 72.4004C114.316 70.2324 114.404 68.0498 114.668 65.8525L116.338 54.6904C117.686 45.6963 120.571 38.8262 124.995 34.0801C129.419 29.3047 135.059 26.9902 141.914 27.1367C147.48 27.2539 151.831 29.1289 154.966 32.7617C158.13 36.3945 159.829 41.3457 160.063 47.6152C160.122 49.7832 160.02 51.9658 159.756 54.1631L157.998 65.5449C156.592 74.6562 153.677 81.5264 149.253 86.1553C144.858 90.7842 139.292 93.0254 132.554 92.8789ZM145.605 52.1855C145.869 50.1348 146.016 48.333 146.045 46.7803C146.045 41.4189 144.346 38.6504 140.947 38.4746C135.732 38.2109 132.495 42.6787 131.235 51.8779L128.906 67.6982C128.613 70.1299 128.467 71.9316 128.467 73.1035C128.32 78.5234 130.005 81.3359 133.521 81.541C138.823 81.8047 142.09 77.2197 143.32 67.7861L145.605 52.1855Z" fill="#EF3829"/>
<path d="M109.482 44.7588L106.491 44.5378L106.49 44.5495L106.489 44.5611L109.482 44.7588ZM98.6279 59.3047L97.2634 56.633L92.8685 58.8776L96.8842 61.7459L98.6279 59.3047ZM105.615 74.0264L102.622 73.823L102.621 73.8327L105.615 74.0264ZM98.3643 87.957L96.5442 85.5722L96.5366 85.578L98.3643 87.957ZM81.8848 92.8789L81.9383 89.8794L81.9269 89.8792L81.9154 89.8791L81.8848 92.8789ZM67.207 87.7373L69.2565 85.5465L69.247 85.5376L69.2374 85.5288L67.207 87.7373ZM62.3291 74.7295L65.3215 74.9432L65.3228 74.9248L65.3239 74.9064L62.3291 74.7295ZM74.8535 58.7773L76.1183 61.4977L80.5764 59.4249L76.6942 56.4084L74.8535 58.7773ZM68.7891 45.5059L65.7936 45.3408L65.7933 45.3457L68.7891 45.5059ZM80.083 29.2461L81.3081 31.9846L81.319 31.9796L80.083 29.2461ZM91.2012 27.0928L91.136 30.0921L91.1412 30.0922L91.2012 27.0928ZM105 32.1465L102.907 34.2959L102.917 34.305L105 32.1465ZM91.377 72.8398L94.3512 73.2321L94.3544 73.2079L94.3572 73.1837L91.377 72.8398ZM90.2783 67.2148L87.7745 68.8674L87.7859 68.8847L87.7975 68.9018L90.2783 67.2148ZM85.8398 64.9297L85.928 61.931L85.9177 61.9307L85.8398 64.9297ZM79.9951 67.3027L82.0972 69.4431L82.1069 69.4336L82.1164 69.4241L79.9951 67.3027ZM77.0508 73.543L74.0745 73.1667L74.0714 73.1911L74.0687 73.2157L77.0508 73.543ZM78.1934 79.2998L75.7522 81.0435L75.7724 81.0719L75.7934 81.0998L78.1934 79.2998ZM82.7637 81.4971L82.6755 84.4958L82.6826 84.496L82.7637 81.4971ZM94.8926 45.5498L97.872 45.9003L97.8737 45.8863L97.8752 45.8723L94.8926 45.5498ZM93.9697 40.4082L91.4649 42.0591L91.4736 42.0724L91.4825 42.0856L93.9697 40.4082ZM90.2344 38.4746L90.1421 41.4732L90.1882 41.4746H90.2344V38.4746ZM85.4004 40.54L83.1908 38.5108L83.1795 38.5232L83.1682 38.5357L85.4004 40.54ZM83.0273 46.2529L80.0499 45.8853L80.0472 45.9079L80.0447 45.9305L83.0273 46.2529ZM83.9502 51.5703L81.3971 53.1456L81.4047 53.158L81.4124 53.1702L83.9502 51.5703ZM87.7295 53.5918L87.8247 50.5933L87.7771 50.5918H87.7295V53.5918ZM106.489 44.5611C106.165 49.4623 103.402 53.4977 97.2634 56.633L99.9925 61.9764C107.506 58.139 111.979 52.4771 112.476 44.9565L106.489 44.5611ZM96.8842 61.7459C98.967 63.2336 100.449 64.9889 101.413 67.0117L106.829 64.4297C105.391 61.4134 103.211 58.8914 100.372 56.8635L96.8842 61.7459ZM101.413 67.0117C102.374 69.0274 102.795 71.2755 102.622 73.823L108.608 74.2298C108.845 70.7421 108.27 67.4531 106.829 64.4297L101.413 67.0117ZM102.621 73.8327C102.293 78.9083 100.267 82.7312 96.5442 85.5722L100.184 90.3419C105.368 86.386 108.176 80.9218 108.609 74.22L102.621 73.8327ZM96.5366 85.578C92.743 88.4923 87.9467 89.9867 81.9383 89.8794L81.8312 95.8784C88.9479 96.0055 95.1379 94.2186 100.192 90.3361L96.5366 85.578ZM81.9154 89.8791C79.335 89.8527 76.9365 89.4588 74.7036 88.7145L72.8062 94.4066C75.6709 95.3615 78.6924 95.8465 81.8542 95.8788L81.9154 89.8791ZM74.7036 88.7145C72.5312 87.9904 70.7327 86.9275 69.2565 85.5465L65.1576 89.9281C67.3141 91.9456 69.8809 93.4315 72.8062 94.4066L74.7036 88.7145ZM69.2374 85.5288C66.3393 82.8644 64.9995 79.4505 65.3215 74.9432L59.3367 74.5158C58.897 80.6725 60.8091 85.9305 65.1766 89.9458L69.2374 85.5288ZM65.3239 74.9064C65.6513 69.3638 68.8745 64.8657 76.1183 61.4977L73.5887 56.057C64.9536 60.0718 59.8272 66.2085 59.3343 74.5526L65.3239 74.9064ZM76.6942 56.4084C73.1335 53.6416 71.5443 50.1622 71.7848 45.6661L65.7933 45.3457C65.4478 51.8065 67.9017 57.1748 73.0128 61.1463L76.6942 56.4084ZM71.7845 45.671C71.9611 42.4667 72.8939 39.7542 74.533 37.4401L69.6369 33.972C67.2916 37.283 66.0272 41.1036 65.7936 45.3408L71.7845 45.671ZM74.533 37.4401C76.1955 35.0931 78.4271 33.2734 81.3081 31.9845L78.8579 26.5076C75.0592 28.207 71.9588 30.694 69.6369 33.972L74.533 37.4401ZM81.319 31.9796C84.2426 30.6577 87.4986 30.013 91.136 30.0921L91.2664 24.0935C86.8178 23.9968 82.6617 24.7877 78.847 26.5126L81.319 31.9796ZM91.1412 30.0922C96.4439 30.1982 100.243 31.702 102.907 34.2959L107.093 29.9971C103.077 26.087 97.6772 24.2217 91.2612 24.0934L91.1412 30.0922ZM102.917 34.305C105.573 36.8687 106.814 40.1655 106.491 44.5378L112.474 44.9798C112.913 39.0396 111.166 33.9282 107.083 29.988L102.917 34.305ZM94.3572 73.1837C94.6782 70.4015 94.2681 67.7471 92.7591 65.5279L87.7975 68.9018C88.2807 69.6123 88.603 70.7079 88.3967 72.496L94.3572 73.1837ZM92.7821 65.5623C91.1981 63.1622 88.7434 62.0138 85.928 61.931L85.7516 67.9284C86.9206 67.9628 87.425 68.3378 87.7745 68.8674L92.7821 65.5623ZM85.9177 61.9307C82.8137 61.8501 80.0777 62.9776 77.8738 65.1814L82.1164 69.4241C83.1938 68.3467 84.3543 67.8921 85.7619 67.9287L85.9177 61.9307ZM77.893 65.1624C75.7144 67.3021 74.4709 70.0312 74.0745 73.1667L80.0271 73.9193C80.2752 71.957 80.9946 70.526 82.0972 69.4431L77.893 65.1624ZM74.0687 73.2157C73.7545 76.0784 74.1614 78.8165 75.7522 81.0435L80.6346 77.5561C80.1745 76.912 79.8197 75.8123 80.0329 73.8703L74.0687 73.2157ZM75.7934 81.0998C77.4739 83.3406 79.9086 84.4144 82.6755 84.4958L82.8519 78.4984C81.6343 78.4626 81.0221 78.0715 80.5934 77.4998L75.7934 81.0998ZM82.6826 84.496C85.7014 84.5776 88.3689 83.4787 90.5344 81.3526L86.3308 77.0712C85.2737 78.1092 84.1619 78.5338 82.8447 78.4982L82.6826 84.496ZM90.5344 81.3526C92.7101 79.2164 93.9294 76.4307 94.3512 73.2321L88.4027 72.4476C88.1214 74.5811 87.3778 76.0433 86.3308 77.0712L90.5344 81.3526ZM97.8752 45.8723C98.1532 43.3007 97.844 40.7874 96.4569 38.7308L91.4825 42.0856C91.7947 42.5485 92.1007 43.4629 91.91 45.2274L97.8752 45.8723ZM96.4746 38.7573C95.0296 36.5649 92.8082 35.4746 90.2344 35.4746V41.4746C90.9418 41.4746 91.2106 41.6734 91.4649 42.0591L96.4746 38.7573ZM90.3266 35.476C87.5278 35.3899 85.0835 36.4499 83.1908 38.5108L87.61 42.5693C88.354 41.7591 89.1323 41.4421 90.1421 41.4732L90.3266 35.476ZM83.1682 38.5357C81.3802 40.5268 80.3999 43.0504 80.0499 45.8853L86.0047 46.6205C86.2407 44.7093 86.8424 43.4243 87.6325 42.5444L83.1682 38.5357ZM80.0447 45.9305C79.7635 48.5322 80.0932 51.0324 81.3971 53.1456L86.5033 49.995C86.108 49.3543 85.8225 48.3096 86.01 46.5754L80.0447 45.9305ZM81.4124 53.1702C82.8427 55.4389 85.0894 56.5918 87.7295 56.5918V50.5918C87.0298 50.5918 86.7569 50.397 86.488 49.9704L81.4124 53.1702ZM87.6343 56.5903C90.4287 56.679 92.8412 55.5607 94.7055 53.4893L90.2457 49.4755C89.4732 50.3338 88.7217 50.6218 87.8247 50.5933L87.6343 56.5903ZM94.7055 53.4893C96.5395 51.4515 97.5263 48.8387 97.872 45.9003L91.9131 45.1993C91.6729 47.2414 91.0484 48.5837 90.2457 49.4755L94.7055 53.4893ZM132.554 92.8789L132.481 95.878L132.489 95.8782L132.554 92.8789ZM123.018 90.3301L121.458 92.8927L121.474 92.9026L121.49 92.9123L123.018 90.3301ZM116.777 83.167L114.055 84.4274L114.059 84.437L116.777 83.167ZM114.404 72.4004L117.403 72.3128L117.403 72.2958L117.402 72.2789L114.404 72.4004ZM114.668 65.8525L111.701 65.4087L111.695 65.4518L111.689 65.4951L114.668 65.8525ZM116.338 54.6904L113.371 54.2459L113.371 54.2466L116.338 54.6904ZM124.995 34.0801L127.19 36.1256L127.196 36.1188L124.995 34.0801ZM141.914 27.1367L141.85 30.136L141.851 30.1361L141.914 27.1367ZM154.966 32.7617L152.695 34.7216L152.704 34.7321L154.966 32.7617ZM160.063 47.6152L163.062 47.5342L163.062 47.5187L163.061 47.5032L160.063 47.6152ZM159.756 54.1631L162.721 54.621L162.728 54.5709L162.734 54.5205L159.756 54.1631ZM157.998 65.5449L155.033 65.087L155.033 65.0873L157.998 65.5449ZM149.253 86.1553L147.084 84.0825L147.077 84.0897L149.253 86.1553ZM145.605 52.1855L148.574 52.6203L148.578 52.5943L148.581 52.5681L145.605 52.1855ZM146.045 46.7803L149.044 46.8369L149.045 46.8086V46.7803H146.045ZM140.947 38.4746L141.102 35.4786L141.099 35.4784L140.947 38.4746ZM131.235 51.8779L134.203 52.3149L134.206 52.2999L134.208 52.285L131.235 51.8779ZM128.906 67.6982L125.938 67.2613L125.933 67.3003L125.928 67.3394L128.906 67.6982ZM128.467 73.1035L131.466 73.1846L131.467 73.144V73.1035H128.467ZM133.521 81.541L133.346 84.5359L133.359 84.5367L133.372 84.5373L133.521 81.541ZM143.32 67.7861L140.352 67.3513L140.349 67.3747L140.346 67.3981L143.32 67.7861ZM132.626 89.8798C129.429 89.8024 126.766 89.0617 124.545 87.7479L121.49 92.9123C124.718 94.8211 128.413 95.7796 132.481 95.878L132.626 89.8798ZM124.577 87.7675C122.436 86.4638 120.735 84.5501 119.495 81.8969L114.059 84.437C115.749 88.0534 118.209 90.9152 121.458 92.8927L124.577 87.7675ZM119.5 81.9066C118.229 79.1624 117.51 75.9819 117.403 72.3128L111.406 72.4879C111.533 76.8462 112.396 80.8434 114.055 84.4274L119.5 81.9066ZM117.402 72.2789C117.321 70.274 117.402 68.2515 117.647 66.21L111.689 65.4951C111.407 67.8481 111.312 70.1909 111.407 72.5219L117.402 72.2789ZM117.635 66.2964L119.305 55.1343L113.371 54.2466L111.701 65.4087L117.635 66.2964ZM119.305 55.135C120.597 46.5077 123.315 40.2828 127.19 36.1256L122.801 32.0346C117.828 37.3695 114.774 44.8848 113.371 54.2459L119.305 55.135ZM127.196 36.1188C131.002 32.0098 135.8 30.0068 141.85 30.136L141.978 24.1374C134.317 23.9737 127.835 26.5996 122.794 32.0413L127.196 36.1188ZM141.851 30.1361C146.717 30.2385 150.206 31.838 152.695 34.7216L157.237 30.8018C153.456 26.4198 148.244 24.2693 141.977 24.1374L141.851 30.1361ZM152.704 34.7321C155.297 37.7092 156.849 41.9337 157.066 47.7273L163.061 47.5032C162.809 40.7577 160.963 35.0798 157.228 30.7914L152.704 34.7321ZM157.065 47.6963C157.119 49.7148 157.024 51.7509 156.777 53.8057L162.734 54.5205C163.015 52.1808 163.125 49.8516 163.062 47.5342L157.065 47.6963ZM156.791 53.7052L155.033 65.087L160.963 66.0028L162.721 54.621L156.791 53.7052ZM155.033 65.0873C153.681 73.8473 150.934 80.054 147.084 84.0825L151.422 88.228C156.419 82.9987 159.502 75.4652 160.963 66.0025L155.033 65.0873ZM147.077 84.0897C143.301 88.0679 138.565 90.0089 132.619 89.8796L132.489 95.8782C140.019 96.0419 146.416 93.5005 151.429 88.2208L147.077 84.0897ZM148.581 52.5681C148.854 50.4422 149.012 48.5275 149.044 46.8369L143.045 46.7237C143.019 48.1386 142.884 49.8273 142.63 51.803L148.581 52.5681ZM149.045 46.7803C149.045 43.8682 148.599 41.1849 147.327 39.1136C145.932 36.8407 143.732 35.6147 141.102 35.4786L140.792 41.4706C141.561 41.5103 141.909 41.7565 142.214 42.2521C142.642 42.9494 143.045 44.331 143.045 46.7803H149.045ZM141.099 35.4784C137.41 35.2919 134.353 36.8673 132.179 39.8674C130.136 42.6864 128.92 46.6755 128.263 51.4709L134.208 52.285C134.811 47.8812 135.843 45.0368 137.037 43.3879C138.101 41.9203 139.269 41.3936 140.796 41.4708L141.099 35.4784ZM128.267 51.441L125.938 67.2613L131.874 68.1352L134.203 52.3149L128.267 51.441ZM125.928 67.3394C125.632 69.791 125.467 71.7418 125.467 73.1035H131.467C131.467 72.1214 131.594 70.4687 131.885 68.0571L125.928 67.3394ZM125.468 73.0225C125.388 75.9681 125.777 78.6994 127.047 80.8193C128.442 83.1492 130.684 84.3807 133.346 84.5359L133.695 78.5461C132.841 78.4963 132.483 78.219 132.194 77.7363C131.779 77.0438 131.399 75.6589 131.466 73.1846L125.468 73.0225ZM133.372 84.5373C137.116 84.7235 140.207 83.106 142.391 80.0408C144.443 77.1607 145.655 73.0839 146.295 68.1742L140.346 67.3981C139.755 71.922 138.719 74.8544 137.504 76.5593C136.421 78.0791 135.227 78.6222 133.669 78.5447L133.372 84.5373ZM146.289 68.2209L148.574 52.6203L142.637 51.7508L140.352 67.3513L146.289 68.2209Z" fill="#EF3829"/>
<path d="M178.71 91.3779C177.909 92.3154 176.742 93.043 175.209 93.5605C173.676 94.0684 171.977 94.3076 170.111 94.2783C168.324 94.2588 166.815 93.8096 165.585 92.9307C164.354 92.0518 163.476 90.8262 162.948 89.2539C162.421 87.6816 162.279 85.9092 162.523 83.9365L162.641 83.0576C163.09 79.7471 164.252 77.125 166.127 75.1914C168.012 73.2578 170.316 72.3154 173.041 72.3643C175.424 72.4033 177.255 73.043 178.534 74.2832C179.813 75.5234 180.526 77.3154 180.673 79.6592L175.868 79.6445C175.8 78.502 175.517 77.667 175.019 77.1396C174.53 76.6123 173.832 76.334 172.924 76.3047C171.576 76.2559 170.463 76.7881 169.584 77.9014C168.705 79.0049 168.104 80.5869 167.782 82.6475C167.509 84.4053 167.411 85.7725 167.489 86.749C167.636 89.1025 168.695 90.2939 170.668 90.3232C171.859 90.3428 172.904 90.0547 173.803 89.459L174.462 86.1338H170.99L171.605 82.6035H180.087L178.71 91.3779ZM186.356 94H181.347L185.053 72.6719H190.048L186.356 94ZM207.626 91.3779C206.825 92.3154 205.658 93.043 204.125 93.5605C202.592 94.0684 200.893 94.3076 199.027 94.2783C197.24 94.2588 195.731 93.8096 194.501 92.9307C193.271 92.0518 192.392 90.8262 191.864 89.2539C191.337 87.6816 191.195 85.9092 191.439 83.9365L191.557 83.0576C192.006 79.7471 193.168 77.125 195.043 75.1914C196.928 73.2578 199.232 72.3154 201.957 72.3643C204.34 72.4033 206.171 73.043 207.45 74.2832C208.729 75.5234 209.442 77.3154 209.589 79.6592L204.784 79.6445C204.716 78.502 204.433 77.667 203.935 77.1396C203.446 76.6123 202.748 76.334 201.84 76.3047C200.492 76.2559 199.379 76.7881 198.5 77.9014C197.621 79.0049 197.021 80.5869 196.698 82.6475C196.425 84.4053 196.327 85.7725 196.405 86.749C196.552 89.1025 197.611 90.2939 199.584 90.3232C200.775 90.3428 201.82 90.0547 202.719 89.459L203.378 86.1338H199.906L200.521 82.6035H209.003L207.626 91.3779ZM222.45 90.0156H215.639L213.749 94H208.227L219.521 72.6719H224.237L228.178 94H222.963L222.45 90.0156ZM217.514 86.0459H221.938L221 78.6924L217.514 86.0459ZM241.625 88.2285C241.84 87.125 241.244 86.2705 239.838 85.665L237.436 84.6689C234.066 83.1553 232.465 81.0947 232.631 78.4873C232.699 77.2959 233.109 76.2363 233.861 75.3086C234.613 74.3711 235.653 73.6436 236.981 73.126C238.31 72.6084 239.76 72.3594 241.332 72.3789C243.441 72.418 245.136 73.0332 246.415 74.2246C247.704 75.416 248.339 77.0127 248.319 79.0146H243.339C243.368 78.1943 243.192 77.54 242.812 77.0518C242.44 76.5537 241.825 76.2949 240.966 76.2754C240.126 76.2559 239.384 76.4512 238.739 76.8613C238.095 77.2715 237.714 77.8232 237.597 78.5166C237.411 79.4932 238.134 80.2939 239.765 80.9189C241.405 81.5439 242.597 82.0811 243.339 82.5303C245.673 83.9268 246.767 85.8115 246.62 88.1846C246.542 89.415 246.146 90.4941 245.434 91.4219C244.721 92.3496 243.729 93.0674 242.46 93.5752C241.2 94.083 239.784 94.3271 238.212 94.3076C237.06 94.2881 235.99 94.1074 235.004 93.7656C234.018 93.4238 233.173 92.9258 232.47 92.2715C231.044 90.9531 230.36 89.2197 230.419 87.0713L235.443 87.0859C235.385 88.1797 235.595 89.0098 236.073 89.5762C236.552 90.1328 237.357 90.4111 238.49 90.4111C239.33 90.4111 240.028 90.2207 240.585 89.8398C241.151 89.4492 241.498 88.9121 241.625 88.2285Z" fill="url(#paint0_linear)"/>
<g clip-path="url(#clip1)">
<path d="M69.0542 91.4114L69.1177 90.8465L69.9139 83.5755L68.7184 83.5058C68.6642 83.4835 68.6101 83.4612 68.5591 83.4825L68.5336 83.4931L54.3358 82.6544L55.5277 94.9437L68.6381 95.0395L69.0542 91.4114Z" fill="#262C38"/>
<path d="M63.6539 83.1967C63.9127 85.6461 64.5771 91.8295 64.9264 95.0337L58.7608 94.9878L60.9114 83.0394L63.6539 83.1967Z" fill="#00F0E9"/>
<path opacity="0.19" d="M54.3358 82.6568L69.9033 83.5524L69.429 87.9376C64.5396 87.5091 59.6246 87.0912 54.7352 86.6627L54.3358 82.6568Z" fill="#248D8A"/>
<path d="M72.3648 80.9551L70.5165 84.9861L53.2057 84.4287L51.6341 80.1939L72.3648 80.9551Z" fill="#262C38"/>
<path d="M64.4578 80.6763L63.8231 84.7844L60.6198 84.6696L60.385 80.5204L64.4578 80.6763Z" fill="#4D8493"/>
<path d="M62.723 80.5339C64.5758 80.4941 66.4177 80.0699 68.0749 79.2741C68.7851 78.9331 69.5218 78.4763 69.7286 77.7171C69.9503 76.9218 69.5306 76.0948 69.128 75.3804C69.0175 75.1872 68.907 74.994 68.7891 74.8188C68.4248 74.2679 67.9766 73.7669 67.3512 73.594C66.3605 73.3342 65.0378 74.0354 64.3489 74.7862C63.0148 76.2848 62.8339 78.4688 62.7092 80.4649C62.7379 80.4978 62.7305 80.5159 62.723 80.5339ZM62.9225 80.1516C63.417 79.2575 64.1712 77.0138 67.3389 75.2143C67.4441 75.5742 66.6672 76.4365 66.6057 76.7912C66.4541 77.4675 66.0349 78.076 65.5371 78.5678C64.8047 79.3218 63.9077 79.8604 62.9225 80.1516Z" fill="#00F0E9"/>
<path d="M62.9225 80.1512C63.8971 79.8345 64.8121 79.3033 65.5297 78.5854C66.0275 78.0936 66.4467 77.4851 66.5983 76.8087C66.6852 76.4435 66.6745 76.0591 66.5693 75.6992C67.2593 75.2021 68.013 74.8579 68.8072 74.8258C68.9251 75.0009 69.0356 75.1941 69.146 75.3873C69.5667 76.1092 69.9863 76.9362 69.7466 77.7241C69.5218 78.4758 68.8031 78.94 68.0929 79.2811C66.4177 80.0694 64.5757 80.4936 62.7411 80.5409C62.723 80.5334 62.8005 80.3965 62.9225 80.1512Z" fill="#4D8493"/>
<path d="M55.532 78.2093C55.7966 78.9514 56.5792 79.3578 57.3013 79.6549C59.0236 80.3423 60.8839 80.6433 62.7334 80.5599C62.4812 78.5565 61.7776 76.3674 60.3524 74.9579C59.6344 74.2403 58.6075 73.6068 57.6435 73.949C57.0289 74.1604 56.6213 74.6893 56.2966 75.2734C56.1969 75.4645 56.0897 75.6737 55.9899 75.8649C55.6132 76.5753 55.2461 77.4163 55.532 78.2093ZM58.5626 75.9734C60.4327 77.1227 61.941 79.3052 62.487 80.1841C61.4889 79.9424 60.5618 79.4766 59.7855 78.7983C59.2609 78.3292 58.7988 77.7592 58.5916 77.0829C58.5044 76.7305 58.4756 76.3387 58.5626 75.9734Z" fill="#00F0E9"/>
<path d="M62.5127 80.1728C61.5146 79.931 60.5875 79.4652 59.8112 78.787C59.2865 78.3178 58.8245 77.7478 58.6173 77.0716C58.512 76.7117 58.5013 76.3273 58.5702 75.9546C57.8459 75.5089 57.0803 75.2151 56.2755 75.2217C56.1758 75.4128 56.0686 75.622 55.9689 75.8132C55.6028 76.5491 55.2283 77.4081 55.5141 78.2012C55.7787 78.9432 56.5614 79.3496 57.2834 79.6467C59.0058 80.3342 60.866 80.6351 62.7156 80.5518C62.723 80.5337 62.6518 80.3989 62.5127 80.1728Z" fill="#4D8493"/>
<path d="M62.6646 80.5727C63.0191 80.2753 63.8855 80.2729 64.2858 80.4798C64.6968 80.7122 64.9867 81.0848 65.2332 81.4606C65.4722 81.8544 65.7038 82.2663 66.0267 82.6102C66.4823 83.0931 67.1173 83.3966 67.7692 83.4537C67.0855 83.679 66.5889 84.4245 65.8489 84.4789C65.2575 84.5311 64.7254 84.08 64.4078 83.5694C64.1157 83.0482 63.9838 82.4452 63.7681 81.8921C63.5779 81.3284 63.2316 80.7849 62.6646 80.5727Z" fill="#00F0E9"/>
<g opacity="0.25">
<path opacity="0.25" d="M62.6646 80.5727C63.0191 80.2753 63.8855 80.2729 64.2858 80.4798C64.6968 80.7122 64.9867 81.0848 65.2332 81.4606C65.4722 81.8544 65.7038 82.2663 66.0267 82.6102C66.4823 83.0931 67.1173 83.3966 67.7692 83.4537C67.0855 83.679 66.5889 84.4245 65.8489 84.4789C65.2575 84.5311 64.7254 84.08 64.4078 83.5694C64.1157 83.0482 63.9838 82.4452 63.7681 81.8921C63.5779 81.3284 63.2316 80.7849 62.6646 80.5727Z" fill="#00F0E9"/>
</g>
<path d="M67.6392 81.5643C67.9153 81.509 67.8397 81.0769 67.5637 81.1322C67.2877 81.1875 67.3632 81.6196 67.6392 81.5643Z" fill="#3CBCB5"/>
<path d="M69.8025 83.1296C70.122 83.0711 70.0253 82.588 69.7057 82.6465C69.4042 82.7124 69.501 83.1955 69.8025 83.1296Z" fill="#3CBCB5"/>
<path d="M70.6047 81.8984C70.6153 81.9239 70.6259 81.9493 70.6546 81.9822C70.7045 82.0661 70.78 82.1393 70.8299 82.2232C70.8766 82.2635 70.9233 82.3039 70.9849 82.3081C71.0465 82.3123 71.1155 82.2985 71.1558 82.2518C71.1813 82.2411 71.1962 82.205 71.2036 82.187C71.2185 82.1509 71.2259 82.1328 71.2407 82.0967C71.2556 82.0606 71.245 82.0351 71.2343 82.0097C71.2237 81.9842 71.2131 81.9587 71.1844 81.9258C71.1345 81.8419 71.0591 81.7687 71.0017 81.7029C70.955 81.6626 70.9008 81.6403 70.8467 81.618C70.7851 81.6138 70.7341 81.635 70.6758 81.6743C70.6503 81.685 70.6354 81.7211 70.628 81.7391C70.6132 81.7752 70.6057 81.7933 70.5909 81.8294C70.5909 81.8294 70.5941 81.8729 70.6047 81.8984Z" fill="#3CBCB5"/>
<path d="M55.8713 82.8235C56.1473 82.7682 56.0718 82.3361 55.7958 82.3914C55.5017 82.4392 55.5952 82.8788 55.8713 82.8235Z" fill="#3CBCB5"/>
<path d="M57.783 81.9212C58.1026 81.8627 58.0058 81.3797 57.6863 81.4382C57.3741 81.4786 57.4635 81.9797 57.783 81.9212Z" fill="#3CBCB5"/>
<path d="M58.8554 81.623C58.8661 81.6485 58.8767 81.6739 58.9054 81.7069C58.9553 81.7907 59.0307 81.864 59.0806 81.9478C59.1273 81.9881 59.1741 82.0285 59.2357 82.0327C59.2972 82.0369 59.3662 82.0231 59.4066 81.9764C59.4321 81.9658 59.4469 81.9297 59.4543 81.9116C59.4692 81.8755 59.4766 81.8574 59.4915 81.8213C59.5063 81.7852 59.4957 81.7598 59.4851 81.7343C59.4744 81.7088 59.4638 81.6833 59.4351 81.6504C59.3852 81.5666 59.3098 81.4933 59.2525 81.4275C59.2057 81.3872 59.1516 81.3649 59.0974 81.3426C59.0358 81.3384 58.9849 81.3596 58.9265 81.3989C58.901 81.4096 58.8862 81.4457 58.8787 81.4637C58.8639 81.4998 58.8565 81.5179 58.8416 81.554C58.8416 81.554 58.8522 81.5795 58.8554 81.623Z" fill="#3CBCB5"/>
<path d="M53.792 81.5671C53.4724 81.6256 53.5692 82.1086 53.8888 82.0501C54.1903 81.9842 54.0935 81.5012 53.792 81.5671Z" fill="#3CBCB5"/>
<path d="M55.4321 83.9927C55.4788 84.0331 55.5255 84.0734 55.5871 84.0776C55.6487 84.0819 55.7177 84.068 55.758 84.0213C55.7835 84.0107 55.7984 83.9746 55.8058 83.9565C55.8206 83.9204 55.8281 83.9024 55.8429 83.8663C55.8578 83.8302 55.8471 83.8047 55.8365 83.7792C55.8259 83.7537 55.8153 83.7282 55.7866 83.6953C55.7367 83.6115 55.6613 83.5382 55.6039 83.4724C55.5572 83.4321 55.503 83.4098 55.4489 83.3875C55.3873 83.3833 55.3363 83.4046 55.2779 83.4439C55.2525 83.4545 55.2376 83.4906 55.2302 83.5086C55.2153 83.5447 55.2079 83.5628 55.193 83.5989C55.1782 83.635 55.1888 83.6605 55.1994 83.686C55.2101 83.7114 55.2207 83.7369 55.2494 83.7698C55.3141 83.8176 55.3821 83.9089 55.4321 83.9927Z" fill="#3CBCB5"/>
<path d="M62.7951 80.5625C62.417 80.3015 61.5613 80.3293 61.16 80.5864C60.7662 80.8254 60.4977 81.2215 60.2833 81.6399C60.0509 82.0509 59.8546 82.4767 59.5649 82.8219C59.1467 83.3252 58.5342 83.6854 57.8664 83.7694C58.5715 83.954 59.1047 84.6588 59.8404 84.666C60.4276 84.6754 60.9435 84.1911 61.2024 83.6644C61.4687 83.1196 61.5471 82.5187 61.7338 81.9622C61.9279 81.3878 62.2526 80.8037 62.7951 80.5625Z" fill="#00F0E9"/>
<g opacity="0.25">
<path opacity="0.25" d="M62.7951 80.5625C62.417 80.3015 61.5613 80.3293 61.16 80.5864C60.7662 80.8254 60.4977 81.2215 60.2833 81.6399C60.0509 82.0509 59.8546 82.4767 59.5649 82.8219C59.1467 83.3252 58.5342 83.6854 57.8664 83.7694C58.5715 83.954 59.1047 84.6588 59.8404 84.666C60.4276 84.6754 60.9435 84.1911 61.2024 83.6644C61.4687 83.1196 61.5471 82.5187 61.7338 81.9622C61.9279 81.3878 62.2526 80.8037 62.7951 80.5625Z" fill="#00F0E9"/>
</g>
<path d="M62.0975 80.3603C62.158 80.1108 62.3202 79.4599 62.5888 79.4227C62.9265 79.3716 63.2017 80.1391 63.2209 80.4003C63.2689 81.0533 61.9056 81.0834 62.0975 80.3603Z" fill="#ABCDD6"/>
</g>
<g clip-path="url(#clip2)">
<path d="M49.8757 95.1131C50.1842 95.4265 50.4771 95.7554 50.77 96.0842C50.9551 96.2723 51.1248 96.4447 51.31 96.6327C51.3717 96.6954 51.4645 96.7583 51.4013 96.8822C51.3225 97.0216 51.1986 96.9584 51.1209 96.9422C50.5004 96.7508 49.8956 96.5439 49.2907 96.337C49.2442 96.321 49.1977 96.3051 49.1357 96.2735C48.994 96.5057 48.8522 96.7378 48.7104 96.97C48.5686 97.2021 48.3958 97.434 48.254 97.6662C48.1754 97.7744 48.0664 97.7891 47.9893 97.7107C47.9276 97.648 47.9126 97.5702 47.8823 97.4766C47.8071 97.1495 47.7165 96.8067 47.6726 96.4487C47.6432 96.2307 47.5509 96.1056 47.3491 96.0574C47.0078 95.9614 46.6821 95.85 46.3718 95.7542C46.2633 95.7067 46.1703 95.6749 46.0775 95.612C45.8919 95.4861 45.9399 95.3154 46.1585 95.1928C46.2523 95.1313 46.3613 95.1166 46.4705 95.0708C46.8603 94.9339 47.2502 94.797 47.64 94.6601C47.9052 94.5533 47.9209 94.5379 47.9231 94.258C47.9419 93.8383 47.9764 93.4032 47.9798 92.9678C47.9801 92.9367 47.9649 92.8899 47.9808 92.8434C48.0281 92.766 48.0601 92.6419 48.138 92.6269C48.2005 92.5963 48.3246 92.6284 48.3706 92.7065C48.4938 92.863 48.5859 93.0192 48.6934 93.1911C48.878 93.4413 49.0627 93.6916 49.2473 93.9419C49.3396 94.067 49.4484 94.0834 49.62 94.007C49.9477 93.8696 50.2751 93.7633 50.6181 93.6416C50.7273 93.5958 50.8206 93.5965 50.8975 93.706C50.959 93.7998 50.8961 93.8926 50.8177 93.9697C50.4884 94.3248 50.1899 94.7112 49.8757 95.1131Z" fill="#00F0E9"/>
</g>
<g clip-path="url(#clip3)">
<path d="M157.714 16.1363C158.156 16.5853 158.575 17.0563 158.995 17.5274C159.26 17.7968 159.503 18.0437 159.768 18.3131C159.857 18.4029 159.99 18.493 159.899 18.6705C159.786 18.8701 159.609 18.7796 159.497 18.7565C158.609 18.4822 157.742 18.1858 156.876 17.8895C156.809 17.8667 156.743 17.8439 156.654 17.7986C156.451 18.1311 156.248 18.4637 156.045 18.7962C155.841 19.1287 155.594 19.4609 155.391 19.7935C155.278 19.9485 155.122 19.9695 155.012 19.8573C154.923 19.7675 154.902 19.656 154.858 19.522C154.751 19.0534 154.621 18.5623 154.558 18.0495C154.516 17.7373 154.384 17.5581 154.095 17.489C153.606 17.3515 153.139 17.1919 152.695 17.0547C152.539 16.9867 152.406 16.9411 152.273 16.851C152.007 16.6707 152.076 16.4262 152.389 16.2505C152.523 16.1624 152.68 16.1414 152.836 16.0758C153.394 15.8797 153.953 15.6836 154.511 15.4875C154.891 15.3345 154.914 15.3124 154.917 14.9115C154.944 14.3103 154.993 13.687 154.998 13.0633C154.998 13.0188 154.977 12.9518 154.999 12.8851C155.067 12.7743 155.113 12.5965 155.225 12.5751C155.314 12.5312 155.492 12.5772 155.558 12.689C155.734 12.9132 155.866 13.137 156.02 13.3832C156.285 13.7417 156.549 14.1001 156.814 14.4586C156.946 14.6379 157.102 14.6614 157.347 14.5519C157.817 14.3551 158.286 14.2029 158.777 14.0285C158.934 13.9629 159.067 13.964 159.177 14.1208C159.265 14.2551 159.175 14.3881 159.063 14.4986C158.591 15.0072 158.164 15.5607 157.714 16.1363Z" fill="#00F0E9"/>
</g>
<g clip-path="url(#clip4)">
<path d="M172.563 25C171.592 24.9577 171 24.4507 171 23.6056C171 22.7183 171.718 22 172.563 22C173.451 22 174.127 22.6338 174.127 23.4789C174.085 24.3662 173.451 25 172.563 25Z" fill="#FF2968"/>
</g>
<g clip-path="url(#clip5)">
<path d="M216.105 57.6199C216.105 57.079 216.132 56.5381 216.159 55.9971C216.159 55.6726 216.159 55.3751 216.159 55.0505C216.159 54.9423 216.132 54.8071 216.295 54.753C216.484 54.6989 216.538 54.8612 216.592 54.9423C216.971 55.6455 217.322 56.3488 217.674 57.052C217.701 57.1061 217.728 57.1601 217.755 57.2413C218.08 57.1601 218.404 57.079 218.729 56.9979C219.053 56.9167 219.405 56.8626 219.73 56.7815C219.892 56.7544 220 56.8356 220 56.9708C220 57.079 219.946 57.1601 219.892 57.2683C219.675 57.6199 219.459 57.9986 219.189 58.3502C219.026 58.5666 218.999 58.7559 219.135 58.9723C219.351 59.3509 219.54 59.7296 219.73 60.0812C219.784 60.2164 219.838 60.3246 219.865 60.4598C219.919 60.7303 219.73 60.8385 219.432 60.7573C219.297 60.7303 219.189 60.6492 219.053 60.5951C218.594 60.3787 218.134 60.1623 217.674 59.9459C217.349 59.8107 217.322 59.8107 217.079 60.0541C216.7 60.4057 216.295 60.7573 215.916 61.136C215.889 61.163 215.862 61.2171 215.808 61.2442C215.7 61.2712 215.564 61.3524 215.483 61.2983C215.402 61.2712 215.321 61.136 215.348 61.0278C215.375 60.7844 215.429 60.568 215.483 60.3246C215.537 59.9459 215.591 59.5673 215.646 59.1886C215.673 58.9993 215.591 58.8911 215.375 58.81C214.969 58.6477 214.591 58.4584 214.185 58.2691C214.05 58.215 213.969 58.1338 213.996 57.9715C214.023 57.8363 214.158 57.8093 214.293 57.8093C214.888 57.7822 215.483 57.7011 216.105 57.6199Z" fill="#00F0E9"/>
</g>
<g clip-path="url(#clip6)">
<path d="M218.042 14C217.394 13.9718 217 13.6338 217 13.0704C217 12.4789 217.479 12 218.042 12C218.634 12 219.085 12.4225 219.085 12.9859C219.056 13.5775 218.634 14 218.042 14Z" fill="#262C38"/>
</g>
<g clip-path="url(#clip7)">
<path d="M242.409 29C241.437 28.9577 240.846 28.4507 240.846 27.6056C240.846 26.7183 241.564 26 242.409 26C243.296 26 243.972 26.6338 243.972 27.4789C243.93 28.3662 243.296 29 242.409 29Z" fill="#262C38"/>
</g>
<g clip-path="url(#clip8)">
<path d="M262.563 80C261.592 79.9577 261 79.4507 261 78.6056C261 77.7183 261.718 77 262.563 77C263.451 77 264.127 77.6338 264.127 78.4789C264.085 79.3662 263.451 80 262.563 80Z" fill="#262C38"/>
</g>
<path d="M262.711 92.2163C262.75 92.2238 262.634 92.4032 262.317 92.5836C262.038 92.7717 261.55 92.9997 260.936 93.0421C260.323 93.0844 259.545 92.9334 258.882 92.4012C258.219 91.8689 257.779 91.0169 257.634 90.101C257.561 89.6431 257.535 89.1538 257.664 88.6947C257.71 88.4614 257.84 88.2043 257.963 87.9861C258.086 87.7678 258.287 87.5647 258.481 87.4005C258.906 87.0796 259.464 86.9055 260.001 87.05C260.577 87.2021 260.968 87.6816 261.111 88.1935C261.182 88.4494 261.168 88.7292 261.069 89.0327C260.977 89.2974 260.776 89.5005 260.544 89.6572C260.087 89.9317 259.637 89.9653 259.248 89.8898C258.891 89.8608 258.548 89.754 258.291 89.6234C258.034 89.4928 257.808 89.4086 257.629 89.2931C256.904 88.8699 256.256 88.2599 255.856 87.6174C255.456 86.9749 255.266 86.2923 255.255 85.7253C255.244 85.1582 255.373 84.6991 255.511 84.4031C255.681 84.1536 255.82 84.0596 255.859 84.0671C256.007 84.1362 255.77 84.7357 255.946 85.698C256.057 86.1635 256.239 86.683 256.623 87.2013C256.967 87.7121 257.522 88.1828 258.137 88.5444C258.278 88.6524 258.504 88.7366 258.722 88.8596C258.948 88.9438 259.173 89.028 259.446 89.0808C259.99 89.1865 260.439 88.9508 260.328 88.4854C260.295 88.2369 260.061 87.9897 259.828 87.9444C259.563 87.8527 259.222 87.9478 258.943 88.1359C258.664 88.3239 258.449 88.6048 258.373 88.9937C258.266 89.3361 258.269 89.74 258.31 90.1515C258.4 90.9357 258.738 91.6873 259.214 92.1429C259.73 92.6061 260.376 92.8122 260.943 92.8012C261.502 92.8291 261.936 92.6713 262.246 92.5297C262.533 92.3027 262.672 92.2087 262.711 92.2163Z" fill="#262C38"/>
<circle cx="231.5" cy="67.5" r="1.5" fill="#FF0B53"/>
<path d="M250.648 39.0154C247.627 40.3997 244.024 39.0795 242.63 36.0372L238.523 37.9194L245.823 53.8479C246.669 55.695 245.857 57.8816 244.01 58.7281C242.163 59.5746 239.976 58.7623 239.13 56.9152C238.283 55.0681 239.096 52.8816 240.943 52.0351C241.29 51.8757 241.702 51.7399 242.077 51.6992L240.155 47.5052C239.788 47.6211 239.43 47.7587 239.061 47.928C234.932 49.8202 233.119 54.7003 235.011 58.8291C236.903 62.9579 241.783 64.7708 245.912 62.8786C250.041 60.9864 251.854 56.1062 249.962 51.9774L246.098 43.546C248.155 44.0757 250.406 43.9382 252.492 42.9822L250.669 39.0055L250.648 39.0154Z" fill="#FF0B53"/>
<path d="M248.946 38.4021C245.904 39.7964 242.313 38.4444 240.929 35.4239L236.822 37.3061L244.122 53.2346C244.968 55.0817 244.156 57.2683 242.309 58.1148C240.462 58.9613 238.275 58.149 237.429 56.3019C236.582 54.4548 237.394 52.2683 239.241 51.4218C239.589 51.2624 240 51.1266 240.376 51.0859L238.454 46.8919C238.086 47.0078 237.729 47.1454 237.359 47.3147C233.22 49.1851 231.408 54.0653 233.3 58.1941C235.192 62.3229 240.072 64.1358 244.201 62.2436C248.33 60.3514 250.143 55.4712 248.25 51.3424L244.386 42.911C246.444 43.4407 248.694 43.3032 250.781 42.3471L248.968 38.3922L248.946 38.4021Z" fill="#00F0E9"/>
<path d="M249.414 39.4228C247.959 39.7478 246.459 39.5151 245.189 38.8088C243.765 38.5145 242.477 37.7113 241.587 36.5152L238.523 37.9194L245.823 53.8479C246.669 55.695 245.857 57.8816 244.01 58.7281C242.793 59.2858 241.408 59.1318 240.373 58.4228C239.126 58.2842 237.986 57.5182 237.419 56.2795C236.572 54.4324 237.384 52.2459 239.232 51.3994C239.579 51.24 239.99 51.1042 240.366 51.0635L238.952 47.9778C234.896 49.9152 233.129 54.7221 235.011 58.8291C235.818 60.5893 237.173 61.9402 238.782 62.7543C240.532 63.188 242.419 63.0595 244.201 62.2429C248.33 60.3507 250.143 55.4706 248.25 51.3418L244.386 42.9103C246.444 43.4401 248.694 43.3025 250.781 42.3465L249.436 39.4129L249.414 39.4228Z" fill="#262C38"/>
<g clip-path="url(#clip9)">
<path d="M39.2148 14.7768C39.209 14.7269 39.4702 14.7977 39.8103 15.1123C40.1446 15.3769 40.6077 15.8796 40.8943 16.6051C41.181 17.3305 41.297 18.3288 40.9081 19.3351C40.5192 20.3415 39.6579 21.2004 38.6062 21.7273C38.0804 21.9908 37.4988 22.2102 36.8941 22.2299C36.5946 22.2647 36.2336 22.2054 35.9225 22.1404C35.6114 22.0754 35.2888 21.9106 35.016 21.7399C34.4647 21.3487 34.0399 20.7404 34.0086 20.0359C33.9715 19.2814 34.401 18.6244 34.9651 18.2553C35.2472 18.0708 35.5908 17.9803 35.9959 17.9838C36.3511 17.9931 36.6738 18.1579 36.9523 18.3785C37.4595 18.8254 37.6731 19.357 37.7311 19.8562C37.8332 20.2996 37.8355 20.7546 37.7763 21.1156C37.7171 21.4766 37.702 21.7818 37.6312 22.043C37.3978 23.0819 36.9091 24.0998 36.2857 24.8299C35.6623 25.56 34.9101 26.0521 34.2288 26.2831C33.5474 26.514 32.9426 26.5337 32.5317 26.4803C32.1649 26.3712 31.9978 26.2388 31.992 26.1889C32.0187 25.9835 32.8347 26.0404 33.9305 25.4577C34.4505 25.1444 35.0089 24.7254 35.4883 24.0626C35.9735 23.4498 36.3299 22.5989 36.5308 21.7156C36.6074 21.5044 36.6225 21.1991 36.6875 20.888C36.7026 20.5827 36.7177 20.2775 36.6771 19.9281C36.5959 19.2293 36.1386 18.7766 35.6186 19.0899C35.3307 19.2246 35.1217 19.603 35.1566 19.9024C35.1472 20.2576 35.3933 20.6337 35.7276 20.8984C36.0619 21.1631 36.4844 21.3163 36.9835 21.2583C37.4385 21.256 37.926 21.0982 38.4078 20.8904C39.3213 20.4807 40.1002 19.7832 40.4682 19.0322C40.8304 18.2313 40.8316 17.3711 40.6007 16.6898C40.4196 16.0026 40.0621 15.5383 39.772 15.2179C39.3878 14.959 39.2206 14.8267 39.2148 14.7768Z" fill="#FF0B53"/>
</g>
<g clip-path="url(#clip10)">
<path d="M44.1053 39.6199C44.1053 39.079 44.1323 38.5381 44.1594 37.9971C44.1594 37.6726 44.1594 37.3751 44.1594 37.0505C44.1594 36.9423 44.1323 36.8071 44.2946 36.753C44.4839 36.6989 44.538 36.8612 44.5921 36.9423C44.9708 37.6455 45.3224 38.3488 45.674 39.052C45.701 39.1061 45.7281 39.1601 45.7551 39.2413C46.0797 39.1601 46.4043 39.079 46.7288 38.9979C47.0534 38.9167 47.405 38.8626 47.7295 38.7815C47.8918 38.7544 48 38.8356 48 38.9708C48 39.079 47.9459 39.1601 47.8918 39.2683C47.6754 39.6199 47.4591 39.9986 47.1886 40.3502C47.0263 40.5666 46.9993 40.7559 47.1345 40.9723C47.3509 41.3509 47.5402 41.7296 47.7295 42.0812C47.7836 42.2164 47.8377 42.3246 47.8648 42.4598C47.9189 42.7303 47.7295 42.8385 47.432 42.7573C47.2968 42.7303 47.1886 42.6492 47.0534 42.5951C46.5936 42.3787 46.1338 42.1623 45.674 41.9459C45.3494 41.8107 45.3224 41.8107 45.079 42.0541C44.7003 42.4057 44.2946 42.7573 43.916 43.136C43.8889 43.163 43.8619 43.2171 43.8078 43.2442C43.6996 43.2712 43.5644 43.3524 43.4832 43.2983C43.4021 43.2712 43.3209 43.136 43.348 43.0278C43.375 42.7844 43.4291 42.568 43.4832 42.3246C43.5373 41.9459 43.5914 41.5673 43.6455 41.1886C43.6725 40.9993 43.5914 40.8911 43.375 40.81C42.9693 40.6477 42.5907 40.4584 42.185 40.2691C42.0498 40.215 41.9686 40.1338 41.9957 39.9715C42.0227 39.8363 42.1579 39.8093 42.2932 39.8093C42.8882 39.7822 43.4832 39.7011 44.1053 39.6199Z" fill="#00F0E9"/>
</g>
<g clip-path="url(#clip11)">
<path d="M27.0423 94C26.3944 93.9718 26 93.6338 26 93.0704C26 92.4789 26.4789 92 27.0423 92C27.6338 92 28.0845 92.4225 28.0845 92.9859C28.0563 93.5775 27.6338 94 27.0423 94Z" fill="#FF2968"/>
</g>
<path d="M25.8427 25.2514C25.8896 25.8982 25.5993 26.329 25.0397 26.394C24.4521 26.4623 23.9212 26.0419 23.8561 25.4823C23.7878 24.8947 24.1555 24.3982 24.7151 24.3332C25.306 24.2929 25.7745 24.6638 25.8427 25.2514Z" fill="#262C38"/>
<path d="M49.622 55.6966C46.8528 55.0532 45.1048 52.2742 45.7529 49.485L41.9875 48.6101L38.5942 63.2132C38.2007 64.9066 36.5067 65.9619 34.8133 65.5684C33.1199 65.1749 32.0646 63.4808 32.4581 61.7874C32.8516 60.094 34.5457 59.0388 36.2391 59.4323C36.5579 59.5063 36.9072 59.6295 37.1829 59.7986L38.0763 55.9535C37.7668 55.8396 37.4527 55.7456 37.114 55.6669C33.3288 54.7874 29.5478 57.1425 28.6682 60.9277C27.7887 64.713 30.1438 68.494 33.9291 69.3736C37.7143 70.2531 41.4953 67.898 42.3749 64.1127L44.171 56.3828C45.2864 57.8179 46.8822 58.9027 48.7948 59.3471L49.6419 55.7013L49.622 55.6966Z" fill="#FF0B53"/>
<path d="M48.7913 54.3919C46.0022 53.7438 44.2787 50.9496 44.9222 48.1804L41.1568 47.3054L37.7635 61.9085C37.37 63.602 35.676 64.6572 33.9826 64.2637C32.2892 63.8702 31.2339 62.1761 31.6274 60.4827C32.0209 58.7893 33.715 57.7341 35.4084 58.1276C35.7272 58.2016 36.0765 58.3248 36.3522 58.4939L37.2457 54.6488C36.9362 54.5349 36.622 54.4409 36.2833 54.3622C32.5027 53.4627 28.7217 55.8179 27.8422 59.6031C26.9626 63.3884 29.3177 67.1694 33.103 68.0489C36.8883 68.9285 40.6692 66.5734 41.5488 62.7881L43.345 55.0582C44.4604 56.4933 46.0562 57.578 47.9687 58.0225L48.8113 54.3966L48.7913 54.3919Z" fill="#00F0E9"/>
<path d="M48.574 55.3271C47.4189 54.7857 46.525 53.8431 46.0347 52.7002C45.2251 51.7562 44.7732 50.5383 44.7966 49.2628L41.9875 48.6101L38.5942 63.2132C38.2007 64.9066 36.5067 65.9619 34.8133 65.5684C33.6976 65.3091 32.8404 64.48 32.5108 63.4585C31.7393 62.7123 31.3684 61.5972 31.6323 60.4616C32.0258 58.7682 33.7199 57.713 35.4133 58.1065C35.732 58.1805 36.0814 58.3037 36.3571 58.4728L37.0144 55.6438C33.2551 54.8332 29.5432 57.1624 28.6682 60.9277C28.2933 62.5415 28.5039 64.1653 29.1671 65.5583C30.125 66.7678 31.4696 67.6682 33.1032 68.0478C36.8885 68.9273 40.6695 66.5722 41.549 62.7869L43.3452 55.057C44.4606 56.4921 46.0564 57.5769 47.9689 58.0213L48.5939 55.3317L48.574 55.3271Z" fill="#262C38"/>
<g clip-path="url(#clip12)">
<path d="M103.246 11.0812C103.208 11.0726 103.328 10.8964 103.65 10.7243C103.934 10.5437 104.428 10.3286 105.042 10.3025C105.656 10.2763 106.43 10.4477 107.079 10.9973C107.728 11.5469 108.145 12.4102 108.266 13.3296C108.326 13.7893 108.34 14.2791 108.198 14.7346C108.147 14.9666 108.009 15.2202 107.881 15.4351C107.752 15.65 107.546 15.8477 107.348 16.0068C106.914 16.3164 106.352 16.4757 105.819 16.3171C105.247 16.1498 104.869 15.6603 104.74 15.1448C104.675 14.887 104.696 14.6077 104.804 14.3069C104.902 14.0448 105.108 13.847 105.345 13.6965C105.809 13.4341 106.26 13.4124 106.646 13.4981C107.003 13.5366 107.343 13.6524 107.596 13.7897C107.85 13.927 108.073 14.0171 108.249 14.1373C108.963 14.5795 109.595 15.2064 109.978 15.8592C110.36 16.5121 110.533 17.1994 110.529 17.7665C110.525 18.3337 110.383 18.7892 110.237 19.0814C110.061 19.3264 109.919 19.4167 109.881 19.4082C109.735 19.3352 109.988 18.7421 109.837 17.7755C109.738 17.3073 109.57 16.7832 109.2 16.2549C108.869 15.7353 108.327 15.2501 107.721 14.8723C107.584 14.7607 107.36 14.6706 107.145 14.5418C106.922 14.4518 106.698 14.3617 106.428 14.3017C105.886 14.1817 105.431 14.4054 105.53 14.8736C105.556 15.1228 105.784 15.3762 106.016 15.4276C106.278 15.5262 106.622 15.4401 106.905 15.2595C107.189 15.0789 107.412 14.8038 107.498 14.417C107.613 14.0776 107.622 13.6737 107.591 13.2612C107.522 12.475 107.204 11.7147 106.74 11.2467C106.237 10.7701 105.596 10.547 105.029 10.5431C104.471 10.5004 104.032 10.6468 103.719 10.7801C103.427 10.9994 103.285 11.0897 103.246 11.0812Z" fill="#262C38"/>
</g>
<g clip-path="url(#clip13)">
<path d="M103.563 29.8086C102.592 29.7663 102 29.2593 102 28.4142C102 27.5269 102.718 26.8086 103.563 26.8086C104.451 26.8086 105.127 27.4424 105.127 28.2875C105.085 29.1748 104.451 29.8086 103.563 29.8086Z" fill="#262C38"/>
</g>
<path d="M200.912 48.4992C200.969 48.5344 200.68 48.7467 200.073 48.8394C199.522 48.9674 198.619 49.0324 197.63 48.7305C196.642 48.4286 195.511 47.7246 194.789 46.4906C194.067 45.2566 193.888 43.6547 194.211 42.1296C194.372 41.3671 194.624 40.5832 195.103 39.9401C195.315 39.601 195.674 39.2757 195.998 39.007C196.322 38.7382 196.76 38.5399 197.162 38.3981C198.023 38.1496 199.004 38.2115 199.76 38.7608C200.573 39.3453 200.899 40.3329 200.816 41.2224C200.774 41.6672 200.584 42.098 200.246 42.515C199.943 42.8755 199.506 43.0738 199.047 43.1804C198.165 43.3372 197.438 43.1195 196.873 42.7676C196.329 42.5073 195.855 42.134 195.53 41.7746C195.205 41.4151 194.901 41.1474 194.688 40.8584C193.804 39.7587 193.153 38.4117 192.911 37.1628C192.669 35.9139 192.78 34.7279 193.103 33.831C193.426 32.9341 193.905 32.291 194.3 31.9092C194.716 31.6192 194.991 31.5552 195.047 31.5904C195.238 31.7877 194.506 32.5865 194.205 34.2033C194.1 35.001 194.073 35.9257 194.364 36.9698C194.599 37.9788 195.187 39.0507 195.936 39.9882C196.092 40.242 196.396 40.5097 196.665 40.834C196.969 41.1017 197.273 41.3694 197.668 41.6158C198.46 42.1085 199.306 42.0083 199.411 41.2106C199.509 40.8011 199.289 40.2721 198.95 40.0609C198.59 39.758 197.997 39.7025 197.447 39.8304C196.896 39.9584 196.389 40.2698 196.037 40.835C195.663 41.3085 195.424 41.9441 195.242 42.6149C194.912 43.9001 194.992 45.2834 195.467 46.2848C195.998 47.3215 196.888 48.0329 197.785 48.3561C198.647 48.7359 199.423 48.7487 199.995 48.7125C200.58 48.528 200.856 48.4641 200.912 48.4992Z" fill="#FF0B53"/>
</g>
<defs>
<filter id="filter0_f" x="23" y="81" width="156" height="26" filterUnits="userSpaceOnUse" color-interpolation-filters="sRGB">
<feFlood flood-opacity="0" result="BackgroundImageFix"/>
<feBlend mode="normal" in="SourceGraphic" in2="BackgroundImageFix" result="shape"/>
<feGaussianBlur stdDeviation="5" result="effect1_foregroundBlur"/>
</filter>
<linearGradient id="paint0_linear" x1="161" y1="81.5" x2="244" y2="81" gradientUnits="userSpaceOnUse">
<stop stop-color="#09EAE5"/>
<stop offset="0.817708" stop-color="#BD4D7A"/>
<stop offset="1" stop-color="#E52A62"/>
</linearGradient>
<clipPath id="clip0">
<rect width="277" height="105.82" fill="white"/>
</clipPath>
<clipPath id="clip1">
<rect width="21.3938" height="24.2827" fill="white" transform="translate(56.2388 69) rotate(22.3625)"/>
</clipPath>
<clipPath id="clip2">
<rect width="8.94383" height="9.87464" fill="white" transform="translate(54.3011 97.168) rotate(135.45)"/>
</clipPath>
<clipPath id="clip3">
<rect width="12.8115" height="14.1448" fill="white" transform="translate(164.053 19.0801) rotate(135.45)"/>
</clipPath>
<clipPath id="clip4">
<rect width="3.08451" height="3" fill="white" transform="translate(171 22)"/>
</clipPath>
<clipPath id="clip5">
<rect width="11" height="12.1448" fill="white" transform="translate(214 52)"/>
</clipPath>
<clipPath id="clip6">
<rect width="2.05634" height="2" fill="white" transform="translate(217 12)"/>
</clipPath>
<clipPath id="clip7">
<rect width="3.08451" height="3" fill="white" transform="translate(240.846 26)"/>
</clipPath>
<clipPath id="clip8">
<rect width="3.08451" height="3" fill="white" transform="translate(261 77)"/>
</clipPath>
<clipPath id="clip9">
<rect width="10.904" height="10.1" fill="white" transform="translate(32.0385 26.5879) rotate(-96.6294)"/>
</clipPath>
<clipPath id="clip10">
<rect width="11" height="12.1448" fill="white" transform="translate(42 34)"/>
</clipPath>
<clipPath id="clip11">
<rect width="2.05634" height="2" fill="white" transform="translate(26 92)"/>
</clipPath>
<clipPath id="clip12">
<rect width="8.5957" height="7.96192" fill="white" transform="translate(110.19 19.4766) rotate(-167.505)"/>
</clipPath>
<clipPath id="clip13">
<rect width="3.08451" height="3" fill="white" transform="translate(102 26.8086)"/>
</clipPath>
</defs>
</svg>
