<svg width="277" height="106" viewBox="0 0 277 106" fill="none" xmlns="http://www.w3.org/2000/svg">
<g clip-path="url(#clip0)">
<g filter="url(#filter0_f)">
<ellipse cx="101" cy="94" rx="68" ry="3" fill="#C4C4C4" fill-opacity="0.5"/>
</g>
<path d="M109.482 44.7588C109.072 50.9697 105.454 55.8184 98.6279 59.3047C101.089 61.0625 102.92 63.2012 104.121 65.7207C105.322 68.2402 105.82 71.0088 105.615 74.0264C105.234 79.915 102.817 84.5586 98.3643 87.957C93.9404 91.3555 88.4473 92.9961 81.8848 92.8789C79.0137 92.8496 76.3037 92.4102 73.7549 91.5605C71.2061 90.7109 69.0234 89.4365 67.207 87.7373C63.5742 84.3975 61.9482 80.0615 62.3291 74.7295C62.7393 67.7861 66.9141 62.4688 74.8535 58.7773C70.5176 55.4082 68.4961 50.9844 68.7891 45.5059C68.9941 41.7852 70.0928 38.5186 72.085 35.7061C74.0771 32.8936 76.7432 30.7402 80.083 29.2461C83.4521 27.7227 87.1582 27.0049 91.2012 27.0928C97.0605 27.21 101.66 28.8945 105 32.1465C108.369 35.3984 109.863 39.6025 109.482 44.7588ZM91.377 72.8398C91.6406 70.5547 91.2744 68.6797 90.2783 67.2148C89.3115 65.75 87.832 64.9883 85.8398 64.9297C83.584 64.8711 81.6357 65.6621 79.9951 67.3027C78.3545 68.9141 77.373 70.9941 77.0508 73.543C76.7871 75.9453 77.168 77.8643 78.1934 79.2998C79.248 80.7061 80.7715 81.4385 82.7637 81.4971C84.9316 81.5557 86.8213 80.7939 88.4326 79.2119C90.0439 77.6299 91.0254 75.5059 91.377 72.8398ZM94.8926 45.5498C95.127 43.3818 94.8193 41.668 93.9697 40.4082C93.1201 39.1191 91.875 38.4746 90.2344 38.4746C88.3301 38.416 86.7188 39.1045 85.4004 40.54C84.1113 41.9756 83.3203 43.8799 83.0273 46.2529C82.793 48.4209 83.1006 50.1934 83.9502 51.5703C84.7998 52.918 86.0596 53.5918 87.7295 53.5918C89.5752 53.6504 91.1572 52.9473 92.4756 51.4824C93.7939 50.0176 94.5996 48.04 94.8926 45.5498ZM132.554 92.8789C128.921 92.791 125.742 91.9414 123.018 90.3301C120.322 88.6895 118.242 86.3018 116.777 83.167C115.312 80.0029 114.521 76.4141 114.404 72.4004C114.316 70.2324 114.404 68.0498 114.668 65.8525L116.338 54.6904C117.686 45.6963 120.571 38.8262 124.995 34.0801C129.419 29.3047 135.059 26.9902 141.914 27.1367C147.48 27.2539 151.831 29.1289 154.966 32.7617C158.13 36.3945 159.829 41.3457 160.063 47.6152C160.122 49.7832 160.02 51.9658 159.756 54.1631L157.998 65.5449C156.592 74.6562 153.677 81.5264 149.253 86.1553C144.858 90.7842 139.292 93.0254 132.554 92.8789ZM145.605 52.1855C145.869 50.1348 146.016 48.333 146.045 46.7803C146.045 41.4189 144.346 38.6504 140.947 38.4746C135.732 38.2109 132.495 42.6787 131.235 51.8779L128.906 67.6982C128.613 70.1299 128.467 71.9316 128.467 73.1035C128.32 78.5234 130.005 81.3359 133.521 81.541C138.823 81.8047 142.09 77.2197 143.32 67.7861L145.605 52.1855Z" fill="#EF3829"/>
<path d="M109.482 44.7588L106.491 44.5378L106.49 44.5495L106.489 44.5611L109.482 44.7588ZM98.6279 59.3047L97.2634 56.633L92.8685 58.8776L96.8842 61.7459L98.6279 59.3047ZM105.615 74.0264L102.622 73.823L102.621 73.8327L105.615 74.0264ZM98.3643 87.957L96.5442 85.5722L96.5366 85.578L98.3643 87.957ZM81.8848 92.8789L81.9383 89.8794L81.9269 89.8792L81.9154 89.8791L81.8848 92.8789ZM67.207 87.7373L69.2565 85.5465L69.247 85.5376L69.2374 85.5288L67.207 87.7373ZM62.3291 74.7295L65.3215 74.9432L65.3228 74.9248L65.3239 74.9064L62.3291 74.7295ZM74.8535 58.7773L76.1183 61.4977L80.5764 59.4249L76.6942 56.4084L74.8535 58.7773ZM68.7891 45.5059L65.7936 45.3408L65.7933 45.3457L68.7891 45.5059ZM80.083 29.2461L81.3081 31.9846L81.319 31.9796L80.083 29.2461ZM91.2012 27.0928L91.136 30.0921L91.1412 30.0922L91.2012 27.0928ZM105 32.1465L102.907 34.2959L102.917 34.305L105 32.1465ZM91.377 72.8398L94.3512 73.2321L94.3544 73.2079L94.3572 73.1837L91.377 72.8398ZM90.2783 67.2148L87.7745 68.8674L87.7859 68.8847L87.7975 68.9018L90.2783 67.2148ZM85.8398 64.9297L85.928 61.931L85.9177 61.9307L85.8398 64.9297ZM79.9951 67.3027L82.0972 69.4431L82.1069 69.4336L82.1164 69.4241L79.9951 67.3027ZM77.0508 73.543L74.0745 73.1667L74.0714 73.1911L74.0687 73.2157L77.0508 73.543ZM78.1934 79.2998L75.7522 81.0435L75.7724 81.0719L75.7934 81.0998L78.1934 79.2998ZM82.7637 81.4971L82.6755 84.4958L82.6826 84.496L82.7637 81.4971ZM94.8926 45.5498L97.872 45.9003L97.8737 45.8863L97.8752 45.8723L94.8926 45.5498ZM93.9697 40.4082L91.4649 42.0591L91.4736 42.0724L91.4825 42.0856L93.9697 40.4082ZM90.2344 38.4746L90.1421 41.4732L90.1882 41.4746H90.2344V38.4746ZM85.4004 40.54L83.1908 38.5108L83.1795 38.5232L83.1682 38.5357L85.4004 40.54ZM83.0273 46.2529L80.0499 45.8853L80.0472 45.9079L80.0447 45.9305L83.0273 46.2529ZM83.9502 51.5703L81.3971 53.1456L81.4047 53.158L81.4124 53.1702L83.9502 51.5703ZM87.7295 53.5918L87.8247 50.5933L87.7771 50.5918H87.7295V53.5918ZM106.489 44.5611C106.165 49.4623 103.402 53.4977 97.2634 56.633L99.9925 61.9764C107.506 58.139 111.979 52.4771 112.476 44.9565L106.489 44.5611ZM96.8842 61.7459C98.967 63.2336 100.449 64.9889 101.413 67.0117L106.829 64.4297C105.391 61.4134 103.211 58.8914 100.372 56.8635L96.8842 61.7459ZM101.413 67.0117C102.374 69.0274 102.795 71.2755 102.622 73.823L108.608 74.2298C108.845 70.7421 108.27 67.4531 106.829 64.4297L101.413 67.0117ZM102.621 73.8327C102.293 78.9083 100.267 82.7312 96.5442 85.5722L100.184 90.3419C105.368 86.386 108.176 80.9218 108.609 74.22L102.621 73.8327ZM96.5366 85.578C92.743 88.4923 87.9467 89.9867 81.9383 89.8794L81.8312 95.8784C88.9479 96.0055 95.1379 94.2186 100.192 90.3361L96.5366 85.578ZM81.9154 89.8791C79.335 89.8527 76.9365 89.4588 74.7036 88.7145L72.8062 94.4066C75.6709 95.3615 78.6924 95.8465 81.8542 95.8788L81.9154 89.8791ZM74.7036 88.7145C72.5312 87.9904 70.7327 86.9275 69.2565 85.5465L65.1576 89.9281C67.3141 91.9456 69.8809 93.4315 72.8062 94.4066L74.7036 88.7145ZM69.2374 85.5288C66.3393 82.8644 64.9995 79.4505 65.3215 74.9432L59.3367 74.5158C58.897 80.6725 60.8091 85.9305 65.1766 89.9458L69.2374 85.5288ZM65.3239 74.9064C65.6513 69.3638 68.8745 64.8657 76.1183 61.4977L73.5887 56.057C64.9536 60.0718 59.8272 66.2085 59.3343 74.5526L65.3239 74.9064ZM76.6942 56.4084C73.1335 53.6416 71.5443 50.1622 71.7848 45.6661L65.7933 45.3457C65.4478 51.8065 67.9017 57.1748 73.0128 61.1463L76.6942 56.4084ZM71.7845 45.671C71.9611 42.4667 72.8939 39.7542 74.533 37.4401L69.6369 33.972C67.2916 37.283 66.0272 41.1036 65.7936 45.3408L71.7845 45.671ZM74.533 37.4401C76.1955 35.0931 78.4271 33.2734 81.3081 31.9845L78.8579 26.5076C75.0592 28.207 71.9588 30.694 69.6369 33.972L74.533 37.4401ZM81.319 31.9796C84.2426 30.6577 87.4986 30.013 91.136 30.0921L91.2664 24.0935C86.8178 23.9968 82.6617 24.7877 78.847 26.5126L81.319 31.9796ZM91.1412 30.0922C96.4439 30.1982 100.243 31.702 102.907 34.2959L107.093 29.9971C103.077 26.087 97.6772 24.2217 91.2612 24.0934L91.1412 30.0922ZM102.917 34.305C105.573 36.8687 106.814 40.1655 106.491 44.5378L112.474 44.9798C112.913 39.0396 111.166 33.9282 107.083 29.988L102.917 34.305ZM94.3572 73.1837C94.6782 70.4015 94.2681 67.7471 92.7591 65.5279L87.7975 68.9018C88.2807 69.6123 88.603 70.7079 88.3967 72.496L94.3572 73.1837ZM92.7821 65.5623C91.1981 63.1622 88.7434 62.0138 85.928 61.931L85.7516 67.9284C86.9206 67.9628 87.425 68.3378 87.7745 68.8674L92.7821 65.5623ZM85.9177 61.9307C82.8137 61.8501 80.0777 62.9776 77.8738 65.1814L82.1164 69.4241C83.1938 68.3467 84.3543 67.8921 85.7619 67.9287L85.9177 61.9307ZM77.893 65.1624C75.7144 67.3021 74.4709 70.0312 74.0745 73.1667L80.0271 73.9193C80.2752 71.957 80.9946 70.526 82.0972 69.4431L77.893 65.1624ZM74.0687 73.2157C73.7545 76.0784 74.1614 78.8165 75.7522 81.0435L80.6346 77.5561C80.1745 76.912 79.8197 75.8123 80.0329 73.8703L74.0687 73.2157ZM75.7934 81.0998C77.4739 83.3406 79.9086 84.4144 82.6755 84.4958L82.8519 78.4984C81.6343 78.4626 81.0221 78.0715 80.5934 77.4998L75.7934 81.0998ZM82.6826 84.496C85.7014 84.5776 88.3689 83.4787 90.5344 81.3526L86.3308 77.0712C85.2737 78.1092 84.1619 78.5338 82.8447 78.4982L82.6826 84.496ZM90.5344 81.3526C92.7101 79.2164 93.9294 76.4307 94.3512 73.2321L88.4027 72.4476C88.1214 74.5811 87.3778 76.0433 86.3308 77.0712L90.5344 81.3526ZM97.8752 45.8723C98.1532 43.3007 97.844 40.7874 96.4569 38.7308L91.4825 42.0856C91.7947 42.5485 92.1007 43.4629 91.91 45.2274L97.8752 45.8723ZM96.4746 38.7573C95.0296 36.5649 92.8082 35.4746 90.2344 35.4746V41.4746C90.9418 41.4746 91.2106 41.6734 91.4649 42.0591L96.4746 38.7573ZM90.3266 35.476C87.5278 35.3899 85.0835 36.4499 83.1908 38.5108L87.61 42.5693C88.354 41.7591 89.1323 41.4421 90.1421 41.4732L90.3266 35.476ZM83.1682 38.5357C81.3802 40.5268 80.3999 43.0504 80.0499 45.8853L86.0047 46.6205C86.2407 44.7093 86.8424 43.4243 87.6325 42.5444L83.1682 38.5357ZM80.0447 45.9305C79.7635 48.5322 80.0932 51.0324 81.3971 53.1456L86.5033 49.995C86.108 49.3543 85.8225 48.3096 86.01 46.5754L80.0447 45.9305ZM81.4124 53.1702C82.8427 55.4389 85.0894 56.5918 87.7295 56.5918V50.5918C87.0298 50.5918 86.7569 50.397 86.488 49.9704L81.4124 53.1702ZM87.6343 56.5903C90.4287 56.679 92.8412 55.5607 94.7055 53.4893L90.2457 49.4755C89.4732 50.3338 88.7217 50.6218 87.8247 50.5933L87.6343 56.5903ZM94.7055 53.4893C96.5395 51.4515 97.5263 48.8387 97.872 45.9003L91.9131 45.1993C91.6729 47.2414 91.0484 48.5837 90.2457 49.4755L94.7055 53.4893ZM132.554 92.8789L132.481 95.878L132.489 95.8782L132.554 92.8789ZM123.018 90.3301L121.458 92.8927L121.474 92.9026L121.49 92.9123L123.018 90.3301ZM116.777 83.167L114.055 84.4274L114.059 84.437L116.777 83.167ZM114.404 72.4004L117.403 72.3128L117.403 72.2958L117.402 72.2789L114.404 72.4004ZM114.668 65.8525L111.701 65.4087L111.695 65.4518L111.689 65.4951L114.668 65.8525ZM116.338 54.6904L113.371 54.2459L113.371 54.2466L116.338 54.6904ZM124.995 34.0801L127.19 36.1256L127.196 36.1188L124.995 34.0801ZM141.914 27.1367L141.85 30.136L141.851 30.1361L141.914 27.1367ZM154.966 32.7617L152.695 34.7216L152.704 34.7321L154.966 32.7617ZM160.063 47.6152L163.062 47.5342L163.062 47.5187L163.061 47.5032L160.063 47.6152ZM159.756 54.1631L162.721 54.621L162.728 54.5709L162.734 54.5205L159.756 54.1631ZM157.998 65.5449L155.033 65.087L155.033 65.0873L157.998 65.5449ZM149.253 86.1553L147.084 84.0825L147.077 84.0897L149.253 86.1553ZM145.605 52.1855L148.574 52.6203L148.578 52.5943L148.581 52.5681L145.605 52.1855ZM146.045 46.7803L149.044 46.8369L149.045 46.8086V46.7803H146.045ZM140.947 38.4746L141.102 35.4786L141.099 35.4784L140.947 38.4746ZM131.235 51.8779L134.203 52.3149L134.206 52.2999L134.208 52.285L131.235 51.8779ZM128.906 67.6982L125.938 67.2613L125.933 67.3003L125.928 67.3394L128.906 67.6982ZM128.467 73.1035L131.466 73.1846L131.467 73.144V73.1035H128.467ZM133.521 81.541L133.346 84.5359L133.359 84.5367L133.372 84.5373L133.521 81.541ZM143.32 67.7861L140.352 67.3513L140.349 67.3747L140.346 67.3981L143.32 67.7861ZM132.626 89.8798C129.429 89.8024 126.766 89.0617 124.545 87.7479L121.49 92.9123C124.718 94.8211 128.413 95.7796 132.481 95.878L132.626 89.8798ZM124.577 87.7675C122.436 86.4638 120.735 84.5501 119.495 81.8969L114.059 84.437C115.749 88.0534 118.209 90.9152 121.458 92.8927L124.577 87.7675ZM119.5 81.9066C118.229 79.1624 117.51 75.9819 117.403 72.3128L111.406 72.4879C111.533 76.8462 112.396 80.8434 114.055 84.4274L119.5 81.9066ZM117.402 72.2789C117.321 70.274 117.402 68.2515 117.647 66.21L111.689 65.4951C111.407 67.8481 111.312 70.1909 111.407 72.5219L117.402 72.2789ZM117.635 66.2964L119.305 55.1343L113.371 54.2466L111.701 65.4087L117.635 66.2964ZM119.305 55.135C120.597 46.5077 123.315 40.2828 127.19 36.1256L122.801 32.0346C117.828 37.3695 114.774 44.8848 113.371 54.2459L119.305 55.135ZM127.196 36.1188C131.002 32.0098 135.8 30.0068 141.85 30.136L141.978 24.1374C134.317 23.9737 127.835 26.5996 122.794 32.0413L127.196 36.1188ZM141.851 30.1361C146.717 30.2385 150.206 31.838 152.695 34.7216L157.237 30.8018C153.456 26.4198 148.244 24.2693 141.977 24.1374L141.851 30.1361ZM152.704 34.7321C155.297 37.7092 156.849 41.9337 157.066 47.7273L163.061 47.5032C162.809 40.7577 160.963 35.0798 157.228 30.7914L152.704 34.7321ZM157.065 47.6963C157.119 49.7148 157.024 51.7509 156.777 53.8057L162.734 54.5205C163.015 52.1808 163.125 49.8516 163.062 47.5342L157.065 47.6963ZM156.791 53.7052L155.033 65.087L160.963 66.0028L162.721 54.621L156.791 53.7052ZM155.033 65.0873C153.681 73.8473 150.934 80.054 147.084 84.0825L151.422 88.228C156.419 82.9987 159.502 75.4652 160.963 66.0025L155.033 65.0873ZM147.077 84.0897C143.301 88.0679 138.565 90.0089 132.619 89.8796L132.489 95.8782C140.019 96.0419 146.416 93.5005 151.429 88.2208L147.077 84.0897ZM148.581 52.5681C148.854 50.4422 149.012 48.5275 149.044 46.8369L143.045 46.7237C143.019 48.1386 142.884 49.8273 142.63 51.803L148.581 52.5681ZM149.045 46.7803C149.045 43.8682 148.599 41.1849 147.327 39.1136C145.932 36.8407 143.732 35.6147 141.102 35.4786L140.792 41.4706C141.561 41.5103 141.909 41.7565 142.214 42.2521C142.642 42.9494 143.045 44.331 143.045 46.7803H149.045ZM141.099 35.4784C137.41 35.2919 134.353 36.8673 132.179 39.8674C130.136 42.6864 128.92 46.6755 128.263 51.4709L134.208 52.285C134.811 47.8812 135.843 45.0368 137.037 43.3879C138.101 41.9203 139.269 41.3936 140.796 41.4708L141.099 35.4784ZM128.267 51.441L125.938 67.2613L131.874 68.1352L134.203 52.3149L128.267 51.441ZM125.928 67.3394C125.632 69.791 125.467 71.7418 125.467 73.1035H131.467C131.467 72.1214 131.594 70.4687 131.885 68.0571L125.928 67.3394ZM125.468 73.0225C125.388 75.9681 125.777 78.6994 127.047 80.8193C128.442 83.1492 130.684 84.3807 133.346 84.5359L133.695 78.5461C132.841 78.4963 132.483 78.219 132.194 77.7363C131.779 77.0438 131.399 75.6589 131.466 73.1846L125.468 73.0225ZM133.372 84.5373C137.116 84.7235 140.207 83.106 142.391 80.0408C144.443 77.1607 145.655 73.0839 146.295 68.1742L140.346 67.3981C139.755 71.922 138.719 74.8544 137.504 76.5593C136.421 78.0791 135.227 78.6222 133.669 78.5447L133.372 84.5373ZM146.289 68.2209L148.574 52.6203L142.637 51.7508L140.352 67.3513L146.289 68.2209Z" fill="#EF3829"/>
<path d="M178.71 91.3779C177.909 92.3154 176.742 93.043 175.209 93.5605C173.676 94.0684 171.977 94.3076 170.111 94.2783C168.324 94.2588 166.815 93.8096 165.585 92.9307C164.354 92.0518 163.476 90.8262 162.948 89.2539C162.421 87.6816 162.279 85.9092 162.523 83.9365L162.641 83.0576C163.09 79.7471 164.252 77.125 166.127 75.1914C168.012 73.2578 170.316 72.3154 173.041 72.3643C175.424 72.4033 177.255 73.043 178.534 74.2832C179.813 75.5234 180.526 77.3154 180.673 79.6592L175.868 79.6445C175.8 78.502 175.517 77.667 175.019 77.1396C174.53 76.6123 173.832 76.334 172.924 76.3047C171.576 76.2559 170.463 76.7881 169.584 77.9014C168.705 79.0049 168.104 80.5869 167.782 82.6475C167.509 84.4053 167.411 85.7725 167.489 86.749C167.636 89.1025 168.695 90.2939 170.668 90.3232C171.859 90.3428 172.904 90.0547 173.803 89.459L174.462 86.1338H170.99L171.605 82.6035H180.087L178.71 91.3779ZM186.356 94H181.347L185.053 72.6719H190.048L186.356 94ZM207.626 91.3779C206.825 92.3154 205.658 93.043 204.125 93.5605C202.592 94.0684 200.893 94.3076 199.027 94.2783C197.24 94.2588 195.731 93.8096 194.501 92.9307C193.271 92.0518 192.392 90.8262 191.864 89.2539C191.337 87.6816 191.195 85.9092 191.439 83.9365L191.557 83.0576C192.006 79.7471 193.168 77.125 195.043 75.1914C196.928 73.2578 199.232 72.3154 201.957 72.3643C204.34 72.4033 206.171 73.043 207.45 74.2832C208.729 75.5234 209.442 77.3154 209.589 79.6592L204.784 79.6445C204.716 78.502 204.433 77.667 203.935 77.1396C203.446 76.6123 202.748 76.334 201.84 76.3047C200.492 76.2559 199.379 76.7881 198.5 77.9014C197.621 79.0049 197.021 80.5869 196.698 82.6475C196.425 84.4053 196.327 85.7725 196.405 86.749C196.552 89.1025 197.611 90.2939 199.584 90.3232C200.775 90.3428 201.82 90.0547 202.719 89.459L203.378 86.1338H199.906L200.521 82.6035H209.003L207.626 91.3779ZM222.45 90.0156H215.639L213.749 94H208.227L219.521 72.6719H224.237L228.178 94H222.963L222.45 90.0156ZM217.514 86.0459H221.938L221 78.6924L217.514 86.0459ZM241.625 88.2285C241.84 87.125 241.244 86.2705 239.838 85.665L237.436 84.6689C234.066 83.1553 232.465 81.0947 232.631 78.4873C232.699 77.2959 233.109 76.2363 233.861 75.3086C234.613 74.3711 235.653 73.6436 236.981 73.126C238.31 72.6084 239.76 72.3594 241.332 72.3789C243.441 72.418 245.136 73.0332 246.415 74.2246C247.704 75.416 248.339 77.0127 248.319 79.0146H243.339C243.368 78.1943 243.192 77.54 242.812 77.0518C242.44 76.5537 241.825 76.2949 240.966 76.2754C240.126 76.2559 239.384 76.4512 238.739 76.8613C238.095 77.2715 237.714 77.8232 237.597 78.5166C237.411 79.4932 238.134 80.2939 239.765 80.9189C241.405 81.5439 242.597 82.0811 243.339 82.5303C245.673 83.9268 246.767 85.8115 246.62 88.1846C246.542 89.415 246.146 90.4941 245.434 91.4219C244.721 92.3496 243.729 93.0674 242.46 93.5752C241.2 94.083 239.784 94.3271 238.212 94.3076C237.06 94.2881 235.99 94.1074 235.004 93.7656C234.018 93.4238 233.173 92.9258 232.47 92.2715C231.044 90.9531 230.36 89.2197 230.419 87.0713L235.443 87.0859C235.385 88.1797 235.595 89.0098 236.073 89.5762C236.552 90.1328 237.357 90.4111 238.49 90.4111C239.33 90.4111 240.028 90.2207 240.585 89.8398C241.151 89.4492 241.498 88.9121 241.625 88.2285Z" fill="url(#paint0_linear)"/>
<g clip-path="url(#clip1)">
<path d="M66.0542 91.4114L66.1177 90.8465L66.9139 83.5755L65.7184 83.5058C65.6642 83.4835 65.6101 83.4612 65.5591 83.4825L65.5336 83.4931L51.3358 82.6544L52.5276 94.9437L65.638 95.0395L66.0542 91.4114Z" fill="#262C38"/>
<path d="M60.6538 83.1958C60.9126 85.6451 61.577 91.8285 61.9262 95.0327L55.7607 94.9868L57.9113 83.0384L60.6538 83.1958Z" fill="#00F0E9"/>
<path opacity="0.19" d="M51.3358 82.6549L66.9033 83.5505L66.429 87.9356C61.5396 87.5071 56.6246 87.0892 51.7352 86.6607L51.3358 82.6549Z" fill="#248D8A"/>
<path d="M69.3648 80.9542L67.5164 84.9851L50.2057 84.4277L48.634 80.1929L69.3648 80.9542Z" fill="#262C38"/>
<path d="M61.4578 80.6763L60.8231 84.7844L57.6198 84.6696L57.3849 80.5204L61.4578 80.6763Z" fill="#4D8493"/>
<path d="M59.7229 80.533C61.5757 80.4931 63.4176 80.0689 65.0748 79.2731C65.785 78.9321 66.5217 78.4753 66.7285 77.7161C66.9502 76.9208 66.5305 76.0939 66.1279 75.3794C66.0174 75.1862 65.9069 74.993 65.789 74.8179C65.4247 74.2669 64.9765 73.7659 64.3511 73.5931C63.3604 73.3332 62.0377 74.0344 61.3488 74.7853C60.0147 76.2838 59.8338 78.4678 59.7091 80.4639C59.7378 80.4968 59.7304 80.5149 59.7229 80.533ZM59.9224 80.1507C60.4169 79.2565 61.1711 77.0128 64.3388 75.2133C64.444 75.5732 63.6671 76.4355 63.6056 76.7902C63.454 77.4666 63.0348 78.0751 62.537 78.5668C61.8046 79.3209 60.9076 79.8594 59.9224 80.1507Z" fill="#00F0E9"/>
<path d="M59.9224 80.1502C60.897 79.8335 61.812 79.3023 62.5295 78.5844C63.0274 78.0926 63.4466 77.4841 63.5982 76.8078C63.6851 76.4425 63.6744 76.0581 63.5692 75.6983C64.2591 75.2011 65.0129 74.8569 65.807 74.8248C65.925 75 66.0354 75.1932 66.1459 75.3864C66.5666 76.1082 66.9862 76.9352 66.7465 77.7231C66.5217 78.4749 65.803 78.9391 65.0928 79.2801C63.4176 80.0684 61.5756 80.4926 59.741 80.5399C59.7229 80.5325 59.8004 80.3955 59.9224 80.1502Z" fill="#4D8493"/>
<path d="M52.532 78.2074C52.7966 78.9494 53.5792 79.3559 54.3013 79.6529C56.0236 80.3404 57.8839 80.6414 59.7334 80.558C59.4812 78.5545 58.7776 76.3655 57.3523 74.9559C56.6344 74.2384 55.6075 73.6048 54.6435 73.947C54.0289 74.1585 53.6213 74.6874 53.2966 75.2714C53.1968 75.4626 53.0897 75.6718 52.9899 75.8629C52.6132 76.5733 52.2461 77.4143 52.532 78.2074ZM55.5626 75.9715C57.4326 77.1208 58.941 79.3032 59.487 80.1822C58.4889 79.9404 57.5618 79.4746 56.7855 78.7964C56.2608 78.3273 55.7988 77.7573 55.5916 77.081C55.5044 76.7285 55.4756 76.3367 55.5626 75.9715Z" fill="#00F0E9"/>
<path d="M59.5126 80.1718C58.5145 79.93 57.5875 79.4642 56.8111 78.786C56.2865 78.3169 55.8245 77.7469 55.6172 77.0706C55.512 76.7107 55.5013 76.3263 55.5702 75.9537C54.8459 75.5079 54.0803 75.2141 53.2755 75.2207C53.1758 75.4118 53.0686 75.621 52.9688 75.8122C52.6028 76.5481 52.2282 77.4071 52.5141 78.2002C52.7787 78.9423 53.5613 79.3487 54.2834 79.6457C56.0057 80.3332 57.866 80.6342 59.7155 80.5508C59.723 80.5327 59.6518 80.3979 59.5126 80.1718Z" fill="#4D8493"/>
<path d="M59.6645 80.5727C60.019 80.2753 60.8854 80.2729 61.2858 80.4798C61.6967 80.7122 61.9867 81.0848 62.2331 81.4606C62.4721 81.8544 62.7037 82.2663 63.0266 82.6102C63.4822 83.0931 64.1172 83.3966 64.7692 83.4537C64.0855 83.679 63.5888 84.4245 62.8488 84.4789C62.2574 84.5311 61.7254 84.08 61.4077 83.5694C61.1156 83.0482 60.9838 82.4452 60.7681 81.8921C60.5778 81.3284 60.2315 80.7849 59.6645 80.5727Z" fill="#00F0E9"/>
<g opacity="0.25">
<path opacity="0.25" d="M59.6645 80.5727C60.019 80.2753 60.8854 80.2729 61.2858 80.4798C61.6967 80.7122 61.9867 81.0848 62.2331 81.4606C62.4721 81.8544 62.7037 82.2663 63.0266 82.6102C63.4822 83.0931 64.1172 83.3966 64.7692 83.4537C64.0855 83.679 63.5888 84.4245 62.8488 84.4789C62.2574 84.5311 61.7254 84.08 61.4077 83.5694C61.1156 83.0482 60.9838 82.4452 60.7681 81.8921C60.5778 81.3284 60.2315 80.7849 59.6645 80.5727Z" fill="#00F0E9"/>
</g>
<path d="M64.6391 81.5643C64.9151 81.509 64.8396 81.0769 64.5636 81.1322C64.2876 81.1875 64.3631 81.6196 64.6391 81.5643Z" fill="#3CBCB5"/>
<path d="M66.8024 83.1286C67.1219 83.0701 67.0252 82.587 66.7056 82.6455C66.4041 82.7114 66.5009 83.1945 66.8024 83.1286Z" fill="#3CBCB5"/>
<path d="M67.6047 81.8964C67.6153 81.9219 67.6259 81.9474 67.6546 81.9803C67.7045 82.0642 67.7799 82.1374 67.8299 82.2213C67.8766 82.2616 67.9233 82.3019 67.9849 82.3061C68.0465 82.3104 68.1155 82.2965 68.1558 82.2498C68.1813 82.2392 68.1962 82.2031 68.2036 82.185C68.2184 82.1489 68.2259 82.1309 68.2407 82.0948C68.2556 82.0587 68.245 82.0332 68.2343 82.0077C68.2237 81.9822 68.2131 81.9568 68.1844 81.9239C68.1345 81.84 68.0591 81.7668 68.0017 81.7009C67.955 81.6606 67.9008 81.6383 67.8467 81.6161C67.7851 81.6118 67.7341 81.6331 67.6757 81.6724C67.6503 81.683 67.6354 81.7191 67.628 81.7372C67.6131 81.7733 67.6057 81.7913 67.5909 81.8274C67.5909 81.8274 67.5941 81.8709 67.6047 81.8964Z" fill="#3CBCB5"/>
<path d="M52.8712 82.8215C53.1472 82.7662 53.0717 82.3341 52.7957 82.3894C52.5016 82.4373 52.5952 82.8768 52.8712 82.8215Z" fill="#3CBCB5"/>
<path d="M54.783 81.9203C55.1026 81.8618 55.0058 81.3787 54.6862 81.4372C54.3741 81.4776 54.4634 81.9787 54.783 81.9203Z" fill="#3CBCB5"/>
<path d="M55.8553 81.622C55.8659 81.6475 55.8766 81.673 55.9052 81.7059C55.9552 81.7897 56.0306 81.863 56.0805 81.9468C56.1272 81.9872 56.174 82.0275 56.2355 82.0317C56.2971 82.036 56.3661 82.0221 56.4065 81.9754C56.4319 81.9648 56.4468 81.9287 56.4542 81.9106C56.4691 81.8745 56.4765 81.8565 56.4914 81.8204C56.5062 81.7843 56.4956 81.7588 56.485 81.7333C56.4743 81.7078 56.4637 81.6823 56.435 81.6494C56.3851 81.5656 56.3097 81.4923 56.2523 81.4265C56.2056 81.3862 56.1515 81.3639 56.0973 81.3416C56.0357 81.3374 55.9848 81.3587 55.9264 81.398C55.9009 81.4086 55.886 81.4447 55.8786 81.4627C55.8638 81.4988 55.8563 81.5169 55.8415 81.553C55.8415 81.553 55.8521 81.5785 55.8553 81.622Z" fill="#3CBCB5"/>
<path d="M50.7919 81.5651C50.4723 81.6236 50.5691 82.1067 50.8887 82.0482C51.1902 81.9823 51.0934 81.4992 50.7919 81.5651Z" fill="#3CBCB5"/>
<path d="M52.432 83.9918C52.4787 84.0321 52.5254 84.0724 52.587 84.0767C52.6486 84.0809 52.7176 84.0671 52.7579 84.0203C52.7834 84.0097 52.7983 83.9736 52.8057 83.9555C52.8205 83.9194 52.828 83.9014 52.8428 83.8653C52.8577 83.8292 52.847 83.8037 52.8364 83.7782C52.8258 83.7527 52.8152 83.7273 52.7865 83.6944C52.7366 83.6105 52.6612 83.5373 52.6038 83.4715C52.5571 83.4311 52.5029 83.4088 52.4488 83.3866C52.3872 83.3823 52.3362 83.4036 52.2778 83.4429C52.2524 83.4535 52.2375 83.4896 52.2301 83.5077C52.2152 83.5438 52.2078 83.5618 52.1929 83.5979C52.1781 83.634 52.1887 83.6595 52.1993 83.685C52.21 83.7105 52.2206 83.7359 52.2493 83.7689C52.314 83.8166 52.382 83.9079 52.432 83.9918Z" fill="#3CBCB5"/>
<path d="M59.7951 80.5625C59.417 80.3015 58.5613 80.3293 58.16 80.5864C57.7662 80.8254 57.4977 81.2215 57.2833 81.6399C57.0509 82.0509 56.8546 82.4767 56.5649 82.8219C56.1467 83.3252 55.5342 83.6854 54.8664 83.7694C55.5714 83.954 56.1047 84.6588 56.8404 84.666C57.4276 84.6754 57.9434 84.1911 58.2023 83.6644C58.4687 83.1196 58.5471 82.5187 58.7338 81.9622C58.9279 81.3878 59.2526 80.8037 59.7951 80.5625Z" fill="#00F0E9"/>
<g opacity="0.25">
<path opacity="0.25" d="M59.7951 80.5625C59.417 80.3015 58.5613 80.3293 58.16 80.5864C57.7662 80.8254 57.4977 81.2215 57.2833 81.6399C57.0509 82.0509 56.8546 82.4767 56.5649 82.8219C56.1467 83.3252 55.5342 83.6854 54.8664 83.7694C55.5714 83.954 56.1047 84.6588 56.8404 84.666C57.4276 84.6754 57.9434 84.1911 58.2023 83.6644C58.4687 83.1196 58.5471 82.5187 58.7338 81.9622C58.9279 81.3878 59.2526 80.8037 59.7951 80.5625Z" fill="#00F0E9"/>
</g>
<path d="M59.0975 80.3603C59.158 80.1108 59.3202 79.4599 59.5888 79.4227C59.9265 79.3716 60.2017 80.1391 60.2209 80.4003C60.2689 81.0533 58.9056 81.0834 59.0975 80.3603Z" fill="#ABCDD6"/>
</g>
<g clip-path="url(#clip2)">
<path d="M46.8756 95.1111C47.1842 95.4245 47.4771 95.7534 47.77 96.0823C47.9551 96.2703 48.1248 96.4427 48.3099 96.6308C48.3716 96.6934 48.4644 96.7564 48.4013 96.8803C48.3224 97.0196 48.1985 96.9564 48.1209 96.9403C47.5004 96.7488 46.8955 96.5419 46.2907 96.335C46.2442 96.3191 46.1976 96.3032 46.1357 96.2716C45.9939 96.5037 45.8521 96.7359 45.7103 96.968C45.5686 97.2002 45.3957 97.4321 45.2539 97.6642C45.1753 97.7724 45.0664 97.7871 44.9892 97.7088C44.9275 97.6461 44.9126 97.5682 44.8822 97.4747C44.807 97.1475 44.7164 96.8047 44.6726 96.4467C44.6432 96.2288 44.5508 96.1037 44.3491 96.0554C44.0077 95.9594 43.682 95.848 43.3718 95.7523C43.2633 95.7048 43.1702 95.673 43.0774 95.61C42.8918 95.4842 42.9398 95.3135 43.1585 95.1908C43.2523 95.1293 43.3612 95.1146 43.4704 95.0688C43.8603 94.932 44.2501 94.7951 44.6399 94.6582C44.9051 94.5514 44.9208 94.536 44.923 94.2561C44.9419 93.8364 44.9764 93.4012 44.9798 92.9658C44.98 92.9347 44.9648 92.888 44.9808 92.8414C45.028 92.7641 45.0601 92.6399 45.138 92.625C45.2004 92.5944 45.3246 92.6264 45.3706 92.7045C45.4938 92.861 45.5858 93.0172 45.6933 93.1891C45.878 93.4394 46.0626 93.6897 46.2473 93.9399C46.3396 94.065 46.4483 94.0814 46.62 94.005C46.9476 93.8677 47.275 93.7614 47.6181 93.6397C47.7273 93.5939 47.8206 93.5946 47.8975 93.7041C47.9589 93.7978 47.896 93.8906 47.8176 93.9678C47.4883 94.3229 47.1898 94.7093 46.8756 95.1111Z" fill="#00F0E9"/>
</g>
<g clip-path="url(#clip3)">
<path d="M172.957 57.338C172.987 57.423 173.018 57.5081 172.987 57.5931C172.866 58.1175 172.699 58.5569 172.456 59.0388C172.077 59.7758 171.925 59.9742 171.409 60.6404C171.333 60.7537 171.226 60.853 171.12 60.9522C171.09 60.9947 171.029 61.0089 170.983 60.9947C170.908 60.9805 170.877 60.8955 170.862 60.8388C170.71 60.3427 170.528 59.8467 170.315 59.3789C169.936 58.5569 169.086 57.6215 168.539 56.8845C166.717 54.4183 166.414 54.1207 164 52.1506C164.38 52.0797 164.668 51.8246 164.972 51.612C165.26 51.4136 165.594 51.2719 165.867 51.0734C165.913 51.0451 165.958 51.0026 166.004 51.0026C166.277 50.9601 166.884 51.4561 167.127 51.5978C167.552 51.853 167.962 52.1081 168.372 52.3915C169.162 52.9301 169.162 52.916 169.86 53.5538C170.619 54.2341 170.513 54.1065 171.166 54.886C171.515 55.3112 171.849 55.7648 172.168 56.2041C172.335 56.4451 172.502 56.686 172.669 56.9128C172.729 57.0262 172.881 57.1821 172.957 57.338Z" fill="#00F0E9"/>
<path d="M164.836 56.7142C164.612 55.4629 164.238 54.249 163.827 53.0537C163.566 52.288 163.286 51.5223 162.95 50.7752C162.856 50.5884 162.781 50.4017 162.688 50.2336C162.632 50.1029 162.595 49.9908 162.445 49.9535C162.296 49.9348 161.96 50.1215 161.81 50.1776C161.381 50.327 160.708 50.4204 160.372 50.7192C160.055 50.9806 160.26 51.6717 160.298 52.0265C160.41 53.1844 160.578 54.3424 160.615 55.5003C160.652 56.6022 160.634 57.7227 160.615 58.8246C160.596 59.2168 160.634 59.609 160.596 60.0012C160.503 61.1031 160.671 60.4868 160.372 61.514C160.055 62.5412 160.129 62.2611 159.887 62.9334C159.719 63.4377 160.951 63.2509 161.175 63.2135C162.539 63.0268 163.939 62.8213 165.228 62.3918C165.303 62.3731 165.359 62.3544 165.415 62.2797C165.433 62.2424 165.452 62.2237 165.452 62.1864C165.209 59.1421 165.377 59.609 164.836 56.7142Z" fill="#00F0E9"/>
<path d="M159.55 29.6162C159.532 29.3547 159.457 29.1119 159.289 29.0746C159.214 29.0559 159.121 29.0559 159.046 29.0746C158.803 29.0932 158.561 29.1119 158.336 29.1493C158.206 29.1679 158.075 29.1866 157.963 29.2426C157.701 29.3547 157.72 29.5601 157.739 29.7469C157.814 30.2885 157.888 30.8488 157.963 31.3904C158.038 31.876 158.15 33.9117 159.289 33.5568C159.644 33.4448 159.588 33.0713 159.606 32.8471C159.625 32.4363 159.644 32.0254 159.644 31.6145C159.644 31.1476 159.606 30.6807 159.569 30.2138C159.55 30.1204 159.569 29.859 159.55 29.6162Z" fill="#163C5A"/>
<path d="M160.839 31.2033C160.764 31.7449 160.708 32.2865 160.634 32.8281C160.578 33.2577 160.428 33.8366 159.887 33.5565C159.812 33.5191 159.756 33.4818 159.7 33.4071C159.662 33.3511 159.662 33.2764 159.644 33.2017C159.569 32.5293 159.532 31.8383 159.513 31.1659C159.494 30.587 159.457 30.008 159.438 29.4291C159.438 29.3544 159.438 29.261 159.476 29.1863C159.55 29.0555 159.718 29.0182 159.868 29.0182C160.204 29.0182 160.764 28.9248 160.951 29.2983C161.044 29.5038 161.026 29.7466 160.988 29.9893C160.932 30.3815 160.876 30.7924 160.839 31.2033Z" fill="#20F2EC"/>
<path d="M162.016 29.056C161.661 29.0186 161.194 29.056 161.007 29.2427C160.82 29.4108 160.895 29.7283 160.858 29.9711C160.802 30.326 160.764 30.6995 160.708 31.0543C160.615 31.7827 160.54 32.5111 160.484 33.2208C160.484 33.3142 160.465 33.4262 160.521 33.5009C160.634 33.7064 160.876 33.725 161.082 33.6503C161.642 33.4822 161.922 32.2496 162.09 31.764C162.24 31.3345 162.37 30.8863 162.464 30.438C162.52 30.0458 162.875 29.3175 162.314 29.112C162.24 29.0933 162.128 29.056 162.016 29.056Z" fill="#163C5A"/>
<path d="M164.201 29.971C164.201 29.9523 164.182 29.9337 164.182 29.915C164.163 29.8776 164.126 29.859 164.089 29.8403C163.846 29.6909 163.584 29.5601 163.323 29.4294C163.248 29.3734 163.155 29.336 163.062 29.336C162.893 29.3174 162.744 29.4294 162.651 29.5601C162.483 29.7843 162.37 30.1204 162.277 30.3819C162.109 30.8675 161.978 31.3717 161.848 31.876C161.736 32.3616 161.53 32.8285 161.437 33.3141C161.418 33.3888 161.399 33.4635 161.455 33.5382C161.474 33.5755 161.53 33.6129 161.567 33.6315C161.754 33.7249 161.941 33.7996 162.146 33.837C162.202 33.8557 162.258 33.8557 162.296 33.837C162.333 33.8183 162.37 33.7996 162.389 33.7623C162.613 33.5195 162.763 33.2207 162.912 32.9405C163.211 32.3429 163.51 31.7453 163.809 31.1289C163.977 30.7741 164.145 30.4192 164.201 30.0457C164.201 30.027 164.201 29.9897 164.201 29.971Z" fill="#20F2EC"/>
<path d="M165.172 31.0168C165.284 30.774 165.359 30.5499 165.265 30.4378C165.209 30.3818 165.153 30.3444 165.078 30.3257C164.892 30.2324 164.705 30.139 164.518 30.0643C164.406 30.0269 164.313 29.9896 164.201 29.9896C163.958 29.9709 163.865 30.1577 163.79 30.3444C163.566 30.8487 163.342 31.3529 163.117 31.8572C162.912 32.3054 161.978 34.117 162.987 34.3224C163.304 34.3972 163.454 34.0423 163.584 33.8555C163.809 33.5194 164.033 33.1645 164.238 32.8097C164.481 32.3988 164.686 31.9879 164.892 31.5771C164.91 31.4463 165.06 31.2409 165.172 31.0168Z" fill="#163C5A"/>
<path d="M165.452 33.0334C165.116 33.4629 164.78 33.8925 164.425 34.322C164.163 34.6582 163.715 35.0878 163.416 34.5648C163.379 34.4901 163.342 34.4154 163.342 34.3407C163.342 34.266 163.379 34.1913 163.398 34.1353C163.678 33.519 164.014 32.9213 164.35 32.3237C164.63 31.8194 164.91 31.3152 165.191 30.8109C165.228 30.7362 165.265 30.6615 165.34 30.6241C165.471 30.5494 165.639 30.6055 165.77 30.6802C166.068 30.8483 166.591 31.0537 166.554 31.4646C166.535 31.6887 166.386 31.8941 166.236 32.0809C165.975 32.3984 165.714 32.7159 165.452 33.0334Z" fill="#20F2EC"/>
<path d="M167.581 31.8014C167.301 31.5773 166.89 31.3905 166.61 31.4466C166.367 31.5026 166.255 31.8014 166.106 32.0068C165.882 32.287 165.639 32.5671 165.415 32.866C164.966 33.4449 164.518 34.0239 164.089 34.6028C164.033 34.6775 163.977 34.7709 163.958 34.8643C163.939 35.1071 164.145 35.2378 164.35 35.2939C164.91 35.4246 165.788 34.5281 166.18 34.192C166.535 33.8931 166.871 33.5756 167.189 33.2395C167.469 32.9407 168.141 32.4924 167.768 32.0442C167.749 31.9508 167.675 31.8761 167.581 31.8014Z" fill="#163C5A"/>
<path d="M168.982 33.725C168.982 33.7063 169.001 33.6876 169.001 33.669C169.001 33.6316 168.982 33.5943 168.963 33.5569C168.832 33.2954 168.683 33.0527 168.534 32.8099C168.478 32.7352 168.422 32.6605 168.347 32.6044C168.216 32.511 168.029 32.5297 167.88 32.5858C167.619 32.6978 167.357 32.9219 167.133 33.09C166.741 33.4262 166.367 33.781 165.994 34.1546C165.639 34.5094 165.228 34.8082 164.892 35.1817C164.836 35.2378 164.78 35.2938 164.78 35.3872C164.78 35.4432 164.798 35.4806 164.836 35.5366C164.948 35.7047 165.079 35.8728 165.228 36.0222C165.265 36.0595 165.303 36.0969 165.359 36.1156C165.396 36.1156 165.433 36.1156 165.471 36.0969C165.788 36.0035 166.068 35.8354 166.349 35.6486C166.909 35.2938 167.469 34.9203 168.048 34.5654C168.366 34.36 168.702 34.1359 168.945 33.8371C168.945 33.781 168.963 33.7437 168.982 33.725Z" fill="#20F2EC"/>
<path d="M169.355 34.7141C169.561 34.546 169.729 34.378 169.692 34.2285C169.673 34.1538 169.636 34.0978 169.579 34.0418C169.449 33.8737 169.318 33.7056 169.187 33.5562C169.113 33.4815 169.038 33.3881 168.945 33.3321C168.739 33.22 168.571 33.3321 168.422 33.4628C167.992 33.8177 167.562 34.1725 167.133 34.5274C166.759 34.8449 165.116 36.0401 165.919 36.6751C166.18 36.8806 166.461 36.6378 166.647 36.5257C167.002 36.3203 167.357 36.0962 167.693 35.8721C168.085 35.6106 168.459 35.3491 168.832 35.0503C168.926 35.0129 169.15 34.8635 169.355 34.7141Z" fill="#163C5A"/>
<path d="M168.702 36.6568C168.198 36.8809 167.712 37.1237 167.208 37.3478C166.816 37.5345 166.237 37.7213 166.199 37.105C166.199 37.0303 166.199 36.9369 166.237 36.8809C166.274 36.8248 166.33 36.7688 166.386 36.7315C166.928 36.3019 167.469 35.9097 168.048 35.5362C168.534 35.2187 169.001 34.8825 169.468 34.5463C169.542 34.509 169.598 34.453 169.692 34.453C169.841 34.4343 169.972 34.565 170.046 34.6958C170.233 34.9759 170.607 35.4054 170.383 35.7603C170.252 35.9471 170.046 36.0591 169.822 36.1712C169.449 36.3206 169.075 36.4887 168.702 36.6568Z" fill="#20F2EC"/>
<path d="M171.148 36.5069C170.999 36.1894 170.719 35.8159 170.439 35.7598C170.196 35.7038 169.972 35.9279 169.748 36.0213C169.411 36.1707 169.094 36.3201 168.758 36.4882C168.104 36.8057 167.45 37.1232 166.797 37.4594C166.703 37.4967 166.629 37.5528 166.573 37.6275C166.461 37.8329 166.573 38.0383 166.741 38.1877C167.17 38.5613 168.384 38.1504 168.87 38.0197C169.318 37.9076 169.766 37.7769 170.196 37.6088C170.569 37.4594 171.391 37.366 171.26 36.787C171.242 36.7123 171.204 36.6189 171.148 36.5069Z" fill="#163C5A"/>
<path d="M171.559 38.8417C171.578 38.8231 171.578 38.8044 171.597 38.8044C171.615 38.767 171.615 38.7297 171.615 38.6923C171.615 38.4122 171.597 38.1134 171.559 37.8332C171.541 37.7399 171.541 37.6465 171.484 37.5718C171.41 37.4224 171.223 37.3477 171.074 37.3477C170.793 37.329 170.457 37.4037 170.177 37.4597C169.673 37.5718 169.187 37.7399 168.683 37.9079C168.216 38.076 167.712 38.1507 167.245 38.3375C167.17 38.3562 167.096 38.3935 167.058 38.4682C167.04 38.5056 167.04 38.5616 167.04 38.6176C167.058 38.8231 167.096 39.0285 167.17 39.2153C167.189 39.2713 167.208 39.3087 167.245 39.346C167.282 39.3647 167.32 39.3834 167.357 39.3834C167.675 39.4394 168.011 39.4207 168.328 39.3834C169.001 39.3087 169.654 39.2339 170.327 39.1592C170.719 39.1219 171.111 39.0659 171.466 38.9165C171.503 38.8791 171.522 38.8604 171.559 38.8417Z" fill="#20F2EC"/>
<path d="M171.186 40.2241C171.447 40.1868 171.69 40.1307 171.727 39.9813C171.746 39.9066 171.746 39.8319 171.727 39.7572C171.709 39.5518 171.671 39.3463 171.634 39.1409C171.615 39.0288 171.597 38.9168 171.541 38.8234C171.428 38.618 171.204 38.6366 171.018 38.6553C170.476 38.73 169.916 38.8234 169.374 38.8981C168.889 38.9728 166.853 39.1409 167.226 40.1121C167.338 40.4109 167.712 40.3548 167.936 40.3548C168.347 40.3548 168.758 40.3548 169.169 40.3362C169.636 40.3175 170.102 40.2801 170.569 40.2241C170.681 40.2428 170.943 40.2428 171.186 40.2241Z" fill="#163C5A"/>
<path d="M169.636 41.55C169.094 41.494 168.552 41.438 167.992 41.382C167.562 41.3446 166.965 41.1952 167.245 40.6536C167.282 40.5789 167.32 40.5228 167.394 40.4668C167.45 40.4295 167.525 40.4108 167.6 40.4108C168.272 40.3174 168.963 40.2614 169.636 40.2427C170.214 40.2054 170.793 40.168 171.372 40.1306C171.447 40.1306 171.54 40.112 171.615 40.1493C171.746 40.224 171.783 40.3921 171.783 40.5415C171.802 40.8777 171.895 41.438 171.54 41.6247C171.335 41.7368 171.092 41.6994 170.849 41.6808C170.457 41.6434 170.046 41.6061 169.636 41.55Z" fill="#20F2EC"/>
<path d="M171.821 42.6901C171.858 42.3352 171.802 41.8683 171.615 41.6816C171.428 41.4948 171.13 41.5882 170.887 41.5508C170.532 41.5135 170.158 41.4761 169.804 41.4388C169.075 41.3641 168.347 41.308 167.619 41.252C167.525 41.252 167.413 41.2333 167.338 41.2894C167.133 41.4014 167.133 41.6442 167.189 41.8497C167.376 42.3913 168.608 42.6527 169.113 42.8208C169.561 42.9515 169.99 43.0636 170.457 43.157C170.85 43.2317 171.597 43.5679 171.783 43.0076C171.783 42.9142 171.802 42.8021 171.821 42.6901Z" fill="#163C5A"/>
<path d="M170.943 44.893C170.962 44.893 170.98 44.8744 170.999 44.8744C171.036 44.8557 171.055 44.8183 171.074 44.781C171.223 44.5382 171.354 44.2767 171.466 44.0153C171.503 43.9219 171.541 43.8472 171.541 43.7538C171.541 43.5857 171.428 43.4363 171.298 43.3429C171.055 43.1935 170.737 43.0628 170.476 42.9881C169.99 42.82 169.486 42.7079 168.963 42.5959C168.478 42.4838 168.011 42.2971 167.506 42.2037C167.432 42.185 167.338 42.185 167.282 42.2224C167.245 42.2597 167.208 42.2971 167.189 42.3531C167.096 42.5398 167.04 42.7266 166.984 42.932C166.965 42.9881 166.965 43.0441 166.984 43.0815C167.002 43.1188 167.021 43.1562 167.058 43.1748C167.301 43.3989 167.6 43.5297 167.899 43.6791C168.515 43.9592 169.113 44.2394 169.729 44.5195C170.084 44.6876 170.439 44.8557 170.831 44.893C170.887 44.893 170.924 44.893 170.943 44.893Z" fill="#20F2EC"/>
<path d="M170.177 45.7144C170.42 45.7891 170.681 45.8265 170.756 45.6958C170.793 45.6397 170.831 45.565 170.849 45.4903C170.906 45.2849 170.962 45.0981 171.018 44.8927C171.036 44.7806 171.055 44.6686 171.055 44.5565C171.018 44.3137 170.831 44.2577 170.644 44.2017C170.102 44.0709 169.561 43.9215 169.038 43.7908C168.571 43.6787 166.629 43.0437 166.591 44.0709C166.573 44.3884 166.946 44.4818 167.152 44.5752C167.525 44.7433 167.917 44.8927 168.291 45.0421C168.72 45.2102 169.169 45.3596 169.617 45.4903C169.692 45.5464 169.934 45.6397 170.177 45.7144Z" fill="#163C5A"/>
<path d="M168.216 46.3314C167.731 46.0699 167.264 45.8085 166.778 45.547C166.405 45.3416 165.919 44.9867 166.386 44.5758C166.442 44.5198 166.517 44.4825 166.591 44.4638C166.666 44.4451 166.741 44.4638 166.815 44.4825C167.469 44.6692 168.123 44.8747 168.758 45.1175C169.299 45.3229 169.86 45.491 170.401 45.6777C170.476 45.6964 170.551 45.7338 170.607 45.7898C170.7 45.9019 170.663 46.0886 170.625 46.2194C170.513 46.5368 170.383 47.0971 169.972 47.1158C169.748 47.1345 169.523 47.0224 169.318 46.9104C168.945 46.7236 168.59 46.5368 168.216 46.3314Z" fill="#20F2EC"/>
<path d="M169.804 48.2177C169.972 47.9002 170.102 47.452 169.99 47.2092C169.897 46.9664 169.579 46.9291 169.355 46.7983C169.038 46.6116 168.72 46.4435 168.403 46.2754C167.768 45.9206 167.114 45.5844 166.461 45.2669C166.367 45.2295 166.274 45.1735 166.18 45.1922C165.938 45.2109 165.844 45.4537 165.826 45.6591C165.788 46.2381 166.815 46.9477 167.208 47.2839C167.562 47.5827 167.917 47.8629 168.309 48.1057C168.646 48.3298 169.206 48.9274 169.598 48.4792C169.673 48.4232 169.748 48.3298 169.804 48.2177Z" fill="#163C5A"/>
<path d="M168.141 49.9166C168.16 49.9166 168.179 49.9166 168.197 49.9166C168.235 49.9166 168.272 49.8792 168.291 49.8605C168.515 49.6924 168.739 49.5057 168.945 49.3002C169.019 49.2442 169.075 49.1695 169.113 49.0948C169.187 48.9454 169.15 48.7586 169.057 48.6279C168.907 48.3851 168.646 48.161 168.44 47.9742C168.048 47.6381 167.637 47.3392 167.208 47.0404C166.797 46.7603 166.442 46.4054 166.012 46.1253C165.956 46.0879 165.882 46.0319 165.807 46.0506C165.751 46.0693 165.714 46.0879 165.676 46.1253C165.527 46.256 165.377 46.4241 165.265 46.5922C165.228 46.6295 165.209 46.6856 165.209 46.7416C165.209 46.779 165.228 46.8163 165.247 46.8537C165.377 47.1525 165.602 47.3953 165.826 47.6381C166.274 48.1423 166.722 48.6279 167.17 49.1322C167.432 49.4123 167.693 49.7111 168.029 49.8979C168.085 49.8979 168.104 49.9166 168.141 49.9166Z" fill="#20F2EC"/>
<path d="M166.815 50.4403C166.983 50.6271 167.189 50.7951 167.32 50.7391C167.394 50.7204 167.45 50.6644 167.488 50.6084C167.637 50.4776 167.787 50.3282 167.936 50.1788C168.011 50.1041 168.085 50.0107 168.123 49.9174C168.216 49.6933 168.085 49.5438 167.955 49.3944C167.562 49.0022 167.17 48.61 166.778 48.2178C166.442 47.8817 165.097 46.3315 164.537 47.1906C164.35 47.4708 164.63 47.7323 164.761 47.919C165.004 48.2552 165.247 48.5914 165.489 48.9089C165.788 49.2824 166.087 49.6372 166.405 49.9734C166.498 50.0481 166.647 50.2535 166.815 50.4403Z" fill="#163C5A"/>
<path d="M164.817 49.9725C164.537 49.5056 164.275 49.02 163.995 48.5531C163.771 48.1796 163.547 47.6193 164.145 47.5259C164.219 47.5073 164.313 47.5073 164.369 47.5446C164.444 47.5633 164.481 47.6193 164.537 47.6753C165.004 48.1609 165.452 48.6839 165.882 49.2255C166.236 49.6737 166.629 50.1033 167.002 50.5515C167.058 50.6075 167.114 50.6822 167.114 50.7569C167.133 50.9063 167.021 51.0371 166.909 51.1304C166.647 51.3359 166.255 51.7468 165.882 51.56C165.676 51.4479 165.545 51.2425 165.433 51.0371C165.228 50.6822 165.023 50.3274 164.817 49.9725Z" fill="#20F2EC"/>
<path d="M165.191 52.3815C165.489 52.1947 165.844 51.8772 165.882 51.6157C165.919 51.3729 165.676 51.1488 165.545 50.9434C165.359 50.6259 165.191 50.3084 165.004 49.9909C164.63 49.3559 164.257 48.7396 163.865 48.1233C163.809 48.0486 163.753 47.9552 163.678 47.9179C163.472 47.8245 163.267 47.9552 163.136 48.1233C162.8 48.5902 163.323 49.7481 163.491 50.2337C163.64 50.6633 163.809 51.0928 164.014 51.5224C164.182 51.8959 164.35 52.699 164.91 52.5122C164.985 52.4935 165.097 52.4562 165.191 52.3815Z" fill="#163C5A"/>
<path d="M162.893 52.9984C162.912 53.017 162.931 53.017 162.949 53.0357C162.987 53.0544 163.024 53.0544 163.062 53.0357C163.342 52.9984 163.64 52.961 163.921 52.905C164.014 52.8863 164.107 52.8676 164.182 52.8116C164.313 52.7182 164.388 52.5315 164.369 52.3821C164.35 52.1019 164.257 51.7657 164.163 51.5043C163.995 51.0187 163.809 50.5331 163.584 50.0662C163.379 49.5993 163.248 49.1137 163.043 48.6655C163.005 48.5908 162.968 48.5161 162.893 48.4974C162.837 48.4787 162.8 48.4787 162.744 48.4974C162.539 48.5348 162.352 48.5908 162.146 48.6842C162.09 48.7028 162.053 48.7215 162.016 48.7775C161.997 48.8149 161.978 48.8523 161.978 48.8896C161.941 49.2071 162.016 49.5433 162.072 49.8608C162.202 50.5144 162.333 51.1681 162.464 51.8404C162.539 52.214 162.613 52.6062 162.8 52.9423C162.856 52.9423 162.875 52.9797 162.893 52.9984Z" fill="#20F2EC"/>
<path d="M161.829 52.9799C161.904 53.2227 161.997 53.4655 162.146 53.4655C162.221 53.4655 162.296 53.4468 162.352 53.4282C162.557 53.3721 162.744 53.3161 162.949 53.2414C163.062 53.204 163.155 53.1667 163.248 53.092C163.435 52.9426 163.379 52.7371 163.323 52.5504C163.155 52.0274 162.968 51.5045 162.8 50.9629C162.651 50.496 162.146 48.535 161.25 49.0393C160.97 49.2073 161.082 49.5622 161.119 49.7863C161.175 50.1972 161.25 50.6081 161.343 51.0003C161.437 51.4672 161.549 51.9154 161.679 52.3636C161.717 52.4757 161.754 52.7371 161.829 52.9799Z" fill="#163C5A"/>
<path d="M160.26 51.6537C160.223 51.1121 160.185 50.5518 160.148 50.0102C160.129 49.5807 160.167 48.983 160.746 49.1511C160.82 49.1698 160.895 49.2071 160.951 49.2632C161.007 49.3192 161.026 49.3939 161.044 49.4686C161.25 50.1223 161.418 50.7759 161.567 51.4483C161.698 52.0086 161.829 52.5689 161.978 53.1291C161.997 53.2039 162.016 53.2972 161.997 53.3719C161.96 53.5213 161.791 53.5774 161.642 53.6147C161.306 53.6894 160.783 53.8762 160.54 53.54C160.409 53.3533 160.391 53.1105 160.372 52.8677C160.316 52.4755 160.279 52.0646 160.26 51.6537Z" fill="#20F2EC"/>
<path d="M159.513 53.9878C159.868 53.9504 160.316 53.8384 160.466 53.6143C160.615 53.4088 160.484 53.11 160.466 52.8672C160.447 52.5124 160.428 52.1388 160.409 51.784C160.353 51.0556 160.297 50.3272 160.223 49.5989C160.204 49.5055 160.204 49.3934 160.148 49.3187C159.999 49.132 159.756 49.1693 159.569 49.2627C159.065 49.5428 159.009 50.7942 158.934 51.3171C158.878 51.7653 158.841 52.2322 158.822 52.6991C158.822 53.11 158.617 53.8944 159.196 53.9878C159.289 54.0065 159.401 54.0065 159.513 53.9878Z" fill="#163C5A"/>
<path d="M157.178 53.5215C157.178 53.5402 157.197 53.5588 157.216 53.5775C157.235 53.6149 157.272 53.6149 157.309 53.6335C157.589 53.7269 157.851 53.8203 158.131 53.895C158.224 53.9137 158.318 53.951 158.411 53.9324C158.579 53.9137 158.71 53.7829 158.766 53.6335C158.878 53.3721 158.934 53.0359 158.99 52.7558C159.065 52.2515 159.102 51.7286 159.121 51.2056C159.139 50.7014 159.252 50.2158 159.252 49.7115C159.252 49.6368 159.252 49.5434 159.196 49.4874C159.158 49.4501 159.102 49.4314 159.065 49.4127C158.859 49.3567 158.654 49.3193 158.448 49.3193C158.392 49.3193 158.336 49.3193 158.299 49.338C158.262 49.3567 158.243 49.394 158.224 49.4314C158.056 49.7115 157.963 50.029 157.87 50.3465C157.701 51.0002 157.515 51.6352 157.347 52.2888C157.253 52.6624 157.141 53.0359 157.16 53.4281C157.178 53.4468 157.178 53.4841 157.178 53.5215Z" fill="#20F2EC"/>
<path d="M156.039 52.6812C155.965 52.924 155.946 53.1854 156.058 53.2601C156.114 53.2975 156.189 53.3162 156.263 53.3348C156.469 53.3909 156.674 53.4469 156.88 53.4842C156.992 53.5029 157.104 53.5216 157.216 53.5029C157.459 53.4656 157.515 53.2601 157.552 53.0734C157.683 52.5318 157.795 51.9901 157.926 51.4485C158.038 50.9816 158.617 49.0206 157.589 49.002C157.272 49.002 157.179 49.3755 157.104 49.5809C156.954 49.9544 156.805 50.3466 156.656 50.7388C156.506 51.1871 156.357 51.6353 156.245 52.0835C156.189 52.1956 156.095 52.4384 156.039 52.6812Z" fill="#163C5A"/>
<path d="M155.367 50.7383C155.61 50.2528 155.871 49.7672 156.114 49.2816C156.319 48.9081 156.656 48.4038 157.066 48.852C157.122 48.9081 157.16 48.9828 157.179 49.0575C157.197 49.1322 157.179 49.2069 157.16 49.2816C156.992 49.9353 156.805 50.5889 156.581 51.2426C156.394 51.7842 156.226 52.3445 156.058 52.8861C156.039 52.9608 156.002 53.0355 155.946 53.0915C155.834 53.1849 155.666 53.1662 155.516 53.1102C155.199 52.9982 154.639 52.8861 154.601 52.4752C154.583 52.2511 154.695 52.027 154.788 51.8216C154.993 51.4667 155.18 51.0932 155.367 50.7383Z" fill="#20F2EC"/>
<path d="M153.518 52.3445C153.835 52.5125 154.284 52.6246 154.527 52.5125C154.769 52.4192 154.807 52.083 154.919 51.8776C155.087 51.5601 155.255 51.2426 155.423 50.9064C155.759 50.2527 156.077 49.5991 156.394 48.9454C156.431 48.852 156.469 48.7586 156.469 48.6653C156.431 48.4225 156.207 48.3291 156.002 48.3291C155.423 48.2917 154.732 49.3563 154.414 49.7671C154.134 50.122 153.854 50.4955 153.611 50.8877C153.387 51.2239 152.808 51.8029 153.257 52.1764C153.313 52.2324 153.406 52.3071 153.518 52.3445Z" fill="#163C5A"/>
<path d="M151.781 50.7392C151.781 50.7578 151.781 50.7765 151.781 50.7952C151.781 50.8325 151.818 50.8699 151.837 50.8886C152.024 51.1127 152.211 51.3368 152.416 51.5422C152.472 51.6169 152.547 51.673 152.64 51.7103C152.79 51.785 152.976 51.729 153.107 51.6356C153.331 51.4675 153.574 51.2061 153.742 51.0006C154.078 50.6084 154.358 50.1789 154.657 49.7493C154.937 49.3385 155.274 48.9649 155.554 48.5354C155.591 48.4793 155.628 48.4046 155.61 48.3299C155.591 48.2739 155.572 48.2366 155.535 48.1992C155.404 48.0498 155.236 47.9191 155.068 47.807C155.031 47.7697 154.975 47.751 154.919 47.751C154.881 47.751 154.844 47.7697 154.807 47.7883C154.508 47.9377 154.265 48.1619 154.041 48.386C153.555 48.8529 153.07 49.3198 152.584 49.768C152.304 50.0295 152.024 50.3096 151.837 50.6458C151.8 50.6831 151.781 50.7018 151.781 50.7392Z" fill="#20F2EC"/>
<path d="M151.277 49.7863C151.109 49.9918 150.978 50.1972 151.053 50.328C151.09 50.384 151.146 50.44 151.202 50.4774C151.37 50.6081 151.52 50.7388 151.706 50.8509C151.8 50.9069 151.893 50.9816 152.005 51.0003C152.229 51.0563 152.379 50.9069 152.491 50.7575C152.827 50.3093 153.163 49.8611 153.481 49.4315C153.779 49.0393 155.106 47.4892 154.172 47.0596C153.873 46.9289 153.649 47.2277 153.499 47.3771C153.201 47.6573 152.902 47.9561 152.622 48.2549C152.304 48.5911 151.987 48.9459 151.706 49.3194C151.613 49.4128 151.426 49.5809 151.277 49.7863Z" fill="#163C5A"/>
<path d="M151.445 47.7318C151.874 47.3956 152.304 47.0408 152.734 46.7046C153.07 46.4431 153.593 46.1257 153.779 46.7046C153.798 46.7793 153.817 46.854 153.798 46.9287C153.779 47.0034 153.742 47.0595 153.686 47.1155C153.275 47.6571 152.827 48.1614 152.36 48.6656C151.968 49.0952 151.594 49.5247 151.202 49.9543C151.146 50.0103 151.09 50.085 151.015 50.1037C150.866 50.1597 150.717 50.0477 150.604 49.9543C150.362 49.7302 149.895 49.394 150.025 49.0018C150.1 48.7777 150.287 48.6283 150.474 48.4789C150.81 48.2547 151.127 47.9933 151.445 47.7318Z" fill="#20F2EC"/>
<path d="M149.11 48.4604C149.335 48.7405 149.689 49.0206 149.97 49.0206C150.231 49.0206 150.399 48.7405 150.586 48.5911C150.866 48.367 151.165 48.1429 151.445 47.9187C152.005 47.4705 152.566 47.0036 153.126 46.518C153.2 46.462 153.275 46.3873 153.294 46.2939C153.369 46.0698 153.182 45.883 152.995 45.7897C152.472 45.5282 151.408 46.2192 150.959 46.4433C150.548 46.6488 150.156 46.8916 149.764 47.1343C149.428 47.3585 148.662 47.6386 148.924 48.1802C148.961 48.2923 149.017 48.367 149.11 48.4604Z" fill="#163C5A"/>
<path d="M148.158 46.2939C148.139 46.3126 148.139 46.3313 148.139 46.3499C148.139 46.3873 148.139 46.4246 148.158 46.462C148.233 46.7421 148.326 47.0223 148.419 47.2837C148.457 47.3771 148.494 47.4518 148.55 47.5265C148.662 47.6573 148.849 47.6759 149.017 47.6573C149.297 47.6012 149.615 47.4518 149.857 47.3398C150.324 47.1157 150.773 46.8355 151.202 46.5554C151.632 46.2939 152.08 46.0885 152.509 45.8083C152.565 45.771 152.64 45.7149 152.659 45.6402C152.678 45.5842 152.659 45.5469 152.64 45.4908C152.565 45.3041 152.491 45.1173 152.379 44.9305C152.36 44.8932 152.323 44.8372 152.267 44.8185C152.229 44.7998 152.192 44.7998 152.155 44.7998C151.837 44.8185 151.52 44.9305 151.202 45.0426C150.567 45.2667 149.932 45.4908 149.316 45.7149C148.942 45.8457 148.587 45.9764 148.27 46.2192C148.214 46.2379 148.177 46.2565 148.158 46.2939Z" fill="#20F2EC"/>
<path d="M148.195 44.8552C147.952 44.9485 147.728 45.0606 147.728 45.21C147.728 45.2847 147.747 45.3594 147.766 45.4154C147.84 45.6209 147.915 45.8076 147.99 45.9944C148.027 46.0878 148.083 46.1998 148.158 46.2745C148.326 46.4426 148.531 46.3866 148.7 46.3119C149.222 46.1065 149.727 45.901 150.25 45.6956C150.698 45.5088 152.64 44.8738 152.061 44.0147C151.874 43.7533 151.538 43.884 151.314 43.94C150.903 44.0334 150.511 44.1268 150.119 44.2388C149.671 44.3696 149.222 44.519 148.774 44.6684C148.681 44.7057 148.438 44.7804 148.195 44.8552Z" fill="#163C5A"/>
<path d="M149.409 43.1936C149.951 43.1189 150.492 43.0442 151.034 42.9695C151.464 42.9134 152.061 42.9134 151.931 43.5111C151.912 43.5858 151.893 43.6605 151.837 43.7165C151.781 43.7726 151.706 43.7912 151.65 43.8286C151.015 44.0714 150.362 44.2768 149.708 44.4822C149.148 44.6503 148.606 44.8184 148.046 45.0052C147.971 45.0239 147.878 45.0612 147.803 45.0425C147.654 45.0052 147.579 44.8371 147.542 44.7064C147.448 44.3889 147.224 43.8659 147.542 43.6045C147.71 43.4551 147.971 43.4177 148.195 43.3804C148.587 43.3056 148.998 43.2496 149.409 43.1936Z" fill="#20F2EC"/>
<path d="M147.019 42.6138C147.075 42.9687 147.224 43.3982 147.467 43.5476C147.691 43.6783 147.971 43.5289 148.214 43.5103C148.569 43.4729 148.942 43.4169 149.297 43.3795C150.026 43.2861 150.735 43.1741 151.464 43.0434C151.557 43.0247 151.65 43.006 151.725 42.95C151.893 42.8006 151.837 42.5578 151.725 42.371C151.426 41.8854 150.156 41.9228 149.633 41.8854C149.166 41.8481 148.718 41.8481 148.251 41.8668C147.84 41.8854 147.037 41.736 147 42.315C147 42.3897 147 42.5018 147.019 42.6138Z" fill="#163C5A"/>
<path d="M147.336 40.2612C147.318 40.2612 147.299 40.2798 147.28 40.2985C147.261 40.3359 147.243 40.3732 147.224 40.4106C147.149 40.6907 147.075 40.9708 147.019 41.251C147.019 41.3257 147 41.4191 147.019 41.5125C147.056 41.6805 147.187 41.7926 147.355 41.8486C147.616 41.942 147.971 41.9794 148.251 41.998C148.774 42.0354 149.279 42.0354 149.801 42.0167C150.306 41.998 150.791 42.0727 151.296 42.0541C151.37 42.0541 151.464 42.0354 151.501 41.9794C151.538 41.942 151.557 41.886 151.557 41.8486C151.594 41.6432 151.613 41.4378 151.613 41.2323C151.613 41.1763 151.613 41.1203 151.576 41.0829C151.557 41.0456 151.52 41.0269 151.482 41.0082C151.202 40.8588 150.866 40.7841 150.548 40.7281C149.895 40.5973 149.241 40.4666 148.569 40.3359C148.195 40.2612 147.803 40.1865 147.411 40.2238C147.411 40.2425 147.374 40.2425 147.336 40.2612Z" fill="#20F2EC"/>
<path d="M147.784 39.2895C147.523 39.2521 147.28 39.2708 147.205 39.4015C147.168 39.4575 147.168 39.5322 147.149 39.607C147.112 39.8124 147.112 40.0178 147.093 40.2233C147.093 40.3353 147.093 40.4474 147.112 40.5594C147.187 40.7836 147.392 40.8209 147.579 40.8396C148.139 40.8769 148.681 40.933 149.241 40.9703C149.727 41.0077 151.744 41.3065 151.613 40.2793C151.576 39.9618 151.202 39.9244 150.978 39.8684C150.586 39.775 150.175 39.6817 149.764 39.607C149.297 39.5136 148.849 39.4575 148.382 39.4015C148.27 39.3642 148.027 39.3081 147.784 39.2895Z" fill="#163C5A"/>
<path d="M149.596 38.338C150.119 38.5248 150.623 38.6929 151.146 38.8796C151.557 39.0104 152.099 39.2905 151.706 39.7574C151.65 39.8134 151.594 39.8695 151.52 39.9068C151.445 39.9255 151.37 39.9255 151.296 39.9255C150.623 39.8695 149.951 39.7574 149.278 39.6454C148.718 39.552 148.139 39.4586 147.56 39.3652C147.486 39.3465 147.392 39.3279 147.336 39.2905C147.224 39.1971 147.224 39.0104 147.261 38.861C147.317 38.5248 147.355 37.9645 147.747 37.8711C147.971 37.8151 148.214 37.8898 148.419 37.9645C148.812 38.0766 149.204 38.2073 149.596 38.338Z" fill="#20F2EC"/>
<path d="M147.728 36.7501C147.616 37.0863 147.56 37.5532 147.71 37.7773C147.84 38.0014 148.177 37.9827 148.401 38.0761C148.737 38.2068 149.092 38.3189 149.428 38.4309C150.119 38.6737 150.81 38.8792 151.501 39.1033C151.594 39.122 151.688 39.1593 151.781 39.1406C152.005 39.0846 152.061 38.8418 152.043 38.6177C151.987 38.0387 150.847 37.5158 150.399 37.2543C150.007 37.0116 149.596 36.8061 149.166 36.6194C148.793 36.4513 148.139 35.9657 147.84 36.4699C147.803 36.5447 147.766 36.638 147.728 36.7501Z" fill="#163C5A"/>
<path d="M148.961 34.7705C148.942 34.7705 148.924 34.7705 148.905 34.7892C148.868 34.8079 148.83 34.8452 148.812 34.8639C148.606 35.1067 148.419 35.3495 148.233 35.6109C148.177 35.6856 148.121 35.779 148.102 35.8724C148.065 36.0405 148.158 36.2273 148.289 36.358C148.513 36.5634 148.849 36.7502 149.11 36.8996C149.615 37.1611 150.138 37.3852 150.66 37.5906C151.165 37.796 151.632 38.0762 152.155 38.263C152.229 38.3003 152.323 38.319 152.397 38.2816C152.453 38.263 152.491 38.2069 152.509 38.1696C152.64 37.9828 152.752 37.796 152.846 37.5906C152.864 37.5346 152.883 37.4786 152.883 37.4225C152.883 37.3852 152.846 37.3478 152.827 37.3105C152.603 37.0303 152.304 36.8249 152.024 36.6194C151.426 36.2086 150.829 35.7977 150.231 35.3868C149.876 35.144 149.521 34.9012 149.129 34.7892C149.036 34.7705 148.998 34.7705 148.961 34.7705Z" fill="#20F2EC"/>
<path d="M150.754 33.6311C150.53 33.463 150.287 33.3323 150.138 33.4257C150.063 33.4817 150.007 33.5377 149.951 33.6124C149.783 33.7992 149.633 34.0046 149.503 34.2101C149.428 34.3221 149.353 34.4342 149.316 34.5649C149.241 34.8451 149.409 34.9758 149.577 35.1065C150.082 35.4427 150.567 35.7975 151.071 36.1337C151.501 36.4325 153.238 37.8146 153.78 36.694C153.948 36.3392 153.611 36.115 153.443 35.947C153.126 35.6295 152.808 35.3306 152.472 35.0318C152.099 34.6956 151.688 34.3782 151.296 34.0607C151.184 33.986 150.978 33.7992 150.754 33.6311Z" fill="#163C5A"/>
<path d="M152.995 33.7056C153.369 34.1539 153.761 34.6208 154.134 35.069C154.433 35.4239 154.788 35.9841 154.134 36.2269C154.06 36.2643 153.966 36.283 153.873 36.2643C153.798 36.2456 153.723 36.2083 153.667 36.1522C153.07 35.7227 152.491 35.2371 151.93 34.7515C151.464 34.3406 150.959 33.9484 150.492 33.5376C150.418 33.4815 150.362 33.4255 150.324 33.3321C150.268 33.1827 150.38 32.996 150.492 32.8839C150.754 32.6038 151.109 32.0621 151.538 32.1929C151.781 32.2676 151.949 32.473 152.117 32.6598C152.435 33.0333 152.715 33.3695 152.995 33.7056Z" fill="#20F2EC"/>
<path d="M152.267 31.3896C151.986 31.6698 151.706 32.0806 151.706 32.3794C151.706 32.6596 152.005 32.7903 152.155 32.9771C152.397 33.2572 152.64 33.5374 152.883 33.7988C153.369 34.3404 153.873 34.8821 154.377 35.405C154.452 35.4797 154.508 35.5544 154.62 35.5731C154.863 35.6104 155.031 35.405 155.124 35.1996C155.367 34.6206 154.638 33.5747 154.396 33.1078C154.172 32.6969 153.91 32.3047 153.649 31.9312C153.406 31.5951 153.088 30.8293 152.565 31.1655C152.453 31.2215 152.36 31.2962 152.267 31.3896Z" fill="#163C5A"/>
<path d="M154.788 30.1573C154.769 30.1387 154.751 30.1387 154.732 30.1387C154.695 30.1387 154.657 30.1387 154.62 30.1573C154.321 30.2507 154.041 30.3628 153.761 30.4935C153.667 30.5309 153.574 30.5682 153.499 30.6429C153.369 30.7737 153.331 30.9604 153.35 31.1285C153.406 31.4087 153.537 31.7261 153.667 31.9876C153.892 32.4545 154.172 32.9027 154.433 33.3323C154.695 33.7619 154.9 34.2288 155.18 34.6396C155.218 34.6957 155.274 34.7704 155.348 34.789C155.404 34.789 155.46 34.7704 155.498 34.7517C155.703 34.6583 155.89 34.5649 156.077 34.4342C156.114 34.3968 156.17 34.3595 156.189 34.3221C156.207 34.2848 156.207 34.2288 156.207 34.1914C156.207 33.8552 156.095 33.5377 155.983 33.2202C155.759 32.5666 155.554 31.9316 155.33 31.2779C155.199 30.9044 155.068 30.5309 154.844 30.2321C154.825 30.1947 154.807 30.176 154.788 30.1573Z" fill="#20F2EC"/>
<path d="M155.647 29.4288C155.311 29.5596 154.919 29.821 154.825 30.0825C154.732 30.3253 154.956 30.5681 155.031 30.7922C155.161 31.1284 155.274 31.4832 155.404 31.8194C155.666 32.4917 155.927 33.1641 156.207 33.8364C156.245 33.9298 156.282 34.0232 156.357 34.0792C156.543 34.2099 156.786 34.0979 156.936 33.9485C157.347 33.5376 157.029 32.305 156.954 31.8007C156.88 31.3525 156.786 30.9043 156.674 30.456C156.562 30.0638 156.543 29.2421 155.946 29.3355C155.871 29.3541 155.759 29.3728 155.647 29.4288Z" fill="#163C5A"/>
<path d="M158 29.1862C157.982 29.1676 157.982 29.1489 157.963 29.1489C157.926 29.1302 157.888 29.1302 157.851 29.1302C157.571 29.1115 157.272 29.1115 156.992 29.1302C156.898 29.1302 156.805 29.1302 156.712 29.1862C156.562 29.261 156.469 29.429 156.45 29.5784C156.413 29.8586 156.469 30.1948 156.506 30.4749C156.581 30.9792 156.712 31.4834 156.842 31.9877C156.973 32.4733 157.01 32.9588 157.16 33.4444C157.179 33.5191 157.216 33.5938 157.272 33.6312C157.309 33.6499 157.365 33.6499 157.421 33.6499C157.627 33.6499 157.832 33.6125 158.019 33.5565C158.075 33.5378 158.131 33.5191 158.15 33.4818C158.168 33.4444 158.187 33.4071 158.206 33.3697C158.299 33.0522 158.28 32.7347 158.262 32.3986C158.243 31.7262 158.206 31.0725 158.187 30.4002C158.168 30.008 158.15 29.6158 158.019 29.261C158.038 29.2423 158.019 29.2049 158 29.1862Z" fill="#20F2EC"/>
<path d="M147.149 43.0997C147.205 42.6888 147.28 42.2779 147.374 41.8857C147.168 41.9418 147.019 42.0538 147 42.2966C147 42.39 147 42.5021 147.019 42.6141C147.037 42.7635 147.093 42.9316 147.149 43.0997Z" fill="#D6D6D6"/>
<path d="M167.189 37.7589C166.703 36.6383 165.994 35.6111 165.06 34.7707C164.91 34.6399 164.761 34.5092 164.593 34.3971C162.725 32.9777 160.241 32.3988 157.926 32.8283C152.808 33.7995 150.231 39.3463 151.669 44.0901C152.211 45.883 153.294 47.4891 154.863 48.535C158.841 51.2244 164.406 49.749 166.778 45.6402C168.16 43.2683 168.253 40.2615 167.189 37.7589Z" fill="#DFEDF4"/>
<path d="M162.949 42.0731C164.481 42.652 166.124 42.8761 167.787 42.8388C168.067 41.1392 167.861 39.3463 167.189 37.7589C166.703 36.6383 165.994 35.6111 165.06 34.7707C164.91 34.6399 164.761 34.5092 164.593 34.3971C162.725 32.9777 160.241 32.3988 157.926 32.8283C157.272 32.9591 156.674 33.1458 156.114 33.4073C156.488 37.1612 159.55 40.8031 162.949 42.0731Z" fill="#E8F2F7"/>
<path d="M166.349 45.3226C163.547 45.9949 160.596 45.5467 158.168 43.9779C155.909 42.5024 154.284 40.1679 154.06 37.4412C153.985 36.5821 153.985 35.667 154.078 34.7705C151.632 37.0303 150.661 40.7656 151.669 44.0899C152.211 45.8828 153.294 47.489 154.863 48.5349C158.841 51.2242 164.406 49.7488 166.778 45.64C166.872 45.472 166.965 45.3039 167.04 45.1358C166.815 45.2105 166.591 45.2665 166.349 45.3226Z" fill="#D4E3EB"/>
<path d="M157.87 47.5641C153.331 46.0887 151.987 41.2142 152.472 36.8066C151.258 38.9544 150.922 41.6251 151.669 44.0904C152.211 45.8833 153.294 47.4894 154.863 48.5353C158.598 51.0566 163.734 49.9173 166.311 46.3502C163.678 47.8069 160.671 48.4979 157.87 47.5641Z" fill="#CCDDE6"/>
<path d="M163.902 43.9041C163.547 43.4559 163.286 42.9329 162.987 42.4287C162.501 41.6069 162.072 40.7665 161.623 39.9261C161.082 38.8802 160.559 37.8157 160.092 36.7324C159.943 36.3776 159.831 36.0041 159.662 35.6492C159.457 35.1823 159.308 34.7154 159.027 34.2672C159.009 34.2298 158.971 34.1738 158.915 34.1551C158.841 34.1178 158.766 34.1551 158.71 34.1925C158.449 34.3045 158.206 34.4166 157.944 34.5286C157.757 34.622 157.496 34.6407 157.403 34.8461C157.272 35.1263 157.272 35.5372 157.216 35.8547C157.216 36.0414 157.141 36.2655 157.104 36.4523C157.066 36.6764 157.01 36.9005 156.973 37.1246C156.898 37.5168 156.805 37.8717 156.693 38.2639C156.394 39.3097 155.965 40.2996 155.479 41.2707C155.348 41.5322 155.199 41.775 155.031 42.0178C154.62 42.6154 155.33 42.5034 155.684 42.3726C156.133 42.2046 156.562 42.0365 156.992 41.8497C157.16 41.775 157.347 41.7377 157.44 41.5882C157.533 41.4388 157.533 41.2334 157.608 41.0653C157.72 40.7665 157.795 40.4303 157.907 40.1315C158.15 39.3845 158.411 38.6561 158.617 37.909C158.598 38.0024 158.747 38.2826 158.785 38.3759C158.841 38.544 158.897 38.7308 158.971 38.8989C159.102 39.2537 159.214 39.6272 159.326 39.9821C159.7 41.1774 160.036 42.3726 160.279 43.6053C160.466 44.5391 160.69 45.5663 160.615 46.5188C160.615 46.6308 160.615 46.7615 160.727 46.7802C160.764 46.7802 160.783 46.7802 160.82 46.7615C161.717 46.3693 162.595 45.9211 163.454 45.4169C163.697 45.2674 163.939 45.1367 164.182 44.9873C164.275 44.9313 164.462 44.8379 164.518 44.7258C164.612 44.5764 164.257 44.3523 164.163 44.2589C164.089 44.1282 163.995 44.0161 163.902 43.9041Z" fill="#262C38"/>
</g>
<g clip-path="url(#clip4)">
<path d="M157.714 21.1353C158.156 21.5843 158.575 22.0554 158.995 22.5264C159.26 22.7958 159.503 23.0427 159.768 23.3121C159.857 23.4019 159.99 23.4921 159.899 23.6696C159.786 23.8691 159.609 23.7787 159.497 23.7555C158.609 23.4812 157.742 23.1849 156.876 22.8885C156.809 22.8657 156.743 22.8429 156.654 22.7976C156.451 23.1302 156.248 23.4627 156.045 23.7952C155.841 24.1278 155.594 24.4599 155.391 24.7925C155.278 24.9475 155.122 24.9686 155.012 24.8563C154.923 24.7665 154.902 24.655 154.858 24.521C154.751 24.0524 154.621 23.5613 154.558 23.0485C154.516 22.7363 154.384 22.5571 154.095 22.488C153.606 22.3505 153.139 22.1909 152.695 22.0538C152.539 21.9857 152.406 21.9401 152.273 21.85C152.007 21.6697 152.076 21.4252 152.389 21.2495C152.523 21.1614 152.68 21.1404 152.836 21.0748C153.394 20.8787 153.953 20.6826 154.511 20.4865C154.891 20.3336 154.914 20.3115 154.917 19.9105C154.944 19.3093 154.993 18.686 154.998 18.0624C154.998 18.0178 154.977 17.9508 154.999 17.8842C155.067 17.7733 155.113 17.5955 155.225 17.5741C155.314 17.5302 155.492 17.5762 155.558 17.6881C155.734 17.9122 155.866 18.136 156.02 18.3822C156.285 18.7407 156.549 19.0992 156.814 19.4576C156.946 19.6369 157.102 19.6604 157.348 19.5509C157.817 19.3541 158.286 19.2019 158.777 19.0276C158.934 18.962 159.067 18.963 159.177 19.1198C159.265 19.2541 159.175 19.3871 159.063 19.4976C158.591 20.0062 158.164 20.5597 157.714 21.1353Z" fill="#00F0E9"/>
</g>
<g clip-path="url(#clip5)">
<path d="M172.563 25C171.592 24.9577 171 24.4507 171 23.6056C171 22.7183 171.718 22 172.563 22C173.451 22 174.127 22.6338 174.127 23.4789C174.085 24.3662 173.451 25 172.563 25Z" fill="#FF2968"/>
</g>
<g clip-path="url(#clip6)">
<path d="M131.689 90.3536C131.689 90.3536 128.228 80.6191 116.438 87.3791C111.463 90.1913 108.002 90.7321 105.622 90.3536C104.324 90.1373 103.513 91.6515 104.324 92.679C108.435 97.8167 117.033 103.982 131.689 95.8157V90.3536Z" fill="#262C38"/>
<path d="M131.311 90.3546C131.311 90.3546 134.772 80.62 146.561 87.3801C151.537 90.1923 154.998 90.7331 157.378 90.3546C158.676 90.1382 159.487 91.6525 158.676 92.68C154.565 97.8177 145.967 103.983 131.311 95.8167V90.3546V90.3546Z" fill="#262C38"/>
</g>
<path d="M197.449 54.1938C197.392 54.0921 197.335 53.9905 197.248 53.9007C196.949 53.539 196.65 53.1773 196.381 52.8038C196.059 52.3806 195.705 51.9694 195.383 51.5462C195.349 51.506 195.326 51.4445 195.344 51.4019C195.429 51.21 195.545 51.0062 195.661 50.8024C196.12 51.0312 196.58 51.26 197.049 51.4674C197.518 51.6749 197.928 51.9582 198.435 52.0804C198.444 52.0591 198.454 52.0378 198.463 52.0165C198.345 51.9386 198.245 51.818 198.117 51.7614C197.518 51.4453 196.93 51.1599 196.331 50.8438C196.139 50.7589 195.956 50.6527 195.752 50.5371C195.847 50.3238 195.941 50.1106 196.035 49.8974C197.105 49.7842 198.173 49.6189 199.23 49.475C199.24 49.4536 199.228 49.4229 199.237 49.4016C199.121 49.3757 199.005 49.3499 198.901 49.3548C198.537 49.3721 198.163 49.4106 197.789 49.4492C197.28 49.5045 196.78 49.5386 196.272 49.5939C196.241 49.6058 196.219 49.5964 196.167 49.5989C196.247 49.3028 196.339 49.0375 196.419 48.7414C196.464 48.5828 196.499 48.4454 196.492 48.2892C196.496 48.1637 196.546 48.1091 196.659 48.0829C196.813 48.0234 196.976 47.9427 197.151 47.8926C198.334 47.5236 199.556 47.2988 200.808 47.2918C201.35 47.2767 201.897 47.3656 202.409 47.592C203.295 48.0094 203.651 48.7024 203.435 49.652C203.287 50.2749 202.968 50.8223 202.553 51.3013C202.444 51.4317 202.345 51.5407 202.215 51.6617C201.815 52.0459 201.587 52.5056 201.476 53.0432C201.343 53.7489 201.124 54.4168 200.789 55.059C200.567 55.4452 200.302 55.8126 199.95 56.0903C199.437 56.5007 198.895 56.5159 198.301 56.3039C197.154 55.8988 196.192 55.1927 195.477 54.214C195.131 53.7293 194.855 53.1995 194.54 52.703C194.483 52.6013 194.48 52.5492 194.57 52.4614C194.778 52.222 194.964 51.9731 195.172 51.7336C195.317 51.9251 195.471 52.0952 195.616 52.2867C196.048 52.8091 196.458 53.3221 196.899 53.8232C196.999 53.9437 197.129 54.0524 197.26 54.161C197.293 54.2012 197.345 54.1988 197.388 54.2176C197.409 54.227 197.419 54.2057 197.449 54.1938Z" fill="#262C38"/>
<path d="M191.393 48.4059C190.436 48.0336 189.576 47.5001 188.63 47.1586C188.621 47.1799 188.612 47.2012 188.602 47.2225C188.657 47.2721 188.711 47.3218 188.797 47.3595C189.214 47.5694 189.609 47.7699 190.026 47.9799C190.443 48.1898 190.882 48.4092 191.32 48.6285C191.256 48.8299 191.181 49.0005 191.127 49.1805C190.698 49.1694 190.27 49.1583 189.872 49.1354C189.474 49.1124 189.055 49.08 188.636 49.0477C188.627 49.069 188.617 49.0903 188.62 49.1424C188.705 49.1801 188.781 49.2391 188.854 49.2461C189.16 49.3047 189.475 49.3421 189.768 49.3699C190.187 49.4023 190.606 49.4347 191.026 49.4671C190.99 49.6045 190.964 49.7205 190.939 49.8365C190.908 50.0781 190.89 50.3503 190.881 50.6013C190.874 50.6747 190.876 50.7268 190.784 50.7624C189.668 51.2119 188.534 51.5264 187.327 51.6043C186.828 51.6384 186.335 51.599 185.913 51.2849C185.567 51.0299 185.332 50.6965 185.23 50.2943C185.029 49.5939 185.08 48.9026 185.321 48.244C185.382 47.9906 185.483 47.704 185.627 47.4362C185.978 46.6994 186.192 45.9272 186.437 45.1432C186.755 44.1365 187.17 43.1984 187.895 42.4229C188.084 42.2261 188.306 42.0695 188.529 41.9128C189.096 41.552 189.593 41.4659 190.361 42.035C190.816 42.3893 191.151 42.8432 191.415 43.3422C191.951 44.3189 192.457 45.3075 192.985 46.3056C192.997 46.3363 193.03 46.3765 193.009 46.3671C192.602 46.8247 192.205 47.261 191.818 47.676C191.543 47.3758 191.256 47.0449 190.947 46.7046C190.772 46.525 190.596 46.3454 190.442 46.1752C190.387 46.1256 190.354 46.0854 190.29 46.0571C190.226 46.0289 190.132 46.0125 190.058 46.0055C190.082 46.067 190.087 46.1711 190.12 46.2113C190.585 46.7739 191.071 47.3459 191.527 47.9298C191.56 47.97 191.553 48.0434 191.544 48.0647C191.527 48.1594 191.45 48.2779 191.393 48.4059Z" fill="#262C38"/>
<path d="M195.524 50.1311C195.244 50.8229 194.899 51.4863 194.384 52.0744C194.285 52.1834 194.183 52.2404 194.027 52.2478C193.061 52.3561 192.263 52.0285 191.566 51.4142C191.251 51.1473 191.12 50.809 191.183 50.3781C191.33 49.2959 191.733 48.327 192.477 47.5089C192.666 47.3121 192.834 47.1058 193.023 46.909C193.302 46.6244 193.64 46.4936 194.05 46.5473C194.9 46.6429 195.556 47.0607 196.088 47.7036C196.188 47.8242 196.235 47.9472 196.2 48.0846C196.085 48.518 195.969 48.9514 195.833 49.3754C195.762 49.6501 195.628 49.8966 195.524 50.1311Z" fill="#262C38"/>
<g clip-path="url(#clip7)">
<path d="M229.106 27.8527C229.148 27.8793 228.93 28.0394 228.472 28.1094C228.057 28.206 227.375 28.255 226.629 28.0272C225.883 27.7994 225.03 27.2682 224.485 26.3369C223.94 25.4057 223.805 24.1969 224.048 23.046C224.17 22.4705 224.361 21.879 224.722 21.3937C224.882 21.1378 225.153 20.8923 225.397 20.6895C225.642 20.4867 225.972 20.337 226.276 20.23C226.925 20.0425 227.665 20.0892 228.236 20.5038C228.849 20.9448 229.096 21.6901 229.033 22.3614C229.001 22.697 228.858 23.0221 228.603 23.3368C228.374 23.6088 228.044 23.7585 227.698 23.8389C227.033 23.9572 226.484 23.793 226.057 23.5274C225.647 23.331 225.289 23.0493 225.044 22.778C224.799 22.5068 224.569 22.3047 224.409 22.0866C223.742 21.2568 223.25 20.2403 223.068 19.2978C222.885 18.3553 222.969 17.4604 223.213 16.7835C223.456 16.1067 223.818 15.6214 224.116 15.3333C224.43 15.1144 224.637 15.0661 224.68 15.0927C224.824 15.2416 224.271 15.8444 224.044 17.0645C223.965 17.6665 223.945 18.3643 224.165 19.1522C224.342 19.9136 224.785 20.7225 225.351 21.4299C225.468 21.6215 225.698 21.8235 225.9 22.0682C226.13 22.2702 226.359 22.4723 226.658 22.6582C227.255 23.0301 227.894 22.9544 227.973 22.3524C228.047 22.0434 227.881 21.6442 227.625 21.4848C227.353 21.2562 226.906 21.2143 226.49 21.3109C226.075 21.4075 225.692 21.6424 225.426 22.069C225.145 22.4263 224.964 22.906 224.827 23.4122C224.578 24.382 224.638 25.4259 224.996 26.1816C225.397 26.964 226.069 27.5008 226.746 27.7447C227.396 28.0313 227.982 28.041 228.413 28.0136C228.855 27.8744 229.063 27.8262 229.106 27.8527Z" fill="#FF0B53"/>
</g>
<g clip-path="url(#clip8)">
<path d="M213.105 59.6199C213.105 59.079 213.132 58.5381 213.159 57.9971C213.159 57.6726 213.159 57.3751 213.159 57.0505C213.159 56.9423 213.132 56.8071 213.295 56.753C213.484 56.6989 213.538 56.8612 213.592 56.9423C213.971 57.6455 214.322 58.3488 214.674 59.052C214.701 59.1061 214.728 59.1601 214.755 59.2413C215.08 59.1601 215.404 59.079 215.729 58.9979C216.053 58.9167 216.405 58.8626 216.729 58.7815C216.892 58.7544 217 58.8356 217 58.9708C217 59.079 216.946 59.1601 216.892 59.2683C216.675 59.6199 216.459 59.9986 216.189 60.3502C216.026 60.5666 215.999 60.7559 216.134 60.9723C216.351 61.3509 216.54 61.7296 216.729 62.0812C216.784 62.2164 216.838 62.3246 216.865 62.4598C216.919 62.7303 216.729 62.8385 216.432 62.7573C216.297 62.7303 216.189 62.6492 216.053 62.5951C215.594 62.3787 215.134 62.1623 214.674 61.9459C214.349 61.8107 214.322 61.8107 214.079 62.0541C213.7 62.4057 213.295 62.7573 212.916 63.136C212.889 63.163 212.862 63.2171 212.808 63.2442C212.7 63.2712 212.564 63.3524 212.483 63.2983C212.402 63.2712 212.321 63.136 212.348 63.0278C212.375 62.7844 212.429 62.568 212.483 62.3246C212.537 61.9459 212.591 61.5673 212.645 61.1886C212.672 60.9993 212.591 60.8911 212.375 60.81C211.969 60.6477 211.591 60.4584 211.185 60.2691C211.05 60.215 210.969 60.1338 210.996 59.9715C211.023 59.8363 211.158 59.8093 211.293 59.8093C211.888 59.7822 212.483 59.7011 213.105 59.6199Z" fill="#00F0E9"/>
</g>
<g clip-path="url(#clip9)">
<path d="M215.042 16C214.394 15.9718 214 15.6338 214 15.0704C214 14.4789 214.479 14 215.042 14C215.634 14 216.084 14.4225 216.084 14.9859C216.056 15.5775 215.634 16 215.042 16Z" fill="#262C38"/>
</g>
<g clip-path="url(#clip10)">
<path d="M239.409 31C238.437 30.9577 237.846 30.4507 237.846 29.6056C237.846 28.7183 238.564 28 239.409 28C240.296 28 240.972 28.6338 240.972 29.4789C240.93 30.3662 240.296 31 239.409 31Z" fill="#262C38"/>
</g>
<g clip-path="url(#clip11)">
<path d="M259.563 82C258.591 81.9577 258 81.4507 258 80.6056C258 79.7183 258.718 79 259.563 79C260.451 79 261.127 79.6338 261.127 80.4789C261.084 81.3662 260.451 82 259.563 82Z" fill="#262C38"/>
</g>
<path d="M259.711 94.2163C259.75 94.2238 259.634 94.4032 259.317 94.5836C259.038 94.7717 258.55 94.9997 257.936 95.0421C257.323 95.0844 256.545 94.9334 255.882 94.4012C255.218 93.8689 254.779 93.0169 254.634 92.101C254.561 91.6431 254.535 91.1538 254.664 90.6947C254.71 90.4614 254.84 90.2043 254.963 89.9861C255.086 89.7678 255.287 89.5647 255.48 89.4005C255.906 89.0796 256.464 88.9055 257.001 89.05C257.577 89.2021 257.968 89.6816 258.111 90.1935C258.182 90.4494 258.168 90.7292 258.069 91.0327C257.977 91.2974 257.776 91.5005 257.544 91.6572C257.087 91.9317 256.637 91.9653 256.248 91.8898C255.891 91.8608 255.548 91.754 255.291 91.6234C255.034 91.4928 254.808 91.4086 254.629 91.2931C253.904 90.8699 253.256 90.2599 252.856 89.6174C252.456 88.9749 252.266 88.2923 252.255 87.7253C252.244 87.1582 252.373 86.6991 252.511 86.4031C252.681 86.1536 252.82 86.0596 252.859 86.0671C253.007 86.1362 252.77 86.7357 252.946 87.698C253.057 88.1635 253.239 88.683 253.623 89.2013C253.967 89.7121 254.522 90.1828 255.137 90.5444C255.278 90.6524 255.504 90.7366 255.722 90.8596C255.948 90.9438 256.173 91.028 256.446 91.0808C256.99 91.1865 257.439 90.9508 257.328 90.4854C257.295 90.2369 257.061 89.9897 256.828 89.9444C256.563 89.8527 256.222 89.9478 255.943 90.1359C255.664 90.3239 255.448 90.6048 255.373 90.9937C255.266 91.3361 255.269 91.74 255.31 92.1515C255.4 92.9357 255.738 93.6873 256.214 94.1429C256.73 94.6061 257.376 94.8122 257.943 94.8012C258.502 94.8291 258.936 94.6713 259.246 94.5297C259.532 94.3027 259.672 94.2087 259.711 94.2163Z" fill="#262C38"/>
<circle cx="231.5" cy="67.5" r="1.5" fill="#FF0B53"/>
<path d="M250.648 39.0144C247.627 40.3987 244.024 39.0785 242.63 36.0362L238.523 37.9184L245.823 53.8469C246.669 55.694 245.857 57.8806 244.01 58.7271C242.163 59.5736 239.976 58.7613 239.13 56.9142C238.283 55.0671 239.096 52.8806 240.943 52.0341C241.29 51.8747 241.701 51.7389 242.077 51.6982L240.155 47.5042C239.788 47.6201 239.43 47.7577 239.061 47.927C234.932 49.8192 233.119 54.6993 235.011 58.8281C236.903 62.957 241.783 64.7698 245.912 62.8776C250.041 60.9854 251.854 56.1053 249.962 51.9765L246.098 43.545C248.155 44.0748 250.406 43.9372 252.492 42.9812L250.669 39.0045L250.648 39.0144Z" fill="#FF0B53"/>
<path d="M248.946 38.4012C245.904 39.7954 242.313 38.4435 240.929 35.4229L236.822 37.3051L244.122 53.2336C244.968 55.0807 244.156 57.2673 242.309 58.1138C240.462 58.9603 238.275 58.1481 237.429 56.301C236.582 54.4539 237.394 52.2673 239.241 51.4208C239.589 51.2615 240 51.1257 240.376 51.0849L238.454 46.8909C238.086 47.0068 237.729 47.1444 237.359 47.3137C233.22 49.1842 231.408 54.0643 233.3 58.1931C235.192 62.3219 240.072 64.1348 244.201 62.2426C248.33 60.3504 250.143 55.4703 248.25 51.3415L244.386 42.91C246.444 43.4398 248.694 43.3022 250.781 42.3462L248.968 38.3912L248.946 38.4012Z" fill="#00F0E9"/>
<path d="M249.414 39.4218C247.959 39.7468 246.459 39.5141 245.189 38.8078C243.765 38.5135 242.477 37.7103 241.587 36.5142L238.523 37.9184L245.823 53.8469C246.669 55.694 245.857 57.8806 244.01 58.7271C242.793 59.2848 241.408 59.1308 240.373 58.4218C239.126 58.2832 237.986 57.5172 237.419 56.2786C236.572 54.4315 237.384 52.2449 239.232 51.3984C239.579 51.2391 239.99 51.1033 240.366 51.0625L238.952 47.9768C234.896 49.9142 233.129 54.7211 235.011 58.8281C235.818 60.5883 237.173 61.9393 238.782 62.7533C240.532 63.1871 242.419 63.0586 244.201 62.2419C248.33 60.3498 250.143 55.4696 248.25 51.3408L244.386 42.9093C246.444 43.4391 248.694 43.3016 250.781 42.3455L249.436 39.4119L249.414 39.4218Z" fill="#262C38"/>
<g clip-path="url(#clip12)">
<path d="M39.2149 14.7758C39.2091 14.7259 39.4703 14.7967 39.8104 15.1113C40.1446 15.376 40.6078 15.8786 40.8944 16.6041C41.1811 17.3296 41.2971 18.3278 40.9082 19.3342C40.5193 20.3405 39.658 21.1994 38.6063 21.7264C38.0805 21.9898 37.4989 22.2092 36.8941 22.2289C36.5947 22.2637 36.2337 22.2045 35.9226 22.1394C35.6115 22.0744 35.2888 21.9096 35.0161 21.7389C34.4647 21.3477 34.0399 20.7395 34.0086 20.0349C33.9715 19.2804 34.401 18.6234 34.9652 18.2543C35.2473 18.0698 35.5909 17.9793 35.996 17.9828C36.3511 17.9921 36.6738 18.1569 36.9524 18.3775C37.4596 18.8244 37.6732 19.3561 37.7312 19.8552C37.8333 20.2986 37.8356 20.7536 37.7764 21.1146C37.7172 21.4756 37.7021 21.7809 37.6312 22.042C37.3979 23.0809 36.9091 24.0989 36.2858 24.8289C35.6624 25.559 34.9102 26.0511 34.2288 26.2821C33.5475 26.513 32.9427 26.5327 32.5318 26.4793C32.165 26.3702 31.9979 26.2379 31.9921 26.1879C32.0188 25.9825 32.8348 26.0394 33.9306 25.4568C34.4506 25.1434 35.0089 24.7244 35.4884 24.0616C35.9736 23.4488 36.33 22.598 36.5309 21.7146C36.6075 21.5034 36.6226 21.1981 36.6876 20.887C36.7027 20.5818 36.7178 20.2765 36.6772 19.9271C36.596 19.2283 36.1387 18.7756 35.6187 19.089C35.3308 19.2236 35.1218 19.602 35.1566 19.9015C35.1473 20.2567 35.3934 20.6328 35.7277 20.8974C36.0619 21.1621 36.4845 21.3153 36.9836 21.2573C37.4386 21.255 37.9261 21.0972 38.4078 20.8894C39.3214 20.4798 40.1003 19.7822 40.4683 19.0312C40.8305 18.2303 40.8317 17.3702 40.6007 16.6888C40.4197 16.0016 40.0622 15.5373 39.772 15.2169C39.3878 14.958 39.2207 14.8257 39.2149 14.7758Z" fill="#FF0B53"/>
</g>
<g clip-path="url(#clip13)">
<path d="M44.1053 39.6199C44.1053 39.079 44.1324 38.5381 44.1594 37.9971C44.1594 37.6726 44.1594 37.3751 44.1594 37.0505C44.1594 36.9423 44.1324 36.8071 44.2947 36.753C44.484 36.6989 44.5381 36.8612 44.5922 36.9423C44.9708 37.6455 45.3224 38.3488 45.674 39.052C45.7011 39.1061 45.7281 39.1601 45.7552 39.2413C46.0797 39.1601 46.4043 39.079 46.7289 38.9979C47.0534 38.9167 47.405 38.8626 47.7296 38.7815C47.8919 38.7544 48 38.8356 48 38.9708C48 39.079 47.946 39.1601 47.8919 39.2683C47.6755 39.6199 47.4591 39.9986 47.1886 40.3502C47.0264 40.5666 46.9993 40.7559 47.1346 40.9723C47.3509 41.3509 47.5403 41.7296 47.7296 42.0812C47.7837 42.2164 47.8378 42.3246 47.8648 42.4598C47.9189 42.7303 47.7296 42.8385 47.4321 42.7573C47.2968 42.7303 47.1886 42.6492 47.0534 42.5951C46.5936 42.3787 46.1338 42.1623 45.674 41.9459C45.3495 41.8107 45.3224 41.8107 45.079 42.0541C44.7004 42.4057 44.2947 42.7573 43.916 43.136C43.889 43.163 43.8619 43.2171 43.8078 43.2442C43.6996 43.2712 43.5644 43.3524 43.4833 43.2983C43.4021 43.2712 43.321 43.136 43.348 43.0278C43.3751 42.7844 43.4292 42.568 43.4833 42.3246C43.5374 41.9459 43.5915 41.5673 43.6455 41.1886C43.6726 40.9993 43.5915 40.8911 43.3751 40.81C42.9694 40.6477 42.5907 40.4584 42.185 40.2691C42.0498 40.215 41.9687 40.1338 41.9957 39.9715C42.0228 39.8363 42.158 39.8093 42.2932 39.8093C42.8882 39.7822 43.4833 39.7011 44.1053 39.6199Z" fill="#00F0E9"/>
</g>
<g clip-path="url(#clip14)">
<path d="M27.0423 94C26.3944 93.9718 26 93.6338 26 93.0704C26 92.4789 26.4789 92 27.0423 92C27.6338 92 28.0846 92.4225 28.0846 92.9859C28.0564 93.5775 27.6338 94 27.0423 94Z" fill="#FF2968"/>
</g>
<path d="M25.8428 25.2504C25.8896 25.8972 25.5994 26.328 25.0398 26.393C24.4522 26.4613 23.9212 26.0409 23.8562 25.4813C23.7879 24.8937 24.1555 24.3973 24.7152 24.3322C25.306 24.2919 25.7745 24.6628 25.8428 25.2504Z" fill="#262C38"/>
<path d="M49.622 55.6966C46.8528 55.0532 45.1047 52.2742 45.7529 49.485L41.9875 48.6101L38.5942 63.2132C38.2007 64.9066 36.5067 65.9619 34.8132 65.5684C33.1198 65.1749 32.0646 63.4808 32.4581 61.7874C32.8516 60.094 34.5457 59.0388 36.2391 59.4323C36.5578 59.5063 36.9072 59.6295 37.1829 59.7986L38.0763 55.9535C37.7668 55.8396 37.4527 55.7456 37.114 55.6669C33.3288 54.7874 29.5478 57.1425 28.6682 60.9277C27.7886 64.713 30.1438 68.494 33.929 69.3736C37.7143 70.2531 41.4953 67.898 42.3748 64.1127L44.171 56.3828C45.2864 57.8179 46.8822 58.9027 48.7948 59.3471L49.6419 55.7013L49.622 55.6966Z" fill="#FF0B53"/>
<path d="M48.7914 54.3919C46.0022 53.7438 44.2787 50.9496 44.9222 48.1804L41.1569 47.3054L37.7636 61.9085C37.3701 63.602 35.676 64.6572 33.9826 64.2637C32.2892 63.8702 31.234 62.1761 31.6275 60.4827C32.021 58.7893 33.715 57.7341 35.4085 58.1276C35.7272 58.2016 36.0766 58.3248 36.3522 58.4939L37.2457 54.6488C36.9362 54.5349 36.6221 54.4409 36.2834 54.3622C32.5028 53.4627 28.7218 55.8179 27.8422 59.6031C26.9626 63.3884 29.3178 67.1694 33.103 68.0489C36.8883 68.9285 40.6693 66.5734 41.5488 62.7881L43.345 55.0582C44.4604 56.4933 46.0562 57.578 47.9688 58.0225L48.8113 54.3966L48.7914 54.3919Z" fill="#00F0E9"/>
<path d="M48.574 55.3271C47.4189 54.7857 46.525 53.8431 46.0347 52.7002C45.2251 51.7562 44.7732 50.5383 44.7966 49.2628L41.9875 48.6101L38.5942 63.2132C38.2007 64.9066 36.5066 65.9619 34.8132 65.5684C33.6976 65.3091 32.8403 64.48 32.5108 63.4585C31.7392 62.7123 31.3684 61.5972 31.6323 60.4616C32.0258 58.7682 33.7198 57.713 35.4133 58.1065C35.732 58.1805 36.0814 58.3037 36.357 58.4728L37.0144 55.6438C33.2551 54.8332 29.5432 57.1624 28.6682 60.9277C28.2932 62.5415 28.5039 64.1653 29.1671 65.5583C30.1249 66.7678 31.4696 67.6682 33.1032 68.0478C36.8885 68.9273 40.6694 66.5722 41.549 62.7869L43.3452 55.057C44.4606 56.4921 46.0564 57.5769 47.9689 58.0213L48.5939 55.3317L48.574 55.3271Z" fill="#262C38"/>
<g clip-path="url(#clip15)">
<path d="M103.246 11.0821C103.208 11.0736 103.328 10.8973 103.65 10.7253C103.934 10.5447 104.428 10.3296 105.042 10.3034C105.656 10.2773 106.43 10.4487 107.079 10.9983C107.728 11.5478 108.145 12.4112 108.266 13.3306C108.326 13.7903 108.34 14.28 108.198 14.7355C108.147 14.9676 108.009 15.2212 107.881 15.4361C107.752 15.651 107.546 15.8487 107.348 16.0078C106.914 16.3174 106.352 16.4767 105.819 16.318C105.247 16.1508 104.869 15.6612 104.74 15.1457C104.675 14.888 104.696 14.6087 104.804 14.3079C104.902 14.0457 105.108 13.848 105.345 13.6975C105.809 13.4351 106.26 13.4134 106.646 13.4991C107.003 13.5375 107.342 13.6533 107.596 13.7907C107.85 13.928 108.073 14.0181 108.249 14.1383C108.963 14.5804 109.595 15.2073 109.978 15.8602C110.36 16.513 110.533 17.2004 110.529 17.7675C110.525 18.3346 110.383 18.7901 110.237 19.0824C110.061 19.3274 109.919 19.4177 109.881 19.4091C109.735 19.3362 109.988 18.7431 109.837 17.7765C109.738 17.3082 109.57 16.7842 109.2 16.2559C108.869 15.7362 108.327 15.2511 107.721 14.8733C107.584 14.7617 107.36 14.6716 107.145 14.5428C106.922 14.4527 106.698 14.3626 106.428 14.3026C105.886 14.1827 105.431 14.4063 105.53 14.8746C105.556 15.1238 105.784 15.3771 106.016 15.4286C106.278 15.5272 106.622 15.4411 106.905 15.2605C107.189 15.0799 107.412 14.8048 107.498 14.418C107.613 14.0785 107.622 13.6747 107.591 13.2622C107.522 12.476 107.204 11.7157 106.74 11.2477C106.237 10.771 105.596 10.548 105.029 10.544C104.471 10.5014 104.032 10.6477 103.719 10.7811C103.427 11.0004 103.285 11.0907 103.246 11.0821Z" fill="#262C38"/>
</g>
<g clip-path="url(#clip16)">
<path d="M103.563 29.8086C102.592 29.7663 102 29.2593 102 28.4142C102 27.5269 102.718 26.8086 103.563 26.8086C104.451 26.8086 105.127 27.4424 105.127 28.2875C105.085 29.1748 104.451 29.8086 103.563 29.8086Z" fill="#262C38"/>
</g>
<path d="M84.888 8.13724L86.6082 20.5745L87.1372 24.4492L66.2766 30.8502L64.5414 27.3456L58.9897 16.0841L68.4671 20.7842L70.5454 7.56956L79.6779 17.3442L84.888 8.13724Z" fill="#FF0B53"/>
<path d="M87.5602 27.8524L67.8349 33.905C66.3803 34.3513 64.8504 33.5398 64.404 32.0853C63.9577 30.6307 64.7692 29.1007 66.2238 28.6544L85.9491 22.6018C87.4037 22.1554 88.9337 22.9669 89.38 24.4215C89.8263 25.8761 89.0148 27.4061 87.5602 27.8524Z" fill="#FF0B53"/>
<path d="M59.6426 18.2115C60.7399 17.8748 61.3564 16.7124 61.0197 15.6151C60.683 14.5179 59.5206 13.9014 58.4234 14.238C57.3261 14.5747 56.7096 15.7371 57.0463 16.8344C57.383 17.9316 58.5454 18.5482 59.6426 18.2115Z" fill="#FF0B53"/>
<path d="M71.1551 9.55621C72.2523 9.21953 72.8689 8.05711 72.5322 6.95987C72.1955 5.86263 71.0331 5.24608 69.9358 5.58276C68.8386 5.91945 68.222 7.08187 68.5587 8.17911C68.8954 9.27634 70.0578 9.89289 71.1551 9.55621Z" fill="#FF0B53"/>
<path d="M85.5411 10.2662C86.6383 9.92949 87.2549 8.76707 86.9182 7.66983C86.5815 6.57259 85.4191 5.95604 84.3219 6.29273C83.2246 6.62941 82.6081 7.79183 82.9448 8.88907C83.2814 9.9863 84.4439 10.6029 85.5411 10.2662Z" fill="#FF0B53"/>
<path d="M87.888 9.13724L89.6082 21.5745L90.1372 25.4492L69.2766 31.8502L67.5414 28.3456L61.9897 17.0841L71.4671 21.7842L73.5454 8.56956L82.6779 18.3442L87.888 9.13724Z" fill="#00F0E9"/>
<path d="M90.5602 28.8524L70.8349 34.905C69.3803 35.3513 67.8504 34.5398 67.404 33.0853C66.9577 31.6307 67.7692 30.1007 69.2238 29.6544L88.9491 23.6018C90.4037 23.1554 91.9337 23.9669 92.38 25.4215C92.8263 26.8761 92.0148 28.4061 90.5602 28.8524Z" fill="#00F0E9"/>
<path d="M62.6426 19.2115C63.7399 18.8748 64.3564 17.7124 64.0197 16.6151C63.683 15.5179 62.5206 14.9014 61.4234 15.238C60.3261 15.5747 59.7096 16.7371 60.0463 17.8344C60.383 18.9316 61.5454 19.5482 62.6426 19.2115Z" fill="#00F0E9"/>
<path d="M74.1551 10.5562C75.2523 10.2195 75.8689 9.05711 75.5322 7.95987C75.1955 6.86263 74.0331 6.24608 72.9358 6.58276C71.8386 6.91945 71.222 8.08187 71.5587 9.17911C71.8954 10.2763 73.0578 10.8929 74.1551 10.5562Z" fill="#00F0E9"/>
<path d="M88.5411 11.2662C89.6383 10.9295 90.2549 9.76707 89.9182 8.66983C89.5815 7.57259 88.4191 6.95604 87.3219 7.29273C86.2246 7.62941 85.6081 8.79183 85.9448 9.88907C86.2814 10.9863 87.4439 11.6029 88.5411 11.2662Z" fill="#00F0E9"/>
<path d="M86.0702 8.0806L87.7903 20.5178L88.3194 24.3925L67.4588 30.7935L65.7235 27.2889L60.1718 16.0274L69.6492 20.7275L71.7276 7.51292L80.86 17.2875L86.0702 8.0806Z" fill="#262C38"/>
<path d="M86.0702 8.08049L87.7904 20.5177L88.3194 24.3924L67.4588 30.7934L65.7453 27.3598L79.7943 23.0489C83.5194 21.9059 85.8495 18.2408 85.3205 14.3661L84.7725 10.3031L86.0702 8.08049Z" fill="#163C5A"/>
<path d="M71.3359 19.8989C70.7985 19.7921 70.4115 19.2897 70.5183 18.7523L70.9625 15.8988C71.0693 15.3614 71.5716 14.9744 72.109 15.0812C72.6465 15.188 73.0335 15.6903 72.9267 16.2277L72.4825 19.0813C72.3757 19.6187 71.8624 19.9702 71.3359 19.8989Z" fill="#40F4EF"/>
<path d="M87.7902 20.5189L88.3193 24.3936L67.4587 30.7946L65.7234 27.29L87.7902 20.5189Z" fill="#FF1A5E"/>
<path d="M88.7424 27.7957L69.017 33.8484C67.5625 34.2947 66.0325 33.4832 65.5862 32.0286C65.1398 30.5741 65.9513 29.0441 67.4059 28.5978L87.1312 22.5451C88.5858 22.0988 90.1158 22.9103 90.5621 24.3649C91.0084 25.8194 90.1969 27.3494 88.7424 27.7957Z" fill="#163C5A"/>
<path d="M85.0882 28.917L69.017 33.8484C67.5625 34.2947 66.0325 33.4832 65.5862 32.0286C65.1398 30.5741 65.9513 29.0441 67.4059 28.5978L83.4771 23.6664C84.9316 23.22 86.4616 24.0316 86.908 25.4861C87.3543 26.9407 86.5428 28.4707 85.0882 28.917Z" fill="#262C38"/>
<path d="M71.6172 30.1772L68.5307 31.1243C68.0695 31.2658 67.5595 30.9953 67.418 30.5341C67.2764 30.0729 67.5469 29.5629 68.0081 29.4214L71.0947 28.4743C71.5559 28.3327 72.0659 28.6033 72.2074 29.0645C72.3489 29.5257 72.0784 30.0357 71.6172 30.1772Z" fill="#40F4EF"/>
<path d="M60.8247 18.1548C61.922 17.8182 62.5385 16.6557 62.2019 15.5585C61.8652 14.4613 60.7028 13.8447 59.6055 14.1814C58.5083 14.5181 57.8917 15.6805 58.2284 16.7777C58.5651 17.875 59.7275 18.4915 60.8247 18.1548Z" fill="#262C38"/>
<path d="M60.8189 15.4786C61.004 16.0817 60.6597 16.7308 60.0566 16.9158C59.4535 17.1009 58.8044 16.7566 58.6193 16.1535C58.4342 15.5504 58.7785 14.9013 59.3816 14.7162C59.9956 14.5667 60.6338 14.8755 60.8189 15.4786Z" fill="#40F4EF"/>
<path d="M72.3372 9.49957C73.4344 9.16289 74.051 8.00047 73.7143 6.90323C73.3776 5.80599 72.2152 5.18944 71.118 5.52612C70.0207 5.86281 69.4042 7.02523 69.7409 8.12247C70.0775 9.2197 71.24 9.83625 72.3372 9.49957Z" fill="#262C38"/>
<path d="M72.3312 6.82232C72.5163 7.42543 72.172 8.07452 71.5689 8.25958C70.9658 8.44464 70.3167 8.10037 70.1316 7.49725C69.9465 6.89414 70.2908 6.24506 70.8939 6.05999C71.497 5.87493 72.1461 6.21921 72.3312 6.82232Z" fill="#40F4EF"/>
<path d="M86.7232 10.2095C87.8205 9.87285 88.437 8.71043 88.1003 7.61319C87.7637 6.51595 86.6012 5.8994 85.504 6.23608C84.4068 6.57277 83.7902 7.73519 84.1269 8.83243C84.4636 9.92966 85.626 10.5462 86.7232 10.2095Z" fill="#262C38"/>
<path d="M85.1916 8.00116C85.3767 8.60427 86.0258 8.94855 86.6289 8.76349C87.232 8.57842 87.5763 7.92934 87.3912 7.32623C87.2061 6.72311 86.5571 6.37884 85.9539 6.5639C85.3617 6.78444 85.0066 7.39805 85.1916 8.00116Z" fill="#40F4EF"/>
</g>
<defs>
<filter id="filter0_f" x="23" y="81" width="156" height="26" filterUnits="userSpaceOnUse" color-interpolation-filters="sRGB">
<feFlood flood-opacity="0" result="BackgroundImageFix"/>
<feBlend mode="normal" in="SourceGraphic" in2="BackgroundImageFix" result="shape"/>
<feGaussianBlur stdDeviation="5" result="effect1_foregroundBlur"/>
</filter>
<linearGradient id="paint0_linear" x1="161" y1="81.5" x2="244" y2="81" gradientUnits="userSpaceOnUse">
<stop stop-color="#09EAE5"/>
<stop offset="0.817708" stop-color="#BD4D7A"/>
<stop offset="1" stop-color="#E52A62"/>
</linearGradient>
<clipPath id="clip0">
<rect width="277" height="105.82" fill="white"/>
</clipPath>
<clipPath id="clip1">
<rect width="21.3938" height="24.2827" fill="white" transform="translate(53.2387 69) rotate(22.3625)"/>
</clipPath>
<clipPath id="clip2">
<rect width="8.94383" height="9.87464" fill="white" transform="translate(51.3011 97.167) rotate(135.45)"/>
</clipPath>
<clipPath id="clip3">
<rect width="25.549" height="34.2895" fill="white" transform="translate(147 29)"/>
</clipPath>
<clipPath id="clip4">
<rect width="12.8115" height="14.1448" fill="white" transform="translate(164.053 24.0801) rotate(135.45)"/>
</clipPath>
<clipPath id="clip5">
<rect width="3.08451" height="3" fill="white" transform="translate(171 22)"/>
</clipPath>
<clipPath id="clip6">
<rect width="55" height="14.764" fill="white" transform="translate(104 85)"/>
</clipPath>
<clipPath id="clip7">
<rect width="10.904" height="10.1" fill="white" transform="translate(224.339 14.8809) rotate(31.9116)"/>
</clipPath>
<clipPath id="clip8">
<rect width="11" height="12.1448" fill="white" transform="translate(211 54)"/>
</clipPath>
<clipPath id="clip9">
<rect width="2.05634" height="2" fill="white" transform="translate(214 14)"/>
</clipPath>
<clipPath id="clip10">
<rect width="3.08451" height="3" fill="white" transform="translate(237.846 28)"/>
</clipPath>
<clipPath id="clip11">
<rect width="3.08451" height="3" fill="white" transform="translate(258 79)"/>
</clipPath>
<clipPath id="clip12">
<rect width="10.904" height="10.1" fill="white" transform="translate(32.0385 26.5869) rotate(-96.6294)"/>
</clipPath>
<clipPath id="clip13">
<rect width="11" height="12.1448" fill="white" transform="translate(42 34)"/>
</clipPath>
<clipPath id="clip14">
<rect width="2.05634" height="2" fill="white" transform="translate(26 92)"/>
</clipPath>
<clipPath id="clip15">
<rect width="8.5957" height="7.96192" fill="white" transform="translate(110.19 19.4775) rotate(-167.505)"/>
</clipPath>
<clipPath id="clip16">
<rect width="3.08451" height="3" fill="white" transform="translate(102 26.8086)"/>
</clipPath>
</defs>
</svg>
