<svg width="277" height="106" viewBox="0 0 277 106" fill="none" xmlns="http://www.w3.org/2000/svg">
<g clip-path="url(#clip0)">
<g filter="url(#filter0_f)">
<ellipse cx="105" cy="94.8613" rx="68" ry="3" fill="#C4C4C4" fill-opacity="0.5"/>
</g>
<path d="M170.71 90.3779C169.909 91.3154 168.742 92.043 167.209 92.5605C165.676 93.0684 163.977 93.3076 162.111 93.2783C160.324 93.2588 158.815 92.8096 157.585 91.9307C156.354 91.0518 155.476 89.8262 154.948 88.2539C154.421 86.6816 154.279 84.9092 154.523 82.9365L154.641 82.0576C155.09 78.7471 156.252 76.125 158.127 74.1914C160.012 72.2578 162.316 71.3154 165.041 71.3643C167.424 71.4033 169.255 72.043 170.534 73.2832C171.813 74.5234 172.526 76.3154 172.673 78.6592L167.868 78.6445C167.8 77.502 167.517 76.667 167.019 76.1396C166.53 75.6123 165.832 75.334 164.924 75.3047C163.576 75.2559 162.463 75.7881 161.584 76.9014C160.705 78.0049 160.104 79.5869 159.782 81.6475C159.509 83.4053 159.411 84.7725 159.489 85.749C159.636 88.1025 160.695 89.2939 162.668 89.3232C163.859 89.3428 164.904 89.0547 165.803 88.459L166.462 85.1338H162.99L163.605 81.6035H172.087L170.71 90.3779ZM178.356 93H173.347L177.053 71.6719H182.048L178.356 93ZM199.626 90.3779C198.825 91.3154 197.658 92.043 196.125 92.5605C194.592 93.0684 192.893 93.3076 191.027 93.2783C189.24 93.2588 187.731 92.8096 186.501 91.9307C185.271 91.0518 184.392 89.8262 183.864 88.2539C183.337 86.6816 183.195 84.9092 183.439 82.9365L183.557 82.0576C184.006 78.7471 185.168 76.125 187.043 74.1914C188.928 72.2578 191.232 71.3154 193.957 71.3643C196.34 71.4033 198.171 72.043 199.45 73.2832C200.729 74.5234 201.442 76.3154 201.589 78.6592L196.784 78.6445C196.716 77.502 196.433 76.667 195.935 76.1396C195.446 75.6123 194.748 75.334 193.84 75.3047C192.492 75.2559 191.379 75.7881 190.5 76.9014C189.621 78.0049 189.021 79.5869 188.698 81.6475C188.425 83.4053 188.327 84.7725 188.405 85.749C188.552 88.1025 189.611 89.2939 191.584 89.3232C192.775 89.3428 193.82 89.0547 194.719 88.459L195.378 85.1338H191.906L192.521 81.6035H201.003L199.626 90.3779ZM214.45 89.0156H207.639L205.749 93H200.227L211.521 71.6719H216.237L220.178 93H214.963L214.45 89.0156ZM209.514 85.0459H213.938L213 77.6924L209.514 85.0459ZM233.625 87.2285C233.84 86.125 233.244 85.2705 231.838 84.665L229.436 83.6689C226.066 82.1553 224.465 80.0947 224.631 77.4873C224.699 76.2959 225.109 75.2363 225.861 74.3086C226.613 73.3711 227.653 72.6436 228.981 72.126C230.31 71.6084 231.76 71.3594 233.332 71.3789C235.441 71.418 237.136 72.0332 238.415 73.2246C239.704 74.416 240.339 76.0127 240.319 78.0146H235.339C235.368 77.1943 235.192 76.54 234.812 76.0518C234.44 75.5537 233.825 75.2949 232.966 75.2754C232.126 75.2559 231.384 75.4512 230.739 75.8613C230.095 76.2715 229.714 76.8232 229.597 77.5166C229.411 78.4932 230.134 79.2939 231.765 79.9189C233.405 80.5439 234.597 81.0811 235.339 81.5303C237.673 82.9268 238.767 84.8115 238.62 87.1846C238.542 88.415 238.146 89.4941 237.434 90.4219C236.721 91.3496 235.729 92.0674 234.46 92.5752C233.2 93.083 231.784 93.3271 230.212 93.3076C229.06 93.2881 227.99 93.1074 227.004 92.7656C226.018 92.4238 225.173 91.9258 224.47 91.2715C223.044 89.9531 222.36 88.2197 222.419 86.0713L227.443 86.0859C227.385 87.1797 227.595 88.0098 228.073 88.5762C228.552 89.1328 229.357 89.4111 230.49 89.4111C231.33 89.4111 232.028 89.2207 232.585 88.8398C233.151 88.4492 233.498 87.9121 233.625 87.2285Z" fill="#BBBBBB"/>
<path d="M99.4824 44.7588C99.0723 50.9697 95.4541 55.8184 88.6279 59.3047C91.0889 61.0625 92.9199 63.2012 94.1211 65.7207C95.3223 68.2402 95.8203 71.0088 95.6152 74.0264C95.2344 79.915 92.8174 84.5586 88.3643 87.957C83.9404 91.3555 78.4473 92.9961 71.8848 92.8789C69.0137 92.8496 66.3037 92.4102 63.7549 91.5605C61.2061 90.7109 59.0234 89.4365 57.207 87.7373C53.5742 84.3975 51.9482 80.0615 52.3291 74.7295C52.7393 67.7861 56.9141 62.4688 64.8535 58.7773C60.5176 55.4082 58.4961 50.9844 58.7891 45.5059C58.9941 41.7852 60.0928 38.5186 62.085 35.7061C64.0771 32.8936 66.7432 30.7402 70.083 29.2461C73.4521 27.7227 77.1582 27.0049 81.2012 27.0928C87.0605 27.21 91.6602 28.8945 95 32.1465C98.3691 35.3984 99.8633 39.6025 99.4824 44.7588ZM81.377 72.8398C81.6406 70.5547 81.2744 68.6797 80.2783 67.2148C79.3115 65.75 77.832 64.9883 75.8398 64.9297C73.584 64.8711 71.6357 65.6621 69.9951 67.3027C68.3545 68.9141 67.373 70.9941 67.0508 73.543C66.7871 75.9453 67.168 77.8643 68.1934 79.2998C69.248 80.7061 70.7715 81.4385 72.7637 81.4971C74.9316 81.5557 76.8213 80.7939 78.4326 79.2119C80.0439 77.6299 81.0254 75.5059 81.377 72.8398ZM84.8926 45.5498C85.127 43.3818 84.8193 41.668 83.9697 40.4082C83.1201 39.1191 81.875 38.4746 80.2344 38.4746C78.3301 38.416 76.7188 39.1045 75.4004 40.54C74.1113 41.9756 73.3203 43.8799 73.0273 46.2529C72.793 48.4209 73.1006 50.1934 73.9502 51.5703C74.7998 52.918 76.0596 53.5918 77.7295 53.5918C79.5752 53.6504 81.1572 52.9473 82.4756 51.4824C83.7939 50.0176 84.5996 48.04 84.8926 45.5498ZM106.294 60.5352L115.171 28.0156H151.646L149.8 39.5293H125.322L121.411 52.3174C123.784 50.7939 126.729 50.0029 130.244 49.9443C135.869 49.9443 140.19 51.8926 143.208 55.7891C146.255 59.6855 147.515 64.7832 146.987 71.082C146.46 77.5859 143.926 82.8887 139.385 86.9902C134.844 91.0625 129.351 93.04 122.905 92.9229C119.126 92.835 115.684 91.9561 112.578 90.2861C109.502 88.6162 107.114 86.3457 105.415 83.4746C103.716 80.5742 102.881 77.3369 102.91 73.7627H117.324C117.383 76.0479 117.954 77.8789 119.038 79.2559C120.122 80.6328 121.646 81.3506 123.608 81.4092C126.011 81.4971 128.003 80.6035 129.585 78.7285C131.167 76.8242 132.178 73.9385 132.617 70.0713C132.91 66.8193 132.471 64.3584 131.299 62.6885C130.127 60.9893 128.296 60.1396 125.806 60.1396C122.612 60.1396 120.02 61.2236 118.027 63.3916L106.294 60.5352Z" fill="#EF3829"/>
<path d="M99.4824 44.7588L96.4906 44.5378L96.4897 44.5495L96.4889 44.5611L99.4824 44.7588ZM88.6279 59.3047L87.2634 56.633L82.8685 58.8776L86.8842 61.7459L88.6279 59.3047ZM95.6152 74.0264L92.6221 73.823L92.6215 73.8327L95.6152 74.0264ZM88.3643 87.957L86.5442 85.5722L86.5366 85.578L88.3643 87.957ZM71.8848 92.8789L71.9383 89.8794L71.9269 89.8792L71.9154 89.8791L71.8848 92.8789ZM57.207 87.7373L59.2565 85.5465L59.247 85.5376L59.2374 85.5288L57.207 87.7373ZM52.3291 74.7295L55.3215 74.9432L55.3228 74.9248L55.3239 74.9064L52.3291 74.7295ZM64.8535 58.7773L66.1183 61.4977L70.5764 59.4249L66.6942 56.4084L64.8535 58.7773ZM58.7891 45.5059L55.7936 45.3408L55.7933 45.3457L58.7891 45.5059ZM70.083 29.2461L71.3081 31.9846L71.319 31.9796L70.083 29.2461ZM81.2012 27.0928L81.136 30.0921L81.1412 30.0922L81.2012 27.0928ZM95 32.1465L92.9071 34.2959L92.9166 34.305L95 32.1465ZM81.377 72.8398L84.3512 73.2321L84.3544 73.2079L84.3572 73.1837L81.377 72.8398ZM80.2783 67.2148L77.7745 68.8674L77.7859 68.8847L77.7975 68.9018L80.2783 67.2148ZM75.8398 64.9297L75.928 61.931L75.9177 61.9307L75.8398 64.9297ZM69.9951 67.3027L72.0972 69.4431L72.1069 69.4336L72.1164 69.4241L69.9951 67.3027ZM67.0508 73.543L64.0745 73.1667L64.0714 73.1911L64.0687 73.2157L67.0508 73.543ZM68.1934 79.2998L65.7522 81.0435L65.7724 81.0719L65.7934 81.0998L68.1934 79.2998ZM72.7637 81.4971L72.6755 84.4958L72.6826 84.496L72.7637 81.4971ZM84.8926 45.5498L87.872 45.9003L87.8737 45.8863L87.8752 45.8723L84.8926 45.5498ZM83.9697 40.4082L81.4649 42.0591L81.4736 42.0724L81.4825 42.0856L83.9697 40.4082ZM80.2344 38.4746L80.1421 41.4732L80.1882 41.4746H80.2344V38.4746ZM75.4004 40.54L73.1908 38.5108L73.1795 38.5232L73.1682 38.5357L75.4004 40.54ZM73.0273 46.2529L70.0499 45.8853L70.0472 45.9079L70.0447 45.9305L73.0273 46.2529ZM73.9502 51.5703L71.3971 53.1456L71.4047 53.158L71.4124 53.1702L73.9502 51.5703ZM77.7295 53.5918L77.8247 50.5933L77.7771 50.5918H77.7295V53.5918ZM96.4889 44.5611C96.1653 49.4623 93.4022 53.4977 87.2634 56.633L89.9925 61.9764C97.506 58.139 101.979 52.4771 102.476 44.9565L96.4889 44.5611ZM86.8842 61.7459C88.967 63.2336 90.4487 64.9889 91.4131 67.0117L96.8291 64.4297C95.3911 61.4134 93.2108 58.8914 90.3716 56.8635L86.8842 61.7459ZM91.4131 67.0117C92.3741 69.0274 92.7953 71.2755 92.6221 73.823L98.6083 74.2298C98.8454 70.7421 98.2705 67.4531 96.8291 64.4297L91.4131 67.0117ZM92.6215 73.8327C92.2932 78.9083 90.2669 82.7312 86.5442 85.5722L90.1843 90.3419C95.3679 86.386 98.1755 80.9218 98.609 74.22L92.6215 73.8327ZM86.5366 85.578C82.743 88.4923 77.9467 89.9867 71.9383 89.8794L71.8312 95.8784C78.9479 96.0055 85.1379 94.2186 90.1919 90.3361L86.5366 85.578ZM71.9154 89.8791C69.335 89.8527 66.9365 89.4588 64.7036 88.7145L62.8062 94.4066C65.6709 95.3615 68.6924 95.8465 71.8542 95.8788L71.9154 89.8791ZM64.7036 88.7145C62.5312 87.9904 60.7327 86.9275 59.2565 85.5465L55.1576 89.9281C57.3141 91.9456 59.8809 93.4315 62.8062 94.4066L64.7036 88.7145ZM59.2374 85.5288C56.3393 82.8644 54.9995 79.4505 55.3215 74.9432L49.3367 74.5158C48.897 80.6725 50.8091 85.9305 55.1766 89.9458L59.2374 85.5288ZM55.3239 74.9064C55.6513 69.3638 58.8745 64.8657 66.1183 61.4977L63.5887 56.057C54.9536 60.0718 49.8272 66.2085 49.3343 74.5526L55.3239 74.9064ZM66.6942 56.4084C63.1335 53.6416 61.5443 50.1622 61.7848 45.6661L55.7933 45.3457C55.4478 51.8065 57.9017 57.1748 63.0128 61.1463L66.6942 56.4084ZM61.7845 45.671C61.9611 42.4667 62.8939 39.7542 64.533 37.4401L59.6369 33.972C57.2916 37.283 56.0272 41.1036 55.7936 45.3408L61.7845 45.671ZM64.533 37.4401C66.1955 35.0931 68.4271 33.2734 71.3081 31.9845L68.8579 26.5076C65.0592 28.207 61.9588 30.694 59.6369 33.972L64.533 37.4401ZM71.319 31.9796C74.2426 30.6577 77.4986 30.013 81.136 30.0921L81.2664 24.0935C76.8178 23.9968 72.6617 24.7877 68.847 26.5126L71.319 31.9796ZM81.1412 30.0922C86.4439 30.1982 90.2432 31.702 92.9071 34.2959L97.0929 29.9971C93.0771 26.087 87.6772 24.2217 81.2612 24.0934L81.1412 30.0922ZM92.9166 34.305C95.5726 36.8687 96.8135 40.1655 96.4906 44.5378L102.474 44.9798C102.913 39.0396 101.166 33.9282 97.0834 29.988L92.9166 34.305ZM84.3572 73.1837C84.6782 70.4015 84.2681 67.7471 82.7591 65.5279L77.7975 68.9018C78.2807 69.6123 78.603 70.7079 78.3967 72.496L84.3572 73.1837ZM82.7821 65.5623C81.1981 63.1622 78.7434 62.0138 75.928 61.931L75.7516 67.9284C76.9206 67.9628 77.425 68.3378 77.7745 68.8674L82.7821 65.5623ZM75.9177 61.9307C72.8137 61.8501 70.0777 62.9776 67.8738 65.1814L72.1164 69.4241C73.1938 68.3467 74.3543 67.8921 75.7619 67.9287L75.9177 61.9307ZM67.893 65.1624C65.7144 67.3021 64.4709 70.0312 64.0745 73.1667L70.0271 73.9193C70.2752 71.957 70.9946 70.526 72.0972 69.4431L67.893 65.1624ZM64.0687 73.2157C63.7545 76.0784 64.1614 78.8165 65.7522 81.0435L70.6346 77.5561C70.1745 76.912 69.8197 75.8123 70.0329 73.8703L64.0687 73.2157ZM65.7934 81.0998C67.4739 83.3406 69.9086 84.4144 72.6755 84.4958L72.8519 78.4984C71.6343 78.4626 71.0221 78.0715 70.5934 77.4998L65.7934 81.0998ZM72.6826 84.496C75.7014 84.5776 78.3689 83.4787 80.5344 81.3526L76.3308 77.0712C75.2737 78.1092 74.1619 78.5338 72.8447 78.4982L72.6826 84.496ZM80.5344 81.3526C82.7101 79.2164 83.9294 76.4307 84.3512 73.2321L78.4027 72.4476C78.1214 74.5811 77.3778 76.0433 76.3308 77.0712L80.5344 81.3526ZM87.8752 45.8723C88.1532 43.3007 87.844 40.7874 86.4569 38.7308L81.4825 42.0856C81.7947 42.5485 82.1007 43.4629 81.91 45.2274L87.8752 45.8723ZM86.4746 38.7573C85.0296 36.5649 82.8082 35.4746 80.2344 35.4746V41.4746C80.9418 41.4746 81.2106 41.6734 81.4649 42.0591L86.4746 38.7573ZM80.3266 35.476C77.5278 35.3899 75.0835 36.4499 73.1908 38.5108L77.61 42.5693C78.354 41.7591 79.1323 41.4421 80.1421 41.4732L80.3266 35.476ZM73.1682 38.5357C71.3802 40.5268 70.3999 43.0504 70.0499 45.8853L76.0047 46.6205C76.2407 44.7093 76.8424 43.4243 77.6325 42.5444L73.1682 38.5357ZM70.0447 45.9305C69.7635 48.5322 70.0932 51.0324 71.3971 53.1456L76.5033 49.995C76.108 49.3543 75.8225 48.3096 76.01 46.5754L70.0447 45.9305ZM71.4124 53.1702C72.8427 55.4389 75.0894 56.5918 77.7295 56.5918V50.5918C77.0298 50.5918 76.7569 50.397 76.488 49.9704L71.4124 53.1702ZM77.6343 56.5903C80.4287 56.679 82.8412 55.5607 84.7055 53.4893L80.2457 49.4755C79.4732 50.3338 78.7217 50.6218 77.8247 50.5933L77.6343 56.5903ZM84.7055 53.4893C86.5395 51.4515 87.5263 48.8387 87.872 45.9003L81.9131 45.1993C81.6729 47.2414 81.0484 48.5837 80.2457 49.4755L84.7055 53.4893ZM106.294 60.5352L103.4 59.7451L102.588 62.7205L105.584 63.45L106.294 60.5352ZM115.171 28.0156V25.0156H112.88L112.277 27.2256L115.171 28.0156ZM151.646 28.0156L154.608 28.4905L155.165 25.0156H151.646V28.0156ZM149.8 39.5293V42.5293H152.357L152.762 40.0042L149.8 39.5293ZM125.322 39.5293V36.5293H123.103L122.453 38.6519L125.322 39.5293ZM121.411 52.3174L118.542 51.44L116.151 59.2594L123.032 54.8419L121.411 52.3174ZM130.244 49.9443V46.9443H130.219L130.194 46.9448L130.244 49.9443ZM143.208 55.7891L140.836 57.626L140.845 57.637L143.208 55.7891ZM146.987 71.082L143.998 70.8317L143.997 70.8396L146.987 71.082ZM139.385 86.9902L141.388 89.2237L141.396 89.2165L139.385 86.9902ZM122.905 92.9229L122.836 95.922L122.843 95.9222L122.851 95.9224L122.905 92.9229ZM112.578 90.2861L111.147 92.9227L111.157 92.9283L112.578 90.2861ZM105.415 83.4746L102.827 84.9911L102.833 85.0026L105.415 83.4746ZM102.91 73.7627V70.7627H99.9346L99.9103 73.7381L102.91 73.7627ZM117.324 73.7627L120.323 73.6858L120.248 70.7627H117.324V73.7627ZM123.608 81.4092L123.718 78.4112L123.708 78.4108L123.698 78.4105L123.608 81.4092ZM129.585 78.7285L131.878 80.6631L131.885 80.6544L131.893 80.6456L129.585 78.7285ZM132.617 70.0713L135.598 70.41L135.602 70.3753L135.605 70.3405L132.617 70.0713ZM131.299 62.6885L128.829 64.3917L128.836 64.4017L128.843 64.4118L131.299 62.6885ZM118.027 63.3916L117.318 66.3065L119.038 66.7253L120.236 65.4215L118.027 63.3916ZM109.188 61.3252L118.065 28.8056L112.277 27.2256L103.4 59.7451L109.188 61.3252ZM115.171 31.0156H151.646V25.0156H115.171V31.0156ZM148.683 27.5408L146.838 39.0544L152.762 40.0042L154.608 28.4905L148.683 27.5408ZM149.8 36.5293H125.322V42.5293H149.8V36.5293ZM122.453 38.6519L118.542 51.44L124.28 53.1948L128.191 40.4067L122.453 38.6519ZM123.032 54.8419C124.832 53.686 127.199 52.9955 130.294 52.9439L130.194 46.9448C126.258 47.0104 122.736 47.9019 119.79 49.7928L123.032 54.8419ZM130.244 52.9443C135.09 52.9443 138.472 54.5733 140.836 57.6259L145.58 53.9522C141.909 49.2118 136.648 46.9443 130.244 46.9443V52.9443ZM140.845 57.637C143.307 60.7862 144.48 65.0693 143.998 70.8317L149.977 71.3323C150.549 64.4971 149.203 58.5849 145.571 53.9411L140.845 57.637ZM143.997 70.8396C143.527 76.6371 141.308 81.2109 137.374 84.7639L141.396 89.2165C146.544 84.5665 149.393 78.5348 149.977 71.3245L143.997 70.8396ZM137.382 84.7568C133.44 88.2921 128.695 90.0276 122.96 89.9233L122.851 95.9224C130.007 96.0525 136.248 93.8329 141.388 89.2237L137.382 84.7568ZM122.975 89.9237C119.633 89.8459 116.659 89.0742 113.999 87.6439L111.157 92.9283C114.708 94.8379 118.619 95.824 122.836 95.922L122.975 89.9237ZM114.009 87.6496C111.385 86.2251 109.406 84.3276 107.997 81.9466L102.833 85.0026C104.823 88.3638 107.618 91.0073 111.147 92.9227L114.009 87.6496ZM108.004 81.9581C106.595 79.5547 105.885 76.8557 105.91 73.7873L99.9103 73.7381C99.8768 77.8181 100.836 81.5937 102.827 84.9911L108.004 81.9581ZM102.91 76.7627H117.324V70.7627H102.91V76.7627ZM114.325 73.8396C114.395 76.5745 115.09 79.0908 116.681 81.1115L121.395 77.4002C120.818 76.667 120.37 75.5212 120.323 73.6858L114.325 73.8396ZM116.681 81.1115C118.385 83.2759 120.789 84.3263 123.519 84.4078L123.698 78.4105C122.502 78.3748 121.859 77.9897 121.395 77.4002L116.681 81.1115ZM123.499 84.4072C126.845 84.5296 129.715 83.2262 131.878 80.6631L127.292 76.7939C126.291 77.9809 125.177 78.4646 123.718 78.4112L123.499 84.4072ZM131.893 80.6456C134.005 78.1029 135.127 74.5524 135.598 70.41L129.636 69.7326C129.228 73.3246 128.329 75.5456 127.277 76.8115L131.893 80.6456ZM135.605 70.3405C135.926 66.7808 135.516 63.4753 133.754 60.9652L128.843 64.4118C129.425 65.2415 129.895 66.8579 129.629 69.8021L135.605 70.3405ZM133.768 60.9853C131.917 58.3001 129.05 57.1396 125.806 57.1396V63.1396C127.542 63.1396 128.337 63.6784 128.829 64.3917L133.768 60.9853ZM125.806 57.1396C121.852 57.1396 118.43 58.5193 115.818 61.3617L120.236 65.4215C121.609 63.9279 123.373 63.1396 125.806 63.1396V57.1396ZM118.737 60.4767L107.004 57.6203L105.584 63.45L117.318 66.3065L118.737 60.4767Z" fill="#EF3829"/>
</g>
<defs>
<filter id="filter0_f" x="27" y="81.8613" width="156" height="26" filterUnits="userSpaceOnUse" color-interpolation-filters="sRGB">
<feFlood flood-opacity="0" result="BackgroundImageFix"/>
<feBlend mode="normal" in="SourceGraphic" in2="BackgroundImageFix" result="shape"/>
<feGaussianBlur stdDeviation="5" result="effect1_foregroundBlur"/>
</filter>
<clipPath id="clip0">
<rect width="277" height="105.82" fill="white"/>
</clipPath>
</defs>
</svg>
