<svg width="277" height="106" viewBox="0 0 277 106" fill="none" xmlns="http://www.w3.org/2000/svg">
<g clip-path="url(#clip0)">
<g filter="url(#filter0_f)">
<ellipse cx="137" cy="94.8613" rx="68" ry="3" fill="#C4C4C4" fill-opacity="0.5"/>
</g>
<path d="M138.71 89.2393C137.909 90.1768 136.742 90.9043 135.209 91.4219C133.676 91.9297 131.977 92.1689 130.111 92.1396C128.324 92.1201 126.815 91.6709 125.585 90.792C124.354 89.9131 123.476 88.6875 122.948 87.1152C122.421 85.543 122.279 83.7705 122.523 81.7979L122.641 80.9189C123.09 77.6084 124.252 74.9863 126.127 73.0527C128.012 71.1191 130.316 70.1768 133.041 70.2256C135.424 70.2646 137.255 70.9043 138.534 72.1445C139.813 73.3848 140.526 75.1768 140.673 77.5205L135.868 77.5059C135.8 76.3633 135.517 75.5283 135.019 75.001C134.53 74.4736 133.832 74.1953 132.924 74.166C131.576 74.1172 130.463 74.6494 129.584 75.7627C128.705 76.8662 128.104 78.4482 127.782 80.5088C127.509 82.2666 127.411 83.6338 127.489 84.6104C127.636 86.9639 128.695 88.1553 130.668 88.1846C131.859 88.2041 132.904 87.916 133.803 87.3203L134.462 83.9951H130.99L131.605 80.4648H140.087L138.71 89.2393ZM146.356 91.8613H141.347L145.053 70.5332H150.048L146.356 91.8613ZM167.626 89.2393C166.825 90.1768 165.658 90.9043 164.125 91.4219C162.592 91.9297 160.893 92.1689 159.027 92.1396C157.24 92.1201 155.731 91.6709 154.501 90.792C153.271 89.9131 152.392 88.6875 151.864 87.1152C151.337 85.543 151.195 83.7705 151.439 81.7979L151.557 80.9189C152.006 77.6084 153.168 74.9863 155.043 73.0527C156.928 71.1191 159.232 70.1768 161.957 70.2256C164.34 70.2646 166.171 70.9043 167.45 72.1445C168.729 73.3848 169.442 75.1768 169.589 77.5205L164.784 77.5059C164.716 76.3633 164.433 75.5283 163.935 75.001C163.446 74.4736 162.748 74.1953 161.84 74.166C160.492 74.1172 159.379 74.6494 158.5 75.7627C157.621 76.8662 157.021 78.4482 156.698 80.5088C156.425 82.2666 156.327 83.6338 156.405 84.6104C156.552 86.9639 157.611 88.1553 159.584 88.1846C160.775 88.2041 161.82 87.916 162.719 87.3203L163.378 83.9951H159.906L160.521 80.4648H169.003L167.626 89.2393ZM182.45 87.877H175.639L173.749 91.8613H168.227L179.521 70.5332H184.237L188.178 91.8613H182.963L182.45 87.877ZM177.514 83.9072H181.938L181 76.5537L177.514 83.9072ZM201.625 86.0898C201.84 84.9863 201.244 84.1318 199.838 83.5264L197.436 82.5303C194.066 81.0166 192.465 78.9561 192.631 76.3486C192.699 75.1572 193.109 74.0977 193.861 73.1699C194.613 72.2324 195.653 71.5049 196.981 70.9873C198.31 70.4697 199.76 70.2207 201.332 70.2402C203.441 70.2793 205.136 70.8945 206.415 72.0859C207.704 73.2773 208.339 74.874 208.319 76.876H203.339C203.368 76.0557 203.192 75.4014 202.812 74.9131C202.44 74.415 201.825 74.1562 200.966 74.1367C200.126 74.1172 199.384 74.3125 198.739 74.7227C198.095 75.1328 197.714 75.6846 197.597 76.3779C197.411 77.3545 198.134 78.1553 199.765 78.7803C201.405 79.4053 202.597 79.9424 203.339 80.3916C205.673 81.7881 206.767 83.6729 206.62 86.0459C206.542 87.2764 206.146 88.3555 205.434 89.2832C204.721 90.2109 203.729 90.9287 202.46 91.4365C201.2 91.9443 199.784 92.1885 198.212 92.1689C197.06 92.1494 195.99 91.9688 195.004 91.627C194.018 91.2852 193.173 90.7871 192.47 90.1328C191.044 88.8145 190.36 87.0811 190.419 84.9326L195.443 84.9473C195.385 86.041 195.595 86.8711 196.073 87.4375C196.552 87.9941 197.357 88.2725 198.49 88.2725C199.33 88.2725 200.028 88.082 200.585 87.7012C201.151 87.3105 201.498 86.7734 201.625 86.0898Z" fill="#BBBBBB"/>
<path d="M118.482 43.7588C118.072 49.9697 114.454 54.8184 107.628 58.3047C110.089 60.0625 111.92 62.2012 113.121 64.7207C114.322 67.2402 114.82 70.0088 114.615 73.0264C114.234 78.915 111.817 83.5586 107.364 86.957C102.94 90.3555 97.4473 91.9961 90.8848 91.8789C88.0137 91.8496 85.3037 91.4102 82.7549 90.5605C80.2061 89.7109 78.0234 88.4365 76.207 86.7373C72.5742 83.3975 70.9482 79.0615 71.3291 73.7295C71.7393 66.7861 75.9141 61.4688 83.8535 57.7773C79.5176 54.4082 77.4961 49.9844 77.7891 44.5059C77.9941 40.7852 79.0928 37.5186 81.085 34.7061C83.0771 31.8936 85.7432 29.7402 89.083 28.2461C92.4521 26.7227 96.1582 26.0049 100.201 26.0928C106.061 26.21 110.66 27.8945 114 31.1465C117.369 34.3984 118.863 38.6025 118.482 43.7588ZM100.377 71.8398C100.641 69.5547 100.274 67.6797 99.2783 66.2148C98.3115 64.75 96.832 63.9883 94.8398 63.9297C92.584 63.8711 90.6357 64.6621 88.9951 66.3027C87.3545 67.9141 86.373 69.9941 86.0508 72.543C85.7871 74.9453 86.168 76.8643 87.1934 78.2998C88.248 79.7061 89.7715 80.4385 91.7637 80.4971C93.9316 80.5557 95.8213 79.7939 97.4326 78.2119C99.0439 76.6299 100.025 74.5059 100.377 71.8398ZM103.893 44.5498C104.127 42.3818 103.819 40.668 102.97 39.4082C102.12 38.1191 100.875 37.4746 99.2344 37.4746C97.3301 37.416 95.7188 38.1045 94.4004 39.54C93.1113 40.9756 92.3203 42.8799 92.0273 45.2529C91.793 47.4209 92.1006 49.1934 92.9502 50.5703C93.7998 51.918 95.0596 52.5918 96.7295 52.5918C98.5752 52.6504 100.157 51.9473 101.476 50.4824C102.794 49.0176 103.6 47.04 103.893 44.5498Z" fill="#EF3829"/>
<path d="M118.482 43.7588L115.491 43.5378L115.49 43.5495L115.489 43.5611L118.482 43.7588ZM107.628 58.3047L106.263 55.633L101.869 57.8776L105.884 60.7459L107.628 58.3047ZM114.615 73.0264L111.622 72.823L111.621 72.8327L114.615 73.0264ZM107.364 86.957L105.544 84.5722L105.537 84.578L107.364 86.957ZM90.8848 91.8789L90.9383 88.8794L90.9269 88.8792L90.9154 88.8791L90.8848 91.8789ZM76.207 86.7373L78.2565 84.5465L78.247 84.5376L78.2374 84.5288L76.207 86.7373ZM71.3291 73.7295L74.3215 73.9432L74.3228 73.9248L74.3239 73.9064L71.3291 73.7295ZM83.8535 57.7773L85.1183 60.4977L89.5764 58.4249L85.6942 55.4084L83.8535 57.7773ZM77.7891 44.5059L74.7936 44.3408L74.7933 44.3457L77.7891 44.5059ZM89.083 28.2461L90.3081 30.9846L90.319 30.9796L89.083 28.2461ZM100.201 26.0928L100.136 29.0921L100.141 29.0922L100.201 26.0928ZM114 31.1465L111.907 33.2959L111.917 33.305L114 31.1465ZM100.377 71.8398L103.351 72.2321L103.354 72.2079L103.357 72.1837L100.377 71.8398ZM99.2783 66.2148L96.7745 67.8674L96.7859 67.8847L96.7975 67.9018L99.2783 66.2148ZM94.8398 63.9297L94.928 60.931L94.9177 60.9307L94.8398 63.9297ZM88.9951 66.3027L91.0972 68.4431L91.1069 68.4336L91.1164 68.4241L88.9951 66.3027ZM86.0508 72.543L83.0745 72.1667L83.0714 72.1911L83.0687 72.2157L86.0508 72.543ZM87.1934 78.2998L84.7522 80.0435L84.7724 80.0719L84.7934 80.0998L87.1934 78.2998ZM91.7637 80.4971L91.6755 83.4958L91.6826 83.496L91.7637 80.4971ZM103.893 44.5498L106.872 44.9003L106.874 44.8863L106.875 44.8723L103.893 44.5498ZM102.97 39.4082L100.465 41.0591L100.474 41.0724L100.483 41.0856L102.97 39.4082ZM99.2344 37.4746L99.1421 40.4732L99.1882 40.4746H99.2344V37.4746ZM94.4004 39.54L92.1908 37.5108L92.1795 37.5232L92.1682 37.5357L94.4004 39.54ZM92.0273 45.2529L89.0499 44.8853L89.0472 44.9079L89.0447 44.9305L92.0273 45.2529ZM92.9502 50.5703L90.3971 52.1456L90.4047 52.158L90.4124 52.1702L92.9502 50.5703ZM96.7295 52.5918L96.8247 49.5933L96.7771 49.5918H96.7295V52.5918ZM115.489 43.5611C115.165 48.4623 112.402 52.4977 106.263 55.633L108.992 60.9764C116.506 57.139 120.979 51.4771 121.476 43.9565L115.489 43.5611ZM105.884 60.7459C107.967 62.2336 109.449 63.9889 110.413 66.0117L115.829 63.4297C114.391 60.4134 112.211 57.8914 109.372 55.8635L105.884 60.7459ZM110.413 66.0117C111.374 68.0274 111.795 70.2755 111.622 72.823L117.608 73.2298C117.845 69.7421 117.27 66.4531 115.829 63.4297L110.413 66.0117ZM111.621 72.8327C111.293 77.9083 109.267 81.7312 105.544 84.5722L109.184 89.3419C114.368 85.386 117.176 79.9218 117.609 73.22L111.621 72.8327ZM105.537 84.578C101.743 87.4923 96.9467 88.9867 90.9383 88.8794L90.8312 94.8784C97.9479 95.0055 104.138 93.2186 109.192 89.3361L105.537 84.578ZM90.9154 88.8791C88.335 88.8527 85.9365 88.4588 83.7036 87.7145L81.8062 93.4066C84.6709 94.3615 87.6924 94.8465 90.8542 94.8788L90.9154 88.8791ZM83.7036 87.7145C81.5312 86.9904 79.7327 85.9275 78.2565 84.5465L74.1576 88.9281C76.3141 90.9456 78.8809 92.4315 81.8062 93.4066L83.7036 87.7145ZM78.2374 84.5288C75.3393 81.8644 73.9995 78.4505 74.3215 73.9432L68.3367 73.5158C67.897 79.6725 69.8091 84.9305 74.1766 88.9458L78.2374 84.5288ZM74.3239 73.9064C74.6513 68.3638 77.8745 63.8657 85.1183 60.4977L82.5887 55.057C73.9536 59.0718 68.8272 65.2085 68.3343 73.5526L74.3239 73.9064ZM85.6942 55.4084C82.1335 52.6416 80.5443 49.1622 80.7848 44.6661L74.7933 44.3457C74.4478 50.8065 76.9017 56.1748 82.0128 60.1463L85.6942 55.4084ZM80.7845 44.671C80.9611 41.4667 81.8939 38.7542 83.533 36.4401L78.6369 32.972C76.2916 36.283 75.0272 40.1036 74.7936 44.3408L80.7845 44.671ZM83.533 36.4401C85.1955 34.0931 87.4271 32.2734 90.3081 30.9845L87.8579 25.5076C84.0592 27.207 80.9588 29.694 78.6369 32.972L83.533 36.4401ZM90.319 30.9796C93.2426 29.6577 96.4986 29.013 100.136 29.0921L100.266 23.0935C95.8178 22.9968 91.6617 23.7877 87.847 25.5126L90.319 30.9796ZM100.141 29.0922C105.444 29.1982 109.243 30.702 111.907 33.2959L116.093 28.9971C112.077 25.087 106.677 23.2217 100.261 23.0934L100.141 29.0922ZM111.917 33.305C114.573 35.8687 115.814 39.1655 115.491 43.5378L121.474 43.9798C121.913 38.0396 120.166 32.9282 116.083 28.988L111.917 33.305ZM103.357 72.1837C103.678 69.4015 103.268 66.7471 101.759 64.5279L96.7975 67.9018C97.2807 68.6123 97.603 69.7079 97.3967 71.496L103.357 72.1837ZM101.782 64.5623C100.198 62.1622 97.7434 61.0138 94.928 60.931L94.7516 66.9284C95.9206 66.9628 96.425 67.3378 96.7745 67.8674L101.782 64.5623ZM94.9177 60.9307C91.8137 60.8501 89.0777 61.9776 86.8738 64.1814L91.1164 68.4241C92.1938 67.3467 93.3543 66.8921 94.7619 66.9287L94.9177 60.9307ZM86.893 64.1624C84.7144 66.3021 83.4709 69.0312 83.0745 72.1667L89.0271 72.9193C89.2752 70.957 89.9946 69.526 91.0972 68.4431L86.893 64.1624ZM83.0687 72.2157C82.7545 75.0784 83.1614 77.8165 84.7522 80.0435L89.6346 76.5561C89.1745 75.912 88.8197 74.8123 89.0329 72.8703L83.0687 72.2157ZM84.7934 80.0998C86.4739 82.3406 88.9086 83.4144 91.6755 83.4958L91.8519 77.4984C90.6343 77.4626 90.0221 77.0715 89.5934 76.4998L84.7934 80.0998ZM91.6826 83.496C94.7014 83.5776 97.3689 82.4787 99.5344 80.3526L95.3308 76.0712C94.2737 77.1092 93.1619 77.5338 91.8447 77.4982L91.6826 83.496ZM99.5344 80.3526C101.71 78.2164 102.929 75.4307 103.351 72.2321L97.4027 71.4476C97.1214 73.5811 96.3778 75.0433 95.3308 76.0712L99.5344 80.3526ZM106.875 44.8723C107.153 42.3007 106.844 39.7874 105.457 37.7308L100.483 41.0856C100.795 41.5485 101.101 42.4629 100.91 44.2274L106.875 44.8723ZM105.475 37.7573C104.03 35.5649 101.808 34.4746 99.2344 34.4746V40.4746C99.9418 40.4746 100.211 40.6734 100.465 41.0591L105.475 37.7573ZM99.3266 34.476C96.5278 34.3899 94.0835 35.4499 92.1908 37.5108L96.61 41.5693C97.354 40.7591 98.1323 40.4421 99.1421 40.4732L99.3266 34.476ZM92.1682 37.5357C90.3802 39.5268 89.3999 42.0504 89.0499 44.8853L95.0047 45.6205C95.2407 43.7093 95.8424 42.4243 96.6325 41.5444L92.1682 37.5357ZM89.0447 44.9305C88.7635 47.5322 89.0932 50.0324 90.3971 52.1456L95.5033 48.995C95.108 48.3543 94.8225 47.3096 95.01 45.5754L89.0447 44.9305ZM90.4124 52.1702C91.8427 54.4389 94.0894 55.5918 96.7295 55.5918V49.5918C96.0298 49.5918 95.7569 49.397 95.488 48.9704L90.4124 52.1702ZM96.6343 55.5903C99.4287 55.679 101.841 54.5607 103.705 52.4893L99.2457 48.4755C98.4732 49.3338 97.7217 49.6218 96.8247 49.5933L96.6343 55.5903ZM103.705 52.4893C105.54 50.4515 106.526 47.8387 106.872 44.9003L100.913 44.1993C100.673 46.2414 100.048 47.5837 99.2457 48.4755L103.705 52.4893Z" fill="#EF3829"/>
</g>
<defs>
<filter id="filter0_f" x="59" y="81.8613" width="156" height="26" filterUnits="userSpaceOnUse" color-interpolation-filters="sRGB">
<feFlood flood-opacity="0" result="BackgroundImageFix"/>
<feBlend mode="normal" in="SourceGraphic" in2="BackgroundImageFix" result="shape"/>
<feGaussianBlur stdDeviation="5" result="effect1_foregroundBlur"/>
</filter>
<clipPath id="clip0">
<rect width="277" height="105.82" fill="white"/>
</clipPath>
</defs>
</svg>
