<svg width="277" height="106" viewBox="0 0 277 106" fill="none" xmlns="http://www.w3.org/2000/svg">
<g clip-path="url(#clip0)">
<g clip-path="url(#clip1)">
<path d="M138.218 15.0728C139.005 15.2798 139.596 15.68 140.217 16.3837C140.777 17.0323 141.08 17.8602 141.05 18.6882V18.702V18.7158C141.05 18.7158 141.05 18.7296 141.065 18.7296C141.065 18.7296 141.065 18.7434 141.08 18.7434L141.096 18.7572C141.096 18.7572 141.111 18.7572 141.111 18.771H141.126H141.141C141.186 18.771 141.217 18.7434 141.217 18.702C141.217 18.702 141.217 18.702 141.217 18.6882C141.186 17.874 141.489 17.0323 142.05 16.3837C142.656 15.6662 143.262 15.2798 144.049 15.0728C144.095 15.059 144.11 15.0314 144.11 14.99C144.11 14.9486 144.079 14.921 144.049 14.921C143.246 14.7416 142.762 14.3138 142.247 13.817C141.747 13.3341 141.398 12.6993 141.232 11.9127C141.232 11.9127 141.232 11.9127 141.232 11.8989C141.232 11.8851 141.232 11.8851 141.217 11.8851C141.217 11.8851 141.217 11.8851 141.217 11.8713L141.202 11.8575C141.202 11.8575 141.202 11.8575 141.186 11.8575C141.186 11.8575 141.171 11.8575 141.171 11.8438H141.156H141.141C141.141 11.8438 141.126 11.8438 141.126 11.8575C141.126 11.8575 141.126 11.8575 141.111 11.8575L141.096 11.8713C141.096 11.8713 141.096 11.8713 141.096 11.8851C141.096 11.8851 141.096 11.8989 141.08 11.8989C141.08 11.8989 141.08 11.8989 141.08 11.9127C140.914 12.6993 140.565 13.3479 140.066 13.817C139.52 14.3138 139.02 14.7416 138.218 14.921C138.187 14.921 138.157 14.9486 138.157 14.99C138.157 15.0314 138.187 15.059 138.218 15.0728Z" fill="#954EDE"/>
</g>
<path d="M120.988 12.8834C120.801 12.9069 120.613 12.9771 120.449 13.0707C120.192 12.5557 119.607 12.2513 118.998 12.345C118.647 12.3918 118.342 12.5791 118.132 12.8366C117.851 12.6727 117.5 12.5791 117.148 12.6493C116.797 12.6961 116.493 12.8834 116.282 13.141C115.978 12.9537 115.65 12.8834 115.275 12.9303C114.526 13.0473 114.011 13.7263 114.105 14.4286C114.316 15.7163 114.386 16.325 114.433 16.5825C114.199 16.8635 114.081 17.2381 114.152 17.6127L114.479 19.6495C114.69 21.0308 115.65 22.2014 116.985 22.7867L118.061 29.6464C118.108 29.8805 118.319 30.021 118.577 29.9976C118.811 29.9507 118.998 29.74 118.951 29.5059L117.851 22.4355C117.827 22.295 117.734 22.1546 117.57 22.1077C116.399 21.6863 115.556 20.703 115.369 19.5324L115.041 17.4722C115.018 17.3083 115.065 17.1678 115.205 17.0508C115.205 17.0508 115.205 17.0508 115.229 17.0508C115.299 17.0039 115.393 16.9571 115.463 16.9337L117.851 16.5591C118.132 16.5123 118.366 16.6996 118.413 16.9337C118.459 17.1912 118.272 17.4254 117.991 17.4722L116.54 17.7063C116.423 17.7297 116.329 17.7765 116.259 17.8702C116.189 17.9638 116.165 18.0809 116.165 18.1745L116.376 19.5558C116.399 19.7197 116.54 19.8602 116.704 19.8836L118.857 20.3753C118.928 20.3987 118.975 20.3987 119.045 20.3753C119.209 20.3518 119.373 20.2348 119.419 20.0709C119.49 19.8368 119.349 19.6261 119.092 19.5558L117.219 19.111L117.102 18.4087L118.108 18.2448C118.74 18.1511 119.209 17.6595 119.279 17.0976C119.419 17.121 119.583 17.121 119.747 17.0976C120.098 17.0508 120.403 16.8635 120.613 16.6059C120.894 16.7698 121.245 16.8635 121.597 16.7932C121.761 16.7698 121.924 16.6996 122.065 16.6294L122.346 18.4321C122.603 20.1411 121.363 21.7331 119.56 22.0375C119.326 22.0843 119.138 22.295 119.185 22.5292C119.232 22.7633 119.443 22.9037 119.7 22.8803C120.332 22.7867 120.894 22.5526 121.386 22.2482L122.439 28.8972C122.486 29.1313 122.697 29.2718 122.955 29.2484C123.189 29.2016 123.376 28.9908 123.329 28.7567L122.205 21.5927C123.025 20.7264 123.446 19.5324 123.259 18.315L122.557 13.8902C122.439 13.2346 121.737 12.7664 120.988 12.8834ZM115.275 16.1143C115.205 15.6226 115.088 14.85 114.995 14.2882C114.948 14.0306 115.135 13.7965 115.416 13.7497C115.697 13.7029 115.931 13.8902 115.978 14.1243L116.259 15.9504L115.322 16.0909C115.322 16.1143 115.299 16.1143 115.275 16.1143ZM117.71 15.7397L117.148 15.8333L116.867 14.0072C116.821 13.7497 117.008 13.5156 117.289 13.4687C117.57 13.4219 117.804 13.6092 117.851 13.8433L118.155 15.7163C117.991 15.7163 117.851 15.7163 117.71 15.7397ZM119.63 16.325C119.349 16.3718 119.115 16.1845 119.068 15.9504L118.717 13.7029C118.67 13.4453 118.857 13.2112 119.138 13.1644C119.419 13.1176 119.653 13.3049 119.7 13.539L120.051 15.7865C120.075 16.0441 119.888 16.3016 119.63 16.325ZM121.48 16.0441C121.199 16.0909 120.965 15.9036 120.918 15.6695L120.684 14.2413C120.66 13.9838 120.847 13.7497 121.128 13.7029C121.409 13.656 121.643 13.8433 121.69 14.0775L121.924 15.5056C121.948 15.7631 121.761 15.9972 121.48 16.0441Z" fill="#FFDFFF"/>
<path d="M131.687 5.55559L131.43 3.86993C131.313 3.07392 130.517 2.51204 129.65 2.65251C129.393 2.69933 129.159 2.79298 128.971 2.93345C128.714 2.30133 128.012 1.90333 127.286 2.02039C126.841 2.09062 126.49 2.32474 126.256 2.6291C125.928 2.39498 125.507 2.30133 125.085 2.37156C124.64 2.4418 124.289 2.67592 124.055 2.98027C123.727 2.74616 123.306 2.65251 122.884 2.72274C122.042 2.86322 121.433 3.6124 121.573 4.43181C121.831 6.04724 121.924 6.74959 121.971 7.05395C121.69 7.38172 121.55 7.80313 121.62 8.22455L121.948 10.6594C122.205 12.2982 123.329 13.7029 124.945 14.3585L127.122 28.2417C127.169 28.4759 127.379 28.6163 127.637 28.5929C127.871 28.5461 128.058 28.3354 128.012 28.1013L125.787 13.9839C125.764 13.8434 125.67 13.7029 125.507 13.6561C124.078 13.141 123.048 11.947 122.838 10.5189L122.463 8.08407C122.44 7.87337 122.51 7.66266 122.674 7.49878C122.674 7.49878 122.697 7.49878 122.697 7.47536C122.791 7.40513 122.908 7.3583 123.025 7.33489L125.858 6.89007C126.232 6.84324 126.56 7.07736 126.63 7.40513C126.677 7.75631 126.42 8.08407 126.068 8.1309L124.336 8.41184C124.219 8.43525 124.125 8.48208 124.055 8.57572C123.985 8.66937 123.961 8.78643 123.961 8.88008L124.219 10.5189C124.242 10.6828 124.383 10.8233 124.547 10.8467L127.122 11.4554C127.192 11.4788 127.239 11.4788 127.309 11.4554C127.473 11.432 127.637 11.3149 127.684 11.151C127.754 10.9169 127.614 10.7062 127.356 10.636L125.062 10.0975L124.921 9.13761L126.209 8.9269C126.958 8.80984 127.497 8.22455 127.543 7.52219C127.731 7.56901 127.941 7.56901 128.152 7.5456C128.597 7.47536 128.948 7.24124 129.182 6.93689C129.51 7.17101 129.931 7.26466 130.353 7.19442C130.587 7.1476 130.821 7.07736 131.008 6.93689L131.359 9.23126C131.687 11.2915 130.165 13.2815 127.965 13.6093C127.731 13.6561 127.543 13.8668 127.59 14.1009C127.637 14.3351 127.848 14.4755 128.105 14.4521C128.878 14.3351 129.58 14.0307 130.189 13.6327L132.343 27.3521C132.39 27.5862 132.6 27.7267 132.858 27.7033C133.092 27.6564 133.279 27.4457 133.232 27.2116L130.985 12.9538C131.968 11.947 132.483 10.5423 132.249 9.09079L131.687 5.55559ZM122.744 6.53889C122.65 5.95359 122.51 4.9937 122.393 4.26793C122.346 3.91675 122.58 3.58898 122.955 3.54216C123.329 3.49534 123.657 3.72946 123.727 4.05722L124.078 6.32818L122.884 6.51547C122.838 6.51547 122.791 6.53889 122.744 6.53889ZM125.741 6.07065L124.968 6.18771L124.617 3.91675C124.57 3.56557 124.828 3.23781 125.179 3.19098C125.553 3.14416 125.881 3.37828 125.951 3.70604L126.326 6.07065C126.139 6.04724 125.928 6.04724 125.741 6.07065ZM128.012 6.77301C127.637 6.81983 127.309 6.58571 127.239 6.25794L126.841 3.58898C126.794 3.23781 127.052 2.91004 127.403 2.86322C127.777 2.81639 128.105 3.05051 128.175 3.37828L128.597 6.04724C128.644 6.39842 128.386 6.72618 128.012 6.77301ZM130.236 6.42183C129.861 6.46865 129.533 6.23453 129.463 5.90677L129.206 4.22111C129.159 3.86993 129.416 3.54216 129.767 3.49534C130.142 3.44851 130.47 3.68263 130.54 4.0104L130.798 5.69606C130.868 6.04724 130.61 6.375 130.236 6.42183Z" fill="#FFDFFF"/>
<path d="M119.894 12.8834C119.707 12.9069 119.519 12.9771 119.356 13.0707C119.098 12.5557 118.513 12.2513 117.904 12.345C117.553 12.3918 117.249 12.5791 117.038 12.8366C116.757 12.6727 116.406 12.5791 116.055 12.6493C115.703 12.6961 115.399 12.8834 115.188 13.141C114.884 12.9537 114.556 12.8834 114.182 12.9303C113.432 13.0473 112.917 13.7263 113.011 14.4286C113.222 15.7163 113.292 16.325 113.339 16.5825C113.105 16.8635 112.988 17.2381 113.058 17.6127L113.386 19.6495C113.596 21.0308 114.556 22.2014 115.891 22.7867L116.968 29.6464C117.014 29.8805 117.225 30.021 117.483 29.9976C117.717 29.9507 117.904 29.74 117.857 29.5059L116.757 22.4355C116.733 22.295 116.64 22.1546 116.476 22.1077C115.305 21.6863 114.463 20.703 114.275 19.5324L113.947 17.4722C113.924 17.3083 113.971 17.1678 114.111 17.0508C114.111 17.0508 114.111 17.0508 114.135 17.0508C114.205 17.0039 114.299 16.9571 114.369 16.9337L116.757 16.5591C117.038 16.5123 117.272 16.6996 117.319 16.9337C117.366 17.1912 117.178 17.4254 116.897 17.4722L115.446 17.7063C115.329 17.7297 115.235 17.7765 115.165 17.8702C115.095 17.9638 115.071 18.0809 115.071 18.1745L115.282 19.5558C115.305 19.7197 115.446 19.8602 115.61 19.8836L117.764 20.3753C117.834 20.3987 117.881 20.3987 117.951 20.3753C118.115 20.3518 118.279 20.2348 118.325 20.0709C118.396 19.8368 118.255 19.6261 117.998 19.5558L116.125 19.111L116.008 18.4087L117.014 18.2448C117.647 18.1511 118.115 17.6595 118.185 17.0976C118.325 17.121 118.489 17.121 118.653 17.0976C119.004 17.0508 119.309 16.8635 119.519 16.6059C119.8 16.7698 120.152 16.8635 120.503 16.7932C120.667 16.7698 120.831 16.6996 120.971 16.6294L121.252 18.4321C121.51 20.1411 120.269 21.7331 118.466 22.0375C118.232 22.0843 118.045 22.295 118.091 22.5292C118.138 22.7633 118.349 22.9037 118.606 22.8803C119.239 22.7867 119.8 22.5526 120.292 22.2482L121.346 28.8972C121.392 29.1313 121.603 29.2718 121.861 29.2484C122.095 29.2016 122.282 28.9908 122.235 28.7567L121.112 21.5927C121.931 20.7264 122.352 19.5324 122.165 18.315L121.463 13.8902C121.346 13.2346 120.643 12.7664 119.894 12.8834ZM114.182 16.1143C114.111 15.6226 113.994 14.85 113.901 14.2882C113.854 14.0306 114.041 13.7965 114.322 13.7497C114.603 13.7029 114.837 13.8902 114.884 14.1243L115.165 15.9504L114.228 16.0909C114.228 16.1143 114.205 16.1143 114.182 16.1143ZM116.616 15.7397L116.055 15.8333L115.774 14.0072C115.727 13.7497 115.914 13.5156 116.195 13.4687C116.476 13.4219 116.71 13.6092 116.757 13.8433L117.061 15.7163C116.897 15.7163 116.757 15.7163 116.616 15.7397ZM118.536 16.325C118.255 16.3718 118.021 16.1845 117.974 15.9504L117.623 13.7029C117.576 13.4453 117.764 13.2112 118.045 13.1644C118.325 13.1176 118.56 13.3049 118.606 13.539L118.958 15.7865C118.981 16.0441 118.794 16.3016 118.536 16.325ZM120.386 16.0441C120.105 16.0909 119.871 15.9036 119.824 15.6695L119.59 14.2413C119.566 13.9838 119.754 13.7497 120.035 13.7029C120.316 13.656 120.55 13.8433 120.596 14.0775L120.831 15.5056C120.854 15.7631 120.667 15.9972 120.386 16.0441Z" fill="#954EDE"/>
<path d="M130.593 5.55559L130.336 3.86993C130.219 3.07392 129.423 2.51204 128.557 2.65251C128.299 2.69933 128.065 2.79298 127.878 2.93345C127.62 2.30133 126.918 1.90333 126.192 2.02039C125.747 2.09062 125.396 2.32474 125.162 2.6291C124.834 2.39498 124.413 2.30133 123.991 2.37156C123.546 2.4418 123.195 2.67592 122.961 2.98027C122.633 2.74616 122.212 2.65251 121.79 2.72274C120.948 2.86322 120.339 3.6124 120.479 4.43181C120.737 6.04724 120.831 6.74959 120.877 7.05395C120.596 7.38172 120.456 7.80313 120.526 8.22455L120.854 10.6594C121.112 12.2982 122.235 13.7029 123.851 14.3585L126.028 28.2417C126.075 28.4759 126.286 28.6163 126.543 28.5929C126.777 28.5461 126.965 28.3354 126.918 28.1013L124.694 13.9839C124.67 13.8434 124.577 13.7029 124.413 13.6561C122.985 13.141 121.954 11.947 121.744 10.5189L121.369 8.08407C121.346 7.87337 121.416 7.66266 121.58 7.49878C121.58 7.49878 121.603 7.49878 121.603 7.47536C121.697 7.40513 121.814 7.3583 121.931 7.33489L124.764 6.89007C125.138 6.84324 125.466 7.07736 125.536 7.40513C125.583 7.75631 125.326 8.08407 124.975 8.1309L123.242 8.41184C123.125 8.43525 123.031 8.48208 122.961 8.57572C122.891 8.66937 122.867 8.78643 122.867 8.88008L123.125 10.5189C123.148 10.6828 123.289 10.8233 123.453 10.8467L126.028 11.4554C126.098 11.4788 126.145 11.4788 126.215 11.4554C126.379 11.432 126.543 11.3149 126.59 11.151C126.66 10.9169 126.52 10.7062 126.262 10.636L123.968 10.0975L123.827 9.13761L125.115 8.9269C125.864 8.80984 126.403 8.22455 126.449 7.52219C126.637 7.56901 126.847 7.56901 127.058 7.5456C127.503 7.47536 127.854 7.24124 128.088 6.93689C128.416 7.17101 128.837 7.26466 129.259 7.19442C129.493 7.1476 129.727 7.07736 129.914 6.93689L130.266 9.23126C130.593 11.2915 129.072 13.2815 126.871 13.6093C126.637 13.6561 126.449 13.8668 126.496 14.1009C126.543 14.3351 126.754 14.4755 127.011 14.4521C127.784 14.3351 128.486 14.0307 129.095 13.6327L131.249 27.3521C131.296 27.5862 131.506 27.7267 131.764 27.7033C131.998 27.6564 132.185 27.4457 132.139 27.2116L129.891 12.9538C130.874 11.947 131.389 10.5423 131.155 9.09079L130.593 5.55559ZM121.65 6.53889C121.556 5.95359 121.416 4.9937 121.299 4.26793C121.252 3.91675 121.486 3.58898 121.861 3.54216C122.235 3.49534 122.563 3.72946 122.633 4.05722L122.985 6.32818L121.79 6.51547C121.744 6.51547 121.697 6.53889 121.65 6.53889ZM124.647 6.07065L123.874 6.18771L123.523 3.91675C123.476 3.56557 123.734 3.23781 124.085 3.19098C124.459 3.14416 124.787 3.37828 124.857 3.70604L125.232 6.07065C125.045 6.04724 124.834 6.04724 124.647 6.07065ZM126.918 6.77301C126.543 6.81983 126.215 6.58571 126.145 6.25794L125.747 3.58898C125.7 3.23781 125.958 2.91004 126.309 2.86322C126.684 2.81639 127.011 3.05051 127.082 3.37828L127.503 6.04724C127.55 6.39842 127.292 6.72618 126.918 6.77301ZM129.142 6.42183C128.767 6.46865 128.439 6.23453 128.369 5.90677L128.112 4.22111C128.065 3.86993 128.322 3.54216 128.674 3.49534C129.048 3.44851 129.376 3.68263 129.446 4.0104L129.704 5.69606C129.774 6.04724 129.516 6.375 129.142 6.42183Z" fill="#954EDE"/>
<g filter="url(#filter0_f)">
<ellipse cx="118" cy="94.8613" rx="68" ry="3" fill="#C4C4C4" fill-opacity="0.5"/>
</g>
<path d="M156.71 89.2393C155.909 90.1768 154.742 90.9043 153.209 91.4219C151.676 91.9297 149.977 92.1689 148.111 92.1396C146.324 92.1201 144.815 91.6709 143.585 90.792C142.354 89.9131 141.476 88.6875 140.948 87.1152C140.421 85.543 140.279 83.7705 140.523 81.7979L140.641 80.9189C141.09 77.6084 142.252 74.9863 144.127 73.0527C146.012 71.1191 148.316 70.1768 151.041 70.2256C153.424 70.2646 155.255 70.9043 156.534 72.1445C157.813 73.3848 158.526 75.1768 158.673 77.5205L153.868 77.5059C153.8 76.3633 153.517 75.5283 153.019 75.001C152.53 74.4736 151.832 74.1953 150.924 74.166C149.576 74.1172 148.463 74.6494 147.584 75.7627C146.705 76.8662 146.104 78.4482 145.782 80.5088C145.509 82.2666 145.411 83.6338 145.489 84.6104C145.636 86.9639 146.695 88.1553 148.668 88.1846C149.859 88.2041 150.904 87.916 151.803 87.3203L152.462 83.9951H148.99L149.605 80.4648H158.087L156.71 89.2393ZM164.356 91.8613H159.347L163.053 70.5332H168.048L164.356 91.8613ZM185.626 89.2393C184.825 90.1768 183.658 90.9043 182.125 91.4219C180.592 91.9297 178.893 92.1689 177.027 92.1396C175.24 92.1201 173.731 91.6709 172.501 90.792C171.271 89.9131 170.392 88.6875 169.864 87.1152C169.337 85.543 169.195 83.7705 169.439 81.7979L169.557 80.9189C170.006 77.6084 171.168 74.9863 173.043 73.0527C174.928 71.1191 177.232 70.1768 179.957 70.2256C182.34 70.2646 184.171 70.9043 185.45 72.1445C186.729 73.3848 187.442 75.1768 187.589 77.5205L182.784 77.5059C182.716 76.3633 182.433 75.5283 181.935 75.001C181.446 74.4736 180.748 74.1953 179.84 74.166C178.492 74.1172 177.379 74.6494 176.5 75.7627C175.621 76.8662 175.021 78.4482 174.698 80.5088C174.425 82.2666 174.327 83.6338 174.405 84.6104C174.552 86.9639 175.611 88.1553 177.584 88.1846C178.775 88.2041 179.82 87.916 180.719 87.3203L181.378 83.9951H177.906L178.521 80.4648H187.003L185.626 89.2393ZM200.45 87.877H193.639L191.749 91.8613H186.227L197.521 70.5332H202.237L206.178 91.8613H200.963L200.45 87.877ZM195.514 83.9072H199.938L199 76.5537L195.514 83.9072ZM219.625 86.0898C219.84 84.9863 219.244 84.1318 217.838 83.5264L215.436 82.5303C212.066 81.0166 210.465 78.9561 210.631 76.3486C210.699 75.1572 211.109 74.0977 211.861 73.1699C212.613 72.2324 213.653 71.5049 214.981 70.9873C216.31 70.4697 217.76 70.2207 219.332 70.2402C221.441 70.2793 223.136 70.8945 224.415 72.0859C225.704 73.2773 226.339 74.874 226.319 76.876H221.339C221.368 76.0557 221.192 75.4014 220.812 74.9131C220.44 74.415 219.825 74.1562 218.966 74.1367C218.126 74.1172 217.384 74.3125 216.739 74.7227C216.095 75.1328 215.714 75.6846 215.597 76.3779C215.411 77.3545 216.134 78.1553 217.765 78.7803C219.405 79.4053 220.597 79.9424 221.339 80.3916C223.673 81.7881 224.767 83.6729 224.62 86.0459C224.542 87.2764 224.146 88.3555 223.434 89.2832C222.721 90.2109 221.729 90.9287 220.46 91.4365C219.2 91.9443 217.784 92.1885 216.212 92.1689C215.06 92.1494 213.99 91.9688 213.004 91.627C212.018 91.2852 211.173 90.7871 210.47 90.1328C209.044 88.8145 208.36 87.0811 208.419 84.9326L213.443 84.9473C213.385 86.041 213.595 86.8711 214.073 87.4375C214.552 87.9941 215.357 88.2725 216.49 88.2725C217.33 88.2725 218.028 88.082 218.585 87.7012C219.151 87.3105 219.498 86.7734 219.625 86.0898Z" fill="#BBBBBB"/>
<path d="M136.482 43.6201C136.072 49.8311 132.454 54.6797 125.628 58.166C128.089 59.9238 129.92 62.0625 131.121 64.582C132.322 67.1016 132.82 69.8701 132.615 72.8877C132.234 78.7764 129.817 83.4199 125.364 86.8184C120.94 90.2168 115.447 91.8574 108.885 91.7402C106.014 91.7109 103.304 91.2715 100.755 90.4219C98.2061 89.5723 96.0234 88.2979 94.207 86.5986C90.5742 83.2588 88.9482 78.9229 89.3291 73.5908C89.7393 66.6475 93.9141 61.3301 101.854 57.6387C97.5176 54.2695 95.4961 49.8457 95.7891 44.3672C95.9941 40.6465 97.0928 37.3799 99.085 34.5674C101.077 31.7549 103.743 29.6016 107.083 28.1074C110.452 26.584 114.158 25.8662 118.201 25.9541C124.061 26.0713 128.66 27.7559 132 31.0078C135.369 34.2598 136.863 38.4639 136.482 43.6201ZM118.377 71.7012C118.641 69.416 118.274 67.541 117.278 66.0762C116.312 64.6113 114.832 63.8496 112.84 63.791C110.584 63.7324 108.636 64.5234 106.995 66.1641C105.354 67.7754 104.373 69.8555 104.051 72.4043C103.787 74.8066 104.168 76.7256 105.193 78.1611C106.248 79.5674 107.771 80.2998 109.764 80.3584C111.932 80.417 113.821 79.6553 115.433 78.0732C117.044 76.4912 118.025 74.3672 118.377 71.7012ZM121.893 44.4111C122.127 42.2432 121.819 40.5293 120.97 39.2695C120.12 37.9805 118.875 37.3359 117.234 37.3359C115.33 37.2773 113.719 37.9658 112.4 39.4014C111.111 40.8369 110.32 42.7412 110.027 45.1143C109.793 47.2822 110.101 49.0547 110.95 50.4316C111.8 51.7793 113.06 52.4531 114.729 52.4531C116.575 52.5117 118.157 51.8086 119.476 50.3438C120.794 48.8789 121.6 46.9014 121.893 44.4111Z" fill="#EF3829"/>
<path d="M136.482 43.6201L133.491 43.3991L133.49 43.4108L133.489 43.4224L136.482 43.6201ZM125.628 58.166L124.263 55.4943L119.869 57.7389L123.884 60.6072L125.628 58.166ZM132.615 72.8877L129.622 72.6843L129.621 72.6941L132.615 72.8877ZM125.364 86.8184L123.544 84.4335L123.537 84.4393L125.364 86.8184ZM108.885 91.7402L108.938 88.7407L108.927 88.7405L108.915 88.7404L108.885 91.7402ZM94.207 86.5986L96.2565 84.4078L96.247 84.3989L96.2374 84.3901L94.207 86.5986ZM89.3291 73.5908L92.3215 73.8046L92.3228 73.7862L92.3239 73.7677L89.3291 73.5908ZM101.854 57.6387L103.118 60.359L107.576 58.2863L103.694 55.2698L101.854 57.6387ZM95.7891 44.3672L92.7936 44.2021L92.7933 44.207L95.7891 44.3672ZM107.083 28.1074L108.308 30.8459L108.319 30.841L107.083 28.1074ZM118.201 25.9541L118.136 28.9534L118.141 28.9535L118.201 25.9541ZM132 31.0078L129.907 33.1572L129.917 33.1663L132 31.0078ZM118.377 71.7012L121.351 72.0934L121.354 72.0692L121.357 72.045L118.377 71.7012ZM117.278 66.0762L114.774 67.7287L114.786 67.746L114.798 67.7631L117.278 66.0762ZM112.84 63.791L112.928 60.7923L112.918 60.792L112.84 63.791ZM106.995 66.1641L109.097 68.3044L109.107 68.2949L109.116 68.2854L106.995 66.1641ZM104.051 72.4043L101.074 72.028L101.071 72.0525L101.069 72.077L104.051 72.4043ZM105.193 78.1611L102.752 79.9048L102.772 79.9332L102.793 79.9611L105.193 78.1611ZM109.764 80.3584L109.675 83.3571L109.683 83.3573L109.764 80.3584ZM121.893 44.4111L124.872 44.7617L124.874 44.7476L124.875 44.7336L121.893 44.4111ZM120.97 39.2695L118.465 40.9205L118.474 40.9338L118.483 40.947L120.97 39.2695ZM117.234 37.3359L117.142 40.3345L117.188 40.3359H117.234V37.3359ZM112.4 39.4014L110.191 37.3722L110.179 37.3845L110.168 37.397L112.4 39.4014ZM110.027 45.1143L107.05 44.7467L107.047 44.7692L107.045 44.7918L110.027 45.1143ZM110.95 50.4316L108.397 52.007L108.405 52.0193L108.412 52.0315L110.95 50.4316ZM114.729 52.4531L114.825 49.4546L114.777 49.4531H114.729V52.4531ZM133.489 43.4224C133.165 48.3237 130.402 52.3591 124.263 55.4943L126.992 60.8377C134.506 57.0003 138.979 51.3384 139.476 43.8178L133.489 43.4224ZM123.884 60.6072C125.967 62.0949 127.449 63.8503 128.413 65.8731L133.829 63.291C132.391 60.2747 130.211 57.7528 127.372 55.7248L123.884 60.6072ZM128.413 65.8731C129.374 67.8887 129.795 70.1368 129.622 72.6843L135.608 73.0911C135.845 69.6034 135.27 66.3144 133.829 63.291L128.413 65.8731ZM129.621 72.6941C129.293 77.7696 127.267 81.5926 123.544 84.4335L127.184 89.2032C132.368 85.2473 135.176 79.7832 135.609 73.0813L129.621 72.6941ZM123.537 84.4393C119.743 87.3537 114.947 88.848 108.938 88.7407L108.831 94.7398C115.948 94.8668 122.138 93.0799 127.192 89.1974L123.537 84.4393ZM108.915 88.7404C106.335 88.7141 103.937 88.3201 101.704 87.5758L99.8062 93.2679C102.671 94.2228 105.692 94.7078 108.854 94.7401L108.915 88.7404ZM101.704 87.5758C99.5312 86.8517 97.7327 85.7888 96.2565 84.4078L92.1576 88.7894C94.3141 90.8069 96.8809 92.2928 99.8062 93.2679L101.704 87.5758ZM96.2374 84.3901C93.3393 81.7257 91.9995 78.3118 92.3215 73.8046L86.3367 73.3771C85.897 79.5339 87.8091 84.7919 92.1766 88.8071L96.2374 84.3901ZM92.3239 73.7677C92.6513 68.2251 95.8745 63.727 103.118 60.359L100.589 54.9183C91.9536 58.9332 86.8272 65.0698 86.3343 73.4139L92.3239 73.7677ZM103.694 55.2698C100.133 52.503 98.5443 49.0236 98.7848 44.5274L92.7933 44.207C92.4478 50.6678 94.9017 56.0361 100.013 60.0076L103.694 55.2698ZM98.7845 44.5323C98.9611 41.328 99.8939 38.6155 101.533 36.3014L96.6369 32.8333C94.2916 36.1443 93.0272 39.9649 92.7936 44.2021L98.7845 44.5323ZM101.533 36.3014C103.196 33.9544 105.427 32.1348 108.308 30.8459L105.858 25.369C102.059 27.0684 98.9588 29.5554 96.6369 32.8333L101.533 36.3014ZM108.319 30.841C111.243 29.519 114.499 28.8743 118.136 28.9534L118.266 22.9548C113.818 22.8581 109.662 23.649 105.847 25.3739L108.319 30.841ZM118.141 28.9535C123.444 29.0596 127.243 30.5634 129.907 33.1572L134.093 28.8584C130.077 24.9484 124.677 23.083 118.261 22.9547L118.141 28.9535ZM129.917 33.1663C132.573 35.73 133.814 39.0268 133.491 43.3991L139.474 43.8411C139.913 37.9009 138.166 32.7895 134.083 28.8493L129.917 33.1663ZM121.357 72.045C121.678 69.2628 121.268 66.6084 119.759 64.3892L114.798 67.7631C115.281 68.4736 115.603 69.5693 115.397 71.3573L121.357 72.045ZM119.782 64.4236C118.198 62.0236 115.743 60.8751 112.928 60.7923L112.752 66.7897C113.921 66.8241 114.425 67.1991 114.774 67.7287L119.782 64.4236ZM112.918 60.792C109.814 60.7114 107.078 61.8389 104.874 64.0427L109.116 68.2854C110.194 67.208 111.354 66.7534 112.762 66.79L112.918 60.792ZM104.893 64.0237C102.714 66.1634 101.471 68.8926 101.074 72.028L107.027 72.7806C107.275 70.8184 107.995 69.3873 109.097 68.3044L104.893 64.0237ZM101.069 72.077C100.754 74.9397 101.161 77.6778 102.752 79.9048L107.635 76.4174C107.175 75.7734 106.82 74.6736 107.033 72.7316L101.069 72.077ZM102.793 79.9611C104.474 82.2019 106.909 83.2757 109.675 83.3571L109.852 77.3597C108.634 77.3239 108.022 76.9329 107.593 76.3611L102.793 79.9611ZM109.683 83.3573C112.701 83.4389 115.369 82.34 117.534 80.2139L113.331 75.9326C112.274 76.9705 111.162 77.3951 109.845 77.3595L109.683 83.3573ZM117.534 80.2139C119.71 78.0778 120.929 75.292 121.351 72.0934L115.403 71.309C115.121 73.4424 114.378 74.9047 113.331 75.9326L117.534 80.2139ZM124.875 44.7336C125.153 42.1621 124.844 39.6487 123.457 37.5921L118.483 40.947C118.795 41.4098 119.101 42.3243 118.91 44.0887L124.875 44.7336ZM123.475 37.6186C122.03 35.4262 119.808 34.3359 117.234 34.3359V40.3359C117.942 40.3359 118.211 40.5347 118.465 40.9205L123.475 37.6186ZM117.327 34.3374C114.528 34.2512 112.083 35.3112 110.191 37.3722L114.61 41.4306C115.354 40.6204 116.132 40.3034 117.142 40.3345L117.327 34.3374ZM110.168 37.397C108.38 39.3882 107.4 41.9118 107.05 44.7467L113.005 45.4818C113.241 43.5707 113.842 42.2857 114.633 41.4057L110.168 37.397ZM107.045 44.7918C106.763 47.3935 107.093 49.8937 108.397 52.007L113.503 48.8563C113.108 48.2157 112.822 47.1709 113.01 45.4367L107.045 44.7918ZM108.412 52.0315C109.843 54.3003 112.089 55.4531 114.729 55.4531V49.4531C114.03 49.4531 113.757 49.2583 113.488 48.8317L108.412 52.0315ZM114.634 55.4516C117.429 55.5403 119.841 54.422 121.705 52.3506L117.246 48.3369C116.473 49.1952 115.722 49.4831 114.825 49.4546L114.634 55.4516ZM121.705 52.3506C123.54 50.3128 124.526 47.7 124.872 44.7617L118.913 44.0606C118.673 46.1027 118.048 47.445 117.246 48.3369L121.705 52.3506Z" fill="#EF3829"/>
<g clip-path="url(#clip2)">
<path d="M83.7257 16.2613C83.5388 16.3921 83.3707 16.5603 83.2399 16.7471C83.1464 16.8779 81.4834 19.6435 81.4834 19.6435C80.2127 21.7551 78.5496 23.5489 76.5689 24.9878L75.5972 25.6979C73.5791 27.1741 73.1119 29.9957 74.5508 31.9951C75.2608 32.9668 76.3073 33.6021 77.4845 33.8077C78.1385 33.9198 78.8112 33.8638 79.4279 33.6956L80.7359 35.5081C80.8107 35.6016 80.9041 35.6576 81.0162 35.6763C81.1096 35.695 81.2218 35.6763 81.3152 35.6203L83.1651 38.1616C83.5015 38.6288 84.006 38.9277 84.5479 39.0025C85.0898 39.0959 85.6504 38.9651 86.1176 38.6288C87.0519 37.9374 87.2761 36.6106 86.5847 35.6763L84.7348 33.1163L85.0711 32.8734C85.1646 32.7986 85.2206 32.7052 85.2393 32.5931C85.258 32.481 85.2206 32.3689 85.1646 32.2754L84.1181 30.8553C85.4822 30.1452 86.9211 29.6033 88.4346 29.2482C88.4346 29.2482 91.5926 28.5195 91.8355 28.4261C92.0972 28.3326 92.3401 28.1458 92.3401 28.1458C94.1713 26.9125 93.6481 23.2126 91.2189 19.8864C88.8271 16.5229 85.5196 14.9533 83.7257 16.2613ZM80.2501 33.3592C80.4556 33.2471 80.6425 33.135 80.8293 33.0042L81.8571 32.2567C82.0066 32.1446 82.1748 32.0325 82.3242 31.9204L83.2212 33.1537L81.1844 34.6299L80.2501 33.3592ZM83.8565 37.6384L82.0066 35.097L82.9783 34.387L84.8282 36.9283C85.0337 37.2086 85.1085 37.5263 85.0524 37.8626C85.0151 38.0308 84.8469 38.1616 84.6787 38.1242C84.361 38.0869 84.0621 37.9187 83.8565 37.6384ZM85.8933 36.1435C86.211 36.5733 86.211 37.1525 85.912 37.5823C85.8933 37.1712 85.7625 36.7601 85.5009 36.4238L83.651 33.8824L84.0247 33.6021L85.8933 36.1435ZM84.2302 32.4249L83.9126 32.6678L83.0343 31.4719C83.1464 31.3972 83.2586 31.3411 83.3707 31.2664L84.2302 32.4249ZM88.2665 28.3887C85.7625 28.9866 83.4454 30.0518 81.3526 31.5653L80.3248 32.3128C79.54 32.8921 78.587 33.1163 77.6153 32.9668C76.6623 32.8173 75.8027 32.2941 75.2421 31.5093C74.0836 29.8836 74.4573 27.5852 76.1017 26.3893L77.0734 25.6792C79.1476 24.1656 80.8854 22.2783 82.2121 20.0733L82.6793 19.3072C82.8101 20.8581 83.5575 22.7267 84.8469 24.5019C85.9681 26.0529 87.3508 27.2862 88.7149 27.9776C88.8457 28.0523 88.9952 28.1084 89.126 28.1644L88.2665 28.3887ZM85.9681 21.344C85.9681 21.3626 85.9681 21.3813 85.9681 21.4187C86.0615 21.9793 86.3231 22.5773 86.7342 23.1378C87.1827 23.7545 87.7059 24.1843 88.1917 24.4272L86.7716 25.4736C86.3418 25.0438 85.9307 24.5393 85.5383 24.0161C85.1459 23.4929 84.8095 22.9323 84.5292 22.3904L85.9681 21.344ZM89.1821 23.7358C88.9392 23.9227 88.117 23.5676 87.4443 22.652C87.1266 22.2035 86.9024 21.7177 86.8276 21.3066C86.7716 21.0076 86.8276 20.746 86.9397 20.6713C86.9958 20.6339 87.0892 20.6152 87.2014 20.6339C87.3135 20.6526 87.4443 20.6899 87.5751 20.7647C87.9488 20.9515 88.3599 21.3253 88.6776 21.7551C89.3503 22.6707 89.425 23.5489 89.1821 23.7358ZM91.8729 27.4357C91.7608 27.5104 91.7047 27.5478 91.5179 27.6225C91.331 27.6786 91.1628 27.716 91.1628 27.716C90.5836 27.7907 89.8735 27.6412 89.0887 27.2488C88.5281 26.9685 87.9488 26.5761 87.4069 26.0903L89.6679 24.4459C90.4154 23.904 90.2846 22.5399 89.3503 21.2505C88.9392 20.6899 88.4533 20.2415 87.9488 19.9985C87.3508 19.6996 86.8089 19.6996 86.4165 19.9799L84.1555 21.6243C83.8752 20.9515 83.6697 20.2975 83.5762 19.6622C83.4454 18.8026 83.5015 18.0739 83.7631 17.5506C83.7631 17.5506 83.8378 17.3825 83.9313 17.2704C84.006 17.1769 84.1181 17.0461 84.2302 16.9714C84.604 16.6911 85.0898 16.6163 85.6504 16.7098C87.1266 16.934 89.0513 18.3355 90.5462 20.391C92.6204 23.2126 93.2183 26.4453 91.8729 27.4357Z" fill="#FFDFFF"/>
<path d="M98.1329 23.3621L94.2649 22.7454C94.0406 22.7081 93.8164 22.8763 93.779 23.1005C93.7416 23.3434 93.9098 23.549 94.1341 23.5863L98.0021 24.203C98.245 24.2404 98.4506 24.0722 98.488 23.8479C98.5253 23.6237 98.3758 23.3995 98.1329 23.3621Z" fill="#FFDFFF"/>
<path d="M92.7886 20.7263C92.8446 20.8945 92.9754 21.0066 93.1249 21.0253C93.181 21.044 93.2557 21.0253 93.3118 21.0066L97.9086 19.6799C98.1328 19.6238 98.2636 19.3809 98.2076 19.1567C98.1328 18.9324 97.9086 18.8016 97.6844 18.8577L93.0875 20.1844C92.8446 20.2591 92.7138 20.4834 92.7886 20.7263Z" fill="#FFDFFF"/>
<path d="M91.5367 18.8779C91.6114 18.9526 91.7048 19.0087 91.7983 19.0274C91.9104 19.046 92.0412 19.0087 92.1533 18.9339L95.9279 15.6451C96.1148 15.4957 96.1335 15.2154 95.9653 15.0472C95.8158 14.8603 95.5355 14.8416 95.3674 15.0098L91.574 18.2799C91.4059 18.4294 91.3872 18.691 91.5367 18.8779Z" fill="#FFDFFF"/>
<path d="M89.9483 17.2331C89.9856 17.2518 90.023 17.2518 90.0604 17.2704C90.2473 17.3078 90.4341 17.1957 90.5275 17.0275L92.3962 12.8231C92.4896 12.5989 92.3962 12.356 92.1719 12.2625C91.9477 12.1691 91.7048 12.2625 91.6113 12.4868L89.7427 16.6912C89.6493 16.878 89.7427 17.121 89.9483 17.2331Z" fill="#FFDFFF"/>
<path d="M83.0159 16.0548C82.829 16.1856 82.6608 16.3538 82.53 16.5406C82.4366 16.6714 80.7735 19.437 80.7735 19.437C79.5029 21.5485 77.8398 23.3424 75.859 24.7813L74.8873 25.4913C72.8692 26.9676 72.4021 29.7892 73.8409 31.7886C74.551 32.7603 75.5974 33.3956 76.7747 33.6012C77.4287 33.7133 78.1014 33.6572 78.718 33.4891L80.0261 35.3016C80.1008 35.3951 80.1942 35.4511 80.3064 35.4698C80.3998 35.4885 80.5119 35.4698 80.6053 35.4138L82.4553 37.9551C82.7916 38.4222 83.2962 38.7212 83.8381 38.796C84.38 38.8894 84.9406 38.7586 85.4077 38.4222C86.342 37.7308 86.5663 36.4041 85.8749 35.4698L84.0249 32.9098L84.3613 32.6669C84.4547 32.5921 84.5108 32.4987 84.5295 32.3866C84.5481 32.2745 84.5108 32.1623 84.4547 32.0689L83.4083 30.6488C84.7724 29.9387 86.2112 29.3968 87.7248 29.0417C87.7248 29.0417 90.8828 28.313 91.1257 28.2195C91.3873 28.1261 91.6302 27.9392 91.6302 27.9392C93.4615 26.706 92.9383 23.0061 90.5091 19.6799C88.1172 16.3351 84.8098 14.7467 83.0159 16.0548ZM79.5402 33.1527C79.7458 33.0406 79.9326 32.9285 80.1195 32.7977L81.1472 32.0502C81.2967 31.9381 81.4649 31.826 81.6144 31.7139L82.5113 32.9472L80.4745 34.4421L79.5402 33.1527ZM83.1467 37.4319L81.2967 34.8905L82.2684 34.1805L84.1184 36.7218C84.3239 37.0021 84.3987 37.3198 84.3426 37.6561C84.3052 37.8243 84.137 37.9551 83.9689 37.9177C83.6512 37.8803 83.3522 37.7122 83.1467 37.4319ZM85.1835 35.9557C85.5011 36.3854 85.5011 36.9647 85.2022 37.3945C85.1835 36.9834 85.0527 36.5723 84.7911 36.2359L82.9411 33.6946L83.3149 33.4143L85.1835 35.9557ZM83.5204 32.2184L83.2027 32.4613L82.3245 31.2654C82.4366 31.1907 82.5487 31.1346 82.6608 31.0599L83.5204 32.2184ZM87.5566 28.2009C85.0527 28.7988 82.7356 29.8639 80.6427 31.3775L79.615 32.125C78.8302 32.7042 77.8772 32.9285 76.9055 32.779C75.9525 32.6295 75.0929 32.1063 74.5323 31.3215C73.3551 29.6771 73.7475 27.3973 75.3919 26.2014L76.3636 25.4913C78.4377 23.9778 80.1756 22.0904 81.5023 19.8855L81.9694 19.1193C82.1002 20.6703 82.8477 22.5389 84.137 24.3141C85.2582 25.8651 86.641 27.0984 88.0051 27.7898C88.1359 27.8645 88.2854 27.9206 88.4162 27.9766L87.5566 28.2009ZM85.2582 21.1561C85.2582 21.1748 85.2582 21.1935 85.2582 21.2309C85.3517 21.7915 85.6133 22.3894 86.0244 22.95C86.4728 23.5667 86.996 23.9964 87.4819 24.2394L86.0617 25.2858C85.6319 24.856 85.2209 24.3515 84.8284 23.8283C84.436 23.3051 84.0997 22.7445 83.8194 22.2026L85.2582 21.1561ZM88.4536 23.5293C88.2107 23.7162 87.3885 23.3611 86.7158 22.4455C86.3981 21.997 86.1738 21.5112 86.0991 21.1001C86.043 20.8011 86.0991 20.5395 86.2112 20.4647C86.2673 20.4274 86.3607 20.4087 86.4728 20.4274C86.5849 20.4461 86.7158 20.4834 86.8466 20.5582C87.2203 20.745 87.6314 21.1188 87.949 21.5485C88.6404 22.4642 88.7152 23.3611 88.4536 23.5293ZM91.1631 27.2292C91.051 27.3039 90.9949 27.3413 90.808 27.416C90.6212 27.4721 90.453 27.5095 90.453 27.5095C89.8737 27.5842 89.1637 27.4347 88.3788 27.0423C87.8182 26.762 87.239 26.3696 86.6971 25.8838L88.9581 24.2394C89.7056 23.6975 89.5747 22.3334 88.6404 21.044C88.2293 20.4834 87.7435 20.035 87.239 19.792C86.6597 19.4744 86.1178 19.4744 85.7067 19.7547L83.4457 21.3991C83.1654 20.7264 82.9598 20.0723 82.8664 19.437C82.7356 18.5774 82.7916 17.8487 83.0532 17.3255C83.0532 17.3255 83.128 17.1573 83.2214 17.0452C83.2962 16.9517 83.4083 16.8209 83.5204 16.7462C83.8941 16.4659 84.38 16.3911 84.9406 16.4846C86.4168 16.7088 88.3415 18.1103 89.8364 20.1658C91.9105 23.0061 92.5085 26.2388 91.1631 27.2292Z" fill="#954EDE"/>
<path d="M97.4231 23.1736L93.555 22.557C93.3308 22.5196 93.1066 22.6878 93.0692 22.912C93.0318 23.1549 93.2 23.3605 93.4242 23.3979L97.2923 24.0145C97.5352 24.0519 97.7407 23.8837 97.7781 23.6595C97.8155 23.4165 97.666 23.211 97.4231 23.1736Z" fill="#954EDE"/>
<path d="M92.0787 20.5212C92.1348 20.6894 92.2656 20.8015 92.4151 20.8202C92.4711 20.8389 92.5459 20.8202 92.6019 20.8015L97.1988 19.4748C97.423 19.4187 97.5538 19.1758 97.4977 18.9516C97.423 18.7273 97.1988 18.5965 96.9745 18.6526L92.3777 19.9793C92.1348 20.0541 92.004 20.297 92.0787 20.5212Z" fill="#954EDE"/>
<path d="M90.8268 18.6894C90.9016 18.7641 90.995 18.8202 91.0884 18.8389C91.2006 18.8576 91.3314 18.8202 91.4435 18.7455L95.2181 15.4567C95.405 15.3072 95.4236 15.0269 95.2555 14.8587C95.106 14.6718 94.8257 14.6532 94.6575 14.8213L90.8642 18.0727C90.6773 18.2409 90.6587 18.5025 90.8268 18.6894Z" fill="#954EDE"/>
<path d="M89.2383 17.026C89.2757 17.0447 89.313 17.0447 89.3504 17.0634C89.5373 17.1008 89.7241 16.9887 89.8176 16.8205L91.6862 12.6161C91.7796 12.3918 91.6862 12.1489 91.462 12.0555C91.2377 11.9621 90.9948 12.0555 90.9014 12.2797L89.0328 16.4841C88.9206 16.671 89.0328 16.9326 89.2383 17.026Z" fill="#954EDE"/>
</g>
<path d="M101.442 18.8711C102.099 19.044 102.593 19.3782 103.111 19.9658C103.579 20.5074 103.832 21.1988 103.807 21.8901V21.9017V21.9132C103.807 21.9132 103.807 21.9247 103.819 21.9247C103.819 21.9247 103.819 21.9362 103.832 21.9362L103.845 21.9477C103.845 21.9477 103.857 21.9477 103.857 21.9593H103.87H103.883C103.921 21.9593 103.946 21.9362 103.946 21.9017C103.946 21.9017 103.946 21.9017 103.946 21.8901C103.921 21.2103 104.174 20.5074 104.642 19.9658C105.148 19.3666 105.653 19.044 106.311 18.8711C106.349 18.8596 106.362 18.8366 106.362 18.802C106.362 18.7674 106.336 18.7444 106.311 18.7444C105.641 18.5946 105.236 18.2374 104.806 17.8226C104.389 17.4193 104.098 16.8892 103.959 16.2324C103.959 16.2324 103.959 16.2324 103.959 16.2209C103.959 16.2094 103.959 16.2094 103.946 16.2094C103.946 16.2094 103.946 16.2094 103.946 16.1979L103.933 16.1863C103.933 16.1863 103.933 16.1863 103.921 16.1863C103.921 16.1863 103.908 16.1863 103.908 16.1748H103.895H103.883C103.883 16.1748 103.87 16.1748 103.87 16.1863C103.87 16.1863 103.87 16.1863 103.857 16.1863L103.845 16.1979C103.845 16.1979 103.845 16.1979 103.845 16.2094C103.845 16.2094 103.845 16.2209 103.832 16.2209C103.832 16.2209 103.832 16.2209 103.832 16.2324C103.693 16.8892 103.402 17.4308 102.985 17.8226C102.529 18.2374 102.112 18.5946 101.442 18.7444C101.416 18.7444 101.391 18.7674 101.391 18.802C101.391 18.8366 101.416 18.8596 101.442 18.8711Z" fill="#954EDE"/>
<g clip-path="url(#clip3)">
<path d="M170.631 61.5807C171.299 62.1345 171.69 62.7864 171.973 63.7452C172.223 64.6234 172.144 65.5592 171.743 66.3453L171.737 66.3586L171.73 66.372C171.73 66.372 171.724 66.3853 171.739 66.3921C171.739 66.3921 171.733 66.4054 171.747 66.4122L171.756 66.4324C171.756 66.4324 171.77 66.4392 171.764 66.4525L171.779 66.4593L171.793 66.4661C171.837 66.4865 171.879 66.4735 171.898 66.4335C171.898 66.4335 171.898 66.4335 171.904 66.4202C172.24 65.6202 172.911 64.9432 173.744 64.5686C174.651 64.1477 175.41 64.0467 176.264 64.2007C176.314 64.2077 176.341 64.1879 176.36 64.1479C176.378 64.1079 176.361 64.0677 176.332 64.054C175.637 63.5201 175.361 62.8891 175.087 62.1779C174.821 61.4869 174.77 60.7172 174.962 59.8827C174.962 59.8827 174.962 59.8827 174.969 59.8693C174.975 59.856 174.975 59.856 174.96 59.8492C174.96 59.8492 174.96 59.8492 174.966 59.8359L174.958 59.8157C174.958 59.8157 174.958 59.8157 174.943 59.8089C174.943 59.8089 174.929 59.8021 174.935 59.7888L174.92 59.782L174.906 59.7752C174.906 59.7752 174.891 59.7684 174.885 59.7817C174.885 59.7817 174.885 59.7817 174.87 59.7749L174.849 59.7814C174.849 59.7814 174.849 59.7814 174.843 59.7948C174.843 59.7948 174.837 59.8081 174.822 59.8013C174.822 59.8013 174.822 59.8013 174.816 59.8146C174.302 60.4995 173.674 60.9694 172.98 61.198C172.23 61.4328 171.555 61.6215 170.699 61.434C170.67 61.4204 170.629 61.4335 170.61 61.4735C170.591 61.5135 170.608 61.5537 170.631 61.5807Z" fill="#FFB8DC"/>
</g>
<path d="M160.123 53.018C160.374 53.2515 160.618 53.4339 160.857 53.5809C160.59 53.6668 160.31 53.7858 160.009 53.9526C158.253 54.9284 158.083 57.7826 158.076 57.9037C158.072 57.9899 158.091 58.0757 158.133 58.1512C158.535 58.8737 159.275 59.2548 160.097 59.3482C160.934 59.4433 161.855 59.2403 162.689 58.7766C162.989 58.6101 163.238 58.4344 163.451 58.253C163.451 58.5329 163.477 58.8366 163.543 59.1737C163.824 60.6118 165.441 61.7483 166.703 62.2331C166.784 62.2641 166.872 62.2718 166.956 62.2552C167.709 62.1082 168.329 61.5762 168.702 60.7574C169.051 59.9909 169.142 59.0527 168.959 58.1155C168.892 57.7752 168.801 57.4814 168.693 57.2201C168.937 57.2952 169.212 57.3549 169.53 57.3937C171.522 57.6363 173.364 55.4438 173.441 55.3504C173.498 55.2825 173.533 55.2 173.544 55.1126C173.637 54.3515 173.317 53.595 172.644 52.9824C172.015 52.4101 171.146 52.0314 170.198 51.9158C169.895 51.879 169.622 51.8722 169.371 51.8868C169.526 51.6694 169.674 51.4198 169.811 51.1253C170.658 49.3036 169.118 46.8943 169.052 46.7926C169.005 46.7201 168.939 46.6624 168.86 46.6259C168.165 46.3025 167.351 46.3686 166.568 46.8119C165.835 47.2268 165.21 47.9321 164.807 48.7979C164.675 49.0824 164.581 49.3481 164.516 49.5998C164.38 49.4166 164.215 49.2292 164.007 49.0364C162.537 47.6675 159.769 48.3875 159.652 48.4188C159.569 48.4411 159.493 48.4865 159.435 48.5497C158.364 49.6997 158.667 51.6624 160.123 53.018V53.018ZM162.243 57.9725C161.574 58.3439 160.849 58.508 160.201 58.4343C159.665 58.3734 159.245 58.154 159.005 57.8121C159.075 57.0385 159.431 55.326 160.456 54.7566C161.22 54.3319 161.785 54.2897 162.589 54.2603C163.242 54.4509 163.874 54.6674 164.634 55.3351C163.648 56.3528 163.533 57.2558 162.243 57.9725ZM165.046 53.6279C165.297 53.6557 165.53 53.6678 165.748 53.6672C165.799 53.9146 165.859 54.1406 165.927 54.3484C165.708 54.4733 165.512 54.6003 165.335 54.7286C165.148 54.5588 164.967 54.4116 164.791 54.2833C164.894 54.0535 164.978 53.8355 165.046 53.6279V53.6279ZM167.865 60.3762C167.641 60.8676 167.303 61.1986 166.903 61.3217C166.189 61.0161 164.67 60.1479 164.446 58.9973C164.269 58.0924 164.436 57.5043 164.63 56.8233L164.633 56.8152C165.016 56.2536 165.417 55.7189 166.287 55.2028C166.949 56.4535 167.773 56.843 168.056 58.2919C168.203 59.0425 168.135 59.7827 167.865 60.3762ZM170.086 52.8288C170.836 52.9201 171.543 53.2241 172.025 53.6627C172.428 54.0301 172.643 54.454 172.639 54.8696C172.276 55.2679 170.925 56.637 169.642 56.4808C168.765 56.374 168.34 56.0963 167.694 55.6613C167.278 55.1223 166.892 54.574 166.67 53.583C168.065 53.3241 168.63 52.6514 170.086 52.8288V52.8288ZM167.021 47.6122C167.491 47.3462 167.959 47.2772 168.355 47.4125C168.753 48.0794 169.471 49.6743 168.977 50.7374C168.603 51.5414 168.143 51.9212 167.613 52.3376C166.953 52.5902 166.318 52.823 165.257 52.725C165.456 51.3237 165.018 50.5245 165.641 49.1858C165.963 48.4924 166.454 47.9336 167.021 47.6122V47.6122ZM160.025 49.274C160.782 49.1014 162.522 48.9105 163.381 49.7097C164.042 50.3252 164.133 50.8138 164.387 51.5258C164.408 52.2057 164.398 52.8744 163.997 53.8038C162.729 53.1831 161.827 53.3478 160.75 52.3447C159.896 51.5499 159.328 50.1794 160.025 49.274Z" fill="#FFDFFF"/>
<g clip-path="url(#clip4)">
<path d="M159.381 52.8393C159.632 53.0728 159.876 53.2552 160.115 53.4022C159.848 53.4881 159.568 53.6071 159.267 53.7739C157.511 54.7497 157.341 57.6039 157.334 57.7249C157.33 57.8112 157.349 57.897 157.391 57.9725C157.793 58.695 158.533 59.0761 159.355 59.1695C160.192 59.2646 161.113 59.0616 161.947 58.5979C162.247 58.4314 162.496 58.2557 162.709 58.0743C162.709 58.3542 162.735 58.6578 162.801 58.995C163.082 60.4331 164.7 61.5696 165.961 62.0544C166.042 62.0854 166.13 62.0931 166.214 62.0765C166.967 61.9295 167.587 61.3975 167.96 60.5787C168.309 59.8122 168.4 58.874 168.217 57.9368C168.151 57.5965 168.059 57.3027 167.951 57.0414C168.195 57.1165 168.47 57.1762 168.789 57.215C170.78 57.4575 172.622 55.2651 172.699 55.1717C172.756 55.1038 172.791 55.0213 172.802 54.9338C172.895 54.1728 172.575 53.4163 171.902 52.8037C171.273 52.2314 170.404 51.8527 169.456 51.7371C169.153 51.7003 168.88 51.6935 168.629 51.7081C168.784 51.4907 168.932 51.241 169.069 50.9466C169.916 49.1248 168.376 46.7156 168.31 46.6139C168.263 46.5414 168.197 46.4837 168.118 46.4472C167.423 46.1238 166.609 46.1899 165.826 46.6332C165.093 47.0481 164.468 47.7534 164.065 48.6192C163.933 48.9037 163.839 49.1693 163.774 49.421C163.638 49.2379 163.473 49.0505 163.266 48.8577C161.795 47.4888 159.028 48.2088 158.91 48.2401C158.827 48.2624 158.752 48.3078 158.693 48.371C157.622 49.521 157.925 51.4837 159.381 52.8393V52.8393ZM161.501 57.7938C160.832 58.1652 160.107 58.3292 159.459 58.2556C158.923 58.1946 158.503 57.9753 158.263 57.6334C158.333 56.8598 158.689 55.1472 159.714 54.5779C160.478 54.1532 161.043 54.111 161.847 54.0816C162.5 54.2722 163.132 54.4887 163.892 55.1564C162.906 56.1741 162.791 57.0771 161.501 57.7938ZM164.304 53.4492C164.555 53.477 164.788 53.4891 165.006 53.4885C165.057 53.7359 165.117 53.9618 165.185 54.1697C164.966 54.2946 164.77 54.4216 164.593 54.5499C164.407 54.3801 164.225 54.2329 164.049 54.1046C164.152 53.8748 164.236 53.6568 164.304 53.4492V53.4492ZM167.123 60.1975C166.899 60.6889 166.561 61.0199 166.161 61.1429C165.447 60.8374 163.929 59.9692 163.704 58.8186C163.527 57.9137 163.694 57.3256 163.889 56.6446L163.891 56.6365C164.274 56.0749 164.675 55.5402 165.545 55.0241C166.207 56.2748 167.031 56.6643 167.314 58.1132C167.461 58.8637 167.393 59.604 167.123 60.1975ZM169.345 52.6501C170.094 52.7414 170.801 53.0454 171.283 53.484C171.686 53.8514 171.901 54.2753 171.897 54.6909C171.534 55.0891 170.183 56.4583 168.9 56.302C168.023 56.1953 167.598 55.9176 166.952 55.4825C166.536 54.9436 166.15 54.3953 165.928 53.4043C167.323 53.1454 167.888 52.4727 169.345 52.6501V52.6501ZM166.279 47.4335C166.749 47.1675 167.217 47.0984 167.613 47.2338C168.011 47.9007 168.729 49.4956 168.235 50.5587C167.861 51.3627 167.401 51.7424 166.871 52.1589C166.211 52.4115 165.576 52.6443 164.515 52.5463C164.714 51.145 164.276 50.3458 164.899 49.0071C165.221 48.3137 165.712 47.7548 166.279 47.4335V47.4335ZM159.283 49.0953C160.04 48.9227 161.78 48.7318 162.639 49.531C163.3 50.1465 163.391 50.6351 163.645 51.3471C163.666 52.027 163.656 52.6957 163.255 53.6251C161.987 53.0044 161.086 53.1691 160.008 52.166C159.154 51.3711 158.586 50.0007 159.283 49.0953Z" fill="#954EDE"/>
</g>
<g clip-path="url(#clip5)">
<path d="M64.7787 94.8004C65.7444 95.0542 66.4686 95.5448 67.2299 96.4075C67.917 97.2026 68.2884 98.2177 68.2512 99.2327V99.2496V99.2665C68.2512 99.2665 68.2512 99.2835 68.2698 99.2835C68.2698 99.2835 68.2698 99.3004 68.2884 99.3004L68.3069 99.3173C68.3069 99.3173 68.3255 99.3173 68.3255 99.3342H68.3441H68.3626C68.4184 99.3342 68.4555 99.3004 68.4555 99.2496C68.4555 99.2496 68.4555 99.2496 68.4555 99.2327C68.4184 98.2346 68.7897 97.2026 69.4768 96.4075C70.2196 95.5278 70.9624 95.0542 71.928 94.8004C71.9837 94.7835 72.0022 94.7497 72.0022 94.6989C72.0022 94.6482 71.9651 94.6143 71.928 94.6143C70.9438 94.3944 70.3496 93.87 69.7182 93.261C69.1054 92.6688 68.6783 91.8907 68.4741 90.9264C68.4741 90.9264 68.4741 90.9264 68.4741 90.9095C68.4741 90.8925 68.4741 90.8925 68.4555 90.8925C68.4555 90.8925 68.4555 90.8925 68.4555 90.8756L68.4369 90.8587C68.4369 90.8587 68.4369 90.8587 68.4184 90.8587C68.4184 90.8587 68.3998 90.8587 68.3998 90.8418H68.3812H68.3626C68.3626 90.8418 68.3441 90.8418 68.3441 90.8587C68.3441 90.8587 68.3441 90.8587 68.3255 90.8587L68.3069 90.8756C68.3069 90.8756 68.3069 90.8756 68.3069 90.8925C68.3069 90.8925 68.3069 90.9095 68.2884 90.9095C68.2884 90.9095 68.2884 90.9095 68.2884 90.9264C68.0841 91.8907 67.657 92.6858 67.0442 93.261C66.3757 93.87 65.7629 94.3944 64.7787 94.6143C64.7416 94.6143 64.7045 94.6482 64.7045 94.6989C64.7045 94.7497 64.7416 94.7835 64.7787 94.8004Z" fill="#954EDE"/>
</g>
<path d="M75.4644 59.9243C76.9095 60.304 77.9933 61.0382 79.1327 62.3294C80.161 63.5193 80.7168 65.0384 80.6612 66.5574V66.5828V66.6081C80.6612 66.6081 80.6612 66.6334 80.689 66.6334C80.689 66.6334 80.689 66.6587 80.7168 66.6587L80.7446 66.684C80.7446 66.684 80.7723 66.684 80.7723 66.7093H80.8001H80.8279C80.9113 66.7093 80.9669 66.6587 80.9669 66.5828C80.9669 66.5828 80.9669 66.5828 80.9669 66.5574C80.9113 65.0637 81.4671 63.5193 82.4953 62.3294C83.6069 61.0129 84.7185 60.304 86.1636 59.9243C86.247 59.899 86.2748 59.8483 86.2748 59.7724C86.2748 59.6964 86.2192 59.6458 86.1636 59.6458C84.6907 59.3167 83.8015 58.5318 82.8566 57.6204C81.9395 56.7343 81.3004 55.5697 80.9947 54.1266C80.9947 54.1266 80.9947 54.1266 80.9947 54.1013C80.9947 54.076 80.9947 54.076 80.9669 54.076C80.9669 54.076 80.9669 54.076 80.9669 54.0506L80.9391 54.0253C80.9391 54.0253 80.9391 54.0253 80.9113 54.0253C80.9113 54.0253 80.8835 54.0253 80.8835 54H80.8557H80.8279C80.8279 54 80.8001 54 80.8001 54.0253C80.8001 54.0253 80.8001 54.0253 80.7723 54.0253L80.7446 54.0506C80.7446 54.0506 80.7446 54.0506 80.7446 54.076C80.7446 54.076 80.7446 54.1013 80.7168 54.1013C80.7168 54.1013 80.7168 54.1013 80.7168 54.1266C80.4111 55.5697 79.7719 56.7596 78.8548 57.6204C77.8544 58.5318 76.9373 59.3167 75.4644 59.6458C75.4089 59.6458 75.3533 59.6964 75.3533 59.7724C75.3533 59.8483 75.4089 59.899 75.4644 59.9243Z" fill="#FFB8DC"/>
<path d="M61.1671 79.6356C61.4734 79.7351 61.7536 79.7938 62.015 79.8246C61.8222 80.0033 61.6303 80.2159 61.4405 80.477C60.3309 82.0043 61.3168 84.5035 61.3593 84.6092C61.3896 84.6845 61.4405 84.7497 61.5062 84.7974C62.1344 85.2539 62.9161 85.2852 63.6536 85.039C64.4042 84.7883 65.108 84.2506 65.6354 83.5247C65.8247 83.2642 65.9671 83.0159 66.0771 82.7768C66.1875 83.0154 66.3304 83.2636 66.5201 83.5247C67.3293 84.6386 69.1577 84.9659 70.4248 84.8789C70.5058 84.8734 70.5836 84.8452 70.6493 84.7974C71.2322 84.3739 71.5494 83.6751 71.5426 82.8297C71.5362 82.0384 71.2422 81.2029 70.7149 80.477C70.5234 80.2135 70.3291 79.9994 70.1333 79.8196C70.3713 79.7867 70.629 79.7287 70.9157 79.6356C72.7083 79.0531 73.409 76.4553 73.4379 76.345C73.4589 76.2649 73.4565 76.1805 73.4309 76.1018C73.2083 75.4166 72.6362 74.8988 71.8199 74.6437C71.0572 74.4054 70.1671 74.4269 69.3134 74.7043C69.0411 74.7928 68.8057 74.8952 68.5973 75.0073C68.6433 74.7606 68.6703 74.4894 68.6703 74.1843C68.6703 72.2964 66.4037 70.854 66.3072 70.7935C66.2384 70.7504 66.1589 70.7275 66.0778 70.7275C65.3573 70.7275 64.6899 71.1064 64.1985 71.7944C63.7385 72.4383 63.4852 73.287 63.4852 74.1843C63.4852 74.479 63.5109 74.7424 63.5548 74.9828C63.3667 74.8805 63.1514 74.7864 62.8986 74.7043C61.103 74.1209 59.0309 75.8308 58.9435 75.9039C58.8813 75.956 58.8349 76.0246 58.8099 76.1018C58.3537 77.5056 59.3892 79.0579 61.1671 79.6356V79.6356ZM64.9362 83.0167C64.5138 83.5981 63.9611 84.0252 63.3799 84.2192C62.8987 84.3798 62.4545 84.3592 62.1142 84.1631C61.8672 83.4763 61.4922 81.8761 62.1397 80.9849C62.6226 80.3202 63.0869 80.0605 63.7603 79.7168C64.3917 79.6206 65.0165 79.5544 65.9282 79.8222C65.4917 81.0799 65.7513 81.895 64.9362 83.0167ZM65.6027 78.2045C65.8278 78.1286 66.0312 78.0466 66.2164 77.9598C66.3579 78.1503 66.4988 78.3189 66.6387 78.4693C66.5015 78.6625 66.3848 78.8484 66.2852 79.0277C66.0591 78.9569 65.8462 78.9034 65.6449 78.864C65.6424 78.6271 65.6275 78.4081 65.6027 78.2045V78.2045ZM70.6784 82.8367C70.6825 83.344 70.5256 83.7601 70.2339 84.0232C69.5046 84.0458 67.8667 83.908 67.2192 83.0168C66.71 82.3159 66.6197 81.7485 66.5151 81.0914L66.5139 81.0836C66.6176 80.4534 66.7476 79.8388 67.2841 79.0544C68.3442 79.8574 69.2004 79.8628 70.0157 80.985C70.4381 81.5663 70.6735 82.224 70.6784 82.8367ZM69.5804 75.5262C70.2553 75.3069 70.9776 75.2859 71.562 75.4686C72.0517 75.6216 72.4026 75.8976 72.5641 76.2532C72.4126 76.7364 71.8037 78.4384 70.6487 78.8138C69.8596 79.0701 69.3872 79.0021 68.6649 78.8872C68.0962 78.5932 67.5507 78.2789 66.9689 77.5224C68.0545 76.7493 68.2693 75.9522 69.5804 75.5262V75.5262ZM64.9016 72.2967C65.1965 71.8839 65.568 71.6395 65.9586 71.5981C66.562 72.0085 67.8061 73.0826 67.8061 74.1843C67.8061 75.0174 67.5651 75.523 67.2784 76.0879C66.8163 76.5646 66.3672 77.0148 65.4245 77.3517C65.0388 76.079 64.3493 75.5715 64.3493 74.1843C64.3494 73.4657 64.5455 72.7953 64.9016 72.2967V72.2967ZM59.5999 76.4848C60.1762 76.0379 61.5833 75.1856 62.6315 75.5262C63.4388 75.7885 63.7101 76.1687 64.2087 76.6745C64.4955 77.2457 64.7518 77.8195 64.7789 78.77C63.4529 78.7436 62.7498 79.2412 61.4342 78.8137C60.3916 78.475 59.3644 77.5326 59.5999 76.4848Z" fill="#FFDFFF"/>
<g clip-path="url(#clip6)">
<path d="M60.4647 79.7782C60.771 79.8777 61.0512 79.9364 61.3126 79.9671C61.1198 80.1459 60.9279 80.3585 60.7381 80.6196C59.6285 82.1469 60.6144 84.6461 60.6569 84.7518C60.6872 84.8271 60.7381 84.8923 60.8038 84.94C61.432 85.3965 62.2137 85.4278 62.9512 85.1815C63.7018 84.9309 64.4056 84.3932 64.933 83.6673C65.1223 83.4068 65.2647 83.1585 65.3747 82.9193C65.4851 83.158 65.628 83.4062 65.8177 83.6673C66.627 84.7812 68.4553 85.1085 69.7224 85.0215C69.8034 85.016 69.8812 84.9877 69.9469 84.94C70.5298 84.5165 70.847 83.8177 70.8402 82.9723C70.8338 82.181 70.5398 81.3454 70.0125 80.6196C69.821 80.356 69.6267 80.1419 69.431 79.9622C69.6689 79.9293 69.9266 79.8713 70.2134 79.7782C72.0059 79.1957 72.7066 76.5978 72.7355 76.4875C72.7565 76.4075 72.7542 76.3231 72.7285 76.2443C72.5059 75.5592 71.9338 75.0414 71.1175 74.7863C70.3548 74.548 69.4647 74.5695 68.611 74.8469C68.3387 74.9354 68.1033 75.0378 67.8949 75.1499C67.9409 74.9032 67.9679 74.6319 67.9679 74.3268C67.9679 72.439 65.7013 70.9966 65.6048 70.9361C65.536 70.893 65.4565 70.8701 65.3754 70.8701C64.6549 70.8701 63.9875 71.249 63.4961 71.9369C63.0361 72.5809 62.7828 73.4296 62.7828 74.3268C62.7828 74.6216 62.8085 74.885 62.8524 75.1254C62.6643 75.0231 62.449 74.929 62.1962 74.8468C60.4006 74.2635 58.3285 75.9734 58.2411 76.0465C58.1789 76.0985 58.1326 76.1671 58.1075 76.2443C57.6513 77.6482 58.6868 79.2005 60.4647 79.7782V79.7782ZM64.2338 83.1593C63.8114 83.7407 63.2587 84.1677 62.6775 84.3618C62.1963 84.5224 61.7521 84.5018 61.4118 84.3057C61.1648 83.6189 60.7898 82.0187 61.4373 81.1275C61.9203 80.4628 62.3845 80.2031 63.0579 79.8594C63.6893 79.7632 64.3141 79.697 65.2258 79.9648C64.7893 81.2225 65.0489 82.0375 64.2338 83.1593ZM64.9003 78.3471C65.1254 78.2712 65.3288 78.1891 65.514 78.1024C65.6555 78.2929 65.7964 78.4615 65.9363 78.6119C65.7991 78.8051 65.6824 78.991 65.5828 79.1702C65.3567 79.0995 65.1438 79.0459 64.9425 79.0066C64.94 78.7696 64.9251 78.5507 64.9003 78.3471V78.3471ZM69.976 82.9793C69.9801 83.4865 69.8232 83.9026 69.5315 84.1658C68.8022 84.1884 67.1643 84.0506 66.5168 83.1594C66.0076 82.4585 65.9173 81.891 65.8127 81.234L65.8115 81.2262C65.9152 80.596 66.0452 79.9814 66.5817 79.197C67.6418 80 68.498 80.0054 69.3133 81.1276C69.7358 81.7089 69.9711 82.3665 69.976 82.9793ZM68.8781 75.6688C69.5529 75.4495 70.2752 75.4285 70.8596 75.6112C71.3493 75.7642 71.7002 76.0402 71.8617 76.3958C71.7102 76.879 71.1013 78.581 69.9463 78.9563C69.1572 79.2127 68.6848 79.1447 67.9625 79.0298C67.3939 78.7358 66.8483 78.4214 66.2665 77.665C67.3521 76.8919 67.5669 76.0948 68.8781 75.6688V75.6688ZM64.1992 72.4393C64.4941 72.0264 64.8656 71.7821 65.2562 71.7406C65.8596 72.151 67.1037 73.2252 67.1037 74.3269C67.1037 75.16 66.8628 75.6656 66.576 76.2305C66.1139 76.7072 65.6648 77.1574 64.7221 77.4943C64.3364 76.2215 63.6469 75.7141 63.6469 74.3269C63.647 73.6082 63.8431 72.9379 64.1992 72.4393V72.4393ZM58.8976 76.6274C59.4738 76.1805 60.8809 75.3282 61.9291 75.6688C62.7364 75.9311 63.0077 76.3113 63.5063 76.8171C63.7931 77.3883 64.0494 77.962 64.0765 78.9125C62.7505 78.8861 62.0474 79.3838 60.7318 78.9563C59.6892 78.6175 58.662 77.6751 58.8976 76.6274Z" fill="#954EDE"/>
</g>
<g clip-path="url(#clip7)">
<path d="M95.9886 83.3413C98.1627 82.0425 98.8991 79.235 97.6285 77.0343C96.3578 74.8336 93.5584 74.0677 91.3467 75.3012C91.3089 72.769 89.2458 70.7275 86.7047 70.7275C84.1635 70.7275 82.1003 72.769 82.0627 75.3014C79.8509 74.0678 77.0513 74.8339 75.7808 77.0347C74.5102 79.2353 75.2465 82.0428 77.4208 83.3415C75.2466 84.6403 74.5102 87.4478 75.7808 89.6485C77.0514 91.8492 79.851 92.6152 82.0628 91.3816C82.1004 93.914 84.1636 95.9555 86.7048 95.9554C89.246 95.9554 91.3091 93.9138 91.3467 91.3816C93.5585 92.6151 96.3581 91.8491 97.6286 89.6482C98.8992 87.4475 98.1627 84.64 95.9886 83.3413ZM86.7047 87.5939C84.3561 87.5939 82.4521 85.69 82.4521 83.3414C82.4521 80.9927 84.3561 79.0888 86.7047 79.0888C89.0532 79.0888 90.9572 80.9927 90.9572 83.3414C90.9572 85.69 89.0533 87.5939 86.7047 87.5939Z" fill="#954EDE"/>
<circle cx="86.7717" cy="83.7213" r="5.47422" fill="white"/>
</g>
<g clip-path="url(#clip8)">
<path d="M147.756 35.4999C149.221 34.6247 149.717 32.7329 148.861 31.2499C148.005 29.7669 146.118 29.2508 144.628 30.082C144.603 28.3757 143.212 27 141.5 27C139.787 27 138.397 28.3757 138.372 30.0821C136.881 29.2509 134.995 29.7671 134.139 31.2501C133.283 32.7331 133.779 34.6249 135.244 35.5C133.779 36.3752 133.283 38.2671 134.139 39.7501C134.995 41.2331 136.882 41.7492 138.372 40.918C138.397 42.6244 139.788 44.0001 141.5 44C143.212 44 144.603 42.6243 144.628 40.918C146.118 41.7491 148.005 41.233 148.861 39.7499C149.717 38.2669 149.221 36.375 147.756 35.4999ZM141.5 38.3656C139.917 38.3656 138.634 37.0826 138.634 35.5C138.634 33.9173 139.917 32.6343 141.5 32.6343C143.082 32.6343 144.366 33.9173 144.366 35.5C144.366 37.0826 143.083 38.3656 141.5 38.3656Z" fill="#954EDE"/>
<circle cx="141.545" cy="35.7562" r="3.68886" fill="white"/>
</g>
</g>
<defs>
<filter id="filter0_f" x="40" y="81.8613" width="156" height="26" filterUnits="userSpaceOnUse" color-interpolation-filters="sRGB">
<feFlood flood-opacity="0" result="BackgroundImageFix"/>
<feBlend mode="normal" in="SourceGraphic" in2="BackgroundImageFix" result="shape"/>
<feGaussianBlur stdDeviation="5" result="effect1_foregroundBlur"/>
</filter>
<clipPath id="clip0">
<rect width="277" height="105.82" fill="white"/>
</clipPath>
<clipPath id="clip1">
<rect width="5.93764" height="6.92725" fill="white" transform="translate(138.157 11.8438)"/>
</clipPath>
<clipPath id="clip2">
<rect width="25.5067" height="27.0016" fill="white" transform="translate(73 12)"/>
</clipPath>
<clipPath id="clip3">
<rect width="6.32513" height="7.37931" fill="white" transform="translate(172.023 58.4346) rotate(24.9452)"/>
</clipPath>
<clipPath id="clip4">
<rect width="15.6977" height="15.6977" fill="white" transform="translate(161.065 43.001) rotate(24.9452)"/>
</clipPath>
<clipPath id="clip5">
<rect width="7.27921" height="8.49241" fill="white" transform="translate(64.7045 90.8418)"/>
</clipPath>
<clipPath id="clip6">
<rect width="14.7496" height="14.7496" fill="white" transform="translate(58 70.7285)"/>
</clipPath>
<clipPath id="clip7">
<rect width="25.2278" height="25.2278" fill="white" transform="translate(74.0908 70.7275)"/>
</clipPath>
<clipPath id="clip8">
<rect width="17" height="17" fill="white" transform="translate(133 27)"/>
</clipPath>
</defs>
</svg>
