<svg width="277" height="106" viewBox="0 0 277 106" fill="none" xmlns="http://www.w3.org/2000/svg">
<g clip-path="url(#clip0)">
<g filter="url(#filter0_f)">
<ellipse cx="118" cy="94.8613" rx="68" ry="3" fill="#C4C4C4" fill-opacity="0.5"/>
</g>
<g clip-path="url(#clip1)">
<path d="M96.4054 23.5629C96.2395 23.8323 96.141 24.1432 95.975 24.4126C95.6485 24.4902 95.3635 24.5004 95.0371 24.578C87.8237 25.4303 79.8142 21.2404 82.5987 16.2669C83.9573 13.7594 86.8332 13.7657 88.4446 14.015C88.7613 12.4451 89.7158 9.68869 92.4209 9.21817C98.0902 8.15804 99.4652 17.0868 96.4054 23.5629Z" fill="#EF3829"/>
<path d="M101.51 22.0629C101.334 22.0473 101.117 22.099 100.873 22.042C100.78 21.8916 100.619 21.6999 100.526 21.5495C97.9521 17.7348 97.9646 11.983 101.613 12.0932C103.416 12.1819 104.265 13.8197 104.607 14.7733C105.628 14.4731 107.395 14.1681 108.544 15.6194C110.803 18.5894 106.138 21.9403 101.51 22.0629Z" fill="#B72C38"/>
</g>
<g clip-path="url(#clip2)">
<path d="M55.7336 84.8353C55.7336 85.558 55.1367 86.155 54.3826 86.155C53.6285 86.155 53.0315 85.558 53.0315 84.8353C53 84.1126 53.597 83.5156 54.3511 83.5156C55.1052 83.5156 55.7336 84.1126 55.7336 84.8353Z" fill="#B72C38"/>
<path d="M57.399 59.2906C57.399 59.7305 57.022 60.1075 56.5821 60.1075C56.1422 60.1075 55.7651 59.7619 55.7651 59.2906C55.7651 58.8193 56.1422 58.4736 56.5821 58.4736C57.022 58.5051 57.399 58.8507 57.399 59.2906Z" fill="#ED7E60"/>
<path d="M91.1762 69.0908L90.8935 71.8873L90.0137 79.7425L89.668 82.8217L88.4112 94.2903L77.9795 94.8245L74.7746 95.013L62.489 95.6414L59.3155 85.0526L58.4358 82.0676L55.9221 73.6783L55.7021 72.9556L91.1762 69.0908Z" fill="#F3DEC9"/>
<path d="M90.014 79.7451L89.6683 82.8244L77.2257 83.7356L73.141 84.0498L59.3158 85.0552L58.436 82.0703L72.3869 81.0334L77.5085 80.6563L90.014 79.7451Z" fill="#EF3829"/>
<path opacity="0.1" d="M64.0284 94.2289L88.411 94.2917L77.9793 94.8259L74.7744 95.0144L62.4888 95.6428L59.3153 85.054L58.4355 82.069L55.9219 73.6797L90.8932 71.8887L59.2525 76.6332L64.0284 94.2289Z" fill="#CB2C1C"/>
<path opacity="0.38" d="M77.5083 80.6553L77.2255 83.7345L73.1408 84.0487L72.3867 81.0323L77.5083 80.6553Z" fill="#CB2C1C"/>
<path d="M77.9796 94.8256L74.7746 95.0141L72.041 73.9308L75.8744 73.5537L77.9796 94.8256Z" fill="#EF3829"/>
<path d="M72.8892 64.7874V65.9813C72.8892 65.9813 72.8892 65.9813 72.8578 65.9813C72.8578 65.9813 72.8264 65.9813 72.795 65.9813C72.795 65.9813 72.795 65.9813 72.7635 65.9813C72.5436 65.9185 71.978 65.7614 71.1925 65.4158C70.8469 63.7191 69.8414 61.0169 66.7936 58.8488C65.9452 58.2518 65.1283 57.7805 64.3428 57.4349C63.6829 57.1207 63.0545 56.9007 62.4575 56.7436C63.0859 56.3352 63.84 56.0524 64.5941 55.8953C65.9138 55.6439 67.3277 55.7382 68.3646 56.3037C71.3182 57.8434 72.8892 61.7081 72.8892 64.7874Z" fill="#EF3829"/>
<path d="M72.8894 65.9809L71.3498 66.735C71.3498 66.4836 71.3183 66.1066 71.2241 65.6353C69.0246 65.1639 67.0451 65.541 64.2487 64.2213C62.8976 63.5929 61.1694 61.9276 60.8238 60.6079C60.3525 58.8798 61.138 57.5601 62.4577 56.7432C63.0547 56.9003 63.6831 57.1202 64.3429 57.403C64.2487 58.7227 64.5943 60.1995 65.8511 61.5505C67.7992 63.6557 69.8416 64.7869 71.2241 65.3839C72.0096 65.7295 72.5752 65.8866 72.7951 65.9495C72.7951 65.9495 72.7951 65.9495 72.8265 65.9495C72.8265 65.9809 72.858 65.9809 72.8894 65.9809Z" fill="#D93D40"/>
<path d="M73.0151 63.9395V65.1335C73.0151 65.1335 73.0151 65.1335 73.0466 65.1335C73.0466 65.1335 73.078 65.1335 73.1094 65.1335C73.1094 65.1335 73.1094 65.1335 73.1408 65.1335C73.3608 65.0707 73.9263 64.9136 74.7119 64.5679C75.0575 62.8712 76.063 60.169 79.1108 58.001C79.9591 57.404 80.7761 56.9327 81.5616 56.5871C82.2214 56.2729 82.8499 56.0843 83.4154 55.9272C82.787 55.5188 82.0329 55.236 81.2788 55.0789C79.9591 54.8275 78.5452 54.9218 77.5083 55.4873C74.5862 56.9955 73.0151 60.8603 73.0151 63.9395Z" fill="#EF3829"/>
<path d="M73.0151 65.1342L74.5548 65.8883C74.5548 65.6369 74.5862 65.2599 74.6804 64.7886C76.8799 64.3173 78.8594 64.6943 81.6559 63.3746C83.007 62.7462 84.7351 61.0809 85.0807 59.7612C85.552 58.0331 84.7665 56.7134 83.4468 55.8965C82.8499 56.0536 82.2529 56.2735 81.593 56.5877C81.6873 57.9074 81.3417 59.3842 80.0848 60.7353C78.1367 62.8091 76.0944 63.9716 74.7119 64.5372C73.9263 64.8828 73.3608 65.0399 73.1408 65.1028C73.1408 65.1028 73.1408 65.1028 73.1094 65.1028C73.078 65.1342 73.078 65.1342 73.0151 65.1342C73.0151 65.1342 73.0466 65.1342 73.0151 65.1342Z" fill="#D93D40"/>
<path d="M89.6682 72.1724C89.6682 72.1724 83.1641 72.8322 75.9059 73.5549C74.6491 73.6806 73.3608 73.8062 72.0726 73.9319C65.2857 74.5918 58.7501 75.2516 56.8963 75.4715C56.5507 75.503 56.2365 75.503 55.9537 75.4087C52.8116 74.7174 53.66 68.4333 53.66 68.4333C59.9441 66.6423 65.9455 65.574 71.2556 64.977C71.2871 64.977 71.3185 64.977 71.3813 64.977C72.5439 64.8513 73.675 64.7256 74.7433 64.6314C74.7748 64.6314 74.8062 64.6314 74.8376 64.6314C85.0494 63.783 91.8991 64.5685 91.8991 64.5685C91.8991 64.5685 91.8991 64.5685 92.6218 68.8732C93.0931 72.0467 89.6682 72.1724 89.6682 72.1724Z" fill="#EF3829"/>
<path d="M75.8744 73.523C74.6176 73.6486 73.3293 73.8057 72.0411 73.9314L71.2241 64.9765C71.2555 64.9765 71.287 64.9765 71.3498 64.9765C72.5124 64.8508 73.6435 64.7251 74.7118 64.6309C74.7433 64.6309 74.7747 64.6309 74.8061 64.6309L75.8744 73.523Z" fill="#EF3829"/>
<path d="M78.4509 67.7727C78.2309 68.1184 77.9796 68.4326 77.7282 68.7782C77.6025 68.9353 77.5711 68.9667 77.3826 68.9039C77.0055 68.7782 77.0055 68.7782 77.0055 68.7782C76.4085 68.4954 76.1572 68.3069 75.6858 67.8984C75.3402 67.5842 75.0574 67.1443 75.026 66.673C74.9946 66.2017 75.4345 65.699 75.9058 65.6675C76.4085 65.6047 76.7227 66.1703 76.9741 66.5787C77.0055 66.296 76.9741 65.9818 77.1312 65.7304C77.2569 65.479 77.4768 65.2905 77.7596 65.1962C78.3566 64.9449 78.8279 65.3219 78.985 65.9189C79.1421 66.5473 78.7965 67.2072 78.4509 67.7727Z" fill="#F2DEC9"/>
<path d="M77.2568 66.8306C77.2568 66.9877 77.1312 67.1134 76.9426 67.1134C76.7855 67.1134 76.6284 66.9877 76.6284 66.8306C76.6284 66.6735 76.7541 66.5479 76.9426 66.5479C77.0997 66.5479 77.2568 66.6735 77.2568 66.8306Z" fill="#CB2C1C"/>
<path d="M77.2571 66.3272C77.2571 66.5157 77.1943 66.6414 77.1629 66.8299C77.1314 67.0498 76.7858 66.9556 76.8172 66.7356C76.9115 66.17 76.8801 65.6045 76.6601 65.0389C76.5659 64.8504 76.4088 64.6304 76.2202 64.4733C75.9689 64.222 75.5918 64.0963 75.2148 64.1277C74.9634 64.1591 74.7749 64.3476 74.6492 64.599C74.5235 64.599 74.3664 64.6304 74.2407 64.6304C74.5549 63.7506 75.5918 63.5935 76.4088 64.1591C76.5344 64.2534 76.6287 64.3476 76.6915 64.4419C76.9429 64.7561 77.0686 65.1332 77.1314 65.5102C77.1943 65.793 77.2571 66.0758 77.2571 66.3272Z" fill="#CB3E3D"/>
<path opacity="0.09" d="M55.9222 75.4087C52.8115 74.7174 53.6599 68.4333 53.6599 68.4333C59.944 66.6423 65.9454 65.574 71.2555 64.977C71.287 64.977 71.3184 64.977 71.3812 64.977C72.5438 64.8513 73.6749 64.7256 74.7432 64.6314C74.7747 64.6314 74.8061 64.6314 74.8375 64.6314C85.0493 63.783 91.899 64.5685 91.899 64.5685C62.332 65.5426 54.7282 69.2816 54.7282 69.2816C53.5028 72.895 55.9222 75.4087 55.9222 75.4087Z" fill="#F7CCBD"/>
<path d="M77.8538 57.247C77.0683 57.844 76.3142 58.1582 76.1571 57.9697C76 57.7812 76.4713 57.1213 77.2568 56.5243C78.0423 55.9273 78.7964 55.6131 78.9535 55.8016C79.1106 55.9902 78.6079 56.65 77.8538 57.247Z" fill="#F8F8F9"/>
<path d="M75.5916 58.9758C75.4031 59.1015 75.1517 59.1015 74.9946 58.9129C74.8375 58.7244 74.8689 58.473 75.0575 58.3474C75.246 58.2217 75.4974 58.2217 75.6545 58.4102C75.7802 58.5987 75.7487 58.8501 75.5916 58.9758Z" fill="#F8F8F9"/>
<path d="M68.9934 57.4357C69.6847 58.0955 70.1246 58.7868 69.936 58.9753C69.7475 59.1638 69.0248 58.7553 68.3336 58.0955C67.6423 57.4357 67.2024 56.7444 67.391 56.5559C67.5481 56.3674 68.2707 56.7758 68.9934 57.4357Z" fill="#F8F8F9"/>
<path d="M71.0356 59.4167C71.1927 59.5738 71.1927 59.8251 71.0356 59.9822C70.8785 60.1393 70.6272 60.1393 70.4386 59.9822C70.2815 59.8251 70.2815 59.5738 70.4386 59.4167C70.6272 59.2596 70.8785 59.2596 71.0356 59.4167Z" fill="#F8F8F9"/>
<path d="M86.0234 62.2114C85.9606 62.18 85.8978 62.1486 85.8663 62.1172C85.8663 62.0543 85.8663 61.9915 85.8349 61.9287C85.7721 60.4205 86.7461 58.818 87.7516 59.4778C88.2543 59.792 88.2229 60.389 88.1286 60.7347C88.4743 60.8289 89.0084 61.0489 89.0713 61.6459C89.1969 62.777 87.3431 62.9341 86.0234 62.2114Z" fill="#E9626A"/>
<path d="M61.1694 64.2852C61.2008 64.348 61.2323 64.4108 61.2323 64.4737C61.2008 64.5365 61.1694 64.5994 61.1066 64.6308C60.2268 65.8562 58.4672 66.516 58.0902 65.3849C57.9016 64.8193 58.3101 64.3794 58.5615 64.1595C58.3415 63.8767 58.0588 63.3739 58.373 62.8712C59.0014 61.8658 60.5724 62.9026 61.1694 64.2852Z" fill="#D93D40"/>
<path d="M94.0668 67.145C94.0354 67.145 93.9726 67.145 93.9412 67.145C93.9097 67.1135 93.8783 67.0821 93.8783 67.0193C93.3756 66.1395 93.4384 64.9141 94.2554 64.9769C94.6638 65.0084 94.6324 65.6053 94.6953 65.8253C94.9152 65.7625 95.4808 65.5111 95.7007 65.8253C96.1092 66.4851 95.0723 67.1764 94.0668 67.145Z" fill="#EF3829"/>
</g>
<path d="M156.71 89.2393C155.909 90.1768 154.742 90.9043 153.209 91.4219C151.676 91.9297 149.977 92.1689 148.111 92.1396C146.324 92.1201 144.815 91.6709 143.585 90.792C142.354 89.9131 141.476 88.6875 140.948 87.1152C140.421 85.543 140.279 83.7705 140.523 81.7979L140.641 80.9189C141.09 77.6084 142.252 74.9863 144.127 73.0527C146.012 71.1191 148.316 70.1768 151.041 70.2256C153.424 70.2646 155.255 70.9043 156.534 72.1445C157.813 73.3848 158.526 75.1768 158.673 77.5205L153.868 77.5059C153.8 76.3633 153.517 75.5283 153.019 75.001C152.53 74.4736 151.832 74.1953 150.924 74.166C149.576 74.1172 148.463 74.6494 147.584 75.7627C146.705 76.8662 146.104 78.4482 145.782 80.5088C145.509 82.2666 145.411 83.6338 145.489 84.6104C145.636 86.9639 146.695 88.1553 148.668 88.1846C149.859 88.2041 150.904 87.916 151.803 87.3203L152.462 83.9951H148.99L149.605 80.4648H158.087L156.71 89.2393ZM164.356 91.8613H159.347L163.053 70.5332H168.048L164.356 91.8613ZM185.626 89.2393C184.825 90.1768 183.658 90.9043 182.125 91.4219C180.592 91.9297 178.893 92.1689 177.027 92.1396C175.24 92.1201 173.731 91.6709 172.501 90.792C171.271 89.9131 170.392 88.6875 169.864 87.1152C169.337 85.543 169.195 83.7705 169.439 81.7979L169.557 80.9189C170.006 77.6084 171.168 74.9863 173.043 73.0527C174.928 71.1191 177.232 70.1768 179.957 70.2256C182.34 70.2646 184.171 70.9043 185.45 72.1445C186.729 73.3848 187.442 75.1768 187.589 77.5205L182.784 77.5059C182.716 76.3633 182.433 75.5283 181.935 75.001C181.446 74.4736 180.748 74.1953 179.84 74.166C178.492 74.1172 177.379 74.6494 176.5 75.7627C175.621 76.8662 175.021 78.4482 174.698 80.5088C174.425 82.2666 174.327 83.6338 174.405 84.6104C174.552 86.9639 175.611 88.1553 177.584 88.1846C178.775 88.2041 179.82 87.916 180.719 87.3203L181.378 83.9951H177.906L178.521 80.4648H187.003L185.626 89.2393ZM200.45 87.877H193.639L191.749 91.8613H186.227L197.521 70.5332H202.237L206.178 91.8613H200.963L200.45 87.877ZM195.514 83.9072H199.938L199 76.5537L195.514 83.9072ZM219.625 86.0898C219.84 84.9863 219.244 84.1318 217.838 83.5264L215.436 82.5303C212.066 81.0166 210.465 78.9561 210.631 76.3486C210.699 75.1572 211.109 74.0977 211.861 73.1699C212.613 72.2324 213.653 71.5049 214.981 70.9873C216.31 70.4697 217.76 70.2207 219.332 70.2402C221.441 70.2793 223.136 70.8945 224.415 72.0859C225.704 73.2773 226.339 74.874 226.319 76.876H221.339C221.368 76.0557 221.192 75.4014 220.812 74.9131C220.44 74.415 219.825 74.1562 218.966 74.1367C218.126 74.1172 217.384 74.3125 216.739 74.7227C216.095 75.1328 215.714 75.6846 215.597 76.3779C215.411 77.3545 216.134 78.1553 217.765 78.7803C219.405 79.4053 220.597 79.9424 221.339 80.3916C223.673 81.7881 224.767 83.6729 224.62 86.0459C224.542 87.2764 224.146 88.3555 223.434 89.2832C222.721 90.2109 221.729 90.9287 220.46 91.4365C219.2 91.9443 217.784 92.1885 216.212 92.1689C215.06 92.1494 213.99 91.9688 213.004 91.627C212.018 91.2852 211.173 90.7871 210.47 90.1328C209.044 88.8145 208.36 87.0811 208.419 84.9326L213.443 84.9473C213.385 86.041 213.595 86.8711 214.073 87.4375C214.552 87.9941 215.357 88.2725 216.49 88.2725C217.33 88.2725 218.028 88.082 218.585 87.7012C219.151 87.3105 219.498 86.7734 219.625 86.0898Z" fill="#BBBBBB"/>
<path d="M160.692 38.4747C159.857 39.0545 158.442 38.7994 157.488 38.772C155.06 38.6283 152.39 36.696 151.642 34.3652C151.449 33.776 151.207 30.17 152.344 30.3075C152.439 30.315 152.461 30.3407 152.505 30.3919C153.512 29.754 154.621 29.3392 155.832 29.1478C157.064 28.982 158.644 28.9631 159.857 29.3458C160.862 29.6403 160.959 30.8435 161.323 31.6853C161.865 32.9955 162.141 34.0455 162.007 35.4458C161.902 36.4658 161.603 37.8292 160.692 38.4747Z" fill="#D93D40"/>
<path d="M144.308 61.8606C142.183 63.63 139.527 64.5682 136.939 65.5359C135.904 65.9325 134.769 66.3691 133.635 66.4949C132.428 66.6388 131.093 66.8922 129.85 66.8898C129.492 66.8854 128.288 66.9818 128.084 66.5353C127.964 66.2388 128.203 65.9468 128.459 65.7279C128.98 64.8842 129.884 64.3337 130.628 63.6989C131.371 63.0641 132.079 62.2829 132.935 61.7288C133.364 61.4517 133.814 61.2002 134.29 60.9269C135.392 60.2964 136.556 59.7904 137.716 59.3319C139.443 58.6551 141.277 57.8432 143.142 57.536C145.103 57.2363 146.973 56.5708 149.013 56.4687C149.182 56.458 149.357 56.6632 149.225 56.8201C147.81 58.6933 146.102 60.3282 144.308 61.8606Z" fill="#C5C25E"/>
<path d="M153.276 47.5985C153.199 47.6641 153.1 47.7042 153.024 47.7698C151.75 48.4585 150.365 47.8232 149.247 47.1372C147.695 46.2017 146.403 44.6889 145.269 43.3081C144.463 42.3119 144.191 41.2144 144.613 40.0999C144.544 40.0705 144.504 39.9717 144.537 39.8547C144.754 38.9154 144.903 37.9466 145.168 37.011C145.425 36.1704 145.789 35.1948 146.277 34.468C146.82 33.65 147.315 32.8282 147.993 32.1164C148.799 31.2952 149.66 30.6935 150.553 29.9749C151.267 29.4095 152.338 27.9635 153.379 28.7151C153.988 29.1698 154.561 30.0997 154.991 30.7075C155.44 31.3886 155.687 32.1972 155.89 32.9545C156.144 33.9789 156.325 35.0215 156.458 36.0602C156.818 38.767 156.769 41.5131 155.755 44.0635C155.637 44.3412 155.546 44.597 155.428 44.8747C154.888 45.9561 154.283 46.9605 153.276 47.5985Z" fill="#EA4F4F"/>
<path d="M157.47 45.6584C156.294 46.6179 154.797 47.4085 153.275 47.5993C152.504 47.6819 151.718 47.6439 151.002 47.3243C149.704 46.7916 148.569 46.0324 147.906 44.7366C147.447 43.8874 147.269 42.7973 147.556 41.8873C147.443 41.8067 147.359 41.6566 147.513 41.5252L147.59 41.4595C147.667 41.3939 147.792 41.332 147.894 41.2444C147.894 41.2444 147.894 41.2444 147.92 41.2225C147.945 41.2006 147.945 41.2006 147.971 41.1787C148.993 40.3506 150.055 39.6213 151.139 38.9177C151.618 38.5968 152.12 38.3016 152.599 37.9807C153.782 37.2371 155.103 36.5522 156.435 36.0355C156.93 35.8353 157.445 35.6608 157.936 35.5082C159.235 35.1085 164.605 34.0255 163.297 36.9594C162.633 38.4135 161.851 39.8344 161.143 41.2372C160.438 42.5925 159.449 43.6145 158.452 44.7315C158.115 45.0636 157.803 45.3739 157.47 45.6584Z" fill="#EA4F4F"/>
<path d="M133.786 30.3279C133.949 30.9865 134.745 31.5036 135.242 31.8776C136.479 32.86 138.589 33.0981 139.922 32.2706C140.273 32.0592 141.838 30.4131 141.228 29.9585C141.206 29.9328 141.158 29.9291 141.111 29.9253C140.886 29.1423 140.51 28.4432 139.985 27.8278C139.46 27.2124 138.678 26.5052 137.919 26.1344C137.319 25.848 136.752 26.3771 136.228 26.6467C135.474 27.1133 134.917 27.4998 134.404 28.2484C134.001 28.8145 133.604 29.5962 133.786 30.3279Z" fill="#B72C38"/>
<path d="M133.73 38.3108C134.09 39.2001 135.022 39.5127 135.87 39.6752C136.999 39.9078 138.28 39.7458 139.395 39.5468C140.218 39.4204 140.779 38.9863 141.051 38.2665C141.098 38.2702 141.171 38.2521 141.201 38.1827C141.461 37.6054 141.788 37.1051 142.052 36.4803C142.262 35.9468 142.479 35.3183 142.549 34.726C142.624 34.0862 142.72 33.4721 142.699 32.8248C142.664 32.0568 142.479 31.3726 142.323 30.619C142.226 30.0374 142.272 28.8454 141.442 28.756C140.945 28.6929 140.283 28.9037 139.818 29.0344C139.306 29.1614 138.852 29.4604 138.471 29.7412C136.541 31.1673 134.731 32.8897 133.97 35.2688C133.628 36.2701 133.333 37.2751 133.73 38.3108Z" fill="#D33543"/>
<path d="M137.495 39.0845C136.631 39.4229 135.779 39.3079 134.921 38.9771C134.431 38.8189 134.026 38.5 133.676 38.0897L133.588 37.9872C133.15 37.4744 132.844 36.8046 132.634 36.1423C132.441 35.5532 132.321 34.9459 132.341 34.3975C132.346 33.4175 132.253 32.4775 132.474 31.4906C132.674 30.4781 132.873 29.4655 133.142 28.4824C133.146 28.4348 133.146 28.4348 133.146 28.4348C133.382 27.5687 133.952 27.6136 134.518 28.017C135.288 28.556 136.087 29.6473 136.364 30.0757C136.532 30.3759 136.725 30.6541 136.889 31.0019C137.18 31.5509 137.443 32.1694 137.661 32.7367C137.781 33.0331 137.875 33.3514 137.97 33.6697C138.308 34.8442 138.693 36.0224 138.91 37.2113C138.906 37.2589 138.928 37.2845 138.946 37.3577C138.965 37.4308 138.983 37.504 139.001 37.5772L139.019 37.6503C139.033 37.771 138.935 37.8111 138.839 37.8036C138.601 38.4065 138.062 38.8662 137.495 39.0845Z" fill="#D33543"/>
<path d="M151.705 31.4299C150.782 32.218 149.864 32.6477 149.645 32.3913C149.426 32.1349 149.994 31.2949 150.917 30.5069C151.84 29.7188 152.759 29.2891 152.978 29.5455C153.197 29.8019 152.628 30.6419 151.705 31.4299Z" fill="#F8F8F9"/>
<path d="M148.987 33.7511C148.782 33.9263 148.45 33.9 148.253 33.6693C148.056 33.4385 148.104 33.1314 148.309 32.9563C148.514 32.7812 148.847 32.8074 149.044 33.0382C149.241 33.2689 149.192 33.576 148.987 33.7511Z" fill="#F8F8F9"/>
<path d="M141.81 31.677C141.863 32.5181 141.737 33.2017 141.496 33.2305C141.28 33.2374 141.022 32.5713 140.968 31.7302C140.915 30.889 141.041 30.2054 141.282 30.1767C141.524 30.1479 141.756 30.8358 141.81 31.677Z" fill="#F8F8F9"/>
<path d="M141.995 34.1777C142.028 34.3716 141.87 34.5504 141.655 34.5573C141.439 34.5642 141.307 34.4104 141.275 34.2165C141.242 34.0226 141.4 33.8438 141.616 33.8369C141.831 33.83 141.988 33.9619 141.995 34.1777Z" fill="#F8F8F9"/>
<path d="M166.451 49.7381C165.599 49.6231 164.927 49.3548 164.967 49.1428C164.986 48.9052 165.71 48.8188 166.515 48.9301C167.366 49.0451 168.039 49.3133 167.998 49.5254C167.983 49.7155 167.281 49.8275 166.451 49.7381Z" fill="#F8F8F9"/>
<path d="M163.99 49.4003C163.8 49.3853 163.647 49.2058 163.688 48.9938C163.703 48.8037 163.882 48.6505 164.094 48.6911C164.284 48.7061 164.437 48.8856 164.397 49.0976C164.356 49.3096 164.18 49.4153 163.99 49.4003Z" fill="#F8F8F9"/>
<path d="M135.206 37.493L134.961 37.5694L133.636 37.991L133.589 37.9872L132.608 38.2925C132.55 38.1205 132.513 37.9742 132.43 37.8241C132.233 37.2825 132.231 36.7084 132.25 36.1599C132.258 36.0648 132.382 36.0029 132.426 36.0542C132.495 36.0836 132.565 36.113 132.634 36.1424C132.441 35.5532 132.322 34.946 132.341 34.3975C132.347 33.4175 132.254 32.4775 132.475 31.4906C132.674 30.4781 132.874 29.4656 133.143 28.4824C133.054 29.0015 132.498 32.712 133.853 35.545C134.177 36.288 134.603 36.9434 135.206 37.493Z" fill="#B72C38"/>
<path d="M157.47 45.6577C156.295 46.6171 154.798 47.4077 153.276 47.5986C153.199 47.6643 153.1 47.7043 153.023 47.77C151.749 48.4586 150.365 47.8233 149.247 47.1373C147.695 46.2018 146.403 44.6891 145.269 43.3083C144.463 42.312 144.19 41.2145 144.613 40.1C144.544 40.0706 144.504 39.9718 144.537 39.8548C144.754 38.9155 144.903 37.9467 145.168 37.0111C145.425 36.1706 145.789 35.1949 146.277 34.4682C146.277 34.4682 145.316 37.8598 147.228 39.9954C147.228 39.9954 149.659 38.5849 151.135 38.9645C151.417 39.0345 151.691 39.1996 151.862 39.4522C152.963 40.95 153.118 44.4535 153.118 44.4535C153.118 44.4535 154.207 44.5872 155.38 44.8711C156.108 45.048 156.875 45.3238 157.47 45.6577Z" fill="#DB4040"/>
<path d="M132.198 60.7628C132.121 60.8284 132 60.8428 131.935 60.7659C131.373 60.315 130.744 60.0981 130.262 59.534C129.916 59.0762 129.599 58.549 129.329 58.0256C128.597 56.7004 128.223 55.3796 128.076 53.9093C127.932 52.7023 128.325 51.6572 128.7 50.539C129.138 49.2344 129.353 47.7209 130.068 46.5338C130.149 46.4206 130.412 46.4175 130.449 46.5638C131.001 48.0422 131.701 49.4843 132.331 50.8971C132.819 51.9877 133.412 53.2541 133.75 54.4286C134.026 55.4786 133.943 56.8351 133.787 57.899C133.787 57.899 133.787 57.899 133.761 57.9209C133.698 58.418 133.478 58.7833 133.254 59.1961C133.254 59.1961 133.254 59.1961 133.276 59.2217C133.32 59.273 133.312 59.3681 133.283 59.4375C133.177 59.5726 133.092 59.7333 132.986 59.8684C132.982 59.9159 132.957 59.9378 132.953 59.9854C132.949 60.0329 132.945 60.0804 132.916 60.1498C132.89 60.1717 132.89 60.1717 132.865 60.1936C132.835 60.263 132.762 60.2812 132.689 60.2993C132.531 60.4782 132.374 60.6571 132.198 60.7628Z" fill="#C5C25E"/>
<path d="M167.224 56.9242C166.592 56.7547 166.081 55.9492 165.665 55.4621C164.688 54.2132 164.447 52.1138 165.272 50.7441C165.467 50.4007 167.123 48.8096 167.575 49.4431C167.597 49.4687 167.593 49.5163 167.589 49.5638C168.36 49.792 169.047 50.181 169.653 50.6831C170.281 51.2109 170.96 52.0058 171.331 52.7525C171.641 53.3747 171.073 53.9038 170.816 54.4336C170.42 55.2154 170.038 55.807 169.28 56.3211C168.724 56.7077 167.926 57.123 167.224 56.9242Z" fill="#B72C38"/>
<path d="M159.281 56.9681C158.4 56.6116 158.091 55.6786 157.943 54.8299C157.722 53.6886 157.871 52.409 158.056 51.2757C158.193 50.4496 158.596 49.8836 159.335 49.6071C159.339 49.5596 159.369 49.4901 159.394 49.4682C159.965 49.2024 160.47 48.8597 161.063 48.6195C161.583 48.3974 162.245 48.1866 162.801 48.1109C163.43 48.017 164.06 47.9232 164.699 47.9976C165.46 48.0576 166.14 48.2308 166.893 48.3858C167.481 48.504 168.659 48.4295 168.76 49.2744C168.817 49.7572 168.596 50.4332 168.489 50.8792C168.379 51.3726 168.078 51.8511 167.785 52.2345C166.366 54.1552 164.618 56.0021 162.287 56.7508C161.281 57.078 160.278 57.3576 159.281 56.9681Z" fill="#D33543"/>
<path d="M158.61 55.7675C158.32 54.9076 158.197 54.0371 158.528 53.1784C158.741 52.5974 159.188 52.0826 159.781 51.8424C159.763 51.7693 159.796 51.6523 159.938 51.6636L160.008 51.693C160.077 51.7223 160.172 51.7298 160.242 51.7592C160.242 51.7592 160.264 51.7849 160.289 51.763C161.514 52.003 162.705 52.3601 163.919 52.7427C165.132 53.1254 166.403 53.68 167.473 54.3623C168.226 54.8281 171.11 57.0644 169.131 57.6017C168.128 57.8814 167.086 58.0622 166.087 58.2943C165.114 58.5045 164.163 58.4295 163.209 58.402C161.469 58.3365 159.218 57.4654 158.61 55.7675Z" fill="#D33543"/>
<path d="M139.879 40.9944C139.125 41.461 138.309 41.8032 137.442 41.8783C137.153 41.9033 136.842 41.9027 136.535 41.8546C136.345 41.8396 136.181 41.8027 135.969 41.7621C134.891 41.4857 133.934 40.8841 133.292 39.9248C132.971 39.4452 132.778 38.8561 132.582 38.3145C132.524 38.1425 132.488 37.9961 132.404 37.8461C132.207 37.3045 132.205 36.7304 132.224 36.1819C132.232 36.0868 132.356 36.0249 132.4 36.0762C132.469 36.1056 132.539 36.135 132.608 36.1643C132.908 36.3075 133.233 36.4288 133.58 36.5758C133.649 36.6052 133.719 36.6346 133.741 36.6602C134.084 36.8547 134.376 37.0929 134.716 37.335C134.76 37.3862 134.829 37.4156 134.873 37.4669L134.938 37.5438C135.048 37.672 135.147 37.632 135.184 37.4675C135.261 37.4018 135.444 37.2011 135.521 37.1354C135.858 36.8033 136.22 36.4493 136.645 36.2197C137.073 35.9427 137.714 35.3954 138.204 35.8644C138.536 36.2015 138.758 36.7212 138.907 37.259C138.903 37.3065 138.925 37.3322 138.943 37.4053C139.019 37.6505 139.048 37.8919 139.128 38.0895C139.582 37.7905 140.007 37.561 140.581 37.5584C140.844 37.5553 141.177 37.5815 141.458 37.6516C141.528 37.681 141.619 37.736 141.71 37.791L141.736 37.7691C141.864 37.6597 142.039 37.8648 141.911 37.9742C141.885 37.9961 141.885 37.9961 141.86 38.018C141.834 38.0399 141.834 38.0399 141.83 38.0875C141.698 38.2444 141.607 38.5002 141.518 38.7085C141.353 38.9824 141.258 39.2858 141.067 39.5816C140.74 40.0819 140.41 40.6298 139.879 40.9944Z" fill="#C5C25E"/>
<path d="M132.893 60.7464C133.036 60.4468 133.157 60.1216 133.3 59.822C133.3 59.822 133.3 59.822 133.326 59.8001C133.477 59.4055 133.675 59.0146 133.804 58.5943C133.833 58.5249 133.862 58.4555 133.87 58.3604C134.59 56.5042 135.15 54.5635 135.611 52.6629C136.41 49.4977 137.391 45.2468 136.535 41.8553C136.44 41.537 136.368 41.2443 136.273 40.926C136.077 40.3844 136.911 40.1154 137.108 40.657C137.268 41.0522 137.38 41.4437 137.442 41.879C138.123 45.0654 137.388 48.9291 136.724 51.8898C136.318 53.6991 135.839 55.5266 135.196 57.3171C135.163 57.4341 135.104 57.5729 135.071 57.6899C134.946 58.0626 134.795 58.4573 134.648 58.8044C134.619 58.8738 134.615 58.9213 134.585 58.9908C134.582 59.0383 134.552 59.1077 134.527 59.1296C133.984 59.6368 133.417 60.166 132.893 60.7464Z" fill="#C5C25E"/>
<path d="M119.579 79.1605C120.713 75.3999 123.301 72.304 125.508 69.1781C127.261 66.662 128.831 64.0358 130.81 61.681C131.129 61.2757 131.496 60.8742 131.858 60.5202C132.485 59.8522 133.108 59.2318 133.778 58.6151C133.958 58.4619 134.09 58.3049 134.269 58.1517C134.577 57.889 134.863 57.6006 135.196 57.3161C136.482 56.174 137.808 55.1307 139.115 54.0143L143.653 50.1397C144.243 49.6362 144.8 48.9388 145.503 48.516C144.229 47.3872 143.439 45.8901 142.923 44.2472C142.617 43.2666 142.799 42.1809 142.925 41.1865C142.992 40.6417 143.197 40.1558 143.286 39.6367C143.36 39.3077 143.511 38.9131 143.541 38.5329C143.544 38.4853 143.548 38.4378 143.552 38.3903C143.556 38.3427 143.556 38.3427 143.559 38.2952C143.509 38.0282 143.948 37.9193 143.995 38.2339L143.991 38.2814C144.605 38.3777 145.211 38.8798 145.635 39.2719C146.35 39.9023 146.648 40.6671 146.866 41.5452C147.807 40.8303 149.104 39.8565 150.278 39.8295C151.356 39.795 151.58 41.1997 151.827 42.0083C152.1 42.795 152.157 43.5886 152.236 44.4079C152.269 44.6018 152.235 45.0296 152.293 45.2015C152.124 45.523 152.234 45.6512 152.647 45.5642C152.768 45.5499 152.91 45.5611 153.005 45.5686C153.649 45.5954 154.267 45.6442 154.899 45.8136C155.696 46.02 156.408 46.387 157.205 46.5933C157.322 46.6265 157.402 46.8241 157.321 46.9373C156.717 47.6309 156.159 48.3283 155.336 48.7655C154.289 49.3047 153.227 50.0339 152.104 50.328C150.322 50.7852 148.531 50.4526 146.902 49.5828C146.65 49.4434 146.445 49.3077 146.241 49.172C145.084 49.5829 143.677 51.3611 142.831 52.0835C141.574 53.1561 140.314 54.2763 139.036 55.3233C138.523 55.7611 138.014 56.1514 137.501 56.5892C136.608 57.3078 135.732 58.0997 134.882 58.8696C134.78 58.9571 134.651 59.0666 134.571 59.1798C134.003 59.7089 133.435 60.238 132.889 60.7928C132.735 60.9242 132.629 61.0593 132.475 61.1906C129.947 63.8368 128.185 67.0696 126.04 70.0092C123.943 72.9524 121.483 75.9389 120.412 79.5131C120.254 80.0028 119.417 79.6977 119.579 79.1605Z" fill="#C5C25E"/>
<path d="M162.474 58.3196C162.12 58.2678 161.743 58.1902 161.371 58.0652C160.647 57.8407 159.956 57.4993 159.445 57.0046C159.376 56.9752 159.329 56.9715 159.259 56.9421C158.378 56.5857 158.069 55.6526 157.921 54.804C157.7 53.6626 157.871 52.4087 158.034 51.2498C158.171 50.4236 158.574 49.8576 159.314 49.5811C159.317 49.5336 159.321 49.4861 159.372 49.4423C159.57 49.3622 159.72 49.2784 159.896 49.1727C160.269 48.987 160.646 48.7537 161.067 48.5716C161.587 48.3496 162.249 48.1388 162.805 48.0631C163.456 47.9949 164.085 47.901 164.703 47.9497C165.252 47.9691 165.767 48.1054 166.286 48.1942L166.202 48.3549C166.202 48.3549 162.279 47.7585 160.902 50.663C160.902 50.663 163.077 51.2889 162.917 52.4002C162.784 53.4897 162.336 54.3152 161.08 55.3879C161.08 55.3879 161.678 55.9851 162.071 56.7574C162.315 57.3028 162.49 57.8187 162.474 58.3196Z" fill="#B72C38"/>
<path d="M159.728 58.2702C159.055 58.002 158.259 57.7957 157.692 57.3923C156.761 56.7689 156.145 55.7876 155.873 54.6901C155.528 53.2998 155.897 51.9658 156.638 50.7569C156.968 50.209 157.543 49.8957 158.048 49.5529C158.3 49.3815 158.644 49.2652 158.919 49.1194C159.095 49.0137 159.34 48.9374 159.541 48.8098C159.567 48.7879 159.593 48.7661 159.593 48.7661C159.618 48.7442 159.618 48.7442 159.618 48.7442C159.724 48.6091 159.951 48.7704 159.845 48.9055C159.845 48.9055 159.845 48.9055 159.819 48.9274C160.034 49.2313 160.044 49.7104 160.04 50.0687C160.042 50.6428 159.815 51.1032 159.518 51.5341C160.245 51.711 161.21 51.9067 161.717 52.4489C162.181 52.9398 161.627 53.5896 161.356 53.9987C161.106 54.4333 160.769 54.7654 160.407 55.1194C160.304 55.207 160.125 55.3602 160.07 55.4515C159.85 55.506 159.842 55.601 160.069 55.7624C160.113 55.8136 160.156 55.8649 160.222 55.9418C160.485 56.2495 160.7 56.5535 160.911 56.9049C161.141 57.3295 161.268 57.8417 161.497 58.2664C161.516 58.3395 161.482 58.4565 161.387 58.449C160.835 58.4772 160.261 58.4797 159.728 58.2702Z" fill="#C5C25E"/>
<path d="M156.682 54.4436C156.379 54.348 156.075 54.2523 155.746 54.1785C152.369 53.3382 148.133 54.2954 144.986 55.0755C141.522 55.95 138.013 57.0841 134.886 58.8223C134.788 58.8623 134.711 58.928 134.612 58.968C134.26 59.1794 133.909 59.3908 133.557 59.6023C133.459 59.6423 133.356 59.7299 133.279 59.7955C132.799 60.1164 132.294 60.4591 131.858 60.8313C131.503 61.0902 131.144 61.3967 130.811 61.6813C131.13 61.276 131.496 60.8745 131.859 60.5205C132.486 59.8525 133.108 59.2321 133.779 58.6154C133.808 58.5459 133.838 58.4765 133.845 58.3815C133.995 58.2976 134.12 58.2357 134.27 58.1519C134.544 58.0062 134.819 57.8604 135.071 57.6891C135.869 57.2737 136.689 56.8841 137.505 56.5419C140.155 55.3879 142.947 54.5559 145.745 53.9397C148.69 53.2872 152.528 52.5377 155.701 53.2423C156.125 53.3236 156.545 53.4524 156.918 53.5775C157.499 53.7907 157.219 54.6056 156.682 54.4436Z" fill="#C5C25E"/>
<path d="M145.496 44.666C145.194 43.6378 145.123 42.4127 145.396 41.382C145.429 41.265 145.268 41.1806 145.166 41.2682C144.766 41.7867 144.75 42.5984 144.701 43.2163C144.66 43.7392 144.596 44.5472 145.067 44.943C145.246 45.1006 145.572 44.9111 145.496 44.666Z" fill="#BAB23C"/>
<path d="M148.831 44.833C149.029 44.4421 149.001 43.8899 149.316 43.5321C149.368 43.4884 149.276 43.4333 149.251 43.4552C148.925 43.6447 148.844 44.0688 148.722 44.394C148.535 44.9531 148.026 45.3434 147.886 45.9062C147.856 45.9757 147.944 46.0782 148.043 46.0382C148.42 45.8049 148.659 45.202 148.831 44.833Z" fill="#BAB23C"/>
<path d="M153.309 47.4824C152.709 47.5068 152.16 47.7983 151.535 47.8446C151.03 47.8765 150.475 47.6414 150.061 48.0392C149.903 48.2181 149.881 48.5032 150.111 48.6171C151.342 49.3837 152.419 48.1535 153.327 47.5555C153.353 47.5336 153.309 47.4824 153.309 47.4824Z" fill="#BAB23C"/>
<path d="M135.99 39.9705C135.746 39.736 135.398 39.5891 135.103 39.3983C134.694 39.1269 134.435 38.7717 134.051 38.4785C134.029 38.4528 134.004 38.4747 134.026 38.5003C134.467 39.2764 135.153 39.6654 135.909 40.0837C135.957 40.0875 136.034 40.0218 135.99 39.9705Z" fill="#BAB23C"/>
<path d="M137.342 38.906C137.39 38.5989 137.39 38.2881 137.46 38.0066C137.464 37.9591 137.417 37.9554 137.391 37.9772C137.123 38.3387 137.001 38.9748 137.11 39.4138C137.128 39.487 137.176 39.4907 137.227 39.4469C137.429 39.3194 137.327 39.0961 137.342 38.906Z" fill="#BAB23C"/>
<path d="M139.406 40.0249C139.483 39.9592 139.908 39.108 139.956 39.1118C139.978 39.1374 139.982 39.0899 139.982 39.0899C139.96 39.0642 139.938 39.0386 139.916 39.0129C139.894 38.9873 139.868 39.0092 139.868 39.0092C139.586 39.25 139.396 39.5458 139.114 39.7866C138.857 40.0055 138.583 40.1513 138.439 40.4508C138.384 40.5422 138.494 40.6703 138.593 40.6303C138.915 40.4883 139.193 40.2951 139.406 40.0249Z" fill="#BAB23C"/>
<path d="M158.032 52.1828C158.175 51.8832 158.315 51.3203 158.659 51.204C158.382 51.0864 158.173 51.3091 158.059 51.5392C157.809 51.9739 157.659 52.3686 157.526 52.8364C157.497 52.9058 157.61 52.9865 157.661 52.9427C157.866 52.7675 157.893 52.4348 158.032 52.1828Z" fill="#BAB23C"/>
<path d="M159.521 53.6159C159.13 53.7285 158.365 53.716 158.145 54.0813C158.116 54.1507 158.182 54.2276 158.255 54.2095C158.679 53.9799 159.137 53.9443 159.521 53.6159Z" fill="#BAB23C"/>
<path d="M159.383 56.8806C159.083 56.7374 158.43 56.2315 158.361 55.8913C158.321 55.7925 158.204 55.7593 158.171 55.8763C157.976 56.5305 158.849 56.982 159.383 56.8806Z" fill="#BAB23C"/>
<path d="M145.645 58.5472C143.175 59.548 141.01 61.2186 138.536 62.267C137.471 62.733 136.381 63.2208 135.276 63.588C134.712 63.7588 134.156 63.8345 133.651 64.1773C133.574 64.2429 133.683 64.3711 133.757 64.353C137.965 62.8436 142.169 61.3818 145.645 58.5472C145.671 58.5253 145.693 58.551 145.645 58.5472Z" fill="#BAB23C"/>
<path d="M132.258 58.1846C130.764 55.6036 129.907 52.523 130.406 49.5254C129.943 50.8519 130.071 52.8707 130.295 54.2753C130.541 55.7056 130.965 57.2934 132.057 58.3121C132.144 58.4147 132.342 58.3346 132.258 58.1846Z" fill="#BAB23C"/>
<path d="M166.733 49.4983C165.91 49.3139 165.242 48.9981 165.308 48.7642C165.349 48.5522 166.047 48.4877 166.895 48.6503C167.718 48.8347 168.386 49.1505 168.32 49.3844C168.254 49.6183 167.555 49.6828 166.733 49.4983Z" fill="#F8F8F9"/>
<path d="M164.288 48.9698C164.076 48.9291 163.97 48.7534 164.011 48.5414C164.026 48.3513 164.227 48.2237 164.439 48.2643C164.651 48.3049 164.757 48.4807 164.716 48.6927C164.676 48.9047 164.474 49.0323 164.288 48.9698Z" fill="#F8F8F9"/>
<path opacity="0.09" d="M132.641 60.2956C132.51 60.4526 132.352 60.6314 132.198 60.7628C132.121 60.8284 132 60.8428 131.935 60.7659C131.373 60.315 130.744 60.0981 130.262 59.534C129.916 59.0762 129.599 58.549 129.329 58.0256C128.597 56.7004 128.223 55.3796 128.076 53.9093C127.932 52.7023 128.325 51.6572 128.7 50.539C129.138 49.2344 129.353 47.7209 130.068 46.5338C130.149 46.4206 130.412 46.4175 130.449 46.5638C130.449 46.5638 128.554 56.0275 130.708 58.1343C132.726 60.1348 133.67 58.1766 133.758 57.9684C133.695 58.4656 133.474 58.8308 133.251 59.2436C133.251 59.2436 133.251 59.2436 133.272 59.2692C133.316 59.3205 133.309 59.4156 133.279 59.485C133.173 59.6201 133.089 59.7808 132.982 59.9159C132.979 59.9635 132.953 59.9854 132.949 60.0329C132.945 60.0804 132.942 60.1279 132.912 60.1974C132.887 60.2193 132.887 60.2193 132.861 60.2411C132.762 60.2812 132.711 60.325 132.641 60.2956Z" fill="#CB2C1C"/>
<path opacity="0.09" d="M136.939 65.5365C135.903 65.933 134.769 66.3697 133.635 66.4954C132.428 66.6394 131.093 66.8927 129.849 66.8903C129.491 66.886 128.288 66.9824 128.084 66.5358C127.964 66.2394 128.202 65.9473 128.458 65.7284C128.979 64.8847 129.884 64.3343 130.627 63.6995C131.371 63.0646 132.078 62.2835 132.935 61.7293C133.363 61.4522 133.813 61.2008 134.289 60.9275L134.304 61.0482C134.304 61.0482 130.024 63.7714 131.03 65.2617C132.044 66.6569 136.672 65.5872 136.939 65.5365Z" fill="#CB2C1C"/>
<path d="M132.263 81.7639C132.166 80.5606 131.772 80.0991 130.739 79.5632C129.062 78.6896 128.926 77.0767 129.511 75.425C129.904 74.38 130.104 73.0566 129.664 71.9697C129.485 71.5013 129.168 70.9741 128.814 70.6114C128.792 70.5857 128.164 70.0579 127.737 69.7134C128.041 69.809 128.318 69.9266 128.596 70.0441C129.542 70.4775 130.617 70.8014 131.625 71.0483C132.517 71.2622 134.704 71.4346 134.721 70.0012C134.727 68.7104 132.59 67.92 131.595 67.7938C130.009 67.5969 127.708 67.6545 126.346 68.5515C126.303 68.5002 126.255 68.4964 126.211 68.4452C126.189 68.4195 126.164 68.4414 126.142 68.4158C126.069 68.1231 126.074 67.7647 126.019 67.5452C125.91 67.1062 125.776 66.6891 125.594 66.2682C125.255 65.4045 124.822 64.5334 124.385 63.7098C123.842 62.7104 122.499 61.2414 121.265 62.0289C120.284 62.645 121.031 64.0908 121.497 64.845C121.964 65.5992 122.632 66.2259 123.201 66.8925C123.529 67.2771 123.836 67.6361 124.216 67.9769C123.693 67.9356 123.214 67.9457 122.804 67.9851C121.209 68.1941 120.081 69.4681 118.356 68.9016C117.402 68.5633 116.336 67.5227 115.264 67.773C114.851 67.8599 113.888 68.2384 114.012 68.7981C114.084 69.0908 114.545 69.0076 114.447 68.7368C114.389 68.5648 115.373 68.212 115.494 68.1976C116.093 68.1732 116.933 68.7416 117.463 68.9986C118.128 69.3619 118.852 69.5864 119.598 69.5257C120.486 69.4762 121.197 68.9583 122.035 68.6418C122.748 68.3872 123.974 68.3165 124.939 68.5122C125.212 68.6772 125.439 68.8386 125.614 69.0437C125.723 69.1719 125.895 69.1137 125.976 69.0005C126.064 69.1031 126.162 69.0631 126.239 68.9974C126.444 69.1331 126.696 69.2725 126.952 69.3644C126.948 69.412 126.992 69.4633 127.014 69.4889C127.783 70.6496 129.183 71.0948 129.443 72.6458C129.685 74.1236 128.904 75.2337 128.7 76.6046C128.615 77.387 128.872 78.6746 129.448 79.2462C129.649 79.4294 130.066 79.6058 130.292 79.7671C131.209 80.2699 131.727 80.6695 131.809 81.752C131.875 82.1398 132.288 82.0528 132.263 81.7639ZM125.034 68.2088C124.965 68.1794 124.873 68.1244 124.83 68.0731C124.085 67.5122 123.549 66.7286 122.958 66.0363C122.542 65.5492 122.122 65.1096 121.783 64.5567C121.36 63.8538 120.87 62.189 122.346 62.5685C123.871 62.9518 124.419 64.7886 125.035 66.0806C125.319 66.7247 125.625 67.3945 125.711 68.1187C125.725 68.2394 125.74 68.3601 125.758 68.4333C125.48 68.3157 125.272 68.2276 125.034 68.2088ZM130.794 68.2566C131.415 68.2578 132.011 68.2809 132.588 68.5417C132.84 68.6811 133.136 68.8718 133.363 69.0332C133.907 69.4109 134.313 69.419 133.993 70.1351C133.431 71.5016 131.053 70.4292 129.978 70.1053C129.346 69.9359 128.794 69.6533 128.217 69.3925C127.753 69.2124 127.238 69.0761 126.799 68.8741C127.927 68.2218 129.576 68.2323 130.794 68.2566Z" fill="#F2DEC9"/>
<path d="M136.482 43.6201C136.072 49.8311 132.454 54.6797 125.628 58.166C128.089 59.9238 129.92 62.0625 131.121 64.582C132.322 67.1016 132.82 69.8701 132.615 72.8877C132.234 78.7764 129.817 83.4199 125.364 86.8184C120.94 90.2168 115.447 91.8574 108.885 91.7402C106.014 91.7109 103.304 91.2715 100.755 90.4219C98.2061 89.5723 96.0234 88.2979 94.207 86.5986C90.5742 83.2588 88.9482 78.9229 89.3291 73.5908C89.7393 66.6475 93.9141 61.3301 101.854 57.6387C97.5176 54.2695 95.4961 49.8457 95.7891 44.3672C95.9941 40.6465 97.0928 37.3799 99.085 34.5674C101.077 31.7549 103.743 29.6016 107.083 28.1074C110.452 26.584 114.158 25.8662 118.201 25.9541C124.061 26.0713 128.66 27.7559 132 31.0078C135.369 34.2598 136.863 38.4639 136.482 43.6201ZM118.377 71.7012C118.641 69.416 118.274 67.541 117.278 66.0762C116.312 64.6113 114.832 63.8496 112.84 63.791C110.584 63.7324 108.636 64.5234 106.995 66.1641C105.354 67.7754 104.373 69.8555 104.051 72.4043C103.787 74.8066 104.168 76.7256 105.193 78.1611C106.248 79.5674 107.771 80.2998 109.764 80.3584C111.932 80.417 113.821 79.6553 115.433 78.0732C117.044 76.4912 118.025 74.3672 118.377 71.7012ZM121.893 44.4111C122.127 42.2432 121.819 40.5293 120.97 39.2695C120.12 37.9805 118.875 37.3359 117.234 37.3359C115.33 37.2773 113.719 37.9658 112.4 39.4014C111.111 40.8369 110.32 42.7412 110.027 45.1143C109.793 47.2822 110.101 49.0547 110.95 50.4316C111.8 51.7793 113.06 52.4531 114.729 52.4531C116.575 52.5117 118.157 51.8086 119.476 50.3438C120.794 48.8789 121.6 46.9014 121.893 44.4111Z" fill="#EF3829"/>
<path d="M136.482 43.6201L133.491 43.3991L133.49 43.4108L133.489 43.4224L136.482 43.6201ZM125.628 58.166L124.263 55.4943L119.869 57.7389L123.884 60.6072L125.628 58.166ZM132.615 72.8877L129.622 72.6843L129.621 72.6941L132.615 72.8877ZM125.364 86.8184L123.544 84.4335L123.537 84.4393L125.364 86.8184ZM108.885 91.7402L108.938 88.7407L108.927 88.7405L108.915 88.7404L108.885 91.7402ZM94.207 86.5986L96.2565 84.4078L96.247 84.3989L96.2374 84.3901L94.207 86.5986ZM89.3291 73.5908L92.3215 73.8046L92.3228 73.7862L92.3239 73.7677L89.3291 73.5908ZM101.854 57.6387L103.118 60.359L107.576 58.2863L103.694 55.2698L101.854 57.6387ZM95.7891 44.3672L92.7936 44.2021L92.7933 44.207L95.7891 44.3672ZM107.083 28.1074L108.308 30.8459L108.319 30.841L107.083 28.1074ZM118.201 25.9541L118.136 28.9534L118.141 28.9535L118.201 25.9541ZM132 31.0078L129.907 33.1572L129.917 33.1663L132 31.0078ZM118.377 71.7012L121.351 72.0934L121.354 72.0692L121.357 72.045L118.377 71.7012ZM117.278 66.0762L114.774 67.7287L114.786 67.746L114.798 67.7631L117.278 66.0762ZM112.84 63.791L112.928 60.7923L112.918 60.792L112.84 63.791ZM106.995 66.1641L109.097 68.3044L109.107 68.2949L109.116 68.2854L106.995 66.1641ZM104.051 72.4043L101.074 72.028L101.071 72.0525L101.069 72.077L104.051 72.4043ZM105.193 78.1611L102.752 79.9048L102.772 79.9332L102.793 79.9611L105.193 78.1611ZM109.764 80.3584L109.675 83.3571L109.683 83.3573L109.764 80.3584ZM121.893 44.4111L124.872 44.7617L124.874 44.7476L124.875 44.7336L121.893 44.4111ZM120.97 39.2695L118.465 40.9205L118.474 40.9338L118.483 40.947L120.97 39.2695ZM117.234 37.3359L117.142 40.3345L117.188 40.3359H117.234V37.3359ZM112.4 39.4014L110.191 37.3722L110.179 37.3845L110.168 37.397L112.4 39.4014ZM110.027 45.1143L107.05 44.7467L107.047 44.7692L107.045 44.7918L110.027 45.1143ZM110.95 50.4316L108.397 52.007L108.405 52.0193L108.412 52.0315L110.95 50.4316ZM114.729 52.4531L114.825 49.4546L114.777 49.4531H114.729V52.4531ZM133.489 43.4224C133.165 48.3237 130.402 52.3591 124.263 55.4943L126.992 60.8377C134.506 57.0003 138.979 51.3384 139.476 43.8178L133.489 43.4224ZM123.884 60.6072C125.967 62.0949 127.449 63.8503 128.413 65.8731L133.829 63.291C132.391 60.2747 130.211 57.7528 127.372 55.7248L123.884 60.6072ZM128.413 65.8731C129.374 67.8887 129.795 70.1368 129.622 72.6843L135.608 73.0911C135.845 69.6034 135.27 66.3144 133.829 63.291L128.413 65.8731ZM129.621 72.6941C129.293 77.7696 127.267 81.5926 123.544 84.4335L127.184 89.2032C132.368 85.2473 135.176 79.7832 135.609 73.0813L129.621 72.6941ZM123.537 84.4393C119.743 87.3537 114.947 88.848 108.938 88.7407L108.831 94.7398C115.948 94.8668 122.138 93.0799 127.192 89.1974L123.537 84.4393ZM108.915 88.7404C106.335 88.7141 103.937 88.3201 101.704 87.5758L99.8062 93.2679C102.671 94.2228 105.692 94.7078 108.854 94.7401L108.915 88.7404ZM101.704 87.5758C99.5312 86.8517 97.7327 85.7888 96.2565 84.4078L92.1576 88.7894C94.3141 90.8069 96.8809 92.2928 99.8062 93.2679L101.704 87.5758ZM96.2374 84.3901C93.3393 81.7257 91.9995 78.3118 92.3215 73.8046L86.3367 73.3771C85.897 79.5339 87.8091 84.7919 92.1766 88.8071L96.2374 84.3901ZM92.3239 73.7677C92.6513 68.2251 95.8745 63.727 103.118 60.359L100.589 54.9183C91.9536 58.9332 86.8272 65.0698 86.3343 73.4139L92.3239 73.7677ZM103.694 55.2698C100.133 52.503 98.5443 49.0236 98.7848 44.5274L92.7933 44.207C92.4478 50.6678 94.9017 56.0361 100.013 60.0076L103.694 55.2698ZM98.7845 44.5323C98.9611 41.328 99.8939 38.6155 101.533 36.3014L96.6369 32.8333C94.2916 36.1443 93.0272 39.9649 92.7936 44.2021L98.7845 44.5323ZM101.533 36.3014C103.196 33.9544 105.427 32.1348 108.308 30.8459L105.858 25.369C102.059 27.0684 98.9588 29.5554 96.6369 32.8333L101.533 36.3014ZM108.319 30.841C111.243 29.519 114.499 28.8743 118.136 28.9534L118.266 22.9548C113.818 22.8581 109.662 23.649 105.847 25.3739L108.319 30.841ZM118.141 28.9535C123.444 29.0596 127.243 30.5634 129.907 33.1572L134.093 28.8584C130.077 24.9484 124.677 23.083 118.261 22.9547L118.141 28.9535ZM129.917 33.1663C132.573 35.73 133.814 39.0268 133.491 43.3991L139.474 43.8411C139.913 37.9009 138.166 32.7895 134.083 28.8493L129.917 33.1663ZM121.357 72.045C121.678 69.2628 121.268 66.6084 119.759 64.3892L114.798 67.7631C115.281 68.4736 115.603 69.5693 115.397 71.3573L121.357 72.045ZM119.782 64.4236C118.198 62.0236 115.743 60.8751 112.928 60.7923L112.752 66.7897C113.921 66.8241 114.425 67.1991 114.774 67.7287L119.782 64.4236ZM112.918 60.792C109.814 60.7114 107.078 61.8389 104.874 64.0427L109.116 68.2854C110.194 67.208 111.354 66.7534 112.762 66.79L112.918 60.792ZM104.893 64.0237C102.714 66.1634 101.471 68.8926 101.074 72.028L107.027 72.7806C107.275 70.8184 107.995 69.3873 109.097 68.3044L104.893 64.0237ZM101.069 72.077C100.754 74.9397 101.161 77.6778 102.752 79.9048L107.635 76.4174C107.175 75.7734 106.82 74.6736 107.033 72.7316L101.069 72.077ZM102.793 79.9611C104.474 82.2019 106.909 83.2757 109.675 83.3571L109.852 77.3597C108.634 77.3239 108.022 76.9329 107.593 76.3611L102.793 79.9611ZM109.683 83.3573C112.701 83.4389 115.369 82.34 117.534 80.2139L113.331 75.9326C112.274 76.9705 111.162 77.3951 109.845 77.3595L109.683 83.3573ZM117.534 80.2139C119.71 78.0778 120.929 75.292 121.351 72.0934L115.403 71.309C115.121 73.4424 114.378 74.9047 113.331 75.9326L117.534 80.2139ZM124.875 44.7336C125.153 42.1621 124.844 39.6487 123.457 37.5921L118.483 40.947C118.795 41.4098 119.101 42.3243 118.91 44.0887L124.875 44.7336ZM123.475 37.6186C122.03 35.4262 119.808 34.3359 117.234 34.3359V40.3359C117.942 40.3359 118.211 40.5347 118.465 40.9205L123.475 37.6186ZM117.327 34.3374C114.528 34.2512 112.083 35.3112 110.191 37.3722L114.61 41.4306C115.354 40.6204 116.132 40.3034 117.142 40.3345L117.327 34.3374ZM110.168 37.397C108.38 39.3882 107.4 41.9118 107.05 44.7467L113.005 45.4818C113.241 43.5707 113.842 42.2857 114.633 41.4057L110.168 37.397ZM107.045 44.7918C106.763 47.3935 107.093 49.8937 108.397 52.007L113.503 48.8563C113.108 48.2157 112.822 47.1709 113.01 45.4367L107.045 44.7918ZM108.412 52.0315C109.843 54.3003 112.089 55.4531 114.729 55.4531V49.4531C114.03 49.4531 113.757 49.2583 113.488 48.8317L108.412 52.0315ZM114.634 55.4516C117.429 55.5403 119.841 54.422 121.705 52.3506L117.246 48.3369C116.473 49.1952 115.722 49.4831 114.825 49.4546L114.634 55.4516ZM121.705 52.3506C123.54 50.3128 124.526 47.7 124.872 44.7617L118.913 44.0606C118.673 46.1027 118.048 47.445 117.246 48.3369L121.705 52.3506Z" fill="#EF3829"/>
<path d="M211.034 62.6118C210.625 62.6118 210.216 62.6118 209.807 62.4754C209.534 62.0664 209.398 61.7938 209.125 61.3848C204.217 53.0686 204.899 41.2078 212.533 41.8894C216.351 42.2984 216.214 47.888 216.76 50.0693C218.941 49.524 224.258 47.07 226.439 50.2056C230.665 56.4769 220.577 62.8844 211.034 62.6118Z" fill="#EF3829"/>
</g>
<defs>
<filter id="filter0_f" x="40" y="81.8613" width="156" height="26" filterUnits="userSpaceOnUse" color-interpolation-filters="sRGB">
<feFlood flood-opacity="0" result="BackgroundImageFix"/>
<feBlend mode="normal" in="SourceGraphic" in2="BackgroundImageFix" result="shape"/>
<feGaussianBlur stdDeviation="5" result="effect1_foregroundBlur"/>
</filter>
<clipPath id="clip0">
<rect width="277" height="105.82" fill="white"/>
</clipPath>
<clipPath id="clip1">
<rect width="26.9138" height="21.1142" fill="white" transform="translate(88.6011) rotate(31.6292)"/>
</clipPath>
<clipPath id="clip2">
<rect width="42.7637" height="49.205" fill="white" transform="translate(53 54.9238)"/>
</clipPath>
</defs>
</svg>
