<?xml version="1.0" encoding="utf-8"?>
<!-- Generator: Adobe Illustrator 23.0.0, SVG Export Plug-In . SVG Version: 6.00 Build 0)  -->
<svg version="1.1" id="Capa_1" xmlns="http://www.w3.org/2000/svg" xmlns:xlink="http://www.w3.org/1999/xlink" x="0px" y="0px"
	 viewBox="0 0 28 28" style="enable-background:new 0 0 28 28;" xml:space="preserve">
<style type="text/css">
	.st0{fill:#34A7BA;}
	.st1{fill:#FFFFFF;}
	.st2{fill:#FFFFFF;stroke:#FFFFFF;}
</style>
<g>
	<path class="st0" d="M11.5,3.8c1.2-1.9,3.9-1.9,5,0L27.4,21c1.2,2-0.2,4.6-2.5,4.6H14H3.2c-2.3,0-3.8-2.6-2.5-4.6L11.5,3.8z"/>
	<path class="st1" d="M11.8,10.2c-0.2-1.3,0.8-2.6,2.2-2.6l0,0c1.4,0,2.4,1.2,2.2,2.6l-0.7,4.3c-0.1,0.7-0.8,1.3-1.5,1.3l0,0
		c-0.7,0-1.4-0.5-1.5-1.3L11.8,10.2z"/>
	<circle class="st2" cx="14" cy="19.9" r="1.5"/>
</g>
</svg>
