<svg width="24" height="24" viewBox="0 0 24 24" fill="none" xmlns="http://www.w3.org/2000/svg">
<path d="M20.5555 4H3.44447C1.7751 4 0 4.90703 0 7.44447V16.5537C0 19.0911 1.78066 19.9981 3.44447 19.9981H20.5555C23.093 19.9981 24 18.2175 24 16.5537V7.43891C23.9944 4.90146 22.2193 4 20.5555 4ZM20.5555 18.8852H3.44447C2.5764 18.8852 1.11291 18.5847 1.11291 16.5537V12.1799H22.8815L22.8871 16.5537C22.8871 17.4217 22.5866 18.8852 20.5555 18.8852ZM1.11291 11.0726V8.55182H22.8815L22.8871 11.0726H1.11291ZM1.11291 7.43891C1.11291 5.4134 2.57083 5.10735 3.44447 5.10735H20.5555C21.4236 5.10735 22.8871 5.40784 22.8871 7.43891H1.11291V7.43891Z" fill="white"/>
</svg>
