<svg width="248" height="88" viewBox="0 0 248 88" fill="none" xmlns="http://www.w3.org/2000/svg">
<rect width="248" height="88" rx="24" fill="#FCAB10"/>
<rect x="28" y="28" width="191" height="37" rx="5" fill="#FCAB10" stroke="white" stroke-width="2"/>
<path d="M45 62.5C45 53.3873 52.3873 46 61.5 46H185.5C194.613 46 202 53.3873 202 62.5V62.5C202 71.6127 194.613 79 185.5 79H61.5C52.3873 79 45 71.6127 45 62.5V62.5Z" fill="#FCAB10"/>
<path d="M87 27C87 20.3726 92.3726 15 99 15H180C186.627 15 192 20.3726 192 27V27C192 33.6274 186.627 39 180 39H99C92.3726 39 87 33.6274 87 27V27Z" fill="#F5F5F5"/>
<g clip-path="url(#clip0)">
<path d="M110.892 23.6C110.842 23.6 110.842 23.6 110.842 23.6C110.336 23.6 109.83 23.6 109.374 23.6C109.323 23.6 109.273 23.6 109.273 23.55C108.919 22.9 108.412 22.45 107.704 22.25C106.692 22 105.882 22.3 105.173 23.05C104.768 23.5 104.566 24.05 104.566 24.65C104.566 25.1 104.667 25.5 104.869 25.9C105.274 26.55 105.831 27 106.59 27.1C107.552 27.25 108.362 26.95 108.969 26.15C109.07 26.05 109.121 25.9 109.222 25.75C109.222 25.7 109.273 25.7 109.323 25.7C109.83 25.7 110.336 25.7 110.842 25.7C110.892 25.7 110.892 25.7 110.892 25.75C110.69 26.5 110.285 27.15 109.678 27.65C109.07 28.15 108.412 28.5 107.603 28.6C106.692 28.7 105.781 28.6 104.971 28.1C103.908 27.45 103.25 26.5 103.047 25.3C102.896 24.2 103.098 23.15 103.807 22.25C104.262 21.7 104.768 21.2 105.426 20.95C105.781 20.8 106.135 20.7 106.54 20.7C107.096 20.65 107.653 20.65 108.21 20.85C109.323 21.2 110.133 21.9 110.639 22.95C110.741 23.15 110.791 23.35 110.892 23.6Z" fill="#CD3B2E"/>
<path d="M117.928 28.1C117.877 28.1 117.877 28.15 117.877 28.15C117.523 28.4 117.118 28.55 116.713 28.65C116.359 28.7 116.005 28.75 115.65 28.7C114.992 28.6 114.486 28.35 114.233 27.7C114.132 27.4 114.081 27.1 114.132 26.8C114.132 26.55 114.182 26.3 114.284 26.05C114.486 25.6 114.84 25.3 115.296 25.1C115.65 24.95 116.005 24.9 116.359 24.85C116.713 24.8 117.067 24.75 117.422 24.7C117.675 24.65 117.877 24.4 117.827 24.1C117.776 23.85 117.675 23.7 117.422 23.6C117.118 23.5 116.865 23.5 116.561 23.55C116.46 23.55 116.359 23.6 116.258 23.6C116.005 23.7 115.853 23.95 115.751 24.2V24.25C115.701 24.4 115.701 24.4 115.6 24.4C115.144 24.4 114.689 24.4 114.233 24.4C114.182 24.4 114.182 24.4 114.182 24.35C114.182 24.15 114.233 23.95 114.284 23.75C114.486 23 114.992 22.55 115.701 22.35C116.207 22.2 116.663 22.2 117.169 22.25C117.624 22.25 118.08 22.4 118.485 22.6C118.991 22.85 119.244 23.25 119.345 23.75C119.396 23.9 119.396 24.05 119.396 24.2C119.396 25.7 119.396 27.15 119.396 28.65C119.396 28.7 119.396 28.75 119.294 28.75C118.839 28.75 118.333 28.75 117.877 28.75C117.827 28.75 117.827 28.75 117.827 28.7C117.827 28.55 117.827 28.35 117.827 28.2C117.978 28.1 117.978 28.1 117.928 28.1ZM117.877 25.55C117.827 25.6 117.776 25.6 117.776 25.6C117.725 25.65 117.624 25.7 117.574 25.7C117.27 25.75 117.017 25.85 116.713 25.9C116.511 25.95 116.359 25.95 116.207 26.05C115.954 26.15 115.802 26.35 115.751 26.6C115.701 26.75 115.701 26.85 115.751 27C115.802 27.3 116.005 27.55 116.308 27.6C116.764 27.7 117.169 27.55 117.523 27.3C117.776 27.15 117.827 26.85 117.877 26.6C117.928 26.25 117.877 25.9 117.877 25.55Z" fill="#CD3B2E"/>
<path d="M124.305 25.45C124.305 23.85 125.469 22.75 126.482 22.4C128.455 21.75 130.328 22.95 130.733 24.75C130.936 25.75 130.784 26.65 130.176 27.45C129.67 28.1 129.012 28.55 128.202 28.7C127.14 28.9 126.178 28.65 125.419 27.9C124.963 27.45 124.609 26.95 124.457 26.35C124.356 26.05 124.305 25.75 124.305 25.45ZM127.544 23.8C126.583 23.75 125.824 24.65 125.824 25.5C125.824 26.3 126.482 27.2 127.544 27.2C128.607 27.2 129.265 26.3 129.265 25.5C129.265 24.55 128.557 23.75 127.544 23.8Z" fill="#CD3B2E"/>
<path d="M125.52 31.85C125.52 31.8 125.52 31.8 125.52 31.75C125.52 31.15 125.52 30.5 125.52 29.9C125.52 29.85 125.52 29.85 125.621 29.85C125.975 29.85 126.279 29.85 126.633 29.85C126.684 29.85 126.684 29.85 126.684 29.9C126.684 31.9 126.684 33.9 126.684 35.9C126.684 35.95 126.684 35.95 126.633 35.95C126.33 35.95 125.975 35.95 125.672 35.95C125.621 35.95 125.621 35.95 125.621 35.9C125.621 35.8 125.621 35.7 125.621 35.55H125.57C125.267 35.85 124.913 36 124.457 36C124.255 36 124.052 35.95 123.85 35.9C123.394 35.75 123.141 35.4 122.989 34.95C122.939 34.75 122.888 34.55 122.888 34.3C122.888 33.75 122.837 33.25 122.939 32.7C122.989 32.5 123.04 32.3 123.09 32.1C123.242 31.75 123.495 31.55 123.85 31.45C124.305 31.3 124.71 31.3 125.166 31.5C125.317 31.65 125.419 31.75 125.52 31.85ZM125.52 33.7C125.52 33.65 125.52 33.65 125.52 33.6C125.52 33.35 125.52 33.05 125.419 32.8C125.317 32.6 125.216 32.5 125.014 32.45C124.963 32.45 124.862 32.4 124.811 32.4C124.508 32.4 124.255 32.5 124.103 32.85C124.052 33.05 124.001 33.25 124.001 33.45C124.001 33.75 124.001 34.05 124.052 34.35C124.103 34.7 124.305 34.95 124.71 34.95C125.064 34.95 125.317 34.8 125.419 34.5C125.52 34.25 125.52 34 125.52 33.7Z" fill="black"/>
<path d="M122.028 23.3C122.179 23.1 122.281 23 122.432 22.85C122.736 22.6 123.09 22.4 123.495 22.3C123.698 22.25 123.9 22.25 124.103 22.2C124.153 22.2 124.153 22.25 124.153 22.25C124.153 22.55 124.153 22.9 124.153 23.2C124.153 23.35 124.153 23.55 124.153 23.7C124.153 23.75 124.153 23.75 124.103 23.75C123.951 23.75 123.799 23.7 123.597 23.75C123.343 23.75 123.141 23.85 122.939 23.95C122.534 24.2 122.23 24.5 122.129 25C122.078 25.2 122.078 25.45 122.078 25.65C122.078 26.6 122.078 27.6 122.078 28.55C122.078 28.6 122.078 28.65 121.977 28.65C121.521 28.65 121.066 28.65 120.61 28.65C120.56 28.65 120.56 28.65 120.56 28.6C120.56 26.6 120.56 24.6 120.56 22.55C120.56 22.5 120.56 22.5 120.61 22.5C121.066 22.5 121.521 22.5 121.977 22.5C122.028 22.5 122.028 22.5 122.028 22.55C122.028 22.85 122.028 23.05 122.028 23.3Z" fill="#CD3B2E"/>
<path d="M113.221 24.65C113.221 25.95 113.221 27.3 113.221 28.6C113.221 28.65 113.221 28.7 113.12 28.7C112.664 28.7 112.209 28.7 111.702 28.7C111.652 28.7 111.601 28.7 111.601 28.6C111.601 25.95 111.601 23.35 111.601 20.7C111.601 20.65 111.601 20.6 111.702 20.6C112.158 20.6 112.664 20.6 113.12 20.6C113.17 20.6 113.17 20.6 113.17 20.7C113.221 22.05 113.221 23.35 113.221 24.65Z" fill="#CD3B2E"/>
<path d="M130.075 34.05C129.62 34.05 129.164 34.05 128.709 34.05C128.658 34.05 128.658 34.05 128.658 34.1C128.658 34.55 128.911 34.9 129.316 34.95C129.771 35.05 130.227 35 130.581 34.65C130.682 34.55 130.682 34.55 130.733 34.65C130.936 34.85 131.087 35 131.29 35.2C131.34 35.25 131.34 35.25 131.29 35.25C130.986 35.55 130.581 35.8 130.126 35.9C129.67 35.95 129.215 35.95 128.759 35.8C128.253 35.65 127.899 35.3 127.696 34.8C127.393 34 127.393 33.2 127.696 32.45C128 31.75 128.557 31.4 129.316 31.35C129.62 31.35 129.974 31.35 130.227 31.5C130.784 31.75 131.138 32.2 131.29 32.75C131.34 33 131.391 33.25 131.391 33.5C131.391 33.65 131.391 33.8 131.391 33.95C131.391 34 131.391 34 131.34 34C130.986 34.05 130.531 34.05 130.075 34.05ZM129.518 33.3C129.771 33.3 130.075 33.3 130.328 33.3C130.379 33.3 130.379 33.3 130.379 33.25C130.379 33.1 130.328 33 130.278 32.9C130.075 32.3 129.366 32.3 129.012 32.5C128.759 32.7 128.658 32.95 128.658 33.25C128.658 33.3 128.658 33.3 128.709 33.3C128.962 33.3 129.265 33.3 129.518 33.3Z" fill="black"/>
<path d="M135.997 33.7C135.997 34.05 135.997 34.4 135.896 34.7C135.744 35.3 135.339 35.7 134.732 35.9C134.225 36.05 133.719 36.05 133.213 35.8C132.656 35.55 132.353 35.15 132.251 34.55C132.15 34.1 132.15 33.65 132.201 33.2C132.201 32.95 132.251 32.65 132.403 32.4C132.656 31.85 133.112 31.55 133.719 31.4C134.074 31.35 134.478 31.35 134.833 31.45C135.44 31.65 135.845 32.1 135.997 32.75C135.997 33.1 135.997 33.4 135.997 33.7ZM133.314 33.7C133.314 33.95 133.314 34.15 133.365 34.4C133.466 34.9 133.82 35.1 134.276 35C134.58 34.95 134.732 34.7 134.833 34.45C134.934 34 134.934 33.55 134.833 33.1C134.782 32.85 134.681 32.65 134.428 32.55C134.225 32.45 134.074 32.45 133.871 32.5C133.567 32.6 133.416 32.8 133.365 33.05C133.314 33.25 133.264 33.45 133.314 33.7Z" fill="black"/>
<path d="M116.106 31.45C116.258 31.45 116.409 31.45 116.511 31.45C116.764 31.45 116.966 31.45 117.219 31.45C117.27 31.45 117.32 31.45 117.32 31.55C117.624 32.4 117.877 33.3 118.181 34.15V34.2C118.232 34.2 118.181 34.15 118.232 34.15C118.535 33.3 118.788 32.4 119.092 31.5C119.092 31.45 119.143 31.45 119.193 31.45C119.547 31.45 119.902 31.45 120.256 31.45C120.357 31.45 120.357 31.45 120.307 31.5C119.851 32.75 119.345 34.05 118.89 35.3C118.839 35.5 118.738 35.65 118.687 35.85C118.687 35.9 118.636 35.9 118.636 35.9C118.383 35.9 118.13 35.9 117.877 35.9C117.827 35.9 117.827 35.9 117.776 35.85C117.422 34.95 117.118 34.05 116.764 33.15C116.561 32.6 116.359 32.05 116.156 31.55C116.156 31.5 116.156 31.5 116.106 31.45Z" fill="black"/>
<path d="M131.087 22.5C131.087 22.45 131.037 22.45 131.087 22.5C130.733 22.15 130.429 21.85 130.126 21.55C130.075 21.5 130.126 21.5 130.126 21.45L130.176 21.4C131.391 20.2 132.606 19 133.77 17.8C133.82 17.75 133.82 17.75 133.871 17.8C134.175 18.1 134.478 18.4 134.782 18.7C134.833 18.75 134.833 18.75 134.782 18.8C133.567 20 132.353 21.2 131.087 22.5C131.087 22.45 131.138 22.45 131.087 22.5Z" fill="#CD3B2E"/>
<path d="M133.82 24C134.478 24 135.136 24 135.794 24C135.845 24 135.845 24 135.845 24.05C135.845 24.45 135.845 24.9 135.845 25.3C135.845 25.35 135.845 25.35 135.794 25.35C134.478 25.35 133.112 25.35 131.796 25.35C131.745 25.35 131.745 25.35 131.745 25.3C131.745 24.9 131.745 24.45 131.745 24.05C131.745 24 131.745 24 131.796 24C132.505 24 133.163 24 133.82 24Z" fill="#CD3B2E"/>
<path d="M127.038 19C127.038 18.35 127.038 17.7 127.038 17.1C127.038 17.05 127.038 17 127.089 17C127.494 17 127.899 17 128.354 17C128.405 17 128.405 17 128.405 17.05C128.405 18.35 128.405 19.6 128.405 20.9C128.405 20.95 128.405 20.95 128.354 20.95C127.949 20.95 127.494 20.95 127.089 20.95C127.038 20.95 127.038 20.95 127.038 20.9C127.038 20.3 127.038 19.65 127.038 19Z" fill="#CD3B2E"/>
<path d="M120.863 33.7C120.863 33 120.863 32.25 120.863 31.55C120.863 31.5 120.863 31.45 120.914 31.45C121.268 31.45 121.572 31.45 121.926 31.45C121.977 31.45 121.977 31.45 121.977 31.5C121.977 32.95 121.977 34.4 121.977 35.85C121.977 35.9 121.977 35.9 121.926 35.9C121.572 35.9 121.268 35.9 120.914 35.9C120.863 35.9 120.863 35.9 120.863 35.85C120.863 35.15 120.863 34.4 120.863 33.7Z" fill="black"/>
<path d="M120.712 30.2C120.712 29.8 121.015 29.5 121.42 29.5C121.825 29.5 122.129 29.8 122.129 30.2C122.129 30.6 121.825 30.9 121.42 30.9C121.015 30.9 120.712 30.6 120.712 30.2Z" fill="black"/>
</g>
<path d="M153.658 23.5771C153.418 23.5771 153.179 23.5771 152.939 23.5771C152.891 23.5771 152.891 23.5771 152.843 23.5269C152.508 22.8742 152.077 22.4224 151.406 22.2717C150.543 22.0207 149.777 22.2717 149.154 22.9244C148.818 23.2759 148.579 23.7277 148.483 24.2298C148.339 25.234 148.627 26.0373 149.393 26.6397C150.112 27.2422 151.214 27.2924 152.029 26.7402C152.364 26.4891 152.652 26.1879 152.843 25.7862C152.891 25.736 152.891 25.736 152.939 25.736C153.418 25.736 153.85 25.736 154.329 25.736C154.377 25.736 154.377 25.736 154.377 25.7862C154.137 26.5895 153.754 27.2422 153.131 27.7945C152.652 28.2464 152.077 28.4974 151.454 28.5978C150.495 28.7484 149.633 28.648 148.818 28.0957C147.86 27.4431 147.237 26.5393 147.045 25.3344C146.901 24.2298 147.093 23.2257 147.716 22.322C148.147 21.7195 148.674 21.2174 149.345 20.9664C149.729 20.8157 150.112 20.7153 150.543 20.7153C150.974 20.7153 151.406 20.7153 151.837 20.866C152.795 21.2174 153.562 21.8199 154.041 22.7738C154.185 23.0248 154.281 23.3261 154.377 23.5771C154.377 23.6273 154.377 23.6273 154.329 23.6273C154.137 23.5771 153.897 23.5771 153.658 23.5771Z" fill="#CD3B2E"/>
<path d="M161.133 28.0455C160.941 28.2464 160.702 28.3468 160.462 28.4472C159.983 28.648 159.504 28.6982 158.977 28.648C158.641 28.5978 158.306 28.4974 158.018 28.2464C157.731 27.9451 157.587 27.5937 157.539 27.1418C157.539 26.8406 157.539 26.5393 157.587 26.2381C157.731 25.6858 158.066 25.3344 158.545 25.1335C158.881 24.9829 159.216 24.9327 159.552 24.8825C159.935 24.8323 160.27 24.7821 160.654 24.6817C160.893 24.6315 161.085 24.3804 161.037 24.029C160.989 23.8281 160.893 23.6775 160.702 23.6273C160.558 23.5771 160.414 23.5269 160.27 23.5269C160.079 23.5269 159.935 23.5269 159.743 23.5269C159.456 23.5771 159.264 23.7779 159.12 24.0792C159.12 24.1294 159.072 24.1796 159.072 24.28C159.072 24.3302 159.025 24.3804 158.977 24.3804C158.545 24.3804 158.114 24.3804 157.635 24.3804C157.587 24.3804 157.587 24.3804 157.587 24.3302C157.587 24.1294 157.635 23.8784 157.683 23.6775C157.874 23.0248 158.306 22.573 158.929 22.3721C159.168 22.2717 159.456 22.2215 159.743 22.2215C160.27 22.1713 160.797 22.2215 161.325 22.3721C161.468 22.4224 161.612 22.4726 161.804 22.573C162.235 22.7738 162.427 23.1252 162.523 23.6273C162.57 23.8281 162.57 23.9788 162.57 24.1796C162.57 25.6356 162.57 27.1418 162.57 28.5978C162.57 28.648 162.57 28.6982 162.475 28.6982C162.043 28.6982 161.612 28.6982 161.133 28.6982C161.085 28.6982 161.037 28.6982 161.085 28.5978C161.133 28.4472 161.133 28.2464 161.133 28.0455ZM161.037 25.5352C160.941 25.5854 160.845 25.6858 160.75 25.6858C160.51 25.7862 160.222 25.8364 159.983 25.8866C159.791 25.9368 159.647 25.9368 159.456 26.0372C159.216 26.1377 159.072 26.2883 159.025 26.5895C158.977 26.6899 158.977 26.8406 159.025 26.941C159.072 27.2924 159.264 27.4932 159.552 27.5435C159.743 27.5937 159.935 27.5937 160.127 27.4932C160.75 27.2924 160.941 26.9912 161.037 26.4891C161.085 26.1879 161.037 25.8866 161.037 25.5352Z" fill="#CD3B2E"/>
<path d="M170.141 28.6982C169.231 28.6982 168.512 28.3468 167.937 27.6439C167.458 27.0916 167.171 26.4891 167.123 25.736C167.027 24.4808 167.506 23.4767 168.464 22.7738C168.896 22.4224 169.375 22.2717 169.95 22.2215C170.381 22.1713 170.86 22.2215 171.244 22.4224C172.298 22.8742 172.969 23.6775 173.208 24.8825C173.352 25.7862 173.208 26.6397 172.729 27.3426C172.25 28.0455 171.627 28.4974 170.812 28.648C170.525 28.6982 170.333 28.6982 170.141 28.6982ZM170.141 23.778C169.231 23.7277 168.512 24.5813 168.512 25.485C168.512 26.3385 169.183 27.192 170.141 27.192C171.1 27.192 171.771 26.3385 171.771 25.485C171.771 24.5311 171.052 23.7277 170.141 23.778Z" fill="#CD3B2E"/>
<path d="M154.472 31.9617C154.664 31.7608 154.856 31.6604 155.095 31.56C155.527 31.4094 155.91 31.4596 156.293 31.6604C156.437 31.7608 156.533 31.8613 156.677 32.0119C156.724 32.0621 156.724 32.0621 156.772 32.0119C157.012 31.7608 157.299 31.56 157.635 31.5098C158.018 31.4596 158.354 31.4596 158.737 31.6102C159.168 31.811 159.408 32.2127 159.504 32.7148C159.552 32.8654 159.552 33.016 159.552 33.1666C159.552 34.0704 159.552 35.0243 159.552 35.928C159.552 35.9782 159.552 36.0284 159.504 35.9782C159.216 35.9782 158.881 35.9782 158.593 35.9782C158.545 35.9782 158.545 35.9782 158.545 35.928C158.545 35.0243 158.545 34.1708 158.545 33.267C158.545 33.1164 158.545 32.9658 158.45 32.8654C158.354 32.6144 158.066 32.4637 157.827 32.4637C157.587 32.4637 157.395 32.5641 157.252 32.765C157.156 32.9156 157.108 33.0662 157.108 33.2168C157.108 34.1206 157.108 34.9741 157.108 35.8778C157.108 35.928 157.108 35.9782 157.012 35.9782C156.724 35.9782 156.389 35.9782 156.102 35.9782C156.054 35.9782 156.054 35.9782 156.054 35.928C156.054 35.0243 156.054 34.1708 156.054 33.267C156.054 33.1164 156.054 32.9658 155.958 32.8152C155.814 32.5641 155.622 32.4637 155.383 32.4637C155.095 32.4637 154.904 32.5641 154.76 32.8152C154.664 32.9658 154.664 33.1164 154.664 33.267C154.664 34.1206 154.664 35.0243 154.664 35.8778C154.664 35.928 154.664 35.928 154.616 35.928C154.281 35.928 153.993 35.928 153.658 35.928C153.61 35.928 153.61 35.928 153.61 35.8778C153.61 34.4218 153.61 32.9658 153.61 31.5098C153.61 31.4596 153.61 31.4596 153.658 31.4596C153.945 31.4596 154.281 31.4596 154.568 31.4596C154.616 31.4596 154.616 31.4596 154.616 31.5098C154.472 31.7106 154.472 31.8613 154.472 31.9617Z" fill="black"/>
<path d="M164.966 23.2758C165.062 23.1754 165.11 23.1252 165.158 23.0248C165.493 22.6734 165.877 22.4223 166.308 22.3219C166.5 22.2717 166.691 22.2215 166.883 22.2215C166.931 22.2215 166.931 22.2215 166.931 22.2717C166.931 22.7738 166.931 23.2256 166.931 23.7277C166.931 23.7779 166.931 23.7779 166.883 23.7779C166.691 23.7779 166.548 23.7277 166.356 23.7779C166.116 23.7779 165.877 23.8783 165.685 24.0289C165.637 24.0792 165.541 24.1294 165.493 24.1796C165.206 24.4306 165.062 24.782 165.014 25.1837C165.014 25.3845 164.966 25.5854 164.966 25.7862C164.966 26.7401 164.966 27.6438 164.966 28.5978C164.966 28.648 164.966 28.648 164.87 28.648C164.439 28.648 164.008 28.648 163.529 28.648C163.481 28.648 163.481 28.648 163.481 28.5978C163.481 26.5895 163.481 24.5812 163.481 22.5729C163.481 22.5227 163.481 22.5227 163.529 22.5227C163.96 22.5227 164.391 22.5227 164.775 22.5227C164.823 22.5227 164.87 22.5227 164.87 22.6232C164.966 22.824 164.966 23.075 164.966 23.2758Z" fill="#CD3B2E"/>
<path d="M155.191 24.6817C155.191 23.3763 155.191 22.0709 155.191 20.7655C155.191 20.7153 155.191 20.6651 155.287 20.6651C155.718 20.6651 156.149 20.6651 156.629 20.6651C156.677 20.6651 156.724 20.6651 156.724 20.7153C156.724 23.3261 156.724 25.987 156.724 28.5978C156.724 28.648 156.724 28.6982 156.677 28.6982C156.245 28.6982 155.766 28.6982 155.335 28.6982C155.287 28.6982 155.287 28.6982 155.287 28.5978C155.191 27.2924 155.191 25.987 155.191 24.6817Z" fill="#CD3B2E"/>
<path d="M176.946 35.6267C176.85 35.7271 176.754 35.8275 176.61 35.8777C176.419 36.0284 176.227 36.0786 175.987 36.0786C175.748 36.0786 175.508 36.0786 175.269 35.9782C174.789 35.8275 174.55 35.4761 174.454 34.974C174.406 34.7732 174.406 34.5222 174.502 34.3213C174.598 33.9699 174.789 33.7189 175.125 33.5682C175.412 33.4176 175.652 33.4176 175.987 33.4176C176.275 33.4176 176.61 33.4176 176.898 33.4176C176.946 33.4176 176.946 33.4176 176.946 33.3674C176.946 33.267 176.946 33.1164 176.946 33.016C176.898 32.7649 176.754 32.5641 176.514 32.5139C176.275 32.4637 176.035 32.4637 175.844 32.5139C175.652 32.5641 175.508 32.6645 175.412 32.8151C175.364 32.8653 175.364 32.8653 175.317 32.8151C175.125 32.6143 174.933 32.4135 174.694 32.2126C174.646 32.1624 174.646 32.1624 174.694 32.1122C174.981 31.811 175.317 31.6102 175.748 31.56C176.131 31.5097 176.514 31.5097 176.898 31.6102C177.281 31.7106 177.617 31.9114 177.808 32.2629C177.952 32.5139 178 32.7649 178 33.0662C178 34.0201 178 34.974 178 35.9782C178 36.0284 178 36.0786 177.904 36.0786C177.617 36.0786 177.329 36.0786 176.994 36.0786C176.946 36.0786 176.946 36.0786 176.946 36.0284C176.946 35.8777 176.946 35.7773 176.946 35.6267ZM176.898 34.3715C176.898 34.3213 176.898 34.2711 176.898 34.2209C176.898 34.1707 176.898 34.1707 176.85 34.1707C176.61 34.1707 176.323 34.1707 176.083 34.1707C175.987 34.1707 175.939 34.1707 175.844 34.2209C175.604 34.2711 175.508 34.4217 175.46 34.6728C175.46 34.9238 175.556 35.0744 175.796 35.1749C176.035 35.2753 176.275 35.2251 176.514 35.1749C176.754 35.1246 176.898 34.9238 176.898 34.6728C176.898 34.5222 176.898 34.4217 176.898 34.3715Z" fill="black"/>
<path d="M162.906 35.6268C162.475 36.0786 161.947 36.179 161.372 36.0284C160.845 35.8778 160.558 35.5263 160.462 34.9741C160.414 34.8234 160.414 34.6226 160.414 34.472C160.414 33.5181 160.414 32.6143 160.414 31.6604C160.414 31.6102 160.414 31.56 160.51 31.56C160.797 31.56 161.133 31.56 161.42 31.56C161.468 31.56 161.468 31.56 161.468 31.6102C161.468 32.5139 161.468 33.3674 161.468 34.2712C161.468 34.5222 161.516 34.723 161.66 34.8737C161.804 35.0243 161.995 35.0745 162.187 35.0745C162.427 35.0745 162.618 34.9741 162.762 34.7732C162.858 34.6728 162.858 34.5222 162.906 34.3716C162.906 34.221 162.906 34.1205 162.906 33.9699C162.906 33.2168 162.906 32.4135 162.906 31.6604C162.906 31.6102 162.906 31.6102 162.954 31.6102C163.241 31.6102 163.577 31.6102 163.864 31.6102C163.912 31.6102 163.912 31.6102 163.912 31.6604C163.912 33.1164 163.912 34.5724 163.912 35.9782C163.912 36.0284 163.912 36.0284 163.864 36.0284C163.577 36.0284 163.241 36.0284 162.954 36.0284C162.906 36.0284 162.906 36.0284 162.906 35.9782C162.906 35.8276 162.906 35.7272 162.906 35.6268Z" fill="black"/>
<path d="M166.308 36.0786C165.829 36.0786 165.446 36.0284 165.11 35.8778C164.918 35.7774 164.727 35.6268 164.583 35.4761C164.535 35.4259 164.535 35.4259 164.583 35.4259C164.775 35.2251 165.014 34.9741 165.206 34.7732C165.206 34.7732 165.254 34.723 165.254 34.7732C165.493 34.9741 165.733 35.1247 166.021 35.1247C166.26 35.1749 166.548 35.1749 166.787 35.0745C166.883 35.0243 166.979 34.9741 167.075 34.8737C167.218 34.6226 167.123 34.3214 166.835 34.2712C166.643 34.221 166.452 34.221 166.26 34.221C166.021 34.1708 165.781 34.1708 165.541 34.1205C165.014 33.9699 164.727 33.5683 164.727 33.016C164.727 32.3633 165.062 31.8612 165.685 31.6604C165.973 31.56 166.26 31.56 166.548 31.56C166.883 31.56 167.218 31.6102 167.554 31.7608C167.698 31.811 167.841 31.9114 167.985 32.0621C168.033 32.0621 168.033 32.1123 167.985 32.1123C167.793 32.3131 167.602 32.5139 167.41 32.7148C167.41 32.765 167.362 32.765 167.362 32.7148C167.171 32.5641 166.931 32.4637 166.691 32.4637C166.5 32.4637 166.356 32.4135 166.164 32.4637C166.068 32.4637 166.021 32.5139 165.973 32.5641C165.829 32.6645 165.781 32.8152 165.829 32.9658C165.877 33.1164 166.021 33.2168 166.164 33.2168C166.404 33.267 166.643 33.267 166.931 33.3172C167.171 33.3172 167.362 33.3674 167.602 33.4679C167.985 33.6687 168.177 33.9699 168.225 34.3716C168.273 34.6226 168.225 34.8737 168.177 35.1247C168.033 35.5263 167.746 35.7774 167.362 35.928C166.931 36.0284 166.596 36.0786 166.308 36.0786Z" fill="black"/>
<path d="M170.764 33.8193C170.764 33.3674 170.812 32.9657 171.004 32.5641C171.244 32.0118 171.675 31.6604 172.298 31.56C172.681 31.5097 173.064 31.5097 173.4 31.6102C173.687 31.7106 173.879 31.8612 174.071 32.062C174.119 32.1122 174.071 32.1122 174.071 32.1122C173.831 32.3633 173.639 32.5641 173.4 32.8151C173.352 32.8653 173.352 32.8151 173.352 32.8151C173.208 32.6645 173.112 32.5641 172.921 32.5139C172.441 32.4135 172.058 32.6645 171.914 33.1666C171.819 33.5682 171.819 33.9699 171.914 34.3715C172.01 34.723 172.202 34.9238 172.489 35.0242C172.777 35.0744 173.064 35.0242 173.304 34.7732C173.4 34.6728 173.4 34.6728 173.448 34.7732C173.639 34.974 173.831 35.1749 174.023 35.3757C174.071 35.4259 174.071 35.4259 174.023 35.4761C173.639 35.8777 173.16 36.0284 172.633 36.0284C172.25 36.0284 171.914 35.928 171.627 35.7271C171.244 35.4761 171.004 35.0744 170.86 34.6226C170.812 34.3715 170.764 34.0703 170.764 33.8193Z" fill="black"/>
<path d="M173.496 22.4726C173.448 22.4726 173.448 22.4726 173.496 22.4726C173.16 22.1211 172.873 21.8199 172.585 21.5186C172.537 21.4684 172.585 21.4684 172.585 21.4182C173.112 20.866 173.639 20.3137 174.167 19.7614C174.789 19.1087 175.412 18.456 176.035 17.8033C176.083 17.7531 176.083 17.7531 176.131 17.8033C176.419 18.1046 176.706 18.4058 176.946 18.7071C176.994 18.7573 176.994 18.7573 176.946 18.8075C175.844 20.0124 174.694 21.2174 173.496 22.4726C173.496 22.4726 173.496 22.4224 173.496 22.4726Z" fill="#CD3B2E"/>
<path d="M176.083 25.3846C175.46 25.3846 174.837 25.3846 174.214 25.3846C174.167 25.3846 174.119 25.3846 174.119 25.2841C174.119 24.8825 174.119 24.4808 174.119 24.029C174.119 23.9788 174.119 23.9788 174.167 23.9788C175.412 23.9788 176.658 23.9788 177.904 23.9788C177.952 23.9788 177.952 23.9788 177.952 24.029C177.952 24.4306 177.952 24.8323 177.952 25.2841C177.952 25.3343 177.952 25.3343 177.904 25.3343C177.329 25.3846 176.706 25.3846 176.083 25.3846Z" fill="#CD3B2E"/>
<path d="M169.662 19.0083C169.662 18.3556 169.662 17.7531 169.662 17.1004C169.662 17 169.71 17 169.758 17C170.141 17 170.525 17 170.956 17C171.004 17 171.004 17 171.004 17.0502C171.004 18.3556 171.004 19.6108 171.004 20.9161C171.004 20.9663 171.004 20.9663 170.956 20.9663C170.573 20.9663 170.189 20.9663 169.758 20.9663C169.71 20.9663 169.71 20.9663 169.71 20.9161C169.662 20.2634 169.662 19.6108 169.662 19.0083Z" fill="#CD3B2E"/>
<path d="M168.896 33.7691C168.896 33.0662 168.896 32.3131 168.896 31.6102C168.896 31.56 168.896 31.56 168.943 31.56C169.279 31.56 169.566 31.56 169.902 31.56C169.95 31.56 169.95 31.56 169.95 31.6102C169.95 33.0662 169.95 34.5222 169.95 35.928C169.95 35.9782 169.95 35.9782 169.902 35.9782C169.566 35.9782 169.279 35.9782 168.943 35.9782C168.896 35.9782 168.896 35.9782 168.896 35.928C168.896 35.2251 168.896 34.5222 168.896 33.7691Z" fill="black"/>
<path d="M169.423 31.0077C169.039 31.0077 168.752 30.7065 168.752 30.3048C168.752 29.9032 169.039 29.6019 169.423 29.6019C169.806 29.6019 170.094 29.9032 170.094 30.3048C170.094 30.7065 169.806 31.0077 169.423 31.0077Z" fill="black"/>
<path d="M161.708 30.8571C161.756 30.7065 161.804 30.5559 161.9 30.3551C161.995 30.0538 162.139 29.7526 162.235 29.4513C162.235 29.4011 162.235 29.4011 162.283 29.4011C162.618 29.4011 163.002 29.4011 163.337 29.4011C163.337 29.4011 163.337 29.4513 163.289 29.4513C163.002 29.9032 162.714 30.3551 162.427 30.8069C162.427 30.8571 162.379 30.8571 162.331 30.8571C162.139 30.8571 161.9 30.8571 161.708 30.8571Z" fill="black"/>
<g clip-path="url(#clip1)">
<path d="M68.5 14.9995C62.2828 14.8782 57.1438 19.8061 57 26.0233C57.018 29.1858 58.415 32.1821 60.8318 34.226V37.5233C60.8318 37.7883 61.0475 38.004 61.3125 38.004C61.4023 38.004 61.4922 37.977 61.5686 37.9321L64.2414 36.2655C65.6025 36.7866 67.049 37.0516 68.5045 37.0471C74.7217 37.1684 79.8607 32.2405 80.0045 26.0278C79.8562 19.8061 74.7172 14.8782 68.5 14.9995Z" fill="#2196F3"/>
<path d="M76.0693 22.8613C75.9256 22.6681 75.665 22.6142 75.4539 22.7265L70.4721 25.4443L67.3725 22.7849C67.1838 22.6232 66.9008 22.6322 66.7211 22.8119L60.9711 28.5619C60.7824 28.7506 60.7869 29.0515 60.9711 29.2402C61.1193 29.3885 61.3529 29.4244 61.5371 29.3211L66.5234 26.6033L69.6275 29.2627C69.8162 29.4244 70.0992 29.4154 70.2789 29.2357L76.0289 23.4857C76.1951 23.315 76.2131 23.05 76.0693 22.8613Z" fill="#FAFAFA"/>
</g>
<path d="M81.8014 35.7308L76.5803 37.4651L75 38L77.2155 31.1276C76.8437 30.4144 76.5493 29.6526 76.3324 28.8584C76.0845 27.902 75.9451 26.9133 75.9451 25.9246C75.9451 23.007 77.0606 20.2516 79.0282 18.1931C81.0113 16.1346 83.6761 15 86.4648 15C89.2535 15 91.9183 16.1346 93.9014 18.1931C95.9 20.2678 97 23.0395 97 25.9408C97 28.8584 95.8845 31.6138 93.9169 33.6723C91.9338 35.7308 89.269 36.8654 86.4803 36.8654C85.5972 36.8654 84.7141 36.7519 83.8465 36.525C83.1493 36.3467 82.4521 36.0712 81.8014 35.7308Z" fill="#EEEEEE"/>
<path d="M96.1634 25.9408C96.1634 23.1691 95.0789 20.6568 93.3282 18.8252C91.5775 17.0099 89.1606 15.8915 86.4803 15.8915C83.8 15.8915 81.3831 17.0099 79.6324 18.8414C77.8817 20.6568 76.7972 23.1691 76.7972 25.9408C76.7972 26.8647 76.9211 27.7724 77.1535 28.6314C77.3859 29.4905 77.7113 30.3009 78.1451 31.0465L76.4718 36.2333L76.3324 36.6385L76.7197 36.5088L81.8789 34.7907C82.5606 35.1797 83.2887 35.4715 84.0634 35.6822C84.838 35.8929 85.6437 36.0063 86.4803 36.0063C89.1606 36.0063 91.5775 34.888 93.3282 33.0564C95.0789 31.241 96.1634 28.7287 96.1634 25.9408Z" fill="#54CC61"/>
<path d="M84.9155 23.2016C84.869 23.1043 84.6211 22.4884 84.4042 21.9211C84.2648 21.5483 84.1254 21.2079 84.0944 21.1431C83.8465 20.5109 83.5521 20.5271 83.3352 20.5433C83.3197 20.5433 83.3042 20.5433 83.2887 20.5433C83.2113 20.5433 83.1338 20.5433 83.0563 20.5271C82.9634 20.5271 82.8549 20.5109 82.762 20.5109C82.638 20.5109 82.4676 20.5433 82.2817 20.6244C82.1423 20.6892 82.0183 20.7865 81.8789 20.9323C81.8634 20.9486 81.8479 20.9648 81.8324 20.981C81.538 21.3051 80.8873 22.0183 80.8873 23.3961C80.8873 24.8386 81.8789 26.2164 82.0338 26.4109C82.0338 26.4109 82.0648 26.4433 82.0958 26.4919C82.4676 27.0592 84.1563 29.6364 86.7282 30.6899C89.0521 31.6462 89.4859 31.5328 89.8578 31.4355C89.9197 31.4193 89.9817 31.4031 90.0592 31.4031C90.369 31.3707 90.8648 31.16 91.2831 30.852C91.6239 30.5927 91.9338 30.2685 92.0577 29.9443C92.1662 29.6364 92.2127 29.3608 92.2437 29.1339C92.2901 28.7935 92.2592 28.5342 92.1972 28.4369C92.1042 28.2911 91.9493 28.21 91.7169 28.0965C91.6704 28.0803 91.6394 28.0479 91.593 28.0317C91.438 27.9507 90.8803 27.6589 90.4155 27.432C90.1056 27.2861 89.8423 27.1564 89.7338 27.1078C89.5789 27.0592 89.4549 27.0106 89.3155 27.0268C89.1606 27.043 89.0211 27.124 88.8817 27.3347C88.8197 27.432 88.6958 27.5941 88.5718 27.7562C88.3704 28.0155 88.138 28.2911 88.0451 28.4045C87.9986 28.4531 87.9676 28.4856 87.9366 28.4856C87.8901 28.4856 87.8127 28.4693 87.7197 28.4207C87.6578 28.3883 87.5958 28.3559 87.5183 28.3235C87.1465 28.1614 86.4183 27.821 85.5972 27.0592C85.3028 26.7837 85.0394 26.4919 84.8225 26.2001C84.4662 25.7463 84.2338 25.3411 84.1408 25.179C84.0634 25.0493 84.1563 24.9521 84.2183 24.871C84.2958 24.79 84.4042 24.6603 84.4972 24.5469C84.5437 24.4982 84.5901 24.4334 84.6366 24.3686C84.7606 24.2065 84.8225 24.093 84.8845 23.9471C84.9 23.9147 84.9155 23.8985 84.931 23.8661C84.993 23.7364 85.0085 23.6068 84.993 23.4771C84.993 23.3961 84.9465 23.2988 84.9155 23.2016Z" fill="#FFFFFE"/>
<path d="M72.8906 74.2031C72.0365 75.2031 70.7917 75.9792 69.1562 76.5312C67.5208 77.0729 65.7083 77.3281 63.7188 77.2969C61.8125 77.276 60.2031 76.7969 58.8906 75.8594C57.5781 74.9219 56.6406 73.6146 56.0781 71.9375C55.5156 70.2604 55.3646 68.3698 55.625 66.2656L55.75 65.3281C56.2292 61.7969 57.4688 59 59.4688 56.9375C61.4792 54.875 63.9375 53.8698 66.8438 53.9219C69.3854 53.9635 71.3385 54.6458 72.7031 55.9688C74.0677 57.2917 74.8281 59.2031 74.9844 61.7031L69.8594 61.6875C69.7865 60.4688 69.4844 59.5781 68.9531 59.0156C68.4323 58.4531 67.6875 58.1562 66.7188 58.125C65.2812 58.0729 64.0938 58.6406 63.1562 59.8281C62.2188 61.0052 61.5781 62.6927 61.2344 64.8906C60.9427 66.7656 60.8385 68.224 60.9219 69.2656C61.0781 71.776 62.2083 73.0469 64.3125 73.0781C65.5833 73.099 66.6979 72.7917 67.6562 72.1562L68.3594 68.6094H64.6562L65.3125 64.8438H74.3594L72.8906 74.2031ZM91.4625 68.9688H88.4937L87.0875 77H81.7437L85.6812 54.25L93.7125 54.2656C96.2854 54.2656 98.2646 54.8698 99.65 56.0781C101.046 57.276 101.671 58.9167 101.525 61C101.41 62.6458 100.936 64.0104 100.103 65.0938C99.2698 66.1667 98.1031 67.0156 96.6031 67.6406L99.6656 76.7344V77H93.9625L91.4625 68.9688ZM89.2125 64.7344L92.3375 64.7656C93.1917 64.7656 93.9312 64.5573 94.5562 64.1406C95.1917 63.724 95.6448 63.1562 95.9156 62.4375C96.1865 61.7083 96.2646 61.0052 96.15 60.3281C95.9417 59.1719 95.2021 58.5625 93.9312 58.5L90.3062 58.4844L89.2125 64.7344ZM121.909 72.75H114.644L112.628 77H106.737L118.784 54.25H123.816L128.019 77H122.456L121.909 72.75ZM116.644 68.5156H121.362L120.362 60.6719L116.644 68.5156ZM154.95 58.4844H148.325L145.122 77H139.762L142.981 58.4844H136.466L137.216 54.25H155.684L154.95 58.4844ZM166.209 77H160.866L164.819 54.25H170.147L166.209 77ZM188.938 70.8438C189.167 69.6667 188.531 68.7552 187.031 68.1094L184.469 67.0469C180.875 65.4323 179.167 63.2344 179.344 60.4531C179.417 59.1823 179.854 58.0521 180.656 57.0625C181.458 56.0625 182.568 55.2865 183.984 54.7344C185.401 54.1823 186.948 53.9167 188.625 53.9375C190.875 53.9792 192.682 54.6354 194.047 55.9062C195.422 57.1771 196.099 58.8802 196.078 61.0156H190.766C190.797 60.1406 190.609 59.4427 190.203 58.9219C189.807 58.3906 189.151 58.1146 188.234 58.0938C187.339 58.0729 186.547 58.2812 185.859 58.7188C185.172 59.1562 184.766 59.7448 184.641 60.4844C184.443 61.526 185.214 62.3802 186.953 63.0469C188.703 63.7135 189.974 64.2865 190.766 64.7656C193.255 66.2552 194.422 68.2656 194.266 70.7969C194.182 72.1094 193.76 73.2604 193 74.25C192.24 75.2396 191.182 76.0052 189.828 76.5469C188.484 77.0885 186.974 77.349 185.297 77.3281C184.068 77.3073 182.927 77.1146 181.875 76.75C180.823 76.3854 179.922 75.8542 179.172 75.1562C177.651 73.75 176.922 71.901 176.984 69.6094L182.344 69.625C182.281 70.7917 182.505 71.6771 183.016 72.2812C183.526 72.875 184.385 73.1719 185.594 73.1719C186.49 73.1719 187.234 72.9688 187.828 72.5625C188.432 72.1458 188.802 71.5729 188.938 70.8438Z" fill="#D6920E"/>
<path d="M70.8906 70.2031C70.0365 71.2031 68.7917 71.9792 67.1562 72.5312C65.5208 73.0729 63.7083 73.3281 61.7188 73.2969C59.8125 73.276 58.2031 72.7969 56.8906 71.8594C55.5781 70.9219 54.6406 69.6146 54.0781 67.9375C53.5156 66.2604 53.3646 64.3698 53.625 62.2656L53.75 61.3281C54.2292 57.7969 55.4688 55 57.4688 52.9375C59.4792 50.875 61.9375 49.8698 64.8438 49.9219C67.3854 49.9635 69.3385 50.6458 70.7031 51.9688C72.0677 53.2917 72.8281 55.2031 72.9844 57.7031L67.8594 57.6875C67.7865 56.4688 67.4844 55.5781 66.9531 55.0156C66.4323 54.4531 65.6875 54.1562 64.7188 54.125C63.2812 54.0729 62.0938 54.6406 61.1562 55.8281C60.2188 57.0052 59.5781 58.6927 59.2344 60.8906C58.9427 62.7656 58.8385 64.224 58.9219 65.2656C59.0781 67.776 60.2083 69.0469 62.3125 69.0781C63.5833 69.099 64.6979 68.7917 65.6562 68.1562L66.3594 64.6094H62.6562L63.3125 60.8438H72.3594L70.8906 70.2031ZM89.4625 64.9688H86.4937L85.0875 73H79.7437L83.6812 50.25L91.7125 50.2656C94.2854 50.2656 96.2646 50.8698 97.65 52.0781C99.0458 53.276 99.6708 54.9167 99.525 57C99.4104 58.6458 98.9365 60.0104 98.1031 61.0938C97.2698 62.1667 96.1031 63.0156 94.6031 63.6406L97.6656 72.7344V73H91.9625L89.4625 64.9688ZM87.2125 60.7344L90.3375 60.7656C91.1917 60.7656 91.9312 60.5573 92.5562 60.1406C93.1917 59.724 93.6448 59.1562 93.9156 58.4375C94.1865 57.7083 94.2646 57.0052 94.15 56.3281C93.9417 55.1719 93.2021 54.5625 91.9312 54.5L88.3062 54.4844L87.2125 60.7344ZM119.909 68.75H112.644L110.628 73H104.737L116.784 50.25H121.816L126.019 73H120.456L119.909 68.75ZM114.644 64.5156H119.362L118.362 56.6719L114.644 64.5156ZM152.95 54.4844H146.325L143.122 73H137.762L140.981 54.4844H134.466L135.216 50.25H153.684L152.95 54.4844ZM164.209 73H158.866L162.819 50.25H168.147L164.209 73ZM186.938 66.8438C187.167 65.6667 186.531 64.7552 185.031 64.1094L182.469 63.0469C178.875 61.4323 177.167 59.2344 177.344 56.4531C177.417 55.1823 177.854 54.0521 178.656 53.0625C179.458 52.0625 180.568 51.2865 181.984 50.7344C183.401 50.1823 184.948 49.9167 186.625 49.9375C188.875 49.9792 190.682 50.6354 192.047 51.9062C193.422 53.1771 194.099 54.8802 194.078 57.0156H188.766C188.797 56.1406 188.609 55.4427 188.203 54.9219C187.807 54.3906 187.151 54.1146 186.234 54.0938C185.339 54.0729 184.547 54.2812 183.859 54.7188C183.172 55.1562 182.766 55.7448 182.641 56.4844C182.443 57.526 183.214 58.3802 184.953 59.0469C186.703 59.7135 187.974 60.2865 188.766 60.7656C191.255 62.2552 192.422 64.2656 192.266 66.7969C192.182 68.1094 191.76 69.2604 191 70.25C190.24 71.2396 189.182 72.0052 187.828 72.5469C186.484 73.0885 184.974 73.349 183.297 73.3281C182.068 73.3073 180.927 73.1146 179.875 72.75C178.823 72.3854 177.922 71.8542 177.172 71.1562C175.651 69.75 174.922 67.901 174.984 65.6094L180.344 65.625C180.281 66.7917 180.505 67.6771 181.016 68.2812C181.526 68.875 182.385 69.1719 183.594 69.1719C184.49 69.1719 185.234 68.9688 185.828 68.5625C186.432 68.1458 186.802 67.5729 186.938 66.8438Z" fill="white"/>
<path d="M70.8906 70.2031L71.651 70.8526L71.8347 70.6376L71.8785 70.3582L70.8906 70.2031ZM67.1562 72.5312L67.4707 73.4806L67.4761 73.4787L67.1562 72.5312ZM61.7188 73.2969L61.7345 72.297L61.7297 72.2969L61.7188 73.2969ZM53.625 62.2656L52.6337 62.1335L52.6326 62.1428L53.625 62.2656ZM53.75 61.3281L52.7591 61.1937L52.7588 61.196L53.75 61.3281ZM57.4688 52.9375L56.7527 52.2395L56.7508 52.2414L57.4688 52.9375ZM64.8438 49.9219L64.8258 50.9217L64.8274 50.9217L64.8438 49.9219ZM72.9844 57.7031L72.9813 58.7031L74.049 58.7064L73.9824 57.6407L72.9844 57.7031ZM67.8594 57.6875L66.8612 57.7472L66.9172 58.6846L67.8563 58.6875L67.8594 57.6875ZM66.9531 55.0156L66.2193 55.6951L66.2261 55.7022L66.9531 55.0156ZM64.7188 54.125L64.6825 55.1244L64.6865 55.1245L64.7188 54.125ZM61.1562 55.8281L61.9385 56.4511L61.9411 56.4478L61.1562 55.8281ZM59.2344 60.8906L58.2464 60.7361L58.2463 60.7369L59.2344 60.8906ZM58.9219 65.2656L59.9199 65.2035L59.9194 65.1947L59.9187 65.1859L58.9219 65.2656ZM62.3125 69.0781L62.3289 68.0783L62.3273 68.0782L62.3125 69.0781ZM65.6562 68.1562L66.2089 68.9897L66.5561 68.7594L66.6372 68.3507L65.6562 68.1562ZM66.3594 64.6094L67.3403 64.8038L67.5771 63.6094H66.3594V64.6094ZM62.6562 64.6094L61.6711 64.4377L61.4669 65.6094H62.6562V64.6094ZM63.3125 60.8438V59.8438H62.4717L62.3273 60.6721L63.3125 60.8438ZM72.3594 60.8438L73.3473 60.9988L73.5285 59.8438H72.3594V60.8438ZM70.1303 69.5536C69.4245 70.3798 68.3529 71.0718 66.8364 71.5838L67.4761 73.4787C69.2305 72.8865 70.6484 72.0264 71.651 70.8526L70.1303 69.5536ZM66.8418 71.582C65.3279 72.0834 63.629 72.3268 61.7345 72.297L61.703 74.2968C63.7877 74.3295 65.7137 74.0624 67.4707 73.4805L66.8418 71.582ZM61.7297 72.2969C59.99 72.2779 58.5892 71.8438 57.4719 71.0456L56.3094 72.6731C57.817 73.75 59.635 74.2742 61.7078 74.2968L61.7297 72.2969ZM57.4719 71.0456C56.3475 70.2425 55.5285 69.1171 55.0262 67.6195L53.13 68.2555C53.7527 70.112 54.8088 71.6012 56.3094 72.6731L57.4719 71.0456ZM55.0262 67.6195C54.5198 66.1096 54.3718 64.3733 54.6174 62.3885L52.6326 62.1428C52.3574 64.3663 52.5115 66.4112 53.13 68.2555L55.0262 67.6195ZM54.6162 62.3978L54.7412 61.4603L52.7588 61.196L52.6338 62.1335L54.6162 62.3978ZM54.7409 61.4626C55.1984 58.0913 56.3679 55.5093 58.1867 53.6336L56.7508 52.2414C54.5696 54.4907 53.2599 57.5025 52.7591 61.1937L54.7409 61.4626ZM58.1848 53.6355C60.0007 51.7726 62.1925 50.8745 64.8258 50.9217L64.8617 48.922C61.6825 48.8651 58.9576 49.9774 56.7527 52.2395L58.1848 53.6355ZM64.8274 50.9217C67.2025 50.9607 68.8795 51.5936 70.0071 52.6867L71.3992 51.2508C69.7976 49.6981 67.5683 48.9664 64.8601 48.922L64.8274 50.9217ZM70.0071 52.6867C71.1422 53.7872 71.8406 55.4332 71.9863 57.7655L73.9824 57.6407C73.8157 54.9731 72.9932 52.7961 71.3992 51.2508L70.0071 52.6867ZM72.9874 56.7031L67.8624 56.6875L67.8563 58.6875L72.9813 58.7031L72.9874 56.7031ZM68.8576 57.6278C68.7783 56.3026 68.4428 55.1365 67.6801 54.329L66.2261 55.7022C66.5259 56.0197 66.7946 56.6349 66.8612 57.7472L68.8576 57.6278ZM67.6869 54.3362C66.9394 53.5289 65.9125 53.163 64.751 53.1255L64.6865 55.1245C65.4625 55.1495 65.9252 55.3774 66.2194 55.695L67.6869 54.3362ZM64.755 53.1257C62.98 53.0613 61.4944 53.786 60.3714 55.2085L61.9411 56.4478C62.6931 55.4953 63.5825 55.0845 64.6825 55.1243L64.755 53.1257ZM60.374 55.2051C59.2889 56.5676 58.605 58.443 58.2464 60.7361L60.2224 61.0451C60.5512 58.9424 61.1486 57.4428 61.9385 56.4511L60.374 55.2051ZM58.2463 60.7369C57.9506 62.6374 57.8324 64.1868 57.9251 65.3454L59.9187 65.1859C59.8447 64.2611 59.9348 62.8938 60.2225 61.0443L58.2463 60.7369ZM57.9238 65.3277C58.0094 66.7034 58.3694 67.9002 59.1395 68.7661C59.9337 69.6591 61.0367 70.0593 62.2977 70.078L62.3273 68.0782C61.4841 68.0657 60.97 67.8148 60.634 67.437C60.2738 67.0321 59.9906 66.3382 59.9199 65.2035L57.9238 65.3277ZM62.2961 70.078C63.7468 70.1018 65.0644 69.7485 66.2089 68.9897L65.1036 67.3228C64.3314 67.8348 63.4198 68.0961 62.3289 68.0783L62.2961 70.078ZM66.6372 68.3507L67.3403 64.8038L65.3785 64.4149L64.6753 67.9618L66.6372 68.3507ZM66.3594 63.6094H62.6562V65.6094H66.3594V63.6094ZM63.6414 64.7811L64.2977 61.0154L62.3273 60.6721L61.6711 64.4377L63.6414 64.7811ZM63.3125 61.8438H72.3594V59.8438H63.3125V61.8438ZM71.3715 60.6887L69.9027 70.0481L71.8785 70.3582L73.3473 60.9988L71.3715 60.6887ZM89.4625 64.9688L90.4173 64.6715L90.1985 63.9688H89.4625V64.9688ZM86.4937 64.9688V63.9688H85.6536L85.5087 64.7963L86.4937 64.9688ZM85.0875 73V74H85.9276L86.0725 73.1725L85.0875 73ZM79.7437 73L78.7584 72.8295L78.5558 74H79.7437V73ZM83.6812 50.25L83.6832 49.25L82.8397 49.2484L82.6959 50.0795L83.6812 50.25ZM91.7125 50.2656L91.7106 51.2656H91.7125V50.2656ZM97.65 52.0781L96.9927 52.8318L96.9987 52.837L97.65 52.0781ZM99.525 57L98.5274 56.9302L98.5274 56.9305L99.525 57ZM98.1031 61.0938L98.8929 61.7072L98.8957 61.7035L98.1031 61.0938ZM94.6031 63.6406L94.2185 62.7175L93.3578 63.0762L93.6554 63.9598L94.6031 63.6406ZM97.6656 72.7344H98.6656V72.5705L98.6133 72.4152L97.6656 72.7344ZM97.6656 73V74H98.6656V73H97.6656ZM91.9625 73L91.0077 73.2972L91.2265 74H91.9625V73ZM87.2125 60.7344L86.2275 60.562L86.0244 61.7225L87.2025 61.7343L87.2125 60.7344ZM90.3375 60.7656L90.3275 61.7656H90.3375V60.7656ZM92.5562 60.1406L92.0079 59.3044L92.0015 59.3086L92.5562 60.1406ZM93.9156 58.4375L94.8514 58.7901L94.853 58.7857L93.9156 58.4375ZM94.15 56.3281L95.136 56.1613L95.1342 56.1508L94.15 56.3281ZM91.9312 54.5L91.9804 53.5012L91.958 53.5001L91.9356 53.5L91.9312 54.5ZM88.3062 54.4844L88.3106 53.4844L87.4667 53.4807L87.3212 54.312L88.3062 54.4844ZM89.4625 63.9688H86.4937V65.9688H89.4625V63.9688ZM85.5087 64.7963L84.1025 72.8275L86.0725 73.1725L87.4788 65.1412L85.5087 64.7963ZM85.0875 72H79.7437V74H85.0875V72ZM80.7291 73.1705L84.6666 50.4205L82.6959 50.0795L78.7584 72.8295L80.7291 73.1705ZM83.6793 51.25L91.7106 51.2656L91.7144 49.2656L83.6832 49.25L83.6793 51.25ZM91.7125 51.2656C94.1398 51.2656 95.8507 51.8357 96.9927 52.8318L98.3073 51.3245C96.6785 49.9039 94.431 49.2656 91.7125 49.2656V51.2656ZM96.9987 52.837C98.1197 53.799 98.6546 55.1134 98.5274 56.9302L100.523 57.0698C100.687 54.72 99.972 52.7531 98.3013 51.3193L96.9987 52.837ZM98.5274 56.9305C98.4236 58.4212 98.0009 59.5865 97.3105 60.484L98.8957 61.7035C99.872 60.4344 100.397 58.8704 100.523 57.0695L98.5274 56.9305ZM97.3134 60.4803C96.6051 61.3923 95.5903 62.146 94.2185 62.7175L94.9877 64.5637C96.616 63.8853 97.9345 62.9411 98.8929 61.7072L97.3134 60.4803ZM93.6554 63.9598L96.7179 73.0535L98.6133 72.4152L95.5508 63.3215L93.6554 63.9598ZM96.6656 72.7344V73H98.6656V72.7344H96.6656ZM97.6656 72H91.9625V74H97.6656V72ZM92.9173 72.7028L90.4173 64.6715L88.5077 65.266L91.0077 73.2972L92.9173 72.7028ZM87.2025 61.7343L90.3275 61.7656L90.3475 59.7657L87.2225 59.7344L87.2025 61.7343ZM90.3375 61.7656C91.3612 61.7656 92.2999 61.5134 93.1109 60.9727L92.0015 59.3086C91.5626 59.6012 91.0222 59.7656 90.3375 59.7656V61.7656ZM93.1046 60.9769C93.9192 60.4427 94.5068 59.7047 94.8514 58.7901L92.9799 58.0849C92.7828 58.6078 92.4642 59.0052 92.0079 59.3044L93.1046 60.9769ZM94.853 58.7857C95.1767 57.9143 95.2836 57.0333 95.136 56.1613L93.164 56.495C93.2456 56.9771 93.1962 57.5024 92.9782 58.0893L94.853 58.7857ZM95.1342 56.1508C94.9978 55.3942 94.6663 54.7194 94.075 54.2321C93.4921 53.7519 92.7607 53.5396 91.9804 53.5012L91.8821 55.4988C92.3726 55.5229 92.6464 55.6465 92.8032 55.7757C92.9514 55.8978 93.0938 56.1058 93.1658 56.5054L95.1342 56.1508ZM91.9356 53.5L88.3106 53.4844L88.3019 55.4844L91.9269 55.5L91.9356 53.5ZM87.3212 54.312L86.2275 60.562L88.1975 60.9068L89.2913 54.6568L87.3212 54.312ZM119.909 68.75L120.901 68.6224L120.789 67.75H119.909V68.75ZM112.644 68.75V67.75H112.011L111.74 68.3215L112.644 68.75ZM110.628 73V74H111.261L111.532 73.4285L110.628 73ZM104.737 73L103.854 72.532L103.076 74H104.737V73ZM116.784 50.25V49.25H116.182L115.901 49.782L116.784 50.25ZM121.816 50.25L122.799 50.0683L122.648 49.25H121.816V50.25ZM126.019 73V74H127.22L127.002 72.8183L126.019 73ZM120.456 73L119.464 73.1276L119.577 74H120.456V73ZM114.644 64.5156L113.74 64.0872L113.063 65.5156H114.644V64.5156ZM119.362 64.5156V65.5156H120.498L120.354 64.3892L119.362 64.5156ZM118.362 56.6719L119.354 56.5454L118.922 53.1566L117.459 56.2435L118.362 56.6719ZM119.909 67.75H112.644V69.75H119.909V67.75ZM111.74 68.3215L109.725 72.5715L111.532 73.4285L113.547 69.1785L111.74 68.3215ZM110.628 72H104.737V74H110.628V72ZM105.621 73.468L117.668 50.718L115.901 49.782L103.854 72.532L105.621 73.468ZM116.784 51.25H121.816V49.25H116.784V51.25ZM120.832 50.4317L125.035 73.1817L127.002 72.8183L122.799 50.0683L120.832 50.4317ZM126.019 72H120.456V74H126.019V72ZM121.448 72.8724L120.901 68.6224L118.918 68.8776L119.464 73.1276L121.448 72.8724ZM114.644 65.5156H119.362V63.5156H114.644V65.5156ZM120.354 64.3892L119.354 56.5454L117.371 56.7983L118.371 64.6421L120.354 64.3892ZM117.459 56.2435L113.74 64.0872L115.547 64.944L119.266 57.1003L117.459 56.2435ZM152.95 54.4844V55.4844H153.791L153.935 54.6553L152.95 54.4844ZM146.325 54.4844V53.4844H145.483L145.34 54.3139L146.325 54.4844ZM143.122 73V74H143.964L144.107 73.1705L143.122 73ZM137.762 73L136.777 72.8287L136.574 74H137.762V73ZM140.981 54.4844L141.966 54.6556L142.17 53.4844H140.981V54.4844ZM134.466 54.4844L133.481 54.31L133.273 55.4844H134.466V54.4844ZM135.216 50.25V49.25H134.377L134.231 50.0756L135.216 50.25ZM153.684 50.25L154.67 50.4209L154.873 49.25H153.684V50.25ZM152.95 53.4844H146.325V55.4844H152.95V53.4844ZM145.34 54.3139L142.137 72.8295L144.107 73.1705L147.31 54.6548L145.34 54.3139ZM143.122 72H137.762V74H143.122V72ZM138.748 73.1713L141.966 54.6556L139.996 54.3131L136.777 72.8287L138.748 73.1713ZM140.981 53.4844H134.466V55.4844H140.981V53.4844ZM135.45 54.6588L136.2 50.4244L134.231 50.0756L133.481 54.31L135.45 54.6588ZM135.216 51.25H153.684V49.25H135.216V51.25ZM152.699 50.0791L151.965 54.3135L153.935 54.6553L154.67 50.4209L152.699 50.0791ZM164.209 73V74H165.051L165.195 73.1705L164.209 73ZM158.866 73L157.88 72.8288L157.677 74H158.866V73ZM162.819 50.25V49.25H161.978L161.834 50.0788L162.819 50.25ZM168.147 50.25L169.132 50.4205L169.335 49.25H168.147V50.25ZM164.209 72H158.866V74H164.209V72ZM159.851 73.1712L163.804 50.4212L161.834 50.0788L157.88 72.8288L159.851 73.1712ZM162.819 51.25H168.147V49.25H162.819V51.25ZM167.162 50.0795L163.224 72.8295L165.195 73.1705L169.132 50.4205L167.162 50.0795ZM186.938 66.8438L185.956 66.6526L185.954 66.6612L186.938 66.8438ZM185.031 64.1094L185.427 63.1908L185.414 63.1856L185.031 64.1094ZM182.469 63.0469L182.059 63.959L182.072 63.965L182.086 63.9706L182.469 63.0469ZM177.344 56.4531L178.342 56.5167L178.342 56.5104L177.344 56.4531ZM178.656 53.0625L179.433 53.6922L179.436 53.6882L178.656 53.0625ZM186.625 49.9375L186.644 48.9377L186.637 48.9376L186.625 49.9375ZM192.047 51.9062L191.365 52.6381L191.368 52.6406L192.047 51.9062ZM194.078 57.0156V58.0156H195.068L195.078 57.0254L194.078 57.0156ZM188.766 57.0156L187.766 56.9799L187.729 58.0156H188.766V57.0156ZM188.203 54.9219L187.401 55.5194L187.408 55.5282L187.415 55.5369L188.203 54.9219ZM186.234 54.0938L186.211 55.0935L186.212 55.0935L186.234 54.0938ZM182.641 56.4844L183.623 56.671L183.625 56.661L183.627 56.651L182.641 56.4844ZM184.953 59.0469L184.595 59.9807L184.597 59.9814L184.953 59.0469ZM188.766 60.7656L188.248 61.6211L188.252 61.6238L188.766 60.7656ZM192.266 66.7969L193.264 66.8602L193.264 66.8585L192.266 66.7969ZM191 70.25L190.207 69.6407L191 70.25ZM187.828 72.5469L187.457 71.6184L187.454 71.6194L187.828 72.5469ZM183.297 73.3281L183.28 74.328L183.284 74.328L183.297 73.3281ZM177.172 71.1562L177.853 70.4242L177.851 70.422L177.172 71.1562ZM174.984 65.6094L174.987 64.6094L174.011 64.6065L173.985 65.5821L174.984 65.6094ZM180.344 65.625L181.342 65.6785L181.399 64.6281L180.347 64.625L180.344 65.625ZM181.016 68.2812L180.252 68.9266L180.257 68.9331L181.016 68.2812ZM185.828 68.5625L186.393 69.3878L186.396 69.3857L185.828 68.5625ZM187.919 67.0349C188.081 66.204 187.939 65.402 187.453 64.7055C186.99 64.0411 186.272 63.555 185.427 63.1909L184.636 65.0279C185.29 65.3096 185.64 65.6021 185.812 65.8492C185.962 66.0641 186.023 66.3064 185.956 66.6526L187.919 67.0349ZM185.414 63.1856L182.852 62.1231L182.086 63.9706L184.648 65.0331L185.414 63.1856ZM182.879 62.1347C181.173 61.3682 180.003 60.5014 179.282 59.5738C178.578 58.6678 178.269 57.664 178.342 56.5167L176.346 56.3896C176.242 58.0235 176.698 59.5092 177.703 60.8012C178.69 62.0716 180.171 63.1109 182.059 63.959L182.879 62.1347ZM178.342 56.5104C178.403 55.449 178.763 54.519 179.433 53.6922L177.879 52.4328C176.945 53.5852 176.43 54.9156 176.345 56.3958L178.342 56.5104ZM179.436 53.6882C180.11 52.8485 181.064 52.1664 182.347 51.6661L181.621 49.8026C180.072 50.4065 178.807 51.2765 177.876 52.4368L179.436 53.6882ZM182.347 51.6661C183.633 51.1652 185.051 50.918 186.613 50.9374L186.637 48.9376C184.845 48.9153 183.169 49.1993 181.621 49.8026L182.347 51.6661ZM186.606 50.9373C188.664 50.9754 190.217 51.5685 191.365 52.638L192.728 51.1745C191.148 49.7023 189.086 48.9829 186.644 48.9377L186.606 50.9373ZM191.368 52.6406C192.506 53.692 193.097 55.1089 193.078 57.0059L195.078 57.0254C195.101 54.6515 194.338 52.6622 192.726 51.1719L191.368 52.6406ZM194.078 56.0156H188.766V58.0156H194.078V56.0156ZM189.765 57.0513C189.802 56.0186 189.584 55.066 188.992 54.3068L187.415 55.5369C187.635 55.8194 187.792 56.2627 187.766 56.9799L189.765 57.0513ZM189.005 54.3244C188.361 53.4606 187.356 53.119 186.257 53.094L186.212 55.0935C186.946 55.1102 187.253 55.3207 187.401 55.5194L189.005 54.3244ZM186.258 53.094C185.184 53.0691 184.194 53.3207 183.322 53.8751L184.396 55.5624C184.9 55.2418 185.493 55.0768 186.211 55.0935L186.258 53.094ZM183.322 53.8751C182.419 54.4498 181.831 55.2731 181.655 56.3177L183.627 56.651C183.7 56.2164 183.924 55.8627 184.396 55.5624L183.322 53.8751ZM181.658 56.2977C181.495 57.155 181.754 57.9397 182.328 58.5762C182.865 59.1711 183.659 59.622 184.595 59.9807L185.311 58.1131C184.507 57.8051 184.047 57.4956 183.813 57.2363C183.616 57.0186 183.588 56.8555 183.623 56.671L181.658 56.2977ZM184.597 59.9814C186.336 60.6437 187.537 61.1907 188.248 61.6211L189.283 59.9101C188.411 59.3822 187.071 58.7834 185.309 58.1124L184.597 59.9814ZM188.252 61.6238C189.387 62.3028 190.163 63.066 190.643 63.8925C191.118 64.7116 191.335 65.6478 191.268 66.7353L193.264 66.8585C193.353 65.4147 193.064 64.08 192.373 62.8887C191.686 61.7048 190.634 60.718 189.279 59.9075L188.252 61.6238ZM191.268 66.7335C191.196 67.859 190.84 68.8174 190.207 69.6407L191.793 70.8593C192.681 69.7034 193.168 68.3598 193.264 66.8602L191.268 66.7335ZM190.207 69.6407C189.573 70.4655 188.673 71.132 187.457 71.6184L188.2 73.4754C189.692 72.8784 190.906 72.0136 191.793 70.8593L190.207 69.6407ZM187.454 71.6194C186.251 72.1044 184.875 72.3476 183.309 72.3282L183.284 74.328C185.073 74.3503 186.718 74.0727 188.202 73.4744L187.454 71.6194ZM183.314 72.3283C182.179 72.309 181.145 72.1317 180.202 71.8051L179.548 73.6949C180.709 74.0975 181.956 74.3055 183.28 74.328L183.314 72.3283ZM180.202 71.8051C179.27 71.4821 178.493 71.0193 177.853 70.4242L176.491 71.8883C177.351 72.689 178.376 73.2887 179.548 73.6949L180.202 71.8051ZM177.851 70.422C176.566 69.2338 175.928 67.6746 175.984 65.6366L173.985 65.5821C173.915 68.1275 174.736 70.2662 176.493 71.8905L177.851 70.422ZM174.981 66.6094L180.341 66.625L180.347 64.625L174.987 64.6094L174.981 66.6094ZM179.345 65.5715C179.275 66.8729 179.513 68.0525 180.252 68.9266L181.78 67.6359C181.497 67.3017 181.287 66.7104 181.342 65.6785L179.345 65.5715ZM180.257 68.9331C181.041 69.8449 182.252 70.1719 183.594 70.1719V68.1719C182.518 68.1719 182.011 67.9051 181.774 67.6294L180.257 68.9331ZM183.594 70.1719C184.641 70.1719 185.596 69.933 186.393 69.3878L185.263 67.7372C184.873 68.0045 184.338 68.1719 183.594 68.1719V70.1719ZM186.396 69.3857C187.22 68.8171 187.738 68.0125 187.921 67.0263L185.954 66.6612C185.867 67.1333 185.644 67.4746 185.26 67.7393L186.396 69.3857Z" fill="#FCAB10"/>
<defs>
<clipPath id="clip0">
<rect width="33" height="19" fill="white" transform="translate(103 17)"/>
</clipPath>
<clipPath id="clip1">
<rect width="23" height="23" fill="white" transform="translate(57 15)"/>
</clipPath>
</defs>
</svg>
