<svg width="125" height="77" viewBox="0 0 125 77" fill="none" xmlns="http://www.w3.org/2000/svg">
<g filter="url(#filter0_d)">
<mask id="path-1-outside-1" maskUnits="userSpaceOnUse" x="0" y="0" width="123" height="74" fill="black">
<rect fill="white" width="123" height="74"/>
<path d="M40.1962 18.4179C40.0607 20.0281 39.5343 21.4594 38.617 22.7118C37.7102 23.9642 36.5115 24.9271 35.0209 25.6007C33.5408 26.2742 31.9356 26.5952 30.2053 26.5637C27.8287 26.511 25.9577 25.7375 24.5922 24.2431C23.2268 22.7486 22.4815 20.7227 22.3564 18.1653C22.2626 16.4604 22.445 14.6028 22.9036 12.5927C23.3727 10.5825 24.1284 8.83552 25.1707 7.35159C26.2235 5.85715 27.4587 4.74157 28.8763 4.00487C30.3043 3.25765 31.8626 2.89983 33.5512 2.9314C36.032 2.9735 37.9916 3.72598 39.4301 5.18886C40.8789 6.65173 41.6659 8.66713 41.791 11.2351L36.4594 11.2193C36.4802 9.81954 36.2301 8.81973 35.7089 8.21985C35.1877 7.61996 34.3643 7.29897 33.2385 7.25688C30.4242 7.16216 28.7095 9.37226 28.0945 13.8872C27.8131 15.9289 27.6724 17.3865 27.6724 18.26C27.6203 20.849 28.5688 22.1803 30.518 22.254C31.7792 22.2961 32.7851 21.9856 33.5356 21.3226C34.2861 20.649 34.7656 19.7018 34.974 18.481L40.1962 18.4179Z"/>
<path d="M46.8568 26.2479H41.6972L45.8561 2H51.0158L46.8568 26.2479Z"/>
<path d="M59.662 26.2479C59.5161 25.8375 59.4431 25.3218 59.4431 24.7009C58.2861 25.9848 56.905 26.6058 55.2998 26.5637C53.8301 26.5426 52.6106 26.048 51.6412 25.0797C50.6718 24.1115 50.2184 22.938 50.2809 21.5594C50.333 19.7071 51.0992 18.2863 52.5793 17.297C54.0594 16.2972 56.0816 15.7973 58.6458 15.7973L60.3656 15.8289L60.5533 14.8659L60.6158 14.0292C60.5741 13.0715 60.0998 12.5769 59.193 12.5453C58.0673 12.5243 57.3741 13.1505 57.1135 14.4239L51.9539 14.4397C52.006 13.2925 52.376 12.298 53.064 11.4561C53.7519 10.6036 54.6848 9.95109 55.8627 9.49855C57.051 9.03548 58.3122 8.81973 59.6464 8.8513C60.9285 8.88288 62.049 9.15651 63.008 9.6722C63.9774 10.1774 64.7018 10.8878 65.1813 11.8034C65.6608 12.7085 65.8432 13.7556 65.7285 14.9449L64.4621 22.9801L64.3839 23.9589C64.3422 24.7377 64.4412 25.4007 64.6809 25.948L64.6653 26.2479H59.662ZM56.7226 22.8065C57.7754 22.8486 58.6979 22.3803 59.4901 21.4015L60.006 18.6547L58.677 18.6389C57.8536 18.6599 57.1448 18.9072 56.5506 19.3808C55.9565 19.8439 55.6073 20.4806 55.5031 21.291C55.451 21.7225 55.5291 22.0803 55.7376 22.3645C55.9565 22.6381 56.2848 22.7854 56.7226 22.8065Z"/>
<path d="M78.9715 13.9819C78.4191 13.8977 77.8875 13.8451 77.3767 13.824C75.8341 13.7819 74.6562 14.3187 73.8432 15.4342L71.9357 26.2479H66.7917L69.7311 9.16703L74.5311 9.15125L74.1403 11.3929C75.2451 9.66693 76.5481 8.80394 78.0491 8.80394C78.4764 8.80394 79.008 8.87761 79.6439 9.02495L78.9715 13.9819Z"/>
<path d="M88.0087 8.8513C89.5201 8.87235 90.8283 9.25649 91.9331 10.0037C93.038 10.7404 93.8458 11.7718 94.3566 13.0978C94.8778 14.4239 95.0654 15.8973 94.9195 17.518L94.8882 17.8653C94.5963 20.4859 93.6322 22.6013 91.9957 24.2115C90.3592 25.8217 88.337 26.6058 85.9292 26.5637C84.4282 26.5426 83.1305 26.169 82.036 25.4428C80.9416 24.7061 80.1285 23.68 79.597 22.3645C79.0758 21.0489 78.8882 19.5861 79.0341 17.9759C79.2947 15.1764 80.2432 12.9452 81.8797 11.2824C83.5266 9.61958 85.5696 8.80921 88.0087 8.8513ZM84.1781 17.9759L84.1312 18.9072C83.9852 21.2542 84.694 22.4487 86.2576 22.4908C88.2797 22.5539 89.4524 20.8963 89.7755 17.518L89.838 16.0815C89.8589 15.1343 89.6817 14.3818 89.3064 13.824C88.9416 13.2557 88.3996 12.961 87.6804 12.94C86.7318 12.9084 85.9501 13.3031 85.3351 14.124C84.7305 14.9343 84.3448 16.2183 84.1781 17.9759Z"/>
<path d="M9.69187 57.2461L8.34725 65.0446H3L6.94008 42.0596L15.1173 42.0754C17.6502 42.0754 19.6411 42.7858 21.09 44.2066C22.5492 45.6273 23.1903 47.4691 23.0131 49.7318C22.888 51.2789 22.3981 52.6207 21.5434 53.7573C20.6886 54.894 19.5577 55.7622 18.1505 56.3621C16.7538 56.962 15.185 57.2619 13.4443 57.2619L9.69187 57.2461ZM10.4267 52.968L13.6476 52.9996C15.0026 52.968 16.0398 52.526 16.759 51.6735C17.4782 50.8105 17.7649 49.7528 17.6189 48.5005C17.5355 47.8585 17.2906 47.3533 16.8841 46.985C16.488 46.6061 15.9616 46.3956 15.3049 46.3535L11.5681 46.3377L10.4267 52.968Z"/>
<path d="M35.3649 52.7786C34.8125 52.6944 34.2809 52.6418 33.7701 52.6207C32.2274 52.5786 31.0496 53.1154 30.2366 54.2309L28.3291 65.0446H23.1851L26.1245 47.9637L30.9245 47.9479L30.5336 50.1896C31.6385 48.4636 32.9414 47.6006 34.4424 47.6006C34.8698 47.6006 35.4014 47.6743 36.0372 47.8216L35.3649 52.7786Z"/>
<path d="M43.1982 65.3603C41.6867 65.3498 40.3369 64.992 39.1486 64.2869C37.9708 63.5712 37.0796 62.5819 36.475 61.319C35.8704 60.0456 35.6307 58.6459 35.7558 57.1198L35.8027 56.6778C36.0841 53.8678 37.0483 51.6472 38.6952 50.016C40.3525 48.3742 42.3799 47.5848 44.7773 47.648C46.2262 47.669 47.4666 48.0427 48.4985 48.7688C49.5304 49.4845 50.2861 50.479 50.7656 51.7525C51.2451 53.0154 51.4014 54.4362 51.2347 56.0148L50.9376 58.1775H40.8685C40.8894 59.0721 41.1395 59.7983 41.619 60.3561C42.0985 60.9138 42.7969 61.2085 43.7141 61.2401C45.2047 61.2822 46.5441 60.7034 47.7324 59.5036L49.89 62.3925C49.2542 63.3081 48.363 64.029 47.2164 64.5552C46.0802 65.0709 44.8346 65.3393 43.4796 65.3603H43.1982ZM44.449 51.7367C43.7193 51.7156 43.0835 51.9472 42.5415 52.4313C42.0099 52.9154 41.546 53.7258 41.1499 54.8624H46.2939L46.3877 54.4046C46.4503 54.0362 46.4607 53.6889 46.419 53.3627C46.2418 52.3102 45.5851 51.7682 44.449 51.7367Z"/>
<path d="M68.5741 56.52C68.3552 58.3091 67.8914 59.9035 67.1826 61.3032C66.4738 62.6924 65.593 63.7291 64.5402 64.4132C63.4979 65.0867 62.3305 65.4077 61.0379 65.3761C59.5578 65.334 58.3591 64.7447 57.4418 63.6081L55.9096 71.6118H50.7656L54.8308 47.9637L59.5839 47.9479L59.3181 49.5739C60.4542 48.2479 61.7936 47.6059 63.3363 47.648C64.9832 47.669 66.2653 48.2637 67.1826 49.4319C68.1103 50.6001 68.6054 52.1945 68.6679 54.2151C68.6888 54.8676 68.6575 55.6359 68.5741 56.52ZM63.5708 54.4046C63.5187 52.6681 62.935 51.784 61.8197 51.7525C60.7357 51.6893 59.834 52.1366 59.1148 53.0943L57.9109 59.8667C58.234 60.7823 58.9532 61.2506 60.0686 61.2717C61.8927 61.3032 63.0132 59.7193 63.4301 56.52C63.5239 55.5096 63.5708 54.8045 63.5708 54.4046Z"/>
<path d="M79.0341 65.0446C78.8882 64.6342 78.8152 64.1185 78.8152 63.4976C77.6582 64.7815 76.2771 65.4024 74.6719 65.3603C73.2021 65.3393 71.9826 64.8447 71.0132 63.8764C70.0438 62.9082 69.5904 61.7347 69.6529 60.3561C69.7051 58.5038 70.4712 57.083 71.9513 56.0937C73.4315 55.0939 75.4536 54.594 78.0178 54.594L79.7377 54.6256L79.9253 53.6626L79.9878 52.8259C79.9461 51.8682 79.4719 51.3736 78.565 51.342C77.4393 51.321 76.7461 51.9472 76.4855 53.2206L71.3259 53.2364C71.378 52.0892 71.7481 51.0947 72.436 50.2528C73.124 49.4003 74.0569 48.7478 75.2347 48.2952C76.423 47.8322 77.6842 47.6164 79.0184 47.648C80.3005 47.6796 81.4211 47.9532 82.38 48.4689C83.3494 48.9741 84.0738 49.6844 84.5533 50.6001C85.0328 51.5051 85.2152 52.5523 85.1005 53.7415L83.8341 61.7768L83.7559 62.7556C83.7142 63.5344 83.8132 64.1974 84.053 64.7447L84.0374 65.0446H79.0341ZM76.0947 61.6032C77.1474 61.6453 78.0699 61.1769 78.8621 60.1982L79.3781 57.4514L78.0491 57.4356C77.2256 57.4566 76.5168 57.7039 75.9227 58.1775C75.3285 58.6406 74.9793 59.2773 74.8751 60.0877C74.823 60.5192 74.9012 60.877 75.1096 61.1612C75.3285 61.4348 75.6569 61.5821 76.0947 61.6032Z"/>
<path d="M87.008 56.4726C87.2061 54.7571 87.6699 53.2048 88.3996 51.8156C89.1396 50.4264 90.0621 49.3792 91.167 48.6741C92.2719 47.9585 93.5227 47.6112 94.9195 47.6322C96.6185 47.6743 97.9006 48.29 98.7657 49.4792L99.313 47.9479L104.066 47.9637L101.299 64.3816C100.986 66.6969 99.9801 68.5229 98.281 69.8595C96.582 71.1961 94.466 71.8328 91.9331 71.7696C90.8074 71.7486 89.7182 71.5223 88.6654 71.0908C87.6126 70.6593 86.711 70.0068 85.9605 69.1333L88.3996 66.0707C89.3064 67.2284 90.4843 67.823 91.9331 67.8546C94.2159 67.8967 95.6647 66.6706 96.2797 64.1764L96.4048 63.6554C95.2374 64.8131 93.9501 65.3814 92.5429 65.3603C91.4589 65.3498 90.5051 65.0762 89.6817 64.5395C88.8582 63.9922 88.212 63.2081 87.7429 62.1873C87.2738 61.1664 87.008 60.0298 86.9455 58.7774C86.9038 58.146 86.9247 57.3777 87.008 56.4726ZM92.0895 58.1617C92.0895 59.13 92.2615 59.8825 92.6055 60.4192C92.9494 60.9559 93.4498 61.2348 94.1064 61.2559C95.0758 61.298 95.9566 60.9191 96.7488 60.1193L98.0778 52.8733C97.6608 52.1366 96.9625 51.7577 95.9827 51.7367C94.982 51.7156 94.1429 52.1471 93.4654 53.0312C92.7879 53.9047 92.3605 55.0571 92.1833 56.4884C92.1208 57.1514 92.0895 57.7092 92.0895 58.1617Z"/>
<path d="M114.041 47.648C115.553 47.669 116.861 48.0532 117.966 48.8004C119.071 49.5371 119.878 50.5685 120.389 51.8945C120.91 53.2206 121.098 54.694 120.952 56.3147L120.921 56.662C120.629 59.2826 119.665 61.398 118.028 63.0082C116.392 64.6184 114.37 65.4024 111.962 65.3603C110.461 65.3393 109.163 64.9657 108.069 64.2395C106.974 63.5028 106.161 62.4767 105.63 61.1612C105.108 59.8456 104.921 58.3828 105.067 56.7725C105.327 53.9731 106.276 51.7419 107.912 50.0791C109.559 48.4163 111.602 47.6059 114.041 47.648ZM110.211 56.7725L110.164 57.7039C110.018 60.0509 110.727 61.2454 112.29 61.2875C114.312 61.3506 115.485 59.693 115.808 56.3147L115.871 54.8782C115.892 53.931 115.714 53.1785 115.339 52.6207C114.974 52.0524 114.432 51.7577 113.713 51.7367C112.764 51.7051 111.983 52.0998 111.368 52.9207C110.763 53.731 110.377 55.015 110.211 56.7725Z"/>
</mask>
<path d="M40.1962 18.4179C40.0607 20.0281 39.5343 21.4594 38.617 22.7118C37.7102 23.9642 36.5115 24.9271 35.0209 25.6007C33.5408 26.2742 31.9356 26.5952 30.2053 26.5637C27.8287 26.511 25.9577 25.7375 24.5922 24.2431C23.2268 22.7486 22.4815 20.7227 22.3564 18.1653C22.2626 16.4604 22.445 14.6028 22.9036 12.5927C23.3727 10.5825 24.1284 8.83552 25.1707 7.35159C26.2235 5.85715 27.4587 4.74157 28.8763 4.00487C30.3043 3.25765 31.8626 2.89983 33.5512 2.9314C36.032 2.9735 37.9916 3.72598 39.4301 5.18886C40.8789 6.65173 41.6659 8.66713 41.791 11.2351L36.4594 11.2193C36.4802 9.81954 36.2301 8.81973 35.7089 8.21985C35.1877 7.61996 34.3643 7.29897 33.2385 7.25688C30.4242 7.16216 28.7095 9.37226 28.0945 13.8872C27.8131 15.9289 27.6724 17.3865 27.6724 18.26C27.6203 20.849 28.5688 22.1803 30.518 22.254C31.7792 22.2961 32.7851 21.9856 33.5356 21.3226C34.2861 20.649 34.7656 19.7018 34.974 18.481L40.1962 18.4179Z" fill="#EF3829"/>
<path d="M46.8568 26.2479H41.6972L45.8561 2H51.0158L46.8568 26.2479Z" fill="#EF3829"/>
<path d="M59.662 26.2479C59.5161 25.8375 59.4431 25.3218 59.4431 24.7009C58.2861 25.9848 56.905 26.6058 55.2998 26.5637C53.8301 26.5426 52.6106 26.048 51.6412 25.0797C50.6718 24.1115 50.2184 22.938 50.2809 21.5594C50.333 19.7071 51.0992 18.2863 52.5793 17.297C54.0594 16.2972 56.0816 15.7973 58.6458 15.7973L60.3656 15.8289L60.5533 14.8659L60.6158 14.0292C60.5741 13.0715 60.0998 12.5769 59.193 12.5453C58.0673 12.5243 57.3741 13.1505 57.1135 14.4239L51.9539 14.4397C52.006 13.2925 52.376 12.298 53.064 11.4561C53.7519 10.6036 54.6848 9.95109 55.8627 9.49855C57.051 9.03548 58.3122 8.81973 59.6464 8.8513C60.9285 8.88288 62.049 9.15651 63.008 9.6722C63.9774 10.1774 64.7018 10.8878 65.1813 11.8034C65.6608 12.7085 65.8432 13.7556 65.7285 14.9449L64.4621 22.9801L64.3839 23.9589C64.3422 24.7377 64.4412 25.4007 64.6809 25.948L64.6653 26.2479H59.662ZM56.7226 22.8065C57.7754 22.8486 58.6979 22.3803 59.4901 21.4015L60.006 18.6547L58.677 18.6389C57.8536 18.6599 57.1448 18.9072 56.5506 19.3808C55.9565 19.8439 55.6073 20.4806 55.5031 21.291C55.451 21.7225 55.5291 22.0803 55.7376 22.3645C55.9565 22.6381 56.2848 22.7854 56.7226 22.8065Z" fill="#EF3829"/>
<path d="M78.9715 13.9819C78.4191 13.8977 77.8875 13.8451 77.3767 13.824C75.8341 13.7819 74.6562 14.3187 73.8432 15.4342L71.9357 26.2479H66.7917L69.7311 9.16703L74.5311 9.15125L74.1403 11.3929C75.2451 9.66693 76.5481 8.80394 78.0491 8.80394C78.4764 8.80394 79.008 8.87761 79.6439 9.02495L78.9715 13.9819Z" fill="#EF3829"/>
<path d="M88.0087 8.8513C89.5201 8.87235 90.8283 9.25649 91.9331 10.0037C93.038 10.7404 93.8458 11.7718 94.3566 13.0978C94.8778 14.4239 95.0654 15.8973 94.9195 17.518L94.8882 17.8653C94.5963 20.4859 93.6322 22.6013 91.9957 24.2115C90.3592 25.8217 88.337 26.6058 85.9292 26.5637C84.4282 26.5426 83.1305 26.169 82.036 25.4428C80.9416 24.7061 80.1285 23.68 79.597 22.3645C79.0758 21.0489 78.8882 19.5861 79.0341 17.9759C79.2947 15.1764 80.2432 12.9452 81.8797 11.2824C83.5266 9.61958 85.5696 8.80921 88.0087 8.8513ZM84.1781 17.9759L84.1312 18.9072C83.9852 21.2542 84.694 22.4487 86.2576 22.4908C88.2797 22.5539 89.4524 20.8963 89.7755 17.518L89.838 16.0815C89.8589 15.1343 89.6817 14.3818 89.3064 13.824C88.9416 13.2557 88.3996 12.961 87.6804 12.94C86.7318 12.9084 85.9501 13.3031 85.3351 14.124C84.7305 14.9343 84.3448 16.2183 84.1781 17.9759Z" fill="#EF3829"/>
<path d="M9.69187 57.2461L8.34725 65.0446H3L6.94008 42.0596L15.1173 42.0754C17.6502 42.0754 19.6411 42.7858 21.09 44.2066C22.5492 45.6273 23.1903 47.4691 23.0131 49.7318C22.888 51.2789 22.3981 52.6207 21.5434 53.7573C20.6886 54.894 19.5577 55.7622 18.1505 56.3621C16.7538 56.962 15.185 57.2619 13.4443 57.2619L9.69187 57.2461ZM10.4267 52.968L13.6476 52.9996C15.0026 52.968 16.0398 52.526 16.759 51.6735C17.4782 50.8105 17.7649 49.7528 17.6189 48.5005C17.5355 47.8585 17.2906 47.3533 16.8841 46.985C16.488 46.6061 15.9616 46.3956 15.3049 46.3535L11.5681 46.3377L10.4267 52.968Z" fill="#EF3829"/>
<path d="M35.3649 52.7786C34.8125 52.6944 34.2809 52.6418 33.7701 52.6207C32.2274 52.5786 31.0496 53.1154 30.2366 54.2309L28.3291 65.0446H23.1851L26.1245 47.9637L30.9245 47.9479L30.5336 50.1896C31.6385 48.4636 32.9414 47.6006 34.4424 47.6006C34.8698 47.6006 35.4014 47.6743 36.0372 47.8216L35.3649 52.7786Z" fill="#EF3829"/>
<path d="M43.1982 65.3603C41.6867 65.3498 40.3369 64.992 39.1486 64.2869C37.9708 63.5712 37.0796 62.5819 36.475 61.319C35.8704 60.0456 35.6307 58.6459 35.7558 57.1198L35.8027 56.6778C36.0841 53.8678 37.0483 51.6472 38.6952 50.016C40.3525 48.3742 42.3799 47.5848 44.7773 47.648C46.2262 47.669 47.4666 48.0427 48.4985 48.7688C49.5304 49.4845 50.2861 50.479 50.7656 51.7525C51.2451 53.0154 51.4014 54.4362 51.2347 56.0148L50.9376 58.1775H40.8685C40.8894 59.0721 41.1395 59.7983 41.619 60.3561C42.0985 60.9138 42.7969 61.2085 43.7141 61.2401C45.2047 61.2822 46.5441 60.7034 47.7324 59.5036L49.89 62.3925C49.2542 63.3081 48.363 64.029 47.2164 64.5552C46.0802 65.0709 44.8346 65.3393 43.4796 65.3603H43.1982ZM44.449 51.7367C43.7193 51.7156 43.0835 51.9472 42.5415 52.4313C42.0099 52.9154 41.546 53.7258 41.1499 54.8624H46.2939L46.3877 54.4046C46.4503 54.0362 46.4607 53.6889 46.419 53.3627C46.2418 52.3102 45.5851 51.7682 44.449 51.7367Z" fill="#EF3829"/>
<path d="M68.5741 56.52C68.3552 58.3091 67.8914 59.9035 67.1826 61.3032C66.4738 62.6924 65.593 63.7291 64.5402 64.4132C63.4979 65.0867 62.3305 65.4077 61.0379 65.3761C59.5578 65.334 58.3591 64.7447 57.4418 63.6081L55.9096 71.6118H50.7656L54.8308 47.9637L59.5839 47.9479L59.3181 49.5739C60.4542 48.2479 61.7936 47.6059 63.3363 47.648C64.9832 47.669 66.2653 48.2637 67.1826 49.4319C68.1103 50.6001 68.6054 52.1945 68.6679 54.2151C68.6888 54.8676 68.6575 55.6359 68.5741 56.52ZM63.5708 54.4046C63.5187 52.6681 62.935 51.784 61.8197 51.7525C60.7357 51.6893 59.834 52.1366 59.1148 53.0943L57.9109 59.8667C58.234 60.7823 58.9532 61.2506 60.0686 61.2717C61.8927 61.3032 63.0132 59.7193 63.4301 56.52C63.5239 55.5096 63.5708 54.8045 63.5708 54.4046Z" fill="#EF3829"/>
<path d="M79.0341 65.0446C78.8882 64.6342 78.8152 64.1185 78.8152 63.4976C77.6582 64.7815 76.2771 65.4024 74.6719 65.3603C73.2021 65.3393 71.9826 64.8447 71.0132 63.8764C70.0438 62.9082 69.5904 61.7347 69.6529 60.3561C69.7051 58.5038 70.4712 57.083 71.9513 56.0937C73.4315 55.0939 75.4536 54.594 78.0178 54.594L79.7377 54.6256L79.9253 53.6626L79.9878 52.8259C79.9461 51.8682 79.4719 51.3736 78.565 51.342C77.4393 51.321 76.7461 51.9472 76.4855 53.2206L71.3259 53.2364C71.378 52.0892 71.7481 51.0947 72.436 50.2528C73.124 49.4003 74.0569 48.7478 75.2347 48.2952C76.423 47.8322 77.6842 47.6164 79.0184 47.648C80.3005 47.6796 81.4211 47.9532 82.38 48.4689C83.3494 48.9741 84.0738 49.6844 84.5533 50.6001C85.0328 51.5051 85.2152 52.5523 85.1005 53.7415L83.8341 61.7768L83.7559 62.7556C83.7142 63.5344 83.8132 64.1974 84.053 64.7447L84.0374 65.0446H79.0341ZM76.0947 61.6032C77.1474 61.6453 78.0699 61.1769 78.8621 60.1982L79.3781 57.4514L78.0491 57.4356C77.2256 57.4566 76.5168 57.7039 75.9227 58.1775C75.3285 58.6406 74.9793 59.2773 74.8751 60.0877C74.823 60.5192 74.9012 60.877 75.1096 61.1612C75.3285 61.4348 75.6569 61.5821 76.0947 61.6032Z" fill="#EF3829"/>
<path d="M87.008 56.4726C87.2061 54.7571 87.6699 53.2048 88.3996 51.8156C89.1396 50.4264 90.0621 49.3792 91.167 48.6741C92.2719 47.9585 93.5227 47.6112 94.9195 47.6322C96.6185 47.6743 97.9006 48.29 98.7657 49.4792L99.313 47.9479L104.066 47.9637L101.299 64.3816C100.986 66.6969 99.9801 68.5229 98.281 69.8595C96.582 71.1961 94.466 71.8328 91.9331 71.7696C90.8074 71.7486 89.7182 71.5223 88.6654 71.0908C87.6126 70.6593 86.711 70.0068 85.9605 69.1333L88.3996 66.0707C89.3064 67.2284 90.4843 67.823 91.9331 67.8546C94.2159 67.8967 95.6647 66.6706 96.2797 64.1764L96.4048 63.6554C95.2374 64.8131 93.9501 65.3814 92.5429 65.3603C91.4589 65.3498 90.5051 65.0762 89.6817 64.5395C88.8582 63.9922 88.212 63.2081 87.7429 62.1873C87.2738 61.1664 87.008 60.0298 86.9455 58.7774C86.9038 58.146 86.9247 57.3777 87.008 56.4726ZM92.0895 58.1617C92.0895 59.13 92.2615 59.8825 92.6055 60.4192C92.9494 60.9559 93.4498 61.2348 94.1064 61.2559C95.0758 61.298 95.9566 60.9191 96.7488 60.1193L98.0778 52.8733C97.6608 52.1366 96.9625 51.7577 95.9827 51.7367C94.982 51.7156 94.1429 52.1471 93.4654 53.0312C92.7879 53.9047 92.3605 55.0571 92.1833 56.4884C92.1208 57.1514 92.0895 57.7092 92.0895 58.1617Z" fill="#EF3829"/>
<path d="M114.041 47.648C115.553 47.669 116.861 48.0532 117.966 48.8004C119.071 49.5371 119.878 50.5685 120.389 51.8945C120.91 53.2206 121.098 54.694 120.952 56.3147L120.921 56.662C120.629 59.2826 119.665 61.398 118.028 63.0082C116.392 64.6184 114.37 65.4024 111.962 65.3603C110.461 65.3393 109.163 64.9657 108.069 64.2395C106.974 63.5028 106.161 62.4767 105.63 61.1612C105.108 59.8456 104.921 58.3828 105.067 56.7725C105.327 53.9731 106.276 51.7419 107.912 50.0791C109.559 48.4163 111.602 47.6059 114.041 47.648ZM110.211 56.7725L110.164 57.7039C110.018 60.0509 110.727 61.2454 112.29 61.2875C114.312 61.3506 115.485 59.693 115.808 56.3147L115.871 54.8782C115.892 53.931 115.714 53.1785 115.339 52.6207C114.974 52.0524 114.432 51.7577 113.713 51.7367C112.764 51.7051 111.983 52.0998 111.368 52.9207C110.763 53.731 110.377 55.015 110.211 56.7725Z" fill="#EF3829"/>
<path d="M40.1962 18.4179C40.0607 20.0281 39.5343 21.4594 38.617 22.7118C37.7102 23.9642 36.5115 24.9271 35.0209 25.6007C33.5408 26.2742 31.9356 26.5952 30.2053 26.5637C27.8287 26.511 25.9577 25.7375 24.5922 24.2431C23.2268 22.7486 22.4815 20.7227 22.3564 18.1653C22.2626 16.4604 22.445 14.6028 22.9036 12.5927C23.3727 10.5825 24.1284 8.83552 25.1707 7.35159C26.2235 5.85715 27.4587 4.74157 28.8763 4.00487C30.3043 3.25765 31.8626 2.89983 33.5512 2.9314C36.032 2.9735 37.9916 3.72598 39.4301 5.18886C40.8789 6.65173 41.6659 8.66713 41.791 11.2351L36.4594 11.2193C36.4802 9.81954 36.2301 8.81973 35.7089 8.21985C35.1877 7.61996 34.3643 7.29897 33.2385 7.25688C30.4242 7.16216 28.7095 9.37226 28.0945 13.8872C27.8131 15.9289 27.6724 17.3865 27.6724 18.26C27.6203 20.849 28.5688 22.1803 30.518 22.254C31.7792 22.2961 32.7851 21.9856 33.5356 21.3226C34.2861 20.649 34.7656 19.7018 34.974 18.481L40.1962 18.4179Z" stroke="white" stroke-width="4" mask="url(#path-1-outside-1)"/>
<path d="M46.8568 26.2479H41.6972L45.8561 2H51.0158L46.8568 26.2479Z" stroke="white" stroke-width="4" mask="url(#path-1-outside-1)"/>
<path d="M59.662 26.2479C59.5161 25.8375 59.4431 25.3218 59.4431 24.7009C58.2861 25.9848 56.905 26.6058 55.2998 26.5637C53.8301 26.5426 52.6106 26.048 51.6412 25.0797C50.6718 24.1115 50.2184 22.938 50.2809 21.5594C50.333 19.7071 51.0992 18.2863 52.5793 17.297C54.0594 16.2972 56.0816 15.7973 58.6458 15.7973L60.3656 15.8289L60.5533 14.8659L60.6158 14.0292C60.5741 13.0715 60.0998 12.5769 59.193 12.5453C58.0673 12.5243 57.3741 13.1505 57.1135 14.4239L51.9539 14.4397C52.006 13.2925 52.376 12.298 53.064 11.4561C53.7519 10.6036 54.6848 9.95109 55.8627 9.49855C57.051 9.03548 58.3122 8.81973 59.6464 8.8513C60.9285 8.88288 62.049 9.15651 63.008 9.6722C63.9774 10.1774 64.7018 10.8878 65.1813 11.8034C65.6608 12.7085 65.8432 13.7556 65.7285 14.9449L64.4621 22.9801L64.3839 23.9589C64.3422 24.7377 64.4412 25.4007 64.6809 25.948L64.6653 26.2479H59.662ZM56.7226 22.8065C57.7754 22.8486 58.6979 22.3803 59.4901 21.4015L60.006 18.6547L58.677 18.6389C57.8536 18.6599 57.1448 18.9072 56.5506 19.3808C55.9565 19.8439 55.6073 20.4806 55.5031 21.291C55.451 21.7225 55.5291 22.0803 55.7376 22.3645C55.9565 22.6381 56.2848 22.7854 56.7226 22.8065Z" stroke="white" stroke-width="4" mask="url(#path-1-outside-1)"/>
<path d="M78.9715 13.9819C78.4191 13.8977 77.8875 13.8451 77.3767 13.824C75.8341 13.7819 74.6562 14.3187 73.8432 15.4342L71.9357 26.2479H66.7917L69.7311 9.16703L74.5311 9.15125L74.1403 11.3929C75.2451 9.66693 76.5481 8.80394 78.0491 8.80394C78.4764 8.80394 79.008 8.87761 79.6439 9.02495L78.9715 13.9819Z" stroke="white" stroke-width="4" mask="url(#path-1-outside-1)"/>
<path d="M88.0087 8.8513C89.5201 8.87235 90.8283 9.25649 91.9331 10.0037C93.038 10.7404 93.8458 11.7718 94.3566 13.0978C94.8778 14.4239 95.0654 15.8973 94.9195 17.518L94.8882 17.8653C94.5963 20.4859 93.6322 22.6013 91.9957 24.2115C90.3592 25.8217 88.337 26.6058 85.9292 26.5637C84.4282 26.5426 83.1305 26.169 82.036 25.4428C80.9416 24.7061 80.1285 23.68 79.597 22.3645C79.0758 21.0489 78.8882 19.5861 79.0341 17.9759C79.2947 15.1764 80.2432 12.9452 81.8797 11.2824C83.5266 9.61958 85.5696 8.80921 88.0087 8.8513ZM84.1781 17.9759L84.1312 18.9072C83.9852 21.2542 84.694 22.4487 86.2576 22.4908C88.2797 22.5539 89.4524 20.8963 89.7755 17.518L89.838 16.0815C89.8589 15.1343 89.6817 14.3818 89.3064 13.824C88.9416 13.2557 88.3996 12.961 87.6804 12.94C86.7318 12.9084 85.9501 13.3031 85.3351 14.124C84.7305 14.9343 84.3448 16.2183 84.1781 17.9759Z" stroke="white" stroke-width="4" mask="url(#path-1-outside-1)"/>
<path d="M9.69187 57.2461L8.34725 65.0446H3L6.94008 42.0596L15.1173 42.0754C17.6502 42.0754 19.6411 42.7858 21.09 44.2066C22.5492 45.6273 23.1903 47.4691 23.0131 49.7318C22.888 51.2789 22.3981 52.6207 21.5434 53.7573C20.6886 54.894 19.5577 55.7622 18.1505 56.3621C16.7538 56.962 15.185 57.2619 13.4443 57.2619L9.69187 57.2461ZM10.4267 52.968L13.6476 52.9996C15.0026 52.968 16.0398 52.526 16.759 51.6735C17.4782 50.8105 17.7649 49.7528 17.6189 48.5005C17.5355 47.8585 17.2906 47.3533 16.8841 46.985C16.488 46.6061 15.9616 46.3956 15.3049 46.3535L11.5681 46.3377L10.4267 52.968Z" stroke="white" stroke-width="4" mask="url(#path-1-outside-1)"/>
<path d="M35.3649 52.7786C34.8125 52.6944 34.2809 52.6418 33.7701 52.6207C32.2274 52.5786 31.0496 53.1154 30.2366 54.2309L28.3291 65.0446H23.1851L26.1245 47.9637L30.9245 47.9479L30.5336 50.1896C31.6385 48.4636 32.9414 47.6006 34.4424 47.6006C34.8698 47.6006 35.4014 47.6743 36.0372 47.8216L35.3649 52.7786Z" stroke="white" stroke-width="4" mask="url(#path-1-outside-1)"/>
<path d="M43.1982 65.3603C41.6867 65.3498 40.3369 64.992 39.1486 64.2869C37.9708 63.5712 37.0796 62.5819 36.475 61.319C35.8704 60.0456 35.6307 58.6459 35.7558 57.1198L35.8027 56.6778C36.0841 53.8678 37.0483 51.6472 38.6952 50.016C40.3525 48.3742 42.3799 47.5848 44.7773 47.648C46.2262 47.669 47.4666 48.0427 48.4985 48.7688C49.5304 49.4845 50.2861 50.479 50.7656 51.7525C51.2451 53.0154 51.4014 54.4362 51.2347 56.0148L50.9376 58.1775H40.8685C40.8894 59.0721 41.1395 59.7983 41.619 60.3561C42.0985 60.9138 42.7969 61.2085 43.7141 61.2401C45.2047 61.2822 46.5441 60.7034 47.7324 59.5036L49.89 62.3925C49.2542 63.3081 48.363 64.029 47.2164 64.5552C46.0802 65.0709 44.8346 65.3393 43.4796 65.3603H43.1982ZM44.449 51.7367C43.7193 51.7156 43.0835 51.9472 42.5415 52.4313C42.0099 52.9154 41.546 53.7258 41.1499 54.8624H46.2939L46.3877 54.4046C46.4503 54.0362 46.4607 53.6889 46.419 53.3627C46.2418 52.3102 45.5851 51.7682 44.449 51.7367Z" stroke="white" stroke-width="4" mask="url(#path-1-outside-1)"/>
<path d="M68.5741 56.52C68.3552 58.3091 67.8914 59.9035 67.1826 61.3032C66.4738 62.6924 65.593 63.7291 64.5402 64.4132C63.4979 65.0867 62.3305 65.4077 61.0379 65.3761C59.5578 65.334 58.3591 64.7447 57.4418 63.6081L55.9096 71.6118H50.7656L54.8308 47.9637L59.5839 47.9479L59.3181 49.5739C60.4542 48.2479 61.7936 47.6059 63.3363 47.648C64.9832 47.669 66.2653 48.2637 67.1826 49.4319C68.1103 50.6001 68.6054 52.1945 68.6679 54.2151C68.6888 54.8676 68.6575 55.6359 68.5741 56.52ZM63.5708 54.4046C63.5187 52.6681 62.935 51.784 61.8197 51.7525C60.7357 51.6893 59.834 52.1366 59.1148 53.0943L57.9109 59.8667C58.234 60.7823 58.9532 61.2506 60.0686 61.2717C61.8927 61.3032 63.0132 59.7193 63.4301 56.52C63.5239 55.5096 63.5708 54.8045 63.5708 54.4046Z" stroke="white" stroke-width="4" mask="url(#path-1-outside-1)"/>
<path d="M79.0341 65.0446C78.8882 64.6342 78.8152 64.1185 78.8152 63.4976C77.6582 64.7815 76.2771 65.4024 74.6719 65.3603C73.2021 65.3393 71.9826 64.8447 71.0132 63.8764C70.0438 62.9082 69.5904 61.7347 69.6529 60.3561C69.7051 58.5038 70.4712 57.083 71.9513 56.0937C73.4315 55.0939 75.4536 54.594 78.0178 54.594L79.7377 54.6256L79.9253 53.6626L79.9878 52.8259C79.9461 51.8682 79.4719 51.3736 78.565 51.342C77.4393 51.321 76.7461 51.9472 76.4855 53.2206L71.3259 53.2364C71.378 52.0892 71.7481 51.0947 72.436 50.2528C73.124 49.4003 74.0569 48.7478 75.2347 48.2952C76.423 47.8322 77.6842 47.6164 79.0184 47.648C80.3005 47.6796 81.4211 47.9532 82.38 48.4689C83.3494 48.9741 84.0738 49.6844 84.5533 50.6001C85.0328 51.5051 85.2152 52.5523 85.1005 53.7415L83.8341 61.7768L83.7559 62.7556C83.7142 63.5344 83.8132 64.1974 84.053 64.7447L84.0374 65.0446H79.0341ZM76.0947 61.6032C77.1474 61.6453 78.0699 61.1769 78.8621 60.1982L79.3781 57.4514L78.0491 57.4356C77.2256 57.4566 76.5168 57.7039 75.9227 58.1775C75.3285 58.6406 74.9793 59.2773 74.8751 60.0877C74.823 60.5192 74.9012 60.877 75.1096 61.1612C75.3285 61.4348 75.6569 61.5821 76.0947 61.6032Z" stroke="white" stroke-width="4" mask="url(#path-1-outside-1)"/>
<path d="M87.008 56.4726C87.2061 54.7571 87.6699 53.2048 88.3996 51.8156C89.1396 50.4264 90.0621 49.3792 91.167 48.6741C92.2719 47.9585 93.5227 47.6112 94.9195 47.6322C96.6185 47.6743 97.9006 48.29 98.7657 49.4792L99.313 47.9479L104.066 47.9637L101.299 64.3816C100.986 66.6969 99.9801 68.5229 98.281 69.8595C96.582 71.1961 94.466 71.8328 91.9331 71.7696C90.8074 71.7486 89.7182 71.5223 88.6654 71.0908C87.6126 70.6593 86.711 70.0068 85.9605 69.1333L88.3996 66.0707C89.3064 67.2284 90.4843 67.823 91.9331 67.8546C94.2159 67.8967 95.6647 66.6706 96.2797 64.1764L96.4048 63.6554C95.2374 64.8131 93.9501 65.3814 92.5429 65.3603C91.4589 65.3498 90.5051 65.0762 89.6817 64.5395C88.8582 63.9922 88.212 63.2081 87.7429 62.1873C87.2738 61.1664 87.008 60.0298 86.9455 58.7774C86.9038 58.146 86.9247 57.3777 87.008 56.4726ZM92.0895 58.1617C92.0895 59.13 92.2615 59.8825 92.6055 60.4192C92.9494 60.9559 93.4498 61.2348 94.1064 61.2559C95.0758 61.298 95.9566 60.9191 96.7488 60.1193L98.0778 52.8733C97.6608 52.1366 96.9625 51.7577 95.9827 51.7367C94.982 51.7156 94.1429 52.1471 93.4654 53.0312C92.7879 53.9047 92.3605 55.0571 92.1833 56.4884C92.1208 57.1514 92.0895 57.7092 92.0895 58.1617Z" stroke="white" stroke-width="4" mask="url(#path-1-outside-1)"/>
<path d="M114.041 47.648C115.553 47.669 116.861 48.0532 117.966 48.8004C119.071 49.5371 119.878 50.5685 120.389 51.8945C120.91 53.2206 121.098 54.694 120.952 56.3147L120.921 56.662C120.629 59.2826 119.665 61.398 118.028 63.0082C116.392 64.6184 114.37 65.4024 111.962 65.3603C110.461 65.3393 109.163 64.9657 108.069 64.2395C106.974 63.5028 106.161 62.4767 105.63 61.1612C105.108 59.8456 104.921 58.3828 105.067 56.7725C105.327 53.9731 106.276 51.7419 107.912 50.0791C109.559 48.4163 111.602 47.6059 114.041 47.648ZM110.211 56.7725L110.164 57.7039C110.018 60.0509 110.727 61.2454 112.29 61.2875C114.312 61.3506 115.485 59.693 115.808 56.3147L115.871 54.8782C115.892 53.931 115.714 53.1785 115.339 52.6207C114.974 52.0524 114.432 51.7577 113.713 51.7367C112.764 51.7051 111.983 52.0998 111.368 52.9207C110.763 53.731 110.377 55.015 110.211 56.7725Z" stroke="white" stroke-width="4" mask="url(#path-1-outside-1)"/>
</g>
<defs>
<filter id="filter0_d" x="0.627991" y="0" width="124.372" height="76.7739" filterUnits="userSpaceOnUse" color-interpolation-filters="sRGB">
<feFlood flood-opacity="0" result="BackgroundImageFix"/>
<feColorMatrix in="SourceAlpha" type="matrix" values="0 0 0 0 0 0 0 0 0 0 0 0 0 0 0 0 0 0 127 0"/>
<feOffset dx="2" dy="3"/>
<feColorMatrix type="matrix" values="0 0 0 0 0.741176 0 0 0 0 0.741176 0 0 0 0 0.741176 0 0 0 1 0"/>
<feBlend mode="normal" in2="BackgroundImageFix" result="effect1_dropShadow"/>
<feBlend mode="normal" in="SourceGraphic" in2="effect1_dropShadow" result="shape"/>
</filter>
</defs>
</svg>
