<svg width="265" height="137" viewBox="0 0 265 137" fill="none" xmlns="http://www.w3.org/2000/svg">
<rect width="265" height="137" fill="#FCAB10"/>
<g filter="url(#filter0_d)">
<path d="M85.4189 111.329C84.2979 112.642 82.6641 113.66 80.5176 114.385C78.3711 115.096 75.9922 115.431 73.3809 115.39C70.8789 115.362 68.7666 114.733 67.0439 113.503C65.3213 112.272 64.0908 110.557 63.3525 108.355C62.6143 106.154 62.416 103.673 62.7578 100.911L62.9219 99.6807C63.5508 95.0459 65.1777 91.375 67.8027 88.668C70.4414 85.9609 73.668 84.6416 77.4824 84.71C80.8184 84.7646 83.3818 85.6602 85.1729 87.3965C86.9639 89.1328 87.9619 91.6416 88.167 94.9229L81.4404 94.9023C81.3447 93.3027 80.9482 92.1338 80.251 91.3955C79.5674 90.6572 78.5898 90.2676 77.3184 90.2266C75.4316 90.1582 73.873 90.9033 72.6426 92.4619C71.4121 94.0068 70.5713 96.2217 70.1201 99.1064C69.7373 101.567 69.6006 103.481 69.71 104.849C69.915 108.144 71.3984 109.812 74.1602 109.853C75.8281 109.88 77.291 109.477 78.5488 108.643L79.4717 103.987H74.6113L75.4727 99.0449H87.3467L85.4189 111.329ZM101.395 104.459H97.498L95.6523 115H88.6387L93.8066 85.1406L104.348 85.1611C107.725 85.1611 110.322 85.9541 112.141 87.54C113.973 89.1123 114.793 91.2656 114.602 94C114.451 96.1602 113.829 97.9512 112.735 99.373C111.642 100.781 110.11 101.896 108.142 102.716L112.161 114.651V115H104.676L101.395 104.459ZM98.4414 98.9014L102.543 98.9424C103.664 98.9424 104.635 98.6689 105.455 98.1221C106.289 97.5752 106.884 96.8301 107.239 95.8867C107.595 94.9297 107.697 94.0068 107.547 93.1182C107.273 91.6006 106.303 90.8008 104.635 90.7188L99.877 90.6982L98.4414 98.9014ZM132.956 109.422H123.42L120.774 115H113.043L128.854 85.1406H135.458L140.975 115H133.674L132.956 109.422ZM126.045 103.864H132.238L130.926 93.5693L126.045 103.864ZM167.922 90.6982H159.227L155.022 115H147.988L152.213 90.6982H143.661L144.646 85.1406H168.886L167.922 90.6982ZM174.3 115H167.286L172.475 85.1406H179.468L174.3 115ZM195.73 106.92C196.031 105.375 195.197 104.179 193.229 103.331L189.865 101.937C185.148 99.8174 182.906 96.9326 183.139 93.2822C183.234 91.6143 183.809 90.1309 184.861 88.832C185.914 87.5195 187.37 86.501 189.229 85.7764C191.089 85.0518 193.119 84.7031 195.32 84.7305C198.273 84.7852 200.646 85.6465 202.437 87.3145C204.241 88.9824 205.13 91.2178 205.103 94.0205H198.13C198.171 92.8721 197.925 91.9561 197.392 91.2725C196.872 90.5752 196.011 90.2129 194.808 90.1855C193.632 90.1582 192.593 90.4316 191.69 91.0059C190.788 91.5801 190.255 92.3525 190.091 93.3232C189.831 94.6904 190.843 95.8115 193.126 96.6865C195.423 97.5615 197.091 98.3135 198.13 98.9424C201.397 100.897 202.929 103.536 202.724 106.858C202.614 108.581 202.061 110.092 201.062 111.391C200.064 112.689 198.677 113.694 196.899 114.405C195.136 115.116 193.153 115.458 190.952 115.431C189.339 115.403 187.842 115.15 186.461 114.672C185.08 114.193 183.897 113.496 182.913 112.58C180.917 110.734 179.96 108.308 180.042 105.3L187.076 105.32C186.994 106.852 187.288 108.014 187.958 108.807C188.628 109.586 189.756 109.976 191.342 109.976C192.518 109.976 193.495 109.709 194.274 109.176C195.067 108.629 195.553 107.877 195.73 106.92Z" fill="white"/>
<path d="M85.4189 111.329L86.9397 112.628L87.3071 112.198L87.3948 111.639L85.4189 111.329ZM80.5176 114.385L81.1464 116.283L81.1573 116.28L80.5176 114.385ZM73.3809 115.39L73.4123 113.39L73.4027 113.39L73.3809 115.39ZM62.7578 100.911L60.7754 100.647L60.7741 100.656L60.773 100.665L62.7578 100.911ZM62.9219 99.6807L60.94 99.4117L60.9394 99.4163L62.9219 99.6807ZM67.8027 88.668L66.3705 87.2719L66.3669 87.2757L67.8027 88.668ZM77.4824 84.71L77.4466 86.7096L77.4496 86.7097L77.4824 84.71ZM88.167 94.9229L88.1609 96.9228L90.2963 96.9294L90.1631 94.7981L88.167 94.9229ZM81.4404 94.9023L79.444 95.0218L79.5562 96.8966L81.4343 96.9023L81.4404 94.9023ZM80.251 91.3955L78.7835 92.7543L78.7902 92.7616L78.797 92.7688L80.251 91.3955ZM77.3184 90.2266L77.2459 92.2253L77.2539 92.2255L77.3184 90.2266ZM72.6426 92.4619L74.207 93.7079L74.2123 93.7012L72.6426 92.4619ZM70.1201 99.1064L68.1441 98.7974L68.1439 98.799L70.1201 99.1064ZM69.71 104.849L71.7061 104.724L71.705 104.707L71.7036 104.689L69.71 104.849ZM74.1602 109.853L74.1929 107.853L74.1899 107.853L74.1602 109.853ZM78.5488 108.643L79.654 110.309L80.3486 109.849L80.5107 109.031L78.5488 108.643ZM79.4717 103.987L81.4335 104.376L81.9071 101.987H79.4717V103.987ZM74.6113 103.987L72.641 103.644L72.2326 105.987H74.6113V103.987ZM75.4727 99.0449V97.0449H73.7911L73.5024 98.7015L75.4727 99.0449ZM87.3467 99.0449L89.3225 99.355L89.685 97.0449H87.3467V99.0449ZM83.8982 110.03C83.074 110.995 81.7865 111.846 79.8779 112.49L81.1573 116.28C83.5416 115.475 85.5217 114.288 86.9397 112.628L83.8982 110.03ZM79.8888 112.486C77.9853 113.117 75.8335 113.428 73.4123 113.39L73.3494 117.389C76.1508 117.433 78.7569 117.075 81.1464 116.283L79.8888 112.486ZM73.4027 113.39C71.2338 113.366 69.5388 112.827 68.2064 111.875L65.8815 115.13C67.9944 116.64 70.524 117.359 73.359 117.39L73.4027 113.39ZM68.2064 111.875C66.86 110.914 65.8666 109.562 65.2487 107.719L61.4564 108.991C62.315 111.552 63.7826 113.631 65.8815 115.13L68.2064 111.875ZM65.2487 107.719C64.6226 105.853 64.4304 103.68 64.7427 101.157L60.773 100.665C60.4016 103.666 60.6059 106.456 61.4564 108.991L65.2487 107.719ZM64.7403 101.175L64.9043 99.945L60.9394 99.4163L60.7754 100.647L64.7403 101.175ZM64.9037 99.9496C65.4892 95.6347 66.976 92.3935 69.2385 90.0603L66.3669 87.2757C63.3795 90.3565 61.6123 94.4571 60.94 99.4117L64.9037 99.9496ZM69.2349 90.064C71.4845 87.7562 74.178 86.6511 77.4466 86.7096L77.5183 82.7103C73.1579 82.6321 69.3984 84.1657 66.3706 87.272L69.2349 90.064ZM77.4496 86.7097C80.4526 86.7589 82.4637 87.5556 83.7807 88.8325L86.565 85.9605C84.3 83.7647 81.1841 82.7704 77.5152 82.7102L77.4496 86.7097ZM83.7807 88.8325C85.1128 90.1239 85.9868 92.1017 86.1709 95.0476L90.1631 94.7981C89.9371 91.1815 88.8149 88.1418 86.565 85.9605L83.7807 88.8325ZM88.1731 92.9229L81.4465 92.9024L81.4343 96.9023L88.1609 96.9228L88.1731 92.9229ZM83.4369 94.7829C83.3284 92.9704 82.8651 91.2506 81.705 90.0223L78.797 92.7688C79.0314 93.017 79.361 93.6351 79.444 95.0218L83.4369 94.7829ZM81.7185 90.0367C80.5815 88.8087 79.0398 88.2811 77.3828 88.2276L77.2539 92.2255C78.1399 92.2541 78.5533 92.5057 78.7835 92.7543L81.7185 90.0367ZM77.3908 88.2279C74.8291 88.1351 72.6743 89.194 71.0728 91.2226L74.2123 93.7012C75.0718 92.6126 76.0341 92.1813 77.2459 92.2253L77.3908 88.2279ZM71.0781 91.2159C69.5523 93.1316 68.6251 95.7224 68.1441 98.7974L72.0961 99.4155C72.5175 96.721 73.2719 94.882 74.207 93.7079L71.0781 91.2159ZM68.1439 98.799C67.7531 101.311 67.5883 103.407 67.7163 105.008L71.7036 104.689C71.6129 103.556 71.7215 101.824 72.0964 99.4139L68.1439 98.799ZM67.7138 104.973C67.8314 106.861 68.3302 108.605 69.4818 109.9C70.6817 111.249 72.332 111.826 74.1305 111.852L74.1899 107.853C73.2266 107.838 72.7543 107.561 72.4708 107.242C72.1391 106.869 71.7936 106.131 71.7061 104.724L67.7138 104.973ZM74.1274 111.852C76.1552 111.886 78.024 111.39 79.654 110.309L77.4436 106.976C76.558 107.563 75.5011 107.874 74.1929 107.853L74.1274 111.852ZM80.5107 109.031L81.4335 104.376L77.5099 103.598L76.587 108.254L80.5107 109.031ZM79.4717 101.987H74.6113V105.987H79.4717V101.987ZM76.5816 104.331L77.443 99.3883L73.5024 98.7015L72.641 103.644L76.5816 104.331ZM75.4727 101.045H87.3467V97.0449H75.4727V101.045ZM85.3709 98.7349L83.4431 111.019L87.3948 111.639L89.3225 99.355L85.3709 98.7349ZM101.395 104.459L103.304 103.865L102.867 102.459H101.395V104.459ZM97.498 104.459V102.459H95.8178L95.528 104.114L97.498 104.459ZM95.6523 115V117H97.3326L97.6224 115.345L95.6523 115ZM88.6387 115L86.668 114.659L86.2628 117H88.6387V115ZM93.8066 85.1406L93.8105 83.1406L92.1236 83.1373L91.8359 84.7995L93.8066 85.1406ZM104.348 85.1611L104.344 87.1611H104.348V85.1611ZM112.141 87.54L110.826 89.0473L110.832 89.0525L110.838 89.0578L112.141 87.54ZM114.602 94L112.606 93.8603L112.606 93.8611L114.602 94ZM112.735 99.373L114.315 100.6L114.321 100.592L112.735 99.373ZM108.142 102.716L107.372 100.87L105.651 101.587L106.246 103.354L108.142 102.716ZM112.161 114.651H114.161V114.324L114.057 114.013L112.161 114.651ZM112.161 115V117H114.161V115H112.161ZM104.676 115L102.766 115.594L103.204 117H104.676V115ZM98.4414 98.9014L96.4713 98.5566L96.0652 100.878L98.4214 100.901L98.4414 98.9014ZM102.543 98.9424L102.523 100.942L102.533 100.942H102.543V98.9424ZM105.455 98.1221L104.358 96.4496L104.352 96.4538L104.346 96.458L105.455 98.1221ZM107.239 95.8867L109.111 96.5919L109.114 96.5831L107.239 95.8867ZM107.547 93.1182L109.519 92.7844L109.517 92.774L109.515 92.7635L107.547 93.1182ZM104.635 90.7188L104.733 88.7212L104.688 88.719L104.643 88.7188L104.635 90.7188ZM99.877 90.6982L99.8856 88.6983L98.1978 88.691L97.9069 90.3535L99.877 90.6982ZM101.395 102.459H97.498V106.459H101.395V102.459ZM95.528 104.114L93.6823 114.655L97.6224 115.345L99.4681 104.804L95.528 104.114ZM95.6523 113H88.6387V117H95.6523V113ZM90.6094 115.341L95.7773 85.4817L91.8359 84.7995L86.668 114.659L90.6094 115.341ZM93.8027 87.1406L104.344 87.1611L104.352 83.1611L93.8105 83.1406L93.8027 87.1406ZM104.348 87.1611C107.433 87.1611 109.495 87.886 110.826 89.0473L113.455 86.0328C111.15 84.0222 108.016 83.1611 104.348 83.1611V87.1611ZM110.838 89.0578C112.12 90.1582 112.761 91.659 112.606 93.8603L116.597 94.1397C116.825 90.8722 115.825 88.0664 113.443 86.0223L110.838 89.0578ZM112.606 93.8611C112.478 95.7109 111.958 97.1033 111.15 98.1536L114.321 100.592C115.7 98.799 116.425 96.6094 116.597 94.1389L112.606 93.8611ZM111.156 98.1462C110.312 99.2324 109.085 100.156 107.372 100.87L108.911 104.562C111.136 103.635 112.971 102.33 114.315 100.6L111.156 98.1462ZM106.246 103.354L110.266 115.29L114.057 114.013L110.037 102.078L106.246 103.354ZM110.161 114.651V115H114.161V114.651H110.161ZM112.161 113H104.676V117H112.161V113ZM106.585 114.406L103.304 103.865L99.4849 105.053L102.766 115.594L106.585 114.406ZM98.4214 100.901L102.523 100.942L102.563 96.9425L98.4614 96.9015L98.4214 100.901ZM102.543 100.942C104.003 100.942 105.372 100.581 106.564 99.7862L104.346 96.458C103.897 96.7568 103.325 96.9424 102.543 96.9424V100.942ZM106.552 99.7946C107.744 99.0127 108.608 97.927 109.111 96.5919L105.368 95.1815C105.16 95.7332 104.834 96.1376 104.358 96.4496L106.552 99.7946ZM109.114 96.5831C109.575 95.3416 109.735 94.063 109.519 92.7844L105.575 93.4519C105.659 93.9507 105.614 94.5178 105.364 95.1903L109.114 96.5831ZM109.515 92.7635C109.314 91.6478 108.814 90.6016 107.886 89.8366C106.974 89.0856 105.857 88.7764 104.733 88.7212L104.537 92.7163C105.081 92.7431 105.283 92.8748 105.342 92.9237C105.384 92.9585 105.506 93.071 105.579 93.4728L109.515 92.7635ZM104.643 88.7188L99.8856 88.6983L99.8683 92.6982L104.626 92.7187L104.643 88.7188ZM97.9069 90.3535L96.4713 98.5566L100.411 99.2461L101.847 91.043L97.9069 90.3535ZM132.956 109.422L134.94 109.167L134.715 107.422H132.956V109.422ZM123.42 109.422V107.422H122.155L121.613 108.565L123.42 109.422ZM120.774 115V117H122.039L122.581 115.857L120.774 115ZM113.043 115L111.275 114.064L109.721 117H113.043V115ZM128.854 85.1406V83.1406H127.65L127.087 84.2047L128.854 85.1406ZM135.458 85.1406L137.425 84.7773L137.122 83.1406H135.458V85.1406ZM140.975 115V117H143.378L142.941 114.637L140.975 115ZM133.674 115L131.69 115.255L131.915 117H133.674V115ZM126.045 103.864L124.238 103.007L122.883 105.864H126.045V103.864ZM132.238 103.864V105.864H134.509L134.222 103.611L132.238 103.864ZM130.926 93.5693L132.91 93.3164L132.046 86.5387L129.119 92.7125L130.926 93.5693ZM132.956 107.422H123.42V111.422H132.956V107.422ZM121.613 108.565L118.967 114.143L122.581 115.857L125.227 110.279L121.613 108.565ZM120.774 113H113.043V117H120.774V113ZM114.81 115.936L130.622 86.0766L127.087 84.2047L111.275 114.064L114.81 115.936ZM128.854 87.1406H135.458V83.1406H128.854V87.1406ZM133.491 85.504L139.008 115.363L142.941 114.637L137.425 84.7773L133.491 85.504ZM140.975 113H133.674V117H140.975V113ZM135.657 114.745L134.94 109.167L130.972 109.677L131.69 115.255L135.657 114.745ZM126.045 105.864H132.238V101.864H126.045V105.864ZM134.222 103.611L132.91 93.3164L128.942 93.8223L130.254 104.117L134.222 103.611ZM129.119 92.7125L124.238 103.007L127.852 104.721L132.733 94.4261L129.119 92.7125ZM167.922 90.6982V92.6982H169.605L169.892 91.04L167.922 90.6982ZM159.227 90.6982V88.6982H157.543L157.256 90.3573L159.227 90.6982ZM155.022 115V117H156.706L156.993 115.341L155.022 115ZM147.988 115L146.018 114.657L145.611 117H147.988V115ZM152.213 90.6982L154.183 91.0408L154.591 88.6982H152.213V90.6982ZM143.661 90.6982L141.692 90.3494L141.276 92.6982H143.661V90.6982ZM144.646 85.1406V83.1406H142.969L142.676 84.7918L144.646 85.1406ZM168.886 85.1406L170.856 85.4824L171.262 83.1406H168.886V85.1406ZM167.922 88.6982H159.227V92.6982H167.922V88.6982ZM157.256 90.3573L153.052 114.659L156.993 115.341L161.197 91.0392L157.256 90.3573ZM155.022 113H147.988V117H155.022V113ZM149.959 115.343L154.183 91.0408L150.242 90.3557L146.018 114.657L149.959 115.343ZM152.213 88.6982H143.661V92.6982H152.213V88.6982ZM145.63 91.0471L146.615 85.4894L142.676 84.7918L141.692 90.3494L145.63 91.0471ZM144.646 87.1406H168.886V83.1406H144.646V87.1406ZM166.915 84.7989L165.951 90.3565L169.892 91.04L170.856 85.4824L166.915 84.7989ZM174.3 115V117H175.983L176.271 115.341L174.3 115ZM167.286 115L165.316 114.658L164.909 117H167.286V115ZM172.475 85.1406V83.1406H170.792L170.504 84.7982L172.475 85.1406ZM179.468 85.1406L181.438 85.4817L181.844 83.1406H179.468V85.1406ZM174.3 113H167.286V117H174.3V113ZM169.257 115.342L174.445 85.483L170.504 84.7982L165.316 114.658L169.257 115.342ZM172.475 87.1406H179.468V83.1406H172.475V87.1406ZM177.497 84.7995L172.329 114.659L176.271 115.341L181.438 85.4817L177.497 84.7995ZM195.73 106.92L193.767 106.538L193.766 106.546L193.764 106.555L195.73 106.92ZM193.229 103.331L194.019 101.494L194.007 101.489L193.995 101.484L193.229 103.331ZM189.865 101.937L189.046 103.761L189.072 103.773L189.099 103.784L189.865 101.937ZM183.139 93.2822L185.135 93.4093L185.135 93.3968L183.139 93.2822ZM184.861 88.832L186.415 90.0914L186.421 90.0834L184.861 88.832ZM195.32 84.7305L195.357 82.7308L195.345 82.7306L195.32 84.7305ZM202.437 87.3145L201.073 88.7781L201.079 88.7832L202.437 87.3145ZM205.103 94.0205V96.0205H207.083L207.102 94.04L205.103 94.0205ZM198.13 94.0205L196.131 93.9491L196.057 96.0205H198.13V94.0205ZM197.392 91.2725L195.788 92.4674L195.801 92.4851L195.815 92.5025L197.392 91.2725ZM194.808 90.1855L194.761 92.185L194.762 92.185L194.808 90.1855ZM190.091 93.3232L192.056 93.6966L192.059 93.6766L192.063 93.6565L190.091 93.3232ZM193.126 96.6865L192.41 98.5541L192.414 98.5555L193.126 96.6865ZM198.13 98.9424L197.094 100.653L197.103 100.659L198.13 98.9424ZM202.724 106.858L204.72 106.985L204.72 106.982L202.724 106.858ZM196.899 114.405L196.157 112.548L196.152 112.55L196.899 114.405ZM190.952 115.431L190.918 117.43L190.927 117.431L190.952 115.431ZM182.913 112.58L184.276 111.116L184.271 111.112L182.913 112.58ZM180.042 105.3L180.048 103.3L178.096 103.294L178.043 105.245L180.042 105.3ZM187.076 105.32L189.073 105.427L189.186 103.326L187.082 103.32L187.076 105.32ZM187.958 108.807L186.43 110.097L186.436 110.104L186.441 110.11L187.958 108.807ZM194.274 109.176L195.404 110.826L195.41 110.822L194.274 109.176ZM197.694 107.302C197.938 106.045 197.724 104.8 196.971 103.72C196.263 102.705 195.195 102 194.019 101.494L192.438 105.168C193.231 105.509 193.564 105.827 193.69 106.008C193.771 106.124 193.823 106.25 193.767 106.538L197.694 107.302ZM193.995 101.484L190.631 100.089L189.099 103.784L192.462 105.179L193.995 101.484ZM190.685 100.112C188.508 99.1343 187.08 98.0558 186.225 96.9562C185.404 95.8998 185.049 94.7479 185.135 93.4093L181.143 93.1551C180.996 95.467 181.646 97.5826 183.067 99.411C184.454 101.196 186.505 102.62 189.046 103.761L190.685 100.112ZM185.135 93.3968C185.207 92.1477 185.626 91.0647 186.415 90.0914L183.308 87.5727C181.991 89.197 181.262 91.0808 181.142 93.1677L185.135 93.3968ZM186.421 90.0834C187.217 89.0915 188.362 88.2609 189.956 87.6399L188.503 83.9129C186.378 84.7411 184.611 85.9475 183.301 87.5807L186.421 90.0834ZM189.956 87.6399C191.552 87.0177 193.325 86.7058 195.295 86.7303L195.345 82.7306C192.914 82.7004 190.625 83.0858 188.503 83.9129L189.956 87.6399ZM195.283 86.7301C197.851 86.7777 199.715 87.5126 201.073 88.778L203.8 85.8509C201.576 83.7803 198.696 82.7926 195.357 82.7308L195.283 86.7301ZM201.079 88.7832C202.409 90.0123 203.125 91.6751 203.103 94.001L207.102 94.04C207.134 90.7604 206.074 87.9526 203.794 85.8457L201.079 88.7832ZM205.103 92.0205H198.13V96.0205H205.103V92.0205ZM200.129 94.0919C200.181 92.6279 199.874 91.2026 198.969 90.0424L195.815 92.5025C195.976 92.7095 196.161 93.1162 196.131 93.9491L200.129 94.0919ZM198.995 90.0775C197.98 88.7151 196.421 88.2217 194.853 88.1861L194.762 92.185C195.601 92.2041 195.764 92.4353 195.788 92.4674L198.995 90.0775ZM194.854 88.1861C193.323 88.1505 191.886 88.5106 190.617 89.3185L192.764 92.6932C193.299 92.3527 193.94 92.1659 194.761 92.185L194.854 88.1861ZM190.617 89.3185C189.283 90.1672 188.386 91.4092 188.119 92.9899L192.063 93.6565C192.124 93.2958 192.293 92.993 192.764 92.6932L190.617 89.3185ZM188.126 92.9499C187.868 94.3063 188.286 95.55 189.17 96.5294C189.979 97.4256 191.136 98.0659 192.41 98.5541L193.842 94.819C192.832 94.4322 192.343 94.0744 192.14 93.8495C192.052 93.753 192.045 93.7104 192.049 93.7239C192.055 93.7432 192.047 93.7446 192.056 93.6966L188.126 92.9499ZM192.414 98.5555C194.688 99.4218 196.216 100.122 197.094 100.653L199.165 97.2314C197.965 96.505 196.158 95.7013 193.838 94.8175L192.414 98.5555ZM197.103 100.659C198.517 101.505 199.441 102.43 199.999 103.392C200.549 104.339 200.808 105.43 200.727 106.735L204.72 106.982C204.844 104.964 204.44 103.075 203.459 101.384C202.486 99.7071 201.01 98.3352 199.157 97.2261L197.103 100.659ZM200.728 106.732C200.642 108.08 200.219 109.206 199.477 110.172L202.648 112.609C203.902 110.978 204.586 109.082 204.72 106.985L200.728 106.732ZM199.477 110.172C198.732 111.141 197.658 111.948 196.157 112.548L197.642 116.262C199.696 115.441 201.397 114.238 202.648 112.609L199.477 110.172ZM196.152 112.55C194.669 113.148 192.955 113.455 190.977 113.431L190.927 117.431C193.352 117.461 195.602 117.084 197.647 116.26L196.152 112.55ZM190.986 113.431C189.562 113.407 188.277 113.185 187.116 112.782L185.806 116.562C187.406 117.116 189.115 117.4 190.918 117.43L190.986 113.431ZM187.116 112.782C185.975 112.387 185.039 111.826 184.276 111.116L181.551 114.044C182.756 115.166 184.185 116 185.806 116.562L187.116 112.782ZM184.271 111.112C182.746 109.702 181.973 107.855 182.041 105.354L178.043 105.245C177.947 108.76 179.088 111.767 181.555 114.049L184.271 111.112ZM180.036 107.3L187.07 107.32L187.082 103.32L180.048 103.3L180.036 107.3ZM185.079 105.213C184.983 107.014 185.304 108.764 186.43 110.097L189.486 107.516C189.272 107.263 189.006 106.689 189.073 105.427L185.079 105.213ZM186.441 110.11C187.658 111.526 189.49 111.976 191.342 111.976V107.976C190.022 107.976 189.598 107.646 189.475 107.503L186.441 110.11ZM191.342 111.976C192.821 111.976 194.218 111.638 195.404 110.826L193.145 107.525C192.772 107.78 192.214 107.976 191.342 107.976V111.976ZM195.41 110.822C196.644 109.971 197.424 108.756 197.697 107.285L193.764 106.555C193.682 106.998 193.491 107.286 193.139 107.529L195.41 110.822Z" fill="#FCAB10"/>
</g>
<rect x="80" y="29" width="146" height="43" rx="21.5" fill="white"/>
<path d="M172.507 44.3674C172.093 44.3674 171.679 44.3674 171.265 44.3674C171.182 44.3674 171.182 44.3674 171.099 44.2806C170.519 43.1525 169.774 42.3716 168.615 42.1112C167.124 41.6774 165.799 42.1112 164.722 43.2393C164.142 43.8467 163.728 44.6277 163.563 45.4954C163.314 47.2309 163.811 48.6193 165.136 49.6605C166.379 50.7018 168.283 50.7886 169.691 49.8341C170.271 49.4002 170.768 48.8796 171.099 48.1854C171.182 48.0986 171.182 48.0986 171.265 48.0986C172.093 48.0986 172.838 48.0986 173.666 48.0986C173.749 48.0986 173.749 48.0986 173.749 48.1854C173.335 49.5738 172.673 50.7018 171.596 51.6563C170.768 52.4373 169.774 52.8712 168.697 53.0447C167.041 53.305 165.55 53.1315 164.142 52.177C162.486 51.0489 161.41 49.487 161.078 47.4044C160.83 45.4954 161.161 43.7599 162.238 42.198C162.983 41.1567 163.894 40.289 165.053 39.8551C165.716 39.5948 166.379 39.4213 167.124 39.4213C167.869 39.4213 168.615 39.4213 169.36 39.6816C171.016 40.289 172.341 41.3303 173.17 42.979C173.418 43.4128 173.584 43.9335 173.749 44.3674C173.749 44.4541 173.749 44.4541 173.666 44.4541C173.335 44.3674 172.921 44.3674 172.507 44.3674Z" fill="#CD3B2E"/>
<path d="M185.426 52.0902C185.095 52.4373 184.681 52.6108 184.267 52.7844C183.439 53.1315 182.61 53.2182 181.699 53.1315C181.12 53.0447 180.54 52.8711 180.043 52.4373C179.546 51.9166 179.298 51.3092 179.215 50.5283C179.215 50.0076 179.215 49.487 179.298 48.9663C179.546 48.0118 180.126 47.4044 180.954 47.0573C181.534 46.797 182.114 46.7102 182.693 46.6234C183.356 46.5367 183.935 46.4499 184.598 46.2764C185.012 46.1896 185.343 45.7557 185.261 45.1483C185.178 44.8012 185.012 44.5409 184.681 44.4541C184.432 44.3673 184.184 44.2806 183.935 44.2806C183.604 44.2806 183.356 44.2806 183.024 44.2806C182.528 44.3673 182.196 44.7144 181.948 45.2351C181.948 45.3218 181.865 45.4086 181.865 45.5822C181.865 45.6689 181.782 45.7557 181.699 45.7557C180.954 45.7557 180.209 45.7557 179.381 45.7557C179.298 45.7557 179.298 45.7557 179.298 45.6689C179.298 45.3218 179.381 44.888 179.463 44.5409C179.795 43.4128 180.54 42.6319 181.617 42.2848C182.031 42.1112 182.528 42.0245 183.024 42.0245C183.935 41.9377 184.846 42.0245 185.757 42.2848C186.006 42.3715 186.254 42.4583 186.586 42.6319C187.331 42.979 187.662 43.5864 187.828 44.4541C187.911 44.8012 187.911 45.0615 187.911 45.4086C187.911 47.9251 187.911 50.5283 187.911 53.0447C187.911 53.1315 187.911 53.2182 187.745 53.2182C187 53.2182 186.254 53.2182 185.426 53.2182C185.343 53.2182 185.261 53.2182 185.343 53.0447C185.426 52.7844 185.426 52.4373 185.426 52.0902ZM185.261 47.7515C185.095 47.8383 184.929 48.0118 184.764 48.0118C184.35 48.1854 183.853 48.2721 183.439 48.3589C183.107 48.4457 182.859 48.4457 182.528 48.6192C182.114 48.7928 181.865 49.0531 181.782 49.5737C181.699 49.7473 181.699 50.0076 181.782 50.1812C181.865 50.7886 182.196 51.1357 182.693 51.2224C183.024 51.3092 183.356 51.3092 183.687 51.1357C184.764 50.7886 185.095 50.2679 185.261 49.4002C185.343 48.8796 185.261 48.3589 185.261 47.7515Z" fill="#CD3B2E"/>
<path d="M200.996 53.2183C199.422 53.2183 198.18 52.6109 197.186 51.396C196.358 50.4415 195.861 49.4002 195.778 48.0986C195.613 45.9293 196.441 44.1938 198.097 42.979C198.843 42.3716 199.671 42.1113 200.665 42.0245C201.41 41.9377 202.238 42.0245 202.901 42.3716C204.723 43.1525 205.882 44.5409 206.296 46.6235C206.545 48.1854 206.296 49.6606 205.468 50.8754C204.64 52.0902 203.563 52.8712 202.155 53.1315C201.658 53.2183 201.327 53.2183 200.996 53.2183ZM200.996 44.7145C199.422 44.6277 198.18 46.1028 198.18 47.6648C198.18 49.1399 199.34 50.6151 200.996 50.6151C202.652 50.6151 203.812 49.1399 203.812 47.6648C203.812 46.0161 202.569 44.6277 200.996 44.7145Z" fill="#CD3B2E"/>
<path d="M173.915 58.8585C174.246 58.5114 174.577 58.3379 174.991 58.1643C175.737 57.904 176.399 57.9908 177.062 58.3379C177.31 58.5114 177.476 58.685 177.724 58.9453C177.807 59.0321 177.807 59.0321 177.89 58.9453C178.304 58.5114 178.801 58.1643 179.381 58.0776C180.043 57.9908 180.623 57.9908 181.285 58.2511C182.031 58.5982 182.445 59.2924 182.611 60.1601C182.693 60.4204 182.693 60.6808 182.693 60.9411C182.693 62.503 182.693 64.1517 182.693 65.7136C182.693 65.8004 182.693 65.8872 182.611 65.8004C182.114 65.8004 181.534 65.8004 181.037 65.8004C180.954 65.8004 180.954 65.8004 180.954 65.7136C180.954 64.1517 180.954 62.6766 180.954 61.1146C180.954 60.8543 180.954 60.594 180.789 60.4204C180.623 59.9866 180.126 59.7263 179.712 59.7263C179.298 59.7263 178.967 59.8998 178.718 60.2469C178.552 60.5072 178.47 60.7675 178.47 61.0279C178.47 62.5898 178.47 64.0649 178.47 65.6269C178.47 65.7136 178.47 65.8004 178.304 65.8004C177.807 65.8004 177.227 65.8004 176.73 65.8004C176.648 65.8004 176.648 65.8004 176.648 65.7136C176.648 64.1517 176.648 62.6766 176.648 61.1146C176.648 60.8543 176.648 60.594 176.482 60.3337C176.234 59.8998 175.902 59.7263 175.488 59.7263C174.991 59.7263 174.66 59.8998 174.412 60.3337C174.246 60.594 174.246 60.8543 174.246 61.1146C174.246 62.5898 174.246 64.1517 174.246 65.6269C174.246 65.7136 174.246 65.7136 174.163 65.7136C173.583 65.7136 173.087 65.7136 172.507 65.7136C172.424 65.7136 172.424 65.7136 172.424 65.6269C172.424 63.1104 172.424 60.594 172.424 58.0776C172.424 57.9908 172.424 57.9908 172.507 57.9908C173.004 57.9908 173.583 57.9908 174.08 57.9908C174.163 57.9908 174.163 57.9908 174.163 58.0776C173.915 58.4247 173.915 58.685 173.915 58.8585Z" fill="black"/>
<path d="M192.052 43.8467C192.217 43.6731 192.3 43.5863 192.383 43.4128C192.963 42.8054 193.625 42.3715 194.37 42.198C194.702 42.1112 195.033 42.0244 195.364 42.0244C195.447 42.0244 195.447 42.0244 195.447 42.1112C195.447 42.9789 195.447 43.7599 195.447 44.6276C195.447 44.7144 195.447 44.7144 195.364 44.7144C195.033 44.7144 194.784 44.6276 194.453 44.7144C194.039 44.7144 193.625 44.8879 193.294 45.1483C193.211 45.235 193.045 45.3218 192.963 45.4086C192.466 45.8424 192.217 46.4499 192.134 47.1441C192.134 47.4911 192.052 47.8382 192.052 48.1853C192.052 49.834 192.052 51.396 192.052 53.0447C192.052 53.1314 192.052 53.1314 191.886 53.1314C191.141 53.1314 190.395 53.1314 189.567 53.1314C189.484 53.1314 189.484 53.1314 189.484 53.0447C189.484 49.5737 189.484 46.1028 189.484 42.6318C189.484 42.5451 189.484 42.5451 189.567 42.5451C190.312 42.5451 191.058 42.5451 191.72 42.5451C191.803 42.5451 191.886 42.5451 191.886 42.7186C192.052 43.0657 192.052 43.4996 192.052 43.8467Z" fill="#CD3B2E"/>
<path d="M175.157 46.2764C175.157 44.0202 175.157 41.7641 175.157 39.508C175.157 39.4212 175.157 39.3345 175.322 39.3345C176.068 39.3345 176.813 39.3345 177.641 39.3345C177.724 39.3345 177.807 39.3345 177.807 39.4212C177.807 43.9335 177.807 48.5325 177.807 53.0447C177.807 53.1315 177.807 53.2182 177.724 53.2182C176.979 53.2182 176.151 53.2182 175.405 53.2182C175.322 53.2182 175.322 53.2182 175.322 53.0447C175.157 50.7886 175.157 48.5325 175.157 46.2764Z" fill="#CD3B2E"/>
<path d="M212.756 65.1929C212.59 65.3664 212.425 65.54 212.176 65.6268C211.845 65.8871 211.514 65.9739 211.1 65.9739C210.685 65.9739 210.271 65.9738 209.857 65.8003C209.029 65.54 208.615 64.9326 208.449 64.0648C208.367 63.7177 208.367 63.2839 208.532 62.9368C208.698 62.3294 209.029 61.8955 209.609 61.6352C210.106 61.3749 210.52 61.3749 211.1 61.3749C211.596 61.3749 212.176 61.3749 212.673 61.3749C212.756 61.3749 212.756 61.3749 212.756 61.2881C212.756 61.1145 212.756 60.8542 212.756 60.6807C212.673 60.2468 212.425 59.8997 212.01 59.8129C211.596 59.7262 211.182 59.7262 210.851 59.8129C210.52 59.8997 210.271 60.0733 210.106 60.3336C210.023 60.4203 210.023 60.4203 209.94 60.3336C209.609 59.9865 209.278 59.6394 208.863 59.2923C208.781 59.2055 208.781 59.2055 208.863 59.1187C209.36 58.5981 209.94 58.251 210.685 58.1642C211.348 58.0775 212.01 58.0775 212.673 58.251C213.336 58.4246 213.915 58.7717 214.247 59.3791C214.495 59.8129 214.578 60.2468 214.578 60.7674C214.578 62.4161 214.578 64.0648 214.578 65.8003C214.578 65.8871 214.578 65.9739 214.412 65.9739C213.915 65.9739 213.418 65.9739 212.839 65.9739C212.756 65.9739 212.756 65.9739 212.756 65.8871C212.756 65.6268 212.756 65.4532 212.756 65.1929ZM212.673 63.0236C212.673 62.9368 212.673 62.85 212.673 62.7632C212.673 62.6765 212.673 62.6765 212.59 62.6765C212.176 62.6765 211.679 62.6765 211.265 62.6765C211.1 62.6765 211.017 62.6765 210.851 62.7632C210.437 62.85 210.271 63.1103 210.189 63.5442C210.189 63.9781 210.354 64.2384 210.768 64.4119C211.182 64.5855 211.596 64.4987 212.01 64.4119C212.425 64.3252 212.673 63.9781 212.673 63.5442C212.673 63.2839 212.673 63.1103 212.673 63.0236Z" fill="black"/>
<path d="M188.49 65.193C187.745 65.9739 186.834 66.1475 185.84 65.8872C184.929 65.6268 184.432 65.0194 184.267 64.0649C184.184 63.8046 184.184 63.4575 184.184 63.1972C184.184 61.5485 184.184 59.9866 184.184 58.3379C184.184 58.2511 184.184 58.1643 184.35 58.1643C184.846 58.1643 185.426 58.1643 185.923 58.1643C186.006 58.1643 186.006 58.1643 186.006 58.2511C186.006 59.813 186.006 61.2882 186.006 62.8501C186.006 63.2839 186.089 63.631 186.337 63.8914C186.586 64.1517 186.917 64.2385 187.248 64.2385C187.662 64.2385 187.993 64.0649 188.242 63.7178C188.408 63.5443 188.408 63.2839 188.49 63.0236C188.49 62.7633 188.49 62.5898 188.49 62.3294C188.49 61.0278 188.49 59.6395 188.49 58.3379C188.49 58.2511 188.49 58.2511 188.573 58.2511C189.07 58.2511 189.65 58.2511 190.147 58.2511C190.23 58.2511 190.23 58.2511 190.23 58.3379C190.23 60.8543 190.23 63.3707 190.23 65.8004C190.23 65.8872 190.23 65.8872 190.147 65.8872C189.65 65.8872 189.07 65.8872 188.573 65.8872C188.49 65.8872 188.49 65.8872 188.49 65.8004C188.49 65.5401 188.49 65.3665 188.49 65.193Z" fill="black"/>
<path d="M194.37 65.9739C193.542 65.9739 192.88 65.8871 192.3 65.6268C191.969 65.4533 191.638 65.193 191.389 64.9326C191.306 64.8459 191.306 64.8459 191.389 64.8459C191.72 64.4988 192.134 64.0649 192.466 63.7178C192.466 63.7178 192.549 63.631 192.549 63.7178C192.963 64.0649 193.377 64.3252 193.874 64.3252C194.288 64.412 194.785 64.412 195.199 64.2385C195.364 64.1517 195.53 64.0649 195.696 63.8914C195.944 63.4575 195.778 62.9369 195.281 62.8501C194.95 62.7633 194.619 62.7633 194.288 62.7633C193.874 62.6765 193.46 62.6765 193.045 62.5898C192.134 62.3294 191.638 61.6352 191.638 60.6807C191.638 59.5527 192.217 58.6849 193.294 58.3379C193.791 58.1643 194.288 58.1643 194.785 58.1643C195.364 58.1643 195.944 58.2511 196.524 58.5114C196.772 58.5982 197.021 58.7717 197.269 59.032C197.352 59.032 197.352 59.1188 197.269 59.1188C196.938 59.4659 196.607 59.813 196.275 60.1601C196.275 60.2469 196.192 60.2469 196.192 60.1601C195.861 59.8998 195.447 59.7262 195.033 59.7262C194.702 59.7262 194.453 59.6395 194.122 59.7262C193.956 59.7262 193.874 59.813 193.791 59.8998C193.542 60.0733 193.46 60.3336 193.542 60.594C193.625 60.8543 193.874 61.0278 194.122 61.0278C194.536 61.1146 194.95 61.1146 195.447 61.2014C195.861 61.2014 196.192 61.2882 196.607 61.4617C197.269 61.8088 197.6 62.3294 197.683 63.0236C197.766 63.4575 197.683 63.8914 197.6 64.3252C197.352 65.0194 196.855 65.4533 196.192 65.7136C195.447 65.8871 194.867 65.9739 194.37 65.9739Z" fill="black"/>
<path d="M202.072 62.069C202.072 61.2881 202.155 60.5939 202.486 59.8997C202.901 58.9452 203.646 58.3378 204.723 58.1642C205.385 58.0775 206.048 58.0775 206.627 58.251C207.124 58.4246 207.455 58.6849 207.787 59.032C207.87 59.1187 207.787 59.1187 207.787 59.1187C207.373 59.5526 207.041 59.8997 206.627 60.3336C206.545 60.4203 206.545 60.3336 206.545 60.3336C206.296 60.0733 206.13 59.8997 205.799 59.8129C204.971 59.6394 204.308 60.0733 204.06 60.941C203.894 61.6352 203.894 62.3294 204.06 63.0236C204.226 63.631 204.557 63.9781 205.054 64.1516C205.551 64.2384 206.048 64.1516 206.462 63.7177C206.627 63.5442 206.627 63.5442 206.71 63.7177C207.041 64.0648 207.373 64.4119 207.704 64.759C207.787 64.8458 207.787 64.8458 207.704 64.9326C207.041 65.6268 206.213 65.8871 205.302 65.8871C204.64 65.8871 204.06 65.7135 203.563 65.3664C202.901 64.9326 202.486 64.2384 202.238 63.4574C202.155 63.0236 202.072 62.5029 202.072 62.069Z" fill="black"/>
<path d="M206.793 42.4584C206.71 42.4584 206.71 42.4584 206.793 42.4584C206.213 41.851 205.716 41.3303 205.22 40.8097C205.137 40.7229 205.22 40.7229 205.22 40.6361C206.131 39.6816 207.042 38.7271 207.953 37.7726C209.029 36.6446 210.106 35.5165 211.182 34.3884C211.265 34.3017 211.265 34.3017 211.348 34.3884C211.845 34.9091 212.342 35.4297 212.756 35.9504C212.839 36.0371 212.839 36.0371 212.756 36.1239C210.851 38.2065 208.863 40.289 206.793 42.4584C206.793 42.4584 206.793 42.3716 206.793 42.4584Z" fill="#CD3B2E"/>
<path d="M211.265 47.4912C210.189 47.4912 209.112 47.4912 208.035 47.4912C207.952 47.4912 207.87 47.4912 207.87 47.3176C207.87 46.6234 207.87 45.9293 207.87 45.1483C207.87 45.0615 207.87 45.0615 207.952 45.0615C210.106 45.0615 212.259 45.0615 214.412 45.0615C214.495 45.0615 214.495 45.0615 214.495 45.1483C214.495 45.8425 214.495 46.5367 214.495 47.3176C214.495 47.4044 214.495 47.4044 214.412 47.4044C213.418 47.4912 212.342 47.4912 211.265 47.4912Z" fill="#CD3B2E"/>
<path d="M200.168 36.4709C200.168 35.3429 200.168 34.3016 200.168 33.1735C200.168 33 200.25 33 200.333 33C200.996 33 201.658 33 202.404 33C202.486 33 202.486 33 202.486 33.0868C202.486 35.3429 202.486 37.5122 202.486 39.7683C202.486 39.8551 202.486 39.8551 202.404 39.8551C201.741 39.8551 201.079 39.8551 200.333 39.8551C200.25 39.8551 200.25 39.8551 200.25 39.7683C200.168 38.6403 200.168 37.5122 200.168 36.4709Z" fill="#CD3B2E"/>
<path d="M198.843 61.9823C198.843 60.7675 198.843 59.4659 198.843 58.2511C198.843 58.1643 198.843 58.1643 198.925 58.1643C199.505 58.1643 200.002 58.1643 200.582 58.1643C200.665 58.1643 200.665 58.1643 200.665 58.2511C200.665 60.7675 200.665 63.2839 200.665 65.7136C200.665 65.8004 200.665 65.8004 200.582 65.8004C200.002 65.8004 199.505 65.8004 198.925 65.8004C198.843 65.8004 198.843 65.8004 198.843 65.7136C198.843 64.4988 198.843 63.2839 198.843 61.9823Z" fill="black"/>
<path d="M199.754 57.2098C199.091 57.2098 198.594 56.6892 198.594 55.995C198.594 55.3008 199.091 54.7802 199.754 54.7802C200.416 54.7802 200.913 55.3008 200.913 55.995C200.913 56.6892 200.416 57.2098 199.754 57.2098Z" fill="black"/>
<path d="M186.42 56.9495C186.503 56.6892 186.586 56.4289 186.751 56.0818C186.917 55.5612 187.165 55.0405 187.331 54.5199C187.331 54.4331 187.331 54.4331 187.414 54.4331C187.994 54.4331 188.656 54.4331 189.236 54.4331C189.236 54.4331 189.236 54.5199 189.153 54.5199C188.656 55.3008 188.159 56.0818 187.662 56.8628C187.662 56.9495 187.579 56.9495 187.497 56.9495C187.165 56.9495 186.751 56.9495 186.42 56.9495Z" fill="black"/>
<g clip-path="url(#clip0)">
<path d="M56 35.9993C47.35 35.8305 40.2 42.6868 40 51.3368C40.025 55.7368 41.9688 59.9055 45.3313 62.7493V67.3368C45.3313 67.7055 45.6312 68.0055 46 68.0055C46.125 68.0055 46.25 67.968 46.3562 67.9055L50.075 65.5868C51.9687 66.3118 53.9813 66.6805 56.0063 66.6743C64.6562 66.843 71.8062 59.9868 72.0062 51.343C71.8 42.6868 64.65 35.8305 56 35.9993Z" fill="#2196F3"/>
<path d="M66.5312 46.9375C66.3312 46.6688 65.9687 46.5938 65.675 46.75L58.7437 50.5313L54.4312 46.8313C54.1687 46.6063 53.775 46.6188 53.525 46.8688L45.525 54.8688C45.2625 55.1313 45.2687 55.55 45.525 55.8125C45.7312 56.0188 46.0562 56.0688 46.3125 55.925L53.25 52.1438L57.5687 55.8438C57.8312 56.0688 58.225 56.0563 58.475 55.8063L66.475 47.8063C66.7062 47.5688 66.7312 47.2 66.5312 46.9375Z" fill="#FAFAFA"/>
</g>
<path d="M72.2021 64.8428L64.3704 67.2558L62 68L65.3232 58.4383C64.7655 57.4461 64.3239 56.3862 63.9986 55.2812C63.6268 53.9507 63.4176 52.5751 63.4176 51.1994C63.4176 47.1402 65.0908 43.3066 68.0423 40.4426C71.0169 37.5786 75.0141 36 79.1972 36C83.3803 36 87.3775 37.5786 90.3521 40.4426C93.35 43.3291 95 47.1853 95 51.222C95 55.2812 93.3268 59.1149 90.3754 61.9789C87.4007 64.8428 83.4035 66.4214 79.2204 66.4214C77.8958 66.4214 76.5711 66.2636 75.2697 65.9479C74.2239 65.6998 73.1782 65.3164 72.2021 64.8428Z" fill="#EEEEEE"/>
<path d="M93.7451 51.222C93.7451 47.3657 92.1183 43.8703 89.4923 41.322C86.8662 38.7963 83.2408 37.2403 79.2204 37.2403C75.2 37.2403 71.5747 38.7963 68.9486 41.3446C66.3225 43.8703 64.6958 47.3657 64.6958 51.222C64.6958 52.5074 64.8817 53.7702 65.2303 54.9655C65.5789 56.1607 66.0669 57.2882 66.7176 58.3256L64.2078 65.5419L63.9986 66.1057L64.5796 65.9253L72.3183 63.5349C73.3408 64.0761 74.4331 64.482 75.5951 64.7752C76.757 65.0683 77.9655 65.2262 79.2204 65.2262C83.2408 65.2262 86.8662 63.6702 89.4923 61.1219C92.1183 58.5962 93.7451 55.1008 93.7451 51.222Z" fill="#54CC61"/>
<path d="M76.8732 47.4108C76.8035 47.2755 76.4317 46.4186 76.1063 45.6293C75.8972 45.1106 75.688 44.6371 75.6416 44.5469C75.2697 43.6674 74.8282 43.6899 74.5028 43.7125C74.4796 43.7125 74.4563 43.7125 74.4331 43.7125C74.3169 43.7125 74.2007 43.7125 74.0845 43.6899C73.9451 43.6899 73.7824 43.6674 73.643 43.6674C73.457 43.6674 73.2014 43.7125 72.9225 43.8252C72.7134 43.9154 72.5275 44.0507 72.3183 44.2537C72.2951 44.2762 72.2718 44.2988 72.2486 44.3213C71.807 44.7724 70.831 45.7646 70.831 47.6815C70.831 49.6885 72.3183 51.6053 72.5507 51.876C72.5507 51.876 72.5972 51.9211 72.6437 51.9887C73.2014 52.778 75.7345 56.3636 79.5923 57.8294C83.0782 59.16 83.7289 59.0021 84.2866 58.8668C84.3796 58.8442 84.4725 58.8217 84.5887 58.8217C85.0535 58.7766 85.7972 58.4834 86.4247 58.055C86.9359 57.6941 87.4007 57.2431 87.5866 56.7921C87.7493 56.3636 87.819 55.9803 87.8655 55.6645C87.9352 55.191 87.8887 54.8301 87.7958 54.6948C87.6563 54.4919 87.4239 54.3791 87.0754 54.2213C87.0056 54.1987 86.9592 54.1536 86.8894 54.1311C86.657 54.0183 85.8204 53.6124 85.1232 53.2967C84.6585 53.0937 84.2634 52.9133 84.1007 52.8457C83.8683 52.778 83.6824 52.7103 83.4732 52.7329C83.2409 52.7554 83.0317 52.8682 82.8225 53.1614C82.7296 53.2967 82.5437 53.5222 82.3578 53.7477C82.0556 54.1085 81.707 54.4919 81.5676 54.6497C81.4979 54.7174 81.4514 54.7625 81.4049 54.7625C81.3352 54.7625 81.219 54.7399 81.0796 54.6723C80.9866 54.6272 80.8937 54.5821 80.7775 54.537C80.2197 54.3115 79.1275 53.8379 77.8958 52.778C77.4542 52.3946 77.0592 51.9887 76.7338 51.5828C76.1993 50.9514 75.8507 50.3876 75.7113 50.1621C75.5951 49.9817 75.7345 49.8464 75.8275 49.7336C75.9437 49.6208 76.1063 49.4404 76.2458 49.2826C76.3155 49.2149 76.3852 49.1247 76.4549 49.0345C76.6409 48.809 76.7338 48.6511 76.8268 48.4482C76.85 48.4031 76.8732 48.3805 76.8965 48.3354C76.9894 48.155 77.0127 47.9746 76.9894 47.7942C76.9894 47.6815 76.9197 47.5461 76.8732 47.4108Z" fill="#FFFFFE"/>
<g clip-path="url(#clip1)">
<path d="M111.638 45.1158C111.55 45.1158 111.55 45.1158 111.55 45.1158C110.676 45.1158 109.802 45.1158 109.015 45.1158C108.928 45.1158 108.84 45.1158 108.84 45.0316C108.228 43.9368 107.354 43.1789 106.13 42.8421C104.382 42.421 102.983 42.9263 101.759 44.1895C101.059 44.9474 100.71 45.8737 100.71 46.8842C100.71 47.6421 100.885 48.3158 101.234 48.9895C101.934 50.0842 102.895 50.8421 104.207 51.0105C105.868 51.2631 107.267 50.7579 108.316 49.4105C108.49 49.2421 108.578 48.9895 108.753 48.7368C108.753 48.6526 108.84 48.6526 108.928 48.6526C109.802 48.6526 110.676 48.6526 111.55 48.6526C111.638 48.6526 111.638 48.6526 111.638 48.7368C111.288 50 110.589 51.0947 109.54 51.9368C108.49 52.7789 107.354 53.3684 105.955 53.5368C104.382 53.7053 102.808 53.5368 101.409 52.6947C99.5733 51.6 98.4368 50 98.0871 47.9789C97.8248 46.1263 98.1745 44.3579 99.3985 42.8421C100.185 41.9158 101.059 41.0737 102.196 40.6526C102.808 40.4 103.42 40.2316 104.119 40.2316C105.081 40.1474 106.043 40.1474 107.004 40.4842C108.928 41.0737 110.326 42.2526 111.201 44.021C111.375 44.3579 111.463 44.6947 111.638 45.1158Z" fill="#CD3B2E"/>
<path d="M123.79 52.6947C123.702 52.6947 123.702 52.779 123.702 52.779C123.09 53.2 122.391 53.4526 121.692 53.6211C121.08 53.7053 120.468 53.7895 119.856 53.7053C118.719 53.5369 117.845 53.1158 117.408 52.0211C117.233 51.5158 117.146 51.0105 117.233 50.5053C117.233 50.0842 117.321 49.6632 117.495 49.2421C117.845 48.4842 118.457 47.979 119.244 47.6421C119.856 47.3895 120.468 47.3053 121.08 47.2211C121.692 47.1369 122.304 47.0526 122.916 46.9684C123.353 46.8842 123.702 46.4632 123.615 45.9579C123.528 45.5368 123.353 45.2842 122.916 45.1158C122.391 44.9474 121.954 44.9474 121.429 45.0316C121.255 45.0316 121.08 45.1158 120.905 45.1158C120.468 45.2842 120.206 45.7053 120.031 46.1263V46.2105C119.943 46.4632 119.943 46.4632 119.768 46.4632C118.982 46.4632 118.195 46.4632 117.408 46.4632C117.321 46.4632 117.321 46.4632 117.321 46.379C117.321 46.0421 117.408 45.7053 117.495 45.3684C117.845 44.1053 118.719 43.3474 119.943 43.0105C120.817 42.7579 121.604 42.7579 122.479 42.8421C123.265 42.8421 124.052 43.0947 124.752 43.4316C125.626 43.8526 126.063 44.5263 126.238 45.3684C126.325 45.6211 126.325 45.8737 126.325 46.1263C126.325 48.6526 126.325 51.0947 126.325 53.6211C126.325 53.7053 126.325 53.7895 126.15 53.7895C125.363 53.7895 124.489 53.7895 123.702 53.7895C123.615 53.7895 123.615 53.7895 123.615 53.7053C123.615 53.4526 123.615 53.1158 123.615 52.8632C123.877 52.6947 123.877 52.6947 123.79 52.6947ZM123.702 48.4C123.615 48.4842 123.528 48.4842 123.528 48.4842C123.44 48.5684 123.265 48.6526 123.178 48.6526C122.653 48.7369 122.216 48.9053 121.692 48.9895C121.342 49.0737 121.08 49.0737 120.817 49.2421C120.38 49.4105 120.118 49.7474 120.031 50.1684C119.943 50.4211 119.943 50.5895 120.031 50.8421C120.118 51.3474 120.468 51.7684 120.992 51.8526C121.779 52.0211 122.479 51.7684 123.09 51.3474C123.528 51.0947 123.615 50.5895 123.702 50.1684C123.79 49.579 123.702 48.9895 123.702 48.4Z" fill="#CD3B2E"/>
<path d="M134.805 48.2316C134.805 45.5368 136.816 43.6842 138.564 43.0947C141.974 42 145.209 44.021 145.908 47.0526C146.258 48.7368 145.995 50.2526 144.946 51.6C144.072 52.6947 142.936 53.4526 141.537 53.7052C139.701 54.0421 138.04 53.621 136.728 52.3579C135.942 51.6 135.33 50.7579 135.067 49.7473C134.893 49.2421 134.805 48.7368 134.805 48.2316ZM140.4 45.4526C138.739 45.3684 137.428 46.8842 137.428 48.3158C137.428 49.6631 138.564 51.1789 140.4 51.1789C142.236 51.1789 143.373 49.6631 143.373 48.3158C143.373 46.7158 142.149 45.3684 140.4 45.4526Z" fill="#CD3B2E"/>
<path d="M136.903 59.0105C136.903 58.9263 136.903 58.9263 136.903 58.8421C136.903 57.8316 136.903 56.7369 136.903 55.7263C136.903 55.6421 136.903 55.6421 137.078 55.6421C137.69 55.6421 138.215 55.6421 138.827 55.6421C138.914 55.6421 138.914 55.6421 138.914 55.7263C138.914 59.0947 138.914 62.4632 138.914 65.8316C138.914 65.9158 138.914 65.9158 138.827 65.9158C138.302 65.9158 137.69 65.9158 137.166 65.9158C137.078 65.9158 137.078 65.9158 137.078 65.8316C137.078 65.6632 137.078 65.4947 137.078 65.2421H136.991C136.466 65.7474 135.854 66 135.067 66C134.718 66 134.368 65.9158 134.018 65.8316C133.232 65.579 132.794 64.9895 132.532 64.2316C132.445 63.8947 132.357 63.5579 132.357 63.1369C132.357 62.2105 132.27 61.3684 132.445 60.4421C132.532 60.1053 132.62 59.7684 132.707 59.4316C132.969 58.8421 133.406 58.5053 134.018 58.3369C134.805 58.0842 135.505 58.0842 136.291 58.4211C136.554 58.6737 136.729 58.8421 136.903 59.0105ZM136.903 62.1263C136.903 62.0421 136.903 62.0421 136.903 61.9579C136.903 61.5369 136.903 61.0316 136.729 60.6105C136.554 60.2737 136.379 60.1053 136.029 60.0211C135.942 60.0211 135.767 59.9369 135.679 59.9369C135.155 59.9369 134.718 60.1053 134.456 60.6947C134.368 61.0316 134.281 61.3684 134.281 61.7053C134.281 62.2105 134.281 62.7158 134.368 63.2211C134.456 63.8105 134.805 64.2316 135.505 64.2316C136.117 64.2316 136.554 63.979 136.729 63.4737C136.903 63.0526 136.903 62.6316 136.903 62.1263Z" fill="black"/>
<path d="M130.871 44.6105C131.133 44.2737 131.308 44.1053 131.571 43.8526C132.095 43.4316 132.707 43.0947 133.406 42.9263C133.756 42.8421 134.106 42.8421 134.456 42.7579C134.543 42.7579 134.543 42.8421 134.543 42.8421C134.543 43.3474 134.543 43.9369 134.543 44.4421C134.543 44.6947 134.543 45.0316 134.543 45.2842C134.543 45.3684 134.543 45.3684 134.456 45.3684C134.193 45.3684 133.931 45.2842 133.581 45.3684C133.144 45.3684 132.794 45.5369 132.445 45.7053C131.745 46.1263 131.221 46.6316 131.046 47.4737C130.959 47.8105 130.959 48.2316 130.959 48.5684C130.959 50.1684 130.959 51.8526 130.959 53.4526C130.959 53.5368 130.959 53.6211 130.784 53.6211C129.997 53.6211 129.21 53.6211 128.423 53.6211C128.336 53.6211 128.336 53.6211 128.336 53.5368C128.336 50.1684 128.336 46.8 128.336 43.3474C128.336 43.2632 128.336 43.2632 128.423 43.2632C129.21 43.2632 129.997 43.2632 130.784 43.2632C130.871 43.2632 130.871 43.2632 130.871 43.3474C130.871 43.8526 130.871 44.1895 130.871 44.6105Z" fill="#CD3B2E"/>
<path d="M115.66 46.8842C115.66 49.0737 115.66 51.3474 115.66 53.5368C115.66 53.621 115.66 53.7052 115.485 53.7052C114.698 53.7052 113.911 53.7052 113.037 53.7052C112.949 53.7052 112.862 53.7052 112.862 53.5368C112.862 49.0737 112.862 44.6947 112.862 40.2316C112.862 40.1474 112.862 40.0631 113.037 40.0631C113.824 40.0631 114.698 40.0631 115.485 40.0631C115.572 40.0631 115.572 40.0631 115.572 40.2316C115.66 42.5052 115.66 44.6947 115.66 46.8842Z" fill="#CD3B2E"/>
<path d="M144.771 62.7158C143.985 62.7158 143.198 62.7158 142.411 62.7158C142.324 62.7158 142.324 62.7158 142.324 62.8C142.324 63.5579 142.761 64.1474 143.46 64.2316C144.247 64.4 145.034 64.3158 145.646 63.7263C145.821 63.5579 145.821 63.5579 145.908 63.7263C146.258 64.0632 146.52 64.3158 146.87 64.6526C146.957 64.7368 146.957 64.7368 146.87 64.7368C146.345 65.2421 145.646 65.6632 144.859 65.8316C144.072 65.9158 143.285 65.9158 142.498 65.6632C141.624 65.4105 141.012 64.8211 140.663 63.9789C140.138 62.6316 140.138 61.2842 140.663 60.0211C141.187 58.8421 142.149 58.2526 143.46 58.1684C143.985 58.1684 144.597 58.1684 145.034 58.4211C145.995 58.8421 146.607 59.6 146.87 60.5263C146.957 60.9474 147.044 61.3684 147.044 61.7895C147.044 62.0421 147.044 62.2947 147.044 62.5474C147.044 62.6316 147.044 62.6316 146.957 62.6316C146.345 62.7158 145.558 62.7158 144.771 62.7158ZM143.81 61.4526C144.247 61.4526 144.771 61.4526 145.209 61.4526C145.296 61.4526 145.296 61.4526 145.296 61.3684C145.296 61.1158 145.209 60.9474 145.121 60.7789C144.771 59.7684 143.548 59.7684 142.936 60.1053C142.498 60.4421 142.324 60.8632 142.324 61.3684C142.324 61.4526 142.324 61.4526 142.411 61.4526C142.848 61.4526 143.373 61.4526 143.81 61.4526Z" fill="black"/>
<path d="M155 62.1263C155 62.7158 155 63.3053 154.825 63.8105C154.563 64.8211 153.863 65.4948 152.814 65.8316C151.94 66.0842 151.066 66.0842 150.192 65.6632C149.23 65.2421 148.705 64.5684 148.531 63.5579C148.356 62.8 148.356 62.0421 148.443 61.2842C148.443 60.8632 148.531 60.3579 148.793 59.9369C149.23 59.0105 150.017 58.5053 151.066 58.2526C151.678 58.1684 152.377 58.1684 152.989 58.3369C154.038 58.6737 154.738 59.4316 155 60.5263C155 61.1158 155 61.6211 155 62.1263ZM150.367 62.1263C150.367 62.5474 150.367 62.8842 150.454 63.3053C150.629 64.1474 151.241 64.4842 152.028 64.3158C152.552 64.2316 152.814 63.8105 152.989 63.3895C153.164 62.6316 153.164 61.8737 152.989 61.1158C152.902 60.6947 152.727 60.3579 152.29 60.1895C151.94 60.0211 151.678 60.0211 151.328 60.1053C150.804 60.2737 150.541 60.6105 150.454 61.0316C150.367 61.3684 150.279 61.7053 150.367 62.1263Z" fill="black"/>
<path d="M120.643 58.3369C120.905 58.3369 121.167 58.3369 121.342 58.3369C121.779 58.3369 122.129 58.3369 122.566 58.3369C122.653 58.3369 122.741 58.3369 122.741 58.5053C123.265 59.9369 123.702 61.4526 124.227 62.8842V62.9684C124.314 62.9684 124.227 62.8842 124.314 62.8842C124.839 61.4526 125.276 59.9369 125.801 58.4211C125.801 58.3369 125.888 58.3369 125.975 58.3369C126.587 58.3369 127.199 58.3369 127.811 58.3369C127.986 58.3369 127.986 58.3369 127.899 58.4211C127.112 60.5263 126.238 62.7158 125.451 64.8211C125.364 65.1579 125.189 65.4105 125.101 65.7474C125.101 65.8316 125.014 65.8316 125.014 65.8316C124.577 65.8316 124.14 65.8316 123.702 65.8316C123.615 65.8316 123.615 65.8316 123.528 65.7474C122.916 64.2316 122.391 62.7158 121.779 61.2C121.429 60.2737 121.08 59.3474 120.73 58.5053C120.73 58.4211 120.73 58.4211 120.643 58.3369Z" fill="black"/>
<path d="M146.52 43.2632C146.52 43.1789 146.432 43.1789 146.52 43.2632C145.908 42.6737 145.383 42.1684 144.859 41.6632C144.771 41.5789 144.859 41.5789 144.859 41.4947L144.946 41.4105C147.044 39.3895 149.143 37.3684 151.153 35.3474C151.241 35.2632 151.241 35.2632 151.328 35.3474C151.853 35.8526 152.377 36.3579 152.902 36.8632C152.989 36.9474 152.989 36.9474 152.902 37.0316C150.804 39.0526 148.705 41.0737 146.52 43.2632C146.52 43.1789 146.607 43.1789 146.52 43.2632Z" fill="#CD3B2E"/>
<path d="M151.241 45.7895C152.377 45.7895 153.514 45.7895 154.65 45.7895C154.738 45.7895 154.738 45.7895 154.738 45.8737C154.738 46.5474 154.738 47.3053 154.738 47.9789C154.738 48.0631 154.738 48.0631 154.65 48.0631C152.377 48.0631 150.017 48.0631 147.744 48.0631C147.656 48.0631 147.656 48.0631 147.656 47.9789C147.656 47.3053 147.656 46.5474 147.656 45.8737C147.656 45.7895 147.656 45.7895 147.744 45.7895C148.968 45.7895 150.104 45.7895 151.241 45.7895Z" fill="#CD3B2E"/>
<path d="M139.526 37.3684C139.526 36.2737 139.526 35.1789 139.526 34.1684C139.526 34.0842 139.526 34 139.613 34C140.313 34 141.012 34 141.799 34C141.886 34 141.886 34 141.886 34.0842C141.886 36.2737 141.886 38.3789 141.886 40.5684C141.886 40.6526 141.886 40.6526 141.799 40.6526C141.1 40.6526 140.313 40.6526 139.613 40.6526C139.526 40.6526 139.526 40.6526 139.526 40.5684C139.526 39.5579 139.526 38.4632 139.526 37.3684Z" fill="#CD3B2E"/>
<path d="M128.86 62.1263C128.86 60.9474 128.86 59.6842 128.86 58.5053C128.86 58.4211 128.86 58.3369 128.948 58.3369C129.56 58.3369 130.084 58.3369 130.696 58.3369C130.784 58.3369 130.784 58.3369 130.784 58.4211C130.784 60.8632 130.784 63.3053 130.784 65.7474C130.784 65.8316 130.784 65.8316 130.696 65.8316C130.084 65.8316 129.56 65.8316 128.948 65.8316C128.86 65.8316 128.86 65.8316 128.86 65.7474C128.86 64.5684 128.86 63.3053 128.86 62.1263Z" fill="black"/>
<path d="M128.598 56.2316C128.598 55.5579 129.123 55.0526 129.822 55.0526C130.521 55.0526 131.046 55.5579 131.046 56.2316C131.046 56.9053 130.521 57.4105 129.822 57.4105C129.123 57.4105 128.598 56.9053 128.598 56.2316Z" fill="black"/>
</g>
<defs>
<filter id="filter0_d" x="60.5956" y="82.7074" width="148.508" height="38.7247" filterUnits="userSpaceOnUse" color-interpolation-filters="sRGB">
<feFlood flood-opacity="0" result="BackgroundImageFix"/>
<feColorMatrix in="SourceAlpha" type="matrix" values="0 0 0 0 0 0 0 0 0 0 0 0 0 0 0 0 0 0 127 0"/>
<feOffset dx="2" dy="4"/>
<feColorMatrix type="matrix" values="0 0 0 0 0.839216 0 0 0 0 0.572549 0 0 0 0 0.054902 0 0 0 1 0"/>
<feBlend mode="normal" in2="BackgroundImageFix" result="effect1_dropShadow"/>
<feBlend mode="normal" in="SourceGraphic" in2="effect1_dropShadow" result="shape"/>
</filter>
<clipPath id="clip0">
<rect width="32" height="32" fill="white" transform="translate(40 36)"/>
</clipPath>
<clipPath id="clip1">
<rect width="57" height="32" fill="white" transform="translate(98 34)"/>
</clipPath>
</defs>
</svg>
