<svg width="248" height="88" viewBox="0 0 248 88" fill="none" xmlns="http://www.w3.org/2000/svg">
<rect width="248" height="88" rx="24" fill="#FCAB10"/>
<rect x="28" y="28" width="191" height="37" rx="5" fill="#FCAB10" stroke="white" stroke-width="2"/>
<path d="M45 62.5C45 53.3873 52.3873 46 61.5 46H185.5C194.613 46 202 53.3873 202 62.5V62.5C202 71.6127 194.613 79 185.5 79H61.5C52.3873 79 45 71.6127 45 62.5V62.5Z" fill="#FCAB10"/>
<path d="M87 27C87 20.3726 92.3726 15 99 15H180C186.627 15 192 20.3726 192 27V27C192 33.6274 186.627 39 180 39H99C92.3726 39 87 33.6274 87 27V27Z" fill="#F5F5F5"/>
<g clip-path="url(#clip0)">
<path d="M130.892 23.6C130.842 23.6 130.842 23.6 130.842 23.6C130.336 23.6 129.83 23.6 129.374 23.6C129.323 23.6 129.273 23.6 129.273 23.55C128.919 22.9 128.412 22.45 127.704 22.25C126.692 22 125.882 22.3 125.173 23.05C124.768 23.5 124.566 24.05 124.566 24.65C124.566 25.1 124.667 25.5 124.869 25.9C125.274 26.55 125.831 27 126.59 27.1C127.552 27.25 128.362 26.95 128.969 26.15C129.07 26.05 129.121 25.9 129.222 25.75C129.222 25.7 129.273 25.7 129.323 25.7C129.83 25.7 130.336 25.7 130.842 25.7C130.892 25.7 130.892 25.7 130.892 25.75C130.69 26.5 130.285 27.15 129.678 27.65C129.07 28.15 128.412 28.5 127.603 28.6C126.692 28.7 125.781 28.6 124.971 28.1C123.908 27.45 123.25 26.5 123.047 25.3C122.896 24.2 123.098 23.15 123.807 22.25C124.262 21.7 124.768 21.2 125.426 20.95C125.781 20.8 126.135 20.7 126.54 20.7C127.096 20.65 127.653 20.65 128.21 20.85C129.323 21.2 130.133 21.9 130.639 22.95C130.741 23.15 130.791 23.35 130.892 23.6Z" fill="#CD3B2E"/>
<path d="M137.928 28.1C137.877 28.1 137.877 28.15 137.877 28.15C137.523 28.4 137.118 28.55 136.713 28.65C136.359 28.7 136.005 28.75 135.65 28.7C134.992 28.6 134.486 28.35 134.233 27.7C134.132 27.4 134.081 27.1 134.132 26.8C134.132 26.55 134.182 26.3 134.284 26.05C134.486 25.6 134.84 25.3 135.296 25.1C135.65 24.95 136.005 24.9 136.359 24.85C136.713 24.8 137.067 24.75 137.422 24.7C137.675 24.65 137.877 24.4 137.827 24.1C137.776 23.85 137.675 23.7 137.422 23.6C137.118 23.5 136.865 23.5 136.561 23.55C136.46 23.55 136.359 23.6 136.258 23.6C136.005 23.7 135.853 23.95 135.751 24.2V24.25C135.701 24.4 135.701 24.4 135.6 24.4C135.144 24.4 134.689 24.4 134.233 24.4C134.182 24.4 134.182 24.4 134.182 24.35C134.182 24.15 134.233 23.95 134.284 23.75C134.486 23 134.992 22.55 135.701 22.35C136.207 22.2 136.663 22.2 137.169 22.25C137.624 22.25 138.08 22.4 138.485 22.6C138.991 22.85 139.244 23.25 139.345 23.75C139.396 23.9 139.396 24.05 139.396 24.2C139.396 25.7 139.396 27.15 139.396 28.65C139.396 28.7 139.396 28.75 139.294 28.75C138.839 28.75 138.333 28.75 137.877 28.75C137.827 28.75 137.827 28.75 137.827 28.7C137.827 28.55 137.827 28.35 137.827 28.2C137.978 28.1 137.978 28.1 137.928 28.1ZM137.877 25.55C137.827 25.6 137.776 25.6 137.776 25.6C137.725 25.65 137.624 25.7 137.574 25.7C137.27 25.75 137.017 25.85 136.713 25.9C136.511 25.95 136.359 25.95 136.207 26.05C135.954 26.15 135.802 26.35 135.751 26.6C135.701 26.75 135.701 26.85 135.751 27C135.802 27.3 136.005 27.55 136.308 27.6C136.764 27.7 137.169 27.55 137.523 27.3C137.776 27.15 137.827 26.85 137.877 26.6C137.928 26.25 137.877 25.9 137.877 25.55Z" fill="#CD3B2E"/>
<path d="M144.305 25.45C144.305 23.85 145.469 22.75 146.482 22.4C148.455 21.75 150.328 22.95 150.733 24.75C150.936 25.75 150.784 26.65 150.176 27.45C149.67 28.1 149.012 28.55 148.202 28.7C147.14 28.9 146.178 28.65 145.419 27.9C144.963 27.45 144.609 26.95 144.457 26.35C144.356 26.05 144.305 25.75 144.305 25.45ZM147.544 23.8C146.583 23.75 145.824 24.65 145.824 25.5C145.824 26.3 146.482 27.2 147.544 27.2C148.607 27.2 149.265 26.3 149.265 25.5C149.265 24.55 148.557 23.75 147.544 23.8Z" fill="#CD3B2E"/>
<path d="M145.52 31.85C145.52 31.8 145.52 31.8 145.52 31.75C145.52 31.15 145.52 30.5 145.52 29.9C145.52 29.85 145.52 29.85 145.621 29.85C145.975 29.85 146.279 29.85 146.633 29.85C146.684 29.85 146.684 29.85 146.684 29.9C146.684 31.9 146.684 33.9 146.684 35.9C146.684 35.95 146.684 35.95 146.633 35.95C146.33 35.95 145.975 35.95 145.672 35.95C145.621 35.95 145.621 35.95 145.621 35.9C145.621 35.8 145.621 35.7 145.621 35.55H145.57C145.267 35.85 144.913 36 144.457 36C144.255 36 144.052 35.95 143.85 35.9C143.394 35.75 143.141 35.4 142.989 34.95C142.939 34.75 142.888 34.55 142.888 34.3C142.888 33.75 142.837 33.25 142.939 32.7C142.989 32.5 143.04 32.3 143.09 32.1C143.242 31.75 143.495 31.55 143.85 31.45C144.305 31.3 144.71 31.3 145.166 31.5C145.317 31.65 145.419 31.75 145.52 31.85ZM145.52 33.7C145.52 33.65 145.52 33.65 145.52 33.6C145.52 33.35 145.52 33.05 145.419 32.8C145.317 32.6 145.216 32.5 145.014 32.45C144.963 32.45 144.862 32.4 144.811 32.4C144.508 32.4 144.255 32.5 144.103 32.85C144.052 33.05 144.001 33.25 144.001 33.45C144.001 33.75 144.001 34.05 144.052 34.35C144.103 34.7 144.305 34.95 144.71 34.95C145.064 34.95 145.317 34.8 145.419 34.5C145.52 34.25 145.52 34 145.52 33.7Z" fill="black"/>
<path d="M142.028 23.3C142.179 23.1 142.281 23 142.432 22.85C142.736 22.6 143.09 22.4 143.495 22.3C143.698 22.25 143.9 22.25 144.103 22.2C144.153 22.2 144.153 22.25 144.153 22.25C144.153 22.55 144.153 22.9 144.153 23.2C144.153 23.35 144.153 23.55 144.153 23.7C144.153 23.75 144.153 23.75 144.103 23.75C143.951 23.75 143.799 23.7 143.597 23.75C143.343 23.75 143.141 23.85 142.939 23.95C142.534 24.2 142.23 24.5 142.129 25C142.078 25.2 142.078 25.45 142.078 25.65C142.078 26.6 142.078 27.6 142.078 28.55C142.078 28.6 142.078 28.65 141.977 28.65C141.521 28.65 141.066 28.65 140.61 28.65C140.56 28.65 140.56 28.65 140.56 28.6C140.56 26.6 140.56 24.6 140.56 22.55C140.56 22.5 140.56 22.5 140.61 22.5C141.066 22.5 141.521 22.5 141.977 22.5C142.028 22.5 142.028 22.5 142.028 22.55C142.028 22.85 142.028 23.05 142.028 23.3Z" fill="#CD3B2E"/>
<path d="M133.221 24.65C133.221 25.95 133.221 27.3 133.221 28.6C133.221 28.65 133.221 28.7 133.12 28.7C132.664 28.7 132.209 28.7 131.702 28.7C131.652 28.7 131.601 28.7 131.601 28.6C131.601 25.95 131.601 23.35 131.601 20.7C131.601 20.65 131.601 20.6 131.702 20.6C132.158 20.6 132.664 20.6 133.12 20.6C133.17 20.6 133.17 20.6 133.17 20.7C133.221 22.05 133.221 23.35 133.221 24.65Z" fill="#CD3B2E"/>
<path d="M150.075 34.05C149.62 34.05 149.164 34.05 148.709 34.05C148.658 34.05 148.658 34.05 148.658 34.1C148.658 34.55 148.911 34.9 149.316 34.95C149.771 35.05 150.227 35 150.581 34.65C150.682 34.55 150.682 34.55 150.733 34.65C150.936 34.85 151.087 35 151.29 35.2C151.34 35.25 151.34 35.25 151.29 35.25C150.986 35.55 150.581 35.8 150.126 35.9C149.67 35.95 149.215 35.95 148.759 35.8C148.253 35.65 147.899 35.3 147.696 34.8C147.393 34 147.393 33.2 147.696 32.45C148 31.75 148.557 31.4 149.316 31.35C149.62 31.35 149.974 31.35 150.227 31.5C150.784 31.75 151.138 32.2 151.29 32.75C151.34 33 151.391 33.25 151.391 33.5C151.391 33.65 151.391 33.8 151.391 33.95C151.391 34 151.391 34 151.34 34C150.986 34.05 150.531 34.05 150.075 34.05ZM149.518 33.3C149.771 33.3 150.075 33.3 150.328 33.3C150.379 33.3 150.379 33.3 150.379 33.25C150.379 33.1 150.328 33 150.278 32.9C150.075 32.3 149.366 32.3 149.012 32.5C148.759 32.7 148.658 32.95 148.658 33.25C148.658 33.3 148.658 33.3 148.709 33.3C148.962 33.3 149.265 33.3 149.518 33.3Z" fill="black"/>
<path d="M155.997 33.7C155.997 34.05 155.997 34.4 155.896 34.7C155.744 35.3 155.339 35.7 154.732 35.9C154.225 36.05 153.719 36.05 153.213 35.8C152.656 35.55 152.353 35.15 152.251 34.55C152.15 34.1 152.15 33.65 152.201 33.2C152.201 32.95 152.251 32.65 152.403 32.4C152.656 31.85 153.112 31.55 153.719 31.4C154.074 31.35 154.478 31.35 154.833 31.45C155.44 31.65 155.845 32.1 155.997 32.75C155.997 33.1 155.997 33.4 155.997 33.7ZM153.314 33.7C153.314 33.95 153.314 34.15 153.365 34.4C153.466 34.9 153.82 35.1 154.276 35C154.58 34.95 154.732 34.7 154.833 34.45C154.934 34 154.934 33.55 154.833 33.1C154.782 32.85 154.681 32.65 154.428 32.55C154.225 32.45 154.074 32.45 153.871 32.5C153.567 32.6 153.416 32.8 153.365 33.05C153.314 33.25 153.264 33.45 153.314 33.7Z" fill="black"/>
<path d="M136.106 31.45C136.258 31.45 136.409 31.45 136.511 31.45C136.764 31.45 136.966 31.45 137.219 31.45C137.27 31.45 137.32 31.45 137.32 31.55C137.624 32.4 137.877 33.3 138.181 34.15V34.2C138.232 34.2 138.181 34.15 138.232 34.15C138.535 33.3 138.788 32.4 139.092 31.5C139.092 31.45 139.143 31.45 139.193 31.45C139.547 31.45 139.902 31.45 140.256 31.45C140.357 31.45 140.357 31.45 140.307 31.5C139.851 32.75 139.345 34.05 138.89 35.3C138.839 35.5 138.738 35.65 138.687 35.85C138.687 35.9 138.636 35.9 138.636 35.9C138.383 35.9 138.13 35.9 137.877 35.9C137.827 35.9 137.827 35.9 137.776 35.85C137.422 34.95 137.118 34.05 136.764 33.15C136.561 32.6 136.359 32.05 136.156 31.55C136.156 31.5 136.156 31.5 136.106 31.45Z" fill="black"/>
<path d="M151.087 22.5C151.087 22.45 151.037 22.45 151.087 22.5C150.733 22.15 150.429 21.85 150.126 21.55C150.075 21.5 150.126 21.5 150.126 21.45L150.176 21.4C151.391 20.2 152.606 19 153.77 17.8C153.82 17.75 153.82 17.75 153.871 17.8C154.175 18.1 154.478 18.4 154.782 18.7C154.833 18.75 154.833 18.75 154.782 18.8C153.567 20 152.353 21.2 151.087 22.5C151.087 22.45 151.138 22.45 151.087 22.5Z" fill="#CD3B2E"/>
<path d="M153.82 24C154.478 24 155.136 24 155.794 24C155.845 24 155.845 24 155.845 24.05C155.845 24.45 155.845 24.9 155.845 25.3C155.845 25.35 155.845 25.35 155.794 25.35C154.478 25.35 153.112 25.35 151.796 25.35C151.745 25.35 151.745 25.35 151.745 25.3C151.745 24.9 151.745 24.45 151.745 24.05C151.745 24 151.745 24 151.796 24C152.505 24 153.163 24 153.82 24Z" fill="#CD3B2E"/>
<path d="M147.038 19C147.038 18.35 147.038 17.7 147.038 17.1C147.038 17.05 147.038 17 147.089 17C147.494 17 147.899 17 148.354 17C148.405 17 148.405 17 148.405 17.05C148.405 18.35 148.405 19.6 148.405 20.9C148.405 20.95 148.405 20.95 148.354 20.95C147.949 20.95 147.494 20.95 147.089 20.95C147.038 20.95 147.038 20.95 147.038 20.9C147.038 20.3 147.038 19.65 147.038 19Z" fill="#CD3B2E"/>
<path d="M140.863 33.7C140.863 33 140.863 32.25 140.863 31.55C140.863 31.5 140.863 31.45 140.914 31.45C141.268 31.45 141.572 31.45 141.926 31.45C141.977 31.45 141.977 31.45 141.977 31.5C141.977 32.95 141.977 34.4 141.977 35.85C141.977 35.9 141.977 35.9 141.926 35.9C141.572 35.9 141.268 35.9 140.914 35.9C140.863 35.9 140.863 35.9 140.863 35.85C140.863 35.15 140.863 34.4 140.863 33.7Z" fill="black"/>
<path d="M140.712 30.2C140.712 29.8 141.015 29.5 141.42 29.5C141.825 29.5 142.129 29.8 142.129 30.2C142.129 30.6 141.825 30.9 141.42 30.9C141.015 30.9 140.712 30.6 140.712 30.2Z" fill="black"/>
</g>
<g clip-path="url(#clip1)">
<path d="M68.5 14.9995C62.2828 14.8782 57.1438 19.8061 57 26.0233C57.018 29.1858 58.415 32.1821 60.8318 34.226V37.5233C60.8318 37.7883 61.0475 38.004 61.3125 38.004C61.4023 38.004 61.4922 37.977 61.5686 37.9321L64.2414 36.2655C65.6025 36.7866 67.049 37.0516 68.5045 37.0471C74.7217 37.1684 79.8607 32.2405 80.0045 26.0278C79.8562 19.8061 74.7172 14.8782 68.5 14.9995Z" fill="#2196F3"/>
<path d="M76.0693 22.8613C75.9256 22.6681 75.665 22.6142 75.4539 22.7265L70.4721 25.4443L67.3725 22.7849C67.1838 22.6232 66.9008 22.6322 66.7211 22.8119L60.9711 28.5619C60.7824 28.7506 60.7869 29.0515 60.9711 29.2402C61.1193 29.3885 61.3529 29.4244 61.5371 29.3211L66.5234 26.6033L69.6275 29.2627C69.8162 29.4244 70.0992 29.4154 70.2789 29.2357L76.0289 23.4857C76.1951 23.315 76.2131 23.05 76.0693 22.8613Z" fill="#FAFAFA"/>
</g>
<path d="M81.8014 35.7308L76.5803 37.4651L75 38L77.2155 31.1276C76.8437 30.4144 76.5493 29.6526 76.3324 28.8584C76.0845 27.902 75.9451 26.9133 75.9451 25.9246C75.9451 23.007 77.0606 20.2516 79.0282 18.1931C81.0113 16.1346 83.6761 15 86.4648 15C89.2535 15 91.9183 16.1346 93.9014 18.1931C95.9 20.2678 97 23.0395 97 25.9408C97 28.8584 95.8845 31.6138 93.9169 33.6723C91.9338 35.7308 89.269 36.8654 86.4803 36.8654C85.5972 36.8654 84.7141 36.7519 83.8465 36.525C83.1493 36.3467 82.4521 36.0712 81.8014 35.7308Z" fill="#EEEEEE"/>
<path d="M96.1634 25.9408C96.1634 23.1691 95.0789 20.6568 93.3282 18.8252C91.5775 17.0099 89.1606 15.8915 86.4803 15.8915C83.8 15.8915 81.3831 17.0099 79.6324 18.8414C77.8817 20.6568 76.7972 23.1691 76.7972 25.9408C76.7972 26.8647 76.9211 27.7724 77.1535 28.6314C77.3859 29.4905 77.7113 30.3009 78.1451 31.0465L76.4718 36.2333L76.3324 36.6385L76.7197 36.5088L81.8789 34.7907C82.5606 35.1797 83.2887 35.4715 84.0634 35.6822C84.838 35.8929 85.6437 36.0063 86.4803 36.0063C89.1606 36.0063 91.5775 34.888 93.3282 33.0564C95.0789 31.241 96.1634 28.7287 96.1634 25.9408Z" fill="#54CC61"/>
<path d="M84.9155 23.2016C84.869 23.1043 84.6211 22.4884 84.4042 21.9211C84.2648 21.5483 84.1254 21.2079 84.0944 21.1431C83.8465 20.5109 83.5521 20.5271 83.3352 20.5433C83.3197 20.5433 83.3042 20.5433 83.2887 20.5433C83.2113 20.5433 83.1338 20.5433 83.0563 20.5271C82.9634 20.5271 82.8549 20.5109 82.762 20.5109C82.638 20.5109 82.4676 20.5433 82.2817 20.6244C82.1423 20.6892 82.0183 20.7865 81.8789 20.9323C81.8634 20.9486 81.8479 20.9648 81.8324 20.981C81.538 21.3051 80.8873 22.0183 80.8873 23.3961C80.8873 24.8386 81.8789 26.2164 82.0338 26.4109C82.0338 26.4109 82.0648 26.4433 82.0958 26.4919C82.4676 27.0592 84.1563 29.6364 86.7282 30.6899C89.0521 31.6462 89.4859 31.5328 89.8578 31.4355C89.9197 31.4193 89.9817 31.4031 90.0592 31.4031C90.369 31.3707 90.8648 31.16 91.2831 30.852C91.6239 30.5927 91.9338 30.2685 92.0577 29.9443C92.1662 29.6364 92.2127 29.3608 92.2437 29.1339C92.2901 28.7935 92.2592 28.5342 92.1972 28.4369C92.1042 28.2911 91.9493 28.21 91.7169 28.0965C91.6704 28.0803 91.6394 28.0479 91.593 28.0317C91.438 27.9507 90.8803 27.6589 90.4155 27.432C90.1056 27.2861 89.8423 27.1564 89.7338 27.1078C89.5789 27.0592 89.4549 27.0106 89.3155 27.0268C89.1606 27.043 89.0211 27.124 88.8817 27.3347C88.8197 27.432 88.6958 27.5941 88.5718 27.7562C88.3704 28.0155 88.138 28.2911 88.0451 28.4045C87.9986 28.4531 87.9676 28.4856 87.9366 28.4856C87.8901 28.4856 87.8127 28.4693 87.7197 28.4207C87.6578 28.3883 87.5958 28.3559 87.5183 28.3235C87.1465 28.1614 86.4183 27.821 85.5972 27.0592C85.3028 26.7837 85.0394 26.4919 84.8225 26.2001C84.4662 25.7463 84.2338 25.3411 84.1408 25.179C84.0634 25.0493 84.1563 24.9521 84.2183 24.871C84.2958 24.79 84.4042 24.6603 84.4972 24.5469C84.5437 24.4982 84.5901 24.4334 84.6366 24.3686C84.7606 24.2065 84.8225 24.093 84.8845 23.9471C84.9 23.9147 84.9155 23.8985 84.931 23.8661C84.993 23.7364 85.0085 23.6068 84.993 23.4771C84.993 23.3961 84.9465 23.2988 84.9155 23.2016Z" fill="#FFFFFE"/>
<path d="M72.8906 74.2031C72.0365 75.2031 70.7917 75.9792 69.1562 76.5312C67.5208 77.0729 65.7083 77.3281 63.7188 77.2969C61.8125 77.276 60.2031 76.7969 58.8906 75.8594C57.5781 74.9219 56.6406 73.6146 56.0781 71.9375C55.5156 70.2604 55.3646 68.3698 55.625 66.2656L55.75 65.3281C56.2292 61.7969 57.4688 59 59.4688 56.9375C61.4792 54.875 63.9375 53.8698 66.8438 53.9219C69.3854 53.9635 71.3385 54.6458 72.7031 55.9688C74.0677 57.2917 74.8281 59.2031 74.9844 61.7031L69.8594 61.6875C69.7865 60.4688 69.4844 59.5781 68.9531 59.0156C68.4323 58.4531 67.6875 58.1562 66.7188 58.125C65.2812 58.0729 64.0938 58.6406 63.1562 59.8281C62.2188 61.0052 61.5781 62.6927 61.2344 64.8906C60.9427 66.7656 60.8385 68.224 60.9219 69.2656C61.0781 71.776 62.2083 73.0469 64.3125 73.0781C65.5833 73.099 66.6979 72.7917 67.6562 72.1562L68.3594 68.6094H64.6562L65.3125 64.8438H74.3594L72.8906 74.2031ZM91.4625 68.9688H88.4937L87.0875 77H81.7437L85.6812 54.25L93.7125 54.2656C96.2854 54.2656 98.2646 54.8698 99.65 56.0781C101.046 57.276 101.671 58.9167 101.525 61C101.41 62.6458 100.936 64.0104 100.103 65.0938C99.2698 66.1667 98.1031 67.0156 96.6031 67.6406L99.6656 76.7344V77H93.9625L91.4625 68.9688ZM89.2125 64.7344L92.3375 64.7656C93.1917 64.7656 93.9312 64.5573 94.5562 64.1406C95.1917 63.724 95.6448 63.1562 95.9156 62.4375C96.1865 61.7083 96.2646 61.0052 96.15 60.3281C95.9417 59.1719 95.2021 58.5625 93.9312 58.5L90.3062 58.4844L89.2125 64.7344ZM121.909 72.75H114.644L112.628 77H106.737L118.784 54.25H123.816L128.019 77H122.456L121.909 72.75ZM116.644 68.5156H121.362L120.362 60.6719L116.644 68.5156ZM154.95 58.4844H148.325L145.122 77H139.762L142.981 58.4844H136.466L137.216 54.25H155.684L154.95 58.4844ZM166.209 77H160.866L164.819 54.25H170.147L166.209 77ZM188.938 70.8438C189.167 69.6667 188.531 68.7552 187.031 68.1094L184.469 67.0469C180.875 65.4323 179.167 63.2344 179.344 60.4531C179.417 59.1823 179.854 58.0521 180.656 57.0625C181.458 56.0625 182.568 55.2865 183.984 54.7344C185.401 54.1823 186.948 53.9167 188.625 53.9375C190.875 53.9792 192.682 54.6354 194.047 55.9062C195.422 57.1771 196.099 58.8802 196.078 61.0156H190.766C190.797 60.1406 190.609 59.4427 190.203 58.9219C189.807 58.3906 189.151 58.1146 188.234 58.0938C187.339 58.0729 186.547 58.2812 185.859 58.7188C185.172 59.1562 184.766 59.7448 184.641 60.4844C184.443 61.526 185.214 62.3802 186.953 63.0469C188.703 63.7135 189.974 64.2865 190.766 64.7656C193.255 66.2552 194.422 68.2656 194.266 70.7969C194.182 72.1094 193.76 73.2604 193 74.25C192.24 75.2396 191.182 76.0052 189.828 76.5469C188.484 77.0885 186.974 77.349 185.297 77.3281C184.068 77.3073 182.927 77.1146 181.875 76.75C180.823 76.3854 179.922 75.8542 179.172 75.1562C177.651 73.75 176.922 71.901 176.984 69.6094L182.344 69.625C182.281 70.7917 182.505 71.6771 183.016 72.2812C183.526 72.875 184.385 73.1719 185.594 73.1719C186.49 73.1719 187.234 72.9688 187.828 72.5625C188.432 72.1458 188.802 71.5729 188.938 70.8438Z" fill="#D6920E"/>
<path d="M70.8906 70.2031C70.0365 71.2031 68.7917 71.9792 67.1562 72.5312C65.5208 73.0729 63.7083 73.3281 61.7188 73.2969C59.8125 73.276 58.2031 72.7969 56.8906 71.8594C55.5781 70.9219 54.6406 69.6146 54.0781 67.9375C53.5156 66.2604 53.3646 64.3698 53.625 62.2656L53.75 61.3281C54.2292 57.7969 55.4688 55 57.4688 52.9375C59.4792 50.875 61.9375 49.8698 64.8438 49.9219C67.3854 49.9635 69.3385 50.6458 70.7031 51.9688C72.0677 53.2917 72.8281 55.2031 72.9844 57.7031L67.8594 57.6875C67.7865 56.4688 67.4844 55.5781 66.9531 55.0156C66.4323 54.4531 65.6875 54.1562 64.7188 54.125C63.2812 54.0729 62.0938 54.6406 61.1562 55.8281C60.2188 57.0052 59.5781 58.6927 59.2344 60.8906C58.9427 62.7656 58.8385 64.224 58.9219 65.2656C59.0781 67.776 60.2083 69.0469 62.3125 69.0781C63.5833 69.099 64.6979 68.7917 65.6562 68.1562L66.3594 64.6094H62.6562L63.3125 60.8438H72.3594L70.8906 70.2031ZM89.4625 64.9688H86.4937L85.0875 73H79.7437L83.6812 50.25L91.7125 50.2656C94.2854 50.2656 96.2646 50.8698 97.65 52.0781C99.0458 53.276 99.6708 54.9167 99.525 57C99.4104 58.6458 98.9365 60.0104 98.1031 61.0938C97.2698 62.1667 96.1031 63.0156 94.6031 63.6406L97.6656 72.7344V73H91.9625L89.4625 64.9688ZM87.2125 60.7344L90.3375 60.7656C91.1917 60.7656 91.9312 60.5573 92.5562 60.1406C93.1917 59.724 93.6448 59.1562 93.9156 58.4375C94.1865 57.7083 94.2646 57.0052 94.15 56.3281C93.9417 55.1719 93.2021 54.5625 91.9312 54.5L88.3062 54.4844L87.2125 60.7344ZM119.909 68.75H112.644L110.628 73H104.737L116.784 50.25H121.816L126.019 73H120.456L119.909 68.75ZM114.644 64.5156H119.362L118.362 56.6719L114.644 64.5156ZM152.95 54.4844H146.325L143.122 73H137.762L140.981 54.4844H134.466L135.216 50.25H153.684L152.95 54.4844ZM164.209 73H158.866L162.819 50.25H168.147L164.209 73ZM186.938 66.8438C187.167 65.6667 186.531 64.7552 185.031 64.1094L182.469 63.0469C178.875 61.4323 177.167 59.2344 177.344 56.4531C177.417 55.1823 177.854 54.0521 178.656 53.0625C179.458 52.0625 180.568 51.2865 181.984 50.7344C183.401 50.1823 184.948 49.9167 186.625 49.9375C188.875 49.9792 190.682 50.6354 192.047 51.9062C193.422 53.1771 194.099 54.8802 194.078 57.0156H188.766C188.797 56.1406 188.609 55.4427 188.203 54.9219C187.807 54.3906 187.151 54.1146 186.234 54.0938C185.339 54.0729 184.547 54.2812 183.859 54.7188C183.172 55.1562 182.766 55.7448 182.641 56.4844C182.443 57.526 183.214 58.3802 184.953 59.0469C186.703 59.7135 187.974 60.2865 188.766 60.7656C191.255 62.2552 192.422 64.2656 192.266 66.7969C192.182 68.1094 191.76 69.2604 191 70.25C190.24 71.2396 189.182 72.0052 187.828 72.5469C186.484 73.0885 184.974 73.349 183.297 73.3281C182.068 73.3073 180.927 73.1146 179.875 72.75C178.823 72.3854 177.922 71.8542 177.172 71.1562C175.651 69.75 174.922 67.901 174.984 65.6094L180.344 65.625C180.281 66.7917 180.505 67.6771 181.016 68.2812C181.526 68.875 182.385 69.1719 183.594 69.1719C184.49 69.1719 185.234 68.9688 185.828 68.5625C186.432 68.1458 186.802 67.5729 186.938 66.8438Z" fill="white"/>
<path d="M70.8906 70.2031L71.651 70.8526L71.8347 70.6376L71.8785 70.3582L70.8906 70.2031ZM67.1562 72.5312L67.4707 73.4806L67.4761 73.4787L67.1562 72.5312ZM61.7188 73.2969L61.7345 72.297L61.7297 72.2969L61.7188 73.2969ZM53.625 62.2656L52.6337 62.1335L52.6326 62.1428L53.625 62.2656ZM53.75 61.3281L52.7591 61.1937L52.7588 61.196L53.75 61.3281ZM57.4688 52.9375L56.7527 52.2395L56.7508 52.2414L57.4688 52.9375ZM64.8438 49.9219L64.8258 50.9217L64.8274 50.9217L64.8438 49.9219ZM72.9844 57.7031L72.9813 58.7031L74.049 58.7064L73.9824 57.6407L72.9844 57.7031ZM67.8594 57.6875L66.8612 57.7472L66.9172 58.6846L67.8563 58.6875L67.8594 57.6875ZM66.9531 55.0156L66.2193 55.6951L66.2261 55.7022L66.9531 55.0156ZM64.7188 54.125L64.6825 55.1244L64.6865 55.1245L64.7188 54.125ZM61.1562 55.8281L61.9385 56.4511L61.9411 56.4478L61.1562 55.8281ZM59.2344 60.8906L58.2464 60.7361L58.2463 60.7369L59.2344 60.8906ZM58.9219 65.2656L59.9199 65.2035L59.9194 65.1947L59.9187 65.1859L58.9219 65.2656ZM62.3125 69.0781L62.3289 68.0783L62.3273 68.0782L62.3125 69.0781ZM65.6562 68.1562L66.2089 68.9897L66.5561 68.7594L66.6372 68.3507L65.6562 68.1562ZM66.3594 64.6094L67.3403 64.8038L67.5771 63.6094H66.3594V64.6094ZM62.6562 64.6094L61.6711 64.4377L61.4669 65.6094H62.6562V64.6094ZM63.3125 60.8438V59.8438H62.4717L62.3273 60.6721L63.3125 60.8438ZM72.3594 60.8438L73.3473 60.9988L73.5285 59.8438H72.3594V60.8438ZM70.1303 69.5536C69.4245 70.3798 68.3529 71.0718 66.8364 71.5838L67.4761 73.4787C69.2305 72.8865 70.6484 72.0264 71.651 70.8526L70.1303 69.5536ZM66.8418 71.582C65.3279 72.0834 63.629 72.3268 61.7345 72.297L61.703 74.2968C63.7877 74.3295 65.7137 74.0624 67.4707 73.4805L66.8418 71.582ZM61.7297 72.2969C59.99 72.2779 58.5892 71.8438 57.4719 71.0456L56.3094 72.6731C57.817 73.75 59.635 74.2742 61.7078 74.2968L61.7297 72.2969ZM57.4719 71.0456C56.3475 70.2425 55.5285 69.1171 55.0262 67.6195L53.13 68.2555C53.7527 70.112 54.8088 71.6012 56.3094 72.6731L57.4719 71.0456ZM55.0262 67.6195C54.5198 66.1096 54.3718 64.3733 54.6174 62.3885L52.6326 62.1428C52.3574 64.3663 52.5115 66.4112 53.13 68.2555L55.0262 67.6195ZM54.6162 62.3978L54.7412 61.4603L52.7588 61.196L52.6338 62.1335L54.6162 62.3978ZM54.7409 61.4626C55.1984 58.0913 56.3679 55.5093 58.1867 53.6336L56.7508 52.2414C54.5696 54.4907 53.2599 57.5025 52.7591 61.1937L54.7409 61.4626ZM58.1848 53.6355C60.0007 51.7726 62.1925 50.8745 64.8258 50.9217L64.8617 48.922C61.6825 48.8651 58.9576 49.9774 56.7527 52.2395L58.1848 53.6355ZM64.8274 50.9217C67.2025 50.9607 68.8795 51.5936 70.0071 52.6867L71.3992 51.2508C69.7976 49.6981 67.5683 48.9664 64.8601 48.922L64.8274 50.9217ZM70.0071 52.6867C71.1422 53.7872 71.8406 55.4332 71.9863 57.7655L73.9824 57.6407C73.8157 54.9731 72.9932 52.7961 71.3992 51.2508L70.0071 52.6867ZM72.9874 56.7031L67.8624 56.6875L67.8563 58.6875L72.9813 58.7031L72.9874 56.7031ZM68.8576 57.6278C68.7783 56.3026 68.4428 55.1365 67.6801 54.329L66.2261 55.7022C66.5259 56.0197 66.7946 56.6349 66.8612 57.7472L68.8576 57.6278ZM67.6869 54.3362C66.9394 53.5289 65.9125 53.163 64.751 53.1255L64.6865 55.1245C65.4625 55.1495 65.9252 55.3774 66.2194 55.695L67.6869 54.3362ZM64.755 53.1257C62.98 53.0613 61.4944 53.786 60.3714 55.2085L61.9411 56.4478C62.6931 55.4953 63.5825 55.0845 64.6825 55.1243L64.755 53.1257ZM60.374 55.2051C59.2889 56.5676 58.605 58.443 58.2464 60.7361L60.2224 61.0451C60.5512 58.9424 61.1486 57.4428 61.9385 56.4511L60.374 55.2051ZM58.2463 60.7369C57.9506 62.6374 57.8324 64.1868 57.9251 65.3454L59.9187 65.1859C59.8447 64.2611 59.9348 62.8938 60.2225 61.0443L58.2463 60.7369ZM57.9238 65.3277C58.0094 66.7034 58.3694 67.9002 59.1395 68.7661C59.9337 69.6591 61.0367 70.0593 62.2977 70.078L62.3273 68.0782C61.4841 68.0657 60.97 67.8148 60.634 67.437C60.2738 67.0321 59.9906 66.3382 59.9199 65.2035L57.9238 65.3277ZM62.2961 70.078C63.7468 70.1018 65.0644 69.7485 66.2089 68.9897L65.1036 67.3228C64.3314 67.8348 63.4198 68.0961 62.3289 68.0783L62.2961 70.078ZM66.6372 68.3507L67.3403 64.8038L65.3785 64.4149L64.6753 67.9618L66.6372 68.3507ZM66.3594 63.6094H62.6562V65.6094H66.3594V63.6094ZM63.6414 64.7811L64.2977 61.0154L62.3273 60.6721L61.6711 64.4377L63.6414 64.7811ZM63.3125 61.8438H72.3594V59.8438H63.3125V61.8438ZM71.3715 60.6887L69.9027 70.0481L71.8785 70.3582L73.3473 60.9988L71.3715 60.6887ZM89.4625 64.9688L90.4173 64.6715L90.1985 63.9688H89.4625V64.9688ZM86.4937 64.9688V63.9688H85.6536L85.5087 64.7963L86.4937 64.9688ZM85.0875 73V74H85.9276L86.0725 73.1725L85.0875 73ZM79.7437 73L78.7584 72.8295L78.5558 74H79.7437V73ZM83.6812 50.25L83.6832 49.25L82.8397 49.2484L82.6959 50.0795L83.6812 50.25ZM91.7125 50.2656L91.7106 51.2656H91.7125V50.2656ZM97.65 52.0781L96.9927 52.8318L96.9987 52.837L97.65 52.0781ZM99.525 57L98.5274 56.9302L98.5274 56.9305L99.525 57ZM98.1031 61.0938L98.8929 61.7072L98.8957 61.7035L98.1031 61.0938ZM94.6031 63.6406L94.2185 62.7175L93.3578 63.0762L93.6554 63.9598L94.6031 63.6406ZM97.6656 72.7344H98.6656V72.5705L98.6133 72.4152L97.6656 72.7344ZM97.6656 73V74H98.6656V73H97.6656ZM91.9625 73L91.0077 73.2972L91.2265 74H91.9625V73ZM87.2125 60.7344L86.2275 60.562L86.0244 61.7225L87.2025 61.7343L87.2125 60.7344ZM90.3375 60.7656L90.3275 61.7656H90.3375V60.7656ZM92.5562 60.1406L92.0079 59.3044L92.0015 59.3086L92.5562 60.1406ZM93.9156 58.4375L94.8514 58.7901L94.853 58.7857L93.9156 58.4375ZM94.15 56.3281L95.136 56.1613L95.1342 56.1508L94.15 56.3281ZM91.9312 54.5L91.9804 53.5012L91.958 53.5001L91.9356 53.5L91.9312 54.5ZM88.3062 54.4844L88.3106 53.4844L87.4667 53.4807L87.3212 54.312L88.3062 54.4844ZM89.4625 63.9688H86.4937V65.9688H89.4625V63.9688ZM85.5087 64.7963L84.1025 72.8275L86.0725 73.1725L87.4788 65.1412L85.5087 64.7963ZM85.0875 72H79.7437V74H85.0875V72ZM80.7291 73.1705L84.6666 50.4205L82.6959 50.0795L78.7584 72.8295L80.7291 73.1705ZM83.6793 51.25L91.7106 51.2656L91.7144 49.2656L83.6832 49.25L83.6793 51.25ZM91.7125 51.2656C94.1398 51.2656 95.8507 51.8357 96.9927 52.8318L98.3073 51.3245C96.6785 49.9039 94.431 49.2656 91.7125 49.2656V51.2656ZM96.9987 52.837C98.1197 53.799 98.6546 55.1134 98.5274 56.9302L100.523 57.0698C100.687 54.72 99.972 52.7531 98.3013 51.3193L96.9987 52.837ZM98.5274 56.9305C98.4236 58.4212 98.0009 59.5865 97.3105 60.484L98.8957 61.7035C99.872 60.4344 100.397 58.8704 100.523 57.0695L98.5274 56.9305ZM97.3134 60.4803C96.6051 61.3923 95.5903 62.146 94.2185 62.7175L94.9877 64.5637C96.616 63.8853 97.9345 62.9411 98.8929 61.7072L97.3134 60.4803ZM93.6554 63.9598L96.7179 73.0535L98.6133 72.4152L95.5508 63.3215L93.6554 63.9598ZM96.6656 72.7344V73H98.6656V72.7344H96.6656ZM97.6656 72H91.9625V74H97.6656V72ZM92.9173 72.7028L90.4173 64.6715L88.5077 65.266L91.0077 73.2972L92.9173 72.7028ZM87.2025 61.7343L90.3275 61.7656L90.3475 59.7657L87.2225 59.7344L87.2025 61.7343ZM90.3375 61.7656C91.3612 61.7656 92.2999 61.5134 93.1109 60.9727L92.0015 59.3086C91.5626 59.6012 91.0222 59.7656 90.3375 59.7656V61.7656ZM93.1046 60.9769C93.9192 60.4427 94.5068 59.7047 94.8514 58.7901L92.9799 58.0849C92.7828 58.6078 92.4642 59.0052 92.0079 59.3044L93.1046 60.9769ZM94.853 58.7857C95.1767 57.9143 95.2836 57.0333 95.136 56.1613L93.164 56.495C93.2456 56.9771 93.1962 57.5024 92.9782 58.0893L94.853 58.7857ZM95.1342 56.1508C94.9978 55.3942 94.6663 54.7194 94.075 54.2321C93.4921 53.7519 92.7607 53.5396 91.9804 53.5012L91.8821 55.4988C92.3726 55.5229 92.6464 55.6465 92.8032 55.7757C92.9514 55.8978 93.0938 56.1058 93.1658 56.5054L95.1342 56.1508ZM91.9356 53.5L88.3106 53.4844L88.3019 55.4844L91.9269 55.5L91.9356 53.5ZM87.3212 54.312L86.2275 60.562L88.1975 60.9068L89.2913 54.6568L87.3212 54.312ZM119.909 68.75L120.901 68.6224L120.789 67.75H119.909V68.75ZM112.644 68.75V67.75H112.011L111.74 68.3215L112.644 68.75ZM110.628 73V74H111.261L111.532 73.4285L110.628 73ZM104.737 73L103.854 72.532L103.076 74H104.737V73ZM116.784 50.25V49.25H116.182L115.901 49.782L116.784 50.25ZM121.816 50.25L122.799 50.0683L122.648 49.25H121.816V50.25ZM126.019 73V74H127.22L127.002 72.8183L126.019 73ZM120.456 73L119.464 73.1276L119.577 74H120.456V73ZM114.644 64.5156L113.74 64.0872L113.063 65.5156H114.644V64.5156ZM119.362 64.5156V65.5156H120.498L120.354 64.3892L119.362 64.5156ZM118.362 56.6719L119.354 56.5454L118.922 53.1566L117.459 56.2435L118.362 56.6719ZM119.909 67.75H112.644V69.75H119.909V67.75ZM111.74 68.3215L109.725 72.5715L111.532 73.4285L113.547 69.1785L111.74 68.3215ZM110.628 72H104.737V74H110.628V72ZM105.621 73.468L117.668 50.718L115.901 49.782L103.854 72.532L105.621 73.468ZM116.784 51.25H121.816V49.25H116.784V51.25ZM120.832 50.4317L125.035 73.1817L127.002 72.8183L122.799 50.0683L120.832 50.4317ZM126.019 72H120.456V74H126.019V72ZM121.448 72.8724L120.901 68.6224L118.918 68.8776L119.464 73.1276L121.448 72.8724ZM114.644 65.5156H119.362V63.5156H114.644V65.5156ZM120.354 64.3892L119.354 56.5454L117.371 56.7983L118.371 64.6421L120.354 64.3892ZM117.459 56.2435L113.74 64.0872L115.547 64.944L119.266 57.1003L117.459 56.2435ZM152.95 54.4844V55.4844H153.791L153.935 54.6553L152.95 54.4844ZM146.325 54.4844V53.4844H145.483L145.34 54.3139L146.325 54.4844ZM143.122 73V74H143.964L144.107 73.1705L143.122 73ZM137.762 73L136.777 72.8287L136.574 74H137.762V73ZM140.981 54.4844L141.966 54.6556L142.17 53.4844H140.981V54.4844ZM134.466 54.4844L133.481 54.31L133.273 55.4844H134.466V54.4844ZM135.216 50.25V49.25H134.377L134.231 50.0756L135.216 50.25ZM153.684 50.25L154.67 50.4209L154.873 49.25H153.684V50.25ZM152.95 53.4844H146.325V55.4844H152.95V53.4844ZM145.34 54.3139L142.137 72.8295L144.107 73.1705L147.31 54.6548L145.34 54.3139ZM143.122 72H137.762V74H143.122V72ZM138.748 73.1713L141.966 54.6556L139.996 54.3131L136.777 72.8287L138.748 73.1713ZM140.981 53.4844H134.466V55.4844H140.981V53.4844ZM135.45 54.6588L136.2 50.4244L134.231 50.0756L133.481 54.31L135.45 54.6588ZM135.216 51.25H153.684V49.25H135.216V51.25ZM152.699 50.0791L151.965 54.3135L153.935 54.6553L154.67 50.4209L152.699 50.0791ZM164.209 73V74H165.051L165.195 73.1705L164.209 73ZM158.866 73L157.88 72.8288L157.677 74H158.866V73ZM162.819 50.25V49.25H161.978L161.834 50.0788L162.819 50.25ZM168.147 50.25L169.132 50.4205L169.335 49.25H168.147V50.25ZM164.209 72H158.866V74H164.209V72ZM159.851 73.1712L163.804 50.4212L161.834 50.0788L157.88 72.8288L159.851 73.1712ZM162.819 51.25H168.147V49.25H162.819V51.25ZM167.162 50.0795L163.224 72.8295L165.195 73.1705L169.132 50.4205L167.162 50.0795ZM186.938 66.8438L185.956 66.6526L185.954 66.6612L186.938 66.8438ZM185.031 64.1094L185.427 63.1908L185.414 63.1856L185.031 64.1094ZM182.469 63.0469L182.059 63.959L182.072 63.965L182.086 63.9706L182.469 63.0469ZM177.344 56.4531L178.342 56.5167L178.342 56.5104L177.344 56.4531ZM178.656 53.0625L179.433 53.6922L179.436 53.6882L178.656 53.0625ZM186.625 49.9375L186.644 48.9377L186.637 48.9376L186.625 49.9375ZM192.047 51.9062L191.365 52.6381L191.368 52.6406L192.047 51.9062ZM194.078 57.0156V58.0156H195.068L195.078 57.0254L194.078 57.0156ZM188.766 57.0156L187.766 56.9799L187.729 58.0156H188.766V57.0156ZM188.203 54.9219L187.401 55.5194L187.408 55.5282L187.415 55.5369L188.203 54.9219ZM186.234 54.0938L186.211 55.0935L186.212 55.0935L186.234 54.0938ZM182.641 56.4844L183.623 56.671L183.625 56.661L183.627 56.651L182.641 56.4844ZM184.953 59.0469L184.595 59.9807L184.597 59.9814L184.953 59.0469ZM188.766 60.7656L188.248 61.6211L188.252 61.6238L188.766 60.7656ZM192.266 66.7969L193.264 66.8602L193.264 66.8585L192.266 66.7969ZM191 70.25L190.207 69.6407L191 70.25ZM187.828 72.5469L187.457 71.6184L187.454 71.6194L187.828 72.5469ZM183.297 73.3281L183.28 74.328L183.284 74.328L183.297 73.3281ZM177.172 71.1562L177.853 70.4242L177.851 70.422L177.172 71.1562ZM174.984 65.6094L174.987 64.6094L174.011 64.6065L173.985 65.5821L174.984 65.6094ZM180.344 65.625L181.342 65.6785L181.399 64.6281L180.347 64.625L180.344 65.625ZM181.016 68.2812L180.252 68.9266L180.257 68.9331L181.016 68.2812ZM185.828 68.5625L186.393 69.3878L186.396 69.3857L185.828 68.5625ZM187.919 67.0349C188.081 66.204 187.939 65.402 187.453 64.7055C186.99 64.0411 186.272 63.555 185.427 63.1909L184.636 65.0279C185.29 65.3096 185.64 65.6021 185.812 65.8492C185.962 66.0641 186.023 66.3064 185.956 66.6526L187.919 67.0349ZM185.414 63.1856L182.852 62.1231L182.086 63.9706L184.648 65.0331L185.414 63.1856ZM182.879 62.1347C181.173 61.3682 180.003 60.5014 179.282 59.5738C178.578 58.6678 178.269 57.664 178.342 56.5167L176.346 56.3896C176.242 58.0235 176.698 59.5092 177.703 60.8012C178.69 62.0716 180.171 63.1109 182.059 63.959L182.879 62.1347ZM178.342 56.5104C178.403 55.449 178.763 54.519 179.433 53.6922L177.879 52.4328C176.945 53.5852 176.43 54.9156 176.345 56.3958L178.342 56.5104ZM179.436 53.6882C180.11 52.8485 181.064 52.1664 182.347 51.6661L181.621 49.8026C180.072 50.4065 178.807 51.2765 177.876 52.4368L179.436 53.6882ZM182.347 51.6661C183.633 51.1652 185.051 50.918 186.613 50.9374L186.637 48.9376C184.845 48.9153 183.169 49.1993 181.621 49.8026L182.347 51.6661ZM186.606 50.9373C188.664 50.9754 190.217 51.5685 191.365 52.638L192.728 51.1745C191.148 49.7023 189.086 48.9829 186.644 48.9377L186.606 50.9373ZM191.368 52.6406C192.506 53.692 193.097 55.1089 193.078 57.0059L195.078 57.0254C195.101 54.6515 194.338 52.6622 192.726 51.1719L191.368 52.6406ZM194.078 56.0156H188.766V58.0156H194.078V56.0156ZM189.765 57.0513C189.802 56.0186 189.584 55.066 188.992 54.3068L187.415 55.5369C187.635 55.8194 187.792 56.2627 187.766 56.9799L189.765 57.0513ZM189.005 54.3244C188.361 53.4606 187.356 53.119 186.257 53.094L186.212 55.0935C186.946 55.1102 187.253 55.3207 187.401 55.5194L189.005 54.3244ZM186.258 53.094C185.184 53.0691 184.194 53.3207 183.322 53.8751L184.396 55.5624C184.9 55.2418 185.493 55.0768 186.211 55.0935L186.258 53.094ZM183.322 53.8751C182.419 54.4498 181.831 55.2731 181.655 56.3177L183.627 56.651C183.7 56.2164 183.924 55.8627 184.396 55.5624L183.322 53.8751ZM181.658 56.2977C181.495 57.155 181.754 57.9397 182.328 58.5762C182.865 59.1711 183.659 59.622 184.595 59.9807L185.311 58.1131C184.507 57.8051 184.047 57.4956 183.813 57.2363C183.616 57.0186 183.588 56.8555 183.623 56.671L181.658 56.2977ZM184.597 59.9814C186.336 60.6437 187.537 61.1907 188.248 61.6211L189.283 59.9101C188.411 59.3822 187.071 58.7834 185.309 58.1124L184.597 59.9814ZM188.252 61.6238C189.387 62.3028 190.163 63.066 190.643 63.8925C191.118 64.7116 191.335 65.6478 191.268 66.7353L193.264 66.8585C193.353 65.4147 193.064 64.08 192.373 62.8887C191.686 61.7048 190.634 60.718 189.279 59.9075L188.252 61.6238ZM191.268 66.7335C191.196 67.859 190.84 68.8174 190.207 69.6407L191.793 70.8593C192.681 69.7034 193.168 68.3598 193.264 66.8602L191.268 66.7335ZM190.207 69.6407C189.573 70.4655 188.673 71.132 187.457 71.6184L188.2 73.4754C189.692 72.8784 190.906 72.0136 191.793 70.8593L190.207 69.6407ZM187.454 71.6194C186.251 72.1044 184.875 72.3476 183.309 72.3282L183.284 74.328C185.073 74.3503 186.718 74.0727 188.202 73.4744L187.454 71.6194ZM183.314 72.3283C182.179 72.309 181.145 72.1317 180.202 71.8051L179.548 73.6949C180.709 74.0975 181.956 74.3055 183.28 74.328L183.314 72.3283ZM180.202 71.8051C179.27 71.4821 178.493 71.0193 177.853 70.4242L176.491 71.8883C177.351 72.689 178.376 73.2887 179.548 73.6949L180.202 71.8051ZM177.851 70.422C176.566 69.2338 175.928 67.6746 175.984 65.6366L173.985 65.5821C173.915 68.1275 174.736 70.2662 176.493 71.8905L177.851 70.422ZM174.981 66.6094L180.341 66.625L180.347 64.625L174.987 64.6094L174.981 66.6094ZM179.345 65.5715C179.275 66.8729 179.513 68.0525 180.252 68.9266L181.78 67.6359C181.497 67.3017 181.287 66.7104 181.342 65.6785L179.345 65.5715ZM180.257 68.9331C181.041 69.8449 182.252 70.1719 183.594 70.1719V68.1719C182.518 68.1719 182.011 67.9051 181.774 67.6294L180.257 68.9331ZM183.594 70.1719C184.641 70.1719 185.596 69.933 186.393 69.3878L185.263 67.7372C184.873 68.0045 184.338 68.1719 183.594 68.1719V70.1719ZM186.396 69.3857C187.22 68.8171 187.738 68.0125 187.921 67.0263L185.954 66.6612C185.867 67.1333 185.644 67.4746 185.26 67.7393L186.396 69.3857Z" fill="#FCAB10"/>
<defs>
<clipPath id="clip0">
<rect width="33" height="19" fill="white" transform="translate(123 17)"/>
</clipPath>
<clipPath id="clip1">
<rect width="23" height="23" fill="white" transform="translate(57 15)"/>
</clipPath>
</defs>
</svg>
