<svg width="265" height="137" viewBox="0 0 265 137" fill="none" xmlns="http://www.w3.org/2000/svg">
<rect width="265" height="137" fill="#FCAB10"/>
<g filter="url(#filter0_d)">
<path d="M85.4189 111.329C84.2979 112.642 82.6641 113.66 80.5176 114.385C78.3711 115.096 75.9922 115.431 73.3809 115.39C70.8789 115.362 68.7666 114.733 67.0439 113.503C65.3213 112.272 64.0908 110.557 63.3525 108.355C62.6143 106.154 62.416 103.673 62.7578 100.911L62.9219 99.6807C63.5508 95.0459 65.1777 91.375 67.8027 88.668C70.4414 85.9609 73.668 84.6416 77.4824 84.71C80.8184 84.7646 83.3818 85.6602 85.1729 87.3965C86.9639 89.1328 87.9619 91.6416 88.167 94.9229L81.4404 94.9023C81.3447 93.3027 80.9482 92.1338 80.251 91.3955C79.5674 90.6572 78.5898 90.2676 77.3184 90.2266C75.4316 90.1582 73.873 90.9033 72.6426 92.4619C71.4121 94.0068 70.5713 96.2217 70.1201 99.1064C69.7373 101.567 69.6006 103.481 69.71 104.849C69.915 108.144 71.3984 109.812 74.1602 109.853C75.8281 109.88 77.291 109.477 78.5488 108.643L79.4717 103.987H74.6113L75.4727 99.0449H87.3467L85.4189 111.329ZM101.395 104.459H97.498L95.6523 115H88.6387L93.8066 85.1406L104.348 85.1611C107.725 85.1611 110.322 85.9541 112.141 87.54C113.973 89.1123 114.793 91.2656 114.602 94C114.451 96.1602 113.829 97.9512 112.735 99.373C111.642 100.781 110.11 101.896 108.142 102.716L112.161 114.651V115H104.676L101.395 104.459ZM98.4414 98.9014L102.543 98.9424C103.664 98.9424 104.635 98.6689 105.455 98.1221C106.289 97.5752 106.884 96.8301 107.239 95.8867C107.595 94.9297 107.697 94.0068 107.547 93.1182C107.273 91.6006 106.303 90.8008 104.635 90.7188L99.877 90.6982L98.4414 98.9014ZM132.956 109.422H123.42L120.774 115H113.043L128.854 85.1406H135.458L140.975 115H133.674L132.956 109.422ZM126.045 103.864H132.238L130.926 93.5693L126.045 103.864ZM167.922 90.6982H159.227L155.022 115H147.988L152.213 90.6982H143.661L144.646 85.1406H168.886L167.922 90.6982ZM174.3 115H167.286L172.475 85.1406H179.468L174.3 115ZM195.73 106.92C196.031 105.375 195.197 104.179 193.229 103.331L189.865 101.937C185.148 99.8174 182.906 96.9326 183.139 93.2822C183.234 91.6143 183.809 90.1309 184.861 88.832C185.914 87.5195 187.37 86.501 189.229 85.7764C191.089 85.0518 193.119 84.7031 195.32 84.7305C198.273 84.7852 200.646 85.6465 202.437 87.3145C204.241 88.9824 205.13 91.2178 205.103 94.0205H198.13C198.171 92.8721 197.925 91.9561 197.392 91.2725C196.872 90.5752 196.011 90.2129 194.808 90.1855C193.632 90.1582 192.593 90.4316 191.69 91.0059C190.788 91.5801 190.255 92.3525 190.091 93.3232C189.831 94.6904 190.843 95.8115 193.126 96.6865C195.423 97.5615 197.091 98.3135 198.13 98.9424C201.397 100.897 202.929 103.536 202.724 106.858C202.614 108.581 202.061 110.092 201.062 111.391C200.064 112.689 198.677 113.694 196.899 114.405C195.136 115.116 193.153 115.458 190.952 115.431C189.339 115.403 187.842 115.15 186.461 114.672C185.08 114.193 183.897 113.496 182.913 112.58C180.917 110.734 179.96 108.308 180.042 105.3L187.076 105.32C186.994 106.852 187.288 108.014 187.958 108.807C188.628 109.586 189.756 109.976 191.342 109.976C192.518 109.976 193.495 109.709 194.274 109.176C195.067 108.629 195.553 107.877 195.73 106.92Z" fill="white"/>
<path d="M85.4189 111.329L86.9397 112.628L87.3071 112.198L87.3948 111.639L85.4189 111.329ZM80.5176 114.385L81.1464 116.283L81.1573 116.28L80.5176 114.385ZM73.3809 115.39L73.4123 113.39L73.4027 113.39L73.3809 115.39ZM62.7578 100.911L60.7754 100.647L60.7741 100.656L60.773 100.665L62.7578 100.911ZM62.9219 99.6807L60.94 99.4117L60.9394 99.4163L62.9219 99.6807ZM67.8027 88.668L66.3705 87.2719L66.3669 87.2757L67.8027 88.668ZM77.4824 84.71L77.4466 86.7096L77.4496 86.7097L77.4824 84.71ZM88.167 94.9229L88.1609 96.9228L90.2963 96.9294L90.1631 94.7981L88.167 94.9229ZM81.4404 94.9023L79.444 95.0218L79.5562 96.8966L81.4343 96.9023L81.4404 94.9023ZM80.251 91.3955L78.7835 92.7543L78.7902 92.7616L78.797 92.7688L80.251 91.3955ZM77.3184 90.2266L77.2459 92.2253L77.2539 92.2255L77.3184 90.2266ZM72.6426 92.4619L74.207 93.7079L74.2123 93.7012L72.6426 92.4619ZM70.1201 99.1064L68.1441 98.7974L68.1439 98.799L70.1201 99.1064ZM69.71 104.849L71.7061 104.724L71.705 104.707L71.7036 104.689L69.71 104.849ZM74.1602 109.853L74.1929 107.853L74.1899 107.853L74.1602 109.853ZM78.5488 108.643L79.654 110.309L80.3486 109.849L80.5107 109.031L78.5488 108.643ZM79.4717 103.987L81.4335 104.376L81.9071 101.987H79.4717V103.987ZM74.6113 103.987L72.641 103.644L72.2326 105.987H74.6113V103.987ZM75.4727 99.0449V97.0449H73.7911L73.5024 98.7015L75.4727 99.0449ZM87.3467 99.0449L89.3225 99.355L89.685 97.0449H87.3467V99.0449ZM83.8982 110.03C83.074 110.995 81.7865 111.846 79.8779 112.49L81.1573 116.28C83.5416 115.475 85.5217 114.288 86.9397 112.628L83.8982 110.03ZM79.8888 112.486C77.9853 113.117 75.8335 113.428 73.4123 113.39L73.3494 117.389C76.1508 117.433 78.7569 117.075 81.1464 116.283L79.8888 112.486ZM73.4027 113.39C71.2338 113.366 69.5388 112.827 68.2064 111.875L65.8815 115.13C67.9944 116.64 70.524 117.359 73.359 117.39L73.4027 113.39ZM68.2064 111.875C66.86 110.914 65.8666 109.562 65.2487 107.719L61.4564 108.991C62.315 111.552 63.7826 113.631 65.8815 115.13L68.2064 111.875ZM65.2487 107.719C64.6226 105.853 64.4304 103.68 64.7427 101.157L60.773 100.665C60.4016 103.666 60.6059 106.456 61.4564 108.991L65.2487 107.719ZM64.7403 101.175L64.9043 99.945L60.9394 99.4163L60.7754 100.647L64.7403 101.175ZM64.9037 99.9496C65.4892 95.6347 66.976 92.3935 69.2385 90.0603L66.3669 87.2757C63.3795 90.3565 61.6123 94.4571 60.94 99.4117L64.9037 99.9496ZM69.2349 90.064C71.4845 87.7562 74.178 86.6511 77.4466 86.7096L77.5183 82.7103C73.1579 82.6321 69.3984 84.1657 66.3706 87.272L69.2349 90.064ZM77.4496 86.7097C80.4526 86.7589 82.4637 87.5556 83.7807 88.8325L86.565 85.9605C84.3 83.7647 81.1841 82.7704 77.5152 82.7102L77.4496 86.7097ZM83.7807 88.8325C85.1128 90.1239 85.9868 92.1017 86.1709 95.0476L90.1631 94.7981C89.9371 91.1815 88.8149 88.1418 86.565 85.9605L83.7807 88.8325ZM88.1731 92.9229L81.4465 92.9024L81.4343 96.9023L88.1609 96.9228L88.1731 92.9229ZM83.4369 94.7829C83.3284 92.9704 82.8651 91.2506 81.705 90.0223L78.797 92.7688C79.0314 93.017 79.361 93.6351 79.444 95.0218L83.4369 94.7829ZM81.7185 90.0367C80.5815 88.8087 79.0398 88.2811 77.3828 88.2276L77.2539 92.2255C78.1399 92.2541 78.5533 92.5057 78.7835 92.7543L81.7185 90.0367ZM77.3908 88.2279C74.8291 88.1351 72.6743 89.194 71.0728 91.2226L74.2123 93.7012C75.0718 92.6126 76.0341 92.1813 77.2459 92.2253L77.3908 88.2279ZM71.0781 91.2159C69.5523 93.1316 68.6251 95.7224 68.1441 98.7974L72.0961 99.4155C72.5175 96.721 73.2719 94.882 74.207 93.7079L71.0781 91.2159ZM68.1439 98.799C67.7531 101.311 67.5883 103.407 67.7163 105.008L71.7036 104.689C71.6129 103.556 71.7215 101.824 72.0964 99.4139L68.1439 98.799ZM67.7138 104.973C67.8314 106.861 68.3302 108.605 69.4818 109.9C70.6817 111.249 72.332 111.826 74.1305 111.852L74.1899 107.853C73.2266 107.838 72.7543 107.561 72.4708 107.242C72.1391 106.869 71.7936 106.131 71.7061 104.724L67.7138 104.973ZM74.1274 111.852C76.1552 111.886 78.024 111.39 79.654 110.309L77.4436 106.976C76.558 107.563 75.5011 107.874 74.1929 107.853L74.1274 111.852ZM80.5107 109.031L81.4335 104.376L77.5099 103.598L76.587 108.254L80.5107 109.031ZM79.4717 101.987H74.6113V105.987H79.4717V101.987ZM76.5816 104.331L77.443 99.3883L73.5024 98.7015L72.641 103.644L76.5816 104.331ZM75.4727 101.045H87.3467V97.0449H75.4727V101.045ZM85.3709 98.7349L83.4431 111.019L87.3948 111.639L89.3225 99.355L85.3709 98.7349ZM101.395 104.459L103.304 103.865L102.867 102.459H101.395V104.459ZM97.498 104.459V102.459H95.8178L95.528 104.114L97.498 104.459ZM95.6523 115V117H97.3326L97.6224 115.345L95.6523 115ZM88.6387 115L86.668 114.659L86.2628 117H88.6387V115ZM93.8066 85.1406L93.8105 83.1406L92.1236 83.1373L91.8359 84.7995L93.8066 85.1406ZM104.348 85.1611L104.344 87.1611H104.348V85.1611ZM112.141 87.54L110.826 89.0473L110.832 89.0525L110.838 89.0578L112.141 87.54ZM114.602 94L112.606 93.8603L112.606 93.8611L114.602 94ZM112.735 99.373L114.315 100.6L114.321 100.592L112.735 99.373ZM108.142 102.716L107.372 100.87L105.651 101.587L106.246 103.354L108.142 102.716ZM112.161 114.651H114.161V114.324L114.057 114.013L112.161 114.651ZM112.161 115V117H114.161V115H112.161ZM104.676 115L102.766 115.594L103.204 117H104.676V115ZM98.4414 98.9014L96.4713 98.5566L96.0652 100.878L98.4214 100.901L98.4414 98.9014ZM102.543 98.9424L102.523 100.942L102.533 100.942H102.543V98.9424ZM105.455 98.1221L104.358 96.4496L104.352 96.4538L104.346 96.458L105.455 98.1221ZM107.239 95.8867L109.111 96.5919L109.114 96.5831L107.239 95.8867ZM107.547 93.1182L109.519 92.7844L109.517 92.774L109.515 92.7635L107.547 93.1182ZM104.635 90.7188L104.733 88.7212L104.688 88.719L104.643 88.7188L104.635 90.7188ZM99.877 90.6982L99.8856 88.6983L98.1978 88.691L97.9069 90.3535L99.877 90.6982ZM101.395 102.459H97.498V106.459H101.395V102.459ZM95.528 104.114L93.6823 114.655L97.6224 115.345L99.4681 104.804L95.528 104.114ZM95.6523 113H88.6387V117H95.6523V113ZM90.6094 115.341L95.7773 85.4817L91.8359 84.7995L86.668 114.659L90.6094 115.341ZM93.8027 87.1406L104.344 87.1611L104.352 83.1611L93.8105 83.1406L93.8027 87.1406ZM104.348 87.1611C107.433 87.1611 109.495 87.886 110.826 89.0473L113.455 86.0328C111.15 84.0222 108.016 83.1611 104.348 83.1611V87.1611ZM110.838 89.0578C112.12 90.1582 112.761 91.659 112.606 93.8603L116.597 94.1397C116.825 90.8722 115.825 88.0664 113.443 86.0223L110.838 89.0578ZM112.606 93.8611C112.478 95.7109 111.958 97.1033 111.15 98.1536L114.321 100.592C115.7 98.799 116.425 96.6094 116.597 94.1389L112.606 93.8611ZM111.156 98.1462C110.312 99.2324 109.085 100.156 107.372 100.87L108.911 104.562C111.136 103.635 112.971 102.33 114.315 100.6L111.156 98.1462ZM106.246 103.354L110.266 115.29L114.057 114.013L110.037 102.078L106.246 103.354ZM110.161 114.651V115H114.161V114.651H110.161ZM112.161 113H104.676V117H112.161V113ZM106.585 114.406L103.304 103.865L99.4849 105.053L102.766 115.594L106.585 114.406ZM98.4214 100.901L102.523 100.942L102.563 96.9425L98.4614 96.9015L98.4214 100.901ZM102.543 100.942C104.003 100.942 105.372 100.581 106.564 99.7862L104.346 96.458C103.897 96.7568 103.325 96.9424 102.543 96.9424V100.942ZM106.552 99.7946C107.744 99.0127 108.608 97.927 109.111 96.5919L105.368 95.1815C105.16 95.7332 104.834 96.1376 104.358 96.4496L106.552 99.7946ZM109.114 96.5831C109.575 95.3416 109.735 94.063 109.519 92.7844L105.575 93.4519C105.659 93.9507 105.614 94.5178 105.364 95.1903L109.114 96.5831ZM109.515 92.7635C109.314 91.6478 108.814 90.6016 107.886 89.8366C106.974 89.0856 105.857 88.7764 104.733 88.7212L104.537 92.7163C105.081 92.7431 105.283 92.8748 105.342 92.9237C105.384 92.9585 105.506 93.071 105.579 93.4728L109.515 92.7635ZM104.643 88.7188L99.8856 88.6983L99.8683 92.6982L104.626 92.7187L104.643 88.7188ZM97.9069 90.3535L96.4713 98.5566L100.411 99.2461L101.847 91.043L97.9069 90.3535ZM132.956 109.422L134.94 109.167L134.715 107.422H132.956V109.422ZM123.42 109.422V107.422H122.155L121.613 108.565L123.42 109.422ZM120.774 115V117H122.039L122.581 115.857L120.774 115ZM113.043 115L111.275 114.064L109.721 117H113.043V115ZM128.854 85.1406V83.1406H127.65L127.087 84.2047L128.854 85.1406ZM135.458 85.1406L137.425 84.7773L137.122 83.1406H135.458V85.1406ZM140.975 115V117H143.378L142.941 114.637L140.975 115ZM133.674 115L131.69 115.255L131.915 117H133.674V115ZM126.045 103.864L124.238 103.007L122.883 105.864H126.045V103.864ZM132.238 103.864V105.864H134.509L134.222 103.611L132.238 103.864ZM130.926 93.5693L132.91 93.3164L132.046 86.5387L129.119 92.7125L130.926 93.5693ZM132.956 107.422H123.42V111.422H132.956V107.422ZM121.613 108.565L118.967 114.143L122.581 115.857L125.227 110.279L121.613 108.565ZM120.774 113H113.043V117H120.774V113ZM114.81 115.936L130.622 86.0766L127.087 84.2047L111.275 114.064L114.81 115.936ZM128.854 87.1406H135.458V83.1406H128.854V87.1406ZM133.491 85.504L139.008 115.363L142.941 114.637L137.425 84.7773L133.491 85.504ZM140.975 113H133.674V117H140.975V113ZM135.657 114.745L134.94 109.167L130.972 109.677L131.69 115.255L135.657 114.745ZM126.045 105.864H132.238V101.864H126.045V105.864ZM134.222 103.611L132.91 93.3164L128.942 93.8223L130.254 104.117L134.222 103.611ZM129.119 92.7125L124.238 103.007L127.852 104.721L132.733 94.4261L129.119 92.7125ZM167.922 90.6982V92.6982H169.605L169.892 91.04L167.922 90.6982ZM159.227 90.6982V88.6982H157.543L157.256 90.3573L159.227 90.6982ZM155.022 115V117H156.706L156.993 115.341L155.022 115ZM147.988 115L146.018 114.657L145.611 117H147.988V115ZM152.213 90.6982L154.183 91.0408L154.591 88.6982H152.213V90.6982ZM143.661 90.6982L141.692 90.3494L141.276 92.6982H143.661V90.6982ZM144.646 85.1406V83.1406H142.969L142.676 84.7918L144.646 85.1406ZM168.886 85.1406L170.856 85.4824L171.262 83.1406H168.886V85.1406ZM167.922 88.6982H159.227V92.6982H167.922V88.6982ZM157.256 90.3573L153.052 114.659L156.993 115.341L161.197 91.0392L157.256 90.3573ZM155.022 113H147.988V117H155.022V113ZM149.959 115.343L154.183 91.0408L150.242 90.3557L146.018 114.657L149.959 115.343ZM152.213 88.6982H143.661V92.6982H152.213V88.6982ZM145.63 91.0471L146.615 85.4894L142.676 84.7918L141.692 90.3494L145.63 91.0471ZM144.646 87.1406H168.886V83.1406H144.646V87.1406ZM166.915 84.7989L165.951 90.3565L169.892 91.04L170.856 85.4824L166.915 84.7989ZM174.3 115V117H175.983L176.271 115.341L174.3 115ZM167.286 115L165.316 114.658L164.909 117H167.286V115ZM172.475 85.1406V83.1406H170.792L170.504 84.7982L172.475 85.1406ZM179.468 85.1406L181.438 85.4817L181.844 83.1406H179.468V85.1406ZM174.3 113H167.286V117H174.3V113ZM169.257 115.342L174.445 85.483L170.504 84.7982L165.316 114.658L169.257 115.342ZM172.475 87.1406H179.468V83.1406H172.475V87.1406ZM177.497 84.7995L172.329 114.659L176.271 115.341L181.438 85.4817L177.497 84.7995ZM195.73 106.92L193.767 106.538L193.766 106.546L193.764 106.555L195.73 106.92ZM193.229 103.331L194.019 101.494L194.007 101.489L193.995 101.484L193.229 103.331ZM189.865 101.937L189.046 103.761L189.072 103.773L189.099 103.784L189.865 101.937ZM183.139 93.2822L185.135 93.4093L185.135 93.3968L183.139 93.2822ZM184.861 88.832L186.415 90.0914L186.421 90.0834L184.861 88.832ZM195.32 84.7305L195.357 82.7308L195.345 82.7306L195.32 84.7305ZM202.437 87.3145L201.073 88.7781L201.079 88.7832L202.437 87.3145ZM205.103 94.0205V96.0205H207.083L207.102 94.04L205.103 94.0205ZM198.13 94.0205L196.131 93.9491L196.057 96.0205H198.13V94.0205ZM197.392 91.2725L195.788 92.4674L195.801 92.4851L195.815 92.5025L197.392 91.2725ZM194.808 90.1855L194.761 92.185L194.762 92.185L194.808 90.1855ZM190.091 93.3232L192.056 93.6966L192.059 93.6766L192.063 93.6565L190.091 93.3232ZM193.126 96.6865L192.41 98.5541L192.414 98.5555L193.126 96.6865ZM198.13 98.9424L197.094 100.653L197.103 100.659L198.13 98.9424ZM202.724 106.858L204.72 106.985L204.72 106.982L202.724 106.858ZM196.899 114.405L196.157 112.548L196.152 112.55L196.899 114.405ZM190.952 115.431L190.918 117.43L190.927 117.431L190.952 115.431ZM182.913 112.58L184.276 111.116L184.271 111.112L182.913 112.58ZM180.042 105.3L180.048 103.3L178.096 103.294L178.043 105.245L180.042 105.3ZM187.076 105.32L189.073 105.427L189.186 103.326L187.082 103.32L187.076 105.32ZM187.958 108.807L186.43 110.097L186.436 110.104L186.441 110.11L187.958 108.807ZM194.274 109.176L195.404 110.826L195.41 110.822L194.274 109.176ZM197.694 107.302C197.938 106.045 197.724 104.8 196.971 103.72C196.263 102.705 195.195 102 194.019 101.494L192.438 105.168C193.231 105.509 193.564 105.827 193.69 106.008C193.771 106.124 193.823 106.25 193.767 106.538L197.694 107.302ZM193.995 101.484L190.631 100.089L189.099 103.784L192.462 105.179L193.995 101.484ZM190.685 100.112C188.508 99.1343 187.08 98.0558 186.225 96.9562C185.404 95.8998 185.049 94.7479 185.135 93.4093L181.143 93.1551C180.996 95.467 181.646 97.5826 183.067 99.411C184.454 101.196 186.505 102.62 189.046 103.761L190.685 100.112ZM185.135 93.3968C185.207 92.1477 185.626 91.0647 186.415 90.0914L183.308 87.5727C181.991 89.197 181.262 91.0808 181.142 93.1677L185.135 93.3968ZM186.421 90.0834C187.217 89.0915 188.362 88.2609 189.956 87.6399L188.503 83.9129C186.378 84.7411 184.611 85.9475 183.301 87.5807L186.421 90.0834ZM189.956 87.6399C191.552 87.0177 193.325 86.7058 195.295 86.7303L195.345 82.7306C192.914 82.7004 190.625 83.0858 188.503 83.9129L189.956 87.6399ZM195.283 86.7301C197.851 86.7777 199.715 87.5126 201.073 88.778L203.8 85.8509C201.576 83.7803 198.696 82.7926 195.357 82.7308L195.283 86.7301ZM201.079 88.7832C202.409 90.0123 203.125 91.6751 203.103 94.001L207.102 94.04C207.134 90.7604 206.074 87.9526 203.794 85.8457L201.079 88.7832ZM205.103 92.0205H198.13V96.0205H205.103V92.0205ZM200.129 94.0919C200.181 92.6279 199.874 91.2026 198.969 90.0424L195.815 92.5025C195.976 92.7095 196.161 93.1162 196.131 93.9491L200.129 94.0919ZM198.995 90.0775C197.98 88.7151 196.421 88.2217 194.853 88.1861L194.762 92.185C195.601 92.2041 195.764 92.4353 195.788 92.4674L198.995 90.0775ZM194.854 88.1861C193.323 88.1505 191.886 88.5106 190.617 89.3185L192.764 92.6932C193.299 92.3527 193.94 92.1659 194.761 92.185L194.854 88.1861ZM190.617 89.3185C189.283 90.1672 188.386 91.4092 188.119 92.9899L192.063 93.6565C192.124 93.2958 192.293 92.993 192.764 92.6932L190.617 89.3185ZM188.126 92.9499C187.868 94.3063 188.286 95.55 189.17 96.5294C189.979 97.4256 191.136 98.0659 192.41 98.5541L193.842 94.819C192.832 94.4322 192.343 94.0744 192.14 93.8495C192.052 93.753 192.045 93.7104 192.049 93.7239C192.055 93.7432 192.047 93.7446 192.056 93.6966L188.126 92.9499ZM192.414 98.5555C194.688 99.4218 196.216 100.122 197.094 100.653L199.165 97.2314C197.965 96.505 196.158 95.7013 193.838 94.8175L192.414 98.5555ZM197.103 100.659C198.517 101.505 199.441 102.43 199.999 103.392C200.549 104.339 200.808 105.43 200.727 106.735L204.72 106.982C204.844 104.964 204.44 103.075 203.459 101.384C202.486 99.7071 201.01 98.3352 199.157 97.2261L197.103 100.659ZM200.728 106.732C200.642 108.08 200.219 109.206 199.477 110.172L202.648 112.609C203.902 110.978 204.586 109.082 204.72 106.985L200.728 106.732ZM199.477 110.172C198.732 111.141 197.658 111.948 196.157 112.548L197.642 116.262C199.696 115.441 201.397 114.238 202.648 112.609L199.477 110.172ZM196.152 112.55C194.669 113.148 192.955 113.455 190.977 113.431L190.927 117.431C193.352 117.461 195.602 117.084 197.647 116.26L196.152 112.55ZM190.986 113.431C189.562 113.407 188.277 113.185 187.116 112.782L185.806 116.562C187.406 117.116 189.115 117.4 190.918 117.43L190.986 113.431ZM187.116 112.782C185.975 112.387 185.039 111.826 184.276 111.116L181.551 114.044C182.756 115.166 184.185 116 185.806 116.562L187.116 112.782ZM184.271 111.112C182.746 109.702 181.973 107.855 182.041 105.354L178.043 105.245C177.947 108.76 179.088 111.767 181.555 114.049L184.271 111.112ZM180.036 107.3L187.07 107.32L187.082 103.32L180.048 103.3L180.036 107.3ZM185.079 105.213C184.983 107.014 185.304 108.764 186.43 110.097L189.486 107.516C189.272 107.263 189.006 106.689 189.073 105.427L185.079 105.213ZM186.441 110.11C187.658 111.526 189.49 111.976 191.342 111.976V107.976C190.022 107.976 189.598 107.646 189.475 107.503L186.441 110.11ZM191.342 111.976C192.821 111.976 194.218 111.638 195.404 110.826L193.145 107.525C192.772 107.78 192.214 107.976 191.342 107.976V111.976ZM195.41 110.822C196.644 109.971 197.424 108.756 197.697 107.285L193.764 106.555C193.682 106.998 193.491 107.286 193.139 107.529L195.41 110.822Z" fill="#FCAB10"/>
</g>
<rect x="107" y="29" width="100" height="43" rx="21.5" fill="white"/>
<g clip-path="url(#clip0)">
<path d="M83 35.9993C74.35 35.8305 67.2 42.6868 67 51.3368C67.025 55.7368 68.9688 59.9055 72.3313 62.7493V67.3368C72.3313 67.7055 72.6312 68.0055 73 68.0055C73.125 68.0055 73.25 67.968 73.3562 67.9055L77.075 65.5868C78.9687 66.3118 80.9813 66.6805 83.0063 66.6743C91.6562 66.843 98.8062 59.9868 99.0062 51.343C98.8 42.6868 91.65 35.8305 83 35.9993Z" fill="#2196F3"/>
<path d="M93.5312 46.9375C93.3312 46.6688 92.9687 46.5938 92.675 46.75L85.7437 50.5313L81.4312 46.8313C81.1687 46.6063 80.775 46.6188 80.525 46.8688L72.525 54.8688C72.2625 55.1313 72.2687 55.55 72.525 55.8125C72.7312 56.0188 73.0562 56.0688 73.3125 55.925L80.25 52.1438L84.5687 55.8438C84.8312 56.0688 85.225 56.0563 85.475 55.8063L93.475 47.8063C93.7062 47.5688 93.7312 47.2 93.5312 46.9375Z" fill="#FAFAFA"/>
</g>
<path d="M99.2021 64.8428L91.3704 67.2558L89 68L92.3232 58.4383C91.7655 57.4461 91.3239 56.3862 90.9986 55.2812C90.6268 53.9507 90.4176 52.5751 90.4176 51.1994C90.4176 47.1402 92.0908 43.3066 95.0423 40.4426C98.0169 37.5786 102.014 36 106.197 36C110.38 36 114.377 37.5786 117.352 40.4426C120.35 43.3291 122 47.1853 122 51.222C122 55.2812 120.327 59.1149 117.375 61.9789C114.401 64.8428 110.404 66.4214 106.22 66.4214C104.896 66.4214 103.571 66.2636 102.27 65.9479C101.224 65.6998 100.178 65.3164 99.2021 64.8428Z" fill="#EEEEEE"/>
<path d="M120.745 51.222C120.745 47.3657 119.118 43.8703 116.492 41.322C113.866 38.7963 110.241 37.2403 106.22 37.2403C102.2 37.2403 98.5747 38.7963 95.9486 41.3446C93.3225 43.8703 91.6958 47.3657 91.6958 51.222C91.6958 52.5074 91.8817 53.7702 92.2303 54.9655C92.5789 56.1607 93.0669 57.2882 93.7176 58.3256L91.2078 65.5419L90.9986 66.1057L91.5796 65.9253L99.3183 63.5349C100.341 64.0761 101.433 64.482 102.595 64.7752C103.757 65.0683 104.965 65.2262 106.22 65.2262C110.241 65.2262 113.866 63.6702 116.492 61.1219C119.118 58.5962 120.745 55.1008 120.745 51.222Z" fill="#54CC61"/>
<path d="M103.873 47.4108C103.804 47.2755 103.432 46.4186 103.106 45.6293C102.897 45.1106 102.688 44.6371 102.642 44.5469C102.27 43.6674 101.828 43.6899 101.503 43.7125C101.48 43.7125 101.456 43.7125 101.433 43.7125C101.317 43.7125 101.201 43.7125 101.085 43.6899C100.945 43.6899 100.782 43.6674 100.643 43.6674C100.457 43.6674 100.201 43.7125 99.9225 43.8252C99.7134 43.9154 99.5275 44.0507 99.3183 44.2537C99.2951 44.2762 99.2718 44.2988 99.2486 44.3213C98.807 44.7724 97.831 45.7646 97.831 47.6815C97.831 49.6885 99.3183 51.6053 99.5507 51.876C99.5507 51.876 99.5972 51.9211 99.6437 51.9887C100.201 52.778 102.735 56.3636 106.592 57.8294C110.078 59.16 110.729 59.0021 111.287 58.8668C111.38 58.8442 111.473 58.8217 111.589 58.8217C112.054 58.7766 112.797 58.4834 113.425 58.055C113.936 57.6941 114.401 57.2431 114.587 56.7921C114.749 56.3636 114.819 55.9803 114.865 55.6645C114.935 55.191 114.889 54.8301 114.796 54.6948C114.656 54.4919 114.424 54.3791 114.075 54.2213C114.006 54.1987 113.959 54.1536 113.889 54.1311C113.657 54.0183 112.82 53.6124 112.123 53.2967C111.658 53.0937 111.263 52.9133 111.101 52.8457C110.868 52.778 110.682 52.7103 110.473 52.7329C110.241 52.7554 110.032 52.8682 109.823 53.1614C109.73 53.2967 109.544 53.5222 109.358 53.7477C109.056 54.1085 108.707 54.4919 108.568 54.6497C108.498 54.7174 108.451 54.7625 108.405 54.7625C108.335 54.7625 108.219 54.7399 108.08 54.6723C107.987 54.6272 107.894 54.5821 107.777 54.537C107.22 54.3115 106.127 53.8379 104.896 52.778C104.454 52.3946 104.059 51.9887 103.734 51.5828C103.199 50.9514 102.851 50.3876 102.711 50.1621C102.595 49.9817 102.735 49.8464 102.827 49.7336C102.944 49.6208 103.106 49.4404 103.246 49.2826C103.315 49.2149 103.385 49.1247 103.455 49.0345C103.641 48.809 103.734 48.6511 103.827 48.4482C103.85 48.4031 103.873 48.3805 103.896 48.3354C103.989 48.155 104.013 47.9746 103.989 47.7942C103.989 47.6815 103.92 47.5461 103.873 47.4108Z" fill="#FFFFFE"/>
<g clip-path="url(#clip1)">
<path d="M141.638 45.1158C141.55 45.1158 141.55 45.1158 141.55 45.1158C140.676 45.1158 139.802 45.1158 139.015 45.1158C138.928 45.1158 138.84 45.1158 138.84 45.0316C138.228 43.9368 137.354 43.1789 136.13 42.8421C134.382 42.421 132.983 42.9263 131.759 44.1895C131.06 44.9474 130.71 45.8737 130.71 46.8842C130.71 47.6421 130.885 48.3158 131.234 48.9895C131.934 50.0842 132.895 50.8421 134.207 51.0105C135.868 51.2631 137.267 50.7579 138.316 49.4105C138.491 49.2421 138.578 48.9895 138.753 48.7368C138.753 48.6526 138.84 48.6526 138.928 48.6526C139.802 48.6526 140.676 48.6526 141.55 48.6526C141.638 48.6526 141.638 48.6526 141.638 48.7368C141.288 50 140.589 51.0947 139.54 51.9368C138.491 52.7789 137.354 53.3684 135.955 53.5368C134.382 53.7053 132.808 53.5368 131.409 52.6947C129.573 51.6 128.437 50 128.087 47.9789C127.825 46.1263 128.175 44.3579 129.398 42.8421C130.185 41.9158 131.06 41.0737 132.196 40.6526C132.808 40.4 133.42 40.2316 134.119 40.2316C135.081 40.1474 136.043 40.1474 137.004 40.4842C138.928 41.0737 140.326 42.2526 141.201 44.021C141.375 44.3579 141.463 44.6947 141.638 45.1158Z" fill="#CD3B2E"/>
<path d="M153.79 52.6947C153.702 52.6947 153.702 52.779 153.702 52.779C153.09 53.2 152.391 53.4526 151.692 53.6211C151.08 53.7053 150.468 53.7895 149.856 53.7053C148.719 53.5369 147.845 53.1158 147.408 52.0211C147.233 51.5158 147.146 51.0105 147.233 50.5053C147.233 50.0842 147.321 49.6632 147.495 49.2421C147.845 48.4842 148.457 47.979 149.244 47.6421C149.856 47.3895 150.468 47.3053 151.08 47.2211C151.692 47.1369 152.304 47.0526 152.916 46.9684C153.353 46.8842 153.702 46.4632 153.615 45.9579C153.528 45.5368 153.353 45.2842 152.916 45.1158C152.391 44.9474 151.954 44.9474 151.429 45.0316C151.255 45.0316 151.08 45.1158 150.905 45.1158C150.468 45.2842 150.205 45.7053 150.031 46.1263V46.2105C149.943 46.4632 149.943 46.4632 149.768 46.4632C148.982 46.4632 148.195 46.4632 147.408 46.4632C147.321 46.4632 147.321 46.4632 147.321 46.379C147.321 46.0421 147.408 45.7053 147.495 45.3684C147.845 44.1053 148.719 43.3474 149.943 43.0105C150.817 42.7579 151.604 42.7579 152.478 42.8421C153.265 42.8421 154.052 43.0947 154.751 43.4316C155.626 43.8526 156.063 44.5263 156.238 45.3684C156.325 45.6211 156.325 45.8737 156.325 46.1263C156.325 48.6526 156.325 51.0947 156.325 53.6211C156.325 53.7053 156.325 53.7895 156.15 53.7895C155.363 53.7895 154.489 53.7895 153.702 53.7895C153.615 53.7895 153.615 53.7895 153.615 53.7053C153.615 53.4526 153.615 53.1158 153.615 52.8632C153.877 52.6947 153.877 52.6947 153.79 52.6947ZM153.702 48.4C153.615 48.4842 153.528 48.4842 153.528 48.4842C153.44 48.5684 153.265 48.6526 153.178 48.6526C152.653 48.7369 152.216 48.9053 151.692 48.9895C151.342 49.0737 151.08 49.0737 150.817 49.2421C150.38 49.4105 150.118 49.7474 150.031 50.1684C149.943 50.4211 149.943 50.5895 150.031 50.8421C150.118 51.3474 150.468 51.7684 150.992 51.8526C151.779 52.0211 152.478 51.7684 153.09 51.3474C153.528 51.0947 153.615 50.5895 153.702 50.1684C153.79 49.579 153.702 48.9895 153.702 48.4Z" fill="#CD3B2E"/>
<path d="M164.805 48.2316C164.805 45.5368 166.816 43.6842 168.564 43.0947C171.974 42 175.209 44.021 175.908 47.0526C176.258 48.7368 175.995 50.2526 174.946 51.6C174.072 52.6947 172.936 53.4526 171.537 53.7052C169.701 54.0421 168.04 53.621 166.728 52.3579C165.942 51.6 165.33 50.7579 165.067 49.7473C164.893 49.2421 164.805 48.7368 164.805 48.2316ZM170.4 45.4526C168.739 45.3684 167.428 46.8842 167.428 48.3158C167.428 49.6631 168.564 51.1789 170.4 51.1789C172.236 51.1789 173.373 49.6631 173.373 48.3158C173.373 46.7158 172.149 45.3684 170.4 45.4526Z" fill="#CD3B2E"/>
<path d="M166.903 59.0105C166.903 58.9263 166.903 58.9263 166.903 58.8421C166.903 57.8316 166.903 56.7369 166.903 55.7263C166.903 55.6421 166.903 55.6421 167.078 55.6421C167.69 55.6421 168.215 55.6421 168.827 55.6421C168.914 55.6421 168.914 55.6421 168.914 55.7263C168.914 59.0947 168.914 62.4632 168.914 65.8316C168.914 65.9158 168.914 65.9158 168.827 65.9158C168.302 65.9158 167.69 65.9158 167.166 65.9158C167.078 65.9158 167.078 65.9158 167.078 65.8316C167.078 65.6632 167.078 65.4947 167.078 65.2421H166.991C166.466 65.7474 165.854 66 165.067 66C164.718 66 164.368 65.9158 164.018 65.8316C163.232 65.579 162.794 64.9895 162.532 64.2316C162.445 63.8947 162.357 63.5579 162.357 63.1369C162.357 62.2105 162.27 61.3684 162.445 60.4421C162.532 60.1053 162.62 59.7684 162.707 59.4316C162.969 58.8421 163.406 58.5053 164.018 58.3369C164.805 58.0842 165.505 58.0842 166.291 58.4211C166.554 58.6737 166.729 58.8421 166.903 59.0105ZM166.903 62.1263C166.903 62.0421 166.903 62.0421 166.903 61.9579C166.903 61.5369 166.903 61.0316 166.729 60.6105C166.554 60.2737 166.379 60.1053 166.029 60.0211C165.942 60.0211 165.767 59.9369 165.679 59.9369C165.155 59.9369 164.718 60.1053 164.456 60.6947C164.368 61.0316 164.281 61.3684 164.281 61.7053C164.281 62.2105 164.281 62.7158 164.368 63.2211C164.456 63.8105 164.805 64.2316 165.505 64.2316C166.117 64.2316 166.554 63.979 166.729 63.4737C166.903 63.0526 166.903 62.6316 166.903 62.1263Z" fill="black"/>
<path d="M160.871 44.6105C161.133 44.2737 161.308 44.1053 161.571 43.8526C162.095 43.4316 162.707 43.0947 163.406 42.9263C163.756 42.8421 164.106 42.8421 164.456 42.7579C164.543 42.7579 164.543 42.8421 164.543 42.8421C164.543 43.3474 164.543 43.9369 164.543 44.4421C164.543 44.6947 164.543 45.0316 164.543 45.2842C164.543 45.3684 164.543 45.3684 164.456 45.3684C164.193 45.3684 163.931 45.2842 163.581 45.3684C163.144 45.3684 162.794 45.5369 162.445 45.7053C161.745 46.1263 161.221 46.6316 161.046 47.4737C160.959 47.8105 160.959 48.2316 160.959 48.5684C160.959 50.1684 160.959 51.8526 160.959 53.4526C160.959 53.5368 160.959 53.6211 160.784 53.6211C159.997 53.6211 159.21 53.6211 158.423 53.6211C158.336 53.6211 158.336 53.6211 158.336 53.5368C158.336 50.1684 158.336 46.8 158.336 43.3474C158.336 43.2632 158.336 43.2632 158.423 43.2632C159.21 43.2632 159.997 43.2632 160.784 43.2632C160.871 43.2632 160.871 43.2632 160.871 43.3474C160.871 43.8526 160.871 44.1895 160.871 44.6105Z" fill="#CD3B2E"/>
<path d="M145.659 46.8842C145.659 49.0737 145.659 51.3474 145.659 53.5368C145.659 53.621 145.659 53.7052 145.485 53.7052C144.698 53.7052 143.911 53.7052 143.037 53.7052C142.949 53.7052 142.862 53.7052 142.862 53.5368C142.862 49.0737 142.862 44.6947 142.862 40.2316C142.862 40.1474 142.862 40.0631 143.037 40.0631C143.824 40.0631 144.698 40.0631 145.485 40.0631C145.572 40.0631 145.572 40.0631 145.572 40.2316C145.659 42.5052 145.659 44.6947 145.659 46.8842Z" fill="#CD3B2E"/>
<path d="M174.771 62.7158C173.985 62.7158 173.198 62.7158 172.411 62.7158C172.324 62.7158 172.324 62.7158 172.324 62.8C172.324 63.5579 172.761 64.1474 173.46 64.2316C174.247 64.4 175.034 64.3158 175.646 63.7263C175.821 63.5579 175.821 63.5579 175.908 63.7263C176.258 64.0632 176.52 64.3158 176.87 64.6526C176.957 64.7368 176.957 64.7368 176.87 64.7368C176.345 65.2421 175.646 65.6632 174.859 65.8316C174.072 65.9158 173.285 65.9158 172.498 65.6632C171.624 65.4105 171.012 64.8211 170.663 63.9789C170.138 62.6316 170.138 61.2842 170.663 60.0211C171.187 58.8421 172.149 58.2526 173.46 58.1684C173.985 58.1684 174.597 58.1684 175.034 58.4211C175.995 58.8421 176.607 59.6 176.87 60.5263C176.957 60.9474 177.044 61.3684 177.044 61.7895C177.044 62.0421 177.044 62.2947 177.044 62.5474C177.044 62.6316 177.044 62.6316 176.957 62.6316C176.345 62.7158 175.558 62.7158 174.771 62.7158ZM173.81 61.4526C174.247 61.4526 174.771 61.4526 175.209 61.4526C175.296 61.4526 175.296 61.4526 175.296 61.3684C175.296 61.1158 175.209 60.9474 175.121 60.7789C174.771 59.7684 173.548 59.7684 172.936 60.1053C172.498 60.4421 172.324 60.8632 172.324 61.3684C172.324 61.4526 172.324 61.4526 172.411 61.4526C172.848 61.4526 173.373 61.4526 173.81 61.4526Z" fill="black"/>
<path d="M185 62.1263C185 62.7158 185 63.3053 184.825 63.8105C184.563 64.8211 183.863 65.4948 182.814 65.8316C181.94 66.0842 181.066 66.0842 180.192 65.6632C179.23 65.2421 178.705 64.5684 178.531 63.5579C178.356 62.8 178.356 62.0421 178.443 61.2842C178.443 60.8632 178.531 60.3579 178.793 59.9369C179.23 59.0105 180.017 58.5053 181.066 58.2526C181.678 58.1684 182.377 58.1684 182.989 58.3369C184.038 58.6737 184.738 59.4316 185 60.5263C185 61.1158 185 61.6211 185 62.1263ZM180.367 62.1263C180.367 62.5474 180.367 62.8842 180.454 63.3053C180.629 64.1474 181.241 64.4842 182.028 64.3158C182.552 64.2316 182.814 63.8105 182.989 63.3895C183.164 62.6316 183.164 61.8737 182.989 61.1158C182.902 60.6947 182.727 60.3579 182.29 60.1895C181.94 60.0211 181.678 60.0211 181.328 60.1053C180.804 60.2737 180.541 60.6105 180.454 61.0316C180.367 61.3684 180.279 61.7053 180.367 62.1263Z" fill="black"/>
<path d="M150.643 58.3369C150.905 58.3369 151.167 58.3369 151.342 58.3369C151.779 58.3369 152.129 58.3369 152.566 58.3369C152.653 58.3369 152.741 58.3369 152.741 58.5053C153.265 59.9369 153.702 61.4526 154.227 62.8842V62.9684C154.314 62.9684 154.227 62.8842 154.314 62.8842C154.839 61.4526 155.276 59.9369 155.801 58.4211C155.801 58.3369 155.888 58.3369 155.975 58.3369C156.587 58.3369 157.199 58.3369 157.811 58.3369C157.986 58.3369 157.986 58.3369 157.899 58.4211C157.112 60.5263 156.238 62.7158 155.451 64.8211C155.364 65.1579 155.189 65.4105 155.101 65.7474C155.101 65.8316 155.014 65.8316 155.014 65.8316C154.577 65.8316 154.14 65.8316 153.702 65.8316C153.615 65.8316 153.615 65.8316 153.528 65.7474C152.916 64.2316 152.391 62.7158 151.779 61.2C151.429 60.2737 151.08 59.3474 150.73 58.5053C150.73 58.4211 150.73 58.4211 150.643 58.3369Z" fill="black"/>
<path d="M176.52 43.2632C176.52 43.1789 176.432 43.1789 176.52 43.2632C175.908 42.6737 175.383 42.1684 174.859 41.6632C174.771 41.5789 174.859 41.5789 174.859 41.4947L174.946 41.4105C177.044 39.3895 179.143 37.3684 181.153 35.3474C181.241 35.2632 181.241 35.2632 181.328 35.3474C181.853 35.8526 182.377 36.3579 182.902 36.8632C182.989 36.9474 182.989 36.9474 182.902 37.0316C180.804 39.0526 178.705 41.0737 176.52 43.2632C176.52 43.1789 176.607 43.1789 176.52 43.2632Z" fill="#CD3B2E"/>
<path d="M181.241 45.7895C182.377 45.7895 183.514 45.7895 184.65 45.7895C184.738 45.7895 184.738 45.7895 184.738 45.8737C184.738 46.5474 184.738 47.3053 184.738 47.9789C184.738 48.0631 184.738 48.0631 184.65 48.0631C182.377 48.0631 180.017 48.0631 177.744 48.0631C177.656 48.0631 177.656 48.0631 177.656 47.9789C177.656 47.3053 177.656 46.5474 177.656 45.8737C177.656 45.7895 177.656 45.7895 177.744 45.7895C178.968 45.7895 180.104 45.7895 181.241 45.7895Z" fill="#CD3B2E"/>
<path d="M169.526 37.3684C169.526 36.2737 169.526 35.1789 169.526 34.1684C169.526 34.0842 169.526 34 169.613 34C170.313 34 171.012 34 171.799 34C171.886 34 171.886 34 171.886 34.0842C171.886 36.2737 171.886 38.3789 171.886 40.5684C171.886 40.6526 171.886 40.6526 171.799 40.6526C171.1 40.6526 170.313 40.6526 169.613 40.6526C169.526 40.6526 169.526 40.6526 169.526 40.5684C169.526 39.5579 169.526 38.4632 169.526 37.3684Z" fill="#CD3B2E"/>
<path d="M158.86 62.1263C158.86 60.9474 158.86 59.6842 158.86 58.5053C158.86 58.4211 158.86 58.3369 158.948 58.3369C159.56 58.3369 160.084 58.3369 160.696 58.3369C160.784 58.3369 160.784 58.3369 160.784 58.4211C160.784 60.8632 160.784 63.3053 160.784 65.7474C160.784 65.8316 160.784 65.8316 160.696 65.8316C160.084 65.8316 159.56 65.8316 158.948 65.8316C158.86 65.8316 158.86 65.8316 158.86 65.7474C158.86 64.5684 158.86 63.3053 158.86 62.1263Z" fill="black"/>
<path d="M158.598 56.2316C158.598 55.5579 159.123 55.0526 159.822 55.0526C160.521 55.0526 161.046 55.5579 161.046 56.2316C161.046 56.9053 160.521 57.4105 159.822 57.4105C159.123 57.4105 158.598 56.9053 158.598 56.2316Z" fill="black"/>
</g>
<defs>
<filter id="filter0_d" x="60.5956" y="82.7074" width="148.508" height="38.7247" filterUnits="userSpaceOnUse" color-interpolation-filters="sRGB">
<feFlood flood-opacity="0" result="BackgroundImageFix"/>
<feColorMatrix in="SourceAlpha" type="matrix" values="0 0 0 0 0 0 0 0 0 0 0 0 0 0 0 0 0 0 127 0"/>
<feOffset dx="2" dy="4"/>
<feColorMatrix type="matrix" values="0 0 0 0 0.839216 0 0 0 0 0.572549 0 0 0 0 0.054902 0 0 0 1 0"/>
<feBlend mode="normal" in2="BackgroundImageFix" result="effect1_dropShadow"/>
<feBlend mode="normal" in="SourceGraphic" in2="effect1_dropShadow" result="shape"/>
</filter>
<clipPath id="clip0">
<rect width="32" height="32" fill="white" transform="translate(67 36)"/>
</clipPath>
<clipPath id="clip1">
<rect width="57" height="32" fill="white" transform="translate(128 34)"/>
</clipPath>
</defs>
</svg>
