<svg width="363" height="90" viewBox="0 0 363 90" fill="none" xmlns="http://www.w3.org/2000/svg">
<path d="M0 0H363V66C363 79.2548 352.255 90 339 90H24C10.7452 90 0 79.2548 0 66V0Z" fill="#FCAB10"/>
<rect x="86" y="28" width="191" height="37" rx="5" fill="#FCAB10" stroke="white" stroke-width="2"/>
<path d="M103 62.5C103 53.3873 110.387 46 119.5 46H243.5C252.613 46 260 53.3873 260 62.5V62.5C260 71.6127 252.613 79 243.5 79H119.5C110.387 79 103 71.6127 103 62.5V62.5Z" fill="#FCAB10"/>
<path d="M145 27C145 20.3726 150.373 15 157 15H238C244.627 15 250 20.3726 250 27V27C250 33.6274 244.627 39 238 39H157C150.373 39 145 33.6274 145 27V27Z" fill="#F5F5F5"/>
<g clip-path="url(#clip0)">
<path d="M188.892 23.6C188.842 23.6 188.842 23.6 188.842 23.6C188.336 23.6 187.83 23.6 187.374 23.6C187.323 23.6 187.273 23.6 187.273 23.55C186.919 22.9 186.412 22.45 185.704 22.25C184.692 22 183.882 22.3 183.173 23.05C182.768 23.5 182.566 24.05 182.566 24.65C182.566 25.1 182.667 25.5 182.869 25.9C183.274 26.55 183.831 27 184.59 27.1C185.552 27.25 186.362 26.95 186.969 26.15C187.07 26.05 187.121 25.9 187.222 25.75C187.222 25.7 187.273 25.7 187.323 25.7C187.83 25.7 188.336 25.7 188.842 25.7C188.892 25.7 188.892 25.7 188.892 25.75C188.69 26.5 188.285 27.15 187.678 27.65C187.07 28.15 186.412 28.5 185.603 28.6C184.692 28.7 183.781 28.6 182.971 28.1C181.908 27.45 181.25 26.5 181.047 25.3C180.896 24.2 181.098 23.15 181.807 22.25C182.262 21.7 182.768 21.2 183.426 20.95C183.781 20.8 184.135 20.7 184.54 20.7C185.096 20.65 185.653 20.65 186.21 20.85C187.323 21.2 188.133 21.9 188.639 22.95C188.741 23.15 188.791 23.35 188.892 23.6Z" fill="#CD3B2E"/>
<path d="M195.928 28.1C195.877 28.1 195.877 28.15 195.877 28.15C195.523 28.4 195.118 28.55 194.713 28.65C194.359 28.7 194.005 28.75 193.65 28.7C192.992 28.6 192.486 28.35 192.233 27.7C192.132 27.4 192.081 27.1 192.132 26.8C192.132 26.55 192.182 26.3 192.284 26.05C192.486 25.6 192.84 25.3 193.296 25.1C193.65 24.95 194.005 24.9 194.359 24.85C194.713 24.8 195.067 24.75 195.422 24.7C195.675 24.65 195.877 24.4 195.827 24.1C195.776 23.85 195.675 23.7 195.422 23.6C195.118 23.5 194.865 23.5 194.561 23.55C194.46 23.55 194.359 23.6 194.258 23.6C194.005 23.7 193.853 23.95 193.751 24.2V24.25C193.701 24.4 193.701 24.4 193.6 24.4C193.144 24.4 192.689 24.4 192.233 24.4C192.182 24.4 192.182 24.4 192.182 24.35C192.182 24.15 192.233 23.95 192.284 23.75C192.486 23 192.992 22.55 193.701 22.35C194.207 22.2 194.663 22.2 195.169 22.25C195.624 22.25 196.08 22.4 196.485 22.6C196.991 22.85 197.244 23.25 197.345 23.75C197.396 23.9 197.396 24.05 197.396 24.2C197.396 25.7 197.396 27.15 197.396 28.65C197.396 28.7 197.396 28.75 197.294 28.75C196.839 28.75 196.333 28.75 195.877 28.75C195.827 28.75 195.827 28.75 195.827 28.7C195.827 28.55 195.827 28.35 195.827 28.2C195.978 28.1 195.978 28.1 195.928 28.1ZM195.877 25.55C195.827 25.6 195.776 25.6 195.776 25.6C195.725 25.65 195.624 25.7 195.574 25.7C195.27 25.75 195.017 25.85 194.713 25.9C194.511 25.95 194.359 25.95 194.207 26.05C193.954 26.15 193.802 26.35 193.751 26.6C193.701 26.75 193.701 26.85 193.751 27C193.802 27.3 194.005 27.55 194.308 27.6C194.764 27.7 195.169 27.55 195.523 27.3C195.776 27.15 195.827 26.85 195.877 26.6C195.928 26.25 195.877 25.9 195.877 25.55Z" fill="#CD3B2E"/>
<path d="M202.305 25.45C202.305 23.85 203.469 22.75 204.482 22.4C206.455 21.75 208.328 22.95 208.733 24.75C208.936 25.75 208.784 26.65 208.176 27.45C207.67 28.1 207.012 28.55 206.202 28.7C205.14 28.9 204.178 28.65 203.419 27.9C202.963 27.45 202.609 26.95 202.457 26.35C202.356 26.05 202.305 25.75 202.305 25.45ZM205.544 23.8C204.583 23.75 203.824 24.65 203.824 25.5C203.824 26.3 204.482 27.2 205.544 27.2C206.607 27.2 207.265 26.3 207.265 25.5C207.265 24.55 206.557 23.75 205.544 23.8Z" fill="#CD3B2E"/>
<path d="M203.52 31.85C203.52 31.8 203.52 31.8 203.52 31.75C203.52 31.15 203.52 30.5 203.52 29.9C203.52 29.85 203.52 29.85 203.621 29.85C203.975 29.85 204.279 29.85 204.633 29.85C204.684 29.85 204.684 29.85 204.684 29.9C204.684 31.9 204.684 33.9 204.684 35.9C204.684 35.95 204.684 35.95 204.633 35.95C204.33 35.95 203.975 35.95 203.672 35.95C203.621 35.95 203.621 35.95 203.621 35.9C203.621 35.8 203.621 35.7 203.621 35.55H203.57C203.267 35.85 202.913 36 202.457 36C202.255 36 202.052 35.95 201.85 35.9C201.394 35.75 201.141 35.4 200.989 34.95C200.939 34.75 200.888 34.55 200.888 34.3C200.888 33.75 200.837 33.25 200.939 32.7C200.989 32.5 201.04 32.3 201.09 32.1C201.242 31.75 201.495 31.55 201.85 31.45C202.305 31.3 202.71 31.3 203.166 31.5C203.317 31.65 203.419 31.75 203.52 31.85ZM203.52 33.7C203.52 33.65 203.52 33.65 203.52 33.6C203.52 33.35 203.52 33.05 203.419 32.8C203.317 32.6 203.216 32.5 203.014 32.45C202.963 32.45 202.862 32.4 202.811 32.4C202.508 32.4 202.255 32.5 202.103 32.85C202.052 33.05 202.001 33.25 202.001 33.45C202.001 33.75 202.001 34.05 202.052 34.35C202.103 34.7 202.305 34.95 202.71 34.95C203.064 34.95 203.317 34.8 203.419 34.5C203.52 34.25 203.52 34 203.52 33.7Z" fill="black"/>
<path d="M200.028 23.3C200.179 23.1 200.281 23 200.432 22.85C200.736 22.6 201.09 22.4 201.495 22.3C201.698 22.25 201.9 22.25 202.103 22.2C202.153 22.2 202.153 22.25 202.153 22.25C202.153 22.55 202.153 22.9 202.153 23.2C202.153 23.35 202.153 23.55 202.153 23.7C202.153 23.75 202.153 23.75 202.103 23.75C201.951 23.75 201.799 23.7 201.597 23.75C201.343 23.75 201.141 23.85 200.939 23.95C200.534 24.2 200.23 24.5 200.129 25C200.078 25.2 200.078 25.45 200.078 25.65C200.078 26.6 200.078 27.6 200.078 28.55C200.078 28.6 200.078 28.65 199.977 28.65C199.521 28.65 199.066 28.65 198.61 28.65C198.56 28.65 198.56 28.65 198.56 28.6C198.56 26.6 198.56 24.6 198.56 22.55C198.56 22.5 198.56 22.5 198.61 22.5C199.066 22.5 199.521 22.5 199.977 22.5C200.028 22.5 200.028 22.5 200.028 22.55C200.028 22.85 200.028 23.05 200.028 23.3Z" fill="#CD3B2E"/>
<path d="M191.221 24.65C191.221 25.95 191.221 27.3 191.221 28.6C191.221 28.65 191.221 28.7 191.12 28.7C190.664 28.7 190.209 28.7 189.702 28.7C189.652 28.7 189.601 28.7 189.601 28.6C189.601 25.95 189.601 23.35 189.601 20.7C189.601 20.65 189.601 20.6 189.702 20.6C190.158 20.6 190.664 20.6 191.12 20.6C191.17 20.6 191.17 20.6 191.17 20.7C191.221 22.05 191.221 23.35 191.221 24.65Z" fill="#CD3B2E"/>
<path d="M208.075 34.05C207.62 34.05 207.164 34.05 206.709 34.05C206.658 34.05 206.658 34.05 206.658 34.1C206.658 34.55 206.911 34.9 207.316 34.95C207.771 35.05 208.227 35 208.581 34.65C208.682 34.55 208.682 34.55 208.733 34.65C208.936 34.85 209.087 35 209.29 35.2C209.34 35.25 209.34 35.25 209.29 35.25C208.986 35.55 208.581 35.8 208.126 35.9C207.67 35.95 207.215 35.95 206.759 35.8C206.253 35.65 205.899 35.3 205.696 34.8C205.393 34 205.393 33.2 205.696 32.45C206 31.75 206.557 31.4 207.316 31.35C207.62 31.35 207.974 31.35 208.227 31.5C208.784 31.75 209.138 32.2 209.29 32.75C209.34 33 209.391 33.25 209.391 33.5C209.391 33.65 209.391 33.8 209.391 33.95C209.391 34 209.391 34 209.34 34C208.986 34.05 208.531 34.05 208.075 34.05ZM207.518 33.3C207.771 33.3 208.075 33.3 208.328 33.3C208.379 33.3 208.379 33.3 208.379 33.25C208.379 33.1 208.328 33 208.278 32.9C208.075 32.3 207.366 32.3 207.012 32.5C206.759 32.7 206.658 32.95 206.658 33.25C206.658 33.3 206.658 33.3 206.709 33.3C206.962 33.3 207.265 33.3 207.518 33.3Z" fill="black"/>
<path d="M213.997 33.7C213.997 34.05 213.997 34.4 213.896 34.7C213.744 35.3 213.339 35.7 212.732 35.9C212.225 36.05 211.719 36.05 211.213 35.8C210.656 35.55 210.353 35.15 210.251 34.55C210.15 34.1 210.15 33.65 210.201 33.2C210.201 32.95 210.251 32.65 210.403 32.4C210.656 31.85 211.112 31.55 211.719 31.4C212.074 31.35 212.478 31.35 212.833 31.45C213.44 31.65 213.845 32.1 213.997 32.75C213.997 33.1 213.997 33.4 213.997 33.7ZM211.314 33.7C211.314 33.95 211.314 34.15 211.365 34.4C211.466 34.9 211.82 35.1 212.276 35C212.58 34.95 212.732 34.7 212.833 34.45C212.934 34 212.934 33.55 212.833 33.1C212.782 32.85 212.681 32.65 212.428 32.55C212.225 32.45 212.074 32.45 211.871 32.5C211.567 32.6 211.416 32.8 211.365 33.05C211.314 33.25 211.264 33.45 211.314 33.7Z" fill="black"/>
<path d="M194.106 31.45C194.258 31.45 194.409 31.45 194.511 31.45C194.764 31.45 194.966 31.45 195.219 31.45C195.27 31.45 195.32 31.45 195.32 31.55C195.624 32.4 195.877 33.3 196.181 34.15V34.2C196.232 34.2 196.181 34.15 196.232 34.15C196.535 33.3 196.788 32.4 197.092 31.5C197.092 31.45 197.143 31.45 197.193 31.45C197.547 31.45 197.902 31.45 198.256 31.45C198.357 31.45 198.357 31.45 198.307 31.5C197.851 32.75 197.345 34.05 196.89 35.3C196.839 35.5 196.738 35.65 196.687 35.85C196.687 35.9 196.636 35.9 196.636 35.9C196.383 35.9 196.13 35.9 195.877 35.9C195.827 35.9 195.827 35.9 195.776 35.85C195.422 34.95 195.118 34.05 194.764 33.15C194.561 32.6 194.359 32.05 194.156 31.55C194.156 31.5 194.156 31.5 194.106 31.45Z" fill="black"/>
<path d="M209.087 22.5C209.087 22.45 209.037 22.45 209.087 22.5C208.733 22.15 208.429 21.85 208.126 21.55C208.075 21.5 208.126 21.5 208.126 21.45L208.176 21.4C209.391 20.2 210.606 19 211.77 17.8C211.82 17.75 211.82 17.75 211.871 17.8C212.175 18.1 212.478 18.4 212.782 18.7C212.833 18.75 212.833 18.75 212.782 18.8C211.567 20 210.353 21.2 209.087 22.5C209.087 22.45 209.138 22.45 209.087 22.5Z" fill="#CD3B2E"/>
<path d="M211.82 24C212.478 24 213.136 24 213.794 24C213.845 24 213.845 24 213.845 24.05C213.845 24.45 213.845 24.9 213.845 25.3C213.845 25.35 213.845 25.35 213.794 25.35C212.478 25.35 211.112 25.35 209.796 25.35C209.745 25.35 209.745 25.35 209.745 25.3C209.745 24.9 209.745 24.45 209.745 24.05C209.745 24 209.745 24 209.796 24C210.505 24 211.163 24 211.82 24Z" fill="#CD3B2E"/>
<path d="M205.038 19C205.038 18.35 205.038 17.7 205.038 17.1C205.038 17.05 205.038 17 205.089 17C205.494 17 205.899 17 206.354 17C206.405 17 206.405 17 206.405 17.05C206.405 18.35 206.405 19.6 206.405 20.9C206.405 20.95 206.405 20.95 206.354 20.95C205.949 20.95 205.494 20.95 205.089 20.95C205.038 20.95 205.038 20.95 205.038 20.9C205.038 20.3 205.038 19.65 205.038 19Z" fill="#CD3B2E"/>
<path d="M198.863 33.7C198.863 33 198.863 32.25 198.863 31.55C198.863 31.5 198.863 31.45 198.914 31.45C199.268 31.45 199.572 31.45 199.926 31.45C199.977 31.45 199.977 31.45 199.977 31.5C199.977 32.95 199.977 34.4 199.977 35.85C199.977 35.9 199.977 35.9 199.926 35.9C199.572 35.9 199.268 35.9 198.914 35.9C198.863 35.9 198.863 35.9 198.863 35.85C198.863 35.15 198.863 34.4 198.863 33.7Z" fill="black"/>
<path d="M198.712 30.2C198.712 29.8 199.015 29.5 199.42 29.5C199.825 29.5 200.129 29.8 200.129 30.2C200.129 30.6 199.825 30.9 199.42 30.9C199.015 30.9 198.712 30.6 198.712 30.2Z" fill="black"/>
</g>
<g clip-path="url(#clip1)">
<path d="M126.5 14.9995C120.283 14.8782 115.144 19.8061 115 26.0233C115.018 29.1858 116.415 32.1821 118.832 34.226V37.5233C118.832 37.7883 119.047 38.004 119.312 38.004C119.402 38.004 119.492 37.977 119.569 37.9321L122.241 36.2655C123.603 36.7866 125.049 37.0516 126.504 37.0471C132.722 37.1684 137.861 32.2405 138.004 26.0278C137.856 19.8061 132.717 14.8782 126.5 14.9995Z" fill="#2196F3"/>
<path d="M134.069 22.8613C133.926 22.6681 133.665 22.6142 133.454 22.7265L128.472 25.4443L125.372 22.7849C125.184 22.6232 124.901 22.6322 124.721 22.8119L118.971 28.5619C118.782 28.7506 118.787 29.0515 118.971 29.2402C119.119 29.3885 119.353 29.4244 119.537 29.3211L124.523 26.6033L127.628 29.2627C127.816 29.4244 128.099 29.4154 128.279 29.2357L134.029 23.4857C134.195 23.315 134.213 23.05 134.069 22.8613Z" fill="#FAFAFA"/>
</g>
<path d="M139.801 35.7308L134.58 37.4651L133 38L135.215 31.1276C134.844 30.4144 134.549 29.6526 134.332 28.8584C134.085 27.902 133.945 26.9133 133.945 25.9246C133.945 23.007 135.061 20.2516 137.028 18.1931C139.011 16.1346 141.676 15 144.465 15C147.254 15 149.918 16.1346 151.901 18.1931C153.9 20.2678 155 23.0395 155 25.9408C155 28.8584 153.885 31.6138 151.917 33.6723C149.934 35.7308 147.269 36.8654 144.48 36.8654C143.597 36.8654 142.714 36.7519 141.846 36.525C141.149 36.3467 140.452 36.0712 139.801 35.7308Z" fill="#EEEEEE"/>
<path d="M154.163 25.9408C154.163 23.1691 153.079 20.6568 151.328 18.8252C149.577 17.0099 147.161 15.8915 144.48 15.8915C141.8 15.8915 139.383 17.0099 137.632 18.8414C135.882 20.6568 134.797 23.1691 134.797 25.9408C134.797 26.8647 134.921 27.7724 135.154 28.6314C135.386 29.4905 135.711 30.3009 136.145 31.0465L134.472 36.2333L134.332 36.6385L134.72 36.5088L139.879 34.7907C140.561 35.1797 141.289 35.4715 142.063 35.6822C142.838 35.8929 143.644 36.0063 144.48 36.0063C147.161 36.0063 149.577 34.888 151.328 33.0564C153.079 31.241 154.163 28.7287 154.163 25.9408Z" fill="#54CC61"/>
<path d="M142.915 23.2016C142.869 23.1043 142.621 22.4884 142.404 21.9211C142.265 21.5483 142.125 21.2079 142.094 21.1431C141.846 20.5109 141.552 20.5271 141.335 20.5433C141.32 20.5433 141.304 20.5433 141.289 20.5433C141.211 20.5433 141.134 20.5433 141.056 20.5271C140.963 20.5271 140.855 20.5109 140.762 20.5109C140.638 20.5109 140.468 20.5433 140.282 20.6244C140.142 20.6892 140.018 20.7865 139.879 20.9323C139.863 20.9486 139.848 20.9648 139.832 20.981C139.538 21.3051 138.887 22.0183 138.887 23.3961C138.887 24.8386 139.879 26.2164 140.034 26.4109C140.034 26.4109 140.065 26.4433 140.096 26.4919C140.468 27.0592 142.156 29.6364 144.728 30.6899C147.052 31.6462 147.486 31.5328 147.858 31.4355C147.92 31.4193 147.982 31.4031 148.059 31.4031C148.369 31.3707 148.865 31.16 149.283 30.852C149.624 30.5927 149.934 30.2685 150.058 29.9443C150.166 29.6364 150.213 29.3608 150.244 29.1339C150.29 28.7935 150.259 28.5342 150.197 28.4369C150.104 28.2911 149.949 28.21 149.717 28.0965C149.67 28.0803 149.639 28.0479 149.593 28.0317C149.438 27.9507 148.88 27.6589 148.415 27.432C148.106 27.2861 147.842 27.1564 147.734 27.1078C147.579 27.0592 147.455 27.0106 147.315 27.0268C147.161 27.043 147.021 27.124 146.882 27.3347C146.82 27.432 146.696 27.5941 146.572 27.7562C146.37 28.0155 146.138 28.2911 146.045 28.4045C145.999 28.4531 145.968 28.4856 145.937 28.4856C145.89 28.4856 145.813 28.4693 145.72 28.4207C145.658 28.3883 145.596 28.3559 145.518 28.3235C145.146 28.1614 144.418 27.821 143.597 27.0592C143.303 26.7837 143.039 26.4919 142.823 26.2001C142.466 25.7463 142.234 25.3411 142.141 25.179C142.063 25.0493 142.156 24.9521 142.218 24.871C142.296 24.79 142.404 24.6603 142.497 24.5469C142.544 24.4982 142.59 24.4334 142.637 24.3686C142.761 24.2065 142.823 24.093 142.885 23.9471C142.9 23.9147 142.915 23.8985 142.931 23.8661C142.993 23.7364 143.008 23.6068 142.993 23.4771C142.993 23.3961 142.946 23.2988 142.915 23.2016Z" fill="#FFFFFE"/>
<path d="M130.891 74.2031C130.036 75.2031 128.792 75.9792 127.156 76.5312C125.521 77.0729 123.708 77.3281 121.719 77.2969C119.812 77.276 118.203 76.7969 116.891 75.8594C115.578 74.9219 114.641 73.6146 114.078 71.9375C113.516 70.2604 113.365 68.3698 113.625 66.2656L113.75 65.3281C114.229 61.7969 115.469 59 117.469 56.9375C119.479 54.875 121.938 53.8698 124.844 53.9219C127.385 53.9635 129.339 54.6458 130.703 55.9688C132.068 57.2917 132.828 59.2031 132.984 61.7031L127.859 61.6875C127.786 60.4688 127.484 59.5781 126.953 59.0156C126.432 58.4531 125.688 58.1562 124.719 58.125C123.281 58.0729 122.094 58.6406 121.156 59.8281C120.219 61.0052 119.578 62.6927 119.234 64.8906C118.943 66.7656 118.839 68.224 118.922 69.2656C119.078 71.776 120.208 73.0469 122.312 73.0781C123.583 73.099 124.698 72.7917 125.656 72.1562L126.359 68.6094H122.656L123.312 64.8438H132.359L130.891 74.2031ZM149.462 68.9688H146.494L145.087 77H139.744L143.681 54.25L151.712 54.2656C154.285 54.2656 156.265 54.8698 157.65 56.0781C159.046 57.276 159.671 58.9167 159.525 61C159.41 62.6458 158.936 64.0104 158.103 65.0938C157.27 66.1667 156.103 67.0156 154.603 67.6406L157.666 76.7344V77H151.962L149.462 68.9688ZM147.212 64.7344L150.337 64.7656C151.192 64.7656 151.931 64.5573 152.556 64.1406C153.192 63.724 153.645 63.1562 153.916 62.4375C154.186 61.7083 154.265 61.0052 154.15 60.3281C153.942 59.1719 153.202 58.5625 151.931 58.5L148.306 58.4844L147.212 64.7344ZM179.909 72.75H172.644L170.628 77H164.737L176.784 54.25H181.816L186.019 77H180.456L179.909 72.75ZM174.644 68.5156H179.362L178.362 60.6719L174.644 68.5156ZM212.95 58.4844H206.325L203.122 77H197.762L200.981 58.4844H194.466L195.216 54.25H213.684L212.95 58.4844ZM224.209 77H218.866L222.819 54.25H228.147L224.209 77ZM246.938 70.8438C247.167 69.6667 246.531 68.7552 245.031 68.1094L242.469 67.0469C238.875 65.4323 237.167 63.2344 237.344 60.4531C237.417 59.1823 237.854 58.0521 238.656 57.0625C239.458 56.0625 240.568 55.2865 241.984 54.7344C243.401 54.1823 244.948 53.9167 246.625 53.9375C248.875 53.9792 250.682 54.6354 252.047 55.9062C253.422 57.1771 254.099 58.8802 254.078 61.0156H248.766C248.797 60.1406 248.609 59.4427 248.203 58.9219C247.807 58.3906 247.151 58.1146 246.234 58.0938C245.339 58.0729 244.547 58.2812 243.859 58.7188C243.172 59.1562 242.766 59.7448 242.641 60.4844C242.443 61.526 243.214 62.3802 244.953 63.0469C246.703 63.7135 247.974 64.2865 248.766 64.7656C251.255 66.2552 252.422 68.2656 252.266 70.7969C252.182 72.1094 251.76 73.2604 251 74.25C250.24 75.2396 249.182 76.0052 247.828 76.5469C246.484 77.0885 244.974 77.349 243.297 77.3281C242.068 77.3073 240.927 77.1146 239.875 76.75C238.823 76.3854 237.922 75.8542 237.172 75.1562C235.651 73.75 234.922 71.901 234.984 69.6094L240.344 69.625C240.281 70.7917 240.505 71.6771 241.016 72.2812C241.526 72.875 242.385 73.1719 243.594 73.1719C244.49 73.1719 245.234 72.9688 245.828 72.5625C246.432 72.1458 246.802 71.5729 246.938 70.8438Z" fill="#D6920E"/>
<path d="M128.891 70.2031C128.036 71.2031 126.792 71.9792 125.156 72.5312C123.521 73.0729 121.708 73.3281 119.719 73.2969C117.812 73.276 116.203 72.7969 114.891 71.8594C113.578 70.9219 112.641 69.6146 112.078 67.9375C111.516 66.2604 111.365 64.3698 111.625 62.2656L111.75 61.3281C112.229 57.7969 113.469 55 115.469 52.9375C117.479 50.875 119.938 49.8698 122.844 49.9219C125.385 49.9635 127.339 50.6458 128.703 51.9688C130.068 53.2917 130.828 55.2031 130.984 57.7031L125.859 57.6875C125.786 56.4688 125.484 55.5781 124.953 55.0156C124.432 54.4531 123.688 54.1562 122.719 54.125C121.281 54.0729 120.094 54.6406 119.156 55.8281C118.219 57.0052 117.578 58.6927 117.234 60.8906C116.943 62.7656 116.839 64.224 116.922 65.2656C117.078 67.776 118.208 69.0469 120.312 69.0781C121.583 69.099 122.698 68.7917 123.656 68.1562L124.359 64.6094H120.656L121.312 60.8438H130.359L128.891 70.2031ZM147.462 64.9688H144.494L143.087 73H137.744L141.681 50.25L149.712 50.2656C152.285 50.2656 154.265 50.8698 155.65 52.0781C157.046 53.276 157.671 54.9167 157.525 57C157.41 58.6458 156.936 60.0104 156.103 61.0938C155.27 62.1667 154.103 63.0156 152.603 63.6406L155.666 72.7344V73H149.962L147.462 64.9688ZM145.212 60.7344L148.337 60.7656C149.192 60.7656 149.931 60.5573 150.556 60.1406C151.192 59.724 151.645 59.1562 151.916 58.4375C152.186 57.7083 152.265 57.0052 152.15 56.3281C151.942 55.1719 151.202 54.5625 149.931 54.5L146.306 54.4844L145.212 60.7344ZM177.909 68.75H170.644L168.628 73H162.737L174.784 50.25H179.816L184.019 73H178.456L177.909 68.75ZM172.644 64.5156H177.362L176.362 56.6719L172.644 64.5156ZM210.95 54.4844H204.325L201.122 73H195.762L198.981 54.4844H192.466L193.216 50.25H211.684L210.95 54.4844ZM222.209 73H216.866L220.819 50.25H226.147L222.209 73ZM244.938 66.8438C245.167 65.6667 244.531 64.7552 243.031 64.1094L240.469 63.0469C236.875 61.4323 235.167 59.2344 235.344 56.4531C235.417 55.1823 235.854 54.0521 236.656 53.0625C237.458 52.0625 238.568 51.2865 239.984 50.7344C241.401 50.1823 242.948 49.9167 244.625 49.9375C246.875 49.9792 248.682 50.6354 250.047 51.9062C251.422 53.1771 252.099 54.8802 252.078 57.0156H246.766C246.797 56.1406 246.609 55.4427 246.203 54.9219C245.807 54.3906 245.151 54.1146 244.234 54.0938C243.339 54.0729 242.547 54.2812 241.859 54.7188C241.172 55.1562 240.766 55.7448 240.641 56.4844C240.443 57.526 241.214 58.3802 242.953 59.0469C244.703 59.7135 245.974 60.2865 246.766 60.7656C249.255 62.2552 250.422 64.2656 250.266 66.7969C250.182 68.1094 249.76 69.2604 249 70.25C248.24 71.2396 247.182 72.0052 245.828 72.5469C244.484 73.0885 242.974 73.349 241.297 73.3281C240.068 73.3073 238.927 73.1146 237.875 72.75C236.823 72.3854 235.922 71.8542 235.172 71.1562C233.651 69.75 232.922 67.901 232.984 65.6094L238.344 65.625C238.281 66.7917 238.505 67.6771 239.016 68.2812C239.526 68.875 240.385 69.1719 241.594 69.1719C242.49 69.1719 243.234 68.9688 243.828 68.5625C244.432 68.1458 244.802 67.5729 244.938 66.8438Z" fill="white"/>
<path d="M128.891 70.2031L129.651 70.8526L129.835 70.6376L129.879 70.3582L128.891 70.2031ZM125.156 72.5312L125.471 73.4806L125.476 73.4787L125.156 72.5312ZM119.719 73.2969L119.734 72.297L119.73 72.2969L119.719 73.2969ZM111.625 62.2656L110.634 62.1335L110.633 62.1428L111.625 62.2656ZM111.75 61.3281L110.759 61.1937L110.759 61.196L111.75 61.3281ZM115.469 52.9375L114.753 52.2395L114.751 52.2414L115.469 52.9375ZM122.844 49.9219L122.826 50.9217L122.827 50.9217L122.844 49.9219ZM130.984 57.7031L130.981 58.7031L132.049 58.7064L131.982 57.6407L130.984 57.7031ZM125.859 57.6875L124.861 57.7472L124.917 58.6846L125.856 58.6875L125.859 57.6875ZM124.953 55.0156L124.219 55.6951L124.226 55.7022L124.953 55.0156ZM122.719 54.125L122.683 55.1244L122.687 55.1245L122.719 54.125ZM119.156 55.8281L119.938 56.4511L119.941 56.4478L119.156 55.8281ZM117.234 60.8906L116.246 60.7361L116.246 60.7369L117.234 60.8906ZM116.922 65.2656L117.92 65.2035L117.919 65.1947L117.919 65.1859L116.922 65.2656ZM120.312 69.0781L120.329 68.0783L120.327 68.0782L120.312 69.0781ZM123.656 68.1562L124.209 68.9897L124.556 68.7594L124.637 68.3507L123.656 68.1562ZM124.359 64.6094L125.34 64.8038L125.577 63.6094H124.359V64.6094ZM120.656 64.6094L119.671 64.4377L119.467 65.6094H120.656V64.6094ZM121.312 60.8438V59.8438H120.472L120.327 60.6721L121.312 60.8438ZM130.359 60.8438L131.347 60.9988L131.529 59.8438H130.359V60.8438ZM128.13 69.5536C127.425 70.3798 126.353 71.0718 124.836 71.5838L125.476 73.4787C127.23 72.8865 128.648 72.0264 129.651 70.8526L128.13 69.5536ZM124.842 71.582C123.328 72.0834 121.629 72.3268 119.734 72.297L119.703 74.2968C121.788 74.3295 123.714 74.0624 125.471 73.4805L124.842 71.582ZM119.73 72.2969C117.99 72.2779 116.589 71.8438 115.472 71.0456L114.309 72.6731C115.817 73.75 117.635 74.2742 119.708 74.2968L119.73 72.2969ZM115.472 71.0456C114.347 70.2425 113.529 69.1171 113.026 67.6195L111.13 68.2555C111.753 70.112 112.809 71.6012 114.309 72.6731L115.472 71.0456ZM113.026 67.6195C112.52 66.1096 112.372 64.3733 112.617 62.3885L110.633 62.1428C110.357 64.3663 110.511 66.4112 111.13 68.2555L113.026 67.6195ZM112.616 62.3978L112.741 61.4603L110.759 61.196L110.634 62.1335L112.616 62.3978ZM112.741 61.4626C113.198 58.0913 114.368 55.5093 116.187 53.6336L114.751 52.2414C112.57 54.4907 111.26 57.5025 110.759 61.1937L112.741 61.4626ZM116.185 53.6355C118.001 51.7726 120.193 50.8745 122.826 50.9217L122.862 48.922C119.682 48.8651 116.958 49.9774 114.753 52.2395L116.185 53.6355ZM122.827 50.9217C125.203 50.9607 126.879 51.5936 128.007 52.6867L129.399 51.2508C127.798 49.6981 125.568 48.9664 122.86 48.922L122.827 50.9217ZM128.007 52.6867C129.142 53.7872 129.841 55.4332 129.986 57.7655L131.982 57.6407C131.816 54.9731 130.993 52.7961 129.399 51.2508L128.007 52.6867ZM130.987 56.7031L125.862 56.6875L125.856 58.6875L130.981 58.7031L130.987 56.7031ZM126.858 57.6278C126.778 56.3026 126.443 55.1365 125.68 54.329L124.226 55.7022C124.526 56.0197 124.795 56.6349 124.861 57.7472L126.858 57.6278ZM125.687 54.3362C124.939 53.5289 123.912 53.163 122.751 53.1255L122.687 55.1245C123.463 55.1495 123.925 55.3774 124.219 55.695L125.687 54.3362ZM122.755 53.1257C120.98 53.0613 119.494 53.786 118.371 55.2085L119.941 56.4478C120.693 55.4953 121.583 55.0845 122.683 55.1243L122.755 53.1257ZM118.374 55.2051C117.289 56.5676 116.605 58.443 116.246 60.7361L118.222 61.0451C118.551 58.9424 119.149 57.4428 119.938 56.4511L118.374 55.2051ZM116.246 60.7369C115.951 62.6374 115.832 64.1868 115.925 65.3454L117.919 65.1859C117.845 64.2611 117.935 62.8938 118.222 61.0443L116.246 60.7369ZM115.924 65.3277C116.009 66.7034 116.369 67.9002 117.139 68.7661C117.934 69.6591 119.037 70.0593 120.298 70.078L120.327 68.0782C119.484 68.0657 118.97 67.8148 118.634 67.437C118.274 67.0321 117.991 66.3382 117.92 65.2035L115.924 65.3277ZM120.296 70.078C121.747 70.1018 123.064 69.7485 124.209 68.9897L123.104 67.3228C122.331 67.8348 121.42 68.0961 120.329 68.0783L120.296 70.078ZM124.637 68.3507L125.34 64.8038L123.378 64.4149L122.675 67.9618L124.637 68.3507ZM124.359 63.6094H120.656V65.6094H124.359V63.6094ZM121.641 64.7811L122.298 61.0154L120.327 60.6721L119.671 64.4377L121.641 64.7811ZM121.312 61.8438H130.359V59.8438H121.312V61.8438ZM129.371 60.6887L127.903 70.0481L129.879 70.3582L131.347 60.9988L129.371 60.6887ZM147.462 64.9688L148.417 64.6715L148.199 63.9688H147.462V64.9688ZM144.494 64.9688V63.9688H143.654L143.509 64.7963L144.494 64.9688ZM143.087 73V74H143.928L144.073 73.1725L143.087 73ZM137.744 73L136.758 72.8295L136.556 74H137.744V73ZM141.681 50.25L141.683 49.25L140.84 49.2484L140.696 50.0795L141.681 50.25ZM149.712 50.2656L149.711 51.2656H149.712V50.2656ZM155.65 52.0781L154.993 52.8318L154.999 52.837L155.65 52.0781ZM157.525 57L156.527 56.9302L156.527 56.9305L157.525 57ZM156.103 61.0938L156.893 61.7072L156.896 61.7035L156.103 61.0938ZM152.603 63.6406L152.219 62.7175L151.358 63.0762L151.655 63.9598L152.603 63.6406ZM155.666 72.7344H156.666V72.5705L156.613 72.4152L155.666 72.7344ZM155.666 73V74H156.666V73H155.666ZM149.962 73L149.008 73.2972L149.226 74H149.962V73ZM145.212 60.7344L144.227 60.562L144.024 61.7225L145.203 61.7343L145.212 60.7344ZM148.337 60.7656L148.327 61.7656H148.337V60.7656ZM150.556 60.1406L150.008 59.3044L150.002 59.3086L150.556 60.1406ZM151.916 58.4375L152.851 58.7901L152.853 58.7857L151.916 58.4375ZM152.15 56.3281L153.136 56.1613L153.134 56.1508L152.15 56.3281ZM149.931 54.5L149.98 53.5012L149.958 53.5001L149.936 53.5L149.931 54.5ZM146.306 54.4844L146.311 53.4844L145.467 53.4807L145.321 54.312L146.306 54.4844ZM147.462 63.9688H144.494V65.9688H147.462V63.9688ZM143.509 64.7963L142.102 72.8275L144.073 73.1725L145.479 65.1412L143.509 64.7963ZM143.087 72H137.744V74H143.087V72ZM138.729 73.1705L142.667 50.4205L140.696 50.0795L136.758 72.8295L138.729 73.1705ZM141.679 51.25L149.711 51.2656L149.714 49.2656L141.683 49.25L141.679 51.25ZM149.712 51.2656C152.14 51.2656 153.851 51.8357 154.993 52.8318L156.307 51.3245C154.678 49.9039 152.431 49.2656 149.712 49.2656V51.2656ZM154.999 52.837C156.12 53.799 156.655 55.1134 156.527 56.9302L158.523 57.0698C158.687 54.72 157.972 52.7531 156.301 51.3193L154.999 52.837ZM156.527 56.9305C156.424 58.4212 156.001 59.5865 155.311 60.484L156.896 61.7035C157.872 60.4344 158.397 58.8704 158.523 57.0695L156.527 56.9305ZM155.313 60.4803C154.605 61.3923 153.59 62.146 152.219 62.7175L152.988 64.5637C154.616 63.8853 155.935 62.9411 156.893 61.7072L155.313 60.4803ZM151.655 63.9598L154.718 73.0535L156.613 72.4152L153.551 63.3215L151.655 63.9598ZM154.666 72.7344V73H156.666V72.7344H154.666ZM155.666 72H149.962V74H155.666V72ZM150.917 72.7028L148.417 64.6715L146.508 65.266L149.008 73.2972L150.917 72.7028ZM145.203 61.7343L148.328 61.7656L148.347 59.7657L145.222 59.7344L145.203 61.7343ZM148.337 61.7656C149.361 61.7656 150.3 61.5134 151.111 60.9727L150.002 59.3086C149.563 59.6012 149.022 59.7656 148.337 59.7656V61.7656ZM151.105 60.9769C151.919 60.4427 152.507 59.7047 152.851 58.7901L150.98 58.0849C150.783 58.6078 150.464 59.0052 150.008 59.3044L151.105 60.9769ZM152.853 58.7857C153.177 57.9143 153.284 57.0333 153.136 56.1613L151.164 56.495C151.246 56.9771 151.196 57.5024 150.978 58.0893L152.853 58.7857ZM153.134 56.1508C152.998 55.3942 152.666 54.7194 152.075 54.2321C151.492 53.7519 150.761 53.5396 149.98 53.5012L149.882 55.4988C150.373 55.5229 150.646 55.6465 150.803 55.7757C150.951 55.8978 151.094 56.1058 151.166 56.5054L153.134 56.1508ZM149.936 53.5L146.311 53.4844L146.302 55.4844L149.927 55.5L149.936 53.5ZM145.321 54.312L144.227 60.562L146.198 60.9068L147.291 54.6568L145.321 54.312ZM177.909 68.75L178.901 68.6224L178.789 67.75H177.909V68.75ZM170.644 68.75V67.75H170.011L169.74 68.3215L170.644 68.75ZM168.628 73V74H169.261L169.532 73.4285L168.628 73ZM162.737 73L161.854 72.532L161.076 74H162.737V73ZM174.784 50.25V49.25H174.182L173.901 49.782L174.784 50.25ZM179.816 50.25L180.799 50.0683L180.648 49.25H179.816V50.25ZM184.019 73V74H185.22L185.002 72.8183L184.019 73ZM178.456 73L177.464 73.1276L177.577 74H178.456V73ZM172.644 64.5156L171.74 64.0872L171.063 65.5156H172.644V64.5156ZM177.362 64.5156V65.5156H178.498L178.354 64.3892L177.362 64.5156ZM176.362 56.6719L177.354 56.5454L176.922 53.1566L175.459 56.2435L176.362 56.6719ZM177.909 67.75H170.644V69.75H177.909V67.75ZM169.74 68.3215L167.725 72.5715L169.532 73.4285L171.547 69.1785L169.74 68.3215ZM168.628 72H162.737V74H168.628V72ZM163.621 73.468L175.668 50.718L173.901 49.782L161.854 72.532L163.621 73.468ZM174.784 51.25H179.816V49.25H174.784V51.25ZM178.832 50.4317L183.035 73.1817L185.002 72.8183L180.799 50.0683L178.832 50.4317ZM184.019 72H178.456V74H184.019V72ZM179.448 72.8724L178.901 68.6224L176.918 68.8776L177.464 73.1276L179.448 72.8724ZM172.644 65.5156H177.362V63.5156H172.644V65.5156ZM178.354 64.3892L177.354 56.5454L175.371 56.7983L176.371 64.6421L178.354 64.3892ZM175.459 56.2435L171.74 64.0872L173.547 64.944L177.266 57.1003L175.459 56.2435ZM210.95 54.4844V55.4844H211.791L211.935 54.6553L210.95 54.4844ZM204.325 54.4844V53.4844H203.483L203.34 54.3139L204.325 54.4844ZM201.122 73V74H201.964L202.107 73.1705L201.122 73ZM195.762 73L194.777 72.8287L194.574 74H195.762V73ZM198.981 54.4844L199.966 54.6556L200.17 53.4844H198.981V54.4844ZM192.466 54.4844L191.481 54.31L191.273 55.4844H192.466V54.4844ZM193.216 50.25V49.25H192.377L192.231 50.0756L193.216 50.25ZM211.684 50.25L212.67 50.4209L212.873 49.25H211.684V50.25ZM210.95 53.4844H204.325V55.4844H210.95V53.4844ZM203.34 54.3139L200.137 72.8295L202.107 73.1705L205.31 54.6548L203.34 54.3139ZM201.122 72H195.762V74H201.122V72ZM196.748 73.1713L199.966 54.6556L197.996 54.3131L194.777 72.8287L196.748 73.1713ZM198.981 53.4844H192.466V55.4844H198.981V53.4844ZM193.45 54.6588L194.2 50.4244L192.231 50.0756L191.481 54.31L193.45 54.6588ZM193.216 51.25H211.684V49.25H193.216V51.25ZM210.699 50.0791L209.965 54.3135L211.935 54.6553L212.67 50.4209L210.699 50.0791ZM222.209 73V74H223.051L223.195 73.1705L222.209 73ZM216.866 73L215.88 72.8288L215.677 74H216.866V73ZM220.819 50.25V49.25H219.978L219.834 50.0788L220.819 50.25ZM226.147 50.25L227.132 50.4205L227.335 49.25H226.147V50.25ZM222.209 72H216.866V74H222.209V72ZM217.851 73.1712L221.804 50.4212L219.834 50.0788L215.88 72.8288L217.851 73.1712ZM220.819 51.25H226.147V49.25H220.819V51.25ZM225.162 50.0795L221.224 72.8295L223.195 73.1705L227.132 50.4205L225.162 50.0795ZM244.938 66.8438L243.956 66.6526L243.954 66.6612L244.938 66.8438ZM243.031 64.1094L243.427 63.1908L243.414 63.1856L243.031 64.1094ZM240.469 63.0469L240.059 63.959L240.072 63.965L240.086 63.9706L240.469 63.0469ZM235.344 56.4531L236.342 56.5167L236.342 56.5104L235.344 56.4531ZM236.656 53.0625L237.433 53.6922L237.436 53.6882L236.656 53.0625ZM244.625 49.9375L244.644 48.9377L244.637 48.9376L244.625 49.9375ZM250.047 51.9062L249.365 52.6381L249.368 52.6406L250.047 51.9062ZM252.078 57.0156V58.0156H253.068L253.078 57.0254L252.078 57.0156ZM246.766 57.0156L245.766 56.9799L245.729 58.0156H246.766V57.0156ZM246.203 54.9219L245.401 55.5194L245.408 55.5282L245.415 55.5369L246.203 54.9219ZM244.234 54.0938L244.211 55.0935L244.212 55.0935L244.234 54.0938ZM240.641 56.4844L241.623 56.671L241.625 56.661L241.627 56.651L240.641 56.4844ZM242.953 59.0469L242.595 59.9807L242.597 59.9814L242.953 59.0469ZM246.766 60.7656L246.248 61.6211L246.252 61.6238L246.766 60.7656ZM250.266 66.7969L251.264 66.8602L251.264 66.8585L250.266 66.7969ZM249 70.25L248.207 69.6407L249 70.25ZM245.828 72.5469L245.457 71.6184L245.454 71.6194L245.828 72.5469ZM241.297 73.3281L241.28 74.328L241.284 74.328L241.297 73.3281ZM235.172 71.1562L235.853 70.4242L235.851 70.422L235.172 71.1562ZM232.984 65.6094L232.987 64.6094L232.011 64.6065L231.985 65.5821L232.984 65.6094ZM238.344 65.625L239.342 65.6785L239.399 64.6281L238.347 64.625L238.344 65.625ZM239.016 68.2812L238.252 68.9266L238.257 68.9331L239.016 68.2812ZM243.828 68.5625L244.393 69.3878L244.396 69.3857L243.828 68.5625ZM245.919 67.0349C246.081 66.204 245.939 65.402 245.453 64.7055C244.99 64.0411 244.272 63.555 243.427 63.1909L242.636 65.0279C243.29 65.3096 243.64 65.6021 243.812 65.8492C243.962 66.0641 244.023 66.3064 243.956 66.6526L245.919 67.0349ZM243.414 63.1856L240.852 62.1231L240.086 63.9706L242.648 65.0331L243.414 63.1856ZM240.879 62.1347C239.173 61.3682 238.003 60.5014 237.282 59.5738C236.578 58.6678 236.269 57.664 236.342 56.5167L234.346 56.3896C234.242 58.0235 234.698 59.5092 235.703 60.8012C236.69 62.0716 238.171 63.1109 240.059 63.959L240.879 62.1347ZM236.342 56.5104C236.403 55.449 236.763 54.519 237.433 53.6922L235.879 52.4328C234.945 53.5852 234.43 54.9156 234.345 56.3958L236.342 56.5104ZM237.436 53.6882C238.11 52.8485 239.064 52.1664 240.347 51.6661L239.621 49.8026C238.072 50.4065 236.807 51.2765 235.876 52.4368L237.436 53.6882ZM240.347 51.6661C241.633 51.1652 243.051 50.918 244.613 50.9374L244.637 48.9376C242.845 48.9153 241.169 49.1993 239.621 49.8026L240.347 51.6661ZM244.606 50.9373C246.664 50.9754 248.217 51.5685 249.365 52.638L250.728 51.1745C249.148 49.7023 247.086 48.9829 244.644 48.9377L244.606 50.9373ZM249.368 52.6406C250.506 53.692 251.097 55.1089 251.078 57.0059L253.078 57.0254C253.101 54.6515 252.338 52.6622 250.726 51.1719L249.368 52.6406ZM252.078 56.0156H246.766V58.0156H252.078V56.0156ZM247.765 57.0513C247.802 56.0186 247.584 55.066 246.992 54.3068L245.415 55.5369C245.635 55.8194 245.792 56.2627 245.766 56.9799L247.765 57.0513ZM247.005 54.3244C246.361 53.4606 245.356 53.119 244.257 53.094L244.212 55.0935C244.946 55.1102 245.253 55.3207 245.401 55.5194L247.005 54.3244ZM244.258 53.094C243.184 53.0691 242.194 53.3207 241.322 53.8751L242.396 55.5624C242.9 55.2418 243.493 55.0768 244.211 55.0935L244.258 53.094ZM241.322 53.8751C240.419 54.4498 239.831 55.2731 239.655 56.3177L241.627 56.651C241.7 56.2164 241.924 55.8627 242.396 55.5624L241.322 53.8751ZM239.658 56.2977C239.495 57.155 239.754 57.9397 240.328 58.5762C240.865 59.1711 241.659 59.622 242.595 59.9807L243.311 58.1131C242.507 57.8051 242.047 57.4956 241.813 57.2363C241.616 57.0186 241.588 56.8555 241.623 56.671L239.658 56.2977ZM242.597 59.9814C244.336 60.6437 245.537 61.1907 246.248 61.6211L247.283 59.9101C246.411 59.3822 245.071 58.7834 243.309 58.1124L242.597 59.9814ZM246.252 61.6238C247.387 62.3028 248.163 63.066 248.643 63.8925C249.118 64.7116 249.335 65.6478 249.268 66.7353L251.264 66.8585C251.353 65.4147 251.064 64.08 250.373 62.8887C249.686 61.7048 248.634 60.718 247.279 59.9075L246.252 61.6238ZM249.268 66.7335C249.196 67.859 248.84 68.8174 248.207 69.6407L249.793 70.8593C250.681 69.7034 251.168 68.3598 251.264 66.8602L249.268 66.7335ZM248.207 69.6407C247.573 70.4655 246.673 71.132 245.457 71.6184L246.2 73.4754C247.692 72.8784 248.906 72.0136 249.793 70.8593L248.207 69.6407ZM245.454 71.6194C244.251 72.1044 242.875 72.3476 241.309 72.3282L241.284 74.328C243.073 74.3503 244.718 74.0727 246.202 73.4744L245.454 71.6194ZM241.314 72.3283C240.179 72.309 239.145 72.1317 238.202 71.8051L237.548 73.6949C238.709 74.0975 239.956 74.3055 241.28 74.328L241.314 72.3283ZM238.202 71.8051C237.27 71.4821 236.493 71.0193 235.853 70.4242L234.491 71.8883C235.351 72.689 236.376 73.2887 237.548 73.6949L238.202 71.8051ZM235.851 70.422C234.566 69.2338 233.928 67.6746 233.984 65.6366L231.985 65.5821C231.915 68.1275 232.736 70.2662 234.493 71.8905L235.851 70.422ZM232.981 66.6094L238.341 66.625L238.347 64.625L232.987 64.6094L232.981 66.6094ZM237.345 65.5715C237.275 66.8729 237.513 68.0525 238.252 68.9266L239.78 67.6359C239.497 67.3017 239.287 66.7104 239.342 65.6785L237.345 65.5715ZM238.257 68.9331C239.041 69.8449 240.252 70.1719 241.594 70.1719V68.1719C240.518 68.1719 240.011 67.9051 239.774 67.6294L238.257 68.9331ZM241.594 70.1719C242.641 70.1719 243.596 69.933 244.393 69.3878L243.263 67.7372C242.873 68.0045 242.338 68.1719 241.594 68.1719V70.1719ZM244.396 69.3857C245.22 68.8171 245.738 68.0125 245.921 67.0263L243.954 66.6612C243.867 67.1333 243.644 67.4746 243.26 67.7393L244.396 69.3857Z" fill="#FCAB10"/>
<defs>
<clipPath id="clip0">
<rect width="33" height="19" fill="white" transform="translate(181 17)"/>
</clipPath>
<clipPath id="clip1">
<rect width="23" height="23" fill="white" transform="translate(115 15)"/>
</clipPath>
</defs>
</svg>
