<svg width="363" height="90" viewBox="0 0 363 90" fill="none" xmlns="http://www.w3.org/2000/svg">
<path d="M0 0H363V66C363 79.2548 352.255 90 339 90H24C10.7452 90 0 79.2548 0 66V0Z" fill="#FCAB10"/>
<rect x="86" y="28" width="191" height="37" rx="5" fill="#FCAB10" stroke="white" stroke-width="2"/>
<path d="M103 62.5C103 53.3873 110.387 46 119.5 46H243.5C252.613 46 260 53.3873 260 62.5V62.5C260 71.6127 252.613 79 243.5 79H119.5C110.387 79 103 71.6127 103 62.5V62.5Z" fill="#FCAB10"/>
<path d="M145 27C145 20.3726 150.373 15 157 15H238C244.627 15 250 20.3726 250 27V27C250 33.6274 244.627 39 238 39H157C150.373 39 145 33.6274 145 27V27Z" fill="#F5F5F5"/>
<g clip-path="url(#clip0)">
<path d="M169.892 23.6C169.842 23.6 169.842 23.6 169.842 23.6C169.336 23.6 168.83 23.6 168.374 23.6C168.323 23.6 168.273 23.6 168.273 23.55C167.919 22.9 167.412 22.45 166.704 22.25C165.692 22 164.882 22.3 164.173 23.05C163.768 23.5 163.566 24.05 163.566 24.65C163.566 25.1 163.667 25.5 163.869 25.9C164.274 26.55 164.831 27 165.59 27.1C166.552 27.25 167.362 26.95 167.969 26.15C168.07 26.05 168.121 25.9 168.222 25.75C168.222 25.7 168.273 25.7 168.323 25.7C168.83 25.7 169.336 25.7 169.842 25.7C169.892 25.7 169.892 25.7 169.892 25.75C169.69 26.5 169.285 27.15 168.678 27.65C168.07 28.15 167.412 28.5 166.603 28.6C165.692 28.7 164.781 28.6 163.971 28.1C162.908 27.45 162.25 26.5 162.047 25.3C161.896 24.2 162.098 23.15 162.807 22.25C163.262 21.7 163.768 21.2 164.426 20.95C164.781 20.8 165.135 20.7 165.54 20.7C166.096 20.65 166.653 20.65 167.21 20.85C168.323 21.2 169.133 21.9 169.639 22.95C169.741 23.15 169.791 23.35 169.892 23.6Z" fill="#CD3B2E"/>
<path d="M176.928 28.1C176.877 28.1 176.877 28.15 176.877 28.15C176.523 28.4 176.118 28.55 175.713 28.65C175.359 28.7 175.005 28.75 174.65 28.7C173.992 28.6 173.486 28.35 173.233 27.7C173.132 27.4 173.081 27.1 173.132 26.8C173.132 26.55 173.182 26.3 173.284 26.05C173.486 25.6 173.84 25.3 174.296 25.1C174.65 24.95 175.005 24.9 175.359 24.85C175.713 24.8 176.067 24.75 176.422 24.7C176.675 24.65 176.877 24.4 176.827 24.1C176.776 23.85 176.675 23.7 176.422 23.6C176.118 23.5 175.865 23.5 175.561 23.55C175.46 23.55 175.359 23.6 175.258 23.6C175.005 23.7 174.853 23.95 174.751 24.2V24.25C174.701 24.4 174.701 24.4 174.6 24.4C174.144 24.4 173.689 24.4 173.233 24.4C173.182 24.4 173.182 24.4 173.182 24.35C173.182 24.15 173.233 23.95 173.284 23.75C173.486 23 173.992 22.55 174.701 22.35C175.207 22.2 175.663 22.2 176.169 22.25C176.624 22.25 177.08 22.4 177.485 22.6C177.991 22.85 178.244 23.25 178.345 23.75C178.396 23.9 178.396 24.05 178.396 24.2C178.396 25.7 178.396 27.15 178.396 28.65C178.396 28.7 178.396 28.75 178.294 28.75C177.839 28.75 177.333 28.75 176.877 28.75C176.827 28.75 176.827 28.75 176.827 28.7C176.827 28.55 176.827 28.35 176.827 28.2C176.978 28.1 176.978 28.1 176.928 28.1ZM176.877 25.55C176.827 25.6 176.776 25.6 176.776 25.6C176.725 25.65 176.624 25.7 176.574 25.7C176.27 25.75 176.017 25.85 175.713 25.9C175.511 25.95 175.359 25.95 175.207 26.05C174.954 26.15 174.802 26.35 174.751 26.6C174.701 26.75 174.701 26.85 174.751 27C174.802 27.3 175.005 27.55 175.308 27.6C175.764 27.7 176.169 27.55 176.523 27.3C176.776 27.15 176.827 26.85 176.877 26.6C176.928 26.25 176.877 25.9 176.877 25.55Z" fill="#CD3B2E"/>
<path d="M183.305 25.45C183.305 23.85 184.469 22.75 185.482 22.4C187.455 21.75 189.328 22.95 189.733 24.75C189.936 25.75 189.784 26.65 189.176 27.45C188.67 28.1 188.012 28.55 187.202 28.7C186.14 28.9 185.178 28.65 184.419 27.9C183.963 27.45 183.609 26.95 183.457 26.35C183.356 26.05 183.305 25.75 183.305 25.45ZM186.544 23.8C185.583 23.75 184.824 24.65 184.824 25.5C184.824 26.3 185.482 27.2 186.544 27.2C187.607 27.2 188.265 26.3 188.265 25.5C188.265 24.55 187.557 23.75 186.544 23.8Z" fill="#CD3B2E"/>
<path d="M184.52 31.85C184.52 31.8 184.52 31.8 184.52 31.75C184.52 31.15 184.52 30.5 184.52 29.9C184.52 29.85 184.52 29.85 184.621 29.85C184.975 29.85 185.279 29.85 185.633 29.85C185.684 29.85 185.684 29.85 185.684 29.9C185.684 31.9 185.684 33.9 185.684 35.9C185.684 35.95 185.684 35.95 185.633 35.95C185.33 35.95 184.975 35.95 184.672 35.95C184.621 35.95 184.621 35.95 184.621 35.9C184.621 35.8 184.621 35.7 184.621 35.55H184.57C184.267 35.85 183.913 36 183.457 36C183.255 36 183.052 35.95 182.85 35.9C182.394 35.75 182.141 35.4 181.989 34.95C181.939 34.75 181.888 34.55 181.888 34.3C181.888 33.75 181.837 33.25 181.939 32.7C181.989 32.5 182.04 32.3 182.09 32.1C182.242 31.75 182.495 31.55 182.85 31.45C183.305 31.3 183.71 31.3 184.166 31.5C184.317 31.65 184.419 31.75 184.52 31.85ZM184.52 33.7C184.52 33.65 184.52 33.65 184.52 33.6C184.52 33.35 184.52 33.05 184.419 32.8C184.317 32.6 184.216 32.5 184.014 32.45C183.963 32.45 183.862 32.4 183.811 32.4C183.508 32.4 183.255 32.5 183.103 32.85C183.052 33.05 183.001 33.25 183.001 33.45C183.001 33.75 183.001 34.05 183.052 34.35C183.103 34.7 183.305 34.95 183.71 34.95C184.064 34.95 184.317 34.8 184.419 34.5C184.52 34.25 184.52 34 184.52 33.7Z" fill="black"/>
<path d="M181.028 23.3C181.179 23.1 181.281 23 181.432 22.85C181.736 22.6 182.09 22.4 182.495 22.3C182.698 22.25 182.9 22.25 183.103 22.2C183.153 22.2 183.153 22.25 183.153 22.25C183.153 22.55 183.153 22.9 183.153 23.2C183.153 23.35 183.153 23.55 183.153 23.7C183.153 23.75 183.153 23.75 183.103 23.75C182.951 23.75 182.799 23.7 182.597 23.75C182.343 23.75 182.141 23.85 181.939 23.95C181.534 24.2 181.23 24.5 181.129 25C181.078 25.2 181.078 25.45 181.078 25.65C181.078 26.6 181.078 27.6 181.078 28.55C181.078 28.6 181.078 28.65 180.977 28.65C180.521 28.65 180.066 28.65 179.61 28.65C179.56 28.65 179.56 28.65 179.56 28.6C179.56 26.6 179.56 24.6 179.56 22.55C179.56 22.5 179.56 22.5 179.61 22.5C180.066 22.5 180.521 22.5 180.977 22.5C181.028 22.5 181.028 22.5 181.028 22.55C181.028 22.85 181.028 23.05 181.028 23.3Z" fill="#CD3B2E"/>
<path d="M172.221 24.65C172.221 25.95 172.221 27.3 172.221 28.6C172.221 28.65 172.221 28.7 172.12 28.7C171.664 28.7 171.209 28.7 170.702 28.7C170.652 28.7 170.601 28.7 170.601 28.6C170.601 25.95 170.601 23.35 170.601 20.7C170.601 20.65 170.601 20.6 170.702 20.6C171.158 20.6 171.664 20.6 172.12 20.6C172.17 20.6 172.17 20.6 172.17 20.7C172.221 22.05 172.221 23.35 172.221 24.65Z" fill="#CD3B2E"/>
<path d="M189.075 34.05C188.62 34.05 188.164 34.05 187.709 34.05C187.658 34.05 187.658 34.05 187.658 34.1C187.658 34.55 187.911 34.9 188.316 34.95C188.771 35.05 189.227 35 189.581 34.65C189.682 34.55 189.682 34.55 189.733 34.65C189.936 34.85 190.087 35 190.29 35.2C190.34 35.25 190.34 35.25 190.29 35.25C189.986 35.55 189.581 35.8 189.126 35.9C188.67 35.95 188.215 35.95 187.759 35.8C187.253 35.65 186.899 35.3 186.696 34.8C186.393 34 186.393 33.2 186.696 32.45C187 31.75 187.557 31.4 188.316 31.35C188.62 31.35 188.974 31.35 189.227 31.5C189.784 31.75 190.138 32.2 190.29 32.75C190.34 33 190.391 33.25 190.391 33.5C190.391 33.65 190.391 33.8 190.391 33.95C190.391 34 190.391 34 190.34 34C189.986 34.05 189.531 34.05 189.075 34.05ZM188.518 33.3C188.771 33.3 189.075 33.3 189.328 33.3C189.379 33.3 189.379 33.3 189.379 33.25C189.379 33.1 189.328 33 189.278 32.9C189.075 32.3 188.366 32.3 188.012 32.5C187.759 32.7 187.658 32.95 187.658 33.25C187.658 33.3 187.658 33.3 187.709 33.3C187.962 33.3 188.265 33.3 188.518 33.3Z" fill="black"/>
<path d="M194.997 33.7C194.997 34.05 194.997 34.4 194.896 34.7C194.744 35.3 194.339 35.7 193.732 35.9C193.225 36.05 192.719 36.05 192.213 35.8C191.656 35.55 191.353 35.15 191.251 34.55C191.15 34.1 191.15 33.65 191.201 33.2C191.201 32.95 191.251 32.65 191.403 32.4C191.656 31.85 192.112 31.55 192.719 31.4C193.074 31.35 193.478 31.35 193.833 31.45C194.44 31.65 194.845 32.1 194.997 32.75C194.997 33.1 194.997 33.4 194.997 33.7ZM192.314 33.7C192.314 33.95 192.314 34.15 192.365 34.4C192.466 34.9 192.82 35.1 193.276 35C193.58 34.95 193.732 34.7 193.833 34.45C193.934 34 193.934 33.55 193.833 33.1C193.782 32.85 193.681 32.65 193.428 32.55C193.225 32.45 193.074 32.45 192.871 32.5C192.567 32.6 192.416 32.8 192.365 33.05C192.314 33.25 192.264 33.45 192.314 33.7Z" fill="black"/>
<path d="M175.106 31.45C175.258 31.45 175.409 31.45 175.511 31.45C175.764 31.45 175.966 31.45 176.219 31.45C176.27 31.45 176.32 31.45 176.32 31.55C176.624 32.4 176.877 33.3 177.181 34.15V34.2C177.232 34.2 177.181 34.15 177.232 34.15C177.535 33.3 177.788 32.4 178.092 31.5C178.092 31.45 178.143 31.45 178.193 31.45C178.547 31.45 178.902 31.45 179.256 31.45C179.357 31.45 179.357 31.45 179.307 31.5C178.851 32.75 178.345 34.05 177.89 35.3C177.839 35.5 177.738 35.65 177.687 35.85C177.687 35.9 177.636 35.9 177.636 35.9C177.383 35.9 177.13 35.9 176.877 35.9C176.827 35.9 176.827 35.9 176.776 35.85C176.422 34.95 176.118 34.05 175.764 33.15C175.561 32.6 175.359 32.05 175.156 31.55C175.156 31.5 175.156 31.5 175.106 31.45Z" fill="black"/>
<path d="M190.087 22.5C190.087 22.45 190.037 22.45 190.087 22.5C189.733 22.15 189.429 21.85 189.126 21.55C189.075 21.5 189.126 21.5 189.126 21.45L189.176 21.4C190.391 20.2 191.606 19 192.77 17.8C192.82 17.75 192.82 17.75 192.871 17.8C193.175 18.1 193.478 18.4 193.782 18.7C193.833 18.75 193.833 18.75 193.782 18.8C192.567 20 191.353 21.2 190.087 22.5C190.087 22.45 190.138 22.45 190.087 22.5Z" fill="#CD3B2E"/>
<path d="M192.82 24C193.478 24 194.136 24 194.794 24C194.845 24 194.845 24 194.845 24.05C194.845 24.45 194.845 24.9 194.845 25.3C194.845 25.35 194.845 25.35 194.794 25.35C193.478 25.35 192.112 25.35 190.796 25.35C190.745 25.35 190.745 25.35 190.745 25.3C190.745 24.9 190.745 24.45 190.745 24.05C190.745 24 190.745 24 190.796 24C191.505 24 192.163 24 192.82 24Z" fill="#CD3B2E"/>
<path d="M186.038 19C186.038 18.35 186.038 17.7 186.038 17.1C186.038 17.05 186.038 17 186.089 17C186.494 17 186.899 17 187.354 17C187.405 17 187.405 17 187.405 17.05C187.405 18.35 187.405 19.6 187.405 20.9C187.405 20.95 187.405 20.95 187.354 20.95C186.949 20.95 186.494 20.95 186.089 20.95C186.038 20.95 186.038 20.95 186.038 20.9C186.038 20.3 186.038 19.65 186.038 19Z" fill="#CD3B2E"/>
<path d="M179.863 33.7C179.863 33 179.863 32.25 179.863 31.55C179.863 31.5 179.863 31.45 179.914 31.45C180.268 31.45 180.572 31.45 180.926 31.45C180.977 31.45 180.977 31.45 180.977 31.5C180.977 32.95 180.977 34.4 180.977 35.85C180.977 35.9 180.977 35.9 180.926 35.9C180.572 35.9 180.268 35.9 179.914 35.9C179.863 35.9 179.863 35.9 179.863 35.85C179.863 35.15 179.863 34.4 179.863 33.7Z" fill="black"/>
<path d="M179.712 30.2C179.712 29.8 180.015 29.5 180.42 29.5C180.825 29.5 181.129 29.8 181.129 30.2C181.129 30.6 180.825 30.9 180.42 30.9C180.015 30.9 179.712 30.6 179.712 30.2Z" fill="black"/>
</g>
<path d="M211.658 23.5771C211.418 23.5771 211.179 23.5771 210.939 23.5771C210.891 23.5771 210.891 23.5771 210.843 23.5269C210.508 22.8742 210.077 22.4224 209.406 22.2717C208.543 22.0207 207.777 22.2717 207.154 22.9244C206.818 23.2759 206.579 23.7277 206.483 24.2298C206.339 25.234 206.627 26.0373 207.393 26.6397C208.112 27.2422 209.214 27.2924 210.029 26.7402C210.364 26.4891 210.652 26.1879 210.843 25.7862C210.891 25.736 210.891 25.736 210.939 25.736C211.418 25.736 211.85 25.736 212.329 25.736C212.377 25.736 212.377 25.736 212.377 25.7862C212.137 26.5895 211.754 27.2422 211.131 27.7945C210.652 28.2464 210.077 28.4974 209.454 28.5978C208.495 28.7484 207.633 28.648 206.818 28.0957C205.86 27.4431 205.237 26.5393 205.045 25.3344C204.901 24.2298 205.093 23.2257 205.716 22.322C206.147 21.7195 206.674 21.2174 207.345 20.9664C207.729 20.8157 208.112 20.7153 208.543 20.7153C208.974 20.7153 209.406 20.7153 209.837 20.866C210.795 21.2174 211.562 21.8199 212.041 22.7738C212.185 23.0248 212.281 23.3261 212.377 23.5771C212.377 23.6273 212.377 23.6273 212.329 23.6273C212.137 23.5771 211.897 23.5771 211.658 23.5771Z" fill="#CD3B2E"/>
<path d="M219.133 28.0455C218.941 28.2464 218.702 28.3468 218.462 28.4472C217.983 28.648 217.504 28.6982 216.977 28.648C216.641 28.5978 216.306 28.4974 216.018 28.2464C215.731 27.9451 215.587 27.5937 215.539 27.1418C215.539 26.8406 215.539 26.5393 215.587 26.2381C215.731 25.6858 216.066 25.3344 216.545 25.1335C216.881 24.9829 217.216 24.9327 217.552 24.8825C217.935 24.8323 218.27 24.7821 218.654 24.6817C218.893 24.6315 219.085 24.3804 219.037 24.029C218.989 23.8281 218.893 23.6775 218.702 23.6273C218.558 23.5771 218.414 23.5269 218.27 23.5269C218.079 23.5269 217.935 23.5269 217.743 23.5269C217.456 23.5771 217.264 23.7779 217.12 24.0792C217.12 24.1294 217.072 24.1796 217.072 24.28C217.072 24.3302 217.025 24.3804 216.977 24.3804C216.545 24.3804 216.114 24.3804 215.635 24.3804C215.587 24.3804 215.587 24.3804 215.587 24.3302C215.587 24.1294 215.635 23.8784 215.683 23.6775C215.874 23.0248 216.306 22.573 216.929 22.3721C217.168 22.2717 217.456 22.2215 217.743 22.2215C218.27 22.1713 218.797 22.2215 219.325 22.3721C219.468 22.4224 219.612 22.4726 219.804 22.573C220.235 22.7738 220.427 23.1252 220.523 23.6273C220.57 23.8281 220.57 23.9788 220.57 24.1796C220.57 25.6356 220.57 27.1418 220.57 28.5978C220.57 28.648 220.57 28.6982 220.475 28.6982C220.043 28.6982 219.612 28.6982 219.133 28.6982C219.085 28.6982 219.037 28.6982 219.085 28.5978C219.133 28.4472 219.133 28.2464 219.133 28.0455ZM219.037 25.5352C218.941 25.5854 218.845 25.6858 218.75 25.6858C218.51 25.7862 218.222 25.8364 217.983 25.8866C217.791 25.9368 217.647 25.9368 217.456 26.0372C217.216 26.1377 217.072 26.2883 217.025 26.5895C216.977 26.6899 216.977 26.8406 217.025 26.941C217.072 27.2924 217.264 27.4932 217.552 27.5435C217.743 27.5937 217.935 27.5937 218.127 27.4932C218.75 27.2924 218.941 26.9912 219.037 26.4891C219.085 26.1879 219.037 25.8866 219.037 25.5352Z" fill="#CD3B2E"/>
<path d="M228.141 28.6982C227.231 28.6982 226.512 28.3468 225.937 27.6439C225.458 27.0916 225.171 26.4891 225.123 25.736C225.027 24.4808 225.506 23.4767 226.464 22.7738C226.896 22.4224 227.375 22.2717 227.95 22.2215C228.381 22.1713 228.86 22.2215 229.244 22.4224C230.298 22.8742 230.969 23.6775 231.208 24.8825C231.352 25.7862 231.208 26.6397 230.729 27.3426C230.25 28.0455 229.627 28.4974 228.812 28.648C228.525 28.6982 228.333 28.6982 228.141 28.6982ZM228.141 23.778C227.231 23.7277 226.512 24.5813 226.512 25.485C226.512 26.3385 227.183 27.192 228.141 27.192C229.1 27.192 229.771 26.3385 229.771 25.485C229.771 24.5311 229.052 23.7277 228.141 23.778Z" fill="#CD3B2E"/>
<path d="M212.472 31.9617C212.664 31.7608 212.856 31.6604 213.095 31.56C213.527 31.4094 213.91 31.4596 214.293 31.6604C214.437 31.7608 214.533 31.8613 214.677 32.0119C214.724 32.0621 214.724 32.0621 214.772 32.0119C215.012 31.7608 215.299 31.56 215.635 31.5098C216.018 31.4596 216.354 31.4596 216.737 31.6102C217.168 31.811 217.408 32.2127 217.504 32.7148C217.552 32.8654 217.552 33.016 217.552 33.1666C217.552 34.0704 217.552 35.0243 217.552 35.928C217.552 35.9782 217.552 36.0284 217.504 35.9782C217.216 35.9782 216.881 35.9782 216.593 35.9782C216.545 35.9782 216.545 35.9782 216.545 35.928C216.545 35.0243 216.545 34.1708 216.545 33.267C216.545 33.1164 216.545 32.9658 216.45 32.8654C216.354 32.6144 216.066 32.4637 215.827 32.4637C215.587 32.4637 215.395 32.5641 215.252 32.765C215.156 32.9156 215.108 33.0662 215.108 33.2168C215.108 34.1206 215.108 34.9741 215.108 35.8778C215.108 35.928 215.108 35.9782 215.012 35.9782C214.724 35.9782 214.389 35.9782 214.102 35.9782C214.054 35.9782 214.054 35.9782 214.054 35.928C214.054 35.0243 214.054 34.1708 214.054 33.267C214.054 33.1164 214.054 32.9658 213.958 32.8152C213.814 32.5641 213.622 32.4637 213.383 32.4637C213.095 32.4637 212.904 32.5641 212.76 32.8152C212.664 32.9658 212.664 33.1164 212.664 33.267C212.664 34.1206 212.664 35.0243 212.664 35.8778C212.664 35.928 212.664 35.928 212.616 35.928C212.281 35.928 211.993 35.928 211.658 35.928C211.61 35.928 211.61 35.928 211.61 35.8778C211.61 34.4218 211.61 32.9658 211.61 31.5098C211.61 31.4596 211.61 31.4596 211.658 31.4596C211.945 31.4596 212.281 31.4596 212.568 31.4596C212.616 31.4596 212.616 31.4596 212.616 31.5098C212.472 31.7106 212.472 31.8613 212.472 31.9617Z" fill="black"/>
<path d="M222.966 23.2758C223.062 23.1754 223.11 23.1252 223.158 23.0248C223.493 22.6734 223.877 22.4223 224.308 22.3219C224.5 22.2717 224.691 22.2215 224.883 22.2215C224.931 22.2215 224.931 22.2215 224.931 22.2717C224.931 22.7738 224.931 23.2256 224.931 23.7277C224.931 23.7779 224.931 23.7779 224.883 23.7779C224.691 23.7779 224.548 23.7277 224.356 23.7779C224.116 23.7779 223.877 23.8783 223.685 24.0289C223.637 24.0792 223.541 24.1294 223.493 24.1796C223.206 24.4306 223.062 24.782 223.014 25.1837C223.014 25.3845 222.966 25.5854 222.966 25.7862C222.966 26.7401 222.966 27.6438 222.966 28.5978C222.966 28.648 222.966 28.648 222.87 28.648C222.439 28.648 222.008 28.648 221.529 28.648C221.481 28.648 221.481 28.648 221.481 28.5978C221.481 26.5895 221.481 24.5812 221.481 22.5729C221.481 22.5227 221.481 22.5227 221.529 22.5227C221.96 22.5227 222.391 22.5227 222.775 22.5227C222.823 22.5227 222.87 22.5227 222.87 22.6232C222.966 22.824 222.966 23.075 222.966 23.2758Z" fill="#CD3B2E"/>
<path d="M213.191 24.6817C213.191 23.3763 213.191 22.0709 213.191 20.7655C213.191 20.7153 213.191 20.6651 213.287 20.6651C213.718 20.6651 214.149 20.6651 214.629 20.6651C214.677 20.6651 214.724 20.6651 214.724 20.7153C214.724 23.3261 214.724 25.987 214.724 28.5978C214.724 28.648 214.724 28.6982 214.677 28.6982C214.245 28.6982 213.766 28.6982 213.335 28.6982C213.287 28.6982 213.287 28.6982 213.287 28.5978C213.191 27.2924 213.191 25.987 213.191 24.6817Z" fill="#CD3B2E"/>
<path d="M234.946 35.6267C234.85 35.7271 234.754 35.8275 234.61 35.8777C234.419 36.0284 234.227 36.0786 233.987 36.0786C233.748 36.0786 233.508 36.0786 233.269 35.9782C232.789 35.8275 232.55 35.4761 232.454 34.974C232.406 34.7732 232.406 34.5222 232.502 34.3213C232.598 33.9699 232.789 33.7189 233.125 33.5682C233.412 33.4176 233.652 33.4176 233.987 33.4176C234.275 33.4176 234.61 33.4176 234.898 33.4176C234.946 33.4176 234.946 33.4176 234.946 33.3674C234.946 33.267 234.946 33.1164 234.946 33.016C234.898 32.7649 234.754 32.5641 234.514 32.5139C234.275 32.4637 234.035 32.4637 233.844 32.5139C233.652 32.5641 233.508 32.6645 233.412 32.8151C233.364 32.8653 233.364 32.8653 233.317 32.8151C233.125 32.6143 232.933 32.4135 232.694 32.2126C232.646 32.1624 232.646 32.1624 232.694 32.1122C232.981 31.811 233.317 31.6102 233.748 31.56C234.131 31.5097 234.514 31.5097 234.898 31.6102C235.281 31.7106 235.617 31.9114 235.808 32.2629C235.952 32.5139 236 32.7649 236 33.0662C236 34.0201 236 34.974 236 35.9782C236 36.0284 236 36.0786 235.904 36.0786C235.617 36.0786 235.329 36.0786 234.994 36.0786C234.946 36.0786 234.946 36.0786 234.946 36.0284C234.946 35.8777 234.946 35.7773 234.946 35.6267ZM234.898 34.3715C234.898 34.3213 234.898 34.2711 234.898 34.2209C234.898 34.1707 234.898 34.1707 234.85 34.1707C234.61 34.1707 234.323 34.1707 234.083 34.1707C233.987 34.1707 233.939 34.1707 233.844 34.2209C233.604 34.2711 233.508 34.4217 233.46 34.6728C233.46 34.9238 233.556 35.0744 233.796 35.1749C234.035 35.2753 234.275 35.2251 234.514 35.1749C234.754 35.1246 234.898 34.9238 234.898 34.6728C234.898 34.5222 234.898 34.4217 234.898 34.3715Z" fill="black"/>
<path d="M220.906 35.6268C220.475 36.0786 219.947 36.179 219.372 36.0284C218.845 35.8778 218.558 35.5263 218.462 34.9741C218.414 34.8234 218.414 34.6226 218.414 34.472C218.414 33.5181 218.414 32.6143 218.414 31.6604C218.414 31.6102 218.414 31.56 218.51 31.56C218.797 31.56 219.133 31.56 219.42 31.56C219.468 31.56 219.468 31.56 219.468 31.6102C219.468 32.5139 219.468 33.3674 219.468 34.2712C219.468 34.5222 219.516 34.723 219.66 34.8737C219.804 35.0243 219.995 35.0745 220.187 35.0745C220.427 35.0745 220.618 34.9741 220.762 34.7732C220.858 34.6728 220.858 34.5222 220.906 34.3716C220.906 34.221 220.906 34.1205 220.906 33.9699C220.906 33.2168 220.906 32.4135 220.906 31.6604C220.906 31.6102 220.906 31.6102 220.954 31.6102C221.241 31.6102 221.577 31.6102 221.864 31.6102C221.912 31.6102 221.912 31.6102 221.912 31.6604C221.912 33.1164 221.912 34.5724 221.912 35.9782C221.912 36.0284 221.912 36.0284 221.864 36.0284C221.577 36.0284 221.241 36.0284 220.954 36.0284C220.906 36.0284 220.906 36.0284 220.906 35.9782C220.906 35.8276 220.906 35.7272 220.906 35.6268Z" fill="black"/>
<path d="M224.308 36.0786C223.829 36.0786 223.446 36.0284 223.11 35.8778C222.918 35.7774 222.727 35.6268 222.583 35.4761C222.535 35.4259 222.535 35.4259 222.583 35.4259C222.775 35.2251 223.014 34.9741 223.206 34.7732C223.206 34.7732 223.254 34.723 223.254 34.7732C223.493 34.9741 223.733 35.1247 224.021 35.1247C224.26 35.1749 224.548 35.1749 224.787 35.0745C224.883 35.0243 224.979 34.9741 225.075 34.8737C225.218 34.6226 225.123 34.3214 224.835 34.2712C224.643 34.221 224.452 34.221 224.26 34.221C224.021 34.1708 223.781 34.1708 223.541 34.1205C223.014 33.9699 222.727 33.5683 222.727 33.016C222.727 32.3633 223.062 31.8612 223.685 31.6604C223.973 31.56 224.26 31.56 224.548 31.56C224.883 31.56 225.218 31.6102 225.554 31.7608C225.698 31.811 225.841 31.9114 225.985 32.0621C226.033 32.0621 226.033 32.1123 225.985 32.1123C225.793 32.3131 225.602 32.5139 225.41 32.7148C225.41 32.765 225.362 32.765 225.362 32.7148C225.171 32.5641 224.931 32.4637 224.691 32.4637C224.5 32.4637 224.356 32.4135 224.164 32.4637C224.068 32.4637 224.021 32.5139 223.973 32.5641C223.829 32.6645 223.781 32.8152 223.829 32.9658C223.877 33.1164 224.021 33.2168 224.164 33.2168C224.404 33.267 224.643 33.267 224.931 33.3172C225.171 33.3172 225.362 33.3674 225.602 33.4679C225.985 33.6687 226.177 33.9699 226.225 34.3716C226.273 34.6226 226.225 34.8737 226.177 35.1247C226.033 35.5263 225.746 35.7774 225.362 35.928C224.931 36.0284 224.596 36.0786 224.308 36.0786Z" fill="black"/>
<path d="M228.764 33.8193C228.764 33.3674 228.812 32.9657 229.004 32.5641C229.244 32.0118 229.675 31.6604 230.298 31.56C230.681 31.5097 231.064 31.5097 231.4 31.6102C231.687 31.7106 231.879 31.8612 232.071 32.062C232.119 32.1122 232.071 32.1122 232.071 32.1122C231.831 32.3633 231.639 32.5641 231.4 32.8151C231.352 32.8653 231.352 32.8151 231.352 32.8151C231.208 32.6645 231.112 32.5641 230.921 32.5139C230.441 32.4135 230.058 32.6645 229.914 33.1666C229.819 33.5682 229.819 33.9699 229.914 34.3715C230.01 34.723 230.202 34.9238 230.489 35.0242C230.777 35.0744 231.064 35.0242 231.304 34.7732C231.4 34.6728 231.4 34.6728 231.448 34.7732C231.639 34.974 231.831 35.1749 232.023 35.3757C232.071 35.4259 232.071 35.4259 232.023 35.4761C231.639 35.8777 231.16 36.0284 230.633 36.0284C230.25 36.0284 229.914 35.928 229.627 35.7271C229.244 35.4761 229.004 35.0744 228.86 34.6226C228.812 34.3715 228.764 34.0703 228.764 33.8193Z" fill="black"/>
<path d="M231.496 22.4726C231.448 22.4726 231.448 22.4726 231.496 22.4726C231.16 22.1211 230.873 21.8199 230.585 21.5186C230.537 21.4684 230.585 21.4684 230.585 21.4182C231.112 20.866 231.639 20.3137 232.167 19.7614C232.789 19.1087 233.412 18.456 234.035 17.8033C234.083 17.7531 234.083 17.7531 234.131 17.8033C234.419 18.1046 234.706 18.4058 234.946 18.7071C234.994 18.7573 234.994 18.7573 234.946 18.8075C233.844 20.0124 232.694 21.2174 231.496 22.4726C231.496 22.4726 231.496 22.4224 231.496 22.4726Z" fill="#CD3B2E"/>
<path d="M234.083 25.3846C233.46 25.3846 232.837 25.3846 232.214 25.3846C232.167 25.3846 232.119 25.3846 232.119 25.2841C232.119 24.8825 232.119 24.4808 232.119 24.029C232.119 23.9788 232.119 23.9788 232.167 23.9788C233.412 23.9788 234.658 23.9788 235.904 23.9788C235.952 23.9788 235.952 23.9788 235.952 24.029C235.952 24.4306 235.952 24.8323 235.952 25.2841C235.952 25.3343 235.952 25.3343 235.904 25.3343C235.329 25.3846 234.706 25.3846 234.083 25.3846Z" fill="#CD3B2E"/>
<path d="M227.662 19.0083C227.662 18.3556 227.662 17.7531 227.662 17.1004C227.662 17 227.71 17 227.758 17C228.141 17 228.525 17 228.956 17C229.004 17 229.004 17 229.004 17.0502C229.004 18.3556 229.004 19.6108 229.004 20.9161C229.004 20.9663 229.004 20.9663 228.956 20.9663C228.573 20.9663 228.189 20.9663 227.758 20.9663C227.71 20.9663 227.71 20.9663 227.71 20.9161C227.662 20.2634 227.662 19.6108 227.662 19.0083Z" fill="#CD3B2E"/>
<path d="M226.896 33.7691C226.896 33.0662 226.896 32.3131 226.896 31.6102C226.896 31.56 226.896 31.56 226.943 31.56C227.279 31.56 227.566 31.56 227.902 31.56C227.95 31.56 227.95 31.56 227.95 31.6102C227.95 33.0662 227.95 34.5222 227.95 35.928C227.95 35.9782 227.95 35.9782 227.902 35.9782C227.566 35.9782 227.279 35.9782 226.943 35.9782C226.896 35.9782 226.896 35.9782 226.896 35.928C226.896 35.2251 226.896 34.5222 226.896 33.7691Z" fill="black"/>
<path d="M227.423 31.0077C227.039 31.0077 226.752 30.7065 226.752 30.3048C226.752 29.9032 227.039 29.6019 227.423 29.6019C227.806 29.6019 228.094 29.9032 228.094 30.3048C228.094 30.7065 227.806 31.0077 227.423 31.0077Z" fill="black"/>
<path d="M219.708 30.8571C219.756 30.7065 219.804 30.5559 219.9 30.3551C219.995 30.0538 220.139 29.7526 220.235 29.4513C220.235 29.4011 220.235 29.4011 220.283 29.4011C220.618 29.4011 221.002 29.4011 221.337 29.4011C221.337 29.4011 221.337 29.4513 221.289 29.4513C221.002 29.9032 220.714 30.3551 220.427 30.8069C220.427 30.8571 220.379 30.8571 220.331 30.8571C220.139 30.8571 219.9 30.8571 219.708 30.8571Z" fill="black"/>
<g clip-path="url(#clip1)">
<path d="M126.5 14.9995C120.283 14.8782 115.144 19.8061 115 26.0233C115.018 29.1858 116.415 32.1821 118.832 34.226V37.5233C118.832 37.7883 119.047 38.004 119.312 38.004C119.402 38.004 119.492 37.977 119.569 37.9321L122.241 36.2655C123.603 36.7866 125.049 37.0516 126.504 37.0471C132.722 37.1684 137.861 32.2405 138.004 26.0278C137.856 19.8061 132.717 14.8782 126.5 14.9995Z" fill="#2196F3"/>
<path d="M134.069 22.8613C133.926 22.6681 133.665 22.6142 133.454 22.7265L128.472 25.4443L125.372 22.7849C125.184 22.6232 124.901 22.6322 124.721 22.8119L118.971 28.5619C118.782 28.7506 118.787 29.0515 118.971 29.2402C119.119 29.3885 119.353 29.4244 119.537 29.3211L124.523 26.6033L127.628 29.2627C127.816 29.4244 128.099 29.4154 128.279 29.2357L134.029 23.4857C134.195 23.315 134.213 23.05 134.069 22.8613Z" fill="#FAFAFA"/>
</g>
<path d="M139.801 35.7308L134.58 37.4651L133 38L135.215 31.1276C134.844 30.4144 134.549 29.6526 134.332 28.8584C134.085 27.902 133.945 26.9133 133.945 25.9246C133.945 23.007 135.061 20.2516 137.028 18.1931C139.011 16.1346 141.676 15 144.465 15C147.254 15 149.918 16.1346 151.901 18.1931C153.9 20.2678 155 23.0395 155 25.9408C155 28.8584 153.885 31.6138 151.917 33.6723C149.934 35.7308 147.269 36.8654 144.48 36.8654C143.597 36.8654 142.714 36.7519 141.846 36.525C141.149 36.3467 140.452 36.0712 139.801 35.7308Z" fill="#EEEEEE"/>
<path d="M154.163 25.9408C154.163 23.1691 153.079 20.6568 151.328 18.8252C149.577 17.0099 147.161 15.8915 144.48 15.8915C141.8 15.8915 139.383 17.0099 137.632 18.8414C135.882 20.6568 134.797 23.1691 134.797 25.9408C134.797 26.8647 134.921 27.7724 135.154 28.6314C135.386 29.4905 135.711 30.3009 136.145 31.0465L134.472 36.2333L134.332 36.6385L134.72 36.5088L139.879 34.7907C140.561 35.1797 141.289 35.4715 142.063 35.6822C142.838 35.8929 143.644 36.0063 144.48 36.0063C147.161 36.0063 149.577 34.888 151.328 33.0564C153.079 31.241 154.163 28.7287 154.163 25.9408Z" fill="#54CC61"/>
<path d="M142.915 23.2016C142.869 23.1043 142.621 22.4884 142.404 21.9211C142.265 21.5483 142.125 21.2079 142.094 21.1431C141.846 20.5109 141.552 20.5271 141.335 20.5433C141.32 20.5433 141.304 20.5433 141.289 20.5433C141.211 20.5433 141.134 20.5433 141.056 20.5271C140.963 20.5271 140.855 20.5109 140.762 20.5109C140.638 20.5109 140.468 20.5433 140.282 20.6244C140.142 20.6892 140.018 20.7865 139.879 20.9323C139.863 20.9486 139.848 20.9648 139.832 20.981C139.538 21.3051 138.887 22.0183 138.887 23.3961C138.887 24.8386 139.879 26.2164 140.034 26.4109C140.034 26.4109 140.065 26.4433 140.096 26.4919C140.468 27.0592 142.156 29.6364 144.728 30.6899C147.052 31.6462 147.486 31.5328 147.858 31.4355C147.92 31.4193 147.982 31.4031 148.059 31.4031C148.369 31.3707 148.865 31.16 149.283 30.852C149.624 30.5927 149.934 30.2685 150.058 29.9443C150.166 29.6364 150.213 29.3608 150.244 29.1339C150.29 28.7935 150.259 28.5342 150.197 28.4369C150.104 28.2911 149.949 28.21 149.717 28.0965C149.67 28.0803 149.639 28.0479 149.593 28.0317C149.438 27.9507 148.88 27.6589 148.415 27.432C148.106 27.2861 147.842 27.1564 147.734 27.1078C147.579 27.0592 147.455 27.0106 147.315 27.0268C147.161 27.043 147.021 27.124 146.882 27.3347C146.82 27.432 146.696 27.5941 146.572 27.7562C146.37 28.0155 146.138 28.2911 146.045 28.4045C145.999 28.4531 145.968 28.4856 145.937 28.4856C145.89 28.4856 145.813 28.4693 145.72 28.4207C145.658 28.3883 145.596 28.3559 145.518 28.3235C145.146 28.1614 144.418 27.821 143.597 27.0592C143.303 26.7837 143.039 26.4919 142.823 26.2001C142.466 25.7463 142.234 25.3411 142.141 25.179C142.063 25.0493 142.156 24.9521 142.218 24.871C142.296 24.79 142.404 24.6603 142.497 24.5469C142.544 24.4982 142.59 24.4334 142.637 24.3686C142.761 24.2065 142.823 24.093 142.885 23.9471C142.9 23.9147 142.915 23.8985 142.931 23.8661C142.993 23.7364 143.008 23.6068 142.993 23.4771C142.993 23.3961 142.946 23.2988 142.915 23.2016Z" fill="#FFFFFE"/>
<path d="M130.891 74.2031C130.036 75.2031 128.792 75.9792 127.156 76.5312C125.521 77.0729 123.708 77.3281 121.719 77.2969C119.812 77.276 118.203 76.7969 116.891 75.8594C115.578 74.9219 114.641 73.6146 114.078 71.9375C113.516 70.2604 113.365 68.3698 113.625 66.2656L113.75 65.3281C114.229 61.7969 115.469 59 117.469 56.9375C119.479 54.875 121.938 53.8698 124.844 53.9219C127.385 53.9635 129.339 54.6458 130.703 55.9688C132.068 57.2917 132.828 59.2031 132.984 61.7031L127.859 61.6875C127.786 60.4688 127.484 59.5781 126.953 59.0156C126.432 58.4531 125.688 58.1562 124.719 58.125C123.281 58.0729 122.094 58.6406 121.156 59.8281C120.219 61.0052 119.578 62.6927 119.234 64.8906C118.943 66.7656 118.839 68.224 118.922 69.2656C119.078 71.776 120.208 73.0469 122.312 73.0781C123.583 73.099 124.698 72.7917 125.656 72.1562L126.359 68.6094H122.656L123.312 64.8438H132.359L130.891 74.2031ZM149.462 68.9688H146.494L145.087 77H139.744L143.681 54.25L151.712 54.2656C154.285 54.2656 156.265 54.8698 157.65 56.0781C159.046 57.276 159.671 58.9167 159.525 61C159.41 62.6458 158.936 64.0104 158.103 65.0938C157.27 66.1667 156.103 67.0156 154.603 67.6406L157.666 76.7344V77H151.962L149.462 68.9688ZM147.212 64.7344L150.337 64.7656C151.192 64.7656 151.931 64.5573 152.556 64.1406C153.192 63.724 153.645 63.1562 153.916 62.4375C154.186 61.7083 154.265 61.0052 154.15 60.3281C153.942 59.1719 153.202 58.5625 151.931 58.5L148.306 58.4844L147.212 64.7344ZM179.909 72.75H172.644L170.628 77H164.737L176.784 54.25H181.816L186.019 77H180.456L179.909 72.75ZM174.644 68.5156H179.362L178.362 60.6719L174.644 68.5156ZM212.95 58.4844H206.325L203.122 77H197.762L200.981 58.4844H194.466L195.216 54.25H213.684L212.95 58.4844ZM224.209 77H218.866L222.819 54.25H228.147L224.209 77ZM246.938 70.8438C247.167 69.6667 246.531 68.7552 245.031 68.1094L242.469 67.0469C238.875 65.4323 237.167 63.2344 237.344 60.4531C237.417 59.1823 237.854 58.0521 238.656 57.0625C239.458 56.0625 240.568 55.2865 241.984 54.7344C243.401 54.1823 244.948 53.9167 246.625 53.9375C248.875 53.9792 250.682 54.6354 252.047 55.9062C253.422 57.1771 254.099 58.8802 254.078 61.0156H248.766C248.797 60.1406 248.609 59.4427 248.203 58.9219C247.807 58.3906 247.151 58.1146 246.234 58.0938C245.339 58.0729 244.547 58.2812 243.859 58.7188C243.172 59.1562 242.766 59.7448 242.641 60.4844C242.443 61.526 243.214 62.3802 244.953 63.0469C246.703 63.7135 247.974 64.2865 248.766 64.7656C251.255 66.2552 252.422 68.2656 252.266 70.7969C252.182 72.1094 251.76 73.2604 251 74.25C250.24 75.2396 249.182 76.0052 247.828 76.5469C246.484 77.0885 244.974 77.349 243.297 77.3281C242.068 77.3073 240.927 77.1146 239.875 76.75C238.823 76.3854 237.922 75.8542 237.172 75.1562C235.651 73.75 234.922 71.901 234.984 69.6094L240.344 69.625C240.281 70.7917 240.505 71.6771 241.016 72.2812C241.526 72.875 242.385 73.1719 243.594 73.1719C244.49 73.1719 245.234 72.9688 245.828 72.5625C246.432 72.1458 246.802 71.5729 246.938 70.8438Z" fill="#D6920E"/>
<path d="M128.891 70.2031C128.036 71.2031 126.792 71.9792 125.156 72.5312C123.521 73.0729 121.708 73.3281 119.719 73.2969C117.812 73.276 116.203 72.7969 114.891 71.8594C113.578 70.9219 112.641 69.6146 112.078 67.9375C111.516 66.2604 111.365 64.3698 111.625 62.2656L111.75 61.3281C112.229 57.7969 113.469 55 115.469 52.9375C117.479 50.875 119.938 49.8698 122.844 49.9219C125.385 49.9635 127.339 50.6458 128.703 51.9688C130.068 53.2917 130.828 55.2031 130.984 57.7031L125.859 57.6875C125.786 56.4688 125.484 55.5781 124.953 55.0156C124.432 54.4531 123.688 54.1562 122.719 54.125C121.281 54.0729 120.094 54.6406 119.156 55.8281C118.219 57.0052 117.578 58.6927 117.234 60.8906C116.943 62.7656 116.839 64.224 116.922 65.2656C117.078 67.776 118.208 69.0469 120.312 69.0781C121.583 69.099 122.698 68.7917 123.656 68.1562L124.359 64.6094H120.656L121.312 60.8438H130.359L128.891 70.2031ZM147.462 64.9688H144.494L143.087 73H137.744L141.681 50.25L149.712 50.2656C152.285 50.2656 154.265 50.8698 155.65 52.0781C157.046 53.276 157.671 54.9167 157.525 57C157.41 58.6458 156.936 60.0104 156.103 61.0938C155.27 62.1667 154.103 63.0156 152.603 63.6406L155.666 72.7344V73H149.962L147.462 64.9688ZM145.212 60.7344L148.337 60.7656C149.192 60.7656 149.931 60.5573 150.556 60.1406C151.192 59.724 151.645 59.1562 151.916 58.4375C152.186 57.7083 152.265 57.0052 152.15 56.3281C151.942 55.1719 151.202 54.5625 149.931 54.5L146.306 54.4844L145.212 60.7344ZM177.909 68.75H170.644L168.628 73H162.737L174.784 50.25H179.816L184.019 73H178.456L177.909 68.75ZM172.644 64.5156H177.362L176.362 56.6719L172.644 64.5156ZM210.95 54.4844H204.325L201.122 73H195.762L198.981 54.4844H192.466L193.216 50.25H211.684L210.95 54.4844ZM222.209 73H216.866L220.819 50.25H226.147L222.209 73ZM244.938 66.8438C245.167 65.6667 244.531 64.7552 243.031 64.1094L240.469 63.0469C236.875 61.4323 235.167 59.2344 235.344 56.4531C235.417 55.1823 235.854 54.0521 236.656 53.0625C237.458 52.0625 238.568 51.2865 239.984 50.7344C241.401 50.1823 242.948 49.9167 244.625 49.9375C246.875 49.9792 248.682 50.6354 250.047 51.9062C251.422 53.1771 252.099 54.8802 252.078 57.0156H246.766C246.797 56.1406 246.609 55.4427 246.203 54.9219C245.807 54.3906 245.151 54.1146 244.234 54.0938C243.339 54.0729 242.547 54.2812 241.859 54.7188C241.172 55.1562 240.766 55.7448 240.641 56.4844C240.443 57.526 241.214 58.3802 242.953 59.0469C244.703 59.7135 245.974 60.2865 246.766 60.7656C249.255 62.2552 250.422 64.2656 250.266 66.7969C250.182 68.1094 249.76 69.2604 249 70.25C248.24 71.2396 247.182 72.0052 245.828 72.5469C244.484 73.0885 242.974 73.349 241.297 73.3281C240.068 73.3073 238.927 73.1146 237.875 72.75C236.823 72.3854 235.922 71.8542 235.172 71.1562C233.651 69.75 232.922 67.901 232.984 65.6094L238.344 65.625C238.281 66.7917 238.505 67.6771 239.016 68.2812C239.526 68.875 240.385 69.1719 241.594 69.1719C242.49 69.1719 243.234 68.9688 243.828 68.5625C244.432 68.1458 244.802 67.5729 244.938 66.8438Z" fill="white"/>
<path d="M128.891 70.2031L129.651 70.8526L129.835 70.6376L129.879 70.3582L128.891 70.2031ZM125.156 72.5312L125.471 73.4806L125.476 73.4787L125.156 72.5312ZM119.719 73.2969L119.734 72.297L119.73 72.2969L119.719 73.2969ZM111.625 62.2656L110.634 62.1335L110.633 62.1428L111.625 62.2656ZM111.75 61.3281L110.759 61.1937L110.759 61.196L111.75 61.3281ZM115.469 52.9375L114.753 52.2395L114.751 52.2414L115.469 52.9375ZM122.844 49.9219L122.826 50.9217L122.827 50.9217L122.844 49.9219ZM130.984 57.7031L130.981 58.7031L132.049 58.7064L131.982 57.6407L130.984 57.7031ZM125.859 57.6875L124.861 57.7472L124.917 58.6846L125.856 58.6875L125.859 57.6875ZM124.953 55.0156L124.219 55.6951L124.226 55.7022L124.953 55.0156ZM122.719 54.125L122.683 55.1244L122.687 55.1245L122.719 54.125ZM119.156 55.8281L119.938 56.4511L119.941 56.4478L119.156 55.8281ZM117.234 60.8906L116.246 60.7361L116.246 60.7369L117.234 60.8906ZM116.922 65.2656L117.92 65.2035L117.919 65.1947L117.919 65.1859L116.922 65.2656ZM120.312 69.0781L120.329 68.0783L120.327 68.0782L120.312 69.0781ZM123.656 68.1562L124.209 68.9897L124.556 68.7594L124.637 68.3507L123.656 68.1562ZM124.359 64.6094L125.34 64.8038L125.577 63.6094H124.359V64.6094ZM120.656 64.6094L119.671 64.4377L119.467 65.6094H120.656V64.6094ZM121.312 60.8438V59.8438H120.472L120.327 60.6721L121.312 60.8438ZM130.359 60.8438L131.347 60.9988L131.529 59.8438H130.359V60.8438ZM128.13 69.5536C127.425 70.3798 126.353 71.0718 124.836 71.5838L125.476 73.4787C127.23 72.8865 128.648 72.0264 129.651 70.8526L128.13 69.5536ZM124.842 71.582C123.328 72.0834 121.629 72.3268 119.734 72.297L119.703 74.2968C121.788 74.3295 123.714 74.0624 125.471 73.4805L124.842 71.582ZM119.73 72.2969C117.99 72.2779 116.589 71.8438 115.472 71.0456L114.309 72.6731C115.817 73.75 117.635 74.2742 119.708 74.2968L119.73 72.2969ZM115.472 71.0456C114.347 70.2425 113.529 69.1171 113.026 67.6195L111.13 68.2555C111.753 70.112 112.809 71.6012 114.309 72.6731L115.472 71.0456ZM113.026 67.6195C112.52 66.1096 112.372 64.3733 112.617 62.3885L110.633 62.1428C110.357 64.3663 110.511 66.4112 111.13 68.2555L113.026 67.6195ZM112.616 62.3978L112.741 61.4603L110.759 61.196L110.634 62.1335L112.616 62.3978ZM112.741 61.4626C113.198 58.0913 114.368 55.5093 116.187 53.6336L114.751 52.2414C112.57 54.4907 111.26 57.5025 110.759 61.1937L112.741 61.4626ZM116.185 53.6355C118.001 51.7726 120.193 50.8745 122.826 50.9217L122.862 48.922C119.682 48.8651 116.958 49.9774 114.753 52.2395L116.185 53.6355ZM122.827 50.9217C125.203 50.9607 126.879 51.5936 128.007 52.6867L129.399 51.2508C127.798 49.6981 125.568 48.9664 122.86 48.922L122.827 50.9217ZM128.007 52.6867C129.142 53.7872 129.841 55.4332 129.986 57.7655L131.982 57.6407C131.816 54.9731 130.993 52.7961 129.399 51.2508L128.007 52.6867ZM130.987 56.7031L125.862 56.6875L125.856 58.6875L130.981 58.7031L130.987 56.7031ZM126.858 57.6278C126.778 56.3026 126.443 55.1365 125.68 54.329L124.226 55.7022C124.526 56.0197 124.795 56.6349 124.861 57.7472L126.858 57.6278ZM125.687 54.3362C124.939 53.5289 123.912 53.163 122.751 53.1255L122.687 55.1245C123.463 55.1495 123.925 55.3774 124.219 55.695L125.687 54.3362ZM122.755 53.1257C120.98 53.0613 119.494 53.786 118.371 55.2085L119.941 56.4478C120.693 55.4953 121.583 55.0845 122.683 55.1243L122.755 53.1257ZM118.374 55.2051C117.289 56.5676 116.605 58.443 116.246 60.7361L118.222 61.0451C118.551 58.9424 119.149 57.4428 119.938 56.4511L118.374 55.2051ZM116.246 60.7369C115.951 62.6374 115.832 64.1868 115.925 65.3454L117.919 65.1859C117.845 64.2611 117.935 62.8938 118.222 61.0443L116.246 60.7369ZM115.924 65.3277C116.009 66.7034 116.369 67.9002 117.139 68.7661C117.934 69.6591 119.037 70.0593 120.298 70.078L120.327 68.0782C119.484 68.0657 118.97 67.8148 118.634 67.437C118.274 67.0321 117.991 66.3382 117.92 65.2035L115.924 65.3277ZM120.296 70.078C121.747 70.1018 123.064 69.7485 124.209 68.9897L123.104 67.3228C122.331 67.8348 121.42 68.0961 120.329 68.0783L120.296 70.078ZM124.637 68.3507L125.34 64.8038L123.378 64.4149L122.675 67.9618L124.637 68.3507ZM124.359 63.6094H120.656V65.6094H124.359V63.6094ZM121.641 64.7811L122.298 61.0154L120.327 60.6721L119.671 64.4377L121.641 64.7811ZM121.312 61.8438H130.359V59.8438H121.312V61.8438ZM129.371 60.6887L127.903 70.0481L129.879 70.3582L131.347 60.9988L129.371 60.6887ZM147.462 64.9688L148.417 64.6715L148.199 63.9688H147.462V64.9688ZM144.494 64.9688V63.9688H143.654L143.509 64.7963L144.494 64.9688ZM143.087 73V74H143.928L144.073 73.1725L143.087 73ZM137.744 73L136.758 72.8295L136.556 74H137.744V73ZM141.681 50.25L141.683 49.25L140.84 49.2484L140.696 50.0795L141.681 50.25ZM149.712 50.2656L149.711 51.2656H149.712V50.2656ZM155.65 52.0781L154.993 52.8318L154.999 52.837L155.65 52.0781ZM157.525 57L156.527 56.9302L156.527 56.9305L157.525 57ZM156.103 61.0938L156.893 61.7072L156.896 61.7035L156.103 61.0938ZM152.603 63.6406L152.219 62.7175L151.358 63.0762L151.655 63.9598L152.603 63.6406ZM155.666 72.7344H156.666V72.5705L156.613 72.4152L155.666 72.7344ZM155.666 73V74H156.666V73H155.666ZM149.962 73L149.008 73.2972L149.226 74H149.962V73ZM145.212 60.7344L144.227 60.562L144.024 61.7225L145.203 61.7343L145.212 60.7344ZM148.337 60.7656L148.327 61.7656H148.337V60.7656ZM150.556 60.1406L150.008 59.3044L150.002 59.3086L150.556 60.1406ZM151.916 58.4375L152.851 58.7901L152.853 58.7857L151.916 58.4375ZM152.15 56.3281L153.136 56.1613L153.134 56.1508L152.15 56.3281ZM149.931 54.5L149.98 53.5012L149.958 53.5001L149.936 53.5L149.931 54.5ZM146.306 54.4844L146.311 53.4844L145.467 53.4807L145.321 54.312L146.306 54.4844ZM147.462 63.9688H144.494V65.9688H147.462V63.9688ZM143.509 64.7963L142.102 72.8275L144.073 73.1725L145.479 65.1412L143.509 64.7963ZM143.087 72H137.744V74H143.087V72ZM138.729 73.1705L142.667 50.4205L140.696 50.0795L136.758 72.8295L138.729 73.1705ZM141.679 51.25L149.711 51.2656L149.714 49.2656L141.683 49.25L141.679 51.25ZM149.712 51.2656C152.14 51.2656 153.851 51.8357 154.993 52.8318L156.307 51.3245C154.678 49.9039 152.431 49.2656 149.712 49.2656V51.2656ZM154.999 52.837C156.12 53.799 156.655 55.1134 156.527 56.9302L158.523 57.0698C158.687 54.72 157.972 52.7531 156.301 51.3193L154.999 52.837ZM156.527 56.9305C156.424 58.4212 156.001 59.5865 155.311 60.484L156.896 61.7035C157.872 60.4344 158.397 58.8704 158.523 57.0695L156.527 56.9305ZM155.313 60.4803C154.605 61.3923 153.59 62.146 152.219 62.7175L152.988 64.5637C154.616 63.8853 155.935 62.9411 156.893 61.7072L155.313 60.4803ZM151.655 63.9598L154.718 73.0535L156.613 72.4152L153.551 63.3215L151.655 63.9598ZM154.666 72.7344V73H156.666V72.7344H154.666ZM155.666 72H149.962V74H155.666V72ZM150.917 72.7028L148.417 64.6715L146.508 65.266L149.008 73.2972L150.917 72.7028ZM145.203 61.7343L148.328 61.7656L148.347 59.7657L145.222 59.7344L145.203 61.7343ZM148.337 61.7656C149.361 61.7656 150.3 61.5134 151.111 60.9727L150.002 59.3086C149.563 59.6012 149.022 59.7656 148.337 59.7656V61.7656ZM151.105 60.9769C151.919 60.4427 152.507 59.7047 152.851 58.7901L150.98 58.0849C150.783 58.6078 150.464 59.0052 150.008 59.3044L151.105 60.9769ZM152.853 58.7857C153.177 57.9143 153.284 57.0333 153.136 56.1613L151.164 56.495C151.246 56.9771 151.196 57.5024 150.978 58.0893L152.853 58.7857ZM153.134 56.1508C152.998 55.3942 152.666 54.7194 152.075 54.2321C151.492 53.7519 150.761 53.5396 149.98 53.5012L149.882 55.4988C150.373 55.5229 150.646 55.6465 150.803 55.7757C150.951 55.8978 151.094 56.1058 151.166 56.5054L153.134 56.1508ZM149.936 53.5L146.311 53.4844L146.302 55.4844L149.927 55.5L149.936 53.5ZM145.321 54.312L144.227 60.562L146.198 60.9068L147.291 54.6568L145.321 54.312ZM177.909 68.75L178.901 68.6224L178.789 67.75H177.909V68.75ZM170.644 68.75V67.75H170.011L169.74 68.3215L170.644 68.75ZM168.628 73V74H169.261L169.532 73.4285L168.628 73ZM162.737 73L161.854 72.532L161.076 74H162.737V73ZM174.784 50.25V49.25H174.182L173.901 49.782L174.784 50.25ZM179.816 50.25L180.799 50.0683L180.648 49.25H179.816V50.25ZM184.019 73V74H185.22L185.002 72.8183L184.019 73ZM178.456 73L177.464 73.1276L177.577 74H178.456V73ZM172.644 64.5156L171.74 64.0872L171.063 65.5156H172.644V64.5156ZM177.362 64.5156V65.5156H178.498L178.354 64.3892L177.362 64.5156ZM176.362 56.6719L177.354 56.5454L176.922 53.1566L175.459 56.2435L176.362 56.6719ZM177.909 67.75H170.644V69.75H177.909V67.75ZM169.74 68.3215L167.725 72.5715L169.532 73.4285L171.547 69.1785L169.74 68.3215ZM168.628 72H162.737V74H168.628V72ZM163.621 73.468L175.668 50.718L173.901 49.782L161.854 72.532L163.621 73.468ZM174.784 51.25H179.816V49.25H174.784V51.25ZM178.832 50.4317L183.035 73.1817L185.002 72.8183L180.799 50.0683L178.832 50.4317ZM184.019 72H178.456V74H184.019V72ZM179.448 72.8724L178.901 68.6224L176.918 68.8776L177.464 73.1276L179.448 72.8724ZM172.644 65.5156H177.362V63.5156H172.644V65.5156ZM178.354 64.3892L177.354 56.5454L175.371 56.7983L176.371 64.6421L178.354 64.3892ZM175.459 56.2435L171.74 64.0872L173.547 64.944L177.266 57.1003L175.459 56.2435ZM210.95 54.4844V55.4844H211.791L211.935 54.6553L210.95 54.4844ZM204.325 54.4844V53.4844H203.483L203.34 54.3139L204.325 54.4844ZM201.122 73V74H201.964L202.107 73.1705L201.122 73ZM195.762 73L194.777 72.8287L194.574 74H195.762V73ZM198.981 54.4844L199.966 54.6556L200.17 53.4844H198.981V54.4844ZM192.466 54.4844L191.481 54.31L191.273 55.4844H192.466V54.4844ZM193.216 50.25V49.25H192.377L192.231 50.0756L193.216 50.25ZM211.684 50.25L212.67 50.4209L212.873 49.25H211.684V50.25ZM210.95 53.4844H204.325V55.4844H210.95V53.4844ZM203.34 54.3139L200.137 72.8295L202.107 73.1705L205.31 54.6548L203.34 54.3139ZM201.122 72H195.762V74H201.122V72ZM196.748 73.1713L199.966 54.6556L197.996 54.3131L194.777 72.8287L196.748 73.1713ZM198.981 53.4844H192.466V55.4844H198.981V53.4844ZM193.45 54.6588L194.2 50.4244L192.231 50.0756L191.481 54.31L193.45 54.6588ZM193.216 51.25H211.684V49.25H193.216V51.25ZM210.699 50.0791L209.965 54.3135L211.935 54.6553L212.67 50.4209L210.699 50.0791ZM222.209 73V74H223.051L223.195 73.1705L222.209 73ZM216.866 73L215.88 72.8288L215.677 74H216.866V73ZM220.819 50.25V49.25H219.978L219.834 50.0788L220.819 50.25ZM226.147 50.25L227.132 50.4205L227.335 49.25H226.147V50.25ZM222.209 72H216.866V74H222.209V72ZM217.851 73.1712L221.804 50.4212L219.834 50.0788L215.88 72.8288L217.851 73.1712ZM220.819 51.25H226.147V49.25H220.819V51.25ZM225.162 50.0795L221.224 72.8295L223.195 73.1705L227.132 50.4205L225.162 50.0795ZM244.938 66.8438L243.956 66.6526L243.954 66.6612L244.938 66.8438ZM243.031 64.1094L243.427 63.1908L243.414 63.1856L243.031 64.1094ZM240.469 63.0469L240.059 63.959L240.072 63.965L240.086 63.9706L240.469 63.0469ZM235.344 56.4531L236.342 56.5167L236.342 56.5104L235.344 56.4531ZM236.656 53.0625L237.433 53.6922L237.436 53.6882L236.656 53.0625ZM244.625 49.9375L244.644 48.9377L244.637 48.9376L244.625 49.9375ZM250.047 51.9062L249.365 52.6381L249.368 52.6406L250.047 51.9062ZM252.078 57.0156V58.0156H253.068L253.078 57.0254L252.078 57.0156ZM246.766 57.0156L245.766 56.9799L245.729 58.0156H246.766V57.0156ZM246.203 54.9219L245.401 55.5194L245.408 55.5282L245.415 55.5369L246.203 54.9219ZM244.234 54.0938L244.211 55.0935L244.212 55.0935L244.234 54.0938ZM240.641 56.4844L241.623 56.671L241.625 56.661L241.627 56.651L240.641 56.4844ZM242.953 59.0469L242.595 59.9807L242.597 59.9814L242.953 59.0469ZM246.766 60.7656L246.248 61.6211L246.252 61.6238L246.766 60.7656ZM250.266 66.7969L251.264 66.8602L251.264 66.8585L250.266 66.7969ZM249 70.25L248.207 69.6407L249 70.25ZM245.828 72.5469L245.457 71.6184L245.454 71.6194L245.828 72.5469ZM241.297 73.3281L241.28 74.328L241.284 74.328L241.297 73.3281ZM235.172 71.1562L235.853 70.4242L235.851 70.422L235.172 71.1562ZM232.984 65.6094L232.987 64.6094L232.011 64.6065L231.985 65.5821L232.984 65.6094ZM238.344 65.625L239.342 65.6785L239.399 64.6281L238.347 64.625L238.344 65.625ZM239.016 68.2812L238.252 68.9266L238.257 68.9331L239.016 68.2812ZM243.828 68.5625L244.393 69.3878L244.396 69.3857L243.828 68.5625ZM245.919 67.0349C246.081 66.204 245.939 65.402 245.453 64.7055C244.99 64.0411 244.272 63.555 243.427 63.1909L242.636 65.0279C243.29 65.3096 243.64 65.6021 243.812 65.8492C243.962 66.0641 244.023 66.3064 243.956 66.6526L245.919 67.0349ZM243.414 63.1856L240.852 62.1231L240.086 63.9706L242.648 65.0331L243.414 63.1856ZM240.879 62.1347C239.173 61.3682 238.003 60.5014 237.282 59.5738C236.578 58.6678 236.269 57.664 236.342 56.5167L234.346 56.3896C234.242 58.0235 234.698 59.5092 235.703 60.8012C236.69 62.0716 238.171 63.1109 240.059 63.959L240.879 62.1347ZM236.342 56.5104C236.403 55.449 236.763 54.519 237.433 53.6922L235.879 52.4328C234.945 53.5852 234.43 54.9156 234.345 56.3958L236.342 56.5104ZM237.436 53.6882C238.11 52.8485 239.064 52.1664 240.347 51.6661L239.621 49.8026C238.072 50.4065 236.807 51.2765 235.876 52.4368L237.436 53.6882ZM240.347 51.6661C241.633 51.1652 243.051 50.918 244.613 50.9374L244.637 48.9376C242.845 48.9153 241.169 49.1993 239.621 49.8026L240.347 51.6661ZM244.606 50.9373C246.664 50.9754 248.217 51.5685 249.365 52.638L250.728 51.1745C249.148 49.7023 247.086 48.9829 244.644 48.9377L244.606 50.9373ZM249.368 52.6406C250.506 53.692 251.097 55.1089 251.078 57.0059L253.078 57.0254C253.101 54.6515 252.338 52.6622 250.726 51.1719L249.368 52.6406ZM252.078 56.0156H246.766V58.0156H252.078V56.0156ZM247.765 57.0513C247.802 56.0186 247.584 55.066 246.992 54.3068L245.415 55.5369C245.635 55.8194 245.792 56.2627 245.766 56.9799L247.765 57.0513ZM247.005 54.3244C246.361 53.4606 245.356 53.119 244.257 53.094L244.212 55.0935C244.946 55.1102 245.253 55.3207 245.401 55.5194L247.005 54.3244ZM244.258 53.094C243.184 53.0691 242.194 53.3207 241.322 53.8751L242.396 55.5624C242.9 55.2418 243.493 55.0768 244.211 55.0935L244.258 53.094ZM241.322 53.8751C240.419 54.4498 239.831 55.2731 239.655 56.3177L241.627 56.651C241.7 56.2164 241.924 55.8627 242.396 55.5624L241.322 53.8751ZM239.658 56.2977C239.495 57.155 239.754 57.9397 240.328 58.5762C240.865 59.1711 241.659 59.622 242.595 59.9807L243.311 58.1131C242.507 57.8051 242.047 57.4956 241.813 57.2363C241.616 57.0186 241.588 56.8555 241.623 56.671L239.658 56.2977ZM242.597 59.9814C244.336 60.6437 245.537 61.1907 246.248 61.6211L247.283 59.9101C246.411 59.3822 245.071 58.7834 243.309 58.1124L242.597 59.9814ZM246.252 61.6238C247.387 62.3028 248.163 63.066 248.643 63.8925C249.118 64.7116 249.335 65.6478 249.268 66.7353L251.264 66.8585C251.353 65.4147 251.064 64.08 250.373 62.8887C249.686 61.7048 248.634 60.718 247.279 59.9075L246.252 61.6238ZM249.268 66.7335C249.196 67.859 248.84 68.8174 248.207 69.6407L249.793 70.8593C250.681 69.7034 251.168 68.3598 251.264 66.8602L249.268 66.7335ZM248.207 69.6407C247.573 70.4655 246.673 71.132 245.457 71.6184L246.2 73.4754C247.692 72.8784 248.906 72.0136 249.793 70.8593L248.207 69.6407ZM245.454 71.6194C244.251 72.1044 242.875 72.3476 241.309 72.3282L241.284 74.328C243.073 74.3503 244.718 74.0727 246.202 73.4744L245.454 71.6194ZM241.314 72.3283C240.179 72.309 239.145 72.1317 238.202 71.8051L237.548 73.6949C238.709 74.0975 239.956 74.3055 241.28 74.328L241.314 72.3283ZM238.202 71.8051C237.27 71.4821 236.493 71.0193 235.853 70.4242L234.491 71.8883C235.351 72.689 236.376 73.2887 237.548 73.6949L238.202 71.8051ZM235.851 70.422C234.566 69.2338 233.928 67.6746 233.984 65.6366L231.985 65.5821C231.915 68.1275 232.736 70.2662 234.493 71.8905L235.851 70.422ZM232.981 66.6094L238.341 66.625L238.347 64.625L232.987 64.6094L232.981 66.6094ZM237.345 65.5715C237.275 66.8729 237.513 68.0525 238.252 68.9266L239.78 67.6359C239.497 67.3017 239.287 66.7104 239.342 65.6785L237.345 65.5715ZM238.257 68.9331C239.041 69.8449 240.252 70.1719 241.594 70.1719V68.1719C240.518 68.1719 240.011 67.9051 239.774 67.6294L238.257 68.9331ZM241.594 70.1719C242.641 70.1719 243.596 69.933 244.393 69.3878L243.263 67.7372C242.873 68.0045 242.338 68.1719 241.594 68.1719V70.1719ZM244.396 69.3857C245.22 68.8171 245.738 68.0125 245.921 67.0263L243.954 66.6612C243.867 67.1333 243.644 67.4746 243.26 67.7393L244.396 69.3857Z" fill="#FCAB10"/>
<defs>
<clipPath id="clip0">
<rect width="33" height="19" fill="white" transform="translate(162 17)"/>
</clipPath>
<clipPath id="clip1">
<rect width="23" height="23" fill="white" transform="translate(115 15)"/>
</clipPath>
</defs>
</svg>
