<svg width="277" height="75" viewBox="0 0 277 75" fill="none" xmlns="http://www.w3.org/2000/svg">
<rect x="0.5" y="0.671814" width="276" height="74" rx="10" fill="#222222"/>
<rect width="208" height="28" transform="translate(30.5 6.67181)" fill="#222222"/>
<path d="M35.5583 19.8765H37.9508V21.9042H35.5583V24.6475H33.3483V21.9042H30.9488V19.8765H33.3483V17.2104H35.5583V19.8765ZM48.7556 21.6797H49.794V23.5038H48.7556V25.6718H46.3912V23.5038H42.4411L42.3008 22.0585L46.3912 15.4774V15.4564H48.7556V21.6797ZM44.5529 21.6797H46.3912V18.5365L46.2438 18.775L44.5529 21.6797ZM62.921 24.4089C62.5422 24.8299 61.9879 25.169 61.2582 25.4263C60.5286 25.6835 59.7287 25.8121 58.8587 25.8121C57.521 25.8121 56.4522 25.4029 55.6524 24.5843C54.8526 23.7658 54.4246 22.6268 54.3684 21.1675L54.3614 20.2835C54.3614 19.2778 54.5392 18.4008 54.8946 17.6524C55.2501 16.8994 55.7576 16.3217 56.4171 15.9195C57.0813 15.5125 57.8484 15.3091 58.7184 15.3091C59.9907 15.3091 60.9776 15.6014 61.6792 16.1861C62.3855 16.7661 62.7971 17.6337 62.914 18.789H60.5426C60.4584 18.2184 60.276 17.8115 59.9953 17.5682C59.7147 17.325 59.3171 17.2034 58.8026 17.2034C58.1852 17.2034 57.7081 17.4653 57.3713 17.9892C57.0346 18.5131 56.8638 19.2615 56.8591 20.2344V20.8518C56.8591 21.8714 57.0322 22.6385 57.3783 23.153C57.7291 23.6629 58.2787 23.9178 59.0271 23.9178C59.6679 23.9178 60.145 23.7751 60.4584 23.4898V21.9042H58.7465V20.2133H62.921V24.4089ZM66.9763 25.6718H64.5207V15.4564H66.9763V25.6718ZM77.0514 24.4089C76.6726 24.8299 76.1183 25.169 75.3886 25.4263C74.6589 25.6835 73.8591 25.8121 72.9891 25.8121C71.6514 25.8121 70.5826 25.4029 69.7828 24.5843C68.9829 23.7658 68.555 22.6268 68.4988 21.1675L68.4918 20.2835C68.4918 19.2778 68.6695 18.4008 69.025 17.6524C69.3805 16.8994 69.888 16.3217 70.5475 15.9195C71.2117 15.5125 71.9788 15.3091 72.8488 15.3091C74.121 15.3091 75.108 15.6014 75.8096 16.1861C76.5159 16.7661 76.9275 17.6337 77.0444 18.789H74.673C74.5888 18.2184 74.4064 17.8115 74.1257 17.5682C73.8451 17.325 73.4475 17.2034 72.933 17.2034C72.3156 17.2034 71.8385 17.4653 71.5017 17.9892C71.1649 18.5131 70.9942 19.2615 70.9895 20.2344V20.8518C70.9895 21.8714 71.1626 22.6385 71.5087 23.153C71.8595 23.6629 72.4091 23.9178 73.1575 23.9178C73.7983 23.9178 74.2754 23.7751 74.5888 23.4898V21.9042H72.8769V20.2133H77.0514V24.4089ZM84.285 23.7634H80.9103L80.3209 25.6718H77.6899L81.4365 15.4564H83.7518L87.5264 25.6718H84.8814L84.285 23.7634ZM81.4996 21.8621H83.6957L82.5941 18.319L81.4996 21.8621ZM93.5462 22.9566C93.5462 22.5964 93.4176 22.3158 93.1603 22.1147C92.9078 21.9135 92.4611 21.7054 91.8203 21.4902C91.1795 21.2751 90.6556 21.0669 90.2487 20.8658C88.925 20.2156 88.2631 19.3223 88.2631 18.1857C88.2631 17.6197 88.4268 17.1216 88.7542 16.6912C89.0863 16.2562 89.5541 15.9195 90.1575 15.6809C90.7608 15.4377 91.4391 15.3161 92.1921 15.3161C92.9265 15.3161 93.5837 15.447 94.1636 15.709C94.7483 15.9709 95.202 16.3451 95.5248 16.8316C95.8475 17.3133 96.0089 17.8653 96.0089 18.4873H93.5532C93.5532 18.0711 93.4246 17.7483 93.1674 17.5191C92.9148 17.2899 92.571 17.1753 92.136 17.1753C91.6963 17.1753 91.3479 17.2736 91.0906 17.47C90.838 17.6618 90.7117 17.9074 90.7117 18.2067C90.7117 18.4686 90.8521 18.7072 91.1327 18.9223C91.4133 19.1328 91.9068 19.3527 92.6131 19.5819C93.3194 19.8064 93.8994 20.0496 94.3531 20.3115C95.4569 20.9477 96.0089 21.8247 96.0089 22.9426C96.0089 23.8359 95.6721 24.5375 94.9986 25.0474C94.325 25.5572 93.4012 25.8121 92.2272 25.8121C91.3993 25.8121 90.6486 25.6648 89.975 25.3701C89.3062 25.0708 88.801 24.6638 88.4596 24.1493C88.1228 23.6301 87.9544 23.0338 87.9544 22.3602H90.4241C90.4241 22.9075 90.5644 23.3121 90.845 23.574C91.1304 23.8313 91.5911 23.9599 92.2272 23.9599C92.6341 23.9599 92.9545 23.8734 93.1884 23.7003C93.427 23.5226 93.5462 23.2747 93.5462 22.9566Z" fill="white"/>
<path d="M172.471 13.6209H168.673V16.7268H173.085V17.6718H167.517V8.90779H173.025V9.85883H168.673V12.6758H172.471V13.6209ZM176.534 13.5366L177.979 11.159H179.279L177.148 14.3793L179.345 17.6718H178.057L176.552 15.234L175.047 17.6718H173.753L175.95 14.3793L173.819 11.159H175.108L176.534 13.5366ZM182.957 16.8833C183.354 16.8833 183.701 16.7629 183.998 16.5221C184.295 16.2814 184.459 15.9804 184.492 15.6193H185.545C185.525 15.9924 185.396 16.3476 185.16 16.6847C184.923 17.0217 184.606 17.2906 184.209 17.4912C183.815 17.6919 183.398 17.7922 182.957 17.7922C182.07 17.7922 181.364 17.4973 180.838 16.9074C180.316 16.3135 180.055 15.5029 180.055 14.4756V14.289C180.055 13.655 180.172 13.0912 180.404 12.5976C180.637 12.104 180.97 11.7208 181.404 11.4479C181.841 11.175 182.357 11.0386 182.951 11.0386C183.681 11.0386 184.287 11.2573 184.768 11.6947C185.254 12.1321 185.513 12.6999 185.545 13.3981H184.492C184.459 12.9768 184.299 12.6317 184.01 12.3628C183.725 12.09 183.372 11.9535 182.951 11.9535C182.385 11.9535 181.945 12.1582 181.632 12.5675C181.323 12.9728 181.169 13.5607 181.169 14.3311V14.5418C181.169 15.2922 181.323 15.8701 181.632 16.2753C181.941 16.6806 182.383 16.8833 182.957 16.8833ZM188.007 17.6718H186.893V8.42625H188.007V17.6718ZM193.815 17.0278C193.382 17.5374 192.746 17.7922 191.907 17.7922C191.213 17.7922 190.683 17.5916 190.318 17.1903C189.957 16.785 189.774 16.1871 189.77 15.3965V11.159H190.884V15.3664C190.884 16.3536 191.285 16.8472 192.088 16.8472C192.939 16.8472 193.504 16.5302 193.785 15.8961V11.159H194.899V17.6718H193.839L193.815 17.0278ZM200.388 15.9443C200.388 15.6433 200.274 15.4106 200.045 15.2461C199.821 15.0775 199.425 14.9331 198.859 14.8127C198.298 14.6923 197.85 14.5478 197.517 14.3793C197.188 14.2107 196.943 14.0101 196.783 13.7774C196.626 13.5446 196.548 13.2677 196.548 12.9467C196.548 12.413 196.773 11.9616 197.222 11.5924C197.676 11.2232 198.254 11.0386 198.956 11.0386C199.694 11.0386 200.292 11.2292 200.75 11.6104C201.211 11.9916 201.442 12.4792 201.442 13.0731H200.322C200.322 12.7681 200.192 12.5053 199.931 12.2846C199.674 12.0639 199.349 11.9535 198.956 11.9535C198.55 11.9535 198.233 12.0418 198.005 12.2184C197.776 12.3949 197.662 12.6257 197.662 12.9106C197.662 13.1794 197.768 13.3821 197.981 13.5185C198.193 13.655 198.577 13.7854 199.13 13.9098C199.688 14.0342 200.14 14.1827 200.485 14.3552C200.83 14.5278 201.085 14.7364 201.249 14.9812C201.418 15.222 201.502 15.5169 201.502 15.866C201.502 16.4479 201.269 16.9154 200.804 17.2685C200.338 17.6176 199.734 17.7922 198.992 17.7922C198.47 17.7922 198.009 17.6999 197.607 17.5153C197.206 17.3307 196.891 17.0739 196.662 16.7448C196.438 16.4118 196.325 16.0526 196.325 15.6674H197.439C197.459 16.0406 197.607 16.3375 197.884 16.5583C198.165 16.7749 198.534 16.8833 198.992 16.8833C199.413 16.8833 199.75 16.799 200.003 16.6305C200.26 16.4579 200.388 16.2292 200.388 15.9443ZM204.162 17.6718H203.049V11.159H204.162V17.6718ZM202.959 9.43146C202.959 9.25088 203.013 9.0984 203.121 8.974C203.233 8.8496 203.398 8.7874 203.615 8.7874C203.831 8.7874 203.996 8.8496 204.108 8.974C204.221 9.0984 204.277 9.25088 204.277 9.43146C204.277 9.61204 204.221 9.76252 204.108 9.88291C203.996 10.0033 203.831 10.0635 203.615 10.0635C203.398 10.0635 203.233 10.0033 203.121 9.88291C203.013 9.76252 202.959 9.61204 202.959 9.43146ZM208.099 16.161L209.712 11.159H210.85L208.514 17.6718H207.666L205.306 11.159H206.444L208.099 16.161ZM211.53 14.3552C211.53 13.7172 211.654 13.1433 211.903 12.6337C212.156 12.1241 212.505 11.7308 212.951 11.4539C213.4 11.177 213.912 11.0386 214.485 11.0386C215.372 11.0386 216.089 11.3456 216.634 11.9595C217.184 12.5735 217.459 13.3901 217.459 14.4094V14.4876C217.459 15.1217 217.337 15.6915 217.092 16.1971C216.851 16.6987 216.504 17.09 216.05 17.3709C215.601 17.6517 215.083 17.7922 214.497 17.7922C213.615 17.7922 212.898 17.4852 212.349 16.8713C211.803 16.2573 211.53 15.4447 211.53 14.4335V14.3552ZM212.65 14.4876C212.65 15.2099 212.816 15.7898 213.149 16.2272C213.486 16.6646 213.936 16.8833 214.497 16.8833C215.063 16.8833 215.513 16.6626 215.846 16.2212C216.179 15.7758 216.345 15.1538 216.345 14.3552C216.345 13.6409 216.175 13.0631 215.834 12.6217C215.497 12.1762 215.047 11.9535 214.485 11.9535C213.936 11.9535 213.492 12.1722 213.155 12.6096C212.818 13.047 212.65 13.673 212.65 14.4876Z" fill="white"/>
<path d="M173.031 28.4756C173.031 29.4788 172.802 30.2834 172.345 30.8893C171.891 31.4912 171.277 31.7922 170.503 31.7922C169.845 31.7922 169.313 31.5635 168.908 31.106V34.1758H167.168V25.159H168.781L168.841 25.797C169.263 25.2914 169.813 25.0386 170.491 25.0386C171.293 25.0386 171.917 25.3356 172.363 25.9295C172.808 26.5233 173.031 27.342 173.031 28.3853V28.4756ZM171.291 28.3492C171.291 27.7433 171.183 27.2758 170.966 26.9467C170.754 26.6177 170.443 26.4531 170.033 26.4531C169.488 26.4531 169.112 26.6618 168.908 27.0791V29.7457C169.12 30.175 169.5 30.3897 170.045 30.3897C170.876 30.3897 171.291 29.7095 171.291 28.3492ZM177.888 31.6718C177.808 31.5153 177.75 31.3207 177.714 31.0879C177.293 31.5574 176.745 31.7922 176.071 31.7922C175.433 31.7922 174.903 31.6076 174.482 31.2384C174.064 30.8692 173.856 30.4038 173.856 29.842C173.856 29.1518 174.11 28.6221 174.62 28.2529C175.134 27.8837 175.874 27.6971 176.841 27.6931H177.642V27.3199C177.642 27.0189 177.563 26.7782 177.407 26.5976C177.254 26.417 177.012 26.3267 176.679 26.3267C176.386 26.3267 176.155 26.3969 175.986 26.5374C175.822 26.6778 175.74 26.8705 175.74 27.1152H174C174 26.738 174.116 26.3889 174.349 26.0679C174.582 25.7469 174.911 25.4961 175.336 25.3155C175.762 25.1309 176.239 25.0386 176.769 25.0386C177.571 25.0386 178.207 25.2412 178.677 25.6465C179.15 26.0478 179.387 26.6136 179.387 27.344V30.167C179.391 30.785 179.478 31.2525 179.646 31.5695V31.6718H177.888ZM176.45 30.4619C176.707 30.4619 176.943 30.4058 177.16 30.2934C177.377 30.177 177.537 30.0225 177.642 29.8299V28.7103H176.992C176.121 28.7103 175.657 29.0113 175.601 29.6132L175.595 29.7156C175.595 29.9323 175.671 30.1108 175.824 30.2513C175.976 30.3917 176.185 30.4619 176.45 30.4619ZM184.383 26.7902C184.146 26.7581 183.938 26.742 183.757 26.742C183.099 26.742 182.668 26.9648 182.463 27.4102V31.6718H180.723V25.159H182.367L182.415 25.9355C182.764 25.3376 183.248 25.0386 183.866 25.0386C184.058 25.0386 184.239 25.0647 184.407 25.1169L184.383 26.7902ZM188.819 31.6718C188.739 31.5153 188.681 31.3207 188.645 31.0879C188.223 31.5574 187.676 31.7922 187.002 31.7922C186.364 31.7922 185.834 31.6076 185.412 31.2384C184.995 30.8692 184.786 30.4038 184.786 29.842C184.786 29.1518 185.041 28.6221 185.551 28.2529C186.065 27.8837 186.805 27.6971 187.772 27.6931H188.573V27.3199C188.573 27.0189 188.494 26.7782 188.338 26.5976C188.185 26.417 187.943 26.3267 187.61 26.3267C187.317 26.3267 187.086 26.3969 186.917 26.5374C186.753 26.6778 186.671 26.8705 186.671 27.1152H184.931C184.931 26.738 185.047 26.3889 185.28 26.0679C185.513 25.7469 185.842 25.4961 186.267 25.3155C186.693 25.1309 187.17 25.0386 187.7 25.0386C188.502 25.0386 189.138 25.2412 189.608 25.6465C190.081 26.0478 190.318 26.6136 190.318 27.344V30.167C190.322 30.785 190.408 31.2525 190.577 31.5695V31.6718H188.819ZM187.381 30.4619C187.638 30.4619 187.874 30.4058 188.091 30.2934C188.308 30.177 188.468 30.0225 188.573 29.8299V28.7103H187.923C187.052 28.7103 186.588 29.0113 186.532 29.6132L186.526 29.7156C186.526 29.9323 186.602 30.1108 186.755 30.2513C186.907 30.3917 187.116 30.4619 187.381 30.4619ZM198.384 26.7902C198.147 26.7581 197.939 26.742 197.758 26.742C197.1 26.742 196.668 26.9648 196.464 27.4102V31.6718H194.724V25.159H196.368L196.416 25.9355C196.765 25.3376 197.248 25.0386 197.866 25.0386C198.059 25.0386 198.239 25.0647 198.408 25.1169L198.384 26.7902ZM202.104 31.7922C201.149 31.7922 200.37 31.4993 199.768 30.9134C199.17 30.3275 198.872 29.547 198.872 28.5719V28.4034C198.872 27.7493 198.998 27.1654 199.251 26.6518C199.504 26.1341 199.861 25.7368 200.322 25.4599C200.788 25.1791 201.317 25.0386 201.911 25.0386C202.802 25.0386 203.502 25.3195 204.012 25.8813C204.526 26.4431 204.782 27.2396 204.782 28.2709V28.9812H200.635C200.691 29.4066 200.86 29.7477 201.141 30.0045C201.426 30.2613 201.785 30.3897 202.218 30.3897C202.888 30.3897 203.412 30.1469 203.789 29.6614L204.644 30.6184C204.383 30.9876 204.03 31.2765 203.585 31.4852C203.139 31.6899 202.646 31.7922 202.104 31.7922ZM201.905 26.4471C201.56 26.4471 201.279 26.5635 201.063 26.7962C200.85 27.029 200.713 27.362 200.653 27.7954H203.073V27.657C203.065 27.2717 202.961 26.9748 202.76 26.7661C202.559 26.5534 202.274 26.4471 201.905 26.4471ZM205.505 28.3672C205.505 27.352 205.731 26.5434 206.185 25.9415C206.642 25.3396 207.266 25.0386 208.057 25.0386C208.691 25.0386 209.215 25.2754 209.628 25.7489V22.4262H211.374V31.6718H209.802L209.718 30.9796C209.285 31.5213 208.727 31.7922 208.045 31.7922C207.278 31.7922 206.662 31.4912 206.197 30.8893C205.735 30.2834 205.505 29.4427 205.505 28.3672ZM207.244 28.4937C207.244 29.1036 207.351 29.5711 207.563 29.8961C207.776 30.2212 208.085 30.3837 208.49 30.3837C209.028 30.3837 209.407 30.157 209.628 29.7035V27.1333C209.411 26.6799 209.036 26.4531 208.502 26.4531C207.664 26.4531 207.244 27.1333 207.244 28.4937ZM215.719 31.7922C214.764 31.7922 213.986 31.4993 213.384 30.9134C212.786 30.3275 212.487 29.547 212.487 28.5719V28.4034C212.487 27.7493 212.613 27.1654 212.866 26.6518C213.119 26.1341 213.476 25.7368 213.938 25.4599C214.403 25.1791 214.933 25.0386 215.527 25.0386C216.418 25.0386 217.118 25.3195 217.628 25.8813C218.141 26.4431 218.398 27.2396 218.398 28.2709V28.9812H214.251C214.307 29.4066 214.475 29.7477 214.756 30.0045C215.041 30.2613 215.4 30.3897 215.834 30.3897C216.504 30.3897 217.028 30.1469 217.405 29.6614L218.26 30.6184C217.999 30.9876 217.646 31.2765 217.2 31.4852C216.755 31.6899 216.261 31.7922 215.719 31.7922ZM215.521 26.4471C215.176 26.4471 214.895 26.5635 214.678 26.7962C214.465 27.029 214.329 27.362 214.269 27.7954H216.688V27.657C216.68 27.2717 216.576 26.9748 216.375 26.7661C216.175 26.5534 215.89 26.4471 215.521 26.4471ZM222.918 29.8721C222.918 29.6594 222.812 29.4928 222.599 29.3725C222.391 29.2481 222.054 29.1377 221.588 29.0414C220.039 28.7164 219.265 28.0583 219.265 27.0671C219.265 26.4892 219.504 26.0077 219.981 25.6225C220.463 25.2332 221.091 25.0386 221.865 25.0386C222.692 25.0386 223.352 25.2332 223.845 25.6225C224.343 26.0117 224.592 26.5173 224.592 27.1393H222.852C222.852 26.8905 222.772 26.6859 222.611 26.5254C222.451 26.3608 222.2 26.2786 221.859 26.2786C221.566 26.2786 221.339 26.3448 221.179 26.4772C221.018 26.6096 220.938 26.7782 220.938 26.9828C220.938 27.1754 221.028 27.3319 221.209 27.4523C221.394 27.5687 221.703 27.671 222.136 27.7593C222.569 27.8436 222.934 27.9399 223.231 28.0482C224.15 28.3853 224.61 28.9692 224.61 29.7998C224.61 30.3937 224.355 30.8753 223.845 31.2444C223.336 31.6096 222.678 31.7922 221.871 31.7922C221.325 31.7922 220.84 31.6959 220.414 31.5033C219.993 31.3066 219.662 31.0398 219.421 30.7027C219.18 30.3616 219.06 29.9944 219.06 29.6012H220.709C220.725 29.9102 220.84 30.1469 221.052 30.3115C221.265 30.476 221.55 30.5583 221.907 30.5583C222.24 30.5583 222.491 30.4961 222.66 30.3717C222.832 30.2432 222.918 30.0767 222.918 29.8721Z" fill="#EE392A"/>
<rect width="208" height="28" transform="translate(30.5 40.6718)" fill="#222222"/>
<path d="M36.2373 53.8765H38.6297V55.9042H36.2373V58.6475H34.0272V55.9042H31.6277V53.8765H34.0272V51.2104H36.2373V53.8765ZM48.4312 59.6718H46.0598V52.1225L43.7304 52.8031V51.007L48.2137 49.4564H48.4312V59.6718ZM51.6516 54.6764L52.276 49.4564H58.2467V51.2946H54.1984L53.9669 53.3223C54.1353 53.224 54.3551 53.1375 54.6264 53.0627C54.9024 52.9878 55.1713 52.9504 55.4332 52.9504C56.4482 52.9504 57.227 53.2521 57.7696 53.8555C58.3169 54.4542 58.5905 55.2961 58.5905 56.3813C58.5905 57.0361 58.4431 57.6301 58.1485 58.1634C57.8585 58.6919 57.4492 59.0988 56.9207 59.3842C56.3921 59.6695 55.7677 59.8121 55.0474 59.8121C54.4066 59.8121 53.8055 59.6812 53.2442 59.4192C52.6829 59.1526 52.2433 58.7901 51.9252 58.3317C51.6071 57.8687 51.4505 57.3472 51.4551 56.7672H53.8266C53.85 57.1413 53.9692 57.4384 54.1844 57.6582C54.3995 57.878 54.6825 57.988 55.0333 57.988C55.8285 57.988 56.2261 57.3986 56.2261 56.2199C56.2261 55.1301 55.7396 54.5852 54.7667 54.5852C54.2148 54.5852 53.8032 54.7629 53.5319 55.1184L51.6516 54.6764ZM71.921 58.4089C71.5422 58.8299 70.9879 59.169 70.2582 59.4263C69.5286 59.6835 68.7287 59.8121 67.8587 59.8121C66.521 59.8121 65.4522 59.4029 64.6524 58.5843C63.8525 57.7658 63.4246 56.6268 63.3684 55.1675L63.3614 54.2835C63.3614 53.2778 63.5392 52.4008 63.8946 51.6524C64.2501 50.8994 64.7576 50.3217 65.4171 49.9195C66.0813 49.5125 66.8484 49.3091 67.7184 49.3091C68.9907 49.3091 69.9776 49.6014 70.6792 50.1861C71.3855 50.7661 71.7971 51.6337 71.914 52.789H69.5426C69.4584 52.2184 69.276 51.8115 68.9953 51.5682C68.7147 51.325 68.3171 51.2034 67.8026 51.2034C67.1852 51.2034 66.7081 51.4653 66.3713 51.9892C66.0345 52.5131 65.8638 53.2615 65.8591 54.2344V54.8518C65.8591 55.8714 66.0322 56.6385 66.3783 57.153C66.7291 57.6629 67.2787 57.9178 68.0271 57.9178C68.6679 57.9178 69.145 57.7751 69.4584 57.4898V55.9042H67.7465V54.2133H71.921V58.4089ZM75.9763 59.6718H73.5207V49.4564H75.9763V59.6718ZM86.0514 58.4089C85.6726 58.8299 85.1183 59.169 84.3886 59.4263C83.6589 59.6835 82.8591 59.8121 81.9891 59.8121C80.6514 59.8121 79.5826 59.4029 78.7828 58.5843C77.9829 57.7658 77.5549 56.6268 77.4988 55.1675L77.4918 54.2835C77.4918 53.2778 77.6695 52.4008 78.025 51.6524C78.3805 50.8994 78.888 50.3217 79.5475 49.9195C80.2117 49.5125 80.9788 49.3091 81.8488 49.3091C83.121 49.3091 84.108 49.6014 84.8096 50.1861C85.5159 50.7661 85.9275 51.6337 86.0444 52.789H83.673C83.5888 52.2184 83.4064 51.8115 83.1257 51.5682C82.8451 51.325 82.4475 51.2034 81.933 51.2034C81.3156 51.2034 80.8385 51.4653 80.5017 51.9892C80.1649 52.5131 79.9942 53.2615 79.9895 54.2344V54.8518C79.9895 55.8714 80.1626 56.6385 80.5087 57.153C80.8595 57.6629 81.4091 57.9178 82.1575 57.9178C82.7983 57.9178 83.2754 57.7751 83.5888 57.4898V55.9042H81.8769V54.2133H86.0514V58.4089ZM93.285 57.7634H89.9103L89.3209 59.6718H86.6899L90.4365 49.4564H92.7518L96.5264 59.6718H93.8814L93.285 57.7634ZM90.4996 55.8621H92.6956L91.5941 52.319L90.4996 55.8621ZM102.546 56.9566C102.546 56.5964 102.418 56.3158 102.16 56.1147C101.908 55.9135 101.461 55.7054 100.82 55.4902C100.179 55.2751 99.6556 55.0669 99.2487 54.8658C97.925 54.2156 97.2631 53.3223 97.2631 52.1857C97.2631 51.6197 97.4268 51.1216 97.7542 50.6912C98.0863 50.2562 98.5541 49.9195 99.1575 49.6809C99.7608 49.4377 100.439 49.3161 101.192 49.3161C101.926 49.3161 102.584 49.447 103.164 49.709C103.748 49.9709 104.202 50.3451 104.525 50.8316C104.847 51.3133 105.009 51.8653 105.009 52.4873H102.553C102.553 52.0711 102.425 51.7483 102.167 51.5191C101.915 51.2899 101.571 51.1753 101.136 51.1753C100.696 51.1753 100.348 51.2736 100.091 51.47C99.838 51.6618 99.7117 51.9074 99.7117 52.2067C99.7117 52.4686 99.852 52.7072 100.133 52.9223C100.413 53.1328 100.907 53.3527 101.613 53.5819C102.319 53.8064 102.899 54.0496 103.353 54.3115C104.457 54.9477 105.009 55.8247 105.009 56.9426C105.009 57.8359 104.672 58.5375 103.999 59.0474C103.325 59.5572 102.401 59.8121 101.227 59.8121C100.399 59.8121 99.6486 59.6648 98.975 59.3701C98.3062 59.0708 97.801 58.6638 97.4596 58.1493C97.1228 57.6301 96.9544 57.0338 96.9544 56.3602H99.4241C99.4241 56.9075 99.5644 57.3121 99.845 57.574C100.13 57.8313 100.591 57.9599 101.227 57.9599C101.634 57.9599 101.955 57.8734 102.188 57.7003C102.427 57.5226 102.546 57.2747 102.546 56.9566Z" fill="white"/>
<path d="M167.517 51.6718V42.9078H169.991C170.754 42.9078 171.428 43.0763 172.014 43.4134C172.6 43.7505 173.051 44.23 173.368 44.852C173.689 45.474 173.852 46.1883 173.856 46.9949V47.5546C173.856 48.3813 173.695 49.1056 173.374 49.7276C173.057 50.3496 172.602 50.8271 172.008 51.1602C171.418 51.4932 170.73 51.6638 169.943 51.6718H167.517ZM168.673 43.8588V50.7268H169.889C170.78 50.7268 171.472 50.4499 171.965 49.8961C172.463 49.3424 172.712 48.5538 172.712 47.5306V47.0189C172.712 46.0238 172.477 45.2513 172.008 44.7015C171.542 44.1478 170.88 43.8669 170.021 43.8588H168.673ZM178.135 51.7922C177.252 51.7922 176.534 51.5033 175.98 50.9254C175.427 50.3436 175.15 49.5671 175.15 48.596V48.3913C175.15 47.7453 175.272 47.1694 175.517 46.6638C175.766 46.1542 176.111 45.7569 176.552 45.472C176.998 45.1831 177.479 45.0386 177.997 45.0386C178.843 45.0386 179.502 45.3175 179.971 45.8753C180.441 46.4331 180.675 47.2316 180.675 48.2709V48.7344H176.263C176.279 49.3765 176.466 49.8961 176.823 50.2934C177.184 50.6867 177.642 50.8833 178.195 50.8833C178.589 50.8833 178.922 50.803 179.195 50.6425C179.467 50.482 179.706 50.2693 179.911 50.0045L180.591 50.5342C180.045 51.3729 179.227 51.7922 178.135 51.7922ZM177.997 45.9535C177.547 45.9535 177.17 46.1181 176.865 46.4471C176.56 46.7721 176.372 47.2296 176.299 47.8195H179.562V47.7352C179.53 47.1694 179.377 46.732 179.104 46.423C178.831 46.11 178.462 45.9535 177.997 45.9535ZM188.175 46.1582C188.007 46.1301 187.824 46.116 187.628 46.116C186.897 46.116 186.402 46.427 186.141 47.049V51.6718H185.027V45.159H186.111L186.129 45.9114C186.494 45.3295 187.012 45.0386 187.682 45.0386C187.898 45.0386 188.063 45.0667 188.175 45.1229V46.1582ZM191.787 51.7922C190.904 51.7922 190.186 51.5033 189.632 50.9254C189.078 50.3436 188.801 49.5671 188.801 48.596V48.3913C188.801 47.7453 188.924 47.1694 189.168 46.6638C189.417 46.1542 189.762 45.7569 190.204 45.472C190.649 45.1831 191.131 45.0386 191.648 45.0386C192.495 45.0386 193.153 45.3175 193.623 45.8753C194.092 46.4331 194.327 47.2316 194.327 48.2709V48.7344H189.915C189.931 49.3765 190.118 49.8961 190.475 50.2934C190.836 50.6867 191.293 50.8833 191.847 50.8833C192.24 50.8833 192.573 50.803 192.846 50.6425C193.119 50.482 193.358 50.2693 193.563 50.0045L194.243 50.5342C193.697 51.3729 192.878 51.7922 191.787 51.7922ZM191.648 45.9535C191.199 45.9535 190.822 46.1181 190.517 46.4471C190.212 46.7721 190.023 47.2296 189.951 47.8195H193.213V47.7352C193.181 47.1694 193.029 46.732 192.756 46.423C192.483 46.11 192.114 45.9535 191.648 45.9535ZM195.356 48.3612C195.356 47.346 195.591 46.5394 196.061 45.9415C196.53 45.3396 197.152 45.0386 197.926 45.0386C198.721 45.0386 199.341 45.3195 199.786 45.8813L199.841 45.159H200.858V51.5153C200.858 52.358 200.607 53.0221 200.105 53.5077C199.608 53.9932 198.938 54.236 198.095 54.236C197.626 54.236 197.166 54.1357 196.717 53.9351C196.267 53.7344 195.924 53.4595 195.687 53.1104L196.265 52.4423C196.743 53.0322 197.327 53.3271 198.017 53.3271C198.559 53.3271 198.98 53.1746 199.281 52.8696C199.586 52.5647 199.738 52.1353 199.738 51.5815V51.0217C199.293 51.5354 198.685 51.7922 197.914 51.7922C197.152 51.7922 196.534 51.4852 196.061 50.8713C195.591 50.2573 195.356 49.4206 195.356 48.3612ZM196.476 48.4876C196.476 49.222 196.626 49.7998 196.927 50.2212C197.228 50.6385 197.65 50.8472 198.191 50.8472C198.894 50.8472 199.409 50.5282 199.738 49.8901V46.9166C199.397 46.2946 198.886 45.9836 198.203 45.9836C197.662 45.9836 197.238 46.1943 196.933 46.6156C196.628 47.037 196.476 47.661 196.476 48.4876ZM206.564 51.6718C206.5 51.5434 206.448 51.3147 206.408 50.9856C205.89 51.5233 205.272 51.7922 204.554 51.7922C203.912 51.7922 203.384 51.6116 202.971 51.2505C202.561 50.8853 202.357 50.4238 202.357 49.866C202.357 49.1879 202.613 48.6622 203.127 48.289C203.645 47.9118 204.371 47.7232 205.306 47.7232H206.39V47.2116C206.39 46.8223 206.273 46.5133 206.04 46.2846C205.808 46.0518 205.465 45.9355 205.011 45.9355C204.614 45.9355 204.281 46.0358 204.012 46.2364C203.743 46.4371 203.609 46.6799 203.609 46.9648H202.489C202.489 46.6397 202.603 46.3267 202.832 46.0258C203.065 45.7208 203.378 45.48 203.771 45.3034C204.168 45.1269 204.604 45.0386 205.077 45.0386C205.828 45.0386 206.416 45.2272 206.841 45.6044C207.266 45.9776 207.487 46.4933 207.503 47.1514V50.1489C207.503 50.7469 207.579 51.2224 207.732 51.5755V51.6718H206.564ZM204.716 50.8231C205.065 50.8231 205.396 50.7328 205.709 50.5522C206.022 50.3717 206.249 50.1369 206.39 49.848V48.5117H205.517C204.152 48.5117 203.47 48.911 203.47 49.7095C203.47 50.0587 203.587 50.3315 203.819 50.5282C204.052 50.7248 204.351 50.8231 204.716 50.8231ZM210.459 51.6718H209.345V42.4262H210.459V51.6718ZM211.951 48.3552C211.951 47.7172 212.076 47.1433 212.325 46.6337C212.577 46.1241 212.926 45.7308 213.372 45.4539C213.821 45.177 214.333 45.0386 214.907 45.0386C215.794 45.0386 216.51 45.3456 217.056 45.9595C217.605 46.5735 217.88 47.3901 217.88 48.4094V48.4876C217.88 49.1217 217.758 49.6915 217.513 50.1971C217.272 50.6987 216.925 51.09 216.472 51.3709C216.022 51.6517 215.505 51.7922 214.919 51.7922C214.036 51.7922 213.32 51.4852 212.77 50.8713C212.224 50.2573 211.951 49.4447 211.951 48.4335V48.3552ZM213.071 48.4876C213.071 49.2099 213.237 49.7898 213.571 50.2272C213.908 50.6646 214.357 50.8833 214.919 50.8833C215.485 50.8833 215.934 50.6626 216.267 50.2212C216.6 49.7758 216.767 49.1538 216.767 48.3552C216.767 47.6409 216.596 47.0631 216.255 46.6217C215.918 46.1762 215.469 45.9535 214.907 45.9535C214.357 45.9535 213.914 46.1722 213.577 46.6096C213.239 47.047 213.071 47.673 213.071 48.4876Z" fill="white"/>
<path d="M173.031 62.4756C173.031 63.4788 172.802 64.2834 172.345 64.8893C171.891 65.4912 171.277 65.7922 170.503 65.7922C169.845 65.7922 169.313 65.5635 168.908 65.106V68.1758H167.168V59.159H168.781L168.841 59.797C169.263 59.2914 169.813 59.0386 170.491 59.0386C171.293 59.0386 171.917 59.3356 172.363 59.9295C172.808 60.5233 173.031 61.342 173.031 62.3853V62.4756ZM171.291 62.3492C171.291 61.7433 171.183 61.2758 170.966 60.9467C170.754 60.6177 170.443 60.4531 170.033 60.4531C169.488 60.4531 169.112 60.6618 168.908 61.0791V63.7457C169.12 64.175 169.5 64.3897 170.045 64.3897C170.876 64.3897 171.291 63.7095 171.291 62.3492ZM173.843 62.3552C173.843 61.7091 173.968 61.1333 174.217 60.6277C174.465 60.1221 174.823 59.7308 175.288 59.4539C175.758 59.177 176.301 59.0386 176.919 59.0386C177.798 59.0386 178.514 59.3075 179.068 59.8452C179.626 60.3829 179.937 61.1132 180.001 62.0362L180.013 62.4816C180.013 63.4808 179.734 64.2834 179.177 64.8893C178.619 65.4912 177.87 65.7922 176.931 65.7922C175.992 65.7922 175.242 65.4912 174.68 64.8893C174.122 64.2874 173.843 63.4688 173.843 62.4335V62.3552ZM175.583 62.4816C175.583 63.0996 175.699 63.5731 175.932 63.9022C176.165 64.2272 176.498 64.3897 176.931 64.3897C177.353 64.3897 177.682 64.2292 177.919 63.9082C178.155 63.5831 178.274 63.0655 178.274 62.3552C178.274 61.7493 178.155 61.2798 177.919 60.9467C177.682 60.6136 177.349 60.4471 176.919 60.4471C176.494 60.4471 176.165 60.6136 175.932 60.9467C175.699 61.2758 175.583 61.7874 175.583 62.4816ZM184.744 60.7902C184.508 60.7581 184.299 60.742 184.118 60.742C183.46 60.742 183.029 60.9648 182.824 61.4102V65.6718H181.085V59.159H182.728L182.776 59.9355C183.125 59.3376 183.609 59.0386 184.227 59.0386C184.419 59.0386 184.6 59.0647 184.768 59.1169L184.744 60.7902ZM190.354 60.5193H191.281C191.723 60.5193 192.05 60.409 192.262 60.1883C192.475 59.9676 192.581 59.6746 192.581 59.3095C192.581 58.9563 192.475 58.6815 192.262 58.4848C192.054 58.2882 191.765 58.1899 191.396 58.1899C191.063 58.1899 190.784 58.2822 190.559 58.4668C190.334 58.6474 190.222 58.8841 190.222 59.177H188.482C188.482 58.7196 188.605 58.3103 188.849 57.9491C189.098 57.5839 189.443 57.299 189.885 57.0944C190.33 56.8897 190.82 56.7874 191.353 56.7874C192.28 56.7874 193.007 57.0101 193.532 57.4555C194.058 57.897 194.321 58.5069 194.321 59.2854C194.321 59.6867 194.199 60.0559 193.954 60.3929C193.709 60.73 193.388 60.9888 192.991 61.1694C193.484 61.346 193.851 61.6108 194.092 61.964C194.337 62.3171 194.459 62.7344 194.459 63.216C194.459 63.9944 194.175 64.6184 193.605 65.0879C193.039 65.5574 192.288 65.7922 191.353 65.7922C190.479 65.7922 189.762 65.5615 189.205 65.1C188.651 64.6385 188.374 64.0286 188.374 63.2701H190.114C190.114 63.5992 190.236 63.868 190.481 64.0767C190.729 64.2854 191.034 64.3897 191.396 64.3897C191.809 64.3897 192.132 64.2814 192.365 64.0647C192.601 63.844 192.72 63.553 192.72 63.1919C192.72 62.3171 192.238 61.8797 191.275 61.8797H190.354V60.5193ZM200.437 59.159L200.491 59.8873C200.952 59.3215 201.576 59.0386 202.363 59.0386C203.201 59.0386 203.777 59.3697 204.09 60.0318C204.548 59.3697 205.2 59.0386 206.046 59.0386C206.753 59.0386 207.278 59.2453 207.624 59.6586C207.969 60.0679 208.141 60.6859 208.141 61.5125V65.6718H206.396V61.5185C206.396 61.1494 206.323 60.8805 206.179 60.712C206.034 60.5394 205.78 60.4531 205.414 60.4531C204.893 60.4531 204.532 60.7019 204.331 61.1995L204.337 65.6718H202.597V61.5246C202.597 61.1473 202.523 60.8745 202.375 60.7059C202.226 60.5374 201.973 60.4531 201.616 60.4531C201.123 60.4531 200.766 60.6578 200.545 61.0671V65.6718H198.805V59.159H200.437ZM212.481 65.7922C211.526 65.7922 210.748 65.4993 210.146 64.9134C209.548 64.3275 209.249 63.547 209.249 62.5719V62.4034C209.249 61.7493 209.375 61.1654 209.628 60.6518C209.881 60.1341 210.238 59.7368 210.699 59.4599C211.165 59.1791 211.695 59.0386 212.288 59.0386C213.179 59.0386 213.88 59.3195 214.389 59.8813C214.903 60.4431 215.16 61.2396 215.16 62.2709V62.9812H211.012C211.069 63.4066 211.237 63.7477 211.518 64.0045C211.803 64.2613 212.162 64.3897 212.595 64.3897C213.266 64.3897 213.789 64.1469 214.166 63.6614L215.021 64.6184C214.76 64.9876 214.407 65.2765 213.962 65.4852C213.516 65.6899 213.023 65.7922 212.481 65.7922ZM212.282 60.4471C211.937 60.4471 211.656 60.5635 211.44 60.7962C211.227 61.029 211.091 61.362 211.03 61.7954H213.45V61.657C213.442 61.2717 213.338 60.9748 213.137 60.7661C212.937 60.5534 212.652 60.4471 212.282 60.4471ZM219.68 63.8721C219.68 63.6594 219.574 63.4928 219.361 63.3725C219.152 63.2481 218.815 63.1377 218.35 63.0414C216.801 62.7164 216.026 62.0583 216.026 61.0671C216.026 60.4892 216.265 60.0077 216.743 59.6225C217.224 59.2332 217.852 59.0386 218.627 59.0386C219.453 59.0386 220.113 59.2332 220.607 59.6225C221.105 60.0117 221.353 60.5173 221.353 61.1393H219.614C219.614 60.8905 219.534 60.6859 219.373 60.5254C219.213 60.3608 218.962 60.2786 218.621 60.2786C218.328 60.2786 218.101 60.3448 217.941 60.4772C217.78 60.6096 217.7 60.7782 217.7 60.9828C217.7 61.1754 217.79 61.3319 217.971 61.4523C218.155 61.5687 218.464 61.671 218.898 61.7593C219.331 61.8436 219.696 61.9399 219.993 62.0482C220.912 62.3853 221.371 62.9692 221.371 63.7998C221.371 64.3937 221.117 64.8753 220.607 65.2444C220.097 65.6096 219.439 65.7922 218.633 65.7922C218.087 65.7922 217.601 65.6959 217.176 65.5033C216.755 65.3066 216.424 65.0398 216.183 64.7027C215.942 64.3616 215.822 63.9944 215.822 63.6012H217.471C217.487 63.9102 217.601 64.1469 217.814 64.3115C218.027 64.476 218.312 64.5583 218.669 64.5583C219.002 64.5583 219.253 64.4961 219.421 64.3717C219.594 64.2432 219.68 64.0767 219.68 63.8721ZM225.495 65.7922C224.54 65.7922 223.761 65.4993 223.159 64.9134C222.561 64.3275 222.262 63.547 222.262 62.5719V62.4034C222.262 61.7493 222.389 61.1654 222.642 60.6518C222.894 60.1341 223.251 59.7368 223.713 59.4599C224.178 59.1791 224.708 59.0386 225.302 59.0386C226.193 59.0386 226.893 59.3195 227.403 59.8813C227.916 60.4431 228.173 61.2396 228.173 62.2709V62.9812H224.026C224.082 63.4066 224.251 63.7477 224.532 64.0045C224.816 64.2613 225.176 64.3897 225.609 64.3897C226.279 64.3897 226.803 64.1469 227.18 63.6614L228.035 64.6184C227.774 64.9876 227.421 65.2765 226.975 65.4852C226.53 65.6899 226.036 65.7922 225.495 65.7922ZM225.296 60.4471C224.951 60.4471 224.67 60.5635 224.453 60.7962C224.241 61.029 224.104 61.362 224.044 61.7954H226.464V61.657C226.456 61.2717 226.351 60.9748 226.151 60.7661C225.95 60.5534 225.665 60.4471 225.296 60.4471ZM232.694 63.8721C232.694 63.6594 232.587 63.4928 232.375 63.3725C232.166 63.2481 231.829 63.1377 231.363 63.0414C229.814 62.7164 229.04 62.0583 229.04 61.0671C229.04 60.4892 229.279 60.0077 229.756 59.6225C230.238 59.2332 230.866 59.0386 231.64 59.0386C232.467 59.0386 233.127 59.2332 233.621 59.6225C234.118 60.0117 234.367 60.5173 234.367 61.1393H232.627C232.627 60.8905 232.547 60.6859 232.387 60.5254C232.226 60.3608 231.975 60.2786 231.634 60.2786C231.341 60.2786 231.115 60.3448 230.954 60.4772C230.794 60.6096 230.713 60.7782 230.713 60.9828C230.713 61.1754 230.804 61.3319 230.984 61.4523C231.169 61.5687 231.478 61.671 231.911 61.7593C232.345 61.8436 232.71 61.9399 233.007 62.0482C233.926 62.3853 234.385 62.9692 234.385 63.7998C234.385 64.3937 234.13 64.8753 233.621 65.2444C233.111 65.6096 232.453 65.7922 231.646 65.7922C231.101 65.7922 230.615 65.6959 230.19 65.5033C229.768 65.3066 229.437 65.0398 229.197 64.7027C228.956 64.3616 228.835 63.9944 228.835 63.6012H230.485C230.501 63.9102 230.615 64.1469 230.828 64.3115C231.04 64.476 231.325 64.5583 231.682 64.5583C232.016 64.5583 232.266 64.4961 232.435 64.3717C232.607 64.2432 232.694 64.0767 232.694 63.8721Z" fill="#EE3A2B"/>
</svg>
