<svg width="340" height="233" viewBox="0 0 340 233" fill="none" xmlns="http://www.w3.org/2000/svg">
<rect width="340" height="233" fill="#F5F5F5"/>
<path opacity="0.2" d="M56.4662 63.7045C57.8277 66.4879 60.0838 68.7338 62.8734 70.0826C63.0775 70.1793 63.3033 70.2212 63.5285 70.2042C63.7537 70.1871 63.9706 70.1117 64.1578 69.9854L68.2652 67.2465C68.4469 67.1254 68.6559 67.0515 68.8733 67.0315C69.0907 67.0115 69.3097 67.0461 69.5104 67.1321L77.1946 70.4253C77.4556 70.5362 77.6735 70.7289 77.8155 70.9744C77.9575 71.2199 78.0159 71.5049 77.9818 71.7865C77.7389 73.687 76.8116 75.4338 75.3736 76.6999C73.9355 77.9659 72.0853 78.6644 70.1693 78.6645C64.2517 78.6645 58.5764 76.3137 54.392 72.1293C50.2076 67.9449 47.8568 62.2696 47.8568 56.352C47.8569 54.436 48.5554 52.5858 49.8214 51.1477C51.0875 49.7097 52.8343 48.7824 54.7348 48.5395C55.0164 48.5054 55.3014 48.5638 55.5469 48.7058C55.7924 48.8478 55.9851 49.0657 56.096 49.3267L59.3921 57.0176C59.4773 57.2165 59.5121 57.4335 59.4932 57.6491C59.4743 57.8647 59.4024 58.0723 59.2839 58.2534L56.5545 62.4238C56.4303 62.6114 56.3568 62.828 56.3414 63.0525C56.3259 63.277 56.3689 63.5016 56.4662 63.7045V63.7045Z" fill="#EF3829"/>
<path d="M56.4662 63.7045C57.8277 66.4879 60.0838 68.7338 62.8734 70.0826C63.0775 70.1793 63.3033 70.2212 63.5285 70.2042C63.7537 70.1871 63.9706 70.1117 64.1578 69.9854L68.2652 67.2465C68.4469 67.1254 68.6559 67.0515 68.8733 67.0315C69.0907 67.0115 69.3097 67.0461 69.5104 67.1321L77.1946 70.4253C77.4556 70.5362 77.6735 70.7289 77.8155 70.9744C77.9575 71.2199 78.0159 71.5049 77.9818 71.7865C77.7389 73.687 76.8116 75.4338 75.3736 76.6999C73.9355 77.9659 72.0853 78.6644 70.1693 78.6645C64.2517 78.6645 58.5764 76.3137 54.392 72.1293C50.2076 67.9449 47.8568 62.2696 47.8568 56.352C47.8569 54.436 48.5554 52.5858 49.8214 51.1477C51.0875 49.7097 52.8343 48.7824 54.7348 48.5395C55.0164 48.5054 55.3014 48.5638 55.5469 48.7058C55.7924 48.8478 55.9851 49.0657 56.096 49.3267L59.3921 57.0176C59.4773 57.2165 59.5121 57.4335 59.4932 57.6491C59.4743 57.8647 59.4024 58.0723 59.2839 58.2534L56.5545 62.4238C56.4303 62.6114 56.3568 62.828 56.3414 63.0525C56.3259 63.277 56.3689 63.5016 56.4662 63.7045V63.7045Z" stroke="#EF3829" stroke-width="2.625" stroke-linecap="round" stroke-linejoin="round"/>
<path d="M98.3187 77.2273H91.3728V48.3322H98.3187V77.2273ZM108.501 71.869H120.627V77.2273H101.535V48.3322H108.501V71.869ZM129.36 77.2273H122.414V48.3322H129.36V77.2273ZM141.726 48.3322L148.175 68.4357L154.605 48.3322H163.774V77.2273H156.788V70.4798L157.463 56.6673L150.478 77.2273H145.873L138.868 56.6475L139.543 70.4798V77.2273H132.577V48.3322H141.726ZM174.016 77.2273H167.07V48.3322H174.016V77.2273ZM199.321 53.7103H190.648V77.2273H183.682V53.7103H175.169V48.3322H199.321V53.7103ZM214.683 71.8293H205.137L203.47 77.2273H196.028L206.625 48.3322H213.174L223.851 77.2273H216.37L214.683 71.8293ZM206.804 66.4512H213.016L209.9 56.4292L206.804 66.4512ZM224.349 77.2273V48.3322H233.657C236.21 48.3322 238.505 48.9143 240.543 50.0786C242.58 51.2296 244.168 52.8636 245.306 54.9804C246.457 57.0841 247.039 59.4457 247.052 62.0653V63.395C247.052 66.041 246.49 68.4159 245.365 70.5195C244.254 72.6099 242.68 74.2505 240.642 75.4412C238.618 76.6187 236.356 77.2141 233.855 77.2273H224.349ZM231.315 53.7103V71.869H233.736C235.734 71.869 237.268 71.1612 238.34 69.7455C239.412 68.3166 239.948 66.1998 239.948 63.395V62.1447C239.948 59.3531 239.412 57.2494 238.34 55.8338C237.268 54.4182 235.707 53.7103 233.657 53.7103H231.315ZM273.468 63.3751C273.468 66.1932 272.946 68.6871 271.901 70.8569C270.855 73.0267 269.367 74.7003 267.435 75.8778C265.517 77.0421 263.327 77.6242 260.866 77.6242C258.406 77.6242 256.223 77.0619 254.317 75.9373C252.412 74.7995 250.924 73.1788 249.852 71.0752C248.794 68.9715 248.238 66.557 248.185 63.8316V62.2042C248.185 59.3729 248.701 56.879 249.733 54.7225C250.778 52.5527 252.267 50.879 254.198 49.7015C256.143 48.524 258.353 47.9353 260.827 47.9353C263.274 47.9353 265.457 48.5174 267.376 49.6817C269.294 50.846 270.783 52.5064 271.841 54.6629C272.913 56.8062 273.455 59.2671 273.468 62.0455V63.3751ZM266.383 62.1645C266.383 59.2935 265.901 57.1171 264.935 55.6353C263.982 54.1403 262.613 53.3928 260.827 53.3928C257.334 53.3928 255.488 56.0124 255.29 61.2516L255.27 63.3751C255.27 66.2064 255.74 68.3828 256.679 69.9043C257.618 71.4258 259.014 72.1865 260.866 72.1865C262.626 72.1865 263.982 71.439 264.935 69.944C265.887 68.449 266.37 66.299 266.383 63.4942V62.1645ZM290.339 69.5471C290.339 68.5283 289.975 67.7345 289.247 67.1656C288.533 66.5967 287.269 66.0079 285.457 65.3994C283.644 64.7908 282.162 64.202 281.011 63.6331C277.267 61.7941 275.395 59.2671 275.395 56.0521C275.395 54.4512 275.858 53.0422 276.784 51.825C277.723 50.5946 279.047 49.642 280.753 48.9672C282.46 48.2793 284.378 47.9353 286.508 47.9353C288.586 47.9353 290.444 48.3057 292.085 49.0466C293.739 49.7875 295.022 50.846 295.935 52.2219C296.848 53.5846 297.304 55.1458 297.304 56.9055H290.358C290.358 55.728 289.995 54.8151 289.267 54.1668C288.553 53.5185 287.58 53.1943 286.35 53.1943C285.106 53.1943 284.12 53.4722 283.393 54.0279C282.678 54.5703 282.321 55.2649 282.321 56.1116C282.321 56.8525 282.718 57.5273 283.512 58.1359C284.306 58.7313 285.701 59.3531 287.699 60.0014C289.697 60.6364 291.338 61.3244 292.621 62.0653C295.743 63.8646 297.304 66.3453 297.304 69.5074C297.304 72.0344 296.352 74.0189 294.447 75.461C292.541 76.9032 289.928 77.6242 286.608 77.6242C284.266 77.6242 282.142 77.2074 280.237 76.3739C278.345 75.5272 276.916 74.3762 275.951 72.9208C274.998 71.4522 274.522 69.7654 274.522 67.8602H281.507C281.507 69.4082 281.904 70.5526 282.698 71.2935C283.505 72.0211 284.808 72.385 286.608 72.385C287.759 72.385 288.665 72.1402 289.326 71.6507C290.001 71.1479 290.339 70.4467 290.339 69.5471Z" fill="#EF3829"/>
<path d="M94.9472 93.7913H91.0391L90.1614 96.2258H88.8929L92.455 86.8976H93.5314L97.0999 96.2258H95.8378L94.9472 93.7913ZM91.4107 92.779H94.5821L92.9932 88.416L91.4107 92.779ZM111.404 96.2258H110.167L105.471 89.0374V96.2258H104.234V86.8976H105.471L110.18 94.118V86.8976H111.404V96.2258ZM121.467 86.8976V93.2403C121.463 94.1201 121.185 94.8398 120.634 95.3994C120.088 95.9589 119.345 96.2728 118.405 96.3412L118.078 96.354C117.057 96.354 116.244 96.0785 115.637 95.5275C115.031 94.9765 114.723 94.2184 114.715 93.2531V86.8976H115.932V93.2147C115.932 93.8895 116.118 94.4149 116.489 94.7907C116.861 95.1623 117.391 95.3481 118.078 95.3481C118.774 95.3481 119.306 95.1623 119.673 94.7907C120.045 94.4191 120.231 93.8959 120.231 93.2211V86.8976H121.467ZM118.674 84.399H120.109L118.392 86.2825H117.438L118.674 84.399ZM126.31 86.8976L129.359 94.5088L132.409 86.8976H134.004V96.2258H132.774V92.5932L132.889 88.6723L129.827 96.2258H128.885L125.829 88.6915L125.951 92.5932V96.2258H124.721V86.8976H126.31ZM142.761 91.9141H138.718V95.22H143.414V96.2258H137.488V86.8976H143.35V87.9099H138.718V90.9082H142.761V91.9141ZM149.679 92.4523H147.488V96.2258H146.251V86.8976H149.339C150.39 86.8976 151.197 87.1368 151.761 87.6151C152.329 88.0935 152.613 88.7897 152.613 89.7038C152.613 90.2846 152.455 90.7908 152.139 91.2222C151.827 91.6535 151.392 91.976 150.832 92.1896L153.023 96.1489V96.2258H151.703L149.679 92.4523ZM147.488 91.4464H149.378C149.989 91.4464 150.473 91.2884 150.832 90.9723C151.195 90.6562 151.377 90.2334 151.377 89.7038C151.377 89.1271 151.204 88.6851 150.858 88.3776C150.516 88.07 150.021 87.9141 149.371 87.9099H147.488V91.4464ZM162.831 91.8628C162.831 92.7769 162.677 93.5756 162.369 94.259C162.062 94.9381 161.626 95.457 161.062 95.8158C160.499 96.1746 159.841 96.354 159.089 96.354C158.354 96.354 157.703 96.1746 157.135 95.8158C156.567 95.4527 156.125 94.9381 155.809 94.2718C155.497 93.6012 155.337 92.826 155.328 91.9461V91.2734C155.328 90.3765 155.484 89.5842 155.796 88.8965C156.108 88.2088 156.548 87.6835 157.116 87.3204C157.688 86.9531 158.342 86.7695 159.076 86.7695C159.824 86.7695 160.482 86.951 161.05 87.314C161.622 87.6728 162.062 88.196 162.369 88.8837C162.677 89.5671 162.831 90.3636 162.831 91.2734V91.8628ZM161.607 91.2606C161.607 90.1544 161.385 89.3065 160.941 88.7171C160.496 88.1234 159.875 87.8266 159.076 87.8266C158.299 87.8266 157.686 88.1234 157.238 88.7171C156.793 89.3065 156.565 90.1266 156.552 91.1773V91.8628C156.552 92.9349 156.776 93.7784 157.225 94.3935C157.678 95.0043 158.299 95.3097 159.089 95.3097C159.884 95.3097 160.499 95.0214 160.934 94.4448C161.37 93.8639 161.594 93.0331 161.607 91.9525V91.2606ZM168.736 92.0678C167.681 91.7646 166.913 91.393 166.43 90.9531C165.952 90.5089 165.712 89.9622 165.712 89.3129C165.712 88.5783 166.005 87.9718 166.59 87.4934C167.18 87.0108 167.944 86.7695 168.884 86.7695C169.524 86.7695 170.095 86.8933 170.594 87.141C171.098 87.3888 171.487 87.7305 171.76 88.1661C172.038 88.6018 172.177 89.078 172.177 89.5948H170.94C170.94 89.031 170.761 88.589 170.402 88.2686C170.043 87.944 169.537 87.7817 168.884 87.7817C168.277 87.7817 167.803 87.9163 167.461 88.1853C167.124 88.4502 166.955 88.8196 166.955 89.2937C166.955 89.6739 167.116 89.9963 167.436 90.2611C167.76 90.5217 168.309 90.7609 169.082 90.9787C169.86 91.1965 170.466 91.4378 170.902 91.7027C171.342 91.9632 171.666 92.2686 171.876 92.6188C172.089 92.9691 172.196 93.3812 172.196 93.8553C172.196 94.6113 171.901 95.2178 171.312 95.6748C170.723 96.1276 169.934 96.354 168.948 96.354C168.307 96.354 167.709 96.2322 167.154 95.9888C166.599 95.7411 166.169 95.4036 165.866 94.9765C165.567 94.5494 165.418 94.0646 165.418 93.5222H166.654C166.654 94.086 166.861 94.5323 167.276 94.8612C167.694 95.1858 168.252 95.3481 168.948 95.3481C169.597 95.3481 170.095 95.2157 170.441 94.9509C170.787 94.6861 170.96 94.3252 170.96 93.8681C170.96 93.4111 170.799 93.0588 170.479 92.811C170.159 92.559 169.578 92.3113 168.736 92.0678ZM186.519 93.2659C186.404 94.2525 186.039 95.015 185.423 95.5531C184.813 96.087 183.999 96.354 182.982 96.354C181.881 96.354 180.996 95.9589 180.33 95.1687C179.668 94.3785 179.337 93.3214 179.337 91.9974V91.1004C179.337 90.2334 179.491 89.471 179.798 88.8132C180.11 88.1555 180.55 87.6515 181.118 87.3012C181.686 86.9467 182.344 86.7695 183.091 86.7695C184.082 86.7695 184.877 87.0471 185.475 87.6023C186.073 88.1533 186.421 88.9179 186.519 89.896H185.283C185.176 89.1528 184.943 88.6146 184.584 88.2815C184.23 87.9483 183.732 87.7817 183.091 87.7817C182.306 87.7817 181.688 88.0722 181.24 88.653C180.796 89.2339 180.574 90.0604 180.574 91.1325V92.0358C180.574 93.0481 180.785 93.8532 181.208 94.4512C181.631 95.0491 182.222 95.3481 182.982 95.3481C183.666 95.3481 184.189 95.1943 184.552 94.8868C184.919 94.575 185.163 94.0347 185.283 93.2659H186.519ZM190.753 95.22H195.173V96.2258H189.516V86.8976H190.753V95.22ZM203.168 93.7913H199.259L198.382 96.2258H197.113L200.675 86.8976H201.752L205.32 96.2258H204.058L203.168 93.7913ZM199.631 92.779H202.802L201.214 88.416L199.631 92.779ZM211.309 92.4523H209.118V96.2258H207.882V86.8976H210.97C212.02 86.8976 212.828 87.1368 213.392 87.6151C213.96 88.0935 214.244 88.7897 214.244 89.7038C214.244 90.2846 214.086 90.7908 213.77 91.2222C213.458 91.6535 213.022 91.976 212.463 92.1896L214.654 96.1489V96.2258H213.334L211.309 92.4523ZM209.118 91.4464H211.008C211.619 91.4464 212.104 91.2884 212.463 90.9723C212.826 90.6562 213.007 90.2334 213.007 89.7038C213.007 89.1271 212.834 88.6851 212.488 88.3776C212.146 88.07 211.651 87.9141 211.002 87.9099H209.118V91.4464ZM224.461 91.8628C224.461 92.7769 224.307 93.5756 224 94.259C223.692 94.9381 223.257 95.457 222.693 95.8158C222.129 96.1746 221.471 96.354 220.72 96.354C219.985 96.354 219.334 96.1746 218.766 95.8158C218.197 95.4527 217.755 94.9381 217.439 94.2718C217.128 93.6012 216.967 92.826 216.959 91.9461V91.2734C216.959 90.3765 217.115 89.5842 217.427 88.8965C217.738 88.2088 218.178 87.6835 218.746 87.3204C219.319 86.9531 219.972 86.7695 220.707 86.7695C221.454 86.7695 222.112 86.951 222.68 87.314C223.252 87.6728 223.692 88.196 224 88.8837C224.307 89.5671 224.461 90.3636 224.461 91.2734V91.8628ZM223.237 91.2606C223.237 90.1544 223.015 89.3065 222.571 88.7171C222.127 88.1234 221.505 87.8266 220.707 87.8266C219.929 87.8266 219.316 88.1234 218.868 88.7171C218.424 89.3065 218.195 90.1266 218.183 91.1773V91.8628C218.183 92.9349 218.407 93.7784 218.855 94.3935C219.308 95.0043 219.929 95.3097 220.72 95.3097C221.514 95.3097 222.129 95.0214 222.565 94.4448C223 93.8639 223.225 93.0331 223.237 91.9525V91.2606Z" fill="#222222"/>
<path d="M43.5398 141.266H45.9112C47.7905 141.266 48.7301 140.347 48.7301 138.507C48.7301 137.791 48.5064 137.21 48.0589 136.762C47.6115 136.305 46.9801 136.076 46.1648 136.076C45.4986 136.076 44.9169 136.27 44.4197 136.658C43.9325 137.045 43.6889 137.528 43.6889 138.104H38.6626C38.6626 136.961 38.9808 135.942 39.6172 135.047C40.2535 134.152 41.1335 133.456 42.2571 132.959C43.3906 132.452 44.6335 132.198 45.9858 132.198C48.402 132.198 50.3011 132.75 51.6832 133.854C53.0653 134.957 53.7564 136.474 53.7564 138.403C53.7564 139.337 53.468 140.222 52.8913 141.058C52.3246 141.883 51.4943 142.554 50.4006 143.071C51.554 143.489 52.4588 144.125 53.115 144.98C53.7713 145.825 54.0994 146.874 54.0994 148.127C54.0994 150.066 53.3537 151.617 51.8622 152.781C50.3707 153.944 48.4119 154.526 45.9858 154.526C44.5639 154.526 43.2415 154.257 42.0184 153.72C40.8054 153.173 39.8856 152.423 39.2592 151.468C38.6328 150.504 38.3196 149.41 38.3196 148.187H43.3757C43.3757 148.853 43.6442 149.43 44.1811 149.917C44.718 150.404 45.3792 150.648 46.1648 150.648C47.0497 150.648 47.7557 150.404 48.2827 149.917C48.8096 149.42 49.0731 148.788 49.0731 148.023C49.0731 146.929 48.7997 146.153 48.2528 145.696C47.7059 145.239 46.9503 145.01 45.9858 145.01H43.5398V141.266ZM71.7138 145.353C71.7138 148.286 71.0525 150.548 69.7301 152.139C68.4176 153.73 66.5632 154.526 64.1669 154.526C61.7507 154.526 59.8814 153.725 58.5589 152.124C57.2365 150.523 56.5753 148.266 56.5753 145.353V141.386C56.5753 138.452 57.2315 136.19 58.544 134.599C59.8665 133.009 61.7308 132.213 64.1371 132.213C66.5433 132.213 68.4077 133.014 69.7301 134.614C71.0525 136.215 71.7138 138.477 71.7138 141.401V145.353ZM66.6875 140.744C66.6875 139.183 66.4836 138.02 66.076 137.254C65.6683 136.479 65.022 136.091 64.1371 136.091C63.272 136.091 62.6406 136.449 62.2429 137.165C61.8551 137.881 61.6463 138.965 61.6165 140.416V145.965C61.6165 147.585 61.8203 148.773 62.228 149.529C62.6356 150.275 63.2819 150.648 64.1669 150.648C65.022 150.648 65.6534 150.285 66.0611 149.559C66.4687 148.823 66.6775 147.675 66.6875 146.114V140.744ZM89.1193 132.511L93.9666 147.62L98.799 132.511H105.69V154.227H100.44V149.156L100.947 138.776L95.6967 154.227H92.2365L86.9716 138.761L87.4787 149.156V154.227H82.2436V132.511H89.1193ZM114.609 154.227H109.388V132.511H114.609V154.227ZM136.384 154.227H131.179L123.483 140.715V154.227H118.248V132.511H123.483L131.164 146.024V132.511H136.384V154.227Z" fill="#222222"/>
<path d="M44.27 170.175H40.1L39.1635 172.773H37.81L41.6108 162.82H42.7592L46.5668 172.773H45.2202L44.27 170.175ZM40.4965 169.095H43.8803L42.185 164.44L40.4965 169.095ZM57.9828 163.9H54.7836V172.773H53.478V163.9H50.2856V162.82H57.9828V163.9ZM66.9243 168.117C66.9243 169.093 66.7602 169.945 66.4321 170.674C66.1039 171.399 65.6391 171.952 65.0375 172.335C64.436 172.718 63.7342 172.909 62.9321 172.909C62.1482 172.909 61.4532 172.718 60.8471 172.335C60.241 171.948 59.7693 171.399 59.4321 170.688C59.0994 169.972 58.9285 169.145 58.9194 168.206V167.489C58.9194 166.531 59.0857 165.686 59.4184 164.952C59.7511 164.219 60.2205 163.658 60.8266 163.271C61.4373 162.879 62.1345 162.683 62.9184 162.683C63.7159 162.683 64.4177 162.877 65.0239 163.264C65.6345 163.647 66.1039 164.205 66.4321 164.939C66.7602 165.668 66.9243 166.518 66.9243 167.489V168.117ZM65.6186 167.475C65.6186 166.295 65.3816 165.39 64.9077 164.761C64.4337 164.128 63.7706 163.811 62.9184 163.811C62.089 163.811 61.435 164.128 60.9565 164.761C60.4825 165.39 60.2387 166.265 60.225 167.386V168.117C60.225 169.261 60.4643 170.161 60.9428 170.818C61.4259 171.469 62.089 171.795 62.9321 171.795C63.7797 171.795 64.436 171.488 64.9008 170.872C65.3657 170.253 65.6049 169.366 65.6186 168.213V167.475ZM68.893 172.773V162.82H71.7026C72.5685 162.82 73.3341 163.011 73.9995 163.394C74.6648 163.777 75.1775 164.321 75.5375 165.028C75.9021 165.734 76.0867 166.545 76.0912 167.461V168.097C76.0912 169.036 75.909 169.858 75.5444 170.565C75.1843 171.271 74.6671 171.813 73.9926 172.192C73.3227 172.57 72.5411 172.764 71.6479 172.773H68.893ZM70.2055 163.9V171.699H71.5864C72.5981 171.699 73.3842 171.385 73.9448 170.756C74.5099 170.127 74.7924 169.232 74.7924 168.07V167.489C74.7924 166.358 74.5258 165.481 73.9926 164.857C73.464 164.228 72.712 163.909 71.7368 163.9H70.2055ZM83.4262 170.175H79.2563L78.3198 172.773H76.9662L80.767 162.82H81.9155L85.7231 172.773H84.3764L83.4262 170.175ZM79.6528 169.095H83.0366L81.3412 164.44L79.6528 169.095ZM89.9955 168.336C88.8699 168.013 88.0496 167.616 87.5346 167.147C87.0242 166.673 86.769 166.089 86.769 165.397C86.769 164.613 87.0812 163.966 87.7055 163.455C88.3344 162.94 89.1502 162.683 90.1528 162.683C90.8364 162.683 91.4448 162.815 91.978 163.079C92.5157 163.344 92.9304 163.708 93.2221 164.173C93.5183 164.638 93.6664 165.146 93.6664 165.698H92.3471C92.3471 165.096 92.1557 164.624 91.7729 164.282C91.3901 163.936 90.85 163.763 90.1528 163.763C89.5056 163.763 88.9998 163.906 88.6352 164.194C88.2752 164.476 88.0952 164.87 88.0952 165.376C88.0952 165.782 88.2661 166.126 88.6078 166.408C88.9542 166.686 89.5398 166.942 90.3647 167.174C91.1941 167.406 91.8412 167.664 92.3061 167.947C92.7755 168.225 93.1218 168.55 93.3452 168.924C93.573 169.298 93.687 169.738 93.687 170.243C93.687 171.05 93.3725 171.697 92.7436 172.185C92.1147 172.668 91.2739 172.909 90.2211 172.909C89.5375 172.909 88.8995 172.78 88.3071 172.52C87.7146 172.255 87.2566 171.895 86.933 171.44C86.614 170.984 86.4545 170.467 86.4545 169.888H87.7739C87.7739 170.49 87.9949 170.966 88.437 171.317C88.8836 171.663 89.4783 171.836 90.2211 171.836C90.9138 171.836 91.4448 171.695 91.8139 171.412C92.183 171.13 92.3676 170.745 92.3676 170.257C92.3676 169.769 92.1967 169.393 91.8549 169.129C91.5131 168.86 90.8933 168.596 89.9955 168.336ZM100.167 171.699H104.884V172.773H98.8481V162.82H100.167V171.699ZM112.014 170.175H107.844L106.908 172.773H105.554L109.355 162.82H110.503L114.311 172.773H112.964L112.014 170.175ZM108.241 169.095H111.624L109.929 164.44L108.241 169.095ZM118.583 168.336C117.458 168.013 116.637 167.616 116.122 167.147C115.612 166.673 115.357 166.089 115.357 165.397C115.357 164.613 115.669 163.966 116.293 163.455C116.922 162.94 117.738 162.683 118.741 162.683C119.424 162.683 120.033 162.815 120.566 163.079C121.104 163.344 121.518 163.708 121.81 164.173C122.106 164.638 122.254 165.146 122.254 165.698H120.935C120.935 165.096 120.744 164.624 120.361 164.282C119.978 163.936 119.438 163.763 118.741 163.763C118.094 163.763 117.588 163.906 117.223 164.194C116.863 164.476 116.683 164.87 116.683 165.376C116.683 165.782 116.854 166.126 117.196 166.408C117.542 166.686 118.128 166.942 118.953 167.174C119.782 167.406 120.429 167.664 120.894 167.947C121.363 168.225 121.71 168.55 121.933 168.924C122.161 169.298 122.275 169.738 122.275 170.243C122.275 171.05 121.96 171.697 121.331 172.185C120.703 172.668 119.862 172.909 118.809 172.909C118.125 172.909 117.487 172.78 116.895 172.52C116.303 172.255 115.845 171.895 115.521 171.44C115.202 170.984 115.042 170.467 115.042 169.888H116.362C116.362 170.49 116.583 170.966 117.025 171.317C117.471 171.663 118.066 171.836 118.809 171.836C119.502 171.836 120.033 171.695 120.402 171.412C120.771 171.13 120.956 170.745 120.956 170.257C120.956 169.769 120.785 169.393 120.443 169.129C120.101 168.86 119.481 168.596 118.583 168.336ZM46.4301 182.117C46.4301 183.093 46.2661 183.945 45.9379 184.674C45.6098 185.399 45.145 185.952 44.5434 186.335C43.9418 186.718 43.24 186.909 42.4379 186.909C41.6541 186.909 40.9591 186.718 40.353 186.335C39.7468 185.948 39.2752 185.399 38.9379 184.688C38.6052 183.972 38.4343 183.145 38.4252 182.206V181.489C38.4252 180.531 38.5916 179.686 38.9243 178.952C39.2569 178.219 39.7263 177.658 40.3325 177.271C40.9431 176.879 41.6404 176.683 42.4243 176.683C43.2218 176.683 43.9236 176.877 44.5297 177.264C45.1404 177.647 45.6098 178.205 45.9379 178.939C46.2661 179.668 46.4301 180.518 46.4301 181.489V182.117ZM45.1245 181.475C45.1245 180.295 44.8875 179.39 44.4135 178.761C43.9396 178.128 43.2765 177.811 42.4243 177.811C41.5948 177.811 40.9409 178.128 40.4623 178.761C39.9884 179.39 39.7446 180.265 39.7309 181.386V182.117C39.7309 183.261 39.9702 184.161 40.4487 184.818C40.9317 185.469 41.5948 185.795 42.4379 185.795C43.2856 185.795 43.9418 185.488 44.4067 184.872C44.8715 184.253 45.1108 183.366 45.1245 182.213V181.475ZM49.7114 182.876V186.773H48.3989V176.82H52.0698C53.159 176.82 54.0112 177.098 54.6264 177.654C55.2462 178.21 55.5561 178.946 55.5561 179.862C55.5561 180.828 55.253 181.573 54.6469 182.097C54.0453 182.616 53.1817 182.876 52.0561 182.876H49.7114ZM49.7114 181.803H52.0698C52.7716 181.803 53.3093 181.639 53.683 181.311C54.0567 180.978 54.2436 180.5 54.2436 179.875C54.2436 179.283 54.0567 178.809 53.683 178.453C53.3093 178.098 52.7967 177.913 52.145 177.9H49.7114V181.803ZM62.8569 182.172H58.5434V185.699H63.5541V186.773H57.2309V176.82H63.4858V177.9H58.5434V181.099H62.8569V182.172ZM68.8383 182.746H66.5004V186.773H65.1811V176.82H68.476C69.5971 176.82 70.4584 177.075 71.06 177.585C71.6661 178.096 71.9692 178.838 71.9692 179.814C71.9692 180.434 71.8006 180.974 71.4633 181.434C71.1306 181.894 70.6658 182.238 70.0688 182.466L72.4067 186.691V186.773H70.9985L68.8383 182.746ZM66.5004 181.673H68.517C69.1687 181.673 69.686 181.504 70.0688 181.167C70.4562 180.83 70.6498 180.379 70.6498 179.814C70.6498 179.198 70.4653 178.727 70.0961 178.399C69.7315 178.071 69.2029 177.904 68.5102 177.9H66.5004V181.673ZM79.311 184.175H75.1411L74.2045 186.773H72.851L76.6518 176.82H77.8002L81.6078 186.773H80.2612L79.311 184.175ZM75.5375 183.095H78.9213L77.226 178.44L75.5375 183.095ZM82.9477 186.773V176.82H85.7573C86.6231 176.82 87.3888 177.011 88.0541 177.394C88.7195 177.777 89.2322 178.321 89.5922 179.028C89.9568 179.734 90.1414 180.545 90.1459 181.461V182.097C90.1459 183.036 89.9636 183.858 89.5991 184.565C89.239 185.271 88.7218 185.813 88.0473 186.192C87.3774 186.57 86.5958 186.764 85.7026 186.773H82.9477ZM84.2602 177.9V185.699H85.6411C86.6528 185.699 87.4389 185.385 87.9995 184.756C88.5646 184.127 88.8471 183.232 88.8471 182.07V181.489C88.8471 180.358 88.5805 179.481 88.0473 178.857C87.5187 178.228 86.7667 177.909 85.7914 177.9H84.2602ZM99.7914 182.117C99.7914 183.093 99.6274 183.945 99.2993 184.674C98.9711 185.399 98.5063 185.952 97.9047 186.335C97.3032 186.718 96.6013 186.909 95.7993 186.909C95.0154 186.909 94.3204 186.718 93.7143 186.335C93.1082 185.948 92.6365 185.399 92.2993 184.688C91.9666 183.972 91.7957 183.145 91.7866 182.206V181.489C91.7866 180.531 91.9529 179.686 92.2856 178.952C92.6183 178.219 93.0877 177.658 93.6938 177.271C94.3045 176.879 95.0017 176.683 95.7856 176.683C96.5831 176.683 97.2849 176.877 97.8911 177.264C98.5017 177.647 98.9711 178.205 99.2993 178.939C99.6274 179.668 99.7914 180.518 99.7914 181.489V182.117ZM98.4858 181.475C98.4858 180.295 98.2488 179.39 97.7748 178.761C97.3009 178.128 96.6378 177.811 95.7856 177.811C94.9562 177.811 94.3022 178.128 93.8237 178.761C93.3497 179.39 93.1059 180.265 93.0922 181.386V182.117C93.0922 183.261 93.3315 184.161 93.81 184.818C94.2931 185.469 94.9562 185.795 95.7993 185.795C96.6469 185.795 97.3032 185.488 97.768 184.872C98.2328 184.253 98.4721 183.366 98.4858 182.213V181.475ZM105.411 182.746H103.073V186.773H101.753V176.82H105.048C106.169 176.82 107.031 177.075 107.632 177.585C108.238 178.096 108.541 178.838 108.541 179.814C108.541 180.434 108.373 180.974 108.036 181.434C107.703 181.894 107.238 182.238 106.641 182.466L108.979 186.691V186.773H107.571L105.411 182.746ZM103.073 181.673H105.089C105.741 181.673 106.258 181.504 106.641 181.167C107.028 180.83 107.222 180.379 107.222 179.814C107.222 179.198 107.038 178.727 106.668 178.399C106.304 178.071 105.775 177.904 105.082 177.9H103.073V181.673ZM115.883 184.175H111.713L110.777 186.773H109.423L113.224 176.82H114.372L118.18 186.773H116.833L115.883 184.175ZM112.11 183.095H115.494L113.798 178.44L112.11 183.095ZM122.453 182.336C121.327 182.013 120.507 181.616 119.992 181.147C119.481 180.673 119.226 180.089 119.226 179.397C119.226 178.613 119.538 177.966 120.163 177.455C120.791 176.94 121.607 176.683 122.61 176.683C123.293 176.683 123.902 176.815 124.435 177.079C124.973 177.344 125.387 177.708 125.679 178.173C125.975 178.638 126.123 179.146 126.123 179.698H124.804C124.804 179.096 124.613 178.624 124.23 178.282C123.847 177.936 123.307 177.763 122.61 177.763C121.963 177.763 121.457 177.906 121.092 178.194C120.732 178.476 120.552 178.87 120.552 179.376C120.552 179.782 120.723 180.126 121.065 180.408C121.411 180.686 121.997 180.942 122.822 181.174C123.651 181.406 124.298 181.664 124.763 181.947C125.233 182.225 125.579 182.55 125.802 182.924C126.03 183.298 126.144 183.738 126.144 184.243C126.144 185.05 125.83 185.697 125.201 186.185C124.572 186.668 123.731 186.909 122.678 186.909C121.995 186.909 121.357 186.78 120.764 186.52C120.172 186.255 119.714 185.895 119.39 185.44C119.071 184.984 118.912 184.467 118.912 183.888H120.231C120.231 184.49 120.452 184.966 120.894 185.317C121.341 185.663 121.935 185.836 122.678 185.836C123.371 185.836 123.902 185.695 124.271 185.412C124.64 185.13 124.825 184.745 124.825 184.257C124.825 183.769 124.654 183.393 124.312 183.129C123.97 182.86 123.35 182.596 122.453 182.336Z" fill="#222222"/>
<g filter="url(#filter0_d)">
<path d="M160.182 143.638H166.028L165.145 148.742H159.316L158.097 155.648H152.675L153.876 148.742H148.012L148.895 143.638H154.759L155.925 136.926H161.347L160.182 143.638Z" fill="#EF3829"/>
</g>
<path d="M181.491 130.648L184.968 141.487L188.435 130.648H193.378V146.227H189.612V142.589L189.976 135.142L186.21 146.227H183.727L179.95 135.132L180.314 142.589V146.227H176.558V130.648H181.491ZM205.437 139.626H199.531V143.338H206.507V146.227H195.775V130.648H206.528V133.548H199.531V136.833H205.437V139.626ZM221.048 146.227H217.314L211.793 136.533V146.227H208.037V130.648H211.793L217.303 140.342V130.648H221.048V146.227ZM231.459 142.086C231.459 141.537 231.263 141.109 230.87 140.803C230.485 140.496 229.804 140.178 228.827 139.85C227.849 139.522 227.05 139.205 226.43 138.898C224.411 137.906 223.402 136.544 223.402 134.811C223.402 133.948 223.651 133.188 224.151 132.532C224.657 131.868 225.371 131.355 226.291 130.991C227.211 130.62 228.245 130.434 229.394 130.434C230.514 130.434 231.516 130.634 232.4 131.034C233.292 131.433 233.984 132.004 234.476 132.746C234.968 133.48 235.214 134.322 235.214 135.271H231.469C231.469 134.636 231.273 134.144 230.881 133.794C230.496 133.445 229.971 133.27 229.308 133.27C228.638 133.27 228.106 133.42 227.714 133.719C227.329 134.012 227.136 134.386 227.136 134.843C227.136 135.242 227.35 135.606 227.778 135.934C228.206 136.255 228.959 136.59 230.036 136.94C231.113 137.282 231.997 137.653 232.689 138.053C234.373 139.023 235.214 140.36 235.214 142.065C235.214 143.428 234.701 144.498 233.674 145.275C232.646 146.053 231.238 146.441 229.447 146.441C228.185 146.441 227.04 146.217 226.013 145.767C224.993 145.311 224.222 144.69 223.701 143.905C223.188 143.114 222.931 142.204 222.931 141.177H226.697C226.697 142.012 226.911 142.629 227.339 143.028C227.774 143.42 228.477 143.617 229.447 143.617C230.068 143.617 230.556 143.485 230.913 143.221C231.277 142.95 231.459 142.572 231.459 142.086ZM245.989 143.317H240.842L239.944 146.227H235.931L241.645 130.648H245.176L250.932 146.227H246.898L245.989 143.317ZM241.741 140.417H245.09L243.41 135.014L241.741 140.417ZM258.283 130.648H262.028V141.338C262.028 142.329 261.796 143.214 261.332 143.991C260.876 144.769 260.234 145.371 259.406 145.799C258.586 146.227 257.669 146.441 256.657 146.441C254.959 146.441 253.639 146.013 252.698 145.157C251.756 144.301 251.285 143.089 251.285 141.519H255.052C255.052 142.233 255.173 142.75 255.415 143.071C255.665 143.392 256.079 143.552 256.657 143.552C257.177 143.552 257.577 143.36 257.855 142.975C258.14 142.582 258.283 142.037 258.283 141.338V130.648ZM274.065 139.626H268.159V143.338H275.135V146.227H264.403V130.648H275.156V133.548H268.159V136.833H274.065V139.626ZM284.701 142.086C284.701 141.537 284.504 141.109 284.112 140.803C283.727 140.496 283.046 140.178 282.068 139.85C281.091 139.522 280.292 139.205 279.672 138.898C277.653 137.906 276.644 136.544 276.644 134.811C276.644 133.948 276.893 133.188 277.393 132.532C277.899 131.868 278.612 131.355 279.533 130.991C280.453 130.62 281.487 130.434 282.636 130.434C283.755 130.434 284.758 130.634 285.642 131.034C286.534 131.433 287.226 132.004 287.718 132.746C288.21 133.48 288.456 134.322 288.456 135.271H284.711C284.711 134.636 284.515 134.144 284.123 133.794C283.738 133.445 283.213 133.27 282.55 133.27C281.879 133.27 281.348 133.42 280.956 133.719C280.57 134.012 280.378 134.386 280.378 134.843C280.378 135.242 280.592 135.606 281.02 135.934C281.448 136.255 282.2 136.59 283.278 136.94C284.355 137.282 285.239 137.653 285.931 138.053C287.614 139.023 288.456 140.36 288.456 142.065C288.456 143.428 287.943 144.498 286.915 145.275C285.888 146.053 284.479 146.441 282.689 146.441C281.426 146.441 280.282 146.217 279.254 145.767C278.234 145.311 277.464 144.69 276.943 143.905C276.43 143.114 276.173 142.204 276.173 141.177H279.939C279.939 142.012 280.153 142.629 280.581 143.028C281.016 143.42 281.719 143.617 282.689 143.617C283.31 143.617 283.798 143.485 284.155 143.221C284.519 142.95 284.701 142.572 284.701 142.086ZM180.56 168.227H176.815V152.648H180.56V168.227ZM186.926 165.338H193.464V168.227H183.171V152.648H186.926V165.338ZM199.049 168.227H195.304V152.648H199.049V168.227ZM206.593 152.648L210.07 163.487L213.537 152.648H218.48V168.227H214.714V164.589L215.077 157.142L211.311 168.227H208.829L205.052 157.132L205.416 164.589V168.227H201.66V152.648H206.593ZM224.878 168.227H221.133V152.648H224.878V168.227ZM239.398 155.548H234.722V168.227H230.967V155.548H226.376V152.648H239.398V155.548ZM248.557 165.317H243.41L242.512 168.227H238.499L244.213 152.648H247.744L253.5 168.227H249.466L248.557 165.317ZM244.309 162.417H247.658L245.978 157.014L244.309 162.417ZM254.645 168.227V152.648H259.663C261.04 152.648 262.277 152.962 263.376 153.59C264.475 154.211 265.33 155.092 265.944 156.233C266.565 157.367 266.878 158.64 266.886 160.053V160.77C266.886 162.196 266.582 163.477 265.976 164.611C265.377 165.738 264.528 166.622 263.43 167.264C262.338 167.899 261.118 168.22 259.77 168.227H254.645ZM258.401 155.548V165.338H259.706C260.783 165.338 261.611 164.957 262.188 164.193C262.766 163.423 263.055 162.282 263.055 160.77V160.096C263.055 158.59 262.766 157.456 262.188 156.693C261.611 155.93 260.769 155.548 259.663 155.548H258.401ZM282.004 160.759C282.004 162.278 281.722 163.623 281.159 164.793C280.595 165.963 279.793 166.865 278.752 167.5C277.717 168.127 276.537 168.441 275.21 168.441C273.883 168.441 272.706 168.138 271.679 167.532C270.652 166.918 269.849 166.045 269.272 164.91C268.701 163.776 268.401 162.474 268.373 161.005V160.128C268.373 158.601 268.651 157.257 269.207 156.094C269.771 154.924 270.573 154.022 271.615 153.387C272.663 152.752 273.855 152.434 275.189 152.434C276.508 152.434 277.685 152.748 278.719 153.376C279.754 154.004 280.556 154.899 281.127 156.062C281.705 157.217 281.997 158.544 282.004 160.042V160.759ZM278.184 160.106C278.184 158.558 277.924 157.385 277.403 156.586C276.89 155.78 276.151 155.377 275.189 155.377C273.305 155.377 272.31 156.789 272.203 159.614L272.193 160.759C272.193 162.285 272.446 163.459 272.952 164.279C273.459 165.099 274.211 165.51 275.21 165.51C276.159 165.51 276.89 165.107 277.403 164.3C277.917 163.494 278.177 162.335 278.184 160.823V160.106ZM291.976 164.086C291.976 163.537 291.78 163.109 291.388 162.803C291.003 162.496 290.321 162.178 289.344 161.85C288.367 161.522 287.568 161.205 286.948 160.898C284.929 159.906 283.919 158.544 283.919 156.811C283.919 155.948 284.169 155.188 284.668 154.532C285.175 153.868 285.888 153.355 286.808 152.991C287.729 152.62 288.763 152.434 289.911 152.434C291.031 152.434 292.033 152.634 292.918 153.034C293.81 153.433 294.502 154.004 294.994 154.746C295.486 155.48 295.732 156.322 295.732 157.271H291.987C291.987 156.636 291.791 156.144 291.399 155.794C291.013 155.445 290.489 155.27 289.826 155.27C289.155 155.27 288.624 155.42 288.231 155.719C287.846 156.012 287.654 156.386 287.654 156.843C287.654 157.242 287.868 157.606 288.296 157.934C288.724 158.255 289.476 158.59 290.553 158.94C291.63 159.282 292.515 159.653 293.207 160.053C294.89 161.023 295.732 162.36 295.732 164.065C295.732 165.428 295.218 166.498 294.191 167.275C293.164 168.053 291.755 168.441 289.965 168.441C288.702 168.441 287.557 168.217 286.53 167.767C285.51 167.311 284.74 166.69 284.219 165.905C283.705 165.114 283.449 164.204 283.449 163.177H287.215C287.215 164.012 287.429 164.629 287.857 165.028C288.292 165.42 288.995 165.617 289.965 165.617C290.585 165.617 291.074 165.485 291.431 165.221C291.794 164.95 291.976 164.572 291.976 164.086Z" fill="#222222"/>
<path d="M182.033 181.456H177.863L176.926 184.053H175.573L179.374 174.1H180.522L184.33 184.053H182.983L182.033 181.456ZM178.259 180.376H181.643L179.948 175.72L178.259 180.376ZM196.792 184.053H195.472L190.462 176.384V184.053H189.142V174.1H190.462L195.486 181.804V174.1H196.792V184.053ZM206.129 174.1V180.868C206.125 181.807 205.829 182.575 205.241 183.172C204.657 183.769 203.865 184.104 202.862 184.177L202.513 184.19C201.424 184.19 200.556 183.896 199.909 183.308C199.262 182.72 198.934 181.912 198.924 180.882V174.1H200.223V180.841C200.223 181.561 200.421 182.121 200.818 182.522C201.214 182.919 201.78 183.117 202.513 183.117C203.256 183.117 203.823 182.919 204.215 182.522C204.612 182.126 204.81 181.567 204.81 180.847V174.1H206.129ZM203.149 171.434H204.68L202.848 173.444H201.83L203.149 171.434ZM209.896 174.1L213.15 182.221L216.404 174.1H218.106V184.053H216.794V180.177L216.917 175.994L213.649 184.053H212.644L209.383 176.014L209.513 180.177V184.053H208.201V174.1H209.896ZM226.049 179.453H221.736V182.98H226.747V184.053H220.423V174.1H226.678V175.18H221.736V178.38H226.049V179.453ZM232.031 180.027H229.693V184.053H228.374V174.1H231.669C232.79 174.1 233.651 174.356 234.253 174.866C234.859 175.376 235.162 176.119 235.162 177.094C235.162 177.714 234.993 178.254 234.656 178.715C234.323 179.175 233.858 179.519 233.261 179.747L235.599 183.971V184.053H234.191L232.031 180.027ZM229.693 178.954H231.71C232.361 178.954 232.879 178.785 233.261 178.448C233.649 178.111 233.842 177.66 233.842 177.094C233.842 176.479 233.658 176.008 233.289 175.679C232.924 175.351 232.395 175.185 231.703 175.18H229.693V178.954ZM244.664 179.398C244.664 180.373 244.5 181.226 244.171 181.955C243.843 182.679 243.379 183.233 242.777 183.616C242.175 183.999 241.474 184.19 240.671 184.19C239.888 184.19 239.193 183.999 238.587 183.616C237.98 183.229 237.509 182.679 237.171 181.969C236.839 181.253 236.668 180.426 236.659 179.487V178.769C236.659 177.812 236.825 176.967 237.158 176.233C237.49 175.499 237.96 174.939 238.566 174.552C239.177 174.16 239.874 173.964 240.658 173.964C241.455 173.964 242.157 174.157 242.763 174.545C243.374 174.927 243.843 175.486 244.171 176.219C244.5 176.949 244.664 177.799 244.664 178.769V179.398ZM243.358 178.756C243.358 177.575 243.121 176.671 242.647 176.042C242.173 175.408 241.51 175.092 240.658 175.092C239.828 175.092 239.174 175.408 238.696 176.042C238.222 176.671 237.978 177.546 237.964 178.667V179.398C237.964 180.542 238.204 181.442 238.682 182.098C239.165 182.75 239.828 183.076 240.671 183.076C241.519 183.076 242.175 182.768 242.64 182.153C243.105 181.533 243.344 180.647 243.358 179.494V178.756ZM249.565 179.617C248.439 179.293 247.619 178.897 247.104 178.427C246.594 177.954 246.338 177.37 246.338 176.677C246.338 175.894 246.651 175.247 247.275 174.736C247.904 174.221 248.72 173.964 249.722 173.964C250.406 173.964 251.014 174.096 251.547 174.36C252.085 174.624 252.5 174.989 252.792 175.454C253.088 175.919 253.236 176.427 253.236 176.978H251.917C251.917 176.377 251.725 175.905 251.342 175.563C250.96 175.217 250.42 175.044 249.722 175.044C249.075 175.044 248.569 175.187 248.205 175.474C247.845 175.757 247.665 176.151 247.665 176.657C247.665 177.063 247.836 177.407 248.177 177.689C248.524 177.967 249.109 178.222 249.934 178.455C250.764 178.687 251.411 178.945 251.876 179.227C252.345 179.505 252.691 179.831 252.915 180.205C253.143 180.579 253.256 181.018 253.256 181.524C253.256 182.331 252.942 182.978 252.313 183.466C251.684 183.949 250.843 184.19 249.791 184.19C249.107 184.19 248.469 184.06 247.877 183.801C247.284 183.536 246.826 183.176 246.503 182.72C246.184 182.265 246.024 181.747 246.024 181.169H247.343C247.343 181.77 247.564 182.247 248.006 182.597C248.453 182.944 249.048 183.117 249.791 183.117C250.483 183.117 251.014 182.976 251.383 182.693C251.753 182.411 251.937 182.025 251.937 181.538C251.937 181.05 251.766 180.674 251.424 180.41C251.083 180.141 250.463 179.877 249.565 179.617ZM265.739 180.895C265.616 181.948 265.226 182.761 264.57 183.336C263.918 183.905 263.05 184.19 261.965 184.19C260.79 184.19 259.846 183.769 259.135 182.926C258.429 182.082 258.076 180.955 258.076 179.542V178.585C258.076 177.66 258.24 176.846 258.568 176.144C258.901 175.442 259.37 174.905 259.976 174.531C260.582 174.153 261.284 173.964 262.082 173.964C263.139 173.964 263.987 174.26 264.625 174.852C265.263 175.44 265.634 176.256 265.739 177.3H264.42C264.306 176.507 264.057 175.932 263.674 175.577C263.296 175.221 262.765 175.044 262.082 175.044C261.243 175.044 260.585 175.354 260.106 175.973C259.632 176.593 259.395 177.475 259.395 178.619V179.583C259.395 180.663 259.621 181.522 260.072 182.16C260.523 182.798 261.154 183.117 261.965 183.117C262.695 183.117 263.253 182.953 263.64 182.625C264.032 182.292 264.292 181.716 264.42 180.895H265.739ZM268.856 182.98H273.573V184.053H267.537V174.1H268.856V182.98ZM280.703 181.456H276.533L275.596 184.053H274.243L278.044 174.1H279.192L283 184.053H281.653L280.703 181.456ZM276.929 180.376H280.313L278.618 175.72L276.929 180.376ZM287.99 180.027H285.652V184.053H284.333V174.1H287.628C288.749 174.1 289.61 174.356 290.212 174.866C290.818 175.376 291.121 176.119 291.121 177.094C291.121 177.714 290.952 178.254 290.615 178.715C290.282 179.175 289.817 179.519 289.22 179.747L291.558 183.971V184.053H290.15L287.99 180.027ZM285.652 178.954H287.669C288.32 178.954 288.837 178.785 289.22 178.448C289.608 178.111 289.801 177.66 289.801 177.094C289.801 176.479 289.617 176.008 289.248 175.679C288.883 175.351 288.354 175.185 287.662 175.18H285.652V178.954ZM300.623 179.398C300.623 180.373 300.459 181.226 300.13 181.955C299.802 182.679 299.337 183.233 298.736 183.616C298.134 183.999 297.433 184.19 296.63 184.19C295.847 184.19 295.152 183.999 294.546 183.616C293.939 183.229 293.468 182.679 293.13 181.969C292.798 181.253 292.627 180.426 292.618 179.487V178.769C292.618 177.812 292.784 176.967 293.117 176.233C293.449 175.499 293.919 174.939 294.525 174.552C295.136 174.16 295.833 173.964 296.617 173.964C297.414 173.964 298.116 174.157 298.722 174.545C299.333 174.927 299.802 175.486 300.13 176.219C300.459 176.949 300.623 177.799 300.623 178.769V179.398ZM299.317 178.756C299.317 177.575 299.08 176.671 298.606 176.042C298.132 175.408 297.469 175.092 296.617 175.092C295.787 175.092 295.133 175.408 294.655 176.042C294.181 176.671 293.937 177.546 293.923 178.667V179.398C293.923 180.542 294.163 181.442 294.641 182.098C295.124 182.75 295.787 183.076 296.63 183.076C297.478 183.076 298.134 182.768 298.599 182.153C299.064 181.533 299.303 180.647 299.317 179.494V178.756Z" fill="#222222"/>
<defs>
<filter id="filter0_d" x="148.012" y="136.926" width="20.2772" height="20.9837" filterUnits="userSpaceOnUse" color-interpolation-filters="sRGB">
<feFlood flood-opacity="0" result="BackgroundImageFix"/>
<feColorMatrix in="SourceAlpha" type="matrix" values="0 0 0 0 0 0 0 0 0 0 0 0 0 0 0 0 0 0 127 0"/>
<feOffset dx="2.26087" dy="2.26087"/>
<feColorMatrix type="matrix" values="0 0 0 0 0 0 0 0 0 0 0 0 0 0 0 0 0 0 0.15 0"/>
<feBlend mode="normal" in2="BackgroundImageFix" result="effect1_dropShadow"/>
<feBlend mode="normal" in="SourceGraphic" in2="effect1_dropShadow" result="shape"/>
</filter>
</defs>
</svg>
