<svg width="24" height="24" viewBox="0 0 24 24" fill="none" xmlns="http://www.w3.org/2000/svg">
<path d="M20.7817 0H3.21446C2.88456 0 2.61719 0.267373 2.61719 0.597273V23.4028C2.61719 23.6399 2.75741 23.8545 2.97462 23.9497C3.19206 24.0449 3.44497 24.0027 3.61925 23.8419L5.69734 21.9255C5.92295 21.716 6.27105 21.7132 6.49993 21.919L7.86199 23.1348C8.54419 23.7449 9.57681 23.7421 10.2555 23.1282L11.5977 21.9171C11.825 21.7111 12.1712 21.7111 12.3982 21.9171L13.7407 23.1282C14.4194 23.7423 15.452 23.7451 16.134 23.1348L17.4963 21.919C17.7252 21.7132 18.0733 21.716 18.2989 21.9255L20.3767 23.8419C20.5512 24.0027 20.8041 24.0449 21.0214 23.9497C21.2386 23.8545 21.379 23.6399 21.379 23.4028V0.597273C21.379 0.267373 21.1114 0 20.7817 0ZM20.1845 22.0394L19.1087 21.0473C18.4318 20.4193 17.3878 20.4106 16.7007 21.0275L15.3386 22.2433C15.1112 22.4467 14.767 22.4458 14.5407 22.2412L13.1985 21.0301C12.5174 20.4127 11.4792 20.4127 10.798 21.0301L9.45549 22.2414C9.22918 22.4458 8.88505 22.4467 8.65781 22.2435L7.29551 21.0277C6.60865 20.4106 5.56459 20.4193 4.88776 21.0473L3.81197 22.0396V1.19478H20.1845V22.0396V22.0394Z" fill="white"/>
<path d="M8.00548 9.30441H15.6713C16.0012 9.30441 16.2686 9.03704 16.2686 8.70714C16.2686 8.37724 16.0012 8.10986 15.6713 8.10986H8.00548C7.67558 8.10986 7.4082 8.37724 7.4082 8.70714C7.4082 9.03704 7.67558 9.30441 8.00548 9.30441Z" fill="white"/>
<path d="M8.00548 13.4566H15.6713C16.0012 13.4566 16.2686 13.1893 16.2686 12.8594C16.2686 12.5295 16.0012 12.2621 15.6713 12.2621H8.00548C7.67558 12.2621 7.4082 12.5295 7.4082 12.8594C7.4082 13.1893 7.67558 13.4566 8.00548 13.4566Z" fill="white"/>
</svg>
