<svg width="285" height="75" viewBox="0 0 285 75" fill="none" xmlns="http://www.w3.org/2000/svg">
<rect x="0.5" y="0.5" width="284" height="74" rx="9.5" fill="white"/>
<rect width="217" height="28" transform="translate(30 6)" fill="white"/>
<path d="M35.7373 19.2047H38.1297V21.2324H35.7373V23.9757H33.5272V21.2324H31.1277V19.2047H33.5272V16.5386H35.7373V19.2047ZM47.9312 25H45.5598V17.4507L43.2304 18.1313V16.3351L47.7137 14.7846H47.9312V25ZM58.1045 20.8254C58.1045 22.2053 57.7935 23.2694 57.1714 24.0177C56.554 24.7661 55.6816 25.1403 54.5544 25.1403C53.4178 25.1403 52.5384 24.7638 51.9163 24.0107C51.2942 23.2577 50.9832 22.1959 50.9832 20.8254V18.9592C50.9832 17.5793 51.2919 16.5152 51.9093 15.7668C52.5314 15.0185 53.4084 14.6443 54.5403 14.6443C55.6723 14.6443 56.5493 15.0208 57.1714 15.7739C57.7935 16.5269 58.1045 17.591 58.1045 18.9662V20.8254ZM55.7401 18.6575C55.7401 17.9231 55.6442 17.3759 55.4524 17.0157C55.2607 16.6509 54.9566 16.4684 54.5403 16.4684C54.1334 16.4684 53.8364 16.6368 53.6493 16.9736C53.4669 17.3104 53.3687 17.8202 53.3546 18.5031V21.1131C53.3546 21.8755 53.4505 22.4345 53.6423 22.7899C53.8341 23.1407 54.1381 23.3161 54.5544 23.3161C54.9566 23.3161 55.2537 23.1454 55.4454 22.804C55.6372 22.4578 55.7354 21.9176 55.7401 21.1833V18.6575ZM71.421 23.7371C71.0422 24.1581 70.4879 24.4972 69.7582 24.7544C69.0286 25.0117 68.2287 25.1403 67.3587 25.1403C66.021 25.1403 64.9522 24.7311 64.1524 23.9125C63.3525 23.094 62.9246 21.955 62.8684 20.4957L62.8614 19.6117C62.8614 18.606 63.0392 17.729 63.3946 16.9806C63.7501 16.2276 64.2576 15.6499 64.9171 15.2476C65.5813 14.8407 66.3484 14.6372 67.2184 14.6372C68.4907 14.6372 69.4776 14.9296 70.1792 15.5143C70.8855 16.0943 71.2971 16.9619 71.414 18.1172H69.0426C68.9584 17.5466 68.776 17.1397 68.4953 16.8964C68.2147 16.6532 67.8171 16.5316 67.3026 16.5316C66.6852 16.5316 66.2081 16.7935 65.8713 17.3174C65.5345 17.8413 65.3638 18.5896 65.3591 19.5625V20.18C65.3591 21.1996 65.5322 21.9667 65.8783 22.4812C66.2291 22.9911 66.7787 23.246 67.5271 23.246C68.1679 23.246 68.645 23.1033 68.9584 22.818V21.2324H67.2465V19.5415H71.421V23.7371ZM75.4763 25H73.0207V14.7846H75.4763V25ZM85.5514 23.7371C85.1726 24.1581 84.6183 24.4972 83.8886 24.7544C83.1589 25.0117 82.3591 25.1403 81.4891 25.1403C80.1514 25.1403 79.0826 24.7311 78.2828 23.9125C77.4829 23.094 77.0549 21.955 76.9988 20.4957L76.9918 19.6117C76.9918 18.606 77.1695 17.729 77.525 16.9806C77.8805 16.2276 78.388 15.6499 79.0475 15.2476C79.7117 14.8407 80.4788 14.6372 81.3488 14.6372C82.621 14.6372 83.608 14.9296 84.3096 15.5143C85.0159 16.0943 85.4275 16.9619 85.5444 18.1172H83.173C83.0888 17.5466 82.9064 17.1397 82.6257 16.8964C82.3451 16.6532 81.9475 16.5316 81.433 16.5316C80.8156 16.5316 80.3385 16.7935 80.0017 17.3174C79.6649 17.8413 79.4942 18.5896 79.4895 19.5625V20.18C79.4895 21.1996 79.6626 21.9667 80.0087 22.4812C80.3595 22.9911 80.9091 23.246 81.6575 23.246C82.2983 23.246 82.7754 23.1033 83.0888 22.818V21.2324H81.3769V19.5415H85.5514V23.7371ZM92.785 23.0916H89.4103L88.8209 25H86.1899L89.9365 14.7846H92.2518L96.0264 25H93.3814L92.785 23.0916ZM89.9996 21.1903H92.1956L91.0941 17.6471L89.9996 21.1903ZM102.046 22.2848C102.046 21.9246 101.918 21.644 101.66 21.4428C101.408 21.2417 100.961 21.0336 100.32 20.8184C99.6795 20.6033 99.1556 20.3951 98.7487 20.194C97.425 19.5438 96.7631 18.6504 96.7631 17.5138C96.7631 16.9479 96.9268 16.4497 97.2542 16.0194C97.5863 15.5844 98.0541 15.2476 98.6575 15.0091C99.2608 14.7659 99.9391 14.6443 100.692 14.6443C101.426 14.6443 102.084 14.7752 102.664 15.0372C103.248 15.2991 103.702 15.6733 104.025 16.1597C104.347 16.6415 104.509 17.1934 104.509 17.8155H102.053C102.053 17.3992 101.925 17.0765 101.667 16.8473C101.415 16.6181 101.071 16.5035 100.636 16.5035C100.196 16.5035 99.8479 16.6018 99.5906 16.7982C99.338 16.99 99.2117 17.2355 99.2117 17.5349C99.2117 17.7968 99.352 18.0354 99.6327 18.2505C99.9133 18.461 100.407 18.6809 101.113 18.91C101.819 19.1346 102.399 19.3778 102.853 19.6397C103.957 20.2758 104.509 21.1528 104.509 22.2707C104.509 23.1641 104.172 23.8657 103.499 24.3756C102.825 24.8854 101.901 25.1403 100.727 25.1403C99.8993 25.1403 99.1486 24.993 98.475 24.6983C97.8062 24.399 97.301 23.992 96.9596 23.4775C96.6228 22.9583 96.4544 22.362 96.4544 21.6884H98.9241C98.9241 22.2357 99.0644 22.6403 99.345 22.9022C99.6304 23.1594 100.091 23.2881 100.727 23.2881C101.134 23.2881 101.455 23.2015 101.688 23.0285C101.927 22.8507 102.046 22.6028 102.046 22.2848Z" fill="#222222" fill-opacity="0.8"/>
<path d="M180.971 12.949H177.173V16.055H181.585V17H176.017V8.23597H181.525V9.18701H177.173V12.004H180.971V12.949ZM185.034 12.8648L186.479 10.4872H187.779L185.648 13.7075L187.845 17H186.557L185.052 14.5622L183.547 17H182.253L184.45 13.7075L182.319 10.4872H183.608L185.034 12.8648ZM191.457 16.2115C191.854 16.2115 192.201 16.0911 192.498 15.8503C192.795 15.6096 192.959 15.3086 192.992 14.9474H194.045C194.025 15.3206 193.896 15.6758 193.66 16.0128C193.423 16.3499 193.106 16.6188 192.709 16.8194C192.315 17.0201 191.898 17.1204 191.457 17.1204C190.57 17.1204 189.864 16.8254 189.338 16.2356C188.816 15.6417 188.555 14.8311 188.555 13.8038V13.6172C188.555 12.9832 188.672 12.4194 188.904 11.9258C189.137 11.4322 189.47 11.049 189.904 10.7761C190.341 10.5032 190.857 10.3668 191.451 10.3668C192.181 10.3668 192.787 10.5855 193.268 11.0229C193.754 11.4603 194.013 12.0281 194.045 12.7263H192.992C192.959 12.305 192.799 11.9599 192.51 11.691C192.225 11.4181 191.872 11.2817 191.451 11.2817C190.885 11.2817 190.445 11.4864 190.132 11.8957C189.823 12.301 189.669 12.8889 189.669 13.6593V13.87C189.669 14.6204 189.823 15.1982 190.132 15.6035C190.441 16.0088 190.883 16.2115 191.457 16.2115ZM196.507 17H195.393V7.75443H196.507V17ZM202.315 16.3559C201.882 16.8656 201.246 17.1204 200.407 17.1204C199.713 17.1204 199.183 16.9197 198.818 16.5185C198.457 16.1132 198.274 15.5153 198.27 14.7247V10.4872H199.384V14.6946C199.384 15.6818 199.785 16.1754 200.588 16.1754C201.439 16.1754 202.004 15.8583 202.285 15.2243V10.4872H203.399V17H202.339L202.315 16.3559ZM208.888 15.2725C208.888 14.9715 208.774 14.7388 208.545 14.5742C208.321 14.4057 207.925 14.2612 207.359 14.1409C206.798 14.0205 206.35 13.876 206.017 13.7075C205.688 13.5389 205.443 13.3383 205.283 13.1055C205.126 12.8728 205.048 12.5959 205.048 12.2749C205.048 11.7412 205.273 11.2897 205.722 10.9206C206.176 10.5514 206.754 10.3668 207.456 10.3668C208.194 10.3668 208.792 10.5574 209.25 10.9386C209.711 11.3198 209.942 11.8074 209.942 12.4013H208.822C208.822 12.0963 208.692 11.8335 208.431 11.6128C208.174 11.3921 207.849 11.2817 207.456 11.2817C207.05 11.2817 206.733 11.37 206.505 11.5466C206.276 11.7231 206.162 11.9539 206.162 12.2388C206.162 12.5076 206.268 12.7103 206.481 12.8467C206.693 12.9832 207.077 13.1136 207.63 13.238C208.188 13.3624 208.64 13.5108 208.985 13.6834C209.33 13.8559 209.585 14.0646 209.749 14.3094C209.918 14.5502 210.002 14.8451 210.002 15.1942C210.002 15.7761 209.769 16.2436 209.304 16.5967C208.838 16.9458 208.234 17.1204 207.492 17.1204C206.97 17.1204 206.509 17.0281 206.107 16.8435C205.706 16.6589 205.391 16.4021 205.162 16.073C204.938 15.74 204.825 15.3808 204.825 14.9956H205.939C205.959 15.3688 206.107 15.6657 206.384 15.8864C206.665 16.1031 207.034 16.2115 207.492 16.2115C207.913 16.2115 208.25 16.1272 208.503 15.9587C208.76 15.7861 208.888 15.5574 208.888 15.2725ZM212.662 17H211.549V10.4872H212.662V17ZM211.459 8.75965C211.459 8.57907 211.513 8.42658 211.621 8.30219C211.733 8.17779 211.898 8.11559 212.115 8.11559C212.331 8.11559 212.496 8.17779 212.608 8.30219C212.721 8.42658 212.777 8.57907 212.777 8.75965C212.777 8.94023 212.721 9.09071 212.608 9.21109C212.496 9.33148 212.331 9.39167 212.115 9.39167C211.898 9.39167 211.733 9.33148 211.621 9.21109C211.513 9.09071 211.459 8.94023 211.459 8.75965ZM216.599 15.4892L218.212 10.4872H219.35L217.014 17H216.166L213.806 10.4872H214.944L216.599 15.4892ZM220.03 13.6834C220.03 13.0454 220.154 12.4715 220.403 11.9619C220.656 11.4523 221.005 11.059 221.451 10.7821C221.9 10.5052 222.412 10.3668 222.985 10.3668C223.872 10.3668 224.589 10.6738 225.134 11.2877C225.684 11.9017 225.959 12.7183 225.959 13.7376V13.8158C225.959 14.4498 225.837 15.0197 225.592 15.5253C225.351 16.0269 225.004 16.4181 224.55 16.699C224.101 16.9799 223.583 17.1204 222.997 17.1204C222.115 17.1204 221.398 16.8134 220.849 16.1994C220.303 15.5855 220.03 14.7729 220.03 13.7616V13.6834ZM221.15 13.8158C221.15 14.5381 221.316 15.118 221.649 15.5554C221.986 15.9928 222.436 16.2115 222.997 16.2115C223.563 16.2115 224.013 15.9908 224.346 15.5494C224.679 15.1039 224.845 14.4819 224.845 13.6834C224.845 12.9691 224.675 12.3913 224.334 11.9499C223.997 11.5044 223.547 11.2817 222.985 11.2817C222.436 11.2817 221.992 11.5004 221.655 11.9378C221.318 12.3752 221.15 13.0012 221.15 13.8158Z" fill="#222222" fill-opacity="0.8"/>
<path d="M181.531 27.8038C181.531 28.807 181.302 29.6116 180.845 30.2175C180.391 30.8194 179.777 31.1204 179.003 31.1204C178.345 31.1204 177.813 30.8917 177.408 30.4342V33.504H175.668V24.4872H177.281L177.341 25.1252C177.763 24.6196 178.313 24.3668 178.991 24.3668C179.793 24.3668 180.417 24.6637 180.863 25.2576C181.308 25.8515 181.531 26.6702 181.531 27.7135V27.8038ZM179.791 27.6774C179.791 27.0714 179.683 26.6039 179.466 26.2749C179.254 25.9458 178.943 25.7813 178.533 25.7813C177.988 25.7813 177.612 25.99 177.408 26.4073V29.0738C177.62 29.5032 178 29.7179 178.545 29.7179C179.376 29.7179 179.791 29.0377 179.791 27.6774ZM186.388 31C186.308 30.8435 186.25 30.6489 186.214 30.4161C185.793 30.8856 185.245 31.1204 184.571 31.1204C183.933 31.1204 183.403 30.9358 182.982 30.5666C182.564 30.1974 182.356 29.7319 182.356 29.1701C182.356 28.4799 182.61 27.9502 183.12 27.5811C183.634 27.2119 184.374 27.0253 185.341 27.0213H186.142V26.6481C186.142 26.3471 186.063 26.1064 185.907 25.9258C185.754 25.7452 185.512 25.6549 185.179 25.6549C184.886 25.6549 184.655 25.7251 184.486 25.8656C184.322 26.006 184.24 26.1986 184.24 26.4434H182.5C182.5 26.0662 182.616 25.7171 182.849 25.3961C183.082 25.0751 183.411 24.8243 183.836 24.6437C184.262 24.4591 184.739 24.3668 185.269 24.3668C186.071 24.3668 186.707 24.5694 187.177 24.9747C187.65 25.376 187.887 25.9418 187.887 26.6722V29.4952C187.891 30.1132 187.978 30.5807 188.146 30.8977V31H186.388ZM184.95 29.7901C185.207 29.7901 185.443 29.734 185.66 29.6216C185.877 29.5052 186.037 29.3507 186.142 29.1581V28.0385H185.492C184.621 28.0385 184.157 28.3395 184.101 28.9414L184.095 29.0437C184.095 29.2604 184.171 29.439 184.324 29.5795C184.476 29.7199 184.685 29.7901 184.95 29.7901ZM192.883 26.1184C192.646 26.0863 192.438 26.0702 192.257 26.0702C191.599 26.0702 191.168 26.2929 190.963 26.7384V31H189.223V24.4872H190.867L190.915 25.2637C191.264 24.6657 191.748 24.3668 192.366 24.3668C192.558 24.3668 192.739 24.3929 192.907 24.445L192.883 26.1184ZM197.319 31C197.239 30.8435 197.181 30.6489 197.145 30.4161C196.723 30.8856 196.176 31.1204 195.502 31.1204C194.864 31.1204 194.334 30.9358 193.912 30.5666C193.495 30.1974 193.286 29.7319 193.286 29.1701C193.286 28.4799 193.541 27.9502 194.051 27.5811C194.565 27.2119 195.305 27.0253 196.272 27.0213H197.073V26.6481C197.073 26.3471 196.994 26.1064 196.838 25.9258C196.685 25.7452 196.443 25.6549 196.11 25.6549C195.817 25.6549 195.586 25.7251 195.417 25.8656C195.253 26.006 195.171 26.1986 195.171 26.4434H193.431C193.431 26.0662 193.547 25.7171 193.78 25.3961C194.013 25.0751 194.342 24.8243 194.767 24.6437C195.193 24.4591 195.67 24.3668 196.2 24.3668C197.002 24.3668 197.638 24.5694 198.108 24.9747C198.581 25.376 198.818 25.9418 198.818 26.6722V29.4952C198.822 30.1132 198.908 30.5807 199.077 30.8977V31H197.319ZM195.881 29.7901C196.138 29.7901 196.374 29.734 196.591 29.6216C196.808 29.5052 196.968 29.3507 197.073 29.1581V28.0385H196.423C195.552 28.0385 195.088 28.3395 195.032 28.9414L195.026 29.0437C195.026 29.2604 195.102 29.439 195.255 29.5795C195.407 29.7199 195.616 29.7901 195.881 29.7901ZM206.884 26.1184C206.647 26.0863 206.439 26.0702 206.258 26.0702C205.6 26.0702 205.168 26.2929 204.964 26.7384V31H203.224V24.4872H204.868L204.916 25.2637C205.265 24.6657 205.748 24.3668 206.366 24.3668C206.559 24.3668 206.739 24.3929 206.908 24.445L206.884 26.1184ZM210.604 31.1204C209.649 31.1204 208.87 30.8274 208.268 30.2416C207.67 29.6557 207.372 28.8752 207.372 27.9001V27.7315C207.372 27.0775 207.498 26.4936 207.751 25.9799C208.004 25.4623 208.361 25.065 208.822 24.7881C209.288 24.5072 209.817 24.3668 210.411 24.3668C211.302 24.3668 212.002 24.6477 212.512 25.2095C213.026 25.7713 213.282 26.5678 213.282 27.5991V28.3094H209.135C209.191 28.7348 209.36 29.0758 209.641 29.3327C209.926 29.5895 210.285 29.7179 210.718 29.7179C211.388 29.7179 211.912 29.4751 212.289 28.9896L213.144 29.9466C212.883 30.3158 212.53 30.6047 212.085 30.8134C211.639 31.0181 211.146 31.1204 210.604 31.1204ZM210.405 25.7753C210.06 25.7753 209.779 25.8917 209.563 26.1244C209.35 26.3572 209.213 26.6902 209.153 27.1236H211.573V26.9852C211.565 26.5999 211.461 26.303 211.26 26.0943C211.059 25.8816 210.774 25.7753 210.405 25.7753ZM214.005 27.6954C214.005 26.6802 214.231 25.8716 214.685 25.2697C215.142 24.6677 215.766 24.3668 216.557 24.3668C217.191 24.3668 217.715 24.6035 218.128 25.0771V21.7544H219.874V31H218.302L218.218 30.3078C217.785 30.8495 217.227 31.1204 216.545 31.1204C215.778 31.1204 215.162 30.8194 214.697 30.2175C214.235 29.6116 214.005 28.7709 214.005 27.6954ZM215.744 27.8218C215.744 28.4318 215.851 28.8993 216.063 29.2243C216.276 29.5494 216.585 29.7119 216.99 29.7119C217.528 29.7119 217.907 29.4852 218.128 29.0317V26.4615C217.911 26.008 217.536 25.7813 217.002 25.7813C216.164 25.7813 215.744 26.4615 215.744 27.8218ZM224.219 31.1204C223.264 31.1204 222.486 30.8274 221.884 30.2416C221.286 29.6557 220.987 28.8752 220.987 27.9001V27.7315C220.987 27.0775 221.113 26.4936 221.366 25.9799C221.619 25.4623 221.976 25.065 222.438 24.7881C222.903 24.5072 223.433 24.3668 224.027 24.3668C224.918 24.3668 225.618 24.6477 226.128 25.2095C226.641 25.7713 226.898 26.5678 226.898 27.5991V28.3094H222.751C222.807 28.7348 222.975 29.0758 223.256 29.3327C223.541 29.5895 223.9 29.7179 224.334 29.7179C225.004 29.7179 225.528 29.4751 225.905 28.9896L226.76 29.9466C226.499 30.3158 226.146 30.6047 225.7 30.8134C225.255 31.0181 224.761 31.1204 224.219 31.1204ZM224.021 25.7753C223.676 25.7753 223.395 25.8917 223.178 26.1244C222.965 26.3572 222.829 26.6902 222.769 27.1236H225.188V26.9852C225.18 26.5999 225.076 26.303 224.875 26.0943C224.675 25.8816 224.39 25.7753 224.021 25.7753ZM231.418 29.2002C231.418 28.9876 231.312 28.821 231.099 28.7006C230.891 28.5762 230.554 28.4659 230.088 28.3696C228.539 28.0445 227.765 27.3864 227.765 26.3953C227.765 25.8174 228.004 25.3359 228.481 24.9507C228.963 24.5614 229.591 24.3668 230.365 24.3668C231.192 24.3668 231.852 24.5614 232.345 24.9507C232.843 25.3399 233.092 25.8455 233.092 26.4675H231.352C231.352 26.2187 231.272 26.0141 231.111 25.8535C230.951 25.689 230.7 25.6068 230.359 25.6068C230.066 25.6068 229.839 25.673 229.679 25.8054C229.518 25.9378 229.438 26.1064 229.438 26.311C229.438 26.5036 229.528 26.6601 229.709 26.7805C229.894 26.8969 230.203 26.9992 230.636 27.0875C231.069 27.1718 231.434 27.2681 231.731 27.3764C232.65 27.7135 233.11 28.2974 233.11 29.128C233.11 29.7219 232.855 30.2035 232.345 30.5726C231.836 30.9378 231.178 31.1204 230.371 31.1204C229.825 31.1204 229.34 31.0241 228.914 30.8315C228.493 30.6348 228.162 30.368 227.921 30.0309C227.68 29.6898 227.56 29.3226 227.56 28.9294H229.209C229.225 29.2384 229.34 29.4751 229.552 29.6396C229.765 29.8042 230.05 29.8864 230.407 29.8864C230.74 29.8864 230.991 29.8242 231.16 29.6998C231.332 29.5714 231.418 29.4049 231.418 29.2002Z" fill="#EE392A"/>
<rect width="216" height="28" transform="translate(30.5 41)" fill="white"/>
<path d="M36.2373 54.2047H38.6297V56.2324H36.2373V58.9757H34.0272V56.2324H31.6277V54.2047H34.0272V51.5386H36.2373V54.2047ZM48.4312 60H46.0598V52.4507L43.7304 53.1313V51.3351L48.2137 49.7846H48.4312V60ZM51.6516 55.0046L52.276 49.7846H58.2467V51.6228H54.1984L53.9669 53.6504C54.1353 53.5522 54.3551 53.4657 54.6264 53.3909C54.9024 53.316 55.1713 53.2786 55.4332 53.2786C56.4482 53.2786 57.227 53.5803 57.7696 54.1837C58.3169 54.7824 58.5905 55.6243 58.5905 56.7095C58.5905 57.3643 58.4431 57.9583 58.1485 58.4915C57.8585 59.0201 57.4492 59.427 56.9207 59.7123C56.3921 59.9977 55.7677 60.1403 55.0474 60.1403C54.4066 60.1403 53.8055 60.0094 53.2442 59.7474C52.6829 59.4808 52.2433 59.1183 51.9252 58.6599C51.6071 58.1969 51.4505 57.6753 51.4551 57.0953H53.8266C53.85 57.4695 53.9692 57.7665 54.1844 57.9864C54.3995 58.2062 54.6825 58.3161 55.0333 58.3161C55.8285 58.3161 56.2261 57.7268 56.2261 56.5481C56.2261 55.4583 55.7396 54.9133 54.7667 54.9133C54.2148 54.9133 53.8032 55.0911 53.5319 55.4466L51.6516 55.0046ZM71.921 58.7371C71.5422 59.1581 70.9879 59.4972 70.2582 59.7544C69.5286 60.0117 68.7287 60.1403 67.8587 60.1403C66.521 60.1403 65.4522 59.7311 64.6524 58.9125C63.8525 58.094 63.4246 56.955 63.3684 55.4957L63.3614 54.6117C63.3614 53.606 63.5392 52.729 63.8946 51.9806C64.2501 51.2276 64.7576 50.6499 65.4171 50.2476C66.0813 49.8407 66.8484 49.6372 67.7184 49.6372C68.9907 49.6372 69.9776 49.9296 70.6792 50.5143C71.3855 51.0943 71.7971 51.9619 71.914 53.1172H69.5426C69.4584 52.5466 69.276 52.1397 68.9953 51.8964C68.7147 51.6532 68.3171 51.5316 67.8026 51.5316C67.1852 51.5316 66.7081 51.7935 66.3713 52.3174C66.0345 52.8413 65.8638 53.5896 65.8591 54.5625V55.18C65.8591 56.1996 66.0322 56.9667 66.3783 57.4812C66.7291 57.9911 67.2787 58.246 68.0271 58.246C68.6679 58.246 69.145 58.1033 69.4584 57.818V56.2324H67.7465V54.5415H71.921V58.7371ZM75.9763 60H73.5207V49.7846H75.9763V60ZM86.0514 58.7371C85.6726 59.1581 85.1183 59.4972 84.3886 59.7544C83.6589 60.0117 82.8591 60.1403 81.9891 60.1403C80.6514 60.1403 79.5826 59.7311 78.7828 58.9125C77.9829 58.094 77.5549 56.955 77.4988 55.4957L77.4918 54.6117C77.4918 53.606 77.6695 52.729 78.025 51.9806C78.3805 51.2276 78.888 50.6499 79.5475 50.2476C80.2117 49.8407 80.9788 49.6372 81.8488 49.6372C83.121 49.6372 84.108 49.9296 84.8096 50.5143C85.5159 51.0943 85.9275 51.9619 86.0444 53.1172H83.673C83.5888 52.5466 83.4064 52.1397 83.1257 51.8964C82.8451 51.6532 82.4475 51.5316 81.933 51.5316C81.3156 51.5316 80.8385 51.7935 80.5017 52.3174C80.1649 52.8413 79.9942 53.5896 79.9895 54.5625V55.18C79.9895 56.1996 80.1626 56.9667 80.5087 57.4812C80.8595 57.9911 81.4091 58.246 82.1575 58.246C82.7983 58.246 83.2754 58.1033 83.5888 57.818V56.2324H81.8769V54.5415H86.0514V58.7371ZM93.285 58.0916H89.9103L89.3209 60H86.6899L90.4365 49.7846H92.7518L96.5264 60H93.8814L93.285 58.0916ZM90.4996 56.1903H92.6956L91.5941 52.6471L90.4996 56.1903ZM102.546 57.2848C102.546 56.9246 102.418 56.644 102.16 56.4428C101.908 56.2417 101.461 56.0336 100.82 55.8184C100.179 55.6033 99.6556 55.3951 99.2487 55.194C97.925 54.5438 97.2631 53.6504 97.2631 52.5138C97.2631 51.9479 97.4268 51.4497 97.7542 51.0194C98.0863 50.5844 98.5541 50.2476 99.1575 50.0091C99.7608 49.7659 100.439 49.6443 101.192 49.6443C101.926 49.6443 102.584 49.7752 103.164 50.0372C103.748 50.2991 104.202 50.6733 104.525 51.1597C104.847 51.6415 105.009 52.1934 105.009 52.8155H102.553C102.553 52.3992 102.425 52.0765 102.167 51.8473C101.915 51.6181 101.571 51.5035 101.136 51.5035C100.696 51.5035 100.348 51.6018 100.091 51.7982C99.838 51.99 99.7117 52.2355 99.7117 52.5349C99.7117 52.7968 99.852 53.0354 100.133 53.2505C100.413 53.461 100.907 53.6809 101.613 53.91C102.319 54.1346 102.899 54.3778 103.353 54.6397C104.457 55.2758 105.009 56.1528 105.009 57.2707C105.009 58.1641 104.672 58.8657 103.999 59.3756C103.325 59.8854 102.401 60.1403 101.227 60.1403C100.399 60.1403 99.6486 59.993 98.975 59.6983C98.3062 59.399 97.801 58.992 97.4596 58.4775C97.1228 57.9583 96.9544 57.362 96.9544 56.6884H99.4241C99.4241 57.2357 99.5644 57.6403 99.845 57.9022C100.13 58.1594 100.591 58.2881 101.227 58.2881C101.634 58.2881 101.955 58.2015 102.188 58.0285C102.427 57.8507 102.546 57.6028 102.546 57.2848Z" fill="#222222" fill-opacity="0.8"/>
<path d="M175.517 52V43.236H177.991C178.754 43.236 179.428 43.4045 180.014 43.7416C180.6 44.0787 181.051 44.5582 181.368 45.1802C181.689 45.8022 181.852 46.5165 181.856 47.323V47.8828C181.856 48.7095 181.695 49.4338 181.374 50.0558C181.057 50.6778 180.602 51.1553 180.008 51.4884C179.418 51.8214 178.73 51.992 177.943 52H175.517ZM176.673 44.187V51.055H177.889C178.78 51.055 179.472 50.7781 179.965 50.2243C180.463 49.6706 180.712 48.882 180.712 47.8588V47.3471C180.712 46.3519 180.477 45.5795 180.008 45.0297C179.542 44.4759 178.88 44.195 178.021 44.187H176.673ZM186.135 52.1204C185.252 52.1204 184.534 51.8315 183.98 51.2536C183.427 50.6718 183.15 49.8953 183.15 48.9242V48.7195C183.15 48.0734 183.272 47.4976 183.517 46.992C183.766 46.4824 184.111 46.0851 184.552 45.8002C184.998 45.5112 185.479 45.3668 185.997 45.3668C186.843 45.3668 187.502 45.6457 187.971 46.2035C188.441 46.7612 188.675 47.5598 188.675 48.5991V49.0626H184.263C184.279 49.7047 184.466 50.2243 184.823 50.6216C185.184 51.0148 185.642 51.2115 186.195 51.2115C186.589 51.2115 186.922 51.1312 187.195 50.9707C187.467 50.8102 187.706 50.5975 187.911 50.3327L188.591 50.8624C188.045 51.701 187.227 52.1204 186.135 52.1204ZM185.997 46.2817C185.547 46.2817 185.17 46.4462 184.865 46.7753C184.56 47.1003 184.372 47.5578 184.299 48.1477H187.562V48.0634C187.53 47.4976 187.377 47.0602 187.104 46.7512C186.831 46.4382 186.462 46.2817 185.997 46.2817ZM196.175 46.4864C196.007 46.4583 195.824 46.4442 195.628 46.4442C194.897 46.4442 194.402 46.7552 194.141 47.3772V52H193.027V45.4872H194.111L194.129 46.2396C194.494 45.6577 195.012 45.3668 195.682 45.3668C195.898 45.3668 196.063 45.3949 196.175 45.4511V46.4864ZM199.787 52.1204C198.904 52.1204 198.186 51.8315 197.632 51.2536C197.078 50.6718 196.801 49.8953 196.801 48.9242V48.7195C196.801 48.0734 196.924 47.4976 197.168 46.992C197.417 46.4824 197.762 46.0851 198.204 45.8002C198.649 45.5112 199.131 45.3668 199.648 45.3668C200.495 45.3668 201.153 45.6457 201.623 46.2035C202.092 46.7612 202.327 47.5598 202.327 48.5991V49.0626H197.915C197.931 49.7047 198.118 50.2243 198.475 50.6216C198.836 51.0148 199.293 51.2115 199.847 51.2115C200.24 51.2115 200.573 51.1312 200.846 50.9707C201.119 50.8102 201.358 50.5975 201.563 50.3327L202.243 50.8624C201.697 51.701 200.878 52.1204 199.787 52.1204ZM199.648 46.2817C199.199 46.2817 198.822 46.4462 198.517 46.7753C198.212 47.1003 198.023 47.5578 197.951 48.1477H201.213V48.0634C201.181 47.4976 201.029 47.0602 200.756 46.7512C200.483 46.4382 200.114 46.2817 199.648 46.2817ZM203.356 48.6894C203.356 47.6742 203.591 46.8676 204.061 46.2697C204.53 45.6677 205.152 45.3668 205.926 45.3668C206.721 45.3668 207.341 45.6477 207.786 46.2095L207.841 45.4872H208.858V51.8435C208.858 52.6862 208.607 53.3503 208.105 53.8359C207.608 54.3214 206.938 54.5642 206.095 54.5642C205.626 54.5642 205.166 54.4639 204.717 54.2632C204.267 54.0626 203.924 53.7877 203.687 53.4386L204.265 52.7705C204.743 53.3604 205.327 53.6553 206.017 53.6553C206.559 53.6553 206.98 53.5028 207.281 53.1978C207.586 52.8929 207.738 52.4635 207.738 51.9097V51.3499C207.293 51.8636 206.685 52.1204 205.914 52.1204C205.152 52.1204 204.534 51.8134 204.061 51.1994C203.591 50.5855 203.356 49.7488 203.356 48.6894ZM204.476 48.8158C204.476 49.5502 204.626 50.128 204.927 50.5494C205.228 50.9667 205.65 51.1754 206.191 51.1754C206.894 51.1754 207.409 50.8563 207.738 50.2183V47.2448C207.397 46.6228 206.886 46.3118 206.203 46.3118C205.662 46.3118 205.238 46.5225 204.933 46.9438C204.628 47.3652 204.476 47.9892 204.476 48.8158ZM214.564 52C214.5 51.8716 214.448 51.6429 214.408 51.3138C213.89 51.8515 213.272 52.1204 212.554 52.1204C211.912 52.1204 211.384 51.9398 210.971 51.5787C210.561 51.2135 210.357 50.752 210.357 50.1942C210.357 49.5161 210.613 48.9904 211.127 48.6172C211.645 48.24 212.371 48.0514 213.306 48.0514H214.39V47.5397C214.39 47.1505 214.273 46.8415 214.04 46.6128C213.808 46.38 213.465 46.2637 213.011 46.2637C212.614 46.2637 212.281 46.364 212.012 46.5646C211.743 46.7653 211.609 47.008 211.609 47.2929H210.489C210.489 46.9679 210.603 46.6549 210.832 46.3539C211.065 46.049 211.378 45.8082 211.771 45.6316C212.168 45.4551 212.604 45.3668 213.077 45.3668C213.828 45.3668 214.416 45.5554 214.841 45.9326C215.266 46.3058 215.487 46.8214 215.503 47.4795V50.4771C215.503 51.075 215.579 51.5506 215.732 51.9037V52H214.564ZM212.716 51.1513C213.065 51.1513 213.396 51.061 213.709 50.8804C214.022 50.6998 214.249 50.4651 214.39 50.1762V48.8399H213.517C212.152 48.8399 211.47 49.2392 211.47 50.0377C211.47 50.3868 211.587 50.6597 211.819 50.8563C212.052 51.053 212.351 51.1513 212.716 51.1513ZM218.459 52H217.345V42.7544H218.459V52ZM219.951 48.6834C219.951 48.0454 220.076 47.4715 220.325 46.9619C220.577 46.4523 220.926 46.059 221.372 45.7821C221.821 45.5052 222.333 45.3668 222.907 45.3668C223.794 45.3668 224.51 45.6738 225.056 46.2877C225.605 46.9017 225.88 47.7183 225.88 48.7376V48.8158C225.88 49.4498 225.758 50.0197 225.513 50.5253C225.272 51.0269 224.925 51.4181 224.472 51.699C224.022 51.9799 223.505 52.1204 222.919 52.1204C222.036 52.1204 221.32 51.8134 220.77 51.1994C220.224 50.5855 219.951 49.7729 219.951 48.7616V48.6834ZM221.071 48.8158C221.071 49.5381 221.237 50.118 221.571 50.5554C221.908 50.9928 222.357 51.2115 222.919 51.2115C223.485 51.2115 223.934 50.9908 224.267 50.5494C224.6 50.1039 224.767 49.4819 224.767 48.6834C224.767 47.9691 224.596 47.3913 224.255 46.9499C223.918 46.5044 223.469 46.2817 222.907 46.2817C222.357 46.2817 221.914 46.5004 221.577 46.9378C221.239 47.3752 221.071 48.0012 221.071 48.8158Z" fill="#222222" fill-opacity="0.8"/>
<path d="M181.031 62.8038C181.031 63.807 180.802 64.6116 180.345 65.2175C179.891 65.8194 179.277 66.1204 178.503 66.1204C177.845 66.1204 177.313 65.8917 176.908 65.4342V68.504H175.168V59.4872H176.781L176.841 60.1252C177.263 59.6196 177.813 59.3668 178.491 59.3668C179.293 59.3668 179.917 59.6637 180.363 60.2576C180.808 60.8515 181.031 61.6702 181.031 62.7135V62.8038ZM179.291 62.6774C179.291 62.0714 179.183 61.6039 178.966 61.2749C178.754 60.9458 178.443 60.7813 178.033 60.7813C177.488 60.7813 177.112 60.99 176.908 61.4073V64.0738C177.12 64.5032 177.5 64.7179 178.045 64.7179C178.876 64.7179 179.291 64.0377 179.291 62.6774ZM181.843 62.6834C181.843 62.0373 181.968 61.4615 182.217 60.9559C182.465 60.4503 182.823 60.059 183.288 59.7821C183.758 59.5052 184.301 59.3668 184.919 59.3668C185.798 59.3668 186.514 59.6356 187.068 60.1734C187.626 60.7111 187.937 61.4414 188.001 62.3644L188.013 62.8098C188.013 63.809 187.734 64.6116 187.177 65.2175C186.619 65.8194 185.87 66.1204 184.931 66.1204C183.992 66.1204 183.242 65.8194 182.68 65.2175C182.122 64.6156 181.843 63.797 181.843 62.7616V62.6834ZM183.583 62.8098C183.583 63.4278 183.699 63.9013 183.932 64.2303C184.165 64.5554 184.498 64.7179 184.931 64.7179C185.353 64.7179 185.682 64.5574 185.919 64.2364C186.155 63.9113 186.274 63.3937 186.274 62.6834C186.274 62.0775 186.155 61.608 185.919 61.2749C185.682 60.9418 185.349 60.7753 184.919 60.7753C184.494 60.7753 184.165 60.9418 183.932 61.2749C183.699 61.6039 183.583 62.1156 183.583 62.8098ZM192.744 61.1184C192.508 61.0863 192.299 61.0702 192.118 61.0702C191.46 61.0702 191.029 61.2929 190.824 61.7384V66H189.085V59.4872H190.728L190.776 60.2637C191.125 59.6657 191.609 59.3668 192.227 59.3668C192.419 59.3668 192.6 59.3929 192.768 59.445L192.744 61.1184ZM201.304 57.1457V58.5783H201.135C200.349 58.5903 199.715 58.795 199.233 59.1922C198.756 59.5895 198.469 60.1413 198.372 60.8475C198.838 60.374 199.426 60.1373 200.136 60.1373C200.898 60.1373 201.504 60.4101 201.954 60.9559C202.403 61.5016 202.628 62.2199 202.628 63.1108C202.628 63.6806 202.504 64.1962 202.255 64.6577C202.01 65.1192 201.661 65.4783 201.207 65.7352C200.758 65.992 200.248 66.1204 199.679 66.1204C198.756 66.1204 198.009 65.7994 197.439 65.1573C196.874 64.5153 196.591 63.6585 196.591 62.5871V61.9611C196.591 61.01 196.769 60.1714 197.126 59.445C197.488 58.7147 198.003 58.1509 198.673 57.7536C199.347 57.3523 200.128 57.1497 201.015 57.1457H201.304ZM199.606 61.5337C199.325 61.5337 199.071 61.608 198.842 61.7564C198.613 61.9009 198.445 62.0935 198.336 62.3343V62.864C198.336 63.4458 198.451 63.9013 198.679 64.2303C198.908 64.5554 199.229 64.7179 199.642 64.7179C200.016 64.7179 200.317 64.5714 200.545 64.2785C200.778 63.9815 200.894 63.5983 200.894 63.1288C200.894 62.6513 200.778 62.2661 200.545 61.9731C200.313 61.6802 200 61.5337 199.606 61.5337ZM208.437 59.4872L208.491 60.2155C208.952 59.6497 209.576 59.3668 210.363 59.3668C211.201 59.3668 211.777 59.6978 212.09 60.36C212.548 59.6978 213.2 59.3668 214.046 59.3668C214.753 59.3668 215.278 59.5734 215.624 59.9868C215.969 60.3961 216.141 61.0141 216.141 61.8407V66H214.396V61.8467C214.396 61.4775 214.323 61.2087 214.179 61.0401C214.034 60.8676 213.78 60.7813 213.414 60.7813C212.893 60.7813 212.532 61.0301 212.331 61.5277L212.337 66H210.597V61.8527C210.597 61.4755 210.523 61.2027 210.375 61.0341C210.226 60.8656 209.973 60.7813 209.616 60.7813C209.123 60.7813 208.766 60.986 208.545 61.3953V66H206.805V59.4872H208.437ZM220.481 66.1204C219.526 66.1204 218.748 65.8274 218.146 65.2416C217.548 64.6557 217.249 63.8752 217.249 62.9001V62.7315C217.249 62.0775 217.375 61.4936 217.628 60.9799C217.881 60.4623 218.238 60.065 218.699 59.7881C219.165 59.5072 219.695 59.3668 220.288 59.3668C221.179 59.3668 221.88 59.6477 222.389 60.2095C222.903 60.7713 223.16 61.5678 223.16 62.5991V63.3094H219.012C219.069 63.7348 219.237 64.0758 219.518 64.3327C219.803 64.5895 220.162 64.7179 220.595 64.7179C221.266 64.7179 221.789 64.4751 222.166 63.9896L223.021 64.9466C222.76 65.3158 222.407 65.6047 221.962 65.8134C221.516 66.0181 221.023 66.1204 220.481 66.1204ZM220.282 60.7753C219.937 60.7753 219.656 60.8917 219.44 61.1244C219.227 61.3572 219.091 61.6902 219.03 62.1236H221.45V61.9852C221.442 61.5999 221.338 61.303 221.137 61.0943C220.937 60.8816 220.652 60.7753 220.282 60.7753ZM227.68 64.2002C227.68 63.9876 227.574 63.821 227.361 63.7006C227.152 63.5762 226.815 63.4659 226.35 63.3696C224.801 63.0445 224.026 62.3864 224.026 61.3953C224.026 60.8174 224.265 60.3359 224.743 59.9507C225.224 59.5614 225.852 59.3668 226.627 59.3668C227.453 59.3668 228.113 59.5614 228.607 59.9507C229.105 60.3399 229.353 60.8455 229.353 61.4675H227.614C227.614 61.2187 227.534 61.0141 227.373 60.8535C227.213 60.689 226.962 60.6068 226.621 60.6068C226.328 60.6068 226.101 60.673 225.941 60.8054C225.78 60.9378 225.7 61.1064 225.7 61.311C225.7 61.5036 225.79 61.6601 225.971 61.7805C226.155 61.8969 226.464 61.9992 226.898 62.0875C227.331 62.1718 227.696 62.2681 227.993 62.3764C228.912 62.7135 229.371 63.2974 229.371 64.128C229.371 64.7219 229.117 65.2035 228.607 65.5726C228.097 65.9378 227.439 66.1204 226.633 66.1204C226.087 66.1204 225.601 66.0241 225.176 65.8315C224.755 65.6348 224.424 65.368 224.183 65.0309C223.942 64.6898 223.822 64.3226 223.822 63.9294H225.471C225.487 64.2384 225.601 64.4751 225.814 64.6396C226.027 64.8042 226.312 64.8864 226.669 64.8864C227.002 64.8864 227.253 64.8242 227.421 64.6998C227.594 64.5714 227.68 64.4049 227.68 64.2002ZM233.495 66.1204C232.54 66.1204 231.761 65.8274 231.159 65.2416C230.561 64.6557 230.262 63.8752 230.262 62.9001V62.7315C230.262 62.0775 230.389 61.4936 230.642 60.9799C230.894 60.4623 231.251 60.065 231.713 59.7881C232.178 59.5072 232.708 59.3668 233.302 59.3668C234.193 59.3668 234.893 59.6477 235.403 60.2095C235.916 60.7713 236.173 61.5678 236.173 62.5991V63.3094H232.026C232.082 63.7348 232.251 64.0758 232.532 64.3327C232.816 64.5895 233.176 64.7179 233.609 64.7179C234.279 64.7179 234.803 64.4751 235.18 63.9896L236.035 64.9466C235.774 65.3158 235.421 65.6047 234.975 65.8134C234.53 66.0181 234.036 66.1204 233.495 66.1204ZM233.296 60.7753C232.951 60.7753 232.67 60.8917 232.453 61.1244C232.241 61.3572 232.104 61.6902 232.044 62.1236H234.464V61.9852C234.456 61.5999 234.351 61.303 234.151 61.0943C233.95 60.8816 233.665 60.7753 233.296 60.7753ZM240.694 64.2002C240.694 63.9876 240.587 63.821 240.375 63.7006C240.166 63.5762 239.829 63.4659 239.363 63.3696C237.814 63.0445 237.04 62.3864 237.04 61.3953C237.04 60.8174 237.279 60.3359 237.756 59.9507C238.238 59.5614 238.866 59.3668 239.64 59.3668C240.467 59.3668 241.127 59.5614 241.621 59.9507C242.118 60.3399 242.367 60.8455 242.367 61.4675H240.627C240.627 61.2187 240.547 61.0141 240.387 60.8535C240.226 60.689 239.975 60.6068 239.634 60.6068C239.341 60.6068 239.115 60.673 238.954 60.8054C238.794 60.9378 238.713 61.1064 238.713 61.311C238.713 61.5036 238.804 61.6601 238.984 61.7805C239.169 61.8969 239.478 61.9992 239.911 62.0875C240.345 62.1718 240.71 62.2681 241.007 62.3764C241.926 62.7135 242.385 63.2974 242.385 64.128C242.385 64.7219 242.13 65.2035 241.621 65.5726C241.111 65.9378 240.453 66.1204 239.646 66.1204C239.101 66.1204 238.615 66.0241 238.19 65.8315C237.768 65.6348 237.437 65.368 237.197 65.0309C236.956 64.6898 236.835 64.3226 236.835 63.9294H238.485C238.501 64.2384 238.615 64.4751 238.828 64.6396C239.04 64.8042 239.325 64.8864 239.682 64.8864C240.016 64.8864 240.266 64.8242 240.435 64.6998C240.607 64.5714 240.694 64.4049 240.694 64.2002Z" fill="#EE3A2B"/>
<rect x="0.5" y="0.5" width="284" height="74" rx="9.5" stroke="#EF3829"/>
</svg>
