<svg width="276" height="75" viewBox="0 0 276 75" fill="none" xmlns="http://www.w3.org/2000/svg">
<rect x="0.5" y="0.5" width="275" height="74" rx="9.5" fill="white"/>
<rect width="208" height="36" transform="translate(30 19.5)" fill="white"/>
<path d="M35.875 36.0469H38.5391V38.3047H35.875V41.3594H33.4141V38.3047H30.7422V36.0469H33.4141V33.0781H35.875V36.0469ZM49.4531 42.5H46.8125V34.0938L44.2188 34.8516V32.8516L49.2109 31.125H49.4531V42.5ZM53.0391 36.9375L53.7344 31.125H60.3828V33.1719H55.875L55.6172 35.4297C55.8047 35.3203 56.0495 35.224 56.3516 35.1406C56.6589 35.0573 56.9583 35.0156 57.25 35.0156C58.3802 35.0156 59.2474 35.3516 59.8516 36.0234C60.4609 36.6901 60.7656 37.6276 60.7656 38.8359C60.7656 39.5651 60.6016 40.2266 60.2734 40.8203C59.9505 41.4089 59.4948 41.862 58.9062 42.1797C58.3177 42.4974 57.6224 42.6562 56.8203 42.6562C56.1068 42.6562 55.4375 42.5104 54.8125 42.2188C54.1875 41.9219 53.6979 41.5182 53.3438 41.0078C52.9896 40.4922 52.8151 39.9115 52.8203 39.2656H55.4609C55.487 39.6823 55.6198 40.013 55.8594 40.2578C56.099 40.5026 56.4141 40.625 56.8047 40.625C57.6901 40.625 58.1328 39.9688 58.1328 38.6562C58.1328 37.4427 57.5911 36.8359 56.5078 36.8359C55.8932 36.8359 55.4349 37.0339 55.1328 37.4297L53.0391 36.9375ZM75.6094 41.0938C75.1875 41.5625 74.5703 41.9401 73.7578 42.2266C72.9453 42.513 72.0547 42.6562 71.0859 42.6562C69.5964 42.6562 68.4062 42.2005 67.5156 41.2891C66.625 40.3776 66.1484 39.1094 66.0859 37.4844L66.0781 36.5C66.0781 35.3802 66.276 34.4036 66.6719 33.5703C67.0677 32.7318 67.6328 32.0885 68.3672 31.6406C69.1068 31.1875 69.9609 30.9609 70.9297 30.9609C72.3464 30.9609 73.4453 31.2865 74.2266 31.9375C75.013 32.5833 75.4714 33.5495 75.6016 34.8359H72.9609C72.8672 34.2005 72.6641 33.7474 72.3516 33.4766C72.0391 33.2057 71.5964 33.0703 71.0234 33.0703C70.3359 33.0703 69.8047 33.362 69.4297 33.9453C69.0547 34.5286 68.8646 35.362 68.8594 36.4453V37.1328C68.8594 38.2682 69.0521 39.1224 69.4375 39.6953C69.8281 40.263 70.4401 40.5469 71.2734 40.5469C71.987 40.5469 72.5182 40.388 72.8672 40.0703V38.3047H70.9609V36.4219H75.6094V41.0938ZM80.125 42.5H77.3906V31.125H80.125V42.5ZM91.3438 41.0938C90.9219 41.5625 90.3047 41.9401 89.4922 42.2266C88.6797 42.513 87.7891 42.6562 86.8203 42.6562C85.3307 42.6562 84.1406 42.2005 83.25 41.2891C82.3594 40.3776 81.8828 39.1094 81.8203 37.4844L81.8125 36.5C81.8125 35.3802 82.0104 34.4036 82.4062 33.5703C82.8021 32.7318 83.3672 32.0885 84.1016 31.6406C84.8411 31.1875 85.6953 30.9609 86.6641 30.9609C88.0807 30.9609 89.1797 31.2865 89.9609 31.9375C90.7474 32.5833 91.2057 33.5495 91.3359 34.8359H88.6953C88.6016 34.2005 88.3984 33.7474 88.0859 33.4766C87.7734 33.2057 87.3307 33.0703 86.7578 33.0703C86.0703 33.0703 85.5391 33.362 85.1641 33.9453C84.7891 34.5286 84.599 35.362 84.5938 36.4453V37.1328C84.5938 38.2682 84.7865 39.1224 85.1719 39.6953C85.5625 40.263 86.1745 40.5469 87.0078 40.5469C87.7214 40.5469 88.2526 40.388 88.6016 40.0703V38.3047H86.6953V36.4219H91.3438V41.0938ZM99.3984 40.375H95.6406L94.9844 42.5H92.0547L96.2266 31.125H98.8047L103.008 42.5H100.062L99.3984 40.375ZM96.2969 38.2578H98.7422L97.5156 34.3125L96.2969 38.2578ZM109.711 39.4766C109.711 39.0755 109.568 38.763 109.281 38.5391C109 38.3151 108.503 38.0833 107.789 37.8438C107.076 37.6042 106.492 37.3724 106.039 37.1484C104.565 36.4245 103.828 35.4297 103.828 34.1641C103.828 33.5339 104.01 32.9792 104.375 32.5C104.745 32.0156 105.266 31.6406 105.938 31.375C106.609 31.1042 107.365 30.9688 108.203 30.9688C109.021 30.9688 109.753 31.1146 110.398 31.4062C111.049 31.6979 111.555 32.1146 111.914 32.6562C112.273 33.1927 112.453 33.8073 112.453 34.5H109.719C109.719 34.0365 109.576 33.6771 109.289 33.4219C109.008 33.1667 108.625 33.0391 108.141 33.0391C107.651 33.0391 107.263 33.1484 106.977 33.3672C106.695 33.5807 106.555 33.8542 106.555 34.1875C106.555 34.4792 106.711 34.7448 107.023 34.9844C107.336 35.2188 107.885 35.4635 108.672 35.7188C109.458 35.9688 110.104 36.2396 110.609 36.5312C111.839 37.2396 112.453 38.2161 112.453 39.4609C112.453 40.4557 112.078 41.237 111.328 41.8047C110.578 42.3724 109.549 42.6562 108.242 42.6562C107.32 42.6562 106.484 42.4922 105.734 42.1641C104.99 41.8307 104.427 41.3776 104.047 40.8047C103.672 40.2266 103.484 39.5625 103.484 38.8125H106.234C106.234 39.4219 106.391 39.8724 106.703 40.1641C107.021 40.4505 107.534 40.5938 108.242 40.5938C108.695 40.5938 109.052 40.4974 109.312 40.3047C109.578 40.1068 109.711 39.8307 109.711 39.4766Z" fill="#222222" fill-opacity="0.8"/>
<path d="M168.75 28.2422H163.82V32.2734H169.547V33.5H162.32V22.125H169.469V23.3594H163.82V27.0156H168.75V28.2422ZM174.023 28.1328L175.898 25.0469H177.586L174.82 29.2266L177.672 33.5H176L174.047 30.3359L172.094 33.5H170.414L173.266 29.2266L170.5 25.0469H172.172L174.023 28.1328ZM182.359 32.4766C182.875 32.4766 183.326 32.3203 183.711 32.0078C184.096 31.6953 184.31 31.3047 184.352 30.8359H185.719C185.693 31.3203 185.526 31.7812 185.219 32.2188C184.911 32.6562 184.5 33.0052 183.984 33.2656C183.474 33.526 182.932 33.6562 182.359 33.6562C181.208 33.6562 180.292 33.2734 179.609 32.5078C178.932 31.737 178.594 30.6849 178.594 29.3516V29.1094C178.594 28.2865 178.745 27.5547 179.047 26.9141C179.349 26.2734 179.781 25.776 180.344 25.4219C180.911 25.0677 181.581 24.8906 182.352 24.8906C183.299 24.8906 184.086 25.1745 184.711 25.7422C185.341 26.3099 185.677 27.0469 185.719 27.9531H184.352C184.31 27.4062 184.102 26.9583 183.727 26.6094C183.357 26.2552 182.898 26.0781 182.352 26.0781C181.617 26.0781 181.047 26.3438 180.641 26.875C180.24 27.401 180.039 28.1641 180.039 29.1641V29.4375C180.039 30.4115 180.24 31.1615 180.641 31.6875C181.042 32.2135 181.615 32.4766 182.359 32.4766ZM188.914 33.5H187.469V21.5H188.914V33.5ZM196.453 32.6641C195.891 33.3255 195.065 33.6562 193.977 33.6562C193.076 33.6562 192.388 33.3958 191.914 32.875C191.445 32.349 191.208 31.5729 191.203 30.5469V25.0469H192.648V30.5078C192.648 31.7891 193.169 32.4297 194.211 32.4297C195.315 32.4297 196.049 32.0182 196.414 31.1953V25.0469H197.859V33.5H196.484L196.453 32.6641ZM204.984 31.2578C204.984 30.8672 204.836 30.5651 204.539 30.3516C204.247 30.1328 203.734 29.9453 203 29.7891C202.271 29.6328 201.69 29.4453 201.258 29.2266C200.831 29.0078 200.513 28.7474 200.305 28.4453C200.102 28.1432 200 27.7839 200 27.3672C200 26.6745 200.292 26.0885 200.875 25.6094C201.464 25.1302 202.214 24.8906 203.125 24.8906C204.083 24.8906 204.859 25.138 205.453 25.6328C206.052 26.1276 206.352 26.7604 206.352 27.5312H204.898C204.898 27.1354 204.729 26.7943 204.391 26.5078C204.057 26.2214 203.635 26.0781 203.125 26.0781C202.599 26.0781 202.188 26.1927 201.891 26.4219C201.594 26.651 201.445 26.9505 201.445 27.3203C201.445 27.6693 201.583 27.9323 201.859 28.1094C202.135 28.2865 202.633 28.4557 203.352 28.6172C204.076 28.7786 204.661 28.9714 205.109 29.1953C205.557 29.4193 205.888 29.6901 206.102 30.0078C206.32 30.3203 206.43 30.7031 206.43 31.1562C206.43 31.9115 206.128 32.5182 205.523 32.9766C204.919 33.4297 204.135 33.6562 203.172 33.6562C202.495 33.6562 201.896 33.5365 201.375 33.2969C200.854 33.0573 200.445 32.724 200.148 32.2969C199.857 31.8646 199.711 31.3984 199.711 30.8984H201.156C201.182 31.3828 201.375 31.7682 201.734 32.0547C202.099 32.3359 202.578 32.4766 203.172 32.4766C203.719 32.4766 204.156 32.3672 204.484 32.1484C204.818 31.9245 204.984 31.6276 204.984 31.2578ZM209.883 33.5H208.438V25.0469H209.883V33.5ZM208.32 22.8047C208.32 22.5703 208.391 22.3724 208.531 22.2109C208.677 22.0495 208.891 21.9688 209.172 21.9688C209.453 21.9688 209.667 22.0495 209.812 22.2109C209.958 22.3724 210.031 22.5703 210.031 22.8047C210.031 23.0391 209.958 23.2344 209.812 23.3906C209.667 23.5469 209.453 23.625 209.172 23.625C208.891 23.625 208.677 23.5469 208.531 23.3906C208.391 23.2344 208.32 23.0391 208.32 22.8047ZM214.992 31.5391L217.086 25.0469H218.562L215.531 33.5H214.43L211.367 25.0469H212.844L214.992 31.5391ZM219.445 29.1953C219.445 28.3672 219.607 27.6224 219.93 26.9609C220.258 26.2995 220.711 25.7891 221.289 25.4297C221.872 25.0703 222.536 24.8906 223.281 24.8906C224.432 24.8906 225.362 25.2891 226.07 26.0859C226.784 26.8828 227.141 27.9427 227.141 29.2656V29.3672C227.141 30.1901 226.982 30.9297 226.664 31.5859C226.352 32.237 225.901 32.7448 225.312 33.1094C224.729 33.474 224.057 33.6562 223.297 33.6562C222.151 33.6562 221.221 33.2578 220.508 32.4609C219.799 31.6641 219.445 30.6094 219.445 29.2969V29.1953ZM220.898 29.3672C220.898 30.3047 221.115 31.0573 221.547 31.625C221.984 32.1927 222.568 32.4766 223.297 32.4766C224.031 32.4766 224.615 32.1901 225.047 31.6172C225.479 31.0391 225.695 30.2318 225.695 29.1953C225.695 28.2682 225.474 27.5182 225.031 26.9453C224.594 26.3672 224.01 26.0781 223.281 26.0781C222.568 26.0781 221.992 26.362 221.555 26.9297C221.117 27.4974 220.898 28.3099 220.898 29.3672Z" fill="#222222" fill-opacity="0.8"/>
<path d="M169.477 47.3516C169.477 48.6536 169.18 49.6979 168.586 50.4844C167.997 51.2656 167.201 51.6562 166.195 51.6562C165.341 51.6562 164.651 51.3594 164.125 50.7656V54.75H161.867V43.0469H163.961L164.039 43.875C164.586 43.2188 165.299 42.8906 166.18 42.8906C167.221 42.8906 168.031 43.276 168.609 44.0469C169.188 44.8177 169.477 45.8802 169.477 47.2344V47.3516ZM167.219 47.1875C167.219 46.401 167.078 45.7943 166.797 45.3672C166.521 44.9401 166.117 44.7266 165.586 44.7266C164.878 44.7266 164.391 44.9974 164.125 45.5391V49C164.401 49.5573 164.893 49.8359 165.602 49.8359C166.68 49.8359 167.219 48.9531 167.219 47.1875ZM175.781 51.5C175.677 51.2969 175.602 51.0443 175.555 50.7422C175.008 51.3516 174.297 51.6562 173.422 51.6562C172.594 51.6562 171.906 51.4167 171.359 50.9375C170.818 50.4583 170.547 49.8542 170.547 49.125C170.547 48.2292 170.878 47.5417 171.539 47.0625C172.206 46.5833 173.167 46.3411 174.422 46.3359H175.461V45.8516C175.461 45.4609 175.359 45.1484 175.156 44.9141C174.958 44.6797 174.643 44.5625 174.211 44.5625C173.831 44.5625 173.531 44.6536 173.312 44.8359C173.099 45.0182 172.992 45.2682 172.992 45.5859H170.734C170.734 45.0964 170.885 44.6432 171.188 44.2266C171.49 43.8099 171.917 43.4844 172.469 43.25C173.021 43.0104 173.641 42.8906 174.328 42.8906C175.37 42.8906 176.195 43.1536 176.805 43.6797C177.419 44.2005 177.727 44.9349 177.727 45.8828V49.5469C177.732 50.349 177.844 50.9557 178.062 51.3672V51.5H175.781ZM173.914 49.9297C174.247 49.9297 174.555 49.8568 174.836 49.7109C175.117 49.5599 175.326 49.3594 175.461 49.1094V47.6562H174.617C173.487 47.6562 172.885 48.0469 172.812 48.8281L172.805 48.9609C172.805 49.2422 172.904 49.474 173.102 49.6562C173.299 49.8385 173.57 49.9297 173.914 49.9297ZM184.211 45.1641C183.904 45.1224 183.633 45.1016 183.398 45.1016C182.544 45.1016 181.984 45.3906 181.719 45.9688V51.5H179.461V43.0469H181.594L181.656 44.0547C182.109 43.2786 182.737 42.8906 183.539 42.8906C183.789 42.8906 184.023 42.9245 184.242 42.9922L184.211 45.1641ZM189.969 51.5C189.865 51.2969 189.789 51.0443 189.742 50.7422C189.195 51.3516 188.484 51.6562 187.609 51.6562C186.781 51.6562 186.094 51.4167 185.547 50.9375C185.005 50.4583 184.734 49.8542 184.734 49.125C184.734 48.2292 185.065 47.5417 185.727 47.0625C186.393 46.5833 187.354 46.3411 188.609 46.3359H189.648V45.8516C189.648 45.4609 189.547 45.1484 189.344 44.9141C189.146 44.6797 188.831 44.5625 188.398 44.5625C188.018 44.5625 187.719 44.6536 187.5 44.8359C187.286 45.0182 187.18 45.2682 187.18 45.5859H184.922C184.922 45.0964 185.073 44.6432 185.375 44.2266C185.677 43.8099 186.104 43.4844 186.656 43.25C187.208 43.0104 187.828 42.8906 188.516 42.8906C189.557 42.8906 190.383 43.1536 190.992 43.6797C191.607 44.2005 191.914 44.9349 191.914 45.8828V49.5469C191.919 50.349 192.031 50.9557 192.25 51.3672V51.5H189.969ZM188.102 49.9297C188.435 49.9297 188.742 49.8568 189.023 49.7109C189.305 49.5599 189.513 49.3594 189.648 49.1094V47.6562H188.805C187.674 47.6562 187.073 48.0469 187 48.8281L186.992 48.9609C186.992 49.2422 187.091 49.474 187.289 49.6562C187.487 49.8385 187.758 49.9297 188.102 49.9297ZM202.383 45.1641C202.076 45.1224 201.805 45.1016 201.57 45.1016C200.716 45.1016 200.156 45.3906 199.891 45.9688V51.5H197.633V43.0469H199.766L199.828 44.0547C200.281 43.2786 200.909 42.8906 201.711 42.8906C201.961 42.8906 202.195 42.9245 202.414 42.9922L202.383 45.1641ZM207.211 51.6562C205.971 51.6562 204.961 51.276 204.18 50.5156C203.404 49.7552 203.016 48.7422 203.016 47.4766V47.2578C203.016 46.4089 203.18 45.651 203.508 44.9844C203.836 44.3125 204.299 43.7969 204.898 43.4375C205.503 43.0729 206.19 42.8906 206.961 42.8906C208.117 42.8906 209.026 43.2552 209.688 43.9844C210.354 44.7135 210.688 45.7474 210.688 47.0859V48.0078H205.305C205.378 48.5599 205.596 49.0026 205.961 49.3359C206.331 49.6693 206.797 49.8359 207.359 49.8359C208.229 49.8359 208.909 49.5208 209.398 48.8906L210.508 50.1328C210.169 50.612 209.711 50.987 209.133 51.2578C208.555 51.5234 207.914 51.6562 207.211 51.6562ZM206.953 44.7188C206.505 44.7188 206.141 44.8698 205.859 45.1719C205.583 45.474 205.406 45.9062 205.328 46.4688H208.469V46.2891C208.458 45.7891 208.323 45.4036 208.062 45.1328C207.802 44.8568 207.432 44.7188 206.953 44.7188ZM211.625 47.2109C211.625 45.8932 211.919 44.8438 212.508 44.0625C213.102 43.2812 213.911 42.8906 214.938 42.8906C215.76 42.8906 216.44 43.1979 216.977 43.8125V39.5H219.242V51.5H217.203L217.094 50.6016C216.531 51.3047 215.807 51.6562 214.922 51.6562C213.927 51.6562 213.128 51.2656 212.523 50.4844C211.924 49.6979 211.625 48.6068 211.625 47.2109ZM213.883 47.375C213.883 48.1667 214.021 48.7734 214.297 49.1953C214.573 49.6172 214.974 49.8281 215.5 49.8281C216.198 49.8281 216.69 49.5339 216.977 48.9453V45.6094C216.695 45.0208 216.208 44.7266 215.516 44.7266C214.427 44.7266 213.883 45.6094 213.883 47.375ZM224.883 51.6562C223.643 51.6562 222.633 51.276 221.852 50.5156C221.076 49.7552 220.688 48.7422 220.688 47.4766V47.2578C220.688 46.4089 220.852 45.651 221.18 44.9844C221.508 44.3125 221.971 43.7969 222.57 43.4375C223.174 43.0729 223.862 42.8906 224.633 42.8906C225.789 42.8906 226.698 43.2552 227.359 43.9844C228.026 44.7135 228.359 45.7474 228.359 47.0859V48.0078H222.977C223.049 48.5599 223.268 49.0026 223.633 49.3359C224.003 49.6693 224.469 49.8359 225.031 49.8359C225.901 49.8359 226.581 49.5208 227.07 48.8906L228.18 50.1328C227.841 50.612 227.383 50.987 226.805 51.2578C226.227 51.5234 225.586 51.6562 224.883 51.6562ZM224.625 44.7188C224.177 44.7188 223.812 44.8698 223.531 45.1719C223.255 45.474 223.078 45.9062 223 46.4688H226.141V46.2891C226.13 45.7891 225.995 45.4036 225.734 45.1328C225.474 44.8568 225.104 44.7188 224.625 44.7188ZM234.227 49.1641C234.227 48.888 234.089 48.6719 233.812 48.5156C233.542 48.3542 233.104 48.2109 232.5 48.0859C230.49 47.6641 229.484 46.8099 229.484 45.5234C229.484 44.7734 229.794 44.1484 230.414 43.6484C231.039 43.1432 231.854 42.8906 232.859 42.8906C233.932 42.8906 234.789 43.1432 235.43 43.6484C236.076 44.1536 236.398 44.8099 236.398 45.6172H234.141C234.141 45.2943 234.036 45.0286 233.828 44.8203C233.62 44.6068 233.294 44.5 232.852 44.5C232.471 44.5 232.177 44.5859 231.969 44.7578C231.76 44.9297 231.656 45.1484 231.656 45.4141C231.656 45.6641 231.773 45.8672 232.008 46.0234C232.247 46.1745 232.648 46.3073 233.211 46.4219C233.773 46.5312 234.247 46.6562 234.633 46.7969C235.826 47.2344 236.422 47.9922 236.422 49.0703C236.422 49.8411 236.091 50.4661 235.43 50.9453C234.768 51.4193 233.914 51.6562 232.867 51.6562C232.159 51.6562 231.529 51.5312 230.977 51.2812C230.43 51.026 230 50.6797 229.688 50.2422C229.375 49.7995 229.219 49.3229 229.219 48.8125H231.359C231.38 49.2135 231.529 49.5208 231.805 49.7344C232.081 49.9479 232.451 50.0547 232.914 50.0547C233.346 50.0547 233.672 49.974 233.891 49.8125C234.115 49.6458 234.227 49.4297 234.227 49.1641Z" fill="#EE392A"/>
<rect x="0.5" y="0.5" width="275" height="74" rx="9.5" stroke="#EF3829"/>
</svg>
