<svg width="276" height="75" viewBox="0 0 276 75" fill="none" xmlns="http://www.w3.org/2000/svg">
<rect x="0.5" y="0.5" width="275" height="74" rx="9.5" fill="white"/>
<rect width="208" height="28" transform="translate(30 6)" fill="white"/>
<path d="M32.8511 18.903H33.9667C34.8507 18.903 35.2927 18.4704 35.2927 17.6051C35.2927 17.2683 35.1875 16.9947 34.977 16.7842C34.7665 16.569 34.4695 16.4614 34.086 16.4614C33.7726 16.4614 33.499 16.5526 33.2651 16.7351C33.0359 16.9175 32.9213 17.1443 32.9213 17.4156H30.5569C30.5569 16.8777 30.7066 16.3983 31.0059 15.9773C31.3053 15.5564 31.7192 15.2289 32.2478 14.9951C32.781 14.7565 33.3657 14.6372 34.0018 14.6372C35.1384 14.6372 36.0318 14.8968 36.6819 15.416C37.3321 15.9352 37.6572 16.6485 37.6572 17.5559C37.6572 17.9956 37.5215 18.4119 37.2502 18.8048C36.9836 19.193 36.5931 19.5087 36.0785 19.752C36.6211 19.9484 37.0468 20.2478 37.3555 20.65C37.6642 21.0476 37.8185 21.5411 37.8185 22.1304C37.8185 23.0425 37.4677 23.7722 36.7661 24.3194C36.0645 24.8667 35.1431 25.1403 34.0018 25.1403C33.3329 25.1403 32.7108 25.014 32.1355 24.7615C31.5649 24.5042 31.1322 24.1511 30.8375 23.702C30.5429 23.2483 30.3955 22.7338 30.3955 22.1585H32.774C32.774 22.4719 32.9003 22.7432 33.1528 22.9724C33.4054 23.2015 33.7165 23.3161 34.086 23.3161C34.5023 23.3161 34.8344 23.2015 35.0823 22.9724C35.3302 22.7385 35.4541 22.4415 35.4541 22.0813C35.4541 21.5668 35.3255 21.202 35.0682 20.9868C34.811 20.7716 34.4555 20.6641 34.0018 20.6641H32.8511V18.903ZM46.1045 20.8254C46.1045 22.2053 45.7935 23.2694 45.1714 24.0177C44.554 24.7661 43.6816 25.1403 42.5544 25.1403C41.4178 25.1403 40.5384 24.7638 39.9163 24.0107C39.2942 23.2577 38.9832 22.1959 38.9832 20.8254V18.9592C38.9832 17.5793 39.2919 16.5152 39.9093 15.7668C40.5314 15.0185 41.4084 14.6443 42.5404 14.6443C43.6723 14.6443 44.5493 15.0208 45.1714 15.7739C45.7935 16.5269 46.1045 17.591 46.1045 18.9662V20.8254ZM43.7401 18.6575C43.7401 17.9231 43.6442 17.3759 43.4524 17.0157C43.2607 16.6509 42.9566 16.4684 42.5404 16.4684C42.1334 16.4684 41.8364 16.6368 41.6493 16.9736C41.4669 17.3104 41.3687 17.8202 41.3546 18.5031V21.1131C41.3546 21.8755 41.4505 22.4345 41.6423 22.7899C41.8341 23.1407 42.1381 23.3161 42.5544 23.3161C42.9566 23.3161 43.2537 23.1454 43.4454 22.804C43.6372 22.4578 43.7354 21.9176 43.7401 21.1833V18.6575ZM59.421 23.7371C59.0422 24.1581 58.4879 24.4972 57.7582 24.7544C57.0286 25.0117 56.2287 25.1403 55.3587 25.1403C54.021 25.1403 52.9522 24.7311 52.1524 23.9125C51.3525 23.094 50.9246 21.955 50.8684 20.4957L50.8614 19.6117C50.8614 18.606 51.0392 17.729 51.3946 16.9806C51.7501 16.2276 52.2576 15.6499 52.9171 15.2476C53.5813 14.8407 54.3484 14.6372 55.2184 14.6372C56.4907 14.6372 57.4776 14.9296 58.1792 15.5143C58.8855 16.0943 59.2971 16.9619 59.414 18.1172H57.0426C56.9584 17.5466 56.776 17.1397 56.4953 16.8964C56.2147 16.6532 55.8171 16.5316 55.3026 16.5316C54.6852 16.5316 54.2081 16.7935 53.8713 17.3174C53.5345 17.8413 53.3638 18.5896 53.3591 19.5625V20.18C53.3591 21.1996 53.5322 21.9667 53.8783 22.4812C54.2291 22.9911 54.7787 23.246 55.5271 23.246C56.1679 23.246 56.645 23.1033 56.9584 22.818V21.2324H55.2465V19.5415H59.421V23.7371ZM63.4763 25H61.0207V14.7846H63.4763V25ZM73.5514 23.7371C73.1726 24.1581 72.6183 24.4972 71.8886 24.7544C71.1589 25.0117 70.3591 25.1403 69.4891 25.1403C68.1514 25.1403 67.0826 24.7311 66.2828 23.9125C65.4829 23.094 65.055 21.955 64.9988 20.4957L64.9918 19.6117C64.9918 18.606 65.1695 17.729 65.525 16.9806C65.8805 16.2276 66.388 15.6499 67.0475 15.2476C67.7117 14.8407 68.4788 14.6372 69.3488 14.6372C70.621 14.6372 71.608 14.9296 72.3096 15.5143C73.0159 16.0943 73.4275 16.9619 73.5444 18.1172H71.173C71.0888 17.5466 70.9064 17.1397 70.6257 16.8964C70.3451 16.6532 69.9475 16.5316 69.433 16.5316C68.8156 16.5316 68.3385 16.7935 68.0017 17.3174C67.6649 17.8413 67.4942 18.5896 67.4895 19.5625V20.18C67.4895 21.1996 67.6626 21.9667 68.0087 22.4812C68.3595 22.9911 68.9091 23.246 69.6575 23.246C70.2983 23.246 70.7754 23.1033 71.0888 22.818V21.2324H69.3769V19.5415H73.5514V23.7371ZM80.785 23.0916H77.4103L76.8209 25H74.1899L77.9365 14.7846H80.2518L84.0264 25H81.3814L80.785 23.0916ZM77.9996 21.1903H80.1957L79.0941 17.6471L77.9996 21.1903ZM90.0462 22.2848C90.0462 21.9246 89.9176 21.644 89.6603 21.4428C89.4078 21.2417 88.9611 21.0336 88.3203 20.8184C87.6795 20.6033 87.1556 20.3951 86.7487 20.194C85.425 19.5438 84.7631 18.6504 84.7631 17.5138C84.7631 16.9479 84.9268 16.4497 85.2542 16.0194C85.5863 15.5844 86.0541 15.2476 86.6575 15.0091C87.2608 14.7659 87.9391 14.6443 88.6921 14.6443C89.4265 14.6443 90.0837 14.7752 90.6636 15.0372C91.2483 15.2991 91.702 15.6733 92.0248 16.1597C92.3475 16.6415 92.5089 17.1934 92.5089 17.8155H90.0532C90.0532 17.3992 89.9246 17.0765 89.6674 16.8473C89.4148 16.6181 89.071 16.5035 88.636 16.5035C88.1963 16.5035 87.8479 16.6018 87.5906 16.7982C87.338 16.99 87.2117 17.2355 87.2117 17.5349C87.2117 17.7968 87.3521 18.0354 87.6327 18.2505C87.9133 18.461 88.4068 18.6809 89.1131 18.91C89.8194 19.1346 90.3994 19.3778 90.8531 19.6397C91.9569 20.2758 92.5089 21.1528 92.5089 22.2707C92.5089 23.1641 92.1721 23.8657 91.4986 24.3756C90.825 24.8854 89.9012 25.1403 88.7272 25.1403C87.8993 25.1403 87.1486 24.993 86.475 24.6983C85.8062 24.399 85.301 23.992 84.9596 23.4775C84.6228 22.9583 84.4544 22.362 84.4544 21.6884H86.9241C86.9241 22.2357 87.0644 22.6403 87.345 22.9022C87.6304 23.1594 88.0911 23.2881 88.7272 23.2881C89.1341 23.2881 89.4545 23.2015 89.6884 23.0285C89.927 22.8507 90.0462 22.6028 90.0462 22.2848Z" fill="#222222" fill-opacity="0.8"/>
<path d="M168.173 13.569V17H167.017V8.23597H170.25C171.209 8.23597 171.959 8.48076 172.501 8.97032C173.047 9.45989 173.319 10.108 173.319 10.9145C173.319 11.7653 173.053 12.4214 172.519 12.8828C171.989 13.3403 171.229 13.569 170.238 13.569H168.173ZM168.173 12.624H170.25C170.868 12.624 171.341 12.4795 171.67 12.1906C171.999 11.8977 172.164 11.4763 172.164 10.9266C172.164 10.4049 171.999 9.98757 171.67 9.67457C171.341 9.36157 170.89 9.19905 170.316 9.18701H168.173V12.624ZM178.568 17C178.504 16.8716 178.452 16.6429 178.412 16.3138C177.894 16.8515 177.276 17.1204 176.558 17.1204C175.916 17.1204 175.388 16.9398 174.975 16.5787C174.565 16.2135 174.361 15.752 174.361 15.1942C174.361 14.5161 174.618 13.9904 175.131 13.6172C175.649 13.24 176.375 13.0514 177.31 13.0514H178.394V12.5397C178.394 12.1505 178.277 11.8415 178.045 11.6128C177.812 11.38 177.469 11.2637 177.015 11.2637C176.618 11.2637 176.285 11.364 176.016 11.5646C175.747 11.7653 175.613 12.008 175.613 12.2929H174.493C174.493 11.9679 174.608 11.6549 174.836 11.3539C175.069 11.049 175.382 10.8082 175.775 10.6316C176.173 10.4551 176.608 10.3668 177.081 10.3668C177.832 10.3668 178.42 10.5554 178.845 10.9326C179.27 11.3058 179.491 11.8214 179.507 12.4795V15.4771C179.507 16.075 179.583 16.5506 179.736 16.9037V17H178.568ZM176.72 16.1513C177.069 16.1513 177.4 16.061 177.713 15.8804C178.026 15.6998 178.253 15.4651 178.394 15.1762V13.8399H177.521C176.156 13.8399 175.474 14.2392 175.474 15.0377C175.474 15.3868 175.591 15.6597 175.823 15.8563C176.056 16.053 176.355 16.1513 176.72 16.1513ZM184.401 11.4864C184.232 11.4583 184.05 11.4442 183.853 11.4442C183.123 11.4442 182.627 11.7552 182.366 12.3772V17H181.253V10.4872H182.336L182.354 11.2396C182.719 10.6577 183.237 10.3668 183.907 10.3668C184.124 10.3668 184.288 10.3949 184.401 10.4511V11.4864ZM189.21 17C189.146 16.8716 189.094 16.6429 189.054 16.3138C188.536 16.8515 187.918 17.1204 187.2 17.1204C186.558 17.1204 186.03 16.9398 185.617 16.5787C185.207 16.2135 185.003 15.752 185.003 15.1942C185.003 14.5161 185.26 13.9904 185.773 13.6172C186.291 13.24 187.017 13.0514 187.952 13.0514H189.036V12.5397C189.036 12.1505 188.919 11.8415 188.687 11.6128C188.454 11.38 188.111 11.2637 187.657 11.2637C187.26 11.2637 186.927 11.364 186.658 11.5646C186.389 11.7653 186.255 12.008 186.255 12.2929H185.135C185.135 11.9679 185.25 11.6549 185.478 11.3539C185.711 11.049 186.024 10.8082 186.417 10.6316C186.815 10.4551 187.25 10.3668 187.723 10.3668C188.474 10.3668 189.062 10.5554 189.487 10.9326C189.912 11.3058 190.133 11.8214 190.149 12.4795V15.4771C190.149 16.075 190.225 16.5506 190.378 16.9037V17H189.21ZM187.362 16.1513C187.711 16.1513 188.042 16.061 188.355 15.8804C188.668 15.6998 188.895 15.4651 189.036 15.1762V13.8399H188.163C186.799 13.8399 186.116 14.2392 186.116 15.0377C186.116 15.3868 186.233 15.6597 186.465 15.8563C186.698 16.053 186.997 16.1513 187.362 16.1513Z" fill="#222222" fill-opacity="0.8"/>
<path d="M168.269 24.4872L168.323 25.2396C168.789 24.6577 169.413 24.3668 170.195 24.3668C170.886 24.3668 171.399 24.5694 171.736 24.9747C172.073 25.38 172.246 25.986 172.254 26.7925V31H170.514V26.8347C170.514 26.4655 170.434 26.1986 170.274 26.0341C170.113 25.8656 169.846 25.7813 169.473 25.7813C168.984 25.7813 168.616 25.99 168.372 26.4073V31H166.632V24.4872H168.269ZM177.352 31C177.272 30.8435 177.214 30.6489 177.178 30.4161C176.756 30.8856 176.209 31.1204 175.534 31.1204C174.896 31.1204 174.367 30.9358 173.945 30.5666C173.528 30.1974 173.319 29.7319 173.319 29.1701C173.319 28.4799 173.574 27.9502 174.084 27.5811C174.597 27.2119 175.338 27.0253 176.305 27.0213H177.106V26.6481C177.106 26.3471 177.027 26.1064 176.871 25.9258C176.718 25.7452 176.475 25.6549 176.142 25.6549C175.849 25.6549 175.619 25.7251 175.45 25.8656C175.286 26.006 175.203 26.1986 175.203 26.4434H173.464C173.464 26.0662 173.58 25.7171 173.813 25.3961C174.046 25.0751 174.375 24.8243 174.8 24.6437C175.226 24.4591 175.703 24.3668 176.233 24.3668C177.035 24.3668 177.671 24.5694 178.141 24.9747C178.614 25.376 178.851 25.9418 178.851 26.6722V29.4952C178.855 30.1132 178.941 30.5807 179.11 30.8977V31H177.352ZM175.914 29.7901C176.171 29.7901 176.407 29.734 176.624 29.6216C176.841 29.5052 177.001 29.3507 177.106 29.1581V28.0385H176.455C175.585 28.0385 175.121 28.3395 175.065 28.9414L175.059 29.0437C175.059 29.2604 175.135 29.439 175.288 29.5795C175.44 29.7199 175.649 29.7901 175.914 29.7901ZM182.529 28.8752L183.739 24.4872H185.557L183.36 31H181.698L179.501 24.4872H181.319L182.529 28.8752ZM189.24 31.1204C188.285 31.1204 187.507 30.8274 186.905 30.2416C186.307 29.6557 186.008 28.8752 186.008 27.9001V27.7315C186.008 27.0775 186.134 26.4936 186.387 25.9799C186.64 25.4623 186.997 25.065 187.459 24.7881C187.924 24.5072 188.454 24.3668 189.048 24.3668C189.939 24.3668 190.639 24.6477 191.148 25.2095C191.662 25.7713 191.919 26.5678 191.919 27.5991V28.3094H187.772C187.828 28.7348 187.996 29.0758 188.277 29.3327C188.562 29.5895 188.921 29.7179 189.355 29.7179C190.025 29.7179 190.549 29.4751 190.926 28.9896L191.78 29.9466C191.52 30.3158 191.166 30.6047 190.721 30.8134C190.276 31.0181 189.782 31.1204 189.24 31.1204ZM189.042 25.7753C188.697 25.7753 188.416 25.8917 188.199 26.1244C187.986 26.3572 187.85 26.6902 187.79 27.1236H190.209V26.9852C190.201 26.5999 190.097 26.303 189.896 26.0943C189.696 25.8816 189.411 25.7753 189.042 25.7753ZM192.659 27.6954C192.659 26.6962 192.896 25.8917 193.37 25.2817C193.847 24.6718 194.489 24.3668 195.296 24.3668C196.01 24.3668 196.566 24.6116 196.963 25.1011L197.035 24.4872H198.612V30.7833C198.612 31.3531 198.482 31.8487 198.221 32.2701C197.964 32.6914 197.601 33.0124 197.132 33.2331C196.662 33.4538 196.112 33.5642 195.482 33.5642C195.005 33.5642 194.539 33.4679 194.086 33.2753C193.632 33.0867 193.289 32.8419 193.057 32.5409L193.827 31.4815C194.26 31.9671 194.786 32.2099 195.404 32.2099C195.866 32.2099 196.225 32.0855 196.481 31.8367C196.738 31.5919 196.867 31.2428 196.867 30.7893V30.4402C196.465 30.8937 195.938 31.1204 195.284 31.1204C194.501 31.1204 193.867 30.8154 193.382 30.2055C192.9 29.5915 192.659 28.7789 192.659 27.7677V27.6954ZM194.399 27.8218C194.399 28.4117 194.517 28.8752 194.754 29.2123C194.991 29.5453 195.316 29.7119 195.729 29.7119C196.259 29.7119 196.638 29.5132 196.867 29.116V26.3772C196.634 25.9799 196.259 25.7813 195.741 25.7813C195.324 25.7813 194.995 25.9519 194.754 26.2929C194.517 26.634 194.399 27.1437 194.399 27.8218ZM203.729 31C203.648 30.8435 203.59 30.6489 203.554 30.4161C203.133 30.8856 202.585 31.1204 201.911 31.1204C201.273 31.1204 200.743 30.9358 200.322 30.5666C199.904 30.1974 199.696 29.7319 199.696 29.1701C199.696 28.4799 199.951 27.9502 200.46 27.5811C200.974 27.2119 201.714 27.0253 202.681 27.0213H203.482V26.6481C203.482 26.3471 203.404 26.1064 203.247 25.9258C203.095 25.7452 202.852 25.6549 202.519 25.6549C202.226 25.6549 201.995 25.7251 201.827 25.8656C201.662 26.006 201.58 26.1986 201.58 26.4434H199.84C199.84 26.0662 199.957 25.7171 200.189 25.3961C200.422 25.0751 200.751 24.8243 201.176 24.6437C201.602 24.4591 202.079 24.3668 202.609 24.3668C203.412 24.3668 204.048 24.5694 204.517 24.9747C204.991 25.376 205.227 25.9418 205.227 26.6722V29.4952C205.231 30.1132 205.318 30.5807 205.486 30.8977V31H203.729ZM202.29 29.7901C202.547 29.7901 202.784 29.734 203 29.6216C203.217 29.5052 203.378 29.3507 203.482 29.1581V28.0385H202.832C201.961 28.0385 201.498 28.3395 201.441 28.9414L201.435 29.0437C201.435 29.2604 201.512 29.439 201.664 29.5795C201.817 29.7199 202.025 29.7901 202.29 29.7901ZM210.223 26.1184C209.987 26.0863 209.778 26.0702 209.597 26.0702C208.939 26.0702 208.508 26.2929 208.303 26.7384V31H206.564V24.4872H208.207L208.255 25.2637C208.604 24.6657 209.088 24.3668 209.706 24.3668C209.898 24.3668 210.079 24.3929 210.248 24.445L210.223 26.1184Z" fill="#EE3A2B"/>
<rect width="208" height="28" transform="translate(30 41)" fill="white"/>
<path d="M35.7373 54.2047H38.1297V56.2324H35.7373V58.9757H33.5272V56.2324H31.1277V54.2047H33.5272V51.5386H35.7373V54.2047ZM47.9312 60H45.5598V52.4507L43.2304 53.1313V51.3351L47.7137 49.7846H47.9312V60ZM51.1516 55.0046L51.776 49.7846H57.7467V51.6228H53.6984L53.4669 53.6504C53.6353 53.5522 53.8551 53.4657 54.1264 53.3909C54.4024 53.316 54.6713 53.2786 54.9332 53.2786C55.9482 53.2786 56.727 53.5803 57.2696 54.1837C57.8169 54.7824 58.0905 55.6243 58.0905 56.7095C58.0905 57.3643 57.9431 57.9583 57.6485 58.4915C57.3585 59.0201 56.9492 59.427 56.4207 59.7123C55.8921 59.9977 55.2677 60.1403 54.5474 60.1403C53.9066 60.1403 53.3055 60.0094 52.7442 59.7474C52.1829 59.4808 51.7433 59.1183 51.4252 58.6599C51.1071 58.1969 50.9505 57.6753 50.9551 57.0953H53.3266C53.35 57.4695 53.4692 57.7665 53.6844 57.9864C53.8995 58.2062 54.1825 58.3161 54.5333 58.3161C55.3285 58.3161 55.7261 57.7268 55.7261 56.5481C55.7261 55.4583 55.2396 54.9133 54.2667 54.9133C53.7148 54.9133 53.3032 55.0911 53.0319 55.4466L51.1516 55.0046ZM71.421 58.7371C71.0422 59.1581 70.4879 59.4972 69.7582 59.7544C69.0286 60.0117 68.2287 60.1403 67.3587 60.1403C66.021 60.1403 64.9522 59.7311 64.1524 58.9125C63.3525 58.094 62.9246 56.955 62.8684 55.4957L62.8614 54.6117C62.8614 53.606 63.0392 52.729 63.3946 51.9806C63.7501 51.2276 64.2576 50.6499 64.9171 50.2476C65.5813 49.8407 66.3484 49.6372 67.2184 49.6372C68.4907 49.6372 69.4776 49.9296 70.1792 50.5143C70.8855 51.0943 71.2971 51.9619 71.414 53.1172H69.0426C68.9584 52.5466 68.776 52.1397 68.4953 51.8964C68.2147 51.6532 67.8171 51.5316 67.3026 51.5316C66.6852 51.5316 66.2081 51.7935 65.8713 52.3174C65.5345 52.8413 65.3638 53.5896 65.3591 54.5625V55.18C65.3591 56.1996 65.5322 56.9667 65.8783 57.4812C66.2291 57.9911 66.7787 58.246 67.5271 58.246C68.1679 58.246 68.645 58.1033 68.9584 57.818V56.2324H67.2465V54.5415H71.421V58.7371ZM75.4763 60H73.0207V49.7846H75.4763V60ZM85.5514 58.7371C85.1726 59.1581 84.6183 59.4972 83.8886 59.7544C83.1589 60.0117 82.3591 60.1403 81.4891 60.1403C80.1514 60.1403 79.0826 59.7311 78.2828 58.9125C77.4829 58.094 77.0549 56.955 76.9988 55.4957L76.9918 54.6117C76.9918 53.606 77.1695 52.729 77.525 51.9806C77.8805 51.2276 78.388 50.6499 79.0475 50.2476C79.7117 49.8407 80.4788 49.6372 81.3488 49.6372C82.621 49.6372 83.608 49.9296 84.3096 50.5143C85.0159 51.0943 85.4275 51.9619 85.5444 53.1172H83.173C83.0888 52.5466 82.9064 52.1397 82.6257 51.8964C82.3451 51.6532 81.9475 51.5316 81.433 51.5316C80.8156 51.5316 80.3385 51.7935 80.0017 52.3174C79.6649 52.8413 79.4942 53.5896 79.4895 54.5625V55.18C79.4895 56.1996 79.6626 56.9667 80.0087 57.4812C80.3595 57.9911 80.9091 58.246 81.6575 58.246C82.2983 58.246 82.7754 58.1033 83.0888 57.818V56.2324H81.3769V54.5415H85.5514V58.7371ZM92.785 58.0916H89.4103L88.8209 60H86.1899L89.9365 49.7846H92.2518L96.0264 60H93.3814L92.785 58.0916ZM89.9996 56.1903H92.1956L91.0941 52.6471L89.9996 56.1903ZM102.046 57.2848C102.046 56.9246 101.918 56.644 101.66 56.4428C101.408 56.2417 100.961 56.0336 100.32 55.8184C99.6795 55.6033 99.1556 55.3951 98.7487 55.194C97.425 54.5438 96.7631 53.6504 96.7631 52.5138C96.7631 51.9479 96.9268 51.4497 97.2542 51.0194C97.5863 50.5844 98.0541 50.2476 98.6575 50.0091C99.2608 49.7659 99.9391 49.6443 100.692 49.6443C101.426 49.6443 102.084 49.7752 102.664 50.0372C103.248 50.2991 103.702 50.6733 104.025 51.1597C104.347 51.6415 104.509 52.1934 104.509 52.8155H102.053C102.053 52.3992 101.925 52.0765 101.667 51.8473C101.415 51.6181 101.071 51.5035 100.636 51.5035C100.196 51.5035 99.8479 51.6018 99.5906 51.7982C99.338 51.99 99.2117 52.2355 99.2117 52.5349C99.2117 52.7968 99.352 53.0354 99.6327 53.2505C99.9133 53.461 100.407 53.6809 101.113 53.91C101.819 54.1346 102.399 54.3778 102.853 54.6397C103.957 55.2758 104.509 56.1528 104.509 57.2707C104.509 58.1641 104.172 58.8657 103.499 59.3756C102.825 59.8854 101.901 60.1403 100.727 60.1403C99.8993 60.1403 99.1486 59.993 98.475 59.6983C97.8062 59.399 97.301 58.992 96.9596 58.4775C96.6228 57.9583 96.4544 57.362 96.4544 56.6884H98.9241C98.9241 57.2357 99.0644 57.6403 99.345 57.9022C99.6304 58.1594 100.091 58.2881 100.727 58.2881C101.134 58.2881 101.455 58.2015 101.688 58.0285C101.927 57.8507 102.046 57.6028 102.046 57.2848Z" fill="#222222" fill-opacity="0.8"/>
<path d="M171.971 47.949H168.173V51.055H172.585V52H167.017V43.236H172.525V44.187H168.173V47.004H171.971V47.949ZM176.034 47.8648L177.479 45.4872H178.779L176.648 48.7075L178.845 52H177.557L176.052 49.5622L174.547 52H173.253L175.45 48.7075L173.319 45.4872H174.608L176.034 47.8648ZM182.457 51.2115C182.854 51.2115 183.201 51.0911 183.498 50.8503C183.795 50.6096 183.959 50.3086 183.992 49.9474H185.045C185.025 50.3206 184.896 50.6758 184.66 51.0128C184.423 51.3499 184.106 51.6188 183.709 51.8194C183.315 52.0201 182.898 52.1204 182.457 52.1204C181.57 52.1204 180.864 51.8254 180.338 51.2356C179.816 50.6417 179.555 49.8311 179.555 48.8038V48.6172C179.555 47.9832 179.672 47.4194 179.904 46.9258C180.137 46.4322 180.47 46.049 180.904 45.7761C181.341 45.5032 181.857 45.3668 182.451 45.3668C183.181 45.3668 183.787 45.5855 184.268 46.0229C184.754 46.4603 185.013 47.0281 185.045 47.7263H183.992C183.959 47.305 183.799 46.9599 183.51 46.691C183.225 46.4181 182.872 46.2817 182.451 46.2817C181.885 46.2817 181.445 46.4864 181.132 46.8957C180.823 47.301 180.669 47.8889 180.669 48.6593V48.87C180.669 49.6204 180.823 50.1982 181.132 50.6035C181.441 51.0088 181.883 51.2115 182.457 51.2115ZM187.507 52H186.393V42.7544H187.507V52ZM193.315 51.3559C192.882 51.8656 192.246 52.1204 191.407 52.1204C190.713 52.1204 190.183 51.9197 189.818 51.5185C189.457 51.1132 189.274 50.5153 189.27 49.7247V45.4872H190.384V49.6946C190.384 50.6818 190.785 51.1754 191.588 51.1754C192.439 51.1754 193.004 50.8583 193.285 50.2243V45.4872H194.399V52H193.339L193.315 51.3559ZM199.888 50.2725C199.888 49.9715 199.774 49.7388 199.545 49.5742C199.321 49.4057 198.925 49.2612 198.359 49.1409C197.798 49.0205 197.35 48.876 197.017 48.7075C196.688 48.5389 196.443 48.3383 196.283 48.1055C196.126 47.8728 196.048 47.5959 196.048 47.2749C196.048 46.7412 196.273 46.2897 196.722 45.9206C197.176 45.5514 197.754 45.3668 198.456 45.3668C199.194 45.3668 199.792 45.5574 200.25 45.9386C200.711 46.3198 200.942 46.8074 200.942 47.4013H199.822C199.822 47.0963 199.692 46.8335 199.431 46.6128C199.174 46.3921 198.849 46.2817 198.456 46.2817C198.05 46.2817 197.733 46.37 197.505 46.5466C197.276 46.7231 197.162 46.9539 197.162 47.2388C197.162 47.5076 197.268 47.7103 197.481 47.8467C197.693 47.9832 198.077 48.1136 198.63 48.238C199.188 48.3624 199.64 48.5108 199.985 48.6834C200.33 48.8559 200.585 49.0646 200.749 49.3094C200.918 49.5502 201.002 49.8451 201.002 50.1942C201.002 50.7761 200.769 51.2436 200.304 51.5967C199.838 51.9458 199.234 52.1204 198.492 52.1204C197.97 52.1204 197.509 52.0281 197.107 51.8435C196.706 51.6589 196.391 51.4021 196.162 51.073C195.938 50.74 195.825 50.3808 195.825 49.9956H196.939C196.959 50.3688 197.107 50.6657 197.384 50.8864C197.665 51.1031 198.034 51.2115 198.492 51.2115C198.913 51.2115 199.25 51.1272 199.503 50.9587C199.76 50.7861 199.888 50.5574 199.888 50.2725ZM203.662 52H202.549V45.4872H203.662V52ZM202.459 43.7596C202.459 43.5791 202.513 43.4266 202.621 43.3022C202.733 43.1778 202.898 43.1156 203.115 43.1156C203.331 43.1156 203.496 43.1778 203.608 43.3022C203.721 43.4266 203.777 43.5791 203.777 43.7596C203.777 43.9402 203.721 44.0907 203.608 44.2111C203.496 44.3315 203.331 44.3917 203.115 44.3917C202.898 44.3917 202.733 44.3315 202.621 44.2111C202.513 44.0907 202.459 43.9402 202.459 43.7596ZM207.599 50.4892L209.212 45.4872H210.35L208.014 52H207.166L204.806 45.4872H205.944L207.599 50.4892ZM211.03 48.6834C211.03 48.0454 211.154 47.4715 211.403 46.9619C211.656 46.4523 212.005 46.059 212.451 45.7821C212.9 45.5052 213.412 45.3668 213.985 45.3668C214.872 45.3668 215.589 45.6738 216.134 46.2877C216.684 46.9017 216.959 47.7183 216.959 48.7376V48.8158C216.959 49.4498 216.837 50.0197 216.592 50.5253C216.351 51.0269 216.004 51.4181 215.55 51.699C215.101 51.9799 214.583 52.1204 213.997 52.1204C213.115 52.1204 212.398 51.8134 211.849 51.1994C211.303 50.5855 211.03 49.7729 211.03 48.7616V48.6834ZM212.15 48.8158C212.15 49.5381 212.316 50.118 212.649 50.5554C212.986 50.9928 213.436 51.2115 213.997 51.2115C214.563 51.2115 215.013 50.9908 215.346 50.5494C215.679 50.1039 215.845 49.4819 215.845 48.6834C215.845 47.9691 215.675 47.3913 215.334 46.9499C214.997 46.5044 214.547 46.2817 213.985 46.2817C213.436 46.2817 212.992 46.5004 212.655 46.9378C212.318 47.3752 212.15 48.0012 212.15 48.8158Z" fill="#222222" fill-opacity="0.8"/>
<path d="M172.531 62.8038C172.531 63.807 172.302 64.6116 171.845 65.2175C171.391 65.8194 170.777 66.1204 170.003 66.1204C169.345 66.1204 168.813 65.8917 168.408 65.4342V68.504H166.668V59.4872H168.281L168.341 60.1252C168.763 59.6196 169.313 59.3668 169.991 59.3668C170.793 59.3668 171.417 59.6637 171.863 60.2576C172.308 60.8515 172.531 61.6702 172.531 62.7135V62.8038ZM170.791 62.6774C170.791 62.0714 170.683 61.6039 170.466 61.2749C170.254 60.9458 169.943 60.7813 169.533 60.7813C168.988 60.7813 168.612 60.99 168.408 61.4073V64.0738C168.62 64.5032 169 64.7179 169.545 64.7179C170.376 64.7179 170.791 64.0377 170.791 62.6774ZM177.388 66C177.308 65.8435 177.25 65.6489 177.214 65.4161C176.793 65.8856 176.245 66.1204 175.571 66.1204C174.933 66.1204 174.403 65.9358 173.982 65.5666C173.564 65.1974 173.356 64.7319 173.356 64.1701C173.356 63.4799 173.61 62.9502 174.12 62.5811C174.634 62.2119 175.374 62.0253 176.341 62.0213H177.142V61.6481C177.142 61.3471 177.063 61.1064 176.907 60.9258C176.754 60.7452 176.512 60.6549 176.179 60.6549C175.886 60.6549 175.655 60.7251 175.486 60.8656C175.322 61.006 175.24 61.1986 175.24 61.4434H173.5C173.5 61.0662 173.616 60.7171 173.849 60.3961C174.082 60.0751 174.411 59.8243 174.836 59.6437C175.262 59.4591 175.739 59.3668 176.269 59.3668C177.071 59.3668 177.707 59.5694 178.177 59.9747C178.65 60.376 178.887 60.9418 178.887 61.6722V64.4952C178.891 65.1132 178.978 65.5807 179.146 65.8977V66H177.388ZM175.95 64.7901C176.207 64.7901 176.443 64.734 176.66 64.6216C176.877 64.5052 177.037 64.3507 177.142 64.1581V63.0385H176.492C175.621 63.0385 175.157 63.3395 175.101 63.9414L175.095 64.0437C175.095 64.2604 175.171 64.439 175.324 64.5795C175.476 64.7199 175.685 64.7901 175.95 64.7901ZM183.883 61.1184C183.646 61.0863 183.438 61.0702 183.257 61.0702C182.599 61.0702 182.168 61.2929 181.963 61.7384V66H180.223V59.4872H181.867L181.915 60.2637C182.264 59.6657 182.748 59.3668 183.366 59.3668C183.558 59.3668 183.739 59.3929 183.907 59.445L183.883 61.1184ZM188.319 66C188.239 65.8435 188.181 65.6489 188.145 65.4161C187.723 65.8856 187.176 66.1204 186.502 66.1204C185.864 66.1204 185.334 65.9358 184.912 65.5666C184.495 65.1974 184.286 64.7319 184.286 64.1701C184.286 63.4799 184.541 62.9502 185.051 62.5811C185.565 62.2119 186.305 62.0253 187.272 62.0213H188.073V61.6481C188.073 61.3471 187.994 61.1064 187.838 60.9258C187.685 60.7452 187.443 60.6549 187.11 60.6549C186.817 60.6549 186.586 60.7251 186.417 60.8656C186.253 61.006 186.171 61.1986 186.171 61.4434H184.431C184.431 61.0662 184.547 60.7171 184.78 60.3961C185.013 60.0751 185.342 59.8243 185.767 59.6437C186.193 59.4591 186.67 59.3668 187.2 59.3668C188.002 59.3668 188.638 59.5694 189.108 59.9747C189.581 60.376 189.818 60.9418 189.818 61.6722V64.4952C189.822 65.1132 189.908 65.5807 190.077 65.8977V66H188.319ZM186.881 64.7901C187.138 64.7901 187.374 64.734 187.591 64.6216C187.808 64.5052 187.968 64.3507 188.073 64.1581V63.0385H187.423C186.552 63.0385 186.088 63.3395 186.032 63.9414L186.026 64.0437C186.026 64.2604 186.102 64.439 186.255 64.5795C186.407 64.7199 186.616 64.7901 186.881 64.7901ZM197.884 61.1184C197.647 61.0863 197.439 61.0702 197.258 61.0702C196.6 61.0702 196.168 61.2929 195.964 61.7384V66H194.224V59.4872H195.868L195.916 60.2637C196.265 59.6657 196.748 59.3668 197.366 59.3668C197.559 59.3668 197.739 59.3929 197.908 59.445L197.884 61.1184ZM201.604 66.1204C200.649 66.1204 199.87 65.8274 199.268 65.2416C198.67 64.6557 198.372 63.8752 198.372 62.9001V62.7315C198.372 62.0775 198.498 61.4936 198.751 60.9799C199.004 60.4623 199.361 60.065 199.822 59.7881C200.288 59.5072 200.817 59.3668 201.411 59.3668C202.302 59.3668 203.002 59.6477 203.512 60.2095C204.026 60.7713 204.282 61.5678 204.282 62.5991V63.3094H200.135C200.191 63.7348 200.36 64.0758 200.641 64.3327C200.926 64.5895 201.285 64.7179 201.718 64.7179C202.388 64.7179 202.912 64.4751 203.289 63.9896L204.144 64.9466C203.883 65.3158 203.53 65.6047 203.085 65.8134C202.639 66.0181 202.146 66.1204 201.604 66.1204ZM201.405 60.7753C201.06 60.7753 200.779 60.8917 200.563 61.1244C200.35 61.3572 200.213 61.6902 200.153 62.1236H202.573V61.9852C202.565 61.5999 202.461 61.303 202.26 61.0943C202.059 60.8816 201.774 60.7753 201.405 60.7753ZM205.005 62.6954C205.005 61.6802 205.231 60.8716 205.685 60.2697C206.142 59.6677 206.766 59.3668 207.557 59.3668C208.191 59.3668 208.715 59.6035 209.128 60.0771V56.7544H210.874V66H209.302L209.218 65.3078C208.785 65.8495 208.227 66.1204 207.545 66.1204C206.778 66.1204 206.162 65.8194 205.697 65.2175C205.235 64.6116 205.005 63.7709 205.005 62.6954ZM206.744 62.8218C206.744 63.4318 206.851 63.8993 207.063 64.2243C207.276 64.5494 207.585 64.7119 207.99 64.7119C208.528 64.7119 208.907 64.4852 209.128 64.0317V61.4615C208.911 61.008 208.536 60.7813 208.002 60.7813C207.164 60.7813 206.744 61.4615 206.744 62.8218ZM215.219 66.1204C214.264 66.1204 213.486 65.8274 212.884 65.2416C212.286 64.6557 211.987 63.8752 211.987 62.9001V62.7315C211.987 62.0775 212.113 61.4936 212.366 60.9799C212.619 60.4623 212.976 60.065 213.438 59.7881C213.903 59.5072 214.433 59.3668 215.027 59.3668C215.918 59.3668 216.618 59.6477 217.128 60.2095C217.641 60.7713 217.898 61.5678 217.898 62.5991V63.3094H213.751C213.807 63.7348 213.975 64.0758 214.256 64.3327C214.541 64.5895 214.9 64.7179 215.334 64.7179C216.004 64.7179 216.528 64.4751 216.905 63.9896L217.76 64.9466C217.499 65.3158 217.146 65.6047 216.7 65.8134C216.255 66.0181 215.761 66.1204 215.219 66.1204ZM215.021 60.7753C214.676 60.7753 214.395 60.8917 214.178 61.1244C213.965 61.3572 213.829 61.6902 213.769 62.1236H216.188V61.9852C216.18 61.5999 216.076 61.303 215.875 61.0943C215.675 60.8816 215.39 60.7753 215.021 60.7753ZM222.418 64.2002C222.418 63.9876 222.312 63.821 222.099 63.7006C221.891 63.5762 221.554 63.4659 221.088 63.3696C219.539 63.0445 218.765 62.3864 218.765 61.3953C218.765 60.8174 219.004 60.3359 219.481 59.9507C219.963 59.5614 220.591 59.3668 221.365 59.3668C222.192 59.3668 222.852 59.5614 223.345 59.9507C223.843 60.3399 224.092 60.8455 224.092 61.4675H222.352C222.352 61.2187 222.272 61.0141 222.111 60.8535C221.951 60.689 221.7 60.6068 221.359 60.6068C221.066 60.6068 220.839 60.673 220.679 60.8054C220.518 60.9378 220.438 61.1064 220.438 61.311C220.438 61.5036 220.528 61.6601 220.709 61.7805C220.894 61.8969 221.203 61.9992 221.636 62.0875C222.069 62.1718 222.434 62.2681 222.731 62.3764C223.65 62.7135 224.11 63.2974 224.11 64.128C224.11 64.7219 223.855 65.2035 223.345 65.5726C222.836 65.9378 222.178 66.1204 221.371 66.1204C220.825 66.1204 220.34 66.0241 219.914 65.8315C219.493 65.6348 219.162 65.368 218.921 65.0309C218.68 64.6898 218.56 64.3226 218.56 63.9294H220.209C220.225 64.2384 220.34 64.4751 220.552 64.6396C220.765 64.8042 221.05 64.8864 221.407 64.8864C221.74 64.8864 221.991 64.8242 222.16 64.6998C222.332 64.5714 222.418 64.4049 222.418 64.2002Z" fill="#EE392A"/>
<rect x="0.5" y="0.5" width="275" height="74" rx="9.5" stroke="#EF3829"/>
</svg>
