<svg width="276" height="187" viewBox="0 0 276 187" fill="none" xmlns="http://www.w3.org/2000/svg">
<rect x="0.5" y="0.5" width="275" height="186" rx="9.5" fill="white"/>
<path d="M0 10C0 4.47715 4.47715 0 10 0H266C271.523 0 276 4.47715 276 10V27H0V10Z" fill="#EF3829"/>
<path d="M118.657 17H116.935V7.04688H118.657V17ZM122.164 9.60352L122.212 10.458C122.759 9.7972 123.477 9.4668 124.365 9.4668C125.906 9.4668 126.689 10.3486 126.717 12.1123V17H125.056V12.208C125.056 11.7386 124.953 11.3923 124.748 11.1689C124.548 10.9411 124.217 10.8271 123.757 10.8271C123.087 10.8271 122.588 11.1302 122.26 11.7363V17H120.599V9.60352H122.164ZM131.454 15.8105C131.869 15.8105 132.213 15.6898 132.486 15.4482C132.76 15.2067 132.906 14.9082 132.924 14.5527H134.489C134.471 15.013 134.327 15.4437 134.059 15.8447C133.79 16.2412 133.425 16.5557 132.965 16.7881C132.505 17.0205 132.008 17.1367 131.475 17.1367C130.44 17.1367 129.62 16.8018 129.014 16.1318C128.408 15.4619 128.104 14.5368 128.104 13.3564V13.1855C128.104 12.0599 128.405 11.1598 129.007 10.4854C129.608 9.80632 130.429 9.4668 131.468 9.4668C132.347 9.4668 133.063 9.72428 133.614 10.2393C134.17 10.7497 134.462 11.4219 134.489 12.2559H132.924C132.906 11.832 132.76 11.4834 132.486 11.21C132.217 10.9365 131.873 10.7998 131.454 10.7998C130.916 10.7998 130.502 10.9958 130.21 11.3877C129.918 11.7751 129.77 12.3652 129.766 13.1582V13.4248C129.766 14.2269 129.909 14.8262 130.196 15.2227C130.488 15.6146 130.907 15.8105 131.454 15.8105ZM137.511 17H135.85V6.5H137.511V17ZM143.807 16.2754C143.319 16.8496 142.626 17.1367 141.729 17.1367C140.926 17.1367 140.318 16.902 139.903 16.4326C139.493 15.9632 139.288 15.2842 139.288 14.3955V9.60352H140.949V14.375C140.949 15.3138 141.339 15.7832 142.118 15.7832C142.925 15.7832 143.469 15.4938 143.752 14.915V9.60352H145.413V17H143.848L143.807 16.2754ZM149.692 14.6211L151.196 9.60352H152.967L150.027 18.1211C149.576 19.3652 148.811 19.9873 147.73 19.9873C147.489 19.9873 147.222 19.9463 146.931 19.8643V18.5791L147.245 18.5996C147.664 18.5996 147.979 18.5221 148.188 18.3672C148.403 18.2168 148.571 17.9616 148.694 17.6016L148.934 16.9658L146.336 9.60352H148.127L149.692 14.6211ZM157.089 17.1367C156.036 17.1367 155.182 16.8063 154.525 16.1455C153.874 15.4801 153.548 14.596 153.548 13.4932V13.2881C153.548 12.5498 153.689 11.8913 153.972 11.3125C154.259 10.7292 154.66 10.2757 155.175 9.95215C155.69 9.62858 156.264 9.4668 156.897 9.4668C157.905 9.4668 158.682 9.78809 159.229 10.4307C159.78 11.0732 160.056 11.9824 160.056 13.1582V13.8281H155.223C155.273 14.4388 155.476 14.9219 155.831 15.2773C156.191 15.6328 156.642 15.8105 157.185 15.8105C157.946 15.8105 158.565 15.5029 159.044 14.8877L159.939 15.7422C159.643 16.1842 159.247 16.5283 158.75 16.7744C158.258 17.016 157.704 17.1367 157.089 17.1367ZM156.891 10.7998C156.435 10.7998 156.066 10.9593 155.783 11.2783C155.505 11.5973 155.327 12.0417 155.25 12.6113H158.415V12.4883C158.379 11.9323 158.23 11.513 157.971 11.2305C157.711 10.9434 157.351 10.7998 156.891 10.7998Z" fill="white"/>
<rect width="203.5" height="28" transform="translate(36.25 38)" fill="white"/>
<path d="M44.1511 49.5138C44.1511 50.0096 44.0271 50.447 43.7792 50.8258C43.536 51.2047 43.1992 51.5087 42.7689 51.7379C43.2553 51.9765 43.6412 52.3039 43.9265 52.7202C44.2119 53.1318 44.3545 53.6206 44.3545 54.1866C44.3545 55.0986 44.0388 55.819 43.4074 56.3475C42.7806 56.876 41.9153 57.1403 40.8114 57.1403C39.7029 57.1403 38.8282 56.876 38.1874 56.3475C37.5466 55.8143 37.2262 55.094 37.2262 54.1866C37.2262 53.6393 37.3665 53.1552 37.6471 52.7342C37.9278 52.3133 38.3254 51.9812 38.8399 51.7379C38.4049 51.5087 38.0634 51.2047 37.8155 50.8258C37.5676 50.447 37.4437 50.0096 37.4437 49.5138C37.4437 48.6251 37.7454 47.9235 38.3488 47.409C38.9521 46.8945 39.766 46.6372 40.7904 46.6372C41.8241 46.6372 42.6426 46.8945 43.246 47.409C43.8494 47.9235 44.1511 48.6251 44.1511 49.5138ZM41.9831 53.9971C41.9831 53.5762 41.8732 53.2534 41.6533 53.0289C41.4382 52.7997 41.1528 52.6851 40.7974 52.6851C40.4419 52.6851 40.1542 52.7997 39.9344 53.0289C39.7146 53.2534 39.6046 53.5762 39.6046 53.9971C39.6046 54.4041 39.7146 54.7268 39.9344 54.9653C40.1589 55.1992 40.4512 55.3161 40.8114 55.3161C41.1622 55.3161 41.4452 55.1992 41.6603 54.9653C41.8755 54.7315 41.9831 54.4087 41.9831 53.9971ZM40.7904 48.4614C40.4723 48.4614 40.2291 48.5667 40.0607 48.7772C39.897 48.983 39.8151 49.2706 39.8151 49.6401C39.8151 50.005 39.8993 50.2996 40.0677 50.5242C40.2361 50.7487 40.484 50.8609 40.8114 50.8609C41.1341 50.8609 41.375 50.7487 41.5341 50.5242C41.6978 50.2996 41.7796 50.005 41.7796 49.6401C41.7796 49.2753 41.6954 48.9876 41.527 48.7772C41.3633 48.5667 41.1178 48.4614 40.7904 48.4614ZM57.671 55.7371C57.2922 56.1581 56.7379 56.4972 56.0082 56.7544C55.2786 57.0117 54.4787 57.1403 53.6087 57.1403C52.271 57.1403 51.2022 56.7311 50.4024 55.9125C49.6025 55.094 49.1746 53.955 49.1184 52.4957L49.1114 51.6117C49.1114 50.606 49.2892 49.729 49.6446 48.9806C50.0001 48.2276 50.5076 47.6499 51.1671 47.2476C51.8313 46.8407 52.5984 46.6372 53.4684 46.6372C54.7407 46.6372 55.7276 46.9296 56.4292 47.5143C57.1355 48.0943 57.5471 48.9619 57.664 50.1172H55.2926C55.2084 49.5466 55.026 49.1397 54.7453 48.8964C54.4647 48.6532 54.0671 48.5316 53.5526 48.5316C52.9352 48.5316 52.4581 48.7935 52.1213 49.3174C51.7845 49.8413 51.6138 50.5896 51.6091 51.5625V52.18C51.6091 53.1996 51.7822 53.9667 52.1283 54.4812C52.4791 54.9911 53.0287 55.246 53.7771 55.246C54.4179 55.246 54.895 55.1033 55.2084 54.818V53.2324H53.4965V51.5415H57.671V55.7371ZM61.7263 57H59.2707V46.7846H61.7263V57ZM71.8014 55.7371C71.4226 56.1581 70.8683 56.4972 70.1386 56.7544C69.4089 57.0117 68.6091 57.1403 67.7391 57.1403C66.4014 57.1403 65.3326 56.7311 64.5328 55.9125C63.7329 55.094 63.305 53.955 63.2488 52.4957L63.2418 51.6117C63.2418 50.606 63.4195 49.729 63.775 48.9806C64.1305 48.2276 64.638 47.6499 65.2975 47.2476C65.9617 46.8407 66.7288 46.6372 67.5988 46.6372C68.871 46.6372 69.858 46.9296 70.5596 47.5143C71.2659 48.0943 71.6775 48.9619 71.7944 50.1172H69.423C69.3388 49.5466 69.1564 49.1397 68.8757 48.8964C68.5951 48.6532 68.1975 48.5316 67.683 48.5316C67.0656 48.5316 66.5885 48.7935 66.2517 49.3174C65.9149 49.8413 65.7442 50.5896 65.7395 51.5625V52.18C65.7395 53.1996 65.9126 53.9667 66.2587 54.4812C66.6095 54.9911 67.1591 55.246 67.9075 55.246C68.5483 55.246 69.0254 55.1033 69.3388 54.818V53.2324H67.6269V51.5415H71.8014V55.7371ZM79.035 55.0916H75.6603L75.0709 57H72.4399L76.1865 46.7846H78.5018L82.2764 57H79.6314L79.035 55.0916ZM76.2496 53.1903H78.4457L77.3441 49.6471L76.2496 53.1903ZM88.2962 54.2848C88.2962 53.9246 88.1676 53.644 87.9103 53.4428C87.6578 53.2417 87.2111 53.0336 86.5703 52.8184C85.9295 52.6033 85.4056 52.3951 84.9987 52.194C83.675 51.5438 83.0131 50.6504 83.0131 49.5138C83.0131 48.9479 83.1768 48.4497 83.5042 48.0194C83.8363 47.5844 84.3041 47.2476 84.9075 47.0091C85.5108 46.7659 86.1891 46.6443 86.9421 46.6443C87.6765 46.6443 88.3337 46.7752 88.9136 47.0372C89.4983 47.2991 89.952 47.6733 90.2748 48.1597C90.5975 48.6415 90.7589 49.1934 90.7589 49.8155H88.3032C88.3032 49.3992 88.1746 49.0765 87.9174 48.8473C87.6648 48.6181 87.321 48.5035 86.886 48.5035C86.4463 48.5035 86.0979 48.6018 85.8406 48.7982C85.588 48.99 85.4617 49.2355 85.4617 49.5349C85.4617 49.7968 85.6021 50.0354 85.8827 50.2505C86.1633 50.461 86.6568 50.6809 87.3631 50.91C88.0694 51.1346 88.6494 51.3778 89.1031 51.6397C90.2069 52.2758 90.7589 53.1528 90.7589 54.2707C90.7589 55.1641 90.4221 55.8657 89.7486 56.3756C89.075 56.8854 88.1512 57.1403 86.9772 57.1403C86.1493 57.1403 85.3986 56.993 84.725 56.6983C84.0562 56.399 83.551 55.992 83.2096 55.4775C82.8728 54.9583 82.7044 54.362 82.7044 53.6884H85.1741C85.1741 54.2357 85.3144 54.6403 85.595 54.9022C85.8804 55.1594 86.3411 55.2881 86.9772 55.2881C87.3841 55.2881 87.7045 55.2015 87.9384 55.0285C88.177 54.8507 88.2962 54.6028 88.2962 54.2848Z" fill="#222222" fill-opacity="0.8"/>
<path d="M173.423 45.569V49H172.267V40.236H175.5C176.459 40.236 177.209 40.4808 177.751 40.9703C178.297 41.4599 178.569 42.108 178.569 42.9145C178.569 43.7653 178.303 44.4214 177.769 44.8828C177.239 45.3403 176.479 45.569 175.488 45.569H173.423ZM173.423 44.624H175.5C176.118 44.624 176.591 44.4795 176.92 44.1906C177.249 43.8977 177.414 43.4763 177.414 42.9266C177.414 42.4049 177.249 41.9876 176.92 41.6746C176.591 41.3616 176.14 41.1991 175.566 41.187H173.423V44.624ZM183.818 49C183.754 48.8716 183.702 48.6429 183.662 48.3138C183.144 48.8515 182.526 49.1204 181.808 49.1204C181.166 49.1204 180.638 48.9398 180.225 48.5787C179.815 48.2135 179.611 47.752 179.611 47.1942C179.611 46.5161 179.868 45.9904 180.381 45.6172C180.899 45.24 181.625 45.0514 182.56 45.0514H183.644V44.5397C183.644 44.1505 183.527 43.8415 183.295 43.6128C183.062 43.38 182.719 43.2637 182.265 43.2637C181.868 43.2637 181.535 43.364 181.266 43.5646C180.997 43.7653 180.863 44.008 180.863 44.2929H179.743C179.743 43.9679 179.858 43.6549 180.086 43.3539C180.319 43.049 180.632 42.8082 181.025 42.6316C181.423 42.4551 181.858 42.3668 182.331 42.3668C183.082 42.3668 183.67 42.5554 184.095 42.9326C184.52 43.3058 184.741 43.8214 184.757 44.4795V47.4771C184.757 48.075 184.833 48.5506 184.986 48.9037V49H183.818ZM181.97 48.1513C182.319 48.1513 182.65 48.061 182.963 47.8804C183.276 47.6998 183.503 47.4651 183.644 47.1762V45.8399H182.771C181.406 45.8399 180.724 46.2392 180.724 47.0377C180.724 47.3868 180.841 47.6597 181.073 47.8563C181.306 48.053 181.605 48.1513 181.97 48.1513ZM189.651 43.4864C189.482 43.4583 189.3 43.4442 189.103 43.4442C188.373 43.4442 187.877 43.7552 187.616 44.3772V49H186.503V42.4872H187.586L187.604 43.2396C187.969 42.6577 188.487 42.3668 189.157 42.3668C189.374 42.3668 189.538 42.3949 189.651 42.4511V43.4864ZM194.46 49C194.396 48.8716 194.344 48.6429 194.304 48.3138C193.786 48.8515 193.168 49.1204 192.45 49.1204C191.808 49.1204 191.28 48.9398 190.867 48.5787C190.457 48.2135 190.253 47.752 190.253 47.1942C190.253 46.5161 190.51 45.9904 191.023 45.6172C191.541 45.24 192.267 45.0514 193.202 45.0514H194.286V44.5397C194.286 44.1505 194.169 43.8415 193.937 43.6128C193.704 43.38 193.361 43.2637 192.907 43.2637C192.51 43.2637 192.177 43.364 191.908 43.5646C191.639 43.7653 191.505 44.008 191.505 44.2929H190.385C190.385 43.9679 190.5 43.6549 190.728 43.3539C190.961 43.049 191.274 42.8082 191.667 42.6316C192.065 42.4551 192.5 42.3668 192.973 42.3668C193.724 42.3668 194.312 42.5554 194.737 42.9326C195.162 43.3058 195.383 43.8214 195.399 44.4795V47.4771C195.399 48.075 195.475 48.5506 195.628 48.9037V49H194.46ZM192.612 48.1513C192.961 48.1513 193.292 48.061 193.605 47.8804C193.918 47.6998 194.145 47.4651 194.286 47.1762V45.8399H193.413C192.049 45.8399 191.366 46.2392 191.366 47.0377C191.366 47.3868 191.483 47.6597 191.715 47.8563C191.948 48.053 192.247 48.1513 192.612 48.1513Z" fill="#222222" fill-opacity="0.8"/>
<path d="M173.519 56.4872L173.573 57.2396C174.039 56.6577 174.663 56.3668 175.445 56.3668C176.136 56.3668 176.649 56.5694 176.986 56.9747C177.323 57.38 177.496 57.986 177.504 58.7925V63H175.764V58.8347C175.764 58.4655 175.684 58.1986 175.524 58.0341C175.363 57.8656 175.096 57.7813 174.723 57.7813C174.234 57.7813 173.866 57.99 173.622 58.4073V63H171.882V56.4872H173.519ZM182.602 63C182.522 62.8435 182.464 62.6489 182.428 62.4161C182.006 62.8856 181.459 63.1204 180.784 63.1204C180.146 63.1204 179.617 62.9358 179.195 62.5666C178.778 62.1974 178.569 61.7319 178.569 61.1701C178.569 60.4799 178.824 59.9502 179.334 59.5811C179.847 59.2119 180.588 59.0253 181.555 59.0213H182.356V58.6481C182.356 58.3471 182.277 58.1064 182.121 57.9258C181.968 57.7452 181.725 57.6549 181.392 57.6549C181.099 57.6549 180.869 57.7251 180.7 57.8656C180.536 58.006 180.453 58.1986 180.453 58.4434H178.714C178.714 58.0662 178.83 57.7171 179.063 57.3961C179.296 57.0751 179.625 56.8243 180.05 56.6437C180.476 56.4591 180.953 56.3668 181.483 56.3668C182.285 56.3668 182.921 56.5694 183.391 56.9747C183.864 57.376 184.101 57.9418 184.101 58.6722V61.4952C184.105 62.1132 184.191 62.5807 184.36 62.8977V63H182.602ZM181.164 61.7901C181.421 61.7901 181.657 61.734 181.874 61.6216C182.091 61.5052 182.251 61.3507 182.356 61.1581V60.0385H181.705C180.835 60.0385 180.371 60.3395 180.315 60.9414L180.309 61.0437C180.309 61.2604 180.385 61.439 180.538 61.5795C180.69 61.7199 180.899 61.7901 181.164 61.7901ZM187.779 60.8752L188.989 56.4872H190.807L188.61 63H186.948L184.751 56.4872H186.569L187.779 60.8752ZM194.49 63.1204C193.535 63.1204 192.757 62.8274 192.155 62.2416C191.557 61.6557 191.258 60.8752 191.258 59.9001V59.7315C191.258 59.0775 191.384 58.4936 191.637 57.9799C191.89 57.4623 192.247 57.065 192.709 56.7881C193.174 56.5072 193.704 56.3668 194.298 56.3668C195.189 56.3668 195.889 56.6477 196.398 57.2095C196.912 57.7713 197.169 58.5678 197.169 59.5991V60.3094H193.022C193.078 60.7348 193.246 61.0758 193.527 61.3327C193.812 61.5895 194.171 61.7179 194.605 61.7179C195.275 61.7179 195.799 61.4751 196.176 60.9896L197.03 61.9466C196.77 62.3158 196.416 62.6047 195.971 62.8134C195.526 63.0181 195.032 63.1204 194.49 63.1204ZM194.292 57.7753C193.947 57.7753 193.666 57.8917 193.449 58.1244C193.236 58.3572 193.1 58.6902 193.04 59.1236H195.459V58.9852C195.451 58.5999 195.347 58.303 195.146 58.0943C194.946 57.8816 194.661 57.7753 194.292 57.7753ZM197.909 59.6954C197.909 58.6962 198.146 57.8917 198.62 57.2817C199.097 56.6718 199.739 56.3668 200.546 56.3668C201.26 56.3668 201.816 56.6116 202.213 57.1011L202.285 56.4872H203.862V62.7833C203.862 63.3531 203.732 63.8487 203.471 64.2701C203.214 64.6914 202.851 65.0124 202.382 65.2331C201.912 65.4538 201.362 65.5642 200.732 65.5642C200.255 65.5642 199.789 65.4679 199.336 65.2753C198.882 65.0867 198.539 64.8419 198.307 64.5409L199.077 63.4815C199.51 63.9671 200.036 64.2099 200.654 64.2099C201.116 64.2099 201.475 64.0855 201.731 63.8367C201.988 63.5919 202.117 63.2428 202.117 62.7893V62.4402C201.715 62.8937 201.188 63.1204 200.534 63.1204C199.751 63.1204 199.117 62.8154 198.632 62.2055C198.15 61.5915 197.909 60.7789 197.909 59.7677V59.6954ZM199.649 59.8218C199.649 60.4117 199.767 60.8752 200.004 61.2123C200.241 61.5453 200.566 61.7119 200.979 61.7119C201.509 61.7119 201.888 61.5132 202.117 61.116V58.3772C201.884 57.9799 201.509 57.7813 200.991 57.7813C200.574 57.7813 200.245 57.9519 200.004 58.2929C199.767 58.634 199.649 59.1437 199.649 59.8218ZM208.979 63C208.898 62.8435 208.84 62.6489 208.804 62.4161C208.383 62.8856 207.835 63.1204 207.161 63.1204C206.523 63.1204 205.993 62.9358 205.572 62.5666C205.154 62.1974 204.946 61.7319 204.946 61.1701C204.946 60.4799 205.201 59.9502 205.71 59.5811C206.224 59.2119 206.964 59.0253 207.931 59.0213H208.732V58.6481C208.732 58.3471 208.654 58.1064 208.497 57.9258C208.345 57.7452 208.102 57.6549 207.769 57.6549C207.476 57.6549 207.245 57.7251 207.077 57.8656C206.912 58.006 206.83 58.1986 206.83 58.4434H205.09C205.09 58.0662 205.207 57.7171 205.439 57.3961C205.672 57.0751 206.001 56.8243 206.426 56.6437C206.852 56.4591 207.329 56.3668 207.859 56.3668C208.662 56.3668 209.298 56.5694 209.767 56.9747C210.241 57.376 210.477 57.9418 210.477 58.6722V61.4952C210.481 62.1132 210.568 62.5807 210.736 62.8977V63H208.979ZM207.54 61.7901C207.797 61.7901 208.034 61.734 208.25 61.6216C208.467 61.5052 208.628 61.3507 208.732 61.1581V60.0385H208.082C207.211 60.0385 206.748 60.3395 206.691 60.9414L206.685 61.0437C206.685 61.2604 206.762 61.439 206.914 61.5795C207.067 61.7199 207.275 61.7901 207.54 61.7901ZM215.473 58.1184C215.237 58.0863 215.028 58.0702 214.847 58.0702C214.189 58.0702 213.758 58.2929 213.553 58.7384V63H211.814V56.4872H213.457L213.505 57.2637C213.854 56.6657 214.338 56.3668 214.956 56.3668C215.148 56.3668 215.329 56.3929 215.498 56.445L215.473 58.1184Z" fill="#EE3A2B"/>
<rect width="208" height="28" transform="translate(34 74.6665)" fill="white"/>
<path d="M39.0583 87.8712H41.4508V89.8989H39.0583V92.6422H36.8483V89.8989H34.4488V87.8712H36.8483V85.2051H39.0583V87.8712ZM52.2556 89.6744H53.294V91.4985H52.2556V93.6665H49.8912V91.4985H45.9411L45.8008 90.0532L49.8912 83.4721V83.4511H52.2556V89.6744ZM48.0529 89.6744H49.8912V86.5312L49.7438 86.7697L48.0529 89.6744ZM66.421 92.4036C66.0422 92.8246 65.4879 93.1637 64.7582 93.4209C64.0286 93.6782 63.2287 93.8068 62.3587 93.8068C61.021 93.8068 59.9522 93.3976 59.1524 92.579C58.3526 91.7605 57.9246 90.6215 57.8684 89.1622L57.8614 88.2782C57.8614 87.2725 58.0392 86.3955 58.3946 85.6471C58.7501 84.8941 59.2576 84.3164 59.9171 83.9142C60.5813 83.5072 61.3484 83.3038 62.2184 83.3038C63.4907 83.3038 64.4776 83.5961 65.1792 84.1808C65.8855 84.7608 66.2971 85.6284 66.414 86.7837H64.0426C63.9584 86.2131 63.776 85.8062 63.4953 85.5629C63.2147 85.3197 62.8171 85.1981 62.3026 85.1981C61.6852 85.1981 61.2081 85.46 60.8713 85.9839C60.5346 86.5078 60.3638 87.2561 60.3591 88.229V88.8465C60.3591 89.8661 60.5322 90.6332 60.8783 91.1477C61.2291 91.6576 61.7787 91.9125 62.5271 91.9125C63.1679 91.9125 63.645 91.7698 63.9584 91.4845V89.8989H62.2465V88.208H66.421V92.4036ZM70.4763 93.6665H68.0207V83.4511H70.4763V93.6665ZM80.5514 92.4036C80.1726 92.8246 79.6183 93.1637 78.8886 93.4209C78.1589 93.6782 77.3591 93.8068 76.4891 93.8068C75.1514 93.8068 74.0826 93.3976 73.2828 92.579C72.4829 91.7605 72.055 90.6215 71.9988 89.1622L71.9918 88.2782C71.9918 87.2725 72.1695 86.3955 72.525 85.6471C72.8805 84.8941 73.388 84.3164 74.0475 83.9142C74.7117 83.5072 75.4788 83.3038 76.3488 83.3038C77.621 83.3038 78.608 83.5961 79.3096 84.1808C80.0159 84.7608 80.4275 85.6284 80.5444 86.7837H78.173C78.0888 86.2131 77.9064 85.8062 77.6257 85.5629C77.3451 85.3197 76.9475 85.1981 76.433 85.1981C75.8156 85.1981 75.3385 85.46 75.0017 85.9839C74.6649 86.5078 74.4942 87.2561 74.4895 88.229V88.8465C74.4895 89.8661 74.6626 90.6332 75.0087 91.1477C75.3595 91.6576 75.9091 91.9125 76.6575 91.9125C77.2983 91.9125 77.7754 91.7698 78.0888 91.4845V89.8989H76.3769V88.208H80.5514V92.4036ZM87.785 91.7581H84.4103L83.8209 93.6665H81.1899L84.9365 83.4511H87.2518L91.0264 93.6665H88.3814L87.785 91.7581ZM84.9996 89.8568H87.1957L86.0941 86.3137L84.9996 89.8568ZM97.0462 90.9513C97.0462 90.5911 96.9176 90.3105 96.6603 90.1094C96.4078 89.9082 95.9611 89.7001 95.3203 89.4849C94.6795 89.2698 94.1556 89.0616 93.7487 88.8605C92.425 88.2103 91.7631 87.317 91.7631 86.1803C91.7631 85.6144 91.9268 85.1162 92.2542 84.6859C92.5863 84.2509 93.0541 83.9142 93.6575 83.6756C94.2608 83.4324 94.9391 83.3108 95.6921 83.3108C96.4265 83.3108 97.0837 83.4417 97.6636 83.7037C98.2483 83.9656 98.702 84.3398 99.0248 84.8262C99.3475 85.308 99.5089 85.8599 99.5089 86.482H97.0532C97.0532 86.0658 96.9246 85.743 96.6674 85.5138C96.4148 85.2846 96.071 85.17 95.636 85.17C95.1963 85.17 94.8479 85.2683 94.5906 85.4647C94.338 85.6565 94.2117 85.902 94.2117 86.2014C94.2117 86.4633 94.3521 86.7019 94.6327 86.917C94.9133 87.1275 95.4068 87.3474 96.1131 87.5765C96.8194 87.8011 97.3994 88.0443 97.8531 88.3062C98.9569 88.9423 99.5089 89.8194 99.5089 90.9372C99.5089 91.8306 99.1721 92.5322 98.4986 93.0421C97.825 93.5519 96.9012 93.8068 95.7272 93.8068C94.8993 93.8068 94.1486 93.6595 93.475 93.3648C92.8062 93.0655 92.301 92.6585 91.9596 92.144C91.6228 91.6248 91.4544 91.0285 91.4544 90.3549H93.9241C93.9241 90.9022 94.0644 91.3068 94.345 91.5687C94.6304 91.826 95.0911 91.9546 95.7272 91.9546C96.1341 91.9546 96.4545 91.868 96.6884 91.695C96.927 91.5172 97.0462 91.2693 97.0462 90.9513Z" fill="#222222" fill-opacity="0.8"/>
<path d="M175.971 81.6155H172.173V84.7215H176.585V85.6665H171.017V76.9025H176.525V77.8535H172.173V80.6705H175.971V81.6155ZM180.034 81.5313L181.479 79.1537H182.779L180.648 82.374L182.845 85.6665H181.557L180.052 83.2287L178.547 85.6665H177.253L179.45 82.374L177.319 79.1537H178.608L180.034 81.5313ZM186.457 84.878C186.854 84.878 187.201 84.7576 187.498 84.5168C187.795 84.2761 187.959 83.9751 187.992 83.6139H189.045C189.025 83.9871 188.896 84.3423 188.66 84.6793C188.423 85.0164 188.106 85.2853 187.709 85.4859C187.315 85.6866 186.898 85.7869 186.457 85.7869C185.57 85.7869 184.864 85.4919 184.338 84.9021C183.816 84.3082 183.555 83.4976 183.555 82.4703V82.2837C183.555 81.6497 183.672 81.0859 183.904 80.5923C184.137 80.0987 184.47 79.7155 184.904 79.4426C185.341 79.1697 185.857 79.0333 186.451 79.0333C187.181 79.0333 187.787 79.252 188.268 79.6894C188.754 80.1268 189.013 80.6946 189.045 81.3928H187.992C187.959 80.9715 187.799 80.6264 187.51 80.3575C187.225 80.0847 186.872 79.9482 186.451 79.9482C185.885 79.9482 185.445 80.1529 185.132 80.5622C184.823 80.9675 184.669 81.5554 184.669 82.3258V82.5365C184.669 83.2869 184.823 83.8647 185.132 84.27C185.441 84.6753 185.883 84.878 186.457 84.878ZM191.507 85.6665H190.393V76.4209H191.507V85.6665ZM197.315 85.0224C196.882 85.5321 196.246 85.7869 195.407 85.7869C194.713 85.7869 194.183 85.5862 193.818 85.185C193.457 84.7797 193.274 84.1818 193.27 83.3912V79.1537H194.384V83.3611C194.384 84.3483 194.785 84.8419 195.588 84.8419C196.439 84.8419 197.004 84.5249 197.285 83.8908V79.1537H198.399V85.6665H197.339L197.315 85.0224ZM203.888 83.939C203.888 83.638 203.774 83.4053 203.545 83.2407C203.321 83.0722 202.925 82.9277 202.359 82.8074C201.798 82.687 201.35 82.5425 201.017 82.374C200.688 82.2054 200.443 82.0048 200.283 81.772C200.126 81.5393 200.048 81.2624 200.048 80.9414C200.048 80.4077 200.273 79.9562 200.722 79.5871C201.176 79.2179 201.754 79.0333 202.456 79.0333C203.194 79.0333 203.792 79.2239 204.25 79.6051C204.711 79.9863 204.942 80.4739 204.942 81.0678H203.822C203.822 80.7628 203.692 80.5 203.431 80.2793C203.174 80.0586 202.849 79.9482 202.456 79.9482C202.05 79.9482 201.733 80.0365 201.505 80.2131C201.276 80.3896 201.162 80.6204 201.162 80.9053C201.162 81.1741 201.268 81.3768 201.481 81.5132C201.693 81.6497 202.077 81.7801 202.63 81.9045C203.188 82.0289 203.64 82.1773 203.985 82.3499C204.33 82.5224 204.585 82.7311 204.749 82.9759C204.918 83.2167 205.002 83.5116 205.002 83.8607C205.002 84.4426 204.769 84.9101 204.304 85.2632C203.838 85.6123 203.234 85.7869 202.492 85.7869C201.97 85.7869 201.509 85.6946 201.107 85.51C200.706 85.3254 200.391 85.0686 200.162 84.7395C199.938 84.4065 199.825 84.0473 199.825 83.6621H200.939C200.959 84.0353 201.107 84.3322 201.384 84.5529C201.665 84.7696 202.034 84.878 202.492 84.878C202.913 84.878 203.25 84.7937 203.503 84.6252C203.76 84.4526 203.888 84.2239 203.888 83.939ZM207.662 85.6665H206.549V79.1537H207.662V85.6665ZM206.459 77.4262C206.459 77.2456 206.513 77.0931 206.621 76.9687C206.733 76.8443 206.898 76.7821 207.115 76.7821C207.331 76.7821 207.496 76.8443 207.608 76.9687C207.721 77.0931 207.777 77.2456 207.777 77.4262C207.777 77.6067 207.721 77.7572 207.608 77.8776C207.496 77.998 207.331 78.0582 207.115 78.0582C206.898 78.0582 206.733 77.998 206.621 77.8776C206.513 77.7572 206.459 77.6067 206.459 77.4262ZM211.599 84.1557L213.212 79.1537H214.35L212.014 85.6665H211.166L208.806 79.1537H209.944L211.599 84.1557ZM215.03 82.3499C215.03 81.7119 215.154 81.138 215.403 80.6284C215.656 80.1188 216.005 79.7255 216.451 79.4486C216.9 79.1717 217.412 79.0333 217.985 79.0333C218.872 79.0333 219.589 79.3403 220.134 79.9542C220.684 80.5682 220.959 81.3848 220.959 82.4041V82.4823C220.959 83.1163 220.837 83.6862 220.592 84.1918C220.351 84.6934 220.004 85.0846 219.55 85.3655C219.101 85.6464 218.583 85.7869 217.997 85.7869C217.115 85.7869 216.398 85.4799 215.849 84.8659C215.303 84.252 215.03 83.4394 215.03 82.4281V82.3499ZM216.15 82.4823C216.15 83.2046 216.316 83.7845 216.649 84.2219C216.986 84.6593 217.436 84.878 217.997 84.878C218.563 84.878 219.013 84.6573 219.346 84.2159C219.679 83.7704 219.845 83.1485 219.845 82.3499C219.845 81.6356 219.675 81.0578 219.334 80.6164C218.997 80.1709 218.547 79.9482 217.985 79.9482C217.436 79.9482 216.992 80.1669 216.655 80.6043C216.318 81.0417 216.15 81.6677 216.15 82.4823Z" fill="#222222" fill-opacity="0.8"/>
<path d="M176.531 96.4703C176.531 97.4735 176.302 98.2781 175.845 98.884C175.391 99.4859 174.777 99.7869 174.003 99.7869C173.345 99.7869 172.813 99.5582 172.408 99.1007V102.171H170.668V93.1537H172.281L172.341 93.7917C172.763 93.2861 173.313 93.0333 173.991 93.0333C174.793 93.0333 175.417 93.3302 175.863 93.9241C176.308 94.518 176.531 95.3367 176.531 96.38V96.4703ZM174.791 96.3439C174.791 95.7379 174.683 95.2704 174.466 94.9414C174.254 94.6123 173.943 94.4478 173.533 94.4478C172.988 94.4478 172.612 94.6565 172.408 95.0738V97.7403C172.62 98.1697 173 98.3844 173.545 98.3844C174.376 98.3844 174.791 97.7042 174.791 96.3439ZM181.388 99.6665C181.308 99.51 181.25 99.3154 181.214 99.0826C180.793 99.5521 180.245 99.7869 179.571 99.7869C178.933 99.7869 178.403 99.6023 177.982 99.2331C177.564 98.8639 177.356 98.3984 177.356 97.8367C177.356 97.1464 177.61 96.6168 178.12 96.2476C178.634 95.8784 179.374 95.6918 180.341 95.6878H181.142V95.3146C181.142 95.0136 181.063 94.7729 180.907 94.5923C180.754 94.4117 180.512 94.3214 180.179 94.3214C179.886 94.3214 179.655 94.3916 179.486 94.5321C179.322 94.6725 179.24 94.8651 179.24 95.1099H177.5C177.5 94.7327 177.616 94.3836 177.849 94.0626C178.082 93.7416 178.411 93.4908 178.836 93.3102C179.262 93.1256 179.739 93.0333 180.269 93.0333C181.071 93.0333 181.707 93.2359 182.177 93.6412C182.65 94.0425 182.887 94.6083 182.887 95.3387V98.1617C182.891 98.7797 182.978 99.2472 183.146 99.5642V99.6665H181.388ZM179.95 98.4566C180.207 98.4566 180.443 98.4005 180.66 98.2881C180.877 98.1717 181.037 98.0172 181.142 97.8246V96.705H180.492C179.621 96.705 179.157 97.006 179.101 97.6079L179.095 97.7102C179.095 97.9269 179.171 98.1055 179.324 98.246C179.476 98.3864 179.685 98.4566 179.95 98.4566ZM187.883 94.7849C187.646 94.7528 187.438 94.7367 187.257 94.7367C186.599 94.7367 186.168 94.9595 185.963 95.4049V99.6665H184.223V93.1537H185.867L185.915 93.9302C186.264 93.3322 186.748 93.0333 187.366 93.0333C187.558 93.0333 187.739 93.0594 187.907 93.1115L187.883 94.7849ZM192.319 99.6665C192.239 99.51 192.181 99.3154 192.145 99.0826C191.723 99.5521 191.176 99.7869 190.502 99.7869C189.864 99.7869 189.334 99.6023 188.912 99.2331C188.495 98.8639 188.286 98.3984 188.286 97.8367C188.286 97.1464 188.541 96.6168 189.051 96.2476C189.565 95.8784 190.305 95.6918 191.272 95.6878H192.073V95.3146C192.073 95.0136 191.994 94.7729 191.838 94.5923C191.685 94.4117 191.443 94.3214 191.11 94.3214C190.817 94.3214 190.586 94.3916 190.417 94.5321C190.253 94.6725 190.171 94.8651 190.171 95.1099H188.431C188.431 94.7327 188.547 94.3836 188.78 94.0626C189.013 93.7416 189.342 93.4908 189.767 93.3102C190.193 93.1256 190.67 93.0333 191.2 93.0333C192.002 93.0333 192.638 93.2359 193.108 93.6412C193.581 94.0425 193.818 94.6083 193.818 95.3387V98.1617C193.822 98.7797 193.908 99.2472 194.077 99.5642V99.6665H192.319ZM190.881 98.4566C191.138 98.4566 191.374 98.4005 191.591 98.2881C191.808 98.1717 191.968 98.0172 192.073 97.8246V96.705H191.423C190.552 96.705 190.088 97.006 190.032 97.6079L190.026 97.7102C190.026 97.9269 190.102 98.1055 190.255 98.246C190.407 98.3864 190.616 98.4566 190.881 98.4566ZM201.884 94.7849C201.647 94.7528 201.439 94.7367 201.258 94.7367C200.6 94.7367 200.168 94.9595 199.964 95.4049V99.6665H198.224V93.1537H199.868L199.916 93.9302C200.265 93.3322 200.748 93.0333 201.366 93.0333C201.559 93.0333 201.739 93.0594 201.908 93.1115L201.884 94.7849ZM205.604 99.7869C204.649 99.7869 203.87 99.494 203.268 98.9081C202.67 98.3222 202.372 97.5417 202.372 96.5666V96.3981C202.372 95.744 202.498 95.1601 202.751 94.6465C203.004 94.1288 203.361 93.7315 203.822 93.4546C204.288 93.1737 204.817 93.0333 205.411 93.0333C206.302 93.0333 207.002 93.3142 207.512 93.876C208.026 94.4378 208.282 95.2343 208.282 96.2656V96.9759H204.135C204.191 97.4013 204.36 97.7424 204.641 97.9992C204.926 98.256 205.285 98.3844 205.718 98.3844C206.388 98.3844 206.912 98.1416 207.289 97.6561L208.144 98.6131C207.883 98.9823 207.53 99.2712 207.085 99.4799C206.639 99.6846 206.146 99.7869 205.604 99.7869ZM205.405 94.4418C205.06 94.4418 204.779 94.5582 204.563 94.7909C204.35 95.0237 204.213 95.3567 204.153 95.7901H206.573V95.6517C206.565 95.2664 206.461 94.9695 206.26 94.7608C206.059 94.5481 205.774 94.4418 205.405 94.4418ZM209.005 96.3619C209.005 95.3467 209.231 94.5381 209.685 93.9362C210.142 93.3343 210.766 93.0333 211.557 93.0333C212.191 93.0333 212.715 93.27 213.128 93.7436V90.4209H214.874V99.6665H213.302L213.218 98.9743C212.785 99.516 212.227 99.7869 211.545 99.7869C210.778 99.7869 210.162 99.4859 209.697 98.884C209.235 98.2781 209.005 97.4374 209.005 96.3619ZM210.744 96.4883C210.744 97.0983 210.851 97.5658 211.063 97.8908C211.276 98.2159 211.585 98.3784 211.99 98.3784C212.528 98.3784 212.907 98.1517 213.128 97.6982V95.128C212.911 94.6745 212.536 94.4478 212.002 94.4478C211.164 94.4478 210.744 95.128 210.744 96.4883ZM219.219 99.7869C218.264 99.7869 217.486 99.494 216.884 98.9081C216.286 98.3222 215.987 97.5417 215.987 96.5666V96.3981C215.987 95.744 216.113 95.1601 216.366 94.6465C216.619 94.1288 216.976 93.7315 217.438 93.4546C217.903 93.1737 218.433 93.0333 219.027 93.0333C219.918 93.0333 220.618 93.3142 221.128 93.876C221.641 94.4378 221.898 95.2343 221.898 96.2656V96.9759H217.751C217.807 97.4013 217.975 97.7424 218.256 97.9992C218.541 98.256 218.9 98.3844 219.334 98.3844C220.004 98.3844 220.528 98.1416 220.905 97.6561L221.76 98.6131C221.499 98.9823 221.146 99.2712 220.7 99.4799C220.255 99.6846 219.761 99.7869 219.219 99.7869ZM219.021 94.4418C218.676 94.4418 218.395 94.5582 218.178 94.7909C217.965 95.0237 217.829 95.3567 217.769 95.7901H220.188V95.6517C220.18 95.2664 220.076 94.9695 219.875 94.7608C219.675 94.5481 219.39 94.4418 219.021 94.4418ZM226.418 97.8667C226.418 97.6541 226.312 97.4875 226.099 97.3672C225.891 97.2428 225.554 97.1324 225.088 97.0361C223.539 96.7111 222.765 96.0529 222.765 95.0618C222.765 94.4839 223.004 94.0024 223.481 93.6172C223.963 93.2279 224.591 93.0333 225.365 93.0333C226.192 93.0333 226.852 93.2279 227.345 93.6172C227.843 94.0064 228.092 94.512 228.092 95.134H226.352C226.352 94.8852 226.272 94.6806 226.111 94.52C225.951 94.3555 225.7 94.2733 225.359 94.2733C225.066 94.2733 224.839 94.3395 224.679 94.4719C224.518 94.6043 224.438 94.7729 224.438 94.9775C224.438 95.1701 224.528 95.3266 224.709 95.447C224.894 95.5634 225.203 95.6657 225.636 95.754C226.069 95.8383 226.434 95.9346 226.731 96.0429C227.65 96.38 228.11 96.9639 228.11 97.7945C228.11 98.3884 227.855 98.87 227.345 99.2391C226.836 99.6043 226.178 99.7869 225.371 99.7869C224.825 99.7869 224.34 99.6906 223.914 99.498C223.493 99.3013 223.162 99.0345 222.921 98.6974C222.68 98.3563 222.56 97.9891 222.56 97.5959H224.209C224.225 97.9049 224.34 98.1416 224.552 98.3062C224.765 98.4707 225.05 98.5529 225.407 98.5529C225.74 98.5529 225.991 98.4907 226.16 98.3663C226.332 98.2379 226.418 98.0714 226.418 97.8667Z" fill="#EE392A"/>
<rect width="208" height="28" transform="translate(34 111.333)" fill="white"/>
<path d="M39.7373 124.538H42.1297V126.566H39.7373V129.309H37.5272V126.566H35.1277V124.538H37.5272V121.872H39.7373V124.538ZM51.9312 130.333H49.5598V122.784L47.2304 123.465V121.668L51.7137 120.118H51.9312V130.333ZM55.1516 125.338L55.776 120.118H61.7467V121.956H57.6984L57.4669 123.984C57.6353 123.885 57.8551 123.799 58.1264 123.724C58.4024 123.649 58.6713 123.612 58.9332 123.612C59.9482 123.612 60.727 123.914 61.2696 124.517C61.8169 125.116 62.0905 125.958 62.0905 127.043C62.0905 127.698 61.9431 128.292 61.6485 128.825C61.3585 129.353 60.9492 129.76 60.4207 130.046C59.8921 130.331 59.2677 130.474 58.5474 130.474C57.9066 130.474 57.3055 130.343 56.7442 130.081C56.1829 129.814 55.7433 129.452 55.4252 128.993C55.1071 128.53 54.9505 128.009 54.9551 127.429H57.3266C57.35 127.803 57.4692 128.1 57.6844 128.32C57.8995 128.539 58.1825 128.649 58.5333 128.649C59.3285 128.649 59.7261 128.06 59.7261 126.881C59.7261 125.792 59.2396 125.247 58.2667 125.247C57.7148 125.247 57.3032 125.424 57.0319 125.78L55.1516 125.338ZM75.421 129.07C75.0422 129.491 74.4879 129.83 73.7582 130.088C73.0286 130.345 72.2287 130.474 71.3587 130.474C70.021 130.474 68.9522 130.064 68.1524 129.246C67.3525 128.427 66.9246 127.288 66.8684 125.829L66.8614 124.945C66.8614 123.939 67.0392 123.062 67.3946 122.314C67.7501 121.561 68.2576 120.983 68.9171 120.581C69.5813 120.174 70.3484 119.971 71.2184 119.971C72.4907 119.971 73.4776 120.263 74.1792 120.848C74.8855 121.428 75.2971 122.295 75.414 123.45H73.0426C72.9584 122.88 72.776 122.473 72.4953 122.23C72.2147 121.986 71.8171 121.865 71.3026 121.865C70.6852 121.865 70.2081 122.127 69.8713 122.651C69.5345 123.175 69.3638 123.923 69.3591 124.896V125.513C69.3591 126.533 69.5322 127.3 69.8783 127.814C70.2291 128.324 70.7787 128.579 71.5271 128.579C72.1679 128.579 72.645 128.437 72.9584 128.151V126.566H71.2465V124.875H75.421V129.07ZM79.4763 130.333H77.0207V120.118H79.4763V130.333ZM89.5514 129.07C89.1726 129.491 88.6183 129.83 87.8886 130.088C87.1589 130.345 86.3591 130.474 85.4891 130.474C84.1514 130.474 83.0826 130.064 82.2828 129.246C81.4829 128.427 81.0549 127.288 80.9988 125.829L80.9918 124.945C80.9918 123.939 81.1695 123.062 81.525 122.314C81.8805 121.561 82.388 120.983 83.0475 120.581C83.7117 120.174 84.4788 119.971 85.3488 119.971C86.621 119.971 87.608 120.263 88.3096 120.848C89.0159 121.428 89.4275 122.295 89.5444 123.45H87.173C87.0888 122.88 86.9064 122.473 86.6257 122.23C86.3451 121.986 85.9475 121.865 85.433 121.865C84.8156 121.865 84.3385 122.127 84.0017 122.651C83.6649 123.175 83.4942 123.923 83.4895 124.896V125.513C83.4895 126.533 83.6626 127.3 84.0087 127.814C84.3595 128.324 84.9091 128.579 85.6575 128.579C86.2983 128.579 86.7754 128.437 87.0888 128.151V126.566H85.3769V124.875H89.5514V129.07ZM96.785 128.425H93.4103L92.8209 130.333H90.1899L93.9365 120.118H96.2518L100.026 130.333H97.3814L96.785 128.425ZM93.9996 126.524H96.1956L95.0941 122.98L93.9996 126.524ZM106.046 127.618C106.046 127.258 105.918 126.977 105.66 126.776C105.408 126.575 104.961 126.367 104.32 126.152C103.679 125.937 103.156 125.728 102.749 125.527C101.425 124.877 100.763 123.984 100.763 122.847C100.763 122.281 100.927 121.783 101.254 121.353C101.586 120.918 102.054 120.581 102.657 120.342C103.261 120.099 103.939 119.978 104.692 119.978C105.426 119.978 106.084 120.108 106.664 120.37C107.248 120.632 107.702 121.007 108.025 121.493C108.347 121.975 108.509 122.527 108.509 123.149H106.053C106.053 122.732 105.925 122.41 105.667 122.181C105.415 121.951 105.071 121.837 104.636 121.837C104.196 121.837 103.848 121.935 103.591 122.131C103.338 122.323 103.212 122.569 103.212 122.868C103.212 123.13 103.352 123.369 103.633 123.584C103.913 123.794 104.407 124.014 105.113 124.243C105.819 124.468 106.399 124.711 106.853 124.973C107.957 125.609 108.509 126.486 108.509 127.604C108.509 128.497 108.172 129.199 107.499 129.709C106.825 130.219 105.901 130.474 104.727 130.474C103.899 130.474 103.149 130.326 102.475 130.032C101.806 129.732 101.301 129.325 100.96 128.811C100.623 128.292 100.454 127.695 100.454 127.022H102.924C102.924 127.569 103.064 127.974 103.345 128.235C103.63 128.493 104.091 128.621 104.727 128.621C105.134 128.621 105.455 128.535 105.688 128.362C105.927 128.184 106.046 127.936 106.046 127.618Z" fill="#222222" fill-opacity="0.8"/>
<path d="M171.017 122.333V113.569H173.491C174.254 113.569 174.928 113.738 175.514 114.075C176.1 114.412 176.551 114.891 176.868 115.513C177.189 116.135 177.352 116.85 177.356 117.656V118.216C177.356 119.043 177.195 119.767 176.874 120.389C176.557 121.011 176.102 121.489 175.508 121.822C174.918 122.155 174.23 122.325 173.443 122.333H171.017ZM172.173 114.52V121.388H173.389C174.28 121.388 174.972 121.111 175.465 120.558C175.963 120.004 176.212 119.215 176.212 118.192V117.68C176.212 116.685 175.977 115.913 175.508 115.363C175.042 114.809 174.38 114.528 173.521 114.52H172.173ZM181.635 122.454C180.752 122.454 180.034 122.165 179.48 121.587C178.927 121.005 178.65 120.229 178.65 119.257V119.053C178.65 118.407 178.772 117.831 179.017 117.325C179.266 116.816 179.611 116.418 180.052 116.133C180.498 115.845 180.979 115.7 181.497 115.7C182.343 115.7 183.002 115.979 183.471 116.537C183.941 117.094 184.175 117.893 184.175 118.932V119.396H179.763C179.779 120.038 179.966 120.558 180.323 120.955C180.684 121.348 181.142 121.545 181.695 121.545C182.089 121.545 182.422 121.464 182.695 121.304C182.967 121.143 183.206 120.931 183.411 120.666L184.091 121.196C183.545 122.034 182.727 122.454 181.635 122.454ZM181.497 116.615C181.047 116.615 180.67 116.779 180.365 117.109C180.06 117.434 179.872 117.891 179.799 118.481H183.062V118.397C183.03 117.831 182.877 117.393 182.604 117.084C182.331 116.771 181.962 116.615 181.497 116.615ZM191.675 116.82C191.507 116.792 191.324 116.777 191.128 116.777C190.397 116.777 189.902 117.088 189.641 117.71V122.333H188.527V115.82H189.611L189.629 116.573C189.994 115.991 190.512 115.7 191.182 115.7C191.398 115.7 191.563 115.728 191.675 115.784V116.82ZM195.287 122.454C194.404 122.454 193.686 122.165 193.132 121.587C192.578 121.005 192.301 120.229 192.301 119.257V119.053C192.301 118.407 192.424 117.831 192.668 117.325C192.917 116.816 193.262 116.418 193.704 116.133C194.149 115.845 194.631 115.7 195.148 115.7C195.995 115.7 196.653 115.979 197.123 116.537C197.592 117.094 197.827 117.893 197.827 118.932V119.396H193.415C193.431 120.038 193.618 120.558 193.975 120.955C194.336 121.348 194.793 121.545 195.347 121.545C195.74 121.545 196.073 121.464 196.346 121.304C196.619 121.143 196.858 120.931 197.063 120.666L197.743 121.196C197.197 122.034 196.378 122.454 195.287 122.454ZM195.148 116.615C194.699 116.615 194.322 116.779 194.017 117.109C193.712 117.434 193.523 117.891 193.451 118.481H196.713V118.397C196.681 117.831 196.529 117.393 196.256 117.084C195.983 116.771 195.614 116.615 195.148 116.615ZM198.856 119.023C198.856 118.007 199.091 117.201 199.561 116.603C200.03 116.001 200.652 115.7 201.426 115.7C202.221 115.7 202.841 115.981 203.286 116.543L203.341 115.82H204.358V122.177C204.358 123.019 204.107 123.684 203.605 124.169C203.108 124.655 202.438 124.897 201.595 124.897C201.126 124.897 200.666 124.797 200.217 124.596C199.767 124.396 199.424 124.121 199.187 123.772L199.765 123.104C200.243 123.694 200.827 123.989 201.517 123.989C202.059 123.989 202.48 123.836 202.781 123.531C203.086 123.226 203.238 122.797 203.238 122.243V121.683C202.793 122.197 202.185 122.454 201.414 122.454C200.652 122.454 200.034 122.147 199.561 121.533C199.091 120.919 198.856 120.082 198.856 119.023ZM199.976 119.149C199.976 119.883 200.126 120.461 200.427 120.883C200.728 121.3 201.15 121.509 201.691 121.509C202.394 121.509 202.909 121.19 203.238 120.552V117.578C202.897 116.956 202.386 116.645 201.703 116.645C201.162 116.645 200.738 116.856 200.433 117.277C200.128 117.698 199.976 118.322 199.976 119.149ZM210.064 122.333C210 122.205 209.948 121.976 209.908 121.647C209.39 122.185 208.772 122.454 208.054 122.454C207.412 122.454 206.884 122.273 206.471 121.912C206.061 121.547 205.857 121.085 205.857 120.527C205.857 119.849 206.113 119.324 206.627 118.95C207.145 118.573 207.871 118.385 208.806 118.385H209.89V117.873C209.89 117.484 209.773 117.175 209.54 116.946C209.308 116.713 208.965 116.597 208.511 116.597C208.114 116.597 207.781 116.697 207.512 116.898C207.243 117.099 207.109 117.341 207.109 117.626H205.989C205.989 117.301 206.103 116.988 206.332 116.687C206.565 116.382 206.878 116.141 207.271 115.965C207.668 115.788 208.104 115.7 208.577 115.7C209.328 115.7 209.916 115.889 210.341 116.266C210.766 116.639 210.987 117.155 211.003 117.813V120.81C211.003 121.408 211.079 121.884 211.232 122.237V122.333H210.064ZM208.216 121.485C208.565 121.485 208.896 121.394 209.209 121.214C209.522 121.033 209.749 120.798 209.89 120.509V119.173H209.017C207.652 119.173 206.97 119.572 206.97 120.371C206.97 120.72 207.087 120.993 207.319 121.19C207.552 121.386 207.851 121.485 208.216 121.485ZM213.959 122.333H212.845V113.088H213.959V122.333ZM215.451 119.017C215.451 118.379 215.576 117.805 215.825 117.295C216.077 116.786 216.426 116.392 216.872 116.115C217.321 115.838 217.833 115.7 218.407 115.7C219.294 115.7 220.01 116.007 220.556 116.621C221.105 117.235 221.38 118.052 221.38 119.071V119.149C221.38 119.783 221.258 120.353 221.013 120.859C220.772 121.36 220.425 121.751 219.972 122.032C219.522 122.313 219.005 122.454 218.419 122.454C217.536 122.454 216.82 122.147 216.27 121.533C215.724 120.919 215.451 120.106 215.451 119.095V119.017ZM216.571 119.149C216.571 119.871 216.737 120.451 217.071 120.889C217.408 121.326 217.857 121.545 218.419 121.545C218.985 121.545 219.434 121.324 219.767 120.883C220.1 120.437 220.267 119.815 220.267 119.017C220.267 118.302 220.096 117.725 219.755 117.283C219.418 116.838 218.969 116.615 218.407 116.615C217.857 116.615 217.414 116.834 217.077 117.271C216.739 117.708 216.571 118.334 216.571 119.149Z" fill="#222222" fill-opacity="0.8"/>
<path d="M176.531 133.137C176.531 134.14 176.302 134.945 175.845 135.551C175.391 136.153 174.777 136.454 174.003 136.454C173.345 136.454 172.813 136.225 172.408 135.767V138.837H170.668V129.82H172.281L172.341 130.458C172.763 129.953 173.313 129.7 173.991 129.7C174.793 129.7 175.417 129.997 175.863 130.591C176.308 131.185 176.531 132.003 176.531 133.047V133.137ZM174.791 133.011C174.791 132.405 174.683 131.937 174.466 131.608C174.254 131.279 173.943 131.115 173.533 131.115C172.988 131.115 172.612 131.323 172.408 131.741V134.407C172.62 134.836 173 135.051 173.545 135.051C174.376 135.051 174.791 134.371 174.791 133.011ZM177.343 133.017C177.343 132.371 177.468 131.795 177.717 131.289C177.965 130.784 178.323 130.392 178.788 130.115C179.258 129.838 179.801 129.7 180.419 129.7C181.298 129.7 182.014 129.969 182.568 130.507C183.126 131.044 183.437 131.775 183.501 132.698L183.513 133.143C183.513 134.142 183.234 134.945 182.677 135.551C182.119 136.153 181.37 136.454 180.431 136.454C179.492 136.454 178.742 136.153 178.18 135.551C177.622 134.949 177.343 134.13 177.343 133.095V133.017ZM179.083 133.143C179.083 133.761 179.199 134.235 179.432 134.564C179.665 134.889 179.998 135.051 180.431 135.051C180.853 135.051 181.182 134.891 181.419 134.57C181.655 134.245 181.774 133.727 181.774 133.017C181.774 132.411 181.655 131.941 181.419 131.608C181.182 131.275 180.849 131.109 180.419 131.109C179.994 131.109 179.665 131.275 179.432 131.608C179.199 131.937 179.083 132.449 179.083 133.143ZM188.244 131.452C188.008 131.42 187.799 131.403 187.618 131.403C186.96 131.403 186.529 131.626 186.324 132.072V136.333H184.585V129.82H186.228L186.276 130.597C186.625 129.999 187.109 129.7 187.727 129.7C187.919 129.7 188.1 129.726 188.268 129.778L188.244 131.452ZM193.854 131.181H194.781C195.223 131.181 195.55 131.07 195.762 130.85C195.975 130.629 196.081 130.336 196.081 129.971C196.081 129.618 195.975 129.343 195.762 129.146C195.554 128.95 195.265 128.851 194.896 128.851C194.563 128.851 194.284 128.944 194.059 129.128C193.834 129.309 193.722 129.546 193.722 129.838H191.982C191.982 129.381 192.105 128.972 192.349 128.611C192.598 128.245 192.943 127.96 193.385 127.756C193.83 127.551 194.32 127.449 194.853 127.449C195.78 127.449 196.507 127.672 197.032 128.117C197.558 128.558 197.821 129.168 197.821 129.947C197.821 130.348 197.699 130.717 197.454 131.054C197.209 131.391 196.888 131.65 196.491 131.831C196.984 132.007 197.351 132.272 197.592 132.625C197.837 132.979 197.959 133.396 197.959 133.877C197.959 134.656 197.675 135.28 197.105 135.749C196.539 136.219 195.788 136.454 194.853 136.454C193.979 136.454 193.262 136.223 192.705 135.761C192.151 135.3 191.874 134.69 191.874 133.932H193.614C193.614 134.261 193.736 134.529 193.981 134.738C194.229 134.947 194.534 135.051 194.896 135.051C195.309 135.051 195.632 134.943 195.865 134.726C196.101 134.505 196.22 134.214 196.22 133.853C196.22 132.979 195.738 132.541 194.775 132.541H193.854V131.181ZM203.937 129.82L203.991 130.549C204.452 129.983 205.076 129.7 205.863 129.7C206.701 129.7 207.277 130.031 207.59 130.693C208.048 130.031 208.7 129.7 209.546 129.7C210.253 129.7 210.778 129.907 211.124 130.32C211.469 130.729 211.641 131.347 211.641 132.174V136.333H209.896V132.18C209.896 131.811 209.823 131.542 209.679 131.373C209.534 131.201 209.28 131.115 208.914 131.115C208.393 131.115 208.032 131.363 207.831 131.861L207.837 136.333H206.097V132.186C206.097 131.809 206.023 131.536 205.875 131.367C205.726 131.199 205.473 131.115 205.116 131.115C204.623 131.115 204.266 131.319 204.045 131.729V136.333H202.305V129.82H203.937ZM215.981 136.454C215.026 136.454 214.248 136.161 213.646 135.575C213.048 134.989 212.749 134.208 212.749 133.233V133.065C212.749 132.411 212.875 131.827 213.128 131.313C213.381 130.796 213.738 130.398 214.199 130.121C214.665 129.84 215.195 129.7 215.788 129.7C216.679 129.7 217.38 129.981 217.889 130.543C218.403 131.105 218.66 131.901 218.66 132.932V133.643H214.512C214.569 134.068 214.737 134.409 215.018 134.666C215.303 134.923 215.662 135.051 216.095 135.051C216.766 135.051 217.289 134.808 217.666 134.323L218.521 135.28C218.26 135.649 217.907 135.938 217.462 136.147C217.016 136.351 216.523 136.454 215.981 136.454ZM215.782 131.109C215.437 131.109 215.156 131.225 214.94 131.458C214.727 131.69 214.591 132.023 214.53 132.457H216.95V132.318C216.942 131.933 216.838 131.636 216.637 131.428C216.437 131.215 216.152 131.109 215.782 131.109ZM223.18 134.533C223.18 134.321 223.074 134.154 222.861 134.034C222.652 133.91 222.315 133.799 221.85 133.703C220.301 133.378 219.526 132.72 219.526 131.729C219.526 131.151 219.765 130.669 220.243 130.284C220.724 129.895 221.352 129.7 222.127 129.7C222.953 129.7 223.613 129.895 224.107 130.284C224.605 130.673 224.853 131.179 224.853 131.801H223.114C223.114 131.552 223.034 131.347 222.873 131.187C222.713 131.022 222.462 130.94 222.121 130.94C221.828 130.94 221.601 131.006 221.441 131.139C221.28 131.271 221.2 131.44 221.2 131.644C221.2 131.837 221.29 131.993 221.471 132.114C221.655 132.23 221.964 132.332 222.398 132.421C222.831 132.505 223.196 132.601 223.493 132.71C224.412 133.047 224.871 133.631 224.871 134.461C224.871 135.055 224.617 135.537 224.107 135.906C223.597 136.271 222.939 136.454 222.133 136.454C221.587 136.454 221.101 136.357 220.676 136.165C220.255 135.968 219.924 135.701 219.683 135.364C219.442 135.023 219.322 134.656 219.322 134.263H220.971C220.987 134.572 221.101 134.808 221.314 134.973C221.527 135.137 221.812 135.22 222.169 135.22C222.502 135.22 222.753 135.157 222.921 135.033C223.094 134.905 223.18 134.738 223.18 134.533ZM228.995 136.454C228.04 136.454 227.261 136.161 226.659 135.575C226.061 134.989 225.762 134.208 225.762 133.233V133.065C225.762 132.411 225.889 131.827 226.142 131.313C226.394 130.796 226.751 130.398 227.213 130.121C227.678 129.84 228.208 129.7 228.802 129.7C229.693 129.7 230.393 129.981 230.903 130.543C231.416 131.105 231.673 131.901 231.673 132.932V133.643H227.526C227.582 134.068 227.751 134.409 228.032 134.666C228.316 134.923 228.676 135.051 229.109 135.051C229.779 135.051 230.303 134.808 230.68 134.323L231.535 135.28C231.274 135.649 230.921 135.938 230.475 136.147C230.03 136.351 229.536 136.454 228.995 136.454ZM228.796 131.109C228.451 131.109 228.17 131.225 227.953 131.458C227.741 131.69 227.604 132.023 227.544 132.457H229.964V132.318C229.956 131.933 229.851 131.636 229.651 131.428C229.45 131.215 229.165 131.109 228.796 131.109ZM236.194 134.533C236.194 134.321 236.087 134.154 235.875 134.034C235.666 133.91 235.329 133.799 234.863 133.703C233.314 133.378 232.54 132.72 232.54 131.729C232.54 131.151 232.779 130.669 233.256 130.284C233.738 129.895 234.366 129.7 235.14 129.7C235.967 129.7 236.627 129.895 237.121 130.284C237.618 130.673 237.867 131.179 237.867 131.801H236.127C236.127 131.552 236.047 131.347 235.887 131.187C235.726 131.022 235.475 130.94 235.134 130.94C234.841 130.94 234.615 131.006 234.454 131.139C234.294 131.271 234.213 131.44 234.213 131.644C234.213 131.837 234.304 131.993 234.484 132.114C234.669 132.23 234.978 132.332 235.411 132.421C235.845 132.505 236.21 132.601 236.507 132.71C237.426 133.047 237.885 133.631 237.885 134.461C237.885 135.055 237.63 135.537 237.121 135.906C236.611 136.271 235.953 136.454 235.146 136.454C234.601 136.454 234.115 136.357 233.69 136.165C233.268 135.968 232.937 135.701 232.697 135.364C232.456 135.023 232.335 134.656 232.335 134.263H233.985C234.001 134.572 234.115 134.808 234.328 134.973C234.54 135.137 234.825 135.22 235.182 135.22C235.516 135.22 235.766 135.157 235.935 135.033C236.107 134.905 236.194 134.738 236.194 134.533Z" fill="#EE3A2B"/>
<rect width="206" height="28" transform="translate(35 150.333)" fill="white"/>
<path d="M40.0583 163.538H42.4508V165.566H40.0583V168.309H37.8483V165.566H35.4488V163.538H37.8483V160.872H40.0583V163.538ZM47.1516 164.338L47.776 159.118H53.7467V160.956H49.6984L49.4669 162.984C49.6353 162.885 49.8551 162.799 50.1264 162.724C50.4024 162.649 50.6713 162.612 50.9333 162.612C51.9482 162.612 52.727 162.914 53.2696 163.517C53.8169 164.116 54.0905 164.958 54.0905 166.043C54.0905 166.698 53.9432 167.292 53.6485 167.825C53.3585 168.353 52.9492 168.76 52.4207 169.046C51.8921 169.331 51.2677 169.474 50.5474 169.474C49.9066 169.474 49.3055 169.343 48.7442 169.081C48.1829 168.814 47.7433 168.452 47.4252 167.993C47.1072 167.53 46.9505 167.009 46.9551 166.429H49.3266C49.35 166.803 49.4692 167.1 49.6844 167.32C49.8996 167.539 50.1825 167.649 50.5333 167.649C51.3285 167.649 51.7261 167.06 51.7261 165.881C51.7261 164.792 51.2396 164.247 50.2667 164.247C49.7148 164.247 49.3032 164.424 49.0319 164.78L47.1516 164.338ZM67.421 168.07C67.0422 168.491 66.4879 168.83 65.7582 169.088C65.0286 169.345 64.2287 169.474 63.3587 169.474C62.021 169.474 60.9522 169.064 60.1524 168.246C59.3526 167.427 58.9246 166.288 58.8684 164.829L58.8614 163.945C58.8614 162.939 59.0392 162.062 59.3946 161.314C59.7501 160.561 60.2576 159.983 60.9171 159.581C61.5813 159.174 62.3484 158.971 63.2184 158.971C64.4907 158.971 65.4776 159.263 66.1792 159.848C66.8855 160.428 67.2971 161.295 67.414 162.45H65.0426C64.9584 161.88 64.776 161.473 64.4953 161.23C64.2147 160.986 63.8171 160.865 63.3026 160.865C62.6852 160.865 62.2081 161.127 61.8713 161.651C61.5346 162.175 61.3638 162.923 61.3591 163.896V164.513C61.3591 165.533 61.5322 166.3 61.8783 166.814C62.2291 167.324 62.7787 167.579 63.5271 167.579C64.1679 167.579 64.645 167.437 64.9584 167.151V165.566H63.2465V163.875H67.421V168.07ZM71.4763 169.333H69.0207V159.118H71.4763V169.333ZM81.5514 168.07C81.1726 168.491 80.6183 168.83 79.8886 169.088C79.1589 169.345 78.3591 169.474 77.4891 169.474C76.1514 169.474 75.0826 169.064 74.2828 168.246C73.4829 167.427 73.055 166.288 72.9988 164.829L72.9918 163.945C72.9918 162.939 73.1695 162.062 73.525 161.314C73.8805 160.561 74.388 159.983 75.0475 159.581C75.7117 159.174 76.4788 158.971 77.3488 158.971C78.621 158.971 79.608 159.263 80.3096 159.848C81.0159 160.428 81.4275 161.295 81.5444 162.45H79.173C79.0888 161.88 78.9064 161.473 78.6257 161.23C78.3451 160.986 77.9475 160.865 77.433 160.865C76.8156 160.865 76.3385 161.127 76.0017 161.651C75.6649 162.175 75.4942 162.923 75.4895 163.896V164.513C75.4895 165.533 75.6626 166.3 76.0087 166.814C76.3595 167.324 76.9091 167.579 77.6575 167.579C78.2983 167.579 78.7754 167.437 79.0888 167.151V165.566H77.3769V163.875H81.5514V168.07ZM88.785 167.425H85.4103L84.8209 169.333H82.1899L85.9365 159.118H88.2518L92.0264 169.333H89.3814L88.785 167.425ZM85.9996 165.524H88.1957L87.0941 161.98L85.9996 165.524ZM98.0462 166.618C98.0462 166.258 97.9176 165.977 97.6603 165.776C97.4078 165.575 96.9611 165.367 96.3203 165.152C95.6795 164.937 95.1556 164.728 94.7487 164.527C93.425 163.877 92.7631 162.984 92.7631 161.847C92.7631 161.281 92.9268 160.783 93.2542 160.353C93.5863 159.918 94.0541 159.581 94.6575 159.342C95.2608 159.099 95.9391 158.978 96.6921 158.978C97.4265 158.978 98.0837 159.108 98.6636 159.37C99.2483 159.632 99.702 160.007 100.025 160.493C100.348 160.975 100.509 161.527 100.509 162.149H98.0532C98.0532 161.732 97.9246 161.41 97.6674 161.181C97.4148 160.951 97.071 160.837 96.636 160.837C96.1963 160.837 95.8479 160.935 95.5906 161.131C95.338 161.323 95.2117 161.569 95.2117 161.868C95.2117 162.13 95.3521 162.369 95.6327 162.584C95.9133 162.794 96.4068 163.014 97.1131 163.243C97.8194 163.468 98.3994 163.711 98.8531 163.973C99.9569 164.609 100.509 165.486 100.509 166.604C100.509 167.497 100.172 168.199 99.4986 168.709C98.825 169.219 97.9012 169.474 96.7272 169.474C95.8993 169.474 95.1486 169.326 94.475 169.032C93.8062 168.732 93.301 168.325 92.9596 167.811C92.6228 167.292 92.4544 166.695 92.4544 166.022H94.9241C94.9241 166.569 95.0644 166.974 95.345 167.235C95.6304 167.493 96.0911 167.621 96.7272 167.621C97.1341 167.621 97.4545 167.535 97.6884 167.362C97.927 167.184 98.0462 166.936 98.0462 166.618Z" fill="#222222" fill-opacity="0.8"/>
<path d="M173.173 157.902V161.333H172.017V152.569H175.25C176.209 152.569 176.959 152.814 177.501 153.304C178.047 153.793 178.319 154.441 178.319 155.248C178.319 156.099 178.053 156.755 177.519 157.216C176.989 157.674 176.229 157.902 175.238 157.902H173.173ZM173.173 156.957H175.25C175.868 156.957 176.341 156.813 176.67 156.524C176.999 156.231 177.164 155.81 177.164 155.26C177.164 154.738 176.999 154.321 176.67 154.008C176.341 153.695 175.89 153.532 175.316 153.52H173.173V156.957ZM183.568 161.333C183.504 161.205 183.452 160.976 183.412 160.647C182.894 161.185 182.276 161.454 181.558 161.454C180.916 161.454 180.388 161.273 179.975 160.912C179.565 160.547 179.361 160.085 179.361 159.527C179.361 158.849 179.618 158.324 180.131 157.95C180.649 157.573 181.375 157.385 182.31 157.385H183.394V156.873C183.394 156.484 183.277 156.175 183.045 155.946C182.812 155.713 182.469 155.597 182.015 155.597C181.618 155.597 181.285 155.697 181.016 155.898C180.747 156.099 180.613 156.341 180.613 156.626H179.493C179.493 156.301 179.608 155.988 179.836 155.687C180.069 155.382 180.382 155.141 180.775 154.965C181.173 154.788 181.608 154.7 182.081 154.7C182.832 154.7 183.42 154.889 183.845 155.266C184.27 155.639 184.491 156.155 184.507 156.813V159.81C184.507 160.408 184.583 160.884 184.736 161.237V161.333H183.568ZM181.72 160.485C182.069 160.485 182.4 160.394 182.713 160.214C183.026 160.033 183.253 159.798 183.394 159.509V158.173H182.521C181.156 158.173 180.474 158.572 180.474 159.371C180.474 159.72 180.591 159.993 180.823 160.19C181.056 160.386 181.355 160.485 181.72 160.485ZM189.401 155.82C189.232 155.792 189.05 155.777 188.853 155.777C188.123 155.777 187.627 156.088 187.366 156.71V161.333H186.253V154.82H187.336L187.354 155.573C187.719 154.991 188.237 154.7 188.907 154.7C189.124 154.7 189.288 154.728 189.401 154.784V155.82ZM194.21 161.333C194.146 161.205 194.094 160.976 194.054 160.647C193.536 161.185 192.918 161.454 192.2 161.454C191.558 161.454 191.03 161.273 190.617 160.912C190.207 160.547 190.003 160.085 190.003 159.527C190.003 158.849 190.26 158.324 190.773 157.95C191.291 157.573 192.017 157.385 192.952 157.385H194.036V156.873C194.036 156.484 193.919 156.175 193.687 155.946C193.454 155.713 193.111 155.597 192.657 155.597C192.26 155.597 191.927 155.697 191.658 155.898C191.389 156.099 191.255 156.341 191.255 156.626H190.135C190.135 156.301 190.25 155.988 190.478 155.687C190.711 155.382 191.024 155.141 191.417 154.965C191.815 154.788 192.25 154.7 192.723 154.7C193.474 154.7 194.062 154.889 194.487 155.266C194.912 155.639 195.133 156.155 195.149 156.813V159.81C195.149 160.408 195.225 160.884 195.378 161.237V161.333H194.21ZM192.362 160.485C192.711 160.485 193.042 160.394 193.355 160.214C193.668 160.033 193.895 159.798 194.036 159.509V158.173H193.163C191.799 158.173 191.116 158.572 191.116 159.371C191.116 159.72 191.233 159.993 191.465 160.19C191.698 160.386 191.997 160.485 192.362 160.485ZM205.942 153.52H203.125V161.333H201.975V153.52H199.164V152.569H205.942V153.52ZM208.277 161.333H207.164V154.82H208.277V161.333ZM207.073 153.093C207.073 152.912 207.128 152.76 207.236 152.635C207.348 152.511 207.513 152.449 207.729 152.449C207.946 152.449 208.111 152.511 208.223 152.635C208.335 152.76 208.392 152.912 208.392 153.093C208.392 153.273 208.335 153.424 208.223 153.544C208.111 153.665 207.946 153.725 207.729 153.725C207.513 153.725 207.348 153.665 207.236 153.544C207.128 153.424 207.073 153.273 207.073 153.093ZM211.883 158.318L211.185 159.046V161.333H210.071V152.088H211.185V157.68L211.78 156.963L213.809 154.82H215.163L212.629 157.541L215.458 161.333H214.152L211.883 158.318ZM225.36 153.52H222.543V161.333H221.393V153.52H218.582V152.569H225.36V153.52ZM225.589 158.017C225.589 157.379 225.713 156.805 225.962 156.295C226.215 155.786 226.564 155.392 227.009 155.115C227.459 154.838 227.97 154.7 228.544 154.7C229.431 154.7 230.147 155.007 230.693 155.621C231.243 156.235 231.518 157.052 231.518 158.071V158.149C231.518 158.783 231.395 159.353 231.15 159.859C230.91 160.36 230.562 160.751 230.109 161.032C229.66 161.313 229.142 161.454 228.556 161.454C227.673 161.454 226.957 161.147 226.407 160.533C225.861 159.919 225.589 159.106 225.589 158.095V158.017ZM226.708 158.149C226.708 158.871 226.875 159.451 227.208 159.889C227.545 160.326 227.994 160.545 228.556 160.545C229.122 160.545 229.571 160.324 229.904 159.883C230.237 159.437 230.404 158.815 230.404 158.017C230.404 157.302 230.233 156.725 229.892 156.283C229.555 155.838 229.106 155.615 228.544 155.615C227.994 155.615 227.551 155.834 227.214 156.271C226.877 156.708 226.708 157.334 226.708 158.149ZM234.732 158.318L234.034 159.046V161.333H232.92V152.088H234.034V157.68L234.629 156.963L236.658 154.82H238.012L235.478 157.541L238.307 161.333H237.001L234.732 158.318Z" fill="#222222" fill-opacity="0.8"/>
<path d="M177.531 172.137C177.531 173.14 177.302 173.945 176.845 174.551C176.391 175.153 175.777 175.454 175.003 175.454C174.345 175.454 173.813 175.225 173.408 174.767V177.837H171.668V168.82H173.281L173.341 169.458C173.763 168.953 174.313 168.7 174.991 168.7C175.793 168.7 176.417 168.997 176.863 169.591C177.308 170.185 177.531 171.003 177.531 172.047V172.137ZM175.791 172.011C175.791 171.405 175.683 170.937 175.466 170.608C175.254 170.279 174.943 170.115 174.533 170.115C173.988 170.115 173.612 170.323 173.408 170.741V173.407C173.62 173.836 174 174.051 174.545 174.051C175.376 174.051 175.791 173.371 175.791 172.011ZM178.343 172.017C178.343 171.371 178.468 170.795 178.717 170.289C178.965 169.784 179.323 169.392 179.788 169.115C180.258 168.838 180.801 168.7 181.419 168.7C182.298 168.7 183.014 168.969 183.568 169.507C184.126 170.044 184.437 170.775 184.501 171.698L184.513 172.143C184.513 173.142 184.234 173.945 183.677 174.551C183.119 175.153 182.37 175.454 181.431 175.454C180.492 175.454 179.742 175.153 179.18 174.551C178.622 173.949 178.343 173.13 178.343 172.095V172.017ZM180.083 172.143C180.083 172.761 180.199 173.235 180.432 173.564C180.665 173.889 180.998 174.051 181.431 174.051C181.853 174.051 182.182 173.891 182.419 173.57C182.655 173.245 182.774 172.727 182.774 172.017C182.774 171.411 182.655 170.941 182.419 170.608C182.182 170.275 181.849 170.109 181.419 170.109C180.994 170.109 180.665 170.275 180.432 170.608C180.199 170.937 180.083 171.449 180.083 172.143ZM189.244 170.452C189.008 170.42 188.799 170.403 188.618 170.403C187.96 170.403 187.529 170.626 187.324 171.072V175.333H185.585V168.82H187.228L187.276 169.597C187.625 168.999 188.109 168.7 188.727 168.7C188.919 168.7 189.1 168.726 189.268 168.778L189.244 170.452ZM194.854 170.181H195.781C196.223 170.181 196.55 170.07 196.762 169.85C196.975 169.629 197.081 169.336 197.081 168.971C197.081 168.618 196.975 168.343 196.762 168.146C196.554 167.95 196.265 167.851 195.896 167.851C195.563 167.851 195.284 167.944 195.059 168.128C194.834 168.309 194.722 168.546 194.722 168.838H192.982C192.982 168.381 193.105 167.972 193.349 167.611C193.598 167.245 193.943 166.96 194.385 166.756C194.83 166.551 195.32 166.449 195.853 166.449C196.78 166.449 197.507 166.672 198.032 167.117C198.558 167.558 198.821 168.168 198.821 168.947C198.821 169.348 198.699 169.717 198.454 170.054C198.209 170.391 197.888 170.65 197.491 170.831C197.984 171.007 198.351 171.272 198.592 171.625C198.837 171.979 198.959 172.396 198.959 172.877C198.959 173.656 198.675 174.28 198.105 174.749C197.539 175.219 196.788 175.454 195.853 175.454C194.979 175.454 194.262 175.223 193.705 174.761C193.151 174.3 192.874 173.69 192.874 172.932H194.614C194.614 173.261 194.736 173.529 194.981 173.738C195.229 173.947 195.534 174.051 195.896 174.051C196.309 174.051 196.632 173.943 196.865 173.726C197.101 173.505 197.22 173.214 197.22 172.853C197.22 171.979 196.738 171.541 195.775 171.541H194.854V170.181ZM204.937 168.82L204.991 169.549C205.452 168.983 206.076 168.7 206.863 168.7C207.701 168.7 208.277 169.031 208.59 169.693C209.048 169.031 209.7 168.7 210.546 168.7C211.253 168.7 211.778 168.907 212.124 169.32C212.469 169.729 212.641 170.347 212.641 171.174V175.333H210.896V171.18C210.896 170.811 210.823 170.542 210.679 170.373C210.534 170.201 210.28 170.115 209.914 170.115C209.393 170.115 209.032 170.363 208.831 170.861L208.837 175.333H207.097V171.186C207.097 170.809 207.023 170.536 206.875 170.367C206.726 170.199 206.473 170.115 206.116 170.115C205.623 170.115 205.266 170.319 205.045 170.729V175.333H203.305V168.82H204.937ZM216.981 175.454C216.026 175.454 215.248 175.161 214.646 174.575C214.048 173.989 213.749 173.208 213.749 172.233V172.065C213.749 171.411 213.875 170.827 214.128 170.313C214.381 169.796 214.738 169.398 215.199 169.121C215.665 168.84 216.195 168.7 216.788 168.7C217.679 168.7 218.38 168.981 218.889 169.543C219.403 170.105 219.66 170.901 219.66 171.932V172.643H215.512C215.569 173.068 215.737 173.409 216.018 173.666C216.303 173.923 216.662 174.051 217.095 174.051C217.766 174.051 218.289 173.808 218.666 173.323L219.521 174.28C219.26 174.649 218.907 174.938 218.462 175.147C218.016 175.351 217.523 175.454 216.981 175.454ZM216.782 170.109C216.437 170.109 216.156 170.225 215.94 170.458C215.727 170.69 215.591 171.023 215.53 171.457H217.95V171.318C217.942 170.933 217.838 170.636 217.637 170.428C217.437 170.215 217.152 170.109 216.782 170.109ZM224.18 173.533C224.18 173.321 224.074 173.154 223.861 173.034C223.652 172.91 223.315 172.799 222.85 172.703C221.301 172.378 220.526 171.72 220.526 170.729C220.526 170.151 220.765 169.669 221.243 169.284C221.724 168.895 222.352 168.7 223.127 168.7C223.953 168.7 224.613 168.895 225.107 169.284C225.605 169.673 225.853 170.179 225.853 170.801H224.114C224.114 170.552 224.034 170.347 223.873 170.187C223.713 170.022 223.462 169.94 223.121 169.94C222.828 169.94 222.601 170.006 222.441 170.139C222.28 170.271 222.2 170.44 222.2 170.644C222.2 170.837 222.29 170.993 222.471 171.114C222.655 171.23 222.964 171.332 223.398 171.421C223.831 171.505 224.196 171.601 224.493 171.71C225.412 172.047 225.871 172.631 225.871 173.461C225.871 174.055 225.617 174.537 225.107 174.906C224.597 175.271 223.939 175.454 223.133 175.454C222.587 175.454 222.101 175.357 221.676 175.165C221.255 174.968 220.924 174.701 220.683 174.364C220.442 174.023 220.322 173.656 220.322 173.263H221.971C221.987 173.572 222.101 173.808 222.314 173.973C222.527 174.137 222.812 174.22 223.169 174.22C223.502 174.22 223.753 174.157 223.921 174.033C224.094 173.905 224.18 173.738 224.18 173.533ZM229.995 175.454C229.04 175.454 228.261 175.161 227.659 174.575C227.061 173.989 226.762 173.208 226.762 172.233V172.065C226.762 171.411 226.889 170.827 227.142 170.313C227.394 169.796 227.751 169.398 228.213 169.121C228.678 168.84 229.208 168.7 229.802 168.7C230.693 168.7 231.393 168.981 231.903 169.543C232.416 170.105 232.673 170.901 232.673 171.932V172.643H228.526C228.582 173.068 228.751 173.409 229.032 173.666C229.316 173.923 229.676 174.051 230.109 174.051C230.779 174.051 231.303 173.808 231.68 173.323L232.535 174.28C232.274 174.649 231.921 174.938 231.475 175.147C231.03 175.351 230.536 175.454 229.995 175.454ZM229.796 170.109C229.451 170.109 229.17 170.225 228.953 170.458C228.741 170.69 228.604 171.023 228.544 171.457H230.964V171.318C230.956 170.933 230.851 170.636 230.651 170.428C230.45 170.215 230.165 170.109 229.796 170.109ZM237.194 173.533C237.194 173.321 237.087 173.154 236.875 173.034C236.666 172.91 236.329 172.799 235.863 172.703C234.314 172.378 233.54 171.72 233.54 170.729C233.54 170.151 233.779 169.669 234.256 169.284C234.738 168.895 235.366 168.7 236.14 168.7C236.967 168.7 237.627 168.895 238.121 169.284C238.618 169.673 238.867 170.179 238.867 170.801H237.127C237.127 170.552 237.047 170.347 236.887 170.187C236.726 170.022 236.475 169.94 236.134 169.94C235.841 169.94 235.615 170.006 235.454 170.139C235.294 170.271 235.213 170.44 235.213 170.644C235.213 170.837 235.304 170.993 235.484 171.114C235.669 171.23 235.978 171.332 236.411 171.421C236.845 171.505 237.21 171.601 237.507 171.71C238.426 172.047 238.885 172.631 238.885 173.461C238.885 174.055 238.63 174.537 238.121 174.906C237.611 175.271 236.953 175.454 236.146 175.454C235.601 175.454 235.115 175.357 234.69 175.165C234.268 174.968 233.937 174.701 233.697 174.364C233.456 174.023 233.335 173.656 233.335 173.263H234.985C235.001 173.572 235.115 173.808 235.328 173.973C235.54 174.137 235.825 174.22 236.182 174.22C236.516 174.22 236.766 174.157 236.935 174.033C237.107 173.905 237.194 173.738 237.194 173.533Z" fill="#EE3A2B"/>
<rect x="0.5" y="0.5" width="275" height="186" rx="9.5" stroke="#EF3829"/>
</svg>
