<svg width="276" height="113" viewBox="0 0 276 113" fill="none" xmlns="http://www.w3.org/2000/svg">
<rect x="0.5" y="0.5" width="275" height="112" rx="9.5" fill="white"/>
<rect width="208" height="60" transform="translate(30 6)" fill="white"/>
<path d="M32.8511 50.903H33.9667C34.8507 50.903 35.2927 50.4704 35.2927 49.6051C35.2927 49.2683 35.1875 48.9947 34.977 48.7842C34.7665 48.569 34.4695 48.4614 34.086 48.4614C33.7726 48.4614 33.499 48.5526 33.2651 48.7351C33.0359 48.9175 32.9213 49.1443 32.9213 49.4156H30.5569C30.5569 48.8777 30.7066 48.3983 31.0059 47.9773C31.3053 47.5564 31.7192 47.2289 32.2478 46.9951C32.781 46.7565 33.3657 46.6372 34.0018 46.6372C35.1384 46.6372 36.0318 46.8968 36.6819 47.416C37.3321 47.9352 37.6572 48.6485 37.6572 49.5559C37.6572 49.9956 37.5215 50.4119 37.2502 50.8048C36.9836 51.193 36.5931 51.5087 36.0785 51.752C36.6211 51.9484 37.0468 52.2478 37.3555 52.65C37.6642 53.0476 37.8185 53.5411 37.8185 54.1304C37.8185 55.0425 37.4677 55.7722 36.7661 56.3194C36.0645 56.8667 35.1431 57.1403 34.0018 57.1403C33.3329 57.1403 32.7108 57.014 32.1355 56.7615C31.5649 56.5042 31.1322 56.1511 30.8375 55.702C30.5429 55.2483 30.3955 54.7338 30.3955 54.1585H32.774C32.774 54.4719 32.9003 54.7432 33.1528 54.9724C33.4054 55.2015 33.7165 55.3161 34.086 55.3161C34.5023 55.3161 34.8344 55.2015 35.0823 54.9724C35.3302 54.7385 35.4541 54.4415 35.4541 54.0813C35.4541 53.5668 35.3255 53.202 35.0682 52.9868C34.811 52.7716 34.4555 52.6641 34.0018 52.6641H32.8511V50.903ZM46.1045 52.8254C46.1045 54.2053 45.7935 55.2694 45.1714 56.0177C44.554 56.7661 43.6816 57.1403 42.5544 57.1403C41.4178 57.1403 40.5384 56.7638 39.9163 56.0107C39.2942 55.2577 38.9832 54.1959 38.9832 52.8254V50.9592C38.9832 49.5793 39.2919 48.5152 39.9093 47.7668C40.5314 47.0185 41.4084 46.6443 42.5404 46.6443C43.6723 46.6443 44.5493 47.0208 45.1714 47.7739C45.7935 48.5269 46.1045 49.591 46.1045 50.9662V52.8254ZM43.7401 50.6575C43.7401 49.9231 43.6442 49.3759 43.4524 49.0157C43.2607 48.6509 42.9566 48.4684 42.5404 48.4684C42.1334 48.4684 41.8364 48.6368 41.6493 48.9736C41.4669 49.3104 41.3687 49.8202 41.3546 50.5031V53.1131C41.3546 53.8755 41.4505 54.4345 41.6423 54.7899C41.8341 55.1407 42.1381 55.3161 42.5544 55.3161C42.9566 55.3161 43.2537 55.1454 43.4454 54.804C43.6372 54.4578 43.7354 53.9176 43.7401 53.1833V50.6575ZM59.421 55.7371C59.0422 56.1581 58.4879 56.4972 57.7582 56.7544C57.0286 57.0117 56.2287 57.1403 55.3587 57.1403C54.021 57.1403 52.9522 56.7311 52.1524 55.9125C51.3525 55.094 50.9246 53.955 50.8684 52.4957L50.8614 51.6117C50.8614 50.606 51.0392 49.729 51.3946 48.9806C51.7501 48.2276 52.2576 47.6499 52.9171 47.2476C53.5813 46.8407 54.3484 46.6372 55.2184 46.6372C56.4907 46.6372 57.4776 46.9296 58.1792 47.5143C58.8855 48.0943 59.2971 48.9619 59.414 50.1172H57.0426C56.9584 49.5466 56.776 49.1397 56.4953 48.8964C56.2147 48.6532 55.8171 48.5316 55.3026 48.5316C54.6852 48.5316 54.2081 48.7935 53.8713 49.3174C53.5345 49.8413 53.3638 50.5896 53.3591 51.5625V52.18C53.3591 53.1996 53.5322 53.9667 53.8783 54.4812C54.2291 54.9911 54.7787 55.246 55.5271 55.246C56.1679 55.246 56.645 55.1033 56.9584 54.818V53.2324H55.2465V51.5415H59.421V55.7371ZM63.4763 57H61.0207V46.7846H63.4763V57ZM73.5514 55.7371C73.1726 56.1581 72.6183 56.4972 71.8886 56.7544C71.1589 57.0117 70.3591 57.1403 69.4891 57.1403C68.1514 57.1403 67.0826 56.7311 66.2828 55.9125C65.4829 55.094 65.055 53.955 64.9988 52.4957L64.9918 51.6117C64.9918 50.606 65.1695 49.729 65.525 48.9806C65.8805 48.2276 66.388 47.6499 67.0475 47.2476C67.7117 46.8407 68.4788 46.6372 69.3488 46.6372C70.621 46.6372 71.608 46.9296 72.3096 47.5143C73.0159 48.0943 73.4275 48.9619 73.5444 50.1172H71.173C71.0888 49.5466 70.9064 49.1397 70.6257 48.8964C70.3451 48.6532 69.9475 48.5316 69.433 48.5316C68.8156 48.5316 68.3385 48.7935 68.0017 49.3174C67.6649 49.8413 67.4942 50.5896 67.4895 51.5625V52.18C67.4895 53.1996 67.6626 53.9667 68.0087 54.4812C68.3595 54.9911 68.9091 55.246 69.6575 55.246C70.2983 55.246 70.7754 55.1033 71.0888 54.818V53.2324H69.3769V51.5415H73.5514V55.7371ZM80.785 55.0916H77.4103L76.8209 57H74.1899L77.9365 46.7846H80.2518L84.0264 57H81.3814L80.785 55.0916ZM77.9996 53.1903H80.1957L79.0941 49.6471L77.9996 53.1903ZM90.0462 54.2848C90.0462 53.9246 89.9176 53.644 89.6603 53.4428C89.4078 53.2417 88.9611 53.0336 88.3203 52.8184C87.6795 52.6033 87.1556 52.3951 86.7487 52.194C85.425 51.5438 84.7631 50.6504 84.7631 49.5138C84.7631 48.9479 84.9268 48.4497 85.2542 48.0194C85.5863 47.5844 86.0541 47.2476 86.6575 47.0091C87.2608 46.7659 87.9391 46.6443 88.6921 46.6443C89.4265 46.6443 90.0837 46.7752 90.6636 47.0372C91.2483 47.2991 91.702 47.6733 92.0248 48.1597C92.3475 48.6415 92.5089 49.1934 92.5089 49.8155H90.0532C90.0532 49.3992 89.9246 49.0765 89.6674 48.8473C89.4148 48.6181 89.071 48.5035 88.636 48.5035C88.1963 48.5035 87.8479 48.6018 87.5906 48.7982C87.338 48.99 87.2117 49.2355 87.2117 49.5349C87.2117 49.7968 87.3521 50.0354 87.6327 50.2505C87.9133 50.461 88.4068 50.6809 89.1131 50.91C89.8194 51.1346 90.3994 51.3778 90.8531 51.6397C91.9569 52.2758 92.5089 53.1528 92.5089 54.2707C92.5089 55.1641 92.1721 55.8657 91.4986 56.3756C90.825 56.8854 89.9012 57.1403 88.7272 57.1403C87.8993 57.1403 87.1486 56.993 86.475 56.6983C85.8062 56.399 85.301 55.992 84.9596 55.4775C84.6228 54.9583 84.4544 54.362 84.4544 53.6884H86.9241C86.9241 54.2357 87.0644 54.6403 87.345 54.9022C87.6304 55.1594 88.0911 55.2881 88.7272 55.2881C89.1341 55.2881 89.4545 55.2015 89.6884 55.0285C89.927 54.8507 90.0462 54.6028 90.0462 54.2848Z" fill="#222222" fill-opacity="0.8"/>
<path d="M168.173 45.569V49H167.017V40.236H170.25C171.209 40.236 171.959 40.4808 172.501 40.9703C173.047 41.4599 173.319 42.108 173.319 42.9145C173.319 43.7653 173.053 44.4214 172.519 44.8828C171.989 45.3403 171.229 45.569 170.238 45.569H168.173ZM168.173 44.624H170.25C170.868 44.624 171.341 44.4795 171.67 44.1906C171.999 43.8977 172.164 43.4763 172.164 42.9266C172.164 42.4049 171.999 41.9876 171.67 41.6746C171.341 41.3616 170.89 41.1991 170.316 41.187H168.173V44.624ZM178.568 49C178.504 48.8716 178.452 48.6429 178.412 48.3138C177.894 48.8515 177.276 49.1204 176.558 49.1204C175.916 49.1204 175.388 48.9398 174.975 48.5787C174.565 48.2135 174.361 47.752 174.361 47.1942C174.361 46.5161 174.618 45.9904 175.131 45.6172C175.649 45.24 176.375 45.0514 177.31 45.0514H178.394V44.5397C178.394 44.1505 178.277 43.8415 178.045 43.6128C177.812 43.38 177.469 43.2637 177.015 43.2637C176.618 43.2637 176.285 43.364 176.016 43.5646C175.747 43.7653 175.613 44.008 175.613 44.2929H174.493C174.493 43.9679 174.608 43.6549 174.836 43.3539C175.069 43.049 175.382 42.8082 175.775 42.6316C176.173 42.4551 176.608 42.3668 177.081 42.3668C177.832 42.3668 178.42 42.5554 178.845 42.9326C179.27 43.3058 179.491 43.8214 179.507 44.4795V47.4771C179.507 48.075 179.583 48.5506 179.736 48.9037V49H178.568ZM176.72 48.1513C177.069 48.1513 177.4 48.061 177.713 47.8804C178.026 47.6998 178.253 47.4651 178.394 47.1762V45.8399H177.521C176.156 45.8399 175.474 46.2392 175.474 47.0377C175.474 47.3868 175.591 47.6597 175.823 47.8563C176.056 48.053 176.355 48.1513 176.72 48.1513ZM184.401 43.4864C184.232 43.4583 184.05 43.4442 183.853 43.4442C183.123 43.4442 182.627 43.7552 182.366 44.3772V49H181.253V42.4872H182.336L182.354 43.2396C182.719 42.6577 183.237 42.3668 183.907 42.3668C184.124 42.3668 184.288 42.3949 184.401 42.4511V43.4864ZM189.21 49C189.146 48.8716 189.094 48.6429 189.054 48.3138C188.536 48.8515 187.918 49.1204 187.2 49.1204C186.558 49.1204 186.03 48.9398 185.617 48.5787C185.207 48.2135 185.003 47.752 185.003 47.1942C185.003 46.5161 185.26 45.9904 185.773 45.6172C186.291 45.24 187.017 45.0514 187.952 45.0514H189.036V44.5397C189.036 44.1505 188.919 43.8415 188.687 43.6128C188.454 43.38 188.111 43.2637 187.657 43.2637C187.26 43.2637 186.927 43.364 186.658 43.5646C186.389 43.7653 186.255 44.008 186.255 44.2929H185.135C185.135 43.9679 185.25 43.6549 185.478 43.3539C185.711 43.049 186.024 42.8082 186.417 42.6316C186.815 42.4551 187.25 42.3668 187.723 42.3668C188.474 42.3668 189.062 42.5554 189.487 42.9326C189.912 43.3058 190.133 43.8214 190.149 44.4795V47.4771C190.149 48.075 190.225 48.5506 190.378 48.9037V49H189.21ZM187.362 48.1513C187.711 48.1513 188.042 48.061 188.355 47.8804C188.668 47.6998 188.895 47.4651 189.036 47.1762V45.8399H188.163C186.799 45.8399 186.116 46.2392 186.116 47.0377C186.116 47.3868 186.233 47.6597 186.465 47.8563C186.698 48.053 186.997 48.1513 187.362 48.1513Z" fill="#222222" fill-opacity="0.8"/>
<path d="M168.269 56.4872L168.323 57.2396C168.789 56.6577 169.413 56.3668 170.195 56.3668C170.886 56.3668 171.399 56.5694 171.736 56.9747C172.073 57.38 172.246 57.986 172.254 58.7925V63H170.514V58.8347C170.514 58.4655 170.434 58.1986 170.274 58.0341C170.113 57.8656 169.846 57.7813 169.473 57.7813C168.984 57.7813 168.616 57.99 168.372 58.4073V63H166.632V56.4872H168.269ZM177.352 63C177.272 62.8435 177.214 62.6489 177.178 62.4161C176.756 62.8856 176.209 63.1204 175.534 63.1204C174.896 63.1204 174.367 62.9358 173.945 62.5666C173.528 62.1974 173.319 61.7319 173.319 61.1701C173.319 60.4799 173.574 59.9502 174.084 59.5811C174.597 59.2119 175.338 59.0253 176.305 59.0213H177.106V58.6481C177.106 58.3471 177.027 58.1064 176.871 57.9258C176.718 57.7452 176.475 57.6549 176.142 57.6549C175.849 57.6549 175.619 57.7251 175.45 57.8656C175.286 58.006 175.203 58.1986 175.203 58.4434H173.464C173.464 58.0662 173.58 57.7171 173.813 57.3961C174.046 57.0751 174.375 56.8243 174.8 56.6437C175.226 56.4591 175.703 56.3668 176.233 56.3668C177.035 56.3668 177.671 56.5694 178.141 56.9747C178.614 57.376 178.851 57.9418 178.851 58.6722V61.4952C178.855 62.1132 178.941 62.5807 179.11 62.8977V63H177.352ZM175.914 61.7901C176.171 61.7901 176.407 61.734 176.624 61.6216C176.841 61.5052 177.001 61.3507 177.106 61.1581V60.0385H176.455C175.585 60.0385 175.121 60.3395 175.065 60.9414L175.059 61.0437C175.059 61.2604 175.135 61.439 175.288 61.5795C175.44 61.7199 175.649 61.7901 175.914 61.7901ZM182.529 60.8752L183.739 56.4872H185.557L183.36 63H181.698L179.501 56.4872H181.319L182.529 60.8752ZM189.24 63.1204C188.285 63.1204 187.507 62.8274 186.905 62.2416C186.307 61.6557 186.008 60.8752 186.008 59.9001V59.7315C186.008 59.0775 186.134 58.4936 186.387 57.9799C186.64 57.4623 186.997 57.065 187.459 56.7881C187.924 56.5072 188.454 56.3668 189.048 56.3668C189.939 56.3668 190.639 56.6477 191.148 57.2095C191.662 57.7713 191.919 58.5678 191.919 59.5991V60.3094H187.772C187.828 60.7348 187.996 61.0758 188.277 61.3327C188.562 61.5895 188.921 61.7179 189.355 61.7179C190.025 61.7179 190.549 61.4751 190.926 60.9896L191.78 61.9466C191.52 62.3158 191.166 62.6047 190.721 62.8134C190.276 63.0181 189.782 63.1204 189.24 63.1204ZM189.042 57.7753C188.697 57.7753 188.416 57.8917 188.199 58.1244C187.986 58.3572 187.85 58.6902 187.79 59.1236H190.209V58.9852C190.201 58.5999 190.097 58.303 189.896 58.0943C189.696 57.8816 189.411 57.7753 189.042 57.7753ZM192.659 59.6954C192.659 58.6962 192.896 57.8917 193.37 57.2817C193.847 56.6718 194.489 56.3668 195.296 56.3668C196.01 56.3668 196.566 56.6116 196.963 57.1011L197.035 56.4872H198.612V62.7833C198.612 63.3531 198.482 63.8487 198.221 64.2701C197.964 64.6914 197.601 65.0124 197.132 65.2331C196.662 65.4538 196.112 65.5642 195.482 65.5642C195.005 65.5642 194.539 65.4679 194.086 65.2753C193.632 65.0867 193.289 64.8419 193.057 64.5409L193.827 63.4815C194.26 63.9671 194.786 64.2099 195.404 64.2099C195.866 64.2099 196.225 64.0855 196.481 63.8367C196.738 63.5919 196.867 63.2428 196.867 62.7893V62.4402C196.465 62.8937 195.938 63.1204 195.284 63.1204C194.501 63.1204 193.867 62.8154 193.382 62.2055C192.9 61.5915 192.659 60.7789 192.659 59.7677V59.6954ZM194.399 59.8218C194.399 60.4117 194.517 60.8752 194.754 61.2123C194.991 61.5453 195.316 61.7119 195.729 61.7119C196.259 61.7119 196.638 61.5132 196.867 61.116V58.3772C196.634 57.9799 196.259 57.7813 195.741 57.7813C195.324 57.7813 194.995 57.9519 194.754 58.2929C194.517 58.634 194.399 59.1437 194.399 59.8218ZM203.729 63C203.648 62.8435 203.59 62.6489 203.554 62.4161C203.133 62.8856 202.585 63.1204 201.911 63.1204C201.273 63.1204 200.743 62.9358 200.322 62.5666C199.904 62.1974 199.696 61.7319 199.696 61.1701C199.696 60.4799 199.951 59.9502 200.46 59.5811C200.974 59.2119 201.714 59.0253 202.681 59.0213H203.482V58.6481C203.482 58.3471 203.404 58.1064 203.247 57.9258C203.095 57.7452 202.852 57.6549 202.519 57.6549C202.226 57.6549 201.995 57.7251 201.827 57.8656C201.662 58.006 201.58 58.1986 201.58 58.4434H199.84C199.84 58.0662 199.957 57.7171 200.189 57.3961C200.422 57.0751 200.751 56.8243 201.176 56.6437C201.602 56.4591 202.079 56.3668 202.609 56.3668C203.412 56.3668 204.048 56.5694 204.517 56.9747C204.991 57.376 205.227 57.9418 205.227 58.6722V61.4952C205.231 62.1132 205.318 62.5807 205.486 62.8977V63H203.729ZM202.29 61.7901C202.547 61.7901 202.784 61.734 203 61.6216C203.217 61.5052 203.378 61.3507 203.482 61.1581V60.0385H202.832C201.961 60.0385 201.498 60.3395 201.441 60.9414L201.435 61.0437C201.435 61.2604 201.512 61.439 201.664 61.5795C201.817 61.7199 202.025 61.7901 202.29 61.7901ZM210.223 58.1184C209.987 58.0863 209.778 58.0702 209.597 58.0702C208.939 58.0702 208.508 58.2929 208.303 58.7384V63H206.564V56.4872H208.207L208.255 57.2637C208.604 56.6657 209.088 56.3668 209.706 56.3668C209.898 56.3668 210.079 56.3929 210.248 56.445L210.223 58.1184Z" fill="#EE3A2B"/>
<rect width="208" height="33" transform="translate(30 74)" fill="white"/>
<path d="M35.7373 87.2047H38.1297V89.2324H35.7373V91.9757H33.5272V89.2324H31.1277V87.2047H33.5272V84.5386H35.7373V87.2047ZM47.9312 93H45.5598V85.4507L43.2304 86.1313V84.3351L47.7137 82.7846H47.9312V93ZM51.1516 88.0046L51.776 82.7846H57.7467V84.6228H53.6984L53.4669 86.6504C53.6353 86.5522 53.8551 86.4657 54.1264 86.3909C54.4024 86.316 54.6713 86.2786 54.9332 86.2786C55.9482 86.2786 56.727 86.5803 57.2696 87.1837C57.8169 87.7824 58.0905 88.6243 58.0905 89.7095C58.0905 90.3643 57.9431 90.9583 57.6485 91.4915C57.3585 92.0201 56.9492 92.427 56.4207 92.7123C55.8921 92.9977 55.2677 93.1403 54.5474 93.1403C53.9066 93.1403 53.3055 93.0094 52.7442 92.7474C52.1829 92.4808 51.7433 92.1183 51.4252 91.6599C51.1071 91.1969 50.9505 90.6753 50.9551 90.0953H53.3266C53.35 90.4695 53.4692 90.7665 53.6844 90.9864C53.8995 91.2062 54.1825 91.3161 54.5333 91.3161C55.3285 91.3161 55.7261 90.7268 55.7261 89.5481C55.7261 88.4583 55.2396 87.9133 54.2667 87.9133C53.7148 87.9133 53.3032 88.0911 53.0319 88.4466L51.1516 88.0046ZM71.421 91.7371C71.0422 92.1581 70.4879 92.4972 69.7582 92.7544C69.0286 93.0117 68.2287 93.1403 67.3587 93.1403C66.021 93.1403 64.9522 92.7311 64.1524 91.9125C63.3525 91.094 62.9246 89.955 62.8684 88.4957L62.8614 87.6117C62.8614 86.606 63.0392 85.729 63.3946 84.9806C63.7501 84.2276 64.2576 83.6499 64.9171 83.2476C65.5813 82.8407 66.3484 82.6372 67.2184 82.6372C68.4907 82.6372 69.4776 82.9296 70.1792 83.5143C70.8855 84.0943 71.2971 84.9619 71.414 86.1172H69.0426C68.9584 85.5466 68.776 85.1397 68.4953 84.8964C68.2147 84.6532 67.8171 84.5316 67.3026 84.5316C66.6852 84.5316 66.2081 84.7935 65.8713 85.3174C65.5345 85.8413 65.3638 86.5896 65.3591 87.5625V88.18C65.3591 89.1996 65.5322 89.9667 65.8783 90.4812C66.2291 90.9911 66.7787 91.246 67.5271 91.246C68.1679 91.246 68.645 91.1033 68.9584 90.818V89.2324H67.2465V87.5415H71.421V91.7371ZM75.4763 93H73.0207V82.7846H75.4763V93ZM85.5514 91.7371C85.1726 92.1581 84.6183 92.4972 83.8886 92.7544C83.1589 93.0117 82.3591 93.1403 81.4891 93.1403C80.1514 93.1403 79.0826 92.7311 78.2828 91.9125C77.4829 91.094 77.0549 89.955 76.9988 88.4957L76.9918 87.6117C76.9918 86.606 77.1695 85.729 77.525 84.9806C77.8805 84.2276 78.388 83.6499 79.0475 83.2476C79.7117 82.8407 80.4788 82.6372 81.3488 82.6372C82.621 82.6372 83.608 82.9296 84.3096 83.5143C85.0159 84.0943 85.4275 84.9619 85.5444 86.1172H83.173C83.0888 85.5466 82.9064 85.1397 82.6257 84.8964C82.3451 84.6532 81.9475 84.5316 81.433 84.5316C80.8156 84.5316 80.3385 84.7935 80.0017 85.3174C79.6649 85.8413 79.4942 86.5896 79.4895 87.5625V88.18C79.4895 89.1996 79.6626 89.9667 80.0087 90.4812C80.3595 90.9911 80.9091 91.246 81.6575 91.246C82.2983 91.246 82.7754 91.1033 83.0888 90.818V89.2324H81.3769V87.5415H85.5514V91.7371ZM92.785 91.0916H89.4103L88.8209 93H86.1899L89.9365 82.7846H92.2518L96.0264 93H93.3814L92.785 91.0916ZM89.9996 89.1903H92.1956L91.0941 85.6471L89.9996 89.1903ZM102.046 90.2848C102.046 89.9246 101.918 89.644 101.66 89.4428C101.408 89.2417 100.961 89.0336 100.32 88.8184C99.6795 88.6033 99.1556 88.3951 98.7487 88.194C97.425 87.5438 96.7631 86.6504 96.7631 85.5138C96.7631 84.9479 96.9268 84.4497 97.2542 84.0194C97.5863 83.5844 98.0541 83.2476 98.6575 83.0091C99.2608 82.7659 99.9391 82.6443 100.692 82.6443C101.426 82.6443 102.084 82.7752 102.664 83.0372C103.248 83.2991 103.702 83.6733 104.025 84.1597C104.347 84.6415 104.509 85.1934 104.509 85.8155H102.053C102.053 85.3992 101.925 85.0765 101.667 84.8473C101.415 84.6181 101.071 84.5035 100.636 84.5035C100.196 84.5035 99.8479 84.6018 99.5906 84.7982C99.338 84.99 99.2117 85.2355 99.2117 85.5349C99.2117 85.7968 99.352 86.0354 99.6327 86.2505C99.9133 86.461 100.407 86.6809 101.113 86.91C101.819 87.1346 102.399 87.3778 102.853 87.6397C103.957 88.2758 104.509 89.1528 104.509 90.2707C104.509 91.1641 104.172 91.8657 103.499 92.3756C102.825 92.8854 101.901 93.1403 100.727 93.1403C99.8993 93.1403 99.1486 92.993 98.475 92.6983C97.8062 92.399 97.301 91.992 96.9596 91.4775C96.6228 90.9583 96.4544 90.362 96.4544 89.6884H98.9241C98.9241 90.2357 99.0644 90.6403 99.345 90.9022C99.6304 91.1594 100.091 91.2881 100.727 91.2881C101.134 91.2881 101.455 91.2015 101.688 91.0285C101.927 90.8507 102.046 90.6028 102.046 90.2848Z" fill="#222222" fill-opacity="0.8"/>
<path d="M171.971 80.949H168.173V84.055H172.585V85H167.017V76.236H172.525V77.187H168.173V80.004H171.971V80.949ZM176.034 80.8648L177.479 78.4872H178.779L176.648 81.7075L178.845 85H177.557L176.052 82.5622L174.547 85H173.253L175.45 81.7075L173.319 78.4872H174.608L176.034 80.8648ZM182.457 84.2115C182.854 84.2115 183.201 84.0911 183.498 83.8503C183.795 83.6096 183.959 83.3086 183.992 82.9474H185.045C185.025 83.3206 184.896 83.6758 184.66 84.0128C184.423 84.3499 184.106 84.6188 183.709 84.8194C183.315 85.0201 182.898 85.1204 182.457 85.1204C181.57 85.1204 180.864 84.8254 180.338 84.2356C179.816 83.6417 179.555 82.8311 179.555 81.8038V81.6172C179.555 80.9832 179.672 80.4194 179.904 79.9258C180.137 79.4322 180.47 79.049 180.904 78.7761C181.341 78.5032 181.857 78.3668 182.451 78.3668C183.181 78.3668 183.787 78.5855 184.268 79.0229C184.754 79.4603 185.013 80.0281 185.045 80.7263H183.992C183.959 80.305 183.799 79.9599 183.51 79.691C183.225 79.4181 182.872 79.2817 182.451 79.2817C181.885 79.2817 181.445 79.4864 181.132 79.8957C180.823 80.301 180.669 80.8889 180.669 81.6593V81.87C180.669 82.6204 180.823 83.1982 181.132 83.6035C181.441 84.0088 181.883 84.2115 182.457 84.2115ZM187.507 85H186.393V75.7544H187.507V85ZM193.315 84.3559C192.882 84.8656 192.246 85.1204 191.407 85.1204C190.713 85.1204 190.183 84.9197 189.818 84.5185C189.457 84.1132 189.274 83.5153 189.27 82.7247V78.4872H190.384V82.6946C190.384 83.6818 190.785 84.1754 191.588 84.1754C192.439 84.1754 193.004 83.8583 193.285 83.2243V78.4872H194.399V85H193.339L193.315 84.3559ZM199.888 83.2725C199.888 82.9715 199.774 82.7388 199.545 82.5742C199.321 82.4057 198.925 82.2612 198.359 82.1409C197.798 82.0205 197.35 81.876 197.017 81.7075C196.688 81.5389 196.443 81.3383 196.283 81.1055C196.126 80.8728 196.048 80.5959 196.048 80.2749C196.048 79.7412 196.273 79.2897 196.722 78.9206C197.176 78.5514 197.754 78.3668 198.456 78.3668C199.194 78.3668 199.792 78.5574 200.25 78.9386C200.711 79.3198 200.942 79.8074 200.942 80.4013H199.822C199.822 80.0963 199.692 79.8335 199.431 79.6128C199.174 79.3921 198.849 79.2817 198.456 79.2817C198.05 79.2817 197.733 79.37 197.505 79.5466C197.276 79.7231 197.162 79.9539 197.162 80.2388C197.162 80.5076 197.268 80.7103 197.481 80.8467C197.693 80.9832 198.077 81.1136 198.63 81.238C199.188 81.3624 199.64 81.5108 199.985 81.6834C200.33 81.8559 200.585 82.0646 200.749 82.3094C200.918 82.5502 201.002 82.8451 201.002 83.1942C201.002 83.7761 200.769 84.2436 200.304 84.5967C199.838 84.9458 199.234 85.1204 198.492 85.1204C197.97 85.1204 197.509 85.0281 197.107 84.8435C196.706 84.6589 196.391 84.4021 196.162 84.073C195.938 83.74 195.825 83.3808 195.825 82.9956H196.939C196.959 83.3688 197.107 83.6657 197.384 83.8864C197.665 84.1031 198.034 84.2115 198.492 84.2115C198.913 84.2115 199.25 84.1272 199.503 83.9587C199.76 83.7861 199.888 83.5574 199.888 83.2725ZM203.662 85H202.549V78.4872H203.662V85ZM202.459 76.7596C202.459 76.5791 202.513 76.4266 202.621 76.3022C202.733 76.1778 202.898 76.1156 203.115 76.1156C203.331 76.1156 203.496 76.1778 203.608 76.3022C203.721 76.4266 203.777 76.5791 203.777 76.7596C203.777 76.9402 203.721 77.0907 203.608 77.2111C203.496 77.3315 203.331 77.3917 203.115 77.3917C202.898 77.3917 202.733 77.3315 202.621 77.2111C202.513 77.0907 202.459 76.9402 202.459 76.7596ZM207.599 83.4892L209.212 78.4872H210.35L208.014 85H207.166L204.806 78.4872H205.944L207.599 83.4892ZM211.03 81.6834C211.03 81.0454 211.154 80.4715 211.403 79.9619C211.656 79.4523 212.005 79.059 212.451 78.7821C212.9 78.5052 213.412 78.3668 213.985 78.3668C214.872 78.3668 215.589 78.6738 216.134 79.2877C216.684 79.9017 216.959 80.7183 216.959 81.7376V81.8158C216.959 82.4498 216.837 83.0197 216.592 83.5253C216.351 84.0269 216.004 84.4181 215.55 84.699C215.101 84.9799 214.583 85.1204 213.997 85.1204C213.115 85.1204 212.398 84.8134 211.849 84.1994C211.303 83.5855 211.03 82.7729 211.03 81.7616V81.6834ZM212.15 81.8158C212.15 82.5381 212.316 83.118 212.649 83.5554C212.986 83.9928 213.436 84.2115 213.997 84.2115C214.563 84.2115 215.013 83.9908 215.346 83.5494C215.679 83.1039 215.845 82.4819 215.845 81.6834C215.845 80.9691 215.675 80.3913 215.334 79.9499C214.997 79.5044 214.547 79.2817 213.985 79.2817C213.436 79.2817 212.992 79.5004 212.655 79.9378C212.318 80.3752 212.15 81.0012 212.15 81.8158Z" fill="#222222" fill-opacity="0.8"/>
<path d="M172.531 95.8038C172.531 96.807 172.302 97.6116 171.845 98.2175C171.391 98.8194 170.777 99.1204 170.003 99.1204C169.345 99.1204 168.813 98.8917 168.408 98.4342V101.504H166.668V92.4872H168.281L168.341 93.1252C168.763 92.6196 169.313 92.3668 169.991 92.3668C170.793 92.3668 171.417 92.6637 171.863 93.2576C172.308 93.8515 172.531 94.6702 172.531 95.7135V95.8038ZM170.791 95.6774C170.791 95.0714 170.683 94.6039 170.466 94.2749C170.254 93.9458 169.943 93.7813 169.533 93.7813C168.988 93.7813 168.612 93.99 168.408 94.4073V97.0738C168.62 97.5032 169 97.7179 169.545 97.7179C170.376 97.7179 170.791 97.0377 170.791 95.6774ZM177.388 99C177.308 98.8435 177.25 98.6489 177.214 98.4161C176.793 98.8856 176.245 99.1204 175.571 99.1204C174.933 99.1204 174.403 98.9358 173.982 98.5666C173.564 98.1974 173.356 97.7319 173.356 97.1701C173.356 96.4799 173.61 95.9502 174.12 95.5811C174.634 95.2119 175.374 95.0253 176.341 95.0213H177.142V94.6481C177.142 94.3471 177.063 94.1064 176.907 93.9258C176.754 93.7452 176.512 93.6549 176.179 93.6549C175.886 93.6549 175.655 93.7251 175.486 93.8656C175.322 94.006 175.24 94.1986 175.24 94.4434H173.5C173.5 94.0662 173.616 93.7171 173.849 93.3961C174.082 93.0751 174.411 92.8243 174.836 92.6437C175.262 92.4591 175.739 92.3668 176.269 92.3668C177.071 92.3668 177.707 92.5694 178.177 92.9747C178.65 93.376 178.887 93.9418 178.887 94.6722V97.4952C178.891 98.1132 178.978 98.5807 179.146 98.8977V99H177.388ZM175.95 97.7901C176.207 97.7901 176.443 97.734 176.66 97.6216C176.877 97.5052 177.037 97.3507 177.142 97.1581V96.0385H176.492C175.621 96.0385 175.157 96.3395 175.101 96.9414L175.095 97.0437C175.095 97.2604 175.171 97.439 175.324 97.5795C175.476 97.7199 175.685 97.7901 175.95 97.7901ZM183.883 94.1184C183.646 94.0863 183.438 94.0702 183.257 94.0702C182.599 94.0702 182.168 94.2929 181.963 94.7384V99H180.223V92.4872H181.867L181.915 93.2637C182.264 92.6657 182.748 92.3668 183.366 92.3668C183.558 92.3668 183.739 92.3929 183.907 92.445L183.883 94.1184ZM188.319 99C188.239 98.8435 188.181 98.6489 188.145 98.4161C187.723 98.8856 187.176 99.1204 186.502 99.1204C185.864 99.1204 185.334 98.9358 184.912 98.5666C184.495 98.1974 184.286 97.7319 184.286 97.1701C184.286 96.4799 184.541 95.9502 185.051 95.5811C185.565 95.2119 186.305 95.0253 187.272 95.0213H188.073V94.6481C188.073 94.3471 187.994 94.1064 187.838 93.9258C187.685 93.7452 187.443 93.6549 187.11 93.6549C186.817 93.6549 186.586 93.7251 186.417 93.8656C186.253 94.006 186.171 94.1986 186.171 94.4434H184.431C184.431 94.0662 184.547 93.7171 184.78 93.3961C185.013 93.0751 185.342 92.8243 185.767 92.6437C186.193 92.4591 186.67 92.3668 187.2 92.3668C188.002 92.3668 188.638 92.5694 189.108 92.9747C189.581 93.376 189.818 93.9418 189.818 94.6722V97.4952C189.822 98.1132 189.908 98.5807 190.077 98.8977V99H188.319ZM186.881 97.7901C187.138 97.7901 187.374 97.734 187.591 97.6216C187.808 97.5052 187.968 97.3507 188.073 97.1581V96.0385H187.423C186.552 96.0385 186.088 96.3395 186.032 96.9414L186.026 97.0437C186.026 97.2604 186.102 97.439 186.255 97.5795C186.407 97.7199 186.616 97.7901 186.881 97.7901ZM197.884 94.1184C197.647 94.0863 197.439 94.0702 197.258 94.0702C196.6 94.0702 196.168 94.2929 195.964 94.7384V99H194.224V92.4872H195.868L195.916 93.2637C196.265 92.6657 196.748 92.3668 197.366 92.3668C197.559 92.3668 197.739 92.3929 197.908 92.445L197.884 94.1184ZM201.604 99.1204C200.649 99.1204 199.87 98.8274 199.268 98.2416C198.67 97.6557 198.372 96.8752 198.372 95.9001V95.7315C198.372 95.0775 198.498 94.4936 198.751 93.9799C199.004 93.4623 199.361 93.065 199.822 92.7881C200.288 92.5072 200.817 92.3668 201.411 92.3668C202.302 92.3668 203.002 92.6477 203.512 93.2095C204.026 93.7713 204.282 94.5678 204.282 95.5991V96.3094H200.135C200.191 96.7348 200.36 97.0758 200.641 97.3327C200.926 97.5895 201.285 97.7179 201.718 97.7179C202.388 97.7179 202.912 97.4751 203.289 96.9896L204.144 97.9466C203.883 98.3158 203.53 98.6047 203.085 98.8134C202.639 99.0181 202.146 99.1204 201.604 99.1204ZM201.405 93.7753C201.06 93.7753 200.779 93.8917 200.563 94.1244C200.35 94.3572 200.213 94.6902 200.153 95.1236H202.573V94.9852C202.565 94.5999 202.461 94.303 202.26 94.0943C202.059 93.8816 201.774 93.7753 201.405 93.7753ZM205.005 95.6954C205.005 94.6802 205.231 93.8716 205.685 93.2697C206.142 92.6677 206.766 92.3668 207.557 92.3668C208.191 92.3668 208.715 92.6035 209.128 93.0771V89.7544H210.874V99H209.302L209.218 98.3078C208.785 98.8495 208.227 99.1204 207.545 99.1204C206.778 99.1204 206.162 98.8194 205.697 98.2175C205.235 97.6116 205.005 96.7709 205.005 95.6954ZM206.744 95.8218C206.744 96.4318 206.851 96.8993 207.063 97.2243C207.276 97.5494 207.585 97.7119 207.99 97.7119C208.528 97.7119 208.907 97.4852 209.128 97.0317V94.4615C208.911 94.008 208.536 93.7813 208.002 93.7813C207.164 93.7813 206.744 94.4615 206.744 95.8218ZM215.219 99.1204C214.264 99.1204 213.486 98.8274 212.884 98.2416C212.286 97.6557 211.987 96.8752 211.987 95.9001V95.7315C211.987 95.0775 212.113 94.4936 212.366 93.9799C212.619 93.4623 212.976 93.065 213.438 92.7881C213.903 92.5072 214.433 92.3668 215.027 92.3668C215.918 92.3668 216.618 92.6477 217.128 93.2095C217.641 93.7713 217.898 94.5678 217.898 95.5991V96.3094H213.751C213.807 96.7348 213.975 97.0758 214.256 97.3327C214.541 97.5895 214.9 97.7179 215.334 97.7179C216.004 97.7179 216.528 97.4751 216.905 96.9896L217.76 97.9466C217.499 98.3158 217.146 98.6047 216.7 98.8134C216.255 99.0181 215.761 99.1204 215.219 99.1204ZM215.021 93.7753C214.676 93.7753 214.395 93.8917 214.178 94.1244C213.965 94.3572 213.829 94.6902 213.769 95.1236H216.188V94.9852C216.18 94.5999 216.076 94.303 215.875 94.0943C215.675 93.8816 215.39 93.7753 215.021 93.7753ZM222.418 97.2002C222.418 96.9876 222.312 96.821 222.099 96.7006C221.891 96.5762 221.554 96.4659 221.088 96.3696C219.539 96.0445 218.765 95.3864 218.765 94.3953C218.765 93.8174 219.004 93.3359 219.481 92.9507C219.963 92.5614 220.591 92.3668 221.365 92.3668C222.192 92.3668 222.852 92.5614 223.345 92.9507C223.843 93.3399 224.092 93.8455 224.092 94.4675H222.352C222.352 94.2187 222.272 94.0141 222.111 93.8535C221.951 93.689 221.7 93.6068 221.359 93.6068C221.066 93.6068 220.839 93.673 220.679 93.8054C220.518 93.9378 220.438 94.1064 220.438 94.311C220.438 94.5036 220.528 94.6601 220.709 94.7805C220.894 94.8969 221.203 94.9992 221.636 95.0875C222.069 95.1718 222.434 95.2681 222.731 95.3764C223.65 95.7135 224.11 96.2974 224.11 97.128C224.11 97.7219 223.855 98.2035 223.345 98.5726C222.836 98.9378 222.178 99.1204 221.371 99.1204C220.825 99.1204 220.34 99.0241 219.914 98.8315C219.493 98.6348 219.162 98.368 218.921 98.0309C218.68 97.6898 218.56 97.3226 218.56 96.9294H220.209C220.225 97.2384 220.34 97.4751 220.552 97.6396C220.765 97.8042 221.05 97.8864 221.407 97.8864C221.74 97.8864 221.991 97.8242 222.16 97.6998C222.332 97.5714 222.418 97.4049 222.418 97.2002Z" fill="#EE392A"/>
<rect x="0.5" y="0.5" width="275" height="112" rx="9.5" stroke="#EF3829"/>
<path d="M0 10C0 4.47715 4.47715 0 10 0H266C271.523 0 276 4.47715 276 10V27H0V10Z" fill="#EF3829"/>
<path d="M118.657 17H116.935V7.04688H118.657V17ZM122.164 9.60352L122.212 10.458C122.759 9.7972 123.477 9.4668 124.365 9.4668C125.906 9.4668 126.689 10.3486 126.717 12.1123V17H125.056V12.208C125.056 11.7386 124.953 11.3923 124.748 11.1689C124.548 10.9411 124.217 10.8271 123.757 10.8271C123.087 10.8271 122.588 11.1302 122.26 11.7363V17H120.599V9.60352H122.164ZM131.454 15.8105C131.869 15.8105 132.213 15.6898 132.486 15.4482C132.76 15.2067 132.906 14.9082 132.924 14.5527H134.489C134.471 15.013 134.327 15.4437 134.059 15.8447C133.79 16.2412 133.425 16.5557 132.965 16.7881C132.505 17.0205 132.008 17.1367 131.475 17.1367C130.44 17.1367 129.62 16.8018 129.014 16.1318C128.408 15.4619 128.104 14.5368 128.104 13.3564V13.1855C128.104 12.0599 128.405 11.1598 129.007 10.4854C129.608 9.80632 130.429 9.4668 131.468 9.4668C132.347 9.4668 133.063 9.72428 133.614 10.2393C134.17 10.7497 134.462 11.4219 134.489 12.2559H132.924C132.906 11.832 132.76 11.4834 132.486 11.21C132.217 10.9365 131.873 10.7998 131.454 10.7998C130.916 10.7998 130.502 10.9958 130.21 11.3877C129.918 11.7751 129.77 12.3652 129.766 13.1582V13.4248C129.766 14.2269 129.909 14.8262 130.196 15.2227C130.488 15.6146 130.907 15.8105 131.454 15.8105ZM137.511 17H135.85V6.5H137.511V17ZM143.807 16.2754C143.319 16.8496 142.626 17.1367 141.729 17.1367C140.926 17.1367 140.318 16.902 139.903 16.4326C139.493 15.9632 139.288 15.2842 139.288 14.3955V9.60352H140.949V14.375C140.949 15.3138 141.339 15.7832 142.118 15.7832C142.925 15.7832 143.469 15.4938 143.752 14.915V9.60352H145.413V17H143.848L143.807 16.2754ZM149.692 14.6211L151.196 9.60352H152.967L150.027 18.1211C149.576 19.3652 148.811 19.9873 147.73 19.9873C147.489 19.9873 147.222 19.9463 146.931 19.8643V18.5791L147.245 18.5996C147.664 18.5996 147.979 18.5221 148.188 18.3672C148.403 18.2168 148.571 17.9616 148.694 17.6016L148.934 16.9658L146.336 9.60352H148.127L149.692 14.6211ZM157.089 17.1367C156.036 17.1367 155.182 16.8063 154.525 16.1455C153.874 15.4801 153.548 14.596 153.548 13.4932V13.2881C153.548 12.5498 153.689 11.8913 153.972 11.3125C154.259 10.7292 154.66 10.2757 155.175 9.95215C155.69 9.62858 156.264 9.4668 156.897 9.4668C157.905 9.4668 158.682 9.78809 159.229 10.4307C159.78 11.0732 160.056 11.9824 160.056 13.1582V13.8281H155.223C155.273 14.4388 155.476 14.9219 155.831 15.2773C156.191 15.6328 156.642 15.8105 157.185 15.8105C157.946 15.8105 158.565 15.5029 159.044 14.8877L159.939 15.7422C159.643 16.1842 159.247 16.5283 158.75 16.7744C158.258 17.016 157.704 17.1367 157.089 17.1367ZM156.891 10.7998C156.435 10.7998 156.066 10.9593 155.783 11.2783C155.505 11.5973 155.327 12.0417 155.25 12.6113H158.415V12.4883C158.379 11.9323 158.23 11.513 157.971 11.2305C157.711 10.9434 157.351 10.7998 156.891 10.7998Z" fill="white"/>
</svg>
