<svg width="276" height="75" viewBox="0 0 276 75" fill="none" xmlns="http://www.w3.org/2000/svg">
<rect x="0.5" y="0.5" width="275" height="74" rx="9.5" fill="white"/>
<rect width="208" height="36" transform="translate(30 19.5)" fill="white"/>
<path d="M36.1406 36.0469H38.8047V38.3047H36.1406V41.3594H33.6797V38.3047H31.0078V36.0469H33.6797V33.0781H36.1406V36.0469ZM51.7891 32.5312L47.5391 42.5H44.7578L49.0156 33.1562H43.5938V31.125H51.7891V32.5312ZM66.6094 41.0938C66.1875 41.5625 65.5703 41.9401 64.7578 42.2266C63.9453 42.513 63.0547 42.6562 62.0859 42.6562C60.5964 42.6562 59.4062 42.2005 58.5156 41.2891C57.625 40.3776 57.1484 39.1094 57.0859 37.4844L57.0781 36.5C57.0781 35.3802 57.276 34.4036 57.6719 33.5703C58.0677 32.7318 58.6328 32.0885 59.3672 31.6406C60.1068 31.1875 60.9609 30.9609 61.9297 30.9609C63.3464 30.9609 64.4453 31.2865 65.2266 31.9375C66.013 32.5833 66.4714 33.5495 66.6016 34.8359H63.9609C63.8672 34.2005 63.6641 33.7474 63.3516 33.4766C63.0391 33.2057 62.5964 33.0703 62.0234 33.0703C61.3359 33.0703 60.8047 33.362 60.4297 33.9453C60.0547 34.5286 59.8646 35.362 59.8594 36.4453V37.1328C59.8594 38.2682 60.0521 39.1224 60.4375 39.6953C60.8281 40.263 61.4401 40.5469 62.2734 40.5469C62.987 40.5469 63.5182 40.388 63.8672 40.0703V38.3047H61.9609V36.4219H66.6094V41.0938ZM71.125 42.5H68.3906V31.125H71.125V42.5ZM82.3438 41.0938C81.9219 41.5625 81.3047 41.9401 80.4922 42.2266C79.6797 42.513 78.7891 42.6562 77.8203 42.6562C76.3307 42.6562 75.1406 42.2005 74.25 41.2891C73.3594 40.3776 72.8828 39.1094 72.8203 37.4844L72.8125 36.5C72.8125 35.3802 73.0104 34.4036 73.4062 33.5703C73.8021 32.7318 74.3672 32.0885 75.1016 31.6406C75.8411 31.1875 76.6953 30.9609 77.6641 30.9609C79.0807 30.9609 80.1797 31.2865 80.9609 31.9375C81.7474 32.5833 82.2057 33.5495 82.3359 34.8359H79.6953C79.6016 34.2005 79.3984 33.7474 79.0859 33.4766C78.7734 33.2057 78.3307 33.0703 77.7578 33.0703C77.0703 33.0703 76.5391 33.362 76.1641 33.9453C75.7891 34.5286 75.599 35.362 75.5938 36.4453V37.1328C75.5938 38.2682 75.7865 39.1224 76.1719 39.6953C76.5625 40.263 77.1745 40.5469 78.0078 40.5469C78.7214 40.5469 79.2526 40.388 79.6016 40.0703V38.3047H77.6953V36.4219H82.3438V41.0938ZM90.3984 40.375H86.6406L85.9844 42.5H83.0547L87.2266 31.125H89.8047L94.0078 42.5H91.0625L90.3984 40.375ZM87.2969 38.2578H89.7422L88.5156 34.3125L87.2969 38.2578ZM100.711 39.4766C100.711 39.0755 100.568 38.763 100.281 38.5391C100 38.3151 99.5026 38.0833 98.7891 37.8438C98.0755 37.6042 97.4922 37.3724 97.0391 37.1484C95.5651 36.4245 94.8281 35.4297 94.8281 34.1641C94.8281 33.5339 95.0104 32.9792 95.375 32.5C95.7448 32.0156 96.2656 31.6406 96.9375 31.375C97.6094 31.1042 98.3646 30.9688 99.2031 30.9688C100.021 30.9688 100.753 31.1146 101.398 31.4062C102.049 31.6979 102.555 32.1146 102.914 32.6562C103.273 33.1927 103.453 33.8073 103.453 34.5H100.719C100.719 34.0365 100.576 33.6771 100.289 33.4219C100.008 33.1667 99.625 33.0391 99.1406 33.0391C98.651 33.0391 98.263 33.1484 97.9766 33.3672C97.6953 33.5807 97.5547 33.8542 97.5547 34.1875C97.5547 34.4792 97.7109 34.7448 98.0234 34.9844C98.3359 35.2188 98.8854 35.4635 99.6719 35.7188C100.458 35.9688 101.104 36.2396 101.609 36.5312C102.839 37.2396 103.453 38.2161 103.453 39.4609C103.453 40.4557 103.078 41.237 102.328 41.8047C101.578 42.3724 100.549 42.6562 99.2422 42.6562C98.3203 42.6562 97.4844 42.4922 96.7344 42.1641C95.9896 41.8307 95.4271 41.3776 95.0469 40.8047C94.6719 40.2266 94.4844 39.5625 94.4844 38.8125H97.2344C97.2344 39.4219 97.3906 39.8724 97.7031 40.1641C98.0208 40.4505 98.5339 40.5938 99.2422 40.5938C99.6953 40.5938 100.052 40.4974 100.312 40.3047C100.578 40.1068 100.711 39.8307 100.711 39.4766Z" fill="#222222" fill-opacity="0.8"/>
<path d="M168.75 28.2422H163.82V32.2734H169.547V33.5H162.32V22.125H169.469V23.3594H163.82V27.0156H168.75V28.2422ZM174.023 28.1328L175.898 25.0469H177.586L174.82 29.2266L177.672 33.5H176L174.047 30.3359L172.094 33.5H170.414L173.266 29.2266L170.5 25.0469H172.172L174.023 28.1328ZM182.359 32.4766C182.875 32.4766 183.326 32.3203 183.711 32.0078C184.096 31.6953 184.31 31.3047 184.352 30.8359H185.719C185.693 31.3203 185.526 31.7812 185.219 32.2188C184.911 32.6562 184.5 33.0052 183.984 33.2656C183.474 33.526 182.932 33.6562 182.359 33.6562C181.208 33.6562 180.292 33.2734 179.609 32.5078C178.932 31.737 178.594 30.6849 178.594 29.3516V29.1094C178.594 28.2865 178.745 27.5547 179.047 26.9141C179.349 26.2734 179.781 25.776 180.344 25.4219C180.911 25.0677 181.581 24.8906 182.352 24.8906C183.299 24.8906 184.086 25.1745 184.711 25.7422C185.341 26.3099 185.677 27.0469 185.719 27.9531H184.352C184.31 27.4062 184.102 26.9583 183.727 26.6094C183.357 26.2552 182.898 26.0781 182.352 26.0781C181.617 26.0781 181.047 26.3438 180.641 26.875C180.24 27.401 180.039 28.1641 180.039 29.1641V29.4375C180.039 30.4115 180.24 31.1615 180.641 31.6875C181.042 32.2135 181.615 32.4766 182.359 32.4766ZM188.914 33.5H187.469V21.5H188.914V33.5ZM196.453 32.6641C195.891 33.3255 195.065 33.6562 193.977 33.6562C193.076 33.6562 192.388 33.3958 191.914 32.875C191.445 32.349 191.208 31.5729 191.203 30.5469V25.0469H192.648V30.5078C192.648 31.7891 193.169 32.4297 194.211 32.4297C195.315 32.4297 196.049 32.0182 196.414 31.1953V25.0469H197.859V33.5H196.484L196.453 32.6641ZM204.984 31.2578C204.984 30.8672 204.836 30.5651 204.539 30.3516C204.247 30.1328 203.734 29.9453 203 29.7891C202.271 29.6328 201.69 29.4453 201.258 29.2266C200.831 29.0078 200.513 28.7474 200.305 28.4453C200.102 28.1432 200 27.7839 200 27.3672C200 26.6745 200.292 26.0885 200.875 25.6094C201.464 25.1302 202.214 24.8906 203.125 24.8906C204.083 24.8906 204.859 25.138 205.453 25.6328C206.052 26.1276 206.352 26.7604 206.352 27.5312H204.898C204.898 27.1354 204.729 26.7943 204.391 26.5078C204.057 26.2214 203.635 26.0781 203.125 26.0781C202.599 26.0781 202.188 26.1927 201.891 26.4219C201.594 26.651 201.445 26.9505 201.445 27.3203C201.445 27.6693 201.583 27.9323 201.859 28.1094C202.135 28.2865 202.633 28.4557 203.352 28.6172C204.076 28.7786 204.661 28.9714 205.109 29.1953C205.557 29.4193 205.888 29.6901 206.102 30.0078C206.32 30.3203 206.43 30.7031 206.43 31.1562C206.43 31.9115 206.128 32.5182 205.523 32.9766C204.919 33.4297 204.135 33.6562 203.172 33.6562C202.495 33.6562 201.896 33.5365 201.375 33.2969C200.854 33.0573 200.445 32.724 200.148 32.2969C199.857 31.8646 199.711 31.3984 199.711 30.8984H201.156C201.182 31.3828 201.375 31.7682 201.734 32.0547C202.099 32.3359 202.578 32.4766 203.172 32.4766C203.719 32.4766 204.156 32.3672 204.484 32.1484C204.818 31.9245 204.984 31.6276 204.984 31.2578ZM209.883 33.5H208.438V25.0469H209.883V33.5ZM208.32 22.8047C208.32 22.5703 208.391 22.3724 208.531 22.2109C208.677 22.0495 208.891 21.9688 209.172 21.9688C209.453 21.9688 209.667 22.0495 209.812 22.2109C209.958 22.3724 210.031 22.5703 210.031 22.8047C210.031 23.0391 209.958 23.2344 209.812 23.3906C209.667 23.5469 209.453 23.625 209.172 23.625C208.891 23.625 208.677 23.5469 208.531 23.3906C208.391 23.2344 208.32 23.0391 208.32 22.8047ZM214.992 31.5391L217.086 25.0469H218.562L215.531 33.5H214.43L211.367 25.0469H212.844L214.992 31.5391ZM219.445 29.1953C219.445 28.3672 219.607 27.6224 219.93 26.9609C220.258 26.2995 220.711 25.7891 221.289 25.4297C221.872 25.0703 222.536 24.8906 223.281 24.8906C224.432 24.8906 225.362 25.2891 226.07 26.0859C226.784 26.8828 227.141 27.9427 227.141 29.2656V29.3672C227.141 30.1901 226.982 30.9297 226.664 31.5859C226.352 32.237 225.901 32.7448 225.312 33.1094C224.729 33.474 224.057 33.6562 223.297 33.6562C222.151 33.6562 221.221 33.2578 220.508 32.4609C219.799 31.6641 219.445 30.6094 219.445 29.2969V29.1953ZM220.898 29.3672C220.898 30.3047 221.115 31.0573 221.547 31.625C221.984 32.1927 222.568 32.4766 223.297 32.4766C224.031 32.4766 224.615 32.1901 225.047 31.6172C225.479 31.0391 225.695 30.2318 225.695 29.1953C225.695 28.2682 225.474 27.5182 225.031 26.9453C224.594 26.3672 224.01 26.0781 223.281 26.0781C222.568 26.0781 221.992 26.362 221.555 26.9297C221.117 27.4974 220.898 28.3099 220.898 29.3672Z" fill="#222222" fill-opacity="0.8"/>
<path d="M169.477 47.3516C169.477 48.6536 169.18 49.6979 168.586 50.4844C167.997 51.2656 167.201 51.6562 166.195 51.6562C165.341 51.6562 164.651 51.3594 164.125 50.7656V54.75H161.867V43.0469H163.961L164.039 43.875C164.586 43.2188 165.299 42.8906 166.18 42.8906C167.221 42.8906 168.031 43.276 168.609 44.0469C169.188 44.8177 169.477 45.8802 169.477 47.2344V47.3516ZM167.219 47.1875C167.219 46.401 167.078 45.7943 166.797 45.3672C166.521 44.9401 166.117 44.7266 165.586 44.7266C164.878 44.7266 164.391 44.9974 164.125 45.5391V49C164.401 49.5573 164.893 49.8359 165.602 49.8359C166.68 49.8359 167.219 48.9531 167.219 47.1875ZM175.781 51.5C175.677 51.2969 175.602 51.0443 175.555 50.7422C175.008 51.3516 174.297 51.6562 173.422 51.6562C172.594 51.6562 171.906 51.4167 171.359 50.9375C170.818 50.4583 170.547 49.8542 170.547 49.125C170.547 48.2292 170.878 47.5417 171.539 47.0625C172.206 46.5833 173.167 46.3411 174.422 46.3359H175.461V45.8516C175.461 45.4609 175.359 45.1484 175.156 44.9141C174.958 44.6797 174.643 44.5625 174.211 44.5625C173.831 44.5625 173.531 44.6536 173.312 44.8359C173.099 45.0182 172.992 45.2682 172.992 45.5859H170.734C170.734 45.0964 170.885 44.6432 171.188 44.2266C171.49 43.8099 171.917 43.4844 172.469 43.25C173.021 43.0104 173.641 42.8906 174.328 42.8906C175.37 42.8906 176.195 43.1536 176.805 43.6797C177.419 44.2005 177.727 44.9349 177.727 45.8828V49.5469C177.732 50.349 177.844 50.9557 178.062 51.3672V51.5H175.781ZM173.914 49.9297C174.247 49.9297 174.555 49.8568 174.836 49.7109C175.117 49.5599 175.326 49.3594 175.461 49.1094V47.6562H174.617C173.487 47.6562 172.885 48.0469 172.812 48.8281L172.805 48.9609C172.805 49.2422 172.904 49.474 173.102 49.6562C173.299 49.8385 173.57 49.9297 173.914 49.9297ZM184.211 45.1641C183.904 45.1224 183.633 45.1016 183.398 45.1016C182.544 45.1016 181.984 45.3906 181.719 45.9688V51.5H179.461V43.0469H181.594L181.656 44.0547C182.109 43.2786 182.737 42.8906 183.539 42.8906C183.789 42.8906 184.023 42.9245 184.242 42.9922L184.211 45.1641ZM189.969 51.5C189.865 51.2969 189.789 51.0443 189.742 50.7422C189.195 51.3516 188.484 51.6562 187.609 51.6562C186.781 51.6562 186.094 51.4167 185.547 50.9375C185.005 50.4583 184.734 49.8542 184.734 49.125C184.734 48.2292 185.065 47.5417 185.727 47.0625C186.393 46.5833 187.354 46.3411 188.609 46.3359H189.648V45.8516C189.648 45.4609 189.547 45.1484 189.344 44.9141C189.146 44.6797 188.831 44.5625 188.398 44.5625C188.018 44.5625 187.719 44.6536 187.5 44.8359C187.286 45.0182 187.18 45.2682 187.18 45.5859H184.922C184.922 45.0964 185.073 44.6432 185.375 44.2266C185.677 43.8099 186.104 43.4844 186.656 43.25C187.208 43.0104 187.828 42.8906 188.516 42.8906C189.557 42.8906 190.383 43.1536 190.992 43.6797C191.607 44.2005 191.914 44.9349 191.914 45.8828V49.5469C191.919 50.349 192.031 50.9557 192.25 51.3672V51.5H189.969ZM188.102 49.9297C188.435 49.9297 188.742 49.8568 189.023 49.7109C189.305 49.5599 189.513 49.3594 189.648 49.1094V47.6562H188.805C187.674 47.6562 187.073 48.0469 187 48.8281L186.992 48.9609C186.992 49.2422 187.091 49.474 187.289 49.6562C187.487 49.8385 187.758 49.9297 188.102 49.9297ZM202.383 45.1641C202.076 45.1224 201.805 45.1016 201.57 45.1016C200.716 45.1016 200.156 45.3906 199.891 45.9688V51.5H197.633V43.0469H199.766L199.828 44.0547C200.281 43.2786 200.909 42.8906 201.711 42.8906C201.961 42.8906 202.195 42.9245 202.414 42.9922L202.383 45.1641ZM207.211 51.6562C205.971 51.6562 204.961 51.276 204.18 50.5156C203.404 49.7552 203.016 48.7422 203.016 47.4766V47.2578C203.016 46.4089 203.18 45.651 203.508 44.9844C203.836 44.3125 204.299 43.7969 204.898 43.4375C205.503 43.0729 206.19 42.8906 206.961 42.8906C208.117 42.8906 209.026 43.2552 209.688 43.9844C210.354 44.7135 210.688 45.7474 210.688 47.0859V48.0078H205.305C205.378 48.5599 205.596 49.0026 205.961 49.3359C206.331 49.6693 206.797 49.8359 207.359 49.8359C208.229 49.8359 208.909 49.5208 209.398 48.8906L210.508 50.1328C210.169 50.612 209.711 50.987 209.133 51.2578C208.555 51.5234 207.914 51.6562 207.211 51.6562ZM206.953 44.7188C206.505 44.7188 206.141 44.8698 205.859 45.1719C205.583 45.474 205.406 45.9062 205.328 46.4688H208.469V46.2891C208.458 45.7891 208.323 45.4036 208.062 45.1328C207.802 44.8568 207.432 44.7188 206.953 44.7188ZM211.625 47.2109C211.625 45.8932 211.919 44.8438 212.508 44.0625C213.102 43.2812 213.911 42.8906 214.938 42.8906C215.76 42.8906 216.44 43.1979 216.977 43.8125V39.5H219.242V51.5H217.203L217.094 50.6016C216.531 51.3047 215.807 51.6562 214.922 51.6562C213.927 51.6562 213.128 51.2656 212.523 50.4844C211.924 49.6979 211.625 48.6068 211.625 47.2109ZM213.883 47.375C213.883 48.1667 214.021 48.7734 214.297 49.1953C214.573 49.6172 214.974 49.8281 215.5 49.8281C216.198 49.8281 216.69 49.5339 216.977 48.9453V45.6094C216.695 45.0208 216.208 44.7266 215.516 44.7266C214.427 44.7266 213.883 45.6094 213.883 47.375ZM224.883 51.6562C223.643 51.6562 222.633 51.276 221.852 50.5156C221.076 49.7552 220.688 48.7422 220.688 47.4766V47.2578C220.688 46.4089 220.852 45.651 221.18 44.9844C221.508 44.3125 221.971 43.7969 222.57 43.4375C223.174 43.0729 223.862 42.8906 224.633 42.8906C225.789 42.8906 226.698 43.2552 227.359 43.9844C228.026 44.7135 228.359 45.7474 228.359 47.0859V48.0078H222.977C223.049 48.5599 223.268 49.0026 223.633 49.3359C224.003 49.6693 224.469 49.8359 225.031 49.8359C225.901 49.8359 226.581 49.5208 227.07 48.8906L228.18 50.1328C227.841 50.612 227.383 50.987 226.805 51.2578C226.227 51.5234 225.586 51.6562 224.883 51.6562ZM224.625 44.7188C224.177 44.7188 223.812 44.8698 223.531 45.1719C223.255 45.474 223.078 45.9062 223 46.4688H226.141V46.2891C226.13 45.7891 225.995 45.4036 225.734 45.1328C225.474 44.8568 225.104 44.7188 224.625 44.7188ZM234.227 49.1641C234.227 48.888 234.089 48.6719 233.812 48.5156C233.542 48.3542 233.104 48.2109 232.5 48.0859C230.49 47.6641 229.484 46.8099 229.484 45.5234C229.484 44.7734 229.794 44.1484 230.414 43.6484C231.039 43.1432 231.854 42.8906 232.859 42.8906C233.932 42.8906 234.789 43.1432 235.43 43.6484C236.076 44.1536 236.398 44.8099 236.398 45.6172H234.141C234.141 45.2943 234.036 45.0286 233.828 44.8203C233.62 44.6068 233.294 44.5 232.852 44.5C232.471 44.5 232.177 44.5859 231.969 44.7578C231.76 44.9297 231.656 45.1484 231.656 45.4141C231.656 45.6641 231.773 45.8672 232.008 46.0234C232.247 46.1745 232.648 46.3073 233.211 46.4219C233.773 46.5312 234.247 46.6562 234.633 46.7969C235.826 47.2344 236.422 47.9922 236.422 49.0703C236.422 49.8411 236.091 50.4661 235.43 50.9453C234.768 51.4193 233.914 51.6562 232.867 51.6562C232.159 51.6562 231.529 51.5312 230.977 51.2812C230.43 51.026 230 50.6797 229.688 50.2422C229.375 49.7995 229.219 49.3229 229.219 48.8125H231.359C231.38 49.2135 231.529 49.5208 231.805 49.7344C232.081 49.9479 232.451 50.0547 232.914 50.0547C233.346 50.0547 233.672 49.974 233.891 49.8125C234.115 49.6458 234.227 49.4297 234.227 49.1641Z" fill="#EE392A"/>
<rect x="0.5" y="0.5" width="275" height="74" rx="9.5" stroke="#EF3829"/>
</svg>
