<svg width="276" height="149" viewBox="0 0 276 149" fill="none" xmlns="http://www.w3.org/2000/svg">
<rect x="0.5" y="0.5" width="275" height="148" rx="9.5" fill="white"/>
<path d="M0 10C0 4.47715 4.47715 0 10 0H266C271.523 0 276 4.47715 276 10V27H0V10Z" fill="#EF3829"/>
<path d="M118.657 17H116.935V7.04688H118.657V17ZM122.164 9.60352L122.212 10.458C122.759 9.7972 123.477 9.4668 124.365 9.4668C125.906 9.4668 126.689 10.3486 126.717 12.1123V17H125.056V12.208C125.056 11.7386 124.953 11.3923 124.748 11.1689C124.548 10.9411 124.217 10.8271 123.757 10.8271C123.087 10.8271 122.588 11.1302 122.26 11.7363V17H120.599V9.60352H122.164ZM131.454 15.8105C131.869 15.8105 132.213 15.6898 132.486 15.4482C132.76 15.2067 132.906 14.9082 132.924 14.5527H134.489C134.471 15.013 134.327 15.4437 134.059 15.8447C133.79 16.2412 133.425 16.5557 132.965 16.7881C132.505 17.0205 132.008 17.1367 131.475 17.1367C130.44 17.1367 129.62 16.8018 129.014 16.1318C128.408 15.4619 128.104 14.5368 128.104 13.3564V13.1855C128.104 12.0599 128.405 11.1598 129.007 10.4854C129.608 9.80632 130.429 9.4668 131.468 9.4668C132.347 9.4668 133.063 9.72428 133.614 10.2393C134.17 10.7497 134.462 11.4219 134.489 12.2559H132.924C132.906 11.832 132.76 11.4834 132.486 11.21C132.217 10.9365 131.873 10.7998 131.454 10.7998C130.916 10.7998 130.502 10.9958 130.21 11.3877C129.918 11.7751 129.77 12.3652 129.766 13.1582V13.4248C129.766 14.2269 129.909 14.8262 130.196 15.2227C130.488 15.6146 130.907 15.8105 131.454 15.8105ZM137.511 17H135.85V6.5H137.511V17ZM143.807 16.2754C143.319 16.8496 142.626 17.1367 141.729 17.1367C140.926 17.1367 140.318 16.902 139.903 16.4326C139.493 15.9632 139.288 15.2842 139.288 14.3955V9.60352H140.949V14.375C140.949 15.3138 141.339 15.7832 142.118 15.7832C142.925 15.7832 143.469 15.4938 143.752 14.915V9.60352H145.413V17H143.848L143.807 16.2754ZM149.692 14.6211L151.196 9.60352H152.967L150.027 18.1211C149.576 19.3652 148.811 19.9873 147.73 19.9873C147.489 19.9873 147.222 19.9463 146.931 19.8643V18.5791L147.245 18.5996C147.664 18.5996 147.979 18.5221 148.188 18.3672C148.403 18.2168 148.571 17.9616 148.694 17.6016L148.934 16.9658L146.336 9.60352H148.127L149.692 14.6211ZM157.089 17.1367C156.036 17.1367 155.182 16.8063 154.525 16.1455C153.874 15.4801 153.548 14.596 153.548 13.4932V13.2881C153.548 12.5498 153.689 11.8913 153.972 11.3125C154.259 10.7292 154.66 10.2757 155.175 9.95215C155.69 9.62858 156.264 9.4668 156.897 9.4668C157.905 9.4668 158.682 9.78809 159.229 10.4307C159.78 11.0732 160.056 11.9824 160.056 13.1582V13.8281H155.223C155.273 14.4388 155.476 14.9219 155.831 15.2773C156.191 15.6328 156.642 15.8105 157.185 15.8105C157.946 15.8105 158.565 15.5029 159.044 14.8877L159.939 15.7422C159.643 16.1842 159.247 16.5283 158.75 16.7744C158.258 17.016 157.704 17.1367 157.089 17.1367ZM156.891 10.7998C156.435 10.7998 156.066 10.9593 155.783 11.2783C155.505 11.5973 155.327 12.0417 155.25 12.6113H158.415V12.4883C158.379 11.9323 158.23 11.513 157.971 11.2305C157.711 10.9434 157.351 10.7998 156.891 10.7998Z" fill="white"/>
<rect width="203.5" height="28" transform="translate(32.25 37.667)" fill="white"/>
<path d="M40.1511 49.1808C40.1511 49.6766 40.0271 50.114 39.7792 50.4928C39.536 50.8717 39.1992 51.1757 38.7689 51.4049C39.2553 51.6435 39.6412 51.9709 39.9265 52.3872C40.2119 52.7988 40.3545 53.2876 40.3545 53.8535C40.3545 54.7656 40.0388 55.486 39.4074 56.0145C38.7806 56.543 37.9153 56.8073 36.8114 56.8073C35.7029 56.8073 34.8282 56.543 34.1874 56.0145C33.5466 55.4813 33.2262 54.761 33.2262 53.8535C33.2262 53.3063 33.3665 52.8222 33.6471 52.4012C33.9278 51.9803 34.3254 51.6482 34.8399 51.4049C34.4049 51.1757 34.0634 50.8717 33.8155 50.4928C33.5676 50.114 33.4437 49.6766 33.4437 49.1808C33.4437 48.2921 33.7454 47.5905 34.3488 47.076C34.9521 46.5615 35.766 46.3042 36.7904 46.3042C37.8241 46.3042 38.6426 46.5615 39.246 47.076C39.8494 47.5905 40.1511 48.2921 40.1511 49.1808ZM37.9831 53.6641C37.9831 53.2431 37.8732 52.9204 37.6533 52.6959C37.4382 52.4667 37.1528 52.3521 36.7974 52.3521C36.4419 52.3521 36.1542 52.4667 35.9344 52.6959C35.7146 52.9204 35.6046 53.2431 35.6046 53.6641C35.6046 54.071 35.7146 54.3938 35.9344 54.6323C36.1589 54.8662 36.4512 54.9831 36.8114 54.9831C37.1622 54.9831 37.4452 54.8662 37.6603 54.6323C37.8755 54.3985 37.9831 54.0757 37.9831 53.6641ZM36.7904 48.1284C36.4723 48.1284 36.2291 48.2337 36.0607 48.4441C35.897 48.65 35.8151 48.9376 35.8151 49.3071C35.8151 49.672 35.8993 49.9666 36.0677 50.1912C36.2361 50.4157 36.484 50.5279 36.8114 50.5279C37.1341 50.5279 37.375 50.4157 37.5341 50.1912C37.6978 49.9666 37.7796 49.672 37.7796 49.3071C37.7796 48.9423 37.6954 48.6546 37.527 48.4441C37.3633 48.2337 37.1178 48.1284 36.7904 48.1284ZM53.671 55.4041C53.2922 55.8251 52.7379 56.1642 52.0082 56.4214C51.2786 56.6787 50.4787 56.8073 49.6087 56.8073C48.271 56.8073 47.2022 56.398 46.4024 55.5795C45.6025 54.761 45.1746 53.622 45.1184 52.1627L45.1114 51.2786C45.1114 50.273 45.2892 49.396 45.6446 48.6476C46.0001 47.8946 46.5076 47.3169 47.1671 46.9146C47.8313 46.5077 48.5984 46.3042 49.4684 46.3042C50.7407 46.3042 51.7276 46.5966 52.4292 47.1813C53.1355 47.7612 53.5471 48.6289 53.664 49.7842H51.2926C51.2084 49.2136 51.026 48.8066 50.7453 48.5634C50.4647 48.3202 50.0671 48.1986 49.5526 48.1986C48.9352 48.1986 48.4581 48.4605 48.1213 48.9844C47.7845 49.5083 47.6138 50.2566 47.6091 51.2295V51.8469C47.6091 52.8666 47.7822 53.6337 48.1283 54.1482C48.4791 54.6581 49.0287 54.913 49.7771 54.913C50.4179 54.913 50.895 54.7703 51.2084 54.485V52.8994H49.4965V51.2085H53.671V55.4041ZM57.7263 56.667H55.2707V46.4516H57.7263V56.667ZM67.8014 55.4041C67.4226 55.8251 66.8683 56.1642 66.1386 56.4214C65.4089 56.6787 64.6091 56.8073 63.7391 56.8073C62.4014 56.8073 61.3326 56.398 60.5328 55.5795C59.7329 54.761 59.305 53.622 59.2488 52.1627L59.2418 51.2786C59.2418 50.273 59.4195 49.396 59.775 48.6476C60.1305 47.8946 60.638 47.3169 61.2975 46.9146C61.9617 46.5077 62.7288 46.3042 63.5988 46.3042C64.871 46.3042 65.858 46.5966 66.5596 47.1813C67.2659 47.7612 67.6775 48.6289 67.7944 49.7842H65.423C65.3388 49.2136 65.1564 48.8066 64.8757 48.5634C64.5951 48.3202 64.1975 48.1986 63.683 48.1986C63.0656 48.1986 62.5885 48.4605 62.2517 48.9844C61.9149 49.5083 61.7442 50.2566 61.7395 51.2295V51.8469C61.7395 52.8666 61.9126 53.6337 62.2587 54.1482C62.6095 54.6581 63.1591 54.913 63.9075 54.913C64.5483 54.913 65.0254 54.7703 65.3388 54.485V52.8994H63.6269V51.2085H67.8014V55.4041ZM75.035 54.7586H71.6603L71.0709 56.667H68.4399L72.1865 46.4516H74.5018L78.2764 56.667H75.6314L75.035 54.7586ZM72.2496 52.8573H74.4457L73.3441 49.3141L72.2496 52.8573ZM84.2962 53.9518C84.2962 53.5916 84.1676 53.311 83.9103 53.1098C83.6578 52.9087 83.2111 52.7006 82.5703 52.4854C81.9295 52.2702 81.4056 52.0621 80.9987 51.861C79.675 51.2108 79.0131 50.3174 79.0131 49.1808C79.0131 48.6149 79.1768 48.1167 79.5042 47.6864C79.8363 47.2514 80.3041 46.9146 80.9075 46.6761C81.5108 46.4329 82.1891 46.3113 82.9421 46.3113C83.6765 46.3113 84.3337 46.4422 84.9136 46.7042C85.4983 46.9661 85.952 47.3403 86.2748 47.8267C86.5975 48.3085 86.7589 48.8604 86.7589 49.4825H84.3032C84.3032 49.0662 84.1746 48.7435 83.9174 48.5143C83.6648 48.2851 83.321 48.1705 82.886 48.1705C82.4463 48.1705 82.0979 48.2687 81.8406 48.4652C81.588 48.657 81.4617 48.9025 81.4617 49.2019C81.4617 49.4638 81.6021 49.7024 81.8827 49.9175C82.1633 50.128 82.6568 50.3478 83.3631 50.577C84.0694 50.8015 84.6494 51.0448 85.1031 51.3067C86.2069 51.9428 86.7589 52.8198 86.7589 53.9377C86.7589 54.8311 86.4221 55.5327 85.7486 56.0426C85.075 56.5524 84.1512 56.8073 82.9772 56.8073C82.1493 56.8073 81.3986 56.66 80.725 56.3653C80.0562 56.0659 79.551 55.659 79.2096 55.1445C78.8728 54.6253 78.7044 54.0289 78.7044 53.3554H81.1741C81.1741 53.9027 81.3144 54.3073 81.595 54.5692C81.8804 54.8264 82.3411 54.9551 82.9772 54.9551C83.3841 54.9551 83.7045 54.8685 83.9384 54.6955C84.177 54.5177 84.2962 54.2698 84.2962 53.9518Z" fill="#222222" fill-opacity="0.8"/>
<path d="M169.423 45.236V48.667H168.267V39.903H171.5C172.459 39.903 173.209 40.1477 173.751 40.6373C174.297 41.1269 174.569 41.775 174.569 42.5815C174.569 43.4323 174.303 44.0884 173.769 44.5498C173.239 45.0073 172.479 45.236 171.488 45.236H169.423ZM169.423 44.291H171.5C172.118 44.291 172.591 44.1465 172.92 43.8576C173.249 43.5647 173.414 43.1433 173.414 42.5936C173.414 42.0719 173.249 41.6546 172.92 41.3416C172.591 41.0286 172.14 40.866 171.566 40.854H169.423V44.291ZM179.818 48.667C179.754 48.5386 179.702 48.3099 179.662 47.9808C179.144 48.5185 178.526 48.7874 177.808 48.7874C177.166 48.7874 176.638 48.6068 176.225 48.2456C175.815 47.8805 175.611 47.419 175.611 46.8612C175.611 46.183 175.868 45.6574 176.381 45.2842C176.899 44.907 177.625 44.7184 178.56 44.7184H179.644V44.2067C179.644 43.8175 179.527 43.5085 179.295 43.2798C179.062 43.047 178.719 42.9306 178.265 42.9306C177.868 42.9306 177.535 43.031 177.266 43.2316C176.997 43.4323 176.863 43.675 176.863 43.9599H175.743C175.743 43.6349 175.858 43.3219 176.086 43.0209C176.319 42.716 176.632 42.4752 177.025 42.2986C177.423 42.1221 177.858 42.0338 178.331 42.0338C179.082 42.0338 179.67 42.2224 180.095 42.5996C180.52 42.9728 180.741 43.4884 180.757 44.1465V47.1441C180.757 47.742 180.833 48.2176 180.986 48.5707V48.667H179.818ZM177.97 47.8183C178.319 47.8183 178.65 47.728 178.963 47.5474C179.276 47.3668 179.503 47.1321 179.644 46.8432V45.5069H178.771C177.406 45.5069 176.724 45.9062 176.724 46.7047C176.724 47.0538 176.841 47.3267 177.073 47.5233C177.306 47.72 177.605 47.8183 177.97 47.8183ZM185.651 43.1534C185.482 43.1253 185.3 43.1112 185.103 43.1112C184.373 43.1112 183.877 43.4222 183.616 44.0442V48.667H182.503V42.1542H183.586L183.604 42.9066C183.969 42.3247 184.487 42.0338 185.157 42.0338C185.374 42.0338 185.538 42.0619 185.651 42.118V43.1534ZM190.46 48.667C190.396 48.5386 190.344 48.3099 190.304 47.9808C189.786 48.5185 189.168 48.7874 188.45 48.7874C187.808 48.7874 187.28 48.6068 186.867 48.2456C186.457 47.8805 186.253 47.419 186.253 46.8612C186.253 46.183 186.51 45.6574 187.023 45.2842C187.541 44.907 188.267 44.7184 189.202 44.7184H190.286V44.2067C190.286 43.8175 190.169 43.5085 189.937 43.2798C189.704 43.047 189.361 42.9306 188.907 42.9306C188.51 42.9306 188.177 43.031 187.908 43.2316C187.639 43.4323 187.505 43.675 187.505 43.9599H186.385C186.385 43.6349 186.5 43.3219 186.728 43.0209C186.961 42.716 187.274 42.4752 187.667 42.2986C188.065 42.1221 188.5 42.0338 188.973 42.0338C189.724 42.0338 190.312 42.2224 190.737 42.5996C191.162 42.9728 191.383 43.4884 191.399 44.1465V47.1441C191.399 47.742 191.475 48.2176 191.628 48.5707V48.667H190.46ZM188.612 47.8183C188.961 47.8183 189.292 47.728 189.605 47.5474C189.918 47.3668 190.145 47.1321 190.286 46.8432V45.5069H189.413C188.049 45.5069 187.366 45.9062 187.366 46.7047C187.366 47.0538 187.483 47.3267 187.715 47.5233C187.948 47.72 188.247 47.8183 188.612 47.8183Z" fill="#222222" fill-opacity="0.8"/>
<path d="M169.519 56.1542L169.573 56.9066C170.039 56.3247 170.663 56.0338 171.445 56.0338C172.136 56.0338 172.649 56.2364 172.986 56.6417C173.323 57.047 173.496 57.653 173.504 58.4595V62.667H171.764V58.5017C171.764 58.1325 171.684 57.8656 171.524 57.7011C171.363 57.5326 171.096 57.4483 170.723 57.4483C170.234 57.4483 169.866 57.657 169.622 58.0743V62.667H167.882V56.1542H169.519ZM178.602 62.667C178.522 62.5105 178.464 62.3159 178.428 62.0831C178.006 62.5526 177.459 62.7874 176.784 62.7874C176.146 62.7874 175.617 62.6028 175.195 62.2336C174.778 61.8644 174.569 61.3989 174.569 60.8371C174.569 60.1469 174.824 59.6172 175.334 59.2481C175.847 58.8789 176.588 58.6923 177.555 58.6883H178.356V58.3151C178.356 58.0141 178.277 57.7733 178.121 57.5928C177.968 57.4122 177.725 57.3219 177.392 57.3219C177.099 57.3219 176.869 57.3921 176.7 57.5326C176.536 57.673 176.453 57.8656 176.453 58.1104H174.714C174.714 57.7332 174.83 57.3841 175.063 57.0631C175.296 56.742 175.625 56.4912 176.05 56.3107C176.476 56.1261 176.953 56.0338 177.483 56.0338C178.285 56.0338 178.921 56.2364 179.391 56.6417C179.864 57.043 180.101 57.6088 180.101 58.3392V61.1622C180.105 61.7802 180.191 62.2477 180.36 62.5647V62.667H178.602ZM177.164 61.4571C177.421 61.4571 177.657 61.4009 177.874 61.2886C178.091 61.1722 178.251 61.0177 178.356 60.8251V59.7055H177.705C176.835 59.7055 176.371 60.0065 176.315 60.6084L176.309 60.7107C176.309 60.9274 176.385 61.106 176.538 61.2464C176.69 61.3869 176.899 61.4571 177.164 61.4571ZM183.779 60.5422L184.989 56.1542H186.807L184.61 62.667H182.948L180.751 56.1542H182.569L183.779 60.5422ZM190.49 62.7874C189.535 62.7874 188.757 62.4944 188.155 61.9086C187.557 61.3227 187.258 60.5422 187.258 59.5671V59.3985C187.258 58.7444 187.384 58.1606 187.637 57.6469C187.89 57.1293 188.247 56.732 188.709 56.4551C189.174 56.1742 189.704 56.0338 190.298 56.0338C191.189 56.0338 191.889 56.3147 192.398 56.8765C192.912 57.4383 193.169 58.2348 193.169 59.2661V59.9764H189.022C189.078 60.4017 189.246 60.7428 189.527 60.9997C189.812 61.2565 190.171 61.3849 190.605 61.3849C191.275 61.3849 191.799 61.1421 192.176 60.6566L193.03 61.6136C192.77 61.9828 192.416 62.2717 191.971 62.4804C191.526 62.685 191.032 62.7874 190.49 62.7874ZM190.292 57.4423C189.947 57.4423 189.666 57.5587 189.449 57.7914C189.236 58.0241 189.1 58.3572 189.04 58.7906H191.459V58.6522C191.451 58.2669 191.347 57.97 191.146 57.7613C190.946 57.5486 190.661 57.4423 190.292 57.4423ZM193.909 59.3624C193.909 58.3632 194.146 57.5587 194.62 56.9487C195.097 56.3388 195.739 56.0338 196.546 56.0338C197.26 56.0338 197.816 56.2786 198.213 56.7681L198.285 56.1542H199.862V62.4503C199.862 63.0201 199.732 63.5157 199.471 63.9371C199.214 64.3584 198.851 64.6794 198.382 64.9001C197.912 65.1208 197.362 65.2312 196.732 65.2312C196.255 65.2312 195.789 65.1349 195.336 64.9423C194.882 64.7537 194.539 64.5089 194.307 64.2079L195.077 63.1485C195.51 63.6341 196.036 63.8769 196.654 63.8769C197.116 63.8769 197.475 63.7525 197.731 63.5037C197.988 63.2589 198.117 62.9098 198.117 62.4563V62.1072C197.715 62.5607 197.188 62.7874 196.534 62.7874C195.751 62.7874 195.117 62.4824 194.632 61.8725C194.15 61.2585 193.909 60.4459 193.909 59.4347V59.3624ZM195.649 59.4888C195.649 60.0787 195.767 60.5422 196.004 60.8793C196.241 61.2123 196.566 61.3789 196.979 61.3789C197.509 61.3789 197.888 61.1802 198.117 60.783V58.0442C197.884 57.6469 197.509 57.4483 196.991 57.4483C196.574 57.4483 196.245 57.6188 196.004 57.9599C195.767 58.301 195.649 58.8107 195.649 59.4888ZM204.979 62.667C204.898 62.5105 204.84 62.3159 204.804 62.0831C204.383 62.5526 203.835 62.7874 203.161 62.7874C202.523 62.7874 201.993 62.6028 201.572 62.2336C201.154 61.8644 200.946 61.3989 200.946 60.8371C200.946 60.1469 201.201 59.6172 201.71 59.2481C202.224 58.8789 202.964 58.6923 203.931 58.6883H204.732V58.3151C204.732 58.0141 204.654 57.7733 204.497 57.5928C204.345 57.4122 204.102 57.3219 203.769 57.3219C203.476 57.3219 203.245 57.3921 203.077 57.5326C202.912 57.673 202.83 57.8656 202.83 58.1104H201.09C201.09 57.7332 201.207 57.3841 201.439 57.0631C201.672 56.742 202.001 56.4912 202.426 56.3107C202.852 56.1261 203.329 56.0338 203.859 56.0338C204.662 56.0338 205.298 56.2364 205.767 56.6417C206.241 57.043 206.477 57.6088 206.477 58.3392V61.1622C206.481 61.7802 206.568 62.2477 206.736 62.5647V62.667H204.979ZM203.54 61.4571C203.797 61.4571 204.034 61.4009 204.25 61.2886C204.467 61.1722 204.628 61.0177 204.732 60.8251V59.7055H204.082C203.211 59.7055 202.748 60.0065 202.691 60.6084L202.685 60.7107C202.685 60.9274 202.762 61.106 202.914 61.2464C203.067 61.3869 203.275 61.4571 203.54 61.4571ZM211.473 57.7854C211.237 57.7533 211.028 57.7372 210.847 57.7372C210.189 57.7372 209.758 57.9599 209.553 58.4054V62.667H207.814V56.1542H209.457L209.505 56.9306C209.854 56.3327 210.338 56.0338 210.956 56.0338C211.148 56.0338 211.329 56.0599 211.498 56.112L211.473 57.7854Z" fill="#EE3A2B"/>
<rect width="208" height="28" transform="translate(30 74.333)" fill="white"/>
<path d="M35.0583 87.5377H37.4508V89.5654H35.0583V92.3087H32.8483V89.5654H30.4488V87.5377H32.8483V84.8716H35.0583V87.5377ZM48.2556 89.3409H49.294V91.165H48.2556V93.333H45.8912V91.165H41.9411L41.8008 89.7197L45.8912 83.1386V83.1176H48.2556V89.3409ZM44.0529 89.3409H45.8912V86.1977L45.7438 86.4362L44.0529 89.3409ZM62.421 92.0701C62.0422 92.4911 61.4879 92.8302 60.7582 93.0874C60.0286 93.3447 59.2287 93.4733 58.3587 93.4733C57.021 93.4733 55.9522 93.0641 55.1524 92.2455C54.3526 91.427 53.9246 90.288 53.8684 88.8287L53.8614 87.9447C53.8614 86.939 54.0392 86.062 54.3946 85.3136C54.7501 84.5606 55.2576 83.9829 55.9171 83.5807C56.5813 83.1737 57.3484 82.9703 58.2184 82.9703C59.4907 82.9703 60.4776 83.2626 61.1792 83.8473C61.8855 84.4273 62.2971 85.2949 62.414 86.4502H60.0426C59.9584 85.8796 59.776 85.4727 59.4953 85.2294C59.2147 84.9862 58.8171 84.8646 58.3026 84.8646C57.6852 84.8646 57.2081 85.1265 56.8713 85.6504C56.5346 86.1743 56.3638 86.9226 56.3591 87.8955V88.513C56.3591 89.5326 56.5322 90.2997 56.8783 90.8142C57.2291 91.3241 57.7787 91.579 58.5271 91.579C59.1679 91.579 59.645 91.4363 59.9584 91.151V89.5654H58.2465V87.8745H62.421V92.0701ZM66.4763 93.333H64.0207V83.1176H66.4763V93.333ZM76.5514 92.0701C76.1726 92.4911 75.6183 92.8302 74.8886 93.0874C74.1589 93.3447 73.3591 93.4733 72.4891 93.4733C71.1514 93.4733 70.0826 93.0641 69.2828 92.2455C68.4829 91.427 68.055 90.288 67.9988 88.8287L67.9918 87.9447C67.9918 86.939 68.1695 86.062 68.525 85.3136C68.8805 84.5606 69.388 83.9829 70.0475 83.5807C70.7117 83.1737 71.4788 82.9703 72.3488 82.9703C73.621 82.9703 74.608 83.2626 75.3096 83.8473C76.0159 84.4273 76.4275 85.2949 76.5444 86.4502H74.173C74.0888 85.8796 73.9064 85.4727 73.6257 85.2294C73.3451 84.9862 72.9475 84.8646 72.433 84.8646C71.8156 84.8646 71.3385 85.1265 71.0017 85.6504C70.6649 86.1743 70.4942 86.9226 70.4895 87.8955V88.513C70.4895 89.5326 70.6626 90.2997 71.0087 90.8142C71.3595 91.3241 71.9091 91.579 72.6575 91.579C73.2983 91.579 73.7754 91.4363 74.0888 91.151V89.5654H72.3769V87.8745H76.5514V92.0701ZM83.785 91.4246H80.4103L79.8209 93.333H77.1899L80.9365 83.1176H83.2518L87.0264 93.333H84.3814L83.785 91.4246ZM80.9996 89.5233H83.1957L82.0941 85.9802L80.9996 89.5233ZM93.0462 90.6178C93.0462 90.2576 92.9176 89.977 92.6603 89.7759C92.4078 89.5747 91.9611 89.3666 91.3203 89.1514C90.6795 88.9363 90.1556 88.7281 89.7487 88.527C88.425 87.8768 87.7631 86.9835 87.7631 85.8469C87.7631 85.2809 87.9268 84.7827 88.2542 84.3524C88.5863 83.9174 89.0541 83.5807 89.6575 83.3421C90.2608 83.0989 90.9391 82.9773 91.6921 82.9773C92.4265 82.9773 93.0837 83.1082 93.6636 83.3702C94.2483 83.6321 94.702 84.0063 95.0248 84.4927C95.3475 84.9745 95.5089 85.5264 95.5089 86.1485H93.0532C93.0532 85.7323 92.9246 85.4095 92.6674 85.1803C92.4148 84.9511 92.071 84.8365 91.636 84.8365C91.1963 84.8365 90.8479 84.9348 90.5906 85.1312C90.338 85.323 90.2117 85.5685 90.2117 85.8679C90.2117 86.1298 90.3521 86.3684 90.6327 86.5835C90.9133 86.794 91.4068 87.0139 92.1131 87.2431C92.8194 87.4676 93.3994 87.7108 93.8531 87.9727C94.9569 88.6088 95.5089 89.4859 95.5089 90.6038C95.5089 91.4971 95.1721 92.1987 94.4986 92.7086C93.825 93.2184 92.9012 93.4733 91.7272 93.4733C90.8993 93.4733 90.1486 93.326 89.475 93.0313C88.8062 92.732 88.301 92.325 87.9596 91.8105C87.6228 91.2913 87.4544 90.695 87.4544 90.0214H89.9241C89.9241 90.5687 90.0644 90.9733 90.345 91.2352C90.6304 91.4925 91.0911 91.6211 91.7272 91.6211C92.1341 91.6211 92.4545 91.5346 92.6884 91.3615C92.927 91.1837 93.0462 90.9358 93.0462 90.6178Z" fill="#222222" fill-opacity="0.8"/>
<path d="M171.971 81.2821H168.173V84.388H172.585V85.333H167.017V76.569H172.525V77.52H168.173V80.337H171.971V81.2821ZM176.034 81.1978L177.479 78.8202H178.779L176.648 82.0405L178.845 85.333H177.557L176.052 82.8952L174.547 85.333H173.253L175.45 82.0405L173.319 78.8202H174.608L176.034 81.1978ZM182.457 84.5445C182.854 84.5445 183.201 84.4241 183.498 84.1833C183.795 83.9426 183.959 83.6416 183.992 83.2804H185.045C185.025 83.6536 184.896 84.0088 184.66 84.3459C184.423 84.6829 184.106 84.9518 183.709 85.1524C183.315 85.3531 182.898 85.4534 182.457 85.4534C181.57 85.4534 180.864 85.1584 180.338 84.5686C179.816 83.9747 179.555 83.1641 179.555 82.1368V81.9502C179.555 81.3162 179.672 80.7524 179.904 80.2588C180.137 79.7652 180.47 79.382 180.904 79.1091C181.341 78.8362 181.857 78.6998 182.451 78.6998C183.181 78.6998 183.787 78.9185 184.268 79.3559C184.754 79.7933 185.013 80.3611 185.045 81.0593H183.992C183.959 80.638 183.799 80.2929 183.51 80.024C183.225 79.7512 182.872 79.6147 182.451 79.6147C181.885 79.6147 181.445 79.8194 181.132 80.2287C180.823 80.634 180.669 81.2219 180.669 81.9923V82.203C180.669 82.9534 180.823 83.5312 181.132 83.9365C181.441 84.3418 181.883 84.5445 182.457 84.5445ZM187.507 85.333H186.393V76.0874H187.507V85.333ZM193.315 84.6889C192.882 85.1986 192.246 85.4534 191.407 85.4534C190.713 85.4534 190.183 85.2528 189.818 84.8515C189.457 84.4462 189.274 83.8483 189.27 83.0577V78.8202H190.384V83.0276C190.384 84.0148 190.785 84.5084 191.588 84.5084C192.439 84.5084 193.004 84.1914 193.285 83.5573V78.8202H194.399V85.333H193.339L193.315 84.6889ZM199.888 83.6055C199.888 83.3045 199.774 83.0718 199.545 82.9073C199.321 82.7387 198.925 82.5942 198.359 82.4739C197.798 82.3535 197.35 82.209 197.017 82.0405C196.688 81.8719 196.443 81.6713 196.283 81.4386C196.126 81.2058 196.048 80.9289 196.048 80.6079C196.048 80.0742 196.273 79.6227 196.722 79.2536C197.176 78.8844 197.754 78.6998 198.456 78.6998C199.194 78.6998 199.792 78.8904 200.25 79.2716C200.711 79.6528 200.942 80.1404 200.942 80.7343H199.822C199.822 80.4293 199.692 80.1665 199.431 79.9458C199.174 79.7251 198.849 79.6147 198.456 79.6147C198.05 79.6147 197.733 79.703 197.505 79.8796C197.276 80.0561 197.162 80.2869 197.162 80.5718C197.162 80.8406 197.268 81.0433 197.481 81.1797C197.693 81.3162 198.077 81.4466 198.63 81.571C199.188 81.6954 199.64 81.8438 199.985 82.0164C200.33 82.189 200.585 82.3976 200.749 82.6424C200.918 82.8832 201.002 83.1781 201.002 83.5272C201.002 84.1091 200.769 84.5766 200.304 84.9297C199.838 85.2788 199.234 85.4534 198.492 85.4534C197.97 85.4534 197.509 85.3611 197.107 85.1765C196.706 84.9919 196.391 84.7351 196.162 84.406C195.938 84.073 195.825 83.7138 195.825 83.3286H196.939C196.959 83.7018 197.107 83.9987 197.384 84.2194C197.665 84.4361 198.034 84.5445 198.492 84.5445C198.913 84.5445 199.25 84.4602 199.503 84.2917C199.76 84.1191 199.888 83.8904 199.888 83.6055ZM203.662 85.333H202.549V78.8202H203.662V85.333ZM202.459 77.0927C202.459 76.9121 202.513 76.7596 202.621 76.6352C202.733 76.5108 202.898 76.4486 203.115 76.4486C203.331 76.4486 203.496 76.5108 203.608 76.6352C203.721 76.7596 203.777 76.9121 203.777 77.0927C203.777 77.2732 203.721 77.4237 203.608 77.5441C203.496 77.6645 203.331 77.7247 203.115 77.7247C202.898 77.7247 202.733 77.6645 202.621 77.5441C202.513 77.4237 202.459 77.2732 202.459 77.0927ZM207.599 83.8222L209.212 78.8202H210.35L208.014 85.333H207.166L204.806 78.8202H205.944L207.599 83.8222ZM211.03 82.0164C211.03 81.3784 211.154 80.8045 211.403 80.2949C211.656 79.7853 212.005 79.392 212.451 79.1151C212.9 78.8382 213.412 78.6998 213.985 78.6998C214.872 78.6998 215.589 79.0068 216.134 79.6207C216.684 80.2347 216.959 81.0513 216.959 82.0706V82.1488C216.959 82.7829 216.837 83.3527 216.592 83.8583C216.351 84.3599 216.004 84.7511 215.55 85.032C215.101 85.3129 214.583 85.4534 213.997 85.4534C213.115 85.4534 212.398 85.1464 211.849 84.5324C211.303 83.9185 211.03 83.1059 211.03 82.0947V82.0164ZM212.15 82.1488C212.15 82.8711 212.316 83.451 212.649 83.8884C212.986 84.3258 213.436 84.5445 213.997 84.5445C214.563 84.5445 215.013 84.3238 215.346 83.8824C215.679 83.4369 215.845 82.815 215.845 82.0164C215.845 81.3021 215.675 80.7243 215.334 80.2829C214.997 79.8374 214.547 79.6147 213.985 79.6147C213.436 79.6147 212.992 79.8334 212.655 80.2708C212.318 80.7082 212.15 81.3342 212.15 82.1488Z" fill="#222222" fill-opacity="0.8"/>
<path d="M172.531 96.1368C172.531 97.14 172.302 97.9446 171.845 98.5505C171.391 99.1524 170.777 99.4534 170.003 99.4534C169.345 99.4534 168.813 99.2247 168.408 98.7672V101.837H166.668V92.8202H168.281L168.341 93.4582C168.763 92.9526 169.313 92.6998 169.991 92.6998C170.793 92.6998 171.417 92.9967 171.863 93.5906C172.308 94.1845 172.531 95.0032 172.531 96.0465V96.1368ZM170.791 96.0104C170.791 95.4044 170.683 94.9369 170.466 94.6079C170.254 94.2788 169.943 94.1143 169.533 94.1143C168.988 94.1143 168.612 94.323 168.408 94.7403V97.4068C168.62 97.8362 169 98.0509 169.545 98.0509C170.376 98.0509 170.791 97.3707 170.791 96.0104ZM177.388 99.333C177.308 99.1765 177.25 98.9819 177.214 98.7491C176.793 99.2186 176.245 99.4534 175.571 99.4534C174.933 99.4534 174.403 99.2688 173.982 98.8996C173.564 98.5304 173.356 98.065 173.356 97.5032C173.356 96.8129 173.61 96.2833 174.12 95.9141C174.634 95.5449 175.374 95.3583 176.341 95.3543H177.142V94.9811C177.142 94.6801 177.063 94.4394 176.907 94.2588C176.754 94.0782 176.512 93.9879 176.179 93.9879C175.886 93.9879 175.655 94.0581 175.486 94.1986C175.322 94.339 175.24 94.5317 175.24 94.7764H173.5C173.5 94.3992 173.616 94.0501 173.849 93.7291C174.082 93.4081 174.411 93.1573 174.836 92.9767C175.262 92.7921 175.739 92.6998 176.269 92.6998C177.071 92.6998 177.707 92.9024 178.177 93.3077C178.65 93.709 178.887 94.2748 178.887 95.0052V97.8282C178.891 98.4462 178.978 98.9137 179.146 99.2307V99.333H177.388ZM175.95 98.1231C176.207 98.1231 176.443 98.067 176.66 97.9546C176.877 97.8382 177.037 97.6837 177.142 97.4911V96.3715H176.492C175.621 96.3715 175.157 96.6725 175.101 97.2744L175.095 97.3768C175.095 97.5934 175.171 97.772 175.324 97.9125C175.476 98.0529 175.685 98.1231 175.95 98.1231ZM183.883 94.4514C183.646 94.4193 183.438 94.4032 183.257 94.4032C182.599 94.4032 182.168 94.626 181.963 95.0714V99.333H180.223V92.8202H181.867L181.915 93.5967C182.264 92.9988 182.748 92.6998 183.366 92.6998C183.558 92.6998 183.739 92.7259 183.907 92.778L183.883 94.4514ZM188.319 99.333C188.239 99.1765 188.181 98.9819 188.145 98.7491C187.723 99.2186 187.176 99.4534 186.502 99.4534C185.864 99.4534 185.334 99.2688 184.912 98.8996C184.495 98.5304 184.286 98.065 184.286 97.5032C184.286 96.8129 184.541 96.2833 185.051 95.9141C185.565 95.5449 186.305 95.3583 187.272 95.3543H188.073V94.9811C188.073 94.6801 187.994 94.4394 187.838 94.2588C187.685 94.0782 187.443 93.9879 187.11 93.9879C186.817 93.9879 186.586 94.0581 186.417 94.1986C186.253 94.339 186.171 94.5317 186.171 94.7764H184.431C184.431 94.3992 184.547 94.0501 184.78 93.7291C185.013 93.4081 185.342 93.1573 185.767 92.9767C186.193 92.7921 186.67 92.6998 187.2 92.6998C188.002 92.6998 188.638 92.9024 189.108 93.3077C189.581 93.709 189.818 94.2748 189.818 95.0052V97.8282C189.822 98.4462 189.908 98.9137 190.077 99.2307V99.333H188.319ZM186.881 98.1231C187.138 98.1231 187.374 98.067 187.591 97.9546C187.808 97.8382 187.968 97.6837 188.073 97.4911V96.3715H187.423C186.552 96.3715 186.088 96.6725 186.032 97.2744L186.026 97.3768C186.026 97.5934 186.102 97.772 186.255 97.9125C186.407 98.0529 186.616 98.1231 186.881 98.1231ZM197.884 94.4514C197.647 94.4193 197.439 94.4032 197.258 94.4032C196.6 94.4032 196.168 94.626 195.964 95.0714V99.333H194.224V92.8202H195.868L195.916 93.5967C196.265 92.9988 196.748 92.6998 197.366 92.6998C197.559 92.6998 197.739 92.7259 197.908 92.778L197.884 94.4514ZM201.604 99.4534C200.649 99.4534 199.87 99.1605 199.268 98.5746C198.67 97.9887 198.372 97.2082 198.372 96.2331V96.0646C198.372 95.4105 198.498 94.8266 198.751 94.313C199.004 93.7953 199.361 93.398 199.822 93.1211C200.288 92.8402 200.817 92.6998 201.411 92.6998C202.302 92.6998 203.002 92.9807 203.512 93.5425C204.026 94.1043 204.282 94.9008 204.282 95.9321V96.6424H200.135C200.191 97.0678 200.36 97.4089 200.641 97.6657C200.926 97.9225 201.285 98.0509 201.718 98.0509C202.388 98.0509 202.912 97.8081 203.289 97.3226L204.144 98.2796C203.883 98.6488 203.53 98.9377 203.085 99.1464C202.639 99.3511 202.146 99.4534 201.604 99.4534ZM201.405 94.1083C201.06 94.1083 200.779 94.2247 200.563 94.4574C200.35 94.6902 200.213 95.0232 200.153 95.4566H202.573V95.3182C202.565 94.9329 202.461 94.636 202.26 94.4273C202.059 94.2146 201.774 94.1083 201.405 94.1083ZM205.005 96.0284C205.005 95.0132 205.231 94.2046 205.685 93.6027C206.142 93.0008 206.766 92.6998 207.557 92.6998C208.191 92.6998 208.715 92.9366 209.128 93.4101V90.0874H210.874V99.333H209.302L209.218 98.6408C208.785 99.1825 208.227 99.4534 207.545 99.4534C206.778 99.4534 206.162 99.1524 205.697 98.5505C205.235 97.9446 205.005 97.1039 205.005 96.0284ZM206.744 96.1548C206.744 96.7648 206.851 97.2323 207.063 97.5573C207.276 97.8824 207.585 98.0449 207.99 98.0449C208.528 98.0449 208.907 97.8182 209.128 97.3647V94.7945C208.911 94.341 208.536 94.1143 208.002 94.1143C207.164 94.1143 206.744 94.7945 206.744 96.1548ZM215.219 99.4534C214.264 99.4534 213.486 99.1605 212.884 98.5746C212.286 97.9887 211.987 97.2082 211.987 96.2331V96.0646C211.987 95.4105 212.113 94.8266 212.366 94.313C212.619 93.7953 212.976 93.398 213.438 93.1211C213.903 92.8402 214.433 92.6998 215.027 92.6998C215.918 92.6998 216.618 92.9807 217.128 93.5425C217.641 94.1043 217.898 94.9008 217.898 95.9321V96.6424H213.751C213.807 97.0678 213.975 97.4089 214.256 97.6657C214.541 97.9225 214.9 98.0509 215.334 98.0509C216.004 98.0509 216.528 97.8081 216.905 97.3226L217.76 98.2796C217.499 98.6488 217.146 98.9377 216.7 99.1464C216.255 99.3511 215.761 99.4534 215.219 99.4534ZM215.021 94.1083C214.676 94.1083 214.395 94.2247 214.178 94.4574C213.965 94.6902 213.829 95.0232 213.769 95.4566H216.188V95.3182C216.18 94.9329 216.076 94.636 215.875 94.4273C215.675 94.2146 215.39 94.1083 215.021 94.1083ZM222.418 97.5333C222.418 97.3206 222.312 97.154 222.099 97.0337C221.891 96.9093 221.554 96.7989 221.088 96.7026C219.539 96.3776 218.765 95.7195 218.765 94.7283C218.765 94.1504 219.004 93.6689 219.481 93.2837C219.963 92.8944 220.591 92.6998 221.365 92.6998C222.192 92.6998 222.852 92.8944 223.345 93.2837C223.843 93.6729 224.092 94.1785 224.092 94.8005H222.352C222.352 94.5517 222.272 94.3471 222.111 94.1865C221.951 94.022 221.7 93.9398 221.359 93.9398C221.066 93.9398 220.839 94.006 220.679 94.1384C220.518 94.2708 220.438 94.4394 220.438 94.644C220.438 94.8366 220.528 94.9931 220.709 95.1135C220.894 95.2299 221.203 95.3322 221.636 95.4205C222.069 95.5048 222.434 95.6011 222.731 95.7094C223.65 96.0465 224.11 96.6304 224.11 97.461C224.11 98.0549 223.855 98.5365 223.345 98.9056C222.836 99.2708 222.178 99.4534 221.371 99.4534C220.825 99.4534 220.34 99.3571 219.914 99.1645C219.493 98.9678 219.162 98.701 218.921 98.3639C218.68 98.0228 218.56 97.6556 218.56 97.2624H220.209C220.225 97.5714 220.34 97.8081 220.552 97.9727C220.765 98.1372 221.05 98.2194 221.407 98.2194C221.74 98.2194 221.991 98.1572 222.16 98.0329C222.332 97.9044 222.418 97.7379 222.418 97.5333Z" fill="#EE392A"/>
<rect width="208" height="28" transform="translate(30 111)" fill="white"/>
<path d="M35.7373 124.205H38.1297V126.232H35.7373V128.976H33.5272V126.232H31.1277V124.205H33.5272V121.539H35.7373V124.205ZM47.9312 130H45.5598V122.451L43.2304 123.131V121.335L47.7137 119.785H47.9312V130ZM51.1516 125.005L51.776 119.785H57.7467V121.623H53.6984L53.4669 123.65C53.6353 123.552 53.8551 123.466 54.1264 123.391C54.4024 123.316 54.6713 123.279 54.9332 123.279C55.9482 123.279 56.727 123.58 57.2696 124.184C57.8169 124.782 58.0905 125.624 58.0905 126.709C58.0905 127.364 57.9431 127.958 57.6485 128.492C57.3585 129.02 56.9492 129.427 56.4207 129.712C55.8921 129.998 55.2677 130.14 54.5474 130.14C53.9066 130.14 53.3055 130.009 52.7442 129.747C52.1829 129.481 51.7433 129.118 51.4252 128.66C51.1071 128.197 50.9505 127.675 50.9551 127.095H53.3266C53.35 127.47 53.4692 127.767 53.6844 127.986C53.8995 128.206 54.1825 128.316 54.5333 128.316C55.3285 128.316 55.7261 127.727 55.7261 126.548C55.7261 125.458 55.2396 124.913 54.2667 124.913C53.7148 124.913 53.3032 125.091 53.0319 125.447L51.1516 125.005ZM71.421 128.737C71.0422 129.158 70.4879 129.497 69.7582 129.754C69.0286 130.012 68.2287 130.14 67.3587 130.14C66.021 130.14 64.9522 129.731 64.1524 128.913C63.3525 128.094 62.9246 126.955 62.8684 125.496L62.8614 124.612C62.8614 123.606 63.0392 122.729 63.3946 121.981C63.7501 121.228 64.2576 120.65 64.9171 120.248C65.5813 119.841 66.3484 119.637 67.2184 119.637C68.4907 119.637 69.4776 119.93 70.1792 120.514C70.8855 121.094 71.2971 121.962 71.414 123.117H69.0426C68.9584 122.547 68.776 122.14 68.4953 121.896C68.2147 121.653 67.8171 121.532 67.3026 121.532C66.6852 121.532 66.2081 121.794 65.8713 122.317C65.5345 122.841 65.3638 123.59 65.3591 124.563V125.18C65.3591 126.2 65.5322 126.967 65.8783 127.481C66.2291 127.991 66.7787 128.246 67.5271 128.246C68.1679 128.246 68.645 128.103 68.9584 127.818V126.232H67.2465V124.541H71.421V128.737ZM75.4763 130H73.0207V119.785H75.4763V130ZM85.5514 128.737C85.1726 129.158 84.6183 129.497 83.8886 129.754C83.1589 130.012 82.3591 130.14 81.4891 130.14C80.1514 130.14 79.0826 129.731 78.2828 128.913C77.4829 128.094 77.0549 126.955 76.9988 125.496L76.9918 124.612C76.9918 123.606 77.1695 122.729 77.525 121.981C77.8805 121.228 78.388 120.65 79.0475 120.248C79.7117 119.841 80.4788 119.637 81.3488 119.637C82.621 119.637 83.608 119.93 84.3096 120.514C85.0159 121.094 85.4275 121.962 85.5444 123.117H83.173C83.0888 122.547 82.9064 122.14 82.6257 121.896C82.3451 121.653 81.9475 121.532 81.433 121.532C80.8156 121.532 80.3385 121.794 80.0017 122.317C79.6649 122.841 79.4942 123.59 79.4895 124.563V125.18C79.4895 126.2 79.6626 126.967 80.0087 127.481C80.3595 127.991 80.9091 128.246 81.6575 128.246C82.2983 128.246 82.7754 128.103 83.0888 127.818V126.232H81.3769V124.541H85.5514V128.737ZM92.785 128.092H89.4103L88.8209 130H86.1899L89.9365 119.785H92.2518L96.0264 130H93.3814L92.785 128.092ZM89.9996 126.19H92.1956L91.0941 122.647L89.9996 126.19ZM102.046 127.285C102.046 126.925 101.918 126.644 101.66 126.443C101.408 126.242 100.961 126.034 100.32 125.818C99.6795 125.603 99.1556 125.395 98.7487 125.194C97.425 124.544 96.7631 123.65 96.7631 122.514C96.7631 121.948 96.9268 121.45 97.2542 121.019C97.5863 120.584 98.0541 120.248 98.6575 120.009C99.2608 119.766 99.9391 119.644 100.692 119.644C101.426 119.644 102.084 119.775 102.664 120.037C103.248 120.299 103.702 120.673 104.025 121.16C104.347 121.642 104.509 122.193 104.509 122.816H102.053C102.053 122.399 101.925 122.077 101.667 121.847C101.415 121.618 101.071 121.504 100.636 121.504C100.196 121.504 99.8479 121.602 99.5906 121.798C99.338 121.99 99.2117 122.236 99.2117 122.535C99.2117 122.797 99.352 123.035 99.6327 123.251C99.9133 123.461 100.407 123.681 101.113 123.91C101.819 124.135 102.399 124.378 102.853 124.64C103.957 125.276 104.509 126.153 104.509 127.271C104.509 128.164 104.172 128.866 103.499 129.376C102.825 129.885 101.901 130.14 100.727 130.14C99.8993 130.14 99.1486 129.993 98.475 129.698C97.8062 129.399 97.301 128.992 96.9596 128.478C96.6228 127.958 96.4544 127.362 96.4544 126.688H98.9241C98.9241 127.236 99.0644 127.64 99.345 127.902C99.6304 128.159 100.091 128.288 100.727 128.288C101.134 128.288 101.455 128.202 101.688 128.028C101.927 127.851 102.046 127.603 102.046 127.285Z" fill="#222222" fill-opacity="0.8"/>
<path d="M167.017 122V113.236H169.491C170.254 113.236 170.928 113.405 171.514 113.742C172.1 114.079 172.551 114.558 172.868 115.18C173.189 115.802 173.352 116.516 173.356 117.323V117.883C173.356 118.709 173.195 119.434 172.874 120.056C172.557 120.678 172.102 121.155 171.508 121.488C170.918 121.821 170.23 121.992 169.443 122H167.017ZM168.173 114.187V121.055H169.389C170.28 121.055 170.972 120.778 171.465 120.224C171.963 119.671 172.212 118.882 172.212 117.859V117.347C172.212 116.352 171.977 115.579 171.508 115.03C171.042 114.476 170.38 114.195 169.521 114.187H168.173ZM177.635 122.12C176.752 122.12 176.034 121.831 175.48 121.254C174.927 120.672 174.65 119.895 174.65 118.924V118.72C174.65 118.073 174.772 117.498 175.017 116.992C175.266 116.482 175.611 116.085 176.052 115.8C176.498 115.511 176.979 115.367 177.497 115.367C178.343 115.367 179.002 115.646 179.471 116.203C179.941 116.761 180.175 117.56 180.175 118.599V119.063H175.763C175.779 119.705 175.966 120.224 176.323 120.622C176.684 121.015 177.142 121.211 177.695 121.211C178.089 121.211 178.422 121.131 178.695 120.971C178.967 120.81 179.206 120.598 179.411 120.333L180.091 120.862C179.545 121.701 178.727 122.12 177.635 122.12ZM177.497 116.282C177.047 116.282 176.67 116.446 176.365 116.775C176.06 117.1 175.872 117.558 175.799 118.148H179.062V118.063C179.03 117.498 178.877 117.06 178.604 116.751C178.331 116.438 177.962 116.282 177.497 116.282ZM187.675 116.486C187.507 116.458 187.324 116.444 187.128 116.444C186.397 116.444 185.902 116.755 185.641 117.377V122H184.527V115.487H185.611L185.629 116.24C185.994 115.658 186.512 115.367 187.182 115.367C187.398 115.367 187.563 115.395 187.675 115.451V116.486ZM191.287 122.12C190.404 122.12 189.686 121.831 189.132 121.254C188.578 120.672 188.301 119.895 188.301 118.924V118.72C188.301 118.073 188.424 117.498 188.668 116.992C188.917 116.482 189.262 116.085 189.704 115.8C190.149 115.511 190.631 115.367 191.148 115.367C191.995 115.367 192.653 115.646 193.123 116.203C193.592 116.761 193.827 117.56 193.827 118.599V119.063H189.415C189.431 119.705 189.618 120.224 189.975 120.622C190.336 121.015 190.793 121.211 191.347 121.211C191.74 121.211 192.073 121.131 192.346 120.971C192.619 120.81 192.858 120.598 193.063 120.333L193.743 120.862C193.197 121.701 192.378 122.12 191.287 122.12ZM191.148 116.282C190.699 116.282 190.322 116.446 190.017 116.775C189.712 117.1 189.523 117.558 189.451 118.148H192.713V118.063C192.681 117.498 192.529 117.06 192.256 116.751C191.983 116.438 191.614 116.282 191.148 116.282ZM194.856 118.689C194.856 117.674 195.091 116.868 195.561 116.27C196.03 115.668 196.652 115.367 197.426 115.367C198.221 115.367 198.841 115.648 199.286 116.209L199.341 115.487H200.358V121.843C200.358 122.686 200.107 123.35 199.605 123.836C199.108 124.321 198.438 124.564 197.595 124.564C197.126 124.564 196.666 124.464 196.217 124.263C195.767 124.063 195.424 123.788 195.187 123.439L195.765 122.77C196.243 123.36 196.827 123.655 197.517 123.655C198.059 123.655 198.48 123.503 198.781 123.198C199.086 122.893 199.238 122.463 199.238 121.91V121.35C198.793 121.864 198.185 122.12 197.414 122.12C196.652 122.12 196.034 121.813 195.561 121.199C195.091 120.585 194.856 119.749 194.856 118.689ZM195.976 118.816C195.976 119.55 196.126 120.128 196.427 120.549C196.728 120.967 197.15 121.175 197.691 121.175C198.394 121.175 198.909 120.856 199.238 120.218V117.245C198.897 116.623 198.386 116.312 197.703 116.312C197.162 116.312 196.738 116.522 196.433 116.944C196.128 117.365 195.976 117.989 195.976 118.816ZM206.064 122C206 121.872 205.948 121.643 205.908 121.314C205.39 121.852 204.772 122.12 204.054 122.12C203.412 122.12 202.884 121.94 202.471 121.579C202.061 121.213 201.857 120.752 201.857 120.194C201.857 119.516 202.113 118.99 202.627 118.617C203.145 118.24 203.871 118.051 204.806 118.051H205.89V117.54C205.89 117.15 205.773 116.842 205.54 116.613C205.308 116.38 204.965 116.264 204.511 116.264C204.114 116.264 203.781 116.364 203.512 116.565C203.243 116.765 203.109 117.008 203.109 117.293H201.989C201.989 116.968 202.103 116.655 202.332 116.354C202.565 116.049 202.878 115.808 203.271 115.632C203.668 115.455 204.104 115.367 204.577 115.367C205.328 115.367 205.916 115.555 206.341 115.933C206.766 116.306 206.987 116.821 207.003 117.48V120.477C207.003 121.075 207.079 121.551 207.232 121.904V122H206.064ZM204.216 121.151C204.565 121.151 204.896 121.061 205.209 120.88C205.522 120.7 205.749 120.465 205.89 120.176V118.84H205.017C203.652 118.84 202.97 119.239 202.97 120.038C202.97 120.387 203.087 120.66 203.319 120.856C203.552 121.053 203.851 121.151 204.216 121.151ZM209.959 122H208.845V112.754H209.959V122ZM211.451 118.683C211.451 118.045 211.576 117.472 211.825 116.962C212.077 116.452 212.426 116.059 212.872 115.782C213.321 115.505 213.833 115.367 214.407 115.367C215.294 115.367 216.01 115.674 216.556 116.288C217.105 116.902 217.38 117.718 217.38 118.738V118.816C217.38 119.45 217.258 120.02 217.013 120.525C216.772 121.027 216.425 121.418 215.972 121.699C215.522 121.98 215.005 122.12 214.419 122.12C213.536 122.12 212.82 121.813 212.27 121.199C211.724 120.585 211.451 119.773 211.451 118.762V118.683ZM212.571 118.816C212.571 119.538 212.737 120.118 213.071 120.555C213.408 120.993 213.857 121.211 214.419 121.211C214.985 121.211 215.434 120.991 215.767 120.549C216.1 120.104 216.267 119.482 216.267 118.683C216.267 117.969 216.096 117.391 215.755 116.95C215.418 116.504 214.969 116.282 214.407 116.282C213.857 116.282 213.414 116.5 213.077 116.938C212.739 117.375 212.571 118.001 212.571 118.816Z" fill="#222222" fill-opacity="0.8"/>
<path d="M172.531 132.804C172.531 133.807 172.302 134.612 171.845 135.217C171.391 135.819 170.777 136.12 170.003 136.12C169.345 136.12 168.813 135.892 168.408 135.434V138.504H166.668V129.487H168.281L168.341 130.125C168.763 129.62 169.313 129.367 169.991 129.367C170.793 129.367 171.417 129.664 171.863 130.258C172.308 130.852 172.531 131.67 172.531 132.713V132.804ZM170.791 132.677C170.791 132.071 170.683 131.604 170.466 131.275C170.254 130.946 169.943 130.781 169.533 130.781C168.988 130.781 168.612 130.99 168.408 131.407V134.074C168.62 134.503 169 134.718 169.545 134.718C170.376 134.718 170.791 134.038 170.791 132.677ZM173.343 132.683C173.343 132.037 173.468 131.461 173.717 130.956C173.965 130.45 174.323 130.059 174.788 129.782C175.258 129.505 175.801 129.367 176.419 129.367C177.298 129.367 178.014 129.636 178.568 130.173C179.126 130.711 179.437 131.441 179.501 132.364L179.513 132.81C179.513 133.809 179.234 134.612 178.677 135.217C178.119 135.819 177.37 136.12 176.431 136.12C175.492 136.12 174.742 135.819 174.18 135.217C173.622 134.616 173.343 133.797 173.343 132.762V132.683ZM175.083 132.81C175.083 133.428 175.199 133.901 175.432 134.23C175.665 134.555 175.998 134.718 176.431 134.718C176.853 134.718 177.182 134.557 177.419 134.236C177.655 133.911 177.774 133.394 177.774 132.683C177.774 132.077 177.655 131.608 177.419 131.275C177.182 130.942 176.849 130.775 176.419 130.775C175.994 130.775 175.665 130.942 175.432 131.275C175.199 131.604 175.083 132.116 175.083 132.81ZM184.244 131.118C184.008 131.086 183.799 131.07 183.618 131.07C182.96 131.07 182.529 131.293 182.324 131.738V136H180.585V129.487H182.228L182.276 130.264C182.625 129.666 183.109 129.367 183.727 129.367C183.919 129.367 184.1 129.393 184.268 129.445L184.244 131.118ZM189.854 130.848H190.781C191.223 130.848 191.55 130.737 191.762 130.516C191.975 130.296 192.081 130.003 192.081 129.638C192.081 129.285 191.975 129.01 191.762 128.813C191.554 128.616 191.265 128.518 190.896 128.518C190.563 128.518 190.284 128.61 190.059 128.795C189.834 128.976 189.722 129.212 189.722 129.505H187.982C187.982 129.048 188.105 128.638 188.349 128.277C188.598 127.912 188.943 127.627 189.385 127.423C189.83 127.218 190.32 127.116 190.853 127.116C191.78 127.116 192.507 127.338 193.032 127.784C193.558 128.225 193.821 128.835 193.821 129.614C193.821 130.015 193.699 130.384 193.454 130.721C193.209 131.058 192.888 131.317 192.491 131.498C192.984 131.674 193.351 131.939 193.592 132.292C193.837 132.645 193.959 133.063 193.959 133.544C193.959 134.323 193.675 134.947 193.105 135.416C192.539 135.886 191.788 136.12 190.853 136.12C189.979 136.12 189.262 135.89 188.705 135.428C188.151 134.967 187.874 134.357 187.874 133.598H189.614C189.614 133.927 189.736 134.196 189.981 134.405C190.229 134.614 190.534 134.718 190.896 134.718C191.309 134.718 191.632 134.61 191.865 134.393C192.101 134.172 192.22 133.881 192.22 133.52C192.22 132.645 191.738 132.208 190.775 132.208H189.854V130.848ZM199.937 129.487L199.991 130.216C200.452 129.65 201.076 129.367 201.863 129.367C202.701 129.367 203.277 129.698 203.59 130.36C204.048 129.698 204.7 129.367 205.546 129.367C206.253 129.367 206.778 129.573 207.124 129.987C207.469 130.396 207.641 131.014 207.641 131.841V136H205.896V131.847C205.896 131.478 205.823 131.209 205.679 131.04C205.534 130.868 205.28 130.781 204.914 130.781C204.393 130.781 204.032 131.03 203.831 131.528L203.837 136H202.097V131.853C202.097 131.476 202.023 131.203 201.875 131.034C201.726 130.866 201.473 130.781 201.116 130.781C200.623 130.781 200.266 130.986 200.045 131.395V136H198.305V129.487H199.937ZM211.981 136.12C211.026 136.12 210.248 135.827 209.646 135.242C209.048 134.656 208.749 133.875 208.749 132.9V132.732C208.749 132.077 208.875 131.494 209.128 130.98C209.381 130.462 209.738 130.065 210.199 129.788C210.665 129.507 211.195 129.367 211.788 129.367C212.679 129.367 213.38 129.648 213.889 130.209C214.403 130.771 214.66 131.568 214.66 132.599V133.309H210.512C210.569 133.735 210.737 134.076 211.018 134.333C211.303 134.589 211.662 134.718 212.095 134.718C212.766 134.718 213.289 134.475 213.666 133.99L214.521 134.947C214.26 135.316 213.907 135.605 213.462 135.813C213.016 136.018 212.523 136.12 211.981 136.12ZM211.782 130.775C211.437 130.775 211.156 130.892 210.94 131.124C210.727 131.357 210.591 131.69 210.53 132.124H212.95V131.985C212.942 131.6 212.838 131.303 212.637 131.094C212.437 130.882 212.152 130.775 211.782 130.775ZM219.18 134.2C219.18 133.988 219.074 133.821 218.861 133.701C218.652 133.576 218.315 133.466 217.85 133.37C216.301 133.045 215.526 132.386 215.526 131.395C215.526 130.817 215.765 130.336 216.243 129.951C216.724 129.561 217.352 129.367 218.127 129.367C218.953 129.367 219.613 129.561 220.107 129.951C220.605 130.34 220.853 130.846 220.853 131.468H219.114C219.114 131.219 219.034 131.014 218.873 130.854C218.713 130.689 218.462 130.607 218.121 130.607C217.828 130.607 217.601 130.673 217.441 130.805C217.28 130.938 217.2 131.106 217.2 131.311C217.2 131.504 217.29 131.66 217.471 131.781C217.655 131.897 217.964 131.999 218.398 132.087C218.831 132.172 219.196 132.268 219.493 132.376C220.412 132.713 220.871 133.297 220.871 134.128C220.871 134.722 220.617 135.203 220.107 135.573C219.597 135.938 218.939 136.12 218.133 136.12C217.587 136.12 217.101 136.024 216.676 135.831C216.255 135.635 215.924 135.368 215.683 135.031C215.442 134.69 215.322 134.323 215.322 133.929H216.971C216.987 134.238 217.101 134.475 217.314 134.64C217.527 134.804 217.812 134.886 218.169 134.886C218.502 134.886 218.753 134.824 218.921 134.7C219.094 134.571 219.18 134.405 219.18 134.2ZM224.995 136.12C224.04 136.12 223.261 135.827 222.659 135.242C222.061 134.656 221.762 133.875 221.762 132.9V132.732C221.762 132.077 221.889 131.494 222.142 130.98C222.394 130.462 222.751 130.065 223.213 129.788C223.678 129.507 224.208 129.367 224.802 129.367C225.693 129.367 226.393 129.648 226.903 130.209C227.416 130.771 227.673 131.568 227.673 132.599V133.309H223.526C223.582 133.735 223.751 134.076 224.032 134.333C224.316 134.589 224.676 134.718 225.109 134.718C225.779 134.718 226.303 134.475 226.68 133.99L227.535 134.947C227.274 135.316 226.921 135.605 226.475 135.813C226.03 136.018 225.536 136.12 224.995 136.12ZM224.796 130.775C224.451 130.775 224.17 130.892 223.953 131.124C223.741 131.357 223.604 131.69 223.544 132.124H225.964V131.985C225.956 131.6 225.851 131.303 225.651 131.094C225.45 130.882 225.165 130.775 224.796 130.775ZM232.194 134.2C232.194 133.988 232.087 133.821 231.875 133.701C231.666 133.576 231.329 133.466 230.863 133.37C229.314 133.045 228.54 132.386 228.54 131.395C228.54 130.817 228.779 130.336 229.256 129.951C229.738 129.561 230.366 129.367 231.14 129.367C231.967 129.367 232.627 129.561 233.121 129.951C233.618 130.34 233.867 130.846 233.867 131.468H232.127C232.127 131.219 232.047 131.014 231.887 130.854C231.726 130.689 231.475 130.607 231.134 130.607C230.841 130.607 230.615 130.673 230.454 130.805C230.294 130.938 230.213 131.106 230.213 131.311C230.213 131.504 230.304 131.66 230.484 131.781C230.669 131.897 230.978 131.999 231.411 132.087C231.845 132.172 232.21 132.268 232.507 132.376C233.426 132.713 233.885 133.297 233.885 134.128C233.885 134.722 233.63 135.203 233.121 135.573C232.611 135.938 231.953 136.12 231.146 136.12C230.601 136.12 230.115 136.024 229.69 135.831C229.268 135.635 228.937 135.368 228.697 135.031C228.456 134.69 228.335 134.323 228.335 133.929H229.985C230.001 134.238 230.115 134.475 230.328 134.64C230.54 134.804 230.825 134.886 231.182 134.886C231.516 134.886 231.766 134.824 231.935 134.7C232.107 134.571 232.194 134.405 232.194 134.2Z" fill="#EE3A2B"/>
<rect x="0.5" y="0.5" width="275" height="148" rx="9.5" stroke="#EF3829"/>
</svg>
