<svg width="276" height="113" viewBox="0 0 276 113" fill="none" xmlns="http://www.w3.org/2000/svg">
<rect x="0.5" y="0.5" width="275" height="112" rx="9.5" fill="white"/>
<rect width="205" height="60" transform="translate(31.5 6)" fill="white"/>
<path d="M38.1101 57H35.7387V49.4507L33.4094 50.1313V48.3351L37.8926 46.7846H38.1101V57ZM43.3511 50.903H44.4667C45.3507 50.903 45.7927 50.4704 45.7927 49.6051C45.7927 49.2683 45.6875 48.9947 45.477 48.7842C45.2665 48.569 44.9695 48.4614 44.586 48.4614C44.2726 48.4614 43.999 48.5526 43.7651 48.7351C43.5359 48.9175 43.4213 49.1443 43.4213 49.4156H41.0569C41.0569 48.8777 41.2066 48.3983 41.5059 47.9773C41.8053 47.5564 42.2192 47.2289 42.7478 46.9951C43.281 46.7565 43.8657 46.6372 44.5018 46.6372C45.6384 46.6372 46.5318 46.8968 47.1819 47.416C47.8321 47.9352 48.1572 48.6485 48.1572 49.5559C48.1572 49.9956 48.0215 50.4119 47.7502 50.8048C47.4836 51.193 47.0931 51.5087 46.5785 51.752C47.1211 51.9484 47.5468 52.2478 47.8555 52.65C48.1642 53.0476 48.3185 53.5411 48.3185 54.1304C48.3185 55.0425 47.9677 55.7722 47.2661 56.3194C46.5645 56.8667 45.6431 57.1403 44.5018 57.1403C43.8329 57.1403 43.2108 57.014 42.6355 56.7615C42.0649 56.5042 41.6322 56.1511 41.3375 55.702C41.0429 55.2483 40.8955 54.7338 40.8955 54.1585H43.274C43.274 54.4719 43.4003 54.7432 43.6528 54.9724C43.9054 55.2015 44.2165 55.3161 44.586 55.3161C45.0023 55.3161 45.3344 55.2015 45.5823 54.9724C45.8302 54.7385 45.9541 54.4415 45.9541 54.0813C45.9541 53.5668 45.8255 53.202 45.5682 52.9868C45.311 52.7716 44.9555 52.6641 44.5018 52.6641H43.3511V50.903ZM49.6516 52.0046L50.276 46.7846H56.2467V48.6228H52.1984L51.9669 50.6504C52.1353 50.5522 52.3551 50.4657 52.6264 50.3909C52.9024 50.316 53.1713 50.2786 53.4333 50.2786C54.4482 50.2786 55.227 50.5803 55.7696 51.1837C56.3169 51.7824 56.5905 52.6243 56.5905 53.7095C56.5905 54.3643 56.4431 54.9583 56.1485 55.4915C55.8585 56.0201 55.4492 56.427 54.9207 56.7123C54.3921 56.9977 53.7677 57.1403 53.0474 57.1403C52.4066 57.1403 51.8055 57.0094 51.2442 56.7474C50.6829 56.4808 50.2433 56.1183 49.9252 55.6599C49.6071 55.1969 49.4505 54.6753 49.4551 54.0953H51.8266C51.85 54.4695 51.9692 54.7665 52.1844 54.9864C52.3995 55.2062 52.6825 55.3161 53.0333 55.3161C53.8285 55.3161 54.2261 54.7268 54.2261 53.5481C54.2261 52.4583 53.7396 51.9133 52.7667 51.9133C52.2148 51.9133 51.8032 52.0911 51.5319 52.4466L49.6516 52.0046ZM69.921 55.7371C69.5422 56.1581 68.9879 56.4972 68.2582 56.7544C67.5286 57.0117 66.7287 57.1403 65.8587 57.1403C64.521 57.1403 63.4522 56.7311 62.6524 55.9125C61.8525 55.094 61.4246 53.955 61.3684 52.4957L61.3614 51.6117C61.3614 50.606 61.5392 49.729 61.8946 48.9806C62.2501 48.2276 62.7576 47.6499 63.4171 47.2476C64.0813 46.8407 64.8484 46.6372 65.7184 46.6372C66.9907 46.6372 67.9776 46.9296 68.6792 47.5143C69.3855 48.0943 69.7971 48.9619 69.914 50.1172H67.5426C67.4584 49.5466 67.276 49.1397 66.9953 48.8964C66.7147 48.6532 66.3171 48.5316 65.8026 48.5316C65.1852 48.5316 64.7081 48.7935 64.3713 49.3174C64.0345 49.8413 63.8638 50.5896 63.8591 51.5625V52.18C63.8591 53.1996 64.0322 53.9667 64.3783 54.4812C64.7291 54.9911 65.2787 55.246 66.0271 55.246C66.6679 55.246 67.145 55.1033 67.4584 54.818V53.2324H65.7465V51.5415H69.921V55.7371ZM73.9763 57H71.5207V46.7846H73.9763V57ZM84.0514 55.7371C83.6726 56.1581 83.1183 56.4972 82.3886 56.7544C81.6589 57.0117 80.8591 57.1403 79.9891 57.1403C78.6514 57.1403 77.5826 56.7311 76.7828 55.9125C75.9829 55.094 75.555 53.955 75.4988 52.4957L75.4918 51.6117C75.4918 50.606 75.6695 49.729 76.025 48.9806C76.3805 48.2276 76.888 47.6499 77.5475 47.2476C78.2117 46.8407 78.9788 46.6372 79.8488 46.6372C81.121 46.6372 82.108 46.9296 82.8096 47.5143C83.5159 48.0943 83.9275 48.9619 84.0444 50.1172H81.673C81.5888 49.5466 81.4064 49.1397 81.1257 48.8964C80.8451 48.6532 80.4475 48.5316 79.933 48.5316C79.3156 48.5316 78.8385 48.7935 78.5017 49.3174C78.1649 49.8413 77.9942 50.5896 77.9895 51.5625V52.18C77.9895 53.1996 78.1626 53.9667 78.5087 54.4812C78.8595 54.9911 79.4091 55.246 80.1575 55.246C80.7983 55.246 81.2754 55.1033 81.5888 54.818V53.2324H79.8769V51.5415H84.0514V55.7371ZM91.285 55.0916H87.9103L87.3209 57H84.6899L88.4365 46.7846H90.7518L94.5264 57H91.8814L91.285 55.0916ZM88.4996 53.1903H90.6957L89.5941 49.6471L88.4996 53.1903ZM100.546 54.2848C100.546 53.9246 100.418 53.644 100.16 53.4428C99.9078 53.2417 99.4611 53.0336 98.8203 52.8184C98.1795 52.6033 97.6556 52.3951 97.2487 52.194C95.925 51.5438 95.2631 50.6504 95.2631 49.5138C95.2631 48.9479 95.4268 48.4497 95.7542 48.0194C96.0863 47.5844 96.5541 47.2476 97.1575 47.0091C97.7608 46.7659 98.4391 46.6443 99.1921 46.6443C99.9265 46.6443 100.584 46.7752 101.164 47.0372C101.748 47.2991 102.202 47.6733 102.525 48.1597C102.848 48.6415 103.009 49.1934 103.009 49.8155H100.553C100.553 49.3992 100.425 49.0765 100.167 48.8473C99.9148 48.6181 99.571 48.5035 99.136 48.5035C98.6963 48.5035 98.3479 48.6018 98.0906 48.7982C97.838 48.99 97.7117 49.2355 97.7117 49.5349C97.7117 49.7968 97.8521 50.0354 98.1327 50.2505C98.4133 50.461 98.9068 50.6809 99.6131 50.91C100.319 51.1346 100.899 51.3778 101.353 51.6397C102.457 52.2758 103.009 53.1528 103.009 54.2707C103.009 55.1641 102.672 55.8657 101.999 56.3756C101.325 56.8854 100.401 57.1403 99.2272 57.1403C98.3993 57.1403 97.6486 56.993 96.975 56.6983C96.3062 56.399 95.801 55.992 95.4596 55.4775C95.1228 54.9583 94.9544 54.362 94.9544 53.6884H97.4241C97.4241 54.2357 97.5644 54.6403 97.845 54.9022C98.1304 55.1594 98.5911 55.2881 99.2272 55.2881C99.6341 55.2881 99.9545 55.2015 100.188 55.0285C100.427 54.8507 100.546 54.6028 100.546 54.2848Z" fill="#222222" fill-opacity="0.8"/>
<path d="M166.673 45.569V49H165.517V40.236H168.75C169.709 40.236 170.459 40.4808 171.001 40.9703C171.547 41.4599 171.819 42.108 171.819 42.9145C171.819 43.7653 171.553 44.4214 171.019 44.8828C170.489 45.3403 169.729 45.569 168.738 45.569H166.673ZM166.673 44.624H168.75C169.368 44.624 169.841 44.4795 170.17 44.1906C170.499 43.8977 170.664 43.4763 170.664 42.9266C170.664 42.4049 170.499 41.9876 170.17 41.6746C169.841 41.3616 169.39 41.1991 168.816 41.187H166.673V44.624ZM177.068 49C177.004 48.8716 176.952 48.6429 176.912 48.3138C176.394 48.8515 175.776 49.1204 175.058 49.1204C174.416 49.1204 173.888 48.9398 173.475 48.5787C173.065 48.2135 172.861 47.752 172.861 47.1942C172.861 46.5161 173.118 45.9904 173.631 45.6172C174.149 45.24 174.875 45.0514 175.81 45.0514H176.894V44.5397C176.894 44.1505 176.777 43.8415 176.545 43.6128C176.312 43.38 175.969 43.2637 175.515 43.2637C175.118 43.2637 174.785 43.364 174.516 43.5646C174.247 43.7653 174.113 44.008 174.113 44.2929H172.993C172.993 43.9679 173.108 43.6549 173.336 43.3539C173.569 43.049 173.882 42.8082 174.275 42.6316C174.673 42.4551 175.108 42.3668 175.581 42.3668C176.332 42.3668 176.92 42.5554 177.345 42.9326C177.77 43.3058 177.991 43.8214 178.007 44.4795V47.4771C178.007 48.075 178.083 48.5506 178.236 48.9037V49H177.068ZM175.22 48.1513C175.569 48.1513 175.9 48.061 176.213 47.8804C176.526 47.6998 176.753 47.4651 176.894 47.1762V45.8399H176.021C174.656 45.8399 173.974 46.2392 173.974 47.0377C173.974 47.3868 174.091 47.6597 174.323 47.8563C174.556 48.053 174.855 48.1513 175.22 48.1513ZM182.901 43.4864C182.732 43.4583 182.55 43.4442 182.353 43.4442C181.623 43.4442 181.127 43.7552 180.866 44.3772V49H179.753V42.4872H180.836L180.854 43.2396C181.219 42.6577 181.737 42.3668 182.407 42.3668C182.624 42.3668 182.788 42.3949 182.901 42.4511V43.4864ZM187.71 49C187.646 48.8716 187.594 48.6429 187.554 48.3138C187.036 48.8515 186.418 49.1204 185.7 49.1204C185.058 49.1204 184.53 48.9398 184.117 48.5787C183.707 48.2135 183.503 47.752 183.503 47.1942C183.503 46.5161 183.76 45.9904 184.273 45.6172C184.791 45.24 185.517 45.0514 186.452 45.0514H187.536V44.5397C187.536 44.1505 187.419 43.8415 187.187 43.6128C186.954 43.38 186.611 43.2637 186.157 43.2637C185.76 43.2637 185.427 43.364 185.158 43.5646C184.889 43.7653 184.755 44.008 184.755 44.2929H183.635C183.635 43.9679 183.75 43.6549 183.978 43.3539C184.211 43.049 184.524 42.8082 184.917 42.6316C185.315 42.4551 185.75 42.3668 186.223 42.3668C186.974 42.3668 187.562 42.5554 187.987 42.9326C188.412 43.3058 188.633 43.8214 188.649 44.4795V47.4771C188.649 48.075 188.725 48.5506 188.878 48.9037V49H187.71ZM185.862 48.1513C186.211 48.1513 186.542 48.061 186.855 47.8804C187.168 47.6998 187.395 47.4651 187.536 47.1762V45.8399H186.663C185.299 45.8399 184.616 46.2392 184.616 47.0377C184.616 47.3868 184.733 47.6597 184.965 47.8563C185.198 48.053 185.497 48.1513 185.862 48.1513Z" fill="#222222" fill-opacity="0.8"/>
<path d="M166.769 56.4872L166.823 57.2396C167.289 56.6577 167.913 56.3668 168.695 56.3668C169.386 56.3668 169.899 56.5694 170.236 56.9747C170.573 57.38 170.746 57.986 170.754 58.7925V63H169.014V58.8347C169.014 58.4655 168.934 58.1986 168.774 58.0341C168.613 57.8656 168.346 57.7813 167.973 57.7813C167.484 57.7813 167.116 57.99 166.872 58.4073V63H165.132V56.4872H166.769ZM175.852 63C175.772 62.8435 175.714 62.6489 175.678 62.4161C175.256 62.8856 174.709 63.1204 174.034 63.1204C173.396 63.1204 172.867 62.9358 172.445 62.5666C172.028 62.1974 171.819 61.7319 171.819 61.1701C171.819 60.4799 172.074 59.9502 172.584 59.5811C173.097 59.2119 173.838 59.0253 174.805 59.0213H175.606V58.6481C175.606 58.3471 175.527 58.1064 175.371 57.9258C175.218 57.7452 174.975 57.6549 174.642 57.6549C174.349 57.6549 174.119 57.7251 173.95 57.8656C173.786 58.006 173.703 58.1986 173.703 58.4434H171.964C171.964 58.0662 172.08 57.7171 172.313 57.3961C172.546 57.0751 172.875 56.8243 173.3 56.6437C173.726 56.4591 174.203 56.3668 174.733 56.3668C175.535 56.3668 176.171 56.5694 176.641 56.9747C177.114 57.376 177.351 57.9418 177.351 58.6722V61.4952C177.355 62.1132 177.441 62.5807 177.61 62.8977V63H175.852ZM174.414 61.7901C174.671 61.7901 174.907 61.734 175.124 61.6216C175.341 61.5052 175.501 61.3507 175.606 61.1581V60.0385H174.955C174.085 60.0385 173.621 60.3395 173.565 60.9414L173.559 61.0437C173.559 61.2604 173.635 61.439 173.788 61.5795C173.94 61.7199 174.149 61.7901 174.414 61.7901ZM181.029 60.8752L182.239 56.4872H184.057L181.86 63H180.198L178.001 56.4872H179.819L181.029 60.8752ZM187.74 63.1204C186.785 63.1204 186.007 62.8274 185.405 62.2416C184.807 61.6557 184.508 60.8752 184.508 59.9001V59.7315C184.508 59.0775 184.634 58.4936 184.887 57.9799C185.14 57.4623 185.497 57.065 185.959 56.7881C186.424 56.5072 186.954 56.3668 187.548 56.3668C188.439 56.3668 189.139 56.6477 189.648 57.2095C190.162 57.7713 190.419 58.5678 190.419 59.5991V60.3094H186.272C186.328 60.7348 186.496 61.0758 186.777 61.3327C187.062 61.5895 187.421 61.7179 187.855 61.7179C188.525 61.7179 189.049 61.4751 189.426 60.9896L190.28 61.9466C190.02 62.3158 189.666 62.6047 189.221 62.8134C188.776 63.0181 188.282 63.1204 187.74 63.1204ZM187.542 57.7753C187.197 57.7753 186.916 57.8917 186.699 58.1244C186.486 58.3572 186.35 58.6902 186.29 59.1236H188.709V58.9852C188.701 58.5999 188.597 58.303 188.396 58.0943C188.196 57.8816 187.911 57.7753 187.542 57.7753ZM191.159 59.6954C191.159 58.6962 191.396 57.8917 191.87 57.2817C192.347 56.6718 192.989 56.3668 193.796 56.3668C194.51 56.3668 195.066 56.6116 195.463 57.1011L195.535 56.4872H197.112V62.7833C197.112 63.3531 196.982 63.8487 196.721 64.2701C196.464 64.6914 196.101 65.0124 195.632 65.2331C195.162 65.4538 194.612 65.5642 193.982 65.5642C193.505 65.5642 193.039 65.4679 192.586 65.2753C192.132 65.0867 191.789 64.8419 191.557 64.5409L192.327 63.4815C192.76 63.9671 193.286 64.2099 193.904 64.2099C194.366 64.2099 194.725 64.0855 194.981 63.8367C195.238 63.5919 195.367 63.2428 195.367 62.7893V62.4402C194.965 62.8937 194.438 63.1204 193.784 63.1204C193.001 63.1204 192.367 62.8154 191.882 62.2055C191.4 61.5915 191.159 60.7789 191.159 59.7677V59.6954ZM192.899 59.8218C192.899 60.4117 193.017 60.8752 193.254 61.2123C193.491 61.5453 193.816 61.7119 194.229 61.7119C194.759 61.7119 195.138 61.5132 195.367 61.116V58.3772C195.134 57.9799 194.759 57.7813 194.241 57.7813C193.824 57.7813 193.495 57.9519 193.254 58.2929C193.017 58.634 192.899 59.1437 192.899 59.8218ZM202.229 63C202.148 62.8435 202.09 62.6489 202.054 62.4161C201.633 62.8856 201.085 63.1204 200.411 63.1204C199.773 63.1204 199.243 62.9358 198.822 62.5666C198.404 62.1974 198.196 61.7319 198.196 61.1701C198.196 60.4799 198.451 59.9502 198.96 59.5811C199.474 59.2119 200.214 59.0253 201.181 59.0213H201.982V58.6481C201.982 58.3471 201.904 58.1064 201.747 57.9258C201.595 57.7452 201.352 57.6549 201.019 57.6549C200.726 57.6549 200.495 57.7251 200.327 57.8656C200.162 58.006 200.08 58.1986 200.08 58.4434H198.34C198.34 58.0662 198.457 57.7171 198.689 57.3961C198.922 57.0751 199.251 56.8243 199.676 56.6437C200.102 56.4591 200.579 56.3668 201.109 56.3668C201.912 56.3668 202.548 56.5694 203.017 56.9747C203.491 57.376 203.727 57.9418 203.727 58.6722V61.4952C203.731 62.1132 203.818 62.5807 203.986 62.8977V63H202.229ZM200.79 61.7901C201.047 61.7901 201.284 61.734 201.5 61.6216C201.717 61.5052 201.878 61.3507 201.982 61.1581V60.0385H201.332C200.461 60.0385 199.998 60.3395 199.941 60.9414L199.935 61.0437C199.935 61.2604 200.012 61.439 200.164 61.5795C200.317 61.7199 200.525 61.7901 200.79 61.7901ZM208.723 58.1184C208.487 58.0863 208.278 58.0702 208.097 58.0702C207.439 58.0702 207.008 58.2929 206.803 58.7384V63H205.064V56.4872H206.707L206.755 57.2637C207.104 56.6657 207.588 56.3668 208.206 56.3668C208.398 56.3668 208.579 56.3929 208.748 56.445L208.723 58.1184Z" fill="#EE3A2B"/>
<rect width="208" height="33" transform="translate(30 74)" fill="white"/>
<path d="M35.7373 87.2047H38.1297V89.2324H35.7373V91.9757H33.5272V89.2324H31.1277V87.2047H33.5272V84.5386H35.7373V87.2047ZM47.9312 93H45.5598V85.4507L43.2304 86.1313V84.3351L47.7137 82.7846H47.9312V93ZM51.1516 88.0046L51.776 82.7846H57.7467V84.6228H53.6984L53.4669 86.6504C53.6353 86.5522 53.8551 86.4657 54.1264 86.3909C54.4024 86.316 54.6713 86.2786 54.9332 86.2786C55.9482 86.2786 56.727 86.5803 57.2696 87.1837C57.8169 87.7824 58.0905 88.6243 58.0905 89.7095C58.0905 90.3643 57.9431 90.9583 57.6485 91.4915C57.3585 92.0201 56.9492 92.427 56.4207 92.7123C55.8921 92.9977 55.2677 93.1403 54.5474 93.1403C53.9066 93.1403 53.3055 93.0094 52.7442 92.7474C52.1829 92.4808 51.7433 92.1183 51.4252 91.6599C51.1071 91.1969 50.9505 90.6753 50.9551 90.0953H53.3266C53.35 90.4695 53.4692 90.7665 53.6844 90.9864C53.8995 91.2062 54.1825 91.3161 54.5333 91.3161C55.3285 91.3161 55.7261 90.7268 55.7261 89.5481C55.7261 88.4583 55.2396 87.9133 54.2667 87.9133C53.7148 87.9133 53.3032 88.0911 53.0319 88.4466L51.1516 88.0046ZM71.421 91.7371C71.0422 92.1581 70.4879 92.4972 69.7582 92.7544C69.0286 93.0117 68.2287 93.1403 67.3587 93.1403C66.021 93.1403 64.9522 92.7311 64.1524 91.9125C63.3525 91.094 62.9246 89.955 62.8684 88.4957L62.8614 87.6117C62.8614 86.606 63.0392 85.729 63.3946 84.9806C63.7501 84.2276 64.2576 83.6499 64.9171 83.2476C65.5813 82.8407 66.3484 82.6372 67.2184 82.6372C68.4907 82.6372 69.4776 82.9296 70.1792 83.5143C70.8855 84.0943 71.2971 84.9619 71.414 86.1172H69.0426C68.9584 85.5466 68.776 85.1397 68.4953 84.8964C68.2147 84.6532 67.8171 84.5316 67.3026 84.5316C66.6852 84.5316 66.2081 84.7935 65.8713 85.3174C65.5345 85.8413 65.3638 86.5896 65.3591 87.5625V88.18C65.3591 89.1996 65.5322 89.9667 65.8783 90.4812C66.2291 90.9911 66.7787 91.246 67.5271 91.246C68.1679 91.246 68.645 91.1033 68.9584 90.818V89.2324H67.2465V87.5415H71.421V91.7371ZM75.4763 93H73.0207V82.7846H75.4763V93ZM85.5514 91.7371C85.1726 92.1581 84.6183 92.4972 83.8886 92.7544C83.1589 93.0117 82.3591 93.1403 81.4891 93.1403C80.1514 93.1403 79.0826 92.7311 78.2828 91.9125C77.4829 91.094 77.0549 89.955 76.9988 88.4957L76.9918 87.6117C76.9918 86.606 77.1695 85.729 77.525 84.9806C77.8805 84.2276 78.388 83.6499 79.0475 83.2476C79.7117 82.8407 80.4788 82.6372 81.3488 82.6372C82.621 82.6372 83.608 82.9296 84.3096 83.5143C85.0159 84.0943 85.4275 84.9619 85.5444 86.1172H83.173C83.0888 85.5466 82.9064 85.1397 82.6257 84.8964C82.3451 84.6532 81.9475 84.5316 81.433 84.5316C80.8156 84.5316 80.3385 84.7935 80.0017 85.3174C79.6649 85.8413 79.4942 86.5896 79.4895 87.5625V88.18C79.4895 89.1996 79.6626 89.9667 80.0087 90.4812C80.3595 90.9911 80.9091 91.246 81.6575 91.246C82.2983 91.246 82.7754 91.1033 83.0888 90.818V89.2324H81.3769V87.5415H85.5514V91.7371ZM92.785 91.0916H89.4103L88.8209 93H86.1899L89.9365 82.7846H92.2518L96.0264 93H93.3814L92.785 91.0916ZM89.9996 89.1903H92.1956L91.0941 85.6471L89.9996 89.1903ZM102.046 90.2848C102.046 89.9246 101.918 89.644 101.66 89.4428C101.408 89.2417 100.961 89.0336 100.32 88.8184C99.6795 88.6033 99.1556 88.3951 98.7487 88.194C97.425 87.5438 96.7631 86.6504 96.7631 85.5138C96.7631 84.9479 96.9268 84.4497 97.2542 84.0194C97.5863 83.5844 98.0541 83.2476 98.6575 83.0091C99.2608 82.7659 99.9391 82.6443 100.692 82.6443C101.426 82.6443 102.084 82.7752 102.664 83.0372C103.248 83.2991 103.702 83.6733 104.025 84.1597C104.347 84.6415 104.509 85.1934 104.509 85.8155H102.053C102.053 85.3992 101.925 85.0765 101.667 84.8473C101.415 84.6181 101.071 84.5035 100.636 84.5035C100.196 84.5035 99.8479 84.6018 99.5906 84.7982C99.338 84.99 99.2117 85.2355 99.2117 85.5349C99.2117 85.7968 99.352 86.0354 99.6327 86.2505C99.9133 86.461 100.407 86.6809 101.113 86.91C101.819 87.1346 102.399 87.3778 102.853 87.6397C103.957 88.2758 104.509 89.1528 104.509 90.2707C104.509 91.1641 104.172 91.8657 103.499 92.3756C102.825 92.8854 101.901 93.1403 100.727 93.1403C99.8993 93.1403 99.1486 92.993 98.475 92.6983C97.8062 92.399 97.301 91.992 96.9596 91.4775C96.6228 90.9583 96.4544 90.362 96.4544 89.6884H98.9241C98.9241 90.2357 99.0644 90.6403 99.345 90.9022C99.6304 91.1594 100.091 91.2881 100.727 91.2881C101.134 91.2881 101.455 91.2015 101.688 91.0285C101.927 90.8507 102.046 90.6028 102.046 90.2848Z" fill="#222222" fill-opacity="0.8"/>
<path d="M171.971 80.949H168.173V84.055H172.585V85H167.017V76.236H172.525V77.187H168.173V80.004H171.971V80.949ZM176.034 80.8648L177.479 78.4872H178.779L176.648 81.7075L178.845 85H177.557L176.052 82.5622L174.547 85H173.253L175.45 81.7075L173.319 78.4872H174.608L176.034 80.8648ZM182.457 84.2115C182.854 84.2115 183.201 84.0911 183.498 83.8503C183.795 83.6096 183.959 83.3086 183.992 82.9474H185.045C185.025 83.3206 184.896 83.6758 184.66 84.0128C184.423 84.3499 184.106 84.6188 183.709 84.8194C183.315 85.0201 182.898 85.1204 182.457 85.1204C181.57 85.1204 180.864 84.8254 180.338 84.2356C179.816 83.6417 179.555 82.8311 179.555 81.8038V81.6172C179.555 80.9832 179.672 80.4194 179.904 79.9258C180.137 79.4322 180.47 79.049 180.904 78.7761C181.341 78.5032 181.857 78.3668 182.451 78.3668C183.181 78.3668 183.787 78.5855 184.268 79.0229C184.754 79.4603 185.013 80.0281 185.045 80.7263H183.992C183.959 80.305 183.799 79.9599 183.51 79.691C183.225 79.4181 182.872 79.2817 182.451 79.2817C181.885 79.2817 181.445 79.4864 181.132 79.8957C180.823 80.301 180.669 80.8889 180.669 81.6593V81.87C180.669 82.6204 180.823 83.1982 181.132 83.6035C181.441 84.0088 181.883 84.2115 182.457 84.2115ZM187.507 85H186.393V75.7544H187.507V85ZM193.315 84.3559C192.882 84.8656 192.246 85.1204 191.407 85.1204C190.713 85.1204 190.183 84.9197 189.818 84.5185C189.457 84.1132 189.274 83.5153 189.27 82.7247V78.4872H190.384V82.6946C190.384 83.6818 190.785 84.1754 191.588 84.1754C192.439 84.1754 193.004 83.8583 193.285 83.2243V78.4872H194.399V85H193.339L193.315 84.3559ZM199.888 83.2725C199.888 82.9715 199.774 82.7388 199.545 82.5742C199.321 82.4057 198.925 82.2612 198.359 82.1409C197.798 82.0205 197.35 81.876 197.017 81.7075C196.688 81.5389 196.443 81.3383 196.283 81.1055C196.126 80.8728 196.048 80.5959 196.048 80.2749C196.048 79.7412 196.273 79.2897 196.722 78.9206C197.176 78.5514 197.754 78.3668 198.456 78.3668C199.194 78.3668 199.792 78.5574 200.25 78.9386C200.711 79.3198 200.942 79.8074 200.942 80.4013H199.822C199.822 80.0963 199.692 79.8335 199.431 79.6128C199.174 79.3921 198.849 79.2817 198.456 79.2817C198.05 79.2817 197.733 79.37 197.505 79.5466C197.276 79.7231 197.162 79.9539 197.162 80.2388C197.162 80.5076 197.268 80.7103 197.481 80.8467C197.693 80.9832 198.077 81.1136 198.63 81.238C199.188 81.3624 199.64 81.5108 199.985 81.6834C200.33 81.8559 200.585 82.0646 200.749 82.3094C200.918 82.5502 201.002 82.8451 201.002 83.1942C201.002 83.7761 200.769 84.2436 200.304 84.5967C199.838 84.9458 199.234 85.1204 198.492 85.1204C197.97 85.1204 197.509 85.0281 197.107 84.8435C196.706 84.6589 196.391 84.4021 196.162 84.073C195.938 83.74 195.825 83.3808 195.825 82.9956H196.939C196.959 83.3688 197.107 83.6657 197.384 83.8864C197.665 84.1031 198.034 84.2115 198.492 84.2115C198.913 84.2115 199.25 84.1272 199.503 83.9587C199.76 83.7861 199.888 83.5574 199.888 83.2725ZM203.662 85H202.549V78.4872H203.662V85ZM202.459 76.7596C202.459 76.5791 202.513 76.4266 202.621 76.3022C202.733 76.1778 202.898 76.1156 203.115 76.1156C203.331 76.1156 203.496 76.1778 203.608 76.3022C203.721 76.4266 203.777 76.5791 203.777 76.7596C203.777 76.9402 203.721 77.0907 203.608 77.2111C203.496 77.3315 203.331 77.3917 203.115 77.3917C202.898 77.3917 202.733 77.3315 202.621 77.2111C202.513 77.0907 202.459 76.9402 202.459 76.7596ZM207.599 83.4892L209.212 78.4872H210.35L208.014 85H207.166L204.806 78.4872H205.944L207.599 83.4892ZM211.03 81.6834C211.03 81.0454 211.154 80.4715 211.403 79.9619C211.656 79.4523 212.005 79.059 212.451 78.7821C212.9 78.5052 213.412 78.3668 213.985 78.3668C214.872 78.3668 215.589 78.6738 216.134 79.2877C216.684 79.9017 216.959 80.7183 216.959 81.7376V81.8158C216.959 82.4498 216.837 83.0197 216.592 83.5253C216.351 84.0269 216.004 84.4181 215.55 84.699C215.101 84.9799 214.583 85.1204 213.997 85.1204C213.115 85.1204 212.398 84.8134 211.849 84.1994C211.303 83.5855 211.03 82.7729 211.03 81.7616V81.6834ZM212.15 81.8158C212.15 82.5381 212.316 83.118 212.649 83.5554C212.986 83.9928 213.436 84.2115 213.997 84.2115C214.563 84.2115 215.013 83.9908 215.346 83.5494C215.679 83.1039 215.845 82.4819 215.845 81.6834C215.845 80.9691 215.675 80.3913 215.334 79.9499C214.997 79.5044 214.547 79.2817 213.985 79.2817C213.436 79.2817 212.992 79.5004 212.655 79.9378C212.318 80.3752 212.15 81.0012 212.15 81.8158Z" fill="#222222" fill-opacity="0.8"/>
<path d="M172.531 95.8038C172.531 96.807 172.302 97.6116 171.845 98.2175C171.391 98.8194 170.777 99.1204 170.003 99.1204C169.345 99.1204 168.813 98.8917 168.408 98.4342V101.504H166.668V92.4872H168.281L168.341 93.1252C168.763 92.6196 169.313 92.3668 169.991 92.3668C170.793 92.3668 171.417 92.6637 171.863 93.2576C172.308 93.8515 172.531 94.6702 172.531 95.7135V95.8038ZM170.791 95.6774C170.791 95.0714 170.683 94.6039 170.466 94.2749C170.254 93.9458 169.943 93.7813 169.533 93.7813C168.988 93.7813 168.612 93.99 168.408 94.4073V97.0738C168.62 97.5032 169 97.7179 169.545 97.7179C170.376 97.7179 170.791 97.0377 170.791 95.6774ZM177.388 99C177.308 98.8435 177.25 98.6489 177.214 98.4161C176.793 98.8856 176.245 99.1204 175.571 99.1204C174.933 99.1204 174.403 98.9358 173.982 98.5666C173.564 98.1974 173.356 97.7319 173.356 97.1701C173.356 96.4799 173.61 95.9502 174.12 95.5811C174.634 95.2119 175.374 95.0253 176.341 95.0213H177.142V94.6481C177.142 94.3471 177.063 94.1064 176.907 93.9258C176.754 93.7452 176.512 93.6549 176.179 93.6549C175.886 93.6549 175.655 93.7251 175.486 93.8656C175.322 94.006 175.24 94.1986 175.24 94.4434H173.5C173.5 94.0662 173.616 93.7171 173.849 93.3961C174.082 93.0751 174.411 92.8243 174.836 92.6437C175.262 92.4591 175.739 92.3668 176.269 92.3668C177.071 92.3668 177.707 92.5694 178.177 92.9747C178.65 93.376 178.887 93.9418 178.887 94.6722V97.4952C178.891 98.1132 178.978 98.5807 179.146 98.8977V99H177.388ZM175.95 97.7901C176.207 97.7901 176.443 97.734 176.66 97.6216C176.877 97.5052 177.037 97.3507 177.142 97.1581V96.0385H176.492C175.621 96.0385 175.157 96.3395 175.101 96.9414L175.095 97.0437C175.095 97.2604 175.171 97.439 175.324 97.5795C175.476 97.7199 175.685 97.7901 175.95 97.7901ZM183.883 94.1184C183.646 94.0863 183.438 94.0702 183.257 94.0702C182.599 94.0702 182.168 94.2929 181.963 94.7384V99H180.223V92.4872H181.867L181.915 93.2637C182.264 92.6657 182.748 92.3668 183.366 92.3668C183.558 92.3668 183.739 92.3929 183.907 92.445L183.883 94.1184ZM188.319 99C188.239 98.8435 188.181 98.6489 188.145 98.4161C187.723 98.8856 187.176 99.1204 186.502 99.1204C185.864 99.1204 185.334 98.9358 184.912 98.5666C184.495 98.1974 184.286 97.7319 184.286 97.1701C184.286 96.4799 184.541 95.9502 185.051 95.5811C185.565 95.2119 186.305 95.0253 187.272 95.0213H188.073V94.6481C188.073 94.3471 187.994 94.1064 187.838 93.9258C187.685 93.7452 187.443 93.6549 187.11 93.6549C186.817 93.6549 186.586 93.7251 186.417 93.8656C186.253 94.006 186.171 94.1986 186.171 94.4434H184.431C184.431 94.0662 184.547 93.7171 184.78 93.3961C185.013 93.0751 185.342 92.8243 185.767 92.6437C186.193 92.4591 186.67 92.3668 187.2 92.3668C188.002 92.3668 188.638 92.5694 189.108 92.9747C189.581 93.376 189.818 93.9418 189.818 94.6722V97.4952C189.822 98.1132 189.908 98.5807 190.077 98.8977V99H188.319ZM186.881 97.7901C187.138 97.7901 187.374 97.734 187.591 97.6216C187.808 97.5052 187.968 97.3507 188.073 97.1581V96.0385H187.423C186.552 96.0385 186.088 96.3395 186.032 96.9414L186.026 97.0437C186.026 97.2604 186.102 97.439 186.255 97.5795C186.407 97.7199 186.616 97.7901 186.881 97.7901ZM197.884 94.1184C197.647 94.0863 197.439 94.0702 197.258 94.0702C196.6 94.0702 196.168 94.2929 195.964 94.7384V99H194.224V92.4872H195.868L195.916 93.2637C196.265 92.6657 196.748 92.3668 197.366 92.3668C197.559 92.3668 197.739 92.3929 197.908 92.445L197.884 94.1184ZM201.604 99.1204C200.649 99.1204 199.87 98.8274 199.268 98.2416C198.67 97.6557 198.372 96.8752 198.372 95.9001V95.7315C198.372 95.0775 198.498 94.4936 198.751 93.9799C199.004 93.4623 199.361 93.065 199.822 92.7881C200.288 92.5072 200.817 92.3668 201.411 92.3668C202.302 92.3668 203.002 92.6477 203.512 93.2095C204.026 93.7713 204.282 94.5678 204.282 95.5991V96.3094H200.135C200.191 96.7348 200.36 97.0758 200.641 97.3327C200.926 97.5895 201.285 97.7179 201.718 97.7179C202.388 97.7179 202.912 97.4751 203.289 96.9896L204.144 97.9466C203.883 98.3158 203.53 98.6047 203.085 98.8134C202.639 99.0181 202.146 99.1204 201.604 99.1204ZM201.405 93.7753C201.06 93.7753 200.779 93.8917 200.563 94.1244C200.35 94.3572 200.213 94.6902 200.153 95.1236H202.573V94.9852C202.565 94.5999 202.461 94.303 202.26 94.0943C202.059 93.8816 201.774 93.7753 201.405 93.7753ZM205.005 95.6954C205.005 94.6802 205.231 93.8716 205.685 93.2697C206.142 92.6677 206.766 92.3668 207.557 92.3668C208.191 92.3668 208.715 92.6035 209.128 93.0771V89.7544H210.874V99H209.302L209.218 98.3078C208.785 98.8495 208.227 99.1204 207.545 99.1204C206.778 99.1204 206.162 98.8194 205.697 98.2175C205.235 97.6116 205.005 96.7709 205.005 95.6954ZM206.744 95.8218C206.744 96.4318 206.851 96.8993 207.063 97.2243C207.276 97.5494 207.585 97.7119 207.99 97.7119C208.528 97.7119 208.907 97.4852 209.128 97.0317V94.4615C208.911 94.008 208.536 93.7813 208.002 93.7813C207.164 93.7813 206.744 94.4615 206.744 95.8218ZM215.219 99.1204C214.264 99.1204 213.486 98.8274 212.884 98.2416C212.286 97.6557 211.987 96.8752 211.987 95.9001V95.7315C211.987 95.0775 212.113 94.4936 212.366 93.9799C212.619 93.4623 212.976 93.065 213.438 92.7881C213.903 92.5072 214.433 92.3668 215.027 92.3668C215.918 92.3668 216.618 92.6477 217.128 93.2095C217.641 93.7713 217.898 94.5678 217.898 95.5991V96.3094H213.751C213.807 96.7348 213.975 97.0758 214.256 97.3327C214.541 97.5895 214.9 97.7179 215.334 97.7179C216.004 97.7179 216.528 97.4751 216.905 96.9896L217.76 97.9466C217.499 98.3158 217.146 98.6047 216.7 98.8134C216.255 99.0181 215.761 99.1204 215.219 99.1204ZM215.021 93.7753C214.676 93.7753 214.395 93.8917 214.178 94.1244C213.965 94.3572 213.829 94.6902 213.769 95.1236H216.188V94.9852C216.18 94.5999 216.076 94.303 215.875 94.0943C215.675 93.8816 215.39 93.7753 215.021 93.7753ZM222.418 97.2002C222.418 96.9876 222.312 96.821 222.099 96.7006C221.891 96.5762 221.554 96.4659 221.088 96.3696C219.539 96.0445 218.765 95.3864 218.765 94.3953C218.765 93.8174 219.004 93.3359 219.481 92.9507C219.963 92.5614 220.591 92.3668 221.365 92.3668C222.192 92.3668 222.852 92.5614 223.345 92.9507C223.843 93.3399 224.092 93.8455 224.092 94.4675H222.352C222.352 94.2187 222.272 94.0141 222.111 93.8535C221.951 93.689 221.7 93.6068 221.359 93.6068C221.066 93.6068 220.839 93.673 220.679 93.8054C220.518 93.9378 220.438 94.1064 220.438 94.311C220.438 94.5036 220.528 94.6601 220.709 94.7805C220.894 94.8969 221.203 94.9992 221.636 95.0875C222.069 95.1718 222.434 95.2681 222.731 95.3764C223.65 95.7135 224.11 96.2974 224.11 97.128C224.11 97.7219 223.855 98.2035 223.345 98.5726C222.836 98.9378 222.178 99.1204 221.371 99.1204C220.825 99.1204 220.34 99.0241 219.914 98.8315C219.493 98.6348 219.162 98.368 218.921 98.0309C218.68 97.6898 218.56 97.3226 218.56 96.9294H220.209C220.225 97.2384 220.34 97.4751 220.552 97.6396C220.765 97.8042 221.05 97.8864 221.407 97.8864C221.74 97.8864 221.991 97.8242 222.16 97.6998C222.332 97.5714 222.418 97.4049 222.418 97.2002Z" fill="#EE392A"/>
<rect x="0.5" y="0.5" width="275" height="112" rx="9.5" stroke="#EF3829"/>
<path d="M0 10C0 4.47715 4.47715 0 10 0H266C271.523 0 276 4.47715 276 10V27H0V10Z" fill="#EF3829"/>
<path d="M118.657 17H116.935V7.04688H118.657V17ZM122.164 9.60352L122.212 10.458C122.759 9.7972 123.477 9.4668 124.365 9.4668C125.906 9.4668 126.689 10.3486 126.717 12.1123V17H125.056V12.208C125.056 11.7386 124.953 11.3923 124.748 11.1689C124.548 10.9411 124.217 10.8271 123.757 10.8271C123.087 10.8271 122.588 11.1302 122.26 11.7363V17H120.599V9.60352H122.164ZM131.454 15.8105C131.869 15.8105 132.213 15.6898 132.486 15.4482C132.76 15.2067 132.906 14.9082 132.924 14.5527H134.489C134.471 15.013 134.327 15.4437 134.059 15.8447C133.79 16.2412 133.425 16.5557 132.965 16.7881C132.505 17.0205 132.008 17.1367 131.475 17.1367C130.44 17.1367 129.62 16.8018 129.014 16.1318C128.408 15.4619 128.104 14.5368 128.104 13.3564V13.1855C128.104 12.0599 128.405 11.1598 129.007 10.4854C129.608 9.80632 130.429 9.4668 131.468 9.4668C132.347 9.4668 133.063 9.72428 133.614 10.2393C134.17 10.7497 134.462 11.4219 134.489 12.2559H132.924C132.906 11.832 132.76 11.4834 132.486 11.21C132.217 10.9365 131.873 10.7998 131.454 10.7998C130.916 10.7998 130.502 10.9958 130.21 11.3877C129.918 11.7751 129.77 12.3652 129.766 13.1582V13.4248C129.766 14.2269 129.909 14.8262 130.196 15.2227C130.488 15.6146 130.907 15.8105 131.454 15.8105ZM137.511 17H135.85V6.5H137.511V17ZM143.807 16.2754C143.319 16.8496 142.626 17.1367 141.729 17.1367C140.926 17.1367 140.318 16.902 139.903 16.4326C139.493 15.9632 139.288 15.2842 139.288 14.3955V9.60352H140.949V14.375C140.949 15.3138 141.339 15.7832 142.118 15.7832C142.925 15.7832 143.469 15.4938 143.752 14.915V9.60352H145.413V17H143.848L143.807 16.2754ZM149.692 14.6211L151.196 9.60352H152.967L150.027 18.1211C149.576 19.3652 148.811 19.9873 147.73 19.9873C147.489 19.9873 147.222 19.9463 146.931 19.8643V18.5791L147.245 18.5996C147.664 18.5996 147.979 18.5221 148.188 18.3672C148.403 18.2168 148.571 17.9616 148.694 17.6016L148.934 16.9658L146.336 9.60352H148.127L149.692 14.6211ZM157.089 17.1367C156.036 17.1367 155.182 16.8063 154.525 16.1455C153.874 15.4801 153.548 14.596 153.548 13.4932V13.2881C153.548 12.5498 153.689 11.8913 153.972 11.3125C154.259 10.7292 154.66 10.2757 155.175 9.95215C155.69 9.62858 156.264 9.4668 156.897 9.4668C157.905 9.4668 158.682 9.78809 159.229 10.4307C159.78 11.0732 160.056 11.9824 160.056 13.1582V13.8281H155.223C155.273 14.4388 155.476 14.9219 155.831 15.2773C156.191 15.6328 156.642 15.8105 157.185 15.8105C157.946 15.8105 158.565 15.5029 159.044 14.8877L159.939 15.7422C159.643 16.1842 159.247 16.5283 158.75 16.7744C158.258 17.016 157.704 17.1367 157.089 17.1367ZM156.891 10.7998C156.435 10.7998 156.066 10.9593 155.783 11.2783C155.505 11.5973 155.327 12.0417 155.25 12.6113H158.415V12.4883C158.379 11.9323 158.23 11.513 157.971 11.2305C157.711 10.9434 157.351 10.7998 156.891 10.7998Z" fill="white"/>
</svg>
