<svg width="276" height="111" viewBox="0 0 276 111" fill="none" xmlns="http://www.w3.org/2000/svg">
<rect x="0.5" y="0.5" width="275" height="110" rx="9.5" fill="white"/>
<rect width="203.5" height="28" transform="translate(32.25 6)" fill="white"/>
<path d="M40.1511 17.5138C40.1511 18.0096 40.0271 18.447 39.7792 18.8258C39.536 19.2047 39.1992 19.5087 38.7689 19.7379C39.2553 19.9765 39.6412 20.3039 39.9265 20.7202C40.2119 21.1318 40.3545 21.6206 40.3545 22.1866C40.3545 23.0986 40.0388 23.819 39.4074 24.3475C38.7806 24.876 37.9153 25.1403 36.8114 25.1403C35.7029 25.1403 34.8282 24.876 34.1874 24.3475C33.5466 23.8143 33.2262 23.094 33.2262 22.1866C33.2262 21.6393 33.3665 21.1552 33.6471 20.7342C33.9278 20.3133 34.3254 19.9812 34.8399 19.7379C34.4049 19.5087 34.0634 19.2047 33.8155 18.8258C33.5676 18.447 33.4437 18.0096 33.4437 17.5138C33.4437 16.6251 33.7454 15.9235 34.3488 15.409C34.9521 14.8945 35.766 14.6372 36.7904 14.6372C37.8241 14.6372 38.6426 14.8945 39.246 15.409C39.8494 15.9235 40.1511 16.6251 40.1511 17.5138ZM37.9831 21.9971C37.9831 21.5762 37.8732 21.2534 37.6533 21.0289C37.4382 20.7997 37.1528 20.6851 36.7974 20.6851C36.4419 20.6851 36.1542 20.7997 35.9344 21.0289C35.7146 21.2534 35.6046 21.5762 35.6046 21.9971C35.6046 22.4041 35.7146 22.7268 35.9344 22.9653C36.1589 23.1992 36.4512 23.3161 36.8114 23.3161C37.1622 23.3161 37.4452 23.1992 37.6603 22.9653C37.8755 22.7315 37.9831 22.4087 37.9831 21.9971ZM36.7904 16.4614C36.4723 16.4614 36.2291 16.5667 36.0607 16.7772C35.897 16.983 35.8151 17.2706 35.8151 17.6401C35.8151 18.005 35.8993 18.2996 36.0677 18.5242C36.2361 18.7487 36.484 18.8609 36.8114 18.8609C37.1341 18.8609 37.375 18.7487 37.5341 18.5242C37.6978 18.2996 37.7796 18.005 37.7796 17.6401C37.7796 17.2753 37.6954 16.9876 37.527 16.7772C37.3633 16.5667 37.1178 16.4614 36.7904 16.4614ZM53.671 23.7371C53.2922 24.1581 52.7379 24.4972 52.0082 24.7544C51.2786 25.0117 50.4787 25.1403 49.6087 25.1403C48.271 25.1403 47.2022 24.7311 46.4024 23.9125C45.6025 23.094 45.1746 21.955 45.1184 20.4957L45.1114 19.6117C45.1114 18.606 45.2892 17.729 45.6446 16.9806C46.0001 16.2276 46.5076 15.6499 47.1671 15.2476C47.8313 14.8407 48.5984 14.6372 49.4684 14.6372C50.7407 14.6372 51.7276 14.9296 52.4292 15.5143C53.1355 16.0943 53.5471 16.9619 53.664 18.1172H51.2926C51.2084 17.5466 51.026 17.1397 50.7453 16.8964C50.4647 16.6532 50.0671 16.5316 49.5526 16.5316C48.9352 16.5316 48.4581 16.7935 48.1213 17.3174C47.7845 17.8413 47.6138 18.5896 47.6091 19.5625V20.18C47.6091 21.1996 47.7822 21.9667 48.1283 22.4812C48.4791 22.9911 49.0287 23.246 49.7771 23.246C50.4179 23.246 50.895 23.1033 51.2084 22.818V21.2324H49.4965V19.5415H53.671V23.7371ZM57.7263 25H55.2707V14.7846H57.7263V25ZM67.8014 23.7371C67.4226 24.1581 66.8683 24.4972 66.1386 24.7544C65.4089 25.0117 64.6091 25.1403 63.7391 25.1403C62.4014 25.1403 61.3326 24.7311 60.5328 23.9125C59.7329 23.094 59.305 21.955 59.2488 20.4957L59.2418 19.6117C59.2418 18.606 59.4195 17.729 59.775 16.9806C60.1305 16.2276 60.638 15.6499 61.2975 15.2476C61.9617 14.8407 62.7288 14.6372 63.5988 14.6372C64.871 14.6372 65.858 14.9296 66.5596 15.5143C67.2659 16.0943 67.6775 16.9619 67.7944 18.1172H65.423C65.3388 17.5466 65.1564 17.1397 64.8757 16.8964C64.5951 16.6532 64.1975 16.5316 63.683 16.5316C63.0656 16.5316 62.5885 16.7935 62.2517 17.3174C61.9149 17.8413 61.7442 18.5896 61.7395 19.5625V20.18C61.7395 21.1996 61.9126 21.9667 62.2587 22.4812C62.6095 22.9911 63.1591 23.246 63.9075 23.246C64.5483 23.246 65.0254 23.1033 65.3388 22.818V21.2324H63.6269V19.5415H67.8014V23.7371ZM75.035 23.0916H71.6603L71.0709 25H68.4399L72.1865 14.7846H74.5018L78.2764 25H75.6314L75.035 23.0916ZM72.2496 21.1903H74.4457L73.3441 17.6471L72.2496 21.1903ZM84.2962 22.2848C84.2962 21.9246 84.1676 21.644 83.9103 21.4428C83.6578 21.2417 83.2111 21.0336 82.5703 20.8184C81.9295 20.6033 81.4056 20.3951 80.9987 20.194C79.675 19.5438 79.0131 18.6504 79.0131 17.5138C79.0131 16.9479 79.1768 16.4497 79.5042 16.0194C79.8363 15.5844 80.3041 15.2476 80.9075 15.0091C81.5108 14.7659 82.1891 14.6443 82.9421 14.6443C83.6765 14.6443 84.3337 14.7752 84.9136 15.0372C85.4983 15.2991 85.952 15.6733 86.2748 16.1597C86.5975 16.6415 86.7589 17.1934 86.7589 17.8155H84.3032C84.3032 17.3992 84.1746 17.0765 83.9174 16.8473C83.6648 16.6181 83.321 16.5035 82.886 16.5035C82.4463 16.5035 82.0979 16.6018 81.8406 16.7982C81.588 16.99 81.4617 17.2355 81.4617 17.5349C81.4617 17.7968 81.6021 18.0354 81.8827 18.2505C82.1633 18.461 82.6568 18.6809 83.3631 18.91C84.0694 19.1346 84.6494 19.3778 85.1031 19.6397C86.2069 20.2758 86.7589 21.1528 86.7589 22.2707C86.7589 23.1641 86.4221 23.8657 85.7486 24.3756C85.075 24.8854 84.1512 25.1403 82.9772 25.1403C82.1493 25.1403 81.3986 24.993 80.725 24.6983C80.0562 24.399 79.551 23.992 79.2096 23.4775C78.8728 22.9583 78.7044 22.362 78.7044 21.6884H81.1741C81.1741 22.2357 81.3144 22.6403 81.595 22.9022C81.8804 23.1594 82.3411 23.2881 82.9772 23.2881C83.3841 23.2881 83.7045 23.2015 83.9384 23.0285C84.177 22.8507 84.2962 22.6028 84.2962 22.2848Z" fill="#222222" fill-opacity="0.8"/>
<path d="M169.423 13.569V17H168.267V8.23597H171.5C172.459 8.23597 173.209 8.48076 173.751 8.97032C174.297 9.45989 174.569 10.108 174.569 10.9145C174.569 11.7653 174.303 12.4214 173.769 12.8828C173.239 13.3403 172.479 13.569 171.488 13.569H169.423ZM169.423 12.624H171.5C172.118 12.624 172.591 12.4795 172.92 12.1906C173.249 11.8977 173.414 11.4763 173.414 10.9266C173.414 10.4049 173.249 9.98757 172.92 9.67457C172.591 9.36157 172.14 9.19905 171.566 9.18701H169.423V12.624ZM179.818 17C179.754 16.8716 179.702 16.6429 179.662 16.3138C179.144 16.8515 178.526 17.1204 177.808 17.1204C177.166 17.1204 176.638 16.9398 176.225 16.5787C175.815 16.2135 175.611 15.752 175.611 15.1942C175.611 14.5161 175.868 13.9904 176.381 13.6172C176.899 13.24 177.625 13.0514 178.56 13.0514H179.644V12.5397C179.644 12.1505 179.527 11.8415 179.295 11.6128C179.062 11.38 178.719 11.2637 178.265 11.2637C177.868 11.2637 177.535 11.364 177.266 11.5646C176.997 11.7653 176.863 12.008 176.863 12.2929H175.743C175.743 11.9679 175.858 11.6549 176.086 11.3539C176.319 11.049 176.632 10.8082 177.025 10.6316C177.423 10.4551 177.858 10.3668 178.331 10.3668C179.082 10.3668 179.67 10.5554 180.095 10.9326C180.52 11.3058 180.741 11.8214 180.757 12.4795V15.4771C180.757 16.075 180.833 16.5506 180.986 16.9037V17H179.818ZM177.97 16.1513C178.319 16.1513 178.65 16.061 178.963 15.8804C179.276 15.6998 179.503 15.4651 179.644 15.1762V13.8399H178.771C177.406 13.8399 176.724 14.2392 176.724 15.0377C176.724 15.3868 176.841 15.6597 177.073 15.8563C177.306 16.053 177.605 16.1513 177.97 16.1513ZM185.651 11.4864C185.482 11.4583 185.3 11.4442 185.103 11.4442C184.373 11.4442 183.877 11.7552 183.616 12.3772V17H182.503V10.4872H183.586L183.604 11.2396C183.969 10.6577 184.487 10.3668 185.157 10.3668C185.374 10.3668 185.538 10.3949 185.651 10.4511V11.4864ZM190.46 17C190.396 16.8716 190.344 16.6429 190.304 16.3138C189.786 16.8515 189.168 17.1204 188.45 17.1204C187.808 17.1204 187.28 16.9398 186.867 16.5787C186.457 16.2135 186.253 15.752 186.253 15.1942C186.253 14.5161 186.51 13.9904 187.023 13.6172C187.541 13.24 188.267 13.0514 189.202 13.0514H190.286V12.5397C190.286 12.1505 190.169 11.8415 189.937 11.6128C189.704 11.38 189.361 11.2637 188.907 11.2637C188.51 11.2637 188.177 11.364 187.908 11.5646C187.639 11.7653 187.505 12.008 187.505 12.2929H186.385C186.385 11.9679 186.5 11.6549 186.728 11.3539C186.961 11.049 187.274 10.8082 187.667 10.6316C188.065 10.4551 188.5 10.3668 188.973 10.3668C189.724 10.3668 190.312 10.5554 190.737 10.9326C191.162 11.3058 191.383 11.8214 191.399 12.4795V15.4771C191.399 16.075 191.475 16.5506 191.628 16.9037V17H190.46ZM188.612 16.1513C188.961 16.1513 189.292 16.061 189.605 15.8804C189.918 15.6998 190.145 15.4651 190.286 15.1762V13.8399H189.413C188.049 13.8399 187.366 14.2392 187.366 15.0377C187.366 15.3868 187.483 15.6597 187.715 15.8563C187.948 16.053 188.247 16.1513 188.612 16.1513Z" fill="#222222" fill-opacity="0.8"/>
<path d="M169.519 24.4872L169.573 25.2396C170.039 24.6577 170.663 24.3668 171.445 24.3668C172.136 24.3668 172.649 24.5694 172.986 24.9747C173.323 25.38 173.496 25.986 173.504 26.7925V31H171.764V26.8347C171.764 26.4655 171.684 26.1986 171.524 26.0341C171.363 25.8656 171.096 25.7813 170.723 25.7813C170.234 25.7813 169.866 25.99 169.622 26.4073V31H167.882V24.4872H169.519ZM178.602 31C178.522 30.8435 178.464 30.6489 178.428 30.4161C178.006 30.8856 177.459 31.1204 176.784 31.1204C176.146 31.1204 175.617 30.9358 175.195 30.5666C174.778 30.1974 174.569 29.7319 174.569 29.1701C174.569 28.4799 174.824 27.9502 175.334 27.5811C175.847 27.2119 176.588 27.0253 177.555 27.0213H178.356V26.6481C178.356 26.3471 178.277 26.1064 178.121 25.9258C177.968 25.7452 177.725 25.6549 177.392 25.6549C177.099 25.6549 176.869 25.7251 176.7 25.8656C176.536 26.006 176.453 26.1986 176.453 26.4434H174.714C174.714 26.0662 174.83 25.7171 175.063 25.3961C175.296 25.0751 175.625 24.8243 176.05 24.6437C176.476 24.4591 176.953 24.3668 177.483 24.3668C178.285 24.3668 178.921 24.5694 179.391 24.9747C179.864 25.376 180.101 25.9418 180.101 26.6722V29.4952C180.105 30.1132 180.191 30.5807 180.36 30.8977V31H178.602ZM177.164 29.7901C177.421 29.7901 177.657 29.734 177.874 29.6216C178.091 29.5052 178.251 29.3507 178.356 29.1581V28.0385H177.705C176.835 28.0385 176.371 28.3395 176.315 28.9414L176.309 29.0437C176.309 29.2604 176.385 29.439 176.538 29.5795C176.69 29.7199 176.899 29.7901 177.164 29.7901ZM183.779 28.8752L184.989 24.4872H186.807L184.61 31H182.948L180.751 24.4872H182.569L183.779 28.8752ZM190.49 31.1204C189.535 31.1204 188.757 30.8274 188.155 30.2416C187.557 29.6557 187.258 28.8752 187.258 27.9001V27.7315C187.258 27.0775 187.384 26.4936 187.637 25.9799C187.89 25.4623 188.247 25.065 188.709 24.7881C189.174 24.5072 189.704 24.3668 190.298 24.3668C191.189 24.3668 191.889 24.6477 192.398 25.2095C192.912 25.7713 193.169 26.5678 193.169 27.5991V28.3094H189.022C189.078 28.7348 189.246 29.0758 189.527 29.3327C189.812 29.5895 190.171 29.7179 190.605 29.7179C191.275 29.7179 191.799 29.4751 192.176 28.9896L193.03 29.9466C192.77 30.3158 192.416 30.6047 191.971 30.8134C191.526 31.0181 191.032 31.1204 190.49 31.1204ZM190.292 25.7753C189.947 25.7753 189.666 25.8917 189.449 26.1244C189.236 26.3572 189.1 26.6902 189.04 27.1236H191.459V26.9852C191.451 26.5999 191.347 26.303 191.146 26.0943C190.946 25.8816 190.661 25.7753 190.292 25.7753ZM193.909 27.6954C193.909 26.6962 194.146 25.8917 194.62 25.2817C195.097 24.6718 195.739 24.3668 196.546 24.3668C197.26 24.3668 197.816 24.6116 198.213 25.1011L198.285 24.4872H199.862V30.7833C199.862 31.3531 199.732 31.8487 199.471 32.2701C199.214 32.6914 198.851 33.0124 198.382 33.2331C197.912 33.4538 197.362 33.5642 196.732 33.5642C196.255 33.5642 195.789 33.4679 195.336 33.2753C194.882 33.0867 194.539 32.8419 194.307 32.5409L195.077 31.4815C195.51 31.9671 196.036 32.2099 196.654 32.2099C197.116 32.2099 197.475 32.0855 197.731 31.8367C197.988 31.5919 198.117 31.2428 198.117 30.7893V30.4402C197.715 30.8937 197.188 31.1204 196.534 31.1204C195.751 31.1204 195.117 30.8154 194.632 30.2055C194.15 29.5915 193.909 28.7789 193.909 27.7677V27.6954ZM195.649 27.8218C195.649 28.4117 195.767 28.8752 196.004 29.2123C196.241 29.5453 196.566 29.7119 196.979 29.7119C197.509 29.7119 197.888 29.5132 198.117 29.116V26.3772C197.884 25.9799 197.509 25.7813 196.991 25.7813C196.574 25.7813 196.245 25.9519 196.004 26.2929C195.767 26.634 195.649 27.1437 195.649 27.8218ZM204.979 31C204.898 30.8435 204.84 30.6489 204.804 30.4161C204.383 30.8856 203.835 31.1204 203.161 31.1204C202.523 31.1204 201.993 30.9358 201.572 30.5666C201.154 30.1974 200.946 29.7319 200.946 29.1701C200.946 28.4799 201.201 27.9502 201.71 27.5811C202.224 27.2119 202.964 27.0253 203.931 27.0213H204.732V26.6481C204.732 26.3471 204.654 26.1064 204.497 25.9258C204.345 25.7452 204.102 25.6549 203.769 25.6549C203.476 25.6549 203.245 25.7251 203.077 25.8656C202.912 26.006 202.83 26.1986 202.83 26.4434H201.09C201.09 26.0662 201.207 25.7171 201.439 25.3961C201.672 25.0751 202.001 24.8243 202.426 24.6437C202.852 24.4591 203.329 24.3668 203.859 24.3668C204.662 24.3668 205.298 24.5694 205.767 24.9747C206.241 25.376 206.477 25.9418 206.477 26.6722V29.4952C206.481 30.1132 206.568 30.5807 206.736 30.8977V31H204.979ZM203.54 29.7901C203.797 29.7901 204.034 29.734 204.25 29.6216C204.467 29.5052 204.628 29.3507 204.732 29.1581V28.0385H204.082C203.211 28.0385 202.748 28.3395 202.691 28.9414L202.685 29.0437C202.685 29.2604 202.762 29.439 202.914 29.5795C203.067 29.7199 203.275 29.7901 203.54 29.7901ZM211.473 26.1184C211.237 26.0863 211.028 26.0702 210.847 26.0702C210.189 26.0702 209.758 26.2929 209.553 26.7384V31H207.814V24.4872H209.457L209.505 25.2637C209.854 24.6657 210.338 24.3668 210.956 24.3668C211.148 24.3668 211.329 24.3929 211.498 24.445L211.473 26.1184Z" fill="#EE3A2B"/>
<rect width="208" height="28" transform="translate(30 41.5)" fill="white"/>
<path d="M35.0583 54.7047H37.4508V56.7324H35.0583V59.4757H32.8483V56.7324H30.4488V54.7047H32.8483V52.0386H35.0583V54.7047ZM48.2556 56.5079H49.294V58.332H48.2556V60.5H45.8912V58.332H41.9411L41.8008 56.8867L45.8912 50.3056V50.2846H48.2556V56.5079ZM44.0529 56.5079H45.8912V53.3646L45.7438 53.6032L44.0529 56.5079ZM62.421 59.2371C62.0422 59.6581 61.4879 59.9972 60.7582 60.2544C60.0286 60.5117 59.2287 60.6403 58.3587 60.6403C57.021 60.6403 55.9522 60.2311 55.1524 59.4125C54.3526 58.594 53.9246 57.455 53.8684 55.9957L53.8614 55.1117C53.8614 54.106 54.0392 53.229 54.3946 52.4806C54.7501 51.7276 55.2576 51.1499 55.9171 50.7476C56.5813 50.3407 57.3484 50.1372 58.2184 50.1372C59.4907 50.1372 60.4776 50.4296 61.1792 51.0143C61.8855 51.5943 62.2971 52.4619 62.414 53.6172H60.0426C59.9584 53.0466 59.776 52.6397 59.4953 52.3964C59.2147 52.1532 58.8171 52.0316 58.3026 52.0316C57.6852 52.0316 57.2081 52.2935 56.8713 52.8174C56.5346 53.3413 56.3638 54.0896 56.3591 55.0625V55.68C56.3591 56.6996 56.5322 57.4667 56.8783 57.9812C57.2291 58.4911 57.7787 58.746 58.5271 58.746C59.1679 58.746 59.645 58.6033 59.9584 58.318V56.7324H58.2465V55.0415H62.421V59.2371ZM66.4763 60.5H64.0207V50.2846H66.4763V60.5ZM76.5514 59.2371C76.1726 59.6581 75.6183 59.9972 74.8886 60.2544C74.1589 60.5117 73.3591 60.6403 72.4891 60.6403C71.1514 60.6403 70.0826 60.2311 69.2828 59.4125C68.4829 58.594 68.055 57.455 67.9988 55.9957L67.9918 55.1117C67.9918 54.106 68.1695 53.229 68.525 52.4806C68.8805 51.7276 69.388 51.1499 70.0475 50.7476C70.7117 50.3407 71.4788 50.1372 72.3488 50.1372C73.621 50.1372 74.608 50.4296 75.3096 51.0143C76.0159 51.5943 76.4275 52.4619 76.5444 53.6172H74.173C74.0888 53.0466 73.9064 52.6397 73.6257 52.3964C73.3451 52.1532 72.9475 52.0316 72.433 52.0316C71.8156 52.0316 71.3385 52.2935 71.0017 52.8174C70.6649 53.3413 70.4942 54.0896 70.4895 55.0625V55.68C70.4895 56.6996 70.6626 57.4667 71.0087 57.9812C71.3595 58.4911 71.9091 58.746 72.6575 58.746C73.2983 58.746 73.7754 58.6033 74.0888 58.318V56.7324H72.3769V55.0415H76.5514V59.2371ZM83.785 58.5916H80.4103L79.8209 60.5H77.1899L80.9365 50.2846H83.2518L87.0264 60.5H84.3814L83.785 58.5916ZM80.9996 56.6903H83.1957L82.0941 53.1471L80.9996 56.6903ZM93.0462 57.7848C93.0462 57.4246 92.9176 57.144 92.6603 56.9428C92.4078 56.7417 91.9611 56.5336 91.3203 56.3184C90.6795 56.1033 90.1556 55.8951 89.7487 55.694C88.425 55.0438 87.7631 54.1504 87.7631 53.0138C87.7631 52.4479 87.9268 51.9497 88.2542 51.5194C88.5863 51.0844 89.0541 50.7476 89.6575 50.5091C90.2608 50.2659 90.9391 50.1443 91.6921 50.1443C92.4265 50.1443 93.0837 50.2752 93.6636 50.5372C94.2483 50.7991 94.702 51.1733 95.0248 51.6597C95.3475 52.1415 95.5089 52.6934 95.5089 53.3155H93.0532C93.0532 52.8992 92.9246 52.5765 92.6674 52.3473C92.4148 52.1181 92.071 52.0035 91.636 52.0035C91.1963 52.0035 90.8479 52.1018 90.5906 52.2982C90.338 52.49 90.2117 52.7355 90.2117 53.0349C90.2117 53.2968 90.3521 53.5354 90.6327 53.7505C90.9133 53.961 91.4068 54.1809 92.1131 54.41C92.8194 54.6346 93.3994 54.8778 93.8531 55.1397C94.9569 55.7758 95.5089 56.6528 95.5089 57.7707C95.5089 58.6641 95.1721 59.3657 94.4986 59.8756C93.825 60.3854 92.9012 60.6403 91.7272 60.6403C90.8993 60.6403 90.1486 60.493 89.475 60.1983C88.8062 59.899 88.301 59.492 87.9596 58.9775C87.6228 58.4583 87.4544 57.862 87.4544 57.1884H89.9241C89.9241 57.7357 90.0644 58.1403 90.345 58.4022C90.6304 58.6594 91.0911 58.7881 91.7272 58.7881C92.1341 58.7881 92.4545 58.7015 92.6884 58.5285C92.927 58.3507 93.0462 58.1028 93.0462 57.7848Z" fill="#222222" fill-opacity="0.8"/>
<path d="M171.971 48.449H168.173V51.555H172.585V52.5H167.017V43.736H172.525V44.687H168.173V47.504H171.971V48.449ZM176.034 48.3648L177.479 45.9872H178.779L176.648 49.2075L178.845 52.5H177.557L176.052 50.0622L174.547 52.5H173.253L175.45 49.2075L173.319 45.9872H174.608L176.034 48.3648ZM182.457 51.7115C182.854 51.7115 183.201 51.5911 183.498 51.3503C183.795 51.1096 183.959 50.8086 183.992 50.4474H185.045C185.025 50.8206 184.896 51.1758 184.66 51.5128C184.423 51.8499 184.106 52.1188 183.709 52.3194C183.315 52.5201 182.898 52.6204 182.457 52.6204C181.57 52.6204 180.864 52.3254 180.338 51.7356C179.816 51.1417 179.555 50.3311 179.555 49.3038V49.1172C179.555 48.4832 179.672 47.9194 179.904 47.4258C180.137 46.9322 180.47 46.549 180.904 46.2761C181.341 46.0032 181.857 45.8668 182.451 45.8668C183.181 45.8668 183.787 46.0855 184.268 46.5229C184.754 46.9603 185.013 47.5281 185.045 48.2263H183.992C183.959 47.805 183.799 47.4599 183.51 47.191C183.225 46.9181 182.872 46.7817 182.451 46.7817C181.885 46.7817 181.445 46.9864 181.132 47.3957C180.823 47.801 180.669 48.3889 180.669 49.1593V49.37C180.669 50.1204 180.823 50.6982 181.132 51.1035C181.441 51.5088 181.883 51.7115 182.457 51.7115ZM187.507 52.5H186.393V43.2544H187.507V52.5ZM193.315 51.8559C192.882 52.3656 192.246 52.6204 191.407 52.6204C190.713 52.6204 190.183 52.4197 189.818 52.0185C189.457 51.6132 189.274 51.0153 189.27 50.2247V45.9872H190.384V50.1946C190.384 51.1818 190.785 51.6754 191.588 51.6754C192.439 51.6754 193.004 51.3583 193.285 50.7243V45.9872H194.399V52.5H193.339L193.315 51.8559ZM199.888 50.7725C199.888 50.4715 199.774 50.2388 199.545 50.0742C199.321 49.9057 198.925 49.7612 198.359 49.6409C197.798 49.5205 197.35 49.376 197.017 49.2075C196.688 49.0389 196.443 48.8383 196.283 48.6055C196.126 48.3728 196.048 48.0959 196.048 47.7749C196.048 47.2412 196.273 46.7897 196.722 46.4206C197.176 46.0514 197.754 45.8668 198.456 45.8668C199.194 45.8668 199.792 46.0574 200.25 46.4386C200.711 46.8198 200.942 47.3074 200.942 47.9013H199.822C199.822 47.5963 199.692 47.3335 199.431 47.1128C199.174 46.8921 198.849 46.7817 198.456 46.7817C198.05 46.7817 197.733 46.87 197.505 47.0466C197.276 47.2231 197.162 47.4539 197.162 47.7388C197.162 48.0076 197.268 48.2103 197.481 48.3467C197.693 48.4832 198.077 48.6136 198.63 48.738C199.188 48.8624 199.64 49.0108 199.985 49.1834C200.33 49.3559 200.585 49.5646 200.749 49.8094C200.918 50.0502 201.002 50.3451 201.002 50.6942C201.002 51.2761 200.769 51.7436 200.304 52.0967C199.838 52.4458 199.234 52.6204 198.492 52.6204C197.97 52.6204 197.509 52.5281 197.107 52.3435C196.706 52.1589 196.391 51.9021 196.162 51.573C195.938 51.24 195.825 50.8808 195.825 50.4956H196.939C196.959 50.8688 197.107 51.1657 197.384 51.3864C197.665 51.6031 198.034 51.7115 198.492 51.7115C198.913 51.7115 199.25 51.6272 199.503 51.4587C199.76 51.2861 199.888 51.0574 199.888 50.7725ZM203.662 52.5H202.549V45.9872H203.662V52.5ZM202.459 44.2596C202.459 44.0791 202.513 43.9266 202.621 43.8022C202.733 43.6778 202.898 43.6156 203.115 43.6156C203.331 43.6156 203.496 43.6778 203.608 43.8022C203.721 43.9266 203.777 44.0791 203.777 44.2596C203.777 44.4402 203.721 44.5907 203.608 44.7111C203.496 44.8315 203.331 44.8917 203.115 44.8917C202.898 44.8917 202.733 44.8315 202.621 44.7111C202.513 44.5907 202.459 44.4402 202.459 44.2596ZM207.599 50.9892L209.212 45.9872H210.35L208.014 52.5H207.166L204.806 45.9872H205.944L207.599 50.9892ZM211.03 49.1834C211.03 48.5454 211.154 47.9715 211.403 47.4619C211.656 46.9523 212.005 46.559 212.451 46.2821C212.9 46.0052 213.412 45.8668 213.985 45.8668C214.872 45.8668 215.589 46.1738 216.134 46.7877C216.684 47.4017 216.959 48.2183 216.959 49.2376V49.3158C216.959 49.9498 216.837 50.5197 216.592 51.0253C216.351 51.5269 216.004 51.9181 215.55 52.199C215.101 52.4799 214.583 52.6204 213.997 52.6204C213.115 52.6204 212.398 52.3134 211.849 51.6994C211.303 51.0855 211.03 50.2729 211.03 49.2616V49.1834ZM212.15 49.3158C212.15 50.0381 212.316 50.618 212.649 51.0554C212.986 51.4928 213.436 51.7115 213.997 51.7115C214.563 51.7115 215.013 51.4908 215.346 51.0494C215.679 50.6039 215.845 49.9819 215.845 49.1834C215.845 48.4691 215.675 47.8913 215.334 47.4499C214.997 47.0044 214.547 46.7817 213.985 46.7817C213.436 46.7817 212.992 47.0004 212.655 47.4378C212.318 47.8752 212.15 48.5012 212.15 49.3158Z" fill="#222222" fill-opacity="0.8"/>
<path d="M172.531 63.3038C172.531 64.307 172.302 65.1116 171.845 65.7175C171.391 66.3194 170.777 66.6204 170.003 66.6204C169.345 66.6204 168.813 66.3917 168.408 65.9342V69.004H166.668V59.9872H168.281L168.341 60.6252C168.763 60.1196 169.313 59.8668 169.991 59.8668C170.793 59.8668 171.417 60.1637 171.863 60.7576C172.308 61.3515 172.531 62.1702 172.531 63.2135V63.3038ZM170.791 63.1774C170.791 62.5714 170.683 62.1039 170.466 61.7749C170.254 61.4458 169.943 61.2813 169.533 61.2813C168.988 61.2813 168.612 61.49 168.408 61.9073V64.5738C168.62 65.0032 169 65.2179 169.545 65.2179C170.376 65.2179 170.791 64.5377 170.791 63.1774ZM177.388 66.5C177.308 66.3435 177.25 66.1489 177.214 65.9161C176.793 66.3856 176.245 66.6204 175.571 66.6204C174.933 66.6204 174.403 66.4358 173.982 66.0666C173.564 65.6974 173.356 65.2319 173.356 64.6701C173.356 63.9799 173.61 63.4502 174.12 63.0811C174.634 62.7119 175.374 62.5253 176.341 62.5213H177.142V62.1481C177.142 61.8471 177.063 61.6064 176.907 61.4258C176.754 61.2452 176.512 61.1549 176.179 61.1549C175.886 61.1549 175.655 61.2251 175.486 61.3656C175.322 61.506 175.24 61.6986 175.24 61.9434H173.5C173.5 61.5662 173.616 61.2171 173.849 60.8961C174.082 60.5751 174.411 60.3243 174.836 60.1437C175.262 59.9591 175.739 59.8668 176.269 59.8668C177.071 59.8668 177.707 60.0694 178.177 60.4747C178.65 60.876 178.887 61.4418 178.887 62.1722V64.9952C178.891 65.6132 178.978 66.0807 179.146 66.3977V66.5H177.388ZM175.95 65.2901C176.207 65.2901 176.443 65.234 176.66 65.1216C176.877 65.0052 177.037 64.8507 177.142 64.6581V63.5385H176.492C175.621 63.5385 175.157 63.8395 175.101 64.4414L175.095 64.5437C175.095 64.7604 175.171 64.939 175.324 65.0795C175.476 65.2199 175.685 65.2901 175.95 65.2901ZM183.883 61.6184C183.646 61.5863 183.438 61.5702 183.257 61.5702C182.599 61.5702 182.168 61.7929 181.963 62.2384V66.5H180.223V59.9872H181.867L181.915 60.7637C182.264 60.1657 182.748 59.8668 183.366 59.8668C183.558 59.8668 183.739 59.8929 183.907 59.945L183.883 61.6184ZM188.319 66.5C188.239 66.3435 188.181 66.1489 188.145 65.9161C187.723 66.3856 187.176 66.6204 186.502 66.6204C185.864 66.6204 185.334 66.4358 184.912 66.0666C184.495 65.6974 184.286 65.2319 184.286 64.6701C184.286 63.9799 184.541 63.4502 185.051 63.0811C185.565 62.7119 186.305 62.5253 187.272 62.5213H188.073V62.1481C188.073 61.8471 187.994 61.6064 187.838 61.4258C187.685 61.2452 187.443 61.1549 187.11 61.1549C186.817 61.1549 186.586 61.2251 186.417 61.3656C186.253 61.506 186.171 61.6986 186.171 61.9434H184.431C184.431 61.5662 184.547 61.2171 184.78 60.8961C185.013 60.5751 185.342 60.3243 185.767 60.1437C186.193 59.9591 186.67 59.8668 187.2 59.8668C188.002 59.8668 188.638 60.0694 189.108 60.4747C189.581 60.876 189.818 61.4418 189.818 62.1722V64.9952C189.822 65.6132 189.908 66.0807 190.077 66.3977V66.5H188.319ZM186.881 65.2901C187.138 65.2901 187.374 65.234 187.591 65.1216C187.808 65.0052 187.968 64.8507 188.073 64.6581V63.5385H187.423C186.552 63.5385 186.088 63.8395 186.032 64.4414L186.026 64.5437C186.026 64.7604 186.102 64.939 186.255 65.0795C186.407 65.2199 186.616 65.2901 186.881 65.2901ZM197.884 61.6184C197.647 61.5863 197.439 61.5702 197.258 61.5702C196.6 61.5702 196.168 61.7929 195.964 62.2384V66.5H194.224V59.9872H195.868L195.916 60.7637C196.265 60.1657 196.748 59.8668 197.366 59.8668C197.559 59.8668 197.739 59.8929 197.908 59.945L197.884 61.6184ZM201.604 66.6204C200.649 66.6204 199.87 66.3274 199.268 65.7416C198.67 65.1557 198.372 64.3752 198.372 63.4001V63.2315C198.372 62.5775 198.498 61.9936 198.751 61.4799C199.004 60.9623 199.361 60.565 199.822 60.2881C200.288 60.0072 200.817 59.8668 201.411 59.8668C202.302 59.8668 203.002 60.1477 203.512 60.7095C204.026 61.2713 204.282 62.0678 204.282 63.0991V63.8094H200.135C200.191 64.2348 200.36 64.5758 200.641 64.8327C200.926 65.0895 201.285 65.2179 201.718 65.2179C202.388 65.2179 202.912 64.9751 203.289 64.4896L204.144 65.4466C203.883 65.8158 203.53 66.1047 203.085 66.3134C202.639 66.5181 202.146 66.6204 201.604 66.6204ZM201.405 61.2753C201.06 61.2753 200.779 61.3917 200.563 61.6244C200.35 61.8572 200.213 62.1902 200.153 62.6236H202.573V62.4852C202.565 62.0999 202.461 61.803 202.26 61.5943C202.059 61.3816 201.774 61.2753 201.405 61.2753ZM205.005 63.1954C205.005 62.1802 205.231 61.3716 205.685 60.7697C206.142 60.1677 206.766 59.8668 207.557 59.8668C208.191 59.8668 208.715 60.1035 209.128 60.5771V57.2544H210.874V66.5H209.302L209.218 65.8078C208.785 66.3495 208.227 66.6204 207.545 66.6204C206.778 66.6204 206.162 66.3194 205.697 65.7175C205.235 65.1116 205.005 64.2709 205.005 63.1954ZM206.744 63.3218C206.744 63.9318 206.851 64.3993 207.063 64.7243C207.276 65.0494 207.585 65.2119 207.99 65.2119C208.528 65.2119 208.907 64.9852 209.128 64.5317V61.9615C208.911 61.508 208.536 61.2813 208.002 61.2813C207.164 61.2813 206.744 61.9615 206.744 63.3218ZM215.219 66.6204C214.264 66.6204 213.486 66.3274 212.884 65.7416C212.286 65.1557 211.987 64.3752 211.987 63.4001V63.2315C211.987 62.5775 212.113 61.9936 212.366 61.4799C212.619 60.9623 212.976 60.565 213.438 60.2881C213.903 60.0072 214.433 59.8668 215.027 59.8668C215.918 59.8668 216.618 60.1477 217.128 60.7095C217.641 61.2713 217.898 62.0678 217.898 63.0991V63.8094H213.751C213.807 64.2348 213.975 64.5758 214.256 64.8327C214.541 65.0895 214.9 65.2179 215.334 65.2179C216.004 65.2179 216.528 64.9751 216.905 64.4896L217.76 65.4466C217.499 65.8158 217.146 66.1047 216.7 66.3134C216.255 66.5181 215.761 66.6204 215.219 66.6204ZM215.021 61.2753C214.676 61.2753 214.395 61.3917 214.178 61.6244C213.965 61.8572 213.829 62.1902 213.769 62.6236H216.188V62.4852C216.18 62.0999 216.076 61.803 215.875 61.5943C215.675 61.3816 215.39 61.2753 215.021 61.2753ZM222.418 64.7002C222.418 64.4876 222.312 64.321 222.099 64.2006C221.891 64.0762 221.554 63.9659 221.088 63.8696C219.539 63.5445 218.765 62.8864 218.765 61.8953C218.765 61.3174 219.004 60.8359 219.481 60.4507C219.963 60.0614 220.591 59.8668 221.365 59.8668C222.192 59.8668 222.852 60.0614 223.345 60.4507C223.843 60.8399 224.092 61.3455 224.092 61.9675H222.352C222.352 61.7187 222.272 61.5141 222.111 61.3535C221.951 61.189 221.7 61.1068 221.359 61.1068C221.066 61.1068 220.839 61.173 220.679 61.3054C220.518 61.4378 220.438 61.6064 220.438 61.811C220.438 62.0036 220.528 62.1601 220.709 62.2805C220.894 62.3969 221.203 62.4992 221.636 62.5875C222.069 62.6718 222.434 62.7681 222.731 62.8764C223.65 63.2135 224.11 63.7974 224.11 64.628C224.11 65.2219 223.855 65.7035 223.345 66.0726C222.836 66.4378 222.178 66.6204 221.371 66.6204C220.825 66.6204 220.34 66.5241 219.914 66.3315C219.493 66.1348 219.162 65.868 218.921 65.5309C218.68 65.1898 218.56 64.8226 218.56 64.4294H220.209C220.225 64.7384 220.34 64.9751 220.552 65.1396C220.765 65.3042 221.05 65.3864 221.407 65.3864C221.74 65.3864 221.991 65.3242 222.16 65.1998C222.332 65.0714 222.418 64.9049 222.418 64.7002Z" fill="#EE392A"/>
<rect width="208" height="28" transform="translate(30 77)" fill="white"/>
<path d="M35.7373 90.2047H38.1297V92.2324H35.7373V94.9757H33.5272V92.2324H31.1277V90.2047H33.5272V87.5386H35.7373V90.2047ZM47.9312 96H45.5598V88.4507L43.2304 89.1313V87.3351L47.7137 85.7846H47.9312V96ZM51.1516 91.0046L51.776 85.7846H57.7467V87.6228H53.6984L53.4669 89.6504C53.6353 89.5522 53.8551 89.4657 54.1264 89.3909C54.4024 89.316 54.6713 89.2786 54.9332 89.2786C55.9482 89.2786 56.727 89.5803 57.2696 90.1837C57.8169 90.7824 58.0905 91.6243 58.0905 92.7095C58.0905 93.3643 57.9431 93.9583 57.6485 94.4915C57.3585 95.0201 56.9492 95.427 56.4207 95.7123C55.8921 95.9977 55.2677 96.1403 54.5474 96.1403C53.9066 96.1403 53.3055 96.0094 52.7442 95.7474C52.1829 95.4808 51.7433 95.1183 51.4252 94.6599C51.1071 94.1969 50.9505 93.6753 50.9551 93.0953H53.3266C53.35 93.4695 53.4692 93.7665 53.6844 93.9864C53.8995 94.2062 54.1825 94.3161 54.5333 94.3161C55.3285 94.3161 55.7261 93.7268 55.7261 92.5481C55.7261 91.4583 55.2396 90.9133 54.2667 90.9133C53.7148 90.9133 53.3032 91.0911 53.0319 91.4466L51.1516 91.0046ZM71.421 94.7371C71.0422 95.1581 70.4879 95.4972 69.7582 95.7544C69.0286 96.0117 68.2287 96.1403 67.3587 96.1403C66.021 96.1403 64.9522 95.7311 64.1524 94.9125C63.3525 94.094 62.9246 92.955 62.8684 91.4957L62.8614 90.6117C62.8614 89.606 63.0392 88.729 63.3946 87.9806C63.7501 87.2276 64.2576 86.6499 64.9171 86.2476C65.5813 85.8407 66.3484 85.6372 67.2184 85.6372C68.4907 85.6372 69.4776 85.9296 70.1792 86.5143C70.8855 87.0943 71.2971 87.9619 71.414 89.1172H69.0426C68.9584 88.5466 68.776 88.1397 68.4953 87.8964C68.2147 87.6532 67.8171 87.5316 67.3026 87.5316C66.6852 87.5316 66.2081 87.7935 65.8713 88.3174C65.5345 88.8413 65.3638 89.5896 65.3591 90.5625V91.18C65.3591 92.1996 65.5322 92.9667 65.8783 93.4812C66.2291 93.9911 66.7787 94.246 67.5271 94.246C68.1679 94.246 68.645 94.1033 68.9584 93.818V92.2324H67.2465V90.5415H71.421V94.7371ZM75.4763 96H73.0207V85.7846H75.4763V96ZM85.5514 94.7371C85.1726 95.1581 84.6183 95.4972 83.8886 95.7544C83.1589 96.0117 82.3591 96.1403 81.4891 96.1403C80.1514 96.1403 79.0826 95.7311 78.2828 94.9125C77.4829 94.094 77.0549 92.955 76.9988 91.4957L76.9918 90.6117C76.9918 89.606 77.1695 88.729 77.525 87.9806C77.8805 87.2276 78.388 86.6499 79.0475 86.2476C79.7117 85.8407 80.4788 85.6372 81.3488 85.6372C82.621 85.6372 83.608 85.9296 84.3096 86.5143C85.0159 87.0943 85.4275 87.9619 85.5444 89.1172H83.173C83.0888 88.5466 82.9064 88.1397 82.6257 87.8964C82.3451 87.6532 81.9475 87.5316 81.433 87.5316C80.8156 87.5316 80.3385 87.7935 80.0017 88.3174C79.6649 88.8413 79.4942 89.5896 79.4895 90.5625V91.18C79.4895 92.1996 79.6626 92.9667 80.0087 93.4812C80.3595 93.9911 80.9091 94.246 81.6575 94.246C82.2983 94.246 82.7754 94.1033 83.0888 93.818V92.2324H81.3769V90.5415H85.5514V94.7371ZM92.785 94.0916H89.4103L88.8209 96H86.1899L89.9365 85.7846H92.2518L96.0264 96H93.3814L92.785 94.0916ZM89.9996 92.1903H92.1956L91.0941 88.6471L89.9996 92.1903ZM102.046 93.2848C102.046 92.9246 101.918 92.644 101.66 92.4428C101.408 92.2417 100.961 92.0336 100.32 91.8184C99.6795 91.6033 99.1556 91.3951 98.7487 91.194C97.425 90.5438 96.7631 89.6504 96.7631 88.5138C96.7631 87.9479 96.9268 87.4497 97.2542 87.0194C97.5863 86.5844 98.0541 86.2476 98.6575 86.0091C99.2608 85.7659 99.9391 85.6443 100.692 85.6443C101.426 85.6443 102.084 85.7752 102.664 86.0372C103.248 86.2991 103.702 86.6733 104.025 87.1597C104.347 87.6415 104.509 88.1934 104.509 88.8155H102.053C102.053 88.3992 101.925 88.0765 101.667 87.8473C101.415 87.6181 101.071 87.5035 100.636 87.5035C100.196 87.5035 99.8479 87.6018 99.5906 87.7982C99.338 87.99 99.2117 88.2355 99.2117 88.5349C99.2117 88.7968 99.352 89.0354 99.6327 89.2505C99.9133 89.461 100.407 89.6809 101.113 89.91C101.819 90.1346 102.399 90.3778 102.853 90.6397C103.957 91.2758 104.509 92.1528 104.509 93.2707C104.509 94.1641 104.172 94.8657 103.499 95.3756C102.825 95.8854 101.901 96.1403 100.727 96.1403C99.8993 96.1403 99.1486 95.993 98.475 95.6983C97.8062 95.399 97.301 94.992 96.9596 94.4775C96.6228 93.9583 96.4544 93.362 96.4544 92.6884H98.9241C98.9241 93.2357 99.0644 93.6403 99.345 93.9022C99.6304 94.1594 100.091 94.2881 100.727 94.2881C101.134 94.2881 101.455 94.2015 101.688 94.0285C101.927 93.8507 102.046 93.6028 102.046 93.2848Z" fill="#222222" fill-opacity="0.8"/>
<path d="M167.017 88V79.236H169.491C170.254 79.236 170.928 79.4045 171.514 79.7416C172.1 80.0787 172.551 80.5582 172.868 81.1802C173.189 81.8022 173.352 82.5165 173.356 83.323V83.8828C173.356 84.7095 173.195 85.4338 172.874 86.0558C172.557 86.6778 172.102 87.1553 171.508 87.4884C170.918 87.8214 170.23 87.992 169.443 88H167.017ZM168.173 80.187V87.055H169.389C170.28 87.055 170.972 86.7781 171.465 86.2243C171.963 85.6706 172.212 84.882 172.212 83.8588V83.3471C172.212 82.3519 171.977 81.5795 171.508 81.0297C171.042 80.4759 170.38 80.195 169.521 80.187H168.173ZM177.635 88.1204C176.752 88.1204 176.034 87.8315 175.48 87.2536C174.927 86.6718 174.65 85.8953 174.65 84.9242V84.7195C174.65 84.0734 174.772 83.4976 175.017 82.992C175.266 82.4824 175.611 82.0851 176.052 81.8002C176.498 81.5112 176.979 81.3668 177.497 81.3668C178.343 81.3668 179.002 81.6457 179.471 82.2035C179.941 82.7612 180.175 83.5598 180.175 84.5991V85.0626H175.763C175.779 85.7047 175.966 86.2243 176.323 86.6216C176.684 87.0148 177.142 87.2115 177.695 87.2115C178.089 87.2115 178.422 87.1312 178.695 86.9707C178.967 86.8102 179.206 86.5975 179.411 86.3327L180.091 86.8624C179.545 87.701 178.727 88.1204 177.635 88.1204ZM177.497 82.2817C177.047 82.2817 176.67 82.4462 176.365 82.7753C176.06 83.1003 175.872 83.5578 175.799 84.1477H179.062V84.0634C179.03 83.4976 178.877 83.0602 178.604 82.7512C178.331 82.4382 177.962 82.2817 177.497 82.2817ZM187.675 82.4864C187.507 82.4583 187.324 82.4442 187.128 82.4442C186.397 82.4442 185.902 82.7552 185.641 83.3772V88H184.527V81.4872H185.611L185.629 82.2396C185.994 81.6577 186.512 81.3668 187.182 81.3668C187.398 81.3668 187.563 81.3949 187.675 81.4511V82.4864ZM191.287 88.1204C190.404 88.1204 189.686 87.8315 189.132 87.2536C188.578 86.6718 188.301 85.8953 188.301 84.9242V84.7195C188.301 84.0734 188.424 83.4976 188.668 82.992C188.917 82.4824 189.262 82.0851 189.704 81.8002C190.149 81.5112 190.631 81.3668 191.148 81.3668C191.995 81.3668 192.653 81.6457 193.123 82.2035C193.592 82.7612 193.827 83.5598 193.827 84.5991V85.0626H189.415C189.431 85.7047 189.618 86.2243 189.975 86.6216C190.336 87.0148 190.793 87.2115 191.347 87.2115C191.74 87.2115 192.073 87.1312 192.346 86.9707C192.619 86.8102 192.858 86.5975 193.063 86.3327L193.743 86.8624C193.197 87.701 192.378 88.1204 191.287 88.1204ZM191.148 82.2817C190.699 82.2817 190.322 82.4462 190.017 82.7753C189.712 83.1003 189.523 83.5578 189.451 84.1477H192.713V84.0634C192.681 83.4976 192.529 83.0602 192.256 82.7512C191.983 82.4382 191.614 82.2817 191.148 82.2817ZM194.856 84.6894C194.856 83.6742 195.091 82.8676 195.561 82.2697C196.03 81.6677 196.652 81.3668 197.426 81.3668C198.221 81.3668 198.841 81.6477 199.286 82.2095L199.341 81.4872H200.358V87.8435C200.358 88.6862 200.107 89.3503 199.605 89.8359C199.108 90.3214 198.438 90.5642 197.595 90.5642C197.126 90.5642 196.666 90.4639 196.217 90.2632C195.767 90.0626 195.424 89.7877 195.187 89.4386L195.765 88.7705C196.243 89.3604 196.827 89.6553 197.517 89.6553C198.059 89.6553 198.48 89.5028 198.781 89.1978C199.086 88.8929 199.238 88.4635 199.238 87.9097V87.3499C198.793 87.8636 198.185 88.1204 197.414 88.1204C196.652 88.1204 196.034 87.8134 195.561 87.1994C195.091 86.5855 194.856 85.7488 194.856 84.6894ZM195.976 84.8158C195.976 85.5502 196.126 86.128 196.427 86.5494C196.728 86.9667 197.15 87.1754 197.691 87.1754C198.394 87.1754 198.909 86.8563 199.238 86.2183V83.2448C198.897 82.6228 198.386 82.3118 197.703 82.3118C197.162 82.3118 196.738 82.5225 196.433 82.9438C196.128 83.3652 195.976 83.9892 195.976 84.8158ZM206.064 88C206 87.8716 205.948 87.6429 205.908 87.3138C205.39 87.8515 204.772 88.1204 204.054 88.1204C203.412 88.1204 202.884 87.9398 202.471 87.5787C202.061 87.2135 201.857 86.752 201.857 86.1942C201.857 85.5161 202.113 84.9904 202.627 84.6172C203.145 84.24 203.871 84.0514 204.806 84.0514H205.89V83.5397C205.89 83.1505 205.773 82.8415 205.54 82.6128C205.308 82.38 204.965 82.2637 204.511 82.2637C204.114 82.2637 203.781 82.364 203.512 82.5646C203.243 82.7653 203.109 83.008 203.109 83.2929H201.989C201.989 82.9679 202.103 82.6549 202.332 82.3539C202.565 82.049 202.878 81.8082 203.271 81.6316C203.668 81.4551 204.104 81.3668 204.577 81.3668C205.328 81.3668 205.916 81.5554 206.341 81.9326C206.766 82.3058 206.987 82.8214 207.003 83.4795V86.4771C207.003 87.075 207.079 87.5506 207.232 87.9037V88H206.064ZM204.216 87.1513C204.565 87.1513 204.896 87.061 205.209 86.8804C205.522 86.6998 205.749 86.4651 205.89 86.1762V84.8399H205.017C203.652 84.8399 202.97 85.2392 202.97 86.0377C202.97 86.3868 203.087 86.6597 203.319 86.8563C203.552 87.053 203.851 87.1513 204.216 87.1513ZM209.959 88H208.845V78.7544H209.959V88ZM211.451 84.6834C211.451 84.0454 211.576 83.4715 211.825 82.9619C212.077 82.4523 212.426 82.059 212.872 81.7821C213.321 81.5052 213.833 81.3668 214.407 81.3668C215.294 81.3668 216.01 81.6738 216.556 82.2877C217.105 82.9017 217.38 83.7183 217.38 84.7376V84.8158C217.38 85.4498 217.258 86.0197 217.013 86.5253C216.772 87.0269 216.425 87.4181 215.972 87.699C215.522 87.9799 215.005 88.1204 214.419 88.1204C213.536 88.1204 212.82 87.8134 212.27 87.1994C211.724 86.5855 211.451 85.7729 211.451 84.7616V84.6834ZM212.571 84.8158C212.571 85.5381 212.737 86.118 213.071 86.5554C213.408 86.9928 213.857 87.2115 214.419 87.2115C214.985 87.2115 215.434 86.9908 215.767 86.5494C216.1 86.1039 216.267 85.4819 216.267 84.6834C216.267 83.9691 216.096 83.3913 215.755 82.9499C215.418 82.5044 214.969 82.2817 214.407 82.2817C213.857 82.2817 213.414 82.5004 213.077 82.9378C212.739 83.3752 212.571 84.0012 212.571 84.8158Z" fill="#222222" fill-opacity="0.8"/>
<path d="M172.531 98.8038C172.531 99.807 172.302 100.612 171.845 101.217C171.391 101.819 170.777 102.12 170.003 102.12C169.345 102.12 168.813 101.892 168.408 101.434V104.504H166.668V95.4872H168.281L168.341 96.1252C168.763 95.6196 169.313 95.3668 169.991 95.3668C170.793 95.3668 171.417 95.6637 171.863 96.2576C172.308 96.8515 172.531 97.6702 172.531 98.7135V98.8038ZM170.791 98.6774C170.791 98.0714 170.683 97.6039 170.466 97.2749C170.254 96.9458 169.943 96.7813 169.533 96.7813C168.988 96.7813 168.612 96.99 168.408 97.4073V100.074C168.62 100.503 169 100.718 169.545 100.718C170.376 100.718 170.791 100.038 170.791 98.6774ZM173.343 98.6834C173.343 98.0373 173.468 97.4615 173.717 96.9559C173.965 96.4503 174.323 96.059 174.788 95.7821C175.258 95.5052 175.801 95.3668 176.419 95.3668C177.298 95.3668 178.014 95.6356 178.568 96.1734C179.126 96.7111 179.437 97.4414 179.501 98.3644L179.513 98.8098C179.513 99.809 179.234 100.612 178.677 101.217C178.119 101.819 177.37 102.12 176.431 102.12C175.492 102.12 174.742 101.819 174.18 101.217C173.622 100.616 173.343 99.797 173.343 98.7616V98.6834ZM175.083 98.8098C175.083 99.4278 175.199 99.9013 175.432 100.23C175.665 100.555 175.998 100.718 176.431 100.718C176.853 100.718 177.182 100.557 177.419 100.236C177.655 99.9113 177.774 99.3937 177.774 98.6834C177.774 98.0775 177.655 97.608 177.419 97.2749C177.182 96.9418 176.849 96.7753 176.419 96.7753C175.994 96.7753 175.665 96.9418 175.432 97.2749C175.199 97.6039 175.083 98.1156 175.083 98.8098ZM184.244 97.1184C184.008 97.0863 183.799 97.0702 183.618 97.0702C182.96 97.0702 182.529 97.2929 182.324 97.7384V102H180.585V95.4872H182.228L182.276 96.2637C182.625 95.6657 183.109 95.3668 183.727 95.3668C183.919 95.3668 184.1 95.3929 184.268 95.445L184.244 97.1184ZM189.854 96.8475H190.781C191.223 96.8475 191.55 96.7372 191.762 96.5165C191.975 96.2958 192.081 96.0028 192.081 95.6377C192.081 95.2845 191.975 95.0096 191.762 94.813C191.554 94.6164 191.265 94.5181 190.896 94.5181C190.563 94.5181 190.284 94.6104 190.059 94.795C189.834 94.9755 189.722 95.2123 189.722 95.5052H187.982C187.982 95.0478 188.105 94.6385 188.349 94.2773C188.598 93.9121 188.943 93.6272 189.385 93.4226C189.83 93.2179 190.32 93.1156 190.853 93.1156C191.78 93.1156 192.507 93.3383 193.032 93.7837C193.558 94.2251 193.821 94.8351 193.821 95.6136C193.821 96.0149 193.699 96.384 193.454 96.7211C193.209 97.0582 192.888 97.317 192.491 97.4976C192.984 97.6742 193.351 97.939 193.592 98.2921C193.837 98.6453 193.959 99.0626 193.959 99.5441C193.959 100.323 193.675 100.947 193.105 101.416C192.539 101.886 191.788 102.12 190.853 102.12C189.979 102.12 189.262 101.89 188.705 101.428C188.151 100.967 187.874 100.357 187.874 99.5983H189.614C189.614 99.9274 189.736 100.196 189.981 100.405C190.229 100.614 190.534 100.718 190.896 100.718C191.309 100.718 191.632 100.61 191.865 100.393C192.101 100.172 192.22 99.8812 192.22 99.5201C192.22 98.6453 191.738 98.2079 190.775 98.2079H189.854V96.8475ZM199.937 95.4872L199.991 96.2155C200.452 95.6497 201.076 95.3668 201.863 95.3668C202.701 95.3668 203.277 95.6978 203.59 96.36C204.048 95.6978 204.7 95.3668 205.546 95.3668C206.253 95.3668 206.778 95.5734 207.124 95.9868C207.469 96.3961 207.641 97.0141 207.641 97.8407V102H205.896V97.8467C205.896 97.4775 205.823 97.2087 205.679 97.0401C205.534 96.8676 205.28 96.7813 204.914 96.7813C204.393 96.7813 204.032 97.0301 203.831 97.5277L203.837 102H202.097V97.8527C202.097 97.4755 202.023 97.2027 201.875 97.0341C201.726 96.8656 201.473 96.7813 201.116 96.7813C200.623 96.7813 200.266 96.986 200.045 97.3953V102H198.305V95.4872H199.937ZM211.981 102.12C211.026 102.12 210.248 101.827 209.646 101.242C209.048 100.656 208.749 99.8752 208.749 98.9001V98.7315C208.749 98.0775 208.875 97.4936 209.128 96.9799C209.381 96.4623 209.738 96.065 210.199 95.7881C210.665 95.5072 211.195 95.3668 211.788 95.3668C212.679 95.3668 213.38 95.6477 213.889 96.2095C214.403 96.7713 214.66 97.5678 214.66 98.5991V99.3094H210.512C210.569 99.7348 210.737 100.076 211.018 100.333C211.303 100.589 211.662 100.718 212.095 100.718C212.766 100.718 213.289 100.475 213.666 99.9896L214.521 100.947C214.26 101.316 213.907 101.605 213.462 101.813C213.016 102.018 212.523 102.12 211.981 102.12ZM211.782 96.7753C211.437 96.7753 211.156 96.8917 210.94 97.1244C210.727 97.3572 210.591 97.6902 210.53 98.1236H212.95V97.9852C212.942 97.5999 212.838 97.303 212.637 97.0943C212.437 96.8816 212.152 96.7753 211.782 96.7753ZM219.18 100.2C219.18 99.9876 219.074 99.821 218.861 99.7006C218.652 99.5762 218.315 99.4659 217.85 99.3696C216.301 99.0445 215.526 98.3864 215.526 97.3953C215.526 96.8174 215.765 96.3359 216.243 95.9507C216.724 95.5614 217.352 95.3668 218.127 95.3668C218.953 95.3668 219.613 95.5614 220.107 95.9507C220.605 96.3399 220.853 96.8455 220.853 97.4675H219.114C219.114 97.2187 219.034 97.0141 218.873 96.8535C218.713 96.689 218.462 96.6068 218.121 96.6068C217.828 96.6068 217.601 96.673 217.441 96.8054C217.28 96.9378 217.2 97.1064 217.2 97.311C217.2 97.5036 217.29 97.6601 217.471 97.7805C217.655 97.8969 217.964 97.9992 218.398 98.0875C218.831 98.1718 219.196 98.2681 219.493 98.3764C220.412 98.7135 220.871 99.2974 220.871 100.128C220.871 100.722 220.617 101.203 220.107 101.573C219.597 101.938 218.939 102.12 218.133 102.12C217.587 102.12 217.101 102.024 216.676 101.831C216.255 101.635 215.924 101.368 215.683 101.031C215.442 100.69 215.322 100.323 215.322 99.9294H216.971C216.987 100.238 217.101 100.475 217.314 100.64C217.527 100.804 217.812 100.886 218.169 100.886C218.502 100.886 218.753 100.824 218.921 100.7C219.094 100.571 219.18 100.405 219.18 100.2ZM224.995 102.12C224.04 102.12 223.261 101.827 222.659 101.242C222.061 100.656 221.762 99.8752 221.762 98.9001V98.7315C221.762 98.0775 221.889 97.4936 222.142 96.9799C222.394 96.4623 222.751 96.065 223.213 95.7881C223.678 95.5072 224.208 95.3668 224.802 95.3668C225.693 95.3668 226.393 95.6477 226.903 96.2095C227.416 96.7713 227.673 97.5678 227.673 98.5991V99.3094H223.526C223.582 99.7348 223.751 100.076 224.032 100.333C224.316 100.589 224.676 100.718 225.109 100.718C225.779 100.718 226.303 100.475 226.68 99.9896L227.535 100.947C227.274 101.316 226.921 101.605 226.475 101.813C226.03 102.018 225.536 102.12 224.995 102.12ZM224.796 96.7753C224.451 96.7753 224.17 96.8917 223.953 97.1244C223.741 97.3572 223.604 97.6902 223.544 98.1236H225.964V97.9852C225.956 97.5999 225.851 97.303 225.651 97.0943C225.45 96.8816 225.165 96.7753 224.796 96.7753ZM232.194 100.2C232.194 99.9876 232.087 99.821 231.875 99.7006C231.666 99.5762 231.329 99.4659 230.863 99.3696C229.314 99.0445 228.54 98.3864 228.54 97.3953C228.54 96.8174 228.779 96.3359 229.256 95.9507C229.738 95.5614 230.366 95.3668 231.14 95.3668C231.967 95.3668 232.627 95.5614 233.121 95.9507C233.618 96.3399 233.867 96.8455 233.867 97.4675H232.127C232.127 97.2187 232.047 97.0141 231.887 96.8535C231.726 96.689 231.475 96.6068 231.134 96.6068C230.841 96.6068 230.615 96.673 230.454 96.8054C230.294 96.9378 230.213 97.1064 230.213 97.311C230.213 97.5036 230.304 97.6601 230.484 97.7805C230.669 97.8969 230.978 97.9992 231.411 98.0875C231.845 98.1718 232.21 98.2681 232.507 98.3764C233.426 98.7135 233.885 99.2974 233.885 100.128C233.885 100.722 233.63 101.203 233.121 101.573C232.611 101.938 231.953 102.12 231.146 102.12C230.601 102.12 230.115 102.024 229.69 101.831C229.268 101.635 228.937 101.368 228.697 101.031C228.456 100.69 228.335 100.323 228.335 99.9294H229.985C230.001 100.238 230.115 100.475 230.328 100.64C230.54 100.804 230.825 100.886 231.182 100.886C231.516 100.886 231.766 100.824 231.935 100.7C232.107 100.571 232.194 100.405 232.194 100.2Z" fill="#EE3A2B"/>
<rect x="0.5" y="0.5" width="275" height="110" rx="9.5" stroke="#EF3829"/>
</svg>
