<svg width="276" height="75" viewBox="0 0 276 75" fill="none" xmlns="http://www.w3.org/2000/svg">
<rect x="0.5" y="0.5" width="275" height="74" rx="9.5" fill="white"/>
<rect width="208" height="28" transform="translate(30 6)" fill="white"/>
<path d="M35.0583 19.2047H37.4508V21.2324H35.0583V23.9757H32.8483V21.2324H30.4488V19.2047H32.8483V16.5386H35.0583V19.2047ZM44.1722 18.903H45.2878C46.1718 18.903 46.6138 18.4704 46.6138 17.6051C46.6138 17.2683 46.5086 16.9947 46.2981 16.7842C46.0876 16.569 45.7906 16.4614 45.407 16.4614C45.0937 16.4614 44.82 16.5526 44.5862 16.7351C44.357 16.9175 44.2424 17.1443 44.2424 17.4156H41.878C41.878 16.8777 42.0276 16.3983 42.327 15.9773C42.6263 15.5564 43.0403 15.2289 43.5688 14.9951C44.1021 14.7565 44.6867 14.6372 45.3229 14.6372C46.4595 14.6372 47.3528 14.8968 48.003 15.416C48.6532 15.9352 48.9782 16.6485 48.9782 17.5559C48.9782 17.9956 48.8426 18.4119 48.5713 18.8048C48.3047 19.193 47.9141 19.5087 47.3996 19.752C47.9422 19.9484 48.3678 20.2478 48.6765 20.65C48.9852 21.0476 49.1396 21.5411 49.1396 22.1304C49.1396 23.0425 48.7888 23.7722 48.0872 24.3194C47.3856 24.8667 46.4641 25.1403 45.3229 25.1403C44.654 25.1403 44.0319 25.014 43.4566 24.7615C42.8859 24.5042 42.4533 24.1511 42.1586 23.702C41.8639 23.2483 41.7166 22.7338 41.7166 22.1585H44.095C44.095 22.4719 44.2213 22.7432 44.4739 22.9724C44.7265 23.2015 45.0375 23.3161 45.407 23.3161C45.8233 23.3161 46.1554 23.2015 46.4033 22.9724C46.6512 22.7385 46.7752 22.4415 46.7752 22.0813C46.7752 21.5668 46.6466 21.202 46.3893 20.9868C46.132 20.7716 45.7766 20.6641 45.3229 20.6641H44.1722V18.903ZM62.421 23.7371C62.0422 24.1581 61.4879 24.4972 60.7582 24.7544C60.0286 25.0117 59.2287 25.1403 58.3587 25.1403C57.021 25.1403 55.9522 24.7311 55.1524 23.9125C54.3526 23.094 53.9246 21.955 53.8684 20.4957L53.8614 19.6117C53.8614 18.606 54.0392 17.729 54.3946 16.9806C54.7501 16.2276 55.2576 15.6499 55.9171 15.2476C56.5813 14.8407 57.3484 14.6372 58.2184 14.6372C59.4907 14.6372 60.4776 14.9296 61.1792 15.5143C61.8855 16.0943 62.2971 16.9619 62.414 18.1172H60.0426C59.9584 17.5466 59.776 17.1397 59.4953 16.8964C59.2147 16.6532 58.8171 16.5316 58.3026 16.5316C57.6852 16.5316 57.2081 16.7935 56.8713 17.3174C56.5346 17.8413 56.3638 18.5896 56.3591 19.5625V20.18C56.3591 21.1996 56.5322 21.9667 56.8783 22.4812C57.2291 22.9911 57.7787 23.246 58.5271 23.246C59.1679 23.246 59.645 23.1033 59.9584 22.818V21.2324H58.2465V19.5415H62.421V23.7371ZM66.4763 25H64.0207V14.7846H66.4763V25ZM76.5514 23.7371C76.1726 24.1581 75.6183 24.4972 74.8886 24.7544C74.1589 25.0117 73.3591 25.1403 72.4891 25.1403C71.1514 25.1403 70.0826 24.7311 69.2828 23.9125C68.4829 23.094 68.055 21.955 67.9988 20.4957L67.9918 19.6117C67.9918 18.606 68.1695 17.729 68.525 16.9806C68.8805 16.2276 69.388 15.6499 70.0475 15.2476C70.7117 14.8407 71.4788 14.6372 72.3488 14.6372C73.621 14.6372 74.608 14.9296 75.3096 15.5143C76.0159 16.0943 76.4275 16.9619 76.5444 18.1172H74.173C74.0888 17.5466 73.9064 17.1397 73.6257 16.8964C73.3451 16.6532 72.9475 16.5316 72.433 16.5316C71.8156 16.5316 71.3385 16.7935 71.0017 17.3174C70.6649 17.8413 70.4942 18.5896 70.4895 19.5625V20.18C70.4895 21.1996 70.6626 21.9667 71.0087 22.4812C71.3595 22.9911 71.9091 23.246 72.6575 23.246C73.2983 23.246 73.7754 23.1033 74.0888 22.818V21.2324H72.3769V19.5415H76.5514V23.7371ZM83.785 23.0916H80.4103L79.8209 25H77.1899L80.9365 14.7846H83.2518L87.0264 25H84.3814L83.785 23.0916ZM80.9996 21.1903H83.1957L82.0941 17.6471L80.9996 21.1903ZM93.0462 22.2848C93.0462 21.9246 92.9176 21.644 92.6603 21.4428C92.4078 21.2417 91.9611 21.0336 91.3203 20.8184C90.6795 20.6033 90.1556 20.3951 89.7487 20.194C88.425 19.5438 87.7631 18.6504 87.7631 17.5138C87.7631 16.9479 87.9268 16.4497 88.2542 16.0194C88.5863 15.5844 89.0541 15.2476 89.6575 15.0091C90.2608 14.7659 90.9391 14.6443 91.6921 14.6443C92.4265 14.6443 93.0837 14.7752 93.6636 15.0372C94.2483 15.2991 94.702 15.6733 95.0248 16.1597C95.3475 16.6415 95.5089 17.1934 95.5089 17.8155H93.0532C93.0532 17.3992 92.9246 17.0765 92.6674 16.8473C92.4148 16.6181 92.071 16.5035 91.636 16.5035C91.1963 16.5035 90.8479 16.6018 90.5906 16.7982C90.338 16.99 90.2117 17.2355 90.2117 17.5349C90.2117 17.7968 90.3521 18.0354 90.6327 18.2505C90.9133 18.461 91.4068 18.6809 92.1131 18.91C92.8194 19.1346 93.3994 19.3778 93.8531 19.6397C94.9569 20.2758 95.5089 21.1528 95.5089 22.2707C95.5089 23.1641 95.1721 23.8657 94.4986 24.3756C93.825 24.8854 92.9012 25.1403 91.7272 25.1403C90.8993 25.1403 90.1486 24.993 89.475 24.6983C88.8062 24.399 88.301 23.992 87.9596 23.4775C87.6228 22.9583 87.4544 22.362 87.4544 21.6884H89.9241C89.9241 22.2357 90.0644 22.6403 90.345 22.9022C90.6304 23.1594 91.0911 23.2881 91.7272 23.2881C92.1341 23.2881 92.4545 23.2015 92.6884 23.0285C92.927 22.8507 93.0462 22.6028 93.0462 22.2848Z" fill="#222222" fill-opacity="0.8"/>
<path d="M171.971 12.949H168.173V16.055H172.585V17H167.017V8.23597H172.525V9.18701H168.173V12.004H171.971V12.949ZM176.034 12.8648L177.479 10.4872H178.779L176.648 13.7075L178.845 17H177.557L176.052 14.5622L174.547 17H173.253L175.45 13.7075L173.319 10.4872H174.608L176.034 12.8648ZM182.457 16.2115C182.854 16.2115 183.201 16.0911 183.498 15.8503C183.795 15.6096 183.959 15.3086 183.992 14.9474H185.045C185.025 15.3206 184.896 15.6758 184.66 16.0128C184.423 16.3499 184.106 16.6188 183.709 16.8194C183.315 17.0201 182.898 17.1204 182.457 17.1204C181.57 17.1204 180.864 16.8254 180.338 16.2356C179.816 15.6417 179.555 14.8311 179.555 13.8038V13.6172C179.555 12.9832 179.672 12.4194 179.904 11.9258C180.137 11.4322 180.47 11.049 180.904 10.7761C181.341 10.5032 181.857 10.3668 182.451 10.3668C183.181 10.3668 183.787 10.5855 184.268 11.0229C184.754 11.4603 185.013 12.0281 185.045 12.7263H183.992C183.959 12.305 183.799 11.9599 183.51 11.691C183.225 11.4181 182.872 11.2817 182.451 11.2817C181.885 11.2817 181.445 11.4864 181.132 11.8957C180.823 12.301 180.669 12.8889 180.669 13.6593V13.87C180.669 14.6204 180.823 15.1982 181.132 15.6035C181.441 16.0088 181.883 16.2115 182.457 16.2115ZM187.507 17H186.393V7.75443H187.507V17ZM193.315 16.3559C192.882 16.8656 192.246 17.1204 191.407 17.1204C190.713 17.1204 190.183 16.9197 189.818 16.5185C189.457 16.1132 189.274 15.5153 189.27 14.7247V10.4872H190.384V14.6946C190.384 15.6818 190.785 16.1754 191.588 16.1754C192.439 16.1754 193.004 15.8583 193.285 15.2243V10.4872H194.399V17H193.339L193.315 16.3559ZM199.888 15.2725C199.888 14.9715 199.774 14.7388 199.545 14.5742C199.321 14.4057 198.925 14.2612 198.359 14.1409C197.798 14.0205 197.35 13.876 197.017 13.7075C196.688 13.5389 196.443 13.3383 196.283 13.1055C196.126 12.8728 196.048 12.5959 196.048 12.2749C196.048 11.7412 196.273 11.2897 196.722 10.9206C197.176 10.5514 197.754 10.3668 198.456 10.3668C199.194 10.3668 199.792 10.5574 200.25 10.9386C200.711 11.3198 200.942 11.8074 200.942 12.4013H199.822C199.822 12.0963 199.692 11.8335 199.431 11.6128C199.174 11.3921 198.849 11.2817 198.456 11.2817C198.05 11.2817 197.733 11.37 197.505 11.5466C197.276 11.7231 197.162 11.9539 197.162 12.2388C197.162 12.5076 197.268 12.7103 197.481 12.8467C197.693 12.9832 198.077 13.1136 198.63 13.238C199.188 13.3624 199.64 13.5108 199.985 13.6834C200.33 13.8559 200.585 14.0646 200.749 14.3094C200.918 14.5502 201.002 14.8451 201.002 15.1942C201.002 15.7761 200.769 16.2436 200.304 16.5967C199.838 16.9458 199.234 17.1204 198.492 17.1204C197.97 17.1204 197.509 17.0281 197.107 16.8435C196.706 16.6589 196.391 16.4021 196.162 16.073C195.938 15.74 195.825 15.3808 195.825 14.9956H196.939C196.959 15.3688 197.107 15.6657 197.384 15.8864C197.665 16.1031 198.034 16.2115 198.492 16.2115C198.913 16.2115 199.25 16.1272 199.503 15.9587C199.76 15.7861 199.888 15.5574 199.888 15.2725ZM203.662 17H202.549V10.4872H203.662V17ZM202.459 8.75965C202.459 8.57907 202.513 8.42658 202.621 8.30219C202.733 8.17779 202.898 8.11559 203.115 8.11559C203.331 8.11559 203.496 8.17779 203.608 8.30219C203.721 8.42658 203.777 8.57907 203.777 8.75965C203.777 8.94023 203.721 9.09071 203.608 9.21109C203.496 9.33148 203.331 9.39167 203.115 9.39167C202.898 9.39167 202.733 9.33148 202.621 9.21109C202.513 9.09071 202.459 8.94023 202.459 8.75965ZM207.599 15.4892L209.212 10.4872H210.35L208.014 17H207.166L204.806 10.4872H205.944L207.599 15.4892ZM211.03 13.6834C211.03 13.0454 211.154 12.4715 211.403 11.9619C211.656 11.4523 212.005 11.059 212.451 10.7821C212.9 10.5052 213.412 10.3668 213.985 10.3668C214.872 10.3668 215.589 10.6738 216.134 11.2877C216.684 11.9017 216.959 12.7183 216.959 13.7376V13.8158C216.959 14.4498 216.837 15.0197 216.592 15.5253C216.351 16.0269 216.004 16.4181 215.55 16.699C215.101 16.9799 214.583 17.1204 213.997 17.1204C213.115 17.1204 212.398 16.8134 211.849 16.1994C211.303 15.5855 211.03 14.7729 211.03 13.7616V13.6834ZM212.15 13.8158C212.15 14.5381 212.316 15.118 212.649 15.5554C212.986 15.9928 213.436 16.2115 213.997 16.2115C214.563 16.2115 215.013 15.9908 215.346 15.5494C215.679 15.1039 215.845 14.4819 215.845 13.6834C215.845 12.9691 215.675 12.3913 215.334 11.9499C214.997 11.5044 214.547 11.2817 213.985 11.2817C213.436 11.2817 212.992 11.5004 212.655 11.9378C212.318 12.3752 212.15 13.0012 212.15 13.8158Z" fill="#222222" fill-opacity="0.8"/>
<path d="M172.531 27.8038C172.531 28.807 172.302 29.6116 171.845 30.2175C171.391 30.8194 170.777 31.1204 170.003 31.1204C169.345 31.1204 168.813 30.8917 168.408 30.4342V33.504H166.668V24.4872H168.281L168.341 25.1252C168.763 24.6196 169.313 24.3668 169.991 24.3668C170.793 24.3668 171.417 24.6637 171.863 25.2576C172.308 25.8515 172.531 26.6702 172.531 27.7135V27.8038ZM170.791 27.6774C170.791 27.0714 170.683 26.6039 170.466 26.2749C170.254 25.9458 169.943 25.7813 169.533 25.7813C168.988 25.7813 168.612 25.99 168.408 26.4073V29.0738C168.62 29.5032 169 29.7179 169.545 29.7179C170.376 29.7179 170.791 29.0377 170.791 27.6774ZM177.388 31C177.308 30.8435 177.25 30.6489 177.214 30.4161C176.793 30.8856 176.245 31.1204 175.571 31.1204C174.933 31.1204 174.403 30.9358 173.982 30.5666C173.564 30.1974 173.356 29.7319 173.356 29.1701C173.356 28.4799 173.61 27.9502 174.12 27.5811C174.634 27.2119 175.374 27.0253 176.341 27.0213H177.142V26.6481C177.142 26.3471 177.063 26.1064 176.907 25.9258C176.754 25.7452 176.512 25.6549 176.179 25.6549C175.886 25.6549 175.655 25.7251 175.486 25.8656C175.322 26.006 175.24 26.1986 175.24 26.4434H173.5C173.5 26.0662 173.616 25.7171 173.849 25.3961C174.082 25.0751 174.411 24.8243 174.836 24.6437C175.262 24.4591 175.739 24.3668 176.269 24.3668C177.071 24.3668 177.707 24.5694 178.177 24.9747C178.65 25.376 178.887 25.9418 178.887 26.6722V29.4952C178.891 30.1132 178.978 30.5807 179.146 30.8977V31H177.388ZM175.95 29.7901C176.207 29.7901 176.443 29.734 176.66 29.6216C176.877 29.5052 177.037 29.3507 177.142 29.1581V28.0385H176.492C175.621 28.0385 175.157 28.3395 175.101 28.9414L175.095 29.0437C175.095 29.2604 175.171 29.439 175.324 29.5795C175.476 29.7199 175.685 29.7901 175.95 29.7901ZM183.883 26.1184C183.646 26.0863 183.438 26.0702 183.257 26.0702C182.599 26.0702 182.168 26.2929 181.963 26.7384V31H180.223V24.4872H181.867L181.915 25.2637C182.264 24.6657 182.748 24.3668 183.366 24.3668C183.558 24.3668 183.739 24.3929 183.907 24.445L183.883 26.1184ZM188.319 31C188.239 30.8435 188.181 30.6489 188.145 30.4161C187.723 30.8856 187.176 31.1204 186.502 31.1204C185.864 31.1204 185.334 30.9358 184.912 30.5666C184.495 30.1974 184.286 29.7319 184.286 29.1701C184.286 28.4799 184.541 27.9502 185.051 27.5811C185.565 27.2119 186.305 27.0253 187.272 27.0213H188.073V26.6481C188.073 26.3471 187.994 26.1064 187.838 25.9258C187.685 25.7452 187.443 25.6549 187.11 25.6549C186.817 25.6549 186.586 25.7251 186.417 25.8656C186.253 26.006 186.171 26.1986 186.171 26.4434H184.431C184.431 26.0662 184.547 25.7171 184.78 25.3961C185.013 25.0751 185.342 24.8243 185.767 24.6437C186.193 24.4591 186.67 24.3668 187.2 24.3668C188.002 24.3668 188.638 24.5694 189.108 24.9747C189.581 25.376 189.818 25.9418 189.818 26.6722V29.4952C189.822 30.1132 189.908 30.5807 190.077 30.8977V31H188.319ZM186.881 29.7901C187.138 29.7901 187.374 29.734 187.591 29.6216C187.808 29.5052 187.968 29.3507 188.073 29.1581V28.0385H187.423C186.552 28.0385 186.088 28.3395 186.032 28.9414L186.026 29.0437C186.026 29.2604 186.102 29.439 186.255 29.5795C186.407 29.7199 186.616 29.7901 186.881 29.7901ZM197.884 26.1184C197.647 26.0863 197.439 26.0702 197.258 26.0702C196.6 26.0702 196.168 26.2929 195.964 26.7384V31H194.224V24.4872H195.868L195.916 25.2637C196.265 24.6657 196.748 24.3668 197.366 24.3668C197.559 24.3668 197.739 24.3929 197.908 24.445L197.884 26.1184ZM201.604 31.1204C200.649 31.1204 199.87 30.8274 199.268 30.2416C198.67 29.6557 198.372 28.8752 198.372 27.9001V27.7315C198.372 27.0775 198.498 26.4936 198.751 25.9799C199.004 25.4623 199.361 25.065 199.822 24.7881C200.288 24.5072 200.817 24.3668 201.411 24.3668C202.302 24.3668 203.002 24.6477 203.512 25.2095C204.026 25.7713 204.282 26.5678 204.282 27.5991V28.3094H200.135C200.191 28.7348 200.36 29.0758 200.641 29.3327C200.926 29.5895 201.285 29.7179 201.718 29.7179C202.388 29.7179 202.912 29.4751 203.289 28.9896L204.144 29.9466C203.883 30.3158 203.53 30.6047 203.085 30.8134C202.639 31.0181 202.146 31.1204 201.604 31.1204ZM201.405 25.7753C201.06 25.7753 200.779 25.8917 200.563 26.1244C200.35 26.3572 200.213 26.6902 200.153 27.1236H202.573V26.9852C202.565 26.5999 202.461 26.303 202.26 26.0943C202.059 25.8816 201.774 25.7753 201.405 25.7753ZM205.005 27.6954C205.005 26.6802 205.231 25.8716 205.685 25.2697C206.142 24.6677 206.766 24.3668 207.557 24.3668C208.191 24.3668 208.715 24.6035 209.128 25.0771V21.7544H210.874V31H209.302L209.218 30.3078C208.785 30.8495 208.227 31.1204 207.545 31.1204C206.778 31.1204 206.162 30.8194 205.697 30.2175C205.235 29.6116 205.005 28.7709 205.005 27.6954ZM206.744 27.8218C206.744 28.4318 206.851 28.8993 207.063 29.2243C207.276 29.5494 207.585 29.7119 207.99 29.7119C208.528 29.7119 208.907 29.4852 209.128 29.0317V26.4615C208.911 26.008 208.536 25.7813 208.002 25.7813C207.164 25.7813 206.744 26.4615 206.744 27.8218ZM215.219 31.1204C214.264 31.1204 213.486 30.8274 212.884 30.2416C212.286 29.6557 211.987 28.8752 211.987 27.9001V27.7315C211.987 27.0775 212.113 26.4936 212.366 25.9799C212.619 25.4623 212.976 25.065 213.438 24.7881C213.903 24.5072 214.433 24.3668 215.027 24.3668C215.918 24.3668 216.618 24.6477 217.128 25.2095C217.641 25.7713 217.898 26.5678 217.898 27.5991V28.3094H213.751C213.807 28.7348 213.975 29.0758 214.256 29.3327C214.541 29.5895 214.9 29.7179 215.334 29.7179C216.004 29.7179 216.528 29.4751 216.905 28.9896L217.76 29.9466C217.499 30.3158 217.146 30.6047 216.7 30.8134C216.255 31.0181 215.761 31.1204 215.219 31.1204ZM215.021 25.7753C214.676 25.7753 214.395 25.8917 214.178 26.1244C213.965 26.3572 213.829 26.6902 213.769 27.1236H216.188V26.9852C216.18 26.5999 216.076 26.303 215.875 26.0943C215.675 25.8816 215.39 25.7753 215.021 25.7753ZM222.418 29.2002C222.418 28.9876 222.312 28.821 222.099 28.7006C221.891 28.5762 221.554 28.4659 221.088 28.3696C219.539 28.0445 218.765 27.3864 218.765 26.3953C218.765 25.8174 219.004 25.3359 219.481 24.9507C219.963 24.5614 220.591 24.3668 221.365 24.3668C222.192 24.3668 222.852 24.5614 223.345 24.9507C223.843 25.3399 224.092 25.8455 224.092 26.4675H222.352C222.352 26.2187 222.272 26.0141 222.111 25.8535C221.951 25.689 221.7 25.6068 221.359 25.6068C221.066 25.6068 220.839 25.673 220.679 25.8054C220.518 25.9378 220.438 26.1064 220.438 26.311C220.438 26.5036 220.528 26.6601 220.709 26.7805C220.894 26.8969 221.203 26.9992 221.636 27.0875C222.069 27.1718 222.434 27.2681 222.731 27.3764C223.65 27.7135 224.11 28.2974 224.11 29.128C224.11 29.7219 223.855 30.2035 223.345 30.5726C222.836 30.9378 222.178 31.1204 221.371 31.1204C220.825 31.1204 220.34 31.0241 219.914 30.8315C219.493 30.6348 219.162 30.368 218.921 30.0309C218.68 29.6898 218.56 29.3226 218.56 28.9294H220.209C220.225 29.2384 220.34 29.4751 220.552 29.6396C220.765 29.8042 221.05 29.8864 221.407 29.8864C221.74 29.8864 221.991 29.8242 222.16 29.6998C222.332 29.5714 222.418 29.4049 222.418 29.2002Z" fill="#EE392A"/>
<rect width="208" height="28" transform="translate(30 41)" fill="white"/>
<path d="M35.7373 54.2047H38.1297V56.2324H35.7373V58.9757H33.5272V56.2324H31.1277V54.2047H33.5272V51.5386H35.7373V54.2047ZM47.9312 60H45.5598V52.4507L43.2304 53.1313V51.3351L47.7137 49.7846H47.9312V60ZM51.1516 55.0046L51.776 49.7846H57.7467V51.6228H53.6984L53.4669 53.6504C53.6353 53.5522 53.8551 53.4657 54.1264 53.3909C54.4024 53.316 54.6713 53.2786 54.9332 53.2786C55.9482 53.2786 56.727 53.5803 57.2696 54.1837C57.8169 54.7824 58.0905 55.6243 58.0905 56.7095C58.0905 57.3643 57.9431 57.9583 57.6485 58.4915C57.3585 59.0201 56.9492 59.427 56.4207 59.7123C55.8921 59.9977 55.2677 60.1403 54.5474 60.1403C53.9066 60.1403 53.3055 60.0094 52.7442 59.7474C52.1829 59.4808 51.7433 59.1183 51.4252 58.6599C51.1071 58.1969 50.9505 57.6753 50.9551 57.0953H53.3266C53.35 57.4695 53.4692 57.7665 53.6844 57.9864C53.8995 58.2062 54.1825 58.3161 54.5333 58.3161C55.3285 58.3161 55.7261 57.7268 55.7261 56.5481C55.7261 55.4583 55.2396 54.9133 54.2667 54.9133C53.7148 54.9133 53.3032 55.0911 53.0319 55.4466L51.1516 55.0046ZM71.421 58.7371C71.0422 59.1581 70.4879 59.4972 69.7582 59.7544C69.0286 60.0117 68.2287 60.1403 67.3587 60.1403C66.021 60.1403 64.9522 59.7311 64.1524 58.9125C63.3525 58.094 62.9246 56.955 62.8684 55.4957L62.8614 54.6117C62.8614 53.606 63.0392 52.729 63.3946 51.9806C63.7501 51.2276 64.2576 50.6499 64.9171 50.2476C65.5813 49.8407 66.3484 49.6372 67.2184 49.6372C68.4907 49.6372 69.4776 49.9296 70.1792 50.5143C70.8855 51.0943 71.2971 51.9619 71.414 53.1172H69.0426C68.9584 52.5466 68.776 52.1397 68.4953 51.8964C68.2147 51.6532 67.8171 51.5316 67.3026 51.5316C66.6852 51.5316 66.2081 51.7935 65.8713 52.3174C65.5345 52.8413 65.3638 53.5896 65.3591 54.5625V55.18C65.3591 56.1996 65.5322 56.9667 65.8783 57.4812C66.2291 57.9911 66.7787 58.246 67.5271 58.246C68.1679 58.246 68.645 58.1033 68.9584 57.818V56.2324H67.2465V54.5415H71.421V58.7371ZM75.4763 60H73.0207V49.7846H75.4763V60ZM85.5514 58.7371C85.1726 59.1581 84.6183 59.4972 83.8886 59.7544C83.1589 60.0117 82.3591 60.1403 81.4891 60.1403C80.1514 60.1403 79.0826 59.7311 78.2828 58.9125C77.4829 58.094 77.0549 56.955 76.9988 55.4957L76.9918 54.6117C76.9918 53.606 77.1695 52.729 77.525 51.9806C77.8805 51.2276 78.388 50.6499 79.0475 50.2476C79.7117 49.8407 80.4788 49.6372 81.3488 49.6372C82.621 49.6372 83.608 49.9296 84.3096 50.5143C85.0159 51.0943 85.4275 51.9619 85.5444 53.1172H83.173C83.0888 52.5466 82.9064 52.1397 82.6257 51.8964C82.3451 51.6532 81.9475 51.5316 81.433 51.5316C80.8156 51.5316 80.3385 51.7935 80.0017 52.3174C79.6649 52.8413 79.4942 53.5896 79.4895 54.5625V55.18C79.4895 56.1996 79.6626 56.9667 80.0087 57.4812C80.3595 57.9911 80.9091 58.246 81.6575 58.246C82.2983 58.246 82.7754 58.1033 83.0888 57.818V56.2324H81.3769V54.5415H85.5514V58.7371ZM92.785 58.0916H89.4103L88.8209 60H86.1899L89.9365 49.7846H92.2518L96.0264 60H93.3814L92.785 58.0916ZM89.9996 56.1903H92.1956L91.0941 52.6471L89.9996 56.1903ZM102.046 57.2848C102.046 56.9246 101.918 56.644 101.66 56.4428C101.408 56.2417 100.961 56.0336 100.32 55.8184C99.6795 55.6033 99.1556 55.3951 98.7487 55.194C97.425 54.5438 96.7631 53.6504 96.7631 52.5138C96.7631 51.9479 96.9268 51.4497 97.2542 51.0194C97.5863 50.5844 98.0541 50.2476 98.6575 50.0091C99.2608 49.7659 99.9391 49.6443 100.692 49.6443C101.426 49.6443 102.084 49.7752 102.664 50.0372C103.248 50.2991 103.702 50.6733 104.025 51.1597C104.347 51.6415 104.509 52.1934 104.509 52.8155H102.053C102.053 52.3992 101.925 52.0765 101.667 51.8473C101.415 51.6181 101.071 51.5035 100.636 51.5035C100.196 51.5035 99.8479 51.6018 99.5906 51.7982C99.338 51.99 99.2117 52.2355 99.2117 52.5349C99.2117 52.7968 99.352 53.0354 99.6327 53.2505C99.9133 53.461 100.407 53.6809 101.113 53.91C101.819 54.1346 102.399 54.3778 102.853 54.6397C103.957 55.2758 104.509 56.1528 104.509 57.2707C104.509 58.1641 104.172 58.8657 103.499 59.3756C102.825 59.8854 101.901 60.1403 100.727 60.1403C99.8993 60.1403 99.1486 59.993 98.475 59.6983C97.8062 59.399 97.301 58.992 96.9596 58.4775C96.6228 57.9583 96.4544 57.362 96.4544 56.6884H98.9241C98.9241 57.2357 99.0644 57.6403 99.345 57.9022C99.6304 58.1594 100.091 58.2881 100.727 58.2881C101.134 58.2881 101.455 58.2015 101.688 58.0285C101.927 57.8507 102.046 57.6028 102.046 57.2848Z" fill="#222222" fill-opacity="0.8"/>
<path d="M167.017 52V43.236H169.491C170.254 43.236 170.928 43.4045 171.514 43.7416C172.1 44.0787 172.551 44.5582 172.868 45.1802C173.189 45.8022 173.352 46.5165 173.356 47.323V47.8828C173.356 48.7095 173.195 49.4338 172.874 50.0558C172.557 50.6778 172.102 51.1553 171.508 51.4884C170.918 51.8214 170.23 51.992 169.443 52H167.017ZM168.173 44.187V51.055H169.389C170.28 51.055 170.972 50.7781 171.465 50.2243C171.963 49.6706 172.212 48.882 172.212 47.8588V47.3471C172.212 46.3519 171.977 45.5795 171.508 45.0297C171.042 44.4759 170.38 44.195 169.521 44.187H168.173ZM177.635 52.1204C176.752 52.1204 176.034 51.8315 175.48 51.2536C174.927 50.6718 174.65 49.8953 174.65 48.9242V48.7195C174.65 48.0734 174.772 47.4976 175.017 46.992C175.266 46.4824 175.611 46.0851 176.052 45.8002C176.498 45.5112 176.979 45.3668 177.497 45.3668C178.343 45.3668 179.002 45.6457 179.471 46.2035C179.941 46.7612 180.175 47.5598 180.175 48.5991V49.0626H175.763C175.779 49.7047 175.966 50.2243 176.323 50.6216C176.684 51.0148 177.142 51.2115 177.695 51.2115C178.089 51.2115 178.422 51.1312 178.695 50.9707C178.967 50.8102 179.206 50.5975 179.411 50.3327L180.091 50.8624C179.545 51.701 178.727 52.1204 177.635 52.1204ZM177.497 46.2817C177.047 46.2817 176.67 46.4462 176.365 46.7753C176.06 47.1003 175.872 47.5578 175.799 48.1477H179.062V48.0634C179.03 47.4976 178.877 47.0602 178.604 46.7512C178.331 46.4382 177.962 46.2817 177.497 46.2817ZM187.675 46.4864C187.507 46.4583 187.324 46.4442 187.128 46.4442C186.397 46.4442 185.902 46.7552 185.641 47.3772V52H184.527V45.4872H185.611L185.629 46.2396C185.994 45.6577 186.512 45.3668 187.182 45.3668C187.398 45.3668 187.563 45.3949 187.675 45.4511V46.4864ZM191.287 52.1204C190.404 52.1204 189.686 51.8315 189.132 51.2536C188.578 50.6718 188.301 49.8953 188.301 48.9242V48.7195C188.301 48.0734 188.424 47.4976 188.668 46.992C188.917 46.4824 189.262 46.0851 189.704 45.8002C190.149 45.5112 190.631 45.3668 191.148 45.3668C191.995 45.3668 192.653 45.6457 193.123 46.2035C193.592 46.7612 193.827 47.5598 193.827 48.5991V49.0626H189.415C189.431 49.7047 189.618 50.2243 189.975 50.6216C190.336 51.0148 190.793 51.2115 191.347 51.2115C191.74 51.2115 192.073 51.1312 192.346 50.9707C192.619 50.8102 192.858 50.5975 193.063 50.3327L193.743 50.8624C193.197 51.701 192.378 52.1204 191.287 52.1204ZM191.148 46.2817C190.699 46.2817 190.322 46.4462 190.017 46.7753C189.712 47.1003 189.523 47.5578 189.451 48.1477H192.713V48.0634C192.681 47.4976 192.529 47.0602 192.256 46.7512C191.983 46.4382 191.614 46.2817 191.148 46.2817ZM194.856 48.6894C194.856 47.6742 195.091 46.8676 195.561 46.2697C196.03 45.6677 196.652 45.3668 197.426 45.3668C198.221 45.3668 198.841 45.6477 199.286 46.2095L199.341 45.4872H200.358V51.8435C200.358 52.6862 200.107 53.3503 199.605 53.8359C199.108 54.3214 198.438 54.5642 197.595 54.5642C197.126 54.5642 196.666 54.4639 196.217 54.2632C195.767 54.0626 195.424 53.7877 195.187 53.4386L195.765 52.7705C196.243 53.3604 196.827 53.6553 197.517 53.6553C198.059 53.6553 198.48 53.5028 198.781 53.1978C199.086 52.8929 199.238 52.4635 199.238 51.9097V51.3499C198.793 51.8636 198.185 52.1204 197.414 52.1204C196.652 52.1204 196.034 51.8134 195.561 51.1994C195.091 50.5855 194.856 49.7488 194.856 48.6894ZM195.976 48.8158C195.976 49.5502 196.126 50.128 196.427 50.5494C196.728 50.9667 197.15 51.1754 197.691 51.1754C198.394 51.1754 198.909 50.8563 199.238 50.2183V47.2448C198.897 46.6228 198.386 46.3118 197.703 46.3118C197.162 46.3118 196.738 46.5225 196.433 46.9438C196.128 47.3652 195.976 47.9892 195.976 48.8158ZM206.064 52C206 51.8716 205.948 51.6429 205.908 51.3138C205.39 51.8515 204.772 52.1204 204.054 52.1204C203.412 52.1204 202.884 51.9398 202.471 51.5787C202.061 51.2135 201.857 50.752 201.857 50.1942C201.857 49.5161 202.113 48.9904 202.627 48.6172C203.145 48.24 203.871 48.0514 204.806 48.0514H205.89V47.5397C205.89 47.1505 205.773 46.8415 205.54 46.6128C205.308 46.38 204.965 46.2637 204.511 46.2637C204.114 46.2637 203.781 46.364 203.512 46.5646C203.243 46.7653 203.109 47.008 203.109 47.2929H201.989C201.989 46.9679 202.103 46.6549 202.332 46.3539C202.565 46.049 202.878 45.8082 203.271 45.6316C203.668 45.4551 204.104 45.3668 204.577 45.3668C205.328 45.3668 205.916 45.5554 206.341 45.9326C206.766 46.3058 206.987 46.8214 207.003 47.4795V50.4771C207.003 51.075 207.079 51.5506 207.232 51.9037V52H206.064ZM204.216 51.1513C204.565 51.1513 204.896 51.061 205.209 50.8804C205.522 50.6998 205.749 50.4651 205.89 50.1762V48.8399H205.017C203.652 48.8399 202.97 49.2392 202.97 50.0377C202.97 50.3868 203.087 50.6597 203.319 50.8563C203.552 51.053 203.851 51.1513 204.216 51.1513ZM209.959 52H208.845V42.7544H209.959V52ZM211.451 48.6834C211.451 48.0454 211.576 47.4715 211.825 46.9619C212.077 46.4523 212.426 46.059 212.872 45.7821C213.321 45.5052 213.833 45.3668 214.407 45.3668C215.294 45.3668 216.01 45.6738 216.556 46.2877C217.105 46.9017 217.38 47.7183 217.38 48.7376V48.8158C217.38 49.4498 217.258 50.0197 217.013 50.5253C216.772 51.0269 216.425 51.4181 215.972 51.699C215.522 51.9799 215.005 52.1204 214.419 52.1204C213.536 52.1204 212.82 51.8134 212.27 51.1994C211.724 50.5855 211.451 49.7729 211.451 48.7616V48.6834ZM212.571 48.8158C212.571 49.5381 212.737 50.118 213.071 50.5554C213.408 50.9928 213.857 51.2115 214.419 51.2115C214.985 51.2115 215.434 50.9908 215.767 50.5494C216.1 50.1039 216.267 49.4819 216.267 48.6834C216.267 47.9691 216.096 47.3913 215.755 46.9499C215.418 46.5044 214.969 46.2817 214.407 46.2817C213.857 46.2817 213.414 46.5004 213.077 46.9378C212.739 47.3752 212.571 48.0012 212.571 48.8158Z" fill="#222222" fill-opacity="0.8"/>
<path d="M172.531 62.8038C172.531 63.807 172.302 64.6116 171.845 65.2175C171.391 65.8194 170.777 66.1204 170.003 66.1204C169.345 66.1204 168.813 65.8917 168.408 65.4342V68.504H166.668V59.4872H168.281L168.341 60.1252C168.763 59.6196 169.313 59.3668 169.991 59.3668C170.793 59.3668 171.417 59.6637 171.863 60.2576C172.308 60.8515 172.531 61.6702 172.531 62.7135V62.8038ZM170.791 62.6774C170.791 62.0714 170.683 61.6039 170.466 61.2749C170.254 60.9458 169.943 60.7813 169.533 60.7813C168.988 60.7813 168.612 60.99 168.408 61.4073V64.0738C168.62 64.5032 169 64.7179 169.545 64.7179C170.376 64.7179 170.791 64.0377 170.791 62.6774ZM173.343 62.6834C173.343 62.0373 173.468 61.4615 173.717 60.9559C173.965 60.4503 174.323 60.059 174.788 59.7821C175.258 59.5052 175.801 59.3668 176.419 59.3668C177.298 59.3668 178.014 59.6356 178.568 60.1734C179.126 60.7111 179.437 61.4414 179.501 62.3644L179.513 62.8098C179.513 63.809 179.234 64.6116 178.677 65.2175C178.119 65.8194 177.37 66.1204 176.431 66.1204C175.492 66.1204 174.742 65.8194 174.18 65.2175C173.622 64.6156 173.343 63.797 173.343 62.7616V62.6834ZM175.083 62.8098C175.083 63.4278 175.199 63.9013 175.432 64.2303C175.665 64.5554 175.998 64.7179 176.431 64.7179C176.853 64.7179 177.182 64.5574 177.419 64.2364C177.655 63.9113 177.774 63.3937 177.774 62.6834C177.774 62.0775 177.655 61.608 177.419 61.2749C177.182 60.9418 176.849 60.7753 176.419 60.7753C175.994 60.7753 175.665 60.9418 175.432 61.2749C175.199 61.6039 175.083 62.1156 175.083 62.8098ZM184.244 61.1184C184.008 61.0863 183.799 61.0702 183.618 61.0702C182.96 61.0702 182.529 61.2929 182.324 61.7384V66H180.585V59.4872H182.228L182.276 60.2637C182.625 59.6657 183.109 59.3668 183.727 59.3668C183.919 59.3668 184.1 59.3929 184.268 59.445L184.244 61.1184ZM192.31 66H190.571V59.2946L188.494 59.9386V58.5241L192.124 57.2239H192.31V66ZM199.937 59.4872L199.991 60.2155C200.452 59.6497 201.076 59.3668 201.863 59.3668C202.701 59.3668 203.277 59.6978 203.59 60.36C204.048 59.6978 204.7 59.3668 205.546 59.3668C206.253 59.3668 206.778 59.5734 207.124 59.9868C207.469 60.3961 207.641 61.0141 207.641 61.8407V66H205.896V61.8467C205.896 61.4775 205.823 61.2087 205.679 61.0401C205.534 60.8676 205.28 60.7813 204.914 60.7813C204.393 60.7813 204.032 61.0301 203.831 61.5277L203.837 66H202.097V61.8527C202.097 61.4755 202.023 61.2027 201.875 61.0341C201.726 60.8656 201.473 60.7813 201.116 60.7813C200.623 60.7813 200.266 60.986 200.045 61.3953V66H198.305V59.4872H199.937ZM211.981 66.1204C211.026 66.1204 210.248 65.8274 209.646 65.2416C209.048 64.6557 208.749 63.8752 208.749 62.9001V62.7315C208.749 62.0775 208.875 61.4936 209.128 60.9799C209.381 60.4623 209.738 60.065 210.199 59.7881C210.665 59.5072 211.195 59.3668 211.788 59.3668C212.679 59.3668 213.38 59.6477 213.889 60.2095C214.403 60.7713 214.66 61.5678 214.66 62.5991V63.3094H210.512C210.569 63.7348 210.737 64.0758 211.018 64.3327C211.303 64.5895 211.662 64.7179 212.095 64.7179C212.766 64.7179 213.289 64.4751 213.666 63.9896L214.521 64.9466C214.26 65.3158 213.907 65.6047 213.462 65.8134C213.016 66.0181 212.523 66.1204 211.981 66.1204ZM211.782 60.7753C211.437 60.7753 211.156 60.8917 210.94 61.1244C210.727 61.3572 210.591 61.6902 210.53 62.1236H212.95V61.9852C212.942 61.5999 212.838 61.303 212.637 61.0943C212.437 60.8816 212.152 60.7753 211.782 60.7753ZM219.18 64.2002C219.18 63.9876 219.074 63.821 218.861 63.7006C218.652 63.5762 218.315 63.4659 217.85 63.3696C216.301 63.0445 215.526 62.3864 215.526 61.3953C215.526 60.8174 215.765 60.3359 216.243 59.9507C216.724 59.5614 217.352 59.3668 218.127 59.3668C218.953 59.3668 219.613 59.5614 220.107 59.9507C220.605 60.3399 220.853 60.8455 220.853 61.4675H219.114C219.114 61.2187 219.034 61.0141 218.873 60.8535C218.713 60.689 218.462 60.6068 218.121 60.6068C217.828 60.6068 217.601 60.673 217.441 60.8054C217.28 60.9378 217.2 61.1064 217.2 61.311C217.2 61.5036 217.29 61.6601 217.471 61.7805C217.655 61.8969 217.964 61.9992 218.398 62.0875C218.831 62.1718 219.196 62.2681 219.493 62.3764C220.412 62.7135 220.871 63.2974 220.871 64.128C220.871 64.7219 220.617 65.2035 220.107 65.5726C219.597 65.9378 218.939 66.1204 218.133 66.1204C217.587 66.1204 217.101 66.0241 216.676 65.8315C216.255 65.6348 215.924 65.368 215.683 65.0309C215.442 64.6898 215.322 64.3226 215.322 63.9294H216.971C216.987 64.2384 217.101 64.4751 217.314 64.6396C217.527 64.8042 217.812 64.8864 218.169 64.8864C218.502 64.8864 218.753 64.8242 218.921 64.6998C219.094 64.5714 219.18 64.4049 219.18 64.2002Z" fill="#EE3A2B"/>
<rect x="0.5" y="0.5" width="275" height="74" rx="9.5" stroke="#EF3829"/>
</svg>
