<svg width="276" height="75" viewBox="0 0 276 75" fill="none" xmlns="http://www.w3.org/2000/svg">
<rect x="0.5" y="0.5" width="275" height="74" rx="9.5" fill="white"/>
<rect width="207" height="28" transform="translate(30.5 6)" fill="white"/>
<path d="M38.6115 16.0475L34.7948 25H32.2971L36.1208 16.6088H31.2517V14.7846H38.6115V16.0475ZM51.921 23.7371C51.5422 24.1581 50.9879 24.4972 50.2582 24.7544C49.5286 25.0117 48.7287 25.1403 47.8587 25.1403C46.521 25.1403 45.4522 24.7311 44.6524 23.9125C43.8525 23.094 43.4246 21.955 43.3684 20.4957L43.3614 19.6117C43.3614 18.606 43.5392 17.729 43.8946 16.9806C44.2501 16.2276 44.7576 15.6499 45.4171 15.2476C46.0813 14.8407 46.8484 14.6372 47.7184 14.6372C48.9907 14.6372 49.9776 14.9296 50.6792 15.5143C51.3855 16.0943 51.7971 16.9619 51.914 18.1172H49.5426C49.4584 17.5466 49.276 17.1397 48.9953 16.8964C48.7147 16.6532 48.3171 16.5316 47.8026 16.5316C47.1852 16.5316 46.7081 16.7935 46.3713 17.3174C46.0345 17.8413 45.8638 18.5896 45.8591 19.5625V20.18C45.8591 21.1996 46.0322 21.9667 46.3783 22.4812C46.7291 22.9911 47.2787 23.246 48.0271 23.246C48.6679 23.246 49.145 23.1033 49.4584 22.818V21.2324H47.7465V19.5415H51.921V23.7371ZM55.9763 25H53.5207V14.7846H55.9763V25ZM66.0514 23.7371C65.6726 24.1581 65.1183 24.4972 64.3886 24.7544C63.6589 25.0117 62.8591 25.1403 61.9891 25.1403C60.6514 25.1403 59.5826 24.7311 58.7828 23.9125C57.9829 23.094 57.555 21.955 57.4988 20.4957L57.4918 19.6117C57.4918 18.606 57.6695 17.729 58.025 16.9806C58.3805 16.2276 58.888 15.6499 59.5475 15.2476C60.2117 14.8407 60.9788 14.6372 61.8488 14.6372C63.121 14.6372 64.108 14.9296 64.8096 15.5143C65.5159 16.0943 65.9275 16.9619 66.0444 18.1172H63.673C63.5888 17.5466 63.4064 17.1397 63.1257 16.8964C62.8451 16.6532 62.4475 16.5316 61.933 16.5316C61.3156 16.5316 60.8385 16.7935 60.5017 17.3174C60.1649 17.8413 59.9942 18.5896 59.9895 19.5625V20.18C59.9895 21.1996 60.1626 21.9667 60.5087 22.4812C60.8595 22.9911 61.4091 23.246 62.1575 23.246C62.7983 23.246 63.2754 23.1033 63.5888 22.818V21.2324H61.8769V19.5415H66.0514V23.7371ZM73.285 23.0916H69.9103L69.3209 25H66.6899L70.4365 14.7846H72.7518L76.5264 25H73.8814L73.285 23.0916ZM70.4996 21.1903H72.6957L71.5941 17.6471L70.4996 21.1903ZM82.5462 22.2848C82.5462 21.9246 82.4176 21.644 82.1603 21.4428C81.9078 21.2417 81.4611 21.0336 80.8203 20.8184C80.1795 20.6033 79.6556 20.3951 79.2487 20.194C77.925 19.5438 77.2631 18.6504 77.2631 17.5138C77.2631 16.9479 77.4268 16.4497 77.7542 16.0194C78.0863 15.5844 78.5541 15.2476 79.1575 15.0091C79.7608 14.7659 80.4391 14.6443 81.1921 14.6443C81.9265 14.6443 82.5837 14.7752 83.1636 15.0372C83.7483 15.2991 84.202 15.6733 84.5248 16.1597C84.8475 16.6415 85.0089 17.1934 85.0089 17.8155H82.5532C82.5532 17.3992 82.4246 17.0765 82.1674 16.8473C81.9148 16.6181 81.571 16.5035 81.136 16.5035C80.6963 16.5035 80.3479 16.6018 80.0906 16.7982C79.838 16.99 79.7117 17.2355 79.7117 17.5349C79.7117 17.7968 79.8521 18.0354 80.1327 18.2505C80.4133 18.461 80.9068 18.6809 81.6131 18.91C82.3194 19.1346 82.8994 19.3778 83.3531 19.6397C84.4569 20.2758 85.0089 21.1528 85.0089 22.2707C85.0089 23.1641 84.6721 23.8657 83.9986 24.3756C83.325 24.8854 82.4012 25.1403 81.2272 25.1403C80.3993 25.1403 79.6486 24.993 78.975 24.6983C78.3062 24.399 77.801 23.992 77.4596 23.4775C77.1228 22.9583 76.9544 22.362 76.9544 21.6884H79.4241C79.4241 22.2357 79.5644 22.6403 79.845 22.9022C80.1304 23.1594 80.5911 23.2881 81.2272 23.2881C81.6341 23.2881 81.9545 23.2015 82.1884 23.0285C82.427 22.8507 82.5462 22.6028 82.5462 22.2848Z" fill="#222222" fill-opacity="0.8"/>
<path d="M167.673 13.569V17H166.517V8.23597H169.75C170.709 8.23597 171.459 8.48076 172.001 8.97032C172.547 9.45989 172.819 10.108 172.819 10.9145C172.819 11.7653 172.553 12.4214 172.019 12.8828C171.489 13.3403 170.729 13.569 169.738 13.569H167.673ZM167.673 12.624H169.75C170.368 12.624 170.841 12.4795 171.17 12.1906C171.499 11.8977 171.664 11.4763 171.664 10.9266C171.664 10.4049 171.499 9.98757 171.17 9.67457C170.841 9.36157 170.39 9.19905 169.816 9.18701H167.673V12.624ZM178.068 17C178.004 16.8716 177.952 16.6429 177.912 16.3138C177.394 16.8515 176.776 17.1204 176.058 17.1204C175.416 17.1204 174.888 16.9398 174.475 16.5787C174.065 16.2135 173.861 15.752 173.861 15.1942C173.861 14.5161 174.118 13.9904 174.631 13.6172C175.149 13.24 175.875 13.0514 176.81 13.0514H177.894V12.5397C177.894 12.1505 177.777 11.8415 177.545 11.6128C177.312 11.38 176.969 11.2637 176.515 11.2637C176.118 11.2637 175.785 11.364 175.516 11.5646C175.247 11.7653 175.113 12.008 175.113 12.2929H173.993C173.993 11.9679 174.108 11.6549 174.336 11.3539C174.569 11.049 174.882 10.8082 175.275 10.6316C175.673 10.4551 176.108 10.3668 176.581 10.3668C177.332 10.3668 177.92 10.5554 178.345 10.9326C178.77 11.3058 178.991 11.8214 179.007 12.4795V15.4771C179.007 16.075 179.083 16.5506 179.236 16.9037V17H178.068ZM176.22 16.1513C176.569 16.1513 176.9 16.061 177.213 15.8804C177.526 15.6998 177.753 15.4651 177.894 15.1762V13.8399H177.021C175.656 13.8399 174.974 14.2392 174.974 15.0377C174.974 15.3868 175.091 15.6597 175.323 15.8563C175.556 16.053 175.855 16.1513 176.22 16.1513ZM183.901 11.4864C183.732 11.4583 183.55 11.4442 183.353 11.4442C182.623 11.4442 182.127 11.7552 181.866 12.3772V17H180.753V10.4872H181.836L181.854 11.2396C182.219 10.6577 182.737 10.3668 183.407 10.3668C183.624 10.3668 183.788 10.3949 183.901 10.4511V11.4864ZM188.71 17C188.646 16.8716 188.594 16.6429 188.554 16.3138C188.036 16.8515 187.418 17.1204 186.7 17.1204C186.058 17.1204 185.53 16.9398 185.117 16.5787C184.707 16.2135 184.503 15.752 184.503 15.1942C184.503 14.5161 184.76 13.9904 185.273 13.6172C185.791 13.24 186.517 13.0514 187.452 13.0514H188.536V12.5397C188.536 12.1505 188.419 11.8415 188.187 11.6128C187.954 11.38 187.611 11.2637 187.157 11.2637C186.76 11.2637 186.427 11.364 186.158 11.5646C185.889 11.7653 185.755 12.008 185.755 12.2929H184.635C184.635 11.9679 184.75 11.6549 184.978 11.3539C185.211 11.049 185.524 10.8082 185.917 10.6316C186.315 10.4551 186.75 10.3668 187.223 10.3668C187.974 10.3668 188.562 10.5554 188.987 10.9326C189.412 11.3058 189.633 11.8214 189.649 12.4795V15.4771C189.649 16.075 189.725 16.5506 189.878 16.9037V17H188.71ZM186.862 16.1513C187.211 16.1513 187.542 16.061 187.855 15.8804C188.168 15.6998 188.395 15.4651 188.536 15.1762V13.8399H187.663C186.299 13.8399 185.616 14.2392 185.616 15.0377C185.616 15.3868 185.733 15.6597 185.965 15.8563C186.198 16.053 186.497 16.1513 186.862 16.1513Z" fill="#222222" fill-opacity="0.8"/>
<path d="M167.769 24.4872L167.823 25.2396C168.289 24.6577 168.913 24.3668 169.695 24.3668C170.386 24.3668 170.899 24.5694 171.236 24.9747C171.573 25.38 171.746 25.986 171.754 26.7925V31H170.014V26.8347C170.014 26.4655 169.934 26.1986 169.774 26.0341C169.613 25.8656 169.346 25.7813 168.973 25.7813C168.484 25.7813 168.116 25.99 167.872 26.4073V31H166.132V24.4872H167.769ZM176.852 31C176.772 30.8435 176.714 30.6489 176.678 30.4161C176.256 30.8856 175.709 31.1204 175.034 31.1204C174.396 31.1204 173.867 30.9358 173.445 30.5666C173.028 30.1974 172.819 29.7319 172.819 29.1701C172.819 28.4799 173.074 27.9502 173.584 27.5811C174.097 27.2119 174.838 27.0253 175.805 27.0213H176.606V26.6481C176.606 26.3471 176.527 26.1064 176.371 25.9258C176.218 25.7452 175.975 25.6549 175.642 25.6549C175.349 25.6549 175.119 25.7251 174.95 25.8656C174.786 26.006 174.703 26.1986 174.703 26.4434H172.964C172.964 26.0662 173.08 25.7171 173.313 25.3961C173.546 25.0751 173.875 24.8243 174.3 24.6437C174.726 24.4591 175.203 24.3668 175.733 24.3668C176.535 24.3668 177.171 24.5694 177.641 24.9747C178.114 25.376 178.351 25.9418 178.351 26.6722V29.4952C178.355 30.1132 178.441 30.5807 178.61 30.8977V31H176.852ZM175.414 29.7901C175.671 29.7901 175.907 29.734 176.124 29.6216C176.341 29.5052 176.501 29.3507 176.606 29.1581V28.0385H175.955C175.085 28.0385 174.621 28.3395 174.565 28.9414L174.559 29.0437C174.559 29.2604 174.635 29.439 174.788 29.5795C174.94 29.7199 175.149 29.7901 175.414 29.7901ZM182.029 28.8752L183.239 24.4872H185.057L182.86 31H181.198L179.001 24.4872H180.819L182.029 28.8752ZM188.74 31.1204C187.785 31.1204 187.007 30.8274 186.405 30.2416C185.807 29.6557 185.508 28.8752 185.508 27.9001V27.7315C185.508 27.0775 185.634 26.4936 185.887 25.9799C186.14 25.4623 186.497 25.065 186.959 24.7881C187.424 24.5072 187.954 24.3668 188.548 24.3668C189.439 24.3668 190.139 24.6477 190.648 25.2095C191.162 25.7713 191.419 26.5678 191.419 27.5991V28.3094H187.272C187.328 28.7348 187.496 29.0758 187.777 29.3327C188.062 29.5895 188.421 29.7179 188.855 29.7179C189.525 29.7179 190.049 29.4751 190.426 28.9896L191.28 29.9466C191.02 30.3158 190.666 30.6047 190.221 30.8134C189.776 31.0181 189.282 31.1204 188.74 31.1204ZM188.542 25.7753C188.197 25.7753 187.916 25.8917 187.699 26.1244C187.486 26.3572 187.35 26.6902 187.29 27.1236H189.709V26.9852C189.701 26.5999 189.597 26.303 189.396 26.0943C189.196 25.8816 188.911 25.7753 188.542 25.7753ZM192.159 27.6954C192.159 26.6962 192.396 25.8917 192.87 25.2817C193.347 24.6718 193.989 24.3668 194.796 24.3668C195.51 24.3668 196.066 24.6116 196.463 25.1011L196.535 24.4872H198.112V30.7833C198.112 31.3531 197.982 31.8487 197.721 32.2701C197.464 32.6914 197.101 33.0124 196.632 33.2331C196.162 33.4538 195.612 33.5642 194.982 33.5642C194.505 33.5642 194.039 33.4679 193.586 33.2753C193.132 33.0867 192.789 32.8419 192.557 32.5409L193.327 31.4815C193.76 31.9671 194.286 32.2099 194.904 32.2099C195.366 32.2099 195.725 32.0855 195.981 31.8367C196.238 31.5919 196.367 31.2428 196.367 30.7893V30.4402C195.965 30.8937 195.438 31.1204 194.784 31.1204C194.001 31.1204 193.367 30.8154 192.882 30.2055C192.4 29.5915 192.159 28.7789 192.159 27.7677V27.6954ZM193.899 27.8218C193.899 28.4117 194.017 28.8752 194.254 29.2123C194.491 29.5453 194.816 29.7119 195.229 29.7119C195.759 29.7119 196.138 29.5132 196.367 29.116V26.3772C196.134 25.9799 195.759 25.7813 195.241 25.7813C194.824 25.7813 194.495 25.9519 194.254 26.2929C194.017 26.634 193.899 27.1437 193.899 27.8218ZM203.229 31C203.148 30.8435 203.09 30.6489 203.054 30.4161C202.633 30.8856 202.085 31.1204 201.411 31.1204C200.773 31.1204 200.243 30.9358 199.822 30.5666C199.404 30.1974 199.196 29.7319 199.196 29.1701C199.196 28.4799 199.451 27.9502 199.96 27.5811C200.474 27.2119 201.214 27.0253 202.181 27.0213H202.982V26.6481C202.982 26.3471 202.904 26.1064 202.747 25.9258C202.595 25.7452 202.352 25.6549 202.019 25.6549C201.726 25.6549 201.495 25.7251 201.327 25.8656C201.162 26.006 201.08 26.1986 201.08 26.4434H199.34C199.34 26.0662 199.457 25.7171 199.689 25.3961C199.922 25.0751 200.251 24.8243 200.676 24.6437C201.102 24.4591 201.579 24.3668 202.109 24.3668C202.912 24.3668 203.548 24.5694 204.017 24.9747C204.491 25.376 204.727 25.9418 204.727 26.6722V29.4952C204.731 30.1132 204.818 30.5807 204.986 30.8977V31H203.229ZM201.79 29.7901C202.047 29.7901 202.284 29.734 202.5 29.6216C202.717 29.5052 202.878 29.3507 202.982 29.1581V28.0385H202.332C201.461 28.0385 200.998 28.3395 200.941 28.9414L200.935 29.0437C200.935 29.2604 201.012 29.439 201.164 29.5795C201.317 29.7199 201.525 29.7901 201.79 29.7901ZM209.723 26.1184C209.487 26.0863 209.278 26.0702 209.097 26.0702C208.439 26.0702 208.008 26.2929 207.803 26.7384V31H206.064V24.4872H207.707L207.755 25.2637C208.104 24.6657 208.588 24.3668 209.206 24.3668C209.398 24.3668 209.579 24.3929 209.748 24.445L209.723 26.1184Z" fill="#EE3A2B"/>
<rect width="208" height="28" transform="translate(30 41)" fill="white"/>
<path d="M35.0583 54.2047H37.4508V56.2324H35.0583V58.9757H32.8483V56.2324H30.4488V54.2047H32.8483V51.5386H35.0583V54.2047ZM44.1722 53.903H45.2878C46.1718 53.903 46.6138 53.4704 46.6138 52.6051C46.6138 52.2683 46.5086 51.9947 46.2981 51.7842C46.0876 51.569 45.7906 51.4614 45.407 51.4614C45.0937 51.4614 44.82 51.5526 44.5862 51.7351C44.357 51.9175 44.2424 52.1443 44.2424 52.4156H41.878C41.878 51.8777 42.0276 51.3983 42.327 50.9773C42.6263 50.5564 43.0403 50.2289 43.5688 49.9951C44.1021 49.7565 44.6867 49.6372 45.3229 49.6372C46.4595 49.6372 47.3528 49.8968 48.003 50.416C48.6532 50.9352 48.9782 51.6485 48.9782 52.5559C48.9782 52.9956 48.8426 53.4119 48.5713 53.8048C48.3047 54.193 47.9141 54.5087 47.3996 54.752C47.9422 54.9484 48.3678 55.2478 48.6765 55.65C48.9852 56.0476 49.1396 56.5411 49.1396 57.1304C49.1396 58.0425 48.7888 58.7722 48.0872 59.3194C47.3856 59.8667 46.4641 60.1403 45.3229 60.1403C44.654 60.1403 44.0319 60.014 43.4566 59.7615C42.8859 59.5042 42.4533 59.1511 42.1586 58.702C41.8639 58.2483 41.7166 57.7338 41.7166 57.1585H44.095C44.095 57.4719 44.2213 57.7432 44.4739 57.9724C44.7265 58.2015 45.0375 58.3161 45.407 58.3161C45.8233 58.3161 46.1554 58.2015 46.4033 57.9724C46.6512 57.7385 46.7752 57.4415 46.7752 57.0813C46.7752 56.5668 46.6466 56.202 46.3893 55.9868C46.132 55.7716 45.7766 55.6641 45.3229 55.6641H44.1722V53.903ZM62.421 58.7371C62.0422 59.1581 61.4879 59.4972 60.7582 59.7544C60.0286 60.0117 59.2287 60.1403 58.3587 60.1403C57.021 60.1403 55.9522 59.7311 55.1524 58.9125C54.3526 58.094 53.9246 56.955 53.8684 55.4957L53.8614 54.6117C53.8614 53.606 54.0392 52.729 54.3946 51.9806C54.7501 51.2276 55.2576 50.6499 55.9171 50.2476C56.5813 49.8407 57.3484 49.6372 58.2184 49.6372C59.4907 49.6372 60.4776 49.9296 61.1792 50.5143C61.8855 51.0943 62.2971 51.9619 62.414 53.1172H60.0426C59.9584 52.5466 59.776 52.1397 59.4953 51.8964C59.2147 51.6532 58.8171 51.5316 58.3026 51.5316C57.6852 51.5316 57.2081 51.7935 56.8713 52.3174C56.5346 52.8413 56.3638 53.5896 56.3591 54.5625V55.18C56.3591 56.1996 56.5322 56.9667 56.8783 57.4812C57.2291 57.9911 57.7787 58.246 58.5271 58.246C59.1679 58.246 59.645 58.1033 59.9584 57.818V56.2324H58.2465V54.5415H62.421V58.7371ZM66.4763 60H64.0207V49.7846H66.4763V60ZM76.5514 58.7371C76.1726 59.1581 75.6183 59.4972 74.8886 59.7544C74.1589 60.0117 73.3591 60.1403 72.4891 60.1403C71.1514 60.1403 70.0826 59.7311 69.2828 58.9125C68.4829 58.094 68.055 56.955 67.9988 55.4957L67.9918 54.6117C67.9918 53.606 68.1695 52.729 68.525 51.9806C68.8805 51.2276 69.388 50.6499 70.0475 50.2476C70.7117 49.8407 71.4788 49.6372 72.3488 49.6372C73.621 49.6372 74.608 49.9296 75.3096 50.5143C76.0159 51.0943 76.4275 51.9619 76.5444 53.1172H74.173C74.0888 52.5466 73.9064 52.1397 73.6257 51.8964C73.3451 51.6532 72.9475 51.5316 72.433 51.5316C71.8156 51.5316 71.3385 51.7935 71.0017 52.3174C70.6649 52.8413 70.4942 53.5896 70.4895 54.5625V55.18C70.4895 56.1996 70.6626 56.9667 71.0087 57.4812C71.3595 57.9911 71.9091 58.246 72.6575 58.246C73.2983 58.246 73.7754 58.1033 74.0888 57.818V56.2324H72.3769V54.5415H76.5514V58.7371ZM83.785 58.0916H80.4103L79.8209 60H77.1899L80.9365 49.7846H83.2518L87.0264 60H84.3814L83.785 58.0916ZM80.9996 56.1903H83.1957L82.0941 52.6471L80.9996 56.1903ZM93.0462 57.2848C93.0462 56.9246 92.9176 56.644 92.6603 56.4428C92.4078 56.2417 91.9611 56.0336 91.3203 55.8184C90.6795 55.6033 90.1556 55.3951 89.7487 55.194C88.425 54.5438 87.7631 53.6504 87.7631 52.5138C87.7631 51.9479 87.9268 51.4497 88.2542 51.0194C88.5863 50.5844 89.0541 50.2476 89.6575 50.0091C90.2608 49.7659 90.9391 49.6443 91.6921 49.6443C92.4265 49.6443 93.0837 49.7752 93.6636 50.0372C94.2483 50.2991 94.702 50.6733 95.0248 51.1597C95.3475 51.6415 95.5089 52.1934 95.5089 52.8155H93.0532C93.0532 52.3992 92.9246 52.0765 92.6674 51.8473C92.4148 51.6181 92.071 51.5035 91.636 51.5035C91.1963 51.5035 90.8479 51.6018 90.5906 51.7982C90.338 51.99 90.2117 52.2355 90.2117 52.5349C90.2117 52.7968 90.3521 53.0354 90.6327 53.2505C90.9133 53.461 91.4068 53.6809 92.1131 53.91C92.8194 54.1346 93.3994 54.3778 93.8531 54.6397C94.9569 55.2758 95.5089 56.1528 95.5089 57.2707C95.5089 58.1641 95.1721 58.8657 94.4986 59.3756C93.825 59.8854 92.9012 60.1403 91.7272 60.1403C90.8993 60.1403 90.1486 59.993 89.475 59.6983C88.8062 59.399 88.301 58.992 87.9596 58.4775C87.6228 57.9583 87.4544 57.362 87.4544 56.6884H89.9241C89.9241 57.2357 90.0644 57.6403 90.345 57.9022C90.6304 58.1594 91.0911 58.2881 91.7272 58.2881C92.1341 58.2881 92.4545 58.2015 92.6884 58.0285C92.927 57.8507 93.0462 57.6028 93.0462 57.2848Z" fill="#222222" fill-opacity="0.8"/>
<path d="M171.971 47.949H168.173V51.055H172.585V52H167.017V43.236H172.525V44.187H168.173V47.004H171.971V47.949ZM176.034 47.8648L177.479 45.4872H178.779L176.648 48.7075L178.845 52H177.557L176.052 49.5622L174.547 52H173.253L175.45 48.7075L173.319 45.4872H174.608L176.034 47.8648ZM182.457 51.2115C182.854 51.2115 183.201 51.0911 183.498 50.8503C183.795 50.6096 183.959 50.3086 183.992 49.9474H185.045C185.025 50.3206 184.896 50.6758 184.66 51.0128C184.423 51.3499 184.106 51.6188 183.709 51.8194C183.315 52.0201 182.898 52.1204 182.457 52.1204C181.57 52.1204 180.864 51.8254 180.338 51.2356C179.816 50.6417 179.555 49.8311 179.555 48.8038V48.6172C179.555 47.9832 179.672 47.4194 179.904 46.9258C180.137 46.4322 180.47 46.049 180.904 45.7761C181.341 45.5032 181.857 45.3668 182.451 45.3668C183.181 45.3668 183.787 45.5855 184.268 46.0229C184.754 46.4603 185.013 47.0281 185.045 47.7263H183.992C183.959 47.305 183.799 46.9599 183.51 46.691C183.225 46.4181 182.872 46.2817 182.451 46.2817C181.885 46.2817 181.445 46.4864 181.132 46.8957C180.823 47.301 180.669 47.8889 180.669 48.6593V48.87C180.669 49.6204 180.823 50.1982 181.132 50.6035C181.441 51.0088 181.883 51.2115 182.457 51.2115ZM187.507 52H186.393V42.7544H187.507V52ZM193.315 51.3559C192.882 51.8656 192.246 52.1204 191.407 52.1204C190.713 52.1204 190.183 51.9197 189.818 51.5185C189.457 51.1132 189.274 50.5153 189.27 49.7247V45.4872H190.384V49.6946C190.384 50.6818 190.785 51.1754 191.588 51.1754C192.439 51.1754 193.004 50.8583 193.285 50.2243V45.4872H194.399V52H193.339L193.315 51.3559ZM199.888 50.2725C199.888 49.9715 199.774 49.7388 199.545 49.5742C199.321 49.4057 198.925 49.2612 198.359 49.1409C197.798 49.0205 197.35 48.876 197.017 48.7075C196.688 48.5389 196.443 48.3383 196.283 48.1055C196.126 47.8728 196.048 47.5959 196.048 47.2749C196.048 46.7412 196.273 46.2897 196.722 45.9206C197.176 45.5514 197.754 45.3668 198.456 45.3668C199.194 45.3668 199.792 45.5574 200.25 45.9386C200.711 46.3198 200.942 46.8074 200.942 47.4013H199.822C199.822 47.0963 199.692 46.8335 199.431 46.6128C199.174 46.3921 198.849 46.2817 198.456 46.2817C198.05 46.2817 197.733 46.37 197.505 46.5466C197.276 46.7231 197.162 46.9539 197.162 47.2388C197.162 47.5076 197.268 47.7103 197.481 47.8467C197.693 47.9832 198.077 48.1136 198.63 48.238C199.188 48.3624 199.64 48.5108 199.985 48.6834C200.33 48.8559 200.585 49.0646 200.749 49.3094C200.918 49.5502 201.002 49.8451 201.002 50.1942C201.002 50.7761 200.769 51.2436 200.304 51.5967C199.838 51.9458 199.234 52.1204 198.492 52.1204C197.97 52.1204 197.509 52.0281 197.107 51.8435C196.706 51.6589 196.391 51.4021 196.162 51.073C195.938 50.74 195.825 50.3808 195.825 49.9956H196.939C196.959 50.3688 197.107 50.6657 197.384 50.8864C197.665 51.1031 198.034 51.2115 198.492 51.2115C198.913 51.2115 199.25 51.1272 199.503 50.9587C199.76 50.7861 199.888 50.5574 199.888 50.2725ZM203.662 52H202.549V45.4872H203.662V52ZM202.459 43.7596C202.459 43.5791 202.513 43.4266 202.621 43.3022C202.733 43.1778 202.898 43.1156 203.115 43.1156C203.331 43.1156 203.496 43.1778 203.608 43.3022C203.721 43.4266 203.777 43.5791 203.777 43.7596C203.777 43.9402 203.721 44.0907 203.608 44.2111C203.496 44.3315 203.331 44.3917 203.115 44.3917C202.898 44.3917 202.733 44.3315 202.621 44.2111C202.513 44.0907 202.459 43.9402 202.459 43.7596ZM207.599 50.4892L209.212 45.4872H210.35L208.014 52H207.166L204.806 45.4872H205.944L207.599 50.4892ZM211.03 48.6834C211.03 48.0454 211.154 47.4715 211.403 46.9619C211.656 46.4523 212.005 46.059 212.451 45.7821C212.9 45.5052 213.412 45.3668 213.985 45.3668C214.872 45.3668 215.589 45.6738 216.134 46.2877C216.684 46.9017 216.959 47.7183 216.959 48.7376V48.8158C216.959 49.4498 216.837 50.0197 216.592 50.5253C216.351 51.0269 216.004 51.4181 215.55 51.699C215.101 51.9799 214.583 52.1204 213.997 52.1204C213.115 52.1204 212.398 51.8134 211.849 51.1994C211.303 50.5855 211.03 49.7729 211.03 48.7616V48.6834ZM212.15 48.8158C212.15 49.5381 212.316 50.118 212.649 50.5554C212.986 50.9928 213.436 51.2115 213.997 51.2115C214.563 51.2115 215.013 50.9908 215.346 50.5494C215.679 50.1039 215.845 49.4819 215.845 48.6834C215.845 47.9691 215.675 47.3913 215.334 46.9499C214.997 46.5044 214.547 46.2817 213.985 46.2817C213.436 46.2817 212.992 46.5004 212.655 46.9378C212.318 47.3752 212.15 48.0012 212.15 48.8158Z" fill="#222222" fill-opacity="0.8"/>
<path d="M172.531 62.8038C172.531 63.807 172.302 64.6116 171.845 65.2175C171.391 65.8194 170.777 66.1204 170.003 66.1204C169.345 66.1204 168.813 65.8917 168.408 65.4342V68.504H166.668V59.4872H168.281L168.341 60.1252C168.763 59.6196 169.313 59.3668 169.991 59.3668C170.793 59.3668 171.417 59.6637 171.863 60.2576C172.308 60.8515 172.531 61.6702 172.531 62.7135V62.8038ZM170.791 62.6774C170.791 62.0714 170.683 61.6039 170.466 61.2749C170.254 60.9458 169.943 60.7813 169.533 60.7813C168.988 60.7813 168.612 60.99 168.408 61.4073V64.0738C168.62 64.5032 169 64.7179 169.545 64.7179C170.376 64.7179 170.791 64.0377 170.791 62.6774ZM177.388 66C177.308 65.8435 177.25 65.6489 177.214 65.4161C176.793 65.8856 176.245 66.1204 175.571 66.1204C174.933 66.1204 174.403 65.9358 173.982 65.5666C173.564 65.1974 173.356 64.7319 173.356 64.1701C173.356 63.4799 173.61 62.9502 174.12 62.5811C174.634 62.2119 175.374 62.0253 176.341 62.0213H177.142V61.6481C177.142 61.3471 177.063 61.1064 176.907 60.9258C176.754 60.7452 176.512 60.6549 176.179 60.6549C175.886 60.6549 175.655 60.7251 175.486 60.8656C175.322 61.006 175.24 61.1986 175.24 61.4434H173.5C173.5 61.0662 173.616 60.7171 173.849 60.3961C174.082 60.0751 174.411 59.8243 174.836 59.6437C175.262 59.4591 175.739 59.3668 176.269 59.3668C177.071 59.3668 177.707 59.5694 178.177 59.9747C178.65 60.376 178.887 60.9418 178.887 61.6722V64.4952C178.891 65.1132 178.978 65.5807 179.146 65.8977V66H177.388ZM175.95 64.7901C176.207 64.7901 176.443 64.734 176.66 64.6216C176.877 64.5052 177.037 64.3507 177.142 64.1581V63.0385H176.492C175.621 63.0385 175.157 63.3395 175.101 63.9414L175.095 64.0437C175.095 64.2604 175.171 64.439 175.324 64.5795C175.476 64.7199 175.685 64.7901 175.95 64.7901ZM183.883 61.1184C183.646 61.0863 183.438 61.0702 183.257 61.0702C182.599 61.0702 182.168 61.2929 181.963 61.7384V66H180.223V59.4872H181.867L181.915 60.2637C182.264 59.6657 182.748 59.3668 183.366 59.3668C183.558 59.3668 183.739 59.3929 183.907 59.445L183.883 61.1184ZM188.319 66C188.239 65.8435 188.181 65.6489 188.145 65.4161C187.723 65.8856 187.176 66.1204 186.502 66.1204C185.864 66.1204 185.334 65.9358 184.912 65.5666C184.495 65.1974 184.286 64.7319 184.286 64.1701C184.286 63.4799 184.541 62.9502 185.051 62.5811C185.565 62.2119 186.305 62.0253 187.272 62.0213H188.073V61.6481C188.073 61.3471 187.994 61.1064 187.838 60.9258C187.685 60.7452 187.443 60.6549 187.11 60.6549C186.817 60.6549 186.586 60.7251 186.417 60.8656C186.253 61.006 186.171 61.1986 186.171 61.4434H184.431C184.431 61.0662 184.547 60.7171 184.78 60.3961C185.013 60.0751 185.342 59.8243 185.767 59.6437C186.193 59.4591 186.67 59.3668 187.2 59.3668C188.002 59.3668 188.638 59.5694 189.108 59.9747C189.581 60.376 189.818 60.9418 189.818 61.6722V64.4952C189.822 65.1132 189.908 65.5807 190.077 65.8977V66H188.319ZM186.881 64.7901C187.138 64.7901 187.374 64.734 187.591 64.6216C187.808 64.5052 187.968 64.3507 188.073 64.1581V63.0385H187.423C186.552 63.0385 186.088 63.3395 186.032 63.9414L186.026 64.0437C186.026 64.2604 186.102 64.439 186.255 64.5795C186.407 64.7199 186.616 64.7901 186.881 64.7901ZM197.884 61.1184C197.647 61.0863 197.439 61.0702 197.258 61.0702C196.6 61.0702 196.168 61.2929 195.964 61.7384V66H194.224V59.4872H195.868L195.916 60.2637C196.265 59.6657 196.748 59.3668 197.366 59.3668C197.559 59.3668 197.739 59.3929 197.908 59.445L197.884 61.1184ZM201.604 66.1204C200.649 66.1204 199.87 65.8274 199.268 65.2416C198.67 64.6557 198.372 63.8752 198.372 62.9001V62.7315C198.372 62.0775 198.498 61.4936 198.751 60.9799C199.004 60.4623 199.361 60.065 199.822 59.7881C200.288 59.5072 200.817 59.3668 201.411 59.3668C202.302 59.3668 203.002 59.6477 203.512 60.2095C204.026 60.7713 204.282 61.5678 204.282 62.5991V63.3094H200.135C200.191 63.7348 200.36 64.0758 200.641 64.3327C200.926 64.5895 201.285 64.7179 201.718 64.7179C202.388 64.7179 202.912 64.4751 203.289 63.9896L204.144 64.9466C203.883 65.3158 203.53 65.6047 203.085 65.8134C202.639 66.0181 202.146 66.1204 201.604 66.1204ZM201.405 60.7753C201.06 60.7753 200.779 60.8917 200.563 61.1244C200.35 61.3572 200.213 61.6902 200.153 62.1236H202.573V61.9852C202.565 61.5999 202.461 61.303 202.26 61.0943C202.059 60.8816 201.774 60.7753 201.405 60.7753ZM205.005 62.6954C205.005 61.6802 205.231 60.8716 205.685 60.2697C206.142 59.6677 206.766 59.3668 207.557 59.3668C208.191 59.3668 208.715 59.6035 209.128 60.0771V56.7544H210.874V66H209.302L209.218 65.3078C208.785 65.8495 208.227 66.1204 207.545 66.1204C206.778 66.1204 206.162 65.8194 205.697 65.2175C205.235 64.6116 205.005 63.7709 205.005 62.6954ZM206.744 62.8218C206.744 63.4318 206.851 63.8993 207.063 64.2243C207.276 64.5494 207.585 64.7119 207.99 64.7119C208.528 64.7119 208.907 64.4852 209.128 64.0317V61.4615C208.911 61.008 208.536 60.7813 208.002 60.7813C207.164 60.7813 206.744 61.4615 206.744 62.8218ZM215.219 66.1204C214.264 66.1204 213.486 65.8274 212.884 65.2416C212.286 64.6557 211.987 63.8752 211.987 62.9001V62.7315C211.987 62.0775 212.113 61.4936 212.366 60.9799C212.619 60.4623 212.976 60.065 213.438 59.7881C213.903 59.5072 214.433 59.3668 215.027 59.3668C215.918 59.3668 216.618 59.6477 217.128 60.2095C217.641 60.7713 217.898 61.5678 217.898 62.5991V63.3094H213.751C213.807 63.7348 213.975 64.0758 214.256 64.3327C214.541 64.5895 214.9 64.7179 215.334 64.7179C216.004 64.7179 216.528 64.4751 216.905 63.9896L217.76 64.9466C217.499 65.3158 217.146 65.6047 216.7 65.8134C216.255 66.0181 215.761 66.1204 215.219 66.1204ZM215.021 60.7753C214.676 60.7753 214.395 60.8917 214.178 61.1244C213.965 61.3572 213.829 61.6902 213.769 62.1236H216.188V61.9852C216.18 61.5999 216.076 61.303 215.875 61.0943C215.675 60.8816 215.39 60.7753 215.021 60.7753ZM222.418 64.2002C222.418 63.9876 222.312 63.821 222.099 63.7006C221.891 63.5762 221.554 63.4659 221.088 63.3696C219.539 63.0445 218.765 62.3864 218.765 61.3953C218.765 60.8174 219.004 60.3359 219.481 59.9507C219.963 59.5614 220.591 59.3668 221.365 59.3668C222.192 59.3668 222.852 59.5614 223.345 59.9507C223.843 60.3399 224.092 60.8455 224.092 61.4675H222.352C222.352 61.2187 222.272 61.0141 222.111 60.8535C221.951 60.689 221.7 60.6068 221.359 60.6068C221.066 60.6068 220.839 60.673 220.679 60.8054C220.518 60.9378 220.438 61.1064 220.438 61.311C220.438 61.5036 220.528 61.6601 220.709 61.7805C220.894 61.8969 221.203 61.9992 221.636 62.0875C222.069 62.1718 222.434 62.2681 222.731 62.3764C223.65 62.7135 224.11 63.2974 224.11 64.128C224.11 64.7219 223.855 65.2035 223.345 65.5726C222.836 65.9378 222.178 66.1204 221.371 66.1204C220.825 66.1204 220.34 66.0241 219.914 65.8315C219.493 65.6348 219.162 65.368 218.921 65.0309C218.68 64.6898 218.56 64.3226 218.56 63.9294H220.209C220.225 64.2384 220.34 64.4751 220.552 64.6396C220.765 64.8042 221.05 64.8864 221.407 64.8864C221.74 64.8864 221.991 64.8242 222.16 64.6998C222.332 64.5714 222.418 64.4049 222.418 64.2002Z" fill="#EE392A"/>
<rect x="0.5" y="0.5" width="275" height="74" rx="9.5" stroke="#EF3829"/>
</svg>
