<svg width="135" height="104" viewBox="0 0 135 104" fill="none" xmlns="http://www.w3.org/2000/svg">
<rect x="0.852943" width="133.294" height="38.3725" rx="8.91657" fill="#FCAB10"/>
<path d="M52.0393 15.8976C51.5601 16.4301 50.8589 16.8591 49.9359 17.1845C49.0129 17.5099 48.0011 17.6726 46.9006 17.6726C45.2084 17.6726 43.8564 17.1549 42.8446 16.1195C41.8328 15.084 41.2914 13.6433 41.2204 11.7972L41.2116 10.6789C41.2116 9.40682 41.4364 8.29742 41.8861 7.35073C42.3358 6.39812 42.9777 5.66739 43.812 5.15855C44.6522 4.64379 45.6226 4.3864 46.7231 4.3864C48.3325 4.3864 49.5809 4.7562 50.4684 5.49581C51.3619 6.22949 51.8826 7.32706 52.0305 8.78852H49.0306C48.9241 8.06667 48.6934 7.5519 48.3384 7.24423C47.9834 6.93655 47.4804 6.78272 46.8296 6.78272C46.0486 6.78272 45.4451 7.11406 45.019 7.77674C44.593 8.43942 44.3771 9.38612 44.3711 10.6168V11.3978C44.3711 12.6877 44.5901 13.6581 45.0279 14.3089C45.4717 14.9538 46.1669 15.2763 47.1136 15.2763C47.9242 15.2763 48.5277 15.0958 48.9241 14.7349V12.7291H46.7586V10.5902H52.0393V15.8976ZM57.1692 17.4951H54.0629V4.57278H57.1692V17.4951ZM69.9141 15.8976C69.4348 16.4301 68.7337 16.8591 67.8106 17.1845C66.8876 17.5099 65.8758 17.6726 64.7753 17.6726C63.0831 17.6726 61.7311 17.1549 60.7193 16.1195C59.7075 15.084 59.1662 13.6433 59.0952 11.7972L59.0863 10.6789C59.0863 9.40682 59.3111 8.29742 59.7608 7.35073C60.2105 6.39812 60.8525 5.66739 61.6867 5.15855C62.5269 4.64379 63.4973 4.3864 64.5978 4.3864C66.2072 4.3864 67.4556 4.7562 68.3431 5.49581C69.2366 6.22949 69.7573 7.32706 69.9052 8.78852H66.9054C66.7989 8.06667 66.5681 7.5519 66.2131 7.24423C65.8581 6.93655 65.3552 6.78272 64.7043 6.78272C63.9233 6.78272 63.3198 7.11406 62.8938 7.77674C62.4677 8.43942 62.2518 9.38612 62.2459 10.6168V11.3978C62.2459 12.6877 62.4648 13.6581 62.9026 14.3089C63.3464 14.9538 64.0416 15.2763 64.9883 15.2763C65.7989 15.2763 66.4024 15.0958 66.7989 14.7349V12.7291H64.6333V10.5902H69.9141V15.8976ZM79.0644 15.0811H74.7954L74.0499 17.4951H70.7217L75.4611 4.57278H78.3899L83.1648 17.4951H79.8188L79.0644 15.0811ZM75.541 12.6759H78.3189L76.9255 8.19388L75.541 12.6759ZM90.7797 14.0604C90.7797 13.6048 90.617 13.2498 90.2916 12.9954C89.9721 12.741 89.407 12.4777 88.5964 12.2055C87.7858 11.9333 87.1231 11.67 86.6084 11.4156C84.9339 10.5931 84.0967 9.46303 84.0967 8.02525C84.0967 7.30931 84.3038 6.67917 84.7179 6.13482C85.138 5.58456 85.7297 5.15855 86.493 4.85679C87.2563 4.54912 88.1142 4.39528 89.0668 4.39528C89.9957 4.39528 90.8271 4.56095 91.5607 4.89229C92.3003 5.22363 92.8743 5.69698 93.2825 6.31233C93.6908 6.92176 93.8949 7.61995 93.8949 8.40688H90.7886C90.7886 7.88029 90.6259 7.47202 90.3005 7.1821C89.981 6.89218 89.5461 6.74721 88.9958 6.74721C88.4396 6.74721 87.9988 6.87147 87.6734 7.11997C87.3539 7.36256 87.1941 7.6732 87.1941 8.05187C87.1941 8.38322 87.3716 8.68497 87.7266 8.95715C88.0817 9.2234 88.7059 9.50149 89.5993 9.79142C90.4928 10.0754 91.2264 10.3831 91.8004 10.7144C93.1967 11.5191 93.8949 12.6285 93.8949 14.0427C93.8949 15.1728 93.4689 16.0603 92.6169 16.7052C91.7649 17.3502 90.5963 17.6726 89.1112 17.6726C88.0639 17.6726 87.1143 17.4862 86.2622 17.1135C85.4161 16.7348 84.7771 16.22 84.3452 15.5692C83.9192 14.9124 83.7062 14.158 83.7062 13.306H86.8302C86.8302 13.9983 87.0077 14.5101 87.3628 14.8414C87.7237 15.1668 88.3065 15.3296 89.1112 15.3296C89.6259 15.3296 90.0312 15.2201 90.3271 15.0012C90.6288 14.7763 90.7797 14.4627 90.7797 14.0604Z" fill="white"/>
<path d="M47.1047 32.579C46.6255 33.1115 45.9243 33.5405 45.0013 33.8659C44.0783 34.1913 43.0665 34.354 41.966 34.354C40.2738 34.354 38.9218 33.8363 37.91 32.8009C36.8982 31.7654 36.3568 30.3247 36.2858 28.4786L36.2769 27.3603C36.2769 26.0882 36.5018 24.9788 36.9515 24.0321C37.4011 23.0795 38.0431 22.3488 38.8774 21.8399C39.7176 21.3252 40.6879 21.0678 41.7885 21.0678C43.3978 21.0678 44.6463 21.4376 45.5338 22.1772C46.4273 22.9109 46.9479 24.0085 47.0959 25.4699H44.096C43.9895 24.7481 43.7588 24.2333 43.4038 23.9256C43.0487 23.6179 42.5458 23.4641 41.895 23.4641C41.1139 23.4641 40.5104 23.7955 40.0844 24.4581C39.6584 25.1208 39.4424 26.0675 39.4365 27.2982V28.0792C39.4365 29.3691 39.6555 30.3395 40.0933 30.9903C40.5371 31.6352 41.2323 31.9577 42.179 31.9577C42.9896 31.9577 43.5931 31.7772 43.9895 31.4163V29.4105H41.824V27.2716H47.1047V32.579ZM53.7168 29.6146H52.0305V34.1765H48.9153V21.2542H54.0008C55.5332 21.2542 56.7314 21.5944 57.5952 22.2748C58.4591 22.9553 58.891 23.9167 58.891 25.1593C58.891 26.0586 58.7076 26.8042 58.3408 27.3958C57.9798 27.9875 57.4118 28.4668 56.6367 28.8336L59.3348 34.0434V34.1765H55.9977L53.7168 29.6146ZM52.0305 27.2095H54.0008C54.5925 27.2095 55.0362 27.0556 55.3321 26.7479C55.6338 26.4344 55.7847 25.9995 55.7847 25.4433C55.7847 24.8871 55.6338 24.4522 55.3321 24.1386C55.0303 23.8191 54.5865 23.6594 54.0008 23.6594H52.0305V27.2095ZM68.1124 31.7625H63.8434L63.0979 34.1765H59.7697L64.5091 21.2542H67.4379L72.2128 34.1765H68.8668L68.1124 31.7625ZM64.5889 29.3573H67.3669L65.9735 24.8753L64.5889 29.3573ZM82.2418 23.6594H78.3633V34.1765H75.2481V23.6594H71.4406V21.2542H82.2418V23.6594ZM86.8835 34.1765H83.7772V21.2542H86.8835V34.1765ZM95.7144 30.7418C95.7144 30.2862 95.5516 29.9312 95.2262 29.6768C94.9067 29.4223 94.3417 29.1591 93.5311 28.8869C92.7204 28.6147 92.0578 28.3514 91.543 28.097C89.8685 27.2745 89.0313 26.1444 89.0313 24.7066C89.0313 23.9907 89.2384 23.3606 89.6526 22.8162C90.0727 22.266 90.6644 21.8399 91.4276 21.5382C92.1909 21.2305 93.0488 21.0767 94.0014 21.0767C94.9304 21.0767 95.7617 21.2423 96.4954 21.5737C97.235 21.905 97.8089 22.3784 98.2172 22.9937C98.6254 23.6032 98.8296 24.3013 98.8296 25.0883H95.7232C95.7232 24.5617 95.5605 24.1534 95.2351 23.8635C94.9156 23.5736 94.4807 23.4286 93.9304 23.4286C93.3743 23.4286 92.9335 23.5529 92.608 23.8014C92.2885 24.044 92.1288 24.3546 92.1288 24.7333C92.1288 25.0646 92.3063 25.3664 92.6613 25.6385C93.0163 25.9048 93.6405 26.1829 94.534 26.4728C95.4274 26.7568 96.1611 27.0645 96.735 27.3958C98.1314 28.2005 98.8296 29.3099 98.8296 30.724C98.8296 31.8542 98.4036 32.7417 97.5515 33.3866C96.6995 34.0316 95.5309 34.354 94.0458 34.354C92.9985 34.354 92.0489 34.1676 91.1969 33.7949C90.3508 33.4162 89.7117 32.9014 89.2798 32.2506C88.8538 31.5938 88.6408 30.8394 88.6408 29.9874H91.7649C91.7649 30.6797 91.9424 31.1915 92.2974 31.5228C92.6583 31.8482 93.2411 32.011 94.0458 32.011C94.5606 32.011 94.9659 31.9015 95.2617 31.6826C95.5635 31.4577 95.7144 31.1441 95.7144 30.7418Z" fill="white"/>
<path d="M9.55815 37.5212H9.00102V38.0784V93.7917C9.00102 99.0225 13.2414 103.263 18.4723 103.263H116.528C121.759 103.263 125.999 99.0225 125.999 93.7917V38.0784V37.5212H125.442H9.55815Z" fill="#FCAB10" fill-opacity="0.1"/>
<g clip-path="url(#clip0)">
<path d="M63.0429 52.564H27.3864V88.2205H63.0429V52.564Z" fill="#FCAB10" fill-opacity="0.1"/>
<path fill-rule="evenodd" clip-rule="evenodd" d="M45.2147 56.8118C37.3684 56.8118 31.2863 62.5592 31.2863 70.3222C31.2863 74.3829 32.9505 77.8917 35.6606 80.3153C35.8881 80.5189 36.0255 80.8042 36.0348 81.1095L36.1106 83.587C36.1349 84.3773 36.9512 84.8916 37.6744 84.5723L40.4389 83.3519C40.6733 83.2486 40.9359 83.2294 41.1828 83.2973C42.4532 83.6466 43.8054 83.8327 45.2147 83.8327C53.0609 83.8327 59.143 78.0853 59.143 70.3222C59.143 62.5592 53.0609 56.8118 45.2147 56.8118Z" fill="url(#paint0_radial)"/>
<path fill-rule="evenodd" clip-rule="evenodd" d="M36.8508 74.2733L40.9422 67.7822C41.5931 66.7495 42.9867 66.4924 43.9632 67.2247L47.2174 69.6654C47.5159 69.8893 47.9267 69.8881 48.2241 69.6625L52.6189 66.3271C53.2055 65.8819 53.9712 66.5839 53.5787 67.2069L49.4872 73.6981C48.8364 74.7307 47.4427 74.9879 46.4662 74.2555L43.212 71.8148C42.9135 71.5909 42.5026 71.5921 42.2053 71.8177L37.8105 75.1531C37.2239 75.5983 36.4582 74.8963 36.8508 74.2733Z" fill="white"/>
</g>
<g clip-path="url(#clip1)">
<rect x="71.9571" y="52.5278" width="35.6565" height="35.7284" rx="6.6856" fill="#FCAB10" fill-opacity="0.1"/>
<path d="M74.6802 85.1195L76.8073 77.3556C75.4923 75.0766 74.802 72.4909 74.806 69.8598C74.806 61.5927 81.5347 54.8718 89.799 54.8718C91.7685 54.8718 93.7188 55.2599 95.5383 56.0138C97.3579 56.7677 99.011 57.8727 100.403 59.2657C101.796 60.6587 102.9 62.3123 103.653 64.1322C104.406 65.952 104.794 67.9025 104.793 69.872C104.789 78.1391 98.0625 84.86 89.799 84.86H89.7932C87.2899 84.8599 84.8266 84.2327 82.6281 83.0355L74.6802 85.1195ZM82.9962 80.3224L83.452 80.592C85.3723 81.7289 87.563 82.3288 89.7947 82.3288H89.799C96.6679 82.3288 102.258 76.7395 102.261 69.8706C102.262 68.234 101.94 66.6134 101.314 65.1011C100.689 63.5889 99.7713 62.2147 98.6146 61.0571C97.4578 59.8994 96.0844 58.9809 94.5727 58.3541C93.0609 57.7272 91.4405 57.4043 89.804 57.4037C82.9301 57.4037 77.34 62.9916 77.3372 69.8605C77.334 72.206 77.9945 74.5046 79.2422 76.4908L79.5391 76.9616L78.2832 81.5589L82.9962 80.3224Z" fill="white"/>
<path d="M75.2014 84.5962L77.2553 77.0983C75.9862 74.8991 75.3197 72.404 75.3229 69.8649C75.3229 61.8853 81.8187 55.396 89.7969 55.396C91.6981 55.3961 93.5806 55.7707 95.337 56.4985C97.0934 57.2263 98.6892 58.2929 100.033 59.6376C101.377 60.9822 102.443 62.5784 103.171 64.3351C103.898 66.0918 104.271 67.9745 104.271 69.8757C104.271 77.8553 97.7743 84.3454 89.7976 84.3454H89.7911C87.3748 84.3451 84.9971 83.7398 82.8748 82.5848L75.2014 84.5962Z" fill="url(#paint1_linear)"/>
<g filter="url(#filter0_d)">
<path d="M74.6802 85.1195L76.8073 77.3556C75.4923 75.0766 74.802 72.4909 74.806 69.8598C74.806 61.5927 81.5347 54.8718 89.799 54.8718C91.7685 54.8718 93.7188 55.2599 95.5383 56.0138C97.3579 56.7677 99.011 57.8727 100.403 59.2657C101.796 60.6587 102.9 62.3123 103.653 64.1322C104.406 65.952 104.794 67.9025 104.793 69.872C104.789 78.1391 98.0625 84.86 89.799 84.86H89.7932C87.2899 84.8599 84.8266 84.2327 82.6281 83.0355L74.6802 85.1195ZM82.9962 80.3224L83.452 80.592C85.3723 81.7289 87.563 82.3288 89.7947 82.3288H89.799C96.6679 82.3288 102.258 76.7395 102.261 69.8706C102.262 68.234 101.94 66.6134 101.314 65.1011C100.689 63.5889 99.7713 62.2147 98.6146 61.0571C97.4578 59.8994 96.0844 58.9809 94.5727 58.3541C93.0609 57.7272 91.4405 57.4043 89.804 57.4037C82.9301 57.4037 77.34 62.9916 77.3372 69.8605C77.334 72.206 77.9945 74.5046 79.2422 76.4908L79.5391 76.9616L78.2832 81.5589L82.9962 80.3224Z" fill="url(#paint2_linear)"/>
</g>
<path fill-rule="evenodd" clip-rule="evenodd" d="M86.0522 63.5938C85.7711 62.9699 85.4771 62.9576 85.2089 62.9469C84.9933 62.9368 84.7409 62.9375 84.49 62.9375C84.3003 62.9426 84.1136 62.9868 83.9418 63.0675C83.7699 63.1481 83.6166 63.2635 83.4915 63.4062C83.1479 63.7815 82.1803 64.6873 82.1803 66.5305C82.1803 68.3737 83.5224 70.1551 83.71 70.4052C83.8977 70.6554 86.3016 74.5582 90.1081 76.06C93.2712 77.3079 93.9182 77.0599 94.6033 76.9945C95.2884 76.9291 96.8196 76.088 97.1323 75.2131C97.445 74.3382 97.4443 73.5892 97.348 73.4324C97.2516 73.2757 97.0043 73.1823 96.6291 72.9954C96.2538 72.8085 94.4128 71.9012 94.0691 71.7769C93.7255 71.6525 93.4761 71.5892 93.2259 71.9645C92.9757 72.3398 92.259 73.1823 92.0397 73.4324C91.8205 73.6826 91.6027 73.7143 91.2281 73.5266C90.8536 73.339 89.6466 72.9436 88.216 71.6676C87.1017 70.6741 86.3469 69.4484 86.1312 69.0732C85.9156 68.6979 86.1082 68.4981 86.2959 68.309C86.4641 68.1408 86.6704 67.8712 86.858 67.6526C87.0457 67.4341 87.1075 67.2781 87.2326 67.0279C87.3577 66.7778 87.2951 66.5592 87.2009 66.3716C87.1068 66.184 86.385 64.3343 86.0522 63.5938Z" fill="white"/>
</g>
<path d="M9.55815 37.5212H9.00102V38.0784V93.7917C9.00102 99.0225 13.2414 103.263 18.4723 103.263H116.528C121.759 103.263 125.999 99.0225 125.999 93.7917V38.0784V37.5212H125.442H9.55815Z" stroke="#FCAB10" stroke-width="1.11427"/>
<defs>
<filter id="filter0_d" x="72.4516" y="53.7576" width="34.5696" height="34.7047" filterUnits="userSpaceOnUse" color-interpolation-filters="sRGB">
<feFlood flood-opacity="0" result="BackgroundImageFix"/>
<feColorMatrix in="SourceAlpha" type="matrix" values="0 0 0 0 0 0 0 0 0 0 0 0 0 0 0 0 0 0 127 0"/>
<feOffset dy="1.11427"/>
<feGaussianBlur stdDeviation="1.11427"/>
<feColorMatrix type="matrix" values="0 0 0 0 0 0 0 0 0 0 0 0 0 0 0 0 0 0 0.1 0"/>
<feBlend mode="normal" in2="BackgroundImageFix" result="effect1_dropShadow"/>
<feBlend mode="normal" in="SourceGraphic" in2="effect1_dropShadow" result="shape"/>
</filter>
<radialGradient id="paint0_radial" cx="0" cy="0" r="1" gradientUnits="userSpaceOnUse" gradientTransform="translate(36.648 84.5194) scale(30.3525)">
<stop stop-color="#0099FF"/>
<stop offset="0.609754" stop-color="#A033FF"/>
<stop offset="0.934823" stop-color="#FF5280"/>
<stop offset="1" stop-color="#FF7061"/>
</radialGradient>
<linearGradient id="paint1_linear" x1="89.7365" y1="84.5962" x2="89.7365" y2="55.396" gradientUnits="userSpaceOnUse">
<stop stop-color="#20B038"/>
<stop offset="1" stop-color="#60D66A"/>
</linearGradient>
<linearGradient id="paint2_linear" x1="89.7364" y1="85.1195" x2="89.7364" y2="54.8718" gradientUnits="userSpaceOnUse">
<stop stop-color="#F9F9F9"/>
<stop offset="1" stop-color="white"/>
</linearGradient>
<clipPath id="clip0">
<rect x="27.3864" y="52.564" width="35.6565" height="35.6565" rx="6.6856" fill="white"/>
</clipPath>
<clipPath id="clip1">
<rect x="71.9571" y="52.5278" width="35.6565" height="35.7284" rx="6.6856" fill="white"/>
</clipPath>
</defs>
</svg>
