<svg width="331" height="219" viewBox="0 0 331 219" fill="none" xmlns="http://www.w3.org/2000/svg">
<rect width="331" height="219" fill="#F5F5F5"/>
<path opacity="0.2" d="M60.0595 39.6015C61.0968 41.7222 62.8158 43.4334 64.9412 44.461C65.0967 44.5347 65.2687 44.5666 65.4403 44.5537C65.6119 44.5407 65.7771 44.4832 65.9198 44.387L69.0492 42.3002C69.1877 42.2079 69.3469 42.1516 69.5126 42.1364C69.6782 42.1212 69.8451 42.1475 69.998 42.213L75.8526 44.7222C76.0515 44.8067 76.2175 44.9535 76.3257 45.1405C76.4339 45.3276 76.4783 45.5447 76.4524 45.7593C76.2673 47.2073 75.5608 48.5382 74.4652 49.5028C73.3695 50.4674 71.9598 50.9996 70.5 50.9996C65.9913 50.9996 61.6673 49.2086 58.4792 46.0204C55.2911 42.8323 53.5 38.5083 53.5 33.9996C53.5001 32.5399 54.0322 31.1301 54.9969 30.0345C55.9615 28.9388 57.2924 28.2323 58.7404 28.0473C58.9549 28.0213 59.172 28.0658 59.3591 28.1739C59.5461 28.2821 59.693 28.4482 59.7775 28.647L62.2888 34.5068C62.3537 34.6583 62.3802 34.8236 62.3658 34.9879C62.3514 35.1522 62.2967 35.3103 62.2064 35.4483L60.1268 38.6258C60.0322 38.7687 59.9762 38.9338 59.9644 39.1048C59.9526 39.2758 59.9854 39.447 60.0595 39.6015Z" fill="#EF3829"/>
<path d="M60.0595 39.6015C61.0968 41.7222 62.8158 43.4334 64.9412 44.461C65.0967 44.5347 65.2687 44.5666 65.4403 44.5537C65.6119 44.5407 65.7771 44.4832 65.9198 44.387L69.0492 42.3002C69.1877 42.2079 69.3469 42.1516 69.5126 42.1364C69.6782 42.1212 69.8451 42.1475 69.998 42.213L75.8526 44.7222C76.0515 44.8067 76.2175 44.9535 76.3257 45.1405C76.4339 45.3276 76.4783 45.5447 76.4524 45.7593C76.2673 47.2073 75.5608 48.5382 74.4652 49.5028C73.3695 50.4674 71.9598 50.9996 70.5 50.9996C65.9913 50.9996 61.6673 49.2086 58.4792 46.0204C55.2911 42.8323 53.5 38.5083 53.5 33.9996C53.5001 32.5399 54.0322 31.1301 54.9969 30.0345C55.9615 28.9388 57.2924 28.2323 58.7404 28.0473C58.9549 28.0213 59.172 28.0658 59.3591 28.1739C59.5461 28.2821 59.693 28.4482 59.7775 28.647L62.2888 34.5068C62.3537 34.6583 62.3802 34.8236 62.3658 34.9879C62.3514 35.1522 62.2967 35.3103 62.2064 35.4483L60.1268 38.6258C60.0322 38.7687 59.9762 38.9338 59.9644 39.1048C59.9526 39.2758 59.9854 39.447 60.0595 39.6015V39.6015Z" stroke="#EF3829" stroke-width="2" stroke-linecap="round" stroke-linejoin="round"/>
<path d="M100.746 49H95.7949V33.2383L90.9316 34.6592V30.9092L100.292 27.6719H100.746V49ZM107.47 38.5703L108.773 27.6719H121.239V31.5098H112.787L112.304 35.7432C112.655 35.5381 113.114 35.3574 113.681 35.2012C114.257 35.0449 114.818 34.9668 115.365 34.9668C117.484 34.9668 119.11 35.5967 120.243 36.8564C121.386 38.1064 121.957 39.8643 121.957 42.1299C121.957 43.4971 121.649 44.7373 121.034 45.8506C120.429 46.9541 119.574 47.8037 118.471 48.3994C117.367 48.9951 116.063 49.293 114.56 49.293C113.222 49.293 111.967 49.0195 110.795 48.4727C109.623 47.916 108.705 47.1592 108.041 46.2021C107.377 45.2354 107.05 44.1465 107.06 42.9355H112.011C112.06 43.7168 112.309 44.3369 112.758 44.7959C113.207 45.2549 113.798 45.4844 114.53 45.4844C116.19 45.4844 117.021 44.2539 117.021 41.793C117.021 39.5176 116.005 38.3799 113.974 38.3799C112.821 38.3799 111.962 38.751 111.396 39.4932L107.47 38.5703ZM139.359 40.2842C139.359 43.165 138.71 45.3867 137.411 46.9492C136.122 48.5117 134.301 49.293 131.947 49.293C129.574 49.293 127.738 48.5068 126.439 46.9346C125.141 45.3623 124.491 43.1455 124.491 40.2842V36.3877C124.491 33.5068 125.136 31.2852 126.425 29.7227C127.724 28.1602 129.555 27.3789 131.918 27.3789C134.281 27.3789 136.112 28.165 137.411 29.7373C138.71 31.3096 139.359 33.5312 139.359 36.4023V40.2842ZM134.423 35.7578C134.423 34.2246 134.223 33.082 133.822 32.3301C133.422 31.5684 132.787 31.1875 131.918 31.1875C131.068 31.1875 130.448 31.5391 130.058 32.2422C129.677 32.9453 129.472 34.0098 129.442 35.4355V40.8848C129.442 42.4766 129.643 43.6436 130.043 44.3857C130.443 45.1182 131.078 45.4844 131.947 45.4844C132.787 45.4844 133.407 45.1279 133.808 44.415C134.208 43.6924 134.413 42.5645 134.423 41.0312V35.7578ZM156.454 27.6719L161.215 42.5107L165.961 27.6719H172.729V49H167.572V44.0195L168.07 33.8242L162.914 49H159.516L154.345 33.8096L154.843 44.0195V49H149.701V27.6719H156.454ZM181.488 49H176.361V27.6719H181.488V49ZM202.875 49H197.763L190.204 35.7285V49H185.062V27.6719H190.204L197.748 40.9434V27.6719H202.875V49ZM222.855 27.6719V41.6318C222.855 43.2139 222.519 44.5859 221.845 45.748C221.171 46.9004 220.204 47.7793 218.944 48.3848C217.685 48.9902 216.195 49.293 214.477 49.293C211.879 49.293 209.833 48.6191 208.339 47.2715C206.845 45.9238 206.083 44.0781 206.054 41.7344V27.6719H211.225V41.8369C211.283 44.1709 212.367 45.3379 214.477 45.3379C215.541 45.3379 216.347 45.0449 216.894 44.459C217.44 43.873 217.714 42.9209 217.714 41.6025V27.6719H222.855ZM242.821 31.6416H236.42V49H231.278V31.6416H224.994V27.6719H242.821V31.6416ZM262.655 38.7754C262.655 40.8555 262.27 42.6963 261.498 44.2979C260.727 45.8994 259.628 47.1348 258.202 48.0039C256.786 48.8633 255.17 49.293 253.354 49.293C251.537 49.293 249.926 48.8779 248.52 48.0479C247.113 47.208 246.015 46.0117 245.224 44.459C244.442 42.9062 244.032 41.124 243.993 39.1123V37.9111C243.993 35.8213 244.374 33.9805 245.136 32.3887C245.907 30.7871 247.006 29.5518 248.432 28.6826C249.867 27.8135 251.498 27.3789 253.324 27.3789C255.131 27.3789 256.742 27.8086 258.158 28.668C259.574 29.5273 260.673 30.7529 261.454 32.3447C262.245 33.9268 262.646 35.7432 262.655 37.7939V38.7754ZM257.426 37.8818C257.426 35.7627 257.069 34.1562 256.356 33.0625C255.653 31.959 254.643 31.4072 253.324 31.4072C250.746 31.4072 249.384 33.3408 249.237 37.208L249.223 38.7754C249.223 40.8652 249.569 42.4717 250.263 43.5947C250.956 44.7178 251.986 45.2793 253.354 45.2793C254.652 45.2793 255.653 44.7275 256.356 43.624C257.06 42.5205 257.416 40.9336 257.426 38.8633V37.8818ZM276.308 43.3311C276.308 42.5791 276.039 41.9932 275.502 41.5732C274.975 41.1533 274.042 40.7188 272.704 40.2695C271.366 39.8203 270.272 39.3857 269.423 38.9658C266.659 37.6084 265.277 35.7432 265.277 33.3701C265.277 32.1885 265.619 31.1484 266.303 30.25C266.996 29.3418 267.973 28.6387 269.232 28.1406C270.492 27.6328 271.908 27.3789 273.48 27.3789C275.014 27.3789 276.386 27.6523 277.597 28.1992C278.817 28.7461 279.765 29.5273 280.438 30.543C281.112 31.5488 281.449 32.7012 281.449 34H276.322C276.322 33.1309 276.054 32.457 275.517 31.9785C274.989 31.5 274.271 31.2607 273.363 31.2607C272.445 31.2607 271.718 31.4658 271.181 31.876C270.653 32.2764 270.39 32.7891 270.39 33.4141C270.39 33.9609 270.683 34.459 271.269 34.9082C271.854 35.3477 272.885 35.8066 274.359 36.2852C275.834 36.7539 277.045 37.2617 277.992 37.8086C280.297 39.1367 281.449 40.9678 281.449 43.3018C281.449 45.167 280.746 46.6318 279.34 47.6963C277.934 48.7607 276.005 49.293 273.554 49.293C271.825 49.293 270.258 48.9854 268.852 48.3701C267.455 47.7451 266.4 46.8955 265.688 45.8213C264.984 44.7373 264.633 43.4922 264.633 42.0859H269.789C269.789 43.2285 270.082 44.0732 270.668 44.6201C271.264 45.1572 272.226 45.4258 273.554 45.4258C274.403 45.4258 275.072 45.2451 275.561 44.8838C276.059 44.5127 276.308 43.9951 276.308 43.3311Z" fill="#EF3829"/>
<path d="M135.098 57.0469L138.352 65.168L141.606 57.0469H143.308V67H141.995V63.124L142.118 58.9404L138.851 67H137.846L134.585 58.9609L134.715 63.124V67H133.402V57.0469H135.098ZM153.192 57.0469V63.8145C153.187 64.7533 152.891 65.5212 152.303 66.1182C151.72 66.7152 150.927 67.0501 149.924 67.123L149.576 67.1367C148.487 67.1367 147.618 66.8428 146.971 66.2549C146.324 65.667 145.996 64.8581 145.987 63.8281V57.0469H147.286V63.7871C147.286 64.5072 147.484 65.0677 147.88 65.4688C148.277 65.8652 148.842 66.0635 149.576 66.0635C150.319 66.0635 150.886 65.8652 151.278 65.4688C151.674 65.0723 151.873 64.514 151.873 63.7939V57.0469H153.192ZM157.143 65.9268H161.859V67H155.823V57.0469H157.143V65.9268ZM168.907 58.127H165.707V67H164.402V58.127H161.209V57.0469H168.907V58.127ZM172.351 67H171.039V57.0469H172.351V67ZM175.318 67V57.0469H178.127C178.993 57.0469 179.759 57.2383 180.424 57.6211C181.089 58.0039 181.602 58.5485 181.962 59.2549C182.327 59.9613 182.511 60.7725 182.516 61.6885V62.3242C182.516 63.263 182.334 64.0856 181.969 64.792C181.609 65.4984 181.092 66.0407 180.417 66.4189C179.747 66.7972 178.966 66.9909 178.073 67H175.318ZM176.63 58.127V65.9268H178.011C179.023 65.9268 179.809 65.6123 180.369 64.9834C180.935 64.3545 181.217 63.459 181.217 62.2969V61.7158C181.217 60.5856 180.95 59.7083 180.417 59.084C179.889 58.4551 179.137 58.1361 178.161 58.127H176.63ZM190.691 62.3994H186.378V65.9268H191.388V67H185.065V57.0469H191.32V58.127H186.378V61.3262H190.691V62.3994ZM196.515 62.5635C195.389 62.2399 194.569 61.8434 194.054 61.374C193.543 60.9001 193.288 60.3167 193.288 59.624C193.288 58.8402 193.6 58.193 194.225 57.6826C194.854 57.1676 195.669 56.9102 196.672 56.9102C197.356 56.9102 197.964 57.0423 198.497 57.3066C199.035 57.571 199.45 57.9355 199.741 58.4004C200.038 58.8652 200.186 59.3734 200.186 59.9248H198.866C198.866 59.3232 198.675 58.8516 198.292 58.5098C197.909 58.1634 197.369 57.9902 196.672 57.9902C196.025 57.9902 195.519 58.1338 195.154 58.4209C194.794 58.7035 194.614 59.0977 194.614 59.6035C194.614 60.0091 194.785 60.3532 195.127 60.6357C195.473 60.9137 196.059 61.1689 196.884 61.4014C197.713 61.6338 198.361 61.8913 198.825 62.1738C199.295 62.4518 199.641 62.7777 199.864 63.1514C200.092 63.5251 200.206 63.9648 200.206 64.4707C200.206 65.2773 199.892 65.9245 199.263 66.4121C198.634 66.8952 197.793 67.1367 196.74 67.1367C196.057 67.1367 195.419 67.0068 194.826 66.7471C194.234 66.4827 193.776 66.1227 193.452 65.667C193.133 65.2113 192.974 64.694 192.974 64.1152H194.293C194.293 64.7168 194.514 65.193 194.956 65.5439C195.403 65.8903 195.998 66.0635 196.74 66.0635C197.433 66.0635 197.964 65.9222 198.333 65.6396C198.702 65.3571 198.887 64.972 198.887 64.4844C198.887 63.9967 198.716 63.6208 198.374 63.3564C198.032 63.0876 197.413 62.8232 196.515 62.5635ZM209.332 58.127H206.132V67H204.827V58.127H201.634V57.0469H209.332V58.127ZM212.776 67H211.464V57.0469H212.776V67ZM223.392 67H222.073L217.062 59.3301V67H215.743V57.0469H217.062L222.086 64.751V57.0469H223.392V67ZM233.939 62.3447C233.939 63.32 233.775 64.1722 233.447 64.9014C233.119 65.626 232.654 66.1797 232.053 66.5625C231.451 66.9453 230.749 67.1367 229.947 67.1367C229.163 67.1367 228.468 66.9453 227.862 66.5625C227.256 66.1751 226.784 65.626 226.447 64.915C226.115 64.1995 225.944 63.3724 225.934 62.4336V61.7158C225.934 60.7588 226.101 59.9134 226.434 59.1797C226.766 58.446 227.236 57.8854 227.842 57.498C228.452 57.1061 229.15 56.9102 229.934 56.9102C230.731 56.9102 231.433 57.1038 232.039 57.4912C232.65 57.874 233.119 58.4323 233.447 59.166C233.775 59.8952 233.939 60.7451 233.939 61.7158V62.3447ZM232.634 61.7021C232.634 60.5218 232.397 59.6172 231.923 58.9883C231.449 58.3548 230.786 58.0381 229.934 58.0381C229.104 58.0381 228.45 58.3548 227.972 58.9883C227.498 59.6172 227.254 60.4922 227.24 61.6133V62.3447C227.24 63.4886 227.479 64.3887 227.958 65.0449C228.441 65.6966 229.104 66.0225 229.947 66.0225C230.795 66.0225 231.451 65.7148 231.916 65.0996C232.381 64.4798 232.62 63.5934 232.634 62.4404V61.7021Z" fill="#222222" fill-opacity="0.8"/>
<path d="M45.0518 105.627H50.4219V108H41.9668V95.2031H45.0518V105.627ZM54.8076 105.627H60.1777V108H51.7227V95.2031H54.8076V105.627ZM68.9229 105.609H64.6953L63.957 108H60.6611L65.3545 95.2031H68.2549L72.9834 108H69.6699L68.9229 105.609ZM65.4336 103.228H68.1846L66.8047 98.7891L65.4336 103.228ZM77.9756 95.2031L80.832 104.106L83.6797 95.2031H87.7402V108H84.6465V105.012L84.9453 98.8945L81.8516 108H79.8125L76.71 98.8857L77.0088 105.012V108H73.9238V95.2031H77.9756ZM97.1357 105.609H92.9082L92.1699 108H88.874L93.5674 95.2031H96.4678L101.196 108H97.8828L97.1357 105.609ZM93.6465 103.228H96.3975L95.0176 98.7891L93.6465 103.228ZM102.137 108V95.2031H106.259C107.39 95.2031 108.406 95.4609 109.309 95.9766C110.211 96.4863 110.914 97.21 111.418 98.1475C111.928 99.0791 112.186 100.125 112.191 101.285V101.874C112.191 103.046 111.942 104.098 111.444 105.029C110.952 105.955 110.255 106.682 109.353 107.209C108.456 107.73 107.454 107.994 106.347 108H102.137ZM105.222 97.585V105.627H106.294C107.179 105.627 107.858 105.313 108.333 104.687C108.808 104.054 109.045 103.116 109.045 101.874V101.32C109.045 100.084 108.808 99.1523 108.333 98.5254C107.858 97.8984 107.167 97.585 106.259 97.585H105.222ZM120.849 105.609H116.621L115.883 108H112.587L117.28 95.2031H120.181L124.909 108H121.596L120.849 105.609ZM117.359 103.228H120.11L118.73 98.7891L117.359 103.228ZM132.45 104.599C132.45 104.147 132.289 103.796 131.967 103.544C131.65 103.292 131.091 103.031 130.288 102.762C129.485 102.492 128.829 102.231 128.319 101.979C126.661 101.165 125.832 100.046 125.832 98.6221C125.832 97.9131 126.037 97.2891 126.447 96.75C126.863 96.2051 127.449 95.7832 128.205 95.4844C128.961 95.1797 129.811 95.0273 130.754 95.0273C131.674 95.0273 132.497 95.1914 133.224 95.5195C133.956 95.8477 134.524 96.3164 134.929 96.9258C135.333 97.5293 135.535 98.2207 135.535 99H132.459C132.459 98.4785 132.298 98.0742 131.976 97.7871C131.659 97.5 131.229 97.3564 130.684 97.3564C130.133 97.3564 129.696 97.4795 129.374 97.7256C129.058 97.9658 128.899 98.2734 128.899 98.6484C128.899 98.9766 129.075 99.2754 129.427 99.5449C129.778 99.8086 130.396 100.084 131.281 100.371C132.166 100.652 132.893 100.957 133.461 101.285C134.844 102.082 135.535 103.181 135.535 104.581C135.535 105.7 135.113 106.579 134.27 107.218C133.426 107.856 132.269 108.176 130.798 108.176C129.761 108.176 128.82 107.991 127.977 107.622C127.139 107.247 126.506 106.737 126.078 106.093C125.656 105.442 125.445 104.695 125.445 103.852H128.539C128.539 104.537 128.715 105.044 129.066 105.372C129.424 105.694 130.001 105.855 130.798 105.855C131.308 105.855 131.709 105.747 132.002 105.53C132.301 105.308 132.45 104.997 132.45 104.599ZM45.2539 126H42.1777V113.203H45.2539V126ZM50.4834 123.627H55.8535V126H47.3984V113.203H50.4834V123.627ZM60.4414 126H57.3652V113.203H60.4414V126ZM66.6377 113.203L69.4941 122.106L72.3418 113.203H76.4023V126H73.3086V123.012L73.6074 116.895L70.5137 126H68.4746L65.3721 116.886L65.6709 123.012V126H62.5859V113.203H66.6377ZM81.6582 126H78.582V113.203H81.6582V126ZM93.585 115.585H89.7441V126H86.6592V115.585H82.8887V113.203H93.585V115.585ZM101.108 123.609H96.8809L96.1426 126H92.8467L97.54 113.203H100.44L105.169 126H101.855L101.108 123.609ZM97.6191 121.228H100.37L98.9902 116.789L97.6191 121.228ZM106.109 126V113.203H110.231C111.362 113.203 112.379 113.461 113.281 113.977C114.184 114.486 114.887 115.21 115.391 116.147C115.9 117.079 116.158 118.125 116.164 119.285V119.874C116.164 121.046 115.915 122.098 115.417 123.029C114.925 123.955 114.228 124.682 113.325 125.209C112.429 125.73 111.427 125.994 110.319 126H106.109ZM109.194 115.585V123.627H110.267C111.151 123.627 111.831 123.313 112.306 122.687C112.78 122.054 113.018 121.116 113.018 119.874V119.32C113.018 118.084 112.78 117.152 112.306 116.525C111.831 115.898 111.14 115.585 110.231 115.585H109.194ZM124.821 123.609H120.594L119.855 126H116.56L121.253 113.203H124.153L128.882 126H125.568L124.821 123.609ZM121.332 121.228H124.083L122.703 116.789L121.332 121.228ZM136.423 122.599C136.423 122.147 136.262 121.796 135.939 121.544C135.623 121.292 135.063 121.031 134.261 120.762C133.458 120.492 132.802 120.231 132.292 119.979C130.634 119.165 129.805 118.046 129.805 116.622C129.805 115.913 130.01 115.289 130.42 114.75C130.836 114.205 131.422 113.783 132.178 113.484C132.934 113.18 133.783 113.027 134.727 113.027C135.646 113.027 136.47 113.191 137.196 113.52C137.929 113.848 138.497 114.316 138.901 114.926C139.306 115.529 139.508 116.221 139.508 117H136.432C136.432 116.479 136.271 116.074 135.948 115.787C135.632 115.5 135.201 115.356 134.656 115.356C134.105 115.356 133.669 115.479 133.347 115.726C133.03 115.966 132.872 116.273 132.872 116.648C132.872 116.977 133.048 117.275 133.399 117.545C133.751 117.809 134.369 118.084 135.254 118.371C136.139 118.652 136.865 118.957 137.434 119.285C138.816 120.082 139.508 121.181 139.508 122.581C139.508 123.7 139.086 124.579 138.242 125.218C137.398 125.856 136.241 126.176 134.771 126.176C133.733 126.176 132.793 125.991 131.949 125.622C131.111 125.247 130.479 124.737 130.051 124.093C129.629 123.442 129.418 122.695 129.418 121.852H132.512C132.512 122.537 132.688 123.044 133.039 123.372C133.396 123.694 133.974 123.855 134.771 123.855C135.28 123.855 135.682 123.747 135.975 123.53C136.273 123.308 136.423 122.997 136.423 122.599Z" fill="#222222"/>
<path d="M45.751 135.145H42.7725L42.1035 137H41.1367L43.8516 129.891H44.6719L47.3916 137H46.4297L45.751 135.145ZM43.0557 134.373H45.4727L44.2617 131.048L43.0557 134.373ZM56.293 137H55.3506L51.7715 131.521V137H50.8291V129.891H51.7715L55.3604 135.394V129.891H56.293V137ZM62.9629 129.891V134.725C62.9596 135.395 62.748 135.944 62.3281 136.37C61.9115 136.797 61.3451 137.036 60.6289 137.088L60.3799 137.098C59.6019 137.098 58.9818 136.888 58.5195 136.468C58.0573 136.048 57.8229 135.47 57.8164 134.734V129.891H58.7441V134.705C58.7441 135.219 58.8857 135.62 59.1689 135.906C59.4521 136.189 59.8558 136.331 60.3799 136.331C60.9105 136.331 61.3158 136.189 61.5957 135.906C61.8789 135.623 62.0205 135.224 62.0205 134.71V129.891H62.9629ZM60.834 127.986H61.9277L60.6191 129.422H59.8916L60.834 127.986ZM65.6533 129.891L67.9775 135.691L70.3018 129.891H71.5176V137H70.5801V134.231L70.668 131.243L68.334 137H67.6162L65.2871 131.258L65.3799 134.231V137H64.4424V129.891H65.6533ZM77.1914 133.714H74.1104V136.233H77.6895V137H73.1729V129.891H77.6406V130.662H74.1104V132.947H77.1914V133.714ZM81.4639 134.124H79.7939V137H78.8516V129.891H81.2051C82.0059 129.891 82.6211 130.073 83.0508 130.438C83.4837 130.802 83.7002 131.333 83.7002 132.029C83.7002 132.472 83.5798 132.858 83.3389 133.187C83.1012 133.515 82.7692 133.761 82.3428 133.924L84.0127 136.941V137H83.0068L81.4639 134.124ZM79.7939 133.357H81.2344C81.6999 133.357 82.0693 133.237 82.3428 132.996C82.6195 132.755 82.7578 132.433 82.7578 132.029C82.7578 131.59 82.626 131.253 82.3623 131.019C82.1019 130.784 81.7243 130.665 81.2295 130.662H79.7939V133.357ZM90.4873 133.675C90.4873 134.371 90.3701 134.98 90.1357 135.501C89.9014 136.019 89.5693 136.414 89.1396 136.688C88.71 136.961 88.2087 137.098 87.6357 137.098C87.0758 137.098 86.5794 136.961 86.1465 136.688C85.7135 136.411 85.3766 136.019 85.1357 135.511C84.8981 135 84.776 134.409 84.7695 133.738V133.226C84.7695 132.542 84.8883 131.938 85.126 131.414C85.3636 130.89 85.6989 130.49 86.1318 130.213C86.568 129.933 87.0661 129.793 87.626 129.793C88.1956 129.793 88.6969 129.931 89.1299 130.208C89.5661 130.481 89.9014 130.88 90.1357 131.404C90.3701 131.925 90.4873 132.532 90.4873 133.226V133.675ZM89.5547 133.216C89.5547 132.373 89.3854 131.727 89.0469 131.277C88.7083 130.825 88.2347 130.599 87.626 130.599C87.0335 130.599 86.5664 130.825 86.2246 131.277C85.8861 131.727 85.7119 132.352 85.7021 133.152V133.675C85.7021 134.492 85.873 135.135 86.2148 135.604C86.5599 136.069 87.0335 136.302 87.6357 136.302C88.2412 136.302 88.71 136.082 89.042 135.643C89.374 135.2 89.5449 134.567 89.5547 133.743V133.216ZM93.9883 133.831C93.1842 133.6 92.5983 133.317 92.2305 132.981C91.8659 132.643 91.6836 132.226 91.6836 131.731C91.6836 131.172 91.9066 130.709 92.3525 130.345C92.8018 129.977 93.3844 129.793 94.1006 129.793C94.5889 129.793 95.0234 129.887 95.4043 130.076C95.7884 130.265 96.0846 130.525 96.293 130.857C96.5046 131.189 96.6104 131.552 96.6104 131.946H95.668C95.668 131.517 95.5312 131.18 95.2578 130.936C94.9844 130.688 94.5986 130.564 94.1006 130.564C93.6383 130.564 93.277 130.667 93.0166 130.872C92.7594 131.074 92.6309 131.355 92.6309 131.717C92.6309 132.007 92.7529 132.252 92.9971 132.454C93.2445 132.653 93.6628 132.835 94.252 133.001C94.8444 133.167 95.3066 133.351 95.6387 133.553C95.974 133.751 96.2214 133.984 96.3809 134.251C96.5436 134.518 96.625 134.832 96.625 135.193C96.625 135.77 96.4004 136.232 95.9512 136.58C95.502 136.925 94.9014 137.098 94.1494 137.098C93.6611 137.098 93.2054 137.005 92.7822 136.819C92.359 136.631 92.0319 136.373 91.8008 136.048C91.5729 135.722 91.459 135.353 91.459 134.939H92.4014C92.4014 135.369 92.5592 135.709 92.875 135.96C93.194 136.207 93.6188 136.331 94.1494 136.331C94.6442 136.331 95.0234 136.23 95.2871 136.028C95.5508 135.826 95.6826 135.551 95.6826 135.203C95.6826 134.855 95.5605 134.586 95.3164 134.397C95.0723 134.205 94.6296 134.017 93.9883 133.831ZM105.541 134.744C105.453 135.496 105.175 136.077 104.706 136.487C104.241 136.894 103.62 137.098 102.846 137.098C102.006 137.098 101.332 136.797 100.824 136.194C100.32 135.592 100.067 134.786 100.067 133.777V133.094C100.067 132.433 100.185 131.852 100.419 131.351C100.657 130.849 100.992 130.465 101.425 130.198C101.858 129.928 102.359 129.793 102.929 129.793C103.684 129.793 104.289 130.005 104.745 130.428C105.201 130.848 105.466 131.43 105.541 132.176H104.599C104.517 131.609 104.34 131.199 104.066 130.945C103.796 130.691 103.417 130.564 102.929 130.564C102.33 130.564 101.859 130.786 101.518 131.229C101.179 131.671 101.01 132.301 101.01 133.118V133.807C101.01 134.578 101.171 135.192 101.493 135.647C101.815 136.103 102.266 136.331 102.846 136.331C103.367 136.331 103.765 136.214 104.042 135.979C104.322 135.742 104.507 135.33 104.599 134.744H105.541ZM107.768 136.233H111.137V137H106.825V129.891H107.768V136.233ZM116.229 135.145H113.251L112.582 137H111.615L114.33 129.891H115.15L117.87 137H116.908L116.229 135.145ZM113.534 134.373H115.951L114.74 131.048L113.534 134.373ZM121.435 134.124H119.765V137H118.822V129.891H121.176C121.977 129.891 122.592 130.073 123.021 130.438C123.454 130.802 123.671 131.333 123.671 132.029C123.671 132.472 123.55 132.858 123.31 133.187C123.072 133.515 122.74 133.761 122.313 133.924L123.983 136.941V137H122.978L121.435 134.124ZM119.765 133.357H121.205C121.671 133.357 122.04 133.237 122.313 132.996C122.59 132.755 122.729 132.433 122.729 132.029C122.729 131.59 122.597 131.253 122.333 131.019C122.073 130.784 121.695 130.665 121.2 130.662H119.765V133.357ZM130.458 133.675C130.458 134.371 130.341 134.98 130.106 135.501C129.872 136.019 129.54 136.414 129.11 136.688C128.681 136.961 128.179 137.098 127.606 137.098C127.047 137.098 126.55 136.961 126.117 136.688C125.684 136.411 125.347 136.019 125.106 135.511C124.869 135 124.747 134.409 124.74 133.738V133.226C124.74 132.542 124.859 131.938 125.097 131.414C125.334 130.89 125.67 130.49 126.103 130.213C126.539 129.933 127.037 129.793 127.597 129.793C128.166 129.793 128.668 129.931 129.101 130.208C129.537 130.481 129.872 130.88 130.106 131.404C130.341 131.925 130.458 132.532 130.458 133.226V133.675ZM129.525 133.216C129.525 132.373 129.356 131.727 129.018 131.277C128.679 130.825 128.205 130.599 127.597 130.599C127.004 130.599 126.537 130.825 126.195 131.277C125.857 131.727 125.683 132.352 125.673 133.152V133.675C125.673 134.492 125.844 135.135 126.186 135.604C126.531 136.069 127.004 136.302 127.606 136.302C128.212 136.302 128.681 136.082 129.013 135.643C129.345 135.2 129.516 134.567 129.525 133.743V133.216Z" fill="#222222"/>
<g filter="url(#filter0_d)">
<path d="M168.516 107.094H173.688L172.906 111.609H167.75L166.672 117.719H161.875L162.938 111.609H157.75L158.531 107.094H163.719L164.75 101.156H169.547L168.516 107.094Z" fill="#EF3829"/>
</g>
<path d="M195.019 95.2031L197.875 104.106L200.723 95.2031H204.783V108H201.689V105.012L201.988 98.8945L198.895 108H196.855L193.753 98.8857L194.052 105.012V108H190.967V95.2031H195.019ZM214.688 102.577H209.837V105.627H215.567V108H206.752V95.2031H215.585V97.585H209.837V100.283H214.688V102.577ZM227.512 108H224.444L219.909 100.037V108H216.824V95.2031H219.909L224.436 103.166V95.2031H227.512V108ZM236.063 104.599C236.063 104.147 235.902 103.796 235.58 103.544C235.264 103.292 234.704 103.031 233.901 102.762C233.099 102.492 232.442 102.231 231.933 101.979C230.274 101.165 229.445 100.046 229.445 98.6221C229.445 97.9131 229.65 97.2891 230.061 96.75C230.477 96.2051 231.062 95.7832 231.818 95.4844C232.574 95.1797 233.424 95.0273 234.367 95.0273C235.287 95.0273 236.11 95.1914 236.837 95.5195C237.569 95.8477 238.138 96.3164 238.542 96.9258C238.946 97.5293 239.148 98.2207 239.148 99H236.072C236.072 98.4785 235.911 98.0742 235.589 97.7871C235.272 97.5 234.842 97.3564 234.297 97.3564C233.746 97.3564 233.31 97.4795 232.987 97.7256C232.671 97.9658 232.513 98.2734 232.513 98.6484C232.513 98.9766 232.688 99.2754 233.04 99.5449C233.392 99.8086 234.01 100.084 234.895 100.371C235.779 100.652 236.506 100.957 237.074 101.285C238.457 102.082 239.148 103.181 239.148 104.581C239.148 105.7 238.727 106.579 237.883 107.218C237.039 107.856 235.882 108.176 234.411 108.176C233.374 108.176 232.434 107.991 231.59 107.622C230.752 107.247 230.119 106.737 229.691 106.093C229.27 105.442 229.059 104.695 229.059 103.852H232.152C232.152 104.537 232.328 105.044 232.68 105.372C233.037 105.694 233.614 105.855 234.411 105.855C234.921 105.855 235.322 105.747 235.615 105.53C235.914 105.308 236.063 104.997 236.063 104.599ZM247.999 105.609H243.771L243.033 108H239.737L244.431 95.2031H247.331L252.06 108H248.746L247.999 105.609ZM244.51 103.228H247.261L245.881 98.7891L244.51 103.228ZM258.098 95.2031H261.174V103.983C261.174 104.798 260.983 105.524 260.603 106.163C260.228 106.802 259.7 107.297 259.021 107.648C258.347 108 257.594 108.176 256.762 108.176C255.367 108.176 254.283 107.824 253.51 107.121C252.736 106.418 252.35 105.422 252.35 104.133H255.443C255.443 104.719 255.543 105.144 255.742 105.407C255.947 105.671 256.287 105.803 256.762 105.803C257.189 105.803 257.518 105.645 257.746 105.328C257.98 105.006 258.098 104.558 258.098 103.983V95.2031ZM271.062 102.577H266.21V105.627H271.94V108H263.125V95.2031H271.958V97.585H266.21V100.283H271.062V102.577ZM279.798 104.599C279.798 104.147 279.637 103.796 279.314 103.544C278.998 103.292 278.438 103.031 277.636 102.762C276.833 102.492 276.177 102.231 275.667 101.979C274.009 101.165 273.18 100.046 273.18 98.6221C273.18 97.9131 273.385 97.2891 273.795 96.75C274.211 96.2051 274.797 95.7832 275.553 95.4844C276.309 95.1797 277.158 95.0273 278.102 95.0273C279.021 95.0273 279.845 95.1914 280.571 95.5195C281.304 95.8477 281.872 96.3164 282.276 96.9258C282.681 97.5293 282.883 98.2207 282.883 99H279.807C279.807 98.4785 279.646 98.0742 279.323 97.7871C279.007 97.5 278.576 97.3564 278.031 97.3564C277.48 97.3564 277.044 97.4795 276.722 97.7256C276.405 97.9658 276.247 98.2734 276.247 98.6484C276.247 98.9766 276.423 99.2754 276.774 99.5449C277.126 99.8086 277.744 100.084 278.629 100.371C279.514 100.652 280.24 100.957 280.809 101.285C282.191 102.082 282.883 103.181 282.883 104.581C282.883 105.7 282.461 106.579 281.617 107.218C280.773 107.856 279.616 108.176 278.146 108.176C277.108 108.176 276.168 107.991 275.324 107.622C274.486 107.247 273.854 106.737 273.426 106.093C273.004 105.442 272.793 104.695 272.793 103.852H275.887C275.887 104.537 276.062 105.044 276.414 105.372C276.771 105.694 277.349 105.855 278.146 105.855C278.655 105.855 279.057 105.747 279.35 105.53C279.648 105.308 279.798 104.997 279.798 104.599ZM194.254 126H191.178V113.203H194.254V126ZM199.483 123.627H204.854V126H196.398V113.203H199.483V123.627ZM209.441 126H206.365V113.203H209.441V126ZM215.638 113.203L218.494 122.106L221.342 113.203H225.402V126H222.309V123.012L222.607 116.895L219.514 126H217.475L214.372 116.886L214.671 123.012V126H211.586V113.203H215.638ZM230.658 126H227.582V113.203H230.658V126ZM242.585 115.585H238.744V126H235.659V115.585H231.889V113.203H242.585V115.585ZM250.108 123.609H245.881L245.143 126H241.847L246.54 113.203H249.44L254.169 126H250.855L250.108 123.609ZM246.619 121.228H249.37L247.99 116.789L246.619 121.228ZM255.109 126V113.203H259.231C260.362 113.203 261.379 113.461 262.281 113.977C263.184 114.486 263.887 115.21 264.391 116.147C264.9 117.079 265.158 118.125 265.164 119.285V119.874C265.164 121.046 264.915 122.098 264.417 123.029C263.925 123.955 263.228 124.682 262.325 125.209C261.429 125.73 260.427 125.994 259.319 126H255.109ZM258.194 115.585V123.627H259.267C260.151 123.627 260.831 123.313 261.306 122.687C261.78 122.054 262.018 121.116 262.018 119.874V119.32C262.018 118.084 261.78 117.152 261.306 116.525C260.831 115.898 260.14 115.585 259.231 115.585H258.194ZM277.583 119.865C277.583 121.113 277.352 122.218 276.889 123.179C276.426 124.14 275.767 124.881 274.911 125.402C274.062 125.918 273.092 126.176 272.002 126.176C270.912 126.176 269.945 125.927 269.102 125.429C268.258 124.925 267.599 124.207 267.124 123.275C266.655 122.344 266.409 121.274 266.386 120.067V119.347C266.386 118.093 266.614 116.988 267.071 116.033C267.534 115.072 268.193 114.331 269.049 113.81C269.91 113.288 270.889 113.027 271.984 113.027C273.068 113.027 274.035 113.285 274.885 113.801C275.734 114.316 276.394 115.052 276.862 116.007C277.337 116.956 277.577 118.046 277.583 119.276V119.865ZM274.445 119.329C274.445 118.058 274.231 117.094 273.804 116.438C273.382 115.775 272.775 115.444 271.984 115.444C270.438 115.444 269.62 116.604 269.532 118.925L269.523 119.865C269.523 121.119 269.731 122.083 270.147 122.757C270.563 123.431 271.182 123.768 272.002 123.768C272.781 123.768 273.382 123.437 273.804 122.774C274.226 122.112 274.439 121.16 274.445 119.918V119.329ZM285.774 122.599C285.774 122.147 285.613 121.796 285.291 121.544C284.975 121.292 284.415 121.031 283.612 120.762C282.81 120.492 282.153 120.231 281.644 119.979C279.985 119.165 279.156 118.046 279.156 116.622C279.156 115.913 279.361 115.289 279.771 114.75C280.188 114.205 280.773 113.783 281.529 113.484C282.285 113.18 283.135 113.027 284.078 113.027C284.998 113.027 285.821 113.191 286.548 113.52C287.28 113.848 287.849 114.316 288.253 114.926C288.657 115.529 288.859 116.221 288.859 117H285.783C285.783 116.479 285.622 116.074 285.3 115.787C284.983 115.5 284.553 115.356 284.008 115.356C283.457 115.356 283.021 115.479 282.698 115.726C282.382 115.966 282.224 116.273 282.224 116.648C282.224 116.977 282.399 117.275 282.751 117.545C283.103 117.809 283.721 118.084 284.605 118.371C285.49 118.652 286.217 118.957 286.785 119.285C288.168 120.082 288.859 121.181 288.859 122.581C288.859 123.7 288.438 124.579 287.594 125.218C286.75 125.856 285.593 126.176 284.122 126.176C283.085 126.176 282.145 125.991 281.301 125.622C280.463 125.247 279.83 124.737 279.402 124.093C278.98 123.442 278.77 122.695 278.77 121.852H281.863C281.863 122.537 282.039 123.044 282.391 123.372C282.748 123.694 283.325 123.855 284.122 123.855C284.632 123.855 285.033 123.747 285.326 123.53C285.625 123.308 285.774 122.997 285.774 122.599Z" fill="#222222"/>
<path d="M192.036 129.891L194.36 135.691L196.685 129.891H197.9V137H196.963V134.231L197.051 131.243L194.717 137H193.999L191.67 131.258L191.763 134.231V137H190.825V129.891H192.036ZM204.561 129.891V134.725C204.557 135.395 204.346 135.944 203.926 136.37C203.509 136.797 202.943 137.036 202.227 137.088L201.978 137.098C201.2 137.098 200.579 136.888 200.117 136.468C199.655 136.048 199.421 135.47 199.414 134.734V129.891H200.342V134.705C200.342 135.219 200.483 135.62 200.767 135.906C201.05 136.189 201.453 136.331 201.978 136.331C202.508 136.331 202.913 136.189 203.193 135.906C203.477 135.623 203.618 135.224 203.618 134.71V129.891H204.561ZM206.982 136.233H210.352V137H206.04V129.891H206.982V136.233ZM214.985 130.662H212.7V137H211.768V130.662H209.487V129.891H214.985V130.662ZM217.046 137H216.108V129.891H217.046V137ZM218.765 137V129.891H220.771C221.39 129.891 221.937 130.027 222.412 130.301C222.887 130.574 223.254 130.963 223.511 131.468C223.771 131.972 223.903 132.552 223.906 133.206V133.66C223.906 134.331 223.776 134.918 223.516 135.423C223.258 135.927 222.889 136.315 222.407 136.585C221.929 136.855 221.37 136.993 220.732 137H218.765ZM219.702 130.662V136.233H220.688C221.411 136.233 221.973 136.009 222.373 135.56C222.777 135.11 222.979 134.471 222.979 133.641V133.226C222.979 132.418 222.788 131.792 222.407 131.346C222.03 130.896 221.493 130.669 220.796 130.662H219.702ZM229.346 133.714H226.265V136.233H229.844V137H225.327V129.891H229.795V130.662H226.265V132.947H229.346V133.714ZM233.105 133.831C232.301 133.6 231.715 133.317 231.348 132.981C230.983 132.643 230.801 132.226 230.801 131.731C230.801 131.172 231.024 130.709 231.47 130.345C231.919 129.977 232.502 129.793 233.218 129.793C233.706 129.793 234.141 129.887 234.521 130.076C234.906 130.265 235.202 130.525 235.41 130.857C235.622 131.189 235.728 131.552 235.728 131.946H234.785C234.785 131.517 234.648 131.18 234.375 130.936C234.102 130.688 233.716 130.564 233.218 130.564C232.756 130.564 232.394 130.667 232.134 130.872C231.877 131.074 231.748 131.355 231.748 131.717C231.748 132.007 231.87 132.252 232.114 132.454C232.362 132.653 232.78 132.835 233.369 133.001C233.962 133.167 234.424 133.351 234.756 133.553C235.091 133.751 235.339 133.984 235.498 134.251C235.661 134.518 235.742 134.832 235.742 135.193C235.742 135.77 235.518 136.232 235.068 136.58C234.619 136.925 234.019 137.098 233.267 137.098C232.778 137.098 232.323 137.005 231.899 136.819C231.476 136.631 231.149 136.373 230.918 136.048C230.69 135.722 230.576 135.353 230.576 134.939H231.519C231.519 135.369 231.676 135.709 231.992 135.96C232.311 136.207 232.736 136.331 233.267 136.331C233.761 136.331 234.141 136.23 234.404 136.028C234.668 135.826 234.8 135.551 234.8 135.203C234.8 134.855 234.678 134.586 234.434 134.397C234.189 134.205 233.747 134.017 233.105 133.831ZM241.86 130.662H239.575V137H238.643V130.662H236.362V129.891H241.86V130.662ZM243.921 137H242.983V129.891H243.921V137ZM251.104 137H250.161L246.582 131.521V137H245.64V129.891H246.582L250.171 135.394V129.891H251.104V137ZM258.237 133.675C258.237 134.371 258.12 134.98 257.886 135.501C257.651 136.019 257.319 136.414 256.89 136.688C256.46 136.961 255.959 137.098 255.386 137.098C254.826 137.098 254.329 136.961 253.896 136.688C253.464 136.411 253.127 136.019 252.886 135.511C252.648 135 252.526 134.409 252.52 133.738V133.226C252.52 132.542 252.638 131.938 252.876 131.414C253.114 130.89 253.449 130.49 253.882 130.213C254.318 129.933 254.816 129.793 255.376 129.793C255.946 129.793 256.447 129.931 256.88 130.208C257.316 130.481 257.651 130.88 257.886 131.404C258.12 131.925 258.237 132.532 258.237 133.226V133.675ZM257.305 133.216C257.305 132.373 257.135 131.727 256.797 131.277C256.458 130.825 255.985 130.599 255.376 130.599C254.784 130.599 254.316 130.825 253.975 131.277C253.636 131.727 253.462 132.352 253.452 133.152V133.675C253.452 134.492 253.623 135.135 253.965 135.604C254.31 136.069 254.784 136.302 255.386 136.302C255.991 136.302 256.46 136.082 256.792 135.643C257.124 135.2 257.295 134.567 257.305 133.743V133.216Z" fill="#222222"/>
<g clip-path="url(#clip0)">
<path d="M52.9583 173C52.8816 173 52.8816 173 52.8816 173C52.1148 173 51.3479 173 50.6577 173C50.581 173 50.5043 173 50.5043 172.925C49.9675 171.94 49.2007 171.258 48.127 170.955C46.5933 170.576 45.3663 171.031 44.2927 172.167C43.6792 172.849 43.3724 173.682 43.3724 174.591C43.3724 175.273 43.5258 175.879 43.8326 176.485C44.4461 177.47 45.2896 178.152 46.4399 178.304C47.897 178.531 49.124 178.076 50.0442 176.864C50.1976 176.713 50.2743 176.485 50.4277 176.258C50.4277 176.182 50.5043 176.182 50.581 176.182C51.3479 176.182 52.1148 176.182 52.8816 176.182C52.9583 176.182 52.9583 176.182 52.9583 176.258C52.6516 177.394 52.0381 178.379 51.1178 179.137C50.1976 179.894 49.2007 180.425 47.9737 180.576C46.5933 180.728 45.2129 180.576 43.9859 179.819C42.3755 178.834 41.3786 177.394 41.0718 175.576C40.8418 173.91 41.1485 172.319 42.2221 170.955C42.9123 170.122 43.6792 169.364 44.6761 168.985C45.2129 168.758 45.7497 168.607 46.3632 168.607C47.2068 168.531 48.0504 168.531 48.8939 168.834C50.581 169.364 51.808 170.425 52.5749 172.016C52.7283 172.319 52.805 172.622 52.9583 173Z" fill="#EF3829"/>
<path d="M63.6179 179.818C63.5412 179.818 63.5412 179.894 63.5412 179.894C63.0044 180.273 62.3909 180.5 61.7774 180.651C61.2406 180.727 60.7038 180.803 60.167 180.727C59.1701 180.576 58.4032 180.197 58.0198 179.212C57.8664 178.758 57.7897 178.303 57.8664 177.848C57.8664 177.47 57.9431 177.091 58.0964 176.712C58.4032 176.03 58.94 175.576 59.6302 175.273C60.167 175.045 60.7038 174.97 61.2406 174.894C61.7774 174.818 62.3142 174.742 62.8511 174.667C63.2345 174.591 63.5412 174.212 63.4646 173.758C63.3879 173.379 63.2345 173.151 62.8511 173C62.3909 172.848 62.0075 172.848 61.5474 172.924C61.394 172.924 61.2406 173 61.0873 173C60.7038 173.151 60.4738 173.53 60.3204 173.909V173.985C60.2437 174.212 60.2437 174.212 60.0903 174.212C59.4001 174.212 58.7099 174.212 58.0198 174.212C57.9431 174.212 57.9431 174.212 57.9431 174.136C57.9431 173.833 58.0198 173.53 58.0964 173.227C58.4032 172.091 59.1701 171.409 60.2437 171.106C61.0106 170.879 61.7007 170.879 62.4676 170.954C63.1578 170.954 63.848 171.182 64.4615 171.485C65.2284 171.864 65.6118 172.47 65.7652 173.227C65.8419 173.454 65.8419 173.682 65.8419 173.909C65.8419 176.182 65.8419 178.379 65.8419 180.651C65.8419 180.727 65.8419 180.803 65.6885 180.803C64.9983 180.803 64.2314 180.803 63.5412 180.803C63.4646 180.803 63.4646 180.803 63.4646 180.727C63.4646 180.5 63.4646 180.197 63.4646 179.97C63.6946 179.818 63.6946 179.818 63.6179 179.818ZM63.5412 175.954C63.4646 176.03 63.3879 176.03 63.3879 176.03C63.3112 176.106 63.1578 176.182 63.0811 176.182C62.621 176.258 62.2376 176.409 61.7774 176.485C61.4707 176.561 61.2406 176.561 61.0106 176.712C60.6271 176.864 60.3971 177.167 60.3204 177.545C60.2437 177.773 60.2437 177.924 60.3204 178.151C60.3971 178.606 60.7038 178.985 61.1639 179.061C61.8541 179.212 62.4676 178.985 63.0044 178.606C63.3879 178.379 63.4646 177.924 63.5412 177.545C63.6179 177.015 63.5412 176.485 63.5412 175.954Z" fill="#EF3829"/>
<path d="M73.2805 175.803C73.2805 173.379 75.0443 171.712 76.5781 171.182C79.5689 170.197 82.4063 172.015 83.0198 174.743C83.3265 176.258 83.0965 177.621 82.1762 178.833C81.4094 179.818 80.4124 180.5 79.1854 180.727C77.575 181.03 76.1179 180.652 74.9676 179.515C74.2775 178.833 73.7406 178.076 73.5106 177.167C73.3572 176.712 73.2805 176.258 73.2805 175.803ZM78.1885 173.303C76.7314 173.227 75.5811 174.591 75.5811 175.879C75.5811 177.091 76.5781 178.455 78.1885 178.455C79.7989 178.455 80.7959 177.091 80.7959 175.879C80.7959 174.44 79.7222 173.227 78.1885 173.303Z" fill="#EF3829"/>
<path d="M75.121 185.5C75.121 185.424 75.121 185.424 75.121 185.349C75.121 184.439 75.121 183.455 75.121 182.545C75.121 182.47 75.121 182.47 75.2744 182.47C75.8112 182.47 76.2713 182.47 76.8082 182.47C76.8848 182.47 76.8848 182.47 76.8848 182.545C76.8848 185.576 76.8848 188.606 76.8848 191.636C76.8848 191.712 76.8848 191.712 76.8082 191.712C76.348 191.712 75.8112 191.712 75.3511 191.712C75.2744 191.712 75.2744 191.712 75.2744 191.636C75.2744 191.485 75.2744 191.333 75.2744 191.106H75.1977C74.7376 191.561 74.2008 191.788 73.5106 191.788C73.2039 191.788 72.8971 191.712 72.5904 191.636C71.9002 191.409 71.5167 190.879 71.2867 190.197C71.21 189.894 71.1333 189.591 71.1333 189.212C71.1333 188.379 71.0566 187.621 71.21 186.788C71.2867 186.485 71.3634 186.182 71.4401 185.879C71.6701 185.349 72.0536 185.045 72.5904 184.894C73.2805 184.667 73.894 184.667 74.5842 184.97C74.8143 185.197 74.9677 185.349 75.121 185.5ZM75.121 188.303C75.121 188.227 75.121 188.227 75.121 188.152C75.121 187.773 75.121 187.318 74.9677 186.939C74.8143 186.636 74.6609 186.485 74.3542 186.409C74.2775 186.409 74.1241 186.333 74.0474 186.333C73.5873 186.333 73.2039 186.485 72.9738 187.015C72.8971 187.318 72.8204 187.621 72.8204 187.924C72.8204 188.379 72.8204 188.833 72.8971 189.288C72.9738 189.818 73.2805 190.197 73.894 190.197C74.4309 190.197 74.8143 189.97 74.9677 189.515C75.121 189.136 75.121 188.758 75.121 188.303Z" fill="black"/>
<path d="M69.8296 172.546C70.0597 172.243 70.2131 172.091 70.4431 171.864C70.9033 171.485 71.4401 171.182 72.0536 171.03C72.3603 170.955 72.6671 170.955 72.9738 170.879C73.0505 170.879 73.0505 170.955 73.0505 170.955C73.0505 171.409 73.0505 171.94 73.0505 172.394C73.0505 172.621 73.0505 172.924 73.0505 173.152C73.0505 173.227 73.0505 173.227 72.9738 173.227C72.7437 173.227 72.5137 173.152 72.2069 173.227C71.8235 173.227 71.5168 173.379 71.21 173.53C70.5965 173.909 70.1364 174.364 69.983 175.121C69.9063 175.424 69.9063 175.803 69.9063 176.106C69.9063 177.546 69.9063 179.061 69.9063 180.5C69.9063 180.576 69.9063 180.652 69.7529 180.652C69.0628 180.652 68.3726 180.652 67.6824 180.652C67.6057 180.652 67.6057 180.652 67.6057 180.576C67.6057 177.546 67.6057 174.515 67.6057 171.409C67.6057 171.333 67.6057 171.333 67.6824 171.333C68.3726 171.333 69.0628 171.333 69.7529 171.333C69.8296 171.333 69.8296 171.333 69.8296 171.409C69.8296 171.864 69.8296 172.167 69.8296 172.546Z" fill="#EF3829"/>
<path d="M56.4861 174.59C56.4861 176.56 56.4861 178.606 56.4861 180.575C56.4861 180.651 56.4861 180.727 56.3327 180.727C55.6425 180.727 54.9524 180.727 54.1855 180.727C54.1088 180.727 54.0321 180.727 54.0321 180.575C54.0321 176.56 54.0321 172.621 54.0321 168.606C54.0321 168.53 54.0321 168.454 54.1855 168.454C54.8757 168.454 55.6425 168.454 56.3327 168.454C56.4094 168.454 56.4094 168.454 56.4094 168.606C56.4861 170.651 56.4861 172.621 56.4861 174.59Z" fill="#EF3829"/>
<path d="M82.0229 188.833C81.3327 188.833 80.6425 188.833 79.9523 188.833C79.8756 188.833 79.8756 188.833 79.8756 188.909C79.8756 189.591 80.2591 190.121 80.8726 190.197C81.5627 190.348 82.2529 190.272 82.7897 189.742C82.9431 189.591 82.9431 189.591 83.0198 189.742C83.3265 190.045 83.5566 190.272 83.8633 190.576C83.94 190.651 83.94 190.651 83.8633 190.651C83.4032 191.106 82.7897 191.485 82.0995 191.636C81.4094 191.712 80.7192 191.712 80.029 191.485C79.2621 191.257 78.7253 190.727 78.4186 189.969C77.9585 188.757 77.9585 187.545 78.4186 186.409C78.8787 185.348 79.7223 184.818 80.8726 184.742C81.3327 184.742 81.8695 184.742 82.2529 184.969C83.0965 185.348 83.6333 186.03 83.8633 186.863C83.94 187.242 84.0167 187.621 84.0167 188C84.0167 188.227 84.0167 188.454 84.0167 188.682C84.0167 188.757 84.0167 188.757 83.94 188.757C83.4032 188.833 82.713 188.833 82.0229 188.833ZM81.1793 187.697C81.5627 187.697 82.0229 187.697 82.4063 187.697C82.483 187.697 82.483 187.697 82.483 187.621C82.483 187.394 82.4063 187.242 82.3296 187.091C82.0229 186.182 80.9492 186.182 80.4124 186.485C80.029 186.788 79.8756 187.166 79.8756 187.621C79.8756 187.697 79.8756 187.697 79.9523 187.697C80.3357 187.697 80.7959 187.697 81.1793 187.697Z" fill="black"/>
<path d="M90.9953 188.303C90.9953 188.833 90.9953 189.364 90.8419 189.818C90.6118 190.727 89.9983 191.333 89.0781 191.637C88.3112 191.864 87.5444 191.864 86.7775 191.485C85.9339 191.106 85.4738 190.5 85.3204 189.591C85.167 188.909 85.167 188.227 85.2437 187.546C85.2437 187.167 85.3204 186.712 85.5505 186.333C85.9339 185.5 86.6241 185.046 87.5444 184.818C88.0812 184.743 88.6947 184.743 89.2315 184.894C90.1517 185.197 90.7652 185.879 90.9953 186.864C90.9953 187.394 90.9953 187.849 90.9953 188.303ZM86.9309 188.303C86.9309 188.682 86.9309 188.985 87.0075 189.364C87.1609 190.121 87.6977 190.424 88.3879 190.273C88.848 190.197 89.0781 189.818 89.2315 189.44C89.3848 188.758 89.3848 188.076 89.2315 187.394C89.1548 187.015 89.0014 186.712 88.618 186.561C88.3112 186.409 88.0812 186.409 87.7744 186.485C87.3143 186.636 87.0842 186.94 87.0075 187.318C86.9309 187.621 86.8542 187.924 86.9309 188.303Z" fill="black"/>
<path d="M60.8572 184.894C61.0872 184.894 61.3173 184.894 61.4707 184.894C61.8541 184.894 62.1609 184.894 62.5443 184.894C62.621 184.894 62.6977 184.894 62.6977 185.045C63.1578 186.333 63.5412 187.697 64.0013 188.984V189.06C64.078 189.06 64.0013 188.984 64.078 188.984C64.5382 187.697 64.9216 186.333 65.3817 184.969C65.3817 184.894 65.4584 184.894 65.5351 184.894C66.0719 184.894 66.6087 184.894 67.1455 184.894C67.2989 184.894 67.2989 184.894 67.2222 184.969C66.532 186.863 65.7652 188.833 65.075 190.727C64.9983 191.03 64.8449 191.257 64.7682 191.56C64.7682 191.636 64.6915 191.636 64.6915 191.636C64.3081 191.636 63.9247 191.636 63.5412 191.636C63.4645 191.636 63.4645 191.636 63.3879 191.56C62.851 190.197 62.3909 188.833 61.8541 187.469C61.5474 186.636 61.2406 185.803 60.9339 185.045C60.9339 184.969 60.9339 184.969 60.8572 184.894Z" fill="black"/>
<path d="M83.5566 171.333C83.5566 171.258 83.4799 171.258 83.5566 171.333C83.0198 170.803 82.5596 170.348 82.0995 169.894C82.0228 169.818 82.0995 169.818 82.0995 169.742L82.1762 169.667C84.0167 167.848 85.8572 166.03 87.621 164.212C87.6977 164.136 87.6977 164.136 87.7744 164.212C88.2345 164.667 88.6946 165.121 89.1547 165.576C89.2314 165.651 89.2314 165.651 89.1547 165.727C87.3142 167.545 85.4737 169.364 83.5566 171.333C83.6333 171.258 83.5566 171.258 83.5566 171.333Z" fill="#EF3829"/>
<path d="M87.6978 173.606C88.6947 173.606 89.6916 173.606 90.6886 173.606C90.7653 173.606 90.7653 173.606 90.7653 173.682C90.7653 174.288 90.7653 174.97 90.7653 175.576C90.7653 175.652 90.7653 175.652 90.6886 175.652C88.6947 175.652 86.6241 175.652 84.6303 175.652C84.5536 175.652 84.5536 175.652 84.5536 175.576C84.5536 174.97 84.5536 174.288 84.5536 173.682C84.5536 173.606 84.5536 173.606 84.6303 173.606C85.7039 173.606 86.7008 173.606 87.6978 173.606Z" fill="#EF3829"/>
<path d="M77.4216 166.03C77.4216 165.045 77.4216 164.061 77.4216 163.152C77.4216 163.076 77.4216 163 77.4983 163C78.1118 163 78.7253 163 79.4155 163C79.4922 163 79.4922 163 79.4922 163.076C79.4922 165.045 79.4922 166.939 79.4922 168.909C79.4922 168.985 79.4922 168.985 79.4155 168.985C78.802 168.985 78.1118 168.985 77.4983 168.985C77.4216 168.985 77.4216 168.985 77.4216 168.909C77.4216 168 77.4216 167.015 77.4216 166.03Z" fill="#EF3829"/>
<path d="M68.0658 188.303C68.0658 187.242 68.0658 186.106 68.0658 185.045C68.0658 184.969 68.0658 184.894 68.1425 184.894C68.6793 184.894 69.1394 184.894 69.6762 184.894C69.7529 184.894 69.7529 184.894 69.7529 184.969C69.7529 187.166 69.7529 189.363 69.7529 191.56C69.7529 191.636 69.7529 191.636 69.6762 191.636C69.1394 191.636 68.6793 191.636 68.1425 191.636C68.0658 191.636 68.0658 191.636 68.0658 191.56C68.0658 190.5 68.0658 189.363 68.0658 188.303Z" fill="black"/>
<path d="M67.8358 183C67.8358 182.394 68.2959 181.939 68.9094 181.939C69.5229 181.939 69.983 182.394 69.983 183C69.983 183.606 69.5229 184.061 68.9094 184.061C68.2959 184.061 67.8358 183.606 67.8358 183Z" fill="black"/>
</g>
<path d="M112.186 173.762C112.186 173.43 112.068 173.176 111.834 173C111.6 172.82 111.178 172.633 110.568 172.438C109.959 172.238 109.477 172.043 109.121 171.852C108.152 171.328 107.668 170.623 107.668 169.736C107.668 169.275 107.797 168.865 108.055 168.506C108.316 168.143 108.689 167.859 109.174 167.656C109.662 167.453 110.209 167.352 110.814 167.352C111.424 167.352 111.967 167.463 112.443 167.686C112.92 167.904 113.289 168.215 113.551 168.617C113.816 169.02 113.949 169.477 113.949 169.988H112.191C112.191 169.598 112.068 169.295 111.822 169.08C111.576 168.861 111.23 168.752 110.785 168.752C110.355 168.752 110.021 168.844 109.783 169.027C109.545 169.207 109.426 169.445 109.426 169.742C109.426 170.02 109.564 170.252 109.842 170.439C110.123 170.627 110.535 170.803 111.078 170.967C112.078 171.268 112.807 171.641 113.264 172.086C113.721 172.531 113.949 173.086 113.949 173.75C113.949 174.488 113.67 175.068 113.111 175.49C112.553 175.908 111.801 176.117 110.855 176.117C110.199 176.117 109.602 175.998 109.062 175.76C108.523 175.518 108.111 175.188 107.826 174.77C107.545 174.352 107.404 173.867 107.404 173.316H109.168C109.168 174.258 109.73 174.729 110.855 174.729C111.273 174.729 111.6 174.645 111.834 174.477C112.068 174.305 112.186 174.066 112.186 173.762ZM121.602 167.469V173.088C121.602 174.021 121.309 174.76 120.723 175.303C120.141 175.846 119.344 176.117 118.332 176.117C117.336 176.117 116.545 175.854 115.959 175.326C115.373 174.799 115.074 174.074 115.062 173.152V167.469H116.82V173.1C116.82 173.658 116.953 174.066 117.219 174.324C117.488 174.578 117.859 174.705 118.332 174.705C119.32 174.705 119.822 174.186 119.838 173.146V167.469H121.602ZM127.467 173.762C127.467 173.43 127.35 173.176 127.115 173C126.881 172.82 126.459 172.633 125.85 172.438C125.24 172.238 124.758 172.043 124.402 171.852C123.434 171.328 122.949 170.623 122.949 169.736C122.949 169.275 123.078 168.865 123.336 168.506C123.598 168.143 123.971 167.859 124.455 167.656C124.943 167.453 125.49 167.352 126.096 167.352C126.705 167.352 127.248 167.463 127.725 167.686C128.201 167.904 128.57 168.215 128.832 168.617C129.098 169.02 129.23 169.477 129.23 169.988H127.473C127.473 169.598 127.35 169.295 127.104 169.08C126.857 168.861 126.512 168.752 126.066 168.752C125.637 168.752 125.303 168.844 125.064 169.027C124.826 169.207 124.707 169.445 124.707 169.742C124.707 170.02 124.846 170.252 125.123 170.439C125.404 170.627 125.816 170.803 126.359 170.967C127.359 171.268 128.088 171.641 128.545 172.086C129.002 172.531 129.23 173.086 129.23 173.75C129.23 174.488 128.951 175.068 128.393 175.49C127.834 175.908 127.082 176.117 126.137 176.117C125.48 176.117 124.883 175.998 124.344 175.76C123.805 175.518 123.393 175.188 123.107 174.77C122.826 174.352 122.686 173.867 122.686 173.316H124.449C124.449 174.258 125.012 174.729 126.137 174.729C126.555 174.729 126.881 174.645 127.115 174.477C127.35 174.305 127.467 174.066 127.467 173.762ZM137.123 173.158C137.057 174.076 136.717 174.799 136.104 175.326C135.494 175.854 134.689 176.117 133.689 176.117C132.596 176.117 131.734 175.75 131.105 175.016C130.48 174.277 130.168 173.266 130.168 171.98V171.459C130.168 170.639 130.312 169.916 130.602 169.291C130.891 168.666 131.303 168.188 131.838 167.855C132.377 167.52 133.002 167.352 133.713 167.352C134.697 167.352 135.49 167.615 136.092 168.143C136.693 168.67 137.041 169.41 137.135 170.363H135.377C135.334 169.812 135.18 169.414 134.914 169.168C134.652 168.918 134.252 168.793 133.713 168.793C133.127 168.793 132.688 169.004 132.395 169.426C132.105 169.844 131.957 170.494 131.949 171.377V172.021C131.949 172.943 132.088 173.617 132.365 174.043C132.646 174.469 133.088 174.682 133.689 174.682C134.232 174.682 134.637 174.559 134.902 174.312C135.172 174.062 135.326 173.678 135.365 173.158H137.123ZM141.436 172.877H140.035V176H138.277V167.469H141.447C142.455 167.469 143.232 167.693 143.779 168.143C144.326 168.592 144.6 169.227 144.6 170.047C144.6 170.629 144.473 171.115 144.219 171.506C143.969 171.893 143.588 172.201 143.076 172.432L144.922 175.918V176H143.035L141.436 172.877ZM140.035 171.453H141.453C141.895 171.453 142.236 171.342 142.479 171.119C142.721 170.893 142.842 170.582 142.842 170.188C142.842 169.785 142.727 169.469 142.496 169.238C142.27 169.008 141.92 168.893 141.447 168.893H140.035V171.453ZM147.811 176H146.053V167.469H147.811V176ZM151.203 172.994V176H149.445V167.469H152.773C153.414 167.469 153.977 167.586 154.461 167.82C154.949 168.055 155.324 168.389 155.586 168.822C155.848 169.252 155.979 169.742 155.979 170.293C155.979 171.129 155.691 171.789 155.117 172.273C154.547 172.754 153.756 172.994 152.744 172.994H151.203ZM151.203 171.57H152.773C153.238 171.57 153.592 171.461 153.834 171.242C154.08 171.023 154.203 170.711 154.203 170.305C154.203 169.887 154.08 169.549 153.834 169.291C153.588 169.033 153.248 168.9 152.814 168.893H151.203V171.57ZM163.889 173.158C163.822 174.076 163.482 174.799 162.869 175.326C162.26 175.854 161.455 176.117 160.455 176.117C159.361 176.117 158.5 175.75 157.871 175.016C157.246 174.277 156.934 173.266 156.934 171.98V171.459C156.934 170.639 157.078 169.916 157.367 169.291C157.656 168.666 158.068 168.188 158.604 167.855C159.143 167.52 159.768 167.352 160.479 167.352C161.463 167.352 162.256 167.615 162.857 168.143C163.459 168.67 163.807 169.41 163.9 170.363H162.143C162.1 169.812 161.945 169.414 161.68 169.168C161.418 168.918 161.018 168.793 160.479 168.793C159.893 168.793 159.453 169.004 159.16 169.426C158.871 169.844 158.723 170.494 158.715 171.377V172.021C158.715 172.943 158.854 173.617 159.131 174.043C159.412 174.469 159.854 174.682 160.455 174.682C160.998 174.682 161.402 174.559 161.668 174.312C161.938 174.062 162.092 173.678 162.131 173.158H163.889ZM166.912 176H165.154V167.469H166.912V176ZM175.555 171.928C175.555 172.768 175.406 173.504 175.109 174.137C174.812 174.77 174.387 175.258 173.832 175.602C173.281 175.945 172.648 176.117 171.934 176.117C171.227 176.117 170.596 175.947 170.041 175.607C169.486 175.268 169.057 174.783 168.752 174.154C168.447 173.521 168.293 172.795 168.289 171.975V171.553C168.289 170.713 168.439 169.975 168.74 169.338C169.045 168.697 169.473 168.207 170.023 167.867C170.578 167.523 171.211 167.352 171.922 167.352C172.633 167.352 173.264 167.523 173.814 167.867C174.369 168.207 174.797 168.697 175.098 169.338C175.402 169.975 175.555 170.711 175.555 171.547V171.928ZM173.773 171.541C173.773 170.646 173.613 169.967 173.293 169.502C172.973 169.037 172.516 168.805 171.922 168.805C171.332 168.805 170.877 169.035 170.557 169.496C170.236 169.953 170.074 170.625 170.07 171.512V171.928C170.07 172.799 170.23 173.475 170.551 173.955C170.871 174.436 171.332 174.676 171.934 174.676C172.523 174.676 172.977 174.445 173.293 173.984C173.609 173.52 173.77 172.844 173.773 171.957V171.541ZM172.262 165.184H174.107L172.484 167H171.107L172.262 165.184ZM183.77 176H182.012L178.59 170.387V176H176.832V167.469H178.59L182.018 173.094V167.469H183.77V176ZM188.258 172.531C188.258 171.637 188.377 170.785 188.615 169.977C188.854 169.168 189.205 168.453 189.67 167.832C190.135 167.207 190.639 166.773 191.182 166.531L191.51 167.445C190.939 167.867 190.494 168.52 190.174 169.402C189.854 170.285 189.693 171.316 189.693 172.496V172.678C189.693 173.861 189.852 174.896 190.168 175.783C190.484 176.67 190.932 177.332 191.51 177.77L191.182 178.666C190.65 178.428 190.154 178.006 189.693 177.4C189.236 176.799 188.887 176.104 188.645 175.314C188.402 174.525 188.273 173.701 188.258 172.842V172.531ZM196.443 176H194.75V169.473L192.729 170.1V168.723L196.262 167.457H196.443V176ZM205.068 176H199.221V174.84L201.98 171.898C202.359 171.484 202.639 171.123 202.818 170.814C203.002 170.506 203.094 170.213 203.094 169.936C203.094 169.557 202.998 169.26 202.807 169.045C202.615 168.826 202.342 168.717 201.986 168.717C201.604 168.717 201.301 168.85 201.078 169.115C200.859 169.377 200.75 169.723 200.75 170.152H199.051C199.051 169.633 199.174 169.158 199.42 168.729C199.67 168.299 200.021 167.963 200.475 167.721C200.928 167.475 201.441 167.352 202.016 167.352C202.895 167.352 203.576 167.562 204.061 167.984C204.549 168.406 204.793 169.002 204.793 169.771C204.793 170.193 204.684 170.623 204.465 171.061C204.246 171.498 203.871 172.008 203.34 172.59L201.4 174.635H205.068V176ZM211.578 167.469L213.77 173.656L215.949 167.469H218.258V176H216.494V173.668L216.67 169.643L214.367 176H213.16L210.863 169.648L211.039 173.668V176H209.281V167.469H211.578ZM224.926 172.303H221.551V174.588H225.512V176H219.793V167.469H225.5V168.893H221.551V170.926H224.926V172.303ZM230.967 173.762C230.967 173.43 230.85 173.176 230.615 173C230.381 172.82 229.959 172.633 229.35 172.438C228.74 172.238 228.258 172.043 227.902 171.852C226.934 171.328 226.449 170.623 226.449 169.736C226.449 169.275 226.578 168.865 226.836 168.506C227.098 168.143 227.471 167.859 227.955 167.656C228.443 167.453 228.99 167.352 229.596 167.352C230.205 167.352 230.748 167.463 231.225 167.686C231.701 167.904 232.07 168.215 232.332 168.617C232.598 169.02 232.73 169.477 232.73 169.988H230.973C230.973 169.598 230.85 169.295 230.604 169.08C230.357 168.861 230.012 168.752 229.566 168.752C229.137 168.752 228.803 168.844 228.564 169.027C228.326 169.207 228.207 169.445 228.207 169.742C228.207 170.02 228.346 170.252 228.623 170.439C228.904 170.627 229.316 170.803 229.859 170.967C230.859 171.268 231.588 171.641 232.045 172.086C232.502 172.531 232.73 173.086 232.73 173.75C232.73 174.488 232.451 175.068 231.893 175.49C231.334 175.908 230.582 176.117 229.637 176.117C228.98 176.117 228.383 175.998 227.844 175.76C227.305 175.518 226.893 175.188 226.607 174.77C226.326 174.352 226.186 173.867 226.186 173.316H227.949C227.949 174.258 228.512 174.729 229.637 174.729C230.055 174.729 230.381 174.645 230.615 174.477C230.85 174.305 230.967 174.066 230.967 173.762ZM239.059 172.303H235.684V174.588H239.645V176H233.926V167.469H239.633V168.893H235.684V170.926H239.059V172.303ZM245.1 173.762C245.1 173.43 244.982 173.176 244.748 173C244.514 172.82 244.092 172.633 243.482 172.438C242.873 172.238 242.391 172.043 242.035 171.852C241.066 171.328 240.582 170.623 240.582 169.736C240.582 169.275 240.711 168.865 240.969 168.506C241.23 168.143 241.604 167.859 242.088 167.656C242.576 167.453 243.123 167.352 243.729 167.352C244.338 167.352 244.881 167.463 245.357 167.686C245.834 167.904 246.203 168.215 246.465 168.617C246.73 169.02 246.863 169.477 246.863 169.988H245.105C245.105 169.598 244.982 169.295 244.736 169.08C244.49 168.861 244.145 168.752 243.699 168.752C243.27 168.752 242.936 168.844 242.697 169.027C242.459 169.207 242.34 169.445 242.34 169.742C242.34 170.02 242.479 170.252 242.756 170.439C243.037 170.627 243.449 170.803 243.992 170.967C244.992 171.268 245.721 171.641 246.178 172.086C246.635 172.531 246.863 173.086 246.863 173.75C246.863 174.488 246.584 175.068 246.025 175.49C245.467 175.908 244.715 176.117 243.77 176.117C243.113 176.117 242.516 175.998 241.977 175.76C241.438 175.518 241.025 175.188 240.74 174.77C240.459 174.352 240.318 173.867 240.318 173.316H242.082C242.082 174.258 242.645 174.729 243.77 174.729C244.188 174.729 244.514 174.645 244.748 174.477C244.982 174.305 245.1 174.066 245.1 173.762ZM250.865 172.666C250.865 173.549 250.738 174.398 250.484 175.215C250.23 176.031 249.865 176.752 249.389 177.377C248.912 178.002 248.402 178.432 247.859 178.666L247.531 177.77C248.086 177.352 248.523 176.707 248.844 175.836C249.164 174.965 249.33 173.963 249.342 172.83V172.52C249.342 171.352 249.182 170.322 248.861 169.432C248.545 168.541 248.102 167.873 247.531 167.428L247.859 166.531C248.391 166.762 248.891 167.18 249.359 167.785C249.832 168.391 250.197 169.096 250.455 169.9C250.717 170.705 250.854 171.539 250.865 172.402V172.666ZM258.441 171.424H260.82V172.449H258.441V175.145H257.352V172.449H254.973V171.424H257.352V168.934H258.441V171.424ZM265.508 171.723L265.941 167.469H270.312V168.471H266.861L266.604 170.797C267.021 170.551 267.496 170.428 268.027 170.428C268.805 170.428 269.422 170.686 269.879 171.201C270.336 171.713 270.564 172.406 270.564 173.281C270.564 174.16 270.326 174.854 269.85 175.361C269.377 175.865 268.715 176.117 267.863 176.117C267.109 176.117 266.494 175.908 266.018 175.49C265.541 175.072 265.27 174.494 265.203 173.756H266.229C266.295 174.244 266.469 174.613 266.75 174.863C267.031 175.109 267.402 175.232 267.863 175.232C268.367 175.232 268.762 175.061 269.047 174.717C269.336 174.373 269.48 173.898 269.48 173.293C269.48 172.723 269.324 172.266 269.012 171.922C268.703 171.574 268.291 171.4 267.775 171.4C267.303 171.4 266.932 171.504 266.662 171.711L266.375 171.945L265.508 171.723ZM281.305 174.881C281.016 175.295 280.611 175.605 280.092 175.812C279.576 176.016 278.975 176.117 278.287 176.117C277.592 176.117 276.975 175.955 276.436 175.631C275.896 175.303 275.479 174.838 275.182 174.236C274.889 173.635 274.738 172.938 274.73 172.145V171.4C274.73 170.115 275.029 169.119 275.627 168.412C276.229 167.705 277.072 167.352 278.158 167.352C279.049 167.352 279.766 167.58 280.309 168.037C280.852 168.49 281.184 169.135 281.305 169.971H280.18C279.969 168.842 279.297 168.277 278.164 168.277C277.41 168.277 276.838 168.543 276.447 169.074C276.061 169.602 275.865 170.367 275.861 171.371V172.068C275.861 173.025 276.08 173.787 276.518 174.354C276.955 174.916 277.547 175.197 278.293 175.197C278.715 175.197 279.084 175.15 279.4 175.057C279.717 174.963 279.979 174.805 280.186 174.582V172.666H278.211V171.752H281.305V174.881ZM283.186 176V167.469H285.975C286.9 167.469 287.596 167.66 288.061 168.043C288.529 168.426 288.764 168.992 288.764 169.742C288.764 170.141 288.65 170.494 288.424 170.803C288.197 171.107 287.889 171.344 287.498 171.512C287.959 171.641 288.322 171.887 288.588 172.25C288.857 172.609 288.992 173.039 288.992 173.539C288.992 174.305 288.744 174.906 288.248 175.344C287.752 175.781 287.051 176 286.145 176H283.186ZM284.311 172.01V175.08H286.168C286.691 175.08 287.104 174.945 287.404 174.676C287.709 174.402 287.861 174.027 287.861 173.551C287.861 172.523 287.303 172.01 286.186 172.01H284.311ZM284.311 171.107H286.01C286.502 171.107 286.895 170.984 287.188 170.738C287.484 170.492 287.633 170.158 287.633 169.736C287.633 169.268 287.496 168.928 287.223 168.717C286.949 168.502 286.533 168.395 285.975 168.395H284.311V171.107Z" fill="#222222"/>
<path d="M109.115 188.66V192H107.99V183.469H111.137C112.07 183.469 112.801 183.707 113.328 184.184C113.859 184.66 114.125 185.291 114.125 186.076C114.125 186.904 113.865 187.543 113.346 187.992C112.83 188.438 112.09 188.66 111.125 188.66H109.115ZM109.115 187.74H111.137C111.738 187.74 112.199 187.6 112.52 187.318C112.84 187.033 113 186.623 113 186.088C113 185.58 112.84 185.174 112.52 184.869C112.199 184.564 111.76 184.406 111.201 184.395H109.115V187.74ZM119.463 189.773H115.889L115.086 192H113.926L117.184 183.469H118.168L121.432 192H120.277L119.463 189.773ZM116.229 188.848H119.129L117.676 184.857L116.229 188.848ZM125.709 188.549H123.705V192H122.574V183.469H125.398C126.359 183.469 127.098 183.688 127.613 184.125C128.133 184.562 128.393 185.199 128.393 186.035C128.393 186.566 128.248 187.029 127.959 187.424C127.674 187.818 127.275 188.113 126.764 188.309L128.768 191.93V192H127.561L125.709 188.549ZM123.705 187.629H125.434C125.992 187.629 126.436 187.484 126.764 187.195C127.096 186.906 127.262 186.52 127.262 186.035C127.262 185.508 127.104 185.104 126.787 184.822C126.475 184.541 126.021 184.398 125.428 184.395H123.705V187.629ZM134.686 189.773H131.111L130.309 192H129.148L132.406 183.469H133.391L136.654 192H135.5L134.686 189.773ZM131.451 188.848H134.352L132.898 184.857L131.451 188.848ZM147.055 189.293C146.949 190.195 146.615 190.893 146.053 191.385C145.494 191.873 144.75 192.117 143.82 192.117C142.812 192.117 142.004 191.756 141.395 191.033C140.789 190.311 140.486 189.344 140.486 188.133V187.312C140.486 186.52 140.627 185.822 140.908 185.221C141.193 184.619 141.596 184.158 142.115 183.838C142.635 183.514 143.236 183.352 143.92 183.352C144.826 183.352 145.553 183.605 146.1 184.113C146.646 184.617 146.965 185.316 147.055 186.211H145.924C145.826 185.531 145.613 185.039 145.285 184.734C144.961 184.43 144.506 184.277 143.92 184.277C143.201 184.277 142.637 184.543 142.227 185.074C141.82 185.605 141.617 186.361 141.617 187.342V188.168C141.617 189.094 141.811 189.83 142.197 190.377C142.584 190.924 143.125 191.197 143.82 191.197C144.445 191.197 144.924 191.057 145.256 190.775C145.592 190.49 145.814 189.996 145.924 189.293H147.055ZM149.727 191.08H153.77V192H148.596V183.469H149.727V191.08ZM159.881 189.773H156.307L155.504 192H154.344L157.602 183.469H158.586L161.85 192H160.695L159.881 189.773ZM156.646 188.848H159.547L158.094 184.857L156.646 188.848ZM166.127 188.549H164.123V192H162.992V183.469H165.816C166.777 183.469 167.516 183.688 168.031 184.125C168.551 184.562 168.811 185.199 168.811 186.035C168.811 186.566 168.666 187.029 168.377 187.424C168.092 187.818 167.693 188.113 167.182 188.309L169.186 191.93V192H167.979L166.127 188.549ZM164.123 187.629H165.852C166.41 187.629 166.854 187.484 167.182 187.195C167.514 186.906 167.68 186.52 167.68 186.035C167.68 185.508 167.521 185.104 167.205 184.822C166.893 184.541 166.439 184.398 165.846 184.395H164.123V187.629ZM176.955 188.01C176.955 188.846 176.814 189.576 176.533 190.201C176.252 190.822 175.854 191.297 175.338 191.625C174.822 191.953 174.221 192.117 173.533 192.117C172.861 192.117 172.266 191.953 171.746 191.625C171.227 191.293 170.822 190.822 170.533 190.213C170.248 189.6 170.102 188.891 170.094 188.086V187.471C170.094 186.65 170.236 185.926 170.521 185.297C170.807 184.668 171.209 184.188 171.729 183.855C172.252 183.52 172.85 183.352 173.521 183.352C174.205 183.352 174.807 183.518 175.326 183.85C175.85 184.178 176.252 184.656 176.533 185.285C176.814 185.91 176.955 186.639 176.955 187.471V188.01ZM175.836 187.459C175.836 186.447 175.633 185.672 175.227 185.133C174.82 184.59 174.252 184.318 173.521 184.318C172.811 184.318 172.25 184.59 171.84 185.133C171.434 185.672 171.225 186.422 171.213 187.383V188.01C171.213 188.99 171.418 189.762 171.828 190.324C172.242 190.883 172.811 191.162 173.533 191.162C174.26 191.162 174.822 190.898 175.221 190.371C175.619 189.84 175.824 189.08 175.836 188.092V187.459ZM184.443 190.506L186.881 183.469H188.111L184.947 192H183.951L180.793 183.469H182.018L184.443 190.506ZM190.467 192H189.342V183.469H190.467V192ZM192.529 192V183.469H194.938C195.68 183.469 196.336 183.633 196.906 183.961C197.477 184.289 197.916 184.756 198.225 185.361C198.537 185.967 198.695 186.662 198.699 187.447V187.992C198.699 188.797 198.543 189.502 198.23 190.107C197.922 190.713 197.479 191.178 196.9 191.502C196.326 191.826 195.656 191.992 194.891 192H192.529ZM193.654 184.395V191.08H194.838C195.705 191.08 196.379 190.811 196.859 190.271C197.344 189.732 197.586 188.965 197.586 187.969V187.471C197.586 186.502 197.357 185.75 196.9 185.215C196.447 184.676 195.803 184.402 194.967 184.395H193.654ZM205.227 188.057H201.529V191.08H205.824V192H200.404V183.469H205.766V184.395H201.529V187.137H205.227V188.057ZM213.787 188.01C213.787 188.846 213.646 189.576 213.365 190.201C213.084 190.822 212.686 191.297 212.17 191.625C211.654 191.953 211.053 192.117 210.365 192.117C209.693 192.117 209.098 191.953 208.578 191.625C208.059 191.293 207.654 190.822 207.365 190.213C207.08 189.6 206.934 188.891 206.926 188.086V187.471C206.926 186.65 207.068 185.926 207.354 185.297C207.639 184.668 208.041 184.188 208.561 183.855C209.084 183.52 209.682 183.352 210.354 183.352C211.037 183.352 211.639 183.518 212.158 183.85C212.682 184.178 213.084 184.656 213.365 185.285C213.646 185.91 213.787 186.639 213.787 187.471V188.01ZM212.668 187.459C212.668 186.447 212.465 185.672 212.059 185.133C211.652 184.59 211.084 184.318 210.354 184.318C209.643 184.318 209.082 184.59 208.672 185.133C208.266 185.672 208.057 186.422 208.045 187.383V188.01C208.045 188.99 208.25 189.762 208.66 190.324C209.074 190.883 209.643 191.162 210.365 191.162C211.092 191.162 211.654 190.898 212.053 190.371C212.451 189.84 212.656 189.08 212.668 188.092V187.459Z" fill="#222222"/>
<defs>
<filter id="filter0_d" x="157.75" y="101.156" width="17.9375" height="18.5625" filterUnits="userSpaceOnUse" color-interpolation-filters="sRGB">
<feFlood flood-opacity="0" result="BackgroundImageFix"/>
<feColorMatrix in="SourceAlpha" type="matrix" values="0 0 0 0 0 0 0 0 0 0 0 0 0 0 0 0 0 0 127 0"/>
<feOffset dx="2" dy="2"/>
<feColorMatrix type="matrix" values="0 0 0 0 0 0 0 0 0 0 0 0 0 0 0 0 0 0 0.15 0"/>
<feBlend mode="normal" in2="BackgroundImageFix" result="effect1_dropShadow"/>
<feBlend mode="normal" in="SourceGraphic" in2="effect1_dropShadow" result="shape"/>
</filter>
<clipPath id="clip0">
<rect width="50" height="28.7879" fill="white" transform="translate(41 163)"/>
</clipPath>
</defs>
</svg>
