<svg width="302" height="317" viewBox="0 0 302 317" fill="none" xmlns="http://www.w3.org/2000/svg">
<rect width="302" height="317" fill="#F5F5F5"/>
<path opacity="0.2" d="M39.9494 43.5024C41.246 46.1533 43.3948 48.2922 46.0515 49.5768C46.2459 49.6689 46.4609 49.7088 46.6754 49.6926C46.8899 49.6763 47.0964 49.6045 47.2747 49.4842L51.1866 46.8757C51.3596 46.7604 51.5586 46.69 51.7657 46.671C51.9728 46.6519 52.1813 46.6849 52.3724 46.7668L59.6907 49.9032C59.9393 50.0088 60.1469 50.1923 60.2821 50.4262C60.4173 50.66 60.4729 50.9314 60.4405 51.1996C60.2092 53.0096 59.326 54.6732 57.9564 55.879C56.5869 57.0847 54.8247 57.7499 53 57.75C47.3641 57.75 41.9591 55.5112 37.974 51.526C33.9888 47.5409 31.75 42.1359 31.75 36.5C31.7501 34.6753 32.4153 32.9132 33.6211 31.5436C34.8268 30.174 36.4905 29.2909 38.3005 29.0596C38.5686 29.0271 38.84 29.0827 39.0739 29.2179C39.3077 29.3531 39.4912 29.5607 39.5968 29.8093L42.736 37.134C42.8172 37.3234 42.8502 37.53 42.8323 37.7353C42.8143 37.9407 42.7458 38.1384 42.6329 38.3109L40.0335 42.2827C39.9152 42.4614 39.8453 42.6677 39.8305 42.8815C39.8158 43.0952 39.8567 43.3092 39.9494 43.5024V43.5024Z" fill="#EF3829"/>
<path d="M39.9494 43.5024C41.246 46.1533 43.3948 48.2922 46.0515 49.5768C46.2459 49.6689 46.4609 49.7088 46.6754 49.6926C46.8899 49.6763 47.0964 49.6045 47.2747 49.4842L51.1866 46.8757C51.3596 46.7604 51.5586 46.69 51.7657 46.671C51.9728 46.6519 52.1813 46.6849 52.3724 46.7668L59.6907 49.9032C59.9393 50.0088 60.1469 50.1923 60.2821 50.4262C60.4173 50.66 60.4729 50.9314 60.4405 51.1996C60.2092 53.0096 59.326 54.6732 57.9564 55.879C56.5869 57.0847 54.8247 57.7499 53 57.75C47.3641 57.75 41.9591 55.5112 37.974 51.526C33.9888 47.5409 31.75 42.1359 31.75 36.5C31.7501 34.6753 32.4153 32.9132 33.6211 31.5436C34.8268 30.174 36.4905 29.2909 38.3005 29.0596C38.5686 29.0271 38.84 29.0827 39.0739 29.2179C39.3077 29.3531 39.4912 29.5607 39.5968 29.8093L42.736 37.134C42.8172 37.3234 42.8502 37.53 42.8323 37.7353C42.8143 37.9407 42.7458 38.1384 42.6329 38.3109L40.0335 42.2827C39.9152 42.4614 39.8453 42.6677 39.8305 42.8815C39.8158 43.0952 39.8567 43.3092 39.9494 43.5024V43.5024Z" stroke="#EF3829" stroke-width="2" stroke-linecap="round" stroke-linejoin="round"/>
<path d="M78.9531 58H72.1172V29.5625H78.9531V58ZM88.9742 52.7266H100.908V58H82.1187V29.5625H88.9742V52.7266ZM109.503 58H102.667V29.5625H109.503V58ZM121.673 29.5625L128.02 49.3477L134.348 29.5625H143.372V58H136.497V51.3594L137.161 37.7656L130.286 58H125.755L118.86 37.7461L119.524 51.3594V58H112.669V29.5625H121.673ZM153.452 58H146.616V29.5625H153.452V58ZM178.355 34.8555H169.82V58H162.965V34.8555H154.586V29.5625H178.355V34.8555ZM193.474 52.6875H184.08L182.439 58H175.115L185.545 29.5625H191.99L202.498 58H195.134L193.474 52.6875ZM185.72 47.3945H191.834L188.767 37.5312L185.72 47.3945ZM202.988 58V29.5625H212.148C214.661 29.5625 216.92 30.1354 218.925 31.2812C220.93 32.4141 222.493 34.0221 223.613 36.1055C224.745 38.1758 225.318 40.5 225.331 43.0781V44.3867C225.331 46.9909 224.778 49.3281 223.671 51.3984C222.577 53.4557 221.028 55.0703 219.023 56.2422C217.03 57.401 214.804 57.987 212.343 58H202.988ZM209.843 34.8555V52.7266H212.226C214.192 52.7266 215.702 52.0299 216.757 50.6367C217.812 49.2305 218.339 47.1471 218.339 44.3867V43.1562C218.339 40.4089 217.812 38.3385 216.757 36.9453C215.702 35.5521 214.166 34.8555 212.148 34.8555H209.843ZM251.329 44.3672C251.329 47.1406 250.815 49.5951 249.786 51.7305C248.757 53.8659 247.292 55.513 245.391 56.6719C243.503 57.8177 241.348 58.3906 238.927 58.3906C236.505 58.3906 234.356 57.8372 232.481 56.7305C230.606 55.6107 229.141 54.0156 228.087 51.9453C227.045 49.875 226.498 47.4987 226.446 44.8164V43.2148C226.446 40.4284 226.954 37.974 227.97 35.8516C228.998 33.7161 230.463 32.069 232.364 30.9102C234.278 29.7513 236.453 29.1719 238.887 29.1719C241.296 29.1719 243.445 29.7448 245.333 30.8906C247.221 32.0365 248.686 33.6706 249.727 35.793C250.782 37.9023 251.316 40.3242 251.329 43.0586V44.3672ZM244.356 43.1758C244.356 40.3503 243.881 38.2083 242.93 36.75C241.993 35.2786 240.645 34.543 238.887 34.543C235.45 34.543 233.634 37.1211 233.438 42.2773L233.419 44.3672C233.419 47.1536 233.881 49.2956 234.805 50.793C235.73 52.2904 237.104 53.0391 238.927 53.0391C240.658 53.0391 241.993 52.3034 242.93 50.832C243.868 49.3607 244.343 47.2448 244.356 44.4844V43.1758ZM267.932 50.4414C267.932 49.4388 267.574 48.6576 266.858 48.0977C266.155 47.5378 264.911 46.9583 263.127 46.3594C261.343 45.7604 259.885 45.181 258.752 44.6211C255.067 42.8112 253.225 40.3242 253.225 37.1602C253.225 35.5846 253.681 34.1979 254.592 33C255.517 31.7891 256.819 30.8516 258.498 30.1875C260.178 29.5104 262.066 29.1719 264.163 29.1719C266.207 29.1719 268.036 29.5365 269.651 30.2656C271.278 30.9948 272.541 32.0365 273.44 33.3906C274.338 34.7318 274.788 36.2682 274.788 38H267.952C267.952 36.8411 267.593 35.9427 266.877 35.3047C266.174 34.6667 265.217 34.3477 264.006 34.3477C262.782 34.3477 261.812 34.6211 261.096 35.168C260.393 35.7018 260.041 36.3854 260.041 37.2188C260.041 37.9479 260.432 38.612 261.213 39.2109C261.995 39.7969 263.368 40.4089 265.334 41.0469C267.301 41.6719 268.915 42.349 270.178 43.0781C273.251 44.849 274.788 47.2904 274.788 50.4023C274.788 52.8893 273.85 54.8424 271.975 56.2617C270.1 57.681 267.528 58.3906 264.26 58.3906C261.955 58.3906 259.866 57.9805 257.991 57.1602C256.129 56.3268 254.722 55.194 253.772 53.7617C252.834 52.3164 252.366 50.6562 252.366 48.7812H259.241C259.241 50.3047 259.631 51.431 260.413 52.1602C261.207 52.8763 262.489 53.2344 264.26 53.2344C265.393 53.2344 266.285 52.9935 266.936 52.5117C267.6 52.0169 267.932 51.3268 267.932 50.4414Z" fill="#EF3829"/>
<path d="M72.7578 66.625L76.4766 75.9062L80.1953 66.625H82.1406V78H80.6406V73.5703L80.7812 68.7891L77.0469 78H75.8984L72.1719 68.8125L72.3203 73.5703V78H70.8203V66.625H72.7578ZM87.0384 78H85.5384V66.625H87.0384V78ZM99.1706 78H97.6628L91.9363 69.2344V78H90.4284V66.625H91.9363L97.6784 75.4297V66.625H99.1706V78ZM110.483 66.625V74.3594C110.477 75.4323 110.139 76.3099 109.467 76.9922C108.8 77.6745 107.894 78.0573 106.748 78.1406L106.35 78.1562C105.105 78.1562 104.113 77.8203 103.373 77.1484C102.634 76.4766 102.259 75.5521 102.248 74.375V66.625H103.733V74.3281C103.733 75.151 103.959 75.7917 104.412 76.25C104.865 76.7031 105.511 76.9297 106.35 76.9297C107.199 76.9297 107.847 76.7031 108.295 76.25C108.748 75.7969 108.975 75.1589 108.975 74.3359V66.625H110.483ZM121.349 67.8594H117.693V78H116.201V67.8594H112.552V66.625H121.349V67.8594ZM132.208 72.6797C132.208 73.7943 132.02 74.7682 131.645 75.6016C131.27 76.4297 130.739 77.0625 130.052 77.5C129.364 77.9375 128.562 78.1562 127.645 78.1562C126.749 78.1562 125.955 77.9375 125.263 77.5C124.57 77.0573 124.031 76.4297 123.645 75.6172C123.265 74.7995 123.07 73.8542 123.059 72.7812V71.9609C123.059 70.8672 123.249 69.901 123.63 69.0625C124.01 68.224 124.546 67.5833 125.239 67.1406C125.937 66.6927 126.734 66.4688 127.63 66.4688C128.541 66.4688 129.343 66.6901 130.036 67.1328C130.734 67.5703 131.27 68.2083 131.645 69.0469C132.02 69.8802 132.208 70.8516 132.208 71.9609V72.6797ZM130.716 71.9453C130.716 70.5964 130.445 69.5625 129.903 68.8438C129.361 68.1198 128.604 67.7578 127.63 67.7578C126.682 67.7578 125.934 68.1198 125.388 68.8438C124.846 69.5625 124.567 70.5625 124.552 71.8438V72.6797C124.552 73.987 124.825 75.0156 125.372 75.7656C125.924 76.5104 126.682 76.8828 127.645 76.8828C128.614 76.8828 129.364 76.5312 129.895 75.8281C130.427 75.1198 130.7 74.1068 130.716 72.7891V71.9453ZM138.449 72.9297C137.163 72.5599 136.225 72.1068 135.637 71.5703C135.054 71.0286 134.762 70.362 134.762 69.5703C134.762 68.6745 135.119 67.9349 135.832 67.3516C136.551 66.763 137.483 66.4688 138.629 66.4688C139.41 66.4688 140.106 66.6198 140.715 66.9219C141.33 67.224 141.804 67.6406 142.137 68.1719C142.475 68.7031 142.645 69.2839 142.645 69.9141H141.137C141.137 69.2266 140.918 68.6875 140.481 68.2969C140.043 67.901 139.426 67.7031 138.629 67.7031C137.889 67.7031 137.311 67.8672 136.895 68.1953C136.483 68.5182 136.277 68.9688 136.277 69.5469C136.277 70.0104 136.473 70.4036 136.863 70.7266C137.259 71.0443 137.929 71.3359 138.871 71.6016C139.819 71.8672 140.559 72.1615 141.09 72.4844C141.626 72.8021 142.022 73.1745 142.277 73.6016C142.538 74.0286 142.668 74.5312 142.668 75.1094C142.668 76.0312 142.309 76.7708 141.59 77.3281C140.871 77.8802 139.91 78.1562 138.707 78.1562C137.926 78.1562 137.197 78.0078 136.52 77.7109C135.843 77.4089 135.319 76.9974 134.949 76.4766C134.585 75.9557 134.402 75.3646 134.402 74.7031H135.91C135.91 75.3906 136.163 75.9349 136.668 76.3359C137.179 76.7318 137.858 76.9297 138.707 76.9297C139.499 76.9297 140.106 76.7682 140.527 76.4453C140.949 76.1224 141.16 75.6823 141.16 75.125C141.16 74.5677 140.965 74.138 140.574 73.8359C140.184 73.5286 139.475 73.2266 138.449 72.9297ZM156.128 75.0312H151.362L150.292 78H148.745L153.089 66.625H154.401L158.753 78H157.214L156.128 75.0312ZM151.815 73.7969H155.683L153.745 68.4766L151.815 73.7969ZM173.08 67.8594H169.423V78H167.931V67.8594H164.283V66.625H173.08V67.8594ZM183.938 72.6797C183.938 73.7943 183.751 74.7682 183.376 75.6016C183.001 76.4297 182.47 77.0625 181.782 77.5C181.095 77.9375 180.293 78.1562 179.376 78.1562C178.48 78.1562 177.686 77.9375 176.993 77.5C176.3 77.0573 175.761 76.4297 175.376 75.6172C174.996 74.7995 174.8 73.8542 174.79 72.7812V71.9609C174.79 70.8672 174.98 69.901 175.36 69.0625C175.741 68.224 176.277 67.5833 176.97 67.1406C177.668 66.6927 178.464 66.4688 179.36 66.4688C180.272 66.4688 181.074 66.6901 181.767 67.1328C182.464 67.5703 183.001 68.2083 183.376 69.0469C183.751 69.8802 183.938 70.8516 183.938 71.9609V72.6797ZM182.446 71.9453C182.446 70.5964 182.175 69.5625 181.634 68.8438C181.092 68.1198 180.334 67.7578 179.36 67.7578C178.412 67.7578 177.665 68.1198 177.118 68.8438C176.576 69.5625 176.298 70.5625 176.282 71.8438V72.6797C176.282 73.987 176.556 75.0156 177.103 75.7656C177.655 76.5104 178.412 76.8828 179.376 76.8828C180.345 76.8828 181.095 76.5312 181.626 75.8281C182.157 75.1198 182.431 74.1068 182.446 72.7891V71.9453ZM186.828 78V66.625H190.039C191.029 66.625 191.904 66.8438 192.664 67.2812C193.425 67.7188 194.011 68.3411 194.422 69.1484C194.839 69.9557 195.05 70.8828 195.055 71.9297V72.6562C195.055 73.7292 194.847 74.6693 194.43 75.4766C194.019 76.2839 193.427 76.9036 192.657 77.3359C191.891 77.7682 190.998 77.9896 189.977 78H186.828ZM188.328 67.8594V76.7734H189.907C191.063 76.7734 191.961 76.4141 192.602 75.6953C193.248 74.9766 193.571 73.9531 193.571 72.625V71.9609C193.571 70.6693 193.266 69.6667 192.657 68.9531C192.052 68.2344 191.193 67.8698 190.078 67.8594H188.328ZM206.718 72.6797C206.718 73.7943 206.531 74.7682 206.156 75.6016C205.781 76.4297 205.25 77.0625 204.562 77.5C203.875 77.9375 203.073 78.1562 202.156 78.1562C201.26 78.1562 200.466 77.9375 199.773 77.5C199.08 77.0573 198.541 76.4297 198.156 75.6172C197.776 74.7995 197.58 73.8542 197.57 72.7812V71.9609C197.57 70.8672 197.76 69.901 198.14 69.0625C198.521 68.224 199.057 67.5833 199.75 67.1406C200.448 66.6927 201.244 66.4688 202.14 66.4688C203.052 66.4688 203.854 66.6901 204.547 67.1328C205.244 67.5703 205.781 68.2083 206.156 69.0469C206.531 69.8802 206.718 70.8516 206.718 71.9609V72.6797ZM205.226 71.9453C205.226 70.5964 204.955 69.5625 204.414 68.8438C203.872 68.1198 203.114 67.7578 202.14 67.7578C201.192 67.7578 200.445 68.1198 199.898 68.8438C199.356 69.5625 199.078 70.5625 199.062 71.8438V72.6797C199.062 73.987 199.336 75.0156 199.882 75.7656C200.435 76.5104 201.192 76.8828 202.156 76.8828C203.125 76.8828 203.875 76.5312 204.406 75.8281C204.937 75.1198 205.211 74.1068 205.226 72.7891V71.9453ZM212.96 72.9297C211.674 72.5599 210.736 72.1068 210.148 71.5703C209.564 71.0286 209.273 70.362 209.273 69.5703C209.273 68.6745 209.629 67.9349 210.343 67.3516C211.062 66.763 211.994 66.4688 213.14 66.4688C213.921 66.4688 214.616 66.6198 215.226 66.9219C215.84 67.224 216.314 67.6406 216.648 68.1719C216.986 68.7031 217.155 69.2839 217.155 69.9141H215.648C215.648 69.2266 215.429 68.6875 214.991 68.2969C214.554 67.901 213.937 67.7031 213.14 67.7031C212.4 67.7031 211.822 67.8672 211.405 68.1953C210.994 68.5182 210.788 68.9688 210.788 69.5469C210.788 70.0104 210.983 70.4036 211.374 70.7266C211.77 71.0443 212.439 71.3359 213.382 71.6016C214.33 71.8672 215.069 72.1615 215.601 72.4844C216.137 72.8021 216.533 73.1745 216.788 73.6016C217.049 74.0286 217.179 74.5312 217.179 75.1094C217.179 76.0312 216.819 76.7708 216.101 77.3281C215.382 77.8802 214.421 78.1562 213.218 78.1562C212.437 78.1562 211.707 78.0078 211.03 77.7109C210.353 77.4089 209.83 76.9974 209.46 76.4766C209.095 75.9557 208.913 75.3646 208.913 74.7031H210.421C210.421 75.3906 210.674 75.9349 211.179 76.3359C211.689 76.7318 212.369 76.9297 213.218 76.9297C214.009 76.9297 214.616 76.7682 215.038 76.4453C215.46 76.1224 215.671 75.6823 215.671 75.125C215.671 74.5677 215.476 74.138 215.085 73.8359C214.694 73.5286 213.986 73.2266 212.96 72.9297Z" fill="#222222" fill-opacity="0.8"/>
<path d="M13.5967 125.07L14.9004 114.172H27.3662V118.01H18.9141L18.4307 122.243C18.7822 122.038 19.2412 121.857 19.8076 121.701C20.3838 121.545 20.9453 121.467 21.4922 121.467C23.6113 121.467 25.2373 122.097 26.3701 123.356C27.5127 124.606 28.084 126.364 28.084 128.63C28.084 129.997 27.7764 131.237 27.1611 132.351C26.5557 133.454 25.7012 134.304 24.5977 134.899C23.4941 135.495 22.1904 135.793 20.6865 135.793C19.3486 135.793 18.0938 135.52 16.9219 134.973C15.75 134.416 14.832 133.659 14.168 132.702C13.5039 131.735 13.1768 130.646 13.1865 129.436H18.1377C18.1865 130.217 18.4355 130.837 18.8848 131.296C19.334 131.755 19.9248 131.984 20.6572 131.984C22.3174 131.984 23.1475 130.754 23.1475 128.293C23.1475 126.018 22.1318 124.88 20.1006 124.88C18.9482 124.88 18.0889 125.251 17.5225 125.993L13.5967 125.07ZM45.4863 126.784C45.4863 129.665 44.8369 131.887 43.5381 133.449C42.249 135.012 40.4277 135.793 38.0742 135.793C35.7012 135.793 33.8652 135.007 32.5664 133.435C31.2676 131.862 30.6182 129.646 30.6182 126.784V122.888C30.6182 120.007 31.2627 117.785 32.5518 116.223C33.8506 114.66 35.6816 113.879 38.0449 113.879C40.4082 113.879 42.2393 114.665 43.5381 116.237C44.8369 117.81 45.4863 120.031 45.4863 122.902V126.784ZM40.5498 122.258C40.5498 120.725 40.3496 119.582 39.9492 118.83C39.5488 118.068 38.9141 117.688 38.0449 117.688C37.1953 117.688 36.5752 118.039 36.1846 118.742C35.8037 119.445 35.5986 120.51 35.5693 121.936V127.385C35.5693 128.977 35.7695 130.144 36.1699 130.886C36.5703 131.618 37.2051 131.984 38.0742 131.984C38.9141 131.984 39.5342 131.628 39.9346 130.915C40.335 130.192 40.54 129.064 40.5498 127.531V122.258ZM62.5811 114.172L67.3418 129.011L72.0879 114.172H78.8555V135.5H73.6992V130.52L74.1973 120.324L69.041 135.5H65.6426L60.4717 120.31L60.9697 130.52V135.5H55.8281V114.172H62.5811ZM87.6152 135.5H82.4883V114.172H87.6152V135.5ZM109.002 135.5H103.89L96.3311 122.229V135.5H91.1895V114.172H96.3311L103.875 127.443V114.172H109.002V135.5Z" fill="#222222"/>
<path d="M14.4746 153.427H19.1914V154.5H13.1553V144.547H14.4746V153.427ZM26.3213 151.902H22.1514L21.2148 154.5H19.8613L23.6621 144.547H24.8105L28.6182 154.5H27.2715L26.3213 151.902ZM22.5479 150.822H25.9316L24.2363 146.167L22.5479 150.822ZM33.6084 150.474H31.2705V154.5H29.9512V144.547H33.2461C34.3672 144.547 35.2285 144.802 35.8301 145.312C36.4362 145.823 36.7393 146.566 36.7393 147.541C36.7393 148.161 36.5706 148.701 36.2334 149.161C35.9007 149.621 35.4359 149.965 34.8389 150.193L37.1768 154.418V154.5H35.7686L33.6084 150.474ZM31.2705 149.4H33.2871C33.9388 149.4 34.4561 149.232 34.8389 148.895C35.2262 148.557 35.4199 148.106 35.4199 147.541C35.4199 146.926 35.2354 146.454 34.8662 146.126C34.5016 145.798 33.973 145.632 33.2803 145.627H31.2705V149.4ZM45.9336 153.194C45.5964 153.677 45.1247 154.04 44.5186 154.281C43.917 154.518 43.2152 154.637 42.4131 154.637C41.6019 154.637 40.8818 154.448 40.2529 154.069C39.624 153.687 39.1364 153.144 38.79 152.442C38.4482 151.741 38.2728 150.927 38.2637 150.002V149.134C38.2637 147.634 38.6123 146.472 39.3096 145.647C40.0114 144.823 40.9958 144.41 42.2627 144.41C43.3018 144.41 44.138 144.677 44.7715 145.21C45.4049 145.739 45.7923 146.491 45.9336 147.466H44.6211C44.375 146.149 43.5911 145.49 42.2695 145.49C41.39 145.49 40.7223 145.8 40.2666 146.42C39.8154 147.035 39.5876 147.928 39.583 149.1V149.913C39.583 151.03 39.8382 151.918 40.3486 152.579C40.859 153.235 41.5495 153.563 42.4199 153.563C42.9121 153.563 43.3428 153.509 43.7119 153.399C44.0811 153.29 44.3864 153.105 44.6279 152.846V150.61H42.3242V149.544H45.9336V153.194ZM53.624 151.902H49.4541L48.5176 154.5H47.1641L50.9648 144.547H52.1133L55.9209 154.5H54.5742L53.624 151.902ZM49.8506 150.822H53.2344L51.5391 146.167L49.8506 150.822ZM60.7334 154.5V144.547H63.543C64.4089 144.547 65.1745 144.738 65.8398 145.121C66.5052 145.504 67.0179 146.049 67.3779 146.755C67.7425 147.461 67.9271 148.272 67.9316 149.188V149.824C67.9316 150.763 67.7493 151.586 67.3848 152.292C67.0247 152.998 66.5075 153.541 65.833 153.919C65.1631 154.297 64.3815 154.491 63.4883 154.5H60.7334ZM62.0459 145.627V153.427H63.4268C64.4385 153.427 65.2246 153.112 65.7852 152.483C66.3503 151.854 66.6328 150.959 66.6328 149.797V149.216C66.6328 148.086 66.3662 147.208 65.833 146.584C65.3044 145.955 64.5524 145.636 63.5771 145.627H62.0459ZM71.3291 154.5H70.0166V144.547H71.3291V154.5ZM76.668 150.063C75.5423 149.74 74.722 149.343 74.207 148.874C73.6966 148.4 73.4414 147.817 73.4414 147.124C73.4414 146.34 73.7536 145.693 74.3779 145.183C75.0068 144.668 75.8226 144.41 76.8252 144.41C77.5088 144.41 78.1172 144.542 78.6504 144.807C79.1882 145.071 79.6029 145.436 79.8945 145.9C80.1908 146.365 80.3389 146.873 80.3389 147.425H79.0195C79.0195 146.823 78.8281 146.352 78.4453 146.01C78.0625 145.663 77.5225 145.49 76.8252 145.49C76.1781 145.49 75.6722 145.634 75.3076 145.921C74.9476 146.203 74.7676 146.598 74.7676 147.104C74.7676 147.509 74.9385 147.853 75.2803 148.136C75.6266 148.414 76.2122 148.669 77.0371 148.901C77.8665 149.134 78.5137 149.391 78.9785 149.674C79.4479 149.952 79.7943 150.278 80.0176 150.651C80.2454 151.025 80.3594 151.465 80.3594 151.971C80.3594 152.777 80.0449 153.424 79.416 153.912C78.7871 154.395 77.9463 154.637 76.8936 154.637C76.21 154.637 75.5719 154.507 74.9795 154.247C74.387 153.983 73.929 153.623 73.6055 153.167C73.2865 152.711 73.127 152.194 73.127 151.615H74.4463C74.4463 152.217 74.6673 152.693 75.1094 153.044C75.556 153.39 76.1507 153.563 76.8936 153.563C77.5863 153.563 78.1172 153.422 78.4863 153.14C78.8555 152.857 79.04 152.472 79.04 151.984C79.04 151.497 78.8691 151.121 78.5273 150.856C78.1855 150.588 77.5658 150.323 76.668 150.063ZM88.9248 145.627H85.7256V154.5H84.4199V145.627H81.2275V144.547H88.9248V145.627ZM95.3506 151.902H91.1807L90.2441 154.5H88.8906L92.6914 144.547H93.8398L97.6475 154.5H96.3008L95.3506 151.902ZM91.5771 150.822H94.9609L93.2656 146.167L91.5771 150.822ZM106.637 154.5H105.317L100.307 146.83V154.5H98.9873V144.547H100.307L105.331 152.251V144.547H106.637V154.5ZM116.289 151.342C116.166 152.395 115.776 153.208 115.12 153.782C114.468 154.352 113.6 154.637 112.516 154.637C111.34 154.637 110.396 154.215 109.686 153.372C108.979 152.529 108.626 151.401 108.626 149.988V149.031C108.626 148.106 108.79 147.293 109.118 146.591C109.451 145.889 109.92 145.351 110.526 144.978C111.132 144.599 111.834 144.41 112.632 144.41C113.689 144.41 114.537 144.706 115.175 145.299C115.813 145.887 116.184 146.702 116.289 147.746H114.97C114.856 146.953 114.607 146.379 114.225 146.023C113.846 145.668 113.315 145.49 112.632 145.49C111.793 145.49 111.135 145.8 110.656 146.42C110.182 147.04 109.945 147.922 109.945 149.065V150.029C109.945 151.109 110.171 151.968 110.622 152.606C111.073 153.244 111.704 153.563 112.516 153.563C113.245 153.563 113.803 153.399 114.19 153.071C114.582 152.739 114.842 152.162 114.97 151.342H116.289ZM119.495 154.5H118.183V144.547H119.495V154.5ZM127.521 151.902H123.351L122.414 154.5H121.061L124.861 144.547H126.01L129.817 154.5H128.471L127.521 151.902ZM123.747 150.822H127.131L125.436 146.167L123.747 150.822ZM14.5635 168.5H13.251V158.547H14.5635V168.5ZM24.6191 168.5H23.2998L18.2891 160.83V168.5H16.9697V158.547H18.2891L23.3135 166.251V158.547H24.6191V168.5ZM33.6221 159.627H30.4229V168.5H29.1172V159.627H25.9248V158.547H33.6221V159.627ZM40.7246 163.899H36.4111V167.427H41.4219V168.5H35.0986V158.547H41.3535V159.627H36.4111V162.826H40.7246V163.899ZM46.7061 164.474H44.3682V168.5H43.0488V158.547H46.3438C47.4648 158.547 48.3262 158.802 48.9277 159.312C49.5339 159.823 49.8369 160.566 49.8369 161.541C49.8369 162.161 49.6683 162.701 49.3311 163.161C48.9984 163.621 48.5335 163.965 47.9365 164.193L50.2744 168.418V168.5H48.8662L46.7061 164.474ZM44.3682 163.4H46.3848C47.0365 163.4 47.5537 163.232 47.9365 162.895C48.3239 162.557 48.5176 162.106 48.5176 161.541C48.5176 160.926 48.333 160.454 47.9639 160.126C47.5993 159.798 47.0706 159.632 46.3779 159.627H44.3682V163.4ZM59.332 168.5H58.0127L53.002 160.83V168.5H51.6826V158.547H53.002L58.0264 166.251V158.547H59.332V168.5ZM67.2822 165.902H63.1123L62.1758 168.5H60.8223L64.623 158.547H65.7715L69.5791 168.5H68.2324L67.2822 165.902ZM63.5088 164.822H66.8926L65.1973 160.167L63.5088 164.822ZM78.1582 165.342C78.0352 166.395 77.6455 167.208 76.9893 167.782C76.3376 168.352 75.4694 168.637 74.3848 168.637C73.209 168.637 72.2656 168.215 71.5547 167.372C70.8483 166.529 70.4951 165.401 70.4951 163.988V163.031C70.4951 162.106 70.6592 161.293 70.9873 160.591C71.32 159.889 71.7894 159.351 72.3955 158.978C73.0016 158.599 73.7035 158.41 74.501 158.41C75.5583 158.41 76.4059 158.706 77.0439 159.299C77.682 159.887 78.0534 160.702 78.1582 161.746H76.8389C76.7249 160.953 76.4766 160.379 76.0938 160.023C75.7155 159.668 75.1846 159.49 74.501 159.49C73.6624 159.49 73.0039 159.8 72.5254 160.42C72.0514 161.04 71.8145 161.922 71.8145 163.065V164.029C71.8145 165.109 72.04 165.968 72.4912 166.606C72.9424 167.244 73.5736 167.563 74.3848 167.563C75.1139 167.563 75.6722 167.399 76.0596 167.071C76.4515 166.739 76.7113 166.162 76.8389 165.342H78.1582ZM81.3643 168.5H80.0518V158.547H81.3643V168.5ZM91.4268 163.845C91.4268 164.82 91.2627 165.672 90.9346 166.401C90.6064 167.126 90.1416 167.68 89.54 168.062C88.9385 168.445 88.2367 168.637 87.4346 168.637C86.6507 168.637 85.9557 168.445 85.3496 168.062C84.7435 167.675 84.2718 167.126 83.9346 166.415C83.6019 165.7 83.431 164.872 83.4219 163.934V163.216C83.4219 162.259 83.5882 161.413 83.9209 160.68C84.2536 159.946 84.723 159.385 85.3291 158.998C85.9398 158.606 86.637 158.41 87.4209 158.41C88.2184 158.41 88.9202 158.604 89.5264 158.991C90.137 159.374 90.6064 159.932 90.9346 160.666C91.2627 161.395 91.4268 162.245 91.4268 163.216V163.845ZM90.1211 163.202C90.1211 162.022 89.8841 161.117 89.4102 160.488C88.9362 159.855 88.2731 159.538 87.4209 159.538C86.5915 159.538 85.9375 159.855 85.459 160.488C84.985 161.117 84.7412 161.992 84.7275 163.113V163.845C84.7275 164.989 84.9668 165.889 85.4453 166.545C85.9284 167.197 86.5915 167.522 87.4346 167.522C88.2822 167.522 88.9385 167.215 89.4033 166.6C89.8682 165.98 90.1074 165.093 90.1211 163.94V163.202ZM101.045 168.5H99.7256L94.7148 160.83V168.5H93.3955V158.547H94.7148L99.7393 166.251V158.547H101.045V168.5ZM108.995 165.902H104.825L103.889 168.5H102.535L106.336 158.547H107.484L111.292 168.5H109.945L108.995 165.902ZM105.222 164.822H108.605L106.91 160.167L105.222 164.822ZM113.951 167.427H118.668V168.5H112.632V158.547H113.951V167.427Z" fill="#222222"/>
<g filter="url(#filter0_d)">
<path d="M152.516 124.594H157.688L156.906 129.109H151.75L150.672 135.219H145.875L146.938 129.109H141.75L142.531 124.594H147.719L148.75 118.656H153.547L152.516 124.594Z" fill="#EF3829"/>
</g>
<path d="M174.134 113.859L177.625 124.741L181.105 113.859H186.068V129.5H182.287V125.848L182.652 118.371L178.871 129.5H176.379L172.587 118.36L172.952 125.848V129.5H169.182V113.859H174.134ZM198.175 122.872H192.245V126.6H199.249V129.5H188.475V113.859H199.271V116.771H192.245V120.068H198.175V122.872ZM213.848 129.5H210.099L204.556 119.768V129.5H200.785V113.859H204.556L210.088 123.592V113.859H213.848V129.5ZM224.3 125.343C224.3 124.791 224.103 124.362 223.709 124.054C223.322 123.746 222.638 123.427 221.657 123.098C220.676 122.768 219.874 122.45 219.251 122.142C217.224 121.146 216.211 119.778 216.211 118.038C216.211 117.172 216.462 116.409 216.963 115.75C217.471 115.084 218.188 114.568 219.111 114.203C220.035 113.831 221.074 113.645 222.227 113.645C223.351 113.645 224.357 113.845 225.245 114.246C226.14 114.647 226.835 115.22 227.329 115.965C227.823 116.702 228.07 117.548 228.07 118.5H224.311C224.311 117.863 224.114 117.368 223.72 117.018C223.333 116.667 222.807 116.491 222.141 116.491C221.467 116.491 220.934 116.642 220.54 116.942C220.153 117.236 219.96 117.612 219.96 118.07C219.96 118.471 220.175 118.837 220.604 119.166C221.034 119.488 221.79 119.825 222.871 120.176C223.952 120.52 224.84 120.892 225.535 121.293C227.225 122.267 228.07 123.61 228.07 125.321C228.07 126.689 227.555 127.763 226.523 128.544C225.492 129.325 224.078 129.715 222.28 129.715C221.013 129.715 219.863 129.489 218.832 129.038C217.808 128.58 217.035 127.957 216.512 127.169C215.996 126.374 215.738 125.461 215.738 124.43H219.52C219.52 125.268 219.734 125.887 220.164 126.288C220.601 126.682 221.306 126.879 222.28 126.879C222.903 126.879 223.394 126.746 223.752 126.481C224.117 126.209 224.3 125.83 224.3 125.343ZM238.888 126.578H233.721L232.818 129.5H228.79L234.526 113.859H238.071L243.851 129.5H239.801L238.888 126.578ZM234.623 123.667H237.985L236.299 118.242L234.623 123.667ZM251.23 113.859H254.99V124.591C254.99 125.586 254.757 126.474 254.292 127.255C253.834 128.035 253.189 128.641 252.358 129.07C251.535 129.5 250.615 129.715 249.598 129.715C247.893 129.715 246.568 129.285 245.623 128.426C244.678 127.566 244.205 126.349 244.205 124.773H247.986C247.986 125.49 248.108 126.009 248.352 126.331C248.602 126.653 249.018 126.814 249.598 126.814C250.12 126.814 250.521 126.621 250.801 126.234C251.087 125.84 251.23 125.293 251.23 124.591V113.859ZM267.075 122.872H261.146V126.6H268.149V129.5H257.375V113.859H268.171V116.771H261.146V120.068H267.075V122.872ZM277.753 125.343C277.753 124.791 277.556 124.362 277.162 124.054C276.775 123.746 276.091 123.427 275.11 123.098C274.129 122.768 273.327 122.45 272.704 122.142C270.677 121.146 269.664 119.778 269.664 118.038C269.664 117.172 269.915 116.409 270.416 115.75C270.924 115.084 271.641 114.568 272.564 114.203C273.488 113.831 274.527 113.645 275.68 113.645C276.804 113.645 277.81 113.845 278.698 114.246C279.593 114.647 280.288 115.22 280.782 115.965C281.276 116.702 281.523 117.548 281.523 118.5H277.764C277.764 117.863 277.567 117.368 277.173 117.018C276.786 116.667 276.26 116.491 275.594 116.491C274.921 116.491 274.387 116.642 273.993 116.942C273.606 117.236 273.413 117.612 273.413 118.07C273.413 118.471 273.628 118.837 274.058 119.166C274.487 119.488 275.243 119.825 276.324 120.176C277.406 120.52 278.294 120.892 278.988 121.293C280.678 122.267 281.523 123.61 281.523 125.321C281.523 126.689 281.008 127.763 279.977 128.544C278.945 129.325 277.531 129.715 275.733 129.715C274.466 129.715 273.316 129.489 272.285 129.038C271.261 128.58 270.488 127.957 269.965 127.169C269.449 126.374 269.191 125.461 269.191 124.43H272.973C272.973 125.268 273.188 125.887 273.617 126.288C274.054 126.682 274.759 126.879 275.733 126.879C276.356 126.879 276.847 126.746 277.205 126.481C277.57 126.209 277.753 125.83 277.753 125.343ZM173.199 151.5H169.439V135.859H173.199V151.5ZM179.591 148.6H186.154V151.5H175.82V135.859H179.591V148.6ZM191.762 151.5H188.002V135.859H191.762V151.5ZM199.335 135.859L202.826 146.741L206.307 135.859H211.27V151.5H207.488V147.848L207.854 140.371L204.072 151.5H201.58L197.788 140.36L198.153 147.848V151.5H194.383V135.859H199.335ZM217.693 151.5H213.934V135.859H217.693V151.5ZM232.271 138.771H227.576V151.5H223.806V138.771H219.197V135.859H232.271V138.771ZM241.466 148.578H236.299L235.396 151.5H231.368L237.104 135.859H240.649L246.429 151.5H242.379L241.466 148.578ZM237.201 145.667H240.563L238.877 140.242L237.201 145.667ZM247.578 151.5V135.859H252.616C253.998 135.859 255.241 136.174 256.344 136.805C257.447 137.428 258.306 138.312 258.922 139.458C259.545 140.597 259.86 141.875 259.867 143.293V144.013C259.867 145.445 259.563 146.73 258.954 147.869C258.353 149.001 257.5 149.889 256.397 150.533C255.302 151.171 254.077 151.493 252.724 151.5H247.578ZM251.349 138.771V148.6H252.659C253.741 148.6 254.571 148.216 255.151 147.45C255.731 146.677 256.021 145.531 256.021 144.013V143.336C256.021 141.825 255.731 140.686 255.151 139.92C254.571 139.154 253.726 138.771 252.616 138.771H251.349ZM275.046 144.002C275.046 145.527 274.763 146.877 274.197 148.052C273.632 149.226 272.826 150.132 271.78 150.77C270.742 151.4 269.557 151.715 268.225 151.715C266.893 151.715 265.711 151.41 264.68 150.802C263.648 150.186 262.843 149.309 262.263 148.17C261.69 147.031 261.389 145.724 261.36 144.249V143.368C261.36 141.836 261.64 140.486 262.198 139.318C262.764 138.144 263.57 137.238 264.615 136.601C265.668 135.963 266.864 135.645 268.203 135.645C269.528 135.645 270.71 135.96 271.748 136.59C272.786 137.22 273.592 138.119 274.165 139.286C274.745 140.446 275.039 141.778 275.046 143.282V144.002ZM271.211 143.347C271.211 141.793 270.95 140.615 270.427 139.812C269.911 139.003 269.17 138.599 268.203 138.599C266.312 138.599 265.313 140.017 265.206 142.853L265.195 144.002C265.195 145.535 265.45 146.713 265.958 147.536C266.466 148.36 267.222 148.771 268.225 148.771C269.177 148.771 269.911 148.367 270.427 147.558C270.942 146.748 271.204 145.585 271.211 144.066V143.347ZM285.058 147.343C285.058 146.791 284.861 146.362 284.467 146.054C284.08 145.746 283.396 145.427 282.415 145.098C281.434 144.768 280.632 144.45 280.009 144.142C277.982 143.146 276.969 141.778 276.969 140.038C276.969 139.172 277.219 138.409 277.721 137.75C278.229 137.084 278.945 136.568 279.869 136.203C280.793 135.831 281.831 135.645 282.984 135.645C284.109 135.645 285.115 135.845 286.003 136.246C286.898 136.647 287.593 137.22 288.087 137.965C288.581 138.702 288.828 139.548 288.828 140.5H285.068C285.068 139.863 284.871 139.368 284.478 139.018C284.091 138.667 283.564 138.491 282.898 138.491C282.225 138.491 281.692 138.642 281.298 138.942C280.911 139.236 280.718 139.612 280.718 140.07C280.718 140.471 280.933 140.837 281.362 141.166C281.792 141.488 282.548 141.825 283.629 142.176C284.71 142.52 285.598 142.892 286.293 143.293C287.983 144.267 288.828 145.61 288.828 147.321C288.828 148.689 288.312 149.763 287.281 150.544C286.25 151.325 284.836 151.715 283.038 151.715C281.771 151.715 280.621 151.489 279.59 151.038C278.566 150.58 277.792 149.957 277.27 149.169C276.754 148.374 276.496 147.461 276.496 146.43H280.277C280.277 147.268 280.492 147.887 280.922 148.288C281.359 148.682 282.064 148.879 283.038 148.879C283.661 148.879 284.152 148.746 284.51 148.481C284.875 148.209 285.058 147.83 285.058 147.343Z" fill="#222222"/>
<path d="M170.851 156.547L174.104 164.668L177.358 156.547H179.061V166.5H177.748V162.624L177.871 158.44L174.604 166.5H173.599L170.338 158.461L170.468 162.624V166.5H169.155V156.547H170.851ZM188.385 156.547V163.314C188.38 164.253 188.084 165.021 187.496 165.618C186.913 166.215 186.12 166.55 185.117 166.623L184.769 166.637C183.679 166.637 182.811 166.343 182.164 165.755C181.517 165.167 181.189 164.358 181.18 163.328V156.547H182.479V163.287C182.479 164.007 182.677 164.568 183.073 164.969C183.47 165.365 184.035 165.563 184.769 165.563C185.511 165.563 186.079 165.365 186.471 164.969C186.867 164.572 187.065 164.014 187.065 163.294V156.547H188.385ZM191.775 165.427H196.492V166.5H190.456V156.547H191.775V165.427ZM202.979 157.627H199.78V166.5H198.475V157.627H195.282V156.547H202.979V157.627ZM205.864 166.5H204.552V156.547H205.864V166.5ZM208.271 166.5V156.547H211.08C211.946 156.547 212.712 156.738 213.377 157.121C214.042 157.504 214.555 158.049 214.915 158.755C215.28 159.461 215.464 160.272 215.469 161.188V161.824C215.469 162.763 215.286 163.586 214.922 164.292C214.562 164.998 214.045 165.541 213.37 165.919C212.7 166.297 211.919 166.491 211.025 166.5H208.271ZM209.583 157.627V165.427H210.964C211.976 165.427 212.762 165.112 213.322 164.483C213.887 163.854 214.17 162.959 214.17 161.797V161.216C214.17 160.086 213.903 159.208 213.37 158.584C212.841 157.955 212.09 157.636 211.114 157.627H209.583ZM223.084 161.899H218.771V165.427H223.781V166.5H217.458V156.547H223.713V157.627H218.771V160.826H223.084V161.899ZM228.348 162.063C227.222 161.74 226.402 161.343 225.887 160.874C225.376 160.4 225.121 159.817 225.121 159.124C225.121 158.34 225.433 157.693 226.058 157.183C226.687 156.668 227.502 156.41 228.505 156.41C229.188 156.41 229.797 156.542 230.33 156.807C230.868 157.071 231.283 157.436 231.574 157.9C231.87 158.365 232.019 158.873 232.019 159.425H230.699C230.699 158.823 230.508 158.352 230.125 158.01C229.742 157.663 229.202 157.49 228.505 157.49C227.858 157.49 227.352 157.634 226.987 157.921C226.627 158.203 226.447 158.598 226.447 159.104C226.447 159.509 226.618 159.853 226.96 160.136C227.306 160.414 227.892 160.669 228.717 160.901C229.546 161.134 230.193 161.391 230.658 161.674C231.128 161.952 231.474 162.278 231.697 162.651C231.925 163.025 232.039 163.465 232.039 163.971C232.039 164.777 231.725 165.424 231.096 165.912C230.467 166.395 229.626 166.637 228.573 166.637C227.89 166.637 227.252 166.507 226.659 166.247C226.067 165.983 225.609 165.623 225.285 165.167C224.966 164.711 224.807 164.194 224.807 163.615H226.126C226.126 164.217 226.347 164.693 226.789 165.044C227.236 165.39 227.83 165.563 228.573 165.563C229.266 165.563 229.797 165.422 230.166 165.14C230.535 164.857 230.72 164.472 230.72 163.984C230.72 163.497 230.549 163.121 230.207 162.856C229.865 162.588 229.245 162.323 228.348 162.063ZM240.604 157.627H237.405V166.5H236.1V157.627H232.907V156.547H240.604V157.627ZM243.489 166.5H242.177V156.547H243.489V166.5ZM253.545 166.5H252.226L247.215 158.83V166.5H245.896V156.547H247.215L252.239 164.251V156.547H253.545V166.5ZM263.532 161.845C263.532 162.82 263.368 163.672 263.04 164.401C262.712 165.126 262.247 165.68 261.646 166.062C261.044 166.445 260.342 166.637 259.54 166.637C258.756 166.637 258.061 166.445 257.455 166.062C256.849 165.675 256.377 165.126 256.04 164.415C255.707 163.7 255.536 162.872 255.527 161.934V161.216C255.527 160.259 255.694 159.413 256.026 158.68C256.359 157.946 256.828 157.385 257.435 156.998C258.045 156.606 258.743 156.41 259.526 156.41C260.324 156.41 261.026 156.604 261.632 156.991C262.243 157.374 262.712 157.932 263.04 158.666C263.368 159.395 263.532 160.245 263.532 161.216V161.845ZM262.227 161.202C262.227 160.022 261.99 159.117 261.516 158.488C261.042 157.855 260.379 157.538 259.526 157.538C258.697 157.538 258.043 157.855 257.564 158.488C257.09 159.117 256.847 159.992 256.833 161.113V161.845C256.833 162.989 257.072 163.889 257.551 164.545C258.034 165.197 258.697 165.522 259.54 165.522C260.388 165.522 261.044 165.215 261.509 164.6C261.974 163.98 262.213 163.093 262.227 161.94V161.202Z" fill="#222222"/>
<g clip-path="url(#clip0)">
<path d="M82.356 214.895C82.2495 214.895 82.2495 214.895 82.2495 214.895C81.1839 214.895 80.1184 214.895 79.1594 214.895C79.0528 214.895 78.9463 214.895 78.9463 214.789C78.2004 213.421 77.1348 212.474 75.6431 212.053C73.512 211.526 71.8071 212.158 70.3153 213.737C69.4629 214.684 69.0367 215.842 69.0367 217.105C69.0367 218.053 69.2498 218.895 69.676 219.737C70.5284 221.105 71.7005 222.053 73.2989 222.263C75.3234 222.579 77.0283 221.947 78.3069 220.263C78.5201 220.053 78.6266 219.737 78.8397 219.421C78.8397 219.316 78.9463 219.316 79.0528 219.316C80.1184 219.316 81.1839 219.316 82.2495 219.316C82.356 219.316 82.356 219.316 82.356 219.421C81.9298 221 81.0774 222.368 79.7987 223.421C78.5201 224.474 77.1348 225.21 75.43 225.421C73.512 225.632 71.594 225.421 69.8891 224.368C67.6515 223 66.2663 221 65.84 218.474C65.5204 216.158 65.9466 213.947 67.4384 212.053C68.3974 210.895 69.4629 209.842 70.8481 209.316C71.594 209 72.3399 208.789 73.1923 208.789C74.3644 208.684 75.5365 208.684 76.7086 209.105C79.0528 209.842 80.7577 211.316 81.8232 213.526C82.0364 213.947 82.1429 214.368 82.356 214.895Z" fill="#EF3829"/>
<path d="M97.1673 224.368C97.0608 224.368 97.0608 224.474 97.0608 224.474C96.3149 225 95.4624 225.316 94.61 225.526C93.8641 225.632 93.1182 225.737 92.3724 225.632C90.9871 225.421 89.9216 224.895 89.3888 223.526C89.1757 222.895 89.0692 222.263 89.1757 221.632C89.1757 221.105 89.2823 220.579 89.4954 220.053C89.9216 219.105 90.6675 218.474 91.6265 218.053C92.3724 217.737 93.1182 217.632 93.8641 217.526C94.61 217.421 95.3559 217.316 96.1018 217.21C96.6346 217.105 97.0608 216.579 96.9542 215.947C96.8477 215.421 96.6346 215.105 96.1018 214.895C95.4624 214.684 94.9297 214.684 94.2903 214.789C94.0772 214.789 93.8641 214.895 93.651 214.895C93.1182 215.105 92.7986 215.632 92.5855 216.158V216.263C92.4789 216.579 92.4789 216.579 92.2658 216.579C91.3068 216.579 90.3478 216.579 89.3888 216.579C89.2823 216.579 89.2823 216.579 89.2823 216.474C89.2823 216.053 89.3888 215.632 89.4954 215.21C89.9216 213.632 90.9871 212.684 92.4789 212.263C93.5445 211.947 94.5035 211.947 95.569 212.053C96.528 212.053 97.487 212.368 98.3394 212.789C99.405 213.316 99.9377 214.158 100.151 215.21C100.257 215.526 100.257 215.842 100.257 216.158C100.257 219.316 100.257 222.368 100.257 225.526C100.257 225.632 100.257 225.737 100.044 225.737C99.0853 225.737 98.0198 225.737 97.0608 225.737C96.9542 225.737 96.9542 225.737 96.9542 225.632C96.9542 225.316 96.9542 224.895 96.9542 224.579C97.2739 224.368 97.2739 224.368 97.1673 224.368ZM97.0608 219C96.9542 219.105 96.8477 219.105 96.8477 219.105C96.7411 219.21 96.528 219.316 96.4214 219.316C95.7821 219.421 95.2493 219.632 94.61 219.737C94.1838 219.842 93.8641 219.842 93.5445 220.053C93.0117 220.263 92.692 220.684 92.5855 221.21C92.4789 221.526 92.4789 221.737 92.5855 222.053C92.692 222.684 93.1182 223.21 93.7576 223.316C94.7166 223.526 95.569 223.21 96.3149 222.684C96.8477 222.368 96.9542 221.737 97.0608 221.21C97.1673 220.474 97.0608 219.737 97.0608 219Z" fill="#EF3829"/>
<path d="M110.593 218.789C110.593 215.421 113.044 213.105 115.175 212.368C119.331 211 123.273 213.526 124.126 217.316C124.552 219.421 124.232 221.316 122.953 223C121.888 224.368 120.503 225.316 118.798 225.632C116.56 226.053 114.536 225.526 112.937 223.947C111.978 223 111.232 221.947 110.913 220.684C110.7 220.053 110.593 219.421 110.593 218.789ZM117.413 215.316C115.388 215.21 113.79 217.105 113.79 218.895C113.79 220.579 115.175 222.474 117.413 222.474C119.65 222.474 121.035 220.579 121.035 218.895C121.035 216.895 119.544 215.21 117.413 215.316Z" fill="#EF3829"/>
<path d="M113.15 232.263C113.15 232.158 113.15 232.158 113.15 232.053C113.15 230.789 113.15 229.421 113.15 228.158C113.15 228.053 113.15 228.053 113.364 228.053C114.109 228.053 114.749 228.053 115.495 228.053C115.601 228.053 115.601 228.053 115.601 228.158C115.601 232.368 115.601 236.579 115.601 240.789C115.601 240.895 115.601 240.895 115.495 240.895C114.855 240.895 114.109 240.895 113.47 240.895C113.364 240.895 113.364 240.895 113.364 240.789C113.364 240.579 113.364 240.368 113.364 240.053H113.257C112.618 240.684 111.872 241 110.913 241C110.487 241 110.06 240.895 109.634 240.789C108.675 240.474 108.142 239.737 107.823 238.789C107.716 238.368 107.61 237.947 107.61 237.421C107.61 236.263 107.503 235.211 107.716 234.053C107.823 233.632 107.929 233.211 108.036 232.789C108.356 232.053 108.888 231.632 109.634 231.421C110.593 231.105 111.446 231.105 112.405 231.526C112.724 231.842 112.937 232.053 113.15 232.263ZM113.15 236.158C113.15 236.053 113.15 236.053 113.15 235.947C113.15 235.421 113.15 234.789 112.937 234.263C112.724 233.842 112.511 233.632 112.085 233.526C111.978 233.526 111.765 233.421 111.659 233.421C111.019 233.421 110.487 233.632 110.167 234.368C110.06 234.789 109.954 235.211 109.954 235.632C109.954 236.263 109.954 236.895 110.06 237.526C110.167 238.263 110.593 238.789 111.446 238.789C112.192 238.789 112.724 238.474 112.937 237.842C113.15 237.316 113.15 236.789 113.15 236.158Z" fill="black"/>
<path d="M105.798 214.263C106.118 213.842 106.331 213.632 106.651 213.316C107.29 212.789 108.036 212.368 108.888 212.158C109.315 212.053 109.741 212.053 110.167 211.947C110.273 211.947 110.273 212.053 110.273 212.053C110.273 212.684 110.273 213.421 110.273 214.053C110.273 214.368 110.273 214.789 110.273 215.105C110.273 215.211 110.273 215.211 110.167 215.211C109.847 215.211 109.528 215.105 109.101 215.211C108.569 215.211 108.142 215.421 107.716 215.632C106.864 216.158 106.224 216.789 106.011 217.842C105.905 218.263 105.905 218.789 105.905 219.211C105.905 221.211 105.905 223.316 105.905 225.316C105.905 225.421 105.905 225.526 105.692 225.526C104.733 225.526 103.774 225.526 102.815 225.526C102.708 225.526 102.708 225.526 102.708 225.421C102.708 221.211 102.708 217 102.708 212.684C102.708 212.579 102.708 212.579 102.815 212.579C103.774 212.579 104.733 212.579 105.692 212.579C105.798 212.579 105.798 212.579 105.798 212.684C105.798 213.316 105.798 213.737 105.798 214.263Z" fill="#EF3829"/>
<path d="M87.2578 217.105C87.2578 219.842 87.2578 222.684 87.2578 225.421C87.2578 225.526 87.2578 225.632 87.0447 225.632C86.0857 225.632 85.1267 225.632 84.0611 225.632C83.9546 225.632 83.848 225.632 83.848 225.421C83.848 219.842 83.848 214.368 83.848 208.79C83.848 208.684 83.848 208.579 84.0611 208.579C85.0201 208.579 86.0857 208.579 87.0447 208.579C87.1512 208.579 87.1512 208.579 87.1512 208.79C87.2578 211.632 87.2578 214.368 87.2578 217.105Z" fill="#EF3829"/>
<path d="M122.74 236.895C121.781 236.895 120.822 236.895 119.863 236.895C119.757 236.895 119.757 236.895 119.757 237C119.757 237.947 120.29 238.684 121.142 238.79C122.101 239 123.06 238.895 123.806 238.158C124.019 237.947 124.019 237.947 124.126 238.158C124.552 238.579 124.871 238.895 125.298 239.316C125.404 239.421 125.404 239.421 125.298 239.421C124.658 240.053 123.806 240.579 122.847 240.79C121.888 240.895 120.929 240.895 119.97 240.579C118.904 240.263 118.159 239.526 117.732 238.474C117.093 236.79 117.093 235.105 117.732 233.526C118.372 232.053 119.544 231.316 121.142 231.211C121.781 231.211 122.527 231.211 123.06 231.526C124.232 232.053 124.978 233 125.298 234.158C125.404 234.684 125.511 235.211 125.511 235.737C125.511 236.053 125.511 236.368 125.511 236.684C125.511 236.79 125.511 236.79 125.404 236.79C124.658 236.895 123.699 236.895 122.74 236.895ZM121.568 235.316C122.101 235.316 122.74 235.316 123.273 235.316C123.38 235.316 123.38 235.316 123.38 235.211C123.38 234.895 123.273 234.684 123.167 234.474C122.74 233.211 121.249 233.211 120.503 233.632C119.97 234.053 119.757 234.579 119.757 235.211C119.757 235.316 119.757 235.316 119.863 235.316C120.396 235.316 121.035 235.316 121.568 235.316Z" fill="black"/>
<path d="M135.207 236.158C135.207 236.895 135.207 237.632 134.994 238.263C134.675 239.526 133.822 240.368 132.543 240.789C131.478 241.105 130.412 241.105 129.347 240.579C128.175 240.053 127.535 239.21 127.322 237.947C127.109 237 127.109 236.053 127.216 235.105C127.216 234.579 127.322 233.947 127.642 233.421C128.175 232.263 129.134 231.632 130.412 231.316C131.158 231.21 132.011 231.21 132.757 231.421C134.035 231.842 134.888 232.789 135.207 234.158C135.207 234.895 135.207 235.526 135.207 236.158ZM129.56 236.158C129.56 236.684 129.56 237.105 129.667 237.632C129.88 238.684 130.626 239.105 131.584 238.895C132.224 238.789 132.543 238.263 132.757 237.737C132.97 236.789 132.97 235.842 132.757 234.895C132.65 234.368 132.437 233.947 131.904 233.737C131.478 233.526 131.158 233.526 130.732 233.632C130.093 233.842 129.773 234.263 129.667 234.789C129.56 235.21 129.453 235.632 129.56 236.158Z" fill="black"/>
<path d="M93.3313 231.421C93.651 231.421 93.9706 231.421 94.1837 231.421C94.7165 231.421 95.1427 231.421 95.6755 231.421C95.7821 231.421 95.8886 231.421 95.8886 231.632C96.5279 233.421 97.0607 235.316 97.7 237.105V237.211C97.8066 237.211 97.7 237.105 97.8066 237.105C98.4459 235.316 98.9787 233.421 99.618 231.526C99.618 231.421 99.7246 231.421 99.8311 231.421C100.577 231.421 101.323 231.421 102.069 231.421C102.282 231.421 102.282 231.421 102.175 231.526C101.216 234.158 100.151 236.895 99.1918 239.526C99.0853 239.947 98.8721 240.263 98.7656 240.684C98.7656 240.79 98.659 240.79 98.659 240.79C98.1263 240.79 97.5935 240.79 97.0607 240.79C96.9542 240.79 96.9542 240.79 96.8476 240.684C96.1017 238.79 95.4624 236.895 94.7165 235C94.2903 233.842 93.8641 232.684 93.4379 231.632C93.4379 231.526 93.4379 231.526 93.3313 231.421Z" fill="black"/>
<path d="M124.871 212.579C124.871 212.474 124.765 212.474 124.871 212.579C124.126 211.842 123.486 211.21 122.847 210.579C122.74 210.474 122.847 210.474 122.847 210.368L122.953 210.263C125.511 207.737 128.068 205.21 130.519 202.684C130.625 202.579 130.625 202.579 130.732 202.684C131.371 203.316 132.011 203.947 132.65 204.579C132.757 204.684 132.757 204.684 132.65 204.789C130.093 207.316 127.535 209.842 124.871 212.579C124.871 212.474 124.978 212.474 124.871 212.579Z" fill="#EF3829"/>
<path d="M130.625 215.737C132.011 215.737 133.396 215.737 134.781 215.737C134.888 215.737 134.888 215.737 134.888 215.842C134.888 216.684 134.888 217.632 134.888 218.474C134.888 218.579 134.888 218.579 134.781 218.579C132.011 218.579 129.134 218.579 126.363 218.579C126.257 218.579 126.257 218.579 126.257 218.474C126.257 217.632 126.257 216.684 126.257 215.842C126.257 215.737 126.257 215.737 126.363 215.737C127.855 215.737 129.24 215.737 130.625 215.737Z" fill="#EF3829"/>
<path d="M116.347 205.211C116.347 203.842 116.347 202.474 116.347 201.211C116.347 201.105 116.347 201 116.454 201C117.306 201 118.159 201 119.118 201C119.224 201 119.224 201 119.224 201.105C119.224 203.842 119.224 206.474 119.224 209.211C119.224 209.316 119.224 209.316 119.118 209.316C118.265 209.316 117.306 209.316 116.454 209.316C116.347 209.316 116.347 209.316 116.347 209.211C116.347 207.947 116.347 206.579 116.347 205.211Z" fill="#EF3829"/>
<path d="M103.347 236.158C103.347 234.684 103.347 233.105 103.347 231.632C103.347 231.526 103.347 231.421 103.454 231.421C104.2 231.421 104.839 231.421 105.585 231.421C105.692 231.421 105.692 231.421 105.692 231.526C105.692 234.579 105.692 237.632 105.692 240.684C105.692 240.79 105.692 240.79 105.585 240.79C104.839 240.79 104.2 240.79 103.454 240.79C103.347 240.79 103.347 240.79 103.347 240.684C103.347 239.211 103.347 237.632 103.347 236.158Z" fill="black"/>
<path d="M103.028 228.789C103.028 227.947 103.667 227.316 104.52 227.316C105.372 227.316 106.011 227.947 106.011 228.789C106.011 229.632 105.372 230.263 104.52 230.263C103.667 230.263 103.028 229.632 103.028 228.789Z" fill="black"/>
</g>
<g filter="url(#filter1_d)">
<path d="M154.729 216.979H159.901L159.12 221.494H153.964L152.886 227.604H148.089L149.151 221.494H143.964L144.745 216.979H149.933L150.964 211.041H155.761L154.729 216.979Z" fill="#EF3829"/>
</g>
<path d="M182.828 214.779C182.302 214.779 181.776 214.779 181.25 214.779C181.145 214.779 181.145 214.779 181.04 214.674C180.304 213.306 179.357 212.36 177.885 212.044C175.991 211.518 174.309 212.044 172.941 213.411C172.205 214.148 171.679 215.094 171.469 216.146C171.153 218.25 171.784 219.933 173.467 221.195C175.045 222.457 177.464 222.562 179.252 221.405C179.988 220.879 180.619 220.248 181.04 219.407C181.145 219.301 181.145 219.301 181.25 219.301C182.302 219.301 183.249 219.301 184.301 219.301C184.406 219.301 184.406 219.301 184.406 219.407C183.88 221.09 183.039 222.457 181.671 223.614C180.619 224.56 179.357 225.086 177.99 225.297C175.886 225.612 173.993 225.402 172.205 224.245C170.101 222.878 168.734 220.984 168.313 218.46C167.998 216.146 168.418 214.042 169.786 212.149C170.732 210.887 171.889 209.835 173.362 209.309C174.203 208.994 175.045 208.783 175.991 208.783C176.938 208.783 177.885 208.783 178.831 209.099C180.935 209.835 182.618 211.097 183.67 213.096C183.985 213.622 184.195 214.253 184.406 214.779C184.406 214.884 184.406 214.884 184.301 214.884C183.88 214.779 183.354 214.779 182.828 214.779Z" fill="#EF3829"/>
<path d="M199.236 224.14C198.816 224.56 198.29 224.771 197.764 224.981C196.712 225.402 195.66 225.507 194.503 225.402C193.767 225.297 193.031 225.086 192.4 224.56C191.768 223.929 191.453 223.193 191.348 222.246C191.348 221.615 191.348 220.984 191.453 220.353C191.768 219.196 192.505 218.46 193.557 218.039C194.293 217.724 195.029 217.618 195.765 217.513C196.607 217.408 197.343 217.303 198.184 217.093C198.71 216.987 199.131 216.461 199.026 215.725C198.921 215.304 198.71 214.989 198.29 214.884C197.974 214.779 197.659 214.673 197.343 214.673C196.922 214.673 196.607 214.673 196.186 214.673C195.555 214.779 195.134 215.199 194.819 215.83C194.819 215.936 194.714 216.041 194.714 216.251C194.714 216.356 194.608 216.461 194.503 216.461C193.557 216.461 192.61 216.461 191.558 216.461C191.453 216.461 191.453 216.461 191.453 216.356C191.453 215.936 191.558 215.41 191.663 214.989C192.084 213.622 193.031 212.675 194.398 212.254C194.924 212.044 195.555 211.939 196.186 211.939C197.343 211.834 198.5 211.939 199.657 212.254C199.973 212.359 200.288 212.465 200.709 212.675C201.655 213.096 202.076 213.832 202.286 214.884C202.392 215.304 202.392 215.62 202.392 216.041C202.392 219.091 202.392 222.246 202.392 225.297C202.392 225.402 202.392 225.507 202.181 225.507C201.235 225.507 200.288 225.507 199.236 225.507C199.131 225.507 199.026 225.507 199.131 225.297C199.236 224.981 199.236 224.56 199.236 224.14ZM199.026 218.881C198.816 218.986 198.605 219.196 198.395 219.196C197.869 219.407 197.238 219.512 196.712 219.617C196.291 219.722 195.976 219.722 195.555 219.932C195.029 220.143 194.714 220.458 194.608 221.089C194.503 221.3 194.503 221.615 194.608 221.826C194.714 222.562 195.134 222.983 195.765 223.088C196.186 223.193 196.607 223.193 197.027 222.983C198.395 222.562 198.816 221.931 199.026 220.879C199.131 220.248 199.026 219.617 199.026 218.881Z" fill="#EF3829"/>
<path d="M219.01 225.507C217.012 225.507 215.434 224.771 214.172 223.298C213.12 222.141 212.489 220.879 212.384 219.301C212.173 216.672 213.225 214.568 215.329 213.096C216.276 212.359 217.327 212.044 218.589 211.939C219.536 211.833 220.588 211.939 221.429 212.359C223.743 213.306 225.216 214.989 225.742 217.513C226.057 219.406 225.742 221.194 224.69 222.667C223.638 224.139 222.271 225.086 220.483 225.402C219.852 225.507 219.431 225.507 219.01 225.507ZM219.01 215.199C217.012 215.094 215.434 216.882 215.434 218.775C215.434 220.563 216.907 222.351 219.01 222.351C221.114 222.351 222.586 220.563 222.586 218.775C222.586 216.777 221.009 215.094 219.01 215.199Z" fill="#EF3829"/>
<path d="M184.616 232.343C185.037 231.923 185.458 231.712 185.983 231.502C186.93 231.186 187.772 231.292 188.613 231.712C188.929 231.923 189.139 232.133 189.454 232.449C189.56 232.554 189.56 232.554 189.665 232.449C190.191 231.923 190.822 231.502 191.558 231.397C192.399 231.292 193.136 231.292 193.977 231.607C194.924 232.028 195.45 232.869 195.66 233.921C195.765 234.237 195.765 234.552 195.765 234.868C195.765 236.761 195.765 238.759 195.765 240.653C195.765 240.758 195.765 240.863 195.66 240.758C195.029 240.758 194.293 240.758 193.662 240.758C193.556 240.758 193.556 240.758 193.556 240.653C193.556 238.759 193.556 236.971 193.556 235.078C193.556 234.763 193.556 234.447 193.346 234.237C193.136 233.711 192.505 233.395 191.979 233.395C191.453 233.395 191.032 233.606 190.717 234.026C190.506 234.342 190.401 234.657 190.401 234.973C190.401 236.866 190.401 238.654 190.401 240.547C190.401 240.653 190.401 240.758 190.191 240.758C189.56 240.758 188.823 240.758 188.192 240.758C188.087 240.758 188.087 240.758 188.087 240.653C188.087 238.759 188.087 236.971 188.087 235.078C188.087 234.763 188.087 234.447 187.877 234.131C187.561 233.606 187.14 233.395 186.615 233.395C185.983 233.395 185.563 233.606 185.247 234.131C185.037 234.447 185.037 234.763 185.037 235.078C185.037 236.866 185.037 238.759 185.037 240.547C185.037 240.653 185.037 240.653 184.932 240.653C184.195 240.653 183.564 240.653 182.828 240.653C182.723 240.653 182.723 240.653 182.723 240.547C182.723 237.497 182.723 234.447 182.723 231.397C182.723 231.292 182.723 231.292 182.828 231.292C183.459 231.292 184.195 231.292 184.827 231.292C184.932 231.292 184.932 231.292 184.932 231.397C184.616 231.818 184.616 232.133 184.616 232.343Z" fill="black"/>
<path d="M207.651 214.147C207.861 213.937 207.966 213.832 208.071 213.621C208.808 212.885 209.649 212.359 210.596 212.149C211.016 212.044 211.437 211.938 211.858 211.938C211.963 211.938 211.963 211.938 211.963 212.044C211.963 213.095 211.963 214.042 211.963 215.094C211.963 215.199 211.963 215.199 211.858 215.199C211.437 215.199 211.122 215.094 210.701 215.199C210.175 215.199 209.649 215.409 209.228 215.725C209.123 215.83 208.913 215.935 208.808 216.04C208.177 216.566 207.861 217.303 207.756 218.144C207.756 218.565 207.651 218.986 207.651 219.406C207.651 221.405 207.651 223.298 207.651 225.296C207.651 225.402 207.651 225.402 207.44 225.402C206.494 225.402 205.547 225.402 204.495 225.402C204.39 225.402 204.39 225.402 204.39 225.296C204.39 221.089 204.39 216.882 204.39 212.675C204.39 212.57 204.39 212.57 204.495 212.57C205.442 212.57 206.389 212.57 207.23 212.57C207.335 212.57 207.44 212.57 207.44 212.78C207.651 213.201 207.651 213.727 207.651 214.147Z" fill="#EF3829"/>
<path d="M186.194 217.093C186.194 214.358 186.194 211.623 186.194 208.889C186.194 208.784 186.194 208.678 186.404 208.678C187.351 208.678 188.298 208.678 189.349 208.678C189.455 208.678 189.56 208.678 189.56 208.784C189.56 214.253 189.56 219.827 189.56 225.297C189.56 225.402 189.56 225.507 189.455 225.507C188.508 225.507 187.456 225.507 186.51 225.507C186.404 225.507 186.404 225.507 186.404 225.297C186.194 222.562 186.194 219.827 186.194 217.093Z" fill="#EF3829"/>
<path d="M233.946 240.022C233.735 240.232 233.525 240.443 233.209 240.548C232.789 240.863 232.368 240.969 231.842 240.969C231.316 240.969 230.79 240.969 230.264 240.758C229.213 240.443 228.687 239.706 228.476 238.655C228.371 238.234 228.371 237.708 228.581 237.287C228.792 236.551 229.213 236.025 229.949 235.71C230.58 235.394 231.106 235.394 231.842 235.394C232.473 235.394 233.209 235.394 233.84 235.394C233.946 235.394 233.946 235.394 233.946 235.289C233.946 235.078 233.946 234.763 233.946 234.553C233.84 234.027 233.525 233.606 232.999 233.501C232.473 233.396 231.947 233.396 231.527 233.501C231.106 233.606 230.79 233.816 230.58 234.132C230.475 234.237 230.475 234.237 230.37 234.132C229.949 233.711 229.528 233.29 229.002 232.87C228.897 232.764 228.897 232.764 229.002 232.659C229.633 232.028 230.37 231.607 231.316 231.502C232.158 231.397 232.999 231.397 233.84 231.607C234.682 231.818 235.418 232.239 235.839 232.975C236.154 233.501 236.26 234.027 236.26 234.658C236.26 236.656 236.26 238.655 236.26 240.758C236.26 240.863 236.26 240.969 236.049 240.969C235.418 240.969 234.787 240.969 234.051 240.969C233.946 240.969 233.946 240.969 233.946 240.863C233.946 240.548 233.946 240.337 233.946 240.022ZM233.84 237.392C233.84 237.287 233.84 237.182 233.84 237.077C233.84 236.972 233.84 236.972 233.735 236.972C233.209 236.972 232.578 236.972 232.052 236.972C231.842 236.972 231.737 236.972 231.527 237.077C231.001 237.182 230.79 237.498 230.685 238.023C230.685 238.549 230.895 238.865 231.421 239.075C231.947 239.286 232.473 239.18 232.999 239.075C233.525 238.97 233.84 238.549 233.84 238.023C233.84 237.708 233.84 237.498 233.84 237.392Z" fill="black"/>
<path d="M203.128 240.022C202.181 240.969 201.024 241.179 199.762 240.863C198.605 240.548 197.974 239.812 197.764 238.655C197.658 238.339 197.658 237.918 197.658 237.603C197.658 235.604 197.658 233.711 197.658 231.713C197.658 231.608 197.658 231.502 197.869 231.502C198.5 231.502 199.236 231.502 199.867 231.502C199.972 231.502 199.972 231.502 199.972 231.607C199.972 233.501 199.972 235.289 199.972 237.182C199.972 237.708 200.078 238.129 200.393 238.444C200.709 238.76 201.129 238.865 201.55 238.865C202.076 238.865 202.497 238.655 202.812 238.234C203.023 238.023 203.023 237.708 203.128 237.392C203.128 237.077 203.128 236.866 203.128 236.551C203.128 234.973 203.128 233.29 203.128 231.713C203.128 231.608 203.128 231.607 203.233 231.607C203.864 231.607 204.6 231.607 205.231 231.607C205.337 231.607 205.337 231.608 205.337 231.713C205.337 234.763 205.337 237.813 205.337 240.758C205.337 240.863 205.337 240.863 205.231 240.863C204.6 240.863 203.864 240.863 203.233 240.863C203.128 240.863 203.128 240.863 203.128 240.758C203.128 240.443 203.128 240.232 203.128 240.022Z" fill="black"/>
<path d="M210.596 240.969C209.544 240.969 208.702 240.863 207.966 240.548C207.545 240.337 207.125 240.022 206.809 239.706C206.704 239.601 206.704 239.601 206.809 239.601C207.23 239.18 207.756 238.655 208.177 238.234C208.177 238.234 208.282 238.129 208.282 238.234C208.808 238.655 209.334 238.97 209.965 238.97C210.491 239.075 211.122 239.075 211.648 238.865C211.858 238.76 212.068 238.655 212.279 238.444C212.594 237.918 212.384 237.287 211.753 237.182C211.332 237.077 210.911 237.077 210.491 237.077C209.965 236.972 209.439 236.972 208.913 236.866C207.756 236.551 207.125 235.71 207.125 234.553C207.125 233.185 207.861 232.133 209.228 231.713C209.859 231.502 210.491 231.502 211.122 231.502C211.858 231.502 212.594 231.607 213.33 231.923C213.646 232.028 213.961 232.239 214.277 232.554C214.382 232.554 214.382 232.659 214.277 232.659C213.856 233.08 213.436 233.501 213.015 233.921C213.015 234.027 212.91 234.027 212.91 233.921C212.489 233.606 211.963 233.396 211.437 233.396C211.016 233.396 210.701 233.29 210.28 233.396C210.07 233.396 209.965 233.501 209.859 233.606C209.544 233.816 209.439 234.132 209.544 234.447C209.649 234.763 209.965 234.973 210.28 234.973C210.806 235.078 211.332 235.078 211.963 235.184C212.489 235.184 212.91 235.289 213.436 235.499C214.277 235.92 214.698 236.551 214.803 237.392C214.908 237.918 214.803 238.444 214.698 238.97C214.382 239.812 213.751 240.337 212.91 240.653C211.963 240.863 211.227 240.969 210.596 240.969Z" fill="black"/>
<path d="M220.378 236.235C220.378 235.289 220.483 234.447 220.903 233.606C221.429 232.449 222.376 231.713 223.743 231.502C224.585 231.397 225.426 231.397 226.162 231.607C226.794 231.818 227.214 232.133 227.635 232.554C227.74 232.659 227.635 232.659 227.635 232.659C227.109 233.185 226.688 233.606 226.162 234.132C226.057 234.237 226.057 234.132 226.057 234.132C225.742 233.816 225.531 233.606 225.111 233.501C224.059 233.29 223.217 233.816 222.902 234.868C222.692 235.71 222.692 236.551 222.902 237.392C223.112 238.129 223.533 238.549 224.164 238.76C224.795 238.865 225.426 238.76 225.952 238.234C226.162 238.023 226.162 238.023 226.268 238.234C226.688 238.655 227.109 239.075 227.53 239.496C227.635 239.601 227.635 239.601 227.53 239.706C226.688 240.548 225.637 240.863 224.48 240.863C223.638 240.863 222.902 240.653 222.271 240.232C221.429 239.706 220.903 238.865 220.588 237.918C220.483 237.392 220.378 236.761 220.378 236.235Z" fill="black"/>
<path d="M226.373 212.465C226.268 212.465 226.268 212.465 226.373 212.465C225.636 211.728 225.005 211.097 224.374 210.466C224.269 210.361 224.374 210.361 224.374 210.256C225.531 209.099 226.688 207.942 227.845 206.785C229.213 205.418 230.58 204.05 231.947 202.683C232.052 202.578 232.052 202.578 232.158 202.683C232.789 203.314 233.42 203.945 233.946 204.576C234.051 204.681 234.051 204.681 233.946 204.787C231.527 207.311 229.002 209.835 226.373 212.465C226.373 212.465 226.373 212.36 226.373 212.465Z" fill="#EF3829"/>
<path d="M232.052 218.565C230.685 218.565 229.318 218.565 227.95 218.565C227.845 218.565 227.74 218.565 227.74 218.355C227.74 217.513 227.74 216.672 227.74 215.725C227.74 215.62 227.74 215.62 227.845 215.62C230.58 215.62 233.315 215.62 236.049 215.62C236.155 215.62 236.155 215.62 236.155 215.725C236.155 216.566 236.155 217.408 236.155 218.355C236.155 218.46 236.155 218.46 236.049 218.46C234.787 218.565 233.42 218.565 232.052 218.565Z" fill="#EF3829"/>
<path d="M217.958 205.207C217.958 203.84 217.958 202.578 217.958 201.21C217.958 201 218.064 201 218.169 201C219.01 201 219.852 201 220.798 201C220.903 201 220.903 201 220.903 201.105C220.903 203.84 220.903 206.469 220.903 209.204C220.903 209.309 220.903 209.309 220.798 209.309C219.957 209.309 219.115 209.309 218.169 209.309C218.064 209.309 218.064 209.309 218.064 209.204C217.958 207.837 217.958 206.469 217.958 205.207Z" fill="#EF3829"/>
<path d="M216.276 236.13C216.276 234.658 216.276 233.08 216.276 231.607C216.276 231.502 216.276 231.502 216.381 231.502C217.117 231.502 217.748 231.502 218.484 231.502C218.589 231.502 218.589 231.502 218.589 231.607C218.589 234.658 218.589 237.708 218.589 240.653C218.589 240.758 218.589 240.758 218.484 240.758C217.748 240.758 217.117 240.758 216.381 240.758C216.276 240.758 216.276 240.758 216.276 240.653C216.276 239.18 216.276 237.708 216.276 236.13Z" fill="black"/>
<path d="M217.432 230.345C216.591 230.345 215.96 229.714 215.96 228.873C215.96 228.031 216.591 227.4 217.432 227.4C218.274 227.4 218.905 228.031 218.905 228.873C218.905 229.714 218.274 230.345 217.432 230.345Z" fill="black"/>
<path d="M200.498 230.03C200.604 229.714 200.709 229.399 200.919 228.978C201.129 228.347 201.445 227.716 201.655 227.085C201.655 226.98 201.655 226.98 201.761 226.98C202.497 226.98 203.338 226.98 204.075 226.98C204.075 226.98 204.075 227.085 203.969 227.085C203.338 228.031 202.707 228.978 202.076 229.925C202.076 230.03 201.971 230.03 201.866 230.03C201.445 230.03 200.919 230.03 200.498 230.03Z" fill="black"/>
<path d="M35.9141 268.016C35.9141 267.573 35.7578 267.234 35.4453 267C35.1328 266.76 34.5703 266.51 33.7578 266.25C32.9453 265.984 32.3021 265.724 31.8281 265.469C30.5365 264.771 29.8906 263.831 29.8906 262.648C29.8906 262.034 30.0625 261.487 30.4062 261.008C30.7552 260.523 31.2526 260.146 31.8984 259.875C32.5495 259.604 33.2786 259.469 34.0859 259.469C34.8984 259.469 35.6224 259.617 36.2578 259.914C36.8932 260.206 37.3854 260.62 37.7344 261.156C38.0885 261.693 38.2656 262.302 38.2656 262.984H35.9219C35.9219 262.464 35.7578 262.06 35.4297 261.773C35.1016 261.482 34.6406 261.336 34.0469 261.336C33.474 261.336 33.0286 261.458 32.7109 261.703C32.3932 261.943 32.2344 262.26 32.2344 262.656C32.2344 263.026 32.4193 263.336 32.7891 263.586C33.1641 263.836 33.7135 264.07 34.4375 264.289C35.7708 264.69 36.7422 265.188 37.3516 265.781C37.9609 266.375 38.2656 267.115 38.2656 268C38.2656 268.984 37.8932 269.758 37.1484 270.32C36.4036 270.878 35.401 271.156 34.1406 271.156C33.2656 271.156 32.4688 270.997 31.75 270.68C31.0312 270.357 30.4818 269.917 30.1016 269.359C29.7266 268.802 29.5391 268.156 29.5391 267.422H31.8906C31.8906 268.677 32.6406 269.305 34.1406 269.305C34.6979 269.305 35.1328 269.193 35.4453 268.969C35.7578 268.74 35.9141 268.422 35.9141 268.016ZM48.4688 259.625V267.117C48.4688 268.362 48.0781 269.346 47.2969 270.07C46.5208 270.794 45.4583 271.156 44.1094 271.156C42.7812 271.156 41.7266 270.805 40.9453 270.102C40.1641 269.398 39.7656 268.432 39.75 267.203V259.625H42.0938V267.133C42.0938 267.878 42.2708 268.422 42.625 268.766C42.9844 269.104 43.4792 269.273 44.1094 269.273C45.4271 269.273 46.0964 268.581 46.1172 267.195V259.625H48.4688ZM56.2891 268.016C56.2891 267.573 56.1328 267.234 55.8203 267C55.5078 266.76 54.9453 266.51 54.1328 266.25C53.3203 265.984 52.6771 265.724 52.2031 265.469C50.9115 264.771 50.2656 263.831 50.2656 262.648C50.2656 262.034 50.4375 261.487 50.7812 261.008C51.1302 260.523 51.6276 260.146 52.2734 259.875C52.9245 259.604 53.6536 259.469 54.4609 259.469C55.2734 259.469 55.9974 259.617 56.6328 259.914C57.2682 260.206 57.7604 260.62 58.1094 261.156C58.4635 261.693 58.6406 262.302 58.6406 262.984H56.2969C56.2969 262.464 56.1328 262.06 55.8047 261.773C55.4766 261.482 55.0156 261.336 54.4219 261.336C53.849 261.336 53.4036 261.458 53.0859 261.703C52.7682 261.943 52.6094 262.26 52.6094 262.656C52.6094 263.026 52.7943 263.336 53.1641 263.586C53.5391 263.836 54.0885 264.07 54.8125 264.289C56.1458 264.69 57.1172 265.188 57.7266 265.781C58.3359 266.375 58.6406 267.115 58.6406 268C58.6406 268.984 58.2682 269.758 57.5234 270.32C56.7786 270.878 55.776 271.156 54.5156 271.156C53.6406 271.156 52.8438 270.997 52.125 270.68C51.4062 270.357 50.8568 269.917 50.4766 269.359C50.1016 268.802 49.9141 268.156 49.9141 267.422H52.2656C52.2656 268.677 53.0156 269.305 54.5156 269.305C55.0729 269.305 55.5078 269.193 55.8203 268.969C56.1328 268.74 56.2891 268.422 56.2891 268.016ZM69.1641 267.211C69.0755 268.435 68.6224 269.398 67.8047 270.102C66.9922 270.805 65.9193 271.156 64.5859 271.156C63.1276 271.156 61.9792 270.667 61.1406 269.688C60.3073 268.703 59.8906 267.354 59.8906 265.641V264.945C59.8906 263.852 60.0833 262.888 60.4688 262.055C60.8542 261.221 61.4036 260.583 62.1172 260.141C62.8359 259.693 63.6693 259.469 64.6172 259.469C65.9297 259.469 66.987 259.82 67.7891 260.523C68.5911 261.227 69.0547 262.214 69.1797 263.484H66.8359C66.7786 262.75 66.5729 262.219 66.2188 261.891C65.8698 261.557 65.3359 261.391 64.6172 261.391C63.8359 261.391 63.25 261.672 62.8594 262.234C62.474 262.792 62.276 263.659 62.2656 264.836V265.695C62.2656 266.924 62.4505 267.823 62.8203 268.391C63.1953 268.958 63.7839 269.242 64.5859 269.242C65.3099 269.242 65.849 269.078 66.2031 268.75C66.5625 268.417 66.7682 267.904 66.8203 267.211H69.1641ZM74.9141 266.836H73.0469V271H70.7031V259.625H74.9297C76.2734 259.625 77.3099 259.924 78.0391 260.523C78.7682 261.122 79.1328 261.969 79.1328 263.062C79.1328 263.839 78.9635 264.487 78.625 265.008C78.2917 265.523 77.7839 265.935 77.1016 266.242L79.5625 270.891V271H77.0469L74.9141 266.836ZM73.0469 264.938H74.9375C75.526 264.938 75.9818 264.789 76.3047 264.492C76.6276 264.19 76.7891 263.776 76.7891 263.25C76.7891 262.714 76.6354 262.292 76.3281 261.984C76.026 261.677 75.5599 261.523 74.9297 261.523H73.0469V264.938ZM83.4141 271H81.0703V259.625H83.4141V271ZM87.9375 266.992V271H85.5938V259.625H90.0312C90.8854 259.625 91.6354 259.781 92.2812 260.094C92.9323 260.406 93.4323 260.852 93.7812 261.43C94.1302 262.003 94.3047 262.656 94.3047 263.391C94.3047 264.505 93.9219 265.385 93.1562 266.031C92.3958 266.672 91.3411 266.992 89.9922 266.992H87.9375ZM87.9375 265.094H90.0312C90.651 265.094 91.1224 264.948 91.4453 264.656C91.7734 264.365 91.9375 263.948 91.9375 263.406C91.9375 262.849 91.7734 262.398 91.4453 262.055C91.1172 261.711 90.6641 261.534 90.0859 261.523H87.9375V265.094ZM104.852 267.211C104.763 268.435 104.31 269.398 103.492 270.102C102.68 270.805 101.607 271.156 100.273 271.156C98.8151 271.156 97.6667 270.667 96.8281 269.688C95.9948 268.703 95.5781 267.354 95.5781 265.641V264.945C95.5781 263.852 95.7708 262.888 96.1562 262.055C96.5417 261.221 97.0911 260.583 97.8047 260.141C98.5234 259.693 99.3568 259.469 100.305 259.469C101.617 259.469 102.674 259.82 103.477 260.523C104.279 261.227 104.742 262.214 104.867 263.484H102.523C102.466 262.75 102.26 262.219 101.906 261.891C101.557 261.557 101.023 261.391 100.305 261.391C99.5234 261.391 98.9375 261.672 98.5469 262.234C98.1615 262.792 97.9635 263.659 97.9531 264.836V265.695C97.9531 266.924 98.138 267.823 98.5078 268.391C98.8828 268.958 99.4714 269.242 100.273 269.242C100.997 269.242 101.536 269.078 101.891 268.75C102.25 268.417 102.456 267.904 102.508 267.211H104.852ZM108.883 271H106.539V259.625H108.883V271ZM120.406 265.57C120.406 266.69 120.208 267.672 119.812 268.516C119.417 269.359 118.849 270.01 118.109 270.469C117.375 270.927 116.531 271.156 115.578 271.156C114.635 271.156 113.794 270.93 113.055 270.477C112.315 270.023 111.742 269.378 111.336 268.539C110.93 267.695 110.724 266.727 110.719 265.633V265.07C110.719 263.951 110.919 262.966 111.32 262.117C111.727 261.263 112.297 260.609 113.031 260.156C113.771 259.698 114.615 259.469 115.562 259.469C116.51 259.469 117.352 259.698 118.086 260.156C118.826 260.609 119.396 261.263 119.797 262.117C120.203 262.966 120.406 263.948 120.406 265.062V265.57ZM118.031 265.055C118.031 263.862 117.818 262.956 117.391 262.336C116.964 261.716 116.354 261.406 115.562 261.406C114.776 261.406 114.169 261.714 113.742 262.328C113.315 262.938 113.099 263.833 113.094 265.016V265.57C113.094 266.732 113.307 267.633 113.734 268.273C114.161 268.914 114.776 269.234 115.578 269.234C116.365 269.234 116.969 268.927 117.391 268.312C117.812 267.693 118.026 266.792 118.031 265.609V265.055ZM116.016 256.578H118.477L116.312 259H114.477L116.016 256.578ZM131.359 271H129.016L124.453 263.516V271H122.109V259.625H124.453L129.023 267.125V259.625H131.359V271ZM137.344 266.375C137.344 265.182 137.503 264.047 137.82 262.969C138.138 261.891 138.607 260.938 139.227 260.109C139.846 259.276 140.518 258.698 141.242 258.375L141.68 259.594C140.919 260.156 140.326 261.026 139.898 262.203C139.471 263.38 139.258 264.755 139.258 266.328V266.57C139.258 268.148 139.469 269.529 139.891 270.711C140.312 271.893 140.909 272.776 141.68 273.359L141.242 274.555C140.534 274.237 139.872 273.674 139.258 272.867C138.648 272.065 138.182 271.138 137.859 270.086C137.536 269.034 137.365 267.935 137.344 266.789V266.375ZM148.258 271H146V262.297L143.305 263.133V261.297L148.016 259.609H148.258V271ZM159.758 271H151.961V269.453L155.641 265.531C156.146 264.979 156.518 264.497 156.758 264.086C157.003 263.674 157.125 263.284 157.125 262.914C157.125 262.409 156.997 262.013 156.742 261.727C156.487 261.435 156.122 261.289 155.648 261.289C155.138 261.289 154.734 261.466 154.438 261.82C154.146 262.169 154 262.63 154 263.203H151.734C151.734 262.51 151.898 261.878 152.227 261.305C152.56 260.732 153.029 260.284 153.633 259.961C154.237 259.633 154.922 259.469 155.688 259.469C156.859 259.469 157.768 259.75 158.414 260.312C159.065 260.875 159.391 261.669 159.391 262.695C159.391 263.258 159.245 263.831 158.953 264.414C158.661 264.997 158.161 265.677 157.453 266.453L154.867 269.18H159.758V271ZM168.438 259.625L171.359 267.875L174.266 259.625H177.344V271H174.992V267.891L175.227 262.523L172.156 271H170.547L167.484 262.531L167.719 267.891V271H165.375V259.625H168.438ZM186.234 266.07H181.734V269.117H187.016V271H179.391V259.625H187V261.523H181.734V264.234H186.234V266.07ZM194.289 268.016C194.289 267.573 194.133 267.234 193.82 267C193.508 266.76 192.945 266.51 192.133 266.25C191.32 265.984 190.677 265.724 190.203 265.469C188.911 264.771 188.266 263.831 188.266 262.648C188.266 262.034 188.438 261.487 188.781 261.008C189.13 260.523 189.628 260.146 190.273 259.875C190.924 259.604 191.654 259.469 192.461 259.469C193.273 259.469 193.997 259.617 194.633 259.914C195.268 260.206 195.76 260.62 196.109 261.156C196.464 261.693 196.641 262.302 196.641 262.984H194.297C194.297 262.464 194.133 262.06 193.805 261.773C193.477 261.482 193.016 261.336 192.422 261.336C191.849 261.336 191.404 261.458 191.086 261.703C190.768 261.943 190.609 262.26 190.609 262.656C190.609 263.026 190.794 263.336 191.164 263.586C191.539 263.836 192.089 264.07 192.812 264.289C194.146 264.69 195.117 265.188 195.727 265.781C196.336 266.375 196.641 267.115 196.641 268C196.641 268.984 196.268 269.758 195.523 270.32C194.779 270.878 193.776 271.156 192.516 271.156C191.641 271.156 190.844 270.997 190.125 270.68C189.406 270.357 188.857 269.917 188.477 269.359C188.102 268.802 187.914 268.156 187.914 267.422H190.266C190.266 268.677 191.016 269.305 192.516 269.305C193.073 269.305 193.508 269.193 193.82 268.969C194.133 268.74 194.289 268.422 194.289 268.016ZM205.078 266.07H200.578V269.117H205.859V271H198.234V259.625H205.844V261.523H200.578V264.234H205.078V266.07ZM213.133 268.016C213.133 267.573 212.977 267.234 212.664 267C212.352 266.76 211.789 266.51 210.977 266.25C210.164 265.984 209.521 265.724 209.047 265.469C207.755 264.771 207.109 263.831 207.109 262.648C207.109 262.034 207.281 261.487 207.625 261.008C207.974 260.523 208.471 260.146 209.117 259.875C209.768 259.604 210.497 259.469 211.305 259.469C212.117 259.469 212.841 259.617 213.477 259.914C214.112 260.206 214.604 260.62 214.953 261.156C215.307 261.693 215.484 262.302 215.484 262.984H213.141C213.141 262.464 212.977 262.06 212.648 261.773C212.32 261.482 211.859 261.336 211.266 261.336C210.693 261.336 210.247 261.458 209.93 261.703C209.612 261.943 209.453 262.26 209.453 262.656C209.453 263.026 209.638 263.336 210.008 263.586C210.383 263.836 210.932 264.07 211.656 264.289C212.99 264.69 213.961 265.188 214.57 265.781C215.18 266.375 215.484 267.115 215.484 268C215.484 268.984 215.112 269.758 214.367 270.32C213.622 270.878 212.62 271.156 211.359 271.156C210.484 271.156 209.688 270.997 208.969 270.68C208.25 270.357 207.701 269.917 207.32 269.359C206.945 268.802 206.758 268.156 206.758 267.422H209.109C209.109 268.677 209.859 269.305 211.359 269.305C211.917 269.305 212.352 269.193 212.664 268.969C212.977 268.74 213.133 268.422 213.133 268.016ZM220.82 266.555C220.82 267.732 220.651 268.865 220.312 269.953C219.974 271.042 219.487 272.003 218.852 272.836C218.216 273.669 217.536 274.242 216.812 274.555L216.375 273.359C217.115 272.802 217.698 271.943 218.125 270.781C218.552 269.62 218.773 268.284 218.789 266.773V266.359C218.789 264.802 218.576 263.43 218.148 262.242C217.727 261.055 217.135 260.164 216.375 259.57L216.812 258.375C217.521 258.682 218.188 259.24 218.812 260.047C219.443 260.854 219.93 261.794 220.273 262.867C220.622 263.94 220.805 265.052 220.82 266.203V266.555ZM230.922 264.898H234.094V266.266H230.922V269.859H229.469V266.266H226.297V264.898H229.469V261.578H230.922V264.898ZM240.344 265.297L240.922 259.625H246.75V260.961H242.148L241.805 264.062C242.362 263.734 242.995 263.57 243.703 263.57C244.74 263.57 245.562 263.914 246.172 264.602C246.781 265.284 247.086 266.208 247.086 267.375C247.086 268.547 246.768 269.471 246.133 270.148C245.503 270.82 244.62 271.156 243.484 271.156C242.479 271.156 241.659 270.878 241.023 270.32C240.388 269.763 240.026 268.992 239.938 268.008H241.305C241.393 268.659 241.625 269.151 242 269.484C242.375 269.812 242.87 269.977 243.484 269.977C244.156 269.977 244.682 269.747 245.062 269.289C245.448 268.831 245.641 268.198 245.641 267.391C245.641 266.63 245.432 266.021 245.016 265.562C244.604 265.099 244.055 264.867 243.367 264.867C242.737 264.867 242.242 265.005 241.883 265.281L241.5 265.594L240.344 265.297ZM261.406 269.508C261.021 270.06 260.482 270.474 259.789 270.75C259.102 271.021 258.299 271.156 257.383 271.156C256.456 271.156 255.633 270.94 254.914 270.508C254.195 270.07 253.638 269.451 253.242 268.648C252.852 267.846 252.651 266.917 252.641 265.859V264.867C252.641 263.154 253.039 261.826 253.836 260.883C254.638 259.94 255.763 259.469 257.211 259.469C258.398 259.469 259.354 259.773 260.078 260.383C260.802 260.987 261.245 261.846 261.406 262.961H259.906C259.625 261.456 258.729 260.703 257.219 260.703C256.214 260.703 255.451 261.057 254.93 261.766C254.414 262.469 254.154 263.49 254.148 264.828V265.758C254.148 267.034 254.44 268.049 255.023 268.805C255.607 269.555 256.396 269.93 257.391 269.93C257.953 269.93 258.445 269.867 258.867 269.742C259.289 269.617 259.638 269.406 259.914 269.109V266.555H257.281V265.336H261.406V269.508ZM263.914 271V259.625H267.633C268.867 259.625 269.794 259.88 270.414 260.391C271.039 260.901 271.352 261.656 271.352 262.656C271.352 263.188 271.201 263.659 270.898 264.07C270.596 264.477 270.185 264.792 269.664 265.016C270.279 265.188 270.763 265.516 271.117 266C271.477 266.479 271.656 267.052 271.656 267.719C271.656 268.74 271.326 269.542 270.664 270.125C270.003 270.708 269.068 271 267.859 271H263.914ZM265.414 265.68V269.773H267.891C268.589 269.773 269.138 269.594 269.539 269.234C269.945 268.87 270.148 268.37 270.148 267.734C270.148 266.365 269.404 265.68 267.914 265.68H265.414ZM265.414 264.477H267.68C268.336 264.477 268.859 264.312 269.25 263.984C269.646 263.656 269.844 263.211 269.844 262.648C269.844 262.023 269.661 261.57 269.297 261.289C268.932 261.003 268.378 260.859 267.633 260.859H265.414V264.477Z" fill="#222222"/>
<path d="M31.8203 286.547V291H30.3203V279.625H34.5156C35.7604 279.625 36.7344 279.943 37.4375 280.578C38.1458 281.214 38.5 282.055 38.5 283.102C38.5 284.206 38.1536 285.057 37.4609 285.656C36.7734 286.25 35.7865 286.547 34.5 286.547H31.8203ZM31.8203 285.32H34.5156C35.3177 285.32 35.9323 285.133 36.3594 284.758C36.7865 284.378 37 283.831 37 283.117C37 282.44 36.7865 281.898 36.3594 281.492C35.9323 281.086 35.3464 280.875 34.6016 280.859H31.8203V285.32ZM45.6172 288.031H40.8516L39.7812 291H38.2344L42.5781 279.625H43.8906L48.2422 291H46.7031L45.6172 288.031ZM41.3047 286.797H45.1719L43.2344 281.477L41.3047 286.797ZM53.9453 286.398H51.2734V291H49.7656V279.625H53.5312C54.8125 279.625 55.7969 279.917 56.4844 280.5C57.1771 281.083 57.5234 281.932 57.5234 283.047C57.5234 283.755 57.3307 284.372 56.9453 284.898C56.5651 285.424 56.0339 285.818 55.3516 286.078L58.0234 290.906V291H56.4141L53.9453 286.398ZM51.2734 285.172H53.5781C54.3229 285.172 54.9141 284.979 55.3516 284.594C55.7943 284.208 56.0156 283.693 56.0156 283.047C56.0156 282.344 55.8047 281.805 55.3828 281.43C54.9661 281.055 54.362 280.865 53.5703 280.859H51.2734V285.172ZM65.9141 288.031H61.1484L60.0781 291H58.5312L62.875 279.625H64.1875L68.5391 291H67L65.9141 288.031ZM61.6016 286.797H65.4688L63.5312 281.477L61.6016 286.797ZM82.4062 287.391C82.2656 288.594 81.8203 289.523 81.0703 290.18C80.3255 290.831 79.3333 291.156 78.0938 291.156C76.75 291.156 75.6719 290.674 74.8594 289.711C74.0521 288.747 73.6484 287.458 73.6484 285.844V284.75C73.6484 283.693 73.8359 282.763 74.2109 281.961C74.5911 281.159 75.1276 280.544 75.8203 280.117C76.513 279.685 77.3151 279.469 78.2266 279.469C79.4349 279.469 80.4036 279.807 81.1328 280.484C81.862 281.156 82.2865 282.089 82.4062 283.281H80.8984C80.7682 282.375 80.4844 281.719 80.0469 281.312C79.6146 280.906 79.0078 280.703 78.2266 280.703C77.2682 280.703 76.5156 281.057 75.9688 281.766C75.4271 282.474 75.1562 283.482 75.1562 284.789V285.891C75.1562 287.125 75.4141 288.107 75.9297 288.836C76.4453 289.565 77.1667 289.93 78.0938 289.93C78.9271 289.93 79.5651 289.742 80.0078 289.367C80.4557 288.987 80.7526 288.328 80.8984 287.391H82.4062ZM85.9688 289.773H91.3594V291H84.4609V279.625H85.9688V289.773ZM99.5078 288.031H94.7422L93.6719 291H92.125L96.4688 279.625H97.7812L102.133 291H100.594L99.5078 288.031ZM95.1953 286.797H99.0625L97.125 281.477L95.1953 286.797ZM107.836 286.398H105.164V291H103.656V279.625H107.422C108.703 279.625 109.688 279.917 110.375 280.5C111.068 281.083 111.414 281.932 111.414 283.047C111.414 283.755 111.221 284.372 110.836 284.898C110.456 285.424 109.924 285.818 109.242 286.078L111.914 290.906V291H110.305L107.836 286.398ZM105.164 285.172H107.469C108.214 285.172 108.805 284.979 109.242 284.594C109.685 284.208 109.906 283.693 109.906 283.047C109.906 282.344 109.695 281.805 109.273 281.43C108.857 281.055 108.253 280.865 107.461 280.859H105.164V285.172ZM122.273 285.68C122.273 286.794 122.086 287.768 121.711 288.602C121.336 289.43 120.805 290.062 120.117 290.5C119.43 290.938 118.628 291.156 117.711 291.156C116.815 291.156 116.021 290.938 115.328 290.5C114.635 290.057 114.096 289.43 113.711 288.617C113.331 287.799 113.135 286.854 113.125 285.781V284.961C113.125 283.867 113.315 282.901 113.695 282.062C114.076 281.224 114.612 280.583 115.305 280.141C116.003 279.693 116.799 279.469 117.695 279.469C118.607 279.469 119.409 279.69 120.102 280.133C120.799 280.57 121.336 281.208 121.711 282.047C122.086 282.88 122.273 283.852 122.273 284.961V285.68ZM120.781 284.945C120.781 283.596 120.51 282.562 119.969 281.844C119.427 281.12 118.669 280.758 117.695 280.758C116.747 280.758 116 281.12 115.453 281.844C114.911 282.562 114.633 283.562 114.617 284.844V285.68C114.617 286.987 114.891 288.016 115.438 288.766C115.99 289.51 116.747 289.883 117.711 289.883C118.68 289.883 119.43 289.531 119.961 288.828C120.492 288.12 120.766 287.107 120.781 285.789V284.945ZM132.258 289.008L135.508 279.625H137.148L132.93 291H131.602L127.391 279.625H129.023L132.258 289.008ZM140.289 291H138.789V279.625H140.289V291ZM143.039 291V279.625H146.25C147.24 279.625 148.115 279.844 148.875 280.281C149.635 280.719 150.221 281.341 150.633 282.148C151.049 282.956 151.26 283.883 151.266 284.93V285.656C151.266 286.729 151.057 287.669 150.641 288.477C150.229 289.284 149.638 289.904 148.867 290.336C148.102 290.768 147.208 290.99 146.188 291H143.039ZM144.539 280.859V289.773H146.117C147.273 289.773 148.172 289.414 148.812 288.695C149.458 287.977 149.781 286.953 149.781 285.625V284.961C149.781 283.669 149.477 282.667 148.867 281.953C148.263 281.234 147.404 280.87 146.289 280.859H144.539ZM159.969 285.742H155.039V289.773H160.766V291H153.539V279.625H160.688V280.859H155.039V284.516H159.969V285.742ZM171.383 285.68C171.383 286.794 171.195 287.768 170.82 288.602C170.445 289.43 169.914 290.062 169.227 290.5C168.539 290.938 167.737 291.156 166.82 291.156C165.924 291.156 165.13 290.938 164.438 290.5C163.745 290.057 163.206 289.43 162.82 288.617C162.44 287.799 162.245 286.854 162.234 285.781V284.961C162.234 283.867 162.424 282.901 162.805 282.062C163.185 281.224 163.721 280.583 164.414 280.141C165.112 279.693 165.909 279.469 166.805 279.469C167.716 279.469 168.518 279.69 169.211 280.133C169.909 280.57 170.445 281.208 170.82 282.047C171.195 282.88 171.383 283.852 171.383 284.961V285.68ZM169.891 284.945C169.891 283.596 169.62 282.562 169.078 281.844C168.536 281.12 167.779 280.758 166.805 280.758C165.857 280.758 165.109 281.12 164.562 281.844C164.021 282.562 163.742 283.562 163.727 284.844V285.68C163.727 286.987 164 288.016 164.547 288.766C165.099 289.51 165.857 289.883 166.82 289.883C167.789 289.883 168.539 289.531 169.07 288.828C169.602 288.12 169.875 287.107 169.891 285.789V284.945Z" fill="#222222"/>
<defs>
<filter id="filter0_d" x="141.75" y="118.656" width="17.9375" height="18.5625" filterUnits="userSpaceOnUse" color-interpolation-filters="sRGB">
<feFlood flood-opacity="0" result="BackgroundImageFix"/>
<feColorMatrix in="SourceAlpha" type="matrix" values="0 0 0 0 0 0 0 0 0 0 0 0 0 0 0 0 0 0 127 0"/>
<feOffset dx="2" dy="2"/>
<feColorMatrix type="matrix" values="0 0 0 0 0 0 0 0 0 0 0 0 0 0 0 0 0 0 0.15 0"/>
<feBlend mode="normal" in2="BackgroundImageFix" result="effect1_dropShadow"/>
<feBlend mode="normal" in="SourceGraphic" in2="effect1_dropShadow" result="shape"/>
</filter>
<filter id="filter1_d" x="143.964" y="211.041" width="17.9375" height="18.5625" filterUnits="userSpaceOnUse" color-interpolation-filters="sRGB">
<feFlood flood-opacity="0" result="BackgroundImageFix"/>
<feColorMatrix in="SourceAlpha" type="matrix" values="0 0 0 0 0 0 0 0 0 0 0 0 0 0 0 0 0 0 127 0"/>
<feOffset dx="2" dy="2"/>
<feColorMatrix type="matrix" values="0 0 0 0 0 0 0 0 0 0 0 0 0 0 0 0 0 0 0.15 0"/>
<feBlend mode="normal" in2="BackgroundImageFix" result="effect1_dropShadow"/>
<feBlend mode="normal" in="SourceGraphic" in2="effect1_dropShadow" result="shape"/>
</filter>
<clipPath id="clip0">
<rect width="69.4737" height="40" fill="white" transform="translate(65.7402 201)"/>
</clipPath>
</defs>
</svg>
