<svg width="331" height="218" viewBox="0 0 331 218" fill="none" xmlns="http://www.w3.org/2000/svg">
<rect width="331" height="218" fill="#F5F5F5"/>
<path opacity="0.2" d="M41.5595 39.6015C42.5968 41.7222 44.3158 43.4334 46.4412 44.461C46.5967 44.5347 46.7687 44.5666 46.9403 44.5537C47.1119 44.5407 47.2771 44.4832 47.4198 44.387L50.5492 42.3002C50.6877 42.2079 50.8469 42.1516 51.0126 42.1364C51.1782 42.1212 51.3451 42.1475 51.498 42.213L57.3526 44.7222C57.5515 44.8067 57.7175 44.9535 57.8257 45.1405C57.9339 45.3276 57.9783 45.5447 57.9524 45.7593C57.7673 47.2073 57.0608 48.5382 55.9652 49.5028C54.8695 50.4674 53.4598 50.9996 52 50.9996C47.4913 50.9996 43.1673 49.2086 39.9792 46.0204C36.7911 42.8323 35 38.5083 35 33.9996C35.0001 32.5399 35.5322 31.1301 36.4969 30.0345C37.4615 28.9388 38.7924 28.2323 40.2404 28.0473C40.4549 28.0213 40.672 28.0658 40.8591 28.1739C41.0461 28.2821 41.193 28.4482 41.2775 28.647L43.7888 34.5068C43.8537 34.6583 43.8802 34.8236 43.8658 34.9879C43.8514 35.1522 43.7967 35.3103 43.7064 35.4483L41.6268 38.6258C41.5322 38.7687 41.4762 38.9338 41.4644 39.1048C41.4526 39.2758 41.4854 39.447 41.5595 39.6015Z" fill="#EF3829"/>
<path d="M41.5595 39.6015C42.5968 41.7222 44.3158 43.4334 46.4412 44.461C46.5967 44.5347 46.7687 44.5666 46.9403 44.5537C47.1119 44.5407 47.2771 44.4832 47.4198 44.387L50.5492 42.3002C50.6877 42.2079 50.8469 42.1516 51.0126 42.1364C51.1782 42.1212 51.3451 42.1475 51.498 42.213L57.3526 44.7222C57.5515 44.8067 57.7175 44.9535 57.8257 45.1405C57.9339 45.3276 57.9783 45.5447 57.9524 45.7593C57.7673 47.2073 57.0608 48.5382 55.9652 49.5028C54.8695 50.4674 53.4598 50.9996 52 50.9996C47.4913 50.9996 43.1673 49.2086 39.9792 46.0204C36.7911 42.8323 35 38.5083 35 33.9996C35.0001 32.5399 35.5322 31.1301 36.4969 30.0345C37.4615 28.9388 38.7924 28.2323 40.2404 28.0473C40.4549 28.0213 40.672 28.0658 40.8591 28.1739C41.0461 28.2821 41.193 28.4482 41.2775 28.647L43.7888 34.5068C43.8537 34.6583 43.8802 34.8236 43.8658 34.9879C43.8514 35.1522 43.7967 35.3103 43.7064 35.4483L41.6268 38.6258C41.5322 38.7687 41.4762 38.9338 41.4644 39.1048C41.4526 39.2758 41.4854 39.447 41.5595 39.6015V39.6015Z" stroke="#EF3829" stroke-width="2" stroke-linecap="round" stroke-linejoin="round"/>
<path d="M80.0283 46H67.1299V43.207L73.0713 36.9609C74.5355 35.2936 75.2676 33.9691 75.2676 32.9873C75.2676 32.1917 75.0941 31.5866 74.7471 31.1719C74.4001 30.7572 73.8965 30.5498 73.2363 30.5498C72.5846 30.5498 72.0557 30.8291 71.6494 31.3877C71.2432 31.9378 71.04 32.6276 71.04 33.457H66.749C66.749 32.3229 67.0326 31.2777 67.5996 30.3213C68.1667 29.3564 68.9538 28.6032 69.9609 28.0615C70.9681 27.5199 72.0938 27.249 73.3379 27.249C75.3353 27.249 76.8714 27.7103 77.9463 28.6328C79.0296 29.5553 79.5713 30.8799 79.5713 32.6064C79.5713 33.3343 79.4359 34.0452 79.165 34.7393C78.8942 35.4248 78.471 36.1484 77.8955 36.9102C77.3285 37.6634 76.4102 38.6748 75.1406 39.9443L72.7539 42.6992H80.0283V46ZM95.0215 38.4463C95.0215 40.943 94.4587 42.8685 93.333 44.2227C92.2158 45.5768 90.6374 46.2539 88.5977 46.2539C86.541 46.2539 84.9499 45.5726 83.8242 44.21C82.6986 42.8473 82.1357 40.9261 82.1357 38.4463V35.0693C82.1357 32.5726 82.6943 30.6471 83.8115 29.293C84.9372 27.9388 86.5241 27.2617 88.5723 27.2617C90.6204 27.2617 92.2074 27.943 93.333 29.3057C94.4587 30.6683 95.0215 32.5938 95.0215 35.082V38.4463ZM90.7432 34.5234C90.7432 33.1947 90.5697 32.2044 90.2227 31.5527C89.8757 30.8926 89.3255 30.5625 88.5723 30.5625C87.8359 30.5625 87.2985 30.8672 86.96 31.4766C86.6299 32.0859 86.4521 33.0085 86.4268 34.2441V38.9668C86.4268 40.3464 86.6003 41.3577 86.9473 42.001C87.2943 42.6357 87.8444 42.9531 88.5977 42.9531C89.3255 42.9531 89.863 42.6442 90.21 42.0264C90.557 41.4001 90.7347 40.4225 90.7432 39.0938V34.5234ZM110.078 38.4463C110.078 40.943 109.515 42.8685 108.39 44.2227C107.272 45.5768 105.694 46.2539 103.654 46.2539C101.598 46.2539 100.007 45.5726 98.8809 44.21C97.7552 42.8473 97.1924 40.9261 97.1924 38.4463V35.0693C97.1924 32.5726 97.751 30.6471 98.8682 29.293C99.9938 27.9388 101.581 27.2617 103.629 27.2617C105.677 27.2617 107.264 27.943 108.39 29.3057C109.515 30.6683 110.078 32.5938 110.078 35.082V38.4463ZM105.8 34.5234C105.8 33.1947 105.626 32.2044 105.279 31.5527C104.932 30.8926 104.382 30.5625 103.629 30.5625C102.893 30.5625 102.355 30.8672 102.017 31.4766C101.687 32.0859 101.509 33.0085 101.483 34.2441V38.9668C101.483 40.3464 101.657 41.3577 102.004 42.001C102.351 42.6357 102.901 42.9531 103.654 42.9531C104.382 42.9531 104.92 42.6442 105.267 42.0264C105.614 41.4001 105.791 40.4225 105.8 39.0938V34.5234ZM124.894 27.5156L129.02 40.376L133.133 27.5156H138.998V46H134.529V41.6836L134.961 32.8477L130.492 46H127.547L123.065 32.835L123.497 41.6836V46H119.041V27.5156H124.894ZM146.59 46H142.146V27.5156H146.59V46ZM165.125 46H160.694L154.144 34.498V46H149.688V27.5156H154.144L160.682 39.0176V27.5156H165.125V46Z" fill="#EF3829"/>
<path d="M68.0361 53.8906L70.3604 59.6914L72.6846 53.8906H73.9004V61H72.9629V58.2314L73.0508 55.2432L70.7168 61H69.999L67.6699 55.2578L67.7627 58.2314V61H66.8252V53.8906H68.0361ZM80.5605 53.8906V58.7246C80.5573 59.3952 80.3457 59.9437 79.9258 60.3701C79.5091 60.7965 78.9427 61.0358 78.2266 61.0879L77.9775 61.0977C77.1995 61.0977 76.5794 60.8877 76.1172 60.4678C75.6549 60.0479 75.4206 59.4701 75.4141 58.7344V53.8906H76.3418V58.7051C76.3418 59.2194 76.4834 59.6198 76.7666 59.9062C77.0498 60.1895 77.4535 60.3311 77.9775 60.3311C78.5081 60.3311 78.9134 60.1895 79.1934 59.9062C79.4766 59.623 79.6182 59.2243 79.6182 58.71V53.8906H80.5605ZM82.9824 60.2334H86.3516V61H82.04V53.8906H82.9824V60.2334ZM90.9854 54.6621H88.7002V61H87.7676V54.6621H85.4873V53.8906H90.9854V54.6621ZM93.0459 61H92.1084V53.8906H93.0459V61ZM94.7646 61V53.8906H96.7715C97.39 53.8906 97.9368 54.0273 98.4121 54.3008C98.8874 54.5742 99.2536 54.9632 99.5107 55.4678C99.7712 55.9723 99.903 56.5518 99.9062 57.2061V57.6602C99.9062 58.3307 99.776 58.9183 99.5156 59.4229C99.2585 59.9274 98.889 60.3148 98.4072 60.585C97.9287 60.8551 97.3704 60.9935 96.7324 61H94.7646ZM95.7021 54.6621V60.2334H96.6885C97.4111 60.2334 97.9727 60.0088 98.373 59.5596C98.7767 59.1104 98.9785 58.4707 98.9785 57.6406V57.2256C98.9785 56.4183 98.7881 55.7917 98.4072 55.3457C98.0296 54.8965 97.4925 54.6686 96.7959 54.6621H95.7021ZM105.346 57.7139H102.265V60.2334H105.844V61H101.327V53.8906H105.795V54.6621H102.265V56.9473H105.346V57.7139ZM109.105 57.8311C108.301 57.5999 107.715 57.3167 107.348 56.9814C106.983 56.6429 106.801 56.2262 106.801 55.7314C106.801 55.1715 107.024 54.7093 107.47 54.3447C107.919 53.9769 108.502 53.793 109.218 53.793C109.706 53.793 110.141 53.8874 110.521 54.0762C110.906 54.265 111.202 54.5254 111.41 54.8574C111.622 55.1895 111.728 55.5524 111.728 55.9463H110.785C110.785 55.5166 110.648 55.1797 110.375 54.9355C110.102 54.6882 109.716 54.5645 109.218 54.5645C108.756 54.5645 108.394 54.667 108.134 54.8721C107.877 55.0739 107.748 55.3555 107.748 55.7168C107.748 56.0065 107.87 56.2523 108.114 56.4541C108.362 56.6527 108.78 56.835 109.369 57.001C109.962 57.167 110.424 57.3509 110.756 57.5527C111.091 57.7513 111.339 57.984 111.498 58.251C111.661 58.5179 111.742 58.832 111.742 59.1934C111.742 59.7695 111.518 60.2318 111.068 60.5801C110.619 60.9251 110.019 61.0977 109.267 61.0977C108.778 61.0977 108.323 61.0049 107.899 60.8193C107.476 60.6305 107.149 60.3734 106.918 60.0479C106.69 59.7223 106.576 59.3529 106.576 58.9395H107.519C107.519 59.3691 107.676 59.7093 107.992 59.96C108.311 60.2074 108.736 60.3311 109.267 60.3311C109.761 60.3311 110.141 60.2301 110.404 60.0283C110.668 59.8265 110.8 59.5514 110.8 59.2031C110.8 58.8548 110.678 58.5863 110.434 58.3975C110.189 58.2054 109.747 58.0166 109.105 57.8311ZM117.86 54.6621H115.575V61H114.643V54.6621H112.362V53.8906H117.86V54.6621ZM119.921 61H118.983V53.8906H119.921V61ZM127.104 61H126.161L122.582 55.5215V61H121.64V53.8906H122.582L126.171 59.3936V53.8906H127.104V61ZM134.237 57.6748C134.237 58.3714 134.12 58.9801 133.886 59.501C133.651 60.0186 133.319 60.4141 132.89 60.6875C132.46 60.9609 131.959 61.0977 131.386 61.0977C130.826 61.0977 130.329 60.9609 129.896 60.6875C129.464 60.4108 129.127 60.0186 128.886 59.5107C128.648 58.9997 128.526 58.4089 128.52 57.7383V57.2256C128.52 56.542 128.638 55.9382 128.876 55.4141C129.114 54.89 129.449 54.4896 129.882 54.2129C130.318 53.9329 130.816 53.793 131.376 53.793C131.946 53.793 132.447 53.9313 132.88 54.208C133.316 54.4814 133.651 54.8802 133.886 55.4043C134.12 55.9251 134.237 56.5322 134.237 57.2256V57.6748ZM133.305 57.2158C133.305 56.3727 133.135 55.7266 132.797 55.2773C132.458 54.8249 131.985 54.5986 131.376 54.5986C130.784 54.5986 130.316 54.8249 129.975 55.2773C129.636 55.7266 129.462 56.3516 129.452 57.1523V57.6748C129.452 58.4919 129.623 59.1348 129.965 59.6035C130.31 60.069 130.784 60.3018 131.386 60.3018C131.991 60.3018 132.46 60.082 132.792 59.6426C133.124 59.1999 133.295 58.5667 133.305 57.7432V57.2158Z" fill="#222222"/>
<g filter="url(#filter0_d)">
<path d="M194.516 38.0938H199.688L198.906 42.6094H193.75L192.672 48.7188H187.875L188.938 42.6094H183.75L184.531 38.0938H189.719L190.75 32.1562H195.547L194.516 38.0938Z" fill="#EF3829"/>
</g>
<path d="M217.277 35.6562L218.32 26.9375H228.293V30.0078H221.531L221.145 33.3945C221.426 33.2305 221.793 33.0859 222.246 32.9609C222.707 32.8359 223.156 32.7734 223.594 32.7734C225.289 32.7734 226.59 33.2773 227.496 34.2852C228.41 35.2852 228.867 36.6914 228.867 38.5039C228.867 39.5977 228.621 40.5898 228.129 41.4805C227.645 42.3633 226.961 43.043 226.078 43.5195C225.195 43.9961 224.152 44.2344 222.949 44.2344C221.879 44.2344 220.875 44.0156 219.938 43.5781C219 43.1328 218.266 42.5273 217.734 41.7617C217.203 40.9883 216.941 40.1172 216.949 39.1484H220.91C220.949 39.7734 221.148 40.2695 221.508 40.6367C221.867 41.0039 222.34 41.1875 222.926 41.1875C224.254 41.1875 224.918 40.2031 224.918 38.2344C224.918 36.4141 224.105 35.5039 222.48 35.5039C221.559 35.5039 220.871 35.8008 220.418 36.3945L217.277 35.6562ZM242.789 37.0273C242.789 39.332 242.27 41.1094 241.23 42.3594C240.199 43.6094 238.742 44.2344 236.859 44.2344C234.961 44.2344 233.492 43.6055 232.453 42.3477C231.414 41.0898 230.895 39.3164 230.895 37.0273V33.9102C230.895 31.6055 231.41 29.8281 232.441 28.5781C233.48 27.3281 234.945 26.7031 236.836 26.7031C238.727 26.7031 240.191 27.332 241.23 28.5898C242.27 29.8477 242.789 31.625 242.789 33.9219V37.0273ZM238.84 33.4062C238.84 32.1797 238.68 31.2656 238.359 30.6641C238.039 30.0547 237.531 29.75 236.836 29.75C236.156 29.75 235.66 30.0312 235.348 30.5938C235.043 31.1562 234.879 32.0078 234.855 33.1484V37.5078C234.855 38.7812 235.016 39.7148 235.336 40.3086C235.656 40.8945 236.164 41.1875 236.859 41.1875C237.531 41.1875 238.027 40.9023 238.348 40.332C238.668 39.7539 238.832 38.8516 238.84 37.625V33.4062ZM256.465 26.9375L260.273 38.8086L264.07 26.9375H269.484V44H265.359V40.0156L265.758 31.8594L261.633 44H258.914L254.777 31.8477L255.176 40.0156V44H251.062V26.9375H256.465ZM276.492 44H272.391V26.9375H276.492V44ZM293.602 44H289.512L283.465 33.3828V44H279.352V26.9375H283.465L289.5 37.5547V26.9375H293.602V44Z" fill="#222222"/>
<path d="M217.768 55.2334H221.137V56H216.825V48.8906H217.768V55.2334ZM226.229 54.1445H223.251L222.582 56H221.615L224.33 48.8906H225.15L227.87 56H226.908L226.229 54.1445ZM223.534 53.373H225.951L224.74 50.0479L223.534 53.373ZM231.435 53.124H229.765V56H228.822V48.8906H231.176C231.977 48.8906 232.592 49.0729 233.021 49.4375C233.454 49.8021 233.671 50.3327 233.671 51.0293C233.671 51.472 233.55 51.8577 233.31 52.1865C233.072 52.5153 232.74 52.7611 232.313 52.9238L233.983 55.9414V56H232.978L231.435 53.124ZM229.765 52.3574H231.205C231.671 52.3574 232.04 52.237 232.313 51.9961C232.59 51.7552 232.729 51.4329 232.729 51.0293C232.729 50.5898 232.597 50.2529 232.333 50.0186C232.073 49.7842 231.695 49.6654 231.2 49.6621H229.765V52.3574ZM240.238 55.0674C239.997 55.4124 239.66 55.6712 239.228 55.8438C238.798 56.013 238.297 56.0977 237.724 56.0977C237.144 56.0977 236.63 55.9626 236.181 55.6924C235.731 55.4189 235.383 55.0316 235.136 54.5303C234.892 54.029 234.766 53.4479 234.76 52.7871V52.167C234.76 51.096 235.009 50.266 235.507 49.6768C236.008 49.0876 236.711 48.793 237.616 48.793C238.358 48.793 238.956 48.9834 239.408 49.3643C239.861 49.7419 240.137 50.279 240.238 50.9756H239.301C239.125 50.0348 238.565 49.5645 237.621 49.5645C236.993 49.5645 236.516 49.7858 236.19 50.2285C235.868 50.668 235.705 51.306 235.702 52.1426V52.7236C235.702 53.5212 235.884 54.1559 236.249 54.6279C236.614 55.0967 237.107 55.3311 237.729 55.3311C238.08 55.3311 238.388 55.292 238.651 55.2139C238.915 55.1357 239.133 55.0039 239.306 54.8184V53.2217H237.66V52.46H240.238V55.0674ZM245.731 54.1445H242.753L242.084 56H241.117L243.832 48.8906H244.652L247.372 56H246.41L245.731 54.1445ZM243.036 53.373H245.453L244.242 50.0479L243.036 53.373ZM250.81 56V48.8906H252.816C253.435 48.8906 253.982 49.0273 254.457 49.3008C254.932 49.5742 255.299 49.9632 255.556 50.4678C255.816 50.9723 255.948 51.5518 255.951 52.2061V52.6602C255.951 53.3307 255.821 53.9183 255.561 54.4229C255.303 54.9274 254.934 55.3148 254.452 55.585C253.974 55.8551 253.415 55.9935 252.777 56H250.81ZM251.747 49.6621V55.2334H252.733C253.456 55.2334 254.018 55.0088 254.418 54.5596C254.822 54.1104 255.023 53.4707 255.023 52.6406V52.2256C255.023 51.4183 254.833 50.7917 254.452 50.3457C254.075 49.8965 253.537 49.6686 252.841 49.6621H251.747ZM258.378 56H257.44V48.8906H258.378V56ZM262.191 52.8311C261.387 52.5999 260.801 52.3167 260.434 51.9814C260.069 51.6429 259.887 51.2262 259.887 50.7314C259.887 50.1715 260.11 49.7093 260.556 49.3447C261.005 48.9769 261.588 48.793 262.304 48.793C262.792 48.793 263.227 48.8874 263.607 49.0762C263.992 49.265 264.288 49.5254 264.496 49.8574C264.708 50.1895 264.813 50.5524 264.813 50.9463H263.871C263.871 50.5166 263.734 50.1797 263.461 49.9355C263.188 49.6882 262.802 49.5645 262.304 49.5645C261.841 49.5645 261.48 49.667 261.22 49.8721C260.963 50.0739 260.834 50.3555 260.834 50.7168C260.834 51.0065 260.956 51.2523 261.2 51.4541C261.448 51.6527 261.866 51.835 262.455 52.001C263.048 52.167 263.51 52.3509 263.842 52.5527C264.177 52.7513 264.424 52.984 264.584 53.251C264.747 53.5179 264.828 53.832 264.828 54.1934C264.828 54.7695 264.604 55.2318 264.154 55.5801C263.705 55.9251 263.104 56.0977 262.353 56.0977C261.864 56.0977 261.409 56.0049 260.985 55.8193C260.562 55.6305 260.235 55.3734 260.004 55.0479C259.776 54.7223 259.662 54.3529 259.662 53.9395H260.604C260.604 54.3691 260.762 54.7093 261.078 54.96C261.397 55.2074 261.822 55.3311 262.353 55.3311C262.847 55.3311 263.227 55.2301 263.49 55.0283C263.754 54.8265 263.886 54.5514 263.886 54.2031C263.886 53.8548 263.764 53.5863 263.52 53.3975C263.275 53.2054 262.833 53.0166 262.191 52.8311ZM270.946 49.6621H268.661V56H267.729V49.6621H265.448V48.8906H270.946V49.6621ZM275.536 54.1445H272.558L271.889 56H270.922L273.637 48.8906H274.457L277.177 56H276.215L275.536 54.1445ZM272.841 53.373H275.258L274.047 50.0479L272.841 53.373ZM283.598 56H282.655L279.076 50.5215V56H278.134V48.8906H279.076L282.665 54.3936V48.8906H283.598V56ZM290.492 53.7441C290.404 54.4961 290.126 55.0771 289.657 55.4873C289.192 55.8942 288.572 56.0977 287.797 56.0977C286.957 56.0977 286.283 55.7965 285.775 55.1943C285.271 54.5921 285.019 53.7865 285.019 52.7773V52.0938C285.019 51.4329 285.136 50.8519 285.37 50.3506C285.608 49.8493 285.943 49.4652 286.376 49.1982C286.809 48.9281 287.31 48.793 287.88 48.793C288.635 48.793 289.241 49.0046 289.696 49.4277C290.152 49.8477 290.417 50.4303 290.492 51.1758H289.55C289.468 50.6094 289.291 50.1992 289.018 49.9453C288.747 49.6914 288.368 49.5645 287.88 49.5645C287.281 49.5645 286.811 49.7858 286.469 50.2285C286.13 50.6712 285.961 51.3011 285.961 52.1182V52.8066C285.961 53.5781 286.122 54.1917 286.444 54.6475C286.767 55.1032 287.217 55.3311 287.797 55.3311C288.318 55.3311 288.716 55.2139 288.993 54.9795C289.273 54.7419 289.459 54.3301 289.55 53.7441H290.492ZM292.782 56H291.845V48.8906H292.782V56ZM298.515 54.1445H295.536L294.867 56H293.9L296.615 48.8906H297.436L300.155 56H299.193L298.515 54.1445ZM295.819 53.373H298.236L297.025 50.0479L295.819 53.373ZM217.831 66H216.894V58.8906H217.831V66ZM225.014 66H224.071L220.492 60.5215V66H219.55V58.8906H220.492L224.081 64.3936V58.8906H225.014V66ZM231.444 59.6621H229.159V66H228.227V59.6621H225.946V58.8906H231.444V59.6621ZM236.518 62.7139H233.437V65.2334H237.016V66H232.499V58.8906H236.967V59.6621H233.437V61.9473H236.518V62.7139ZM240.79 63.124H239.12V66H238.178V58.8906H240.531C241.332 58.8906 241.947 59.0729 242.377 59.4375C242.81 59.8021 243.026 60.3327 243.026 61.0293C243.026 61.472 242.906 61.8577 242.665 62.1865C242.427 62.5153 242.095 62.7611 241.669 62.9238L243.339 65.9414V66H242.333L240.79 63.124ZM239.12 62.3574H240.561C241.026 62.3574 241.396 62.237 241.669 61.9961C241.946 61.7552 242.084 61.4329 242.084 61.0293C242.084 60.5898 241.952 60.2529 241.688 60.0186C241.428 59.7842 241.05 59.6654 240.556 59.6621H239.12V62.3574ZM249.809 66H248.866L245.287 60.5215V66H244.345V58.8906H245.287L248.876 64.3936V58.8906H249.809V66ZM255.487 64.1445H252.509L251.84 66H250.873L253.588 58.8906H254.408L257.128 66H256.166L255.487 64.1445ZM252.792 63.373H255.209L253.998 60.0479L252.792 63.373ZM263.256 63.7441C263.168 64.4961 262.89 65.0771 262.421 65.4873C261.955 65.8942 261.335 66.0977 260.561 66.0977C259.721 66.0977 259.047 65.7965 258.539 65.1943C258.035 64.5921 257.782 63.7865 257.782 62.7773V62.0938C257.782 61.4329 257.899 60.8519 258.134 60.3506C258.371 59.8493 258.707 59.4652 259.14 59.1982C259.573 58.9281 260.074 58.793 260.644 58.793C261.399 58.793 262.004 59.0046 262.46 59.4277C262.916 59.8477 263.181 60.4303 263.256 61.1758H262.313C262.232 60.6094 262.055 60.1992 261.781 59.9453C261.511 59.6914 261.132 59.5645 260.644 59.5645C260.045 59.5645 259.574 59.7858 259.232 60.2285C258.894 60.6712 258.725 61.3011 258.725 62.1182V62.8066C258.725 63.5781 258.886 64.1917 259.208 64.6475C259.53 65.1032 259.981 65.3311 260.561 65.3311C261.081 65.3311 261.48 65.2139 261.757 64.9795C262.037 64.7419 262.222 64.3301 262.313 63.7441H263.256ZM265.546 66H264.608V58.8906H265.546V66ZM272.733 62.6748C272.733 63.3714 272.616 63.9801 272.382 64.501C272.147 65.0186 271.815 65.4141 271.386 65.6875C270.956 65.9609 270.455 66.0977 269.882 66.0977C269.322 66.0977 268.826 65.9609 268.393 65.6875C267.96 65.4108 267.623 65.0186 267.382 64.5107C267.144 63.9997 267.022 63.4089 267.016 62.7383V62.2256C267.016 61.542 267.134 60.9382 267.372 60.4141C267.61 59.89 267.945 59.4896 268.378 59.2129C268.814 58.9329 269.312 58.793 269.872 58.793C270.442 58.793 270.943 58.9313 271.376 59.208C271.812 59.4814 272.147 59.8802 272.382 60.4043C272.616 60.9251 272.733 61.5322 272.733 62.2256V62.6748ZM271.801 62.2158C271.801 61.3727 271.632 60.7266 271.293 60.2773C270.954 59.8249 270.481 59.5986 269.872 59.5986C269.28 59.5986 268.812 59.8249 268.471 60.2773C268.132 60.7266 267.958 61.3516 267.948 62.1523V62.6748C267.948 63.4919 268.119 64.1348 268.461 64.6035C268.806 65.069 269.28 65.3018 269.882 65.3018C270.487 65.3018 270.956 65.082 271.288 64.6426C271.62 64.1999 271.791 63.5667 271.801 62.7432V62.2158ZM279.604 66H278.661L275.082 60.5215V66H274.14V58.8906H275.082L278.671 64.3936V58.8906H279.604V66ZM285.282 64.1445H282.304L281.635 66H280.668L283.383 58.8906H284.203L286.923 66H285.961L285.282 64.1445ZM282.587 63.373H285.004L283.793 60.0479L282.587 63.373ZM288.822 65.2334H292.191V66H287.88V58.8906H288.822V65.2334Z" fill="#222222"/>
<path d="M45.0518 104.627H50.4219V107H41.9668V94.2031H45.0518V104.627ZM54.8076 104.627H60.1777V107H51.7227V94.2031H54.8076V104.627ZM68.9229 104.609H64.6953L63.957 107H60.6611L65.3545 94.2031H68.2549L72.9834 107H69.6699L68.9229 104.609ZM65.4336 102.228H68.1846L66.8047 97.7891L65.4336 102.228ZM77.9756 94.2031L80.832 103.106L83.6797 94.2031H87.7402V107H84.6465V104.012L84.9453 97.8945L81.8516 107H79.8125L76.71 97.8857L77.0088 104.012V107H73.9238V94.2031H77.9756ZM97.1357 104.609H92.9082L92.1699 107H88.874L93.5674 94.2031H96.4678L101.196 107H97.8828L97.1357 104.609ZM93.6465 102.228H96.3975L95.0176 97.7891L93.6465 102.228ZM102.137 107V94.2031H106.259C107.39 94.2031 108.406 94.4609 109.309 94.9766C110.211 95.4863 110.914 96.21 111.418 97.1475C111.928 98.0791 112.186 99.125 112.191 100.285V100.874C112.191 102.046 111.942 103.098 111.444 104.029C110.952 104.955 110.255 105.682 109.353 106.209C108.456 106.73 107.454 106.994 106.347 107H102.137ZM105.222 96.585V104.627H106.294C107.179 104.627 107.858 104.313 108.333 103.687C108.808 103.054 109.045 102.116 109.045 100.874V100.32C109.045 99.084 108.808 98.1523 108.333 97.5254C107.858 96.8984 107.167 96.585 106.259 96.585H105.222ZM120.849 104.609H116.621L115.883 107H112.587L117.28 94.2031H120.181L124.909 107H121.596L120.849 104.609ZM117.359 102.228H120.11L118.73 97.7891L117.359 102.228ZM132.45 103.599C132.45 103.147 132.289 102.796 131.967 102.544C131.65 102.292 131.091 102.031 130.288 101.762C129.485 101.492 128.829 101.231 128.319 100.979C126.661 100.165 125.832 99.0459 125.832 97.6221C125.832 96.9131 126.037 96.2891 126.447 95.75C126.863 95.2051 127.449 94.7832 128.205 94.4844C128.961 94.1797 129.811 94.0273 130.754 94.0273C131.674 94.0273 132.497 94.1914 133.224 94.5195C133.956 94.8477 134.524 95.3164 134.929 95.9258C135.333 96.5293 135.535 97.2207 135.535 98H132.459C132.459 97.4785 132.298 97.0742 131.976 96.7871C131.659 96.5 131.229 96.3564 130.684 96.3564C130.133 96.3564 129.696 96.4795 129.374 96.7256C129.058 96.9658 128.899 97.2734 128.899 97.6484C128.899 97.9766 129.075 98.2754 129.427 98.5449C129.778 98.8086 130.396 99.084 131.281 99.3711C132.166 99.6523 132.893 99.957 133.461 100.285C134.844 101.082 135.535 102.181 135.535 103.581C135.535 104.7 135.113 105.579 134.27 106.218C133.426 106.856 132.269 107.176 130.798 107.176C129.761 107.176 128.82 106.991 127.977 106.622C127.139 106.247 126.506 105.737 126.078 105.093C125.656 104.442 125.445 103.695 125.445 102.852H128.539C128.539 103.537 128.715 104.044 129.066 104.372C129.424 104.694 130.001 104.855 130.798 104.855C131.308 104.855 131.709 104.747 132.002 104.53C132.301 104.308 132.45 103.997 132.45 103.599ZM45.2539 125H42.1777V112.203H45.2539V125ZM50.4834 122.627H55.8535V125H47.3984V112.203H50.4834V122.627ZM60.4414 125H57.3652V112.203H60.4414V125ZM66.6377 112.203L69.4941 121.106L72.3418 112.203H76.4023V125H73.3086V122.012L73.6074 115.895L70.5137 125H68.4746L65.3721 115.886L65.6709 122.012V125H62.5859V112.203H66.6377ZM81.6582 125H78.582V112.203H81.6582V125ZM93.585 114.585H89.7441V125H86.6592V114.585H82.8887V112.203H93.585V114.585ZM101.108 122.609H96.8809L96.1426 125H92.8467L97.54 112.203H100.44L105.169 125H101.855L101.108 122.609ZM97.6191 120.228H100.37L98.9902 115.789L97.6191 120.228ZM106.109 125V112.203H110.231C111.362 112.203 112.379 112.461 113.281 112.977C114.184 113.486 114.887 114.21 115.391 115.147C115.9 116.079 116.158 117.125 116.164 118.285V118.874C116.164 120.046 115.915 121.098 115.417 122.029C114.925 122.955 114.228 123.682 113.325 124.209C112.429 124.73 111.427 124.994 110.319 125H106.109ZM109.194 114.585V122.627H110.267C111.151 122.627 111.831 122.313 112.306 121.687C112.78 121.054 113.018 120.116 113.018 118.874V118.32C113.018 117.084 112.78 116.152 112.306 115.525C111.831 114.898 111.14 114.585 110.231 114.585H109.194ZM124.821 122.609H120.594L119.855 125H116.56L121.253 112.203H124.153L128.882 125H125.568L124.821 122.609ZM121.332 120.228H124.083L122.703 115.789L121.332 120.228ZM136.423 121.599C136.423 121.147 136.262 120.796 135.939 120.544C135.623 120.292 135.063 120.031 134.261 119.762C133.458 119.492 132.802 119.231 132.292 118.979C130.634 118.165 129.805 117.046 129.805 115.622C129.805 114.913 130.01 114.289 130.42 113.75C130.836 113.205 131.422 112.783 132.178 112.484C132.934 112.18 133.783 112.027 134.727 112.027C135.646 112.027 136.47 112.191 137.196 112.52C137.929 112.848 138.497 113.316 138.901 113.926C139.306 114.529 139.508 115.221 139.508 116H136.432C136.432 115.479 136.271 115.074 135.948 114.787C135.632 114.5 135.201 114.356 134.656 114.356C134.105 114.356 133.669 114.479 133.347 114.726C133.03 114.966 132.872 115.273 132.872 115.648C132.872 115.977 133.048 116.275 133.399 116.545C133.751 116.809 134.369 117.084 135.254 117.371C136.139 117.652 136.865 117.957 137.434 118.285C138.816 119.082 139.508 120.181 139.508 121.581C139.508 122.7 139.086 123.579 138.242 124.218C137.398 124.856 136.241 125.176 134.771 125.176C133.733 125.176 132.793 124.991 131.949 124.622C131.111 124.247 130.479 123.737 130.051 123.093C129.629 122.442 129.418 121.695 129.418 120.852H132.512C132.512 121.537 132.688 122.044 133.039 122.372C133.396 122.694 133.974 122.855 134.771 122.855C135.28 122.855 135.682 122.747 135.975 122.53C136.273 122.308 136.423 121.997 136.423 121.599Z" fill="#222222"/>
<path d="M45.751 134.145H42.7725L42.1035 136H41.1367L43.8516 128.891H44.6719L47.3916 136H46.4297L45.751 134.145ZM43.0557 133.373H45.4727L44.2617 130.048L43.0557 133.373ZM56.293 136H55.3506L51.7715 130.521V136H50.8291V128.891H51.7715L55.3604 134.394V128.891H56.293V136ZM62.9629 128.891V133.725C62.9596 134.395 62.748 134.944 62.3281 135.37C61.9115 135.797 61.3451 136.036 60.6289 136.088L60.3799 136.098C59.6019 136.098 58.9818 135.888 58.5195 135.468C58.0573 135.048 57.8229 134.47 57.8164 133.734V128.891H58.7441V133.705C58.7441 134.219 58.8857 134.62 59.1689 134.906C59.4521 135.189 59.8558 135.331 60.3799 135.331C60.9105 135.331 61.3158 135.189 61.5957 134.906C61.8789 134.623 62.0205 134.224 62.0205 133.71V128.891H62.9629ZM60.834 126.986H61.9277L60.6191 128.422H59.8916L60.834 126.986ZM65.6533 128.891L67.9775 134.691L70.3018 128.891H71.5176V136H70.5801V133.231L70.668 130.243L68.334 136H67.6162L65.2871 130.258L65.3799 133.231V136H64.4424V128.891H65.6533ZM77.1914 132.714H74.1104V135.233H77.6895V136H73.1729V128.891H77.6406V129.662H74.1104V131.947H77.1914V132.714ZM81.4639 133.124H79.7939V136H78.8516V128.891H81.2051C82.0059 128.891 82.6211 129.073 83.0508 129.438C83.4837 129.802 83.7002 130.333 83.7002 131.029C83.7002 131.472 83.5798 131.858 83.3389 132.187C83.1012 132.515 82.7692 132.761 82.3428 132.924L84.0127 135.941V136H83.0068L81.4639 133.124ZM79.7939 132.357H81.2344C81.6999 132.357 82.0693 132.237 82.3428 131.996C82.6195 131.755 82.7578 131.433 82.7578 131.029C82.7578 130.59 82.626 130.253 82.3623 130.019C82.1019 129.784 81.7243 129.665 81.2295 129.662H79.7939V132.357ZM90.4873 132.675C90.4873 133.371 90.3701 133.98 90.1357 134.501C89.9014 135.019 89.5693 135.414 89.1396 135.688C88.71 135.961 88.2087 136.098 87.6357 136.098C87.0758 136.098 86.5794 135.961 86.1465 135.688C85.7135 135.411 85.3766 135.019 85.1357 134.511C84.8981 134 84.776 133.409 84.7695 132.738V132.226C84.7695 131.542 84.8883 130.938 85.126 130.414C85.3636 129.89 85.6989 129.49 86.1318 129.213C86.568 128.933 87.0661 128.793 87.626 128.793C88.1956 128.793 88.6969 128.931 89.1299 129.208C89.5661 129.481 89.9014 129.88 90.1357 130.404C90.3701 130.925 90.4873 131.532 90.4873 132.226V132.675ZM89.5547 132.216C89.5547 131.373 89.3854 130.727 89.0469 130.277C88.7083 129.825 88.2347 129.599 87.626 129.599C87.0335 129.599 86.5664 129.825 86.2246 130.277C85.8861 130.727 85.7119 131.352 85.7021 132.152V132.675C85.7021 133.492 85.873 134.135 86.2148 134.604C86.5599 135.069 87.0335 135.302 87.6357 135.302C88.2412 135.302 88.71 135.082 89.042 134.643C89.374 134.2 89.5449 133.567 89.5547 132.743V132.216ZM93.9883 132.831C93.1842 132.6 92.5983 132.317 92.2305 131.981C91.8659 131.643 91.6836 131.226 91.6836 130.731C91.6836 130.172 91.9066 129.709 92.3525 129.345C92.8018 128.977 93.3844 128.793 94.1006 128.793C94.5889 128.793 95.0234 128.887 95.4043 129.076C95.7884 129.265 96.0846 129.525 96.293 129.857C96.5046 130.189 96.6104 130.552 96.6104 130.946H95.668C95.668 130.517 95.5312 130.18 95.2578 129.936C94.9844 129.688 94.5986 129.564 94.1006 129.564C93.6383 129.564 93.277 129.667 93.0166 129.872C92.7594 130.074 92.6309 130.355 92.6309 130.717C92.6309 131.007 92.7529 131.252 92.9971 131.454C93.2445 131.653 93.6628 131.835 94.252 132.001C94.8444 132.167 95.3066 132.351 95.6387 132.553C95.974 132.751 96.2214 132.984 96.3809 133.251C96.5436 133.518 96.625 133.832 96.625 134.193C96.625 134.77 96.4004 135.232 95.9512 135.58C95.502 135.925 94.9014 136.098 94.1494 136.098C93.6611 136.098 93.2054 136.005 92.7822 135.819C92.359 135.631 92.0319 135.373 91.8008 135.048C91.5729 134.722 91.459 134.353 91.459 133.939H92.4014C92.4014 134.369 92.5592 134.709 92.875 134.96C93.194 135.207 93.6188 135.331 94.1494 135.331C94.6442 135.331 95.0234 135.23 95.2871 135.028C95.5508 134.826 95.6826 134.551 95.6826 134.203C95.6826 133.855 95.5605 133.586 95.3164 133.397C95.0723 133.205 94.6296 133.017 93.9883 132.831ZM105.541 133.744C105.453 134.496 105.175 135.077 104.706 135.487C104.241 135.894 103.62 136.098 102.846 136.098C102.006 136.098 101.332 135.797 100.824 135.194C100.32 134.592 100.067 133.786 100.067 132.777V132.094C100.067 131.433 100.185 130.852 100.419 130.351C100.657 129.849 100.992 129.465 101.425 129.198C101.858 128.928 102.359 128.793 102.929 128.793C103.684 128.793 104.289 129.005 104.745 129.428C105.201 129.848 105.466 130.43 105.541 131.176H104.599C104.517 130.609 104.34 130.199 104.066 129.945C103.796 129.691 103.417 129.564 102.929 129.564C102.33 129.564 101.859 129.786 101.518 130.229C101.179 130.671 101.01 131.301 101.01 132.118V132.807C101.01 133.578 101.171 134.192 101.493 134.647C101.815 135.103 102.266 135.331 102.846 135.331C103.367 135.331 103.765 135.214 104.042 134.979C104.322 134.742 104.507 134.33 104.599 133.744H105.541ZM107.768 135.233H111.137V136H106.825V128.891H107.768V135.233ZM116.229 134.145H113.251L112.582 136H111.615L114.33 128.891H115.15L117.87 136H116.908L116.229 134.145ZM113.534 133.373H115.951L114.74 130.048L113.534 133.373ZM121.435 133.124H119.765V136H118.822V128.891H121.176C121.977 128.891 122.592 129.073 123.021 129.438C123.454 129.802 123.671 130.333 123.671 131.029C123.671 131.472 123.55 131.858 123.31 132.187C123.072 132.515 122.74 132.761 122.313 132.924L123.983 135.941V136H122.978L121.435 133.124ZM119.765 132.357H121.205C121.671 132.357 122.04 132.237 122.313 131.996C122.59 131.755 122.729 131.433 122.729 131.029C122.729 130.59 122.597 130.253 122.333 130.019C122.073 129.784 121.695 129.665 121.2 129.662H119.765V132.357ZM130.458 132.675C130.458 133.371 130.341 133.98 130.106 134.501C129.872 135.019 129.54 135.414 129.11 135.688C128.681 135.961 128.179 136.098 127.606 136.098C127.047 136.098 126.55 135.961 126.117 135.688C125.684 135.411 125.347 135.019 125.106 134.511C124.869 134 124.747 133.409 124.74 132.738V132.226C124.74 131.542 124.859 130.938 125.097 130.414C125.334 129.89 125.67 129.49 126.103 129.213C126.539 128.933 127.037 128.793 127.597 128.793C128.166 128.793 128.668 128.931 129.101 129.208C129.537 129.481 129.872 129.88 130.106 130.404C130.341 130.925 130.458 131.532 130.458 132.226V132.675ZM129.525 132.216C129.525 131.373 129.356 130.727 129.018 130.277C128.679 129.825 128.205 129.599 127.597 129.599C127.004 129.599 126.537 129.825 126.195 130.277C125.857 130.727 125.683 131.352 125.673 132.152V132.675C125.673 133.492 125.844 134.135 126.186 134.604C126.531 135.069 127.004 135.302 127.606 135.302C128.212 135.302 128.681 135.082 129.013 134.643C129.345 134.2 129.516 133.567 129.525 132.743V132.216Z" fill="#222222"/>
<g filter="url(#filter1_d)">
<path d="M168.516 106.094H173.688L172.906 110.609H167.75L166.672 116.719H161.875L162.938 110.609H157.75L158.531 106.094H163.719L164.75 100.156H169.547L168.516 106.094Z" fill="#EF3829"/>
</g>
<path d="M195.019 94.2031L197.875 103.106L200.723 94.2031H204.783V107H201.689V104.012L201.988 97.8945L198.895 107H196.855L193.753 97.8857L194.052 104.012V107H190.967V94.2031H195.019ZM214.688 101.577H209.837V104.627H215.567V107H206.752V94.2031H215.585V96.585H209.837V99.2832H214.688V101.577ZM227.512 107H224.444L219.909 99.0371V107H216.824V94.2031H219.909L224.436 102.166V94.2031H227.512V107ZM236.063 103.599C236.063 103.147 235.902 102.796 235.58 102.544C235.264 102.292 234.704 102.031 233.901 101.762C233.099 101.492 232.442 101.231 231.933 100.979C230.274 100.165 229.445 99.0459 229.445 97.6221C229.445 96.9131 229.65 96.2891 230.061 95.75C230.477 95.2051 231.062 94.7832 231.818 94.4844C232.574 94.1797 233.424 94.0273 234.367 94.0273C235.287 94.0273 236.11 94.1914 236.837 94.5195C237.569 94.8477 238.138 95.3164 238.542 95.9258C238.946 96.5293 239.148 97.2207 239.148 98H236.072C236.072 97.4785 235.911 97.0742 235.589 96.7871C235.272 96.5 234.842 96.3564 234.297 96.3564C233.746 96.3564 233.31 96.4795 232.987 96.7256C232.671 96.9658 232.513 97.2734 232.513 97.6484C232.513 97.9766 232.688 98.2754 233.04 98.5449C233.392 98.8086 234.01 99.084 234.895 99.3711C235.779 99.6523 236.506 99.957 237.074 100.285C238.457 101.082 239.148 102.181 239.148 103.581C239.148 104.7 238.727 105.579 237.883 106.218C237.039 106.856 235.882 107.176 234.411 107.176C233.374 107.176 232.434 106.991 231.59 106.622C230.752 106.247 230.119 105.737 229.691 105.093C229.27 104.442 229.059 103.695 229.059 102.852H232.152C232.152 103.537 232.328 104.044 232.68 104.372C233.037 104.694 233.614 104.855 234.411 104.855C234.921 104.855 235.322 104.747 235.615 104.53C235.914 104.308 236.063 103.997 236.063 103.599ZM247.999 104.609H243.771L243.033 107H239.737L244.431 94.2031H247.331L252.06 107H248.746L247.999 104.609ZM244.51 102.228H247.261L245.881 97.7891L244.51 102.228ZM258.098 94.2031H261.174V102.983C261.174 103.798 260.983 104.524 260.603 105.163C260.228 105.802 259.7 106.297 259.021 106.648C258.347 107 257.594 107.176 256.762 107.176C255.367 107.176 254.283 106.824 253.51 106.121C252.736 105.418 252.35 104.422 252.35 103.133H255.443C255.443 103.719 255.543 104.144 255.742 104.407C255.947 104.671 256.287 104.803 256.762 104.803C257.189 104.803 257.518 104.645 257.746 104.328C257.98 104.006 258.098 103.558 258.098 102.983V94.2031ZM271.062 101.577H266.21V104.627H271.94V107H263.125V94.2031H271.958V96.585H266.21V99.2832H271.062V101.577ZM279.798 103.599C279.798 103.147 279.637 102.796 279.314 102.544C278.998 102.292 278.438 102.031 277.636 101.762C276.833 101.492 276.177 101.231 275.667 100.979C274.009 100.165 273.18 99.0459 273.18 97.6221C273.18 96.9131 273.385 96.2891 273.795 95.75C274.211 95.2051 274.797 94.7832 275.553 94.4844C276.309 94.1797 277.158 94.0273 278.102 94.0273C279.021 94.0273 279.845 94.1914 280.571 94.5195C281.304 94.8477 281.872 95.3164 282.276 95.9258C282.681 96.5293 282.883 97.2207 282.883 98H279.807C279.807 97.4785 279.646 97.0742 279.323 96.7871C279.007 96.5 278.576 96.3564 278.031 96.3564C277.48 96.3564 277.044 96.4795 276.722 96.7256C276.405 96.9658 276.247 97.2734 276.247 97.6484C276.247 97.9766 276.423 98.2754 276.774 98.5449C277.126 98.8086 277.744 99.084 278.629 99.3711C279.514 99.6523 280.24 99.957 280.809 100.285C282.191 101.082 282.883 102.181 282.883 103.581C282.883 104.7 282.461 105.579 281.617 106.218C280.773 106.856 279.616 107.176 278.146 107.176C277.108 107.176 276.168 106.991 275.324 106.622C274.486 106.247 273.854 105.737 273.426 105.093C273.004 104.442 272.793 103.695 272.793 102.852H275.887C275.887 103.537 276.062 104.044 276.414 104.372C276.771 104.694 277.349 104.855 278.146 104.855C278.655 104.855 279.057 104.747 279.35 104.53C279.648 104.308 279.798 103.997 279.798 103.599ZM194.254 125H191.178V112.203H194.254V125ZM199.483 122.627H204.854V125H196.398V112.203H199.483V122.627ZM209.441 125H206.365V112.203H209.441V125ZM215.638 112.203L218.494 121.106L221.342 112.203H225.402V125H222.309V122.012L222.607 115.895L219.514 125H217.475L214.372 115.886L214.671 122.012V125H211.586V112.203H215.638ZM230.658 125H227.582V112.203H230.658V125ZM242.585 114.585H238.744V125H235.659V114.585H231.889V112.203H242.585V114.585ZM250.108 122.609H245.881L245.143 125H241.847L246.54 112.203H249.44L254.169 125H250.855L250.108 122.609ZM246.619 120.228H249.37L247.99 115.789L246.619 120.228ZM255.109 125V112.203H259.231C260.362 112.203 261.379 112.461 262.281 112.977C263.184 113.486 263.887 114.21 264.391 115.147C264.9 116.079 265.158 117.125 265.164 118.285V118.874C265.164 120.046 264.915 121.098 264.417 122.029C263.925 122.955 263.228 123.682 262.325 124.209C261.429 124.73 260.427 124.994 259.319 125H255.109ZM258.194 114.585V122.627H259.267C260.151 122.627 260.831 122.313 261.306 121.687C261.78 121.054 262.018 120.116 262.018 118.874V118.32C262.018 117.084 261.78 116.152 261.306 115.525C260.831 114.898 260.14 114.585 259.231 114.585H258.194ZM277.583 118.865C277.583 120.113 277.352 121.218 276.889 122.179C276.426 123.14 275.767 123.881 274.911 124.402C274.062 124.918 273.092 125.176 272.002 125.176C270.912 125.176 269.945 124.927 269.102 124.429C268.258 123.925 267.599 123.207 267.124 122.275C266.655 121.344 266.409 120.274 266.386 119.067V118.347C266.386 117.093 266.614 115.988 267.071 115.033C267.534 114.072 268.193 113.331 269.049 112.81C269.91 112.288 270.889 112.027 271.984 112.027C273.068 112.027 274.035 112.285 274.885 112.801C275.734 113.316 276.394 114.052 276.862 115.007C277.337 115.956 277.577 117.046 277.583 118.276V118.865ZM274.445 118.329C274.445 117.058 274.231 116.094 273.804 115.438C273.382 114.775 272.775 114.444 271.984 114.444C270.438 114.444 269.62 115.604 269.532 117.925L269.523 118.865C269.523 120.119 269.731 121.083 270.147 121.757C270.563 122.431 271.182 122.768 272.002 122.768C272.781 122.768 273.382 122.437 273.804 121.774C274.226 121.112 274.439 120.16 274.445 118.918V118.329ZM285.774 121.599C285.774 121.147 285.613 120.796 285.291 120.544C284.975 120.292 284.415 120.031 283.612 119.762C282.81 119.492 282.153 119.231 281.644 118.979C279.985 118.165 279.156 117.046 279.156 115.622C279.156 114.913 279.361 114.289 279.771 113.75C280.188 113.205 280.773 112.783 281.529 112.484C282.285 112.18 283.135 112.027 284.078 112.027C284.998 112.027 285.821 112.191 286.548 112.52C287.28 112.848 287.849 113.316 288.253 113.926C288.657 114.529 288.859 115.221 288.859 116H285.783C285.783 115.479 285.622 115.074 285.3 114.787C284.983 114.5 284.553 114.356 284.008 114.356C283.457 114.356 283.021 114.479 282.698 114.726C282.382 114.966 282.224 115.273 282.224 115.648C282.224 115.977 282.399 116.275 282.751 116.545C283.103 116.809 283.721 117.084 284.605 117.371C285.49 117.652 286.217 117.957 286.785 118.285C288.168 119.082 288.859 120.181 288.859 121.581C288.859 122.7 288.438 123.579 287.594 124.218C286.75 124.856 285.593 125.176 284.122 125.176C283.085 125.176 282.145 124.991 281.301 124.622C280.463 124.247 279.83 123.737 279.402 123.093C278.98 122.442 278.77 121.695 278.77 120.852H281.863C281.863 121.537 282.039 122.044 282.391 122.372C282.748 122.694 283.325 122.855 284.122 122.855C284.632 122.855 285.033 122.747 285.326 122.53C285.625 122.308 285.774 121.997 285.774 121.599Z" fill="#222222"/>
<path d="M192.036 128.891L194.36 134.691L196.685 128.891H197.9V136H196.963V133.231L197.051 130.243L194.717 136H193.999L191.67 130.258L191.763 133.231V136H190.825V128.891H192.036ZM204.561 128.891V133.725C204.557 134.395 204.346 134.944 203.926 135.37C203.509 135.797 202.943 136.036 202.227 136.088L201.978 136.098C201.2 136.098 200.579 135.888 200.117 135.468C199.655 135.048 199.421 134.47 199.414 133.734V128.891H200.342V133.705C200.342 134.219 200.483 134.62 200.767 134.906C201.05 135.189 201.453 135.331 201.978 135.331C202.508 135.331 202.913 135.189 203.193 134.906C203.477 134.623 203.618 134.224 203.618 133.71V128.891H204.561ZM206.982 135.233H210.352V136H206.04V128.891H206.982V135.233ZM214.985 129.662H212.7V136H211.768V129.662H209.487V128.891H214.985V129.662ZM217.046 136H216.108V128.891H217.046V136ZM218.765 136V128.891H220.771C221.39 128.891 221.937 129.027 222.412 129.301C222.887 129.574 223.254 129.963 223.511 130.468C223.771 130.972 223.903 131.552 223.906 132.206V132.66C223.906 133.331 223.776 133.918 223.516 134.423C223.258 134.927 222.889 135.315 222.407 135.585C221.929 135.855 221.37 135.993 220.732 136H218.765ZM219.702 129.662V135.233H220.688C221.411 135.233 221.973 135.009 222.373 134.56C222.777 134.11 222.979 133.471 222.979 132.641V132.226C222.979 131.418 222.788 130.792 222.407 130.346C222.03 129.896 221.493 129.669 220.796 129.662H219.702ZM229.346 132.714H226.265V135.233H229.844V136H225.327V128.891H229.795V129.662H226.265V131.947H229.346V132.714ZM233.105 132.831C232.301 132.6 231.715 132.317 231.348 131.981C230.983 131.643 230.801 131.226 230.801 130.731C230.801 130.172 231.024 129.709 231.47 129.345C231.919 128.977 232.502 128.793 233.218 128.793C233.706 128.793 234.141 128.887 234.521 129.076C234.906 129.265 235.202 129.525 235.41 129.857C235.622 130.189 235.728 130.552 235.728 130.946H234.785C234.785 130.517 234.648 130.18 234.375 129.936C234.102 129.688 233.716 129.564 233.218 129.564C232.756 129.564 232.394 129.667 232.134 129.872C231.877 130.074 231.748 130.355 231.748 130.717C231.748 131.007 231.87 131.252 232.114 131.454C232.362 131.653 232.78 131.835 233.369 132.001C233.962 132.167 234.424 132.351 234.756 132.553C235.091 132.751 235.339 132.984 235.498 133.251C235.661 133.518 235.742 133.832 235.742 134.193C235.742 134.77 235.518 135.232 235.068 135.58C234.619 135.925 234.019 136.098 233.267 136.098C232.778 136.098 232.323 136.005 231.899 135.819C231.476 135.631 231.149 135.373 230.918 135.048C230.69 134.722 230.576 134.353 230.576 133.939H231.519C231.519 134.369 231.676 134.709 231.992 134.96C232.311 135.207 232.736 135.331 233.267 135.331C233.761 135.331 234.141 135.23 234.404 135.028C234.668 134.826 234.8 134.551 234.8 134.203C234.8 133.855 234.678 133.586 234.434 133.397C234.189 133.205 233.747 133.017 233.105 132.831ZM241.86 129.662H239.575V136H238.643V129.662H236.362V128.891H241.86V129.662ZM243.921 136H242.983V128.891H243.921V136ZM251.104 136H250.161L246.582 130.521V136H245.64V128.891H246.582L250.171 134.394V128.891H251.104V136ZM258.237 132.675C258.237 133.371 258.12 133.98 257.886 134.501C257.651 135.019 257.319 135.414 256.89 135.688C256.46 135.961 255.959 136.098 255.386 136.098C254.826 136.098 254.329 135.961 253.896 135.688C253.464 135.411 253.127 135.019 252.886 134.511C252.648 134 252.526 133.409 252.52 132.738V132.226C252.52 131.542 252.638 130.938 252.876 130.414C253.114 129.89 253.449 129.49 253.882 129.213C254.318 128.933 254.816 128.793 255.376 128.793C255.946 128.793 256.447 128.931 256.88 129.208C257.316 129.481 257.651 129.88 257.886 130.404C258.12 130.925 258.237 131.532 258.237 132.226V132.675ZM257.305 132.216C257.305 131.373 257.135 130.727 256.797 130.277C256.458 129.825 255.985 129.599 255.376 129.599C254.784 129.599 254.316 129.825 253.975 130.277C253.636 130.727 253.462 131.352 253.452 132.152V132.675C253.452 133.492 253.623 134.135 253.965 134.604C254.31 135.069 254.784 135.302 255.386 135.302C255.991 135.302 256.46 135.082 256.792 134.643C257.124 134.2 257.295 133.567 257.305 132.743V132.216Z" fill="#222222"/>
<g clip-path="url(#clip0)">
<path d="M52.9583 172C52.8816 172 52.8816 172 52.8816 172C52.1148 172 51.3479 172 50.6577 172C50.581 172 50.5043 172 50.5043 171.925C49.9675 170.94 49.2007 170.258 48.127 169.955C46.5933 169.576 45.3663 170.031 44.2927 171.167C43.6792 171.849 43.3724 172.682 43.3724 173.591C43.3724 174.273 43.5258 174.879 43.8326 175.485C44.4461 176.47 45.2896 177.152 46.4399 177.304C47.897 177.531 49.124 177.076 50.0442 175.864C50.1976 175.713 50.2743 175.485 50.4277 175.258C50.4277 175.182 50.5043 175.182 50.581 175.182C51.3479 175.182 52.1148 175.182 52.8816 175.182C52.9583 175.182 52.9583 175.182 52.9583 175.258C52.6516 176.394 52.0381 177.379 51.1178 178.137C50.1976 178.894 49.2007 179.425 47.9737 179.576C46.5933 179.728 45.2129 179.576 43.9859 178.819C42.3755 177.834 41.3786 176.394 41.0718 174.576C40.8418 172.91 41.1485 171.319 42.2221 169.955C42.9123 169.122 43.6792 168.364 44.6761 167.985C45.2129 167.758 45.7497 167.607 46.3632 167.607C47.2068 167.531 48.0504 167.531 48.8939 167.834C50.581 168.364 51.808 169.425 52.5749 171.016C52.7283 171.319 52.805 171.622 52.9583 172Z" fill="#EF3829"/>
<path d="M63.6179 178.818C63.5412 178.818 63.5412 178.894 63.5412 178.894C63.0044 179.273 62.3909 179.5 61.7774 179.651C61.2406 179.727 60.7038 179.803 60.167 179.727C59.1701 179.576 58.4032 179.197 58.0198 178.212C57.8664 177.758 57.7897 177.303 57.8664 176.848C57.8664 176.47 57.9431 176.091 58.0964 175.712C58.4032 175.03 58.94 174.576 59.6302 174.273C60.167 174.045 60.7038 173.97 61.2406 173.894C61.7774 173.818 62.3142 173.742 62.8511 173.667C63.2345 173.591 63.5412 173.212 63.4646 172.758C63.3879 172.379 63.2345 172.151 62.8511 172C62.3909 171.848 62.0075 171.848 61.5474 171.924C61.394 171.924 61.2406 172 61.0873 172C60.7038 172.151 60.4738 172.53 60.3204 172.909V172.985C60.2437 173.212 60.2437 173.212 60.0903 173.212C59.4001 173.212 58.7099 173.212 58.0198 173.212C57.9431 173.212 57.9431 173.212 57.9431 173.136C57.9431 172.833 58.0198 172.53 58.0964 172.227C58.4032 171.091 59.1701 170.409 60.2437 170.106C61.0106 169.879 61.7007 169.879 62.4676 169.954C63.1578 169.954 63.848 170.182 64.4615 170.485C65.2284 170.864 65.6118 171.47 65.7652 172.227C65.8419 172.454 65.8419 172.682 65.8419 172.909C65.8419 175.182 65.8419 177.379 65.8419 179.651C65.8419 179.727 65.8419 179.803 65.6885 179.803C64.9983 179.803 64.2314 179.803 63.5412 179.803C63.4646 179.803 63.4646 179.803 63.4646 179.727C63.4646 179.5 63.4646 179.197 63.4646 178.97C63.6946 178.818 63.6946 178.818 63.6179 178.818ZM63.5412 174.954C63.4646 175.03 63.3879 175.03 63.3879 175.03C63.3112 175.106 63.1578 175.182 63.0811 175.182C62.621 175.258 62.2376 175.409 61.7774 175.485C61.4707 175.561 61.2406 175.561 61.0106 175.712C60.6271 175.864 60.3971 176.167 60.3204 176.545C60.2437 176.773 60.2437 176.924 60.3204 177.151C60.3971 177.606 60.7038 177.985 61.1639 178.061C61.8541 178.212 62.4676 177.985 63.0044 177.606C63.3879 177.379 63.4646 176.924 63.5412 176.545C63.6179 176.015 63.5412 175.485 63.5412 174.954Z" fill="#EF3829"/>
<path d="M73.2805 174.803C73.2805 172.379 75.0443 170.712 76.5781 170.182C79.5689 169.197 82.4063 171.015 83.0198 173.743C83.3265 175.258 83.0965 176.621 82.1762 177.833C81.4094 178.818 80.4124 179.5 79.1854 179.727C77.575 180.03 76.1179 179.652 74.9676 178.515C74.2775 177.833 73.7406 177.076 73.5106 176.167C73.3572 175.712 73.2805 175.258 73.2805 174.803ZM78.1885 172.303C76.7314 172.227 75.5811 173.591 75.5811 174.879C75.5811 176.091 76.5781 177.455 78.1885 177.455C79.7989 177.455 80.7959 176.091 80.7959 174.879C80.7959 173.44 79.7222 172.227 78.1885 172.303Z" fill="#EF3829"/>
<path d="M75.121 184.5C75.121 184.424 75.121 184.424 75.121 184.349C75.121 183.439 75.121 182.455 75.121 181.545C75.121 181.47 75.121 181.47 75.2744 181.47C75.8112 181.47 76.2713 181.47 76.8082 181.47C76.8848 181.47 76.8848 181.47 76.8848 181.545C76.8848 184.576 76.8848 187.606 76.8848 190.636C76.8848 190.712 76.8848 190.712 76.8082 190.712C76.348 190.712 75.8112 190.712 75.3511 190.712C75.2744 190.712 75.2744 190.712 75.2744 190.636C75.2744 190.485 75.2744 190.333 75.2744 190.106H75.1977C74.7376 190.561 74.2008 190.788 73.5106 190.788C73.2039 190.788 72.8971 190.712 72.5904 190.636C71.9002 190.409 71.5167 189.879 71.2867 189.197C71.21 188.894 71.1333 188.591 71.1333 188.212C71.1333 187.379 71.0566 186.621 71.21 185.788C71.2867 185.485 71.3634 185.182 71.4401 184.879C71.6701 184.349 72.0536 184.045 72.5904 183.894C73.2805 183.667 73.894 183.667 74.5842 183.97C74.8143 184.197 74.9677 184.349 75.121 184.5ZM75.121 187.303C75.121 187.227 75.121 187.227 75.121 187.152C75.121 186.773 75.121 186.318 74.9677 185.939C74.8143 185.636 74.6609 185.485 74.3542 185.409C74.2775 185.409 74.1241 185.333 74.0474 185.333C73.5873 185.333 73.2039 185.485 72.9738 186.015C72.8971 186.318 72.8204 186.621 72.8204 186.924C72.8204 187.379 72.8204 187.833 72.8971 188.288C72.9738 188.818 73.2805 189.197 73.894 189.197C74.4309 189.197 74.8143 188.97 74.9677 188.515C75.121 188.136 75.121 187.758 75.121 187.303Z" fill="black"/>
<path d="M69.8296 171.546C70.0597 171.243 70.2131 171.091 70.4431 170.864C70.9033 170.485 71.4401 170.182 72.0536 170.03C72.3603 169.955 72.6671 169.955 72.9738 169.879C73.0505 169.879 73.0505 169.955 73.0505 169.955C73.0505 170.409 73.0505 170.94 73.0505 171.394C73.0505 171.621 73.0505 171.924 73.0505 172.152C73.0505 172.227 73.0505 172.227 72.9738 172.227C72.7437 172.227 72.5137 172.152 72.2069 172.227C71.8235 172.227 71.5168 172.379 71.21 172.53C70.5965 172.909 70.1364 173.364 69.983 174.121C69.9063 174.424 69.9063 174.803 69.9063 175.106C69.9063 176.546 69.9063 178.061 69.9063 179.5C69.9063 179.576 69.9063 179.652 69.7529 179.652C69.0628 179.652 68.3726 179.652 67.6824 179.652C67.6057 179.652 67.6057 179.652 67.6057 179.576C67.6057 176.546 67.6057 173.515 67.6057 170.409C67.6057 170.333 67.6057 170.333 67.6824 170.333C68.3726 170.333 69.0628 170.333 69.7529 170.333C69.8296 170.333 69.8296 170.333 69.8296 170.409C69.8296 170.864 69.8296 171.167 69.8296 171.546Z" fill="#EF3829"/>
<path d="M56.4861 173.59C56.4861 175.56 56.4861 177.606 56.4861 179.575C56.4861 179.651 56.4861 179.727 56.3327 179.727C55.6425 179.727 54.9524 179.727 54.1855 179.727C54.1088 179.727 54.0321 179.727 54.0321 179.575C54.0321 175.56 54.0321 171.621 54.0321 167.606C54.0321 167.53 54.0321 167.454 54.1855 167.454C54.8757 167.454 55.6425 167.454 56.3327 167.454C56.4094 167.454 56.4094 167.454 56.4094 167.606C56.4861 169.651 56.4861 171.621 56.4861 173.59Z" fill="#EF3829"/>
<path d="M82.0229 187.833C81.3327 187.833 80.6425 187.833 79.9523 187.833C79.8756 187.833 79.8756 187.833 79.8756 187.909C79.8756 188.591 80.2591 189.121 80.8726 189.197C81.5627 189.348 82.2529 189.272 82.7897 188.742C82.9431 188.591 82.9431 188.591 83.0198 188.742C83.3265 189.045 83.5566 189.272 83.8633 189.576C83.94 189.651 83.94 189.651 83.8633 189.651C83.4032 190.106 82.7897 190.485 82.0995 190.636C81.4094 190.712 80.7192 190.712 80.029 190.485C79.2621 190.257 78.7253 189.727 78.4186 188.969C77.9585 187.757 77.9585 186.545 78.4186 185.409C78.8787 184.348 79.7223 183.818 80.8726 183.742C81.3327 183.742 81.8695 183.742 82.2529 183.969C83.0965 184.348 83.6333 185.03 83.8633 185.863C83.94 186.242 84.0167 186.621 84.0167 187C84.0167 187.227 84.0167 187.454 84.0167 187.682C84.0167 187.757 84.0167 187.757 83.94 187.757C83.4032 187.833 82.713 187.833 82.0229 187.833ZM81.1793 186.697C81.5627 186.697 82.0229 186.697 82.4063 186.697C82.483 186.697 82.483 186.697 82.483 186.621C82.483 186.394 82.4063 186.242 82.3296 186.091C82.0229 185.182 80.9492 185.182 80.4124 185.485C80.029 185.788 79.8756 186.166 79.8756 186.621C79.8756 186.697 79.8756 186.697 79.9523 186.697C80.3357 186.697 80.7959 186.697 81.1793 186.697Z" fill="black"/>
<path d="M90.9953 187.303C90.9953 187.833 90.9953 188.364 90.8419 188.818C90.6118 189.727 89.9983 190.333 89.0781 190.637C88.3112 190.864 87.5444 190.864 86.7775 190.485C85.9339 190.106 85.4738 189.5 85.3204 188.591C85.167 187.909 85.167 187.227 85.2437 186.546C85.2437 186.167 85.3204 185.712 85.5505 185.333C85.9339 184.5 86.6241 184.046 87.5444 183.818C88.0812 183.743 88.6947 183.743 89.2315 183.894C90.1517 184.197 90.7652 184.879 90.9953 185.864C90.9953 186.394 90.9953 186.849 90.9953 187.303ZM86.9309 187.303C86.9309 187.682 86.9309 187.985 87.0075 188.364C87.1609 189.121 87.6977 189.424 88.3879 189.273C88.848 189.197 89.0781 188.818 89.2315 188.44C89.3848 187.758 89.3848 187.076 89.2315 186.394C89.1548 186.015 89.0014 185.712 88.618 185.561C88.3112 185.409 88.0812 185.409 87.7744 185.485C87.3143 185.636 87.0842 185.94 87.0075 186.318C86.9309 186.621 86.8542 186.924 86.9309 187.303Z" fill="black"/>
<path d="M60.8572 183.894C61.0872 183.894 61.3173 183.894 61.4707 183.894C61.8541 183.894 62.1609 183.894 62.5443 183.894C62.621 183.894 62.6977 183.894 62.6977 184.045C63.1578 185.333 63.5412 186.697 64.0013 187.984V188.06C64.078 188.06 64.0013 187.984 64.078 187.984C64.5382 186.697 64.9216 185.333 65.3817 183.969C65.3817 183.894 65.4584 183.894 65.5351 183.894C66.0719 183.894 66.6087 183.894 67.1455 183.894C67.2989 183.894 67.2989 183.894 67.2222 183.969C66.532 185.863 65.7652 187.833 65.075 189.727C64.9983 190.03 64.8449 190.257 64.7682 190.56C64.7682 190.636 64.6915 190.636 64.6915 190.636C64.3081 190.636 63.9247 190.636 63.5412 190.636C63.4645 190.636 63.4645 190.636 63.3879 190.56C62.851 189.197 62.3909 187.833 61.8541 186.469C61.5474 185.636 61.2406 184.803 60.9339 184.045C60.9339 183.969 60.9339 183.969 60.8572 183.894Z" fill="black"/>
<path d="M83.5566 170.333C83.5566 170.258 83.4799 170.258 83.5566 170.333C83.0198 169.803 82.5596 169.348 82.0995 168.894C82.0228 168.818 82.0995 168.818 82.0995 168.742L82.1762 168.667C84.0167 166.848 85.8572 165.03 87.621 163.212C87.6977 163.136 87.6977 163.136 87.7744 163.212C88.2345 163.667 88.6946 164.121 89.1547 164.576C89.2314 164.651 89.2314 164.651 89.1547 164.727C87.3142 166.545 85.4737 168.364 83.5566 170.333C83.6333 170.258 83.5566 170.258 83.5566 170.333Z" fill="#EF3829"/>
<path d="M87.6978 172.606C88.6947 172.606 89.6916 172.606 90.6886 172.606C90.7653 172.606 90.7653 172.606 90.7653 172.682C90.7653 173.288 90.7653 173.97 90.7653 174.576C90.7653 174.652 90.7653 174.652 90.6886 174.652C88.6947 174.652 86.6241 174.652 84.6303 174.652C84.5536 174.652 84.5536 174.652 84.5536 174.576C84.5536 173.97 84.5536 173.288 84.5536 172.682C84.5536 172.606 84.5536 172.606 84.6303 172.606C85.7039 172.606 86.7008 172.606 87.6978 172.606Z" fill="#EF3829"/>
<path d="M77.4216 165.03C77.4216 164.045 77.4216 163.061 77.4216 162.152C77.4216 162.076 77.4216 162 77.4983 162C78.1118 162 78.7253 162 79.4155 162C79.4922 162 79.4922 162 79.4922 162.076C79.4922 164.045 79.4922 165.939 79.4922 167.909C79.4922 167.985 79.4922 167.985 79.4155 167.985C78.802 167.985 78.1118 167.985 77.4983 167.985C77.4216 167.985 77.4216 167.985 77.4216 167.909C77.4216 167 77.4216 166.015 77.4216 165.03Z" fill="#EF3829"/>
<path d="M68.0658 187.303C68.0658 186.242 68.0658 185.106 68.0658 184.045C68.0658 183.969 68.0658 183.894 68.1425 183.894C68.6793 183.894 69.1394 183.894 69.6762 183.894C69.7529 183.894 69.7529 183.894 69.7529 183.969C69.7529 186.166 69.7529 188.363 69.7529 190.56C69.7529 190.636 69.7529 190.636 69.6762 190.636C69.1394 190.636 68.6793 190.636 68.1425 190.636C68.0658 190.636 68.0658 190.636 68.0658 190.56C68.0658 189.5 68.0658 188.363 68.0658 187.303Z" fill="black"/>
<path d="M67.8358 182C67.8358 181.394 68.2959 180.939 68.9094 180.939C69.5229 180.939 69.983 181.394 69.983 182C69.983 182.606 69.5229 183.061 68.9094 183.061C68.2959 183.061 67.8358 182.606 67.8358 182Z" fill="black"/>
</g>
<path d="M112.186 172.762C112.186 172.43 112.068 172.176 111.834 172C111.6 171.82 111.178 171.633 110.568 171.438C109.959 171.238 109.477 171.043 109.121 170.852C108.152 170.328 107.668 169.623 107.668 168.736C107.668 168.275 107.797 167.865 108.055 167.506C108.316 167.143 108.689 166.859 109.174 166.656C109.662 166.453 110.209 166.352 110.814 166.352C111.424 166.352 111.967 166.463 112.443 166.686C112.92 166.904 113.289 167.215 113.551 167.617C113.816 168.02 113.949 168.477 113.949 168.988H112.191C112.191 168.598 112.068 168.295 111.822 168.08C111.576 167.861 111.23 167.752 110.785 167.752C110.355 167.752 110.021 167.844 109.783 168.027C109.545 168.207 109.426 168.445 109.426 168.742C109.426 169.02 109.564 169.252 109.842 169.439C110.123 169.627 110.535 169.803 111.078 169.967C112.078 170.268 112.807 170.641 113.264 171.086C113.721 171.531 113.949 172.086 113.949 172.75C113.949 173.488 113.67 174.068 113.111 174.49C112.553 174.908 111.801 175.117 110.855 175.117C110.199 175.117 109.602 174.998 109.062 174.76C108.523 174.518 108.111 174.188 107.826 173.77C107.545 173.352 107.404 172.867 107.404 172.316H109.168C109.168 173.258 109.73 173.729 110.855 173.729C111.273 173.729 111.6 173.645 111.834 173.477C112.068 173.305 112.186 173.066 112.186 172.762ZM121.602 166.469V172.088C121.602 173.021 121.309 173.76 120.723 174.303C120.141 174.846 119.344 175.117 118.332 175.117C117.336 175.117 116.545 174.854 115.959 174.326C115.373 173.799 115.074 173.074 115.062 172.152V166.469H116.82V172.1C116.82 172.658 116.953 173.066 117.219 173.324C117.488 173.578 117.859 173.705 118.332 173.705C119.32 173.705 119.822 173.186 119.838 172.146V166.469H121.602ZM127.467 172.762C127.467 172.43 127.35 172.176 127.115 172C126.881 171.82 126.459 171.633 125.85 171.438C125.24 171.238 124.758 171.043 124.402 170.852C123.434 170.328 122.949 169.623 122.949 168.736C122.949 168.275 123.078 167.865 123.336 167.506C123.598 167.143 123.971 166.859 124.455 166.656C124.943 166.453 125.49 166.352 126.096 166.352C126.705 166.352 127.248 166.463 127.725 166.686C128.201 166.904 128.57 167.215 128.832 167.617C129.098 168.02 129.23 168.477 129.23 168.988H127.473C127.473 168.598 127.35 168.295 127.104 168.08C126.857 167.861 126.512 167.752 126.066 167.752C125.637 167.752 125.303 167.844 125.064 168.027C124.826 168.207 124.707 168.445 124.707 168.742C124.707 169.02 124.846 169.252 125.123 169.439C125.404 169.627 125.816 169.803 126.359 169.967C127.359 170.268 128.088 170.641 128.545 171.086C129.002 171.531 129.23 172.086 129.23 172.75C129.23 173.488 128.951 174.068 128.393 174.49C127.834 174.908 127.082 175.117 126.137 175.117C125.48 175.117 124.883 174.998 124.344 174.76C123.805 174.518 123.393 174.188 123.107 173.77C122.826 173.352 122.686 172.867 122.686 172.316H124.449C124.449 173.258 125.012 173.729 126.137 173.729C126.555 173.729 126.881 173.645 127.115 173.477C127.35 173.305 127.467 173.066 127.467 172.762ZM137.123 172.158C137.057 173.076 136.717 173.799 136.104 174.326C135.494 174.854 134.689 175.117 133.689 175.117C132.596 175.117 131.734 174.75 131.105 174.016C130.48 173.277 130.168 172.266 130.168 170.98V170.459C130.168 169.639 130.312 168.916 130.602 168.291C130.891 167.666 131.303 167.188 131.838 166.855C132.377 166.52 133.002 166.352 133.713 166.352C134.697 166.352 135.49 166.615 136.092 167.143C136.693 167.67 137.041 168.41 137.135 169.363H135.377C135.334 168.812 135.18 168.414 134.914 168.168C134.652 167.918 134.252 167.793 133.713 167.793C133.127 167.793 132.688 168.004 132.395 168.426C132.105 168.844 131.957 169.494 131.949 170.377V171.021C131.949 171.943 132.088 172.617 132.365 173.043C132.646 173.469 133.088 173.682 133.689 173.682C134.232 173.682 134.637 173.559 134.902 173.312C135.172 173.062 135.326 172.678 135.365 172.158H137.123ZM141.436 171.877H140.035V175H138.277V166.469H141.447C142.455 166.469 143.232 166.693 143.779 167.143C144.326 167.592 144.6 168.227 144.6 169.047C144.6 169.629 144.473 170.115 144.219 170.506C143.969 170.893 143.588 171.201 143.076 171.432L144.922 174.918V175H143.035L141.436 171.877ZM140.035 170.453H141.453C141.895 170.453 142.236 170.342 142.479 170.119C142.721 169.893 142.842 169.582 142.842 169.188C142.842 168.785 142.727 168.469 142.496 168.238C142.27 168.008 141.92 167.893 141.447 167.893H140.035V170.453ZM147.811 175H146.053V166.469H147.811V175ZM151.203 171.994V175H149.445V166.469H152.773C153.414 166.469 153.977 166.586 154.461 166.82C154.949 167.055 155.324 167.389 155.586 167.822C155.848 168.252 155.979 168.742 155.979 169.293C155.979 170.129 155.691 170.789 155.117 171.273C154.547 171.754 153.756 171.994 152.744 171.994H151.203ZM151.203 170.57H152.773C153.238 170.57 153.592 170.461 153.834 170.242C154.08 170.023 154.203 169.711 154.203 169.305C154.203 168.887 154.08 168.549 153.834 168.291C153.588 168.033 153.248 167.9 152.814 167.893H151.203V170.57ZM163.889 172.158C163.822 173.076 163.482 173.799 162.869 174.326C162.26 174.854 161.455 175.117 160.455 175.117C159.361 175.117 158.5 174.75 157.871 174.016C157.246 173.277 156.934 172.266 156.934 170.98V170.459C156.934 169.639 157.078 168.916 157.367 168.291C157.656 167.666 158.068 167.188 158.604 166.855C159.143 166.52 159.768 166.352 160.479 166.352C161.463 166.352 162.256 166.615 162.857 167.143C163.459 167.67 163.807 168.41 163.9 169.363H162.143C162.1 168.812 161.945 168.414 161.68 168.168C161.418 167.918 161.018 167.793 160.479 167.793C159.893 167.793 159.453 168.004 159.16 168.426C158.871 168.844 158.723 169.494 158.715 170.377V171.021C158.715 171.943 158.854 172.617 159.131 173.043C159.412 173.469 159.854 173.682 160.455 173.682C160.998 173.682 161.402 173.559 161.668 173.312C161.938 173.062 162.092 172.678 162.131 172.158H163.889ZM166.912 175H165.154V166.469H166.912V175ZM175.555 170.928C175.555 171.768 175.406 172.504 175.109 173.137C174.812 173.77 174.387 174.258 173.832 174.602C173.281 174.945 172.648 175.117 171.934 175.117C171.227 175.117 170.596 174.947 170.041 174.607C169.486 174.268 169.057 173.783 168.752 173.154C168.447 172.521 168.293 171.795 168.289 170.975V170.553C168.289 169.713 168.439 168.975 168.74 168.338C169.045 167.697 169.473 167.207 170.023 166.867C170.578 166.523 171.211 166.352 171.922 166.352C172.633 166.352 173.264 166.523 173.814 166.867C174.369 167.207 174.797 167.697 175.098 168.338C175.402 168.975 175.555 169.711 175.555 170.547V170.928ZM173.773 170.541C173.773 169.646 173.613 168.967 173.293 168.502C172.973 168.037 172.516 167.805 171.922 167.805C171.332 167.805 170.877 168.035 170.557 168.496C170.236 168.953 170.074 169.625 170.07 170.512V170.928C170.07 171.799 170.23 172.475 170.551 172.955C170.871 173.436 171.332 173.676 171.934 173.676C172.523 173.676 172.977 173.445 173.293 172.984C173.609 172.52 173.77 171.844 173.773 170.957V170.541ZM172.262 164.184H174.107L172.484 166H171.107L172.262 164.184ZM183.77 175H182.012L178.59 169.387V175H176.832V166.469H178.59L182.018 172.094V166.469H183.77V175ZM188.258 171.531C188.258 170.637 188.377 169.785 188.615 168.977C188.854 168.168 189.205 167.453 189.67 166.832C190.135 166.207 190.639 165.773 191.182 165.531L191.51 166.445C190.939 166.867 190.494 167.52 190.174 168.402C189.854 169.285 189.693 170.316 189.693 171.496V171.678C189.693 172.861 189.852 173.896 190.168 174.783C190.484 175.67 190.932 176.332 191.51 176.77L191.182 177.666C190.65 177.428 190.154 177.006 189.693 176.4C189.236 175.799 188.887 175.104 188.645 174.314C188.402 173.525 188.273 172.701 188.258 171.842V171.531ZM198.178 175H192.33V173.84L195.09 170.898C195.469 170.484 195.748 170.123 195.928 169.814C196.111 169.506 196.203 169.213 196.203 168.936C196.203 168.557 196.107 168.26 195.916 168.045C195.725 167.826 195.451 167.717 195.096 167.717C194.713 167.717 194.41 167.85 194.188 168.115C193.969 168.377 193.859 168.723 193.859 169.152H192.16C192.16 168.633 192.283 168.158 192.529 167.729C192.779 167.299 193.131 166.963 193.584 166.721C194.037 166.475 194.551 166.352 195.125 166.352C196.004 166.352 196.686 166.562 197.17 166.984C197.658 167.406 197.902 168.002 197.902 168.771C197.902 169.193 197.793 169.623 197.574 170.061C197.355 170.498 196.98 171.008 196.449 171.59L194.51 173.635H198.178V175ZM204.23 171.789H205.197V173.154H204.23V175H202.537V173.154H199.039L198.963 172.088L202.52 166.469H204.23V171.789ZM200.65 171.789H202.537V168.777L202.426 168.971L200.65 171.789ZM211.578 166.469L213.77 172.656L215.949 166.469H218.258V175H216.494V172.668L216.67 168.643L214.367 175H213.16L210.863 168.648L211.039 172.668V175H209.281V166.469H211.578ZM224.926 171.303H221.551V173.588H225.512V175H219.793V166.469H225.5V167.893H221.551V169.926H224.926V171.303ZM230.967 172.762C230.967 172.43 230.85 172.176 230.615 172C230.381 171.82 229.959 171.633 229.35 171.438C228.74 171.238 228.258 171.043 227.902 170.852C226.934 170.328 226.449 169.623 226.449 168.736C226.449 168.275 226.578 167.865 226.836 167.506C227.098 167.143 227.471 166.859 227.955 166.656C228.443 166.453 228.99 166.352 229.596 166.352C230.205 166.352 230.748 166.463 231.225 166.686C231.701 166.904 232.07 167.215 232.332 167.617C232.598 168.02 232.73 168.477 232.73 168.988H230.973C230.973 168.598 230.85 168.295 230.604 168.08C230.357 167.861 230.012 167.752 229.566 167.752C229.137 167.752 228.803 167.844 228.564 168.027C228.326 168.207 228.207 168.445 228.207 168.742C228.207 169.02 228.346 169.252 228.623 169.439C228.904 169.627 229.316 169.803 229.859 169.967C230.859 170.268 231.588 170.641 232.045 171.086C232.502 171.531 232.73 172.086 232.73 172.75C232.73 173.488 232.451 174.068 231.893 174.49C231.334 174.908 230.582 175.117 229.637 175.117C228.98 175.117 228.383 174.998 227.844 174.76C227.305 174.518 226.893 174.188 226.607 173.77C226.326 173.352 226.186 172.867 226.186 172.316H227.949C227.949 173.258 228.512 173.729 229.637 173.729C230.055 173.729 230.381 173.645 230.615 173.477C230.85 173.305 230.967 173.066 230.967 172.762ZM239.059 171.303H235.684V173.588H239.645V175H233.926V166.469H239.633V167.893H235.684V169.926H239.059V171.303ZM245.1 172.762C245.1 172.43 244.982 172.176 244.748 172C244.514 171.82 244.092 171.633 243.482 171.438C242.873 171.238 242.391 171.043 242.035 170.852C241.066 170.328 240.582 169.623 240.582 168.736C240.582 168.275 240.711 167.865 240.969 167.506C241.23 167.143 241.604 166.859 242.088 166.656C242.576 166.453 243.123 166.352 243.729 166.352C244.338 166.352 244.881 166.463 245.357 166.686C245.834 166.904 246.203 167.215 246.465 167.617C246.73 168.02 246.863 168.477 246.863 168.988H245.105C245.105 168.598 244.982 168.295 244.736 168.08C244.49 167.861 244.145 167.752 243.699 167.752C243.27 167.752 242.936 167.844 242.697 168.027C242.459 168.207 242.34 168.445 242.34 168.742C242.34 169.02 242.479 169.252 242.756 169.439C243.037 169.627 243.449 169.803 243.992 169.967C244.992 170.268 245.721 170.641 246.178 171.086C246.635 171.531 246.863 172.086 246.863 172.75C246.863 173.488 246.584 174.068 246.025 174.49C245.467 174.908 244.715 175.117 243.77 175.117C243.113 175.117 242.516 174.998 241.977 174.76C241.438 174.518 241.025 174.188 240.74 173.77C240.459 173.352 240.318 172.867 240.318 172.316H242.082C242.082 173.258 242.645 173.729 243.77 173.729C244.188 173.729 244.514 173.645 244.748 173.477C244.982 173.305 245.1 173.066 245.1 172.762ZM250.865 171.666C250.865 172.549 250.738 173.398 250.484 174.215C250.23 175.031 249.865 175.752 249.389 176.377C248.912 177.002 248.402 177.432 247.859 177.666L247.531 176.77C248.086 176.352 248.523 175.707 248.844 174.836C249.164 173.965 249.33 172.963 249.342 171.83V171.52C249.342 170.352 249.182 169.322 248.861 168.432C248.545 167.541 248.102 166.873 247.531 166.428L247.859 165.531C248.391 165.762 248.891 166.18 249.359 166.785C249.832 167.391 250.197 168.096 250.455 168.9C250.717 169.705 250.854 170.539 250.865 171.402V171.666ZM258.441 170.424H260.82V171.449H258.441V174.145H257.352V171.449H254.973V170.424H257.352V167.934H258.441V170.424ZM265.508 170.723L265.941 166.469H270.312V167.471H266.861L266.604 169.797C267.021 169.551 267.496 169.428 268.027 169.428C268.805 169.428 269.422 169.686 269.879 170.201C270.336 170.713 270.564 171.406 270.564 172.281C270.564 173.16 270.326 173.854 269.85 174.361C269.377 174.865 268.715 175.117 267.863 175.117C267.109 175.117 266.494 174.908 266.018 174.49C265.541 174.072 265.27 173.494 265.203 172.756H266.229C266.295 173.244 266.469 173.613 266.75 173.863C267.031 174.109 267.402 174.232 267.863 174.232C268.367 174.232 268.762 174.061 269.047 173.717C269.336 173.373 269.48 172.898 269.48 172.293C269.48 171.723 269.324 171.266 269.012 170.922C268.703 170.574 268.291 170.4 267.775 170.4C267.303 170.4 266.932 170.504 266.662 170.711L266.375 170.945L265.508 170.723ZM281.305 173.881C281.016 174.295 280.611 174.605 280.092 174.812C279.576 175.016 278.975 175.117 278.287 175.117C277.592 175.117 276.975 174.955 276.436 174.631C275.896 174.303 275.479 173.838 275.182 173.236C274.889 172.635 274.738 171.938 274.73 171.145V170.4C274.73 169.115 275.029 168.119 275.627 167.412C276.229 166.705 277.072 166.352 278.158 166.352C279.049 166.352 279.766 166.58 280.309 167.037C280.852 167.49 281.184 168.135 281.305 168.971H280.18C279.969 167.842 279.297 167.277 278.164 167.277C277.41 167.277 276.838 167.543 276.447 168.074C276.061 168.602 275.865 169.367 275.861 170.371V171.068C275.861 172.025 276.08 172.787 276.518 173.354C276.955 173.916 277.547 174.197 278.293 174.197C278.715 174.197 279.084 174.15 279.4 174.057C279.717 173.963 279.979 173.805 280.186 173.582V171.666H278.211V170.752H281.305V173.881ZM283.186 175V166.469H285.975C286.9 166.469 287.596 166.66 288.061 167.043C288.529 167.426 288.764 167.992 288.764 168.742C288.764 169.141 288.65 169.494 288.424 169.803C288.197 170.107 287.889 170.344 287.498 170.512C287.959 170.641 288.322 170.887 288.588 171.25C288.857 171.609 288.992 172.039 288.992 172.539C288.992 173.305 288.744 173.906 288.248 174.344C287.752 174.781 287.051 175 286.145 175H283.186ZM284.311 171.01V174.08H286.168C286.691 174.08 287.104 173.945 287.404 173.676C287.709 173.402 287.861 173.027 287.861 172.551C287.861 171.523 287.303 171.01 286.186 171.01H284.311ZM284.311 170.107H286.01C286.502 170.107 286.895 169.984 287.188 169.738C287.484 169.492 287.633 169.158 287.633 168.736C287.633 168.268 287.496 167.928 287.223 167.717C286.949 167.502 286.533 167.395 285.975 167.395H284.311V170.107Z" fill="#222222"/>
<path d="M109.115 187.66V191H107.99V182.469H111.137C112.07 182.469 112.801 182.707 113.328 183.184C113.859 183.66 114.125 184.291 114.125 185.076C114.125 185.904 113.865 186.543 113.346 186.992C112.83 187.438 112.09 187.66 111.125 187.66H109.115ZM109.115 186.74H111.137C111.738 186.74 112.199 186.6 112.52 186.318C112.84 186.033 113 185.623 113 185.088C113 184.58 112.84 184.174 112.52 183.869C112.199 183.564 111.76 183.406 111.201 183.395H109.115V186.74ZM119.463 188.773H115.889L115.086 191H113.926L117.184 182.469H118.168L121.432 191H120.277L119.463 188.773ZM116.229 187.848H119.129L117.676 183.857L116.229 187.848ZM125.709 187.549H123.705V191H122.574V182.469H125.398C126.359 182.469 127.098 182.688 127.613 183.125C128.133 183.562 128.393 184.199 128.393 185.035C128.393 185.566 128.248 186.029 127.959 186.424C127.674 186.818 127.275 187.113 126.764 187.309L128.768 190.93V191H127.561L125.709 187.549ZM123.705 186.629H125.434C125.992 186.629 126.436 186.484 126.764 186.195C127.096 185.906 127.262 185.52 127.262 185.035C127.262 184.508 127.104 184.104 126.787 183.822C126.475 183.541 126.021 183.398 125.428 183.395H123.705V186.629ZM134.686 188.773H131.111L130.309 191H129.148L132.406 182.469H133.391L136.654 191H135.5L134.686 188.773ZM131.451 187.848H134.352L132.898 183.857L131.451 187.848ZM147.055 188.293C146.949 189.195 146.615 189.893 146.053 190.385C145.494 190.873 144.75 191.117 143.82 191.117C142.812 191.117 142.004 190.756 141.395 190.033C140.789 189.311 140.486 188.344 140.486 187.133V186.312C140.486 185.52 140.627 184.822 140.908 184.221C141.193 183.619 141.596 183.158 142.115 182.838C142.635 182.514 143.236 182.352 143.92 182.352C144.826 182.352 145.553 182.605 146.1 183.113C146.646 183.617 146.965 184.316 147.055 185.211H145.924C145.826 184.531 145.613 184.039 145.285 183.734C144.961 183.43 144.506 183.277 143.92 183.277C143.201 183.277 142.637 183.543 142.227 184.074C141.82 184.605 141.617 185.361 141.617 186.342V187.168C141.617 188.094 141.811 188.83 142.197 189.377C142.584 189.924 143.125 190.197 143.82 190.197C144.445 190.197 144.924 190.057 145.256 189.775C145.592 189.49 145.814 188.996 145.924 188.293H147.055ZM149.727 190.08H153.77V191H148.596V182.469H149.727V190.08ZM159.881 188.773H156.307L155.504 191H154.344L157.602 182.469H158.586L161.85 191H160.695L159.881 188.773ZM156.646 187.848H159.547L158.094 183.857L156.646 187.848ZM166.127 187.549H164.123V191H162.992V182.469H165.816C166.777 182.469 167.516 182.688 168.031 183.125C168.551 183.562 168.811 184.199 168.811 185.035C168.811 185.566 168.666 186.029 168.377 186.424C168.092 186.818 167.693 187.113 167.182 187.309L169.186 190.93V191H167.979L166.127 187.549ZM164.123 186.629H165.852C166.41 186.629 166.854 186.484 167.182 186.195C167.514 185.906 167.68 185.52 167.68 185.035C167.68 184.508 167.521 184.104 167.205 183.822C166.893 183.541 166.439 183.398 165.846 183.395H164.123V186.629ZM176.955 187.01C176.955 187.846 176.814 188.576 176.533 189.201C176.252 189.822 175.854 190.297 175.338 190.625C174.822 190.953 174.221 191.117 173.533 191.117C172.861 191.117 172.266 190.953 171.746 190.625C171.227 190.293 170.822 189.822 170.533 189.213C170.248 188.6 170.102 187.891 170.094 187.086V186.471C170.094 185.65 170.236 184.926 170.521 184.297C170.807 183.668 171.209 183.188 171.729 182.855C172.252 182.52 172.85 182.352 173.521 182.352C174.205 182.352 174.807 182.518 175.326 182.85C175.85 183.178 176.252 183.656 176.533 184.285C176.814 184.91 176.955 185.639 176.955 186.471V187.01ZM175.836 186.459C175.836 185.447 175.633 184.672 175.227 184.133C174.82 183.59 174.252 183.318 173.521 183.318C172.811 183.318 172.25 183.59 171.84 184.133C171.434 184.672 171.225 185.422 171.213 186.383V187.01C171.213 187.99 171.418 188.762 171.828 189.324C172.242 189.883 172.811 190.162 173.533 190.162C174.26 190.162 174.822 189.898 175.221 189.371C175.619 188.84 175.824 188.08 175.836 187.092V186.459ZM184.443 189.506L186.881 182.469H188.111L184.947 191H183.951L180.793 182.469H182.018L184.443 189.506ZM190.467 191H189.342V182.469H190.467V191ZM192.529 191V182.469H194.938C195.68 182.469 196.336 182.633 196.906 182.961C197.477 183.289 197.916 183.756 198.225 184.361C198.537 184.967 198.695 185.662 198.699 186.447V186.992C198.699 187.797 198.543 188.502 198.23 189.107C197.922 189.713 197.479 190.178 196.9 190.502C196.326 190.826 195.656 190.992 194.891 191H192.529ZM193.654 183.395V190.08H194.838C195.705 190.08 196.379 189.811 196.859 189.271C197.344 188.732 197.586 187.965 197.586 186.969V186.471C197.586 185.502 197.357 184.75 196.9 184.215C196.447 183.676 195.803 183.402 194.967 183.395H193.654ZM205.227 187.057H201.529V190.08H205.824V191H200.404V182.469H205.766V183.395H201.529V186.137H205.227V187.057ZM213.787 187.01C213.787 187.846 213.646 188.576 213.365 189.201C213.084 189.822 212.686 190.297 212.17 190.625C211.654 190.953 211.053 191.117 210.365 191.117C209.693 191.117 209.098 190.953 208.578 190.625C208.059 190.293 207.654 189.822 207.365 189.213C207.08 188.6 206.934 187.891 206.926 187.086V186.471C206.926 185.65 207.068 184.926 207.354 184.297C207.639 183.668 208.041 183.188 208.561 182.855C209.084 182.52 209.682 182.352 210.354 182.352C211.037 182.352 211.639 182.518 212.158 182.85C212.682 183.178 213.084 183.656 213.365 184.285C213.646 184.91 213.787 185.639 213.787 186.471V187.01ZM212.668 186.459C212.668 185.447 212.465 184.672 212.059 184.133C211.652 183.59 211.084 183.318 210.354 183.318C209.643 183.318 209.082 183.59 208.672 184.133C208.266 184.672 208.057 185.422 208.045 186.383V187.01C208.045 187.99 208.25 188.762 208.66 189.324C209.074 189.883 209.643 190.162 210.365 190.162C211.092 190.162 211.654 189.898 212.053 189.371C212.451 188.84 212.656 188.08 212.668 187.092V186.459Z" fill="#222222"/>
<defs>
<filter id="filter0_d" x="183.75" y="32.1562" width="17.9375" height="18.5625" filterUnits="userSpaceOnUse" color-interpolation-filters="sRGB">
<feFlood flood-opacity="0" result="BackgroundImageFix"/>
<feColorMatrix in="SourceAlpha" type="matrix" values="0 0 0 0 0 0 0 0 0 0 0 0 0 0 0 0 0 0 127 0"/>
<feOffset dx="2" dy="2"/>
<feColorMatrix type="matrix" values="0 0 0 0 0 0 0 0 0 0 0 0 0 0 0 0 0 0 0.15 0"/>
<feBlend mode="normal" in2="BackgroundImageFix" result="effect1_dropShadow"/>
<feBlend mode="normal" in="SourceGraphic" in2="effect1_dropShadow" result="shape"/>
</filter>
<filter id="filter1_d" x="157.75" y="100.156" width="17.9375" height="18.5625" filterUnits="userSpaceOnUse" color-interpolation-filters="sRGB">
<feFlood flood-opacity="0" result="BackgroundImageFix"/>
<feColorMatrix in="SourceAlpha" type="matrix" values="0 0 0 0 0 0 0 0 0 0 0 0 0 0 0 0 0 0 127 0"/>
<feOffset dx="2" dy="2"/>
<feColorMatrix type="matrix" values="0 0 0 0 0 0 0 0 0 0 0 0 0 0 0 0 0 0 0.15 0"/>
<feBlend mode="normal" in2="BackgroundImageFix" result="effect1_dropShadow"/>
<feBlend mode="normal" in="SourceGraphic" in2="effect1_dropShadow" result="shape"/>
</filter>
<clipPath id="clip0">
<rect width="50" height="28.7879" fill="white" transform="translate(41 162)"/>
</clipPath>
</defs>
</svg>
