<svg width="331" height="224" viewBox="0 0 331 224" fill="none" xmlns="http://www.w3.org/2000/svg">
<rect width="331" height="223.23" fill="#F5F5F5"/>
<path opacity="0.2" d="M81.5595 39.6015C82.5968 41.7222 84.3158 43.4334 86.4412 44.461C86.5967 44.5347 86.7687 44.5666 86.9403 44.5537C87.1119 44.5407 87.2771 44.4832 87.4198 44.387L90.5492 42.3002C90.6877 42.2079 90.8469 42.1516 91.0126 42.1364C91.1782 42.1212 91.3451 42.1475 91.498 42.213L97.3526 44.7222C97.5515 44.8067 97.7175 44.9535 97.8257 45.1405C97.9339 45.3276 97.9783 45.5447 97.9524 45.7593C97.7673 47.2073 97.0608 48.5382 95.9652 49.5028C94.8695 50.4674 93.4598 50.9996 92 50.9996C87.4913 50.9996 83.1673 49.2086 79.9792 46.0204C76.7911 42.8323 75 38.5083 75 33.9996C75.0001 32.5399 75.5322 31.1301 76.4969 30.0345C77.4615 28.9388 78.7924 28.2323 80.2404 28.0473C80.4549 28.0213 80.672 28.0658 80.8591 28.1739C81.0461 28.2821 81.193 28.4482 81.2775 28.647L83.7888 34.5068C83.8537 34.6583 83.8802 34.8236 83.8658 34.9879C83.8514 35.1522 83.7967 35.3103 83.7064 35.4483L81.6268 38.6258C81.5322 38.7687 81.4762 38.9338 81.4644 39.1048C81.4526 39.2758 81.4854 39.447 81.5595 39.6015Z" fill="#EF3829"/>
<path d="M81.5595 39.6015C82.5968 41.7222 84.3158 43.4334 86.4412 44.461C86.5967 44.5347 86.7687 44.5666 86.9403 44.5537C87.1119 44.5407 87.2771 44.4832 87.4198 44.387L90.5492 42.3002C90.6877 42.2079 90.8469 42.1516 91.0126 42.1364C91.1782 42.1212 91.3451 42.1475 91.498 42.213L97.3526 44.7222C97.5515 44.8067 97.7175 44.9535 97.8257 45.1405C97.9339 45.3276 97.9783 45.5447 97.9524 45.7593C97.7673 47.2073 97.0608 48.5382 95.9652 49.5028C94.8695 50.4674 93.4598 50.9996 92 50.9996C87.4913 50.9996 83.1673 49.2086 79.9792 46.0204C76.7911 42.8323 75 38.5083 75 33.9996C75.0001 32.5399 75.5322 31.1301 76.4969 30.0345C77.4615 28.9388 78.7924 28.2323 80.2404 28.0473C80.4549 28.0213 80.672 28.0658 80.8591 28.1739C81.0461 28.2821 81.193 28.4482 81.2775 28.647L83.7888 34.5068C83.8537 34.6583 83.8802 34.8236 83.8658 34.9879C83.8514 35.1522 83.7967 35.3103 83.7064 35.4483L81.6268 38.6258C81.5322 38.7687 81.4762 38.9338 81.4644 39.1048C81.4526 39.2758 81.4854 39.447 81.5595 39.6015V39.6015Z" stroke="#EF3829" stroke-width="2" stroke-linecap="round" stroke-linejoin="round"/>
<path d="M113.09 49H107.963V27.6719H113.09V49ZM120.606 45.0449H129.556V49H115.464V27.6719H120.606V45.0449ZM136.002 49H130.875V27.6719H136.002V49ZM145.129 27.6719L149.89 42.5107L154.636 27.6719H161.404V49H156.248V44.0195L156.746 33.8242L151.589 49H148.191L143.02 33.8096L143.518 44.0195V49H138.377V27.6719H145.129ZM168.964 49H163.837V27.6719H168.964V49ZM187.642 31.6416H181.24V49H176.099V31.6416H169.814V27.6719H187.642V31.6416ZM198.981 45.0156H191.935L190.704 49H185.211L193.033 27.6719H197.867L205.748 49H200.226L198.981 45.0156ZM193.165 41.0459H197.75L195.45 33.6484L193.165 41.0459ZM206.116 49V27.6719H212.986C214.871 27.6719 216.565 28.1016 218.069 28.9609C219.573 29.8105 220.745 31.0166 221.584 32.5791C222.434 34.1318 222.864 35.875 222.873 37.8086V38.79C222.873 40.7432 222.458 42.4961 221.628 44.0488C220.808 45.5918 219.646 46.8027 218.142 47.6816C216.648 48.5508 214.978 48.9902 213.132 49H206.116ZM211.257 31.6416V45.0449H213.044C214.519 45.0449 215.652 44.5225 216.443 43.4775C217.234 42.4229 217.629 40.8604 217.629 38.79V37.8672C217.629 35.8066 217.234 34.2539 216.443 33.209C215.652 32.1641 214.499 31.6416 212.986 31.6416H211.257ZM242.372 38.7754C242.372 40.8555 241.986 42.6963 241.214 44.2979C240.443 45.8994 239.344 47.1348 237.919 48.0039C236.503 48.8633 234.886 49.293 233.07 49.293C231.254 49.293 229.642 48.8779 228.236 48.0479C226.83 47.208 225.731 46.0117 224.94 44.459C224.159 42.9062 223.749 41.124 223.71 39.1123V37.9111C223.71 35.8213 224.09 33.9805 224.852 32.3887C225.624 30.7871 226.722 29.5518 228.148 28.6826C229.584 27.8135 231.214 27.3789 233.041 27.3789C234.847 27.3789 236.459 27.8086 237.875 28.668C239.291 29.5273 240.389 30.7529 241.171 32.3447C241.962 33.9268 242.362 35.7432 242.372 37.7939V38.7754ZM237.142 37.8818C237.142 35.7627 236.786 34.1562 236.073 33.0625C235.37 31.959 234.359 31.4072 233.041 31.4072C230.463 31.4072 229.1 33.3408 228.954 37.208L228.939 38.7754C228.939 40.8652 229.286 42.4717 229.979 43.5947C230.672 44.7178 231.703 45.2793 233.07 45.2793C234.369 45.2793 235.37 44.7275 236.073 43.624C236.776 42.5205 237.132 40.9336 237.142 38.8633V37.8818ZM254.824 43.3311C254.824 42.5791 254.555 41.9932 254.018 41.5732C253.491 41.1533 252.558 40.7188 251.221 40.2695C249.883 39.8203 248.789 39.3857 247.939 38.9658C245.176 37.6084 243.794 35.7432 243.794 33.3701C243.794 32.1885 244.136 31.1484 244.819 30.25C245.512 29.3418 246.489 28.6387 247.749 28.1406C249.009 27.6328 250.425 27.3789 251.997 27.3789C253.53 27.3789 254.902 27.6523 256.113 28.1992C257.334 28.7461 258.281 29.5273 258.955 30.543C259.629 31.5488 259.966 32.7012 259.966 34H254.839C254.839 33.1309 254.57 32.457 254.033 31.9785C253.506 31.5 252.788 31.2607 251.88 31.2607C250.962 31.2607 250.234 31.4658 249.697 31.876C249.17 32.2764 248.906 32.7891 248.906 33.4141C248.906 33.9609 249.199 34.459 249.785 34.9082C250.371 35.3477 251.401 35.8066 252.876 36.2852C254.35 36.7539 255.561 37.2617 256.509 37.8086C258.813 39.1367 259.966 40.9678 259.966 43.3018C259.966 45.167 259.262 46.6318 257.856 47.6963C256.45 48.7607 254.521 49.293 252.07 49.293C250.342 49.293 248.774 48.9854 247.368 48.3701C245.971 47.7451 244.917 46.8955 244.204 45.8213C243.501 44.7373 243.149 43.4922 243.149 42.0859H248.305C248.305 43.2285 248.598 44.0732 249.184 44.6201C249.78 45.1572 250.742 45.4258 252.07 45.4258C252.92 45.4258 253.589 45.2451 254.077 44.8838C254.575 44.5127 254.824 43.9951 254.824 43.3311Z" fill="#EF3829"/>
<path d="M108.851 57.0469L112.104 65.168L115.358 57.0469H117.061V67H115.748V63.124L115.871 58.9404L112.604 67H111.599L108.338 58.9609L108.468 63.124V67H107.155V57.0469H108.851ZM122.186 67H120.874V57.0469H122.186V67ZM133.642 67H132.322L127.312 59.3301V67H125.992V57.0469H127.312L132.336 64.751V57.0469H133.642V67ZM144.38 57.0469V63.8145C144.375 64.7533 144.079 65.5212 143.491 66.1182C142.908 66.7152 142.115 67.0501 141.112 67.123L140.763 67.1367C139.674 67.1367 138.806 66.8428 138.159 66.2549C137.512 65.667 137.184 64.8581 137.175 63.8281V57.0469H138.473V63.7871C138.473 64.5072 138.672 65.0677 139.068 65.4688C139.465 65.8652 140.03 66.0635 140.763 66.0635C141.506 66.0635 142.074 65.8652 142.466 65.4688C142.862 65.0723 143.06 64.514 143.06 63.7939V57.0469H144.38ZM154.728 58.127H151.529V67H150.223V58.127H147.031V57.0469H154.728V58.127ZM165.069 62.3447C165.069 63.32 164.905 64.1722 164.577 64.9014C164.249 65.626 163.784 66.1797 163.183 66.5625C162.581 66.9453 161.879 67.1367 161.077 67.1367C160.293 67.1367 159.598 66.9453 158.992 66.5625C158.386 66.1751 157.914 65.626 157.577 64.915C157.244 64.1995 157.074 63.3724 157.064 62.4336V61.7158C157.064 60.7588 157.231 59.9134 157.563 59.1797C157.896 58.446 158.366 57.8854 158.972 57.498C159.582 57.1061 160.28 56.9102 161.063 56.9102C161.861 56.9102 162.563 57.1038 163.169 57.4912C163.78 57.874 164.249 58.4323 164.577 59.166C164.905 59.8952 165.069 60.7451 165.069 61.7158V62.3447ZM163.764 61.7021C163.764 60.5218 163.527 59.6172 163.053 58.9883C162.579 58.3548 161.916 58.0381 161.063 58.0381C160.234 58.0381 159.58 58.3548 159.102 58.9883C158.628 59.6172 158.384 60.4922 158.37 61.6133V62.3447C158.37 63.4886 158.609 64.3887 159.088 65.0449C159.571 65.6966 160.234 66.0225 161.077 66.0225C161.925 66.0225 162.581 65.7148 163.046 65.0996C163.511 64.4798 163.75 63.5934 163.764 62.4404V61.7021ZM171.371 62.5635C170.245 62.2399 169.425 61.8434 168.91 61.374C168.399 60.9001 168.144 60.3167 168.144 59.624C168.144 58.8402 168.456 58.193 169.081 57.6826C169.71 57.1676 170.525 56.9102 171.528 56.9102C172.212 56.9102 172.82 57.0423 173.353 57.3066C173.891 57.571 174.306 57.9355 174.597 58.4004C174.893 58.8652 175.042 59.3734 175.042 59.9248H173.722C173.722 59.3232 173.531 58.8516 173.148 58.5098C172.765 58.1634 172.225 57.9902 171.528 57.9902C170.881 57.9902 170.375 58.1338 170.01 58.4209C169.65 58.7035 169.47 59.0977 169.47 59.6035C169.47 60.0091 169.641 60.3532 169.983 60.6357C170.329 60.9137 170.915 61.1689 171.74 61.4014C172.569 61.6338 173.216 61.8913 173.681 62.1738C174.151 62.4518 174.497 62.7777 174.72 63.1514C174.948 63.5251 175.062 63.9648 175.062 64.4707C175.062 65.2773 174.748 65.9245 174.119 66.4121C173.49 66.8952 172.649 67.1367 171.596 67.1367C170.913 67.1367 170.275 67.0068 169.682 66.7471C169.09 66.4827 168.632 66.1227 168.308 65.667C167.989 65.2113 167.83 64.694 167.83 64.1152H169.149C169.149 64.7168 169.37 65.193 169.812 65.5439C170.259 65.8903 170.853 66.0635 171.596 66.0635C172.289 66.0635 172.82 65.9222 173.189 65.6396C173.558 65.3571 173.743 64.972 173.743 64.4844C173.743 63.9967 173.572 63.6208 173.23 63.3564C172.888 63.0876 172.268 62.8232 171.371 62.5635ZM188.519 64.4023H184.349L183.413 67H182.059L185.86 57.0469H187.009L190.816 67H189.47L188.519 64.4023ZM184.746 63.3223H188.13L186.434 58.667L184.746 63.3223ZM205.032 58.127H201.833V67H200.527V58.127H197.335V57.0469H205.032V58.127ZM215.374 62.3447C215.374 63.32 215.21 64.1722 214.881 64.9014C214.553 65.626 214.088 66.1797 213.487 66.5625C212.885 66.9453 212.184 67.1367 211.381 67.1367C210.598 67.1367 209.903 66.9453 209.296 66.5625C208.69 66.1751 208.219 65.626 207.881 64.915C207.549 64.1995 207.378 63.3724 207.369 62.4336V61.7158C207.369 60.7588 207.535 59.9134 207.868 59.1797C208.2 58.446 208.67 57.8854 209.276 57.498C209.887 57.1061 210.584 56.9102 211.368 56.9102C212.165 56.9102 212.867 57.1038 213.473 57.4912C214.084 57.874 214.553 58.4323 214.881 59.166C215.21 59.8952 215.374 60.7451 215.374 61.7158V62.3447ZM214.068 61.7021C214.068 60.5218 213.831 59.6172 213.357 58.9883C212.883 58.3548 212.22 58.0381 211.368 58.0381C210.538 58.0381 209.884 58.3548 209.406 58.9883C208.932 59.6172 208.688 60.4922 208.674 61.6133V62.3447C208.674 63.4886 208.914 64.3887 209.392 65.0449C209.875 65.6966 210.538 66.0225 211.381 66.0225C212.229 66.0225 212.885 65.7148 213.35 65.0996C213.815 64.4798 214.054 63.5934 214.068 62.4404V61.7021ZM218.742 67V57.0469H221.552C222.418 57.0469 223.183 57.2383 223.849 57.6211C224.514 58.0039 225.027 58.5485 225.387 59.2549C225.752 59.9613 225.936 60.7725 225.941 61.6885V62.3242C225.941 63.263 225.758 64.0856 225.394 64.792C225.034 65.4984 224.516 66.0407 223.842 66.4189C223.172 66.7972 222.39 66.9909 221.497 67H218.742ZM220.055 58.127V65.9268H221.436C222.447 65.9268 223.234 65.6123 223.794 64.9834C224.359 64.3545 224.642 63.459 224.642 62.2969V61.7158C224.642 60.5856 224.375 59.7083 223.842 59.084C223.313 58.4551 222.561 58.1361 221.586 58.127H220.055ZM236.986 62.3447C236.986 63.32 236.822 64.1722 236.494 64.9014C236.166 65.626 235.701 66.1797 235.099 66.5625C234.498 66.9453 233.796 67.1367 232.994 67.1367C232.21 67.1367 231.515 66.9453 230.909 66.5625C230.303 66.1751 229.831 65.626 229.494 64.915C229.161 64.1995 228.99 63.3724 228.981 62.4336V61.7158C228.981 60.7588 229.148 59.9134 229.48 59.1797C229.813 58.446 230.282 57.8854 230.888 57.498C231.499 57.1061 232.196 56.9102 232.98 56.9102C233.778 56.9102 234.48 57.1038 235.086 57.4912C235.696 57.874 236.166 58.4323 236.494 59.166C236.822 59.8952 236.986 60.7451 236.986 61.7158V62.3447ZM235.68 61.7021C235.68 60.5218 235.443 59.6172 234.97 58.9883C234.496 58.3548 233.832 58.0381 232.98 58.0381C232.151 58.0381 231.497 58.3548 231.018 58.9883C230.544 59.6172 230.301 60.4922 230.287 61.6133V62.3447C230.287 63.4886 230.526 64.3887 231.005 65.0449C231.488 65.6966 232.151 66.0225 232.994 66.0225C233.842 66.0225 234.498 65.7148 234.963 65.0996C235.428 64.4798 235.667 63.5934 235.68 62.4404V61.7021ZM243.288 62.5635C242.162 62.2399 241.342 61.8434 240.827 61.374C240.316 60.9001 240.061 60.3167 240.061 59.624C240.061 58.8402 240.373 58.193 240.997 57.6826C241.626 57.1676 242.442 56.9102 243.445 56.9102C244.128 56.9102 244.737 57.0423 245.27 57.3066C245.808 57.571 246.222 57.9355 246.514 58.4004C246.81 58.8652 246.958 59.3734 246.958 59.9248H245.639C245.639 59.3232 245.448 58.8516 245.065 58.5098C244.682 58.1634 244.142 57.9902 243.445 57.9902C242.798 57.9902 242.292 58.1338 241.927 58.4209C241.567 58.7035 241.387 59.0977 241.387 59.6035C241.387 60.0091 241.558 60.3532 241.9 60.6357C242.246 60.9137 242.832 61.1689 243.657 61.4014C244.486 61.6338 245.133 61.8913 245.598 62.1738C246.067 62.4518 246.414 62.7777 246.637 63.1514C246.865 63.5251 246.979 63.9648 246.979 64.4707C246.979 65.2773 246.664 65.9245 246.036 66.4121C245.407 66.8952 244.566 67.1367 243.513 67.1367C242.829 67.1367 242.191 67.0068 241.599 66.7471C241.007 66.4827 240.549 66.1227 240.225 65.667C239.906 65.2113 239.746 64.694 239.746 64.1152H241.066C241.066 64.7168 241.287 65.193 241.729 65.5439C242.176 65.8903 242.77 66.0635 243.513 66.0635C244.206 66.0635 244.737 65.9222 245.106 65.6396C245.475 65.3571 245.66 64.972 245.66 64.4844C245.66 63.9967 245.489 63.6208 245.147 63.3564C244.805 63.0876 244.185 62.8232 243.288 62.5635Z" fill="#222222"/>
<path d="M49.7773 104.656L50.8203 95.9375H60.793V99.0078H54.0312L53.6445 102.395C53.9258 102.23 54.293 102.086 54.7461 101.961C55.207 101.836 55.6562 101.773 56.0938 101.773C57.7891 101.773 59.0898 102.277 59.9961 103.285C60.9102 104.285 61.3672 105.691 61.3672 107.504C61.3672 108.598 61.1211 109.59 60.6289 110.48C60.1445 111.363 59.4609 112.043 58.5781 112.52C57.6953 112.996 56.6523 113.234 55.4492 113.234C54.3789 113.234 53.375 113.016 52.4375 112.578C51.5 112.133 50.7656 111.527 50.2344 110.762C49.7031 109.988 49.4414 109.117 49.4492 108.148H53.4102C53.4492 108.773 53.6484 109.27 54.0078 109.637C54.3672 110.004 54.8398 110.188 55.4258 110.188C56.7539 110.188 57.418 109.203 57.418 107.234C57.418 105.414 56.6055 104.504 54.9805 104.504C54.0586 104.504 53.3711 104.801 52.918 105.395L49.7773 104.656ZM75.2891 106.027C75.2891 108.332 74.7695 110.109 73.7305 111.359C72.6992 112.609 71.2422 113.234 69.3594 113.234C67.4609 113.234 65.9922 112.605 64.9531 111.348C63.9141 110.09 63.3945 108.316 63.3945 106.027V102.91C63.3945 100.605 63.9102 98.8281 64.9414 97.5781C65.9805 96.3281 67.4453 95.7031 69.3359 95.7031C71.2266 95.7031 72.6914 96.332 73.7305 97.5898C74.7695 98.8477 75.2891 100.625 75.2891 102.922V106.027ZM71.3398 102.406C71.3398 101.18 71.1797 100.266 70.8594 99.6641C70.5391 99.0547 70.0312 98.75 69.3359 98.75C68.6562 98.75 68.1602 99.0312 67.8477 99.5938C67.543 100.156 67.3789 101.008 67.3555 102.148V106.508C67.3555 107.781 67.5156 108.715 67.8359 109.309C68.1562 109.895 68.6641 110.188 69.3594 110.188C70.0312 110.188 70.5273 109.902 70.8477 109.332C71.168 108.754 71.332 107.852 71.3398 106.625V102.406ZM88.9648 95.9375L92.7734 107.809L96.5703 95.9375H101.984V113H97.8594V109.016L98.2578 100.859L94.1328 113H91.4141L87.2773 100.848L87.6758 109.016V113H83.5625V95.9375H88.9648ZM108.992 113H104.891V95.9375H108.992V113ZM126.102 113H122.012L115.965 102.383V113H111.852V95.9375H115.965L122 106.555V95.9375H126.102V113Z" fill="#222222"/>
<path d="M50.2676 124.233H53.6367V125H49.3252V117.891H50.2676V124.233ZM58.7295 123.145H55.751L55.082 125H54.1152L56.8301 117.891H57.6504L60.3701 125H59.4082L58.7295 123.145ZM56.0342 122.373H58.4512L57.2402 119.048L56.0342 122.373ZM63.9346 122.124H62.2646V125H61.3223V117.891H63.6758C64.4766 117.891 65.0918 118.073 65.5215 118.438C65.9544 118.802 66.1709 119.333 66.1709 120.029C66.1709 120.472 66.0505 120.858 65.8096 121.187C65.5719 121.515 65.2399 121.761 64.8135 121.924L66.4834 124.941V125H65.4775L63.9346 122.124ZM62.2646 121.357H63.7051C64.1706 121.357 64.54 121.237 64.8135 120.996C65.0902 120.755 65.2285 120.433 65.2285 120.029C65.2285 119.59 65.0967 119.253 64.833 119.019C64.5726 118.784 64.195 118.665 63.7002 118.662H62.2646V121.357ZM72.7383 124.067C72.4974 124.412 72.1605 124.671 71.7275 124.844C71.2979 125.013 70.7965 125.098 70.2236 125.098C69.6442 125.098 69.1299 124.963 68.6807 124.692C68.2314 124.419 67.8831 124.032 67.6357 123.53C67.3916 123.029 67.2663 122.448 67.2598 121.787V121.167C67.2598 120.096 67.5088 119.266 68.0068 118.677C68.5081 118.088 69.2113 117.793 70.1162 117.793C70.8584 117.793 71.4557 117.983 71.9082 118.364C72.3607 118.742 72.6374 119.279 72.7383 119.976H71.8008C71.625 119.035 71.0651 118.564 70.1211 118.564C69.4928 118.564 69.016 118.786 68.6904 119.229C68.3682 119.668 68.2054 120.306 68.2021 121.143V121.724C68.2021 122.521 68.3844 123.156 68.749 123.628C69.1136 124.097 69.6068 124.331 70.2285 124.331C70.5801 124.331 70.8877 124.292 71.1514 124.214C71.415 124.136 71.6331 124.004 71.8057 123.818V122.222H70.1602V121.46H72.7383V124.067ZM78.2314 123.145H75.2529L74.584 125H73.6172L76.332 117.891H77.1523L79.8721 125H78.9102L78.2314 123.145ZM75.5361 122.373H77.9531L76.7422 119.048L75.5361 122.373ZM83.3096 125V117.891H85.3164C85.9349 117.891 86.4818 118.027 86.957 118.301C87.4323 118.574 87.7985 118.963 88.0557 119.468C88.3161 119.972 88.4479 120.552 88.4512 121.206V121.66C88.4512 122.331 88.321 122.918 88.0605 123.423C87.8034 123.927 87.4339 124.315 86.9521 124.585C86.4736 124.855 85.9154 124.993 85.2773 125H83.3096ZM84.2471 118.662V124.233H85.2334C85.9561 124.233 86.5176 124.009 86.918 123.56C87.3216 123.11 87.5234 122.471 87.5234 121.641V121.226C87.5234 120.418 87.333 119.792 86.9521 119.346C86.5745 118.896 86.0374 118.669 85.3408 118.662H84.2471ZM90.8779 125H89.9404V117.891H90.8779V125ZM94.6914 121.831C93.8874 121.6 93.3014 121.317 92.9336 120.981C92.569 120.643 92.3867 120.226 92.3867 119.731C92.3867 119.172 92.6097 118.709 93.0557 118.345C93.5049 117.977 94.0876 117.793 94.8037 117.793C95.292 117.793 95.7266 117.887 96.1074 118.076C96.4915 118.265 96.7878 118.525 96.9961 118.857C97.2077 119.189 97.3135 119.552 97.3135 119.946H96.3711C96.3711 119.517 96.2344 119.18 95.9609 118.936C95.6875 118.688 95.3018 118.564 94.8037 118.564C94.3415 118.564 93.9801 118.667 93.7197 118.872C93.4626 119.074 93.334 119.355 93.334 119.717C93.334 120.007 93.4561 120.252 93.7002 120.454C93.9476 120.653 94.3659 120.835 94.9551 121.001C95.5475 121.167 96.0098 121.351 96.3418 121.553C96.6771 121.751 96.9245 121.984 97.084 122.251C97.2467 122.518 97.3281 122.832 97.3281 123.193C97.3281 123.77 97.1035 124.232 96.6543 124.58C96.2051 124.925 95.6045 125.098 94.8525 125.098C94.3643 125.098 93.9085 125.005 93.4854 124.819C93.0622 124.631 92.735 124.373 92.5039 124.048C92.276 123.722 92.1621 123.353 92.1621 122.939H93.1045C93.1045 123.369 93.2624 123.709 93.5781 123.96C93.8971 124.207 94.3219 124.331 94.8525 124.331C95.3473 124.331 95.7266 124.23 95.9902 124.028C96.2539 123.826 96.3857 123.551 96.3857 123.203C96.3857 122.855 96.2637 122.586 96.0195 122.397C95.7754 122.205 95.3327 122.017 94.6914 121.831ZM103.446 118.662H101.161V125H100.229V118.662H97.9482V117.891H103.446V118.662ZM108.036 123.145H105.058L104.389 125H103.422L106.137 117.891H106.957L109.677 125H108.715L108.036 123.145ZM105.341 122.373H107.758L106.547 119.048L105.341 122.373ZM116.098 125H115.155L111.576 119.521V125H110.634V117.891H111.576L115.165 123.394V117.891H116.098V125ZM122.992 122.744C122.904 123.496 122.626 124.077 122.157 124.487C121.692 124.894 121.072 125.098 120.297 125.098C119.457 125.098 118.783 124.797 118.275 124.194C117.771 123.592 117.519 122.786 117.519 121.777V121.094C117.519 120.433 117.636 119.852 117.87 119.351C118.108 118.849 118.443 118.465 118.876 118.198C119.309 117.928 119.81 117.793 120.38 117.793C121.135 117.793 121.741 118.005 122.196 118.428C122.652 118.848 122.917 119.43 122.992 120.176H122.05C121.968 119.609 121.791 119.199 121.518 118.945C121.247 118.691 120.868 118.564 120.38 118.564C119.781 118.564 119.311 118.786 118.969 119.229C118.63 119.671 118.461 120.301 118.461 121.118V121.807C118.461 122.578 118.622 123.192 118.944 123.647C119.267 124.103 119.717 124.331 120.297 124.331C120.818 124.331 121.216 124.214 121.493 123.979C121.773 123.742 121.959 123.33 122.05 122.744H122.992ZM125.282 125H124.345V117.891H125.282V125ZM131.015 123.145H128.036L127.367 125H126.4L129.115 117.891H129.936L132.655 125H131.693L131.015 123.145ZM128.319 122.373H130.736L129.525 119.048L128.319 122.373ZM50.3311 135H49.3936V127.891H50.3311V135ZM57.5137 135H56.5713L52.9922 129.521V135H52.0498V127.891H52.9922L56.5811 133.394V127.891H57.5137V135ZM63.9443 128.662H61.6592V135H60.7266V128.662H58.4463V127.891H63.9443V128.662ZM69.0176 131.714H65.9365V134.233H69.5156V135H64.999V127.891H69.4668V128.662H65.9365V130.947H69.0176V131.714ZM73.29 132.124H71.6201V135H70.6777V127.891H73.0312C73.832 127.891 74.4473 128.073 74.877 128.438C75.3099 128.802 75.5264 129.333 75.5264 130.029C75.5264 130.472 75.4059 130.858 75.165 131.187C74.9274 131.515 74.5954 131.761 74.1689 131.924L75.8389 134.941V135H74.833L73.29 132.124ZM71.6201 131.357H73.0605C73.526 131.357 73.8955 131.237 74.1689 130.996C74.4456 130.755 74.584 130.433 74.584 130.029C74.584 129.59 74.4521 129.253 74.1885 129.019C73.9281 128.784 73.5505 128.665 73.0557 128.662H71.6201V131.357ZM82.3086 135H81.3662L77.7871 129.521V135H76.8447V127.891H77.7871L81.376 133.394V127.891H82.3086V135ZM87.9873 133.145H85.0088L84.3398 135H83.373L86.0879 127.891H86.9082L89.6279 135H88.666L87.9873 133.145ZM85.292 132.373H87.709L86.498 129.048L85.292 132.373ZM95.7559 132.744C95.668 133.496 95.3896 134.077 94.9209 134.487C94.4554 134.894 93.8353 135.098 93.0605 135.098C92.2207 135.098 91.5469 134.797 91.0391 134.194C90.5345 133.592 90.2822 132.786 90.2822 131.777V131.094C90.2822 130.433 90.3994 129.852 90.6338 129.351C90.8714 128.849 91.2067 128.465 91.6396 128.198C92.0726 127.928 92.5739 127.793 93.1436 127.793C93.8988 127.793 94.5042 128.005 94.96 128.428C95.4157 128.848 95.681 129.43 95.7559 130.176H94.8135C94.7321 129.609 94.5547 129.199 94.2812 128.945C94.0111 128.691 93.6318 128.564 93.1436 128.564C92.5446 128.564 92.0742 128.786 91.7324 129.229C91.3939 129.671 91.2246 130.301 91.2246 131.118V131.807C91.2246 132.578 91.3857 133.192 91.708 133.647C92.0303 134.103 92.4811 134.331 93.0605 134.331C93.5814 134.331 93.9801 134.214 94.2568 133.979C94.5368 133.742 94.7223 133.33 94.8135 132.744H95.7559ZM98.0459 135H97.1084V127.891H98.0459V135ZM105.233 131.675C105.233 132.371 105.116 132.98 104.882 133.501C104.647 134.019 104.315 134.414 103.886 134.688C103.456 134.961 102.955 135.098 102.382 135.098C101.822 135.098 101.326 134.961 100.893 134.688C100.46 134.411 100.123 134.019 99.8818 133.511C99.6442 133 99.5221 132.409 99.5156 131.738V131.226C99.5156 130.542 99.6344 129.938 99.8721 129.414C100.11 128.89 100.445 128.49 100.878 128.213C101.314 127.933 101.812 127.793 102.372 127.793C102.942 127.793 103.443 127.931 103.876 128.208C104.312 128.481 104.647 128.88 104.882 129.404C105.116 129.925 105.233 130.532 105.233 131.226V131.675ZM104.301 131.216C104.301 130.373 104.132 129.727 103.793 129.277C103.454 128.825 102.981 128.599 102.372 128.599C101.78 128.599 101.312 128.825 100.971 129.277C100.632 129.727 100.458 130.352 100.448 131.152V131.675C100.448 132.492 100.619 133.135 100.961 133.604C101.306 134.069 101.78 134.302 102.382 134.302C102.987 134.302 103.456 134.082 103.788 133.643C104.12 133.2 104.291 132.567 104.301 131.743V131.216ZM112.104 135H111.161L107.582 129.521V135H106.64V127.891H107.582L111.171 133.394V127.891H112.104V135ZM117.782 133.145H114.804L114.135 135H113.168L115.883 127.891H116.703L119.423 135H118.461L117.782 133.145ZM115.087 132.373H117.504L116.293 129.048L115.087 132.373ZM121.322 134.233H124.691V135H120.38V127.891H121.322V134.233Z" fill="#222222"/>
<g filter="url(#filter0_d)">
<path d="M161.016 107.094H166.188L165.406 111.609H160.25L159.172 117.719H154.375L155.438 111.609H150.25L151.031 107.094H156.219L157.25 101.156H162.047L161.016 107.094Z" fill="#EF3829"/>
</g>
<path d="M187.519 95.2031L190.375 104.106L193.223 95.2031H197.283V108H194.189V105.012L194.488 98.8945L191.395 108H189.355L186.253 98.8857L186.552 105.012V108H183.467V95.2031H187.519ZM207.188 102.577H202.337V105.627H208.067V108H199.252V95.2031H208.085V97.585H202.337V100.283H207.188V102.577ZM220.012 108H216.944L212.409 100.037V108H209.324V95.2031H212.409L216.936 103.166V95.2031H220.012V108ZM228.563 104.599C228.563 104.147 228.402 103.796 228.08 103.544C227.764 103.292 227.204 103.031 226.401 102.762C225.599 102.492 224.942 102.231 224.433 101.979C222.774 101.165 221.945 100.046 221.945 98.6221C221.945 97.9131 222.15 97.2891 222.561 96.75C222.977 96.2051 223.562 95.7832 224.318 95.4844C225.074 95.1797 225.924 95.0273 226.867 95.0273C227.787 95.0273 228.61 95.1914 229.337 95.5195C230.069 95.8477 230.638 96.3164 231.042 96.9258C231.446 97.5293 231.648 98.2207 231.648 99H228.572C228.572 98.4785 228.411 98.0742 228.089 97.7871C227.772 97.5 227.342 97.3564 226.797 97.3564C226.246 97.3564 225.81 97.4795 225.487 97.7256C225.171 97.9658 225.013 98.2734 225.013 98.6484C225.013 98.9766 225.188 99.2754 225.54 99.5449C225.892 99.8086 226.51 100.084 227.395 100.371C228.279 100.652 229.006 100.957 229.574 101.285C230.957 102.082 231.648 103.181 231.648 104.581C231.648 105.7 231.227 106.579 230.383 107.218C229.539 107.856 228.382 108.176 226.911 108.176C225.874 108.176 224.934 107.991 224.09 107.622C223.252 107.247 222.619 106.737 222.191 106.093C221.77 105.442 221.559 104.695 221.559 103.852H224.652C224.652 104.537 224.828 105.044 225.18 105.372C225.537 105.694 226.114 105.855 226.911 105.855C227.421 105.855 227.822 105.747 228.115 105.53C228.414 105.308 228.563 104.997 228.563 104.599ZM240.499 105.609H236.271L235.533 108H232.237L236.931 95.2031H239.831L244.56 108H241.246L240.499 105.609ZM237.01 103.228H239.761L238.381 98.7891L237.01 103.228ZM250.598 95.2031H253.674V103.983C253.674 104.798 253.483 105.524 253.103 106.163C252.728 106.802 252.2 107.297 251.521 107.648C250.847 108 250.094 108.176 249.262 108.176C247.867 108.176 246.783 107.824 246.01 107.121C245.236 106.418 244.85 105.422 244.85 104.133H247.943C247.943 104.719 248.043 105.144 248.242 105.407C248.447 105.671 248.787 105.803 249.262 105.803C249.689 105.803 250.018 105.645 250.246 105.328C250.48 105.006 250.598 104.558 250.598 103.983V95.2031ZM263.562 102.577H258.71V105.627H264.44V108H255.625V95.2031H264.458V97.585H258.71V100.283H263.562V102.577ZM272.298 104.599C272.298 104.147 272.137 103.796 271.814 103.544C271.498 103.292 270.938 103.031 270.136 102.762C269.333 102.492 268.677 102.231 268.167 101.979C266.509 101.165 265.68 100.046 265.68 98.6221C265.68 97.9131 265.885 97.2891 266.295 96.75C266.711 96.2051 267.297 95.7832 268.053 95.4844C268.809 95.1797 269.658 95.0273 270.602 95.0273C271.521 95.0273 272.345 95.1914 273.071 95.5195C273.804 95.8477 274.372 96.3164 274.776 96.9258C275.181 97.5293 275.383 98.2207 275.383 99H272.307C272.307 98.4785 272.146 98.0742 271.823 97.7871C271.507 97.5 271.076 97.3564 270.531 97.3564C269.98 97.3564 269.544 97.4795 269.222 97.7256C268.905 97.9658 268.747 98.2734 268.747 98.6484C268.747 98.9766 268.923 99.2754 269.274 99.5449C269.626 99.8086 270.244 100.084 271.129 100.371C272.014 100.652 272.74 100.957 273.309 101.285C274.691 102.082 275.383 103.181 275.383 104.581C275.383 105.7 274.961 106.579 274.117 107.218C273.273 107.856 272.116 108.176 270.646 108.176C269.608 108.176 268.668 107.991 267.824 107.622C266.986 107.247 266.354 106.737 265.926 106.093C265.504 105.442 265.293 104.695 265.293 103.852H268.387C268.387 104.537 268.562 105.044 268.914 105.372C269.271 105.694 269.849 105.855 270.646 105.855C271.155 105.855 271.557 105.747 271.85 105.53C272.148 105.308 272.298 104.997 272.298 104.599ZM186.754 126H183.678V113.203H186.754V126ZM191.983 123.627H197.354V126H188.898V113.203H191.983V123.627ZM201.941 126H198.865V113.203H201.941V126ZM208.138 113.203L210.994 122.106L213.842 113.203H217.902V126H214.809V123.012L215.107 116.895L212.014 126H209.975L206.872 116.886L207.171 123.012V126H204.086V113.203H208.138ZM223.158 126H220.082V113.203H223.158V126ZM235.085 115.585H231.244V126H228.159V115.585H224.389V113.203H235.085V115.585ZM242.608 123.609H238.381L237.643 126H234.347L239.04 113.203H241.94L246.669 126H243.355L242.608 123.609ZM239.119 121.228H241.87L240.49 116.789L239.119 121.228ZM247.609 126V113.203H251.731C252.862 113.203 253.879 113.461 254.781 113.977C255.684 114.486 256.387 115.21 256.891 116.147C257.4 117.079 257.658 118.125 257.664 119.285V119.874C257.664 121.046 257.415 122.098 256.917 123.029C256.425 123.955 255.728 124.682 254.825 125.209C253.929 125.73 252.927 125.994 251.819 126H247.609ZM250.694 115.585V123.627H251.767C252.651 123.627 253.331 123.313 253.806 122.687C254.28 122.054 254.518 121.116 254.518 119.874V119.32C254.518 118.084 254.28 117.152 253.806 116.525C253.331 115.898 252.64 115.585 251.731 115.585H250.694ZM270.083 119.865C270.083 121.113 269.852 122.218 269.389 123.179C268.926 124.14 268.267 124.881 267.411 125.402C266.562 125.918 265.592 126.176 264.502 126.176C263.412 126.176 262.445 125.927 261.602 125.429C260.758 124.925 260.099 124.207 259.624 123.275C259.155 122.344 258.909 121.274 258.886 120.067V119.347C258.886 118.093 259.114 116.988 259.571 116.033C260.034 115.072 260.693 114.331 261.549 113.81C262.41 113.288 263.389 113.027 264.484 113.027C265.568 113.027 266.535 113.285 267.385 113.801C268.234 114.316 268.894 115.052 269.362 116.007C269.837 116.956 270.077 118.046 270.083 119.276V119.865ZM266.945 119.329C266.945 118.058 266.731 117.094 266.304 116.438C265.882 115.775 265.275 115.444 264.484 115.444C262.938 115.444 262.12 116.604 262.032 118.925L262.023 119.865C262.023 121.119 262.231 122.083 262.647 122.757C263.063 123.431 263.682 123.768 264.502 123.768C265.281 123.768 265.882 123.437 266.304 122.774C266.726 122.112 266.939 121.16 266.945 119.918V119.329ZM278.274 122.599C278.274 122.147 278.113 121.796 277.791 121.544C277.475 121.292 276.915 121.031 276.112 120.762C275.31 120.492 274.653 120.231 274.144 119.979C272.485 119.165 271.656 118.046 271.656 116.622C271.656 115.913 271.861 115.289 272.271 114.75C272.688 114.205 273.273 113.783 274.029 113.484C274.785 113.18 275.635 113.027 276.578 113.027C277.498 113.027 278.321 113.191 279.048 113.52C279.78 113.848 280.349 114.316 280.753 114.926C281.157 115.529 281.359 116.221 281.359 117H278.283C278.283 116.479 278.122 116.074 277.8 115.787C277.483 115.5 277.053 115.356 276.508 115.356C275.957 115.356 275.521 115.479 275.198 115.726C274.882 115.966 274.724 116.273 274.724 116.648C274.724 116.977 274.899 117.275 275.251 117.545C275.603 117.809 276.221 118.084 277.105 118.371C277.99 118.652 278.717 118.957 279.285 119.285C280.668 120.082 281.359 121.181 281.359 122.581C281.359 123.7 280.938 124.579 280.094 125.218C279.25 125.856 278.093 126.176 276.622 126.176C275.585 126.176 274.645 125.991 273.801 125.622C272.963 125.247 272.33 124.737 271.902 124.093C271.48 123.442 271.27 122.695 271.27 121.852H274.363C274.363 122.537 274.539 123.044 274.891 123.372C275.248 123.694 275.825 123.855 276.622 123.855C277.132 123.855 277.533 123.747 277.826 123.53C278.125 123.308 278.274 122.997 278.274 122.599Z" fill="#222222"/>
<path d="M184.536 129.891L186.86 135.691L189.185 129.891H190.4V137H189.463V134.231L189.551 131.243L187.217 137H186.499L184.17 131.258L184.263 134.231V137H183.325V129.891H184.536ZM197.061 129.891V134.725C197.057 135.395 196.846 135.944 196.426 136.37C196.009 136.797 195.443 137.036 194.727 137.088L194.478 137.098C193.7 137.098 193.079 136.888 192.617 136.468C192.155 136.048 191.921 135.47 191.914 134.734V129.891H192.842V134.705C192.842 135.219 192.983 135.62 193.267 135.906C193.55 136.189 193.953 136.331 194.478 136.331C195.008 136.331 195.413 136.189 195.693 135.906C195.977 135.623 196.118 135.224 196.118 134.71V129.891H197.061ZM199.482 136.233H202.852V137H198.54V129.891H199.482V136.233ZM207.485 130.662H205.2V137H204.268V130.662H201.987V129.891H207.485V130.662ZM209.546 137H208.608V129.891H209.546V137ZM211.265 137V129.891H213.271C213.89 129.891 214.437 130.027 214.912 130.301C215.387 130.574 215.754 130.963 216.011 131.468C216.271 131.972 216.403 132.552 216.406 133.206V133.66C216.406 134.331 216.276 134.918 216.016 135.423C215.758 135.927 215.389 136.315 214.907 136.585C214.429 136.855 213.87 136.993 213.232 137H211.265ZM212.202 130.662V136.233H213.188C213.911 136.233 214.473 136.009 214.873 135.56C215.277 135.11 215.479 134.471 215.479 133.641V133.226C215.479 132.418 215.288 131.792 214.907 131.346C214.53 130.896 213.993 130.669 213.296 130.662H212.202ZM221.846 133.714H218.765V136.233H222.344V137H217.827V129.891H222.295V130.662H218.765V132.947H221.846V133.714ZM225.605 133.831C224.801 133.6 224.215 133.317 223.848 132.981C223.483 132.643 223.301 132.226 223.301 131.731C223.301 131.172 223.524 130.709 223.97 130.345C224.419 129.977 225.002 129.793 225.718 129.793C226.206 129.793 226.641 129.887 227.021 130.076C227.406 130.265 227.702 130.525 227.91 130.857C228.122 131.189 228.228 131.552 228.228 131.946H227.285C227.285 131.517 227.148 131.18 226.875 130.936C226.602 130.688 226.216 130.564 225.718 130.564C225.256 130.564 224.894 130.667 224.634 130.872C224.377 131.074 224.248 131.355 224.248 131.717C224.248 132.007 224.37 132.252 224.614 132.454C224.862 132.653 225.28 132.835 225.869 133.001C226.462 133.167 226.924 133.351 227.256 133.553C227.591 133.751 227.839 133.984 227.998 134.251C228.161 134.518 228.242 134.832 228.242 135.193C228.242 135.77 228.018 136.232 227.568 136.58C227.119 136.925 226.519 137.098 225.767 137.098C225.278 137.098 224.823 137.005 224.399 136.819C223.976 136.631 223.649 136.373 223.418 136.048C223.19 135.722 223.076 135.353 223.076 134.939H224.019C224.019 135.369 224.176 135.709 224.492 135.96C224.811 136.207 225.236 136.331 225.767 136.331C226.261 136.331 226.641 136.23 226.904 136.028C227.168 135.826 227.3 135.551 227.3 135.203C227.3 134.855 227.178 134.586 226.934 134.397C226.689 134.205 226.247 134.017 225.605 133.831ZM234.36 130.662H232.075V137H231.143V130.662H228.862V129.891H234.36V130.662ZM236.421 137H235.483V129.891H236.421V137ZM243.604 137H242.661L239.082 131.521V137H238.14V129.891H239.082L242.671 135.394V129.891H243.604V137ZM250.737 133.675C250.737 134.371 250.62 134.98 250.386 135.501C250.151 136.019 249.819 136.414 249.39 136.688C248.96 136.961 248.459 137.098 247.886 137.098C247.326 137.098 246.829 136.961 246.396 136.688C245.964 136.411 245.627 136.019 245.386 135.511C245.148 135 245.026 134.409 245.02 133.738V133.226C245.02 132.542 245.138 131.938 245.376 131.414C245.614 130.89 245.949 130.49 246.382 130.213C246.818 129.933 247.316 129.793 247.876 129.793C248.446 129.793 248.947 129.931 249.38 130.208C249.816 130.481 250.151 130.88 250.386 131.404C250.62 131.925 250.737 132.532 250.737 133.226V133.675ZM249.805 133.216C249.805 132.373 249.635 131.727 249.297 131.277C248.958 130.825 248.485 130.599 247.876 130.599C247.284 130.599 246.816 130.825 246.475 131.277C246.136 131.727 245.962 132.352 245.952 133.152V133.675C245.952 134.492 246.123 135.135 246.465 135.604C246.81 136.069 247.284 136.302 247.886 136.302C248.491 136.302 248.96 136.082 249.292 135.643C249.624 135.2 249.795 134.567 249.805 133.743V133.216Z" fill="#222222"/>
<g clip-path="url(#clip0)">
<path d="M44.9583 173C44.8816 173 44.8816 173 44.8816 173C44.1148 173 43.3479 173 42.6577 173C42.581 173 42.5043 173 42.5043 172.925C41.9675 171.94 41.2007 171.258 40.127 170.955C38.5933 170.576 37.3663 171.031 36.2927 172.167C35.6792 172.849 35.3724 173.682 35.3724 174.591C35.3724 175.273 35.5258 175.879 35.8326 176.485C36.4461 177.47 37.2896 178.152 38.4399 178.304C39.897 178.531 41.124 178.076 42.0442 176.864C42.1976 176.713 42.2743 176.485 42.4277 176.258C42.4277 176.182 42.5043 176.182 42.581 176.182C43.3479 176.182 44.1148 176.182 44.8816 176.182C44.9583 176.182 44.9583 176.182 44.9583 176.258C44.6516 177.394 44.0381 178.379 43.1178 179.137C42.1976 179.894 41.2007 180.425 39.9737 180.576C38.5933 180.728 37.2129 180.576 35.9859 179.819C34.3755 178.834 33.3786 177.394 33.0718 175.576C32.8418 173.91 33.1485 172.319 34.2221 170.955C34.9123 170.122 35.6792 169.364 36.6761 168.985C37.2129 168.758 37.7497 168.607 38.3632 168.607C39.2068 168.531 40.0504 168.531 40.8939 168.834C42.581 169.364 43.808 170.425 44.5749 172.016C44.7283 172.319 44.805 172.622 44.9583 173Z" fill="#EF3829"/>
<path d="M55.618 179.818C55.5414 179.818 55.5414 179.894 55.5414 179.894C55.0046 180.273 54.3911 180.5 53.7776 180.651C53.2407 180.727 52.7039 180.803 52.1671 180.727C51.1702 180.576 50.4033 180.197 50.0199 179.212C49.8665 178.758 49.7898 178.303 49.8665 177.848C49.8665 177.47 49.9432 177.091 50.0966 176.712C50.4033 176.03 50.9401 175.576 51.6303 175.273C52.1671 175.045 52.7039 174.97 53.2407 174.894C53.7776 174.818 54.3144 174.742 54.8512 174.667C55.2346 174.591 55.5414 174.212 55.4647 173.758C55.388 173.379 55.2346 173.151 54.8512 173C54.3911 172.848 54.0076 172.848 53.5475 172.924C53.3941 172.924 53.2407 173 53.0874 173C52.7039 173.151 52.4739 173.53 52.3205 173.909V173.985C52.2438 174.212 52.2438 174.212 52.0904 174.212C51.4003 174.212 50.7101 174.212 50.0199 174.212C49.9432 174.212 49.9432 174.212 49.9432 174.136C49.9432 173.833 50.0199 173.53 50.0966 173.227C50.4033 172.091 51.1702 171.409 52.2438 171.106C53.0107 170.879 53.7009 170.879 54.4677 170.954C55.1579 170.954 55.8481 171.182 56.4616 171.485C57.2285 171.864 57.6119 172.47 57.7653 173.227C57.842 173.454 57.842 173.682 57.842 173.909C57.842 176.182 57.842 178.379 57.842 180.651C57.842 180.727 57.842 180.803 57.6886 180.803C56.9984 180.803 56.2315 180.803 55.5414 180.803C55.4647 180.803 55.4647 180.803 55.4647 180.727C55.4647 180.5 55.4647 180.197 55.4647 179.97C55.6947 179.818 55.6947 179.818 55.618 179.818ZM55.5414 175.954C55.4647 176.03 55.388 176.03 55.388 176.03C55.3113 176.106 55.1579 176.182 55.0812 176.182C54.6211 176.258 54.2377 176.409 53.7776 176.485C53.4708 176.561 53.2407 176.561 53.0107 176.712C52.6272 176.864 52.3972 177.167 52.3205 177.545C52.2438 177.773 52.2438 177.924 52.3205 178.151C52.3972 178.606 52.7039 178.985 53.1641 179.061C53.8542 179.212 54.4677 178.985 55.0046 178.606C55.388 178.379 55.4647 177.924 55.5414 177.545C55.618 177.015 55.5414 176.485 55.5414 175.954Z" fill="#EF3829"/>
<path d="M65.2805 175.803C65.2805 173.379 67.0443 171.712 68.5781 171.182C71.5689 170.197 74.4063 172.015 75.0198 174.743C75.3265 176.258 75.0965 177.621 74.1762 178.833C73.4094 179.818 72.4124 180.5 71.1854 180.727C69.575 181.03 68.1179 180.652 66.9676 179.515C66.2775 178.833 65.7406 178.076 65.5106 177.167C65.3572 176.712 65.2805 176.258 65.2805 175.803ZM70.1885 173.303C68.7314 173.227 67.5811 174.591 67.5811 175.879C67.5811 177.091 68.5781 178.455 70.1885 178.455C71.7989 178.455 72.7959 177.091 72.7959 175.879C72.7959 174.44 71.7222 173.227 70.1885 173.303Z" fill="#EF3829"/>
<path d="M67.1209 185.5C67.1209 185.424 67.1209 185.424 67.1209 185.349C67.1209 184.439 67.1209 183.455 67.1209 182.545C67.1209 182.47 67.1209 182.47 67.2743 182.47C67.8111 182.47 68.2712 182.47 68.808 182.47C68.8847 182.47 68.8847 182.47 68.8847 182.545C68.8847 185.576 68.8847 188.606 68.8847 191.636C68.8847 191.712 68.8847 191.712 68.808 191.712C68.3479 191.712 67.8111 191.712 67.351 191.712C67.2743 191.712 67.2743 191.712 67.2743 191.636C67.2743 191.485 67.2743 191.333 67.2743 191.106H67.1976C66.7375 191.561 66.2007 191.788 65.5105 191.788C65.2037 191.788 64.897 191.712 64.5902 191.636C63.9001 191.409 63.5166 190.879 63.2866 190.197C63.2099 189.894 63.1332 189.591 63.1332 189.212C63.1332 188.379 63.0565 187.621 63.2099 186.788C63.2866 186.485 63.3632 186.182 63.4399 185.879C63.67 185.349 64.0534 185.045 64.5902 184.894C65.2804 184.667 65.8939 184.667 66.5841 184.97C66.8142 185.197 66.9675 185.349 67.1209 185.5ZM67.1209 188.303C67.1209 188.227 67.1209 188.227 67.1209 188.152C67.1209 187.773 67.1209 187.318 66.9675 186.939C66.8142 186.636 66.6608 186.485 66.354 186.409C66.2774 186.409 66.124 186.333 66.0473 186.333C65.5872 186.333 65.2037 186.485 64.9737 187.015C64.897 187.318 64.8203 187.621 64.8203 187.924C64.8203 188.379 64.8203 188.833 64.897 189.288C64.9737 189.818 65.2804 190.197 65.8939 190.197C66.4307 190.197 66.8142 189.97 66.9675 189.515C67.1209 189.136 67.1209 188.758 67.1209 188.303Z" fill="black"/>
<path d="M61.8296 172.546C62.0597 172.243 62.2131 172.091 62.4431 171.864C62.9033 171.485 63.4401 171.182 64.0536 171.03C64.3603 170.955 64.6671 170.955 64.9738 170.879C65.0505 170.879 65.0505 170.955 65.0505 170.955C65.0505 171.409 65.0505 171.94 65.0505 172.394C65.0505 172.621 65.0505 172.924 65.0505 173.152C65.0505 173.227 65.0505 173.227 64.9738 173.227C64.7437 173.227 64.5137 173.152 64.2069 173.227C63.8235 173.227 63.5168 173.379 63.21 173.53C62.5965 173.909 62.1364 174.364 61.983 175.121C61.9063 175.424 61.9063 175.803 61.9063 176.106C61.9063 177.546 61.9063 179.061 61.9063 180.5C61.9063 180.576 61.9063 180.652 61.7529 180.652C61.0628 180.652 60.3726 180.652 59.6824 180.652C59.6057 180.652 59.6057 180.652 59.6057 180.576C59.6057 177.546 59.6057 174.515 59.6057 171.409C59.6057 171.333 59.6057 171.333 59.6824 171.333C60.3726 171.333 61.0628 171.333 61.7529 171.333C61.8296 171.333 61.8296 171.333 61.8296 171.409C61.8296 171.864 61.8296 172.167 61.8296 172.546Z" fill="#EF3829"/>
<path d="M48.486 174.59C48.486 176.56 48.486 178.606 48.486 180.575C48.486 180.651 48.486 180.727 48.3326 180.727C47.6424 180.727 46.9522 180.727 46.1854 180.727C46.1087 180.727 46.032 180.727 46.032 180.575C46.032 176.56 46.032 172.621 46.032 168.606C46.032 168.53 46.032 168.454 46.1854 168.454C46.8755 168.454 47.6424 168.454 48.3326 168.454C48.4093 168.454 48.4093 168.454 48.4093 168.606C48.486 170.651 48.486 172.621 48.486 174.59Z" fill="#EF3829"/>
<path d="M74.0229 188.833C73.3327 188.833 72.6425 188.833 71.9523 188.833C71.8756 188.833 71.8756 188.833 71.8756 188.909C71.8756 189.591 72.2591 190.121 72.8726 190.197C73.5627 190.348 74.2529 190.272 74.7897 189.742C74.9431 189.591 74.9431 189.591 75.0198 189.742C75.3265 190.045 75.5566 190.272 75.8633 190.576C75.94 190.651 75.94 190.651 75.8633 190.651C75.4032 191.106 74.7897 191.485 74.0995 191.636C73.4094 191.712 72.7192 191.712 72.029 191.485C71.2621 191.257 70.7253 190.727 70.4186 189.969C69.9585 188.757 69.9585 187.545 70.4186 186.409C70.8787 185.348 71.7223 184.818 72.8726 184.742C73.3327 184.742 73.8695 184.742 74.2529 184.969C75.0965 185.348 75.6333 186.03 75.8633 186.863C75.94 187.242 76.0167 187.621 76.0167 188C76.0167 188.227 76.0167 188.454 76.0167 188.682C76.0167 188.757 76.0167 188.757 75.94 188.757C75.4032 188.833 74.713 188.833 74.0229 188.833ZM73.1793 187.697C73.5627 187.697 74.0229 187.697 74.4063 187.697C74.483 187.697 74.483 187.697 74.483 187.621C74.483 187.394 74.4063 187.242 74.3296 187.091C74.0229 186.182 72.9492 186.182 72.4124 186.485C72.029 186.788 71.8756 187.166 71.8756 187.621C71.8756 187.697 71.8756 187.697 71.9523 187.697C72.3357 187.697 72.7959 187.697 73.1793 187.697Z" fill="black"/>
<path d="M82.9953 188.303C82.9953 188.833 82.9953 189.364 82.8419 189.818C82.6118 190.727 81.9983 191.333 81.0781 191.637C80.3112 191.864 79.5444 191.864 78.7775 191.485C77.9339 191.106 77.4738 190.5 77.3204 189.591C77.167 188.909 77.167 188.227 77.2437 187.546C77.2437 187.167 77.3204 186.712 77.5505 186.333C77.9339 185.5 78.6241 185.046 79.5444 184.818C80.0812 184.743 80.6947 184.743 81.2315 184.894C82.1517 185.197 82.7652 185.879 82.9953 186.864C82.9953 187.394 82.9953 187.849 82.9953 188.303ZM78.9309 188.303C78.9309 188.682 78.9309 188.985 79.0075 189.364C79.1609 190.121 79.6977 190.424 80.3879 190.273C80.848 190.197 81.0781 189.818 81.2315 189.44C81.3848 188.758 81.3848 188.076 81.2315 187.394C81.1548 187.015 81.0014 186.712 80.618 186.561C80.3112 186.409 80.0812 186.409 79.7744 186.485C79.3143 186.636 79.0842 186.94 79.0075 187.318C78.9309 187.621 78.8542 187.924 78.9309 188.303Z" fill="black"/>
<path d="M52.8572 184.894C53.0872 184.894 53.3173 184.894 53.4707 184.894C53.8541 184.894 54.1609 184.894 54.5443 184.894C54.621 184.894 54.6977 184.894 54.6977 185.045C55.1578 186.333 55.5412 187.697 56.0013 188.984V189.06C56.078 189.06 56.0013 188.984 56.078 188.984C56.5382 187.697 56.9216 186.333 57.3817 184.969C57.3817 184.894 57.4584 184.894 57.5351 184.894C58.0719 184.894 58.6087 184.894 59.1455 184.894C59.2989 184.894 59.2989 184.894 59.2222 184.969C58.532 186.863 57.7652 188.833 57.075 190.727C56.9983 191.03 56.8449 191.257 56.7682 191.56C56.7682 191.636 56.6915 191.636 56.6915 191.636C56.3081 191.636 55.9247 191.636 55.5412 191.636C55.4645 191.636 55.4645 191.636 55.3879 191.56C54.851 190.197 54.3909 188.833 53.8541 187.469C53.5474 186.636 53.2406 185.803 52.9339 185.045C52.9339 184.969 52.9339 184.969 52.8572 184.894Z" fill="black"/>
<path d="M75.5566 171.333C75.5566 171.258 75.4799 171.258 75.5566 171.333C75.0198 170.803 74.5596 170.348 74.0995 169.894C74.0228 169.818 74.0995 169.818 74.0995 169.742L74.1762 169.667C76.0167 167.848 77.8572 166.03 79.621 164.212C79.6977 164.136 79.6977 164.136 79.7744 164.212C80.2345 164.667 80.6946 165.121 81.1547 165.576C81.2314 165.651 81.2314 165.651 81.1547 165.727C79.3142 167.545 77.4737 169.364 75.5566 171.333C75.6333 171.258 75.5566 171.258 75.5566 171.333Z" fill="#EF3829"/>
<path d="M79.6976 173.606C80.6946 173.606 81.6915 173.606 82.6884 173.606C82.7651 173.606 82.7651 173.606 82.7651 173.682C82.7651 174.288 82.7651 174.97 82.7651 175.576C82.7651 175.652 82.7651 175.652 82.6884 175.652C80.6946 175.652 78.624 175.652 76.6302 175.652C76.5535 175.652 76.5535 175.652 76.5535 175.576C76.5535 174.97 76.5535 174.288 76.5535 173.682C76.5535 173.606 76.5535 173.606 76.6302 173.606C77.7038 173.606 78.7007 173.606 79.6976 173.606Z" fill="#EF3829"/>
<path d="M69.4216 166.03C69.4216 165.045 69.4216 164.061 69.4216 163.152C69.4216 163.076 69.4216 163 69.4983 163C70.1118 163 70.7253 163 71.4155 163C71.4922 163 71.4922 163 71.4922 163.076C71.4922 165.045 71.4922 166.939 71.4922 168.909C71.4922 168.985 71.4922 168.985 71.4155 168.985C70.802 168.985 70.1118 168.985 69.4983 168.985C69.4216 168.985 69.4216 168.985 69.4216 168.909C69.4216 168 69.4216 167.015 69.4216 166.03Z" fill="#EF3829"/>
<path d="M60.0659 188.303C60.0659 187.242 60.0659 186.106 60.0659 185.045C60.0659 184.969 60.0659 184.894 60.1426 184.894C60.6794 184.894 61.1395 184.894 61.6764 184.894C61.753 184.894 61.753 184.894 61.753 184.969C61.753 187.166 61.753 189.363 61.753 191.56C61.753 191.636 61.753 191.636 61.6764 191.636C61.1395 191.636 60.6794 191.636 60.1426 191.636C60.0659 191.636 60.0659 191.636 60.0659 191.56C60.0659 190.5 60.0659 189.363 60.0659 188.303Z" fill="black"/>
<path d="M59.8357 183C59.8357 182.394 60.2958 181.939 60.9093 181.939C61.5228 181.939 61.9829 182.394 61.9829 183C61.9829 183.606 61.5228 184.061 60.9093 184.061C60.2958 184.061 59.8357 183.606 59.8357 183Z" fill="black"/>
</g>
<g filter="url(#filter1_d)">
<path d="M103.887 177.32H107.766L107.18 180.707H103.312L102.504 185.289H98.9062L99.7031 180.707H95.8125L96.3984 177.32H100.289L101.062 172.867H104.66L103.887 177.32Z" fill="#EF3829"/>
</g>
<path d="M126.739 173.124C126.352 173.124 125.966 173.124 125.579 173.124C125.502 173.124 125.502 173.124 125.425 173.047C124.884 172.042 124.188 171.346 123.106 171.115C121.715 170.728 120.478 171.115 119.474 172.119C118.933 172.66 118.546 173.356 118.392 174.129C118.16 175.675 118.624 176.911 119.86 177.839C121.019 178.766 122.797 178.843 124.111 177.993C124.652 177.607 125.116 177.143 125.425 176.525C125.502 176.447 125.502 176.447 125.579 176.447C126.352 176.447 127.048 176.447 127.821 176.447C127.898 176.447 127.898 176.447 127.898 176.525C127.511 177.761 126.893 178.766 125.888 179.616C125.116 180.312 124.188 180.698 123.183 180.853C121.638 181.085 120.247 180.93 118.933 180.08C117.387 179.075 116.382 177.684 116.073 175.829C115.841 174.129 116.15 172.583 117.155 171.192C117.851 170.264 118.701 169.492 119.783 169.105C120.401 168.873 121.019 168.719 121.715 168.719C122.411 168.719 123.106 168.719 123.802 168.951C125.347 169.492 126.584 170.419 127.357 171.887C127.589 172.274 127.743 172.738 127.898 173.124C127.898 173.201 127.898 173.201 127.821 173.201C127.511 173.124 127.125 173.124 126.739 173.124Z" fill="#EF3829"/>
<path d="M138.795 180.003C138.486 180.312 138.1 180.467 137.713 180.621C136.94 180.93 136.168 181.008 135.317 180.93C134.776 180.853 134.235 180.699 133.772 180.312C133.308 179.848 133.076 179.307 132.999 178.612C132.999 178.148 132.999 177.684 133.076 177.221C133.308 176.371 133.849 175.83 134.622 175.52C135.163 175.289 135.704 175.211 136.245 175.134C136.863 175.057 137.404 174.979 138.022 174.825C138.409 174.748 138.718 174.361 138.641 173.82C138.563 173.511 138.409 173.279 138.1 173.202C137.868 173.125 137.636 173.047 137.404 173.047C137.095 173.047 136.863 173.047 136.554 173.047C136.09 173.125 135.781 173.434 135.549 173.897C135.549 173.975 135.472 174.052 135.472 174.207C135.472 174.284 135.395 174.361 135.317 174.361C134.622 174.361 133.926 174.361 133.153 174.361C133.076 174.361 133.076 174.361 133.076 174.284C133.076 173.975 133.153 173.588 133.231 173.279C133.54 172.274 134.235 171.579 135.24 171.27C135.627 171.115 136.09 171.038 136.554 171.038C137.404 170.96 138.254 171.038 139.104 171.27C139.336 171.347 139.568 171.424 139.877 171.579C140.573 171.888 140.882 172.429 141.037 173.202C141.114 173.511 141.114 173.743 141.114 174.052C141.114 176.293 141.114 178.612 141.114 180.853C141.114 180.93 141.114 181.008 140.959 181.008C140.264 181.008 139.568 181.008 138.795 181.008C138.718 181.008 138.641 181.008 138.718 180.853C138.795 180.621 138.795 180.312 138.795 180.003ZM138.641 176.139C138.486 176.216 138.332 176.371 138.177 176.371C137.791 176.525 137.327 176.602 136.94 176.68C136.631 176.757 136.399 176.757 136.09 176.912C135.704 177.066 135.472 177.298 135.395 177.762C135.317 177.916 135.317 178.148 135.395 178.303C135.472 178.844 135.781 179.153 136.245 179.23C136.554 179.307 136.863 179.307 137.172 179.153C138.177 178.844 138.486 178.38 138.641 177.607C138.718 177.143 138.641 176.68 138.641 176.139Z" fill="#EF3829"/>
<path d="M153.325 181.008C151.857 181.008 150.697 180.467 149.77 179.385C148.997 178.534 148.533 177.607 148.456 176.448C148.301 174.516 149.074 172.97 150.62 171.888C151.316 171.347 152.088 171.115 153.016 171.038C153.711 170.96 154.484 171.038 155.103 171.347C156.803 172.042 157.885 173.279 158.271 175.134C158.503 176.525 158.271 177.839 157.498 178.921C156.726 180.003 155.721 180.698 154.407 180.93C153.943 181.008 153.634 181.008 153.325 181.008ZM153.325 173.434C151.857 173.356 150.697 174.67 150.697 176.061C150.697 177.375 151.779 178.689 153.325 178.689C154.871 178.689 155.953 177.375 155.953 176.061C155.953 174.593 154.793 173.356 153.325 173.434Z" fill="#EF3829"/>
<path d="M128.053 186.032C128.362 185.723 128.671 185.568 129.057 185.413C129.753 185.182 130.371 185.259 130.989 185.568C131.221 185.723 131.376 185.877 131.608 186.109C131.685 186.186 131.685 186.186 131.762 186.109C132.149 185.723 132.612 185.413 133.153 185.336C133.772 185.259 134.313 185.259 134.931 185.491C135.627 185.8 136.013 186.418 136.168 187.191C136.245 187.423 136.245 187.655 136.245 187.887C136.245 189.278 136.245 190.746 136.245 192.137C136.245 192.215 136.245 192.292 136.168 192.215C135.704 192.215 135.163 192.215 134.699 192.215C134.622 192.215 134.622 192.215 134.622 192.137C134.622 190.746 134.622 189.432 134.622 188.041C134.622 187.809 134.622 187.577 134.467 187.423C134.313 187.036 133.849 186.805 133.463 186.805C133.076 186.805 132.767 186.959 132.535 187.268C132.381 187.5 132.303 187.732 132.303 187.964C132.303 189.355 132.303 190.669 132.303 192.06C132.303 192.137 132.303 192.215 132.149 192.215C131.685 192.215 131.144 192.215 130.68 192.215C130.603 192.215 130.603 192.215 130.603 192.137C130.603 190.746 130.603 189.432 130.603 188.041C130.603 187.809 130.603 187.577 130.448 187.346C130.217 186.959 129.907 186.805 129.521 186.805C129.057 186.805 128.748 186.959 128.516 187.346C128.362 187.577 128.362 187.809 128.362 188.041C128.362 189.355 128.362 190.746 128.362 192.06C128.362 192.137 128.362 192.137 128.284 192.137C127.743 192.137 127.28 192.137 126.739 192.137C126.661 192.137 126.661 192.137 126.661 192.06C126.661 189.819 126.661 187.577 126.661 185.336C126.661 185.259 126.661 185.259 126.739 185.259C127.202 185.259 127.743 185.259 128.207 185.259C128.284 185.259 128.284 185.259 128.284 185.336C128.053 185.645 128.053 185.877 128.053 186.032Z" fill="black"/>
<path d="M144.978 172.661C145.133 172.507 145.21 172.429 145.287 172.275C145.828 171.734 146.447 171.347 147.142 171.193C147.451 171.115 147.76 171.038 148.07 171.038C148.147 171.038 148.147 171.038 148.147 171.115C148.147 171.888 148.147 172.584 148.147 173.357C148.147 173.434 148.147 173.434 148.07 173.434C147.76 173.434 147.529 173.357 147.219 173.434C146.833 173.434 146.447 173.589 146.137 173.82C146.06 173.898 145.906 173.975 145.828 174.052C145.365 174.439 145.133 174.98 145.055 175.598C145.055 175.907 144.978 176.216 144.978 176.525C144.978 177.994 144.978 179.385 144.978 180.853C144.978 180.931 144.978 180.931 144.824 180.931C144.128 180.931 143.432 180.931 142.66 180.931C142.582 180.931 142.582 180.931 142.582 180.853C142.582 177.762 142.582 174.671 142.582 171.579C142.582 171.502 142.582 171.502 142.66 171.502C143.355 171.502 144.051 171.502 144.669 171.502C144.746 171.502 144.824 171.502 144.824 171.656C144.978 171.966 144.978 172.352 144.978 172.661Z" fill="#EF3829"/>
<path d="M129.212 174.825C129.212 172.815 129.212 170.806 129.212 168.796C129.212 168.719 129.212 168.642 129.366 168.642C130.062 168.642 130.757 168.642 131.53 168.642C131.608 168.642 131.685 168.642 131.685 168.719C131.685 172.738 131.685 176.834 131.685 180.853C131.685 180.93 131.685 181.007 131.608 181.007C130.912 181.007 130.139 181.007 129.444 181.007C129.366 181.007 129.366 181.007 129.366 180.853C129.212 178.843 129.212 176.834 129.212 174.825Z" fill="#EF3829"/>
<path d="M164.3 191.673C164.145 191.828 163.99 191.982 163.759 192.06C163.449 192.292 163.14 192.369 162.754 192.369C162.367 192.369 161.981 192.369 161.595 192.214C160.822 191.982 160.435 191.441 160.281 190.669C160.203 190.359 160.203 189.973 160.358 189.664C160.513 189.123 160.822 188.736 161.363 188.505C161.826 188.273 162.213 188.273 162.754 188.273C163.218 188.273 163.759 188.273 164.222 188.273C164.3 188.273 164.3 188.273 164.3 188.195C164.3 188.041 164.3 187.809 164.3 187.654C164.222 187.268 163.99 186.959 163.604 186.882C163.218 186.804 162.831 186.804 162.522 186.882C162.213 186.959 161.981 187.113 161.826 187.345C161.749 187.423 161.749 187.423 161.672 187.345C161.363 187.036 161.054 186.727 160.667 186.418C160.59 186.341 160.59 186.341 160.667 186.263C161.131 185.8 161.672 185.49 162.367 185.413C162.986 185.336 163.604 185.336 164.222 185.49C164.841 185.645 165.382 185.954 165.691 186.495C165.923 186.882 166 187.268 166 187.732C166 189.2 166 190.669 166 192.214C166 192.292 166 192.369 165.845 192.369C165.382 192.369 164.918 192.369 164.377 192.369C164.3 192.369 164.3 192.369 164.3 192.292C164.3 192.06 164.3 191.905 164.3 191.673ZM164.222 189.741C164.222 189.664 164.222 189.587 164.222 189.509C164.222 189.432 164.222 189.432 164.145 189.432C163.759 189.432 163.295 189.432 162.908 189.432C162.754 189.432 162.677 189.432 162.522 189.509C162.136 189.587 161.981 189.818 161.904 190.205C161.904 190.591 162.058 190.823 162.445 190.978C162.831 191.132 163.218 191.055 163.604 190.978C163.99 190.9 164.222 190.591 164.222 190.205C164.222 189.973 164.222 189.818 164.222 189.741Z" fill="black"/>
<path d="M141.655 191.673C140.959 192.369 140.109 192.523 139.182 192.292C138.332 192.06 137.868 191.519 137.713 190.669C137.636 190.437 137.636 190.128 137.636 189.896C137.636 188.427 137.636 187.036 137.636 185.568C137.636 185.49 137.636 185.413 137.791 185.413C138.254 185.413 138.795 185.413 139.259 185.413C139.336 185.413 139.336 185.413 139.336 185.49C139.336 186.882 139.336 188.195 139.336 189.587C139.336 189.973 139.414 190.282 139.645 190.514C139.877 190.746 140.186 190.823 140.496 190.823C140.882 190.823 141.191 190.669 141.423 190.359C141.578 190.205 141.578 189.973 141.655 189.741C141.655 189.509 141.655 189.355 141.655 189.123C141.655 187.964 141.655 186.727 141.655 185.568C141.655 185.49 141.655 185.49 141.732 185.49C142.196 185.49 142.737 185.49 143.201 185.49C143.278 185.49 143.278 185.49 143.278 185.568C143.278 187.809 143.278 190.05 143.278 192.214C143.278 192.292 143.278 192.292 143.201 192.292C142.737 192.292 142.196 192.292 141.732 192.292C141.655 192.292 141.655 192.292 141.655 192.214C141.655 191.982 141.655 191.828 141.655 191.673Z" fill="black"/>
<path d="M147.142 192.369C146.369 192.369 145.751 192.292 145.21 192.06C144.901 191.905 144.592 191.673 144.36 191.441C144.282 191.364 144.282 191.364 144.36 191.364C144.669 191.055 145.055 190.669 145.364 190.359C145.364 190.359 145.442 190.282 145.442 190.359C145.828 190.669 146.215 190.9 146.678 190.9C147.065 190.978 147.528 190.978 147.915 190.823C148.069 190.746 148.224 190.669 148.379 190.514C148.61 190.128 148.456 189.664 147.992 189.587C147.683 189.509 147.374 189.509 147.065 189.509C146.678 189.432 146.292 189.432 145.905 189.355C145.055 189.123 144.592 188.505 144.592 187.654C144.592 186.65 145.133 185.877 146.137 185.568C146.601 185.413 147.065 185.413 147.528 185.413C148.069 185.413 148.61 185.49 149.151 185.722C149.383 185.8 149.615 185.954 149.847 186.186C149.924 186.186 149.924 186.263 149.847 186.263C149.538 186.572 149.229 186.882 148.92 187.191C148.92 187.268 148.842 187.268 148.842 187.191C148.533 186.959 148.147 186.804 147.76 186.804C147.451 186.804 147.219 186.727 146.91 186.804C146.756 186.804 146.678 186.882 146.601 186.959C146.369 187.113 146.292 187.345 146.369 187.577C146.446 187.809 146.678 187.964 146.91 187.964C147.297 188.041 147.683 188.041 148.147 188.118C148.533 188.118 148.842 188.195 149.229 188.35C149.847 188.659 150.156 189.123 150.233 189.741C150.311 190.128 150.233 190.514 150.156 190.9C149.924 191.519 149.461 191.905 148.842 192.137C148.147 192.292 147.606 192.369 147.142 192.369Z" fill="black"/>
<path d="M154.33 188.891C154.33 188.195 154.407 187.577 154.716 186.959C155.103 186.109 155.798 185.568 156.803 185.413C157.421 185.336 158.04 185.336 158.581 185.49C159.044 185.645 159.353 185.877 159.663 186.186C159.74 186.263 159.663 186.263 159.663 186.263C159.276 186.65 158.967 186.959 158.581 187.345C158.503 187.423 158.503 187.345 158.503 187.345C158.271 187.113 158.117 186.959 157.808 186.882C157.035 186.727 156.417 187.113 156.185 187.886C156.03 188.505 156.03 189.123 156.185 189.741C156.339 190.282 156.648 190.591 157.112 190.746C157.576 190.823 158.04 190.746 158.426 190.359C158.581 190.205 158.581 190.205 158.658 190.359C158.967 190.669 159.276 190.978 159.585 191.287C159.663 191.364 159.663 191.364 159.585 191.441C158.967 192.06 158.194 192.292 157.344 192.292C156.726 192.292 156.185 192.137 155.721 191.828C155.103 191.441 154.716 190.823 154.484 190.128C154.407 189.741 154.33 189.277 154.33 188.891Z" fill="black"/>
<path d="M158.735 171.424C158.658 171.424 158.658 171.424 158.735 171.424C158.194 170.883 157.73 170.42 157.267 169.956C157.189 169.879 157.267 169.879 157.267 169.801C158.117 168.951 158.967 168.101 159.817 167.251C160.822 166.246 161.826 165.241 162.831 164.237C162.908 164.159 162.908 164.159 162.986 164.237C163.449 164.7 163.913 165.164 164.3 165.628C164.377 165.705 164.377 165.705 164.3 165.782C162.522 167.637 160.667 169.492 158.735 171.424C158.735 171.347 158.735 171.424 158.735 171.424Z" fill="#EF3829"/>
<path d="M162.908 175.907C161.904 175.907 160.899 175.907 159.894 175.907C159.817 175.907 159.74 175.907 159.74 175.753C159.74 175.134 159.74 174.516 159.74 173.82C159.74 173.743 159.74 173.743 159.817 173.743C161.826 173.743 163.836 173.743 165.845 173.743C165.923 173.743 165.923 173.743 165.923 173.82C165.923 174.439 165.923 175.057 165.923 175.753C165.923 175.83 165.923 175.83 165.845 175.83C164.918 175.907 163.913 175.907 162.908 175.907Z" fill="#EF3829"/>
<path d="M152.552 166.091C152.552 165.087 152.552 164.159 152.552 163.155C152.552 163 152.63 163 152.707 163C153.325 163 153.943 163 154.639 163C154.716 163 154.716 163 154.716 163.077C154.716 165.087 154.716 167.019 154.716 169.028C154.716 169.106 154.716 169.106 154.639 169.106C154.021 169.106 153.402 169.106 152.707 169.106C152.63 169.106 152.63 169.106 152.63 169.028C152.552 168.024 152.552 167.019 152.552 166.091Z" fill="#EF3829"/>
<path d="M151.316 188.814C151.316 187.732 151.316 186.572 151.316 185.49C151.316 185.413 151.316 185.413 151.393 185.413C151.934 185.413 152.398 185.413 152.939 185.413C153.016 185.413 153.016 185.413 153.016 185.49C153.016 187.732 153.016 189.973 153.016 192.137C153.016 192.214 153.016 192.214 152.939 192.214C152.398 192.214 151.934 192.214 151.393 192.214C151.316 192.214 151.316 192.214 151.316 192.137C151.316 191.055 151.316 189.973 151.316 188.814Z" fill="black"/>
<path d="M152.166 184.563C151.547 184.563 151.084 184.1 151.084 183.481C151.084 182.863 151.547 182.399 152.166 182.399C152.784 182.399 153.248 182.863 153.248 183.481C153.248 184.1 152.784 184.563 152.166 184.563Z" fill="black"/>
<path d="M139.723 184.331C139.8 184.099 139.877 183.867 140.032 183.558C140.186 183.095 140.418 182.631 140.573 182.167C140.573 182.09 140.573 182.09 140.65 182.09C141.191 182.09 141.809 182.09 142.35 182.09C142.35 182.09 142.35 182.167 142.273 182.167C141.809 182.863 141.346 183.558 140.882 184.254C140.882 184.331 140.805 184.331 140.727 184.331C140.418 184.331 140.032 184.331 139.723 184.331Z" fill="black"/>
<path d="M187.186 173.762C187.186 173.43 187.068 173.176 186.834 173C186.6 172.82 186.178 172.633 185.568 172.438C184.959 172.238 184.477 172.043 184.121 171.852C183.152 171.328 182.668 170.623 182.668 169.736C182.668 169.275 182.797 168.865 183.055 168.506C183.316 168.143 183.689 167.859 184.174 167.656C184.662 167.453 185.209 167.352 185.814 167.352C186.424 167.352 186.967 167.463 187.443 167.686C187.92 167.904 188.289 168.215 188.551 168.617C188.816 169.02 188.949 169.477 188.949 169.988H187.191C187.191 169.598 187.068 169.295 186.822 169.08C186.576 168.861 186.23 168.752 185.785 168.752C185.355 168.752 185.021 168.844 184.783 169.027C184.545 169.207 184.426 169.445 184.426 169.742C184.426 170.02 184.564 170.252 184.842 170.439C185.123 170.627 185.535 170.803 186.078 170.967C187.078 171.268 187.807 171.641 188.264 172.086C188.721 172.531 188.949 173.086 188.949 173.75C188.949 174.488 188.67 175.068 188.111 175.49C187.553 175.908 186.801 176.117 185.855 176.117C185.199 176.117 184.602 175.998 184.062 175.76C183.523 175.518 183.111 175.188 182.826 174.77C182.545 174.352 182.404 173.867 182.404 173.316H184.168C184.168 174.258 184.73 174.729 185.855 174.729C186.273 174.729 186.6 174.645 186.834 174.477C187.068 174.305 187.186 174.066 187.186 173.762ZM196.602 167.469V173.088C196.602 174.021 196.309 174.76 195.723 175.303C195.141 175.846 194.344 176.117 193.332 176.117C192.336 176.117 191.545 175.854 190.959 175.326C190.373 174.799 190.074 174.074 190.062 173.152V167.469H191.82V173.1C191.82 173.658 191.953 174.066 192.219 174.324C192.488 174.578 192.859 174.705 193.332 174.705C194.32 174.705 194.822 174.186 194.838 173.146V167.469H196.602ZM202.467 173.762C202.467 173.43 202.35 173.176 202.115 173C201.881 172.82 201.459 172.633 200.85 172.438C200.24 172.238 199.758 172.043 199.402 171.852C198.434 171.328 197.949 170.623 197.949 169.736C197.949 169.275 198.078 168.865 198.336 168.506C198.598 168.143 198.971 167.859 199.455 167.656C199.943 167.453 200.49 167.352 201.096 167.352C201.705 167.352 202.248 167.463 202.725 167.686C203.201 167.904 203.57 168.215 203.832 168.617C204.098 169.02 204.23 169.477 204.23 169.988H202.473C202.473 169.598 202.35 169.295 202.104 169.08C201.857 168.861 201.512 168.752 201.066 168.752C200.637 168.752 200.303 168.844 200.064 169.027C199.826 169.207 199.707 169.445 199.707 169.742C199.707 170.02 199.846 170.252 200.123 170.439C200.404 170.627 200.816 170.803 201.359 170.967C202.359 171.268 203.088 171.641 203.545 172.086C204.002 172.531 204.23 173.086 204.23 173.75C204.23 174.488 203.951 175.068 203.393 175.49C202.834 175.908 202.082 176.117 201.137 176.117C200.48 176.117 199.883 175.998 199.344 175.76C198.805 175.518 198.393 175.188 198.107 174.77C197.826 174.352 197.686 173.867 197.686 173.316H199.449C199.449 174.258 200.012 174.729 201.137 174.729C201.555 174.729 201.881 174.645 202.115 174.477C202.35 174.305 202.467 174.066 202.467 173.762ZM212.123 173.158C212.057 174.076 211.717 174.799 211.104 175.326C210.494 175.854 209.689 176.117 208.689 176.117C207.596 176.117 206.734 175.75 206.105 175.016C205.48 174.277 205.168 173.266 205.168 171.98V171.459C205.168 170.639 205.312 169.916 205.602 169.291C205.891 168.666 206.303 168.188 206.838 167.855C207.377 167.52 208.002 167.352 208.713 167.352C209.697 167.352 210.49 167.615 211.092 168.143C211.693 168.67 212.041 169.41 212.135 170.363H210.377C210.334 169.812 210.18 169.414 209.914 169.168C209.652 168.918 209.252 168.793 208.713 168.793C208.127 168.793 207.688 169.004 207.395 169.426C207.105 169.844 206.957 170.494 206.949 171.377V172.021C206.949 172.943 207.088 173.617 207.365 174.043C207.646 174.469 208.088 174.682 208.689 174.682C209.232 174.682 209.637 174.559 209.902 174.312C210.172 174.062 210.326 173.678 210.365 173.158H212.123ZM216.436 172.877H215.035V176H213.277V167.469H216.447C217.455 167.469 218.232 167.693 218.779 168.143C219.326 168.592 219.6 169.227 219.6 170.047C219.6 170.629 219.473 171.115 219.219 171.506C218.969 171.893 218.588 172.201 218.076 172.432L219.922 175.918V176H218.035L216.436 172.877ZM215.035 171.453H216.453C216.895 171.453 217.236 171.342 217.479 171.119C217.721 170.893 217.842 170.582 217.842 170.188C217.842 169.785 217.727 169.469 217.496 169.238C217.27 169.008 216.92 168.893 216.447 168.893H215.035V171.453ZM222.811 176H221.053V167.469H222.811V176ZM226.203 172.994V176H224.445V167.469H227.773C228.414 167.469 228.977 167.586 229.461 167.82C229.949 168.055 230.324 168.389 230.586 168.822C230.848 169.252 230.979 169.742 230.979 170.293C230.979 171.129 230.691 171.789 230.117 172.273C229.547 172.754 228.756 172.994 227.744 172.994H226.203ZM226.203 171.57H227.773C228.238 171.57 228.592 171.461 228.834 171.242C229.08 171.023 229.203 170.711 229.203 170.305C229.203 169.887 229.08 169.549 228.834 169.291C228.588 169.033 228.248 168.9 227.814 168.893H226.203V171.57ZM238.889 173.158C238.822 174.076 238.482 174.799 237.869 175.326C237.26 175.854 236.455 176.117 235.455 176.117C234.361 176.117 233.5 175.75 232.871 175.016C232.246 174.277 231.934 173.266 231.934 171.98V171.459C231.934 170.639 232.078 169.916 232.367 169.291C232.656 168.666 233.068 168.188 233.604 167.855C234.143 167.52 234.768 167.352 235.479 167.352C236.463 167.352 237.256 167.615 237.857 168.143C238.459 168.67 238.807 169.41 238.9 170.363H237.143C237.1 169.812 236.945 169.414 236.68 169.168C236.418 168.918 236.018 168.793 235.479 168.793C234.893 168.793 234.453 169.004 234.16 169.426C233.871 169.844 233.723 170.494 233.715 171.377V172.021C233.715 172.943 233.854 173.617 234.131 174.043C234.412 174.469 234.854 174.682 235.455 174.682C235.998 174.682 236.402 174.559 236.668 174.312C236.938 174.062 237.092 173.678 237.131 173.158H238.889ZM241.912 176H240.154V167.469H241.912V176ZM250.555 171.928C250.555 172.768 250.406 173.504 250.109 174.137C249.812 174.77 249.387 175.258 248.832 175.602C248.281 175.945 247.648 176.117 246.934 176.117C246.227 176.117 245.596 175.947 245.041 175.607C244.486 175.268 244.057 174.783 243.752 174.154C243.447 173.521 243.293 172.795 243.289 171.975V171.553C243.289 170.713 243.439 169.975 243.74 169.338C244.045 168.697 244.473 168.207 245.023 167.867C245.578 167.523 246.211 167.352 246.922 167.352C247.633 167.352 248.264 167.523 248.814 167.867C249.369 168.207 249.797 168.697 250.098 169.338C250.402 169.975 250.555 170.711 250.555 171.547V171.928ZM248.773 171.541C248.773 170.646 248.613 169.967 248.293 169.502C247.973 169.037 247.516 168.805 246.922 168.805C246.332 168.805 245.877 169.035 245.557 169.496C245.236 169.953 245.074 170.625 245.07 171.512V171.928C245.07 172.799 245.23 173.475 245.551 173.955C245.871 174.436 246.332 174.676 246.934 174.676C247.523 174.676 247.977 174.445 248.293 173.984C248.609 173.52 248.77 172.844 248.773 171.957V171.541ZM247.262 165.184H249.107L247.484 167H246.107L247.262 165.184ZM258.77 176H257.012L253.59 170.387V176H251.832V167.469H253.59L257.018 173.094V167.469H258.77V176ZM266.457 171.424H268.836V172.449H266.457V175.145H265.367V172.449H262.988V171.424H265.367V168.934H266.457V171.424ZM273.523 171.723L273.957 167.469H278.328V168.471H274.877L274.619 170.797C275.037 170.551 275.512 170.428 276.043 170.428C276.82 170.428 277.438 170.686 277.895 171.201C278.352 171.713 278.58 172.406 278.58 173.281C278.58 174.16 278.342 174.854 277.865 175.361C277.393 175.865 276.73 176.117 275.879 176.117C275.125 176.117 274.51 175.908 274.033 175.49C273.557 175.072 273.285 174.494 273.219 173.756H274.244C274.311 174.244 274.484 174.613 274.766 174.863C275.047 175.109 275.418 175.232 275.879 175.232C276.383 175.232 276.777 175.061 277.062 174.717C277.352 174.373 277.496 173.898 277.496 173.293C277.496 172.723 277.34 172.266 277.027 171.922C276.719 171.574 276.307 171.4 275.791 171.4C275.318 171.4 274.947 171.504 274.678 171.711L274.391 171.945L273.523 171.723ZM289.32 174.881C289.031 175.295 288.627 175.605 288.107 175.812C287.592 176.016 286.99 176.117 286.303 176.117C285.607 176.117 284.99 175.955 284.451 175.631C283.912 175.303 283.494 174.838 283.197 174.236C282.904 173.635 282.754 172.938 282.746 172.145V171.4C282.746 170.115 283.045 169.119 283.643 168.412C284.244 167.705 285.088 167.352 286.174 167.352C287.064 167.352 287.781 167.58 288.324 168.037C288.867 168.49 289.199 169.135 289.32 169.971H288.195C287.984 168.842 287.312 168.277 286.18 168.277C285.426 168.277 284.854 168.543 284.463 169.074C284.076 169.602 283.881 170.367 283.877 171.371V172.068C283.877 173.025 284.096 173.787 284.533 174.354C284.971 174.916 285.562 175.197 286.309 175.197C286.73 175.197 287.1 175.15 287.416 175.057C287.732 174.963 287.994 174.805 288.201 174.582V172.666H286.227V171.752H289.32V174.881ZM291.201 176V167.469H293.99C294.916 167.469 295.611 167.66 296.076 168.043C296.545 168.426 296.779 168.992 296.779 169.742C296.779 170.141 296.666 170.494 296.439 170.803C296.213 171.107 295.904 171.344 295.514 171.512C295.975 171.641 296.338 171.887 296.604 172.25C296.873 172.609 297.008 173.039 297.008 173.539C297.008 174.305 296.76 174.906 296.264 175.344C295.768 175.781 295.066 176 294.16 176H291.201ZM292.326 172.01V175.08H294.184C294.707 175.08 295.119 174.945 295.42 174.676C295.725 174.402 295.877 174.027 295.877 173.551C295.877 172.523 295.318 172.01 294.201 172.01H292.326ZM292.326 171.107H294.025C294.518 171.107 294.91 170.984 295.203 170.738C295.5 170.492 295.648 170.158 295.648 169.736C295.648 169.268 295.512 168.928 295.238 168.717C294.965 168.502 294.549 168.395 293.99 168.395H292.326V171.107Z" fill="#222222"/>
<path d="M184.115 188.66V192H182.99V183.469H186.137C187.07 183.469 187.801 183.707 188.328 184.184C188.859 184.66 189.125 185.291 189.125 186.076C189.125 186.904 188.865 187.543 188.346 187.992C187.83 188.438 187.09 188.66 186.125 188.66H184.115ZM184.115 187.74H186.137C186.738 187.74 187.199 187.6 187.52 187.318C187.84 187.033 188 186.623 188 186.088C188 185.58 187.84 185.174 187.52 184.869C187.199 184.564 186.76 184.406 186.201 184.395H184.115V187.74ZM194.463 189.773H190.889L190.086 192H188.926L192.184 183.469H193.168L196.432 192H195.277L194.463 189.773ZM191.229 188.848H194.129L192.676 184.857L191.229 188.848ZM200.709 188.549H198.705V192H197.574V183.469H200.398C201.359 183.469 202.098 183.688 202.613 184.125C203.133 184.562 203.393 185.199 203.393 186.035C203.393 186.566 203.248 187.029 202.959 187.424C202.674 187.818 202.275 188.113 201.764 188.309L203.768 191.93V192H202.561L200.709 188.549ZM198.705 187.629H200.434C200.992 187.629 201.436 187.484 201.764 187.195C202.096 186.906 202.262 186.52 202.262 186.035C202.262 185.508 202.104 185.104 201.787 184.822C201.475 184.541 201.021 184.398 200.428 184.395H198.705V187.629ZM209.686 189.773H206.111L205.309 192H204.148L207.406 183.469H208.391L211.654 192H210.5L209.686 189.773ZM206.451 188.848H209.352L207.898 184.857L206.451 188.848ZM222.055 189.293C221.949 190.195 221.615 190.893 221.053 191.385C220.494 191.873 219.75 192.117 218.82 192.117C217.812 192.117 217.004 191.756 216.395 191.033C215.789 190.311 215.486 189.344 215.486 188.133V187.312C215.486 186.52 215.627 185.822 215.908 185.221C216.193 184.619 216.596 184.158 217.115 183.838C217.635 183.514 218.236 183.352 218.92 183.352C219.826 183.352 220.553 183.605 221.1 184.113C221.646 184.617 221.965 185.316 222.055 186.211H220.924C220.826 185.531 220.613 185.039 220.285 184.734C219.961 184.43 219.506 184.277 218.92 184.277C218.201 184.277 217.637 184.543 217.227 185.074C216.82 185.605 216.617 186.361 216.617 187.342V188.168C216.617 189.094 216.811 189.83 217.197 190.377C217.584 190.924 218.125 191.197 218.82 191.197C219.445 191.197 219.924 191.057 220.256 190.775C220.592 190.49 220.814 189.996 220.924 189.293H222.055ZM224.727 191.08H228.77V192H223.596V183.469H224.727V191.08ZM234.881 189.773H231.307L230.504 192H229.344L232.602 183.469H233.586L236.85 192H235.695L234.881 189.773ZM231.646 188.848H234.547L233.094 184.857L231.646 188.848ZM241.127 188.549H239.123V192H237.992V183.469H240.816C241.777 183.469 242.516 183.688 243.031 184.125C243.551 184.562 243.811 185.199 243.811 186.035C243.811 186.566 243.666 187.029 243.377 187.424C243.092 187.818 242.693 188.113 242.182 188.309L244.186 191.93V192H242.979L241.127 188.549ZM239.123 187.629H240.852C241.41 187.629 241.854 187.484 242.182 187.195C242.514 186.906 242.68 186.52 242.68 186.035C242.68 185.508 242.521 185.104 242.205 184.822C241.893 184.541 241.439 184.398 240.846 184.395H239.123V187.629ZM251.955 188.01C251.955 188.846 251.814 189.576 251.533 190.201C251.252 190.822 250.854 191.297 250.338 191.625C249.822 191.953 249.221 192.117 248.533 192.117C247.861 192.117 247.266 191.953 246.746 191.625C246.227 191.293 245.822 190.822 245.533 190.213C245.248 189.6 245.102 188.891 245.094 188.086V187.471C245.094 186.65 245.236 185.926 245.521 185.297C245.807 184.668 246.209 184.188 246.729 183.855C247.252 183.52 247.85 183.352 248.521 183.352C249.205 183.352 249.807 183.518 250.326 183.85C250.85 184.178 251.252 184.656 251.533 185.285C251.814 185.91 251.955 186.639 251.955 187.471V188.01ZM250.836 187.459C250.836 186.447 250.633 185.672 250.227 185.133C249.82 184.59 249.252 184.318 248.521 184.318C247.811 184.318 247.25 184.59 246.84 185.133C246.434 185.672 246.225 186.422 246.213 187.383V188.01C246.213 188.99 246.418 189.762 246.828 190.324C247.242 190.883 247.811 191.162 248.533 191.162C249.26 191.162 249.822 190.898 250.221 190.371C250.619 189.84 250.824 189.08 250.836 188.092V187.459ZM259.443 190.506L261.881 183.469H263.111L259.947 192H258.951L255.793 183.469H257.018L259.443 190.506ZM265.467 192H264.342V183.469H265.467V192ZM267.529 192V183.469H269.938C270.68 183.469 271.336 183.633 271.906 183.961C272.477 184.289 272.916 184.756 273.225 185.361C273.537 185.967 273.695 186.662 273.699 187.447V187.992C273.699 188.797 273.543 189.502 273.23 190.107C272.922 190.713 272.479 191.178 271.9 191.502C271.326 191.826 270.656 191.992 269.891 192H267.529ZM268.654 184.395V191.08H269.838C270.705 191.08 271.379 190.811 271.859 190.271C272.344 189.732 272.586 188.965 272.586 187.969V187.471C272.586 186.502 272.357 185.75 271.9 185.215C271.447 184.676 270.803 184.402 269.967 184.395H268.654ZM280.227 188.057H276.529V191.08H280.824V192H275.404V183.469H280.766V184.395H276.529V187.137H280.227V188.057ZM288.787 188.01C288.787 188.846 288.646 189.576 288.365 190.201C288.084 190.822 287.686 191.297 287.17 191.625C286.654 191.953 286.053 192.117 285.365 192.117C284.693 192.117 284.098 191.953 283.578 191.625C283.059 191.293 282.654 190.822 282.365 190.213C282.08 189.6 281.934 188.891 281.926 188.086V187.471C281.926 186.65 282.068 185.926 282.354 185.297C282.639 184.668 283.041 184.188 283.561 183.855C284.084 183.52 284.682 183.352 285.354 183.352C286.037 183.352 286.639 183.518 287.158 183.85C287.682 184.178 288.084 184.656 288.365 185.285C288.646 185.91 288.787 186.639 288.787 187.471V188.01ZM287.668 187.459C287.668 186.447 287.465 185.672 287.059 185.133C286.652 184.59 286.084 184.318 285.354 184.318C284.643 184.318 284.082 184.59 283.672 185.133C283.266 185.672 283.057 186.422 283.045 187.383V188.01C283.045 188.99 283.25 189.762 283.66 190.324C284.074 190.883 284.643 191.162 285.365 191.162C286.092 191.162 286.654 190.898 287.053 190.371C287.451 189.84 287.656 189.08 287.668 188.092V187.459Z" fill="#222222"/>
<defs>
<filter id="filter0_d" x="150.25" y="101.156" width="17.9375" height="18.5625" filterUnits="userSpaceOnUse" color-interpolation-filters="sRGB">
<feFlood flood-opacity="0" result="BackgroundImageFix"/>
<feColorMatrix in="SourceAlpha" type="matrix" values="0 0 0 0 0 0 0 0 0 0 0 0 0 0 0 0 0 0 127 0"/>
<feOffset dx="2" dy="2"/>
<feColorMatrix type="matrix" values="0 0 0 0 0 0 0 0 0 0 0 0 0 0 0 0 0 0 0.15 0"/>
<feBlend mode="normal" in2="BackgroundImageFix" result="effect1_dropShadow"/>
<feBlend mode="normal" in="SourceGraphic" in2="effect1_dropShadow" result="shape"/>
</filter>
<filter id="filter1_d" x="95.8125" y="172.867" width="13.9531" height="14.4219" filterUnits="userSpaceOnUse" color-interpolation-filters="sRGB">
<feFlood flood-opacity="0" result="BackgroundImageFix"/>
<feColorMatrix in="SourceAlpha" type="matrix" values="0 0 0 0 0 0 0 0 0 0 0 0 0 0 0 0 0 0 127 0"/>
<feOffset dx="2" dy="2"/>
<feColorMatrix type="matrix" values="0 0 0 0 0 0 0 0 0 0 0 0 0 0 0 0 0 0 0.15 0"/>
<feBlend mode="normal" in2="BackgroundImageFix" result="effect1_dropShadow"/>
<feBlend mode="normal" in="SourceGraphic" in2="effect1_dropShadow" result="shape"/>
</filter>
<clipPath id="clip0">
<rect width="50" height="28.7879" fill="white" transform="translate(33 163)"/>
</clipPath>
</defs>
</svg>
