<svg width="331" height="237" viewBox="0 0 331 237" fill="none" xmlns="http://www.w3.org/2000/svg">
<rect width="331" height="237" fill="#F5F5F5"/>
<path opacity="0.2" d="M21.5595 39.6015C22.5968 41.7222 24.3158 43.4334 26.4412 44.461C26.5967 44.5347 26.7687 44.5666 26.9403 44.5537C27.1119 44.5407 27.2771 44.4832 27.4198 44.387L30.5492 42.3002C30.6877 42.2079 30.8469 42.1516 31.0126 42.1364C31.1782 42.1212 31.3451 42.1475 31.498 42.213L37.3526 44.7222C37.5515 44.8067 37.7175 44.9535 37.8257 45.1405C37.9339 45.3276 37.9783 45.5447 37.9524 45.7593C37.7673 47.2073 37.0608 48.5382 35.9652 49.5028C34.8695 50.4674 33.4598 50.9996 32 50.9996C27.4913 50.9996 23.1673 49.2086 19.9792 46.0204C16.7911 42.8323 15 38.5083 15 33.9996C15.0001 32.5399 15.5322 31.1301 16.4969 30.0345C17.4615 28.9388 18.7924 28.2323 20.2404 28.0473C20.4549 28.0213 20.672 28.0658 20.8591 28.1739C21.0461 28.2821 21.193 28.4482 21.2775 28.647L23.7888 34.5068C23.8537 34.6583 23.8802 34.8236 23.8658 34.9879C23.8514 35.1522 23.7967 35.3103 23.7064 35.4483L21.6268 38.6258C21.5322 38.7687 21.4762 38.9338 21.4644 39.1048C21.4526 39.2758 21.4854 39.447 21.5595 39.6015Z" fill="#EF3829"/>
<path d="M21.5595 39.6015C22.5968 41.7222 24.3158 43.4334 26.4412 44.461C26.5967 44.5347 26.7687 44.5666 26.9403 44.5537C27.1119 44.5407 27.2771 44.4832 27.4198 44.387L30.5492 42.3002C30.6877 42.2079 30.8469 42.1516 31.0126 42.1364C31.1782 42.1212 31.3451 42.1475 31.498 42.213L37.3526 44.7222C37.5515 44.8067 37.7175 44.9535 37.8257 45.1405C37.9339 45.3276 37.9783 45.5447 37.9524 45.7593C37.7673 47.2073 37.0608 48.5382 35.9652 49.5028C34.8695 50.4674 33.4598 50.9996 32 50.9996C27.4913 50.9996 23.1673 49.2086 19.9792 46.0204C16.7911 42.8323 15 38.5083 15 33.9996C15.0001 32.5399 15.5322 31.1301 16.4969 30.0345C17.4615 28.9388 18.7924 28.2323 20.2404 28.0473C20.4549 28.0213 20.672 28.0658 20.8591 28.1739C21.0461 28.2821 21.193 28.4482 21.2775 28.647L23.7888 34.5068C23.8537 34.6583 23.8802 34.8236 23.8658 34.9879C23.8514 35.1522 23.7967 35.3103 23.7064 35.4483L21.6268 38.6258C21.5322 38.7687 21.4762 38.9338 21.4644 39.1048C21.4526 39.2758 21.4854 39.447 21.5595 39.6015V39.6015Z" stroke="#EF3829" stroke-width="2" stroke-linecap="round" stroke-linejoin="round"/>
<path d="M51.6719 44H47.5703V26.9375H51.6719V44ZM58.6445 40.8359H65.8047V44H54.5312V26.9375H58.6445V40.8359ZM71.9219 44H67.8203V26.9375H71.9219V44ZM80.1836 26.9375L83.9922 38.8086L87.7891 26.9375H93.2031V44H89.0781V40.0156L89.4766 31.8594L85.3516 44H82.6328L78.4961 31.8477L78.8945 40.0156V44H74.7812V26.9375H80.1836ZM100.211 44H96.1094V26.9375H100.211V44ZM116.113 30.1133H110.992V44H106.879V30.1133H101.852V26.9375H116.113V30.1133ZM126.145 40.8125H120.508L119.523 44H115.129L121.387 26.9375H125.254L131.559 44H127.141L126.145 40.8125ZM121.492 37.6367H125.16L123.32 31.7188L121.492 37.6367ZM132.812 44V26.9375H138.309C139.816 26.9375 141.172 27.2812 142.375 27.9688C143.578 28.6484 144.516 29.6133 145.188 30.8633C145.867 32.1055 146.211 33.5 146.219 35.0469V35.832C146.219 37.3945 145.887 38.7969 145.223 40.0391C144.566 41.2734 143.637 42.2422 142.434 42.9453C141.238 43.6406 139.902 43.9922 138.426 44H132.812ZM136.926 30.1133V40.8359H138.355C139.535 40.8359 140.441 40.418 141.074 39.582C141.707 38.7383 142.023 37.4883 142.023 35.832V35.0938C142.023 33.4453 141.707 32.2031 141.074 31.3672C140.441 30.5312 139.52 30.1133 138.309 30.1133H136.926ZM162.777 35.8203C162.777 37.4844 162.469 38.957 161.852 40.2383C161.234 41.5195 160.355 42.5078 159.215 43.2031C158.082 43.8906 156.789 44.2344 155.336 44.2344C153.883 44.2344 152.594 43.9023 151.469 43.2383C150.344 42.5664 149.465 41.6094 148.832 40.3672C148.207 39.125 147.879 37.6992 147.848 36.0898V35.1289C147.848 33.457 148.152 31.9844 148.762 30.7109C149.379 29.4297 150.258 28.4414 151.398 27.7461C152.547 27.0508 153.852 26.7031 155.312 26.7031C156.758 26.7031 158.047 27.0469 159.18 27.7344C160.312 28.4219 161.191 29.4023 161.816 30.6758C162.449 31.9414 162.77 33.3945 162.777 35.0352V35.8203ZM158.594 35.1055C158.594 33.4102 158.309 32.125 157.738 31.25C157.176 30.3672 156.367 29.9258 155.312 29.9258C153.25 29.9258 152.16 31.4727 152.043 34.5664L152.031 35.8203C152.031 37.4922 152.309 38.7773 152.863 39.6758C153.418 40.5742 154.242 41.0234 155.336 41.0234C156.375 41.0234 157.176 40.582 157.738 39.6992C158.301 38.8164 158.586 37.5469 158.594 35.8906V35.1055ZM173.699 39.4648C173.699 38.8633 173.484 38.3945 173.055 38.0586C172.633 37.7227 171.887 37.375 170.816 37.0156C169.746 36.6562 168.871 36.3086 168.191 35.9727C165.98 34.8867 164.875 33.3945 164.875 31.4961C164.875 30.5508 165.148 29.7188 165.695 29C166.25 28.2734 167.031 27.7109 168.039 27.3125C169.047 26.9062 170.18 26.7031 171.438 26.7031C172.664 26.7031 173.762 26.9219 174.73 27.3594C175.707 27.7969 176.465 28.4219 177.004 29.2344C177.543 30.0391 177.812 30.9609 177.812 32H173.711C173.711 31.3047 173.496 30.7656 173.066 30.3828C172.645 30 172.07 29.8086 171.344 29.8086C170.609 29.8086 170.027 29.9727 169.598 30.3008C169.176 30.6211 168.965 31.0312 168.965 31.5312C168.965 31.9688 169.199 32.3672 169.668 32.7266C170.137 33.0781 170.961 33.4453 172.141 33.8281C173.32 34.2031 174.289 34.6094 175.047 35.0469C176.891 36.1094 177.812 37.5742 177.812 39.4414C177.812 40.9336 177.25 42.1055 176.125 42.957C175 43.8086 173.457 44.2344 171.496 44.2344C170.113 44.2344 168.859 43.9883 167.734 43.4961C166.617 42.9961 165.773 42.3164 165.203 41.457C164.641 40.5898 164.359 39.5938 164.359 38.4688H168.484C168.484 39.3828 168.719 40.0586 169.188 40.4961C169.664 40.9258 170.434 41.1406 171.496 41.1406C172.176 41.1406 172.711 40.9961 173.102 40.707C173.5 40.4102 173.699 39.9961 173.699 39.4648Z" fill="#EF3829"/>
<path d="M48.0361 51.8906L50.3604 57.6914L52.6846 51.8906H53.9004V59H52.9629V56.2314L53.0508 53.2432L50.7168 59H49.999L47.6699 53.2578L47.7627 56.2314V59H46.8252V51.8906H48.0361ZM57.7615 59H56.824V51.8906H57.7615V59ZM66.1441 59H65.2018L61.6227 53.5215V59H60.6803V51.8906H61.6227L65.2115 57.3936V51.8906H66.1441V59ZM74.0141 51.8906V56.7246C74.0108 57.3952 73.7992 57.9437 73.3793 58.3701C72.9626 58.7965 72.3962 59.0358 71.6801 59.0879L71.4311 59.0977C70.6531 59.0977 70.0329 58.8877 69.5707 58.4678C69.1085 58.0479 68.8741 57.4701 68.8676 56.7344V51.8906H69.7953V56.7051C69.7953 57.2194 69.9369 57.6198 70.2201 57.9062C70.5033 58.1895 70.907 58.3311 71.4311 58.3311C71.9617 58.3311 72.3669 58.1895 72.6469 57.9062C72.9301 57.623 73.0717 57.2243 73.0717 56.71V51.8906H74.0141ZM81.6057 52.6621H79.3205V59H78.3879V52.6621H76.1076V51.8906H81.6057V52.6621ZM89.1924 55.6748C89.1924 56.3714 89.0752 56.9801 88.8408 57.501C88.6064 58.0186 88.2744 58.4141 87.8447 58.6875C87.415 58.9609 86.9137 59.0977 86.3408 59.0977C85.7809 59.0977 85.2845 58.9609 84.8516 58.6875C84.4186 58.4108 84.0817 58.0186 83.8408 57.5107C83.6032 56.9997 83.4811 56.4089 83.4746 55.7383V55.2256C83.4746 54.542 83.5934 53.9382 83.8311 53.4141C84.0687 52.89 84.404 52.4896 84.8369 52.2129C85.2731 51.9329 85.7712 51.793 86.3311 51.793C86.9007 51.793 87.402 51.9313 87.835 52.208C88.2712 52.4814 88.6064 52.8802 88.8408 53.4043C89.0752 53.9251 89.1924 54.5322 89.1924 55.2256V55.6748ZM88.2598 55.2158C88.2598 54.3727 88.0905 53.7266 87.752 53.2773C87.4134 52.8249 86.9398 52.5986 86.3311 52.5986C85.7386 52.5986 85.2715 52.8249 84.9297 53.2773C84.5911 53.7266 84.417 54.3516 84.4072 55.1523V55.6748C84.4072 56.4919 84.5781 57.1348 84.9199 57.6035C85.265 58.069 85.7386 58.3018 86.3408 58.3018C86.9463 58.3018 87.415 58.082 87.7471 57.6426C88.0791 57.1999 88.25 56.5667 88.2598 55.7432V55.2158ZM93.8934 55.8311C93.0893 55.5999 92.5034 55.3167 92.1355 54.9814C91.771 54.6429 91.5887 54.2262 91.5887 53.7314C91.5887 53.1715 91.8117 52.7093 92.2576 52.3447C92.7068 51.9769 93.2895 51.793 94.0057 51.793C94.4939 51.793 94.9285 51.8874 95.3094 52.0762C95.6935 52.265 95.9897 52.5254 96.198 52.8574C96.4096 53.1895 96.5154 53.5524 96.5154 53.9463H95.573C95.573 53.5166 95.4363 53.1797 95.1629 52.9355C94.8895 52.6882 94.5037 52.5645 94.0057 52.5645C93.5434 52.5645 93.1821 52.667 92.9217 52.8721C92.6645 53.0739 92.5359 53.3555 92.5359 53.7168C92.5359 54.0065 92.658 54.2523 92.9021 54.4541C93.1495 54.6527 93.5678 54.835 94.157 55.001C94.7495 55.167 95.2117 55.3509 95.5438 55.5527C95.879 55.7513 96.1264 55.984 96.2859 56.251C96.4487 56.5179 96.5301 56.832 96.5301 57.1934C96.5301 57.7695 96.3055 58.2318 95.8563 58.5801C95.407 58.9251 94.8064 59.0977 94.0545 59.0977C93.5662 59.0977 93.1105 59.0049 92.6873 58.8193C92.2641 58.6305 91.937 58.3734 91.7059 58.0479C91.478 57.7223 91.3641 57.3529 91.3641 56.9395H92.3064C92.3064 57.3691 92.4643 57.7093 92.7801 57.96C93.0991 58.2074 93.5239 58.3311 94.0545 58.3311C94.5493 58.3311 94.9285 58.2301 95.1922 58.0283C95.4559 57.8265 95.5877 57.5514 95.5877 57.2031C95.5877 56.8548 95.4656 56.5863 95.2215 56.3975C94.9773 56.2054 94.5346 56.0166 93.8934 55.8311ZM106.542 57.1445H103.564L102.895 59H101.928L104.643 51.8906H105.463L108.183 59H107.221L106.542 57.1445ZM103.847 56.373H106.264L105.053 53.0479L103.847 56.373ZM118.737 52.6621H116.452V59H115.52V52.6621H113.239V51.8906H118.737V52.6621ZM126.324 55.6748C126.324 56.3714 126.207 56.9801 125.972 57.501C125.738 58.0186 125.406 58.4141 124.976 58.6875C124.547 58.9609 124.045 59.0977 123.472 59.0977C122.913 59.0977 122.416 58.9609 121.983 58.6875C121.55 58.4108 121.213 58.0186 120.972 57.5107C120.735 56.9997 120.613 56.4089 120.606 55.7383V55.2256C120.606 54.542 120.725 53.9382 120.963 53.4141C121.2 52.89 121.536 52.4896 121.969 52.2129C122.405 51.9329 122.903 51.793 123.463 51.793C124.032 51.793 124.534 51.9313 124.967 52.208C125.403 52.4814 125.738 52.8802 125.972 53.4043C126.207 53.9251 126.324 54.5322 126.324 55.2256V55.6748ZM125.391 55.2158C125.391 54.3727 125.222 53.7266 124.884 53.2773C124.545 52.8249 124.071 52.5986 123.463 52.5986C122.87 52.5986 122.403 52.8249 122.061 53.2773C121.723 53.7266 121.549 54.3516 121.539 55.1523V55.6748C121.539 56.4919 121.71 57.1348 122.052 57.6035C122.397 58.069 122.87 58.3018 123.472 58.3018C124.078 58.3018 124.547 58.082 124.879 57.6426C125.211 57.1999 125.382 56.5667 125.391 55.7432V55.2158ZM128.93 59V51.8906H130.937C131.556 51.8906 132.102 52.0273 132.578 52.3008C133.053 52.5742 133.419 52.9632 133.676 53.4678C133.937 53.9723 134.069 54.5518 134.072 55.2061V55.6602C134.072 56.3307 133.942 56.9183 133.681 57.4229C133.424 57.9274 133.055 58.3148 132.573 58.585C132.094 58.8551 131.536 58.9935 130.898 59H128.93ZM129.868 52.6621V58.2334H130.854C131.577 58.2334 132.138 58.0088 132.539 57.5596C132.942 57.1104 133.144 56.4707 133.144 55.6406V55.2256C133.144 54.4183 132.954 53.7917 132.573 53.3457C132.195 52.8965 131.658 52.6686 130.962 52.6621H129.868ZM142.162 55.6748C142.162 56.3714 142.044 56.9801 141.81 57.501C141.576 58.0186 141.244 58.4141 140.814 58.6875C140.384 58.9609 139.883 59.0977 139.31 59.0977C138.75 59.0977 138.254 58.9609 137.821 58.6875C137.388 58.4108 137.051 58.0186 136.81 57.5107C136.572 56.9997 136.45 56.4089 136.444 55.7383V55.2256C136.444 54.542 136.563 53.9382 136.8 53.4141C137.038 52.89 137.373 52.4896 137.806 52.2129C138.242 51.9329 138.74 51.793 139.3 51.793C139.87 51.793 140.371 51.9313 140.804 52.208C141.24 52.4814 141.576 52.8802 141.81 53.4043C142.044 53.9251 142.162 54.5322 142.162 55.2256V55.6748ZM141.229 55.2158C141.229 54.3727 141.06 53.7266 140.721 53.2773C140.383 52.8249 139.909 52.5986 139.3 52.5986C138.708 52.5986 138.241 52.8249 137.899 53.2773C137.56 53.7266 137.386 54.3516 137.376 55.1523V55.6748C137.376 56.4919 137.547 57.1348 137.889 57.6035C138.234 58.069 138.708 58.3018 139.31 58.3018C139.915 58.3018 140.384 58.082 140.716 57.6426C141.048 57.1999 141.219 56.5667 141.229 55.7432V55.2158ZM146.863 55.8311C146.058 55.5999 145.473 55.3167 145.105 54.9814C144.74 54.6429 144.558 54.2262 144.558 53.7314C144.558 53.1715 144.781 52.7093 145.227 52.3447C145.676 51.9769 146.259 51.793 146.975 51.793C147.463 51.793 147.898 51.8874 148.279 52.0762C148.663 52.265 148.959 52.5254 149.167 52.8574C149.379 53.1895 149.485 53.5524 149.485 53.9463H148.542C148.542 53.5166 148.405 53.1797 148.132 52.9355C147.859 52.6882 147.473 52.5645 146.975 52.5645C146.513 52.5645 146.151 52.667 145.891 52.8721C145.634 53.0739 145.505 53.3555 145.505 53.7168C145.505 54.0065 145.627 54.2523 145.871 54.4541C146.119 54.6527 146.537 54.835 147.126 55.001C147.719 55.167 148.181 55.3509 148.513 55.5527C148.848 55.7513 149.096 55.984 149.255 56.251C149.418 56.5179 149.499 56.832 149.499 57.1934C149.499 57.7695 149.275 58.2318 148.825 58.5801C148.376 58.9251 147.776 59.0977 147.024 59.0977C146.535 59.0977 146.08 59.0049 145.656 58.8193C145.233 58.6305 144.906 58.3734 144.675 58.0479C144.447 57.7223 144.333 57.3529 144.333 56.9395H145.276C145.276 57.3691 145.433 57.7093 145.749 57.96C146.068 58.2074 146.493 58.3311 147.024 58.3311C147.518 58.3311 147.898 58.2301 148.161 58.0283C148.425 57.8265 148.557 57.5514 148.557 57.2031C148.557 56.8548 148.435 56.5863 148.191 56.3975C147.946 56.2054 147.504 56.0166 146.863 55.8311Z" fill="#222222"/>
<g filter="url(#filter0_d)">
<path d="M206.516 38.0938H211.688L210.906 42.6094H205.75L204.672 48.7188H199.875L200.938 42.6094H195.75L196.531 38.0938H201.719L202.75 32.1562H207.547L206.516 38.0938Z" fill="#EF3829"/>
</g>
<path d="M237.797 44H233.836V31.3906L229.945 32.5273V29.5273L237.434 26.9375H237.797V44ZM254.789 37.0273C254.789 39.332 254.27 41.1094 253.23 42.3594C252.199 43.6094 250.742 44.2344 248.859 44.2344C246.961 44.2344 245.492 43.6055 244.453 42.3477C243.414 41.0898 242.895 39.3164 242.895 37.0273V33.9102C242.895 31.6055 243.41 29.8281 244.441 28.5781C245.48 27.3281 246.945 26.7031 248.836 26.7031C250.727 26.7031 252.191 27.332 253.23 28.5898C254.27 29.8477 254.789 31.625 254.789 33.9219V37.0273ZM250.84 33.4062C250.84 32.1797 250.68 31.2656 250.359 30.6641C250.039 30.0547 249.531 29.75 248.836 29.75C248.156 29.75 247.66 30.0312 247.348 30.5938C247.043 31.1562 246.879 32.0078 246.855 33.1484V37.5078C246.855 38.7812 247.016 39.7148 247.336 40.3086C247.656 40.8945 248.164 41.1875 248.859 41.1875C249.531 41.1875 250.027 40.9023 250.348 40.332C250.668 39.7539 250.832 38.8516 250.84 37.625V33.4062ZM268.688 37.0273C268.688 39.332 268.168 41.1094 267.129 42.3594C266.098 43.6094 264.641 44.2344 262.758 44.2344C260.859 44.2344 259.391 43.6055 258.352 42.3477C257.312 41.0898 256.793 39.3164 256.793 37.0273V33.9102C256.793 31.6055 257.309 29.8281 258.34 28.5781C259.379 27.3281 260.844 26.7031 262.734 26.7031C264.625 26.7031 266.09 27.332 267.129 28.5898C268.168 29.8477 268.688 31.625 268.688 33.9219V37.0273ZM264.738 33.4062C264.738 32.1797 264.578 31.2656 264.258 30.6641C263.938 30.0547 263.43 29.75 262.734 29.75C262.055 29.75 261.559 30.0312 261.246 30.5938C260.941 31.1562 260.777 32.0078 260.754 33.1484V37.5078C260.754 38.7812 260.914 39.7148 261.234 40.3086C261.555 40.8945 262.062 41.1875 262.758 41.1875C263.43 41.1875 263.926 40.9023 264.246 40.332C264.566 39.7539 264.73 38.8516 264.738 37.625V33.4062ZM282.363 26.9375L286.172 38.8086L289.969 26.9375H295.383V44H291.258V40.0156L291.656 31.8594L287.531 44H284.812L280.676 31.8477L281.074 40.0156V44H276.961V26.9375H282.363ZM302.391 44H298.289V26.9375H302.391V44ZM319.5 44H315.41L309.363 33.3828V44H305.25V26.9375H309.363L315.398 37.5547V26.9375H319.5V44Z" fill="#222222"/>
<path d="M229.768 55.2334H233.137V56H228.825V48.8906H229.768V55.2334ZM238.229 54.1445H235.251L234.582 56H233.615L236.33 48.8906H237.15L239.87 56H238.908L238.229 54.1445ZM235.534 53.373H237.951L236.74 50.0479L235.534 53.373ZM243.435 53.124H241.765V56H240.822V48.8906H243.176C243.977 48.8906 244.592 49.0729 245.021 49.4375C245.454 49.8021 245.671 50.3327 245.671 51.0293C245.671 51.472 245.55 51.8577 245.31 52.1865C245.072 52.5153 244.74 52.7611 244.313 52.9238L245.983 55.9414V56H244.978L243.435 53.124ZM241.765 52.3574H243.205C243.671 52.3574 244.04 52.237 244.313 51.9961C244.59 51.7552 244.729 51.4329 244.729 51.0293C244.729 50.5898 244.597 50.2529 244.333 50.0186C244.073 49.7842 243.695 49.6654 243.2 49.6621H241.765V52.3574ZM252.238 55.0674C251.997 55.4124 251.66 55.6712 251.228 55.8438C250.798 56.013 250.297 56.0977 249.724 56.0977C249.144 56.0977 248.63 55.9626 248.181 55.6924C247.731 55.4189 247.383 55.0316 247.136 54.5303C246.892 54.029 246.766 53.4479 246.76 52.7871V52.167C246.76 51.096 247.009 50.266 247.507 49.6768C248.008 49.0876 248.711 48.793 249.616 48.793C250.358 48.793 250.956 48.9834 251.408 49.3643C251.861 49.7419 252.137 50.279 252.238 50.9756H251.301C251.125 50.0348 250.565 49.5645 249.621 49.5645C248.993 49.5645 248.516 49.7858 248.19 50.2285C247.868 50.668 247.705 51.306 247.702 52.1426V52.7236C247.702 53.5212 247.884 54.1559 248.249 54.6279C248.614 55.0967 249.107 55.3311 249.729 55.3311C250.08 55.3311 250.388 55.292 250.651 55.2139C250.915 55.1357 251.133 55.0039 251.306 54.8184V53.2217H249.66V52.46H252.238V55.0674ZM257.731 54.1445H254.753L254.084 56H253.117L255.832 48.8906H256.652L259.372 56H258.41L257.731 54.1445ZM255.036 53.373H257.453L256.242 50.0479L255.036 53.373ZM262.81 56V48.8906H264.816C265.435 48.8906 265.982 49.0273 266.457 49.3008C266.932 49.5742 267.299 49.9632 267.556 50.4678C267.816 50.9723 267.948 51.5518 267.951 52.2061V52.6602C267.951 53.3307 267.821 53.9183 267.561 54.4229C267.303 54.9274 266.934 55.3148 266.452 55.585C265.974 55.8551 265.415 55.9935 264.777 56H262.81ZM263.747 49.6621V55.2334H264.733C265.456 55.2334 266.018 55.0088 266.418 54.5596C266.822 54.1104 267.023 53.4707 267.023 52.6406V52.2256C267.023 51.4183 266.833 50.7917 266.452 50.3457C266.075 49.8965 265.537 49.6686 264.841 49.6621H263.747ZM270.378 56H269.44V48.8906H270.378V56ZM274.191 52.8311C273.387 52.5999 272.801 52.3167 272.434 51.9814C272.069 51.6429 271.887 51.2262 271.887 50.7314C271.887 50.1715 272.11 49.7093 272.556 49.3447C273.005 48.9769 273.588 48.793 274.304 48.793C274.792 48.793 275.227 48.8874 275.607 49.0762C275.992 49.265 276.288 49.5254 276.496 49.8574C276.708 50.1895 276.813 50.5524 276.813 50.9463H275.871C275.871 50.5166 275.734 50.1797 275.461 49.9355C275.188 49.6882 274.802 49.5645 274.304 49.5645C273.841 49.5645 273.48 49.667 273.22 49.8721C272.963 50.0739 272.834 50.3555 272.834 50.7168C272.834 51.0065 272.956 51.2523 273.2 51.4541C273.448 51.6527 273.866 51.835 274.455 52.001C275.048 52.167 275.51 52.3509 275.842 52.5527C276.177 52.7513 276.424 52.984 276.584 53.251C276.747 53.5179 276.828 53.832 276.828 54.1934C276.828 54.7695 276.604 55.2318 276.154 55.5801C275.705 55.9251 275.104 56.0977 274.353 56.0977C273.864 56.0977 273.409 56.0049 272.985 55.8193C272.562 55.6305 272.235 55.3734 272.004 55.0479C271.776 54.7223 271.662 54.3529 271.662 53.9395H272.604C272.604 54.3691 272.762 54.7093 273.078 54.96C273.397 55.2074 273.822 55.3311 274.353 55.3311C274.847 55.3311 275.227 55.2301 275.49 55.0283C275.754 54.8265 275.886 54.5514 275.886 54.2031C275.886 53.8548 275.764 53.5863 275.52 53.3975C275.275 53.2054 274.833 53.0166 274.191 52.8311ZM282.946 49.6621H280.661V56H279.729V49.6621H277.448V48.8906H282.946V49.6621ZM287.536 54.1445H284.558L283.889 56H282.922L285.637 48.8906H286.457L289.177 56H288.215L287.536 54.1445ZM284.841 53.373H287.258L286.047 50.0479L284.841 53.373ZM295.598 56H294.655L291.076 50.5215V56H290.134V48.8906H291.076L294.665 54.3936V48.8906H295.598V56ZM302.492 53.7441C302.404 54.4961 302.126 55.0771 301.657 55.4873C301.192 55.8942 300.572 56.0977 299.797 56.0977C298.957 56.0977 298.283 55.7965 297.775 55.1943C297.271 54.5921 297.019 53.7865 297.019 52.7773V52.0938C297.019 51.4329 297.136 50.8519 297.37 50.3506C297.608 49.8493 297.943 49.4652 298.376 49.1982C298.809 48.9281 299.31 48.793 299.88 48.793C300.635 48.793 301.241 49.0046 301.696 49.4277C302.152 49.8477 302.417 50.4303 302.492 51.1758H301.55C301.468 50.6094 301.291 50.1992 301.018 49.9453C300.747 49.6914 300.368 49.5645 299.88 49.5645C299.281 49.5645 298.811 49.7858 298.469 50.2285C298.13 50.6712 297.961 51.3011 297.961 52.1182V52.8066C297.961 53.5781 298.122 54.1917 298.444 54.6475C298.767 55.1032 299.217 55.3311 299.797 55.3311C300.318 55.3311 300.716 55.2139 300.993 54.9795C301.273 54.7419 301.459 54.3301 301.55 53.7441H302.492ZM304.782 56H303.845V48.8906H304.782V56ZM310.515 54.1445H307.536L306.867 56H305.9L308.615 48.8906H309.436L312.155 56H311.193L310.515 54.1445ZM307.819 53.373H310.236L309.025 50.0479L307.819 53.373ZM229.831 66H228.894V58.8906H229.831V66ZM237.014 66H236.071L232.492 60.5215V66H231.55V58.8906H232.492L236.081 64.3936V58.8906H237.014V66ZM243.444 59.6621H241.159V66H240.227V59.6621H237.946V58.8906H243.444V59.6621ZM248.518 62.7139H245.437V65.2334H249.016V66H244.499V58.8906H248.967V59.6621H245.437V61.9473H248.518V62.7139ZM252.79 63.124H251.12V66H250.178V58.8906H252.531C253.332 58.8906 253.947 59.0729 254.377 59.4375C254.81 59.8021 255.026 60.3327 255.026 61.0293C255.026 61.472 254.906 61.8577 254.665 62.1865C254.427 62.5153 254.095 62.7611 253.669 62.9238L255.339 65.9414V66H254.333L252.79 63.124ZM251.12 62.3574H252.561C253.026 62.3574 253.396 62.237 253.669 61.9961C253.946 61.7552 254.084 61.4329 254.084 61.0293C254.084 60.5898 253.952 60.2529 253.688 60.0186C253.428 59.7842 253.05 59.6654 252.556 59.6621H251.12V62.3574ZM261.809 66H260.866L257.287 60.5215V66H256.345V58.8906H257.287L260.876 64.3936V58.8906H261.809V66ZM267.487 64.1445H264.509L263.84 66H262.873L265.588 58.8906H266.408L269.128 66H268.166L267.487 64.1445ZM264.792 63.373H267.209L265.998 60.0479L264.792 63.373ZM275.256 63.7441C275.168 64.4961 274.89 65.0771 274.421 65.4873C273.955 65.8942 273.335 66.0977 272.561 66.0977C271.721 66.0977 271.047 65.7965 270.539 65.1943C270.035 64.5921 269.782 63.7865 269.782 62.7773V62.0938C269.782 61.4329 269.899 60.8519 270.134 60.3506C270.371 59.8493 270.707 59.4652 271.14 59.1982C271.573 58.9281 272.074 58.793 272.644 58.793C273.399 58.793 274.004 59.0046 274.46 59.4277C274.916 59.8477 275.181 60.4303 275.256 61.1758H274.313C274.232 60.6094 274.055 60.1992 273.781 59.9453C273.511 59.6914 273.132 59.5645 272.644 59.5645C272.045 59.5645 271.574 59.7858 271.232 60.2285C270.894 60.6712 270.725 61.3011 270.725 62.1182V62.8066C270.725 63.5781 270.886 64.1917 271.208 64.6475C271.53 65.1032 271.981 65.3311 272.561 65.3311C273.081 65.3311 273.48 65.2139 273.757 64.9795C274.037 64.7419 274.222 64.3301 274.313 63.7441H275.256ZM277.546 66H276.608V58.8906H277.546V66ZM284.733 62.6748C284.733 63.3714 284.616 63.9801 284.382 64.501C284.147 65.0186 283.815 65.4141 283.386 65.6875C282.956 65.9609 282.455 66.0977 281.882 66.0977C281.322 66.0977 280.826 65.9609 280.393 65.6875C279.96 65.4108 279.623 65.0186 279.382 64.5107C279.144 63.9997 279.022 63.4089 279.016 62.7383V62.2256C279.016 61.542 279.134 60.9382 279.372 60.4141C279.61 59.89 279.945 59.4896 280.378 59.2129C280.814 58.9329 281.312 58.793 281.872 58.793C282.442 58.793 282.943 58.9313 283.376 59.208C283.812 59.4814 284.147 59.8802 284.382 60.4043C284.616 60.9251 284.733 61.5322 284.733 62.2256V62.6748ZM283.801 62.2158C283.801 61.3727 283.632 60.7266 283.293 60.2773C282.954 59.8249 282.481 59.5986 281.872 59.5986C281.28 59.5986 280.812 59.8249 280.471 60.2773C280.132 60.7266 279.958 61.3516 279.948 62.1523V62.6748C279.948 63.4919 280.119 64.1348 280.461 64.6035C280.806 65.069 281.28 65.3018 281.882 65.3018C282.487 65.3018 282.956 65.082 283.288 64.6426C283.62 64.1999 283.791 63.5667 283.801 62.7432V62.2158ZM291.604 66H290.661L287.082 60.5215V66H286.14V58.8906H287.082L290.671 64.3936V58.8906H291.604V66ZM297.282 64.1445H294.304L293.635 66H292.668L295.383 58.8906H296.203L298.923 66H297.961L297.282 64.1445ZM294.587 63.373H297.004L295.793 60.0479L294.587 63.373ZM300.822 65.2334H304.191V66H299.88V58.8906H300.822V65.2334Z" fill="#222222"/>
<path d="M24.5508 105.007L27.4072 113.91L30.2549 105.007H34.3154V117.804H31.2217V114.815L31.5205 108.698L28.4268 117.804H26.3877L23.2852 108.689L23.584 114.815V117.804H20.499V105.007H24.5508ZM44.2207 112.381H39.3691V115.431H45.0996V117.804H36.2842V105.007H45.1172V107.389H39.3691V110.087H44.2207V112.381ZM57.0439 117.804H53.9766L49.4414 109.841V117.804H46.3564V105.007H49.4414L53.9678 112.97V105.007H57.0439V117.804ZM65.5957 114.402C65.5957 113.951 65.4346 113.6 65.1123 113.348C64.7959 113.096 64.2363 112.835 63.4336 112.565C62.6309 112.296 61.9746 112.035 61.4648 111.783C59.8066 110.969 58.9775 109.85 58.9775 108.426C58.9775 107.717 59.1826 107.093 59.5928 106.554C60.0088 106.009 60.5947 105.587 61.3506 105.288C62.1064 104.983 62.9561 104.831 63.8994 104.831C64.8193 104.831 65.6426 104.995 66.3691 105.323C67.1016 105.651 67.6699 106.12 68.0742 106.729C68.4785 107.333 68.6807 108.024 68.6807 108.804H65.6045C65.6045 108.282 65.4434 107.878 65.1211 107.591C64.8047 107.304 64.374 107.16 63.8291 107.16C63.2783 107.16 62.8418 107.283 62.5195 107.529C62.2031 107.77 62.0449 108.077 62.0449 108.452C62.0449 108.78 62.2207 109.079 62.5723 109.349C62.9238 109.612 63.542 109.888 64.4268 110.175C65.3115 110.456 66.0381 110.761 66.6064 111.089C67.9893 111.886 68.6807 112.984 68.6807 114.385C68.6807 115.504 68.2588 116.383 67.415 117.021C66.5713 117.66 65.4141 117.979 63.9434 117.979C62.9062 117.979 61.9658 117.795 61.1221 117.426C60.2842 117.051 59.6514 116.541 59.2236 115.896C58.8018 115.246 58.5908 114.499 58.5908 113.655H61.6846C61.6846 114.341 61.8604 114.848 62.2119 115.176C62.5693 115.498 63.1465 115.659 63.9434 115.659C64.4531 115.659 64.8545 115.551 65.1475 115.334C65.4463 115.111 65.5957 114.801 65.5957 114.402ZM77.5312 115.413H73.3037L72.5654 117.804H69.2695L73.9629 105.007H76.8633L81.5918 117.804H78.2783L77.5312 115.413ZM74.042 113.031H76.793L75.4131 108.593L74.042 113.031ZM87.6299 105.007H90.7061V113.787C90.7061 114.602 90.5156 115.328 90.1348 115.967C89.7598 116.605 89.2324 117.101 88.5527 117.452C87.8789 117.804 87.126 117.979 86.2939 117.979C84.8994 117.979 83.8154 117.628 83.042 116.925C82.2686 116.222 81.8818 115.226 81.8818 113.937H84.9756C84.9756 114.522 85.0752 114.947 85.2744 115.211C85.4795 115.475 85.8193 115.606 86.2939 115.606C86.7217 115.606 87.0498 115.448 87.2783 115.132C87.5127 114.81 87.6299 114.361 87.6299 113.787V105.007ZM100.594 112.381H95.7422V115.431H101.473V117.804H92.6572V105.007H101.49V107.389H95.7422V110.087H100.594V112.381ZM109.33 114.402C109.33 113.951 109.169 113.6 108.847 113.348C108.53 113.096 107.971 112.835 107.168 112.565C106.365 112.296 105.709 112.035 105.199 111.783C103.541 110.969 102.712 109.85 102.712 108.426C102.712 107.717 102.917 107.093 103.327 106.554C103.743 106.009 104.329 105.587 105.085 105.288C105.841 104.983 106.69 104.831 107.634 104.831C108.554 104.831 109.377 104.995 110.104 105.323C110.836 105.651 111.404 106.12 111.809 106.729C112.213 107.333 112.415 108.024 112.415 108.804H109.339C109.339 108.282 109.178 107.878 108.855 107.591C108.539 107.304 108.108 107.16 107.563 107.16C107.013 107.16 106.576 107.283 106.254 107.529C105.938 107.77 105.779 108.077 105.779 108.452C105.779 108.78 105.955 109.079 106.307 109.349C106.658 109.612 107.276 109.888 108.161 110.175C109.046 110.456 109.772 110.761 110.341 111.089C111.724 111.886 112.415 112.984 112.415 114.385C112.415 115.504 111.993 116.383 111.149 117.021C110.306 117.66 109.148 117.979 107.678 117.979C106.641 117.979 105.7 117.795 104.856 117.426C104.019 117.051 103.386 116.541 102.958 115.896C102.536 115.246 102.325 114.499 102.325 113.655H105.419C105.419 114.341 105.595 114.848 105.946 115.176C106.304 115.498 106.881 115.659 107.678 115.659C108.188 115.659 108.589 115.551 108.882 115.334C109.181 115.111 109.33 114.801 109.33 114.402ZM23.7861 135.804H20.71V123.007H23.7861V135.804ZM29.0156 133.431H34.3857V135.804H25.9307V123.007H29.0156V133.431ZM38.9736 135.804H35.8975V123.007H38.9736V135.804ZM45.1699 123.007L48.0264 131.91L50.874 123.007H54.9346V135.804H51.8408V132.815L52.1396 126.698L49.0459 135.804H47.0068L43.9043 126.689L44.2031 132.815V135.804H41.1182V123.007H45.1699ZM60.1904 135.804H57.1143V123.007H60.1904V135.804ZM72.1172 125.389H68.2764V135.804H65.1914V125.389H61.4209V123.007H72.1172V125.389ZM79.6406 133.413H75.4131L74.6748 135.804H71.3789L76.0723 123.007H78.9727L83.7012 135.804H80.3877L79.6406 133.413ZM76.1514 131.031H78.9023L77.5225 126.593L76.1514 131.031ZM84.6416 135.804V123.007H88.7637C89.8945 123.007 90.9111 123.265 91.8135 123.78C92.7158 124.29 93.4189 125.014 93.9229 125.951C94.4326 126.883 94.6904 127.929 94.6963 129.089V129.678C94.6963 130.85 94.4473 131.901 93.9492 132.833C93.457 133.759 92.7598 134.485 91.8574 135.013C90.9609 135.534 89.959 135.798 88.8516 135.804H84.6416ZM87.7266 125.389V133.431H88.7988C89.6836 133.431 90.3633 133.117 90.8379 132.49C91.3125 131.857 91.5498 130.92 91.5498 129.678V129.124C91.5498 127.888 91.3125 126.956 90.8379 126.329C90.3633 125.702 89.6719 125.389 88.7637 125.389H87.7266ZM107.115 129.669C107.115 130.917 106.884 132.021 106.421 132.982C105.958 133.943 105.299 134.685 104.443 135.206C103.594 135.722 102.624 135.979 101.534 135.979C100.444 135.979 99.4775 135.73 98.6338 135.232C97.79 134.729 97.1309 134.011 96.6562 133.079C96.1875 132.147 95.9414 131.078 95.918 129.871V129.15C95.918 127.896 96.1465 126.792 96.6035 125.837C97.0664 124.876 97.7256 124.135 98.5811 123.613C99.4424 123.092 100.421 122.831 101.517 122.831C102.601 122.831 103.567 123.089 104.417 123.604C105.267 124.12 105.926 124.855 106.395 125.811C106.869 126.76 107.109 127.85 107.115 129.08V129.669ZM103.978 129.133C103.978 127.861 103.764 126.897 103.336 126.241C102.914 125.579 102.308 125.248 101.517 125.248C99.9697 125.248 99.1523 126.408 99.0645 128.729L99.0557 129.669C99.0557 130.923 99.2637 131.887 99.6797 132.561C100.096 133.234 100.714 133.571 101.534 133.571C102.313 133.571 102.914 133.24 103.336 132.578C103.758 131.916 103.972 130.964 103.978 129.722V129.133ZM115.307 132.402C115.307 131.951 115.146 131.6 114.823 131.348C114.507 131.096 113.947 130.835 113.145 130.565C112.342 130.296 111.686 130.035 111.176 129.783C109.518 128.969 108.688 127.85 108.688 126.426C108.688 125.717 108.894 125.093 109.304 124.554C109.72 124.009 110.306 123.587 111.062 123.288C111.817 122.983 112.667 122.831 113.61 122.831C114.53 122.831 115.354 122.995 116.08 123.323C116.812 123.651 117.381 124.12 117.785 124.729C118.189 125.333 118.392 126.024 118.392 126.804H115.315C115.315 126.282 115.154 125.878 114.832 125.591C114.516 125.304 114.085 125.16 113.54 125.16C112.989 125.16 112.553 125.283 112.23 125.529C111.914 125.77 111.756 126.077 111.756 126.452C111.756 126.78 111.932 127.079 112.283 127.349C112.635 127.612 113.253 127.888 114.138 128.175C115.022 128.456 115.749 128.761 116.317 129.089C117.7 129.886 118.392 130.984 118.392 132.385C118.392 133.504 117.97 134.383 117.126 135.021C116.282 135.66 115.125 135.979 113.654 135.979C112.617 135.979 111.677 135.795 110.833 135.426C109.995 135.051 109.362 134.541 108.935 133.896C108.513 133.246 108.302 132.499 108.302 131.655H111.396C111.396 132.341 111.571 132.848 111.923 133.176C112.28 133.498 112.857 133.659 113.654 133.659C114.164 133.659 114.565 133.551 114.858 133.334C115.157 133.111 115.307 132.801 115.307 132.402Z" fill="#222222"/>
<path d="M21.5684 139.694L23.8926 145.495L26.2168 139.694H27.4326V146.804H26.4951V144.035L26.583 141.047L24.249 146.804H23.5312L21.2021 141.062L21.2949 144.035V146.804H20.3574V139.694H21.5684ZM34.0928 139.694V144.528C34.0895 145.199 33.8779 145.747 33.458 146.174C33.0413 146.6 32.4749 146.84 31.7588 146.892L31.5098 146.901C30.7318 146.901 30.1117 146.691 29.6494 146.271C29.1872 145.852 28.9528 145.274 28.9463 144.538V139.694H29.874V144.509C29.874 145.023 30.0156 145.424 30.2988 145.71C30.582 145.993 30.9857 146.135 31.5098 146.135C32.0404 146.135 32.4456 145.993 32.7256 145.71C33.0088 145.427 33.1504 145.028 33.1504 144.514V139.694H34.0928ZM36.5146 146.037H39.8838V146.804H35.5723V139.694H36.5146V146.037ZM44.5176 140.466H42.2324V146.804H41.2998V140.466H39.0195V139.694H44.5176V140.466ZM46.5781 146.804H45.6406V139.694H46.5781V146.804ZM48.2969 146.804V139.694H50.3037C50.9222 139.694 51.4691 139.831 51.9443 140.104C52.4196 140.378 52.7858 140.767 53.043 141.271C53.3034 141.776 53.4352 142.355 53.4385 143.01V143.464C53.4385 144.134 53.3083 144.722 53.0479 145.227C52.7907 145.731 52.4212 146.118 51.9395 146.389C51.4609 146.659 50.9027 146.797 50.2646 146.804H48.2969ZM49.2344 140.466V146.037H50.2207C50.9434 146.037 51.5049 145.812 51.9053 145.363C52.3089 144.914 52.5107 144.274 52.5107 143.444V143.029C52.5107 142.222 52.3203 141.595 51.9395 141.149C51.5618 140.7 51.0247 140.472 50.3281 140.466H49.2344ZM58.8779 143.518H55.7969V146.037H59.376V146.804H54.8594V139.694H59.3271V140.466H55.7969V142.751H58.8779V143.518ZM62.6377 143.635C61.8337 143.404 61.2477 143.12 60.8799 142.785C60.5153 142.447 60.333 142.03 60.333 141.535C60.333 140.975 60.556 140.513 61.002 140.148C61.4512 139.781 62.0339 139.597 62.75 139.597C63.2383 139.597 63.6729 139.691 64.0537 139.88C64.4378 140.069 64.734 140.329 64.9424 140.661C65.154 140.993 65.2598 141.356 65.2598 141.75H64.3174C64.3174 141.32 64.1807 140.983 63.9072 140.739C63.6338 140.492 63.248 140.368 62.75 140.368C62.2878 140.368 61.9264 140.471 61.666 140.676C61.4089 140.878 61.2803 141.159 61.2803 141.521C61.2803 141.81 61.4023 142.056 61.6465 142.258C61.8939 142.456 62.3122 142.639 62.9014 142.805C63.4938 142.971 63.9561 143.155 64.2881 143.356C64.6234 143.555 64.8708 143.788 65.0303 144.055C65.193 144.322 65.2744 144.636 65.2744 144.997C65.2744 145.573 65.0498 146.035 64.6006 146.384C64.1514 146.729 63.5508 146.901 62.7988 146.901C62.3105 146.901 61.8548 146.809 61.4316 146.623C61.0085 146.434 60.6813 146.177 60.4502 145.852C60.2223 145.526 60.1084 145.157 60.1084 144.743H61.0508C61.0508 145.173 61.2087 145.513 61.5244 145.764C61.8434 146.011 62.2682 146.135 62.7988 146.135C63.2936 146.135 63.6729 146.034 63.9365 145.832C64.2002 145.63 64.332 145.355 64.332 145.007C64.332 144.659 64.21 144.39 63.9658 144.201C63.7217 144.009 63.279 143.82 62.6377 143.635ZM71.3926 140.466H69.1074V146.804H68.1748V140.466H65.8945V139.694H71.3926V140.466ZM73.4531 146.804H72.5156V139.694H73.4531V146.804ZM80.6357 146.804H79.6934L76.1143 141.325V146.804H75.1719V139.694H76.1143L79.7031 145.197V139.694H80.6357V146.804ZM87.7695 143.479C87.7695 144.175 87.6523 144.784 87.418 145.305C87.1836 145.822 86.8516 146.218 86.4219 146.491C85.9922 146.765 85.4909 146.901 84.918 146.901C84.3581 146.901 83.8617 146.765 83.4287 146.491C82.9958 146.215 82.6589 145.822 82.418 145.314C82.1803 144.803 82.0583 144.213 82.0518 143.542V143.029C82.0518 142.346 82.1706 141.742 82.4082 141.218C82.6458 140.694 82.9811 140.293 83.4141 140.017C83.8503 139.737 84.3483 139.597 84.9082 139.597C85.4779 139.597 85.9792 139.735 86.4121 140.012C86.8483 140.285 87.1836 140.684 87.418 141.208C87.6523 141.729 87.7695 142.336 87.7695 143.029V143.479ZM86.8369 143.02C86.8369 142.176 86.6676 141.53 86.3291 141.081C85.9906 140.629 85.5169 140.402 84.9082 140.402C84.3158 140.402 83.8486 140.629 83.5068 141.081C83.1683 141.53 82.9941 142.155 82.9844 142.956V143.479C82.9844 144.296 83.1553 144.938 83.4971 145.407C83.8421 145.873 84.3158 146.105 84.918 146.105C85.5234 146.105 85.9922 145.886 86.3242 145.446C86.6562 145.004 86.8271 144.37 86.8369 143.547V143.02Z" fill="#222222"/>
<g filter="url(#filter1_d)">
<path d="M147.048 116.897H152.22L151.438 121.413H146.282L145.204 127.522H140.407L141.47 121.413H136.282L137.063 116.897H142.251L143.282 110.96H148.079L147.048 116.897Z" fill="#EF3829"/>
</g>
<g clip-path="url(#clip0)">
<path d="M170.971 131.995L172.876 125.041C171.699 123 171.08 120.684 171.084 118.327C171.084 110.923 177.11 104.903 184.512 104.903C186.276 104.903 188.023 105.251 189.653 105.926C191.282 106.601 192.763 107.591 194.01 108.839C195.257 110.086 196.246 111.567 196.921 113.197C197.595 114.827 197.942 116.574 197.941 118.338C197.938 125.743 191.913 131.762 184.512 131.762H184.507C182.265 131.762 180.059 131.2 178.09 130.128L170.971 131.995ZM178.419 127.698L178.828 127.939C180.548 128.958 182.51 129.495 184.508 129.495H184.512C190.664 129.495 195.671 124.489 195.674 118.337C195.674 116.871 195.386 115.42 194.826 114.065C194.266 112.711 193.444 111.48 192.408 110.443C191.372 109.406 190.142 108.584 188.788 108.022C187.434 107.461 185.983 107.172 184.517 107.171C178.36 107.171 173.353 112.176 173.351 118.328C173.348 120.429 173.94 122.487 175.057 124.266L175.323 124.688L174.198 128.805L178.419 127.698Z" fill="white"/>
<path d="M171.438 131.526L173.278 124.811C172.141 122.841 171.544 120.606 171.547 118.332C171.547 111.185 177.365 105.373 184.51 105.373C186.213 105.373 187.899 105.709 189.472 106.361C191.045 107.012 192.475 107.968 193.679 109.172C194.882 110.376 195.837 111.806 196.488 113.379C197.14 114.953 197.474 116.639 197.474 118.342C197.474 125.489 191.655 131.301 184.511 131.301H184.505C182.341 131.301 180.211 130.759 178.311 129.725L171.438 131.526Z" fill="url(#paint0_linear)"/>
<g filter="url(#filter2_d)">
<path d="M170.971 131.995L172.876 125.041C171.699 123 171.08 120.684 171.084 118.327C171.084 110.923 177.11 104.903 184.512 104.903C186.276 104.903 188.023 105.251 189.653 105.926C191.282 106.601 192.763 107.591 194.01 108.839C195.257 110.086 196.246 111.567 196.921 113.197C197.595 114.827 197.942 116.574 197.941 118.338C197.938 125.743 191.913 131.762 184.512 131.762H184.507C182.265 131.762 180.059 131.2 178.09 130.128L170.971 131.995ZM178.419 127.698L178.828 127.939C180.548 128.958 182.51 129.495 184.508 129.495H184.512C190.664 129.495 195.671 124.489 195.674 118.337C195.674 116.871 195.386 115.42 194.826 114.065C194.266 112.711 193.444 111.48 192.408 110.443C191.372 109.406 190.142 108.584 188.788 108.022C187.434 107.461 185.983 107.172 184.517 107.171C178.36 107.171 173.353 112.176 173.351 118.328C173.348 120.429 173.94 122.487 175.057 124.266L175.323 124.688L174.198 128.805L178.419 127.698Z" fill="url(#paint1_linear)"/>
</g>
<path fill-rule="evenodd" clip-rule="evenodd" d="M181.157 112.715C180.905 112.156 180.641 112.145 180.401 112.135C180.208 112.126 179.982 112.127 179.757 112.127C179.587 112.131 179.42 112.171 179.266 112.243C179.113 112.316 178.975 112.419 178.863 112.547C178.555 112.883 177.689 113.694 177.689 115.345C177.689 116.996 178.891 118.591 179.059 118.815C179.227 119.039 181.38 122.535 184.789 123.88C187.622 124.998 188.202 124.776 188.815 124.717C189.429 124.658 190.8 123.905 191.08 123.122C191.361 122.338 191.36 121.667 191.274 121.527C191.187 121.386 190.966 121.303 190.63 121.135C190.294 120.968 188.645 120.155 188.337 120.044C188.029 119.933 187.806 119.876 187.582 120.212C187.358 120.548 186.716 121.303 186.519 121.527C186.323 121.751 186.128 121.779 185.792 121.611C185.457 121.443 184.376 121.089 183.095 119.946C182.097 119.056 181.421 117.958 181.227 117.622C181.034 117.286 181.207 117.107 181.375 116.938C181.526 116.787 181.71 116.546 181.878 116.35C182.046 116.154 182.102 116.015 182.214 115.791C182.326 115.566 182.27 115.371 182.185 115.203C182.101 115.035 181.455 113.378 181.157 112.715Z" fill="white"/>
</g>
<path d="M211.957 110.166H213.354C214.462 110.166 215.016 109.624 215.016 108.54C215.016 108.118 214.884 107.775 214.62 107.512C214.356 107.242 213.984 107.107 213.504 107.107C213.111 107.107 212.769 107.222 212.476 107.45C212.188 107.679 212.045 107.963 212.045 108.303H209.083C209.083 107.629 209.271 107.028 209.646 106.501C210.021 105.974 210.539 105.563 211.201 105.271C211.869 104.972 212.602 104.822 213.398 104.822C214.822 104.822 215.941 105.147 216.756 105.798C217.57 106.448 217.978 107.342 217.978 108.479C217.978 109.029 217.808 109.551 217.468 110.043C217.134 110.529 216.645 110.925 216 111.229C216.68 111.476 217.213 111.851 217.6 112.354C217.986 112.853 218.18 113.471 218.18 114.209C218.18 115.352 217.74 116.266 216.861 116.951C215.982 117.637 214.828 117.979 213.398 117.979C212.561 117.979 211.781 117.821 211.061 117.505C210.346 117.183 209.804 116.74 209.435 116.178C209.065 115.609 208.881 114.965 208.881 114.244H211.86C211.86 114.637 212.019 114.977 212.335 115.264C212.651 115.551 213.041 115.694 213.504 115.694C214.025 115.694 214.441 115.551 214.752 115.264C215.062 114.971 215.218 114.599 215.218 114.147C215.218 113.503 215.057 113.046 214.734 112.776C214.412 112.507 213.967 112.372 213.398 112.372H211.957V110.166ZM230.335 116.222C229.86 116.749 229.166 117.174 228.252 117.496C227.338 117.818 226.336 117.979 225.246 117.979C223.57 117.979 222.231 117.467 221.229 116.441C220.228 115.416 219.691 113.989 219.621 112.161L219.612 111.054C219.612 109.794 219.835 108.695 220.28 107.758C220.726 106.814 221.361 106.091 222.188 105.587C223.02 105.077 223.98 104.822 225.07 104.822C226.664 104.822 227.9 105.188 228.779 105.921C229.664 106.647 230.18 107.734 230.326 109.182H227.355C227.25 108.467 227.021 107.957 226.67 107.652C226.318 107.348 225.82 107.195 225.176 107.195C224.402 107.195 223.805 107.523 223.383 108.18C222.961 108.836 222.747 109.773 222.741 110.992V111.766C222.741 113.043 222.958 114.004 223.392 114.648C223.831 115.287 224.52 115.606 225.457 115.606C226.26 115.606 226.857 115.428 227.25 115.07V113.084H225.105V110.966H230.335V116.222ZM232.128 117.804V105.007H236.725C238.371 105.007 239.622 105.309 240.478 105.912C241.339 106.516 241.77 107.392 241.77 108.54C241.77 109.202 241.617 109.768 241.312 110.236C241.008 110.705 240.56 111.051 239.968 111.273C240.636 111.449 241.148 111.777 241.506 112.258C241.863 112.738 242.042 113.324 242.042 114.016C242.042 115.27 241.644 116.213 240.847 116.846C240.056 117.473 238.881 117.792 237.322 117.804H232.128ZM235.213 112.363V115.431H237.234C237.791 115.431 238.219 115.305 238.518 115.053C238.816 114.795 238.966 114.435 238.966 113.972C238.966 112.905 238.436 112.369 237.375 112.363H235.213ZM235.213 110.342H236.821C237.495 110.336 237.976 110.213 238.263 109.973C238.55 109.732 238.693 109.378 238.693 108.909C238.693 108.37 238.538 107.983 238.228 107.749C237.917 107.509 237.416 107.389 236.725 107.389H235.213V110.342ZM255.498 115.413H251.271L250.532 117.804H247.236L251.93 105.007H254.83L259.559 117.804H256.245L255.498 115.413ZM252.009 113.031H254.76L253.38 108.593L252.009 113.031ZM264.551 105.007L267.407 113.91L270.255 105.007H274.315V117.804H271.222V114.815L271.521 108.698L268.427 117.804H266.388L263.285 108.689L263.584 114.815V117.804H260.499V105.007H264.551ZM281.215 109.261L283.307 105.007H286.831L283.254 111.353L286.928 117.804H283.368L281.215 113.471L279.062 117.804H275.511L279.176 111.353L275.607 105.007H279.123L281.215 109.261ZM214.638 128.544H217.635V131.084H214.638V134.521H211.869V131.084H208.863V128.544H211.869V125.204H214.638V128.544ZM233.569 123.007V131.383C233.569 132.332 233.367 133.155 232.963 133.853C232.559 134.544 231.979 135.071 231.223 135.435C230.467 135.798 229.573 135.979 228.542 135.979C226.983 135.979 225.756 135.575 224.859 134.767C223.963 133.958 223.506 132.851 223.488 131.444V123.007H226.591V131.506C226.626 132.906 227.276 133.606 228.542 133.606C229.181 133.606 229.664 133.431 229.992 133.079C230.32 132.728 230.484 132.156 230.484 131.365V123.007H233.569ZM242.104 132.402C242.104 131.951 241.942 131.6 241.62 131.348C241.304 131.096 240.744 130.835 239.941 130.565C239.139 130.296 238.482 130.035 237.973 129.783C236.314 128.969 235.485 127.85 235.485 126.426C235.485 125.717 235.69 125.093 236.101 124.554C236.517 124.009 237.103 123.587 237.858 123.288C238.614 122.983 239.464 122.831 240.407 122.831C241.327 122.831 242.15 122.995 242.877 123.323C243.609 123.651 244.178 124.12 244.582 124.729C244.986 125.333 245.188 126.024 245.188 126.804H242.112C242.112 126.282 241.951 125.878 241.629 125.591C241.312 125.304 240.882 125.16 240.337 125.16C239.786 125.16 239.35 125.283 239.027 125.529C238.711 125.77 238.553 126.077 238.553 126.452C238.553 126.78 238.729 127.079 239.08 127.349C239.432 127.612 240.05 127.888 240.935 128.175C241.819 128.456 242.546 128.761 243.114 129.089C244.497 129.886 245.188 130.984 245.188 132.385C245.188 133.504 244.767 134.383 243.923 135.021C243.079 135.66 241.922 135.979 240.451 135.979C239.414 135.979 238.474 135.795 237.63 135.426C236.792 135.051 236.159 134.541 235.731 133.896C235.31 133.246 235.099 132.499 235.099 131.655H238.192C238.192 132.341 238.368 132.848 238.72 133.176C239.077 133.498 239.654 133.659 240.451 133.659C240.961 133.659 241.362 133.551 241.655 133.334C241.954 133.111 242.104 132.801 242.104 132.402ZM254.039 133.413H249.812L249.073 135.804H245.777L250.471 123.007H253.371L258.1 135.804H254.786L254.039 133.413ZM250.55 131.031H253.301L251.921 126.593L250.55 131.031Z" fill="#222222"/>
<path d="M210.826 144.562L210.963 145.5L211.163 144.655L212.569 139.694H213.36L214.732 144.655L214.928 145.515L215.079 144.558L216.183 139.694H217.125L215.401 146.804H214.547L213.082 141.623L212.97 141.081L212.857 141.623L211.339 146.804H210.484L208.766 139.694H209.703L210.826 144.562ZM223.634 146.804H222.691V143.518H219.107V146.804H218.17V139.694H219.107V142.751H222.691V139.694H223.634V146.804ZM229.312 144.948H226.334L225.665 146.804H224.698L227.413 139.694H228.233L230.953 146.804H229.991L229.312 144.948ZM226.617 144.177H229.034L227.823 140.852L226.617 144.177ZM236.188 140.466H233.902V146.804H232.97V140.466H230.689V139.694H236.188V140.466ZM239.259 143.635C238.455 143.404 237.869 143.12 237.501 142.785C237.136 142.447 236.954 142.03 236.954 141.535C236.954 140.975 237.177 140.513 237.623 140.148C238.072 139.781 238.655 139.597 239.371 139.597C239.859 139.597 240.294 139.691 240.675 139.88C241.059 140.069 241.355 140.329 241.563 140.661C241.775 140.993 241.881 141.356 241.881 141.75H240.938C240.938 141.32 240.802 140.983 240.528 140.739C240.255 140.492 239.869 140.368 239.371 140.368C238.909 140.368 238.548 140.471 238.287 140.676C238.03 140.878 237.901 141.159 237.901 141.521C237.901 141.81 238.023 142.056 238.268 142.258C238.515 142.456 238.933 142.639 239.522 142.805C240.115 142.971 240.577 143.155 240.909 143.356C241.244 143.555 241.492 143.788 241.651 144.055C241.814 144.322 241.896 144.636 241.896 144.997C241.896 145.573 241.671 146.035 241.222 146.384C240.772 146.729 240.172 146.901 239.42 146.901C238.932 146.901 238.476 146.809 238.053 146.623C237.63 146.434 237.302 146.177 237.071 145.852C236.843 145.526 236.729 145.157 236.729 144.743H237.672C237.672 145.173 237.83 145.513 238.146 145.764C238.465 146.011 238.889 146.135 239.42 146.135C239.915 146.135 240.294 146.034 240.558 145.832C240.821 145.63 240.953 145.355 240.953 145.007C240.953 144.659 240.831 144.39 240.587 144.201C240.343 144.009 239.9 143.82 239.259 143.635ZM247.027 144.948H244.049L243.38 146.804H242.413L245.128 139.694H245.948L248.668 146.804H247.706L247.027 144.948ZM244.332 144.177H246.749L245.538 140.852L244.332 144.177ZM250.562 144.021V146.804H249.625V139.694H252.247C253.025 139.694 253.634 139.893 254.073 140.29C254.516 140.687 254.737 141.213 254.737 141.867C254.737 142.557 254.521 143.09 254.088 143.464C253.658 143.835 253.041 144.021 252.237 144.021H250.562ZM250.562 143.254H252.247C252.748 143.254 253.132 143.137 253.399 142.902C253.666 142.665 253.8 142.323 253.8 141.877C253.8 141.454 253.666 141.115 253.399 140.861C253.132 140.607 252.766 140.476 252.301 140.466H250.562V143.254ZM256.871 144.021V146.804H255.934V139.694H258.556C259.334 139.694 259.942 139.893 260.382 140.29C260.825 140.687 261.046 141.213 261.046 141.867C261.046 142.557 260.829 143.09 260.396 143.464C259.967 143.835 259.35 144.021 258.546 144.021H256.871ZM256.871 143.254H258.556C259.057 143.254 259.441 143.137 259.708 142.902C259.975 142.665 260.108 142.323 260.108 141.877C260.108 141.454 259.975 141.115 259.708 140.861C259.441 140.607 259.075 140.476 258.609 140.466H256.871V143.254ZM269.811 143.928H268.141V146.804H267.198V139.694H269.552C270.353 139.694 270.968 139.877 271.397 140.241C271.83 140.606 272.047 141.136 272.047 141.833C272.047 142.276 271.926 142.661 271.686 142.99C271.448 143.319 271.116 143.565 270.689 143.728L272.359 146.745V146.804H271.354L269.811 143.928ZM268.141 143.161H269.581C270.047 143.161 270.416 143.041 270.689 142.8C270.966 142.559 271.104 142.237 271.104 141.833C271.104 141.394 270.973 141.057 270.709 140.822C270.449 140.588 270.071 140.469 269.576 140.466H268.141V143.161ZM278.834 143.479C278.834 144.175 278.717 144.784 278.482 145.305C278.248 145.822 277.916 146.218 277.486 146.491C277.057 146.765 276.555 146.901 275.982 146.901C275.423 146.901 274.926 146.765 274.493 146.491C274.06 146.215 273.723 145.822 273.482 145.314C273.245 144.803 273.123 144.213 273.116 143.542V143.029C273.116 142.346 273.235 141.742 273.473 141.218C273.71 140.694 274.046 140.293 274.479 140.017C274.915 139.737 275.413 139.597 275.973 139.597C276.542 139.597 277.044 139.735 277.477 140.012C277.913 140.285 278.248 140.684 278.482 141.208C278.717 141.729 278.834 142.336 278.834 143.029V143.479ZM277.901 143.02C277.901 142.176 277.732 141.53 277.394 141.081C277.055 140.629 276.581 140.402 275.973 140.402C275.38 140.402 274.913 140.629 274.571 141.081C274.233 141.53 274.059 142.155 274.049 142.956V143.479C274.049 144.296 274.22 144.938 274.562 145.407C274.907 145.873 275.38 146.105 275.982 146.105C276.588 146.105 277.057 145.886 277.389 145.446C277.721 145.004 277.892 144.37 277.901 143.547V143.02ZM284.059 144.948H281.08L280.411 146.804H279.444L282.159 139.694H282.979L285.699 146.804H284.737L284.059 144.948ZM281.363 144.177H283.78L282.569 140.852L281.363 144.177ZM287.867 139.694L290.191 145.495L292.516 139.694H293.731V146.804H292.794V144.035L292.882 141.047L290.548 146.804H289.83L287.501 141.062L287.594 144.035V146.804H286.656V139.694H287.867ZM296.393 146.804H295.455V139.694H296.393V146.804ZM303.575 146.804H302.633L299.054 141.325V146.804H298.111V139.694H299.054L302.643 145.197V139.694H303.575V146.804ZM310.489 145.871C310.248 146.216 309.911 146.475 309.479 146.647C309.049 146.817 308.548 146.901 307.975 146.901C307.395 146.901 306.881 146.766 306.432 146.496C305.982 146.223 305.634 145.835 305.387 145.334C305.143 144.833 305.017 144.252 305.011 143.591V142.971C305.011 141.9 305.26 141.07 305.758 140.48C306.259 139.891 306.962 139.597 307.867 139.597C308.609 139.597 309.207 139.787 309.659 140.168C310.112 140.546 310.388 141.083 310.489 141.779H309.552C309.376 140.839 308.816 140.368 307.872 140.368C307.244 140.368 306.767 140.59 306.441 141.032C306.119 141.472 305.956 142.11 305.953 142.946V143.527C305.953 144.325 306.135 144.96 306.5 145.432C306.865 145.9 307.358 146.135 307.979 146.135C308.331 146.135 308.639 146.096 308.902 146.018C309.166 145.939 309.384 145.808 309.557 145.622V144.025H307.911V143.264H310.489V145.871Z" fill="#222222"/>
<g clip-path="url(#clip1)">
<path d="M38.9583 193.911C38.8816 193.911 38.8816 193.911 38.8816 193.911C38.1148 193.911 37.3479 193.911 36.6577 193.911C36.581 193.911 36.5043 193.911 36.5043 193.835C35.9675 192.85 35.2007 192.168 34.127 191.865C32.5933 191.486 31.3663 191.941 30.2927 193.077C29.6792 193.759 29.3724 194.592 29.3724 195.502C29.3724 196.183 29.5258 196.789 29.8326 197.395C30.4461 198.38 31.2896 199.062 32.4399 199.214C33.897 199.441 35.124 198.986 36.0442 197.774C36.1976 197.623 36.2743 197.395 36.4277 197.168C36.4277 197.092 36.5043 197.092 36.581 197.092C37.3479 197.092 38.1148 197.092 38.8816 197.092C38.9583 197.092 38.9583 197.092 38.9583 197.168C38.6516 198.305 38.0381 199.289 37.1178 200.047C36.1976 200.805 35.2007 201.335 33.9737 201.486C32.5933 201.638 31.2129 201.486 29.9859 200.729C28.3755 199.744 27.3786 198.305 27.0718 196.486C26.8418 194.82 27.1485 193.229 28.2221 191.865C28.9123 191.032 29.6792 190.274 30.6761 189.895C31.2129 189.668 31.7497 189.517 32.3632 189.517C33.2068 189.441 34.0504 189.441 34.8939 189.744C36.581 190.274 37.808 191.335 38.5749 192.926C38.7283 193.229 38.805 193.532 38.9583 193.911Z" fill="#EF3829"/>
<path d="M49.618 200.728C49.5414 200.728 49.5414 200.804 49.5414 200.804C49.0046 201.183 48.3911 201.41 47.7776 201.562C47.2407 201.637 46.7039 201.713 46.1671 201.637C45.1702 201.486 44.4033 201.107 44.0199 200.122C43.8665 199.668 43.7898 199.213 43.8665 198.759C43.8665 198.38 43.9432 198.001 44.0966 197.622C44.4033 196.94 44.9401 196.486 45.6303 196.183C46.1671 195.956 46.7039 195.88 47.2407 195.804C47.7776 195.728 48.3144 195.653 48.8512 195.577C49.2346 195.501 49.5414 195.122 49.4647 194.668C49.388 194.289 49.2346 194.062 48.8512 193.91C48.3911 193.759 48.0076 193.759 47.5475 193.834C47.3941 193.834 47.2407 193.91 47.0874 193.91C46.7039 194.062 46.4739 194.44 46.3205 194.819V194.895C46.2438 195.122 46.2438 195.122 46.0904 195.122C45.4003 195.122 44.7101 195.122 44.0199 195.122C43.9432 195.122 43.9432 195.122 43.9432 195.046C43.9432 194.743 44.0199 194.44 44.0966 194.137C44.4033 193.001 45.1702 192.319 46.2438 192.016C47.0107 191.789 47.7009 191.789 48.4677 191.865C49.1579 191.865 49.8481 192.092 50.4616 192.395C51.2285 192.774 51.6119 193.38 51.7653 194.137C51.842 194.365 51.842 194.592 51.842 194.819C51.842 197.092 51.842 199.289 51.842 201.562C51.842 201.637 51.842 201.713 51.6886 201.713C50.9984 201.713 50.2315 201.713 49.5414 201.713C49.4647 201.713 49.4647 201.713 49.4647 201.637C49.4647 201.41 49.4647 201.107 49.4647 200.88C49.6947 200.728 49.6947 200.728 49.618 200.728ZM49.5414 196.865C49.4647 196.94 49.388 196.94 49.388 196.94C49.3113 197.016 49.1579 197.092 49.0812 197.092C48.6211 197.168 48.2377 197.319 47.7776 197.395C47.4708 197.471 47.2407 197.471 47.0107 197.622C46.6272 197.774 46.3972 198.077 46.3205 198.456C46.2438 198.683 46.2438 198.834 46.3205 199.062C46.3972 199.516 46.7039 199.895 47.1641 199.971C47.8542 200.122 48.4677 199.895 49.0046 199.516C49.388 199.289 49.4647 198.834 49.5414 198.456C49.618 197.925 49.5414 197.395 49.5414 196.865Z" fill="#EF3829"/>
<path d="M59.2805 196.713C59.2805 194.289 61.0443 192.622 62.5781 192.092C65.5689 191.107 68.4063 192.925 69.0198 195.653C69.3265 197.168 69.0965 198.532 68.1762 199.744C67.4094 200.728 66.4124 201.41 65.1854 201.638C63.575 201.941 62.1179 201.562 60.9676 200.425C60.2775 199.744 59.7406 198.986 59.5106 198.077C59.3572 197.622 59.2805 197.168 59.2805 196.713ZM64.1885 194.213C62.7314 194.138 61.5811 195.501 61.5811 196.789C61.5811 198.001 62.5781 199.365 64.1885 199.365C65.7989 199.365 66.7959 198.001 66.7959 196.789C66.7959 195.35 65.7222 194.138 64.1885 194.213Z" fill="#EF3829"/>
<path d="M61.1209 206.41C61.1209 206.334 61.1209 206.334 61.1209 206.259C61.1209 205.35 61.1209 204.365 61.1209 203.456C61.1209 203.38 61.1209 203.38 61.2743 203.38C61.8111 203.38 62.2712 203.38 62.808 203.38C62.8847 203.38 62.8847 203.38 62.8847 203.456C62.8847 206.486 62.8847 209.516 62.8847 212.547C62.8847 212.622 62.8847 212.622 62.808 212.622C62.3479 212.622 61.8111 212.622 61.351 212.622C61.2743 212.622 61.2743 212.622 61.2743 212.547C61.2743 212.395 61.2743 212.244 61.2743 212.016H61.1976C60.7375 212.471 60.2007 212.698 59.5105 212.698C59.2037 212.698 58.897 212.622 58.5902 212.547C57.9001 212.319 57.5166 211.789 57.2866 211.107C57.2099 210.804 57.1332 210.501 57.1332 210.122C57.1332 209.289 57.0565 208.531 57.2099 207.698C57.2866 207.395 57.3632 207.092 57.4399 206.789C57.67 206.259 58.0534 205.956 58.5902 205.804C59.2804 205.577 59.8939 205.577 60.5841 205.88C60.8142 206.107 60.9675 206.259 61.1209 206.41ZM61.1209 209.213C61.1209 209.137 61.1209 209.137 61.1209 209.062C61.1209 208.683 61.1209 208.228 60.9675 207.85C60.8142 207.547 60.6608 207.395 60.354 207.319C60.2774 207.319 60.124 207.244 60.0473 207.244C59.5872 207.244 59.2037 207.395 58.9737 207.925C58.897 208.228 58.8203 208.531 58.8203 208.834C58.8203 209.289 58.8203 209.744 58.897 210.198C58.9737 210.728 59.2804 211.107 59.8939 211.107C60.4307 211.107 60.8142 210.88 60.9675 210.425C61.1209 210.047 61.1209 209.668 61.1209 209.213Z" fill="black"/>
<path d="M55.8296 193.456C56.0597 193.153 56.2131 193.001 56.4431 192.774C56.9033 192.395 57.4401 192.092 58.0536 191.941C58.3603 191.865 58.6671 191.865 58.9738 191.789C59.0505 191.789 59.0505 191.865 59.0505 191.865C59.0505 192.319 59.0505 192.85 59.0505 193.304C59.0505 193.531 59.0505 193.835 59.0505 194.062C59.0505 194.138 59.0505 194.138 58.9738 194.138C58.7437 194.138 58.5137 194.062 58.2069 194.138C57.8235 194.138 57.5168 194.289 57.21 194.441C56.5965 194.819 56.1364 195.274 55.983 196.031C55.9063 196.335 55.9063 196.713 55.9063 197.016C55.9063 198.456 55.9063 199.971 55.9063 201.41C55.9063 201.486 55.9063 201.562 55.7529 201.562C55.0628 201.562 54.3726 201.562 53.6824 201.562C53.6057 201.562 53.6057 201.562 53.6057 201.486C53.6057 198.456 53.6057 195.425 53.6057 192.319C53.6057 192.244 53.6057 192.244 53.6824 192.244C54.3726 192.244 55.0628 192.244 55.7529 192.244C55.8296 192.244 55.8296 192.244 55.8296 192.319C55.8296 192.774 55.8296 193.077 55.8296 193.456Z" fill="#EF3829"/>
<path d="M42.486 195.501C42.486 197.47 42.486 199.516 42.486 201.485C42.486 201.561 42.486 201.637 42.3326 201.637C41.6424 201.637 40.9522 201.637 40.1854 201.637C40.1087 201.637 40.032 201.637 40.032 201.485C40.032 197.47 40.032 193.531 40.032 189.516C40.032 189.44 40.032 189.364 40.1854 189.364C40.8755 189.364 41.6424 189.364 42.3326 189.364C42.4093 189.364 42.4093 189.364 42.4093 189.516C42.486 191.561 42.486 193.531 42.486 195.501Z" fill="#EF3829"/>
<path d="M68.0229 209.743C67.3327 209.743 66.6425 209.743 65.9523 209.743C65.8756 209.743 65.8756 209.743 65.8756 209.819C65.8756 210.501 66.2591 211.031 66.8726 211.107C67.5627 211.258 68.2529 211.183 68.7897 210.652C68.9431 210.501 68.9431 210.501 69.0198 210.652C69.3265 210.955 69.5566 211.183 69.8633 211.486C69.94 211.561 69.94 211.561 69.8633 211.561C69.4032 212.016 68.7897 212.395 68.0995 212.546C67.4094 212.622 66.7192 212.622 66.029 212.395C65.2621 212.167 64.7253 211.637 64.4186 210.88C63.9585 209.667 63.9585 208.455 64.4186 207.319C64.8787 206.258 65.7223 205.728 66.8726 205.652C67.3327 205.652 67.8695 205.652 68.2529 205.88C69.0965 206.258 69.6333 206.94 69.8633 207.774C69.94 208.152 70.0167 208.531 70.0167 208.91C70.0167 209.137 70.0167 209.364 70.0167 209.592C70.0167 209.667 70.0167 209.667 69.94 209.667C69.4032 209.743 68.713 209.743 68.0229 209.743ZM67.1793 208.607C67.5627 208.607 68.0229 208.607 68.4063 208.607C68.483 208.607 68.483 208.607 68.483 208.531C68.483 208.304 68.4063 208.152 68.3296 208.001C68.0229 207.092 66.9492 207.092 66.4124 207.395C66.029 207.698 65.8756 208.077 65.8756 208.531C65.8756 208.607 65.8756 208.607 65.9523 208.607C66.3357 208.607 66.7959 208.607 67.1793 208.607Z" fill="black"/>
<path d="M76.9953 209.213C76.9953 209.744 76.9953 210.274 76.8419 210.728C76.6118 211.638 75.9983 212.244 75.0781 212.547C74.3112 212.774 73.5444 212.774 72.7775 212.395C71.9339 212.016 71.4738 211.41 71.3204 210.501C71.167 209.819 71.167 209.138 71.2437 208.456C71.2437 208.077 71.3204 207.622 71.5505 207.244C71.9339 206.41 72.6241 205.956 73.5444 205.728C74.0812 205.653 74.6947 205.653 75.2315 205.804C76.1517 206.107 76.7652 206.789 76.9953 207.774C76.9953 208.304 76.9953 208.759 76.9953 209.213ZM72.9309 209.213C72.9309 209.592 72.9309 209.895 73.0075 210.274C73.1609 211.032 73.6977 211.335 74.3879 211.183C74.848 211.107 75.0781 210.728 75.2315 210.35C75.3848 209.668 75.3848 208.986 75.2315 208.304C75.1548 207.925 75.0014 207.622 74.618 207.471C74.3112 207.319 74.0812 207.319 73.7744 207.395C73.3143 207.547 73.0842 207.85 73.0075 208.228C72.9309 208.532 72.8542 208.835 72.9309 209.213Z" fill="black"/>
<path d="M46.8572 205.804C47.0872 205.804 47.3173 205.804 47.4707 205.804C47.8541 205.804 48.1609 205.804 48.5443 205.804C48.621 205.804 48.6977 205.804 48.6977 205.955C49.1578 207.243 49.5412 208.607 50.0013 209.895V209.97C50.078 209.97 50.0013 209.895 50.078 209.895C50.5382 208.607 50.9216 207.243 51.3817 205.879C51.3817 205.804 51.4584 205.804 51.5351 205.804C52.0719 205.804 52.6087 205.804 53.1455 205.804C53.2989 205.804 53.2989 205.804 53.2222 205.879C52.532 207.773 51.7652 209.743 51.075 211.637C50.9983 211.94 50.8449 212.167 50.7682 212.47C50.7682 212.546 50.6915 212.546 50.6915 212.546C50.3081 212.546 49.9247 212.546 49.5412 212.546C49.4645 212.546 49.4645 212.546 49.3879 212.47C48.851 211.107 48.3909 209.743 47.8541 208.379C47.5474 207.546 47.2406 206.713 46.9339 205.955C46.9339 205.879 46.9339 205.879 46.8572 205.804Z" fill="black"/>
<path d="M69.5566 192.243C69.5566 192.168 69.4799 192.168 69.5566 192.243C69.0198 191.713 68.5596 191.259 68.0995 190.804C68.0228 190.728 68.0995 190.728 68.0995 190.653L68.1762 190.577C70.0167 188.759 71.8572 186.94 73.621 185.122C73.6977 185.046 73.6977 185.046 73.7744 185.122C74.2345 185.577 74.6946 186.031 75.1547 186.486C75.2314 186.562 75.2314 186.562 75.1547 186.637C73.3142 188.456 71.4737 190.274 69.5566 192.243C69.6333 192.168 69.5566 192.168 69.5566 192.243Z" fill="#EF3829"/>
<path d="M73.6976 194.517C74.6946 194.517 75.6915 194.517 76.6884 194.517C76.7651 194.517 76.7651 194.517 76.7651 194.592C76.7651 195.198 76.7651 195.88 76.7651 196.486C76.7651 196.562 76.7651 196.562 76.6884 196.562C74.6946 196.562 72.624 196.562 70.6302 196.562C70.5535 196.562 70.5535 196.562 70.5535 196.486C70.5535 195.88 70.5535 195.198 70.5535 194.592C70.5535 194.517 70.5535 194.517 70.6302 194.517C71.7038 194.517 72.7007 194.517 73.6976 194.517Z" fill="#EF3829"/>
<path d="M63.4216 186.94C63.4216 185.956 63.4216 184.971 63.4216 184.062C63.4216 183.986 63.4216 183.91 63.4983 183.91C64.1118 183.91 64.7253 183.91 65.4155 183.91C65.4922 183.91 65.4922 183.91 65.4922 183.986C65.4922 185.956 65.4922 187.85 65.4922 189.819C65.4922 189.895 65.4922 189.895 65.4155 189.895C64.802 189.895 64.1118 189.895 63.4983 189.895C63.4216 189.895 63.4216 189.895 63.4216 189.819C63.4216 188.91 63.4216 187.925 63.4216 186.94Z" fill="#EF3829"/>
<path d="M54.0659 209.213C54.0659 208.152 54.0659 207.016 54.0659 205.955C54.0659 205.879 54.0659 205.804 54.1426 205.804C54.6794 205.804 55.1395 205.804 55.6764 205.804C55.753 205.804 55.753 205.804 55.753 205.879C55.753 208.076 55.753 210.273 55.753 212.47C55.753 212.546 55.753 212.546 55.6764 212.546C55.1395 212.546 54.6794 212.546 54.1426 212.546C54.0659 212.546 54.0659 212.546 54.0659 212.47C54.0659 211.41 54.0659 210.273 54.0659 209.213Z" fill="black"/>
<path d="M53.8357 203.91C53.8357 203.304 54.2958 202.85 54.9093 202.85C55.5228 202.85 55.9829 203.304 55.9829 203.91C55.9829 204.516 55.5228 204.971 54.9093 204.971C54.2958 204.971 53.8357 204.516 53.8357 203.91Z" fill="black"/>
</g>
<g filter="url(#filter3_d)">
<path d="M90.2578 196.852H92.8438L92.4531 199.109H89.875L89.3359 202.164H86.9375L87.4688 199.109H84.875L85.2656 196.852H87.8594L88.375 193.883H90.7734L90.2578 196.852Z" fill="#EF3829"/>
</g>
<path d="M111.739 193.732C111.352 193.732 110.966 193.732 110.579 193.732C110.502 193.732 110.502 193.732 110.425 193.655C109.884 192.65 109.188 191.955 108.106 191.723C106.715 191.337 105.478 191.723 104.474 192.728C103.933 193.269 103.546 193.964 103.392 194.737C103.16 196.283 103.624 197.519 104.86 198.447C106.019 199.374 107.797 199.452 109.111 198.601C109.652 198.215 110.116 197.751 110.425 197.133C110.502 197.056 110.502 197.056 110.579 197.056C111.352 197.056 112.048 197.056 112.821 197.056C112.898 197.056 112.898 197.056 112.898 197.133C112.511 198.37 111.893 199.374 110.888 200.225C110.116 200.92 109.188 201.307 108.183 201.461C106.638 201.693 105.247 201.538 103.933 200.688C102.387 199.684 101.382 198.292 101.073 196.437C100.841 194.737 101.15 193.191 102.155 191.8C102.851 190.873 103.701 190.1 104.783 189.714C105.401 189.482 106.019 189.327 106.715 189.327C107.411 189.327 108.106 189.327 108.802 189.559C110.347 190.1 111.584 191.027 112.357 192.496C112.589 192.882 112.743 193.346 112.898 193.732C112.898 193.81 112.898 193.81 112.821 193.81C112.511 193.732 112.125 193.732 111.739 193.732Z" fill="#EF3829"/>
<path d="M123.795 200.611C123.486 200.921 123.1 201.075 122.713 201.23C121.94 201.539 121.168 201.616 120.317 201.539C119.776 201.462 119.235 201.307 118.772 200.921C118.308 200.457 118.076 199.916 117.999 199.22C117.999 198.757 117.999 198.293 118.076 197.829C118.308 196.979 118.849 196.438 119.622 196.129C120.163 195.897 120.704 195.82 121.245 195.742C121.863 195.665 122.404 195.588 123.022 195.433C123.409 195.356 123.718 194.969 123.641 194.428C123.563 194.119 123.409 193.887 123.1 193.81C122.868 193.733 122.636 193.656 122.404 193.656C122.095 193.656 121.863 193.656 121.554 193.656C121.09 193.733 120.781 194.042 120.549 194.506C120.549 194.583 120.472 194.66 120.472 194.815C120.472 194.892 120.395 194.969 120.317 194.969C119.622 194.969 118.926 194.969 118.153 194.969C118.076 194.969 118.076 194.969 118.076 194.892C118.076 194.583 118.153 194.197 118.231 193.887C118.54 192.883 119.235 192.187 120.24 191.878C120.627 191.723 121.09 191.646 121.554 191.646C122.404 191.569 123.254 191.646 124.104 191.878C124.336 191.955 124.568 192.033 124.877 192.187C125.573 192.496 125.882 193.037 126.037 193.81C126.114 194.119 126.114 194.351 126.114 194.66C126.114 196.902 126.114 199.22 126.114 201.462C126.114 201.539 126.114 201.616 125.959 201.616C125.264 201.616 124.568 201.616 123.795 201.616C123.718 201.616 123.641 201.616 123.718 201.462C123.795 201.23 123.795 200.921 123.795 200.611ZM123.641 196.747C123.486 196.824 123.332 196.979 123.177 196.979C122.791 197.133 122.327 197.211 121.94 197.288C121.631 197.365 121.399 197.365 121.09 197.52C120.704 197.674 120.472 197.906 120.395 198.37C120.317 198.525 120.317 198.757 120.395 198.911C120.472 199.452 120.781 199.761 121.245 199.839C121.554 199.916 121.863 199.916 122.172 199.761C123.177 199.452 123.486 198.988 123.641 198.216C123.718 197.752 123.641 197.288 123.641 196.747Z" fill="#EF3829"/>
<path d="M138.325 201.616C136.857 201.616 135.697 201.075 134.77 199.993C133.997 199.143 133.533 198.215 133.456 197.056C133.301 195.124 134.074 193.578 135.62 192.496C136.316 191.955 137.088 191.723 138.016 191.646C138.711 191.569 139.484 191.646 140.103 191.955C141.803 192.651 142.885 193.887 143.271 195.742C143.503 197.133 143.271 198.447 142.498 199.529C141.726 200.611 140.721 201.307 139.407 201.539C138.943 201.616 138.634 201.616 138.325 201.616ZM138.325 194.042C136.857 193.965 135.697 195.278 135.697 196.67C135.697 197.984 136.779 199.297 138.325 199.297C139.871 199.297 140.953 197.984 140.953 196.67C140.953 195.201 139.793 193.965 138.325 194.042Z" fill="#EF3829"/>
<path d="M113.053 206.64C113.362 206.331 113.671 206.176 114.057 206.022C114.753 205.79 115.371 205.867 115.989 206.176C116.221 206.331 116.376 206.485 116.608 206.717C116.685 206.795 116.685 206.795 116.762 206.717C117.149 206.331 117.612 206.022 118.153 205.944C118.772 205.867 119.313 205.867 119.931 206.099C120.627 206.408 121.013 207.026 121.168 207.799C121.245 208.031 121.245 208.263 121.245 208.495C121.245 209.886 121.245 211.355 121.245 212.746C121.245 212.823 121.245 212.9 121.168 212.823C120.704 212.823 120.163 212.823 119.699 212.823C119.622 212.823 119.622 212.823 119.622 212.746C119.622 211.355 119.622 210.041 119.622 208.649C119.622 208.418 119.622 208.186 119.467 208.031C119.313 207.645 118.849 207.413 118.463 207.413C118.076 207.413 117.767 207.567 117.535 207.877C117.381 208.108 117.303 208.34 117.303 208.572C117.303 209.963 117.303 211.277 117.303 212.668C117.303 212.746 117.303 212.823 117.149 212.823C116.685 212.823 116.144 212.823 115.68 212.823C115.603 212.823 115.603 212.823 115.603 212.746C115.603 211.355 115.603 210.041 115.603 208.649C115.603 208.418 115.603 208.186 115.448 207.954C115.217 207.567 114.907 207.413 114.521 207.413C114.057 207.413 113.748 207.567 113.516 207.954C113.362 208.186 113.362 208.418 113.362 208.649C113.362 209.963 113.362 211.355 113.362 212.668C113.362 212.746 113.362 212.746 113.284 212.746C112.743 212.746 112.28 212.746 111.739 212.746C111.661 212.746 111.661 212.746 111.661 212.668C111.661 210.427 111.661 208.186 111.661 205.944C111.661 205.867 111.661 205.867 111.739 205.867C112.202 205.867 112.743 205.867 113.207 205.867C113.284 205.867 113.284 205.867 113.284 205.944C113.053 206.254 113.053 206.485 113.053 206.64Z" fill="black"/>
<path d="M129.978 193.269C130.133 193.115 130.21 193.038 130.287 192.883C130.828 192.342 131.447 191.956 132.142 191.801C132.451 191.724 132.76 191.646 133.07 191.646C133.147 191.646 133.147 191.646 133.147 191.724C133.147 192.497 133.147 193.192 133.147 193.965C133.147 194.042 133.147 194.042 133.07 194.042C132.76 194.042 132.529 193.965 132.219 194.042C131.833 194.042 131.447 194.197 131.137 194.429C131.06 194.506 130.906 194.583 130.828 194.661C130.365 195.047 130.133 195.588 130.055 196.206C130.055 196.516 129.978 196.825 129.978 197.134C129.978 198.602 129.978 199.993 129.978 201.462C129.978 201.539 129.978 201.539 129.824 201.539C129.128 201.539 128.432 201.539 127.66 201.539C127.582 201.539 127.582 201.539 127.582 201.462C127.582 198.37 127.582 195.279 127.582 192.187C127.582 192.11 127.582 192.11 127.66 192.11C128.355 192.11 129.051 192.11 129.669 192.11C129.746 192.11 129.824 192.11 129.824 192.265C129.978 192.574 129.978 192.96 129.978 193.269Z" fill="#EF3829"/>
<path d="M114.212 195.433C114.212 193.423 114.212 191.414 114.212 189.405C114.212 189.327 114.212 189.25 114.366 189.25C115.062 189.25 115.757 189.25 116.53 189.25C116.608 189.25 116.685 189.25 116.685 189.327C116.685 193.346 116.685 197.442 116.685 201.461C116.685 201.539 116.685 201.616 116.608 201.616C115.912 201.616 115.139 201.616 114.444 201.616C114.366 201.616 114.366 201.616 114.366 201.461C114.212 199.452 114.212 197.442 114.212 195.433Z" fill="#EF3829"/>
<path d="M149.3 212.282C149.145 212.436 148.99 212.591 148.759 212.668C148.449 212.9 148.14 212.977 147.754 212.977C147.367 212.977 146.981 212.977 146.595 212.823C145.822 212.591 145.435 212.05 145.281 211.277C145.203 210.968 145.203 210.581 145.358 210.272C145.513 209.731 145.822 209.345 146.363 209.113C146.826 208.881 147.213 208.881 147.754 208.881C148.218 208.881 148.759 208.881 149.222 208.881C149.3 208.881 149.3 208.881 149.3 208.804C149.3 208.649 149.3 208.417 149.3 208.263C149.222 207.876 148.99 207.567 148.604 207.49C148.218 207.413 147.831 207.413 147.522 207.49C147.213 207.567 146.981 207.722 146.826 207.954C146.749 208.031 146.749 208.031 146.672 207.954C146.363 207.644 146.054 207.335 145.667 207.026C145.59 206.949 145.59 206.949 145.667 206.872C146.131 206.408 146.672 206.099 147.367 206.021C147.986 205.944 148.604 205.944 149.222 206.099C149.841 206.253 150.382 206.562 150.691 207.103C150.923 207.49 151 207.876 151 208.34C151 209.808 151 211.277 151 212.823C151 212.9 151 212.977 150.845 212.977C150.382 212.977 149.918 212.977 149.377 212.977C149.3 212.977 149.3 212.977 149.3 212.9C149.3 212.668 149.3 212.514 149.3 212.282ZM149.222 210.349C149.222 210.272 149.222 210.195 149.222 210.118C149.222 210.04 149.222 210.04 149.145 210.04C148.759 210.04 148.295 210.04 147.908 210.04C147.754 210.04 147.677 210.04 147.522 210.118C147.136 210.195 146.981 210.427 146.904 210.813C146.904 211.2 147.058 211.432 147.445 211.586C147.831 211.741 148.218 211.663 148.604 211.586C148.99 211.509 149.222 211.2 149.222 210.813C149.222 210.581 149.222 210.427 149.222 210.349Z" fill="black"/>
<path d="M126.655 212.282C125.959 212.977 125.109 213.132 124.182 212.9C123.332 212.668 122.868 212.127 122.713 211.277C122.636 211.045 122.636 210.736 122.636 210.504C122.636 209.036 122.636 207.644 122.636 206.176C122.636 206.099 122.636 206.021 122.791 206.021C123.254 206.021 123.795 206.021 124.259 206.021C124.336 206.021 124.336 206.021 124.336 206.099C124.336 207.49 124.336 208.804 124.336 210.195C124.336 210.581 124.414 210.891 124.645 211.122C124.877 211.354 125.186 211.432 125.496 211.432C125.882 211.432 126.191 211.277 126.423 210.968C126.578 210.813 126.578 210.581 126.655 210.35C126.655 210.118 126.655 209.963 126.655 209.731C126.655 208.572 126.655 207.335 126.655 206.176C126.655 206.099 126.655 206.099 126.732 206.099C127.196 206.099 127.737 206.099 128.201 206.099C128.278 206.099 128.278 206.099 128.278 206.176C128.278 208.417 128.278 210.659 128.278 212.823C128.278 212.9 128.278 212.9 128.201 212.9C127.737 212.9 127.196 212.9 126.732 212.9C126.655 212.9 126.655 212.9 126.655 212.823C126.655 212.591 126.655 212.436 126.655 212.282Z" fill="black"/>
<path d="M132.142 212.977C131.369 212.977 130.751 212.9 130.21 212.668C129.901 212.514 129.592 212.282 129.36 212.05C129.282 211.973 129.282 211.973 129.36 211.973C129.669 211.663 130.055 211.277 130.364 210.968C130.364 210.968 130.442 210.891 130.442 210.968C130.828 211.277 131.215 211.509 131.678 211.509C132.065 211.586 132.528 211.586 132.915 211.432C133.069 211.354 133.224 211.277 133.379 211.122C133.61 210.736 133.456 210.272 132.992 210.195C132.683 210.118 132.374 210.118 132.065 210.118C131.678 210.04 131.292 210.04 130.905 209.963C130.055 209.731 129.592 209.113 129.592 208.263C129.592 207.258 130.133 206.485 131.137 206.176C131.601 206.021 132.065 206.021 132.528 206.021C133.069 206.021 133.61 206.099 134.151 206.331C134.383 206.408 134.615 206.562 134.847 206.794C134.924 206.794 134.924 206.872 134.847 206.872C134.538 207.181 134.229 207.49 133.92 207.799C133.92 207.876 133.842 207.876 133.842 207.799C133.533 207.567 133.147 207.413 132.76 207.413C132.451 207.413 132.219 207.335 131.91 207.413C131.756 207.413 131.678 207.49 131.601 207.567C131.369 207.722 131.292 207.954 131.369 208.185C131.446 208.417 131.678 208.572 131.91 208.572C132.297 208.649 132.683 208.649 133.147 208.727C133.533 208.727 133.842 208.804 134.229 208.958C134.847 209.268 135.156 209.731 135.233 210.35C135.311 210.736 135.233 211.122 135.156 211.509C134.924 212.127 134.461 212.514 133.842 212.745C133.147 212.9 132.606 212.977 132.142 212.977Z" fill="black"/>
<path d="M139.33 209.499C139.33 208.804 139.407 208.185 139.716 207.567C140.103 206.717 140.798 206.176 141.803 206.021C142.421 205.944 143.04 205.944 143.581 206.099C144.044 206.253 144.353 206.485 144.663 206.794C144.74 206.872 144.663 206.872 144.663 206.872C144.276 207.258 143.967 207.567 143.581 207.954C143.503 208.031 143.503 207.954 143.503 207.954C143.271 207.722 143.117 207.567 142.808 207.49C142.035 207.335 141.417 207.722 141.185 208.495C141.03 209.113 141.03 209.731 141.185 210.349C141.339 210.891 141.648 211.2 142.112 211.354C142.576 211.432 143.04 211.354 143.426 210.968C143.581 210.813 143.581 210.813 143.658 210.968C143.967 211.277 144.276 211.586 144.585 211.895C144.663 211.973 144.663 211.973 144.585 212.05C143.967 212.668 143.194 212.9 142.344 212.9C141.726 212.9 141.185 212.745 140.721 212.436C140.103 212.05 139.716 211.432 139.484 210.736C139.407 210.349 139.33 209.886 139.33 209.499Z" fill="black"/>
<path d="M143.735 192.033C143.658 192.033 143.658 192.033 143.735 192.033C143.194 191.492 142.73 191.028 142.267 190.564C142.189 190.487 142.267 190.487 142.267 190.41C143.117 189.56 143.967 188.709 144.817 187.859C145.822 186.855 146.826 185.85 147.831 184.845C147.908 184.768 147.908 184.768 147.986 184.845C148.449 185.309 148.913 185.773 149.3 186.236C149.377 186.314 149.377 186.314 149.3 186.391C147.522 188.246 145.667 190.101 143.735 192.033C143.735 191.955 143.735 192.033 143.735 192.033Z" fill="#EF3829"/>
<path d="M147.908 196.516C146.904 196.516 145.899 196.516 144.894 196.516C144.817 196.516 144.74 196.516 144.74 196.361C144.74 195.743 144.74 195.124 144.74 194.429C144.74 194.352 144.74 194.352 144.817 194.352C146.826 194.352 148.836 194.352 150.845 194.352C150.923 194.352 150.923 194.352 150.923 194.429C150.923 195.047 150.923 195.665 150.923 196.361C150.923 196.438 150.923 196.438 150.845 196.438C149.918 196.516 148.913 196.516 147.908 196.516Z" fill="#EF3829"/>
<path d="M137.552 186.7C137.552 185.695 137.552 184.768 137.552 183.763C137.552 183.608 137.63 183.608 137.707 183.608C138.325 183.608 138.943 183.608 139.639 183.608C139.716 183.608 139.716 183.608 139.716 183.686C139.716 185.695 139.716 187.627 139.716 189.637C139.716 189.714 139.716 189.714 139.639 189.714C139.021 189.714 138.402 189.714 137.707 189.714C137.63 189.714 137.63 189.714 137.63 189.637C137.552 188.632 137.552 187.627 137.552 186.7Z" fill="#EF3829"/>
<path d="M136.316 209.422C136.316 208.34 136.316 207.181 136.316 206.099C136.316 206.021 136.316 206.021 136.393 206.021C136.934 206.021 137.398 206.021 137.939 206.021C138.016 206.021 138.016 206.021 138.016 206.099C138.016 208.34 138.016 210.581 138.016 212.745C138.016 212.823 138.016 212.823 137.939 212.823C137.398 212.823 136.934 212.823 136.393 212.823C136.316 212.823 136.316 212.823 136.316 212.745C136.316 211.663 136.316 210.581 136.316 209.422Z" fill="black"/>
<path d="M137.166 205.172C136.547 205.172 136.084 204.708 136.084 204.09C136.084 203.472 136.547 203.008 137.166 203.008C137.784 203.008 138.248 203.472 138.248 204.09C138.248 204.708 137.784 205.172 137.166 205.172Z" fill="black"/>
<path d="M124.723 204.94C124.8 204.708 124.877 204.476 125.032 204.167C125.186 203.703 125.418 203.239 125.573 202.776C125.573 202.698 125.573 202.698 125.65 202.698C126.191 202.698 126.809 202.698 127.35 202.698C127.35 202.698 127.35 202.776 127.273 202.776C126.809 203.471 126.346 204.167 125.882 204.862C125.882 204.94 125.805 204.94 125.727 204.94C125.418 204.94 125.032 204.94 124.723 204.94Z" fill="black"/>
<path d="M172.186 192.066C172.186 191.734 172.068 191.48 171.834 191.305C171.6 191.125 171.178 190.938 170.568 190.742C169.959 190.543 169.477 190.348 169.121 190.156C168.152 189.633 167.668 188.928 167.668 188.041C167.668 187.58 167.797 187.17 168.055 186.811C168.316 186.447 168.689 186.164 169.174 185.961C169.662 185.758 170.209 185.656 170.814 185.656C171.424 185.656 171.967 185.768 172.443 185.99C172.92 186.209 173.289 186.52 173.551 186.922C173.816 187.324 173.949 187.781 173.949 188.293H172.191C172.191 187.902 172.068 187.6 171.822 187.385C171.576 187.166 171.23 187.057 170.785 187.057C170.355 187.057 170.021 187.148 169.783 187.332C169.545 187.512 169.426 187.75 169.426 188.047C169.426 188.324 169.564 188.557 169.842 188.744C170.123 188.932 170.535 189.107 171.078 189.271C172.078 189.572 172.807 189.945 173.264 190.391C173.721 190.836 173.949 191.391 173.949 192.055C173.949 192.793 173.67 193.373 173.111 193.795C172.553 194.213 171.801 194.422 170.855 194.422C170.199 194.422 169.602 194.303 169.062 194.064C168.523 193.822 168.111 193.492 167.826 193.074C167.545 192.656 167.404 192.172 167.404 191.621H169.168C169.168 192.562 169.73 193.033 170.855 193.033C171.273 193.033 171.6 192.949 171.834 192.781C172.068 192.609 172.186 192.371 172.186 192.066ZM182.802 185.773V191.393C182.802 192.326 182.509 193.064 181.923 193.607C181.341 194.15 180.544 194.422 179.532 194.422C178.536 194.422 177.745 194.158 177.159 193.631C176.573 193.104 176.274 192.379 176.262 191.457V185.773H178.02V191.404C178.02 191.963 178.153 192.371 178.419 192.629C178.688 192.883 179.059 193.01 179.532 193.01C180.52 193.01 181.022 192.49 181.038 191.451V185.773H182.802ZM189.867 192.066C189.867 191.734 189.75 191.48 189.515 191.305C189.281 191.125 188.859 190.938 188.25 190.742C187.64 190.543 187.158 190.348 186.802 190.156C185.834 189.633 185.349 188.928 185.349 188.041C185.349 187.58 185.478 187.17 185.736 186.811C185.998 186.447 186.371 186.164 186.855 185.961C187.343 185.758 187.89 185.656 188.496 185.656C189.105 185.656 189.648 185.768 190.125 185.99C190.601 186.209 190.97 186.52 191.232 186.922C191.498 187.324 191.63 187.781 191.63 188.293H189.873C189.873 187.902 189.75 187.6 189.504 187.385C189.257 187.166 188.912 187.057 188.466 187.057C188.037 187.057 187.703 187.148 187.464 187.332C187.226 187.512 187.107 187.75 187.107 188.047C187.107 188.324 187.246 188.557 187.523 188.744C187.804 188.932 188.216 189.107 188.759 189.271C189.759 189.572 190.488 189.945 190.945 190.391C191.402 190.836 191.63 191.391 191.63 192.055C191.63 192.793 191.351 193.373 190.793 193.795C190.234 194.213 189.482 194.422 188.537 194.422C187.88 194.422 187.283 194.303 186.744 194.064C186.205 193.822 185.793 193.492 185.507 193.074C185.226 192.656 185.086 192.172 185.086 191.621H186.849C186.849 192.562 187.412 193.033 188.537 193.033C188.955 193.033 189.281 192.949 189.515 192.781C189.75 192.609 189.867 192.371 189.867 192.066ZM200.723 191.463C200.657 192.381 200.317 193.104 199.704 193.631C199.094 194.158 198.289 194.422 197.289 194.422C196.196 194.422 195.334 194.055 194.705 193.32C194.08 192.582 193.768 191.57 193.768 190.285V189.764C193.768 188.943 193.913 188.221 194.202 187.596C194.491 186.971 194.903 186.492 195.438 186.16C195.977 185.824 196.602 185.656 197.313 185.656C198.297 185.656 199.09 185.92 199.692 186.447C200.293 186.975 200.641 187.715 200.735 188.668H198.977C198.934 188.117 198.78 187.719 198.514 187.473C198.252 187.223 197.852 187.098 197.313 187.098C196.727 187.098 196.288 187.309 195.995 187.73C195.705 188.148 195.557 188.799 195.549 189.682V190.326C195.549 191.248 195.688 191.922 195.965 192.348C196.246 192.773 196.688 192.986 197.289 192.986C197.832 192.986 198.237 192.863 198.502 192.617C198.772 192.367 198.926 191.982 198.965 191.463H200.723ZM206.236 191.182H204.835V194.305H203.077V185.773H206.247C207.255 185.773 208.032 185.998 208.579 186.447C209.126 186.896 209.4 187.531 209.4 188.352C209.4 188.934 209.273 189.42 209.019 189.811C208.769 190.197 208.388 190.506 207.876 190.736L209.722 194.223V194.305H207.835L206.236 191.182ZM204.835 189.758H206.253C206.695 189.758 207.036 189.646 207.279 189.424C207.521 189.197 207.642 188.887 207.642 188.492C207.642 188.09 207.527 187.773 207.296 187.543C207.07 187.312 206.72 187.197 206.247 187.197H204.835V189.758ZM213.811 194.305H212.053V185.773H213.811V194.305ZM218.403 191.299V194.305H216.645V185.773H219.973C220.614 185.773 221.177 185.891 221.661 186.125C222.149 186.359 222.524 186.693 222.786 187.127C223.048 187.557 223.179 188.047 223.179 188.598C223.179 189.434 222.891 190.094 222.317 190.578C221.747 191.059 220.956 191.299 219.944 191.299H218.403ZM218.403 189.875H219.973C220.438 189.875 220.792 189.766 221.034 189.547C221.28 189.328 221.403 189.016 221.403 188.609C221.403 188.191 221.28 187.854 221.034 187.596C220.788 187.338 220.448 187.205 220.014 187.197H218.403V189.875ZM232.289 191.463C232.222 192.381 231.882 193.104 231.269 193.631C230.66 194.158 229.855 194.422 228.855 194.422C227.761 194.422 226.9 194.055 226.271 193.32C225.646 192.582 225.334 191.57 225.334 190.285V189.764C225.334 188.943 225.478 188.221 225.767 187.596C226.056 186.971 226.468 186.492 227.004 186.16C227.543 185.824 228.168 185.656 228.879 185.656C229.863 185.656 230.656 185.92 231.257 186.447C231.859 186.975 232.207 187.715 232.3 188.668H230.543C230.5 188.117 230.345 187.719 230.08 187.473C229.818 187.223 229.418 187.098 228.879 187.098C228.293 187.098 227.853 187.309 227.56 187.73C227.271 188.148 227.123 188.799 227.115 189.682V190.326C227.115 191.248 227.254 191.922 227.531 192.348C227.812 192.773 228.254 192.986 228.855 192.986C229.398 192.986 229.802 192.863 230.068 192.617C230.338 192.367 230.492 191.982 230.531 191.463H232.289ZM236.512 194.305H234.754V185.773H236.512V194.305ZM246.355 190.232C246.355 191.072 246.206 191.809 245.909 192.441C245.613 193.074 245.187 193.562 244.632 193.906C244.081 194.25 243.448 194.422 242.734 194.422C242.027 194.422 241.396 194.252 240.841 193.912C240.286 193.572 239.857 193.088 239.552 192.459C239.247 191.826 239.093 191.1 239.089 190.279V189.857C239.089 189.018 239.239 188.279 239.54 187.643C239.845 187.002 240.273 186.512 240.823 186.172C241.378 185.828 242.011 185.656 242.722 185.656C243.433 185.656 244.064 185.828 244.614 186.172C245.169 186.512 245.597 187.002 245.898 187.643C246.202 188.279 246.355 189.016 246.355 189.852V190.232ZM244.573 189.846C244.573 188.951 244.413 188.271 244.093 187.807C243.773 187.342 243.316 187.109 242.722 187.109C242.132 187.109 241.677 187.34 241.357 187.801C241.036 188.258 240.874 188.93 240.87 189.816V190.232C240.87 191.104 241.03 191.779 241.351 192.26C241.671 192.74 242.132 192.98 242.734 192.98C243.323 192.98 243.777 192.75 244.093 192.289C244.409 191.824 244.57 191.148 244.573 190.262V189.846ZM243.062 183.488H244.907L243.284 185.305H241.907L243.062 183.488ZM255.77 194.305H254.012L250.59 188.691V194.305H248.832V185.773H250.59L254.018 191.398V185.773H255.77V194.305ZM265.857 189.729H268.236V190.754H265.857V193.449H264.767V190.754H262.388V189.729H264.767V187.238H265.857V189.729ZM275.323 190.027L275.757 185.773H280.128V186.775H276.677L276.419 189.102C276.837 188.855 277.312 188.732 277.843 188.732C278.62 188.732 279.238 188.99 279.695 189.506C280.152 190.018 280.38 190.711 280.38 191.586C280.38 192.465 280.142 193.158 279.665 193.666C279.193 194.17 278.53 194.422 277.679 194.422C276.925 194.422 276.31 194.213 275.833 193.795C275.357 193.377 275.085 192.799 275.019 192.061H276.044C276.111 192.549 276.284 192.918 276.566 193.168C276.847 193.414 277.218 193.537 277.679 193.537C278.183 193.537 278.577 193.365 278.863 193.021C279.152 192.678 279.296 192.203 279.296 191.598C279.296 191.027 279.14 190.57 278.827 190.227C278.519 189.879 278.107 189.705 277.591 189.705C277.118 189.705 276.747 189.809 276.478 190.016L276.191 190.25L275.323 190.027ZM293.52 193.186C293.231 193.6 292.827 193.91 292.307 194.117C291.792 194.32 291.19 194.422 290.503 194.422C289.807 194.422 289.19 194.26 288.651 193.936C288.112 193.607 287.694 193.143 287.397 192.541C287.104 191.939 286.954 191.242 286.946 190.449V189.705C286.946 188.42 287.245 187.424 287.843 186.717C288.444 186.01 289.288 185.656 290.374 185.656C291.264 185.656 291.981 185.885 292.524 186.342C293.067 186.795 293.399 187.439 293.52 188.275H292.395C292.184 187.146 291.512 186.582 290.38 186.582C289.626 186.582 289.054 186.848 288.663 187.379C288.276 187.906 288.081 188.672 288.077 189.676V190.373C288.077 191.33 288.296 192.092 288.733 192.658C289.171 193.221 289.762 193.502 290.509 193.502C290.93 193.502 291.3 193.455 291.616 193.361C291.932 193.268 292.194 193.109 292.401 192.887V190.971H290.427V190.057H293.52V193.186ZM296.601 194.305V185.773H299.39C300.316 185.773 301.011 185.965 301.476 186.348C301.945 186.73 302.179 187.297 302.179 188.047C302.179 188.445 302.066 188.799 301.839 189.107C301.613 189.412 301.304 189.648 300.914 189.816C301.375 189.945 301.738 190.191 302.004 190.555C302.273 190.914 302.408 191.344 302.408 191.844C302.408 192.609 302.16 193.211 301.664 193.648C301.168 194.086 300.466 194.305 299.56 194.305H296.601ZM297.726 190.314V193.385H299.584C300.107 193.385 300.519 193.25 300.82 192.98C301.125 192.707 301.277 192.332 301.277 191.855C301.277 190.828 300.718 190.314 299.601 190.314H297.726ZM297.726 189.412H299.425C299.918 189.412 300.31 189.289 300.603 189.043C300.9 188.797 301.048 188.463 301.048 188.041C301.048 187.572 300.912 187.232 300.638 187.021C300.365 186.807 299.949 186.699 299.39 186.699H297.726V189.412Z" fill="#222222"/>
<path d="M169.115 206.965V210.305H167.99V201.773H171.137C172.07 201.773 172.801 202.012 173.328 202.488C173.859 202.965 174.125 203.596 174.125 204.381C174.125 205.209 173.865 205.848 173.346 206.297C172.83 206.742 172.09 206.965 171.125 206.965H169.115ZM169.115 206.045H171.137C171.738 206.045 172.199 205.904 172.52 205.623C172.84 205.338 173 204.928 173 204.393C173 203.885 172.84 203.479 172.52 203.174C172.199 202.869 171.76 202.711 171.201 202.699H169.115V206.045ZM180.663 208.078H177.089L176.286 210.305H175.126L178.384 201.773H179.368L182.632 210.305H181.477L180.663 208.078ZM177.429 207.152H180.329L178.876 203.162L177.429 207.152ZM188.109 206.854H186.105V210.305H184.974V201.773H187.798C188.759 201.773 189.498 201.992 190.013 202.43C190.533 202.867 190.793 203.504 190.793 204.34C190.793 204.871 190.648 205.334 190.359 205.729C190.074 206.123 189.675 206.418 189.164 206.613L191.168 210.234V210.305H189.961L188.109 206.854ZM186.105 205.934H187.834C188.392 205.934 188.836 205.789 189.164 205.5C189.496 205.211 189.662 204.824 189.662 204.34C189.662 203.812 189.504 203.408 189.187 203.127C188.875 202.846 188.421 202.703 187.828 202.699H186.105V205.934ZM198.286 208.078H194.711L193.909 210.305H192.748L196.006 201.773H196.991L200.254 210.305H199.1L198.286 208.078ZM195.051 207.152H197.952L196.498 203.162L195.051 207.152ZM213.055 207.598C212.949 208.5 212.615 209.197 212.053 209.689C211.494 210.178 210.75 210.422 209.82 210.422C208.812 210.422 208.004 210.061 207.395 209.338C206.789 208.615 206.486 207.648 206.486 206.438V205.617C206.486 204.824 206.627 204.127 206.908 203.525C207.193 202.924 207.596 202.463 208.115 202.143C208.635 201.818 209.236 201.656 209.92 201.656C210.826 201.656 211.553 201.91 212.1 202.418C212.646 202.922 212.965 203.621 213.055 204.516H211.924C211.826 203.836 211.613 203.344 211.285 203.039C210.961 202.734 210.506 202.582 209.92 202.582C209.201 202.582 208.637 202.848 208.227 203.379C207.82 203.91 207.617 204.666 207.617 205.646V206.473C207.617 207.398 207.811 208.135 208.197 208.682C208.584 209.229 209.125 209.502 209.82 209.502C210.445 209.502 210.924 209.361 211.256 209.08C211.592 208.795 211.814 208.301 211.924 207.598H213.055ZM216.927 209.385H220.97V210.305H215.796V201.773H216.927V209.385ZM228.281 208.078H224.707L223.904 210.305H222.744L226.002 201.773H226.986L230.25 210.305H229.095L228.281 208.078ZM225.046 207.152H227.947L226.494 203.162L225.046 207.152ZM235.727 206.854H233.723V210.305H232.592V201.773H235.416C236.377 201.773 237.116 201.992 237.631 202.43C238.151 202.867 238.411 203.504 238.411 204.34C238.411 204.871 238.266 205.334 237.977 205.729C237.692 206.123 237.293 206.418 236.782 206.613L238.786 210.234V210.305H237.579L235.727 206.854ZM233.723 205.934H235.452C236.01 205.934 236.454 205.789 236.782 205.5C237.114 205.211 237.28 204.824 237.28 204.34C237.28 203.812 237.121 203.408 236.805 203.127C236.493 202.846 236.039 202.703 235.446 202.699H233.723V205.934ZM247.755 206.314C247.755 207.15 247.614 207.881 247.333 208.506C247.052 209.127 246.654 209.602 246.138 209.93C245.622 210.258 245.021 210.422 244.333 210.422C243.661 210.422 243.066 210.258 242.546 209.93C242.027 209.598 241.622 209.127 241.333 208.518C241.048 207.904 240.902 207.195 240.894 206.391V205.775C240.894 204.955 241.036 204.23 241.321 203.602C241.607 202.973 242.009 202.492 242.529 202.16C243.052 201.824 243.65 201.656 244.321 201.656C245.005 201.656 245.607 201.822 246.126 202.154C246.65 202.482 247.052 202.961 247.333 203.59C247.614 204.215 247.755 204.943 247.755 205.775V206.314ZM246.636 205.764C246.636 204.752 246.433 203.977 246.027 203.438C245.62 202.895 245.052 202.623 244.321 202.623C243.611 202.623 243.05 202.895 242.64 203.438C242.234 203.977 242.025 204.727 242.013 205.688V206.314C242.013 207.295 242.218 208.066 242.628 208.629C243.042 209.188 243.611 209.467 244.333 209.467C245.06 209.467 245.622 209.203 246.021 208.676C246.419 208.145 246.624 207.385 246.636 206.396V205.764ZM257.643 208.811L260.081 201.773H261.311L258.147 210.305H257.151L253.993 201.773H255.218L257.643 208.811ZM264.867 210.305H263.742V201.773H264.867V210.305ZM268.129 210.305V201.773H270.537C271.28 201.773 271.936 201.938 272.506 202.266C273.077 202.594 273.516 203.061 273.825 203.666C274.137 204.271 274.295 204.967 274.299 205.752V206.297C274.299 207.102 274.143 207.807 273.83 208.412C273.522 209.018 273.079 209.482 272.5 209.807C271.926 210.131 271.256 210.297 270.491 210.305H268.129ZM269.254 202.699V209.385H270.438C271.305 209.385 271.979 209.115 272.459 208.576C272.944 208.037 273.186 207.27 273.186 206.273V205.775C273.186 204.807 272.957 204.055 272.5 203.52C272.047 202.98 271.403 202.707 270.567 202.699H269.254ZM282.027 206.361H278.329V209.385H282.624V210.305H277.204V201.773H282.566V202.699H278.329V205.441H282.027V206.361ZM291.787 206.314C291.787 207.15 291.646 207.881 291.365 208.506C291.084 209.127 290.686 209.602 290.17 209.93C289.654 210.258 289.053 210.422 288.365 210.422C287.693 210.422 287.098 210.258 286.578 209.93C286.059 209.598 285.654 209.127 285.365 208.518C285.08 207.904 284.934 207.195 284.926 206.391V205.775C284.926 204.955 285.068 204.23 285.354 203.602C285.639 202.973 286.041 202.492 286.561 202.16C287.084 201.824 287.682 201.656 288.354 201.656C289.037 201.656 289.639 201.822 290.158 202.154C290.682 202.482 291.084 202.961 291.365 203.59C291.646 204.215 291.787 204.943 291.787 205.775V206.314ZM290.668 205.764C290.668 204.752 290.465 203.977 290.059 203.438C289.652 202.895 289.084 202.623 288.354 202.623C287.643 202.623 287.082 202.895 286.672 203.438C286.266 203.977 286.057 204.727 286.045 205.688V206.314C286.045 207.295 286.25 208.066 286.66 208.629C287.074 209.188 287.643 209.467 288.365 209.467C289.092 209.467 289.654 209.203 290.053 208.676C290.451 208.145 290.656 207.385 290.668 206.396V205.764Z" fill="#222222"/>
<defs>
<filter id="filter0_d" x="195.75" y="32.1562" width="17.9375" height="18.5625" filterUnits="userSpaceOnUse" color-interpolation-filters="sRGB">
<feFlood flood-opacity="0" result="BackgroundImageFix"/>
<feColorMatrix in="SourceAlpha" type="matrix" values="0 0 0 0 0 0 0 0 0 0 0 0 0 0 0 0 0 0 127 0"/>
<feOffset dx="2" dy="2"/>
<feColorMatrix type="matrix" values="0 0 0 0 0 0 0 0 0 0 0 0 0 0 0 0 0 0 0.15 0"/>
<feBlend mode="normal" in2="BackgroundImageFix" result="effect1_dropShadow"/>
<feBlend mode="normal" in="SourceGraphic" in2="effect1_dropShadow" result="shape"/>
</filter>
<filter id="filter1_d" x="136.282" y="110.96" width="17.9375" height="18.5625" filterUnits="userSpaceOnUse" color-interpolation-filters="sRGB">
<feFlood flood-opacity="0" result="BackgroundImageFix"/>
<feColorMatrix in="SourceAlpha" type="matrix" values="0 0 0 0 0 0 0 0 0 0 0 0 0 0 0 0 0 0 127 0"/>
<feOffset dx="2" dy="2"/>
<feColorMatrix type="matrix" values="0 0 0 0 0 0 0 0 0 0 0 0 0 0 0 0 0 0 0.15 0"/>
<feBlend mode="normal" in2="BackgroundImageFix" result="effect1_dropShadow"/>
<feBlend mode="normal" in="SourceGraphic" in2="effect1_dropShadow" result="shape"/>
</filter>
<filter id="filter2_d" x="168.971" y="103.903" width="30.9701" height="31.0912" filterUnits="userSpaceOnUse" color-interpolation-filters="sRGB">
<feFlood flood-opacity="0" result="BackgroundImageFix"/>
<feColorMatrix in="SourceAlpha" type="matrix" values="0 0 0 0 0 0 0 0 0 0 0 0 0 0 0 0 0 0 127 0"/>
<feOffset dy="1"/>
<feGaussianBlur stdDeviation="1"/>
<feColorMatrix type="matrix" values="0 0 0 0 0 0 0 0 0 0 0 0 0 0 0 0 0 0 0.1 0"/>
<feBlend mode="normal" in2="BackgroundImageFix" result="effect1_dropShadow"/>
<feBlend mode="normal" in="SourceGraphic" in2="effect1_dropShadow" result="shape"/>
</filter>
<filter id="filter3_d" x="84.875" y="193.883" width="9.96875" height="10.2812" filterUnits="userSpaceOnUse" color-interpolation-filters="sRGB">
<feFlood flood-opacity="0" result="BackgroundImageFix"/>
<feColorMatrix in="SourceAlpha" type="matrix" values="0 0 0 0 0 0 0 0 0 0 0 0 0 0 0 0 0 0 127 0"/>
<feOffset dx="2" dy="2"/>
<feColorMatrix type="matrix" values="0 0 0 0 0 0 0 0 0 0 0 0 0 0 0 0 0 0 0.15 0"/>
<feBlend mode="normal" in2="BackgroundImageFix" result="effect1_dropShadow"/>
<feBlend mode="normal" in="SourceGraphic" in2="effect1_dropShadow" result="shape"/>
</filter>
<linearGradient id="paint0_linear" x1="184.456" y1="131.526" x2="184.456" y2="105.373" gradientUnits="userSpaceOnUse">
<stop stop-color="#20B038"/>
<stop offset="1" stop-color="#60D66A"/>
</linearGradient>
<linearGradient id="paint1_linear" x1="184.456" y1="131.995" x2="184.456" y2="104.903" gradientUnits="userSpaceOnUse">
<stop stop-color="#F9F9F9"/>
<stop offset="1" stop-color="white"/>
</linearGradient>
<clipPath id="clip0">
<rect x="168.532" y="102.804" width="31.9356" height="32" rx="6" fill="white"/>
</clipPath>
<clipPath id="clip1">
<rect width="50" height="28.7879" fill="white" transform="translate(27 183.91)"/>
</clipPath>
</defs>
</svg>
