<svg width="296" height="317" viewBox="0 0 296 317" fill="none" xmlns="http://www.w3.org/2000/svg">
<rect width="296" height="317" fill="#F5F5F5"/>
<path opacity="0.2" d="M36.9494 43.5024C38.246 46.1533 40.3948 48.2922 43.0515 49.5768C43.2459 49.6689 43.4609 49.7088 43.6754 49.6926C43.8899 49.6763 44.0964 49.6045 44.2747 49.4842L48.1866 46.8757C48.3596 46.7604 48.5586 46.69 48.7657 46.671C48.9728 46.6519 49.1813 46.6849 49.3724 46.7668L56.6907 49.9032C56.9393 50.0088 57.1469 50.1923 57.2821 50.4262C57.4173 50.66 57.4729 50.9314 57.4405 51.1996C57.2092 53.0096 56.326 54.6732 54.9564 55.879C53.5869 57.0847 51.8247 57.7499 50 57.75C44.3641 57.75 38.9591 55.5112 34.974 51.526C30.9888 47.5409 28.75 42.1359 28.75 36.5C28.7501 34.6753 29.4153 32.9132 30.6211 31.5436C31.8268 30.174 33.4905 29.2909 35.3005 29.0596C35.5686 29.0271 35.84 29.0827 36.0739 29.2179C36.3077 29.3531 36.4912 29.5607 36.5968 29.8093L39.736 37.134C39.8172 37.3234 39.8502 37.53 39.8323 37.7353C39.8143 37.9407 39.7458 38.1384 39.6329 38.3109L37.0335 42.2827C36.9152 42.4614 36.8453 42.6677 36.8305 42.8815C36.8158 43.0952 36.8567 43.3092 36.9494 43.5024V43.5024Z" fill="#EF3829"/>
<path d="M36.9494 43.5024C38.246 46.1533 40.3948 48.2922 43.0515 49.5768C43.2459 49.6689 43.4609 49.7088 43.6754 49.6926C43.8899 49.6763 44.0964 49.6045 44.2747 49.4842L48.1866 46.8757C48.3596 46.7604 48.5586 46.69 48.7657 46.671C48.9728 46.6519 49.1813 46.6849 49.3724 46.7668L56.6907 49.9032C56.9393 50.0088 57.1469 50.1923 57.2821 50.4262C57.4173 50.66 57.4729 50.9314 57.4405 51.1996C57.2092 53.0096 56.326 54.6732 54.9564 55.879C53.5869 57.0847 51.8247 57.7499 50 57.75C44.3641 57.75 38.9591 55.5112 34.974 51.526C30.9888 47.5409 28.75 42.1359 28.75 36.5C28.7501 34.6753 29.4153 32.9132 30.6211 31.5436C31.8268 30.174 33.4905 29.2909 35.3005 29.0596C35.5686 29.0271 35.84 29.0827 36.0739 29.2179C36.3077 29.3531 36.4912 29.5607 36.5968 29.8093L39.736 37.134C39.8172 37.3234 39.8502 37.53 39.8323 37.7353C39.8143 37.9407 39.7458 38.1384 39.6329 38.3109L37.0335 42.2827C36.9152 42.4614 36.8453 42.6677 36.8305 42.8815C36.8158 43.0952 36.8567 43.3092 36.9494 43.5024V43.5024Z" stroke="#EF3829" stroke-width="2" stroke-linecap="round" stroke-linejoin="round"/>
<path d="M75.9531 58H69.1172V29.5625H75.9531V58ZM85.9742 52.7266H97.9078V58H79.1187V29.5625H85.9742V52.7266ZM106.503 58H99.6672V29.5625H106.503V58ZM118.673 29.5625L125.02 49.3477L131.348 29.5625H140.372V58H133.497V51.3594L134.161 37.7656L127.286 58H122.755L115.86 37.7461L116.524 51.3594V58H109.669V29.5625H118.673ZM150.452 58H143.616V29.5625H150.452V58ZM175.355 34.8555H166.82V58H159.965V34.8555H151.586V29.5625H175.355V34.8555ZM190.474 52.6875H181.08L179.439 58H172.115L182.545 29.5625H188.99L199.498 58H192.134L190.474 52.6875ZM182.72 47.3945H188.834L185.767 37.5312L182.72 47.3945ZM199.988 58V29.5625H209.148C211.661 29.5625 213.92 30.1354 215.925 31.2812C217.93 32.4141 219.493 34.0221 220.613 36.1055C221.745 38.1758 222.318 40.5 222.331 43.0781V44.3867C222.331 46.9909 221.778 49.3281 220.671 51.3984C219.577 53.4557 218.028 55.0703 216.023 56.2422C214.03 57.401 211.804 57.987 209.343 58H199.988ZM206.843 34.8555V52.7266H209.226C211.192 52.7266 212.702 52.0299 213.757 50.6367C214.812 49.2305 215.339 47.1471 215.339 44.3867V43.1562C215.339 40.4089 214.812 38.3385 213.757 36.9453C212.702 35.5521 211.166 34.8555 209.148 34.8555H206.843ZM248.329 44.3672C248.329 47.1406 247.815 49.5951 246.786 51.7305C245.757 53.8659 244.292 55.513 242.391 56.6719C240.503 57.8177 238.348 58.3906 235.927 58.3906C233.505 58.3906 231.356 57.8372 229.481 56.7305C227.606 55.6107 226.141 54.0156 225.087 51.9453C224.045 49.875 223.498 47.4987 223.446 44.8164V43.2148C223.446 40.4284 223.954 37.974 224.97 35.8516C225.998 33.7161 227.463 32.069 229.364 30.9102C231.278 29.7513 233.453 29.1719 235.887 29.1719C238.296 29.1719 240.445 29.7448 242.333 30.8906C244.221 32.0365 245.686 33.6706 246.727 35.793C247.782 37.9023 248.316 40.3242 248.329 43.0586V44.3672ZM241.356 43.1758C241.356 40.3503 240.881 38.2083 239.93 36.75C238.993 35.2786 237.645 34.543 235.887 34.543C232.45 34.543 230.634 37.1211 230.438 42.2773L230.419 44.3672C230.419 47.1536 230.881 49.2956 231.805 50.793C232.73 52.2904 234.104 53.0391 235.927 53.0391C237.658 53.0391 238.993 52.3034 239.93 50.832C240.868 49.3607 241.343 47.2448 241.356 44.4844V43.1758ZM264.932 50.4414C264.932 49.4388 264.574 48.6576 263.858 48.0977C263.155 47.5378 261.911 46.9583 260.127 46.3594C258.343 45.7604 256.885 45.181 255.752 44.6211C252.067 42.8112 250.225 40.3242 250.225 37.1602C250.225 35.5846 250.681 34.1979 251.592 33C252.517 31.7891 253.819 30.8516 255.498 30.1875C257.178 29.5104 259.066 29.1719 261.163 29.1719C263.207 29.1719 265.036 29.5365 266.651 30.2656C268.278 30.9948 269.541 32.0365 270.44 33.3906C271.338 34.7318 271.788 36.2682 271.788 38H264.952C264.952 36.8411 264.593 35.9427 263.877 35.3047C263.174 34.6667 262.217 34.3477 261.006 34.3477C259.782 34.3477 258.812 34.6211 258.096 35.168C257.393 35.7018 257.041 36.3854 257.041 37.2188C257.041 37.9479 257.432 38.612 258.213 39.2109C258.995 39.7969 260.368 40.4089 262.334 41.0469C264.301 41.6719 265.915 42.349 267.178 43.0781C270.251 44.849 271.788 47.2904 271.788 50.4023C271.788 52.8893 270.85 54.8424 268.975 56.2617C267.1 57.681 264.528 58.3906 261.26 58.3906C258.955 58.3906 256.866 57.9805 254.991 57.1602C253.129 56.3268 251.722 55.194 250.772 53.7617C249.834 52.3164 249.366 50.6562 249.366 48.7812H256.241C256.241 50.3047 256.631 51.431 257.413 52.1602C258.207 52.8763 259.489 53.2344 261.26 53.2344C262.393 53.2344 263.285 52.9935 263.936 52.5117C264.6 52.0169 264.932 51.3268 264.932 50.4414Z" fill="#EF3829"/>
<path d="M73.1514 75.4023H68.9814L68.0449 78H66.6914L70.4922 68.0469H71.6406L75.4482 78H74.1016L73.1514 75.4023ZM69.3779 74.3223H72.7617L71.0664 69.667L69.3779 74.3223ZM87.9843 69.127H84.785V78H83.4794V69.127H80.287V68.0469H87.9843V69.127ZM97.4857 73.3447C97.4857 74.32 97.3216 75.1722 96.9935 75.9014C96.6654 76.626 96.2005 77.1797 95.5989 77.5625C94.9974 77.9453 94.2956 78.1367 93.4935 78.1367C92.7096 78.1367 92.0146 77.9453 91.4085 77.5625C90.8024 77.1751 90.3307 76.626 89.9935 75.915C89.6608 75.1995 89.4899 74.3724 89.4808 73.4336V72.7158C89.4808 71.7588 89.6471 70.9134 89.9798 70.1797C90.3125 69.446 90.7819 68.8854 91.388 68.498C91.9987 68.1061 92.696 67.9102 93.4798 67.9102C94.2773 67.9102 94.9792 68.1038 95.5853 68.4912C96.196 68.874 96.6654 69.4323 96.9935 70.166C97.3216 70.8952 97.4857 71.7451 97.4857 72.7158V73.3447ZM96.18 72.7021C96.18 71.5218 95.943 70.6172 95.4691 69.9883C94.9951 69.3548 94.332 69.0381 93.4798 69.0381C92.6504 69.0381 91.9964 69.3548 91.5179 69.9883C91.0439 70.6172 90.8001 71.4922 90.7864 72.6133V73.3447C90.7864 74.4886 91.0257 75.3887 91.5042 76.0449C91.9873 76.6966 92.6504 77.0225 93.4935 77.0225C94.3411 77.0225 94.9974 76.7148 95.4622 76.0996C95.9271 75.4798 96.1663 74.5934 96.18 73.4404V72.7021ZM100.014 78V68.0469H102.824C103.69 68.0469 104.455 68.2383 105.121 68.6211C105.786 69.0039 106.299 69.5485 106.659 70.2549C107.024 70.9613 107.208 71.7725 107.213 72.6885V73.3242C107.213 74.263 107.03 75.0856 106.666 75.792C106.306 76.4984 105.789 77.0407 105.114 77.4189C104.444 77.7972 103.663 77.9909 102.769 78H100.014ZM101.327 69.127V76.9268H102.708C103.719 76.9268 104.506 76.6123 105.066 75.9834C105.631 75.3545 105.914 74.459 105.914 73.2969V72.7158C105.914 71.5856 105.647 70.7083 105.114 70.084C104.585 69.4551 103.833 69.1361 102.858 69.127H101.327ZM115.108 75.4023H110.938L110.001 78H108.648L112.448 68.0469H113.597L117.404 78H116.058L115.108 75.4023ZM111.334 74.3223H114.718L113.023 69.667L111.334 74.3223ZM122.237 73.5635C121.111 73.2399 120.291 72.8434 119.776 72.374C119.266 71.9001 119.01 71.3167 119.01 70.624C119.01 69.8402 119.323 69.193 119.947 68.6826C120.576 68.1676 121.392 67.9102 122.394 67.9102C123.078 67.9102 123.686 68.0423 124.219 68.3066C124.757 68.571 125.172 68.9355 125.464 69.4004C125.76 69.8652 125.908 70.3734 125.908 70.9248H124.589C124.589 70.3232 124.397 69.8516 124.014 69.5098C123.631 69.1634 123.091 68.9902 122.394 68.9902C121.747 68.9902 121.241 69.1338 120.877 69.4209C120.517 69.7035 120.337 70.0977 120.337 70.6035C120.337 71.0091 120.507 71.3532 120.849 71.6357C121.196 71.9137 121.781 72.1689 122.606 72.4014C123.436 72.6338 124.083 72.8913 124.548 73.1738C125.017 73.4518 125.363 73.7777 125.587 74.1514C125.814 74.5251 125.928 74.9648 125.928 75.4707C125.928 76.2773 125.614 76.9245 124.985 77.4121C124.356 77.8952 123.515 78.1367 122.463 78.1367C121.779 78.1367 121.141 78.0068 120.548 77.7471C119.956 77.4827 119.498 77.1227 119.174 76.667C118.855 76.2113 118.696 75.694 118.696 75.1152H120.015C120.015 75.7168 120.236 76.193 120.678 76.5439C121.125 76.8903 121.72 77.0635 122.463 77.0635C123.155 77.0635 123.686 76.9222 124.055 76.6396C124.424 76.3571 124.609 75.972 124.609 75.4844C124.609 74.9967 124.438 74.6208 124.096 74.3564C123.755 74.0876 123.135 73.8232 122.237 73.5635ZM133.529 76.9268H138.246V78H132.209V68.0469H133.529V76.9268ZM145.936 75.4023H141.766L140.829 78H139.476L143.276 68.0469H144.425L148.232 78H146.886L145.936 75.4023ZM142.162 74.3223H145.546L143.851 69.667L142.162 74.3223ZM153.065 73.5635C151.939 73.2399 151.119 72.8434 150.604 72.374C150.093 71.9001 149.838 71.3167 149.838 70.624C149.838 69.8402 150.15 69.193 150.775 68.6826C151.404 68.1676 152.219 67.9102 153.222 67.9102C153.906 67.9102 154.514 68.0423 155.047 68.3066C155.585 68.571 156 68.9355 156.291 69.4004C156.588 69.8652 156.736 70.3734 156.736 70.9248H155.416C155.416 70.3232 155.225 69.8516 154.842 69.5098C154.459 69.1634 153.919 68.9902 153.222 68.9902C152.575 68.9902 152.069 69.1338 151.704 69.4209C151.344 69.7035 151.164 70.0977 151.164 70.6035C151.164 71.0091 151.335 71.3532 151.677 71.6357C152.024 71.9137 152.609 72.1689 153.434 72.4014C154.263 72.6338 154.911 72.8913 155.375 73.1738C155.845 73.4518 156.191 73.7777 156.414 74.1514C156.642 74.5251 156.756 74.9648 156.756 75.4707C156.756 76.2773 156.442 76.9245 155.813 77.4121C155.184 77.8952 154.343 78.1367 153.29 78.1367C152.607 78.1367 151.969 78.0068 151.376 77.7471C150.784 77.4827 150.326 77.1227 150.002 76.667C149.683 76.2113 149.524 75.694 149.524 75.1152H150.843C150.843 75.7168 151.064 76.193 151.506 76.5439C151.953 76.8903 152.548 77.0635 153.29 77.0635C153.983 77.0635 154.514 76.9222 154.883 76.6396C155.252 76.3571 155.437 75.972 155.437 75.4844C155.437 74.9967 155.266 74.6208 154.924 74.3564C154.582 74.0876 153.963 73.8232 153.065 73.5635ZM170.694 73.3447C170.694 74.32 170.53 75.1722 170.201 75.9014C169.873 76.626 169.408 77.1797 168.807 77.5625C168.205 77.9453 167.504 78.1367 166.701 78.1367C165.918 78.1367 165.223 77.9453 164.616 77.5625C164.01 77.1751 163.539 76.626 163.201 75.915C162.869 75.1995 162.698 74.3724 162.689 73.4336V72.7158C162.689 71.7588 162.855 70.9134 163.188 70.1797C163.52 69.446 163.99 68.8854 164.596 68.498C165.207 68.1061 165.904 67.9102 166.688 67.9102C167.485 67.9102 168.187 68.1038 168.793 68.4912C169.404 68.874 169.873 69.4323 170.201 70.166C170.53 70.8952 170.694 71.7451 170.694 72.7158V73.3447ZM169.388 72.7021C169.388 71.5218 169.151 70.6172 168.677 69.9883C168.203 69.3548 167.54 69.0381 166.688 69.0381C165.858 69.0381 165.204 69.3548 164.726 69.9883C164.252 70.6172 164.008 71.4922 163.994 72.6133V73.3447C163.994 74.4886 164.234 75.3887 164.712 76.0449C165.195 76.6966 165.858 77.0225 166.701 77.0225C167.549 77.0225 168.205 76.7148 168.67 76.0996C169.135 75.4798 169.374 74.5934 169.388 73.4404V72.7021ZM174.535 74.1035V78H173.222V68.0469H176.893C177.982 68.0469 178.835 68.3249 179.45 68.8809C180.07 69.4368 180.38 70.1729 180.38 71.0889C180.38 72.055 180.077 72.8001 179.47 73.3242C178.869 73.8438 178.005 74.1035 176.88 74.1035H174.535ZM174.535 73.0303H176.893C177.595 73.0303 178.133 72.8662 178.507 72.5381C178.88 72.2054 179.067 71.7269 179.067 71.1025C179.067 70.5101 178.88 70.0361 178.507 69.6807C178.133 69.3252 177.62 69.1406 176.968 69.127H174.535V73.0303ZM188.24 73.3994H183.927V76.9268H188.938V78H182.614V68.0469H188.869V69.127H183.927V72.3262H188.24V73.3994ZM194.782 73.9736H192.444V78H191.125V68.0469H194.42C195.541 68.0469 196.402 68.3021 197.004 68.8125C197.61 69.3229 197.913 70.0658 197.913 71.041C197.913 71.6608 197.744 72.2008 197.407 72.6611C197.074 73.1214 196.609 73.4655 196.012 73.6934L198.35 77.918V78H196.942L194.782 73.9736ZM192.444 72.9004H194.461C195.112 72.9004 195.629 72.7318 196.012 72.3945C196.4 72.0573 196.593 71.6061 196.593 71.041C196.593 70.4258 196.409 69.9541 196.04 69.626C195.675 69.2979 195.146 69.1315 194.454 69.127H192.444V72.9004ZM205.814 75.4023H201.645L200.708 78H199.355L203.155 68.0469H204.304L208.111 78H206.765L205.814 75.4023ZM202.041 74.3223H205.425L203.73 69.667L202.041 74.3223ZM210.011 78V68.0469H212.821C213.687 68.0469 214.452 68.2383 215.118 68.6211C215.783 69.0039 216.296 69.5485 216.656 70.2549C217.02 70.9613 217.205 71.7725 217.209 72.6885V73.3242C217.209 74.263 217.027 75.0856 216.663 75.792C216.303 76.4984 215.785 77.0407 215.111 77.4189C214.441 77.7972 213.659 77.9909 212.766 78H210.011ZM211.324 69.127V76.9268H212.705C213.716 76.9268 214.502 76.6123 215.063 75.9834C215.628 75.3545 215.911 74.459 215.911 73.2969V72.7158C215.911 71.5856 215.644 70.7083 215.111 70.084C214.582 69.4551 213.83 69.1361 212.855 69.127H211.324ZM227.415 73.3447C227.415 74.32 227.251 75.1722 226.923 75.9014C226.595 76.626 226.13 77.1797 225.528 77.5625C224.927 77.9453 224.225 78.1367 223.423 78.1367C222.639 78.1367 221.944 77.9453 221.338 77.5625C220.732 77.1751 220.26 76.626 219.923 75.915C219.59 75.1995 219.419 74.3724 219.41 73.4336V72.7158C219.41 71.7588 219.576 70.9134 219.909 70.1797C220.242 69.446 220.711 68.8854 221.317 68.498C221.928 68.1061 222.625 67.9102 223.409 67.9102C224.207 67.9102 224.908 68.1038 225.515 68.4912C226.125 68.874 226.595 69.4323 226.923 70.166C227.251 70.8952 227.415 71.7451 227.415 72.7158V73.3447ZM226.109 72.7021C226.109 71.5218 225.872 70.6172 225.398 69.9883C224.924 69.3548 224.261 69.0381 223.409 69.0381C222.58 69.0381 221.926 69.3548 221.447 69.9883C220.973 70.6172 220.729 71.4922 220.716 72.6133V73.3447C220.716 74.4886 220.955 75.3887 221.434 76.0449C221.917 76.6966 222.58 77.0225 223.423 77.0225C224.27 77.0225 224.927 76.7148 225.392 76.0996C225.856 75.4798 226.096 74.5934 226.109 73.4404V72.7021ZM233.594 73.9736H231.256V78H229.937V68.0469H233.232C234.353 68.0469 235.214 68.3021 235.816 68.8125C236.422 69.3229 236.725 70.0658 236.725 71.041C236.725 71.6608 236.556 72.2008 236.219 72.6611C235.886 73.1214 235.422 73.4655 234.825 73.6934L237.162 77.918V78H235.754L233.594 73.9736ZM231.256 72.9004H233.273C233.925 72.9004 234.442 72.7318 234.825 72.3945C235.212 72.0573 235.406 71.6061 235.406 71.041C235.406 70.4258 235.221 69.9541 234.852 69.626C234.487 69.2979 233.959 69.1315 233.266 69.127H231.256V72.9004ZM244.627 75.4023H240.457L239.52 78H238.167L241.968 68.0469H243.116L246.924 78H245.577L244.627 75.4023ZM240.853 74.3223H244.237L242.542 69.667L240.853 74.3223ZM251.756 73.5635C250.63 73.2399 249.81 72.8434 249.295 72.374C248.785 71.9001 248.53 71.3167 248.53 70.624C248.53 69.8402 248.842 69.193 249.466 68.6826C250.095 68.1676 250.911 67.9102 251.913 67.9102C252.597 67.9102 253.205 68.0423 253.739 68.3066C254.276 68.571 254.691 68.9355 254.983 69.4004C255.279 69.8652 255.427 70.3734 255.427 70.9248H254.108C254.108 70.3232 253.916 69.8516 253.533 69.5098C253.151 69.1634 252.611 68.9902 251.913 68.9902C251.266 68.9902 250.76 69.1338 250.396 69.4209C250.036 69.7035 249.856 70.0977 249.856 70.6035C249.856 71.0091 250.027 71.3532 250.368 71.6357C250.715 71.9137 251.3 72.1689 252.125 72.4014C252.955 72.6338 253.602 72.8913 254.067 73.1738C254.536 73.4518 254.882 73.7777 255.106 74.1514C255.334 74.5251 255.447 74.9648 255.447 75.4707C255.447 76.2773 255.133 76.9245 254.504 77.4121C253.875 77.8952 253.034 78.1367 251.982 78.1367C251.298 78.1367 250.66 78.0068 250.068 77.7471C249.475 77.4827 249.017 77.1227 248.694 76.667C248.375 76.2113 248.215 75.694 248.215 75.1152H249.534C249.534 75.7168 249.755 76.193 250.197 76.5439C250.644 76.8903 251.239 77.0635 251.982 77.0635C252.674 77.0635 253.205 76.9222 253.574 76.6396C253.944 76.3571 254.128 75.972 254.128 75.4844C254.128 74.9967 253.957 74.6208 253.615 74.3564C253.274 74.0876 252.654 73.8232 251.756 73.5635Z" fill="#222222" fill-opacity="0.8"/>
<path d="M22.2461 141.385H17.2949V125.623L12.4316 127.044V123.294L21.792 120.057H22.2461V141.385ZM43.4863 132.669C43.4863 135.55 42.8369 137.772 41.5381 139.334C40.249 140.897 38.4277 141.678 36.0742 141.678C33.7012 141.678 31.8652 140.892 30.5664 139.32C29.2676 137.747 28.6182 135.531 28.6182 132.669V128.773C28.6182 125.892 29.2627 123.67 30.5518 122.108C31.8506 120.545 33.6816 119.764 36.0449 119.764C38.4082 119.764 40.2393 120.55 41.5381 122.122C42.8369 123.695 43.4863 125.916 43.4863 128.787V132.669ZM38.5498 128.143C38.5498 126.61 38.3496 125.467 37.9492 124.715C37.5488 123.953 36.9141 123.573 36.0449 123.573C35.1953 123.573 34.5752 123.924 34.1846 124.627C33.8037 125.33 33.5986 126.395 33.5693 127.821V133.27C33.5693 134.862 33.7695 136.029 34.1699 136.771C34.5703 137.503 35.2051 137.869 36.0742 137.869C36.9141 137.869 37.5342 137.513 37.9346 136.8C38.335 136.077 38.54 134.949 38.5498 133.416V128.143ZM60.8594 132.669C60.8594 135.55 60.21 137.772 58.9111 139.334C57.6221 140.897 55.8008 141.678 53.4473 141.678C51.0742 141.678 49.2383 140.892 47.9395 139.32C46.6406 137.747 45.9912 135.531 45.9912 132.669V128.773C45.9912 125.892 46.6357 123.67 47.9248 122.108C49.2236 120.545 51.0547 119.764 53.418 119.764C55.7812 119.764 57.6123 120.55 58.9111 122.122C60.21 123.695 60.8594 125.916 60.8594 128.787V132.669ZM55.9229 128.143C55.9229 126.61 55.7227 125.467 55.3223 124.715C54.9219 123.953 54.2871 123.573 53.418 123.573C52.5684 123.573 51.9482 123.924 51.5576 124.627C51.1768 125.33 50.9717 126.395 50.9424 127.821V133.27C50.9424 134.862 51.1426 136.029 51.543 136.771C51.9434 137.503 52.5781 137.869 53.4473 137.869C54.2871 137.869 54.9072 137.513 55.3076 136.8C55.708 136.077 55.9131 134.949 55.9229 133.416V128.143ZM77.9541 120.057L82.7148 134.896L87.4609 120.057H94.2285V141.385H89.0723V136.405L89.5703 126.209L84.4141 141.385H81.0156L75.8447 126.195L76.3428 136.405V141.385H71.2012V120.057H77.9541ZM102.988 141.385H97.8613V120.057H102.988V141.385ZM124.375 141.385H119.263L111.704 128.114V141.385H106.562V120.057H111.704L119.248 133.328V120.057H124.375V141.385Z" fill="#222222"/>
<path d="M12.4746 159.312H17.1914V160.385H11.1553V150.432H12.4746V159.312ZM24.3213 157.787H20.1514L19.2148 160.385H17.8613L21.6621 150.432H22.8105L26.6182 160.385H25.2715L24.3213 157.787ZM20.5479 156.707H23.9316L22.2363 152.052L20.5479 156.707ZM31.6084 156.359H29.2705V160.385H27.9512V150.432H31.2461C32.3672 150.432 33.2285 150.687 33.8301 151.198C34.4362 151.708 34.7393 152.451 34.7393 153.426C34.7393 154.046 34.5706 154.586 34.2334 155.046C33.9007 155.506 33.4359 155.851 32.8389 156.078L35.1768 160.303V160.385H33.7686L31.6084 156.359ZM29.2705 155.285H31.2871C31.9388 155.285 32.4561 155.117 32.8389 154.78C33.2262 154.442 33.4199 153.991 33.4199 153.426C33.4199 152.811 33.2354 152.339 32.8662 152.011C32.5016 151.683 31.973 151.517 31.2803 151.512H29.2705V155.285ZM43.9336 159.079C43.5964 159.562 43.1247 159.925 42.5186 160.166C41.917 160.403 41.2152 160.522 40.4131 160.522C39.6019 160.522 38.8818 160.333 38.2529 159.954C37.624 159.572 37.1364 159.029 36.79 158.327C36.4482 157.626 36.2728 156.812 36.2637 155.887V155.019C36.2637 153.519 36.6123 152.357 37.3096 151.532C38.0114 150.708 38.9958 150.295 40.2627 150.295C41.3018 150.295 42.138 150.562 42.7715 151.095C43.4049 151.624 43.7923 152.376 43.9336 153.351H42.6211C42.375 152.034 41.5911 151.375 40.2695 151.375C39.39 151.375 38.7223 151.685 38.2666 152.305C37.8154 152.92 37.5876 153.813 37.583 154.985V155.798C37.583 156.915 37.8382 157.803 38.3486 158.464C38.859 159.12 39.5495 159.448 40.4199 159.448C40.9121 159.448 41.3428 159.394 41.7119 159.284C42.0811 159.175 42.3864 158.99 42.6279 158.731V156.495H40.3242V155.429H43.9336V159.079ZM51.624 157.787H47.4541L46.5176 160.385H45.1641L48.9648 150.432H50.1133L53.9209 160.385H52.5742L51.624 157.787ZM47.8506 156.707H51.2344L49.5391 152.052L47.8506 156.707ZM58.7334 160.385V150.432H61.543C62.4089 150.432 63.1745 150.623 63.8398 151.006C64.5052 151.389 65.0179 151.934 65.3779 152.64C65.7425 153.346 65.9271 154.157 65.9316 155.073V155.709C65.9316 156.648 65.7493 157.471 65.3848 158.177C65.0247 158.883 64.5075 159.426 63.833 159.804C63.1631 160.182 62.3815 160.376 61.4883 160.385H58.7334ZM60.0459 151.512V159.312H61.4268C62.4385 159.312 63.2246 158.997 63.7852 158.368C64.3503 157.74 64.6328 156.844 64.6328 155.682V155.101C64.6328 153.971 64.3662 153.093 63.833 152.469C63.3044 151.84 62.5524 151.521 61.5771 151.512H60.0459ZM69.3291 160.385H68.0166V150.432H69.3291V160.385ZM74.668 155.948C73.5423 155.625 72.722 155.228 72.207 154.759C71.6966 154.285 71.4414 153.702 71.4414 153.009C71.4414 152.225 71.7536 151.578 72.3779 151.068C73.0068 150.553 73.8226 150.295 74.8252 150.295C75.5088 150.295 76.1172 150.427 76.6504 150.692C77.1882 150.956 77.6029 151.321 77.8945 151.785C78.1908 152.25 78.3389 152.758 78.3389 153.31H77.0195C77.0195 152.708 76.8281 152.237 76.4453 151.895C76.0625 151.548 75.5225 151.375 74.8252 151.375C74.1781 151.375 73.6722 151.519 73.3076 151.806C72.9476 152.088 72.7676 152.483 72.7676 152.989C72.7676 153.394 72.9385 153.738 73.2803 154.021C73.6266 154.299 74.2122 154.554 75.0371 154.786C75.8665 155.019 76.5137 155.276 76.9785 155.559C77.4479 155.837 77.7943 156.163 78.0176 156.536C78.2454 156.91 78.3594 157.35 78.3594 157.856C78.3594 158.662 78.0449 159.309 77.416 159.797C76.7871 160.28 75.9463 160.522 74.8936 160.522C74.21 160.522 73.5719 160.392 72.9795 160.132C72.387 159.868 71.929 159.508 71.6055 159.052C71.2865 158.596 71.127 158.079 71.127 157.5H72.4463C72.4463 158.102 72.6673 158.578 73.1094 158.929C73.556 159.275 74.1507 159.448 74.8936 159.448C75.5863 159.448 76.1172 159.307 76.4863 159.025C76.8555 158.742 77.04 158.357 77.04 157.869C77.04 157.382 76.8691 157.006 76.5273 156.741C76.1855 156.473 75.5658 156.208 74.668 155.948ZM86.9248 151.512H83.7256V160.385H82.4199V151.512H79.2275V150.432H86.9248V151.512ZM93.3506 157.787H89.1807L88.2441 160.385H86.8906L90.6914 150.432H91.8398L95.6475 160.385H94.3008L93.3506 157.787ZM89.5771 156.707H92.9609L91.2656 152.052L89.5771 156.707ZM104.637 160.385H103.317L98.3066 152.715V160.385H96.9873V150.432H98.3066L103.331 158.136V150.432H104.637V160.385ZM114.289 157.227C114.166 158.28 113.776 159.093 113.12 159.667C112.468 160.237 111.6 160.522 110.516 160.522C109.34 160.522 108.396 160.1 107.686 159.257C106.979 158.414 106.626 157.286 106.626 155.873V154.916C106.626 153.991 106.79 153.178 107.118 152.476C107.451 151.774 107.92 151.236 108.526 150.863C109.132 150.484 109.834 150.295 110.632 150.295C111.689 150.295 112.537 150.591 113.175 151.184C113.813 151.772 114.184 152.587 114.289 153.631H112.97C112.856 152.838 112.607 152.264 112.225 151.908C111.846 151.553 111.315 151.375 110.632 151.375C109.793 151.375 109.135 151.685 108.656 152.305C108.182 152.925 107.945 153.807 107.945 154.95V155.914C107.945 156.994 108.171 157.853 108.622 158.491C109.073 159.129 109.704 159.448 110.516 159.448C111.245 159.448 111.803 159.284 112.19 158.956C112.582 158.624 112.842 158.047 112.97 157.227H114.289ZM117.495 160.385H116.183V150.432H117.495V160.385ZM125.521 157.787H121.351L120.414 160.385H119.061L122.861 150.432H124.01L127.817 160.385H126.471L125.521 157.787ZM121.747 156.707H125.131L123.436 152.052L121.747 156.707ZM12.5635 174.385H11.251V164.432H12.5635V174.385ZM22.6191 174.385H21.2998L16.2891 166.715V174.385H14.9697V164.432H16.2891L21.3135 172.136V164.432H22.6191V174.385ZM31.6221 165.512H28.4229V174.385H27.1172V165.512H23.9248V164.432H31.6221V165.512ZM38.7246 169.784H34.4111V173.312H39.4219V174.385H33.0986V164.432H39.3535V165.512H34.4111V168.711H38.7246V169.784ZM44.7061 170.359H42.3682V174.385H41.0488V164.432H44.3438C45.4648 164.432 46.3262 164.687 46.9277 165.198C47.5339 165.708 47.8369 166.451 47.8369 167.426C47.8369 168.046 47.6683 168.586 47.3311 169.046C46.9984 169.506 46.5335 169.851 45.9365 170.078L48.2744 174.303V174.385H46.8662L44.7061 170.359ZM42.3682 169.285H44.3848C45.0365 169.285 45.5537 169.117 45.9365 168.78C46.3239 168.442 46.5176 167.991 46.5176 167.426C46.5176 166.811 46.333 166.339 45.9639 166.011C45.5993 165.683 45.0706 165.517 44.3779 165.512H42.3682V169.285ZM57.332 174.385H56.0127L51.002 166.715V174.385H49.6826V164.432H51.002L56.0264 172.136V164.432H57.332V174.385ZM65.2822 171.787H61.1123L60.1758 174.385H58.8223L62.623 164.432H63.7715L67.5791 174.385H66.2324L65.2822 171.787ZM61.5088 170.707H64.8926L63.1973 166.052L61.5088 170.707ZM76.1582 171.227C76.0352 172.28 75.6455 173.093 74.9893 173.667C74.3376 174.237 73.4694 174.522 72.3848 174.522C71.209 174.522 70.2656 174.1 69.5547 173.257C68.8483 172.414 68.4951 171.286 68.4951 169.873V168.916C68.4951 167.991 68.6592 167.178 68.9873 166.476C69.32 165.774 69.7894 165.236 70.3955 164.863C71.0016 164.484 71.7035 164.295 72.501 164.295C73.5583 164.295 74.4059 164.591 75.0439 165.184C75.682 165.772 76.0534 166.587 76.1582 167.631H74.8389C74.7249 166.838 74.4766 166.264 74.0938 165.908C73.7155 165.553 73.1846 165.375 72.501 165.375C71.6624 165.375 71.0039 165.685 70.5254 166.305C70.0514 166.925 69.8145 167.807 69.8145 168.95V169.914C69.8145 170.994 70.04 171.853 70.4912 172.491C70.9424 173.129 71.5736 173.448 72.3848 173.448C73.1139 173.448 73.6722 173.284 74.0596 172.956C74.4515 172.624 74.7113 172.047 74.8389 171.227H76.1582ZM79.3643 174.385H78.0518V164.432H79.3643V174.385ZM89.4268 169.73C89.4268 170.705 89.2627 171.557 88.9346 172.286C88.6064 173.011 88.1416 173.565 87.54 173.948C86.9385 174.33 86.2367 174.522 85.4346 174.522C84.6507 174.522 83.9557 174.33 83.3496 173.948C82.7435 173.56 82.2718 173.011 81.9346 172.3C81.6019 171.585 81.431 170.757 81.4219 169.819V169.101C81.4219 168.144 81.5882 167.298 81.9209 166.565C82.2536 165.831 82.723 165.27 83.3291 164.883C83.9398 164.491 84.637 164.295 85.4209 164.295C86.2184 164.295 86.9202 164.489 87.5264 164.876C88.137 165.259 88.6064 165.817 88.9346 166.551C89.2627 167.28 89.4268 168.13 89.4268 169.101V169.73ZM88.1211 169.087C88.1211 167.907 87.8841 167.002 87.4102 166.373C86.9362 165.74 86.2731 165.423 85.4209 165.423C84.5915 165.423 83.9375 165.74 83.459 166.373C82.985 167.002 82.7412 167.877 82.7275 168.998V169.73C82.7275 170.874 82.9668 171.774 83.4453 172.43C83.9284 173.082 84.5915 173.407 85.4346 173.407C86.2822 173.407 86.9385 173.1 87.4033 172.485C87.8682 171.865 88.1074 170.978 88.1211 169.825V169.087ZM99.0449 174.385H97.7256L92.7148 166.715V174.385H91.3955V164.432H92.7148L97.7393 172.136V164.432H99.0449V174.385ZM106.995 171.787H102.825L101.889 174.385H100.535L104.336 164.432H105.484L109.292 174.385H107.945L106.995 171.787ZM103.222 170.707H106.605L104.91 166.052L103.222 170.707ZM111.951 173.312H116.668V174.385H110.632V164.432H111.951V173.312Z" fill="#222222"/>
<g filter="url(#filter0_d)">
<path d="M150.516 130.479H155.688L154.906 134.994H149.75L148.672 141.104H143.875L144.938 134.994H139.75L140.531 130.479H145.719L146.75 124.541H151.547L150.516 130.479Z" fill="#EF3829"/>
</g>
<path d="M172.134 119.744L175.625 130.626L179.105 119.744H184.068V135.385H180.287V131.733L180.652 124.256L176.871 135.385H174.379L170.587 124.245L170.952 131.733V135.385H167.182V119.744H172.134ZM196.175 128.757H190.245V132.485H197.249V135.385H186.475V119.744H197.271V122.656H190.245V125.953H196.175V128.757ZM211.848 135.385H208.099L202.556 125.653V135.385H198.785V119.744H202.556L208.088 129.477V119.744H211.848V135.385ZM222.3 131.228C222.3 130.676 222.103 130.247 221.709 129.939C221.322 129.631 220.638 129.312 219.657 128.983C218.676 128.653 217.874 128.335 217.251 128.027C215.224 127.031 214.211 125.663 214.211 123.923C214.211 123.057 214.462 122.294 214.963 121.635C215.471 120.969 216.188 120.453 217.111 120.088C218.035 119.716 219.074 119.53 220.227 119.53C221.351 119.53 222.357 119.73 223.245 120.131C224.14 120.532 224.835 121.105 225.329 121.85C225.823 122.587 226.07 123.433 226.07 124.385H222.311C222.311 123.748 222.114 123.253 221.72 122.903C221.333 122.552 220.807 122.376 220.141 122.376C219.467 122.376 218.934 122.527 218.54 122.827C218.153 123.121 217.96 123.497 217.96 123.955C217.96 124.356 218.175 124.722 218.604 125.051C219.034 125.373 219.79 125.71 220.871 126.061C221.952 126.405 222.84 126.777 223.535 127.178C225.225 128.152 226.07 129.495 226.07 131.206C226.07 132.574 225.555 133.648 224.523 134.429C223.492 135.21 222.078 135.6 220.28 135.6C219.013 135.6 217.863 135.374 216.832 134.923C215.808 134.465 215.035 133.842 214.512 133.054C213.996 132.259 213.738 131.346 213.738 130.315H217.52C217.52 131.153 217.734 131.772 218.164 132.173C218.601 132.567 219.306 132.764 220.28 132.764C220.903 132.764 221.394 132.631 221.752 132.366C222.117 132.094 222.3 131.715 222.3 131.228ZM236.888 132.463H231.721L230.818 135.385H226.79L232.526 119.744H236.071L241.851 135.385H237.801L236.888 132.463ZM232.623 129.552H235.985L234.299 124.127L232.623 129.552ZM249.23 119.744H252.99V130.476C252.99 131.471 252.757 132.359 252.292 133.14C251.834 133.92 251.189 134.526 250.358 134.955C249.535 135.385 248.615 135.6 247.598 135.6C245.893 135.6 244.568 135.17 243.623 134.311C242.678 133.451 242.205 132.234 242.205 130.658H245.986C245.986 131.375 246.108 131.894 246.352 132.216C246.602 132.538 247.018 132.699 247.598 132.699C248.12 132.699 248.521 132.506 248.801 132.119C249.087 131.726 249.23 131.178 249.23 130.476V119.744ZM265.075 128.757H259.146V132.485H266.149V135.385H255.375V119.744H266.171V122.656H259.146V125.953H265.075V128.757ZM275.753 131.228C275.753 130.676 275.556 130.247 275.162 129.939C274.775 129.631 274.091 129.312 273.11 128.983C272.129 128.653 271.327 128.335 270.704 128.027C268.677 127.031 267.664 125.663 267.664 123.923C267.664 123.057 267.915 122.294 268.416 121.635C268.924 120.969 269.641 120.453 270.564 120.088C271.488 119.716 272.527 119.53 273.68 119.53C274.804 119.53 275.81 119.73 276.698 120.131C277.593 120.532 278.288 121.105 278.782 121.85C279.276 122.587 279.523 123.433 279.523 124.385H275.764C275.764 123.748 275.567 123.253 275.173 122.903C274.786 122.552 274.26 122.376 273.594 122.376C272.921 122.376 272.387 122.527 271.993 122.827C271.606 123.121 271.413 123.497 271.413 123.955C271.413 124.356 271.628 124.722 272.058 125.051C272.487 125.373 273.243 125.71 274.324 126.061C275.406 126.405 276.294 126.777 276.988 127.178C278.678 128.152 279.523 129.495 279.523 131.206C279.523 132.574 279.008 133.648 277.977 134.429C276.945 135.21 275.531 135.6 273.733 135.6C272.466 135.6 271.316 135.374 270.285 134.923C269.261 134.465 268.488 133.842 267.965 133.054C267.449 132.259 267.191 131.346 267.191 130.315H270.973C270.973 131.153 271.188 131.772 271.617 132.173C272.054 132.567 272.759 132.764 273.733 132.764C274.356 132.764 274.847 132.631 275.205 132.366C275.57 132.094 275.753 131.715 275.753 131.228ZM171.199 157.385H167.439V141.744H171.199V157.385ZM177.591 154.485H184.154V157.385H173.82V141.744H177.591V154.485ZM189.762 157.385H186.002V141.744H189.762V157.385ZM197.335 141.744L200.826 152.626L204.307 141.744H209.27V157.385H205.488V153.733L205.854 146.256L202.072 157.385H199.58L195.788 146.245L196.153 153.733V157.385H192.383V141.744H197.335ZM215.693 157.385H211.934V141.744H215.693V157.385ZM230.271 144.656H225.576V157.385H221.806V144.656H217.197V141.744H230.271V144.656ZM239.466 154.463H234.299L233.396 157.385H229.368L235.104 141.744H238.649L244.429 157.385H240.379L239.466 154.463ZM235.201 151.552H238.563L236.877 146.127L235.201 151.552ZM245.578 157.385V141.744H250.616C251.998 141.744 253.241 142.059 254.344 142.69C255.447 143.313 256.306 144.197 256.922 145.343C257.545 146.482 257.86 147.76 257.867 149.178V149.898C257.867 151.33 257.563 152.615 256.954 153.754C256.353 154.886 255.5 155.774 254.397 156.418C253.302 157.056 252.077 157.378 250.724 157.385H245.578ZM249.349 144.656V154.485H250.659C251.741 154.485 252.571 154.101 253.151 153.335C253.731 152.562 254.021 151.416 254.021 149.898V149.221C254.021 147.71 253.731 146.571 253.151 145.805C252.571 145.039 251.726 144.656 250.616 144.656H249.349ZM270.436 150.993C270.436 153.106 269.959 154.735 269.007 155.881C268.062 157.027 266.726 157.6 265 157.6C263.26 157.6 261.913 157.023 260.961 155.87C260.008 154.717 259.532 153.092 259.532 150.993V148.136C259.532 146.023 260.005 144.394 260.95 143.248C261.903 142.102 263.245 141.53 264.979 141.53C266.712 141.53 268.054 142.106 269.007 143.259C269.959 144.412 270.436 146.041 270.436 148.147V150.993ZM266.815 147.674C266.815 146.55 266.669 145.712 266.375 145.16C266.081 144.602 265.616 144.323 264.979 144.323C264.355 144.323 263.901 144.58 263.614 145.096C263.335 145.612 263.185 146.392 263.163 147.438V151.434C263.163 152.601 263.31 153.457 263.604 154.001C263.897 154.538 264.363 154.807 265 154.807C265.616 154.807 266.071 154.545 266.364 154.023C266.658 153.493 266.808 152.666 266.815 151.541V147.674ZM280.608 153.228C280.608 152.676 280.411 152.247 280.018 151.939C279.631 151.631 278.947 151.312 277.966 150.983C276.985 150.653 276.183 150.335 275.56 150.027C273.533 149.031 272.52 147.663 272.52 145.923C272.52 145.057 272.77 144.294 273.271 143.635C273.78 142.969 274.496 142.453 275.42 142.088C276.344 141.716 277.382 141.53 278.535 141.53C279.66 141.53 280.666 141.73 281.554 142.131C282.449 142.532 283.144 143.105 283.638 143.85C284.132 144.587 284.379 145.433 284.379 146.385H280.619C280.619 145.748 280.422 145.253 280.028 144.903C279.642 144.552 279.115 144.376 278.449 144.376C277.776 144.376 277.243 144.527 276.849 144.827C276.462 145.121 276.269 145.497 276.269 145.955C276.269 146.356 276.483 146.722 276.913 147.051C277.343 147.373 278.098 147.71 279.18 148.061C280.261 148.405 281.149 148.777 281.844 149.178C283.534 150.152 284.379 151.495 284.379 153.206C284.379 154.574 283.863 155.648 282.832 156.429C281.801 157.21 280.386 157.6 278.589 157.6C277.321 157.6 276.172 157.374 275.141 156.923C274.117 156.465 273.343 155.842 272.82 155.054C272.305 154.259 272.047 153.346 272.047 152.315H275.828C275.828 153.153 276.043 153.772 276.473 154.173C276.91 154.567 277.615 154.764 278.589 154.764C279.212 154.764 279.702 154.631 280.061 154.366C280.426 154.094 280.608 153.715 280.608 153.228Z" fill="#222222"/>
<path d="M168.851 162.432L172.104 170.553L175.358 162.432H177.061V172.385H175.748V168.509L175.871 164.325L172.604 172.385H171.599L168.338 164.346L168.468 168.509V172.385H167.155V162.432H168.851ZM186.385 162.432V169.199C186.38 170.138 186.084 170.906 185.496 171.503C184.913 172.1 184.12 172.435 183.117 172.508L182.769 172.522C181.679 172.522 180.811 172.228 180.164 171.64C179.517 171.052 179.189 170.243 179.18 169.213V162.432H180.479V169.172C180.479 169.892 180.677 170.453 181.073 170.854C181.47 171.25 182.035 171.448 182.769 171.448C183.511 171.448 184.079 171.25 184.471 170.854C184.867 170.457 185.065 169.899 185.065 169.179V162.432H186.385ZM189.775 171.312H194.492V172.385H188.456V162.432H189.775V171.312ZM200.979 163.512H197.78V172.385H196.475V163.512H193.282V162.432H200.979V163.512ZM203.864 172.385H202.552V162.432H203.864V172.385ZM206.271 172.385V162.432H209.08C209.946 162.432 210.712 162.623 211.377 163.006C212.042 163.389 212.555 163.934 212.915 164.64C213.28 165.346 213.464 166.157 213.469 167.073V167.709C213.469 168.648 213.286 169.471 212.922 170.177C212.562 170.883 212.045 171.426 211.37 171.804C210.7 172.182 209.919 172.376 209.025 172.385H206.271ZM207.583 163.512V171.312H208.964C209.976 171.312 210.762 170.997 211.322 170.368C211.887 169.74 212.17 168.844 212.17 167.682V167.101C212.17 165.971 211.903 165.093 211.37 164.469C210.841 163.84 210.09 163.521 209.114 163.512H207.583ZM221.084 167.784H216.771V171.312H221.781V172.385H215.458V162.432H221.713V163.512H216.771V166.711H221.084V167.784ZM226.348 167.948C225.222 167.625 224.402 167.228 223.887 166.759C223.376 166.285 223.121 165.702 223.121 165.009C223.121 164.225 223.433 163.578 224.058 163.068C224.687 162.553 225.502 162.295 226.505 162.295C227.188 162.295 227.797 162.427 228.33 162.692C228.868 162.956 229.283 163.321 229.574 163.785C229.87 164.25 230.019 164.758 230.019 165.31H228.699C228.699 164.708 228.508 164.237 228.125 163.895C227.742 163.548 227.202 163.375 226.505 163.375C225.858 163.375 225.352 163.519 224.987 163.806C224.627 164.088 224.447 164.483 224.447 164.989C224.447 165.394 224.618 165.738 224.96 166.021C225.306 166.299 225.892 166.554 226.717 166.786C227.546 167.019 228.193 167.276 228.658 167.559C229.128 167.837 229.474 168.163 229.697 168.536C229.925 168.91 230.039 169.35 230.039 169.856C230.039 170.662 229.725 171.309 229.096 171.797C228.467 172.28 227.626 172.522 226.573 172.522C225.89 172.522 225.252 172.392 224.659 172.132C224.067 171.868 223.609 171.508 223.285 171.052C222.966 170.596 222.807 170.079 222.807 169.5H224.126C224.126 170.102 224.347 170.578 224.789 170.929C225.236 171.275 225.83 171.448 226.573 171.448C227.266 171.448 227.797 171.307 228.166 171.025C228.535 170.742 228.72 170.357 228.72 169.869C228.72 169.382 228.549 169.006 228.207 168.741C227.865 168.473 227.245 168.208 226.348 167.948ZM238.604 163.512H235.405V172.385H234.1V163.512H230.907V162.432H238.604V163.512ZM241.489 172.385H240.177V162.432H241.489V172.385ZM251.545 172.385H250.226L245.215 164.715V172.385H243.896V162.432H245.215L250.239 170.136V162.432H251.545V172.385ZM261.532 167.73C261.532 168.705 261.368 169.557 261.04 170.286C260.712 171.011 260.247 171.565 259.646 171.948C259.044 172.33 258.342 172.522 257.54 172.522C256.756 172.522 256.061 172.33 255.455 171.948C254.849 171.56 254.377 171.011 254.04 170.3C253.707 169.585 253.536 168.757 253.527 167.819V167.101C253.527 166.144 253.694 165.298 254.026 164.565C254.359 163.831 254.828 163.27 255.435 162.883C256.045 162.491 256.743 162.295 257.526 162.295C258.324 162.295 259.026 162.489 259.632 162.876C260.243 163.259 260.712 163.817 261.04 164.551C261.368 165.28 261.532 166.13 261.532 167.101V167.73ZM260.227 167.087C260.227 165.907 259.99 165.002 259.516 164.373C259.042 163.74 258.379 163.423 257.526 163.423C256.697 163.423 256.043 163.74 255.564 164.373C255.09 165.002 254.847 165.877 254.833 166.998V167.73C254.833 168.874 255.072 169.774 255.551 170.43C256.034 171.082 256.697 171.407 257.54 171.407C258.388 171.407 259.044 171.1 259.509 170.485C259.974 169.865 260.213 168.978 260.227 167.825V167.087Z" fill="#222222"/>
<g clip-path="url(#clip0)">
<path d="M25.2848 226.001C25.1996 226.001 25.1996 226.001 25.1996 226.001C24.3471 226.001 23.4947 226.001 22.7275 226.001C22.6423 226.001 22.557 226.001 22.557 225.917C21.9603 224.822 21.1079 224.064 19.9145 223.727C18.2096 223.306 16.8457 223.811 15.6523 225.075C14.9703 225.832 14.6293 226.759 14.6293 227.769C14.6293 228.527 14.7998 229.201 15.1408 229.875C15.8228 230.969 16.7604 231.727 18.0391 231.896C19.6587 232.148 21.0226 231.643 22.0456 230.296C22.216 230.127 22.3013 229.875 22.4718 229.622C22.4718 229.538 22.557 229.538 22.6423 229.538C23.4947 229.538 24.3471 229.538 25.1996 229.538C25.2848 229.538 25.2848 229.538 25.2848 229.622C24.9438 230.885 24.2619 231.98 23.239 232.822C22.216 233.664 21.1079 234.253 19.744 234.422C18.2096 234.59 16.6752 234.422 15.3113 233.58C13.5212 232.485 12.413 230.885 12.072 228.864C11.8163 227.011 12.1573 225.243 13.3507 223.727C14.1179 222.801 14.9703 221.959 16.0785 221.538C16.6752 221.285 17.2719 221.117 17.9539 221.117C18.8915 221.032 19.8292 221.032 20.7669 221.369C22.6423 221.959 24.0062 223.138 24.8586 224.906C25.0291 225.243 25.1143 225.58 25.2848 226.001Z" fill="#EF3829"/>
<path d="M37.1338 233.58C37.0485 233.58 37.0485 233.664 37.0485 233.664C36.4518 234.085 35.7699 234.338 35.0879 234.506C34.4912 234.59 33.8945 234.674 33.2978 234.59C32.1896 234.422 31.3372 234.001 30.911 232.906C30.7405 232.401 30.6552 231.896 30.7405 231.39C30.7405 230.969 30.8257 230.548 30.9962 230.127C31.3372 229.369 31.9339 228.864 32.7011 228.527C33.2978 228.274 33.8945 228.19 34.4912 228.106C35.0879 228.022 35.6846 227.938 36.2813 227.853C36.7075 227.769 37.0485 227.348 36.9633 226.843C36.878 226.422 36.7075 226.169 36.2813 226.001C35.7699 225.832 35.3436 225.832 34.8322 225.917C34.6617 225.917 34.4912 226.001 34.3207 226.001C33.8945 226.169 33.6388 226.59 33.4683 227.011V227.096C33.383 227.348 33.383 227.348 33.2125 227.348C32.4453 227.348 31.6782 227.348 30.911 227.348C30.8257 227.348 30.8257 227.348 30.8257 227.264C30.8257 226.927 30.911 226.59 30.9962 226.253C31.3372 224.99 32.1896 224.232 33.383 223.896C34.2355 223.643 35.0027 223.643 35.8551 223.727C36.6223 223.727 37.3895 223.98 38.0714 224.317C38.9239 224.738 39.3501 225.411 39.5206 226.253C39.6058 226.506 39.6058 226.759 39.6058 227.011C39.6058 229.538 39.6058 231.98 39.6058 234.506C39.6058 234.59 39.6058 234.674 39.4353 234.674C38.6682 234.674 37.8157 234.674 37.0485 234.674C36.9633 234.674 36.9633 234.674 36.9633 234.59C36.9633 234.338 36.9633 234.001 36.9633 233.748C37.219 233.58 37.219 233.58 37.1338 233.58ZM37.0485 229.285C36.9633 229.369 36.878 229.369 36.878 229.369C36.7928 229.453 36.6223 229.538 36.5371 229.538C36.0256 229.622 35.5994 229.79 35.0879 229.874C34.7469 229.959 34.4912 229.959 34.2355 230.127C33.8093 230.296 33.5535 230.632 33.4683 231.053C33.383 231.306 33.383 231.474 33.4683 231.727C33.5535 232.232 33.8945 232.653 34.406 232.738C35.1732 232.906 35.8551 232.653 36.4518 232.232C36.878 231.98 36.9633 231.474 37.0485 231.053C37.1338 230.464 37.0485 229.874 37.0485 229.285Z" fill="#EF3829"/>
<path d="M47.8745 229.116C47.8745 226.422 49.8351 224.569 51.54 223.98C54.8645 222.885 58.0185 224.906 58.7005 227.938C59.0414 229.622 58.7857 231.138 57.7628 232.485C56.9103 233.58 55.8022 234.338 54.4383 234.59C52.6482 234.927 51.0285 234.506 49.7499 233.243C48.9827 232.485 48.386 231.643 48.1302 230.632C47.9598 230.127 47.8745 229.622 47.8745 229.116ZM53.3301 226.338C51.7105 226.253 50.4318 227.769 50.4318 229.201C50.4318 230.548 51.54 232.064 53.3301 232.064C55.1202 232.064 56.2284 230.548 56.2284 229.201C56.2284 227.601 55.035 226.253 53.3301 226.338Z" fill="#EF3829"/>
<path d="M49.9203 239.896C49.9203 239.811 49.9203 239.811 49.9203 239.727C49.9203 238.717 49.9203 237.622 49.9203 236.611C49.9203 236.527 49.9203 236.527 50.0908 236.527C50.6875 236.527 51.199 236.527 51.7957 236.527C51.8809 236.527 51.8809 236.527 51.8809 236.611C51.8809 239.98 51.8809 243.348 51.8809 246.717C51.8809 246.801 51.8809 246.801 51.7957 246.801C51.2842 246.801 50.6875 246.801 50.176 246.801C50.0908 246.801 50.0908 246.801 50.0908 246.717C50.0908 246.548 50.0908 246.38 50.0908 246.127H50.0055C49.4941 246.632 48.8974 246.885 48.1302 246.885C47.7892 246.885 47.4482 246.801 47.1073 246.717C46.3401 246.464 45.9138 245.874 45.6581 245.117C45.5729 244.78 45.4876 244.443 45.4876 244.022C45.4876 243.096 45.4024 242.253 45.5729 241.327C45.6581 240.99 45.7434 240.653 45.8286 240.317C46.0843 239.727 46.5105 239.39 47.1073 239.222C47.8744 238.969 48.5564 238.969 49.3236 239.306C49.5793 239.559 49.7498 239.727 49.9203 239.896ZM49.9203 243.011C49.9203 242.927 49.9203 242.927 49.9203 242.843C49.9203 242.422 49.9203 241.917 49.7498 241.496C49.5793 241.159 49.4088 240.99 49.0679 240.906C48.9826 240.906 48.8121 240.822 48.7269 240.822C48.2154 240.822 47.7892 240.99 47.5335 241.58C47.4482 241.917 47.363 242.253 47.363 242.59C47.363 243.096 47.363 243.601 47.4482 244.106C47.5335 244.696 47.8744 245.117 48.5564 245.117C49.1531 245.117 49.5793 244.864 49.7498 244.359C49.9203 243.938 49.9203 243.517 49.9203 243.011Z" fill="black"/>
<path d="M44.0385 225.496C44.2942 225.159 44.4647 224.99 44.7204 224.738C45.2319 224.317 45.8286 223.98 46.5105 223.811C46.8515 223.727 47.1925 223.727 47.5335 223.643C47.6187 223.643 47.6187 223.727 47.6187 223.727C47.6187 224.232 47.6187 224.822 47.6187 225.327C47.6187 225.58 47.6187 225.917 47.6187 226.169C47.6187 226.253 47.6187 226.253 47.5335 226.253C47.2777 226.253 47.022 226.169 46.681 226.253C46.2548 226.253 45.9138 226.422 45.5729 226.59C44.8909 227.011 44.3794 227.517 44.209 228.359C44.1237 228.696 44.1237 229.117 44.1237 229.453C44.1237 231.053 44.1237 232.738 44.1237 234.338C44.1237 234.422 44.1237 234.506 43.9532 234.506C43.186 234.506 42.4188 234.506 41.6516 234.506C41.5664 234.506 41.5664 234.506 41.5664 234.422C41.5664 231.053 41.5664 227.685 41.5664 224.232C41.5664 224.148 41.5664 224.148 41.6516 224.148C42.4188 224.148 43.186 224.148 43.9532 224.148C44.0385 224.148 44.0385 224.148 44.0385 224.232C44.0385 224.738 44.0385 225.075 44.0385 225.496Z" fill="#EF3829"/>
<path d="M29.2061 227.769C29.2061 229.959 29.2061 232.232 29.2061 234.422C29.2061 234.506 29.2061 234.59 29.0356 234.59C28.2684 234.59 27.5012 234.59 26.6488 234.59C26.5635 234.59 26.4783 234.59 26.4783 234.422C26.4783 229.959 26.4783 225.58 26.4783 221.117C26.4783 221.032 26.4783 220.948 26.6488 220.948C27.416 220.948 28.2684 220.948 29.0356 220.948C29.1208 220.948 29.1208 220.948 29.1208 221.117C29.2061 223.39 29.2061 225.58 29.2061 227.769Z" fill="#EF3829"/>
<path d="M57.5922 243.601C56.825 243.601 56.0578 243.601 55.2906 243.601C55.2054 243.601 55.2054 243.601 55.2054 243.685C55.2054 244.443 55.6316 245.032 56.3135 245.117C57.0807 245.285 57.8479 245.201 58.4446 244.611C58.6151 244.443 58.6151 244.443 58.7004 244.611C59.0413 244.948 59.2971 245.201 59.638 245.538C59.7233 245.622 59.7233 245.622 59.638 245.622C59.1266 246.127 58.4446 246.548 57.6774 246.717C56.9102 246.801 56.1431 246.801 55.3759 246.548C54.5234 246.296 53.9267 245.706 53.5857 244.864C53.0743 243.517 53.0743 242.169 53.5857 240.906C54.0972 239.727 55.0349 239.138 56.3135 239.053C56.825 239.053 57.4217 239.053 57.8479 239.306C58.7856 239.727 59.3823 240.485 59.638 241.411C59.7233 241.832 59.8085 242.253 59.8085 242.675C59.8085 242.927 59.8085 243.18 59.8085 243.432C59.8085 243.517 59.8085 243.517 59.7233 243.517C59.1266 243.601 58.3594 243.601 57.5922 243.601ZM56.6545 242.338C57.0807 242.338 57.5922 242.338 58.0184 242.338C58.1037 242.338 58.1037 242.338 58.1037 242.253C58.1037 242.001 58.0184 241.832 57.9332 241.664C57.5922 240.653 56.3988 240.653 55.8021 240.99C55.3759 241.327 55.2054 241.748 55.2054 242.253C55.2054 242.338 55.2054 242.338 55.2906 242.338C55.7168 242.338 56.2283 242.338 56.6545 242.338Z" fill="black"/>
<path d="M67.566 243.011C67.566 243.601 67.566 244.19 67.3955 244.695C67.1398 245.706 66.4578 246.38 65.4349 246.717C64.5825 246.969 63.73 246.969 62.8776 246.548C61.9399 246.127 61.4284 245.453 61.2579 244.443C61.0874 243.685 61.0874 242.927 61.1727 242.169C61.1727 241.748 61.2579 241.243 61.5137 240.822C61.9399 239.895 62.7071 239.39 63.73 239.138C64.3267 239.053 65.0087 239.053 65.6054 239.222C66.6283 239.559 67.3103 240.317 67.566 241.411C67.566 242.001 67.566 242.506 67.566 243.011ZM63.0481 243.011C63.0481 243.432 63.0481 243.769 63.1333 244.19C63.3038 245.032 63.9005 245.369 64.6677 245.201C65.1792 245.117 65.4349 244.695 65.6054 244.274C65.7759 243.517 65.7759 242.759 65.6054 242.001C65.5201 241.58 65.3496 241.243 64.9234 241.074C64.5825 240.906 64.3267 240.906 63.9857 240.99C63.4743 241.159 63.2185 241.495 63.1333 241.917C63.0481 242.253 62.9628 242.59 63.0481 243.011Z" fill="black"/>
<path d="M34.0649 239.222C34.3207 239.222 34.5764 239.222 34.7469 239.222C35.1731 239.222 35.5141 239.222 35.9403 239.222C36.0255 239.222 36.1108 239.222 36.1108 239.39C36.6223 240.822 37.0485 242.338 37.5599 243.769V243.854C37.6452 243.854 37.5599 243.769 37.6452 243.769C38.1566 242.338 38.5829 240.822 39.0943 239.306C39.0943 239.222 39.1796 239.222 39.2648 239.222C39.8615 239.222 40.4582 239.222 41.0549 239.222C41.2254 239.222 41.2254 239.222 41.1402 239.306C40.373 241.411 39.5205 243.601 38.7533 245.706C38.6681 246.043 38.4976 246.296 38.4124 246.632C38.4124 246.717 38.3271 246.717 38.3271 246.717C37.9009 246.717 37.4747 246.717 37.0485 246.717C36.9632 246.717 36.9632 246.717 36.878 246.632C36.2813 245.117 35.7698 243.601 35.1731 242.085C34.8321 241.159 34.4912 240.232 34.1502 239.39C34.1502 239.306 34.1502 239.306 34.0649 239.222Z" fill="black"/>
<path d="M59.2972 224.148C59.2972 224.064 59.2119 224.064 59.2972 224.148C58.7005 223.559 58.189 223.053 57.6775 222.548C57.5923 222.464 57.6775 222.464 57.6775 222.38L57.7628 222.296C59.8086 220.274 61.8545 218.253 63.8151 216.232C63.9003 216.148 63.9003 216.148 63.9856 216.232C64.497 216.738 65.0085 217.243 65.52 217.748C65.6052 217.832 65.6052 217.832 65.52 217.917C63.4741 219.938 61.4283 221.959 59.2972 224.148C59.2972 224.064 59.3824 224.064 59.2972 224.148Z" fill="#EF3829"/>
<path d="M63.9003 226.674C65.0084 226.674 66.1166 226.674 67.2248 226.674C67.31 226.674 67.31 226.674 67.31 226.759C67.31 227.432 67.31 228.19 67.31 228.864C67.31 228.948 67.31 228.948 67.2248 228.948C65.0084 228.948 62.7069 228.948 60.4905 228.948C60.4053 228.948 60.4053 228.948 60.4053 228.864C60.4053 228.19 60.4053 227.432 60.4053 226.759C60.4053 226.674 60.4053 226.674 60.4905 226.674C61.6839 226.674 62.7921 226.674 63.9003 226.674Z" fill="#EF3829"/>
<path d="M52.4778 218.253C52.4778 217.159 52.4778 216.064 52.4778 215.053C52.4778 214.969 52.4778 214.885 52.563 214.885C53.245 214.885 53.9269 214.885 54.6941 214.885C54.7794 214.885 54.7794 214.885 54.7794 214.969C54.7794 217.159 54.7794 219.264 54.7794 221.453C54.7794 221.538 54.7794 221.538 54.6941 221.538C54.0122 221.538 53.245 221.538 52.563 221.538C52.4778 221.538 52.4778 221.538 52.4778 221.453C52.4778 220.443 52.4778 219.348 52.4778 218.253Z" fill="#EF3829"/>
<path d="M42.0779 243.011C42.0779 241.832 42.0779 240.569 42.0779 239.39C42.0779 239.306 42.0779 239.222 42.1631 239.222C42.7598 239.222 43.2713 239.222 43.868 239.222C43.9533 239.222 43.9532 239.222 43.9532 239.306C43.9532 241.748 43.9532 244.19 43.9532 246.632C43.9532 246.717 43.9533 246.717 43.868 246.717C43.2713 246.717 42.7598 246.717 42.1631 246.717C42.0779 246.717 42.0779 246.717 42.0779 246.632C42.0779 245.454 42.0779 244.19 42.0779 243.011Z" fill="black"/>
<path d="M41.8223 237.117C41.8223 236.443 42.3337 235.938 43.0157 235.938C43.6976 235.938 44.2091 236.443 44.2091 237.117C44.2091 237.79 43.6976 238.296 43.0157 238.296C42.3337 238.296 41.8223 237.79 41.8223 237.117Z" fill="black"/>
</g>
<g filter="url(#filter1_d)">
<path d="M88.4578 227.09H92.3367L91.7507 230.477H87.8835L87.075 235.059H83.4773L84.2742 230.477H80.3835L80.9695 227.09H84.8601L85.6335 222.637H89.2312L88.4578 227.09Z" fill="#EF3829"/>
</g>
<path d="M112.262 225.908C111.842 225.908 111.421 225.908 111 225.908C110.916 225.908 110.916 225.908 110.832 225.824C110.243 224.73 109.486 223.972 108.308 223.72C106.793 223.299 105.447 223.72 104.353 224.814C103.764 225.403 103.343 226.16 103.175 227.002C102.922 228.685 103.427 230.031 104.774 231.041C106.036 232.05 107.971 232.134 109.402 231.209C109.991 230.788 110.495 230.283 110.832 229.61C110.916 229.526 110.916 229.526 111 229.526C111.842 229.526 112.599 229.526 113.44 229.526C113.525 229.526 113.525 229.526 113.525 229.61C113.104 230.956 112.431 232.05 111.337 232.976C110.495 233.733 109.486 234.154 108.392 234.322C106.709 234.575 105.194 234.406 103.764 233.481C102.081 232.387 100.987 230.872 100.651 228.853C100.398 227.002 100.735 225.319 101.829 223.804C102.586 222.794 103.511 221.953 104.69 221.532C105.363 221.28 106.036 221.112 106.793 221.112C107.55 221.112 108.308 221.112 109.065 221.364C110.748 221.953 112.094 222.963 112.936 224.561C113.188 224.982 113.356 225.487 113.525 225.908C113.525 225.992 113.525 225.992 113.44 225.992C113.104 225.908 112.683 225.908 112.262 225.908Z" fill="#EF3829"/>
<path d="M125.389 233.397C125.052 233.733 124.632 233.902 124.211 234.07C123.369 234.406 122.528 234.491 121.602 234.406C121.013 234.322 120.424 234.154 119.92 233.733C119.415 233.228 119.162 232.639 119.078 231.882C119.078 231.377 119.078 230.872 119.162 230.368C119.415 229.442 120.004 228.853 120.845 228.516C121.434 228.264 122.023 228.18 122.612 228.096C123.285 228.012 123.874 227.927 124.547 227.759C124.968 227.675 125.305 227.254 125.221 226.665C125.136 226.329 124.968 226.076 124.632 225.992C124.379 225.908 124.127 225.824 123.874 225.824C123.538 225.824 123.285 225.824 122.949 225.824C122.444 225.908 122.107 226.245 121.855 226.749C121.855 226.834 121.771 226.918 121.771 227.086C121.771 227.17 121.687 227.254 121.602 227.254C120.845 227.254 120.088 227.254 119.246 227.254C119.162 227.254 119.162 227.254 119.162 227.17C119.162 226.834 119.246 226.413 119.331 226.076C119.667 224.982 120.424 224.225 121.518 223.888C121.939 223.72 122.444 223.636 122.949 223.636C123.874 223.552 124.8 223.636 125.726 223.888C125.978 223.973 126.23 224.057 126.567 224.225C127.324 224.562 127.661 225.151 127.829 225.992C127.913 226.329 127.913 226.581 127.913 226.918C127.913 229.358 127.913 231.882 127.913 234.322C127.913 234.406 127.913 234.491 127.745 234.491C126.988 234.491 126.23 234.491 125.389 234.491C125.305 234.491 125.221 234.491 125.305 234.322C125.389 234.07 125.389 233.733 125.389 233.397ZM125.221 229.19C125.052 229.274 124.884 229.442 124.716 229.442C124.295 229.61 123.79 229.694 123.369 229.779C123.033 229.863 122.78 229.863 122.444 230.031C122.023 230.199 121.771 230.452 121.687 230.957C121.602 231.125 121.602 231.377 121.687 231.546C121.771 232.135 122.107 232.471 122.612 232.555C122.949 232.639 123.285 232.639 123.622 232.471C124.716 232.135 125.052 231.63 125.221 230.788C125.305 230.283 125.221 229.779 125.221 229.19Z" fill="#EF3829"/>
<path d="M141.208 234.49C139.609 234.49 138.347 233.901 137.338 232.723C136.496 231.798 135.991 230.788 135.907 229.526C135.739 227.422 136.58 225.739 138.263 224.561C139.02 223.972 139.862 223.72 140.872 223.636C141.629 223.552 142.47 223.636 143.144 223.972C144.995 224.73 146.173 226.076 146.593 228.095C146.846 229.61 146.593 231.04 145.752 232.218C144.911 233.396 143.817 234.154 142.386 234.406C141.881 234.49 141.545 234.49 141.208 234.49ZM141.208 226.244C139.609 226.16 138.347 227.59 138.347 229.105C138.347 230.536 139.525 231.966 141.208 231.966C142.891 231.966 144.069 230.536 144.069 229.105C144.069 227.506 142.807 226.16 141.208 226.244Z" fill="#EF3829"/>
<path d="M113.693 239.96C114.029 239.623 114.366 239.455 114.787 239.286C115.544 239.034 116.217 239.118 116.89 239.455C117.143 239.623 117.311 239.791 117.563 240.044C117.648 240.128 117.648 240.128 117.732 240.044C118.152 239.623 118.657 239.286 119.246 239.202C119.919 239.118 120.508 239.118 121.182 239.371C121.939 239.707 122.36 240.38 122.528 241.222C122.612 241.474 122.612 241.727 122.612 241.979C122.612 243.494 122.612 245.092 122.612 246.607C122.612 246.691 122.612 246.775 122.528 246.691C122.023 246.691 121.434 246.691 120.929 246.691C120.845 246.691 120.845 246.691 120.845 246.607C120.845 245.092 120.845 243.662 120.845 242.147C120.845 241.895 120.845 241.642 120.677 241.474C120.508 241.053 120.004 240.801 119.583 240.801C119.162 240.801 118.826 240.969 118.573 241.306C118.405 241.558 118.321 241.811 118.321 242.063C118.321 243.578 118.321 245.008 118.321 246.523C118.321 246.607 118.321 246.691 118.152 246.691C117.648 246.691 117.059 246.691 116.554 246.691C116.47 246.691 116.47 246.691 116.47 246.607C116.47 245.092 116.47 243.662 116.47 242.147C116.47 241.895 116.47 241.642 116.301 241.39C116.049 240.969 115.712 240.801 115.292 240.801C114.787 240.801 114.45 240.969 114.198 241.39C114.029 241.642 114.029 241.895 114.029 242.147C114.029 243.578 114.029 245.092 114.029 246.523C114.029 246.607 114.029 246.607 113.945 246.607C113.356 246.607 112.851 246.607 112.262 246.607C112.178 246.607 112.178 246.607 112.178 246.523C112.178 244.083 112.178 241.642 112.178 239.202C112.178 239.118 112.178 239.118 112.262 239.118C112.767 239.118 113.356 239.118 113.861 239.118C113.945 239.118 113.945 239.118 113.945 239.202C113.693 239.539 113.693 239.791 113.693 239.96Z" fill="black"/>
<path d="M132.12 225.403C132.289 225.234 132.373 225.15 132.457 224.982C133.046 224.393 133.719 223.972 134.476 223.804C134.813 223.72 135.15 223.636 135.486 223.636C135.57 223.636 135.57 223.636 135.57 223.72C135.57 224.561 135.57 225.319 135.57 226.16C135.57 226.244 135.57 226.244 135.486 226.244C135.15 226.244 134.897 226.16 134.561 226.244C134.14 226.244 133.719 226.412 133.383 226.665C133.298 226.749 133.13 226.833 133.046 226.917C132.541 227.338 132.289 227.927 132.205 228.6C132.205 228.937 132.12 229.273 132.12 229.61C132.12 231.209 132.12 232.723 132.12 234.322C132.12 234.406 132.12 234.406 131.952 234.406C131.195 234.406 130.438 234.406 129.596 234.406C129.512 234.406 129.512 234.406 129.512 234.322C129.512 230.956 129.512 227.591 129.512 224.225C129.512 224.141 129.512 224.141 129.596 224.141C130.353 224.141 131.111 224.141 131.784 224.141C131.868 224.141 131.952 224.141 131.952 224.309C132.12 224.645 132.12 225.066 132.12 225.403Z" fill="#EF3829"/>
<path d="M114.955 227.759C114.955 225.571 114.955 223.384 114.955 221.196C114.955 221.112 114.955 221.028 115.124 221.028C115.881 221.028 116.638 221.028 117.48 221.028C117.564 221.028 117.648 221.028 117.648 221.112C117.648 225.487 117.648 229.947 117.648 234.322C117.648 234.406 117.648 234.491 117.564 234.491C116.806 234.491 115.965 234.491 115.208 234.491C115.124 234.491 115.124 234.491 115.124 234.322C114.955 232.135 114.955 229.947 114.955 227.759Z" fill="#EF3829"/>
<path d="M153.157 246.102C152.988 246.271 152.82 246.439 152.568 246.523C152.231 246.776 151.894 246.86 151.474 246.86C151.053 246.86 150.632 246.86 150.212 246.691C149.37 246.439 148.949 245.85 148.781 245.009C148.697 244.672 148.697 244.251 148.865 243.915C149.034 243.326 149.37 242.905 149.959 242.652C150.464 242.4 150.885 242.4 151.474 242.4C151.979 242.4 152.568 242.4 153.072 242.4C153.157 242.4 153.157 242.4 153.157 242.316C153.157 242.148 153.157 241.895 153.157 241.727C153.072 241.306 152.82 240.97 152.399 240.885C151.979 240.801 151.558 240.801 151.221 240.885C150.885 240.97 150.632 241.138 150.464 241.39C150.38 241.474 150.38 241.474 150.296 241.39C149.959 241.054 149.623 240.717 149.202 240.381C149.118 240.296 149.118 240.296 149.202 240.212C149.707 239.707 150.296 239.371 151.053 239.287C151.726 239.203 152.399 239.203 153.072 239.371C153.746 239.539 154.335 239.876 154.671 240.465C154.924 240.885 155.008 241.306 155.008 241.811C155.008 243.41 155.008 245.009 155.008 246.691C155.008 246.776 155.008 246.86 154.839 246.86C154.335 246.86 153.83 246.86 153.241 246.86C153.157 246.86 153.157 246.86 153.157 246.776C153.157 246.523 153.157 246.355 153.157 246.102ZM153.072 243.999C153.072 243.915 153.072 243.83 153.072 243.746C153.072 243.662 153.072 243.662 152.988 243.662C152.568 243.662 152.063 243.662 151.642 243.662C151.474 243.662 151.39 243.662 151.221 243.746C150.801 243.83 150.632 244.083 150.548 244.504C150.548 244.924 150.716 245.177 151.137 245.345C151.558 245.513 151.979 245.429 152.399 245.345C152.82 245.261 153.072 244.924 153.072 244.504C153.072 244.251 153.072 244.083 153.072 243.999Z" fill="black"/>
<path d="M128.502 246.103C127.745 246.86 126.819 247.028 125.81 246.776C124.884 246.523 124.379 245.934 124.211 245.009C124.127 244.756 124.127 244.42 124.127 244.167C124.127 242.569 124.127 241.054 124.127 239.455C124.127 239.371 124.127 239.287 124.295 239.287C124.8 239.287 125.389 239.287 125.894 239.287C125.978 239.287 125.978 239.287 125.978 239.371C125.978 240.886 125.978 242.316 125.978 243.831C125.978 244.251 126.062 244.588 126.314 244.84C126.567 245.093 126.903 245.177 127.24 245.177C127.661 245.177 127.997 245.009 128.25 244.672C128.418 244.504 128.418 244.251 128.502 243.999C128.502 243.747 128.502 243.578 128.502 243.326C128.502 242.064 128.502 240.717 128.502 239.455C128.502 239.371 128.502 239.371 128.586 239.371C129.091 239.371 129.68 239.371 130.185 239.371C130.269 239.371 130.269 239.371 130.269 239.455C130.269 241.895 130.269 244.336 130.269 246.692C130.269 246.776 130.269 246.776 130.185 246.776C129.68 246.776 129.091 246.776 128.586 246.776C128.502 246.776 128.502 246.776 128.502 246.692C128.502 246.439 128.502 246.271 128.502 246.103Z" fill="black"/>
<path d="M134.476 246.86C133.635 246.86 132.962 246.776 132.373 246.523C132.036 246.355 131.7 246.103 131.447 245.85C131.363 245.766 131.363 245.766 131.447 245.766C131.784 245.43 132.204 245.009 132.541 244.672C132.541 244.672 132.625 244.588 132.625 244.672C133.046 245.009 133.467 245.261 133.971 245.261C134.392 245.345 134.897 245.345 135.318 245.177C135.486 245.093 135.654 245.009 135.823 244.84C136.075 244.42 135.907 243.915 135.402 243.831C135.065 243.747 134.729 243.747 134.392 243.747C133.971 243.662 133.551 243.662 133.13 243.578C132.204 243.326 131.7 242.653 131.7 241.727C131.7 240.633 132.289 239.792 133.382 239.455C133.887 239.287 134.392 239.287 134.897 239.287C135.486 239.287 136.075 239.371 136.664 239.624C136.917 239.708 137.169 239.876 137.421 240.128C137.506 240.128 137.506 240.213 137.421 240.213C137.085 240.549 136.748 240.886 136.412 241.222C136.412 241.306 136.327 241.306 136.327 241.222C135.991 240.97 135.57 240.802 135.149 240.802C134.813 240.802 134.56 240.717 134.224 240.802C134.056 240.802 133.971 240.886 133.887 240.97C133.635 241.138 133.551 241.391 133.635 241.643C133.719 241.895 133.971 242.064 134.224 242.064C134.645 242.148 135.065 242.148 135.57 242.232C135.991 242.232 136.327 242.316 136.748 242.484C137.421 242.821 137.758 243.326 137.842 243.999C137.926 244.42 137.842 244.84 137.758 245.261C137.506 245.934 137.001 246.355 136.327 246.608C135.57 246.776 134.981 246.86 134.476 246.86Z" fill="black"/>
<path d="M142.302 243.073C142.302 242.316 142.386 241.643 142.723 240.97C143.143 240.044 143.901 239.455 144.995 239.287C145.668 239.203 146.341 239.203 146.93 239.371C147.435 239.539 147.771 239.792 148.108 240.128C148.192 240.212 148.108 240.212 148.108 240.212C147.687 240.633 147.351 240.97 146.93 241.39C146.846 241.474 146.846 241.39 146.846 241.39C146.593 241.138 146.425 240.97 146.088 240.885C145.247 240.717 144.574 241.138 144.321 241.979C144.153 242.652 144.153 243.326 144.321 243.999C144.49 244.588 144.826 244.924 145.331 245.093C145.836 245.177 146.341 245.093 146.762 244.672C146.93 244.504 146.93 244.504 147.014 244.672C147.351 245.009 147.687 245.345 148.024 245.682C148.108 245.766 148.108 245.766 148.024 245.85C147.351 246.523 146.509 246.776 145.584 246.776C144.91 246.776 144.321 246.607 143.817 246.271C143.143 245.85 142.723 245.177 142.47 244.419C142.386 243.999 142.302 243.494 142.302 243.073Z" fill="black"/>
<path d="M147.098 224.057C147.014 224.057 147.014 224.057 147.098 224.057C146.509 223.468 146.004 222.963 145.499 222.458C145.415 222.374 145.499 222.374 145.499 222.29C146.425 221.364 147.35 220.439 148.276 219.513C149.37 218.419 150.464 217.325 151.558 216.231C151.642 216.147 151.642 216.147 151.726 216.231C152.231 216.736 152.736 217.241 153.156 217.746C153.241 217.83 153.241 217.83 153.156 217.914C151.221 219.934 149.202 221.953 147.098 224.057C147.098 224.057 147.098 223.973 147.098 224.057Z" fill="#EF3829"/>
<path d="M151.642 228.937C150.548 228.937 149.454 228.937 148.36 228.937C148.276 228.937 148.192 228.937 148.192 228.768C148.192 228.095 148.192 227.422 148.192 226.665C148.192 226.581 148.192 226.581 148.276 226.581C150.464 226.581 152.652 226.581 154.839 226.581C154.923 226.581 154.923 226.581 154.923 226.665C154.923 227.338 154.923 228.011 154.923 228.768C154.923 228.853 154.923 228.853 154.839 228.853C153.83 228.937 152.736 228.937 151.642 228.937Z" fill="#EF3829"/>
<path d="M140.366 218.251C140.366 217.157 140.366 216.147 140.366 215.053C140.366 214.885 140.451 214.885 140.535 214.885C141.208 214.885 141.881 214.885 142.638 214.885C142.722 214.885 142.722 214.885 142.722 214.969C142.722 217.157 142.722 219.26 142.722 221.448C142.722 221.532 142.722 221.532 142.638 221.532C141.965 221.532 141.292 221.532 140.535 221.532C140.451 221.532 140.451 221.532 140.451 221.448C140.366 220.354 140.366 219.26 140.366 218.251Z" fill="#EF3829"/>
<path d="M139.02 242.989C139.02 241.811 139.02 240.549 139.02 239.371C139.02 239.287 139.02 239.287 139.104 239.287C139.693 239.287 140.198 239.287 140.787 239.287C140.871 239.287 140.871 239.287 140.871 239.371C140.871 241.811 140.871 244.251 140.871 246.608C140.871 246.692 140.871 246.692 140.787 246.692C140.198 246.692 139.693 246.692 139.104 246.692C139.02 246.692 139.02 246.692 139.02 246.608C139.02 245.43 139.02 244.251 139.02 242.989Z" fill="black"/>
<path d="M139.946 238.361C139.273 238.361 138.768 237.857 138.768 237.183C138.768 236.51 139.273 236.005 139.946 236.005C140.619 236.005 141.124 236.51 141.124 237.183C141.124 237.857 140.619 238.361 139.946 238.361Z" fill="black"/>
<path d="M126.399 238.109C126.483 237.856 126.567 237.604 126.735 237.267C126.904 236.762 127.156 236.258 127.324 235.753C127.324 235.669 127.324 235.669 127.408 235.669C127.997 235.669 128.671 235.669 129.26 235.669C129.26 235.669 129.26 235.753 129.175 235.753C128.671 236.51 128.166 237.267 127.661 238.025C127.661 238.109 127.577 238.109 127.493 238.109C127.156 238.109 126.735 238.109 126.399 238.109Z" fill="black"/>
<path d="M22.0498 268.389C22.0498 268.001 21.9131 267.705 21.6396 267.5C21.3662 267.29 20.874 267.072 20.1631 266.844C19.4521 266.611 18.8893 266.383 18.4746 266.16C17.3444 265.549 16.7793 264.727 16.7793 263.692C16.7793 263.155 16.9297 262.676 17.2305 262.257C17.5358 261.833 17.971 261.503 18.5361 261.266C19.1058 261.029 19.7438 260.91 20.4502 260.91C21.1611 260.91 21.7946 261.04 22.3506 261.3C22.9066 261.555 23.3372 261.917 23.6426 262.387C23.9525 262.856 24.1074 263.389 24.1074 263.986H22.0566C22.0566 263.531 21.9131 263.177 21.626 262.927C21.3389 262.672 20.9355 262.544 20.416 262.544C19.9147 262.544 19.5251 262.651 19.2471 262.865C18.9691 263.075 18.8301 263.353 18.8301 263.699C18.8301 264.023 18.9919 264.294 19.3154 264.513C19.6436 264.731 20.1243 264.937 20.7578 265.128C21.9245 265.479 22.7744 265.914 23.3076 266.434C23.8408 266.953 24.1074 267.6 24.1074 268.375C24.1074 269.236 23.7816 269.913 23.1299 270.405C22.4782 270.893 21.6009 271.137 20.498 271.137C19.7324 271.137 19.0352 270.998 18.4062 270.72C17.7773 270.437 17.2965 270.052 16.9639 269.564C16.6357 269.077 16.4717 268.512 16.4717 267.869H18.5293C18.5293 268.967 19.1855 269.517 20.498 269.517C20.9857 269.517 21.3662 269.419 21.6396 269.223C21.9131 269.022 22.0498 268.744 22.0498 268.389ZM33.0352 261.047V267.603C33.0352 268.692 32.6934 269.553 32.0098 270.187C31.3307 270.82 30.401 271.137 29.2207 271.137C28.0586 271.137 27.1357 270.829 26.4521 270.214C25.7686 269.599 25.4199 268.753 25.4062 267.678V261.047H27.457V267.616C27.457 268.268 27.612 268.744 27.9219 269.045C28.2363 269.341 28.6693 269.489 29.2207 269.489C30.3737 269.489 30.9593 268.883 30.9775 267.671V261.047H33.0352ZM39.8779 268.389C39.8779 268.001 39.7412 267.705 39.4678 267.5C39.1943 267.29 38.7021 267.072 37.9912 266.844C37.2803 266.611 36.7174 266.383 36.3027 266.16C35.1725 265.549 34.6074 264.727 34.6074 263.692C34.6074 263.155 34.7578 262.676 35.0586 262.257C35.3639 261.833 35.7992 261.503 36.3643 261.266C36.9339 261.029 37.5719 260.91 38.2783 260.91C38.9893 260.91 39.6227 261.04 40.1787 261.3C40.7347 261.555 41.1654 261.917 41.4707 262.387C41.7806 262.856 41.9355 263.389 41.9355 263.986H39.8848C39.8848 263.531 39.7412 263.177 39.4541 262.927C39.167 262.672 38.7637 262.544 38.2441 262.544C37.7428 262.544 37.3532 262.651 37.0752 262.865C36.7972 263.075 36.6582 263.353 36.6582 263.699C36.6582 264.023 36.82 264.294 37.1436 264.513C37.4717 264.731 37.9525 264.937 38.5859 265.128C39.7526 265.479 40.6025 265.914 41.1357 266.434C41.6689 266.953 41.9355 267.6 41.9355 268.375C41.9355 269.236 41.6097 269.913 40.958 270.405C40.3063 270.893 39.429 271.137 38.3262 271.137C37.5605 271.137 36.8633 270.998 36.2344 270.72C35.6055 270.437 35.1247 270.052 34.792 269.564C34.4639 269.077 34.2998 268.512 34.2998 267.869H36.3574C36.3574 268.967 37.0137 269.517 38.3262 269.517C38.8138 269.517 39.1943 269.419 39.4678 269.223C39.7412 269.022 39.8779 268.744 39.8779 268.389ZM51.1436 267.685C51.0661 268.756 50.6696 269.599 49.9541 270.214C49.2432 270.829 48.3044 271.137 47.1377 271.137C45.8617 271.137 44.8568 270.708 44.123 269.852C43.3939 268.99 43.0293 267.81 43.0293 266.311V265.702C43.0293 264.745 43.1979 263.902 43.5352 263.173C43.8724 262.444 44.3532 261.885 44.9775 261.498C45.6064 261.106 46.3356 260.91 47.165 260.91C48.3135 260.91 49.2386 261.218 49.9404 261.833C50.6423 262.448 51.0479 263.312 51.1572 264.424H49.1064C49.0563 263.781 48.8763 263.316 48.5664 263.029C48.2611 262.738 47.7939 262.592 47.165 262.592C46.4814 262.592 45.9688 262.838 45.627 263.33C45.2897 263.818 45.1165 264.576 45.1074 265.606V266.358C45.1074 267.434 45.2692 268.22 45.5928 268.717C45.9209 269.214 46.4359 269.462 47.1377 269.462C47.7712 269.462 48.2428 269.318 48.5527 269.031C48.8672 268.74 49.0472 268.291 49.0928 267.685H51.1436ZM56.1748 267.356H54.541V271H52.4902V261.047H56.1885C57.3643 261.047 58.2712 261.309 58.9092 261.833C59.5472 262.357 59.8662 263.098 59.8662 264.055C59.8662 264.734 59.7181 265.301 59.4219 265.757C59.1302 266.208 58.6859 266.568 58.0889 266.837L60.2422 270.904V271H58.041L56.1748 267.356ZM54.541 265.695H56.1953C56.7103 265.695 57.109 265.565 57.3916 265.306C57.6742 265.041 57.8154 264.679 57.8154 264.219C57.8154 263.749 57.681 263.38 57.4121 263.111C57.1478 262.842 56.7399 262.708 56.1885 262.708H54.541V265.695ZM63.6123 271H61.5615V261.047H63.6123V271ZM67.5703 267.493V271H65.5195V261.047H69.4023C70.1497 261.047 70.806 261.184 71.3711 261.457C71.9408 261.73 72.3783 262.12 72.6836 262.626C72.9889 263.127 73.1416 263.699 73.1416 264.342C73.1416 265.317 72.8066 266.087 72.1367 266.652C71.4714 267.213 70.5485 267.493 69.3682 267.493H67.5703ZM67.5703 265.832H69.4023C69.9447 265.832 70.3571 265.704 70.6396 265.449C70.9268 265.194 71.0703 264.829 71.0703 264.355C71.0703 263.868 70.9268 263.474 70.6396 263.173C70.3525 262.872 69.9561 262.717 69.4502 262.708H67.5703V265.832ZM82.3701 267.685C82.2926 268.756 81.8962 269.599 81.1807 270.214C80.4697 270.829 79.5309 271.137 78.3643 271.137C77.0882 271.137 76.0833 270.708 75.3496 269.852C74.6204 268.99 74.2559 267.81 74.2559 266.311V265.702C74.2559 264.745 74.4245 263.902 74.7617 263.173C75.099 262.444 75.5798 261.885 76.2041 261.498C76.833 261.106 77.5622 260.91 78.3916 260.91C79.54 260.91 80.4652 261.218 81.167 261.833C81.8688 262.448 82.2744 263.312 82.3838 264.424H80.333C80.2829 263.781 80.1029 263.316 79.793 263.029C79.4876 262.738 79.0205 262.592 78.3916 262.592C77.708 262.592 77.1953 262.838 76.8535 263.33C76.5163 263.818 76.3431 264.576 76.334 265.606V266.358C76.334 267.434 76.4958 268.22 76.8193 268.717C77.1475 269.214 77.6624 269.462 78.3643 269.462C78.9977 269.462 79.4694 269.318 79.7793 269.031C80.0938 268.74 80.2738 268.291 80.3193 267.685H82.3701ZM85.8975 271H83.8467V261.047H85.8975V271ZM95.9805 266.249C95.9805 267.229 95.8073 268.088 95.4609 268.826C95.1146 269.564 94.6178 270.134 93.9707 270.535C93.3281 270.936 92.5898 271.137 91.7559 271.137C90.931 271.137 90.195 270.938 89.5479 270.542C88.9007 270.146 88.3994 269.58 88.0439 268.847C87.6885 268.108 87.5085 267.261 87.5039 266.304V265.812C87.5039 264.832 87.6794 263.97 88.0303 263.228C88.3857 262.48 88.8848 261.908 89.5273 261.512C90.1745 261.111 90.9128 260.91 91.7422 260.91C92.5716 260.91 93.3076 261.111 93.9502 261.512C94.5973 261.908 95.0964 262.48 95.4473 263.228C95.8027 263.97 95.9805 264.829 95.9805 265.805V266.249ZM93.9023 265.798C93.9023 264.754 93.7155 263.961 93.3418 263.419C92.9681 262.877 92.4349 262.605 91.7422 262.605C91.054 262.605 90.5231 262.874 90.1494 263.412C89.7757 263.945 89.5866 264.729 89.582 265.764V266.249C89.582 267.265 89.7689 268.054 90.1426 268.614C90.5163 269.175 91.054 269.455 91.7559 269.455C92.444 269.455 92.9727 269.186 93.3418 268.648C93.7109 268.106 93.8978 267.318 93.9023 266.283V265.798ZM92.1387 258.381H94.292L92.3984 260.5H90.792L92.1387 258.381ZM105.564 271H103.514L99.5215 264.451V271H97.4707V261.047H99.5215L103.521 267.609V261.047H105.564V271ZM114.533 265.661H117.309V266.857H114.533V270.002H113.262V266.857H110.486V265.661H113.262V262.756H114.533V265.661ZM122.777 266.01L123.283 261.047H128.383V262.216H124.356L124.056 264.93C124.543 264.643 125.097 264.499 125.717 264.499C126.624 264.499 127.344 264.8 127.877 265.401C128.41 265.998 128.677 266.807 128.677 267.828C128.677 268.854 128.399 269.662 127.843 270.255C127.291 270.843 126.519 271.137 125.525 271.137C124.646 271.137 123.928 270.893 123.372 270.405C122.816 269.918 122.499 269.243 122.422 268.382H123.618C123.696 268.951 123.898 269.382 124.227 269.674C124.555 269.961 124.988 270.104 125.525 270.104C126.113 270.104 126.574 269.904 126.906 269.503C127.243 269.102 127.412 268.548 127.412 267.842C127.412 267.176 127.23 266.643 126.865 266.242C126.505 265.837 126.024 265.634 125.423 265.634C124.871 265.634 124.438 265.755 124.124 265.996L123.789 266.27L122.777 266.01ZM141.207 269.694C140.87 270.177 140.398 270.54 139.792 270.781C139.19 271.018 138.489 271.137 137.687 271.137C136.875 271.137 136.155 270.948 135.526 270.569C134.897 270.187 134.41 269.644 134.063 268.942C133.722 268.241 133.546 267.427 133.537 266.502V265.634C133.537 264.134 133.886 262.972 134.583 262.147C135.285 261.323 136.269 260.91 137.536 260.91C138.575 260.91 139.411 261.177 140.045 261.71C140.678 262.239 141.066 262.991 141.207 263.966H139.895C139.648 262.649 138.865 261.99 137.543 261.99C136.663 261.99 135.996 262.3 135.54 262.92C135.089 263.535 134.861 264.428 134.856 265.6V266.413C134.856 267.53 135.112 268.418 135.622 269.079C136.132 269.735 136.823 270.063 137.693 270.063C138.186 270.063 138.616 270.009 138.985 269.899C139.354 269.79 139.66 269.605 139.901 269.346V267.11H137.598V266.044H141.207V269.694ZM143.401 271V261.047H146.655C147.735 261.047 148.547 261.27 149.089 261.717C149.636 262.163 149.909 262.824 149.909 263.699C149.909 264.164 149.777 264.576 149.513 264.937C149.248 265.292 148.888 265.568 148.433 265.764C148.97 265.914 149.394 266.201 149.704 266.625C150.019 267.044 150.176 267.546 150.176 268.129C150.176 269.022 149.886 269.724 149.308 270.234C148.729 270.745 147.911 271 146.854 271H143.401ZM144.714 266.345V269.927H146.881C147.492 269.927 147.972 269.77 148.323 269.455C148.679 269.136 148.856 268.699 148.856 268.143C148.856 266.944 148.205 266.345 146.901 266.345H144.714ZM144.714 265.292H146.696C147.271 265.292 147.729 265.148 148.07 264.861C148.417 264.574 148.59 264.185 148.59 263.692C148.59 263.146 148.43 262.749 148.111 262.503C147.792 262.252 147.307 262.127 146.655 262.127H144.714V265.292Z" fill="#222222"/>
<path d="M18.4678 287.104V291H17.1553V281.047H20.8262C21.9154 281.047 22.7676 281.325 23.3828 281.881C24.0026 282.437 24.3125 283.173 24.3125 284.089C24.3125 285.055 24.0094 285.8 23.4033 286.324C22.8018 286.844 21.9382 287.104 20.8125 287.104H18.4678ZM18.4678 286.03H20.8262C21.528 286.03 22.0658 285.866 22.4395 285.538C22.8132 285.205 23 284.727 23 284.103C23 283.51 22.8132 283.036 22.4395 282.681C22.0658 282.325 21.5531 282.141 20.9014 282.127H18.4678V286.03ZM30.54 288.402H26.3701L25.4336 291H24.0801L27.8809 281.047H29.0293L32.8369 291H31.4902L30.54 288.402ZM26.7666 287.322H30.1504L28.4551 282.667L26.7666 287.322ZM37.8271 286.974H35.4893V291H34.1699V281.047H37.4648C38.5859 281.047 39.4473 281.302 40.0488 281.812C40.6549 282.323 40.958 283.066 40.958 284.041C40.958 284.661 40.7894 285.201 40.4521 285.661C40.1195 286.121 39.6546 286.465 39.0576 286.693L41.3955 290.918V291H39.9873L37.8271 286.974ZM35.4893 285.9H37.5059C38.1576 285.9 38.6748 285.732 39.0576 285.395C39.445 285.057 39.6387 284.606 39.6387 284.041C39.6387 283.426 39.4541 282.954 39.085 282.626C38.7204 282.298 38.1917 282.132 37.499 282.127H35.4893V285.9ZM48.2998 288.402H44.1299L43.1934 291H41.8398L45.6406 281.047H46.7891L50.5967 291H49.25L48.2998 288.402ZM44.5264 287.322H47.9102L46.2148 282.667L44.5264 287.322ZM66.2031 287.842C66.0801 288.895 65.6904 289.708 65.0342 290.282C64.3825 290.852 63.5143 291.137 62.4297 291.137C61.2539 291.137 60.3105 290.715 59.5996 289.872C58.8932 289.029 58.54 287.901 58.54 286.488V285.531C58.54 284.606 58.7041 283.793 59.0322 283.091C59.3649 282.389 59.8343 281.851 60.4404 281.478C61.0465 281.099 61.7484 280.91 62.5459 280.91C63.6032 280.91 64.4508 281.206 65.0889 281.799C65.7269 282.387 66.0983 283.202 66.2031 284.246H64.8838C64.7699 283.453 64.5215 282.879 64.1387 282.523C63.7604 282.168 63.2295 281.99 62.5459 281.99C61.7074 281.99 61.0488 282.3 60.5703 282.92C60.0964 283.54 59.8594 284.422 59.8594 285.565V286.529C59.8594 287.609 60.085 288.468 60.5361 289.106C60.9873 289.744 61.6185 290.063 62.4297 290.063C63.1589 290.063 63.7171 289.899 64.1045 289.571C64.4964 289.239 64.7562 288.662 64.8838 287.842H66.2031ZM69.3203 289.927H74.0371V291H68.001V281.047H69.3203V289.927ZM81.167 288.402H76.9971L76.0605 291H74.707L78.5078 281.047H79.6562L83.4639 291H82.1172L81.167 288.402ZM77.3936 287.322H80.7773L79.082 282.667L77.3936 287.322ZM88.4541 286.974H86.1162V291H84.7969V281.047H88.0918C89.2129 281.047 90.0742 281.302 90.6758 281.812C91.2819 282.323 91.585 283.066 91.585 284.041C91.585 284.661 91.4163 285.201 91.0791 285.661C90.7464 286.121 90.2816 286.465 89.6846 286.693L92.0225 290.918V291H90.6143L88.4541 286.974ZM86.1162 285.9H88.1328C88.7845 285.9 89.3018 285.732 89.6846 285.395C90.0719 285.057 90.2656 284.606 90.2656 284.041C90.2656 283.426 90.0811 282.954 89.7119 282.626C89.3473 282.298 88.8187 282.132 88.126 282.127H86.1162V285.9ZM101.087 286.345C101.087 287.32 100.923 288.172 100.595 288.901C100.267 289.626 99.8018 290.18 99.2002 290.562C98.5986 290.945 97.8968 291.137 97.0947 291.137C96.3109 291.137 95.6159 290.945 95.0098 290.562C94.4036 290.175 93.932 289.626 93.5947 288.915C93.262 288.2 93.0911 287.372 93.082 286.434V285.716C93.082 284.759 93.2484 283.913 93.5811 283.18C93.9137 282.446 94.3831 281.885 94.9893 281.498C95.5999 281.106 96.2972 280.91 97.0811 280.91C97.8786 280.91 98.5804 281.104 99.1865 281.491C99.7972 281.874 100.267 282.432 100.595 283.166C100.923 283.895 101.087 284.745 101.087 285.716V286.345ZM99.7812 285.702C99.7812 284.522 99.5443 283.617 99.0703 282.988C98.5964 282.355 97.9333 282.038 97.0811 282.038C96.2516 282.038 95.5977 282.355 95.1191 282.988C94.6452 283.617 94.4014 284.492 94.3877 285.613V286.345C94.3877 287.489 94.627 288.389 95.1055 289.045C95.5885 289.697 96.2516 290.022 97.0947 290.022C97.9424 290.022 98.5986 289.715 99.0635 289.1C99.5283 288.48 99.7676 287.593 99.7812 286.44V285.702ZM109.823 289.257L112.667 281.047H114.103L110.411 291H109.249L105.564 281.047H106.993L109.823 289.257ZM116.851 291H115.538V281.047H116.851V291ZM119.257 291V281.047H122.066C122.932 281.047 123.698 281.238 124.363 281.621C125.029 282.004 125.541 282.549 125.901 283.255C126.266 283.961 126.451 284.772 126.455 285.688V286.324C126.455 287.263 126.273 288.086 125.908 288.792C125.548 289.498 125.031 290.041 124.356 290.419C123.687 290.797 122.905 290.991 122.012 291H119.257ZM120.569 282.127V289.927H121.95C122.962 289.927 123.748 289.612 124.309 288.983C124.874 288.354 125.156 287.459 125.156 286.297V285.716C125.156 284.586 124.89 283.708 124.356 283.084C123.828 282.455 123.076 282.136 122.101 282.127H120.569ZM134.07 286.399H129.757V289.927H134.768V291H128.444V281.047H134.699V282.127H129.757V285.326H134.07V286.399ZM144.058 286.345C144.058 287.32 143.894 288.172 143.565 288.901C143.237 289.626 142.772 290.18 142.171 290.562C141.569 290.945 140.868 291.137 140.065 291.137C139.282 291.137 138.587 290.945 137.98 290.562C137.374 290.175 136.903 289.626 136.565 288.915C136.233 288.2 136.062 287.372 136.053 286.434V285.716C136.053 284.759 136.219 283.913 136.552 283.18C136.884 282.446 137.354 281.885 137.96 281.498C138.571 281.106 139.268 280.91 140.052 280.91C140.849 280.91 141.551 281.104 142.157 281.491C142.768 281.874 143.237 282.432 143.565 283.166C143.894 283.895 144.058 284.745 144.058 285.716V286.345ZM142.752 285.702C142.752 284.522 142.515 283.617 142.041 282.988C141.567 282.355 140.904 282.038 140.052 282.038C139.222 282.038 138.568 282.355 138.09 282.988C137.616 283.617 137.372 284.492 137.358 285.613V286.345C137.358 287.489 137.598 288.389 138.076 289.045C138.559 289.697 139.222 290.022 140.065 290.022C140.913 290.022 141.569 289.715 142.034 289.1C142.499 288.48 142.738 287.593 142.752 286.44V285.702Z" fill="#222222"/>
<g filter="url(#filter2_d)">
<path d="M174.523 248.864H179.695L178.914 253.38H173.758L172.68 259.489H167.883L168.945 253.38H163.758L164.539 248.864H169.727L170.758 242.926H175.555L174.523 248.864Z" fill="#EF3829"/>
</g>
<path d="M192.272 226.55H193.98C195.334 226.55 196.011 225.888 196.011 224.563C196.011 224.047 195.85 223.628 195.527 223.306C195.205 222.976 194.75 222.812 194.163 222.812C193.683 222.812 193.264 222.951 192.906 223.231C192.555 223.51 192.38 223.857 192.38 224.273H188.76C188.76 223.449 188.989 222.715 189.447 222.071C189.906 221.426 190.539 220.925 191.349 220.567C192.165 220.201 193.06 220.019 194.034 220.019C195.774 220.019 197.142 220.416 198.138 221.211C199.133 222.006 199.631 223.098 199.631 224.488C199.631 225.161 199.423 225.798 199.008 226.4C198.6 226.994 198.002 227.477 197.214 227.85C198.045 228.151 198.696 228.609 199.169 229.225C199.642 229.834 199.878 230.589 199.878 231.491C199.878 232.888 199.341 234.005 198.267 234.843C197.192 235.681 195.782 236.1 194.034 236.1C193.01 236.1 192.058 235.906 191.177 235.52C190.303 235.126 189.641 234.585 189.189 233.898C188.738 233.203 188.513 232.415 188.513 231.534H192.154C192.154 232.014 192.348 232.43 192.734 232.781C193.121 233.131 193.597 233.307 194.163 233.307C194.8 233.307 195.309 233.131 195.688 232.781C196.068 232.422 196.258 231.968 196.258 231.416C196.258 230.628 196.061 230.07 195.667 229.74C195.273 229.411 194.729 229.246 194.034 229.246H192.272V226.55ZM214.734 233.951C214.154 234.596 213.306 235.115 212.188 235.509C211.071 235.903 209.847 236.1 208.515 236.1C206.466 236.1 204.83 235.473 203.605 234.22C202.381 232.967 201.726 231.223 201.64 228.989L201.629 227.635C201.629 226.095 201.901 224.753 202.445 223.607C202.99 222.454 203.767 221.569 204.776 220.953C205.793 220.33 206.968 220.019 208.3 220.019C210.248 220.019 211.759 220.466 212.833 221.362C213.914 222.25 214.545 223.578 214.724 225.347H211.093C210.964 224.473 210.685 223.85 210.255 223.478C209.825 223.105 209.216 222.919 208.429 222.919C207.483 222.919 206.753 223.32 206.237 224.122C205.722 224.924 205.46 226.07 205.453 227.56V228.505C205.453 230.066 205.718 231.241 206.248 232.029C206.785 232.809 207.627 233.199 208.772 233.199C209.754 233.199 210.484 232.981 210.964 232.544V230.116H208.343V227.528H214.734V233.951ZM216.926 235.885V220.244H222.544C224.556 220.244 226.085 220.613 227.131 221.351C228.184 222.088 228.71 223.159 228.71 224.563C228.71 225.372 228.524 226.063 228.151 226.636C227.779 227.209 227.231 227.631 226.508 227.904C227.324 228.118 227.951 228.519 228.388 229.107C228.825 229.694 229.043 230.41 229.043 231.255C229.043 232.788 228.556 233.941 227.582 234.714C226.615 235.48 225.179 235.871 223.274 235.885H216.926ZM220.696 229.236V232.985H223.167C223.847 232.985 224.37 232.831 224.735 232.523C225.101 232.208 225.283 231.767 225.283 231.201C225.283 229.898 224.635 229.243 223.339 229.236H220.696ZM220.696 226.765H222.662C223.486 226.758 224.073 226.607 224.424 226.314C224.775 226.02 224.95 225.587 224.95 225.014C224.95 224.355 224.76 223.882 224.381 223.596C224.001 223.302 223.389 223.156 222.544 223.156H220.696V226.765ZM245.489 232.963H240.322L239.42 235.885H235.392L241.128 220.244H244.673L250.452 235.885H246.402L245.489 232.963ZM241.225 230.052H244.587L242.9 224.627L241.225 230.052ZM256.554 220.244L260.045 231.126L263.525 220.244H268.488V235.885H264.707V232.233L265.072 224.756L261.291 235.885H258.799L255.007 224.745L255.372 232.233V235.885H251.602V220.244H256.554ZM276.921 225.444L279.478 220.244H283.785L279.413 228L283.903 235.885H279.553L276.921 230.589L274.289 235.885H269.949L274.429 228L270.067 220.244H274.364L276.921 225.444ZM195.549 249.012H199.212V252.116H195.549V256.317H192.165V252.116H188.491V249.012H192.165V244.93H195.549V249.012ZM218.688 242.244V252.482C218.688 253.642 218.44 254.648 217.946 255.5C217.452 256.345 216.743 256.99 215.819 257.434C214.896 257.878 213.803 258.1 212.543 258.1C210.638 258.1 209.138 257.606 208.042 256.617C206.946 255.629 206.388 254.276 206.366 252.557V242.244H210.158V252.632C210.201 254.344 210.996 255.199 212.543 255.199C213.324 255.199 213.914 254.985 214.315 254.555C214.716 254.125 214.917 253.427 214.917 252.46V242.244H218.688ZM229.118 253.728C229.118 253.176 228.921 252.747 228.527 252.439C228.141 252.131 227.457 251.812 226.476 251.483C225.494 251.153 224.692 250.835 224.069 250.527C222.043 249.531 221.029 248.163 221.029 246.423C221.029 245.557 221.28 244.794 221.781 244.135C222.29 243.469 223.006 242.953 223.93 242.588C224.854 242.216 225.892 242.03 227.045 242.03C228.169 242.03 229.175 242.23 230.063 242.631C230.959 243.032 231.653 243.605 232.147 244.35C232.642 245.087 232.889 245.933 232.889 246.885H229.129C229.129 246.248 228.932 245.753 228.538 245.403C228.151 245.052 227.625 244.876 226.959 244.876C226.286 244.876 225.752 245.027 225.358 245.327C224.972 245.621 224.778 245.997 224.778 246.455C224.778 246.856 224.993 247.222 225.423 247.551C225.853 247.873 226.608 248.21 227.689 248.561C228.771 248.905 229.659 249.277 230.354 249.678C232.044 250.652 232.889 251.995 232.889 253.706C232.889 255.074 232.373 256.148 231.342 256.929C230.311 257.71 228.896 258.1 227.099 258.1C225.831 258.1 224.682 257.874 223.65 257.423C222.626 256.965 221.853 256.342 221.33 255.554C220.814 254.759 220.557 253.846 220.557 252.815H224.338C224.338 253.653 224.553 254.272 224.982 254.673C225.419 255.067 226.125 255.264 227.099 255.264C227.722 255.264 228.212 255.131 228.57 254.866C228.936 254.594 229.118 254.215 229.118 253.728ZM243.706 254.963H238.539L237.637 257.885H233.608L239.345 242.244H242.89L248.669 257.885H244.619L243.706 254.963ZM239.441 252.052H242.804L241.117 246.627L239.441 252.052Z" fill="#222222"/>
<path d="M191.31 269.747L191.501 271.06L191.781 269.877L193.75 262.932H194.857L196.778 269.877L197.052 271.08L197.264 269.74L198.809 262.932H200.128L197.715 272.885H196.519L194.468 265.632L194.311 264.873L194.153 265.632L192.027 272.885H190.831L188.425 262.932H189.737L191.31 269.747ZM209.24 272.885H207.921V268.284H202.903V272.885H201.591V262.932H202.903V267.211H207.921V262.932H209.24V272.885ZM217.19 270.287H213.021L212.084 272.885H210.73L214.531 262.932H215.68L219.487 272.885H218.141L217.19 270.287ZM213.417 269.207H216.801L215.105 264.552L213.417 269.207ZM226.815 264.012H223.616V272.885H222.311V264.012H219.118V262.932H226.815V264.012ZM231.115 268.448C229.99 268.125 229.169 267.728 228.654 267.259C228.144 266.785 227.889 266.202 227.889 265.509C227.889 264.725 228.201 264.078 228.825 263.568C229.454 263.053 230.27 262.795 231.272 262.795C231.956 262.795 232.564 262.927 233.098 263.192C233.635 263.456 234.05 263.821 234.342 264.285C234.638 264.75 234.786 265.258 234.786 265.81H233.467C233.467 265.208 233.275 264.737 232.893 264.395C232.51 264.048 231.97 263.875 231.272 263.875C230.625 263.875 230.119 264.019 229.755 264.306C229.395 264.588 229.215 264.983 229.215 265.489C229.215 265.894 229.386 266.238 229.728 266.521C230.074 266.799 230.66 267.054 231.484 267.286C232.314 267.519 232.961 267.776 233.426 268.059C233.895 268.337 234.242 268.663 234.465 269.036C234.693 269.41 234.807 269.85 234.807 270.356C234.807 271.162 234.492 271.809 233.863 272.297C233.234 272.78 232.394 273.022 231.341 273.022C230.657 273.022 230.019 272.892 229.427 272.632C228.834 272.368 228.376 272.008 228.053 271.552C227.734 271.096 227.574 270.579 227.574 270H228.894C228.894 270.602 229.115 271.078 229.557 271.429C230.003 271.775 230.598 271.948 231.341 271.948C232.034 271.948 232.564 271.807 232.934 271.525C233.303 271.242 233.487 270.857 233.487 270.369C233.487 269.882 233.316 269.506 232.975 269.241C232.633 268.973 232.013 268.708 231.115 268.448ZM241.991 270.287H237.821L236.885 272.885H235.531L239.332 262.932H240.48L244.288 272.885H242.941L241.991 270.287ZM238.218 269.207H241.602L239.906 264.552L238.218 269.207ZM246.94 268.989V272.885H245.628V262.932H249.299C250.388 262.932 251.24 263.21 251.855 263.766C252.475 264.322 252.785 265.058 252.785 265.974C252.785 266.94 252.482 267.685 251.876 268.209C251.274 268.729 250.411 268.989 249.285 268.989H246.94ZM246.94 267.915H249.299C250.001 267.915 250.538 267.751 250.912 267.423C251.286 267.09 251.473 266.612 251.473 265.988C251.473 265.395 251.286 264.921 250.912 264.566C250.538 264.21 250.026 264.026 249.374 264.012H246.94V267.915ZM255.772 268.989V272.885H254.46V262.932H258.131C259.22 262.932 260.072 263.21 260.688 263.766C261.307 264.322 261.617 265.058 261.617 265.974C261.617 266.94 261.314 267.685 260.708 268.209C260.106 268.729 259.243 268.989 258.117 268.989H255.772ZM255.772 267.915H258.131C258.833 267.915 259.37 267.751 259.744 267.423C260.118 267.09 260.305 266.612 260.305 265.988C260.305 265.395 260.118 264.921 259.744 264.566C259.37 264.21 258.858 264.026 258.206 264.012H255.772V267.915ZM192.813 282.859H190.476V286.885H189.156V276.932H192.451C193.572 276.932 194.434 277.187 195.035 277.698C195.641 278.208 195.944 278.951 195.944 279.926C195.944 280.546 195.776 281.086 195.438 281.546C195.106 282.006 194.641 282.351 194.044 282.578L196.382 286.803V286.885H194.974L192.813 282.859ZM190.476 281.785H192.492C193.144 281.785 193.661 281.617 194.044 281.28C194.431 280.942 194.625 280.491 194.625 279.926C194.625 279.311 194.44 278.839 194.071 278.511C193.707 278.183 193.178 278.017 192.485 278.012H190.476V281.785ZM205.446 282.23C205.446 283.205 205.282 284.057 204.954 284.786C204.626 285.511 204.161 286.065 203.56 286.448C202.958 286.83 202.256 287.022 201.454 287.022C200.67 287.022 199.975 286.83 199.369 286.448C198.763 286.06 198.291 285.511 197.954 284.8C197.621 284.085 197.451 283.257 197.441 282.319V281.601C197.441 280.644 197.608 279.798 197.94 279.065C198.273 278.331 198.743 277.77 199.349 277.383C199.959 276.991 200.657 276.795 201.44 276.795C202.238 276.795 202.94 276.989 203.546 277.376C204.157 277.759 204.626 278.317 204.954 279.051C205.282 279.78 205.446 280.63 205.446 281.601V282.23ZM204.141 281.587C204.141 280.407 203.904 279.502 203.43 278.873C202.956 278.24 202.293 277.923 201.44 277.923C200.611 277.923 199.957 278.24 199.479 278.873C199.005 279.502 198.761 280.377 198.747 281.498V282.23C198.747 283.374 198.986 284.274 199.465 284.93C199.948 285.582 200.611 285.907 201.454 285.907C202.302 285.907 202.958 285.6 203.423 284.985C203.888 284.365 204.127 283.478 204.141 282.325V281.587ZM212.761 284.287H208.591L207.654 286.885H206.301L210.102 276.932H211.25L215.058 286.885H213.711L212.761 284.287ZM208.987 283.207H212.371L210.676 278.552L208.987 283.207ZM218.093 276.932L221.347 285.053L224.601 276.932H226.303V286.885H224.99V283.009L225.113 278.825L221.846 286.885H220.841L217.58 278.846L217.71 283.009V286.885H216.397V276.932H218.093ZM230.028 286.885H228.716V276.932H230.028V286.885ZM240.084 286.885H238.765L233.754 279.215V286.885H232.435V276.932H233.754L238.778 284.636V276.932H240.084V286.885ZM249.764 285.579C249.426 286.062 248.955 286.425 248.349 286.666C247.747 286.903 247.045 287.022 246.243 287.022C245.432 287.022 244.712 286.833 244.083 286.454C243.454 286.072 242.966 285.529 242.62 284.827C242.278 284.126 242.103 283.312 242.094 282.387V281.519C242.094 280.019 242.442 278.857 243.14 278.032C243.841 277.208 244.826 276.795 246.093 276.795C247.132 276.795 247.968 277.062 248.602 277.595C249.235 278.124 249.622 278.876 249.764 279.851H248.451C248.205 278.534 247.421 277.875 246.1 277.875C245.22 277.875 244.552 278.185 244.097 278.805C243.646 279.42 243.418 280.313 243.413 281.485V282.298C243.413 283.415 243.668 284.303 244.179 284.964C244.689 285.62 245.38 285.948 246.25 285.948C246.742 285.948 247.173 285.894 247.542 285.784C247.911 285.675 248.216 285.49 248.458 285.231V282.995H246.154V281.929H249.764V285.579Z" fill="#222222"/>
<defs>
<filter id="filter0_d" x="139.75" y="124.541" width="17.9375" height="18.5625" filterUnits="userSpaceOnUse" color-interpolation-filters="sRGB">
<feFlood flood-opacity="0" result="BackgroundImageFix"/>
<feColorMatrix in="SourceAlpha" type="matrix" values="0 0 0 0 0 0 0 0 0 0 0 0 0 0 0 0 0 0 127 0"/>
<feOffset dx="2" dy="2"/>
<feColorMatrix type="matrix" values="0 0 0 0 0 0 0 0 0 0 0 0 0 0 0 0 0 0 0.15 0"/>
<feBlend mode="normal" in2="BackgroundImageFix" result="effect1_dropShadow"/>
<feBlend mode="normal" in="SourceGraphic" in2="effect1_dropShadow" result="shape"/>
</filter>
<filter id="filter1_d" x="80.3835" y="222.637" width="13.9531" height="14.4219" filterUnits="userSpaceOnUse" color-interpolation-filters="sRGB">
<feFlood flood-opacity="0" result="BackgroundImageFix"/>
<feColorMatrix in="SourceAlpha" type="matrix" values="0 0 0 0 0 0 0 0 0 0 0 0 0 0 0 0 0 0 127 0"/>
<feOffset dx="2" dy="2"/>
<feColorMatrix type="matrix" values="0 0 0 0 0 0 0 0 0 0 0 0 0 0 0 0 0 0 0.15 0"/>
<feBlend mode="normal" in2="BackgroundImageFix" result="effect1_dropShadow"/>
<feBlend mode="normal" in="SourceGraphic" in2="effect1_dropShadow" result="shape"/>
</filter>
<filter id="filter2_d" x="163.758" y="242.926" width="17.9375" height="18.5625" filterUnits="userSpaceOnUse" color-interpolation-filters="sRGB">
<feFlood flood-opacity="0" result="BackgroundImageFix"/>
<feColorMatrix in="SourceAlpha" type="matrix" values="0 0 0 0 0 0 0 0 0 0 0 0 0 0 0 0 0 0 127 0"/>
<feOffset dx="2" dy="2"/>
<feColorMatrix type="matrix" values="0 0 0 0 0 0 0 0 0 0 0 0 0 0 0 0 0 0 0.15 0"/>
<feBlend mode="normal" in2="BackgroundImageFix" result="effect1_dropShadow"/>
<feBlend mode="normal" in="SourceGraphic" in2="effect1_dropShadow" result="shape"/>
</filter>
<clipPath id="clip0">
<rect width="55.5789" height="32" fill="white" transform="translate(11.9922 214.885)"/>
</clipPath>
</defs>
</svg>
