<svg width="298" height="317" viewBox="0 0 298 317" fill="none" xmlns="http://www.w3.org/2000/svg">
<rect width="298" height="317" fill="#F5F5F5"/>
<path opacity="0.2" d="M37.9494 43.5024C39.246 46.1533 41.3948 48.2922 44.0515 49.5768C44.2459 49.6689 44.4609 49.7088 44.6754 49.6926C44.8899 49.6763 45.0964 49.6045 45.2747 49.4842L49.1866 46.8757C49.3596 46.7604 49.5586 46.69 49.7657 46.671C49.9728 46.6519 50.1813 46.6849 50.3724 46.7668L57.6907 49.9032C57.9393 50.0088 58.1469 50.1923 58.2821 50.4262C58.4173 50.66 58.4729 50.9314 58.4405 51.1996C58.2092 53.0096 57.326 54.6732 55.9564 55.879C54.5869 57.0847 52.8247 57.7499 51 57.75C45.3641 57.75 39.9591 55.5112 35.974 51.526C31.9888 47.5409 29.75 42.1359 29.75 36.5C29.7501 34.6753 30.4153 32.9132 31.6211 31.5436C32.8268 30.174 34.4905 29.2909 36.3005 29.0596C36.5686 29.0271 36.84 29.0827 37.0739 29.2179C37.3077 29.3531 37.4912 29.5607 37.5968 29.8093L40.736 37.134C40.8172 37.3234 40.8502 37.53 40.8323 37.7353C40.8143 37.9407 40.7458 38.1384 40.6329 38.3109L38.0335 42.2827C37.9152 42.4614 37.8453 42.6677 37.8305 42.8815C37.8158 43.0952 37.8567 43.3092 37.9494 43.5024V43.5024Z" fill="#EF3829"/>
<path d="M37.9494 43.5024C39.246 46.1533 41.3948 48.2922 44.0515 49.5768C44.2459 49.6689 44.4609 49.7088 44.6754 49.6926C44.8899 49.6763 45.0964 49.6045 45.2747 49.4842L49.1866 46.8757C49.3596 46.7604 49.5586 46.69 49.7657 46.671C49.9728 46.6519 50.1813 46.6849 50.3724 46.7668L57.6907 49.9032C57.9393 50.0088 58.1469 50.1923 58.2821 50.4262C58.4173 50.66 58.4729 50.9314 58.4405 51.1996C58.2092 53.0096 57.326 54.6732 55.9564 55.879C54.5869 57.0847 52.8247 57.7499 51 57.75C45.3641 57.75 39.9591 55.5112 35.974 51.526C31.9888 47.5409 29.75 42.1359 29.75 36.5C29.7501 34.6753 30.4153 32.9132 31.6211 31.5436C32.8268 30.174 34.4905 29.2909 36.3005 29.0596C36.5686 29.0271 36.84 29.0827 37.0739 29.2179C37.3077 29.3531 37.4912 29.5607 37.5968 29.8093L40.736 37.134C40.8172 37.3234 40.8502 37.53 40.8323 37.7353C40.8143 37.9407 40.7458 38.1384 40.6329 38.3109L38.0335 42.2827C37.9152 42.4614 37.8453 42.6677 37.8305 42.8815C37.8158 43.0952 37.8567 43.3092 37.9494 43.5024V43.5024Z" stroke="#EF3829" stroke-width="2" stroke-linecap="round" stroke-linejoin="round"/>
<path d="M76.9531 58H70.1172V29.5625H76.9531V58ZM86.9742 52.7266H98.9078V58H80.1187V29.5625H86.9742V52.7266ZM107.503 58H100.667V29.5625H107.503V58ZM119.673 29.5625L126.02 49.3477L132.348 29.5625H141.372V58H134.497V51.3594L135.161 37.7656L128.286 58H123.755L116.86 37.7461L117.524 51.3594V58H110.669V29.5625H119.673ZM151.452 58H144.616V29.5625H151.452V58ZM176.355 34.8555H167.82V58H160.965V34.8555H152.586V29.5625H176.355V34.8555ZM191.474 52.6875H182.08L180.439 58H173.115L183.545 29.5625H189.99L200.498 58H193.134L191.474 52.6875ZM183.72 47.3945H189.834L186.767 37.5312L183.72 47.3945ZM200.988 58V29.5625H210.148C212.661 29.5625 214.92 30.1354 216.925 31.2812C218.93 32.4141 220.493 34.0221 221.613 36.1055C222.745 38.1758 223.318 40.5 223.331 43.0781V44.3867C223.331 46.9909 222.778 49.3281 221.671 51.3984C220.577 53.4557 219.028 55.0703 217.023 56.2422C215.03 57.401 212.804 57.987 210.343 58H200.988ZM207.843 34.8555V52.7266H210.226C212.192 52.7266 213.702 52.0299 214.757 50.6367C215.812 49.2305 216.339 47.1471 216.339 44.3867V43.1562C216.339 40.4089 215.812 38.3385 214.757 36.9453C213.702 35.5521 212.166 34.8555 210.148 34.8555H207.843ZM249.329 44.3672C249.329 47.1406 248.815 49.5951 247.786 51.7305C246.757 53.8659 245.292 55.513 243.391 56.6719C241.503 57.8177 239.348 58.3906 236.927 58.3906C234.505 58.3906 232.356 57.8372 230.481 56.7305C228.606 55.6107 227.141 54.0156 226.087 51.9453C225.045 49.875 224.498 47.4987 224.446 44.8164V43.2148C224.446 40.4284 224.954 37.974 225.97 35.8516C226.998 33.7161 228.463 32.069 230.364 30.9102C232.278 29.7513 234.453 29.1719 236.887 29.1719C239.296 29.1719 241.445 29.7448 243.333 30.8906C245.221 32.0365 246.686 33.6706 247.727 35.793C248.782 37.9023 249.316 40.3242 249.329 43.0586V44.3672ZM242.356 43.1758C242.356 40.3503 241.881 38.2083 240.93 36.75C239.993 35.2786 238.645 34.543 236.887 34.543C233.45 34.543 231.634 37.1211 231.438 42.2773L231.419 44.3672C231.419 47.1536 231.881 49.2956 232.805 50.793C233.73 52.2904 235.104 53.0391 236.927 53.0391C238.658 53.0391 239.993 52.3034 240.93 50.832C241.868 49.3607 242.343 47.2448 242.356 44.4844V43.1758ZM265.932 50.4414C265.932 49.4388 265.574 48.6576 264.858 48.0977C264.155 47.5378 262.911 46.9583 261.127 46.3594C259.343 45.7604 257.885 45.181 256.752 44.6211C253.067 42.8112 251.225 40.3242 251.225 37.1602C251.225 35.5846 251.681 34.1979 252.592 33C253.517 31.7891 254.819 30.8516 256.498 30.1875C258.178 29.5104 260.066 29.1719 262.163 29.1719C264.207 29.1719 266.036 29.5365 267.651 30.2656C269.278 30.9948 270.541 32.0365 271.44 33.3906C272.338 34.7318 272.788 36.2682 272.788 38H265.952C265.952 36.8411 265.593 35.9427 264.877 35.3047C264.174 34.6667 263.217 34.3477 262.006 34.3477C260.782 34.3477 259.812 34.6211 259.096 35.168C258.393 35.7018 258.041 36.3854 258.041 37.2188C258.041 37.9479 258.432 38.612 259.213 39.2109C259.995 39.7969 261.368 40.4089 263.334 41.0469C265.301 41.6719 266.915 42.349 268.178 43.0781C271.251 44.849 272.788 47.2904 272.788 50.4023C272.788 52.8893 271.85 54.8424 269.975 56.2617C268.1 57.681 265.528 58.3906 262.26 58.3906C259.955 58.3906 257.866 57.9805 255.991 57.1602C254.129 56.3268 252.722 55.194 251.772 53.7617C250.834 52.3164 250.366 50.6562 250.366 48.7812H257.241C257.241 50.3047 257.631 51.431 258.413 52.1602C259.207 52.8763 260.489 53.2344 262.26 53.2344C263.393 53.2344 264.285 52.9935 264.936 52.5117C265.6 52.0169 265.932 51.3268 265.932 50.4414Z" fill="#EF3829"/>
<path d="M74.1514 75.4023H69.9814L69.0449 78H67.6914L71.4922 68.0469H72.6406L76.4482 78H75.1016L74.1514 75.4023ZM70.3779 74.3223H73.7617L72.0664 69.667L70.3779 74.3223ZM88.9843 69.127H85.785V78H84.4794V69.127H81.287V68.0469H88.9843V69.127ZM98.4857 73.3447C98.4857 74.32 98.3216 75.1722 97.9935 75.9014C97.6654 76.626 97.2005 77.1797 96.5989 77.5625C95.9974 77.9453 95.2956 78.1367 94.4935 78.1367C93.7096 78.1367 93.0146 77.9453 92.4085 77.5625C91.8024 77.1751 91.3307 76.626 90.9935 75.915C90.6608 75.1995 90.4899 74.3724 90.4808 73.4336V72.7158C90.4808 71.7588 90.6471 70.9134 90.9798 70.1797C91.3125 69.446 91.7819 68.8854 92.388 68.498C92.9987 68.1061 93.696 67.9102 94.4798 67.9102C95.2773 67.9102 95.9792 68.1038 96.5853 68.4912C97.196 68.874 97.6654 69.4323 97.9935 70.166C98.3216 70.8952 98.4857 71.7451 98.4857 72.7158V73.3447ZM97.18 72.7021C97.18 71.5218 96.943 70.6172 96.4691 69.9883C95.9951 69.3548 95.332 69.0381 94.4798 69.0381C93.6504 69.0381 92.9964 69.3548 92.5179 69.9883C92.0439 70.6172 91.8001 71.4922 91.7864 72.6133V73.3447C91.7864 74.4886 92.0257 75.3887 92.5042 76.0449C92.9873 76.6966 93.6504 77.0225 94.4935 77.0225C95.3411 77.0225 95.9974 76.7148 96.4622 76.0996C96.9271 75.4798 97.1663 74.5934 97.18 73.4404V72.7021ZM101.014 78V68.0469H103.824C104.69 68.0469 105.455 68.2383 106.121 68.6211C106.786 69.0039 107.299 69.5485 107.659 70.2549C108.024 70.9613 108.208 71.7725 108.213 72.6885V73.3242C108.213 74.263 108.03 75.0856 107.666 75.792C107.306 76.4984 106.789 77.0407 106.114 77.4189C105.444 77.7972 104.663 77.9909 103.769 78H101.014ZM102.327 69.127V76.9268H103.708C104.719 76.9268 105.506 76.6123 106.066 75.9834C106.631 75.3545 106.914 74.459 106.914 73.2969V72.7158C106.914 71.5856 106.647 70.7083 106.114 70.084C105.585 69.4551 104.833 69.1361 103.858 69.127H102.327ZM116.108 75.4023H111.938L111.001 78H109.648L113.448 68.0469H114.597L118.404 78H117.058L116.108 75.4023ZM112.334 74.3223H115.718L114.023 69.667L112.334 74.3223ZM123.237 73.5635C122.111 73.2399 121.291 72.8434 120.776 72.374C120.266 71.9001 120.01 71.3167 120.01 70.624C120.01 69.8402 120.323 69.193 120.947 68.6826C121.576 68.1676 122.392 67.9102 123.394 67.9102C124.078 67.9102 124.686 68.0423 125.219 68.3066C125.757 68.571 126.172 68.9355 126.464 69.4004C126.76 69.8652 126.908 70.3734 126.908 70.9248H125.589C125.589 70.3232 125.397 69.8516 125.014 69.5098C124.631 69.1634 124.091 68.9902 123.394 68.9902C122.747 68.9902 122.241 69.1338 121.877 69.4209C121.517 69.7035 121.337 70.0977 121.337 70.6035C121.337 71.0091 121.507 71.3532 121.849 71.6357C122.196 71.9137 122.781 72.1689 123.606 72.4014C124.436 72.6338 125.083 72.8913 125.548 73.1738C126.017 73.4518 126.363 73.7777 126.587 74.1514C126.814 74.5251 126.928 74.9648 126.928 75.4707C126.928 76.2773 126.614 76.9245 125.985 77.4121C125.356 77.8952 124.515 78.1367 123.463 78.1367C122.779 78.1367 122.141 78.0068 121.548 77.7471C120.956 77.4827 120.498 77.1227 120.174 76.667C119.855 76.2113 119.696 75.694 119.696 75.1152H121.015C121.015 75.7168 121.236 76.193 121.678 76.5439C122.125 76.8903 122.72 77.0635 123.463 77.0635C124.155 77.0635 124.686 76.9222 125.055 76.6396C125.424 76.3571 125.609 75.972 125.609 75.4844C125.609 74.9967 125.438 74.6208 125.096 74.3564C124.755 74.0876 124.135 73.8232 123.237 73.5635ZM134.529 76.9268H139.246V78H133.209V68.0469H134.529V76.9268ZM146.936 75.4023H142.766L141.829 78H140.476L144.276 68.0469H145.425L149.232 78H147.886L146.936 75.4023ZM143.162 74.3223H146.546L144.851 69.667L143.162 74.3223ZM154.065 73.5635C152.939 73.2399 152.119 72.8434 151.604 72.374C151.093 71.9001 150.838 71.3167 150.838 70.624C150.838 69.8402 151.15 69.193 151.775 68.6826C152.404 68.1676 153.219 67.9102 154.222 67.9102C154.906 67.9102 155.514 68.0423 156.047 68.3066C156.585 68.571 157 68.9355 157.291 69.4004C157.588 69.8652 157.736 70.3734 157.736 70.9248H156.416C156.416 70.3232 156.225 69.8516 155.842 69.5098C155.459 69.1634 154.919 68.9902 154.222 68.9902C153.575 68.9902 153.069 69.1338 152.704 69.4209C152.344 69.7035 152.164 70.0977 152.164 70.6035C152.164 71.0091 152.335 71.3532 152.677 71.6357C153.024 71.9137 153.609 72.1689 154.434 72.4014C155.263 72.6338 155.911 72.8913 156.375 73.1738C156.845 73.4518 157.191 73.7777 157.414 74.1514C157.642 74.5251 157.756 74.9648 157.756 75.4707C157.756 76.2773 157.442 76.9245 156.813 77.4121C156.184 77.8952 155.343 78.1367 154.29 78.1367C153.607 78.1367 152.969 78.0068 152.376 77.7471C151.784 77.4827 151.326 77.1227 151.002 76.667C150.683 76.2113 150.524 75.694 150.524 75.1152H151.843C151.843 75.7168 152.064 76.193 152.506 76.5439C152.953 76.8903 153.548 77.0635 154.29 77.0635C154.983 77.0635 155.514 76.9222 155.883 76.6396C156.252 76.3571 156.437 75.972 156.437 75.4844C156.437 74.9967 156.266 74.6208 155.924 74.3564C155.582 74.0876 154.963 73.8232 154.065 73.5635ZM171.694 73.3447C171.694 74.32 171.53 75.1722 171.201 75.9014C170.873 76.626 170.408 77.1797 169.807 77.5625C169.205 77.9453 168.504 78.1367 167.701 78.1367C166.918 78.1367 166.223 77.9453 165.616 77.5625C165.01 77.1751 164.539 76.626 164.201 75.915C163.869 75.1995 163.698 74.3724 163.689 73.4336V72.7158C163.689 71.7588 163.855 70.9134 164.188 70.1797C164.52 69.446 164.99 68.8854 165.596 68.498C166.207 68.1061 166.904 67.9102 167.688 67.9102C168.485 67.9102 169.187 68.1038 169.793 68.4912C170.404 68.874 170.873 69.4323 171.201 70.166C171.53 70.8952 171.694 71.7451 171.694 72.7158V73.3447ZM170.388 72.7021C170.388 71.5218 170.151 70.6172 169.677 69.9883C169.203 69.3548 168.54 69.0381 167.688 69.0381C166.858 69.0381 166.204 69.3548 165.726 69.9883C165.252 70.6172 165.008 71.4922 164.994 72.6133V73.3447C164.994 74.4886 165.234 75.3887 165.712 76.0449C166.195 76.6966 166.858 77.0225 167.701 77.0225C168.549 77.0225 169.205 76.7148 169.67 76.0996C170.135 75.4798 170.374 74.5934 170.388 73.4404V72.7021ZM175.535 74.1035V78H174.222V68.0469H177.893C178.982 68.0469 179.835 68.3249 180.45 68.8809C181.07 69.4368 181.38 70.1729 181.38 71.0889C181.38 72.055 181.077 72.8001 180.47 73.3242C179.869 73.8438 179.005 74.1035 177.88 74.1035H175.535ZM175.535 73.0303H177.893C178.595 73.0303 179.133 72.8662 179.507 72.5381C179.88 72.2054 180.067 71.7269 180.067 71.1025C180.067 70.5101 179.88 70.0361 179.507 69.6807C179.133 69.3252 178.62 69.1406 177.968 69.127H175.535V73.0303ZM189.24 73.3994H184.927V76.9268H189.938V78H183.614V68.0469H189.869V69.127H184.927V72.3262H189.24V73.3994ZM195.782 73.9736H193.444V78H192.125V68.0469H195.42C196.541 68.0469 197.402 68.3021 198.004 68.8125C198.61 69.3229 198.913 70.0658 198.913 71.041C198.913 71.6608 198.744 72.2008 198.407 72.6611C198.074 73.1214 197.609 73.4655 197.012 73.6934L199.35 77.918V78H197.942L195.782 73.9736ZM193.444 72.9004H195.461C196.112 72.9004 196.629 72.7318 197.012 72.3945C197.4 72.0573 197.593 71.6061 197.593 71.041C197.593 70.4258 197.409 69.9541 197.04 69.626C196.675 69.2979 196.146 69.1315 195.454 69.127H193.444V72.9004ZM206.814 75.4023H202.645L201.708 78H200.355L204.155 68.0469H205.304L209.111 78H207.765L206.814 75.4023ZM203.041 74.3223H206.425L204.73 69.667L203.041 74.3223ZM211.011 78V68.0469H213.821C214.687 68.0469 215.452 68.2383 216.118 68.6211C216.783 69.0039 217.296 69.5485 217.656 70.2549C218.02 70.9613 218.205 71.7725 218.209 72.6885V73.3242C218.209 74.263 218.027 75.0856 217.663 75.792C217.303 76.4984 216.785 77.0407 216.111 77.4189C215.441 77.7972 214.659 77.9909 213.766 78H211.011ZM212.324 69.127V76.9268H213.705C214.716 76.9268 215.502 76.6123 216.063 75.9834C216.628 75.3545 216.911 74.459 216.911 73.2969V72.7158C216.911 71.5856 216.644 70.7083 216.111 70.084C215.582 69.4551 214.83 69.1361 213.855 69.127H212.324ZM228.415 73.3447C228.415 74.32 228.251 75.1722 227.923 75.9014C227.595 76.626 227.13 77.1797 226.528 77.5625C225.927 77.9453 225.225 78.1367 224.423 78.1367C223.639 78.1367 222.944 77.9453 222.338 77.5625C221.732 77.1751 221.26 76.626 220.923 75.915C220.59 75.1995 220.419 74.3724 220.41 73.4336V72.7158C220.41 71.7588 220.576 70.9134 220.909 70.1797C221.242 69.446 221.711 68.8854 222.317 68.498C222.928 68.1061 223.625 67.9102 224.409 67.9102C225.207 67.9102 225.908 68.1038 226.515 68.4912C227.125 68.874 227.595 69.4323 227.923 70.166C228.251 70.8952 228.415 71.7451 228.415 72.7158V73.3447ZM227.109 72.7021C227.109 71.5218 226.872 70.6172 226.398 69.9883C225.924 69.3548 225.261 69.0381 224.409 69.0381C223.58 69.0381 222.926 69.3548 222.447 69.9883C221.973 70.6172 221.729 71.4922 221.716 72.6133V73.3447C221.716 74.4886 221.955 75.3887 222.434 76.0449C222.917 76.6966 223.58 77.0225 224.423 77.0225C225.27 77.0225 225.927 76.7148 226.392 76.0996C226.856 75.4798 227.096 74.5934 227.109 73.4404V72.7021ZM234.594 73.9736H232.256V78H230.937V68.0469H234.232C235.353 68.0469 236.214 68.3021 236.816 68.8125C237.422 69.3229 237.725 70.0658 237.725 71.041C237.725 71.6608 237.556 72.2008 237.219 72.6611C236.886 73.1214 236.422 73.4655 235.825 73.6934L238.162 77.918V78H236.754L234.594 73.9736ZM232.256 72.9004H234.273C234.925 72.9004 235.442 72.7318 235.825 72.3945C236.212 72.0573 236.406 71.6061 236.406 71.041C236.406 70.4258 236.221 69.9541 235.852 69.626C235.487 69.2979 234.959 69.1315 234.266 69.127H232.256V72.9004ZM245.627 75.4023H241.457L240.52 78H239.167L242.968 68.0469H244.116L247.924 78H246.577L245.627 75.4023ZM241.853 74.3223H245.237L243.542 69.667L241.853 74.3223ZM252.756 73.5635C251.63 73.2399 250.81 72.8434 250.295 72.374C249.785 71.9001 249.53 71.3167 249.53 70.624C249.53 69.8402 249.842 69.193 250.466 68.6826C251.095 68.1676 251.911 67.9102 252.913 67.9102C253.597 67.9102 254.205 68.0423 254.739 68.3066C255.276 68.571 255.691 68.9355 255.983 69.4004C256.279 69.8652 256.427 70.3734 256.427 70.9248H255.108C255.108 70.3232 254.916 69.8516 254.533 69.5098C254.151 69.1634 253.611 68.9902 252.913 68.9902C252.266 68.9902 251.76 69.1338 251.396 69.4209C251.036 69.7035 250.856 70.0977 250.856 70.6035C250.856 71.0091 251.027 71.3532 251.368 71.6357C251.715 71.9137 252.3 72.1689 253.125 72.4014C253.955 72.6338 254.602 72.8913 255.067 73.1738C255.536 73.4518 255.882 73.7777 256.106 74.1514C256.334 74.5251 256.447 74.9648 256.447 75.4707C256.447 76.2773 256.133 76.9245 255.504 77.4121C254.875 77.8952 254.034 78.1367 252.982 78.1367C252.298 78.1367 251.66 78.0068 251.068 77.7471C250.475 77.4827 250.017 77.1227 249.694 76.667C249.375 76.2113 249.215 75.694 249.215 75.1152H250.534C250.534 75.7168 250.755 76.193 251.197 76.5439C251.644 76.8903 252.239 77.0635 252.982 77.0635C253.674 77.0635 254.205 76.9222 254.574 76.6396C254.944 76.3571 255.128 75.972 255.128 75.4844C255.128 74.9967 254.957 74.6208 254.615 74.3564C254.274 74.0876 253.654 73.8232 252.756 73.5635Z" fill="#222222" fill-opacity="0.8"/>
<path d="M11.5967 130.955L12.9004 120.057H25.3662V123.895H16.9141L16.4307 128.128C16.7822 127.923 17.2412 127.742 17.8076 127.586C18.3838 127.43 18.9453 127.352 19.4922 127.352C21.6113 127.352 23.2373 127.982 24.3701 129.241C25.5127 130.491 26.084 132.249 26.084 134.515C26.084 135.882 25.7764 137.122 25.1611 138.236C24.5557 139.339 23.7012 140.189 22.5977 140.784C21.4941 141.38 20.1904 141.678 18.6865 141.678C17.3486 141.678 16.0938 141.405 14.9219 140.858C13.75 140.301 12.832 139.544 12.168 138.587C11.5039 137.62 11.1768 136.531 11.1865 135.321H16.1377C16.1865 136.102 16.4355 136.722 16.8848 137.181C17.334 137.64 17.9248 137.869 18.6572 137.869C20.3174 137.869 21.1475 136.639 21.1475 134.178C21.1475 131.903 20.1318 130.765 18.1006 130.765C16.9482 130.765 16.0889 131.136 15.5225 131.878L11.5967 130.955ZM43.4863 132.669C43.4863 135.55 42.8369 137.772 41.5381 139.334C40.249 140.897 38.4277 141.678 36.0742 141.678C33.7012 141.678 31.8652 140.892 30.5664 139.32C29.2676 137.747 28.6182 135.531 28.6182 132.669V128.773C28.6182 125.892 29.2627 123.67 30.5518 122.108C31.8506 120.545 33.6816 119.764 36.0449 119.764C38.4082 119.764 40.2393 120.55 41.5381 122.122C42.8369 123.695 43.4863 125.916 43.4863 128.787V132.669ZM38.5498 128.143C38.5498 126.61 38.3496 125.467 37.9492 124.715C37.5488 123.953 36.9141 123.573 36.0449 123.573C35.1953 123.573 34.5752 123.924 34.1846 124.627C33.8037 125.33 33.5986 126.395 33.5693 127.821V133.27C33.5693 134.862 33.7695 136.029 34.1699 136.771C34.5703 137.503 35.2051 137.869 36.0742 137.869C36.9141 137.869 37.5342 137.513 37.9346 136.8C38.335 136.077 38.54 134.949 38.5498 133.416V128.143ZM60.5811 120.057L65.3418 134.896L70.0879 120.057H76.8555V141.385H71.6992V136.405L72.1973 126.209L67.041 141.385H63.6426L58.4717 126.195L58.9697 136.405V141.385H53.8281V120.057H60.5811ZM85.6152 141.385H80.4883V120.057H85.6152V141.385ZM107.002 141.385H101.89L94.3311 128.114V141.385H89.1895V120.057H94.3311L101.875 133.328V120.057H107.002V141.385Z" fill="#222222"/>
<path d="M12.4746 159.312H17.1914V160.385H11.1553V150.432H12.4746V159.312ZM24.3213 157.787H20.1514L19.2148 160.385H17.8613L21.6621 150.432H22.8105L26.6182 160.385H25.2715L24.3213 157.787ZM20.5479 156.707H23.9316L22.2363 152.052L20.5479 156.707ZM31.6084 156.359H29.2705V160.385H27.9512V150.432H31.2461C32.3672 150.432 33.2285 150.687 33.8301 151.198C34.4362 151.708 34.7393 152.451 34.7393 153.426C34.7393 154.046 34.5706 154.586 34.2334 155.046C33.9007 155.506 33.4359 155.851 32.8389 156.078L35.1768 160.303V160.385H33.7686L31.6084 156.359ZM29.2705 155.285H31.2871C31.9388 155.285 32.4561 155.117 32.8389 154.78C33.2262 154.442 33.4199 153.991 33.4199 153.426C33.4199 152.811 33.2354 152.339 32.8662 152.011C32.5016 151.683 31.973 151.517 31.2803 151.512H29.2705V155.285ZM43.9336 159.079C43.5964 159.562 43.1247 159.925 42.5186 160.166C41.917 160.403 41.2152 160.522 40.4131 160.522C39.6019 160.522 38.8818 160.333 38.2529 159.954C37.624 159.572 37.1364 159.029 36.79 158.327C36.4482 157.626 36.2728 156.812 36.2637 155.887V155.019C36.2637 153.519 36.6123 152.357 37.3096 151.532C38.0114 150.708 38.9958 150.295 40.2627 150.295C41.3018 150.295 42.138 150.562 42.7715 151.095C43.4049 151.624 43.7923 152.376 43.9336 153.351H42.6211C42.375 152.034 41.5911 151.375 40.2695 151.375C39.39 151.375 38.7223 151.685 38.2666 152.305C37.8154 152.92 37.5876 153.813 37.583 154.985V155.798C37.583 156.915 37.8382 157.803 38.3486 158.464C38.859 159.12 39.5495 159.448 40.4199 159.448C40.9121 159.448 41.3428 159.394 41.7119 159.284C42.0811 159.175 42.3864 158.99 42.6279 158.731V156.495H40.3242V155.429H43.9336V159.079ZM51.624 157.787H47.4541L46.5176 160.385H45.1641L48.9648 150.432H50.1133L53.9209 160.385H52.5742L51.624 157.787ZM47.8506 156.707H51.2344L49.5391 152.052L47.8506 156.707ZM58.7334 160.385V150.432H61.543C62.4089 150.432 63.1745 150.623 63.8398 151.006C64.5052 151.389 65.0179 151.934 65.3779 152.64C65.7425 153.346 65.9271 154.157 65.9316 155.073V155.709C65.9316 156.648 65.7493 157.471 65.3848 158.177C65.0247 158.883 64.5075 159.426 63.833 159.804C63.1631 160.182 62.3815 160.376 61.4883 160.385H58.7334ZM60.0459 151.512V159.312H61.4268C62.4385 159.312 63.2246 158.997 63.7852 158.368C64.3503 157.74 64.6328 156.844 64.6328 155.682V155.101C64.6328 153.971 64.3662 153.093 63.833 152.469C63.3044 151.84 62.5524 151.521 61.5771 151.512H60.0459ZM69.3291 160.385H68.0166V150.432H69.3291V160.385ZM74.668 155.948C73.5423 155.625 72.722 155.228 72.207 154.759C71.6966 154.285 71.4414 153.702 71.4414 153.009C71.4414 152.225 71.7536 151.578 72.3779 151.068C73.0068 150.553 73.8226 150.295 74.8252 150.295C75.5088 150.295 76.1172 150.427 76.6504 150.692C77.1882 150.956 77.6029 151.321 77.8945 151.785C78.1908 152.25 78.3389 152.758 78.3389 153.31H77.0195C77.0195 152.708 76.8281 152.237 76.4453 151.895C76.0625 151.548 75.5225 151.375 74.8252 151.375C74.1781 151.375 73.6722 151.519 73.3076 151.806C72.9476 152.088 72.7676 152.483 72.7676 152.989C72.7676 153.394 72.9385 153.738 73.2803 154.021C73.6266 154.299 74.2122 154.554 75.0371 154.786C75.8665 155.019 76.5137 155.276 76.9785 155.559C77.4479 155.837 77.7943 156.163 78.0176 156.536C78.2454 156.91 78.3594 157.35 78.3594 157.856C78.3594 158.662 78.0449 159.309 77.416 159.797C76.7871 160.28 75.9463 160.522 74.8936 160.522C74.21 160.522 73.5719 160.392 72.9795 160.132C72.387 159.868 71.929 159.508 71.6055 159.052C71.2865 158.596 71.127 158.079 71.127 157.5H72.4463C72.4463 158.102 72.6673 158.578 73.1094 158.929C73.556 159.275 74.1507 159.448 74.8936 159.448C75.5863 159.448 76.1172 159.307 76.4863 159.025C76.8555 158.742 77.04 158.357 77.04 157.869C77.04 157.382 76.8691 157.006 76.5273 156.741C76.1855 156.473 75.5658 156.208 74.668 155.948ZM86.9248 151.512H83.7256V160.385H82.4199V151.512H79.2275V150.432H86.9248V151.512ZM93.3506 157.787H89.1807L88.2441 160.385H86.8906L90.6914 150.432H91.8398L95.6475 160.385H94.3008L93.3506 157.787ZM89.5771 156.707H92.9609L91.2656 152.052L89.5771 156.707ZM104.637 160.385H103.317L98.3066 152.715V160.385H96.9873V150.432H98.3066L103.331 158.136V150.432H104.637V160.385ZM114.289 157.227C114.166 158.28 113.776 159.093 113.12 159.667C112.468 160.237 111.6 160.522 110.516 160.522C109.34 160.522 108.396 160.1 107.686 159.257C106.979 158.414 106.626 157.286 106.626 155.873V154.916C106.626 153.991 106.79 153.178 107.118 152.476C107.451 151.774 107.92 151.236 108.526 150.863C109.132 150.484 109.834 150.295 110.632 150.295C111.689 150.295 112.537 150.591 113.175 151.184C113.813 151.772 114.184 152.587 114.289 153.631H112.97C112.856 152.838 112.607 152.264 112.225 151.908C111.846 151.553 111.315 151.375 110.632 151.375C109.793 151.375 109.135 151.685 108.656 152.305C108.182 152.925 107.945 153.807 107.945 154.95V155.914C107.945 156.994 108.171 157.853 108.622 158.491C109.073 159.129 109.704 159.448 110.516 159.448C111.245 159.448 111.803 159.284 112.19 158.956C112.582 158.624 112.842 158.047 112.97 157.227H114.289ZM117.495 160.385H116.183V150.432H117.495V160.385ZM125.521 157.787H121.351L120.414 160.385H119.061L122.861 150.432H124.01L127.817 160.385H126.471L125.521 157.787ZM121.747 156.707H125.131L123.436 152.052L121.747 156.707ZM12.5635 174.385H11.251V164.432H12.5635V174.385ZM22.6191 174.385H21.2998L16.2891 166.715V174.385H14.9697V164.432H16.2891L21.3135 172.136V164.432H22.6191V174.385ZM31.6221 165.512H28.4229V174.385H27.1172V165.512H23.9248V164.432H31.6221V165.512ZM38.7246 169.784H34.4111V173.312H39.4219V174.385H33.0986V164.432H39.3535V165.512H34.4111V168.711H38.7246V169.784ZM44.7061 170.359H42.3682V174.385H41.0488V164.432H44.3438C45.4648 164.432 46.3262 164.687 46.9277 165.198C47.5339 165.708 47.8369 166.451 47.8369 167.426C47.8369 168.046 47.6683 168.586 47.3311 169.046C46.9984 169.506 46.5335 169.851 45.9365 170.078L48.2744 174.303V174.385H46.8662L44.7061 170.359ZM42.3682 169.285H44.3848C45.0365 169.285 45.5537 169.117 45.9365 168.78C46.3239 168.442 46.5176 167.991 46.5176 167.426C46.5176 166.811 46.333 166.339 45.9639 166.011C45.5993 165.683 45.0706 165.517 44.3779 165.512H42.3682V169.285ZM57.332 174.385H56.0127L51.002 166.715V174.385H49.6826V164.432H51.002L56.0264 172.136V164.432H57.332V174.385ZM65.2822 171.787H61.1123L60.1758 174.385H58.8223L62.623 164.432H63.7715L67.5791 174.385H66.2324L65.2822 171.787ZM61.5088 170.707H64.8926L63.1973 166.052L61.5088 170.707ZM76.1582 171.227C76.0352 172.28 75.6455 173.093 74.9893 173.667C74.3376 174.237 73.4694 174.522 72.3848 174.522C71.209 174.522 70.2656 174.1 69.5547 173.257C68.8483 172.414 68.4951 171.286 68.4951 169.873V168.916C68.4951 167.991 68.6592 167.178 68.9873 166.476C69.32 165.774 69.7894 165.236 70.3955 164.863C71.0016 164.484 71.7035 164.295 72.501 164.295C73.5583 164.295 74.4059 164.591 75.0439 165.184C75.682 165.772 76.0534 166.587 76.1582 167.631H74.8389C74.7249 166.838 74.4766 166.264 74.0938 165.908C73.7155 165.553 73.1846 165.375 72.501 165.375C71.6624 165.375 71.0039 165.685 70.5254 166.305C70.0514 166.925 69.8145 167.807 69.8145 168.95V169.914C69.8145 170.994 70.04 171.853 70.4912 172.491C70.9424 173.129 71.5736 173.448 72.3848 173.448C73.1139 173.448 73.6722 173.284 74.0596 172.956C74.4515 172.624 74.7113 172.047 74.8389 171.227H76.1582ZM79.3643 174.385H78.0518V164.432H79.3643V174.385ZM89.4268 169.73C89.4268 170.705 89.2627 171.557 88.9346 172.286C88.6064 173.011 88.1416 173.565 87.54 173.948C86.9385 174.33 86.2367 174.522 85.4346 174.522C84.6507 174.522 83.9557 174.33 83.3496 173.948C82.7435 173.56 82.2718 173.011 81.9346 172.3C81.6019 171.585 81.431 170.757 81.4219 169.819V169.101C81.4219 168.144 81.5882 167.298 81.9209 166.565C82.2536 165.831 82.723 165.27 83.3291 164.883C83.9398 164.491 84.637 164.295 85.4209 164.295C86.2184 164.295 86.9202 164.489 87.5264 164.876C88.137 165.259 88.6064 165.817 88.9346 166.551C89.2627 167.28 89.4268 168.13 89.4268 169.101V169.73ZM88.1211 169.087C88.1211 167.907 87.8841 167.002 87.4102 166.373C86.9362 165.74 86.2731 165.423 85.4209 165.423C84.5915 165.423 83.9375 165.74 83.459 166.373C82.985 167.002 82.7412 167.877 82.7275 168.998V169.73C82.7275 170.874 82.9668 171.774 83.4453 172.43C83.9284 173.082 84.5915 173.407 85.4346 173.407C86.2822 173.407 86.9385 173.1 87.4033 172.485C87.8682 171.865 88.1074 170.978 88.1211 169.825V169.087ZM99.0449 174.385H97.7256L92.7148 166.715V174.385H91.3955V164.432H92.7148L97.7393 172.136V164.432H99.0449V174.385ZM106.995 171.787H102.825L101.889 174.385H100.535L104.336 164.432H105.484L109.292 174.385H107.945L106.995 171.787ZM103.222 170.707H106.605L104.91 166.052L103.222 170.707ZM111.951 173.312H116.668V174.385H110.632V164.432H111.951V173.312Z" fill="#222222"/>
<g filter="url(#filter0_d)">
<path d="M150.516 130.479H155.688L154.906 134.994H149.75L148.672 141.104H143.875L144.938 134.994H139.75L140.531 130.479H145.719L146.75 124.541H151.547L150.516 130.479Z" fill="#EF3829"/>
</g>
<path d="M172.134 119.744L175.625 130.626L179.105 119.744H184.068V135.385H180.287V131.733L180.652 124.256L176.871 135.385H174.379L170.587 124.245L170.952 131.733V135.385H167.182V119.744H172.134ZM196.175 128.757H190.245V132.485H197.249V135.385H186.475V119.744H197.271V122.656H190.245V125.953H196.175V128.757ZM211.848 135.385H208.099L202.556 125.653V135.385H198.785V119.744H202.556L208.088 129.477V119.744H211.848V135.385ZM222.3 131.228C222.3 130.676 222.103 130.247 221.709 129.939C221.322 129.631 220.638 129.312 219.657 128.983C218.676 128.653 217.874 128.335 217.251 128.027C215.224 127.031 214.211 125.663 214.211 123.923C214.211 123.057 214.462 122.294 214.963 121.635C215.471 120.969 216.188 120.453 217.111 120.088C218.035 119.716 219.074 119.53 220.227 119.53C221.351 119.53 222.357 119.73 223.245 120.131C224.14 120.532 224.835 121.105 225.329 121.85C225.823 122.587 226.07 123.433 226.07 124.385H222.311C222.311 123.748 222.114 123.253 221.72 122.903C221.333 122.552 220.807 122.376 220.141 122.376C219.467 122.376 218.934 122.527 218.54 122.827C218.153 123.121 217.96 123.497 217.96 123.955C217.96 124.356 218.175 124.722 218.604 125.051C219.034 125.373 219.79 125.71 220.871 126.061C221.952 126.405 222.84 126.777 223.535 127.178C225.225 128.152 226.07 129.495 226.07 131.206C226.07 132.574 225.555 133.648 224.523 134.429C223.492 135.21 222.078 135.6 220.28 135.6C219.013 135.6 217.863 135.374 216.832 134.923C215.808 134.465 215.035 133.842 214.512 133.054C213.996 132.259 213.738 131.346 213.738 130.315H217.52C217.52 131.153 217.734 131.772 218.164 132.173C218.601 132.567 219.306 132.764 220.28 132.764C220.903 132.764 221.394 132.631 221.752 132.366C222.117 132.094 222.3 131.715 222.3 131.228ZM236.888 132.463H231.721L230.818 135.385H226.79L232.526 119.744H236.071L241.851 135.385H237.801L236.888 132.463ZM232.623 129.552H235.985L234.299 124.127L232.623 129.552ZM249.23 119.744H252.99V130.476C252.99 131.471 252.757 132.359 252.292 133.14C251.834 133.92 251.189 134.526 250.358 134.955C249.535 135.385 248.615 135.6 247.598 135.6C245.893 135.6 244.568 135.17 243.623 134.311C242.678 133.451 242.205 132.234 242.205 130.658H245.986C245.986 131.375 246.108 131.894 246.352 132.216C246.602 132.538 247.018 132.699 247.598 132.699C248.12 132.699 248.521 132.506 248.801 132.119C249.087 131.726 249.23 131.178 249.23 130.476V119.744ZM265.075 128.757H259.146V132.485H266.149V135.385H255.375V119.744H266.171V122.656H259.146V125.953H265.075V128.757ZM275.753 131.228C275.753 130.676 275.556 130.247 275.162 129.939C274.775 129.631 274.091 129.312 273.11 128.983C272.129 128.653 271.327 128.335 270.704 128.027C268.677 127.031 267.664 125.663 267.664 123.923C267.664 123.057 267.915 122.294 268.416 121.635C268.924 120.969 269.641 120.453 270.564 120.088C271.488 119.716 272.527 119.53 273.68 119.53C274.804 119.53 275.81 119.73 276.698 120.131C277.593 120.532 278.288 121.105 278.782 121.85C279.276 122.587 279.523 123.433 279.523 124.385H275.764C275.764 123.748 275.567 123.253 275.173 122.903C274.786 122.552 274.26 122.376 273.594 122.376C272.921 122.376 272.387 122.527 271.993 122.827C271.606 123.121 271.413 123.497 271.413 123.955C271.413 124.356 271.628 124.722 272.058 125.051C272.487 125.373 273.243 125.71 274.324 126.061C275.406 126.405 276.294 126.777 276.988 127.178C278.678 128.152 279.523 129.495 279.523 131.206C279.523 132.574 279.008 133.648 277.977 134.429C276.945 135.21 275.531 135.6 273.733 135.6C272.466 135.6 271.316 135.374 270.285 134.923C269.261 134.465 268.488 133.842 267.965 133.054C267.449 132.259 267.191 131.346 267.191 130.315H270.973C270.973 131.153 271.188 131.772 271.617 132.173C272.054 132.567 272.759 132.764 273.733 132.764C274.356 132.764 274.847 132.631 275.205 132.366C275.57 132.094 275.753 131.715 275.753 131.228ZM171.199 157.385H167.439V141.744H171.199V157.385ZM177.591 154.485H184.154V157.385H173.82V141.744H177.591V154.485ZM189.762 157.385H186.002V141.744H189.762V157.385ZM197.335 141.744L200.826 152.626L204.307 141.744H209.27V157.385H205.488V153.733L205.854 146.256L202.072 157.385H199.58L195.788 146.245L196.153 153.733V157.385H192.383V141.744H197.335ZM215.693 157.385H211.934V141.744H215.693V157.385ZM230.271 144.656H225.576V157.385H221.806V144.656H217.197V141.744H230.271V144.656ZM239.466 154.463H234.299L233.396 157.385H229.368L235.104 141.744H238.649L244.429 157.385H240.379L239.466 154.463ZM235.201 151.552H238.563L236.877 146.127L235.201 151.552ZM245.578 157.385V141.744H250.616C251.998 141.744 253.241 142.059 254.344 142.69C255.447 143.313 256.306 144.197 256.922 145.343C257.545 146.482 257.86 147.76 257.867 149.178V149.898C257.867 151.33 257.563 152.615 256.954 153.754C256.353 154.886 255.5 155.774 254.397 156.418C253.302 157.056 252.077 157.378 250.724 157.385H245.578ZM249.349 144.656V154.485H250.659C251.741 154.485 252.571 154.101 253.151 153.335C253.731 152.562 254.021 151.416 254.021 149.898V149.221C254.021 147.71 253.731 146.571 253.151 145.805C252.571 145.039 251.726 144.656 250.616 144.656H249.349ZM273.046 149.887C273.046 151.412 272.763 152.762 272.197 153.937C271.632 155.111 270.826 156.017 269.78 156.655C268.742 157.285 267.557 157.6 266.225 157.6C264.893 157.6 263.711 157.295 262.68 156.687C261.648 156.071 260.843 155.194 260.263 154.055C259.69 152.916 259.389 151.609 259.36 150.134V149.253C259.36 147.721 259.64 146.371 260.198 145.203C260.764 144.029 261.57 143.123 262.615 142.486C263.668 141.848 264.864 141.53 266.203 141.53C267.528 141.53 268.71 141.845 269.748 142.475C270.786 143.105 271.592 144.004 272.165 145.171C272.745 146.331 273.039 147.663 273.046 149.167V149.887ZM269.211 149.232C269.211 147.678 268.95 146.5 268.427 145.698C267.911 144.888 267.17 144.484 266.203 144.484C264.312 144.484 263.313 145.902 263.206 148.738L263.195 149.887C263.195 151.42 263.45 152.598 263.958 153.421C264.466 154.245 265.222 154.656 266.225 154.656C267.177 154.656 267.911 154.252 268.427 153.443C268.942 152.633 269.204 151.47 269.211 149.951V149.232ZM283.058 153.228C283.058 152.676 282.861 152.247 282.467 151.939C282.08 151.631 281.396 151.312 280.415 150.983C279.434 150.653 278.632 150.335 278.009 150.027C275.982 149.031 274.969 147.663 274.969 145.923C274.969 145.057 275.219 144.294 275.721 143.635C276.229 142.969 276.945 142.453 277.869 142.088C278.793 141.716 279.831 141.53 280.984 141.53C282.109 141.53 283.115 141.73 284.003 142.131C284.898 142.532 285.593 143.105 286.087 143.85C286.581 144.587 286.828 145.433 286.828 146.385H283.068C283.068 145.748 282.871 145.253 282.478 144.903C282.091 144.552 281.564 144.376 280.898 144.376C280.225 144.376 279.692 144.527 279.298 144.827C278.911 145.121 278.718 145.497 278.718 145.955C278.718 146.356 278.933 146.722 279.362 147.051C279.792 147.373 280.548 147.71 281.629 148.061C282.71 148.405 283.598 148.777 284.293 149.178C285.983 150.152 286.828 151.495 286.828 153.206C286.828 154.574 286.312 155.648 285.281 156.429C284.25 157.21 282.836 157.6 281.038 157.6C279.771 157.6 278.621 157.374 277.59 156.923C276.566 156.465 275.792 155.842 275.27 155.054C274.754 154.259 274.496 153.346 274.496 152.315H278.277C278.277 153.153 278.492 153.772 278.922 154.173C279.359 154.567 280.064 154.764 281.038 154.764C281.661 154.764 282.152 154.631 282.51 154.366C282.875 154.094 283.058 153.715 283.058 153.228Z" fill="#222222"/>
<path d="M168.851 162.432L172.104 170.553L175.358 162.432H177.061V172.385H175.748V168.509L175.871 164.325L172.604 172.385H171.599L168.338 164.346L168.468 168.509V172.385H167.155V162.432H168.851ZM186.385 162.432V169.199C186.38 170.138 186.084 170.906 185.496 171.503C184.913 172.1 184.12 172.435 183.117 172.508L182.769 172.522C181.679 172.522 180.811 172.228 180.164 171.64C179.517 171.052 179.189 170.243 179.18 169.213V162.432H180.479V169.172C180.479 169.892 180.677 170.453 181.073 170.854C181.47 171.25 182.035 171.448 182.769 171.448C183.511 171.448 184.079 171.25 184.471 170.854C184.867 170.457 185.065 169.899 185.065 169.179V162.432H186.385ZM189.775 171.312H194.492V172.385H188.456V162.432H189.775V171.312ZM200.979 163.512H197.78V172.385H196.475V163.512H193.282V162.432H200.979V163.512ZM203.864 172.385H202.552V162.432H203.864V172.385ZM206.271 172.385V162.432H209.08C209.946 162.432 210.712 162.623 211.377 163.006C212.042 163.389 212.555 163.934 212.915 164.64C213.28 165.346 213.464 166.157 213.469 167.073V167.709C213.469 168.648 213.286 169.471 212.922 170.177C212.562 170.883 212.045 171.426 211.37 171.804C210.7 172.182 209.919 172.376 209.025 172.385H206.271ZM207.583 163.512V171.312H208.964C209.976 171.312 210.762 170.997 211.322 170.368C211.887 169.74 212.17 168.844 212.17 167.682V167.101C212.17 165.971 211.903 165.093 211.37 164.469C210.841 163.84 210.09 163.521 209.114 163.512H207.583ZM221.084 167.784H216.771V171.312H221.781V172.385H215.458V162.432H221.713V163.512H216.771V166.711H221.084V167.784ZM226.348 167.948C225.222 167.625 224.402 167.228 223.887 166.759C223.376 166.285 223.121 165.702 223.121 165.009C223.121 164.225 223.433 163.578 224.058 163.068C224.687 162.553 225.502 162.295 226.505 162.295C227.188 162.295 227.797 162.427 228.33 162.692C228.868 162.956 229.283 163.321 229.574 163.785C229.87 164.25 230.019 164.758 230.019 165.31H228.699C228.699 164.708 228.508 164.237 228.125 163.895C227.742 163.548 227.202 163.375 226.505 163.375C225.858 163.375 225.352 163.519 224.987 163.806C224.627 164.088 224.447 164.483 224.447 164.989C224.447 165.394 224.618 165.738 224.96 166.021C225.306 166.299 225.892 166.554 226.717 166.786C227.546 167.019 228.193 167.276 228.658 167.559C229.128 167.837 229.474 168.163 229.697 168.536C229.925 168.91 230.039 169.35 230.039 169.856C230.039 170.662 229.725 171.309 229.096 171.797C228.467 172.28 227.626 172.522 226.573 172.522C225.89 172.522 225.252 172.392 224.659 172.132C224.067 171.868 223.609 171.508 223.285 171.052C222.966 170.596 222.807 170.079 222.807 169.5H224.126C224.126 170.102 224.347 170.578 224.789 170.929C225.236 171.275 225.83 171.448 226.573 171.448C227.266 171.448 227.797 171.307 228.166 171.025C228.535 170.742 228.72 170.357 228.72 169.869C228.72 169.382 228.549 169.006 228.207 168.741C227.865 168.473 227.245 168.208 226.348 167.948ZM238.604 163.512H235.405V172.385H234.1V163.512H230.907V162.432H238.604V163.512ZM241.489 172.385H240.177V162.432H241.489V172.385ZM251.545 172.385H250.226L245.215 164.715V172.385H243.896V162.432H245.215L250.239 170.136V162.432H251.545V172.385ZM261.532 167.73C261.532 168.705 261.368 169.557 261.04 170.286C260.712 171.011 260.247 171.565 259.646 171.948C259.044 172.33 258.342 172.522 257.54 172.522C256.756 172.522 256.061 172.33 255.455 171.948C254.849 171.56 254.377 171.011 254.04 170.3C253.707 169.585 253.536 168.757 253.527 167.819V167.101C253.527 166.144 253.694 165.298 254.026 164.565C254.359 163.831 254.828 163.27 255.435 162.883C256.045 162.491 256.743 162.295 257.526 162.295C258.324 162.295 259.026 162.489 259.632 162.876C260.243 163.259 260.712 163.817 261.04 164.551C261.368 165.28 261.532 166.13 261.532 167.101V167.73ZM260.227 167.087C260.227 165.907 259.99 165.002 259.516 164.373C259.042 163.74 258.379 163.423 257.526 163.423C256.697 163.423 256.043 163.74 255.564 164.373C255.09 165.002 254.847 165.877 254.833 166.998V167.73C254.833 168.874 255.072 169.774 255.551 170.43C256.034 171.082 256.697 171.407 257.54 171.407C258.388 171.407 259.044 171.1 259.509 170.485C259.974 169.865 260.213 168.978 260.227 167.825V167.087Z" fill="#222222"/>
<g clip-path="url(#clip0)">
<path d="M36.2848 226.001C36.1996 226.001 36.1996 226.001 36.1996 226.001C35.3471 226.001 34.4947 226.001 33.7275 226.001C33.6423 226.001 33.557 226.001 33.557 225.917C32.9603 224.822 32.1079 224.064 30.9145 223.727C29.2096 223.306 27.8457 223.811 26.6523 225.075C25.9703 225.832 25.6293 226.759 25.6293 227.769C25.6293 228.527 25.7998 229.201 26.1408 229.875C26.8228 230.969 27.7604 231.727 29.0391 231.896C30.6587 232.148 32.0226 231.643 33.0456 230.296C33.216 230.127 33.3013 229.875 33.4718 229.622C33.4718 229.538 33.557 229.538 33.6423 229.538C34.4947 229.538 35.3471 229.538 36.1996 229.538C36.2848 229.538 36.2848 229.538 36.2848 229.622C35.9438 230.885 35.2619 231.98 34.239 232.822C33.216 233.664 32.1079 234.253 30.744 234.422C29.2096 234.59 27.6752 234.422 26.3113 233.58C24.5212 232.485 23.413 230.885 23.072 228.864C22.8163 227.011 23.1573 225.243 24.3507 223.727C25.1179 222.801 25.9703 221.959 27.0785 221.538C27.6752 221.285 28.2719 221.117 28.9539 221.117C29.8915 221.032 30.8292 221.032 31.7669 221.369C33.6423 221.959 35.0062 223.138 35.8586 224.906C36.0291 225.243 36.1143 225.58 36.2848 226.001Z" fill="#EF3829"/>
<path d="M48.1338 233.58C48.0485 233.58 48.0485 233.664 48.0485 233.664C47.4518 234.085 46.7699 234.338 46.0879 234.506C45.4912 234.59 44.8945 234.674 44.2978 234.59C43.1896 234.422 42.3372 234.001 41.911 232.906C41.7405 232.401 41.6552 231.896 41.7405 231.39C41.7405 230.969 41.8257 230.548 41.9962 230.127C42.3372 229.369 42.9339 228.864 43.7011 228.527C44.2978 228.274 44.8945 228.19 45.4912 228.106C46.0879 228.022 46.6846 227.938 47.2813 227.853C47.7075 227.769 48.0485 227.348 47.9633 226.843C47.878 226.422 47.7075 226.169 47.2813 226.001C46.7699 225.832 46.3436 225.832 45.8322 225.917C45.6617 225.917 45.4912 226.001 45.3207 226.001C44.8945 226.169 44.6388 226.59 44.4683 227.011V227.096C44.383 227.348 44.383 227.348 44.2125 227.348C43.4453 227.348 42.6782 227.348 41.911 227.348C41.8257 227.348 41.8257 227.348 41.8257 227.264C41.8257 226.927 41.911 226.59 41.9962 226.253C42.3372 224.99 43.1896 224.232 44.383 223.896C45.2355 223.643 46.0027 223.643 46.8551 223.727C47.6223 223.727 48.3895 223.98 49.0714 224.317C49.9239 224.738 50.3501 225.411 50.5206 226.253C50.6058 226.506 50.6058 226.759 50.6058 227.011C50.6058 229.538 50.6058 231.98 50.6058 234.506C50.6058 234.59 50.6058 234.674 50.4353 234.674C49.6682 234.674 48.8157 234.674 48.0485 234.674C47.9633 234.674 47.9633 234.674 47.9633 234.59C47.9633 234.338 47.9633 234.001 47.9633 233.748C48.219 233.58 48.219 233.58 48.1338 233.58ZM48.0485 229.285C47.9633 229.369 47.878 229.369 47.878 229.369C47.7928 229.453 47.6223 229.538 47.5371 229.538C47.0256 229.622 46.5994 229.79 46.0879 229.874C45.7469 229.959 45.4912 229.959 45.2355 230.127C44.8093 230.296 44.5535 230.632 44.4683 231.053C44.383 231.306 44.383 231.474 44.4683 231.727C44.5535 232.232 44.8945 232.653 45.406 232.738C46.1732 232.906 46.8551 232.653 47.4518 232.232C47.878 231.98 47.9633 231.474 48.0485 231.053C48.1338 230.464 48.0485 229.874 48.0485 229.285Z" fill="#EF3829"/>
<path d="M58.8745 229.116C58.8745 226.422 60.8351 224.569 62.54 223.98C65.8645 222.885 69.0185 224.906 69.7005 227.938C70.0414 229.622 69.7857 231.138 68.7628 232.485C67.9103 233.58 66.8022 234.338 65.4383 234.59C63.6482 234.927 62.0285 234.506 60.7499 233.243C59.9827 232.485 59.386 231.643 59.1302 230.632C58.9598 230.127 58.8745 229.622 58.8745 229.116ZM64.3301 226.338C62.7105 226.253 61.4318 227.769 61.4318 229.201C61.4318 230.548 62.54 232.064 64.3301 232.064C66.1202 232.064 67.2284 230.548 67.2284 229.201C67.2284 227.601 66.035 226.253 64.3301 226.338Z" fill="#EF3829"/>
<path d="M60.9203 239.896C60.9203 239.811 60.9203 239.811 60.9203 239.727C60.9203 238.717 60.9203 237.622 60.9203 236.611C60.9203 236.527 60.9203 236.527 61.0908 236.527C61.6875 236.527 62.199 236.527 62.7957 236.527C62.8809 236.527 62.8809 236.527 62.8809 236.611C62.8809 239.98 62.8809 243.348 62.8809 246.717C62.8809 246.801 62.8809 246.801 62.7957 246.801C62.2842 246.801 61.6875 246.801 61.176 246.801C61.0908 246.801 61.0908 246.801 61.0908 246.717C61.0908 246.548 61.0908 246.38 61.0908 246.127H61.0055C60.4941 246.632 59.8974 246.885 59.1302 246.885C58.7892 246.885 58.4482 246.801 58.1073 246.717C57.3401 246.464 56.9138 245.874 56.6581 245.117C56.5729 244.78 56.4876 244.443 56.4876 244.022C56.4876 243.096 56.4024 242.253 56.5729 241.327C56.6581 240.99 56.7434 240.653 56.8286 240.317C57.0843 239.727 57.5105 239.39 58.1073 239.222C58.8744 238.969 59.5564 238.969 60.3236 239.306C60.5793 239.559 60.7498 239.727 60.9203 239.896ZM60.9203 243.011C60.9203 242.927 60.9203 242.927 60.9203 242.843C60.9203 242.422 60.9203 241.917 60.7498 241.496C60.5793 241.159 60.4088 240.99 60.0679 240.906C59.9826 240.906 59.8121 240.822 59.7269 240.822C59.2154 240.822 58.7892 240.99 58.5335 241.58C58.4482 241.917 58.363 242.253 58.363 242.59C58.363 243.096 58.363 243.601 58.4482 244.106C58.5335 244.696 58.8744 245.117 59.5564 245.117C60.1531 245.117 60.5793 244.864 60.7498 244.359C60.9203 243.938 60.9203 243.517 60.9203 243.011Z" fill="black"/>
<path d="M55.0385 225.496C55.2942 225.159 55.4647 224.99 55.7204 224.738C56.2319 224.317 56.8286 223.98 57.5105 223.811C57.8515 223.727 58.1925 223.727 58.5335 223.643C58.6187 223.643 58.6187 223.727 58.6187 223.727C58.6187 224.232 58.6187 224.822 58.6187 225.327C58.6187 225.58 58.6187 225.917 58.6187 226.169C58.6187 226.253 58.6187 226.253 58.5335 226.253C58.2777 226.253 58.022 226.169 57.681 226.253C57.2548 226.253 56.9138 226.422 56.5729 226.59C55.8909 227.011 55.3794 227.517 55.209 228.359C55.1237 228.696 55.1237 229.117 55.1237 229.453C55.1237 231.053 55.1237 232.738 55.1237 234.338C55.1237 234.422 55.1237 234.506 54.9532 234.506C54.186 234.506 53.4188 234.506 52.6516 234.506C52.5664 234.506 52.5664 234.506 52.5664 234.422C52.5664 231.053 52.5664 227.685 52.5664 224.232C52.5664 224.148 52.5664 224.148 52.6516 224.148C53.4188 224.148 54.186 224.148 54.9532 224.148C55.0385 224.148 55.0385 224.148 55.0385 224.232C55.0385 224.738 55.0385 225.075 55.0385 225.496Z" fill="#EF3829"/>
<path d="M40.2061 227.769C40.2061 229.959 40.2061 232.232 40.2061 234.422C40.2061 234.506 40.2061 234.59 40.0356 234.59C39.2684 234.59 38.5012 234.59 37.6488 234.59C37.5635 234.59 37.4783 234.59 37.4783 234.422C37.4783 229.959 37.4783 225.58 37.4783 221.117C37.4783 221.032 37.4783 220.948 37.6488 220.948C38.416 220.948 39.2684 220.948 40.0356 220.948C40.1208 220.948 40.1208 220.948 40.1208 221.117C40.2061 223.39 40.2061 225.58 40.2061 227.769Z" fill="#EF3829"/>
<path d="M68.5922 243.601C67.825 243.601 67.0578 243.601 66.2906 243.601C66.2054 243.601 66.2054 243.601 66.2054 243.685C66.2054 244.443 66.6316 245.032 67.3135 245.117C68.0807 245.285 68.8479 245.201 69.4446 244.611C69.6151 244.443 69.6151 244.443 69.7004 244.611C70.0413 244.948 70.2971 245.201 70.638 245.538C70.7233 245.622 70.7233 245.622 70.638 245.622C70.1266 246.127 69.4446 246.548 68.6774 246.717C67.9102 246.801 67.1431 246.801 66.3759 246.548C65.5234 246.296 64.9267 245.706 64.5857 244.864C64.0743 243.517 64.0743 242.169 64.5857 240.906C65.0972 239.727 66.0349 239.138 67.3135 239.053C67.825 239.053 68.4217 239.053 68.8479 239.306C69.7856 239.727 70.3823 240.485 70.638 241.411C70.7233 241.832 70.8085 242.253 70.8085 242.675C70.8085 242.927 70.8085 243.18 70.8085 243.432C70.8085 243.517 70.8085 243.517 70.7233 243.517C70.1266 243.601 69.3594 243.601 68.5922 243.601ZM67.6545 242.338C68.0807 242.338 68.5922 242.338 69.0184 242.338C69.1037 242.338 69.1037 242.338 69.1037 242.253C69.1037 242.001 69.0184 241.832 68.9332 241.664C68.5922 240.653 67.3988 240.653 66.8021 240.99C66.3759 241.327 66.2054 241.748 66.2054 242.253C66.2054 242.338 66.2054 242.338 66.2906 242.338C66.7168 242.338 67.2283 242.338 67.6545 242.338Z" fill="black"/>
<path d="M78.566 243.011C78.566 243.601 78.566 244.19 78.3955 244.695C78.1398 245.706 77.4578 246.38 76.4349 246.717C75.5825 246.969 74.73 246.969 73.8776 246.548C72.9399 246.127 72.4284 245.453 72.2579 244.443C72.0874 243.685 72.0874 242.927 72.1727 242.169C72.1727 241.748 72.2579 241.243 72.5137 240.822C72.9399 239.895 73.7071 239.39 74.73 239.138C75.3267 239.053 76.0087 239.053 76.6054 239.222C77.6283 239.559 78.3103 240.317 78.566 241.411C78.566 242.001 78.566 242.506 78.566 243.011ZM74.0481 243.011C74.0481 243.432 74.0481 243.769 74.1333 244.19C74.3038 245.032 74.9005 245.369 75.6677 245.201C76.1792 245.117 76.4349 244.695 76.6054 244.274C76.7759 243.517 76.7759 242.759 76.6054 242.001C76.5201 241.58 76.3496 241.243 75.9234 241.074C75.5825 240.906 75.3267 240.906 74.9857 240.99C74.4743 241.159 74.2185 241.495 74.1333 241.917C74.0481 242.253 73.9628 242.59 74.0481 243.011Z" fill="black"/>
<path d="M45.0649 239.222C45.3207 239.222 45.5764 239.222 45.7469 239.222C46.1731 239.222 46.5141 239.222 46.9403 239.222C47.0255 239.222 47.1108 239.222 47.1108 239.39C47.6223 240.822 48.0485 242.338 48.5599 243.769V243.854C48.6452 243.854 48.5599 243.769 48.6452 243.769C49.1566 242.338 49.5829 240.822 50.0943 239.306C50.0943 239.222 50.1796 239.222 50.2648 239.222C50.8615 239.222 51.4582 239.222 52.0549 239.222C52.2254 239.222 52.2254 239.222 52.1402 239.306C51.373 241.411 50.5205 243.601 49.7533 245.706C49.6681 246.043 49.4976 246.296 49.4124 246.632C49.4124 246.717 49.3271 246.717 49.3271 246.717C48.9009 246.717 48.4747 246.717 48.0485 246.717C47.9632 246.717 47.9632 246.717 47.878 246.632C47.2813 245.117 46.7698 243.601 46.1731 242.085C45.8321 241.159 45.4912 240.232 45.1502 239.39C45.1502 239.306 45.1502 239.306 45.0649 239.222Z" fill="black"/>
<path d="M70.2972 224.148C70.2972 224.064 70.2119 224.064 70.2972 224.148C69.7005 223.559 69.189 223.053 68.6775 222.548C68.5923 222.464 68.6775 222.464 68.6775 222.38L68.7628 222.296C70.8086 220.274 72.8545 218.253 74.8151 216.232C74.9003 216.148 74.9003 216.148 74.9856 216.232C75.497 216.738 76.0085 217.243 76.52 217.748C76.6052 217.832 76.6052 217.832 76.52 217.917C74.4741 219.938 72.4283 221.959 70.2972 224.148C70.2972 224.064 70.3824 224.064 70.2972 224.148Z" fill="#EF3829"/>
<path d="M74.9003 226.674C76.0084 226.674 77.1166 226.674 78.2248 226.674C78.31 226.674 78.31 226.674 78.31 226.759C78.31 227.432 78.31 228.19 78.31 228.864C78.31 228.948 78.31 228.948 78.2248 228.948C76.0084 228.948 73.7069 228.948 71.4905 228.948C71.4053 228.948 71.4053 228.948 71.4053 228.864C71.4053 228.19 71.4053 227.432 71.4053 226.759C71.4053 226.674 71.4053 226.674 71.4905 226.674C72.6839 226.674 73.7921 226.674 74.9003 226.674Z" fill="#EF3829"/>
<path d="M63.4778 218.253C63.4778 217.159 63.4778 216.064 63.4778 215.053C63.4778 214.969 63.4778 214.885 63.563 214.885C64.245 214.885 64.9269 214.885 65.6941 214.885C65.7794 214.885 65.7794 214.885 65.7794 214.969C65.7794 217.159 65.7794 219.264 65.7794 221.453C65.7794 221.538 65.7794 221.538 65.6941 221.538C65.0122 221.538 64.245 221.538 63.563 221.538C63.4778 221.538 63.4778 221.538 63.4778 221.453C63.4778 220.443 63.4778 219.348 63.4778 218.253Z" fill="#EF3829"/>
<path d="M53.0779 243.011C53.0779 241.832 53.0779 240.569 53.0779 239.39C53.0779 239.306 53.0779 239.222 53.1631 239.222C53.7598 239.222 54.2713 239.222 54.868 239.222C54.9533 239.222 54.9532 239.222 54.9532 239.306C54.9532 241.748 54.9532 244.19 54.9532 246.632C54.9532 246.717 54.9533 246.717 54.868 246.717C54.2713 246.717 53.7598 246.717 53.1631 246.717C53.0779 246.717 53.0779 246.717 53.0779 246.632C53.0779 245.454 53.0779 244.19 53.0779 243.011Z" fill="black"/>
<path d="M52.8223 237.117C52.8223 236.443 53.3337 235.938 54.0157 235.938C54.6976 235.938 55.2091 236.443 55.2091 237.117C55.2091 237.79 54.6976 238.296 54.0157 238.296C53.3337 238.296 52.8223 237.79 52.8223 237.117Z" fill="black"/>
</g>
<g filter="url(#filter1_d)">
<path d="M99.4578 227.09H103.337L102.751 230.477H98.8835L98.075 235.059H94.4773L95.2742 230.477H91.3835L91.9695 227.09H95.8601L96.6335 222.637H100.231L99.4578 227.09Z" fill="#EF3829"/>
</g>
<path d="M123.262 225.908C122.842 225.908 122.421 225.908 122 225.908C121.916 225.908 121.916 225.908 121.832 225.824C121.243 224.73 120.486 223.972 119.308 223.72C117.793 223.299 116.447 223.72 115.353 224.814C114.764 225.403 114.343 226.16 114.175 227.002C113.922 228.685 114.427 230.031 115.774 231.041C117.036 232.05 118.971 232.134 120.402 231.209C120.991 230.788 121.495 230.283 121.832 229.61C121.916 229.526 121.916 229.526 122 229.526C122.842 229.526 123.599 229.526 124.44 229.526C124.525 229.526 124.525 229.526 124.525 229.61C124.104 230.956 123.431 232.05 122.337 232.976C121.495 233.733 120.486 234.154 119.392 234.322C117.709 234.575 116.194 234.406 114.764 233.481C113.081 232.387 111.987 230.872 111.651 228.853C111.398 227.002 111.735 225.319 112.829 223.804C113.586 222.794 114.511 221.953 115.69 221.532C116.363 221.28 117.036 221.112 117.793 221.112C118.55 221.112 119.308 221.112 120.065 221.364C121.748 221.953 123.094 222.963 123.936 224.561C124.188 224.982 124.356 225.487 124.525 225.908C124.525 225.992 124.525 225.992 124.44 225.992C124.104 225.908 123.683 225.908 123.262 225.908Z" fill="#EF3829"/>
<path d="M136.389 233.397C136.052 233.733 135.632 233.902 135.211 234.07C134.369 234.406 133.528 234.491 132.602 234.406C132.013 234.322 131.424 234.154 130.92 233.733C130.415 233.228 130.162 232.639 130.078 231.882C130.078 231.377 130.078 230.872 130.162 230.368C130.415 229.442 131.004 228.853 131.845 228.516C132.434 228.264 133.023 228.18 133.612 228.096C134.285 228.012 134.874 227.927 135.547 227.759C135.968 227.675 136.305 227.254 136.221 226.665C136.136 226.329 135.968 226.076 135.632 225.992C135.379 225.908 135.127 225.824 134.874 225.824C134.538 225.824 134.285 225.824 133.949 225.824C133.444 225.908 133.107 226.245 132.855 226.749C132.855 226.834 132.771 226.918 132.771 227.086C132.771 227.17 132.687 227.254 132.602 227.254C131.845 227.254 131.088 227.254 130.246 227.254C130.162 227.254 130.162 227.254 130.162 227.17C130.162 226.834 130.246 226.413 130.331 226.076C130.667 224.982 131.424 224.225 132.518 223.888C132.939 223.72 133.444 223.636 133.949 223.636C134.874 223.552 135.8 223.636 136.726 223.888C136.978 223.973 137.23 224.057 137.567 224.225C138.324 224.562 138.661 225.151 138.829 225.992C138.913 226.329 138.913 226.581 138.913 226.918C138.913 229.358 138.913 231.882 138.913 234.322C138.913 234.406 138.913 234.491 138.745 234.491C137.988 234.491 137.23 234.491 136.389 234.491C136.305 234.491 136.221 234.491 136.305 234.322C136.389 234.07 136.389 233.733 136.389 233.397ZM136.221 229.19C136.052 229.274 135.884 229.442 135.716 229.442C135.295 229.61 134.79 229.694 134.369 229.779C134.033 229.863 133.78 229.863 133.444 230.031C133.023 230.199 132.771 230.452 132.687 230.957C132.602 231.125 132.602 231.377 132.687 231.546C132.771 232.135 133.107 232.471 133.612 232.555C133.949 232.639 134.285 232.639 134.622 232.471C135.716 232.135 136.052 231.63 136.221 230.788C136.305 230.283 136.221 229.779 136.221 229.19Z" fill="#EF3829"/>
<path d="M152.208 234.49C150.609 234.49 149.347 233.901 148.338 232.723C147.496 231.798 146.991 230.788 146.907 229.526C146.739 227.422 147.58 225.739 149.263 224.561C150.02 223.972 150.862 223.72 151.872 223.636C152.629 223.552 153.47 223.636 154.144 223.972C155.995 224.73 157.173 226.076 157.593 228.095C157.846 229.61 157.593 231.04 156.752 232.218C155.911 233.396 154.817 234.154 153.386 234.406C152.881 234.49 152.545 234.49 152.208 234.49ZM152.208 226.244C150.609 226.16 149.347 227.59 149.347 229.105C149.347 230.536 150.525 231.966 152.208 231.966C153.891 231.966 155.069 230.536 155.069 229.105C155.069 227.506 153.807 226.16 152.208 226.244Z" fill="#EF3829"/>
<path d="M124.693 239.96C125.029 239.623 125.366 239.455 125.787 239.286C126.544 239.034 127.217 239.118 127.89 239.455C128.143 239.623 128.311 239.791 128.563 240.044C128.648 240.128 128.648 240.128 128.732 240.044C129.152 239.623 129.657 239.286 130.246 239.202C130.919 239.118 131.508 239.118 132.182 239.371C132.939 239.707 133.36 240.38 133.528 241.222C133.612 241.474 133.612 241.727 133.612 241.979C133.612 243.494 133.612 245.092 133.612 246.607C133.612 246.691 133.612 246.775 133.528 246.691C133.023 246.691 132.434 246.691 131.929 246.691C131.845 246.691 131.845 246.691 131.845 246.607C131.845 245.092 131.845 243.662 131.845 242.147C131.845 241.895 131.845 241.642 131.677 241.474C131.508 241.053 131.004 240.801 130.583 240.801C130.162 240.801 129.826 240.969 129.573 241.306C129.405 241.558 129.321 241.811 129.321 242.063C129.321 243.578 129.321 245.008 129.321 246.523C129.321 246.607 129.321 246.691 129.152 246.691C128.648 246.691 128.059 246.691 127.554 246.691C127.47 246.691 127.47 246.691 127.47 246.607C127.47 245.092 127.47 243.662 127.47 242.147C127.47 241.895 127.47 241.642 127.301 241.39C127.049 240.969 126.712 240.801 126.292 240.801C125.787 240.801 125.45 240.969 125.198 241.39C125.029 241.642 125.029 241.895 125.029 242.147C125.029 243.578 125.029 245.092 125.029 246.523C125.029 246.607 125.029 246.607 124.945 246.607C124.356 246.607 123.851 246.607 123.262 246.607C123.178 246.607 123.178 246.607 123.178 246.523C123.178 244.083 123.178 241.642 123.178 239.202C123.178 239.118 123.178 239.118 123.262 239.118C123.767 239.118 124.356 239.118 124.861 239.118C124.945 239.118 124.945 239.118 124.945 239.202C124.693 239.539 124.693 239.791 124.693 239.96Z" fill="black"/>
<path d="M143.12 225.403C143.289 225.234 143.373 225.15 143.457 224.982C144.046 224.393 144.719 223.972 145.476 223.804C145.813 223.72 146.15 223.636 146.486 223.636C146.57 223.636 146.57 223.636 146.57 223.72C146.57 224.561 146.57 225.319 146.57 226.16C146.57 226.244 146.57 226.244 146.486 226.244C146.15 226.244 145.897 226.16 145.561 226.244C145.14 226.244 144.719 226.412 144.383 226.665C144.298 226.749 144.13 226.833 144.046 226.917C143.541 227.338 143.289 227.927 143.205 228.6C143.205 228.937 143.12 229.273 143.12 229.61C143.12 231.209 143.12 232.723 143.12 234.322C143.12 234.406 143.12 234.406 142.952 234.406C142.195 234.406 141.438 234.406 140.596 234.406C140.512 234.406 140.512 234.406 140.512 234.322C140.512 230.956 140.512 227.591 140.512 224.225C140.512 224.141 140.512 224.141 140.596 224.141C141.353 224.141 142.111 224.141 142.784 224.141C142.868 224.141 142.952 224.141 142.952 224.309C143.12 224.645 143.12 225.066 143.12 225.403Z" fill="#EF3829"/>
<path d="M125.955 227.759C125.955 225.571 125.955 223.384 125.955 221.196C125.955 221.112 125.955 221.028 126.124 221.028C126.881 221.028 127.638 221.028 128.48 221.028C128.564 221.028 128.648 221.028 128.648 221.112C128.648 225.487 128.648 229.947 128.648 234.322C128.648 234.406 128.648 234.491 128.564 234.491C127.806 234.491 126.965 234.491 126.208 234.491C126.124 234.491 126.124 234.491 126.124 234.322C125.955 232.135 125.955 229.947 125.955 227.759Z" fill="#EF3829"/>
<path d="M164.157 246.102C163.988 246.271 163.82 246.439 163.568 246.523C163.231 246.776 162.894 246.86 162.474 246.86C162.053 246.86 161.632 246.86 161.212 246.691C160.37 246.439 159.949 245.85 159.781 245.009C159.697 244.672 159.697 244.251 159.865 243.915C160.034 243.326 160.37 242.905 160.959 242.652C161.464 242.4 161.885 242.4 162.474 242.4C162.979 242.4 163.568 242.4 164.072 242.4C164.157 242.4 164.157 242.4 164.157 242.316C164.157 242.148 164.157 241.895 164.157 241.727C164.072 241.306 163.82 240.97 163.399 240.885C162.979 240.801 162.558 240.801 162.221 240.885C161.885 240.97 161.632 241.138 161.464 241.39C161.38 241.474 161.38 241.474 161.296 241.39C160.959 241.054 160.623 240.717 160.202 240.381C160.118 240.296 160.118 240.296 160.202 240.212C160.707 239.707 161.296 239.371 162.053 239.287C162.726 239.203 163.399 239.203 164.072 239.371C164.746 239.539 165.335 239.876 165.671 240.465C165.924 240.885 166.008 241.306 166.008 241.811C166.008 243.41 166.008 245.009 166.008 246.691C166.008 246.776 166.008 246.86 165.839 246.86C165.335 246.86 164.83 246.86 164.241 246.86C164.157 246.86 164.157 246.86 164.157 246.776C164.157 246.523 164.157 246.355 164.157 246.102ZM164.072 243.999C164.072 243.915 164.072 243.83 164.072 243.746C164.072 243.662 164.072 243.662 163.988 243.662C163.568 243.662 163.063 243.662 162.642 243.662C162.474 243.662 162.39 243.662 162.221 243.746C161.801 243.83 161.632 244.083 161.548 244.504C161.548 244.924 161.716 245.177 162.137 245.345C162.558 245.513 162.979 245.429 163.399 245.345C163.82 245.261 164.072 244.924 164.072 244.504C164.072 244.251 164.072 244.083 164.072 243.999Z" fill="black"/>
<path d="M139.502 246.103C138.745 246.86 137.819 247.028 136.81 246.776C135.884 246.523 135.379 245.934 135.211 245.009C135.127 244.756 135.127 244.42 135.127 244.167C135.127 242.569 135.127 241.054 135.127 239.455C135.127 239.371 135.127 239.287 135.295 239.287C135.8 239.287 136.389 239.287 136.894 239.287C136.978 239.287 136.978 239.287 136.978 239.371C136.978 240.886 136.978 242.316 136.978 243.831C136.978 244.251 137.062 244.588 137.314 244.84C137.567 245.093 137.903 245.177 138.24 245.177C138.661 245.177 138.997 245.009 139.25 244.672C139.418 244.504 139.418 244.251 139.502 243.999C139.502 243.747 139.502 243.578 139.502 243.326C139.502 242.064 139.502 240.717 139.502 239.455C139.502 239.371 139.502 239.371 139.586 239.371C140.091 239.371 140.68 239.371 141.185 239.371C141.269 239.371 141.269 239.371 141.269 239.455C141.269 241.895 141.269 244.336 141.269 246.692C141.269 246.776 141.269 246.776 141.185 246.776C140.68 246.776 140.091 246.776 139.586 246.776C139.502 246.776 139.502 246.776 139.502 246.692C139.502 246.439 139.502 246.271 139.502 246.103Z" fill="black"/>
<path d="M145.476 246.86C144.635 246.86 143.962 246.776 143.373 246.523C143.036 246.355 142.7 246.103 142.447 245.85C142.363 245.766 142.363 245.766 142.447 245.766C142.784 245.43 143.204 245.009 143.541 244.672C143.541 244.672 143.625 244.588 143.625 244.672C144.046 245.009 144.467 245.261 144.971 245.261C145.392 245.345 145.897 245.345 146.318 245.177C146.486 245.093 146.654 245.009 146.823 244.84C147.075 244.42 146.907 243.915 146.402 243.831C146.065 243.747 145.729 243.747 145.392 243.747C144.971 243.662 144.551 243.662 144.13 243.578C143.204 243.326 142.7 242.653 142.7 241.727C142.7 240.633 143.289 239.792 144.382 239.455C144.887 239.287 145.392 239.287 145.897 239.287C146.486 239.287 147.075 239.371 147.664 239.624C147.917 239.708 148.169 239.876 148.421 240.128C148.506 240.128 148.506 240.213 148.421 240.213C148.085 240.549 147.748 240.886 147.412 241.222C147.412 241.306 147.327 241.306 147.327 241.222C146.991 240.97 146.57 240.802 146.149 240.802C145.813 240.802 145.56 240.717 145.224 240.802C145.056 240.802 144.971 240.886 144.887 240.97C144.635 241.138 144.551 241.391 144.635 241.643C144.719 241.895 144.971 242.064 145.224 242.064C145.645 242.148 146.065 242.148 146.57 242.232C146.991 242.232 147.327 242.316 147.748 242.484C148.421 242.821 148.758 243.326 148.842 243.999C148.926 244.42 148.842 244.84 148.758 245.261C148.506 245.934 148.001 246.355 147.327 246.608C146.57 246.776 145.981 246.86 145.476 246.86Z" fill="black"/>
<path d="M153.302 243.073C153.302 242.316 153.386 241.643 153.723 240.97C154.143 240.044 154.901 239.455 155.995 239.287C156.668 239.203 157.341 239.203 157.93 239.371C158.435 239.539 158.771 239.792 159.108 240.128C159.192 240.212 159.108 240.212 159.108 240.212C158.687 240.633 158.351 240.97 157.93 241.39C157.846 241.474 157.846 241.39 157.846 241.39C157.593 241.138 157.425 240.97 157.088 240.885C156.247 240.717 155.574 241.138 155.321 241.979C155.153 242.652 155.153 243.326 155.321 243.999C155.49 244.588 155.826 244.924 156.331 245.093C156.836 245.177 157.341 245.093 157.762 244.672C157.93 244.504 157.93 244.504 158.014 244.672C158.351 245.009 158.687 245.345 159.024 245.682C159.108 245.766 159.108 245.766 159.024 245.85C158.351 246.523 157.509 246.776 156.584 246.776C155.91 246.776 155.321 246.607 154.817 246.271C154.143 245.85 153.723 245.177 153.47 244.419C153.386 243.999 153.302 243.494 153.302 243.073Z" fill="black"/>
<path d="M158.098 224.057C158.014 224.057 158.014 224.057 158.098 224.057C157.509 223.468 157.004 222.963 156.499 222.458C156.415 222.374 156.499 222.374 156.499 222.29C157.425 221.364 158.35 220.439 159.276 219.513C160.37 218.419 161.464 217.325 162.558 216.231C162.642 216.147 162.642 216.147 162.726 216.231C163.231 216.736 163.736 217.241 164.156 217.746C164.241 217.83 164.241 217.83 164.156 217.914C162.221 219.934 160.202 221.953 158.098 224.057C158.098 224.057 158.098 223.973 158.098 224.057Z" fill="#EF3829"/>
<path d="M162.642 228.937C161.548 228.937 160.454 228.937 159.36 228.937C159.276 228.937 159.192 228.937 159.192 228.768C159.192 228.095 159.192 227.422 159.192 226.665C159.192 226.581 159.192 226.581 159.276 226.581C161.464 226.581 163.652 226.581 165.839 226.581C165.923 226.581 165.923 226.581 165.923 226.665C165.923 227.338 165.923 228.011 165.923 228.768C165.923 228.853 165.923 228.853 165.839 228.853C164.83 228.937 163.736 228.937 162.642 228.937Z" fill="#EF3829"/>
<path d="M151.366 218.251C151.366 217.157 151.366 216.147 151.366 215.053C151.366 214.885 151.451 214.885 151.535 214.885C152.208 214.885 152.881 214.885 153.638 214.885C153.722 214.885 153.722 214.885 153.722 214.969C153.722 217.157 153.722 219.26 153.722 221.448C153.722 221.532 153.722 221.532 153.638 221.532C152.965 221.532 152.292 221.532 151.535 221.532C151.451 221.532 151.451 221.532 151.451 221.448C151.366 220.354 151.366 219.26 151.366 218.251Z" fill="#EF3829"/>
<path d="M150.02 242.989C150.02 241.811 150.02 240.549 150.02 239.371C150.02 239.287 150.02 239.287 150.104 239.287C150.693 239.287 151.198 239.287 151.787 239.287C151.871 239.287 151.871 239.287 151.871 239.371C151.871 241.811 151.871 244.251 151.871 246.608C151.871 246.692 151.871 246.692 151.787 246.692C151.198 246.692 150.693 246.692 150.104 246.692C150.02 246.692 150.02 246.692 150.02 246.608C150.02 245.43 150.02 244.251 150.02 242.989Z" fill="black"/>
<path d="M150.946 238.361C150.273 238.361 149.768 237.857 149.768 237.183C149.768 236.51 150.273 236.005 150.946 236.005C151.619 236.005 152.124 236.51 152.124 237.183C152.124 237.857 151.619 238.361 150.946 238.361Z" fill="black"/>
<path d="M137.399 238.109C137.483 237.856 137.567 237.604 137.735 237.267C137.904 236.762 138.156 236.258 138.324 235.753C138.324 235.669 138.324 235.669 138.408 235.669C138.997 235.669 139.671 235.669 140.26 235.669C140.26 235.669 140.26 235.753 140.175 235.753C139.671 236.51 139.166 237.267 138.661 238.025C138.661 238.109 138.577 238.109 138.493 238.109C138.156 238.109 137.735 238.109 137.399 238.109Z" fill="black"/>
<path d="M33.0498 268.389C33.0498 268.001 32.9131 267.705 32.6396 267.5C32.3662 267.29 31.874 267.072 31.1631 266.844C30.4521 266.611 29.8893 266.383 29.4746 266.16C28.3444 265.549 27.7793 264.727 27.7793 263.692C27.7793 263.155 27.9297 262.676 28.2305 262.257C28.5358 261.833 28.971 261.503 29.5361 261.266C30.1058 261.029 30.7438 260.91 31.4502 260.91C32.1611 260.91 32.7946 261.04 33.3506 261.3C33.9066 261.555 34.3372 261.917 34.6426 262.387C34.9525 262.856 35.1074 263.389 35.1074 263.986H33.0566C33.0566 263.531 32.9131 263.177 32.626 262.927C32.3389 262.672 31.9355 262.544 31.416 262.544C30.9147 262.544 30.5251 262.651 30.2471 262.865C29.9691 263.075 29.8301 263.353 29.8301 263.699C29.8301 264.023 29.9919 264.294 30.3154 264.513C30.6436 264.731 31.1243 264.937 31.7578 265.128C32.9245 265.479 33.7744 265.914 34.3076 266.434C34.8408 266.953 35.1074 267.6 35.1074 268.375C35.1074 269.236 34.7816 269.913 34.1299 270.405C33.4782 270.893 32.6009 271.137 31.498 271.137C30.7324 271.137 30.0352 270.998 29.4062 270.72C28.7773 270.437 28.2965 270.052 27.9639 269.564C27.6357 269.077 27.4717 268.512 27.4717 267.869H29.5293C29.5293 268.967 30.1855 269.517 31.498 269.517C31.9857 269.517 32.3662 269.419 32.6396 269.223C32.9131 269.022 33.0498 268.744 33.0498 268.389ZM44.0352 261.047V267.603C44.0352 268.692 43.6934 269.553 43.0098 270.187C42.3307 270.82 41.401 271.137 40.2207 271.137C39.0586 271.137 38.1357 270.829 37.4521 270.214C36.7686 269.599 36.4199 268.753 36.4062 267.678V261.047H38.457V267.616C38.457 268.268 38.612 268.744 38.9219 269.045C39.2363 269.341 39.6693 269.489 40.2207 269.489C41.3737 269.489 41.9593 268.883 41.9775 267.671V261.047H44.0352ZM50.8779 268.389C50.8779 268.001 50.7412 267.705 50.4678 267.5C50.1943 267.29 49.7021 267.072 48.9912 266.844C48.2803 266.611 47.7174 266.383 47.3027 266.16C46.1725 265.549 45.6074 264.727 45.6074 263.692C45.6074 263.155 45.7578 262.676 46.0586 262.257C46.3639 261.833 46.7992 261.503 47.3643 261.266C47.9339 261.029 48.5719 260.91 49.2783 260.91C49.9893 260.91 50.6227 261.04 51.1787 261.3C51.7347 261.555 52.1654 261.917 52.4707 262.387C52.7806 262.856 52.9355 263.389 52.9355 263.986H50.8848C50.8848 263.531 50.7412 263.177 50.4541 262.927C50.167 262.672 49.7637 262.544 49.2441 262.544C48.7428 262.544 48.3532 262.651 48.0752 262.865C47.7972 263.075 47.6582 263.353 47.6582 263.699C47.6582 264.023 47.82 264.294 48.1436 264.513C48.4717 264.731 48.9525 264.937 49.5859 265.128C50.7526 265.479 51.6025 265.914 52.1357 266.434C52.6689 266.953 52.9355 267.6 52.9355 268.375C52.9355 269.236 52.6097 269.913 51.958 270.405C51.3063 270.893 50.429 271.137 49.3262 271.137C48.5605 271.137 47.8633 270.998 47.2344 270.72C46.6055 270.437 46.1247 270.052 45.792 269.564C45.4639 269.077 45.2998 268.512 45.2998 267.869H47.3574C47.3574 268.967 48.0137 269.517 49.3262 269.517C49.8138 269.517 50.1943 269.419 50.4678 269.223C50.7412 269.022 50.8779 268.744 50.8779 268.389ZM62.1436 267.685C62.0661 268.756 61.6696 269.599 60.9541 270.214C60.2432 270.829 59.3044 271.137 58.1377 271.137C56.8617 271.137 55.8568 270.708 55.123 269.852C54.3939 268.99 54.0293 267.81 54.0293 266.311V265.702C54.0293 264.745 54.1979 263.902 54.5352 263.173C54.8724 262.444 55.3532 261.885 55.9775 261.498C56.6064 261.106 57.3356 260.91 58.165 260.91C59.3135 260.91 60.2386 261.218 60.9404 261.833C61.6423 262.448 62.0479 263.312 62.1572 264.424H60.1064C60.0563 263.781 59.8763 263.316 59.5664 263.029C59.2611 262.738 58.7939 262.592 58.165 262.592C57.4814 262.592 56.9688 262.838 56.627 263.33C56.2897 263.818 56.1165 264.576 56.1074 265.606V266.358C56.1074 267.434 56.2692 268.22 56.5928 268.717C56.9209 269.214 57.4359 269.462 58.1377 269.462C58.7712 269.462 59.2428 269.318 59.5527 269.031C59.8672 268.74 60.0472 268.291 60.0928 267.685H62.1436ZM67.1748 267.356H65.541V271H63.4902V261.047H67.1885C68.3643 261.047 69.2712 261.309 69.9092 261.833C70.5472 262.357 70.8662 263.098 70.8662 264.055C70.8662 264.734 70.7181 265.301 70.4219 265.757C70.1302 266.208 69.6859 266.568 69.0889 266.837L71.2422 270.904V271H69.041L67.1748 267.356ZM65.541 265.695H67.1953C67.7103 265.695 68.109 265.565 68.3916 265.306C68.6742 265.041 68.8154 264.679 68.8154 264.219C68.8154 263.749 68.681 263.38 68.4121 263.111C68.1478 262.842 67.7399 262.708 67.1885 262.708H65.541V265.695ZM74.6123 271H72.5615V261.047H74.6123V271ZM78.5703 267.493V271H76.5195V261.047H80.4023C81.1497 261.047 81.806 261.184 82.3711 261.457C82.9408 261.73 83.3783 262.12 83.6836 262.626C83.9889 263.127 84.1416 263.699 84.1416 264.342C84.1416 265.317 83.8066 266.087 83.1367 266.652C82.4714 267.213 81.5485 267.493 80.3682 267.493H78.5703ZM78.5703 265.832H80.4023C80.9447 265.832 81.3571 265.704 81.6396 265.449C81.9268 265.194 82.0703 264.829 82.0703 264.355C82.0703 263.868 81.9268 263.474 81.6396 263.173C81.3525 262.872 80.9561 262.717 80.4502 262.708H78.5703V265.832ZM93.3701 267.685C93.2926 268.756 92.8962 269.599 92.1807 270.214C91.4697 270.829 90.5309 271.137 89.3643 271.137C88.0882 271.137 87.0833 270.708 86.3496 269.852C85.6204 268.99 85.2559 267.81 85.2559 266.311V265.702C85.2559 264.745 85.4245 263.902 85.7617 263.173C86.099 262.444 86.5798 261.885 87.2041 261.498C87.833 261.106 88.5622 260.91 89.3916 260.91C90.54 260.91 91.4652 261.218 92.167 261.833C92.8688 262.448 93.2744 263.312 93.3838 264.424H91.333C91.2829 263.781 91.1029 263.316 90.793 263.029C90.4876 262.738 90.0205 262.592 89.3916 262.592C88.708 262.592 88.1953 262.838 87.8535 263.33C87.5163 263.818 87.3431 264.576 87.334 265.606V266.358C87.334 267.434 87.4958 268.22 87.8193 268.717C88.1475 269.214 88.6624 269.462 89.3643 269.462C89.9977 269.462 90.4694 269.318 90.7793 269.031C91.0938 268.74 91.2738 268.291 91.3193 267.685H93.3701ZM96.8975 271H94.8467V261.047H96.8975V271ZM106.98 266.249C106.98 267.229 106.807 268.088 106.461 268.826C106.115 269.564 105.618 270.134 104.971 270.535C104.328 270.936 103.59 271.137 102.756 271.137C101.931 271.137 101.195 270.938 100.548 270.542C99.9007 270.146 99.3994 269.58 99.0439 268.847C98.6885 268.108 98.5085 267.261 98.5039 266.304V265.812C98.5039 264.832 98.6794 263.97 99.0303 263.228C99.3857 262.48 99.8848 261.908 100.527 261.512C101.174 261.111 101.913 260.91 102.742 260.91C103.572 260.91 104.308 261.111 104.95 261.512C105.597 261.908 106.096 262.48 106.447 263.228C106.803 263.97 106.98 264.829 106.98 265.805V266.249ZM104.902 265.798C104.902 264.754 104.715 263.961 104.342 263.419C103.968 262.877 103.435 262.605 102.742 262.605C102.054 262.605 101.523 262.874 101.149 263.412C100.776 263.945 100.587 264.729 100.582 265.764V266.249C100.582 267.265 100.769 268.054 101.143 268.614C101.516 269.175 102.054 269.455 102.756 269.455C103.444 269.455 103.973 269.186 104.342 268.648C104.711 268.106 104.898 267.318 104.902 266.283V265.798ZM103.139 258.381H105.292L103.398 260.5H101.792L103.139 258.381ZM116.564 271H114.514L110.521 264.451V271H108.471V261.047H110.521L114.521 267.609V261.047H116.564V271ZM125.533 265.661H128.309V266.857H125.533V270.002H124.262V266.857H121.486V265.661H124.262V262.756H125.533V265.661ZM133.777 266.01L134.283 261.047H139.383V262.216H135.356L135.056 264.93C135.543 264.643 136.097 264.499 136.717 264.499C137.624 264.499 138.344 264.8 138.877 265.401C139.41 265.998 139.677 266.807 139.677 267.828C139.677 268.854 139.399 269.662 138.843 270.255C138.291 270.843 137.519 271.137 136.525 271.137C135.646 271.137 134.928 270.893 134.372 270.405C133.816 269.918 133.499 269.243 133.422 268.382H134.618C134.696 268.951 134.898 269.382 135.227 269.674C135.555 269.961 135.988 270.104 136.525 270.104C137.113 270.104 137.574 269.904 137.906 269.503C138.243 269.102 138.412 268.548 138.412 267.842C138.412 267.176 138.23 266.643 137.865 266.242C137.505 265.837 137.024 265.634 136.423 265.634C135.871 265.634 135.438 265.755 135.124 265.996L134.789 266.27L133.777 266.01ZM152.207 269.694C151.87 270.177 151.398 270.54 150.792 270.781C150.19 271.018 149.489 271.137 148.687 271.137C147.875 271.137 147.155 270.948 146.526 270.569C145.897 270.187 145.41 269.644 145.063 268.942C144.722 268.241 144.546 267.427 144.537 266.502V265.634C144.537 264.134 144.886 262.972 145.583 262.147C146.285 261.323 147.269 260.91 148.536 260.91C149.575 260.91 150.411 261.177 151.045 261.71C151.678 262.239 152.066 262.991 152.207 263.966H150.895C150.648 262.649 149.865 261.99 148.543 261.99C147.663 261.99 146.996 262.3 146.54 262.92C146.089 263.535 145.861 264.428 145.856 265.6V266.413C145.856 267.53 146.112 268.418 146.622 269.079C147.132 269.735 147.823 270.063 148.693 270.063C149.186 270.063 149.616 270.009 149.985 269.899C150.354 269.79 150.66 269.605 150.901 269.346V267.11H148.598V266.044H152.207V269.694ZM154.401 271V261.047H157.655C158.735 261.047 159.547 261.27 160.089 261.717C160.636 262.163 160.909 262.824 160.909 263.699C160.909 264.164 160.777 264.576 160.513 264.937C160.248 265.292 159.888 265.568 159.433 265.764C159.97 265.914 160.394 266.201 160.704 266.625C161.019 267.044 161.176 267.546 161.176 268.129C161.176 269.022 160.886 269.724 160.308 270.234C159.729 270.745 158.911 271 157.854 271H154.401ZM155.714 266.345V269.927H157.881C158.492 269.927 158.972 269.77 159.323 269.455C159.679 269.136 159.856 268.699 159.856 268.143C159.856 266.944 159.205 266.345 157.901 266.345H155.714ZM155.714 265.292H157.696C158.271 265.292 158.729 265.148 159.07 264.861C159.417 264.574 159.59 264.185 159.59 263.692C159.59 263.146 159.43 262.749 159.111 262.503C158.792 262.252 158.307 262.127 157.655 262.127H155.714V265.292Z" fill="#222222"/>
<path d="M29.4678 287.104V291H28.1553V281.047H31.8262C32.9154 281.047 33.7676 281.325 34.3828 281.881C35.0026 282.437 35.3125 283.173 35.3125 284.089C35.3125 285.055 35.0094 285.8 34.4033 286.324C33.8018 286.844 32.9382 287.104 31.8125 287.104H29.4678ZM29.4678 286.03H31.8262C32.528 286.03 33.0658 285.866 33.4395 285.538C33.8132 285.205 34 284.727 34 284.103C34 283.51 33.8132 283.036 33.4395 282.681C33.0658 282.325 32.5531 282.141 31.9014 282.127H29.4678V286.03ZM41.54 288.402H37.3701L36.4336 291H35.0801L38.8809 281.047H40.0293L43.8369 291H42.4902L41.54 288.402ZM37.7666 287.322H41.1504L39.4551 282.667L37.7666 287.322ZM48.8271 286.974H46.4893V291H45.1699V281.047H48.4648C49.5859 281.047 50.4473 281.302 51.0488 281.812C51.6549 282.323 51.958 283.066 51.958 284.041C51.958 284.661 51.7894 285.201 51.4521 285.661C51.1195 286.121 50.6546 286.465 50.0576 286.693L52.3955 290.918V291H50.9873L48.8271 286.974ZM46.4893 285.9H48.5059C49.1576 285.9 49.6748 285.732 50.0576 285.395C50.445 285.057 50.6387 284.606 50.6387 284.041C50.6387 283.426 50.4541 282.954 50.085 282.626C49.7204 282.298 49.1917 282.132 48.499 282.127H46.4893V285.9ZM59.2998 288.402H55.1299L54.1934 291H52.8398L56.6406 281.047H57.7891L61.5967 291H60.25L59.2998 288.402ZM55.5264 287.322H58.9102L57.2148 282.667L55.5264 287.322ZM77.2031 287.842C77.0801 288.895 76.6904 289.708 76.0342 290.282C75.3825 290.852 74.5143 291.137 73.4297 291.137C72.2539 291.137 71.3105 290.715 70.5996 289.872C69.8932 289.029 69.54 287.901 69.54 286.488V285.531C69.54 284.606 69.7041 283.793 70.0322 283.091C70.3649 282.389 70.8343 281.851 71.4404 281.478C72.0465 281.099 72.7484 280.91 73.5459 280.91C74.6032 280.91 75.4508 281.206 76.0889 281.799C76.7269 282.387 77.0983 283.202 77.2031 284.246H75.8838C75.7699 283.453 75.5215 282.879 75.1387 282.523C74.7604 282.168 74.2295 281.99 73.5459 281.99C72.7074 281.99 72.0488 282.3 71.5703 282.92C71.0964 283.54 70.8594 284.422 70.8594 285.565V286.529C70.8594 287.609 71.085 288.468 71.5361 289.106C71.9873 289.744 72.6185 290.063 73.4297 290.063C74.1589 290.063 74.7171 289.899 75.1045 289.571C75.4964 289.239 75.7562 288.662 75.8838 287.842H77.2031ZM80.3203 289.927H85.0371V291H79.001V281.047H80.3203V289.927ZM92.167 288.402H87.9971L87.0605 291H85.707L89.5078 281.047H90.6562L94.4639 291H93.1172L92.167 288.402ZM88.3936 287.322H91.7773L90.082 282.667L88.3936 287.322ZM99.4541 286.974H97.1162V291H95.7969V281.047H99.0918C100.213 281.047 101.074 281.302 101.676 281.812C102.282 282.323 102.585 283.066 102.585 284.041C102.585 284.661 102.416 285.201 102.079 285.661C101.746 286.121 101.282 286.465 100.685 286.693L103.022 290.918V291H101.614L99.4541 286.974ZM97.1162 285.9H99.1328C99.7845 285.9 100.302 285.732 100.685 285.395C101.072 285.057 101.266 284.606 101.266 284.041C101.266 283.426 101.081 282.954 100.712 282.626C100.347 282.298 99.8187 282.132 99.126 282.127H97.1162V285.9ZM112.087 286.345C112.087 287.32 111.923 288.172 111.595 288.901C111.267 289.626 110.802 290.18 110.2 290.562C109.599 290.945 108.897 291.137 108.095 291.137C107.311 291.137 106.616 290.945 106.01 290.562C105.404 290.175 104.932 289.626 104.595 288.915C104.262 288.2 104.091 287.372 104.082 286.434V285.716C104.082 284.759 104.248 283.913 104.581 283.18C104.914 282.446 105.383 281.885 105.989 281.498C106.6 281.106 107.297 280.91 108.081 280.91C108.879 280.91 109.58 281.104 110.187 281.491C110.797 281.874 111.267 282.432 111.595 283.166C111.923 283.895 112.087 284.745 112.087 285.716V286.345ZM110.781 285.702C110.781 284.522 110.544 283.617 110.07 282.988C109.596 282.355 108.933 282.038 108.081 282.038C107.252 282.038 106.598 282.355 106.119 282.988C105.645 283.617 105.401 284.492 105.388 285.613V286.345C105.388 287.489 105.627 288.389 106.105 289.045C106.589 289.697 107.252 290.022 108.095 290.022C108.942 290.022 109.599 289.715 110.063 289.1C110.528 288.48 110.768 287.593 110.781 286.44V285.702ZM120.823 289.257L123.667 281.047H125.103L121.411 291H120.249L116.564 281.047H117.993L120.823 289.257ZM127.851 291H126.538V281.047H127.851V291ZM130.257 291V281.047H133.066C133.932 281.047 134.698 281.238 135.363 281.621C136.029 282.004 136.541 282.549 136.901 283.255C137.266 283.961 137.451 284.772 137.455 285.688V286.324C137.455 287.263 137.273 288.086 136.908 288.792C136.548 289.498 136.031 290.041 135.356 290.419C134.687 290.797 133.905 290.991 133.012 291H130.257ZM131.569 282.127V289.927H132.95C133.962 289.927 134.748 289.612 135.309 288.983C135.874 288.354 136.156 287.459 136.156 286.297V285.716C136.156 284.586 135.89 283.708 135.356 283.084C134.828 282.455 134.076 282.136 133.101 282.127H131.569ZM145.07 286.399H140.757V289.927H145.768V291H139.444V281.047H145.699V282.127H140.757V285.326H145.07V286.399ZM155.058 286.345C155.058 287.32 154.894 288.172 154.565 288.901C154.237 289.626 153.772 290.18 153.171 290.562C152.569 290.945 151.868 291.137 151.065 291.137C150.282 291.137 149.587 290.945 148.98 290.562C148.374 290.175 147.903 289.626 147.565 288.915C147.233 288.2 147.062 287.372 147.053 286.434V285.716C147.053 284.759 147.219 283.913 147.552 283.18C147.884 282.446 148.354 281.885 148.96 281.498C149.571 281.106 150.268 280.91 151.052 280.91C151.849 280.91 152.551 281.104 153.157 281.491C153.768 281.874 154.237 282.432 154.565 283.166C154.894 283.895 155.058 284.745 155.058 285.716V286.345ZM153.752 285.702C153.752 284.522 153.515 283.617 153.041 282.988C152.567 282.355 151.904 282.038 151.052 282.038C150.222 282.038 149.568 282.355 149.09 282.988C148.616 283.617 148.372 284.492 148.358 285.613V286.345C148.358 287.489 148.598 288.389 149.076 289.045C149.559 289.697 150.222 290.022 151.065 290.022C151.913 290.022 152.569 289.715 153.034 289.1C153.499 288.48 153.738 287.593 153.752 286.44V285.702Z" fill="#222222"/>
<g filter="url(#filter2_d)">
<path d="M185.523 248.864H190.695L189.914 253.38H184.758L183.68 259.489H178.883L179.945 253.38H174.758L175.539 248.864H180.727L181.758 242.926H186.555L185.523 248.864Z" fill="#EF3829"/>
</g>
<path d="M207.648 248.014L208.988 240.932H211.032L208.824 250.885H206.76L205.14 244.227L203.52 250.885H201.455L199.247 240.932H201.291L202.638 248L204.278 240.932H206.015L207.648 248.014ZM220.247 250.885H218.196V246.619H214.197V250.885H212.146V240.932H214.197V244.965H218.196V240.932H220.247V250.885ZM227.787 248.834H224.191L223.508 250.885H221.327L225.032 240.932H226.933L230.658 250.885H228.478L227.787 248.834ZM224.745 247.173H227.233L225.982 243.448L224.745 247.173ZM238.26 242.593H235.211V250.885H233.16V242.593H230.152V240.932H238.26V242.593ZM244.487 248.274C244.487 247.886 244.351 247.59 244.077 247.385C243.804 247.175 243.312 246.957 242.601 246.729C241.89 246.496 241.327 246.268 240.912 246.045C239.782 245.434 239.217 244.612 239.217 243.577C239.217 243.04 239.367 242.561 239.668 242.142C239.973 241.718 240.409 241.388 240.974 241.151C241.543 240.914 242.181 240.795 242.888 240.795C243.599 240.795 244.232 240.925 244.788 241.185C245.344 241.44 245.775 241.802 246.08 242.272C246.39 242.741 246.545 243.274 246.545 243.871H244.494C244.494 243.416 244.351 243.062 244.063 242.812C243.776 242.557 243.373 242.429 242.854 242.429C242.352 242.429 241.963 242.536 241.685 242.75C241.407 242.96 241.268 243.238 241.268 243.584C241.268 243.908 241.429 244.179 241.753 244.398C242.081 244.616 242.562 244.822 243.195 245.013C244.362 245.364 245.212 245.799 245.745 246.319C246.278 246.838 246.545 247.485 246.545 248.26C246.545 249.121 246.219 249.798 245.567 250.29C244.916 250.778 244.038 251.022 242.936 251.022C242.17 251.022 241.473 250.883 240.844 250.605C240.215 250.322 239.734 249.937 239.401 249.449C239.073 248.962 238.909 248.397 238.909 247.754H240.967C240.967 248.852 241.623 249.402 242.936 249.402C243.423 249.402 243.804 249.304 244.077 249.108C244.351 248.907 244.487 248.629 244.487 248.274ZM253.559 248.834H249.963L249.279 250.885H247.099L250.804 240.932H252.704L256.43 250.885H254.249L253.559 248.834ZM250.517 247.173H253.005L251.754 243.448L250.517 247.173ZM259.41 247.378V250.885H257.359V240.932H261.242C261.99 240.932 262.646 241.069 263.211 241.342C263.781 241.615 264.218 242.005 264.523 242.511C264.829 243.012 264.981 243.584 264.981 244.227C264.981 245.202 264.646 245.972 263.977 246.537C263.311 247.098 262.388 247.378 261.208 247.378H259.41ZM259.41 245.717H261.242C261.785 245.717 262.197 245.589 262.479 245.334C262.767 245.079 262.91 244.714 262.91 244.24C262.91 243.753 262.767 243.359 262.479 243.058C262.192 242.757 261.796 242.602 261.29 242.593H259.41V245.717ZM268.447 247.378V250.885H266.396V240.932H270.279C271.027 240.932 271.683 241.069 272.248 241.342C272.818 241.615 273.255 242.005 273.561 242.511C273.866 243.012 274.019 243.584 274.019 244.227C274.019 245.202 273.684 245.972 273.014 246.537C272.348 247.098 271.425 247.378 270.245 247.378H268.447ZM268.447 245.717H270.279C270.822 245.717 271.234 245.589 271.517 245.334C271.804 245.079 271.947 244.714 271.947 244.24C271.947 243.753 271.804 243.359 271.517 243.058C271.229 242.757 270.833 242.602 270.327 242.593H268.447V245.717ZM203.581 261.241H201.947V264.885H199.896V254.932H203.595C204.771 254.932 205.677 255.194 206.315 255.718C206.953 256.242 207.272 256.983 207.272 257.94C207.272 258.619 207.124 259.186 206.828 259.642C206.536 260.093 206.092 260.453 205.495 260.722L207.648 264.789V264.885H205.447L203.581 261.241ZM201.947 259.58H203.602C204.117 259.58 204.515 259.45 204.798 259.191C205.08 258.926 205.222 258.564 205.222 258.104C205.222 257.634 205.087 257.265 204.818 256.996C204.554 256.727 204.146 256.593 203.595 256.593H201.947V259.58ZM217.014 260.134C217.014 261.114 216.84 261.973 216.494 262.711C216.148 263.449 215.651 264.019 215.004 264.42C214.361 264.821 213.623 265.022 212.789 265.022C211.964 265.022 211.228 264.823 210.581 264.427C209.934 264.031 209.433 263.465 209.077 262.732C208.722 261.993 208.542 261.146 208.537 260.189V259.697C208.537 258.717 208.713 257.855 209.063 257.113C209.419 256.365 209.918 255.793 210.561 255.397C211.208 254.996 211.946 254.795 212.775 254.795C213.605 254.795 214.341 254.996 214.983 255.397C215.631 255.793 216.13 256.365 216.48 257.113C216.836 257.855 217.014 258.714 217.014 259.69V260.134ZM214.936 259.683C214.936 258.639 214.749 257.846 214.375 257.304C214.001 256.762 213.468 256.49 212.775 256.49C212.087 256.49 211.556 256.759 211.183 257.297C210.809 257.83 210.62 258.614 210.615 259.649V260.134C210.615 261.15 210.802 261.939 211.176 262.499C211.549 263.06 212.087 263.34 212.789 263.34C213.477 263.34 214.006 263.071 214.375 262.533C214.744 261.991 214.931 261.203 214.936 260.168V259.683ZM223.973 262.834H220.377L219.693 264.885H217.513L221.218 254.932H223.118L226.844 264.885H224.663L223.973 262.834ZM220.931 261.173H223.419L222.168 257.448L220.931 261.173ZM230.453 254.932L233.01 262.151L235.553 254.932H238.246V264.885H236.188V262.164L236.394 257.468L233.707 264.885H232.299L229.619 257.475L229.824 262.164V264.885H227.773V254.932H230.453ZM242.218 264.885H240.167V254.932H242.218V264.885ZM252.219 264.885H250.168L246.176 258.336V264.885H244.125V254.932H246.176L250.175 261.494V254.932H252.219V264.885ZM261.885 263.627C261.516 264.069 260.994 264.413 260.319 264.659C259.645 264.901 258.897 265.022 258.077 265.022C257.216 265.022 256.459 264.835 255.808 264.461C255.16 264.083 254.659 263.536 254.304 262.821C253.953 262.105 253.773 261.264 253.764 260.298V259.621C253.764 258.628 253.93 257.769 254.263 257.044C254.6 256.315 255.083 255.759 255.712 255.376C256.345 254.989 257.086 254.795 257.934 254.795C259.114 254.795 260.037 255.078 260.702 255.643C261.368 256.203 261.762 257.021 261.885 258.097H259.889C259.798 257.527 259.595 257.11 259.28 256.846C258.97 256.582 258.542 256.449 257.995 256.449C257.298 256.449 256.767 256.712 256.402 257.236C256.038 257.76 255.853 258.539 255.849 259.573V260.209C255.849 261.253 256.047 262.041 256.443 262.574C256.84 263.108 257.421 263.374 258.187 263.374C258.957 263.374 259.506 263.21 259.834 262.882V261.166H257.968V259.656H261.885V263.627Z" fill="#222222"/>
<defs>
<filter id="filter0_d" x="139.75" y="124.541" width="17.9375" height="18.5625" filterUnits="userSpaceOnUse" color-interpolation-filters="sRGB">
<feFlood flood-opacity="0" result="BackgroundImageFix"/>
<feColorMatrix in="SourceAlpha" type="matrix" values="0 0 0 0 0 0 0 0 0 0 0 0 0 0 0 0 0 0 127 0"/>
<feOffset dx="2" dy="2"/>
<feColorMatrix type="matrix" values="0 0 0 0 0 0 0 0 0 0 0 0 0 0 0 0 0 0 0.15 0"/>
<feBlend mode="normal" in2="BackgroundImageFix" result="effect1_dropShadow"/>
<feBlend mode="normal" in="SourceGraphic" in2="effect1_dropShadow" result="shape"/>
</filter>
<filter id="filter1_d" x="91.3835" y="222.637" width="13.9531" height="14.4219" filterUnits="userSpaceOnUse" color-interpolation-filters="sRGB">
<feFlood flood-opacity="0" result="BackgroundImageFix"/>
<feColorMatrix in="SourceAlpha" type="matrix" values="0 0 0 0 0 0 0 0 0 0 0 0 0 0 0 0 0 0 127 0"/>
<feOffset dx="2" dy="2"/>
<feColorMatrix type="matrix" values="0 0 0 0 0 0 0 0 0 0 0 0 0 0 0 0 0 0 0.15 0"/>
<feBlend mode="normal" in2="BackgroundImageFix" result="effect1_dropShadow"/>
<feBlend mode="normal" in="SourceGraphic" in2="effect1_dropShadow" result="shape"/>
</filter>
<filter id="filter2_d" x="174.758" y="242.926" width="17.9375" height="18.5625" filterUnits="userSpaceOnUse" color-interpolation-filters="sRGB">
<feFlood flood-opacity="0" result="BackgroundImageFix"/>
<feColorMatrix in="SourceAlpha" type="matrix" values="0 0 0 0 0 0 0 0 0 0 0 0 0 0 0 0 0 0 127 0"/>
<feOffset dx="2" dy="2"/>
<feColorMatrix type="matrix" values="0 0 0 0 0 0 0 0 0 0 0 0 0 0 0 0 0 0 0.15 0"/>
<feBlend mode="normal" in2="BackgroundImageFix" result="effect1_dropShadow"/>
<feBlend mode="normal" in="SourceGraphic" in2="effect1_dropShadow" result="shape"/>
</filter>
<clipPath id="clip0">
<rect width="55.5789" height="32" fill="white" transform="translate(22.9922 214.885)"/>
</clipPath>
</defs>
</svg>
