<svg width="135" height="93" viewBox="0 0 135 93" fill="none" xmlns="http://www.w3.org/2000/svg">
<path d="M16.5 40.5H116.5V83C116.5 88.2467 112.247 92.5 107 92.5H26C20.7533 92.5 16.5 88.2467 16.5 83V40.5Z" fill="#FCAB10" fill-opacity="0.1" stroke="#FCAB10"/>
<path d="M61 51H29V83H61V51Z" fill="#FCAB10" fill-opacity="0.1"/>
<path fill-rule="evenodd" clip-rule="evenodd" d="M45 54.8125C37.9584 54.8125 32.5 59.9705 32.5 66.9375C32.5 70.5817 33.9935 73.7307 36.4257 75.9058C36.6299 76.0885 36.7531 76.3445 36.7615 76.6185L36.8296 78.842C36.8513 79.5512 37.5839 80.0128 38.2329 79.7262L40.714 78.631C40.9243 78.5382 41.16 78.521 41.3816 78.582C42.5218 78.8955 43.7352 79.0625 45 79.0625C52.0416 79.0625 57.5 73.9045 57.5 66.9375C57.5 59.9705 52.0416 54.8125 45 54.8125Z" fill="url(#paint0_radial)"/>
<path fill-rule="evenodd" clip-rule="evenodd" d="M37.4937 70.4835L41.1656 64.6579C41.7497 63.7312 43.0004 63.5004 43.8768 64.1577L46.7972 66.348C47.0652 66.549 47.4338 66.5479 47.7007 66.3454L51.6448 63.3521C52.1713 62.9526 52.8585 63.5826 52.5062 64.1416L48.8343 69.9672C48.2502 70.8939 46.9994 71.1247 46.1231 70.4674L43.2026 68.277C42.9347 68.0761 42.566 68.0771 42.2992 68.2796L38.355 71.273C37.8285 71.6725 37.1413 71.0425 37.4937 70.4835Z" fill="white"/>
<g clip-path="url(#clip0)">
<rect x="71" y="51" width="32" height="32.0645" rx="6" fill="#FCAB10" fill-opacity="0.1"/>
<path d="M73.4438 80.2497L75.3529 73.2819C74.1727 71.2366 73.5532 68.9162 73.5568 66.5548C73.5568 59.1355 79.5955 53.1039 87.0122 53.1039C88.7798 53.1039 90.5301 53.4521 92.163 54.1287C93.796 54.8053 95.2796 55.797 96.5292 57.0471C97.7788 58.2973 98.7698 59.7813 99.4457 61.4146C100.122 63.0478 100.469 64.7982 100.468 66.5658C100.465 73.9852 94.4284 80.0168 87.0122 80.0168H87.0071C84.7605 80.0167 82.5497 79.4538 80.5768 78.3793L73.4438 80.2497ZM80.9071 75.9445L81.3161 76.1864C83.0395 77.2068 85.0055 77.7452 87.0084 77.7452H87.0122C93.1768 77.7452 98.1935 72.729 98.1961 66.5645C98.1968 65.0958 97.9081 63.6413 97.3467 62.2842C96.7852 60.927 95.9619 59.6938 94.9238 58.6548C93.8857 57.6158 92.6531 56.7916 91.2964 56.229C89.9397 55.6664 88.4855 55.3766 87.0167 55.3761C80.8477 55.3761 75.8309 60.391 75.8284 66.5555C75.8255 68.6605 76.4183 70.7233 77.538 72.5058L77.8045 72.9284L76.6774 77.0542L80.9071 75.9445Z" fill="white"/>
<path d="M73.9116 79.7799L75.7548 73.0508C74.616 71.0771 74.0178 68.838 74.0207 66.5592C74.0207 59.3979 79.8503 53.5741 87.0103 53.5741C88.7166 53.5742 90.4061 53.9104 91.9824 54.5635C93.5586 55.2167 94.9908 56.1739 96.1971 57.3807C97.4033 58.5874 98.36 60.02 99.0125 61.5965C99.6651 63.173 100.001 64.8627 100 66.5689C100 73.7302 94.1697 79.5547 87.011 79.5547H87.0052C84.8367 79.5545 82.7028 79.0113 80.7981 77.9747L73.9116 79.7799Z" fill="url(#paint1_linear)"/>
<g filter="url(#filter0_d)">
<path d="M73.4438 80.2497L75.3529 73.2819C74.1727 71.2366 73.5532 68.9162 73.5568 66.5548C73.5568 59.1355 79.5955 53.1039 87.0122 53.1039C88.7798 53.1039 90.5301 53.4521 92.163 54.1287C93.796 54.8053 95.2796 55.797 96.5292 57.0471C97.7788 58.2973 98.7698 59.7813 99.4457 61.4146C100.122 63.0478 100.469 64.7982 100.468 66.5658C100.465 73.9852 94.4284 80.0168 87.0122 80.0168H87.0071C84.7605 80.0167 82.5497 79.4538 80.5768 78.3793L73.4438 80.2497ZM80.9071 75.9445L81.3161 76.1864C83.0395 77.2068 85.0055 77.7452 87.0084 77.7452H87.0122C93.1768 77.7452 98.1935 72.729 98.1961 66.5645C98.1968 65.0958 97.9081 63.6413 97.3467 62.2842C96.7852 60.927 95.9619 59.6938 94.9238 58.6548C93.8857 57.6158 92.6531 56.7916 91.2964 56.229C89.9397 55.6664 88.4855 55.3766 87.0167 55.3761C80.8477 55.3761 75.8309 60.391 75.8284 66.5555C75.8255 68.6605 76.4183 70.7233 77.538 72.5058L77.8045 72.9284L76.6774 77.0542L80.9071 75.9445Z" fill="url(#paint2_linear)"/>
</g>
<path fill-rule="evenodd" clip-rule="evenodd" d="M83.6496 60.9312C83.3974 60.3712 83.1335 60.3602 82.8929 60.3505C82.6993 60.3415 82.4729 60.3422 82.2477 60.3422C82.0774 60.3467 81.9099 60.3864 81.7557 60.4588C81.6015 60.5312 81.4639 60.6347 81.3516 60.7628C81.0432 61.0996 80.1748 61.9125 80.1748 63.5667C80.1748 65.2209 81.3793 66.8196 81.5477 67.0441C81.7161 67.2686 83.8735 70.7712 87.2897 72.1189C90.1284 73.2389 90.709 73.0163 91.3238 72.9576C91.9387 72.8989 93.3129 72.1441 93.5935 71.3589C93.8742 70.5738 93.8735 69.9015 93.7871 69.7608C93.7006 69.6202 93.4787 69.5363 93.1419 69.3686C92.8051 69.2008 91.1529 68.3867 90.8445 68.275C90.5361 68.1634 90.3122 68.1067 90.0877 68.4434C89.8632 68.7802 89.22 69.5363 89.0232 69.7608C88.8264 69.9854 88.6309 70.0138 88.2948 69.8454C87.9587 69.677 86.8755 69.3221 85.5916 68.177C84.5916 67.2854 83.9142 66.1854 83.7206 65.8486C83.5271 65.5118 83.7 65.3325 83.8684 65.1628C84.0193 65.0118 84.2045 64.7699 84.3729 64.5738C84.5413 64.3776 84.5967 64.2376 84.709 64.0131C84.8213 63.7886 84.7651 63.5925 84.6806 63.4241C84.5961 63.2557 83.9484 61.5957 83.6496 60.9312Z" fill="white"/>
</g>
<g filter="url(#filter1_d)">
<path d="M127 31C127 36.5229 122.523 41 117 41L18 41C12.4771 41 8 36.5228 8 31L8 19C8 13.4771 12.4772 9 18 9L117 9.00003C122.523 9.00003 127 13.4772 127 19L127 31Z" fill="#FCAB10"/>
</g>
<path d="M44.4467 30.2765C43.9181 30.8547 43.1448 31.3205 42.1268 31.6738C41.1087 32.0271 39.9928 32.2038 38.779 32.2038C36.9126 32.2038 35.4215 31.6417 34.3055 30.5174C33.1896 29.3932 32.5925 27.8289 32.5142 25.8246L32.5044 24.6104C32.5044 23.2292 32.7524 22.0247 33.2483 20.9968C33.7443 19.9625 34.4524 19.1691 35.3725 18.6167C36.2992 18.0578 37.3694 17.7783 38.5832 17.7783C40.3583 17.7783 41.7352 18.1798 42.7141 18.9828C43.6995 19.7794 44.2738 20.9711 44.4369 22.5579H41.1283C41.0109 21.7741 40.7563 21.2152 40.3648 20.8812C39.9732 20.5471 39.4185 20.3801 38.7007 20.3801C37.8393 20.3801 37.1736 20.7398 36.7038 21.4594C36.2339 22.1789 35.9957 23.2067 35.9892 24.543V25.3909C35.9892 26.7914 36.2307 27.845 36.7136 28.5516C37.203 29.2519 37.9698 29.602 39.0139 29.602C39.908 29.602 40.5736 29.4061 41.0109 29.0142V26.8364H38.6224V24.514H44.4467V30.2765Z" fill="white"/>
<path d="M51.7394 27.058H49.8795V32.0111H46.4436V17.9807H52.0526C53.7428 17.9807 55.0643 18.3501 56.0171 19.0888C56.9699 19.8276 57.4462 20.8715 57.4462 22.2206C57.4462 23.1971 57.2439 24.0065 56.8393 24.649C56.4413 25.2914 55.8148 25.8117 54.9599 26.21L57.9357 31.8665V32.0111H54.2551L51.7394 27.058ZM49.8795 24.4466H52.0526C52.7052 24.4466 53.1946 24.2796 53.5209 23.9455C53.8538 23.605 54.0202 23.1329 54.0202 22.529C54.0202 21.9251 53.8538 21.4529 53.5209 21.1125C53.1881 20.7655 52.6987 20.5921 52.0526 20.5921H49.8795V24.4466Z" fill="white"/>
<path d="M67.6168 29.39H62.9084L62.0861 32.0111H58.4153L63.6425 17.9807H66.8728L72.1392 32.0111H68.4488L67.6168 29.39ZM63.7306 26.7786H66.7945L65.2577 21.9123L63.7306 26.7786Z" fill="white"/>
<path d="M83.2006 20.5921H78.9229V32.0111H75.487V20.5921H71.2876V17.9807H83.2006V20.5921Z" fill="white"/>
<path d="M88.3201 32.0111H84.894V17.9807H88.3201V32.0111Z" fill="white"/>
<path d="M98.0599 28.2818C98.0599 27.7872 97.8805 27.4017 97.5216 27.1255C97.1692 26.8492 96.5459 26.5634 95.6519 26.2678C94.7579 25.9723 94.027 25.6865 93.4592 25.4102C91.6124 24.5173 90.689 23.2902 90.689 21.7292C90.689 20.9518 90.9174 20.2677 91.3742 19.6766C91.8375 19.0792 92.4901 18.6167 93.332 18.289C94.1738 17.955 95.12 17.7879 96.1707 17.7879C97.1953 17.7879 98.1122 17.9678 98.9214 18.3276C99.7371 18.6873 100.37 19.2013 100.82 19.8694C101.271 20.5311 101.496 21.2891 101.496 22.1435H98.0697C98.0697 21.5718 97.8903 21.1285 97.5313 20.8137C97.179 20.4989 96.6993 20.3415 96.0924 20.3415C95.479 20.3415 94.9928 20.4765 94.6339 20.7463C94.2815 21.0097 94.1053 21.3469 94.1053 21.7581C94.1053 22.1178 94.301 22.4455 94.6926 22.741C95.0842 23.0301 95.7726 23.332 96.758 23.6468C97.7434 23.9551 98.5526 24.2892 99.1857 24.649C100.726 25.5226 101.496 26.7272 101.496 28.2626C101.496 29.4896 101.026 30.4532 100.086 31.1534C99.1465 31.8537 97.8576 32.2038 96.2197 32.2038C95.0646 32.2038 94.0172 32.0014 93.0774 31.5967C92.1442 31.1856 91.4395 30.6266 90.9631 29.92C90.4932 29.2069 90.2583 28.3878 90.2583 27.4627H93.7039C93.7039 28.2144 93.8997 28.7701 94.2913 29.1298C94.6893 29.4831 95.3321 29.6598 96.2197 29.6598C96.7874 29.6598 97.2344 29.541 97.5607 29.3033C97.8935 29.0592 98.0599 28.7187 98.0599 28.2818Z" fill="white"/>
<defs>
<filter id="filter0_d" x="71.4438" y="52.1039" width="31.0245" height="31.1458" filterUnits="userSpaceOnUse" color-interpolation-filters="sRGB">
<feFlood flood-opacity="0" result="BackgroundImageFix"/>
<feColorMatrix in="SourceAlpha" type="matrix" values="0 0 0 0 0 0 0 0 0 0 0 0 0 0 0 0 0 0 127 0"/>
<feOffset dy="1"/>
<feGaussianBlur stdDeviation="1"/>
<feColorMatrix type="matrix" values="0 0 0 0 0 0 0 0 0 0 0 0 0 0 0 0 0 0 0.1 0"/>
<feBlend mode="normal" in2="BackgroundImageFix" result="effect1_dropShadow"/>
<feBlend mode="normal" in="SourceGraphic" in2="effect1_dropShadow" result="shape"/>
</filter>
<filter id="filter1_d" x="0" y="5" width="135" height="48" filterUnits="userSpaceOnUse" color-interpolation-filters="sRGB">
<feFlood flood-opacity="0" result="BackgroundImageFix"/>
<feColorMatrix in="SourceAlpha" type="matrix" values="0 0 0 0 0 0 0 0 0 0 0 0 0 0 0 0 0 0 127 0"/>
<feOffset dy="4"/>
<feGaussianBlur stdDeviation="4"/>
<feColorMatrix type="matrix" values="0 0 0 0 0.988235 0 0 0 0 0.670588 0 0 0 0 0.0627451 0 0 0 0.26 0"/>
<feBlend mode="normal" in2="BackgroundImageFix" result="effect1_dropShadow"/>
<feBlend mode="normal" in="SourceGraphic" in2="effect1_dropShadow" result="shape"/>
</filter>
<radialGradient id="paint0_radial" cx="0" cy="0" r="1" gradientUnits="userSpaceOnUse" gradientTransform="translate(37.3119 79.6788) scale(27.2399)">
<stop stop-color="#0099FF"/>
<stop offset="0.609754" stop-color="#A033FF"/>
<stop offset="0.934823" stop-color="#FF5280"/>
<stop offset="1" stop-color="#FF7061"/>
</radialGradient>
<linearGradient id="paint1_linear" x1="86.9561" y1="79.7799" x2="86.9561" y2="53.5741" gradientUnits="userSpaceOnUse">
<stop stop-color="#20B038"/>
<stop offset="1" stop-color="#60D66A"/>
</linearGradient>
<linearGradient id="paint2_linear" x1="86.9561" y1="80.2497" x2="86.9561" y2="53.1039" gradientUnits="userSpaceOnUse">
<stop stop-color="#F9F9F9"/>
<stop offset="1" stop-color="white"/>
</linearGradient>
<clipPath id="clip0">
<rect x="71" y="51" width="32" height="32.0645" rx="6" fill="white"/>
</clipPath>
</defs>
</svg>
