<?xml version="1.0" encoding="utf-8"?>
<!-- Generator: Adobe Illustrator 23.0.0, SVG Export Plug-In . SVG Version: 6.00 Build 0)  -->
<svg version="1.1" id="icon" xmlns="http://www.w3.org/2000/svg" xmlns:xlink="http://www.w3.org/1999/xlink" x="0px" y="0px"
	 viewBox="0 0 34.8 44.1" style="enable-background:new 0 0 34.8 44.1;" xml:space="preserve">
<style type="text/css">
	.st0{fill:#1097AE;}
	.st1{fill:none;}
	.st2{fill:#002222;}
</style>
<path id="Forma_2" class="st0" d="M8.4,9.6H24c0.7,0,1.2,0.5,1.2,1.2l0,0v27.1c0,0.7-0.5,1.2-1.2,1.2l0,0H8.4
	c-0.7,0-1.2-0.5-1.2-1.2l0,0V10.8C7.2,10.1,7.7,9.6,8.4,9.6z"/>
<g>
	<path class="st1" d="M21.7,8.2H6c-0.2,0-0.3,0.1-0.3,0.3v27.2C5.7,35.9,5.8,36,6,36h15.7c0.2,0,0.3-0.1,0.3-0.3v-1.5h-5.2V12.5H22
		v-4C22,8.3,21.9,8.2,21.7,8.2z"/>
	<path class="st1" d="M25,1.7H2.5C2,1.7,1.6,2.1,1.6,2.6v38.9c0,0.5,0.4,0.9,0.9,0.9H25c0.5,0,0.9-0.4,0.9-0.9v-7.3h-2.2v1.4
		c0,1.1-0.9,2-2,2H6c-1.1,0-2-0.9-2-2V8.5c0-1.1,0.9-2,2-2h15.6c1.1,0,2,0.9,2.1,2v4h2.2v-10C25.9,2.1,25.5,1.7,25,1.7z M11.8,39.2
		h4.1c0.4,0.1,0.8,0.4,0.9,0.9c0,0.5-0.4,0.9-0.9,0.9h-4.1c-0.5,0-0.9-0.4-0.9-0.9S11.3,39.2,11.8,39.2z M14.6,5.3h-1.7
		c-0.5,0-0.9-0.4-0.9-0.9s0.4-0.9,0.9-0.9h1.7c0.5,0,0.9,0.4,0.9,0.9S15.1,5.3,14.6,5.3z"/>
	<rect x="25.9" y="12.5" class="st1" width="1.6" height="21.7"/>
	<rect x="22" y="12.5" class="st1" width="1.7" height="21.7"/>
	<path class="st2" d="M22,35.7c0,0.2-0.1,0.3-0.3,0.3H6c-0.2,0-0.3-0.1-0.3-0.3V8.5c0-0.2,0.1-0.3,0.3-0.3h15.7
		c0.2,0,0.3,0.1,0.3,0.3v4h1.7v-4c-0.1-1.1-1-2-2.1-2H6c-1.1,0-2,0.9-2,2v27.1c0,1.1,0.9,2,2,2h15.7c1.1,0,2-0.9,2-2v-1.4H22V35.7z"
		/>
	<path class="st2" d="M11.8,41h4.1c0.5,0,0.9-0.4,0.9-0.9c-0.1-0.5-0.5-0.8-0.9-0.9h-4.1c-0.5,0-0.9,0.4-0.9,0.9S11.3,41,11.8,41z"
		/>
	<path class="st2" d="M25.9,41.5c0,0.5-0.4,0.9-0.9,0.9H2.5c-0.5,0-0.9-0.4-0.9-0.9V2.6c0-0.5,0.4-0.9,0.9-0.9H25
		c0.5,0,0.9,0.4,0.9,0.8v10h1.6V2.6c0.1-1.4-1-2.5-2.5-2.6H2.5C1.1,0,0,1.2,0,2.6v38.9c0,1.4,1.1,2.5,2.5,2.6H25
		c1.4,0,2.5-1.1,2.5-2.6v-7.3h-1.6V41.5z"/>
	<path class="st2" d="M14.6,3.5h-1.7c-0.5,0-0.9,0.4-0.9,0.9s0.4,0.9,0.9,0.9h1.7c0.5,0,0.9-0.4,0.9-0.9S15.1,3.5,14.6,3.5z"/>
</g>
<g>
	<path class="st2" d="M34.3,13.8c-0.3-0.1-0.7-0.1-0.9,0.2l-1.8,1.8L29.7,14c-0.2-0.2-0.4-0.3-0.6-0.3c-0.2,0-0.4,0.1-0.6,0.3
		l-1.8,1.8L24.8,14c-0.2-0.2-0.4-0.3-0.6-0.3c-0.2,0-0.4,0.1-0.6,0.3l-1.8,1.8L20,14c-0.2-0.2-0.6-0.3-0.9-0.2
		c-0.3,0.1-0.5,0.4-0.5,0.8v17.2c0,0.5,0.4,0.9,0.9,0.9H34c0.5,0,0.9-0.4,0.9-0.9V14.6C34.8,14.2,34.6,13.9,34.3,13.8L34.3,13.8z
		 M33.1,30.9H20.2V16.6l1,1c0.2,0.2,0.4,0.3,0.6,0.3c0.2,0,0.4-0.1,0.6-0.3l1.8-1.8l1.8,1.8c0.3,0.3,0.9,0.3,1.2,0l1.8-1.8l1.8,1.8
		c0.2,0.2,0.4,0.3,0.6,0.3c0.2,0,0.4-0.1,0.6-0.3l1-1V30.9z M33.1,30.9"/>
	<path class="st2" d="M30.5,26.9h-7.7c-0.5,0-0.9,0.4-0.9,0.9c0,0.5,0.4,0.9,0.9,0.9h7.7c0.5,0,0.9-0.4,0.9-0.9
		C31.4,27.3,31,26.9,30.5,26.9L30.5,26.9z M30.5,26.9"/>
	<path class="st2" d="M22.8,25.2h4.3c0.5,0,0.9-0.4,0.9-0.9c0-0.5-0.4-0.9-0.9-0.9h-4.3c-0.5,0-0.9,0.4-0.9,0.9
		C21.9,24.8,22.3,25.2,22.8,25.2L22.8,25.2z M22.8,25.2"/>
	<path class="st2" d="M22.8,21.7h4.3c0.5,0,0.9-0.4,0.9-0.9c0-0.5-0.4-0.9-0.9-0.9h-4.3c-0.5,0-0.9,0.4-0.9,0.9
		C21.9,21.4,22.3,21.7,22.8,21.7L22.8,21.7z M22.8,21.7"/>
</g>
</svg>
