<?xml version="1.0" encoding="utf-8"?>
<!-- Generator: Adobe Illustrator 21.1.0, SVG Export Plug-In . SVG Version: 6.00 Build 0)  -->
<svg version="1.1" id="icon" xmlns="http://www.w3.org/2000/svg" xmlns:xlink="http://www.w3.org/1999/xlink" x="0px" y="0px"
	 viewBox="0 0 27.5 44.1" style="enable-background:new 0 0 27.5 44.1;" xml:space="preserve">
<style type="text/css">
	.st0{fill:#1097AE;}
	.st1{fill:#002222;}
</style>
<path id="Forma_2" class="st0" d="M8.4,9.6H24c0.7,0,1.2,0.5,1.2,1.2c0,0,0,0,0,0v27.1c0,0.7-0.5,1.2-1.2,1.2c0,0,0,0,0,0H8.4
	c-0.7,0-1.2-0.5-1.2-1.2c0,0,0,0,0,0V10.8C7.2,10.1,7.7,9.6,8.4,9.6z"/>
<path id="Forma_1" class="st1" d="M11.4,26.8c-0.1-0.1-0.3-0.1-0.4-0.2l-0.2-0.1l0-0.2L11,25l0-0.4l0.4,0.2c0.1,0,0.1,0.1,0.2,0.1
	c0.1,0,0.1,0.1,0.2,0.1l0.4,0.2c0.1,0.1,0.3,0.1,0.4,0.1c0.1,0,0.2,0.1,0.4,0.1s0.2,0.1,0.4,0.1h0.5c0.1,0,0.2-0.1,0.3-0.1l0,0
	c0.1-0.1,0.2-0.1,0.3-0.1l0,0c0.1,0,0.2-0.1,0.2-0.2l0,0c0.1-0.1,0.1-0.1,0.2-0.2l0,0c0.1-0.1,0.1-0.2,0.1-0.3c0-0.1,0-0.2,0-0.3
	l0,0c0-0.1,0-0.2,0-0.3l0,0c0-0.1-0.1-0.2-0.1-0.2c0-0.1-0.1-0.2-0.2-0.2c-0.1-0.1-0.2-0.1-0.2-0.2c-0.1-0.1-0.2-0.1-0.3-0.1
	c-0.1-0.1-0.2-0.1-0.3-0.1l0,0c-0.2-0.1-0.4-0.1-0.6-0.2l0,0c-0.2-0.1-0.4-0.2-0.6-0.3s-0.3-0.2-0.5-0.3c-0.2-0.1-0.3-0.2-0.4-0.3
	l0,0c-0.1-0.1-0.3-0.2-0.4-0.4l0,0c-0.1-0.2-0.2-0.3-0.3-0.4l0,0c-0.1-0.2-0.1-0.3-0.2-0.5c0-0.2-0.1-0.4,0-0.5l0,0
	c0-0.4,0.1-0.9,0.2-1.3l0,0c0.1-0.2,0.2-0.4,0.3-0.5c0.1-0.2,0.3-0.3,0.4-0.5l0,0c0.2-0.1,0.3-0.3,0.5-0.4l0,0
	c0.2-0.1,0.4-0.2,0.6-0.2l0.1-0.1v-1.4h1.6V17h0.1c0.1,0,0.2,0.1,0.3,0.1c0.1,0.1,0.2,0.1,0.3,0.1c0.1,0,0.2,0,0.2,0.1l0,0
	c0.1,0,0.2,0,0.2,0.1l0.2,0.1l0,0.2l-0.1,1.1l0,0.4L15.5,19c-0.1,0-0.2-0.1-0.2-0.1l0,0c0,0-0.1,0-0.2,0l0,0c-0.1,0-0.3-0.1-0.4-0.1
	c-0.1,0-0.2-0.1-0.3-0.1h-0.5c-0.1,0-0.2,0.1-0.3,0.1l0,0c-0.1,0.1-0.2,0.1-0.3,0.1s-0.1,0.2-0.2,0.2c0,0.1-0.1,0.2-0.1,0.2l0,0
	c0,0.1,0,0.2-0.1,0.3V20c0,0.1,0,0.2,0.1,0.3c0,0.1,0.1,0.2,0.1,0.2l0,0c0,0.1,0.1,0.1,0.2,0.2l0,0c0.1,0.1,0.1,0.1,0.2,0.1l0,0
	l0.3,0.2c0.1,0.1,0.2,0.1,0.3,0.1l0,0c0.2,0.1,0.4,0.1,0.6,0.2c0.2,0.1,0.4,0.2,0.5,0.3s0.3,0.2,0.5,0.3s0.3,0.2,0.4,0.3
	c0.1,0.1,0.3,0.2,0.3,0.4l0,0c0.1,0.1,0.2,0.3,0.3,0.4c0.1,0.2,0.2,0.3,0.2,0.5l0,0c0,0.2,0.1,0.4,0,0.5l0,0c0,0.2,0,0.4,0,0.7l0,0
	c0,0.2-0.1,0.4-0.2,0.6c-0.1,0.2-0.2,0.4-0.3,0.5c-0.1,0.2-0.3,0.3-0.4,0.5l0,0c-0.2,0.1-0.3,0.3-0.5,0.4c-0.2,0.1-0.4,0.2-0.6,0.2
	l-0.1,0.1v1.4H13v-1.3h-0.1c-0.2,0-0.4,0-0.5-0.1C12.1,27,12,27,11.8,26.9l0,0C11.7,26.9,11.5,26.9,11.4,26.8 M25,0H2.5
	C1.1,0,0,1.2,0,2.6v38.9c0,1.4,1.1,2.5,2.5,2.6H25c1.4,0,2.5-1.1,2.5-2.6V2.6C27.6,1.2,26.5,0.1,25,0C25.1,0,25.1,0,25,0L25,0z
	 M25.9,41.5c0,0.5-0.4,0.9-0.9,0.9c0,0,0,0,0,0H2.5c-0.5,0-0.9-0.4-0.9-0.9c0,0,0,0,0,0V2.6c0-0.5,0.4-0.9,0.9-0.9c0,0,0,0,0,0H25
	c0.5,0,0.9,0.4,0.9,0.8c0,0,0,0,0,0L25.9,41.5L25.9,41.5L25.9,41.5z M21.6,6.5H6c-1.1,0-2,0.9-2,2v27.1c0,1.1,0.9,2,2,2h15.7
	c1.1,0,2-0.9,2-2V8.5C23.6,7.4,22.7,6.5,21.6,6.5L21.6,6.5z M22,35.7c0,0.2-0.1,0.3-0.3,0.3c0,0,0,0,0,0H6c-0.2,0-0.3-0.1-0.3-0.3
	c0,0,0,0,0,0V8.5c0-0.2,0.1-0.3,0.3-0.3c0,0,0,0,0,0h15.7c0.2,0,0.3,0.1,0.3,0.3c0,0,0,0,0,0L22,35.7L22,35.7z M15.9,39.2h-4.1
	c-0.5,0-0.9,0.4-0.9,0.9c0,0.5,0.4,0.9,0.9,0.9c0,0,0,0,0,0h4.1c0.5,0,0.9-0.4,0.9-0.9C16.7,39.6,16.3,39.3,15.9,39.2L15.9,39.2z
	 M12.9,5.3h1.7c0.5,0,0.9-0.4,0.9-0.9c0-0.5-0.4-0.9-0.9-0.9c0,0,0,0,0,0h-1.7c-0.5,0-0.9,0.4-0.9,0.9S12.4,5.3,12.9,5.3L12.9,5.3z"
	/>
</svg>
