<?xml version="1.0" encoding="UTF-8"?>
<svg width="22px" height="22px" viewBox="0 0 22 22" version="1.1" xmlns="http://www.w3.org/2000/svg" xmlns:xlink="http://www.w3.org/1999/xlink">
    <!-- Generator: sketchtool 55.1 (78136) - https://sketchapp.com -->
    <title>87FBB7FF-A325-4313-8E18-16C8159D4E09</title>
    <desc>Created with sketchtool.</desc>
    <g id="Page-1" stroke="none" stroke-width="1" fill="none" fill-rule="evenodd">
        <g id="Pago-de-Deuda-" transform="translate(-1070.000000, -14.000000)" fill="#FFFFFF" stroke="#FFFFFF">
            <path d="M1086,22.5 C1085.31,22.5 1084.75,23.06 1084.75,23.75 C1084.75,24.44 1085.31,25 1086,25 C1086.69,25 1087.25,24.44 1087.25,23.75 C1087.25,23.06 1086.69,22.5 1086,22.5 L1086,22.5 Z M1081,31.25 C1080.27,31.25 1079.565,31.165 1078.8875,31.020625 L1075.945,32.789375 L1075.98438,29.89 C1073.72875,28.53375 1072.25,26.29125 1072.25,23.75 C1072.25,19.608125 1076.1675,16.25 1081,16.25 C1085.8325,16.25 1089.75,19.608125 1089.75,23.75 C1089.75,27.8925 1085.8325,31.25 1081,31.25 L1081,31.25 Z M1081,15 C1075.4775,15 1071,18.918125 1071,23.75 C1071,26.511875 1072.46563,28.97125 1074.75,30.574375 L1074.75,35 L1079.13063,32.341875 C1079.73688,32.441875 1080.36063,32.5 1081,32.5 C1086.5225,32.5 1091,28.5825 1091,23.75 C1091,18.918125 1086.5225,15 1081,15 L1081,15 Z M1076,22.5 C1075.31,22.5 1074.75,23.06 1074.75,23.75 C1074.75,24.44 1075.31,25 1076,25 C1076.69,25 1077.25,24.44 1077.25,23.75 C1077.25,23.06 1076.69,22.5 1076,22.5 L1076,22.5 Z M1081,22.5 C1080.31,22.5 1079.75,23.06 1079.75,23.75 C1079.75,24.44 1080.31,25 1081,25 C1081.69,25 1082.25,24.44 1082.25,23.75 C1082.25,23.06 1081.69,22.5 1081,22.5 L1081,22.5 Z" id="Fill-190" transform="translate(1081.000000, 25.000000) scale(-1, 1) translate(-1081.000000, -25.000000) "></path>
        </g>
    </g>
</svg>