<?xml version="1.0" encoding="UTF-8"?>
<svg width="68px" height="68px" viewBox="0 0 68 68" version="1.1" xmlns="http://www.w3.org/2000/svg" xmlns:xlink="http://www.w3.org/1999/xlink">
    <!-- Generator: Sketch 54.1 (76490) - https://sketchapp.com -->
    <title>Icon/proteccion/soy cliente</title>
    <desc>Created with Sketch.</desc>
    <defs>
        <ellipse id="path-1" cx="28.6290235" cy="28.0451977" rx="28.6290235" ry="28.0451977"></ellipse>
        <polygon id="path-3" points="29.2942273 24.9172942 29.2942273 0.171859857 0 0.171859857 0 24.9172942 0 49.6627286 29.2942273 49.6627286"></polygon>
        <polygon id="path-5" points="0.267900679 2.9468413 5.1604155 2.9468413 5.1604155 0.310773883 0.267900679 0.310773883"></polygon>
    </defs>
    <g id="Page-1" stroke="none" stroke-width="1" fill="none" fill-rule="evenodd">
        <g id="3.CE_CarritoCompras_modal" transform="translate(-686.000000, -397.000000)">
            <g id="Icon/proteccion/soy-cliente" transform="translate(686.000000, 397.000000)">
                <g id="Icon/proteccion/personas" fill="#BBBEC1">
                    <g id="Group" fill-rule="nonzero">
                        <path d="M58.7444444,14.3555556 C58.3666667,13.7888889 57.8,13.2222222 57.2333333,12.6555556 C45.3333333,-0.377777778 25.1222222,-1.32222222 12.2777778,10.5777778 L10.7666667,9.06666667 C24.5555556,-3.58888889 46.0888889,-2.64444444 58.9333333,11.3333333 C59.5,11.9 60.0666667,12.4666667 60.4444444,13.2222222 L58.7444444,14.3555556 Z" id="Path"></path>
                        <path d="M24.1777778,66.4888889 C18.5111111,64.6 13.4111111,61.3888889 9.25555556,57.0444444 C0.377777778,47.4111111 -2.26666667,33.8111111 2.45555556,21.5333333 L4.34444444,22.2888889 C8.04911693e-16,33.8111111 2.45555556,46.4666667 10.7666667,55.5333333 C14.5444444,59.6888889 19.4555556,62.7111111 24.7444444,64.4111111 L24.1777778,66.4888889 Z" id="Path"></path>
                        <path d="M39.2888889,67.8111111 L38.9111111,65.7333333 C45.1444444,64.7888889 51,62.1444444 55.7222222,57.8 C64.0333333,50.2444444 67.6222222,38.5333333 64.9777778,27.3888889 L67.0555556,27.0111111 C69.7,38.9111111 65.9222222,51.1888889 57.0444444,59.5 C52.1333333,63.8444444 46.0888889,66.8666667 39.2888889,67.8111111 Z" id="Path"></path>
                    </g>
                </g>
                <g id="ico-mensaje" transform="translate(3.777778, 5.666667)">
                    <g id="Registro-icon" transform="translate(1.888889, 0.000000)">
                        <g id="Page-1-Copy-8">
                            <g id="Mask" style="mix-blend-mode: multiply;" fill="#EBEBEB" opacity="0">
                                <ellipse id="path-1" cx="28.6290235" cy="28.0451977" rx="28.6290235" ry="28.0451977"></ellipse>
                            </g>
                            <g id="Page-1-Clipped">
                                <mask id="mask-2" fill="white">
                                    <use xlink:href="#path-1"></use>
                                </mask>
                                <g id="path-1"></g>
                                <g id="Page-1" mask="url(#mask-2)">
                                    <g transform="translate(14.224586, 9.348399)" id="Group">
                                        <g transform="translate(0.089926, 0.549906)">
                                            <rect id="Rectangle-2" fill="#F4F4F4" x="1.68406021" y="7.42372881" width="26.1029332" height="32.9943502"></rect>
                                            <polygon id="Fill-1" fill="#EF3829" points="1.37308317 49.0044335 28.425501 49.0044335 28.425501 40.5610829 1.37308317 40.5610829"></polygon>
                                            <polygon id="Fill-2" fill="#EF3829" points="1.2873492 7.7149393 28.339767 7.7149393 28.339767 1.23196726 1.2873492 1.23196726"></polygon>
                                            <g id="Group-10" transform="translate(0.000000, 0.481796)">
                                                <g id="Group-5">
                                                    <g id="Fill-3-Clipped">
                                                        <mask id="mask-4" fill="white">
                                                            <use xlink:href="#path-3"></use>
                                                        </mask>
                                                        <g id="path-3"></g>
                                                        <path d="M2.34428835,2.13204242 C2.16277345,2.13204242 2.00939001,2.28168466 2.00939001,2.45877219 L2.00939001,47.3756203 C2.00939001,47.5533612 2.16277345,47.70235 2.34428835,47.70235 L26.9499389,47.70235 C27.1314538,47.70235 27.2848373,47.5533612 27.2848373,47.3756203 L27.2848373,2.45877219 C27.2848373,2.28168466 27.1314538,2.13204242 26.9499389,2.13204242 L2.34428835,2.13204242 Z M26.9499389,49.6627286 L2.34428835,49.6627286 C1.05158077,49.6627286 0,48.6367971 0,47.3756203 L0,2.45877219 C0,1.19759529 1.05158077,0.17166382 2.34428835,0.17166382 L26.9499389,0.17166382 C28.2426465,0.17166382 29.2942273,1.19759529 29.2942273,2.45877219 L29.2942273,47.3756203 C29.2942273,48.6367971 28.2426465,49.6627286 26.9499389,49.6627286 L26.9499389,49.6627286 Z" id="Fill-3" fill="#000000" fill-rule="nonzero" mask="url(#mask-4)"></path>
                                                    </g>
                                                </g>
                                                <polygon id="Fill-6" fill="#000000" points="1.08975919 7.8271383 28.454972 7.8271383 28.454972 5.86675971 1.08975919 5.86675971"></polygon>
                                                <polygon id="Fill-8" fill="#000000" points="1.288019 41.0594764 27.9834352 41.0594764 27.9834352 39.0990978 1.288019 39.0990978"></polygon>
                                                <path d="M14.8994261,43.3550144 C14.1593007,43.3550144 13.5598327,43.9405141 13.5598327,44.6619335 C13.5598327,45.3840063 14.1593007,45.9688526 14.8994261,45.9688526 C15.6388816,45.9688526 16.2390194,45.3840063 16.2390194,44.6619335 C16.2390194,43.9405141 15.6388816,43.3550144 14.8994261,43.3550144" id="Fill-9" fill="#000000"></path>
                                            </g>
                                        </g>
                                    </g>
                                </g>
                            </g>
                        </g>
                    </g>
                    <g id="Page-1" transform="translate(20.777778, 34.000000)">
                        <path d="M3.81661204,2.65121417 L3.81661204,2.65121417 C2.97229831,2.65121417 2.28155821,2.0547735 2.28155821,1.32572496 L2.28155821,1.32572496 C2.28155821,0.596676425 2.97229831,0.000235747303 3.81661204,0.000235747303 L3.81661204,0.000235747303 C4.66092578,0.000235747303 5.35166587,0.596676425 5.35166587,1.32572496 L5.35166587,1.32572496 C5.35166587,2.0547735 4.66092578,2.65121417 3.81661204,2.65121417" id="Fill-1" fill="#000000"></path>
                        <path d="M0.928403832,4.54992296 L0.928403832,4.54992296 C0.417856805,4.54992296 0.0001365099,4.18922958 0.0001365099,3.74838213 L0.0001365099,3.74838213 C0.0001365099,3.30753467 0.417856805,2.9468413 0.928403832,2.9468413 L0.928403832,2.9468413 C1.43895086,2.9468413 1.85667115,3.30753467 1.85667115,3.74838213 L1.85667115,3.74838213 C1.85667115,4.18922958 1.43895086,4.54992296 0.928403832,4.54992296" id="Fill-3" fill="#FCDEDE"></path>
                        <path d="M19.5590703,4.54992296 L19.5590703,4.54992296 C19.0485233,4.54992296 18.6308029,4.18922958 18.6308029,3.74838213 L18.6308029,3.74838213 C18.6308029,3.30753467 19.0485233,2.9468413 19.5590703,2.9468413 L19.5590703,2.9468413 C20.0696173,2.9468413 20.4873376,3.30753467 20.4873376,3.74838213 L20.4873376,3.74838213 C20.4873376,4.18922958 20.0696173,4.54992296 19.5590703,4.54992296" id="Fill-5" fill="#FCDEDE"></path>
                        <path d="M16.6275202,2.65121417 L16.6275202,2.65121417 C15.7832064,2.65121417 15.0924663,2.0547735 15.0924663,1.32572496 L15.0924663,1.32572496 C15.0924663,0.596676425 15.7832064,0.000235747303 16.6275202,0.000235747303 L16.6275202,0.000235747303 C17.4718339,0.000235747303 18.162574,0.596676425 18.162574,1.32572496 L18.162574,1.32572496 C18.162574,2.0547735 17.4718339,2.65121417 16.6275202,2.65121417" id="Fill-7" fill="#000000"></path>
                        <g id="Group-11" transform="translate(7.508045, 2.971182)">
                            <g id="Fill-9-Clipped">
                                <mask id="mask-6" fill="white">
                                    <use xlink:href="#path-5"></use>
                                </mask>
                                <g id="path-5"></g>
                                <path d="M4.55294645,0.310773883 C4.8887608,0.310773883 5.1604155,0.54534245 5.1604155,0.835311632 C5.1604155,1.99931394 4.06287591,2.94701811 2.71415809,2.94701811 C1.36544028,2.94701811 0.267900679,1.99931394 0.267900679,0.835311632 C0.267900679,0.54534245 0.53955538,0.310773883 0.875369736,0.310773883 L4.55294645,0.310773883 Z" id="Fill-9" fill="#000000" mask="url(#mask-6)"></path>
                            </g>
                        </g>
                    </g>
                    <g id="Page-1" transform="translate(14.166667, 16.055556) scale(-1, 1) translate(-14.166667, -16.055556) translate(0.000000, 1.888889)">
                        <g id="Group-5">
                            <path d="M13.7571803,21.9187787 C12.7529061,21.9187787 11.7830249,21.8041266 10.850976,21.6093866 L6.80292563,23.9951615 L6.85709453,20.0843455 C3.75399056,18.2549705 1.71964753,15.230179 1.71964753,11.8024193 C1.71964753,6.21565982 7.10902289,1.6860599 13.7571803,1.6860599 C20.4053376,1.6860599 25.7947129,6.21565982 25.7947129,11.8024193 C25.7947129,17.3900218 20.4053376,21.9187787 13.7571803,21.9187787" id="Fill-1" fill="#FFFFFF"></path>
                            <path d="M13.7571803,21.9187787 C12.7529061,21.9187787 11.7830249,21.8041266 10.850976,21.6093866 L6.80292563,23.9951615 L6.85709453,20.0843455 C3.75399056,18.2549705 1.71964753,15.230179 1.71964753,11.8024193 C1.71964753,6.21565982 7.10902289,1.6860599 13.7571803,1.6860599 C20.4053376,1.6860599 25.7947129,6.21565982 25.7947129,11.8024193 C25.7947129,17.3900218 20.4053376,21.9187787 13.7571803,21.9187787 M13.7571803,0 C6.15977745,0 0,5.28495475 0,11.8024193 C0,15.5277686 2.01628673,18.8450914 5.1589426,21.0074633 L5.1589426,26.9769583 L11.1854473,23.391552 C12.0194764,23.5264368 12.8775805,23.6048386 13.7571803,23.6048386 C21.3545831,23.6048386 27.5143605,18.3207268 27.5143605,11.8024193 C27.5143605,5.28495475 21.3545831,0 13.7571803,0" id="Fill-3" fill="#1097AF" fill-rule="nonzero"></path>
                        </g>
                        <g id="Group-8" fill="#000000" fill-rule="nonzero">
                            <g id="Clip-7">
                                <path d="M0,11.8024193 C0,15.5277686 2.01628673,18.8450914 5.1589426,21.0074633 L5.1589426,26.9769583 L11.1854473,23.391552 C12.0194764,23.5264368 12.8775805,23.6048386 13.7571803,23.6048386 C21.3545831,23.6048386 27.5143605,18.3207268 27.5143605,11.8024193 C27.5143605,5.28495475 21.3545831,0 13.7571803,0 C6.15977745,0 0,5.28495475 0,11.8024193 L0,11.8024193 Z M6.85709453,20.0843455 C3.75399056,18.2549705 1.71964753,15.230179 1.71964753,11.8024193 C1.71964753,6.21565982 7.10902289,1.6860599 13.7571803,1.6860599 C20.4053376,1.6860599 25.7947129,6.21565982 25.7947129,11.8024193 C25.7947129,17.3900218 20.4053376,21.9187787 13.7571803,21.9187787 C12.7529061,21.9187787 11.7830249,21.8041266 10.850976,21.6093866 L6.80292563,23.9951615 L6.85709453,20.0843455 L6.85709453,20.0843455 Z" id="path-7"></path>
                            </g>
                        </g>
                        <g id="Group-15" transform="translate(5.158942, 10.116359)" fill="#1097AF">
                            <path d="M8.59823765,0 C7.64899221,0 6.87859013,0.755354834 6.87859013,1.6860599 C6.87859013,2.61676496 7.64899221,3.37211979 8.59823765,3.37211979 C9.54748309,3.37211979 10.3178852,2.61676496 10.3178852,1.6860599 C10.3178852,0.755354834 9.54748309,0 8.59823765,0" id="Fill-9"></path>
                            <path d="M1.71964753,0 C0.770402094,0 0,0.755354834 0,1.6860599 C0,2.61676496 0.770402094,3.37211979 1.71964753,3.37211979 C2.66889297,3.37211979 3.43929506,2.61676496 3.43929506,1.6860599 C3.43929506,0.755354834 2.66889297,0 1.71964753,0" id="Fill-11"></path>
                            <path d="M15.4768278,0 C14.5275824,0 13.7571803,0.755354834 13.7571803,1.6860599 C13.7571803,2.61676496 14.5275824,3.37211979 15.4768278,3.37211979 C16.4260732,3.37211979 17.1964753,2.61676496 17.1964753,1.6860599 C17.1964753,0.755354834 16.4260732,0 15.4768278,0" id="Fill-13"></path>
                        </g>
                    </g>
                </g>
            </g>
        </g>
    </g>
</svg>