<?xml version="1.0" encoding="UTF-8"?>
<svg width="556px" height="145px" viewBox="0 0 556 145" version="1.1" xmlns="http://www.w3.org/2000/svg" xmlns:xlink="http://www.w3.org/1999/xlink">
    <!-- Generator: Sketch 54.1 (76490) - https://sketchapp.com -->
    <title>MiClaro-logo</title>
    <desc>Created with Sketch.</desc>
    <g id="MiClaro-logo" stroke="none" stroke-width="1" fill="none" fill-rule="evenodd">
        <path d="M437.971429,98 C437.971429,87.4904365 446.490436,78.9714286 457,78.9714286 C467.510514,78.9714286 476.028571,87.4904365 476.028571,98 C476.028571,108.509564 467.510514,117.028571 457,117.028571 C446.490436,117.028571 437.971429,108.509564 437.971429,98 Z M420,97.9995108 C420,118.434223 436.564798,135 456.999511,135 C477.434223,135 494,118.434223 494,97.9995108 C494,77.5647983 477.434223,61 456.999511,61 C436.564798,61 420,77.5647983 420,97.9995108 Z" id="Fill-1" fill="#FFFFFF"></path>
        <path d="M414,80.1390249 C399.873,80.1390249 393.915,84.2873054 391.324,89.1489853 C389.876,91.8850517 390,95.6435273 390,101.330117 L390,135 L370,135 L370,65.125863 L390,65.125863 L390,72.5949354 C396.748,63.9837573 406.284,64.881689 414,65.1769408 L414,80.1390249 Z" id="Fill-3" fill="#FFFFFF"></path>
        <path d="M342.413793,100.669689 C341.27837,101.360408 340.040401,101.917469 338.884615,102.343677 C337.726891,102.769885 336.139625,103.165249 334.120879,103.530704 L330.082418,104.260679 C326.297996,104.910272 323.579186,105.701935 321.928895,106.634732 C319.134454,108.218058 317.738203,110.673427 317.738203,113.999907 C317.738203,116.9628 318.590498,119.103187 320.297996,120.422002 C322.003555,121.740817 324.078539,122.400692 326.522948,122.400692 C330.399483,122.400692 333.969619,121.305262 337.236264,119.112534 C340.50097,116.921675 342.287743,112.925974 342.413793,107.121694 L342.413793,100.669689 Z M331.47576,92.573605 C334.778281,92.1688943 337.138332,91.6613702 338.560763,91.0519675 C341.11086,89.9967287 342.413793,88.3535844 342.413793,86.1225348 C342.413793,83.4026545 341.408533,81.5258435 339.451842,80.4911674 C337.496122,79.4564913 334.625081,78 330.83969,78 C326.591791,78 323.584034,79.9527993 321.818358,81.9828956 C320.554945,83.4839705 319.714286,85.4436863 319.294441,88 L302.177763,88 C302.552036,82.1975886 304.218811,77.4983643 307.178087,73.7653052 C311.886555,67.9217684 319.972204,65 331.433096,65 C338.892372,65 345.518746,66.4403215 351.312217,69.3218992 C357.104719,72.203477 360,77.6404337 360,85.6355734 C359.979315,118.545191 359.968972,135 359.968972,135 L342.413793,135 C342.413793,133.539116 342.416702,130.054678 342.413793,128.56108 C337.191427,133.201701 329.231092,135 321.347123,135 C315.169683,135 310.06755,133.285821 306.039754,129.857463 C302.011959,126.428171 300,121.568838 300,115.278531 C300,107.121694 303.237557,101.216469 309.717518,97.5656603 C313.27117,95.5766894 318.496445,94.1569306 325.394312,93.3045144 L331.47576,92.573605 Z" id="Fill-5" fill="#FFFFFF"></path>
        <path d="M238.382426,98 L260,98 C254.178148,119.311186 234.387127,135 210.868162,135 C182.774452,135 160,112.614237 160,85 C160,57.3857625 182.774452,35 210.868162,35 C234.387127,35 254.178148,50.6888136 260,72 L238.382426,72 C233.454555,61.941583 222.986081,55 210.868162,55 C194.011936,55 180.347265,68.4314575 180.347265,85 C180.347265,101.568542 194.011936,115 210.868162,115 C222.986081,115 233.454555,108.058417 238.382426,98 Z" id="Combined-Shape" fill="#FFFFFF"></path>
        <polygon id="Fill-12" fill="#FFFFFF" points="270 135 290 135 290 35 270 35"></polygon>
        <polygon id="Fill-12-Copy-2" fill="#FFFFFF" transform="translate(528.000000, 92.500000) rotate(-270.000000) translate(-528.000000, -92.500000) " points="520 110 536 110 536 75 520 75"></polygon>
        <polygon id="Fill-12-Copy-3" fill="#FFFFFF" points="447 45 463 45 463 10 447 10"></polygon>
        <polygon id="Fill-12-Copy-4" fill="#FFFFFF" transform="translate(511.568542, 43.431458) rotate(-315.000000) translate(-511.568542, -43.431458) " points="503.568542 68.4314575 519.568542 68.4314575 519.568542 18.4314575 503.568542 18.4314575"></polygon>
        <polygon id="Fill-13" fill="#FFFFFF" points="10 35 30 35 54.5 88.6353616 55.5 88.6353616 80 35 100 35 100 135 80 135 80 77 79 77 64 115 46 115 31 77 30 77 30 135 10 135"></polygon>
        <polygon id="Fill-14" fill="#FFFFFF" points="120 135 140 135 140 65 120 65"></polygon>
        <path d="M140,45 C140,50.5230013 135.523001,55 130,55 C124.477892,55 120,50.5230013 120,45 C120,39.4769987 124.477892,35 130,35 C135.523001,35 140,39.4769987 140,45" id="Fill-15" fill="#FFFFFF"></path>
    </g>
</svg>