<svg id="Capa_1" data-name="Capa 1" xmlns="http://www.w3.org/2000/svg" viewBox="0 0 40.4 32.8"><defs><style>.cls-1{fill:#fff;stroke:#fff;stroke-miterlimit:10;stroke-width:0.5px;}</style></defs><path class="cls-1" d="M37.43,5.91H32.62a6.89,6.89,0,0,0-13.35,0H14.46a.57.57,0,0,0-.58.57V12.8H7.56a.59.59,0,0,0-.48.26L5.94,14.78h0L2.49,20a.53.53,0,0,0-.1.32v8a.58.58,0,0,0,.58.58H5.31a3.45,3.45,0,0,0,6.8,0H28.87a3.44,3.44,0,0,0,6.79,0h1.77a.58.58,0,0,0,.58-.58V6.48A.57.57,0,0,0,37.43,5.91ZM3.54,24.29V23.14m5.17,7.47a2.3,2.3,0,1,1,2.3-2.3A2.3,2.3,0,0,1,8.71,30.61ZM4,19.69l2.68-4,.77-1.15L7.87,14h6V27.74H12.11a3.45,3.45,0,0,0-6.8,0H3.54V20.33Zm21.9-17.8a5.74,5.74,0,0,1,5.75,5.74c0,2.48-3.81,7.65-5.75,10-1.93-2.37-5.74-7.54-5.74-10A5.74,5.74,0,0,1,25.94,1.89Zm6.32,28.72a2.3,2.3,0,1,1,2.3-2.3A2.29,2.29,0,0,1,32.26,30.61Zm4.6-2.87h-1.2a3.44,3.44,0,0,0-6.79,0H15v-4.6H36.86Zm0-5.75H15V7.06h4a5.44,5.44,0,0,0,0,.57c0,1.57,1.1,4,3.26,7.09,1.58,2.29,3.18,4.18,3.2,4.2a.57.57,0,0,0,.81.06l.06-.06S28,17,29.58,14.72c2.16-3.14,3.26-5.52,3.26-7.09a5.44,5.44,0,0,0,0-.57h4Z"/><path class="cls-1" d="M25.94,8.78a2.3,2.3,0,1,0-2.29-2.3A2.3,2.3,0,0,0,25.94,8.78Zm0-3.45A1.15,1.15,0,1,1,24.8,6.48,1.15,1.15,0,0,1,25.94,5.33Z"/></svg>