<svg xmlns="http://www.w3.org/2000/svg" xmlns:xlink="http://www.w3.org/1999/xlink" viewBox="0 0 131.74 87.53"><defs><style>.cls-1,.cls-12,.cls-9{fill:none;}.cls-2{fill:#f5f4f5;}.cls-3,.cls-4,.cls-5,.cls-7{fill:#bcc0c4;}.cls-13,.cls-14,.cls-15,.cls-3,.cls-4,.cls-5,.cls-9{fill-rule:evenodd;}.cls-4{opacity:0.58;}.cls-5{opacity:0.38;}.cls-6{opacity:0.82;}.cls-8{clip-path:url(#clip-path);}.cls-10{fill:#e73b2e;}.cls-10,.cls-11,.cls-12{stroke:#010101;stroke-miterlimit:10;stroke-width:2px;}.cls-11{fill:#fff;}.cls-13{fill:#202121;}.cls-14{fill:#f5acad;}.cls-15{fill:#fde9e9;}</style><clipPath id="clip-path"><circle class="cls-1" cx="67.9" cy="43.85" r="39"/></clipPath></defs><title>icono typage</title><g id="Capa_2" data-name="Capa 2"><g id="Capa_1-2" data-name="Capa 1"><circle class="cls-2" cx="67.9" cy="43.85" r="39"/><polygon class="cls-3" points="119.92 26.39 119.92 28.15 118.16 28.15 118.16 29.91 119.92 29.91 119.92 31.67 121.69 31.67 121.69 29.91 123.45 29.91 123.45 28.15 121.69 28.15 121.69 26.39 119.92 26.39"/><polygon class="cls-4" points="116.4 45.39 116.4 47.85 113.93 47.85 113.93 50.32 116.4 50.32 116.4 52.78 118.87 52.78 118.87 50.32 121.33 50.32 121.33 47.85 118.87 47.85 118.87 45.39 116.4 45.39"/><polygon class="cls-5" points="109 0 109 3.52 105.48 3.52 105.48 7.04 109 7.04 109 10.56 112.53 10.56 112.53 7.04 116.05 7.04 116.05 3.52 112.53 3.52 112.53 0 109 0"/><g class="cls-6"><path class="cls-7" d="M128.2,17.79a3.54,3.54,0,1,1,3.54-3.54A3.55,3.55,0,0,1,128.2,17.79Zm0-5.28a1.74,1.74,0,1,0,1.74,1.74A1.74,1.74,0,0,0,128.2,12.51Z"/></g><polygon class="cls-3" points="11.68 26.2 11.68 28.07 13.56 28.07 13.56 29.93 11.68 29.93 11.68 31.8 9.8 31.8 9.8 29.93 7.93 29.93 7.93 28.07 9.8 28.07 9.8 26.2 11.68 26.2"/><polygon class="cls-4" points="15.15 45.75 15.15 48.37 17.78 48.37 17.78 50.98 15.15 50.98 15.15 53.59 12.52 53.59 12.52 50.98 9.89 50.98 9.89 48.37 12.52 48.37 12.52 45.75 15.15 45.75"/><polygon class="cls-5" points="22.83 1.05 22.83 4.42 26.21 4.42 26.21 7.78 22.83 7.78 22.83 11.13 19.45 11.13 19.45 7.78 16.07 7.78 16.07 4.42 19.45 4.42 19.45 1.05 22.83 1.05"/><g class="cls-6"><path class="cls-7" d="M3.72,18.73A3.7,3.7,0,1,1,7.43,15,3.72,3.72,0,0,1,3.72,18.73Zm0-5.6A1.9,1.9,0,1,0,5.63,15,1.91,1.91,0,0,0,3.72,13.13Z"/></g><g class="cls-8"><path class="cls-9" d="M88,26.59V23.8a5.62,5.62,0,0,0-5.66-5.58H54a5.62,5.62,0,0,0-5.66,5.58v2.79Z"/><path class="cls-10" d="M88,26.59V23.8a5.62,5.62,0,0,0-5.66-5.58H54a5.62,5.62,0,0,0-5.66,5.58v2.79Z"/><path class="cls-9" d="M48.33,75.38V81c0,2.66,3,5.58,5.66,5.58h28.3C85,86.53,88,83.61,88,81V75.38Z"/><path class="cls-10" d="M48.33,75.38V81c0,2.66,3,5.58,5.66,5.58h28.3C85,86.53,88,83.61,88,81V75.38Z"/><rect class="cls-1" x="48.33" y="26.59" width="39.62" height="48.79"/><rect class="cls-11" x="48.33" y="26.59" width="39.62" height="48.79"/><line class="cls-12" x1="65.31" y1="80.95" x2="72.39" y2="80.95"/><path class="cls-13" d="M80.31,46.15c0,1.28-1-.3-2.34-.3s-2.34,1.58-2.34.3a2.34,2.34,0,0,1,4.68,0"/><path class="cls-13" d="M60.35,46.15A2.34,2.34,0,1,1,58,43.85a2.32,2.32,0,0,1,2.34,2.3"/><path class="cls-13" d="M77.74,54.25c0-2.69-5.09.88-10,.91s-9.49-3.54-9.49-.91a9.55,9.55,0,0,0,3.83,7.61,7.42,7.42,0,0,1,5.8-3A7.55,7.55,0,0,1,73.75,62a9.51,9.51,0,0,0,4-7.73"/><path class="cls-14" d="M67.86,58.84a7.42,7.42,0,0,0-5.8,3l.18.14c.34.23.68.46,1,.66l.15.08c.36.18.73.34,1.12.49l.38.14a9.72,9.72,0,0,0,1.21.3l.41.07a8.94,8.94,0,0,0,1.27.1H68a9.26,9.26,0,0,0,1.49-.12l.15,0A10.18,10.18,0,0,0,71,63.37h0a9.48,9.48,0,0,0,1.36-.56l.06,0A10.29,10.29,0,0,0,73.75,62h0a7.55,7.55,0,0,0-5.89-3.14"/><path class="cls-15" d="M83.11,50.47A1.54,1.54,0,1,1,81.57,49a1.53,1.53,0,0,1,1.54,1.51"/><path class="cls-15" d="M56,50.46A1.54,1.54,0,1,1,54.39,49,1.53,1.53,0,0,1,56,50.46"/></g></g></g></svg>