<svg xmlns="http://www.w3.org/2000/svg" xmlns:xlink="http://www.w3.org/1999/xlink" viewBox="0 0 78 78"><defs><style>.cls-1,.cls-7{fill:none;}.cls-2{fill:#f5f4f5;}.cls-3{clip-path:url(#clip-path);}.cls-4{fill:#e73b2e;}.cls-5{fill:#010101;}.cls-6{fill:#bbbec1;}.cls-7{stroke:#010101;stroke-miterlimit:10;}.cls-8{fill:#fff;}</style><clipPath id="clip-path"><circle class="cls-1" cx="39" cy="39" r="39"/></clipPath></defs><title>carrito vacio</title><g id="Capa_2" data-name="Capa 2"><g id="Capa_1-2" data-name="Capa 1"><circle class="cls-2" cx="39" cy="39" r="39"/><g class="cls-3"><polygon class="cls-4" points="35.93 17.45 35.93 23.03 35.93 29.71 44.53 29.71 54.88 29.71 54.88 17.45 35.93 17.45"/><rect class="cls-5" x="13.56" y="37.2" width="6.53" height="1.75"/><rect class="cls-5" x="9.74" y="37.2" width="1.91" height="1.75"/><polygon class="cls-5" points="25.66 44.2 18.66 28.6 9.74 28.6 9.74 26.85 19.77 26.85 27.25 43.41 25.66 44.2"/><path class="cls-5" d="M54,52.16H29.48V50.41H54a3.57,3.57,0,0,0,3.5-2.54l4.78-14.65a.59.59,0,0,0-.16-.48.86.86,0,0,0-.63-.48H24.86V30.67H61.64a2.72,2.72,0,0,1,2.07,1.11A2,2,0,0,1,64,33.85L59.26,48.5A5.51,5.51,0,0,1,54,52.16Z"/><rect class="cls-5" x="14.52" y="42.93" width="15.13" height="1.75"/><rect class="cls-6" x="11.65" y="48.5" width="10.35" height="1.75"/><rect class="cls-6" x="34.26" y="34.33" width="1.75" height="13.22"/><rect class="cls-6" x="41.9" y="34.33" width="1.75" height="13.22"/><rect class="cls-6" x="49.38" y="34.33" width="1.75" height="13.22"/><rect class="cls-6" x="31.39" y="42.93" width="23.56" height="1.75"/><rect class="cls-6" x="29.48" y="37.2" width="27.23" height="1.75"/><path class="cls-5" d="M55.91,58.85H34.26a3.91,3.91,0,0,1-3.66-2.39c-.8-1.59-3.67-9.07-3.82-9.39l1.59-.64s3,7.8,3.82,9.4a2.2,2.2,0,0,0,2.07,1.43H55.91Z"/><circle class="cls-4" cx="32.35" cy="63.63" r="2.87"/><path class="cls-5" d="M32.35,67.29A3.66,3.66,0,1,1,36,63.63,3.51,3.51,0,0,1,32.35,67.29Zm0-5.73a1.91,1.91,0,1,0,1.91,1.91A1.93,1.93,0,0,0,32.35,61.56Z"/><circle class="cls-4" cx="54.16" cy="63.63" r="2.87"/><path class="cls-5" d="M54.16,67.29a3.66,3.66,0,1,1,3.66-3.66A3.7,3.7,0,0,1,54.16,67.29Zm0-5.73a1.91,1.91,0,0,0,0,3.82,1.91,1.91,0,1,0,0-3.82Z"/><polyline class="cls-7" points="54.96 29.71 54.96 16.68 35.13 16.68 35.13 29.71"/><path class="cls-8" d="M42.44,23.62a5,5,0,0,1,.61-2.7,2.66,2.66,0,0,1,4.12,0,5.09,5.09,0,0,1,.62,2.7,5.14,5.14,0,0,1-.62,2.72,2.66,2.66,0,0,1-4.12,0A5.1,5.1,0,0,1,42.44,23.62Zm4.17,0a4.6,4.6,0,0,0-.31-1.9,1.41,1.41,0,0,0-2.39,0,4.54,4.54,0,0,0-.31,1.9,4.61,4.61,0,0,0,.31,1.92,1.4,1.4,0,0,0,2.39,0A4.61,4.61,0,0,0,46.61,23.62Z"/></g></g></g></svg>