<?xml version="1.0" encoding="utf-8"?>
<!-- Generator: Adobe Illustrator 21.0.0, SVG Export Plug-In . SVG Version: 6.00 Build 0)  -->
<svg version="1.1" id="Layer_1" xmlns="http://www.w3.org/2000/svg" xmlns:xlink="http://www.w3.org/1999/xlink" x="0px" y="0px"
	 viewBox="0 0 38 38" style="enable-background:new 0 0 38 38;" xml:space="preserve">
<style type="text/css">
	.st0{fill:#E8E8E9;}
	.st1{fill:#EF3829;}
	.st2{fill:#FFFFFF;}
</style>
<g>
	<g>
		<ellipse class="st0" cx="23.8" cy="23.9" rx="12.8" ry="13.1"/>
	</g>
	<g>
		<path class="st1" d="M22,28.2v-6.9c0-3-7.7-5.3-10.1-5.3S1.8,18.3,1.8,21.3v6.9"/>
		<path d="M22.6,28.2h-1.1v-6.9c0-2.4-7-4.8-9.5-4.8s-9.5,2.4-9.5,4.8v6.9H1.3v-6.9c0-3.7,8.4-5.9,10.6-5.9s10.6,2.2,10.6,5.9v6.9
			H22.6z"/>
	</g>
	<g>
		<path class="st2" d="M17,6.6c0-2.8-2.3-5-5-5l0,0c-2.8,0-5,2.2-5,5v3.3c0,2.8,2.3,5,5,5l0,0c2.8,0,5-2.2,5-5V6.6z"/>
		<path d="M12,15.5c-3.1,0-5.6-2.5-5.6-5.6V6.6C6.4,3.5,8.9,1,12,1s5.6,2.5,5.6,5.6v3.3C17.6,13,15.1,15.5,12,15.5z M12,2.1
			c-2.5,0-4.5,2-4.5,4.4v3.3c0,2.5,2,4.4,4.5,4.4s4.5-2,4.5-4.4V6.6C16.4,4.1,14.4,2.1,12,2.1z"/>
	</g>
	<g>
		<ellipse class="st2" cx="23.8" cy="23.9" rx="8.1" ry="8.5"/>
		<path d="M23.8,32.9c-4.8,0-8.7-4-8.7-9s3.9-9,8.7-9s8.7,4,8.7,9S28.6,32.9,23.8,32.9z M23.8,16c-4.2,0-7.6,3.5-7.6,7.9
			s3.4,7.9,7.6,7.9s7.6-3.5,7.6-7.9S28,16,23.8,16z"/>
	</g>
	<g>
		<path class="st1" d="M21.6,29.1v-0.9c0,0,0.8-0.3,1.4-0.5v-3.8l-1.4-0.5c0,0,0-0.8,0-0.9l0,0h3.2v5.2c0.6,0.2,1.4,0.5,1.4,0.5v0.9
			H21.6z"/>
		<path d="M26.6,29.6H21v-1.9l1.4-0.5v-3L21,23.8v-1.9h4.3v5.3l1.4,0.5L26.6,29.6L26.6,29.6z M22.2,28.5h3.3L24.2,28v-5h-2l1.3,0.5
			v4.6L22.2,28.5z"/>
	</g>
	<g>
		<ellipse class="st1" cx="23.8" cy="19.7" rx="1.4" ry="1.4"/>
		<path d="M23.8,21.6c-1.1,0-1.9-0.9-1.9-2s0.9-2,1.9-2c1.1,0,1.9,0.9,1.9,2C25.7,20.8,24.9,21.6,23.8,21.6z M23.8,18.8
			c-0.4,0-0.8,0.4-0.8,0.9s0.4,0.9,0.8,0.9s0.8-0.4,0.8-0.9C24.6,19.2,24.2,18.8,23.8,18.8z"/>
	</g>
</g>
</svg>
