<?xml version="1.0" encoding="utf-8"?>
<!-- Generator: Adobe Illustrator 21.0.0, SVG Export Plug-In . SVG Version: 6.00 Build 0)  -->
<svg version="1.1" id="Layer_1" xmlns="http://www.w3.org/2000/svg" xmlns:xlink="http://www.w3.org/1999/xlink" x="0px" y="0px"
	 viewBox="0 0 38 38" style="enable-background:new 0 0 38 38;" xml:space="preserve">
<style type="text/css">
	.st0{fill:#E8E8E9;}
	.st1{fill:#FFFFFF;}
	.st2{fill:#BBBEC1;}
	.st3{fill:#EF3829;}
</style>
<g>
	<g>
		<path class="st0" d="M33.9,8.9h-7.3V7.7H33c-1.5-1.8-3.3-3.4-5.4-4.5C27,3.5,26.5,4,26.3,4.7l-0.2,0.5L25.5,5
			c-0.9-0.3-1.6,0.2-1.9,0.7L23.5,6h-2.7V4.9h2c0.5-0.7,1.5-1.3,2.6-1.1c0.3-0.4,0.6-0.8,1-1.1C24.2,1.6,21.7,1,19,1
			c-2.9,0-5.6,0.7-8,2c0.6,0.4,1.1,1.1,1.2,1.9h1.9V6h-3V5.4c0-0.9-0.4-1.4-0.9-1.7c-0.2,0-0.3,0-0.4-0.1C4.6,6.8,1.1,12.5,1.1,19
			c0,9.9,8,18,18,18c9.9,0,18-8,18-18C37,15.2,35.8,11.8,33.9,8.9z"/>
		<path class="st0" d="M28.8,3c1.5,0,2.7,1.6,2.7,2.5v0.6h5.4V4.9h-4.3c-0.4-1.4-1.9-3-3.8-3c-0.9,0-1.7,0.3-2.4,0.8
			c0.4,0.2,0.8,0.4,1.2,0.6C28,3.1,28.4,3,28.8,3z"/>
		<path class="st1" d="M25.4,3.8c-1.1-0.2-2.1,0.4-2.6,1.1h-2V6h2.7l0.2-0.3C24,5.2,24.8,4.6,25.6,5l0.5,0.2l0.2-0.5
			C26.5,4,27,3.5,27.6,3.2c-0.4-0.2-0.8-0.4-1.2-0.6C26,3,25.7,3.3,25.4,3.8z"/>
		<path class="st0" d="M10.6,2.7L10.6,2.7L10.6,2.7c-0.3-0.1-0.4-0.2-0.6-0.2H9.9c-0.1,0-0.3,0-0.4-0.1c-0.1,0-0.2,0-0.3,0H9.1H9
			c-0.2,0-0.3,0-0.5,0.1c-0.1,0-0.2,0-0.3,0.1c0,0-0.1,0-0.2,0C7.7,2.7,7.5,2.8,7.3,3l0,0C7.1,3.1,7,3.1,6.9,3.2
			c0,0.1-0.1,0.2-0.2,0.3L6.6,3.6l0,0c-0.5,0-0.9,0.1-1.2,0.2c-0.1,0-0.1,0.1-0.2,0.1c0,0-0.1,0-0.1,0.1C4.6,4.2,4.4,4.5,4.2,4.9H1
			V6h4l0.1-0.4c0.3-0.7,0.8-1,1.7-0.9h0.4l0.2-0.3c0.1-0.1,0.1-0.2,0.2-0.3C7.7,4,8,3.9,8.3,3.7h0.1c0.1,0,0.2-0.1,0.3-0.1
			c0.2,0,0.3-0.1,0.5-0.1h0.1c0.2,0,0.4,0,0.6,0.1C10.2,3.4,10.6,3.2,11,3C10.9,2.9,10.8,2.8,10.6,2.7z"/>
		<path class="st1" d="M11.1,5.4V6h3V4.9h-1.9C12.1,4,11.6,3.4,11,3c-0.4,0.2-0.8,0.4-1.2,0.7c0.1,0,0.3,0.1,0.4,0.1
			C10.7,4,11.1,4.5,11.1,5.4z"/>
		<path class="st0" d="M35.2,8.9V7.7H33c0.3,0.4,0.6,0.7,0.8,1.1L35.2,8.9L35.2,8.9z"/>
		<path class="st1" d="M26.6,8.9h7.3c-0.3-0.4-0.5-0.8-0.8-1.1h-6.4v1.1H26.6z"/>
		<rect x="6.5" y="21.2" class="st1" width="24.6" height="15"/>
	</g>
	<g>
		<rect x="5" y="35.6" width="27.5" height="1.1"/>
	</g>
	<g>
		<polygon class="st2" points="28,19.8 26.9,19.8 26.9,18.9 24.1,15.6 24.1,14.3 25.2,14.3 25.2,15.2 28,18.5 		"/>
	</g>
	<g>
		<polygon class="st2" points="22.4,19.8 21.3,19.8 21.3,18.8 20.2,15.4 20.2,14.3 21.3,14.3 21.3,15.3 22.4,18.7 		"/>
	</g>
	<g>
		<polygon class="st2" points="11.2,19.8 10.1,19.8 10.1,18.5 12.9,15.2 12.9,14.3 14,14.3 14,15.6 11.2,18.9 		"/>
	</g>
	<g>
		<polygon class="st2" points="16.8,19.8 15.7,19.8 15.7,18.5 16.8,15.3 16.8,14.3 17.9,14.3 17.9,15.6 16.8,18.8 		"/>
	</g>
	<g>
		<rect x="30.3" y="20.3" width="1.1" height="15.9"/>
	</g>
	<g>
		<rect x="6.1" y="20.3" width="1.1" height="15.9"/>
	</g>
	<g>
		<rect x="10.6" y="10.4" class="st3" width="16.8" height="3.8"/>
		<path d="M28,14.8H10v-5h18V14.8z M11.2,13.7h15.7V11H11.2V13.7z"/>
	</g>
	<g>
		<path class="st3" d="M5,19.8v3.3c0,1.4,1.4,2.7,2.8,2.7c1.5,0,2.8-1.3,2.8-2.7c0,1.4,1.4,2.7,2.8,2.7c1.5,0,2.8-1.3,2.8-2.7
			c0,1.4,1.4,2.7,2.8,2.7c1.5,0,2.8-1.3,2.8-2.7c0,1.4,1.4,2.7,2.8,2.7c1.5,0,2.8-1.3,2.8-2.7c0,1.4,1.4,2.7,2.8,2.7
			c1.5,0,2.8-1.3,2.8-2.7v-3.3H5z"/>
		<path d="M30.3,26.4c-1.1,0-2.2-0.6-2.8-1.6c-0.6,0.9-1.7,1.6-2.8,1.6s-2.2-0.6-2.8-1.6c-0.6,0.9-1.7,1.6-2.8,1.6s-2.2-0.6-2.8-1.6
			c-0.6,0.9-1.7,1.6-2.8,1.6s-2.2-0.6-2.8-1.6c-0.6,0.9-1.7,1.6-2.8,1.6c-1.8,0-3.4-1.6-3.4-3.3v-3.9h29.2v3.9
			C33.6,24.8,32,26.4,30.3,26.4z M26.9,23.1H28c0,1.1,1.1,2.2,2.2,2.2c1.2,0,2.2-1.1,2.2-2.2v-2.7H5.6v2.7c0,1.1,1.1,2.2,2.2,2.2
			s2.2-1.1,2.2-2.2h1.1c0,1.1,1.1,2.2,2.2,2.2s2.2-1.1,2.2-2.2h1.1c0,1.1,1.1,2.2,2.2,2.2s2.2-1.1,2.2-2.2h1.1
			c0,1.1,1.1,2.2,2.2,2.2C25.8,25.2,26.9,24.2,26.9,23.1z"/>
	</g>
	<g>
		<path d="M33.6,20.3H4.4v-2.1l6-4.5h17.2l6,4.5V20.3z M5.6,19.2h26.9v-0.4l-5.2-3.9H10.8l-5.2,3.9C5.6,18.8,5.6,19.2,5.6,19.2z"/>
	</g>
	<g>
		<rect x="10.1" y="22" width="1.1" height="1.1"/>
	</g>
	<g>
		<rect x="15.7" y="22" width="1.1" height="1.1"/>
	</g>
	<g>
		<rect x="21.3" y="22" width="1.1" height="1.1"/>
	</g>
	<g>
		<rect x="26.9" y="22" width="1.1" height="1.1"/>
	</g>
	<g>
		<rect x="22.4" y="28.5" class="st0" width="5.6" height="7.7"/>
		<path d="M28.6,36.8h-6.7V28h6.7C28.6,28,28.6,36.8,28.6,36.8z M23,35.6h4.5v-6.5H23V35.6z"/>
	</g>
	<g>
		<rect x="13.4" y="28.5" class="st1" width="6.7" height="4.9"/>
		<path d="M20.7,34h-7.9v-6h7.9V34z M14,32.9h5.6v-3.8H14V32.9z"/>
	</g>
	<g>
		<rect x="33.1" y="35.6" width="1.1" height="1.1"/>
	</g>
	<g>
		<rect x="3.3" y="35.6" width="1.1" height="1.1"/>
	</g>
	<g>
		<rect x="24.2" y="7.7" class="st1" width="1.2" height="1.1"/>
	</g>
	<g>
		<rect x="21.8" y="7.7" class="st1" width="1.2" height="1.1"/>
	</g>
	<g>
		<rect x="1" y="4.9" class="st0" width="1.2" height="1.1"/>
	</g>
	<g>
		<rect x="18.2" y="4.9" class="st1" width="1.2" height="1.1"/>
	</g>
</g>
</svg>
