<svg width="38" height="38" viewBox="0 0 38 38" fill="none" xmlns="http://www.w3.org/2000/svg">
<path d="M21 35C29.8366 35 37 27.8366 37 19C37 10.1634 29.8366 3 21 3C12.1634 3 5 10.1634 5 19C5 27.8366 12.1634 35 21 35Z" fill="#E9EAEB"/>
<path d="M7.79998 7.3L1.59998 13.4V30.4C1.59998 31.2 2.29998 31.8 3.09998 31.8H31C31.8 31.8 32.5 31.2 32.5 30.4V8.7C32.5 7.9 31.8 7.3 31 7.3H7.79998Z" fill="white"/>
<path d="M7.89995 7.8V13.9H1.69995L7.89995 7.8Z" fill="#1097AE"/>
<path d="M30.9 32.5H3.1C2 32.5 1 31.6 1 30.5V13.2L7.5 6.7H30.9C32 6.7 33 7.6 33 8.7V30.4C33 31.5 32.1 32.5 30.9 32.5ZM2.2 13.7V30.4C2.2 30.9 2.6 31.2 3.1 31.2H31C31.5 31.2 31.9 30.8 31.9 30.4V8.7C31.9 8.2 31.5 7.9 31 7.9H8L2.2 13.7Z" fill="#020202"/>
<path d="M8.89995 14.5H4.19995V13.3H7.69995V9.89999H8.89995V14.5Z" fill="#020202"/>
<path d="M29 26.6H10.9V27.8H29V26.6Z" fill="#BCC0C4"/>
<path d="M24.3 23.2V21C24.3 19.6 21 18.6 20 18.6C19 18.6 15.7 19.7 15.7 21V23.2H24.3Z" fill="#1097AE"/>
<path d="M24.9 23.8H15V21C15 19.1 18.7 18 19.9 18C21.1 18 24.8 19.1 24.8 21V23.8H24.9ZM16.2 22.6H23.7V21C23.7 20.2 21 19.2 20 19.2C19 19.2 16.3 20.2 16.3 21L16.2 22.6Z" fill="black"/>
<path d="M20 19C21.3 19 22.2999 17.9 22.2999 16.6V15.8C22.2999 14.5 21.3 13.4 20 13.4C18.7 13.4 17.7 14.5 17.7 15.8V16.6C17.7 17.9 18.7 19 20 19Z" fill="white"/>
<path d="M20 19.6C18.4 19.6 17.1 18.3 17.1 16.6V15.8C17.1 14.1 18.4 12.8 20 12.8C21.6 12.8 22.9 14.1 22.9 15.8V16.6C22.9 18.2 21.6 19.6 20 19.6ZM20 13.9C19 13.9 18.3 14.7 18.3 15.7V16.5C18.3 17.5 19 18.3 20 18.3C21 18.3 21.7 17.5 21.7 16.5V15.7C21.7 14.7 20.9 13.9 20 13.9Z" fill="black"/>
<path d="M29.6 23.8H10.3V10H29.6V23.8ZM11.5 22.6H28.4V11.2H11.5V22.6Z" fill="black"/>
</svg>
