<?xml version="1.0" encoding="UTF-8"?>
<svg width="42px" height="41px" viewBox="0 0 42 41" version="1.1" xmlns="http://www.w3.org/2000/svg" xmlns:xlink="http://www.w3.org/1999/xlink">
    <!-- Generator: Sketch 54.1 (76490) - https://sketchapp.com -->
    <title>Group 11</title>
    <desc>Created with Sketch.</desc>
    <g id="Page-1" stroke="none" stroke-width="1" fill="none" fill-rule="evenodd">
        <g id="8.CE_ProcesoCompras_Resumen" transform="translate(-842.000000, -124.000000)">
            <g id="Group-13" transform="translate(230.000000, 122.000000)">
                <g id="Group-11" transform="translate(611.000000, 0.000000)">
                    <rect id="Rectangle" x="0" y="0" width="44" height="44"></rect>
                    <g id="ico_cargaInicial" transform="translate(1.000000, 2.000000)">
                        <ellipse id="Oval" fill="#E9EAEB" cx="22" cy="20.5" rx="20" ry="20.5"></ellipse>
                        <g id="Group" transform="translate(4.000000, 10.000000)">
                            <path d="M10.9074074,25.0545455 L15.0407407,20.8 C15.0407407,20.8 18.2555556,21.6272727 20.5518519,19.2636364 C24.5703704,15.1272727 29.5074074,10.0454545 29.5074074,10.0454545 L23.6518519,1.18181818 L17.337037,1.18181818 C15.9592593,1.06363636 14.9259259,1.41818182 13.8925926,2.48181818 L9.18518519,7.32727273 L1.49259259,15.2454545 L10.9074074,25.0545455 Z" id="Path" fill="#FFFFFF"></path>
                            <path d="M10.9074074,26 L0.459259259,15.2454545 L13.4333333,1.89090909 C14.4666667,0.827272727 15.7296296,0.354545455 17.337037,0.472727273 L23.9962963,0.472727273 L30.4259259,10.0454545 L21.0111111,19.7363636 C18.9444444,21.8636364 16.3037037,21.7454545 15.2703704,21.5090909 L10.9074074,26 Z M2.41111111,15.2454545 L10.9074074,23.9909091 L14.8111111,19.9727273 L15.1555556,20.0909091 C15.2703704,20.0909091 18.0259259,20.8 19.9777778,18.6727273 L28.5888889,9.80909091 L23.1925926,1.77272727 L17.2222222,1.77272727 C15.9592593,1.77272727 15.0407407,2.00909091 14.237037,2.83636364 L2.41111111,15.2454545 Z" id="Shape" fill="#000000" fill-rule="nonzero"></path>
                        </g>
                        <g id="Group" transform="translate(0.000000, 22.000000)">
                            <polygon id="Rectangle" fill="#E9EAEB" transform="translate(9.358664, 9.372106) rotate(-45.000000) translate(-9.358664, -9.372106) " points="6.27119336 0.584690523 6.9883694 2.59416088 12.4461341 18.159522 11.7289581 16.1500516"></polygon>
                            <path d="M13.41875,18.7625 L0,5.34375 L5.34375,0 L18.7625,13.41875 L13.41875,18.7625 Z M2.01875,5.34375 L13.41875,16.74375 L16.8625,13.3 L5.4625,1.9 L2.01875,5.34375 Z" id="Shape" fill="#000000" fill-rule="nonzero"></path>
                        </g>
                        <polygon id="Rectangle" fill="#000000" transform="translate(5.230573, 27.111292) rotate(-44.991897) translate(-5.230573, -27.111292) " points="4.5350505 26.1186653 5.94662708 26.1041727 5.92609588 28.1039178 4.5145193 28.1184105"></polygon>
                        <g id="Group" transform="translate(24.000000, 7.000000)">
                            <path d="M9.78245614,0.909090909 C4.89122807,0.909090909 0.954385965,4.90909091 0.954385965,9.87878788 C0.954385965,14.8484848 4.89122807,18.8484848 9.78245614,18.8484848 C12.0491228,18.8484848 14.077193,18 15.6280702,16.5454545 L15.6280702,3.21212121 C14.077193,1.75757576 12.0491228,0.909090909 9.78245614,0.909090909 Z" id="Path" fill="#44AF69"></path>
                            <path d="M9.78245614,19.5757576 C4.53333333,19.5757576 0.238596491,15.2121212 0.238596491,9.87878788 C0.238596491,4.54545455 4.53333333,0.181818182 9.78245614,0.181818182 C12.1684211,0.181818182 14.4350877,1.03030303 16.1052632,2.60606061 L16.3438596,2.84848485 L16.3438596,16.7878788 L16.1052632,17.030303 C14.3157895,18.7272727 12.0491228,19.5757576 9.78245614,19.5757576 Z M9.78245614,1.63636364 C5.24912281,1.63636364 1.67017544,5.39393939 1.67017544,9.87878788 C1.67017544,14.4848485 5.36842105,18.1212121 9.78245614,18.1212121 C11.6912281,18.1212121 13.4807018,17.3939394 14.9122807,16.1818182 L14.9122807,3.57575758 C13.4807018,2.36363636 11.6912281,1.63636364 9.78245614,1.63636364 Z" id="Shape" fill="#000000" fill-rule="nonzero"></path>
                        </g>
                        <path d="M30.7893073,16 C28.3833262,16 20.4435886,16 20.4435886,16 L19,26 C19,26 23.451065,25.2592593 24.8946536,21.308642 C24.8946536,21.308642 27.5412328,21.308642 30.067513,21.308642 C34.2779799,21.308642 33.4358865,16 30.7893073,16 Z" id="Path" fill="#FFFFFF"></path>
                        <path d="M19.2276423,26 L19,24.5806452 C19,24.5806452 22.8699187,23.8709677 24.0081301,20.5591398 L24.1219512,20.0860215 L29.4715447,20.0860215 C30.2682927,20.0860215 30.8373984,19.8494624 31.1788618,19.4946237 C31.5203252,19.1397849 31.6341463,18.7849462 31.6341463,18.311828 C31.6341463,17.3655914 31.0650407,16.4193548 30.1544715,16.4193548 L20.3658537,16.4193548 L20.3658537,15 L30.1544715,15 C31.8617886,15 33,16.655914 33,18.311828 C33,19.1397849 32.6585366,19.9677419 32.0894309,20.5591398 C31.6341463,21.0322581 30.8373984,21.5053763 29.4715447,21.5053763 L25.0325203,21.5053763 C23.4390244,25.172043 19.3414634,25.8817204 19.2276423,26 Z" id="Path" fill="#000000"></path>
                        <polygon id="Path" fill="#000000" points="41 30 35 30 35 27.0588235 36.4693878 27.0588235 36.4693878 28.5882353 39.5306122 28.5882353 39.5306122 5.29411765 36.4693878 5.29411765 36.4693878 6.82352941 35 6.82352941 35 4 41 4"></polygon>
                    </g>
                </g>
            </g>
        </g>
    </g>
</svg>