<svg width="38" height="38" viewBox="0 0 38 38" fill="none" xmlns="http://www.w3.org/2000/svg">
<path d="M19.9 36.1C29.3441 36.1 37 28.4441 37 19C37 9.55593 29.3441 1.89999 19.9 1.89999C10.4559 1.89999 2.79999 9.55593 2.79999 19C2.79999 28.4441 10.4559 36.1 19.9 36.1Z" fill="#E9EAEB"/>
<path d="M13.5 31.2L17.1 27.6C17.1 27.6 19.9 28.3 21.9 26.3C25.4 22.8 29.7001 18.5 29.7001 18.5L24.6 11H19.1C17.9 10.9 17 11.2 16.1 12.1L12 16.2L5.30005 22.9L13.5 31.2Z" fill="white"/>
<path d="M13.5 32L4.40002 22.9L15.7 11.6C16.6 10.7 17.7 10.3 19.1 10.4H24.9L30.5 18.5L22.3 26.7C20.5 28.5 18.2 28.4 17.3 28.2L13.5 32ZM6.10002 22.9L13.5 30.3L16.9 26.9L17.2 27C17.3 27 19.7 27.6 21.4 25.8L28.9 18.3L24.2 11.5H19C17.9 11.5 17.1 11.7 16.4 12.4L6.10002 22.9Z" fill="black"/>
<path d="M5.48692 20.8213L1.81 24.4982L12.2751 34.9633L15.952 31.2864L5.48692 20.8213Z" fill="#E9EAEB"/>
<path d="M12.3 35.8L1 24.5L5.5 20L16.8 31.3L12.3 35.8ZM2.7 24.5L12.3 34.1L15.2 31.2L5.6 21.6L2.7 24.5Z" fill="black"/>
<path d="M5.31605 23.5378L4.46741 24.3862L5.66931 25.5885L6.51795 24.7401L5.31605 23.5378Z" fill="black"/>
<path d="M30.2 8.5C26.1 8.5 22.8 11.8 22.8 15.9C22.8 20 26.1 23.3 30.2 23.3C32.1 23.3 33.8 22.6 35.1 21.4V10.4C33.8 9.2 32.1 8.5 30.2 8.5Z" fill="#44AF69"/>
<path d="M30.2 8.5C26.1 8.5 22.8 11.8 22.8 15.9C22.8 20 26.1 23.3 30.2 23.3C32.1 23.3 33.8 22.6 35.1 21.4V10.4C33.8 9.2 32.1 8.5 30.2 8.5Z" fill="#1097AE"/>
<path d="M30.2 23.9C25.8 23.9 22.2 20.3 22.2 15.9C22.2 11.5 25.8 7.89999 30.2 7.89999C32.2 7.89999 34.1 8.59999 35.5 9.89999L35.7 10.1V21.6L35.5 21.8C34 23.2 32.1 23.9 30.2 23.9ZM30.2 9.09999C26.4 9.09999 23.4 12.2 23.4 15.9C23.4 19.7 26.5 22.7 30.2 22.7C31.8 22.7 33.3 22.1 34.5 21.1V10.7C33.3 9.69999 31.8 9.09999 30.2 9.09999Z" fill="black"/>
<path d="M27.1 15.3C25.1 15.3 18.5 15.3 18.5 15.3L17.3 23.4C17.3 23.4 21 22.8 22.2 19.6C22.2 19.6 24.4 19.6 26.5 19.6C30 19.6 29.3 15.3 27.1 15.3Z" fill="white"/>
<path d="M17.4 24L17.2 22.8C17.2 22.8 20.6 22.2 21.6 19.4L21.7 19H26.4C27.1 19 27.6 18.8 27.9 18.5C28.2 18.2 28.3 17.9 28.3 17.5C28.3 16.7 27.8 15.9 27 15.9H18.4V14.7H27C28.5 14.7 29.5 16.1 29.5 17.5C29.5 18.2 29.2 18.9 28.7 19.4C28.3 19.8 27.6 20.2 26.4 20.2H22.5C21.1 23.3 17.5 23.9 17.4 24Z" fill="black"/>
<path d="M35.7 27H30.8V24.5H32V25.8H34.5V5.99999H32V7.29999H30.8V4.89999H35.7V27Z" fill="black"/>
</svg>
