<?xml version="1.0" encoding="UTF-8"?>
<svg width="42px" height="41px" viewBox="0 0 42 41" version="1.1" xmlns="http://www.w3.org/2000/svg" xmlns:xlink="http://www.w3.org/1999/xlink">
    <!-- Generator: sketchtool 55.1 (78136) - https://sketchapp.com -->
    <title>8F58EF97-5AE2-404E-B850-6BCC90D9A07F</title>
    <desc>Created with sketchtool.</desc>
    <defs>
        <polygon id="path-1" points="0.625692308 0.222853846 13.146 0.222853846 13.146 28.6372769 0.625692308 28.6372769"></polygon>
    </defs>
    <g id="Page-1" stroke="none" stroke-width="1" fill="none" fill-rule="evenodd">
        <g id="Resumen_pago/renovacion" transform="translate(-602.000000, -92.000000)">
            <g id="Group-13" transform="translate(238.000000, 90.000000)">
                <g id="Icono-Tu-Plan" transform="translate(363.000000, 0.000000)">
                    <g id="Rectangle-2">
                        <rect id="Rectangle" x="0" y="0" width="44" height="44"></rect>
                    </g>
                    <g id="Group-20" transform="translate(1.000000, 2.000000)">
                        <g id="Group-3" transform="translate(28.000000, 1.000000)">
                            <mask id="mask-2" fill="white">
                                <use xlink:href="#path-1"></use>
                            </mask>
                            <g id="Clip-2"></g>
                            <path d="M10.8521538,28.6372769 L9.70523077,28.0204692 C12.054,23.3235846 12.4923077,18.0054308 10.9415385,13.0475462 C9.42738462,8.21123846 6.18369231,4.29289231 1.80707692,2.01416154 C1.41723077,1.81227692 1.02307692,1.63046923 0.625692308,1.4587 L1.12430769,0.222853846 C1.54753846,0.405776923 1.96969231,0.600969231 2.38646154,0.818469231 C7.07430769,3.25893077 10.5484615,7.45612308 12.1703077,12.6348538 C13.8298462,17.9351615 13.3613846,23.6191615 10.8521538,28.6372769" id="Fill-1" fill="#BCC0C4" mask="url(#mask-2)"></path>
                        </g>
                        <path d="M20.2271673,41 C17.0642531,41 13.8946069,40.2785683 10.9516045,38.812361 C7.70566235,37.1960871 4.95564365,34.7438862 3,31.7203201 L4.13434064,31 C5.95983245,33.8223655 8.52584337,36.1122721 11.5563617,37.6207203 C18.2165457,40.9399733 26.1221483,40.1774122 32.187673,35.6342819 L33,36.698088 C29.1986686,39.5437972 24.7185279,41 20.2271673,41" id="Fill-4" fill="#BCC0C4"></path>
                        <path d="M0.124192121,24 C-0.316434512,19.7926829 0.420420628,15.5522104 2.25512622,11.738186 C5.50833104,4.97446646 11.8947628,0.476753049 18.9203687,0 L19,1.36852134 C12.418206,1.81669207 6.4352396,6.0308689 3.38589095,12.3704268 C1.66797796,15.9409299 0.977839862,19.9104421 1.38979922,23.8456555 L0.124192121,24 Z" id="Fill-6" fill="#BCC0C4"></path>
                        <path d="M36,21 C36,29.8370516 28.8369099,37 20,37 C11.1641631,37 4,29.8370516 4,21 C4,12.1629484 11.1641631,5 20,5 C28.8369099,5 36,12.1629484 36,21" id="Fill-8" fill="#E9EAEB"></path>
                        <polygon id="Fill-10" fill="#FFFFFF" points="20.5 5 35 13 35 29 20.5 37 6 29 6 13"></polygon>
                        <path d="M6.34831461,29.0098994 L20,36.519265 L33.6516854,29.0098994 L33.6516854,13.989033 L20,6.47966743 L6.34831461,13.989033 L6.34831461,29.0098994 Z M20,38 L5,29.7475979 L5,13.2502669 L20,5 L35,13.2502669 L35,29.7475979 L20,38 Z" id="Fill-12" fill="#000000"></path>
                        <polygon id="Fill-14" fill="#44AF69" points="29 24.2510245 26.0501471 26 26.1246159 18.3771265 12 10.5895939 14.7542334 9 29 16.6777598"></polygon>
                        <path d="M14.4780316,10.3249483 L27.2752197,17.8085416 L27.2119508,24.6888591 L28.7346221,23.7308402 L28.7346221,16.8356532 L15.8625659,9.47632623 L14.4780316,10.3249483 Z M25.9254833,27 L26.0035149,18.5382078 L12,10.3493767 L15.8414763,8 L30,16.0932417 L30,24.4382022 L25.9254833,27 Z" id="Fill-16" fill="#000000"></path>
                        <polygon id="Fill-18" fill="#000000" points="20.8908386 37 19.5546383 36.9889459 19.6771233 21.1616555 6 13.1418907 6.67923514 12 20.355245 20.0186594 34.3419214 12.1558631 35 13.3110187 21.0133236 21.173815"></polygon>
                    </g>
                </g>
            </g>
        </g>
    </g>
</svg>