<?xml version="1.0" encoding="UTF-8"?>
<svg width="36px" height="41px" viewBox="0 0 36 41" version="1.1" xmlns="http://www.w3.org/2000/svg" xmlns:xlink="http://www.w3.org/1999/xlink">
    <!-- Generator: Sketch 54.1 (76490) - https://sketchapp.com -->
    <title>Group 12</title>
    <desc>Created with Sketch.</desc>
    <defs>
        <polygon id="path-1" points="0 41 36 41 36 0 0 0"></polygon>
    </defs>
    <g id="Page-1" stroke="none" stroke-width="1" fill="none" fill-rule="evenodd">
        <g id="8.CE_ProcesoCompras_Resumen" transform="translate(-1146.000000, -124.000000)">
            <g id="Group-13" transform="translate(230.000000, 122.000000)">
                <g id="Group-12" transform="translate(912.000000, 0.000000)">
                    <rect id="Rectangle" x="0" y="0" width="44" height="44"></rect>
                    <g id="Group-38" transform="translate(4.000000, 2.000000)">
                        <path d="M30,13.4994585 C30,20.95524 24.6271701,27 18.0004856,27 C11.3728299,27 6,20.95524 6,13.4994585 C6,6.04367705 11.3728299,0 18.0004856,0 C24.6271701,0 30,6.04367705 30,13.4994585" id="Fill-1" fill="#E9EAEB"></path>
                        <path d="M34.5,12 L34.5,16" id="Stroke-3" stroke="#BCC0C4" stroke-width="1.2"></path>
                        <path d="M32,14.5 L36,14.5" id="Stroke-5" stroke="#BCC0C4" stroke-width="1.2"></path>
                        <path d="M34.5,12 L34.5,16" id="Stroke-7" stroke="#BCC0C4" stroke-width="1.2"></path>
                        <path d="M32,14.5 L36,14.5" id="Stroke-9" stroke="#BCC0C4" stroke-width="1.2"></path>
                        <path d="M32.5,4 L32.5,8" id="Stroke-11" stroke="#BCC0C4" stroke-width="1.2"></path>
                        <path d="M30,6.5 L34,6.5" id="Stroke-13" stroke="#BCC0C4" stroke-width="1.2"></path>
                        <path d="M32.5,4 L32.5,8" id="Stroke-15" stroke="#BCC0C4" stroke-width="1.2"></path>
                        <path d="M30,6.5 L34,6.5" id="Stroke-17" stroke="#BCC0C4" stroke-width="1.2"></path>
                        <path d="M3.5,9 L3.5,13" id="Stroke-19" stroke="#BCC0C4" stroke-width="1.2"></path>
                        <path d="M1,11.5 L5,11.5" id="Stroke-21" stroke="#BCC0C4" stroke-width="1.2"></path>
                        <path d="M3.5,9 L3.5,13" id="Stroke-23" stroke="#BCC0C4" stroke-width="1.2"></path>
                        <path d="M1,11.5 L5,11.5" id="Stroke-25" stroke="#BCC0C4" stroke-width="1.2"></path>
                        <mask id="mask-2" fill="white">
                            <use xlink:href="#path-1"></use>
                        </mask>
                        <g id="Clip-28"></g>
                        <polygon id="Fill-27" fill="#FFFFFF" mask="url(#mask-2)" points="1 40 35 40 35 26 1 26"></polygon>
                        <polygon id="Stroke-29" stroke="#000000" stroke-width="1.2" mask="url(#mask-2)" points="1 40 35 40 35 26 1 26"></polygon>
                        <polygon id="Fill-30" fill="#44AF69" mask="url(#mask-2)" points="4 27 32 27 32 19 4 19"></polygon>
                        <polygon id="Stroke-31" stroke="#000000" stroke-width="1.2" mask="url(#mask-2)" points="4 27 32 27 32 19 4 19"></polygon>
                        <polygon id="Fill-32" fill="#FFFFFF" mask="url(#mask-2)" points="9 19 27 19 27 4 9 4"></polygon>
                        <polygon id="Stroke-33" stroke="#000000" stroke-width="1.2" mask="url(#mask-2)" points="9 19 27 19 27 4 9 4"></polygon>
                        <polygon id="Fill-34" fill="#44AF69" mask="url(#mask-2)" points="8 9 28 9 28 4 8 4"></polygon>
                        <polygon id="Stroke-35" stroke="#000000" stroke-width="1.2" mask="url(#mask-2)" points="8 9 28 9 28 4 8 4"></polygon>
                        <polygon id="Fill-36" fill="#E9EAEB" mask="url(#mask-2)" points="16 40 19 40 19 4 16 4"></polygon>
                        <polygon id="Stroke-37" stroke="#000000" stroke-width="1.2" mask="url(#mask-2)" points="16 40 19 40 19 4 16 4"></polygon>
                    </g>
                </g>
            </g>
        </g>
    </g>
</svg>