<?xml version="1.0" encoding="UTF-8"?>
<svg width="40px" height="44px" viewBox="0 0 40 44" version="1.1" xmlns="http://www.w3.org/2000/svg" xmlns:xlink="http://www.w3.org/1999/xlink">
    <!-- Generator: sketchtool 55.2 (78181) - https://sketchapp.com -->
    <title>A7B217A8-17CD-49C4-9C78-FC363D3EEA13</title>
    <desc>Created with sketchtool.</desc>
    <g id="Registro-Tienda-Prepago" stroke="none" stroke-width="1" fill="none" fill-rule="evenodd">
        <g id="02-Registro---Iniciar-Sesión" transform="translate(-240.000000, -90.000000)">
            <g id="Group-13" transform="translate(200.000000, 90.000000)">
                <g id="Group-4" transform="translate(38.000000, 0.000000)">
                    <rect id="Rectangle" x="0" y="0" width="44" height="44"></rect>
                    <g id="Group" transform="translate(2.933333, 0.000000)">
                        <path d="M33.7333333,16.8662399 C33.7333333,26.1818461 26.181464,33.7333333 16.8662399,33.7333333 C7.55101586,33.7324799 0,26.1809926 0,16.8662399 C0,7.55148724 7.55101586,0 16.8662399,0 C26.181464,0 33.7333333,7.55148724 33.7333333,16.8662399" id="Fill-29" fill="#E9EAEB"></path>
                        <path d="M17.05,23.1 C18.9411294,23.1 22.3610262,20.5639542 22.8252505,19.7867924 C23.2894747,19.0096305 23.4656462,18.2433674 23.650167,17.3018866 C23.6944186,17.0772055 24.3331444,15.8347527 24.4759184,15.6444444 C25.2524087,14.6057136 25.3,11.5029349 25.3,11.5029349 L24.4759184,10.674633 C24.4759184,10.674633 24.273029,8.0731949 24.1594778,6.79720754 C23.6843994,3.07152567 21.1286611,0.733333333 17.05,0.733333333 C12.9721739,0.733333333 10.4156006,3.07152567 9.94052221,6.79720754 C9.82697095,8.0731949 9.62491651,10.674633 9.62491651,10.674633 L8.8,11.5029349 C8.8,11.5029349 8.84759134,14.6057136 9.62491651,15.6444444 C9.76685558,15.8347527 10.4064164,17.0772055 10.4506679,17.3018866 C10.6351887,18.2433674 10.8105253,19.0096305 11.2755845,19.7867924 C11.7398087,20.5639542 15.1597055,23.1 17.05,23.1" id="Fill-30" fill="#FFFFFF"></path>
                        <path d="M9.45452706,11.9589943 C9.50151628,13.182753 9.7263933,14.9218236 10.137549,15.4773007 C10.2961377,15.6926548 11.017758,17.0693834 11.0915982,17.4522353 C11.2678078,18.3649269 11.4247182,19.0631189 11.835874,19.7604562 C12.1941668,20.3697719 15.4523663,22.8001978 17.05,22.8001978 C18.6484728,22.8001978 21.9058332,20.3697719 22.264126,19.7604562 C22.6752818,19.0639734 22.8313531,18.3649269 23.0084018,17.4522353 C23.0830811,17.0616922 23.7996669,15.6994915 23.9616119,15.4790098 C24.3736067,14.9201144 24.5993228,13.182753 24.6454729,11.9589943 L23.8449779,11.1462886 L23.8256787,10.8873508 C23.8256787,10.8873508 23.6242963,8.24157073 23.5093406,6.94346352 C23.0679775,3.43028462 20.7126424,1.40065683 17.05,1.40065683 C13.3873576,1.40065683 11.0320225,3.43028462 10.5873031,6.96824635 C10.4757037,8.24157073 10.2743213,10.8873508 10.2743213,10.8873508 L10.254183,11.1462886 L9.45452706,11.9589943 Z M17.05,24.2 C14.8910128,24.2 11.2535432,21.4943993 10.6569478,20.4817219 C10.1308363,19.5903948 9.93868392,18.7409422 9.74317517,17.7239918 C9.68276045,17.5402571 9.16000529,16.5002331 9.03414129,16.3139346 C8.16651877,15.1405961 8.07925307,12.254679 8.07170123,11.688947 L8.06666667,11.3915531 L8.92254188,10.5198813 C8.97624385,9.82254396 9.12644156,7.87495586 9.22042001,6.81784024 C9.75660066,2.53895755 12.6833582,0 17.05,0 C21.4166418,0 24.3425602,2.53895755 24.8762236,6.79134826 C24.9718803,7.86982838 25.1237561,9.8208348 25.176619,10.5198813 L26.0333333,11.3915531 L26.0282988,11.688947 C26.0199078,12.254679 25.9334812,15.1405961 25.0616632,16.3207712 C24.9391556,16.5002331 24.4172396,17.5385479 24.3501121,17.7556113 C24.1596379,18.7417967 23.9674855,19.592104 23.4438913,20.4817219 C22.8472959,21.4943993 19.2098263,24.2 17.05,24.2 L17.05,24.2 Z" id="Fill-31" fill="#000000"></path>
                        <path d="M16.6829159,39.9666667 C22.4616036,39.9666667 27.729302,37.9363003 31.5333333,34.1206991 L31.5333333,30.7793009 C31.0707711,29.1064886 29.7490456,28.2519089 28.2336116,27.438748 L22.4582638,24.9333333 C22.4582638,24.9333333 19.4841725,27.438748 16.6829159,27.438748 C13.8824942,27.438748 11.7324984,24.9333333 11.7324984,24.9333333 L5.13305502,27.438748 C3.6176211,28.2519089 2.29589553,29.1064886 1.83333333,30.7793009 L1.83333333,34.1206991 C5.63736471,37.9363003 10.9042282,39.9666667 16.6829159,39.9666667" id="Fill-32" fill="#44AF69"></path>
                        <path d="M2.47280749,33.5837216 C6.09956553,37.2431194 11.1334722,39.2568448 16.6833333,39.2568448 C22.2331945,39.2568448 27.2679387,37.2431194 30.8946968,33.5837216 L30.8946968,30.5107432 C30.513594,29.2031865 29.5579056,28.462678 27.9480606,27.5663192 L22.5799561,25.1484399 C21.684574,25.8554891 19.1659455,27.6490871 16.6833333,27.6490871 C14.241763,27.6490871 12.2926946,25.9338545 11.5355146,25.1590061 L5.38007704,27.586571 C3.7928469,28.4741246 2.85055989,29.2155137 2.47280749,30.5107432 L2.47280749,33.5837216 Z M16.6833333,40.7 C10.6644226,40.7 5.20334587,38.4626252 1.303534,34.4008345 L1.1,34.1886317 L1.12596524,30.213131 C1.66956015,28.1668268 3.2266371,27.1533602 4.77533817,26.2904609 L4.85574666,26.252599 L11.9208053,23.4666667 L12.234901,23.8426443 C12.2550031,23.8672985 14.2291991,26.2059319 16.6833333,26.2059319 C19.2162008,26.2059319 22.0095584,23.7862916 22.0371988,23.7625179 L22.3605079,23.4798743 L28.5402356,26.2640456 C30.139192,27.1515992 31.6971065,28.1650657 32.241539,30.213131 L32.2666667,30.4077236 L32.2666667,34.1886317 L32.0639703,34.4008345 C28.1641584,38.4626252 22.702244,40.7 16.6833333,40.7 L16.6833333,40.7 Z" id="Fill-33" fill="#000000"></path>
                        <polygon id="Fill-34" fill="#000000" points="11.3666667 24.9333333 12.4666667 24.9333333 12.4666667 20.9 11.3666667 20.9"></polygon>
                        <polygon id="Fill-35" fill="#000000" points="21.2666667 24.9333333 22.3666667 24.9333333 22.3666667 20.9 21.2666667 20.9"></polygon>
                        <path d="M30.9462022,16.8661966 L30.8821091,16.8661966 C30.6206766,16.8713353 30.3465942,16.8961721 30.0750418,16.9449893 C29.2156881,17.0940103 28.3985008,17.4579982 27.7103432,18.0018391 C27.572037,18.1106072 27.4421641,18.224514 27.3190378,18.3418466 C27.1933816,18.4617485 27.074472,18.5876456 26.9639957,18.714399 C26.6224468,19.1092189 26.3407745,19.5511431 26.1257252,20.0256121 C26.0498254,20.1917619 25.9857323,20.3519166 25.9300725,20.5180664 C25.7251432,21.1201453 25.6264735,21.7487739 25.6382802,22.3893927 C25.6408102,22.5803793 25.6551468,22.7645144 25.67623,22.9452237 C25.7082766,23.2158595 25.7597198,23.4805001 25.8322462,23.7528488 C25.8533294,23.8316415 25.877786,23.9138599 25.9056159,23.9969348 C26.0160922,24.3369424 26.1577717,24.661534 26.3281245,24.9638581 C26.7076232,25.6464426 27.2372348,26.2450957 27.8612993,26.7032923 C28.2973012,27.0227453 28.7872762,27.2736829 29.3168877,27.4492535 L29.927459,27.6522303 L30.1821448,42.1560798 L34.9123854,42.0807129 L34.8972055,40.5802261 L32.4540771,40.611058 L32.4110672,37.971503 L34.8407023,37.9278244 L34.8246791,36.4273376 L32.3832373,36.459026 L32.2280645,27.6102647 L32.8293591,27.3841639 C33.3539107,27.1888951 33.8346091,26.9208286 34.2571176,26.5868162 C34.8263657,26.1380404 35.2952575,25.5847787 35.6511429,24.9424471 C35.8467956,24.5861671 36.0036551,24.2059067 36.1166613,23.8145126 C36.2676175,23.2946522 36.3384573,22.7490984 36.3283373,22.1975496 C36.3182173,21.6451444 36.227981,21.1047293 36.0593149,20.5900075 L36.0584715,20.5865818 C35.924382,20.1712073 35.7388493,19.7721052 35.5052467,19.3969835 C35.049005,18.6630125 34.4156638,18.0438047 33.6743763,17.6035934 C33.5200468,17.5102412 33.367404,17.4314485 33.2113879,17.3560816 C33.058745,17.2858533 32.8985122,17.2207637 32.7340628,17.1642385 C32.4009473,17.0451931 32.0534951,16.9612617 31.7018263,16.913301 C31.4606338,16.8816126 31.2051046,16.8661966 30.9462022,16.8661966 L30.9462022,16.8661966 Z M30.2243113,44 C29.7191563,44 29.2721912,43.8158649 28.9314857,43.4827089 C28.5823469,43.140132 28.3866942,42.6802225 28.3782609,42.1877682 L28.146345,28.9565919 C27.66902,28.7493329 27.2203681,28.4915437 26.8071362,28.1892196 C25.9730824,27.5785763 25.2646848,26.7752335 24.7603731,25.8691176 C24.5318306,25.4623075 24.3403946,25.0255219 24.1944984,24.5758898 C24.1582352,24.4654087 24.1236586,24.3515019 24.0924554,24.2358822 C23.9954724,23.8718942 23.928006,23.5233222 23.8858394,23.1653294 C23.8563229,22.9229562 23.8386129,22.6737315 23.8343963,22.4210811 C23.8200597,21.5663517 23.9507759,20.7236125 24.2248583,19.9202697 C24.3024447,19.6933125 24.3901511,19.4706375 24.4905074,19.2531012 C24.7755531,18.6244726 25.1516785,18.0352403 25.6070769,17.5085283 C25.7555031,17.3363834 25.9165792,17.1659514 26.086932,17.0032274 C26.2513814,16.8482113 26.4259508,16.6957646 26.6064236,16.5535952 C27.5248104,15.8273322 28.6202967,15.3374472 29.7714428,15.1378962 C30.1323883,15.0762323 30.4975504,15.0411182 30.8568092,15.0342667 C31.2312479,15.0282716 31.58882,15.0513955 31.9371155,15.0967869 C32.4161272,15.1635894 32.879959,15.2757834 33.3227075,15.4325123 C33.5394434,15.5078792 33.7536493,15.5952363 33.964482,15.6920143 C34.1829046,15.7956438 34.3895205,15.904412 34.5902332,16.0268832 C35.5735565,16.6084075 36.4202603,17.4365872 37.0308316,18.41807 C37.3428639,18.9199451 37.5924897,19.4569344 37.7721191,20.0144783 C37.9972883,20.7030579 38.1187279,21.4276081 38.1322212,22.1641484 C38.1448711,22.9015452 38.0495748,23.6303775 37.8480188,24.3318037 C37.6962193,24.8533771 37.4870734,25.3603909 37.2247976,25.8374292 C36.7491592,26.6972972 36.123408,27.434694 35.3627239,28.0333471 C34.9621419,28.3510872 34.5227667,28.6242923 34.053875,28.8478237 L34.1542313,34.5954077 L34.7825125,34.5834175 C35.225261,34.5585806 35.6958394,34.7264433 36.0491949,35.0587429 C36.409297,35.3987505 36.6201296,35.8852097 36.6277196,36.3956493 L36.6547062,37.8841459 C36.6622962,38.3791695 36.4801368,38.8459305 36.1419613,39.1987847 C36.133528,39.2090621 36.125938,39.2176265 36.1166613,39.2253345 C36.125938,39.2338989 36.1352146,39.2424633 36.1436479,39.2527406 C36.4936301,39.5918917 36.6918127,40.0535141 36.700246,40.5485377 L36.7263893,42.0378908 C36.7348226,42.5312015 36.5551932,42.9962497 36.220391,43.3491039 C35.8839021,43.7053839 35.429347,43.9057914 34.9410587,43.9126429 L30.2251546,44 L30.2243113,44 Z" id="Fill-36" fill="#FFFFFF"></path>
                        <path d="M30.3153006,20.1758622 C30.3404944,20.1481478 30.3682944,20.1204334 30.3960944,20.0943987 C30.4247632,20.0683639 30.4543007,20.0440089 30.4855758,20.0204936 C30.5316195,19.9852208 30.5811383,19.954147 30.6323946,19.9264326 C30.6836509,19.8978784 30.7375135,19.8735234 30.7931135,19.8525276 C30.8113573,19.8449691 30.8304698,19.8390903 30.8495823,19.8332115 C30.8878073,19.8206141 30.9260324,19.8096963 30.9659949,19.8021378 C31.04592,19.7845014 31.1275825,19.7744234 31.2118514,19.7735836 C31.4646578,19.7693844 31.7018268,19.8399301 31.8981644,19.9633852 C31.9146707,19.974303 31.931177,19.9843809 31.9468145,19.9952987 C31.9789582,20.0179741 32.0093645,20.0414894 32.0380333,20.0658444 C32.0684396,20.0910393 32.0962396,20.1179139 32.1231709,20.1447885 C32.1631334,20.1859401 32.2004897,20.2296113 32.234371,20.2766418 C32.2560897,20.3077155 32.2778085,20.339629 32.296921,20.3723824 C32.3169023,20.4059756 32.3342773,20.4395688 32.3507835,20.4748417 C32.4150711,20.6150933 32.4524274,20.7704619 32.4550336,20.9325491 C32.4585086,21.0963159 32.4272336,21.2516845 32.3672898,21.3944556 C32.3533898,21.4297285 32.3360148,21.4650013 32.3186398,21.4985945 C32.2995273,21.5321877 32.2804147,21.5649411 32.258696,21.5968547 C32.2265522,21.644725 32.1909334,21.6900758 32.1518396,21.7329071 C32.1266459,21.7614614 32.0997146,21.7883359 32.0710458,21.8143706 C32.042377,21.8395656 32.0128395,21.8647605 31.9815645,21.8874359 C31.965927,21.9000333 31.9511582,21.9101113 31.934652,21.9218689 C31.742658,22.0520426 31.5080954,22.1309866 31.2552889,22.1351857 C31.1710201,22.1368654 31.0893575,22.1293069 31.0094324,22.1158696 C30.9686012,22.1083112 30.9295074,22.099073 30.8912823,22.0881553 C30.8721698,22.0831163 30.8530573,22.0772375 30.8348135,22.0705188 C30.777476,22.0512027 30.7236135,22.0293671 30.6706197,22.0024926 C30.6184946,21.9764579 30.5681071,21.946224 30.5203258,21.9126308 C30.488182,21.8907952 30.4577757,21.8681198 30.429107,21.842085 C30.3995694,21.81773 30.3709007,21.7916952 30.3439694,21.7639808 C30.143288,21.5582225 30.0173191,21.2810786 30.0121066,20.9753804 C30.0068941,20.6696823 30.1215692,20.389179 30.3153006,20.1758622 M27.9549049,27.2329543 C28.5135116,27.6209558 29.1485684,27.9098573 29.8348815,28.0753038 C30.2927131,28.1853216 30.7713947,28.2415902 31.2648452,28.2323521 C31.7582956,28.2239538 32.2352397,28.1517284 32.6878588,28.0257539 C33.3680906,27.8367921 33.9918537,27.5268948 34.5348229,27.1195772 C35.1177546,26.6820257 35.6059925,26.1344565 35.9673928,25.509623 C36.1672055,25.1627731 36.3305306,24.7940877 36.4478119,24.4060863 C36.5989746,23.9038679 36.6754246,23.3722554 36.6658684,22.8213269 C36.6554434,22.2712382 36.559012,21.7413054 36.3887369,21.2449659 C36.2479993,20.8309296 36.0551366,20.4395688 35.8188364,20.0792817 C35.346236,19.3553482 34.698148,18.7523502 33.9345161,18.3206775 C33.781616,18.234175 33.6243721,18.155231 33.4619157,18.0838455 C33.3011968,18.0116201 33.1343967,17.947793 32.9658591,17.8898447 C32.6261775,17.7773075 32.272596,17.6950041 31.9068519,17.6471338 C31.6340642,17.6110211 31.3534577,17.5959042 31.0685075,17.6009432 C30.7835573,17.6051423 30.5046883,17.6311771 30.2319005,17.6756881 C29.324056,17.8260176 28.4943991,18.1913437 27.7985298,18.713718 C27.6586609,18.8178569 27.5248733,18.9287145 27.397167,19.0446111 C27.2685918,19.1621873 27.1469667,19.2839626 27.0305542,19.4124566 C26.6821851,19.796259 26.3902849,20.2279316 26.1678847,20.6973967 C26.0931721,20.853605 26.0262783,21.0140126 25.968072,21.1777795 C25.7621781,21.7513834 25.6561905,22.3686585 25.6674843,23.0111285 C25.6709593,23.1950513 25.6839905,23.3764546 25.7057093,23.5536587 C25.7387218,23.8224044 25.7934531,24.0827517 25.8655594,24.3363804 C25.8890157,24.422043 25.915947,24.5051862 25.9446158,24.5874895 C26.0575533,24.9183826 26.2035035,25.2349985 26.3781224,25.533978 C26.7716664,26.2050023 27.3120294,26.784485 27.9549049,27.2329543" id="Fill-37" fill="#FFFFFF"></path>
                        <path d="M31.2398588,22.4510335 C31.1306149,22.4510335 31.0272989,22.4408713 30.9256766,22.4239344 C30.860469,22.4103848 30.808811,22.3985289 30.7588467,22.3841325 C30.6013322,22.3324747 30.5251154,22.2986008 30.453133,22.2621863 C30.3769163,22.2223845 30.3066275,22.1791952 30.2405731,22.1309248 C30.1956899,22.0978977 30.155041,22.0665643 30.1169326,22.0335373 C30.0712026,21.9928885 30.0364816,21.9590146 30.0009138,21.9217533 C29.7070561,21.6092662 29.5436136,21.2070132 29.5359919,20.7861295 C29.5283702,20.3618584 29.6774162,19.9545243 29.9560307,19.637803 L29.9602649,19.6327219 C29.9975264,19.5903795 30.0364816,19.5497308 30.0788242,19.5116226 C30.1093109,19.4828298 30.1541941,19.4438747 30.2016178,19.4083071 C30.252429,19.3676584 30.3227177,19.3210817 30.3963939,19.2795861 C30.4658358,19.2397843 30.5437462,19.2033698 30.6225035,19.1728832 C30.7478376,19.1280003 30.8020362,19.1136039 30.8570816,19.1009011 C30.9832626,19.0721083 31.106903,19.0644866 31.2381651,19.0594056 C31.5642033,19.0594056 31.8817729,19.1525589 32.1561531,19.3329376 L32.2433789,19.3939107 C32.2628565,19.4066134 32.3094334,19.4430279 32.3543166,19.4836766 C32.3898844,19.5141632 32.4296864,19.5531182 32.4686416,19.5954606 C32.5219933,19.6496589 32.5761919,19.7165599 32.6236156,19.7860015 C32.6532554,19.8274971 32.6812016,19.8723801 32.7066071,19.917263 C32.736247,19.9689208 32.7608057,20.0171911 32.781977,20.0671552 C32.8742839,20.2720925 32.9234013,20.4939668 32.9276356,20.7251564 C32.9318699,20.9529587 32.891221,21.1748329 32.8065357,21.3856982 C32.7853644,21.4398965 32.7633462,21.4864732 32.7387875,21.5355904 C32.7099946,21.588095 32.6828953,21.6355185 32.6532554,21.6804015 C32.6134534,21.7422214 32.5634891,21.8082756 32.5092905,21.8700955 C32.4728759,21.9132848 32.4330738,21.9539335 32.3915781,21.9920417 C32.3526229,22.0284562 32.3111271,22.0648706 32.2696313,22.0970509 C31.927503,22.3384027 31.6023117,22.4442587 31.2627239,22.4510335 L31.2398588,22.4510335 Z M28.330921,26.6768072 C28.8322576,27.0367178 29.3894864,27.2958534 29.9890579,27.4440519 C30.4048624,27.5482142 30.8342166,27.6024125 31.2542553,27.5880161 C31.6810689,27.5812413 32.1036483,27.5168809 32.5101374,27.4000158 C33.1054746,27.2297992 33.6533881,26.9503393 34.1403282,26.5726449 C34.657755,26.1720855 35.0828749,25.6766792 35.4055256,25.1008223 C35.5850583,24.7807136 35.7273295,24.442821 35.8297987,24.0939195 C35.9661419,23.6289997 36.0305027,23.141215 36.0211873,22.6458087 C36.0127188,22.1537897 35.9305741,21.6693924 35.7772938,21.2061663 C35.6561939,20.8360936 35.4868235,20.4787235 35.2751104,20.1416779 C34.858459,19.4845235 34.2825994,18.9289909 33.6093518,18.5360532 C33.4738554,18.4564495 33.3366653,18.3836205 33.1943941,18.3201069 C33.0512761,18.2548995 32.9047706,18.196467 32.7548777,18.1431156 C32.4533983,18.0389532 32.1383692,17.9635837 31.8207996,17.9203944 C31.5794466,17.8899079 31.330472,17.8738178 31.0806506,17.878052 C30.8282886,17.8814394 30.5818546,17.9068448 30.3405016,17.9483404 C29.5630912,18.0804488 28.8204016,18.4081791 28.1920372,18.8942701 C28.0700904,18.989964 27.9506843,19.0915858 27.8388997,19.1974419 C27.7254215,19.3049916 27.6178713,19.4150819 27.516249,19.531947 C27.2046073,19.8867765 26.9488579,20.280561 26.7523882,20.7065258 C26.6863337,20.8496431 26.6279009,20.9961479 26.5762429,21.1451932 C26.3890885,21.6820952 26.3010158,22.2460962 26.3120249,22.8202594 C26.3154123,22.9887823 26.3255746,23.1539177 26.345899,23.3165126 C26.374692,23.560405 26.4229626,23.8000631 26.4864765,24.0329464 C26.506801,24.1083159 26.5305128,24.1836854 26.5559184,24.2607486 C26.6550001,24.5596861 26.7845685,24.851002 26.9386957,25.1228403 C27.2816709,25.7300307 27.7635299,26.2669326 28.330921,26.6768072 L28.330921,26.6768072 Z M31.1653358,28.6 C30.6877111,28.6 30.2109332,28.5407206 29.7460113,28.4255492 C29.0219525,28.2460174 28.3470112,27.9335303 27.7406649,27.4957096 L27.739818,27.4957096 C27.0564082,27.001997 26.4746206,26.3533111 26.0605098,25.6216341 C25.8725085,25.2913632 25.7166877,24.9407679 25.5964347,24.5783168 C25.565948,24.4860103 25.5380019,24.3945507 25.5117494,24.3030911 C25.4355327,24.0193968 25.3779468,23.7323152 25.342379,23.4367651 C25.319514,23.2411431 25.3042706,23.0395932 25.3008832,22.8371964 C25.2890273,22.1453212 25.3965775,21.4644551 25.6209934,20.8149224 C25.6836605,20.6336968 25.7547961,20.4558586 25.8360939,20.2822547 C26.070672,19.7707582 26.3814668,19.2931357 26.7549287,18.867171 C26.8777223,18.7265941 27.0089844,18.5902515 27.1470214,18.4606837 C27.2816709,18.3345033 27.4247889,18.2100166 27.573835,18.095692 C28.330921,17.5079792 29.2302782,17.1116542 30.1711312,16.9515998 C30.4666826,16.9007889 30.7664684,16.8719961 31.0628667,16.866915 C31.3660398,16.8643744 31.663285,16.8813114 31.9554491,16.9185727 C32.3407669,16.9710773 32.7201568,17.0616901 33.085997,17.1878705 C33.2663766,17.2496905 33.4425218,17.3208257 33.6144329,17.4004295 C33.7880376,17.4800332 33.9574081,17.5681055 34.1208506,17.665493 C34.9304415,18.1371876 35.627401,18.8070447 36.1287376,19.6022354 C36.3853338,20.0087226 36.5894252,20.4414622 36.7367776,20.889445 C36.9222382,21.448365 37.0213199,22.0335373 37.032329,22.6288717 C37.0433381,23.2258998 36.963734,23.8144595 36.7985978,24.3776137 C36.6758042,24.7984974 36.5038932,25.208372 36.2879458,25.5953818 C35.8983937,26.2889506 35.3843543,26.8868256 34.7602241,27.3712229 C34.1708149,27.8285211 33.5085763,28.1647199 32.7904455,28.3713509 C32.2984243,28.5127746 31.7877723,28.588991 31.2720392,28.5991532 C31.2364714,28.6 31.2009036,28.6 31.1653358,28.6 L31.1653358,28.6 Z" id="Fill-38" fill="#000000"></path>
                        <path d="M34.8522944,37.4170887 C35.0108012,37.4144837 35.1380639,37.2642671 35.1350157,37.0836597 L35.1129162,35.6683234 C35.109868,35.4868477 34.9787951,35.3427092 34.8195262,35.3461824 L33.0454688,35.3817829 L32.9334471,28.236505 C32.5333697,28.3537261 32.1150031,28.4223222 31.6844436,28.4301369 C31.2531221,28.43882 30.8339934,28.3884583 30.4301058,28.2868667 L30.6312876,41.1143293 C30.6343358,41.2949366 30.7654087,41.4390752 30.9246776,41.436505 L31.8879116,41.4164993 L33.1392012,41.3913184 L34.9140206,41.3548496 C35.0725275,41.3513764 35.1990281,41.202028 35.1967725,41.0205524 L35.1746425,39.6060843 C35.1715942,39.425477 35.0405213,39.2804701 34.8812524,39.2830751 L33.107195,39.3195439 L33.078237,37.4535574 L34.8522944,37.4170887 Z" id="Fill-39" fill="#FFFFFF" transform="translate(32.813439, 34.836505) rotate(1.000000) translate(-32.813439, -34.836505) "></path>
                        <path d="M30.4661619,28.8916021 L30.6808123,40.7081937 L34.8213751,40.6351775 L34.8029765,39.6748003 L32.4330606,39.7160329 L32.3787409,36.7825014 L34.750409,36.7404097 L34.7328866,35.7783144 L32.3620946,35.8212651 L32.2359327,28.8606776 C31.9424311,28.9036283 31.6463011,28.9276807 31.3510473,28.9319757 C31.0566696,28.9414249 30.7605396,28.9242446 30.4661619,28.8916021 L30.4661619,28.8916021 Z M30.4626574,41.8 C30.2304845,41.8 30.0123296,41.7132396 29.8467421,41.5551811 C29.676774,41.3945456 29.5795242,41.1780741 29.5760197,40.9452814 L29.3333333,27.5687211 L30.0193386,27.7173304 C30.4503916,27.8101039 30.8980911,27.8547726 31.3308964,27.8453235 C31.7698346,27.8384514 32.2087728,27.7791794 32.6398259,27.6709437 L33.3205744,27.5 L33.4502408,34.7131375 L34.9370235,34.6873671 C35.4504322,34.6590196 35.829794,35.061897 35.8376791,35.5412266 L35.8630867,36.9397008 C35.8674673,37.1716345 35.7781027,37.392401 35.6142675,37.5581907 C35.4495561,37.7248393 35.229649,37.8201898 34.9930954,37.8236259 L33.508065,37.8493963 L33.5212068,38.6087643 L35.0071134,38.5829939 C35.2427908,38.5786989 35.4653264,38.6628822 35.6361706,38.8260948 C35.808767,38.9867303 35.9042646,39.2032018 35.9086452,39.4368535 L35.9331767,40.8344687 C35.9375573,41.0672614 35.8499449,41.2863098 35.6869858,41.4529585 C35.5213983,41.6204662 35.3014911,41.7149577 35.0640615,41.7183937 L30.4775515,41.8 L30.4626574,41.8 Z" id="Fill-40" fill="#000000" transform="translate(32.633333, 34.650000) rotate(1.000000) translate(-32.633333, -34.650000) "></path>
                        <path d="M34.1910904,19.4301262 C33.8540428,19.0684608 33.4262515,18.8283572 32.9676723,18.7 C33.0324891,18.7566282 33.1029775,18.807216 33.1629331,18.8713947 C34.1116898,19.8884371 33.9966398,21.430234 32.9044759,22.3136339 C32.201213,22.8844461 31.2654197,23.0362097 30.4333333,22.8036565 C31.4015351,23.6485492 32.9101473,23.7014022 33.9326332,22.8731205 C35.023987,21.9889656 35.1398471,20.4479236 34.1910904,19.4301262" id="Fill-41" fill="#E9EAEB"></path>
                        <path d="M31.5333333,20.7166667 C31.5333333,21.0206479 31.2873146,21.2666667 30.9833333,21.2666667 C30.6793521,21.2666667 30.4333333,21.0206479 30.4333333,20.7166667 C30.4333333,20.4126854 30.6793521,20.1666667 30.9833333,20.1666667 C31.2873146,20.1666667 31.5333333,20.4126854 31.5333333,20.7166667" id="Fill-42" fill="#FFFFFF"></path>
                    </g>
                </g>
            </g>
        </g>
    </g>
</svg>