<svg width="38" height="38" viewBox="0 0 38 38" fill="none" xmlns="http://www.w3.org/2000/svg">
<path d="M26.3 23.3C31.8781 23.3 36.4 18.8676 36.4 13.4C36.4 7.93238 31.8781 3.5 26.3 3.5C20.7219 3.5 16.2 7.93238 16.2 13.4C16.2 18.8676 20.7219 23.3 26.3 23.3Z" fill="#E8E8E9"/>
<path d="M14.5 7.90001H10.6V9.00001H14.5V7.90001Z" fill="#BBBEC1"/>
<path d="M9.39999 7.90001H8.29999V9.00001H9.39999V7.90001Z" fill="#BBBEC1"/>
<path d="M7.20004 7.90001H6.10004V9.00001H7.20004V7.90001Z" fill="#BBBEC1"/>
<path d="M6.00002 5.20001H4.90002V6.30001H6.00002V5.20001Z" fill="#BBBEC1"/>
<path d="M3.80001 5.20001H2.70001V6.30001H3.80001V5.20001Z" fill="#BBBEC1"/>
<path d="M22.9 6.30001H17L16.9 6.00001C16.8 5.70001 16.4 5.30001 15.9 5.30001C15.7 5.30001 15.6 5.30001 15.5 5.40001L15 5.60001L14.8 5.00001C14.5 4.20001 13.7 3.70001 12.8 3.70001C11.6 3.70001 10.7 4.90001 10.7 5.70001V6.30001H7.20001V5.20001H9.70001C10 3.90001 11.3 2.60001 12.9 2.60001C14.1 2.60001 15.1 3.20001 15.7 4.20001C15.8 4.20001 15.9 4.20001 16 4.20001C16.7 4.20001 17.4 4.60001 17.8 5.20001H23V6.30001H22.9V6.30001Z" fill="#BBBEC1"/>
<path d="M36.4 9.10001H33.9L33.7 8.80001C33.5 8.50001 33 8.00001 32.2 8.00001H31.8L31.6 7.70001C31.3 7.10001 30.7 6.80001 30.1 6.80001C29.1 6.80001 28.4 7.70001 28.3 8.40001V9.00001H22.3V7.90001H27.3C27.6 6.70001 28.8 5.70001 30.1 5.70001C31 5.70001 31.8 6.10001 32.4 6.90001C33.3 6.90001 34 7.40001 34.5 7.90001H36.4V9.10001V9.10001Z" fill="#BBBEC1"/>
<path d="M21.2 7.90001H20.1V9.00001H21.2V7.90001Z" fill="#BBBEC1"/>
<path d="M19 7.90001H17.9V9.00001H19V7.90001Z" fill="#BBBEC1"/>
<path d="M11.7 34.3H5.5V35.4H11.7V34.3Z" fill="#BBBEC1"/>
<path d="M20.1 34.3H13.9V35.4H20.1V34.3Z" fill="#BBBEC1"/>
<path d="M28.6 34.3H22.4V35.4H28.6V34.3Z" fill="#BBBEC1"/>
<path d="M37 34.3H30.8V35.4H37V34.3Z" fill="#BBBEC1"/>
<path d="M4.30001 34.3H3.20001V35.4H4.30001V34.3Z" fill="#BBBEC1"/>
<path d="M2.1 34.3H1V35.4H2.1V34.3Z" fill="#BBBEC1"/>
<path d="M34.2 22.8L31.5 19.4C31.2 19.1 30.8 18.9 30.3 18.9H26.4V28.8H34.4C35.3 28.8 36 28.1 36 27.3C36 26.3 36 25.5 36 24.4C35.9 23.5 35.1 22.8 34.2 22.8Z" fill="#44AF69"/>
<path d="M34.2 22.8L31.5 19.4C31.2 19.1 30.8 18.9 30.3 18.9H26.4V28.8H34.4C35.3 28.8 36 28.1 36 27.3C36 26.3 36 25.5 36 24.4C35.9 23.5 35.1 22.8 34.2 22.8Z" fill="#1097AE"/>
<path d="M34.3 29.4H25.7V18.4H30.2C30.8 18.4 31.4 18.6 31.8 19L34.4 22.2C34.9 22.3 35.3 22.5 35.7 22.8C36.1 23.2 36.4 23.8 36.4 24.4V27.3C36.4 28.4 35.5 29.4 34.3 29.4ZM26.9 28.2H34.3C34.9 28.2 35.3 27.8 35.3 27.2V24.3C35.3 24 35.2 23.7 35 23.5C34.8 23.3 34.5 23.2 34.2 23.2H33.9L31 19.8C30.8 19.6 30.5 19.5 30.2 19.5H26.8L26.9 28.2Z" fill="black"/>
<path d="M28.6 23.9H31.4L31.9 23.3L30.3 21.1H28.6V23.9Z" fill="white"/>
<path d="M31.6 24.4H28V20.5H30.5L32.7 23.3L31.6 24.4ZM29.1 23.3H31.1L30 21.7H29.2V23.3H29.1Z" fill="black"/>
<path d="M30.3 31C31.5703 31 32.6 30.015 32.6 28.8C32.6 27.585 31.5703 26.6 30.3 26.6C29.0297 26.6 28 27.585 28 28.8C28 30.015 29.0297 31 30.3 31Z" fill="#E8E8E9"/>
<path d="M30.3 31.6C28.7 31.6 27.5 30.4 27.5 28.8C27.5 27.3 28.8 26 30.3 26C31.8 26 33.1 27.2 33.1 28.8C33.1 30.3 31.8 31.6 30.3 31.6ZM30.3 27.2C29.4 27.2 28.6 27.9 28.6 28.8C28.6 29.7 29.4 30.4 30.3 30.4C31.2 30.4 32 29.7 32 28.8C31.9 27.9 31.2 27.2 30.3 27.2Z" fill="black"/>
<path d="M8.29999 23.3V13.4H26.3V28.8H8.29999V25" fill="white"/>
<path d="M26.9 29.4H7.70001V25H8.90001V28.2H25.7V14H8.90001V23.3H7.70001V12.9H26.9V29.4Z" fill="black"/>
<path d="M13.4 31C14.6702 31 15.7 30.015 15.7 28.8C15.7 27.585 14.6702 26.6 13.4 26.6C12.1297 26.6 11.1 27.585 11.1 28.8C11.1 30.015 12.1297 31 13.4 31Z" fill="#E8E8E9"/>
<path d="M13.4 31.6C11.8 31.6 10.6 30.4 10.6 28.8C10.6 27.3 11.9 26 13.4 26C14.9 26 16.2 27.2 16.2 28.8C16.2 30.3 14.9 31.6 13.4 31.6ZM13.4 27.2C12.5 27.2 11.7 27.9 11.7 28.8C11.7 29.7 12.5 30.4 13.4 30.4C14.3 30.4 15.1 29.7 15.1 28.8C15.1 27.9 14.3 27.2 13.4 27.2Z" fill="black"/>
<path d="M8.3 15.1H5.5V16.2H8.3V15.1Z" fill="black"/>
<path d="M6.1 18.9H1V20H6.1V18.9Z" fill="black"/>
<path d="M4.30001 15.1H3.20001V16.2H4.30001V15.1Z" fill="black"/>
<path d="M8.9 22.7H1V23.8H8.9V22.7Z" fill="black"/>
</svg>
