<svg width="38" height="38" viewBox="0 0 38 38" fill="none" xmlns="http://www.w3.org/2000/svg">
<mask id="mask0" mask-type="alpha" maskUnits="userSpaceOnUse" x="3" y="3" width="31" height="32">
<path d="M3.32495 3.8H33.7249V34.2H3.32495V3.8Z" fill="white"/>
</mask>
<g mask="url(#mask0)">
<path fill-rule="evenodd" clip-rule="evenodd" d="M33.7249 19C33.7249 27.3949 26.9207 34.2 18.525 34.2C10.1301 34.2 3.32495 27.3949 3.32495 19C3.32495 10.6051 10.1301 3.8 18.525 3.8C26.9207 3.8 33.7249 10.6051 33.7249 19Z" fill="#E9EAEB"/>
</g>
<path fill-rule="evenodd" clip-rule="evenodd" d="M27.7922 5.225H9.2335C8.0628 5.225 7.11243 6.17001 7.11243 7.33608V17.363C7.11243 18.5291 8.0628 19.475 9.2335 19.475H27.7922C28.9629 19.475 29.9124 18.5291 29.9124 17.363V7.33608C29.9124 6.17001 28.9629 5.225 27.7922 5.225Z" fill="white"/>
<path d="M29.9124 14.7244V7.33608C29.9124 6.17001 28.9629 5.225 27.7922 5.225H9.2335C8.06191 5.225 7.11243 6.17001 7.11243 7.33608V15.3911V17.363C7.11243 18.5291 8.06191 19.475 9.2335 19.475H10.8236" stroke="black" stroke-width="1.425"/>
<path d="M29.9124 7.6H7.11243" stroke="black" stroke-width="0.95"/>
<path d="M29.9124 10.925H7.11243" stroke="black" stroke-width="0.95"/>
<path fill-rule="evenodd" clip-rule="evenodd" d="M13.9826 16.15C12.811 16.15 11.8624 17.0885 11.8624 18.2466V29.2525C11.8624 30.4062 12.8163 31.35 13.9826 31.35H32.5414C33.7129 31.35 34.6624 30.4115 34.6624 29.2525V18.2466C34.6624 17.0885 33.7129 16.15 32.5414 16.15H13.9826Z" fill="#1097AE"/>
<path fill-rule="evenodd" clip-rule="evenodd" d="M13.9826 16.15C12.811 16.15 11.8624 17.0885 11.8624 18.2466V29.2525C11.8624 30.4062 12.8163 31.35 13.9826 31.35H32.5414C33.7129 31.35 34.6624 30.4115 34.6624 29.2525V18.2466C34.6624 17.0885 33.7129 16.15 32.5414 16.15H13.9826Z" stroke="black" stroke-width="1.425"/>
<path d="M15.1875 27.55H18.0375" stroke="black" stroke-width="0.95"/>
<path d="M19.4625 27.55H22.3125" stroke="black" stroke-width="0.95"/>
<path d="M24.2125 27.55H27.0625" stroke="black" stroke-width="0.95"/>
<path d="M28.9625 27.55H31.8125" stroke="black" stroke-width="0.95"/>
<path fill-rule="evenodd" clip-rule="evenodd" d="M32.2875 20.9005C32.2875 21.9494 31.3571 22.8 30.2087 22.8H29.6152C28.4679 22.8 27.5375 21.9494 27.5375 20.9005C27.5375 19.8515 28.4679 19 29.6152 19H30.2087C31.3571 19 32.2875 19.8515 32.2875 20.9005Z" fill="white"/>
<path fill-rule="evenodd" clip-rule="evenodd" d="M32.2875 20.9005C32.2875 21.9494 31.3571 22.8 30.2087 22.8H29.6152C28.4679 22.8 27.5375 21.9494 27.5375 20.9005C27.5375 19.8515 28.4679 19 29.6152 19H30.2087C31.3571 19 32.2875 19.8515 32.2875 20.9005Z" stroke="black" stroke-width="0.95"/>
<path d="M8.53748 13.3H13.2875" stroke="black" stroke-width="0.95"/>
<path d="M14.2374 13.3H18.9874" stroke="black" stroke-width="0.95"/>
<rect x="7" y="7" width="23" height="4" fill="black"/>
</svg>
