<?xml version="1.0" encoding="utf-8"?>
<!-- Generator: Adobe Illustrator 19.0.0, SVG Export Plug-In . SVG Version: 6.00 Build 0)  -->
<svg version="1.1" xmlns="http://www.w3.org/2000/svg" xmlns:xlink="http://www.w3.org/1999/xlink" x="0px" y="0px"
	 viewBox="0 0 50 50" style="enable-background:new 0 0 50 50;" xml:space="preserve">
<style type="text/css">
	.st0{enable-background:new    ;}
	.st1{fill-rule:evenodd;clip-rule:evenodd;fill:#1F97AE;}
	.st2{fill:#FFFFFF;}
</style>
<g id="circulo" class="st0">
	<g id="Ellipse_1">
		<g>
			<circle class="st1" cx="24.8" cy="24.8" r="23.9"/>
		</g>
	</g>
</g>
<g id="icono-catalogos" class="st0">
	<g id="catalogos">
		<g>
			<path class="st2" d="M25.2,10.7l-12.8,1.9v27.3L25.2,38L38,39.8V12.5L25.2,10.7z M24.3,36.3l-10.2,1.5V14l10.2-1.5V36.3z
				 M36.2,37.8L26,36.3V12.5L36.2,14V37.8z M28,34.9l6.3,0.9V24.1L28,23.2V34.9z M29.7,25.2l2.8,0.4v8.1l-2.8-0.4V25.2z M16.1,35.8
				l6.3-0.9V23.2l-6.3,0.9V35.8z M17.8,25.6l2.8-0.4v8.1l-2.8,0.4V25.6z M34.4,15.6l-6.3-0.9l-0.2,1.7l6.3,0.9L34.4,15.6z
				 M34.4,18.4l-6.3-0.9l-0.2,1.7l6.3,0.9L34.4,18.4z M27.8,22l6.3,0.9l0.2-1.7l-6.3-0.9L27.8,22z M22.5,16.3l-0.2-1.7l-6.3,0.9
				l0.2,1.7L22.5,16.3z M22.5,19.2l-0.2-1.7l-6.3,0.9l0.2,1.7L22.5,19.2z M22.5,22l-0.2-1.7l-6.3,0.9l0.2,1.7L22.5,22z"/>
		</g>
	</g>
</g>
</svg>
