<?xml version="1.0" encoding="utf-8"?>
<!-- Generator: Adobe Illustrator 19.0.0, SVG Export Plug-In . SVG Version: 6.00 Build 0)  -->
<svg version="1.1" xmlns="http://www.w3.org/2000/svg" xmlns:xlink="http://www.w3.org/1999/xlink" x="0px" y="0px"
	 viewBox="0 0 50 50" style="enable-background:new 0 0 50 50;" xml:space="preserve">
<style type="text/css">
	.st0{enable-background:new    ;}
	.st1{fill-rule:evenodd;clip-rule:evenodd;fill:#1F97AE;}
	.st2{fill:#FFFFFF;}
</style>
<g id="circulo" class="st0">
	<g id="Ellipse_1">
		<g>
			<circle class="st1" cx="24.8" cy="24.8" r="23.9"/>
		</g>
	</g>
</g>
<g id="iconohome">
	<g>
		<g>
			<path class="st2" d="M25.1,15.9c-0.4-0.4-1.1-0.4-1.5,0l-8.1,6.7c-0.3,0.2-0.4,0.6-0.4,0.9v11.9c0,0.7,0.5,1.2,1.2,1.2h5v-6.9
				c0-0.5,0.4-0.9,0.9-0.9h4.6c0.5,0,0.9,0.4,0.9,0.9v6.9h5c0.7,0,1.2-0.5,1.2-1.2V23.6c0-0.4-0.2-0.7-0.4-0.9L25.1,15.9z
				 M36.9,21.8c0-0.4-0.2-0.7-0.5-1L26,12.5c-0.5-0.4-1.1-0.6-1.7-0.6c0,0,0,0,0,0c0,0,0,0,0,0c-0.6,0-1.2,0.2-1.7,0.6l-10.4,8.3
				c-0.3,0.2-0.5,0.6-0.5,1c0,0,0,0.5,0,1c0,0.7,0.6,1.3,1.3,1.3c0.7,0,1.3-0.6,1.3-1.3c0-0.1,0-0.2,0-0.3l9.3-7.4
				c0,0,0.4-0.3,0.8-0.3c0.4,0,0.8,0.3,0.8,0.3l9.3,7.4c0,0.1,0,0.2,0,0.3c0,0.7,0.6,1.3,1.3,1.3c0.7,0,1.3-0.6,1.3-1.3
				C36.9,22.3,36.9,21.8,36.9,21.8z"/>
		</g>
	</g>
</g>
</svg>
